<?xml version="1.0" encoding="UTF-8" standalone="no"?>
<!DOCTYPE svg PUBLIC "-//W3C//DTD SVG 1.1//EN"
 "http://www.w3.org/Graphics/SVG/1.1/DTD/svg11.dtd">
<!-- Generated by graphviz version 2.43.0 (0)
 -->
<!-- Title: squid/src/acl/Options.cc Pages: 1 -->
<svg width="3988pt" height="302pt"
 viewBox="0.00 0.00 3987.50 302.00" xmlns="http://www.w3.org/2000/svg" xmlns:xlink="http://www.w3.org/1999/xlink">
<g id="graph0" class="graph" transform="scale(1 1) rotate(0) translate(4 298)">
<title>squid/src/acl/Options.cc</title>
<!-- Node1 -->
<g id="Node000001" class="node">
<title>Node1</title>
<g id="a_Node000001"><a xlink:title=" ">
<polygon fill="#999999" stroke="#666666" points="3552.5,-294 3421.5,-294 3421.5,-275 3552.5,-275 3552.5,-294"/>
<text text-anchor="middle" x="3487" y="-282" font-family="Helvetica,sans-Serif" font-size="10.00">squid/src/acl/Options.cc</text>
</a>
</g>
</g>
<!-- Node2 -->
<g id="Node000002" class="node">
<title>Node2</title>
<g id="a_Node000002"><a xlink:href="squid_8h.html" target="_top" xlink:title=" ">
<polygon fill="white" stroke="#666666" points="1448,-239 1396,-239 1396,-220 1448,-220 1448,-239"/>
<text text-anchor="middle" x="1422" y="-227" font-family="Helvetica,sans-Serif" font-size="10.00">squid.h</text>
</a>
</g>
</g>
<!-- Node1&#45;&gt;Node2 -->
<g id="edge1_Node000001_Node000002" class="edge">
<title>Node1&#45;&gt;Node2</title>
<g id="a_edge1_Node000001_Node000002"><a xlink:title=" ">
<path fill="none" stroke="#63b8ff" d="M3421.21,-281.81C3099.9,-273.56 1701.17,-237.67 1458.08,-231.43"/>
<polygon fill="#63b8ff" stroke="#63b8ff" points="1458.1,-227.93 1448.01,-231.17 1457.92,-234.92 1458.1,-227.93"/>
</a>
</g>
</g>
<!-- Node45 -->
<g id="Node000045" class="node">
<title>Node45</title>
<g id="a_Node000045"><a xlink:href="acl_2Options_8h.html" target="_top" xlink:title=" ">
<polygon fill="white" stroke="#666666" points="3025,-239 2945,-239 2945,-220 3025,-220 3025,-239"/>
<text text-anchor="middle" x="2985" y="-227" font-family="Helvetica,sans-Serif" font-size="10.00">acl/Options.h</text>
</a>
</g>
</g>
<!-- Node1&#45;&gt;Node45 -->
<g id="edge28_Node000001_Node000045" class="edge">
<title>Node1&#45;&gt;Node45</title>
<g id="a_edge28_Node000001_Node000045"><a xlink:title=" ">
<path fill="none" stroke="#63b8ff" d="M3421.37,-276.57C3319.78,-265.85 3126.64,-245.45 3035.28,-235.81"/>
<polygon fill="#63b8ff" stroke="#63b8ff" points="3035.5,-232.31 3025.19,-234.74 3034.76,-239.27 3035.5,-232.31"/>
</a>
</g>
</g>
<!-- Node55 -->
<g id="Node000055" class="node">
<title>Node55</title>
<g id="a_Node000055"><a xlink:title=" ">
<polygon fill="#e0e0e0" stroke="#999999" points="2918.5,-184 2871.5,-184 2871.5,-165 2918.5,-165 2918.5,-184"/>
<text text-anchor="middle" x="2895" y="-172" font-family="Helvetica,sans-Serif" font-size="10.00">vector</text>
</a>
</g>
</g>
<!-- Node1&#45;&gt;Node55 -->
<g id="edge59_Node000001_Node000055" class="edge">
<title>Node1&#45;&gt;Node55</title>
<g id="a_edge59_Node000001_Node000055"><a xlink:title=" ">
<path fill="none" stroke="#63b8ff" d="M3421.24,-281.44C3284.09,-276.67 2976.77,-263.38 2936,-239 2919.14,-228.92 2907.98,-208.92 2901.62,-194.05"/>
<polygon fill="#63b8ff" stroke="#63b8ff" points="2904.72,-192.37 2897.82,-184.34 2898.21,-194.92 2904.72,-192.37"/>
</a>
</g>
</g>
<!-- Node56 -->
<g id="Node000056" class="node">
<title>Node56</title>
<g id="a_Node000056"><a xlink:href="ConfigParser_8h.html" target="_top" xlink:title=" ">
<polygon fill="white" stroke="#666666" points="3361,-239 3275,-239 3275,-220 3361,-220 3361,-239"/>
<text text-anchor="middle" x="3318" y="-227" font-family="Helvetica,sans-Serif" font-size="10.00">ConfigParser.h</text>
</a>
</g>
</g>
<!-- Node1&#45;&gt;Node56 -->
<g id="edge33_Node000001_Node000056" class="edge">
<title>Node1&#45;&gt;Node56</title>
<g id="a_edge33_Node000001_Node000056"><a xlink:title=" ">
<path fill="none" stroke="#63b8ff" d="M3459.85,-274.98C3431.47,-266.09 3386.77,-252.07 3355.14,-242.15"/>
<polygon fill="#63b8ff" stroke="#63b8ff" points="3355.95,-238.73 3345.37,-239.08 3353.86,-245.41 3355.95,-238.73"/>
</a>
</g>
</g>
<!-- Node63 -->
<g id="Node000063" class="node">
<title>Node63</title>
<g id="a_Node000063"><a xlink:href="debug_2Stream_8h.html" target="_top" xlink:title=" ">
<polygon fill="white" stroke="#666666" points="3715,-129 3621,-129 3621,-110 3715,-110 3715,-129"/>
<text text-anchor="middle" x="3668" y="-117" font-family="Helvetica,sans-Serif" font-size="10.00">debug/Stream.h</text>
</a>
</g>
</g>
<!-- Node1&#45;&gt;Node63 -->
<g id="edge50_Node000001_Node000063" class="edge">
<title>Node1&#45;&gt;Node63</title>
<g id="a_edge50_Node000001_Node000063"><a xlink:title=" ">
<path fill="none" stroke="#63b8ff" d="M3552.65,-275.53C3647.61,-262.44 3815.63,-232.84 3849,-184 3881.15,-136.96 3789.47,-124.43 3725.13,-121.3"/>
<polygon fill="#63b8ff" stroke="#63b8ff" points="3725.2,-117.8 3715.06,-120.87 3724.9,-124.79 3725.2,-117.8"/>
</a>
</g>
</g>
<!-- Node49 -->
<g id="Node000049" class="node">
<title>Node49</title>
<g id="a_Node000049"><a xlink:title=" ">
<polygon fill="#e0e0e0" stroke="#999999" points="3886,-74 3826,-74 3826,-55 3886,-55 3886,-74"/>
<text text-anchor="middle" x="3856" y="-62" font-family="Helvetica,sans-Serif" font-size="10.00">iostream</text>
</a>
</g>
</g>
<!-- Node1&#45;&gt;Node49 -->
<g id="edge57_Node000001_Node000049" class="edge">
<title>Node1&#45;&gt;Node49</title>
<g id="a_edge57_Node000001_Node000049"><a xlink:title=" ">
<path fill="none" stroke="#63b8ff" d="M3552.61,-281.61C3613.78,-278.01 3706.64,-267.77 3782,-239 3823.69,-223.08 3844.78,-223.26 3866,-184 3883.27,-152.04 3872.08,-108.03 3863.39,-83.64"/>
<polygon fill="#63b8ff" stroke="#63b8ff" points="3866.62,-82.3 3859.79,-74.2 3860.08,-84.79 3866.62,-82.3"/>
</a>
</g>
</g>
<!-- Node72 -->
<g id="Node000072" class="node">
<title>Node72</title>
<g id="a_Node000072"><a xlink:href="sbuf_2Stream_8h.html" target="_top" xlink:title=" ">
<polygon fill="white" stroke="#666666" points="3698.5,-239 3613.5,-239 3613.5,-220 3698.5,-220 3698.5,-239"/>
<text text-anchor="middle" x="3656" y="-227" font-family="Helvetica,sans-Serif" font-size="10.00">sbuf/Stream.h</text>
</a>
</g>
</g>
<!-- Node1&#45;&gt;Node72 -->
<g id="edge51_Node000001_Node000072" class="edge">
<title>Node1&#45;&gt;Node72</title>
<g id="a_edge51_Node000001_Node000072"><a xlink:title=" ">
<path fill="none" stroke="#63b8ff" d="M3514.15,-274.98C3542.53,-266.09 3587.23,-252.07 3618.86,-242.15"/>
<polygon fill="#63b8ff" stroke="#63b8ff" points="3620.14,-245.41 3628.63,-239.08 3618.05,-238.73 3620.14,-245.41"/>
</a>
</g>
</g>
<!-- Node50 -->
<g id="Node000050" class="node">
<title>Node50</title>
<g id="a_Node000050"><a xlink:title=" ">
<polygon fill="#e0e0e0" stroke="#999999" points="3979.5,-239 3934.5,-239 3934.5,-220 3979.5,-220 3979.5,-239"/>
<text text-anchor="middle" x="3957" y="-227" font-family="Helvetica,sans-Serif" font-size="10.00">utility</text>
</a>
</g>
</g>
<!-- Node1&#45;&gt;Node50 -->
<g id="edge58_Node000001_Node000050" class="edge">
<title>Node1&#45;&gt;Node50</title>
<g id="a_edge58_Node000001_Node000050"><a xlink:title=" ">
<path fill="none" stroke="#63b8ff" d="M3552.62,-279.29C3637.74,-273.25 3790.65,-260.42 3920,-239 3921.46,-238.76 3922.95,-238.49 3924.46,-238.21"/>
<polygon fill="#63b8ff" stroke="#63b8ff" points="3925.3,-241.61 3934.39,-236.16 3923.89,-234.75 3925.3,-241.61"/>
</a>
</g>
</g>
<!-- Node3 -->
<g id="Node000003" class="node">
<title>Node3</title>
<g id="a_Node000003"><a xlink:href="autoconf_8h.html" target="_top" xlink:title=" ">
<polygon fill="white" stroke="#666666" points="1323,-184 1255,-184 1255,-165 1323,-165 1323,-184"/>
<text text-anchor="middle" x="1289" y="-172" font-family="Helvetica,sans-Serif" font-size="10.00">autoconf.h</text>
</a>
</g>
</g>
<!-- Node2&#45;&gt;Node3 -->
<g id="edge2_Node000002_Node000003" class="edge">
<title>Node2&#45;&gt;Node3</title>
<g id="a_edge2_Node000002_Node000003"><a xlink:title=" ">
<path fill="none" stroke="#63b8ff" d="M1400.63,-219.98C1378.85,-211.3 1344.84,-197.75 1320.08,-187.88"/>
<polygon fill="#63b8ff" stroke="#63b8ff" points="1321.34,-184.62 1310.76,-184.17 1318.75,-191.12 1321.34,-184.62"/>
</a>
</g>
</g>
<!-- Node4 -->
<g id="Node000004" class="node">
<title>Node4</title>
<g id="a_Node000004"><a xlink:href="version_8h.html" target="_top" xlink:title=" ">
<polygon fill="white" stroke="#666666" points="1403,-184 1341,-184 1341,-165 1403,-165 1403,-184"/>
<text text-anchor="middle" x="1372" y="-172" font-family="Helvetica,sans-Serif" font-size="10.00">version.h</text>
</a>
</g>
</g>
<!-- Node2&#45;&gt;Node4 -->
<g id="edge3_Node000002_Node000004" class="edge">
<title>Node2&#45;&gt;Node4</title>
<g id="a_edge3_Node000002_Node000004"><a xlink:title=" ">
<path fill="none" stroke="#63b8ff" d="M1413.74,-219.75C1406.54,-212.11 1395.89,-200.82 1387.15,-191.56"/>
<polygon fill="#63b8ff" stroke="#63b8ff" points="1389.51,-188.96 1380.1,-184.09 1384.42,-193.76 1389.51,-188.96"/>
</a>
</g>
</g>
<!-- Node5 -->
<g id="Node000005" class="node">
<title>Node5</title>
<g id="a_Node000005"><a xlink:href="compat_8h.html" target="_top" xlink:title=" ">
<polygon fill="#fff0f0" stroke="red" points="1523,-184 1421,-184 1421,-165 1523,-165 1523,-184"/>
<text text-anchor="middle" x="1472" y="-172" font-family="Helvetica,sans-Serif" font-size="10.00">compat/compat.h</text>
</a>
</g>
</g>
<!-- Node2&#45;&gt;Node5 -->
<g id="edge4_Node000002_Node000005" class="edge">
<title>Node2&#45;&gt;Node5</title>
<g id="a_edge4_Node000002_Node000005"><a xlink:title=" ">
<path fill="none" stroke="#63b8ff" d="M1430.26,-219.75C1437.46,-212.11 1448.11,-200.82 1456.85,-191.56"/>
<polygon fill="#63b8ff" stroke="#63b8ff" points="1459.58,-193.76 1463.9,-184.09 1454.49,-188.96 1459.58,-193.76"/>
</a>
</g>
</g>
<!-- Node6 -->
<g id="Node000006" class="node">
<title>Node6</title>
<g id="a_Node000006"><a xlink:href="osdetect_8h.html" target="_top" xlink:title=" ">
<polygon fill="white" stroke="#666666" points="1105.5,-129 998.5,-129 998.5,-110 1105.5,-110 1105.5,-129"/>
<text text-anchor="middle" x="1052" y="-117" font-family="Helvetica,sans-Serif" font-size="10.00">compat/osdetect.h</text>
</a>
</g>
</g>
<!-- Node5&#45;&gt;Node6 -->
<g id="edge5_Node000005_Node000006" class="edge">
<title>Node5&#45;&gt;Node6</title>
<g id="a_edge5_Node000005_Node000006"><a xlink:title=" ">
<path fill="none" stroke="#63b8ff" d="M1420.95,-166.2C1417.92,-165.79 1414.92,-165.38 1412,-165 1283.39,-148.1 1248.57,-145.99 1115.77,-129.08"/>
<polygon fill="#63b8ff" stroke="#63b8ff" points="1115.97,-125.58 1105.61,-127.78 1115.09,-132.52 1115.97,-125.58"/>
</a>
</g>
</g>
<!-- Node7 -->
<g id="Node000007" class="node">
<title>Node7</title>
<g id="a_Node000007"><a xlink:href="fdsetsize_8h.html" target="_top" xlink:title=" ">
<polygon fill="white" stroke="#666666" points="1234,-129 1124,-129 1124,-110 1234,-110 1234,-129"/>
<text text-anchor="middle" x="1179" y="-117" font-family="Helvetica,sans-Serif" font-size="10.00">compat/fdsetsize.h</text>
</a>
</g>
</g>
<!-- Node5&#45;&gt;Node7 -->
<g id="edge6_Node000005_Node000007" class="edge">
<title>Node5&#45;&gt;Node7</title>
<g id="a_edge6_Node000005_Node000007"><a xlink:title=" ">
<path fill="none" stroke="#63b8ff" d="M1424.92,-164.98C1373.6,-155.7 1291.46,-140.84 1236.4,-130.88"/>
<polygon fill="#63b8ff" stroke="#63b8ff" points="1236.91,-127.42 1226.44,-129.08 1235.66,-134.31 1236.91,-127.42"/>
</a>
</g>
</g>
<!-- Node8 -->
<g id="Node000008" class="node">
<title>Node8</title>
<g id="a_Node000008"><a xlink:href="types_8h.html" target="_top" xlink:title=" ">
<polygon fill="#fff0f0" stroke="red" points="1344,-129 1252,-129 1252,-110 1344,-110 1344,-129"/>
<text text-anchor="middle" x="1298" y="-117" font-family="Helvetica,sans-Serif" font-size="10.00">compat/types.h</text>
</a>
</g>
</g>
<!-- Node5&#45;&gt;Node8 -->
<g id="edge7_Node000005_Node000008" class="edge">
<title>Node5&#45;&gt;Node8</title>
<g id="a_edge7_Node000005_Node000008"><a xlink:title=" ">
<path fill="none" stroke="#63b8ff" d="M1444.04,-164.98C1414.7,-156.05 1368.4,-141.94 1335.81,-132.02"/>
<polygon fill="#63b8ff" stroke="#63b8ff" points="1336.76,-128.65 1326.18,-129.08 1334.72,-135.34 1336.76,-128.65"/>
</a>
</g>
</g>
<!-- Node10 -->
<g id="Node000010" class="node">
<title>Node10</title>
<g id="a_Node000010"><a xlink:href="aix_8h.html" target="_top" xlink:title=" ">
<polygon fill="white" stroke="#666666" points="1457.5,-129 1362.5,-129 1362.5,-110 1457.5,-110 1457.5,-129"/>
<text text-anchor="middle" x="1410" y="-117" font-family="Helvetica,sans-Serif" font-size="10.00">compat/os/aix.h</text>
</a>
</g>
</g>
<!-- Node5&#45;&gt;Node10 -->
<g id="edge8_Node000005_Node000010" class="edge">
<title>Node5&#45;&gt;Node10</title>
<g id="a_edge8_Node000005_Node000010"><a xlink:title=" ">
<path fill="none" stroke="#63b8ff" d="M1462.04,-164.98C1452.87,-157.15 1439.06,-145.34 1427.97,-135.86"/>
<polygon fill="#63b8ff" stroke="#63b8ff" points="1430.02,-133.01 1420.14,-129.17 1425.47,-138.33 1430.02,-133.01"/>
</a>
</g>
</g>
<!-- Node11 -->
<g id="Node000011" class="node">
<title>Node11</title>
<g id="a_Node000011"><a xlink:href="android_8h.html" target="_top" xlink:title=" ">
<polygon fill="white" stroke="#666666" points="1592,-129 1476,-129 1476,-110 1592,-110 1592,-129"/>
<text text-anchor="middle" x="1534" y="-117" font-family="Helvetica,sans-Serif" font-size="10.00">compat/os/android.h</text>
</a>
</g>
</g>
<!-- Node5&#45;&gt;Node11 -->
<g id="edge9_Node000005_Node000011" class="edge">
<title>Node5&#45;&gt;Node11</title>
<g id="a_edge9_Node000005_Node000011"><a xlink:title=" ">
<path fill="none" stroke="#63b8ff" d="M1481.96,-164.98C1491.13,-157.15 1504.94,-145.34 1516.03,-135.86"/>
<polygon fill="#63b8ff" stroke="#63b8ff" points="1518.53,-138.33 1523.86,-129.17 1513.98,-133.01 1518.53,-138.33"/>
</a>
</g>
</g>
<!-- Node12 -->
<g id="Node000012" class="node">
<title>Node12</title>
<g id="a_Node000012"><a xlink:href="dragonfly_8h.html" target="_top" xlink:title=" ">
<polygon fill="white" stroke="#666666" points="1734,-129 1610,-129 1610,-110 1734,-110 1734,-129"/>
<text text-anchor="middle" x="1672" y="-117" font-family="Helvetica,sans-Serif" font-size="10.00">compat/os/dragonfly.h</text>
</a>
</g>
</g>
<!-- Node5&#45;&gt;Node12 -->
<g id="edge10_Node000005_Node000012" class="edge">
<title>Node5&#45;&gt;Node12</title>
<g id="a_edge10_Node000005_Node000012"><a xlink:title=" ">
<path fill="none" stroke="#63b8ff" d="M1504.13,-164.98C1538.15,-155.97 1592,-141.7 1629.5,-131.76"/>
<polygon fill="#63b8ff" stroke="#63b8ff" points="1630.84,-135.03 1639.61,-129.08 1629.05,-128.26 1630.84,-135.03"/>
</a>
</g>
</g>
<!-- Node13 -->
<g id="Node000013" class="node">
<title>Node13</title>
<g id="a_Node000013"><a xlink:href="freebsd_8h.html" target="_top" xlink:title=" ">
<polygon fill="white" stroke="#666666" points="1868,-129 1752,-129 1752,-110 1868,-110 1868,-129"/>
<text text-anchor="middle" x="1810" y="-117" font-family="Helvetica,sans-Serif" font-size="10.00">compat/os/freebsd.h</text>
</a>
</g>
</g>
<!-- Node5&#45;&gt;Node13 -->
<g id="edge11_Node000005_Node000013" class="edge">
<title>Node5&#45;&gt;Node13</title>
<g id="a_edge11_Node000005_Node000013"><a xlink:title=" ">
<path fill="none" stroke="#63b8ff" d="M1523.33,-165.45C1582.85,-156.12 1681.01,-140.73 1745.59,-130.6"/>
<polygon fill="#63b8ff" stroke="#63b8ff" points="1746.32,-134.03 1755.66,-129.02 1745.24,-127.11 1746.32,-134.03"/>
</a>
</g>
</g>
<!-- Node14 -->
<g id="Node000014" class="node">
<title>Node14</title>
<g id="a_Node000014"><a xlink:href="hpux_8h.html" target="_top" xlink:title=" ">
<polygon fill="white" stroke="#666666" points="1990,-129 1886,-129 1886,-110 1990,-110 1990,-129"/>
<text text-anchor="middle" x="1938" y="-117" font-family="Helvetica,sans-Serif" font-size="10.00">compat/os/hpux.h</text>
</a>
</g>
</g>
<!-- Node5&#45;&gt;Node14 -->
<g id="edge12_Node000005_Node000014" class="edge">
<title>Node5&#45;&gt;Node14</title>
<g id="a_edge12_Node000005_Node000014"><a xlink:title=" ">
<path fill="none" stroke="#63b8ff" d="M1523.2,-168.36C1598.22,-160.71 1742.68,-145.59 1875.8,-129.12"/>
<polygon fill="#63b8ff" stroke="#63b8ff" points="1876.28,-132.59 1885.77,-127.88 1875.41,-125.64 1876.28,-132.59"/>
</a>
</g>
</g>
<!-- Node15 -->
<g id="Node000015" class="node">
<title>Node15</title>
<g id="a_Node000015"><a xlink:href="linux_8h.html" target="_top" xlink:title=" ">
<polygon fill="white" stroke="#666666" points="2112,-129 2008,-129 2008,-110 2112,-110 2112,-129"/>
<text text-anchor="middle" x="2060" y="-117" font-family="Helvetica,sans-Serif" font-size="10.00">compat/os/linux.h</text>
</a>
</g>
</g>
<!-- Node5&#45;&gt;Node15 -->
<g id="edge13_Node000005_Node000015" class="edge">
<title>Node5&#45;&gt;Node15</title>
<g id="a_edge13_Node000005_Node000015"><a xlink:title=" ">
<path fill="none" stroke="#63b8ff" d="M1523.33,-170.09C1615.93,-163.75 1817.29,-149.02 1997.58,-129.1"/>
<polygon fill="#63b8ff" stroke="#63b8ff" points="1998.23,-132.55 2007.78,-127.97 1997.45,-125.59 1998.23,-132.55"/>
</a>
</g>
</g>
<!-- Node16 -->
<g id="Node000016" class="node">
<title>Node16</title>
<g id="a_Node000016"><a xlink:href="macosx_8h.html" target="_top" xlink:title=" ">
<polygon fill="white" stroke="#666666" points="2248,-129 2130,-129 2130,-110 2248,-110 2248,-129"/>
<text text-anchor="middle" x="2189" y="-117" font-family="Helvetica,sans-Serif" font-size="10.00">compat/os/macosx.h</text>
</a>
</g>
</g>
<!-- Node5&#45;&gt;Node16 -->
<g id="edge14_Node000005_Node000016" class="edge">
<title>Node5&#45;&gt;Node16</title>
<g id="a_edge14_Node000005_Node000016"><a xlink:title=" ">
<path fill="none" stroke="#63b8ff" d="M1523.4,-170.95C1631.64,-165.38 1891.23,-150.9 2119.52,-129.09"/>
<polygon fill="#63b8ff" stroke="#63b8ff" points="2120.06,-132.55 2129.68,-128.11 2119.39,-125.59 2120.06,-132.55"/>
</a>
</g>
</g>
<!-- Node17 -->
<g id="Node000017" class="node">
<title>Node17</title>
<g id="a_Node000017"><a xlink:href="mingw_8h.html" target="_top" xlink:title=" ">
<polygon fill="white" stroke="#666666" points="2378,-129 2266,-129 2266,-110 2378,-110 2378,-129"/>
<text text-anchor="middle" x="2322" y="-117" font-family="Helvetica,sans-Serif" font-size="10.00">compat/os/mingw.h</text>
</a>
</g>
</g>
<!-- Node5&#45;&gt;Node17 -->
<g id="edge15_Node000005_Node000017" class="edge">
<title>Node5&#45;&gt;Node17</title>
<g id="a_edge15_Node000005_Node000017"><a xlink:title=" ">
<path fill="none" stroke="#63b8ff" d="M1523.07,-171.9C1646.87,-167.76 1973,-155.16 2255.62,-129.06"/>
<polygon fill="#63b8ff" stroke="#63b8ff" points="2256.03,-132.54 2265.66,-128.12 2255.38,-125.57 2256.03,-132.54"/>
</a>
</g>
</g>
<!-- Node18 -->
<g id="Node000018" class="node">
<title>Node18</title>
<g id="a_Node000018"><a xlink:href="mswindows_8h.html" target="_top" xlink:title=" ">
<polygon fill="white" stroke="#666666" points="2533.5,-129 2396.5,-129 2396.5,-110 2533.5,-110 2533.5,-129"/>
<text text-anchor="middle" x="2465" y="-117" font-family="Helvetica,sans-Serif" font-size="10.00">compat/os/mswindows.h</text>
</a>
</g>
</g>
<!-- Node5&#45;&gt;Node18 -->
<g id="edge16_Node000005_Node000018" class="edge">
<title>Node5&#45;&gt;Node18</title>
<g id="a_edge16_Node000005_Node000018"><a xlink:title=" ">
<path fill="none" stroke="#63b8ff" d="M1523.16,-172.09C1660.73,-168.06 2050.3,-155.14 2385.71,-129.05"/>
<polygon fill="#63b8ff" stroke="#63b8ff" points="2386.42,-132.5 2396.12,-128.23 2385.87,-125.52 2386.42,-132.5"/>
</a>
</g>
</g>
<!-- Node19 -->
<g id="Node000019" class="node">
<title>Node19</title>
<g id="a_Node000019"><a xlink:href="netbsd_8h.html" target="_top" xlink:title=" ">
<polygon fill="white" stroke="#666666" points="2664.5,-129 2551.5,-129 2551.5,-110 2664.5,-110 2664.5,-129"/>
<text text-anchor="middle" x="2608" y="-117" font-family="Helvetica,sans-Serif" font-size="10.00">compat/os/netbsd.h</text>
</a>
</g>
</g>
<!-- Node5&#45;&gt;Node19 -->
<g id="edge17_Node000005_Node000019" class="edge">
<title>Node5&#45;&gt;Node19</title>
<g id="a_edge17_Node000005_Node000019"><a xlink:title=" ">
<path fill="none" stroke="#63b8ff" d="M1523.05,-172.94C1675.85,-170.94 2143.04,-162.4 2541.17,-128.98"/>
<polygon fill="#63b8ff" stroke="#63b8ff" points="2541.48,-132.47 2551.15,-128.14 2540.89,-125.49 2541.48,-132.47"/>
</a>
</g>
</g>
<!-- Node20 -->
<g id="Node000020" class="node">
<title>Node20</title>
<g id="a_Node000020"><a xlink:href="openbsd_8h.html" target="_top" xlink:title=" ">
<polygon fill="white" stroke="#666666" points="2803.5,-129 2682.5,-129 2682.5,-110 2803.5,-110 2803.5,-129"/>
<text text-anchor="middle" x="2743" y="-117" font-family="Helvetica,sans-Serif" font-size="10.00">compat/os/openbsd.h</text>
</a>
</g>
</g>
<!-- Node5&#45;&gt;Node20 -->
<g id="edge18_Node000005_Node000020" class="edge">
<title>Node5&#45;&gt;Node20</title>
<g id="a_edge18_Node000005_Node000020"><a xlink:title=" ">
<path fill="none" stroke="#63b8ff" d="M1523.01,-173.14C1687.74,-171.64 2220.52,-164.28 2672.34,-128.97"/>
<polygon fill="#63b8ff" stroke="#63b8ff" points="2672.63,-132.46 2682.32,-128.18 2672.08,-125.48 2672.63,-132.46"/>
</a>
</g>
</g>
<!-- Node21 -->
<g id="Node000021" class="node">
<title>Node21</title>
<g id="a_Node000021"><a xlink:href="os2_8h.html" target="_top" xlink:title=" ">
<polygon fill="white" stroke="#666666" points="2918.5,-129 2821.5,-129 2821.5,-110 2918.5,-110 2918.5,-129"/>
<text text-anchor="middle" x="2870" y="-117" font-family="Helvetica,sans-Serif" font-size="10.00">compat/os/os2.h</text>
</a>
</g>
</g>
<!-- Node5&#45;&gt;Node21 -->
<g id="edge19_Node000005_Node000021" class="edge">
<title>Node5&#45;&gt;Node21</title>
<g id="a_edge19_Node000005_Node000021"><a xlink:title=" ">
<path fill="none" stroke="#63b8ff" d="M1523.24,-173.87C1700.37,-174.7 2303.21,-173.88 2811.21,-128.94"/>
<polygon fill="#63b8ff" stroke="#63b8ff" points="2811.66,-132.41 2821.31,-128.04 2811.04,-125.44 2811.66,-132.41"/>
</a>
</g>
</g>
<!-- Node22 -->
<g id="Node000022" class="node">
<title>Node22</title>
<g id="a_Node000022"><a xlink:href="qnx_8h.html" target="_top" xlink:title=" ">
<polygon fill="white" stroke="#666666" points="98,-129 0,-129 0,-110 98,-110 98,-129"/>
<text text-anchor="middle" x="49" y="-117" font-family="Helvetica,sans-Serif" font-size="10.00">compat/os/qnx.h</text>
</a>
</g>
</g>
<!-- Node5&#45;&gt;Node22 -->
<g id="edge20_Node000005_Node000022" class="edge">
<title>Node5&#45;&gt;Node22</title>
<g id="a_edge20_Node000005_Node000022"><a xlink:title=" ">
<path fill="none" stroke="#63b8ff" d="M1420.98,-165.87C1417.95,-165.54 1414.94,-165.25 1412,-165 837.22,-116.52 686.81,-178.42 108.27,-128.98"/>
<polygon fill="#63b8ff" stroke="#63b8ff" points="108.26,-125.47 98,-128.1 107.66,-132.44 108.26,-125.47"/>
</a>
</g>
</g>
<!-- Node23 -->
<g id="Node000023" class="node">
<title>Node23</title>
<g id="a_Node000023"><a xlink:href="sgi_8h.html" target="_top" xlink:title=" ">
<polygon fill="white" stroke="#666666" points="210,-129 116,-129 116,-110 210,-110 210,-129"/>
<text text-anchor="middle" x="163" y="-117" font-family="Helvetica,sans-Serif" font-size="10.00">compat/os/sgi.h</text>
</a>
</g>
</g>
<!-- Node5&#45;&gt;Node23 -->
<g id="edge21_Node000005_Node000023" class="edge">
<title>Node5&#45;&gt;Node23</title>
<g id="a_edge21_Node000005_Node000023"><a xlink:title=" ">
<path fill="none" stroke="#63b8ff" d="M1420.98,-165.88C1417.95,-165.55 1414.94,-165.25 1412,-165 886.83,-120.02 749.04,-176.17 220.19,-128.97"/>
<polygon fill="#63b8ff" stroke="#63b8ff" points="220.28,-125.47 210,-128.05 219.65,-132.44 220.28,-125.47"/>
</a>
</g>
</g>
<!-- Node24 -->
<g id="Node000024" class="node">
<title>Node24</title>
<g id="a_Node000024"><a xlink:href="solaris_8h.html" target="_top" xlink:title=" ">
<polygon fill="white" stroke="#666666" points="340,-129 228,-129 228,-110 340,-110 340,-129"/>
<text text-anchor="middle" x="284" y="-117" font-family="Helvetica,sans-Serif" font-size="10.00">compat/os/solaris.h</text>
</a>
</g>
</g>
<!-- Node5&#45;&gt;Node24 -->
<g id="edge22_Node000005_Node000024" class="edge">
<title>Node5&#45;&gt;Node24</title>
<g id="a_edge22_Node000005_Node000024"><a xlink:title=" ">
<path fill="none" stroke="#63b8ff" d="M1420.98,-165.89C1417.94,-165.56 1414.93,-165.26 1412,-165 944.42,-124.08 821.86,-167.07 350.47,-129.03"/>
<polygon fill="#63b8ff" stroke="#63b8ff" points="350.59,-125.53 340.33,-128.2 350.02,-132.5 350.59,-125.53"/>
</a>
</g>
</g>
<!-- Node25 -->
<g id="Node000025" class="node">
<title>Node25</title>
<g id="a_Node000025"><a xlink:href="sunos_8h.html" target="_top" xlink:title=" ">
<polygon fill="white" stroke="#666666" points="466,-129 358,-129 358,-110 466,-110 466,-129"/>
<text text-anchor="middle" x="412" y="-117" font-family="Helvetica,sans-Serif" font-size="10.00">compat/os/sunos.h</text>
</a>
</g>
</g>
<!-- Node5&#45;&gt;Node25 -->
<g id="edge23_Node000005_Node000025" class="edge">
<title>Node5&#45;&gt;Node25</title>
<g id="a_edge23_Node000005_Node000025"><a xlink:title=" ">
<path fill="none" stroke="#63b8ff" d="M1420.98,-165.91C1417.94,-165.57 1414.93,-165.26 1412,-165 1000.26,-128.02 891.94,-164.31 476.44,-129.03"/>
<polygon fill="#63b8ff" stroke="#63b8ff" points="476.52,-125.52 466.26,-128.16 475.92,-132.5 476.52,-125.52"/>
</a>
</g>
</g>
<!-- Node26 -->
<g id="Node000026" class="node">
<title>Node26</title>
<g id="a_Node000026"><a xlink:href="assert_8h.html" target="_top" xlink:title=" ">
<polygon fill="white" stroke="#666666" points="579.5,-129 484.5,-129 484.5,-110 579.5,-110 579.5,-129"/>
<text text-anchor="middle" x="532" y="-117" font-family="Helvetica,sans-Serif" font-size="10.00">compat/assert.h</text>
</a>
</g>
</g>
<!-- Node5&#45;&gt;Node26 -->
<g id="edge24_Node000005_Node000026" class="edge">
<title>Node5&#45;&gt;Node26</title>
<g id="a_edge24_Node000005_Node000026"><a xlink:title=" ">
<path fill="none" stroke="#63b8ff" d="M1420.98,-165.93C1417.94,-165.58 1414.93,-165.27 1412,-165 1050.72,-131.59 955.17,-163.46 589.6,-128.93"/>
<polygon fill="#63b8ff" stroke="#63b8ff" points="589.83,-125.43 579.54,-127.97 589.16,-132.4 589.83,-125.43"/>
</a>
</g>
</g>
<!-- Node27 -->
<g id="Node000027" class="node">
<title>Node27</title>
<g id="a_Node000027"><a xlink:href="compat__shared_8h.html" target="_top" xlink:title=" ">
<polygon fill="#fff0f0" stroke="red" points="738,-129 598,-129 598,-110 738,-110 738,-129"/>
<text text-anchor="middle" x="668" y="-117" font-family="Helvetica,sans-Serif" font-size="10.00">compat/compat_shared.h</text>
</a>
</g>
</g>
<!-- Node5&#45;&gt;Node27 -->
<g id="edge25_Node000005_Node000027" class="edge">
<title>Node5&#45;&gt;Node27</title>
<g id="a_edge25_Node000005_Node000027"><a xlink:title=" ">
<path fill="none" stroke="#63b8ff" d="M1420.97,-165.96C1417.94,-165.61 1414.93,-165.29 1412,-165 1120.72,-136.54 1043.75,-152.47 748.34,-129.06"/>
<polygon fill="#63b8ff" stroke="#63b8ff" points="748.44,-125.56 738.19,-128.25 747.88,-132.54 748.44,-125.56"/>
</a>
</g>
</g>
<!-- Node37 -->
<g id="Node000037" class="node">
<title>Node37</title>
<g id="a_Node000037"><a xlink:href="stdvarargs_8h.html" target="_top" xlink:title=" ">
<polygon fill="#fff0f0" stroke="red" points="873.5,-129 756.5,-129 756.5,-110 873.5,-110 873.5,-129"/>
<text text-anchor="middle" x="815" y="-117" font-family="Helvetica,sans-Serif" font-size="10.00">compat/stdvarargs.h</text>
</a>
</g>
</g>
<!-- Node5&#45;&gt;Node37 -->
<g id="edge26_Node000005_Node000037" class="edge">
<title>Node5&#45;&gt;Node37</title>
<g id="a_edge26_Node000005_Node000037"><a xlink:title=" ">
<path fill="none" stroke="#63b8ff" d="M1420.97,-166.01C1417.94,-165.65 1414.93,-165.31 1412,-165 1180.51,-140.77 1118.73,-151.55 884.03,-129.14"/>
<polygon fill="#63b8ff" stroke="#63b8ff" points="884.09,-125.63 873.8,-128.16 883.42,-132.6 884.09,-125.63"/>
</a>
</g>
</g>
<!-- Node39 -->
<g id="Node000039" class="node">
<title>Node39</title>
<g id="a_Node000039"><a xlink:href="stdio_8h.html" target="_top" xlink:title=" ">
<polygon fill="#fff0f0" stroke="red" points="980.5,-129 891.5,-129 891.5,-110 980.5,-110 980.5,-129"/>
<text text-anchor="middle" x="936" y="-117" font-family="Helvetica,sans-Serif" font-size="10.00">compat/stdio.h</text>
</a>
</g>
</g>
<!-- Node5&#45;&gt;Node39 -->
<g id="edge27_Node000005_Node000039" class="edge">
<title>Node5&#45;&gt;Node39</title>
<g id="a_edge27_Node000005_Node000039"><a xlink:title=" ">
<path fill="none" stroke="#63b8ff" d="M1420.96,-166.07C1417.93,-165.69 1414.93,-165.33 1412,-165 1227.82,-144.13 1178.02,-151.68 990.96,-129.16"/>
<polygon fill="#63b8ff" stroke="#63b8ff" points="991.14,-125.66 980.79,-127.92 990.29,-132.6 991.14,-125.66"/>
</a>
</g>
</g>
<!-- Node46 -->
<g id="Node000046" class="node">
<title>Node46</title>
<g id="a_Node000046"><a xlink:href="acl_2forward_8h.html" target="_top" xlink:title=" ">
<polygon fill="#fff0f0" stroke="red" points="3093,-184 3013,-184 3013,-165 3093,-165 3093,-184"/>
<text text-anchor="middle" x="3053" y="-172" font-family="Helvetica,sans-Serif" font-size="10.00">acl/forward.h</text>
</a>
</g>
</g>
<!-- Node45&#45;&gt;Node46 -->
<g id="edge29_Node000045_Node000046" class="edge">
<title>Node45&#45;&gt;Node46</title>
<g id="a_edge29_Node000045_Node000046"><a xlink:title=" ">
<path fill="none" stroke="#63b8ff" d="M2995.93,-219.98C3006.08,-212.07 3021.42,-200.11 3033.65,-190.58"/>
<polygon fill="#63b8ff" stroke="#63b8ff" points="3036.14,-193.08 3041.88,-184.17 3031.84,-187.56 3036.14,-193.08"/>
</a>
</g>
</g>
<!-- Node51 -->
<g id="Node000051" class="node">
<title>Node51</title>
<g id="a_Node000051"><a xlink:href="sbuf_2forward_8h.html" target="_top" xlink:title=" ">
<polygon fill="#fff0f0" stroke="red" points="3349.5,-129 3262.5,-129 3262.5,-110 3349.5,-110 3349.5,-129"/>
<text text-anchor="middle" x="3306" y="-117" font-family="Helvetica,sans-Serif" font-size="10.00">sbuf/forward.h</text>
</a>
</g>
</g>
<!-- Node45&#45;&gt;Node51 -->
<g id="edge30_Node000045_Node000051" class="edge">
<title>Node45&#45;&gt;Node51</title>
<g id="a_edge30_Node000045_Node000051"><a xlink:title=" ">
<path fill="none" stroke="#63b8ff" d="M2984.85,-219.99C2985.12,-206.18 2987.81,-179 3004,-165 3040.13,-133.75 3175.13,-124.44 3251.84,-121.67"/>
<polygon fill="#63b8ff" stroke="#63b8ff" points="3252.38,-125.16 3262.26,-121.32 3252.15,-118.16 3252.38,-125.16"/>
</a>
</g>
</g>
<!-- Node54 -->
<g id="Node000054" class="node">
<title>Node54</title>
<g id="a_Node000054"><a xlink:title=" ">
<polygon fill="#e0e0e0" stroke="#999999" points="3426,-19 3378,-19 3378,0 3426,0 3426,-19"/>
<text text-anchor="middle" x="3402" y="-7" font-family="Helvetica,sans-Serif" font-size="10.00">iosfwd</text>
</a>
</g>
</g>
<!-- Node45&#45;&gt;Node54 -->
<g id="edge31_Node000045_Node000054" class="edge">
<title>Node45&#45;&gt;Node54</title>
<g id="a_edge31_Node000045_Node000054"><a xlink:title=" ">
<path fill="none" stroke="#63b8ff" d="M2982.64,-219.72C2979.64,-206.48 2976.16,-181.23 2988,-165 3079.64,-39.42 3285.63,-15.84 3367.5,-11.47"/>
<polygon fill="#63b8ff" stroke="#63b8ff" points="3367.93,-14.95 3377.75,-10.99 3367.6,-7.96 3367.93,-14.95"/>
</a>
</g>
</g>
<!-- Node45&#45;&gt;Node55 -->
<g id="edge32_Node000045_Node000055" class="edge">
<title>Node45&#45;&gt;Node55</title>
<g id="a_edge32_Node000045_Node000055"><a xlink:title=" ">
<path fill="none" stroke="#63b8ff" d="M2970.54,-219.98C2956.58,-211.77 2935.21,-199.18 2918.75,-189.49"/>
<polygon fill="#63b8ff" stroke="#63b8ff" points="2920.12,-186.23 2909.72,-184.17 2916.56,-192.26 2920.12,-186.23"/>
</a>
</g>
</g>
<!-- Node56&#45;&gt;Node46 -->
<g id="edge34_Node000056_Node000046" class="edge">
<title>Node56&#45;&gt;Node46</title>
<g id="a_edge34_Node000056_Node000046"><a xlink:title=" ">
<path fill="none" stroke="#63b8ff" d="M3275.42,-219.98C3228.47,-210.59 3153.01,-195.5 3103.21,-185.54"/>
<polygon fill="#63b8ff" stroke="#63b8ff" points="3103.79,-182.09 3093.3,-183.56 3102.42,-188.95 3103.79,-182.09"/>
</a>
</g>
</g>
<!-- Node56&#45;&gt;Node51 -->
<g id="edge36_Node000056_Node000051" class="edge">
<title>Node56&#45;&gt;Node51</title>
<g id="a_edge36_Node000056_Node000051"><a xlink:title=" ">
<path fill="none" stroke="#63b8ff" d="M3301.42,-219.87C3288.83,-212.3 3272.46,-200.01 3265,-184 3256.84,-166.5 3271.6,-148.14 3285.63,-135.69"/>
<polygon fill="#63b8ff" stroke="#63b8ff" points="3288.14,-138.16 3293.63,-129.09 3283.69,-132.76 3288.14,-138.16"/>
</a>
</g>
</g>
<!-- Node57 -->
<g id="Node000057" class="node">
<title>Node57</title>
<g id="a_Node000057"><a xlink:href="base_2forward_8h.html" target="_top" xlink:title=" ">
<polygon fill="white" stroke="#666666" points="3362.5,-184 3273.5,-184 3273.5,-165 3362.5,-165 3362.5,-184"/>
<text text-anchor="middle" x="3318" y="-172" font-family="Helvetica,sans-Serif" font-size="10.00">base/forward.h</text>
</a>
</g>
</g>
<!-- Node56&#45;&gt;Node57 -->
<g id="edge35_Node000056_Node000057" class="edge">
<title>Node56&#45;&gt;Node57</title>
<g id="a_edge35_Node000056_Node000057"><a xlink:title=" ">
<path fill="none" stroke="#63b8ff" d="M3318,-219.75C3318,-212.8 3318,-202.85 3318,-194.13"/>
<polygon fill="#63b8ff" stroke="#63b8ff" points="3321.5,-194.09 3318,-184.09 3314.5,-194.09 3321.5,-194.09"/>
</a>
</g>
</g>
<!-- Node58 -->
<g id="Node000058" class="node">
<title>Node58</title>
<g id="a_Node000058"><a xlink:href="SquidString_8h.html" target="_top" xlink:title=" ">
<polygon fill="#fff0f0" stroke="red" points="3602.5,-184 3521.5,-184 3521.5,-165 3602.5,-165 3602.5,-184"/>
<text text-anchor="middle" x="3562" y="-172" font-family="Helvetica,sans-Serif" font-size="10.00">SquidString.h</text>
</a>
</g>
</g>
<!-- Node56&#45;&gt;Node58 -->
<g id="edge37_Node000056_Node000058" class="edge">
<title>Node56&#45;&gt;Node58</title>
<g id="a_edge37_Node000056_Node000058"><a xlink:title=" ">
<path fill="none" stroke="#63b8ff" d="M3357.2,-219.98C3399.41,-210.82 3466.65,-196.21 3512.48,-186.26"/>
<polygon fill="#63b8ff" stroke="#63b8ff" points="3513.46,-189.63 3522.49,-184.08 3511.97,-182.78 3513.46,-189.63"/>
</a>
</g>
</g>
<!-- Node68 -->
<g id="Node000068" class="node">
<title>Node68</title>
<g id="a_Node000068"><a xlink:title=" ">
<polygon fill="#e0e0e0" stroke="#999999" points="3438,-184 3380,-184 3380,-165 3438,-165 3438,-184"/>
<text text-anchor="middle" x="3409" y="-172" font-family="Helvetica,sans-Serif" font-size="10.00">memory</text>
</a>
</g>
</g>
<!-- Node56&#45;&gt;Node68 -->
<g id="edge46_Node000056_Node000068" class="edge">
<title>Node56&#45;&gt;Node68</title>
<g id="a_edge46_Node000056_Node000068"><a xlink:title=" ">
<path fill="none" stroke="#63b8ff" d="M3332.62,-219.98C3346.86,-211.69 3368.75,-198.94 3385.45,-189.22"/>
<polygon fill="#63b8ff" stroke="#63b8ff" points="3387.23,-192.23 3394.11,-184.17 3383.71,-186.18 3387.23,-192.23"/>
</a>
</g>
</g>
<!-- Node69 -->
<g id="Node000069" class="node">
<title>Node69</title>
<g id="a_Node000069"><a xlink:title=" ">
<polygon fill="#e0e0e0" stroke="#999999" points="3503.5,-184 3456.5,-184 3456.5,-165 3503.5,-165 3503.5,-184"/>
<text text-anchor="middle" x="3480" y="-172" font-family="Helvetica,sans-Serif" font-size="10.00">queue</text>
</a>
</g>
</g>
<!-- Node56&#45;&gt;Node69 -->
<g id="edge47_Node000056_Node000069" class="edge">
<title>Node56&#45;&gt;Node69</title>
<g id="a_edge47_Node000056_Node000069"><a xlink:title=" ">
<path fill="none" stroke="#63b8ff" d="M3344.03,-219.98C3371.91,-210.86 3416.25,-196.36 3446.67,-186.4"/>
<polygon fill="#63b8ff" stroke="#63b8ff" points="3447.99,-189.65 3456.41,-183.22 3445.81,-183 3447.99,-189.65"/>
</a>
</g>
</g>
<!-- Node70 -->
<g id="Node000070" class="node">
<title>Node70</title>
<g id="a_Node000070"><a xlink:title=" ">
<polygon fill="#e0e0e0" stroke="#999999" points="3154.5,-184 3111.5,-184 3111.5,-165 3154.5,-165 3154.5,-184"/>
<text text-anchor="middle" x="3133" y="-172" font-family="Helvetica,sans-Serif" font-size="10.00">stack</text>
</a>
</g>
</g>
<!-- Node56&#45;&gt;Node70 -->
<g id="edge48_Node000056_Node000070" class="edge">
<title>Node56&#45;&gt;Node70</title>
<g id="a_edge48_Node000056_Node000070"><a xlink:title=" ">
<path fill="none" stroke="#63b8ff" d="M3288.28,-219.98C3254.4,-210.28 3199.25,-194.48 3164.61,-184.55"/>
<polygon fill="#63b8ff" stroke="#63b8ff" points="3165.14,-181.07 3154.56,-181.68 3163.21,-187.79 3165.14,-181.07"/>
</a>
</g>
</g>
<!-- Node71 -->
<g id="Node000071" class="node">
<title>Node71</title>
<g id="a_Node000071"><a xlink:title=" ">
<polygon fill="#e0e0e0" stroke="#999999" points="3217,-184 3173,-184 3173,-165 3217,-165 3217,-184"/>
<text text-anchor="middle" x="3195" y="-172" font-family="Helvetica,sans-Serif" font-size="10.00">string</text>
</a>
</g>
</g>
<!-- Node56&#45;&gt;Node71 -->
<g id="edge49_Node000056_Node000071" class="edge">
<title>Node56&#45;&gt;Node71</title>
<g id="a_edge49_Node000056_Node000071"><a xlink:title=" ">
<path fill="none" stroke="#63b8ff" d="M3298.24,-219.98C3278.27,-211.38 3247.2,-197.99 3224.35,-188.15"/>
<polygon fill="#63b8ff" stroke="#63b8ff" points="3225.69,-184.91 3215.12,-184.17 3222.92,-191.34 3225.69,-184.91"/>
</a>
</g>
</g>
<!-- Node58&#45;&gt;Node51 -->
<g id="edge45_Node000058_Node000051" class="edge">
<title>Node58&#45;&gt;Node51</title>
<g id="a_edge45_Node000058_Node000051"><a xlink:title=" ">
<path fill="none" stroke="#63b8ff" d="M3521.44,-165.1C3476.95,-155.89 3405.46,-141.09 3357.16,-131.09"/>
<polygon fill="#63b8ff" stroke="#63b8ff" points="3357.72,-127.63 3347.22,-129.03 3356.3,-134.49 3357.72,-127.63"/>
</a>
</g>
</g>
<!-- Node58&#45;&gt;Node63 -->
<g id="edge38_Node000058_Node000063" class="edge">
<title>Node58&#45;&gt;Node63</title>
<g id="a_edge38_Node000058_Node000063"><a xlink:title=" ">
<path fill="none" stroke="#63b8ff" d="M3579.03,-164.98C3595.93,-156.54 3622.06,-143.47 3641.64,-133.68"/>
<polygon fill="#63b8ff" stroke="#63b8ff" points="3643.28,-136.77 3650.66,-129.17 3640.15,-130.51 3643.28,-136.77"/>
</a>
</g>
</g>
<!-- Node61 -->
<g id="Node000061" class="node">
<title>Node61</title>
<g id="a_Node000061"><a xlink:href="Here_8h.html" target="_top" xlink:title=" ">
<polygon fill="white" stroke="#666666" points="3505.5,-74 3430.5,-74 3430.5,-55 3505.5,-55 3505.5,-74"/>
<text text-anchor="middle" x="3468" y="-62" font-family="Helvetica,sans-Serif" font-size="10.00">base/Here.h</text>
</a>
</g>
</g>
<!-- Node63&#45;&gt;Node61 -->
<g id="edge39_Node000063_Node000061" class="edge">
<title>Node63&#45;&gt;Node61</title>
<g id="a_edge39_Node000063_Node000061"><a xlink:title=" ">
<path fill="none" stroke="#63b8ff" d="M3635.87,-109.98C3601.85,-100.97 3548,-86.7 3510.5,-76.76"/>
<polygon fill="#63b8ff" stroke="#63b8ff" points="3510.95,-73.26 3500.39,-74.08 3509.16,-80.03 3510.95,-73.26"/>
</a>
</g>
</g>
<!-- Node64 -->
<g id="Node000064" class="node">
<title>Node64</title>
<g id="a_Node000064"><a xlink:href="AllocatorProxy_8h.html" target="_top" xlink:title=" ">
<polygon fill="white" stroke="#666666" points="3647,-74 3523,-74 3523,-55 3647,-55 3647,-74"/>
<text text-anchor="middle" x="3585" y="-62" font-family="Helvetica,sans-Serif" font-size="10.00">mem/AllocatorProxy.h</text>
</a>
</g>
</g>
<!-- Node63&#45;&gt;Node64 -->
<g id="edge41_Node000063_Node000064" class="edge">
<title>Node63&#45;&gt;Node64</title>
<g id="a_edge41_Node000063_Node000064"><a xlink:title=" ">
<path fill="none" stroke="#63b8ff" d="M3654.66,-109.98C3641.91,-101.84 3622.45,-89.41 3607.33,-79.76"/>
<polygon fill="#63b8ff" stroke="#63b8ff" points="3608.89,-76.6 3598.58,-74.17 3605.12,-82.5 3608.89,-76.6"/>
</a>
</g>
</g>
<!-- Node63&#45;&gt;Node49 -->
<g id="edge42_Node000063_Node000049" class="edge">
<title>Node63&#45;&gt;Node49</title>
<g id="a_edge42_Node000063_Node000049"><a xlink:title=" ">
<path fill="none" stroke="#63b8ff" d="M3698.21,-109.98C3730.14,-100.98 3780.66,-86.74 3815.91,-76.8"/>
<polygon fill="#63b8ff" stroke="#63b8ff" points="3817.19,-80.08 3825.87,-73.99 3815.29,-73.34 3817.19,-80.08"/>
</a>
</g>
</g>
<!-- Node65 -->
<g id="Node000065" class="node">
<title>Node65</title>
<g id="a_Node000065"><a xlink:title=" ">
<polygon fill="#e0e0e0" stroke="#999999" points="3721,-74 3665,-74 3665,-55 3721,-55 3721,-74"/>
<text text-anchor="middle" x="3693" y="-62" font-family="Helvetica,sans-Serif" font-size="10.00">sstream</text>
</a>
</g>
</g>
<!-- Node63&#45;&gt;Node65 -->
<g id="edge43_Node000063_Node000065" class="edge">
<title>Node63&#45;&gt;Node65</title>
<g id="a_edge43_Node000063_Node000065"><a xlink:title=" ">
<path fill="none" stroke="#63b8ff" d="M3672.13,-109.75C3675.51,-102.57 3680.42,-92.18 3684.62,-83.27"/>
<polygon fill="#63b8ff" stroke="#63b8ff" points="3687.85,-84.63 3688.95,-74.09 3681.52,-81.64 3687.85,-84.63"/>
</a>
</g>
</g>
<!-- Node66 -->
<g id="Node000066" class="node">
<title>Node66</title>
<g id="a_Node000066"><a xlink:title=" ">
<polygon fill="#e0e0e0" stroke="#999999" points="3795,-74 3739,-74 3739,-55 3795,-55 3795,-74"/>
<text text-anchor="middle" x="3767" y="-62" font-family="Helvetica,sans-Serif" font-size="10.00">iomanip</text>
</a>
</g>
</g>
<!-- Node63&#45;&gt;Node66 -->
<g id="edge44_Node000063_Node000066" class="edge">
<title>Node63&#45;&gt;Node66</title>
<g id="a_edge44_Node000063_Node000066"><a xlink:title=" ">
<path fill="none" stroke="#63b8ff" d="M3683.91,-109.98C3699.55,-101.61 3723.66,-88.7 3741.88,-78.95"/>
<polygon fill="#63b8ff" stroke="#63b8ff" points="3743.64,-81.98 3750.8,-74.17 3740.34,-75.8 3743.64,-81.98"/>
</a>
</g>
</g>
<!-- Node61&#45;&gt;Node54 -->
<g id="edge40_Node000061_Node000054" class="edge">
<title>Node61&#45;&gt;Node54</title>
<g id="a_edge40_Node000061_Node000054"><a xlink:title=" ">
<path fill="none" stroke="#63b8ff" d="M3457.4,-54.98C3447.54,-47.07 3432.65,-35.11 3420.78,-25.58"/>
<polygon fill="#63b8ff" stroke="#63b8ff" points="3422.79,-22.7 3412.8,-19.17 3418.4,-28.16 3422.79,-22.7"/>
</a>
</g>
</g>
<!-- Node73 -->
<g id="Node000073" class="node">
<title>Node73</title>
<g id="a_Node000073"><a xlink:href="PackableStream_8h.html" target="_top" xlink:title=" ">
<polygon fill="#fff0f0" stroke="red" points="3840,-184 3710,-184 3710,-165 3840,-165 3840,-184"/>
<text text-anchor="middle" x="3775" y="-172" font-family="Helvetica,sans-Serif" font-size="10.00">base/PackableStream.h</text>
</a>
</g>
</g>
<!-- Node72&#45;&gt;Node73 -->
<g id="edge52_Node000072_Node000073" class="edge">
<title>Node72&#45;&gt;Node73</title>
<g id="a_edge52_Node000072_Node000073"><a xlink:title=" ">
<path fill="none" stroke="#63b8ff" d="M3675.12,-219.98C3694.35,-211.42 3724.23,-198.11 3746.31,-188.28"/>
<polygon fill="#63b8ff" stroke="#63b8ff" points="3747.82,-191.44 3755.53,-184.17 3744.97,-185.04 3747.82,-191.44"/>
</a>
</g>
</g>
<!-- Node75 -->
<g id="Node000075" class="node">
<title>Node75</title>
<g id="a_Node000075"><a xlink:href="SBuf_8h.html" target="_top" xlink:title=" ">
<polygon fill="#fff0f0" stroke="red" points="3691.5,-184 3620.5,-184 3620.5,-165 3691.5,-165 3691.5,-184"/>
<text text-anchor="middle" x="3656" y="-172" font-family="Helvetica,sans-Serif" font-size="10.00">sbuf/SBuf.h</text>
</a>
</g>
</g>
<!-- Node72&#45;&gt;Node75 -->
<g id="edge53_Node000072_Node000075" class="edge">
<title>Node72&#45;&gt;Node75</title>
<g id="a_edge53_Node000072_Node000075"><a xlink:title=" ">
<path fill="none" stroke="#63b8ff" d="M3656,-219.75C3656,-212.8 3656,-202.85 3656,-194.13"/>
<polygon fill="#63b8ff" stroke="#63b8ff" points="3659.5,-194.09 3656,-184.09 3652.5,-194.09 3659.5,-194.09"/>
</a>
</g>
</g>
<!-- Node75&#45;&gt;Node51 -->
<g id="edge55_Node000075_Node000051" class="edge">
<title>Node75&#45;&gt;Node51</title>
<g id="a_edge55_Node000075_Node000051"><a xlink:title=" ">
<path fill="none" stroke="#63b8ff" d="M3620.48,-166.49C3617.62,-165.97 3614.76,-165.47 3612,-165 3523.94,-150.1 3421.09,-135.77 3359.87,-127.56"/>
<polygon fill="#63b8ff" stroke="#63b8ff" points="3360.05,-124.06 3349.68,-126.2 3359.13,-131 3360.05,-124.06"/>
</a>
</g>
</g>
<!-- Node75&#45;&gt;Node54 -->
<g id="edge56_Node000075_Node000054" class="edge">
<title>Node75&#45;&gt;Node54</title>
<g id="a_edge56_Node000075_Node000054"><a xlink:title=" ">
<path fill="none" stroke="#63b8ff" d="M3628.25,-164.94C3572.79,-147.34 3451.07,-106.04 3422,-74 3410.83,-61.7 3405.9,-43.19 3403.72,-29.32"/>
<polygon fill="#63b8ff" stroke="#63b8ff" points="3407.15,-28.51 3402.46,-19.01 3400.2,-29.36 3407.15,-28.51"/>
</a>
</g>
</g>
<!-- Node75&#45;&gt;Node63 -->
<g id="edge54_Node000075_Node000063" class="edge">
<title>Node75&#45;&gt;Node63</title>
<g id="a_edge54_Node000075_Node000063"><a xlink:title=" ">
<path fill="none" stroke="#63b8ff" d="M3657.98,-164.75C3659.57,-157.72 3661.86,-147.62 3663.85,-138.84"/>
<polygon fill="#63b8ff" stroke="#63b8ff" points="3667.26,-139.62 3666.06,-129.09 3660.43,-138.07 3667.26,-139.62"/>
</a>
</g>
</g>
</g>
</svg>
