<?xml version="1.0" encoding="UTF-8" standalone="no"?>
<!DOCTYPE svg PUBLIC "-//W3C//DTD SVG 1.1//EN"
 "http://www.w3.org/Graphics/SVG/1.1/DTD/svg11.dtd">
<!-- Generated by graphviz version 2.43.0 (0)
 -->
<!-- Title: squid/src/acl/Gadgets.h Pages: 1 -->
<svg width="4396pt" height="148pt"
 viewBox="0.00 0.00 4395.50 148.00" xmlns="http://www.w3.org/2000/svg" xmlns:xlink="http://www.w3.org/1999/xlink">
<g id="graph0" class="graph" transform="scale(1 1) rotate(0) translate(4 144)">
<title>squid/src/acl/Gadgets.h</title>
<!-- Node1 -->
<g id="Node000001" class="node">
<title>Node1</title>
<g id="a_Node000001"><a xlink:title=" ">
<polygon fill="#999999" stroke="#666666" points="2392,-140 2262,-140 2262,-121 2392,-121 2392,-140"/>
<text text-anchor="middle" x="2327" y="-128" font-family="Helvetica,sans-Serif" font-size="10.00">squid/src/acl/Gadgets.h</text>
</a>
</g>
</g>
<!-- Node2 -->
<g id="Node000002" class="node">
<title>Node2</title>
<g id="a_Node000002"><a xlink:href="AclRegs_8cc.html" target="_top" xlink:title=" ">
<polygon fill="white" stroke="#666666" points="116,-79.5 0,-79.5 0,-60.5 116,-60.5 116,-79.5"/>
<text text-anchor="middle" x="58" y="-67.5" font-family="Helvetica,sans-Serif" font-size="10.00">squid/src/AclRegs.cc</text>
</a>
</g>
</g>
<!-- Node1&#45;&gt;Node2 -->
<g id="edge1_Node000001_Node000002" class="edge">
<title>Node1&#45;&gt;Node2</title>
<g id="a_edge1_Node000001_Node000002"><a xlink:title=" ">
<path fill="none" stroke="#63b8ff" d="M2251.74,-129.86C1915.68,-131.16 550.27,-133.3 125,-85 114.37,-83.79 102.94,-81.7 92.58,-79.5"/>
<polygon fill="#63b8ff" stroke="#63b8ff" points="2251.86,-133.36 2261.85,-129.82 2251.83,-126.36 2251.86,-133.36"/>
</a>
</g>
</g>
<!-- Node3 -->
<g id="Node000003" class="node">
<title>Node3</title>
<g id="a_Node000003"><a xlink:href="CachePeer_8cc.html" target="_top" xlink:title=" ">
<polygon fill="white" stroke="#666666" points="262,-79.5 134,-79.5 134,-60.5 262,-60.5 262,-79.5"/>
<text text-anchor="middle" x="198" y="-67.5" font-family="Helvetica,sans-Serif" font-size="10.00">squid/src/CachePeer.cc</text>
</a>
</g>
</g>
<!-- Node1&#45;&gt;Node3 -->
<g id="edge2_Node000001_Node000003" class="edge">
<title>Node1&#45;&gt;Node3</title>
<g id="a_edge2_Node000001_Node000003"><a xlink:title=" ">
<path fill="none" stroke="#63b8ff" d="M2251.78,-129.56C1929.83,-129.57 666.35,-126.89 271,-85 259.58,-83.79 247.28,-81.73 236.08,-79.56"/>
<polygon fill="#63b8ff" stroke="#63b8ff" points="2251.94,-133.06 2261.94,-129.56 2251.93,-126.06 2251.94,-133.06"/>
</a>
</g>
</g>
<!-- Node4 -->
<g id="Node000004" class="node">
<title>Node4</title>
<g id="a_Node000004"><a xlink:href="ClientDelayConfig_8cc.html" target="_top" xlink:title=" ">
<polygon fill="white" stroke="#666666" points="444,-79.5 280,-79.5 280,-60.5 444,-60.5 444,-79.5"/>
<text text-anchor="middle" x="362" y="-67.5" font-family="Helvetica,sans-Serif" font-size="10.00">squid/src/ClientDelayConfig.cc</text>
</a>
</g>
</g>
<!-- Node1&#45;&gt;Node4 -->
<g id="edge3_Node000001_Node000004" class="edge">
<title>Node1&#45;&gt;Node4</title>
<g id="a_edge3_Node000001_Node000004"><a xlink:title=" ">
<path fill="none" stroke="#63b8ff" d="M2251.54,-129.01C1947.45,-126.82 811.2,-116.67 453,-85 438.83,-83.75 423.51,-81.67 409.56,-79.5"/>
<polygon fill="#63b8ff" stroke="#63b8ff" points="2251.55,-132.51 2261.57,-129.08 2251.6,-125.51 2251.55,-132.51"/>
</a>
</g>
</g>
<!-- Node5 -->
<g id="Node000005" class="node">
<title>Node5</title>
<g id="a_Node000005"><a xlink:href="ConfigParser_8cc.html" target="_top" xlink:title=" ">
<polygon fill="white" stroke="#666666" points="599.5,-79.5 462.5,-79.5 462.5,-60.5 599.5,-60.5 599.5,-79.5"/>
<text text-anchor="middle" x="531" y="-67.5" font-family="Helvetica,sans-Serif" font-size="10.00">squid/src/ConfigParser.cc</text>
</a>
</g>
</g>
<!-- Node1&#45;&gt;Node5 -->
<g id="edge4_Node000001_Node000005" class="edge">
<title>Node1&#45;&gt;Node5</title>
<g id="a_edge4_Node000001_Node000005"><a xlink:title=" ">
<path fill="none" stroke="#63b8ff" d="M2251.23,-129.07C1962.95,-127.18 934.45,-118.23 609,-85 596.82,-83.76 583.68,-81.69 571.72,-79.51"/>
<polygon fill="#63b8ff" stroke="#63b8ff" points="2251.55,-132.57 2261.57,-129.13 2251.59,-125.57 2251.55,-132.57"/>
</a>
</g>
</g>
<!-- Node6 -->
<g id="Node000006" class="node">
<title>Node6</title>
<g id="a_Node000006"><a xlink:href="DelayConfig_8cc.html" target="_top" xlink:title=" ">
<polygon fill="white" stroke="#666666" points="754,-79.5 618,-79.5 618,-60.5 754,-60.5 754,-79.5"/>
<text text-anchor="middle" x="686" y="-67.5" font-family="Helvetica,sans-Serif" font-size="10.00">squid/src/DelayConfig.cc</text>
</a>
</g>
</g>
<!-- Node1&#45;&gt;Node6 -->
<g id="edge5_Node000001_Node000006" class="edge">
<title>Node1&#45;&gt;Node6</title>
<g id="a_edge5_Node000001_Node000006"><a xlink:title=" ">
<path fill="none" stroke="#63b8ff" d="M2251.74,-128.87C1980.98,-126.37 1056.91,-115.72 763,-85 751.11,-83.76 738.29,-81.71 726.6,-79.57"/>
<polygon fill="#63b8ff" stroke="#63b8ff" points="2251.83,-132.37 2261.86,-128.96 2251.89,-125.37 2251.83,-132.37"/>
</a>
</g>
</g>
<!-- Node7 -->
<g id="Node000007" class="node">
<title>Node7</title>
<g id="a_Node000007"><a xlink:href="DelayPool_8cc.html" target="_top" xlink:title=" ">
<polygon fill="white" stroke="#666666" points="898,-79.5 772,-79.5 772,-60.5 898,-60.5 898,-79.5"/>
<text text-anchor="middle" x="835" y="-67.5" font-family="Helvetica,sans-Serif" font-size="10.00">squid/src/DelayPool.cc</text>
</a>
</g>
</g>
<!-- Node1&#45;&gt;Node7 -->
<g id="edge6_Node000001_Node000007" class="edge">
<title>Node1&#45;&gt;Node7</title>
<g id="a_edge6_Node000001_Node000007"><a xlink:title=" ">
<path fill="none" stroke="#63b8ff" d="M2251.5,-128.74C1996.91,-125.91 1171.12,-114.62 907,-85 895.86,-83.75 883.88,-81.71 872.94,-79.56"/>
<polygon fill="#63b8ff" stroke="#63b8ff" points="2251.72,-132.24 2261.76,-128.85 2251.79,-125.24 2251.72,-132.24"/>
</a>
</g>
</g>
<!-- Node8 -->
<g id="Node000008" class="node">
<title>Node8</title>
<g id="a_Node000008"><a xlink:href="FwdState_8cc.html" target="_top" xlink:title=" ">
<polygon fill="white" stroke="#666666" points="1038,-79.5 916,-79.5 916,-60.5 1038,-60.5 1038,-79.5"/>
<text text-anchor="middle" x="977" y="-67.5" font-family="Helvetica,sans-Serif" font-size="10.00">squid/src/FwdState.cc</text>
</a>
</g>
</g>
<!-- Node1&#45;&gt;Node8 -->
<g id="edge7_Node000001_Node000008" class="edge">
<title>Node1&#45;&gt;Node8</title>
<g id="a_edge7_Node000001_Node000008"><a xlink:title=" ">
<path fill="none" stroke="#63b8ff" d="M2251.39,-128.49C2013.54,-125.04 1282.44,-112.45 1047,-85 1036.17,-83.74 1024.51,-81.69 1013.88,-79.54"/>
<polygon fill="#63b8ff" stroke="#63b8ff" points="2251.62,-131.99 2261.67,-128.63 2251.72,-124.99 2251.62,-131.99"/>
</a>
</g>
</g>
<!-- Node9 -->
<g id="Node000009" class="node">
<title>Node9</title>
<g id="a_Node000009"><a xlink:href="HeaderMangling_8cc.html" target="_top" xlink:title=" ">
<polygon fill="white" stroke="#666666" points="1213.5,-79.5 1056.5,-79.5 1056.5,-60.5 1213.5,-60.5 1213.5,-79.5"/>
<text text-anchor="middle" x="1135" y="-67.5" font-family="Helvetica,sans-Serif" font-size="10.00">squid/src/HeaderMangling.cc</text>
</a>
</g>
</g>
<!-- Node1&#45;&gt;Node9 -->
<g id="edge8_Node000001_Node000009" class="edge">
<title>Node1&#45;&gt;Node9</title>
<g id="a_edge8_Node000001_Node000009"><a xlink:title=" ">
<path fill="none" stroke="#63b8ff" d="M2251.63,-129.56C2072.59,-129.02 1607.81,-123.67 1222,-85 1208.76,-83.67 1194.47,-81.63 1181.37,-79.51"/>
<polygon fill="#63b8ff" stroke="#63b8ff" points="2251.73,-133.06 2261.73,-129.58 2251.74,-126.06 2251.73,-133.06"/>
</a>
</g>
</g>
<!-- Node10 -->
<g id="Node000010" class="node">
<title>Node10</title>
<g id="a_Node000010"><a xlink:href="HttpUpgradeProtocolAccess_8cc.html" target="_top" xlink:title=" ">
<polygon fill="white" stroke="#666666" points="1396.5,-85 1231.5,-85 1231.5,-55 1396.5,-55 1396.5,-85"/>
<text text-anchor="start" x="1239.5" y="-73" font-family="Helvetica,sans-Serif" font-size="10.00">squid/src/HttpUpgradeProtocol</text>
<text text-anchor="middle" x="1314" y="-62" font-family="Helvetica,sans-Serif" font-size="10.00">Access.cc</text>
</a>
</g>
</g>
<!-- Node1&#45;&gt;Node10 -->
<g id="edge9_Node000001_Node000010" class="edge">
<title>Node1&#45;&gt;Node10</title>
<g id="a_edge9_Node000001_Node000010"><a xlink:title=" ">
<path fill="none" stroke="#63b8ff" d="M2251.95,-128.53C2094.56,-125.91 1718.61,-116.6 1405,-85 1402.3,-84.73 1399.55,-84.43 1396.78,-84.11"/>
<polygon fill="#63b8ff" stroke="#63b8ff" points="2251.94,-132.03 2261.99,-128.69 2252.05,-125.03 2251.94,-132.03"/>
</a>
</g>
</g>
<!-- Node11 -->
<g id="Node000011" class="node">
<title>Node11</title>
<g id="a_Node000011"><a xlink:href="MessageDelayPools_8cc.html" target="_top" xlink:title=" ">
<polygon fill="white" stroke="#666666" points="1589.5,-79.5 1414.5,-79.5 1414.5,-60.5 1589.5,-60.5 1589.5,-79.5"/>
<text text-anchor="middle" x="1502" y="-67.5" font-family="Helvetica,sans-Serif" font-size="10.00">squid/src/MessageDelayPools.cc</text>
</a>
</g>
</g>
<!-- Node1&#45;&gt;Node11 -->
<g id="edge10_Node000001_Node000011" class="edge">
<title>Node1&#45;&gt;Node11</title>
<g id="a_edge10_Node000001_Node000011"><a xlink:title=" ">
<path fill="none" stroke="#63b8ff" d="M2251.96,-127C2119.62,-122.12 1836.17,-109.59 1598,-85 1584.01,-83.56 1568.93,-81.56 1554.97,-79.54"/>
<polygon fill="#63b8ff" stroke="#63b8ff" points="2251.88,-130.49 2262,-127.36 2252.13,-123.5 2251.88,-130.49"/>
</a>
</g>
</g>
<!-- Node12 -->
<g id="Node000012" class="node">
<title>Node12</title>
<g id="a_Node000012"><a xlink:href="Notes_8cc.html" target="_top" xlink:title=" ">
<polygon fill="white" stroke="#666666" points="1712.5,-79.5 1607.5,-79.5 1607.5,-60.5 1712.5,-60.5 1712.5,-79.5"/>
<text text-anchor="middle" x="1660" y="-67.5" font-family="Helvetica,sans-Serif" font-size="10.00">squid/src/Notes.cc</text>
</a>
</g>
</g>
<!-- Node1&#45;&gt;Node12 -->
<g id="edge11_Node000001_Node000012" class="edge">
<title>Node1&#45;&gt;Node12</title>
<g id="a_edge11_Node000001_Node000012"><a xlink:title=" ">
<path fill="none" stroke="#63b8ff" d="M2251.51,-127.65C2136.47,-123.99 1910.61,-113.55 1721,-85 1711.87,-83.62 1702.07,-81.62 1693.07,-79.55"/>
<polygon fill="#63b8ff" stroke="#63b8ff" points="2251.52,-131.15 2261.62,-127.96 2251.73,-124.15 2251.52,-131.15"/>
</a>
</g>
</g>
<!-- Node13 -->
<g id="Node000013" class="node">
<title>Node13</title>
<g id="a_Node000013"><a xlink:href="acl_2Acl_8cc.html" target="_top" xlink:title=" ">
<polygon fill="white" stroke="#666666" points="1839.5,-79.5 1730.5,-79.5 1730.5,-60.5 1839.5,-60.5 1839.5,-79.5"/>
<text text-anchor="middle" x="1785" y="-67.5" font-family="Helvetica,sans-Serif" font-size="10.00">squid/src/acl/Acl.cc</text>
</a>
</g>
</g>
<!-- Node1&#45;&gt;Node13 -->
<g id="edge12_Node000001_Node000013" class="edge">
<title>Node1&#45;&gt;Node13</title>
<g id="a_edge12_Node000001_Node000013"><a xlink:title=" ">
<path fill="none" stroke="#63b8ff" d="M2251.71,-125.35C2157.24,-119.49 1990.44,-106.97 1849,-85 1839.67,-83.55 1829.66,-81.57 1820.4,-79.55"/>
<polygon fill="#63b8ff" stroke="#63b8ff" points="2251.55,-128.85 2261.74,-125.97 2251.98,-121.86 2251.55,-128.85"/>
</a>
</g>
</g>
<!-- Node14 -->
<g id="Node000014" class="node">
<title>Node14</title>
<g id="a_Node000014"><a xlink:href="AclSizeLimit_8cc.html" target="_top" xlink:title=" ">
<polygon fill="white" stroke="#666666" points="2012,-79.5 1858,-79.5 1858,-60.5 2012,-60.5 2012,-79.5"/>
<text text-anchor="middle" x="1935" y="-67.5" font-family="Helvetica,sans-Serif" font-size="10.00">squid/src/acl/AclSizeLimit.cc</text>
</a>
</g>
</g>
<!-- Node1&#45;&gt;Node14 -->
<g id="edge13_Node000001_Node000014" class="edge">
<title>Node1&#45;&gt;Node14</title>
<g id="a_edge13_Node000001_Node000014"><a xlink:title=" ">
<path fill="none" stroke="#63b8ff" d="M2256.21,-119.55C2194.16,-110.75 2101.54,-97.41 2021,-85 2009.79,-83.27 1997.76,-81.36 1986.36,-79.51"/>
<polygon fill="#63b8ff" stroke="#63b8ff" points="2255.89,-123.04 2266.28,-120.98 2256.87,-116.11 2255.89,-123.04"/>
</a>
</g>
</g>
<!-- Node15 -->
<g id="Node000015" class="node">
<title>Node15</title>
<g id="a_Node000015"><a xlink:href="acl_2Address_8cc.html" target="_top" xlink:title=" ">
<polygon fill="white" stroke="#666666" points="2163.5,-79.5 2030.5,-79.5 2030.5,-60.5 2163.5,-60.5 2163.5,-79.5"/>
<text text-anchor="middle" x="2097" y="-67.5" font-family="Helvetica,sans-Serif" font-size="10.00">squid/src/acl/Address.cc</text>
</a>
</g>
</g>
<!-- Node1&#45;&gt;Node15 -->
<g id="edge14_Node000001_Node000015" class="edge">
<title>Node1&#45;&gt;Node15</title>
<g id="a_edge14_Node000001_Node000015"><a xlink:title=" ">
<path fill="none" stroke="#63b8ff" d="M2283.62,-118.47C2239.16,-107.16 2170.96,-89.81 2130.48,-79.52"/>
<polygon fill="#63b8ff" stroke="#63b8ff" points="2283,-121.92 2293.56,-120.99 2284.73,-115.14 2283,-121.92"/>
</a>
</g>
</g>
<!-- Node16 -->
<g id="Node000016" class="node">
<title>Node16</title>
<g id="a_Node000016"><a xlink:href="acl_2Gadgets_8cc.html" target="_top" xlink:title=" ">
<polygon fill="white" stroke="#666666" points="2316,-79.5 2182,-79.5 2182,-60.5 2316,-60.5 2316,-79.5"/>
<text text-anchor="middle" x="2249" y="-67.5" font-family="Helvetica,sans-Serif" font-size="10.00">squid/src/acl/Gadgets.cc</text>
</a>
</g>
</g>
<!-- Node1&#45;&gt;Node16 -->
<g id="edge15_Node000001_Node000016" class="edge">
<title>Node1&#45;&gt;Node16</title>
<g id="a_edge15_Node000001_Node000016"><a xlink:title=" ">
<path fill="none" stroke="#63b8ff" d="M2307.46,-114.85C2292.69,-103.77 2272.9,-88.93 2260.56,-79.67"/>
<polygon fill="#63b8ff" stroke="#63b8ff" points="2305.39,-117.67 2315.49,-120.87 2309.59,-112.07 2305.39,-117.67"/>
</a>
</g>
</g>
<!-- Node17 -->
<g id="Node000017" class="node">
<title>Node17</title>
<g id="a_Node000017"><a xlink:href="InnerNode_8cc.html" target="_top" xlink:title=" ">
<polygon fill="white" stroke="#666666" points="2478,-79.5 2334,-79.5 2334,-60.5 2478,-60.5 2478,-79.5"/>
<text text-anchor="middle" x="2406" y="-67.5" font-family="Helvetica,sans-Serif" font-size="10.00">squid/src/acl/InnerNode.cc</text>
</a>
</g>
</g>
<!-- Node1&#45;&gt;Node17 -->
<g id="edge16_Node000001_Node000017" class="edge">
<title>Node1&#45;&gt;Node17</title>
<g id="a_edge16_Node000001_Node000017"><a xlink:title=" ">
<path fill="none" stroke="#63b8ff" d="M2346.79,-114.85C2361.75,-103.77 2381.79,-88.93 2394.3,-79.67"/>
<polygon fill="#63b8ff" stroke="#63b8ff" points="2344.61,-112.1 2338.66,-120.87 2348.78,-117.73 2344.61,-112.1"/>
</a>
</g>
</g>
<!-- Node18 -->
<g id="Node000018" class="node">
<title>Node18</title>
<g id="a_Node000018"><a xlink:href="AccessRule_8cc.html" target="_top" xlink:title=" ">
<polygon fill="white" stroke="#666666" points="2612,-85 2496,-85 2496,-55 2612,-55 2612,-85"/>
<text text-anchor="start" x="2504" y="-73" font-family="Helvetica,sans-Serif" font-size="10.00">squid/src/adaptation</text>
<text text-anchor="middle" x="2554" y="-62" font-family="Helvetica,sans-Serif" font-size="10.00">/AccessRule.cc</text>
</a>
</g>
</g>
<!-- Node1&#45;&gt;Node18 -->
<g id="edge17_Node000001_Node000018" class="edge">
<title>Node1&#45;&gt;Node18</title>
<g id="a_edge17_Node000001_Node000018"><a xlink:title=" ">
<path fill="none" stroke="#63b8ff" d="M2369.91,-118.44C2406.62,-108.98 2459.69,-95.3 2499.43,-85.06"/>
<polygon fill="#63b8ff" stroke="#63b8ff" points="2368.82,-115.11 2360.01,-120.99 2370.56,-121.89 2368.82,-115.11"/>
</a>
</g>
</g>
<!-- Node19 -->
<g id="Node000019" class="node">
<title>Node19</title>
<g id="a_Node000019"><a xlink:href="adaptation_2Config_8cc.html" target="_top" xlink:title=" ">
<polygon fill="white" stroke="#666666" points="2746,-85 2630,-85 2630,-55 2746,-55 2746,-85"/>
<text text-anchor="start" x="2638" y="-73" font-family="Helvetica,sans-Serif" font-size="10.00">squid/src/adaptation</text>
<text text-anchor="middle" x="2688" y="-62" font-family="Helvetica,sans-Serif" font-size="10.00">/Config.cc</text>
</a>
</g>
</g>
<!-- Node1&#45;&gt;Node19 -->
<g id="edge18_Node000001_Node000019" class="edge">
<title>Node1&#45;&gt;Node19</title>
<g id="a_edge18_Node000001_Node000019"><a xlink:title=" ">
<path fill="none" stroke="#63b8ff" d="M2400.32,-119.56C2459.91,-111.2 2546.08,-98.49 2621,-85 2623.92,-84.47 2626.92,-83.92 2629.93,-83.34"/>
<polygon fill="#63b8ff" stroke="#63b8ff" points="2399.67,-116.12 2390.25,-120.97 2400.64,-123.05 2399.67,-116.12"/>
</a>
</g>
</g>
<!-- Node20 -->
<g id="Node000020" class="node">
<title>Node20</title>
<g id="a_Node000020"><a xlink:href="CredentialsCache_8cc.html" target="_top" xlink:title=" ">
<polygon fill="white" stroke="#666666" points="2907.5,-85 2764.5,-85 2764.5,-55 2907.5,-55 2907.5,-85"/>
<text text-anchor="start" x="2772.5" y="-73" font-family="Helvetica,sans-Serif" font-size="10.00">squid/src/auth/Credentials</text>
<text text-anchor="middle" x="2836" y="-62" font-family="Helvetica,sans-Serif" font-size="10.00">Cache.cc</text>
</a>
</g>
</g>
<!-- Node1&#45;&gt;Node20 -->
<g id="edge19_Node000001_Node000020" class="edge">
<title>Node1&#45;&gt;Node20</title>
<g id="a_edge19_Node000001_Node000020"><a xlink:title=" ">
<path fill="none" stroke="#63b8ff" d="M2402.21,-123.23C2487.83,-115.73 2631.8,-102.03 2755,-85 2758.11,-84.57 2761.28,-84.11 2764.49,-83.63"/>
<polygon fill="#63b8ff" stroke="#63b8ff" points="2401.72,-119.76 2392.06,-124.11 2402.33,-126.73 2401.72,-119.76"/>
</a>
</g>
</g>
<!-- Node21 -->
<g id="Node000021" class="node">
<title>Node21</title>
<g id="a_Node000021"><a xlink:href="User_8cc.html" target="_top" xlink:title=" ">
<polygon fill="white" stroke="#666666" points="3048.5,-79.5 2925.5,-79.5 2925.5,-60.5 3048.5,-60.5 3048.5,-79.5"/>
<text text-anchor="middle" x="2987" y="-67.5" font-family="Helvetica,sans-Serif" font-size="10.00">squid/src/auth/User.cc</text>
</a>
</g>
</g>
<!-- Node1&#45;&gt;Node21 -->
<g id="edge20_Node000001_Node000021" class="edge">
<title>Node1&#45;&gt;Node21</title>
<g id="a_edge20_Node000001_Node000021"><a xlink:title=" ">
<path fill="none" stroke="#63b8ff" d="M2402.41,-126.68C2514.73,-121.84 2732.47,-109.94 2916,-85 2926.46,-83.58 2937.7,-81.58 2948.08,-79.54"/>
<polygon fill="#63b8ff" stroke="#63b8ff" points="2402.04,-123.2 2392.2,-127.12 2402.34,-130.19 2402.04,-123.2"/>
</a>
</g>
</g>
<!-- Node22 -->
<g id="Node000022" class="node">
<title>Node22</title>
<g id="a_Node000022"><a xlink:href="cache__cf_8cc.html" target="_top" xlink:title=" ">
<polygon fill="white" stroke="#666666" points="3556.5,-19 3437.5,-19 3437.5,0 3556.5,0 3556.5,-19"/>
<text text-anchor="middle" x="3497" y="-7" font-family="Helvetica,sans-Serif" font-size="10.00">squid/src/cache_cf.cc</text>
</a>
</g>
</g>
<!-- Node1&#45;&gt;Node22 -->
<g id="edge21_Node000001_Node000022" class="edge">
<title>Node1&#45;&gt;Node22</title>
<g id="a_edge21_Node000001_Node000022"><a xlink:title=" ">
<path fill="none" stroke="#63b8ff" d="M2402.15,-127.41C2576.23,-122.22 2996.89,-107.51 3057,-85 3077.48,-77.33 3075.72,-63.17 3096,-55 3156.5,-30.62 3341.22,-18.16 3437.39,-13.18"/>
<polygon fill="#63b8ff" stroke="#63b8ff" points="2401.94,-123.92 2392.05,-127.71 2402.15,-130.92 2401.94,-123.92"/>
</a>
</g>
</g>
<!-- Node23 -->
<g id="Node000023" class="node">
<title>Node23</title>
<g id="a_Node000023"><a xlink:href="client__side__reply_8cc.html" target="_top" xlink:title=" ">
<polygon fill="white" stroke="#666666" points="3221,-85 3105,-85 3105,-55 3221,-55 3221,-85"/>
<text text-anchor="start" x="3113" y="-73" font-family="Helvetica,sans-Serif" font-size="10.00">squid/src/client_side</text>
<text text-anchor="middle" x="3163" y="-62" font-family="Helvetica,sans-Serif" font-size="10.00">_reply.cc</text>
</a>
</g>
</g>
<!-- Node1&#45;&gt;Node23 -->
<g id="edge22_Node000001_Node000023" class="edge">
<title>Node1&#45;&gt;Node23</title>
<g id="a_edge22_Node000001_Node000023"><a xlink:title=" ">
<path fill="none" stroke="#63b8ff" d="M2402.17,-128.45C2539.49,-125.8 2839.9,-116.58 3091,-85 3095.55,-84.43 3100.24,-83.74 3104.95,-82.98"/>
<polygon fill="#63b8ff" stroke="#63b8ff" points="2402.1,-124.95 2392.17,-128.64 2402.23,-131.95 2402.1,-124.95"/>
</a>
</g>
</g>
<!-- Node24 -->
<g id="Node000024" class="node">
<title>Node24</title>
<g id="a_Node000024"><a xlink:href="client__side__request_8cc.html" target="_top" xlink:title=" ">
<polygon fill="white" stroke="#666666" points="3355,-85 3239,-85 3239,-55 3355,-55 3355,-85"/>
<text text-anchor="start" x="3247" y="-73" font-family="Helvetica,sans-Serif" font-size="10.00">squid/src/client_side</text>
<text text-anchor="middle" x="3297" y="-62" font-family="Helvetica,sans-Serif" font-size="10.00">_request.cc</text>
</a>
</g>
</g>
<!-- Node1&#45;&gt;Node24 -->
<g id="edge23_Node000001_Node000024" class="edge">
<title>Node1&#45;&gt;Node24</title>
<g id="a_edge23_Node000001_Node000024"><a xlink:title=" ">
<path fill="none" stroke="#63b8ff" d="M2402.57,-129.76C2558.11,-129.43 2925.05,-124.13 3230,-85 3232.95,-84.62 3235.96,-84.18 3238.99,-83.7"/>
<polygon fill="#63b8ff" stroke="#63b8ff" points="2402.18,-126.26 2392.19,-129.78 2402.19,-133.26 2402.18,-126.26"/>
</a>
</g>
</g>
<!-- Node25 -->
<g id="Node000025" class="node">
<title>Node25</title>
<g id="a_Node000025"><a xlink:href="clients_2Client_8cc.html" target="_top" xlink:title=" ">
<polygon fill="white" stroke="#666666" points="3513,-79.5 3373,-79.5 3373,-60.5 3513,-60.5 3513,-79.5"/>
<text text-anchor="middle" x="3443" y="-67.5" font-family="Helvetica,sans-Serif" font-size="10.00">squid/src/clients/Client.cc</text>
</a>
</g>
</g>
<!-- Node1&#45;&gt;Node25 -->
<g id="edge24_Node000001_Node000025" class="edge">
<title>Node1&#45;&gt;Node25</title>
<g id="a_edge24_Node000001_Node000025"><a xlink:title=" ">
<path fill="none" stroke="#63b8ff" d="M2402.31,-129.68C2573.63,-129.34 3005.46,-124.29 3364,-85 3376.05,-83.68 3389.03,-81.64 3400.92,-79.52"/>
<polygon fill="#63b8ff" stroke="#63b8ff" points="2402.14,-126.18 2392.14,-129.69 2402.15,-133.18 2402.14,-126.18"/>
</a>
</g>
</g>
<!-- Node26 -->
<g id="Node000026" class="node">
<title>Node26</title>
<g id="a_Node000026"><a xlink:href="QosConfig_8cc.html" target="_top" xlink:title=" ">
<polygon fill="white" stroke="#666666" points="3669,-79.5 3531,-79.5 3531,-60.5 3669,-60.5 3669,-79.5"/>
<text text-anchor="middle" x="3600" y="-67.5" font-family="Helvetica,sans-Serif" font-size="10.00">squid/src/ip/QosConfig.cc</text>
</a>
</g>
</g>
<!-- Node1&#45;&gt;Node26 -->
<g id="edge25_Node000001_Node000026" class="edge">
<title>Node1&#45;&gt;Node26</title>
<g id="a_edge25_Node000001_Node000026"><a xlink:title=" ">
<path fill="none" stroke="#63b8ff" d="M2402.19,-128.08C2628.89,-123.59 3303.47,-108.56 3522,-85 3533.9,-83.72 3546.72,-81.69 3558.46,-79.57"/>
<polygon fill="#63b8ff" stroke="#63b8ff" points="2401.99,-124.59 2392.06,-128.28 2402.13,-131.58 2401.99,-124.59"/>
</a>
</g>
</g>
<!-- Node27 -->
<g id="Node000027" class="node">
<title>Node27</title>
<g id="a_Node000027"><a xlink:href="FormattedLog_8cc.html" target="_top" xlink:title=" ">
<polygon fill="white" stroke="#666666" points="3849,-79.5 3687,-79.5 3687,-60.5 3849,-60.5 3849,-79.5"/>
<text text-anchor="middle" x="3768" y="-67.5" font-family="Helvetica,sans-Serif" font-size="10.00">squid/src/log/FormattedLog.cc</text>
</a>
</g>
</g>
<!-- Node1&#45;&gt;Node27 -->
<g id="edge26_Node000001_Node000027" class="edge">
<title>Node1&#45;&gt;Node27</title>
<g id="a_edge26_Node000001_Node000027"><a xlink:title=" ">
<path fill="none" stroke="#63b8ff" d="M2402.52,-128.22C2648.85,-123.86 3427.51,-108.52 3678,-85 3691.7,-83.71 3706.48,-81.69 3720.03,-79.57"/>
<polygon fill="#63b8ff" stroke="#63b8ff" points="2402.17,-124.73 2392.24,-128.4 2402.3,-131.73 2402.17,-124.73"/>
</a>
</g>
</g>
<!-- Node28 -->
<g id="Node000028" class="node">
<title>Node28</title>
<g id="a_Node000028"><a xlink:href="KeyLog_8cc.html" target="_top" xlink:title=" ">
<polygon fill="white" stroke="#666666" points="3969,-85 3867,-85 3867,-55 3969,-55 3969,-85"/>
<text text-anchor="start" x="3875" y="-73" font-family="Helvetica,sans-Serif" font-size="10.00">squid/src/security</text>
<text text-anchor="middle" x="3918" y="-62" font-family="Helvetica,sans-Serif" font-size="10.00">/KeyLog.cc</text>
</a>
</g>
</g>
<!-- Node1&#45;&gt;Node28 -->
<g id="edge27_Node000001_Node000028" class="edge">
<title>Node1&#45;&gt;Node28</title>
<g id="a_edge27_Node000001_Node000028"><a xlink:title=" ">
<path fill="none" stroke="#63b8ff" d="M2402.48,-129.3C2669.94,-128.3 3571.76,-122.17 3858,-85 3860.86,-84.63 3863.79,-84.18 3866.74,-83.67"/>
<polygon fill="#63b8ff" stroke="#63b8ff" points="2402.09,-125.81 2392.1,-129.34 2402.12,-132.81 2402.09,-125.81"/>
</a>
</g>
</g>
<!-- Node29 -->
<g id="Node000029" class="node">
<title>Node29</title>
<g id="a_Node000029"><a xlink:href="ProxyCerts_8h.html" target="_top" xlink:title=" ">
<polygon fill="white" stroke="#666666" points="4129,-79.5 3987,-79.5 3987,-60.5 4129,-60.5 4129,-79.5"/>
<text text-anchor="middle" x="4058" y="-67.5" font-family="Helvetica,sans-Serif" font-size="10.00">squid/src/ssl/ProxyCerts.h</text>
</a>
</g>
</g>
<!-- Node1&#45;&gt;Node29 -->
<g id="edge28_Node000001_Node000029" class="edge">
<title>Node1&#45;&gt;Node29</title>
<g id="a_edge28_Node000001_Node000029"><a xlink:title=" ">
<path fill="none" stroke="#63b8ff" d="M2402.17,-128.94C2682.4,-126.61 3666.06,-116.33 3978,-85 3990.35,-83.76 4003.66,-81.72 4015.81,-79.57"/>
<polygon fill="#63b8ff" stroke="#63b8ff" points="2402.08,-125.44 2392.11,-129.02 2402.14,-132.44 2402.08,-125.44"/>
</a>
</g>
</g>
<!-- Node31 -->
<g id="Node000031" class="node">
<title>Node31</title>
<g id="a_Node000031"><a xlink:href="stub__acl_8cc.html" target="_top" xlink:title=" ">
<polygon fill="white" stroke="#666666" points="4258.5,-85 4147.5,-85 4147.5,-55 4258.5,-55 4258.5,-85"/>
<text text-anchor="start" x="4155.5" y="-73" font-family="Helvetica,sans-Serif" font-size="10.00">squid/src/tests/stub</text>
<text text-anchor="middle" x="4203" y="-62" font-family="Helvetica,sans-Serif" font-size="10.00">_acl.cc</text>
</a>
</g>
</g>
<!-- Node1&#45;&gt;Node31 -->
<g id="edge31_Node000001_Node000031" class="edge">
<title>Node1&#45;&gt;Node31</title>
<g id="a_edge31_Node000001_Node000031"><a xlink:title=" ">
<path fill="none" stroke="#63b8ff" d="M2402.41,-129.53C2700.08,-129.37 3793.86,-125.92 4138,-85 4141.09,-84.63 4144.26,-84.19 4147.45,-83.68"/>
<polygon fill="#63b8ff" stroke="#63b8ff" points="2402.16,-126.03 2392.16,-129.54 2402.16,-133.03 2402.16,-126.03"/>
</a>
</g>
</g>
<!-- Node32 -->
<g id="Node000032" class="node">
<title>Node32</title>
<g id="a_Node000032"><a xlink:href="stub__cache__cf_8cc.html" target="_top" xlink:title=" ">
<polygon fill="white" stroke="#666666" points="4387.5,-85 4276.5,-85 4276.5,-55 4387.5,-55 4387.5,-85"/>
<text text-anchor="start" x="4284.5" y="-73" font-family="Helvetica,sans-Serif" font-size="10.00">squid/src/tests/stub</text>
<text text-anchor="middle" x="4332" y="-62" font-family="Helvetica,sans-Serif" font-size="10.00">_cache_cf.cc</text>
</a>
</g>
</g>
<!-- Node1&#45;&gt;Node32 -->
<g id="edge32_Node000001_Node000032" class="edge">
<title>Node1&#45;&gt;Node32</title>
<g id="a_edge32_Node000001_Node000032"><a xlink:title=" ">
<path fill="none" stroke="#63b8ff" d="M2402.6,-129.71C2713.85,-130.27 3897.16,-129.39 4268,-85 4270.71,-84.68 4273.48,-84.29 4276.26,-83.85"/>
<polygon fill="#63b8ff" stroke="#63b8ff" points="2402.34,-126.21 2392.34,-129.69 2402.33,-133.21 2402.34,-126.21"/>
</a>
</g>
</g>
<!-- Node29&#45;&gt;Node22 -->
<g id="edge29_Node000029_Node000022" class="edge">
<title>Node29&#45;&gt;Node22</title>
<g id="a_edge29_Node000029_Node000022"><a xlink:title=" ">
<path fill="none" stroke="#63b8ff" d="M4002.83,-58.74C3994.52,-57.37 3986.05,-56.07 3978,-55 3826.92,-34.83 3647.92,-20.87 3556.79,-14.47"/>
<polygon fill="#63b8ff" stroke="#63b8ff" points="4002.39,-62.22 4012.83,-60.44 4003.55,-55.32 4002.39,-62.22"/>
</a>
</g>
</g>
<!-- Node30 -->
<g id="Node000030" class="node">
<title>Node30</title>
<g id="a_Node000030"><a xlink:href="client__side_8cc.html" target="_top" xlink:title=" ">
<polygon fill="white" stroke="#666666" points="4122.5,-19 3993.5,-19 3993.5,0 4122.5,0 4122.5,-19"/>
<text text-anchor="middle" x="4058" y="-7" font-family="Helvetica,sans-Serif" font-size="10.00">squid/src/client_side.cc</text>
</a>
</g>
</g>
<!-- Node29&#45;&gt;Node30 -->
<g id="edge30_Node000029_Node000030" class="edge">
<title>Node29&#45;&gt;Node30</title>
<g id="a_edge30_Node000029_Node000030"><a xlink:title=" ">
<path fill="none" stroke="#63b8ff" d="M4058,-50.16C4058,-39.74 4058,-27.3 4058,-19.17"/>
<polygon fill="#63b8ff" stroke="#63b8ff" points="4054.5,-50.37 4058,-60.37 4061.5,-50.37 4054.5,-50.37"/>
</a>
</g>
</g>
</g>
</svg>
