<?xml version="1.0" encoding="UTF-8" standalone="no"?>
<!DOCTYPE svg PUBLIC "-//W3C//DTD SVG 1.1//EN"
 "http://www.w3.org/Graphics/SVG/1.1/DTD/svg11.dtd">
<!-- Generated by graphviz version 2.43.0 (0)
 -->
<!-- Title: squid/src/acl/Options.cc Pages: 1 -->
<svg width="3993pt" height="302pt"
 viewBox="0.00 0.00 3992.50 302.00" xmlns="http://www.w3.org/2000/svg" xmlns:xlink="http://www.w3.org/1999/xlink">
<g id="graph0" class="graph" transform="scale(1 1) rotate(0) translate(4 298)">
<title>squid/src/acl/Options.cc</title>
<!-- Node1 -->
<g id="Node000001" class="node">
<title>Node1</title>
<g id="a_Node000001"><a xlink:title=" ">
<polygon fill="#999999" stroke="#666666" points="3557.5,-294 3426.5,-294 3426.5,-275 3557.5,-275 3557.5,-294"/>
<text text-anchor="middle" x="3492" y="-282" font-family="Helvetica,sans-Serif" font-size="10.00">squid/src/acl/Options.cc</text>
</a>
</g>
</g>
<!-- Node2 -->
<g id="Node000002" class="node">
<title>Node2</title>
<g id="a_Node000002"><a xlink:href="squid_8h.html" target="_top" xlink:title=" ">
<polygon fill="white" stroke="#666666" points="1453,-239 1401,-239 1401,-220 1453,-220 1453,-239"/>
<text text-anchor="middle" x="1427" y="-227" font-family="Helvetica,sans-Serif" font-size="10.00">squid.h</text>
</a>
</g>
</g>
<!-- Node1&#45;&gt;Node2 -->
<g id="edge1_Node000001_Node000002" class="edge">
<title>Node1&#45;&gt;Node2</title>
<g id="a_edge1_Node000001_Node000002"><a xlink:title=" ">
<path fill="none" stroke="#63b8ff" d="M3426.21,-281.81C3104.9,-273.56 1706.17,-237.67 1463.08,-231.43"/>
<polygon fill="#63b8ff" stroke="#63b8ff" points="1463.1,-227.93 1453.01,-231.17 1462.92,-234.92 1463.1,-227.93"/>
</a>
</g>
</g>
<!-- Node44 -->
<g id="Node000044" class="node">
<title>Node44</title>
<g id="a_Node000044"><a xlink:href="acl_2Options_8h.html" target="_top" xlink:title=" ">
<polygon fill="white" stroke="#666666" points="3030,-239 2950,-239 2950,-220 3030,-220 3030,-239"/>
<text text-anchor="middle" x="2990" y="-227" font-family="Helvetica,sans-Serif" font-size="10.00">acl/Options.h</text>
</a>
</g>
</g>
<!-- Node1&#45;&gt;Node44 -->
<g id="edge28_Node000001_Node000044" class="edge">
<title>Node1&#45;&gt;Node44</title>
<g id="a_edge28_Node000001_Node000044"><a xlink:title=" ">
<path fill="none" stroke="#63b8ff" d="M3426.37,-276.57C3324.78,-265.85 3131.64,-245.45 3040.28,-235.81"/>
<polygon fill="#63b8ff" stroke="#63b8ff" points="3040.5,-232.31 3030.19,-234.74 3039.76,-239.27 3040.5,-232.31"/>
</a>
</g>
</g>
<!-- Node54 -->
<g id="Node000054" class="node">
<title>Node54</title>
<g id="a_Node000054"><a xlink:title=" ">
<polygon fill="#e0e0e0" stroke="#999999" points="2923.5,-184 2876.5,-184 2876.5,-165 2923.5,-165 2923.5,-184"/>
<text text-anchor="middle" x="2900" y="-172" font-family="Helvetica,sans-Serif" font-size="10.00">vector</text>
</a>
</g>
</g>
<!-- Node1&#45;&gt;Node54 -->
<g id="edge59_Node000001_Node000054" class="edge">
<title>Node1&#45;&gt;Node54</title>
<g id="a_edge59_Node000001_Node000054"><a xlink:title=" ">
<path fill="none" stroke="#63b8ff" d="M3426.24,-281.44C3289.09,-276.67 2981.77,-263.38 2941,-239 2924.14,-228.92 2912.98,-208.92 2906.62,-194.05"/>
<polygon fill="#63b8ff" stroke="#63b8ff" points="2909.72,-192.37 2902.82,-184.34 2903.21,-194.92 2909.72,-192.37"/>
</a>
</g>
</g>
<!-- Node55 -->
<g id="Node000055" class="node">
<title>Node55</title>
<g id="a_Node000055"><a xlink:href="ConfigParser_8h.html" target="_top" xlink:title=" ">
<polygon fill="white" stroke="#666666" points="3366,-239 3280,-239 3280,-220 3366,-220 3366,-239"/>
<text text-anchor="middle" x="3323" y="-227" font-family="Helvetica,sans-Serif" font-size="10.00">ConfigParser.h</text>
</a>
</g>
</g>
<!-- Node1&#45;&gt;Node55 -->
<g id="edge33_Node000001_Node000055" class="edge">
<title>Node1&#45;&gt;Node55</title>
<g id="a_edge33_Node000001_Node000055"><a xlink:title=" ">
<path fill="none" stroke="#63b8ff" d="M3464.85,-274.98C3436.47,-266.09 3391.77,-252.07 3360.14,-242.15"/>
<polygon fill="#63b8ff" stroke="#63b8ff" points="3360.95,-238.73 3350.37,-239.08 3358.86,-245.41 3360.95,-238.73"/>
</a>
</g>
</g>
<!-- Node62 -->
<g id="Node000062" class="node">
<title>Node62</title>
<g id="a_Node000062"><a xlink:href="debug_2Stream_8h.html" target="_top" xlink:title=" ">
<polygon fill="white" stroke="#666666" points="3720,-129 3626,-129 3626,-110 3720,-110 3720,-129"/>
<text text-anchor="middle" x="3673" y="-117" font-family="Helvetica,sans-Serif" font-size="10.00">debug/Stream.h</text>
</a>
</g>
</g>
<!-- Node1&#45;&gt;Node62 -->
<g id="edge50_Node000001_Node000062" class="edge">
<title>Node1&#45;&gt;Node62</title>
<g id="a_edge50_Node000001_Node000062"><a xlink:title=" ">
<path fill="none" stroke="#63b8ff" d="M3557.65,-275.53C3652.61,-262.44 3820.63,-232.84 3854,-184 3886.15,-136.96 3794.47,-124.43 3730.13,-121.3"/>
<polygon fill="#63b8ff" stroke="#63b8ff" points="3730.2,-117.8 3720.06,-120.87 3729.9,-124.79 3730.2,-117.8"/>
</a>
</g>
</g>
<!-- Node48 -->
<g id="Node000048" class="node">
<title>Node48</title>
<g id="a_Node000048"><a xlink:title=" ">
<polygon fill="#e0e0e0" stroke="#999999" points="3891,-74 3831,-74 3831,-55 3891,-55 3891,-74"/>
<text text-anchor="middle" x="3861" y="-62" font-family="Helvetica,sans-Serif" font-size="10.00">iostream</text>
</a>
</g>
</g>
<!-- Node1&#45;&gt;Node48 -->
<g id="edge57_Node000001_Node000048" class="edge">
<title>Node1&#45;&gt;Node48</title>
<g id="a_edge57_Node000001_Node000048"><a xlink:title=" ">
<path fill="none" stroke="#63b8ff" d="M3557.61,-281.61C3618.78,-278.01 3711.64,-267.77 3787,-239 3828.69,-223.08 3849.78,-223.26 3871,-184 3888.27,-152.04 3877.08,-108.03 3868.39,-83.64"/>
<polygon fill="#63b8ff" stroke="#63b8ff" points="3871.62,-82.3 3864.79,-74.2 3865.08,-84.79 3871.62,-82.3"/>
</a>
</g>
</g>
<!-- Node71 -->
<g id="Node000071" class="node">
<title>Node71</title>
<g id="a_Node000071"><a xlink:href="sbuf_2Stream_8h.html" target="_top" xlink:title=" ">
<polygon fill="white" stroke="#666666" points="3703.5,-239 3618.5,-239 3618.5,-220 3703.5,-220 3703.5,-239"/>
<text text-anchor="middle" x="3661" y="-227" font-family="Helvetica,sans-Serif" font-size="10.00">sbuf/Stream.h</text>
</a>
</g>
</g>
<!-- Node1&#45;&gt;Node71 -->
<g id="edge51_Node000001_Node000071" class="edge">
<title>Node1&#45;&gt;Node71</title>
<g id="a_edge51_Node000001_Node000071"><a xlink:title=" ">
<path fill="none" stroke="#63b8ff" d="M3519.15,-274.98C3547.53,-266.09 3592.23,-252.07 3623.86,-242.15"/>
<polygon fill="#63b8ff" stroke="#63b8ff" points="3625.14,-245.41 3633.63,-239.08 3623.05,-238.73 3625.14,-245.41"/>
</a>
</g>
</g>
<!-- Node49 -->
<g id="Node000049" class="node">
<title>Node49</title>
<g id="a_Node000049"><a xlink:title=" ">
<polygon fill="#e0e0e0" stroke="#999999" points="3984.5,-239 3939.5,-239 3939.5,-220 3984.5,-220 3984.5,-239"/>
<text text-anchor="middle" x="3962" y="-227" font-family="Helvetica,sans-Serif" font-size="10.00">utility</text>
</a>
</g>
</g>
<!-- Node1&#45;&gt;Node49 -->
<g id="edge58_Node000001_Node000049" class="edge">
<title>Node1&#45;&gt;Node49</title>
<g id="a_edge58_Node000001_Node000049"><a xlink:title=" ">
<path fill="none" stroke="#63b8ff" d="M3557.62,-279.29C3642.74,-273.25 3795.65,-260.42 3925,-239 3926.46,-238.76 3927.95,-238.49 3929.46,-238.21"/>
<polygon fill="#63b8ff" stroke="#63b8ff" points="3930.3,-241.61 3939.39,-236.16 3928.89,-234.75 3930.3,-241.61"/>
</a>
</g>
</g>
<!-- Node3 -->
<g id="Node000003" class="node">
<title>Node3</title>
<g id="a_Node000003"><a xlink:href="autoconf_8h.html" target="_top" xlink:title=" ">
<polygon fill="white" stroke="#666666" points="1328,-184 1260,-184 1260,-165 1328,-165 1328,-184"/>
<text text-anchor="middle" x="1294" y="-172" font-family="Helvetica,sans-Serif" font-size="10.00">autoconf.h</text>
</a>
</g>
</g>
<!-- Node2&#45;&gt;Node3 -->
<g id="edge2_Node000002_Node000003" class="edge">
<title>Node2&#45;&gt;Node3</title>
<g id="a_edge2_Node000002_Node000003"><a xlink:title=" ">
<path fill="none" stroke="#63b8ff" d="M1405.63,-219.98C1383.85,-211.3 1349.84,-197.75 1325.08,-187.88"/>
<polygon fill="#63b8ff" stroke="#63b8ff" points="1326.34,-184.62 1315.76,-184.17 1323.75,-191.12 1326.34,-184.62"/>
</a>
</g>
</g>
<!-- Node4 -->
<g id="Node000004" class="node">
<title>Node4</title>
<g id="a_Node000004"><a xlink:href="version_8h.html" target="_top" xlink:title=" ">
<polygon fill="white" stroke="#666666" points="1408,-184 1346,-184 1346,-165 1408,-165 1408,-184"/>
<text text-anchor="middle" x="1377" y="-172" font-family="Helvetica,sans-Serif" font-size="10.00">version.h</text>
</a>
</g>
</g>
<!-- Node2&#45;&gt;Node4 -->
<g id="edge3_Node000002_Node000004" class="edge">
<title>Node2&#45;&gt;Node4</title>
<g id="a_edge3_Node000002_Node000004"><a xlink:title=" ">
<path fill="none" stroke="#63b8ff" d="M1418.74,-219.75C1411.54,-212.11 1400.89,-200.82 1392.15,-191.56"/>
<polygon fill="#63b8ff" stroke="#63b8ff" points="1394.51,-188.96 1385.1,-184.09 1389.42,-193.76 1394.51,-188.96"/>
</a>
</g>
</g>
<!-- Node5 -->
<g id="Node000005" class="node">
<title>Node5</title>
<g id="a_Node000005"><a xlink:href="compat_8h.html" target="_top" xlink:title=" ">
<polygon fill="#fff0f0" stroke="red" points="1528,-184 1426,-184 1426,-165 1528,-165 1528,-184"/>
<text text-anchor="middle" x="1477" y="-172" font-family="Helvetica,sans-Serif" font-size="10.00">compat/compat.h</text>
</a>
</g>
</g>
<!-- Node2&#45;&gt;Node5 -->
<g id="edge4_Node000002_Node000005" class="edge">
<title>Node2&#45;&gt;Node5</title>
<g id="a_edge4_Node000002_Node000005"><a xlink:title=" ">
<path fill="none" stroke="#63b8ff" d="M1435.26,-219.75C1442.46,-212.11 1453.11,-200.82 1461.85,-191.56"/>
<polygon fill="#63b8ff" stroke="#63b8ff" points="1464.58,-193.76 1468.9,-184.09 1459.49,-188.96 1464.58,-193.76"/>
</a>
</g>
</g>
<!-- Node6 -->
<g id="Node000006" class="node">
<title>Node6</title>
<g id="a_Node000006"><a xlink:href="osdetect_8h.html" target="_top" xlink:title=" ">
<polygon fill="white" stroke="#666666" points="1110.5,-129 1003.5,-129 1003.5,-110 1110.5,-110 1110.5,-129"/>
<text text-anchor="middle" x="1057" y="-117" font-family="Helvetica,sans-Serif" font-size="10.00">compat/osdetect.h</text>
</a>
</g>
</g>
<!-- Node5&#45;&gt;Node6 -->
<g id="edge5_Node000005_Node000006" class="edge">
<title>Node5&#45;&gt;Node6</title>
<g id="a_edge5_Node000005_Node000006"><a xlink:title=" ">
<path fill="none" stroke="#63b8ff" d="M1425.95,-166.2C1422.92,-165.79 1419.92,-165.38 1417,-165 1288.39,-148.1 1253.57,-145.99 1120.77,-129.08"/>
<polygon fill="#63b8ff" stroke="#63b8ff" points="1120.97,-125.58 1110.61,-127.78 1120.09,-132.52 1120.97,-125.58"/>
</a>
</g>
</g>
<!-- Node7 -->
<g id="Node000007" class="node">
<title>Node7</title>
<g id="a_Node000007"><a xlink:href="fdsetsize_8h.html" target="_top" xlink:title=" ">
<polygon fill="white" stroke="#666666" points="1239,-129 1129,-129 1129,-110 1239,-110 1239,-129"/>
<text text-anchor="middle" x="1184" y="-117" font-family="Helvetica,sans-Serif" font-size="10.00">compat/fdsetsize.h</text>
</a>
</g>
</g>
<!-- Node5&#45;&gt;Node7 -->
<g id="edge6_Node000005_Node000007" class="edge">
<title>Node5&#45;&gt;Node7</title>
<g id="a_edge6_Node000005_Node000007"><a xlink:title=" ">
<path fill="none" stroke="#63b8ff" d="M1429.92,-164.98C1378.6,-155.7 1296.46,-140.84 1241.4,-130.88"/>
<polygon fill="#63b8ff" stroke="#63b8ff" points="1241.91,-127.42 1231.44,-129.08 1240.66,-134.31 1241.91,-127.42"/>
</a>
</g>
</g>
<!-- Node8 -->
<g id="Node000008" class="node">
<title>Node8</title>
<g id="a_Node000008"><a xlink:href="types_8h.html" target="_top" xlink:title=" ">
<polygon fill="#fff0f0" stroke="red" points="1349,-129 1257,-129 1257,-110 1349,-110 1349,-129"/>
<text text-anchor="middle" x="1303" y="-117" font-family="Helvetica,sans-Serif" font-size="10.00">compat/types.h</text>
</a>
</g>
</g>
<!-- Node5&#45;&gt;Node8 -->
<g id="edge7_Node000005_Node000008" class="edge">
<title>Node5&#45;&gt;Node8</title>
<g id="a_edge7_Node000005_Node000008"><a xlink:title=" ">
<path fill="none" stroke="#63b8ff" d="M1449.04,-164.98C1419.7,-156.05 1373.4,-141.94 1340.81,-132.02"/>
<polygon fill="#63b8ff" stroke="#63b8ff" points="1341.76,-128.65 1331.18,-129.08 1339.72,-135.34 1341.76,-128.65"/>
</a>
</g>
</g>
<!-- Node10 -->
<g id="Node000010" class="node">
<title>Node10</title>
<g id="a_Node000010"><a xlink:href="aix_8h.html" target="_top" xlink:title=" ">
<polygon fill="white" stroke="#666666" points="1462.5,-129 1367.5,-129 1367.5,-110 1462.5,-110 1462.5,-129"/>
<text text-anchor="middle" x="1415" y="-117" font-family="Helvetica,sans-Serif" font-size="10.00">compat/os/aix.h</text>
</a>
</g>
</g>
<!-- Node5&#45;&gt;Node10 -->
<g id="edge8_Node000005_Node000010" class="edge">
<title>Node5&#45;&gt;Node10</title>
<g id="a_edge8_Node000005_Node000010"><a xlink:title=" ">
<path fill="none" stroke="#63b8ff" d="M1467.04,-164.98C1457.87,-157.15 1444.06,-145.34 1432.97,-135.86"/>
<polygon fill="#63b8ff" stroke="#63b8ff" points="1435.02,-133.01 1425.14,-129.17 1430.47,-138.33 1435.02,-133.01"/>
</a>
</g>
</g>
<!-- Node11 -->
<g id="Node000011" class="node">
<title>Node11</title>
<g id="a_Node000011"><a xlink:href="android_8h.html" target="_top" xlink:title=" ">
<polygon fill="white" stroke="#666666" points="1597,-129 1481,-129 1481,-110 1597,-110 1597,-129"/>
<text text-anchor="middle" x="1539" y="-117" font-family="Helvetica,sans-Serif" font-size="10.00">compat/os/android.h</text>
</a>
</g>
</g>
<!-- Node5&#45;&gt;Node11 -->
<g id="edge9_Node000005_Node000011" class="edge">
<title>Node5&#45;&gt;Node11</title>
<g id="a_edge9_Node000005_Node000011"><a xlink:title=" ">
<path fill="none" stroke="#63b8ff" d="M1486.96,-164.98C1496.13,-157.15 1509.94,-145.34 1521.03,-135.86"/>
<polygon fill="#63b8ff" stroke="#63b8ff" points="1523.53,-138.33 1528.86,-129.17 1518.98,-133.01 1523.53,-138.33"/>
</a>
</g>
</g>
<!-- Node12 -->
<g id="Node000012" class="node">
<title>Node12</title>
<g id="a_Node000012"><a xlink:href="dragonfly_8h.html" target="_top" xlink:title=" ">
<polygon fill="white" stroke="#666666" points="1739,-129 1615,-129 1615,-110 1739,-110 1739,-129"/>
<text text-anchor="middle" x="1677" y="-117" font-family="Helvetica,sans-Serif" font-size="10.00">compat/os/dragonfly.h</text>
</a>
</g>
</g>
<!-- Node5&#45;&gt;Node12 -->
<g id="edge10_Node000005_Node000012" class="edge">
<title>Node5&#45;&gt;Node12</title>
<g id="a_edge10_Node000005_Node000012"><a xlink:title=" ">
<path fill="none" stroke="#63b8ff" d="M1509.13,-164.98C1543.15,-155.97 1597,-141.7 1634.5,-131.76"/>
<polygon fill="#63b8ff" stroke="#63b8ff" points="1635.84,-135.03 1644.61,-129.08 1634.05,-128.26 1635.84,-135.03"/>
</a>
</g>
</g>
<!-- Node13 -->
<g id="Node000013" class="node">
<title>Node13</title>
<g id="a_Node000013"><a xlink:href="freebsd_8h.html" target="_top" xlink:title=" ">
<polygon fill="white" stroke="#666666" points="1873,-129 1757,-129 1757,-110 1873,-110 1873,-129"/>
<text text-anchor="middle" x="1815" y="-117" font-family="Helvetica,sans-Serif" font-size="10.00">compat/os/freebsd.h</text>
</a>
</g>
</g>
<!-- Node5&#45;&gt;Node13 -->
<g id="edge11_Node000005_Node000013" class="edge">
<title>Node5&#45;&gt;Node13</title>
<g id="a_edge11_Node000005_Node000013"><a xlink:title=" ">
<path fill="none" stroke="#63b8ff" d="M1528.33,-165.45C1587.85,-156.12 1686.01,-140.73 1750.59,-130.6"/>
<polygon fill="#63b8ff" stroke="#63b8ff" points="1751.32,-134.03 1760.66,-129.02 1750.24,-127.11 1751.32,-134.03"/>
</a>
</g>
</g>
<!-- Node14 -->
<g id="Node000014" class="node">
<title>Node14</title>
<g id="a_Node000014"><a xlink:href="hpux_8h.html" target="_top" xlink:title=" ">
<polygon fill="white" stroke="#666666" points="1995,-129 1891,-129 1891,-110 1995,-110 1995,-129"/>
<text text-anchor="middle" x="1943" y="-117" font-family="Helvetica,sans-Serif" font-size="10.00">compat/os/hpux.h</text>
</a>
</g>
</g>
<!-- Node5&#45;&gt;Node14 -->
<g id="edge12_Node000005_Node000014" class="edge">
<title>Node5&#45;&gt;Node14</title>
<g id="a_edge12_Node000005_Node000014"><a xlink:title=" ">
<path fill="none" stroke="#63b8ff" d="M1528.2,-168.36C1603.22,-160.71 1747.68,-145.59 1880.8,-129.12"/>
<polygon fill="#63b8ff" stroke="#63b8ff" points="1881.28,-132.59 1890.77,-127.88 1880.41,-125.64 1881.28,-132.59"/>
</a>
</g>
</g>
<!-- Node15 -->
<g id="Node000015" class="node">
<title>Node15</title>
<g id="a_Node000015"><a xlink:href="linux_8h.html" target="_top" xlink:title=" ">
<polygon fill="white" stroke="#666666" points="2117,-129 2013,-129 2013,-110 2117,-110 2117,-129"/>
<text text-anchor="middle" x="2065" y="-117" font-family="Helvetica,sans-Serif" font-size="10.00">compat/os/linux.h</text>
</a>
</g>
</g>
<!-- Node5&#45;&gt;Node15 -->
<g id="edge13_Node000005_Node000015" class="edge">
<title>Node5&#45;&gt;Node15</title>
<g id="a_edge13_Node000005_Node000015"><a xlink:title=" ">
<path fill="none" stroke="#63b8ff" d="M1528.33,-170.09C1620.93,-163.75 1822.29,-149.02 2002.58,-129.1"/>
<polygon fill="#63b8ff" stroke="#63b8ff" points="2003.23,-132.55 2012.78,-127.97 2002.45,-125.59 2003.23,-132.55"/>
</a>
</g>
</g>
<!-- Node16 -->
<g id="Node000016" class="node">
<title>Node16</title>
<g id="a_Node000016"><a xlink:href="macosx_8h.html" target="_top" xlink:title=" ">
<polygon fill="white" stroke="#666666" points="2253,-129 2135,-129 2135,-110 2253,-110 2253,-129"/>
<text text-anchor="middle" x="2194" y="-117" font-family="Helvetica,sans-Serif" font-size="10.00">compat/os/macosx.h</text>
</a>
</g>
</g>
<!-- Node5&#45;&gt;Node16 -->
<g id="edge14_Node000005_Node000016" class="edge">
<title>Node5&#45;&gt;Node16</title>
<g id="a_edge14_Node000005_Node000016"><a xlink:title=" ">
<path fill="none" stroke="#63b8ff" d="M1528.4,-170.95C1636.64,-165.38 1896.23,-150.9 2124.52,-129.09"/>
<polygon fill="#63b8ff" stroke="#63b8ff" points="2125.06,-132.55 2134.68,-128.11 2124.39,-125.59 2125.06,-132.55"/>
</a>
</g>
</g>
<!-- Node17 -->
<g id="Node000017" class="node">
<title>Node17</title>
<g id="a_Node000017"><a xlink:href="mingw_8h.html" target="_top" xlink:title=" ">
<polygon fill="white" stroke="#666666" points="2383,-129 2271,-129 2271,-110 2383,-110 2383,-129"/>
<text text-anchor="middle" x="2327" y="-117" font-family="Helvetica,sans-Serif" font-size="10.00">compat/os/mingw.h</text>
</a>
</g>
</g>
<!-- Node5&#45;&gt;Node17 -->
<g id="edge15_Node000005_Node000017" class="edge">
<title>Node5&#45;&gt;Node17</title>
<g id="a_edge15_Node000005_Node000017"><a xlink:title=" ">
<path fill="none" stroke="#63b8ff" d="M1528.07,-171.9C1651.87,-167.76 1978,-155.16 2260.62,-129.06"/>
<polygon fill="#63b8ff" stroke="#63b8ff" points="2261.03,-132.54 2270.66,-128.12 2260.38,-125.57 2261.03,-132.54"/>
</a>
</g>
</g>
<!-- Node18 -->
<g id="Node000018" class="node">
<title>Node18</title>
<g id="a_Node000018"><a xlink:href="mswindows_8h.html" target="_top" xlink:title=" ">
<polygon fill="white" stroke="#666666" points="2538.5,-129 2401.5,-129 2401.5,-110 2538.5,-110 2538.5,-129"/>
<text text-anchor="middle" x="2470" y="-117" font-family="Helvetica,sans-Serif" font-size="10.00">compat/os/mswindows.h</text>
</a>
</g>
</g>
<!-- Node5&#45;&gt;Node18 -->
<g id="edge16_Node000005_Node000018" class="edge">
<title>Node5&#45;&gt;Node18</title>
<g id="a_edge16_Node000005_Node000018"><a xlink:title=" ">
<path fill="none" stroke="#63b8ff" d="M1528.16,-172.09C1665.73,-168.06 2055.3,-155.14 2390.71,-129.05"/>
<polygon fill="#63b8ff" stroke="#63b8ff" points="2391.42,-132.5 2401.12,-128.23 2390.87,-125.52 2391.42,-132.5"/>
</a>
</g>
</g>
<!-- Node19 -->
<g id="Node000019" class="node">
<title>Node19</title>
<g id="a_Node000019"><a xlink:href="netbsd_8h.html" target="_top" xlink:title=" ">
<polygon fill="white" stroke="#666666" points="2669.5,-129 2556.5,-129 2556.5,-110 2669.5,-110 2669.5,-129"/>
<text text-anchor="middle" x="2613" y="-117" font-family="Helvetica,sans-Serif" font-size="10.00">compat/os/netbsd.h</text>
</a>
</g>
</g>
<!-- Node5&#45;&gt;Node19 -->
<g id="edge17_Node000005_Node000019" class="edge">
<title>Node5&#45;&gt;Node19</title>
<g id="a_edge17_Node000005_Node000019"><a xlink:title=" ">
<path fill="none" stroke="#63b8ff" d="M1528.05,-172.94C1680.85,-170.94 2148.04,-162.4 2546.17,-128.98"/>
<polygon fill="#63b8ff" stroke="#63b8ff" points="2546.48,-132.47 2556.15,-128.14 2545.89,-125.49 2546.48,-132.47"/>
</a>
</g>
</g>
<!-- Node20 -->
<g id="Node000020" class="node">
<title>Node20</title>
<g id="a_Node000020"><a xlink:href="openbsd_8h.html" target="_top" xlink:title=" ">
<polygon fill="white" stroke="#666666" points="2808.5,-129 2687.5,-129 2687.5,-110 2808.5,-110 2808.5,-129"/>
<text text-anchor="middle" x="2748" y="-117" font-family="Helvetica,sans-Serif" font-size="10.00">compat/os/openbsd.h</text>
</a>
</g>
</g>
<!-- Node5&#45;&gt;Node20 -->
<g id="edge18_Node000005_Node000020" class="edge">
<title>Node5&#45;&gt;Node20</title>
<g id="a_edge18_Node000005_Node000020"><a xlink:title=" ">
<path fill="none" stroke="#63b8ff" d="M1528.01,-173.14C1692.74,-171.64 2225.52,-164.28 2677.34,-128.97"/>
<polygon fill="#63b8ff" stroke="#63b8ff" points="2677.63,-132.46 2687.32,-128.18 2677.08,-125.48 2677.63,-132.46"/>
</a>
</g>
</g>
<!-- Node21 -->
<g id="Node000021" class="node">
<title>Node21</title>
<g id="a_Node000021"><a xlink:href="os2_8h.html" target="_top" xlink:title=" ">
<polygon fill="white" stroke="#666666" points="2923.5,-129 2826.5,-129 2826.5,-110 2923.5,-110 2923.5,-129"/>
<text text-anchor="middle" x="2875" y="-117" font-family="Helvetica,sans-Serif" font-size="10.00">compat/os/os2.h</text>
</a>
</g>
</g>
<!-- Node5&#45;&gt;Node21 -->
<g id="edge19_Node000005_Node000021" class="edge">
<title>Node5&#45;&gt;Node21</title>
<g id="a_edge19_Node000005_Node000021"><a xlink:title=" ">
<path fill="none" stroke="#63b8ff" d="M1528.24,-173.87C1705.37,-174.7 2308.21,-173.88 2816.21,-128.94"/>
<polygon fill="#63b8ff" stroke="#63b8ff" points="2816.66,-132.41 2826.31,-128.04 2816.04,-125.44 2816.66,-132.41"/>
</a>
</g>
</g>
<!-- Node22 -->
<g id="Node000022" class="node">
<title>Node22</title>
<g id="a_Node000022"><a xlink:href="qnx_8h.html" target="_top" xlink:title=" ">
<polygon fill="white" stroke="#666666" points="98,-129 0,-129 0,-110 98,-110 98,-129"/>
<text text-anchor="middle" x="49" y="-117" font-family="Helvetica,sans-Serif" font-size="10.00">compat/os/qnx.h</text>
</a>
</g>
</g>
<!-- Node5&#45;&gt;Node22 -->
<g id="edge20_Node000005_Node000022" class="edge">
<title>Node5&#45;&gt;Node22</title>
<g id="a_edge20_Node000005_Node000022"><a xlink:title=" ">
<path fill="none" stroke="#63b8ff" d="M1425.98,-165.87C1422.95,-165.54 1419.94,-165.25 1417,-165 840.02,-116.36 689.03,-178.58 108.31,-128.98"/>
<polygon fill="#63b8ff" stroke="#63b8ff" points="108.26,-125.47 98,-128.1 107.66,-132.44 108.26,-125.47"/>
</a>
</g>
</g>
<!-- Node23 -->
<g id="Node000023" class="node">
<title>Node23</title>
<g id="a_Node000023"><a xlink:href="solaris_8h.html" target="_top" xlink:title=" ">
<polygon fill="white" stroke="#666666" points="228,-129 116,-129 116,-110 228,-110 228,-129"/>
<text text-anchor="middle" x="172" y="-117" font-family="Helvetica,sans-Serif" font-size="10.00">compat/os/solaris.h</text>
</a>
</g>
</g>
<!-- Node5&#45;&gt;Node23 -->
<g id="edge21_Node000005_Node000023" class="edge">
<title>Node5&#45;&gt;Node23</title>
<g id="a_edge21_Node000005_Node000023"><a xlink:title=" ">
<path fill="none" stroke="#63b8ff" d="M1425.98,-165.88C1422.95,-165.55 1419.93,-165.25 1417,-165 897.55,-120.42 761.72,-170.43 238.41,-129.02"/>
<polygon fill="#63b8ff" stroke="#63b8ff" points="238.58,-125.52 228.33,-128.22 238.02,-132.5 238.58,-125.52"/>
</a>
</g>
</g>
<!-- Node24 -->
<g id="Node000024" class="node">
<title>Node24</title>
<g id="a_Node000024"><a xlink:href="sunos_8h.html" target="_top" xlink:title=" ">
<polygon fill="white" stroke="#666666" points="354,-129 246,-129 246,-110 354,-110 354,-129"/>
<text text-anchor="middle" x="300" y="-117" font-family="Helvetica,sans-Serif" font-size="10.00">compat/os/sunos.h</text>
</a>
</g>
</g>
<!-- Node5&#45;&gt;Node24 -->
<g id="edge22_Node000005_Node000024" class="edge">
<title>Node5&#45;&gt;Node24</title>
<g id="a_edge22_Node000005_Node000024"><a xlink:title=" ">
<path fill="none" stroke="#63b8ff" d="M1425.98,-165.89C1422.94,-165.56 1419.93,-165.26 1417,-165 953.38,-124.36 831.78,-167.76 364.31,-129.01"/>
<polygon fill="#63b8ff" stroke="#63b8ff" points="364.52,-125.52 354.26,-128.17 363.93,-132.49 364.52,-125.52"/>
</a>
</g>
</g>
<!-- Node25 -->
<g id="Node000025" class="node">
<title>Node25</title>
<g id="a_Node000025"><a xlink:href="assert_8h.html" target="_top" xlink:title=" ">
<polygon fill="white" stroke="#666666" points="467.5,-129 372.5,-129 372.5,-110 467.5,-110 467.5,-129"/>
<text text-anchor="middle" x="420" y="-117" font-family="Helvetica,sans-Serif" font-size="10.00">compat/assert.h</text>
</a>
</g>
</g>
<!-- Node5&#45;&gt;Node25 -->
<g id="edge23_Node000005_Node000025" class="edge">
<title>Node5&#45;&gt;Node25</title>
<g id="a_edge23_Node000005_Node000025"><a xlink:title=" ">
<path fill="none" stroke="#63b8ff" d="M1425.98,-165.91C1422.94,-165.57 1419.93,-165.26 1417,-165 1003.94,-127.93 895.02,-167.25 477.77,-128.94"/>
<polygon fill="#63b8ff" stroke="#63b8ff" points="477.82,-125.43 467.54,-127.99 477.17,-132.4 477.82,-125.43"/>
</a>
</g>
</g>
<!-- Node26 -->
<g id="Node000026" class="node">
<title>Node26</title>
<g id="a_Node000026"><a xlink:href="compat__shared_8h.html" target="_top" xlink:title=" ">
<polygon fill="#fff0f0" stroke="red" points="626,-129 486,-129 486,-110 626,-110 626,-129"/>
<text text-anchor="middle" x="556" y="-117" font-family="Helvetica,sans-Serif" font-size="10.00">compat/compat_shared.h</text>
</a>
</g>
</g>
<!-- Node5&#45;&gt;Node26 -->
<g id="edge24_Node000005_Node000026" class="edge">
<title>Node5&#45;&gt;Node26</title>
<g id="a_edge24_Node000005_Node000026"><a xlink:title=" ">
<path fill="none" stroke="#63b8ff" d="M1425.98,-165.94C1422.94,-165.59 1419.93,-165.27 1417,-165 1073.89,-132.87 983.62,-155.19 636.28,-129.04"/>
<polygon fill="#63b8ff" stroke="#63b8ff" points="636.43,-125.55 626.19,-128.28 635.9,-132.53 636.43,-125.55"/>
</a>
</g>
</g>
<!-- Node36 -->
<g id="Node000036" class="node">
<title>Node36</title>
<g id="a_Node000036"><a xlink:href="stdvarargs_8h.html" target="_top" xlink:title=" ">
<polygon fill="#fff0f0" stroke="red" points="761.5,-129 644.5,-129 644.5,-110 761.5,-110 761.5,-129"/>
<text text-anchor="middle" x="703" y="-117" font-family="Helvetica,sans-Serif" font-size="10.00">compat/stdvarargs.h</text>
</a>
</g>
</g>
<!-- Node5&#45;&gt;Node36 -->
<g id="edge25_Node000005_Node000036" class="edge">
<title>Node5&#45;&gt;Node36</title>
<g id="a_edge25_Node000005_Node000036"><a xlink:title=" ">
<path fill="none" stroke="#63b8ff" d="M1425.97,-165.97C1422.94,-165.62 1419.93,-165.29 1417,-165 1133.74,-137.11 1058.57,-154.72 772.08,-129.13"/>
<polygon fill="#63b8ff" stroke="#63b8ff" points="772.07,-125.61 761.8,-128.2 771.45,-132.58 772.07,-125.61"/>
</a>
</g>
</g>
<!-- Node38 -->
<g id="Node000038" class="node">
<title>Node38</title>
<g id="a_Node000038"><a xlink:href="stdio_8h.html" target="_top" xlink:title=" ">
<polygon fill="#fff0f0" stroke="red" points="868.5,-129 779.5,-129 779.5,-110 868.5,-110 868.5,-129"/>
<text text-anchor="middle" x="824" y="-117" font-family="Helvetica,sans-Serif" font-size="10.00">compat/stdio.h</text>
</a>
</g>
</g>
<!-- Node5&#45;&gt;Node38 -->
<g id="edge26_Node000005_Node000038" class="edge">
<title>Node5&#45;&gt;Node38</title>
<g id="a_edge26_Node000005_Node000038"><a xlink:title=" ">
<path fill="none" stroke="#63b8ff" d="M1425.97,-166.01C1422.94,-165.64 1419.93,-165.3 1417,-165 1181.03,-140.45 1117.73,-155.64 878.82,-129.11"/>
<polygon fill="#63b8ff" stroke="#63b8ff" points="879.11,-125.62 868.78,-127.98 878.33,-132.57 879.11,-125.62"/>
</a>
</g>
</g>
<!-- Node40 -->
<g id="Node000040" class="node">
<title>Node40</title>
<g id="a_Node000040"><a xlink:href="statvfs_8h.html" target="_top" xlink:title=" ">
<polygon fill="white" stroke="#666666" points="985.5,-129 886.5,-129 886.5,-110 985.5,-110 985.5,-129"/>
<text text-anchor="middle" x="936" y="-117" font-family="Helvetica,sans-Serif" font-size="10.00">compat/statvfs.h</text>
</a>
</g>
</g>
<!-- Node5&#45;&gt;Node40 -->
<g id="edge27_Node000005_Node000040" class="edge">
<title>Node5&#45;&gt;Node40</title>
<g id="a_edge27_Node000005_Node000040"><a xlink:title=" ">
<path fill="none" stroke="#63b8ff" d="M1425.96,-166.07C1422.93,-165.69 1419.93,-165.33 1417,-165 1232.82,-144.13 1183.16,-150.45 995.84,-129.15"/>
<polygon fill="#63b8ff" stroke="#63b8ff" points="995.98,-125.64 985.65,-127.98 995.18,-132.6 995.98,-125.64"/>
</a>
</g>
</g>
<!-- Node45 -->
<g id="Node000045" class="node">
<title>Node45</title>
<g id="a_Node000045"><a xlink:href="acl_2forward_8h.html" target="_top" xlink:title=" ">
<polygon fill="#fff0f0" stroke="red" points="3098,-184 3018,-184 3018,-165 3098,-165 3098,-184"/>
<text text-anchor="middle" x="3058" y="-172" font-family="Helvetica,sans-Serif" font-size="10.00">acl/forward.h</text>
</a>
</g>
</g>
<!-- Node44&#45;&gt;Node45 -->
<g id="edge29_Node000044_Node000045" class="edge">
<title>Node44&#45;&gt;Node45</title>
<g id="a_edge29_Node000044_Node000045"><a xlink:title=" ">
<path fill="none" stroke="#63b8ff" d="M3000.93,-219.98C3011.08,-212.07 3026.42,-200.11 3038.65,-190.58"/>
<polygon fill="#63b8ff" stroke="#63b8ff" points="3041.14,-193.08 3046.88,-184.17 3036.84,-187.56 3041.14,-193.08"/>
</a>
</g>
</g>
<!-- Node50 -->
<g id="Node000050" class="node">
<title>Node50</title>
<g id="a_Node000050"><a xlink:href="sbuf_2forward_8h.html" target="_top" xlink:title=" ">
<polygon fill="#fff0f0" stroke="red" points="3354.5,-129 3267.5,-129 3267.5,-110 3354.5,-110 3354.5,-129"/>
<text text-anchor="middle" x="3311" y="-117" font-family="Helvetica,sans-Serif" font-size="10.00">sbuf/forward.h</text>
</a>
</g>
</g>
<!-- Node44&#45;&gt;Node50 -->
<g id="edge30_Node000044_Node000050" class="edge">
<title>Node44&#45;&gt;Node50</title>
<g id="a_edge30_Node000044_Node000050"><a xlink:title=" ">
<path fill="none" stroke="#63b8ff" d="M2989.85,-219.99C2990.12,-206.18 2992.81,-179 3009,-165 3045.13,-133.75 3180.13,-124.44 3256.84,-121.67"/>
<polygon fill="#63b8ff" stroke="#63b8ff" points="3257.38,-125.16 3267.26,-121.32 3257.15,-118.16 3257.38,-125.16"/>
</a>
</g>
</g>
<!-- Node53 -->
<g id="Node000053" class="node">
<title>Node53</title>
<g id="a_Node000053"><a xlink:title=" ">
<polygon fill="#e0e0e0" stroke="#999999" points="3431,-19 3383,-19 3383,0 3431,0 3431,-19"/>
<text text-anchor="middle" x="3407" y="-7" font-family="Helvetica,sans-Serif" font-size="10.00">iosfwd</text>
</a>
</g>
</g>
<!-- Node44&#45;&gt;Node53 -->
<g id="edge31_Node000044_Node000053" class="edge">
<title>Node44&#45;&gt;Node53</title>
<g id="a_edge31_Node000044_Node000053"><a xlink:title=" ">
<path fill="none" stroke="#63b8ff" d="M2987.64,-219.72C2984.64,-206.48 2981.16,-181.23 2993,-165 3084.64,-39.42 3290.63,-15.84 3372.5,-11.47"/>
<polygon fill="#63b8ff" stroke="#63b8ff" points="3372.93,-14.95 3382.75,-10.99 3372.6,-7.96 3372.93,-14.95"/>
</a>
</g>
</g>
<!-- Node44&#45;&gt;Node54 -->
<g id="edge32_Node000044_Node000054" class="edge">
<title>Node44&#45;&gt;Node54</title>
<g id="a_edge32_Node000044_Node000054"><a xlink:title=" ">
<path fill="none" stroke="#63b8ff" d="M2975.54,-219.98C2961.58,-211.77 2940.21,-199.18 2923.75,-189.49"/>
<polygon fill="#63b8ff" stroke="#63b8ff" points="2925.12,-186.23 2914.72,-184.17 2921.56,-192.26 2925.12,-186.23"/>
</a>
</g>
</g>
<!-- Node55&#45;&gt;Node45 -->
<g id="edge34_Node000055_Node000045" class="edge">
<title>Node55&#45;&gt;Node45</title>
<g id="a_edge34_Node000055_Node000045"><a xlink:title=" ">
<path fill="none" stroke="#63b8ff" d="M3280.42,-219.98C3233.47,-210.59 3158.01,-195.5 3108.21,-185.54"/>
<polygon fill="#63b8ff" stroke="#63b8ff" points="3108.79,-182.09 3098.3,-183.56 3107.42,-188.95 3108.79,-182.09"/>
</a>
</g>
</g>
<!-- Node55&#45;&gt;Node50 -->
<g id="edge36_Node000055_Node000050" class="edge">
<title>Node55&#45;&gt;Node50</title>
<g id="a_edge36_Node000055_Node000050"><a xlink:title=" ">
<path fill="none" stroke="#63b8ff" d="M3306.42,-219.87C3293.83,-212.3 3277.46,-200.01 3270,-184 3261.84,-166.5 3276.6,-148.14 3290.63,-135.69"/>
<polygon fill="#63b8ff" stroke="#63b8ff" points="3293.14,-138.16 3298.63,-129.09 3288.69,-132.76 3293.14,-138.16"/>
</a>
</g>
</g>
<!-- Node56 -->
<g id="Node000056" class="node">
<title>Node56</title>
<g id="a_Node000056"><a xlink:href="base_2forward_8h.html" target="_top" xlink:title=" ">
<polygon fill="white" stroke="#666666" points="3367.5,-184 3278.5,-184 3278.5,-165 3367.5,-165 3367.5,-184"/>
<text text-anchor="middle" x="3323" y="-172" font-family="Helvetica,sans-Serif" font-size="10.00">base/forward.h</text>
</a>
</g>
</g>
<!-- Node55&#45;&gt;Node56 -->
<g id="edge35_Node000055_Node000056" class="edge">
<title>Node55&#45;&gt;Node56</title>
<g id="a_edge35_Node000055_Node000056"><a xlink:title=" ">
<path fill="none" stroke="#63b8ff" d="M3323,-219.75C3323,-212.8 3323,-202.85 3323,-194.13"/>
<polygon fill="#63b8ff" stroke="#63b8ff" points="3326.5,-194.09 3323,-184.09 3319.5,-194.09 3326.5,-194.09"/>
</a>
</g>
</g>
<!-- Node57 -->
<g id="Node000057" class="node">
<title>Node57</title>
<g id="a_Node000057"><a xlink:href="SquidString_8h.html" target="_top" xlink:title=" ">
<polygon fill="#fff0f0" stroke="red" points="3607.5,-184 3526.5,-184 3526.5,-165 3607.5,-165 3607.5,-184"/>
<text text-anchor="middle" x="3567" y="-172" font-family="Helvetica,sans-Serif" font-size="10.00">SquidString.h</text>
</a>
</g>
</g>
<!-- Node55&#45;&gt;Node57 -->
<g id="edge37_Node000055_Node000057" class="edge">
<title>Node55&#45;&gt;Node57</title>
<g id="a_edge37_Node000055_Node000057"><a xlink:title=" ">
<path fill="none" stroke="#63b8ff" d="M3362.2,-219.98C3404.41,-210.82 3471.65,-196.21 3517.48,-186.26"/>
<polygon fill="#63b8ff" stroke="#63b8ff" points="3518.46,-189.63 3527.49,-184.08 3516.97,-182.78 3518.46,-189.63"/>
</a>
</g>
</g>
<!-- Node67 -->
<g id="Node000067" class="node">
<title>Node67</title>
<g id="a_Node000067"><a xlink:title=" ">
<polygon fill="#e0e0e0" stroke="#999999" points="3443,-184 3385,-184 3385,-165 3443,-165 3443,-184"/>
<text text-anchor="middle" x="3414" y="-172" font-family="Helvetica,sans-Serif" font-size="10.00">memory</text>
</a>
</g>
</g>
<!-- Node55&#45;&gt;Node67 -->
<g id="edge46_Node000055_Node000067" class="edge">
<title>Node55&#45;&gt;Node67</title>
<g id="a_edge46_Node000055_Node000067"><a xlink:title=" ">
<path fill="none" stroke="#63b8ff" d="M3337.62,-219.98C3351.86,-211.69 3373.75,-198.94 3390.45,-189.22"/>
<polygon fill="#63b8ff" stroke="#63b8ff" points="3392.23,-192.23 3399.11,-184.17 3388.71,-186.18 3392.23,-192.23"/>
</a>
</g>
</g>
<!-- Node68 -->
<g id="Node000068" class="node">
<title>Node68</title>
<g id="a_Node000068"><a xlink:title=" ">
<polygon fill="#e0e0e0" stroke="#999999" points="3508.5,-184 3461.5,-184 3461.5,-165 3508.5,-165 3508.5,-184"/>
<text text-anchor="middle" x="3485" y="-172" font-family="Helvetica,sans-Serif" font-size="10.00">queue</text>
</a>
</g>
</g>
<!-- Node55&#45;&gt;Node68 -->
<g id="edge47_Node000055_Node000068" class="edge">
<title>Node55&#45;&gt;Node68</title>
<g id="a_edge47_Node000055_Node000068"><a xlink:title=" ">
<path fill="none" stroke="#63b8ff" d="M3349.03,-219.98C3376.91,-210.86 3421.25,-196.36 3451.67,-186.4"/>
<polygon fill="#63b8ff" stroke="#63b8ff" points="3452.99,-189.65 3461.41,-183.22 3450.81,-183 3452.99,-189.65"/>
</a>
</g>
</g>
<!-- Node69 -->
<g id="Node000069" class="node">
<title>Node69</title>
<g id="a_Node000069"><a xlink:title=" ">
<polygon fill="#e0e0e0" stroke="#999999" points="3159.5,-184 3116.5,-184 3116.5,-165 3159.5,-165 3159.5,-184"/>
<text text-anchor="middle" x="3138" y="-172" font-family="Helvetica,sans-Serif" font-size="10.00">stack</text>
</a>
</g>
</g>
<!-- Node55&#45;&gt;Node69 -->
<g id="edge48_Node000055_Node000069" class="edge">
<title>Node55&#45;&gt;Node69</title>
<g id="a_edge48_Node000055_Node000069"><a xlink:title=" ">
<path fill="none" stroke="#63b8ff" d="M3293.28,-219.98C3259.4,-210.28 3204.25,-194.48 3169.61,-184.55"/>
<polygon fill="#63b8ff" stroke="#63b8ff" points="3170.14,-181.07 3159.56,-181.68 3168.21,-187.79 3170.14,-181.07"/>
</a>
</g>
</g>
<!-- Node70 -->
<g id="Node000070" class="node">
<title>Node70</title>
<g id="a_Node000070"><a xlink:title=" ">
<polygon fill="#e0e0e0" stroke="#999999" points="3222,-184 3178,-184 3178,-165 3222,-165 3222,-184"/>
<text text-anchor="middle" x="3200" y="-172" font-family="Helvetica,sans-Serif" font-size="10.00">string</text>
</a>
</g>
</g>
<!-- Node55&#45;&gt;Node70 -->
<g id="edge49_Node000055_Node000070" class="edge">
<title>Node55&#45;&gt;Node70</title>
<g id="a_edge49_Node000055_Node000070"><a xlink:title=" ">
<path fill="none" stroke="#63b8ff" d="M3303.24,-219.98C3283.27,-211.38 3252.2,-197.99 3229.35,-188.15"/>
<polygon fill="#63b8ff" stroke="#63b8ff" points="3230.69,-184.91 3220.12,-184.17 3227.92,-191.34 3230.69,-184.91"/>
</a>
</g>
</g>
<!-- Node57&#45;&gt;Node50 -->
<g id="edge45_Node000057_Node000050" class="edge">
<title>Node57&#45;&gt;Node50</title>
<g id="a_edge45_Node000057_Node000050"><a xlink:title=" ">
<path fill="none" stroke="#63b8ff" d="M3526.44,-165.1C3481.95,-155.89 3410.46,-141.09 3362.16,-131.09"/>
<polygon fill="#63b8ff" stroke="#63b8ff" points="3362.72,-127.63 3352.22,-129.03 3361.3,-134.49 3362.72,-127.63"/>
</a>
</g>
</g>
<!-- Node57&#45;&gt;Node62 -->
<g id="edge38_Node000057_Node000062" class="edge">
<title>Node57&#45;&gt;Node62</title>
<g id="a_edge38_Node000057_Node000062"><a xlink:title=" ">
<path fill="none" stroke="#63b8ff" d="M3584.03,-164.98C3600.93,-156.54 3627.06,-143.47 3646.64,-133.68"/>
<polygon fill="#63b8ff" stroke="#63b8ff" points="3648.28,-136.77 3655.66,-129.17 3645.15,-130.51 3648.28,-136.77"/>
</a>
</g>
</g>
<!-- Node60 -->
<g id="Node000060" class="node">
<title>Node60</title>
<g id="a_Node000060"><a xlink:href="Here_8h.html" target="_top" xlink:title=" ">
<polygon fill="white" stroke="#666666" points="3510.5,-74 3435.5,-74 3435.5,-55 3510.5,-55 3510.5,-74"/>
<text text-anchor="middle" x="3473" y="-62" font-family="Helvetica,sans-Serif" font-size="10.00">base/Here.h</text>
</a>
</g>
</g>
<!-- Node62&#45;&gt;Node60 -->
<g id="edge39_Node000062_Node000060" class="edge">
<title>Node62&#45;&gt;Node60</title>
<g id="a_edge39_Node000062_Node000060"><a xlink:title=" ">
<path fill="none" stroke="#63b8ff" d="M3640.87,-109.98C3606.85,-100.97 3553,-86.7 3515.5,-76.76"/>
<polygon fill="#63b8ff" stroke="#63b8ff" points="3515.95,-73.26 3505.39,-74.08 3514.16,-80.03 3515.95,-73.26"/>
</a>
</g>
</g>
<!-- Node63 -->
<g id="Node000063" class="node">
<title>Node63</title>
<g id="a_Node000063"><a xlink:href="AllocatorProxy_8h.html" target="_top" xlink:title=" ">
<polygon fill="white" stroke="#666666" points="3652,-74 3528,-74 3528,-55 3652,-55 3652,-74"/>
<text text-anchor="middle" x="3590" y="-62" font-family="Helvetica,sans-Serif" font-size="10.00">mem/AllocatorProxy.h</text>
</a>
</g>
</g>
<!-- Node62&#45;&gt;Node63 -->
<g id="edge41_Node000062_Node000063" class="edge">
<title>Node62&#45;&gt;Node63</title>
<g id="a_edge41_Node000062_Node000063"><a xlink:title=" ">
<path fill="none" stroke="#63b8ff" d="M3659.66,-109.98C3646.91,-101.84 3627.45,-89.41 3612.33,-79.76"/>
<polygon fill="#63b8ff" stroke="#63b8ff" points="3613.89,-76.6 3603.58,-74.17 3610.12,-82.5 3613.89,-76.6"/>
</a>
</g>
</g>
<!-- Node62&#45;&gt;Node48 -->
<g id="edge42_Node000062_Node000048" class="edge">
<title>Node62&#45;&gt;Node48</title>
<g id="a_edge42_Node000062_Node000048"><a xlink:title=" ">
<path fill="none" stroke="#63b8ff" d="M3703.21,-109.98C3735.14,-100.98 3785.66,-86.74 3820.91,-76.8"/>
<polygon fill="#63b8ff" stroke="#63b8ff" points="3822.19,-80.08 3830.87,-73.99 3820.29,-73.34 3822.19,-80.08"/>
</a>
</g>
</g>
<!-- Node64 -->
<g id="Node000064" class="node">
<title>Node64</title>
<g id="a_Node000064"><a xlink:title=" ">
<polygon fill="#e0e0e0" stroke="#999999" points="3726,-74 3670,-74 3670,-55 3726,-55 3726,-74"/>
<text text-anchor="middle" x="3698" y="-62" font-family="Helvetica,sans-Serif" font-size="10.00">sstream</text>
</a>
</g>
</g>
<!-- Node62&#45;&gt;Node64 -->
<g id="edge43_Node000062_Node000064" class="edge">
<title>Node62&#45;&gt;Node64</title>
<g id="a_edge43_Node000062_Node000064"><a xlink:title=" ">
<path fill="none" stroke="#63b8ff" d="M3677.13,-109.75C3680.51,-102.57 3685.42,-92.18 3689.62,-83.27"/>
<polygon fill="#63b8ff" stroke="#63b8ff" points="3692.85,-84.63 3693.95,-74.09 3686.52,-81.64 3692.85,-84.63"/>
</a>
</g>
</g>
<!-- Node65 -->
<g id="Node000065" class="node">
<title>Node65</title>
<g id="a_Node000065"><a xlink:title=" ">
<polygon fill="#e0e0e0" stroke="#999999" points="3800,-74 3744,-74 3744,-55 3800,-55 3800,-74"/>
<text text-anchor="middle" x="3772" y="-62" font-family="Helvetica,sans-Serif" font-size="10.00">iomanip</text>
</a>
</g>
</g>
<!-- Node62&#45;&gt;Node65 -->
<g id="edge44_Node000062_Node000065" class="edge">
<title>Node62&#45;&gt;Node65</title>
<g id="a_edge44_Node000062_Node000065"><a xlink:title=" ">
<path fill="none" stroke="#63b8ff" d="M3688.91,-109.98C3704.55,-101.61 3728.66,-88.7 3746.88,-78.95"/>
<polygon fill="#63b8ff" stroke="#63b8ff" points="3748.64,-81.98 3755.8,-74.17 3745.34,-75.8 3748.64,-81.98"/>
</a>
</g>
</g>
<!-- Node60&#45;&gt;Node53 -->
<g id="edge40_Node000060_Node000053" class="edge">
<title>Node60&#45;&gt;Node53</title>
<g id="a_edge40_Node000060_Node000053"><a xlink:title=" ">
<path fill="none" stroke="#63b8ff" d="M3462.4,-54.98C3452.54,-47.07 3437.65,-35.11 3425.78,-25.58"/>
<polygon fill="#63b8ff" stroke="#63b8ff" points="3427.79,-22.7 3417.8,-19.17 3423.4,-28.16 3427.79,-22.7"/>
</a>
</g>
</g>
<!-- Node72 -->
<g id="Node000072" class="node">
<title>Node72</title>
<g id="a_Node000072"><a xlink:href="PackableStream_8h.html" target="_top" xlink:title=" ">
<polygon fill="#fff0f0" stroke="red" points="3845,-184 3715,-184 3715,-165 3845,-165 3845,-184"/>
<text text-anchor="middle" x="3780" y="-172" font-family="Helvetica,sans-Serif" font-size="10.00">base/PackableStream.h</text>
</a>
</g>
</g>
<!-- Node71&#45;&gt;Node72 -->
<g id="edge52_Node000071_Node000072" class="edge">
<title>Node71&#45;&gt;Node72</title>
<g id="a_edge52_Node000071_Node000072"><a xlink:title=" ">
<path fill="none" stroke="#63b8ff" d="M3680.12,-219.98C3699.35,-211.42 3729.23,-198.11 3751.31,-188.28"/>
<polygon fill="#63b8ff" stroke="#63b8ff" points="3752.82,-191.44 3760.53,-184.17 3749.97,-185.04 3752.82,-191.44"/>
</a>
</g>
</g>
<!-- Node74 -->
<g id="Node000074" class="node">
<title>Node74</title>
<g id="a_Node000074"><a xlink:href="SBuf_8h.html" target="_top" xlink:title=" ">
<polygon fill="#fff0f0" stroke="red" points="3696.5,-184 3625.5,-184 3625.5,-165 3696.5,-165 3696.5,-184"/>
<text text-anchor="middle" x="3661" y="-172" font-family="Helvetica,sans-Serif" font-size="10.00">sbuf/SBuf.h</text>
</a>
</g>
</g>
<!-- Node71&#45;&gt;Node74 -->
<g id="edge53_Node000071_Node000074" class="edge">
<title>Node71&#45;&gt;Node74</title>
<g id="a_edge53_Node000071_Node000074"><a xlink:title=" ">
<path fill="none" stroke="#63b8ff" d="M3661,-219.75C3661,-212.8 3661,-202.85 3661,-194.13"/>
<polygon fill="#63b8ff" stroke="#63b8ff" points="3664.5,-194.09 3661,-184.09 3657.5,-194.09 3664.5,-194.09"/>
</a>
</g>
</g>
<!-- Node74&#45;&gt;Node50 -->
<g id="edge55_Node000074_Node000050" class="edge">
<title>Node74&#45;&gt;Node50</title>
<g id="a_edge55_Node000074_Node000050"><a xlink:title=" ">
<path fill="none" stroke="#63b8ff" d="M3625.48,-166.49C3622.62,-165.97 3619.76,-165.47 3617,-165 3528.94,-150.1 3426.09,-135.77 3364.87,-127.56"/>
<polygon fill="#63b8ff" stroke="#63b8ff" points="3365.05,-124.06 3354.68,-126.2 3364.13,-131 3365.05,-124.06"/>
</a>
</g>
</g>
<!-- Node74&#45;&gt;Node53 -->
<g id="edge56_Node000074_Node000053" class="edge">
<title>Node74&#45;&gt;Node53</title>
<g id="a_edge56_Node000074_Node000053"><a xlink:title=" ">
<path fill="none" stroke="#63b8ff" d="M3633.25,-164.94C3577.79,-147.34 3456.07,-106.04 3427,-74 3415.83,-61.7 3410.9,-43.19 3408.72,-29.32"/>
<polygon fill="#63b8ff" stroke="#63b8ff" points="3412.15,-28.51 3407.46,-19.01 3405.2,-29.36 3412.15,-28.51"/>
</a>
</g>
</g>
<!-- Node74&#45;&gt;Node62 -->
<g id="edge54_Node000074_Node000062" class="edge">
<title>Node74&#45;&gt;Node62</title>
<g id="a_edge54_Node000074_Node000062"><a xlink:title=" ">
<path fill="none" stroke="#63b8ff" d="M3662.98,-164.75C3664.57,-157.72 3666.86,-147.62 3668.85,-138.84"/>
<polygon fill="#63b8ff" stroke="#63b8ff" points="3672.26,-139.62 3671.06,-129.09 3665.43,-138.07 3672.26,-139.62"/>
</a>
</g>
</g>
</g>
</svg>
