<?xml version="1.0" encoding="UTF-8" standalone="no"?>
<!DOCTYPE svg PUBLIC "-//W3C//DTD SVG 1.1//EN"
 "http://www.w3.org/Graphics/SVG/1.1/DTD/svg11.dtd">
<!-- Generated by graphviz version 2.43.0 (0)
 -->
<!-- Title: squid/src/acl/AclSizeLimit.cc Pages: 1 -->
<svg width="3748pt" height="247pt"
 viewBox="0.00 0.00 3747.50 247.00" xmlns="http://www.w3.org/2000/svg" xmlns:xlink="http://www.w3.org/1999/xlink">
<g id="graph0" class="graph" transform="scale(1 1) rotate(0) translate(4 243)">
<title>squid/src/acl/AclSizeLimit.cc</title>
<!-- Node1 -->
<g id="Node000001" class="node">
<title>Node1</title>
<g id="a_Node000001"><a xlink:title=" ">
<polygon fill="#999999" stroke="#666666" points="3367.5,-239 3213.5,-239 3213.5,-220 3367.5,-220 3367.5,-239"/>
<text text-anchor="middle" x="3290.5" y="-227" font-family="Helvetica,sans-Serif" font-size="10.00">squid/src/acl/AclSizeLimit.cc</text>
</a>
</g>
</g>
<!-- Node2 -->
<g id="Node000002" class="node">
<title>Node2</title>
<g id="a_Node000002"><a xlink:href="squid_8h.html" target="_top" xlink:title=" ">
<polygon fill="white" stroke="#666666" points="1720.5,-184 1668.5,-184 1668.5,-165 1720.5,-165 1720.5,-184"/>
<text text-anchor="middle" x="1694.5" y="-172" font-family="Helvetica,sans-Serif" font-size="10.00">squid.h</text>
</a>
</g>
</g>
<!-- Node1&#45;&gt;Node2 -->
<g id="edge1_Node000001_Node000002" class="edge">
<title>Node1&#45;&gt;Node2</title>
<g id="a_edge1_Node000001_Node000002"><a xlink:title=" ">
<path fill="none" stroke="#63b8ff" d="M3213.25,-225.93C2927.06,-216.43 1933.25,-183.43 1730.71,-176.7"/>
<polygon fill="#63b8ff" stroke="#63b8ff" points="1730.71,-173.2 1720.6,-176.37 1730.48,-180.2 1730.71,-173.2"/>
</a>
</g>
</g>
<!-- Node45 -->
<g id="Node000045" class="node">
<title>Node45</title>
<g id="a_Node000045"><a xlink:href="AclSizeLimit_8h.html" target="_top" xlink:title=" ">
<polygon fill="white" stroke="#666666" points="3342,-184 3239,-184 3239,-165 3342,-165 3342,-184"/>
<text text-anchor="middle" x="3290.5" y="-172" font-family="Helvetica,sans-Serif" font-size="10.00">acl/AclSizeLimit.h</text>
</a>
</g>
</g>
<!-- Node1&#45;&gt;Node45 -->
<g id="edge38_Node000001_Node000045" class="edge">
<title>Node1&#45;&gt;Node45</title>
<g id="a_edge38_Node000001_Node000045"><a xlink:title=" ">
<path fill="none" stroke="#63b8ff" d="M3290.5,-219.75C3290.5,-212.8 3290.5,-202.85 3290.5,-194.13"/>
<polygon fill="#63b8ff" stroke="#63b8ff" points="3294,-194.09 3290.5,-184.09 3287,-194.09 3294,-194.09"/>
</a>
</g>
</g>
<!-- Node52 -->
<g id="Node000052" class="node">
<title>Node52</title>
<g id="a_Node000052"><a xlink:href="acl_2Gadgets_8h.html" target="_top" xlink:title=" ">
<polygon fill="white" stroke="#666666" points="3536,-184 3453,-184 3453,-165 3536,-165 3536,-184"/>
<text text-anchor="middle" x="3494.5" y="-172" font-family="Helvetica,sans-Serif" font-size="10.00">acl/Gadgets.h</text>
</a>
</g>
</g>
<!-- Node1&#45;&gt;Node52 -->
<g id="edge42_Node000001_Node000052" class="edge">
<title>Node1&#45;&gt;Node52</title>
<g id="a_edge42_Node000001_Node000052"><a xlink:title=" ">
<path fill="none" stroke="#63b8ff" d="M3323.28,-219.98C3358.12,-210.93 3413.37,-196.58 3451.64,-186.64"/>
<polygon fill="#63b8ff" stroke="#63b8ff" points="3452.67,-189.98 3461.47,-184.08 3450.91,-183.21 3452.67,-189.98"/>
</a>
</g>
</g>
<!-- Node3 -->
<g id="Node000003" class="node">
<title>Node3</title>
<g id="a_Node000003"><a xlink:href="autoconf_8h.html" target="_top" xlink:title=" ">
<polygon fill="white" stroke="#666666" points="1595.5,-129 1527.5,-129 1527.5,-110 1595.5,-110 1595.5,-129"/>
<text text-anchor="middle" x="1561.5" y="-117" font-family="Helvetica,sans-Serif" font-size="10.00">autoconf.h</text>
</a>
</g>
</g>
<!-- Node2&#45;&gt;Node3 -->
<g id="edge2_Node000002_Node000003" class="edge">
<title>Node2&#45;&gt;Node3</title>
<g id="a_edge2_Node000002_Node000003"><a xlink:title=" ">
<path fill="none" stroke="#63b8ff" d="M1673.13,-164.98C1651.35,-156.3 1617.34,-142.75 1592.58,-132.88"/>
<polygon fill="#63b8ff" stroke="#63b8ff" points="1593.84,-129.62 1583.26,-129.17 1591.25,-136.12 1593.84,-129.62"/>
</a>
</g>
</g>
<!-- Node4 -->
<g id="Node000004" class="node">
<title>Node4</title>
<g id="a_Node000004"><a xlink:href="version_8h.html" target="_top" xlink:title=" ">
<polygon fill="white" stroke="#666666" points="1675.5,-129 1613.5,-129 1613.5,-110 1675.5,-110 1675.5,-129"/>
<text text-anchor="middle" x="1644.5" y="-117" font-family="Helvetica,sans-Serif" font-size="10.00">version.h</text>
</a>
</g>
</g>
<!-- Node2&#45;&gt;Node4 -->
<g id="edge3_Node000002_Node000004" class="edge">
<title>Node2&#45;&gt;Node4</title>
<g id="a_edge3_Node000002_Node000004"><a xlink:title=" ">
<path fill="none" stroke="#63b8ff" d="M1686.24,-164.75C1679.04,-157.11 1668.39,-145.82 1659.65,-136.56"/>
<polygon fill="#63b8ff" stroke="#63b8ff" points="1662.01,-133.96 1652.6,-129.09 1656.92,-138.76 1662.01,-133.96"/>
</a>
</g>
</g>
<!-- Node5 -->
<g id="Node000005" class="node">
<title>Node5</title>
<g id="a_Node000005"><a xlink:href="compat_8h.html" target="_top" xlink:title=" ">
<polygon fill="white" stroke="#666666" points="1795.5,-129 1693.5,-129 1693.5,-110 1795.5,-110 1795.5,-129"/>
<text text-anchor="middle" x="1744.5" y="-117" font-family="Helvetica,sans-Serif" font-size="10.00">compat/compat.h</text>
</a>
</g>
</g>
<!-- Node2&#45;&gt;Node5 -->
<g id="edge4_Node000002_Node000005" class="edge">
<title>Node2&#45;&gt;Node5</title>
<g id="a_edge4_Node000002_Node000005"><a xlink:title=" ">
<path fill="none" stroke="#63b8ff" d="M1702.76,-164.75C1709.96,-157.11 1720.61,-145.82 1729.35,-136.56"/>
<polygon fill="#63b8ff" stroke="#63b8ff" points="1732.08,-138.76 1736.4,-129.09 1726.99,-133.96 1732.08,-138.76"/>
</a>
</g>
</g>
<!-- Node6 -->
<g id="Node000006" class="node">
<title>Node6</title>
<g id="a_Node000006"><a xlink:href="osdetect_8h.html" target="_top" xlink:title=" ">
<polygon fill="white" stroke="#666666" points="107,-74 0,-74 0,-55 107,-55 107,-74"/>
<text text-anchor="middle" x="53.5" y="-62" font-family="Helvetica,sans-Serif" font-size="10.00">compat/osdetect.h</text>
</a>
</g>
</g>
<!-- Node5&#45;&gt;Node6 -->
<g id="edge5_Node000005_Node000006" class="edge">
<title>Node5&#45;&gt;Node6</title>
<g id="a_edge5_Node000005_Node000006"><a xlink:title=" ">
<path fill="none" stroke="#63b8ff" d="M1693.48,-110.86C1690.45,-110.53 1687.44,-110.24 1684.5,-110 993.07,-53.28 813.13,-127.97 117.1,-73.92"/>
<polygon fill="#63b8ff" stroke="#63b8ff" points="117.32,-70.43 107.07,-73.14 116.77,-77.41 117.32,-70.43"/>
</a>
</g>
</g>
<!-- Node7 -->
<g id="Node000007" class="node">
<title>Node7</title>
<g id="a_Node000007"><a xlink:href="fdsetsize_8h.html" target="_top" xlink:title=" ">
<polygon fill="white" stroke="#666666" points="235.5,-74 125.5,-74 125.5,-55 235.5,-55 235.5,-74"/>
<text text-anchor="middle" x="180.5" y="-62" font-family="Helvetica,sans-Serif" font-size="10.00">compat/fdsetsize.h</text>
</a>
</g>
</g>
<!-- Node5&#45;&gt;Node7 -->
<g id="edge6_Node000005_Node000007" class="edge">
<title>Node5&#45;&gt;Node7</title>
<g id="a_edge6_Node000005_Node000007"><a xlink:title=" ">
<path fill="none" stroke="#63b8ff" d="M1693.48,-110.86C1690.45,-110.54 1687.44,-110.24 1684.5,-110 1049.92,-57.3 884.5,-123.5 246,-74.01"/>
<polygon fill="#63b8ff" stroke="#63b8ff" points="245.86,-70.49 235.62,-73.2 245.32,-77.47 245.86,-70.49"/>
</a>
</g>
</g>
<!-- Node8 -->
<g id="Node000008" class="node">
<title>Node8</title>
<g id="a_Node000008"><a xlink:href="types_8h.html" target="_top" xlink:title=" ">
<polygon fill="white" stroke="#666666" points="345.5,-74 253.5,-74 253.5,-55 345.5,-55 345.5,-74"/>
<text text-anchor="middle" x="299.5" y="-62" font-family="Helvetica,sans-Serif" font-size="10.00">compat/types.h</text>
</a>
</g>
</g>
<!-- Node5&#45;&gt;Node8 -->
<g id="edge7_Node000005_Node000008" class="edge">
<title>Node5&#45;&gt;Node8</title>
<g id="a_edge7_Node000005_Node000008"><a xlink:title=" ">
<path fill="none" stroke="#63b8ff" d="M1693.48,-110.87C1690.45,-110.54 1687.44,-110.25 1684.5,-110 1098.56,-60.73 945.14,-126.52 355.69,-73.97"/>
<polygon fill="#63b8ff" stroke="#63b8ff" points="355.93,-70.48 345.66,-73.07 355.31,-77.45 355.93,-70.48"/>
</a>
</g>
</g>
<!-- Node10 -->
<g id="Node000010" class="node">
<title>Node10</title>
<g id="a_Node000010"><a xlink:href="aix_8h.html" target="_top" xlink:title=" ">
<polygon fill="white" stroke="#666666" points="459,-74 364,-74 364,-55 459,-55 459,-74"/>
<text text-anchor="middle" x="411.5" y="-62" font-family="Helvetica,sans-Serif" font-size="10.00">compat/os/aix.h</text>
</a>
</g>
</g>
<!-- Node5&#45;&gt;Node10 -->
<g id="edge9_Node000005_Node000010" class="edge">
<title>Node5&#45;&gt;Node10</title>
<g id="a_edge9_Node000005_Node000010"><a xlink:title=" ">
<path fill="none" stroke="#63b8ff" d="M1693.48,-110.88C1690.45,-110.55 1687.44,-110.25 1684.5,-110 1149.07,-64.29 1008.76,-121.25 469.02,-73.9"/>
<polygon fill="#63b8ff" stroke="#63b8ff" points="469.31,-70.41 459.04,-73.02 468.69,-77.39 469.31,-70.41"/>
</a>
</g>
</g>
<!-- Node11 -->
<g id="Node000011" class="node">
<title>Node11</title>
<g id="a_Node000011"><a xlink:href="android_8h.html" target="_top" xlink:title=" ">
<polygon fill="white" stroke="#666666" points="593.5,-74 477.5,-74 477.5,-55 593.5,-55 593.5,-74"/>
<text text-anchor="middle" x="535.5" y="-62" font-family="Helvetica,sans-Serif" font-size="10.00">compat/os/android.h</text>
</a>
</g>
</g>
<!-- Node5&#45;&gt;Node11 -->
<g id="edge10_Node000005_Node000011" class="edge">
<title>Node5&#45;&gt;Node11</title>
<g id="a_edge10_Node000005_Node000011"><a xlink:title=" ">
<path fill="none" stroke="#63b8ff" d="M1693.48,-110.89C1690.45,-110.56 1687.43,-110.26 1684.5,-110 1208.56,-68.49 1083.89,-111.7 603.89,-74.02"/>
<polygon fill="#63b8ff" stroke="#63b8ff" points="603.82,-70.5 593.57,-73.2 603.26,-77.48 603.82,-70.5"/>
</a>
</g>
</g>
<!-- Node12 -->
<g id="Node000012" class="node">
<title>Node12</title>
<g id="a_Node000012"><a xlink:href="dragonfly_8h.html" target="_top" xlink:title=" ">
<polygon fill="white" stroke="#666666" points="735.5,-74 611.5,-74 611.5,-55 735.5,-55 735.5,-74"/>
<text text-anchor="middle" x="673.5" y="-62" font-family="Helvetica,sans-Serif" font-size="10.00">compat/os/dragonfly.h</text>
</a>
</g>
</g>
<!-- Node5&#45;&gt;Node12 -->
<g id="edge11_Node000005_Node000012" class="edge">
<title>Node5&#45;&gt;Node12</title>
<g id="a_edge11_Node000005_Node000012"><a xlink:title=" ">
<path fill="none" stroke="#63b8ff" d="M1693.48,-110.91C1690.44,-110.57 1687.43,-110.26 1684.5,-110 1271.44,-72.93 1163.03,-106.33 746.03,-74.05"/>
<polygon fill="#63b8ff" stroke="#63b8ff" points="746.05,-70.54 735.81,-73.25 745.51,-77.52 746.05,-70.54"/>
</a>
</g>
</g>
<!-- Node13 -->
<g id="Node000013" class="node">
<title>Node13</title>
<g id="a_Node000013"><a xlink:href="freebsd_8h.html" target="_top" xlink:title=" ">
<polygon fill="white" stroke="#666666" points="869.5,-74 753.5,-74 753.5,-55 869.5,-55 869.5,-74"/>
<text text-anchor="middle" x="811.5" y="-62" font-family="Helvetica,sans-Serif" font-size="10.00">compat/os/freebsd.h</text>
</a>
</g>
</g>
<!-- Node5&#45;&gt;Node13 -->
<g id="edge12_Node000005_Node000013" class="edge">
<title>Node5&#45;&gt;Node13</title>
<g id="a_edge12_Node000005_Node000013"><a xlink:title=" ">
<path fill="none" stroke="#63b8ff" d="M1693.48,-110.93C1690.44,-110.59 1687.43,-110.27 1684.5,-110 1330.77,-77.12 1237.5,-104.08 879.7,-74.02"/>
<polygon fill="#63b8ff" stroke="#63b8ff" points="879.83,-70.52 869.57,-73.16 879.24,-77.5 879.83,-70.52"/>
</a>
</g>
</g>
<!-- Node14 -->
<g id="Node000014" class="node">
<title>Node14</title>
<g id="a_Node000014"><a xlink:href="hpux_8h.html" target="_top" xlink:title=" ">
<polygon fill="white" stroke="#666666" points="991.5,-74 887.5,-74 887.5,-55 991.5,-55 991.5,-74"/>
<text text-anchor="middle" x="939.5" y="-62" font-family="Helvetica,sans-Serif" font-size="10.00">compat/os/hpux.h</text>
</a>
</g>
</g>
<!-- Node5&#45;&gt;Node14 -->
<g id="edge13_Node000005_Node000014" class="edge">
<title>Node5&#45;&gt;Node14</title>
<g id="a_edge13_Node000005_Node000014"><a xlink:title=" ">
<path fill="none" stroke="#63b8ff" d="M1693.47,-110.96C1690.44,-110.61 1687.43,-110.28 1684.5,-110 1384.76,-80.94 1305.23,-102.56 1001.68,-74.02"/>
<polygon fill="#63b8ff" stroke="#63b8ff" points="1002,-70.54 991.71,-73.08 1001.33,-77.51 1002,-70.54"/>
</a>
</g>
</g>
<!-- Node15 -->
<g id="Node000015" class="node">
<title>Node15</title>
<g id="a_Node000015"><a xlink:href="linux_8h.html" target="_top" xlink:title=" ">
<polygon fill="white" stroke="#666666" points="1113.5,-74 1009.5,-74 1009.5,-55 1113.5,-55 1113.5,-74"/>
<text text-anchor="middle" x="1061.5" y="-62" font-family="Helvetica,sans-Serif" font-size="10.00">compat/os/linux.h</text>
</a>
</g>
</g>
<!-- Node5&#45;&gt;Node15 -->
<g id="edge14_Node000005_Node000015" class="edge">
<title>Node5&#45;&gt;Node15</title>
<g id="a_edge14_Node000005_Node000015"><a xlink:title=" ">
<path fill="none" stroke="#63b8ff" d="M1693.47,-111C1690.44,-110.64 1687.43,-110.3 1684.5,-110 1438.8,-84.76 1373.23,-98.9 1123.81,-74.05"/>
<polygon fill="#63b8ff" stroke="#63b8ff" points="1124.01,-70.56 1113.71,-73.04 1123.31,-77.52 1124.01,-70.56"/>
</a>
</g>
</g>
<!-- Node16 -->
<g id="Node000016" class="node">
<title>Node16</title>
<g id="a_Node000016"><a xlink:href="macosx_8h.html" target="_top" xlink:title=" ">
<polygon fill="white" stroke="#666666" points="1249.5,-74 1131.5,-74 1131.5,-55 1249.5,-55 1249.5,-74"/>
<text text-anchor="middle" x="1190.5" y="-62" font-family="Helvetica,sans-Serif" font-size="10.00">compat/os/macosx.h</text>
</a>
</g>
</g>
<!-- Node5&#45;&gt;Node16 -->
<g id="edge15_Node000005_Node000016" class="edge">
<title>Node5&#45;&gt;Node16</title>
<g id="a_edge15_Node000005_Node000016"><a xlink:title=" ">
<path fill="none" stroke="#63b8ff" d="M1693.46,-111.07C1690.43,-110.69 1687.43,-110.33 1684.5,-110 1498.92,-89.03 1449.16,-93.62 1259.83,-74.1"/>
<polygon fill="#63b8ff" stroke="#63b8ff" points="1260.13,-70.61 1249.82,-73.06 1259.41,-77.57 1260.13,-70.61"/>
</a>
</g>
</g>
<!-- Node17 -->
<g id="Node000017" class="node">
<title>Node17</title>
<g id="a_Node000017"><a xlink:href="mingw_8h.html" target="_top" xlink:title=" ">
<polygon fill="white" stroke="#666666" points="1379.5,-74 1267.5,-74 1267.5,-55 1379.5,-55 1379.5,-74"/>
<text text-anchor="middle" x="1323.5" y="-62" font-family="Helvetica,sans-Serif" font-size="10.00">compat/os/mingw.h</text>
</a>
</g>
</g>
<!-- Node5&#45;&gt;Node17 -->
<g id="edge16_Node000005_Node000017" class="edge">
<title>Node5&#45;&gt;Node17</title>
<g id="a_edge16_Node000005_Node000017"><a xlink:title=" ">
<path fill="none" stroke="#63b8ff" d="M1693.45,-111.2C1690.42,-110.79 1687.42,-110.38 1684.5,-110 1556.32,-93.13 1521.66,-90.7 1389.61,-74.13"/>
<polygon fill="#63b8ff" stroke="#63b8ff" points="1389.87,-70.63 1379.52,-72.86 1389,-77.58 1389.87,-70.63"/>
</a>
</g>
</g>
<!-- Node18 -->
<g id="Node000018" class="node">
<title>Node18</title>
<g id="a_Node000018"><a xlink:href="mswindows_8h.html" target="_top" xlink:title=" ">
<polygon fill="white" stroke="#666666" points="1535,-74 1398,-74 1398,-55 1535,-55 1535,-74"/>
<text text-anchor="middle" x="1466.5" y="-62" font-family="Helvetica,sans-Serif" font-size="10.00">compat/os/mswindows.h</text>
</a>
</g>
</g>
<!-- Node5&#45;&gt;Node18 -->
<g id="edge17_Node000005_Node000018" class="edge">
<title>Node5&#45;&gt;Node18</title>
<g id="a_edge17_Node000005_Node000018"><a xlink:title=" ">
<path fill="none" stroke="#63b8ff" d="M1699.83,-109.98C1651.34,-100.74 1573.85,-85.97 1521.61,-76.01"/>
<polygon fill="#63b8ff" stroke="#63b8ff" points="1521.99,-72.52 1511.52,-74.08 1520.68,-79.39 1521.99,-72.52"/>
</a>
</g>
</g>
<!-- Node19 -->
<g id="Node000019" class="node">
<title>Node19</title>
<g id="a_Node000019"><a xlink:href="netbsd_8h.html" target="_top" xlink:title=" ">
<polygon fill="white" stroke="#666666" points="1666,-74 1553,-74 1553,-55 1666,-55 1666,-74"/>
<text text-anchor="middle" x="1609.5" y="-62" font-family="Helvetica,sans-Serif" font-size="10.00">compat/os/netbsd.h</text>
</a>
</g>
</g>
<!-- Node5&#45;&gt;Node19 -->
<g id="edge18_Node000005_Node000019" class="edge">
<title>Node5&#45;&gt;Node19</title>
<g id="a_edge18_Node000005_Node000019"><a xlink:title=" ">
<path fill="none" stroke="#63b8ff" d="M1722.81,-109.98C1700.7,-101.3 1666.18,-87.75 1641.05,-77.88"/>
<polygon fill="#63b8ff" stroke="#63b8ff" points="1642.17,-74.57 1631.58,-74.17 1639.61,-81.08 1642.17,-74.57"/>
</a>
</g>
</g>
<!-- Node20 -->
<g id="Node000020" class="node">
<title>Node20</title>
<g id="a_Node000020"><a xlink:href="openbsd_8h.html" target="_top" xlink:title=" ">
<polygon fill="white" stroke="#666666" points="1805,-74 1684,-74 1684,-55 1805,-55 1805,-74"/>
<text text-anchor="middle" x="1744.5" y="-62" font-family="Helvetica,sans-Serif" font-size="10.00">compat/os/openbsd.h</text>
</a>
</g>
</g>
<!-- Node5&#45;&gt;Node20 -->
<g id="edge19_Node000005_Node000020" class="edge">
<title>Node5&#45;&gt;Node20</title>
<g id="a_edge19_Node000005_Node000020"><a xlink:title=" ">
<path fill="none" stroke="#63b8ff" d="M1744.5,-109.75C1744.5,-102.8 1744.5,-92.85 1744.5,-84.13"/>
<polygon fill="#63b8ff" stroke="#63b8ff" points="1748,-84.09 1744.5,-74.09 1741,-84.09 1748,-84.09"/>
</a>
</g>
</g>
<!-- Node21 -->
<g id="Node000021" class="node">
<title>Node21</title>
<g id="a_Node000021"><a xlink:href="os2_8h.html" target="_top" xlink:title=" ">
<polygon fill="white" stroke="#666666" points="1920,-74 1823,-74 1823,-55 1920,-55 1920,-74"/>
<text text-anchor="middle" x="1871.5" y="-62" font-family="Helvetica,sans-Serif" font-size="10.00">compat/os/os2.h</text>
</a>
</g>
</g>
<!-- Node5&#45;&gt;Node21 -->
<g id="edge20_Node000005_Node000021" class="edge">
<title>Node5&#45;&gt;Node21</title>
<g id="a_edge20_Node000005_Node000021"><a xlink:title=" ">
<path fill="none" stroke="#63b8ff" d="M1764.9,-109.98C1785.52,-101.38 1817.61,-87.99 1841.19,-78.15"/>
<polygon fill="#63b8ff" stroke="#63b8ff" points="1842.84,-81.25 1850.72,-74.17 1840.15,-74.79 1842.84,-81.25"/>
</a>
</g>
</g>
<!-- Node22 -->
<g id="Node000022" class="node">
<title>Node22</title>
<g id="a_Node000022"><a xlink:href="qnx_8h.html" target="_top" xlink:title=" ">
<polygon fill="white" stroke="#666666" points="2036.5,-74 1938.5,-74 1938.5,-55 2036.5,-55 2036.5,-74"/>
<text text-anchor="middle" x="1987.5" y="-62" font-family="Helvetica,sans-Serif" font-size="10.00">compat/os/qnx.h</text>
</a>
</g>
</g>
<!-- Node5&#45;&gt;Node22 -->
<g id="edge21_Node000005_Node000022" class="edge">
<title>Node5&#45;&gt;Node22</title>
<g id="a_edge21_Node000005_Node000022"><a xlink:title=" ">
<path fill="none" stroke="#63b8ff" d="M1783.54,-109.98C1825.58,-100.82 1892.54,-86.21 1938.18,-76.26"/>
<polygon fill="#63b8ff" stroke="#63b8ff" points="1939.13,-79.63 1948.15,-74.08 1937.64,-72.79 1939.13,-79.63"/>
</a>
</g>
</g>
<!-- Node23 -->
<g id="Node000023" class="node">
<title>Node23</title>
<g id="a_Node000023"><a xlink:href="sgi_8h.html" target="_top" xlink:title=" ">
<polygon fill="white" stroke="#666666" points="2148.5,-74 2054.5,-74 2054.5,-55 2148.5,-55 2148.5,-74"/>
<text text-anchor="middle" x="2101.5" y="-62" font-family="Helvetica,sans-Serif" font-size="10.00">compat/os/sgi.h</text>
</a>
</g>
</g>
<!-- Node5&#45;&gt;Node23 -->
<g id="edge22_Node000005_Node000023" class="edge">
<title>Node5&#45;&gt;Node23</title>
<g id="a_edge22_Node000005_Node000023"><a xlink:title=" ">
<path fill="none" stroke="#63b8ff" d="M1795.64,-111C1853.48,-102.5 1950.8,-88.17 2044.51,-74.14"/>
<polygon fill="#63b8ff" stroke="#63b8ff" points="2045.08,-77.6 2054.45,-72.66 2044.04,-70.68 2045.08,-77.6"/>
</a>
</g>
</g>
<!-- Node24 -->
<g id="Node000024" class="node">
<title>Node24</title>
<g id="a_Node000024"><a xlink:href="solaris_8h.html" target="_top" xlink:title=" ">
<polygon fill="white" stroke="#666666" points="2278.5,-74 2166.5,-74 2166.5,-55 2278.5,-55 2278.5,-74"/>
<text text-anchor="middle" x="2222.5" y="-62" font-family="Helvetica,sans-Serif" font-size="10.00">compat/os/solaris.h</text>
</a>
</g>
</g>
<!-- Node5&#45;&gt;Node24 -->
<g id="edge23_Node000005_Node000024" class="edge">
<title>Node5&#45;&gt;Node24</title>
<g id="a_edge23_Node000005_Node000024"><a xlink:title=" ">
<path fill="none" stroke="#63b8ff" d="M1795.73,-113.36C1871.93,-105.63 2019.9,-90.29 2156.27,-74.12"/>
<polygon fill="#63b8ff" stroke="#63b8ff" points="2156.97,-77.56 2166.49,-72.91 2156.15,-70.61 2156.97,-77.56"/>
</a>
</g>
</g>
<!-- Node25 -->
<g id="Node000025" class="node">
<title>Node25</title>
<g id="a_Node000025"><a xlink:href="sunos_8h.html" target="_top" xlink:title=" ">
<polygon fill="white" stroke="#666666" points="2404.5,-74 2296.5,-74 2296.5,-55 2404.5,-55 2404.5,-74"/>
<text text-anchor="middle" x="2350.5" y="-62" font-family="Helvetica,sans-Serif" font-size="10.00">compat/os/sunos.h</text>
</a>
</g>
</g>
<!-- Node5&#45;&gt;Node25 -->
<g id="edge24_Node000005_Node000025" class="edge">
<title>Node5&#45;&gt;Node25</title>
<g id="a_edge24_Node000005_Node000025"><a xlink:title=" ">
<path fill="none" stroke="#63b8ff" d="M1795.87,-115.19C1890.65,-108.89 2099.67,-94.07 2286.23,-74.08"/>
<polygon fill="#63b8ff" stroke="#63b8ff" points="2286.66,-77.56 2296.23,-73.01 2285.91,-70.6 2286.66,-77.56"/>
</a>
</g>
</g>
<!-- Node26 -->
<g id="Node000026" class="node">
<title>Node26</title>
<g id="a_Node000026"><a xlink:href="assert_8h.html" target="_top" xlink:title=" ">
<polygon fill="white" stroke="#666666" points="2518,-74 2423,-74 2423,-55 2518,-55 2518,-74"/>
<text text-anchor="middle" x="2470.5" y="-62" font-family="Helvetica,sans-Serif" font-size="10.00">compat/assert.h</text>
</a>
</g>
</g>
<!-- Node5&#45;&gt;Node26 -->
<g id="edge25_Node000005_Node000026" class="edge">
<title>Node5&#45;&gt;Node26</title>
<g id="a_edge25_Node000005_Node000026"><a xlink:title=" ">
<path fill="none" stroke="#63b8ff" d="M1795.82,-116.52C1906.49,-111.93 2175.99,-99.1 2412.77,-73.98"/>
<polygon fill="#63b8ff" stroke="#63b8ff" points="2413.38,-77.43 2422.95,-72.89 2412.64,-70.47 2413.38,-77.43"/>
</a>
</g>
</g>
<!-- Node27 -->
<g id="Node000027" class="node">
<title>Node27</title>
<g id="a_Node000027"><a xlink:href="compat__shared_8h.html" target="_top" xlink:title=" ">
<polygon fill="#fff0f0" stroke="red" points="2676.5,-74 2536.5,-74 2536.5,-55 2676.5,-55 2676.5,-74"/>
<text text-anchor="middle" x="2606.5" y="-62" font-family="Helvetica,sans-Serif" font-size="10.00">compat/compat_shared.h</text>
</a>
</g>
</g>
<!-- Node5&#45;&gt;Node27 -->
<g id="edge26_Node000005_Node000027" class="edge">
<title>Node5&#45;&gt;Node27</title>
<g id="a_edge26_Node000005_Node000027"><a xlink:title=" ">
<path fill="none" stroke="#63b8ff" d="M1795.8,-116.45C1919.39,-111.33 2243.65,-96.78 2526.24,-73.97"/>
<polygon fill="#63b8ff" stroke="#63b8ff" points="2526.59,-77.46 2536.28,-73.16 2526.03,-70.48 2526.59,-77.46"/>
</a>
</g>
</g>
<!-- Node37 -->
<g id="Node000037" class="node">
<title>Node37</title>
<g id="a_Node000037"><a xlink:href="stdvarargs_8h.html" target="_top" xlink:title=" ">
<polygon fill="#fff0f0" stroke="red" points="2812,-74 2695,-74 2695,-55 2812,-55 2812,-74"/>
<text text-anchor="middle" x="2753.5" y="-62" font-family="Helvetica,sans-Serif" font-size="10.00">compat/stdvarargs.h</text>
</a>
</g>
</g>
<!-- Node5&#45;&gt;Node37 -->
<g id="edge33_Node000005_Node000037" class="edge">
<title>Node5&#45;&gt;Node37</title>
<g id="a_edge33_Node000005_Node000037"><a xlink:title=" ">
<path fill="none" stroke="#63b8ff" d="M1795.59,-117.47C1935.84,-114.34 2338.79,-103.37 2684.96,-73.97"/>
<polygon fill="#63b8ff" stroke="#63b8ff" points="2685.26,-77.45 2694.92,-73.11 2684.66,-70.48 2685.26,-77.45"/>
</a>
</g>
</g>
<!-- Node39 -->
<g id="Node000039" class="node">
<title>Node39</title>
<g id="a_Node000039"><a xlink:href="stdio_8h.html" target="_top" xlink:title=" ">
<polygon fill="#fff0f0" stroke="red" points="2919,-74 2830,-74 2830,-55 2919,-55 2919,-74"/>
<text text-anchor="middle" x="2874.5" y="-62" font-family="Helvetica,sans-Serif" font-size="10.00">compat/stdio.h</text>
</a>
</g>
</g>
<!-- Node5&#45;&gt;Node39 -->
<g id="edge34_Node000005_Node000039" class="edge">
<title>Node5&#45;&gt;Node39</title>
<g id="a_edge34_Node000005_Node000039"><a xlink:title=" ">
<path fill="none" stroke="#63b8ff" d="M1795.61,-118.46C1949.11,-117.92 2419.56,-113.01 2819.73,-73.94"/>
<polygon fill="#63b8ff" stroke="#63b8ff" points="2820.15,-77.41 2829.76,-72.95 2819.47,-70.44 2820.15,-77.41"/>
</a>
</g>
</g>
<!-- Node41 -->
<g id="Node000041" class="node">
<title>Node41</title>
<g id="a_Node000041"><a xlink:href="statvfs_8h.html" target="_top" xlink:title=" ">
<polygon fill="white" stroke="#666666" points="3036,-74 2937,-74 2937,-55 3036,-55 3036,-74"/>
<text text-anchor="middle" x="2986.5" y="-62" font-family="Helvetica,sans-Serif" font-size="10.00">compat/statvfs.h</text>
</a>
</g>
</g>
<!-- Node5&#45;&gt;Node41 -->
<g id="edge35_Node000005_Node000041" class="edge">
<title>Node5&#45;&gt;Node41</title>
<g id="a_edge35_Node000005_Node000041"><a xlink:title=" ">
<path fill="none" stroke="#63b8ff" d="M1795.64,-118.5C1958.96,-118.09 2482.74,-113.63 2926.82,-73.94"/>
<polygon fill="#63b8ff" stroke="#63b8ff" points="2927.32,-77.41 2936.97,-73.02 2926.7,-70.43 2927.32,-77.41"/>
</a>
</g>
</g>
<!-- Node42 -->
<g id="Node000042" class="node">
<title>Node42</title>
<g id="a_Node000042"><a xlink:href="debug_8h.html" target="_top" xlink:title=" ">
<polygon fill="white" stroke="#666666" points="3149,-74 3054,-74 3054,-55 3149,-55 3149,-74"/>
<text text-anchor="middle" x="3101.5" y="-62" font-family="Helvetica,sans-Serif" font-size="10.00">compat/debug.h</text>
</a>
</g>
</g>
<!-- Node5&#45;&gt;Node42 -->
<g id="edge36_Node000005_Node000042" class="edge">
<title>Node5&#45;&gt;Node42</title>
<g id="a_edge36_Node000005_Node000042"><a xlink:title=" ">
<path fill="none" stroke="#63b8ff" d="M1795.73,-118.84C1969.44,-119.54 2552.1,-118.28 3043.82,-73.92"/>
<polygon fill="#63b8ff" stroke="#63b8ff" points="3044.32,-77.39 3053.96,-73 3043.69,-70.42 3044.32,-77.39"/>
</a>
</g>
</g>
<!-- Node43 -->
<g id="Node000043" class="node">
<title>Node43</title>
<g id="a_Node000043"><a xlink:href="valgrind_8h.html" target="_top" xlink:title=" ">
<polygon fill="#fff0f0" stroke="red" points="3272,-74 3167,-74 3167,-55 3272,-55 3272,-74"/>
<text text-anchor="middle" x="3219.5" y="-62" font-family="Helvetica,sans-Serif" font-size="10.00">compat/valgrind.h</text>
</a>
</g>
</g>
<!-- Node5&#45;&gt;Node43 -->
<g id="edge37_Node000005_Node000043" class="edge">
<title>Node5&#45;&gt;Node43</title>
<g id="a_edge37_Node000005_Node000043"><a xlink:title=" ">
<path fill="none" stroke="#63b8ff" d="M1795.62,-118.82C1978.61,-119.56 2618.28,-118.65 3156.47,-73.97"/>
<polygon fill="#63b8ff" stroke="#63b8ff" points="3157.1,-77.43 3166.78,-73.11 3156.52,-70.46 3157.1,-77.43"/>
</a>
</g>
</g>
<!-- Node9 -->
<g id="Node000009" class="node">
<title>Node9</title>
<g id="a_Node000009"><a xlink:title=" ">
<polygon fill="#e0e0e0" stroke="#999999" points="324.5,-19 274.5,-19 274.5,0 324.5,0 324.5,-19"/>
<text text-anchor="middle" x="299.5" y="-7" font-family="Helvetica,sans-Serif" font-size="10.00">cstdint</text>
</a>
</g>
</g>
<!-- Node8&#45;&gt;Node9 -->
<g id="edge8_Node000008_Node000009" class="edge">
<title>Node8&#45;&gt;Node9</title>
<g id="a_edge8_Node000008_Node000009"><a xlink:title=" ">
<path fill="none" stroke="#63b8ff" d="M299.5,-54.75C299.5,-47.8 299.5,-37.85 299.5,-29.13"/>
<polygon fill="#63b8ff" stroke="#63b8ff" points="303,-29.09 299.5,-19.09 296,-29.09 303,-29.09"/>
</a>
</g>
</g>
<!-- Node28 -->
<g id="Node000028" class="node">
<title>Node28</title>
<g id="a_Node000028"><a xlink:title=" ">
<polygon fill="#e0e0e0" stroke="#999999" points="2379,-19 2328,-19 2328,0 2379,0 2379,-19"/>
<text text-anchor="middle" x="2353.5" y="-7" font-family="Helvetica,sans-Serif" font-size="10.00">csignal</text>
</a>
</g>
</g>
<!-- Node27&#45;&gt;Node28 -->
<g id="edge27_Node000027_Node000028" class="edge">
<title>Node27&#45;&gt;Node28</title>
<g id="a_edge27_Node000027_Node000028"><a xlink:title=" ">
<path fill="none" stroke="#63b8ff" d="M2561.5,-54.96C2519.3,-46.82 2454.22,-33.92 2389.11,-19.29"/>
<polygon fill="#63b8ff" stroke="#63b8ff" points="2389.62,-15.82 2379.09,-17.03 2388.07,-22.65 2389.62,-15.82"/>
</a>
</g>
</g>
<!-- Node29 -->
<g id="Node000029" class="node">
<title>Node29</title>
<g id="a_Node000029"><a xlink:href="xalloc_8h.html" target="_top" xlink:title=" ">
<polygon fill="white" stroke="#666666" points="2492,-19 2397,-19 2397,0 2492,0 2492,-19"/>
<text text-anchor="middle" x="2444.5" y="-7" font-family="Helvetica,sans-Serif" font-size="10.00">compat/xalloc.h</text>
</a>
</g>
</g>
<!-- Node27&#45;&gt;Node29 -->
<g id="edge28_Node000027_Node000029" class="edge">
<title>Node27&#45;&gt;Node29</title>
<g id="a_edge28_Node000027_Node000029"><a xlink:title=" ">
<path fill="none" stroke="#63b8ff" d="M2580.47,-54.98C2553.39,-46.13 2510.79,-32.19 2480.49,-22.28"/>
<polygon fill="#63b8ff" stroke="#63b8ff" points="2481.32,-18.87 2470.73,-19.08 2479.15,-25.52 2481.32,-18.87"/>
</a>
</g>
</g>
<!-- Node30 -->
<g id="Node000030" class="node">
<title>Node30</title>
<g id="a_Node000030"><a xlink:href="xis_8h.html" target="_top" xlink:title=" ">
<polygon fill="#fff0f0" stroke="red" points="2590.5,-19 2510.5,-19 2510.5,0 2590.5,0 2590.5,-19"/>
<text text-anchor="middle" x="2550.5" y="-7" font-family="Helvetica,sans-Serif" font-size="10.00">compat/xis.h</text>
</a>
</g>
</g>
<!-- Node27&#45;&gt;Node30 -->
<g id="edge29_Node000027_Node000030" class="edge">
<title>Node27&#45;&gt;Node30</title>
<g id="a_edge29_Node000027_Node000030"><a xlink:title=" ">
<path fill="none" stroke="#63b8ff" d="M2597.5,-54.98C2589.31,-47.23 2576.99,-35.58 2567.03,-26.14"/>
<polygon fill="#63b8ff" stroke="#63b8ff" points="2569.33,-23.5 2559.66,-19.17 2564.52,-28.59 2569.33,-23.5"/>
</a>
</g>
</g>
<!-- Node32 -->
<g id="Node000032" class="node">
<title>Node32</title>
<g id="a_Node000032"><a xlink:href="xstrerror_8h.html" target="_top" xlink:title=" ">
<polygon fill="white" stroke="#666666" points="2716,-19 2609,-19 2609,0 2716,0 2716,-19"/>
<text text-anchor="middle" x="2662.5" y="-7" font-family="Helvetica,sans-Serif" font-size="10.00">compat/xstrerror.h</text>
</a>
</g>
</g>
<!-- Node27&#45;&gt;Node32 -->
<g id="edge30_Node000027_Node000032" class="edge">
<title>Node27&#45;&gt;Node32</title>
<g id="a_edge30_Node000027_Node000032"><a xlink:title=" ">
<path fill="none" stroke="#63b8ff" d="M2615.5,-54.98C2623.69,-47.23 2636.01,-35.58 2645.97,-26.14"/>
<polygon fill="#63b8ff" stroke="#63b8ff" points="2648.48,-28.59 2653.34,-19.17 2643.67,-23.5 2648.48,-28.59"/>
</a>
</g>
</g>
<!-- Node33 -->
<g id="Node000033" class="node">
<title>Node33</title>
<g id="a_Node000033"><a xlink:href="xstring_8h.html" target="_top" xlink:title=" ">
<polygon fill="white" stroke="#666666" points="2833,-19 2734,-19 2734,0 2833,0 2833,-19"/>
<text text-anchor="middle" x="2783.5" y="-7" font-family="Helvetica,sans-Serif" font-size="10.00">compat/xstring.h</text>
</a>
</g>
</g>
<!-- Node27&#45;&gt;Node33 -->
<g id="edge31_Node000027_Node000033" class="edge">
<title>Node27&#45;&gt;Node33</title>
<g id="a_edge31_Node000027_Node000033"><a xlink:title=" ">
<path fill="none" stroke="#63b8ff" d="M2634.94,-54.98C2664.78,-46.05 2711.88,-31.94 2745.03,-22.02"/>
<polygon fill="#63b8ff" stroke="#63b8ff" points="2746.26,-25.3 2754.84,-19.08 2744.26,-18.6 2746.26,-25.3"/>
</a>
</g>
</g>
<!-- Node34 -->
<g id="Node000034" class="node">
<title>Node34</title>
<g id="a_Node000034"><a xlink:href="xstrto_8h.html" target="_top" xlink:title=" ">
<polygon fill="white" stroke="#666666" points="2945.5,-19 2851.5,-19 2851.5,0 2945.5,0 2945.5,-19"/>
<text text-anchor="middle" x="2898.5" y="-7" font-family="Helvetica,sans-Serif" font-size="10.00">compat/xstrto.h</text>
</a>
</g>
</g>
<!-- Node27&#45;&gt;Node34 -->
<g id="edge32_Node000027_Node000034" class="edge">
<title>Node27&#45;&gt;Node34</title>
<g id="a_edge32_Node000027_Node000034"><a xlink:title=" ">
<path fill="none" stroke="#63b8ff" d="M2653.41,-54.98C2704.56,-45.7 2786.42,-30.84 2841.3,-20.88"/>
<polygon fill="#63b8ff" stroke="#63b8ff" points="2842,-24.31 2851.22,-19.08 2840.75,-17.42 2842,-24.31"/>
</a>
</g>
</g>
<!-- Node46 -->
<g id="Node000046" class="node">
<title>Node46</title>
<g id="a_Node000046"><a xlink:href="acl_2forward_8h.html" target="_top" xlink:title=" ">
<polygon fill="white" stroke="#666666" points="3378.5,-129 3298.5,-129 3298.5,-110 3378.5,-110 3378.5,-129"/>
<text text-anchor="middle" x="3338.5" y="-117" font-family="Helvetica,sans-Serif" font-size="10.00">acl/forward.h</text>
</a>
</g>
</g>
<!-- Node45&#45;&gt;Node46 -->
<g id="edge39_Node000045_Node000046" class="edge">
<title>Node45&#45;&gt;Node46</title>
<g id="a_edge39_Node000045_Node000046"><a xlink:title=" ">
<path fill="none" stroke="#63b8ff" d="M3298.43,-164.75C3305.35,-157.11 3315.57,-145.82 3323.95,-136.56"/>
<polygon fill="#63b8ff" stroke="#63b8ff" points="3326.6,-138.85 3330.72,-129.09 3321.41,-134.15 3326.6,-138.85"/>
</a>
</g>
</g>
<!-- Node51 -->
<g id="Node000051" class="node">
<title>Node51</title>
<g id="a_Node000051"><a xlink:href="cbdata_8h.html" target="_top" xlink:title=" ">
<polygon fill="white" stroke="#666666" points="3280,-129 3221,-129 3221,-110 3280,-110 3280,-129"/>
<text text-anchor="middle" x="3250.5" y="-117" font-family="Helvetica,sans-Serif" font-size="10.00">cbdata.h</text>
</a>
</g>
</g>
<!-- Node45&#45;&gt;Node51 -->
<g id="edge41_Node000045_Node000051" class="edge">
<title>Node45&#45;&gt;Node51</title>
<g id="a_edge41_Node000045_Node000051"><a xlink:title=" ">
<path fill="none" stroke="#63b8ff" d="M3283.89,-164.75C3278.24,-157.26 3269.96,-146.28 3263.05,-137.13"/>
<polygon fill="#63b8ff" stroke="#63b8ff" points="3265.8,-134.96 3256.98,-129.09 3260.21,-139.18 3265.8,-134.96"/>
</a>
</g>
</g>
<!-- Node47 -->
<g id="Node000047" class="node">
<title>Node47</title>
<g id="a_Node000047"><a xlink:href="RefCount_8h.html" target="_top" xlink:title=" ">
<polygon fill="#fff0f0" stroke="red" points="3387,-74 3290,-74 3290,-55 3387,-55 3387,-74"/>
<text text-anchor="middle" x="3338.5" y="-62" font-family="Helvetica,sans-Serif" font-size="10.00">base/RefCount.h</text>
</a>
</g>
</g>
<!-- Node46&#45;&gt;Node47 -->
<g id="edge40_Node000046_Node000047" class="edge">
<title>Node46&#45;&gt;Node47</title>
<g id="a_edge40_Node000046_Node000047"><a xlink:title=" ">
<path fill="none" stroke="#63b8ff" d="M3338.5,-109.75C3338.5,-102.8 3338.5,-92.85 3338.5,-84.13"/>
<polygon fill="#63b8ff" stroke="#63b8ff" points="3342,-84.09 3338.5,-74.09 3335,-84.09 3342,-84.09"/>
</a>
</g>
</g>
<!-- Node52&#45;&gt;Node46 -->
<g id="edge43_Node000052_Node000046" class="edge">
<title>Node52&#45;&gt;Node46</title>
<g id="a_edge43_Node000052_Node000046"><a xlink:title=" ">
<path fill="none" stroke="#63b8ff" d="M3469.44,-164.98C3443.47,-156.16 3402.69,-142.31 3373.54,-132.41"/>
<polygon fill="#63b8ff" stroke="#63b8ff" points="3374.35,-128.99 3363.76,-129.08 3372.1,-135.61 3374.35,-128.99"/>
</a>
</g>
</g>
<!-- Node53 -->
<g id="Node000053" class="node">
<title>Node53</title>
<g id="a_Node000053"><a xlink:href="error_2forward_8h.html" target="_top" xlink:title=" ">
<polygon fill="white" stroke="#666666" points="3486,-129 3397,-129 3397,-110 3486,-110 3486,-129"/>
<text text-anchor="middle" x="3441.5" y="-117" font-family="Helvetica,sans-Serif" font-size="10.00">error/forward.h</text>
</a>
</g>
</g>
<!-- Node52&#45;&gt;Node53 -->
<g id="edge44_Node000052_Node000053" class="edge">
<title>Node52&#45;&gt;Node53</title>
<g id="a_edge44_Node000052_Node000053"><a xlink:title=" ">
<path fill="none" stroke="#63b8ff" d="M3485.75,-164.75C3478.03,-157.03 3466.6,-145.6 3457.28,-136.28"/>
<polygon fill="#63b8ff" stroke="#63b8ff" points="3459.64,-133.69 3450.09,-129.09 3454.69,-138.64 3459.64,-133.69"/>
</a>
</g>
</g>
<!-- Node55 -->
<g id="Node000055" class="node">
<title>Node55</title>
<g id="a_Node000055"><a xlink:href="sbuf_2forward_8h.html" target="_top" xlink:title=" ">
<polygon fill="white" stroke="#666666" points="3591,-129 3504,-129 3504,-110 3591,-110 3591,-129"/>
<text text-anchor="middle" x="3547.5" y="-117" font-family="Helvetica,sans-Serif" font-size="10.00">sbuf/forward.h</text>
</a>
</g>
</g>
<!-- Node52&#45;&gt;Node55 -->
<g id="edge46_Node000052_Node000055" class="edge">
<title>Node52&#45;&gt;Node55</title>
<g id="a_edge46_Node000052_Node000055"><a xlink:title=" ">
<path fill="none" stroke="#63b8ff" d="M3503.25,-164.75C3510.97,-157.03 3522.4,-145.6 3531.72,-136.28"/>
<polygon fill="#63b8ff" stroke="#63b8ff" points="3534.31,-138.64 3538.91,-129.09 3529.36,-133.69 3534.31,-138.64"/>
</a>
</g>
</g>
<!-- Node58 -->
<g id="Node000058" class="node">
<title>Node58</title>
<g id="a_Node000058"><a xlink:title=" ">
<polygon fill="#e0e0e0" stroke="#999999" points="3665.5,-129 3609.5,-129 3609.5,-110 3665.5,-110 3665.5,-129"/>
<text text-anchor="middle" x="3637.5" y="-117" font-family="Helvetica,sans-Serif" font-size="10.00">optional</text>
</a>
</g>
</g>
<!-- Node52&#45;&gt;Node58 -->
<g id="edge49_Node000052_Node000058" class="edge">
<title>Node52&#45;&gt;Node58</title>
<g id="a_edge49_Node000052_Node000058"><a xlink:title=" ">
<path fill="none" stroke="#63b8ff" d="M3517.48,-164.98C3541,-156.27 3577.79,-142.63 3604.44,-132.75"/>
<polygon fill="#63b8ff" stroke="#63b8ff" points="3605.95,-135.93 3614.11,-129.17 3603.51,-129.36 3605.95,-135.93"/>
</a>
</g>
</g>
<!-- Node59 -->
<g id="Node000059" class="node">
<title>Node59</title>
<g id="a_Node000059"><a xlink:title=" ">
<polygon fill="#e0e0e0" stroke="#999999" points="3739.5,-129 3683.5,-129 3683.5,-110 3739.5,-110 3739.5,-129"/>
<text text-anchor="middle" x="3711.5" y="-117" font-family="Helvetica,sans-Serif" font-size="10.00">sstream</text>
</a>
</g>
</g>
<!-- Node52&#45;&gt;Node59 -->
<g id="edge50_Node000052_Node000059" class="edge">
<title>Node52&#45;&gt;Node59</title>
<g id="a_edge50_Node000052_Node000059"><a xlink:title=" ">
<path fill="none" stroke="#63b8ff" d="M3529.36,-164.98C3568.79,-155.35 3632.79,-139.72 3673.48,-129.79"/>
<polygon fill="#63b8ff" stroke="#63b8ff" points="3674.41,-133.16 3683.29,-127.39 3672.74,-126.36 3674.41,-133.16"/>
</a>
</g>
</g>
<!-- Node54 -->
<g id="Node000054" class="node">
<title>Node54</title>
<g id="a_Node000054"><a xlink:href="base_2forward_8h.html" target="_top" xlink:title=" ">
<polygon fill="white" stroke="#666666" points="3494,-74 3405,-74 3405,-55 3494,-55 3494,-74"/>
<text text-anchor="middle" x="3449.5" y="-62" font-family="Helvetica,sans-Serif" font-size="10.00">base/forward.h</text>
</a>
</g>
</g>
<!-- Node53&#45;&gt;Node54 -->
<g id="edge45_Node000053_Node000054" class="edge">
<title>Node53&#45;&gt;Node54</title>
<g id="a_edge45_Node000053_Node000054"><a xlink:title=" ">
<path fill="none" stroke="#63b8ff" d="M3442.82,-109.75C3443.87,-102.8 3445.37,-92.85 3446.69,-84.13"/>
<polygon fill="#63b8ff" stroke="#63b8ff" points="3450.17,-84.5 3448.2,-74.09 3443.25,-83.45 3450.17,-84.5"/>
</a>
</g>
</g>
<!-- Node56 -->
<g id="Node000056" class="node">
<title>Node56</title>
<g id="a_Node000056"><a xlink:title=" ">
<polygon fill="#e0e0e0" stroke="#999999" points="3579,-74 3514,-74 3514,-55 3579,-55 3579,-74"/>
<text text-anchor="middle" x="3546.5" y="-62" font-family="Helvetica,sans-Serif" font-size="10.00">functional</text>
</a>
</g>
</g>
<!-- Node55&#45;&gt;Node56 -->
<g id="edge47_Node000055_Node000056" class="edge">
<title>Node55&#45;&gt;Node56</title>
<g id="a_edge47_Node000055_Node000056"><a xlink:title=" ">
<path fill="none" stroke="#63b8ff" d="M3547.33,-109.75C3547.2,-102.8 3547.02,-92.85 3546.85,-84.13"/>
<polygon fill="#63b8ff" stroke="#63b8ff" points="3550.35,-84.02 3546.66,-74.09 3543.35,-84.15 3550.35,-84.02"/>
</a>
</g>
</g>
<!-- Node57 -->
<g id="Node000057" class="node">
<title>Node57</title>
<g id="a_Node000057"><a xlink:title=" ">
<polygon fill="#e0e0e0" stroke="#999999" points="3629.5,-74 3597.5,-74 3597.5,-55 3629.5,-55 3629.5,-74"/>
<text text-anchor="middle" x="3613.5" y="-62" font-family="Helvetica,sans-Serif" font-size="10.00">list</text>
</a>
</g>
</g>
<!-- Node55&#45;&gt;Node57 -->
<g id="edge48_Node000055_Node000057" class="edge">
<title>Node55&#45;&gt;Node57</title>
<g id="a_edge48_Node000055_Node000057"><a xlink:title=" ">
<path fill="none" stroke="#63b8ff" d="M3558.1,-109.98C3567.96,-102.07 3582.85,-90.11 3594.72,-80.58"/>
<polygon fill="#63b8ff" stroke="#63b8ff" points="3597.1,-83.16 3602.7,-74.17 3592.71,-77.7 3597.1,-83.16"/>
</a>
</g>
</g>
</g>
</svg>
