<?xml version="1.0" encoding="UTF-8" standalone="no"?>
<!DOCTYPE svg PUBLIC "-//W3C//DTD SVG 1.1//EN"
 "http://www.w3.org/Graphics/SVG/1.1/DTD/svg11.dtd">
<!-- Generated by graphviz version 2.43.0 (0)
 -->
<!-- Title: squid/src/adaptation/ecap/Config.h Pages: 1 -->
<svg width="801pt" height="104pt"
 viewBox="0.00 0.00 800.50 104.00" xmlns="http://www.w3.org/2000/svg" xmlns:xlink="http://www.w3.org/1999/xlink">
<g id="graph0" class="graph" transform="scale(1 1) rotate(0) translate(4 100)">
<title>squid/src/adaptation/ecap/Config.h</title>
<!-- Node1 -->
<g id="Node000001" class="node">
<title>Node1</title>
<g id="a_Node000001"><a xlink:title=" ">
<polygon fill="#999999" stroke="#666666" points="469,-96 353,-96 353,-66 469,-66 469,-96"/>
<text text-anchor="start" x="361" y="-84" font-family="Helvetica,sans-Serif" font-size="10.00">squid/src/adaptation</text>
<text text-anchor="middle" x="411" y="-73" font-family="Helvetica,sans-Serif" font-size="10.00">/ecap/Config.h</text>
</a>
</g>
</g>
<!-- Node2 -->
<g id="Node000002" class="node">
<title>Node2</title>
<g id="a_Node000002"><a xlink:href="AdaptationServiceData_8cc.html" target="_top" xlink:title=" ">
<polygon fill="white" stroke="#666666" points="134,-30 0,-30 0,0 134,0 134,-30"/>
<text text-anchor="start" x="8" y="-18" font-family="Helvetica,sans-Serif" font-size="10.00">squid/src/acl/Adaptation</text>
<text text-anchor="middle" x="67" y="-7" font-family="Helvetica,sans-Serif" font-size="10.00">ServiceData.cc</text>
</a>
</g>
</g>
<!-- Node1&#45;&gt;Node2 -->
<g id="edge1_Node000001_Node000002" class="edge">
<title>Node1&#45;&gt;Node2</title>
<g id="a_edge1_Node000001_Node000002"><a xlink:title=" ">
<path fill="none" stroke="#63b8ff" d="M342.8,-67.31C282.3,-56.06 194.41,-39.7 134.2,-28.5"/>
<polygon fill="#63b8ff" stroke="#63b8ff" points="342.17,-70.76 352.65,-69.14 343.45,-63.87 342.17,-70.76"/>
</a>
</g>
</g>
<!-- Node3 -->
<g id="Node000003" class="node">
<title>Node3</title>
<g id="a_Node000003"><a xlink:href="adaptation_2ecap_2Config_8cc.html" target="_top" xlink:title=" ">
<polygon fill="white" stroke="#666666" points="268,-30 152,-30 152,0 268,0 268,-30"/>
<text text-anchor="start" x="160" y="-18" font-family="Helvetica,sans-Serif" font-size="10.00">squid/src/adaptation</text>
<text text-anchor="middle" x="210" y="-7" font-family="Helvetica,sans-Serif" font-size="10.00">/ecap/Config.cc</text>
</a>
</g>
</g>
<!-- Node1&#45;&gt;Node3 -->
<g id="edge2_Node000001_Node000003" class="edge">
<title>Node1&#45;&gt;Node3</title>
<g id="a_edge2_Node000001_Node000003"><a xlink:title=" ">
<path fill="none" stroke="#63b8ff" d="M357.16,-62.86C324.88,-52.58 284.36,-39.68 254.01,-30.01"/>
<polygon fill="#63b8ff" stroke="#63b8ff" points="356.3,-66.26 366.89,-65.95 358.42,-59.59 356.3,-66.26"/>
</a>
</g>
</g>
<!-- Node4 -->
<g id="Node000004" class="node">
<title>Node4</title>
<g id="a_Node000004"><a xlink:href="ecap_2ServiceRep_8cc.html" target="_top" xlink:title=" ">
<polygon fill="white" stroke="#666666" points="402,-30 286,-30 286,0 402,0 402,-30"/>
<text text-anchor="start" x="294" y="-18" font-family="Helvetica,sans-Serif" font-size="10.00">squid/src/adaptation</text>
<text text-anchor="middle" x="344" y="-7" font-family="Helvetica,sans-Serif" font-size="10.00">/ecap/ServiceRep.cc</text>
</a>
</g>
</g>
<!-- Node1&#45;&gt;Node4 -->
<g id="edge3_Node000001_Node000004" class="edge">
<title>Node1&#45;&gt;Node4</title>
<g id="a_edge3_Node000001_Node000004"><a xlink:title=" ">
<path fill="none" stroke="#63b8ff" d="M388.65,-58.65C378.83,-49.27 367.58,-38.53 358.83,-30.16"/>
<polygon fill="#63b8ff" stroke="#63b8ff" points="386.48,-61.42 396.13,-65.8 391.32,-56.36 386.48,-61.42"/>
</a>
</g>
</g>
<!-- Node5 -->
<g id="Node000005" class="node">
<title>Node5</title>
<g id="a_Node000005"><a xlink:href="XactionRep_8cc.html" target="_top" xlink:title=" ">
<polygon fill="white" stroke="#666666" points="536,-30 420,-30 420,0 536,0 536,-30"/>
<text text-anchor="start" x="428" y="-18" font-family="Helvetica,sans-Serif" font-size="10.00">squid/src/adaptation</text>
<text text-anchor="middle" x="478" y="-7" font-family="Helvetica,sans-Serif" font-size="10.00">/ecap/XactionRep.cc</text>
</a>
</g>
</g>
<!-- Node1&#45;&gt;Node5 -->
<g id="edge4_Node000001_Node000005" class="edge">
<title>Node1&#45;&gt;Node5</title>
<g id="a_edge4_Node000001_Node000005"><a xlink:title=" ">
<path fill="none" stroke="#63b8ff" d="M433.35,-58.65C443.17,-49.27 454.42,-38.53 463.17,-30.16"/>
<polygon fill="#63b8ff" stroke="#63b8ff" points="430.68,-56.36 425.87,-65.8 435.52,-61.42 430.68,-56.36"/>
</a>
</g>
</g>
<!-- Node6 -->
<g id="Node000006" class="node">
<title>Node6</title>
<g id="a_Node000006"><a xlink:href="cache__cf_8cc.html" target="_top" xlink:title=" ">
<polygon fill="white" stroke="#666666" points="673.5,-24.5 554.5,-24.5 554.5,-5.5 673.5,-5.5 673.5,-24.5"/>
<text text-anchor="middle" x="614" y="-12.5" font-family="Helvetica,sans-Serif" font-size="10.00">squid/src/cache_cf.cc</text>
</a>
</g>
</g>
<!-- Node1&#45;&gt;Node6 -->
<g id="edge5_Node000001_Node000006" class="edge">
<title>Node1&#45;&gt;Node6</title>
<g id="a_edge5_Node000001_Node000006"><a xlink:title=" ">
<path fill="none" stroke="#63b8ff" d="M465.26,-62.89C504.57,-50.5 556.05,-34.27 586.98,-24.52"/>
<polygon fill="#63b8ff" stroke="#63b8ff" points="464.03,-59.61 455.55,-65.95 466.14,-66.29 464.03,-59.61"/>
</a>
</g>
</g>
<!-- Node7 -->
<g id="Node000007" class="node">
<title>Node7</title>
<g id="a_Node000007"><a xlink:href="main_8cc.html" target="_top" xlink:title=" ">
<polygon fill="white" stroke="#666666" points="792.5,-24.5 691.5,-24.5 691.5,-5.5 792.5,-5.5 792.5,-24.5"/>
<text text-anchor="middle" x="742" y="-12.5" font-family="Helvetica,sans-Serif" font-size="10.00">squid/src/main.cc</text>
</a>
</g>
</g>
<!-- Node1&#45;&gt;Node7 -->
<g id="edge6_Node000001_Node000007" class="edge">
<title>Node1&#45;&gt;Node7</title>
<g id="a_edge6_Node000001_Node000007"><a xlink:title=" ">
<path fill="none" stroke="#63b8ff" d="M479.01,-68.49C534.14,-58.93 613.78,-44.57 683,-30 690.93,-28.33 699.43,-26.4 707.44,-24.51"/>
<polygon fill="#63b8ff" stroke="#63b8ff" points="478.26,-65.07 469,-70.22 479.45,-71.97 478.26,-65.07"/>
</a>
</g>
</g>
</g>
</svg>
