<?xml version="1.0" encoding="UTF-8" standalone="no"?>
<!DOCTYPE svg PUBLIC "-//W3C//DTD SVG 1.1//EN"
 "http://www.w3.org/Graphics/SVG/1.1/DTD/svg11.dtd">
<!-- Generated by graphviz version 2.43.0 (0)
 -->
<!-- Title: squid/src/adaptation/Message.cc Pages: 1 -->
<svg width="4084pt" height="368pt"
 viewBox="0.00 0.00 4083.50 368.00" xmlns="http://www.w3.org/2000/svg" xmlns:xlink="http://www.w3.org/1999/xlink">
<g id="graph0" class="graph" transform="scale(1 1) rotate(0) translate(4 364)">
<title>squid/src/adaptation/Message.cc</title>
<!-- Node1 -->
<g id="Node000001" class="node">
<title>Node1</title>
<g id="a_Node000001"><a xlink:title=" ">
<polygon fill="#999999" stroke="#666666" points="3385.5,-360 3269.5,-360 3269.5,-330 3385.5,-330 3385.5,-360"/>
<text text-anchor="start" x="3277.5" y="-348" font-family="Helvetica,sans-Serif" font-size="10.00">squid/src/adaptation</text>
<text text-anchor="middle" x="3327.5" y="-337" font-family="Helvetica,sans-Serif" font-size="10.00">/Message.cc</text>
</a>
</g>
</g>
<!-- Node2 -->
<g id="Node000002" class="node">
<title>Node2</title>
<g id="a_Node000002"><a xlink:href="squid_8h.html" target="_top" xlink:title=" ">
<polygon fill="white" stroke="#666666" points="1562.5,-294 1510.5,-294 1510.5,-275 1562.5,-275 1562.5,-294"/>
<text text-anchor="middle" x="1536.5" y="-282" font-family="Helvetica,sans-Serif" font-size="10.00">squid.h</text>
</a>
</g>
</g>
<!-- Node1&#45;&gt;Node2 -->
<g id="edge1_Node000001_Node000002" class="edge">
<title>Node1&#45;&gt;Node2</title>
<g id="a_edge1_Node000001_Node000002"><a xlink:title=" ">
<path fill="none" stroke="#63b8ff" d="M3269.43,-342.1C2991.01,-333.01 1796.96,-294.01 1572.84,-286.69"/>
<polygon fill="#63b8ff" stroke="#63b8ff" points="1572.72,-283.18 1562.61,-286.35 1572.49,-290.18 1572.72,-283.18"/>
</a>
</g>
</g>
<!-- Node44 -->
<g id="Node000044" class="node">
<title>Node44</title>
<g id="a_Node000044"><a xlink:href="adaptation_2Message_8h.html" target="_top" xlink:title=" ">
<polygon fill="white" stroke="#666666" points="3390,-294 3265,-294 3265,-275 3390,-275 3390,-294"/>
<text text-anchor="middle" x="3327.5" y="-282" font-family="Helvetica,sans-Serif" font-size="10.00">adaptation/Message.h</text>
</a>
</g>
</g>
<!-- Node1&#45;&gt;Node44 -->
<g id="edge30_Node000001_Node000044" class="edge">
<title>Node1&#45;&gt;Node44</title>
<g id="a_edge30_Node000001_Node000044"><a xlink:title=" ">
<path fill="none" stroke="#63b8ff" d="M3327.5,-329.84C3327.5,-322.21 3327.5,-312.7 3327.5,-304.45"/>
<polygon fill="#63b8ff" stroke="#63b8ff" points="3331,-304.27 3327.5,-294.27 3324,-304.27 3331,-304.27"/>
</a>
</g>
</g>
<!-- Node55 -->
<g id="Node000055" class="node">
<title>Node55</title>
<g id="a_Node000055"><a xlink:href="TextException_8h.html" target="_top" xlink:title=" ">
<polygon fill="white" stroke="#666666" points="3462.5,-129 3342.5,-129 3342.5,-110 3462.5,-110 3462.5,-129"/>
<text text-anchor="middle" x="3402.5" y="-117" font-family="Helvetica,sans-Serif" font-size="10.00">base/TextException.h</text>
</a>
</g>
</g>
<!-- Node1&#45;&gt;Node55 -->
<g id="edge36_Node000001_Node000055" class="edge">
<title>Node1&#45;&gt;Node55</title>
<g id="a_edge36_Node000001_Node000055"><a xlink:title=" ">
<path fill="none" stroke="#63b8ff" d="M3299.14,-329.99C3269.03,-313.21 3223.59,-281.9 3207.5,-239 3195.95,-208.21 3186.99,-190.71 3207.5,-165 3223.1,-145.44 3282.9,-133.8 3332.21,-127.37"/>
<polygon fill="#63b8ff" stroke="#63b8ff" points="3332.75,-130.83 3342.24,-126.11 3331.88,-123.88 3332.75,-130.83"/>
</a>
</g>
</g>
<!-- Node60 -->
<g id="Node000060" class="node">
<title>Node60</title>
<g id="a_Node000060"><a xlink:href="BodyPipe_8h.html" target="_top" xlink:title=" ">
<polygon fill="white" stroke="#666666" points="3508,-239 3437,-239 3437,-220 3508,-220 3508,-239"/>
<text text-anchor="middle" x="3472.5" y="-227" font-family="Helvetica,sans-Serif" font-size="10.00">BodyPipe.h</text>
</a>
</g>
</g>
<!-- Node1&#45;&gt;Node60 -->
<g id="edge41_Node000001_Node000060" class="edge">
<title>Node1&#45;&gt;Node60</title>
<g id="a_edge41_Node000001_Node000060"><a xlink:title=" ">
<path fill="none" stroke="#63b8ff" d="M3348.7,-329.86C3363.01,-320.11 3382.2,-306.69 3398.5,-294 3418.6,-278.35 3440.64,-259.16 3455.39,-246"/>
<polygon fill="#63b8ff" stroke="#63b8ff" points="3458.06,-248.3 3463.16,-239.02 3453.39,-243.1 3458.06,-248.3"/>
</a>
</g>
</g>
<!-- Node79 -->
<g id="Node000079" class="node">
<title>Node79</title>
<g id="a_Node000079"><a xlink:href="http_2Message_8h.html" target="_top" xlink:title=" ">
<polygon fill="white" stroke="#666666" points="3735.5,-294 3643.5,-294 3643.5,-275 3735.5,-275 3735.5,-294"/>
<text text-anchor="middle" x="3689.5" y="-282" font-family="Helvetica,sans-Serif" font-size="10.00">http/Message.h</text>
</a>
</g>
</g>
<!-- Node1&#45;&gt;Node79 -->
<g id="edge46_Node000001_Node000079" class="edge">
<title>Node1&#45;&gt;Node79</title>
<g id="a_edge46_Node000001_Node000079"><a xlink:title=" ">
<path fill="none" stroke="#63b8ff" d="M3385.66,-334.6C3453.81,-323.59 3565.96,-305.46 3633.27,-294.59"/>
<polygon fill="#63b8ff" stroke="#63b8ff" points="3633.95,-298.02 3643.27,-292.97 3632.84,-291.11 3633.95,-298.02"/>
</a>
</g>
</g>
<!-- Node3 -->
<g id="Node000003" class="node">
<title>Node3</title>
<g id="a_Node000003"><a xlink:href="autoconf_8h.html" target="_top" xlink:title=" ">
<polygon fill="white" stroke="#666666" points="1437.5,-239 1369.5,-239 1369.5,-220 1437.5,-220 1437.5,-239"/>
<text text-anchor="middle" x="1403.5" y="-227" font-family="Helvetica,sans-Serif" font-size="10.00">autoconf.h</text>
</a>
</g>
</g>
<!-- Node2&#45;&gt;Node3 -->
<g id="edge2_Node000002_Node000003" class="edge">
<title>Node2&#45;&gt;Node3</title>
<g id="a_edge2_Node000002_Node000003"><a xlink:title=" ">
<path fill="none" stroke="#63b8ff" d="M1515.13,-274.98C1493.35,-266.3 1459.34,-252.75 1434.58,-242.88"/>
<polygon fill="#63b8ff" stroke="#63b8ff" points="1435.84,-239.62 1425.26,-239.17 1433.25,-246.12 1435.84,-239.62"/>
</a>
</g>
</g>
<!-- Node4 -->
<g id="Node000004" class="node">
<title>Node4</title>
<g id="a_Node000004"><a xlink:href="version_8h.html" target="_top" xlink:title=" ">
<polygon fill="white" stroke="#666666" points="1517.5,-239 1455.5,-239 1455.5,-220 1517.5,-220 1517.5,-239"/>
<text text-anchor="middle" x="1486.5" y="-227" font-family="Helvetica,sans-Serif" font-size="10.00">version.h</text>
</a>
</g>
</g>
<!-- Node2&#45;&gt;Node4 -->
<g id="edge3_Node000002_Node000004" class="edge">
<title>Node2&#45;&gt;Node4</title>
<g id="a_edge3_Node000002_Node000004"><a xlink:title=" ">
<path fill="none" stroke="#63b8ff" d="M1528.24,-274.75C1521.04,-267.11 1510.39,-255.82 1501.65,-246.56"/>
<polygon fill="#63b8ff" stroke="#63b8ff" points="1504.01,-243.96 1494.6,-239.09 1498.92,-248.76 1504.01,-243.96"/>
</a>
</g>
</g>
<!-- Node5 -->
<g id="Node000005" class="node">
<title>Node5</title>
<g id="a_Node000005"><a xlink:href="compat_8h.html" target="_top" xlink:title=" ">
<polygon fill="white" stroke="#666666" points="1637.5,-239 1535.5,-239 1535.5,-220 1637.5,-220 1637.5,-239"/>
<text text-anchor="middle" x="1586.5" y="-227" font-family="Helvetica,sans-Serif" font-size="10.00">compat/compat.h</text>
</a>
</g>
</g>
<!-- Node2&#45;&gt;Node5 -->
<g id="edge4_Node000002_Node000005" class="edge">
<title>Node2&#45;&gt;Node5</title>
<g id="a_edge4_Node000002_Node000005"><a xlink:title=" ">
<path fill="none" stroke="#63b8ff" d="M1544.76,-274.75C1551.96,-267.11 1562.61,-255.82 1571.35,-246.56"/>
<polygon fill="#63b8ff" stroke="#63b8ff" points="1574.08,-248.76 1578.4,-239.09 1568.99,-243.96 1574.08,-248.76"/>
</a>
</g>
</g>
<!-- Node6 -->
<g id="Node000006" class="node">
<title>Node6</title>
<g id="a_Node000006"><a xlink:href="osdetect_8h.html" target="_top" xlink:title=" ">
<polygon fill="white" stroke="#666666" points="567,-184 460,-184 460,-165 567,-165 567,-184"/>
<text text-anchor="middle" x="513.5" y="-172" font-family="Helvetica,sans-Serif" font-size="10.00">compat/osdetect.h</text>
</a>
</g>
</g>
<!-- Node5&#45;&gt;Node6 -->
<g id="edge5_Node000005_Node000006" class="edge">
<title>Node5&#45;&gt;Node6</title>
<g id="a_edge5_Node000005_Node000006"><a xlink:title=" ">
<path fill="none" stroke="#63b8ff" d="M1535.48,-220.91C1532.44,-220.57 1529.43,-220.26 1526.5,-220 1108.95,-182.61 999.17,-219.7 577.11,-183.94"/>
<polygon fill="#63b8ff" stroke="#63b8ff" points="577.34,-180.45 567.08,-183.09 576.74,-187.43 577.34,-180.45"/>
</a>
</g>
</g>
<!-- Node7 -->
<g id="Node000007" class="node">
<title>Node7</title>
<g id="a_Node000007"><a xlink:href="fdsetsize_8h.html" target="_top" xlink:title=" ">
<polygon fill="white" stroke="#666666" points="695.5,-184 585.5,-184 585.5,-165 695.5,-165 695.5,-184"/>
<text text-anchor="middle" x="640.5" y="-172" font-family="Helvetica,sans-Serif" font-size="10.00">compat/fdsetsize.h</text>
</a>
</g>
</g>
<!-- Node5&#45;&gt;Node7 -->
<g id="edge6_Node000005_Node000007" class="edge">
<title>Node5&#45;&gt;Node7</title>
<g id="a_edge6_Node000005_Node000007"><a xlink:title=" ">
<path fill="none" stroke="#63b8ff" d="M1535.48,-220.93C1532.44,-220.59 1529.43,-220.27 1526.5,-220 1165.66,-186.62 1070.48,-215.57 705.67,-184.01"/>
<polygon fill="#63b8ff" stroke="#63b8ff" points="705.89,-180.52 695.62,-183.14 705.28,-187.49 705.89,-180.52"/>
</a>
</g>
</g>
<!-- Node8 -->
<g id="Node000008" class="node">
<title>Node8</title>
<g id="a_Node000008"><a xlink:href="types_8h.html" target="_top" xlink:title=" ">
<polygon fill="#fff0f0" stroke="red" points="805.5,-184 713.5,-184 713.5,-165 805.5,-165 805.5,-184"/>
<text text-anchor="middle" x="759.5" y="-172" font-family="Helvetica,sans-Serif" font-size="10.00">compat/types.h</text>
</a>
</g>
</g>
<!-- Node5&#45;&gt;Node8 -->
<g id="edge7_Node000005_Node000008" class="edge">
<title>Node5&#45;&gt;Node8</title>
<g id="a_edge7_Node000005_Node000008"><a xlink:title=" ">
<path fill="none" stroke="#63b8ff" d="M1535.47,-220.95C1532.44,-220.6 1529.43,-220.28 1526.5,-220 1214.49,-190.07 1131.48,-215.68 816.03,-184.04"/>
<polygon fill="#63b8ff" stroke="#63b8ff" points="815.97,-180.51 805.67,-182.99 815.26,-187.48 815.97,-180.51"/>
</a>
</g>
</g>
<!-- Node10 -->
<g id="Node000010" class="node">
<title>Node10</title>
<g id="a_Node000010"><a xlink:href="aix_8h.html" target="_top" xlink:title=" ">
<polygon fill="white" stroke="#666666" points="919,-184 824,-184 824,-165 919,-165 919,-184"/>
<text text-anchor="middle" x="871.5" y="-172" font-family="Helvetica,sans-Serif" font-size="10.00">compat/os/aix.h</text>
</a>
</g>
</g>
<!-- Node5&#45;&gt;Node10 -->
<g id="edge8_Node000005_Node000010" class="edge">
<title>Node5&#45;&gt;Node10</title>
<g id="a_edge8_Node000005_Node000010"><a xlink:title=" ">
<path fill="none" stroke="#63b8ff" d="M1535.47,-220.99C1532.44,-220.63 1529.43,-220.3 1526.5,-220 1264.82,-193.63 1195.01,-211.22 929,-183.94"/>
<polygon fill="#63b8ff" stroke="#63b8ff" points="929.35,-180.46 919.05,-182.91 928.63,-187.42 929.35,-180.46"/>
</a>
</g>
</g>
<!-- Node11 -->
<g id="Node000011" class="node">
<title>Node11</title>
<g id="a_Node000011"><a xlink:href="android_8h.html" target="_top" xlink:title=" ">
<polygon fill="white" stroke="#666666" points="1053.5,-184 937.5,-184 937.5,-165 1053.5,-165 1053.5,-184"/>
<text text-anchor="middle" x="995.5" y="-172" font-family="Helvetica,sans-Serif" font-size="10.00">compat/os/android.h</text>
</a>
</g>
</g>
<!-- Node5&#45;&gt;Node11 -->
<g id="edge9_Node000005_Node000011" class="edge">
<title>Node5&#45;&gt;Node11</title>
<g id="a_edge9_Node000005_Node000011"><a xlink:title=" ">
<path fill="none" stroke="#63b8ff" d="M1535.46,-221.05C1532.43,-220.67 1529.43,-220.32 1526.5,-220 1324.2,-197.85 1270.01,-204.79 1063.84,-184.08"/>
<polygon fill="#63b8ff" stroke="#63b8ff" points="1063.89,-180.57 1053.58,-183.04 1063.18,-187.54 1063.89,-180.57"/>
</a>
</g>
</g>
<!-- Node12 -->
<g id="Node000012" class="node">
<title>Node12</title>
<g id="a_Node000012"><a xlink:href="dragonfly_8h.html" target="_top" xlink:title=" ">
<polygon fill="white" stroke="#666666" points="1195.5,-184 1071.5,-184 1071.5,-165 1195.5,-165 1195.5,-184"/>
<text text-anchor="middle" x="1133.5" y="-172" font-family="Helvetica,sans-Serif" font-size="10.00">compat/os/dragonfly.h</text>
</a>
</g>
</g>
<!-- Node5&#45;&gt;Node12 -->
<g id="edge10_Node000005_Node000012" class="edge">
<title>Node5&#45;&gt;Node12</title>
<g id="a_edge10_Node000005_Node000012"><a xlink:title=" ">
<path fill="none" stroke="#63b8ff" d="M1535.45,-221.16C1532.42,-220.76 1529.42,-220.37 1526.5,-220 1386.85,-202.31 1349.22,-200.63 1205.89,-184.15"/>
<polygon fill="#63b8ff" stroke="#63b8ff" points="1206.17,-180.66 1195.83,-182.99 1205.37,-187.61 1206.17,-180.66"/>
</a>
</g>
</g>
<!-- Node13 -->
<g id="Node000013" class="node">
<title>Node13</title>
<g id="a_Node000013"><a xlink:href="freebsd_8h.html" target="_top" xlink:title=" ">
<polygon fill="white" stroke="#666666" points="1329.5,-184 1213.5,-184 1213.5,-165 1329.5,-165 1329.5,-184"/>
<text text-anchor="middle" x="1271.5" y="-172" font-family="Helvetica,sans-Serif" font-size="10.00">compat/os/freebsd.h</text>
</a>
</g>
</g>
<!-- Node5&#45;&gt;Node13 -->
<g id="edge11_Node000005_Node000013" class="edge">
<title>Node5&#45;&gt;Node13</title>
<g id="a_edge11_Node000005_Node000013"><a xlink:title=" ">
<path fill="none" stroke="#63b8ff" d="M1535.89,-219.98C1480.4,-210.65 1391.41,-195.67 1332.21,-185.71"/>
<polygon fill="#63b8ff" stroke="#63b8ff" points="1332.69,-182.25 1322.25,-184.04 1331.53,-189.15 1332.69,-182.25"/>
</a>
</g>
</g>
<!-- Node14 -->
<g id="Node000014" class="node">
<title>Node14</title>
<g id="a_Node000014"><a xlink:href="hpux_8h.html" target="_top" xlink:title=" ">
<polygon fill="white" stroke="#666666" points="1451.5,-184 1347.5,-184 1347.5,-165 1451.5,-165 1451.5,-184"/>
<text text-anchor="middle" x="1399.5" y="-172" font-family="Helvetica,sans-Serif" font-size="10.00">compat/os/hpux.h</text>
</a>
</g>
</g>
<!-- Node5&#45;&gt;Node14 -->
<g id="edge12_Node000005_Node000014" class="edge">
<title>Node5&#45;&gt;Node14</title>
<g id="a_edge12_Node000005_Node000014"><a xlink:title=" ">
<path fill="none" stroke="#63b8ff" d="M1556.46,-219.98C1524.79,-211.01 1474.73,-196.82 1439.69,-186.89"/>
<polygon fill="#63b8ff" stroke="#63b8ff" points="1440.36,-183.44 1429.78,-184.08 1438.45,-190.18 1440.36,-183.44"/>
</a>
</g>
</g>
<!-- Node15 -->
<g id="Node000015" class="node">
<title>Node15</title>
<g id="a_Node000015"><a xlink:href="linux_8h.html" target="_top" xlink:title=" ">
<polygon fill="white" stroke="#666666" points="1573.5,-184 1469.5,-184 1469.5,-165 1573.5,-165 1573.5,-184"/>
<text text-anchor="middle" x="1521.5" y="-172" font-family="Helvetica,sans-Serif" font-size="10.00">compat/os/linux.h</text>
</a>
</g>
</g>
<!-- Node5&#45;&gt;Node15 -->
<g id="edge13_Node000005_Node000015" class="edge">
<title>Node5&#45;&gt;Node15</title>
<g id="a_edge13_Node000005_Node000015"><a xlink:title=" ">
<path fill="none" stroke="#63b8ff" d="M1576.06,-219.98C1566.35,-212.07 1551.68,-200.11 1540,-190.58"/>
<polygon fill="#63b8ff" stroke="#63b8ff" points="1542.1,-187.78 1532.13,-184.17 1537.67,-193.2 1542.1,-187.78"/>
</a>
</g>
</g>
<!-- Node16 -->
<g id="Node000016" class="node">
<title>Node16</title>
<g id="a_Node000016"><a xlink:href="macosx_8h.html" target="_top" xlink:title=" ">
<polygon fill="white" stroke="#666666" points="1709.5,-184 1591.5,-184 1591.5,-165 1709.5,-165 1709.5,-184"/>
<text text-anchor="middle" x="1650.5" y="-172" font-family="Helvetica,sans-Serif" font-size="10.00">compat/os/macosx.h</text>
</a>
</g>
</g>
<!-- Node5&#45;&gt;Node16 -->
<g id="edge14_Node000005_Node000016" class="edge">
<title>Node5&#45;&gt;Node16</title>
<g id="a_edge14_Node000005_Node000016"><a xlink:title=" ">
<path fill="none" stroke="#63b8ff" d="M1596.78,-219.98C1606.34,-212.07 1620.78,-200.11 1632.28,-190.58"/>
<polygon fill="#63b8ff" stroke="#63b8ff" points="1634.56,-193.24 1640.03,-184.17 1630.1,-187.85 1634.56,-193.24"/>
</a>
</g>
</g>
<!-- Node17 -->
<g id="Node000017" class="node">
<title>Node17</title>
<g id="a_Node000017"><a xlink:href="mingw_8h.html" target="_top" xlink:title=" ">
<polygon fill="white" stroke="#666666" points="1839.5,-184 1727.5,-184 1727.5,-165 1839.5,-165 1839.5,-184"/>
<text text-anchor="middle" x="1783.5" y="-172" font-family="Helvetica,sans-Serif" font-size="10.00">compat/os/mingw.h</text>
</a>
</g>
</g>
<!-- Node5&#45;&gt;Node17 -->
<g id="edge15_Node000005_Node000017" class="edge">
<title>Node5&#45;&gt;Node17</title>
<g id="a_edge15_Node000005_Node000017"><a xlink:title=" ">
<path fill="none" stroke="#63b8ff" d="M1618.15,-219.98C1651.66,-210.97 1704.7,-196.7 1741.64,-186.76"/>
<polygon fill="#63b8ff" stroke="#63b8ff" points="1742.85,-190.06 1751.6,-184.08 1741.03,-183.3 1742.85,-190.06"/>
</a>
</g>
</g>
<!-- Node18 -->
<g id="Node000018" class="node">
<title>Node18</title>
<g id="a_Node000018"><a xlink:href="mswindows_8h.html" target="_top" xlink:title=" ">
<polygon fill="white" stroke="#666666" points="1995,-184 1858,-184 1858,-165 1995,-165 1995,-184"/>
<text text-anchor="middle" x="1926.5" y="-172" font-family="Helvetica,sans-Serif" font-size="10.00">compat/os/mswindows.h</text>
</a>
</g>
</g>
<!-- Node5&#45;&gt;Node18 -->
<g id="edge16_Node000005_Node000018" class="edge">
<title>Node5&#45;&gt;Node18</title>
<g id="a_edge16_Node000005_Node000018"><a xlink:title=" ">
<path fill="none" stroke="#63b8ff" d="M1637.77,-220.51C1697.55,-211.19 1796.46,-195.77 1861.56,-185.62"/>
<polygon fill="#63b8ff" stroke="#63b8ff" points="1862.37,-189.04 1871.71,-184.04 1861.29,-182.12 1862.37,-189.04"/>
</a>
</g>
</g>
<!-- Node19 -->
<g id="Node000019" class="node">
<title>Node19</title>
<g id="a_Node000019"><a xlink:href="netbsd_8h.html" target="_top" xlink:title=" ">
<polygon fill="white" stroke="#666666" points="2126,-184 2013,-184 2013,-165 2126,-165 2126,-184"/>
<text text-anchor="middle" x="2069.5" y="-172" font-family="Helvetica,sans-Serif" font-size="10.00">compat/os/netbsd.h</text>
</a>
</g>
</g>
<!-- Node5&#45;&gt;Node19 -->
<g id="edge17_Node000005_Node000019" class="edge">
<title>Node5&#45;&gt;Node19</title>
<g id="a_edge17_Node000005_Node000019"><a xlink:title=" ">
<path fill="none" stroke="#63b8ff" d="M1637.57,-223.41C1714.38,-215.68 1864.47,-200.26 2003.03,-184.03"/>
<polygon fill="#63b8ff" stroke="#63b8ff" points="2003.46,-187.5 2012.98,-182.86 2002.64,-180.55 2003.46,-187.5"/>
</a>
</g>
</g>
<!-- Node20 -->
<g id="Node000020" class="node">
<title>Node20</title>
<g id="a_Node000020"><a xlink:href="openbsd_8h.html" target="_top" xlink:title=" ">
<polygon fill="white" stroke="#666666" points="2265,-184 2144,-184 2144,-165 2265,-165 2265,-184"/>
<text text-anchor="middle" x="2204.5" y="-172" font-family="Helvetica,sans-Serif" font-size="10.00">compat/os/openbsd.h</text>
</a>
</g>
</g>
<!-- Node5&#45;&gt;Node20 -->
<g id="edge18_Node000005_Node000020" class="edge">
<title>Node5&#45;&gt;Node20</title>
<g id="a_edge18_Node000005_Node000020"><a xlink:title=" ">
<path fill="none" stroke="#63b8ff" d="M1637.56,-225.04C1732.81,-218.42 1944.32,-203.04 2133.67,-184.04"/>
<polygon fill="#63b8ff" stroke="#63b8ff" points="2134.21,-187.51 2143.81,-183.02 2133.51,-180.54 2134.21,-187.51"/>
</a>
</g>
</g>
<!-- Node21 -->
<g id="Node000021" class="node">
<title>Node21</title>
<g id="a_Node000021"><a xlink:href="os2_8h.html" target="_top" xlink:title=" ">
<polygon fill="white" stroke="#666666" points="2380,-184 2283,-184 2283,-165 2380,-165 2380,-184"/>
<text text-anchor="middle" x="2331.5" y="-172" font-family="Helvetica,sans-Serif" font-size="10.00">compat/os/os2.h</text>
</a>
</g>
</g>
<!-- Node5&#45;&gt;Node21 -->
<g id="edge19_Node000005_Node000021" class="edge">
<title>Node5&#45;&gt;Node21</title>
<g id="a_edge19_Node000005_Node000021"><a xlink:title=" ">
<path fill="none" stroke="#63b8ff" d="M1637.9,-226.59C1750.76,-222.1 2028.93,-209.34 2272.69,-183.99"/>
<polygon fill="#63b8ff" stroke="#63b8ff" points="2273.22,-187.45 2282.8,-182.93 2272.49,-180.49 2273.22,-187.45"/>
</a>
</g>
</g>
<!-- Node22 -->
<g id="Node000022" class="node">
<title>Node22</title>
<g id="a_Node000022"><a xlink:href="qnx_8h.html" target="_top" xlink:title=" ">
<polygon fill="white" stroke="#666666" points="2496.5,-184 2398.5,-184 2398.5,-165 2496.5,-165 2496.5,-184"/>
<text text-anchor="middle" x="2447.5" y="-172" font-family="Helvetica,sans-Serif" font-size="10.00">compat/os/qnx.h</text>
</a>
</g>
</g>
<!-- Node5&#45;&gt;Node22 -->
<g id="edge20_Node000005_Node000022" class="edge">
<title>Node5&#45;&gt;Node22</title>
<g id="a_edge20_Node000005_Node000022"><a xlink:title=" ">
<path fill="none" stroke="#63b8ff" d="M1637.76,-227.21C1763.57,-223.72 2097.81,-212.42 2387.98,-183.94"/>
<polygon fill="#63b8ff" stroke="#63b8ff" points="2388.68,-187.39 2398.28,-182.92 2387.99,-180.42 2388.68,-187.39"/>
</a>
</g>
</g>
<!-- Node23 -->
<g id="Node000023" class="node">
<title>Node23</title>
<g id="a_Node000023"><a xlink:href="solaris_8h.html" target="_top" xlink:title=" ">
<polygon fill="white" stroke="#666666" points="2626.5,-184 2514.5,-184 2514.5,-165 2626.5,-165 2626.5,-184"/>
<text text-anchor="middle" x="2570.5" y="-172" font-family="Helvetica,sans-Serif" font-size="10.00">compat/os/solaris.h</text>
</a>
</g>
</g>
<!-- Node5&#45;&gt;Node23 -->
<g id="edge21_Node000005_Node000023" class="edge">
<title>Node5&#45;&gt;Node23</title>
<g id="a_edge21_Node000005_Node000023"><a xlink:title=" ">
<path fill="none" stroke="#63b8ff" d="M1637.66,-227.49C1775.69,-224.44 2167.42,-213.73 2503.73,-184.08"/>
<polygon fill="#63b8ff" stroke="#63b8ff" points="2504.51,-187.53 2514.16,-183.15 2503.89,-180.55 2504.51,-187.53"/>
</a>
</g>
</g>
<!-- Node24 -->
<g id="Node000024" class="node">
<title>Node24</title>
<g id="a_Node000024"><a xlink:href="sunos_8h.html" target="_top" xlink:title=" ">
<polygon fill="white" stroke="#666666" points="2752.5,-184 2644.5,-184 2644.5,-165 2752.5,-165 2752.5,-184"/>
<text text-anchor="middle" x="2698.5" y="-172" font-family="Helvetica,sans-Serif" font-size="10.00">compat/os/sunos.h</text>
</a>
</g>
</g>
<!-- Node5&#45;&gt;Node24 -->
<g id="edge22_Node000005_Node000024" class="edge">
<title>Node5&#45;&gt;Node24</title>
<g id="a_edge22_Node000005_Node000024"><a xlink:title=" ">
<path fill="none" stroke="#63b8ff" d="M1637.64,-227.99C1788.54,-226.13 2245.17,-217.98 2634.2,-184.03"/>
<polygon fill="#63b8ff" stroke="#63b8ff" points="2634.58,-187.51 2644.24,-183.14 2633.97,-180.53 2634.58,-187.51"/>
</a>
</g>
</g>
<!-- Node25 -->
<g id="Node000025" class="node">
<title>Node25</title>
<g id="a_Node000025"><a xlink:href="assert_8h.html" target="_top" xlink:title=" ">
<polygon fill="white" stroke="#666666" points="2866,-184 2771,-184 2771,-165 2866,-165 2866,-184"/>
<text text-anchor="middle" x="2818.5" y="-172" font-family="Helvetica,sans-Serif" font-size="10.00">compat/assert.h</text>
</a>
</g>
</g>
<!-- Node5&#45;&gt;Node25 -->
<g id="edge23_Node000005_Node000025" class="edge">
<title>Node5&#45;&gt;Node25</title>
<g id="a_edge23_Node000005_Node000025"><a xlink:title=" ">
<path fill="none" stroke="#63b8ff" d="M1637.59,-228.57C1800.16,-228.37 2320.1,-224.46 2760.89,-183.92"/>
<polygon fill="#63b8ff" stroke="#63b8ff" points="2761.33,-187.4 2770.96,-182.99 2760.68,-180.43 2761.33,-187.4"/>
</a>
</g>
</g>
<!-- Node26 -->
<g id="Node000026" class="node">
<title>Node26</title>
<g id="a_Node000026"><a xlink:href="compat__shared_8h.html" target="_top" xlink:title=" ">
<polygon fill="#fff0f0" stroke="red" points="3024.5,-184 2884.5,-184 2884.5,-165 3024.5,-165 3024.5,-184"/>
<text text-anchor="middle" x="2954.5" y="-172" font-family="Helvetica,sans-Serif" font-size="10.00">compat/compat_shared.h</text>
</a>
</g>
</g>
<!-- Node5&#45;&gt;Node26 -->
<g id="edge24_Node000005_Node000026" class="edge">
<title>Node5&#45;&gt;Node26</title>
<g id="a_edge24_Node000005_Node000026"><a xlink:title=" ">
<path fill="none" stroke="#63b8ff" d="M1637.8,-228.04C1810.45,-226.22 2386.41,-217.87 2874.22,-183.95"/>
<polygon fill="#63b8ff" stroke="#63b8ff" points="2874.55,-187.44 2884.28,-183.25 2874.06,-180.45 2874.55,-187.44"/>
</a>
</g>
</g>
<!-- Node36 -->
<g id="Node000036" class="node">
<title>Node36</title>
<g id="a_Node000036"><a xlink:href="stdvarargs_8h.html" target="_top" xlink:title=" ">
<polygon fill="#fff0f0" stroke="red" points="3160,-184 3043,-184 3043,-165 3160,-165 3160,-184"/>
<text text-anchor="middle" x="3101.5" y="-172" font-family="Helvetica,sans-Serif" font-size="10.00">compat/stdvarargs.h</text>
</a>
</g>
</g>
<!-- Node5&#45;&gt;Node36 -->
<g id="edge25_Node000005_Node000036" class="edge">
<title>Node5&#45;&gt;Node36</title>
<g id="a_edge25_Node000005_Node000036"><a xlink:title=" ">
<path fill="none" stroke="#63b8ff" d="M1637.54,-228.66C1823.17,-228.86 2480.09,-226.4 3032.76,-183.96"/>
<polygon fill="#63b8ff" stroke="#63b8ff" points="3033.23,-187.44 3042.93,-183.17 3032.69,-180.46 3033.23,-187.44"/>
</a>
</g>
</g>
<!-- Node38 -->
<g id="Node000038" class="node">
<title>Node38</title>
<g id="a_Node000038"><a xlink:href="stdio_8h.html" target="_top" xlink:title=" ">
<polygon fill="#fff0f0" stroke="red" points="89,-184 0,-184 0,-165 89,-165 89,-184"/>
<text text-anchor="middle" x="44.5" y="-172" font-family="Helvetica,sans-Serif" font-size="10.00">compat/stdio.h</text>
</a>
</g>
</g>
<!-- Node5&#45;&gt;Node38 -->
<g id="edge26_Node000005_Node000038" class="edge">
<title>Node5&#45;&gt;Node38</title>
<g id="a_edge26_Node000005_Node000038"><a xlink:title=" ">
<path fill="none" stroke="#63b8ff" d="M1535.48,-220.86C1532.45,-220.54 1529.44,-220.24 1526.5,-220 896.77,-167.64 731.89,-241.63 99.55,-184.06"/>
<polygon fill="#63b8ff" stroke="#63b8ff" points="99.54,-180.54 89.27,-183.11 98.9,-187.51 99.54,-180.54"/>
</a>
</g>
</g>
<!-- Node40 -->
<g id="Node000040" class="node">
<title>Node40</title>
<g id="a_Node000040"><a xlink:href="statvfs_8h.html" target="_top" xlink:title=" ">
<polygon fill="white" stroke="#666666" points="206,-184 107,-184 107,-165 206,-165 206,-184"/>
<text text-anchor="middle" x="156.5" y="-172" font-family="Helvetica,sans-Serif" font-size="10.00">compat/statvfs.h</text>
</a>
</g>
</g>
<!-- Node5&#45;&gt;Node40 -->
<g id="edge27_Node000005_Node000040" class="edge">
<title>Node5&#45;&gt;Node40</title>
<g id="a_edge27_Node000005_Node000040"><a xlink:title=" ">
<path fill="none" stroke="#63b8ff" d="M1535.48,-220.87C1532.45,-220.54 1529.44,-220.25 1526.5,-220 948.64,-171.3 797.42,-233.64 216.45,-184.06"/>
<polygon fill="#63b8ff" stroke="#63b8ff" points="216.39,-180.54 206.13,-183.17 215.79,-187.51 216.39,-180.54"/>
</a>
</g>
</g>
<!-- Node41 -->
<g id="Node000041" class="node">
<title>Node41</title>
<g id="a_Node000041"><a xlink:href="debug_8h.html" target="_top" xlink:title=" ">
<polygon fill="white" stroke="#666666" points="319,-184 224,-184 224,-165 319,-165 319,-184"/>
<text text-anchor="middle" x="271.5" y="-172" font-family="Helvetica,sans-Serif" font-size="10.00">compat/debug.h</text>
</a>
</g>
</g>
<!-- Node5&#45;&gt;Node41 -->
<g id="edge28_Node000005_Node000041" class="edge">
<title>Node5&#45;&gt;Node41</title>
<g id="a_edge28_Node000005_Node000041"><a xlink:title=" ">
<path fill="none" stroke="#63b8ff" d="M1535.48,-220.88C1532.45,-220.55 1529.44,-220.25 1526.5,-220 998.68,-174.83 860.21,-231.36 329.33,-184.05"/>
<polygon fill="#63b8ff" stroke="#63b8ff" points="329.38,-180.54 319.11,-183.13 328.76,-187.51 329.38,-180.54"/>
</a>
</g>
</g>
<!-- Node42 -->
<g id="Node000042" class="node">
<title>Node42</title>
<g id="a_Node000042"><a xlink:href="valgrind_8h.html" target="_top" xlink:title=" ">
<polygon fill="#fff0f0" stroke="red" points="442,-184 337,-184 337,-165 442,-165 442,-184"/>
<text text-anchor="middle" x="389.5" y="-172" font-family="Helvetica,sans-Serif" font-size="10.00">compat/valgrind.h</text>
</a>
</g>
</g>
<!-- Node5&#45;&gt;Node42 -->
<g id="edge29_Node000005_Node000042" class="edge">
<title>Node5&#45;&gt;Node42</title>
<g id="a_edge29_Node000005_Node000042"><a xlink:title=" ">
<path fill="none" stroke="#63b8ff" d="M1535.48,-220.89C1532.45,-220.56 1529.43,-220.26 1526.5,-220 1053.2,-178.68 928.98,-224.42 452.28,-184.05"/>
<polygon fill="#63b8ff" stroke="#63b8ff" points="452.29,-180.54 442.03,-183.18 451.7,-187.52 452.29,-180.54"/>
</a>
</g>
</g>
<!-- Node45 -->
<g id="Node000045" class="node">
<title>Node45</title>
<g id="a_Node000045"><a xlink:href="RefCount_8h.html" target="_top" xlink:title=" ">
<polygon fill="white" stroke="#666666" points="3314,-239 3217,-239 3217,-220 3314,-220 3314,-239"/>
<text text-anchor="middle" x="3265.5" y="-227" font-family="Helvetica,sans-Serif" font-size="10.00">base/RefCount.h</text>
</a>
</g>
</g>
<!-- Node44&#45;&gt;Node45 -->
<g id="edge31_Node000044_Node000045" class="edge">
<title>Node44&#45;&gt;Node45</title>
<g id="a_edge31_Node000044_Node000045"><a xlink:title=" ">
<path fill="none" stroke="#63b8ff" d="M3317.54,-274.98C3308.37,-267.15 3294.56,-255.34 3283.47,-245.86"/>
<polygon fill="#63b8ff" stroke="#63b8ff" points="3285.52,-243.01 3275.64,-239.17 3280.97,-248.33 3285.52,-243.01"/>
</a>
</g>
</g>
<!-- Node49 -->
<g id="Node000049" class="node">
<title>Node49</title>
<g id="a_Node000049"><a xlink:href="http_2forward_8h.html" target="_top" xlink:title=" ">
<polygon fill="#fff0f0" stroke="red" points="3418.5,-239 3332.5,-239 3332.5,-220 3418.5,-220 3418.5,-239"/>
<text text-anchor="middle" x="3375.5" y="-227" font-family="Helvetica,sans-Serif" font-size="10.00">http/forward.h</text>
</a>
</g>
</g>
<!-- Node44&#45;&gt;Node49 -->
<g id="edge35_Node000044_Node000049" class="edge">
<title>Node44&#45;&gt;Node49</title>
<g id="a_edge35_Node000044_Node000049"><a xlink:title=" ">
<path fill="none" stroke="#63b8ff" d="M3335.43,-274.75C3342.35,-267.11 3352.57,-255.82 3360.95,-246.56"/>
<polygon fill="#63b8ff" stroke="#63b8ff" points="3363.6,-248.85 3367.72,-239.09 3358.41,-244.15 3363.6,-248.85"/>
</a>
</g>
</g>
<!-- Node46 -->
<g id="Node000046" class="node">
<title>Node46</title>
<g id="a_Node000046"><a xlink:href="Lock_8h.html" target="_top" xlink:title=" ">
<polygon fill="white" stroke="#666666" points="3546.5,-184 3472.5,-184 3472.5,-165 3546.5,-165 3546.5,-184"/>
<text text-anchor="middle" x="3509.5" y="-172" font-family="Helvetica,sans-Serif" font-size="10.00">base/Lock.h</text>
</a>
</g>
</g>
<!-- Node45&#45;&gt;Node46 -->
<g id="edge32_Node000045_Node000046" class="edge">
<title>Node45&#45;&gt;Node46</title>
<g id="a_edge32_Node000045_Node000046"><a xlink:title=" ">
<path fill="none" stroke="#63b8ff" d="M3304.7,-219.98C3347.66,-210.65 3416.55,-195.69 3462.41,-185.73"/>
<polygon fill="#63b8ff" stroke="#63b8ff" points="3463.36,-189.1 3472.39,-183.56 3461.88,-182.26 3463.36,-189.1"/>
</a>
</g>
</g>
<!-- Node47 -->
<g id="Node000047" class="node">
<title>Node47</title>
<g id="a_Node000047"><a xlink:title=" ">
<polygon fill="#e0e0e0" stroke="#999999" points="3340.5,-184 3280.5,-184 3280.5,-165 3340.5,-165 3340.5,-184"/>
<text text-anchor="middle" x="3310.5" y="-172" font-family="Helvetica,sans-Serif" font-size="10.00">iostream</text>
</a>
</g>
</g>
<!-- Node45&#45;&gt;Node47 -->
<g id="edge33_Node000045_Node000047" class="edge">
<title>Node45&#45;&gt;Node47</title>
<g id="a_edge33_Node000045_Node000047"><a xlink:title=" ">
<path fill="none" stroke="#63b8ff" d="M3272.93,-219.75C3279.35,-212.18 3288.81,-201.05 3296.62,-191.84"/>
<polygon fill="#63b8ff" stroke="#63b8ff" points="3299.4,-193.98 3303.21,-184.09 3294.07,-189.45 3299.4,-193.98"/>
</a>
</g>
</g>
<!-- Node48 -->
<g id="Node000048" class="node">
<title>Node48</title>
<g id="a_Node000048"><a xlink:title=" ">
<polygon fill="#e0e0e0" stroke="#999999" points="3262,-184 3217,-184 3217,-165 3262,-165 3262,-184"/>
<text text-anchor="middle" x="3239.5" y="-172" font-family="Helvetica,sans-Serif" font-size="10.00">utility</text>
</a>
</g>
</g>
<!-- Node45&#45;&gt;Node48 -->
<g id="edge34_Node000045_Node000048" class="edge">
<title>Node45&#45;&gt;Node48</title>
<g id="a_edge34_Node000045_Node000048"><a xlink:title=" ">
<path fill="none" stroke="#63b8ff" d="M3261.21,-219.75C3257.69,-212.57 3252.59,-202.18 3248.22,-193.27"/>
<polygon fill="#63b8ff" stroke="#63b8ff" points="3251.26,-191.53 3243.71,-184.09 3244.98,-194.61 3251.26,-191.53"/>
</a>
</g>
</g>
<!-- Node56 -->
<g id="Node000056" class="node">
<title>Node56</title>
<g id="a_Node000056"><a xlink:href="Assure_8h.html" target="_top" xlink:title=" ">
<polygon fill="white" stroke="#666666" points="3374,-74 3289,-74 3289,-55 3374,-55 3374,-74"/>
<text text-anchor="middle" x="3331.5" y="-62" font-family="Helvetica,sans-Serif" font-size="10.00">base/Assure.h</text>
</a>
</g>
</g>
<!-- Node55&#45;&gt;Node56 -->
<g id="edge37_Node000055_Node000056" class="edge">
<title>Node55&#45;&gt;Node56</title>
<g id="a_edge37_Node000055_Node000056"><a xlink:title=" ">
<path fill="none" stroke="#63b8ff" d="M3391.09,-109.98C3380.39,-102 3364.16,-89.88 3351.34,-80.31"/>
<polygon fill="#63b8ff" stroke="#63b8ff" points="3353.22,-77.35 3343.11,-74.17 3349.03,-82.96 3353.22,-77.35"/>
</a>
</g>
</g>
<!-- Node57 -->
<g id="Node000057" class="node">
<title>Node57</title>
<g id="a_Node000057"><a xlink:href="Here_8h.html" target="_top" xlink:title=" ">
<polygon fill="#fff0f0" stroke="red" points="3404,-19 3329,-19 3329,0 3404,0 3404,-19"/>
<text text-anchor="middle" x="3366.5" y="-7" font-family="Helvetica,sans-Serif" font-size="10.00">base/Here.h</text>
</a>
</g>
</g>
<!-- Node55&#45;&gt;Node57 -->
<g id="edge39_Node000055_Node000057" class="edge">
<title>Node55&#45;&gt;Node57</title>
<g id="a_edge39_Node000055_Node000057"><a xlink:title=" ">
<path fill="none" stroke="#63b8ff" d="M3399.89,-109.84C3396.17,-97.58 3389.07,-74.5 3382.5,-55 3379.58,-46.35 3376.18,-36.81 3373.26,-28.79"/>
<polygon fill="#63b8ff" stroke="#63b8ff" points="3376.52,-27.51 3369.79,-19.33 3369.95,-29.92 3376.52,-27.51"/>
</a>
</g>
</g>
<!-- Node59 -->
<g id="Node000059" class="node">
<title>Node59</title>
<g id="a_Node000059"><a xlink:title=" ">
<polygon fill="#e0e0e0" stroke="#999999" points="3496,-74 3431,-74 3431,-55 3496,-55 3496,-74"/>
<text text-anchor="middle" x="3463.5" y="-62" font-family="Helvetica,sans-Serif" font-size="10.00">stdexcept</text>
</a>
</g>
</g>
<!-- Node55&#45;&gt;Node59 -->
<g id="edge40_Node000055_Node000059" class="edge">
<title>Node55&#45;&gt;Node59</title>
<g id="a_edge40_Node000055_Node000059"><a xlink:title=" ">
<path fill="none" stroke="#63b8ff" d="M3412.3,-109.98C3421.32,-102.15 3434.91,-90.34 3445.82,-80.86"/>
<polygon fill="#63b8ff" stroke="#63b8ff" points="3448.27,-83.37 3453.52,-74.17 3443.68,-78.09 3448.27,-83.37"/>
</a>
</g>
</g>
<!-- Node56&#45;&gt;Node57 -->
<g id="edge38_Node000056_Node000057" class="edge">
<title>Node56&#45;&gt;Node57</title>
<g id="a_edge38_Node000056_Node000057"><a xlink:title=" ">
<path fill="none" stroke="#63b8ff" d="M3337.28,-54.75C3342.12,-47.42 3349.18,-36.73 3355.14,-27.7"/>
<polygon fill="#63b8ff" stroke="#63b8ff" points="3358.24,-29.36 3360.83,-19.09 3352.4,-25.5 3358.24,-29.36"/>
</a>
</g>
</g>
<!-- Node61 -->
<g id="Node000061" class="node">
<title>Node61</title>
<g id="a_Node000061"><a xlink:href="AsyncJob_8h.html" target="_top" xlink:title=" ">
<polygon fill="#fff0f0" stroke="red" points="3454.5,-184 3358.5,-184 3358.5,-165 3454.5,-165 3454.5,-184"/>
<text text-anchor="middle" x="3406.5" y="-172" font-family="Helvetica,sans-Serif" font-size="10.00">base/AsyncJob.h</text>
</a>
</g>
</g>
<!-- Node60&#45;&gt;Node61 -->
<g id="edge42_Node000060_Node000061" class="edge">
<title>Node60&#45;&gt;Node61</title>
<g id="a_edge42_Node000060_Node000061"><a xlink:title=" ">
<path fill="none" stroke="#63b8ff" d="M3461.9,-219.98C3452.04,-212.07 3437.15,-200.11 3425.28,-190.58"/>
<polygon fill="#63b8ff" stroke="#63b8ff" points="3427.29,-187.7 3417.3,-184.17 3422.9,-193.16 3427.29,-187.7"/>
</a>
</g>
</g>
<!-- Node74 -->
<g id="Node000074" class="node">
<title>Node74</title>
<g id="a_Node000074"><a xlink:href="CbcPointer_8h.html" target="_top" xlink:title=" ">
<polygon fill="#fff0f0" stroke="red" points="3668.5,-184 3564.5,-184 3564.5,-165 3668.5,-165 3668.5,-184"/>
<text text-anchor="middle" x="3616.5" y="-172" font-family="Helvetica,sans-Serif" font-size="10.00">base/CbcPointer.h</text>
</a>
</g>
</g>
<!-- Node60&#45;&gt;Node74 -->
<g id="edge43_Node000060_Node000074" class="edge">
<title>Node60&#45;&gt;Node74</title>
<g id="a_edge43_Node000060_Node000074"><a xlink:title=" ">
<path fill="none" stroke="#63b8ff" d="M3495.64,-219.98C3519.32,-211.27 3556.37,-197.63 3583.21,-187.75"/>
<polygon fill="#63b8ff" stroke="#63b8ff" points="3584.77,-190.91 3592.94,-184.17 3582.35,-184.34 3584.77,-190.91"/>
</a>
</g>
</g>
<!-- Node78 -->
<g id="Node000078" class="node">
<title>Node78</title>
<g id="a_Node000078"><a xlink:href="MemBuf_8h.html" target="_top" xlink:title=" ">
<polygon fill="#fff0f0" stroke="red" points="3752.5,-184 3686.5,-184 3686.5,-165 3752.5,-165 3752.5,-184"/>
<text text-anchor="middle" x="3719.5" y="-172" font-family="Helvetica,sans-Serif" font-size="10.00">MemBuf.h</text>
</a>
</g>
</g>
<!-- Node60&#45;&gt;Node78 -->
<g id="edge45_Node000060_Node000078" class="edge">
<title>Node60&#45;&gt;Node78</title>
<g id="a_edge45_Node000060_Node000078"><a xlink:title=" ">
<path fill="none" stroke="#63b8ff" d="M3508.15,-220.85C3552.59,-211.32 3628.48,-195.03 3676.2,-184.79"/>
<polygon fill="#63b8ff" stroke="#63b8ff" points="3677.19,-188.16 3686.23,-182.64 3675.72,-181.31 3677.19,-188.16"/>
</a>
</g>
</g>
<!-- Node74&#45;&gt;Node55 -->
<g id="edge44_Node000074_Node000055" class="edge">
<title>Node74&#45;&gt;Node55</title>
<g id="a_edge44_Node000074_Node000055"><a xlink:title=" ">
<path fill="none" stroke="#63b8ff" d="M3582.12,-164.98C3545.41,-155.89 3487.12,-141.46 3446.95,-131.51"/>
<polygon fill="#63b8ff" stroke="#63b8ff" points="3447.7,-128.09 3437.15,-129.08 3446.02,-134.88 3447.7,-128.09"/>
</a>
</g>
</g>
<!-- Node79&#45;&gt;Node46 -->
<g id="edge47_Node000079_Node000046" class="edge">
<title>Node79&#45;&gt;Node46</title>
<g id="a_edge47_Node000079_Node000046"><a xlink:title=" ">
<path fill="none" stroke="#63b8ff" d="M3735.88,-278.1C3786.23,-270.43 3855.78,-253.43 3826.5,-220 3788.35,-176.44 3631.24,-191.86 3556.96,-183.88"/>
<polygon fill="#63b8ff" stroke="#63b8ff" points="3557,-180.36 3546.63,-182.53 3556.09,-187.3 3557,-180.36"/>
</a>
</g>
</g>
<!-- Node79&#45;&gt;Node49 -->
<g id="edge50_Node000079_Node000049" class="edge">
<title>Node79&#45;&gt;Node49</title>
<g id="a_edge50_Node000079_Node000049"><a xlink:title=" ">
<path fill="none" stroke="#63b8ff" d="M3643.17,-275.68C3586.08,-266.04 3489.27,-249.7 3429.05,-239.54"/>
<polygon fill="#63b8ff" stroke="#63b8ff" points="3429.43,-236.05 3418.99,-237.84 3428.26,-242.96 3429.43,-236.05"/>
</a>
</g>
</g>
<!-- Node79&#45;&gt;Node60 -->
<g id="edge48_Node000079_Node000060" class="edge">
<title>Node79&#45;&gt;Node60</title>
<g id="a_edge48_Node000079_Node000060"><a xlink:title=" ">
<path fill="none" stroke="#63b8ff" d="M3654.64,-274.98C3617.41,-265.89 3558.3,-251.46 3517.57,-241.51"/>
<polygon fill="#63b8ff" stroke="#63b8ff" points="3518.18,-238.05 3507.64,-239.08 3516.52,-244.85 3518.18,-238.05"/>
</a>
</g>
</g>
<!-- Node80 -->
<g id="Node000080" class="node">
<title>Node80</title>
<g id="a_Node000080"><a xlink:href="enums_8h.html" target="_top" xlink:title=" ">
<polygon fill="white" stroke="#666666" points="3933,-239 3874,-239 3874,-220 3933,-220 3933,-239"/>
<text text-anchor="middle" x="3903.5" y="-227" font-family="Helvetica,sans-Serif" font-size="10.00">enums.h</text>
</a>
</g>
</g>
<!-- Node79&#45;&gt;Node80 -->
<g id="edge49_Node000079_Node000080" class="edge">
<title>Node79&#45;&gt;Node80</title>
<g id="a_edge49_Node000079_Node000080"><a xlink:title=" ">
<path fill="none" stroke="#63b8ff" d="M3723.88,-274.98C3762.11,-265.52 3823.76,-250.25 3863.96,-240.29"/>
<polygon fill="#63b8ff" stroke="#63b8ff" points="3864.82,-243.68 3873.69,-237.88 3863.14,-236.89 3864.82,-243.68"/>
</a>
</g>
</g>
<!-- Node81 -->
<g id="Node000081" class="node">
<title>Node81</title>
<g id="a_Node000081"><a xlink:href="http_2ProtocolVersion_8h.html" target="_top" xlink:title=" ">
<polygon fill="#fff0f0" stroke="red" points="4075.5,-239 3951.5,-239 3951.5,-220 4075.5,-220 4075.5,-239"/>
<text text-anchor="middle" x="4013.5" y="-227" font-family="Helvetica,sans-Serif" font-size="10.00">http/ProtocolVersion.h</text>
</a>
</g>
</g>
<!-- Node79&#45;&gt;Node81 -->
<g id="edge51_Node000079_Node000081" class="edge">
<title>Node79&#45;&gt;Node81</title>
<g id="a_edge51_Node000079_Node000081"><a xlink:title=" ">
<path fill="none" stroke="#63b8ff" d="M3735.58,-275.96C3792.09,-266.72 3888.14,-251.01 3951.2,-240.69"/>
<polygon fill="#63b8ff" stroke="#63b8ff" points="3952.11,-244.09 3961.42,-239.02 3950.98,-237.18 3952.11,-244.09"/>
</a>
</g>
</g>
<!-- Node85 -->
<g id="Node000085" class="node">
<title>Node85</title>
<g id="a_Node000085"><a xlink:href="StatusCode_8h.html" target="_top" xlink:title=" ">
<polygon fill="white" stroke="#666666" points="3630.5,-239 3526.5,-239 3526.5,-220 3630.5,-220 3630.5,-239"/>
<text text-anchor="middle" x="3578.5" y="-227" font-family="Helvetica,sans-Serif" font-size="10.00">http/StatusCode.h</text>
</a>
</g>
</g>
<!-- Node79&#45;&gt;Node85 -->
<g id="edge52_Node000079_Node000085" class="edge">
<title>Node79&#45;&gt;Node85</title>
<g id="a_edge52_Node000079_Node000085"><a xlink:title=" ">
<path fill="none" stroke="#63b8ff" d="M3671.67,-274.98C3653.89,-266.5 3626.35,-253.35 3605.82,-243.54"/>
<polygon fill="#63b8ff" stroke="#63b8ff" points="3607.19,-240.32 3596.66,-239.17 3604.17,-246.64 3607.19,-240.32"/>
</a>
</g>
</g>
<!-- Node86 -->
<g id="Node000086" class="node">
<title>Node86</title>
<g id="a_Node000086"><a xlink:href="HttpHeader_8h.html" target="_top" xlink:title=" ">
<polygon fill="#fff0f0" stroke="red" points="3730,-239 3649,-239 3649,-220 3730,-220 3730,-239"/>
<text text-anchor="middle" x="3689.5" y="-227" font-family="Helvetica,sans-Serif" font-size="10.00">HttpHeader.h</text>
</a>
</g>
</g>
<!-- Node79&#45;&gt;Node86 -->
<g id="edge53_Node000079_Node000086" class="edge">
<title>Node79&#45;&gt;Node86</title>
<g id="a_edge53_Node000079_Node000086"><a xlink:title=" ">
<path fill="none" stroke="#63b8ff" d="M3689.5,-274.75C3689.5,-267.8 3689.5,-257.85 3689.5,-249.13"/>
<polygon fill="#63b8ff" stroke="#63b8ff" points="3693,-249.09 3689.5,-239.09 3686,-249.09 3693,-249.09"/>
</a>
</g>
</g>
<!-- Node111 -->
<g id="Node000111" class="node">
<title>Node111</title>
<g id="a_Node000111"><a xlink:title=" ">
<polygon fill="#e0e0e0" stroke="#999999" points="3817,-239 3748,-239 3748,-220 3817,-220 3817,-239"/>
<text text-anchor="middle" x="3782.5" y="-227" font-family="Helvetica,sans-Serif" font-size="10.00">type_traits</text>
</a>
</g>
</g>
<!-- Node79&#45;&gt;Node111 -->
<g id="edge54_Node000079_Node000111" class="edge">
<title>Node79&#45;&gt;Node111</title>
<g id="a_edge54_Node000079_Node000111"><a xlink:title=" ">
<path fill="none" stroke="#63b8ff" d="M3704.44,-274.98C3719,-266.69 3741.37,-253.94 3758.43,-244.22"/>
<polygon fill="#63b8ff" stroke="#63b8ff" points="3760.33,-247.16 3767.29,-239.17 3756.86,-241.08 3760.33,-247.16"/>
</a>
</g>
</g>
</g>
</svg>
