<?xml version="1.0" encoding="UTF-8" standalone="no"?>
<!DOCTYPE svg PUBLIC "-//W3C//DTD SVG 1.1//EN"
 "http://www.w3.org/Graphics/SVG/1.1/DTD/svg11.dtd">
<!-- Generated by graphviz version 2.43.0 (0)
 -->
<!-- Title: squid/src/adaptation/icap/Options.cc Pages: 1 -->
<!--zoomable 258 -->

<svg id="main" version="1.1" xmlns="http://www.w3.org/2000/svg" xmlns:xlink="http://www.w3.org/1999/xlink" xml:space="preserve" onload="init(evt)">
<style type="text/css"><![CDATA[
.node, .edge {opacity: 0.7;}
.node.selected, .edge.selected {opacity: 1;}
.edge:hover path { stroke: red; }
.edge:hover polygon { stroke: red; fill: red; }
]]></style>

<defs>
  <circle id="rim" cx="0" cy="0" r="7"/>
  <circle id="rim2" cx="0" cy="0" r="3.5"/>
  <g id="zoomPlus">
    <use xlink:href="#rim" fill="#404040"><set attributeName="fill" to="#808080" begin="zoomplus.mouseover" end="zoomplus.mouseout"/></use>
    <path d="M-4,0h8M0,-4v8" fill="none" stroke="white" stroke-width="1.5" pointer-events="none"/>
  </g>
  <g id="zoomMin">
    <use xlink:href="#rim" fill="#404040"><set attributeName="fill" to="#808080" begin="zoomminus.mouseover" end="zoomminus.mouseout"/></use>
    <path d="M-4,0h8" fill="none" stroke="white" stroke-width="1.5" pointer-events="none"/>
  </g>
  <g id="arrowUp" transform="translate(30 24)">
    <use xlink:href="#rim"/>
    <path pointer-events="none" fill="none" stroke="white" stroke-width="1.5" d="M0,-3.0v7 M-2.5,-0.5L0,-3.0L2.5,-0.5"/>
  </g>
  <g id="arrowRight" transform="rotate(90) translate(36 -43)">
    <use xlink:href="#rim"/>
    <path pointer-events="none" fill="none" stroke="white" stroke-width="1.5" d="M0,-3.0v7 M-2.5,-0.5L0,-3.0L2.5,-0.5"/>
  </g>
  <g id="arrowDown" transform="rotate(180) translate(-30 -48)">
    <use xlink:href="#rim"/>
    <path pointer-events="none" fill="none" stroke="white" stroke-width="1.5" d="M0,-3.0v7 M-2.5,-0.5L0,-3.0L2.5,-0.5"/>
  </g>
  <g id="arrowLeft" transform="rotate(270) translate(-36 17)">
    <use xlink:href="#rim"/>
    <path pointer-events="none" fill="none" stroke="white" stroke-width="1.5" d="M0,-3.0v7 M-2.5,-0.5L0,-3.0L2.5,-0.5"/>
  </g>
  <g id="resetDef">
    <use xlink:href="#rim2" fill="#404040"><set attributeName="fill" to="#808080" begin="reset.mouseover" end="reset.mouseout"/></use>
  </g>
</defs>
<script type="application/ecmascript">
var viewWidth = 4387;
var viewHeight = 258;
var sectionId = 'dynsection-0';
</script>
<script type="application/ecmascript" xlink:href="svg.min.js"/>
<svg id="graph" class="graph">
<g id="viewport">
<title>squid/src/adaptation/icap/Options.cc</title>
<!-- Node1 -->
<g id="Node000001" class="node">
<title>Node1</title>
<g id="a_Node000001"><a xlink:title=" ">
<polygon fill="#999999" stroke="#666666" points="3693.5,-250 3577.5,-250 3577.5,-220 3693.5,-220 3693.5,-250"/>
<text text-anchor="start" x="3585.5" y="-238" font-family="Helvetica,sans-Serif" font-size="10.00">squid/src/adaptation</text>
<text text-anchor="middle" x="3635.5" y="-227" font-family="Helvetica,sans-Serif" font-size="10.00">/icap/Options.cc</text>
</a>
</g>
</g>
<!-- Node2 -->
<g id="Node000002" class="node">
<title>Node2</title>
<g id="a_Node000002"><a xlink:href="squid_8h.html" target="_top" xlink:title=" ">
<polygon fill="white" stroke="#666666" points="1585.5,-184 1533.5,-184 1533.5,-165 1585.5,-165 1585.5,-184"/>
<text text-anchor="middle" x="1559.5" y="-172" font-family="Helvetica,sans-Serif" font-size="10.00">squid.h</text>
</a>
</g>
</g>
<!-- Node1&#45;&gt;Node2 -->
<g id="edge1_Node000001_Node000002" class="edge">
<title>Node1&#45;&gt;Node2</title>
<g id="a_edge1_Node000001_Node000002"><a xlink:title=" ">
<path fill="none" stroke="#63b8ff" d="M3577.26,-232.36C3270.08,-223.7 1842.79,-183.48 1595.92,-176.53"/>
<polygon fill="#63b8ff" stroke="#63b8ff" points="1595.8,-173.02 1585.71,-176.24 1595.6,-180.02 1595.8,-173.02"/>
</a>
</g>
</g>
<!-- Node44 -->
<g id="Node000044" class="node">
<title>Node44</title>
<g id="a_Node000044"><a xlink:href="adaptation_2icap_2Config_8h.html" target="_top" xlink:title=" ">
<polygon fill="white" stroke="#666666" points="3358,-184 3223,-184 3223,-165 3358,-165 3358,-184"/>
<text text-anchor="middle" x="3290.5" y="-172" font-family="Helvetica,sans-Serif" font-size="10.00">adaptation/icap/Config.h</text>
</a>
</g>
</g>
<!-- Node1&#45;&gt;Node44 -->
<g id="edge29_Node000001_Node000044" class="edge">
<title>Node1&#45;&gt;Node44</title>
<g id="a_edge29_Node000001_Node000044"><a xlink:title=" ">
<path fill="none" stroke="#63b8ff" d="M3577.37,-224.14C3514.39,-213.46 3414.39,-196.51 3350.64,-185.7"/>
<polygon fill="#63b8ff" stroke="#63b8ff" points="3351.17,-182.24 3340.73,-184.02 3350,-189.14 3351.17,-182.24"/>
</a>
</g>
</g>
<!-- Node194 -->
<g id="Node000194" class="node">
<title>Node194</title>
<g id="a_Node000194"><a xlink:href="adaptation_2icap_2Options_8h.html" target="_top" xlink:title=" ">
<polygon fill="white" stroke="#666666" points="3544.5,-184 3402.5,-184 3402.5,-165 3544.5,-165 3544.5,-184"/>
<text text-anchor="middle" x="3473.5" y="-172" font-family="Helvetica,sans-Serif" font-size="10.00">adaptation/icap/Options.h</text>
</a>
</g>
</g>
<!-- Node1&#45;&gt;Node194 -->
<g id="edge39_Node000001_Node000194" class="edge">
<title>Node1&#45;&gt;Node194</title>
<g id="a_edge39_Node000001_Node000194"><a xlink:title=" ">
<path fill="none" stroke="#63b8ff" d="M3596.7,-219.99C3569.31,-210.1 3532.98,-196.98 3506.89,-187.56"/>
<polygon fill="#63b8ff" stroke="#63b8ff" points="3508.02,-184.24 3497.42,-184.14 3505.64,-190.83 3508.02,-184.24"/>
</a>
</g>
</g>
<!-- Node72 -->
<g id="Node000072" class="node">
<title>Node72</title>
<g id="a_Node000072"><a xlink:href="TextException_8h.html" target="_top" xlink:title=" ">
<polygon fill="white" stroke="#666666" points="3695.5,-184 3575.5,-184 3575.5,-165 3695.5,-165 3695.5,-184"/>
<text text-anchor="middle" x="3635.5" y="-172" font-family="Helvetica,sans-Serif" font-size="10.00">base/TextException.h</text>
</a>
</g>
</g>
<!-- Node1&#45;&gt;Node72 -->
<g id="edge41_Node000001_Node000072" class="edge">
<title>Node1&#45;&gt;Node72</title>
<g id="a_edge41_Node000001_Node000072"><a xlink:title=" ">
<path fill="none" stroke="#63b8ff" d="M3635.5,-219.84C3635.5,-212.21 3635.5,-202.7 3635.5,-194.45"/>
<polygon fill="#63b8ff" stroke="#63b8ff" points="3639,-194.27 3635.5,-184.27 3632,-194.27 3639,-194.27"/>
</a>
</g>
</g>
<!-- Node195 -->
<g id="Node000195" class="node">
<title>Node195</title>
<g id="a_Node000195"><a xlink:href="HttpReply_8h.html" target="_top" xlink:title=" ">
<polygon fill="white" stroke="#666666" points="3884,-184 3811,-184 3811,-165 3884,-165 3884,-184"/>
<text text-anchor="middle" x="3847.5" y="-172" font-family="Helvetica,sans-Serif" font-size="10.00">HttpReply.h</text>
</a>
</g>
</g>
<!-- Node1&#45;&gt;Node195 -->
<g id="edge46_Node000001_Node000195" class="edge">
<title>Node1&#45;&gt;Node195</title>
<g id="a_edge46_Node000001_Node000195"><a xlink:title=" ">
<path fill="none" stroke="#63b8ff" d="M3686.28,-219.99C3723.18,-209.8 3772.48,-196.2 3806.8,-186.73"/>
<polygon fill="#63b8ff" stroke="#63b8ff" points="3807.79,-190.09 3816.5,-184.05 3805.93,-183.34 3807.79,-190.09"/>
</a>
</g>
</g>
<!-- Node217 -->
<g id="Node000217" class="node">
<title>Node217</title>
<g id="a_Node000217"><a xlink:href="StrList_8h.html" target="_top" xlink:title=" ">
<polygon fill="white" stroke="#666666" points="4128.5,-184 4072.5,-184 4072.5,-165 4128.5,-165 4128.5,-184"/>
<text text-anchor="middle" x="4100.5" y="-172" font-family="Helvetica,sans-Serif" font-size="10.00">StrList.h</text>
</a>
</g>
</g>
<!-- Node1&#45;&gt;Node217 -->
<g id="edge50_Node000001_Node000217" class="edge">
<title>Node1&#45;&gt;Node217</title>
<g id="a_edge50_Node000001_Node000217"><a xlink:title=" ">
<path fill="none" stroke="#63b8ff" d="M3693.92,-226.65C3790.45,-214.51 3980.65,-190.58 4062.06,-180.34"/>
<polygon fill="#63b8ff" stroke="#63b8ff" points="4062.86,-183.76 4072.35,-179.04 4061.99,-176.82 4062.86,-183.76"/>
</a>
</g>
</g>
<!-- Node218 -->
<g id="Node000218" class="node">
<title>Node218</title>
<g id="a_Node000218"><a xlink:href="wordlist_8h.html" target="_top" xlink:title=" ">
<polygon fill="white" stroke="#666666" points="4258,-184 4193,-184 4193,-165 4258,-165 4258,-184"/>
<text text-anchor="middle" x="4225.5" y="-172" font-family="Helvetica,sans-Serif" font-size="10.00">wordlist.h</text>
</a>
</g>
</g>
<!-- Node1&#45;&gt;Node218 -->
<g id="edge53_Node000001_Node000218" class="edge">
<title>Node1&#45;&gt;Node218</title>
<g id="a_edge53_Node000001_Node000218"><a xlink:title=" ">
<path fill="none" stroke="#63b8ff" d="M3693.69,-228.23C3812.01,-216.5 4078.3,-190.1 4182.52,-179.76"/>
<polygon fill="#63b8ff" stroke="#63b8ff" points="4183.07,-183.22 4192.67,-178.76 4182.37,-176.26 4183.07,-183.22"/>
</a>
</g>
</g>
<!-- Node3 -->
<g id="Node000003" class="node">
<title>Node3</title>
<g id="a_Node000003"><a xlink:href="autoconf_8h.html" target="_top" xlink:title=" ">
<polygon fill="white" stroke="#666666" points="1460.5,-129 1392.5,-129 1392.5,-110 1460.5,-110 1460.5,-129"/>
<text text-anchor="middle" x="1426.5" y="-117" font-family="Helvetica,sans-Serif" font-size="10.00">autoconf.h</text>
</a>
</g>
</g>
<!-- Node2&#45;&gt;Node3 -->
<g id="edge2_Node000002_Node000003" class="edge">
<title>Node2&#45;&gt;Node3</title>
<g id="a_edge2_Node000002_Node000003"><a xlink:title=" ">
<path fill="none" stroke="#63b8ff" d="M1538.13,-164.98C1516.35,-156.3 1482.34,-142.75 1457.58,-132.88"/>
<polygon fill="#63b8ff" stroke="#63b8ff" points="1458.84,-129.62 1448.26,-129.17 1456.25,-136.12 1458.84,-129.62"/>
</a>
</g>
</g>
<!-- Node4 -->
<g id="Node000004" class="node">
<title>Node4</title>
<g id="a_Node000004"><a xlink:href="version_8h.html" target="_top" xlink:title=" ">
<polygon fill="white" stroke="#666666" points="1540.5,-129 1478.5,-129 1478.5,-110 1540.5,-110 1540.5,-129"/>
<text text-anchor="middle" x="1509.5" y="-117" font-family="Helvetica,sans-Serif" font-size="10.00">version.h</text>
</a>
</g>
</g>
<!-- Node2&#45;&gt;Node4 -->
<g id="edge3_Node000002_Node000004" class="edge">
<title>Node2&#45;&gt;Node4</title>
<g id="a_edge3_Node000002_Node000004"><a xlink:title=" ">
<path fill="none" stroke="#63b8ff" d="M1551.24,-164.75C1544.04,-157.11 1533.39,-145.82 1524.65,-136.56"/>
<polygon fill="#63b8ff" stroke="#63b8ff" points="1527.01,-133.96 1517.6,-129.09 1521.92,-138.76 1527.01,-133.96"/>
</a>
</g>
</g>
<!-- Node5 -->
<g id="Node000005" class="node">
<title>Node5</title>
<g id="a_Node000005"><a xlink:href="compat_8h.html" target="_top" xlink:title=" ">
<polygon fill="#fff0f0" stroke="red" points="1660.5,-129 1558.5,-129 1558.5,-110 1660.5,-110 1660.5,-129"/>
<text text-anchor="middle" x="1609.5" y="-117" font-family="Helvetica,sans-Serif" font-size="10.00">compat/compat.h</text>
</a>
</g>
</g>
<!-- Node2&#45;&gt;Node5 -->
<g id="edge4_Node000002_Node000005" class="edge">
<title>Node2&#45;&gt;Node5</title>
<g id="a_edge4_Node000002_Node000005"><a xlink:title=" ">
<path fill="none" stroke="#63b8ff" d="M1567.76,-164.75C1574.96,-157.11 1585.61,-145.82 1594.35,-136.56"/>
<polygon fill="#63b8ff" stroke="#63b8ff" points="1597.08,-138.76 1601.4,-129.09 1591.99,-133.96 1597.08,-138.76"/>
</a>
</g>
</g>
<!-- Node6 -->
<g id="Node000006" class="node">
<title>Node6</title>
<g id="a_Node000006"><a xlink:href="osdetect_8h.html" target="_top" xlink:title=" ">
<polygon fill="white" stroke="#666666" points="107,-74 0,-74 0,-55 107,-55 107,-74"/>
<text text-anchor="middle" x="53.5" y="-62" font-family="Helvetica,sans-Serif" font-size="10.00">compat/osdetect.h</text>
</a>
</g>
</g>
<!-- Node5&#45;&gt;Node6 -->
<g id="edge5_Node000005_Node000006" class="edge">
<title>Node5&#45;&gt;Node6</title>
<g id="a_edge5_Node000005_Node000006"><a xlink:title=" ">
<path fill="none" stroke="#63b8ff" d="M1558.48,-110.86C1555.45,-110.54 1552.44,-110.24 1549.5,-110 918.01,-57.51 753.34,-123.95 117.42,-73.95"/>
<polygon fill="#63b8ff" stroke="#63b8ff" points="117.32,-70.43 107.07,-73.13 116.77,-77.41 117.32,-70.43"/>
</a>
</g>
</g>
<!-- Node7 -->
<g id="Node000007" class="node">
<title>Node7</title>
<g id="a_Node000007"><a xlink:href="fdsetsize_8h.html" target="_top" xlink:title=" ">
<polygon fill="white" stroke="#666666" points="235.5,-74 125.5,-74 125.5,-55 235.5,-55 235.5,-74"/>
<text text-anchor="middle" x="180.5" y="-62" font-family="Helvetica,sans-Serif" font-size="10.00">compat/fdsetsize.h</text>
</a>
</g>
</g>
<!-- Node5&#45;&gt;Node7 -->
<g id="edge6_Node000005_Node000007" class="edge">
<title>Node5&#45;&gt;Node7</title>
<g id="a_edge6_Node000005_Node000007"><a xlink:title=" ">
<path fill="none" stroke="#63b8ff" d="M1558.48,-110.87C1555.45,-110.54 1552.44,-110.25 1549.5,-110 974.72,-61.52 824.63,-119.57 245.9,-74.01"/>
<polygon fill="#63b8ff" stroke="#63b8ff" points="245.86,-70.5 235.62,-73.19 245.31,-77.47 245.86,-70.5"/>
</a>
</g>
</g>
<!-- Node8 -->
<g id="Node000008" class="node">
<title>Node8</title>
<g id="a_Node000008"><a xlink:href="types_8h.html" target="_top" xlink:title=" ">
<polygon fill="#fff0f0" stroke="red" points="345.5,-74 253.5,-74 253.5,-55 345.5,-55 345.5,-74"/>
<text text-anchor="middle" x="299.5" y="-62" font-family="Helvetica,sans-Serif" font-size="10.00">compat/types.h</text>
</a>
</g>
</g>
<!-- Node5&#45;&gt;Node8 -->
<g id="edge7_Node000005_Node000008" class="edge">
<title>Node5&#45;&gt;Node8</title>
<g id="a_edge7_Node000005_Node000008"><a xlink:title=" ">
<path fill="none" stroke="#63b8ff" d="M1558.48,-110.88C1555.45,-110.55 1552.44,-110.25 1549.5,-110 1023.45,-64.95 885.37,-121.94 355.86,-73.99"/>
<polygon fill="#63b8ff" stroke="#63b8ff" points="355.94,-70.48 345.66,-73.06 355.3,-77.45 355.94,-70.48"/>
</a>
</g>
</g>
<!-- Node10 -->
<g id="Node000010" class="node">
<title>Node10</title>
<g id="a_Node000010"><a xlink:href="aix_8h.html" target="_top" xlink:title=" ">
<polygon fill="white" stroke="#666666" points="459,-74 364,-74 364,-55 459,-55 459,-74"/>
<text text-anchor="middle" x="411.5" y="-62" font-family="Helvetica,sans-Serif" font-size="10.00">compat/os/aix.h</text>
</a>
</g>
</g>
<!-- Node5&#45;&gt;Node10 -->
<g id="edge8_Node000005_Node000010" class="edge">
<title>Node5&#45;&gt;Node10</title>
<g id="a_edge8_Node000005_Node000010"><a xlink:title=" ">
<path fill="none" stroke="#63b8ff" d="M1558.48,-110.89C1555.45,-110.56 1552.43,-110.26 1549.5,-110 1073.88,-68.51 948.94,-116.85 469,-73.91"/>
<polygon fill="#63b8ff" stroke="#63b8ff" points="469.31,-70.42 459.04,-73.01 468.68,-77.39 469.31,-70.42"/>
</a>
</g>
</g>
<!-- Node11 -->
<g id="Node000011" class="node">
<title>Node11</title>
<g id="a_Node000011"><a xlink:href="android_8h.html" target="_top" xlink:title=" ">
<polygon fill="white" stroke="#666666" points="593.5,-74 477.5,-74 477.5,-55 593.5,-55 593.5,-74"/>
<text text-anchor="middle" x="535.5" y="-62" font-family="Helvetica,sans-Serif" font-size="10.00">compat/os/android.h</text>
</a>
</g>
</g>
<!-- Node5&#45;&gt;Node11 -->
<g id="edge9_Node000005_Node000011" class="edge">
<title>Node5&#45;&gt;Node11</title>
<g id="a_edge9_Node000005_Node000011"><a xlink:title=" ">
<path fill="none" stroke="#63b8ff" d="M1558.48,-110.91C1555.44,-110.57 1552.43,-110.26 1549.5,-110 1133.27,-72.7 1023.98,-107.98 603.56,-74"/>
<polygon fill="#63b8ff" stroke="#63b8ff" points="603.82,-70.51 593.57,-73.19 603.25,-77.49 603.82,-70.51"/>
</a>
</g>
</g>
<!-- Node12 -->
<g id="Node000012" class="node">
<title>Node12</title>
<g id="a_Node000012"><a xlink:href="dragonfly_8h.html" target="_top" xlink:title=" ">
<polygon fill="white" stroke="#666666" points="735.5,-74 611.5,-74 611.5,-55 735.5,-55 735.5,-74"/>
<text text-anchor="middle" x="673.5" y="-62" font-family="Helvetica,sans-Serif" font-size="10.00">compat/os/dragonfly.h</text>
</a>
</g>
</g>
<!-- Node5&#45;&gt;Node12 -->
<g id="edge10_Node000005_Node000012" class="edge">
<title>Node5&#45;&gt;Node12</title>
<g id="a_edge10_Node000005_Node000012"><a xlink:title=" ">
<path fill="none" stroke="#63b8ff" d="M1558.48,-110.93C1555.44,-110.59 1552.43,-110.27 1549.5,-110 1196.21,-77.15 1103.15,-102.82 745.92,-74.05"/>
<polygon fill="#63b8ff" stroke="#63b8ff" points="746.06,-70.55 735.81,-73.23 745.49,-77.53 746.06,-70.55"/>
</a>
</g>
</g>
<!-- Node13 -->
<g id="Node000013" class="node">
<title>Node13</title>
<g id="a_Node000013"><a xlink:href="freebsd_8h.html" target="_top" xlink:title=" ">
<polygon fill="white" stroke="#666666" points="869.5,-74 753.5,-74 753.5,-55 869.5,-55 869.5,-74"/>
<text text-anchor="middle" x="811.5" y="-62" font-family="Helvetica,sans-Serif" font-size="10.00">compat/os/freebsd.h</text>
</a>
</g>
</g>
<!-- Node5&#45;&gt;Node13 -->
<g id="edge11_Node000005_Node000013" class="edge">
<title>Node5&#45;&gt;Node13</title>
<g id="a_edge11_Node000005_Node000013"><a xlink:title=" ">
<path fill="none" stroke="#63b8ff" d="M1558.47,-110.96C1555.44,-110.61 1552.43,-110.29 1549.5,-110 1255.6,-81.35 1177.69,-100.37 879.81,-74.04"/>
<polygon fill="#63b8ff" stroke="#63b8ff" points="879.85,-70.53 869.58,-73.13 879.23,-77.51 879.85,-70.53"/>
</a>
</g>
</g>
<!-- Node14 -->
<g id="Node000014" class="node">
<title>Node14</title>
<g id="a_Node000014"><a xlink:href="hpux_8h.html" target="_top" xlink:title=" ">
<polygon fill="white" stroke="#666666" points="991.5,-74 887.5,-74 887.5,-55 991.5,-55 991.5,-74"/>
<text text-anchor="middle" x="939.5" y="-62" font-family="Helvetica,sans-Serif" font-size="10.00">compat/os/hpux.h</text>
</a>
</g>
</g>
<!-- Node5&#45;&gt;Node14 -->
<g id="edge12_Node000005_Node000014" class="edge">
<title>Node5&#45;&gt;Node14</title>
<g id="a_edge12_Node000005_Node000014"><a xlink:title=" ">
<path fill="none" stroke="#63b8ff" d="M1558.47,-111C1555.44,-110.64 1552.43,-110.3 1549.5,-110 1309.6,-85.18 1245.5,-98.51 1001.95,-74.07"/>
<polygon fill="#63b8ff" stroke="#63b8ff" points="1002.02,-70.56 991.71,-73.03 1001.31,-77.52 1002.02,-70.56"/>
</a>
</g>
</g>
<!-- Node15 -->
<g id="Node000015" class="node">
<title>Node15</title>
<g id="a_Node000015"><a xlink:href="linux_8h.html" target="_top" xlink:title=" ">
<polygon fill="white" stroke="#666666" points="1113.5,-74 1009.5,-74 1009.5,-55 1113.5,-55 1113.5,-74"/>
<text text-anchor="middle" x="1061.5" y="-62" font-family="Helvetica,sans-Serif" font-size="10.00">compat/os/linux.h</text>
</a>
</g>
</g>
<!-- Node5&#45;&gt;Node15 -->
<g id="edge13_Node000005_Node000015" class="edge">
<title>Node5&#45;&gt;Node15</title>
<g id="a_edge13_Node000005_Node000015"><a xlink:title=" ">
<path fill="none" stroke="#63b8ff" d="M1558.46,-111.07C1555.43,-110.69 1552.43,-110.33 1549.5,-110 1363.49,-89 1313.47,-94.94 1123.74,-74.08"/>
<polygon fill="#63b8ff" stroke="#63b8ff" points="1124.05,-70.59 1113.72,-72.97 1123.27,-77.55 1124.05,-70.59"/>
</a>
</g>
</g>
<!-- Node16 -->
<g id="Node000016" class="node">
<title>Node16</title>
<g id="a_Node000016"><a xlink:href="macosx_8h.html" target="_top" xlink:title=" ">
<polygon fill="white" stroke="#666666" points="1249.5,-74 1131.5,-74 1131.5,-55 1249.5,-55 1249.5,-74"/>
<text text-anchor="middle" x="1190.5" y="-62" font-family="Helvetica,sans-Serif" font-size="10.00">compat/os/macosx.h</text>
</a>
</g>
</g>
<!-- Node5&#45;&gt;Node16 -->
<g id="edge14_Node000005_Node000016" class="edge">
<title>Node5&#45;&gt;Node16</title>
<g id="a_edge14_Node000005_Node000016"><a xlink:title=" ">
<path fill="none" stroke="#63b8ff" d="M1558.45,-111.2C1555.42,-110.79 1552.42,-110.39 1549.5,-110 1423.59,-93.29 1389.54,-90.23 1260.15,-74.2"/>
<polygon fill="#63b8ff" stroke="#63b8ff" points="1260.19,-70.68 1249.84,-72.92 1259.33,-77.63 1260.19,-70.68"/>
</a>
</g>
</g>
<!-- Node17 -->
<g id="Node000017" class="node">
<title>Node17</title>
<g id="a_Node000017"><a xlink:href="mingw_8h.html" target="_top" xlink:title=" ">
<polygon fill="white" stroke="#666666" points="1379.5,-74 1267.5,-74 1267.5,-55 1379.5,-55 1379.5,-74"/>
<text text-anchor="middle" x="1323.5" y="-62" font-family="Helvetica,sans-Serif" font-size="10.00">compat/os/mingw.h</text>
</a>
</g>
</g>
<!-- Node5&#45;&gt;Node17 -->
<g id="edge15_Node000005_Node000017" class="edge">
<title>Node5&#45;&gt;Node17</title>
<g id="a_edge15_Node000005_Node000017"><a xlink:title=" ">
<path fill="none" stroke="#63b8ff" d="M1563.55,-109.98C1513.56,-100.72 1433.61,-85.9 1379.86,-75.94"/>
<polygon fill="#63b8ff" stroke="#63b8ff" points="1380.28,-72.46 1369.81,-74.08 1379.01,-79.35 1380.28,-72.46"/>
</a>
</g>
</g>
<!-- Node18 -->
<g id="Node000018" class="node">
<title>Node18</title>
<g id="a_Node000018"><a xlink:href="mswindows_8h.html" target="_top" xlink:title=" ">
<polygon fill="white" stroke="#666666" points="1535,-74 1398,-74 1398,-55 1535,-55 1535,-74"/>
<text text-anchor="middle" x="1466.5" y="-62" font-family="Helvetica,sans-Serif" font-size="10.00">compat/os/mswindows.h</text>
</a>
</g>
</g>
<!-- Node5&#45;&gt;Node18 -->
<g id="edge16_Node000005_Node000018" class="edge">
<title>Node5&#45;&gt;Node18</title>
<g id="a_edge16_Node000005_Node000018"><a xlink:title=" ">
<path fill="none" stroke="#63b8ff" d="M1586.52,-109.98C1563,-101.27 1526.21,-87.63 1499.56,-77.75"/>
<polygon fill="#63b8ff" stroke="#63b8ff" points="1500.49,-74.36 1489.89,-74.17 1498.05,-80.93 1500.49,-74.36"/>
</a>
</g>
</g>
<!-- Node19 -->
<g id="Node000019" class="node">
<title>Node19</title>
<g id="a_Node000019"><a xlink:href="netbsd_8h.html" target="_top" xlink:title=" ">
<polygon fill="white" stroke="#666666" points="1666,-74 1553,-74 1553,-55 1666,-55 1666,-74"/>
<text text-anchor="middle" x="1609.5" y="-62" font-family="Helvetica,sans-Serif" font-size="10.00">compat/os/netbsd.h</text>
</a>
</g>
</g>
<!-- Node5&#45;&gt;Node19 -->
<g id="edge17_Node000005_Node000019" class="edge">
<title>Node5&#45;&gt;Node19</title>
<g id="a_edge17_Node000005_Node000019"><a xlink:title=" ">
<path fill="none" stroke="#63b8ff" d="M1609.5,-109.75C1609.5,-102.8 1609.5,-92.85 1609.5,-84.13"/>
<polygon fill="#63b8ff" stroke="#63b8ff" points="1613,-84.09 1609.5,-74.09 1606,-84.09 1613,-84.09"/>
</a>
</g>
</g>
<!-- Node20 -->
<g id="Node000020" class="node">
<title>Node20</title>
<g id="a_Node000020"><a xlink:href="openbsd_8h.html" target="_top" xlink:title=" ">
<polygon fill="white" stroke="#666666" points="1805,-74 1684,-74 1684,-55 1805,-55 1805,-74"/>
<text text-anchor="middle" x="1744.5" y="-62" font-family="Helvetica,sans-Serif" font-size="10.00">compat/os/openbsd.h</text>
</a>
</g>
</g>
<!-- Node5&#45;&gt;Node20 -->
<g id="edge18_Node000005_Node000020" class="edge">
<title>Node5&#45;&gt;Node20</title>
<g id="a_edge18_Node000005_Node000020"><a xlink:title=" ">
<path fill="none" stroke="#63b8ff" d="M1631.19,-109.98C1653.3,-101.3 1687.82,-87.75 1712.95,-77.88"/>
<polygon fill="#63b8ff" stroke="#63b8ff" points="1714.39,-81.08 1722.42,-74.17 1711.83,-74.57 1714.39,-81.08"/>
</a>
</g>
</g>
<!-- Node21 -->
<g id="Node000021" class="node">
<title>Node21</title>
<g id="a_Node000021"><a xlink:href="os2_8h.html" target="_top" xlink:title=" ">
<polygon fill="white" stroke="#666666" points="1920,-74 1823,-74 1823,-55 1920,-55 1920,-74"/>
<text text-anchor="middle" x="1871.5" y="-62" font-family="Helvetica,sans-Serif" font-size="10.00">compat/os/os2.h</text>
</a>
</g>
</g>
<!-- Node5&#45;&gt;Node21 -->
<g id="edge19_Node000005_Node000021" class="edge">
<title>Node5&#45;&gt;Node21</title>
<g id="a_edge19_Node000005_Node000021"><a xlink:title=" ">
<path fill="none" stroke="#63b8ff" d="M1651.59,-109.98C1697.2,-100.76 1770.02,-86.03 1819.25,-76.07"/>
<polygon fill="#63b8ff" stroke="#63b8ff" points="1819.97,-79.5 1829.08,-74.08 1818.58,-72.63 1819.97,-79.5"/>
</a>
</g>
</g>
<!-- Node22 -->
<g id="Node000022" class="node">
<title>Node22</title>
<g id="a_Node000022"><a xlink:href="qnx_8h.html" target="_top" xlink:title=" ">
<polygon fill="white" stroke="#666666" points="2036.5,-74 1938.5,-74 1938.5,-55 2036.5,-55 2036.5,-74"/>
<text text-anchor="middle" x="1987.5" y="-62" font-family="Helvetica,sans-Serif" font-size="10.00">compat/os/qnx.h</text>
</a>
</g>
</g>
<!-- Node5&#45;&gt;Node22 -->
<g id="edge20_Node000005_Node000022" class="edge">
<title>Node5&#45;&gt;Node22</title>
<g id="a_edge20_Node000005_Node000022"><a xlink:title=" ">
<path fill="none" stroke="#63b8ff" d="M1660.62,-111.44C1721.59,-103 1826.9,-88.38 1928.15,-74.04"/>
<polygon fill="#63b8ff" stroke="#63b8ff" points="1928.84,-77.48 1938.25,-72.61 1927.85,-70.55 1928.84,-77.48"/>
</a>
</g>
</g>
<!-- Node23 -->
<g id="Node000023" class="node">
<title>Node23</title>
<g id="a_Node000023"><a xlink:href="solaris_8h.html" target="_top" xlink:title=" ">
<polygon fill="white" stroke="#666666" points="2166.5,-74 2054.5,-74 2054.5,-55 2166.5,-55 2166.5,-74"/>
<text text-anchor="middle" x="2110.5" y="-62" font-family="Helvetica,sans-Serif" font-size="10.00">compat/os/solaris.h</text>
</a>
</g>
</g>
<!-- Node5&#45;&gt;Node23 -->
<g id="edge21_Node000005_Node000023" class="edge">
<title>Node5&#45;&gt;Node23</title>
<g id="a_edge21_Node000005_Node000023"><a xlink:title=" ">
<path fill="none" stroke="#63b8ff" d="M1660.56,-113.76C1740.21,-106.27 1899.09,-90.9 2044.49,-74.09"/>
<polygon fill="#63b8ff" stroke="#63b8ff" points="2044.96,-77.56 2054.49,-72.93 2044.16,-70.6 2044.96,-77.56"/>
</a>
</g>
</g>
<!-- Node24 -->
<g id="Node000024" class="node">
<title>Node24</title>
<g id="a_Node000024"><a xlink:href="sunos_8h.html" target="_top" xlink:title=" ">
<polygon fill="white" stroke="#666666" points="2292.5,-74 2184.5,-74 2184.5,-55 2292.5,-55 2292.5,-74"/>
<text text-anchor="middle" x="2238.5" y="-62" font-family="Helvetica,sans-Serif" font-size="10.00">compat/os/sunos.h</text>
</a>
</g>
</g>
<!-- Node5&#45;&gt;Node24 -->
<g id="edge22_Node000005_Node000024" class="edge">
<title>Node5&#45;&gt;Node24</title>
<g id="a_edge22_Node000005_Node000024"><a xlink:title=" ">
<path fill="none" stroke="#63b8ff" d="M1660.71,-115.43C1758.41,-109.37 1978.41,-94.72 2174.05,-74.1"/>
<polygon fill="#63b8ff" stroke="#63b8ff" points="2174.65,-77.55 2184.23,-73.02 2173.91,-70.59 2174.65,-77.55"/>
</a>
</g>
</g>
<!-- Node25 -->
<g id="Node000025" class="node">
<title>Node25</title>
<g id="a_Node000025"><a xlink:href="assert_8h.html" target="_top" xlink:title=" ">
<polygon fill="white" stroke="#666666" points="2406,-74 2311,-74 2311,-55 2406,-55 2406,-74"/>
<text text-anchor="middle" x="2358.5" y="-62" font-family="Helvetica,sans-Serif" font-size="10.00">compat/assert.h</text>
</a>
</g>
</g>
<!-- Node5&#45;&gt;Node25 -->
<g id="edge23_Node000005_Node000025" class="edge">
<title>Node5&#45;&gt;Node25</title>
<g id="a_edge23_Node000005_Node000025"><a xlink:title=" ">
<path fill="none" stroke="#63b8ff" d="M1660.84,-116.67C1774.26,-112.31 2054.87,-99.79 2300.75,-73.98"/>
<polygon fill="#63b8ff" stroke="#63b8ff" points="2301.38,-77.43 2310.95,-72.89 2300.64,-70.47 2301.38,-77.43"/>
</a>
</g>
</g>
<!-- Node26 -->
<g id="Node000026" class="node">
<title>Node26</title>
<g id="a_Node000026"><a xlink:href="compat__shared_8h.html" target="_top" xlink:title=" ">
<polygon fill="#fff0f0" stroke="red" points="2564.5,-74 2424.5,-74 2424.5,-55 2564.5,-55 2564.5,-74"/>
<text text-anchor="middle" x="2494.5" y="-62" font-family="Helvetica,sans-Serif" font-size="10.00">compat/compat_shared.h</text>
</a>
</g>
</g>
<!-- Node5&#45;&gt;Node26 -->
<g id="edge24_Node000005_Node000026" class="edge">
<title>Node5&#45;&gt;Node26</title>
<g id="a_edge24_Node000005_Node000026"><a xlink:title=" ">
<path fill="none" stroke="#63b8ff" d="M1660.89,-116.56C1787.04,-111.61 2122.26,-97.28 2413.92,-74"/>
<polygon fill="#63b8ff" stroke="#63b8ff" points="2414.59,-77.45 2424.28,-73.16 2414.03,-70.48 2414.59,-77.45"/>
</a>
</g>
</g>
<!-- Node36 -->
<g id="Node000036" class="node">
<title>Node36</title>
<g id="a_Node000036"><a xlink:href="stdvarargs_8h.html" target="_top" xlink:title=" ">
<polygon fill="#fff0f0" stroke="red" points="2700,-74 2583,-74 2583,-55 2700,-55 2700,-74"/>
<text text-anchor="middle" x="2641.5" y="-62" font-family="Helvetica,sans-Serif" font-size="10.00">compat/stdvarargs.h</text>
</a>
</g>
</g>
<!-- Node5&#45;&gt;Node36 -->
<g id="edge25_Node000005_Node000036" class="edge">
<title>Node5&#45;&gt;Node36</title>
<g id="a_edge25_Node000005_Node000036"><a xlink:title=" ">
<path fill="none" stroke="#63b8ff" d="M1660.54,-117.55C1803.05,-114.6 2217.46,-103.96 2572.95,-73.96"/>
<polygon fill="#63b8ff" stroke="#63b8ff" points="2573.26,-77.45 2582.93,-73.12 2572.66,-70.48 2573.26,-77.45"/>
</a>
</g>
</g>
<!-- Node38 -->
<g id="Node000038" class="node">
<title>Node38</title>
<g id="a_Node000038"><a xlink:href="stdio_8h.html" target="_top" xlink:title=" ">
<polygon fill="#fff0f0" stroke="red" points="2807,-74 2718,-74 2718,-55 2807,-55 2807,-74"/>
<text text-anchor="middle" x="2762.5" y="-62" font-family="Helvetica,sans-Serif" font-size="10.00">compat/stdio.h</text>
</a>
</g>
</g>
<!-- Node5&#45;&gt;Node38 -->
<g id="edge26_Node000005_Node000038" class="edge">
<title>Node5&#45;&gt;Node38</title>
<g id="a_edge26_Node000005_Node000038"><a xlink:title=" ">
<path fill="none" stroke="#63b8ff" d="M1660.59,-118.53C1816.22,-118.17 2298.25,-113.75 2707.8,-73.93"/>
<polygon fill="#63b8ff" stroke="#63b8ff" points="2708.15,-77.41 2717.76,-72.95 2707.47,-70.44 2708.15,-77.41"/>
</a>
</g>
</g>
<!-- Node40 -->
<g id="Node000040" class="node">
<title>Node40</title>
<g id="a_Node000040"><a xlink:href="statvfs_8h.html" target="_top" xlink:title=" ">
<polygon fill="white" stroke="#666666" points="2924,-74 2825,-74 2825,-55 2924,-55 2924,-74"/>
<text text-anchor="middle" x="2874.5" y="-62" font-family="Helvetica,sans-Serif" font-size="10.00">compat/statvfs.h</text>
</a>
</g>
</g>
<!-- Node5&#45;&gt;Node40 -->
<g id="edge27_Node000005_Node000040" class="edge">
<title>Node5&#45;&gt;Node40</title>
<g id="a_edge27_Node000005_Node000040"><a xlink:title=" ">
<path fill="none" stroke="#63b8ff" d="M1660.76,-118.55C1826.28,-118.31 2361.55,-114.3 2814.95,-73.92"/>
<polygon fill="#63b8ff" stroke="#63b8ff" points="2815.32,-77.41 2824.97,-73.02 2814.7,-70.43 2815.32,-77.41"/>
</a>
</g>
</g>
<!-- Node41 -->
<g id="Node000041" class="node">
<title>Node41</title>
<g id="a_Node000041"><a xlink:href="debug_8h.html" target="_top" xlink:title=" ">
<polygon fill="white" stroke="#666666" points="3037,-74 2942,-74 2942,-55 3037,-55 3037,-74"/>
<text text-anchor="middle" x="2989.5" y="-62" font-family="Helvetica,sans-Serif" font-size="10.00">compat/debug.h</text>
</a>
</g>
</g>
<!-- Node5&#45;&gt;Node41 -->
<g id="edge28_Node000005_Node000041" class="edge">
<title>Node5&#45;&gt;Node41</title>
<g id="a_edge28_Node000005_Node000041"><a xlink:title=" ">
<path fill="none" stroke="#63b8ff" d="M1660.71,-118.88C1836.38,-119.74 2430.81,-118.98 2932,-73.91"/>
<polygon fill="#63b8ff" stroke="#63b8ff" points="2932.32,-77.39 2941.96,-73 2931.69,-70.42 2932.32,-77.39"/>
</a>
</g>
</g>
<!-- Node45 -->
<g id="Node000045" class="node">
<title>Node45</title>
<g id="a_Node000045"><a xlink:href="acl_2forward_8h.html" target="_top" xlink:title=" ">
<polygon fill="#fff0f0" stroke="red" points="3135.5,-74 3055.5,-74 3055.5,-55 3135.5,-55 3135.5,-74"/>
<text text-anchor="middle" x="3095.5" y="-62" font-family="Helvetica,sans-Serif" font-size="10.00">acl/forward.h</text>
</a>
</g>
</g>
<!-- Node44&#45;&gt;Node45 -->
<g id="edge30_Node000044_Node000045" class="edge">
<title>Node44&#45;&gt;Node45</title>
<g id="a_edge30_Node000044_Node000045"><a xlink:title=" ">
<path fill="none" stroke="#63b8ff" d="M3222.87,-168.75C3190.02,-163.35 3151.84,-152.12 3124.5,-129 3110.93,-117.52 3103.39,-98.36 3099.43,-84.08"/>
<polygon fill="#63b8ff" stroke="#63b8ff" points="3102.82,-83.21 3097.05,-74.33 3096.02,-84.87 3102.82,-83.21"/>
</a>
</g>
</g>
<!-- Node50 -->
<g id="Node000050" class="node">
<title>Node50</title>
<g id="a_Node000050"><a xlink:href="adaptation_2Config_8h.html" target="_top" xlink:title=" ">
<polygon fill="#fff0f0" stroke="red" points="3245.5,-129 3133.5,-129 3133.5,-110 3245.5,-110 3245.5,-129"/>
<text text-anchor="middle" x="3189.5" y="-117" font-family="Helvetica,sans-Serif" font-size="10.00">adaptation/Config.h</text>
</a>
</g>
</g>
<!-- Node44&#45;&gt;Node50 -->
<g id="edge31_Node000044_Node000050" class="edge">
<title>Node44&#45;&gt;Node50</title>
<g id="a_edge31_Node000044_Node000050"><a xlink:title=" ">
<path fill="none" stroke="#63b8ff" d="M3274.27,-164.98C3258.32,-156.61 3233.72,-143.7 3215.12,-133.95"/>
<polygon fill="#63b8ff" stroke="#63b8ff" points="3216.5,-130.72 3206.02,-129.17 3213.25,-136.92 3216.5,-130.72"/>
</a>
</g>
</g>
<!-- Node53 -->
<g id="Node000053" class="node">
<title>Node53</title>
<g id="a_Node000053"><a xlink:href="AsyncCall_8h.html" target="_top" xlink:title=" ">
<polygon fill="#fff0f0" stroke="red" points="3291.5,-74 3191.5,-74 3191.5,-55 3291.5,-55 3291.5,-74"/>
<text text-anchor="middle" x="3241.5" y="-62" font-family="Helvetica,sans-Serif" font-size="10.00">base/AsyncCall.h</text>
</a>
</g>
</g>
<!-- Node44&#45;&gt;Node53 -->
<g id="edge37_Node000044_Node000053" class="edge">
<title>Node44&#45;&gt;Node53</title>
<g id="a_edge37_Node000044_Node000053"><a xlink:title=" ">
<path fill="none" stroke="#63b8ff" d="M3286.49,-164.66C3278.45,-146.93 3260.2,-106.73 3249.58,-83.32"/>
<polygon fill="#63b8ff" stroke="#63b8ff" points="3252.75,-81.82 3245.43,-74.16 3246.37,-84.71 3252.75,-81.82"/>
</a>
</g>
</g>
<!-- Node60 -->
<g id="Node000060" class="node">
<title>Node60</title>
<g id="a_Node000060"><a xlink:href="event_8h.html" target="_top" xlink:title=" ">
<polygon fill="#fff0f0" stroke="red" points="3268,-19 3215,-19 3215,0 3268,0 3268,-19"/>
<text text-anchor="middle" x="3241.5" y="-7" font-family="Helvetica,sans-Serif" font-size="10.00">event.h</text>
</a>
</g>
</g>
<!-- Node44&#45;&gt;Node60 -->
<g id="edge38_Node000044_Node000060" class="edge">
<title>Node44&#45;&gt;Node60</title>
<g id="a_edge38_Node000044_Node000060"><a xlink:title=" ">
<path fill="none" stroke="#63b8ff" d="M3294.13,-164.89C3302.12,-144.53 3319.1,-92.33 3300.5,-55 3293.93,-41.82 3281.4,-31.52 3269.57,-24.16"/>
<polygon fill="#63b8ff" stroke="#63b8ff" points="3271.18,-21.05 3260.77,-19.1 3267.7,-27.12 3271.18,-21.05"/>
</a>
</g>
</g>
<!-- Node103 -->
<g id="Node000103" class="node">
<title>Node103</title>
<g id="a_Node000103"><a xlink:href="icap_2ServiceRep_8h.html" target="_top" xlink:title=" ">
<polygon fill="#fff0f0" stroke="red" points="3504,-129 3345,-129 3345,-110 3504,-110 3504,-129"/>
<text text-anchor="middle" x="3424.5" y="-117" font-family="Helvetica,sans-Serif" font-size="10.00">adaptation/icap/ServiceRep.h</text>
</a>
</g>
</g>
<!-- Node44&#45;&gt;Node103 -->
<g id="edge36_Node000044_Node000103" class="edge">
<title>Node44&#45;&gt;Node103</title>
<g id="a_edge36_Node000044_Node000103"><a xlink:title=" ">
<path fill="none" stroke="#63b8ff" d="M3312.03,-164.98C3333.97,-156.3 3368.24,-142.75 3393.19,-132.88"/>
<polygon fill="#63b8ff" stroke="#63b8ff" points="3394.57,-136.1 3402.58,-129.17 3391.99,-129.59 3394.57,-136.1"/>
</a>
</g>
</g>
<!-- Node50&#45;&gt;Node45 -->
<g id="edge32_Node000050_Node000045" class="edge">
<title>Node50&#45;&gt;Node45</title>
<g id="a_edge32_Node000050_Node000045"><a xlink:title=" ">
<path fill="none" stroke="#63b8ff" d="M3174.4,-109.98C3159.68,-101.69 3137.08,-88.94 3119.83,-79.22"/>
<polygon fill="#63b8ff" stroke="#63b8ff" points="3121.31,-76.03 3110.88,-74.17 3117.87,-82.13 3121.31,-76.03"/>
</a>
</g>
</g>
<!-- Node50&#45;&gt;Node53 -->
<g id="edge33_Node000050_Node000053" class="edge">
<title>Node50&#45;&gt;Node53</title>
<g id="a_edge33_Node000050_Node000053"><a xlink:title=" ">
<path fill="none" stroke="#63b8ff" d="M3198.09,-109.75C3205.66,-102.03 3216.88,-90.6 3226.01,-81.28"/>
<polygon fill="#63b8ff" stroke="#63b8ff" points="3228.57,-83.68 3233.07,-74.09 3223.57,-78.78 3228.57,-83.68"/>
</a>
</g>
</g>
<!-- Node50&#45;&gt;Node60 -->
<g id="edge35_Node000050_Node000060" class="edge">
<title>Node50&#45;&gt;Node60</title>
<g id="a_edge35_Node000050_Node000060"><a xlink:title=" ">
<path fill="none" stroke="#63b8ff" d="M3185.66,-109.76C3180.67,-97 3173.6,-72.87 3182.5,-55 3189.07,-41.82 3201.6,-31.52 3213.43,-24.16"/>
<polygon fill="#63b8ff" stroke="#63b8ff" points="3215.3,-27.12 3222.23,-19.1 3211.82,-21.05 3215.3,-27.12"/>
</a>
</g>
</g>
<!-- Node53&#45;&gt;Node60 -->
<g id="edge34_Node000053_Node000060" class="edge">
<title>Node53&#45;&gt;Node60</title>
<g id="a_edge34_Node000053_Node000060"><a xlink:title=" ">
<path fill="none" stroke="#63b8ff" d="M3241.5,-54.75C3241.5,-47.8 3241.5,-37.85 3241.5,-29.13"/>
<polygon fill="#63b8ff" stroke="#63b8ff" points="3245,-29.09 3241.5,-19.09 3238,-29.09 3245,-29.09"/>
</a>
</g>
</g>
<!-- Node194&#45;&gt;Node103 -->
<g id="edge40_Node000194_Node000103" class="edge">
<title>Node194&#45;&gt;Node103</title>
<g id="a_edge40_Node000194_Node000103"><a xlink:title=" ">
<path fill="none" stroke="#63b8ff" d="M3465.41,-164.75C3458.34,-157.11 3447.91,-145.82 3439.35,-136.56"/>
<polygon fill="#63b8ff" stroke="#63b8ff" points="3441.8,-134.06 3432.44,-129.09 3436.66,-138.81 3441.8,-134.06"/>
</a>
</g>
</g>
<!-- Node73 -->
<g id="Node000073" class="node">
<title>Node73</title>
<g id="a_Node000073"><a xlink:href="Assure_8h.html" target="_top" xlink:title=" ">
<polygon fill="white" stroke="#666666" points="3607,-129 3522,-129 3522,-110 3607,-110 3607,-129"/>
<text text-anchor="middle" x="3564.5" y="-117" font-family="Helvetica,sans-Serif" font-size="10.00">base/Assure.h</text>
</a>
</g>
</g>
<!-- Node72&#45;&gt;Node73 -->
<g id="edge42_Node000072_Node000073" class="edge">
<title>Node72&#45;&gt;Node73</title>
<g id="a_edge42_Node000072_Node000073"><a xlink:title=" ">
<path fill="none" stroke="#63b8ff" d="M3624.09,-164.98C3613.39,-157 3597.16,-144.88 3584.34,-135.31"/>
<polygon fill="#63b8ff" stroke="#63b8ff" points="3586.22,-132.35 3576.11,-129.17 3582.03,-137.96 3586.22,-132.35"/>
</a>
</g>
</g>
<!-- Node74 -->
<g id="Node000074" class="node">
<title>Node74</title>
<g id="a_Node000074"><a xlink:href="Here_8h.html" target="_top" xlink:title=" ">
<polygon fill="#fff0f0" stroke="red" points="3638,-74 3563,-74 3563,-55 3638,-55 3638,-74"/>
<text text-anchor="middle" x="3600.5" y="-62" font-family="Helvetica,sans-Serif" font-size="10.00">base/Here.h</text>
</a>
</g>
</g>
<!-- Node72&#45;&gt;Node74 -->
<g id="edge44_Node000072_Node000074" class="edge">
<title>Node72&#45;&gt;Node74</title>
<g id="a_edge44_Node000072_Node000074"><a xlink:title=" ">
<path fill="none" stroke="#63b8ff" d="M3632.84,-164.85C3629.05,-152.62 3621.88,-129.56 3615.5,-110 3612.65,-101.27 3609.41,-91.61 3606.67,-83.52"/>
<polygon fill="#63b8ff" stroke="#63b8ff" points="3609.96,-82.35 3603.43,-74.01 3603.34,-84.61 3609.96,-82.35"/>
</a>
</g>
</g>
<!-- Node75 -->
<g id="Node000075" class="node">
<title>Node75</title>
<g id="a_Node000075"><a xlink:title=" ">
<polygon fill="#e0e0e0" stroke="#999999" points="3729,-129 3664,-129 3664,-110 3729,-110 3729,-129"/>
<text text-anchor="middle" x="3696.5" y="-117" font-family="Helvetica,sans-Serif" font-size="10.00">stdexcept</text>
</a>
</g>
</g>
<!-- Node72&#45;&gt;Node75 -->
<g id="edge45_Node000072_Node000075" class="edge">
<title>Node72&#45;&gt;Node75</title>
<g id="a_edge45_Node000072_Node000075"><a xlink:title=" ">
<path fill="none" stroke="#63b8ff" d="M3645.3,-164.98C3654.32,-157.15 3667.91,-145.34 3678.82,-135.86"/>
<polygon fill="#63b8ff" stroke="#63b8ff" points="3681.27,-138.37 3686.52,-129.17 3676.68,-133.09 3681.27,-138.37"/>
</a>
</g>
</g>
<!-- Node73&#45;&gt;Node74 -->
<g id="edge43_Node000073_Node000074" class="edge">
<title>Node73&#45;&gt;Node74</title>
<g id="a_edge43_Node000073_Node000074"><a xlink:title=" ">
<path fill="none" stroke="#63b8ff" d="M3570.44,-109.75C3575.48,-102.34 3582.84,-91.5 3589.01,-82.41"/>
<polygon fill="#63b8ff" stroke="#63b8ff" points="3591.94,-84.33 3594.67,-74.09 3586.15,-80.39 3591.94,-84.33"/>
</a>
</g>
</g>
<!-- Node196 -->
<g id="Node000196" class="node">
<title>Node196</title>
<g id="a_Node000196"><a xlink:href="StatusLine_8h.html" target="_top" xlink:title=" ">
<polygon fill="#fff0f0" stroke="red" points="3846,-129 3747,-129 3747,-110 3846,-110 3846,-129"/>
<text text-anchor="middle" x="3796.5" y="-117" font-family="Helvetica,sans-Serif" font-size="10.00">http/StatusLine.h</text>
</a>
</g>
</g>
<!-- Node195&#45;&gt;Node196 -->
<g id="edge47_Node000195_Node000196" class="edge">
<title>Node195&#45;&gt;Node196</title>
<g id="a_edge47_Node000195_Node000196"><a xlink:title=" ">
<path fill="none" stroke="#63b8ff" d="M3839.08,-164.75C3831.73,-157.11 3820.87,-145.82 3811.96,-136.56"/>
<polygon fill="#63b8ff" stroke="#63b8ff" points="3814.22,-133.87 3804.76,-129.09 3809.18,-138.72 3814.22,-133.87"/>
</a>
</g>
</g>
<!-- Node197 -->
<g id="Node000197" class="node">
<title>Node197</title>
<g id="a_Node000197"><a xlink:href="HttpBody_8h.html" target="_top" xlink:title=" ">
<polygon fill="#fff0f0" stroke="red" points="3934.5,-129 3864.5,-129 3864.5,-110 3934.5,-110 3934.5,-129"/>
<text text-anchor="middle" x="3899.5" y="-117" font-family="Helvetica,sans-Serif" font-size="10.00">HttpBody.h</text>
</a>
</g>
</g>
<!-- Node195&#45;&gt;Node197 -->
<g id="edge48_Node000195_Node000197" class="edge">
<title>Node195&#45;&gt;Node197</title>
<g id="a_edge48_Node000195_Node000197"><a xlink:title=" ">
<path fill="none" stroke="#63b8ff" d="M3856.09,-164.75C3863.66,-157.03 3874.88,-145.6 3884.01,-136.28"/>
<polygon fill="#63b8ff" stroke="#63b8ff" points="3886.57,-138.68 3891.07,-129.09 3881.57,-133.78 3886.57,-138.68"/>
</a>
</g>
</g>
<!-- Node198 -->
<g id="Node000198" class="node">
<title>Node198</title>
<g id="a_Node000198"><a xlink:href="HttpRequest_8h.html" target="_top" xlink:title=" ">
<polygon fill="#fff0f0" stroke="red" points="4038.5,-129 3952.5,-129 3952.5,-110 4038.5,-110 4038.5,-129"/>
<text text-anchor="middle" x="3995.5" y="-117" font-family="Helvetica,sans-Serif" font-size="10.00">HttpRequest.h</text>
</a>
</g>
</g>
<!-- Node195&#45;&gt;Node198 -->
<g id="edge49_Node000195_Node000198" class="edge">
<title>Node195&#45;&gt;Node198</title>
<g id="a_edge49_Node000195_Node000198"><a xlink:title=" ">
<path fill="none" stroke="#63b8ff" d="M3871.28,-164.98C3895.73,-156.23 3934.03,-142.51 3961.65,-132.62"/>
<polygon fill="#63b8ff" stroke="#63b8ff" points="3963.05,-135.84 3971.29,-129.17 3960.69,-129.25 3963.05,-135.84"/>
</a>
</g>
</g>
<!-- Node68 -->
<g id="Node000068" class="node">
<title>Node68</title>
<g id="a_Node000068"><a xlink:href="sbuf_2forward_8h.html" target="_top" xlink:title=" ">
<polygon fill="#fff0f0" stroke="red" points="4144,-129 4057,-129 4057,-110 4144,-110 4144,-129"/>
<text text-anchor="middle" x="4100.5" y="-117" font-family="Helvetica,sans-Serif" font-size="10.00">sbuf/forward.h</text>
</a>
</g>
</g>
<!-- Node217&#45;&gt;Node68 -->
<g id="edge51_Node000217_Node000068" class="edge">
<title>Node217&#45;&gt;Node68</title>
<g id="a_edge51_Node000217_Node000068"><a xlink:title=" ">
<path fill="none" stroke="#63b8ff" d="M4100.5,-164.75C4100.5,-157.8 4100.5,-147.85 4100.5,-139.13"/>
<polygon fill="#63b8ff" stroke="#63b8ff" points="4104,-139.09 4100.5,-129.09 4097,-139.09 4104,-139.09"/>
</a>
</g>
</g>
<!-- Node100 -->
<g id="Node000100" class="node">
<title>Node100</title>
<g id="a_Node000100"><a xlink:title=" ">
<polygon fill="#e0e0e0" stroke="#999999" points="4215,-129 4162,-129 4162,-110 4215,-110 4215,-129"/>
<text text-anchor="middle" x="4188.5" y="-117" font-family="Helvetica,sans-Serif" font-size="10.00">iterator</text>
</a>
</g>
</g>
<!-- Node217&#45;&gt;Node100 -->
<g id="edge52_Node000217_Node000100" class="edge">
<title>Node217&#45;&gt;Node100</title>
<g id="a_edge52_Node000217_Node000100"><a xlink:title=" ">
<path fill="none" stroke="#63b8ff" d="M4114.64,-164.98C4128.29,-156.77 4149.19,-144.18 4165.28,-134.49"/>
<polygon fill="#63b8ff" stroke="#63b8ff" points="4167.34,-137.33 4174.1,-129.17 4163.73,-131.33 4167.34,-137.33"/>
</a>
</g>
</g>
<!-- Node218&#45;&gt;Node100 -->
<g id="edge56_Node000218_Node000100" class="edge">
<title>Node218&#45;&gt;Node100</title>
<g id="a_edge56_Node000218_Node000100"><a xlink:title=" ">
<path fill="none" stroke="#63b8ff" d="M4219.39,-164.75C4214.22,-157.34 4206.65,-146.5 4200.31,-137.41"/>
<polygon fill="#63b8ff" stroke="#63b8ff" points="4203.09,-135.29 4194.5,-129.09 4197.35,-139.29 4203.09,-135.29"/>
</a>
</g>
</g>
<!-- Node85 -->
<g id="Node000085" class="node">
<title>Node85</title>
<g id="a_Node000085"><a xlink:href="globals_8h.html" target="_top" xlink:title=" ">
<polygon fill="#fff0f0" stroke="red" points="4294,-129 4233,-129 4233,-110 4294,-110 4294,-129"/>
<text text-anchor="middle" x="4263.5" y="-117" font-family="Helvetica,sans-Serif" font-size="10.00">globals.h</text>
</a>
</g>
</g>
<!-- Node218&#45;&gt;Node85 -->
<g id="edge54_Node000218_Node000085" class="edge">
<title>Node218&#45;&gt;Node85</title>
<g id="a_edge54_Node000218_Node000085"><a xlink:title=" ">
<path fill="none" stroke="#63b8ff" d="M4231.77,-164.75C4237.09,-157.34 4244.86,-146.5 4251.38,-137.41"/>
<polygon fill="#63b8ff" stroke="#63b8ff" points="4254.36,-139.26 4257.34,-129.09 4248.67,-135.18 4254.36,-139.26"/>
</a>
</g>
</g>
<!-- Node219 -->
<g id="Node000219" class="node">
<title>Node219</title>
<g id="a_Node000219"><a xlink:href="List_8h.html" target="_top" xlink:title=" ">
<polygon fill="#fff0f0" stroke="red" points="4379,-129 4312,-129 4312,-110 4379,-110 4379,-129"/>
<text text-anchor="middle" x="4345.5" y="-117" font-family="Helvetica,sans-Serif" font-size="10.00">sbuf/List.h</text>
</a>
</g>
</g>
<!-- Node218&#45;&gt;Node219 -->
<g id="edge55_Node000218_Node000219" class="edge">
<title>Node218&#45;&gt;Node219</title>
<g id="a_edge55_Node000218_Node000219"><a xlink:title=" ">
<path fill="none" stroke="#63b8ff" d="M4244.78,-164.98C4264.17,-156.42 4294.31,-143.11 4316.57,-133.28"/>
<polygon fill="#63b8ff" stroke="#63b8ff" points="4318.14,-136.41 4325.87,-129.17 4315.31,-130.01 4318.14,-136.41"/>
</a>
</g>
</g>
</g>
</svg>

<g id="navigator" transform="translate(0 0)" fill="#404254">
  <rect fill="#f2f5e9" fill-opacity="0.5" stroke="#606060" stroke-width=".5" x="0" y="0" width="60" height="60"/>
  <use id="zoomplus" xlink:href="#zoomPlus" x="17" y="9" onmousedown="handleZoom(evt,'in')"/>
  <use id="zoomminus" xlink:href="#zoomMin" x="42" y="9" onmousedown="handleZoom(evt,'out')"/>
  <use id="reset" xlink:href="#resetDef" x="30" y="36" onmousedown="handleReset()"/>
   <use id="arrowup" xlink:href="#arrowUp" x="0" y="0" onmousedown="handlePan(0,-1)"/>
  <use id="arrowright" xlink:href="#arrowRight" x="0" y="0" onmousedown="handlePan(1,0)"/>
  <use id="arrowdown" xlink:href="#arrowDown" x="0" y="0" onmousedown="handlePan(0,1)"/>
  <use id="arrowleft" xlink:href="#arrowLeft" x="0" y="0" onmousedown="handlePan(-1,0)"/>
</g>
<svg viewBox="0 0 15 15" width="100%" height="30px" preserveAspectRatio="xMaxYMin meet">
 <g id="arrow_out" transform="scale(0.3 0.3)">
  <a xlink:href="adaptation_2icap_2Options_8cc__incl_org.svg" target="_base">
   <rect id="button" ry="5" rx="5" y="6" x="6" height="38" width="38"
        fill="#f2f5e9" fill-opacity="0.5" stroke="#606060" stroke-width="1.0"/>
   <path id="arrow"
     d="M 11.500037,31.436501 C 11.940474,20.09759 22.043105,11.32322 32.158766,21.979434 L 37.068811,17.246167 C 37.068811,17.246167 37.088388,32 37.088388,32 L 22.160133,31.978069 C 22.160133,31.978069 26.997745,27.140456 26.997745,27.140456 C 18.528582,18.264221 13.291696,25.230495 11.500037,31.436501 z"
     style="fill:#404040;"/>
  </a>
 </g>
</svg>

<style type='text/css'>
<![CDATA[
[data-mouse-over-selected='false'] { opacity: 0.7; }
[data-mouse-over-selected='true']  { opacity: 1.0; }
]]>
</style>
<script type="application/ecmascript"><![CDATA[
document.addEventListener('DOMContentLoaded', (event) => {
  highlightEdges();
  highlightAdjacentNodes();
});
]]></script>
</svg>
