<?xml version="1.0" encoding="UTF-8" standalone="no"?>
<!DOCTYPE svg PUBLIC "-//W3C//DTD SVG 1.1//EN"
 "http://www.w3.org/Graphics/SVG/1.1/DTD/svg11.dtd">
<!-- Generated by graphviz version 2.43.0 (0)
 -->
<!-- Title: squid/src/acl/AllOf.cc Pages: 1 -->
<svg width="3081pt" height="357pt"
 viewBox="0.00 0.00 3081.00 357.00" xmlns="http://www.w3.org/2000/svg" xmlns:xlink="http://www.w3.org/1999/xlink">
<g id="graph0" class="graph" transform="scale(1 1) rotate(0) translate(4 353)">
<title>squid/src/acl/AllOf.cc</title>
<!-- Node1 -->
<g id="Node000001" class="node">
<title>Node1</title>
<g id="a_Node000001"><a xlink:title=" ">
<polygon fill="#999999" stroke="#666666" points="2673.5,-349 2556.5,-349 2556.5,-330 2673.5,-330 2673.5,-349"/>
<text text-anchor="middle" x="2615" y="-337" font-family="Helvetica,sans-Serif" font-size="10.00">squid/src/acl/AllOf.cc</text>
</a>
</g>
</g>
<!-- Node2 -->
<g id="Node000002" class="node">
<title>Node2</title>
<g id="a_Node000002"><a xlink:href="squid_8h.html" target="_top" xlink:title=" ">
<polygon fill="white" stroke="#666666" points="1204,-294 1152,-294 1152,-275 1204,-275 1204,-294"/>
<text text-anchor="middle" x="1178" y="-282" font-family="Helvetica,sans-Serif" font-size="10.00">squid.h</text>
</a>
</g>
</g>
<!-- Node1&#45;&gt;Node2 -->
<g id="edge1_Node000001_Node000002" class="edge">
<title>Node1&#45;&gt;Node2</title>
<g id="a_edge1_Node000001_Node000002"><a xlink:title=" ">
<path fill="none" stroke="#63b8ff" d="M2556.44,-336.34C2315.98,-327.47 1408.06,-293.99 1214.46,-286.84"/>
<polygon fill="#63b8ff" stroke="#63b8ff" points="1214.37,-283.34 1204.25,-286.47 1214.11,-290.33 1214.37,-283.34"/>
</a>
</g>
</g>
<!-- Node44 -->
<g id="Node000044" class="node">
<title>Node44</title>
<g id="a_Node000044"><a xlink:href="AllOf_8h.html" target="_top" xlink:title=" ">
<polygon fill="white" stroke="#666666" points="2405,-294 2339,-294 2339,-275 2405,-275 2405,-294"/>
<text text-anchor="middle" x="2372" y="-282" font-family="Helvetica,sans-Serif" font-size="10.00">acl/AllOf.h</text>
</a>
</g>
</g>
<!-- Node1&#45;&gt;Node44 -->
<g id="edge24_Node000001_Node000044" class="edge">
<title>Node1&#45;&gt;Node44</title>
<g id="a_edge24_Node000001_Node000044"><a xlink:title=" ">
<path fill="none" stroke="#63b8ff" d="M2575.96,-329.98C2531.93,-320.38 2460.55,-304.81 2414.97,-294.87"/>
<polygon fill="#63b8ff" stroke="#63b8ff" points="2415.61,-291.43 2405.09,-292.72 2414.11,-298.27 2415.61,-291.43"/>
</a>
</g>
</g>
<!-- Node86 -->
<g id="Node000086" class="node">
<title>Node86</title>
<g id="a_Node000086"><a xlink:href="BoolOps_8h.html" target="_top" xlink:title=" ">
<polygon fill="white" stroke="#666666" points="2506.5,-294 2423.5,-294 2423.5,-275 2506.5,-275 2506.5,-294"/>
<text text-anchor="middle" x="2465" y="-282" font-family="Helvetica,sans-Serif" font-size="10.00">acl/BoolOps.h</text>
</a>
</g>
</g>
<!-- Node1&#45;&gt;Node86 -->
<g id="edge27_Node000001_Node000086" class="edge">
<title>Node1&#45;&gt;Node86</title>
<g id="a_edge27_Node000001_Node000086"><a xlink:title=" ">
<path fill="none" stroke="#63b8ff" d="M2590.9,-329.98C2566.12,-321.23 2527.3,-307.51 2499.31,-297.62"/>
<polygon fill="#63b8ff" stroke="#63b8ff" points="2500.13,-294.2 2489.54,-294.17 2497.8,-300.8 2500.13,-294.2"/>
</a>
</g>
</g>
<!-- Node87 -->
<g id="Node000087" class="node">
<title>Node87</title>
<g id="a_Node000087"><a xlink:href="Checklist_8h.html" target="_top" xlink:title=" ">
<polygon fill="white" stroke="#666666" points="2613,-294 2525,-294 2525,-275 2613,-275 2613,-294"/>
<text text-anchor="middle" x="2569" y="-282" font-family="Helvetica,sans-Serif" font-size="10.00">acl/Checklist.h</text>
</a>
</g>
</g>
<!-- Node1&#45;&gt;Node87 -->
<g id="edge29_Node000001_Node000087" class="edge">
<title>Node1&#45;&gt;Node87</title>
<g id="a_edge29_Node000001_Node000087"><a xlink:title=" ">
<path fill="none" stroke="#63b8ff" d="M2607.4,-329.75C2600.84,-322.18 2591.18,-311.05 2583.19,-301.84"/>
<polygon fill="#63b8ff" stroke="#63b8ff" points="2585.65,-299.35 2576.45,-294.09 2580.37,-303.94 2585.65,-299.35"/>
</a>
</g>
</g>
<!-- Node61 -->
<g id="Node000061" class="node">
<title>Node61</title>
<g id="a_Node000061"><a xlink:href="SBuf_8h.html" target="_top" xlink:title=" ">
<polygon fill="white" stroke="#666666" points="2657.5,-184 2586.5,-184 2586.5,-165 2657.5,-165 2657.5,-184"/>
<text text-anchor="middle" x="2622" y="-172" font-family="Helvetica,sans-Serif" font-size="10.00">sbuf/SBuf.h</text>
</a>
</g>
</g>
<!-- Node1&#45;&gt;Node61 -->
<g id="edge57_Node000001_Node000061" class="edge">
<title>Node1&#45;&gt;Node61</title>
<g id="a_edge57_Node000001_Node000061"><a xlink:title=" ">
<path fill="none" stroke="#63b8ff" d="M2619.58,-329.89C2629.39,-310.38 2650.85,-261.26 2642,-220 2640.03,-210.8 2636,-201.2 2632.07,-193.29"/>
<polygon fill="#63b8ff" stroke="#63b8ff" points="2635.09,-191.51 2627.32,-184.32 2628.91,-194.79 2635.09,-191.51"/>
</a>
</g>
</g>
<!-- Node94 -->
<g id="Node000094" class="node">
<title>Node94</title>
<g id="a_Node000094"><a xlink:href="cache__cf_8h.html" target="_top" xlink:title=" ">
<polygon fill="white" stroke="#666666" points="3024,-294 2956,-294 2956,-275 3024,-275 3024,-294"/>
<text text-anchor="middle" x="2990" y="-282" font-family="Helvetica,sans-Serif" font-size="10.00">cache_cf.h</text>
</a>
</g>
</g>
<!-- Node1&#45;&gt;Node94 -->
<g id="edge51_Node000001_Node000094" class="edge">
<title>Node1&#45;&gt;Node94</title>
<g id="a_edge51_Node000001_Node000094"><a xlink:title=" ">
<path fill="none" stroke="#63b8ff" d="M2673.64,-331.75C2737.96,-324.1 2844.48,-310.7 2945.68,-294.13"/>
<polygon fill="#63b8ff" stroke="#63b8ff" points="2946.47,-297.55 2955.77,-292.47 2945.33,-290.64 2946.47,-297.55"/>
</a>
</g>
</g>
<!-- Node95 -->
<g id="Node000095" class="node">
<title>Node95</title>
<g id="a_Node000095"><a xlink:href="MemBuf_8h.html" target="_top" xlink:title=" ">
<polygon fill="white" stroke="#666666" points="2938,-294 2872,-294 2872,-275 2938,-275 2938,-294"/>
<text text-anchor="middle" x="2905" y="-282" font-family="Helvetica,sans-Serif" font-size="10.00">MemBuf.h</text>
</a>
</g>
</g>
<!-- Node1&#45;&gt;Node95 -->
<g id="edge52_Node000001_Node000095" class="edge">
<title>Node1&#45;&gt;Node95</title>
<g id="a_edge52_Node000001_Node000095"><a xlink:title=" ">
<path fill="none" stroke="#63b8ff" d="M2661.59,-329.98C2716.8,-319.9 2808.03,-303.22 2861.73,-293.41"/>
<polygon fill="#63b8ff" stroke="#63b8ff" points="2862.42,-296.84 2871.63,-291.6 2861.16,-289.95 2862.42,-296.84"/>
</a>
</g>
</g>
<!-- Node97 -->
<g id="Node000097" class="node">
<title>Node97</title>
<g id="a_Node000097"><a xlink:href="sbuf_2Stream_8h.html" target="_top" xlink:title=" ">
<polygon fill="white" stroke="#666666" points="2774.5,-294 2689.5,-294 2689.5,-275 2774.5,-275 2774.5,-294"/>
<text text-anchor="middle" x="2732" y="-282" font-family="Helvetica,sans-Serif" font-size="10.00">sbuf/Stream.h</text>
</a>
</g>
</g>
<!-- Node1&#45;&gt;Node97 -->
<g id="edge58_Node000001_Node000097" class="edge">
<title>Node1&#45;&gt;Node97</title>
<g id="a_edge58_Node000001_Node000097"><a xlink:title=" ">
<path fill="none" stroke="#63b8ff" d="M2633.8,-329.98C2652.62,-321.46 2681.82,-308.23 2703.5,-298.41"/>
<polygon fill="#63b8ff" stroke="#63b8ff" points="2705.2,-301.48 2712.86,-294.17 2702.31,-295.11 2705.2,-301.48"/>
</a>
</g>
</g>
<!-- Node3 -->
<g id="Node000003" class="node">
<title>Node3</title>
<g id="a_Node000003"><a xlink:href="autoconf_8h.html" target="_top" xlink:title=" ">
<polygon fill="white" stroke="#666666" points="1079,-239 1011,-239 1011,-220 1079,-220 1079,-239"/>
<text text-anchor="middle" x="1045" y="-227" font-family="Helvetica,sans-Serif" font-size="10.00">autoconf.h</text>
</a>
</g>
</g>
<!-- Node2&#45;&gt;Node3 -->
<g id="edge2_Node000002_Node000003" class="edge">
<title>Node2&#45;&gt;Node3</title>
<g id="a_edge2_Node000002_Node000003"><a xlink:title=" ">
<path fill="none" stroke="#63b8ff" d="M1156.63,-274.98C1134.85,-266.3 1100.84,-252.75 1076.08,-242.88"/>
<polygon fill="#63b8ff" stroke="#63b8ff" points="1077.34,-239.62 1066.76,-239.17 1074.75,-246.12 1077.34,-239.62"/>
</a>
</g>
</g>
<!-- Node4 -->
<g id="Node000004" class="node">
<title>Node4</title>
<g id="a_Node000004"><a xlink:href="version_8h.html" target="_top" xlink:title=" ">
<polygon fill="white" stroke="#666666" points="1159,-239 1097,-239 1097,-220 1159,-220 1159,-239"/>
<text text-anchor="middle" x="1128" y="-227" font-family="Helvetica,sans-Serif" font-size="10.00">version.h</text>
</a>
</g>
</g>
<!-- Node2&#45;&gt;Node4 -->
<g id="edge3_Node000002_Node000004" class="edge">
<title>Node2&#45;&gt;Node4</title>
<g id="a_edge3_Node000002_Node000004"><a xlink:title=" ">
<path fill="none" stroke="#63b8ff" d="M1169.74,-274.75C1162.54,-267.11 1151.89,-255.82 1143.15,-246.56"/>
<polygon fill="#63b8ff" stroke="#63b8ff" points="1145.51,-243.96 1136.1,-239.09 1140.42,-248.76 1145.51,-243.96"/>
</a>
</g>
</g>
<!-- Node5 -->
<g id="Node000005" class="node">
<title>Node5</title>
<g id="a_Node000005"><a xlink:href="compat_8h.html" target="_top" xlink:title=" ">
<polygon fill="#fff0f0" stroke="red" points="1279,-239 1177,-239 1177,-220 1279,-220 1279,-239"/>
<text text-anchor="middle" x="1228" y="-227" font-family="Helvetica,sans-Serif" font-size="10.00">compat/compat.h</text>
</a>
</g>
</g>
<!-- Node2&#45;&gt;Node5 -->
<g id="edge4_Node000002_Node000005" class="edge">
<title>Node2&#45;&gt;Node5</title>
<g id="a_edge4_Node000002_Node000005"><a xlink:title=" ">
<path fill="none" stroke="#63b8ff" d="M1186.26,-274.75C1193.46,-267.11 1204.11,-255.82 1212.85,-246.56"/>
<polygon fill="#63b8ff" stroke="#63b8ff" points="1215.58,-248.76 1219.9,-239.09 1210.49,-243.96 1215.58,-248.76"/>
</a>
</g>
</g>
<!-- Node6 -->
<g id="Node000006" class="node">
<title>Node6</title>
<g id="a_Node000006"><a xlink:href="osdetect_8h.html" target="_top" xlink:title=" ">
<polygon fill="white" stroke="#666666" points="592.5,-184 485.5,-184 485.5,-165 592.5,-165 592.5,-184"/>
<text text-anchor="middle" x="539" y="-172" font-family="Helvetica,sans-Serif" font-size="10.00">compat/osdetect.h</text>
</a>
</g>
</g>
<!-- Node5&#45;&gt;Node6 -->
<g id="edge5_Node000005_Node000006" class="edge">
<title>Node5&#45;&gt;Node6</title>
<g id="a_edge5_Node000005_Node000006"><a xlink:title=" ">
<path fill="none" stroke="#63b8ff" d="M1176.97,-221C1173.94,-220.64 1170.93,-220.3 1168,-220 920.56,-194.64 854.57,-208.49 602.78,-183.99"/>
<polygon fill="#63b8ff" stroke="#63b8ff" points="602.88,-180.49 592.59,-182.99 602.2,-187.45 602.88,-180.49"/>
</a>
</g>
</g>
<!-- Node7 -->
<g id="Node000007" class="node">
<title>Node7</title>
<g id="a_Node000007"><a xlink:href="fdsetsize_8h.html" target="_top" xlink:title=" ">
<polygon fill="white" stroke="#666666" points="721,-184 611,-184 611,-165 721,-165 721,-184"/>
<text text-anchor="middle" x="666" y="-172" font-family="Helvetica,sans-Serif" font-size="10.00">compat/fdsetsize.h</text>
</a>
</g>
</g>
<!-- Node5&#45;&gt;Node7 -->
<g id="edge6_Node000005_Node000007" class="edge">
<title>Node5&#45;&gt;Node7</title>
<g id="a_edge6_Node000005_Node000007"><a xlink:title=" ">
<path fill="none" stroke="#63b8ff" d="M1176.96,-221.06C1173.93,-220.68 1170.93,-220.33 1168,-220 977.11,-198.65 925.89,-204.65 731.13,-184.07"/>
<polygon fill="#63b8ff" stroke="#63b8ff" points="731.45,-180.58 721.14,-183 730.71,-187.54 731.45,-180.58"/>
</a>
</g>
</g>
<!-- Node8 -->
<g id="Node000008" class="node">
<title>Node8</title>
<g id="a_Node000008"><a xlink:href="types_8h.html" target="_top" xlink:title=" ">
<polygon fill="#fff0f0" stroke="red" points="831,-184 739,-184 739,-165 831,-165 831,-184"/>
<text text-anchor="middle" x="785" y="-172" font-family="Helvetica,sans-Serif" font-size="10.00">compat/types.h</text>
</a>
</g>
</g>
<!-- Node5&#45;&gt;Node8 -->
<g id="edge7_Node000005_Node000008" class="edge">
<title>Node5&#45;&gt;Node8</title>
<g id="a_edge7_Node000005_Node000008"><a xlink:title=" ">
<path fill="none" stroke="#63b8ff" d="M1176.95,-221.16C1173.92,-220.76 1170.92,-220.37 1168,-220 1025.76,-202.12 987.11,-203.15 841.41,-184.13"/>
<polygon fill="#63b8ff" stroke="#63b8ff" points="841.56,-180.62 831.19,-182.79 840.65,-187.56 841.56,-180.62"/>
</a>
</g>
</g>
<!-- Node10 -->
<g id="Node000010" class="node">
<title>Node10</title>
<g id="a_Node000010"><a xlink:href="aix_8h.html" target="_top" xlink:title=" ">
<polygon fill="white" stroke="#666666" points="944.5,-184 849.5,-184 849.5,-165 944.5,-165 944.5,-184"/>
<text text-anchor="middle" x="897" y="-172" font-family="Helvetica,sans-Serif" font-size="10.00">compat/os/aix.h</text>
</a>
</g>
</g>
<!-- Node5&#45;&gt;Node10 -->
<g id="edge8_Node000005_Node000010" class="edge">
<title>Node5&#45;&gt;Node10</title>
<g id="a_edge8_Node000005_Node000010"><a xlink:title=" ">
<path fill="none" stroke="#63b8ff" d="M1176.64,-220.28C1116.61,-210.66 1017.52,-194.8 954.83,-184.76"/>
<polygon fill="#63b8ff" stroke="#63b8ff" points="955.14,-181.26 944.71,-183.14 954.03,-188.18 955.14,-181.26"/>
</a>
</g>
</g>
<!-- Node11 -->
<g id="Node000011" class="node">
<title>Node11</title>
<g id="a_Node000011"><a xlink:href="android_8h.html" target="_top" xlink:title=" ">
<polygon fill="white" stroke="#666666" points="1079,-184 963,-184 963,-165 1079,-165 1079,-184"/>
<text text-anchor="middle" x="1021" y="-172" font-family="Helvetica,sans-Serif" font-size="10.00">compat/os/android.h</text>
</a>
</g>
</g>
<!-- Node5&#45;&gt;Node11 -->
<g id="edge9_Node000005_Node000011" class="edge">
<title>Node5&#45;&gt;Node11</title>
<g id="a_edge9_Node000005_Node000011"><a xlink:title=" ">
<path fill="none" stroke="#63b8ff" d="M1194.74,-219.98C1159.39,-210.93 1103.33,-196.58 1064.49,-186.64"/>
<polygon fill="#63b8ff" stroke="#63b8ff" points="1065.07,-183.17 1054.52,-184.08 1063.34,-189.95 1065.07,-183.17"/>
</a>
</g>
</g>
<!-- Node12 -->
<g id="Node000012" class="node">
<title>Node12</title>
<g id="a_Node000012"><a xlink:href="dragonfly_8h.html" target="_top" xlink:title=" ">
<polygon fill="white" stroke="#666666" points="1221,-184 1097,-184 1097,-165 1221,-165 1221,-184"/>
<text text-anchor="middle" x="1159" y="-172" font-family="Helvetica,sans-Serif" font-size="10.00">compat/os/dragonfly.h</text>
</a>
</g>
</g>
<!-- Node5&#45;&gt;Node12 -->
<g id="edge10_Node000005_Node000012" class="edge">
<title>Node5&#45;&gt;Node12</title>
<g id="a_edge10_Node000005_Node000012"><a xlink:title=" ">
<path fill="none" stroke="#63b8ff" d="M1216.91,-219.98C1206.51,-212 1190.74,-199.88 1178.28,-190.31"/>
<polygon fill="#63b8ff" stroke="#63b8ff" points="1180.35,-187.49 1170.29,-184.17 1176.09,-193.04 1180.35,-187.49"/>
</a>
</g>
</g>
<!-- Node13 -->
<g id="Node000013" class="node">
<title>Node13</title>
<g id="a_Node000013"><a xlink:href="freebsd_8h.html" target="_top" xlink:title=" ">
<polygon fill="white" stroke="#666666" points="1355,-184 1239,-184 1239,-165 1355,-165 1355,-184"/>
<text text-anchor="middle" x="1297" y="-172" font-family="Helvetica,sans-Serif" font-size="10.00">compat/os/freebsd.h</text>
</a>
</g>
</g>
<!-- Node5&#45;&gt;Node13 -->
<g id="edge11_Node000005_Node000013" class="edge">
<title>Node5&#45;&gt;Node13</title>
<g id="a_edge11_Node000005_Node000013"><a xlink:title=" ">
<path fill="none" stroke="#63b8ff" d="M1239.09,-219.98C1249.49,-212 1265.26,-199.88 1277.72,-190.31"/>
<polygon fill="#63b8ff" stroke="#63b8ff" points="1279.91,-193.04 1285.71,-184.17 1275.65,-187.49 1279.91,-193.04"/>
</a>
</g>
</g>
<!-- Node14 -->
<g id="Node000014" class="node">
<title>Node14</title>
<g id="a_Node000014"><a xlink:href="hpux_8h.html" target="_top" xlink:title=" ">
<polygon fill="white" stroke="#666666" points="1477,-184 1373,-184 1373,-165 1477,-165 1477,-184"/>
<text text-anchor="middle" x="1425" y="-172" font-family="Helvetica,sans-Serif" font-size="10.00">compat/os/hpux.h</text>
</a>
</g>
</g>
<!-- Node5&#45;&gt;Node14 -->
<g id="edge12_Node000005_Node000014" class="edge">
<title>Node5&#45;&gt;Node14</title>
<g id="a_edge12_Node000005_Node000014"><a xlink:title=" ">
<path fill="none" stroke="#63b8ff" d="M1259.65,-219.98C1293.16,-210.97 1346.2,-196.7 1383.14,-186.76"/>
<polygon fill="#63b8ff" stroke="#63b8ff" points="1384.35,-190.06 1393.1,-184.08 1382.53,-183.3 1384.35,-190.06"/>
</a>
</g>
</g>
<!-- Node15 -->
<g id="Node000015" class="node">
<title>Node15</title>
<g id="a_Node000015"><a xlink:href="linux_8h.html" target="_top" xlink:title=" ">
<polygon fill="white" stroke="#666666" points="1599,-184 1495,-184 1495,-165 1599,-165 1599,-184"/>
<text text-anchor="middle" x="1547" y="-172" font-family="Helvetica,sans-Serif" font-size="10.00">compat/os/linux.h</text>
</a>
</g>
</g>
<!-- Node5&#45;&gt;Node15 -->
<g id="edge13_Node000005_Node000015" class="edge">
<title>Node5&#45;&gt;Node15</title>
<g id="a_edge13_Node000005_Node000015"><a xlink:title=" ">
<path fill="none" stroke="#63b8ff" d="M1279.25,-219.98C1335.44,-210.65 1425.57,-195.67 1485.52,-185.71"/>
<polygon fill="#63b8ff" stroke="#63b8ff" points="1486.32,-189.13 1495.61,-184.04 1485.17,-182.22 1486.32,-189.13"/>
</a>
</g>
</g>
<!-- Node16 -->
<g id="Node000016" class="node">
<title>Node16</title>
<g id="a_Node000016"><a xlink:href="macosx_8h.html" target="_top" xlink:title=" ">
<polygon fill="white" stroke="#666666" points="1735,-184 1617,-184 1617,-165 1735,-165 1735,-184"/>
<text text-anchor="middle" x="1676" y="-172" font-family="Helvetica,sans-Serif" font-size="10.00">compat/os/macosx.h</text>
</a>
</g>
</g>
<!-- Node5&#45;&gt;Node16 -->
<g id="edge14_Node000005_Node000016" class="edge">
<title>Node5&#45;&gt;Node16</title>
<g id="a_edge14_Node000005_Node000016"><a xlink:title=" ">
<path fill="none" stroke="#63b8ff" d="M1279.03,-222.65C1350.06,-214.48 1483.05,-199.09 1606.65,-184.16"/>
<polygon fill="#63b8ff" stroke="#63b8ff" points="1607.16,-187.62 1616.67,-182.94 1606.32,-180.67 1607.16,-187.62"/>
</a>
</g>
</g>
<!-- Node17 -->
<g id="Node000017" class="node">
<title>Node17</title>
<g id="a_Node000017"><a xlink:href="mingw_8h.html" target="_top" xlink:title=" ">
<polygon fill="white" stroke="#666666" points="1865,-184 1753,-184 1753,-165 1865,-165 1865,-184"/>
<text text-anchor="middle" x="1809" y="-172" font-family="Helvetica,sans-Serif" font-size="10.00">compat/os/mingw.h</text>
</a>
</g>
</g>
<!-- Node5&#45;&gt;Node17 -->
<g id="edge15_Node000005_Node000017" class="edge">
<title>Node5&#45;&gt;Node17</title>
<g id="a_edge15_Node000005_Node000017"><a xlink:title=" ">
<path fill="none" stroke="#63b8ff" d="M1279.34,-224.82C1370.47,-218.14 1566.7,-203 1743.02,-184.06"/>
<polygon fill="#63b8ff" stroke="#63b8ff" points="1743.43,-187.54 1753,-182.98 1742.68,-180.58 1743.43,-187.54"/>
</a>
</g>
</g>
<!-- Node18 -->
<g id="Node000018" class="node">
<title>Node18</title>
<g id="a_Node000018"><a xlink:href="mswindows_8h.html" target="_top" xlink:title=" ">
<polygon fill="white" stroke="#666666" points="2020.5,-184 1883.5,-184 1883.5,-165 2020.5,-165 2020.5,-184"/>
<text text-anchor="middle" x="1952" y="-172" font-family="Helvetica,sans-Serif" font-size="10.00">compat/os/mswindows.h</text>
</a>
</g>
</g>
<!-- Node5&#45;&gt;Node18 -->
<g id="edge16_Node000005_Node000018" class="edge">
<title>Node5&#45;&gt;Node18</title>
<g id="a_edge16_Node000005_Node000018"><a xlink:title=" ">
<path fill="none" stroke="#63b8ff" d="M1279.14,-225.67C1386.83,-219.56 1645.13,-204.12 1872.97,-184.06"/>
<polygon fill="#63b8ff" stroke="#63b8ff" points="1873.46,-187.53 1883.11,-183.16 1872.84,-180.55 1873.46,-187.53"/>
</a>
</g>
</g>
<!-- Node19 -->
<g id="Node000019" class="node">
<title>Node19</title>
<g id="a_Node000019"><a xlink:href="netbsd_8h.html" target="_top" xlink:title=" ">
<polygon fill="white" stroke="#666666" points="2151.5,-184 2038.5,-184 2038.5,-165 2151.5,-165 2151.5,-184"/>
<text text-anchor="middle" x="2095" y="-172" font-family="Helvetica,sans-Serif" font-size="10.00">compat/os/netbsd.h</text>
</a>
</g>
</g>
<!-- Node5&#45;&gt;Node19 -->
<g id="edge17_Node000005_Node000019" class="edge">
<title>Node5&#45;&gt;Node19</title>
<g id="a_edge17_Node000005_Node000019"><a xlink:title=" ">
<path fill="none" stroke="#63b8ff" d="M1279.17,-226.95C1404.76,-222.86 1738.47,-210.31 2027.87,-184.03"/>
<polygon fill="#63b8ff" stroke="#63b8ff" points="2028.51,-187.49 2038.15,-183.09 2027.87,-180.51 2028.51,-187.49"/>
</a>
</g>
</g>
<!-- Node20 -->
<g id="Node000020" class="node">
<title>Node20</title>
<g id="a_Node000020"><a xlink:href="openbsd_8h.html" target="_top" xlink:title=" ">
<polygon fill="white" stroke="#666666" points="2290.5,-184 2169.5,-184 2169.5,-165 2290.5,-165 2290.5,-184"/>
<text text-anchor="middle" x="2230" y="-172" font-family="Helvetica,sans-Serif" font-size="10.00">compat/os/openbsd.h</text>
</a>
</g>
</g>
<!-- Node5&#45;&gt;Node20 -->
<g id="edge18_Node000005_Node000020" class="edge">
<title>Node5&#45;&gt;Node20</title>
<g id="a_edge18_Node000005_Node000020"><a xlink:title=" ">
<path fill="none" stroke="#63b8ff" d="M1279.11,-227.37C1418.43,-224.02 1816.78,-212.55 2159.21,-183.99"/>
<polygon fill="#63b8ff" stroke="#63b8ff" points="2159.65,-187.47 2169.32,-183.14 2159.06,-180.49 2159.65,-187.47"/>
</a>
</g>
</g>
<!-- Node21 -->
<g id="Node000021" class="node">
<title>Node21</title>
<g id="a_Node000021"><a xlink:href="os2_8h.html" target="_top" xlink:title=" ">
<polygon fill="white" stroke="#666666" points="2405.5,-184 2308.5,-184 2308.5,-165 2405.5,-165 2405.5,-184"/>
<text text-anchor="middle" x="2357" y="-172" font-family="Helvetica,sans-Serif" font-size="10.00">compat/os/os2.h</text>
</a>
</g>
</g>
<!-- Node5&#45;&gt;Node21 -->
<g id="edge19_Node000005_Node000021" class="edge">
<title>Node5&#45;&gt;Node21</title>
<g id="a_edge19_Node000005_Node000021"><a xlink:title=" ">
<path fill="none" stroke="#63b8ff" d="M1279.13,-228.26C1432.14,-227.14 1899.96,-220.8 2298.32,-183.94"/>
<polygon fill="#63b8ff" stroke="#63b8ff" points="2298.68,-187.42 2308.31,-183.01 2298.03,-180.45 2298.68,-187.42"/>
</a>
</g>
</g>
<!-- Node22 -->
<g id="Node000022" class="node">
<title>Node22</title>
<g id="a_Node000022"><a xlink:href="qnx_8h.html" target="_top" xlink:title=" ">
<polygon fill="white" stroke="#666666" points="98,-184 0,-184 0,-165 98,-165 98,-184"/>
<text text-anchor="middle" x="49" y="-172" font-family="Helvetica,sans-Serif" font-size="10.00">compat/os/qnx.h</text>
</a>
</g>
</g>
<!-- Node5&#45;&gt;Node22 -->
<g id="edge20_Node000005_Node000022" class="edge">
<title>Node5&#45;&gt;Node22</title>
<g id="a_edge20_Node000005_Node000022"><a xlink:title=" ">
<path fill="none" stroke="#63b8ff" d="M1176.98,-220.89C1173.94,-220.56 1170.93,-220.26 1168,-220 701.3,-179.14 578.66,-225.61 108.12,-183.98"/>
<polygon fill="#63b8ff" stroke="#63b8ff" points="108.27,-180.48 98,-183.07 107.65,-187.45 108.27,-180.48"/>
</a>
</g>
</g>
<!-- Node23 -->
<g id="Node000023" class="node">
<title>Node23</title>
<g id="a_Node000023"><a xlink:href="solaris_8h.html" target="_top" xlink:title=" ">
<polygon fill="white" stroke="#666666" points="228,-184 116,-184 116,-165 228,-165 228,-184"/>
<text text-anchor="middle" x="172" y="-172" font-family="Helvetica,sans-Serif" font-size="10.00">compat/os/solaris.h</text>
</a>
</g>
</g>
<!-- Node5&#45;&gt;Node23 -->
<g id="edge21_Node000005_Node000023" class="edge">
<title>Node5&#45;&gt;Node23</title>
<g id="a_edge21_Node000005_Node000023"><a xlink:title=" ">
<path fill="none" stroke="#63b8ff" d="M1176.98,-220.91C1173.94,-220.57 1170.93,-220.26 1168,-220 758.9,-183.21 651.34,-218.31 238.46,-184.04"/>
<polygon fill="#63b8ff" stroke="#63b8ff" points="238.59,-180.54 228.34,-183.19 238.01,-187.51 238.59,-180.54"/>
</a>
</g>
</g>
<!-- Node24 -->
<g id="Node000024" class="node">
<title>Node24</title>
<g id="a_Node000024"><a xlink:href="sunos_8h.html" target="_top" xlink:title=" ">
<polygon fill="white" stroke="#666666" points="354,-184 246,-184 246,-165 354,-165 354,-184"/>
<text text-anchor="middle" x="300" y="-172" font-family="Helvetica,sans-Serif" font-size="10.00">compat/os/sunos.h</text>
</a>
</g>
</g>
<!-- Node5&#45;&gt;Node24 -->
<g id="edge22_Node000005_Node000024" class="edge">
<title>Node5&#45;&gt;Node24</title>
<g id="a_edge22_Node000005_Node000024"><a xlink:title=" ">
<path fill="none" stroke="#63b8ff" d="M1176.98,-220.93C1173.94,-220.59 1170.93,-220.27 1168,-220 814.71,-187.15 721.43,-215.44 364.36,-184.03"/>
<polygon fill="#63b8ff" stroke="#63b8ff" points="364.53,-180.53 354.26,-183.13 363.91,-187.51 364.53,-180.53"/>
</a>
</g>
</g>
<!-- Node25 -->
<g id="Node000025" class="node">
<title>Node25</title>
<g id="a_Node000025"><a xlink:href="assert_8h.html" target="_top" xlink:title=" ">
<polygon fill="white" stroke="#666666" points="467.5,-184 372.5,-184 372.5,-165 467.5,-165 467.5,-184"/>
<text text-anchor="middle" x="420" y="-172" font-family="Helvetica,sans-Serif" font-size="10.00">compat/assert.h</text>
</a>
</g>
</g>
<!-- Node5&#45;&gt;Node25 -->
<g id="edge23_Node000005_Node000025" class="edge">
<title>Node5&#45;&gt;Node25</title>
<g id="a_edge23_Node000005_Node000025"><a xlink:title=" ">
<path fill="none" stroke="#63b8ff" d="M1176.97,-220.96C1173.94,-220.61 1170.93,-220.28 1168,-220 864.75,-190.69 784.12,-214.62 477.68,-184.07"/>
<polygon fill="#63b8ff" stroke="#63b8ff" points="477.92,-180.58 467.62,-183.05 477.22,-187.54 477.92,-180.58"/>
</a>
</g>
</g>
<!-- Node45 -->
<g id="Node000045" class="node">
<title>Node45</title>
<g id="a_Node000045"><a xlink:href="InnerNode_8h.html" target="_top" xlink:title=" ">
<polygon fill="#fff0f0" stroke="red" points="2418.5,-239 2325.5,-239 2325.5,-220 2418.5,-220 2418.5,-239"/>
<text text-anchor="middle" x="2372" y="-227" font-family="Helvetica,sans-Serif" font-size="10.00">acl/InnerNode.h</text>
</a>
</g>
</g>
<!-- Node44&#45;&gt;Node45 -->
<g id="edge25_Node000044_Node000045" class="edge">
<title>Node44&#45;&gt;Node45</title>
<g id="a_edge25_Node000044_Node000045"><a xlink:title=" ">
<path fill="none" stroke="#63b8ff" d="M2372,-274.75C2372,-267.8 2372,-257.85 2372,-249.13"/>
<polygon fill="#63b8ff" stroke="#63b8ff" points="2375.5,-249.09 2372,-239.09 2368.5,-249.09 2375.5,-249.09"/>
</a>
</g>
</g>
<!-- Node57 -->
<g id="Node000057" class="node">
<title>Node57</title>
<g id="a_Node000057"><a xlink:title=" ">
<polygon fill="#e0e0e0" stroke="#999999" points="2470.5,-184 2423.5,-184 2423.5,-165 2470.5,-165 2470.5,-184"/>
<text text-anchor="middle" x="2447" y="-172" font-family="Helvetica,sans-Serif" font-size="10.00">vector</text>
</a>
</g>
</g>
<!-- Node45&#45;&gt;Node57 -->
<g id="edge26_Node000045_Node000057" class="edge">
<title>Node45&#45;&gt;Node57</title>
<g id="a_edge26_Node000045_Node000057"><a xlink:title=" ">
<path fill="none" stroke="#63b8ff" d="M2384.05,-219.98C2395.46,-211.92 2412.83,-199.65 2426.43,-190.03"/>
<polygon fill="#63b8ff" stroke="#63b8ff" points="2428.58,-192.8 2434.73,-184.17 2424.54,-187.08 2428.58,-192.8"/>
</a>
</g>
</g>
<!-- Node86&#45;&gt;Node45 -->
<g id="edge28_Node000086_Node000045" class="edge">
<title>Node86&#45;&gt;Node45</title>
<g id="a_edge28_Node000086_Node000045"><a xlink:title=" ">
<path fill="none" stroke="#63b8ff" d="M2450.06,-274.98C2435.5,-266.69 2413.13,-253.94 2396.07,-244.22"/>
<polygon fill="#63b8ff" stroke="#63b8ff" points="2397.64,-241.08 2387.21,-239.17 2394.17,-247.16 2397.64,-241.08"/>
</a>
</g>
</g>
<!-- Node87&#45;&gt;Node45 -->
<g id="edge46_Node000087_Node000045" class="edge">
<title>Node87&#45;&gt;Node45</title>
<g id="a_edge46_Node000087_Node000045"><a xlink:title=" ">
<path fill="none" stroke="#63b8ff" d="M2537.35,-274.98C2503.84,-265.97 2450.8,-251.7 2413.86,-241.76"/>
<polygon fill="#63b8ff" stroke="#63b8ff" points="2414.47,-238.3 2403.9,-239.08 2412.65,-245.06 2414.47,-238.3"/>
</a>
</g>
</g>
<!-- Node87&#45;&gt;Node57 -->
<g id="edge50_Node000087_Node000057" class="edge">
<title>Node87&#45;&gt;Node57</title>
<g id="a_edge50_Node000087_Node000057"><a xlink:title=" ">
<path fill="none" stroke="#63b8ff" d="M2551.56,-274.96C2536.22,-266.94 2513.77,-253.97 2497,-239 2481.52,-225.18 2467.24,-206.14 2457.94,-192.52"/>
<polygon fill="#63b8ff" stroke="#63b8ff" points="2460.79,-190.48 2452.34,-184.09 2454.96,-194.35 2460.79,-190.48"/>
</a>
</g>
</g>
<!-- Node88 -->
<g id="Node000088" class="node">
<title>Node88</title>
<g id="a_Node000088"><a xlink:href="acl_2Acl_8h.html" target="_top" xlink:title=" ">
<polygon fill="#fff0f0" stroke="red" points="2571,-239 2513,-239 2513,-220 2571,-220 2571,-239"/>
<text text-anchor="middle" x="2542" y="-227" font-family="Helvetica,sans-Serif" font-size="10.00">acl/Acl.h</text>
</a>
</g>
</g>
<!-- Node87&#45;&gt;Node88 -->
<g id="edge30_Node000087_Node000088" class="edge">
<title>Node87&#45;&gt;Node88</title>
<g id="a_edge30_Node000087_Node000088"><a xlink:title=" ">
<path fill="none" stroke="#63b8ff" d="M2564.54,-274.75C2560.88,-267.57 2555.59,-257.18 2551.05,-248.27"/>
<polygon fill="#63b8ff" stroke="#63b8ff" points="2554.03,-246.41 2546.38,-239.09 2547.8,-249.59 2554.03,-246.41"/>
</a>
</g>
</g>
<!-- Node90 -->
<g id="Node000090" class="node">
<title>Node90</title>
<g id="a_Node000090"><a xlink:title=" ">
<polygon fill="#e0e0e0" stroke="#999999" points="2557,-184 2501,-184 2501,-165 2557,-165 2557,-184"/>
<text text-anchor="middle" x="2529" y="-172" font-family="Helvetica,sans-Serif" font-size="10.00">optional</text>
</a>
</g>
</g>
<!-- Node87&#45;&gt;Node90 -->
<g id="edge48_Node000087_Node000090" class="edge">
<title>Node87&#45;&gt;Node90</title>
<g id="a_edge48_Node000087_Node000090"><a xlink:title=" ">
<path fill="none" stroke="#63b8ff" d="M2546.88,-274.95C2531.8,-267.82 2512.99,-256.06 2504,-239 2496.01,-223.84 2505.02,-205.54 2514.38,-192.49"/>
<polygon fill="#63b8ff" stroke="#63b8ff" points="2517.31,-194.43 2520.71,-184.4 2511.8,-190.12 2517.31,-194.43"/>
</a>
</g>
</g>
<!-- Node92 -->
<g id="Node000092" class="node">
<title>Node92</title>
<g id="a_Node000092"><a xlink:href="cbdata_8h.html" target="_top" xlink:title=" ">
<polygon fill="white" stroke="#666666" points="2934.5,-239 2875.5,-239 2875.5,-220 2934.5,-220 2934.5,-239"/>
<text text-anchor="middle" x="2905" y="-227" font-family="Helvetica,sans-Serif" font-size="10.00">cbdata.h</text>
</a>
</g>
</g>
<!-- Node87&#45;&gt;Node92 -->
<g id="edge47_Node000087_Node000092" class="edge">
<title>Node87&#45;&gt;Node92</title>
<g id="a_edge47_Node000087_Node000092"><a xlink:title=" ">
<path fill="none" stroke="#63b8ff" d="M2613.43,-277.77C2669.64,-270.32 2769.64,-256.38 2865.11,-239.05"/>
<polygon fill="#63b8ff" stroke="#63b8ff" points="2866.02,-242.44 2875.23,-237.2 2864.76,-235.56 2866.02,-242.44"/>
</a>
</g>
</g>
<!-- Node93 -->
<g id="Node000093" class="node">
<title>Node93</title>
<g id="a_Node000093"><a xlink:title=" ">
<polygon fill="#e0e0e0" stroke="#999999" points="2632.5,-239 2589.5,-239 2589.5,-220 2632.5,-220 2632.5,-239"/>
<text text-anchor="middle" x="2611" y="-227" font-family="Helvetica,sans-Serif" font-size="10.00">stack</text>
</a>
</g>
</g>
<!-- Node87&#45;&gt;Node93 -->
<g id="edge49_Node000087_Node000093" class="edge">
<title>Node87&#45;&gt;Node93</title>
<g id="a_edge49_Node000087_Node000093"><a xlink:title=" ">
<path fill="none" stroke="#63b8ff" d="M2575.94,-274.75C2581.87,-267.26 2590.57,-256.28 2597.82,-247.13"/>
<polygon fill="#63b8ff" stroke="#63b8ff" points="2600.73,-249.1 2604.19,-239.09 2595.24,-244.75 2600.73,-249.1"/>
</a>
</g>
</g>
<!-- Node88&#45;&gt;Node61 -->
<g id="edge31_Node000088_Node000061" class="edge">
<title>Node88&#45;&gt;Node61</title>
<g id="a_edge31_Node000088_Node000061"><a xlink:title=" ">
<path fill="none" stroke="#63b8ff" d="M2554.85,-219.98C2567.14,-211.84 2585.91,-199.41 2600.48,-189.76"/>
<polygon fill="#63b8ff" stroke="#63b8ff" points="2602.51,-192.61 2608.91,-184.17 2598.64,-186.78 2602.51,-192.61"/>
</a>
</g>
</g>
<!-- Node88&#45;&gt;Node90 -->
<g id="edge45_Node000088_Node000090" class="edge">
<title>Node88&#45;&gt;Node90</title>
<g id="a_edge45_Node000088_Node000090"><a xlink:title=" ">
<path fill="none" stroke="#63b8ff" d="M2539.85,-219.75C2538.13,-212.72 2535.65,-202.62 2533.5,-193.84"/>
<polygon fill="#63b8ff" stroke="#63b8ff" points="2536.89,-192.97 2531.11,-184.09 2530.09,-194.63 2536.89,-192.97"/>
</a>
</g>
</g>
<!-- Node62 -->
<g id="Node000062" class="node">
<title>Node62</title>
<g id="a_Node000062"><a xlink:href="InstanceId_8h.html" target="_top" xlink:title=" ">
<polygon fill="white" stroke="#666666" points="2833,-74 2731,-74 2731,-55 2833,-55 2833,-74"/>
<text text-anchor="middle" x="2782" y="-62" font-family="Helvetica,sans-Serif" font-size="10.00">base/InstanceId.h</text>
</a>
</g>
</g>
<!-- Node61&#45;&gt;Node62 -->
<g id="edge32_Node000061_Node000062" class="edge">
<title>Node61&#45;&gt;Node62</title>
<g id="a_edge32_Node000061_Node000062"><a xlink:title=" ">
<path fill="none" stroke="#63b8ff" d="M2586.5,-167.76C2579.7,-166.76 2572.64,-165.79 2566,-165 2474.06,-154.03 2089.88,-177.74 2153,-110 2191.19,-69.02 2570.37,-65.12 2720.89,-65.21"/>
<polygon fill="#63b8ff" stroke="#63b8ff" points="2720.89,-68.71 2730.89,-65.22 2720.9,-61.71 2720.89,-68.71"/>
</a>
</g>
</g>
<!-- Node56 -->
<g id="Node000056" class="node">
<title>Node56</title>
<g id="a_Node000056"><a xlink:title=" ">
<polygon fill="#e0e0e0" stroke="#999999" points="2917,-19 2869,-19 2869,0 2917,0 2917,-19"/>
<text text-anchor="middle" x="2893" y="-7" font-family="Helvetica,sans-Serif" font-size="10.00">iosfwd</text>
</a>
</g>
</g>
<!-- Node61&#45;&gt;Node56 -->
<g id="edge43_Node000061_Node000056" class="edge">
<title>Node61&#45;&gt;Node56</title>
<g id="a_edge43_Node000061_Node000056"><a xlink:title=" ">
<path fill="none" stroke="#63b8ff" d="M2657.81,-170.28C2712.69,-164.7 2814.17,-151.6 2842,-129 2858.26,-115.8 2877.98,-58.64 2887.43,-28.79"/>
<polygon fill="#63b8ff" stroke="#63b8ff" points="2890.8,-29.76 2890.42,-19.17 2884.11,-27.68 2890.8,-29.76"/>
</a>
</g>
</g>
<!-- Node63 -->
<g id="Node000063" class="node">
<title>Node63</title>
<g id="a_Node000063"><a xlink:href="TextException_8h.html" target="_top" xlink:title=" ">
<polygon fill="#fff0f0" stroke="red" points="2282,-129 2162,-129 2162,-110 2282,-110 2282,-129"/>
<text text-anchor="middle" x="2222" y="-117" font-family="Helvetica,sans-Serif" font-size="10.00">base/TextException.h</text>
</a>
</g>
</g>
<!-- Node61&#45;&gt;Node63 -->
<g id="edge34_Node000061_Node000063" class="edge">
<title>Node61&#45;&gt;Node63</title>
<g id="a_edge34_Node000061_Node000063"><a xlink:title=" ">
<path fill="none" stroke="#63b8ff" d="M2586.47,-167.99C2579.68,-166.97 2572.62,-165.93 2566,-165 2514.71,-157.79 2377.04,-140.18 2292.23,-129.4"/>
<polygon fill="#63b8ff" stroke="#63b8ff" points="2292.52,-125.91 2282.16,-128.12 2291.64,-132.85 2292.52,-125.91"/>
</a>
</g>
</g>
<!-- Node67 -->
<g id="Node000067" class="node">
<title>Node67</title>
<g id="a_Node000067"><a xlink:href="debug_2Stream_8h.html" target="_top" xlink:title=" ">
<polygon fill="#fff0f0" stroke="red" points="2394,-129 2300,-129 2300,-110 2394,-110 2394,-129"/>
<text text-anchor="middle" x="2347" y="-117" font-family="Helvetica,sans-Serif" font-size="10.00">debug/Stream.h</text>
</a>
</g>
</g>
<!-- Node61&#45;&gt;Node67 -->
<g id="edge35_Node000061_Node000067" class="edge">
<title>Node61&#45;&gt;Node67</title>
<g id="a_edge35_Node000061_Node000067"><a xlink:title=" ">
<path fill="none" stroke="#63b8ff" d="M2586.33,-166.63C2539.27,-157.56 2455.99,-141.51 2401.14,-130.93"/>
<polygon fill="#63b8ff" stroke="#63b8ff" points="2401.73,-127.48 2391.25,-129.03 2400.4,-134.36 2401.73,-127.48"/>
</a>
</g>
</g>
<!-- Node70 -->
<g id="Node000070" class="node">
<title>Node70</title>
<g id="a_Node000070"><a xlink:href="globals_8h.html" target="_top" xlink:title=" ">
<polygon fill="#fff0f0" stroke="red" points="2473.5,-129 2412.5,-129 2412.5,-110 2473.5,-110 2473.5,-129"/>
<text text-anchor="middle" x="2443" y="-117" font-family="Helvetica,sans-Serif" font-size="10.00">globals.h</text>
</a>
</g>
</g>
<!-- Node61&#45;&gt;Node70 -->
<g id="edge36_Node000061_Node000070" class="edge">
<title>Node61&#45;&gt;Node70</title>
<g id="a_edge36_Node000061_Node000070"><a xlink:title=" ">
<path fill="none" stroke="#63b8ff" d="M2593.24,-164.98C2563.06,-156.05 2515.43,-141.94 2481.9,-132.02"/>
<polygon fill="#63b8ff" stroke="#63b8ff" points="2482.57,-128.57 2471.98,-129.08 2480.58,-135.28 2482.57,-128.57"/>
</a>
</g>
</g>
<!-- Node53 -->
<g id="Node000053" class="node">
<title>Node53</title>
<g id="a_Node000053"><a xlink:href="sbuf_2forward_8h.html" target="_top" xlink:title=" ">
<polygon fill="#fff0f0" stroke="red" points="2578.5,-129 2491.5,-129 2491.5,-110 2578.5,-110 2578.5,-129"/>
<text text-anchor="middle" x="2535" y="-117" font-family="Helvetica,sans-Serif" font-size="10.00">sbuf/forward.h</text>
</a>
</g>
</g>
<!-- Node61&#45;&gt;Node53 -->
<g id="edge37_Node000061_Node000053" class="edge">
<title>Node61&#45;&gt;Node53</title>
<g id="a_edge37_Node000061_Node000053"><a xlink:title=" ">
<path fill="none" stroke="#63b8ff" d="M2608.02,-164.98C2594.53,-156.77 2573.87,-144.18 2557.96,-134.49"/>
<polygon fill="#63b8ff" stroke="#63b8ff" points="2559.59,-131.38 2549.23,-129.17 2555.95,-137.36 2559.59,-131.38"/>
</a>
</g>
</g>
<!-- Node81 -->
<g id="Node000081" class="node">
<title>Node81</title>
<g id="a_Node000081"><a xlink:href="MemBlob_8h.html" target="_top" xlink:title=" ">
<polygon fill="#fff0f0" stroke="red" points="2833,-129 2737,-129 2737,-110 2833,-110 2833,-129"/>
<text text-anchor="middle" x="2785" y="-117" font-family="Helvetica,sans-Serif" font-size="10.00">sbuf/MemBlob.h</text>
</a>
</g>
</g>
<!-- Node61&#45;&gt;Node81 -->
<g id="edge38_Node000061_Node000081" class="edge">
<title>Node61&#45;&gt;Node81</title>
<g id="a_edge38_Node000061_Node000081"><a xlink:title=" ">
<path fill="none" stroke="#63b8ff" d="M2648.19,-164.98C2675.44,-156.13 2718.3,-142.19 2748.78,-132.28"/>
<polygon fill="#63b8ff" stroke="#63b8ff" points="2750.18,-135.5 2758.61,-129.08 2748.01,-128.85 2750.18,-135.5"/>
</a>
</g>
</g>
<!-- Node83 -->
<g id="Node000083" class="node">
<title>Node83</title>
<g id="a_Node000083"><a xlink:href="sbuf_2Stats_8h.html" target="_top" xlink:title=" ">
<polygon fill="white" stroke="#666666" points="2963,-74 2889,-74 2889,-55 2963,-55 2963,-74"/>
<text text-anchor="middle" x="2926" y="-62" font-family="Helvetica,sans-Serif" font-size="10.00">sbuf/Stats.h</text>
</a>
</g>
</g>
<!-- Node61&#45;&gt;Node83 -->
<g id="edge40_Node000061_Node000083" class="edge">
<title>Node61&#45;&gt;Node83</title>
<g id="a_edge40_Node000061_Node000083"><a xlink:title=" ">
<path fill="none" stroke="#63b8ff" d="M2657.95,-170.31C2718.75,-164.41 2838.82,-150.4 2875,-129 2893.39,-118.12 2907.84,-97.96 2916.6,-83.26"/>
<polygon fill="#63b8ff" stroke="#63b8ff" points="2919.87,-84.58 2921.72,-74.14 2913.77,-81.14 2919.87,-84.58"/>
</a>
</g>
</g>
<!-- Node84 -->
<g id="Node000084" class="node">
<title>Node84</title>
<g id="a_Node000084"><a xlink:title=" ">
<polygon fill="#e0e0e0" stroke="#999999" points="2647,-129 2597,-129 2597,-110 2647,-110 2647,-129"/>
<text text-anchor="middle" x="2622" y="-117" font-family="Helvetica,sans-Serif" font-size="10.00">climits</text>
</a>
</g>
</g>
<!-- Node61&#45;&gt;Node84 -->
<g id="edge42_Node000061_Node000084" class="edge">
<title>Node61&#45;&gt;Node84</title>
<g id="a_edge42_Node000061_Node000084"><a xlink:title=" ">
<path fill="none" stroke="#63b8ff" d="M2622,-164.75C2622,-157.8 2622,-147.85 2622,-139.13"/>
<polygon fill="#63b8ff" stroke="#63b8ff" points="2625.5,-139.09 2622,-129.09 2618.5,-139.09 2625.5,-139.09"/>
</a>
</g>
</g>
<!-- Node85 -->
<g id="Node000085" class="node">
<title>Node85</title>
<g id="a_Node000085"><a xlink:title=" ">
<polygon fill="#e0e0e0" stroke="#999999" points="2718.5,-129 2665.5,-129 2665.5,-110 2718.5,-110 2718.5,-129"/>
<text text-anchor="middle" x="2692" y="-117" font-family="Helvetica,sans-Serif" font-size="10.00">iterator</text>
</a>
</g>
</g>
<!-- Node61&#45;&gt;Node85 -->
<g id="edge44_Node000061_Node000085" class="edge">
<title>Node61&#45;&gt;Node85</title>
<g id="a_edge44_Node000061_Node000085"><a xlink:title=" ">
<path fill="none" stroke="#63b8ff" d="M2633.25,-164.98C2643.8,-157 2659.8,-144.88 2672.44,-135.31"/>
<polygon fill="#63b8ff" stroke="#63b8ff" points="2674.69,-138 2680.55,-129.17 2670.46,-132.42 2674.69,-138"/>
</a>
</g>
</g>
<!-- Node62&#45;&gt;Node56 -->
<g id="edge33_Node000062_Node000056" class="edge">
<title>Node62&#45;&gt;Node56</title>
<g id="a_edge33_Node000062_Node000056"><a xlink:title=" ">
<path fill="none" stroke="#63b8ff" d="M2799.83,-54.98C2817.61,-46.5 2845.15,-33.35 2865.68,-23.54"/>
<polygon fill="#63b8ff" stroke="#63b8ff" points="2867.33,-26.64 2874.84,-19.17 2864.31,-20.32 2867.33,-26.64"/>
</a>
</g>
</g>
<!-- Node81&#45;&gt;Node62 -->
<g id="edge39_Node000081_Node000062" class="edge">
<title>Node81&#45;&gt;Node62</title>
<g id="a_edge39_Node000081_Node000062"><a xlink:title=" ">
<path fill="none" stroke="#63b8ff" d="M2784.5,-109.75C2784.11,-102.8 2783.55,-92.85 2783.05,-84.13"/>
<polygon fill="#63b8ff" stroke="#63b8ff" points="2786.55,-83.88 2782.49,-74.09 2779.56,-84.27 2786.55,-83.88"/>
</a>
</g>
</g>
<!-- Node83&#45;&gt;Node56 -->
<g id="edge41_Node000083_Node000056" class="edge">
<title>Node83&#45;&gt;Node56</title>
<g id="a_edge41_Node000083_Node000056"><a xlink:title=" ">
<path fill="none" stroke="#63b8ff" d="M2920.55,-54.75C2915.99,-47.42 2909.33,-36.73 2903.71,-27.7"/>
<polygon fill="#63b8ff" stroke="#63b8ff" points="2906.6,-25.73 2898.35,-19.09 2900.66,-29.43 2906.6,-25.73"/>
</a>
</g>
</g>
<!-- Node95&#45;&gt;Node92 -->
<g id="edge54_Node000095_Node000092" class="edge">
<title>Node95&#45;&gt;Node92</title>
<g id="a_edge54_Node000095_Node000092"><a xlink:title=" ">
<path fill="none" stroke="#63b8ff" d="M2905,-274.75C2905,-267.8 2905,-257.85 2905,-249.13"/>
<polygon fill="#63b8ff" stroke="#63b8ff" points="2908.5,-249.09 2905,-239.09 2901.5,-249.09 2908.5,-249.09"/>
</a>
</g>
</g>
<!-- Node96 -->
<g id="Node000096" class="node">
<title>Node96</title>
<g id="a_Node000096"><a xlink:href="Packable_8h.html" target="_top" xlink:title=" ">
<polygon fill="white" stroke="#666666" points="2906.5,-184 2811.5,-184 2811.5,-165 2906.5,-165 2906.5,-184"/>
<text text-anchor="middle" x="2859" y="-172" font-family="Helvetica,sans-Serif" font-size="10.00">base/Packable.h</text>
</a>
</g>
</g>
<!-- Node95&#45;&gt;Node96 -->
<g id="edge53_Node000095_Node000096" class="edge">
<title>Node95&#45;&gt;Node96</title>
<g id="a_edge53_Node000095_Node000096"><a xlink:title=" ">
<path fill="none" stroke="#63b8ff" d="M2916.98,-274.89C2932.41,-262.71 2955.92,-239.7 2944,-220 2934.86,-204.89 2918.71,-194.67 2902.93,-187.87"/>
<polygon fill="#63b8ff" stroke="#63b8ff" points="2903.81,-184.46 2893.22,-184.07 2901.26,-190.97 2903.81,-184.46"/>
</a>
</g>
</g>
<!-- Node59 -->
<g id="Node000059" class="node">
<title>Node59</title>
<g id="a_Node000059"><a xlink:href="mem_2forward_8h.html" target="_top" xlink:title=" ">
<polygon fill="#fff0f0" stroke="red" points="3073,-74 2981,-74 2981,-55 3073,-55 3073,-74"/>
<text text-anchor="middle" x="3027" y="-62" font-family="Helvetica,sans-Serif" font-size="10.00">mem/forward.h</text>
</a>
</g>
</g>
<!-- Node95&#45;&gt;Node59 -->
<g id="edge55_Node000095_Node000059" class="edge">
<title>Node95&#45;&gt;Node59</title>
<g id="a_edge55_Node000095_Node000059"><a xlink:title=" ">
<path fill="none" stroke="#63b8ff" d="M2919.13,-274.84C2931.15,-266.83 2948.16,-253.95 2959,-239 2995.18,-189.12 3015.17,-117.42 3023.03,-83.98"/>
<polygon fill="#63b8ff" stroke="#63b8ff" points="3026.45,-84.72 3025.23,-74.19 3019.62,-83.18 3026.45,-84.72"/>
</a>
</g>
</g>
<!-- Node59&#45;&gt;Node56 -->
<g id="edge56_Node000059_Node000056" class="edge">
<title>Node59&#45;&gt;Node56</title>
<g id="a_edge56_Node000059_Node000056"><a xlink:title=" ">
<path fill="none" stroke="#63b8ff" d="M3005.47,-54.98C2983.53,-46.3 2949.26,-32.75 2924.31,-22.88"/>
<polygon fill="#63b8ff" stroke="#63b8ff" points="2925.51,-19.59 2914.92,-19.17 2922.93,-26.1 2925.51,-19.59"/>
</a>
</g>
</g>
<!-- Node97&#45;&gt;Node61 -->
<g id="edge61_Node000097_Node000061" class="edge">
<title>Node97&#45;&gt;Node61</title>
<g id="a_edge61_Node000097_Node000061"><a xlink:title=" ">
<path fill="none" stroke="#63b8ff" d="M2724.98,-274.94C2714.56,-262.4 2694.16,-238.54 2675,-220 2664.34,-209.69 2651.64,-198.97 2641.34,-190.64"/>
<polygon fill="#63b8ff" stroke="#63b8ff" points="2643.35,-187.77 2633.36,-184.27 2638.99,-193.24 2643.35,-187.77"/>
</a>
</g>
</g>
<!-- Node98 -->
<g id="Node000098" class="node">
<title>Node98</title>
<g id="a_Node000098"><a xlink:href="PackableStream_8h.html" target="_top" xlink:title=" ">
<polygon fill="#fff0f0" stroke="red" points="2857,-239 2727,-239 2727,-220 2857,-220 2857,-239"/>
<text text-anchor="middle" x="2792" y="-227" font-family="Helvetica,sans-Serif" font-size="10.00">base/PackableStream.h</text>
</a>
</g>
</g>
<!-- Node97&#45;&gt;Node98 -->
<g id="edge59_Node000097_Node000098" class="edge">
<title>Node97&#45;&gt;Node98</title>
<g id="a_edge59_Node000097_Node000098"><a xlink:title=" ">
<path fill="none" stroke="#63b8ff" d="M2741.64,-274.98C2750.51,-267.15 2763.87,-255.34 2774.61,-245.86"/>
<polygon fill="#63b8ff" stroke="#63b8ff" points="2777.01,-248.41 2782.18,-239.17 2772.37,-243.17 2777.01,-248.41"/>
</a>
</g>
</g>
<!-- Node98&#45;&gt;Node96 -->
<g id="edge60_Node000098_Node000096" class="edge">
<title>Node98&#45;&gt;Node96</title>
<g id="a_edge60_Node000098_Node000096"><a xlink:title=" ">
<path fill="none" stroke="#63b8ff" d="M2802.76,-219.98C2812.77,-212.07 2827.89,-200.11 2839.93,-190.58"/>
<polygon fill="#63b8ff" stroke="#63b8ff" points="2842.37,-193.12 2848.04,-184.17 2838.03,-187.63 2842.37,-193.12"/>
</a>
</g>
</g>
</g>
</svg>
