<?xml version="1.0" encoding="UTF-8" standalone="no"?>
<!DOCTYPE svg PUBLIC "-//W3C//DTD SVG 1.1//EN"
 "http://www.w3.org/Graphics/SVG/1.1/DTD/svg11.dtd">
<!-- Generated by graphviz version 2.43.0 (0)
 -->
<!-- Title: squid/src/base/AsyncCallbacks.h Pages: 1 -->
<svg width="1022pt" height="357pt"
 viewBox="0.00 0.00 1022.00 357.00" xmlns="http://www.w3.org/2000/svg" xmlns:xlink="http://www.w3.org/1999/xlink">
<g id="graph0" class="graph" transform="scale(1 1) rotate(0) translate(4 353)">
<title>squid/src/base/AsyncCallbacks.h</title>
<!-- Node1 -->
<g id="Node000001" class="node">
<title>Node1</title>
<g id="a_Node000001"><a xlink:title=" ">
<polygon fill="#999999" stroke="#666666" points="715.5,-349 540.5,-349 540.5,-330 715.5,-330 715.5,-349"/>
<text text-anchor="middle" x="628" y="-337" font-family="Helvetica,sans-Serif" font-size="10.00">squid/src/base/AsyncCallbacks.h</text>
</a>
</g>
</g>
<!-- Node2 -->
<g id="Node000002" class="node">
<title>Node2</title>
<g id="a_Node000002"><a xlink:href="AsyncCall_8h.html" target="_top" xlink:title=" ">
<polygon fill="white" stroke="#666666" points="690,-184 590,-184 590,-165 690,-165 690,-184"/>
<text text-anchor="middle" x="640" y="-172" font-family="Helvetica,sans-Serif" font-size="10.00">base/AsyncCall.h</text>
</a>
</g>
</g>
<!-- Node1&#45;&gt;Node2 -->
<g id="edge1_Node000001_Node000002" class="edge">
<title>Node1&#45;&gt;Node2</title>
<g id="a_edge1_Node000001_Node000002"><a xlink:title=" ">
<path fill="none" stroke="#63b8ff" d="M628.65,-329.74C630.52,-304.31 635.98,-230.08 638.59,-194.69"/>
<polygon fill="#63b8ff" stroke="#63b8ff" points="642.11,-194.54 639.35,-184.31 635.13,-194.02 642.11,-194.54"/>
</a>
</g>
</g>
<!-- Node19 -->
<g id="Node000019" class="node">
<title>Node19</title>
<g id="a_Node000019"><a xlink:href="AsyncJobCalls_8h.html" target="_top" xlink:title=" ">
<polygon fill="white" stroke="#666666" points="462,-294 342,-294 342,-275 462,-275 462,-294"/>
<text text-anchor="middle" x="402" y="-282" font-family="Helvetica,sans-Serif" font-size="10.00">base/AsyncJobCalls.h</text>
</a>
</g>
</g>
<!-- Node1&#45;&gt;Node19 -->
<g id="edge22_Node000001_Node000019" class="edge">
<title>Node1&#45;&gt;Node19</title>
<g id="a_edge22_Node000001_Node000019"><a xlink:title=" ">
<path fill="none" stroke="#63b8ff" d="M591.69,-329.98C552.76,-320.86 490.84,-306.33 448.4,-296.38"/>
<polygon fill="#63b8ff" stroke="#63b8ff" points="449.13,-292.96 438.6,-294.08 447.53,-299.77 449.13,-292.96"/>
</a>
</g>
</g>
<!-- Node33 -->
<g id="Node000033" class="node">
<title>Node33</title>
<g id="a_Node000033"><a xlink:href="TypeTraits_8h.html" target="_top" xlink:title=" ">
<polygon fill="white" stroke="#666666" points="757.5,-294 656.5,-294 656.5,-275 757.5,-275 757.5,-294"/>
<text text-anchor="middle" x="707" y="-282" font-family="Helvetica,sans-Serif" font-size="10.00">base/TypeTraits.h</text>
</a>
</g>
</g>
<!-- Node1&#45;&gt;Node33 -->
<g id="edge46_Node000001_Node000033" class="edge">
<title>Node1&#45;&gt;Node33</title>
<g id="a_edge46_Node000001_Node000033"><a xlink:title=" ">
<path fill="none" stroke="#63b8ff" d="M640.69,-329.98C652.83,-321.84 671.36,-309.41 685.75,-299.76"/>
<polygon fill="#63b8ff" stroke="#63b8ff" points="687.72,-302.65 694.08,-294.17 683.82,-296.84 687.72,-302.65"/>
</a>
</g>
</g>
<!-- Node3 -->
<g id="Node000003" class="node">
<title>Node3</title>
<g id="a_Node000003"><a xlink:href="CodeContext_8h.html" target="_top" xlink:title=" ">
<polygon fill="white" stroke="#666666" points="851.5,-129 736.5,-129 736.5,-110 851.5,-110 851.5,-129"/>
<text text-anchor="middle" x="794" y="-117" font-family="Helvetica,sans-Serif" font-size="10.00">base/CodeContext.h</text>
</a>
</g>
</g>
<!-- Node2&#45;&gt;Node3 -->
<g id="edge2_Node000002_Node000003" class="edge">
<title>Node2&#45;&gt;Node3</title>
<g id="a_edge2_Node000002_Node000003"><a xlink:title=" ">
<path fill="none" stroke="#63b8ff" d="M664.74,-164.98C690.37,-156.16 730.63,-142.31 759.41,-132.41"/>
<polygon fill="#63b8ff" stroke="#63b8ff" points="760.75,-135.65 769.06,-129.08 758.47,-129.03 760.75,-135.65"/>
</a>
</g>
</g>
<!-- Node4 -->
<g id="Node000004" class="node">
<title>Node4</title>
<g id="a_Node000004"><a xlink:href="InstanceId_8h.html" target="_top" xlink:title=" ">
<polygon fill="white" stroke="#666666" points="686,-74 584,-74 584,-55 686,-55 686,-74"/>
<text text-anchor="middle" x="635" y="-62" font-family="Helvetica,sans-Serif" font-size="10.00">base/InstanceId.h</text>
</a>
</g>
</g>
<!-- Node2&#45;&gt;Node4 -->
<g id="edge14_Node000002_Node000004" class="edge">
<title>Node2&#45;&gt;Node4</title>
<g id="a_edge14_Node000002_Node000004"><a xlink:title=" ">
<path fill="none" stroke="#63b8ff" d="M654.75,-164.84C672.33,-153.3 698.16,-131.79 688,-110 682.17,-97.49 670.91,-87.25 660.25,-79.76"/>
<polygon fill="#63b8ff" stroke="#63b8ff" points="661.88,-76.64 651.58,-74.13 658.06,-82.51 661.88,-76.64"/>
</a>
</g>
</g>
<!-- Node6 -->
<g id="Node000006" class="node">
<title>Node6</title>
<g id="a_Node000006"><a xlink:href="RefCount_8h.html" target="_top" xlink:title=" ">
<polygon fill="white" stroke="#666666" points="960.5,-74 863.5,-74 863.5,-55 960.5,-55 960.5,-74"/>
<text text-anchor="middle" x="912" y="-62" font-family="Helvetica,sans-Serif" font-size="10.00">base/RefCount.h</text>
</a>
</g>
</g>
<!-- Node2&#45;&gt;Node6 -->
<g id="edge21_Node000002_Node000006" class="edge">
<title>Node2&#45;&gt;Node6</title>
<g id="a_edge21_Node000002_Node000006"><a xlink:title=" ">
<path fill="none" stroke="#63b8ff" d="M690.19,-172.82C737.17,-170.09 807.76,-160.46 860,-129 878.62,-117.78 893.52,-97.38 902.52,-82.73"/>
<polygon fill="#63b8ff" stroke="#63b8ff" points="905.54,-84.48 907.55,-74.08 899.5,-80.96 905.54,-84.48"/>
</a>
</g>
</g>
<!-- Node13 -->
<g id="Node000013" class="node">
<title>Node13</title>
<g id="a_Node000013"><a xlink:href="base_2forward_8h.html" target="_top" xlink:title=" ">
<polygon fill="white" stroke="#666666" points="679.5,-129 590.5,-129 590.5,-110 679.5,-110 679.5,-129"/>
<text text-anchor="middle" x="635" y="-117" font-family="Helvetica,sans-Serif" font-size="10.00">base/forward.h</text>
</a>
</g>
</g>
<!-- Node2&#45;&gt;Node13 -->
<g id="edge13_Node000002_Node000013" class="edge">
<title>Node2&#45;&gt;Node13</title>
<g id="a_edge13_Node000002_Node000013"><a xlink:title=" ">
<path fill="none" stroke="#63b8ff" d="M639.17,-164.75C638.52,-157.8 637.58,-147.85 636.76,-139.13"/>
<polygon fill="#63b8ff" stroke="#63b8ff" points="640.23,-138.72 635.81,-129.09 633.27,-139.37 640.23,-138.72"/>
</a>
</g>
</g>
<!-- Node14 -->
<g id="Node000014" class="node">
<title>Node14</title>
<g id="a_Node000014"><a xlink:href="event_8h.html" target="_top" xlink:title=" ">
<polygon fill="white" stroke="#666666" points="495.5,-129 442.5,-129 442.5,-110 495.5,-110 495.5,-129"/>
<text text-anchor="middle" x="469" y="-117" font-family="Helvetica,sans-Serif" font-size="10.00">event.h</text>
</a>
</g>
</g>
<!-- Node2&#45;&gt;Node14 -->
<g id="edge15_Node000002_Node000014" class="edge">
<title>Node2&#45;&gt;Node14</title>
<g id="a_edge15_Node000002_Node000014"><a xlink:title=" ">
<path fill="none" stroke="#63b8ff" d="M612.53,-164.98C583.48,-155.98 537.51,-141.73 505.44,-131.8"/>
<polygon fill="#63b8ff" stroke="#63b8ff" points="506.15,-128.35 495.56,-128.73 504.08,-135.04 506.15,-128.35"/>
</a>
</g>
</g>
<!-- Node3&#45;&gt;Node4 -->
<g id="edge3_Node000003_Node000004" class="edge">
<title>Node3&#45;&gt;Node4</title>
<g id="a_edge3_Node000003_Node000004"><a xlink:title=" ">
<path fill="none" stroke="#63b8ff" d="M768.45,-109.98C741.88,-101.13 700.06,-87.19 670.33,-77.28"/>
<polygon fill="#63b8ff" stroke="#63b8ff" points="671.34,-73.92 660.75,-74.08 669.13,-80.56 671.34,-73.92"/>
</a>
</g>
</g>
<!-- Node5 -->
<g id="Node000005" class="node">
<title>Node5</title>
<g id="a_Node000005"><a xlink:title=" ">
<polygon fill="#e0e0e0" stroke="#999999" points="479,-19 431,-19 431,0 479,0 479,-19"/>
<text text-anchor="middle" x="455" y="-7" font-family="Helvetica,sans-Serif" font-size="10.00">iosfwd</text>
</a>
</g>
</g>
<!-- Node3&#45;&gt;Node5 -->
<g id="edge12_Node000003_Node000005" class="edge">
<title>Node3&#45;&gt;Node5</title>
<g id="a_edge12_Node000003_Node000005"><a xlink:title=" ">
<path fill="none" stroke="#63b8ff" d="M783.76,-109.99C766.57,-96.16 730.32,-68.98 695,-55 625.03,-27.31 536.66,-16.62 489.07,-12.67"/>
<polygon fill="#63b8ff" stroke="#63b8ff" points="489.25,-9.18 479,-11.89 488.7,-16.16 489.25,-9.18"/>
</a>
</g>
</g>
<!-- Node3&#45;&gt;Node6 -->
<g id="edge5_Node000003_Node000006" class="edge">
<title>Node3&#45;&gt;Node6</title>
<g id="a_edge5_Node000003_Node000006"><a xlink:title=" ">
<path fill="none" stroke="#63b8ff" d="M812.96,-109.98C832.03,-101.42 861.66,-88.11 883.55,-78.28"/>
<polygon fill="#63b8ff" stroke="#63b8ff" points="885.01,-81.46 892.7,-74.17 882.14,-75.07 885.01,-81.46"/>
</a>
</g>
</g>
<!-- Node10 -->
<g id="Node000010" class="node">
<title>Node10</title>
<g id="a_Node000010"><a xlink:href="Stopwatch_8h.html" target="_top" xlink:title=" ">
<polygon fill="white" stroke="#666666" points="845.5,-74 742.5,-74 742.5,-55 845.5,-55 845.5,-74"/>
<text text-anchor="middle" x="794" y="-62" font-family="Helvetica,sans-Serif" font-size="10.00">base/Stopwatch.h</text>
</a>
</g>
</g>
<!-- Node3&#45;&gt;Node10 -->
<g id="edge9_Node000003_Node000010" class="edge">
<title>Node3&#45;&gt;Node10</title>
<g id="a_edge9_Node000003_Node000010"><a xlink:title=" ">
<path fill="none" stroke="#63b8ff" d="M794,-109.75C794,-102.8 794,-92.85 794,-84.13"/>
<polygon fill="#63b8ff" stroke="#63b8ff" points="797.5,-84.09 794,-74.09 790.5,-84.09 797.5,-84.09"/>
</a>
</g>
</g>
<!-- Node4&#45;&gt;Node5 -->
<g id="edge4_Node000004_Node000005" class="edge">
<title>Node4&#45;&gt;Node5</title>
<g id="a_edge4_Node000004_Node000005"><a xlink:title=" ">
<path fill="none" stroke="#63b8ff" d="M606.08,-54.98C574.2,-45.6 522.95,-30.51 489.13,-20.55"/>
<polygon fill="#63b8ff" stroke="#63b8ff" points="489.81,-17.1 479.23,-17.63 487.84,-23.82 489.81,-17.1"/>
</a>
</g>
</g>
<!-- Node7 -->
<g id="Node000007" class="node">
<title>Node7</title>
<g id="a_Node000007"><a xlink:href="Lock_8h.html" target="_top" xlink:title=" ">
<polygon fill="white" stroke="#666666" points="1014,-19 940,-19 940,0 1014,0 1014,-19"/>
<text text-anchor="middle" x="977" y="-7" font-family="Helvetica,sans-Serif" font-size="10.00">base/Lock.h</text>
</a>
</g>
</g>
<!-- Node6&#45;&gt;Node7 -->
<g id="edge6_Node000006_Node000007" class="edge">
<title>Node6&#45;&gt;Node7</title>
<g id="a_edge6_Node000006_Node000007"><a xlink:title=" ">
<path fill="none" stroke="#63b8ff" d="M922.44,-54.98C932.15,-47.07 946.82,-35.11 958.5,-25.58"/>
<polygon fill="#63b8ff" stroke="#63b8ff" points="960.83,-28.2 966.37,-19.17 956.4,-22.78 960.83,-28.2"/>
</a>
</g>
</g>
<!-- Node8 -->
<g id="Node000008" class="node">
<title>Node8</title>
<g id="a_Node000008"><a xlink:title=" ">
<polygon fill="#e0e0e0" stroke="#999999" points="634,-19 574,-19 574,0 634,0 634,-19"/>
<text text-anchor="middle" x="604" y="-7" font-family="Helvetica,sans-Serif" font-size="10.00">iostream</text>
</a>
</g>
</g>
<!-- Node6&#45;&gt;Node8 -->
<g id="edge7_Node000006_Node000008" class="edge">
<title>Node6&#45;&gt;Node8</title>
<g id="a_edge7_Node000006_Node000008"><a xlink:title=" ">
<path fill="none" stroke="#63b8ff" d="M863.2,-55.1C802.68,-44.69 700.63,-27.13 644.33,-17.44"/>
<polygon fill="#63b8ff" stroke="#63b8ff" points="644.82,-13.97 634.37,-15.73 643.63,-20.87 644.82,-13.97"/>
</a>
</g>
</g>
<!-- Node9 -->
<g id="Node000009" class="node">
<title>Node9</title>
<g id="a_Node000009"><a xlink:title=" ">
<polygon fill="#e0e0e0" stroke="#999999" points="921.5,-19 876.5,-19 876.5,0 921.5,0 921.5,-19"/>
<text text-anchor="middle" x="899" y="-7" font-family="Helvetica,sans-Serif" font-size="10.00">utility</text>
</a>
</g>
</g>
<!-- Node6&#45;&gt;Node9 -->
<g id="edge8_Node000006_Node000009" class="edge">
<title>Node6&#45;&gt;Node9</title>
<g id="a_edge8_Node000006_Node000009"><a xlink:title=" ">
<path fill="none" stroke="#63b8ff" d="M909.85,-54.75C908.13,-47.72 905.65,-37.62 903.5,-28.84"/>
<polygon fill="#63b8ff" stroke="#63b8ff" points="906.89,-27.97 901.11,-19.09 900.09,-29.63 906.89,-27.97"/>
</a>
</g>
</g>
<!-- Node11 -->
<g id="Node000011" class="node">
<title>Node11</title>
<g id="a_Node000011"><a xlink:title=" ">
<polygon fill="#e0e0e0" stroke="#999999" points="764,-19 714,-19 714,0 764,0 764,-19"/>
<text text-anchor="middle" x="739" y="-7" font-family="Helvetica,sans-Serif" font-size="10.00">chrono</text>
</a>
</g>
</g>
<!-- Node10&#45;&gt;Node11 -->
<g id="edge10_Node000010_Node000011" class="edge">
<title>Node10&#45;&gt;Node11</title>
<g id="a_edge10_Node000010_Node000011"><a xlink:title=" ">
<path fill="none" stroke="#63b8ff" d="M784.92,-54.75C776.91,-47.03 765.04,-35.6 755.38,-26.28"/>
<polygon fill="#63b8ff" stroke="#63b8ff" points="757.54,-23.51 747.91,-19.09 752.69,-28.55 757.54,-23.51"/>
</a>
</g>
</g>
<!-- Node12 -->
<g id="Node000012" class="node">
<title>Node12</title>
<g id="a_Node000012"><a xlink:title=" ">
<polygon fill="#e0e0e0" stroke="#999999" points="832,-19 782,-19 782,0 832,0 832,-19"/>
<text text-anchor="middle" x="807" y="-7" font-family="Helvetica,sans-Serif" font-size="10.00">cstdint</text>
</a>
</g>
</g>
<!-- Node10&#45;&gt;Node12 -->
<g id="edge11_Node000010_Node000012" class="edge">
<title>Node10&#45;&gt;Node12</title>
<g id="a_edge11_Node000010_Node000012"><a xlink:title=" ">
<path fill="none" stroke="#63b8ff" d="M796.15,-54.75C797.87,-47.72 800.35,-37.62 802.5,-28.84"/>
<polygon fill="#63b8ff" stroke="#63b8ff" points="805.91,-29.63 804.89,-19.09 799.11,-27.97 805.91,-29.63"/>
</a>
</g>
</g>
<!-- Node15 -->
<g id="Node000015" class="node">
<title>Node15</title>
<g id="a_Node000015"><a xlink:href="AsyncEngine_8h.html" target="_top" xlink:title=" ">
<polygon fill="white" stroke="#666666" points="528,-74 440,-74 440,-55 528,-55 528,-74"/>
<text text-anchor="middle" x="484" y="-62" font-family="Helvetica,sans-Serif" font-size="10.00">AsyncEngine.h</text>
</a>
</g>
</g>
<!-- Node14&#45;&gt;Node15 -->
<g id="edge16_Node000014_Node000015" class="edge">
<title>Node14&#45;&gt;Node15</title>
<g id="a_edge16_Node000014_Node000015"><a xlink:title=" ">
<path fill="none" stroke="#63b8ff" d="M471.48,-109.75C473.46,-102.72 476.32,-92.62 478.81,-83.84"/>
<polygon fill="#63b8ff" stroke="#63b8ff" points="482.21,-84.66 481.57,-74.09 475.48,-82.76 482.21,-84.66"/>
</a>
</g>
</g>
<!-- Node16 -->
<g id="Node000016" class="node">
<title>Node16</title>
<g id="a_Node000016"><a xlink:href="Packable_8h.html" target="_top" xlink:title=" ">
<polygon fill="white" stroke="#666666" points="421.5,-74 326.5,-74 326.5,-55 421.5,-55 421.5,-74"/>
<text text-anchor="middle" x="374" y="-62" font-family="Helvetica,sans-Serif" font-size="10.00">base/Packable.h</text>
</a>
</g>
</g>
<!-- Node14&#45;&gt;Node16 -->
<g id="edge17_Node000014_Node000016" class="edge">
<title>Node14&#45;&gt;Node16</title>
<g id="a_edge17_Node000014_Node000016"><a xlink:title=" ">
<path fill="none" stroke="#63b8ff" d="M453.74,-109.98C438.87,-101.69 416.02,-88.94 398.58,-79.22"/>
<polygon fill="#63b8ff" stroke="#63b8ff" points="399.98,-75.99 389.54,-74.17 396.57,-82.1 399.98,-75.99"/>
</a>
</g>
</g>
<!-- Node17 -->
<g id="Node000017" class="node">
<title>Node17</title>
<g id="a_Node000017"><a xlink:href="mem_2forward_8h.html" target="_top" xlink:title=" ">
<polygon fill="white" stroke="#666666" points="308,-74 216,-74 216,-55 308,-55 308,-74"/>
<text text-anchor="middle" x="262" y="-62" font-family="Helvetica,sans-Serif" font-size="10.00">mem/forward.h</text>
</a>
</g>
</g>
<!-- Node14&#45;&gt;Node17 -->
<g id="edge18_Node000014_Node000017" class="edge">
<title>Node14&#45;&gt;Node17</title>
<g id="a_edge18_Node000014_Node000017"><a xlink:title=" ">
<path fill="none" stroke="#63b8ff" d="M442.36,-111.68C407.66,-102.79 346.55,-87.15 305.18,-76.56"/>
<polygon fill="#63b8ff" stroke="#63b8ff" points="305.94,-73.14 295.38,-74.05 304.2,-79.92 305.94,-73.14"/>
</a>
</g>
</g>
<!-- Node17&#45;&gt;Node5 -->
<g id="edge20_Node000017_Node000005" class="edge">
<title>Node17&#45;&gt;Node5</title>
<g id="a_edge20_Node000017_Node000005"><a xlink:title=" ">
<path fill="none" stroke="#63b8ff" d="M293.01,-54.98C327.92,-45.4 384.49,-29.86 420.7,-19.92"/>
<polygon fill="#63b8ff" stroke="#63b8ff" points="422.07,-23.17 430.79,-17.15 420.22,-16.42 422.07,-23.17"/>
</a>
</g>
</g>
<!-- Node18 -->
<g id="Node000018" class="node">
<title>Node18</title>
<g id="a_Node000018"><a xlink:href="AllocatorProxy_8h.html" target="_top" xlink:title=" ">
<polygon fill="white" stroke="#666666" points="287,-19 163,-19 163,0 287,0 287,-19"/>
<text text-anchor="middle" x="225" y="-7" font-family="Helvetica,sans-Serif" font-size="10.00">mem/AllocatorProxy.h</text>
</a>
</g>
</g>
<!-- Node17&#45;&gt;Node18 -->
<g id="edge19_Node000017_Node000018" class="edge">
<title>Node17&#45;&gt;Node18</title>
<g id="a_edge19_Node000017_Node000018"><a xlink:title=" ">
<path fill="none" stroke="#63b8ff" d="M255.89,-54.75C250.72,-47.34 243.15,-36.5 236.81,-27.41"/>
<polygon fill="#63b8ff" stroke="#63b8ff" points="239.59,-25.29 231,-19.09 233.85,-29.29 239.59,-25.29"/>
</a>
</g>
</g>
<!-- Node20 -->
<g id="Node000020" class="node">
<title>Node20</title>
<g id="a_Node000020"><a xlink:href="AsyncJob_8h.html" target="_top" xlink:title=" ">
<polygon fill="white" stroke="#666666" points="589,-239 493,-239 493,-220 589,-220 589,-239"/>
<text text-anchor="middle" x="541" y="-227" font-family="Helvetica,sans-Serif" font-size="10.00">base/AsyncJob.h</text>
</a>
</g>
</g>
<!-- Node19&#45;&gt;Node20 -->
<g id="edge23_Node000019_Node000020" class="edge">
<title>Node19&#45;&gt;Node20</title>
<g id="a_edge23_Node000019_Node000020"><a xlink:title=" ">
<path fill="none" stroke="#63b8ff" d="M424.33,-274.98C447.2,-266.27 482.96,-252.63 508.86,-242.75"/>
<polygon fill="#63b8ff" stroke="#63b8ff" points="510.16,-246 518.26,-239.17 507.67,-239.46 510.16,-246"/>
</a>
</g>
</g>
<!-- Node22 -->
<g id="Node000022" class="node">
<title>Node22</title>
<g id="a_Node000022"><a xlink:href="CbcPointer_8h.html" target="_top" xlink:title=" ">
<polygon fill="white" stroke="#666666" points="454,-239 350,-239 350,-220 454,-220 454,-239"/>
<text text-anchor="middle" x="402" y="-227" font-family="Helvetica,sans-Serif" font-size="10.00">base/CbcPointer.h</text>
</a>
</g>
</g>
<!-- Node19&#45;&gt;Node22 -->
<g id="edge27_Node000019_Node000022" class="edge">
<title>Node19&#45;&gt;Node22</title>
<g id="a_edge27_Node000019_Node000022"><a xlink:title=" ">
<path fill="none" stroke="#63b8ff" d="M402,-274.75C402,-267.8 402,-257.85 402,-249.13"/>
<polygon fill="#63b8ff" stroke="#63b8ff" points="405.5,-249.09 402,-239.09 398.5,-249.09 405.5,-249.09"/>
</a>
</g>
</g>
<!-- Node27 -->
<g id="Node000027" class="node">
<title>Node27</title>
<g id="a_Node000027"><a xlink:href="debug_2Stream_8h.html" target="_top" xlink:title=" ">
<polygon fill="white" stroke="#666666" points="369,-184 275,-184 275,-165 369,-165 369,-184"/>
<text text-anchor="middle" x="322" y="-172" font-family="Helvetica,sans-Serif" font-size="10.00">debug/Stream.h</text>
</a>
</g>
</g>
<!-- Node19&#45;&gt;Node27 -->
<g id="edge45_Node000019_Node000027" class="edge">
<title>Node19&#45;&gt;Node27</title>
<g id="a_edge45_Node000019_Node000027"><a xlink:title=" ">
<path fill="none" stroke="#63b8ff" d="M384.57,-274.88C370.84,-267.24 352.2,-254.84 341,-239 331.55,-225.64 326.74,-207.53 324.32,-194.07"/>
<polygon fill="#63b8ff" stroke="#63b8ff" points="327.77,-193.43 322.81,-184.06 320.85,-194.47 327.77,-193.43"/>
</a>
</g>
</g>
<!-- Node30 -->
<g id="Node000030" class="node">
<title>Node30</title>
<g id="a_Node000030"><a xlink:href="debug_2Messages_8h.html" target="_top" xlink:title=" ">
<polygon fill="white" stroke="#666666" points="207.5,-239 100.5,-239 100.5,-220 207.5,-220 207.5,-239"/>
<text text-anchor="middle" x="154" y="-227" font-family="Helvetica,sans-Serif" font-size="10.00">debug/Messages.h</text>
</a>
</g>
</g>
<!-- Node19&#45;&gt;Node30 -->
<g id="edge41_Node000019_Node000030" class="edge">
<title>Node19&#45;&gt;Node30</title>
<g id="a_edge41_Node000019_Node000030"><a xlink:title=" ">
<path fill="none" stroke="#63b8ff" d="M362.15,-274.98C319.17,-265.8 250.63,-251.15 204.04,-241.19"/>
<polygon fill="#63b8ff" stroke="#63b8ff" points="204.67,-237.75 194.16,-239.08 203.21,-244.59 204.67,-237.75"/>
</a>
</g>
</g>
<!-- Node20&#45;&gt;Node2 -->
<g id="edge24_Node000020_Node000002" class="edge">
<title>Node20&#45;&gt;Node2</title>
<g id="a_edge24_Node000020_Node000002"><a xlink:title=" ">
<path fill="none" stroke="#63b8ff" d="M556.91,-219.98C572.55,-211.61 596.66,-198.7 614.88,-188.95"/>
<polygon fill="#63b8ff" stroke="#63b8ff" points="616.64,-191.98 623.8,-184.17 613.34,-185.8 616.64,-191.98"/>
</a>
</g>
</g>
<!-- Node20&#45;&gt;Node4 -->
<g id="edge25_Node000020_Node000004" class="edge">
<title>Node20&#45;&gt;Node4</title>
<g id="a_edge25_Node000020_Node000004"><a xlink:title=" ">
<path fill="none" stroke="#63b8ff" d="M542.27,-219.73C545.59,-199.02 556.11,-146.11 581,-110 589.19,-98.12 601.4,-87.69 612.14,-79.92"/>
<polygon fill="#63b8ff" stroke="#63b8ff" points="614.43,-82.59 620.69,-74.04 610.47,-76.82 614.43,-82.59"/>
</a>
</g>
</g>
<!-- Node21 -->
<g id="Node000021" class="node">
<title>Node21</title>
<g id="a_Node000021"><a xlink:href="cbdata_8h.html" target="_top" xlink:title=" ">
<polygon fill="white" stroke="#666666" points="490.5,-184 431.5,-184 431.5,-165 490.5,-165 490.5,-184"/>
<text text-anchor="middle" x="461" y="-172" font-family="Helvetica,sans-Serif" font-size="10.00">cbdata.h</text>
</a>
</g>
</g>
<!-- Node20&#45;&gt;Node21 -->
<g id="edge26_Node000020_Node000021" class="edge">
<title>Node20&#45;&gt;Node21</title>
<g id="a_edge26_Node000020_Node000021"><a xlink:title=" ">
<path fill="none" stroke="#63b8ff" d="M528.15,-219.98C515.86,-211.84 497.09,-199.41 482.52,-189.76"/>
<polygon fill="#63b8ff" stroke="#63b8ff" points="484.36,-186.78 474.09,-184.17 480.49,-192.61 484.36,-186.78"/>
</a>
</g>
</g>
<!-- Node22&#45;&gt;Node21 -->
<g id="edge34_Node000022_Node000021" class="edge">
<title>Node22&#45;&gt;Node21</title>
<g id="a_edge34_Node000022_Node000021"><a xlink:title=" ">
<path fill="none" stroke="#63b8ff" d="M411.48,-219.98C420.2,-212.15 433.34,-200.34 443.9,-190.86"/>
<polygon fill="#63b8ff" stroke="#63b8ff" points="446.25,-193.46 451.35,-184.17 441.57,-188.25 446.25,-193.46"/>
</a>
</g>
</g>
<!-- Node23 -->
<g id="Node000023" class="node">
<title>Node23</title>
<g id="a_Node000023"><a xlink:href="TextException_8h.html" target="_top" xlink:title=" ">
<polygon fill="white" stroke="#666666" points="242,-184 122,-184 122,-165 242,-165 242,-184"/>
<text text-anchor="middle" x="182" y="-172" font-family="Helvetica,sans-Serif" font-size="10.00">base/TextException.h</text>
</a>
</g>
</g>
<!-- Node22&#45;&gt;Node23 -->
<g id="edge28_Node000022_Node000023" class="edge">
<title>Node22&#45;&gt;Node23</title>
<g id="a_edge28_Node000022_Node000023"><a xlink:title=" ">
<path fill="none" stroke="#63b8ff" d="M366.65,-219.98C328.84,-210.87 268.74,-196.4 227.43,-186.45"/>
<polygon fill="#63b8ff" stroke="#63b8ff" points="228.17,-183.02 217.62,-184.08 226.53,-189.83 228.17,-183.02"/>
</a>
</g>
</g>
<!-- Node22&#45;&gt;Node27 -->
<g id="edge35_Node000022_Node000027" class="edge">
<title>Node22&#45;&gt;Node27</title>
<g id="a_edge35_Node000022_Node000027"><a xlink:title=" ">
<path fill="none" stroke="#63b8ff" d="M389.15,-219.98C376.86,-211.84 358.09,-199.41 343.52,-189.76"/>
<polygon fill="#63b8ff" stroke="#63b8ff" points="345.36,-186.78 335.09,-184.17 341.49,-192.61 345.36,-186.78"/>
</a>
</g>
</g>
<!-- Node24 -->
<g id="Node000024" class="node">
<title>Node24</title>
<g id="a_Node000024"><a xlink:href="Assure_8h.html" target="_top" xlink:title=" ">
<polygon fill="white" stroke="#666666" points="116.5,-129 31.5,-129 31.5,-110 116.5,-110 116.5,-129"/>
<text text-anchor="middle" x="74" y="-117" font-family="Helvetica,sans-Serif" font-size="10.00">base/Assure.h</text>
</a>
</g>
</g>
<!-- Node23&#45;&gt;Node24 -->
<g id="edge29_Node000023_Node000024" class="edge">
<title>Node23&#45;&gt;Node24</title>
<g id="a_edge29_Node000023_Node000024"><a xlink:title=" ">
<path fill="none" stroke="#63b8ff" d="M164.65,-164.98C147.43,-156.54 120.8,-143.47 100.85,-133.68"/>
<polygon fill="#63b8ff" stroke="#63b8ff" points="102.19,-130.43 91.67,-129.17 99.1,-136.72 102.19,-130.43"/>
</a>
</g>
</g>
<!-- Node25 -->
<g id="Node000025" class="node">
<title>Node25</title>
<g id="a_Node000025"><a xlink:href="Here_8h.html" target="_top" xlink:title=" ">
<polygon fill="white" stroke="#666666" points="135.5,-74 60.5,-74 60.5,-55 135.5,-55 135.5,-74"/>
<text text-anchor="middle" x="98" y="-62" font-family="Helvetica,sans-Serif" font-size="10.00">base/Here.h</text>
</a>
</g>
</g>
<!-- Node23&#45;&gt;Node25 -->
<g id="edge32_Node000023_Node000025" class="edge">
<title>Node23&#45;&gt;Node25</title>
<g id="a_edge32_Node000023_Node000025"><a xlink:title=" ">
<path fill="none" stroke="#63b8ff" d="M124.56,-164.97C83.96,-157.63 34.6,-145.59 22,-129 6.04,-108 36.5,-89.36 63.48,-77.8"/>
<polygon fill="#63b8ff" stroke="#63b8ff" points="64.85,-81.02 72.79,-74.01 62.21,-74.54 64.85,-81.02"/>
</a>
</g>
</g>
<!-- Node26 -->
<g id="Node000026" class="node">
<title>Node26</title>
<g id="a_Node000026"><a xlink:title=" ">
<polygon fill="#e0e0e0" stroke="#999999" points="199.5,-129 134.5,-129 134.5,-110 199.5,-110 199.5,-129"/>
<text text-anchor="middle" x="167" y="-117" font-family="Helvetica,sans-Serif" font-size="10.00">stdexcept</text>
</a>
</g>
</g>
<!-- Node23&#45;&gt;Node26 -->
<g id="edge33_Node000023_Node000026" class="edge">
<title>Node23&#45;&gt;Node26</title>
<g id="a_edge33_Node000023_Node000026"><a xlink:title=" ">
<path fill="none" stroke="#63b8ff" d="M179.52,-164.75C177.54,-157.72 174.68,-147.62 172.19,-138.84"/>
<polygon fill="#63b8ff" stroke="#63b8ff" points="175.52,-137.76 169.43,-129.09 168.79,-139.66 175.52,-137.76"/>
</a>
</g>
</g>
<!-- Node24&#45;&gt;Node25 -->
<g id="edge30_Node000024_Node000025" class="edge">
<title>Node24&#45;&gt;Node25</title>
<g id="a_edge30_Node000024_Node000025"><a xlink:title=" ">
<path fill="none" stroke="#63b8ff" d="M77.96,-109.75C81.21,-102.57 85.92,-92.18 89.95,-83.27"/>
<polygon fill="#63b8ff" stroke="#63b8ff" points="93.17,-84.64 94.11,-74.09 86.8,-81.75 93.17,-84.64"/>
</a>
</g>
</g>
<!-- Node25&#45;&gt;Node5 -->
<g id="edge31_Node000025_Node000005" class="edge">
<title>Node25&#45;&gt;Node5</title>
<g id="a_edge31_Node000025_Node000005"><a xlink:title=" ">
<path fill="none" stroke="#63b8ff" d="M135.53,-57.93C205.2,-47.58 353.54,-25.56 420.7,-15.59"/>
<polygon fill="#63b8ff" stroke="#63b8ff" points="421.38,-19.03 430.75,-14.1 420.35,-12.11 421.38,-19.03"/>
</a>
</g>
</g>
<!-- Node27&#45;&gt;Node8 -->
<g id="edge38_Node000027_Node000008" class="edge">
<title>Node27&#45;&gt;Node8</title>
<g id="a_edge38_Node000027_Node000008"><a xlink:title=" ">
<path fill="none" stroke="#63b8ff" d="M369.22,-170.06C407.91,-165.42 462.8,-154.53 504,-129 525.68,-115.56 570.05,-57.09 591.65,-27.62"/>
<polygon fill="#63b8ff" stroke="#63b8ff" points="594.75,-29.31 597.8,-19.16 589.09,-25.19 594.75,-29.31"/>
</a>
</g>
</g>
<!-- Node27&#45;&gt;Node18 -->
<g id="edge37_Node000027_Node000018" class="edge">
<title>Node27&#45;&gt;Node18</title>
<g id="a_edge37_Node000027_Node000018"><a xlink:title=" ">
<path fill="none" stroke="#63b8ff" d="M310.8,-164.69C282.99,-142.71 212.63,-86.31 207,-74 200.17,-59.05 206.64,-40.92 213.66,-27.86"/>
<polygon fill="#63b8ff" stroke="#63b8ff" points="216.82,-29.39 218.92,-19.01 210.8,-25.82 216.82,-29.39"/>
</a>
</g>
</g>
<!-- Node27&#45;&gt;Node25 -->
<g id="edge36_Node000027_Node000025" class="edge">
<title>Node27&#45;&gt;Node25</title>
<g id="a_edge36_Node000027_Node000025"><a xlink:title=" ">
<path fill="none" stroke="#63b8ff" d="M307.9,-164.9C286.66,-152.11 244.99,-127.7 208,-110 182.7,-97.89 153.2,-86.08 131.12,-77.67"/>
<polygon fill="#63b8ff" stroke="#63b8ff" points="132.13,-74.31 121.54,-74.05 129.66,-80.86 132.13,-74.31"/>
</a>
</g>
</g>
<!-- Node28 -->
<g id="Node000028" class="node">
<title>Node28</title>
<g id="a_Node000028"><a xlink:title=" ">
<polygon fill="#e0e0e0" stroke="#999999" points="350,-129 294,-129 294,-110 350,-110 350,-129"/>
<text text-anchor="middle" x="322" y="-117" font-family="Helvetica,sans-Serif" font-size="10.00">sstream</text>
</a>
</g>
</g>
<!-- Node27&#45;&gt;Node28 -->
<g id="edge39_Node000027_Node000028" class="edge">
<title>Node27&#45;&gt;Node28</title>
<g id="a_edge39_Node000027_Node000028"><a xlink:title=" ">
<path fill="none" stroke="#63b8ff" d="M322,-164.75C322,-157.8 322,-147.85 322,-139.13"/>
<polygon fill="#63b8ff" stroke="#63b8ff" points="325.5,-139.09 322,-129.09 318.5,-139.09 325.5,-139.09"/>
</a>
</g>
</g>
<!-- Node29 -->
<g id="Node000029" class="node">
<title>Node29</title>
<g id="a_Node000029"><a xlink:title=" ">
<polygon fill="#e0e0e0" stroke="#999999" points="424,-129 368,-129 368,-110 424,-110 424,-129"/>
<text text-anchor="middle" x="396" y="-117" font-family="Helvetica,sans-Serif" font-size="10.00">iomanip</text>
</a>
</g>
</g>
<!-- Node27&#45;&gt;Node29 -->
<g id="edge40_Node000027_Node000029" class="edge">
<title>Node27&#45;&gt;Node29</title>
<g id="a_edge40_Node000027_Node000029"><a xlink:title=" ">
<path fill="none" stroke="#63b8ff" d="M333.89,-164.98C345.15,-156.92 362.29,-144.65 375.71,-135.03"/>
<polygon fill="#63b8ff" stroke="#63b8ff" points="377.8,-137.84 383.89,-129.17 373.73,-132.15 377.8,-137.84"/>
</a>
</g>
</g>
<!-- Node30&#45;&gt;Node27 -->
<g id="edge42_Node000030_Node000027" class="edge">
<title>Node30&#45;&gt;Node27</title>
<g id="a_edge42_Node000030_Node000027"><a xlink:title=" ">
<path fill="none" stroke="#63b8ff" d="M180.99,-219.98C209.2,-211.09 253.64,-197.07 285.08,-187.15"/>
<polygon fill="#63b8ff" stroke="#63b8ff" points="286.31,-190.43 294.8,-184.08 284.21,-183.75 286.31,-190.43"/>
</a>
</g>
</g>
<!-- Node31 -->
<g id="Node000031" class="node">
<title>Node31</title>
<g id="a_Node000031"><a xlink:title=" ">
<polygon fill="#e0e0e0" stroke="#999999" points="42,-184 0,-184 0,-165 42,-165 42,-184"/>
<text text-anchor="middle" x="21" y="-172" font-family="Helvetica,sans-Serif" font-size="10.00">array</text>
</a>
</g>
</g>
<!-- Node30&#45;&gt;Node31 -->
<g id="edge43_Node000030_Node000031" class="edge">
<title>Node30&#45;&gt;Node31</title>
<g id="a_edge43_Node000030_Node000031"><a xlink:title=" ">
<path fill="none" stroke="#63b8ff" d="M132.63,-219.98C110.72,-211.25 76.43,-197.59 51.64,-187.71"/>
<polygon fill="#63b8ff" stroke="#63b8ff" points="52.9,-184.44 42.32,-183.99 50.31,-190.95 52.9,-184.44"/>
</a>
</g>
</g>
<!-- Node32 -->
<g id="Node000032" class="node">
<title>Node32</title>
<g id="a_Node000032"><a xlink:title=" ">
<polygon fill="#e0e0e0" stroke="#999999" points="104,-184 60,-184 60,-165 104,-165 104,-184"/>
<text text-anchor="middle" x="82" y="-172" font-family="Helvetica,sans-Serif" font-size="10.00">limits</text>
</a>
</g>
</g>
<!-- Node30&#45;&gt;Node32 -->
<g id="edge44_Node000030_Node000032" class="edge">
<title>Node30&#45;&gt;Node32</title>
<g id="a_edge44_Node000030_Node000032"><a xlink:title=" ">
<path fill="none" stroke="#63b8ff" d="M142.43,-219.98C131.58,-212 115.12,-199.88 102.12,-190.31"/>
<polygon fill="#63b8ff" stroke="#63b8ff" points="103.91,-187.28 93.78,-184.17 99.76,-192.92 103.91,-187.28"/>
</a>
</g>
</g>
<!-- Node34 -->
<g id="Node000034" class="node">
<title>Node34</title>
<g id="a_Node000034"><a xlink:title=" ">
<polygon fill="#e0e0e0" stroke="#999999" points="741.5,-239 672.5,-239 672.5,-220 741.5,-220 741.5,-239"/>
<text text-anchor="middle" x="707" y="-227" font-family="Helvetica,sans-Serif" font-size="10.00">type_traits</text>
</a>
</g>
</g>
<!-- Node33&#45;&gt;Node34 -->
<g id="edge47_Node000033_Node000034" class="edge">
<title>Node33&#45;&gt;Node34</title>
<g id="a_edge47_Node000033_Node000034"><a xlink:title=" ">
<path fill="none" stroke="#63b8ff" d="M707,-274.75C707,-267.8 707,-257.85 707,-249.13"/>
<polygon fill="#63b8ff" stroke="#63b8ff" points="710.5,-249.09 707,-239.09 703.5,-249.09 710.5,-249.09"/>
</a>
</g>
</g>
</g>
</svg>
