<?xml version="1.0" encoding="UTF-8" standalone="no"?>
<!DOCTYPE svg PUBLIC "-//W3C//DTD SVG 1.1//EN"
 "http://www.w3.org/Graphics/SVG/1.1/DTD/svg11.dtd">
<!-- Generated by graphviz version 2.43.0 (0)
 -->
<!-- Title: squid/src/base/AsyncCallQueue.cc Pages: 1 -->
<svg width="3705pt" height="368pt"
 viewBox="0.00 0.00 3705.00 368.00" xmlns="http://www.w3.org/2000/svg" xmlns:xlink="http://www.w3.org/1999/xlink">
<g id="graph0" class="graph" transform="scale(1 1) rotate(0) translate(4 364)">
<title>squid/src/base/AsyncCallQueue.cc</title>
<!-- Node1 -->
<g id="Node000001" class="node">
<title>Node1</title>
<g id="a_Node000001"><a xlink:title=" ">
<polygon fill="#999999" stroke="#666666" points="3343.5,-360 3206.5,-360 3206.5,-330 3343.5,-330 3343.5,-360"/>
<text text-anchor="start" x="3214.5" y="-348" font-family="Helvetica,sans-Serif" font-size="10.00">squid/src/base/AsyncCall</text>
<text text-anchor="middle" x="3275" y="-337" font-family="Helvetica,sans-Serif" font-size="10.00">Queue.cc</text>
</a>
</g>
</g>
<!-- Node2 -->
<g id="Node000002" class="node">
<title>Node2</title>
<g id="a_Node000002"><a xlink:href="squid_8h.html" target="_top" xlink:title=" ">
<polygon fill="white" stroke="#666666" points="2509,-294 2457,-294 2457,-275 2509,-275 2509,-294"/>
<text text-anchor="middle" x="2483" y="-282" font-family="Helvetica,sans-Serif" font-size="10.00">squid.h</text>
</a>
</g>
</g>
<!-- Node1&#45;&gt;Node2 -->
<g id="edge1_Node000001_Node000002" class="edge">
<title>Node1&#45;&gt;Node2</title>
<g id="a_edge1_Node000001_Node000002"><a xlink:title=" ">
<path fill="none" stroke="#63b8ff" d="M3206.45,-338.94C3044.32,-326.96 2641.76,-297.23 2519.07,-288.16"/>
<polygon fill="#63b8ff" stroke="#63b8ff" points="2519.29,-284.67 2509.06,-287.43 2518.78,-291.65 2519.29,-284.67"/>
</a>
</g>
</g>
<!-- Node44 -->
<g id="Node000044" class="node">
<title>Node44</title>
<g id="a_Node000044"><a xlink:href="AsyncCall_8h.html" target="_top" xlink:title=" ">
<polygon fill="white" stroke="#666666" points="3278,-184 3178,-184 3178,-165 3278,-165 3278,-184"/>
<text text-anchor="middle" x="3228" y="-172" font-family="Helvetica,sans-Serif" font-size="10.00">base/AsyncCall.h</text>
</a>
</g>
</g>
<!-- Node1&#45;&gt;Node44 -->
<g id="edge30_Node000001_Node000044" class="edge">
<title>Node1&#45;&gt;Node44</title>
<g id="a_edge30_Node000001_Node000044"><a xlink:title=" ">
<path fill="none" stroke="#63b8ff" d="M3266.04,-329.65C3260.35,-319.92 3253.28,-306.6 3249,-294 3237.39,-259.83 3231.89,-217.82 3229.54,-194.11"/>
<polygon fill="#63b8ff" stroke="#63b8ff" points="3233.01,-193.69 3228.62,-184.05 3226.04,-194.33 3233.01,-193.69"/>
</a>
</g>
</g>
<!-- Node60 -->
<g id="Node000060" class="node">
<title>Node60</title>
<g id="a_Node000060"><a xlink:href="AsyncCallQueue_8h.html" target="_top" xlink:title=" ">
<polygon fill="white" stroke="#666666" points="3388.5,-294 3257.5,-294 3257.5,-275 3388.5,-275 3388.5,-294"/>
<text text-anchor="middle" x="3323" y="-282" font-family="Helvetica,sans-Serif" font-size="10.00">base/AsyncCallQueue.h</text>
</a>
</g>
</g>
<!-- Node1&#45;&gt;Node60 -->
<g id="edge48_Node000001_Node000060" class="edge">
<title>Node1&#45;&gt;Node60</title>
<g id="a_edge48_Node000001_Node000060"><a xlink:title=" ">
<path fill="none" stroke="#63b8ff" d="M3286.62,-329.84C3293.44,-321.52 3302.11,-310.96 3309.27,-302.23"/>
<polygon fill="#63b8ff" stroke="#63b8ff" points="3312.17,-304.22 3315.81,-294.27 3306.76,-299.78 3312.17,-304.22"/>
</a>
</g>
</g>
<!-- Node62 -->
<g id="Node000062" class="node">
<title>Node62</title>
<g id="a_Node000062"><a xlink:href="debug_2Stream_8h.html" target="_top" xlink:title=" ">
<polygon fill="white" stroke="#666666" points="3594,-129 3500,-129 3500,-110 3594,-110 3594,-129"/>
<text text-anchor="middle" x="3547" y="-117" font-family="Helvetica,sans-Serif" font-size="10.00">debug/Stream.h</text>
</a>
</g>
</g>
<!-- Node1&#45;&gt;Node62 -->
<g id="edge53_Node000001_Node000062" class="edge">
<title>Node1&#45;&gt;Node62</title>
<g id="a_edge53_Node000001_Node000062"><a xlink:title=" ">
<path fill="none" stroke="#63b8ff" d="M3324.44,-329.92C3348.06,-321.75 3375.92,-309.89 3398,-294 3460.75,-248.85 3514.24,-172.02 3536.25,-137.82"/>
<polygon fill="#63b8ff" stroke="#63b8ff" points="3539.22,-139.68 3541.61,-129.36 3533.3,-135.93 3539.22,-139.68"/>
</a>
</g>
</g>
<!-- Node3 -->
<g id="Node000003" class="node">
<title>Node3</title>
<g id="a_Node000003"><a xlink:href="autoconf_8h.html" target="_top" xlink:title=" ">
<polygon fill="white" stroke="#666666" points="2475,-239 2407,-239 2407,-220 2475,-220 2475,-239"/>
<text text-anchor="middle" x="2441" y="-227" font-family="Helvetica,sans-Serif" font-size="10.00">autoconf.h</text>
</a>
</g>
</g>
<!-- Node2&#45;&gt;Node3 -->
<g id="edge2_Node000002_Node000003" class="edge">
<title>Node2&#45;&gt;Node3</title>
<g id="a_edge2_Node000002_Node000003"><a xlink:title=" ">
<path fill="none" stroke="#63b8ff" d="M2476.06,-274.75C2470.13,-267.26 2461.43,-256.28 2454.18,-247.13"/>
<polygon fill="#63b8ff" stroke="#63b8ff" points="2456.76,-244.75 2447.81,-239.09 2451.27,-249.1 2456.76,-244.75"/>
</a>
</g>
</g>
<!-- Node4 -->
<g id="Node000004" class="node">
<title>Node4</title>
<g id="a_Node000004"><a xlink:href="version_8h.html" target="_top" xlink:title=" ">
<polygon fill="white" stroke="#666666" points="2555,-239 2493,-239 2493,-220 2555,-220 2555,-239"/>
<text text-anchor="middle" x="2524" y="-227" font-family="Helvetica,sans-Serif" font-size="10.00">version.h</text>
</a>
</g>
</g>
<!-- Node2&#45;&gt;Node4 -->
<g id="edge3_Node000002_Node000004" class="edge">
<title>Node2&#45;&gt;Node4</title>
<g id="a_edge3_Node000002_Node000004"><a xlink:title=" ">
<path fill="none" stroke="#63b8ff" d="M2489.77,-274.75C2495.56,-267.26 2504.06,-256.28 2511.14,-247.13"/>
<polygon fill="#63b8ff" stroke="#63b8ff" points="2514.01,-249.14 2517.36,-239.09 2508.47,-244.86 2514.01,-249.14"/>
</a>
</g>
</g>
<!-- Node5 -->
<g id="Node000005" class="node">
<title>Node5</title>
<g id="a_Node000005"><a xlink:href="compat_8h.html" target="_top" xlink:title=" ">
<polygon fill="white" stroke="#666666" points="1744,-239 1642,-239 1642,-220 1744,-220 1744,-239"/>
<text text-anchor="middle" x="1693" y="-227" font-family="Helvetica,sans-Serif" font-size="10.00">compat/compat.h</text>
</a>
</g>
</g>
<!-- Node2&#45;&gt;Node5 -->
<g id="edge4_Node000002_Node000005" class="edge">
<title>Node2&#45;&gt;Node5</title>
<g id="a_edge4_Node000002_Node000005"><a xlink:title=" ">
<path fill="none" stroke="#63b8ff" d="M2456.72,-281.74C2345.96,-274.31 1915.64,-245.44 1754.43,-234.62"/>
<polygon fill="#63b8ff" stroke="#63b8ff" points="1754.42,-231.11 1744.21,-233.94 1753.95,-238.1 1754.42,-231.11"/>
</a>
</g>
</g>
<!-- Node6 -->
<g id="Node000006" class="node">
<title>Node6</title>
<g id="a_Node000006"><a xlink:href="osdetect_8h.html" target="_top" xlink:title=" ">
<polygon fill="white" stroke="#666666" points="2275.5,-184 2168.5,-184 2168.5,-165 2275.5,-165 2275.5,-184"/>
<text text-anchor="middle" x="2222" y="-172" font-family="Helvetica,sans-Serif" font-size="10.00">compat/osdetect.h</text>
</a>
</g>
</g>
<!-- Node5&#45;&gt;Node6 -->
<g id="edge5_Node000005_Node000006" class="edge">
<title>Node5&#45;&gt;Node6</title>
<g id="a_edge5_Node000005_Node000006"><a xlink:title=" ">
<path fill="none" stroke="#63b8ff" d="M1744.1,-224.28C1828.08,-217.19 2000.8,-202.01 2158.07,-184.06"/>
<polygon fill="#63b8ff" stroke="#63b8ff" points="2158.87,-187.49 2168.4,-182.88 2158.07,-180.54 2158.87,-187.49"/>
</a>
</g>
</g>
<!-- Node7 -->
<g id="Node000007" class="node">
<title>Node7</title>
<g id="a_Node000007"><a xlink:href="fdsetsize_8h.html" target="_top" xlink:title=" ">
<polygon fill="white" stroke="#666666" points="2404,-184 2294,-184 2294,-165 2404,-165 2404,-184"/>
<text text-anchor="middle" x="2349" y="-172" font-family="Helvetica,sans-Serif" font-size="10.00">compat/fdsetsize.h</text>
</a>
</g>
</g>
<!-- Node5&#45;&gt;Node7 -->
<g id="edge6_Node000005_Node000007" class="edge">
<title>Node5&#45;&gt;Node7</title>
<g id="a_edge6_Node000005_Node000007"><a xlink:title=" ">
<path fill="none" stroke="#63b8ff" d="M1744.07,-225.6C1844.94,-219.67 2077.03,-205 2283.58,-183.98"/>
<polygon fill="#63b8ff" stroke="#63b8ff" points="2284.11,-187.44 2293.71,-182.94 2283.4,-180.48 2284.11,-187.44"/>
</a>
</g>
</g>
<!-- Node8 -->
<g id="Node000008" class="node">
<title>Node8</title>
<g id="a_Node000008"><a xlink:href="types_8h.html" target="_top" xlink:title=" ">
<polygon fill="#fff0f0" stroke="red" points="2514,-184 2422,-184 2422,-165 2514,-165 2514,-184"/>
<text text-anchor="middle" x="2468" y="-172" font-family="Helvetica,sans-Serif" font-size="10.00">compat/types.h</text>
</a>
</g>
</g>
<!-- Node5&#45;&gt;Node8 -->
<g id="edge7_Node000005_Node000008" class="edge">
<title>Node5&#45;&gt;Node8</title>
<g id="a_edge7_Node000005_Node000008"><a xlink:title=" ">
<path fill="none" stroke="#63b8ff" d="M1744.2,-226.95C1860.79,-223.06 2155.14,-211.3 2411.57,-184.05"/>
<polygon fill="#63b8ff" stroke="#63b8ff" points="2412.26,-187.5 2421.83,-182.95 2411.51,-180.54 2412.26,-187.5"/>
</a>
</g>
</g>
<!-- Node10 -->
<g id="Node000010" class="node">
<title>Node10</title>
<g id="a_Node000010"><a xlink:href="aix_8h.html" target="_top" xlink:title=" ">
<polygon fill="white" stroke="#666666" points="2627.5,-184 2532.5,-184 2532.5,-165 2627.5,-165 2627.5,-184"/>
<text text-anchor="middle" x="2580" y="-172" font-family="Helvetica,sans-Serif" font-size="10.00">compat/os/aix.h</text>
</a>
</g>
</g>
<!-- Node5&#45;&gt;Node10 -->
<g id="edge8_Node000005_Node000010" class="edge">
<title>Node5&#45;&gt;Node10</title>
<g id="a_edge8_Node000005_Node000010"><a xlink:title=" ">
<path fill="none" stroke="#63b8ff" d="M1744.13,-227.44C1872.9,-224.4 2221.1,-213.97 2522.21,-183.96"/>
<polygon fill="#63b8ff" stroke="#63b8ff" points="2522.86,-187.42 2532.46,-182.93 2522.16,-180.45 2522.86,-187.42"/>
</a>
</g>
</g>
<!-- Node11 -->
<g id="Node000011" class="node">
<title>Node11</title>
<g id="a_Node000011"><a xlink:href="android_8h.html" target="_top" xlink:title=" ">
<polygon fill="white" stroke="#666666" points="2762,-184 2646,-184 2646,-165 2762,-165 2762,-184"/>
<text text-anchor="middle" x="2704" y="-172" font-family="Helvetica,sans-Serif" font-size="10.00">compat/os/android.h</text>
</a>
</g>
</g>
<!-- Node5&#45;&gt;Node11 -->
<g id="edge9_Node000005_Node000011" class="edge">
<title>Node5&#45;&gt;Node11</title>
<g id="a_edge9_Node000005_Node000011"><a xlink:title=" ">
<path fill="none" stroke="#63b8ff" d="M1744.2,-227.47C1884.75,-224.36 2288.56,-213.41 2635.79,-183.93"/>
<polygon fill="#63b8ff" stroke="#63b8ff" points="2636.13,-187.42 2645.79,-183.08 2635.53,-180.44 2636.13,-187.42"/>
</a>
</g>
</g>
<!-- Node12 -->
<g id="Node000012" class="node">
<title>Node12</title>
<g id="a_Node000012"><a xlink:href="dragonfly_8h.html" target="_top" xlink:title=" ">
<polygon fill="white" stroke="#666666" points="2904,-184 2780,-184 2780,-165 2904,-165 2904,-184"/>
<text text-anchor="middle" x="2842" y="-172" font-family="Helvetica,sans-Serif" font-size="10.00">compat/os/dragonfly.h</text>
</a>
</g>
</g>
<!-- Node5&#45;&gt;Node12 -->
<g id="edge10_Node000005_Node000012" class="edge">
<title>Node5&#45;&gt;Node12</title>
<g id="a_edge10_Node000005_Node000012"><a xlink:title=" ">
<path fill="none" stroke="#63b8ff" d="M1744.15,-227.8C1897.76,-225.41 2368.67,-215.86 2769.64,-184.04"/>
<polygon fill="#63b8ff" stroke="#63b8ff" points="2770,-187.52 2779.69,-183.24 2769.44,-180.55 2770,-187.52"/>
</a>
</g>
</g>
<!-- Node13 -->
<g id="Node000013" class="node">
<title>Node13</title>
<g id="a_Node000013"><a xlink:href="freebsd_8h.html" target="_top" xlink:title=" ">
<polygon fill="white" stroke="#666666" points="3038,-184 2922,-184 2922,-165 3038,-165 3038,-184"/>
<text text-anchor="middle" x="2980" y="-172" font-family="Helvetica,sans-Serif" font-size="10.00">compat/os/freebsd.h</text>
</a>
</g>
</g>
<!-- Node5&#45;&gt;Node13 -->
<g id="edge11_Node000005_Node000013" class="edge">
<title>Node5&#45;&gt;Node13</title>
<g id="a_edge11_Node000005_Node000013"><a xlink:title=" ">
<path fill="none" stroke="#63b8ff" d="M1744.24,-228.27C1910.91,-227.19 2452.92,-220.94 2911.79,-184.01"/>
<polygon fill="#63b8ff" stroke="#63b8ff" points="2912.24,-187.49 2921.93,-183.19 2911.68,-180.51 2912.24,-187.49"/>
</a>
</g>
</g>
<!-- Node14 -->
<g id="Node000014" class="node">
<title>Node14</title>
<g id="a_Node000014"><a xlink:href="hpux_8h.html" target="_top" xlink:title=" ">
<polygon fill="white" stroke="#666666" points="3160,-184 3056,-184 3056,-165 3160,-165 3160,-184"/>
<text text-anchor="middle" x="3108" y="-172" font-family="Helvetica,sans-Serif" font-size="10.00">compat/os/hpux.h</text>
</a>
</g>
</g>
<!-- Node5&#45;&gt;Node14 -->
<g id="edge12_Node000005_Node000014" class="edge">
<title>Node5&#45;&gt;Node14</title>
<g id="a_edge12_Node000005_Node000014"><a xlink:title=" ">
<path fill="none" stroke="#63b8ff" d="M1744.14,-228.76C1922.28,-229.26 2532.14,-227.53 3045.59,-184.02"/>
<polygon fill="#63b8ff" stroke="#63b8ff" points="3046.13,-187.48 3055.8,-183.14 3045.54,-180.51 3046.13,-187.48"/>
</a>
</g>
</g>
<!-- Node15 -->
<g id="Node000015" class="node">
<title>Node15</title>
<g id="a_Node000015"><a xlink:href="linux_8h.html" target="_top" xlink:title=" ">
<polygon fill="white" stroke="#666666" points="104,-184 0,-184 0,-165 104,-165 104,-184"/>
<text text-anchor="middle" x="52" y="-172" font-family="Helvetica,sans-Serif" font-size="10.00">compat/os/linux.h</text>
</a>
</g>
</g>
<!-- Node5&#45;&gt;Node15 -->
<g id="edge13_Node000005_Node000015" class="edge">
<title>Node5&#45;&gt;Node15</title>
<g id="a_edge13_Node000005_Node000015"><a xlink:title=" ">
<path fill="none" stroke="#63b8ff" d="M1641.85,-227.82C1408.36,-224.6 441.39,-209.98 114.62,-184.01"/>
<polygon fill="#63b8ff" stroke="#63b8ff" points="114.45,-180.48 104.2,-183.16 113.88,-187.46 114.45,-180.48"/>
</a>
</g>
</g>
<!-- Node16 -->
<g id="Node000016" class="node">
<title>Node16</title>
<g id="a_Node000016"><a xlink:href="macosx_8h.html" target="_top" xlink:title=" ">
<polygon fill="white" stroke="#666666" points="240,-184 122,-184 122,-165 240,-165 240,-184"/>
<text text-anchor="middle" x="181" y="-172" font-family="Helvetica,sans-Serif" font-size="10.00">compat/os/macosx.h</text>
</a>
</g>
</g>
<!-- Node5&#45;&gt;Node16 -->
<g id="edge14_Node000005_Node000016" class="edge">
<title>Node5&#45;&gt;Node16</title>
<g id="a_edge14_Node000005_Node000016"><a xlink:title=" ">
<path fill="none" stroke="#63b8ff" d="M1641.75,-228.65C1456.06,-228.84 800.94,-226.31 250.43,-184.03"/>
<polygon fill="#63b8ff" stroke="#63b8ff" points="250.55,-180.53 240.3,-183.24 250.01,-187.51 250.55,-180.53"/>
</a>
</g>
</g>
<!-- Node17 -->
<g id="Node000017" class="node">
<title>Node17</title>
<g id="a_Node000017"><a xlink:href="mingw_8h.html" target="_top" xlink:title=" ">
<polygon fill="white" stroke="#666666" points="370,-184 258,-184 258,-165 370,-165 370,-184"/>
<text text-anchor="middle" x="314" y="-172" font-family="Helvetica,sans-Serif" font-size="10.00">compat/os/mingw.h</text>
</a>
</g>
</g>
<!-- Node5&#45;&gt;Node17 -->
<g id="edge15_Node000005_Node000017" class="edge">
<title>Node5&#45;&gt;Node17</title>
<g id="a_edge15_Node000005_Node000017"><a xlink:title=" ">
<path fill="none" stroke="#63b8ff" d="M1641.86,-228.53C1467.14,-228.28 877.66,-224.34 380.59,-184.04"/>
<polygon fill="#63b8ff" stroke="#63b8ff" points="380.59,-180.53 370.33,-183.2 380.02,-187.51 380.59,-180.53"/>
</a>
</g>
</g>
<!-- Node18 -->
<g id="Node000018" class="node">
<title>Node18</title>
<g id="a_Node000018"><a xlink:href="mswindows_8h.html" target="_top" xlink:title=" ">
<polygon fill="white" stroke="#666666" points="525.5,-184 388.5,-184 388.5,-165 525.5,-165 525.5,-184"/>
<text text-anchor="middle" x="457" y="-172" font-family="Helvetica,sans-Serif" font-size="10.00">compat/os/mswindows.h</text>
</a>
</g>
</g>
<!-- Node5&#45;&gt;Node18 -->
<g id="edge16_Node000005_Node000018" class="edge">
<title>Node5&#45;&gt;Node18</title>
<g id="a_edge16_Node000005_Node000018"><a xlink:title=" ">
<path fill="none" stroke="#63b8ff" d="M1641.8,-227.84C1480.7,-225.49 969.55,-215.91 536.05,-184.1"/>
<polygon fill="#63b8ff" stroke="#63b8ff" points="536.06,-180.59 525.82,-183.34 535.54,-187.57 536.06,-180.59"/>
</a>
</g>
</g>
<!-- Node19 -->
<g id="Node000019" class="node">
<title>Node19</title>
<g id="a_Node000019"><a xlink:href="netbsd_8h.html" target="_top" xlink:title=" ">
<polygon fill="white" stroke="#666666" points="656.5,-184 543.5,-184 543.5,-165 656.5,-165 656.5,-184"/>
<text text-anchor="middle" x="600" y="-172" font-family="Helvetica,sans-Serif" font-size="10.00">compat/os/netbsd.h</text>
</a>
</g>
</g>
<!-- Node5&#45;&gt;Node19 -->
<g id="edge17_Node000005_Node000019" class="edge">
<title>Node5&#45;&gt;Node19</title>
<g id="a_edge17_Node000005_Node000019"><a xlink:title=" ">
<path fill="none" stroke="#63b8ff" d="M1641.82,-227.85C1492.92,-225.64 1046.89,-216.64 666.78,-184.08"/>
<polygon fill="#63b8ff" stroke="#63b8ff" points="666.95,-180.58 656.69,-183.21 666.35,-187.55 666.95,-180.58"/>
</a>
</g>
</g>
<!-- Node20 -->
<g id="Node000020" class="node">
<title>Node20</title>
<g id="a_Node000020"><a xlink:href="openbsd_8h.html" target="_top" xlink:title=" ">
<polygon fill="white" stroke="#666666" points="795.5,-184 674.5,-184 674.5,-165 795.5,-165 795.5,-184"/>
<text text-anchor="middle" x="735" y="-172" font-family="Helvetica,sans-Serif" font-size="10.00">compat/os/openbsd.h</text>
</a>
</g>
</g>
<!-- Node5&#45;&gt;Node20 -->
<g id="edge18_Node000005_Node000020" class="edge">
<title>Node5&#45;&gt;Node20</title>
<g id="a_edge18_Node000005_Node000020"><a xlink:title=" ">
<path fill="none" stroke="#63b8ff" d="M1641.8,-227.24C1506.79,-223.63 1129.76,-211.75 805.61,-184.08"/>
<polygon fill="#63b8ff" stroke="#63b8ff" points="805.82,-180.58 795.56,-183.21 805.22,-187.56 805.82,-180.58"/>
</a>
</g>
</g>
<!-- Node21 -->
<g id="Node000021" class="node">
<title>Node21</title>
<g id="a_Node000021"><a xlink:href="os2_8h.html" target="_top" xlink:title=" ">
<polygon fill="white" stroke="#666666" points="910.5,-184 813.5,-184 813.5,-165 910.5,-165 910.5,-184"/>
<text text-anchor="middle" x="862" y="-172" font-family="Helvetica,sans-Serif" font-size="10.00">compat/os/os2.h</text>
</a>
</g>
</g>
<!-- Node5&#45;&gt;Node21 -->
<g id="edge19_Node000005_Node000021" class="edge">
<title>Node5&#45;&gt;Node21</title>
<g id="a_edge19_Node000005_Node000021"><a xlink:title=" ">
<path fill="none" stroke="#63b8ff" d="M1641.77,-227.11C1519.18,-223.45 1199.08,-211.9 920.99,-184"/>
<polygon fill="#63b8ff" stroke="#63b8ff" points="921,-180.48 910.7,-182.95 920.29,-187.44 921,-180.48"/>
</a>
</g>
</g>
<!-- Node22 -->
<g id="Node000022" class="node">
<title>Node22</title>
<g id="a_Node000022"><a xlink:href="qnx_8h.html" target="_top" xlink:title=" ">
<polygon fill="white" stroke="#666666" points="1027,-184 929,-184 929,-165 1027,-165 1027,-184"/>
<text text-anchor="middle" x="978" y="-172" font-family="Helvetica,sans-Serif" font-size="10.00">compat/os/qnx.h</text>
</a>
</g>
</g>
<!-- Node5&#45;&gt;Node22 -->
<g id="edge20_Node000005_Node000022" class="edge">
<title>Node5&#45;&gt;Node22</title>
<g id="a_edge20_Node000005_Node000022"><a xlink:title=" ">
<path fill="none" stroke="#63b8ff" d="M1641.77,-226.39C1532.58,-221.6 1268.69,-208.46 1036.98,-184.02"/>
<polygon fill="#63b8ff" stroke="#63b8ff" points="1037.33,-180.53 1027.01,-182.96 1036.59,-187.5 1037.33,-180.53"/>
</a>
</g>
</g>
<!-- Node23 -->
<g id="Node000023" class="node">
<title>Node23</title>
<g id="a_Node000023"><a xlink:href="solaris_8h.html" target="_top" xlink:title=" ">
<polygon fill="white" stroke="#666666" points="1157,-184 1045,-184 1045,-165 1157,-165 1157,-184"/>
<text text-anchor="middle" x="1101" y="-172" font-family="Helvetica,sans-Serif" font-size="10.00">compat/os/solaris.h</text>
</a>
</g>
</g>
<!-- Node5&#45;&gt;Node23 -->
<g id="edge21_Node000005_Node000023" class="edge">
<title>Node5&#45;&gt;Node23</title>
<g id="a_edge21_Node000005_Node000023"><a xlink:title=" ">
<path fill="none" stroke="#63b8ff" d="M1641.68,-224.95C1549.06,-218.37 1347.59,-203.29 1166.95,-184.05"/>
<polygon fill="#63b8ff" stroke="#63b8ff" points="1167.32,-180.57 1157,-182.99 1166.57,-187.53 1167.32,-180.57"/>
</a>
</g>
</g>
<!-- Node24 -->
<g id="Node000024" class="node">
<title>Node24</title>
<g id="a_Node000024"><a xlink:href="sunos_8h.html" target="_top" xlink:title=" ">
<polygon fill="white" stroke="#666666" points="1283,-184 1175,-184 1175,-165 1283,-165 1283,-184"/>
<text text-anchor="middle" x="1229" y="-172" font-family="Helvetica,sans-Serif" font-size="10.00">compat/os/sunos.h</text>
</a>
</g>
</g>
<!-- Node5&#45;&gt;Node24 -->
<g id="edge22_Node000005_Node000024" class="edge">
<title>Node5&#45;&gt;Node24</title>
<g id="a_edge22_Node000005_Node000024"><a xlink:title=" ">
<path fill="none" stroke="#63b8ff" d="M1642,-223.23C1567.71,-215.47 1425.14,-200.25 1293.55,-184.17"/>
<polygon fill="#63b8ff" stroke="#63b8ff" points="1293.64,-180.65 1283.29,-182.91 1292.79,-187.6 1293.64,-180.65"/>
</a>
</g>
</g>
<!-- Node25 -->
<g id="Node000025" class="node">
<title>Node25</title>
<g id="a_Node000025"><a xlink:href="assert_8h.html" target="_top" xlink:title=" ">
<polygon fill="white" stroke="#666666" points="1396.5,-184 1301.5,-184 1301.5,-165 1396.5,-165 1396.5,-184"/>
<text text-anchor="middle" x="1349" y="-172" font-family="Helvetica,sans-Serif" font-size="10.00">compat/assert.h</text>
</a>
</g>
</g>
<!-- Node5&#45;&gt;Node25 -->
<g id="edge23_Node000005_Node000025" class="edge">
<title>Node5&#45;&gt;Node25</title>
<g id="a_edge23_Node000005_Node000025"><a xlink:title=" ">
<path fill="none" stroke="#63b8ff" d="M1641.87,-220.62C1578.98,-210.93 1472.49,-194.53 1406.72,-184.39"/>
<polygon fill="#63b8ff" stroke="#63b8ff" points="1406.94,-180.89 1396.53,-182.82 1405.88,-187.8 1406.94,-180.89"/>
</a>
</g>
</g>
<!-- Node26 -->
<g id="Node000026" class="node">
<title>Node26</title>
<g id="a_Node000026"><a xlink:href="compat__shared_8h.html" target="_top" xlink:title=" ">
<polygon fill="#fff0f0" stroke="red" points="1555,-184 1415,-184 1415,-165 1555,-165 1555,-184"/>
<text text-anchor="middle" x="1485" y="-172" font-family="Helvetica,sans-Serif" font-size="10.00">compat/compat_shared.h</text>
</a>
</g>
</g>
<!-- Node5&#45;&gt;Node26 -->
<g id="edge24_Node000005_Node000026" class="edge">
<title>Node5&#45;&gt;Node26</title>
<g id="a_edge24_Node000005_Node000026"><a xlink:title=" ">
<path fill="none" stroke="#63b8ff" d="M1659.58,-219.98C1624.06,-210.93 1567.73,-196.58 1528.7,-186.64"/>
<polygon fill="#63b8ff" stroke="#63b8ff" points="1529.24,-183.16 1518.68,-184.08 1527.51,-189.94 1529.24,-183.16"/>
</a>
</g>
</g>
<!-- Node36 -->
<g id="Node000036" class="node">
<title>Node36</title>
<g id="a_Node000036"><a xlink:href="stdvarargs_8h.html" target="_top" xlink:title=" ">
<polygon fill="#fff0f0" stroke="red" points="1690.5,-184 1573.5,-184 1573.5,-165 1690.5,-165 1690.5,-184"/>
<text text-anchor="middle" x="1632" y="-172" font-family="Helvetica,sans-Serif" font-size="10.00">compat/stdvarargs.h</text>
</a>
</g>
</g>
<!-- Node5&#45;&gt;Node36 -->
<g id="edge25_Node000005_Node000036" class="edge">
<title>Node5&#45;&gt;Node36</title>
<g id="a_edge25_Node000005_Node000036"><a xlink:title=" ">
<path fill="none" stroke="#63b8ff" d="M1683.2,-219.98C1674.18,-212.15 1660.59,-200.34 1649.68,-190.86"/>
<polygon fill="#63b8ff" stroke="#63b8ff" points="1651.82,-188.09 1641.98,-184.17 1647.23,-193.37 1651.82,-188.09"/>
</a>
</g>
</g>
<!-- Node38 -->
<g id="Node000038" class="node">
<title>Node38</title>
<g id="a_Node000038"><a xlink:href="stdio_8h.html" target="_top" xlink:title=" ">
<polygon fill="#fff0f0" stroke="red" points="1797.5,-184 1708.5,-184 1708.5,-165 1797.5,-165 1797.5,-184"/>
<text text-anchor="middle" x="1753" y="-172" font-family="Helvetica,sans-Serif" font-size="10.00">compat/stdio.h</text>
</a>
</g>
</g>
<!-- Node5&#45;&gt;Node38 -->
<g id="edge26_Node000005_Node000038" class="edge">
<title>Node5&#45;&gt;Node38</title>
<g id="a_edge26_Node000005_Node000038"><a xlink:title=" ">
<path fill="none" stroke="#63b8ff" d="M1702.64,-219.98C1711.51,-212.15 1724.87,-200.34 1735.61,-190.86"/>
<polygon fill="#63b8ff" stroke="#63b8ff" points="1738.01,-193.41 1743.18,-184.17 1733.37,-188.17 1738.01,-193.41"/>
</a>
</g>
</g>
<!-- Node40 -->
<g id="Node000040" class="node">
<title>Node40</title>
<g id="a_Node000040"><a xlink:href="statvfs_8h.html" target="_top" xlink:title=" ">
<polygon fill="white" stroke="#666666" points="1914.5,-184 1815.5,-184 1815.5,-165 1914.5,-165 1914.5,-184"/>
<text text-anchor="middle" x="1865" y="-172" font-family="Helvetica,sans-Serif" font-size="10.00">compat/statvfs.h</text>
</a>
</g>
</g>
<!-- Node5&#45;&gt;Node40 -->
<g id="edge27_Node000005_Node000040" class="edge">
<title>Node5&#45;&gt;Node40</title>
<g id="a_edge27_Node000005_Node000040"><a xlink:title=" ">
<path fill="none" stroke="#63b8ff" d="M1720.63,-219.98C1749.51,-211.09 1795.01,-197.07 1827.2,-187.15"/>
<polygon fill="#63b8ff" stroke="#63b8ff" points="1828.62,-190.37 1837.15,-184.08 1826.56,-183.68 1828.62,-190.37"/>
</a>
</g>
</g>
<!-- Node41 -->
<g id="Node000041" class="node">
<title>Node41</title>
<g id="a_Node000041"><a xlink:href="debug_8h.html" target="_top" xlink:title=" ">
<polygon fill="white" stroke="#666666" points="2027.5,-184 1932.5,-184 1932.5,-165 2027.5,-165 2027.5,-184"/>
<text text-anchor="middle" x="1980" y="-172" font-family="Helvetica,sans-Serif" font-size="10.00">compat/debug.h</text>
</a>
</g>
</g>
<!-- Node5&#45;&gt;Node41 -->
<g id="edge28_Node000005_Node000041" class="edge">
<title>Node5&#45;&gt;Node41</title>
<g id="a_edge28_Node000005_Node000041"><a xlink:title=" ">
<path fill="none" stroke="#63b8ff" d="M1739.11,-219.98C1789.28,-210.72 1869.51,-195.9 1923.44,-185.94"/>
<polygon fill="#63b8ff" stroke="#63b8ff" points="1924.33,-189.34 1933.53,-184.08 1923.06,-182.46 1924.33,-189.34"/>
</a>
</g>
</g>
<!-- Node42 -->
<g id="Node000042" class="node">
<title>Node42</title>
<g id="a_Node000042"><a xlink:href="valgrind_8h.html" target="_top" xlink:title=" ">
<polygon fill="#fff0f0" stroke="red" points="2150.5,-184 2045.5,-184 2045.5,-165 2150.5,-165 2150.5,-184"/>
<text text-anchor="middle" x="2098" y="-172" font-family="Helvetica,sans-Serif" font-size="10.00">compat/valgrind.h</text>
</a>
</g>
</g>
<!-- Node5&#45;&gt;Node42 -->
<g id="edge29_Node000005_Node000042" class="edge">
<title>Node5&#45;&gt;Node42</title>
<g id="a_edge29_Node000005_Node000042"><a xlink:title=" ">
<path fill="none" stroke="#63b8ff" d="M1744.15,-221.98C1809.23,-213.66 1925.38,-198.72 2035.3,-184.08"/>
<polygon fill="#63b8ff" stroke="#63b8ff" points="2035.79,-187.55 2045.24,-182.76 2034.86,-180.61 2035.79,-187.55"/>
</a>
</g>
</g>
<!-- Node45 -->
<g id="Node000045" class="node">
<title>Node45</title>
<g id="a_Node000045"><a xlink:href="CodeContext_8h.html" target="_top" xlink:title=" ">
<polygon fill="white" stroke="#666666" points="3198.5,-129 3083.5,-129 3083.5,-110 3198.5,-110 3198.5,-129"/>
<text text-anchor="middle" x="3141" y="-117" font-family="Helvetica,sans-Serif" font-size="10.00">base/CodeContext.h</text>
</a>
</g>
</g>
<!-- Node44&#45;&gt;Node45 -->
<g id="edge31_Node000044_Node000045" class="edge">
<title>Node44&#45;&gt;Node45</title>
<g id="a_edge31_Node000044_Node000045"><a xlink:title=" ">
<path fill="none" stroke="#63b8ff" d="M3214.02,-164.98C3200.53,-156.77 3179.87,-144.18 3163.96,-134.49"/>
<polygon fill="#63b8ff" stroke="#63b8ff" points="3165.59,-131.38 3155.23,-129.17 3161.95,-137.36 3165.59,-131.38"/>
</a>
</g>
</g>
<!-- Node46 -->
<g id="Node000046" class="node">
<title>Node46</title>
<g id="a_Node000046"><a xlink:href="InstanceId_8h.html" target="_top" xlink:title=" ">
<polygon fill="white" stroke="#666666" points="3106,-74 3004,-74 3004,-55 3106,-55 3106,-74"/>
<text text-anchor="middle" x="3055" y="-62" font-family="Helvetica,sans-Serif" font-size="10.00">base/InstanceId.h</text>
</a>
</g>
</g>
<!-- Node44&#45;&gt;Node46 -->
<g id="edge40_Node000044_Node000046" class="edge">
<title>Node44&#45;&gt;Node46</title>
<g id="a_edge40_Node000044_Node000046"><a xlink:title=" ">
<path fill="none" stroke="#63b8ff" d="M3181.36,-164.95C3142.16,-156.89 3090.18,-143.85 3075,-129 3063,-117.27 3058.18,-98.42 3056.25,-84.3"/>
<polygon fill="#63b8ff" stroke="#63b8ff" points="3059.72,-83.82 3055.25,-74.21 3052.76,-84.51 3059.72,-83.82"/>
</a>
</g>
</g>
<!-- Node48 -->
<g id="Node000048" class="node">
<title>Node48</title>
<g id="a_Node000048"><a xlink:href="RefCount_8h.html" target="_top" xlink:title=" ">
<polygon fill="#fff0f0" stroke="red" points="3380.5,-74 3283.5,-74 3283.5,-55 3380.5,-55 3380.5,-74"/>
<text text-anchor="middle" x="3332" y="-62" font-family="Helvetica,sans-Serif" font-size="10.00">base/RefCount.h</text>
</a>
</g>
</g>
<!-- Node44&#45;&gt;Node48 -->
<g id="edge47_Node000044_Node000048" class="edge">
<title>Node44&#45;&gt;Node48</title>
<g id="a_edge47_Node000044_Node000048"><a xlink:title=" ">
<path fill="none" stroke="#63b8ff" d="M3228.5,-164.7C3229.69,-151.44 3233.68,-126.16 3247,-110 3259.05,-95.39 3277.16,-84.98 3293.57,-77.92"/>
<polygon fill="#63b8ff" stroke="#63b8ff" points="3295,-81.12 3302.98,-74.15 3292.4,-74.62 3295,-81.12"/>
</a>
</g>
</g>
<!-- Node54 -->
<g id="Node000054" class="node">
<title>Node54</title>
<g id="a_Node000054"><a xlink:href="base_2forward_8h.html" target="_top" xlink:title=" ">
<polygon fill="white" stroke="#666666" points="3344.5,-129 3255.5,-129 3255.5,-110 3344.5,-110 3344.5,-129"/>
<text text-anchor="middle" x="3300" y="-117" font-family="Helvetica,sans-Serif" font-size="10.00">base/forward.h</text>
</a>
</g>
</g>
<!-- Node44&#45;&gt;Node54 -->
<g id="edge39_Node000044_Node000054" class="edge">
<title>Node44&#45;&gt;Node54</title>
<g id="a_edge39_Node000044_Node000054"><a xlink:title=" ">
<path fill="none" stroke="#63b8ff" d="M3239.57,-164.98C3250.42,-157 3266.88,-144.88 3279.88,-135.31"/>
<polygon fill="#63b8ff" stroke="#63b8ff" points="3282.24,-137.92 3288.22,-129.17 3278.09,-132.28 3282.24,-137.92"/>
</a>
</g>
</g>
<!-- Node55 -->
<g id="Node000055" class="node">
<title>Node55</title>
<g id="a_Node000055"><a xlink:href="event_8h.html" target="_top" xlink:title=" ">
<polygon fill="white" stroke="#666666" points="2910.5,-129 2857.5,-129 2857.5,-110 2910.5,-110 2910.5,-129"/>
<text text-anchor="middle" x="2884" y="-117" font-family="Helvetica,sans-Serif" font-size="10.00">event.h</text>
</a>
</g>
</g>
<!-- Node44&#45;&gt;Node55 -->
<g id="edge41_Node000044_Node000055" class="edge">
<title>Node44&#45;&gt;Node55</title>
<g id="a_edge41_Node000044_Node000055"><a xlink:title=" ">
<path fill="none" stroke="#63b8ff" d="M3177.98,-165.79C3108.05,-155.02 2982.69,-135.7 2920.73,-126.16"/>
<polygon fill="#63b8ff" stroke="#63b8ff" points="2921.05,-122.67 2910.63,-124.6 2919.98,-129.59 2921.05,-122.67"/>
</a>
</g>
</g>
<!-- Node45&#45;&gt;Node46 -->
<g id="edge32_Node000045_Node000046" class="edge">
<title>Node45&#45;&gt;Node46</title>
<g id="a_edge32_Node000045_Node000046"><a xlink:title=" ">
<path fill="none" stroke="#63b8ff" d="M3127.18,-109.98C3113.85,-101.77 3093.42,-89.18 3077.69,-79.49"/>
<polygon fill="#63b8ff" stroke="#63b8ff" points="3079.42,-76.44 3069.07,-74.17 3075.75,-82.4 3079.42,-76.44"/>
</a>
</g>
</g>
<!-- Node47 -->
<g id="Node000047" class="node">
<title>Node47</title>
<g id="a_Node000047"><a xlink:title=" ">
<polygon fill="#e0e0e0" stroke="#999999" points="3119,-19 3071,-19 3071,0 3119,0 3119,-19"/>
<text text-anchor="middle" x="3095" y="-7" font-family="Helvetica,sans-Serif" font-size="10.00">iosfwd</text>
</a>
</g>
</g>
<!-- Node45&#45;&gt;Node47 -->
<g id="edge38_Node000045_Node000047" class="edge">
<title>Node45&#45;&gt;Node47</title>
<g id="a_edge38_Node000045_Node000047"><a xlink:title=" ">
<path fill="none" stroke="#63b8ff" d="M3137.56,-109.83C3132.67,-97.57 3123.36,-74.48 3115,-55 3111.24,-46.24 3106.92,-36.59 3103.26,-28.52"/>
<polygon fill="#63b8ff" stroke="#63b8ff" points="3106.41,-26.97 3099.07,-19.33 3100.04,-29.88 3106.41,-26.97"/>
</a>
</g>
</g>
<!-- Node45&#45;&gt;Node48 -->
<g id="edge34_Node000045_Node000048" class="edge">
<title>Node45&#45;&gt;Node48</title>
<g id="a_edge34_Node000045_Node000048"><a xlink:title=" ">
<path fill="none" stroke="#63b8ff" d="M3171.69,-109.98C3204.17,-100.97 3255.6,-86.7 3291.41,-76.76"/>
<polygon fill="#63b8ff" stroke="#63b8ff" points="3292.37,-80.13 3301.07,-74.08 3290.5,-73.38 3292.37,-80.13"/>
</a>
</g>
</g>
<!-- Node52 -->
<g id="Node000052" class="node">
<title>Node52</title>
<g id="a_Node000052"><a xlink:href="Stopwatch_8h.html" target="_top" xlink:title=" ">
<polygon fill="#fff0f0" stroke="red" points="3265.5,-74 3162.5,-74 3162.5,-55 3265.5,-55 3265.5,-74"/>
<text text-anchor="middle" x="3214" y="-62" font-family="Helvetica,sans-Serif" font-size="10.00">base/Stopwatch.h</text>
</a>
</g>
</g>
<!-- Node45&#45;&gt;Node52 -->
<g id="edge37_Node000045_Node000052" class="edge">
<title>Node45&#45;&gt;Node52</title>
<g id="a_edge37_Node000045_Node000052"><a xlink:title=" ">
<path fill="none" stroke="#63b8ff" d="M3152.73,-109.98C3163.73,-102 3180.42,-89.88 3193.6,-80.31"/>
<polygon fill="#63b8ff" stroke="#63b8ff" points="3196.02,-82.88 3202.06,-74.17 3191.91,-77.21 3196.02,-82.88"/>
</a>
</g>
</g>
<!-- Node46&#45;&gt;Node47 -->
<g id="edge33_Node000046_Node000047" class="edge">
<title>Node46&#45;&gt;Node47</title>
<g id="a_edge33_Node000046_Node000047"><a xlink:title=" ">
<path fill="none" stroke="#63b8ff" d="M3061.61,-54.75C3067.26,-47.26 3075.54,-36.28 3082.45,-27.13"/>
<polygon fill="#63b8ff" stroke="#63b8ff" points="3085.29,-29.18 3088.52,-19.09 3079.7,-24.96 3085.29,-29.18"/>
</a>
</g>
</g>
<!-- Node49 -->
<g id="Node000049" class="node">
<title>Node49</title>
<g id="a_Node000049"><a xlink:href="Lock_8h.html" target="_top" xlink:title=" ">
<polygon fill="white" stroke="#666666" points="3369,-19 3295,-19 3295,0 3369,0 3369,-19"/>
<text text-anchor="middle" x="3332" y="-7" font-family="Helvetica,sans-Serif" font-size="10.00">base/Lock.h</text>
</a>
</g>
</g>
<!-- Node48&#45;&gt;Node49 -->
<g id="edge35_Node000048_Node000049" class="edge">
<title>Node48&#45;&gt;Node49</title>
<g id="a_edge35_Node000048_Node000049"><a xlink:title=" ">
<path fill="none" stroke="#63b8ff" d="M3332,-54.75C3332,-47.8 3332,-37.85 3332,-29.13"/>
<polygon fill="#63b8ff" stroke="#63b8ff" points="3335.5,-29.09 3332,-19.09 3328.5,-29.09 3335.5,-29.09"/>
</a>
</g>
</g>
<!-- Node50 -->
<g id="Node000050" class="node">
<title>Node50</title>
<g id="a_Node000050"><a xlink:title=" ">
<polygon fill="#e0e0e0" stroke="#999999" points="3629,-19 3569,-19 3569,0 3629,0 3629,-19"/>
<text text-anchor="middle" x="3599" y="-7" font-family="Helvetica,sans-Serif" font-size="10.00">iostream</text>
</a>
</g>
</g>
<!-- Node48&#45;&gt;Node50 -->
<g id="edge36_Node000048_Node000050" class="edge">
<title>Node48&#45;&gt;Node50</title>
<g id="a_edge36_Node000048_Node000050"><a xlink:title=" ">
<path fill="none" stroke="#63b8ff" d="M3374.9,-54.98C3425.54,-44.93 3509.13,-28.34 3558.64,-18.51"/>
<polygon fill="#63b8ff" stroke="#63b8ff" points="3559.54,-21.9 3568.66,-16.52 3558.17,-15.04 3559.54,-21.9"/>
</a>
</g>
</g>
<!-- Node56 -->
<g id="Node000056" class="node">
<title>Node56</title>
<g id="a_Node000056"><a xlink:href="AsyncEngine_8h.html" target="_top" xlink:title=" ">
<polygon fill="white" stroke="#666666" points="2762,-74 2674,-74 2674,-55 2762,-55 2762,-74"/>
<text text-anchor="middle" x="2718" y="-62" font-family="Helvetica,sans-Serif" font-size="10.00">AsyncEngine.h</text>
</a>
</g>
</g>
<!-- Node55&#45;&gt;Node56 -->
<g id="edge42_Node000055_Node000056" class="edge">
<title>Node55&#45;&gt;Node56</title>
<g id="a_edge42_Node000055_Node000056"><a xlink:title=" ">
<path fill="none" stroke="#63b8ff" d="M2857.33,-109.98C2829.46,-101.09 2785.55,-87.07 2754.48,-77.15"/>
<polygon fill="#63b8ff" stroke="#63b8ff" points="2755.47,-73.79 2744.88,-74.08 2753.34,-80.46 2755.47,-73.79"/>
</a>
</g>
</g>
<!-- Node57 -->
<g id="Node000057" class="node">
<title>Node57</title>
<g id="a_Node000057"><a xlink:href="Packable_8h.html" target="_top" xlink:title=" ">
<polygon fill="white" stroke="#666666" points="2875.5,-74 2780.5,-74 2780.5,-55 2875.5,-55 2875.5,-74"/>
<text text-anchor="middle" x="2828" y="-62" font-family="Helvetica,sans-Serif" font-size="10.00">base/Packable.h</text>
</a>
</g>
</g>
<!-- Node55&#45;&gt;Node57 -->
<g id="edge43_Node000055_Node000057" class="edge">
<title>Node55&#45;&gt;Node57</title>
<g id="a_edge43_Node000055_Node000057"><a xlink:title=" ">
<path fill="none" stroke="#63b8ff" d="M2875,-109.98C2866.81,-102.23 2854.49,-90.58 2844.53,-81.14"/>
<polygon fill="#63b8ff" stroke="#63b8ff" points="2846.83,-78.5 2837.16,-74.17 2842.02,-83.59 2846.83,-78.5"/>
</a>
</g>
</g>
<!-- Node58 -->
<g id="Node000058" class="node">
<title>Node58</title>
<g id="a_Node000058"><a xlink:href="mem_2forward_8h.html" target="_top" xlink:title=" ">
<polygon fill="white" stroke="#666666" points="2986,-74 2894,-74 2894,-55 2986,-55 2986,-74"/>
<text text-anchor="middle" x="2940" y="-62" font-family="Helvetica,sans-Serif" font-size="10.00">mem/forward.h</text>
</a>
</g>
</g>
<!-- Node55&#45;&gt;Node58 -->
<g id="edge44_Node000055_Node000058" class="edge">
<title>Node55&#45;&gt;Node58</title>
<g id="a_edge44_Node000055_Node000058"><a xlink:title=" ">
<path fill="none" stroke="#63b8ff" d="M2893,-109.98C2901.19,-102.23 2913.51,-90.58 2923.47,-81.14"/>
<polygon fill="#63b8ff" stroke="#63b8ff" points="2925.98,-83.59 2930.84,-74.17 2921.17,-78.5 2925.98,-83.59"/>
</a>
</g>
</g>
<!-- Node58&#45;&gt;Node47 -->
<g id="edge46_Node000058_Node000047" class="edge">
<title>Node58&#45;&gt;Node47</title>
<g id="a_edge46_Node000058_Node000047"><a xlink:title=" ">
<path fill="none" stroke="#63b8ff" d="M2964.9,-54.98C2991.01,-46.06 3032.18,-31.98 3061.21,-22.05"/>
<polygon fill="#63b8ff" stroke="#63b8ff" points="3062.59,-25.28 3070.92,-18.73 3060.33,-18.66 3062.59,-25.28"/>
</a>
</g>
</g>
<!-- Node59 -->
<g id="Node000059" class="node">
<title>Node59</title>
<g id="a_Node000059"><a xlink:href="AllocatorProxy_8h.html" target="_top" xlink:title=" ">
<polygon fill="white" stroke="#666666" points="3538,-19 3414,-19 3414,0 3538,0 3538,-19"/>
<text text-anchor="middle" x="3476" y="-7" font-family="Helvetica,sans-Serif" font-size="10.00">mem/AllocatorProxy.h</text>
</a>
</g>
</g>
<!-- Node58&#45;&gt;Node59 -->
<g id="edge45_Node000058_Node000059" class="edge">
<title>Node58&#45;&gt;Node59</title>
<g id="a_edge45_Node000058_Node000059"><a xlink:title=" ">
<path fill="none" stroke="#63b8ff" d="M2986.19,-56.15C2989.17,-55.74 2992.12,-55.36 2995,-55 3034.47,-50.13 3279.48,-28.05 3403.8,-16.93"/>
<polygon fill="#63b8ff" stroke="#63b8ff" points="3404.35,-20.4 3414,-16.02 3403.72,-13.43 3404.35,-20.4"/>
</a>
</g>
</g>
<!-- Node60&#45;&gt;Node54 -->
<g id="edge52_Node000060_Node000054" class="edge">
<title>Node60&#45;&gt;Node54</title>
<g id="a_edge52_Node000060_Node000054"><a xlink:title=" ">
<path fill="none" stroke="#63b8ff" d="M3346.78,-274.92C3362.43,-267.89 3381.67,-256.25 3391,-239 3395.02,-231.57 3394.06,-227.87 3391,-220 3376.94,-183.78 3342.86,-152.7 3320.63,-135.32"/>
<polygon fill="#63b8ff" stroke="#63b8ff" points="3322.56,-132.4 3312.48,-129.15 3318.34,-137.98 3322.56,-132.4"/>
</a>
</g>
</g>
<!-- Node61 -->
<g id="Node000061" class="node">
<title>Node61</title>
<g id="a_Node000061"><a xlink:href="AsyncCallList_8h.html" target="_top" xlink:title=" ">
<polygon fill="white" stroke="#666666" points="3381.5,-239 3264.5,-239 3264.5,-220 3381.5,-220 3381.5,-239"/>
<text text-anchor="middle" x="3323" y="-227" font-family="Helvetica,sans-Serif" font-size="10.00">base/AsyncCallList.h</text>
</a>
</g>
</g>
<!-- Node60&#45;&gt;Node61 -->
<g id="edge49_Node000060_Node000061" class="edge">
<title>Node60&#45;&gt;Node61</title>
<g id="a_edge49_Node000060_Node000061"><a xlink:title=" ">
<path fill="none" stroke="#63b8ff" d="M3323,-274.75C3323,-267.8 3323,-257.85 3323,-249.13"/>
<polygon fill="#63b8ff" stroke="#63b8ff" points="3326.5,-249.09 3323,-239.09 3319.5,-249.09 3326.5,-249.09"/>
</a>
</g>
</g>
<!-- Node61&#45;&gt;Node44 -->
<g id="edge50_Node000061_Node000044" class="edge">
<title>Node61&#45;&gt;Node44</title>
<g id="a_edge50_Node000061_Node000044"><a xlink:title=" ">
<path fill="none" stroke="#63b8ff" d="M3307.74,-219.98C3292.87,-211.69 3270.02,-198.94 3252.58,-189.22"/>
<polygon fill="#63b8ff" stroke="#63b8ff" points="3253.98,-185.99 3243.54,-184.17 3250.57,-192.1 3253.98,-185.99"/>
</a>
</g>
</g>
<!-- Node61&#45;&gt;Node48 -->
<g id="edge51_Node000061_Node000048" class="edge">
<title>Node61&#45;&gt;Node48</title>
<g id="a_edge51_Node000061_Node000048"><a xlink:title=" ">
<path fill="none" stroke="#63b8ff" d="M3328.19,-219.91C3339.31,-200.45 3363.68,-151.41 3354,-110 3351.8,-100.57 3347.29,-90.85 3342.93,-82.91"/>
<polygon fill="#63b8ff" stroke="#63b8ff" points="3345.92,-81.09 3337.84,-74.24 3339.88,-84.64 3345.92,-81.09"/>
</a>
</g>
</g>
<!-- Node62&#45;&gt;Node50 -->
<g id="edge57_Node000062_Node000050" class="edge">
<title>Node62&#45;&gt;Node50</title>
<g id="a_edge57_Node000062_Node000050"><a xlink:title=" ">
<path fill="none" stroke="#63b8ff" d="M3558.26,-109.93C3568.06,-101.81 3581.79,-88.69 3589,-74 3595.85,-60.05 3598.2,-42.5 3598.93,-29.38"/>
<polygon fill="#63b8ff" stroke="#63b8ff" points="3602.43,-29.29 3599.22,-19.2 3595.44,-29.1 3602.43,-29.29"/>
</a>
</g>
</g>
<!-- Node62&#45;&gt;Node59 -->
<g id="edge56_Node000062_Node000059" class="edge">
<title>Node62&#45;&gt;Node59</title>
<g id="a_edge56_Node000062_Node000059"><a xlink:title=" ">
<path fill="none" stroke="#63b8ff" d="M3551.59,-109.6C3557.58,-96.65 3566.16,-72.28 3556,-55 3547.26,-40.14 3531.56,-29.88 3516.37,-22.99"/>
<polygon fill="#63b8ff" stroke="#63b8ff" points="3517.62,-19.72 3507.05,-19.13 3514.94,-26.19 3517.62,-19.72"/>
</a>
</g>
</g>
<!-- Node63 -->
<g id="Node000063" class="node">
<title>Node63</title>
<g id="a_Node000063"><a xlink:href="Here_8h.html" target="_top" xlink:title=" ">
<polygon fill="white" stroke="#666666" points="3473.5,-74 3398.5,-74 3398.5,-55 3473.5,-55 3473.5,-74"/>
<text text-anchor="middle" x="3436" y="-62" font-family="Helvetica,sans-Serif" font-size="10.00">base/Here.h</text>
</a>
</g>
</g>
<!-- Node62&#45;&gt;Node63 -->
<g id="edge54_Node000062_Node000063" class="edge">
<title>Node62&#45;&gt;Node63</title>
<g id="a_edge54_Node000062_Node000063"><a xlink:title=" ">
<path fill="none" stroke="#63b8ff" d="M3529.17,-109.98C3511.39,-101.5 3483.85,-88.35 3463.32,-78.54"/>
<polygon fill="#63b8ff" stroke="#63b8ff" points="3464.69,-75.32 3454.16,-74.17 3461.67,-81.64 3464.69,-75.32"/>
</a>
</g>
</g>
<!-- Node64 -->
<g id="Node000064" class="node">
<title>Node64</title>
<g id="a_Node000064"><a xlink:title=" ">
<polygon fill="#e0e0e0" stroke="#999999" points="3697,-74 3641,-74 3641,-55 3697,-55 3697,-74"/>
<text text-anchor="middle" x="3669" y="-62" font-family="Helvetica,sans-Serif" font-size="10.00">sstream</text>
</a>
</g>
</g>
<!-- Node62&#45;&gt;Node64 -->
<g id="edge58_Node000062_Node000064" class="edge">
<title>Node62&#45;&gt;Node64</title>
<g id="a_edge58_Node000062_Node000064"><a xlink:title=" ">
<path fill="none" stroke="#63b8ff" d="M3566.6,-109.98C3586.32,-101.42 3616.95,-88.11 3639.58,-78.28"/>
<polygon fill="#63b8ff" stroke="#63b8ff" points="3641.26,-81.37 3649.04,-74.17 3638.48,-74.94 3641.26,-81.37"/>
</a>
</g>
</g>
<!-- Node65 -->
<g id="Node000065" class="node">
<title>Node65</title>
<g id="a_Node000065"><a xlink:title=" ">
<polygon fill="#e0e0e0" stroke="#999999" points="3547,-74 3491,-74 3491,-55 3547,-55 3547,-74"/>
<text text-anchor="middle" x="3519" y="-62" font-family="Helvetica,sans-Serif" font-size="10.00">iomanip</text>
</a>
</g>
</g>
<!-- Node62&#45;&gt;Node65 -->
<g id="edge59_Node000062_Node000065" class="edge">
<title>Node62&#45;&gt;Node65</title>
<g id="a_edge59_Node000062_Node000065"><a xlink:title=" ">
<path fill="none" stroke="#63b8ff" d="M3542.38,-109.75C3538.54,-102.49 3532.98,-91.95 3528.24,-82.98"/>
<polygon fill="#63b8ff" stroke="#63b8ff" points="3531.3,-81.3 3523.54,-74.09 3525.11,-84.57 3531.3,-81.3"/>
</a>
</g>
</g>
<!-- Node63&#45;&gt;Node47 -->
<g id="edge55_Node000063_Node000047" class="edge">
<title>Node63&#45;&gt;Node47</title>
<g id="a_edge55_Node000063_Node000047"><a xlink:title=" ">
<path fill="none" stroke="#63b8ff" d="M3398.36,-56.44C3395.53,-55.94 3392.72,-55.46 3390,-55 3295.9,-39.21 3184.47,-23.1 3129.38,-15.31"/>
<polygon fill="#63b8ff" stroke="#63b8ff" points="3129.52,-11.8 3119.13,-13.87 3128.55,-18.73 3129.52,-11.8"/>
</a>
</g>
</g>
</g>
</svg>
