<?xml version="1.0" encoding="UTF-8" standalone="no"?>
<!DOCTYPE svg PUBLIC "-//W3C//DTD SVG 1.1//EN"
 "http://www.w3.org/Graphics/SVG/1.1/DTD/svg11.dtd">
<!-- Generated by graphviz version 2.43.0 (0)
 -->
<!-- Title: squid/src/base/AsyncFunCalls.h Pages: 1 -->
<svg width="811pt" height="247pt"
 viewBox="0.00 0.00 811.00 247.00" xmlns="http://www.w3.org/2000/svg" xmlns:xlink="http://www.w3.org/1999/xlink">
<g id="graph0" class="graph" transform="scale(1 1) rotate(0) translate(4 243)">
<title>squid/src/base/AsyncFunCalls.h</title>
<!-- Node1 -->
<g id="Node000001" class="node">
<title>Node1</title>
<g id="a_Node000001"><a xlink:title=" ">
<polygon fill="#999999" stroke="#666666" points="669.5,-239 500.5,-239 500.5,-220 669.5,-220 669.5,-239"/>
<text text-anchor="middle" x="585" y="-227" font-family="Helvetica,sans-Serif" font-size="10.00">squid/src/base/AsyncFunCalls.h</text>
</a>
</g>
</g>
<!-- Node2 -->
<g id="Node000002" class="node">
<title>Node2</title>
<g id="a_Node000002"><a xlink:href="AsyncCall_8h.html" target="_top" xlink:title=" ">
<polygon fill="white" stroke="#666666" points="490,-184 390,-184 390,-165 490,-165 490,-184"/>
<text text-anchor="middle" x="440" y="-172" font-family="Helvetica,sans-Serif" font-size="10.00">base/AsyncCall.h</text>
</a>
</g>
</g>
<!-- Node1&#45;&gt;Node2 -->
<g id="edge1_Node000001_Node000002" class="edge">
<title>Node1&#45;&gt;Node2</title>
<g id="a_edge1_Node000001_Node000002"><a xlink:title=" ">
<path fill="none" stroke="#63b8ff" d="M561.7,-219.98C537.75,-211.23 500.22,-197.51 473.17,-187.62"/>
<polygon fill="#63b8ff" stroke="#63b8ff" points="474.31,-184.32 463.72,-184.17 471.91,-190.89 474.31,-184.32"/>
</a>
</g>
</g>
<!-- Node8 -->
<g id="Node000008" class="node">
<title>Node8</title>
<g id="a_Node000008"><a xlink:title=" ">
<polygon fill="#e0e0e0" stroke="#999999" points="803,-19 743,-19 743,0 803,0 803,-19"/>
<text text-anchor="middle" x="773" y="-7" font-family="Helvetica,sans-Serif" font-size="10.00">iostream</text>
</a>
</g>
</g>
<!-- Node1&#45;&gt;Node8 -->
<g id="edge22_Node000001_Node000008" class="edge">
<title>Node1&#45;&gt;Node8</title>
<g id="a_edge22_Node000001_Node000008"><a xlink:title=" ">
<path fill="none" stroke="#63b8ff" d="M594.23,-219.98C618.39,-197.45 684.82,-133.93 732,-74 743.64,-59.21 755.11,-41.06 762.94,-27.96"/>
<polygon fill="#63b8ff" stroke="#63b8ff" points="766.12,-29.45 768.17,-19.06 760.09,-25.91 766.12,-29.45"/>
</a>
</g>
</g>
<!-- Node3 -->
<g id="Node000003" class="node">
<title>Node3</title>
<g id="a_Node000003"><a xlink:href="CodeContext_8h.html" target="_top" xlink:title=" ">
<polygon fill="white" stroke="#666666" points="540.5,-129 425.5,-129 425.5,-110 540.5,-110 540.5,-129"/>
<text text-anchor="middle" x="483" y="-117" font-family="Helvetica,sans-Serif" font-size="10.00">base/CodeContext.h</text>
</a>
</g>
</g>
<!-- Node2&#45;&gt;Node3 -->
<g id="edge2_Node000002_Node000003" class="edge">
<title>Node2&#45;&gt;Node3</title>
<g id="a_edge2_Node000002_Node000003"><a xlink:title=" ">
<path fill="none" stroke="#63b8ff" d="M447.1,-164.75C453.17,-157.26 462.09,-146.28 469.51,-137.13"/>
<polygon fill="#63b8ff" stroke="#63b8ff" points="472.45,-139.06 476.03,-129.09 467.01,-134.65 472.45,-139.06"/>
</a>
</g>
</g>
<!-- Node4 -->
<g id="Node000004" class="node">
<title>Node4</title>
<g id="a_Node000004"><a xlink:href="InstanceId_8h.html" target="_top" xlink:title=" ">
<polygon fill="white" stroke="#666666" points="448,-74 346,-74 346,-55 448,-55 448,-74"/>
<text text-anchor="middle" x="397" y="-62" font-family="Helvetica,sans-Serif" font-size="10.00">base/InstanceId.h</text>
</a>
</g>
</g>
<!-- Node2&#45;&gt;Node4 -->
<g id="edge14_Node000002_Node000004" class="edge">
<title>Node2&#45;&gt;Node4</title>
<g id="a_edge14_Node000002_Node000004"><a xlink:title=" ">
<path fill="none" stroke="#63b8ff" d="M434.96,-164.85C429.96,-156.03 422.3,-141.86 417,-129 410.93,-114.29 405.61,-97.04 401.98,-84.23"/>
<polygon fill="#63b8ff" stroke="#63b8ff" points="405.28,-83.01 399.25,-74.3 398.53,-84.87 405.28,-83.01"/>
</a>
</g>
</g>
<!-- Node6 -->
<g id="Node000006" class="node">
<title>Node6</title>
<g id="a_Node000006"><a xlink:href="RefCount_8h.html" target="_top" xlink:title=" ">
<polygon fill="white" stroke="#666666" points="722.5,-74 625.5,-74 625.5,-55 722.5,-55 722.5,-74"/>
<text text-anchor="middle" x="674" y="-62" font-family="Helvetica,sans-Serif" font-size="10.00">base/RefCount.h</text>
</a>
</g>
</g>
<!-- Node2&#45;&gt;Node6 -->
<g id="edge21_Node000002_Node000006" class="edge">
<title>Node2&#45;&gt;Node6</title>
<g id="a_edge21_Node000002_Node000006"><a xlink:title=" ">
<path fill="none" stroke="#63b8ff" d="M463,-164.88C485.43,-156.31 520.4,-142.53 550,-129 584.95,-113.02 624.29,-92.41 649.1,-79.08"/>
<polygon fill="#63b8ff" stroke="#63b8ff" points="651.04,-82.01 658.17,-74.18 647.71,-75.85 651.04,-82.01"/>
</a>
</g>
</g>
<!-- Node13 -->
<g id="Node000013" class="node">
<title>Node13</title>
<g id="a_Node000013"><a xlink:href="base_2forward_8h.html" target="_top" xlink:title=" ">
<polygon fill="white" stroke="#666666" points="239.5,-129 150.5,-129 150.5,-110 239.5,-110 239.5,-129"/>
<text text-anchor="middle" x="195" y="-117" font-family="Helvetica,sans-Serif" font-size="10.00">base/forward.h</text>
</a>
</g>
</g>
<!-- Node2&#45;&gt;Node13 -->
<g id="edge13_Node000002_Node000013" class="edge">
<title>Node2&#45;&gt;Node13</title>
<g id="a_edge13_Node000002_Node000013"><a xlink:title=" ">
<path fill="none" stroke="#63b8ff" d="M400.64,-164.98C358.26,-155.82 290.74,-141.21 244.72,-131.26"/>
<polygon fill="#63b8ff" stroke="#63b8ff" points="245.19,-127.78 234.67,-129.08 243.71,-134.62 245.19,-127.78"/>
</a>
</g>
</g>
<!-- Node14 -->
<g id="Node000014" class="node">
<title>Node14</title>
<g id="a_Node000014"><a xlink:href="event_8h.html" target="_top" xlink:title=" ">
<polygon fill="white" stroke="#666666" points="310.5,-129 257.5,-129 257.5,-110 310.5,-110 310.5,-129"/>
<text text-anchor="middle" x="284" y="-117" font-family="Helvetica,sans-Serif" font-size="10.00">event.h</text>
</a>
</g>
</g>
<!-- Node2&#45;&gt;Node14 -->
<g id="edge15_Node000002_Node000014" class="edge">
<title>Node2&#45;&gt;Node14</title>
<g id="a_edge15_Node000002_Node000014"><a xlink:title=" ">
<path fill="none" stroke="#63b8ff" d="M414.94,-164.98C388.97,-156.16 348.19,-142.31 319.04,-132.41"/>
<polygon fill="#63b8ff" stroke="#63b8ff" points="319.85,-128.99 309.26,-129.08 317.6,-135.61 319.85,-128.99"/>
</a>
</g>
</g>
<!-- Node3&#45;&gt;Node4 -->
<g id="edge3_Node000003_Node000004" class="edge">
<title>Node3&#45;&gt;Node4</title>
<g id="a_edge3_Node000003_Node000004"><a xlink:title=" ">
<path fill="none" stroke="#63b8ff" d="M469.18,-109.98C455.85,-101.77 435.42,-89.18 419.69,-79.49"/>
<polygon fill="#63b8ff" stroke="#63b8ff" points="421.42,-76.44 411.07,-74.17 417.75,-82.4 421.42,-76.44"/>
</a>
</g>
</g>
<!-- Node5 -->
<g id="Node000005" class="node">
<title>Node5</title>
<g id="a_Node000005"><a xlink:title=" ">
<polygon fill="#e0e0e0" stroke="#999999" points="421,-19 373,-19 373,0 421,0 421,-19"/>
<text text-anchor="middle" x="397" y="-7" font-family="Helvetica,sans-Serif" font-size="10.00">iosfwd</text>
</a>
</g>
</g>
<!-- Node3&#45;&gt;Node5 -->
<g id="edge12_Node000003_Node000005" class="edge">
<title>Node3&#45;&gt;Node5</title>
<g id="a_edge12_Node000003_Node000005"><a xlink:title=" ">
<path fill="none" stroke="#63b8ff" d="M481.07,-109.94C477.83,-96.99 470.3,-72.12 457,-55 447.42,-42.68 433.59,-32.11 421.63,-24.37"/>
<polygon fill="#63b8ff" stroke="#63b8ff" points="423.29,-21.28 412.94,-19.01 419.62,-27.24 423.29,-21.28"/>
</a>
</g>
</g>
<!-- Node3&#45;&gt;Node6 -->
<g id="edge5_Node000003_Node000006" class="edge">
<title>Node3&#45;&gt;Node6</title>
<g id="a_edge5_Node000003_Node000006"><a xlink:title=" ">
<path fill="none" stroke="#63b8ff" d="M513.69,-109.98C546.17,-100.97 597.6,-86.7 633.41,-76.76"/>
<polygon fill="#63b8ff" stroke="#63b8ff" points="634.37,-80.13 643.07,-74.08 632.5,-73.38 634.37,-80.13"/>
</a>
</g>
</g>
<!-- Node10 -->
<g id="Node000010" class="node">
<title>Node10</title>
<g id="a_Node000010"><a xlink:href="Stopwatch_8h.html" target="_top" xlink:title=" ">
<polygon fill="white" stroke="#666666" points="607.5,-74 504.5,-74 504.5,-55 607.5,-55 607.5,-74"/>
<text text-anchor="middle" x="556" y="-62" font-family="Helvetica,sans-Serif" font-size="10.00">base/Stopwatch.h</text>
</a>
</g>
</g>
<!-- Node3&#45;&gt;Node10 -->
<g id="edge9_Node000003_Node000010" class="edge">
<title>Node3&#45;&gt;Node10</title>
<g id="a_edge9_Node000003_Node000010"><a xlink:title=" ">
<path fill="none" stroke="#63b8ff" d="M494.73,-109.98C505.73,-102 522.42,-89.88 535.6,-80.31"/>
<polygon fill="#63b8ff" stroke="#63b8ff" points="538.02,-82.88 544.06,-74.17 533.91,-77.21 538.02,-82.88"/>
</a>
</g>
</g>
<!-- Node4&#45;&gt;Node5 -->
<g id="edge4_Node000004_Node000005" class="edge">
<title>Node4&#45;&gt;Node5</title>
<g id="a_edge4_Node000004_Node000005"><a xlink:title=" ">
<path fill="none" stroke="#63b8ff" d="M397,-54.75C397,-47.8 397,-37.85 397,-29.13"/>
<polygon fill="#63b8ff" stroke="#63b8ff" points="400.5,-29.09 397,-19.09 393.5,-29.09 400.5,-29.09"/>
</a>
</g>
</g>
<!-- Node7 -->
<g id="Node000007" class="node">
<title>Node7</title>
<g id="a_Node000007"><a xlink:href="Lock_8h.html" target="_top" xlink:title=" ">
<polygon fill="white" stroke="#666666" points="661,-19 587,-19 587,0 661,0 661,-19"/>
<text text-anchor="middle" x="624" y="-7" font-family="Helvetica,sans-Serif" font-size="10.00">base/Lock.h</text>
</a>
</g>
</g>
<!-- Node6&#45;&gt;Node7 -->
<g id="edge6_Node000006_Node000007" class="edge">
<title>Node6&#45;&gt;Node7</title>
<g id="a_edge6_Node000006_Node000007"><a xlink:title=" ">
<path fill="none" stroke="#63b8ff" d="M665.74,-54.75C658.54,-47.11 647.89,-35.82 639.15,-26.56"/>
<polygon fill="#63b8ff" stroke="#63b8ff" points="641.51,-23.96 632.1,-19.09 636.42,-28.76 641.51,-23.96"/>
</a>
</g>
</g>
<!-- Node6&#45;&gt;Node8 -->
<g id="edge7_Node000006_Node000008" class="edge">
<title>Node6&#45;&gt;Node8</title>
<g id="a_edge7_Node000006_Node000008"><a xlink:title=" ">
<path fill="none" stroke="#63b8ff" d="M689.91,-54.98C705.55,-46.61 729.66,-33.7 747.88,-23.95"/>
<polygon fill="#63b8ff" stroke="#63b8ff" points="749.64,-26.98 756.8,-19.17 746.34,-20.8 749.64,-26.98"/>
</a>
</g>
</g>
<!-- Node9 -->
<g id="Node000009" class="node">
<title>Node9</title>
<g id="a_Node000009"><a xlink:title=" ">
<polygon fill="#e0e0e0" stroke="#999999" points="724.5,-19 679.5,-19 679.5,0 724.5,0 724.5,-19"/>
<text text-anchor="middle" x="702" y="-7" font-family="Helvetica,sans-Serif" font-size="10.00">utility</text>
</a>
</g>
</g>
<!-- Node6&#45;&gt;Node9 -->
<g id="edge8_Node000006_Node000009" class="edge">
<title>Node6&#45;&gt;Node9</title>
<g id="a_edge8_Node000006_Node000009"><a xlink:title=" ">
<path fill="none" stroke="#63b8ff" d="M678.62,-54.75C682.46,-47.49 688.02,-36.95 692.76,-27.98"/>
<polygon fill="#63b8ff" stroke="#63b8ff" points="695.89,-29.57 697.46,-19.09 689.7,-26.3 695.89,-29.57"/>
</a>
</g>
</g>
<!-- Node11 -->
<g id="Node000011" class="node">
<title>Node11</title>
<g id="a_Node000011"><a xlink:title=" ">
<polygon fill="#e0e0e0" stroke="#999999" points="501,-19 451,-19 451,0 501,0 501,-19"/>
<text text-anchor="middle" x="476" y="-7" font-family="Helvetica,sans-Serif" font-size="10.00">chrono</text>
</a>
</g>
</g>
<!-- Node10&#45;&gt;Node11 -->
<g id="edge10_Node000010_Node000011" class="edge">
<title>Node10&#45;&gt;Node11</title>
<g id="a_edge10_Node000010_Node000011"><a xlink:title=" ">
<path fill="none" stroke="#63b8ff" d="M543.15,-54.98C530.86,-46.84 512.09,-34.41 497.52,-24.76"/>
<polygon fill="#63b8ff" stroke="#63b8ff" points="499.36,-21.78 489.09,-19.17 495.49,-27.61 499.36,-21.78"/>
</a>
</g>
</g>
<!-- Node12 -->
<g id="Node000012" class="node">
<title>Node12</title>
<g id="a_Node000012"><a xlink:title=" ">
<polygon fill="#e0e0e0" stroke="#999999" points="569,-19 519,-19 519,0 569,0 569,-19"/>
<text text-anchor="middle" x="544" y="-7" font-family="Helvetica,sans-Serif" font-size="10.00">cstdint</text>
</a>
</g>
</g>
<!-- Node10&#45;&gt;Node12 -->
<g id="edge11_Node000010_Node000012" class="edge">
<title>Node10&#45;&gt;Node12</title>
<g id="a_edge11_Node000010_Node000012"><a xlink:title=" ">
<path fill="none" stroke="#63b8ff" d="M554.02,-54.75C552.43,-47.72 550.14,-37.62 548.15,-28.84"/>
<polygon fill="#63b8ff" stroke="#63b8ff" points="551.57,-28.07 545.94,-19.09 544.74,-29.62 551.57,-28.07"/>
</a>
</g>
</g>
<!-- Node15 -->
<g id="Node000015" class="node">
<title>Node15</title>
<g id="a_Node000015"><a xlink:href="AsyncEngine_8h.html" target="_top" xlink:title=" ">
<polygon fill="white" stroke="#666666" points="328,-74 240,-74 240,-55 328,-55 328,-74"/>
<text text-anchor="middle" x="284" y="-62" font-family="Helvetica,sans-Serif" font-size="10.00">AsyncEngine.h</text>
</a>
</g>
</g>
<!-- Node14&#45;&gt;Node15 -->
<g id="edge16_Node000014_Node000015" class="edge">
<title>Node14&#45;&gt;Node15</title>
<g id="a_edge16_Node000014_Node000015"><a xlink:title=" ">
<path fill="none" stroke="#63b8ff" d="M284,-109.75C284,-102.8 284,-92.85 284,-84.13"/>
<polygon fill="#63b8ff" stroke="#63b8ff" points="287.5,-84.09 284,-74.09 280.5,-84.09 287.5,-84.09"/>
</a>
</g>
</g>
<!-- Node16 -->
<g id="Node000016" class="node">
<title>Node16</title>
<g id="a_Node000016"><a xlink:href="Packable_8h.html" target="_top" xlink:title=" ">
<polygon fill="white" stroke="#666666" points="221.5,-74 126.5,-74 126.5,-55 221.5,-55 221.5,-74"/>
<text text-anchor="middle" x="174" y="-62" font-family="Helvetica,sans-Serif" font-size="10.00">base/Packable.h</text>
</a>
</g>
</g>
<!-- Node14&#45;&gt;Node16 -->
<g id="edge17_Node000014_Node000016" class="edge">
<title>Node14&#45;&gt;Node16</title>
<g id="a_edge17_Node000014_Node000016"><a xlink:title=" ">
<path fill="none" stroke="#63b8ff" d="M266.33,-109.98C248.71,-101.5 221.42,-88.35 201.07,-78.54"/>
<polygon fill="#63b8ff" stroke="#63b8ff" points="202.52,-75.36 191.99,-74.17 199.48,-81.66 202.52,-75.36"/>
</a>
</g>
</g>
<!-- Node17 -->
<g id="Node000017" class="node">
<title>Node17</title>
<g id="a_Node000017"><a xlink:href="mem_2forward_8h.html" target="_top" xlink:title=" ">
<polygon fill="white" stroke="#666666" points="108,-74 16,-74 16,-55 108,-55 108,-74"/>
<text text-anchor="middle" x="62" y="-62" font-family="Helvetica,sans-Serif" font-size="10.00">mem/forward.h</text>
</a>
</g>
</g>
<!-- Node14&#45;&gt;Node17 -->
<g id="edge18_Node000014_Node000017" class="edge">
<title>Node14&#45;&gt;Node17</title>
<g id="a_edge18_Node000014_Node000017"><a xlink:title=" ">
<path fill="none" stroke="#63b8ff" d="M257.22,-112.11C220.13,-103.25 152.58,-87.13 107.5,-76.36"/>
<polygon fill="#63b8ff" stroke="#63b8ff" points="108.21,-72.93 97.67,-74.02 106.59,-79.74 108.21,-72.93"/>
</a>
</g>
</g>
<!-- Node17&#45;&gt;Node5 -->
<g id="edge20_Node000017_Node000005" class="edge">
<title>Node17&#45;&gt;Node5</title>
<g id="a_edge20_Node000017_Node000005"><a xlink:title=" ">
<path fill="none" stroke="#63b8ff" d="M108.23,-56.19C176.3,-45.42 301.95,-25.54 362.55,-15.95"/>
<polygon fill="#63b8ff" stroke="#63b8ff" points="363.4,-19.36 372.73,-14.34 362.31,-12.45 363.4,-19.36"/>
</a>
</g>
</g>
<!-- Node18 -->
<g id="Node000018" class="node">
<title>Node18</title>
<g id="a_Node000018"><a xlink:href="AllocatorProxy_8h.html" target="_top" xlink:title=" ">
<polygon fill="white" stroke="#666666" points="124,-19 0,-19 0,0 124,0 124,-19"/>
<text text-anchor="middle" x="62" y="-7" font-family="Helvetica,sans-Serif" font-size="10.00">mem/AllocatorProxy.h</text>
</a>
</g>
</g>
<!-- Node17&#45;&gt;Node18 -->
<g id="edge19_Node000017_Node000018" class="edge">
<title>Node17&#45;&gt;Node18</title>
<g id="a_edge19_Node000017_Node000018"><a xlink:title=" ">
<path fill="none" stroke="#63b8ff" d="M62,-54.75C62,-47.8 62,-37.85 62,-29.13"/>
<polygon fill="#63b8ff" stroke="#63b8ff" points="65.5,-29.09 62,-19.09 58.5,-29.09 65.5,-29.09"/>
</a>
</g>
</g>
</g>
</svg>
