<?xml version="1.0" encoding="UTF-8" standalone="no"?>
<!DOCTYPE svg PUBLIC "-//W3C//DTD SVG 1.1//EN"
 "http://www.w3.org/Graphics/SVG/1.1/DTD/svg11.dtd">
<!-- Generated by graphviz version 2.43.0 (0)
 -->
<!-- Title: squid/src/base/AsyncCbdataCalls.h Pages: 1 -->
<!--zoomable 313 -->

<svg id="main" version="1.1" xmlns="http://www.w3.org/2000/svg" xmlns:xlink="http://www.w3.org/1999/xlink" xml:space="preserve" onload="init(evt)">
<style type="text/css"><![CDATA[
.node, .edge {opacity: 0.7;}
.node.selected, .edge.selected {opacity: 1;}
.edge:hover path { stroke: red; }
.edge:hover polygon { stroke: red; fill: red; }
]]></style>

<defs>
  <circle id="rim" cx="0" cy="0" r="7"/>
  <circle id="rim2" cx="0" cy="0" r="3.5"/>
  <g id="zoomPlus">
    <use xlink:href="#rim" fill="#404040"><set attributeName="fill" to="#808080" begin="zoomplus.mouseover" end="zoomplus.mouseout"/></use>
    <path d="M-4,0h8M0,-4v8" fill="none" stroke="white" stroke-width="1.5" pointer-events="none"/>
  </g>
  <g id="zoomMin">
    <use xlink:href="#rim" fill="#404040"><set attributeName="fill" to="#808080" begin="zoomminus.mouseover" end="zoomminus.mouseout"/></use>
    <path d="M-4,0h8" fill="none" stroke="white" stroke-width="1.5" pointer-events="none"/>
  </g>
  <g id="arrowUp" transform="translate(30 24)">
    <use xlink:href="#rim"/>
    <path pointer-events="none" fill="none" stroke="white" stroke-width="1.5" d="M0,-3.0v7 M-2.5,-0.5L0,-3.0L2.5,-0.5"/>
  </g>
  <g id="arrowRight" transform="rotate(90) translate(36 -43)">
    <use xlink:href="#rim"/>
    <path pointer-events="none" fill="none" stroke="white" stroke-width="1.5" d="M0,-3.0v7 M-2.5,-0.5L0,-3.0L2.5,-0.5"/>
  </g>
  <g id="arrowDown" transform="rotate(180) translate(-30 -48)">
    <use xlink:href="#rim"/>
    <path pointer-events="none" fill="none" stroke="white" stroke-width="1.5" d="M0,-3.0v7 M-2.5,-0.5L0,-3.0L2.5,-0.5"/>
  </g>
  <g id="arrowLeft" transform="rotate(270) translate(-36 17)">
    <use xlink:href="#rim"/>
    <path pointer-events="none" fill="none" stroke="white" stroke-width="1.5" d="M0,-3.0v7 M-2.5,-0.5L0,-3.0L2.5,-0.5"/>
  </g>
  <g id="resetDef">
    <use xlink:href="#rim2" fill="#404040"><set attributeName="fill" to="#808080" begin="reset.mouseover" end="reset.mouseout"/></use>
  </g>
</defs>
<script type="application/ecmascript">
var viewWidth = 1055;
var viewHeight = 313;
var sectionId = 'dynsection-0';
</script>
<script type="application/ecmascript" xlink:href="svg.min.js"/>
<svg id="graph" class="graph">
<g id="viewport">
<title>squid/src/base/AsyncCbdataCalls.h</title>
<!-- Node1 -->
<g id="Node000001" class="node">
<title>Node1</title>
<g id="a_Node000001"><a xlink:title=" ">
<polygon fill="#999999" stroke="#666666" points="607.5,-305 454.5,-305 454.5,-275 607.5,-275 607.5,-305"/>
<text text-anchor="start" x="462.5" y="-293" font-family="Helvetica,sans-Serif" font-size="10.00">squid/src/base/AsyncCbdata</text>
<text text-anchor="middle" x="531" y="-282" font-family="Helvetica,sans-Serif" font-size="10.00">Calls.h</text>
</a>
</g>
</g>
<!-- Node2 -->
<g id="Node000002" class="node">
<title>Node2</title>
<g id="a_Node000002"><a xlink:href="AsyncCall_8h.html" target="_top" xlink:title=" ">
<polygon fill="white" stroke="#666666" points="444,-239 344,-239 344,-220 444,-220 444,-239"/>
<text text-anchor="middle" x="394" y="-227" font-family="Helvetica,sans-Serif" font-size="10.00">base/AsyncCall.h</text>
</a>
</g>
</g>
<!-- Node1&#45;&gt;Node2 -->
<g id="edge1_Node000001_Node000002" class="edge">
<title>Node1&#45;&gt;Node2</title>
<g id="a_edge1_Node000001_Node000002"><a xlink:title=" ">
<path fill="none" stroke="#63b8ff" d="M498.19,-274.99C475.53,-265.31 445.65,-252.56 423.7,-243.18"/>
<polygon fill="#63b8ff" stroke="#63b8ff" points="424.8,-239.85 414.23,-239.14 422.05,-246.29 424.8,-239.85"/>
</a>
</g>
</g>
<!-- Node19 -->
<g id="Node000019" class="node">
<title>Node19</title>
<g id="a_Node000019"><a xlink:href="CbcPointer_8h.html" target="_top" xlink:title=" ">
<polygon fill="white" stroke="#666666" points="823,-239 719,-239 719,-220 823,-220 823,-239"/>
<text text-anchor="middle" x="771" y="-227" font-family="Helvetica,sans-Serif" font-size="10.00">base/CbcPointer.h</text>
</a>
</g>
</g>
<!-- Node1&#45;&gt;Node19 -->
<g id="edge22_Node000001_Node000019" class="edge">
<title>Node1&#45;&gt;Node19</title>
<g id="a_edge22_Node000001_Node000019"><a xlink:title=" ">
<path fill="none" stroke="#63b8ff" d="M588.49,-274.99C630.62,-264.72 687.03,-250.97 725.92,-241.49"/>
<polygon fill="#63b8ff" stroke="#63b8ff" points="727.02,-244.82 735.91,-239.05 725.36,-238.02 727.02,-244.82"/>
</a>
</g>
</g>
<!-- Node3 -->
<g id="Node000003" class="node">
<title>Node3</title>
<g id="a_Node000003"><a xlink:href="CodeContext_8h.html" target="_top" xlink:title=" ">
<polygon fill="white" stroke="#666666" points="255.5,-184 140.5,-184 140.5,-165 255.5,-165 255.5,-184"/>
<text text-anchor="middle" x="198" y="-172" font-family="Helvetica,sans-Serif" font-size="10.00">base/CodeContext.h</text>
</a>
</g>
</g>
<!-- Node2&#45;&gt;Node3 -->
<g id="edge2_Node000002_Node000003" class="edge">
<title>Node2&#45;&gt;Node3</title>
<g id="a_edge2_Node000002_Node000003"><a xlink:title=" ">
<path fill="none" stroke="#63b8ff" d="M362.51,-219.98C329.18,-210.97 276.4,-196.7 239.65,-186.76"/>
<polygon fill="#63b8ff" stroke="#63b8ff" points="240.3,-183.31 229.74,-184.08 238.48,-190.07 240.3,-183.31"/>
</a>
</g>
</g>
<!-- Node4 -->
<g id="Node000004" class="node">
<title>Node4</title>
<g id="a_Node000004"><a xlink:href="InstanceId_8h.html" target="_top" xlink:title=" ">
<polygon fill="white" stroke="#666666" points="405,-129 303,-129 303,-110 405,-110 405,-129"/>
<text text-anchor="middle" x="354" y="-117" font-family="Helvetica,sans-Serif" font-size="10.00">base/InstanceId.h</text>
</a>
</g>
</g>
<!-- Node2&#45;&gt;Node4 -->
<g id="edge14_Node000002_Node000004" class="edge">
<title>Node2&#45;&gt;Node4</title>
<g id="a_edge14_Node000002_Node000004"><a xlink:title=" ">
<path fill="none" stroke="#63b8ff" d="M399.99,-219.91C407.94,-207.36 420.01,-183.46 411,-165 404.7,-152.09 392.65,-141.83 381.24,-134.43"/>
<polygon fill="#63b8ff" stroke="#63b8ff" points="382.73,-131.25 372.35,-129.12 379.14,-137.25 382.73,-131.25"/>
</a>
</g>
</g>
<!-- Node6 -->
<g id="Node000006" class="node">
<title>Node6</title>
<g id="a_Node000006"><a xlink:href="RefCount_8h.html" target="_top" xlink:title=" ">
<polygon fill="white" stroke="#666666" points="284.5,-129 187.5,-129 187.5,-110 284.5,-110 284.5,-129"/>
<text text-anchor="middle" x="236" y="-117" font-family="Helvetica,sans-Serif" font-size="10.00">base/RefCount.h</text>
</a>
</g>
</g>
<!-- Node2&#45;&gt;Node6 -->
<g id="edge21_Node000002_Node000006" class="edge">
<title>Node2&#45;&gt;Node6</title>
<g id="a_edge21_Node000002_Node000006"><a xlink:title=" ">
<path fill="none" stroke="#63b8ff" d="M372.3,-219.9C353.43,-211.94 325.79,-199.07 304,-184 283.98,-170.15 263.96,-150.6 250.88,-136.86"/>
<polygon fill="#63b8ff" stroke="#63b8ff" points="253.08,-134.08 243.7,-129.16 247.96,-138.86 253.08,-134.08"/>
</a>
</g>
</g>
<!-- Node13 -->
<g id="Node000013" class="node">
<title>Node13</title>
<g id="a_Node000013"><a xlink:href="base_2forward_8h.html" target="_top" xlink:title=" ">
<polygon fill="white" stroke="#666666" points="401.5,-184 312.5,-184 312.5,-165 401.5,-165 401.5,-184"/>
<text text-anchor="middle" x="357" y="-172" font-family="Helvetica,sans-Serif" font-size="10.00">base/forward.h</text>
</a>
</g>
</g>
<!-- Node2&#45;&gt;Node13 -->
<g id="edge13_Node000002_Node000013" class="edge">
<title>Node2&#45;&gt;Node13</title>
<g id="a_edge13_Node000002_Node000013"><a xlink:title=" ">
<path fill="none" stroke="#63b8ff" d="M387.89,-219.75C382.72,-212.34 375.15,-201.5 368.81,-192.41"/>
<polygon fill="#63b8ff" stroke="#63b8ff" points="371.59,-190.29 363,-184.09 365.85,-194.29 371.59,-190.29"/>
</a>
</g>
</g>
<!-- Node14 -->
<g id="Node000014" class="node">
<title>Node14</title>
<g id="a_Node000014"><a xlink:href="event_8h.html" target="_top" xlink:title=" ">
<polygon fill="white" stroke="#666666" points="576.5,-184 523.5,-184 523.5,-165 576.5,-165 576.5,-184"/>
<text text-anchor="middle" x="550" y="-172" font-family="Helvetica,sans-Serif" font-size="10.00">event.h</text>
</a>
</g>
</g>
<!-- Node2&#45;&gt;Node14 -->
<g id="edge15_Node000002_Node000014" class="edge">
<title>Node2&#45;&gt;Node14</title>
<g id="a_edge15_Node000002_Node000014"><a xlink:title=" ">
<path fill="none" stroke="#63b8ff" d="M419.06,-219.98C445.03,-211.16 485.81,-197.31 514.96,-187.41"/>
<polygon fill="#63b8ff" stroke="#63b8ff" points="516.4,-190.61 524.74,-184.08 514.15,-183.99 516.4,-190.61"/>
</a>
</g>
</g>
<!-- Node3&#45;&gt;Node4 -->
<g id="edge3_Node000003_Node000004" class="edge">
<title>Node3&#45;&gt;Node4</title>
<g id="a_edge3_Node000003_Node000004"><a xlink:title=" ">
<path fill="none" stroke="#63b8ff" d="M223.06,-164.98C249.03,-156.16 289.81,-142.31 318.96,-132.41"/>
<polygon fill="#63b8ff" stroke="#63b8ff" points="320.4,-135.61 328.74,-129.08 318.15,-128.99 320.4,-135.61"/>
</a>
</g>
</g>
<!-- Node5 -->
<g id="Node000005" class="node">
<title>Node5</title>
<g id="a_Node000005"><a xlink:title=" ">
<polygon fill="#e0e0e0" stroke="#999999" points="417,-19 369,-19 369,0 417,0 417,-19"/>
<text text-anchor="middle" x="393" y="-7" font-family="Helvetica,sans-Serif" font-size="10.00">iosfwd</text>
</a>
</g>
</g>
<!-- Node3&#45;&gt;Node5 -->
<g id="edge12_Node000003_Node000005" class="edge">
<title>Node3&#45;&gt;Node5</title>
<g id="a_edge12_Node000003_Node000005"><a xlink:title=" ">
<path fill="none" stroke="#63b8ff" d="M192.68,-164.68C187.77,-155.97 180.81,-142.09 178,-129 171.03,-96.49 165.69,-78.71 189,-55 212.3,-31.3 306.88,-18.72 358.68,-13.49"/>
<polygon fill="#63b8ff" stroke="#63b8ff" points="359.12,-16.96 368.74,-12.51 358.45,-10 359.12,-16.96"/>
</a>
</g>
</g>
<!-- Node3&#45;&gt;Node6 -->
<g id="edge5_Node000003_Node000006" class="edge">
<title>Node3&#45;&gt;Node6</title>
<g id="a_edge5_Node000003_Node000006"><a xlink:title=" ">
<path fill="none" stroke="#63b8ff" d="M204.27,-164.75C209.59,-157.34 217.36,-146.5 223.88,-137.41"/>
<polygon fill="#63b8ff" stroke="#63b8ff" points="226.86,-139.26 229.84,-129.09 221.17,-135.18 226.86,-139.26"/>
</a>
</g>
</g>
<!-- Node10 -->
<g id="Node000010" class="node">
<title>Node10</title>
<g id="a_Node000010"><a xlink:href="Stopwatch_8h.html" target="_top" xlink:title=" ">
<polygon fill="white" stroke="#666666" points="130.5,-129 27.5,-129 27.5,-110 130.5,-110 130.5,-129"/>
<text text-anchor="middle" x="79" y="-117" font-family="Helvetica,sans-Serif" font-size="10.00">base/Stopwatch.h</text>
</a>
</g>
</g>
<!-- Node3&#45;&gt;Node10 -->
<g id="edge9_Node000003_Node000010" class="edge">
<title>Node3&#45;&gt;Node10</title>
<g id="a_edge9_Node000003_Node000010"><a xlink:title=" ">
<path fill="none" stroke="#63b8ff" d="M178.88,-164.98C159.65,-156.42 129.77,-143.11 107.69,-133.28"/>
<polygon fill="#63b8ff" stroke="#63b8ff" points="109.03,-130.04 98.47,-129.17 106.18,-136.44 109.03,-130.04"/>
</a>
</g>
</g>
<!-- Node4&#45;&gt;Node5 -->
<g id="edge4_Node000004_Node000005" class="edge">
<title>Node4&#45;&gt;Node5</title>
<g id="a_edge4_Node000004_Node000005"><a xlink:title=" ">
<path fill="none" stroke="#63b8ff" d="M357.19,-109.66C363.57,-92.01 377.98,-52.09 386.45,-28.64"/>
<polygon fill="#63b8ff" stroke="#63b8ff" points="389.77,-29.75 389.87,-19.16 383.18,-27.38 389.77,-29.75"/>
</a>
</g>
</g>
<!-- Node7 -->
<g id="Node000007" class="node">
<title>Node7</title>
<g id="a_Node000007"><a xlink:href="Lock_8h.html" target="_top" xlink:title=" ">
<polygon fill="white" stroke="#666666" points="336,-74 262,-74 262,-55 336,-55 336,-74"/>
<text text-anchor="middle" x="299" y="-62" font-family="Helvetica,sans-Serif" font-size="10.00">base/Lock.h</text>
</a>
</g>
</g>
<!-- Node6&#45;&gt;Node7 -->
<g id="edge6_Node000006_Node000007" class="edge">
<title>Node6&#45;&gt;Node7</title>
<g id="a_edge6_Node000006_Node000007"><a xlink:title=" ">
<path fill="none" stroke="#63b8ff" d="M246.12,-109.98C255.44,-102.15 269.47,-90.34 280.74,-80.86"/>
<polygon fill="#63b8ff" stroke="#63b8ff" points="283.29,-83.29 288.69,-74.17 278.79,-77.93 283.29,-83.29"/>
</a>
</g>
</g>
<!-- Node8 -->
<g id="Node000008" class="node">
<title>Node8</title>
<g id="a_Node000008"><a xlink:title=" ">
<polygon fill="#e0e0e0" stroke="#999999" points="565,-74 505,-74 505,-55 565,-55 565,-74"/>
<text text-anchor="middle" x="535" y="-62" font-family="Helvetica,sans-Serif" font-size="10.00">iostream</text>
</a>
</g>
</g>
<!-- Node6&#45;&gt;Node8 -->
<g id="edge7_Node000006_Node000008" class="edge">
<title>Node6&#45;&gt;Node8</title>
<g id="a_edge7_Node000006_Node000008"><a xlink:title=" ">
<path fill="none" stroke="#63b8ff" d="M284.04,-109.98C342.51,-99.62 440.17,-82.31 494.83,-72.62"/>
<polygon fill="#63b8ff" stroke="#63b8ff" points="495.6,-76.04 504.84,-70.85 494.38,-69.15 495.6,-76.04"/>
</a>
</g>
</g>
<!-- Node9 -->
<g id="Node000009" class="node">
<title>Node9</title>
<g id="a_Node000009"><a xlink:title=" ">
<polygon fill="#e0e0e0" stroke="#999999" points="243.5,-74 198.5,-74 198.5,-55 243.5,-55 243.5,-74"/>
<text text-anchor="middle" x="221" y="-62" font-family="Helvetica,sans-Serif" font-size="10.00">utility</text>
</a>
</g>
</g>
<!-- Node6&#45;&gt;Node9 -->
<g id="edge8_Node000006_Node000009" class="edge">
<title>Node6&#45;&gt;Node9</title>
<g id="a_edge8_Node000006_Node000009"><a xlink:title=" ">
<path fill="none" stroke="#63b8ff" d="M233.52,-109.75C231.54,-102.72 228.68,-92.62 226.19,-83.84"/>
<polygon fill="#63b8ff" stroke="#63b8ff" points="229.52,-82.76 223.43,-74.09 222.79,-84.66 229.52,-82.76"/>
</a>
</g>
</g>
<!-- Node11 -->
<g id="Node000011" class="node">
<title>Node11</title>
<g id="a_Node000011"><a xlink:title=" ">
<polygon fill="#e0e0e0" stroke="#999999" points="118,-74 68,-74 68,-55 118,-55 118,-74"/>
<text text-anchor="middle" x="93" y="-62" font-family="Helvetica,sans-Serif" font-size="10.00">chrono</text>
</a>
</g>
</g>
<!-- Node10&#45;&gt;Node11 -->
<g id="edge10_Node000010_Node000011" class="edge">
<title>Node10&#45;&gt;Node11</title>
<g id="a_edge10_Node000010_Node000011"><a xlink:title=" ">
<path fill="none" stroke="#63b8ff" d="M81.31,-109.75C83.17,-102.72 85.84,-92.62 88.15,-83.84"/>
<polygon fill="#63b8ff" stroke="#63b8ff" points="91.56,-84.65 90.73,-74.09 84.79,-82.86 91.56,-84.65"/>
</a>
</g>
</g>
<!-- Node12 -->
<g id="Node000012" class="node">
<title>Node12</title>
<g id="a_Node000012"><a xlink:title=" ">
<polygon fill="#e0e0e0" stroke="#999999" points="50,-74 0,-74 0,-55 50,-55 50,-74"/>
<text text-anchor="middle" x="25" y="-62" font-family="Helvetica,sans-Serif" font-size="10.00">cstdint</text>
</a>
</g>
</g>
<!-- Node10&#45;&gt;Node12 -->
<g id="edge11_Node000010_Node000012" class="edge">
<title>Node10&#45;&gt;Node12</title>
<g id="a_edge11_Node000010_Node000012"><a xlink:title=" ">
<path fill="none" stroke="#63b8ff" d="M70.08,-109.75C62.22,-102.03 50.57,-90.6 41.08,-81.28"/>
<polygon fill="#63b8ff" stroke="#63b8ff" points="43.34,-78.6 33.75,-74.09 38.44,-83.59 43.34,-78.6"/>
</a>
</g>
</g>
<!-- Node15 -->
<g id="Node000015" class="node">
<title>Node15</title>
<g id="a_Node000015"><a xlink:href="AsyncEngine_8h.html" target="_top" xlink:title=" ">
<polygon fill="white" stroke="#666666" points="511,-129 423,-129 423,-110 511,-110 511,-129"/>
<text text-anchor="middle" x="467" y="-117" font-family="Helvetica,sans-Serif" font-size="10.00">AsyncEngine.h</text>
</a>
</g>
</g>
<!-- Node14&#45;&gt;Node15 -->
<g id="edge16_Node000014_Node000015" class="edge">
<title>Node14&#45;&gt;Node15</title>
<g id="a_edge16_Node000014_Node000015"><a xlink:title=" ">
<path fill="none" stroke="#63b8ff" d="M536.66,-164.98C523.91,-156.84 504.45,-144.41 489.33,-134.76"/>
<polygon fill="#63b8ff" stroke="#63b8ff" points="490.89,-131.6 480.58,-129.17 487.12,-137.5 490.89,-131.6"/>
</a>
</g>
</g>
<!-- Node16 -->
<g id="Node000016" class="node">
<title>Node16</title>
<g id="a_Node000016"><a xlink:href="Packable_8h.html" target="_top" xlink:title=" ">
<polygon fill="white" stroke="#666666" points="624.5,-129 529.5,-129 529.5,-110 624.5,-110 624.5,-129"/>
<text text-anchor="middle" x="577" y="-117" font-family="Helvetica,sans-Serif" font-size="10.00">base/Packable.h</text>
</a>
</g>
</g>
<!-- Node14&#45;&gt;Node16 -->
<g id="edge17_Node000014_Node000016" class="edge">
<title>Node14&#45;&gt;Node16</title>
<g id="a_edge17_Node000014_Node000016"><a xlink:title=" ">
<path fill="none" stroke="#63b8ff" d="M554.46,-164.75C558.12,-157.57 563.41,-147.18 567.95,-138.27"/>
<polygon fill="#63b8ff" stroke="#63b8ff" points="571.2,-139.59 572.62,-129.09 564.97,-136.41 571.2,-139.59"/>
</a>
</g>
</g>
<!-- Node17 -->
<g id="Node000017" class="node">
<title>Node17</title>
<g id="a_Node000017"><a xlink:href="mem_2forward_8h.html" target="_top" xlink:title=" ">
<polygon fill="white" stroke="#666666" points="735,-129 643,-129 643,-110 735,-110 735,-129"/>
<text text-anchor="middle" x="689" y="-117" font-family="Helvetica,sans-Serif" font-size="10.00">mem/forward.h</text>
</a>
</g>
</g>
<!-- Node14&#45;&gt;Node17 -->
<g id="edge18_Node000014_Node000017" class="edge">
<title>Node14&#45;&gt;Node17</title>
<g id="a_edge18_Node000014_Node000017"><a xlink:title=" ">
<path fill="none" stroke="#63b8ff" d="M572.33,-164.98C595.2,-156.27 630.96,-142.63 656.86,-132.75"/>
<polygon fill="#63b8ff" stroke="#63b8ff" points="658.16,-136 666.26,-129.17 655.67,-129.46 658.16,-136"/>
</a>
</g>
</g>
<!-- Node17&#45;&gt;Node5 -->
<g id="edge20_Node000017_Node000005" class="edge">
<title>Node17&#45;&gt;Node5</title>
<g id="a_edge20_Node000017_Node000005"><a xlink:title=" ">
<path fill="none" stroke="#63b8ff" d="M644.44,-109.97C596.16,-100.43 522.48,-84.87 496,-74 464.82,-61.2 432.27,-39.51 412.31,-25.09"/>
<polygon fill="#63b8ff" stroke="#63b8ff" points="414.21,-22.14 404.08,-19.04 410.06,-27.78 414.21,-22.14"/>
</a>
</g>
</g>
<!-- Node18 -->
<g id="Node000018" class="node">
<title>Node18</title>
<g id="a_Node000018"><a xlink:href="AllocatorProxy_8h.html" target="_top" xlink:title=" ">
<polygon fill="white" stroke="#666666" points="727,-74 603,-74 603,-55 727,-55 727,-74"/>
<text text-anchor="middle" x="665" y="-62" font-family="Helvetica,sans-Serif" font-size="10.00">mem/AllocatorProxy.h</text>
</a>
</g>
</g>
<!-- Node17&#45;&gt;Node18 -->
<g id="edge19_Node000017_Node000018" class="edge">
<title>Node17&#45;&gt;Node18</title>
<g id="a_edge19_Node000017_Node000018"><a xlink:title=" ">
<path fill="none" stroke="#63b8ff" d="M685.04,-109.75C681.79,-102.57 677.08,-92.18 673.05,-83.27"/>
<polygon fill="#63b8ff" stroke="#63b8ff" points="676.2,-81.75 668.89,-74.09 669.83,-84.64 676.2,-81.75"/>
</a>
</g>
</g>
<!-- Node20 -->
<g id="Node000020" class="node">
<title>Node20</title>
<g id="a_Node000020"><a xlink:href="TextException_8h.html" target="_top" xlink:title=" ">
<polygon fill="white" stroke="#666666" points="1014,-184 894,-184 894,-165 1014,-165 1014,-184"/>
<text text-anchor="middle" x="954" y="-172" font-family="Helvetica,sans-Serif" font-size="10.00">base/TextException.h</text>
</a>
</g>
</g>
<!-- Node19&#45;&gt;Node20 -->
<g id="edge23_Node000019_Node000020" class="edge">
<title>Node19&#45;&gt;Node20</title>
<g id="a_edge23_Node000019_Node000020"><a xlink:title=" ">
<path fill="none" stroke="#63b8ff" d="M800.4,-219.98C831.39,-211.01 880.38,-196.82 914.67,-186.89"/>
<polygon fill="#63b8ff" stroke="#63b8ff" points="915.74,-190.23 924.37,-184.08 913.79,-183.5 915.74,-190.23"/>
</a>
</g>
</g>
<!-- Node24 -->
<g id="Node000024" class="node">
<title>Node24</title>
<g id="a_Node000024"><a xlink:href="cbdata_8h.html" target="_top" xlink:title=" ">
<polygon fill="white" stroke="#666666" points="771.5,-184 712.5,-184 712.5,-165 771.5,-165 771.5,-184"/>
<text text-anchor="middle" x="742" y="-172" font-family="Helvetica,sans-Serif" font-size="10.00">cbdata.h</text>
</a>
</g>
</g>
<!-- Node19&#45;&gt;Node24 -->
<g id="edge29_Node000019_Node000024" class="edge">
<title>Node19&#45;&gt;Node24</title>
<g id="a_edge29_Node000019_Node000024"><a xlink:title=" ">
<path fill="none" stroke="#63b8ff" d="M766.21,-219.75C762.24,-212.49 756.47,-201.95 751.57,-192.98"/>
<polygon fill="#63b8ff" stroke="#63b8ff" points="754.57,-191.18 746.7,-184.09 748.43,-194.54 754.57,-191.18"/>
</a>
</g>
</g>
<!-- Node25 -->
<g id="Node000025" class="node">
<title>Node25</title>
<g id="a_Node000025"><a xlink:href="debug_2Stream_8h.html" target="_top" xlink:title=" ">
<polygon fill="white" stroke="#666666" points="847,-129 753,-129 753,-110 847,-110 847,-129"/>
<text text-anchor="middle" x="800" y="-117" font-family="Helvetica,sans-Serif" font-size="10.00">debug/Stream.h</text>
</a>
</g>
</g>
<!-- Node19&#45;&gt;Node25 -->
<g id="edge30_Node000019_Node000025" class="edge">
<title>Node19&#45;&gt;Node25</title>
<g id="a_edge30_Node000019_Node000025"><a xlink:title=" ">
<path fill="none" stroke="#63b8ff" d="M773.37,-219.66C778.09,-202.09 788.74,-162.45 795.04,-138.95"/>
<polygon fill="#63b8ff" stroke="#63b8ff" points="798.46,-139.72 797.68,-129.16 791.7,-137.91 798.46,-139.72"/>
</a>
</g>
</g>
<!-- Node21 -->
<g id="Node000021" class="node">
<title>Node21</title>
<g id="a_Node000021"><a xlink:href="Assure_8h.html" target="_top" xlink:title=" ">
<polygon fill="white" stroke="#666666" points="950.5,-129 865.5,-129 865.5,-110 950.5,-110 950.5,-129"/>
<text text-anchor="middle" x="908" y="-117" font-family="Helvetica,sans-Serif" font-size="10.00">base/Assure.h</text>
</a>
</g>
</g>
<!-- Node20&#45;&gt;Node21 -->
<g id="edge24_Node000020_Node000021" class="edge">
<title>Node20&#45;&gt;Node21</title>
<g id="a_edge24_Node000020_Node000021"><a xlink:title=" ">
<path fill="none" stroke="#63b8ff" d="M946.4,-164.75C939.84,-157.18 930.18,-146.05 922.19,-136.84"/>
<polygon fill="#63b8ff" stroke="#63b8ff" points="924.65,-134.35 915.45,-129.09 919.37,-138.94 924.65,-134.35"/>
</a>
</g>
</g>
<!-- Node22 -->
<g id="Node000022" class="node">
<title>Node22</title>
<g id="a_Node000022"><a xlink:href="Here_8h.html" target="_top" xlink:title=" ">
<polygon fill="white" stroke="#666666" points="968.5,-74 893.5,-74 893.5,-55 968.5,-55 968.5,-74"/>
<text text-anchor="middle" x="931" y="-62" font-family="Helvetica,sans-Serif" font-size="10.00">base/Here.h</text>
</a>
</g>
</g>
<!-- Node20&#45;&gt;Node22 -->
<g id="edge27_Node000020_Node000022" class="edge">
<title>Node20&#45;&gt;Node22</title>
<g id="a_edge27_Node000020_Node000022"><a xlink:title=" ">
<path fill="none" stroke="#63b8ff" d="M986.41,-164.96C1018.53,-154.8 1060.59,-135.91 1043,-110 1028.55,-88.72 1002.15,-77.61 978.61,-71.82"/>
<polygon fill="#63b8ff" stroke="#63b8ff" points="979.26,-68.38 968.74,-69.65 977.76,-75.21 979.26,-68.38"/>
</a>
</g>
</g>
<!-- Node23 -->
<g id="Node000023" class="node">
<title>Node23</title>
<g id="a_Node000023"><a xlink:title=" ">
<polygon fill="#e0e0e0" stroke="#999999" points="1033.5,-129 968.5,-129 968.5,-110 1033.5,-110 1033.5,-129"/>
<text text-anchor="middle" x="1001" y="-117" font-family="Helvetica,sans-Serif" font-size="10.00">stdexcept</text>
</a>
</g>
</g>
<!-- Node20&#45;&gt;Node23 -->
<g id="edge28_Node000020_Node000023" class="edge">
<title>Node20&#45;&gt;Node23</title>
<g id="a_edge28_Node000020_Node000023"><a xlink:title=" ">
<path fill="none" stroke="#63b8ff" d="M961.76,-164.75C968.47,-157.18 978.34,-146.05 986.51,-136.84"/>
<polygon fill="#63b8ff" stroke="#63b8ff" points="989.37,-138.89 993.38,-129.09 984.13,-134.25 989.37,-138.89"/>
</a>
</g>
</g>
<!-- Node21&#45;&gt;Node22 -->
<g id="edge25_Node000021_Node000022" class="edge">
<title>Node21&#45;&gt;Node22</title>
<g id="a_edge25_Node000021_Node000022"><a xlink:title=" ">
<path fill="none" stroke="#63b8ff" d="M911.8,-109.75C914.91,-102.57 919.42,-92.18 923.29,-83.27"/>
<polygon fill="#63b8ff" stroke="#63b8ff" points="926.5,-84.66 927.27,-74.09 920.08,-81.87 926.5,-84.66"/>
</a>
</g>
</g>
<!-- Node22&#45;&gt;Node5 -->
<g id="edge26_Node000022_Node000005" class="edge">
<title>Node22&#45;&gt;Node5</title>
<g id="a_edge26_Node000022_Node000005"><a xlink:title=" ">
<path fill="none" stroke="#63b8ff" d="M893.34,-56.39C890.18,-55.88 887.04,-55.41 884,-55 713.13,-31.85 507.13,-17.58 427.1,-12.55"/>
<polygon fill="#63b8ff" stroke="#63b8ff" points="427.3,-9.05 417.1,-11.93 426.86,-16.04 427.3,-9.05"/>
</a>
</g>
</g>
<!-- Node25&#45;&gt;Node8 -->
<g id="edge33_Node000025_Node000008" class="edge">
<title>Node25&#45;&gt;Node8</title>
<g id="a_edge33_Node000025_Node000008"><a xlink:title=" ">
<path fill="none" stroke="#63b8ff" d="M757.42,-109.98C707.16,-99.93 624.2,-83.34 575.06,-73.51"/>
<polygon fill="#63b8ff" stroke="#63b8ff" points="575.6,-70.05 565.11,-71.52 574.23,-76.92 575.6,-70.05"/>
</a>
</g>
</g>
<!-- Node25&#45;&gt;Node18 -->
<g id="edge32_Node000025_Node000018" class="edge">
<title>Node25&#45;&gt;Node18</title>
<g id="a_edge32_Node000025_Node000018"><a xlink:title=" ">
<path fill="none" stroke="#63b8ff" d="M778.31,-109.98C756.2,-101.3 721.68,-87.75 696.55,-77.88"/>
<polygon fill="#63b8ff" stroke="#63b8ff" points="697.67,-74.57 687.08,-74.17 695.11,-81.08 697.67,-74.57"/>
</a>
</g>
</g>
<!-- Node25&#45;&gt;Node22 -->
<g id="edge31_Node000025_Node000022" class="edge">
<title>Node25&#45;&gt;Node22</title>
<g id="a_edge31_Node000025_Node000022"><a xlink:title=" ">
<path fill="none" stroke="#63b8ff" d="M821.05,-109.98C842.41,-101.34 875.7,-87.87 900.06,-78.02"/>
<polygon fill="#63b8ff" stroke="#63b8ff" points="901.61,-81.17 909.57,-74.17 898.99,-74.68 901.61,-81.17"/>
</a>
</g>
</g>
<!-- Node26 -->
<g id="Node000026" class="node">
<title>Node26</title>
<g id="a_Node000026"><a xlink:title=" ">
<polygon fill="#e0e0e0" stroke="#999999" points="875,-74 819,-74 819,-55 875,-55 875,-74"/>
<text text-anchor="middle" x="847" y="-62" font-family="Helvetica,sans-Serif" font-size="10.00">sstream</text>
</a>
</g>
</g>
<!-- Node25&#45;&gt;Node26 -->
<g id="edge34_Node000025_Node000026" class="edge">
<title>Node25&#45;&gt;Node26</title>
<g id="a_edge34_Node000025_Node000026"><a xlink:title=" ">
<path fill="none" stroke="#63b8ff" d="M807.76,-109.75C814.47,-102.18 824.34,-91.05 832.51,-81.84"/>
<polygon fill="#63b8ff" stroke="#63b8ff" points="835.37,-83.89 839.38,-74.09 830.13,-79.25 835.37,-83.89"/>
</a>
</g>
</g>
<!-- Node27 -->
<g id="Node000027" class="node">
<title>Node27</title>
<g id="a_Node000027"><a xlink:title=" ">
<polygon fill="#e0e0e0" stroke="#999999" points="801,-74 745,-74 745,-55 801,-55 801,-74"/>
<text text-anchor="middle" x="773" y="-62" font-family="Helvetica,sans-Serif" font-size="10.00">iomanip</text>
</a>
</g>
</g>
<!-- Node25&#45;&gt;Node27 -->
<g id="edge35_Node000025_Node000027" class="edge">
<title>Node25&#45;&gt;Node27</title>
<g id="a_edge35_Node000025_Node000027"><a xlink:title=" ">
<path fill="none" stroke="#63b8ff" d="M795.54,-109.75C791.88,-102.57 786.59,-92.18 782.05,-83.27"/>
<polygon fill="#63b8ff" stroke="#63b8ff" points="785.03,-81.41 777.38,-74.09 778.8,-84.59 785.03,-81.41"/>
</a>
</g>
</g>
</g>
</svg>

<g id="navigator" transform="translate(0 0)" fill="#404254">
  <rect fill="#f2f5e9" fill-opacity="0.5" stroke="#606060" stroke-width=".5" x="0" y="0" width="60" height="60"/>
  <use id="zoomplus" xlink:href="#zoomPlus" x="17" y="9" onmousedown="handleZoom(evt,'in')"/>
  <use id="zoomminus" xlink:href="#zoomMin" x="42" y="9" onmousedown="handleZoom(evt,'out')"/>
  <use id="reset" xlink:href="#resetDef" x="30" y="36" onmousedown="handleReset()"/>
   <use id="arrowup" xlink:href="#arrowUp" x="0" y="0" onmousedown="handlePan(0,-1)"/>
  <use id="arrowright" xlink:href="#arrowRight" x="0" y="0" onmousedown="handlePan(1,0)"/>
  <use id="arrowdown" xlink:href="#arrowDown" x="0" y="0" onmousedown="handlePan(0,1)"/>
  <use id="arrowleft" xlink:href="#arrowLeft" x="0" y="0" onmousedown="handlePan(-1,0)"/>
</g>
<svg viewBox="0 0 15 15" width="100%" height="30px" preserveAspectRatio="xMaxYMin meet">
 <g id="arrow_out" transform="scale(0.3 0.3)">
  <a xlink:href="AsyncCbdataCalls_8h__incl_org.svg" target="_base">
   <rect id="button" ry="5" rx="5" y="6" x="6" height="38" width="38"
        fill="#f2f5e9" fill-opacity="0.5" stroke="#606060" stroke-width="1.0"/>
   <path id="arrow"
     d="M 11.500037,31.436501 C 11.940474,20.09759 22.043105,11.32322 32.158766,21.979434 L 37.068811,17.246167 C 37.068811,17.246167 37.088388,32 37.088388,32 L 22.160133,31.978069 C 22.160133,31.978069 26.997745,27.140456 26.997745,27.140456 C 18.528582,18.264221 13.291696,25.230495 11.500037,31.436501 z"
     style="fill:#404040;"/>
  </a>
 </g>
</svg>

<style type='text/css'>
<![CDATA[
[data-mouse-over-selected='false'] { opacity: 0.7; }
[data-mouse-over-selected='true']  { opacity: 1.0; }
]]>
</style>
<script type="application/ecmascript"><![CDATA[
document.addEventListener('DOMContentLoaded', (event) => {
  highlightEdges();
  highlightAdjacentNodes();
});
]]></script>
</svg>
