<?xml version="1.0" encoding="UTF-8" standalone="no"?>
<!DOCTYPE svg PUBLIC "-//W3C//DTD SVG 1.1//EN"
 "http://www.w3.org/Graphics/SVG/1.1/DTD/svg11.dtd">
<!-- Generated by graphviz version 2.43.0 (0)
 -->
<!-- Title: squid/src/auth/Config.cc Pages: 1 -->
<!--zoomable 247 -->

<svg id="main" version="1.1" xmlns="http://www.w3.org/2000/svg" xmlns:xlink="http://www.w3.org/1999/xlink" xml:space="preserve" onload="init(evt)">
<style type="text/css"><![CDATA[
.node, .edge {opacity: 0.7;}
.node.selected, .edge.selected {opacity: 1;}
.edge:hover path { stroke: red; }
.edge:hover polygon { stroke: red; fill: red; }
]]></style>

<defs>
  <circle id="rim" cx="0" cy="0" r="7"/>
  <circle id="rim2" cx="0" cy="0" r="3.5"/>
  <g id="zoomPlus">
    <use xlink:href="#rim" fill="#404040"><set attributeName="fill" to="#808080" begin="zoomplus.mouseover" end="zoomplus.mouseout"/></use>
    <path d="M-4,0h8M0,-4v8" fill="none" stroke="white" stroke-width="1.5" pointer-events="none"/>
  </g>
  <g id="zoomMin">
    <use xlink:href="#rim" fill="#404040"><set attributeName="fill" to="#808080" begin="zoomminus.mouseover" end="zoomminus.mouseout"/></use>
    <path d="M-4,0h8" fill="none" stroke="white" stroke-width="1.5" pointer-events="none"/>
  </g>
  <g id="arrowUp" transform="translate(30 24)">
    <use xlink:href="#rim"/>
    <path pointer-events="none" fill="none" stroke="white" stroke-width="1.5" d="M0,-3.0v7 M-2.5,-0.5L0,-3.0L2.5,-0.5"/>
  </g>
  <g id="arrowRight" transform="rotate(90) translate(36 -43)">
    <use xlink:href="#rim"/>
    <path pointer-events="none" fill="none" stroke="white" stroke-width="1.5" d="M0,-3.0v7 M-2.5,-0.5L0,-3.0L2.5,-0.5"/>
  </g>
  <g id="arrowDown" transform="rotate(180) translate(-30 -48)">
    <use xlink:href="#rim"/>
    <path pointer-events="none" fill="none" stroke="white" stroke-width="1.5" d="M0,-3.0v7 M-2.5,-0.5L0,-3.0L2.5,-0.5"/>
  </g>
  <g id="arrowLeft" transform="rotate(270) translate(-36 17)">
    <use xlink:href="#rim"/>
    <path pointer-events="none" fill="none" stroke="white" stroke-width="1.5" d="M0,-3.0v7 M-2.5,-0.5L0,-3.0L2.5,-0.5"/>
  </g>
  <g id="resetDef">
    <use xlink:href="#rim2" fill="#404040"><set attributeName="fill" to="#808080" begin="reset.mouseover" end="reset.mouseout"/></use>
  </g>
</defs>
<script type="application/ecmascript">
var viewWidth = 4048;
var viewHeight = 247;
var sectionId = 'dynsection-0';
</script>
<script type="application/ecmascript" xlink:href="svg.min.js"/>
<svg id="graph" class="graph">
<g id="viewport">
<title>squid/src/auth/Config.cc</title>
<!-- Node1 -->
<g id="Node000001" class="node">
<title>Node1</title>
<g id="a_Node000001"><a xlink:title=" ">
<polygon fill="#999999" stroke="#666666" points="3383.5,-239 3251.5,-239 3251.5,-220 3383.5,-220 3383.5,-239"/>
<text text-anchor="middle" x="3317.5" y="-227" font-family="Helvetica,sans-Serif" font-size="10.00">squid/src/auth/Config.cc</text>
</a>
</g>
</g>
<!-- Node2 -->
<g id="Node000002" class="node">
<title>Node2</title>
<g id="a_Node000002"><a xlink:href="squid_8h.html" target="_top" xlink:title=" ">
<polygon fill="white" stroke="#666666" points="2433.5,-184 2381.5,-184 2381.5,-165 2433.5,-165 2433.5,-184"/>
<text text-anchor="middle" x="2407.5" y="-172" font-family="Helvetica,sans-Serif" font-size="10.00">squid.h</text>
</a>
</g>
</g>
<!-- Node1&#45;&gt;Node2 -->
<g id="edge1_Node000001_Node000002" class="edge">
<title>Node1&#45;&gt;Node2</title>
<g id="a_edge1_Node000001_Node000002"><a xlink:title=" ">
<path fill="none" stroke="#63b8ff" d="M3251.32,-224.65C3071.95,-214.2 2580.72,-185.59 2443.52,-177.6"/>
<polygon fill="#63b8ff" stroke="#63b8ff" points="2443.71,-174.1 2433.53,-177.02 2443.31,-181.09 2443.71,-174.1"/>
</a>
</g>
</g>
<!-- Node44 -->
<g id="Node000044" class="node">
<title>Node44</title>
<g id="a_Node000044"><a xlink:href="Tree_8h.html" target="_top" xlink:title=" ">
<polygon fill="white" stroke="#666666" points="3860,-184 3797,-184 3797,-165 3860,-165 3860,-184"/>
<text text-anchor="middle" x="3828.5" y="-172" font-family="Helvetica,sans-Serif" font-size="10.00">acl/Tree.h</text>
</a>
</g>
</g>
<!-- Node1&#45;&gt;Node44 -->
<g id="edge30_Node000001_Node000044" class="edge">
<title>Node1&#45;&gt;Node44</title>
<g id="a_edge30_Node000001_Node000044"><a xlink:title=" ">
<path fill="none" stroke="#63b8ff" d="M3383.52,-221.65C3490.34,-210.57 3698.02,-189.03 3786.72,-179.83"/>
<polygon fill="#63b8ff" stroke="#63b8ff" points="3787.34,-183.29 3796.93,-178.77 3786.62,-176.33 3787.34,-183.29"/>
</a>
</g>
</g>
<!-- Node93 -->
<g id="Node000093" class="node">
<title>Node93</title>
<g id="a_Node000093"><a xlink:href="auth_2Config_8h.html" target="_top" xlink:title=" ">
<polygon fill="white" stroke="#666666" points="3358,-184 3277,-184 3277,-165 3358,-165 3358,-184"/>
<text text-anchor="middle" x="3317.5" y="-172" font-family="Helvetica,sans-Serif" font-size="10.00">auth/Config.h</text>
</a>
</g>
</g>
<!-- Node1&#45;&gt;Node93 -->
<g id="edge46_Node000001_Node000093" class="edge">
<title>Node1&#45;&gt;Node93</title>
<g id="a_edge46_Node000001_Node000093"><a xlink:title=" ">
<path fill="none" stroke="#63b8ff" d="M3317.5,-219.75C3317.5,-212.8 3317.5,-202.85 3317.5,-194.13"/>
<polygon fill="#63b8ff" stroke="#63b8ff" points="3321,-194.09 3317.5,-184.09 3314,-194.09 3321,-194.09"/>
</a>
</g>
</g>
<!-- Node3 -->
<g id="Node000003" class="node">
<title>Node3</title>
<g id="a_Node000003"><a xlink:href="autoconf_8h.html" target="_top" xlink:title=" ">
<polygon fill="white" stroke="#666666" points="2399.5,-129 2331.5,-129 2331.5,-110 2399.5,-110 2399.5,-129"/>
<text text-anchor="middle" x="2365.5" y="-117" font-family="Helvetica,sans-Serif" font-size="10.00">autoconf.h</text>
</a>
</g>
</g>
<!-- Node2&#45;&gt;Node3 -->
<g id="edge2_Node000002_Node000003" class="edge">
<title>Node2&#45;&gt;Node3</title>
<g id="a_edge2_Node000002_Node000003"><a xlink:title=" ">
<path fill="none" stroke="#63b8ff" d="M2400.56,-164.75C2394.63,-157.26 2385.93,-146.28 2378.68,-137.13"/>
<polygon fill="#63b8ff" stroke="#63b8ff" points="2381.26,-134.75 2372.31,-129.09 2375.77,-139.1 2381.26,-134.75"/>
</a>
</g>
</g>
<!-- Node4 -->
<g id="Node000004" class="node">
<title>Node4</title>
<g id="a_Node000004"><a xlink:href="version_8h.html" target="_top" xlink:title=" ">
<polygon fill="white" stroke="#666666" points="2479.5,-129 2417.5,-129 2417.5,-110 2479.5,-110 2479.5,-129"/>
<text text-anchor="middle" x="2448.5" y="-117" font-family="Helvetica,sans-Serif" font-size="10.00">version.h</text>
</a>
</g>
</g>
<!-- Node2&#45;&gt;Node4 -->
<g id="edge3_Node000002_Node000004" class="edge">
<title>Node2&#45;&gt;Node4</title>
<g id="a_edge3_Node000002_Node000004"><a xlink:title=" ">
<path fill="none" stroke="#63b8ff" d="M2414.27,-164.75C2420.06,-157.26 2428.56,-146.28 2435.64,-137.13"/>
<polygon fill="#63b8ff" stroke="#63b8ff" points="2438.51,-139.14 2441.86,-129.09 2432.97,-134.86 2438.51,-139.14"/>
</a>
</g>
</g>
<!-- Node5 -->
<g id="Node000005" class="node">
<title>Node5</title>
<g id="a_Node000005"><a xlink:href="compat_8h.html" target="_top" xlink:title=" ">
<polygon fill="white" stroke="#666666" points="1646.5,-129 1544.5,-129 1544.5,-110 1646.5,-110 1646.5,-129"/>
<text text-anchor="middle" x="1595.5" y="-117" font-family="Helvetica,sans-Serif" font-size="10.00">compat/compat.h</text>
</a>
</g>
</g>
<!-- Node2&#45;&gt;Node5 -->
<g id="edge4_Node000002_Node000005" class="edge">
<title>Node2&#45;&gt;Node5</title>
<g id="a_edge4_Node000002_Node000005"><a xlink:title=" ">
<path fill="none" stroke="#63b8ff" d="M2381.4,-171.8C2268.71,-164.44 1822.1,-135.29 1657.14,-124.52"/>
<polygon fill="#63b8ff" stroke="#63b8ff" points="1656.9,-121 1646.69,-123.84 1656.44,-127.99 1656.9,-121"/>
</a>
</g>
</g>
<!-- Node6 -->
<g id="Node000006" class="node">
<title>Node6</title>
<g id="a_Node000006"><a xlink:href="osdetect_8h.html" target="_top" xlink:title=" ">
<polygon fill="white" stroke="#666666" points="702,-74 595,-74 595,-55 702,-55 702,-74"/>
<text text-anchor="middle" x="648.5" y="-62" font-family="Helvetica,sans-Serif" font-size="10.00">compat/osdetect.h</text>
</a>
</g>
</g>
<!-- Node5&#45;&gt;Node6 -->
<g id="edge5_Node000005_Node000006" class="edge">
<title>Node5&#45;&gt;Node6</title>
<g id="a_edge5_Node000005_Node000006"><a xlink:title=" ">
<path fill="none" stroke="#63b8ff" d="M1544.08,-117.42C1409.36,-114.26 1034.88,-103.41 712.1,-73.96"/>
<polygon fill="#63b8ff" stroke="#63b8ff" points="712.36,-70.47 702.08,-73.04 711.72,-77.44 712.36,-70.47"/>
</a>
</g>
</g>
<!-- Node7 -->
<g id="Node000007" class="node">
<title>Node7</title>
<g id="a_Node000007"><a xlink:href="fdsetsize_8h.html" target="_top" xlink:title=" ">
<polygon fill="white" stroke="#666666" points="830.5,-74 720.5,-74 720.5,-55 830.5,-55 830.5,-74"/>
<text text-anchor="middle" x="775.5" y="-62" font-family="Helvetica,sans-Serif" font-size="10.00">compat/fdsetsize.h</text>
</a>
</g>
</g>
<!-- Node5&#45;&gt;Node7 -->
<g id="edge6_Node000005_Node000007" class="edge">
<title>Node5&#45;&gt;Node7</title>
<g id="a_edge6_Node000005_Node000007"><a xlink:title=" ">
<path fill="none" stroke="#63b8ff" d="M1544.07,-116.77C1423.23,-112.43 1111.61,-99.62 840.65,-74.04"/>
<polygon fill="#63b8ff" stroke="#63b8ff" points="840.92,-70.55 830.63,-73.08 840.25,-77.51 840.92,-70.55"/>
</a>
</g>
</g>
<!-- Node8 -->
<g id="Node000008" class="node">
<title>Node8</title>
<g id="a_Node000008"><a xlink:href="types_8h.html" target="_top" xlink:title=" ">
<polygon fill="#fff0f0" stroke="red" points="940.5,-74 848.5,-74 848.5,-55 940.5,-55 940.5,-74"/>
<text text-anchor="middle" x="894.5" y="-62" font-family="Helvetica,sans-Serif" font-size="10.00">compat/types.h</text>
</a>
</g>
</g>
<!-- Node5&#45;&gt;Node8 -->
<g id="edge7_Node000005_Node000008" class="edge">
<title>Node5&#45;&gt;Node8</title>
<g id="a_edge7_Node000005_Node000008"><a xlink:title=" ">
<path fill="none" stroke="#63b8ff" d="M1544.28,-116.45C1436.44,-111.8 1177.88,-98.99 950.78,-74.05"/>
<polygon fill="#63b8ff" stroke="#63b8ff" points="951,-70.55 940.68,-72.93 950.23,-77.51 951,-70.55"/>
</a>
</g>
</g>
<!-- Node10 -->
<g id="Node000010" class="node">
<title>Node10</title>
<g id="a_Node000010"><a xlink:href="aix_8h.html" target="_top" xlink:title=" ">
<polygon fill="white" stroke="#666666" points="1054,-74 959,-74 959,-55 1054,-55 1054,-74"/>
<text text-anchor="middle" x="1006.5" y="-62" font-family="Helvetica,sans-Serif" font-size="10.00">compat/os/aix.h</text>
</a>
</g>
</g>
<!-- Node5&#45;&gt;Node10 -->
<g id="edge8_Node000005_Node000010" class="edge">
<title>Node5&#45;&gt;Node10</title>
<g id="a_edge8_Node000005_Node000010"><a xlink:title=" ">
<path fill="none" stroke="#63b8ff" d="M1544.41,-115.33C1451.2,-109.3 1247.12,-95 1064.13,-73.99"/>
<polygon fill="#63b8ff" stroke="#63b8ff" points="1064.39,-70.5 1054.06,-72.83 1063.59,-77.45 1064.39,-70.5"/>
</a>
</g>
</g>
<!-- Node11 -->
<g id="Node000011" class="node">
<title>Node11</title>
<g id="a_Node000011"><a xlink:href="android_8h.html" target="_top" xlink:title=" ">
<polygon fill="white" stroke="#666666" points="1188.5,-74 1072.5,-74 1072.5,-55 1188.5,-55 1188.5,-74"/>
<text text-anchor="middle" x="1130.5" y="-62" font-family="Helvetica,sans-Serif" font-size="10.00">compat/os/android.h</text>
</a>
</g>
</g>
<!-- Node5&#45;&gt;Node11 -->
<g id="edge9_Node000005_Node000011" class="edge">
<title>Node5&#45;&gt;Node11</title>
<g id="a_edge9_Node000005_Node000011"><a xlink:title=" ">
<path fill="none" stroke="#63b8ff" d="M1544.27,-113.02C1470.38,-105.06 1329.34,-89.66 1198.78,-74.14"/>
<polygon fill="#63b8ff" stroke="#63b8ff" points="1198.94,-70.63 1188.6,-72.92 1198.11,-77.58 1198.94,-70.63"/>
</a>
</g>
</g>
<!-- Node12 -->
<g id="Node000012" class="node">
<title>Node12</title>
<g id="a_Node000012"><a xlink:href="dragonfly_8h.html" target="_top" xlink:title=" ">
<polygon fill="white" stroke="#666666" points="1330.5,-74 1206.5,-74 1206.5,-55 1330.5,-55 1330.5,-74"/>
<text text-anchor="middle" x="1268.5" y="-62" font-family="Helvetica,sans-Serif" font-size="10.00">compat/os/dragonfly.h</text>
</a>
</g>
</g>
<!-- Node5&#45;&gt;Node12 -->
<g id="edge10_Node000005_Node000012" class="edge">
<title>Node5&#45;&gt;Node12</title>
<g id="a_edge10_Node000005_Node000012"><a xlink:title=" ">
<path fill="none" stroke="#63b8ff" d="M1544.41,-110.22C1486.81,-100.88 1393.14,-85.7 1331.17,-75.66"/>
<polygon fill="#63b8ff" stroke="#63b8ff" points="1331.56,-72.18 1321.13,-74.03 1330.44,-79.08 1331.56,-72.18"/>
</a>
</g>
</g>
<!-- Node13 -->
<g id="Node000013" class="node">
<title>Node13</title>
<g id="a_Node000013"><a xlink:href="freebsd_8h.html" target="_top" xlink:title=" ">
<polygon fill="white" stroke="#666666" points="1464.5,-74 1348.5,-74 1348.5,-55 1464.5,-55 1464.5,-74"/>
<text text-anchor="middle" x="1406.5" y="-62" font-family="Helvetica,sans-Serif" font-size="10.00">compat/os/freebsd.h</text>
</a>
</g>
</g>
<!-- Node5&#45;&gt;Node13 -->
<g id="edge11_Node000005_Node000013" class="edge">
<title>Node5&#45;&gt;Node13</title>
<g id="a_edge11_Node000005_Node000013"><a xlink:title=" ">
<path fill="none" stroke="#63b8ff" d="M1565.13,-109.98C1533.13,-101.01 1482.54,-86.82 1447.12,-76.89"/>
<polygon fill="#63b8ff" stroke="#63b8ff" points="1447.68,-73.41 1437.1,-74.08 1445.79,-80.15 1447.68,-73.41"/>
</a>
</g>
</g>
<!-- Node14 -->
<g id="Node000014" class="node">
<title>Node14</title>
<g id="a_Node000014"><a xlink:href="hpux_8h.html" target="_top" xlink:title=" ">
<polygon fill="white" stroke="#666666" points="1586.5,-74 1482.5,-74 1482.5,-55 1586.5,-55 1586.5,-74"/>
<text text-anchor="middle" x="1534.5" y="-62" font-family="Helvetica,sans-Serif" font-size="10.00">compat/os/hpux.h</text>
</a>
</g>
</g>
<!-- Node5&#45;&gt;Node14 -->
<g id="edge12_Node000005_Node000014" class="edge">
<title>Node5&#45;&gt;Node14</title>
<g id="a_edge12_Node000005_Node000014"><a xlink:title=" ">
<path fill="none" stroke="#63b8ff" d="M1585.7,-109.98C1576.68,-102.15 1563.09,-90.34 1552.18,-80.86"/>
<polygon fill="#63b8ff" stroke="#63b8ff" points="1554.32,-78.09 1544.48,-74.17 1549.73,-83.37 1554.32,-78.09"/>
</a>
</g>
</g>
<!-- Node15 -->
<g id="Node000015" class="node">
<title>Node15</title>
<g id="a_Node000015"><a xlink:href="linux_8h.html" target="_top" xlink:title=" ">
<polygon fill="white" stroke="#666666" points="1708.5,-74 1604.5,-74 1604.5,-55 1708.5,-55 1708.5,-74"/>
<text text-anchor="middle" x="1656.5" y="-62" font-family="Helvetica,sans-Serif" font-size="10.00">compat/os/linux.h</text>
</a>
</g>
</g>
<!-- Node5&#45;&gt;Node15 -->
<g id="edge13_Node000005_Node000015" class="edge">
<title>Node5&#45;&gt;Node15</title>
<g id="a_edge13_Node000005_Node000015"><a xlink:title=" ">
<path fill="none" stroke="#63b8ff" d="M1605.3,-109.98C1614.32,-102.15 1627.91,-90.34 1638.82,-80.86"/>
<polygon fill="#63b8ff" stroke="#63b8ff" points="1641.27,-83.37 1646.52,-74.17 1636.68,-78.09 1641.27,-83.37"/>
</a>
</g>
</g>
<!-- Node16 -->
<g id="Node000016" class="node">
<title>Node16</title>
<g id="a_Node000016"><a xlink:href="macosx_8h.html" target="_top" xlink:title=" ">
<polygon fill="white" stroke="#666666" points="1844.5,-74 1726.5,-74 1726.5,-55 1844.5,-55 1844.5,-74"/>
<text text-anchor="middle" x="1785.5" y="-62" font-family="Helvetica,sans-Serif" font-size="10.00">compat/os/macosx.h</text>
</a>
</g>
</g>
<!-- Node5&#45;&gt;Node16 -->
<g id="edge14_Node000005_Node000016" class="edge">
<title>Node5&#45;&gt;Node16</title>
<g id="a_edge14_Node000005_Node000016"><a xlink:title=" ">
<path fill="none" stroke="#63b8ff" d="M1626.03,-109.98C1658.2,-101.01 1709.06,-86.82 1744.67,-76.89"/>
<polygon fill="#63b8ff" stroke="#63b8ff" points="1746.04,-80.14 1754.73,-74.08 1744.16,-73.4 1746.04,-80.14"/>
</a>
</g>
</g>
<!-- Node17 -->
<g id="Node000017" class="node">
<title>Node17</title>
<g id="a_Node000017"><a xlink:href="mingw_8h.html" target="_top" xlink:title=" ">
<polygon fill="white" stroke="#666666" points="1974.5,-74 1862.5,-74 1862.5,-55 1974.5,-55 1974.5,-74"/>
<text text-anchor="middle" x="1918.5" y="-62" font-family="Helvetica,sans-Serif" font-size="10.00">compat/os/mingw.h</text>
</a>
</g>
</g>
<!-- Node5&#45;&gt;Node17 -->
<g id="edge15_Node000005_Node000017" class="edge">
<title>Node5&#45;&gt;Node17</title>
<g id="a_edge15_Node000005_Node000017"><a xlink:title=" ">
<path fill="none" stroke="#63b8ff" d="M1646.68,-110.1C1703.63,-100.76 1795.65,-85.66 1856.61,-75.66"/>
<polygon fill="#63b8ff" stroke="#63b8ff" points="1857.19,-79.11 1866.49,-74.03 1856.05,-72.2 1857.19,-79.11"/>
</a>
</g>
</g>
<!-- Node18 -->
<g id="Node000018" class="node">
<title>Node18</title>
<g id="a_Node000018"><a xlink:href="mswindows_8h.html" target="_top" xlink:title=" ">
<polygon fill="white" stroke="#666666" points="2130,-74 1993,-74 1993,-55 2130,-55 2130,-74"/>
<text text-anchor="middle" x="2061.5" y="-62" font-family="Helvetica,sans-Serif" font-size="10.00">compat/os/mswindows.h</text>
</a>
</g>
</g>
<!-- Node5&#45;&gt;Node18 -->
<g id="edge16_Node000005_Node000018" class="edge">
<title>Node5&#45;&gt;Node18</title>
<g id="a_edge16_Node000005_Node000018"><a xlink:title=" ">
<path fill="none" stroke="#63b8ff" d="M1646.7,-112.68C1727.91,-103.44 1886.85,-85.36 1982.67,-74.47"/>
<polygon fill="#63b8ff" stroke="#63b8ff" points="1983.34,-77.91 1992.88,-73.3 1982.55,-70.96 1983.34,-77.91"/>
</a>
</g>
</g>
<!-- Node19 -->
<g id="Node000019" class="node">
<title>Node19</title>
<g id="a_Node000019"><a xlink:href="netbsd_8h.html" target="_top" xlink:title=" ">
<polygon fill="white" stroke="#666666" points="2261,-74 2148,-74 2148,-55 2261,-55 2261,-74"/>
<text text-anchor="middle" x="2204.5" y="-62" font-family="Helvetica,sans-Serif" font-size="10.00">compat/os/netbsd.h</text>
</a>
</g>
</g>
<!-- Node5&#45;&gt;Node19 -->
<g id="edge17_Node000005_Node000019" class="edge">
<title>Node5&#45;&gt;Node19</title>
<g id="a_edge17_Node000005_Node000019"><a xlink:title=" ">
<path fill="none" stroke="#63b8ff" d="M1646.86,-115.09C1741.62,-108.62 1950.61,-93.54 2137.96,-74"/>
<polygon fill="#63b8ff" stroke="#63b8ff" points="2138.41,-77.48 2147.99,-72.95 2137.68,-70.51 2138.41,-77.48"/>
</a>
</g>
</g>
<!-- Node20 -->
<g id="Node000020" class="node">
<title>Node20</title>
<g id="a_Node000020"><a xlink:href="openbsd_8h.html" target="_top" xlink:title=" ">
<polygon fill="white" stroke="#666666" points="2400,-74 2279,-74 2279,-55 2400,-55 2400,-74"/>
<text text-anchor="middle" x="2339.5" y="-62" font-family="Helvetica,sans-Serif" font-size="10.00">compat/os/openbsd.h</text>
</a>
</g>
</g>
<!-- Node5&#45;&gt;Node20 -->
<g id="edge18_Node000005_Node000020" class="edge">
<title>Node5&#45;&gt;Node20</title>
<g id="a_edge18_Node000005_Node000020"><a xlink:title=" ">
<path fill="none" stroke="#63b8ff" d="M1646.73,-116.08C1757.86,-110.62 2029.6,-96.15 2268.54,-74.03"/>
<polygon fill="#63b8ff" stroke="#63b8ff" points="2269.18,-77.49 2278.82,-73.08 2268.53,-70.52 2269.18,-77.49"/>
</a>
</g>
</g>
<!-- Node21 -->
<g id="Node000021" class="node">
<title>Node21</title>
<g id="a_Node000021"><a xlink:href="os2_8h.html" target="_top" xlink:title=" ">
<polygon fill="white" stroke="#666666" points="2515,-74 2418,-74 2418,-55 2515,-55 2515,-74"/>
<text text-anchor="middle" x="2466.5" y="-62" font-family="Helvetica,sans-Serif" font-size="10.00">compat/os/os2.h</text>
</a>
</g>
</g>
<!-- Node5&#45;&gt;Node21 -->
<g id="edge19_Node000005_Node000021" class="edge">
<title>Node5&#45;&gt;Node21</title>
<g id="a_edge19_Node000005_Node000021"><a xlink:title=" ">
<path fill="none" stroke="#63b8ff" d="M1646.52,-117.32C1773.38,-114.03 2113.47,-103.1 2407.79,-73.96"/>
<polygon fill="#63b8ff" stroke="#63b8ff" points="2408.2,-77.44 2417.81,-72.96 2407.51,-70.48 2408.2,-77.44"/>
</a>
</g>
</g>
<!-- Node22 -->
<g id="Node000022" class="node">
<title>Node22</title>
<g id="a_Node000022"><a xlink:href="qnx_8h.html" target="_top" xlink:title=" ">
<polygon fill="white" stroke="#666666" points="2631.5,-74 2533.5,-74 2533.5,-55 2631.5,-55 2631.5,-74"/>
<text text-anchor="middle" x="2582.5" y="-62" font-family="Helvetica,sans-Serif" font-size="10.00">compat/os/qnx.h</text>
</a>
</g>
</g>
<!-- Node5&#45;&gt;Node22 -->
<g id="edge20_Node000005_Node000022" class="edge">
<title>Node5&#45;&gt;Node22</title>
<g id="a_edge20_Node000005_Node000022"><a xlink:title=" ">
<path fill="none" stroke="#63b8ff" d="M1646.68,-117.75C1785.72,-115.36 2182.29,-106.12 2523.22,-73.91"/>
<polygon fill="#63b8ff" stroke="#63b8ff" points="2523.66,-77.38 2533.29,-72.95 2523,-70.41 2523.66,-77.38"/>
</a>
</g>
</g>
<!-- Node23 -->
<g id="Node000023" class="node">
<title>Node23</title>
<g id="a_Node000023"><a xlink:href="solaris_8h.html" target="_top" xlink:title=" ">
<polygon fill="white" stroke="#666666" points="2761.5,-74 2649.5,-74 2649.5,-55 2761.5,-55 2761.5,-74"/>
<text text-anchor="middle" x="2705.5" y="-62" font-family="Helvetica,sans-Serif" font-size="10.00">compat/os/solaris.h</text>
</a>
</g>
</g>
<!-- Node5&#45;&gt;Node23 -->
<g id="edge21_Node000005_Node000023" class="edge">
<title>Node5&#45;&gt;Node23</title>
<g id="a_edge21_Node000005_Node000023"><a xlink:title=" ">
<path fill="none" stroke="#63b8ff" d="M1646.71,-117.9C1797.29,-115.82 2251.82,-107.1 2639.16,-74.03"/>
<polygon fill="#63b8ff" stroke="#63b8ff" points="2639.5,-77.52 2649.16,-73.17 2638.9,-70.54 2639.5,-77.52"/>
</a>
</g>
</g>
<!-- Node24 -->
<g id="Node000024" class="node">
<title>Node24</title>
<g id="a_Node000024"><a xlink:href="sunos_8h.html" target="_top" xlink:title=" ">
<polygon fill="white" stroke="#666666" points="2887.5,-74 2779.5,-74 2779.5,-55 2887.5,-55 2887.5,-74"/>
<text text-anchor="middle" x="2833.5" y="-62" font-family="Helvetica,sans-Serif" font-size="10.00">compat/os/sunos.h</text>
</a>
</g>
</g>
<!-- Node5&#45;&gt;Node24 -->
<g id="edge22_Node000005_Node000024" class="edge">
<title>Node5&#45;&gt;Node24</title>
<g id="a_edge22_Node000005_Node000024"><a xlink:title=" ">
<path fill="none" stroke="#63b8ff" d="M1646.57,-118.32C1809.07,-117.37 2328.83,-111.47 2769.18,-74.02"/>
<polygon fill="#63b8ff" stroke="#63b8ff" points="2769.58,-77.5 2779.24,-73.16 2768.98,-70.53 2769.58,-77.5"/>
</a>
</g>
</g>
<!-- Node25 -->
<g id="Node000025" class="node">
<title>Node25</title>
<g id="a_Node000025"><a xlink:href="assert_8h.html" target="_top" xlink:title=" ">
<polygon fill="white" stroke="#666666" points="3001,-74 2906,-74 2906,-55 3001,-55 3001,-74"/>
<text text-anchor="middle" x="2953.5" y="-62" font-family="Helvetica,sans-Serif" font-size="10.00">compat/assert.h</text>
</a>
</g>
</g>
<!-- Node5&#45;&gt;Node25 -->
<g id="edge23_Node000005_Node000025" class="edge">
<title>Node5&#45;&gt;Node25</title>
<g id="a_edge23_Node000005_Node000025"><a xlink:title=" ">
<path fill="none" stroke="#63b8ff" d="M1646.77,-118.84C1820.61,-119.55 2403.72,-118.3 2895.81,-73.92"/>
<polygon fill="#63b8ff" stroke="#63b8ff" points="2896.32,-77.39 2905.96,-73 2895.69,-70.42 2896.32,-77.39"/>
</a>
</g>
</g>
<!-- Node26 -->
<g id="Node000026" class="node">
<title>Node26</title>
<g id="a_Node000026"><a xlink:href="compat__shared_8h.html" target="_top" xlink:title=" ">
<polygon fill="#fff0f0" stroke="red" points="3159.5,-74 3019.5,-74 3019.5,-55 3159.5,-55 3159.5,-74"/>
<text text-anchor="middle" x="3089.5" y="-62" font-family="Helvetica,sans-Serif" font-size="10.00">compat/compat_shared.h</text>
</a>
</g>
</g>
<!-- Node5&#45;&gt;Node26 -->
<g id="edge24_Node000005_Node000026" class="edge">
<title>Node5&#45;&gt;Node26</title>
<g id="a_edge24_Node000005_Node000026"><a xlink:title=" ">
<path fill="none" stroke="#63b8ff" d="M1646.61,-118.26C1829.59,-117.13 2469.29,-110.67 3008.96,-73.97"/>
<polygon fill="#63b8ff" stroke="#63b8ff" points="3009.55,-77.43 3019.29,-73.26 3009.07,-70.45 3009.55,-77.43"/>
</a>
</g>
</g>
<!-- Node36 -->
<g id="Node000036" class="node">
<title>Node36</title>
<g id="a_Node000036"><a xlink:href="stdvarargs_8h.html" target="_top" xlink:title=" ">
<polygon fill="#fff0f0" stroke="red" points="117,-74 0,-74 0,-55 117,-55 117,-74"/>
<text text-anchor="middle" x="58.5" y="-62" font-family="Helvetica,sans-Serif" font-size="10.00">compat/stdvarargs.h</text>
</a>
</g>
</g>
<!-- Node5&#45;&gt;Node36 -->
<g id="edge25_Node000005_Node000036" class="edge">
<title>Node5&#45;&gt;Node36</title>
<g id="a_edge25_Node000005_Node000036"><a xlink:title=" ">
<path fill="none" stroke="#63b8ff" d="M1544.3,-118.73C1356.6,-119.18 688.31,-117.49 127.61,-74.09"/>
<polygon fill="#63b8ff" stroke="#63b8ff" points="127.54,-70.57 117.29,-73.28 126.99,-77.55 127.54,-70.57"/>
</a>
</g>
</g>
<!-- Node38 -->
<g id="Node000038" class="node">
<title>Node38</title>
<g id="a_Node000038"><a xlink:href="stdio_8h.html" target="_top" xlink:title=" ">
<polygon fill="#fff0f0" stroke="red" points="224,-74 135,-74 135,-55 224,-55 224,-74"/>
<text text-anchor="middle" x="179.5" y="-62" font-family="Helvetica,sans-Serif" font-size="10.00">compat/stdio.h</text>
</a>
</g>
</g>
<!-- Node5&#45;&gt;Node38 -->
<g id="edge26_Node000005_Node000038" class="edge">
<title>Node5&#45;&gt;Node38</title>
<g id="a_edge26_Node000005_Node000038"><a xlink:title=" ">
<path fill="none" stroke="#63b8ff" d="M1544.33,-117.7C1331.49,-114.22 514.67,-99.54 234.41,-74.04"/>
<polygon fill="#63b8ff" stroke="#63b8ff" points="234.55,-70.54 224.27,-73.09 233.9,-77.51 234.55,-70.54"/>
</a>
</g>
</g>
<!-- Node40 -->
<g id="Node000040" class="node">
<title>Node40</title>
<g id="a_Node000040"><a xlink:href="statvfs_8h.html" target="_top" xlink:title=" ">
<polygon fill="white" stroke="#666666" points="341,-74 242,-74 242,-55 341,-55 341,-74"/>
<text text-anchor="middle" x="291.5" y="-62" font-family="Helvetica,sans-Serif" font-size="10.00">compat/statvfs.h</text>
</a>
</g>
</g>
<!-- Node5&#45;&gt;Node40 -->
<g id="edge27_Node000005_Node000040" class="edge">
<title>Node5&#45;&gt;Node40</title>
<g id="a_edge27_Node000005_Node000040"><a xlink:title=" ">
<path fill="none" stroke="#63b8ff" d="M1544.34,-118.68C1375.39,-118.86 819.84,-116.05 351.14,-74.04"/>
<polygon fill="#63b8ff" stroke="#63b8ff" points="351.41,-70.55 341.13,-73.14 350.78,-77.53 351.41,-70.55"/>
</a>
</g>
</g>
<!-- Node41 -->
<g id="Node000041" class="node">
<title>Node41</title>
<g id="a_Node000041"><a xlink:href="debug_8h.html" target="_top" xlink:title=" ">
<polygon fill="white" stroke="#666666" points="454,-74 359,-74 359,-55 454,-55 454,-74"/>
<text text-anchor="middle" x="406.5" y="-62" font-family="Helvetica,sans-Serif" font-size="10.00">compat/debug.h</text>
</a>
</g>
</g>
<!-- Node5&#45;&gt;Node41 -->
<g id="edge28_Node000005_Node000041" class="edge">
<title>Node5&#45;&gt;Node41</title>
<g id="a_edge28_Node000005_Node000041"><a xlink:title=" ">
<path fill="none" stroke="#63b8ff" d="M1544.27,-118.52C1385.35,-118.14 886.56,-113.7 464.08,-74.04"/>
<polygon fill="#63b8ff" stroke="#63b8ff" points="464.4,-70.55 454.11,-73.1 463.74,-77.52 464.4,-70.55"/>
</a>
</g>
</g>
<!-- Node42 -->
<g id="Node000042" class="node">
<title>Node42</title>
<g id="a_Node000042"><a xlink:href="valgrind_8h.html" target="_top" xlink:title=" ">
<polygon fill="#fff0f0" stroke="red" points="577,-74 472,-74 472,-55 577,-55 577,-74"/>
<text text-anchor="middle" x="524.5" y="-62" font-family="Helvetica,sans-Serif" font-size="10.00">compat/valgrind.h</text>
</a>
</g>
</g>
<!-- Node5&#45;&gt;Node42 -->
<g id="edge29_Node000005_Node000042" class="edge">
<title>Node5&#45;&gt;Node42</title>
<g id="a_edge29_Node000005_Node000042"><a xlink:title=" ">
<path fill="none" stroke="#63b8ff" d="M1544.41,-117.95C1397.33,-116.01 960.11,-107.7 587.22,-74.07"/>
<polygon fill="#63b8ff" stroke="#63b8ff" points="587.31,-70.56 577.04,-73.14 586.68,-77.53 587.31,-70.56"/>
</a>
</g>
</g>
<!-- Node45 -->
<g id="Node000045" class="node">
<title>Node45</title>
<g id="a_Node000045"><a xlink:href="acl_2Acl_8h.html" target="_top" xlink:title=" ">
<polygon fill="white" stroke="#666666" points="3659.5,-129 3601.5,-129 3601.5,-110 3659.5,-110 3659.5,-129"/>
<text text-anchor="middle" x="3630.5" y="-117" font-family="Helvetica,sans-Serif" font-size="10.00">acl/Acl.h</text>
</a>
</g>
</g>
<!-- Node44&#45;&gt;Node45 -->
<g id="edge31_Node000044_Node000045" class="edge">
<title>Node44&#45;&gt;Node45</title>
<g id="a_edge31_Node000044_Node000045"><a xlink:title=" ">
<path fill="none" stroke="#63b8ff" d="M3796.69,-164.98C3762.11,-155.73 3706.84,-140.94 3669.64,-130.98"/>
<polygon fill="#63b8ff" stroke="#63b8ff" points="3670.22,-127.51 3659.65,-128.3 3668.41,-134.27 3670.22,-127.51"/>
</a>
</g>
</g>
<!-- Node86 -->
<g id="Node000086" class="node">
<title>Node86</title>
<g id="a_Node000086"><a xlink:href="BoolOps_8h.html" target="_top" xlink:title=" ">
<polygon fill="white" stroke="#666666" points="3963,-129 3880,-129 3880,-110 3963,-110 3963,-129"/>
<text text-anchor="middle" x="3921.5" y="-117" font-family="Helvetica,sans-Serif" font-size="10.00">acl/BoolOps.h</text>
</a>
</g>
</g>
<!-- Node44&#45;&gt;Node86 -->
<g id="edge40_Node000044_Node000086" class="edge">
<title>Node44&#45;&gt;Node86</title>
<g id="a_edge40_Node000044_Node000086"><a xlink:title=" ">
<path fill="none" stroke="#63b8ff" d="M3843.44,-164.98C3858,-156.69 3880.37,-143.94 3897.43,-134.22"/>
<polygon fill="#63b8ff" stroke="#63b8ff" points="3899.33,-137.16 3906.29,-129.17 3895.86,-131.08 3899.33,-137.16"/>
</a>
</g>
</g>
<!-- Node91 -->
<g id="Node000091" class="node">
<title>Node91</title>
<g id="a_Node000091"><a xlink:href="cbdata_8h.html" target="_top" xlink:title=" ">
<polygon fill="white" stroke="#666666" points="4040,-129 3981,-129 3981,-110 4040,-110 4040,-129"/>
<text text-anchor="middle" x="4010.5" y="-117" font-family="Helvetica,sans-Serif" font-size="10.00">cbdata.h</text>
</a>
</g>
</g>
<!-- Node44&#45;&gt;Node91 -->
<g id="edge42_Node000044_Node000091" class="edge">
<title>Node44&#45;&gt;Node91</title>
<g id="a_edge42_Node000044_Node000091"><a xlink:title=" ">
<path fill="none" stroke="#63b8ff" d="M3857.74,-164.98C3888.56,-156.01 3937.28,-141.82 3971.39,-131.89"/>
<polygon fill="#63b8ff" stroke="#63b8ff" points="3972.41,-135.24 3981.03,-129.08 3970.45,-128.52 3972.41,-135.24"/>
</a>
</g>
</g>
<!-- Node92 -->
<g id="Node000092" class="node">
<title>Node92</title>
<g id="a_Node000092"><a xlink:href="List_8h.html" target="_top" xlink:title=" ">
<polygon fill="white" stroke="#666666" points="3862,-129 3795,-129 3795,-110 3862,-110 3862,-129"/>
<text text-anchor="middle" x="3828.5" y="-117" font-family="Helvetica,sans-Serif" font-size="10.00">sbuf/List.h</text>
</a>
</g>
</g>
<!-- Node44&#45;&gt;Node92 -->
<g id="edge43_Node000044_Node000092" class="edge">
<title>Node44&#45;&gt;Node92</title>
<g id="a_edge43_Node000044_Node000092"><a xlink:title=" ">
<path fill="none" stroke="#63b8ff" d="M3828.5,-164.75C3828.5,-157.8 3828.5,-147.85 3828.5,-139.13"/>
<polygon fill="#63b8ff" stroke="#63b8ff" points="3832,-139.09 3828.5,-129.09 3825,-139.09 3832,-139.09"/>
</a>
</g>
</g>
<!-- Node46 -->
<g id="Node000046" class="node">
<title>Node46</title>
<g id="a_Node000046"><a xlink:href="acl_2forward_8h.html" target="_top" xlink:title=" ">
<polygon fill="white" stroke="#666666" points="3395.5,-74 3315.5,-74 3315.5,-55 3395.5,-55 3395.5,-74"/>
<text text-anchor="middle" x="3355.5" y="-62" font-family="Helvetica,sans-Serif" font-size="10.00">acl/forward.h</text>
</a>
</g>
</g>
<!-- Node45&#45;&gt;Node46 -->
<g id="edge32_Node000045_Node000046" class="edge">
<title>Node45&#45;&gt;Node46</title>
<g id="a_edge32_Node000045_Node000046"><a xlink:title=" ">
<path fill="none" stroke="#63b8ff" d="M3601.33,-112.88C3554.78,-103.91 3463.1,-86.24 3405.81,-75.2"/>
<polygon fill="#63b8ff" stroke="#63b8ff" points="3406.36,-71.74 3395.88,-73.28 3405.04,-78.61 3406.36,-71.74"/>
</a>
</g>
</g>
<!-- Node51 -->
<g id="Node000051" class="node">
<title>Node51</title>
<g id="a_Node000051"><a xlink:href="defines_8h.html" target="_top" xlink:title=" ">
<polygon fill="white" stroke="#666666" points="3550,-74 3489,-74 3489,-55 3550,-55 3550,-74"/>
<text text-anchor="middle" x="3519.5" y="-62" font-family="Helvetica,sans-Serif" font-size="10.00">defines.h</text>
</a>
</g>
</g>
<!-- Node45&#45;&gt;Node51 -->
<g id="edge34_Node000045_Node000051" class="edge">
<title>Node45&#45;&gt;Node51</title>
<g id="a_edge34_Node000045_Node000051"><a xlink:title=" ">
<path fill="none" stroke="#63b8ff" d="M3612.67,-109.98C3594.89,-101.5 3567.35,-88.35 3546.82,-78.54"/>
<polygon fill="#63b8ff" stroke="#63b8ff" points="3548.19,-75.32 3537.66,-74.17 3545.17,-81.64 3548.19,-75.32"/>
</a>
</g>
</g>
<!-- Node52 -->
<g id="Node000052" class="node">
<title>Node52</title>
<g id="a_Node000052"><a xlink:href="dlink_8h.html" target="_top" xlink:title=" ">
<polygon fill="#fff0f0" stroke="red" points="3618.5,-74 3568.5,-74 3568.5,-55 3618.5,-55 3618.5,-74"/>
<text text-anchor="middle" x="3593.5" y="-62" font-family="Helvetica,sans-Serif" font-size="10.00">dlink.h</text>
</a>
</g>
</g>
<!-- Node45&#45;&gt;Node52 -->
<g id="edge35_Node000045_Node000052" class="edge">
<title>Node45&#45;&gt;Node52</title>
<g id="a_edge35_Node000045_Node000052"><a xlink:title=" ">
<path fill="none" stroke="#63b8ff" d="M3624.39,-109.75C3619.22,-102.34 3611.65,-91.5 3605.31,-82.41"/>
<polygon fill="#63b8ff" stroke="#63b8ff" points="3608.09,-80.29 3599.5,-74.09 3602.35,-84.29 3608.09,-80.29"/>
</a>
</g>
</g>
<!-- Node56 -->
<g id="Node000056" class="node">
<title>Node56</title>
<g id="a_Node000056"><a xlink:href="SBuf_8h.html" target="_top" xlink:title=" ">
<polygon fill="#fff0f0" stroke="red" points="3864,-74 3793,-74 3793,-55 3864,-55 3864,-74"/>
<text text-anchor="middle" x="3828.5" y="-62" font-family="Helvetica,sans-Serif" font-size="10.00">sbuf/SBuf.h</text>
</a>
</g>
</g>
<!-- Node45&#45;&gt;Node56 -->
<g id="edge36_Node000045_Node000056" class="edge">
<title>Node45&#45;&gt;Node56</title>
<g id="a_edge36_Node000045_Node000056"><a xlink:title=" ">
<path fill="none" stroke="#63b8ff" d="M3659.72,-110.68C3693.29,-101.69 3748.65,-86.87 3786.76,-76.67"/>
<polygon fill="#63b8ff" stroke="#63b8ff" points="3787.78,-80.02 3796.54,-74.06 3785.97,-73.26 3787.78,-80.02"/>
</a>
</g>
</g>
<!-- Node83 -->
<g id="Node000083" class="node">
<title>Node83</title>
<g id="a_Node000083"><a xlink:title=" ">
<polygon fill="#e0e0e0" stroke="#999999" points="3700.5,-74 3636.5,-74 3636.5,-55 3700.5,-55 3700.5,-74"/>
<text text-anchor="middle" x="3668.5" y="-62" font-family="Helvetica,sans-Serif" font-size="10.00">algorithm</text>
</a>
</g>
</g>
<!-- Node45&#45;&gt;Node83 -->
<g id="edge37_Node000045_Node000083" class="edge">
<title>Node45&#45;&gt;Node83</title>
<g id="a_edge37_Node000045_Node000083"><a xlink:title=" ">
<path fill="none" stroke="#63b8ff" d="M3636.77,-109.75C3642.09,-102.34 3649.86,-91.5 3656.38,-82.41"/>
<polygon fill="#63b8ff" stroke="#63b8ff" points="3659.36,-84.26 3662.34,-74.09 3653.67,-80.18 3659.36,-84.26"/>
</a>
</g>
</g>
<!-- Node84 -->
<g id="Node000084" class="node">
<title>Node84</title>
<g id="a_Node000084"><a xlink:title=" ">
<polygon fill="#e0e0e0" stroke="#999999" points="3774.5,-74 3718.5,-74 3718.5,-55 3774.5,-55 3774.5,-74"/>
<text text-anchor="middle" x="3746.5" y="-62" font-family="Helvetica,sans-Serif" font-size="10.00">optional</text>
</a>
</g>
</g>
<!-- Node45&#45;&gt;Node84 -->
<g id="edge38_Node000045_Node000084" class="edge">
<title>Node45&#45;&gt;Node84</title>
<g id="a_edge38_Node000045_Node000084"><a xlink:title=" ">
<path fill="none" stroke="#63b8ff" d="M3649.14,-109.98C3667.8,-101.46 3696.75,-88.23 3718.24,-78.41"/>
<polygon fill="#63b8ff" stroke="#63b8ff" points="3719.88,-81.51 3727.52,-74.17 3716.97,-75.14 3719.88,-81.51"/>
</a>
</g>
</g>
<!-- Node85 -->
<g id="Node000085" class="node">
<title>Node85</title>
<g id="a_Node000085"><a xlink:title=" ">
<polygon fill="#e0e0e0" stroke="#999999" points="3471,-74 3414,-74 3414,-55 3471,-55 3471,-74"/>
<text text-anchor="middle" x="3442.5" y="-62" font-family="Helvetica,sans-Serif" font-size="10.00">ostream</text>
</a>
</g>
</g>
<!-- Node45&#45;&gt;Node85 -->
<g id="edge39_Node000045_Node000085" class="edge">
<title>Node45&#45;&gt;Node85</title>
<g id="a_edge39_Node000045_Node000085"><a xlink:title=" ">
<path fill="none" stroke="#63b8ff" d="M3601.12,-110.22C3568.79,-101.1 3516.69,-86.41 3481.08,-76.38"/>
<polygon fill="#63b8ff" stroke="#63b8ff" points="3481.63,-72.89 3471.05,-73.55 3479.73,-79.63 3481.63,-72.89"/>
</a>
</g>
</g>
<!-- Node47 -->
<g id="Node000047" class="node">
<title>Node47</title>
<g id="a_Node000047"><a xlink:href="RefCount_8h.html" target="_top" xlink:title=" ">
<polygon fill="#fff0f0" stroke="red" points="3404,-19 3307,-19 3307,0 3404,0 3404,-19"/>
<text text-anchor="middle" x="3355.5" y="-7" font-family="Helvetica,sans-Serif" font-size="10.00">base/RefCount.h</text>
</a>
</g>
</g>
<!-- Node46&#45;&gt;Node47 -->
<g id="edge33_Node000046_Node000047" class="edge">
<title>Node46&#45;&gt;Node47</title>
<g id="a_edge33_Node000046_Node000047"><a xlink:title=" ">
<path fill="none" stroke="#63b8ff" d="M3355.5,-54.75C3355.5,-47.8 3355.5,-37.85 3355.5,-29.13"/>
<polygon fill="#63b8ff" stroke="#63b8ff" points="3359,-29.09 3355.5,-19.09 3352,-29.09 3359,-29.09"/>
</a>
</g>
</g>
<!-- Node87 -->
<g id="Node000087" class="node">
<title>Node87</title>
<g id="a_Node000087"><a xlink:href="InnerNode_8h.html" target="_top" xlink:title=" ">
<polygon fill="#fff0f0" stroke="red" points="4026,-74 3933,-74 3933,-55 4026,-55 4026,-74"/>
<text text-anchor="middle" x="3979.5" y="-62" font-family="Helvetica,sans-Serif" font-size="10.00">acl/InnerNode.h</text>
</a>
</g>
</g>
<!-- Node86&#45;&gt;Node87 -->
<g id="edge41_Node000086_Node000087" class="edge">
<title>Node86&#45;&gt;Node87</title>
<g id="a_edge41_Node000086_Node000087"><a xlink:title=" ">
<path fill="none" stroke="#63b8ff" d="M3930.82,-109.98C3939.31,-102.23 3952.06,-90.58 3962.38,-81.14"/>
<polygon fill="#63b8ff" stroke="#63b8ff" points="3964.99,-83.5 3970.01,-74.17 3960.27,-78.33 3964.99,-83.5"/>
</a>
</g>
</g>
<!-- Node92&#45;&gt;Node56 -->
<g id="edge44_Node000092_Node000056" class="edge">
<title>Node92&#45;&gt;Node56</title>
<g id="a_edge44_Node000092_Node000056"><a xlink:title=" ">
<path fill="none" stroke="#63b8ff" d="M3828.5,-109.75C3828.5,-102.8 3828.5,-92.85 3828.5,-84.13"/>
<polygon fill="#63b8ff" stroke="#63b8ff" points="3832,-84.09 3828.5,-74.09 3825,-84.09 3832,-84.09"/>
</a>
</g>
</g>
<!-- Node74 -->
<g id="Node000074" class="node">
<title>Node74</title>
<g id="a_Node000074"><a xlink:title=" ">
<polygon fill="#e0e0e0" stroke="#999999" points="3914.5,-74 3882.5,-74 3882.5,-55 3914.5,-55 3914.5,-74"/>
<text text-anchor="middle" x="3898.5" y="-62" font-family="Helvetica,sans-Serif" font-size="10.00">list</text>
</a>
</g>
</g>
<!-- Node92&#45;&gt;Node74 -->
<g id="edge45_Node000092_Node000074" class="edge">
<title>Node92&#45;&gt;Node74</title>
<g id="a_edge45_Node000092_Node000074"><a xlink:title=" ">
<path fill="none" stroke="#63b8ff" d="M3839.75,-109.98C3850.3,-102 3866.3,-89.88 3878.94,-80.31"/>
<polygon fill="#63b8ff" stroke="#63b8ff" points="3881.19,-83 3887.05,-74.17 3876.96,-77.42 3881.19,-83"/>
</a>
</g>
</g>
<!-- Node93&#45;&gt;Node46 -->
<g id="edge47_Node000093_Node000046" class="edge">
<title>Node93&#45;&gt;Node46</title>
<g id="a_edge47_Node000093_Node000046"><a xlink:title=" ">
<path fill="none" stroke="#63b8ff" d="M3320.61,-164.66C3326.82,-147.01 3340.87,-107.09 3349.12,-83.64"/>
<polygon fill="#63b8ff" stroke="#63b8ff" points="3352.44,-84.75 3352.45,-74.16 3345.83,-82.43 3352.44,-84.75"/>
</a>
</g>
</g>
<!-- Node94 -->
<g id="Node000094" class="node">
<title>Node94</title>
<g id="a_Node000094"><a xlink:href="SchemeConfig_8h.html" target="_top" xlink:title=" ">
<polygon fill="#fff0f0" stroke="red" points="3297.5,-74 3177.5,-74 3177.5,-55 3297.5,-55 3297.5,-74"/>
<text text-anchor="middle" x="3237.5" y="-62" font-family="Helvetica,sans-Serif" font-size="10.00">auth/SchemeConfig.h</text>
</a>
</g>
</g>
<!-- Node93&#45;&gt;Node94 -->
<g id="edge48_Node000093_Node000094" class="edge">
<title>Node93&#45;&gt;Node94</title>
<g id="a_edge48_Node000093_Node000094"><a xlink:title=" ">
<path fill="none" stroke="#63b8ff" d="M3316.51,-164.94C3314.66,-152 3309.7,-127.13 3297.5,-110 3288.57,-97.46 3275.01,-86.98 3263.05,-79.34"/>
<polygon fill="#63b8ff" stroke="#63b8ff" points="3264.68,-76.24 3254.31,-74.07 3261.06,-82.24 3264.68,-76.24"/>
</a>
</g>
</g>
<!-- Node183 -->
<g id="Node000183" class="node">
<title>Node183</title>
<g id="a_Node000183"><a xlink:href="SchemesConfig_8h.html" target="_top" xlink:title=" ">
<polygon fill="white" stroke="#666666" points="3289,-129 3164,-129 3164,-110 3289,-110 3289,-129"/>
<text text-anchor="middle" x="3226.5" y="-117" font-family="Helvetica,sans-Serif" font-size="10.00">auth/SchemesConfig.h</text>
</a>
</g>
</g>
<!-- Node93&#45;&gt;Node183 -->
<g id="edge51_Node000093_Node000183" class="edge">
<title>Node93&#45;&gt;Node183</title>
<g id="a_edge51_Node000093_Node000183"><a xlink:title=" ">
<path fill="none" stroke="#63b8ff" d="M3302.88,-164.98C3288.64,-156.69 3266.75,-143.94 3250.05,-134.22"/>
<polygon fill="#63b8ff" stroke="#63b8ff" points="3251.79,-131.18 3241.39,-129.17 3248.27,-137.23 3251.79,-131.18"/>
</a>
</g>
</g>
<!-- Node95 -->
<g id="Node000095" class="node">
<title>Node95</title>
<g id="a_Node000095"><a xlink:href="AccessLogEntry_8h.html" target="_top" xlink:title=" ">
<polygon fill="#fff0f0" stroke="red" points="3288,-19 3187,-19 3187,0 3288,0 3288,-19"/>
<text text-anchor="middle" x="3237.5" y="-7" font-family="Helvetica,sans-Serif" font-size="10.00">AccessLogEntry.h</text>
</a>
</g>
</g>
<!-- Node94&#45;&gt;Node95 -->
<g id="edge49_Node000094_Node000095" class="edge">
<title>Node94&#45;&gt;Node95</title>
<g id="a_edge49_Node000094_Node000095"><a xlink:title=" ">
<path fill="none" stroke="#63b8ff" d="M3237.5,-54.75C3237.5,-47.8 3237.5,-37.85 3237.5,-29.13"/>
<polygon fill="#63b8ff" stroke="#63b8ff" points="3241,-29.09 3237.5,-19.09 3234,-29.09 3241,-29.09"/>
</a>
</g>
</g>
<!-- Node173 -->
<g id="Node000173" class="node">
<title>Node173</title>
<g id="a_Node000173"><a xlink:href="auth_2forward_8h.html" target="_top" xlink:title=" ">
<polygon fill="#fff0f0" stroke="red" points="3168.5,-19 3080.5,-19 3080.5,0 3168.5,0 3168.5,-19"/>
<text text-anchor="middle" x="3124.5" y="-7" font-family="Helvetica,sans-Serif" font-size="10.00">auth/forward.h</text>
</a>
</g>
</g>
<!-- Node94&#45;&gt;Node173 -->
<g id="edge50_Node000094_Node000173" class="edge">
<title>Node94&#45;&gt;Node173</title>
<g id="a_edge50_Node000094_Node000173"><a xlink:title=" ">
<path fill="none" stroke="#63b8ff" d="M3219.34,-54.98C3201.25,-46.5 3173.22,-33.35 3152.31,-23.54"/>
<polygon fill="#63b8ff" stroke="#63b8ff" points="3153.53,-20.25 3142.99,-19.17 3150.55,-26.59 3153.53,-20.25"/>
</a>
</g>
</g>
<!-- Node183&#45;&gt;Node94 -->
<g id="edge52_Node000183_Node000094" class="edge">
<title>Node183&#45;&gt;Node94</title>
<g id="a_edge52_Node000183_Node000094"><a xlink:title=" ">
<path fill="none" stroke="#63b8ff" d="M3228.32,-109.75C3229.76,-102.8 3231.82,-92.85 3233.63,-84.13"/>
<polygon fill="#63b8ff" stroke="#63b8ff" points="3237.11,-84.59 3235.72,-74.09 3230.26,-83.17 3237.11,-84.59"/>
</a>
</g>
</g>
</g>
</svg>

<g id="navigator" transform="translate(0 0)" fill="#404254">
  <rect fill="#f2f5e9" fill-opacity="0.5" stroke="#606060" stroke-width=".5" x="0" y="0" width="60" height="60"/>
  <use id="zoomplus" xlink:href="#zoomPlus" x="17" y="9" onmousedown="handleZoom(evt,'in')"/>
  <use id="zoomminus" xlink:href="#zoomMin" x="42" y="9" onmousedown="handleZoom(evt,'out')"/>
  <use id="reset" xlink:href="#resetDef" x="30" y="36" onmousedown="handleReset()"/>
   <use id="arrowup" xlink:href="#arrowUp" x="0" y="0" onmousedown="handlePan(0,-1)"/>
  <use id="arrowright" xlink:href="#arrowRight" x="0" y="0" onmousedown="handlePan(1,0)"/>
  <use id="arrowdown" xlink:href="#arrowDown" x="0" y="0" onmousedown="handlePan(0,1)"/>
  <use id="arrowleft" xlink:href="#arrowLeft" x="0" y="0" onmousedown="handlePan(-1,0)"/>
</g>
<svg viewBox="0 0 15 15" width="100%" height="30px" preserveAspectRatio="xMaxYMin meet">
 <g id="arrow_out" transform="scale(0.3 0.3)">
  <a xlink:href="auth_2Config_8cc__incl_org.svg" target="_base">
   <rect id="button" ry="5" rx="5" y="6" x="6" height="38" width="38"
        fill="#f2f5e9" fill-opacity="0.5" stroke="#606060" stroke-width="1.0"/>
   <path id="arrow"
     d="M 11.500037,31.436501 C 11.940474,20.09759 22.043105,11.32322 32.158766,21.979434 L 37.068811,17.246167 C 37.068811,17.246167 37.088388,32 37.088388,32 L 22.160133,31.978069 C 22.160133,31.978069 26.997745,27.140456 26.997745,27.140456 C 18.528582,18.264221 13.291696,25.230495 11.500037,31.436501 z"
     style="fill:#404040;"/>
  </a>
 </g>
</svg>

<style type='text/css'>
<![CDATA[
[data-mouse-over-selected='false'] { opacity: 0.7; }
[data-mouse-over-selected='true']  { opacity: 1.0; }
]]>
</style>
<script type="application/ecmascript"><![CDATA[
document.addEventListener('DOMContentLoaded', (event) => {
  highlightEdges();
  highlightAdjacentNodes();
});
]]></script>
</svg>
