<?xml version="1.0" encoding="UTF-8" standalone="no"?>
<!DOCTYPE svg PUBLIC "-//W3C//DTD SVG 1.1//EN"
 "http://www.w3.org/Graphics/SVG/1.1/DTD/svg11.dtd">
<!-- Generated by graphviz version 2.43.0 (0)
 -->
<!-- Title: squid/src/auth/basic/Config.h Pages: 1 -->
<svg width="514pt" height="104pt"
 viewBox="0.00 0.00 514.00 104.00" xmlns="http://www.w3.org/2000/svg" xmlns:xlink="http://www.w3.org/1999/xlink">
<g id="graph0" class="graph" transform="scale(1 1) rotate(0) translate(4 100)">
<title>squid/src/auth/basic/Config.h</title>
<!-- Node1 -->
<g id="Node000001" class="node">
<title>Node1</title>
<g id="a_Node000001"><a xlink:title=" ">
<polygon fill="#999999" stroke="#666666" points="309,-96 196,-96 196,-66 309,-66 309,-96"/>
<text text-anchor="start" x="204" y="-84" font-family="Helvetica,sans-Serif" font-size="10.00">squid/src/auth/basic</text>
<text text-anchor="middle" x="252.5" y="-73" font-family="Helvetica,sans-Serif" font-size="10.00">/Config.h</text>
</a>
</g>
</g>
<!-- Node2 -->
<g id="Node000002" class="node">
<title>Node2</title>
<g id="a_Node000002"><a xlink:href="auth_2basic_2Config_8cc.html" target="_top" xlink:title=" ">
<polygon fill="white" stroke="#666666" points="113,-30 0,-30 0,0 113,0 113,-30"/>
<text text-anchor="start" x="8" y="-18" font-family="Helvetica,sans-Serif" font-size="10.00">squid/src/auth/basic</text>
<text text-anchor="middle" x="56.5" y="-7" font-family="Helvetica,sans-Serif" font-size="10.00">/Config.cc</text>
</a>
</g>
</g>
<!-- Node1&#45;&gt;Node2 -->
<g id="edge1_Node000001_Node000002" class="edge">
<title>Node1&#45;&gt;Node2</title>
<g id="a_edge1_Node000001_Node000002"><a xlink:title=" ">
<path fill="none" stroke="#63b8ff" d="M199.59,-62.72C168.18,-52.47 128.88,-39.63 99.41,-30.01"/>
<polygon fill="#63b8ff" stroke="#63b8ff" points="198.89,-66.18 209.49,-65.95 201.07,-59.52 198.89,-66.18"/>
</a>
</g>
</g>
<!-- Node3 -->
<g id="Node000003" class="node">
<title>Node3</title>
<g id="a_Node000003"><a xlink:href="basic_2Scheme_8cc.html" target="_top" xlink:title=" ">
<polygon fill="white" stroke="#666666" points="244,-30 131,-30 131,0 244,0 244,-30"/>
<text text-anchor="start" x="139" y="-18" font-family="Helvetica,sans-Serif" font-size="10.00">squid/src/auth/basic</text>
<text text-anchor="middle" x="187.5" y="-7" font-family="Helvetica,sans-Serif" font-size="10.00">/Scheme.cc</text>
</a>
</g>
</g>
<!-- Node1&#45;&gt;Node3 -->
<g id="edge2_Node000001_Node000003" class="edge">
<title>Node1&#45;&gt;Node3</title>
<g id="a_edge2_Node000001_Node000003"><a xlink:title=" ">
<path fill="none" stroke="#63b8ff" d="M230.81,-58.65C221.29,-49.27 210.38,-38.53 201.89,-30.16"/>
<polygon fill="#63b8ff" stroke="#63b8ff" points="228.49,-61.27 238.07,-65.8 233.4,-56.29 228.49,-61.27"/>
</a>
</g>
</g>
<!-- Node4 -->
<g id="Node000004" class="node">
<title>Node4</title>
<g id="a_Node000004"><a xlink:href="basic_2User_8cc.html" target="_top" xlink:title=" ">
<polygon fill="white" stroke="#666666" points="375,-30 262,-30 262,0 375,0 375,-30"/>
<text text-anchor="start" x="270" y="-18" font-family="Helvetica,sans-Serif" font-size="10.00">squid/src/auth/basic</text>
<text text-anchor="middle" x="318.5" y="-7" font-family="Helvetica,sans-Serif" font-size="10.00">/User.cc</text>
</a>
</g>
</g>
<!-- Node1&#45;&gt;Node4 -->
<g id="edge3_Node000001_Node000004" class="edge">
<title>Node1&#45;&gt;Node4</title>
<g id="a_edge3_Node000001_Node000004"><a xlink:title=" ">
<path fill="none" stroke="#63b8ff" d="M274.52,-58.65C284.19,-49.27 295.27,-38.53 303.89,-30.16"/>
<polygon fill="#63b8ff" stroke="#63b8ff" points="271.89,-56.32 267.15,-65.8 276.76,-61.35 271.89,-56.32"/>
</a>
</g>
</g>
<!-- Node5 -->
<g id="Node000005" class="node">
<title>Node5</title>
<g id="a_Node000005"><a xlink:href="basic_2UserRequest_8cc.html" target="_top" xlink:title=" ">
<polygon fill="white" stroke="#666666" points="506,-30 393,-30 393,0 506,0 506,-30"/>
<text text-anchor="start" x="401" y="-18" font-family="Helvetica,sans-Serif" font-size="10.00">squid/src/auth/basic</text>
<text text-anchor="middle" x="449.5" y="-7" font-family="Helvetica,sans-Serif" font-size="10.00">/UserRequest.cc</text>
</a>
</g>
</g>
<!-- Node1&#45;&gt;Node5 -->
<g id="edge4_Node000001_Node000005" class="edge">
<title>Node1&#45;&gt;Node5</title>
<g id="a_edge4_Node000001_Node000005"><a xlink:title=" ">
<path fill="none" stroke="#63b8ff" d="M305.27,-62.86C336.9,-52.58 376.62,-39.68 406.37,-30.01"/>
<polygon fill="#63b8ff" stroke="#63b8ff" points="304.16,-59.54 295.73,-65.95 306.32,-66.19 304.16,-59.54"/>
</a>
</g>
</g>
</g>
</svg>
