<?xml version="1.0" encoding="UTF-8" standalone="no"?>
<!DOCTYPE svg PUBLIC "-//W3C//DTD SVG 1.1//EN"
 "http://www.w3.org/Graphics/SVG/1.1/DTD/svg11.dtd">
<!-- Generated by graphviz version 2.43.0 (0)
 -->
<!-- Title: squid/src/auth/Gadgets.h Pages: 1 -->
<!--zoomable 148 -->

<svg id="main" version="1.1" xmlns="http://www.w3.org/2000/svg" xmlns:xlink="http://www.w3.org/1999/xlink" xml:space="preserve" onload="init(evt)">
<style type="text/css"><![CDATA[
.node, .edge {opacity: 0.7;}
.node.selected, .edge.selected {opacity: 1;}
.edge:hover path { stroke: red; }
.edge:hover polygon { stroke: red; fill: red; }
]]></style>

<defs>
  <circle id="rim" cx="0" cy="0" r="7"/>
  <circle id="rim2" cx="0" cy="0" r="3.5"/>
  <g id="zoomPlus">
    <use xlink:href="#rim" fill="#404040"><set attributeName="fill" to="#808080" begin="zoomplus.mouseover" end="zoomplus.mouseout"/></use>
    <path d="M-4,0h8M0,-4v8" fill="none" stroke="white" stroke-width="1.5" pointer-events="none"/>
  </g>
  <g id="zoomMin">
    <use xlink:href="#rim" fill="#404040"><set attributeName="fill" to="#808080" begin="zoomminus.mouseover" end="zoomminus.mouseout"/></use>
    <path d="M-4,0h8" fill="none" stroke="white" stroke-width="1.5" pointer-events="none"/>
  </g>
  <g id="arrowUp" transform="translate(30 24)">
    <use xlink:href="#rim"/>
    <path pointer-events="none" fill="none" stroke="white" stroke-width="1.5" d="M0,-3.0v7 M-2.5,-0.5L0,-3.0L2.5,-0.5"/>
  </g>
  <g id="arrowRight" transform="rotate(90) translate(36 -43)">
    <use xlink:href="#rim"/>
    <path pointer-events="none" fill="none" stroke="white" stroke-width="1.5" d="M0,-3.0v7 M-2.5,-0.5L0,-3.0L2.5,-0.5"/>
  </g>
  <g id="arrowDown" transform="rotate(180) translate(-30 -48)">
    <use xlink:href="#rim"/>
    <path pointer-events="none" fill="none" stroke="white" stroke-width="1.5" d="M0,-3.0v7 M-2.5,-0.5L0,-3.0L2.5,-0.5"/>
  </g>
  <g id="arrowLeft" transform="rotate(270) translate(-36 17)">
    <use xlink:href="#rim"/>
    <path pointer-events="none" fill="none" stroke="white" stroke-width="1.5" d="M0,-3.0v7 M-2.5,-0.5L0,-3.0L2.5,-0.5"/>
  </g>
  <g id="resetDef">
    <use xlink:href="#rim2" fill="#404040"><set attributeName="fill" to="#808080" begin="reset.mouseover" end="reset.mouseout"/></use>
  </g>
</defs>
<script type="application/ecmascript">
var viewWidth = 2284;
var viewHeight = 148;
var sectionId = 'dynsection-1';
</script>
<script type="application/ecmascript" xlink:href="svg.min.js"/>
<svg id="graph" class="graph">
<g id="viewport">
<title>squid/src/auth/Gadgets.h</title>
<!-- Node1 -->
<g id="Node000001" class="node">
<title>Node1</title>
<g id="a_Node000001"><a xlink:title=" ">
<polygon fill="#999999" stroke="#666666" points="1337.5,-140 1200.5,-140 1200.5,-121 1337.5,-121 1337.5,-140"/>
<text text-anchor="middle" x="1269" y="-128" font-family="Helvetica,sans-Serif" font-size="10.00">squid/src/auth/Gadgets.h</text>
</a>
</g>
</g>
<!-- Node2 -->
<g id="Node000002" class="node">
<title>Node2</title>
<g id="a_Node000002"><a xlink:href="DelayTagged_8h.html" target="_top" xlink:title=" ">
<polygon fill="white" stroke="#666666" points="219.5,-79.5 84.5,-79.5 84.5,-60.5 219.5,-60.5 219.5,-79.5"/>
<text text-anchor="middle" x="152" y="-67.5" font-family="Helvetica,sans-Serif" font-size="10.00">squid/src/DelayTagged.h</text>
</a>
</g>
</g>
<!-- Node1&#45;&gt;Node2 -->
<g id="edge1_Node000001_Node000002" class="edge">
<title>Node1&#45;&gt;Node2</title>
<g id="a_edge1_Node000001_Node000002"><a xlink:title=" ">
<path fill="none" stroke="#63b8ff" d="M1190.21,-129.81C1016.21,-129.67 586.25,-124.93 229,-85 217.25,-83.69 204.6,-81.65 193.01,-79.53"/>
<polygon fill="#63b8ff" stroke="#63b8ff" points="1190.3,-133.31 1200.3,-129.81 1190.3,-126.31 1190.3,-133.31"/>
</a>
</g>
</g>
<!-- Node5 -->
<g id="Node000005" class="node">
<title>Node5</title>
<g id="a_Node000005"><a xlink:href="DelayUser_8h.html" target="_top" xlink:title=" ">
<polygon fill="white" stroke="#666666" points="360,-79.5 238,-79.5 238,-60.5 360,-60.5 360,-79.5"/>
<text text-anchor="middle" x="299" y="-67.5" font-family="Helvetica,sans-Serif" font-size="10.00">squid/src/DelayUser.h</text>
</a>
</g>
</g>
<!-- Node1&#45;&gt;Node5 -->
<g id="edge4_Node000001_Node000005" class="edge">
<title>Node1&#45;&gt;Node5</title>
<g id="a_edge4_Node000001_Node000005"><a xlink:title=" ">
<path fill="none" stroke="#63b8ff" d="M1190.46,-129.44C1033.81,-128.47 671.65,-122.01 370,-85 359.15,-83.67 347.48,-81.63 336.79,-79.51"/>
<polygon fill="#63b8ff" stroke="#63b8ff" points="1190.46,-132.94 1200.48,-129.49 1190.5,-125.94 1190.46,-132.94"/>
</a>
</g>
</g>
<!-- Node7 -->
<g id="Node000007" class="node">
<title>Node7</title>
<g id="a_Node000007"><a xlink:href="AclProxyAuth_8cc.html" target="_top" xlink:title=" ">
<polygon fill="white" stroke="#666666" points="545.5,-79.5 378.5,-79.5 378.5,-60.5 545.5,-60.5 545.5,-79.5"/>
<text text-anchor="middle" x="462" y="-67.5" font-family="Helvetica,sans-Serif" font-size="10.00">squid/src/auth/AclProxyAuth.cc</text>
</a>
</g>
</g>
<!-- Node1&#45;&gt;Node7 -->
<g id="edge7_Node000001_Node000007" class="edge">
<title>Node1&#45;&gt;Node7</title>
<g id="a_edge7_Node000001_Node000007"><a xlink:title=" ">
<path fill="none" stroke="#63b8ff" d="M1190.41,-126.84C1058.7,-121.89 785.2,-109.45 555,-85 541.36,-83.55 526.66,-81.55 513.06,-79.51"/>
<polygon fill="#63b8ff" stroke="#63b8ff" points="1190.28,-130.34 1200.41,-127.22 1190.54,-123.35 1190.28,-130.34"/>
</a>
</g>
</g>
<!-- Node8 -->
<g id="Node000008" class="node">
<title>Node8</title>
<g id="a_Node000008"><a xlink:href="auth_2Gadgets_8cc.html" target="_top" xlink:title=" ">
<polygon fill="white" stroke="#666666" points="706,-79.5 564,-79.5 564,-60.5 706,-60.5 706,-79.5"/>
<text text-anchor="middle" x="635" y="-67.5" font-family="Helvetica,sans-Serif" font-size="10.00">squid/src/auth/Gadgets.cc</text>
</a>
</g>
</g>
<!-- Node1&#45;&gt;Node8 -->
<g id="edge8_Node000001_Node000008" class="edge">
<title>Node1&#45;&gt;Node8</title>
<g id="a_edge8_Node000001_Node000008"><a xlink:title=" ">
<path fill="none" stroke="#63b8ff" d="M1189.99,-125.47C1082.3,-119.46 883.53,-106.47 715,-85 703.39,-83.52 690.9,-81.53 679.32,-79.51"/>
<polygon fill="#63b8ff" stroke="#63b8ff" points="1189.95,-128.98 1200.13,-126.03 1190.33,-121.99 1189.95,-128.98"/>
</a>
</g>
</g>
<!-- Node9 -->
<g id="Node000009" class="node">
<title>Node9</title>
<g id="a_Node000009"><a xlink:href="Scheme_8cc.html" target="_top" xlink:title=" ">
<polygon fill="white" stroke="#666666" points="864,-79.5 724,-79.5 724,-60.5 864,-60.5 864,-79.5"/>
<text text-anchor="middle" x="794" y="-67.5" font-family="Helvetica,sans-Serif" font-size="10.00">squid/src/auth/Scheme.cc</text>
</a>
</g>
</g>
<!-- Node1&#45;&gt;Node9 -->
<g id="edge9_Node000001_Node000009" class="edge">
<title>Node1&#45;&gt;Node9</title>
<g id="a_edge9_Node000001_Node000009"><a xlink:title=" ">
<path fill="none" stroke="#63b8ff" d="M1190.35,-122.07C1110.51,-114.19 983.4,-100.72 874,-85 862.97,-83.42 851.14,-81.48 840.03,-79.55"/>
<polygon fill="#63b8ff" stroke="#63b8ff" points="1190.04,-125.55 1200.33,-123.05 1190.72,-118.59 1190.04,-125.55"/>
</a>
</g>
</g>
<!-- Node10 -->
<g id="Node000010" class="node">
<title>Node10</title>
<g id="a_Node000010"><a xlink:href="SchemeConfig_8cc.html" target="_top" xlink:title=" ">
<polygon fill="white" stroke="#666666" points="1053.5,-79.5 882.5,-79.5 882.5,-60.5 1053.5,-60.5 1053.5,-79.5"/>
<text text-anchor="middle" x="968" y="-67.5" font-family="Helvetica,sans-Serif" font-size="10.00">squid/src/auth/SchemeConfig.cc</text>
</a>
</g>
</g>
<!-- Node1&#45;&gt;Node10 -->
<g id="edge10_Node000001_Node000010" class="edge">
<title>Node1&#45;&gt;Node10</title>
<g id="a_edge10_Node000001_Node000010"><a xlink:title=" ">
<path fill="none" stroke="#63b8ff" d="M1215.14,-119.03C1157.06,-107.74 1065.68,-89.98 1011.82,-79.52"/>
<polygon fill="#63b8ff" stroke="#63b8ff" points="1214.75,-122.52 1225.23,-120.99 1216.08,-115.65 1214.75,-122.52"/>
</a>
</g>
</g>
<!-- Node11 -->
<g id="Node000011" class="node">
<title>Node11</title>
<g id="a_Node000011"><a xlink:href="User_8cc.html" target="_top" xlink:title=" ">
<polygon fill="white" stroke="#666666" points="1194.5,-79.5 1071.5,-79.5 1071.5,-60.5 1194.5,-60.5 1194.5,-79.5"/>
<text text-anchor="middle" x="1133" y="-67.5" font-family="Helvetica,sans-Serif" font-size="10.00">squid/src/auth/User.cc</text>
</a>
</g>
</g>
<!-- Node1&#45;&gt;Node11 -->
<g id="edge11_Node000001_Node000011" class="edge">
<title>Node1&#45;&gt;Node11</title>
<g id="a_edge11_Node000001_Node000011"><a xlink:title=" ">
<path fill="none" stroke="#63b8ff" d="M1239.78,-116.93C1213.52,-105.64 1175.67,-89.36 1152.8,-79.52"/>
<polygon fill="#63b8ff" stroke="#63b8ff" points="1238.66,-120.26 1249.22,-120.99 1241.42,-113.83 1238.66,-120.26"/>
</a>
</g>
</g>
<!-- Node12 -->
<g id="Node000012" class="node">
<title>Node12</title>
<g id="a_Node000012"><a xlink:href="auth_2basic_2Config_8cc.html" target="_top" xlink:title=" ">
<polygon fill="white" stroke="#666666" points="1325.5,-85 1212.5,-85 1212.5,-55 1325.5,-55 1325.5,-85"/>
<text text-anchor="start" x="1220.5" y="-73" font-family="Helvetica,sans-Serif" font-size="10.00">squid/src/auth/basic</text>
<text text-anchor="middle" x="1269" y="-62" font-family="Helvetica,sans-Serif" font-size="10.00">/Config.cc</text>
</a>
</g>
</g>
<!-- Node1&#45;&gt;Node12 -->
<g id="edge12_Node000001_Node000012" class="edge">
<title>Node1&#45;&gt;Node12</title>
<g id="a_edge12_Node000001_Node000012"><a xlink:title=" ">
<path fill="none" stroke="#63b8ff" d="M1269,-110.65C1269,-102.36 1269,-92.78 1269,-85.11"/>
<polygon fill="#63b8ff" stroke="#63b8ff" points="1265.5,-110.87 1269,-120.87 1272.5,-110.87 1265.5,-110.87"/>
</a>
</g>
</g>
<!-- Node13 -->
<g id="Node000013" class="node">
<title>Node13</title>
<g id="a_Node000013"><a xlink:href="auth_2digest_2Config_8cc.html" target="_top" xlink:title=" ">
<polygon fill="white" stroke="#666666" points="1462,-85 1344,-85 1344,-55 1462,-55 1462,-85"/>
<text text-anchor="start" x="1352" y="-73" font-family="Helvetica,sans-Serif" font-size="10.00">squid/src/auth/digest</text>
<text text-anchor="middle" x="1403" y="-62" font-family="Helvetica,sans-Serif" font-size="10.00">/Config.cc</text>
</a>
</g>
</g>
<!-- Node1&#45;&gt;Node13 -->
<g id="edge13_Node000001_Node000013" class="edge">
<title>Node1&#45;&gt;Node13</title>
<g id="a_edge13_Node000001_Node000013"><a xlink:title=" ">
<path fill="none" stroke="#63b8ff" d="M1297.74,-116.95C1319.2,-107.59 1348.53,-94.78 1370.78,-85.06"/>
<polygon fill="#63b8ff" stroke="#63b8ff" points="1296.25,-113.78 1288.48,-120.99 1299.05,-120.2 1296.25,-113.78"/>
</a>
</g>
</g>
<!-- Node14 -->
<g id="Node000014" class="node">
<title>Node14</title>
<g id="a_Node000014"><a xlink:href="auth_2negotiate_2Config_8cc.html" target="_top" xlink:title=" ">
<polygon fill="white" stroke="#666666" points="1614,-85 1480,-85 1480,-55 1614,-55 1614,-85"/>
<text text-anchor="start" x="1488" y="-73" font-family="Helvetica,sans-Serif" font-size="10.00">squid/src/auth/negotiate</text>
<text text-anchor="middle" x="1547" y="-62" font-family="Helvetica,sans-Serif" font-size="10.00">/Config.cc</text>
</a>
</g>
</g>
<!-- Node1&#45;&gt;Node14 -->
<g id="edge14_Node000001_Node000014" class="edge">
<title>Node1&#45;&gt;Node14</title>
<g id="a_edge14_Node000001_Node000014"><a xlink:title=" ">
<path fill="none" stroke="#63b8ff" d="M1319.27,-118.92C1364.39,-109.43 1430.92,-95.43 1480.43,-85.01"/>
<polygon fill="#63b8ff" stroke="#63b8ff" points="1318.49,-115.51 1309.42,-120.99 1319.93,-122.36 1318.49,-115.51"/>
</a>
</g>
</g>
<!-- Node15 -->
<g id="Node000015" class="node">
<title>Node15</title>
<g id="a_Node000015"><a xlink:href="auth_2ntlm_2Config_8cc.html" target="_top" xlink:title=" ">
<polygon fill="white" stroke="#666666" points="1742,-85 1632,-85 1632,-55 1742,-55 1742,-85"/>
<text text-anchor="start" x="1640" y="-73" font-family="Helvetica,sans-Serif" font-size="10.00">squid/src/auth/ntlm</text>
<text text-anchor="middle" x="1687" y="-62" font-family="Helvetica,sans-Serif" font-size="10.00">/Config.cc</text>
</a>
</g>
</g>
<!-- Node1&#45;&gt;Node15 -->
<g id="edge15_Node000001_Node000015" class="edge">
<title>Node1&#45;&gt;Node15</title>
<g id="a_edge15_Node000001_Node000015"><a xlink:title=" ">
<path fill="none" stroke="#63b8ff" d="M1348.14,-121.62C1420.08,-113.97 1529.03,-101.15 1623,-85 1625.91,-84.5 1628.9,-83.96 1631.9,-83.38"/>
<polygon fill="#63b8ff" stroke="#63b8ff" points="1347.37,-118.18 1337.8,-122.71 1348.11,-125.14 1347.37,-118.18"/>
</a>
</g>
</g>
<!-- Node16 -->
<g id="Node000016" class="node">
<title>Node16</title>
<g id="a_Node000016"><a xlink:href="external__acl_8cc.html" target="_top" xlink:title=" ">
<polygon fill="white" stroke="#666666" points="1864,-85 1760,-85 1760,-55 1864,-55 1864,-85"/>
<text text-anchor="start" x="1768" y="-73" font-family="Helvetica,sans-Serif" font-size="10.00">squid/src/external</text>
<text text-anchor="middle" x="1812" y="-62" font-family="Helvetica,sans-Serif" font-size="10.00">_acl.cc</text>
</a>
</g>
</g>
<!-- Node1&#45;&gt;Node16 -->
<g id="edge16_Node000001_Node000016" class="edge">
<title>Node1&#45;&gt;Node16</title>
<g id="a_edge16_Node000001_Node000016"><a xlink:title=" ">
<path fill="none" stroke="#63b8ff" d="M1347.79,-125.46C1443.57,-119.81 1609.89,-107.6 1751,-85 1753.9,-84.54 1756.86,-84.01 1759.85,-83.45"/>
<polygon fill="#63b8ff" stroke="#63b8ff" points="1347.39,-121.98 1337.61,-126.06 1347.79,-128.97 1347.39,-121.98"/>
</a>
</g>
</g>
<!-- Node17 -->
<g id="Node000017" class="node">
<title>Node17</title>
<g id="a_Node000017"><a xlink:href="main_8cc.html" target="_top" xlink:title=" ">
<polygon fill="white" stroke="#666666" points="1983.5,-79.5 1882.5,-79.5 1882.5,-60.5 1983.5,-60.5 1983.5,-79.5"/>
<text text-anchor="middle" x="1933" y="-67.5" font-family="Helvetica,sans-Serif" font-size="10.00">squid/src/main.cc</text>
</a>
</g>
</g>
<!-- Node1&#45;&gt;Node17 -->
<g id="edge17_Node000001_Node000017" class="edge">
<title>Node1&#45;&gt;Node17</title>
<g id="a_edge17_Node000001_Node000017"><a xlink:title=" ">
<path fill="none" stroke="#63b8ff" d="M1347.97,-127.6C1463.74,-123.93 1686.09,-113.51 1873,-85 1881.99,-83.63 1891.62,-81.62 1900.48,-79.56"/>
<polygon fill="#63b8ff" stroke="#63b8ff" points="1347.67,-124.11 1337.78,-127.91 1347.88,-131.1 1347.67,-124.11"/>
</a>
</g>
</g>
<!-- Node18 -->
<g id="Node000018" class="node">
<title>Node18</title>
<g id="a_Node000018"><a xlink:href="stub__libauth_8cc.html" target="_top" xlink:title=" ">
<polygon fill="white" stroke="#666666" points="2112.5,-85 2001.5,-85 2001.5,-55 2112.5,-55 2112.5,-85"/>
<text text-anchor="start" x="2009.5" y="-73" font-family="Helvetica,sans-Serif" font-size="10.00">squid/src/tests/stub</text>
<text text-anchor="middle" x="2057" y="-62" font-family="Helvetica,sans-Serif" font-size="10.00">_libauth.cc</text>
</a>
</g>
</g>
<!-- Node1&#45;&gt;Node18 -->
<g id="edge18_Node000001_Node000018" class="edge">
<title>Node1&#45;&gt;Node18</title>
<g id="a_edge18_Node000001_Node000018"><a xlink:title=" ">
<path fill="none" stroke="#63b8ff" d="M1347.86,-128.62C1481.31,-126.24 1759.91,-117.46 1993,-85 1995.7,-84.62 1998.46,-84.19 2001.24,-83.73"/>
<polygon fill="#63b8ff" stroke="#63b8ff" points="1347.67,-125.12 1337.73,-128.79 1347.79,-132.12 1347.67,-125.12"/>
</a>
</g>
</g>
<!-- Node19 -->
<g id="Node000019" class="node">
<title>Node19</title>
<g id="a_Node000019"><a xlink:href="testAuth_8cc.html" target="_top" xlink:title=" ">
<polygon fill="white" stroke="#666666" points="2275.5,-79.5 2130.5,-79.5 2130.5,-60.5 2275.5,-60.5 2275.5,-79.5"/>
<text text-anchor="middle" x="2203" y="-67.5" font-family="Helvetica,sans-Serif" font-size="10.00">squid/src/tests/testAuth.cc</text>
</a>
</g>
</g>
<!-- Node1&#45;&gt;Node19 -->
<g id="edge19_Node000001_Node000019" class="edge">
<title>Node1&#45;&gt;Node19</title>
<g id="a_edge19_Node000001_Node000019"><a xlink:title=" ">
<path fill="none" stroke="#63b8ff" d="M1347.59,-128.52C1498.26,-125.96 1838.02,-116.83 2122,-85 2134.2,-83.63 2147.34,-81.6 2159.42,-79.51"/>
<polygon fill="#63b8ff" stroke="#63b8ff" points="1347.44,-125.02 1337.5,-128.69 1347.56,-132.02 1347.44,-125.02"/>
</a>
</g>
</g>
<!-- Node3 -->
<g id="Node000003" class="node">
<title>Node3</title>
<g id="a_Node000003"><a xlink:href="DelayTagged_8cc.html" target="_top" xlink:title=" ">
<polygon fill="white" stroke="#666666" points="140,-19 0,-19 0,0 140,0 140,-19"/>
<text text-anchor="middle" x="70" y="-7" font-family="Helvetica,sans-Serif" font-size="10.00">squid/src/DelayTagged.cc</text>
</a>
</g>
</g>
<!-- Node2&#45;&gt;Node3 -->
<g id="edge2_Node000002_Node000003" class="edge">
<title>Node2&#45;&gt;Node3</title>
<g id="a_edge2_Node000002_Node000003"><a xlink:title=" ">
<path fill="none" stroke="#63b8ff" d="M131.46,-54.35C115.93,-43.27 95.13,-28.43 82.15,-19.17"/>
<polygon fill="#63b8ff" stroke="#63b8ff" points="129.73,-57.41 139.9,-60.37 133.79,-51.71 129.73,-57.41"/>
</a>
</g>
</g>
<!-- Node4 -->
<g id="Node000004" class="node">
<title>Node4</title>
<g id="a_Node000004"><a xlink:href="delay__pools_8cc.html" target="_top" xlink:title=" ">
<polygon fill="white" stroke="#666666" points="293.5,-19 158.5,-19 158.5,0 293.5,0 293.5,-19"/>
<text text-anchor="middle" x="226" y="-7" font-family="Helvetica,sans-Serif" font-size="10.00">squid/src/delay_pools.cc</text>
</a>
</g>
</g>
<!-- Node2&#45;&gt;Node4 -->
<g id="edge3_Node000002_Node000004" class="edge">
<title>Node2&#45;&gt;Node4</title>
<g id="a_edge3_Node000002_Node000004"><a xlink:title=" ">
<path fill="none" stroke="#63b8ff" d="M170.93,-54.04C184.9,-42.99 203.43,-28.34 215.04,-19.17"/>
<polygon fill="#63b8ff" stroke="#63b8ff" points="168.59,-51.42 162.92,-60.37 172.93,-56.91 168.59,-51.42"/>
</a>
</g>
</g>
<!-- Node5&#45;&gt;Node4 -->
<g id="edge6_Node000005_Node000004" class="edge">
<title>Node5&#45;&gt;Node4</title>
<g id="a_edge6_Node000005_Node000004"><a xlink:title=" ">
<path fill="none" stroke="#63b8ff" d="M280.33,-54.04C266.54,-42.99 248.26,-28.34 236.82,-19.17"/>
<polygon fill="#63b8ff" stroke="#63b8ff" points="278.24,-56.85 288.23,-60.37 282.61,-51.38 278.24,-56.85"/>
</a>
</g>
</g>
<!-- Node6 -->
<g id="Node000006" class="node">
<title>Node6</title>
<g id="a_Node000006"><a xlink:href="DelayUser_8cc.html" target="_top" xlink:title=" ">
<polygon fill="white" stroke="#666666" points="438.5,-19 311.5,-19 311.5,0 438.5,0 438.5,-19"/>
<text text-anchor="middle" x="375" y="-7" font-family="Helvetica,sans-Serif" font-size="10.00">squid/src/DelayUser.cc</text>
</a>
</g>
</g>
<!-- Node5&#45;&gt;Node6 -->
<g id="edge5_Node000005_Node000006" class="edge">
<title>Node5&#45;&gt;Node6</title>
<g id="a_edge5_Node000005_Node000006"><a xlink:title=" ">
<path fill="none" stroke="#63b8ff" d="M318.44,-54.04C332.79,-42.99 351.82,-28.34 363.74,-19.17"/>
<polygon fill="#63b8ff" stroke="#63b8ff" points="316,-51.49 310.21,-60.37 320.27,-57.04 316,-51.49"/>
</a>
</g>
</g>
</g>
</svg>

<g id="navigator" transform="translate(0 0)" fill="#404254">
  <rect fill="#f2f5e9" fill-opacity="0.5" stroke="#606060" stroke-width=".5" x="0" y="0" width="60" height="60"/>
  <use id="zoomplus" xlink:href="#zoomPlus" x="17" y="9" onmousedown="handleZoom(evt,'in')"/>
  <use id="zoomminus" xlink:href="#zoomMin" x="42" y="9" onmousedown="handleZoom(evt,'out')"/>
  <use id="reset" xlink:href="#resetDef" x="30" y="36" onmousedown="handleReset()"/>
   <use id="arrowup" xlink:href="#arrowUp" x="0" y="0" onmousedown="handlePan(0,-1)"/>
  <use id="arrowright" xlink:href="#arrowRight" x="0" y="0" onmousedown="handlePan(1,0)"/>
  <use id="arrowdown" xlink:href="#arrowDown" x="0" y="0" onmousedown="handlePan(0,1)"/>
  <use id="arrowleft" xlink:href="#arrowLeft" x="0" y="0" onmousedown="handlePan(-1,0)"/>
</g>
<svg viewBox="0 0 15 15" width="100%" height="30px" preserveAspectRatio="xMaxYMin meet">
 <g id="arrow_out" transform="scale(0.3 0.3)">
  <a xlink:href="auth_2Gadgets_8h__dep__incl_org.svg" target="_base">
   <rect id="button" ry="5" rx="5" y="6" x="6" height="38" width="38"
        fill="#f2f5e9" fill-opacity="0.5" stroke="#606060" stroke-width="1.0"/>
   <path id="arrow"
     d="M 11.500037,31.436501 C 11.940474,20.09759 22.043105,11.32322 32.158766,21.979434 L 37.068811,17.246167 C 37.068811,17.246167 37.088388,32 37.088388,32 L 22.160133,31.978069 C 22.160133,31.978069 26.997745,27.140456 26.997745,27.140456 C 18.528582,18.264221 13.291696,25.230495 11.500037,31.436501 z"
     style="fill:#404040;"/>
  </a>
 </g>
</svg>

<style type='text/css'>
<![CDATA[
[data-mouse-over-selected='false'] { opacity: 0.7; }
[data-mouse-over-selected='true']  { opacity: 1.0; }
]]>
</style>
<script type="application/ecmascript"><![CDATA[
document.addEventListener('DOMContentLoaded', (event) => {
  highlightEdges();
  highlightAdjacentNodes();
});
]]></script>
</svg>
