<?xml version="1.0" encoding="UTF-8" standalone="no"?>
<!DOCTYPE svg PUBLIC "-//W3C//DTD SVG 1.1//EN"
 "http://www.w3.org/Graphics/SVG/1.1/DTD/svg11.dtd">
<!-- Generated by graphviz version 2.43.0 (0)
 -->
<!-- Title: squid/src/base/File.cc Pages: 1 -->
<!--zoomable 247 -->

<svg id="main" version="1.1" xmlns="http://www.w3.org/2000/svg" xmlns:xlink="http://www.w3.org/1999/xlink" xml:space="preserve" onload="init(evt)">
<style type="text/css"><![CDATA[
.node, .edge {opacity: 0.7;}
.node.selected, .edge.selected {opacity: 1;}
.edge:hover path { stroke: red; }
.edge:hover polygon { stroke: red; fill: red; }
]]></style>

<defs>
  <circle id="rim" cx="0" cy="0" r="7"/>
  <circle id="rim2" cx="0" cy="0" r="3.5"/>
  <g id="zoomPlus">
    <use xlink:href="#rim" fill="#404040"><set attributeName="fill" to="#808080" begin="zoomplus.mouseover" end="zoomplus.mouseout"/></use>
    <path d="M-4,0h8M0,-4v8" fill="none" stroke="white" stroke-width="1.5" pointer-events="none"/>
  </g>
  <g id="zoomMin">
    <use xlink:href="#rim" fill="#404040"><set attributeName="fill" to="#808080" begin="zoomminus.mouseover" end="zoomminus.mouseout"/></use>
    <path d="M-4,0h8" fill="none" stroke="white" stroke-width="1.5" pointer-events="none"/>
  </g>
  <g id="arrowUp" transform="translate(30 24)">
    <use xlink:href="#rim"/>
    <path pointer-events="none" fill="none" stroke="white" stroke-width="1.5" d="M0,-3.0v7 M-2.5,-0.5L0,-3.0L2.5,-0.5"/>
  </g>
  <g id="arrowRight" transform="rotate(90) translate(36 -43)">
    <use xlink:href="#rim"/>
    <path pointer-events="none" fill="none" stroke="white" stroke-width="1.5" d="M0,-3.0v7 M-2.5,-0.5L0,-3.0L2.5,-0.5"/>
  </g>
  <g id="arrowDown" transform="rotate(180) translate(-30 -48)">
    <use xlink:href="#rim"/>
    <path pointer-events="none" fill="none" stroke="white" stroke-width="1.5" d="M0,-3.0v7 M-2.5,-0.5L0,-3.0L2.5,-0.5"/>
  </g>
  <g id="arrowLeft" transform="rotate(270) translate(-36 17)">
    <use xlink:href="#rim"/>
    <path pointer-events="none" fill="none" stroke="white" stroke-width="1.5" d="M0,-3.0v7 M-2.5,-0.5L0,-3.0L2.5,-0.5"/>
  </g>
  <g id="resetDef">
    <use xlink:href="#rim2" fill="#404040"><set attributeName="fill" to="#808080" begin="reset.mouseover" end="reset.mouseout"/></use>
  </g>
</defs>
<script type="application/ecmascript">
var viewWidth = 3888;
var viewHeight = 247;
var sectionId = 'dynsection-0';
</script>
<script type="application/ecmascript" xlink:href="svg.min.js"/>
<svg id="graph" class="graph">
<g id="viewport">
<title>squid/src/base/File.cc</title>
<!-- Node1 -->
<g id="Node000001" class="node">
<title>Node1</title>
<g id="a_Node000001"><a xlink:title=" ">
<polygon fill="#999999" stroke="#666666" points="3577,-239 3457,-239 3457,-220 3577,-220 3577,-239"/>
<text text-anchor="middle" x="3517" y="-227" font-family="Helvetica,sans-Serif" font-size="10.00">squid/src/base/File.cc</text>
</a>
</g>
</g>
<!-- Node2 -->
<g id="Node000002" class="node">
<title>Node2</title>
<g id="a_Node000002"><a xlink:href="squid_8h.html" target="_top" xlink:title=" ">
<polygon fill="white" stroke="#666666" points="1663,-184 1611,-184 1611,-165 1663,-165 1663,-184"/>
<text text-anchor="middle" x="1637" y="-172" font-family="Helvetica,sans-Serif" font-size="10.00">squid.h</text>
</a>
</g>
</g>
<!-- Node1&#45;&gt;Node2 -->
<g id="edge1_Node000001_Node000002" class="edge">
<title>Node1&#45;&gt;Node2</title>
<g id="a_edge1_Node000001_Node000002"><a xlink:title=" ">
<path fill="none" stroke="#63b8ff" d="M3456.84,-226.8C3165.33,-218.59 1904.25,-183.03 1673.37,-176.53"/>
<polygon fill="#63b8ff" stroke="#63b8ff" points="1673.26,-173.02 1663.16,-176.24 1673.06,-180.02 1673.26,-173.02"/>
</a>
</g>
</g>
<!-- Node44 -->
<g id="Node000044" class="node">
<title>Node44</title>
<g id="a_Node000044"><a xlink:href="base_2File_8h.html" target="_top" xlink:title=" ">
<polygon fill="white" stroke="#666666" points="3282.5,-184 3213.5,-184 3213.5,-165 3282.5,-165 3282.5,-184"/>
<text text-anchor="middle" x="3248" y="-172" font-family="Helvetica,sans-Serif" font-size="10.00">base/File.h</text>
</a>
</g>
</g>
<!-- Node1&#45;&gt;Node44 -->
<g id="edge30_Node000001_Node000044" class="edge">
<title>Node1&#45;&gt;Node44</title>
<g id="a_edge30_Node000001_Node000044"><a xlink:title=" ">
<path fill="none" stroke="#63b8ff" d="M3473.67,-219.98C3430.31,-211.45 3361.4,-197.89 3292.84,-184.36"/>
<polygon fill="#63b8ff" stroke="#63b8ff" points="3293.22,-180.87 3282.73,-182.37 3291.87,-187.74 3293.22,-180.87"/>
</a>
</g>
</g>
<!-- Node52 -->
<g id="Node000052" class="node">
<title>Node52</title>
<g id="a_Node000052"><a xlink:href="debug_2Stream_8h.html" target="_top" xlink:title=" ">
<polygon fill="white" stroke="#666666" points="3272,-74 3178,-74 3178,-55 3272,-55 3272,-74"/>
<text text-anchor="middle" x="3225" y="-62" font-family="Helvetica,sans-Serif" font-size="10.00">debug/Stream.h</text>
</a>
</g>
</g>
<!-- Node1&#45;&gt;Node52 -->
<g id="edge45_Node000001_Node000052" class="edge">
<title>Node1&#45;&gt;Node52</title>
<g id="a_edge45_Node000001_Node000052"><a xlink:title=" ">
<path fill="none" stroke="#63b8ff" d="M3456.8,-228.9C3375.22,-228.02 3236.06,-220.94 3204,-184 3179.34,-155.58 3199.77,-108.5 3214.05,-83.08"/>
<polygon fill="#63b8ff" stroke="#63b8ff" points="3217.23,-84.59 3219.29,-74.2 3211.2,-81.03 3217.23,-84.59"/>
</a>
</g>
</g>
<!-- Node80 -->
<g id="Node000080" class="node">
<title>Node80</title>
<g id="a_Node000080"><a xlink:href="socket_8h.html" target="_top" xlink:title=" ">
<polygon fill="white" stroke="#666666" points="3397.5,-184 3300.5,-184 3300.5,-165 3397.5,-165 3397.5,-184"/>
<text text-anchor="middle" x="3349" y="-172" font-family="Helvetica,sans-Serif" font-size="10.00">compat/socket.h</text>
</a>
</g>
</g>
<!-- Node1&#45;&gt;Node80 -->
<g id="edge43_Node000001_Node000080" class="edge">
<title>Node1&#45;&gt;Node80</title>
<g id="a_edge43_Node000001_Node000080"><a xlink:title=" ">
<path fill="none" stroke="#63b8ff" d="M3490.01,-219.98C3461.8,-211.09 3417.36,-197.07 3385.92,-187.15"/>
<polygon fill="#63b8ff" stroke="#63b8ff" points="3386.79,-183.75 3376.2,-184.08 3384.69,-190.43 3386.79,-183.75"/>
</a>
</g>
</g>
<!-- Node81 -->
<g id="Node000081" class="node">
<title>Node81</title>
<g id="a_Node000081"><a xlink:href="unistd_8h.html" target="_top" xlink:title=" ">
<polygon fill="white" stroke="#666666" points="3510.5,-184 3415.5,-184 3415.5,-165 3510.5,-165 3510.5,-184"/>
<text text-anchor="middle" x="3463" y="-172" font-family="Helvetica,sans-Serif" font-size="10.00">compat/unistd.h</text>
</a>
</g>
</g>
<!-- Node1&#45;&gt;Node81 -->
<g id="edge44_Node000001_Node000081" class="edge">
<title>Node1&#45;&gt;Node81</title>
<g id="a_edge44_Node000001_Node000081"><a xlink:title=" ">
<path fill="none" stroke="#63b8ff" d="M3508.08,-219.75C3500.22,-212.03 3488.57,-200.6 3479.08,-191.28"/>
<polygon fill="#63b8ff" stroke="#63b8ff" points="3481.34,-188.6 3471.75,-184.09 3476.44,-193.59 3481.34,-188.6"/>
</a>
</g>
</g>
<!-- Node82 -->
<g id="Node000082" class="node">
<title>Node82</title>
<g id="a_Node000082"><a xlink:href="sbuf_2Stream_8h.html" target="_top" xlink:title=" ">
<polygon fill="white" stroke="#666666" points="3613.5,-184 3528.5,-184 3528.5,-165 3613.5,-165 3613.5,-184"/>
<text text-anchor="middle" x="3571" y="-172" font-family="Helvetica,sans-Serif" font-size="10.00">sbuf/Stream.h</text>
</a>
</g>
</g>
<!-- Node1&#45;&gt;Node82 -->
<g id="edge46_Node000001_Node000082" class="edge">
<title>Node1&#45;&gt;Node82</title>
<g id="a_edge46_Node000001_Node000082"><a xlink:title=" ">
<path fill="none" stroke="#63b8ff" d="M3525.92,-219.75C3533.78,-212.03 3545.43,-200.6 3554.92,-191.28"/>
<polygon fill="#63b8ff" stroke="#63b8ff" points="3557.56,-193.59 3562.25,-184.09 3552.66,-188.6 3557.56,-193.59"/>
</a>
</g>
</g>
<!-- Node86 -->
<g id="Node000086" class="node">
<title>Node86</title>
<g id="a_Node000086"><a xlink:title=" ">
<polygon fill="#e0e0e0" stroke="#999999" points="3682,-184 3632,-184 3632,-165 3682,-165 3682,-184"/>
<text text-anchor="middle" x="3657" y="-172" font-family="Helvetica,sans-Serif" font-size="10.00">tools.h</text>
</a>
</g>
</g>
<!-- Node1&#45;&gt;Node86 -->
<g id="edge49_Node000001_Node000086" class="edge">
<title>Node1&#45;&gt;Node86</title>
<g id="a_edge49_Node000001_Node000086"><a xlink:title=" ">
<path fill="none" stroke="#63b8ff" d="M3539.49,-219.98C3562.52,-211.27 3598.54,-197.63 3624.63,-187.75"/>
<polygon fill="#63b8ff" stroke="#63b8ff" points="3625.98,-190.98 3634.1,-184.17 3623.51,-184.44 3625.98,-190.98"/>
</a>
</g>
</g>
<!-- Node87 -->
<g id="Node000087" class="node">
<title>Node87</title>
<g id="a_Node000087"><a xlink:title=" ">
<polygon fill="#e0e0e0" stroke="#999999" points="3750,-184 3700,-184 3700,-165 3750,-165 3750,-184"/>
<text text-anchor="middle" x="3725" y="-172" font-family="Helvetica,sans-Serif" font-size="10.00">chrono</text>
</a>
</g>
</g>
<!-- Node1&#45;&gt;Node87 -->
<g id="edge50_Node000001_Node000087" class="edge">
<title>Node1&#45;&gt;Node87</title>
<g id="a_edge50_Node000001_Node000087"><a xlink:title=" ">
<path fill="none" stroke="#63b8ff" d="M3550.42,-219.98C3588.69,-210.23 3651.09,-194.33 3690.01,-184.42"/>
<polygon fill="#63b8ff" stroke="#63b8ff" points="3691.01,-187.77 3699.84,-181.91 3689.29,-180.99 3691.01,-187.77"/>
</a>
</g>
</g>
<!-- Node88 -->
<g id="Node000088" class="node">
<title>Node88</title>
<g id="a_Node000088"><a xlink:title=" ">
<polygon fill="#e0e0e0" stroke="#999999" points="3816,-184 3768,-184 3768,-165 3816,-165 3816,-184"/>
<text text-anchor="middle" x="3792" y="-172" font-family="Helvetica,sans-Serif" font-size="10.00">thread</text>
</a>
</g>
</g>
<!-- Node1&#45;&gt;Node88 -->
<g id="edge51_Node000001_Node000088" class="edge">
<title>Node1&#45;&gt;Node88</title>
<g id="a_edge51_Node000001_Node000088"><a xlink:title=" ">
<path fill="none" stroke="#63b8ff" d="M3569.61,-219.92C3616.57,-212.02 3687.41,-199.49 3757.95,-184.11"/>
<polygon fill="#63b8ff" stroke="#63b8ff" points="3758.88,-187.48 3767.9,-181.92 3757.38,-180.65 3758.88,-187.48"/>
</a>
</g>
</g>
<!-- Node66 -->
<g id="Node000066" class="node">
<title>Node66</title>
<g id="a_Node000066"><a xlink:title=" ">
<polygon fill="#e0e0e0" stroke="#999999" points="3879.5,-184 3834.5,-184 3834.5,-165 3879.5,-165 3879.5,-184"/>
<text text-anchor="middle" x="3857" y="-172" font-family="Helvetica,sans-Serif" font-size="10.00">utility</text>
</a>
</g>
</g>
<!-- Node1&#45;&gt;Node66 -->
<g id="edge52_Node000001_Node000066" class="edge">
<title>Node1&#45;&gt;Node66</title>
<g id="a_edge52_Node000001_Node000066"><a xlink:title=" ">
<path fill="none" stroke="#63b8ff" d="M3577.27,-221.89C3637.43,-214.82 3732.66,-202.36 3824.34,-183.91"/>
<polygon fill="#63b8ff" stroke="#63b8ff" points="3825.25,-187.29 3834.35,-181.86 3823.85,-180.43 3825.25,-187.29"/>
</a>
</g>
</g>
<!-- Node3 -->
<g id="Node000003" class="node">
<title>Node3</title>
<g id="a_Node000003"><a xlink:href="autoconf_8h.html" target="_top" xlink:title=" ">
<polygon fill="white" stroke="#666666" points="1538,-129 1470,-129 1470,-110 1538,-110 1538,-129"/>
<text text-anchor="middle" x="1504" y="-117" font-family="Helvetica,sans-Serif" font-size="10.00">autoconf.h</text>
</a>
</g>
</g>
<!-- Node2&#45;&gt;Node3 -->
<g id="edge2_Node000002_Node000003" class="edge">
<title>Node2&#45;&gt;Node3</title>
<g id="a_edge2_Node000002_Node000003"><a xlink:title=" ">
<path fill="none" stroke="#63b8ff" d="M1615.63,-164.98C1593.85,-156.3 1559.84,-142.75 1535.08,-132.88"/>
<polygon fill="#63b8ff" stroke="#63b8ff" points="1536.34,-129.62 1525.76,-129.17 1533.75,-136.12 1536.34,-129.62"/>
</a>
</g>
</g>
<!-- Node4 -->
<g id="Node000004" class="node">
<title>Node4</title>
<g id="a_Node000004"><a xlink:href="version_8h.html" target="_top" xlink:title=" ">
<polygon fill="white" stroke="#666666" points="1618,-129 1556,-129 1556,-110 1618,-110 1618,-129"/>
<text text-anchor="middle" x="1587" y="-117" font-family="Helvetica,sans-Serif" font-size="10.00">version.h</text>
</a>
</g>
</g>
<!-- Node2&#45;&gt;Node4 -->
<g id="edge3_Node000002_Node000004" class="edge">
<title>Node2&#45;&gt;Node4</title>
<g id="a_edge3_Node000002_Node000004"><a xlink:title=" ">
<path fill="none" stroke="#63b8ff" d="M1628.74,-164.75C1621.54,-157.11 1610.89,-145.82 1602.15,-136.56"/>
<polygon fill="#63b8ff" stroke="#63b8ff" points="1604.51,-133.96 1595.1,-129.09 1599.42,-138.76 1604.51,-133.96"/>
</a>
</g>
</g>
<!-- Node5 -->
<g id="Node000005" class="node">
<title>Node5</title>
<g id="a_Node000005"><a xlink:href="compat_8h.html" target="_top" xlink:title=" ">
<polygon fill="white" stroke="#666666" points="1738,-129 1636,-129 1636,-110 1738,-110 1738,-129"/>
<text text-anchor="middle" x="1687" y="-117" font-family="Helvetica,sans-Serif" font-size="10.00">compat/compat.h</text>
</a>
</g>
</g>
<!-- Node2&#45;&gt;Node5 -->
<g id="edge4_Node000002_Node000005" class="edge">
<title>Node2&#45;&gt;Node5</title>
<g id="a_edge4_Node000002_Node000005"><a xlink:title=" ">
<path fill="none" stroke="#63b8ff" d="M1645.26,-164.75C1652.46,-157.11 1663.11,-145.82 1671.85,-136.56"/>
<polygon fill="#63b8ff" stroke="#63b8ff" points="1674.58,-138.76 1678.9,-129.09 1669.49,-133.96 1674.58,-138.76"/>
</a>
</g>
</g>
<!-- Node6 -->
<g id="Node000006" class="node">
<title>Node6</title>
<g id="a_Node000006"><a xlink:href="osdetect_8h.html" target="_top" xlink:title=" ">
<polygon fill="white" stroke="#666666" points="2673.5,-74 2566.5,-74 2566.5,-55 2673.5,-55 2673.5,-74"/>
<text text-anchor="middle" x="2620" y="-62" font-family="Helvetica,sans-Serif" font-size="10.00">compat/osdetect.h</text>
</a>
</g>
</g>
<!-- Node5&#45;&gt;Node6 -->
<g id="edge5_Node000005_Node000006" class="edge">
<title>Node5&#45;&gt;Node6</title>
<g id="a_edge5_Node000005_Node000006"><a xlink:title=" ">
<path fill="none" stroke="#63b8ff" d="M1738.1,-117.37C1871.03,-114.1 2238.77,-103.05 2556.1,-73.99"/>
<polygon fill="#63b8ff" stroke="#63b8ff" points="2556.78,-77.44 2566.42,-73.04 2556.14,-70.47 2556.78,-77.44"/>
</a>
</g>
</g>
<!-- Node7 -->
<g id="Node000007" class="node">
<title>Node7</title>
<g id="a_Node000007"><a xlink:href="fdsetsize_8h.html" target="_top" xlink:title=" ">
<polygon fill="white" stroke="#666666" points="2802,-74 2692,-74 2692,-55 2802,-55 2802,-74"/>
<text text-anchor="middle" x="2747" y="-62" font-family="Helvetica,sans-Serif" font-size="10.00">compat/fdsetsize.h</text>
</a>
</g>
</g>
<!-- Node5&#45;&gt;Node7 -->
<g id="edge6_Node000005_Node000007" class="edge">
<title>Node5&#45;&gt;Node7</title>
<g id="a_edge6_Node000005_Node000007"><a xlink:title=" ">
<path fill="none" stroke="#63b8ff" d="M1738.1,-117.75C1883.73,-115.3 2313.48,-105.76 2681.66,-73.93"/>
<polygon fill="#63b8ff" stroke="#63b8ff" points="2682.06,-77.41 2691.72,-73.06 2681.45,-70.44 2682.06,-77.41"/>
</a>
</g>
</g>
<!-- Node8 -->
<g id="Node000008" class="node">
<title>Node8</title>
<g id="a_Node000008"><a xlink:href="types_8h.html" target="_top" xlink:title=" ">
<polygon fill="#fff0f0" stroke="red" points="2912,-74 2820,-74 2820,-55 2912,-55 2912,-74"/>
<text text-anchor="middle" x="2866" y="-62" font-family="Helvetica,sans-Serif" font-size="10.00">compat/types.h</text>
</a>
</g>
</g>
<!-- Node5&#45;&gt;Node8 -->
<g id="edge7_Node000005_Node000008" class="edge">
<title>Node5&#45;&gt;Node8</title>
<g id="a_edge7_Node000005_Node000008"><a xlink:title=" ">
<path fill="none" stroke="#63b8ff" d="M1738.11,-118.54C1896.05,-118.24 2390.37,-113.99 2809.63,-74.01"/>
<polygon fill="#63b8ff" stroke="#63b8ff" points="2810.22,-77.47 2819.83,-73.02 2809.55,-70.5 2810.22,-77.47"/>
</a>
</g>
</g>
<!-- Node10 -->
<g id="Node000010" class="node">
<title>Node10</title>
<g id="a_Node000010"><a xlink:href="aix_8h.html" target="_top" xlink:title=" ">
<polygon fill="white" stroke="#666666" points="3025.5,-74 2930.5,-74 2930.5,-55 3025.5,-55 3025.5,-74"/>
<text text-anchor="middle" x="2978" y="-62" font-family="Helvetica,sans-Serif" font-size="10.00">compat/os/aix.h</text>
</a>
</g>
</g>
<!-- Node5&#45;&gt;Node10 -->
<g id="edge8_Node000005_Node000010" class="edge">
<title>Node5&#45;&gt;Node10</title>
<g id="a_edge8_Node000005_Node000010"><a xlink:title=" ">
<path fill="none" stroke="#63b8ff" d="M1738.26,-118.7C1906.26,-118.94 2455.52,-116.25 2920.19,-73.94"/>
<polygon fill="#63b8ff" stroke="#63b8ff" points="2920.82,-77.4 2930.46,-73 2920.18,-70.42 2920.82,-77.4"/>
</a>
</g>
</g>
<!-- Node11 -->
<g id="Node000011" class="node">
<title>Node11</title>
<g id="a_Node000011"><a xlink:href="android_8h.html" target="_top" xlink:title=" ">
<polygon fill="white" stroke="#666666" points="3160,-74 3044,-74 3044,-55 3160,-55 3160,-74"/>
<text text-anchor="middle" x="3102" y="-62" font-family="Helvetica,sans-Serif" font-size="10.00">compat/os/android.h</text>
</a>
</g>
</g>
<!-- Node5&#45;&gt;Node11 -->
<g id="edge9_Node000005_Node000011" class="edge">
<title>Node5&#45;&gt;Node11</title>
<g id="a_edge9_Node000005_Node000011"><a xlink:title=" ">
<path fill="none" stroke="#63b8ff" d="M1738.17,-118.49C1915.72,-118.1 2521.81,-113.81 3033.62,-73.93"/>
<polygon fill="#63b8ff" stroke="#63b8ff" points="3034.1,-77.4 3043.8,-73.13 3033.55,-70.42 3034.1,-77.4"/>
</a>
</g>
</g>
<!-- Node12 -->
<g id="Node000012" class="node">
<title>Node12</title>
<g id="a_Node000012"><a xlink:href="dragonfly_8h.html" target="_top" xlink:title=" ">
<polygon fill="white" stroke="#666666" points="124,-74 0,-74 0,-55 124,-55 124,-74"/>
<text text-anchor="middle" x="62" y="-62" font-family="Helvetica,sans-Serif" font-size="10.00">compat/os/dragonfly.h</text>
</a>
</g>
</g>
<!-- Node5&#45;&gt;Node12 -->
<g id="edge10_Node000005_Node000012" class="edge">
<title>Node5&#45;&gt;Node12</title>
<g id="a_edge10_Node000005_Node000012"><a xlink:title=" ">
<path fill="none" stroke="#63b8ff" d="M1635.98,-110.86C1632.95,-110.53 1629.94,-110.24 1627,-110 968.46,-55.61 797.24,-120.85 134.59,-74.03"/>
<polygon fill="#63b8ff" stroke="#63b8ff" points="134.53,-70.52 124.31,-73.3 134.03,-77.5 134.53,-70.52"/>
</a>
</g>
</g>
<!-- Node13 -->
<g id="Node000013" class="node">
<title>Node13</title>
<g id="a_Node000013"><a xlink:href="freebsd_8h.html" target="_top" xlink:title=" ">
<polygon fill="white" stroke="#666666" points="258,-74 142,-74 142,-55 258,-55 258,-74"/>
<text text-anchor="middle" x="200" y="-62" font-family="Helvetica,sans-Serif" font-size="10.00">compat/os/freebsd.h</text>
</a>
</g>
</g>
<!-- Node5&#45;&gt;Node13 -->
<g id="edge11_Node000005_Node000013" class="edge">
<title>Node5&#45;&gt;Node13</title>
<g id="a_edge11_Node000005_Node000013"><a xlink:title=" ">
<path fill="none" stroke="#63b8ff" d="M1635.98,-110.87C1632.95,-110.54 1629.94,-110.25 1627,-110 1027.84,-59.79 871.65,-119.43 268.33,-74.01"/>
<polygon fill="#63b8ff" stroke="#63b8ff" points="268.3,-70.49 258.07,-73.23 267.77,-77.47 268.3,-70.49"/>
</a>
</g>
</g>
<!-- Node14 -->
<g id="Node000014" class="node">
<title>Node14</title>
<g id="a_Node000014"><a xlink:href="hpux_8h.html" target="_top" xlink:title=" ">
<polygon fill="white" stroke="#666666" points="380,-74 276,-74 276,-55 380,-55 380,-74"/>
<text text-anchor="middle" x="328" y="-62" font-family="Helvetica,sans-Serif" font-size="10.00">compat/os/hpux.h</text>
</a>
</g>
</g>
<!-- Node5&#45;&gt;Node14 -->
<g id="edge12_Node000005_Node000014" class="edge">
<title>Node5&#45;&gt;Node14</title>
<g id="a_edge12_Node000005_Node000014"><a xlink:title=" ">
<path fill="none" stroke="#63b8ff" d="M1635.98,-110.88C1632.95,-110.55 1629.94,-110.25 1627,-110 1081.88,-63.61 939.26,-119.36 390.36,-74"/>
<polygon fill="#63b8ff" stroke="#63b8ff" points="390.46,-70.5 380.2,-73.16 389.88,-77.48 390.46,-70.5"/>
</a>
</g>
</g>
<!-- Node15 -->
<g id="Node000015" class="node">
<title>Node15</title>
<g id="a_Node000015"><a xlink:href="linux_8h.html" target="_top" xlink:title=" ">
<polygon fill="white" stroke="#666666" points="502,-74 398,-74 398,-55 502,-55 502,-74"/>
<text text-anchor="middle" x="450" y="-62" font-family="Helvetica,sans-Serif" font-size="10.00">compat/os/linux.h</text>
</a>
</g>
</g>
<!-- Node5&#45;&gt;Node15 -->
<g id="edge13_Node000005_Node000015" class="edge">
<title>Node5&#45;&gt;Node15</title>
<g id="a_edge13_Node000005_Node000015"><a xlink:title=" ">
<path fill="none" stroke="#63b8ff" d="M1635.98,-110.89C1632.95,-110.55 1629.93,-110.25 1627,-110 1135.98,-67.43 1007.21,-115.64 512.47,-74.02"/>
<polygon fill="#63b8ff" stroke="#63b8ff" points="512.46,-70.5 502.2,-73.15 511.87,-77.48 512.46,-70.5"/>
</a>
</g>
</g>
<!-- Node16 -->
<g id="Node000016" class="node">
<title>Node16</title>
<g id="a_Node000016"><a xlink:href="macosx_8h.html" target="_top" xlink:title=" ">
<polygon fill="white" stroke="#666666" points="638,-74 520,-74 520,-55 638,-55 638,-74"/>
<text text-anchor="middle" x="579" y="-62" font-family="Helvetica,sans-Serif" font-size="10.00">compat/os/macosx.h</text>
</a>
</g>
</g>
<!-- Node5&#45;&gt;Node16 -->
<g id="edge14_Node000005_Node000016" class="edge">
<title>Node5&#45;&gt;Node16</title>
<g id="a_edge14_Node000005_Node000016"><a xlink:title=" ">
<path fill="none" stroke="#63b8ff" d="M1635.98,-110.9C1632.94,-110.57 1629.93,-110.26 1627,-110 1196.15,-71.67 1083.14,-108.5 648.31,-74.03"/>
<polygon fill="#63b8ff" stroke="#63b8ff" points="648.55,-70.53 638.31,-73.22 648,-77.51 648.55,-70.53"/>
</a>
</g>
</g>
<!-- Node17 -->
<g id="Node000017" class="node">
<title>Node17</title>
<g id="a_Node000017"><a xlink:href="mingw_8h.html" target="_top" xlink:title=" ">
<polygon fill="white" stroke="#666666" points="768,-74 656,-74 656,-55 768,-55 768,-74"/>
<text text-anchor="middle" x="712" y="-62" font-family="Helvetica,sans-Serif" font-size="10.00">compat/os/mingw.h</text>
</a>
</g>
</g>
<!-- Node5&#45;&gt;Node17 -->
<g id="edge15_Node000005_Node000017" class="edge">
<title>Node5&#45;&gt;Node17</title>
<g id="a_edge15_Node000005_Node000017"><a xlink:title=" ">
<path fill="none" stroke="#63b8ff" d="M1635.98,-110.92C1632.94,-110.58 1629.93,-110.27 1627,-110 1253.78,-75.74 1155.44,-106 778.43,-74.04"/>
<polygon fill="#63b8ff" stroke="#63b8ff" points="778.6,-70.54 768.34,-73.17 778,-77.52 778.6,-70.54"/>
</a>
</g>
</g>
<!-- Node18 -->
<g id="Node000018" class="node">
<title>Node18</title>
<g id="a_Node000018"><a xlink:href="mswindows_8h.html" target="_top" xlink:title=" ">
<polygon fill="white" stroke="#666666" points="923.5,-74 786.5,-74 786.5,-55 923.5,-55 923.5,-74"/>
<text text-anchor="middle" x="855" y="-62" font-family="Helvetica,sans-Serif" font-size="10.00">compat/os/mswindows.h</text>
</a>
</g>
</g>
<!-- Node5&#45;&gt;Node18 -->
<g id="edge16_Node000005_Node000018" class="edge">
<title>Node5&#45;&gt;Node18</title>
<g id="a_edge16_Node000005_Node000018"><a xlink:title=" ">
<path fill="none" stroke="#63b8ff" d="M1635.97,-110.96C1632.94,-110.61 1629.93,-110.28 1627,-110 1322.44,-80.6 1242.01,-98.58 933.94,-74.11"/>
<polygon fill="#63b8ff" stroke="#63b8ff" points="934.08,-70.61 923.83,-73.3 933.52,-77.59 934.08,-70.61"/>
</a>
</g>
</g>
<!-- Node19 -->
<g id="Node000019" class="node">
<title>Node19</title>
<g id="a_Node000019"><a xlink:href="netbsd_8h.html" target="_top" xlink:title=" ">
<polygon fill="white" stroke="#666666" points="1054.5,-74 941.5,-74 941.5,-55 1054.5,-55 1054.5,-74"/>
<text text-anchor="middle" x="998" y="-62" font-family="Helvetica,sans-Serif" font-size="10.00">compat/os/netbsd.h</text>
</a>
</g>
</g>
<!-- Node5&#45;&gt;Node19 -->
<g id="edge17_Node000005_Node000019" class="edge">
<title>Node5&#45;&gt;Node19</title>
<g id="a_edge17_Node000005_Node000019"><a xlink:title=" ">
<path fill="none" stroke="#63b8ff" d="M1635.97,-111C1632.94,-110.64 1629.93,-110.3 1627,-110 1380.43,-84.7 1314.72,-97.94 1064.81,-74.11"/>
<polygon fill="#63b8ff" stroke="#63b8ff" points="1064.98,-70.61 1054.7,-73.14 1064.31,-77.58 1064.98,-70.61"/>
</a>
</g>
</g>
<!-- Node20 -->
<g id="Node000020" class="node">
<title>Node20</title>
<g id="a_Node000020"><a xlink:href="openbsd_8h.html" target="_top" xlink:title=" ">
<polygon fill="white" stroke="#666666" points="1193.5,-74 1072.5,-74 1072.5,-55 1193.5,-55 1193.5,-74"/>
<text text-anchor="middle" x="1133" y="-62" font-family="Helvetica,sans-Serif" font-size="10.00">compat/os/openbsd.h</text>
</a>
</g>
</g>
<!-- Node5&#45;&gt;Node20 -->
<g id="edge18_Node000005_Node000020" class="edge">
<title>Node5&#45;&gt;Node20</title>
<g id="a_edge18_Node000005_Node000020"><a xlink:title=" ">
<path fill="none" stroke="#63b8ff" d="M1635.96,-111.07C1632.93,-110.69 1629.93,-110.33 1627,-110 1441.85,-89.06 1392.23,-93.43 1203.54,-74.12"/>
<polygon fill="#63b8ff" stroke="#63b8ff" points="1203.87,-70.64 1193.57,-73.09 1203.16,-77.6 1203.87,-70.64"/>
</a>
</g>
</g>
<!-- Node21 -->
<g id="Node000021" class="node">
<title>Node21</title>
<g id="a_Node000021"><a xlink:href="os2_8h.html" target="_top" xlink:title=" ">
<polygon fill="white" stroke="#666666" points="1308.5,-74 1211.5,-74 1211.5,-55 1308.5,-55 1308.5,-74"/>
<text text-anchor="middle" x="1260" y="-62" font-family="Helvetica,sans-Serif" font-size="10.00">compat/os/os2.h</text>
</a>
</g>
</g>
<!-- Node5&#45;&gt;Node21 -->
<g id="edge19_Node000005_Node000021" class="edge">
<title>Node5&#45;&gt;Node21</title>
<g id="a_edge19_Node000005_Node000021"><a xlink:title=" ">
<path fill="none" stroke="#63b8ff" d="M1635.95,-111.18C1632.92,-110.77 1629.92,-110.38 1627,-110 1493.09,-92.72 1456.77,-92.05 1318.83,-74.07"/>
<polygon fill="#63b8ff" stroke="#63b8ff" points="1319.09,-70.58 1308.72,-72.75 1318.18,-77.52 1319.09,-70.58"/>
</a>
</g>
</g>
<!-- Node22 -->
<g id="Node000022" class="node">
<title>Node22</title>
<g id="a_Node000022"><a xlink:href="qnx_8h.html" target="_top" xlink:title=" ">
<polygon fill="white" stroke="#666666" points="1425,-74 1327,-74 1327,-55 1425,-55 1425,-74"/>
<text text-anchor="middle" x="1376" y="-62" font-family="Helvetica,sans-Serif" font-size="10.00">compat/os/qnx.h</text>
</a>
</g>
</g>
<!-- Node5&#45;&gt;Node22 -->
<g id="edge20_Node000005_Node000022" class="edge">
<title>Node5&#45;&gt;Node22</title>
<g id="a_edge20_Node000005_Node000022"><a xlink:title=" ">
<path fill="none" stroke="#63b8ff" d="M1637.03,-109.98C1582.04,-100.61 1493.71,-85.56 1435.26,-75.6"/>
<polygon fill="#63b8ff" stroke="#63b8ff" points="1435.52,-72.09 1425.07,-73.86 1434.34,-78.99 1435.52,-72.09"/>
</a>
</g>
</g>
<!-- Node23 -->
<g id="Node000023" class="node">
<title>Node23</title>
<g id="a_Node000023"><a xlink:href="solaris_8h.html" target="_top" xlink:title=" ">
<polygon fill="white" stroke="#666666" points="1555,-74 1443,-74 1443,-55 1555,-55 1555,-74"/>
<text text-anchor="middle" x="1499" y="-62" font-family="Helvetica,sans-Serif" font-size="10.00">compat/os/solaris.h</text>
</a>
</g>
</g>
<!-- Node5&#45;&gt;Node23 -->
<g id="edge21_Node000005_Node000023" class="edge">
<title>Node5&#45;&gt;Node23</title>
<g id="a_edge21_Node000005_Node000023"><a xlink:title=" ">
<path fill="none" stroke="#63b8ff" d="M1656.79,-109.98C1624.96,-101.01 1574.64,-86.82 1539.4,-76.89"/>
<polygon fill="#63b8ff" stroke="#63b8ff" points="1540.02,-73.43 1529.44,-74.08 1538.12,-80.16 1540.02,-73.43"/>
</a>
</g>
</g>
<!-- Node24 -->
<g id="Node000024" class="node">
<title>Node24</title>
<g id="a_Node000024"><a xlink:href="sunos_8h.html" target="_top" xlink:title=" ">
<polygon fill="white" stroke="#666666" points="1681,-74 1573,-74 1573,-55 1681,-55 1681,-74"/>
<text text-anchor="middle" x="1627" y="-62" font-family="Helvetica,sans-Serif" font-size="10.00">compat/os/sunos.h</text>
</a>
</g>
</g>
<!-- Node5&#45;&gt;Node24 -->
<g id="edge22_Node000005_Node000024" class="edge">
<title>Node5&#45;&gt;Node24</title>
<g id="a_edge22_Node000005_Node000024"><a xlink:title=" ">
<path fill="none" stroke="#63b8ff" d="M1677.36,-109.98C1668.49,-102.15 1655.13,-90.34 1644.39,-80.86"/>
<polygon fill="#63b8ff" stroke="#63b8ff" points="1646.63,-78.17 1636.82,-74.17 1641.99,-83.41 1646.63,-78.17"/>
</a>
</g>
</g>
<!-- Node25 -->
<g id="Node000025" class="node">
<title>Node25</title>
<g id="a_Node000025"><a xlink:href="assert_8h.html" target="_top" xlink:title=" ">
<polygon fill="white" stroke="#666666" points="1794.5,-74 1699.5,-74 1699.5,-55 1794.5,-55 1794.5,-74"/>
<text text-anchor="middle" x="1747" y="-62" font-family="Helvetica,sans-Serif" font-size="10.00">compat/assert.h</text>
</a>
</g>
</g>
<!-- Node5&#45;&gt;Node25 -->
<g id="edge23_Node000005_Node000025" class="edge">
<title>Node5&#45;&gt;Node25</title>
<g id="a_edge23_Node000005_Node000025"><a xlink:title=" ">
<path fill="none" stroke="#63b8ff" d="M1696.64,-109.98C1705.51,-102.15 1718.87,-90.34 1729.61,-80.86"/>
<polygon fill="#63b8ff" stroke="#63b8ff" points="1732.01,-83.41 1737.18,-74.17 1727.37,-78.17 1732.01,-83.41"/>
</a>
</g>
</g>
<!-- Node26 -->
<g id="Node000026" class="node">
<title>Node26</title>
<g id="a_Node000026"><a xlink:href="compat__shared_8h.html" target="_top" xlink:title=" ">
<polygon fill="#fff0f0" stroke="red" points="1953,-74 1813,-74 1813,-55 1953,-55 1953,-74"/>
<text text-anchor="middle" x="1883" y="-62" font-family="Helvetica,sans-Serif" font-size="10.00">compat/compat_shared.h</text>
</a>
</g>
</g>
<!-- Node5&#45;&gt;Node26 -->
<g id="edge24_Node000005_Node000026" class="edge">
<title>Node5&#45;&gt;Node26</title>
<g id="a_edge24_Node000005_Node000026"><a xlink:title=" ">
<path fill="none" stroke="#63b8ff" d="M1718.49,-109.98C1751.82,-100.97 1804.6,-86.7 1841.35,-76.76"/>
<polygon fill="#63b8ff" stroke="#63b8ff" points="1842.52,-80.07 1851.26,-74.08 1840.7,-73.31 1842.52,-80.07"/>
</a>
</g>
</g>
<!-- Node36 -->
<g id="Node000036" class="node">
<title>Node36</title>
<g id="a_Node000036"><a xlink:href="stdvarargs_8h.html" target="_top" xlink:title=" ">
<polygon fill="#fff0f0" stroke="red" points="2088.5,-74 1971.5,-74 1971.5,-55 2088.5,-55 2088.5,-74"/>
<text text-anchor="middle" x="2030" y="-62" font-family="Helvetica,sans-Serif" font-size="10.00">compat/stdvarargs.h</text>
</a>
</g>
</g>
<!-- Node5&#45;&gt;Node36 -->
<g id="edge25_Node000005_Node000036" class="edge">
<title>Node5&#45;&gt;Node36</title>
<g id="a_edge25_Node000005_Node000036"><a xlink:title=" ">
<path fill="none" stroke="#63b8ff" d="M1738.35,-110.57C1798.67,-101.25 1898.82,-85.77 1964.63,-75.6"/>
<polygon fill="#63b8ff" stroke="#63b8ff" points="1965.54,-79 1974.89,-74.02 1964.47,-72.08 1965.54,-79"/>
</a>
</g>
</g>
<!-- Node38 -->
<g id="Node000038" class="node">
<title>Node38</title>
<g id="a_Node000038"><a xlink:href="stdio_8h.html" target="_top" xlink:title=" ">
<polygon fill="#fff0f0" stroke="red" points="2195.5,-74 2106.5,-74 2106.5,-55 2195.5,-55 2195.5,-74"/>
<text text-anchor="middle" x="2151" y="-62" font-family="Helvetica,sans-Serif" font-size="10.00">compat/stdio.h</text>
</a>
</g>
</g>
<!-- Node5&#45;&gt;Node38 -->
<g id="edge26_Node000005_Node000038" class="edge">
<title>Node5&#45;&gt;Node38</title>
<g id="a_edge26_Node000005_Node000038"><a xlink:title=" ">
<path fill="none" stroke="#63b8ff" d="M1738.23,-113.74C1814.04,-106.51 1960.79,-91.86 2096.1,-74.06"/>
<polygon fill="#63b8ff" stroke="#63b8ff" points="2096.78,-77.5 2106.23,-72.72 2095.86,-70.56 2096.78,-77.5"/>
</a>
</g>
</g>
<!-- Node40 -->
<g id="Node000040" class="node">
<title>Node40</title>
<g id="a_Node000040"><a xlink:href="statvfs_8h.html" target="_top" xlink:title=" ">
<polygon fill="white" stroke="#666666" points="2312.5,-74 2213.5,-74 2213.5,-55 2312.5,-55 2312.5,-74"/>
<text text-anchor="middle" x="2263" y="-62" font-family="Helvetica,sans-Serif" font-size="10.00">compat/statvfs.h</text>
</a>
</g>
</g>
<!-- Node5&#45;&gt;Node40 -->
<g id="edge27_Node000005_Node000040" class="edge">
<title>Node5&#45;&gt;Node40</title>
<g id="a_edge27_Node000005_Node000040"><a xlink:title=" ">
<path fill="none" stroke="#63b8ff" d="M1738.1,-115.08C1829.28,-108.75 2026.24,-94.13 2203.43,-74"/>
<polygon fill="#63b8ff" stroke="#63b8ff" points="2203.92,-77.46 2213.45,-72.85 2203.12,-70.51 2203.92,-77.46"/>
</a>
</g>
</g>
<!-- Node41 -->
<g id="Node000041" class="node">
<title>Node41</title>
<g id="a_Node000041"><a xlink:href="debug_8h.html" target="_top" xlink:title=" ">
<polygon fill="white" stroke="#666666" points="2425.5,-74 2330.5,-74 2330.5,-55 2425.5,-55 2425.5,-74"/>
<text text-anchor="middle" x="2378" y="-62" font-family="Helvetica,sans-Serif" font-size="10.00">compat/debug.h</text>
</a>
</g>
</g>
<!-- Node5&#45;&gt;Node41 -->
<g id="edge28_Node000005_Node000041" class="edge">
<title>Node5&#45;&gt;Node41</title>
<g id="a_edge28_Node000005_Node000041"><a xlink:title=" ">
<path fill="none" stroke="#63b8ff" d="M1738.07,-116.27C1844.33,-111.33 2097.12,-98.07 2320.19,-73.99"/>
<polygon fill="#63b8ff" stroke="#63b8ff" points="2320.89,-77.44 2330.45,-72.87 2320.13,-70.48 2320.89,-77.44"/>
</a>
</g>
</g>
<!-- Node42 -->
<g id="Node000042" class="node">
<title>Node42</title>
<g id="a_Node000042"><a xlink:href="valgrind_8h.html" target="_top" xlink:title=" ">
<polygon fill="#fff0f0" stroke="red" points="2548.5,-74 2443.5,-74 2443.5,-55 2548.5,-55 2548.5,-74"/>
<text text-anchor="middle" x="2496" y="-62" font-family="Helvetica,sans-Serif" font-size="10.00">compat/valgrind.h</text>
</a>
</g>
</g>
<!-- Node5&#45;&gt;Node42 -->
<g id="edge29_Node000005_Node000042" class="edge">
<title>Node5&#45;&gt;Node42</title>
<g id="a_edge29_Node000005_Node000042"><a xlink:title=" ">
<path fill="none" stroke="#63b8ff" d="M1738.28,-116.8C1857.96,-112.55 2165.21,-99.94 2432.96,-74.02"/>
<polygon fill="#63b8ff" stroke="#63b8ff" points="2433.65,-77.47 2443.27,-73.01 2432.97,-70.5 2433.65,-77.47"/>
</a>
</g>
</g>
<!-- Node45 -->
<g id="Node000045" class="node">
<title>Node45</title>
<g id="a_Node000045"><a xlink:href="SBuf_8h.html" target="_top" xlink:title=" ">
<polygon fill="#fff0f0" stroke="red" points="3448.5,-129 3377.5,-129 3377.5,-110 3448.5,-110 3448.5,-129"/>
<text text-anchor="middle" x="3413" y="-117" font-family="Helvetica,sans-Serif" font-size="10.00">sbuf/SBuf.h</text>
</a>
</g>
</g>
<!-- Node44&#45;&gt;Node45 -->
<g id="edge31_Node000044_Node000045" class="edge">
<title>Node44&#45;&gt;Node45</title>
<g id="a_edge31_Node000044_Node000045"><a xlink:title=" ">
<path fill="none" stroke="#63b8ff" d="M3274.51,-164.98C3302.21,-156.09 3345.86,-142.07 3376.74,-132.15"/>
<polygon fill="#63b8ff" stroke="#63b8ff" points="3377.83,-135.47 3386.28,-129.08 3375.69,-128.81 3377.83,-135.47"/>
</a>
</g>
</g>
<!-- Node46 -->
<g id="Node000046" class="node">
<title>Node46</title>
<g id="a_Node000046"><a xlink:href="InstanceId_8h.html" target="_top" xlink:title=" ">
<polygon fill="#fff0f0" stroke="red" points="3577,-74 3475,-74 3475,-55 3577,-55 3577,-74"/>
<text text-anchor="middle" x="3526" y="-62" font-family="Helvetica,sans-Serif" font-size="10.00">base/InstanceId.h</text>
</a>
</g>
</g>
<!-- Node45&#45;&gt;Node46 -->
<g id="edge32_Node000045_Node000046" class="edge">
<title>Node45&#45;&gt;Node46</title>
<g id="a_edge32_Node000045_Node000046"><a xlink:title=" ">
<path fill="none" stroke="#63b8ff" d="M3431.16,-109.98C3449.25,-101.5 3477.28,-88.35 3498.19,-78.54"/>
<polygon fill="#63b8ff" stroke="#63b8ff" points="3499.95,-81.59 3507.51,-74.17 3496.97,-75.25 3499.95,-81.59"/>
</a>
</g>
</g>
<!-- Node48 -->
<g id="Node000048" class="node">
<title>Node48</title>
<g id="a_Node000048"><a xlink:href="TextException_8h.html" target="_top" xlink:title=" ">
<polygon fill="#fff0f0" stroke="red" points="3715,-74 3595,-74 3595,-55 3715,-55 3715,-74"/>
<text text-anchor="middle" x="3655" y="-62" font-family="Helvetica,sans-Serif" font-size="10.00">base/TextException.h</text>
</a>
</g>
</g>
<!-- Node45&#45;&gt;Node48 -->
<g id="edge33_Node000045_Node000048" class="edge">
<title>Node45&#45;&gt;Node48</title>
<g id="a_edge33_Node000045_Node000048"><a xlink:title=" ">
<path fill="none" stroke="#63b8ff" d="M3448.71,-110.68C3490.35,-101.56 3559.43,-86.43 3606.05,-76.22"/>
<polygon fill="#63b8ff" stroke="#63b8ff" points="3606.91,-79.61 3615.93,-74.06 3605.42,-72.78 3606.91,-79.61"/>
</a>
</g>
</g>
<!-- Node45&#45;&gt;Node52 -->
<g id="edge35_Node000045_Node000052" class="edge">
<title>Node45&#45;&gt;Node52</title>
<g id="a_edge35_Node000045_Node000052"><a xlink:title=" ">
<path fill="none" stroke="#63b8ff" d="M3382.79,-109.98C3350.96,-101.01 3300.64,-86.82 3265.4,-76.89"/>
<polygon fill="#63b8ff" stroke="#63b8ff" points="3266.02,-73.43 3255.44,-74.08 3264.12,-80.16 3266.02,-73.43"/>
</a>
</g>
</g>
<!-- Node57 -->
<g id="Node000057" class="node">
<title>Node57</title>
<g id="a_Node000057"><a xlink:href="globals_8h.html" target="_top" xlink:title=" ">
<polygon fill="#fff0f0" stroke="red" points="3351.5,-74 3290.5,-74 3290.5,-55 3351.5,-55 3351.5,-74"/>
<text text-anchor="middle" x="3321" y="-62" font-family="Helvetica,sans-Serif" font-size="10.00">globals.h</text>
</a>
</g>
</g>
<!-- Node45&#45;&gt;Node57 -->
<g id="edge41_Node000045_Node000057" class="edge">
<title>Node45&#45;&gt;Node57</title>
<g id="a_edge41_Node000045_Node000057"><a xlink:title=" ">
<path fill="none" stroke="#63b8ff" d="M3398.22,-109.98C3383.82,-101.69 3361.69,-88.94 3344.81,-79.22"/>
<polygon fill="#63b8ff" stroke="#63b8ff" points="3346.46,-76.13 3336.05,-74.17 3342.97,-82.19 3346.46,-76.13"/>
</a>
</g>
</g>
<!-- Node68 -->
<g id="Node000068" class="node">
<title>Node68</title>
<g id="a_Node000068"><a xlink:href="sbuf_2forward_8h.html" target="_top" xlink:title=" ">
<polygon fill="#fff0f0" stroke="red" points="3456.5,-74 3369.5,-74 3369.5,-55 3456.5,-55 3456.5,-74"/>
<text text-anchor="middle" x="3413" y="-62" font-family="Helvetica,sans-Serif" font-size="10.00">sbuf/forward.h</text>
</a>
</g>
</g>
<!-- Node45&#45;&gt;Node68 -->
<g id="edge42_Node000045_Node000068" class="edge">
<title>Node45&#45;&gt;Node68</title>
<g id="a_edge42_Node000045_Node000068"><a xlink:title=" ">
<path fill="none" stroke="#63b8ff" d="M3413,-109.75C3413,-102.8 3413,-92.85 3413,-84.13"/>
<polygon fill="#63b8ff" stroke="#63b8ff" points="3416.5,-84.09 3413,-74.09 3409.5,-84.09 3416.5,-84.09"/>
</a>
</g>
</g>
<!-- Node50 -->
<g id="Node000050" class="node">
<title>Node50</title>
<g id="a_Node000050"><a xlink:href="Here_8h.html" target="_top" xlink:title=" ">
<polygon fill="#fff0f0" stroke="red" points="3594.5,-19 3519.5,-19 3519.5,0 3594.5,0 3594.5,-19"/>
<text text-anchor="middle" x="3557" y="-7" font-family="Helvetica,sans-Serif" font-size="10.00">base/Here.h</text>
</a>
</g>
</g>
<!-- Node48&#45;&gt;Node50 -->
<g id="edge34_Node000048_Node000050" class="edge">
<title>Node48&#45;&gt;Node50</title>
<g id="a_edge34_Node000048_Node000050"><a xlink:title=" ">
<path fill="none" stroke="#63b8ff" d="M3639.25,-54.98C3623.77,-46.61 3599.91,-33.7 3581.86,-23.95"/>
<polygon fill="#63b8ff" stroke="#63b8ff" points="3583.49,-20.85 3573.03,-19.17 3580.16,-27.01 3583.49,-20.85"/>
</a>
</g>
</g>
<!-- Node52&#45;&gt;Node50 -->
<g id="edge36_Node000052_Node000050" class="edge">
<title>Node52&#45;&gt;Node50</title>
<g id="a_edge36_Node000052_Node000050"><a xlink:title=" ">
<path fill="none" stroke="#63b8ff" d="M3272.21,-55.96C3335.13,-45.92 3445.85,-28.24 3509.11,-18.15"/>
<polygon fill="#63b8ff" stroke="#63b8ff" points="3509.89,-21.57 3519.21,-16.53 3508.79,-14.65 3509.89,-21.57"/>
</a>
</g>
</g>
<!-- Node53 -->
<g id="Node000053" class="node">
<title>Node53</title>
<g id="a_Node000053"><a xlink:href="AllocatorProxy_8h.html" target="_top" xlink:title=" ">
<polygon fill="white" stroke="#666666" points="3139,-19 3015,-19 3015,0 3139,0 3139,-19"/>
<text text-anchor="middle" x="3077" y="-7" font-family="Helvetica,sans-Serif" font-size="10.00">mem/AllocatorProxy.h</text>
</a>
</g>
</g>
<!-- Node52&#45;&gt;Node53 -->
<g id="edge37_Node000052_Node000053" class="edge">
<title>Node52&#45;&gt;Node53</title>
<g id="a_edge37_Node000052_Node000053"><a xlink:title=" ">
<path fill="none" stroke="#63b8ff" d="M3201.22,-54.98C3176.77,-46.23 3138.47,-32.51 3110.85,-22.62"/>
<polygon fill="#63b8ff" stroke="#63b8ff" points="3111.81,-19.25 3101.21,-19.17 3109.45,-25.84 3111.81,-19.25"/>
</a>
</g>
</g>
<!-- Node54 -->
<g id="Node000054" class="node">
<title>Node54</title>
<g id="a_Node000054"><a xlink:title=" ">
<polygon fill="#e0e0e0" stroke="#999999" points="3217,-19 3157,-19 3157,0 3217,0 3217,-19"/>
<text text-anchor="middle" x="3187" y="-7" font-family="Helvetica,sans-Serif" font-size="10.00">iostream</text>
</a>
</g>
</g>
<!-- Node52&#45;&gt;Node54 -->
<g id="edge38_Node000052_Node000054" class="edge">
<title>Node52&#45;&gt;Node54</title>
<g id="a_edge38_Node000052_Node000054"><a xlink:title=" ">
<path fill="none" stroke="#63b8ff" d="M3218.73,-54.75C3213.41,-47.34 3205.64,-36.5 3199.12,-27.41"/>
<polygon fill="#63b8ff" stroke="#63b8ff" points="3201.83,-25.18 3193.16,-19.09 3196.14,-29.26 3201.83,-25.18"/>
</a>
</g>
</g>
<!-- Node55 -->
<g id="Node000055" class="node">
<title>Node55</title>
<g id="a_Node000055"><a xlink:title=" ">
<polygon fill="#e0e0e0" stroke="#999999" points="3291,-19 3235,-19 3235,0 3291,0 3291,-19"/>
<text text-anchor="middle" x="3263" y="-7" font-family="Helvetica,sans-Serif" font-size="10.00">sstream</text>
</a>
</g>
</g>
<!-- Node52&#45;&gt;Node55 -->
<g id="edge39_Node000052_Node000055" class="edge">
<title>Node52&#45;&gt;Node55</title>
<g id="a_edge39_Node000052_Node000055"><a xlink:title=" ">
<path fill="none" stroke="#63b8ff" d="M3231.27,-54.75C3236.59,-47.34 3244.36,-36.5 3250.88,-27.41"/>
<polygon fill="#63b8ff" stroke="#63b8ff" points="3253.86,-29.26 3256.84,-19.09 3248.17,-25.18 3253.86,-29.26"/>
</a>
</g>
</g>
<!-- Node56 -->
<g id="Node000056" class="node">
<title>Node56</title>
<g id="a_Node000056"><a xlink:title=" ">
<polygon fill="#e0e0e0" stroke="#999999" points="3365,-19 3309,-19 3309,0 3365,0 3365,-19"/>
<text text-anchor="middle" x="3337" y="-7" font-family="Helvetica,sans-Serif" font-size="10.00">iomanip</text>
</a>
</g>
</g>
<!-- Node52&#45;&gt;Node56 -->
<g id="edge40_Node000052_Node000056" class="edge">
<title>Node52&#45;&gt;Node56</title>
<g id="a_edge40_Node000052_Node000056"><a xlink:title=" ">
<path fill="none" stroke="#63b8ff" d="M3242.99,-54.98C3260.93,-46.5 3288.72,-33.35 3309.43,-23.54"/>
<polygon fill="#63b8ff" stroke="#63b8ff" points="3311.14,-26.61 3318.68,-19.17 3308.14,-20.28 3311.14,-26.61"/>
</a>
</g>
</g>
<!-- Node82&#45;&gt;Node45 -->
<g id="edge48_Node000082_Node000045" class="edge">
<title>Node82&#45;&gt;Node45</title>
<g id="a_edge48_Node000082_Node000045"><a xlink:title=" ">
<path fill="none" stroke="#63b8ff" d="M3545.61,-164.98C3519.2,-156.13 3477.65,-142.19 3448.11,-132.28"/>
<polygon fill="#63b8ff" stroke="#63b8ff" points="3449.18,-128.94 3438.58,-129.08 3446.95,-135.58 3449.18,-128.94"/>
</a>
</g>
</g>
<!-- Node83 -->
<g id="Node000083" class="node">
<title>Node83</title>
<g id="a_Node000083"><a xlink:href="PackableStream_8h.html" target="_top" xlink:title=" ">
<polygon fill="#fff0f0" stroke="red" points="3636,-129 3506,-129 3506,-110 3636,-110 3636,-129"/>
<text text-anchor="middle" x="3571" y="-117" font-family="Helvetica,sans-Serif" font-size="10.00">base/PackableStream.h</text>
</a>
</g>
</g>
<!-- Node82&#45;&gt;Node83 -->
<g id="edge47_Node000082_Node000083" class="edge">
<title>Node82&#45;&gt;Node83</title>
<g id="a_edge47_Node000082_Node000083"><a xlink:title=" ">
<path fill="none" stroke="#63b8ff" d="M3571,-164.75C3571,-157.8 3571,-147.85 3571,-139.13"/>
<polygon fill="#63b8ff" stroke="#63b8ff" points="3574.5,-139.09 3571,-129.09 3567.5,-139.09 3574.5,-139.09"/>
</a>
</g>
</g>
</g>
</svg>

<g id="navigator" transform="translate(0 0)" fill="#404254">
  <rect fill="#f2f5e9" fill-opacity="0.5" stroke="#606060" stroke-width=".5" x="0" y="0" width="60" height="60"/>
  <use id="zoomplus" xlink:href="#zoomPlus" x="17" y="9" onmousedown="handleZoom(evt,'in')"/>
  <use id="zoomminus" xlink:href="#zoomMin" x="42" y="9" onmousedown="handleZoom(evt,'out')"/>
  <use id="reset" xlink:href="#resetDef" x="30" y="36" onmousedown="handleReset()"/>
   <use id="arrowup" xlink:href="#arrowUp" x="0" y="0" onmousedown="handlePan(0,-1)"/>
  <use id="arrowright" xlink:href="#arrowRight" x="0" y="0" onmousedown="handlePan(1,0)"/>
  <use id="arrowdown" xlink:href="#arrowDown" x="0" y="0" onmousedown="handlePan(0,1)"/>
  <use id="arrowleft" xlink:href="#arrowLeft" x="0" y="0" onmousedown="handlePan(-1,0)"/>
</g>
<svg viewBox="0 0 15 15" width="100%" height="30px" preserveAspectRatio="xMaxYMin meet">
 <g id="arrow_out" transform="scale(0.3 0.3)">
  <a xlink:href="base_2File_8cc__incl_org.svg" target="_base">
   <rect id="button" ry="5" rx="5" y="6" x="6" height="38" width="38"
        fill="#f2f5e9" fill-opacity="0.5" stroke="#606060" stroke-width="1.0"/>
   <path id="arrow"
     d="M 11.500037,31.436501 C 11.940474,20.09759 22.043105,11.32322 32.158766,21.979434 L 37.068811,17.246167 C 37.068811,17.246167 37.088388,32 37.088388,32 L 22.160133,31.978069 C 22.160133,31.978069 26.997745,27.140456 26.997745,27.140456 C 18.528582,18.264221 13.291696,25.230495 11.500037,31.436501 z"
     style="fill:#404040;"/>
  </a>
 </g>
</svg>

<style type='text/css'>
<![CDATA[
[data-mouse-over-selected='false'] { opacity: 0.7; }
[data-mouse-over-selected='true']  { opacity: 1.0; }
]]>
</style>
<script type="application/ecmascript"><![CDATA[
document.addEventListener('DOMContentLoaded', (event) => {
  highlightEdges();
  highlightAdjacentNodes();
});
]]></script>
</svg>
