<?xml version="1.0" encoding="UTF-8" standalone="no"?>
<!DOCTYPE svg PUBLIC "-//W3C//DTD SVG 1.1//EN"
 "http://www.w3.org/Graphics/SVG/1.1/DTD/svg11.dtd">
<!-- Generated by graphviz version 2.43.0 (0)
 -->
<!-- Title: squid/src/auth/basic/PAM/basic_pam_auth.cc Pages: 1 -->
<!--zoomable 313 -->

<svg id="main" version="1.1" xmlns="http://www.w3.org/2000/svg" xmlns:xlink="http://www.w3.org/1999/xlink" xml:space="preserve" onload="init(evt)">
<style type="text/css"><![CDATA[
.node, .edge {opacity: 0.7;}
.node.selected, .edge.selected {opacity: 1;}
.edge:hover path { stroke: red; }
.edge:hover polygon { stroke: red; fill: red; }
]]></style>

<defs>
  <circle id="rim" cx="0" cy="0" r="7"/>
  <circle id="rim2" cx="0" cy="0" r="3.5"/>
  <g id="zoomPlus">
    <use xlink:href="#rim" fill="#404040"><set attributeName="fill" to="#808080" begin="zoomplus.mouseover" end="zoomplus.mouseout"/></use>
    <path d="M-4,0h8M0,-4v8" fill="none" stroke="white" stroke-width="1.5" pointer-events="none"/>
  </g>
  <g id="zoomMin">
    <use xlink:href="#rim" fill="#404040"><set attributeName="fill" to="#808080" begin="zoomminus.mouseover" end="zoomminus.mouseout"/></use>
    <path d="M-4,0h8" fill="none" stroke="white" stroke-width="1.5" pointer-events="none"/>
  </g>
  <g id="arrowUp" transform="translate(30 24)">
    <use xlink:href="#rim"/>
    <path pointer-events="none" fill="none" stroke="white" stroke-width="1.5" d="M0,-3.0v7 M-2.5,-0.5L0,-3.0L2.5,-0.5"/>
  </g>
  <g id="arrowRight" transform="rotate(90) translate(36 -43)">
    <use xlink:href="#rim"/>
    <path pointer-events="none" fill="none" stroke="white" stroke-width="1.5" d="M0,-3.0v7 M-2.5,-0.5L0,-3.0L2.5,-0.5"/>
  </g>
  <g id="arrowDown" transform="rotate(180) translate(-30 -48)">
    <use xlink:href="#rim"/>
    <path pointer-events="none" fill="none" stroke="white" stroke-width="1.5" d="M0,-3.0v7 M-2.5,-0.5L0,-3.0L2.5,-0.5"/>
  </g>
  <g id="arrowLeft" transform="rotate(270) translate(-36 17)">
    <use xlink:href="#rim"/>
    <path pointer-events="none" fill="none" stroke="white" stroke-width="1.5" d="M0,-3.0v7 M-2.5,-0.5L0,-3.0L2.5,-0.5"/>
  </g>
  <g id="resetDef">
    <use xlink:href="#rim2" fill="#404040"><set attributeName="fill" to="#808080" begin="reset.mouseover" end="reset.mouseout"/></use>
  </g>
</defs>
<script type="application/ecmascript">
var viewWidth = 3705;
var viewHeight = 313;
var sectionId = 'dynsection-0';
</script>
<script type="application/ecmascript" xlink:href="svg.min.js"/>
<svg id="graph" class="graph">
<g id="viewport">
<title>squid/src/auth/basic/PAM/basic_pam_auth.cc</title>
<!-- Node1 -->
<g id="Node000001" class="node">
<title>Node1</title>
<g id="a_Node000001"><a xlink:title=" ">
<polygon fill="#999999" stroke="#666666" points="3509.5,-305 3372.5,-305 3372.5,-275 3509.5,-275 3509.5,-305"/>
<text text-anchor="start" x="3380.5" y="-293" font-family="Helvetica,sans-Serif" font-size="10.00">squid/src/auth/basic</text>
<text text-anchor="middle" x="3441" y="-282" font-family="Helvetica,sans-Serif" font-size="10.00">/PAM/basic_pam_auth.cc</text>
</a>
</g>
</g>
<!-- Node2 -->
<g id="Node000002" class="node">
<title>Node2</title>
<g id="a_Node000002"><a xlink:href="squid_8h.html" target="_top" xlink:title=" ">
<polygon fill="white" stroke="#666666" points="1754,-239 1702,-239 1702,-220 1754,-220 1754,-239"/>
<text text-anchor="middle" x="1728" y="-227" font-family="Helvetica,sans-Serif" font-size="10.00">squid.h</text>
</a>
</g>
</g>
<!-- Node1&#45;&gt;Node2 -->
<g id="edge1_Node000001_Node000002" class="edge">
<title>Node1&#45;&gt;Node2</title>
<g id="a_edge1_Node000001_Node000002"><a xlink:title=" ">
<path fill="none" stroke="#63b8ff" d="M3372.26,-286.65C3084.11,-276.81 1978.56,-239.06 1764.14,-231.73"/>
<polygon fill="#63b8ff" stroke="#63b8ff" points="1764.16,-228.23 1754.05,-231.39 1763.93,-235.23 1764.16,-228.23"/>
</a>
</g>
</g>
<!-- Node27 -->
<g id="Node000027" class="node">
<title>Node27</title>
<g id="a_Node000027"><a xlink:title=" ">
<polygon fill="#e0e0e0" stroke="#999999" points="3058.5,-74 3007.5,-74 3007.5,-55 3058.5,-55 3058.5,-74"/>
<text text-anchor="middle" x="3033" y="-62" font-family="Helvetica,sans-Serif" font-size="10.00">csignal</text>
</a>
</g>
</g>
<!-- Node1&#45;&gt;Node27 -->
<g id="edge48_Node000001_Node000027" class="edge">
<title>Node1&#45;&gt;Node27</title>
<g id="a_edge48_Node000001_Node000027"><a xlink:title=" ">
<path fill="none" stroke="#63b8ff" d="M3372.41,-282.01C3312.55,-274.56 3231.66,-260.79 3208,-239 3163.94,-198.42 3210.87,-152.83 3169,-110 3161.75,-102.58 3106.04,-85.89 3068.21,-75.19"/>
<polygon fill="#63b8ff" stroke="#63b8ff" points="3069.11,-71.81 3058.54,-72.48 3067.22,-78.55 3069.11,-71.81"/>
</a>
</g>
</g>
<!-- Node44 -->
<g id="Node000044" class="node">
<title>Node44</title>
<g id="a_Node000044"><a xlink:href="protocol__defines_8h.html" target="_top" xlink:title=" ">
<polygon fill="white" stroke="#666666" points="3357,-239 3217,-239 3217,-220 3357,-220 3357,-239"/>
<text text-anchor="middle" x="3287" y="-227" font-family="Helvetica,sans-Serif" font-size="10.00">helper/protocol_defines.h</text>
</a>
</g>
</g>
<!-- Node1&#45;&gt;Node44 -->
<g id="edge43_Node000001_Node000044" class="edge">
<title>Node1&#45;&gt;Node44</title>
<g id="a_edge43_Node000001_Node000044"><a xlink:title=" ">
<path fill="none" stroke="#63b8ff" d="M3404.11,-274.99C3378.3,-265.18 3344.15,-252.21 3319.4,-242.81"/>
<polygon fill="#63b8ff" stroke="#63b8ff" points="3320.33,-239.42 3309.74,-239.14 3317.85,-245.96 3320.33,-239.42"/>
</a>
</g>
</g>
<!-- Node46 -->
<g id="Node000046" class="node">
<title>Node46</title>
<g id="a_Node000046"><a xlink:href="rfc1738_8h.html" target="_top" xlink:title=" ">
<polygon fill="white" stroke="#666666" points="3437,-239 3375,-239 3375,-220 3437,-220 3437,-239"/>
<text text-anchor="middle" x="3406" y="-227" font-family="Helvetica,sans-Serif" font-size="10.00">rfc1738.h</text>
</a>
</g>
</g>
<!-- Node1&#45;&gt;Node46 -->
<g id="edge45_Node000001_Node000046" class="edge">
<title>Node1&#45;&gt;Node46</title>
<g id="a_edge45_Node000001_Node000046"><a xlink:title=" ">
<path fill="none" stroke="#63b8ff" d="M3432.53,-274.84C3427.71,-266.78 3421.63,-256.62 3416.5,-248.06"/>
<polygon fill="#63b8ff" stroke="#63b8ff" points="3419.38,-246.05 3411.24,-239.27 3413.38,-249.64 3419.38,-246.05"/>
</a>
</g>
</g>
<!-- Node47 -->
<g id="Node000047" class="node">
<title>Node47</title>
<g id="a_Node000047"><a xlink:href="util_8h.html" target="_top" xlink:title=" ">
<polygon fill="white" stroke="#666666" points="3496.5,-239 3455.5,-239 3455.5,-220 3496.5,-220 3496.5,-239"/>
<text text-anchor="middle" x="3476" y="-227" font-family="Helvetica,sans-Serif" font-size="10.00">util.h</text>
</a>
</g>
</g>
<!-- Node1&#45;&gt;Node47 -->
<g id="edge46_Node000001_Node000047" class="edge">
<title>Node1&#45;&gt;Node47</title>
<g id="a_edge46_Node000001_Node000047"><a xlink:title=" ">
<path fill="none" stroke="#63b8ff" d="M3449.47,-274.84C3454.29,-266.78 3460.37,-256.62 3465.5,-248.06"/>
<polygon fill="#63b8ff" stroke="#63b8ff" points="3468.62,-249.64 3470.76,-239.27 3462.62,-246.05 3468.62,-249.64"/>
</a>
</g>
</g>
<!-- Node48 -->
<g id="Node000048" class="node">
<title>Node48</title>
<g id="a_Node000048"><a xlink:title=" ">
<polygon fill="#e0e0e0" stroke="#999999" points="3567,-239 3515,-239 3515,-220 3567,-220 3567,-239"/>
<text text-anchor="middle" x="3541" y="-227" font-family="Helvetica,sans-Serif" font-size="10.00">cassert</text>
</a>
</g>
</g>
<!-- Node1&#45;&gt;Node48 -->
<g id="edge47_Node000001_Node000048" class="edge">
<title>Node1&#45;&gt;Node48</title>
<g id="a_edge47_Node000001_Node000048"><a xlink:title=" ">
<path fill="none" stroke="#63b8ff" d="M3464.95,-274.99C3480.89,-265.66 3501.73,-253.47 3517.56,-244.21"/>
<polygon fill="#63b8ff" stroke="#63b8ff" points="3519.37,-247.21 3526.23,-239.14 3515.83,-241.17 3519.37,-247.21"/>
</a>
</g>
</g>
<!-- Node49 -->
<g id="Node000049" class="node">
<title>Node49</title>
<g id="a_Node000049"><a xlink:title=" ">
<polygon fill="#e0e0e0" stroke="#999999" points="3635,-239 3585,-239 3585,-220 3635,-220 3635,-239"/>
<text text-anchor="middle" x="3610" y="-227" font-family="Helvetica,sans-Serif" font-size="10.00">cstring</text>
</a>
</g>
</g>
<!-- Node1&#45;&gt;Node49 -->
<g id="edge49_Node000001_Node000049" class="edge">
<title>Node1&#45;&gt;Node49</title>
<g id="a_edge49_Node000001_Node000049"><a xlink:title=" ">
<path fill="none" stroke="#63b8ff" d="M3481.48,-274.99C3510.18,-265.05 3548.28,-251.86 3575.53,-242.43"/>
<polygon fill="#63b8ff" stroke="#63b8ff" points="3576.74,-245.72 3585.04,-239.14 3574.45,-239.1 3576.74,-245.72"/>
</a>
</g>
</g>
<!-- Node50 -->
<g id="Node000050" class="node">
<title>Node50</title>
<g id="a_Node000050"><a xlink:title=" ">
<polygon fill="#e0e0e0" stroke="#999999" points="3697,-239 3653,-239 3653,-220 3697,-220 3697,-239"/>
<text text-anchor="middle" x="3675" y="-227" font-family="Helvetica,sans-Serif" font-size="10.00">ctime</text>
</a>
</g>
</g>
<!-- Node1&#45;&gt;Node50 -->
<g id="edge50_Node000001_Node000050" class="edge">
<title>Node1&#45;&gt;Node50</title>
<g id="a_edge50_Node000001_Node000050"><a xlink:title=" ">
<path fill="none" stroke="#63b8ff" d="M3499.73,-274.96C3538.02,-265.71 3589.32,-253.14 3642.98,-239.22"/>
<polygon fill="#63b8ff" stroke="#63b8ff" points="3643.87,-242.6 3652.67,-236.7 3642.11,-235.83 3643.87,-242.6"/>
</a>
</g>
</g>
<!-- Node3 -->
<g id="Node000003" class="node">
<title>Node3</title>
<g id="a_Node000003"><a xlink:href="autoconf_8h.html" target="_top" xlink:title=" ">
<polygon fill="white" stroke="#666666" points="1813,-184 1745,-184 1745,-165 1813,-165 1813,-184"/>
<text text-anchor="middle" x="1779" y="-172" font-family="Helvetica,sans-Serif" font-size="10.00">autoconf.h</text>
</a>
</g>
</g>
<!-- Node2&#45;&gt;Node3 -->
<g id="edge2_Node000002_Node000003" class="edge">
<title>Node2&#45;&gt;Node3</title>
<g id="a_edge2_Node000002_Node000003"><a xlink:title=" ">
<path fill="none" stroke="#63b8ff" d="M1736.42,-219.75C1743.77,-212.11 1754.63,-200.82 1763.54,-191.56"/>
<polygon fill="#63b8ff" stroke="#63b8ff" points="1766.32,-193.72 1770.74,-184.09 1761.28,-188.87 1766.32,-193.72"/>
</a>
</g>
</g>
<!-- Node4 -->
<g id="Node000004" class="node">
<title>Node4</title>
<g id="a_Node000004"><a xlink:href="version_8h.html" target="_top" xlink:title=" ">
<polygon fill="white" stroke="#666666" points="1607,-184 1545,-184 1545,-165 1607,-165 1607,-184"/>
<text text-anchor="middle" x="1576" y="-172" font-family="Helvetica,sans-Serif" font-size="10.00">version.h</text>
</a>
</g>
</g>
<!-- Node2&#45;&gt;Node4 -->
<g id="edge3_Node000002_Node000004" class="edge">
<title>Node2&#45;&gt;Node4</title>
<g id="a_edge3_Node000002_Node000004"><a xlink:title=" ">
<path fill="none" stroke="#63b8ff" d="M1703.58,-219.98C1678.28,-211.16 1638.55,-197.31 1610.14,-187.41"/>
<polygon fill="#63b8ff" stroke="#63b8ff" points="1611.21,-184.07 1600.61,-184.08 1608.9,-190.68 1611.21,-184.07"/>
</a>
</g>
</g>
<!-- Node5 -->
<g id="Node000005" class="node">
<title>Node5</title>
<g id="a_Node000005"><a xlink:href="compat_8h.html" target="_top" xlink:title=" ">
<polygon fill="white" stroke="#666666" points="1727,-184 1625,-184 1625,-165 1727,-165 1727,-184"/>
<text text-anchor="middle" x="1676" y="-172" font-family="Helvetica,sans-Serif" font-size="10.00">compat/compat.h</text>
</a>
</g>
</g>
<!-- Node2&#45;&gt;Node5 -->
<g id="edge4_Node000002_Node000005" class="edge">
<title>Node2&#45;&gt;Node5</title>
<g id="a_edge4_Node000002_Node000005"><a xlink:title=" ">
<path fill="none" stroke="#63b8ff" d="M1719.41,-219.75C1711.84,-212.03 1700.62,-200.6 1691.49,-191.28"/>
<polygon fill="#63b8ff" stroke="#63b8ff" points="1693.93,-188.78 1684.43,-184.09 1688.93,-193.68 1693.93,-188.78"/>
</a>
</g>
</g>
<!-- Node6 -->
<g id="Node000006" class="node">
<title>Node6</title>
<g id="a_Node000006"><a xlink:href="osdetect_8h.html" target="_top" xlink:title=" ">
<polygon fill="white" stroke="#666666" points="2277.5,-129 2170.5,-129 2170.5,-110 2277.5,-110 2277.5,-129"/>
<text text-anchor="middle" x="2224" y="-117" font-family="Helvetica,sans-Serif" font-size="10.00">compat/osdetect.h</text>
</a>
</g>
</g>
<!-- Node5&#45;&gt;Node6 -->
<g id="edge5_Node000005_Node000006" class="edge">
<title>Node5&#45;&gt;Node6</title>
<g id="a_edge5_Node000005_Node000006"><a xlink:title=" ">
<path fill="none" stroke="#63b8ff" d="M1727.04,-166.07C1730.07,-165.69 1733.07,-165.33 1736,-165 1921.15,-144.06 1970.88,-149.48 2160.39,-129.01"/>
<polygon fill="#63b8ff" stroke="#63b8ff" points="2160.84,-132.48 2170.41,-127.91 2160.09,-125.52 2160.84,-132.48"/>
</a>
</g>
</g>
<!-- Node7 -->
<g id="Node000007" class="node">
<title>Node7</title>
<g id="a_Node000007"><a xlink:href="fdsetsize_8h.html" target="_top" xlink:title=" ">
<polygon fill="white" stroke="#666666" points="2795,-129 2685,-129 2685,-110 2795,-110 2795,-129"/>
<text text-anchor="middle" x="2740" y="-117" font-family="Helvetica,sans-Serif" font-size="10.00">compat/fdsetsize.h</text>
</a>
</g>
</g>
<!-- Node5&#45;&gt;Node7 -->
<g id="edge6_Node000005_Node000007" class="edge">
<title>Node5&#45;&gt;Node7</title>
<g id="a_edge6_Node000005_Node000007"><a xlink:title=" ">
<path fill="none" stroke="#63b8ff" d="M1727.02,-165.91C1730.06,-165.57 1733.07,-165.26 1736,-165 2148.62,-127.96 2257.1,-163.53 2674.49,-128.94"/>
<polygon fill="#63b8ff" stroke="#63b8ff" points="2675.05,-132.4 2684.72,-128.08 2674.46,-125.43 2675.05,-132.4"/>
</a>
</g>
</g>
<!-- Node8 -->
<g id="Node000008" class="node">
<title>Node8</title>
<g id="a_Node000008"><a xlink:href="types_8h.html" target="_top" xlink:title=" ">
<polygon fill="white" stroke="#666666" points="92,-129 0,-129 0,-110 92,-110 92,-129"/>
<text text-anchor="middle" x="46" y="-117" font-family="Helvetica,sans-Serif" font-size="10.00">compat/types.h</text>
</a>
</g>
</g>
<!-- Node5&#45;&gt;Node8 -->
<g id="edge7_Node000005_Node000008" class="edge">
<title>Node5&#45;&gt;Node8</title>
<g id="a_edge7_Node000005_Node000008"><a xlink:title=" ">
<path fill="none" stroke="#63b8ff" d="M1624.98,-165.86C1621.95,-165.53 1618.94,-165.24 1616,-165 948.19,-109.95 773.67,-187.75 102.58,-129"/>
<polygon fill="#63b8ff" stroke="#63b8ff" points="102.43,-125.47 92.16,-128.08 101.81,-132.44 102.43,-125.47"/>
</a>
</g>
</g>
<!-- Node10 -->
<g id="Node000010" class="node">
<title>Node10</title>
<g id="a_Node000010"><a xlink:href="aix_8h.html" target="_top" xlink:title=" ">
<polygon fill="white" stroke="#666666" points="205.5,-129 110.5,-129 110.5,-110 205.5,-110 205.5,-129"/>
<text text-anchor="middle" x="158" y="-117" font-family="Helvetica,sans-Serif" font-size="10.00">compat/os/aix.h</text>
</a>
</g>
</g>
<!-- Node5&#45;&gt;Node10 -->
<g id="edge9_Node000005_Node000010" class="edge">
<title>Node5&#45;&gt;Node10</title>
<g id="a_edge9_Node000005_Node000010"><a xlink:title=" ">
<path fill="none" stroke="#63b8ff" d="M1624.98,-165.87C1621.95,-165.54 1618.94,-165.24 1616,-165 998.62,-113.51 837.25,-182.29 215.64,-128.91"/>
<polygon fill="#63b8ff" stroke="#63b8ff" points="215.8,-125.41 205.53,-128.03 215.19,-132.38 215.8,-125.41"/>
</a>
</g>
</g>
<!-- Node11 -->
<g id="Node000011" class="node">
<title>Node11</title>
<g id="a_Node000011"><a xlink:href="android_8h.html" target="_top" xlink:title=" ">
<polygon fill="white" stroke="#666666" points="340,-129 224,-129 224,-110 340,-110 340,-129"/>
<text text-anchor="middle" x="282" y="-117" font-family="Helvetica,sans-Serif" font-size="10.00">compat/os/android.h</text>
</a>
</g>
</g>
<!-- Node5&#45;&gt;Node11 -->
<g id="edge10_Node000005_Node000011" class="edge">
<title>Node5&#45;&gt;Node11</title>
<g id="a_edge10_Node000005_Node000011"><a xlink:title=" ">
<path fill="none" stroke="#63b8ff" d="M1624.98,-165.87C1621.95,-165.54 1618.94,-165.25 1616,-165 1057.96,-117.7 912.36,-171.86 350.06,-128.99"/>
<polygon fill="#63b8ff" stroke="#63b8ff" points="350.31,-125.5 340.07,-128.22 349.77,-132.48 350.31,-125.5"/>
</a>
</g>
</g>
<!-- Node12 -->
<g id="Node000012" class="node">
<title>Node12</title>
<g id="a_Node000012"><a xlink:href="dragonfly_8h.html" target="_top" xlink:title=" ">
<polygon fill="white" stroke="#666666" points="482,-129 358,-129 358,-110 482,-110 482,-129"/>
<text text-anchor="middle" x="420" y="-117" font-family="Helvetica,sans-Serif" font-size="10.00">compat/os/dragonfly.h</text>
</a>
</g>
</g>
<!-- Node5&#45;&gt;Node12 -->
<g id="edge11_Node000005_Node000012" class="edge">
<title>Node5&#45;&gt;Node12</title>
<g id="a_edge11_Node000005_Node000012"><a xlink:title=" ">
<path fill="none" stroke="#63b8ff" d="M1624.98,-165.89C1621.95,-165.55 1618.93,-165.25 1616,-165 1120.89,-122.14 991.53,-166.18 492.3,-129.02"/>
<polygon fill="#63b8ff" stroke="#63b8ff" points="492.54,-125.53 482.31,-128.27 492.02,-132.51 492.54,-125.53"/>
</a>
</g>
</g>
<!-- Node13 -->
<g id="Node000013" class="node">
<title>Node13</title>
<g id="a_Node000013"><a xlink:href="freebsd_8h.html" target="_top" xlink:title=" ">
<polygon fill="white" stroke="#666666" points="616,-129 500,-129 500,-110 616,-110 616,-129"/>
<text text-anchor="middle" x="558" y="-117" font-family="Helvetica,sans-Serif" font-size="10.00">compat/os/freebsd.h</text>
</a>
</g>
</g>
<!-- Node5&#45;&gt;Node13 -->
<g id="edge12_Node000005_Node000013" class="edge">
<title>Node5&#45;&gt;Node13</title>
<g id="a_edge12_Node000005_Node000013"><a xlink:title=" ">
<path fill="none" stroke="#63b8ff" d="M1624.98,-165.9C1621.94,-165.57 1618.93,-165.26 1616,-165 1180.31,-126.33 1066.01,-164.19 626.19,-129.01"/>
<polygon fill="#63b8ff" stroke="#63b8ff" points="626.32,-125.51 616.07,-128.19 625.76,-132.49 626.32,-125.51"/>
</a>
</g>
</g>
<!-- Node14 -->
<g id="Node000014" class="node">
<title>Node14</title>
<g id="a_Node000014"><a xlink:href="hpux_8h.html" target="_top" xlink:title=" ">
<polygon fill="white" stroke="#666666" points="738,-129 634,-129 634,-110 738,-110 738,-129"/>
<text text-anchor="middle" x="686" y="-117" font-family="Helvetica,sans-Serif" font-size="10.00">compat/os/hpux.h</text>
</a>
</g>
</g>
<!-- Node5&#45;&gt;Node14 -->
<g id="edge13_Node000005_Node000014" class="edge">
<title>Node5&#45;&gt;Node14</title>
<g id="a_edge13_Node000005_Node000014"><a xlink:title=" ">
<path fill="none" stroke="#63b8ff" d="M1624.98,-165.92C1621.94,-165.58 1618.93,-165.27 1616,-165 1234.34,-130.15 1133.71,-163.14 748.24,-129.01"/>
<polygon fill="#63b8ff" stroke="#63b8ff" points="748.48,-125.52 738.21,-128.11 747.85,-132.49 748.48,-125.52"/>
</a>
</g>
</g>
<!-- Node15 -->
<g id="Node000015" class="node">
<title>Node15</title>
<g id="a_Node000015"><a xlink:href="linux_8h.html" target="_top" xlink:title=" ">
<polygon fill="white" stroke="#666666" points="860,-129 756,-129 756,-110 860,-110 860,-129"/>
<text text-anchor="middle" x="808" y="-117" font-family="Helvetica,sans-Serif" font-size="10.00">compat/os/linux.h</text>
</a>
</g>
</g>
<!-- Node5&#45;&gt;Node15 -->
<g id="edge14_Node000005_Node000015" class="edge">
<title>Node5&#45;&gt;Node15</title>
<g id="a_edge14_Node000005_Node000015"><a xlink:title=" ">
<path fill="none" stroke="#63b8ff" d="M1624.97,-165.94C1621.94,-165.6 1618.93,-165.28 1616,-165 1288.49,-133.98 1201.71,-159.43 870.58,-129.05"/>
<polygon fill="#63b8ff" stroke="#63b8ff" points="870.49,-125.53 860.21,-128.09 869.84,-132.5 870.49,-125.53"/>
</a>
</g>
</g>
<!-- Node16 -->
<g id="Node000016" class="node">
<title>Node16</title>
<g id="a_Node000016"><a xlink:href="macosx_8h.html" target="_top" xlink:title=" ">
<polygon fill="white" stroke="#666666" points="996,-129 878,-129 878,-110 996,-110 996,-129"/>
<text text-anchor="middle" x="937" y="-117" font-family="Helvetica,sans-Serif" font-size="10.00">compat/os/macosx.h</text>
</a>
</g>
</g>
<!-- Node5&#45;&gt;Node16 -->
<g id="edge15_Node000005_Node000016" class="edge">
<title>Node5&#45;&gt;Node16</title>
<g id="a_edge15_Node000005_Node000016"><a xlink:title=" ">
<path fill="none" stroke="#63b8ff" d="M1624.97,-165.98C1621.94,-165.62 1618.93,-165.29 1616,-165 1348.63,-138.23 1277.61,-153.5 1006.46,-129.07"/>
<polygon fill="#63b8ff" stroke="#63b8ff" points="1006.59,-125.57 996.31,-128.15 1005.95,-132.54 1006.59,-125.57"/>
</a>
</g>
</g>
<!-- Node17 -->
<g id="Node000017" class="node">
<title>Node17</title>
<g id="a_Node000017"><a xlink:href="mingw_8h.html" target="_top" xlink:title=" ">
<polygon fill="white" stroke="#666666" points="1126,-129 1014,-129 1014,-110 1126,-110 1126,-129"/>
<text text-anchor="middle" x="1070" y="-117" font-family="Helvetica,sans-Serif" font-size="10.00">compat/os/mingw.h</text>
</a>
</g>
</g>
<!-- Node5&#45;&gt;Node17 -->
<g id="edge16_Node000005_Node000017" class="edge">
<title>Node5&#45;&gt;Node17</title>
<g id="a_edge16_Node000005_Node000017"><a xlink:title=" ">
<path fill="none" stroke="#63b8ff" d="M1624.97,-166.04C1621.93,-165.67 1618.93,-165.32 1616,-165 1406.09,-142.3 1349.94,-150.64 1136.31,-129.08"/>
<polygon fill="#63b8ff" stroke="#63b8ff" points="1136.65,-125.59 1126.35,-128.06 1135.94,-132.56 1136.65,-125.59"/>
</a>
</g>
</g>
<!-- Node18 -->
<g id="Node000018" class="node">
<title>Node18</title>
<g id="a_Node000018"><a xlink:href="mswindows_8h.html" target="_top" xlink:title=" ">
<polygon fill="white" stroke="#666666" points="1281.5,-129 1144.5,-129 1144.5,-110 1281.5,-110 1281.5,-129"/>
<text text-anchor="middle" x="1213" y="-117" font-family="Helvetica,sans-Serif" font-size="10.00">compat/os/mswindows.h</text>
</a>
</g>
</g>
<!-- Node5&#45;&gt;Node18 -->
<g id="edge17_Node000005_Node000018" class="edge">
<title>Node5&#45;&gt;Node18</title>
<g id="a_edge17_Node000005_Node000018"><a xlink:title=" ">
<path fill="none" stroke="#63b8ff" d="M1624.95,-166.16C1621.92,-165.76 1618.92,-165.37 1616,-165 1615,-164.87 1408.59,-142.09 1291.6,-129.18"/>
<polygon fill="#63b8ff" stroke="#63b8ff" points="1291.93,-125.69 1281.61,-128.07 1291.16,-132.65 1291.93,-125.69"/>
</a>
</g>
</g>
<!-- Node19 -->
<g id="Node000019" class="node">
<title>Node19</title>
<g id="a_Node000019"><a xlink:href="netbsd_8h.html" target="_top" xlink:title=" ">
<polygon fill="white" stroke="#666666" points="1412.5,-129 1299.5,-129 1299.5,-110 1412.5,-110 1412.5,-129"/>
<text text-anchor="middle" x="1356" y="-117" font-family="Helvetica,sans-Serif" font-size="10.00">compat/os/netbsd.h</text>
</a>
</g>
</g>
<!-- Node5&#45;&gt;Node19 -->
<g id="edge18_Node000005_Node000019" class="edge">
<title>Node5&#45;&gt;Node19</title>
<g id="a_edge18_Node000005_Node000019"><a xlink:title=" ">
<path fill="none" stroke="#63b8ff" d="M1624.94,-165.04C1568.56,-155.71 1477.81,-140.68 1417.55,-130.69"/>
<polygon fill="#63b8ff" stroke="#63b8ff" points="1417.84,-127.2 1407.41,-129.01 1416.7,-134.1 1417.84,-127.2"/>
</a>
</g>
</g>
<!-- Node20 -->
<g id="Node000020" class="node">
<title>Node20</title>
<g id="a_Node000020"><a xlink:href="openbsd_8h.html" target="_top" xlink:title=" ">
<polygon fill="white" stroke="#666666" points="1551.5,-129 1430.5,-129 1430.5,-110 1551.5,-110 1551.5,-129"/>
<text text-anchor="middle" x="1491" y="-117" font-family="Helvetica,sans-Serif" font-size="10.00">compat/os/openbsd.h</text>
</a>
</g>
</g>
<!-- Node5&#45;&gt;Node20 -->
<g id="edge19_Node000005_Node000020" class="edge">
<title>Node5&#45;&gt;Node20</title>
<g id="a_edge19_Node000005_Node000020"><a xlink:title=" ">
<path fill="none" stroke="#63b8ff" d="M1646.28,-164.98C1614.95,-156.01 1565.43,-141.82 1530.76,-131.89"/>
<polygon fill="#63b8ff" stroke="#63b8ff" points="1531.53,-128.47 1520.96,-129.08 1529.61,-135.2 1531.53,-128.47"/>
</a>
</g>
</g>
<!-- Node21 -->
<g id="Node000021" class="node">
<title>Node21</title>
<g id="a_Node000021"><a xlink:href="os2_8h.html" target="_top" xlink:title=" ">
<polygon fill="white" stroke="#666666" points="1666.5,-129 1569.5,-129 1569.5,-110 1666.5,-110 1666.5,-129"/>
<text text-anchor="middle" x="1618" y="-117" font-family="Helvetica,sans-Serif" font-size="10.00">compat/os/os2.h</text>
</a>
</g>
</g>
<!-- Node5&#45;&gt;Node21 -->
<g id="edge20_Node000005_Node000021" class="edge">
<title>Node5&#45;&gt;Node21</title>
<g id="a_edge20_Node000005_Node000021"><a xlink:title=" ">
<path fill="none" stroke="#63b8ff" d="M1666.68,-164.98C1658.19,-157.23 1645.44,-145.58 1635.12,-136.14"/>
<polygon fill="#63b8ff" stroke="#63b8ff" points="1637.23,-133.33 1627.49,-129.17 1632.51,-138.5 1637.23,-133.33"/>
</a>
</g>
</g>
<!-- Node22 -->
<g id="Node000022" class="node">
<title>Node22</title>
<g id="a_Node000022"><a xlink:href="qnx_8h.html" target="_top" xlink:title=" ">
<polygon fill="white" stroke="#666666" points="1783,-129 1685,-129 1685,-110 1783,-110 1783,-129"/>
<text text-anchor="middle" x="1734" y="-117" font-family="Helvetica,sans-Serif" font-size="10.00">compat/os/qnx.h</text>
</a>
</g>
</g>
<!-- Node5&#45;&gt;Node22 -->
<g id="edge21_Node000005_Node000022" class="edge">
<title>Node5&#45;&gt;Node22</title>
<g id="a_edge21_Node000005_Node000022"><a xlink:title=" ">
<path fill="none" stroke="#63b8ff" d="M1685.32,-164.98C1693.81,-157.23 1706.56,-145.58 1716.88,-136.14"/>
<polygon fill="#63b8ff" stroke="#63b8ff" points="1719.49,-138.5 1724.51,-129.17 1714.77,-133.33 1719.49,-138.5"/>
</a>
</g>
</g>
<!-- Node23 -->
<g id="Node000023" class="node">
<title>Node23</title>
<g id="a_Node000023"><a xlink:href="solaris_8h.html" target="_top" xlink:title=" ">
<polygon fill="white" stroke="#666666" points="1913,-129 1801,-129 1801,-110 1913,-110 1913,-129"/>
<text text-anchor="middle" x="1857" y="-117" font-family="Helvetica,sans-Serif" font-size="10.00">compat/os/solaris.h</text>
</a>
</g>
</g>
<!-- Node5&#45;&gt;Node23 -->
<g id="edge22_Node000005_Node000023" class="edge">
<title>Node5&#45;&gt;Node23</title>
<g id="a_edge22_Node000005_Node000023"><a xlink:title=" ">
<path fill="none" stroke="#63b8ff" d="M1705.08,-164.98C1735.6,-156.05 1783.76,-141.94 1817.66,-132.02"/>
<polygon fill="#63b8ff" stroke="#63b8ff" points="1819.08,-135.25 1827.69,-129.08 1817.11,-128.53 1819.08,-135.25"/>
</a>
</g>
</g>
<!-- Node24 -->
<g id="Node000024" class="node">
<title>Node24</title>
<g id="a_Node000024"><a xlink:href="sunos_8h.html" target="_top" xlink:title=" ">
<polygon fill="white" stroke="#666666" points="2039,-129 1931,-129 1931,-110 2039,-110 2039,-129"/>
<text text-anchor="middle" x="1985" y="-117" font-family="Helvetica,sans-Serif" font-size="10.00">compat/os/sunos.h</text>
</a>
</g>
</g>
<!-- Node5&#45;&gt;Node24 -->
<g id="edge23_Node000005_Node000024" class="edge">
<title>Node5&#45;&gt;Node24</title>
<g id="a_edge23_Node000005_Node000024"><a xlink:title=" ">
<path fill="none" stroke="#63b8ff" d="M1725.65,-164.98C1779.96,-155.67 1867.02,-140.74 1925.09,-130.78"/>
<polygon fill="#63b8ff" stroke="#63b8ff" points="1925.96,-134.18 1935.22,-129.04 1924.77,-127.28 1925.96,-134.18"/>
</a>
</g>
</g>
<!-- Node25 -->
<g id="Node000025" class="node">
<title>Node25</title>
<g id="a_Node000025"><a xlink:href="assert_8h.html" target="_top" xlink:title=" ">
<polygon fill="white" stroke="#666666" points="2152.5,-129 2057.5,-129 2057.5,-110 2152.5,-110 2152.5,-129"/>
<text text-anchor="middle" x="2105" y="-117" font-family="Helvetica,sans-Serif" font-size="10.00">compat/assert.h</text>
</a>
</g>
</g>
<!-- Node5&#45;&gt;Node25 -->
<g id="edge24_Node000005_Node000025" class="edge">
<title>Node5&#45;&gt;Node25</title>
<g id="a_edge24_Node000005_Node000025"><a xlink:title=" ">
<path fill="none" stroke="#63b8ff" d="M1727.05,-166.18C1730.08,-165.77 1733.08,-165.38 1736,-165 1871.2,-147.63 1907.91,-147.3 2047.22,-129.06"/>
<polygon fill="#63b8ff" stroke="#63b8ff" points="2047.97,-132.49 2057.43,-127.71 2047.06,-125.55 2047.97,-132.49"/>
</a>
</g>
</g>
<!-- Node26 -->
<g id="Node000026" class="node">
<title>Node26</title>
<g id="a_Node000026"><a xlink:href="compat__shared_8h.html" target="_top" xlink:title=" ">
<polygon fill="white" stroke="#666666" points="2436,-129 2296,-129 2296,-110 2436,-110 2436,-129"/>
<text text-anchor="middle" x="2366" y="-117" font-family="Helvetica,sans-Serif" font-size="10.00">compat/compat_shared.h</text>
</a>
</g>
</g>
<!-- Node5&#45;&gt;Node26 -->
<g id="edge25_Node000005_Node000026" class="edge">
<title>Node5&#45;&gt;Node26</title>
<g id="a_edge25_Node000005_Node000026"><a xlink:title=" ">
<path fill="none" stroke="#63b8ff" d="M1727.03,-166C1730.06,-165.64 1733.07,-165.3 1736,-165 1976.34,-140.15 2040.19,-149.67 2285.47,-129"/>
<polygon fill="#63b8ff" stroke="#63b8ff" points="2286.11,-132.46 2295.78,-128.12 2285.51,-125.48 2286.11,-132.46"/>
</a>
</g>
</g>
<!-- Node36 -->
<g id="Node000036" class="node">
<title>Node36</title>
<g id="a_Node000036"><a xlink:href="stdvarargs_8h.html" target="_top" xlink:title=" ">
<polygon fill="white" stroke="#666666" points="2930.5,-129 2813.5,-129 2813.5,-110 2930.5,-110 2930.5,-129"/>
<text text-anchor="middle" x="2872" y="-117" font-family="Helvetica,sans-Serif" font-size="10.00">compat/stdvarargs.h</text>
</a>
</g>
</g>
<!-- Node5&#45;&gt;Node36 -->
<g id="edge35_Node000005_Node000036" class="edge">
<title>Node5&#45;&gt;Node36</title>
<g id="a_edge35_Node000005_Node000036"><a xlink:title=" ">
<path fill="none" stroke="#63b8ff" d="M1727.02,-165.89C1730.05,-165.56 1733.07,-165.26 1736,-165 2205.78,-123.92 2328.81,-165.89 2803.23,-128.97"/>
<polygon fill="#63b8ff" stroke="#63b8ff" points="2803.73,-132.44 2813.43,-128.16 2803.19,-125.46 2803.73,-132.44"/>
</a>
</g>
</g>
<!-- Node38 -->
<g id="Node000038" class="node">
<title>Node38</title>
<g id="a_Node000038"><a xlink:href="stdio_8h.html" target="_top" xlink:title=" ">
<polygon fill="white" stroke="#666666" points="3037.5,-129 2948.5,-129 2948.5,-110 3037.5,-110 3037.5,-129"/>
<text text-anchor="middle" x="2993" y="-117" font-family="Helvetica,sans-Serif" font-size="10.00">compat/stdio.h</text>
</a>
</g>
</g>
<!-- Node5&#45;&gt;Node38 -->
<g id="edge37_Node000005_Node000038" class="edge">
<title>Node5&#45;&gt;Node38</title>
<g id="a_edge37_Node000005_Node000038"><a xlink:title=" ">
<path fill="none" stroke="#63b8ff" d="M1727.02,-165.88C1730.05,-165.55 1733.06,-165.25 1736,-165 2265.58,-119.7 2404.65,-177.94 2938,-128.94"/>
<polygon fill="#63b8ff" stroke="#63b8ff" points="2938.63,-132.4 2948.27,-127.99 2937.99,-125.43 2938.63,-132.4"/>
</a>
</g>
</g>
<!-- Node40 -->
<g id="Node000040" class="node">
<title>Node40</title>
<g id="a_Node000040"><a xlink:href="statvfs_8h.html" target="_top" xlink:title=" ">
<polygon fill="white" stroke="#666666" points="2553.5,-129 2454.5,-129 2454.5,-110 2553.5,-110 2553.5,-129"/>
<text text-anchor="middle" x="2504" y="-117" font-family="Helvetica,sans-Serif" font-size="10.00">compat/statvfs.h</text>
</a>
</g>
</g>
<!-- Node5&#45;&gt;Node40 -->
<g id="edge39_Node000005_Node000040" class="edge">
<title>Node5&#45;&gt;Node40</title>
<g id="a_edge39_Node000005_Node000040"><a xlink:title=" ">
<path fill="none" stroke="#63b8ff" d="M1727.03,-165.95C1730.06,-165.6 1733.07,-165.28 1736,-165 2046.7,-135.17 2129.2,-159 2444.12,-128.97"/>
<polygon fill="#63b8ff" stroke="#63b8ff" points="2444.85,-132.42 2454.47,-127.97 2444.18,-125.45 2444.85,-132.42"/>
</a>
</g>
</g>
<!-- Node41 -->
<g id="Node000041" class="node">
<title>Node41</title>
<g id="a_Node000041"><a xlink:href="debug_8h.html" target="_top" xlink:title=" ">
<polygon fill="white" stroke="#666666" points="2666.5,-129 2571.5,-129 2571.5,-110 2666.5,-110 2666.5,-129"/>
<text text-anchor="middle" x="2619" y="-117" font-family="Helvetica,sans-Serif" font-size="10.00">compat/debug.h</text>
</a>
</g>
</g>
<!-- Node5&#45;&gt;Node41 -->
<g id="edge40_Node000005_Node000041" class="edge">
<title>Node5&#45;&gt;Node41</title>
<g id="a_edge40_Node000005_Node000041"><a xlink:title=" ">
<path fill="none" stroke="#63b8ff" d="M1727.02,-165.93C1730.06,-165.58 1733.07,-165.27 1736,-165 2098.6,-131.49 2194.5,-163.56 2561.36,-128.93"/>
<polygon fill="#63b8ff" stroke="#63b8ff" points="2561.84,-132.4 2571.46,-127.97 2561.17,-125.43 2561.84,-132.4"/>
</a>
</g>
</g>
<!-- Node42 -->
<g id="Node000042" class="node">
<title>Node42</title>
<g id="a_Node000042"><a xlink:href="valgrind_8h.html" target="_top" xlink:title=" ">
<polygon fill="white" stroke="#666666" points="3160.5,-129 3055.5,-129 3055.5,-110 3160.5,-110 3160.5,-129"/>
<text text-anchor="middle" x="3108" y="-117" font-family="Helvetica,sans-Serif" font-size="10.00">compat/valgrind.h</text>
</a>
</g>
</g>
<!-- Node5&#45;&gt;Node42 -->
<g id="edge41_Node000005_Node000042" class="edge">
<title>Node5&#45;&gt;Node42</title>
<g id="a_edge41_Node000005_Node000042"><a xlink:title=" ">
<path fill="none" stroke="#63b8ff" d="M1727.02,-165.87C1730.05,-165.54 1733.06,-165.25 1736,-165 2312.98,-116.36 2463.75,-175.92 3044.96,-128.97"/>
<polygon fill="#63b8ff" stroke="#63b8ff" points="3045.6,-132.43 3055.28,-128.13 3045.03,-125.45 3045.6,-132.43"/>
</a>
</g>
</g>
<!-- Node9 -->
<g id="Node000009" class="node">
<title>Node9</title>
<g id="a_Node000009"><a xlink:title=" ">
<polygon fill="#e0e0e0" stroke="#999999" points="71,-74 21,-74 21,-55 71,-55 71,-74"/>
<text text-anchor="middle" x="46" y="-62" font-family="Helvetica,sans-Serif" font-size="10.00">cstdint</text>
</a>
</g>
</g>
<!-- Node8&#45;&gt;Node9 -->
<g id="edge8_Node000008_Node000009" class="edge">
<title>Node8&#45;&gt;Node9</title>
<g id="a_edge8_Node000008_Node000009"><a xlink:title=" ">
<path fill="none" stroke="#63b8ff" d="M46,-109.75C46,-102.8 46,-92.85 46,-84.13"/>
<polygon fill="#63b8ff" stroke="#63b8ff" points="49.5,-84.09 46,-74.09 42.5,-84.09 49.5,-84.09"/>
</a>
</g>
</g>
<!-- Node26&#45;&gt;Node27 -->
<g id="edge26_Node000026_Node000027" class="edge">
<title>Node26&#45;&gt;Node27</title>
<g id="a_edge26_Node000026_Node000027"><a xlink:title=" ">
<path fill="none" stroke="#63b8ff" d="M2436.2,-110.79C2439.17,-110.51 2442.11,-110.25 2445,-110 2687.15,-89.1 2752.81,-110.62 2997.58,-73.75"/>
<polygon fill="#63b8ff" stroke="#63b8ff" points="2998.13,-77.2 3007.49,-72.24 2997.07,-70.28 2998.13,-77.2"/>
</a>
</g>
</g>
<!-- Node28 -->
<g id="Node000028" class="node">
<title>Node28</title>
<g id="a_Node000028"><a xlink:href="xalloc_8h.html" target="_top" xlink:title=" ">
<polygon fill="white" stroke="#666666" points="2653.5,-74 2558.5,-74 2558.5,-55 2653.5,-55 2653.5,-74"/>
<text text-anchor="middle" x="2606" y="-62" font-family="Helvetica,sans-Serif" font-size="10.00">compat/xalloc.h</text>
</a>
</g>
</g>
<!-- Node26&#45;&gt;Node28 -->
<g id="edge27_Node000026_Node000028" class="edge">
<title>Node26&#45;&gt;Node28</title>
<g id="a_edge27_Node000026_Node000028"><a xlink:title=" ">
<path fill="none" stroke="#63b8ff" d="M2404.56,-109.98C2446.07,-100.82 2512.21,-86.21 2557.29,-76.26"/>
<polygon fill="#63b8ff" stroke="#63b8ff" points="2558.13,-79.66 2567.14,-74.08 2556.62,-72.82 2558.13,-79.66"/>
</a>
</g>
</g>
<!-- Node29 -->
<g id="Node000029" class="node">
<title>Node29</title>
<g id="a_Node000029"><a xlink:href="xis_8h.html" target="_top" xlink:title=" ">
<polygon fill="white" stroke="#666666" points="2752,-74 2672,-74 2672,-55 2752,-55 2752,-74"/>
<text text-anchor="middle" x="2712" y="-62" font-family="Helvetica,sans-Serif" font-size="10.00">compat/xis.h</text>
</a>
</g>
</g>
<!-- Node26&#45;&gt;Node29 -->
<g id="edge28_Node000026_Node000029" class="edge">
<title>Node26&#45;&gt;Node29</title>
<g id="a_edge28_Node000026_Node000029"><a xlink:title=" ">
<path fill="none" stroke="#63b8ff" d="M2425.02,-109.97C2484.8,-101.24 2579.9,-87.15 2662,-74 2662.1,-73.98 2662.2,-73.97 2662.3,-73.95"/>
<polygon fill="#63b8ff" stroke="#63b8ff" points="2662.59,-77.45 2671.89,-72.39 2661.46,-70.54 2662.59,-77.45"/>
</a>
</g>
</g>
<!-- Node31 -->
<g id="Node000031" class="node">
<title>Node31</title>
<g id="a_Node000031"><a xlink:href="xstrerror_8h.html" target="_top" xlink:title=" ">
<polygon fill="white" stroke="#666666" points="2071.5,-74 1964.5,-74 1964.5,-55 2071.5,-55 2071.5,-74"/>
<text text-anchor="middle" x="2018" y="-62" font-family="Helvetica,sans-Serif" font-size="10.00">compat/xstrerror.h</text>
</a>
</g>
</g>
<!-- Node26&#45;&gt;Node31 -->
<g id="edge30_Node000026_Node000031" class="edge">
<title>Node26&#45;&gt;Node31</title>
<g id="a_edge30_Node000026_Node000031"><a xlink:title=" ">
<path fill="none" stroke="#63b8ff" d="M2310.09,-109.98C2247.81,-100.5 2147.31,-85.19 2081.95,-75.24"/>
<polygon fill="#63b8ff" stroke="#63b8ff" points="2082.18,-71.73 2071.77,-73.69 2081.13,-78.66 2082.18,-71.73"/>
</a>
</g>
</g>
<!-- Node32 -->
<g id="Node000032" class="node">
<title>Node32</title>
<g id="a_Node000032"><a xlink:href="xstring_8h.html" target="_top" xlink:title=" ">
<polygon fill="white" stroke="#666666" points="2188.5,-74 2089.5,-74 2089.5,-55 2188.5,-55 2188.5,-74"/>
<text text-anchor="middle" x="2139" y="-62" font-family="Helvetica,sans-Serif" font-size="10.00">compat/xstring.h</text>
</a>
</g>
</g>
<!-- Node26&#45;&gt;Node32 -->
<g id="edge31_Node000026_Node000032" class="edge">
<title>Node26&#45;&gt;Node32</title>
<g id="a_edge31_Node000026_Node000032"><a xlink:title=" ">
<path fill="none" stroke="#63b8ff" d="M2329.53,-109.98C2290.43,-100.86 2228.23,-86.33 2185.61,-76.38"/>
<polygon fill="#63b8ff" stroke="#63b8ff" points="2186.29,-72.95 2175.76,-74.08 2184.7,-79.76 2186.29,-72.95"/>
</a>
</g>
</g>
<!-- Node33 -->
<g id="Node000033" class="node">
<title>Node33</title>
<g id="a_Node000033"><a xlink:href="xstrto_8h.html" target="_top" xlink:title=" ">
<polygon fill="white" stroke="#666666" points="2301,-74 2207,-74 2207,-55 2301,-55 2301,-74"/>
<text text-anchor="middle" x="2254" y="-62" font-family="Helvetica,sans-Serif" font-size="10.00">compat/xstrto.h</text>
</a>
</g>
</g>
<!-- Node26&#45;&gt;Node33 -->
<g id="edge32_Node000026_Node000033" class="edge">
<title>Node26&#45;&gt;Node33</title>
<g id="a_edge32_Node000026_Node000033"><a xlink:title=" ">
<path fill="none" stroke="#63b8ff" d="M2348.01,-109.98C2330.07,-101.5 2302.28,-88.35 2281.57,-78.54"/>
<polygon fill="#63b8ff" stroke="#63b8ff" points="2282.86,-75.28 2272.32,-74.17 2279.86,-81.61 2282.86,-75.28"/>
</a>
</g>
</g>
<!-- Node34 -->
<g id="Node000034" class="node">
<title>Node34</title>
<g id="a_Node000034"><a xlink:href="strtoll_8h.html" target="_top" xlink:title=" ">
<polygon fill="white" stroke="#666666" points="2413,-74 2319,-74 2319,-55 2413,-55 2413,-74"/>
<text text-anchor="middle" x="2366" y="-62" font-family="Helvetica,sans-Serif" font-size="10.00">compat/strtoll.h</text>
</a>
</g>
</g>
<!-- Node26&#45;&gt;Node34 -->
<g id="edge33_Node000026_Node000034" class="edge">
<title>Node26&#45;&gt;Node34</title>
<g id="a_edge33_Node000026_Node000034"><a xlink:title=" ">
<path fill="none" stroke="#63b8ff" d="M2366,-109.75C2366,-102.8 2366,-92.85 2366,-84.13"/>
<polygon fill="#63b8ff" stroke="#63b8ff" points="2369.5,-84.09 2366,-74.09 2362.5,-84.09 2369.5,-84.09"/>
</a>
</g>
</g>
<!-- Node35 -->
<g id="Node000035" class="node">
<title>Node35</title>
<g id="a_Node000035"><a xlink:href="memrchr_8h.html" target="_top" xlink:title=" ">
<polygon fill="white" stroke="#666666" points="2540.5,-74 2431.5,-74 2431.5,-55 2540.5,-55 2540.5,-74"/>
<text text-anchor="middle" x="2486" y="-62" font-family="Helvetica,sans-Serif" font-size="10.00">compat/memrchr.h</text>
</a>
</g>
</g>
<!-- Node26&#45;&gt;Node35 -->
<g id="edge34_Node000026_Node000035" class="edge">
<title>Node26&#45;&gt;Node35</title>
<g id="a_edge34_Node000026_Node000035"><a xlink:title=" ">
<path fill="none" stroke="#63b8ff" d="M2385.28,-109.98C2404.67,-101.42 2434.81,-88.11 2457.07,-78.28"/>
<polygon fill="#63b8ff" stroke="#63b8ff" points="2458.64,-81.41 2466.37,-74.17 2455.81,-75.01 2458.64,-81.41"/>
</a>
</g>
</g>
<!-- Node30 -->
<g id="Node000030" class="node">
<title>Node30</title>
<g id="a_Node000030"><a xlink:title=" ">
<polygon fill="#e0e0e0" stroke="#999999" points="2736.5,-19 2687.5,-19 2687.5,0 2736.5,0 2736.5,-19"/>
<text text-anchor="middle" x="2712" y="-7" font-family="Helvetica,sans-Serif" font-size="10.00">cctype</text>
</a>
</g>
</g>
<!-- Node29&#45;&gt;Node30 -->
<g id="edge29_Node000029_Node000030" class="edge">
<title>Node29&#45;&gt;Node30</title>
<g id="a_edge29_Node000029_Node000030"><a xlink:title=" ">
<path fill="none" stroke="#63b8ff" d="M2712,-54.75C2712,-47.8 2712,-37.85 2712,-29.13"/>
<polygon fill="#63b8ff" stroke="#63b8ff" points="2715.5,-29.09 2712,-19.09 2708.5,-29.09 2715.5,-29.09"/>
</a>
</g>
</g>
<!-- Node37 -->
<g id="Node000037" class="node">
<title>Node37</title>
<g id="a_Node000037"><a xlink:title=" ">
<polygon fill="#e0e0e0" stroke="#999999" points="2898.5,-74 2845.5,-74 2845.5,-55 2898.5,-55 2898.5,-74"/>
<text text-anchor="middle" x="2872" y="-62" font-family="Helvetica,sans-Serif" font-size="10.00">cstdarg</text>
</a>
</g>
</g>
<!-- Node36&#45;&gt;Node37 -->
<g id="edge36_Node000036_Node000037" class="edge">
<title>Node36&#45;&gt;Node37</title>
<g id="a_edge36_Node000036_Node000037"><a xlink:title=" ">
<path fill="none" stroke="#63b8ff" d="M2872,-109.75C2872,-102.8 2872,-92.85 2872,-84.13"/>
<polygon fill="#63b8ff" stroke="#63b8ff" points="2875.5,-84.09 2872,-74.09 2868.5,-84.09 2875.5,-84.09"/>
</a>
</g>
</g>
<!-- Node39 -->
<g id="Node000039" class="node">
<title>Node39</title>
<g id="a_Node000039"><a xlink:title=" ">
<polygon fill="#e0e0e0" stroke="#999999" points="2989,-74 2943,-74 2943,-55 2989,-55 2989,-74"/>
<text text-anchor="middle" x="2966" y="-62" font-family="Helvetica,sans-Serif" font-size="10.00">cstdio</text>
</a>
</g>
</g>
<!-- Node38&#45;&gt;Node39 -->
<g id="edge38_Node000038_Node000039" class="edge">
<title>Node38&#45;&gt;Node39</title>
<g id="a_edge38_Node000038_Node000039"><a xlink:title=" ">
<path fill="none" stroke="#63b8ff" d="M2988.54,-109.75C2984.88,-102.57 2979.59,-92.18 2975.05,-83.27"/>
<polygon fill="#63b8ff" stroke="#63b8ff" points="2978.03,-81.41 2970.38,-74.09 2971.8,-84.59 2978.03,-81.41"/>
</a>
</g>
</g>
<!-- Node43 -->
<g id="Node000043" class="node">
<title>Node43</title>
<g id="a_Node000043"><a xlink:title=" ">
<polygon fill="#e0e0e0" stroke="#999999" points="3199,-74 3077,-74 3077,-55 3199,-55 3199,-74"/>
<text text-anchor="middle" x="3138" y="-62" font-family="Helvetica,sans-Serif" font-size="10.00">valgrind/memcheck.h</text>
</a>
</g>
</g>
<!-- Node42&#45;&gt;Node43 -->
<g id="edge42_Node000042_Node000043" class="edge">
<title>Node42&#45;&gt;Node43</title>
<g id="a_edge42_Node000042_Node000043"><a xlink:title=" ">
<path fill="none" stroke="#63b8ff" d="M3112.95,-109.75C3117.06,-102.49 3123.03,-91.95 3128.1,-82.98"/>
<polygon fill="#63b8ff" stroke="#63b8ff" points="3131.26,-84.52 3133.14,-74.09 3125.17,-81.07 3131.26,-84.52"/>
</a>
</g>
</g>
<!-- Node45 -->
<g id="Node000045" class="node">
<title>Node45</title>
<g id="a_Node000045"><a xlink:title=" ">
<polygon fill="#e0e0e0" stroke="#999999" points="3317,-184 3257,-184 3257,-165 3317,-165 3317,-184"/>
<text text-anchor="middle" x="3287" y="-172" font-family="Helvetica,sans-Serif" font-size="10.00">iostream</text>
</a>
</g>
</g>
<!-- Node44&#45;&gt;Node45 -->
<g id="edge44_Node000044_Node000045" class="edge">
<title>Node44&#45;&gt;Node45</title>
<g id="a_edge44_Node000044_Node000045"><a xlink:title=" ">
<path fill="none" stroke="#63b8ff" d="M3287,-219.75C3287,-212.8 3287,-202.85 3287,-194.13"/>
<polygon fill="#63b8ff" stroke="#63b8ff" points="3290.5,-194.09 3287,-184.09 3283.5,-194.09 3290.5,-194.09"/>
</a>
</g>
</g>
</g>
</svg>

<g id="navigator" transform="translate(0 0)" fill="#404254">
  <rect fill="#f2f5e9" fill-opacity="0.5" stroke="#606060" stroke-width=".5" x="0" y="0" width="60" height="60"/>
  <use id="zoomplus" xlink:href="#zoomPlus" x="17" y="9" onmousedown="handleZoom(evt,'in')"/>
  <use id="zoomminus" xlink:href="#zoomMin" x="42" y="9" onmousedown="handleZoom(evt,'out')"/>
  <use id="reset" xlink:href="#resetDef" x="30" y="36" onmousedown="handleReset()"/>
   <use id="arrowup" xlink:href="#arrowUp" x="0" y="0" onmousedown="handlePan(0,-1)"/>
  <use id="arrowright" xlink:href="#arrowRight" x="0" y="0" onmousedown="handlePan(1,0)"/>
  <use id="arrowdown" xlink:href="#arrowDown" x="0" y="0" onmousedown="handlePan(0,1)"/>
  <use id="arrowleft" xlink:href="#arrowLeft" x="0" y="0" onmousedown="handlePan(-1,0)"/>
</g>
<svg viewBox="0 0 15 15" width="100%" height="30px" preserveAspectRatio="xMaxYMin meet">
 <g id="arrow_out" transform="scale(0.3 0.3)">
  <a xlink:href="basic__pam__auth_8cc__incl_org.svg" target="_base">
   <rect id="button" ry="5" rx="5" y="6" x="6" height="38" width="38"
        fill="#f2f5e9" fill-opacity="0.5" stroke="#606060" stroke-width="1.0"/>
   <path id="arrow"
     d="M 11.500037,31.436501 C 11.940474,20.09759 22.043105,11.32322 32.158766,21.979434 L 37.068811,17.246167 C 37.068811,17.246167 37.088388,32 37.088388,32 L 22.160133,31.978069 C 22.160133,31.978069 26.997745,27.140456 26.997745,27.140456 C 18.528582,18.264221 13.291696,25.230495 11.500037,31.436501 z"
     style="fill:#404040;"/>
  </a>
 </g>
</svg>

<style type='text/css'>
<![CDATA[
[data-mouse-over-selected='false'] { opacity: 0.7; }
[data-mouse-over-selected='true']  { opacity: 1.0; }
]]>
</style>
<script type="application/ecmascript"><![CDATA[
document.addEventListener('DOMContentLoaded', (event) => {
  highlightEdges();
  highlightAdjacentNodes();
});
]]></script>
</svg>
