<?xml version="1.0" encoding="UTF-8" standalone="no"?>
<!DOCTYPE svg PUBLIC "-//W3C//DTD SVG 1.1//EN"
 "http://www.w3.org/Graphics/SVG/1.1/DTD/svg11.dtd">
<!-- Generated by graphviz version 2.43.0 (0)
 -->
<!-- Title: squid/src/acl/CertificateData.h Pages: 1 -->
<svg width="274pt" height="104pt"
 viewBox="0.00 0.00 273.50 104.00" xmlns="http://www.w3.org/2000/svg" xmlns:xlink="http://www.w3.org/1999/xlink">
<g id="graph0" class="graph" transform="scale(1 1) rotate(0) translate(4 100)">
<title>squid/src/acl/CertificateData.h</title>
<!-- Node1 -->
<g id="Node000001" class="node">
<title>Node1</title>
<g id="a_Node000001"><a xlink:title=" ">
<polygon fill="#999999" stroke="#666666" points="194.5,-96 63.5,-96 63.5,-66 194.5,-66 194.5,-96"/>
<text text-anchor="start" x="71.5" y="-84" font-family="Helvetica,sans-Serif" font-size="10.00">squid/src/acl/Certificate</text>
<text text-anchor="middle" x="129" y="-73" font-family="Helvetica,sans-Serif" font-size="10.00">Data.h</text>
</a>
</g>
</g>
<!-- Node2 -->
<g id="Node000002" class="node">
<title>Node2</title>
<g id="a_Node000002"><a xlink:href="AclRegs_8cc.html" target="_top" xlink:title=" ">
<polygon fill="white" stroke="#666666" points="116,-24.5 0,-24.5 0,-5.5 116,-5.5 116,-24.5"/>
<text text-anchor="middle" x="58" y="-12.5" font-family="Helvetica,sans-Serif" font-size="10.00">squid/src/AclRegs.cc</text>
</a>
</g>
</g>
<!-- Node1&#45;&gt;Node2 -->
<g id="edge1_Node000001_Node000002" class="edge">
<title>Node1&#45;&gt;Node2</title>
<g id="a_edge1_Node000001_Node000002"><a xlink:title=" ">
<path fill="none" stroke="#63b8ff" d="M105.63,-58.93C92.78,-47.35 77.53,-33.61 67.81,-24.84"/>
<polygon fill="#63b8ff" stroke="#63b8ff" points="103.47,-61.7 113.24,-65.8 108.16,-56.5 103.47,-61.7"/>
</a>
</g>
</g>
<!-- Node3 -->
<g id="Node000003" class="node">
<title>Node3</title>
<g id="a_Node000003"><a xlink:href="CertificateData_8cc.html" target="_top" xlink:title=" ">
<polygon fill="white" stroke="#666666" points="265.5,-30 134.5,-30 134.5,0 265.5,0 265.5,-30"/>
<text text-anchor="start" x="142.5" y="-18" font-family="Helvetica,sans-Serif" font-size="10.00">squid/src/acl/Certificate</text>
<text text-anchor="middle" x="200" y="-7" font-family="Helvetica,sans-Serif" font-size="10.00">Data.cc</text>
</a>
</g>
</g>
<!-- Node1&#45;&gt;Node3 -->
<g id="edge2_Node000001_Node000003" class="edge">
<title>Node1&#45;&gt;Node3</title>
<g id="a_edge2_Node000001_Node000003"><a xlink:title=" ">
<path fill="none" stroke="#63b8ff" d="M152.38,-58.92C162.85,-49.49 174.92,-38.61 184.29,-30.16"/>
<polygon fill="#63b8ff" stroke="#63b8ff" points="149.84,-56.5 144.76,-65.8 154.53,-61.7 149.84,-56.5"/>
</a>
</g>
</g>
</g>
</svg>
