<?xml version="1.0" encoding="UTF-8" standalone="no"?>
<!DOCTYPE svg PUBLIC "-//W3C//DTD SVG 1.1//EN"
 "http://www.w3.org/Graphics/SVG/1.1/DTD/svg11.dtd">
<!-- Generated by graphviz version 2.43.0 (0)
 -->
<!-- Title: Error Pages: 1 -->
<svg width="293pt" height="269pt"
 viewBox="0.00 0.00 292.50 269.00" xmlns="http://www.w3.org/2000/svg" xmlns:xlink="http://www.w3.org/1999/xlink">
<g id="graph0" class="graph" transform="scale(1 1) rotate(0) translate(4 265)">
<title>Error</title>
<!-- Node1 -->
<g id="Node000001" class="node">
<title>Node1</title>
<g id="a_Node000001"><a xlink:title="a transaction problem">
<polygon fill="#999999" stroke="#666666" points="111.5,-19 71.5,-19 71.5,0 111.5,0 111.5,-19"/>
<text text-anchor="middle" x="91.5" y="-7" font-family="Helvetica,sans-Serif" font-size="10.00">Error</text>
</a>
</g>
</g>
<!-- Node2 -->
<g id="Node000002" class="node">
<title>Node2</title>
<g id="a_Node000002"><a xlink:title=" ">
<polygon fill="white" stroke="#666666" points="160,-107 23,-107 23,-66 160,-66 160,-107"/>
<text text-anchor="start" x="31" y="-95" font-family="Helvetica,sans-Serif" font-size="10.00">std::vector&lt; ErrorDetail</text>
<text text-anchor="start" x="31" y="-84" font-family="Helvetica,sans-Serif" font-size="10.00">Pointer, PoolingAllocator</text>
<text text-anchor="middle" x="91.5" y="-73" font-family="Helvetica,sans-Serif" font-size="10.00">&lt; ErrorDetailPointer &gt; &gt;</text>
</a>
</g>
</g>
<!-- Node2&#45;&gt;Node1 -->
<g id="edge1_Node000001_Node000002" class="edge">
<title>Node2&#45;&gt;Node1</title>
<g id="a_edge1_Node000001_Node000002"><a xlink:title=" ">
<path fill="none" stroke="#9a32cd" stroke-dasharray="5,2" d="M91.5,-55.7C91.5,-42.59 91.5,-28.18 91.5,-19.24"/>
<polygon fill="#9a32cd" stroke="#9a32cd" points="88,-55.79 91.5,-65.79 95,-55.79 88,-55.79"/>
</a>
</g>
<text text-anchor="middle" x="110" y="-40" font-family="Helvetica,sans-Serif" font-size="10.00" fill="grey"> details</text>
</g>
<!-- Node3 -->
<g id="Node000003" class="node">
<title>Node3</title>
<g id="a_Node000003"><a xlink:href="classRefCount.html" target="_top" xlink:title=" ">
<polygon fill="white" stroke="#666666" points="91,-195 0,-195 0,-176 91,-176 91,-195"/>
<text text-anchor="middle" x="45.5" y="-183" font-family="Helvetica,sans-Serif" font-size="10.00">RefCount&lt; C &gt;</text>
</a>
</g>
</g>
<!-- Node3&#45;&gt;Node2 -->
<g id="edge2_Node000002_Node000003" class="edge">
<title>Node3&#45;&gt;Node2</title>
<g id="a_edge2_Node000002_Node000003"><a xlink:title=" ">
<path fill="none" stroke="#9a32cd" stroke-dasharray="5,2" d="M50.73,-165.99C54.43,-153.99 59.9,-138.2 66.5,-125 69.51,-118.98 73.32,-112.77 77.05,-107.18"/>
<polygon fill="#9a32cd" stroke="#9a32cd" points="47.32,-165.17 47.84,-175.75 54.03,-167.15 47.32,-165.17"/>
</a>
</g>
<text text-anchor="middle" x="91" y="-139" font-family="Helvetica,sans-Serif" font-size="10.00" fill="grey"> elements</text>
</g>
<!-- Node4 -->
<g id="Node000004" class="node">
<title>Node4</title>
<g id="a_Node000004"><a xlink:title=" ">
<polygon fill="white" stroke="#666666" points="206,-195 109,-195 109,-176 206,-176 206,-195"/>
<text text-anchor="middle" x="157.5" y="-183" font-family="Helvetica,sans-Serif" font-size="10.00">std::vector&lt; T &gt;</text>
</a>
</g>
</g>
<!-- Node4&#45;&gt;Node2 -->
<g id="edge3_Node000002_Node000004" class="edge">
<title>Node4&#45;&gt;Node2</title>
<g id="a_edge3_Node000002_Node000004"><a xlink:title=" ">
<path fill="none" stroke="orange" stroke-dasharray="5,2" d="M145.99,-167.58C134.55,-150.77 117.02,-125.01 104.95,-107.27"/>
<polygon fill="orange" stroke="orange" points="143.12,-169.59 151.64,-175.89 148.91,-165.66 143.12,-169.59"/>
</a>
</g>
<text text-anchor="start" x="137.5" y="-150" font-family="Helvetica,sans-Serif" font-size="10.00" fill="grey"> &lt; ErrorDetailPointer,</text>
<text text-anchor="start" x="137.5" y="-139" font-family="Helvetica,sans-Serif" font-size="10.00" fill="grey"> PoolingAllocator&lt; ErrorDetail</text>
<text text-anchor="middle" x="211" y="-128" font-family="Helvetica,sans-Serif" font-size="10.00" fill="grey">Pointer &gt; &gt;</text>
</g>
<!-- Node5 -->
<g id="Node000005" class="node">
<title>Node5</title>
<g id="a_Node000005"><a xlink:title=" ">
<polygon fill="white" stroke="#666666" points="172,-261 143,-261 143,-242 172,-242 172,-261"/>
<text text-anchor="middle" x="157.5" y="-249" font-family="Helvetica,sans-Serif" font-size="10.00">T</text>
</a>
</g>
</g>
<!-- Node5&#45;&gt;Node4 -->
<g id="edge4_Node000004_Node000005" class="edge">
<title>Node5&#45;&gt;Node4</title>
<g id="a_edge4_Node000004_Node000005"><a xlink:title=" ">
<path fill="none" stroke="#9a32cd" stroke-dasharray="5,2" d="M157.5,-231.58C157.5,-219.63 157.5,-204.72 157.5,-195.41"/>
<polygon fill="#9a32cd" stroke="#9a32cd" points="154,-231.87 157.5,-241.87 161,-231.87 154,-231.87"/>
</a>
</g>
<text text-anchor="middle" x="182" y="-216" font-family="Helvetica,sans-Serif" font-size="10.00" fill="grey"> elements</text>
</g>
</g>
</svg>
