<?xml version="1.0" encoding="UTF-8" standalone="no"?>
<!DOCTYPE svg PUBLIC "-//W3C//DTD SVG 1.1//EN"
 "http://www.w3.org/Graphics/SVG/1.1/DTD/svg11.dtd">
<!-- Generated by graphviz version 2.43.0 (0)
 -->
<!-- Title: Acl::NoteCheck Pages: 1 -->
<!--zoomable 329 -->

<svg id="main" version="1.1" xmlns="http://www.w3.org/2000/svg" xmlns:xlink="http://www.w3.org/1999/xlink" xml:space="preserve" onload="init(evt)">
<style type="text/css"><![CDATA[
.node, .edge {opacity: 0.7;}
.node.selected, .edge.selected {opacity: 1;}
.edge:hover path { stroke: red; }
.edge:hover polygon { stroke: red; fill: red; }
]]></style>

<defs>
  <circle id="rim" cx="0" cy="0" r="7"/>
  <circle id="rim2" cx="0" cy="0" r="3.5"/>
  <g id="zoomPlus">
    <use xlink:href="#rim" fill="#404040"><set attributeName="fill" to="#808080" begin="zoomplus.mouseover" end="zoomplus.mouseout"/></use>
    <path d="M-4,0h8M0,-4v8" fill="none" stroke="white" stroke-width="1.5" pointer-events="none"/>
  </g>
  <g id="zoomMin">
    <use xlink:href="#rim" fill="#404040"><set attributeName="fill" to="#808080" begin="zoomminus.mouseover" end="zoomminus.mouseout"/></use>
    <path d="M-4,0h8" fill="none" stroke="white" stroke-width="1.5" pointer-events="none"/>
  </g>
  <g id="arrowUp" transform="translate(30 24)">
    <use xlink:href="#rim"/>
    <path pointer-events="none" fill="none" stroke="white" stroke-width="1.5" d="M0,-3.0v7 M-2.5,-0.5L0,-3.0L2.5,-0.5"/>
  </g>
  <g id="arrowRight" transform="rotate(90) translate(36 -43)">
    <use xlink:href="#rim"/>
    <path pointer-events="none" fill="none" stroke="white" stroke-width="1.5" d="M0,-3.0v7 M-2.5,-0.5L0,-3.0L2.5,-0.5"/>
  </g>
  <g id="arrowDown" transform="rotate(180) translate(-30 -48)">
    <use xlink:href="#rim"/>
    <path pointer-events="none" fill="none" stroke="white" stroke-width="1.5" d="M0,-3.0v7 M-2.5,-0.5L0,-3.0L2.5,-0.5"/>
  </g>
  <g id="arrowLeft" transform="rotate(270) translate(-36 17)">
    <use xlink:href="#rim"/>
    <path pointer-events="none" fill="none" stroke="white" stroke-width="1.5" d="M0,-3.0v7 M-2.5,-0.5L0,-3.0L2.5,-0.5"/>
  </g>
  <g id="resetDef">
    <use xlink:href="#rim2" fill="#404040"><set attributeName="fill" to="#808080" begin="reset.mouseover" end="reset.mouseout"/></use>
  </g>
</defs>
<script type="application/ecmascript">
var viewWidth = 2204;
var viewHeight = 329;
var sectionId = 'dynsection-1';
</script>
<script type="application/ecmascript" xlink:href="svg.min.js"/>
<svg id="graph" class="graph">
<g id="viewport">
<title>Acl::NoteCheck</title>
<!-- Node1 -->
<g id="Node000001" class="node">
<title>Node1</title>
<g id="a_Node000001"><a xlink:title="a &quot;note&quot; ACL">
<polygon fill="#999999" stroke="#666666" points="2196,-148 2105,-148 2105,-129 2196,-129 2196,-148"/>
<text text-anchor="middle" x="2150.5" y="-136" font-family="Helvetica,sans-Serif" font-size="10.00">Acl::NoteCheck</text>
</a>
</g>
</g>
<!-- Node2 -->
<g id="Node000002" class="node">
<title>Node2</title>
<g id="a_Node000002"><a xlink:href="classAcl_1_1AnnotationCheck.html" target="_top" xlink:title="common parent of several ACLs dealing with transaction annotations">
<polygon fill="white" stroke="#666666" points="2068,-148 1947,-148 1947,-129 2068,-129 2068,-148"/>
<text text-anchor="middle" x="2007.5" y="-136" font-family="Helvetica,sans-Serif" font-size="10.00">Acl::AnnotationCheck</text>
</a>
</g>
</g>
<!-- Node2&#45;&gt;Node1 -->
<g id="edge1_Node000001_Node000002" class="edge">
<title>Node2&#45;&gt;Node1</title>
<g id="a_edge1_Node000001_Node000002"><a xlink:title=" ">
<path fill="none" stroke="#63b8ff" d="M2078.34,-138.5C2087.26,-138.5 2096.2,-138.5 2104.59,-138.5"/>
<polygon fill="#63b8ff" stroke="#63b8ff" points="2078.3,-135 2068.3,-138.5 2078.3,-142 2078.3,-135"/>
</a>
</g>
</g>
<!-- Node3 -->
<g id="Node000003" class="node">
<title>Node3</title>
<g id="a_Node000003"><a xlink:href="classAcl_1_1ParameterizedNode.html" target="_top" xlink:title=" ">
<polygon fill="white" stroke="#666666" points="1847.5,-270 1713.5,-270 1713.5,-229 1847.5,-229 1847.5,-270"/>
<text text-anchor="start" x="1721.5" y="-258" font-family="Helvetica,sans-Serif" font-size="10.00">Acl::ParameterizedNode</text>
<text text-anchor="start" x="1721.5" y="-247" font-family="Helvetica,sans-Serif" font-size="10.00">&lt; ACLData&lt; NotePairs::</text>
<text text-anchor="middle" x="1780.5" y="-236" font-family="Helvetica,sans-Serif" font-size="10.00">Entry * &gt; &gt;</text>
</a>
</g>
</g>
<!-- Node3&#45;&gt;Node2 -->
<g id="edge2_Node000002_Node000003" class="edge">
<title>Node3&#45;&gt;Node2</title>
<g id="a_edge2_Node000002_Node000003"><a xlink:title=" ">
<path fill="none" stroke="#63b8ff" d="M1832.47,-224.35C1881.46,-200.18 1952.94,-164.92 1987.02,-148.11"/>
<polygon fill="#63b8ff" stroke="#63b8ff" points="1830.71,-221.32 1823.29,-228.88 1833.81,-227.6 1830.71,-221.32"/>
</a>
</g>
</g>
<!-- Node4 -->
<g id="Node000004" class="node">
<title>Node4</title>
<g id="a_Node000004"><a xlink:href="classAcl_1_1Node.html" target="_top" xlink:title=" ">
<polygon fill="white" stroke="#666666" points="1267,-312 1204,-312 1204,-293 1267,-293 1267,-312"/>
<text text-anchor="middle" x="1235.5" y="-300" font-family="Helvetica,sans-Serif" font-size="10.00">Acl::Node</text>
</a>
</g>
</g>
<!-- Node4&#45;&gt;Node3 -->
<g id="edge3_Node000003_Node000004" class="edge">
<title>Node4&#45;&gt;Node3</title>
<g id="a_edge3_Node000003_Node000004"><a xlink:title=" ">
<path fill="none" stroke="#63b8ff" d="M1277.26,-306.55C1356.81,-313.34 1537.83,-323.26 1685,-290.5 1704.2,-286.23 1724.35,-278.05 1741.09,-270.12"/>
<polygon fill="#63b8ff" stroke="#63b8ff" points="1277.44,-303.06 1267.18,-305.66 1276.83,-310.03 1277.44,-303.06"/>
</a>
</g>
</g>
<!-- Node17 -->
<g id="Node000017" class="node">
<title>Node17</title>
<g id="a_Node000017"><a xlink:href="classAcl_1_1ParameterizedNode.html" target="_top" xlink:title=" ">
<polygon fill="white" stroke="#666666" points="1552,-280 1390,-280 1390,-261 1552,-261 1552,-280"/>
<text text-anchor="middle" x="1471" y="-268" font-family="Helvetica,sans-Serif" font-size="10.00">Acl::ParameterizedNode&lt; P &gt;</text>
</a>
</g>
</g>
<!-- Node4&#45;&gt;Node17 -->
<g id="edge19_Node000017_Node000004" class="edge">
<title>Node4&#45;&gt;Node17</title>
<g id="a_edge19_Node000017_Node000004"><a xlink:title=" ">
<path fill="none" stroke="#63b8ff" d="M1277.06,-296.94C1311.08,-292.28 1360.4,-285.52 1400.67,-280"/>
<polygon fill="#63b8ff" stroke="#63b8ff" points="1276.46,-293.49 1267.03,-298.32 1277.41,-300.43 1276.46,-293.49"/>
</a>
</g>
</g>
<!-- Node5 -->
<g id="Node000005" class="node">
<title>Node5</title>
<g id="a_Node000005"><a xlink:title=" ">
<polygon fill="white" stroke="#666666" points="325.5,-321 242.5,-321 242.5,-302 325.5,-302 325.5,-321"/>
<text text-anchor="middle" x="284" y="-309" font-family="Helvetica,sans-Serif" font-size="10.00">RefCountable</text>
</a>
</g>
</g>
<!-- Node5&#45;&gt;Node4 -->
<g id="edge4_Node000004_Node000005" class="edge">
<title>Node5&#45;&gt;Node4</title>
<g id="a_edge4_Node000004_Node000005"><a xlink:title=" ">
<path fill="none" stroke="#63b8ff" d="M335.92,-313.37C388.24,-315.13 472.05,-317.5 544.5,-317.5 544.5,-317.5 544.5,-317.5 976,-317.5 1058.49,-317.5 1155.54,-309.79 1203.89,-305.43"/>
<polygon fill="#63b8ff" stroke="#63b8ff" points="336.01,-309.87 325.89,-313.03 335.77,-316.87 336.01,-309.87"/>
</a>
</g>
</g>
<!-- Node10 -->
<g id="Node000010" class="node">
<title>Node10</title>
<g id="a_Node000010"><a xlink:href="classMemBlob.html" target="_top" xlink:title=" ">
<polygon fill="white" stroke="#666666" points="577,-251 514,-251 514,-232 577,-232 577,-251"/>
<text text-anchor="middle" x="545.5" y="-239" font-family="Helvetica,sans-Serif" font-size="10.00">MemBlob</text>
</a>
</g>
</g>
<!-- Node5&#45;&gt;Node10 -->
<g id="edge10_Node000010_Node000005" class="edge">
<title>Node5&#45;&gt;Node10</title>
<g id="a_edge10_Node000010_Node000005"><a xlink:title=" ">
<path fill="none" stroke="#63b8ff" d="M335.91,-308.14C376.48,-304.25 434.21,-295.96 482,-278.5 500.24,-271.84 519.15,-259.8 531.33,-251.27"/>
<polygon fill="#63b8ff" stroke="#63b8ff" points="335.37,-304.67 325.73,-309.06 336,-311.64 335.37,-304.67"/>
</a>
</g>
</g>
<!-- Node6 -->
<g id="Node000006" class="node">
<title>Node6</title>
<g id="a_Node000006"><a xlink:href="classSBuf.html" target="_top" xlink:title=" ">
<polygon fill="white" stroke="#666666" points="994.5,-273 955.5,-273 955.5,-254 994.5,-254 994.5,-273"/>
<text text-anchor="middle" x="975" y="-261" font-family="Helvetica,sans-Serif" font-size="10.00">SBuf</text>
</a>
</g>
</g>
<!-- Node6&#45;&gt;Node4 -->
<g id="edge5_Node000004_Node000006" class="edge">
<title>Node6&#45;&gt;Node4</title>
<g id="a_edge5_Node000004_Node000006"><a xlink:title=" ">
<path fill="none" stroke="#9a32cd" stroke-dasharray="5,2" d="M1004.51,-267.8C1053.47,-275.19 1153.13,-290.22 1203.66,-297.85"/>
<polygon fill="#9a32cd" stroke="#9a32cd" points="1005,-264.34 994.59,-266.3 1003.96,-271.26 1005,-264.34"/>
</a>
</g>
<text text-anchor="middle" x="1093" y="-288.5" font-family="Helvetica,sans-Serif" font-size="10.00" fill="grey"> name</text>
</g>
<!-- Node7 -->
<g id="Node000007" class="node">
<title>Node7</title>
<g id="a_Node000007"><a xlink:href="classInstanceId.html" target="_top" xlink:title=" ">
<polygon fill="white" stroke="#666666" points="482,-277 370,-277 370,-258 482,-258 482,-277"/>
<text text-anchor="middle" x="426" y="-265" font-family="Helvetica,sans-Serif" font-size="10.00">InstanceId&lt; SBuf &gt;</text>
</a>
</g>
</g>
<!-- Node7&#45;&gt;Node6 -->
<g id="edge6_Node000006_Node000007" class="edge">
<title>Node7&#45;&gt;Node6</title>
<g id="a_edge6_Node000006_Node000007"><a xlink:title=" ">
<path fill="none" stroke="#9a32cd" stroke-dasharray="5,2" d="M492.27,-267.68C583.19,-267.82 753.14,-267.71 898,-265.5 917.53,-265.2 939.88,-264.58 955.26,-264.11"/>
<polygon fill="#9a32cd" stroke="#9a32cd" points="492.12,-264.18 482.11,-267.66 492.11,-271.18 492.12,-264.18"/>
</a>
</g>
<text text-anchor="middle" x="645.5" y="-271.5" font-family="Helvetica,sans-Serif" font-size="10.00" fill="grey"> id</text>
</g>
<!-- Node8 -->
<g id="Node000008" class="node">
<title>Node8</title>
<g id="a_Node000008"><a xlink:href="classInstanceId.html" target="_top" xlink:title=" ">
<polygon fill="white" stroke="#666666" points="107,-266.5 0,-266.5 0,-236.5 107,-236.5 107,-266.5"/>
<text text-anchor="start" x="8" y="-254.5" font-family="Helvetica,sans-Serif" font-size="10.00">InstanceId&lt; Class,</text>
<text text-anchor="middle" x="53.5" y="-243.5" font-family="Helvetica,sans-Serif" font-size="10.00"> ValueType &gt;</text>
</a>
</g>
</g>
<!-- Node8&#45;&gt;Node7 -->
<g id="edge7_Node000007_Node000008" class="edge">
<title>Node8&#45;&gt;Node7</title>
<g id="a_edge7_Node000007_Node000008"><a xlink:title=" ">
<path fill="none" stroke="orange" stroke-dasharray="5,2" d="M117.32,-254.21C188.15,-257.27 302.22,-262.2 369.77,-265.11"/>
<polygon fill="orange" stroke="orange" points="117.33,-250.71 107.19,-253.78 117.03,-257.7 117.33,-250.71"/>
</a>
</g>
<text text-anchor="middle" x="161.5" y="-260.5" font-family="Helvetica,sans-Serif" font-size="10.00" fill="grey"> &lt; SBuf &gt;</text>
</g>
<!-- Node11 -->
<g id="Node000011" class="node">
<title>Node11</title>
<g id="a_Node000011"><a xlink:href="classInstanceId.html" target="_top" xlink:title=" ">
<polygon fill="white" stroke="#666666" points="352,-242 216,-242 216,-223 352,-223 352,-242"/>
<text text-anchor="middle" x="284" y="-230" font-family="Helvetica,sans-Serif" font-size="10.00">InstanceId&lt; MemBlob &gt;</text>
</a>
</g>
</g>
<!-- Node8&#45;&gt;Node11 -->
<g id="edge12_Node000011_Node000008" class="edge">
<title>Node8&#45;&gt;Node11</title>
<g id="a_edge12_Node000011_Node000008"><a xlink:title=" ">
<path fill="none" stroke="orange" stroke-dasharray="5,2" d="M117.24,-238.5C119.86,-238.13 122.45,-237.79 125,-237.5 154.72,-234.1 187.78,-232.69 215.94,-232.19"/>
<polygon fill="orange" stroke="orange" points="116.44,-235.08 107.09,-240.07 117.51,-242 116.44,-235.08"/>
</a>
</g>
<text text-anchor="middle" x="161.5" y="-240.5" font-family="Helvetica,sans-Serif" font-size="10.00" fill="grey"> &lt; MemBlob &gt;</text>
</g>
<!-- Node9 -->
<g id="Node000009" class="node">
<title>Node9</title>
<g id="a_Node000009"><a xlink:href="classRefCount.html" target="_top" xlink:title=" ">
<polygon fill="white" stroke="#666666" points="831,-251 700,-251 700,-232 831,-232 831,-251"/>
<text text-anchor="middle" x="765.5" y="-239" font-family="Helvetica,sans-Serif" font-size="10.00">RefCount&lt; MemBlob &gt;</text>
</a>
</g>
</g>
<!-- Node9&#45;&gt;Node6 -->
<g id="edge8_Node000006_Node000009" class="edge">
<title>Node9&#45;&gt;Node6</title>
<g id="a_edge8_Node000006_Node000009"><a xlink:title=" ">
<path fill="none" stroke="#9a32cd" stroke-dasharray="5,2" d="M841.23,-248.63C859.79,-250.48 879.62,-252.5 898,-254.5 917.55,-256.62 939.9,-259.3 955.27,-261.18"/>
<polygon fill="#9a32cd" stroke="#9a32cd" points="841.36,-245.13 831.07,-247.63 840.68,-252.1 841.36,-245.13"/>
</a>
</g>
<text text-anchor="middle" x="873.5" y="-257.5" font-family="Helvetica,sans-Serif" font-size="10.00" fill="grey"> store_</text>
</g>
<!-- Node10&#45;&gt;Node9 -->
<g id="edge9_Node000009_Node000010" class="edge">
<title>Node10&#45;&gt;Node9</title>
<g id="a_edge9_Node000009_Node000010"><a xlink:title=" ">
<path fill="none" stroke="#9a32cd" stroke-dasharray="5,2" d="M587.47,-241.5C619.08,-241.5 663.41,-241.5 699.8,-241.5"/>
<polygon fill="#9a32cd" stroke="#9a32cd" points="587.27,-238 577.27,-241.5 587.27,-245 587.27,-238"/>
</a>
</g>
<text text-anchor="middle" x="645.5" y="-244.5" font-family="Helvetica,sans-Serif" font-size="10.00" fill="grey"> p_</text>
</g>
<!-- Node11&#45;&gt;Node10 -->
<g id="edge11_Node000010_Node000011" class="edge">
<title>Node11&#45;&gt;Node10</title>
<g id="a_edge11_Node000010_Node000011"><a xlink:title=" ">
<path fill="none" stroke="#9a32cd" stroke-dasharray="5,2" d="M362.09,-233.77C398.47,-234.54 442.48,-235.73 482,-237.5 492.43,-237.97 503.82,-238.64 514,-239.31"/>
<polygon fill="#9a32cd" stroke="#9a32cd" points="362.11,-230.27 352.04,-233.56 361.97,-237.27 362.11,-230.27"/>
</a>
</g>
<text text-anchor="middle" x="426" y="-240.5" font-family="Helvetica,sans-Serif" font-size="10.00" fill="grey"> id</text>
</g>
<!-- Node12 -->
<g id="Node000012" class="node">
<title>Node12</title>
<g id="a_Node000012"><a xlink:href="classRefCount.html" target="_top" xlink:title=" ">
<polygon fill="white" stroke="#666666" points="591,-214 500,-214 500,-195 591,-195 591,-214"/>
<text text-anchor="middle" x="545.5" y="-202" font-family="Helvetica,sans-Serif" font-size="10.00">RefCount&lt; C &gt;</text>
</a>
</g>
</g>
<!-- Node12&#45;&gt;Node9 -->
<g id="edge13_Node000009_Node000012" class="edge">
<title>Node12&#45;&gt;Node9</title>
<g id="a_edge13_Node000009_Node000012"><a xlink:title=" ">
<path fill="none" stroke="orange" stroke-dasharray="5,2" d="M601.01,-213.11C625.75,-217.08 655.37,-221.92 682,-226.5 692.04,-228.23 702.76,-230.13 713.04,-231.99"/>
<polygon fill="orange" stroke="orange" points="601.51,-209.65 591.09,-211.52 600.41,-216.56 601.51,-209.65"/>
</a>
</g>
<text text-anchor="middle" x="645.5" y="-229.5" font-family="Helvetica,sans-Serif" font-size="10.00" fill="grey"> &lt; MemBlob &gt;</text>
</g>
<!-- Node13 -->
<g id="Node000013" class="node">
<title>Node13</title>
<g id="a_Node000013"><a xlink:href="classSBufStats.html" target="_top" xlink:title=" ">
<polygon fill="white" stroke="#666666" points="797.5,-214 733.5,-214 733.5,-195 797.5,-195 797.5,-214"/>
<text text-anchor="middle" x="765.5" y="-202" font-family="Helvetica,sans-Serif" font-size="10.00">SBufStats</text>
</a>
</g>
</g>
<!-- Node13&#45;&gt;Node6 -->
<g id="edge14_Node000006_Node000013" class="edge">
<title>Node13&#45;&gt;Node6</title>
<g id="a_edge14_Node000006_Node000013"><a xlink:title=" ">
<path fill="none" stroke="#9a32cd" stroke-dasharray="5,2" d="M807.53,-212.83C833.64,-218.46 868.06,-226.49 898,-235.5 917.93,-241.5 940.22,-249.92 955.47,-255.96"/>
<polygon fill="#9a32cd" stroke="#9a32cd" points="808.11,-209.37 797.6,-210.72 806.66,-216.22 808.11,-209.37"/>
</a>
</g>
<text text-anchor="middle" x="873.5" y="-238.5" font-family="Helvetica,sans-Serif" font-size="10.00" fill="grey"> stats</text>
</g>
<!-- Node14 -->
<g id="Node000014" class="node">
<title>Node14</title>
<g id="a_Node000014"><a xlink:title=" ">
<polygon fill="white" stroke="#666666" points="1319,-241 1152,-241 1152,-222 1319,-222 1319,-241"/>
<text text-anchor="middle" x="1235.5" y="-229" font-family="Helvetica,sans-Serif" font-size="10.00">std::unique_ptr&lt; Parameters &gt;</text>
</a>
</g>
</g>
<!-- Node14&#45;&gt;Node3 -->
<g id="edge15_Node000003_Node000014" class="edge">
<title>Node14&#45;&gt;Node3</title>
<g id="a_edge15_Node000003_Node000014"><a xlink:title=" ">
<path fill="none" stroke="#9a32cd" stroke-dasharray="5,2" d="M1329.5,-233.88C1392.33,-235.56 1477.17,-237.95 1552,-240.5 1606.32,-242.35 1667.92,-244.81 1713.31,-246.69"/>
<polygon fill="#9a32cd" stroke="#9a32cd" points="1329.3,-230.38 1319.21,-233.61 1329.11,-237.37 1329.3,-230.38"/>
</a>
</g>
<text text-anchor="middle" x="1471" y="-243.5" font-family="Helvetica,sans-Serif" font-size="10.00" fill="grey"> data</text>
</g>
<!-- Node14&#45;&gt;Node17 -->
<g id="edge20_Node000017_Node000014" class="edge">
<title>Node14&#45;&gt;Node17</title>
<g id="a_edge20_Node000017_Node000014"><a xlink:title=" ">
<path fill="none" stroke="#9a32cd" stroke-dasharray="5,2" d="M1303.65,-242.72C1338.27,-248.5 1380.04,-255.47 1413.06,-260.99"/>
<polygon fill="#9a32cd" stroke="#9a32cd" points="1304.06,-239.24 1293.62,-241.04 1302.91,-246.14 1304.06,-239.24"/>
</a>
</g>
<text text-anchor="middle" x="1354.5" y="-256.5" font-family="Helvetica,sans-Serif" font-size="10.00" fill="grey"> data</text>
</g>
<!-- Node15 -->
<g id="Node000015" class="node">
<title>Node15</title>
<g id="a_Node000015"><a xlink:title=" ">
<polygon fill="white" stroke="#666666" points="1034,-200 916,-200 916,-181 1034,-181 1034,-200"/>
<text text-anchor="middle" x="975" y="-188" font-family="Helvetica,sans-Serif" font-size="10.00">std::unique_ptr&lt; T &gt;</text>
</a>
</g>
</g>
<!-- Node15&#45;&gt;Node14 -->
<g id="edge16_Node000014_Node000015" class="edge">
<title>Node15&#45;&gt;Node14</title>
<g id="a_edge16_Node000014_Node000015"><a xlink:title=" ">
<path fill="none" stroke="orange" stroke-dasharray="5,2" d="M1044.07,-201.3C1084.55,-207.72 1135.45,-215.79 1174.44,-221.97"/>
<polygon fill="orange" stroke="orange" points="1044.44,-197.81 1034.01,-199.7 1043.34,-204.72 1044.44,-197.81"/>
</a>
</g>
<text text-anchor="middle" x="1093" y="-218.5" font-family="Helvetica,sans-Serif" font-size="10.00" fill="grey"> &lt; Parameters &gt;</text>
</g>
<!-- Node16 -->
<g id="Node000016" class="node">
<title>Node16</title>
<g id="a_Node000016"><a xlink:title=" ">
<polygon fill="white" stroke="#666666" points="780,-162 751,-162 751,-143 780,-143 780,-162"/>
<text text-anchor="middle" x="765.5" y="-150" font-family="Helvetica,sans-Serif" font-size="10.00">T</text>
</a>
</g>
</g>
<!-- Node16&#45;&gt;Node15 -->
<g id="edge17_Node000015_Node000016" class="edge">
<title>Node16&#45;&gt;Node15</title>
<g id="a_edge17_Node000015_Node000016"><a xlink:title=" ">
<path fill="none" stroke="#9a32cd" stroke-dasharray="5,2" d="M790.2,-155.19C816.62,-158.36 860.57,-164.14 898,-171.5 911.48,-174.15 926.15,-177.67 938.98,-180.95"/>
<polygon fill="#9a32cd" stroke="#9a32cd" points="790.36,-151.68 780.02,-153.99 789.54,-158.64 790.36,-151.68"/>
</a>
</g>
<text text-anchor="middle" x="873.5" y="-174.5" font-family="Helvetica,sans-Serif" font-size="10.00" fill="grey"> ptr</text>
</g>
<!-- Node21 -->
<g id="Node000021" class="node">
<title>Node21</title>
<g id="a_Node000021"><a xlink:title=" ">
<polygon fill="white" stroke="#666666" points="1023.5,-139 926.5,-139 926.5,-120 1023.5,-120 1023.5,-139"/>
<text text-anchor="middle" x="975" y="-127" font-family="Helvetica,sans-Serif" font-size="10.00">std::vector&lt; T &gt;</text>
</a>
</g>
</g>
<!-- Node16&#45;&gt;Node21 -->
<g id="edge26_Node000021_Node000016" class="edge">
<title>Node16&#45;&gt;Node21</title>
<g id="a_edge26_Node000021_Node000016"><a xlink:title=" ">
<path fill="none" stroke="#9a32cd" stroke-dasharray="5,2" d="M789.97,-147.07C806.4,-143.48 828.93,-139 849,-136.5 874.45,-133.33 903,-131.6 926.38,-130.65"/>
<polygon fill="#9a32cd" stroke="#9a32cd" points="789.13,-143.67 780.13,-149.27 790.65,-150.5 789.13,-143.67"/>
</a>
</g>
<text text-anchor="middle" x="873.5" y="-139.5" font-family="Helvetica,sans-Serif" font-size="10.00" fill="grey"> elements</text>
</g>
<!-- Node17&#45;&gt;Node3 -->
<g id="edge18_Node000003_Node000017" class="edge">
<title>Node17&#45;&gt;Node3</title>
<g id="a_edge18_Node000003_Node000017"><a xlink:title=" ">
<path fill="none" stroke="orange" stroke-dasharray="5,2" d="M1562.54,-264.32C1610.87,-261.02 1669.28,-257.03 1713.31,-254.02"/>
<polygon fill="orange" stroke="orange" points="1562.13,-260.84 1552.39,-265.01 1562.61,-267.82 1562.13,-260.84"/>
</a>
</g>
<text text-anchor="start" x="1570" y="-278.5" font-family="Helvetica,sans-Serif" font-size="10.00" fill="grey"> &lt; ACLData&lt; NotePairs</text>
<text text-anchor="middle" x="1627.5" y="-267.5" font-family="Helvetica,sans-Serif" font-size="10.00" fill="grey">::Entry * &gt; &gt;</text>
</g>
<!-- Node18 -->
<g id="Node000018" class="node">
<title>Node18</title>
<g id="a_Node000018"><a xlink:href="classAcl_1_1OptionValue.html" target="_top" xlink:title=" ">
<polygon fill="white" stroke="#666666" points="1858,-61.5 1703,-61.5 1703,-31.5 1858,-31.5 1858,-61.5"/>
<text text-anchor="start" x="1711" y="-49.5" font-family="Helvetica,sans-Serif" font-size="10.00">Acl::OptionValue&lt; Character</text>
<text text-anchor="middle" x="1780.5" y="-38.5" font-family="Helvetica,sans-Serif" font-size="10.00">Set &gt;</text>
</a>
</g>
</g>
<!-- Node18&#45;&gt;Node2 -->
<g id="edge21_Node000002_Node000018" class="edge">
<title>Node18&#45;&gt;Node2</title>
<g id="a_edge21_Node000002_Node000018"><a xlink:title=" ">
<path fill="none" stroke="#9a32cd" stroke-dasharray="5,2" d="M1827.8,-65.43C1875.03,-84.74 1946.43,-113.94 1983.03,-128.9"/>
<polygon fill="#9a32cd" stroke="#9a32cd" points="1828.98,-62.13 1818.4,-61.59 1826.33,-68.61 1828.98,-62.13"/>
</a>
</g>
<text text-anchor="middle" x="1902.5" y="-109.5" font-family="Helvetica,sans-Serif" font-size="10.00" fill="grey"> delimiters</text>
</g>
<!-- Node19 -->
<g id="Node000019" class="node">
<title>Node19</title>
<g id="a_Node000019"><a xlink:href="classCharacterSet.html" target="_top" xlink:title="optimized set of C chars, with quick membership test and merge support">
<polygon fill="white" stroke="#666666" points="1511,-56 1431,-56 1431,-37 1511,-37 1511,-56"/>
<text text-anchor="middle" x="1471" y="-44" font-family="Helvetica,sans-Serif" font-size="10.00">CharacterSet</text>
</a>
</g>
</g>
<!-- Node19&#45;&gt;Node18 -->
<g id="edge22_Node000018_Node000019" class="edge">
<title>Node19&#45;&gt;Node18</title>
<g id="a_edge22_Node000018_Node000019"><a xlink:title=" ">
<path fill="none" stroke="#9a32cd" stroke-dasharray="5,2" d="M1521.28,-46.5C1570.21,-46.5 1645.95,-46.5 1702.76,-46.5"/>
<polygon fill="#9a32cd" stroke="#9a32cd" points="1521.26,-43 1511.26,-46.5 1521.26,-50 1521.26,-43"/>
</a>
</g>
<text text-anchor="middle" x="1627.5" y="-49.5" font-family="Helvetica,sans-Serif" font-size="10.00" fill="grey"> value</text>
</g>
<!-- Node19&#45;&gt;Node19 -->
<g id="edge23_Node000019_Node000019" class="edge">
<title>Node19&#45;&gt;Node19</title>
<g id="a_edge23_Node000019_Node000019"><a xlink:title=" ">
<path fill="none" stroke="#9a32cd" stroke-dasharray="5,2" d="M1449.52,-65.55C1450.95,-70.38 1458.11,-74 1471,-74 1491.62,-74 1497.58,-64.73 1488.88,-56.08"/>
<polygon fill="#9a32cd" stroke="#9a32cd" points="1452.84,-66.67 1453.12,-56.08 1446.3,-64.19 1452.84,-66.67"/>
</a>
</g>
<text text-anchor="middle" x="1471" y="-187" font-family="Helvetica,sans-Serif" font-size="10.00" fill="grey"> ALPHA</text>
<text text-anchor="middle" x="1471" y="-176" font-family="Helvetica,sans-Serif" font-size="10.00" fill="grey">BIT</text>
<text text-anchor="middle" x="1471" y="-165" font-family="Helvetica,sans-Serif" font-size="10.00" fill="grey">CR</text>
<text text-anchor="middle" x="1471" y="-154" font-family="Helvetica,sans-Serif" font-size="10.00" fill="grey">CTEXT</text>
<text text-anchor="middle" x="1471" y="-143" font-family="Helvetica,sans-Serif" font-size="10.00" fill="grey">CTL</text>
<text text-anchor="middle" x="1471" y="-132" font-family="Helvetica,sans-Serif" font-size="10.00" fill="grey">DIGIT</text>
<text text-anchor="middle" x="1471" y="-121" font-family="Helvetica,sans-Serif" font-size="10.00" fill="grey">DQUOTE</text>
<text text-anchor="middle" x="1471" y="-110" font-family="Helvetica,sans-Serif" font-size="10.00" fill="grey">ETAGC</text>
<text text-anchor="middle" x="1471" y="-99" font-family="Helvetica,sans-Serif" font-size="10.00" fill="grey">HEXDIG</text>
<text text-anchor="middle" x="1471" y="-88" font-family="Helvetica,sans-Serif" font-size="10.00" fill="grey">HTAB</text>
<text text-anchor="middle" x="1471" y="-77" font-family="Helvetica,sans-Serif" font-size="10.00" fill="grey">...</text>
</g>
<!-- Node20 -->
<g id="Node000020" class="node">
<title>Node20</title>
<g id="a_Node000020"><a xlink:title=" ">
<polygon fill="white" stroke="#666666" points="1298,-115 1173,-115 1173,-96 1298,-96 1298,-115"/>
<text text-anchor="middle" x="1235.5" y="-103" font-family="Helvetica,sans-Serif" font-size="10.00">std::vector&lt; uint8_t &gt;</text>
</a>
</g>
</g>
<!-- Node20&#45;&gt;Node19 -->
<g id="edge24_Node000019_Node000020" class="edge">
<title>Node20&#45;&gt;Node19</title>
<g id="a_edge24_Node000019_Node000020"><a xlink:title=" ">
<path fill="none" stroke="#9a32cd" stroke-dasharray="5,2" d="M1284.12,-93.47C1327.9,-82.41 1391.95,-66.22 1432.28,-56.03"/>
<polygon fill="#9a32cd" stroke="#9a32cd" points="1283.11,-90.11 1274.28,-95.96 1284.83,-96.9 1283.11,-90.11"/>
</a>
</g>
<text text-anchor="middle" x="1354.5" y="-83.5" font-family="Helvetica,sans-Serif" font-size="10.00" fill="grey"> chars_</text>
</g>
<!-- Node21&#45;&gt;Node20 -->
<g id="edge25_Node000020_Node000021" class="edge">
<title>Node21&#45;&gt;Node20</title>
<g id="a_edge25_Node000020_Node000021"><a xlink:title=" ">
<path fill="none" stroke="orange" stroke-dasharray="5,2" d="M1033.9,-124.12C1075.23,-120.29 1130.74,-115.13 1172.89,-111.22"/>
<polygon fill="orange" stroke="orange" points="1033.35,-120.66 1023.71,-125.07 1033.99,-127.63 1033.35,-120.66"/>
</a>
</g>
<text text-anchor="middle" x="1093" y="-125.5" font-family="Helvetica,sans-Serif" font-size="10.00" fill="grey"> &lt; uint8_t &gt;</text>
</g>
<!-- Node22 -->
<g id="Node000022" class="node">
<title>Node22</title>
<g id="a_Node000022"><a xlink:href="classAcl_1_1OptionValue.html" target="_top" xlink:title="Stores configuration of a typical boolean flag or a single&#45;value Option.">
<polygon fill="white" stroke="#666666" points="1544,-19 1398,-19 1398,0 1544,0 1544,-19"/>
<text text-anchor="middle" x="1471" y="-7" font-family="Helvetica,sans-Serif" font-size="10.00">Acl::OptionValue&lt; Value &gt;</text>
</a>
</g>
</g>
<!-- Node22&#45;&gt;Node18 -->
<g id="edge27_Node000018_Node000022" class="edge">
<title>Node22&#45;&gt;Node18</title>
<g id="a_edge27_Node000018_Node000022"><a xlink:title=" ">
<path fill="none" stroke="orange" stroke-dasharray="5,2" d="M1554.22,-16.94C1593.81,-20.79 1641.93,-25.86 1685,-31.5 1690.85,-32.27 1696.89,-33.11 1702.96,-33.99"/>
<polygon fill="orange" stroke="orange" points="1554.38,-13.44 1544.09,-15.96 1553.7,-20.4 1554.38,-13.44"/>
</a>
</g>
<text text-anchor="middle" x="1627.5" y="-34.5" font-family="Helvetica,sans-Serif" font-size="10.00" fill="grey"> &lt; CharacterSet &gt;</text>
</g>
</g>
</svg>

<g id="navigator" transform="translate(0 0)" fill="#404254">
  <rect fill="#f2f5e9" fill-opacity="0.5" stroke="#606060" stroke-width=".5" x="0" y="0" width="60" height="60"/>
  <use id="zoomplus" xlink:href="#zoomPlus" x="17" y="9" onmousedown="handleZoom(evt,'in')"/>
  <use id="zoomminus" xlink:href="#zoomMin" x="42" y="9" onmousedown="handleZoom(evt,'out')"/>
  <use id="reset" xlink:href="#resetDef" x="30" y="36" onmousedown="handleReset()"/>
   <use id="arrowup" xlink:href="#arrowUp" x="0" y="0" onmousedown="handlePan(0,-1)"/>
  <use id="arrowright" xlink:href="#arrowRight" x="0" y="0" onmousedown="handlePan(1,0)"/>
  <use id="arrowdown" xlink:href="#arrowDown" x="0" y="0" onmousedown="handlePan(0,1)"/>
  <use id="arrowleft" xlink:href="#arrowLeft" x="0" y="0" onmousedown="handlePan(-1,0)"/>
</g>
<svg viewBox="0 0 15 15" width="100%" height="30px" preserveAspectRatio="xMaxYMin meet">
 <g id="arrow_out" transform="scale(0.3 0.3)">
  <a xlink:href="classAcl_1_1NoteCheck__coll__graph_org.svg" target="_base">
   <rect id="button" ry="5" rx="5" y="6" x="6" height="38" width="38"
        fill="#f2f5e9" fill-opacity="0.5" stroke="#606060" stroke-width="1.0"/>
   <path id="arrow"
     d="M 11.500037,31.436501 C 11.940474,20.09759 22.043105,11.32322 32.158766,21.979434 L 37.068811,17.246167 C 37.068811,17.246167 37.088388,32 37.088388,32 L 22.160133,31.978069 C 22.160133,31.978069 26.997745,27.140456 26.997745,27.140456 C 18.528582,18.264221 13.291696,25.230495 11.500037,31.436501 z"
     style="fill:#404040;"/>
  </a>
 </g>
</svg>

<style type='text/css'>
<![CDATA[
[data-mouse-over-selected='false'] { opacity: 0.7; }
[data-mouse-over-selected='true']  { opacity: 1.0; }
]]>
</style>
<script type="application/ecmascript"><![CDATA[
document.addEventListener('DOMContentLoaded', (event) => {
  highlightEdges();
  highlightAdjacentNodes();
});
]]></script>
</svg>
