<?xml version="1.0" encoding="UTF-8" standalone="no"?>
<!DOCTYPE svg PUBLIC "-//W3C//DTD SVG 1.1//EN"
 "http://www.w3.org/Graphics/SVG/1.1/DTD/svg11.dtd">
<!-- Generated by graphviz version 2.43.0 (0)
 -->
<!-- Title: Ipc::Forwarder Pages: 1 -->
<!--zoomable 302 -->

<svg id="main" version="1.1" xmlns="http://www.w3.org/2000/svg" xmlns:xlink="http://www.w3.org/1999/xlink" xml:space="preserve" onload="init(evt)">
<style type="text/css"><![CDATA[
.node, .edge {opacity: 0.7;}
.node.selected, .edge.selected {opacity: 1;}
.edge:hover path { stroke: red; }
.edge:hover polygon { stroke: red; fill: red; }
]]></style>

<defs>
  <circle id="rim" cx="0" cy="0" r="7"/>
  <circle id="rim2" cx="0" cy="0" r="3.5"/>
  <g id="zoomPlus">
    <use xlink:href="#rim" fill="#404040"><set attributeName="fill" to="#808080" begin="zoomplus.mouseover" end="zoomplus.mouseout"/></use>
    <path d="M-4,0h8M0,-4v8" fill="none" stroke="white" stroke-width="1.5" pointer-events="none"/>
  </g>
  <g id="zoomMin">
    <use xlink:href="#rim" fill="#404040"><set attributeName="fill" to="#808080" begin="zoomminus.mouseover" end="zoomminus.mouseout"/></use>
    <path d="M-4,0h8" fill="none" stroke="white" stroke-width="1.5" pointer-events="none"/>
  </g>
  <g id="arrowUp" transform="translate(30 24)">
    <use xlink:href="#rim"/>
    <path pointer-events="none" fill="none" stroke="white" stroke-width="1.5" d="M0,-3.0v7 M-2.5,-0.5L0,-3.0L2.5,-0.5"/>
  </g>
  <g id="arrowRight" transform="rotate(90) translate(36 -43)">
    <use xlink:href="#rim"/>
    <path pointer-events="none" fill="none" stroke="white" stroke-width="1.5" d="M0,-3.0v7 M-2.5,-0.5L0,-3.0L2.5,-0.5"/>
  </g>
  <g id="arrowDown" transform="rotate(180) translate(-30 -48)">
    <use xlink:href="#rim"/>
    <path pointer-events="none" fill="none" stroke="white" stroke-width="1.5" d="M0,-3.0v7 M-2.5,-0.5L0,-3.0L2.5,-0.5"/>
  </g>
  <g id="arrowLeft" transform="rotate(270) translate(-36 17)">
    <use xlink:href="#rim"/>
    <path pointer-events="none" fill="none" stroke="white" stroke-width="1.5" d="M0,-3.0v7 M-2.5,-0.5L0,-3.0L2.5,-0.5"/>
  </g>
  <g id="resetDef">
    <use xlink:href="#rim2" fill="#404040"><set attributeName="fill" to="#808080" begin="reset.mouseover" end="reset.mouseout"/></use>
  </g>
</defs>
<script type="application/ecmascript">
var viewWidth = 668;
var viewHeight = 302;
var sectionId = 'dynsection-1';
</script>
<script type="application/ecmascript" xlink:href="svg.min.js"/>
<svg id="graph" class="graph">
<g id="viewport">
<title>Ipc::Forwarder</title>
<!-- Node1 -->
<g id="Node000001" class="node">
<title>Node1</title>
<g id="a_Node000001"><a xlink:title=" ">
<polygon fill="#999999" stroke="#666666" points="408,-19 322,-19 322,0 408,0 408,-19"/>
<text text-anchor="middle" x="365" y="-7" font-family="Helvetica,sans-Serif" font-size="10.00">Ipc::Forwarder</text>
</a>
</g>
</g>
<!-- Node2 -->
<g id="Node000002" class="node">
<title>Node2</title>
<g id="a_Node000002"><a xlink:href="classAsyncJob.html" target="_top" xlink:title=" ">
<polygon fill="white" stroke="#666666" points="197.5,-85 136.5,-85 136.5,-66 197.5,-66 197.5,-85"/>
<text text-anchor="middle" x="167" y="-73" font-family="Helvetica,sans-Serif" font-size="10.00">AsyncJob</text>
</a>
</g>
</g>
<!-- Node2&#45;&gt;Node1 -->
<g id="edge1_Node000001_Node000002" class="edge">
<title>Node2&#45;&gt;Node1</title>
<g id="a_edge1_Node000001_Node000002"><a xlink:title=" ">
<path fill="none" stroke="#63b8ff" d="M203.37,-62.74C242.44,-50.11 303.6,-30.35 338.4,-19.1"/>
<polygon fill="#63b8ff" stroke="#63b8ff" points="202.14,-59.46 193.7,-65.87 204.29,-66.12 202.14,-59.46"/>
</a>
</g>
</g>
<!-- Node3 -->
<g id="Node000003" class="node">
<title>Node3</title>
<g id="a_Node000003"><a xlink:href="classCbdataParent.html" target="_top" xlink:title=" ">
<polygon fill="white" stroke="#666666" points="82,-151 0,-151 0,-132 82,-132 82,-151"/>
<text text-anchor="middle" x="41" y="-139" font-family="Helvetica,sans-Serif" font-size="10.00">CbdataParent</text>
</a>
</g>
</g>
<!-- Node3&#45;&gt;Node2 -->
<g id="edge2_Node000002_Node000003" class="edge">
<title>Node3&#45;&gt;Node2</title>
<g id="a_edge2_Node000002_Node000003"><a xlink:title=" ">
<path fill="none" stroke="#63b8ff" d="M67.19,-127.19C92.02,-114.59 128.58,-96.01 149.87,-85.2"/>
<polygon fill="#63b8ff" stroke="#63b8ff" points="65.32,-124.22 57.99,-131.87 68.49,-130.46 65.32,-124.22"/>
</a>
</g>
</g>
<!-- Node4 -->
<g id="Node000004" class="node">
<title>Node4</title>
<g id="a_Node000004"><a xlink:href="classInstanceId.html" target="_top" xlink:title=" ">
<polygon fill="white" stroke="#666666" points="234,-151 100,-151 100,-132 234,-132 234,-151"/>
<text text-anchor="middle" x="167" y="-139" font-family="Helvetica,sans-Serif" font-size="10.00">InstanceId&lt; AsyncJob &gt;</text>
</a>
</g>
</g>
<!-- Node4&#45;&gt;Node2 -->
<g id="edge3_Node000002_Node000004" class="edge">
<title>Node4&#45;&gt;Node2</title>
<g id="a_edge3_Node000002_Node000004"><a xlink:title=" ">
<path fill="none" stroke="#9a32cd" stroke-dasharray="5,2" d="M167,-121.58C167,-109.63 167,-94.72 167,-85.41"/>
<polygon fill="#9a32cd" stroke="#9a32cd" points="163.5,-121.87 167,-131.87 170.5,-121.87 163.5,-121.87"/>
</a>
</g>
<text text-anchor="middle" x="173.5" y="-106" font-family="Helvetica,sans-Serif" font-size="10.00" fill="grey"> id</text>
</g>
<!-- Node5 -->
<g id="Node000005" class="node">
<title>Node5</title>
<g id="a_Node000005"><a xlink:href="classInstanceId.html" target="_top" xlink:title=" ">
<polygon fill="white" stroke="#666666" points="220.5,-228 113.5,-228 113.5,-198 220.5,-198 220.5,-228"/>
<text text-anchor="start" x="121.5" y="-216" font-family="Helvetica,sans-Serif" font-size="10.00">InstanceId&lt; Class,</text>
<text text-anchor="middle" x="167" y="-205" font-family="Helvetica,sans-Serif" font-size="10.00"> ValueType &gt;</text>
</a>
</g>
</g>
<!-- Node5&#45;&gt;Node4 -->
<g id="edge4_Node000004_Node000005" class="edge">
<title>Node5&#45;&gt;Node4</title>
<g id="a_edge4_Node000004_Node000005"><a xlink:title=" ">
<path fill="none" stroke="orange" stroke-dasharray="5,2" d="M167,-187.56C167,-174.95 167,-160.35 167,-151.27"/>
<polygon fill="orange" stroke="orange" points="163.5,-187.94 167,-197.94 170.5,-187.94 163.5,-187.94"/>
</a>
</g>
<text text-anchor="middle" x="202" y="-172" font-family="Helvetica,sans-Serif" font-size="10.00" fill="grey"> &lt; AsyncJob &gt;</text>
</g>
<!-- Node6 -->
<g id="Node000006" class="node">
<title>Node6</title>
<g id="a_Node000006"><a xlink:href="classRefCount.html" target="_top" xlink:title=" ">
<polygon fill="white" stroke="#666666" points="343.5,-151 252.5,-151 252.5,-132 343.5,-132 343.5,-151"/>
<text text-anchor="middle" x="298" y="-139" font-family="Helvetica,sans-Serif" font-size="10.00">RefCount&lt; C &gt;</text>
</a>
</g>
</g>
<!-- Node6&#45;&gt;Node2 -->
<g id="edge5_Node000002_Node000006" class="edge">
<title>Node6&#45;&gt;Node2</title>
<g id="a_edge5_Node000002_Node000006"><a xlink:title=" ">
<path fill="none" stroke="#9a32cd" stroke-dasharray="5,2" d="M260.2,-128.61C248.67,-124.5 236.11,-119.52 225,-114 208.03,-105.57 189.92,-93.26 178.53,-85.07"/>
<polygon fill="#9a32cd" stroke="#9a32cd" points="259.41,-132.04 270,-131.99 261.69,-125.42 259.41,-132.04"/>
</a>
</g>
<text text-anchor="middle" x="240.5" y="-106" font-family="Helvetica,sans-Serif" font-size="10.00" fill="grey"> inCall</text>
</g>
<!-- Node7 -->
<g id="Node000007" class="node">
<title>Node7</title>
<g id="a_Node000007"><a xlink:href="classRefCount.html" target="_top" xlink:title=" ">
<polygon fill="white" stroke="#666666" points="362.5,-85 215.5,-85 215.5,-66 362.5,-66 362.5,-85"/>
<text text-anchor="middle" x="289" y="-73" font-family="Helvetica,sans-Serif" font-size="10.00">RefCount&lt; CodeContext &gt;</text>
</a>
</g>
</g>
<!-- Node6&#45;&gt;Node7 -->
<g id="edge10_Node000007_Node000006" class="edge">
<title>Node6&#45;&gt;Node7</title>
<g id="a_edge10_Node000007_Node000006"><a xlink:title=" ">
<path fill="none" stroke="orange" stroke-dasharray="5,2" d="M270.7,-125.75C266.79,-122.42 263.32,-118.51 261,-114 255.5,-103.3 265.72,-92.44 275.32,-85.18"/>
<polygon fill="orange" stroke="orange" points="268.94,-128.8 279.11,-131.78 273.02,-123.11 268.94,-128.8"/>
</a>
</g>
<text text-anchor="middle" x="305.5" y="-106" font-family="Helvetica,sans-Serif" font-size="10.00" fill="grey"> &lt; CodeContext &gt;</text>
</g>
<!-- Node11 -->
<g id="Node000011" class="node">
<title>Node11</title>
<g id="a_Node000011"><a xlink:href="classRefCount.html" target="_top" xlink:title=" ">
<polygon fill="white" stroke="#666666" points="505,-85 381,-85 381,-66 505,-66 505,-85"/>
<text text-anchor="middle" x="443" y="-73" font-family="Helvetica,sans-Serif" font-size="10.00">RefCount&lt; Request &gt;</text>
</a>
</g>
</g>
<!-- Node6&#45;&gt;Node11 -->
<g id="edge17_Node000011_Node000006" class="edge">
<title>Node6&#45;&gt;Node11</title>
<g id="a_edge17_Node000011_Node000006"><a xlink:title=" ">
<path fill="none" stroke="orange" stroke-dasharray="5,2" d="M324.6,-127.29C332.79,-123.13 341.81,-118.45 350,-114 358.57,-109.34 360.15,-107.11 369,-103 383.98,-96.05 401.33,-89.75 415.46,-85.04"/>
<polygon fill="orange" stroke="orange" points="322.81,-124.27 315.45,-131.9 325.96,-130.52 322.81,-124.27"/>
</a>
</g>
<text text-anchor="middle" x="402" y="-106" font-family="Helvetica,sans-Serif" font-size="10.00" fill="grey"> &lt; Request &gt;</text>
</g>
<!-- Node7&#45;&gt;Node1 -->
<g id="edge6_Node000001_Node000007" class="edge">
<title>Node7&#45;&gt;Node1</title>
<g id="a_edge6_Node000001_Node000007"><a xlink:title=" ">
<path fill="none" stroke="#9a32cd" stroke-dasharray="5,2" d="M307.19,-59.18C321.94,-46.76 342.22,-29.68 354.43,-19.41"/>
<polygon fill="#9a32cd" stroke="#9a32cd" points="304.64,-56.75 299.25,-65.87 309.15,-62.1 304.64,-56.75"/>
</a>
</g>
<text text-anchor="middle" x="364.5" y="-40" font-family="Helvetica,sans-Serif" font-size="10.00" fill="grey"> codeContext</text>
</g>
<!-- Node8 -->
<g id="Node000008" class="node">
<title>Node8</title>
<g id="a_Node000008"><a xlink:href="classCodeContext.html" target="_top" xlink:title=" ">
<polygon fill="white" stroke="#666666" points="443,-151 363,-151 363,-132 443,-132 443,-151"/>
<text text-anchor="middle" x="403" y="-139" font-family="Helvetica,sans-Serif" font-size="10.00">CodeContext</text>
</a>
</g>
</g>
<!-- Node8&#45;&gt;Node7 -->
<g id="edge7_Node000007_Node000008" class="edge">
<title>Node8&#45;&gt;Node7</title>
<g id="a_edge7_Node000007_Node000008"><a xlink:title=" ">
<path fill="none" stroke="#9a32cd" stroke-dasharray="5,2" d="M429.56,-126.32C438.97,-119.47 445.73,-111.02 439,-103 433.6,-96.57 396.65,-90 360.77,-85"/>
<polygon fill="#9a32cd" stroke="#9a32cd" points="427.42,-123.53 420.88,-131.87 431.19,-129.43 427.42,-123.53"/>
</a>
</g>
<text text-anchor="middle" x="449.5" y="-106" font-family="Helvetica,sans-Serif" font-size="10.00" fill="grey"> p_</text>
</g>
<!-- Node9 -->
<g id="Node000009" class="node">
<title>Node9</title>
<g id="a_Node000009"><a xlink:title=" ">
<polygon fill="white" stroke="#666666" points="451.5,-222.5 368.5,-222.5 368.5,-203.5 451.5,-203.5 451.5,-222.5"/>
<text text-anchor="middle" x="410" y="-210.5" font-family="Helvetica,sans-Serif" font-size="10.00">RefCountable</text>
</a>
</g>
</g>
<!-- Node9&#45;&gt;Node8 -->
<g id="edge8_Node000008_Node000009" class="edge">
<title>Node9&#45;&gt;Node8</title>
<g id="a_edge8_Node000008_Node000009"><a xlink:title=" ">
<path fill="none" stroke="#63b8ff" d="M408.11,-193.21C406.73,-179.5 404.92,-161.55 403.87,-151.09"/>
<polygon fill="#63b8ff" stroke="#63b8ff" points="404.66,-193.88 409.14,-203.48 411.62,-193.18 404.66,-193.88"/>
</a>
</g>
</g>
<!-- Node12 -->
<g id="Node000012" class="node">
<title>Node12</title>
<g id="a_Node000012"><a xlink:href="classIpc_1_1Request.html" target="_top" xlink:title="IPC request.">
<polygon fill="white" stroke="#666666" points="538.5,-151 461.5,-151 461.5,-132 538.5,-132 538.5,-151"/>
<text text-anchor="middle" x="500" y="-139" font-family="Helvetica,sans-Serif" font-size="10.00">Ipc::Request</text>
</a>
</g>
</g>
<!-- Node9&#45;&gt;Node12 -->
<g id="edge13_Node000012_Node000009" class="edge">
<title>Node9&#45;&gt;Node12</title>
<g id="a_edge13_Node000012_Node000009"><a xlink:title=" ">
<path fill="none" stroke="#63b8ff" d="M429.18,-197.19C447.34,-183.16 473.98,-162.59 488.87,-151.09"/>
<polygon fill="#63b8ff" stroke="#63b8ff" points="426.81,-194.6 421.04,-203.48 431.09,-200.14 426.81,-194.6"/>
</a>
</g>
</g>
<!-- Node10 -->
<g id="Node000010" class="node">
<title>Node10</title>
<g id="a_Node000010"><a xlink:href="classStopwatch.html" target="_top" xlink:title=" ">
<polygon fill="white" stroke="#666666" points="350,-222.5 282,-222.5 282,-203.5 350,-203.5 350,-222.5"/>
<text text-anchor="middle" x="316" y="-210.5" font-family="Helvetica,sans-Serif" font-size="10.00">Stopwatch</text>
</a>
</g>
</g>
<!-- Node10&#45;&gt;Node8 -->
<g id="edge9_Node000008_Node000010" class="edge">
<title>Node10&#45;&gt;Node8</title>
<g id="a_edge9_Node000008_Node000010"><a xlink:title=" ">
<path fill="none" stroke="#9a32cd" stroke-dasharray="5,2" d="M326.8,-194.99C332.86,-186.42 341,-176.32 350,-169 359.1,-161.6 370.6,-155.54 380.57,-151.09"/>
<polygon fill="#9a32cd" stroke="#9a32cd" points="323.77,-193.23 321.11,-203.49 329.58,-197.13 323.77,-193.23"/>
</a>
</g>
<text text-anchor="middle" x="376" y="-172" font-family="Helvetica,sans-Serif" font-size="10.00" fill="grey"> busyTime</text>
</g>
<!-- Node11&#45;&gt;Node1 -->
<g id="edge11_Node000001_Node000011" class="edge">
<title>Node11&#45;&gt;Node1</title>
<g id="a_edge11_Node000001_Node000011"><a xlink:title=" ">
<path fill="none" stroke="#9a32cd" stroke-dasharray="5,2" d="M426.37,-59C418.78,-52.1 409.58,-43.97 401,-37 393.29,-30.74 384.29,-24.12 377.21,-19.06"/>
<polygon fill="#9a32cd" stroke="#9a32cd" points="424.15,-61.71 433.88,-65.9 428.89,-56.56 424.15,-61.71"/>
</a>
</g>
<text text-anchor="middle" x="435" y="-40" font-family="Helvetica,sans-Serif" font-size="10.00" fill="grey"> request</text>
</g>
<!-- Node12&#45;&gt;Node11 -->
<g id="edge12_Node000011_Node000012" class="edge">
<title>Node12&#45;&gt;Node11</title>
<g id="a_edge12_Node000011_Node000012"><a xlink:title=" ">
<path fill="none" stroke="#9a32cd" stroke-dasharray="5,2" d="M491.54,-122.9C487.9,-116.27 483.26,-108.91 478,-103 471.92,-96.16 463.85,-89.91 456.99,-85.2"/>
<polygon fill="#9a32cd" stroke="#9a32cd" points="488.45,-124.54 496.13,-131.83 494.68,-121.34 488.45,-124.54"/>
</a>
</g>
<text text-anchor="middle" x="493.5" y="-106" font-family="Helvetica,sans-Serif" font-size="10.00" fill="grey"> p_</text>
</g>
<!-- Node13 -->
<g id="Node000013" class="node">
<title>Node13</title>
<g id="a_Node000013"><a xlink:href="classTypeTraits___1_1Interface.html" target="_top" xlink:title="convenience base for any class with pure virtual method(s)">
<polygon fill="white" stroke="#666666" points="530,-222.5 470,-222.5 470,-203.5 530,-203.5 530,-222.5"/>
<text text-anchor="middle" x="500" y="-210.5" font-family="Helvetica,sans-Serif" font-size="10.00">Interface</text>
</a>
</g>
</g>
<!-- Node13&#45;&gt;Node12 -->
<g id="edge14_Node000012_Node000013" class="edge">
<title>Node13&#45;&gt;Node12</title>
<g id="a_edge14_Node000012_Node000013"><a xlink:title=" ">
<path fill="none" stroke="#63b8ff" d="M500,-193.21C500,-179.5 500,-161.55 500,-151.09"/>
<polygon fill="#63b8ff" stroke="#63b8ff" points="496.5,-193.48 500,-203.48 503.5,-193.48 496.5,-193.48"/>
</a>
</g>
</g>
<!-- Node14 -->
<g id="Node000014" class="node">
<title>Node14</title>
<g id="a_Node000014"><a xlink:href="classIpc_1_1RequestId.html" target="_top" xlink:title=" ">
<polygon fill="white" stroke="#666666" points="634,-222.5 548,-222.5 548,-203.5 634,-203.5 634,-222.5"/>
<text text-anchor="middle" x="591" y="-210.5" font-family="Helvetica,sans-Serif" font-size="10.00">Ipc::RequestId</text>
</a>
</g>
</g>
<!-- Node14&#45;&gt;Node12 -->
<g id="edge15_Node000012_Node000014" class="edge">
<title>Node14&#45;&gt;Node12</title>
<g id="a_edge15_Node000012_Node000014"><a xlink:title=" ">
<path fill="none" stroke="#9a32cd" stroke-dasharray="5,2" d="M571.61,-197.19C553.24,-183.16 526.31,-162.59 511.25,-151.09"/>
<polygon fill="#9a32cd" stroke="#9a32cd" points="569.77,-200.19 579.84,-203.48 574.02,-194.63 569.77,-200.19"/>
</a>
</g>
<text text-anchor="middle" x="573.5" y="-172" font-family="Helvetica,sans-Serif" font-size="10.00" fill="grey"> requestId</text>
</g>
<!-- Node15 -->
<g id="Node000015" class="node">
<title>Node15</title>
<g id="a_Node000015"><a xlink:href="classIpc_1_1QuestionerId.html" target="_top" xlink:title=" ">
<polygon fill="white" stroke="#666666" points="640.5,-294 541.5,-294 541.5,-275 640.5,-275 640.5,-294"/>
<text text-anchor="middle" x="591" y="-282" font-family="Helvetica,sans-Serif" font-size="10.00">Ipc::QuestionerId</text>
</a>
</g>
</g>
<!-- Node15&#45;&gt;Node14 -->
<g id="edge16_Node000014_Node000015" class="edge">
<title>Node15&#45;&gt;Node14</title>
<g id="a_edge16_Node000014_Node000015"><a xlink:title=" ">
<path fill="none" stroke="#9a32cd" stroke-dasharray="5,2" d="M591,-264.71C591,-251 591,-233.05 591,-222.59"/>
<polygon fill="#9a32cd" stroke="#9a32cd" points="587.5,-264.98 591,-274.98 594.5,-264.98 587.5,-264.98"/>
</a>
</g>
<text text-anchor="middle" x="603" y="-249" font-family="Helvetica,sans-Serif" font-size="10.00" fill="grey"> qid_</text>
</g>
<!-- Node16 -->
<g id="Node000016" class="node">
<title>Node16</title>
<g id="a_Node000016"><a xlink:title=" ">
<polygon fill="white" stroke="#666666" points="624.5,-85 523.5,-85 523.5,-66 624.5,-66 624.5,-85"/>
<text text-anchor="middle" x="574" y="-73" font-family="Helvetica,sans-Serif" font-size="10.00">std::map&lt; K, T &gt;</text>
</a>
</g>
</g>
<!-- Node16&#45;&gt;Node1 -->
<g id="edge18_Node000001_Node000016" class="edge">
<title>Node16&#45;&gt;Node1</title>
<g id="a_edge18_Node000001_Node000016"><a xlink:title=" ">
<path fill="none" stroke="#9a32cd" stroke-dasharray="5,2" d="M538.96,-62.67C516.24,-55.09 485.95,-45.19 459,-37 438.23,-30.69 414.73,-24.07 396.43,-19.02"/>
<polygon fill="#9a32cd" stroke="#9a32cd" points="537.92,-66.01 548.52,-65.86 540.14,-59.37 537.92,-66.01"/>
</a>
</g>
<text text-anchor="middle" x="538" y="-40" font-family="Helvetica,sans-Serif" font-size="10.00" fill="grey"> TheRequestsMap</text>
</g>
<!-- Node17 -->
<g id="Node000017" class="node">
<title>Node17</title>
<g id="a_Node000017"><a xlink:title=" ">
<polygon fill="white" stroke="#666666" points="659.5,-151 630.5,-151 630.5,-132 659.5,-132 659.5,-151"/>
<text text-anchor="middle" x="645" y="-139" font-family="Helvetica,sans-Serif" font-size="10.00">K</text>
</a>
</g>
</g>
<!-- Node17&#45;&gt;Node16 -->
<g id="edge19_Node000016_Node000017" class="edge">
<title>Node17&#45;&gt;Node16</title>
<g id="a_edge19_Node000016_Node000017"><a xlink:title=" ">
<path fill="none" stroke="#9a32cd" stroke-dasharray="5,2" d="M637.14,-122.72C633.53,-115.96 628.76,-108.57 623,-103 615.21,-95.48 604.86,-89.46 595.67,-85.08"/>
<polygon fill="#9a32cd" stroke="#9a32cd" points="634.06,-124.39 641.57,-131.86 640.36,-121.34 634.06,-124.39"/>
</a>
</g>
<text text-anchor="middle" x="644" y="-106" font-family="Helvetica,sans-Serif" font-size="10.00" fill="grey"> keys</text>
</g>
<!-- Node18 -->
<g id="Node000018" class="node">
<title>Node18</title>
<g id="a_Node000018"><a xlink:title=" ">
<polygon fill="white" stroke="#666666" points="587.5,-151 558.5,-151 558.5,-132 587.5,-132 587.5,-151"/>
<text text-anchor="middle" x="573" y="-139" font-family="Helvetica,sans-Serif" font-size="10.00">T</text>
</a>
</g>
</g>
<!-- Node18&#45;&gt;Node16 -->
<g id="edge20_Node000016_Node000018" class="edge">
<title>Node18&#45;&gt;Node16</title>
<g id="a_edge20_Node000016_Node000018"><a xlink:title=" ">
<path fill="none" stroke="#9a32cd" stroke-dasharray="5,2" d="M573.3,-121.58C573.48,-109.63 573.72,-94.72 573.86,-85.41"/>
<polygon fill="#9a32cd" stroke="#9a32cd" points="569.79,-121.82 573.13,-131.87 576.79,-121.92 569.79,-121.82"/>
</a>
</g>
<text text-anchor="middle" x="597.5" y="-106" font-family="Helvetica,sans-Serif" font-size="10.00" fill="grey"> elements</text>
</g>
</g>
</svg>

<g id="navigator" transform="translate(0 0)" fill="#404254">
  <rect fill="#f2f5e9" fill-opacity="0.5" stroke="#606060" stroke-width=".5" x="0" y="0" width="60" height="60"/>
  <use id="zoomplus" xlink:href="#zoomPlus" x="17" y="9" onmousedown="handleZoom(evt,'in')"/>
  <use id="zoomminus" xlink:href="#zoomMin" x="42" y="9" onmousedown="handleZoom(evt,'out')"/>
  <use id="reset" xlink:href="#resetDef" x="30" y="36" onmousedown="handleReset()"/>
   <use id="arrowup" xlink:href="#arrowUp" x="0" y="0" onmousedown="handlePan(0,-1)"/>
  <use id="arrowright" xlink:href="#arrowRight" x="0" y="0" onmousedown="handlePan(1,0)"/>
  <use id="arrowdown" xlink:href="#arrowDown" x="0" y="0" onmousedown="handlePan(0,1)"/>
  <use id="arrowleft" xlink:href="#arrowLeft" x="0" y="0" onmousedown="handlePan(-1,0)"/>
</g>
<svg viewBox="0 0 15 15" width="100%" height="30px" preserveAspectRatio="xMaxYMin meet">
 <g id="arrow_out" transform="scale(0.3 0.3)">
  <a xlink:href="classIpc_1_1Forwarder__coll__graph_org.svg" target="_base">
   <rect id="button" ry="5" rx="5" y="6" x="6" height="38" width="38"
        fill="#f2f5e9" fill-opacity="0.5" stroke="#606060" stroke-width="1.0"/>
   <path id="arrow"
     d="M 11.500037,31.436501 C 11.940474,20.09759 22.043105,11.32322 32.158766,21.979434 L 37.068811,17.246167 C 37.068811,17.246167 37.088388,32 37.088388,32 L 22.160133,31.978069 C 22.160133,31.978069 26.997745,27.140456 26.997745,27.140456 C 18.528582,18.264221 13.291696,25.230495 11.500037,31.436501 z"
     style="fill:#404040;"/>
  </a>
 </g>
</svg>

<style type='text/css'>
<![CDATA[
[data-mouse-over-selected='false'] { opacity: 0.7; }
[data-mouse-over-selected='true']  { opacity: 1.0; }
]]>
</style>
<script type="application/ecmascript"><![CDATA[
document.addEventListener('DOMContentLoaded', (event) => {
  highlightEdges();
  highlightAdjacentNodes();
});
]]></script>
</svg>
