<?xml version="1.0" encoding="UTF-8" standalone="no"?>
<!DOCTYPE svg PUBLIC "-//W3C//DTD SVG 1.1//EN"
 "http://www.w3.org/Graphics/SVG/1.1/DTD/svg11.dtd">
<!-- Generated by graphviz version 2.43.0 (0)
 -->
<!-- Title: Acl::AnnotateClientCheck Pages: 1 -->
<svg width="255pt" height="350pt"
 viewBox="0.00 0.00 255.00 350.00" xmlns="http://www.w3.org/2000/svg" xmlns:xlink="http://www.w3.org/1999/xlink">
<g id="graph0" class="graph" transform="scale(1 1) rotate(0) translate(4 346)">
<title>Acl::AnnotateClientCheck</title>
<!-- Node1 -->
<g id="Node000001" class="node">
<title>Node1</title>
<g id="a_Node000001"><a xlink:title="an &quot;annotate_client&quot; ACL">
<polygon fill="#999999" stroke="#666666" points="140,-19 0,-19 0,0 140,0 140,-19"/>
<text text-anchor="middle" x="70" y="-7" font-family="Helvetica,sans-Serif" font-size="10.00">Acl::AnnotateClientCheck</text>
</a>
</g>
</g>
<!-- Node2 -->
<g id="Node000002" class="node">
<title>Node2</title>
<g id="a_Node000002"><a xlink:href="classAcl_1_1AnnotationCheck.html" target="_top" xlink:title="common parent of several ACLs dealing with transaction annotations">
<polygon fill="white" stroke="#666666" points="130.5,-75 9.5,-75 9.5,-56 130.5,-56 130.5,-75"/>
<text text-anchor="middle" x="70" y="-63" font-family="Helvetica,sans-Serif" font-size="10.00">Acl::AnnotationCheck</text>
</a>
</g>
</g>
<!-- Node2&#45;&gt;Node1 -->
<g id="edge1_Node000001_Node000002" class="edge">
<title>Node2&#45;&gt;Node1</title>
<g id="a_edge1_Node000001_Node000002"><a xlink:title=" ">
<path fill="none" stroke="#63b8ff" d="M70,-45.3C70,-36.41 70,-26.28 70,-19.25"/>
<polygon fill="#63b8ff" stroke="#63b8ff" points="66.5,-45.58 70,-55.58 73.5,-45.58 66.5,-45.58"/>
</a>
</g>
</g>
<!-- Node3 -->
<g id="Node000003" class="node">
<title>Node3</title>
<g id="a_Node000003"><a xlink:href="classAcl_1_1ParameterizedNode.html" target="_top" xlink:title=" ">
<polygon fill="white" stroke="#666666" points="137,-153 3,-153 3,-112 137,-112 137,-153"/>
<text text-anchor="start" x="11" y="-141" font-family="Helvetica,sans-Serif" font-size="10.00">Acl::ParameterizedNode</text>
<text text-anchor="start" x="11" y="-130" font-family="Helvetica,sans-Serif" font-size="10.00">&lt; ACLData&lt; NotePairs::</text>
<text text-anchor="middle" x="70" y="-119" font-family="Helvetica,sans-Serif" font-size="10.00">Entry * &gt; &gt;</text>
</a>
</g>
</g>
<!-- Node3&#45;&gt;Node2 -->
<g id="edge2_Node000002_Node000003" class="edge">
<title>Node3&#45;&gt;Node2</title>
<g id="a_edge2_Node000002_Node000003"><a xlink:title=" ">
<path fill="none" stroke="#63b8ff" d="M70,-101.76C70,-92.06 70,-82.02 70,-75.15"/>
<polygon fill="#63b8ff" stroke="#63b8ff" points="66.5,-102 70,-112 73.5,-102 66.5,-102"/>
</a>
</g>
</g>
<!-- Node4 -->
<g id="Node000004" class="node">
<title>Node4</title>
<g id="a_Node000004"><a xlink:href="classAcl_1_1Node.html" target="_top" xlink:title=" ">
<polygon fill="white" stroke="#666666" points="97.5,-286 34.5,-286 34.5,-267 97.5,-267 97.5,-286"/>
<text text-anchor="middle" x="66" y="-274" font-family="Helvetica,sans-Serif" font-size="10.00">Acl::Node</text>
</a>
</g>
</g>
<!-- Node4&#45;&gt;Node3 -->
<g id="edge3_Node000003_Node000004" class="edge">
<title>Node4&#45;&gt;Node3</title>
<g id="a_edge3_Node000003_Node000004"><a xlink:title=" ">
<path fill="none" stroke="#63b8ff" d="M66.53,-256.55C67.29,-229.59 68.68,-180.41 69.45,-153.1"/>
<polygon fill="#63b8ff" stroke="#63b8ff" points="63.03,-256.52 66.25,-266.62 70.03,-256.72 63.03,-256.52"/>
</a>
</g>
</g>
<!-- Node6 -->
<g id="Node000006" class="node">
<title>Node6</title>
<g id="a_Node000006"><a xlink:href="classAcl_1_1ParameterizedNode.html" target="_top" xlink:title=" ">
<polygon fill="white" stroke="#666666" points="244,-230 82,-230 82,-211 244,-211 244,-230"/>
<text text-anchor="middle" x="163" y="-218" font-family="Helvetica,sans-Serif" font-size="10.00">Acl::ParameterizedNode&lt; P &gt;</text>
</a>
</g>
</g>
<!-- Node4&#45;&gt;Node6 -->
<g id="edge6_Node000006_Node000004" class="edge">
<title>Node4&#45;&gt;Node6</title>
<g id="a_edge6_Node000006_Node000004"><a xlink:title=" ">
<path fill="none" stroke="#63b8ff" d="M90.34,-261.95C108.24,-251.98 132.05,-238.73 147.45,-230.15"/>
<polygon fill="#63b8ff" stroke="#63b8ff" points="88.62,-258.9 81.58,-266.82 92.02,-265.02 88.62,-258.9"/>
</a>
</g>
</g>
<!-- Node5 -->
<g id="Node000005" class="node">
<title>Node5</title>
<g id="a_Node000005"><a xlink:title=" ">
<polygon fill="white" stroke="#666666" points="107.5,-342 24.5,-342 24.5,-323 107.5,-323 107.5,-342"/>
<text text-anchor="middle" x="66" y="-330" font-family="Helvetica,sans-Serif" font-size="10.00">RefCountable</text>
</a>
</g>
</g>
<!-- Node5&#45;&gt;Node4 -->
<g id="edge4_Node000004_Node000005" class="edge">
<title>Node5&#45;&gt;Node4</title>
<g id="a_edge4_Node000004_Node000005"><a xlink:title=" ">
<path fill="none" stroke="#63b8ff" d="M66,-312.3C66,-303.41 66,-293.28 66,-286.25"/>
<polygon fill="#63b8ff" stroke="#63b8ff" points="62.5,-312.58 66,-322.58 69.5,-312.58 62.5,-312.58"/>
</a>
</g>
</g>
<!-- Node6&#45;&gt;Node3 -->
<g id="edge5_Node000003_Node000006" class="edge">
<title>Node6&#45;&gt;Node3</title>
<g id="a_edge5_Node000003_Node000006"><a xlink:title=" ">
<path fill="none" stroke="orange" stroke-dasharray="5,2" d="M146.05,-203.83C130.7,-189.63 108.01,-168.65 91.41,-153.3"/>
<polygon fill="orange" stroke="orange" points="144.02,-206.72 153.74,-210.94 148.78,-201.58 144.02,-206.72"/>
</a>
</g>
<text text-anchor="start" x="132" y="-185" font-family="Helvetica,sans-Serif" font-size="10.00" fill="grey"> &lt; ACLData&lt; NotePairs</text>
<text text-anchor="middle" x="189.5" y="-174" font-family="Helvetica,sans-Serif" font-size="10.00" fill="grey">::Entry * &gt; &gt;</text>
</g>
</g>
</svg>
