<?xml version="1.0" encoding="UTF-8" standalone="no"?>
<!DOCTYPE svg PUBLIC "-//W3C//DTD SVG 1.1//EN"
 "http://www.w3.org/Graphics/SVG/1.1/DTD/svg11.dtd">
<!-- Generated by graphviz version 2.43.0 (0)
 -->
<!-- Title: Ipc::Mem::RegisteredRunner Pages: 1 -->
<svg width="468pt" height="249pt"
 viewBox="0.00 0.00 468.00 249.00" xmlns="http://www.w3.org/2000/svg" xmlns:xlink="http://www.w3.org/1999/xlink">
<g id="graph0" class="graph" transform="scale(1 1) rotate(0) translate(4 245)">
<title>Ipc::Mem::RegisteredRunner</title>
<!-- Node1 -->
<g id="Node000001" class="node">
<title>Node1</title>
<g id="a_Node000001"><a xlink:title=" ">
<polygon fill="#999999" stroke="#666666" points="295,-130 140,-130 140,-111 295,-111 295,-130"/>
<text text-anchor="middle" x="217.5" y="-118" font-family="Helvetica,sans-Serif" font-size="10.00">Ipc::Mem::RegisteredRunner</text>
</a>
</g>
</g>
<!-- Node3 -->
<g id="Node000003" class="node">
<title>Node3</title>
<g id="a_Node000003"><a xlink:href="classCollapsedForwardingRr.html" target="_top" xlink:title="initializes shared queue used by CollapsedForwarding">
<polygon fill="white" stroke="#666666" points="460,-241 331,-241 331,-222 460,-222 460,-241"/>
<text text-anchor="middle" x="395.5" y="-229" font-family="Helvetica,sans-Serif" font-size="10.00">CollapsedForwardingRr</text>
</a>
</g>
</g>
<!-- Node1&#45;&gt;Node3 -->
<g id="edge2_Node000001_Node000003" class="edge">
<title>Node1&#45;&gt;Node3</title>
<g id="a_edge2_Node000001_Node000003"><a xlink:title=" ">
<path fill="none" stroke="#63b8ff" d="M234.42,-137.41C254.88,-158.21 292.4,-193.23 331,-213.5 337.39,-216.86 344.48,-219.65 351.54,-221.96"/>
<polygon fill="#63b8ff" stroke="#63b8ff" points="236.91,-134.96 227.44,-130.2 231.88,-139.82 236.91,-134.96"/>
</a>
</g>
</g>
<!-- Node4 -->
<g id="Node000004" class="node">
<title>Node4</title>
<g id="a_Node000004"><a xlink:href="classIpcIoRr.html" target="_top" xlink:title=" ">
<polygon fill="white" stroke="#666666" points="420.5,-204 370.5,-204 370.5,-185 420.5,-185 420.5,-204"/>
<text text-anchor="middle" x="395.5" y="-192" font-family="Helvetica,sans-Serif" font-size="10.00">IpcIoRr</text>
</a>
</g>
</g>
<!-- Node1&#45;&gt;Node4 -->
<g id="edge3_Node000001_Node000004" class="edge">
<title>Node1&#45;&gt;Node4</title>
<g id="a_edge3_Node000001_Node000004"><a xlink:title=" ">
<path fill="none" stroke="#63b8ff" d="M244.08,-134.95C266.49,-147.18 300.2,-164.59 331,-176.5 343.72,-181.42 358.33,-185.65 370.33,-188.78"/>
<polygon fill="#63b8ff" stroke="#63b8ff" points="245.65,-131.82 235.21,-130.05 242.27,-137.95 245.65,-131.82"/>
</a>
</g>
</g>
<!-- Node5 -->
<g id="Node000005" class="node">
<title>Node5</title>
<g id="a_Node000005"><a xlink:href="classMemStoreRr.html" target="_top" xlink:title=" ">
<polygon fill="white" stroke="#666666" points="434,-167 357,-167 357,-148 434,-148 434,-167"/>
<text text-anchor="middle" x="395.5" y="-155" font-family="Helvetica,sans-Serif" font-size="10.00">MemStoreRr</text>
</a>
</g>
</g>
<!-- Node1&#45;&gt;Node5 -->
<g id="edge4_Node000001_Node000005" class="edge">
<title>Node1&#45;&gt;Node5</title>
<g id="a_edge4_Node000001_Node000005"><a xlink:title=" ">
<path fill="none" stroke="#63b8ff" d="M273.9,-132.15C300.88,-137.82 332.62,-144.49 356.76,-149.57"/>
<polygon fill="#63b8ff" stroke="#63b8ff" points="274.33,-128.66 263.82,-130.03 272.89,-135.51 274.33,-128.66"/>
</a>
</g>
</g>
<!-- Node6 -->
<g id="Node000006" class="node">
<title>Node6</title>
<g id="a_Node000006"><a xlink:href="classRock_1_1SwapDirRr.html" target="_top" xlink:title="initializes shared memory segments used by Rock::SwapDir">
<polygon fill="white" stroke="#666666" points="444.5,-130 346.5,-130 346.5,-111 444.5,-111 444.5,-130"/>
<text text-anchor="middle" x="395.5" y="-118" font-family="Helvetica,sans-Serif" font-size="10.00">Rock::SwapDirRr</text>
</a>
</g>
</g>
<!-- Node1&#45;&gt;Node6 -->
<g id="edge5_Node000001_Node000006" class="edge">
<title>Node1&#45;&gt;Node6</title>
<g id="a_edge5_Node000001_Node000006"><a xlink:title=" ">
<path fill="none" stroke="#63b8ff" d="M305.44,-120.5C319.55,-120.5 333.71,-120.5 346.44,-120.5"/>
<polygon fill="#63b8ff" stroke="#63b8ff" points="305.18,-117 295.18,-120.5 305.18,-124 305.18,-117"/>
</a>
</g>
</g>
<!-- Node7 -->
<g id="Node000007" class="node">
<title>Node7</title>
<g id="a_Node000007"><a xlink:href="classSharedMemPagesRr.html" target="_top" xlink:title="initializes shared memory pages">
<polygon fill="white" stroke="#666666" points="452.5,-93 338.5,-93 338.5,-74 452.5,-74 452.5,-93"/>
<text text-anchor="middle" x="395.5" y="-81" font-family="Helvetica,sans-Serif" font-size="10.00">SharedMemPagesRr</text>
</a>
</g>
</g>
<!-- Node1&#45;&gt;Node7 -->
<g id="edge6_Node000001_Node000007" class="edge">
<title>Node1&#45;&gt;Node7</title>
<g id="a_edge6_Node000001_Node000007"><a xlink:title=" ">
<path fill="none" stroke="#63b8ff" d="M273.93,-108.85C298.1,-103.77 326.1,-97.88 349.02,-93.06"/>
<polygon fill="#63b8ff" stroke="#63b8ff" points="272.89,-105.49 263.82,-110.97 274.33,-112.34 272.89,-105.49"/>
</a>
</g>
</g>
<!-- Node8 -->
<g id="Node000008" class="node">
<title>Node8</title>
<g id="a_Node000008"><a xlink:href="classSharedSessionCacheRr.html" target="_top" xlink:title="initializes shared memory segments used by MemStore">
<polygon fill="white" stroke="#666666" points="459.5,-56 331.5,-56 331.5,-37 459.5,-37 459.5,-56"/>
<text text-anchor="middle" x="395.5" y="-44" font-family="Helvetica,sans-Serif" font-size="10.00">SharedSessionCacheRr</text>
</a>
</g>
</g>
<!-- Node1&#45;&gt;Node8 -->
<g id="edge7_Node000001_Node000008" class="edge">
<title>Node1&#45;&gt;Node8</title>
<g id="a_edge7_Node000001_Node000008"><a xlink:title=" ">
<path fill="none" stroke="#63b8ff" d="M244.08,-106.05C266.49,-93.82 300.2,-76.41 331,-64.5 339.12,-61.36 348.02,-58.5 356.51,-56.02"/>
<polygon fill="#63b8ff" stroke="#63b8ff" points="242.27,-103.05 235.21,-110.95 245.65,-109.18 242.27,-103.05"/>
</a>
</g>
</g>
<!-- Node9 -->
<g id="Node000009" class="node">
<title>Node9</title>
<g id="a_Node000009"><a xlink:href="classTransientsRr.html" target="_top" xlink:title="initializes shared memory segment used by Transients">
<polygon fill="white" stroke="#666666" points="434,-19 357,-19 357,0 434,0 434,-19"/>
<text text-anchor="middle" x="395.5" y="-7" font-family="Helvetica,sans-Serif" font-size="10.00">TransientsRr</text>
</a>
</g>
</g>
<!-- Node1&#45;&gt;Node9 -->
<g id="edge8_Node000001_Node000009" class="edge">
<title>Node1&#45;&gt;Node9</title>
<g id="a_edge8_Node000001_Node000009"><a xlink:title=" ">
<path fill="none" stroke="#63b8ff" d="M234.42,-103.59C254.88,-82.79 292.4,-47.77 331,-27.5 339.01,-23.29 348.13,-19.97 356.9,-17.38"/>
<polygon fill="#63b8ff" stroke="#63b8ff" points="231.88,-101.18 227.44,-110.8 236.91,-106.04 231.88,-101.18"/>
</a>
</g>
</g>
<!-- Node2 -->
<g id="Node000002" class="node">
<title>Node2</title>
<g id="a_Node000002"><a xlink:href="classRegisteredRunner.html" target="_top" xlink:title=" ">
<polygon fill="white" stroke="#666666" points="104,-130 0,-130 0,-111 104,-111 104,-130"/>
<text text-anchor="middle" x="52" y="-118" font-family="Helvetica,sans-Serif" font-size="10.00">RegisteredRunner</text>
</a>
</g>
</g>
<!-- Node2&#45;&gt;Node1 -->
<g id="edge1_Node000001_Node000002" class="edge">
<title>Node2&#45;&gt;Node1</title>
<g id="a_edge1_Node000001_Node000002"><a xlink:title=" ">
<path fill="none" stroke="#63b8ff" d="M114.31,-120.5C122.68,-120.5 131.35,-120.5 139.95,-120.5"/>
<polygon fill="#63b8ff" stroke="#63b8ff" points="114.28,-117 104.28,-120.5 114.28,-124 114.28,-117"/>
</a>
</g>
</g>
</g>
</svg>
