<?xml version="1.0" encoding="UTF-8" standalone="no"?>
<!DOCTYPE svg PUBLIC "-//W3C//DTD SVG 1.1//EN"
 "http://www.w3.org/Graphics/SVG/1.1/DTD/svg11.dtd">
<!-- Generated by graphviz version 2.43.0 (0)
 -->
<!-- Title: Log::LogConfig Pages: 1 -->
<svg width="143pt" height="159pt"
 viewBox="0.00 0.00 143.00 159.00" xmlns="http://www.w3.org/2000/svg" xmlns:xlink="http://www.w3.org/1999/xlink">

<svg id="main" version="1.1" xmlns="http://www.w3.org/2000/svg" xmlns:xlink="http://www.w3.org/1999/xlink" xml:space="preserve" onload="init(evt)">
<style type="text/css"><![CDATA[
.node, .edge {opacity: 0.7;}
.node.selected, .edge.selected {opacity: 1;}
.edge:hover path { stroke: red; }
.edge:hover polygon { stroke: red; fill: red; }
]]></style>
<script type="application/ecmascript" xlink:href="svg.min.js"/>
<svg id="graph" class="graph">
<g id="graph0" class="graph" transform="scale(1 1) rotate(0) translate(4 155)">
<title>Log::LogConfig</title>
<!-- Node1 -->
<g id="Node000001" class="node">
<title>Node1</title>
<g id="a_Node000001"><a xlink:title=" ">
<polygon fill="#999999" stroke="#666666" points="90,-19 2,-19 2,0 90,0 90,-19"/>
<text text-anchor="middle" x="46" y="-7" font-family="Helvetica,sans-Serif" font-size="10.00">Log::LogConfig</text>
</a>
</g>
</g>
<!-- Node2 -->
<g id="Node000002" class="node">
<title>Node2</title>
<g id="a_Node000002"><a xlink:href="classFormat_1_1Format.html" target="_top" xlink:title=" ">
<polygon fill="white" stroke="#666666" points="92,-85 0,-85 0,-66 92,-66 92,-85"/>
<text text-anchor="middle" x="46" y="-73" font-family="Helvetica,sans-Serif" font-size="10.00">Format::Format</text>
</a>
</g>
</g>
<!-- Node2&#45;&gt;Node1 -->
<g id="edge1_Node000001_Node000002" class="edge">
<title>Node2&#45;&gt;Node1</title>
<g id="a_edge1_Node000001_Node000002"><a xlink:title=" ">
<path fill="none" stroke="#9a32cd" stroke-dasharray="5,2" d="M46,-55.58C46,-43.63 46,-28.72 46,-19.41"/>
<polygon fill="#9a32cd" stroke="#9a32cd" points="42.5,-55.87 46,-65.87 49.5,-55.87 42.5,-55.87"/>
</a>
</g>
<text text-anchor="middle" x="74.5" y="-40" font-family="Helvetica,sans-Serif" font-size="10.00" fill="grey"> logformats</text>
</g>
<!-- Node2&#45;&gt;Node2 -->
<g id="edge4_Node000002_Node000002" class="edge">
<title>Node2&#45;&gt;Node2</title>
<g id="a_edge4_Node000002_Node000002"><a xlink:title=" ">
<path fill="none" stroke="#9a32cd" stroke-dasharray="5,2" d="M102.27,-80.16C107.03,-79.16 110,-77.61 110,-75.5 110,-72.12 102.41,-70.17 92.02,-69.65"/>
<polygon fill="#9a32cd" stroke="#9a32cd" points="101.55,-76.72 92.02,-81.35 102.36,-83.67 101.55,-76.72"/>
</a>
</g>
<text text-anchor="middle" x="122.5" y="-73" font-family="Helvetica,sans-Serif" font-size="10.00" fill="grey"> next</text>
</g>
<!-- Node3 -->
<g id="Node000003" class="node">
<title>Node3</title>
<g id="a_Node000003"><a xlink:href="classFormat_1_1Token.html" target="_top" xlink:title=" ">
<polygon fill="white" stroke="#666666" points="88.5,-151 3.5,-151 3.5,-132 88.5,-132 88.5,-151"/>
<text text-anchor="middle" x="46" y="-139" font-family="Helvetica,sans-Serif" font-size="10.00">Format::Token</text>
</a>
</g>
</g>
<!-- Node3&#45;&gt;Node2 -->
<g id="edge2_Node000002_Node000003" class="edge">
<title>Node3&#45;&gt;Node2</title>
<g id="a_edge2_Node000002_Node000003"><a xlink:title=" ">
<path fill="none" stroke="#9a32cd" stroke-dasharray="5,2" d="M46,-121.58C46,-109.63 46,-94.72 46,-85.41"/>
<polygon fill="#9a32cd" stroke="#9a32cd" points="42.5,-121.87 46,-131.87 49.5,-121.87 42.5,-121.87"/>
</a>
</g>
<text text-anchor="middle" x="64.5" y="-106" font-family="Helvetica,sans-Serif" font-size="10.00" fill="grey"> format</text>
</g>
<!-- Node3&#45;&gt;Node3 -->
<g id="edge3_Node000003_Node000003" class="edge">
<title>Node3&#45;&gt;Node3</title>
<g id="a_edge3_Node000003_Node000003"><a xlink:title=" ">
<path fill="none" stroke="#9a32cd" stroke-dasharray="5,2" d="M98.82,-146.24C103.54,-145.25 106.5,-143.67 106.5,-141.5 106.5,-138.03 98.92,-136.07 88.68,-135.61"/>
<polygon fill="#9a32cd" stroke="#9a32cd" points="98.22,-142.79 88.68,-147.39 99.01,-149.74 98.22,-142.79"/>
</a>
</g>
<text text-anchor="middle" x="119" y="-139" font-family="Helvetica,sans-Serif" font-size="10.00" fill="grey"> next</text>
</g>
</g>
</svg>
</svg>

<style type='text/css'>
<![CDATA[
[data-mouse-over-selected='false'] { opacity: 0.7; }
[data-mouse-over-selected='true']  { opacity: 1.0; }
]]>
</style>
<script type="application/ecmascript"><![CDATA[
document.addEventListener('DOMContentLoaded', (event) => {
  highlightEdges();
  highlightAdjacentNodes();
});
]]></script>
</svg>
