<?xml version="1.0" encoding="UTF-8" standalone="no"?>
<!DOCTYPE svg PUBLIC "-//W3C//DTD SVG 1.1//EN"
 "http://www.w3.org/Graphics/SVG/1.1/DTD/svg11.dtd">
<!-- Generated by graphviz version 2.43.0 (0)
 -->
<!-- Title: UnaryMemFunT&lt; Job, Data, Argument1 &gt; Pages: 1 -->
<svg width="927pt" height="136pt"
 viewBox="0.00 0.00 927.00 136.00" xmlns="http://www.w3.org/2000/svg" xmlns:xlink="http://www.w3.org/1999/xlink">
<g id="graph0" class="graph" transform="scale(1 1) rotate(0) translate(4 132)">
<title>UnaryMemFunT&lt; Job, Data, Argument1 &gt;</title>
<!-- Node1 -->
<g id="Node000001" class="node">
<title>Node1</title>
<g id="a_Node000001"><a xlink:title=" ">
<polygon fill="#999999" stroke="#666666" points="360,-78 237,-78 237,-48 360,-48 360,-78"/>
<text text-anchor="start" x="245" y="-66" font-family="Helvetica,sans-Serif" font-size="10.00">UnaryMemFunT&lt; Job,</text>
<text text-anchor="middle" x="298.5" y="-55" font-family="Helvetica,sans-Serif" font-size="10.00"> Data, Argument1 &gt;</text>
</a>
</g>
</g>
<!-- Node4 -->
<g id="Node000004" class="node">
<title>Node4</title>
<g id="a_Node000004"><a xlink:href="classUnaryMemFunT.html" target="_top" xlink:title=" ">
<polygon fill="white" stroke="#666666" points="750,-126 568,-126 568,-96 750,-96 750,-126"/>
<text text-anchor="start" x="576" y="-114" font-family="Helvetica,sans-Serif" font-size="10.00">UnaryMemFunT&lt; BodyConsumer,</text>
<text text-anchor="middle" x="659" y="-103" font-family="Helvetica,sans-Serif" font-size="10.00"> BodyPipe::Pointer &gt;</text>
</a>
</g>
</g>
<!-- Node1&#45;&gt;Node4 -->
<g id="edge3_Node000001_Node000004" class="edge">
<title>Node1&#45;&gt;Node4</title>
<g id="a_edge3_Node000001_Node000004"><a xlink:title=" ">
<path fill="none" stroke="orange" stroke-dasharray="5,2" d="M352.77,-80.93C361.14,-83.27 369.75,-85.4 378,-87 440.75,-99.14 512.6,-105.14 567.8,-108.11"/>
<polygon fill="orange" stroke="orange" points="353.68,-77.55 343.1,-78.11 351.72,-84.27 353.68,-77.55"/>
</a>
</g>
<text text-anchor="start" x="393.5" y="-120" font-family="Helvetica,sans-Serif" font-size="10.00" fill="grey"> &lt; BodyConsumer, BodyPipe</text>
<text text-anchor="middle" x="464" y="-109" font-family="Helvetica,sans-Serif" font-size="10.00" fill="grey">::Pointer &gt;</text>
</g>
<!-- Node6 -->
<g id="Node000006" class="node">
<title>Node6</title>
<g id="a_Node000006"><a xlink:href="classUnaryMemFunT.html" target="_top" xlink:title=" ">
<polygon fill="white" stroke="#666666" points="747,-78 571,-78 571,-48 747,-48 747,-78"/>
<text text-anchor="start" x="579" y="-66" font-family="Helvetica,sans-Serif" font-size="10.00">UnaryMemFunT&lt; BodyProducer,</text>
<text text-anchor="middle" x="659" y="-55" font-family="Helvetica,sans-Serif" font-size="10.00"> BodyPipe::Pointer &gt;</text>
</a>
</g>
</g>
<!-- Node1&#45;&gt;Node6 -->
<g id="edge5_Node000001_Node000006" class="edge">
<title>Node1&#45;&gt;Node6</title>
<g id="a_edge5_Node000001_Node000006"><a xlink:title=" ">
<path fill="none" stroke="orange" stroke-dasharray="5,2" d="M370.42,-63C428,-63 509.45,-63 570.97,-63"/>
<polygon fill="orange" stroke="orange" points="370.31,-59.5 360.31,-63 370.31,-66.5 370.31,-59.5"/>
</a>
</g>
<text text-anchor="start" x="397" y="-77" font-family="Helvetica,sans-Serif" font-size="10.00" fill="grey"> &lt; BodyProducer, BodyPipe</text>
<text text-anchor="middle" x="464" y="-66" font-family="Helvetica,sans-Serif" font-size="10.00" fill="grey">::Pointer &gt;</text>
</g>
<!-- Node8 -->
<g id="Node000008" class="node">
<title>Node8</title>
<g id="a_Node000008"><a xlink:href="classUnaryMemFunT.html" target="_top" xlink:title=" ">
<polygon fill="white" stroke="#666666" points="736.5,-30 581.5,-30 581.5,0 736.5,0 736.5,-30"/>
<text text-anchor="start" x="589.5" y="-18" font-family="Helvetica,sans-Serif" font-size="10.00">UnaryMemFunT&lt; Job,</text>
<text text-anchor="middle" x="659" y="-7" font-family="Helvetica,sans-Serif" font-size="10.00"> Argument1, Argument1 &amp; &gt;</text>
</a>
</g>
</g>
<!-- Node1&#45;&gt;Node8 -->
<g id="edge7_Node000001_Node000008" class="edge">
<title>Node1&#45;&gt;Node8</title>
<g id="a_edge7_Node000001_Node000008"><a xlink:title=" ">
<path fill="none" stroke="orange" stroke-dasharray="5,2" d="M370.33,-49.23C372.92,-48.8 375.48,-48.39 378,-48 446.57,-37.42 525.05,-28.44 581.45,-22.53"/>
<polygon fill="orange" stroke="orange" points="369.55,-45.81 360.28,-50.94 370.73,-52.71 369.55,-45.81"/>
</a>
</g>
<text text-anchor="middle" x="464" y="-51" font-family="Helvetica,sans-Serif" font-size="10.00" fill="grey"> &lt; Job, Argument1, Argument1 &amp; &gt;</text>
</g>
<!-- Node2 -->
<g id="Node000002" class="node">
<title>Node2</title>
<g id="a_Node000002"><a xlink:href="classJobDialer.html" target="_top" xlink:title=" ">
<polygon fill="white" stroke="#666666" points="200,-72.5 102,-72.5 102,-53.5 200,-53.5 200,-72.5"/>
<text text-anchor="middle" x="151" y="-60.5" font-family="Helvetica,sans-Serif" font-size="10.00">JobDialer&lt; Job &gt;</text>
</a>
</g>
</g>
<!-- Node2&#45;&gt;Node1 -->
<g id="edge1_Node000001_Node000002" class="edge">
<title>Node2&#45;&gt;Node1</title>
<g id="a_edge1_Node000001_Node000002"><a xlink:title=" ">
<path fill="none" stroke="#63b8ff" d="M210.16,-63C218.92,-63 227.98,-63 236.79,-63"/>
<polygon fill="#63b8ff" stroke="#63b8ff" points="210.05,-59.5 200.05,-63 210.05,-66.5 210.05,-59.5"/>
</a>
</g>
</g>
<!-- Node3 -->
<g id="Node000003" class="node">
<title>Node3</title>
<g id="a_Node000003"><a xlink:href="classCallDialer.html" target="_top" xlink:title=" ">
<polygon fill="white" stroke="#666666" points="65,-72.5 0,-72.5 0,-53.5 65,-53.5 65,-72.5"/>
<text text-anchor="middle" x="32.5" y="-60.5" font-family="Helvetica,sans-Serif" font-size="10.00">CallDialer</text>
</a>
</g>
</g>
<!-- Node3&#45;&gt;Node2 -->
<g id="edge2_Node000002_Node000003" class="edge">
<title>Node3&#45;&gt;Node2</title>
<g id="a_edge2_Node000002_Node000003"><a xlink:title=" ">
<path fill="none" stroke="#63b8ff" d="M75.22,-63C83.83,-63 92.98,-63 101.8,-63"/>
<polygon fill="#63b8ff" stroke="#63b8ff" points="75.03,-59.5 65.03,-63 75.03,-66.5 75.03,-59.5"/>
</a>
</g>
</g>
<!-- Node5 -->
<g id="Node000005" class="node">
<title>Node5</title>
<g id="a_Node000005"><a xlink:href="classBodyConsumerDialer.html" target="_top" xlink:title=" ">
<polygon fill="white" stroke="#666666" points="913,-120.5 793,-120.5 793,-101.5 913,-101.5 913,-120.5"/>
<text text-anchor="middle" x="853" y="-108.5" font-family="Helvetica,sans-Serif" font-size="10.00">BodyConsumerDialer</text>
</a>
</g>
</g>
<!-- Node4&#45;&gt;Node5 -->
<g id="edge4_Node000004_Node000005" class="edge">
<title>Node4&#45;&gt;Node5</title>
<g id="a_edge4_Node000004_Node000005"><a xlink:title=" ">
<path fill="none" stroke="#63b8ff" d="M760.32,-111C771.44,-111 782.49,-111 792.86,-111"/>
<polygon fill="#63b8ff" stroke="#63b8ff" points="760.1,-107.5 750.1,-111 760.1,-114.5 760.1,-107.5"/>
</a>
</g>
</g>
<!-- Node7 -->
<g id="Node000007" class="node">
<title>Node7</title>
<g id="a_Node000007"><a xlink:href="classBodyProducerDialer.html" target="_top" xlink:title=" ">
<polygon fill="white" stroke="#666666" points="909.5,-72.5 796.5,-72.5 796.5,-53.5 909.5,-53.5 909.5,-72.5"/>
<text text-anchor="middle" x="853" y="-60.5" font-family="Helvetica,sans-Serif" font-size="10.00">BodyProducerDialer</text>
</a>
</g>
</g>
<!-- Node6&#45;&gt;Node7 -->
<g id="edge6_Node000006_Node000007" class="edge">
<title>Node6&#45;&gt;Node7</title>
<g id="a_edge6_Node000006_Node000007"><a xlink:title=" ">
<path fill="none" stroke="#63b8ff" d="M757.26,-63C770.67,-63 784.05,-63 796.35,-63"/>
<polygon fill="#63b8ff" stroke="#63b8ff" points="757.01,-59.5 747.01,-63 757.01,-66.5 757.01,-59.5"/>
</a>
</g>
</g>
<!-- Node9 -->
<g id="Node000009" class="node">
<title>Node9</title>
<g id="a_Node000009"><a xlink:href="classUnaryJobCallbackDialer.html" target="_top" xlink:title=" ">
<polygon fill="white" stroke="#666666" points="919,-30 787,-30 787,0 919,0 919,-30"/>
<text text-anchor="start" x="795" y="-18" font-family="Helvetica,sans-Serif" font-size="10.00">UnaryJobCallbackDialer</text>
<text text-anchor="middle" x="853" y="-7" font-family="Helvetica,sans-Serif" font-size="10.00">&lt; Job, Argument1 &gt;</text>
</a>
</g>
</g>
<!-- Node8&#45;&gt;Node9 -->
<g id="edge8_Node000008_Node000009" class="edge">
<title>Node8&#45;&gt;Node9</title>
<g id="a_edge8_Node000008_Node000009"><a xlink:title=" ">
<path fill="none" stroke="#63b8ff" d="M746.91,-15C760.34,-15 774,-15 786.84,-15"/>
<polygon fill="#63b8ff" stroke="#63b8ff" points="746.71,-11.5 736.71,-15 746.71,-18.5 746.71,-11.5"/>
</a>
</g>
</g>
</g>
</svg>
