<?xml version="1.0" encoding="UTF-8" standalone="no"?>
<!DOCTYPE svg PUBLIC "-//W3C//DTD SVG 1.1//EN"
 "http://www.w3.org/Graphics/SVG/1.1/DTD/svg11.dtd">
<!-- Generated by graphviz version 2.43.0 (0)
 -->
<!-- Title: ACLProxyAuth Pages: 1 -->
<svg width="394pt" height="442pt"
 viewBox="0.00 0.00 393.50 442.00" xmlns="http://www.w3.org/2000/svg" xmlns:xlink="http://www.w3.org/1999/xlink">

<svg id="main" version="1.1" xmlns="http://www.w3.org/2000/svg" xmlns:xlink="http://www.w3.org/1999/xlink" xml:space="preserve" onload="init(evt)">
<style type="text/css"><![CDATA[
.node, .edge {opacity: 0.7;}
.node.selected, .edge.selected {opacity: 1;}
.edge:hover path { stroke: red; }
.edge:hover polygon { stroke: red; fill: red; }
]]></style>
<script type="application/ecmascript" xlink:href="svg.min.js"/>
<svg id="graph" class="graph">
<g id="graph0" class="graph" transform="scale(1 1) rotate(0) translate(4 438)">
<title>ACLProxyAuth</title>
<!-- Node1 -->
<g id="Node000001" class="node">
<title>Node1</title>
<g id="a_Node000001"><a xlink:title=" ">
<polygon fill="#999999" stroke="#666666" points="282.5,-19 196.5,-19 196.5,0 282.5,0 282.5,-19"/>
<text text-anchor="middle" x="239.5" y="-7" font-family="Helvetica,sans-Serif" font-size="10.00">ACLProxyAuth</text>
</a>
</g>
</g>
<!-- Node2 -->
<g id="Node000002" class="node">
<title>Node2</title>
<g id="a_Node000002"><a xlink:href="classAcl_1_1Node.html" target="_top" xlink:title=" ">
<polygon fill="white" stroke="#666666" points="212,-85 149,-85 149,-66 212,-66 212,-85"/>
<text text-anchor="middle" x="180.5" y="-73" font-family="Helvetica,sans-Serif" font-size="10.00">Acl::Node</text>
</a>
</g>
</g>
<!-- Node2&#45;&gt;Node1 -->
<g id="edge1_Node000001_Node000002" class="edge">
<title>Node2&#45;&gt;Node1</title>
<g id="a_edge1_Node000001_Node000002"><a xlink:title=" ">
<path fill="none" stroke="#63b8ff" d="M195.27,-58.48C206.66,-46.12 221.99,-29.49 231.29,-19.41"/>
<polygon fill="#63b8ff" stroke="#63b8ff" points="192.66,-56.14 188.46,-65.87 197.81,-60.89 192.66,-56.14"/>
</a>
</g>
</g>
<!-- Node3 -->
<g id="Node000003" class="node">
<title>Node3</title>
<g id="a_Node000003"><a xlink:title=" ">
<polygon fill="white" stroke="#666666" points="83,-357 0,-357 0,-338 83,-338 83,-357"/>
<text text-anchor="middle" x="41.5" y="-345" font-family="Helvetica,sans-Serif" font-size="10.00">RefCountable</text>
</a>
</g>
</g>
<!-- Node3&#45;&gt;Node2 -->
<g id="edge2_Node000002_Node000003" class="edge">
<title>Node3&#45;&gt;Node2</title>
<g id="a_edge2_Node000002_Node000003"><a xlink:title=" ">
<path fill="none" stroke="#63b8ff" d="M32.47,-328.79C26.03,-314.51 18.5,-293.72 18.5,-274.5 18.5,-274.5 18.5,-274.5 18.5,-140.5 18.5,-85.01 101.74,-76.19 148.88,-75.64"/>
<polygon fill="#63b8ff" stroke="#63b8ff" points="29.37,-330.41 36.85,-337.92 35.68,-327.39 29.37,-330.41"/>
</a>
</g>
</g>
<!-- Node8 -->
<g id="Node000008" class="node">
<title>Node8</title>
<g id="a_Node000008"><a xlink:href="classMemBlob.html" target="_top" xlink:title=" ">
<polygon fill="white" stroke="#666666" points="124,-283 61,-283 61,-264 124,-264 124,-283"/>
<text text-anchor="middle" x="92.5" y="-271" font-family="Helvetica,sans-Serif" font-size="10.00">MemBlob</text>
</a>
</g>
</g>
<!-- Node3&#45;&gt;Node8 -->
<g id="edge8_Node000008_Node000003" class="edge">
<title>Node3&#45;&gt;Node8</title>
<g id="a_edge8_Node000008_Node000003"><a xlink:title=" ">
<path fill="none" stroke="#63b8ff" d="M53.35,-329.76C63.71,-315.14 78.33,-294.5 86.46,-283.03"/>
<polygon fill="#63b8ff" stroke="#63b8ff" points="50.47,-327.77 47.55,-337.96 56.19,-331.82 50.47,-327.77"/>
</a>
</g>
</g>
<!-- Node4 -->
<g id="Node000004" class="node">
<title>Node4</title>
<g id="a_Node000004"><a xlink:href="classSBuf.html" target="_top" xlink:title=" ">
<polygon fill="white" stroke="#666666" points="219,-151 180,-151 180,-132 219,-132 219,-151"/>
<text text-anchor="middle" x="199.5" y="-139" font-family="Helvetica,sans-Serif" font-size="10.00">SBuf</text>
</a>
</g>
</g>
<!-- Node4&#45;&gt;Node2 -->
<g id="edge3_Node000002_Node000004" class="edge">
<title>Node4&#45;&gt;Node2</title>
<g id="a_edge3_Node000002_Node000004"><a xlink:title=" ">
<path fill="none" stroke="#9a32cd" stroke-dasharray="5,2" d="M193.99,-121.95C190.43,-109.93 185.94,-94.82 183.14,-85.41"/>
<polygon fill="#9a32cd" stroke="#9a32cd" points="190.74,-123.28 196.94,-131.87 197.45,-121.29 190.74,-123.28"/>
</a>
</g>
<text text-anchor="middle" x="207" y="-106" font-family="Helvetica,sans-Serif" font-size="10.00" fill="grey"> name</text>
</g>
<!-- Node5 -->
<g id="Node000005" class="node">
<title>Node5</title>
<g id="a_Node000005"><a xlink:href="classInstanceId.html" target="_top" xlink:title=" ">
<polygon fill="white" stroke="#666666" points="342.5,-320 230.5,-320 230.5,-301 342.5,-301 342.5,-320"/>
<text text-anchor="middle" x="286.5" y="-308" font-family="Helvetica,sans-Serif" font-size="10.00">InstanceId&lt; SBuf &gt;</text>
</a>
</g>
</g>
<!-- Node5&#45;&gt;Node4 -->
<g id="edge4_Node000004_Node000005" class="edge">
<title>Node5&#45;&gt;Node4</title>
<g id="a_edge4_Node000004_Node000005"><a xlink:title=" ">
<path fill="none" stroke="#9a32cd" stroke-dasharray="5,2" d="M286.31,-290.73C285.49,-267.97 282.14,-228.84 269.5,-198 263.46,-183.28 260.46,-179.49 248.5,-169 239.92,-161.48 228.84,-155.26 219.39,-150.74"/>
<polygon fill="#9a32cd" stroke="#9a32cd" points="282.81,-290.83 286.55,-300.74 289.81,-290.66 282.81,-290.83"/>
</a>
</g>
<text text-anchor="middle" x="289" y="-238" font-family="Helvetica,sans-Serif" font-size="10.00" fill="grey"> id</text>
</g>
<!-- Node6 -->
<g id="Node000006" class="node">
<title>Node6</title>
<g id="a_Node000006"><a xlink:href="classInstanceId.html" target="_top" xlink:title=" ">
<polygon fill="white" stroke="#666666" points="288,-434 181,-434 181,-404 288,-404 288,-434"/>
<text text-anchor="start" x="189" y="-422" font-family="Helvetica,sans-Serif" font-size="10.00">InstanceId&lt; Class,</text>
<text text-anchor="middle" x="234.5" y="-411" font-family="Helvetica,sans-Serif" font-size="10.00"> ValueType &gt;</text>
</a>
</g>
</g>
<!-- Node6&#45;&gt;Node5 -->
<g id="edge5_Node000005_Node000006" class="edge">
<title>Node6&#45;&gt;Node5</title>
<g id="a_edge5_Node000005_Node000006"><a xlink:title=" ">
<path fill="none" stroke="orange" stroke-dasharray="5,2" d="M256.49,-396.17C259.08,-392.92 261.51,-389.49 263.5,-386 275.96,-364.12 282.46,-334.71 285.08,-320.26"/>
<polygon fill="orange" stroke="orange" points="253.79,-393.94 249.85,-403.77 259.06,-398.54 253.79,-393.94"/>
</a>
</g>
<text text-anchor="middle" x="294" y="-378" font-family="Helvetica,sans-Serif" font-size="10.00" fill="grey"> &lt; SBuf &gt;</text>
</g>
<!-- Node9 -->
<g id="Node000009" class="node">
<title>Node9</title>
<g id="a_Node000009"><a xlink:href="classInstanceId.html" target="_top" xlink:title=" ">
<polygon fill="white" stroke="#666666" points="248.5,-357 112.5,-357 112.5,-338 248.5,-338 248.5,-357"/>
<text text-anchor="middle" x="180.5" y="-345" font-family="Helvetica,sans-Serif" font-size="10.00">InstanceId&lt; MemBlob &gt;</text>
</a>
</g>
</g>
<!-- Node6&#45;&gt;Node9 -->
<g id="edge10_Node000009_Node000006" class="edge">
<title>Node6&#45;&gt;Node9</title>
<g id="a_edge10_Node000009_Node000006"><a xlink:title=" ">
<path fill="none" stroke="orange" stroke-dasharray="5,2" d="M201.12,-397.69C197.12,-394.18 193.43,-390.27 190.5,-386 184.55,-377.33 182.14,-365.3 181.16,-357.23"/>
<polygon fill="orange" stroke="orange" points="199.03,-400.5 209.06,-403.93 203.36,-395 199.03,-400.5"/>
</a>
</g>
<text text-anchor="middle" x="227" y="-378" font-family="Helvetica,sans-Serif" font-size="10.00" fill="grey"> &lt; MemBlob &gt;</text>
</g>
<!-- Node7 -->
<g id="Node000007" class="node">
<title>Node7</title>
<g id="a_Node000007"><a xlink:href="classRefCount.html" target="_top" xlink:title=" ">
<polygon fill="white" stroke="#666666" points="178,-217 47,-217 47,-198 178,-198 178,-217"/>
<text text-anchor="middle" x="112.5" y="-205" font-family="Helvetica,sans-Serif" font-size="10.00">RefCount&lt; MemBlob &gt;</text>
</a>
</g>
</g>
<!-- Node7&#45;&gt;Node4 -->
<g id="edge6_Node000004_Node000007" class="edge">
<title>Node7&#45;&gt;Node4</title>
<g id="a_edge6_Node000004_Node000007"><a xlink:title=" ">
<path fill="none" stroke="#9a32cd" stroke-dasharray="5,2" d="M132.44,-191.83C149.5,-179.28 173.49,-161.63 187.67,-151.2"/>
<polygon fill="#9a32cd" stroke="#9a32cd" points="130.21,-189.12 124.23,-197.87 134.36,-194.76 130.21,-189.12"/>
</a>
</g>
<text text-anchor="middle" x="178.5" y="-172" font-family="Helvetica,sans-Serif" font-size="10.00" fill="grey"> store_</text>
</g>
<!-- Node8&#45;&gt;Node7 -->
<g id="edge7_Node000007_Node000008" class="edge">
<title>Node8&#45;&gt;Node7</title>
<g id="a_edge7_Node000007_Node000008"><a xlink:title=" ">
<path fill="none" stroke="#9a32cd" stroke-dasharray="5,2" d="M98.18,-254.32C101.96,-242.24 106.75,-226.91 109.72,-217.41"/>
<polygon fill="#9a32cd" stroke="#9a32cd" points="94.84,-253.28 95.2,-263.87 101.52,-255.37 94.84,-253.28"/>
</a>
</g>
<text text-anchor="middle" x="112" y="-238" font-family="Helvetica,sans-Serif" font-size="10.00" fill="grey"> p_</text>
</g>
<!-- Node9&#45;&gt;Node8 -->
<g id="edge9_Node000008_Node000009" class="edge">
<title>Node9&#45;&gt;Node8</title>
<g id="a_edge9_Node000008_Node000009"><a xlink:title=" ">
<path fill="none" stroke="#9a32cd" stroke-dasharray="5,2" d="M162.04,-331.39C144.09,-316.71 117.47,-294.93 102.93,-283.03"/>
<polygon fill="#9a32cd" stroke="#9a32cd" points="160.1,-334.33 170.06,-337.96 164.54,-328.92 160.1,-334.33"/>
</a>
</g>
<text text-anchor="middle" x="154" y="-308" font-family="Helvetica,sans-Serif" font-size="10.00" fill="grey"> id</text>
</g>
<!-- Node10 -->
<g id="Node000010" class="node">
<title>Node10</title>
<g id="a_Node000010"><a xlink:href="classRefCount.html" target="_top" xlink:title=" ">
<polygon fill="white" stroke="#666666" points="233,-283 142,-283 142,-264 233,-264 233,-283"/>
<text text-anchor="middle" x="187.5" y="-271" font-family="Helvetica,sans-Serif" font-size="10.00">RefCount&lt; C &gt;</text>
</a>
</g>
</g>
<!-- Node10&#45;&gt;Node7 -->
<g id="edge11_Node000007_Node000010" class="edge">
<title>Node10&#45;&gt;Node7</title>
<g id="a_edge11_Node000007_Node000010"><a xlink:title=" ">
<path fill="none" stroke="orange" stroke-dasharray="5,2" d="M169.55,-257.18C154.99,-244.76 134.98,-227.68 122.94,-217.41"/>
<polygon fill="orange" stroke="orange" points="167.51,-260.04 177.39,-263.87 172.05,-254.72 167.51,-260.04"/>
</a>
</g>
<text text-anchor="middle" x="191" y="-238" font-family="Helvetica,sans-Serif" font-size="10.00" fill="grey"> &lt; MemBlob &gt;</text>
</g>
<!-- Node11 -->
<g id="Node000011" class="node">
<title>Node11</title>
<g id="a_Node000011"><a xlink:href="classSBufStats.html" target="_top" xlink:title=" ">
<polygon fill="white" stroke="#666666" points="260.5,-217 196.5,-217 196.5,-198 260.5,-198 260.5,-217"/>
<text text-anchor="middle" x="228.5" y="-205" font-family="Helvetica,sans-Serif" font-size="10.00">SBufStats</text>
</a>
</g>
</g>
<!-- Node11&#45;&gt;Node4 -->
<g id="edge12_Node000004_Node000011" class="edge">
<title>Node11&#45;&gt;Node4</title>
<g id="a_edge12_Node000004_Node000011"><a xlink:title=" ">
<path fill="none" stroke="#9a32cd" stroke-dasharray="5,2" d="M220.43,-188.68C214.93,-176.55 207.89,-161.01 203.54,-151.41"/>
<polygon fill="#9a32cd" stroke="#9a32cd" points="217.27,-190.2 224.59,-197.87 223.65,-187.32 217.27,-190.2"/>
</a>
</g>
<text text-anchor="middle" x="230.5" y="-172" font-family="Helvetica,sans-Serif" font-size="10.00" fill="grey"> stats</text>
</g>
<!-- Node12 -->
<g id="Node000012" class="node">
<title>Node12</title>
<g id="a_Node000012"><a xlink:href="classACLData.html" target="_top" xlink:title=" ">
<polygon fill="white" stroke="#666666" points="370.5,-85 230.5,-85 230.5,-66 370.5,-66 370.5,-85"/>
<text text-anchor="middle" x="300.5" y="-73" font-family="Helvetica,sans-Serif" font-size="10.00">ACLData&lt; char const * &gt;</text>
</a>
</g>
</g>
<!-- Node12&#45;&gt;Node1 -->
<g id="edge13_Node000001_Node000012" class="edge">
<title>Node12&#45;&gt;Node1</title>
<g id="a_edge13_Node000001_Node000012"><a xlink:title=" ">
<path fill="none" stroke="#9a32cd" stroke-dasharray="5,2" d="M285.23,-58.48C273.45,-46.12 257.6,-29.49 247.99,-19.41"/>
<polygon fill="#9a32cd" stroke="#9a32cd" points="282.84,-61.04 292.27,-65.87 287.91,-56.22 282.84,-61.04"/>
</a>
</g>
<text text-anchor="middle" x="287" y="-40" font-family="Helvetica,sans-Serif" font-size="10.00" fill="grey"> data</text>
</g>
<!-- Node13 -->
<g id="Node000013" class="node">
<title>Node13</title>
<g id="a_Node000013"><a xlink:href="classACLData.html" target="_top" xlink:title="Configured ACL parameter(s) (e.g., domain names in dstdomain ACL).">
<polygon fill="white" stroke="#666666" points="345.5,-151 255.5,-151 255.5,-132 345.5,-132 345.5,-151"/>
<text text-anchor="middle" x="300.5" y="-139" font-family="Helvetica,sans-Serif" font-size="10.00">ACLData&lt; M &gt;</text>
</a>
</g>
</g>
<!-- Node13&#45;&gt;Node12 -->
<g id="edge14_Node000012_Node000013" class="edge">
<title>Node13&#45;&gt;Node12</title>
<g id="a_edge14_Node000012_Node000013"><a xlink:title=" ">
<path fill="none" stroke="orange" stroke-dasharray="5,2" d="M300.5,-121.58C300.5,-109.63 300.5,-94.72 300.5,-85.41"/>
<polygon fill="orange" stroke="orange" points="297,-121.87 300.5,-131.87 304,-121.87 297,-121.87"/>
</a>
</g>
<text text-anchor="middle" x="343" y="-106" font-family="Helvetica,sans-Serif" font-size="10.00" fill="grey"> &lt; char const * &gt;</text>
</g>
</g>
</svg>
</svg>

<style type='text/css'>
<![CDATA[
[data-mouse-over-selected='false'] { opacity: 0.7; }
[data-mouse-over-selected='true']  { opacity: 1.0; }
]]>
</style>
<script type="application/ecmascript"><![CDATA[
document.addEventListener('DOMContentLoaded', (event) => {
  highlightEdges();
  highlightAdjacentNodes();
});
]]></script>
</svg>
