<?xml version="1.0" encoding="UTF-8" standalone="no"?>
<!DOCTYPE svg PUBLIC "-//W3C//DTD SVG 1.1//EN"
 "http://www.w3.org/Graphics/SVG/1.1/DTD/svg11.dtd">
<!-- Generated by graphviz version 2.43.0 (0)
 -->
<!-- Title: Mgr::Action Pages: 1 -->
<!--zoomable 582 -->

<svg id="main" version="1.1" xmlns="http://www.w3.org/2000/svg" xmlns:xlink="http://www.w3.org/1999/xlink" xml:space="preserve" onload="init(evt)">
<style type="text/css"><![CDATA[
.node, .edge {opacity: 0.7;}
.node.selected, .edge.selected {opacity: 1;}
.edge:hover path { stroke: red; }
.edge:hover polygon { stroke: red; fill: red; }
]]></style>

<defs>
  <circle id="rim" cx="0" cy="0" r="7"/>
  <circle id="rim2" cx="0" cy="0" r="3.5"/>
  <g id="zoomPlus">
    <use xlink:href="#rim" fill="#404040"><set attributeName="fill" to="#808080" begin="zoomplus.mouseover" end="zoomplus.mouseout"/></use>
    <path d="M-4,0h8M0,-4v8" fill="none" stroke="white" stroke-width="1.5" pointer-events="none"/>
  </g>
  <g id="zoomMin">
    <use xlink:href="#rim" fill="#404040"><set attributeName="fill" to="#808080" begin="zoomminus.mouseover" end="zoomminus.mouseout"/></use>
    <path d="M-4,0h8" fill="none" stroke="white" stroke-width="1.5" pointer-events="none"/>
  </g>
  <g id="arrowUp" transform="translate(30 24)">
    <use xlink:href="#rim"/>
    <path pointer-events="none" fill="none" stroke="white" stroke-width="1.5" d="M0,-3.0v7 M-2.5,-0.5L0,-3.0L2.5,-0.5"/>
  </g>
  <g id="arrowRight" transform="rotate(90) translate(36 -43)">
    <use xlink:href="#rim"/>
    <path pointer-events="none" fill="none" stroke="white" stroke-width="1.5" d="M0,-3.0v7 M-2.5,-0.5L0,-3.0L2.5,-0.5"/>
  </g>
  <g id="arrowDown" transform="rotate(180) translate(-30 -48)">
    <use xlink:href="#rim"/>
    <path pointer-events="none" fill="none" stroke="white" stroke-width="1.5" d="M0,-3.0v7 M-2.5,-0.5L0,-3.0L2.5,-0.5"/>
  </g>
  <g id="arrowLeft" transform="rotate(270) translate(-36 17)">
    <use xlink:href="#rim"/>
    <path pointer-events="none" fill="none" stroke="white" stroke-width="1.5" d="M0,-3.0v7 M-2.5,-0.5L0,-3.0L2.5,-0.5"/>
  </g>
  <g id="resetDef">
    <use xlink:href="#rim2" fill="#404040"><set attributeName="fill" to="#808080" begin="reset.mouseover" end="reset.mouseout"/></use>
  </g>
</defs>
<script type="application/ecmascript">
var viewWidth = 390;
var viewHeight = 582;
var sectionId = 'dynsection-0';
</script>
<script type="application/ecmascript" xlink:href="svg.min.js"/>
<svg id="graph" class="graph">
<g id="viewport">
<title>Mgr::Action</title>
<!-- Node1 -->
<g id="Node000001" class="node">
<title>Node1</title>
<g id="a_Node000001"><a xlink:title=" ">
<polygon fill="#999999" stroke="#666666" points="191,-296 119,-296 119,-277 191,-277 191,-296"/>
<text text-anchor="middle" x="155" y="-284" font-family="Helvetica,sans-Serif" font-size="10.00">Mgr::Action</text>
</a>
</g>
</g>
<!-- Node3 -->
<g id="Node000003" class="node">
<title>Node3</title>
<g id="a_Node000003"><a xlink:href="classDiskdAction.html" target="_top" xlink:title="implement aggregated &#39;diskd&#39; action">
<polygon fill="white" stroke="#666666" points="342,-574 267,-574 267,-555 342,-555 342,-574"/>
<text text-anchor="middle" x="304.5" y="-562" font-family="Helvetica,sans-Serif" font-size="10.00">DiskdAction</text>
</a>
</g>
</g>
<!-- Node1&#45;&gt;Node3 -->
<g id="edge2_Node000001_Node000003" class="edge">
<title>Node1&#45;&gt;Node3</title>
<g id="a_edge2_Node000001_Node000003"><a xlink:title=" ">
<path fill="none" stroke="#63b8ff" d="M158.78,-306.41C166.84,-361.23 191.87,-512.6 227,-546.5 237.6,-556.73 252.87,-561.54 266.99,-563.67"/>
<polygon fill="#63b8ff" stroke="#63b8ff" points="162.21,-305.65 157.32,-296.25 155.28,-306.65 162.21,-305.65"/>
</a>
</g>
</g>
<!-- Node4 -->
<g id="Node000004" class="node">
<title>Node4</title>
<g id="a_Node000004"><a xlink:href="classMgr_1_1CountersAction.html" target="_top" xlink:title="implement aggregated &#39;counters&#39; action">
<polygon fill="white" stroke="#666666" points="362.5,-537 246.5,-537 246.5,-518 362.5,-518 362.5,-537"/>
<text text-anchor="middle" x="304.5" y="-525" font-family="Helvetica,sans-Serif" font-size="10.00">Mgr::CountersAction</text>
</a>
</g>
</g>
<!-- Node1&#45;&gt;Node4 -->
<g id="edge3_Node000001_Node000004" class="edge">
<title>Node1&#45;&gt;Node4</title>
<g id="a_edge3_Node000001_Node000004"><a xlink:title=" ">
<path fill="none" stroke="#63b8ff" d="M156.16,-306.44C157.65,-350.08 167.61,-454.52 227,-509.5 232.51,-514.6 239.18,-518.34 246.26,-521.06"/>
<polygon fill="#63b8ff" stroke="#63b8ff" points="159.66,-306.2 155.94,-296.28 152.66,-306.36 159.66,-306.2"/>
</a>
</g>
</g>
<!-- Node5 -->
<g id="Node000005" class="node">
<title>Node5</title>
<g id="a_Node000005"><a xlink:href="classMgr_1_1FunAction.html" target="_top" xlink:title=" ">
<polygon fill="white" stroke="#666666" points="349,-500 260,-500 260,-481 349,-481 349,-500"/>
<text text-anchor="middle" x="304.5" y="-488" font-family="Helvetica,sans-Serif" font-size="10.00">Mgr::FunAction</text>
</a>
</g>
</g>
<!-- Node1&#45;&gt;Node5 -->
<g id="edge4_Node000001_Node000005" class="edge">
<title>Node1&#45;&gt;Node5</title>
<g id="a_edge4_Node000001_Node000005"><a xlink:title=" ">
<path fill="none" stroke="#63b8ff" d="M157.66,-306.75C161.93,-345.14 176.78,-428.58 227,-472.5 236.14,-480.49 248.17,-485.11 259.98,-487.72"/>
<polygon fill="#63b8ff" stroke="#63b8ff" points="161.1,-305.99 156.65,-296.38 154.13,-306.67 161.1,-305.99"/>
</a>
</g>
</g>
<!-- Node6 -->
<g id="Node000006" class="node">
<title>Node6</title>
<g id="a_Node000006"><a xlink:href="classMgr_1_1IndexAction.html" target="_top" xlink:title=" ">
<polygon fill="white" stroke="#666666" points="354,-463 255,-463 255,-444 354,-444 354,-463"/>
<text text-anchor="middle" x="304.5" y="-451" font-family="Helvetica,sans-Serif" font-size="10.00">Mgr::IndexAction</text>
</a>
</g>
</g>
<!-- Node1&#45;&gt;Node6 -->
<g id="edge5_Node000001_Node000006" class="edge">
<title>Node1&#45;&gt;Node6</title>
<g id="a_edge5_Node000001_Node000006"><a xlink:title=" ">
<path fill="none" stroke="#63b8ff" d="M159.71,-306.29C166.82,-338.51 185.5,-402.03 227,-435.5 234.97,-441.92 244.83,-446.13 254.8,-448.86"/>
<polygon fill="#63b8ff" stroke="#63b8ff" points="163.1,-305.4 157.66,-296.3 156.24,-306.8 163.1,-305.4"/>
</a>
</g>
</g>
<!-- Node7 -->
<g id="Node000007" class="node">
<title>Node7</title>
<g id="a_Node000007"><a xlink:href="classMgr_1_1InfoAction.html" target="_top" xlink:title="implement aggregated &#39;info&#39; action">
<polygon fill="white" stroke="#666666" points="350,-426 259,-426 259,-407 350,-407 350,-426"/>
<text text-anchor="middle" x="304.5" y="-414" font-family="Helvetica,sans-Serif" font-size="10.00">Mgr::InfoAction</text>
</a>
</g>
</g>
<!-- Node1&#45;&gt;Node7 -->
<g id="edge6_Node000001_Node000007" class="edge">
<title>Node1&#45;&gt;Node7</title>
<g id="a_edge6_Node000001_Node000007"><a xlink:title=" ">
<path fill="none" stroke="#63b8ff" d="M162.82,-305.65C172.84,-330.94 194.01,-375.02 227,-398.5 236.34,-405.14 247.78,-409.37 258.95,-412.04"/>
<polygon fill="#63b8ff" stroke="#63b8ff" points="166.01,-304.19 159.2,-296.07 159.46,-306.66 166.01,-304.19"/>
</a>
</g>
</g>
<!-- Node8 -->
<g id="Node000008" class="node">
<title>Node8</title>
<g id="a_Node000008"><a xlink:href="classMgr_1_1IntervalAction.html" target="_top" xlink:title="implement aggregated interval actions">
<polygon fill="white" stroke="#666666" points="359.5,-389 249.5,-389 249.5,-370 359.5,-370 359.5,-389"/>
<text text-anchor="middle" x="304.5" y="-377" font-family="Helvetica,sans-Serif" font-size="10.00">Mgr::IntervalAction</text>
</a>
</g>
</g>
<!-- Node1&#45;&gt;Node8 -->
<g id="edge7_Node000001_Node000008" class="edge">
<title>Node1&#45;&gt;Node8</title>
<g id="a_edge7_Node000001_Node000008"><a xlink:title=" ">
<path fill="none" stroke="#63b8ff" d="M168.3,-304.64C180.98,-321.92 202.35,-347.32 227,-361.5 233.86,-365.45 241.54,-368.53 249.31,-370.93"/>
<polygon fill="#63b8ff" stroke="#63b8ff" points="170.82,-302.14 162.18,-296.01 165.11,-306.19 170.82,-302.14"/>
</a>
</g>
</g>
<!-- Node9 -->
<g id="Node000009" class="node">
<title>Node9</title>
<g id="a_Node000009"><a xlink:href="classMgr_1_1IoAction.html" target="_top" xlink:title="implement aggregated &#39;io&#39; action">
<polygon fill="white" stroke="#666666" points="345,-352 264,-352 264,-333 345,-333 345,-352"/>
<text text-anchor="middle" x="304.5" y="-340" font-family="Helvetica,sans-Serif" font-size="10.00">Mgr::IoAction</text>
</a>
</g>
</g>
<!-- Node1&#45;&gt;Node9 -->
<g id="edge8_Node000001_Node000009" class="edge">
<title>Node1&#45;&gt;Node9</title>
<g id="a_edge8_Node000001_Node000009"><a xlink:title=" ">
<path fill="none" stroke="#63b8ff" d="M179.6,-301.14C193.08,-308.98 210.53,-318.28 227,-324.5 238.74,-328.94 251.92,-332.51 264,-335.27"/>
<polygon fill="#63b8ff" stroke="#63b8ff" points="181.35,-298.11 170.97,-296 177.77,-304.12 181.35,-298.11"/>
</a>
</g>
</g>
<!-- Node10 -->
<g id="Node000010" class="node">
<title>Node10</title>
<g id="a_Node000010"><a xlink:href="classMgr_1_1MenuAction.html" target="_top" xlink:title="returns available Cache Manager actions and their access requirements">
<polygon fill="white" stroke="#666666" points="354,-315 255,-315 255,-296 354,-296 354,-315"/>
<text text-anchor="middle" x="304.5" y="-303" font-family="Helvetica,sans-Serif" font-size="10.00">Mgr::MenuAction</text>
</a>
</g>
</g>
<!-- Node1&#45;&gt;Node10 -->
<g id="edge9_Node000001_Node000010" class="edge">
<title>Node1&#45;&gt;Node10</title>
<g id="a_edge9_Node000001_Node000010"><a xlink:title=" ">
<path fill="none" stroke="#63b8ff" d="M201.51,-292.36C218.4,-294.54 237.63,-297.01 254.8,-299.23"/>
<polygon fill="#63b8ff" stroke="#63b8ff" points="201.7,-288.86 191.33,-291.05 200.8,-295.8 201.7,-288.86"/>
</a>
</g>
</g>
<!-- Node11 -->
<g id="Node000011" class="node">
<title>Node11</title>
<g id="a_Node000011"><a xlink:href="classMgr_1_1OfflineToggleAction.html" target="_top" xlink:title="changes offline mode">
<polygon fill="white" stroke="#666666" points="372.5,-278 236.5,-278 236.5,-259 372.5,-259 372.5,-278"/>
<text text-anchor="middle" x="304.5" y="-266" font-family="Helvetica,sans-Serif" font-size="10.00">Mgr::OfflineToggleAction</text>
</a>
</g>
</g>
<!-- Node1&#45;&gt;Node11 -->
<g id="edge10_Node000001_Node000011" class="edge">
<title>Node1&#45;&gt;Node11</title>
<g id="a_edge10_Node000001_Node000011"><a xlink:title=" ">
<path fill="none" stroke="#63b8ff" d="M201.56,-280.94C212.58,-279.59 224.6,-278.13 236.39,-276.69"/>
<polygon fill="#63b8ff" stroke="#63b8ff" points="200.83,-277.5 191.33,-282.19 201.68,-284.45 200.83,-277.5"/>
</a>
</g>
</g>
<!-- Node12 -->
<g id="Node000012" class="node">
<title>Node12</title>
<g id="a_Node000012"><a xlink:href="classMgr_1_1ReconfigureAction.html" target="_top" xlink:title="reconfigures Squid">
<polygon fill="white" stroke="#666666" points="369.5,-241 239.5,-241 239.5,-222 369.5,-222 369.5,-241"/>
<text text-anchor="middle" x="304.5" y="-229" font-family="Helvetica,sans-Serif" font-size="10.00">Mgr::ReconfigureAction</text>
</a>
</g>
</g>
<!-- Node1&#45;&gt;Node12 -->
<g id="edge11_Node000001_Node000012" class="edge">
<title>Node1&#45;&gt;Node12</title>
<g id="a_edge11_Node000001_Node000012"><a xlink:title=" ">
<path fill="none" stroke="#63b8ff" d="M180.56,-271.76C193.93,-264.25 210.96,-255.46 227,-249.5 235.82,-246.22 245.45,-243.4 254.8,-241.03"/>
<polygon fill="#63b8ff" stroke="#63b8ff" points="178.47,-268.93 171.55,-276.95 181.96,-274.99 178.47,-268.93"/>
</a>
</g>
</g>
<!-- Node13 -->
<g id="Node000013" class="node">
<title>Node13</title>
<g id="a_Node000013"><a xlink:href="classMgr_1_1RotateAction.html" target="_top" xlink:title="starts log rotation">
<polygon fill="white" stroke="#666666" points="356.5,-204 252.5,-204 252.5,-185 356.5,-185 356.5,-204"/>
<text text-anchor="middle" x="304.5" y="-192" font-family="Helvetica,sans-Serif" font-size="10.00">Mgr::RotateAction</text>
</a>
</g>
</g>
<!-- Node1&#45;&gt;Node13 -->
<g id="edge12_Node000001_Node000013" class="edge">
<title>Node1&#45;&gt;Node13</title>
<g id="a_edge12_Node000001_Node000013"><a xlink:title=" ">
<path fill="none" stroke="#63b8ff" d="M168.56,-268.33C181.31,-251.29 202.6,-226.42 227,-212.5 234.7,-208.1 243.43,-204.78 252.15,-202.27"/>
<polygon fill="#63b8ff" stroke="#63b8ff" points="165.41,-266.71 162.39,-276.87 171.08,-270.81 165.41,-266.71"/>
</a>
</g>
</g>
<!-- Node14 -->
<g id="Node000014" class="node">
<title>Node14</title>
<g id="a_Node000014"><a xlink:href="classMgr_1_1ServiceTimesAction.html" target="_top" xlink:title="implement aggregated &#39;service_times&#39; action">
<polygon fill="white" stroke="#666666" points="373.5,-167 235.5,-167 235.5,-148 373.5,-148 373.5,-167"/>
<text text-anchor="middle" x="304.5" y="-155" font-family="Helvetica,sans-Serif" font-size="10.00">Mgr::ServiceTimesAction</text>
</a>
</g>
</g>
<!-- Node1&#45;&gt;Node14 -->
<g id="edge13_Node000001_Node000014" class="edge">
<title>Node1&#45;&gt;Node14</title>
<g id="a_edge13_Node000001_Node000014"><a xlink:title=" ">
<path fill="none" stroke="#63b8ff" d="M163.02,-267.15C173.15,-242.02 194.34,-198.64 227,-175.5 231.79,-172.11 237.12,-169.35 242.69,-167.1"/>
<polygon fill="#63b8ff" stroke="#63b8ff" points="159.67,-266.1 159.35,-276.69 166.2,-268.61 159.67,-266.1"/>
</a>
</g>
</g>
<!-- Node15 -->
<g id="Node000015" class="node">
<title>Node15</title>
<g id="a_Node000015"><a xlink:href="classMgr_1_1ShutdownAction.html" target="_top" xlink:title="shuts Squid down">
<polygon fill="white" stroke="#666666" points="364.5,-130 244.5,-130 244.5,-111 364.5,-111 364.5,-130"/>
<text text-anchor="middle" x="304.5" y="-118" font-family="Helvetica,sans-Serif" font-size="10.00">Mgr::ShutdownAction</text>
</a>
</g>
</g>
<!-- Node1&#45;&gt;Node15 -->
<g id="edge14_Node000001_Node000015" class="edge">
<title>Node1&#45;&gt;Node15</title>
<g id="a_edge14_Node000001_Node000015"><a xlink:title=" ">
<path fill="none" stroke="#63b8ff" d="M159.75,-266.84C166.92,-234.84 185.68,-171.73 227,-138.5 232.1,-134.4 237.98,-131.2 244.17,-128.71"/>
<polygon fill="#63b8ff" stroke="#63b8ff" points="156.3,-266.26 157.68,-276.76 163.15,-267.69 156.3,-266.26"/>
</a>
</g>
</g>
<!-- Node16 -->
<g id="Node000016" class="node">
<title>Node16</title>
<g id="a_Node000016"><a xlink:href="classMgr_1_1StoreIoAction.html" target="_top" xlink:title="implement aggregated &#39;store_io&#39; action">
<polygon fill="white" stroke="#666666" points="358,-93 251,-93 251,-74 358,-74 358,-93"/>
<text text-anchor="middle" x="304.5" y="-81" font-family="Helvetica,sans-Serif" font-size="10.00">Mgr::StoreIoAction</text>
</a>
</g>
</g>
<!-- Node1&#45;&gt;Node16 -->
<g id="edge15_Node000001_Node000016" class="edge">
<title>Node1&#45;&gt;Node16</title>
<g id="a_edge15_Node000001_Node000016"><a xlink:title=" ">
<path fill="none" stroke="#63b8ff" d="M157.69,-266.35C162.02,-228.17 176.98,-145.17 227,-101.5 233.78,-95.58 242.15,-91.51 250.84,-88.74"/>
<polygon fill="#63b8ff" stroke="#63b8ff" points="154.17,-266.38 156.66,-276.67 161.14,-267.07 154.17,-266.38"/>
</a>
</g>
</g>
<!-- Node17 -->
<g id="Node000017" class="node">
<title>Node17</title>
<g id="a_Node000017"><a xlink:href="classSBufStatsAction.html" target="_top" xlink:title="SBuf stats for cachemgr.">
<polygon fill="white" stroke="#666666" points="352,-56 257,-56 257,-37 352,-37 352,-56"/>
<text text-anchor="middle" x="304.5" y="-44" font-family="Helvetica,sans-Serif" font-size="10.00">SBufStatsAction</text>
</a>
</g>
</g>
<!-- Node1&#45;&gt;Node17 -->
<g id="edge16_Node000001_Node000017" class="edge">
<title>Node1&#45;&gt;Node17</title>
<g id="a_edge16_Node000001_Node000017"><a xlink:title=" ">
<path fill="none" stroke="#63b8ff" d="M156.19,-266.64C157.75,-223.2 167.81,-119.22 227,-64.5 235.22,-56.91 246.02,-52.33 256.9,-49.62"/>
<polygon fill="#63b8ff" stroke="#63b8ff" points="152.69,-266.68 155.95,-276.76 159.69,-266.85 152.69,-266.68"/>
</a>
</g>
</g>
<!-- Node18 -->
<g id="Node000018" class="node">
<title>Node18</title>
<g id="a_Node000018"><a xlink:href="classSsl_1_1CertificateStorageAction.html" target="_top" xlink:title=" ">
<polygon fill="white" stroke="#666666" points="382,-19 227,-19 227,0 382,0 382,-19"/>
<text text-anchor="middle" x="304.5" y="-7" font-family="Helvetica,sans-Serif" font-size="10.00">Ssl::CertificateStorageAction</text>
</a>
</g>
</g>
<!-- Node1&#45;&gt;Node18 -->
<g id="edge17_Node000001_Node000018" class="edge">
<title>Node1&#45;&gt;Node18</title>
<g id="a_edge17_Node000001_Node000018"><a xlink:title=" ">
<path fill="none" stroke="#63b8ff" d="M155.12,-266.72C154.11,-218.38 158.64,-93.41 227,-27.5 230.44,-24.19 234.37,-21.44 238.58,-19.17"/>
<polygon fill="#63b8ff" stroke="#63b8ff" points="151.62,-266.91 155.44,-276.8 158.62,-266.69 151.62,-266.91"/>
</a>
</g>
</g>
<!-- Node2 -->
<g id="Node000002" class="node">
<title>Node2</title>
<g id="a_Node000002"><a xlink:title=" ">
<polygon fill="white" stroke="#666666" points="83,-296 0,-296 0,-277 83,-277 83,-296"/>
<text text-anchor="middle" x="41.5" y="-284" font-family="Helvetica,sans-Serif" font-size="10.00">RefCountable</text>
</a>
</g>
</g>
<!-- Node2&#45;&gt;Node1 -->
<g id="edge1_Node000001_Node000002" class="edge">
<title>Node2&#45;&gt;Node1</title>
<g id="a_edge1_Node000001_Node000002"><a xlink:title=" ">
<path fill="none" stroke="#63b8ff" d="M93.13,-286.5C101.8,-286.5 110.64,-286.5 118.8,-286.5"/>
<polygon fill="#63b8ff" stroke="#63b8ff" points="93.07,-283 83.07,-286.5 93.07,-290 93.07,-283"/>
</a>
</g>
</g>
</g>
</svg>

<g id="navigator" transform="translate(0 0)" fill="#404254">
  <rect fill="#f2f5e9" fill-opacity="0.5" stroke="#606060" stroke-width=".5" x="0" y="0" width="60" height="60"/>
  <use id="zoomplus" xlink:href="#zoomPlus" x="17" y="9" onmousedown="handleZoom(evt,'in')"/>
  <use id="zoomminus" xlink:href="#zoomMin" x="42" y="9" onmousedown="handleZoom(evt,'out')"/>
  <use id="reset" xlink:href="#resetDef" x="30" y="36" onmousedown="handleReset()"/>
   <use id="arrowup" xlink:href="#arrowUp" x="0" y="0" onmousedown="handlePan(0,-1)"/>
  <use id="arrowright" xlink:href="#arrowRight" x="0" y="0" onmousedown="handlePan(1,0)"/>
  <use id="arrowdown" xlink:href="#arrowDown" x="0" y="0" onmousedown="handlePan(0,1)"/>
  <use id="arrowleft" xlink:href="#arrowLeft" x="0" y="0" onmousedown="handlePan(-1,0)"/>
</g>
<svg viewBox="0 0 15 15" width="100%" height="30px" preserveAspectRatio="xMaxYMin meet">
 <g id="arrow_out" transform="scale(0.3 0.3)">
  <a xlink:href="classMgr_1_1Action__inherit__graph_org.svg" target="_base">
   <rect id="button" ry="5" rx="5" y="6" x="6" height="38" width="38"
        fill="#f2f5e9" fill-opacity="0.5" stroke="#606060" stroke-width="1.0"/>
   <path id="arrow"
     d="M 11.500037,31.436501 C 11.940474,20.09759 22.043105,11.32322 32.158766,21.979434 L 37.068811,17.246167 C 37.068811,17.246167 37.088388,32 37.088388,32 L 22.160133,31.978069 C 22.160133,31.978069 26.997745,27.140456 26.997745,27.140456 C 18.528582,18.264221 13.291696,25.230495 11.500037,31.436501 z"
     style="fill:#404040;"/>
  </a>
 </g>
</svg>

<style type='text/css'>
<![CDATA[
[data-mouse-over-selected='false'] { opacity: 0.7; }
[data-mouse-over-selected='true']  { opacity: 1.0; }
]]>
</style>
<script type="application/ecmascript"><![CDATA[
document.addEventListener('DOMContentLoaded', (event) => {
  highlightEdges();
  highlightAdjacentNodes();
});
]]></script>
</svg>
