<?xml version="1.0" encoding="UTF-8" standalone="no"?>
<!DOCTYPE svg PUBLIC "-//W3C//DTD SVG 1.1//EN"
 "http://www.w3.org/Graphics/SVG/1.1/DTD/svg11.dtd">
<!-- Generated by graphviz version 2.43.0 (0)
 -->
<!-- Title: hash_table Pages: 1 -->
<svg width="118pt" height="104pt"
 viewBox="0.00 0.00 117.50 104.00" xmlns="http://www.w3.org/2000/svg" xmlns:xlink="http://www.w3.org/1999/xlink">
<g id="graph0" class="graph" transform="scale(1 1) rotate(0) translate(4 100)">
<title>hash_table</title>
<!-- Node1 -->
<g id="Node000001" class="node">
<title>Node1</title>
<g id="a_Node000001"><a xlink:title=" ">
<polygon fill="#999999" stroke="#666666" points="70,-19 0,-19 0,0 70,0 70,-19"/>
<text text-anchor="middle" x="35" y="-7" font-family="Helvetica,sans-Serif" font-size="10.00">hash_table</text>
</a>
</g>
</g>
<!-- Node2 -->
<g id="Node000002" class="node">
<title>Node2</title>
<g id="a_Node000002"><a xlink:href="classhash__link.html" target="_top" xlink:title=" ">
<polygon fill="white" stroke="#666666" points="66.5,-96 3.5,-96 3.5,-77 66.5,-77 66.5,-96"/>
<text text-anchor="middle" x="35" y="-84" font-family="Helvetica,sans-Serif" font-size="10.00">hash_link</text>
</a>
</g>
</g>
<!-- Node2&#45;&gt;Node1 -->
<g id="edge1_Node000001_Node000002" class="edge">
<title>Node2&#45;&gt;Node1</title>
<g id="a_edge1_Node000001_Node000002"><a xlink:title=" ">
<path fill="none" stroke="#9a32cd" stroke-dasharray="5,2" d="M35,-66.52C35,-51.24 35,-30.48 35,-19"/>
<polygon fill="#9a32cd" stroke="#9a32cd" points="31.5,-66.9 35,-76.9 38.5,-66.9 31.5,-66.9"/>
</a>
</g>
<text text-anchor="middle" x="55.5" y="-51" font-family="Helvetica,sans-Serif" font-size="10.00" fill="grey"> buckets</text>
<text text-anchor="middle" x="55.5" y="-40" font-family="Helvetica,sans-Serif" font-size="10.00" fill="grey">next</text>
</g>
<!-- Node2&#45;&gt;Node2 -->
<g id="edge2_Node000002_Node000002" class="edge">
<title>Node2&#45;&gt;Node2</title>
<g id="a_edge2_Node000002_Node000002"><a xlink:title=" ">
<path fill="none" stroke="#9a32cd" stroke-dasharray="5,2" d="M77.15,-92.43C81.62,-91.28 84.5,-89.3 84.5,-86.5 84.5,-81.9 76.76,-79.53 66.9,-79.38"/>
<polygon fill="#9a32cd" stroke="#9a32cd" points="76.43,-88.99 66.9,-93.62 77.23,-95.94 76.43,-88.99"/>
</a>
</g>
<text text-anchor="middle" x="97" y="-84" font-family="Helvetica,sans-Serif" font-size="10.00" fill="grey"> next</text>
</g>
</g>
</svg>
