<?xml version="1.0" encoding="UTF-8" standalone="no"?>
<!DOCTYPE svg PUBLIC "-//W3C//DTD SVG 1.1//EN"
 "http://www.w3.org/Graphics/SVG/1.1/DTD/svg11.dtd">
<!-- Generated by graphviz version 2.43.0 (0)
 -->
<!-- Title: ClassCHostPool::Id Pages: 1 -->
<svg width="892pt" height="739pt"
 viewBox="0.00 0.00 891.50 739.00" xmlns="http://www.w3.org/2000/svg" xmlns:xlink="http://www.w3.org/1999/xlink">
<g id="graph0" class="graph" transform="scale(1 1) rotate(0) translate(4 735)">
<title>ClassCHostPool::Id</title>
<!-- Node1 -->
<g id="Node000001" class="node">
<title>Node1</title>
<g id="a_Node000001"><a xlink:title=" ">
<polygon fill="#999999" stroke="#666666" points="139.5,-19 31.5,-19 31.5,0 139.5,0 139.5,-19"/>
<text text-anchor="middle" x="85.5" y="-7" font-family="Helvetica,sans-Serif" font-size="10.00">ClassCHostPool::Id</text>
</a>
</g>
</g>
<!-- Node2 -->
<g id="Node000002" class="node">
<title>Node2</title>
<g id="a_Node000002"><a xlink:href="classDelayIdComposite.html" target="_top" xlink:title=" ">
<polygon fill="white" stroke="#666666" points="107,-617 0,-617 0,-598 107,-598 107,-617"/>
<text text-anchor="middle" x="53.5" y="-605" font-family="Helvetica,sans-Serif" font-size="10.00">DelayIdComposite</text>
</a>
</g>
</g>
<!-- Node2&#45;&gt;Node1 -->
<g id="edge1_Node000001_Node000002" class="edge">
<title>Node2&#45;&gt;Node1</title>
<g id="a_edge1_Node000001_Node000002"><a xlink:title=" ">
<path fill="none" stroke="#63b8ff" d="M60.19,-588.31C64.57,-574.77 69.5,-555.73 69.5,-538.5 69.5,-538.5 69.5,-538.5 69.5,-74.5 69.5,-54.11 77.24,-31.14 81.95,-19.03"/>
<polygon fill="#63b8ff" stroke="#63b8ff" points="56.85,-587.26 56.89,-597.85 63.47,-589.54 56.85,-587.26"/>
</a>
</g>
</g>
<!-- Node3 -->
<g id="Node000003" class="node">
<title>Node3</title>
<g id="a_Node000003"><a xlink:title=" ">
<polygon fill="white" stroke="#666666" points="171,-731 88,-731 88,-712 171,-712 171,-731"/>
<text text-anchor="middle" x="129.5" y="-719" font-family="Helvetica,sans-Serif" font-size="10.00">RefCountable</text>
</a>
</g>
</g>
<!-- Node3&#45;&gt;Node2 -->
<g id="edge2_Node000002_Node000003" class="edge">
<title>Node3&#45;&gt;Node2</title>
<g id="a_edge2_Node000002_Node000003"><a xlink:title=" ">
<path fill="none" stroke="#63b8ff" d="M115.91,-703.87C113.39,-700.64 110.82,-697.25 108.5,-694 88.99,-666.72 68.14,-632.84 58.69,-617.18"/>
<polygon fill="#63b8ff" stroke="#63b8ff" points="113.3,-706.21 122.28,-711.83 118.77,-701.84 113.3,-706.21"/>
</a>
</g>
</g>
<!-- Node6 -->
<g id="Node000006" class="node">
<title>Node6</title>
<g id="a_Node000006"><a xlink:href="classCompositePoolNode.html" target="_top" xlink:title=" ">
<polygon fill="white" stroke="#666666" points="250.5,-222.5 134.5,-222.5 134.5,-203.5 250.5,-203.5 250.5,-222.5"/>
<text text-anchor="middle" x="192.5" y="-210.5" font-family="Helvetica,sans-Serif" font-size="10.00">CompositePoolNode</text>
</a>
</g>
</g>
<!-- Node3&#45;&gt;Node6 -->
<g id="edge6_Node000006_Node000003" class="edge">
<title>Node3&#45;&gt;Node6</title>
<g id="a_edge6_Node000006_Node000003"><a xlink:title=" ">
<path fill="none" stroke="#63b8ff" d="M126.58,-701.73C124.66,-687.77 122.5,-668.24 122.5,-651 122.5,-651 122.5,-651 122.5,-283.5 122.5,-254.56 153.01,-233.54 173.74,-222.6"/>
<polygon fill="#63b8ff" stroke="#63b8ff" points="123.17,-702.58 128.08,-711.97 130.09,-701.57 123.17,-702.58"/>
</a>
</g>
</g>
<!-- Node11 -->
<g id="Node000011" class="node">
<title>Node11</title>
<g id="a_Node000011"><a xlink:href="classAsyncCall.html" target="_top" xlink:title=" ">
<polygon fill="white" stroke="#666666" points="295,-514 230,-514 230,-495 295,-495 295,-514"/>
<text text-anchor="middle" x="262.5" y="-502" font-family="Helvetica,sans-Serif" font-size="10.00">AsyncCall</text>
</a>
</g>
</g>
<!-- Node3&#45;&gt;Node11 -->
<g id="edge12_Node000011_Node000003" class="edge">
<title>Node3&#45;&gt;Node11</title>
<g id="a_edge12_Node000011_Node000003"><a xlink:title=" ">
<path fill="none" stroke="#63b8ff" d="M134.5,-702.18C145.37,-662.77 170.84,-572.57 179.5,-561 195.91,-539.07 223.68,-523.07 242.54,-514.03"/>
<polygon fill="#63b8ff" stroke="#63b8ff" points="131.12,-701.27 131.85,-711.84 137.87,-703.12 131.12,-701.27"/>
</a>
</g>
</g>
<!-- Node13 -->
<g id="Node000013" class="node">
<title>Node13</title>
<g id="a_Node000013"><a xlink:href="classCodeContext.html" target="_top" xlink:title=" ">
<polygon fill="white" stroke="#666666" points="269.5,-659.5 189.5,-659.5 189.5,-640.5 269.5,-640.5 269.5,-659.5"/>
<text text-anchor="middle" x="229.5" y="-647.5" font-family="Helvetica,sans-Serif" font-size="10.00">CodeContext</text>
</a>
</g>
</g>
<!-- Node3&#45;&gt;Node13 -->
<g id="edge15_Node000013_Node000003" class="edge">
<title>Node3&#45;&gt;Node13</title>
<g id="a_edge15_Node000013_Node000003"><a xlink:title=" ">
<path fill="none" stroke="#63b8ff" d="M154,-706.85C160.76,-702.88 168.01,-698.42 174.5,-694 190.73,-682.95 208.44,-668.66 219.26,-659.66"/>
<polygon fill="#63b8ff" stroke="#63b8ff" points="152.14,-703.89 145.22,-711.91 155.63,-709.96 152.14,-703.89"/>
</a>
</g>
</g>
<!-- Node4 -->
<g id="Node000004" class="node">
<title>Node4</title>
<g id="a_Node000004"><a xlink:href="classRefCount.html" target="_top" xlink:title=" ">
<polygon fill="white" stroke="#666666" points="386,-85 225,-85 225,-66 386,-66 386,-85"/>
<text text-anchor="middle" x="305.5" y="-73" font-family="Helvetica,sans-Serif" font-size="10.00">RefCount&lt; ClassCHostPool &gt;</text>
</a>
</g>
</g>
<!-- Node4&#45;&gt;Node1 -->
<g id="edge3_Node000001_Node000004" class="edge">
<title>Node4&#45;&gt;Node1</title>
<g id="a_edge3_Node000001_Node000004"><a xlink:title=" ">
<path fill="none" stroke="#9a32cd" stroke-dasharray="5,2" d="M266.19,-63.06C222.83,-50.45 154.05,-30.44 115.05,-19.1"/>
<polygon fill="#9a32cd" stroke="#9a32cd" points="265.25,-66.44 275.83,-65.87 267.21,-59.71 265.25,-66.44"/>
</a>
</g>
<text text-anchor="middle" x="246" y="-40" font-family="Helvetica,sans-Serif" font-size="10.00" fill="grey"> theClassCHost</text>
</g>
<!-- Node5 -->
<g id="Node000005" class="node">
<title>Node5</title>
<g id="a_Node000005"><a xlink:href="classClassCHostPool.html" target="_top" xlink:title=" ">
<polygon fill="white" stroke="#666666" points="352,-151 259,-151 259,-132 352,-132 352,-151"/>
<text text-anchor="middle" x="305.5" y="-139" font-family="Helvetica,sans-Serif" font-size="10.00">ClassCHostPool</text>
</a>
</g>
</g>
<!-- Node5&#45;&gt;Node4 -->
<g id="edge4_Node000004_Node000005" class="edge">
<title>Node5&#45;&gt;Node4</title>
<g id="a_edge4_Node000004_Node000005"><a xlink:title=" ">
<path fill="none" stroke="#9a32cd" stroke-dasharray="5,2" d="M305.5,-121.58C305.5,-109.63 305.5,-94.72 305.5,-85.41"/>
<polygon fill="#9a32cd" stroke="#9a32cd" points="302,-121.87 305.5,-131.87 309,-121.87 302,-121.87"/>
</a>
</g>
<text text-anchor="middle" x="313" y="-106" font-family="Helvetica,sans-Serif" font-size="10.00" fill="grey"> p_</text>
</g>
<!-- Node6&#45;&gt;Node5 -->
<g id="edge5_Node000005_Node000006" class="edge">
<title>Node6&#45;&gt;Node5</title>
<g id="a_edge5_Node000005_Node000006"><a xlink:title=" ">
<path fill="none" stroke="#63b8ff" d="M215.05,-198.13C237.86,-184.1 272.41,-162.85 291.53,-151.09"/>
<polygon fill="#63b8ff" stroke="#63b8ff" points="213.04,-195.26 206.36,-203.48 216.71,-201.22 213.04,-195.26"/>
</a>
</g>
</g>
<!-- Node7 -->
<g id="Node000007" class="node">
<title>Node7</title>
<g id="a_Node000007"><a xlink:href="classUpdateable.html" target="_top" xlink:title=" ">
<polygon fill="white" stroke="#666666" points="224,-294 151,-294 151,-275 224,-275 224,-294"/>
<text text-anchor="middle" x="187.5" y="-282" font-family="Helvetica,sans-Serif" font-size="10.00">Updateable</text>
</a>
</g>
</g>
<!-- Node7&#45;&gt;Node6 -->
<g id="edge7_Node000006_Node000007" class="edge">
<title>Node7&#45;&gt;Node6</title>
<g id="a_edge7_Node000006_Node000007"><a xlink:title=" ">
<path fill="none" stroke="#63b8ff" d="M188.85,-264.71C189.84,-251 191.13,-233.05 191.88,-222.59"/>
<polygon fill="#63b8ff" stroke="#63b8ff" points="185.34,-264.75 188.11,-274.98 192.32,-265.25 185.34,-264.75"/>
</a>
</g>
</g>
<!-- Node8 -->
<g id="Node000008" class="node">
<title>Node8</title>
<g id="a_Node000008"><a xlink:href="classDelayedAsyncCalls.html" target="_top" xlink:title=" ">
<polygon fill="white" stroke="#666666" points="352.5,-294 242.5,-294 242.5,-275 352.5,-275 352.5,-294"/>
<text text-anchor="middle" x="297.5" y="-282" font-family="Helvetica,sans-Serif" font-size="10.00">DelayedAsyncCalls</text>
</a>
</g>
</g>
<!-- Node8&#45;&gt;Node6 -->
<g id="edge8_Node000006_Node000008" class="edge">
<title>Node8&#45;&gt;Node6</title>
<g id="a_edge8_Node000006_Node000008"><a xlink:title=" ">
<path fill="none" stroke="#9a32cd" stroke-dasharray="5,2" d="M276.27,-269.45C255.07,-255.41 223.17,-234.3 205.48,-222.59"/>
<polygon fill="#9a32cd" stroke="#9a32cd" points="274.35,-272.38 284.62,-274.98 278.22,-266.54 274.35,-272.38"/>
</a>
</g>
<text text-anchor="middle" x="291" y="-249" font-family="Helvetica,sans-Serif" font-size="10.00" fill="grey"> deferredReads</text>
</g>
<!-- Node9 -->
<g id="Node000009" class="node">
<title>Node9</title>
<g id="a_Node000009"><a xlink:href="classAsyncCallList.html" target="_top" xlink:title=" ">
<polygon fill="white" stroke="#666666" points="281.5,-365.5 199.5,-365.5 199.5,-346.5 281.5,-346.5 281.5,-365.5"/>
<text text-anchor="middle" x="240.5" y="-353.5" font-family="Helvetica,sans-Serif" font-size="10.00">AsyncCallList</text>
</a>
</g>
</g>
<!-- Node9&#45;&gt;Node8 -->
<g id="edge9_Node000008_Node000009" class="edge">
<title>Node9&#45;&gt;Node8</title>
<g id="a_edge9_Node000008_Node000009"><a xlink:title=" ">
<path fill="none" stroke="#9a32cd" stroke-dasharray="5,2" d="M236.78,-336.31C236.17,-328.24 236.91,-319.06 241.5,-312 246.83,-303.79 255.45,-298.07 264.34,-294.11"/>
<polygon fill="#9a32cd" stroke="#9a32cd" points="233.33,-336.91 238.21,-346.31 240.26,-335.92 233.33,-336.91"/>
</a>
</g>
<text text-anchor="middle" x="279" y="-315" font-family="Helvetica,sans-Serif" font-size="10.00" fill="grey"> deferredReads</text>
</g>
<!-- Node10 -->
<g id="Node000010" class="node">
<title>Node10</title>
<g id="a_Node000010"><a xlink:href="classRefCount.html" target="_top" xlink:title=" ">
<polygon fill="white" stroke="#666666" points="306.5,-448 174.5,-448 174.5,-429 306.5,-429 306.5,-448"/>
<text text-anchor="middle" x="240.5" y="-436" font-family="Helvetica,sans-Serif" font-size="10.00">RefCount&lt; AsyncCall &gt;</text>
</a>
</g>
</g>
<!-- Node10&#45;&gt;Node9 -->
<g id="edge10_Node000009_Node000010" class="edge">
<title>Node10&#45;&gt;Node9</title>
<g id="a_edge10_Node000009_Node000010"><a xlink:title=" ">
<path fill="none" stroke="#9a32cd" stroke-dasharray="5,2" d="M240.5,-418.67C240.5,-402.01 240.5,-378.43 240.5,-365.8"/>
<polygon fill="#9a32cd" stroke="#9a32cd" points="237,-418.89 240.5,-428.89 244,-418.89 237,-418.89"/>
</a>
</g>
<text text-anchor="middle" x="254.5" y="-403" font-family="Helvetica,sans-Serif" font-size="10.00" fill="grey"> head</text>
<text text-anchor="middle" x="254.5" y="-392" font-family="Helvetica,sans-Serif" font-size="10.00" fill="grey">tail</text>
</g>
<!-- Node11&#45;&gt;Node10 -->
<g id="edge11_Node000010_Node000011" class="edge">
<title>Node11&#45;&gt;Node10</title>
<g id="a_edge11_Node000010_Node000011"><a xlink:title=" ">
<path fill="none" stroke="#9a32cd" stroke-dasharray="5,2" d="M256.25,-485.32C252.1,-473.24 246.83,-457.91 243.56,-448.41"/>
<polygon fill="#9a32cd" stroke="#9a32cd" points="252.97,-486.55 259.53,-494.87 259.59,-484.27 252.97,-486.55"/>
</a>
</g>
<text text-anchor="middle" x="260" y="-469" font-family="Helvetica,sans-Serif" font-size="10.00" fill="grey"> p_</text>
</g>
<!-- Node12 -->
<g id="Node000012" class="node">
<title>Node12</title>
<g id="a_Node000012"><a xlink:href="classRefCount.html" target="_top" xlink:title=" ">
<polygon fill="white" stroke="#666666" points="336,-580 189,-580 189,-561 336,-561 336,-580"/>
<text text-anchor="middle" x="262.5" y="-568" font-family="Helvetica,sans-Serif" font-size="10.00">RefCount&lt; CodeContext &gt;</text>
</a>
</g>
</g>
<!-- Node12&#45;&gt;Node11 -->
<g id="edge13_Node000011_Node000012" class="edge">
<title>Node12&#45;&gt;Node11</title>
<g id="a_edge13_Node000011_Node000012"><a xlink:title=" ">
<path fill="none" stroke="#9a32cd" stroke-dasharray="5,2" d="M262.5,-550.58C262.5,-538.63 262.5,-523.72 262.5,-514.41"/>
<polygon fill="#9a32cd" stroke="#9a32cd" points="259,-550.87 262.5,-560.87 266,-550.87 259,-550.87"/>
</a>
</g>
<text text-anchor="middle" x="295" y="-535" font-family="Helvetica,sans-Serif" font-size="10.00" fill="grey"> codeContext</text>
</g>
<!-- Node13&#45;&gt;Node12 -->
<g id="edge14_Node000012_Node000013" class="edge">
<title>Node13&#45;&gt;Node12</title>
<g id="a_edge14_Node000012_Node000013"><a xlink:title=" ">
<path fill="none" stroke="#9a32cd" stroke-dasharray="5,2" d="M226.72,-630.07C226.09,-620.07 226.73,-607.85 231.5,-598 235.02,-590.74 241.55,-584.69 247.72,-580.21"/>
<polygon fill="#9a32cd" stroke="#9a32cd" points="223.26,-630.62 227.8,-640.19 230.22,-629.87 223.26,-630.62"/>
</a>
</g>
<text text-anchor="middle" x="239" y="-605" font-family="Helvetica,sans-Serif" font-size="10.00" fill="grey"> p_</text>
</g>
<!-- Node14 -->
<g id="Node000014" class="node">
<title>Node14</title>
<g id="a_Node000014"><a xlink:href="classStopwatch.html" target="_top" xlink:title=" ">
<polygon fill="white" stroke="#666666" points="263.5,-731 195.5,-731 195.5,-712 263.5,-712 263.5,-731"/>
<text text-anchor="middle" x="229.5" y="-719" font-family="Helvetica,sans-Serif" font-size="10.00">Stopwatch</text>
</a>
</g>
</g>
<!-- Node14&#45;&gt;Node13 -->
<g id="edge16_Node000013_Node000014" class="edge">
<title>Node14&#45;&gt;Node13</title>
<g id="a_edge16_Node000013_Node000014"><a xlink:title=" ">
<path fill="none" stroke="#9a32cd" stroke-dasharray="5,2" d="M229.5,-701.71C229.5,-688 229.5,-670.05 229.5,-659.59"/>
<polygon fill="#9a32cd" stroke="#9a32cd" points="226,-701.98 229.5,-711.98 233,-701.98 226,-701.98"/>
</a>
</g>
<text text-anchor="middle" x="255.5" y="-686" font-family="Helvetica,sans-Serif" font-size="10.00" fill="grey"> busyTime</text>
</g>
<!-- Node15 -->
<g id="Node000015" class="node">
<title>Node15</title>
<g id="a_Node000015"><a xlink:href="classRefCount.html" target="_top" xlink:title=" ">
<polygon fill="white" stroke="#666666" points="425,-659.5 334,-659.5 334,-640.5 425,-640.5 425,-659.5"/>
<text text-anchor="middle" x="379.5" y="-647.5" font-family="Helvetica,sans-Serif" font-size="10.00">RefCount&lt; C &gt;</text>
</a>
</g>
</g>
<!-- Node15&#45;&gt;Node4 -->
<g id="edge30_Node000004_Node000015" class="edge">
<title>Node15&#45;&gt;Node4</title>
<g id="a_edge30_Node000004_Node000015"><a xlink:title=" ">
<path fill="none" stroke="orange" stroke-dasharray="5,2" d="M423.61,-638.26C429.27,-637.06 435.01,-635.94 440.5,-635 516.26,-622.06 780.5,-648.36 780.5,-571.5 780.5,-571.5 780.5,-571.5 780.5,-140.5 780.5,-101.18 521.6,-85.04 386.08,-79.28"/>
<polygon fill="orange" stroke="orange" points="422.58,-634.9 413.56,-640.47 424.08,-641.74 422.58,-634.9"/>
</a>
</g>
<text text-anchor="middle" x="832" y="-353.5" font-family="Helvetica,sans-Serif" font-size="10.00" fill="grey"> &lt; ClassCHostPool &gt;</text>
</g>
<!-- Node15&#45;&gt;Node10 -->
<g id="edge21_Node000010_Node000015" class="edge">
<title>Node15&#45;&gt;Node10</title>
<g id="a_edge21_Node000010_Node000015"><a xlink:title=" ">
<path fill="none" stroke="orange" stroke-dasharray="5,2" d="M423.83,-638.29C429.43,-637.1 435.08,-635.97 440.5,-635 471.38,-629.49 559.78,-640.55 580.5,-617 596.94,-598.31 594.84,-581.35 580.5,-561 545.07,-510.72 364.15,-466.13 281.63,-448.05"/>
<polygon fill="orange" stroke="orange" points="422.91,-634.91 413.9,-640.49 424.42,-641.75 422.91,-634.91"/>
</a>
</g>
<text text-anchor="middle" x="596.5" y="-535" font-family="Helvetica,sans-Serif" font-size="10.00" fill="grey"> &lt; AsyncCall &gt;</text>
</g>
<!-- Node15&#45;&gt;Node11 -->
<g id="edge20_Node000011_Node000015" class="edge">
<title>Node15&#45;&gt;Node11</title>
<g id="a_edge20_Node000011_Node000015"><a xlink:title=" ">
<path fill="none" stroke="#9a32cd" stroke-dasharray="5,2" d="M376.83,-630.28C372.19,-604.54 360.21,-558.42 331.5,-532 321.4,-522.7 307.68,-516.55 295.15,-512.53"/>
<polygon fill="#9a32cd" stroke="#9a32cd" points="373.39,-630.92 378.44,-640.23 380.3,-629.8 373.39,-630.92"/>
</a>
</g>
<text text-anchor="middle" x="383" y="-568" font-family="Helvetica,sans-Serif" font-size="10.00" fill="grey"> theNext</text>
</g>
<!-- Node15&#45;&gt;Node12 -->
<g id="edge17_Node000012_Node000015" class="edge">
<title>Node15&#45;&gt;Node12</title>
<g id="a_edge17_Node000012_Node000015"><a xlink:title=" ">
<path fill="none" stroke="orange" stroke-dasharray="5,2" d="M323.85,-645.04C304,-640.8 283.19,-632.6 269.5,-617 260.64,-606.91 260.4,-590.47 261.27,-580.36"/>
<polygon fill="orange" stroke="orange" points="323.32,-648.5 333.79,-646.87 324.59,-641.62 323.32,-648.5"/>
</a>
</g>
<text text-anchor="middle" x="314" y="-605" font-family="Helvetica,sans-Serif" font-size="10.00" fill="grey"> &lt; CodeContext &gt;</text>
</g>
<!-- Node16 -->
<g id="Node000016" class="node">
<title>Node16</title>
<g id="a_Node000016"><a xlink:href="classInstanceId.html" target="_top" xlink:title=" ">
<polygon fill="white" stroke="#666666" points="571,-580 434,-580 434,-561 571,-561 571,-580"/>
<text text-anchor="middle" x="502.5" y="-568" font-family="Helvetica,sans-Serif" font-size="10.00">InstanceId&lt; AsyncCall &gt;</text>
</a>
</g>
</g>
<!-- Node16&#45;&gt;Node11 -->
<g id="edge18_Node000011_Node000016" class="edge">
<title>Node16&#45;&gt;Node11</title>
<g id="a_edge18_Node000011_Node000016"><a xlink:title=" ">
<path fill="none" stroke="#9a32cd" stroke-dasharray="5,2" d="M468.64,-557.54C445.65,-549.68 414.46,-539.49 386.5,-532 355.77,-523.77 320.23,-516.39 295.09,-511.52"/>
<polygon fill="#9a32cd" stroke="#9a32cd" points="467.68,-560.91 478.27,-560.87 469.96,-554.3 467.68,-560.91"/>
</a>
</g>
<text text-anchor="middle" x="428" y="-535" font-family="Helvetica,sans-Serif" font-size="10.00" fill="grey"> id</text>
</g>
<!-- Node17 -->
<g id="Node000017" class="node">
<title>Node17</title>
<g id="a_Node000017"><a xlink:href="classInstanceId.html" target="_top" xlink:title=" ">
<polygon fill="white" stroke="#666666" points="556,-665 449,-665 449,-635 556,-635 556,-665"/>
<text text-anchor="start" x="457" y="-653" font-family="Helvetica,sans-Serif" font-size="10.00">InstanceId&lt; Class,</text>
<text text-anchor="middle" x="502.5" y="-642" font-family="Helvetica,sans-Serif" font-size="10.00"> ValueType &gt;</text>
</a>
</g>
</g>
<!-- Node17&#45;&gt;Node16 -->
<g id="edge19_Node000016_Node000017" class="edge">
<title>Node17&#45;&gt;Node16</title>
<g id="a_edge19_Node000016_Node000017"><a xlink:title=" ">
<path fill="none" stroke="orange" stroke-dasharray="5,2" d="M502.5,-624.55C502.5,-609.46 502.5,-591.01 502.5,-580.32"/>
<polygon fill="orange" stroke="orange" points="499,-624.79 502.5,-634.79 506,-624.79 499,-624.79"/>
</a>
</g>
<text text-anchor="middle" x="539.5" y="-605" font-family="Helvetica,sans-Serif" font-size="10.00" fill="grey"> &lt; AsyncCall &gt;</text>
</g>
<!-- Node18 -->
<g id="Node000018" class="node">
<title>Node18</title>
<g id="a_Node000018"><a xlink:href="classDelaySpec.html" target="_top" xlink:title=" ">
<polygon fill="white" stroke="#666666" points="339.5,-222.5 271.5,-222.5 271.5,-203.5 339.5,-203.5 339.5,-222.5"/>
<text text-anchor="middle" x="305.5" y="-210.5" font-family="Helvetica,sans-Serif" font-size="10.00">DelaySpec</text>
</a>
</g>
</g>
<!-- Node18&#45;&gt;Node5 -->
<g id="edge22_Node000005_Node000018" class="edge">
<title>Node18&#45;&gt;Node5</title>
<g id="a_edge22_Node000005_Node000018"><a xlink:title=" ">
<path fill="none" stroke="#9a32cd" stroke-dasharray="5,2" d="M305.5,-193.21C305.5,-179.5 305.5,-161.55 305.5,-151.09"/>
<polygon fill="#9a32cd" stroke="#9a32cd" points="302,-193.48 305.5,-203.48 309,-193.48 302,-193.48"/>
</a>
</g>
<text text-anchor="middle" x="318.5" y="-172" font-family="Helvetica,sans-Serif" font-size="10.00" fill="grey"> spec</text>
</g>
<!-- Node19 -->
<g id="Node000019" class="node">
<title>Node19</title>
<g id="a_Node000019"><a xlink:href="classVectorMap.html" target="_top" xlink:title=" ">
<polygon fill="white" stroke="#666666" points="484.5,-228 360.5,-228 360.5,-198 484.5,-198 484.5,-228"/>
<text text-anchor="start" x="368.5" y="-216" font-family="Helvetica,sans-Serif" font-size="10.00">VectorMap&lt; unsigned</text>
<text text-anchor="middle" x="422.5" y="-205" font-family="Helvetica,sans-Serif" font-size="10.00"> char, ClassCBucket &gt;</text>
</a>
</g>
</g>
<!-- Node19&#45;&gt;Node5 -->
<g id="edge23_Node000005_Node000019" class="edge">
<title>Node19&#45;&gt;Node5</title>
<g id="a_edge23_Node000005_Node000019"><a xlink:title=" ">
<path fill="none" stroke="#9a32cd" stroke-dasharray="5,2" d="M390.07,-192.73C367.07,-179.07 337.31,-161.4 319.92,-151.07"/>
<polygon fill="#9a32cd" stroke="#9a32cd" points="388.44,-195.84 398.82,-197.94 392.01,-189.82 388.44,-195.84"/>
</a>
</g>
<text text-anchor="middle" x="388" y="-172" font-family="Helvetica,sans-Serif" font-size="10.00" fill="grey"> buckets</text>
</g>
<!-- Node20 -->
<g id="Node000020" class="node">
<title>Node20</title>
<g id="a_Node000020"><a xlink:href="classClassCBucket.html" target="_top" xlink:title=" ">
<polygon fill="white" stroke="#666666" points="464,-294 381,-294 381,-275 464,-275 464,-294"/>
<text text-anchor="middle" x="422.5" y="-282" font-family="Helvetica,sans-Serif" font-size="10.00">ClassCBucket</text>
</a>
</g>
</g>
<!-- Node20&#45;&gt;Node19 -->
<g id="edge24_Node000019_Node000020" class="edge">
<title>Node20&#45;&gt;Node19</title>
<g id="a_edge24_Node000019_Node000020"><a xlink:title=" ">
<path fill="none" stroke="#9a32cd" stroke-dasharray="5,2" d="M422.5,-264.71C422.5,-253.19 422.5,-238.68 422.5,-228.14"/>
<polygon fill="#9a32cd" stroke="#9a32cd" points="419,-264.98 422.5,-274.98 426,-264.98 419,-264.98"/>
</a>
</g>
<text text-anchor="middle" x="440.5" y="-249" font-family="Helvetica,sans-Serif" font-size="10.00" fill="grey"> values</text>
</g>
<!-- Node21 -->
<g id="Node000021" class="node">
<title>Node21</title>
<g id="a_Node000021"><a xlink:href="classDelayBucket.html" target="_top" xlink:title=" ">
<polygon fill="white" stroke="#666666" points="402.5,-448 324.5,-448 324.5,-429 402.5,-429 402.5,-448"/>
<text text-anchor="middle" x="363.5" y="-436" font-family="Helvetica,sans-Serif" font-size="10.00">DelayBucket</text>
</a>
</g>
</g>
<!-- Node21&#45;&gt;Node20 -->
<g id="edge25_Node000020_Node000021" class="edge">
<title>Node21&#45;&gt;Node20</title>
<g id="a_edge25_Node000020_Node000021"><a xlink:title=" ">
<path fill="none" stroke="#9a32cd" stroke-dasharray="5,2" d="M352.01,-420.05C340.37,-399.98 325.87,-366.52 339.5,-341 351.92,-317.76 378.85,-302.55 398.68,-294.03"/>
<polygon fill="#9a32cd" stroke="#9a32cd" points="349.13,-422.05 357.36,-428.73 355.09,-418.38 349.13,-422.05"/>
</a>
</g>
<text text-anchor="middle" x="349" y="-353.5" font-family="Helvetica,sans-Serif" font-size="10.00" fill="grey"> net</text>
</g>
<!-- Node22 -->
<g id="Node000022" class="node">
<title>Node22</title>
<g id="a_Node000022"><a xlink:href="classVectorMap.html" target="_top" xlink:title=" ">
<polygon fill="white" stroke="#666666" points="491.5,-371 367.5,-371 367.5,-341 491.5,-341 491.5,-371"/>
<text text-anchor="start" x="375.5" y="-359" font-family="Helvetica,sans-Serif" font-size="10.00">VectorMap&lt; unsigned</text>
<text text-anchor="middle" x="429.5" y="-348" font-family="Helvetica,sans-Serif" font-size="10.00"> char, DelayBucket &gt;</text>
</a>
</g>
</g>
<!-- Node21&#45;&gt;Node22 -->
<g id="edge27_Node000022_Node000021" class="edge">
<title>Node21&#45;&gt;Node22</title>
<g id="a_edge27_Node000022_Node000021"><a xlink:title=" ">
<path fill="none" stroke="#9a32cd" stroke-dasharray="5,2" d="M359.5,-418.71C358.49,-409.12 358.97,-397.68 364.5,-389 369.3,-381.47 376.43,-375.65 384.24,-371.18"/>
<polygon fill="#9a32cd" stroke="#9a32cd" points="356.09,-419.54 361.16,-428.85 363,-418.41 356.09,-419.54"/>
</a>
</g>
<text text-anchor="middle" x="382.5" y="-397.5" font-family="Helvetica,sans-Serif" font-size="10.00" fill="grey"> values</text>
</g>
<!-- Node22&#45;&gt;Node20 -->
<g id="edge26_Node000020_Node000022" class="edge">
<title>Node22&#45;&gt;Node20</title>
<g id="a_edge26_Node000020_Node000022"><a xlink:title=" ">
<path fill="none" stroke="#9a32cd" stroke-dasharray="5,2" d="M427.08,-330.94C425.8,-318.24 424.31,-303.44 423.38,-294.27"/>
<polygon fill="#9a32cd" stroke="#9a32cd" points="423.6,-331.34 428.08,-340.94 430.56,-330.64 423.6,-331.34"/>
</a>
</g>
<text text-anchor="middle" x="454" y="-315" font-family="Helvetica,sans-Serif" font-size="10.00" fill="grey"> individuals</text>
</g>
<!-- Node23 -->
<g id="Node000023" class="node">
<title>Node23</title>
<g id="a_Node000023"><a xlink:href="classVectorMap.html" target="_top" xlink:title=" ">
<polygon fill="white" stroke="#666666" points="616.5,-448 474.5,-448 474.5,-429 616.5,-429 616.5,-448"/>
<text text-anchor="middle" x="545.5" y="-436" font-family="Helvetica,sans-Serif" font-size="10.00">VectorMap&lt; Key, Value &gt;</text>
</a>
</g>
</g>
<!-- Node23&#45;&gt;Node19 -->
<g id="edge29_Node000019_Node000023" class="edge">
<title>Node23&#45;&gt;Node19</title>
<g id="a_edge29_Node000019_Node000023"><a xlink:title=" ">
<path fill="none" stroke="orange" stroke-dasharray="5,2" d="M574.88,-423.16C579.15,-419.78 582.95,-415.74 585.5,-411 590.13,-402.39 588.9,-398.17 585.5,-389 558.07,-315.04 481.57,-254.47 443.95,-228.15"/>
<polygon fill="orange" stroke="orange" points="572.68,-420.42 566.3,-428.88 576.56,-426.24 572.68,-420.42"/>
</a>
</g>
<text text-anchor="middle" x="629.5" y="-315" font-family="Helvetica,sans-Serif" font-size="10.00" fill="grey"> &lt; unsigned char, ClassCBucket &gt;</text>
</g>
<!-- Node23&#45;&gt;Node22 -->
<g id="edge28_Node000022_Node000023" class="edge">
<title>Node23&#45;&gt;Node22</title>
<g id="a_edge28_Node000022_Node000023"><a xlink:title=" ">
<path fill="none" stroke="orange" stroke-dasharray="5,2" d="M464.38,-427.79C445.66,-423.84 429.47,-418.4 423.5,-411 414.62,-399.98 418.21,-383.34 422.7,-371.44"/>
<polygon fill="orange" stroke="orange" points="463.88,-431.26 474.36,-429.73 465.21,-424.39 463.88,-431.26"/>
</a>
</g>
<text text-anchor="middle" x="504.5" y="-397.5" font-family="Helvetica,sans-Serif" font-size="10.00" fill="grey"> &lt; unsigned char, DelayBucket &gt;</text>
</g>
</g>
</svg>
