<?xml version="1.0" encoding="UTF-8" standalone="no"?>
<!DOCTYPE svg PUBLIC "-//W3C//DTD SVG 1.1//EN"
 "http://www.w3.org/Graphics/SVG/1.1/DTD/svg11.dtd">
<!-- Generated by graphviz version 2.43.0 (0)
 -->
<!-- Title: ProxyProtocol::Header Pages: 1 -->
<!--zoomable 519 -->

<svg id="main" version="1.1" xmlns="http://www.w3.org/2000/svg" xmlns:xlink="http://www.w3.org/1999/xlink" xml:space="preserve" onload="init(evt)">
<style type="text/css"><![CDATA[
.node, .edge {opacity: 0.7;}
.node.selected, .edge.selected {opacity: 1;}
.edge:hover path { stroke: red; }
.edge:hover polygon { stroke: red; fill: red; }
]]></style>

<defs>
  <circle id="rim" cx="0" cy="0" r="7"/>
  <circle id="rim2" cx="0" cy="0" r="3.5"/>
  <g id="zoomPlus">
    <use xlink:href="#rim" fill="#404040"><set attributeName="fill" to="#808080" begin="zoomplus.mouseover" end="zoomplus.mouseout"/></use>
    <path d="M-4,0h8M0,-4v8" fill="none" stroke="white" stroke-width="1.5" pointer-events="none"/>
  </g>
  <g id="zoomMin">
    <use xlink:href="#rim" fill="#404040"><set attributeName="fill" to="#808080" begin="zoomminus.mouseover" end="zoomminus.mouseout"/></use>
    <path d="M-4,0h8" fill="none" stroke="white" stroke-width="1.5" pointer-events="none"/>
  </g>
  <g id="arrowUp" transform="translate(30 24)">
    <use xlink:href="#rim"/>
    <path pointer-events="none" fill="none" stroke="white" stroke-width="1.5" d="M0,-3.0v7 M-2.5,-0.5L0,-3.0L2.5,-0.5"/>
  </g>
  <g id="arrowRight" transform="rotate(90) translate(36 -43)">
    <use xlink:href="#rim"/>
    <path pointer-events="none" fill="none" stroke="white" stroke-width="1.5" d="M0,-3.0v7 M-2.5,-0.5L0,-3.0L2.5,-0.5"/>
  </g>
  <g id="arrowDown" transform="rotate(180) translate(-30 -48)">
    <use xlink:href="#rim"/>
    <path pointer-events="none" fill="none" stroke="white" stroke-width="1.5" d="M0,-3.0v7 M-2.5,-0.5L0,-3.0L2.5,-0.5"/>
  </g>
  <g id="arrowLeft" transform="rotate(270) translate(-36 17)">
    <use xlink:href="#rim"/>
    <path pointer-events="none" fill="none" stroke="white" stroke-width="1.5" d="M0,-3.0v7 M-2.5,-0.5L0,-3.0L2.5,-0.5"/>
  </g>
  <g id="resetDef">
    <use xlink:href="#rim2" fill="#404040"><set attributeName="fill" to="#808080" begin="reset.mouseover" end="reset.mouseout"/></use>
  </g>
</defs>
<script type="application/ecmascript">
var viewWidth = 476;
var viewHeight = 519;
var sectionId = 'dynsection-1';
</script>
<script type="application/ecmascript" xlink:href="svg.min.js"/>
<svg id="graph" class="graph">
<g id="viewport">
<title>ProxyProtocol::Header</title>
<!-- Node1 -->
<g id="Node000001" class="node">
<title>Node1</title>
<g id="a_Node000001"><a xlink:title="PROXY protocol v1 or v2 header.">
<polygon fill="#999999" stroke="#666666" points="200,-19 75,-19 75,0 200,0 200,-19"/>
<text text-anchor="middle" x="137.5" y="-7" font-family="Helvetica,sans-Serif" font-size="10.00">ProxyProtocol::Header</text>
</a>
</g>
</g>
<!-- Node2 -->
<g id="Node000002" class="node">
<title>Node2</title>
<g id="a_Node000002"><a xlink:title=" ">
<polygon fill="white" stroke="#666666" points="83,-434 0,-434 0,-415 83,-415 83,-434"/>
<text text-anchor="middle" x="41.5" y="-422" font-family="Helvetica,sans-Serif" font-size="10.00">RefCountable</text>
</a>
</g>
</g>
<!-- Node2&#45;&gt;Node1 -->
<g id="edge1_Node000001_Node000002" class="edge">
<title>Node2&#45;&gt;Node1</title>
<g id="a_edge1_Node000001_Node000002"><a xlink:title=" ">
<path fill="none" stroke="#63b8ff" d="M32.08,-405.83C25.35,-391.58 17.5,-370.8 17.5,-351.5 17.5,-351.5 17.5,-351.5 17.5,-85.5 17.5,-48.16 59.8,-28.72 94.18,-19.09"/>
<polygon fill="#63b8ff" stroke="#63b8ff" points="29.03,-407.57 36.64,-414.94 35.29,-404.43 29.03,-407.57"/>
</a>
</g>
</g>
<!-- Node10 -->
<g id="Node000010" class="node">
<title>Node10</title>
<g id="a_Node000010"><a xlink:href="classMemBlob.html" target="_top" xlink:title=" ">
<polygon fill="white" stroke="#666666" points="220,-360 157,-360 157,-341 220,-341 220,-360"/>
<text text-anchor="middle" x="188.5" y="-348" font-family="Helvetica,sans-Serif" font-size="10.00">MemBlob</text>
</a>
</g>
</g>
<!-- Node2&#45;&gt;Node10 -->
<g id="edge10_Node000010_Node000002" class="edge">
<title>Node2&#45;&gt;Node10</title>
<g id="a_edge10_Node000010_Node000002"><a xlink:title=" ">
<path fill="none" stroke="#63b8ff" d="M67.96,-410.54C97.83,-395.91 145.57,-372.53 171.08,-360.03"/>
<polygon fill="#63b8ff" stroke="#63b8ff" points="66.38,-407.42 58.94,-414.96 69.46,-413.7 66.38,-407.42"/>
</a>
</g>
</g>
<!-- Node3 -->
<g id="Node000003" class="node">
<title>Node3</title>
<g id="a_Node000003"><a xlink:href="classIp_1_1Address.html" target="_top" xlink:title=" ">
<polygon fill="white" stroke="#666666" points="117,-96 46,-96 46,-77 117,-77 117,-96"/>
<text text-anchor="middle" x="81.5" y="-84" font-family="Helvetica,sans-Serif" font-size="10.00">Ip::Address</text>
</a>
</g>
</g>
<!-- Node3&#45;&gt;Node1 -->
<g id="edge2_Node000001_Node000003" class="edge">
<title>Node3&#45;&gt;Node1</title>
<g id="a_edge2_Node000001_Node000003"><a xlink:title=" ">
<path fill="none" stroke="#9a32cd" stroke-dasharray="5,2" d="M77.47,-66.7C76.46,-57.1 76.94,-45.66 82.5,-37 87.77,-28.8 96.36,-23.07 105.2,-19.09"/>
<polygon fill="#9a32cd" stroke="#9a32cd" points="74.06,-67.54 79.14,-76.83 80.97,-66.4 74.06,-67.54"/>
</a>
</g>
<text text-anchor="middle" x="131" y="-51" font-family="Helvetica,sans-Serif" font-size="10.00" fill="grey"> destinationAddress</text>
<text text-anchor="middle" x="131" y="-40" font-family="Helvetica,sans-Serif" font-size="10.00" fill="grey">sourceAddress</text>
</g>
<!-- Node4 -->
<g id="Node000004" class="node">
<title>Node4</title>
<g id="a_Node000004"><a xlink:title=" ">
<polygon fill="white" stroke="#666666" points="353,-96 222,-96 222,-77 353,-77 353,-96"/>
<text text-anchor="middle" x="287.5" y="-84" font-family="Helvetica,sans-Serif" font-size="10.00">std::vector&lt; Two::Tlv &gt;</text>
</a>
</g>
</g>
<!-- Node4&#45;&gt;Node1 -->
<g id="edge3_Node000001_Node000004" class="edge">
<title>Node4&#45;&gt;Node1</title>
<g id="a_edge3_Node000001_Node000004"><a xlink:title=" ">
<path fill="none" stroke="#9a32cd" stroke-dasharray="5,2" d="M266.41,-71.25C250.61,-60.94 228.25,-47.11 207.5,-37 193.37,-30.11 176.95,-23.82 163.58,-19.09"/>
<polygon fill="#9a32cd" stroke="#9a32cd" points="264.61,-74.26 274.88,-76.85 268.47,-68.42 264.61,-74.26"/>
</a>
</g>
<text text-anchor="middle" x="256.5" y="-45.5" font-family="Helvetica,sans-Serif" font-size="10.00" fill="grey"> tlvs</text>
</g>
<!-- Node5 -->
<g id="Node000005" class="node">
<title>Node5</title>
<g id="a_Node000005"><a xlink:href="classProxyProtocol_1_1Two_1_1Tlv.html" target="_top" xlink:title="a single Type&#45;Length&#45;Value (TLV) block from PROXY protocol specs">
<polygon fill="white" stroke="#666666" points="351.5,-162 221.5,-162 221.5,-143 351.5,-143 351.5,-162"/>
<text text-anchor="middle" x="286.5" y="-150" font-family="Helvetica,sans-Serif" font-size="10.00">ProxyProtocol::Two::Tlv</text>
</a>
</g>
</g>
<!-- Node5&#45;&gt;Node4 -->
<g id="edge4_Node000004_Node000005" class="edge">
<title>Node5&#45;&gt;Node4</title>
<g id="a_edge4_Node000004_Node000005"><a xlink:title=" ">
<path fill="none" stroke="#9a32cd" stroke-dasharray="5,2" d="M286.8,-132.58C286.98,-120.63 287.22,-105.72 287.36,-96.41"/>
<polygon fill="#9a32cd" stroke="#9a32cd" points="283.29,-132.82 286.63,-142.87 290.29,-132.92 283.29,-132.82"/>
</a>
</g>
<text text-anchor="middle" x="311" y="-117" font-family="Helvetica,sans-Serif" font-size="10.00" fill="grey"> elements</text>
</g>
<!-- Node6 -->
<g id="Node000006" class="node">
<title>Node6</title>
<g id="a_Node000006"><a xlink:href="classSBuf.html" target="_top" xlink:title=" ">
<polygon fill="white" stroke="#666666" points="247,-228 208,-228 208,-209 247,-209 247,-228"/>
<text text-anchor="middle" x="227.5" y="-216" font-family="Helvetica,sans-Serif" font-size="10.00">SBuf</text>
</a>
</g>
</g>
<!-- Node6&#45;&gt;Node1 -->
<g id="edge17_Node000001_Node000006" class="edge">
<title>Node6&#45;&gt;Node1</title>
<g id="a_edge17_Node000001_Node000006"><a xlink:title=" ">
<path fill="none" stroke="#9a32cd" stroke-dasharray="5,2" d="M222.45,-198.92C219.53,-188.14 215.79,-174.31 212.5,-162 197.67,-106.49 213.49,-83.33 179.5,-37 173.89,-29.35 165.35,-23.39 157.43,-19.07"/>
<polygon fill="#9a32cd" stroke="#9a32cd" points="219.15,-200.12 225.15,-208.85 225.9,-198.28 219.15,-200.12"/>
</a>
</g>
<text text-anchor="middle" x="228" y="-117" font-family="Helvetica,sans-Serif" font-size="10.00" fill="grey"> version_</text>
</g>
<!-- Node6&#45;&gt;Node5 -->
<g id="edge5_Node000005_Node000006" class="edge">
<title>Node6&#45;&gt;Node5</title>
<g id="a_edge5_Node000005_Node000006"><a xlink:title=" ">
<path fill="none" stroke="#9a32cd" stroke-dasharray="5,2" d="M242.27,-201.48C253.66,-189.12 268.99,-172.49 278.29,-162.41"/>
<polygon fill="#9a32cd" stroke="#9a32cd" points="239.66,-199.14 235.46,-208.87 244.81,-203.89 239.66,-199.14"/>
</a>
</g>
<text text-anchor="middle" x="276" y="-183" font-family="Helvetica,sans-Serif" font-size="10.00" fill="grey"> value</text>
</g>
<!-- Node7 -->
<g id="Node000007" class="node">
<title>Node7</title>
<g id="a_Node000007"><a xlink:href="classInstanceId.html" target="_top" xlink:title=" ">
<polygon fill="white" stroke="#666666" points="342.5,-397 230.5,-397 230.5,-378 342.5,-378 342.5,-397"/>
<text text-anchor="middle" x="286.5" y="-385" font-family="Helvetica,sans-Serif" font-size="10.00">InstanceId&lt; SBuf &gt;</text>
</a>
</g>
</g>
<!-- Node7&#45;&gt;Node6 -->
<g id="edge6_Node000006_Node000007" class="edge">
<title>Node7&#45;&gt;Node6</title>
<g id="a_edge6_Node000006_Node000007"><a xlink:title=" ">
<path fill="none" stroke="#9a32cd" stroke-dasharray="5,2" d="M287.34,-367.45C287.69,-338.69 284.64,-283.55 259.5,-246 254.76,-238.93 247.6,-232.74 241.24,-228.13"/>
<polygon fill="#9a32cd" stroke="#9a32cd" points="283.84,-367.63 287.06,-377.72 290.83,-367.83 283.84,-367.63"/>
</a>
</g>
<text text-anchor="middle" x="291" y="-315" font-family="Helvetica,sans-Serif" font-size="10.00" fill="grey"> id</text>
</g>
<!-- Node8 -->
<g id="Node000008" class="node">
<title>Node8</title>
<g id="a_Node000008"><a xlink:href="classInstanceId.html" target="_top" xlink:title=" ">
<polygon fill="white" stroke="#666666" points="292,-511 185,-511 185,-481 292,-481 292,-511"/>
<text text-anchor="start" x="193" y="-499" font-family="Helvetica,sans-Serif" font-size="10.00">InstanceId&lt; Class,</text>
<text text-anchor="middle" x="238.5" y="-488" font-family="Helvetica,sans-Serif" font-size="10.00"> ValueType &gt;</text>
</a>
</g>
</g>
<!-- Node8&#45;&gt;Node7 -->
<g id="edge7_Node000007_Node000008" class="edge">
<title>Node8&#45;&gt;Node7</title>
<g id="a_edge7_Node000007_Node000008"><a xlink:title=" ">
<path fill="none" stroke="orange" stroke-dasharray="5,2" d="M258.27,-472.9C260.57,-469.71 262.73,-466.36 264.5,-463 276.19,-440.81 282.51,-411.53 285.09,-397.19"/>
<polygon fill="orange" stroke="orange" points="255.42,-470.87 251.98,-480.89 260.92,-475.19 255.42,-470.87"/>
</a>
</g>
<text text-anchor="middle" x="294" y="-455" font-family="Helvetica,sans-Serif" font-size="10.00" fill="grey"> &lt; SBuf &gt;</text>
</g>
<!-- Node11 -->
<g id="Node000011" class="node">
<title>Node11</title>
<g id="a_Node000011"><a xlink:href="classInstanceId.html" target="_top" xlink:title=" ">
<polygon fill="white" stroke="#666666" points="258.5,-434 122.5,-434 122.5,-415 258.5,-415 258.5,-434"/>
<text text-anchor="middle" x="190.5" y="-422" font-family="Helvetica,sans-Serif" font-size="10.00">InstanceId&lt; MemBlob &gt;</text>
</a>
</g>
</g>
<!-- Node8&#45;&gt;Node11 -->
<g id="edge12_Node000011_Node000008" class="edge">
<title>Node8&#45;&gt;Node11</title>
<g id="a_edge12_Node000011_Node000008"><a xlink:title=" ">
<path fill="none" stroke="orange" stroke-dasharray="5,2" d="M200.75,-474.57C197.08,-471.17 193.86,-467.32 191.5,-463 186.63,-454.08 187.32,-442.11 188.61,-434.11"/>
<polygon fill="orange" stroke="orange" points="198.74,-477.45 208.74,-480.93 203.09,-471.97 198.74,-477.45"/>
</a>
</g>
<text text-anchor="middle" x="228" y="-455" font-family="Helvetica,sans-Serif" font-size="10.00" fill="grey"> &lt; MemBlob &gt;</text>
</g>
<!-- Node9 -->
<g id="Node000009" class="node">
<title>Node9</title>
<g id="a_Node000009"><a xlink:href="classRefCount.html" target="_top" xlink:title=" ">
<polygon fill="white" stroke="#666666" points="177,-294 46,-294 46,-275 177,-275 177,-294"/>
<text text-anchor="middle" x="111.5" y="-282" font-family="Helvetica,sans-Serif" font-size="10.00">RefCount&lt; MemBlob &gt;</text>
</a>
</g>
</g>
<!-- Node9&#45;&gt;Node6 -->
<g id="edge8_Node000006_Node000009" class="edge">
<title>Node9&#45;&gt;Node6</title>
<g id="a_edge8_Node000006_Node000009"><a xlink:title=" ">
<path fill="none" stroke="#9a32cd" stroke-dasharray="5,2" d="M135.92,-270.03C158.77,-257.42 192.22,-238.97 211.73,-228.2"/>
<polygon fill="#9a32cd" stroke="#9a32cd" points="134.21,-266.97 127.14,-274.87 137.59,-273.1 134.21,-266.97"/>
</a>
</g>
<text text-anchor="middle" x="192.5" y="-249" font-family="Helvetica,sans-Serif" font-size="10.00" fill="grey"> store_</text>
</g>
<!-- Node10&#45;&gt;Node9 -->
<g id="edge9_Node000009_Node000010" class="edge">
<title>Node10&#45;&gt;Node9</title>
<g id="a_edge9_Node000009_Node000010"><a xlink:title=" ">
<path fill="none" stroke="#9a32cd" stroke-dasharray="5,2" d="M180.77,-331.58C177.18,-324.81 172.39,-317.43 166.5,-312 158.08,-304.24 146.98,-298.31 136.95,-294.05"/>
<polygon fill="#9a32cd" stroke="#9a32cd" points="177.69,-333.25 185.15,-340.77 184.01,-330.24 177.69,-333.25"/>
</a>
</g>
<text text-anchor="middle" x="183" y="-315" font-family="Helvetica,sans-Serif" font-size="10.00" fill="grey"> p_</text>
</g>
<!-- Node11&#45;&gt;Node10 -->
<g id="edge11_Node000010_Node000011" class="edge">
<title>Node11&#45;&gt;Node10</title>
<g id="a_edge11_Node000010_Node000011"><a xlink:title=" ">
<path fill="none" stroke="#9a32cd" stroke-dasharray="5,2" d="M189.98,-404.66C189.58,-390.21 189.04,-370.96 188.74,-360.03"/>
<polygon fill="#9a32cd" stroke="#9a32cd" points="186.49,-405.06 190.26,-414.96 193.48,-404.86 186.49,-405.06"/>
</a>
</g>
<text text-anchor="middle" x="196" y="-385" font-family="Helvetica,sans-Serif" font-size="10.00" fill="grey"> id</text>
</g>
<!-- Node12 -->
<g id="Node000012" class="node">
<title>Node12</title>
<g id="a_Node000012"><a xlink:href="classRefCount.html" target="_top" xlink:title=" ">
<polygon fill="white" stroke="#666666" points="138,-360 47,-360 47,-341 138,-341 138,-360"/>
<text text-anchor="middle" x="92.5" y="-348" font-family="Helvetica,sans-Serif" font-size="10.00">RefCount&lt; C &gt;</text>
</a>
</g>
</g>
<!-- Node12&#45;&gt;Node9 -->
<g id="edge13_Node000009_Node000012" class="edge">
<title>Node12&#45;&gt;Node9</title>
<g id="a_edge13_Node000009_Node000012"><a xlink:title=" ">
<path fill="none" stroke="orange" stroke-dasharray="5,2" d="M90.94,-330.89C90.96,-324.75 91.58,-317.97 93.5,-312 95.61,-305.44 99.9,-299.01 103.76,-294.14"/>
<polygon fill="orange" stroke="orange" points="87.44,-331.1 91.39,-340.93 94.44,-330.78 87.44,-331.1"/>
</a>
</g>
<text text-anchor="middle" x="130" y="-315" font-family="Helvetica,sans-Serif" font-size="10.00" fill="grey"> &lt; MemBlob &gt;</text>
</g>
<!-- Node13 -->
<g id="Node000013" class="node">
<title>Node13</title>
<g id="a_Node000013"><a xlink:href="classSBufStats.html" target="_top" xlink:title=" ">
<polygon fill="white" stroke="#666666" points="259.5,-294 195.5,-294 195.5,-275 259.5,-275 259.5,-294"/>
<text text-anchor="middle" x="227.5" y="-282" font-family="Helvetica,sans-Serif" font-size="10.00">SBufStats</text>
</a>
</g>
</g>
<!-- Node13&#45;&gt;Node6 -->
<g id="edge14_Node000006_Node000013" class="edge">
<title>Node13&#45;&gt;Node6</title>
<g id="a_edge14_Node000006_Node000013"><a xlink:title=" ">
<path fill="none" stroke="#9a32cd" stroke-dasharray="5,2" d="M227.5,-264.58C227.5,-252.63 227.5,-237.72 227.5,-228.41"/>
<polygon fill="#9a32cd" stroke="#9a32cd" points="224,-264.87 227.5,-274.87 231,-264.87 224,-264.87"/>
</a>
</g>
<text text-anchor="middle" x="241.5" y="-249" font-family="Helvetica,sans-Serif" font-size="10.00" fill="grey"> stats</text>
</g>
<!-- Node14 -->
<g id="Node000014" class="node">
<title>Node14</title>
<g id="a_Node000014"><a xlink:title=" ">
<polygon fill="white" stroke="#666666" points="467,-162 370,-162 370,-143 467,-143 467,-162"/>
<text text-anchor="middle" x="418.5" y="-150" font-family="Helvetica,sans-Serif" font-size="10.00">std::vector&lt; T &gt;</text>
</a>
</g>
</g>
<!-- Node14&#45;&gt;Node4 -->
<g id="edge15_Node000004_Node000014" class="edge">
<title>Node14&#45;&gt;Node4</title>
<g id="a_edge15_Node000004_Node000014"><a xlink:title=" ">
<path fill="none" stroke="orange" stroke-dasharray="5,2" d="M391.61,-138.36C365.8,-125.75 327.54,-107.06 305.31,-96.2"/>
<polygon fill="orange" stroke="orange" points="390.31,-141.62 400.83,-142.87 393.38,-135.33 390.31,-141.62"/>
</a>
</g>
<text text-anchor="middle" x="393.5" y="-117" font-family="Helvetica,sans-Serif" font-size="10.00" fill="grey"> &lt; Two::Tlv &gt;</text>
</g>
<!-- Node15 -->
<g id="Node000015" class="node">
<title>Node15</title>
<g id="a_Node000015"><a xlink:title=" ">
<polygon fill="white" stroke="#666666" points="433,-228 404,-228 404,-209 433,-209 433,-228"/>
<text text-anchor="middle" x="418.5" y="-216" font-family="Helvetica,sans-Serif" font-size="10.00">T</text>
</a>
</g>
</g>
<!-- Node15&#45;&gt;Node14 -->
<g id="edge16_Node000014_Node000015" class="edge">
<title>Node15&#45;&gt;Node14</title>
<g id="a_edge16_Node000014_Node000015"><a xlink:title=" ">
<path fill="none" stroke="#9a32cd" stroke-dasharray="5,2" d="M418.5,-198.58C418.5,-186.63 418.5,-171.72 418.5,-162.41"/>
<polygon fill="#9a32cd" stroke="#9a32cd" points="415,-198.87 418.5,-208.87 422,-198.87 415,-198.87"/>
</a>
</g>
<text text-anchor="middle" x="443" y="-183" font-family="Helvetica,sans-Serif" font-size="10.00" fill="grey"> elements</text>
</g>
</g>
</svg>

<g id="navigator" transform="translate(0 0)" fill="#404254">
  <rect fill="#f2f5e9" fill-opacity="0.5" stroke="#606060" stroke-width=".5" x="0" y="0" width="60" height="60"/>
  <use id="zoomplus" xlink:href="#zoomPlus" x="17" y="9" onmousedown="handleZoom(evt,'in')"/>
  <use id="zoomminus" xlink:href="#zoomMin" x="42" y="9" onmousedown="handleZoom(evt,'out')"/>
  <use id="reset" xlink:href="#resetDef" x="30" y="36" onmousedown="handleReset()"/>
   <use id="arrowup" xlink:href="#arrowUp" x="0" y="0" onmousedown="handlePan(0,-1)"/>
  <use id="arrowright" xlink:href="#arrowRight" x="0" y="0" onmousedown="handlePan(1,0)"/>
  <use id="arrowdown" xlink:href="#arrowDown" x="0" y="0" onmousedown="handlePan(0,1)"/>
  <use id="arrowleft" xlink:href="#arrowLeft" x="0" y="0" onmousedown="handlePan(-1,0)"/>
</g>
<svg viewBox="0 0 15 15" width="100%" height="30px" preserveAspectRatio="xMaxYMin meet">
 <g id="arrow_out" transform="scale(0.3 0.3)">
  <a xlink:href="classProxyProtocol_1_1Header__coll__graph_org.svg" target="_base">
   <rect id="button" ry="5" rx="5" y="6" x="6" height="38" width="38"
        fill="#f2f5e9" fill-opacity="0.5" stroke="#606060" stroke-width="1.0"/>
   <path id="arrow"
     d="M 11.500037,31.436501 C 11.940474,20.09759 22.043105,11.32322 32.158766,21.979434 L 37.068811,17.246167 C 37.068811,17.246167 37.088388,32 37.088388,32 L 22.160133,31.978069 C 22.160133,31.978069 26.997745,27.140456 26.997745,27.140456 C 18.528582,18.264221 13.291696,25.230495 11.500037,31.436501 z"
     style="fill:#404040;"/>
  </a>
 </g>
</svg>

<style type='text/css'>
<![CDATA[
[data-mouse-over-selected='false'] { opacity: 0.7; }
[data-mouse-over-selected='true']  { opacity: 1.0; }
]]>
</style>
<script type="application/ecmascript"><![CDATA[
document.addEventListener('DOMContentLoaded', (event) => {
  highlightEdges();
  highlightAdjacentNodes();
});
]]></script>
</svg>
