<?xml version="1.0" encoding="UTF-8" standalone="no"?>
<!DOCTYPE svg PUBLIC "-//W3C//DTD SVG 1.1//EN"
 "http://www.w3.org/Graphics/SVG/1.1/DTD/svg11.dtd">
<!-- Generated by graphviz version 2.43.0 (0)
 -->
<!-- Title: Acl::MethodCheck Pages: 1 -->
<svg width="535pt" height="575pt"
 viewBox="0.00 0.00 534.50 575.00" xmlns="http://www.w3.org/2000/svg" xmlns:xlink="http://www.w3.org/1999/xlink">
<g id="graph0" class="graph" transform="scale(1 1) rotate(0) translate(4 571)">
<title>Acl::MethodCheck</title>
<!-- Node1 -->
<g id="Node000001" class="node">
<title>Node1</title>
<g id="a_Node000001"><a xlink:title="a &quot;method&quot; ACL">
<polygon fill="#999999" stroke="#666666" points="312,-19 208,-19 208,0 312,0 312,-19"/>
<text text-anchor="middle" x="260" y="-7" font-family="Helvetica,sans-Serif" font-size="10.00">Acl::MethodCheck</text>
</a>
</g>
</g>
<!-- Node2 -->
<g id="Node000002" class="node">
<title>Node2</title>
<g id="a_Node000002"><a xlink:href="classAcl_1_1ParameterizedNode.html" target="_top" xlink:title=" ">
<polygon fill="white" stroke="#666666" points="360.5,-86 159.5,-86 159.5,-56 360.5,-56 360.5,-86"/>
<text text-anchor="start" x="167.5" y="-74" font-family="Helvetica,sans-Serif" font-size="10.00">Acl::ParameterizedNode</text>
<text text-anchor="middle" x="260" y="-63" font-family="Helvetica,sans-Serif" font-size="10.00">&lt; ACLData&lt; HttpRequestMethod &gt; &gt;</text>
</a>
</g>
</g>
<!-- Node2&#45;&gt;Node1 -->
<g id="edge1_Node000001_Node000002" class="edge">
<title>Node2&#45;&gt;Node1</title>
<g id="a_edge1_Node000001_Node000002"><a xlink:title=" ">
<path fill="none" stroke="#63b8ff" d="M260,-45.79C260,-36.36 260,-26.15 260,-19.16"/>
<polygon fill="#63b8ff" stroke="#63b8ff" points="256.5,-45.9 260,-55.9 263.5,-45.9 256.5,-45.9"/>
</a>
</g>
</g>
<!-- Node3 -->
<g id="Node000003" class="node">
<title>Node3</title>
<g id="a_Node000003"><a xlink:href="classAcl_1_1Node.html" target="_top" xlink:title=" ">
<polygon fill="white" stroke="#666666" points="321.5,-218 258.5,-218 258.5,-199 321.5,-199 321.5,-218"/>
<text text-anchor="middle" x="290" y="-206" font-family="Helvetica,sans-Serif" font-size="10.00">Acl::Node</text>
</a>
</g>
</g>
<!-- Node3&#45;&gt;Node2 -->
<g id="edge2_Node000002_Node000003" class="edge">
<title>Node3&#45;&gt;Node2</title>
<g id="a_edge2_Node000002_Node000003"><a xlink:title=" ">
<path fill="none" stroke="#63b8ff" d="M272.56,-191.6C262.69,-181.38 251.3,-167.21 246,-152 238.25,-129.76 246.57,-102.49 253.29,-86.22"/>
<polygon fill="#63b8ff" stroke="#63b8ff" points="270.41,-194.39 280,-198.89 275.31,-189.39 270.41,-194.39"/>
</a>
</g>
</g>
<!-- Node16 -->
<g id="Node000016" class="node">
<title>Node16</title>
<g id="a_Node000016"><a xlink:href="classAcl_1_1ParameterizedNode.html" target="_top" xlink:title=" ">
<polygon fill="white" stroke="#666666" points="417,-152 255,-152 255,-133 417,-133 417,-152"/>
<text text-anchor="middle" x="336" y="-140" font-family="Helvetica,sans-Serif" font-size="10.00">Acl::ParameterizedNode&lt; P &gt;</text>
</a>
</g>
</g>
<!-- Node3&#45;&gt;Node16 -->
<g id="edge18_Node000016_Node000003" class="edge">
<title>Node3&#45;&gt;Node16</title>
<g id="a_edge18_Node000016_Node000003"><a xlink:title=" ">
<path fill="none" stroke="#63b8ff" d="M302.28,-190.41C311.08,-178.18 322.56,-162.2 329.6,-152.41"/>
<polygon fill="#63b8ff" stroke="#63b8ff" points="299.2,-188.71 296.2,-198.87 304.88,-192.79 299.2,-188.71"/>
</a>
</g>
</g>
<!-- Node4 -->
<g id="Node000004" class="node">
<title>Node4</title>
<g id="a_Node000004"><a xlink:title=" ">
<polygon fill="white" stroke="#666666" points="361.5,-490 278.5,-490 278.5,-471 361.5,-471 361.5,-490"/>
<text text-anchor="middle" x="320" y="-478" font-family="Helvetica,sans-Serif" font-size="10.00">RefCountable</text>
</a>
</g>
</g>
<!-- Node4&#45;&gt;Node3 -->
<g id="edge3_Node000003_Node000004" class="edge">
<title>Node4&#45;&gt;Node3</title>
<g id="a_edge3_Node000003_Node000004"><a xlink:title=" ">
<path fill="none" stroke="#63b8ff" d="M321.23,-460.44C322.06,-445.93 323,-425.47 323,-407.5 323,-407.5 323,-407.5 323,-273.5 323,-251.75 307.75,-230 297.99,-218.3"/>
<polygon fill="#63b8ff" stroke="#63b8ff" points="317.72,-460.44 320.61,-470.64 324.71,-460.87 317.72,-460.44"/>
</a>
</g>
</g>
<!-- Node9 -->
<g id="Node000009" class="node">
<title>Node9</title>
<g id="a_Node000009"><a xlink:href="classMemBlob.html" target="_top" xlink:title=" ">
<polygon fill="white" stroke="#666666" points="277.5,-416 214.5,-416 214.5,-397 277.5,-397 277.5,-416"/>
<text text-anchor="middle" x="246" y="-404" font-family="Helvetica,sans-Serif" font-size="10.00">MemBlob</text>
</a>
</g>
</g>
<!-- Node4&#45;&gt;Node9 -->
<g id="edge9_Node000009_Node000004" class="edge">
<title>Node4&#45;&gt;Node9</title>
<g id="a_edge9_Node000009_Node000004"><a xlink:title=" ">
<path fill="none" stroke="#63b8ff" d="M303.64,-463.59C288.57,-448.92 266.78,-427.72 254.77,-416.03"/>
<polygon fill="#63b8ff" stroke="#63b8ff" points="301.61,-466.49 311.22,-470.96 306.49,-461.48 301.61,-466.49"/>
</a>
</g>
</g>
<!-- Node5 -->
<g id="Node000005" class="node">
<title>Node5</title>
<g id="a_Node000005"><a xlink:href="classSBuf.html" target="_top" xlink:title=" ">
<polygon fill="white" stroke="#666666" points="174.5,-284 135.5,-284 135.5,-265 174.5,-265 174.5,-284"/>
<text text-anchor="middle" x="155" y="-272" font-family="Helvetica,sans-Serif" font-size="10.00">SBuf</text>
</a>
</g>
</g>
<!-- Node5&#45;&gt;Node3 -->
<g id="edge4_Node000003_Node000005" class="edge">
<title>Node5&#45;&gt;Node3</title>
<g id="a_edge4_Node000003_Node000005"><a xlink:title=" ">
<path fill="none" stroke="#9a32cd" stroke-dasharray="5,2" d="M182.36,-260.53C208.97,-247.92 248.63,-229.11 271.65,-218.2"/>
<polygon fill="#9a32cd" stroke="#9a32cd" points="180.74,-257.42 173.21,-264.87 183.74,-263.75 180.74,-257.42"/>
</a>
</g>
<text text-anchor="middle" x="245.5" y="-239" font-family="Helvetica,sans-Serif" font-size="10.00" fill="grey"> name</text>
</g>
<!-- Node6 -->
<g id="Node000006" class="node">
<title>Node6</title>
<g id="a_Node000006"><a xlink:href="classInstanceId.html" target="_top" xlink:title=" ">
<polygon fill="white" stroke="#666666" points="112,-453 0,-453 0,-434 112,-434 112,-453"/>
<text text-anchor="middle" x="56" y="-441" font-family="Helvetica,sans-Serif" font-size="10.00">InstanceId&lt; SBuf &gt;</text>
</a>
</g>
</g>
<!-- Node6&#45;&gt;Node5 -->
<g id="edge5_Node000005_Node000006" class="edge">
<title>Node6&#45;&gt;Node5</title>
<g id="a_edge5_Node000005_Node000006"><a xlink:title=" ">
<path fill="none" stroke="#9a32cd" stroke-dasharray="5,2" d="M54.26,-423.86C53.01,-400.36 54,-359.58 72,-331 86.87,-307.38 115.87,-291.52 135.34,-283"/>
<polygon fill="#9a32cd" stroke="#9a32cd" points="50.78,-424.16 55,-433.88 57.76,-423.65 50.78,-424.16"/>
</a>
</g>
<text text-anchor="middle" x="64.5" y="-371" font-family="Helvetica,sans-Serif" font-size="10.00" fill="grey"> id</text>
</g>
<!-- Node7 -->
<g id="Node000007" class="node">
<title>Node7</title>
<g id="a_Node000007"><a xlink:href="classInstanceId.html" target="_top" xlink:title=" ">
<polygon fill="white" stroke="#666666" points="168.5,-567 61.5,-567 61.5,-537 168.5,-537 168.5,-567"/>
<text text-anchor="start" x="69.5" y="-555" font-family="Helvetica,sans-Serif" font-size="10.00">InstanceId&lt; Class,</text>
<text text-anchor="middle" x="115" y="-544" font-family="Helvetica,sans-Serif" font-size="10.00"> ValueType &gt;</text>
</a>
</g>
</g>
<!-- Node7&#45;&gt;Node6 -->
<g id="edge6_Node000006_Node000007" class="edge">
<title>Node7&#45;&gt;Node6</title>
<g id="a_edge6_Node000006_Node000007"><a xlink:title=" ">
<path fill="none" stroke="orange" stroke-dasharray="5,2" d="M101.18,-528C99.42,-524.98 97.65,-521.93 96,-519 82.71,-495.48 67.86,-467.28 60.56,-453.28"/>
<polygon fill="orange" stroke="orange" points="98.25,-529.92 106.36,-536.74 104.27,-526.35 98.25,-529.92"/>
</a>
</g>
<text text-anchor="middle" x="120.5" y="-511" font-family="Helvetica,sans-Serif" font-size="10.00" fill="grey"> &lt; SBuf &gt;</text>
</g>
<!-- Node10 -->
<g id="Node000010" class="node">
<title>Node10</title>
<g id="a_Node000010"><a xlink:href="classInstanceId.html" target="_top" xlink:title=" ">
<polygon fill="white" stroke="#666666" points="254,-490 118,-490 118,-471 254,-471 254,-490"/>
<text text-anchor="middle" x="186" y="-478" font-family="Helvetica,sans-Serif" font-size="10.00">InstanceId&lt; MemBlob &gt;</text>
</a>
</g>
</g>
<!-- Node7&#45;&gt;Node10 -->
<g id="edge11_Node000010_Node000007" class="edge">
<title>Node7&#45;&gt;Node10</title>
<g id="a_edge11_Node000010_Node000007"><a xlink:title=" ">
<path fill="none" stroke="orange" stroke-dasharray="5,2" d="M136.51,-529.94C150.09,-516.65 166.92,-500.17 177.04,-490.27"/>
<polygon fill="orange" stroke="orange" points="134.07,-527.44 129.37,-536.94 138.96,-532.44 134.07,-527.44"/>
</a>
</g>
<text text-anchor="middle" x="192.5" y="-511" font-family="Helvetica,sans-Serif" font-size="10.00" fill="grey"> &lt; MemBlob &gt;</text>
</g>
<!-- Node8 -->
<g id="Node000008" class="node">
<title>Node8</title>
<g id="a_Node000008"><a xlink:href="classRefCount.html" target="_top" xlink:title=" ">
<polygon fill="white" stroke="#666666" points="294.5,-350 163.5,-350 163.5,-331 294.5,-331 294.5,-350"/>
<text text-anchor="middle" x="229" y="-338" font-family="Helvetica,sans-Serif" font-size="10.00">RefCount&lt; MemBlob &gt;</text>
</a>
</g>
</g>
<!-- Node8&#45;&gt;Node5 -->
<g id="edge7_Node000005_Node000008" class="edge">
<title>Node8&#45;&gt;Node5</title>
<g id="a_edge7_Node000005_Node000008"><a xlink:title=" ">
<path fill="none" stroke="#9a32cd" stroke-dasharray="5,2" d="M211.29,-324.18C196.92,-311.76 177.18,-294.68 165.3,-284.41"/>
<polygon fill="#9a32cd" stroke="#9a32cd" points="209.17,-326.97 219.02,-330.87 213.75,-321.68 209.17,-326.97"/>
</a>
</g>
<text text-anchor="middle" x="213" y="-305" font-family="Helvetica,sans-Serif" font-size="10.00" fill="grey"> store_</text>
</g>
<!-- Node9&#45;&gt;Node8 -->
<g id="edge8_Node000008_Node000009" class="edge">
<title>Node9&#45;&gt;Node8</title>
<g id="a_edge8_Node000008_Node000009"><a xlink:title=" ">
<path fill="none" stroke="#9a32cd" stroke-dasharray="5,2" d="M241.07,-386.95C237.88,-374.93 233.87,-359.82 231.37,-350.41"/>
<polygon fill="#9a32cd" stroke="#9a32cd" points="237.76,-388.1 243.71,-396.87 244.52,-386.31 237.76,-388.1"/>
</a>
</g>
<text text-anchor="middle" x="245.5" y="-371" font-family="Helvetica,sans-Serif" font-size="10.00" fill="grey"> p_</text>
</g>
<!-- Node10&#45;&gt;Node9 -->
<g id="edge10_Node000009_Node000010" class="edge">
<title>Node10&#45;&gt;Node9</title>
<g id="a_edge10_Node000009_Node000010"><a xlink:title=" ">
<path fill="none" stroke="#9a32cd" stroke-dasharray="5,2" d="M199.6,-463.18C211.81,-448.53 229.24,-427.61 238.89,-416.03"/>
<polygon fill="#9a32cd" stroke="#9a32cd" points="196.83,-461.04 193.12,-470.96 202.21,-465.52 196.83,-461.04"/>
</a>
</g>
<text text-anchor="middle" x="229.5" y="-441" font-family="Helvetica,sans-Serif" font-size="10.00" fill="grey"> id</text>
</g>
<!-- Node11 -->
<g id="Node000011" class="node">
<title>Node11</title>
<g id="a_Node000011"><a xlink:href="classRefCount.html" target="_top" xlink:title=" ">
<polygon fill="white" stroke="#666666" points="195.5,-416 104.5,-416 104.5,-397 195.5,-397 195.5,-416"/>
<text text-anchor="middle" x="150" y="-404" font-family="Helvetica,sans-Serif" font-size="10.00">RefCount&lt; C &gt;</text>
</a>
</g>
</g>
<!-- Node11&#45;&gt;Node8 -->
<g id="edge12_Node000008_Node000011" class="edge">
<title>Node11&#45;&gt;Node8</title>
<g id="a_edge12_Node000008_Node000011"><a xlink:title=" ">
<path fill="none" stroke="orange" stroke-dasharray="5,2" d="M150.98,-386.53C152.18,-380.01 154.52,-373.08 159,-368 166.3,-359.71 176.47,-354.01 186.8,-350.08"/>
<polygon fill="orange" stroke="orange" points="147.47,-386.39 149.87,-396.71 154.43,-387.15 147.47,-386.39"/>
</a>
</g>
<text text-anchor="middle" x="195.5" y="-371" font-family="Helvetica,sans-Serif" font-size="10.00" fill="grey"> &lt; MemBlob &gt;</text>
</g>
<!-- Node12 -->
<g id="Node000012" class="node">
<title>Node12</title>
<g id="a_Node000012"><a xlink:href="classSBufStats.html" target="_top" xlink:title=" ">
<polygon fill="white" stroke="#666666" points="145,-350 81,-350 81,-331 145,-331 145,-350"/>
<text text-anchor="middle" x="113" y="-338" font-family="Helvetica,sans-Serif" font-size="10.00">SBufStats</text>
</a>
</g>
</g>
<!-- Node12&#45;&gt;Node5 -->
<g id="edge13_Node000005_Node000012" class="edge">
<title>Node12&#45;&gt;Node5</title>
<g id="a_edge13_Node000005_Node000012"><a xlink:title=" ">
<path fill="none" stroke="#9a32cd" stroke-dasharray="5,2" d="M124.22,-322.41C132.24,-310.18 142.73,-294.2 149.16,-284.41"/>
<polygon fill="#9a32cd" stroke="#9a32cd" points="121.22,-320.59 118.66,-330.87 127.08,-324.43 121.22,-320.59"/>
</a>
</g>
<text text-anchor="middle" x="151" y="-305" font-family="Helvetica,sans-Serif" font-size="10.00" fill="grey"> stats</text>
</g>
<!-- Node13 -->
<g id="Node000013" class="node">
<title>Node13</title>
<g id="a_Node000013"><a xlink:title=" ">
<polygon fill="white" stroke="#666666" points="526.5,-218 359.5,-218 359.5,-199 526.5,-199 526.5,-218"/>
<text text-anchor="middle" x="443" y="-206" font-family="Helvetica,sans-Serif" font-size="10.00">std::unique_ptr&lt; Parameters &gt;</text>
</a>
</g>
</g>
<!-- Node13&#45;&gt;Node2 -->
<g id="edge14_Node000002_Node000013" class="edge">
<title>Node13&#45;&gt;Node2</title>
<g id="a_edge14_Node000002_Node000013"><a xlink:title=" ">
<path fill="none" stroke="#9a32cd" stroke-dasharray="5,2" d="M450.87,-189.28C459.33,-166.53 469.06,-127.74 449,-104 436.97,-89.76 399.29,-81.86 360.71,-77.47"/>
<polygon fill="#9a32cd" stroke="#9a32cd" points="447.54,-188.17 447.07,-198.76 454.04,-190.78 447.54,-188.17"/>
</a>
</g>
<text text-anchor="middle" x="472.5" y="-140" font-family="Helvetica,sans-Serif" font-size="10.00" fill="grey"> data</text>
</g>
<!-- Node13&#45;&gt;Node16 -->
<g id="edge19_Node000016_Node000013" class="edge">
<title>Node13&#45;&gt;Node16</title>
<g id="a_edge19_Node000016_Node000013"><a xlink:title=" ">
<path fill="none" stroke="#9a32cd" stroke-dasharray="5,2" d="M419.91,-193.69C398.85,-181.09 368.39,-162.87 350.54,-152.2"/>
<polygon fill="#9a32cd" stroke="#9a32cd" points="418.19,-196.74 428.57,-198.87 421.78,-190.73 418.19,-196.74"/>
</a>
</g>
<text text-anchor="middle" x="407.5" y="-173" font-family="Helvetica,sans-Serif" font-size="10.00" fill="grey"> data</text>
</g>
<!-- Node14 -->
<g id="Node000014" class="node">
<title>Node14</title>
<g id="a_Node000014"><a xlink:title=" ">
<polygon fill="white" stroke="#666666" points="502,-284 384,-284 384,-265 502,-265 502,-284"/>
<text text-anchor="middle" x="443" y="-272" font-family="Helvetica,sans-Serif" font-size="10.00">std::unique_ptr&lt; T &gt;</text>
</a>
</g>
</g>
<!-- Node14&#45;&gt;Node13 -->
<g id="edge15_Node000013_Node000014" class="edge">
<title>Node14&#45;&gt;Node13</title>
<g id="a_edge15_Node000013_Node000014"><a xlink:title=" ">
<path fill="none" stroke="orange" stroke-dasharray="5,2" d="M443,-254.58C443,-242.63 443,-227.72 443,-218.41"/>
<polygon fill="orange" stroke="orange" points="439.5,-254.87 443,-264.87 446.5,-254.87 439.5,-254.87"/>
</a>
</g>
<text text-anchor="middle" x="484" y="-239" font-family="Helvetica,sans-Serif" font-size="10.00" fill="grey"> &lt; Parameters &gt;</text>
</g>
<!-- Node15 -->
<g id="Node000015" class="node">
<title>Node15</title>
<g id="a_Node000015"><a xlink:title=" ">
<polygon fill="white" stroke="#666666" points="457.5,-350 428.5,-350 428.5,-331 457.5,-331 457.5,-350"/>
<text text-anchor="middle" x="443" y="-338" font-family="Helvetica,sans-Serif" font-size="10.00">T</text>
</a>
</g>
</g>
<!-- Node15&#45;&gt;Node14 -->
<g id="edge16_Node000014_Node000015" class="edge">
<title>Node15&#45;&gt;Node14</title>
<g id="a_edge16_Node000014_Node000015"><a xlink:title=" ">
<path fill="none" stroke="#9a32cd" stroke-dasharray="5,2" d="M443,-320.58C443,-308.63 443,-293.72 443,-284.41"/>
<polygon fill="#9a32cd" stroke="#9a32cd" points="439.5,-320.87 443,-330.87 446.5,-320.87 439.5,-320.87"/>
</a>
</g>
<text text-anchor="middle" x="451.5" y="-305" font-family="Helvetica,sans-Serif" font-size="10.00" fill="grey"> ptr</text>
</g>
<!-- Node16&#45;&gt;Node2 -->
<g id="edge17_Node000002_Node000016" class="edge">
<title>Node16&#45;&gt;Node2</title>
<g id="a_edge17_Node000002_Node000016"><a xlink:title=" ">
<path fill="none" stroke="orange" stroke-dasharray="5,2" d="M276.24,-128.44C270.32,-124.96 265.03,-120.56 261,-115 255.04,-106.78 255.13,-95.16 256.52,-86.07"/>
<polygon fill="orange" stroke="orange" points="274.76,-131.61 285.27,-132.91 277.86,-125.34 274.76,-131.61"/>
</a>
</g>
<text text-anchor="middle" x="355" y="-107" font-family="Helvetica,sans-Serif" font-size="10.00" fill="grey"> &lt; ACLData&lt; HttpRequestMethod &gt; &gt;</text>
</g>
</g>
</svg>
