<?xml version="1.0" encoding="UTF-8" standalone="no"?>
<!DOCTYPE svg PUBLIC "-//W3C//DTD SVG 1.1//EN"
 "http://www.w3.org/Graphics/SVG/1.1/DTD/svg11.dtd">
<!-- Generated by graphviz version 2.43.0 (0)
 -->
<!-- Title: UnaryJobCallbackDialer&lt; Job, Argument1 &gt; Pages: 1 -->
<svg width="381pt" height="294pt"
 viewBox="0.00 0.00 381.00 294.00" xmlns="http://www.w3.org/2000/svg" xmlns:xlink="http://www.w3.org/1999/xlink">

<svg id="main" version="1.1" xmlns="http://www.w3.org/2000/svg" xmlns:xlink="http://www.w3.org/1999/xlink" xml:space="preserve" onload="init(evt)">
<style type="text/css"><![CDATA[
.node, .edge {opacity: 0.7;}
.node.selected, .edge.selected {opacity: 1;}
.edge:hover path { stroke: red; }
.edge:hover polygon { stroke: red; fill: red; }
]]></style>
<script type="application/ecmascript" xlink:href="svg.min.js"/>
<svg id="graph" class="graph">
<g id="graph0" class="graph" transform="scale(1 1) rotate(0) translate(4 290)">
<title>UnaryJobCallbackDialer&lt; Job, Argument1 &gt;</title>
<!-- Node1 -->
<g id="Node000001" class="node">
<title>Node1</title>
<g id="a_Node000001"><a xlink:title=" ">
<polygon fill="#999999" stroke="#666666" points="255,-30 123,-30 123,0 255,0 255,-30"/>
<text text-anchor="start" x="131" y="-18" font-family="Helvetica,sans-Serif" font-size="10.00">UnaryJobCallbackDialer</text>
<text text-anchor="middle" x="189" y="-7" font-family="Helvetica,sans-Serif" font-size="10.00">&lt; Job, Argument1 &gt;</text>
</a>
</g>
</g>
<!-- Node2 -->
<g id="Node000002" class="node">
<title>Node2</title>
<g id="a_Node000002"><a xlink:href="classUnaryMemFunT.html" target="_top" xlink:title=" ">
<polygon fill="white" stroke="#666666" points="181.5,-97 26.5,-97 26.5,-67 181.5,-67 181.5,-97"/>
<text text-anchor="start" x="34.5" y="-85" font-family="Helvetica,sans-Serif" font-size="10.00">UnaryMemFunT&lt; Job,</text>
<text text-anchor="middle" x="104" y="-74" font-family="Helvetica,sans-Serif" font-size="10.00"> Argument1, Argument1 &amp; &gt;</text>
</a>
</g>
</g>
<!-- Node2&#45;&gt;Node1 -->
<g id="edge1_Node000001_Node000002" class="edge">
<title>Node2&#45;&gt;Node1</title>
<g id="a_edge1_Node000001_Node000002"><a xlink:title=" ">
<path fill="none" stroke="#63b8ff" d="M130.59,-60.67C143.59,-50.73 158.9,-39.01 170.59,-30.08"/>
<polygon fill="#63b8ff" stroke="#63b8ff" points="128.26,-58.04 122.44,-66.9 132.51,-63.6 128.26,-58.04"/>
</a>
</g>
</g>
<!-- Node3 -->
<g id="Node000003" class="node">
<title>Node3</title>
<g id="a_Node000003"><a xlink:href="classJobDialer.html" target="_top" xlink:title=" ">
<polygon fill="white" stroke="#666666" points="98,-230 0,-230 0,-211 98,-211 98,-230"/>
<text text-anchor="middle" x="49" y="-218" font-family="Helvetica,sans-Serif" font-size="10.00">JobDialer&lt; Job &gt;</text>
</a>
</g>
</g>
<!-- Node3&#45;&gt;Node2 -->
<g id="edge2_Node000002_Node000003" class="edge">
<title>Node3&#45;&gt;Node2</title>
<g id="a_edge2_Node000002_Node000003"><a xlink:title=" ">
<path fill="none" stroke="#63b8ff" d="M47.84,-200.72C47.54,-185.01 48.7,-162.3 56,-144 63.19,-125.98 77.48,-108.93 88.61,-97.46"/>
<polygon fill="#63b8ff" stroke="#63b8ff" points="44.35,-200.9 48.25,-210.75 51.34,-200.62 44.35,-200.9"/>
</a>
</g>
</g>
<!-- Node5 -->
<g id="Node000005" class="node">
<title>Node5</title>
<g id="a_Node000005"><a xlink:href="classUnaryMemFunT.html" target="_top" xlink:title=" ">
<polygon fill="white" stroke="#666666" points="188.5,-174 65.5,-174 65.5,-144 188.5,-144 188.5,-174"/>
<text text-anchor="start" x="73.5" y="-162" font-family="Helvetica,sans-Serif" font-size="10.00">UnaryMemFunT&lt; Job,</text>
<text text-anchor="middle" x="127" y="-151" font-family="Helvetica,sans-Serif" font-size="10.00"> Data, Argument1 &gt;</text>
</a>
</g>
</g>
<!-- Node3&#45;&gt;Node5 -->
<g id="edge5_Node000005_Node000003" class="edge">
<title>Node3&#45;&gt;Node5</title>
<g id="a_edge5_Node000005_Node000003"><a xlink:title=" ">
<path fill="none" stroke="#63b8ff" d="M68.41,-204.7C80.71,-195.31 96.52,-183.25 108.62,-174.02"/>
<polygon fill="#63b8ff" stroke="#63b8ff" points="66,-202.13 60.18,-210.98 70.25,-207.69 66,-202.13"/>
</a>
</g>
</g>
<!-- Node4 -->
<g id="Node000004" class="node">
<title>Node4</title>
<g id="a_Node000004"><a xlink:href="classCallDialer.html" target="_top" xlink:title=" ">
<polygon fill="white" stroke="#666666" points="81.5,-286 16.5,-286 16.5,-267 81.5,-267 81.5,-286"/>
<text text-anchor="middle" x="49" y="-274" font-family="Helvetica,sans-Serif" font-size="10.00">CallDialer</text>
</a>
</g>
</g>
<!-- Node4&#45;&gt;Node3 -->
<g id="edge3_Node000003_Node000004" class="edge">
<title>Node4&#45;&gt;Node3</title>
<g id="a_edge3_Node000003_Node000004"><a xlink:title=" ">
<path fill="none" stroke="#63b8ff" d="M49,-256.3C49,-247.41 49,-237.28 49,-230.25"/>
<polygon fill="#63b8ff" stroke="#63b8ff" points="45.5,-256.58 49,-266.58 52.5,-256.58 45.5,-256.58"/>
</a>
</g>
</g>
<!-- Node5&#45;&gt;Node2 -->
<g id="edge4_Node000002_Node000005" class="edge">
<title>Node5&#45;&gt;Node2</title>
<g id="a_edge4_Node000002_Node000005"><a xlink:title=" ">
<path fill="none" stroke="orange" stroke-dasharray="5,2" d="M118.62,-134.13C117.71,-131.4 116.82,-128.64 116,-126 113.01,-116.38 109.96,-105.44 107.68,-97"/>
<polygon fill="orange" stroke="orange" points="115.35,-135.39 121.89,-143.72 121.98,-133.13 115.35,-135.39"/>
</a>
</g>
<text text-anchor="middle" x="202" y="-118" font-family="Helvetica,sans-Serif" font-size="10.00" fill="grey"> &lt; Job, Argument1, Argument1 &amp; &gt;</text>
</g>
<!-- Node6 -->
<g id="Node000006" class="node">
<title>Node6</title>
<g id="a_Node000006"><a xlink:href="classWithAnswer.html" target="_top" xlink:title=" ">
<polygon fill="white" stroke="#666666" points="363,-91.5 211,-91.5 211,-72.5 363,-72.5 363,-91.5"/>
<text text-anchor="middle" x="287" y="-79.5" font-family="Helvetica,sans-Serif" font-size="10.00">WithAnswer&lt; Argument1 &gt;</text>
</a>
</g>
</g>
<!-- Node6&#45;&gt;Node1 -->
<g id="edge6_Node000001_Node000006" class="edge">
<title>Node6&#45;&gt;Node1</title>
<g id="a_edge6_Node000001_Node000006"><a xlink:title=" ">
<path fill="none" stroke="#63b8ff" d="M265.37,-66.65C248.97,-55.77 226.55,-40.9 210.24,-30.09"/>
<polygon fill="#63b8ff" stroke="#63b8ff" points="263.52,-69.62 273.78,-72.23 267.38,-63.79 263.52,-69.62"/>
</a>
</g>
</g>
<!-- Node7 -->
<g id="Node000007" class="node">
<title>Node7</title>
<g id="a_Node000007"><a xlink:href="classWithAnswer.html" target="_top" xlink:title="access to a callback result carried by an asynchronous CallDialer">
<polygon fill="white" stroke="#666666" points="369,-168.5 229,-168.5 229,-149.5 369,-149.5 369,-168.5"/>
<text text-anchor="middle" x="299" y="-156.5" font-family="Helvetica,sans-Serif" font-size="10.00">WithAnswer&lt; AnswerT &gt;</text>
</a>
</g>
</g>
<!-- Node7&#45;&gt;Node6 -->
<g id="edge7_Node000006_Node000007" class="edge">
<title>Node7&#45;&gt;Node6</title>
<g id="a_edge7_Node000006_Node000007"><a xlink:title=" ">
<path fill="none" stroke="orange" stroke-dasharray="5,2" d="M296.04,-139.47C293.58,-124.15 290.21,-103.09 288.36,-91.5"/>
<polygon fill="orange" stroke="orange" points="292.59,-140.08 297.62,-149.4 299.5,-138.97 292.59,-140.08"/>
</a>
</g>
<text text-anchor="middle" x="333" y="-118" font-family="Helvetica,sans-Serif" font-size="10.00" fill="grey"> &lt; Argument1 &gt;</text>
</g>
</g>
</svg>
</svg>

<style type='text/css'>
<![CDATA[
[data-mouse-over-selected='false'] { opacity: 0.7; }
[data-mouse-over-selected='true']  { opacity: 1.0; }
]]>
</style>
<script type="application/ecmascript"><![CDATA[
document.addEventListener('DOMContentLoaded', (event) => {
  highlightEdges();
  highlightAdjacentNodes();
});
]]></script>
</svg>
