<?xml version="1.0" encoding="UTF-8" standalone="no"?>
<!DOCTYPE svg PUBLIC "-//W3C//DTD SVG 1.1//EN"
 "http://www.w3.org/Graphics/SVG/1.1/DTD/svg11.dtd">
<!-- Generated by graphviz version 2.43.0 (0)
 -->
<!-- Title: fde Pages: 1 -->
<!--zoomable 629 -->

<svg id="main" version="1.1" xmlns="http://www.w3.org/2000/svg" xmlns:xlink="http://www.w3.org/1999/xlink" xml:space="preserve" onload="init(evt)">
<style type="text/css"><![CDATA[
.node, .edge {opacity: 0.7;}
.node.selected, .edge.selected {opacity: 1;}
.edge:hover path { stroke: red; }
.edge:hover polygon { stroke: red; fill: red; }
]]></style>

<defs>
  <circle id="rim" cx="0" cy="0" r="7"/>
  <circle id="rim2" cx="0" cy="0" r="3.5"/>
  <g id="zoomPlus">
    <use xlink:href="#rim" fill="#404040"><set attributeName="fill" to="#808080" begin="zoomplus.mouseover" end="zoomplus.mouseout"/></use>
    <path d="M-4,0h8M0,-4v8" fill="none" stroke="white" stroke-width="1.5" pointer-events="none"/>
  </g>
  <g id="zoomMin">
    <use xlink:href="#rim" fill="#404040"><set attributeName="fill" to="#808080" begin="zoomminus.mouseover" end="zoomminus.mouseout"/></use>
    <path d="M-4,0h8" fill="none" stroke="white" stroke-width="1.5" pointer-events="none"/>
  </g>
  <g id="arrowUp" transform="translate(30 24)">
    <use xlink:href="#rim"/>
    <path pointer-events="none" fill="none" stroke="white" stroke-width="1.5" d="M0,-3.0v7 M-2.5,-0.5L0,-3.0L2.5,-0.5"/>
  </g>
  <g id="arrowRight" transform="rotate(90) translate(36 -43)">
    <use xlink:href="#rim"/>
    <path pointer-events="none" fill="none" stroke="white" stroke-width="1.5" d="M0,-3.0v7 M-2.5,-0.5L0,-3.0L2.5,-0.5"/>
  </g>
  <g id="arrowDown" transform="rotate(180) translate(-30 -48)">
    <use xlink:href="#rim"/>
    <path pointer-events="none" fill="none" stroke="white" stroke-width="1.5" d="M0,-3.0v7 M-2.5,-0.5L0,-3.0L2.5,-0.5"/>
  </g>
  <g id="arrowLeft" transform="rotate(270) translate(-36 17)">
    <use xlink:href="#rim"/>
    <path pointer-events="none" fill="none" stroke="white" stroke-width="1.5" d="M0,-3.0v7 M-2.5,-0.5L0,-3.0L2.5,-0.5"/>
  </g>
  <g id="resetDef">
    <use xlink:href="#rim2" fill="#404040"><set attributeName="fill" to="#808080" begin="reset.mouseover" end="reset.mouseout"/></use>
  </g>
</defs>
<script type="application/ecmascript">
var viewWidth = 2302;
var viewHeight = 629;
var sectionId = 'dynsection-0';
</script>
<script type="application/ecmascript" xlink:href="svg.min.js"/>
<svg id="graph" class="graph">
<g id="viewport">
<title>fde</title>
<!-- Node1 -->
<g id="Node000001" class="node">
<title>Node1</title>
<g id="a_Node000001"><a xlink:title=" ">
<polygon fill="#999999" stroke="#666666" points="2255,-263 2223,-263 2223,-244 2255,-244 2255,-263"/>
<text text-anchor="middle" x="2239" y="-251" font-family="Helvetica,sans-Serif" font-size="10.00">fde</text>
</a>
</g>
</g>
<!-- Node1&#45;&gt;Node1 -->
<g id="edge1_Node000001_Node000001" class="edge">
<title>Node1&#45;&gt;Node1</title>
<g id="a_edge1_Node000001_Node000001"><a xlink:title=" ">
<path fill="none" stroke="#9a32cd" stroke-dasharray="5,2" d="M2216.41,-268.73C2214.52,-275.33 2222.04,-281 2239,-281 2262.59,-281 2267.93,-270.03 2255.03,-260.82"/>
<polygon fill="#9a32cd" stroke="#9a32cd" points="2219.28,-270.75 2222.97,-260.82 2213.89,-266.29 2219.28,-270.75"/>
</a>
</g>
<text text-anchor="middle" x="2239" y="-284" font-family="Helvetica,sans-Serif" font-size="10.00" fill="grey"> Table</text>
</g>
<!-- Node2 -->
<g id="Node000002" class="node">
<title>Node2</title>
<g id="a_Node000002"><a xlink:href="classIp_1_1Address.html" target="_top" xlink:title=" ">
<polygon fill="white" stroke="#666666" points="1761.5,-403 1690.5,-403 1690.5,-384 1761.5,-384 1761.5,-403"/>
<text text-anchor="middle" x="1726" y="-391" font-family="Helvetica,sans-Serif" font-size="10.00">Ip::Address</text>
</a>
</g>
</g>
<!-- Node2&#45;&gt;Node1 -->
<g id="edge2_Node000001_Node000002" class="edge">
<title>Node2&#45;&gt;Node1</title>
<g id="a_edge2_Node000001_Node000002"><a xlink:title=" ">
<path fill="none" stroke="#9a32cd" stroke-dasharray="5,2" d="M1771.89,-391.73C1869.69,-387.24 2098.61,-373.03 2166,-336.5 2198.2,-319.05 2222.6,-281.09 2232.79,-263.2"/>
<polygon fill="#9a32cd" stroke="#9a32cd" points="1771.57,-388.24 1761.74,-392.19 1771.88,-395.24 1771.57,-388.24"/>
</a>
</g>
<text text-anchor="middle" x="1969.5" y="-386.5" font-family="Helvetica,sans-Serif" font-size="10.00" fill="grey"> local_addr</text>
</g>
<!-- Node4 -->
<g id="Node000004" class="node">
<title>Node4</title>
<g id="a_Node000004"><a xlink:href="classClientInfo.html" target="_top" xlink:title=" ">
<polygon fill="white" stroke="#666666" points="2001.5,-481 1937.5,-481 1937.5,-462 2001.5,-462 2001.5,-481"/>
<text text-anchor="middle" x="1969.5" y="-469" font-family="Helvetica,sans-Serif" font-size="10.00">ClientInfo</text>
</a>
</g>
</g>
<!-- Node2&#45;&gt;Node4 -->
<g id="edge8_Node000004_Node000002" class="edge">
<title>Node2&#45;&gt;Node4</title>
<g id="a_edge8_Node000004_Node000002"><a xlink:title=" ">
<path fill="none" stroke="#9a32cd" stroke-dasharray="5,2" d="M1771.88,-395.15C1800.85,-397.32 1838.97,-402.27 1871,-413.5 1904.08,-425.1 1938.3,-448.61 1956.08,-461.86"/>
<polygon fill="#9a32cd" stroke="#9a32cd" points="1771.86,-391.64 1761.65,-394.47 1771.4,-398.62 1771.86,-391.64"/>
</a>
</g>
<text text-anchor="middle" x="1837" y="-416.5" font-family="Helvetica,sans-Serif" font-size="10.00" fill="grey"> addr</text>
</g>
<!-- Node3 -->
<g id="Node000003" class="node">
<title>Node3</title>
<g id="a_Node000003"><a xlink:href="structfde_1_1__fde__flags.html" target="_top" xlink:title=" ">
<polygon fill="white" stroke="#666666" points="2013.5,-343 1925.5,-343 1925.5,-324 2013.5,-324 2013.5,-343"/>
<text text-anchor="middle" x="1969.5" y="-331" font-family="Helvetica,sans-Serif" font-size="10.00">fde::_fde_flags</text>
</a>
</g>
</g>
<!-- Node3&#45;&gt;Node1 -->
<g id="edge3_Node000001_Node000003" class="edge">
<title>Node3&#45;&gt;Node1</title>
<g id="a_edge3_Node000001_Node000003"><a xlink:title=" ">
<path fill="none" stroke="#9a32cd" stroke-dasharray="5,2" d="M2023.78,-329C2063.91,-324.36 2119.74,-315.19 2166,-297.5 2188.44,-288.92 2211.68,-273.27 2225.48,-263.14"/>
<polygon fill="#9a32cd" stroke="#9a32cd" points="2023.23,-325.54 2013.67,-330.12 2023.99,-332.5 2023.23,-325.54"/>
</a>
</g>
<text text-anchor="middle" x="2117" y="-324.5" font-family="Helvetica,sans-Serif" font-size="10.00" fill="grey"> flags</text>
</g>
<!-- Node4&#45;&gt;Node1 -->
<g id="edge4_Node000001_Node000004" class="edge">
<title>Node4&#45;&gt;Node1</title>
<g id="a_edge4_Node000001_Node000004"><a xlink:title=" ">
<path fill="none" stroke="#9a32cd" stroke-dasharray="5,2" d="M2011.39,-464.03C2054.39,-454.33 2121.81,-433.66 2166,-393.5 2207.66,-355.63 2228.9,-288.05 2235.6,-263.1"/>
<polygon fill="#9a32cd" stroke="#9a32cd" points="2010.58,-460.62 2001.54,-466.16 2012.06,-467.47 2010.58,-460.62"/>
</a>
</g>
<text text-anchor="middle" x="2117" y="-448.5" font-family="Helvetica,sans-Serif" font-size="10.00" fill="grey"> clientInfo</text>
</g>
<!-- Node10 -->
<g id="Node000010" class="node">
<title>Node10</title>
<g id="a_Node000010"><a xlink:href="classCommQuotaQueue.html" target="_top" xlink:title=" ">
<polygon fill="white" stroke="#666666" points="2294,-515 2184,-515 2184,-496 2294,-496 2294,-515"/>
<text text-anchor="middle" x="2239" y="-503" font-family="Helvetica,sans-Serif" font-size="10.00">CommQuotaQueue</text>
</a>
</g>
</g>
<!-- Node4&#45;&gt;Node10 -->
<g id="edge13_Node000010_Node000004" class="edge">
<title>Node4&#45;&gt;Node10</title>
<g id="a_edge13_Node000010_Node000004"><a xlink:title=" ">
<path fill="none" stroke="#9a32cd" stroke-dasharray="5,2" d="M2011.67,-476.73C2057.86,-482.6 2132.97,-492.15 2183.88,-498.62"/>
<polygon fill="#9a32cd" stroke="#9a32cd" points="2012.07,-473.26 2001.71,-475.47 2011.19,-480.2 2012.07,-473.26"/>
</a>
</g>
<text text-anchor="middle" x="2117" y="-497.5" font-family="Helvetica,sans-Serif" font-size="10.00" fill="grey"> clientInfo</text>
</g>
<!-- Node5 -->
<g id="Node000005" class="node">
<title>Node5</title>
<g id="a_Node000005"><a xlink:href="classhash__link.html" target="_top" xlink:title=" ">
<polygon fill="white" stroke="#666666" points="1757.5,-555 1694.5,-555 1694.5,-536 1757.5,-536 1757.5,-555"/>
<text text-anchor="middle" x="1726" y="-543" font-family="Helvetica,sans-Serif" font-size="10.00">hash_link</text>
</a>
</g>
</g>
<!-- Node5&#45;&gt;Node4 -->
<g id="edge5_Node000004_Node000005" class="edge">
<title>Node5&#45;&gt;Node4</title>
<g id="a_edge5_Node000004_Node000005"><a xlink:title=" ">
<path fill="none" stroke="#63b8ff" d="M1768.01,-542.5C1797.29,-539.51 1837.29,-533.68 1871,-522.5 1902.19,-512.16 1935.48,-492.69 1953.97,-481.03"/>
<polygon fill="#63b8ff" stroke="#63b8ff" points="1767.36,-539.05 1757.74,-543.48 1768.03,-546.02 1767.36,-539.05"/>
</a>
</g>
</g>
<!-- Node5&#45;&gt;Node5 -->
<g id="edge6_Node000005_Node000005" class="edge">
<title>Node5&#45;&gt;Node5</title>
<g id="a_edge6_Node000005_Node000005"><a xlink:title=" ">
<path fill="none" stroke="#9a32cd" stroke-dasharray="5,2" d="M1705.63,-564.55C1706.99,-569.38 1713.78,-573 1726,-573 1745.55,-573 1751.2,-563.73 1742.95,-555.08"/>
<polygon fill="#9a32cd" stroke="#9a32cd" points="1708.95,-565.68 1709.05,-555.08 1702.36,-563.3 1708.95,-565.68"/>
</a>
</g>
<text text-anchor="middle" x="1726" y="-576" font-family="Helvetica,sans-Serif" font-size="10.00" fill="grey"> next</text>
</g>
<!-- Node6 -->
<g id="Node000006" class="node">
<title>Node6</title>
<g id="a_Node000006"><a xlink:href="classBandwidthBucket.html" target="_top" xlink:title="Base class for Squid&#45;to&#45;client bandwidth limiting.">
<polygon fill="white" stroke="#666666" points="1517,-266 1416,-266 1416,-247 1517,-247 1517,-266"/>
<text text-anchor="middle" x="1466.5" y="-254" font-family="Helvetica,sans-Serif" font-size="10.00">BandwidthBucket</text>
</a>
</g>
</g>
<!-- Node6&#45;&gt;Node4 -->
<g id="edge7_Node000004_Node000006" class="edge">
<title>Node6&#45;&gt;Node4</title>
<g id="a_edge7_Node000004_Node000006"><a xlink:title=" ">
<path fill="none" stroke="#63b8ff" d="M1483.48,-273.49C1515.16,-306.05 1589.58,-377.14 1667,-412.5 1759.18,-454.6 1880.61,-466.71 1937.09,-470.15"/>
<polygon fill="#63b8ff" stroke="#63b8ff" points="1485.83,-270.87 1476.37,-266.08 1480.78,-275.72 1485.83,-270.87"/>
</a>
</g>
</g>
<!-- Node15 -->
<g id="Node000015" class="node">
<title>Node15</title>
<g id="a_Node000015"><a xlink:href="classMessageBucket.html" target="_top" xlink:title="Limits Squid&#45;to&#45;client bandwidth for each matching response.">
<polygon fill="white" stroke="#666666" points="1772.5,-220 1679.5,-220 1679.5,-201 1772.5,-201 1772.5,-220"/>
<text text-anchor="middle" x="1726" y="-208" font-family="Helvetica,sans-Serif" font-size="10.00">MessageBucket</text>
</a>
</g>
</g>
<!-- Node6&#45;&gt;Node15 -->
<g id="edge20_Node000015_Node000006" class="edge">
<title>Node6&#45;&gt;Node15</title>
<g id="a_edge20_Node000015_Node000006"><a xlink:title=" ">
<path fill="none" stroke="#63b8ff" d="M1527.42,-246.66C1562.83,-240.75 1608.51,-232.95 1649,-225.5 1658.79,-223.7 1669.27,-221.69 1679.22,-219.73"/>
<polygon fill="#63b8ff" stroke="#63b8ff" points="1526.54,-243.26 1517.25,-248.36 1527.69,-250.17 1526.54,-243.26"/>
</a>
</g>
</g>
<!-- Node7 -->
<g id="Node000007" class="node">
<title>Node7</title>
<g id="a_Node000007"><a xlink:href="structClientInfo_1_1Protocol.html" target="_top" xlink:title=" ">
<polygon fill="white" stroke="#666666" points="1781,-518 1671,-518 1671,-499 1781,-499 1781,-518"/>
<text text-anchor="middle" x="1726" y="-506" font-family="Helvetica,sans-Serif" font-size="10.00">ClientInfo::Protocol</text>
</a>
</g>
</g>
<!-- Node7&#45;&gt;Node4 -->
<g id="edge9_Node000004_Node000007" class="edge">
<title>Node7&#45;&gt;Node4</title>
<g id="a_edge9_Node000004_Node000007"><a xlink:title=" ">
<path fill="none" stroke="#9a32cd" stroke-dasharray="5,2" d="M1791.34,-498.64C1838.56,-491.41 1900.63,-481.9 1937.37,-476.27"/>
<polygon fill="#9a32cd" stroke="#9a32cd" points="1790.55,-495.22 1781.2,-500.2 1791.61,-502.14 1790.55,-495.22"/>
</a>
</g>
<text text-anchor="middle" x="1837" y="-510.5" font-family="Helvetica,sans-Serif" font-size="10.00" fill="grey"> Http</text>
<text text-anchor="middle" x="1837" y="-499.5" font-family="Helvetica,sans-Serif" font-size="10.00" fill="grey">Icp</text>
</g>
<!-- Node8 -->
<g id="Node000008" class="node">
<title>Node8</title>
<g id="a_Node000008"><a xlink:href="classByteCounter.html" target="_top" xlink:title="counter for accumulating byte values">
<polygon fill="white" stroke="#666666" points="1505,-518 1428,-518 1428,-499 1505,-499 1505,-518"/>
<text text-anchor="middle" x="1466.5" y="-506" font-family="Helvetica,sans-Serif" font-size="10.00">ByteCounter</text>
</a>
</g>
</g>
<!-- Node8&#45;&gt;Node7 -->
<g id="edge10_Node000007_Node000008" class="edge">
<title>Node8&#45;&gt;Node7</title>
<g id="a_edge10_Node000007_Node000008"><a xlink:title=" ">
<path fill="none" stroke="#9a32cd" stroke-dasharray="5,2" d="M1515.37,-508.5C1559.38,-508.5 1624.57,-508.5 1670.54,-508.5"/>
<polygon fill="#9a32cd" stroke="#9a32cd" points="1515.22,-505 1505.22,-508.5 1515.22,-512 1515.22,-505"/>
</a>
</g>
<text text-anchor="middle" x="1611" y="-533.5" font-family="Helvetica,sans-Serif" font-size="10.00" fill="grey"> hit_kbytes_out</text>
<text text-anchor="middle" x="1611" y="-522.5" font-family="Helvetica,sans-Serif" font-size="10.00" fill="grey">kbytes_in</text>
<text text-anchor="middle" x="1611" y="-511.5" font-family="Helvetica,sans-Serif" font-size="10.00" fill="grey">kbytes_out</text>
</g>
<!-- Node9 -->
<g id="Node000009" class="node">
<title>Node9</title>
<g id="a_Node000009"><a xlink:href="structClientInfo_1_1Cutoff.html" target="_top" xlink:title=" ">
<polygon fill="white" stroke="#666666" points="1775.5,-481 1676.5,-481 1676.5,-462 1775.5,-462 1775.5,-481"/>
<text text-anchor="middle" x="1726" y="-469" font-family="Helvetica,sans-Serif" font-size="10.00">ClientInfo::Cutoff</text>
</a>
</g>
</g>
<!-- Node9&#45;&gt;Node4 -->
<g id="edge11_Node000004_Node000009" class="edge">
<title>Node9&#45;&gt;Node4</title>
<g id="a_edge11_Node000004_Node000009"><a xlink:title=" ">
<path fill="none" stroke="#9a32cd" stroke-dasharray="5,2" d="M1785.79,-471.5C1833.55,-471.5 1899.04,-471.5 1937.26,-471.5"/>
<polygon fill="#9a32cd" stroke="#9a32cd" points="1785.58,-468 1775.58,-471.5 1785.58,-475 1785.58,-468"/>
</a>
</g>
<text text-anchor="middle" x="1837" y="-474.5" font-family="Helvetica,sans-Serif" font-size="10.00" fill="grey"> cutoff</text>
</g>
<!-- Node10&#45;&gt;Node4 -->
<g id="edge12_Node000004_Node000010" class="edge">
<title>Node10&#45;&gt;Node4</title>
<g id="a_edge12_Node000004_Node000010"><a xlink:title=" ">
<path fill="none" stroke="#9a32cd" stroke-dasharray="5,2" d="M2213.3,-491.01C2199.81,-483.92 2182.53,-476.15 2166,-472.5 2109.16,-459.94 2040.74,-463.76 2001.76,-467.65"/>
<polygon fill="#9a32cd" stroke="#9a32cd" points="2211.94,-494.25 2222.39,-495.98 2215.29,-488.11 2211.94,-494.25"/>
</a>
</g>
<text text-anchor="middle" x="2117" y="-475.5" font-family="Helvetica,sans-Serif" font-size="10.00" fill="grey"> quotaQueue</text>
</g>
<!-- Node11 -->
<g id="Node000011" class="node">
<title>Node11</title>
<g id="a_Node000011"><a xlink:title=" ">
<polygon fill="white" stroke="#666666" points="2021,-590 1918,-590 1918,-571 2021,-571 2021,-590"/>
<text text-anchor="middle" x="1969.5" y="-578" font-family="Helvetica,sans-Serif" font-size="10.00">std::deque&lt; int &gt;</text>
</a>
</g>
</g>
<!-- Node11&#45;&gt;Node10 -->
<g id="edge14_Node000010_Node000011" class="edge">
<title>Node11&#45;&gt;Node10</title>
<g id="a_edge14_Node000010_Node000011"><a xlink:title=" ">
<path fill="none" stroke="#9a32cd" stroke-dasharray="5,2" d="M2014.47,-568.17C2067.6,-553.27 2155.87,-528.53 2204.05,-515.02"/>
<polygon fill="#9a32cd" stroke="#9a32cd" points="2013.33,-564.86 2004.65,-570.93 2015.22,-571.6 2013.33,-564.86"/>
</a>
</g>
<text text-anchor="middle" x="2117" y="-554.5" font-family="Helvetica,sans-Serif" font-size="10.00" fill="grey"> fds</text>
</g>
<!-- Node12 -->
<g id="Node000012" class="node">
<title>Node12</title>
<g id="a_Node000012"><a xlink:title=" ">
<polygon fill="white" stroke="#666666" points="1774,-621 1678,-621 1678,-602 1774,-602 1774,-621"/>
<text text-anchor="middle" x="1726" y="-609" font-family="Helvetica,sans-Serif" font-size="10.00">std::deque&lt; T &gt;</text>
</a>
</g>
</g>
<!-- Node12&#45;&gt;Node11 -->
<g id="edge15_Node000011_Node000012" class="edge">
<title>Node12&#45;&gt;Node11</title>
<g id="a_edge15_Node000011_Node000012"><a xlink:title=" ">
<path fill="none" stroke="orange" stroke-dasharray="5,2" d="M1784.14,-604.16C1824.71,-598.96 1878.68,-592.03 1917.73,-587.02"/>
<polygon fill="orange" stroke="orange" points="1783.61,-600.7 1774.14,-605.45 1784.5,-607.65 1783.61,-600.7"/>
</a>
</g>
<text text-anchor="middle" x="1837" y="-603.5" font-family="Helvetica,sans-Serif" font-size="10.00" fill="grey"> &lt; int &gt;</text>
</g>
<!-- Node13 -->
<g id="Node000013" class="node">
<title>Node13</title>
<g id="a_Node000013"><a xlink:title=" ">
<polygon fill="white" stroke="#666666" points="1481,-597 1452,-597 1452,-578 1481,-578 1481,-597"/>
<text text-anchor="middle" x="1466.5" y="-585" font-family="Helvetica,sans-Serif" font-size="10.00">T</text>
</a>
</g>
</g>
<!-- Node13&#45;&gt;Node12 -->
<g id="edge16_Node000012_Node000013" class="edge">
<title>Node13&#45;&gt;Node12</title>
<g id="a_edge16_Node000012_Node000013"><a xlink:title=" ">
<path fill="none" stroke="#9a32cd" stroke-dasharray="5,2" d="M1491.56,-589.74C1534.02,-593.7 1622.97,-601.99 1677.98,-607.12"/>
<polygon fill="#9a32cd" stroke="#9a32cd" points="1491.63,-586.23 1481.34,-588.79 1490.98,-593.2 1491.63,-586.23"/>
</a>
</g>
<text text-anchor="middle" x="1611" y="-606.5" font-family="Helvetica,sans-Serif" font-size="10.00" fill="grey"> elements</text>
</g>
<!-- Node31 -->
<g id="Node000031" class="node">
<title>Node31</title>
<g id="a_Node000031"><a xlink:title=" ">
<polygon fill="white" stroke="#666666" points="1785,-363 1667,-363 1667,-344 1785,-344 1785,-363"/>
<text text-anchor="middle" x="1726" y="-351" font-family="Helvetica,sans-Serif" font-size="10.00">std::shared_ptr&lt; T &gt;</text>
</a>
</g>
</g>
<!-- Node13&#45;&gt;Node31 -->
<g id="edge44_Node000031_Node000013" class="edge">
<title>Node13&#45;&gt;Node31</title>
<g id="a_edge44_Node000031_Node000013"><a xlink:title=" ">
<path fill="none" stroke="#9a32cd" stroke-dasharray="5,2" d="M1491.22,-585.38C1535.53,-580.89 1628.3,-568.89 1649,-545.5 1699.35,-488.6 1620.6,-435.67 1667,-375.5 1671.08,-370.21 1676.58,-366.2 1682.58,-363.14"/>
<polygon fill="#9a32cd" stroke="#9a32cd" points="1490.68,-581.91 1481.07,-586.36 1491.36,-588.88 1490.68,-581.91"/>
</a>
</g>
<text text-anchor="middle" x="1611" y="-576.5" font-family="Helvetica,sans-Serif" font-size="10.00" fill="grey"> ptr</text>
</g>
<!-- Node14 -->
<g id="Node000014" class="node">
<title>Node14</title>
<g id="a_Node000014"><a xlink:href="classRefCount.html" target="_top" xlink:title=" ">
<polygon fill="white" stroke="#666666" points="2050,-220 1889,-220 1889,-201 2050,-201 2050,-220"/>
<text text-anchor="middle" x="1969.5" y="-208" font-family="Helvetica,sans-Serif" font-size="10.00">RefCount&lt; MessageBucket &gt;</text>
</a>
</g>
</g>
<!-- Node14&#45;&gt;Node1 -->
<g id="edge17_Node000001_Node000014" class="edge">
<title>Node14&#45;&gt;Node1</title>
<g id="a_edge17_Node000001_Node000014"><a xlink:title=" ">
<path fill="none" stroke="#9a32cd" stroke-dasharray="5,2" d="M2054.98,-221.41C2089.49,-226.18 2129.73,-232.13 2166,-238.5 2185.74,-241.97 2208.35,-246.82 2222.88,-250.06"/>
<polygon fill="#9a32cd" stroke="#9a32cd" points="2055.33,-217.93 2044.94,-220.04 2054.37,-224.86 2055.33,-217.93"/>
</a>
</g>
<text text-anchor="middle" x="2117" y="-241.5" font-family="Helvetica,sans-Serif" font-size="10.00" fill="grey"> writeQuotaHandler</text>
</g>
<!-- Node15&#45;&gt;Node14 -->
<g id="edge18_Node000014_Node000015" class="edge">
<title>Node15&#45;&gt;Node14</title>
<g id="a_edge18_Node000014_Node000015"><a xlink:title=" ">
<path fill="none" stroke="#9a32cd" stroke-dasharray="5,2" d="M1783.02,-210.5C1814.43,-210.5 1854.14,-210.5 1888.74,-210.5"/>
<polygon fill="#9a32cd" stroke="#9a32cd" points="1782.71,-207 1772.71,-210.5 1782.71,-214 1782.71,-207"/>
</a>
</g>
<text text-anchor="middle" x="1837" y="-213.5" font-family="Helvetica,sans-Serif" font-size="10.00" fill="grey"> p_</text>
</g>
<!-- Node16 -->
<g id="Node000016" class="node">
<title>Node16</title>
<g id="a_Node000016"><a xlink:title=" ">
<polygon fill="white" stroke="#666666" points="325.5,-117 242.5,-117 242.5,-98 325.5,-98 325.5,-117"/>
<text text-anchor="middle" x="284" y="-105" font-family="Helvetica,sans-Serif" font-size="10.00">RefCountable</text>
</a>
</g>
</g>
<!-- Node16&#45;&gt;Node15 -->
<g id="edge19_Node000015_Node000016" class="edge">
<title>Node16&#45;&gt;Node15</title>
<g id="a_edge19_Node000015_Node000016"><a xlink:title=" ">
<path fill="none" stroke="#63b8ff" d="M335.16,-95.74C387.19,-84.58 471.08,-69.5 544.5,-69.5 544.5,-69.5 544.5,-69.5 1467.5,-69.5 1577.08,-69.5 1684.22,-168.95 1715.73,-200.81"/>
<polygon fill="#63b8ff" stroke="#63b8ff" points="334.21,-92.36 325.19,-97.91 335.7,-99.2 334.21,-92.36"/>
</a>
</g>
</g>
<!-- Node18 -->
<g id="Node000018" class="node">
<title>Node18</title>
<g id="a_Node000018"><a xlink:href="classMessageDelayPool.html" target="_top" xlink:title=" ">
<polygon fill="white" stroke="#666666" points="1255,-240 1145,-240 1145,-221 1255,-221 1255,-240"/>
<text text-anchor="middle" x="1200" y="-228" font-family="Helvetica,sans-Serif" font-size="10.00">MessageDelayPool</text>
</a>
</g>
</g>
<!-- Node16&#45;&gt;Node18 -->
<g id="edge23_Node000018_Node000016" class="edge">
<title>Node16&#45;&gt;Node18</title>
<g id="a_edge23_Node000018_Node000016"><a xlink:title=" ">
<path fill="none" stroke="#63b8ff" d="M335.16,-119.26C387.19,-130.42 471.08,-145.5 544.5,-145.5 544.5,-145.5 544.5,-145.5 996.5,-145.5 1073.52,-145.5 1155.07,-198.42 1186.05,-220.75"/>
<polygon fill="#63b8ff" stroke="#63b8ff" points="335.7,-115.8 325.19,-117.09 334.21,-122.64 335.7,-115.8"/>
</a>
</g>
</g>
<!-- Node24 -->
<g id="Node000024" class="node">
<title>Node24</title>
<g id="a_Node000024"><a xlink:href="classMemBlob.html" target="_top" xlink:title=" ">
<polygon fill="white" stroke="#666666" points="577,-316 514,-316 514,-297 577,-297 577,-316"/>
<text text-anchor="middle" x="545.5" y="-304" font-family="Helvetica,sans-Serif" font-size="10.00">MemBlob</text>
</a>
</g>
</g>
<!-- Node16&#45;&gt;Node24 -->
<g id="edge30_Node000024_Node000016" class="edge">
<title>Node16&#45;&gt;Node24</title>
<g id="a_edge30_Node000024_Node000016"><a xlink:title=" ">
<path fill="none" stroke="#63b8ff" d="M305.62,-123.31C357.22,-162.88 490.76,-265.29 532.11,-297"/>
<polygon fill="#63b8ff" stroke="#63b8ff" points="307.58,-120.41 297.52,-117.1 303.32,-125.96 307.58,-120.41"/>
</a>
</g>
</g>
<!-- Node34 -->
<g id="Node000034" class="node">
<title>Node34</title>
<g id="a_Node000034"><a xlink:href="classCodeContext.html" target="_top" xlink:title=" ">
<polygon fill="white" stroke="#666666" points="585.5,-22 505.5,-22 505.5,-3 585.5,-3 585.5,-22"/>
<text text-anchor="middle" x="545.5" y="-10" font-family="Helvetica,sans-Serif" font-size="10.00">CodeContext</text>
</a>
</g>
</g>
<!-- Node16&#45;&gt;Node34 -->
<g id="edge49_Node000034_Node000016" class="edge">
<title>Node16&#45;&gt;Node34</title>
<g id="a_edge49_Node000034_Node000016"><a xlink:title=" ">
<path fill="none" stroke="#63b8ff" d="M306.63,-92.08C323.27,-80.84 347.2,-65.97 370,-56.5 376.33,-53.87 455.99,-34.17 505.47,-22.04"/>
<polygon fill="#63b8ff" stroke="#63b8ff" points="304.43,-89.34 298.19,-97.9 308.41,-95.11 304.43,-89.34"/>
</a>
</g>
</g>
<!-- Node17 -->
<g id="Node000017" class="node">
<title>Node17</title>
<g id="a_Node000017"><a xlink:href="classRefCount.html" target="_top" xlink:title=" ">
<polygon fill="white" stroke="#666666" points="1555,-220 1378,-220 1378,-201 1555,-201 1555,-220"/>
<text text-anchor="middle" x="1466.5" y="-208" font-family="Helvetica,sans-Serif" font-size="10.00">RefCount&lt; MessageDelayPool &gt;</text>
</a>
</g>
</g>
<!-- Node17&#45;&gt;Node15 -->
<g id="edge21_Node000015_Node000017" class="edge">
<title>Node17&#45;&gt;Node15</title>
<g id="a_edge21_Node000015_Node000017"><a xlink:title=" ">
<path fill="none" stroke="#9a32cd" stroke-dasharray="5,2" d="M1565.42,-210.5C1604.54,-210.5 1647.7,-210.5 1679.26,-210.5"/>
<polygon fill="#9a32cd" stroke="#9a32cd" points="1565.04,-207 1555.04,-210.5 1565.04,-214 1565.04,-207"/>
</a>
</g>
<text text-anchor="middle" x="1611" y="-213.5" font-family="Helvetica,sans-Serif" font-size="10.00" fill="grey"> theAggregate</text>
</g>
<!-- Node18&#45;&gt;Node17 -->
<g id="edge22_Node000017_Node000018" class="edge">
<title>Node18&#45;&gt;Node17</title>
<g id="a_edge22_Node000017_Node000018"><a xlink:title=" ">
<path fill="none" stroke="#9a32cd" stroke-dasharray="5,2" d="M1265.38,-225.63C1299.18,-223.08 1341.1,-219.91 1377.83,-217.13"/>
<polygon fill="#9a32cd" stroke="#9a32cd" points="1264.87,-222.16 1255.16,-226.4 1265.4,-229.14 1264.87,-222.16"/>
</a>
</g>
<text text-anchor="middle" x="1316.5" y="-227.5" font-family="Helvetica,sans-Serif" font-size="10.00" fill="grey"> p_</text>
</g>
<!-- Node19 -->
<g id="Node000019" class="node">
<title>Node19</title>
<g id="a_Node000019"><a xlink:href="classRefCount.html" target="_top" xlink:title=" ">
<polygon fill="white" stroke="#666666" points="591,-221 500,-221 500,-202 591,-202 591,-221"/>
<text text-anchor="middle" x="545.5" y="-209" font-family="Helvetica,sans-Serif" font-size="10.00">RefCount&lt; C &gt;</text>
</a>
</g>
</g>
<!-- Node19&#45;&gt;Node1 -->
<g id="edge41_Node000001_Node000019" class="edge">
<title>Node19&#45;&gt;Node1</title>
<g id="a_edge41_Node000001_Node000019"><a xlink:title=" ">
<path fill="none" stroke="#9a32cd" stroke-dasharray="5,2" d="M582.25,-198.73C590.95,-195.84 600.26,-192.91 609,-190.5 728.26,-157.64 758.2,-146.37 881,-131.5 1202.77,-92.53 1285.88,-111.5 1610,-111.5 1610,-111.5 1610,-111.5 1970.5,-111.5 2083.54,-111.5 2195.39,-211.66 2228.31,-243.74"/>
<polygon fill="#9a32cd" stroke="#9a32cd" points="581.1,-195.43 572.76,-201.96 583.35,-202.05 581.1,-195.43"/>
</a>
</g>
<text text-anchor="middle" x="1316.5" y="-132.5" font-family="Helvetica,sans-Serif" font-size="10.00" fill="grey"> closeHandler</text>
<text text-anchor="middle" x="1316.5" y="-121.5" font-family="Helvetica,sans-Serif" font-size="10.00" fill="grey">halfClosedReader</text>
<text text-anchor="middle" x="1316.5" y="-110.5" font-family="Helvetica,sans-Serif" font-size="10.00" fill="grey">timeoutHandler</text>
</g>
<!-- Node19&#45;&gt;Node14 -->
<g id="edge37_Node000014_Node000019" class="edge">
<title>Node19&#45;&gt;Node14</title>
<g id="a_edge37_Node000014_Node000019"><a xlink:title=" ">
<path fill="none" stroke="orange" stroke-dasharray="5,2" d="M557.41,-230.08C566.5,-245.63 579.73,-268.43 591,-288.5 599.18,-303.07 594.8,-312.7 609,-321.5 649.46,-346.55 668.42,-324.61 716,-325.5 866.64,-328.31 904.52,-333.01 1055,-325.5 1278.05,-314.38 1333.49,-303.96 1555,-275.5 1684.2,-258.9 1835.2,-233.68 1914.12,-220.05"/>
<polygon fill="orange" stroke="orange" points="560.41,-228.28 552.34,-221.42 554.37,-231.82 560.41,-228.28"/>
</a>
</g>
<text text-anchor="middle" x="1200" y="-322.5" font-family="Helvetica,sans-Serif" font-size="10.00" fill="grey"> &lt; MessageBucket &gt;</text>
</g>
<!-- Node19&#45;&gt;Node17 -->
<g id="edge36_Node000017_Node000019" class="edge">
<title>Node19&#45;&gt;Node17</title>
<g id="a_edge36_Node000017_Node000019"><a xlink:title=" ">
<path fill="none" stroke="orange" stroke-dasharray="5,2" d="M601.07,-204.4C650.05,-198.65 723.95,-191.5 788.5,-191.5 788.5,-191.5 788.5,-191.5 1201,-191.5 1260.04,-191.5 1326.31,-196.27 1377.75,-201.03"/>
<polygon fill="orange" stroke="orange" points="600.53,-200.95 591.01,-205.61 601.36,-207.9 600.53,-200.95"/>
</a>
</g>
<text text-anchor="middle" x="995.5" y="-194.5" font-family="Helvetica,sans-Serif" font-size="10.00" fill="grey"> &lt; MessageDelayPool &gt;</text>
</g>
<!-- Node19&#45;&gt;Node18 -->
<g id="edge24_Node000018_Node000019" class="edge">
<title>Node19&#45;&gt;Node18</title>
<g id="a_edge24_Node000018_Node000019"><a xlink:title=" ">
<path fill="none" stroke="#9a32cd" stroke-dasharray="5,2" d="M601.27,-218.54C676.54,-227.83 816.26,-243.67 936,-249.5 988.83,-252.07 1002.13,-250.97 1055,-249.5 1087.04,-248.61 1095.22,-249.67 1127,-245.5 1137.25,-244.15 1148.23,-242.16 1158.44,-240.06"/>
<polygon fill="#9a32cd" stroke="#9a32cd" points="601.44,-215.03 591.08,-217.27 600.58,-221.98 601.44,-215.03"/>
</a>
</g>
<text text-anchor="middle" x="899.5" y="-250.5" font-family="Helvetica,sans-Serif" font-size="10.00" fill="grey"> access</text>
</g>
<!-- Node23 -->
<g id="Node000023" class="node">
<title>Node23</title>
<g id="a_Node000023"><a xlink:href="classRefCount.html" target="_top" xlink:title=" ">
<polygon fill="white" stroke="#666666" points="855,-316 724,-316 724,-297 855,-297 855,-316"/>
<text text-anchor="middle" x="789.5" y="-304" font-family="Helvetica,sans-Serif" font-size="10.00">RefCount&lt; MemBlob &gt;</text>
</a>
</g>
</g>
<!-- Node19&#45;&gt;Node23 -->
<g id="edge33_Node000023_Node000019" class="edge">
<title>Node19&#45;&gt;Node23</title>
<g id="a_edge33_Node000023_Node000019"><a xlink:title=" ">
<path fill="none" stroke="orange" stroke-dasharray="5,2" d="M571.78,-226.12C583.02,-232.4 596.52,-239.62 609,-245.5 655.37,-267.34 667.23,-272.73 716,-288.5 725.5,-291.57 735.85,-294.42 745.67,-296.91"/>
<polygon fill="orange" stroke="orange" points="573.37,-223 562.94,-221.13 569.93,-229.09 573.37,-223"/>
</a>
</g>
<text text-anchor="middle" x="653.5" y="-284.5" font-family="Helvetica,sans-Serif" font-size="10.00" fill="grey"> &lt; MemBlob &gt;</text>
</g>
<!-- Node33 -->
<g id="Node000033" class="node">
<title>Node33</title>
<g id="a_Node000033"><a xlink:href="classRefCount.html" target="_top" xlink:title=" ">
<polygon fill="white" stroke="#666666" points="863,-19 716,-19 716,0 863,0 863,-19"/>
<text text-anchor="middle" x="789.5" y="-7" font-family="Helvetica,sans-Serif" font-size="10.00">RefCount&lt; CodeContext &gt;</text>
</a>
</g>
</g>
<!-- Node19&#45;&gt;Node33 -->
<g id="edge51_Node000033_Node000019" class="edge">
<title>Node19&#45;&gt;Node33</title>
<g id="a_edge51_Node000033_Node000019"><a xlink:title=" ">
<path fill="none" stroke="orange" stroke-dasharray="5,2" d="M551.1,-192.28C558.68,-164.52 576.3,-113.15 609,-82.5 645.7,-48.11 700.75,-28.99 740.2,-19.03"/>
<polygon fill="orange" stroke="orange" points="547.71,-191.43 548.6,-201.99 554.48,-193.18 547.71,-191.43"/>
</a>
</g>
<text text-anchor="middle" x="653.5" y="-85.5" font-family="Helvetica,sans-Serif" font-size="10.00" fill="grey"> &lt; CodeContext &gt;</text>
</g>
<!-- Node20 -->
<g id="Node000020" class="node">
<title>Node20</title>
<g id="a_Node000020"><a xlink:href="classSBuf.html" target="_top" xlink:title=" ">
<polygon fill="white" stroke="#666666" points="1015,-316 976,-316 976,-297 1015,-297 1015,-316"/>
<text text-anchor="middle" x="995.5" y="-304" font-family="Helvetica,sans-Serif" font-size="10.00">SBuf</text>
</a>
</g>
</g>
<!-- Node20&#45;&gt;Node18 -->
<g id="edge25_Node000018_Node000020" class="edge">
<title>Node20&#45;&gt;Node18</title>
<g id="a_edge25_Node000018_Node000020"><a xlink:title=" ">
<path fill="none" stroke="#9a32cd" stroke-dasharray="5,2" d="M1025.42,-304.85C1052.59,-302.46 1093.9,-296.64 1127,-282.5 1151.39,-272.08 1175.51,-252.19 1188.71,-240.26"/>
<polygon fill="#9a32cd" stroke="#9a32cd" points="1025.1,-301.36 1015.4,-305.63 1025.64,-308.34 1025.1,-301.36"/>
</a>
</g>
<text text-anchor="middle" x="1100" y="-300.5" font-family="Helvetica,sans-Serif" font-size="10.00" fill="grey"> poolName</text>
</g>
<!-- Node21 -->
<g id="Node000021" class="node">
<title>Node21</title>
<g id="a_Node000021"><a xlink:href="classInstanceId.html" target="_top" xlink:title=" ">
<polygon fill="white" stroke="#666666" points="482,-389 370,-389 370,-370 482,-370 482,-389"/>
<text text-anchor="middle" x="426" y="-377" font-family="Helvetica,sans-Serif" font-size="10.00">InstanceId&lt; SBuf &gt;</text>
</a>
</g>
</g>
<!-- Node21&#45;&gt;Node20 -->
<g id="edge26_Node000020_Node000021" class="edge">
<title>Node21&#45;&gt;Node20</title>
<g id="a_edge26_Node000020_Node000021"><a xlink:title=" ">
<path fill="none" stroke="#9a32cd" stroke-dasharray="5,2" d="M492.46,-376.07C547.45,-372.79 628.04,-367.08 698,-358.5 796.41,-346.44 820.45,-339.26 918,-321.5 937.84,-317.89 960.5,-313.4 975.98,-310.28"/>
<polygon fill="#9a32cd" stroke="#9a32cd" points="491.94,-372.59 482.16,-376.67 492.35,-379.58 491.94,-372.59"/>
</a>
</g>
<text text-anchor="middle" x="653.5" y="-370.5" font-family="Helvetica,sans-Serif" font-size="10.00" fill="grey"> id</text>
</g>
<!-- Node22 -->
<g id="Node000022" class="node">
<title>Node22</title>
<g id="a_Node000022"><a xlink:href="classInstanceId.html" target="_top" xlink:title=" ">
<polygon fill="white" stroke="#666666" points="107,-352.5 0,-352.5 0,-322.5 107,-322.5 107,-352.5"/>
<text text-anchor="start" x="8" y="-340.5" font-family="Helvetica,sans-Serif" font-size="10.00">InstanceId&lt; Class,</text>
<text text-anchor="middle" x="53.5" y="-329.5" font-family="Helvetica,sans-Serif" font-size="10.00"> ValueType &gt;</text>
</a>
</g>
</g>
<!-- Node22&#45;&gt;Node21 -->
<g id="edge27_Node000021_Node000022" class="edge">
<title>Node22&#45;&gt;Node21</title>
<g id="a_edge27_Node000021_Node000022"><a xlink:title=" ">
<path fill="none" stroke="orange" stroke-dasharray="5,2" d="M117.32,-344.62C188.15,-352.65 302.22,-365.58 369.77,-373.24"/>
<polygon fill="orange" stroke="orange" points="117.52,-341.12 107.19,-343.47 116.73,-348.08 117.52,-341.12"/>
</a>
</g>
<text text-anchor="middle" x="161.5" y="-355.5" font-family="Helvetica,sans-Serif" font-size="10.00" fill="grey"> &lt; SBuf &gt;</text>
</g>
<!-- Node25 -->
<g id="Node000025" class="node">
<title>Node25</title>
<g id="a_Node000025"><a xlink:href="classInstanceId.html" target="_top" xlink:title=" ">
<polygon fill="white" stroke="#666666" points="352,-323 216,-323 216,-304 352,-304 352,-323"/>
<text text-anchor="middle" x="284" y="-311" font-family="Helvetica,sans-Serif" font-size="10.00">InstanceId&lt; MemBlob &gt;</text>
</a>
</g>
</g>
<!-- Node22&#45;&gt;Node25 -->
<g id="edge32_Node000025_Node000022" class="edge">
<title>Node22&#45;&gt;Node25</title>
<g id="a_edge32_Node000025_Node000022"><a xlink:title=" ">
<path fill="none" stroke="orange" stroke-dasharray="5,2" d="M117.3,-328.42C119.9,-328.1 122.47,-327.79 125,-327.5 154.68,-324.08 187.59,-321.05 215.65,-318.68"/>
<polygon fill="orange" stroke="orange" points="116.68,-324.97 107.2,-329.72 117.57,-331.92 116.68,-324.97"/>
</a>
</g>
<text text-anchor="middle" x="161.5" y="-330.5" font-family="Helvetica,sans-Serif" font-size="10.00" fill="grey"> &lt; MemBlob &gt;</text>
</g>
<!-- Node23&#45;&gt;Node20 -->
<g id="edge28_Node000020_Node000023" class="edge">
<title>Node23&#45;&gt;Node20</title>
<g id="a_edge28_Node000020_Node000023"><a xlink:title=" ">
<path fill="none" stroke="#9a32cd" stroke-dasharray="5,2" d="M865.26,-306.5C904.93,-306.5 950.54,-306.5 975.58,-306.5"/>
<polygon fill="#9a32cd" stroke="#9a32cd" points="865.05,-303 855.05,-306.5 865.05,-310 865.05,-303"/>
</a>
</g>
<text text-anchor="middle" x="899.5" y="-309.5" font-family="Helvetica,sans-Serif" font-size="10.00" fill="grey"> store_</text>
</g>
<!-- Node24&#45;&gt;Node23 -->
<g id="edge29_Node000023_Node000024" class="edge">
<title>Node24&#45;&gt;Node23</title>
<g id="a_edge29_Node000023_Node000024"><a xlink:title=" ">
<path fill="none" stroke="#9a32cd" stroke-dasharray="5,2" d="M587.61,-306.5C624.85,-306.5 680.34,-306.5 723.57,-306.5"/>
<polygon fill="#9a32cd" stroke="#9a32cd" points="587.15,-303 577.15,-306.5 587.15,-310 587.15,-303"/>
</a>
</g>
<text text-anchor="middle" x="653.5" y="-309.5" font-family="Helvetica,sans-Serif" font-size="10.00" fill="grey"> p_</text>
</g>
<!-- Node25&#45;&gt;Node24 -->
<g id="edge31_Node000024_Node000025" class="edge">
<title>Node25&#45;&gt;Node24</title>
<g id="a_edge31_Node000024_Node000025"><a xlink:title=" ">
<path fill="none" stroke="#9a32cd" stroke-dasharray="5,2" d="M362.45,-311.41C413.15,-310.04 476.65,-308.33 513.69,-307.33"/>
<polygon fill="#9a32cd" stroke="#9a32cd" points="362.07,-307.92 352.17,-311.69 362.26,-314.92 362.07,-307.92"/>
</a>
</g>
<text text-anchor="middle" x="426" y="-313.5" font-family="Helvetica,sans-Serif" font-size="10.00" fill="grey"> id</text>
</g>
<!-- Node26 -->
<g id="Node000026" class="node">
<title>Node26</title>
<g id="a_Node000026"><a xlink:href="classSBufStats.html" target="_top" xlink:title=" ">
<polygon fill="white" stroke="#666666" points="821.5,-279 757.5,-279 757.5,-260 821.5,-260 821.5,-279"/>
<text text-anchor="middle" x="789.5" y="-267" font-family="Helvetica,sans-Serif" font-size="10.00">SBufStats</text>
</a>
</g>
</g>
<!-- Node26&#45;&gt;Node20 -->
<g id="edge34_Node000020_Node000026" class="edge">
<title>Node26&#45;&gt;Node20</title>
<g id="a_edge34_Node000020_Node000026"><a xlink:title=" ">
<path fill="none" stroke="#9a32cd" stroke-dasharray="5,2" d="M831.59,-276.35C856.59,-280.57 889.17,-286.19 918,-291.5 937.83,-295.15 960.49,-299.64 975.97,-302.74"/>
<polygon fill="#9a32cd" stroke="#9a32cd" points="832.15,-272.89 821.71,-274.68 830.99,-279.79 832.15,-272.89"/>
</a>
</g>
<text text-anchor="middle" x="899.5" y="-294.5" font-family="Helvetica,sans-Serif" font-size="10.00" fill="grey"> stats</text>
</g>
<!-- Node27 -->
<g id="Node000027" class="node">
<title>Node27</title>
<g id="a_Node000027"><a xlink:href="classDelayBucket.html" target="_top" xlink:title=" ">
<polygon fill="white" stroke="#666666" points="1034.5,-240 956.5,-240 956.5,-221 1034.5,-221 1034.5,-240"/>
<text text-anchor="middle" x="995.5" y="-228" font-family="Helvetica,sans-Serif" font-size="10.00">DelayBucket</text>
</a>
</g>
</g>
<!-- Node27&#45;&gt;Node18 -->
<g id="edge35_Node000018_Node000027" class="edge">
<title>Node27&#45;&gt;Node18</title>
<g id="a_edge35_Node000018_Node000027"><a xlink:title=" ">
<path fill="none" stroke="#9a32cd" stroke-dasharray="5,2" d="M1044.83,-230.5C1074.86,-230.5 1113.55,-230.5 1144.65,-230.5"/>
<polygon fill="#9a32cd" stroke="#9a32cd" points="1044.59,-227 1034.59,-230.5 1044.59,-234 1044.59,-227"/>
</a>
</g>
<text text-anchor="middle" x="1100" y="-233.5" font-family="Helvetica,sans-Serif" font-size="10.00" fill="grey"> theBucket</text>
</g>
<!-- Node28 -->
<g id="Node000028" class="node">
<title>Node28</title>
<g id="a_Node000028"><a xlink:href="class__fde__disk.html" target="_top" xlink:title=" ">
<polygon fill="white" stroke="#666666" points="2001,-69 1938,-69 1938,-50 2001,-50 2001,-69"/>
<text text-anchor="middle" x="1969.5" y="-57" font-family="Helvetica,sans-Serif" font-size="10.00">_fde_disk</text>
</a>
</g>
</g>
<!-- Node28&#45;&gt;Node1 -->
<g id="edge38_Node000001_Node000028" class="edge">
<title>Node28&#45;&gt;Node1</title>
<g id="a_edge38_Node000001_Node000028"><a xlink:title=" ">
<path fill="none" stroke="#9a32cd" stroke-dasharray="5,2" d="M2011.15,-54.24C2054.02,-50.97 2121.41,-52.57 2166,-86.5 2219.27,-127.03 2233.69,-214.96 2237.07,-243.99"/>
<polygon fill="#9a32cd" stroke="#9a32cd" points="2010.73,-50.77 2001.07,-55.13 2011.34,-57.74 2010.73,-50.77"/>
</a>
</g>
<text text-anchor="middle" x="2117" y="-89.5" font-family="Helvetica,sans-Serif" font-size="10.00" fill="grey"> disk</text>
</g>
<!-- Node29 -->
<g id="Node000029" class="node">
<title>Node29</title>
<g id="a_Node000029"><a xlink:href="classdwrite__q.html" target="_top" xlink:title=" ">
<polygon fill="white" stroke="#666666" points="1755.5,-54 1696.5,-54 1696.5,-35 1755.5,-35 1755.5,-54"/>
<text text-anchor="middle" x="1726" y="-42" font-family="Helvetica,sans-Serif" font-size="10.00">dwrite_q</text>
</a>
</g>
</g>
<!-- Node29&#45;&gt;Node28 -->
<g id="edge39_Node000028_Node000029" class="edge">
<title>Node29&#45;&gt;Node28</title>
<g id="a_edge39_Node000028_Node000029"><a xlink:title=" ">
<path fill="none" stroke="#9a32cd" stroke-dasharray="5,2" d="M1765.64,-46.9C1813.54,-49.88 1894.2,-54.88 1937.99,-57.6"/>
<polygon fill="#9a32cd" stroke="#9a32cd" points="1765.85,-43.41 1755.65,-46.28 1765.42,-50.39 1765.85,-43.41"/>
</a>
</g>
<text text-anchor="middle" x="1837" y="-66.5" font-family="Helvetica,sans-Serif" font-size="10.00" fill="grey"> write_q</text>
<text text-anchor="middle" x="1837" y="-55.5" font-family="Helvetica,sans-Serif" font-size="10.00" fill="grey">write_q_tail</text>
</g>
<!-- Node29&#45;&gt;Node29 -->
<g id="edge40_Node000029_Node000029" class="edge">
<title>Node29&#45;&gt;Node29</title>
<g id="a_edge40_Node000029_Node000029"><a xlink:title=" ">
<path fill="none" stroke="#9a32cd" stroke-dasharray="5,2" d="M1705.63,-63.55C1706.99,-68.38 1713.78,-72 1726,-72 1745.55,-72 1751.2,-62.73 1742.95,-54.08"/>
<polygon fill="#9a32cd" stroke="#9a32cd" points="1708.95,-64.68 1709.05,-54.08 1702.36,-62.3 1708.95,-64.68"/>
</a>
</g>
<text text-anchor="middle" x="1726" y="-75" font-family="Helvetica,sans-Serif" font-size="10.00" fill="grey"> next</text>
</g>
<!-- Node30 -->
<g id="Node000030" class="node">
<title>Node30</title>
<g id="a_Node000030"><a xlink:title=" ">
<polygon fill="white" stroke="#666666" points="2034,-306 1905,-306 1905,-287 2034,-287 2034,-306"/>
<text text-anchor="middle" x="1969.5" y="-294" font-family="Helvetica,sans-Serif" font-size="10.00">std::shared_ptr&lt; SSL &gt;</text>
</a>
</g>
</g>
<!-- Node30&#45;&gt;Node1 -->
<g id="edge42_Node000001_Node000030" class="edge">
<title>Node30&#45;&gt;Node1</title>
<g id="a_edge42_Node000001_Node000030"><a xlink:title=" ">
<path fill="none" stroke="#9a32cd" stroke-dasharray="5,2" d="M2044.17,-287.07C2080.87,-282.08 2125.87,-275.55 2166,-268.5 2185.74,-265.03 2208.35,-260.18 2222.88,-256.94"/>
<polygon fill="#9a32cd" stroke="#9a32cd" points="2043.5,-283.63 2034.05,-288.43 2044.43,-290.56 2043.5,-283.63"/>
</a>
</g>
<text text-anchor="middle" x="2117" y="-285.5" font-family="Helvetica,sans-Serif" font-size="10.00" fill="grey"> ssl</text>
</g>
<!-- Node31&#45;&gt;Node30 -->
<g id="edge43_Node000030_Node000031" class="edge">
<title>Node31&#45;&gt;Node30</title>
<g id="a_edge43_Node000030_Node000031"><a xlink:title=" ">
<path fill="none" stroke="orange" stroke-dasharray="5,2" d="M1795.32,-351.1C1820.07,-348.18 1847.66,-342.46 1871,-331.5 1880.69,-326.95 1879.51,-320.45 1889,-315.5 1896.42,-311.63 1904.65,-308.53 1912.91,-306.06"/>
<polygon fill="orange" stroke="orange" points="1794.85,-347.63 1785.27,-352.15 1795.58,-354.59 1794.85,-347.63"/>
</a>
</g>
<text text-anchor="middle" x="1837" y="-352.5" font-family="Helvetica,sans-Serif" font-size="10.00" fill="grey"> &lt; SSL &gt;</text>
</g>
<!-- Node32 -->
<g id="Node000032" class="node">
<title>Node32</title>
<g id="a_Node000032"><a xlink:title=" ">
<polygon fill="white" stroke="#666666" points="2028.5,-268.5 1910.5,-268.5 1910.5,-238.5 2028.5,-238.5 2028.5,-268.5"/>
<text text-anchor="start" x="1918.5" y="-256.5" font-family="Helvetica,sans-Serif" font-size="10.00">std::shared_ptr&lt; SSL</text>
<text text-anchor="middle" x="1969.5" y="-245.5" font-family="Helvetica,sans-Serif" font-size="10.00">_CTX &gt;</text>
</a>
</g>
</g>
<!-- Node31&#45;&gt;Node32 -->
<g id="edge46_Node000032_Node000031" class="edge">
<title>Node31&#45;&gt;Node32</title>
<g id="a_edge46_Node000032_Node000031"><a xlink:title=" ">
<path fill="none" stroke="orange" stroke-dasharray="5,2" d="M1755.26,-339.4C1769.41,-332.63 1786.91,-324.66 1803,-318.5 1832.54,-307.19 1844.13,-314.19 1871,-297.5 1880.88,-291.36 1879.14,-284.66 1889,-278.5 1895.63,-274.36 1902.99,-270.85 1910.5,-267.9"/>
<polygon fill="orange" stroke="orange" points="1753.53,-336.35 1746.07,-343.87 1756.59,-342.65 1753.53,-336.35"/>
</a>
</g>
<text text-anchor="middle" x="1837" y="-321.5" font-family="Helvetica,sans-Serif" font-size="10.00" fill="grey"> &lt; SSL_CTX &gt;</text>
</g>
<!-- Node32&#45;&gt;Node1 -->
<g id="edge45_Node000001_Node000032" class="edge">
<title>Node32&#45;&gt;Node1</title>
<g id="a_edge45_Node000001_Node000032"><a xlink:title=" ">
<path fill="none" stroke="#9a32cd" stroke-dasharray="5,2" d="M2038.67,-253.5C2100.8,-253.5 2188.02,-253.5 2222.81,-253.5"/>
<polygon fill="#9a32cd" stroke="#9a32cd" points="2038.54,-250 2028.54,-253.5 2038.54,-257 2038.54,-250"/>
</a>
</g>
<text text-anchor="middle" x="2117" y="-256.5" font-family="Helvetica,sans-Serif" font-size="10.00" fill="grey"> dynamicTlsContext</text>
</g>
<!-- Node33&#45;&gt;Node1 -->
<g id="edge47_Node000001_Node000033" class="edge">
<title>Node33&#45;&gt;Node1</title>
<g id="a_edge47_Node000001_Node000033"><a xlink:title=" ">
<path fill="none" stroke="#9a32cd" stroke-dasharray="5,2" d="M873.44,-7.73C910.49,-7.08 954.68,-6.5 994.5,-6.5 994.5,-6.5 994.5,-6.5 1970.5,-6.5 2059.47,-6.5 2099.35,9.43 2166,-49.5 2226.49,-102.99 2236.16,-210.52 2237.71,-243.59"/>
<polygon fill="#9a32cd" stroke="#9a32cd" points="873.13,-4.23 863.2,-7.91 873.26,-11.23 873.13,-4.23"/>
</a>
</g>
<text text-anchor="middle" x="1466.5" y="-9.5" font-family="Helvetica,sans-Serif" font-size="10.00" fill="grey"> codeContext</text>
</g>
<!-- Node34&#45;&gt;Node33 -->
<g id="edge48_Node000033_Node000034" class="edge">
<title>Node34&#45;&gt;Node33</title>
<g id="a_edge48_Node000033_Node000034"><a xlink:title=" ">
<path fill="none" stroke="#9a32cd" stroke-dasharray="5,2" d="M595.84,-10.8C600.29,-10.68 604.73,-10.58 609,-10.5 644.05,-9.84 682.96,-9.57 715.57,-9.47"/>
<polygon fill="#9a32cd" stroke="#9a32cd" points="595.4,-7.31 585.5,-11.09 595.6,-14.31 595.4,-7.31"/>
</a>
</g>
<text text-anchor="middle" x="653.5" y="-13.5" font-family="Helvetica,sans-Serif" font-size="10.00" fill="grey"> p_</text>
</g>
<!-- Node35 -->
<g id="Node000035" class="node">
<title>Node35</title>
<g id="a_Node000035"><a xlink:href="classStopwatch.html" target="_top" xlink:title=" ">
<polygon fill="white" stroke="#666666" points="318,-22 250,-22 250,-3 318,-3 318,-22"/>
<text text-anchor="middle" x="284" y="-10" font-family="Helvetica,sans-Serif" font-size="10.00">Stopwatch</text>
</a>
</g>
</g>
<!-- Node35&#45;&gt;Node34 -->
<g id="edge50_Node000034_Node000035" class="edge">
<title>Node35&#45;&gt;Node34</title>
<g id="a_edge50_Node000034_Node000035"><a xlink:title=" ">
<path fill="none" stroke="#9a32cd" stroke-dasharray="5,2" d="M328.17,-12.5C377.51,-12.5 457.56,-12.5 505.22,-12.5"/>
<polygon fill="#9a32cd" stroke="#9a32cd" points="328.13,-9 318.13,-12.5 328.13,-16 328.13,-9"/>
</a>
</g>
<text text-anchor="middle" x="426" y="-15.5" font-family="Helvetica,sans-Serif" font-size="10.00" fill="grey"> busyTime</text>
</g>
</g>
</svg>

<g id="navigator" transform="translate(0 0)" fill="#404254">
  <rect fill="#f2f5e9" fill-opacity="0.5" stroke="#606060" stroke-width=".5" x="0" y="0" width="60" height="60"/>
  <use id="zoomplus" xlink:href="#zoomPlus" x="17" y="9" onmousedown="handleZoom(evt,'in')"/>
  <use id="zoomminus" xlink:href="#zoomMin" x="42" y="9" onmousedown="handleZoom(evt,'out')"/>
  <use id="reset" xlink:href="#resetDef" x="30" y="36" onmousedown="handleReset()"/>
   <use id="arrowup" xlink:href="#arrowUp" x="0" y="0" onmousedown="handlePan(0,-1)"/>
  <use id="arrowright" xlink:href="#arrowRight" x="0" y="0" onmousedown="handlePan(1,0)"/>
  <use id="arrowdown" xlink:href="#arrowDown" x="0" y="0" onmousedown="handlePan(0,1)"/>
  <use id="arrowleft" xlink:href="#arrowLeft" x="0" y="0" onmousedown="handlePan(-1,0)"/>
</g>
<svg viewBox="0 0 15 15" width="100%" height="30px" preserveAspectRatio="xMaxYMin meet">
 <g id="arrow_out" transform="scale(0.3 0.3)">
  <a xlink:href="classfde__coll__graph_org.svg" target="_base">
   <rect id="button" ry="5" rx="5" y="6" x="6" height="38" width="38"
        fill="#f2f5e9" fill-opacity="0.5" stroke="#606060" stroke-width="1.0"/>
   <path id="arrow"
     d="M 11.500037,31.436501 C 11.940474,20.09759 22.043105,11.32322 32.158766,21.979434 L 37.068811,17.246167 C 37.068811,17.246167 37.088388,32 37.088388,32 L 22.160133,31.978069 C 22.160133,31.978069 26.997745,27.140456 26.997745,27.140456 C 18.528582,18.264221 13.291696,25.230495 11.500037,31.436501 z"
     style="fill:#404040;"/>
  </a>
 </g>
</svg>

<style type='text/css'>
<![CDATA[
[data-mouse-over-selected='false'] { opacity: 0.7; }
[data-mouse-over-selected='true']  { opacity: 1.0; }
]]>
</style>
<script type="application/ecmascript"><![CDATA[
document.addEventListener('DOMContentLoaded', (event) => {
  highlightEdges();
  highlightAdjacentNodes();
});
]]></script>
</svg>
