<?xml version="1.0" encoding="UTF-8" standalone="no"?>
<!DOCTYPE svg PUBLIC "-//W3C//DTD SVG 1.1//EN"
 "http://www.w3.org/Graphics/SVG/1.1/DTD/svg11.dtd">
<!-- Generated by graphviz version 2.43.0 (0)
 -->
<!-- Title: Acl::CharacterSetOption Pages: 1 -->
<svg width="390pt" height="216pt"
 viewBox="0.00 0.00 390.00 216.00" xmlns="http://www.w3.org/2000/svg" xmlns:xlink="http://www.w3.org/1999/xlink">
<g id="graph0" class="graph" transform="scale(1 1) rotate(0) translate(4 212)">
<title>Acl::CharacterSetOption</title>
<!-- Node1 -->
<g id="Node000001" class="node">
<title>Node1</title>
<g id="a_Node000001"><a xlink:title="option value to configure one or more characters (e.g., &#45;m=&quot;,;&quot;)">
<polygon fill="#999999" stroke="#666666" points="200.5,-19 67.5,-19 67.5,0 200.5,0 200.5,-19"/>
<text text-anchor="middle" x="134" y="-7" font-family="Helvetica,sans-Serif" font-size="10.00">Acl::CharacterSetOption</text>
</a>
</g>
</g>
<!-- Node2 -->
<g id="Node000002" class="node">
<title>Node2</title>
<g id="a_Node000002"><a xlink:href="classAcl_1_1TypedOption.html" target="_top" xlink:title=" ">
<polygon fill="white" stroke="#666666" points="212.5,-86 55.5,-86 55.5,-56 212.5,-56 212.5,-86"/>
<text text-anchor="start" x="63.5" y="-74" font-family="Helvetica,sans-Serif" font-size="10.00">Acl::TypedOption&lt; Character</text>
<text text-anchor="middle" x="134" y="-63" font-family="Helvetica,sans-Serif" font-size="10.00">SetOptionValue &gt;</text>
</a>
</g>
</g>
<!-- Node2&#45;&gt;Node1 -->
<g id="edge1_Node000001_Node000002" class="edge">
<title>Node2&#45;&gt;Node1</title>
<g id="a_edge1_Node000001_Node000002"><a xlink:title=" ">
<path fill="none" stroke="#63b8ff" d="M134,-45.79C134,-36.36 134,-26.15 134,-19.16"/>
<polygon fill="#63b8ff" stroke="#63b8ff" points="130.5,-45.9 134,-55.9 137.5,-45.9 130.5,-45.9"/>
</a>
</g>
</g>
<!-- Node3 -->
<g id="Node000003" class="node">
<title>Node3</title>
<g id="a_Node000003"><a xlink:href="classAcl_1_1Option.html" target="_top" xlink:title="A single option supported by an ACL: &#45;x[=value] or –name[=value].">
<polygon fill="white" stroke="#666666" points="70,-208 0,-208 0,-189 70,-189 70,-208"/>
<text text-anchor="middle" x="35" y="-196" font-family="Helvetica,sans-Serif" font-size="10.00">Acl::Option</text>
</a>
</g>
</g>
<!-- Node3&#45;&gt;Node2 -->
<g id="edge2_Node000002_Node000003" class="edge">
<title>Node3&#45;&gt;Node2</title>
<g id="a_edge2_Node000002_Node000003"><a xlink:title=" ">
<path fill="none" stroke="#63b8ff" d="M32.98,-178.7C32.44,-165.06 33.67,-146.68 42,-133 55.05,-111.55 78.84,-96.08 98.95,-86.09"/>
<polygon fill="#63b8ff" stroke="#63b8ff" points="29.51,-179.13 33.75,-188.84 36.49,-178.6 29.51,-179.13"/>
</a>
</g>
</g>
<!-- Node5 -->
<g id="Node000005" class="node">
<title>Node5</title>
<g id="a_Node000005"><a xlink:href="classAcl_1_1TypedOption.html" target="_top" xlink:title="a type&#45;specific Option (e.g., a boolean –toggle or &#45;m=SBuf)">
<polygon fill="white" stroke="#666666" points="217.5,-152 50.5,-152 50.5,-133 217.5,-133 217.5,-152"/>
<text text-anchor="middle" x="134" y="-140" font-family="Helvetica,sans-Serif" font-size="10.00">Acl::TypedOption&lt; Recipient &gt;</text>
</a>
</g>
</g>
<!-- Node3&#45;&gt;Node5 -->
<g id="edge5_Node000005_Node000003" class="edge">
<title>Node3&#45;&gt;Node5</title>
<g id="a_edge5_Node000005_Node000003"><a xlink:title=" ">
<path fill="none" stroke="#63b8ff" d="M59.84,-183.95C78.11,-173.98 102.42,-160.73 118.13,-152.15"/>
<polygon fill="#63b8ff" stroke="#63b8ff" points="58.01,-180.96 50.91,-188.82 61.36,-187.11 58.01,-180.96"/>
</a>
</g>
</g>
<!-- Node4 -->
<g id="Node000004" class="node">
<title>Node4</title>
<g id="a_Node000004"><a xlink:href="classAcl_1_1OptionValue.html" target="_top" xlink:title="Stores configuration of a typical boolean flag or a single&#45;value Option.">
<polygon fill="white" stroke="#666666" points="382,-152 236,-152 236,-133 382,-133 382,-152"/>
<text text-anchor="middle" x="309" y="-140" font-family="Helvetica,sans-Serif" font-size="10.00">Acl::OptionValue&lt; Value &gt;</text>
</a>
</g>
</g>
<!-- Node4&#45;&gt;Node2 -->
<g id="edge3_Node000002_Node000004" class="edge">
<title>Node4&#45;&gt;Node2</title>
<g id="a_edge3_Node000002_Node000004"><a xlink:title=" ">
<path fill="none" stroke="#9a32cd" stroke-dasharray="5,2" d="M301.93,-123.81C298.21,-116.64 292.95,-108.9 286,-104 264.73,-89.01 237.9,-80.77 212.72,-76.32"/>
<polygon fill="#9a32cd" stroke="#9a32cd" points="298.75,-125.27 306.06,-132.93 305.12,-122.38 298.75,-125.27"/>
</a>
</g>
<text text-anchor="middle" x="321" y="-107" font-family="Helvetica,sans-Serif" font-size="10.00" fill="grey"> recipient_</text>
</g>
<!-- Node5&#45;&gt;Node2 -->
<g id="edge4_Node000002_Node000005" class="edge">
<title>Node5&#45;&gt;Node2</title>
<g id="a_edge4_Node000002_Node000005"><a xlink:title=" ">
<path fill="none" stroke="orange" stroke-dasharray="5,2" d="M134,-122.71C134,-111.19 134,-96.68 134,-86.14"/>
<polygon fill="orange" stroke="orange" points="130.5,-122.98 134,-132.98 137.5,-122.98 130.5,-122.98"/>
</a>
</g>
<text text-anchor="middle" x="208" y="-107" font-family="Helvetica,sans-Serif" font-size="10.00" fill="grey"> &lt; CharacterSetOptionValue &gt;</text>
</g>
</g>
</svg>
