<?xml version="1.0" encoding="UTF-8" standalone="no"?>
<!DOCTYPE svg PUBLIC "-//W3C//DTD SVG 1.1//EN"
 "http://www.w3.org/Graphics/SVG/1.1/DTD/svg11.dtd">
<!-- Generated by graphviz version 2.43.0 (0)
 -->
<!-- Title: DiskThreadsDiskFile Pages: 1 -->
<svg width="279pt" height="223pt"
 viewBox="0.00 0.00 279.00 223.00" xmlns="http://www.w3.org/2000/svg" xmlns:xlink="http://www.w3.org/1999/xlink">
<g id="graph0" class="graph" transform="scale(1 1) rotate(0) translate(4 219)">
<title>DiskThreadsDiskFile</title>
<!-- Node1 -->
<g id="Node000001" class="node">
<title>Node1</title>
<g id="a_Node000001"><a xlink:title=" ">
<polygon fill="#999999" stroke="#666666" points="116,-19 0,-19 0,0 116,0 116,-19"/>
<text text-anchor="middle" x="58" y="-7" font-family="Helvetica,sans-Serif" font-size="10.00">DiskThreadsDiskFile</text>
</a>
</g>
</g>
<!-- Node2 -->
<g id="Node000002" class="node">
<title>Node2</title>
<g id="a_Node000002"><a xlink:href="classDiskFile.html" target="_top" xlink:title=" ">
<polygon fill="white" stroke="#666666" points="70,-122 14,-122 14,-103 70,-103 70,-122"/>
<text text-anchor="middle" x="42" y="-110" font-family="Helvetica,sans-Serif" font-size="10.00">DiskFile</text>
</a>
</g>
</g>
<!-- Node2&#45;&gt;Node1 -->
<g id="edge1_Node000001_Node000002" class="edge">
<title>Node2&#45;&gt;Node1</title>
<g id="a_edge1_Node000001_Node000002"><a xlink:title=" ">
<path fill="none" stroke="#63b8ff" d="M44.96,-92.81C48.44,-70.84 54.07,-35.32 56.64,-19.09"/>
<polygon fill="#63b8ff" stroke="#63b8ff" points="41.47,-92.46 43.36,-102.89 48.39,-93.56 41.47,-92.46"/>
</a>
</g>
</g>
<!-- Node3 -->
<g id="Node000003" class="node">
<title>Node3</title>
<g id="a_Node000003"><a xlink:title=" ">
<polygon fill="white" stroke="#666666" points="95.5,-215 12.5,-215 12.5,-196 95.5,-196 95.5,-215"/>
<text text-anchor="middle" x="54" y="-203" font-family="Helvetica,sans-Serif" font-size="10.00">RefCountable</text>
</a>
</g>
</g>
<!-- Node3&#45;&gt;Node2 -->
<g id="edge2_Node000002_Node000003" class="edge">
<title>Node3&#45;&gt;Node2</title>
<g id="a_edge2_Node000002_Node000003"><a xlink:title=" ">
<path fill="none" stroke="#63b8ff" d="M51.51,-185.64C48.94,-166.13 45.04,-136.53 43.13,-122.07"/>
<polygon fill="#63b8ff" stroke="#63b8ff" points="48.07,-186.32 52.85,-195.77 55.01,-185.4 48.07,-186.32"/>
</a>
</g>
</g>
<!-- Node5 -->
<g id="Node000005" class="node">
<title>Node5</title>
<g id="a_Node000005"><a xlink:href="classIORequestor.html" target="_top" xlink:title=" ">
<polygon fill="white" stroke="#666666" points="147.5,-159 70.5,-159 70.5,-140 147.5,-140 147.5,-159"/>
<text text-anchor="middle" x="109" y="-147" font-family="Helvetica,sans-Serif" font-size="10.00">IORequestor</text>
</a>
</g>
</g>
<!-- Node3&#45;&gt;Node5 -->
<g id="edge5_Node000005_Node000003" class="edge">
<title>Node3&#45;&gt;Node5</title>
<g id="a_edge5_Node000005_Node000003"><a xlink:title=" ">
<path fill="none" stroke="#63b8ff" d="M70.29,-188.5C80.04,-178.93 92.05,-167.14 100.09,-159.25"/>
<polygon fill="#63b8ff" stroke="#63b8ff" points="67.77,-186.08 63.08,-195.58 72.67,-191.07 67.77,-186.08"/>
</a>
</g>
</g>
<!-- Node4 -->
<g id="Node000004" class="node">
<title>Node4</title>
<g id="a_Node000004"><a xlink:href="classRefCount.html" target="_top" xlink:title=" ">
<polygon fill="white" stroke="#666666" points="214,-85 70,-85 70,-66 214,-66 214,-85"/>
<text text-anchor="middle" x="142" y="-73" font-family="Helvetica,sans-Serif" font-size="10.00">RefCount&lt; IORequestor &gt;</text>
</a>
</g>
</g>
<!-- Node4&#45;&gt;Node1 -->
<g id="edge3_Node000001_Node000004" class="edge">
<title>Node4&#45;&gt;Node1</title>
<g id="a_edge3_Node000001_Node000004"><a xlink:title=" ">
<path fill="none" stroke="#9a32cd" stroke-dasharray="5,2" d="M122.3,-59.49C105.85,-46.96 82.99,-29.54 69.42,-19.2"/>
<polygon fill="#9a32cd" stroke="#9a32cd" points="120.6,-62.59 130.67,-65.87 124.84,-57.02 120.6,-62.59"/>
</a>
</g>
<text text-anchor="middle" x="137" y="-40" font-family="Helvetica,sans-Serif" font-size="10.00" fill="grey"> ioRequestor</text>
</g>
<!-- Node5&#45;&gt;Node4 -->
<g id="edge4_Node000004_Node000005" class="edge">
<title>Node5&#45;&gt;Node4</title>
<g id="a_edge4_Node000004_Node000005"><a xlink:title=" ">
<path fill="none" stroke="#9a32cd" stroke-dasharray="5,2" d="M117.25,-130.51C123.91,-115.98 132.98,-96.18 138.09,-85.03"/>
<polygon fill="#9a32cd" stroke="#9a32cd" points="113.9,-129.41 112.92,-139.96 120.26,-132.33 113.9,-129.41"/>
</a>
</g>
<text text-anchor="middle" x="137.5" y="-110" font-family="Helvetica,sans-Serif" font-size="10.00" fill="grey"> p_</text>
</g>
<!-- Node6 -->
<g id="Node000006" class="node">
<title>Node6</title>
<g id="a_Node000006"><a xlink:href="classRefCount.html" target="_top" xlink:title=" ">
<polygon fill="white" stroke="#666666" points="256.5,-159 165.5,-159 165.5,-140 256.5,-140 256.5,-159"/>
<text text-anchor="middle" x="211" y="-147" font-family="Helvetica,sans-Serif" font-size="10.00">RefCount&lt; C &gt;</text>
</a>
</g>
</g>
<!-- Node6&#45;&gt;Node4 -->
<g id="edge6_Node000004_Node000006" class="edge">
<title>Node6&#45;&gt;Node4</title>
<g id="a_edge6_Node000004_Node000006"><a xlink:title=" ">
<path fill="none" stroke="orange" stroke-dasharray="5,2" d="M195.75,-132.59C181.7,-117.92 161.37,-96.72 150.18,-85.03"/>
<polygon fill="orange" stroke="orange" points="193.37,-135.16 202.81,-139.96 198.42,-130.32 193.37,-135.16"/>
</a>
</g>
<text text-anchor="middle" x="228" y="-110" font-family="Helvetica,sans-Serif" font-size="10.00" fill="grey"> &lt; IORequestor &gt;</text>
</g>
</g>
</svg>
