<?xml version="1.0" encoding="UTF-8" standalone="no"?>
<!DOCTYPE svg PUBLIC "-//W3C//DTD SVG 1.1//EN"
 "http://www.w3.org/Graphics/SVG/1.1/DTD/svg11.dtd">
<!-- Generated by graphviz version 2.43.0 (0)
 -->
<!-- Title: Helper::Xaction Pages: 1 -->
<svg width="354pt" height="368pt"
 viewBox="0.00 0.00 354.00 368.00" xmlns="http://www.w3.org/2000/svg" xmlns:xlink="http://www.w3.org/1999/xlink">

<svg id="main" version="1.1" xmlns="http://www.w3.org/2000/svg" xmlns:xlink="http://www.w3.org/1999/xlink" xml:space="preserve" onload="init(evt)">
<style type="text/css"><![CDATA[
.node, .edge {opacity: 0.7;}
.node.selected, .edge.selected {opacity: 1;}
.edge:hover path { stroke: red; }
.edge:hover polygon { stroke: red; fill: red; }
]]></style>
<script type="application/ecmascript" xlink:href="svg.min.js"/>
<svg id="graph" class="graph">
<g id="graph0" class="graph" transform="scale(1 1) rotate(0) translate(4 364)">
<title>Helper::Xaction</title>
<!-- Node1 -->
<g id="Node000001" class="node">
<title>Node1</title>
<g id="a_Node000001"><a xlink:title="Holds the required data to serve a helper request.">
<polygon fill="#999999" stroke="#666666" points="178.5,-19 86.5,-19 86.5,0 178.5,0 178.5,-19"/>
<text text-anchor="middle" x="132.5" y="-7" font-family="Helvetica,sans-Serif" font-size="10.00">Helper::Xaction</text>
</a>
</g>
</g>
<!-- Node2 -->
<g id="Node000002" class="node">
<title>Node2</title>
<g id="a_Node000002"><a xlink:href="classHelper_1_1Request.html" target="_top" xlink:title=" ">
<polygon fill="white" stroke="#666666" points="149,-85 54,-85 54,-66 149,-66 149,-85"/>
<text text-anchor="middle" x="101.5" y="-73" font-family="Helvetica,sans-Serif" font-size="10.00">Helper::Request</text>
</a>
</g>
</g>
<!-- Node2&#45;&gt;Node1 -->
<g id="edge1_Node000001_Node000002" class="edge">
<title>Node2&#45;&gt;Node1</title>
<g id="a_edge1_Node000001_Node000002"><a xlink:title=" ">
<path fill="none" stroke="#9a32cd" stroke-dasharray="5,2" d="M110.13,-56.68C116.01,-44.55 123.53,-29.01 128.19,-19.41"/>
<polygon fill="#9a32cd" stroke="#9a32cd" points="106.89,-55.34 105.68,-65.87 113.19,-58.39 106.89,-55.34"/>
</a>
</g>
<text text-anchor="middle" x="139.5" y="-40" font-family="Helvetica,sans-Serif" font-size="10.00" fill="grey"> request</text>
</g>
<!-- Node3 -->
<g id="Node000003" class="node">
<title>Node3</title>
<g id="a_Node000003"><a xlink:href="classHelper_1_1Reply.html" target="_top" xlink:title=" ">
<polygon fill="white" stroke="#666666" points="250,-85 167,-85 167,-66 250,-66 250,-85"/>
<text text-anchor="middle" x="208.5" y="-73" font-family="Helvetica,sans-Serif" font-size="10.00">Helper::Reply</text>
</a>
</g>
</g>
<!-- Node3&#45;&gt;Node1 -->
<g id="edge2_Node000001_Node000003" class="edge">
<title>Node3&#45;&gt;Node1</title>
<g id="a_edge2_Node000001_Node000003"><a xlink:title=" ">
<path fill="none" stroke="#9a32cd" stroke-dasharray="5,2" d="M190.31,-59.18C175.56,-46.76 155.28,-29.68 143.07,-19.41"/>
<polygon fill="#9a32cd" stroke="#9a32cd" points="188.35,-62.1 198.25,-65.87 192.86,-56.75 188.35,-62.1"/>
</a>
</g>
<text text-anchor="middle" x="189.5" y="-40" font-family="Helvetica,sans-Serif" font-size="10.00" fill="grey"> reply</text>
</g>
<!-- Node4 -->
<g id="Node000004" class="node">
<title>Node4</title>
<g id="a_Node000004"><a xlink:href="classNotePairs.html" target="_top" xlink:title=" ">
<polygon fill="white" stroke="#666666" points="129,-151 66,-151 66,-132 129,-132 129,-151"/>
<text text-anchor="middle" x="97.5" y="-139" font-family="Helvetica,sans-Serif" font-size="10.00">NotePairs</text>
</a>
</g>
</g>
<!-- Node4&#45;&gt;Node3 -->
<g id="edge3_Node000003_Node000004" class="edge">
<title>Node4&#45;&gt;Node3</title>
<g id="a_edge3_Node000003_Node000004"><a xlink:title=" ">
<path fill="none" stroke="#9a32cd" stroke-dasharray="5,2" d="M121.16,-126.86C143.01,-114.26 174.82,-95.92 193.41,-85.2"/>
<polygon fill="#9a32cd" stroke="#9a32cd" points="119.38,-123.84 112.47,-131.87 122.88,-129.91 119.38,-123.84"/>
</a>
</g>
<text text-anchor="middle" x="176" y="-106" font-family="Helvetica,sans-Serif" font-size="10.00" fill="grey"> notes</text>
</g>
<!-- Node5 -->
<g id="Node000005" class="node">
<title>Node5</title>
<g id="a_Node000005"><a xlink:title=" ">
<polygon fill="white" stroke="#666666" points="83,-222.5 0,-222.5 0,-203.5 83,-203.5 83,-222.5"/>
<text text-anchor="middle" x="41.5" y="-210.5" font-family="Helvetica,sans-Serif" font-size="10.00">RefCountable</text>
</a>
</g>
</g>
<!-- Node5&#45;&gt;Node4 -->
<g id="edge4_Node000004_Node000005" class="edge">
<title>Node5&#45;&gt;Node4</title>
<g id="a_edge4_Node000004_Node000005"><a xlink:title=" ">
<path fill="none" stroke="#63b8ff" d="M54.69,-195.63C65.93,-181.68 81.65,-162.17 90.58,-151.09"/>
<polygon fill="#63b8ff" stroke="#63b8ff" points="51.92,-193.5 48.37,-203.48 57.37,-197.89 51.92,-193.5"/>
</a>
</g>
</g>
<!-- Node6 -->
<g id="Node000006" class="node">
<title>Node6</title>
<g id="a_Node000006"><a xlink:title=" ">
<polygon fill="white" stroke="#666666" points="206,-228 101,-228 101,-198 206,-198 206,-228"/>
<text text-anchor="start" x="109" y="-216" font-family="Helvetica,sans-Serif" font-size="10.00">std::vector&lt; Entry</text>
<text text-anchor="middle" x="153.5" y="-205" font-family="Helvetica,sans-Serif" font-size="10.00">::Pointer &gt;</text>
</a>
</g>
</g>
<!-- Node6&#45;&gt;Node4 -->
<g id="edge5_Node000004_Node000006" class="edge">
<title>Node6&#45;&gt;Node4</title>
<g id="a_edge5_Node000004_Node000006"><a xlink:title=" ">
<path fill="none" stroke="#9a32cd" stroke-dasharray="5,2" d="M135.63,-189.83C125.09,-176.74 112.32,-160.9 104.56,-151.27"/>
<polygon fill="#9a32cd" stroke="#9a32cd" points="133.17,-192.34 142.17,-197.94 138.62,-187.95 133.17,-192.34"/>
</a>
</g>
<text text-anchor="middle" x="146" y="-172" font-family="Helvetica,sans-Serif" font-size="10.00" fill="grey"> entries</text>
</g>
<!-- Node7 -->
<g id="Node000007" class="node">
<title>Node7</title>
<g id="a_Node000007"><a xlink:href="classRefCount.html" target="_top" xlink:title=" ">
<polygon fill="white" stroke="#666666" points="153,-294 62,-294 62,-275 153,-275 153,-294"/>
<text text-anchor="middle" x="107.5" y="-282" font-family="Helvetica,sans-Serif" font-size="10.00">RefCount&lt; C &gt;</text>
</a>
</g>
</g>
<!-- Node7&#45;&gt;Node6 -->
<g id="edge6_Node000006_Node000007" class="edge">
<title>Node7&#45;&gt;Node6</title>
<g id="a_edge6_Node000006_Node000007"><a xlink:title=" ">
<path fill="none" stroke="#9a32cd" stroke-dasharray="5,2" d="M116.68,-265.82C120.17,-259.45 124.32,-252.28 128.5,-246 132.48,-240.01 137.26,-233.72 141.57,-228.31"/>
<polygon fill="#9a32cd" stroke="#9a32cd" points="113.43,-264.47 111.81,-274.94 119.61,-267.76 113.43,-264.47"/>
</a>
</g>
<text text-anchor="middle" x="153" y="-249" font-family="Helvetica,sans-Serif" font-size="10.00" fill="grey"> elements</text>
</g>
<!-- Node8 -->
<g id="Node000008" class="node">
<title>Node8</title>
<g id="a_Node000008"><a xlink:title=" ">
<polygon fill="white" stroke="#666666" points="268,-294 171,-294 171,-275 268,-275 268,-294"/>
<text text-anchor="middle" x="219.5" y="-282" font-family="Helvetica,sans-Serif" font-size="10.00">std::vector&lt; T &gt;</text>
</a>
</g>
</g>
<!-- Node8&#45;&gt;Node6 -->
<g id="edge7_Node000006_Node000008" class="edge">
<title>Node8&#45;&gt;Node6</title>
<g id="a_edge7_Node000006_Node000008"><a xlink:title=" ">
<path fill="none" stroke="orange" stroke-dasharray="5,2" d="M204.33,-267.53C193.04,-255.64 177.77,-239.56 166.93,-228.14"/>
<polygon fill="orange" stroke="orange" points="201.98,-270.14 211.41,-274.98 207.06,-265.32 201.98,-270.14"/>
</a>
</g>
<text text-anchor="middle" x="238" y="-249" font-family="Helvetica,sans-Serif" font-size="10.00" fill="grey"> &lt; Entry::Pointer &gt;</text>
</g>
<!-- Node9 -->
<g id="Node000009" class="node">
<title>Node9</title>
<g id="a_Node000009"><a xlink:title=" ">
<polygon fill="white" stroke="#666666" points="234,-360 205,-360 205,-341 234,-341 234,-360"/>
<text text-anchor="middle" x="219.5" y="-348" font-family="Helvetica,sans-Serif" font-size="10.00">T</text>
</a>
</g>
</g>
<!-- Node9&#45;&gt;Node8 -->
<g id="edge8_Node000008_Node000009" class="edge">
<title>Node9&#45;&gt;Node8</title>
<g id="a_edge8_Node000008_Node000009"><a xlink:title=" ">
<path fill="none" stroke="#9a32cd" stroke-dasharray="5,2" d="M219.5,-330.58C219.5,-318.63 219.5,-303.72 219.5,-294.41"/>
<polygon fill="#9a32cd" stroke="#9a32cd" points="216,-330.87 219.5,-340.87 223,-330.87 216,-330.87"/>
</a>
</g>
<text text-anchor="middle" x="244" y="-315" font-family="Helvetica,sans-Serif" font-size="10.00" fill="grey"> elements</text>
</g>
<!-- Node10 -->
<g id="Node000010" class="node">
<title>Node10</title>
<g id="a_Node000010"><a xlink:href="classHelper_1_1ReservationId.html" target="_top" xlink:title="a (temporary) lock on a (stateful) helper channel">
<polygon fill="white" stroke="#666666" points="269.5,-151 147.5,-151 147.5,-132 269.5,-132 269.5,-151"/>
<text text-anchor="middle" x="208.5" y="-139" font-family="Helvetica,sans-Serif" font-size="10.00">Helper::ReservationId</text>
</a>
</g>
</g>
<!-- Node10&#45;&gt;Node3 -->
<g id="edge9_Node000003_Node000010" class="edge">
<title>Node10&#45;&gt;Node3</title>
<g id="a_edge9_Node000003_Node000010"><a xlink:title=" ">
<path fill="none" stroke="#9a32cd" stroke-dasharray="5,2" d="M208.5,-121.58C208.5,-109.63 208.5,-94.72 208.5,-85.41"/>
<polygon fill="#9a32cd" stroke="#9a32cd" points="205,-121.87 208.5,-131.87 212,-121.87 205,-121.87"/>
</a>
</g>
<text text-anchor="middle" x="242.5" y="-106" font-family="Helvetica,sans-Serif" font-size="10.00" fill="grey"> reservationId</text>
</g>
<!-- Node11 -->
<g id="Node000011" class="node">
<title>Node11</title>
<g id="a_Node000011"><a xlink:href="classMemBuf.html" target="_top" xlink:title=" ">
<polygon fill="white" stroke="#666666" points="345.5,-151 287.5,-151 287.5,-132 345.5,-132 345.5,-151"/>
<text text-anchor="middle" x="316.5" y="-139" font-family="Helvetica,sans-Serif" font-size="10.00">MemBuf</text>
</a>
</g>
</g>
<!-- Node11&#45;&gt;Node3 -->
<g id="edge10_Node000003_Node000011" class="edge">
<title>Node11&#45;&gt;Node3</title>
<g id="a_edge10_Node000003_Node000011"><a xlink:title=" ">
<path fill="none" stroke="#9a32cd" stroke-dasharray="5,2" d="M303.67,-124.07C297.33,-116.83 289.19,-108.68 280.5,-103 268.57,-95.2 254.04,-89.29 241.16,-85.05"/>
<polygon fill="#9a32cd" stroke="#9a32cd" points="301.13,-126.5 310.21,-131.97 306.53,-122.03 301.13,-126.5"/>
</a>
</g>
<text text-anchor="middle" x="311.5" y="-106" font-family="Helvetica,sans-Serif" font-size="10.00" fill="grey"> other_</text>
</g>
<!-- Node12 -->
<g id="Node000012" class="node">
<title>Node12</title>
<g id="a_Node000012"><a xlink:href="classPackable.html" target="_top" xlink:title=" ">
<polygon fill="white" stroke="#666666" points="346,-222.5 287,-222.5 287,-203.5 346,-203.5 346,-222.5"/>
<text text-anchor="middle" x="316.5" y="-210.5" font-family="Helvetica,sans-Serif" font-size="10.00">Packable</text>
</a>
</g>
</g>
<!-- Node12&#45;&gt;Node11 -->
<g id="edge11_Node000011_Node000012" class="edge">
<title>Node12&#45;&gt;Node11</title>
<g id="a_edge11_Node000011_Node000012"><a xlink:title=" ">
<path fill="none" stroke="#63b8ff" d="M316.5,-193.21C316.5,-179.5 316.5,-161.55 316.5,-151.09"/>
<polygon fill="#63b8ff" stroke="#63b8ff" points="313,-193.48 316.5,-203.48 320,-193.48 313,-193.48"/>
</a>
</g>
</g>
</g>
</svg>
</svg>

<style type='text/css'>
<![CDATA[
[data-mouse-over-selected='false'] { opacity: 0.7; }
[data-mouse-over-selected='true']  { opacity: 1.0; }
]]>
</style>
<script type="application/ecmascript"><![CDATA[
document.addEventListener('DOMContentLoaded', (event) => {
  highlightEdges();
  highlightAdjacentNodes();
});
]]></script>
</svg>
