<?xml version="1.0" encoding="UTF-8" standalone="no"?>
<!DOCTYPE svg PUBLIC "-//W3C//DTD SVG 1.1//EN"
 "http://www.w3.org/Graphics/SVG/1.1/DTD/svg11.dtd">
<!-- Generated by graphviz version 2.43.0 (0)
 -->
<!-- Title: Security::PeerConnector Pages: 1 -->
<svg width="478pt" height="192pt"
 viewBox="0.00 0.00 477.50 192.00" xmlns="http://www.w3.org/2000/svg" xmlns:xlink="http://www.w3.org/1999/xlink">

<svg id="main" version="1.1" xmlns="http://www.w3.org/2000/svg" xmlns:xlink="http://www.w3.org/1999/xlink" xml:space="preserve" onload="init(evt)">
<style type="text/css"><![CDATA[
.node, .edge {opacity: 0.7;}
.node.selected, .edge.selected {opacity: 1;}
.edge:hover path { stroke: red; }
.edge:hover polygon { stroke: red; fill: red; }
]]></style>
<script type="application/ecmascript" xlink:href="svg.min.js"/>
<svg id="graph" class="graph">
<g id="graph0" class="graph" transform="scale(1 1) rotate(0) translate(4 188)">
<title>Security::PeerConnector</title>
<!-- Node1 -->
<g id="Node000001" class="node">
<title>Node1</title>
<g id="a_Node000001"><a xlink:title=" ">
<polygon fill="#999999" stroke="#666666" points="306.5,-74 173.5,-74 173.5,-55 306.5,-55 306.5,-74"/>
<text text-anchor="middle" x="240" y="-62" font-family="Helvetica,sans-Serif" font-size="10.00">Security::PeerConnector</text>
</a>
</g>
</g>
<!-- Node5 -->
<g id="Node000005" class="node">
<title>Node5</title>
<g id="a_Node000005"><a xlink:href="classSecurity_1_1BlindPeerConnector.html" target="_top" xlink:title="A PeerConnector for TLS cache_peers and origin servers. No SslBump capabilities.">
<polygon fill="white" stroke="#666666" points="158,-19 0,-19 0,0 158,0 158,-19"/>
<text text-anchor="middle" x="79" y="-7" font-family="Helvetica,sans-Serif" font-size="10.00">Security::BlindPeerConnector</text>
</a>
</g>
</g>
<!-- Node1&#45;&gt;Node5 -->
<g id="edge4_Node000001_Node000005" class="edge">
<title>Node1&#45;&gt;Node5</title>
<g id="a_edge4_Node000001_Node000005"><a xlink:title=" ">
<path fill="none" stroke="#63b8ff" d="M204.45,-51.8C174.41,-41.91 132.06,-27.97 105.07,-19.08"/>
<polygon fill="#63b8ff" stroke="#63b8ff" points="203.54,-55.18 214.13,-54.98 205.73,-48.53 203.54,-55.18"/>
</a>
</g>
</g>
<!-- Node6 -->
<g id="Node000006" class="node">
<title>Node6</title>
<g id="a_Node000006"><a xlink:href="classSsl_1_1IcapPeerConnector.html" target="_top" xlink:title="A simple PeerConnector for Secure ICAP services. No SslBump capabilities.">
<polygon fill="white" stroke="#666666" points="304,-19 176,-19 176,0 304,0 304,-19"/>
<text text-anchor="middle" x="240" y="-7" font-family="Helvetica,sans-Serif" font-size="10.00">Ssl::IcapPeerConnector</text>
</a>
</g>
</g>
<!-- Node1&#45;&gt;Node6 -->
<g id="edge5_Node000001_Node000006" class="edge">
<title>Node1&#45;&gt;Node6</title>
<g id="a_edge5_Node000001_Node000006"><a xlink:title=" ">
<path fill="none" stroke="#63b8ff" d="M240,-44.66C240,-35.93 240,-25.99 240,-19.09"/>
<polygon fill="#63b8ff" stroke="#63b8ff" points="236.5,-44.75 240,-54.75 243.5,-44.75 236.5,-44.75"/>
</a>
</g>
</g>
<!-- Node7 -->
<g id="Node000007" class="node">
<title>Node7</title>
<g id="a_Node000007"><a xlink:href="classSsl_1_1PeekingPeerConnector.html" target="_top" xlink:title="A PeerConnector for HTTP origin servers. Capable of SslBumping.">
<polygon fill="white" stroke="#666666" points="469.5,-19 322.5,-19 322.5,0 469.5,0 469.5,-19"/>
<text text-anchor="middle" x="396" y="-7" font-family="Helvetica,sans-Serif" font-size="10.00">Ssl::PeekingPeerConnector</text>
</a>
</g>
</g>
<!-- Node1&#45;&gt;Node7 -->
<g id="edge6_Node000001_Node000007" class="edge">
<title>Node1&#45;&gt;Node7</title>
<g id="a_edge6_Node000001_Node000007"><a xlink:title=" ">
<path fill="none" stroke="#63b8ff" d="M274.82,-51.67C303.91,-41.79 344.7,-27.93 370.74,-19.08"/>
<polygon fill="#63b8ff" stroke="#63b8ff" points="273.41,-48.45 265.06,-54.98 275.66,-55.08 273.41,-48.45"/>
</a>
</g>
</g>
<!-- Node2 -->
<g id="Node000002" class="node">
<title>Node2</title>
<g id="a_Node000002"><a xlink:href="classAsyncJob.html" target="_top" xlink:title=" ">
<polygon fill="white" stroke="#666666" points="219.5,-129 158.5,-129 158.5,-110 219.5,-110 219.5,-129"/>
<text text-anchor="middle" x="189" y="-117" font-family="Helvetica,sans-Serif" font-size="10.00">AsyncJob</text>
</a>
</g>
</g>
<!-- Node2&#45;&gt;Node1 -->
<g id="edge1_Node000001_Node000002" class="edge">
<title>Node2&#45;&gt;Node1</title>
<g id="a_edge1_Node000001_Node000002"><a xlink:title=" ">
<path fill="none" stroke="#63b8ff" d="M204.38,-102.52C213.37,-93.18 224.36,-81.75 231.74,-74.09"/>
<polygon fill="#63b8ff" stroke="#63b8ff" points="201.83,-100.12 197.42,-109.75 206.88,-104.97 201.83,-100.12"/>
</a>
</g>
</g>
<!-- Node3 -->
<g id="Node000003" class="node">
<title>Node3</title>
<g id="a_Node000003"><a xlink:href="classCbdataParent.html" target="_top" xlink:title=" ">
<polygon fill="white" stroke="#666666" points="230,-184 148,-184 148,-165 230,-165 230,-184"/>
<text text-anchor="middle" x="189" y="-172" font-family="Helvetica,sans-Serif" font-size="10.00">CbdataParent</text>
</a>
</g>
</g>
<!-- Node3&#45;&gt;Node2 -->
<g id="edge2_Node000002_Node000003" class="edge">
<title>Node3&#45;&gt;Node2</title>
<g id="a_edge2_Node000002_Node000003"><a xlink:title=" ">
<path fill="none" stroke="#63b8ff" d="M189,-154.66C189,-145.93 189,-135.99 189,-129.09"/>
<polygon fill="#63b8ff" stroke="#63b8ff" points="185.5,-154.75 189,-164.75 192.5,-154.75 185.5,-154.75"/>
</a>
</g>
</g>
<!-- Node4 -->
<g id="Node000004" class="node">
<title>Node4</title>
<g id="a_Node000004"><a xlink:href="classAcl_1_1ChecklistFiller.html" target="_top" xlink:title="an interface for those capable of configuring an ACLFilledChecklist object">
<polygon fill="white" stroke="#666666" points="344.5,-129 237.5,-129 237.5,-110 344.5,-110 344.5,-129"/>
<text text-anchor="middle" x="291" y="-117" font-family="Helvetica,sans-Serif" font-size="10.00">Acl::ChecklistFiller</text>
</a>
</g>
</g>
<!-- Node4&#45;&gt;Node1 -->
<g id="edge3_Node000001_Node000004" class="edge">
<title>Node4&#45;&gt;Node1</title>
<g id="a_edge3_Node000001_Node000004"><a xlink:title=" ">
<path fill="none" stroke="#63b8ff" d="M275.62,-102.52C266.63,-93.18 255.64,-81.75 248.26,-74.09"/>
<polygon fill="#63b8ff" stroke="#63b8ff" points="273.12,-104.97 282.58,-109.75 278.17,-100.12 273.12,-104.97"/>
</a>
</g>
</g>
</g>
</svg>
</svg>

<style type='text/css'>
<![CDATA[
[data-mouse-over-selected='false'] { opacity: 0.7; }
[data-mouse-over-selected='true']  { opacity: 1.0; }
]]>
</style>
<script type="application/ecmascript"><![CDATA[
document.addEventListener('DOMContentLoaded', (event) => {
  highlightEdges();
  highlightAdjacentNodes();
});
]]></script>
</svg>
