<?xml version="1.0" encoding="UTF-8" standalone="no"?>
<!DOCTYPE svg PUBLIC "-//W3C//DTD SVG 1.1//EN"
 "http://www.w3.org/Graphics/SVG/1.1/DTD/svg11.dtd">
<!-- Generated by graphviz version 2.43.0 (0)
 -->
<!-- Title: CommCommonCbParams Pages: 1 -->
<svg width="324pt" height="175pt"
 viewBox="0.00 0.00 324.00 175.00" xmlns="http://www.w3.org/2000/svg" xmlns:xlink="http://www.w3.org/1999/xlink">

<svg id="main" version="1.1" xmlns="http://www.w3.org/2000/svg" xmlns:xlink="http://www.w3.org/1999/xlink" xml:space="preserve" onload="init(evt)">
<style type="text/css"><![CDATA[
.node, .edge {opacity: 0.7;}
.node.selected, .edge.selected {opacity: 1;}
.edge:hover path { stroke: red; }
.edge:hover polygon { stroke: red; fill: red; }
]]></style>
<script type="application/ecmascript" xlink:href="svg.min.js"/>
<svg id="graph" class="graph">
<g id="graph0" class="graph" transform="scale(1 1) rotate(0) translate(4 171)">
<title>CommCommonCbParams</title>
<!-- Node1 -->
<g id="Node000001" class="node">
<title>Node1</title>
<g id="a_Node000001"><a xlink:title=" ">
<polygon fill="#999999" stroke="#666666" points="142,-93 0,-93 0,-74 142,-74 142,-93"/>
<text text-anchor="middle" x="71" y="-81" font-family="Helvetica,sans-Serif" font-size="10.00">CommCommonCbParams</text>
</a>
</g>
</g>
<!-- Node2 -->
<g id="Node000002" class="node">
<title>Node2</title>
<g id="a_Node000002"><a xlink:href="classCommAcceptCbParams.html" target="_top" xlink:title=" ">
<polygon fill="white" stroke="#666666" points="312.5,-167 181.5,-167 181.5,-148 312.5,-148 312.5,-167"/>
<text text-anchor="middle" x="247" y="-155" font-family="Helvetica,sans-Serif" font-size="10.00">CommAcceptCbParams</text>
</a>
</g>
</g>
<!-- Node1&#45;&gt;Node2 -->
<g id="edge1_Node000001_Node000002" class="edge">
<title>Node1&#45;&gt;Node2</title>
<g id="a_edge1_Node000001_Node000002"><a xlink:title=" ">
<path fill="none" stroke="#63b8ff" d="M96.14,-98.29C117.15,-110.66 148.75,-128.07 178,-139.5 186.19,-142.7 195.15,-145.52 203.8,-147.93"/>
<polygon fill="#63b8ff" stroke="#63b8ff" points="97.66,-95.12 87.28,-93 94.07,-101.13 97.66,-95.12"/>
</a>
</g>
</g>
<!-- Node3 -->
<g id="Node000003" class="node">
<title>Node3</title>
<g id="a_Node000003"><a xlink:href="classCommCloseCbParams.html" target="_top" xlink:title=" ">
<polygon fill="white" stroke="#666666" points="309.5,-130 184.5,-130 184.5,-111 309.5,-111 309.5,-130"/>
<text text-anchor="middle" x="247" y="-118" font-family="Helvetica,sans-Serif" font-size="10.00">CommCloseCbParams</text>
</a>
</g>
</g>
<!-- Node1&#45;&gt;Node3 -->
<g id="edge2_Node000001_Node000003" class="edge">
<title>Node1&#45;&gt;Node3</title>
<g id="a_edge2_Node000001_Node000003"><a xlink:title=" ">
<path fill="none" stroke="#63b8ff" d="M126.8,-95.15C150.7,-100.23 178.37,-106.12 201.04,-110.94"/>
<polygon fill="#63b8ff" stroke="#63b8ff" points="127.32,-91.68 116.81,-93.03 125.86,-98.53 127.32,-91.68"/>
</a>
</g>
</g>
<!-- Node4 -->
<g id="Node000004" class="node">
<title>Node4</title>
<g id="a_Node000004"><a xlink:href="classCommConnectCbParams.html" target="_top" xlink:title=" ">
<polygon fill="white" stroke="#666666" points="315.5,-93 178.5,-93 178.5,-74 315.5,-74 315.5,-93"/>
<text text-anchor="middle" x="247" y="-81" font-family="Helvetica,sans-Serif" font-size="10.00">CommConnectCbParams</text>
</a>
</g>
</g>
<!-- Node1&#45;&gt;Node4 -->
<g id="edge3_Node000001_Node000004" class="edge">
<title>Node1&#45;&gt;Node4</title>
<g id="a_edge3_Node000001_Node000004"><a xlink:title=" ">
<path fill="none" stroke="#63b8ff" d="M152.22,-83.5C160.97,-83.5 169.81,-83.5 178.38,-83.5"/>
<polygon fill="#63b8ff" stroke="#63b8ff" points="152.02,-80 142.02,-83.5 152.02,-87 152.02,-80"/>
</a>
</g>
</g>
<!-- Node5 -->
<g id="Node000005" class="node">
<title>Node5</title>
<g id="a_Node000005"><a xlink:href="classCommIoCbParams.html" target="_top" xlink:title=" ">
<polygon fill="white" stroke="#666666" points="300.5,-56 193.5,-56 193.5,-37 300.5,-37 300.5,-56"/>
<text text-anchor="middle" x="247" y="-44" font-family="Helvetica,sans-Serif" font-size="10.00">CommIoCbParams</text>
</a>
</g>
</g>
<!-- Node1&#45;&gt;Node5 -->
<g id="edge4_Node000001_Node000005" class="edge">
<title>Node1&#45;&gt;Node5</title>
<g id="a_edge4_Node000001_Node000005"><a xlink:title=" ">
<path fill="none" stroke="#63b8ff" d="M126.8,-71.85C150.7,-66.77 178.37,-60.88 201.04,-56.06"/>
<polygon fill="#63b8ff" stroke="#63b8ff" points="125.86,-68.47 116.81,-73.97 127.32,-75.32 125.86,-68.47"/>
</a>
</g>
</g>
<!-- Node6 -->
<g id="Node000006" class="node">
<title>Node6</title>
<g id="a_Node000006"><a xlink:href="classCommTimeoutCbParams.html" target="_top" xlink:title=" ">
<polygon fill="white" stroke="#666666" points="316,-19 178,-19 178,0 316,0 316,-19"/>
<text text-anchor="middle" x="247" y="-7" font-family="Helvetica,sans-Serif" font-size="10.00">CommTimeoutCbParams</text>
</a>
</g>
</g>
<!-- Node1&#45;&gt;Node6 -->
<g id="edge5_Node000001_Node000006" class="edge">
<title>Node1&#45;&gt;Node6</title>
<g id="a_edge5_Node000001_Node000006"><a xlink:title=" ">
<path fill="none" stroke="#63b8ff" d="M96.95,-68.68C118,-56.64 149.23,-39.84 178,-28.5 187.01,-24.95 196.93,-21.78 206.35,-19.09"/>
<polygon fill="#63b8ff" stroke="#63b8ff" points="94.93,-65.8 88.03,-73.85 98.44,-71.86 94.93,-65.8"/>
</a>
</g>
</g>
</g>
</svg>
</svg>

<style type='text/css'>
<![CDATA[
[data-mouse-over-selected='false'] { opacity: 0.7; }
[data-mouse-over-selected='true']  { opacity: 1.0; }
]]>
</style>
<script type="application/ecmascript"><![CDATA[
document.addEventListener('DOMContentLoaded', (event) => {
  highlightEdges();
  highlightAdjacentNodes();
});
]]></script>
</svg>
