<?xml version="1.0" encoding="UTF-8" standalone="no"?>
<!DOCTYPE svg PUBLIC "-//W3C//DTD SVG 1.1//EN"
 "http://www.w3.org/Graphics/SVG/1.1/DTD/svg11.dtd">
<!-- Generated by graphviz version 2.43.0 (0)
 -->
<!-- Title: HttpControlMsgSink Pages: 1 -->
<svg width="372pt" height="226pt"
 viewBox="0.00 0.00 372.00 226.00" xmlns="http://www.w3.org/2000/svg" xmlns:xlink="http://www.w3.org/1999/xlink">
<g id="graph0" class="graph" transform="scale(1 1) rotate(0) translate(4 222)">
<title>HttpControlMsgSink</title>
<!-- Node1 -->
<g id="Node000001" class="node">
<title>Node1</title>
<g id="a_Node000001"><a xlink:title="sends a single control message, notifying the Sink">
<polygon fill="#999999" stroke="#666666" points="301,-19 187,-19 187,0 301,0 301,-19"/>
<text text-anchor="middle" x="244" y="-7" font-family="Helvetica,sans-Serif" font-size="10.00">HttpControlMsgSink</text>
</a>
</g>
</g>
<!-- Node2 -->
<g id="Node000002" class="node">
<title>Node2</title>
<g id="a_Node000002"><a xlink:href="classAsyncJob.html" target="_top" xlink:title=" ">
<polygon fill="white" stroke="#666666" points="229.5,-75 168.5,-75 168.5,-56 229.5,-56 229.5,-75"/>
<text text-anchor="middle" x="199" y="-63" font-family="Helvetica,sans-Serif" font-size="10.00">AsyncJob</text>
</a>
</g>
</g>
<!-- Node2&#45;&gt;Node1 -->
<g id="edge1_Node000001_Node000002" class="edge">
<title>Node2&#45;&gt;Node1</title>
<g id="a_edge1_Node000001_Node000002"><a xlink:title=" ">
<path fill="none" stroke="#63b8ff" d="M213.05,-47.64C220.89,-38.24 230.33,-26.9 236.71,-19.25"/>
<polygon fill="#63b8ff" stroke="#63b8ff" points="210.14,-45.66 206.43,-55.58 215.52,-50.14 210.14,-45.66"/>
</a>
</g>
</g>
<!-- Node3 -->
<g id="Node000003" class="node">
<title>Node3</title>
<g id="a_Node000003"><a xlink:href="classCbdataParent.html" target="_top" xlink:title=" ">
<polygon fill="white" stroke="#666666" points="82,-141 0,-141 0,-122 82,-122 82,-141"/>
<text text-anchor="middle" x="41" y="-129" font-family="Helvetica,sans-Serif" font-size="10.00">CbdataParent</text>
</a>
</g>
</g>
<!-- Node3&#45;&gt;Node2 -->
<g id="edge2_Node000002_Node000003" class="edge">
<title>Node3&#45;&gt;Node2</title>
<g id="a_edge2_Node000002_Node000003"><a xlink:title=" ">
<path fill="none" stroke="#63b8ff" d="M71.83,-118.01C103.06,-105.36 150.53,-86.13 177.78,-75.1"/>
<polygon fill="#63b8ff" stroke="#63b8ff" points="70.26,-114.87 62.31,-121.87 72.89,-121.36 70.26,-114.87"/>
</a>
</g>
</g>
<!-- Node4 -->
<g id="Node000004" class="node">
<title>Node4</title>
<g id="a_Node000004"><a xlink:href="classInstanceId.html" target="_top" xlink:title=" ">
<polygon fill="white" stroke="#666666" points="234,-141 100,-141 100,-122 234,-122 234,-141"/>
<text text-anchor="middle" x="167" y="-129" font-family="Helvetica,sans-Serif" font-size="10.00">InstanceId&lt; AsyncJob &gt;</text>
</a>
</g>
</g>
<!-- Node4&#45;&gt;Node2 -->
<g id="edge3_Node000002_Node000004" class="edge">
<title>Node4&#45;&gt;Node2</title>
<g id="a_edge3_Node000002_Node000004"><a xlink:title=" ">
<path fill="none" stroke="#9a32cd" stroke-dasharray="5,2" d="M175.91,-112.68C181.97,-100.55 189.75,-85.01 194.55,-75.41"/>
<polygon fill="#9a32cd" stroke="#9a32cd" points="172.66,-111.36 171.32,-121.87 178.92,-114.49 172.66,-111.36"/>
</a>
</g>
<text text-anchor="middle" x="191.5" y="-96" font-family="Helvetica,sans-Serif" font-size="10.00" fill="grey"> id</text>
</g>
<!-- Node5 -->
<g id="Node000005" class="node">
<title>Node5</title>
<g id="a_Node000005"><a xlink:href="classInstanceId.html" target="_top" xlink:title=" ">
<polygon fill="white" stroke="#666666" points="220.5,-218 113.5,-218 113.5,-188 220.5,-188 220.5,-218"/>
<text text-anchor="start" x="121.5" y="-206" font-family="Helvetica,sans-Serif" font-size="10.00">InstanceId&lt; Class,</text>
<text text-anchor="middle" x="167" y="-195" font-family="Helvetica,sans-Serif" font-size="10.00"> ValueType &gt;</text>
</a>
</g>
</g>
<!-- Node5&#45;&gt;Node4 -->
<g id="edge4_Node000004_Node000005" class="edge">
<title>Node5&#45;&gt;Node4</title>
<g id="a_edge4_Node000004_Node000005"><a xlink:title=" ">
<path fill="none" stroke="orange" stroke-dasharray="5,2" d="M167,-177.56C167,-164.95 167,-150.35 167,-141.27"/>
<polygon fill="orange" stroke="orange" points="163.5,-177.94 167,-187.94 170.5,-177.94 163.5,-177.94"/>
</a>
</g>
<text text-anchor="middle" x="202" y="-162" font-family="Helvetica,sans-Serif" font-size="10.00" fill="grey"> &lt; AsyncJob &gt;</text>
</g>
<!-- Node6 -->
<g id="Node000006" class="node">
<title>Node6</title>
<g id="a_Node000006"><a xlink:href="classRefCount.html" target="_top" xlink:title=" ">
<polygon fill="white" stroke="#666666" points="343.5,-141 252.5,-141 252.5,-122 343.5,-122 343.5,-141"/>
<text text-anchor="middle" x="298" y="-129" font-family="Helvetica,sans-Serif" font-size="10.00">RefCount&lt; C &gt;</text>
</a>
</g>
</g>
<!-- Node6&#45;&gt;Node1 -->
<g id="edge6_Node000001_Node000006" class="edge">
<title>Node6&#45;&gt;Node1</title>
<g id="a_edge6_Node000001_Node000006"><a xlink:title=" ">
<path fill="none" stroke="#9a32cd" stroke-dasharray="5,2" d="M289.99,-112.7C278.2,-86.49 256.61,-38.52 247.85,-19.05"/>
<polygon fill="#9a32cd" stroke="#9a32cd" points="286.82,-114.19 294.12,-121.87 293.2,-111.31 286.82,-114.19"/>
</a>
</g>
<text text-anchor="middle" x="318" y="-63" font-family="Helvetica,sans-Serif" font-size="10.00" fill="grey"> cbControlMsgSent</text>
</g>
<!-- Node6&#45;&gt;Node2 -->
<g id="edge5_Node000002_Node000006" class="edge">
<title>Node6&#45;&gt;Node2</title>
<g id="a_edge5_Node000002_Node000006"><a xlink:title=" ">
<path fill="none" stroke="#9a32cd" stroke-dasharray="5,2" d="M269.22,-117.55C261.18,-113.55 252.58,-108.9 245,-104 231.5,-95.27 217.37,-83.26 208.39,-75.2"/>
<polygon fill="#9a32cd" stroke="#9a32cd" points="267.77,-120.74 278.3,-121.92 270.81,-114.43 267.77,-120.74"/>
</a>
</g>
<text text-anchor="middle" x="260.5" y="-96" font-family="Helvetica,sans-Serif" font-size="10.00" fill="grey"> inCall</text>
</g>
</g>
</svg>
