<?xml version="1.0" encoding="UTF-8" standalone="no"?>
<!DOCTYPE svg PUBLIC "-//W3C//DTD SVG 1.1//EN"
 "http://www.w3.org/Graphics/SVG/1.1/DTD/svg11.dtd">
<!-- Generated by graphviz version 2.43.0 (0)
 -->
<!-- Title: Acl::AnnotationCheck Pages: 1 -->
<svg width="413pt" height="361pt"
 viewBox="0.00 0.00 412.50 361.00" xmlns="http://www.w3.org/2000/svg" xmlns:xlink="http://www.w3.org/1999/xlink">

<svg id="main" version="1.1" xmlns="http://www.w3.org/2000/svg" xmlns:xlink="http://www.w3.org/1999/xlink" xml:space="preserve" onload="init(evt)">
<style type="text/css"><![CDATA[
.node, .edge {opacity: 0.7;}
.node.selected, .edge.selected {opacity: 1;}
.edge:hover path { stroke: red; }
.edge:hover polygon { stroke: red; fill: red; }
]]></style>
<script type="application/ecmascript" xlink:href="svg.min.js"/>
<svg id="graph" class="graph">
<g id="graph0" class="graph" transform="scale(1 1) rotate(0) translate(4 357)">
<title>Acl::AnnotationCheck</title>
<!-- Node1 -->
<g id="Node000001" class="node">
<title>Node1</title>
<g id="a_Node000001"><a xlink:title="common parent of several ACLs dealing with transaction annotations">
<polygon fill="#999999" stroke="#666666" points="287.5,-86 166.5,-86 166.5,-67 287.5,-67 287.5,-86"/>
<text text-anchor="middle" x="227" y="-74" font-family="Helvetica,sans-Serif" font-size="10.00">Acl::AnnotationCheck</text>
</a>
</g>
</g>
<!-- Node6 -->
<g id="Node000006" class="node">
<title>Node6</title>
<g id="a_Node000006"><a xlink:href="classAcl_1_1AnnotateClientCheck.html" target="_top" xlink:title="an &quot;annotate_client&quot; ACL">
<polygon fill="white" stroke="#666666" points="140,-24.5 0,-24.5 0,-5.5 140,-5.5 140,-24.5"/>
<text text-anchor="middle" x="70" y="-12.5" font-family="Helvetica,sans-Serif" font-size="10.00">Acl::AnnotateClientCheck</text>
</a>
</g>
</g>
<!-- Node1&#45;&gt;Node6 -->
<g id="edge6_Node000001_Node000006" class="edge">
<title>Node1&#45;&gt;Node6</title>
<g id="a_edge6_Node000001_Node000006"><a xlink:title=" ">
<path fill="none" stroke="#63b8ff" d="M194.76,-63.28C164.25,-51.72 119.25,-34.66 92.45,-24.51"/>
<polygon fill="#63b8ff" stroke="#63b8ff" points="193.91,-66.7 204.51,-66.98 196.4,-60.16 193.91,-66.7"/>
</a>
</g>
</g>
<!-- Node7 -->
<g id="Node000007" class="node">
<title>Node7</title>
<g id="a_Node000007"><a xlink:href="classAcl_1_1AnnotateTransactionCheck.html" target="_top" xlink:title="an &quot;annotate_transaction&quot; ACL">
<polygon fill="white" stroke="#666666" points="295.5,-30 158.5,-30 158.5,0 295.5,0 295.5,-30"/>
<text text-anchor="start" x="166.5" y="-18" font-family="Helvetica,sans-Serif" font-size="10.00">Acl::AnnotateTransaction</text>
<text text-anchor="middle" x="227" y="-7" font-family="Helvetica,sans-Serif" font-size="10.00">Check</text>
</a>
</g>
</g>
<!-- Node1&#45;&gt;Node7 -->
<g id="edge7_Node000001_Node000007" class="edge">
<title>Node1&#45;&gt;Node7</title>
<g id="a_edge7_Node000001_Node000007"><a xlink:title=" ">
<path fill="none" stroke="#63b8ff" d="M227,-56.73C227,-48.09 227,-38 227,-30.02"/>
<polygon fill="#63b8ff" stroke="#63b8ff" points="223.5,-56.98 227,-66.98 230.5,-56.98 223.5,-56.98"/>
</a>
</g>
</g>
<!-- Node8 -->
<g id="Node000008" class="node">
<title>Node8</title>
<g id="a_Node000008"><a xlink:href="classAcl_1_1NoteCheck.html" target="_top" xlink:title="a &quot;note&quot; ACL">
<polygon fill="white" stroke="#666666" points="404.5,-24.5 313.5,-24.5 313.5,-5.5 404.5,-5.5 404.5,-24.5"/>
<text text-anchor="middle" x="359" y="-12.5" font-family="Helvetica,sans-Serif" font-size="10.00">Acl::NoteCheck</text>
</a>
</g>
</g>
<!-- Node1&#45;&gt;Node8 -->
<g id="edge8_Node000001_Node000008" class="edge">
<title>Node1&#45;&gt;Node8</title>
<g id="a_edge8_Node000001_Node000008"><a xlink:title=" ">
<path fill="none" stroke="#63b8ff" d="M255.11,-62.83C280.74,-51.28 317.89,-34.53 340.12,-24.51"/>
<polygon fill="#63b8ff" stroke="#63b8ff" points="253.59,-59.67 245.91,-66.98 256.47,-66.06 253.59,-59.67"/>
</a>
</g>
</g>
<!-- Node2 -->
<g id="Node000002" class="node">
<title>Node2</title>
<g id="a_Node000002"><a xlink:href="classAcl_1_1ParameterizedNode.html" target="_top" xlink:title=" ">
<polygon fill="white" stroke="#666666" points="294,-164 160,-164 160,-123 294,-123 294,-164"/>
<text text-anchor="start" x="168" y="-152" font-family="Helvetica,sans-Serif" font-size="10.00">Acl::ParameterizedNode</text>
<text text-anchor="start" x="168" y="-141" font-family="Helvetica,sans-Serif" font-size="10.00">&lt; ACLData&lt; NotePairs::</text>
<text text-anchor="middle" x="227" y="-130" font-family="Helvetica,sans-Serif" font-size="10.00">Entry * &gt; &gt;</text>
</a>
</g>
</g>
<!-- Node2&#45;&gt;Node1 -->
<g id="edge1_Node000001_Node000002" class="edge">
<title>Node2&#45;&gt;Node1</title>
<g id="a_edge1_Node000001_Node000002"><a xlink:title=" ">
<path fill="none" stroke="#63b8ff" d="M227,-112.76C227,-103.06 227,-93.02 227,-86.15"/>
<polygon fill="#63b8ff" stroke="#63b8ff" points="223.5,-113 227,-123 230.5,-113 223.5,-113"/>
</a>
</g>
</g>
<!-- Node3 -->
<g id="Node000003" class="node">
<title>Node3</title>
<g id="a_Node000003"><a xlink:href="classAcl_1_1Node.html" target="_top" xlink:title=" ">
<polygon fill="white" stroke="#666666" points="254.5,-297 191.5,-297 191.5,-278 254.5,-278 254.5,-297"/>
<text text-anchor="middle" x="223" y="-285" font-family="Helvetica,sans-Serif" font-size="10.00">Acl::Node</text>
</a>
</g>
</g>
<!-- Node3&#45;&gt;Node2 -->
<g id="edge2_Node000002_Node000003" class="edge">
<title>Node3&#45;&gt;Node2</title>
<g id="a_edge2_Node000002_Node000003"><a xlink:title=" ">
<path fill="none" stroke="#63b8ff" d="M223.53,-267.55C224.29,-240.59 225.68,-191.41 226.45,-164.1"/>
<polygon fill="#63b8ff" stroke="#63b8ff" points="220.03,-267.52 223.25,-277.62 227.03,-267.72 220.03,-267.52"/>
</a>
</g>
</g>
<!-- Node5 -->
<g id="Node000005" class="node">
<title>Node5</title>
<g id="a_Node000005"><a xlink:href="classAcl_1_1ParameterizedNode.html" target="_top" xlink:title=" ">
<polygon fill="white" stroke="#666666" points="401,-241 239,-241 239,-222 401,-222 401,-241"/>
<text text-anchor="middle" x="320" y="-229" font-family="Helvetica,sans-Serif" font-size="10.00">Acl::ParameterizedNode&lt; P &gt;</text>
</a>
</g>
</g>
<!-- Node3&#45;&gt;Node5 -->
<g id="edge5_Node000005_Node000003" class="edge">
<title>Node3&#45;&gt;Node5</title>
<g id="a_edge5_Node000005_Node000003"><a xlink:title=" ">
<path fill="none" stroke="#63b8ff" d="M247.34,-272.95C265.24,-262.98 289.05,-249.73 304.45,-241.15"/>
<polygon fill="#63b8ff" stroke="#63b8ff" points="245.62,-269.9 238.58,-277.82 249.02,-276.02 245.62,-269.9"/>
</a>
</g>
</g>
<!-- Node4 -->
<g id="Node000004" class="node">
<title>Node4</title>
<g id="a_Node000004"><a xlink:title=" ">
<polygon fill="white" stroke="#666666" points="264.5,-353 181.5,-353 181.5,-334 264.5,-334 264.5,-353"/>
<text text-anchor="middle" x="223" y="-341" font-family="Helvetica,sans-Serif" font-size="10.00">RefCountable</text>
</a>
</g>
</g>
<!-- Node4&#45;&gt;Node3 -->
<g id="edge3_Node000003_Node000004" class="edge">
<title>Node4&#45;&gt;Node3</title>
<g id="a_edge3_Node000003_Node000004"><a xlink:title=" ">
<path fill="none" stroke="#63b8ff" d="M223,-323.3C223,-314.41 223,-304.28 223,-297.25"/>
<polygon fill="#63b8ff" stroke="#63b8ff" points="219.5,-323.58 223,-333.58 226.5,-323.58 219.5,-323.58"/>
</a>
</g>
</g>
<!-- Node5&#45;&gt;Node2 -->
<g id="edge4_Node000002_Node000005" class="edge">
<title>Node5&#45;&gt;Node2</title>
<g id="a_edge4_Node000002_Node000005"><a xlink:title=" ">
<path fill="none" stroke="orange" stroke-dasharray="5,2" d="M303.05,-214.83C287.7,-200.63 265.01,-179.65 248.41,-164.3"/>
<polygon fill="orange" stroke="orange" points="301.02,-217.72 310.74,-221.94 305.78,-212.58 301.02,-217.72"/>
</a>
</g>
<text text-anchor="start" x="289" y="-196" font-family="Helvetica,sans-Serif" font-size="10.00" fill="grey"> &lt; ACLData&lt; NotePairs</text>
<text text-anchor="middle" x="346.5" y="-185" font-family="Helvetica,sans-Serif" font-size="10.00" fill="grey">::Entry * &gt; &gt;</text>
</g>
</g>
</svg>
</svg>

<style type='text/css'>
<![CDATA[
[data-mouse-over-selected='false'] { opacity: 0.7; }
[data-mouse-over-selected='true']  { opacity: 1.0; }
]]>
</style>
<script type="application/ecmascript"><![CDATA[
document.addEventListener('DOMContentLoaded', (event) => {
  highlightEdges();
  highlightAdjacentNodes();
});
]]></script>
</svg>
