<?xml version="1.0" encoding="UTF-8" standalone="no"?>
<!DOCTYPE svg PUBLIC "-//W3C//DTD SVG 1.1//EN"
 "http://www.w3.org/Graphics/SVG/1.1/DTD/svg11.dtd">
<!-- Generated by graphviz version 2.43.0 (0)
 -->
<!-- Title: MemChunk Pages: 1 -->
<!--zoomable 286 -->

<svg id="main" version="1.1" xmlns="http://www.w3.org/2000/svg" xmlns:xlink="http://www.w3.org/1999/xlink" xml:space="preserve" onload="init(evt)">
<style type="text/css"><![CDATA[
.node, .edge {opacity: 0.7;}
.node.selected, .edge.selected {opacity: 1;}
.edge:hover path { stroke: red; }
.edge:hover polygon { stroke: red; fill: red; }
]]></style>

<defs>
  <circle id="rim" cx="0" cy="0" r="7"/>
  <circle id="rim2" cx="0" cy="0" r="3.5"/>
  <g id="zoomPlus">
    <use xlink:href="#rim" fill="#404040"><set attributeName="fill" to="#808080" begin="zoomplus.mouseover" end="zoomplus.mouseout"/></use>
    <path d="M-4,0h8M0,-4v8" fill="none" stroke="white" stroke-width="1.5" pointer-events="none"/>
  </g>
  <g id="zoomMin">
    <use xlink:href="#rim" fill="#404040"><set attributeName="fill" to="#808080" begin="zoomminus.mouseover" end="zoomminus.mouseout"/></use>
    <path d="M-4,0h8" fill="none" stroke="white" stroke-width="1.5" pointer-events="none"/>
  </g>
  <g id="arrowUp" transform="translate(30 24)">
    <use xlink:href="#rim"/>
    <path pointer-events="none" fill="none" stroke="white" stroke-width="1.5" d="M0,-3.0v7 M-2.5,-0.5L0,-3.0L2.5,-0.5"/>
  </g>
  <g id="arrowRight" transform="rotate(90) translate(36 -43)">
    <use xlink:href="#rim"/>
    <path pointer-events="none" fill="none" stroke="white" stroke-width="1.5" d="M0,-3.0v7 M-2.5,-0.5L0,-3.0L2.5,-0.5"/>
  </g>
  <g id="arrowDown" transform="rotate(180) translate(-30 -48)">
    <use xlink:href="#rim"/>
    <path pointer-events="none" fill="none" stroke="white" stroke-width="1.5" d="M0,-3.0v7 M-2.5,-0.5L0,-3.0L2.5,-0.5"/>
  </g>
  <g id="arrowLeft" transform="rotate(270) translate(-36 17)">
    <use xlink:href="#rim"/>
    <path pointer-events="none" fill="none" stroke="white" stroke-width="1.5" d="M0,-3.0v7 M-2.5,-0.5L0,-3.0L2.5,-0.5"/>
  </g>
  <g id="resetDef">
    <use xlink:href="#rim2" fill="#404040"><set attributeName="fill" to="#808080" begin="reset.mouseover" end="reset.mouseout"/></use>
  </g>
</defs>
<script type="application/ecmascript">
var viewWidth = 727;
var viewHeight = 286;
var sectionId = 'dynsection-0';
</script>
<script type="application/ecmascript" xlink:href="svg.min.js"/>
<svg id="graph" class="graph">
<g id="viewport">
<title>MemChunk</title>
<!-- Node1 -->
<g id="Node000001" class="node">
<title>Node1</title>
<g id="a_Node000001"><a xlink:title=" ">
<polygon fill="#999999" stroke="#666666" points="90.26,-276.5 18.26,-276.5 18.26,-257.5 90.26,-257.5 90.26,-276.5"/>
<text text-anchor="middle" x="54.26" y="-264.5" font-family="Helvetica,sans-Serif" font-size="10.00">MemChunk</text>
</a>
</g>
</g>
<!-- Node1&#45;&gt;Node1 -->
<g id="edge1_Node000001_Node000001" class="edge">
<title>Node1&#45;&gt;Node1</title>
<g id="a_edge1_Node000001_Node000001"><a xlink:title=" ">
<path fill="none" stroke="#9a32cd" stroke-dasharray="5,2" d="M100.47,-274.73C105.22,-273.21 108.26,-270.63 108.26,-267 108.26,-261.19 100.48,-258.08 90.35,-257.67"/>
<polygon fill="#9a32cd" stroke="#9a32cd" points="99.68,-271.31 90.35,-276.33 100.77,-278.23 99.68,-271.31"/>
</a>
</g>
<text text-anchor="middle" x="145.26" y="-270" font-family="Helvetica,sans-Serif" font-size="10.00" fill="grey"> next</text>
<text text-anchor="middle" x="145.26" y="-259" font-family="Helvetica,sans-Serif" font-size="10.00" fill="grey">nextFreeChunk</text>
</g>
<!-- Node2 -->
<g id="Node000002" class="node">
<title>Node2</title>
<g id="a_Node000002"><a xlink:href="classMemPoolChunked.html" target="_top" xlink:title=" ">
<polygon fill="white" stroke="#666666" points="160.26,-19 56.26,-19 56.26,0 160.26,0 160.26,-19"/>
<text text-anchor="middle" x="108.26" y="-7" font-family="Helvetica,sans-Serif" font-size="10.00">MemPoolChunked</text>
</a>
</g>
</g>
<!-- Node1&#45;&gt;Node2 -->
<g id="edge8_Node000002_Node000001" class="edge">
<title>Node1&#45;&gt;Node2</title>
<g id="a_edge8_Node000002_Node000001"><a xlink:title=" ">
<path fill="none" stroke="#9a32cd" stroke-dasharray="5,2" d="M41.81,-249.01C21.29,-218.79 -15.21,-154.06 7.26,-103 24.79,-63.17 68.87,-33.02 92.58,-19.06"/>
<polygon fill="#9a32cd" stroke="#9a32cd" points="38.97,-251.06 47.58,-257.23 44.7,-247.04 38.97,-251.06"/>
</a>
</g>
<text text-anchor="middle" x="44.26" y="-117" font-family="Helvetica,sans-Serif" font-size="10.00" fill="grey"> Chunks</text>
<text text-anchor="middle" x="44.26" y="-106" font-family="Helvetica,sans-Serif" font-size="10.00" fill="grey">nextFreeChunk</text>
</g>
<!-- Node9 -->
<g id="Node000009" class="node">
<title>Node9</title>
<g id="a_Node000009"><a xlink:href="classSplayNode.html" target="_top" xlink:title=" ">
<polygon fill="white" stroke="#666666" points="257.76,-169 102.76,-169 102.76,-150 257.76,-150 257.76,-169"/>
<text text-anchor="middle" x="180.26" y="-157" font-family="Helvetica,sans-Serif" font-size="10.00">SplayNode&lt; MemChunk * &gt;</text>
</a>
</g>
</g>
<!-- Node1&#45;&gt;Node9 -->
<g id="edge11_Node000009_Node000001" class="edge">
<title>Node1&#45;&gt;Node9</title>
<g id="a_edge11_Node000009_Node000001"><a xlink:title=" ">
<path fill="none" stroke="#9a32cd" stroke-dasharray="5,2" d="M72.67,-250.9C77.73,-246.73 83.21,-242.2 88.26,-238 118.11,-213.14 153.15,-183.49 170.08,-169.14"/>
<polygon fill="#9a32cd" stroke="#9a32cd" points="70.2,-248.4 64.7,-257.45 74.65,-253.81 70.2,-248.4"/>
</a>
</g>
<text text-anchor="middle" x="151.76" y="-213.5" font-family="Helvetica,sans-Serif" font-size="10.00" fill="grey"> data</text>
</g>
<!-- Node2&#45;&gt;Node1 -->
<g id="edge2_Node000001_Node000002" class="edge">
<title>Node2&#45;&gt;Node1</title>
<g id="a_edge2_Node000001_Node000002"><a xlink:title=" ">
<path fill="none" stroke="#9a32cd" stroke-dasharray="5,2" d="M104.36,-28.97C93.58,-79.97 63.69,-221.35 56.06,-257.5"/>
<polygon fill="#9a32cd" stroke="#9a32cd" points="107.81,-29.54 106.46,-19.03 100.96,-28.09 107.81,-29.54"/>
</a>
</g>
<text text-anchor="middle" x="101.76" y="-111.5" font-family="Helvetica,sans-Serif" font-size="10.00" fill="grey"> pool</text>
</g>
<!-- Node3 -->
<g id="Node000003" class="node">
<title>Node3</title>
<g id="a_Node000003"><a xlink:href="classMem_1_1Allocator.html" target="_top" xlink:title=" ">
<polygon fill="white" stroke="#666666" points="539.76,-85 448.76,-85 448.76,-66 539.76,-66 539.76,-85"/>
<text text-anchor="middle" x="494.26" y="-73" font-family="Helvetica,sans-Serif" font-size="10.00">Mem::Allocator</text>
</a>
</g>
</g>
<!-- Node3&#45;&gt;Node2 -->
<g id="edge3_Node000002_Node000003" class="edge">
<title>Node3&#45;&gt;Node2</title>
<g id="a_edge3_Node000002_Node000003"><a xlink:title=" ">
<path fill="none" stroke="#63b8ff" d="M438.31,-65.22C363.59,-52.83 232.25,-31.06 159.82,-19.05"/>
<polygon fill="#63b8ff" stroke="#63b8ff" points="438.03,-68.72 448.46,-66.91 439.17,-61.82 438.03,-68.72"/>
</a>
</g>
</g>
<!-- Node4 -->
<g id="Node000004" class="node">
<title>Node4</title>
<g id="a_Node000004"><a xlink:href="classTypeTraits___1_1Interface.html" target="_top" xlink:title="convenience base for any class with pure virtual method(s)">
<polygon fill="white" stroke="#666666" points="524.26,-169 464.26,-169 464.26,-150 524.26,-150 524.26,-169"/>
<text text-anchor="middle" x="494.26" y="-157" font-family="Helvetica,sans-Serif" font-size="10.00">Interface</text>
</a>
</g>
</g>
<!-- Node4&#45;&gt;Node3 -->
<g id="edge4_Node000003_Node000004" class="edge">
<title>Node4&#45;&gt;Node3</title>
<g id="a_edge4_Node000003_Node000004"><a xlink:title=" ">
<path fill="none" stroke="#63b8ff" d="M494.26,-139.26C494.26,-122.18 494.26,-98 494.26,-85.21"/>
<polygon fill="#63b8ff" stroke="#63b8ff" points="490.76,-139.72 494.26,-149.72 497.76,-139.72 490.76,-139.72"/>
</a>
</g>
</g>
<!-- Node5 -->
<g id="Node000005" class="node">
<title>Node5</title>
<g id="a_Node000005"><a xlink:href="classMem_1_1PoolMeter.html" target="_top" xlink:title=" ">
<polygon fill="white" stroke="#666666" points="639.76,-169 542.76,-169 542.76,-150 639.76,-150 639.76,-169"/>
<text text-anchor="middle" x="591.26" y="-157" font-family="Helvetica,sans-Serif" font-size="10.00">Mem::PoolMeter</text>
</a>
</g>
</g>
<!-- Node5&#45;&gt;Node3 -->
<g id="edge5_Node000003_Node000005" class="edge">
<title>Node5&#45;&gt;Node3</title>
<g id="a_edge5_Node000003_Node000005"><a xlink:title=" ">
<path fill="none" stroke="#9a32cd" stroke-dasharray="5,2" d="M573,-143.07C552.77,-125.96 520.85,-98.98 504.56,-85.21"/>
<polygon fill="#9a32cd" stroke="#9a32cd" points="570.98,-145.94 580.88,-149.72 575.5,-140.6 570.98,-145.94"/>
</a>
</g>
<text text-anchor="middle" x="567.76" y="-111.5" font-family="Helvetica,sans-Serif" font-size="10.00" fill="grey"> meter</text>
</g>
<!-- Node6 -->
<g id="Node000006" class="node">
<title>Node6</title>
<g id="a_Node000006"><a xlink:href="classMem_1_1Meter.html" target="_top" xlink:title=" ">
<polygon fill="white" stroke="#666666" points="567.26,-276.5 491.26,-276.5 491.26,-257.5 567.26,-257.5 567.26,-276.5"/>
<text text-anchor="middle" x="529.26" y="-264.5" font-family="Helvetica,sans-Serif" font-size="10.00">Mem::Meter</text>
</a>
</g>
</g>
<!-- Node6&#45;&gt;Node5 -->
<g id="edge6_Node000005_Node000006" class="edge">
<title>Node6&#45;&gt;Node5</title>
<g id="a_edge6_Node000005_Node000006"><a xlink:title=" ">
<path fill="none" stroke="#9a32cd" stroke-dasharray="5,2" d="M539.42,-248.72C552.81,-225.92 575.88,-186.66 586.11,-169.25"/>
<polygon fill="#9a32cd" stroke="#9a32cd" points="536.38,-246.97 534.33,-257.37 542.42,-250.52 536.38,-246.97"/>
</a>
</g>
<text text-anchor="middle" x="583.76" y="-224.5" font-family="Helvetica,sans-Serif" font-size="10.00" fill="grey"> alloc</text>
<text text-anchor="middle" x="583.76" y="-213.5" font-family="Helvetica,sans-Serif" font-size="10.00" fill="grey">idle</text>
<text text-anchor="middle" x="583.76" y="-202.5" font-family="Helvetica,sans-Serif" font-size="10.00" fill="grey">inuse</text>
</g>
<!-- Node7 -->
<g id="Node000007" class="node">
<title>Node7</title>
<g id="a_Node000007"><a xlink:href="classMem_1_1PoolMeter_1_1mgb__t.html" target="_top" xlink:title="Object to track per&#45;pool cumulative counters.">
<polygon fill="white" stroke="#666666" points="719.26,-276.5 585.26,-276.5 585.26,-257.5 719.26,-257.5 719.26,-276.5"/>
<text text-anchor="middle" x="652.26" y="-264.5" font-family="Helvetica,sans-Serif" font-size="10.00">Mem::PoolMeter::mgb_t</text>
</a>
</g>
</g>
<!-- Node7&#45;&gt;Node5 -->
<g id="edge7_Node000005_Node000007" class="edge">
<title>Node7&#45;&gt;Node5</title>
<g id="a_edge7_Node000005_Node000007"><a xlink:title=" ">
<path fill="none" stroke="#9a32cd" stroke-dasharray="5,2" d="M642.09,-248.41C628.88,-225.57 606.34,-186.59 596.32,-169.25"/>
<polygon fill="#9a32cd" stroke="#9a32cd" points="639.23,-250.46 647.27,-257.37 645.29,-246.96 639.23,-250.46"/>
</a>
</g>
<text text-anchor="middle" x="669.76" y="-230" font-family="Helvetica,sans-Serif" font-size="10.00" fill="grey"> gb_allocated</text>
<text text-anchor="middle" x="669.76" y="-219" font-family="Helvetica,sans-Serif" font-size="10.00" fill="grey">gb_freed</text>
<text text-anchor="middle" x="669.76" y="-208" font-family="Helvetica,sans-Serif" font-size="10.00" fill="grey">gb_oallocated</text>
<text text-anchor="middle" x="669.76" y="-197" font-family="Helvetica,sans-Serif" font-size="10.00" fill="grey">gb_saved</text>
</g>
<!-- Node8 -->
<g id="Node000008" class="node">
<title>Node8</title>
<g id="a_Node000008"><a xlink:href="classSplay.html" target="_top" xlink:title=" ">
<polygon fill="white" stroke="#666666" points="245.26,-85 115.26,-85 115.26,-66 245.26,-66 245.26,-85"/>
<text text-anchor="middle" x="180.26" y="-73" font-family="Helvetica,sans-Serif" font-size="10.00">Splay&lt; MemChunk * &gt;</text>
</a>
</g>
</g>
<!-- Node8&#45;&gt;Node2 -->
<g id="edge9_Node000002_Node000008" class="edge">
<title>Node8&#45;&gt;Node2</title>
<g id="a_edge9_Node000002_Node000008"><a xlink:title=" ">
<path fill="none" stroke="#9a32cd" stroke-dasharray="5,2" d="M163.02,-59.18C149.05,-46.76 129.84,-29.68 118.28,-19.41"/>
<polygon fill="#9a32cd" stroke="#9a32cd" points="160.75,-61.84 170.55,-65.87 165.4,-56.61 160.75,-61.84"/>
</a>
</g>
<text text-anchor="middle" x="175.26" y="-40" font-family="Helvetica,sans-Serif" font-size="10.00" fill="grey"> allChunks</text>
</g>
<!-- Node9&#45;&gt;Node8 -->
<g id="edge10_Node000008_Node000009" class="edge">
<title>Node9&#45;&gt;Node8</title>
<g id="a_edge10_Node000008_Node000009"><a xlink:title=" ">
<path fill="none" stroke="#9a32cd" stroke-dasharray="5,2" d="M180.26,-139.26C180.26,-122.18 180.26,-98 180.26,-85.21"/>
<polygon fill="#9a32cd" stroke="#9a32cd" points="176.76,-139.72 180.26,-149.72 183.76,-139.72 176.76,-139.72"/>
</a>
</g>
<text text-anchor="middle" x="194.26" y="-111.5" font-family="Helvetica,sans-Serif" font-size="10.00" fill="grey"> head</text>
</g>
<!-- Node9&#45;&gt;Node9 -->
<g id="edge12_Node000009_Node000009" class="edge">
<title>Node9&#45;&gt;Node9</title>
<g id="a_edge12_Node000009_Node000009"><a xlink:title=" ">
<path fill="none" stroke="#9a32cd" stroke-dasharray="5,2" d="M267.86,-165.07C272.81,-163.73 275.76,-161.87 275.76,-159.5 275.76,-155.8 268.57,-153.35 257.82,-152.14"/>
<polygon fill="#9a32cd" stroke="#9a32cd" points="267.06,-161.66 257.82,-166.86 268.28,-168.55 267.06,-161.66"/>
</a>
</g>
<text text-anchor="middle" x="310.26" y="-168" font-family="Helvetica,sans-Serif" font-size="10.00" fill="grey"> left</text>
<text text-anchor="middle" x="310.26" y="-157" font-family="Helvetica,sans-Serif" font-size="10.00" fill="grey">right</text>
<text text-anchor="middle" x="310.26" y="-146" font-family="Helvetica,sans-Serif" font-size="10.00" fill="grey">visitThreadUp</text>
</g>
<!-- Node10 -->
<g id="Node000010" class="node">
<title>Node10</title>
<g id="a_Node000010"><a xlink:href="classSplayNode.html" target="_top" xlink:title=" ">
<polygon fill="white" stroke="#666666" points="298.26,-276.5 200.26,-276.5 200.26,-257.5 298.26,-257.5 298.26,-276.5"/>
<text text-anchor="middle" x="249.26" y="-264.5" font-family="Helvetica,sans-Serif" font-size="10.00">SplayNode&lt; V &gt;</text>
</a>
</g>
</g>
<!-- Node10&#45;&gt;Node9 -->
<g id="edge13_Node000009_Node000010" class="edge">
<title>Node10&#45;&gt;Node9</title>
<g id="a_edge13_Node000009_Node000010"><a xlink:title=" ">
<path fill="none" stroke="orange" stroke-dasharray="5,2" d="M237.95,-248.72C223.05,-225.92 197.37,-186.66 185.98,-169.25"/>
<polygon fill="orange" stroke="orange" points="235.21,-250.91 243.61,-257.37 241.07,-247.08 235.21,-250.91"/>
</a>
</g>
<text text-anchor="middle" x="276.26" y="-213.5" font-family="Helvetica,sans-Serif" font-size="10.00" fill="grey"> &lt; MemChunk * &gt;</text>
</g>
<!-- Node11 -->
<g id="Node000011" class="node">
<title>Node11</title>
<g id="a_Node000011"><a xlink:href="classSplay.html" target="_top" xlink:title=" ">
<polygon fill="white" stroke="#666666" points="435.76,-169 362.76,-169 362.76,-150 435.76,-150 435.76,-169"/>
<text text-anchor="middle" x="399.26" y="-157" font-family="Helvetica,sans-Serif" font-size="10.00">Splay&lt; V &gt;</text>
</a>
</g>
</g>
<!-- Node11&#45;&gt;Node8 -->
<g id="edge14_Node000008_Node000011" class="edge">
<title>Node11&#45;&gt;Node8</title>
<g id="a_edge14_Node000008_Node000011"><a xlink:title=" ">
<path fill="none" stroke="orange" stroke-dasharray="5,2" d="M366.68,-146.3C321.76,-129.48 241.96,-99.6 202.97,-85"/>
<polygon fill="orange" stroke="orange" points="365.64,-149.65 376.24,-149.88 368.1,-143.1 365.64,-149.65"/>
</a>
</g>
<text text-anchor="middle" x="355.26" y="-111.5" font-family="Helvetica,sans-Serif" font-size="10.00" fill="grey"> &lt; MemChunk * &gt;</text>
</g>
</g>
</svg>

<g id="navigator" transform="translate(0 0)" fill="#404254">
  <rect fill="#f2f5e9" fill-opacity="0.5" stroke="#606060" stroke-width=".5" x="0" y="0" width="60" height="60"/>
  <use id="zoomplus" xlink:href="#zoomPlus" x="17" y="9" onmousedown="handleZoom(evt,'in')"/>
  <use id="zoomminus" xlink:href="#zoomMin" x="42" y="9" onmousedown="handleZoom(evt,'out')"/>
  <use id="reset" xlink:href="#resetDef" x="30" y="36" onmousedown="handleReset()"/>
   <use id="arrowup" xlink:href="#arrowUp" x="0" y="0" onmousedown="handlePan(0,-1)"/>
  <use id="arrowright" xlink:href="#arrowRight" x="0" y="0" onmousedown="handlePan(1,0)"/>
  <use id="arrowdown" xlink:href="#arrowDown" x="0" y="0" onmousedown="handlePan(0,1)"/>
  <use id="arrowleft" xlink:href="#arrowLeft" x="0" y="0" onmousedown="handlePan(-1,0)"/>
</g>
<svg viewBox="0 0 15 15" width="100%" height="30px" preserveAspectRatio="xMaxYMin meet">
 <g id="arrow_out" transform="scale(0.3 0.3)">
  <a xlink:href="classMemChunk__coll__graph_org.svg" target="_base">
   <rect id="button" ry="5" rx="5" y="6" x="6" height="38" width="38"
        fill="#f2f5e9" fill-opacity="0.5" stroke="#606060" stroke-width="1.0"/>
   <path id="arrow"
     d="M 11.500037,31.436501 C 11.940474,20.09759 22.043105,11.32322 32.158766,21.979434 L 37.068811,17.246167 C 37.068811,17.246167 37.088388,32 37.088388,32 L 22.160133,31.978069 C 22.160133,31.978069 26.997745,27.140456 26.997745,27.140456 C 18.528582,18.264221 13.291696,25.230495 11.500037,31.436501 z"
     style="fill:#404040;"/>
  </a>
 </g>
</svg>

<style type='text/css'>
<![CDATA[
[data-mouse-over-selected='false'] { opacity: 0.7; }
[data-mouse-over-selected='true']  { opacity: 1.0; }
]]>
</style>
<script type="application/ecmascript"><![CDATA[
document.addEventListener('DOMContentLoaded', (event) => {
  highlightEdges();
  highlightAdjacentNodes();
});
]]></script>
</svg>
