<?xml version="1.0" encoding="UTF-8" standalone="no"?>
<!DOCTYPE svg PUBLIC "-//W3C//DTD SVG 1.1//EN"
 "http://www.w3.org/Graphics/SVG/1.1/DTD/svg11.dtd">
<!-- Generated by graphviz version 2.43.0 (0)
 -->
<!-- Title: AsyncJob Pages: 1 -->
<svg width="741pt" height="963pt"
 viewBox="0.00 0.00 741.00 962.50" xmlns="http://www.w3.org/2000/svg" xmlns:xlink="http://www.w3.org/1999/xlink">
<g id="graph0" class="graph" transform="scale(1 1) rotate(0) translate(4 958.5)">
<title>AsyncJob</title>
<!-- Node1 -->
<g id="Node000001" class="node">
<title>Node1</title>
<g id="a_Node000001"><a xlink:title=" ">
<polygon fill="#999999" stroke="#666666" points="179,-426 118,-426 118,-407 179,-407 179,-426"/>
<text text-anchor="middle" x="148.5" y="-414" font-family="Helvetica,sans-Serif" font-size="10.00">AsyncJob</text>
</a>
</g>
</g>
<!-- Node3 -->
<g id="Node000003" class="node">
<title>Node3</title>
<g id="a_Node000003"><a xlink:href="classAdaptation_1_1AccessCheck.html" target="_top" xlink:title=" ">
<polygon fill="white" stroke="#666666" points="355,-854 215,-854 215,-835 355,-835 355,-854"/>
<text text-anchor="middle" x="285" y="-842" font-family="Helvetica,sans-Serif" font-size="10.00">Adaptation::AccessCheck</text>
</a>
</g>
</g>
<!-- Node1&#45;&gt;Node3 -->
<g id="edge2_Node000001_Node000003" class="edge">
<title>Node1&#45;&gt;Node3</title>
<g id="a_edge2_Node000001_Node000003"><a xlink:title=" ">
<path fill="none" stroke="#63b8ff" d="M149.89,-436.26C151.75,-510.04 162,-768.11 215,-826.5 218.08,-829.89 221.71,-832.68 225.67,-834.97"/>
<polygon fill="#63b8ff" stroke="#63b8ff" points="153.38,-435.98 149.66,-426.06 146.39,-436.14 153.38,-435.98"/>
</a>
</g>
</g>
<!-- Node4 -->
<g id="Node000004" class="node">
<title>Node4</title>
<g id="a_Node000004"><a xlink:href="classAdaptation_1_1Initiate.html" target="_top" xlink:title=" ">
<polygon fill="white" stroke="#666666" points="340,-817 230,-817 230,-798 340,-798 340,-817"/>
<text text-anchor="middle" x="285" y="-805" font-family="Helvetica,sans-Serif" font-size="10.00">Adaptation::Initiate</text>
</a>
</g>
</g>
<!-- Node1&#45;&gt;Node4 -->
<g id="edge3_Node000001_Node000004" class="edge">
<title>Node1&#45;&gt;Node4</title>
<g id="a_edge3_Node000001_Node000004"><a xlink:title=" ">
<path fill="none" stroke="#63b8ff" d="M150.88,-436.24C155.89,-502.69 174.87,-717.17 215,-771.5 224.15,-783.89 238.84,-792.38 252.31,-797.99"/>
<polygon fill="#63b8ff" stroke="#63b8ff" points="154.37,-435.97 150.16,-426.25 147.39,-436.48 154.37,-435.97"/>
</a>
</g>
</g>
<!-- Node13 -->
<g id="Node000013" class="node">
<title>Node13</title>
<g id="a_Node000013"><a xlink:href="classAdaptation_1_1Initiator.html" target="_top" xlink:title=" ">
<polygon fill="white" stroke="#666666" points="342,-762 228,-762 228,-743 342,-743 342,-762"/>
<text text-anchor="middle" x="285" y="-750" font-family="Helvetica,sans-Serif" font-size="10.00">Adaptation::Initiator</text>
</a>
</g>
</g>
<!-- Node1&#45;&gt;Node13 -->
<g id="edge12_Node000001_Node000013" class="edge">
<title>Node1&#45;&gt;Node13</title>
<g id="a_edge12_Node000001_Node000013"><a xlink:title=" ">
<path fill="none" stroke="#63b8ff" d="M149.84,-436.32C151.52,-484.57 161.15,-610.5 215,-696.5 227.77,-716.9 250.6,-733.23 266.49,-742.88"/>
<polygon fill="#63b8ff" stroke="#63b8ff" points="153.33,-435.93 149.56,-426.03 146.33,-436.12 153.33,-435.93"/>
</a>
</g>
</g>
<!-- Node21 -->
<g id="Node000021" class="node">
<title>Node21</title>
<g id="a_Node000021"><a xlink:href="classBodyConsumer.html" target="_top" xlink:title=" ">
<polygon fill="white" stroke="#666666" points="330.5,-687 239.5,-687 239.5,-668 330.5,-668 330.5,-687"/>
<text text-anchor="middle" x="285" y="-675" font-family="Helvetica,sans-Serif" font-size="10.00">BodyConsumer</text>
</a>
</g>
</g>
<!-- Node1&#45;&gt;Node21 -->
<g id="edge20_Node000001_Node000021" class="edge">
<title>Node1&#45;&gt;Node21</title>
<g id="a_edge20_Node000001_Node000021"><a xlink:title=" ">
<path fill="none" stroke="#63b8ff" d="M148.65,-436.15C147.79,-482.11 152.37,-597.38 215,-659.5 221.59,-666.04 230.24,-670.29 239.18,-673.04"/>
<polygon fill="#63b8ff" stroke="#63b8ff" points="152.15,-436.14 148.95,-426.04 145.15,-435.93 152.15,-436.14"/>
</a>
</g>
</g>
<!-- Node23 -->
<g id="Node000023" class="node">
<title>Node23</title>
<g id="a_Node000023"><a xlink:href="classBodyProducer.html" target="_top" xlink:title=" ">
<polygon fill="white" stroke="#666666" points="327,-650 243,-650 243,-631 327,-631 327,-650"/>
<text text-anchor="middle" x="285" y="-638" font-family="Helvetica,sans-Serif" font-size="10.00">BodyProducer</text>
</a>
</g>
</g>
<!-- Node1&#45;&gt;Node23 -->
<g id="edge26_Node000001_Node000023" class="edge">
<title>Node1&#45;&gt;Node23</title>
<g id="a_edge26_Node000001_Node000023"><a xlink:title=" ">
<path fill="none" stroke="#63b8ff" d="M150.37,-436.38C153.18,-476.05 165.03,-565.61 215,-616.5 222.55,-624.19 232.7,-629.42 242.88,-632.98"/>
<polygon fill="#63b8ff" stroke="#63b8ff" points="153.87,-436.16 149.79,-426.38 146.88,-436.57 153.87,-436.16"/>
</a>
</g>
</g>
<!-- Node24 -->
<g id="Node000024" class="node">
<title>Node24</title>
<g id="a_Node000024"><a xlink:href="classServer.html" target="_top" xlink:title=" ">
<polygon fill="white" stroke="#666666" points="495.5,-527 447.5,-527 447.5,-508 495.5,-508 495.5,-527"/>
<text text-anchor="middle" x="471.5" y="-515" font-family="Helvetica,sans-Serif" font-size="10.00">Server</text>
</a>
</g>
</g>
<!-- Node1&#45;&gt;Node24 -->
<g id="edge59_Node000001_Node000024" class="edge">
<title>Node1&#45;&gt;Node24</title>
<g id="a_edge59_Node000001_Node000024"><a xlink:title=" ">
<path fill="none" stroke="#63b8ff" d="M150.5,-436.68C153.54,-473.28 165.78,-549.93 215,-583.5 266.41,-618.56 297.84,-608.09 355,-583.5 376.37,-574.31 371.48,-558.16 391,-545.5 408.31,-534.27 430.67,-526.92 447.26,-522.58"/>
<polygon fill="#63b8ff" stroke="#63b8ff" points="153.97,-436.05 149.81,-426.31 146.99,-436.52 153.97,-436.05"/>
</a>
</g>
</g>
<!-- Node28 -->
<g id="Node000028" class="node">
<title>Node28</title>
<g id="a_Node000028"><a xlink:href="classComm_1_1ConnOpener.html" target="_top" xlink:title=" ">
<polygon fill="white" stroke="#666666" points="342.5,-574 227.5,-574 227.5,-555 342.5,-555 342.5,-574"/>
<text text-anchor="middle" x="285" y="-562" font-family="Helvetica,sans-Serif" font-size="10.00">Comm::ConnOpener</text>
</a>
</g>
</g>
<!-- Node1&#45;&gt;Node28 -->
<g id="edge32_Node000001_Node000028" class="edge">
<title>Node1&#45;&gt;Node28</title>
<g id="a_edge32_Node000001_Node000028"><a xlink:title=" ">
<path fill="none" stroke="#63b8ff" d="M153.91,-436.04C161.41,-464.68 179.43,-517.75 215,-546.5 219.24,-549.92 224.06,-552.7 229.13,-554.96"/>
<polygon fill="#63b8ff" stroke="#63b8ff" points="157.24,-434.93 151.47,-426.05 150.44,-436.59 157.24,-434.93"/>
</a>
</g>
</g>
<!-- Node29 -->
<g id="Node000029" class="node">
<title>Node29</title>
<g id="a_Node000029"><a xlink:href="classComm_1_1TcpAcceptor.html" target="_top" xlink:title=" ">
<polygon fill="white" stroke="#666666" points="341.5,-537 228.5,-537 228.5,-518 341.5,-518 341.5,-537"/>
<text text-anchor="middle" x="285" y="-525" font-family="Helvetica,sans-Serif" font-size="10.00">Comm::TcpAcceptor</text>
</a>
</g>
</g>
<!-- Node1&#45;&gt;Node29 -->
<g id="edge33_Node000001_Node000029" class="edge">
<title>Node1&#45;&gt;Node29</title>
<g id="a_edge33_Node000001_Node000029"><a xlink:title=" ">
<path fill="none" stroke="#63b8ff" d="M158.07,-435.43C168.54,-456.41 188.21,-489.76 215,-508.5 220.6,-512.42 226.98,-515.53 233.54,-518"/>
<polygon fill="#63b8ff" stroke="#63b8ff" points="161.15,-433.75 153.68,-426.24 154.83,-436.77 161.15,-433.75"/>
</a>
</g>
</g>
<!-- Node30 -->
<g id="Node000030" class="node">
<title>Node30</title>
<g id="a_Node000030"><a xlink:href="classDownloader.html" target="_top" xlink:title=" ">
<polygon fill="white" stroke="#666666" points="322.5,-500 247.5,-500 247.5,-481 322.5,-481 322.5,-500"/>
<text text-anchor="middle" x="285" y="-488" font-family="Helvetica,sans-Serif" font-size="10.00">Downloader</text>
</a>
</g>
</g>
<!-- Node1&#45;&gt;Node30 -->
<g id="edge34_Node000001_Node000030" class="edge">
<title>Node1&#45;&gt;Node30</title>
<g id="a_edge34_Node000001_Node000030"><a xlink:title=" ">
<path fill="none" stroke="#63b8ff" d="M165.6,-433.49C178.03,-445.68 196.24,-461.65 215,-471.5 225.01,-476.76 236.62,-480.68 247.43,-483.55"/>
<polygon fill="#63b8ff" stroke="#63b8ff" points="167.83,-430.77 158.32,-426.12 162.86,-435.69 167.83,-430.77"/>
</a>
</g>
</g>
<!-- Node31 -->
<g id="Node000031" class="node">
<title>Node31</title>
<g id="a_Node000031"><a xlink:href="classHappyConnOpener.html" target="_top" xlink:title=" ">
<polygon fill="white" stroke="#666666" points="339,-463 231,-463 231,-444 339,-444 339,-463"/>
<text text-anchor="middle" x="285" y="-451" font-family="Helvetica,sans-Serif" font-size="10.00">HappyConnOpener</text>
</a>
</g>
</g>
<!-- Node1&#45;&gt;Node31 -->
<g id="edge35_Node000001_Node000031" class="edge">
<title>Node1&#45;&gt;Node31</title>
<g id="a_edge35_Node000001_Node000031"><a xlink:title=" ">
<path fill="none" stroke="#63b8ff" d="M188.67,-427.28C207.86,-432.55 230.77,-438.86 249.32,-443.96"/>
<polygon fill="#63b8ff" stroke="#63b8ff" points="189.59,-423.9 179.02,-424.62 187.73,-430.65 189.59,-423.9"/>
</a>
</g>
</g>
<!-- Node32 -->
<g id="Node000032" class="node">
<title>Node32</title>
<g id="a_Node000032"><a xlink:href="classHttp_1_1Tunneler.html" target="_top" xlink:title=" ">
<polygon fill="white" stroke="#666666" points="327.5,-426 242.5,-426 242.5,-407 327.5,-407 327.5,-426"/>
<text text-anchor="middle" x="285" y="-414" font-family="Helvetica,sans-Serif" font-size="10.00">Http::Tunneler</text>
</a>
</g>
</g>
<!-- Node1&#45;&gt;Node32 -->
<g id="edge36_Node000001_Node000032" class="edge">
<title>Node1&#45;&gt;Node32</title>
<g id="a_edge36_Node000001_Node000032"><a xlink:title=" ">
<path fill="none" stroke="#63b8ff" d="M189.04,-416.5C205.79,-416.5 225.33,-416.5 242.31,-416.5"/>
<polygon fill="#63b8ff" stroke="#63b8ff" points="189.02,-413 179.02,-416.5 189.02,-420 189.02,-413"/>
</a>
</g>
</g>
<!-- Node33 -->
<g id="Node000033" class="node">
<title>Node33</title>
<g id="a_Node000033"><a xlink:href="classHttpControlMsgSink.html" target="_top" xlink:title="sends a single control message, notifying the Sink">
<polygon fill="white" stroke="#666666" points="342,-389 228,-389 228,-370 342,-370 342,-389"/>
<text text-anchor="middle" x="285" y="-377" font-family="Helvetica,sans-Serif" font-size="10.00">HttpControlMsgSink</text>
</a>
</g>
</g>
<!-- Node1&#45;&gt;Node33 -->
<g id="edge37_Node000001_Node000033" class="edge">
<title>Node1&#45;&gt;Node33</title>
<g id="a_edge37_Node000001_Node000033"><a xlink:title=" ">
<path fill="none" stroke="#63b8ff" d="M188.93,-404.88C197.51,-402.4 206.55,-399.83 215,-397.5 225.26,-394.67 236.42,-391.71 246.71,-389.03"/>
<polygon fill="#63b8ff" stroke="#63b8ff" points="187.75,-401.57 179.12,-407.72 189.7,-408.29 187.75,-401.57"/>
</a>
</g>
</g>
<!-- Node34 -->
<g id="Node000034" class="node">
<title>Node34</title>
<g id="a_Node000034"><a xlink:href="classIpc_1_1Forwarder.html" target="_top" xlink:title=" ">
<polygon fill="white" stroke="#666666" points="328,-352 242,-352 242,-333 328,-333 328,-352"/>
<text text-anchor="middle" x="285" y="-340" font-family="Helvetica,sans-Serif" font-size="10.00">Ipc::Forwarder</text>
</a>
</g>
</g>
<!-- Node1&#45;&gt;Node34 -->
<g id="edge39_Node000001_Node000034" class="edge">
<title>Node1&#45;&gt;Node34</title>
<g id="a_edge39_Node000001_Node000034"><a xlink:title=" ">
<path fill="none" stroke="#63b8ff" d="M165.5,-399.12C177.89,-386.66 196.07,-370.39 215,-360.5 223.23,-356.2 232.56,-352.88 241.64,-350.32"/>
<polygon fill="#63b8ff" stroke="#63b8ff" points="162.67,-397.02 158.25,-406.65 167.71,-401.87 162.67,-397.02"/>
</a>
</g>
</g>
<!-- Node37 -->
<g id="Node000037" class="node">
<title>Node37</title>
<g id="a_Node000037"><a xlink:href="classIpc_1_1Inquirer.html" target="_top" xlink:title=" ">
<polygon fill="white" stroke="#666666" points="322,-315 248,-315 248,-296 322,-296 322,-315"/>
<text text-anchor="middle" x="285" y="-303" font-family="Helvetica,sans-Serif" font-size="10.00">Ipc::Inquirer</text>
</a>
</g>
</g>
<!-- Node1&#45;&gt;Node37 -->
<g id="edge42_Node000001_Node000037" class="edge">
<title>Node1&#45;&gt;Node37</title>
<g id="a_edge42_Node000001_Node000037"><a xlink:title=" ">
<path fill="none" stroke="#63b8ff" d="M157.81,-397.63C168.15,-376.38 187.8,-342.35 215,-323.5 224.67,-316.8 236.66,-312.59 247.92,-309.95"/>
<polygon fill="#63b8ff" stroke="#63b8ff" points="154.54,-396.37 153.49,-406.91 160.88,-399.32 154.54,-396.37"/>
</a>
</g>
</g>
<!-- Node40 -->
<g id="Node000040" class="node">
<title>Node40</title>
<g id="a_Node000040"><a xlink:href="classIpc_1_1UdsOp.html" target="_top" xlink:title=" ">
<polygon fill="white" stroke="#666666" points="319.5,-278 250.5,-278 250.5,-259 319.5,-259 319.5,-278"/>
<text text-anchor="middle" x="285" y="-266" font-family="Helvetica,sans-Serif" font-size="10.00">Ipc::UdsOp</text>
</a>
</g>
</g>
<!-- Node1&#45;&gt;Node40 -->
<g id="edge45_Node000001_Node000040" class="edge">
<title>Node1&#45;&gt;Node40</title>
<g id="a_edge45_Node000001_Node000040"><a xlink:title=" ">
<path fill="none" stroke="#63b8ff" d="M153.91,-396.96C161.41,-368.32 179.43,-315.25 215,-286.5 224.92,-278.49 238.03,-274.01 250.15,-271.52"/>
<polygon fill="#63b8ff" stroke="#63b8ff" points="150.44,-396.41 151.47,-406.95 157.24,-398.07 150.44,-396.41"/>
</a>
</g>
</g>
<!-- Node45 -->
<g id="Node000045" class="node">
<title>Node45</title>
<g id="a_Node000045"><a xlink:href="classLog_1_1TcpLogger.html" target="_top" xlink:title=" ">
<polygon fill="white" stroke="#666666" points="329.5,-241 240.5,-241 240.5,-222 329.5,-222 329.5,-241"/>
<text text-anchor="middle" x="285" y="-229" font-family="Helvetica,sans-Serif" font-size="10.00">Log::TcpLogger</text>
</a>
</g>
</g>
<!-- Node1&#45;&gt;Node45 -->
<g id="edge48_Node000001_Node000045" class="edge">
<title>Node1&#45;&gt;Node45</title>
<g id="a_edge48_Node000001_Node000045"><a xlink:title=" ">
<path fill="none" stroke="#63b8ff" d="M151.52,-396.52C156.17,-361.42 170.85,-288.7 215,-249.5 222.13,-243.17 231.21,-239.02 240.43,-236.31"/>
<polygon fill="#63b8ff" stroke="#63b8ff" points="148,-396.54 150.31,-406.88 154.95,-397.36 148,-396.54"/>
</a>
</g>
</g>
<!-- Node46 -->
<g id="Node000046" class="node">
<title>Node46</title>
<g id="a_Node000046"><a xlink:href="classMgr_1_1StoreToCommWriter.html" target="_top" xlink:title=" ">
<polygon fill="white" stroke="#666666" points="355,-204 215,-204 215,-185 355,-185 355,-204"/>
<text text-anchor="middle" x="285" y="-192" font-family="Helvetica,sans-Serif" font-size="10.00">Mgr::StoreToCommWriter</text>
</a>
</g>
</g>
<!-- Node1&#45;&gt;Node46 -->
<g id="edge49_Node000001_Node000046" class="edge">
<title>Node1&#45;&gt;Node46</title>
<g id="a_edge49_Node000001_Node000046"><a xlink:title=" ">
<path fill="none" stroke="#63b8ff" d="M149.88,-396.46C151.77,-355.66 162.01,-262.63 215,-212.5 218.6,-209.1 222.76,-206.32 227.21,-204.05"/>
<polygon fill="#63b8ff" stroke="#63b8ff" points="146.37,-396.6 149.53,-406.71 153.37,-396.83 146.37,-396.6"/>
</a>
</g>
</g>
<!-- Node49 -->
<g id="Node000049" class="node">
<title>Node49</title>
<g id="a_Node000049"><a xlink:href="classPeerPoolMgr.html" target="_top" xlink:title="Maintains an fixed&#45;size &quot;standby&quot; PconnPool for a single CachePeer.">
<polygon fill="white" stroke="#666666" points="324,-167 246,-167 246,-148 324,-148 324,-167"/>
<text text-anchor="middle" x="285" y="-155" font-family="Helvetica,sans-Serif" font-size="10.00">PeerPoolMgr</text>
</a>
</g>
</g>
<!-- Node1&#45;&gt;Node49 -->
<g id="edge52_Node000001_Node000049" class="edge">
<title>Node1&#45;&gt;Node49</title>
<g id="a_edge52_Node000001_Node000049"><a xlink:title=" ">
<path fill="none" stroke="#63b8ff" d="M148.69,-396.38C148.01,-350.38 153.07,-236.8 215,-175.5 223.18,-167.4 234.53,-162.81 245.65,-160.25"/>
<polygon fill="#63b8ff" stroke="#63b8ff" points="145.2,-396.64 148.96,-406.54 152.2,-396.45 145.2,-396.64"/>
</a>
</g>
</g>
<!-- Node50 -->
<g id="Node000050" class="node">
<title>Node50</title>
<g id="a_Node000050"><a xlink:href="classRock_1_1HeaderUpdater.html" target="_top" xlink:title=" ">
<polygon fill="white" stroke="#666666" points="345.5,-130 224.5,-130 224.5,-111 345.5,-111 345.5,-130"/>
<text text-anchor="middle" x="285" y="-118" font-family="Helvetica,sans-Serif" font-size="10.00">Rock::HeaderUpdater</text>
</a>
</g>
</g>
<!-- Node1&#45;&gt;Node50 -->
<g id="edge53_Node000001_Node000050" class="edge">
<title>Node1&#45;&gt;Node50</title>
<g id="a_edge53_Node000001_Node000050"><a xlink:title=" ">
<path fill="none" stroke="#63b8ff" d="M151.56,-396.43C157.85,-339 178.62,-175.76 215,-138.5 218.29,-135.13 222.12,-132.37 226.26,-130.11"/>
<polygon fill="#63b8ff" stroke="#63b8ff" points="148.04,-396.4 150.46,-406.72 155,-397.14 148.04,-396.4"/>
</a>
</g>
</g>
<!-- Node51 -->
<g id="Node000051" class="node">
<title>Node51</title>
<g id="a_Node000051"><a xlink:href="classRock_1_1Rebuild.html" target="_top" xlink:title=" ">
<polygon fill="white" stroke="#666666" points="326.5,-93 243.5,-93 243.5,-74 326.5,-74 326.5,-93"/>
<text text-anchor="middle" x="285" y="-81" font-family="Helvetica,sans-Serif" font-size="10.00">Rock::Rebuild</text>
</a>
</g>
</g>
<!-- Node1&#45;&gt;Node51 -->
<g id="edge54_Node000001_Node000051" class="edge">
<title>Node1&#45;&gt;Node51</title>
<g id="a_edge54_Node000001_Node000051"><a xlink:title=" ">
<path fill="none" stroke="#63b8ff" d="M150.94,-396.67C155.84,-334.45 173.96,-144.65 215,-101.5 222.42,-93.7 232.77,-89.12 243.2,-86.47"/>
<polygon fill="#63b8ff" stroke="#63b8ff" points="147.44,-396.5 150.17,-406.74 154.42,-397.04 147.44,-396.5"/>
</a>
</g>
</g>
<!-- Node52 -->
<g id="Node000052" class="node">
<title>Node52</title>
<g id="a_Node000052"><a xlink:href="classSecurity_1_1PeerConnector.html" target="_top" xlink:title=" ">
<polygon fill="white" stroke="#666666" points="351.5,-56 218.5,-56 218.5,-37 351.5,-37 351.5,-56"/>
<text text-anchor="middle" x="285" y="-44" font-family="Helvetica,sans-Serif" font-size="10.00">Security::PeerConnector</text>
</a>
</g>
</g>
<!-- Node1&#45;&gt;Node52 -->
<g id="edge55_Node000001_Node000052" class="edge">
<title>Node1&#45;&gt;Node52</title>
<g id="a_edge55_Node000001_Node000052"><a xlink:title=" ">
<path fill="none" stroke="#63b8ff" d="M150.47,-396.59C154.13,-329.56 169.34,-113.53 215,-64.5 218.12,-61.15 221.78,-58.39 225.76,-56.12"/>
<polygon fill="#63b8ff" stroke="#63b8ff" points="146.95,-396.82 149.93,-406.99 153.94,-397.18 146.95,-396.82"/>
</a>
</g>
</g>
<!-- Node2 -->
<g id="Node000002" class="node">
<title>Node2</title>
<g id="a_Node000002"><a xlink:href="classCbdataParent.html" target="_top" xlink:title=" ">
<polygon fill="white" stroke="#666666" points="82,-426 0,-426 0,-407 82,-407 82,-426"/>
<text text-anchor="middle" x="41" y="-414" font-family="Helvetica,sans-Serif" font-size="10.00">CbdataParent</text>
</a>
</g>
</g>
<!-- Node2&#45;&gt;Node1 -->
<g id="edge1_Node000001_Node000002" class="edge">
<title>Node2&#45;&gt;Node1</title>
<g id="a_edge1_Node000001_Node000002"><a xlink:title=" ">
<path fill="none" stroke="#63b8ff" d="M92.37,-416.5C101.12,-416.5 109.96,-416.5 117.93,-416.5"/>
<polygon fill="#63b8ff" stroke="#63b8ff" points="92.19,-413 82.19,-416.5 92.19,-420 92.19,-413"/>
</a>
</g>
</g>
<!-- Node5 -->
<g id="Node000005" class="node">
<title>Node5</title>
<g id="a_Node000005"><a xlink:href="classAdaptation_1_1Ecap_1_1XactionRep.html" target="_top" xlink:title=" ">
<polygon fill="white" stroke="#666666" points="552,-716 391,-716 391,-697 552,-697 552,-716"/>
<text text-anchor="middle" x="471.5" y="-704" font-family="Helvetica,sans-Serif" font-size="10.00">Adaptation::Ecap::XactionRep</text>
</a>
</g>
</g>
<!-- Node4&#45;&gt;Node5 -->
<g id="edge4_Node000004_Node000005" class="edge">
<title>Node4&#45;&gt;Node5</title>
<g id="a_edge4_Node000004_Node000005"><a xlink:title=" ">
<path fill="none" stroke="#63b8ff" d="M319.44,-793.62C331.35,-787.79 344.43,-780.29 355,-771.5 374.96,-754.9 369.15,-739.52 391,-725.5 397.09,-721.59 403.91,-718.48 410.93,-716.02"/>
<polygon fill="#63b8ff" stroke="#63b8ff" points="317.78,-790.53 310.2,-797.94 320.74,-796.88 317.78,-790.53"/>
</a>
</g>
</g>
<!-- Node6 -->
<g id="Node000006" class="node">
<title>Node6</title>
<g id="a_Node000006"><a xlink:href="classAdaptation_1_1Icap_1_1Launcher.html" target="_top" xlink:title=" ">
<polygon fill="white" stroke="#666666" points="544.5,-901 398.5,-901 398.5,-882 544.5,-882 544.5,-901"/>
<text text-anchor="middle" x="471.5" y="-889" font-family="Helvetica,sans-Serif" font-size="10.00">Adaptation::Icap::Launcher</text>
</a>
</g>
</g>
<!-- Node4&#45;&gt;Node6 -->
<g id="edge5_Node000004_Node000006" class="edge">
<title>Node4&#45;&gt;Node6</title>
<g id="a_edge5_Node000004_Node000006"><a xlink:title=" ">
<path fill="none" stroke="#63b8ff" d="M345.24,-820.95C348.65,-822.59 351.93,-824.43 355,-826.5 376.82,-841.2 368.85,-859.3 391,-873.5 396.36,-876.94 402.29,-879.72 408.43,-881.98"/>
<polygon fill="#63b8ff" stroke="#63b8ff" points="346.55,-817.7 335.97,-817.05 343.83,-824.16 346.55,-817.7"/>
</a>
</g>
</g>
<!-- Node9 -->
<g id="Node000009" class="node">
<title>Node9</title>
<g id="a_Node000009"><a xlink:href="classAdaptation_1_1Icap_1_1Xaction.html" target="_top" xlink:title=" ">
<polygon fill="white" stroke="#666666" points="541,-864 402,-864 402,-845 541,-845 541,-864"/>
<text text-anchor="middle" x="471.5" y="-852" font-family="Helvetica,sans-Serif" font-size="10.00">Adaptation::Icap::Xaction</text>
</a>
</g>
</g>
<!-- Node4&#45;&gt;Node9 -->
<g id="edge8_Node000004_Node000009" class="edge">
<title>Node4&#45;&gt;Node9</title>
<g id="a_edge8_Node000004_Node000009"><a xlink:title=" ">
<path fill="none" stroke="#63b8ff" d="M330.5,-819.74C338.65,-821.98 347.08,-824.31 355,-826.5 371,-830.93 374.9,-832.44 391,-836.5 402.53,-839.4 415.05,-842.34 426.67,-844.98"/>
<polygon fill="#63b8ff" stroke="#63b8ff" points="331.32,-816.33 320.75,-817.05 329.46,-823.08 331.32,-816.33"/>
</a>
</g>
</g>
<!-- Node12 -->
<g id="Node000012" class="node">
<title>Node12</title>
<g id="a_Node000012"><a xlink:href="classAdaptation_1_1Iterator.html" target="_top" xlink:title="iterates services in ServiceGroup, starting adaptation launchers">
<polygon fill="white" stroke="#666666" points="527.5,-827 415.5,-827 415.5,-808 527.5,-808 527.5,-827"/>
<text text-anchor="middle" x="471.5" y="-815" font-family="Helvetica,sans-Serif" font-size="10.00">Adaptation::Iterator</text>
</a>
</g>
</g>
<!-- Node4&#45;&gt;Node12 -->
<g id="edge11_Node000004_Node000012" class="edge">
<title>Node4&#45;&gt;Node12</title>
<g id="a_edge11_Node000004_Node000012"><a xlink:title=" ">
<path fill="none" stroke="#63b8ff" d="M350.53,-811C371.64,-812.14 394.89,-813.4 415.25,-814.51"/>
<polygon fill="#63b8ff" stroke="#63b8ff" points="350.53,-807.49 340.36,-810.45 350.15,-814.48 350.53,-807.49"/>
</a>
</g>
</g>
<!-- Node7 -->
<g id="Node000007" class="node">
<title>Node7</title>
<g id="a_Node000007"><a xlink:href="classAdaptation_1_1Icap_1_1ModXactLauncher.html" target="_top" xlink:title=" ">
<polygon fill="white" stroke="#666666" points="733,-954.5 588,-954.5 588,-924.5 733,-924.5 733,-954.5"/>
<text text-anchor="start" x="596" y="-942.5" font-family="Helvetica,sans-Serif" font-size="10.00">Adaptation::Icap::ModXact</text>
<text text-anchor="middle" x="660.5" y="-931.5" font-family="Helvetica,sans-Serif" font-size="10.00">Launcher</text>
</a>
</g>
</g>
<!-- Node6&#45;&gt;Node7 -->
<g id="edge6_Node000006_Node000007" class="edge">
<title>Node6&#45;&gt;Node7</title>
<g id="a_edge6_Node000006_Node000007"><a xlink:title=" ">
<path fill="none" stroke="#63b8ff" d="M519.72,-903.62C544.34,-909.94 574.7,-917.73 600.82,-924.44"/>
<polygon fill="#63b8ff" stroke="#63b8ff" points="520.45,-900.19 509.89,-901.1 518.71,-906.97 520.45,-900.19"/>
</a>
</g>
</g>
<!-- Node8 -->
<g id="Node000008" class="node">
<title>Node8</title>
<g id="a_Node000008"><a xlink:href="classAdaptation_1_1Icap_1_1OptXactLauncher.html" target="_top" xlink:title=" ">
<polygon fill="white" stroke="#666666" points="731,-906.5 590,-906.5 590,-876.5 731,-876.5 731,-906.5"/>
<text text-anchor="start" x="598" y="-894.5" font-family="Helvetica,sans-Serif" font-size="10.00">Adaptation::Icap::OptXact</text>
<text text-anchor="middle" x="660.5" y="-883.5" font-family="Helvetica,sans-Serif" font-size="10.00">Launcher</text>
</a>
</g>
</g>
<!-- Node6&#45;&gt;Node8 -->
<g id="edge7_Node000006_Node000008" class="edge">
<title>Node6&#45;&gt;Node8</title>
<g id="a_edge7_Node000006_Node000008"><a xlink:title=" ">
<path fill="none" stroke="#63b8ff" d="M554.77,-891.5C566.52,-891.5 578.5,-891.5 589.97,-891.5"/>
<polygon fill="#63b8ff" stroke="#63b8ff" points="554.53,-888 544.53,-891.5 554.53,-895 554.53,-888"/>
</a>
</g>
</g>
<!-- Node10 -->
<g id="Node000010" class="node">
<title>Node10</title>
<g id="a_Node000010"><a xlink:href="classAdaptation_1_1Icap_1_1ModXact.html" target="_top" xlink:title=" ">
<polygon fill="white" stroke="#666666" points="733,-678 588,-678 588,-659 733,-659 733,-678"/>
<text text-anchor="middle" x="660.5" y="-666" font-family="Helvetica,sans-Serif" font-size="10.00">Adaptation::Icap::ModXact</text>
</a>
</g>
</g>
<!-- Node9&#45;&gt;Node10 -->
<g id="edge9_Node000009_Node000010" class="edge">
<title>Node9&#45;&gt;Node10</title>
<g id="a_edge9_Node000009_Node000010"><a xlink:title=" ">
<path fill="none" stroke="#63b8ff" d="M545.33,-840.63C547.64,-839.37 549.87,-837.99 552,-836.5 611.8,-794.52 646.05,-707.61 656.25,-678.36"/>
<polygon fill="#63b8ff" stroke="#63b8ff" points="543.66,-837.54 536.08,-844.95 546.63,-843.88 543.66,-837.54"/>
</a>
</g>
</g>
<!-- Node11 -->
<g id="Node000011" class="node">
<title>Node11</title>
<g id="a_Node000011"><a xlink:href="classAdaptation_1_1Icap_1_1OptXact.html" target="_top" xlink:title=" ">
<polygon fill="white" stroke="#666666" points="731,-858 590,-858 590,-839 731,-839 731,-858"/>
<text text-anchor="middle" x="660.5" y="-846" font-family="Helvetica,sans-Serif" font-size="10.00">Adaptation::Icap::OptXact</text>
</a>
</g>
</g>
<!-- Node9&#45;&gt;Node11 -->
<g id="edge10_Node000009_Node000011" class="edge">
<title>Node9&#45;&gt;Node11</title>
<g id="a_edge10_Node000009_Node000011"><a xlink:title=" ">
<path fill="none" stroke="#63b8ff" d="M551.28,-851.97C564.14,-851.56 577.38,-851.13 590,-850.73"/>
<polygon fill="#63b8ff" stroke="#63b8ff" points="550.95,-848.48 541.07,-852.3 551.18,-855.48 550.95,-848.48"/>
</a>
</g>
</g>
<!-- Node13&#45;&gt;Node6 -->
<g id="edge13_Node000013_Node000006" class="edge">
<title>Node13&#45;&gt;Node6</title>
<g id="a_edge13_Node000013_Node000006"><a xlink:title=" ">
<path fill="none" stroke="#63b8ff" d="M322.46,-766.33C334.02,-772.1 346.09,-779.77 355,-789.5 382.44,-819.45 359.78,-847.51 391,-873.5 395.02,-876.85 399.55,-879.61 404.34,-881.87"/>
<polygon fill="#63b8ff" stroke="#63b8ff" points="323.92,-763.15 313.37,-762.1 320.96,-769.49 323.92,-763.15"/>
</a>
</g>
</g>
<!-- Node13&#45;&gt;Node12 -->
<g id="edge15_Node000013_Node000012" class="edge">
<title>Node13&#45;&gt;Node12</title>
<g id="a_edge15_Node000013_Node000012"><a xlink:title=" ">
<path fill="none" stroke="#63b8ff" d="M313.72,-766.73C334.55,-776.97 364.01,-790.5 391,-799.5 400.67,-802.72 411.18,-805.56 421.31,-807.96"/>
<polygon fill="#63b8ff" stroke="#63b8ff" points="315.03,-763.47 304.52,-762.14 311.91,-769.74 315.03,-763.47"/>
</a>
</g>
</g>
<!-- Node14 -->
<g id="Node000014" class="node">
<title>Node14</title>
<g id="a_Node000014"><a xlink:href="classAdaptation_1_1Icap_1_1ServiceRep.html" target="_top" xlink:title=" ">
<polygon fill="white" stroke="#666666" points="550,-790 393,-790 393,-771 550,-771 550,-790"/>
<text text-anchor="middle" x="471.5" y="-778" font-family="Helvetica,sans-Serif" font-size="10.00">Adaptation::Icap::ServiceRep</text>
</a>
</g>
</g>
<!-- Node13&#45;&gt;Node14 -->
<g id="edge14_Node000013_Node000014" class="edge">
<title>Node13&#45;&gt;Node14</title>
<g id="a_edge14_Node000013_Node000014"><a xlink:title=" ">
<path fill="none" stroke="#63b8ff" d="M352.04,-762.52C370.23,-765.28 389.9,-768.27 407.89,-771"/>
<polygon fill="#63b8ff" stroke="#63b8ff" points="352.52,-759.06 342.11,-761.01 351.47,-765.98 352.52,-759.06"/>
</a>
</g>
</g>
<!-- Node15 -->
<g id="Node000015" class="node">
<title>Node15</title>
<g id="a_Node000015"><a xlink:href="classClient.html" target="_top" xlink:title=" ">
<polygon fill="white" stroke="#666666" points="494,-640 449,-640 449,-621 494,-621 494,-640"/>
<text text-anchor="middle" x="471.5" y="-628" font-family="Helvetica,sans-Serif" font-size="10.00">Client</text>
</a>
</g>
</g>
<!-- Node13&#45;&gt;Node15 -->
<g id="edge16_Node000013_Node000015" class="edge">
<title>Node13&#45;&gt;Node15</title>
<g id="a_edge16_Node000013_Node000015"><a xlink:title=" ">
<path fill="none" stroke="#63b8ff" d="M308.98,-737.31C347.55,-711.8 424.22,-661.1 456.09,-640.03"/>
<polygon fill="#63b8ff" stroke="#63b8ff" points="306.89,-734.49 300.48,-742.93 310.75,-740.33 306.89,-734.49"/>
</a>
</g>
</g>
<!-- Node20 -->
<g id="Node000020" class="node">
<title>Node20</title>
<g id="a_Node000020"><a xlink:href="classClientHttpRequest.html" target="_top" xlink:title=" ">
<polygon fill="white" stroke="#666666" points="524.5,-753 418.5,-753 418.5,-734 524.5,-734 524.5,-753"/>
<text text-anchor="middle" x="471.5" y="-741" font-family="Helvetica,sans-Serif" font-size="10.00">ClientHttpRequest</text>
</a>
</g>
</g>
<!-- Node13&#45;&gt;Node20 -->
<g id="edge19_Node000013_Node000020" class="edge">
<title>Node13&#45;&gt;Node20</title>
<g id="a_edge19_Node000013_Node000020"><a xlink:title=" ">
<path fill="none" stroke="#63b8ff" d="M352.27,-749.27C374.03,-748.21 397.89,-747.04 418.44,-746.04"/>
<polygon fill="#63b8ff" stroke="#63b8ff" points="351.93,-745.78 342.11,-749.76 352.27,-752.77 351.93,-745.78"/>
</a>
</g>
</g>
<!-- Node16 -->
<g id="Node000016" class="node">
<title>Node16</title>
<g id="a_Node000016"><a xlink:href="classFtp_1_1Client.html" target="_top" xlink:title="FTP client functionality shared among FTP Gateway and Relay clients.">
<polygon fill="#fff0f0" stroke="red" points="694,-640 627,-640 627,-621 694,-621 694,-640"/>
<text text-anchor="middle" x="660.5" y="-628" font-family="Helvetica,sans-Serif" font-size="10.00">Ftp::Client</text>
</a>
</g>
</g>
<!-- Node15&#45;&gt;Node16 -->
<g id="edge17_Node000015_Node000016" class="edge">
<title>Node15&#45;&gt;Node16</title>
<g id="a_edge17_Node000015_Node000016"><a xlink:title=" ">
<path fill="none" stroke="#63b8ff" d="M504.67,-630.5C538.83,-630.5 592.52,-630.5 626.85,-630.5"/>
<polygon fill="#63b8ff" stroke="#63b8ff" points="504.32,-627 494.32,-630.5 504.32,-634 504.32,-627"/>
</a>
</g>
</g>
<!-- Node19 -->
<g id="Node000019" class="node">
<title>Node19</title>
<g id="a_Node000019"><a xlink:href="classHttpStateData.html" target="_top" xlink:title=" ">
<polygon fill="white" stroke="#666666" points="703.5,-603 617.5,-603 617.5,-584 703.5,-584 703.5,-603"/>
<text text-anchor="middle" x="660.5" y="-591" font-family="Helvetica,sans-Serif" font-size="10.00">HttpStateData</text>
</a>
</g>
</g>
<!-- Node15&#45;&gt;Node19 -->
<g id="edge18_Node000015_Node000019" class="edge">
<title>Node15&#45;&gt;Node19</title>
<g id="a_edge18_Node000015_Node000019"><a xlink:title=" ">
<path fill="none" stroke="#63b8ff" d="M504.2,-624.23C535.33,-618.07 583.02,-608.63 617.34,-601.84"/>
<polygon fill="#63b8ff" stroke="#63b8ff" points="503.45,-620.81 494.32,-626.18 504.81,-627.68 503.45,-620.81"/>
</a>
</g>
</g>
<!-- Node21&#45;&gt;Node5 -->
<g id="edge21_Node000021_Node000005" class="edge">
<title>Node21&#45;&gt;Node5</title>
<g id="a_edge21_Node000021_Node000005"><a xlink:title=" ">
<path fill="none" stroke="#63b8ff" d="M340.72,-686.1C362.47,-689.52 387.57,-693.46 409.87,-696.97"/>
<polygon fill="#63b8ff" stroke="#63b8ff" points="341.08,-682.62 330.66,-684.52 340,-689.53 341.08,-682.62"/>
</a>
</g>
</g>
<!-- Node21&#45;&gt;Node10 -->
<g id="edge22_Node000021_Node000010" class="edge">
<title>Node21&#45;&gt;Node10</title>
<g id="a_edge22_Node000021_Node000010"><a xlink:title=" ">
<path fill="none" stroke="#63b8ff" d="M340.79,-676.18C406.22,-674.6 515.85,-671.96 587.92,-670.22"/>
<polygon fill="#63b8ff" stroke="#63b8ff" points="340.59,-672.68 330.68,-676.42 340.76,-679.68 340.59,-672.68"/>
</a>
</g>
</g>
<!-- Node21&#45;&gt;Node15 -->
<g id="edge24_Node000021_Node000015" class="edge">
<title>Node21&#45;&gt;Node15</title>
<g id="a_edge24_Node000021_Node000015"><a xlink:title=" ">
<path fill="none" stroke="#63b8ff" d="M333.45,-665.41C370.62,-655.94 420.61,-643.21 448.8,-636.03"/>
<polygon fill="#63b8ff" stroke="#63b8ff" points="332.16,-662.13 323.34,-667.99 333.89,-668.91 332.16,-662.13"/>
</a>
</g>
</g>
<!-- Node21&#45;&gt;Node20 -->
<g id="edge25_Node000021_Node000020" class="edge">
<title>Node21&#45;&gt;Node20</title>
<g id="a_edge25_Node000021_Node000020"><a xlink:title=" ">
<path fill="none" stroke="#63b8ff" d="M313.03,-691.73C333.87,-702.24 363.66,-716.27 391,-725.5 400.52,-728.72 410.87,-731.53 420.87,-733.92"/>
<polygon fill="#63b8ff" stroke="#63b8ff" points="314.62,-688.61 304.12,-687.18 311.43,-694.85 314.62,-688.61"/>
</a>
</g>
</g>
<!-- Node22 -->
<g id="Node000022" class="node">
<title>Node22</title>
<g id="a_Node000022"><a xlink:href="classBodySink.html" target="_top" xlink:title=" ">
<polygon fill="white" stroke="#666666" points="502.5,-603 440.5,-603 440.5,-584 502.5,-584 502.5,-603"/>
<text text-anchor="middle" x="471.5" y="-591" font-family="Helvetica,sans-Serif" font-size="10.00">BodySink</text>
</a>
</g>
</g>
<!-- Node21&#45;&gt;Node22 -->
<g id="edge23_Node000021_Node000022" class="edge">
<title>Node21&#45;&gt;Node22</title>
<g id="a_edge23_Node000021_Node000022"><a xlink:title=" ">
<path fill="none" stroke="#63b8ff" d="M340.12,-667.17C345.36,-665.07 350.42,-662.54 355,-659.5 376.92,-644.94 368.93,-626.83 391,-612.5 405.64,-602.99 424.56,-598.24 440.28,-595.86"/>
<polygon fill="#63b8ff" stroke="#63b8ff" points="338.84,-663.9 330.55,-670.5 341.14,-670.51 338.84,-663.9"/>
</a>
</g>
</g>
<!-- Node23&#45;&gt;Node5 -->
<g id="edge27_Node000023_Node000005" class="edge">
<title>Node23&#45;&gt;Node5</title>
<g id="a_edge27_Node000023_Node000005"><a xlink:title=" ">
<path fill="none" stroke="#63b8ff" d="M333.57,-652.81C340.79,-654.9 348.13,-657.16 355,-659.5 388.41,-670.85 426.1,-686.8 449.07,-696.89"/>
<polygon fill="#63b8ff" stroke="#63b8ff" points="334.42,-649.41 323.85,-650.06 332.52,-656.15 334.42,-649.41"/>
</a>
</g>
</g>
<!-- Node23&#45;&gt;Node10 -->
<g id="edge28_Node000023_Node000010" class="edge">
<title>Node23&#45;&gt;Node10</title>
<g id="a_edge28_Node000023_Node000010"><a xlink:title=" ">
<path fill="none" stroke="#63b8ff" d="M334.37,-627.28C341.59,-624.3 348.71,-620.74 355,-616.5 375.12,-602.96 368.91,-585.5 391,-575.5 456.19,-545.99 491.34,-537.55 552,-575.5 583.01,-594.9 559.77,-626.25 588,-649.5 592.66,-653.34 598.02,-656.41 603.66,-658.86"/>
<polygon fill="#63b8ff" stroke="#63b8ff" points="332.66,-624.19 324.54,-630.99 335.13,-630.74 332.66,-624.19"/>
</a>
</g>
</g>
<!-- Node23&#45;&gt;Node15 -->
<g id="edge29_Node000023_Node000015" class="edge">
<title>Node23&#45;&gt;Node15</title>
<g id="a_edge29_Node000023_Node000015"><a xlink:title=" ">
<path fill="none" stroke="#63b8ff" d="M337.44,-637.71C374.12,-635.72 421.58,-633.15 448.77,-631.68"/>
<polygon fill="#63b8ff" stroke="#63b8ff" points="337.2,-634.22 327.41,-638.26 337.58,-641.21 337.2,-634.22"/>
</a>
</g>
</g>
<!-- Node23&#45;&gt;Node24 -->
<g id="edge30_Node000023_Node000024" class="edge">
<title>Node23&#45;&gt;Node24</title>
<g id="a_edge30_Node000023_Node000024"><a xlink:title=" ">
<path fill="none" stroke="#63b8ff" d="M336.46,-628.28C343.18,-625.19 349.6,-621.32 355,-616.5 382.58,-591.87 362.92,-565.55 391,-541.5 406.77,-528 429.95,-522.09 447.22,-519.51"/>
<polygon fill="#63b8ff" stroke="#63b8ff" points="335.14,-625.04 327.19,-632.04 337.77,-631.53 335.14,-625.04"/>
</a>
</g>
</g>
<!-- Node25 -->
<g id="Node000025" class="node">
<title>Node25</title>
<g id="a_Node000025"><a xlink:href="classConnStateData.html" target="_top" xlink:title=" ">
<polygon fill="#fff0f0" stroke="red" points="705.5,-504 615.5,-504 615.5,-485 705.5,-485 705.5,-504"/>
<text text-anchor="middle" x="660.5" y="-492" font-family="Helvetica,sans-Serif" font-size="10.00">ConnStateData</text>
</a>
</g>
</g>
<!-- Node24&#45;&gt;Node25 -->
<g id="edge31_Node000024_Node000025" class="edge">
<title>Node24&#45;&gt;Node25</title>
<g id="a_edge31_Node000024_Node000025"><a xlink:title=" ">
<path fill="none" stroke="#63b8ff" d="M505.93,-513.39C536.4,-509.64 581.65,-504.08 615.14,-499.96"/>
<polygon fill="#63b8ff" stroke="#63b8ff" points="505.3,-509.94 495.81,-514.63 506.16,-516.89 505.3,-509.94"/>
</a>
</g>
</g>
<!-- Node33&#45;&gt;Node25 -->
<g id="edge38_Node000033_Node000025" class="edge">
<title>Node33&#45;&gt;Node25</title>
<g id="a_edge38_Node000033_Node000025"><a xlink:title=" ">
<path fill="none" stroke="#63b8ff" d="M345.45,-392.7C348.76,-394.14 351.97,-395.73 355,-397.5 374.83,-409.04 370.97,-423.31 391,-434.5 462.93,-474.68 559.83,-487.96 615.4,-492.34"/>
<polygon fill="#63b8ff" stroke="#63b8ff" points="346.52,-389.36 335.93,-389.03 344,-395.89 346.52,-389.36"/>
</a>
</g>
</g>
<!-- Node35 -->
<g id="Node000035" class="node">
<title>Node35</title>
<g id="a_Node000035"><a xlink:href="classMgr_1_1Forwarder.html" target="_top" xlink:title=" ">
<polygon fill="white" stroke="#666666" points="516.5,-426 426.5,-426 426.5,-407 516.5,-407 516.5,-426"/>
<text text-anchor="middle" x="471.5" y="-414" font-family="Helvetica,sans-Serif" font-size="10.00">Mgr::Forwarder</text>
</a>
</g>
</g>
<!-- Node34&#45;&gt;Node35 -->
<g id="edge40_Node000034_Node000035" class="edge">
<title>Node34&#45;&gt;Node35</title>
<g id="a_edge40_Node000034_Node000035"><a xlink:title=" ">
<path fill="none" stroke="#63b8ff" d="M338.21,-352.83C344.07,-354.94 349.79,-357.47 355,-360.5 374.83,-372.04 371.05,-386.16 391,-397.5 401.73,-403.6 414.35,-407.75 426.34,-410.57"/>
<polygon fill="#63b8ff" stroke="#63b8ff" points="338.9,-349.37 328.31,-349.66 336.77,-356.04 338.9,-349.37"/>
</a>
</g>
</g>
<!-- Node36 -->
<g id="Node000036" class="node">
<title>Node36</title>
<g id="a_Node000036"><a xlink:href="classSnmp_1_1Forwarder.html" target="_top" xlink:title=" ">
<polygon fill="white" stroke="#666666" points="521,-389 422,-389 422,-370 521,-370 521,-389"/>
<text text-anchor="middle" x="471.5" y="-377" font-family="Helvetica,sans-Serif" font-size="10.00">Snmp::Forwarder</text>
</a>
</g>
</g>
<!-- Node34&#45;&gt;Node36 -->
<g id="edge41_Node000034_Node000036" class="edge">
<title>Node34&#45;&gt;Node36</title>
<g id="a_edge41_Node000034_Node000036"><a xlink:title=" ">
<path fill="none" stroke="#63b8ff" d="M338.23,-352.97C364.82,-358.31 396.93,-364.75 422.85,-369.94"/>
<polygon fill="#63b8ff" stroke="#63b8ff" points="338.82,-349.52 328.33,-350.99 337.44,-356.39 338.82,-349.52"/>
</a>
</g>
</g>
<!-- Node38 -->
<g id="Node000038" class="node">
<title>Node38</title>
<g id="a_Node000038"><a xlink:href="classMgr_1_1Inquirer.html" target="_top" xlink:title=" ">
<polygon fill="white" stroke="#666666" points="511,-352 432,-352 432,-333 511,-333 511,-352"/>
<text text-anchor="middle" x="471.5" y="-340" font-family="Helvetica,sans-Serif" font-size="10.00">Mgr::Inquirer</text>
</a>
</g>
</g>
<!-- Node37&#45;&gt;Node38 -->
<g id="edge43_Node000037_Node000038" class="edge">
<title>Node37&#45;&gt;Node38</title>
<g id="a_edge43_Node000037_Node000038"><a xlink:title=" ">
<path fill="none" stroke="#63b8ff" d="M332.04,-314.73C362.74,-320.89 402.64,-328.89 431.71,-334.72"/>
<polygon fill="#63b8ff" stroke="#63b8ff" points="332.5,-311.26 322.01,-312.72 331.13,-318.12 332.5,-311.26"/>
</a>
</g>
</g>
<!-- Node39 -->
<g id="Node000039" class="node">
<title>Node39</title>
<g id="a_Node000039"><a xlink:href="classSnmp_1_1Inquirer.html" target="_top" xlink:title=" ">
<polygon fill="white" stroke="#666666" points="515.5,-315 427.5,-315 427.5,-296 515.5,-296 515.5,-315"/>
<text text-anchor="middle" x="471.5" y="-303" font-family="Helvetica,sans-Serif" font-size="10.00">Snmp::Inquirer</text>
</a>
</g>
</g>
<!-- Node37&#45;&gt;Node39 -->
<g id="edge44_Node000037_Node000039" class="edge">
<title>Node37&#45;&gt;Node39</title>
<g id="a_edge44_Node000037_Node000039"><a xlink:title=" ">
<path fill="none" stroke="#63b8ff" d="M332.36,-305.5C361.53,-305.5 398.92,-305.5 427.45,-305.5"/>
<polygon fill="#63b8ff" stroke="#63b8ff" points="332.01,-302 322.01,-305.5 332.01,-309 332.01,-302"/>
</a>
</g>
</g>
<!-- Node41 -->
<g id="Node000041" class="node">
<title>Node41</title>
<g id="a_Node000041"><a xlink:href="classIpc_1_1Port.html" target="_top" xlink:title="Waits for and receives incoming IPC messages; kids handle the messages.">
<polygon fill="#fff0f0" stroke="red" points="499.5,-278 443.5,-278 443.5,-259 499.5,-259 499.5,-278"/>
<text text-anchor="middle" x="471.5" y="-266" font-family="Helvetica,sans-Serif" font-size="10.00">Ipc::Port</text>
</a>
</g>
</g>
<!-- Node40&#45;&gt;Node41 -->
<g id="edge46_Node000040_Node000041" class="edge">
<title>Node40&#45;&gt;Node41</title>
<g id="a_edge46_Node000040_Node000041"><a xlink:title=" ">
<path fill="none" stroke="#63b8ff" d="M329.88,-268.5C365.17,-268.5 413.63,-268.5 443.47,-268.5"/>
<polygon fill="#63b8ff" stroke="#63b8ff" points="329.84,-265 319.84,-268.5 329.84,-272 329.84,-265"/>
</a>
</g>
</g>
<!-- Node44 -->
<g id="Node000044" class="node">
<title>Node44</title>
<g id="a_Node000044"><a xlink:href="classIpc_1_1UdsSender.html" target="_top" xlink:title="attempts to send an IPC message a few times, with a timeout">
<polygon fill="white" stroke="#666666" points="516,-241 427,-241 427,-222 516,-222 516,-241"/>
<text text-anchor="middle" x="471.5" y="-229" font-family="Helvetica,sans-Serif" font-size="10.00">Ipc::UdsSender</text>
</a>
</g>
</g>
<!-- Node40&#45;&gt;Node44 -->
<g id="edge47_Node000040_Node000044" class="edge">
<title>Node40&#45;&gt;Node44</title>
<g id="a_edge47_Node000040_Node000044"><a xlink:title=" ">
<path fill="none" stroke="#63b8ff" d="M329.79,-259.72C359.09,-253.84 397.48,-246.14 426.77,-240.27"/>
<polygon fill="#63b8ff" stroke="#63b8ff" points="328.96,-256.32 319.84,-261.71 330.33,-263.18 328.96,-256.32"/>
</a>
</g>
</g>
<!-- Node47 -->
<g id="Node000047" class="node">
<title>Node47</title>
<g id="a_Node000047"><a xlink:href="classMgr_1_1ActionWriter.html" target="_top" xlink:title=" ">
<polygon fill="white" stroke="#666666" points="522.5,-204 420.5,-204 420.5,-185 522.5,-185 522.5,-204"/>
<text text-anchor="middle" x="471.5" y="-192" font-family="Helvetica,sans-Serif" font-size="10.00">Mgr::ActionWriter</text>
</a>
</g>
</g>
<!-- Node46&#45;&gt;Node47 -->
<g id="edge50_Node000046_Node000047" class="edge">
<title>Node46&#45;&gt;Node47</title>
<g id="a_edge50_Node000046_Node000047"><a xlink:title=" ">
<path fill="none" stroke="#63b8ff" d="M365.24,-194.5C383.98,-194.5 403.45,-194.5 420.48,-194.5"/>
<polygon fill="#63b8ff" stroke="#63b8ff" points="365.23,-191 355.23,-194.5 365.23,-198 365.23,-191"/>
</a>
</g>
</g>
<!-- Node48 -->
<g id="Node000048" class="node">
<title>Node48</title>
<g id="a_Node000048"><a xlink:href="classMgr_1_1Filler.html" target="_top" xlink:title="provides Coordinator with a local cache manager response">
<polygon fill="white" stroke="#666666" points="504,-167 439,-167 439,-148 504,-148 504,-167"/>
<text text-anchor="middle" x="471.5" y="-155" font-family="Helvetica,sans-Serif" font-size="10.00">Mgr::Filler</text>
</a>
</g>
</g>
<!-- Node46&#45;&gt;Node48 -->
<g id="edge51_Node000046_Node000048" class="edge">
<title>Node46&#45;&gt;Node48</title>
<g id="a_edge51_Node000046_Node000048"><a xlink:title=" ">
<path fill="none" stroke="#63b8ff" d="M343.48,-182.97C374.92,-176.67 412.68,-169.1 438.81,-163.85"/>
<polygon fill="#63b8ff" stroke="#63b8ff" points="342.63,-179.57 333.51,-184.97 344.01,-186.44 342.63,-179.57"/>
</a>
</g>
</g>
<!-- Node53 -->
<g id="Node000053" class="node">
<title>Node53</title>
<g id="a_Node000053"><a xlink:href="classSecurity_1_1BlindPeerConnector.html" target="_top" xlink:title="A PeerConnector for TLS cache_peers and origin servers. No SslBump capabilities.">
<polygon fill="white" stroke="#666666" points="550.5,-93 392.5,-93 392.5,-74 550.5,-74 550.5,-93"/>
<text text-anchor="middle" x="471.5" y="-81" font-family="Helvetica,sans-Serif" font-size="10.00">Security::BlindPeerConnector</text>
</a>
</g>
</g>
<!-- Node52&#45;&gt;Node53 -->
<g id="edge56_Node000052_Node000053" class="edge">
<title>Node52&#45;&gt;Node53</title>
<g id="a_edge56_Node000052_Node000053"><a xlink:title=" ">
<path fill="none" stroke="#63b8ff" d="M343.42,-58.02C368.92,-63.13 398.58,-69.08 422.83,-73.94"/>
<polygon fill="#63b8ff" stroke="#63b8ff" points="344.01,-54.56 333.51,-56.03 342.63,-61.43 344.01,-54.56"/>
</a>
</g>
</g>
<!-- Node54 -->
<g id="Node000054" class="node">
<title>Node54</title>
<g id="a_Node000054"><a xlink:href="classSsl_1_1IcapPeerConnector.html" target="_top" xlink:title="A simple PeerConnector for Secure ICAP services. No SslBump capabilities.">
<polygon fill="white" stroke="#666666" points="535.5,-56 407.5,-56 407.5,-37 535.5,-37 535.5,-56"/>
<text text-anchor="middle" x="471.5" y="-44" font-family="Helvetica,sans-Serif" font-size="10.00">Ssl::IcapPeerConnector</text>
</a>
</g>
</g>
<!-- Node52&#45;&gt;Node54 -->
<g id="edge57_Node000052_Node000054" class="edge">
<title>Node52&#45;&gt;Node54</title>
<g id="a_edge57_Node000052_Node000054"><a xlink:title=" ">
<path fill="none" stroke="#63b8ff" d="M361.9,-46.5C377,-46.5 392.7,-46.5 407.31,-46.5"/>
<polygon fill="#63b8ff" stroke="#63b8ff" points="361.57,-43 351.57,-46.5 361.57,-50 361.57,-43"/>
</a>
</g>
</g>
<!-- Node55 -->
<g id="Node000055" class="node">
<title>Node55</title>
<g id="a_Node000055"><a xlink:href="classSsl_1_1PeekingPeerConnector.html" target="_top" xlink:title="A PeerConnector for HTTP origin servers. Capable of SslBumping.">
<polygon fill="white" stroke="#666666" points="545,-19 398,-19 398,0 545,0 545,-19"/>
<text text-anchor="middle" x="471.5" y="-7" font-family="Helvetica,sans-Serif" font-size="10.00">Ssl::PeekingPeerConnector</text>
</a>
</g>
</g>
<!-- Node52&#45;&gt;Node55 -->
<g id="edge58_Node000052_Node000055" class="edge">
<title>Node52&#45;&gt;Node55</title>
<g id="a_edge58_Node000052_Node000055"><a xlink:title=" ">
<path fill="none" stroke="#63b8ff" d="M343.42,-34.98C368.92,-29.87 398.58,-23.92 422.83,-19.06"/>
<polygon fill="#63b8ff" stroke="#63b8ff" points="342.63,-31.57 333.51,-36.97 344.01,-38.44 342.63,-31.57"/>
</a>
</g>
</g>
</g>
</svg>
