<?xml version="1.0" encoding="UTF-8" standalone="no"?>
<!DOCTYPE svg PUBLIC "-//W3C//DTD SVG 1.1//EN"
 "http://www.w3.org/Graphics/SVG/1.1/DTD/svg11.dtd">
<!-- Generated by graphviz version 2.43.0 (0)
 -->
<!-- Title: net_db_name Pages: 1 -->
<svg width="268pt" height="149pt"
 viewBox="0.00 0.00 268.00 149.00" xmlns="http://www.w3.org/2000/svg" xmlns:xlink="http://www.w3.org/1999/xlink">

<svg id="main" version="1.1" xmlns="http://www.w3.org/2000/svg" xmlns:xlink="http://www.w3.org/1999/xlink" xml:space="preserve" onload="init(evt)">
<style type="text/css"><![CDATA[
.node, .edge {opacity: 0.7;}
.node.selected, .edge.selected {opacity: 1;}
.edge:hover path { stroke: red; }
.edge:hover polygon { stroke: red; fill: red; }
]]></style>
<script type="application/ecmascript" xlink:href="svg.min.js"/>
<svg id="graph" class="graph">
<g id="graph0" class="graph" transform="scale(1 1) rotate(0) translate(4 145)">
<title>net_db_name</title>
<!-- Node1 -->
<g id="Node000001" class="node">
<title>Node1</title>
<g id="a_Node000001"><a xlink:title=" ">
<polygon fill="#999999" stroke="#666666" points="83,-85 0,-85 0,-66 83,-66 83,-85"/>
<text text-anchor="middle" x="41.5" y="-73" font-family="Helvetica,sans-Serif" font-size="10.00">net_db_name</text>
</a>
</g>
</g>
<!-- Node1&#45;&gt;Node1 -->
<g id="edge3_Node000001_Node000001" class="edge">
<title>Node1&#45;&gt;Node1</title>
<g id="a_edge3_Node000001_Node000001"><a xlink:title=" ">
<path fill="none" stroke="#9a32cd" stroke-dasharray="5,2" d="M93.32,-79.67C98.03,-78.8 101,-77.41 101,-75.5 101,-72.44 93.41,-70.71 83.21,-70.33"/>
<polygon fill="#9a32cd" stroke="#9a32cd" points="92.81,-76.2 83.21,-80.67 93.5,-83.17 92.81,-76.2"/>
</a>
</g>
<text text-anchor="middle" x="113.5" y="-73" font-family="Helvetica,sans-Serif" font-size="10.00" fill="grey"> next</text>
</g>
<!-- Node3 -->
<g id="Node000003" class="node">
<title>Node3</title>
<g id="a_Node000003"><a xlink:href="classnetdbEntry.html" target="_top" xlink:title=" ">
<polygon fill="white" stroke="#666666" points="148.5,-19 78.5,-19 78.5,0 148.5,0 148.5,-19"/>
<text text-anchor="middle" x="113.5" y="-7" font-family="Helvetica,sans-Serif" font-size="10.00">netdbEntry</text>
</a>
</g>
</g>
<!-- Node1&#45;&gt;Node3 -->
<g id="edge6_Node000003_Node000001" class="edge">
<title>Node1&#45;&gt;Node3</title>
<g id="a_edge6_Node000003_Node000001"><a xlink:title=" ">
<path fill="none" stroke="#9a32cd" stroke-dasharray="5,2" d="M28.77,-56.8C25.62,-50.16 24.22,-42.82 28.5,-37 39.86,-21.56 60.16,-14.86 78.07,-12.06"/>
<polygon fill="#9a32cd" stroke="#9a32cd" points="26.02,-59.01 34.18,-65.77 32.02,-55.4 26.02,-59.01"/>
</a>
</g>
<text text-anchor="middle" x="43.5" y="-40" font-family="Helvetica,sans-Serif" font-size="10.00" fill="grey"> hosts</text>
</g>
<!-- Node2 -->
<g id="Node000002" class="node">
<title>Node2</title>
<g id="a_Node000002"><a xlink:href="classhash__link.html" target="_top" xlink:title=" ">
<polygon fill="white" stroke="#666666" points="129,-141 66,-141 66,-122 129,-122 129,-141"/>
<text text-anchor="middle" x="97.5" y="-129" font-family="Helvetica,sans-Serif" font-size="10.00">hash_link</text>
</a>
</g>
</g>
<!-- Node2&#45;&gt;Node1 -->
<g id="edge1_Node000001_Node000002" class="edge">
<title>Node2&#45;&gt;Node1</title>
<g id="a_edge1_Node000001_Node000002"><a xlink:title=" ">
<path fill="none" stroke="#63b8ff" d="M81.17,-114.75C71.24,-105.17 58.91,-93.29 50.66,-85.33"/>
<polygon fill="#63b8ff" stroke="#63b8ff" points="78.87,-117.4 88.5,-121.82 83.73,-112.36 78.87,-117.4"/>
</a>
</g>
</g>
<!-- Node2&#45;&gt;Node2 -->
<g id="edge2_Node000002_Node000002" class="edge">
<title>Node2&#45;&gt;Node2</title>
<g id="a_edge2_Node000002_Node000002"><a xlink:title=" ">
<path fill="none" stroke="#9a32cd" stroke-dasharray="5,2" d="M139.65,-135.87C144.12,-135.02 147,-133.57 147,-131.5 147,-128.11 139.26,-126.36 129.4,-126.26"/>
<polygon fill="#9a32cd" stroke="#9a32cd" points="139.06,-132.41 129.4,-136.74 139.66,-139.38 139.06,-132.41"/>
</a>
</g>
<text text-anchor="middle" x="159.5" y="-129" font-family="Helvetica,sans-Serif" font-size="10.00" fill="grey"> next</text>
</g>
<!-- Node2&#45;&gt;Node3 -->
<g id="edge5_Node000003_Node000002" class="edge">
<title>Node2&#45;&gt;Node3</title>
<g id="a_edge5_Node000003_Node000002"><a xlink:title=" ">
<path fill="none" stroke="#63b8ff" d="M114.65,-114.57C122.29,-106.47 130.64,-96.02 135.5,-85 144.15,-65.37 148.8,-56.78 140.5,-37 137.5,-29.85 131.53,-23.67 125.96,-19.07"/>
<polygon fill="#63b8ff" stroke="#63b8ff" points="112,-112.27 107.4,-121.82 116.95,-117.22 112,-112.27"/>
</a>
</g>
</g>
<!-- Node3&#45;&gt;Node1 -->
<g id="edge4_Node000001_Node000003" class="edge">
<title>Node3&#45;&gt;Node1</title>
<g id="a_edge4_Node000001_Node000003"><a xlink:title=" ">
<path fill="none" stroke="#9a32cd" stroke-dasharray="5,2" d="M89.87,-24.58C84.28,-28.33 78.49,-32.58 73.5,-37 63.5,-45.85 53.81,-57.84 47.76,-65.86"/>
<polygon fill="#9a32cd" stroke="#9a32cd" points="91.82,-27.49 98.35,-19.14 88.04,-21.59 91.82,-27.49"/>
</a>
</g>
<text text-anchor="middle" x="107" y="-40" font-family="Helvetica,sans-Serif" font-size="10.00" fill="grey"> net_db_entry</text>
</g>
<!-- Node4 -->
<g id="Node000004" class="node">
<title>Node4</title>
<g id="a_Node000004"><a xlink:href="classnet__db__peer.html" target="_top" xlink:title=" ">
<polygon fill="white" stroke="#666666" points="260,-85 183,-85 183,-66 260,-66 260,-85"/>
<text text-anchor="middle" x="221.5" y="-73" font-family="Helvetica,sans-Serif" font-size="10.00">net_db_peer</text>
</a>
</g>
</g>
<!-- Node4&#45;&gt;Node3 -->
<g id="edge7_Node000003_Node000004" class="edge">
<title>Node4&#45;&gt;Node3</title>
<g id="a_edge7_Node000003_Node000004"><a xlink:title=" ">
<path fill="none" stroke="#9a32cd" stroke-dasharray="5,2" d="M202.25,-59.71C192.41,-52.45 180.1,-43.83 168.5,-37 157.18,-30.33 143.92,-23.9 133.26,-19.05"/>
<polygon fill="#9a32cd" stroke="#9a32cd" points="200.39,-62.69 210.49,-65.89 204.59,-57.09 200.39,-62.69"/>
</a>
</g>
<text text-anchor="middle" x="200" y="-40" font-family="Helvetica,sans-Serif" font-size="10.00" fill="grey"> peers</text>
</g>
</g>
</svg>
</svg>

<style type='text/css'>
<![CDATA[
[data-mouse-over-selected='false'] { opacity: 0.7; }
[data-mouse-over-selected='true']  { opacity: 1.0; }
]]>
</style>
<script type="application/ecmascript"><![CDATA[
document.addEventListener('DOMContentLoaded', (event) => {
  highlightEdges();
  highlightAdjacentNodes();
});
]]></script>
</svg>
