<?xml version="1.0" encoding="UTF-8" standalone="no"?>
<!DOCTYPE svg PUBLIC "-//W3C//DTD SVG 1.1//EN"
 "http://www.w3.org/Graphics/SVG/1.1/DTD/svg11.dtd">
<!-- Generated by graphviz version 2.43.0 (0)
 -->
<!-- Title: Adaptation::History Pages: 1 -->
<!--zoomable 528 -->

<svg id="main" version="1.1" xmlns="http://www.w3.org/2000/svg" xmlns:xlink="http://www.w3.org/1999/xlink" xml:space="preserve" onload="init(evt)">
<style type="text/css"><![CDATA[
.node, .edge {opacity: 0.7;}
.node.selected, .edge.selected {opacity: 1;}
.edge:hover path { stroke: red; }
.edge:hover polygon { stroke: red; fill: red; }
]]></style>

<defs>
  <circle id="rim" cx="0" cy="0" r="7"/>
  <circle id="rim2" cx="0" cy="0" r="3.5"/>
  <g id="zoomPlus">
    <use xlink:href="#rim" fill="#404040"><set attributeName="fill" to="#808080" begin="zoomplus.mouseover" end="zoomplus.mouseout"/></use>
    <path d="M-4,0h8M0,-4v8" fill="none" stroke="white" stroke-width="1.5" pointer-events="none"/>
  </g>
  <g id="zoomMin">
    <use xlink:href="#rim" fill="#404040"><set attributeName="fill" to="#808080" begin="zoomminus.mouseover" end="zoomminus.mouseout"/></use>
    <path d="M-4,0h8" fill="none" stroke="white" stroke-width="1.5" pointer-events="none"/>
  </g>
  <g id="arrowUp" transform="translate(30 24)">
    <use xlink:href="#rim"/>
    <path pointer-events="none" fill="none" stroke="white" stroke-width="1.5" d="M0,-3.0v7 M-2.5,-0.5L0,-3.0L2.5,-0.5"/>
  </g>
  <g id="arrowRight" transform="rotate(90) translate(36 -43)">
    <use xlink:href="#rim"/>
    <path pointer-events="none" fill="none" stroke="white" stroke-width="1.5" d="M0,-3.0v7 M-2.5,-0.5L0,-3.0L2.5,-0.5"/>
  </g>
  <g id="arrowDown" transform="rotate(180) translate(-30 -48)">
    <use xlink:href="#rim"/>
    <path pointer-events="none" fill="none" stroke="white" stroke-width="1.5" d="M0,-3.0v7 M-2.5,-0.5L0,-3.0L2.5,-0.5"/>
  </g>
  <g id="arrowLeft" transform="rotate(270) translate(-36 17)">
    <use xlink:href="#rim"/>
    <path pointer-events="none" fill="none" stroke="white" stroke-width="1.5" d="M0,-3.0v7 M-2.5,-0.5L0,-3.0L2.5,-0.5"/>
  </g>
  <g id="resetDef">
    <use xlink:href="#rim2" fill="#404040"><set attributeName="fill" to="#808080" begin="reset.mouseover" end="reset.mouseout"/></use>
  </g>
</defs>
<script type="application/ecmascript">
var viewWidth = 2060;
var viewHeight = 528;
var sectionId = 'dynsection-1';
</script>
<script type="application/ecmascript" xlink:href="svg.min.js"/>
<svg id="graph" class="graph">
<g id="viewport">
<title>Adaptation::History</title>
<!-- Node1 -->
<g id="Node000001" class="node">
<title>Node1</title>
<g id="a_Node000001"><a xlink:title="collects information about adaptations related to a master transaction">
<polygon fill="#999999" stroke="#666666" points="2052,-260.5 1941,-260.5 1941,-241.5 2052,-241.5 2052,-260.5"/>
<text text-anchor="middle" x="1996.5" y="-248.5" font-family="Helvetica,sans-Serif" font-size="10.00">Adaptation::History</text>
</a>
</g>
</g>
<!-- Node2 -->
<g id="Node000002" class="node">
<title>Node2</title>
<g id="a_Node000002"><a xlink:title=" ">
<polygon fill="white" stroke="#666666" points="325.5,-491.5 242.5,-491.5 242.5,-472.5 325.5,-472.5 325.5,-491.5"/>
<text text-anchor="middle" x="284" y="-479.5" font-family="Helvetica,sans-Serif" font-size="10.00">RefCountable</text>
</a>
</g>
</g>
<!-- Node2&#45;&gt;Node1 -->
<g id="edge1_Node000001_Node000002" class="edge">
<title>Node2&#45;&gt;Node1</title>
<g id="a_edge1_Node000001_Node000002"><a xlink:title=" ">
<path fill="none" stroke="#63b8ff" d="M335.16,-493.76C387.19,-504.92 471.08,-520 544.5,-520 544.5,-520 544.5,-520 1770.5,-520 1908.71,-520 1978.72,-308.49 1992.81,-260.57"/>
<polygon fill="#63b8ff" stroke="#63b8ff" points="335.7,-490.3 325.19,-491.59 334.21,-497.14 335.7,-490.3"/>
</a>
</g>
</g>
<!-- Node10 -->
<g id="Node000010" class="node">
<title>Node10</title>
<g id="a_Node000010"><a xlink:href="classMemBlob.html" target="_top" xlink:title=" ">
<polygon fill="white" stroke="#666666" points="577,-312.5 514,-312.5 514,-293.5 577,-293.5 577,-312.5"/>
<text text-anchor="middle" x="545.5" y="-300.5" font-family="Helvetica,sans-Serif" font-size="10.00">MemBlob</text>
</a>
</g>
</g>
<!-- Node2&#45;&gt;Node10 -->
<g id="edge10_Node000010_Node000002" class="edge">
<title>Node2&#45;&gt;Node10</title>
<g id="a_edge10_Node000010_Node000002"><a xlink:title=" ">
<path fill="none" stroke="#63b8ff" d="M311.95,-467.42C350.87,-445.9 424.44,-403.48 482,-360 501.92,-344.95 522.95,-324.75 534.82,-312.88"/>
<polygon fill="#63b8ff" stroke="#63b8ff" points="309.92,-464.54 302.84,-472.43 313.29,-470.68 309.92,-464.54"/>
</a>
</g>
</g>
<!-- Node18 -->
<g id="Node000018" class="node">
<title>Node18</title>
<g id="a_Node000018"><a xlink:href="classNotePairs.html" target="_top" xlink:title=" ">
<polygon fill="white" stroke="#666666" points="1496.5,-448.5 1433.5,-448.5 1433.5,-429.5 1496.5,-429.5 1496.5,-448.5"/>
<text text-anchor="middle" x="1465" y="-436.5" font-family="Helvetica,sans-Serif" font-size="10.00">NotePairs</text>
</a>
</g>
</g>
<!-- Node2&#45;&gt;Node18 -->
<g id="edge20_Node000018_Node000002" class="edge">
<title>Node2&#45;&gt;Node18</title>
<g id="a_edge20_Node000018_Node000002"><a xlink:title=" ">
<path fill="none" stroke="#63b8ff" d="M335.93,-482C388.26,-482 472.06,-482 544.5,-482 544.5,-482 544.5,-482 1216.5,-482 1295.66,-482 1386.98,-460.39 1433.43,-447.81"/>
<polygon fill="#63b8ff" stroke="#63b8ff" points="335.9,-478.5 325.9,-482 335.9,-485.5 335.9,-478.5"/>
</a>
</g>
</g>
<!-- Node3 -->
<g id="Node000003" class="node">
<title>Node3</title>
<g id="a_Node000003"><a xlink:href="classHttpHeader.html" target="_top" xlink:title=" ">
<polygon fill="white" stroke="#666666" points="1806,-260.5 1733,-260.5 1733,-241.5 1806,-241.5 1806,-260.5"/>
<text text-anchor="middle" x="1769.5" y="-248.5" font-family="Helvetica,sans-Serif" font-size="10.00">HttpHeader</text>
</a>
</g>
</g>
<!-- Node3&#45;&gt;Node1 -->
<g id="edge2_Node000001_Node000003" class="edge">
<title>Node3&#45;&gt;Node1</title>
<g id="a_edge2_Node000001_Node000003"><a xlink:title=" ">
<path fill="none" stroke="#9a32cd" stroke-dasharray="5,2" d="M1816.37,-251C1852.37,-251 1902.6,-251 1940.71,-251"/>
<polygon fill="#9a32cd" stroke="#9a32cd" points="1816.15,-247.5 1806.15,-251 1816.15,-254.5 1816.15,-247.5"/>
</a>
</g>
<text text-anchor="middle" x="1888" y="-265" font-family="Helvetica,sans-Serif" font-size="10.00" fill="grey"> allMeta</text>
<text text-anchor="middle" x="1888" y="-254" font-family="Helvetica,sans-Serif" font-size="10.00" fill="grey">lastMeta</text>
</g>
<!-- Node4 -->
<g id="Node000004" class="node">
<title>Node4</title>
<g id="a_Node000004"><a xlink:title=" ">
<polygon fill="white" stroke="#666666" points="1554,-271.5 1376,-271.5 1376,-230.5 1554,-230.5 1554,-271.5"/>
<text text-anchor="start" x="1384" y="-259.5" font-family="Helvetica,sans-Serif" font-size="10.00">std::vector&lt; HttpHeaderEntry</text>
<text text-anchor="start" x="1384" y="-248.5" font-family="Helvetica,sans-Serif" font-size="10.00"> *, PoolingAllocator&lt; HttpHeader</text>
<text text-anchor="middle" x="1465" y="-237.5" font-family="Helvetica,sans-Serif" font-size="10.00">Entry * &gt; &gt;</text>
</a>
</g>
</g>
<!-- Node4&#45;&gt;Node3 -->
<g id="edge3_Node000003_Node000004" class="edge">
<title>Node4&#45;&gt;Node3</title>
<g id="a_edge3_Node000003_Node000004"><a xlink:title=" ">
<path fill="none" stroke="#9a32cd" stroke-dasharray="5,2" d="M1564.56,-251C1622.2,-251 1691.51,-251 1732.68,-251"/>
<polygon fill="#9a32cd" stroke="#9a32cd" points="1564.31,-247.5 1554.31,-251 1564.31,-254.5 1564.31,-247.5"/>
</a>
</g>
<text text-anchor="middle" x="1629" y="-254" font-family="Helvetica,sans-Serif" font-size="10.00" fill="grey"> entries</text>
</g>
<!-- Node5 -->
<g id="Node000005" class="node">
<title>Node5</title>
<g id="a_Node000005"><a xlink:href="classHttpHeaderEntry.html" target="_top" xlink:title=" ">
<polygon fill="white" stroke="#666666" points="1264.5,-227.5 1166.5,-227.5 1166.5,-208.5 1264.5,-208.5 1264.5,-227.5"/>
<text text-anchor="middle" x="1215.5" y="-215.5" font-family="Helvetica,sans-Serif" font-size="10.00">HttpHeaderEntry</text>
</a>
</g>
</g>
<!-- Node5&#45;&gt;Node4 -->
<g id="edge4_Node000004_Node000005" class="edge">
<title>Node5&#45;&gt;Node4</title>
<g id="a_edge4_Node000004_Node000005"><a xlink:title=" ">
<path fill="none" stroke="#9a32cd" stroke-dasharray="5,2" d="M1274.44,-225.73C1304.6,-229.75 1342.12,-234.75 1375.79,-239.24"/>
<polygon fill="#9a32cd" stroke="#9a32cd" points="1274.89,-222.25 1264.51,-224.4 1273.96,-229.19 1274.89,-222.25"/>
</a>
</g>
<text text-anchor="middle" x="1333.5" y="-240" font-family="Helvetica,sans-Serif" font-size="10.00" fill="grey"> elements</text>
</g>
<!-- Node6 -->
<g id="Node000006" class="node">
<title>Node6</title>
<g id="a_Node000006"><a xlink:href="classSBuf.html" target="_top" xlink:title=" ">
<polygon fill="white" stroke="#666666" points="984,-312.5 945,-312.5 945,-293.5 984,-293.5 984,-312.5"/>
<text text-anchor="middle" x="964.5" y="-300.5" font-family="Helvetica,sans-Serif" font-size="10.00">SBuf</text>
</a>
</g>
</g>
<!-- Node6&#45;&gt;Node5 -->
<g id="edge5_Node000005_Node000006" class="edge">
<title>Node6&#45;&gt;Node5</title>
<g id="a_edge5_Node000005_Node000006"><a xlink:title=" ">
<path fill="none" stroke="#9a32cd" stroke-dasharray="5,2" d="M994.26,-299.63C1036.61,-294.47 1111.85,-284.41 1122,-277 1136.13,-266.69 1126.66,-253.32 1140,-242 1147.56,-235.58 1156.87,-230.87 1166.31,-227.42"/>
<polygon fill="#9a32cd" stroke="#9a32cd" points="993.77,-296.17 984.26,-300.84 994.61,-303.12 993.77,-296.17"/>
</a>
</g>
<text text-anchor="middle" x="1076.5" y="-297" font-family="Helvetica,sans-Serif" font-size="10.00" fill="grey"> name</text>
</g>
<!-- Node20 -->
<g id="Node000020" class="node">
<title>Node20</title>
<g id="a_Node000020"><a xlink:title=" ">
<polygon fill="white" stroke="#666666" points="1272,-334.5 1159,-334.5 1159,-315.5 1272,-315.5 1272,-334.5"/>
<text text-anchor="middle" x="1215.5" y="-322.5" font-family="Helvetica,sans-Serif" font-size="10.00">std::vector&lt; SBuf &gt;</text>
</a>
</g>
</g>
<!-- Node6&#45;&gt;Node20 -->
<g id="edge26_Node000020_Node000006" class="edge">
<title>Node6&#45;&gt;Node20</title>
<g id="a_edge26_Node000020_Node000006"><a xlink:title=" ">
<path fill="none" stroke="#9a32cd" stroke-dasharray="5,2" d="M994.38,-306.81C1005.78,-308.24 1018.99,-309.81 1031,-311 1073.76,-315.24 1122.24,-318.89 1158.63,-321.4"/>
<polygon fill="#9a32cd" stroke="#9a32cd" points="994.47,-303.3 984.11,-305.5 993.58,-310.24 994.47,-303.3"/>
</a>
</g>
<text text-anchor="middle" x="1076.5" y="-321" font-family="Helvetica,sans-Serif" font-size="10.00" fill="grey"> elements</text>
</g>
<!-- Node7 -->
<g id="Node000007" class="node">
<title>Node7</title>
<g id="a_Node000007"><a xlink:href="classInstanceId.html" target="_top" xlink:title=" ">
<polygon fill="white" stroke="#666666" points="482,-350.5 370,-350.5 370,-331.5 482,-331.5 482,-350.5"/>
<text text-anchor="middle" x="426" y="-338.5" font-family="Helvetica,sans-Serif" font-size="10.00">InstanceId&lt; SBuf &gt;</text>
</a>
</g>
</g>
<!-- Node7&#45;&gt;Node6 -->
<g id="edge6_Node000006_Node000007" class="edge">
<title>Node7&#45;&gt;Node6</title>
<g id="a_edge6_Node000006_Node000007"><a xlink:title=" ">
<path fill="none" stroke="#9a32cd" stroke-dasharray="5,2" d="M492.63,-338.17C572.57,-334.66 711.72,-328.37 831,-322 860.79,-320.41 868.47,-322.23 898,-318 913.94,-315.72 931.72,-311.54 944.74,-308.17"/>
<polygon fill="#9a32cd" stroke="#9a32cd" points="492.07,-334.69 482.23,-338.62 492.37,-341.68 492.07,-334.69"/>
</a>
</g>
<text text-anchor="middle" x="645.5" y="-335" font-family="Helvetica,sans-Serif" font-size="10.00" fill="grey"> id</text>
</g>
<!-- Node8 -->
<g id="Node000008" class="node">
<title>Node8</title>
<g id="a_Node000008"><a xlink:href="classInstanceId.html" target="_top" xlink:title=" ">
<polygon fill="white" stroke="#666666" points="107,-337 0,-337 0,-307 107,-307 107,-337"/>
<text text-anchor="start" x="8" y="-325" font-family="Helvetica,sans-Serif" font-size="10.00">InstanceId&lt; Class,</text>
<text text-anchor="middle" x="53.5" y="-314" font-family="Helvetica,sans-Serif" font-size="10.00"> ValueType &gt;</text>
</a>
</g>
</g>
<!-- Node8&#45;&gt;Node7 -->
<g id="edge7_Node000007_Node000008" class="edge">
<title>Node8&#45;&gt;Node7</title>
<g id="a_edge7_Node000007_Node000008"><a xlink:title=" ">
<path fill="none" stroke="orange" stroke-dasharray="5,2" d="M117.32,-325.22C188.15,-328.85 302.22,-334.7 369.77,-338.17"/>
<polygon fill="orange" stroke="orange" points="117.36,-321.72 107.19,-324.7 117,-328.71 117.36,-321.72"/>
</a>
</g>
<text text-anchor="middle" x="161.5" y="-332" font-family="Helvetica,sans-Serif" font-size="10.00" fill="grey"> &lt; SBuf &gt;</text>
</g>
<!-- Node11 -->
<g id="Node000011" class="node">
<title>Node11</title>
<g id="a_Node000011"><a xlink:href="classInstanceId.html" target="_top" xlink:title=" ">
<polygon fill="white" stroke="#666666" points="352,-312.5 216,-312.5 216,-293.5 352,-293.5 352,-312.5"/>
<text text-anchor="middle" x="284" y="-300.5" font-family="Helvetica,sans-Serif" font-size="10.00">InstanceId&lt; MemBlob &gt;</text>
</a>
</g>
</g>
<!-- Node8&#45;&gt;Node11 -->
<g id="edge12_Node000011_Node000008" class="edge">
<title>Node8&#45;&gt;Node11</title>
<g id="a_edge12_Node000011_Node000008"><a xlink:title=" ">
<path fill="none" stroke="orange" stroke-dasharray="5,2" d="M117.24,-309C119.86,-308.63 122.45,-308.29 125,-308 154.72,-304.6 187.78,-303.19 215.94,-302.69"/>
<polygon fill="orange" stroke="orange" points="116.44,-305.58 107.09,-310.57 117.51,-312.5 116.44,-305.58"/>
</a>
</g>
<text text-anchor="middle" x="161.5" y="-311" font-family="Helvetica,sans-Serif" font-size="10.00" fill="grey"> &lt; MemBlob &gt;</text>
</g>
<!-- Node9 -->
<g id="Node000009" class="node">
<title>Node9</title>
<g id="a_Node000009"><a xlink:href="classRefCount.html" target="_top" xlink:title=" ">
<polygon fill="white" stroke="#666666" points="831,-312.5 700,-312.5 700,-293.5 831,-293.5 831,-312.5"/>
<text text-anchor="middle" x="765.5" y="-300.5" font-family="Helvetica,sans-Serif" font-size="10.00">RefCount&lt; MemBlob &gt;</text>
</a>
</g>
</g>
<!-- Node9&#45;&gt;Node6 -->
<g id="edge8_Node000006_Node000009" class="edge">
<title>Node9&#45;&gt;Node6</title>
<g id="a_edge8_Node000006_Node000009"><a xlink:title=" ">
<path fill="none" stroke="#9a32cd" stroke-dasharray="5,2" d="M841.41,-303C878.84,-303 921.09,-303 944.78,-303"/>
<polygon fill="#9a32cd" stroke="#9a32cd" points="841.01,-299.5 831.01,-303 841.01,-306.5 841.01,-299.5"/>
</a>
</g>
<text text-anchor="middle" x="873.5" y="-306" font-family="Helvetica,sans-Serif" font-size="10.00" fill="grey"> store_</text>
</g>
<!-- Node10&#45;&gt;Node9 -->
<g id="edge9_Node000009_Node000010" class="edge">
<title>Node10&#45;&gt;Node9</title>
<g id="a_edge9_Node000009_Node000010"><a xlink:title=" ">
<path fill="none" stroke="#9a32cd" stroke-dasharray="5,2" d="M587.47,-303C619.08,-303 663.41,-303 699.8,-303"/>
<polygon fill="#9a32cd" stroke="#9a32cd" points="587.27,-299.5 577.27,-303 587.27,-306.5 587.27,-299.5"/>
</a>
</g>
<text text-anchor="middle" x="645.5" y="-306" font-family="Helvetica,sans-Serif" font-size="10.00" fill="grey"> p_</text>
</g>
<!-- Node11&#45;&gt;Node10 -->
<g id="edge11_Node000010_Node000011" class="edge">
<title>Node11&#45;&gt;Node10</title>
<g id="a_edge11_Node000010_Node000011"><a xlink:title=" ">
<path fill="none" stroke="#9a32cd" stroke-dasharray="5,2" d="M362.45,-303C413.15,-303 476.65,-303 513.69,-303"/>
<polygon fill="#9a32cd" stroke="#9a32cd" points="362.17,-299.5 352.17,-303 362.17,-306.5 362.17,-299.5"/>
</a>
</g>
<text text-anchor="middle" x="426" y="-306" font-family="Helvetica,sans-Serif" font-size="10.00" fill="grey"> id</text>
</g>
<!-- Node12 -->
<g id="Node000012" class="node">
<title>Node12</title>
<g id="a_Node000012"><a xlink:href="classRefCount.html" target="_top" xlink:title=" ">
<polygon fill="white" stroke="#666666" points="591,-410.5 500,-410.5 500,-391.5 591,-391.5 591,-410.5"/>
<text text-anchor="middle" x="545.5" y="-398.5" font-family="Helvetica,sans-Serif" font-size="10.00">RefCount&lt; C &gt;</text>
</a>
</g>
</g>
<!-- Node12&#45;&gt;Node9 -->
<g id="edge13_Node000009_Node000012" class="edge">
<title>Node12&#45;&gt;Node9</title>
<g id="a_edge13_Node000009_Node000012"><a xlink:title=" ">
<path fill="none" stroke="orange" stroke-dasharray="5,2" d="M578.52,-387.65C588.25,-383.74 599.01,-379.57 609,-376 641.04,-364.56 651.01,-367.03 682,-353 707.63,-341.4 735.15,-323.49 751.04,-312.55"/>
<polygon fill="orange" stroke="orange" points="577.15,-384.43 569.2,-391.44 579.78,-390.92 577.15,-384.43"/>
</a>
</g>
<text text-anchor="middle" x="645.5" y="-379" font-family="Helvetica,sans-Serif" font-size="10.00" fill="grey"> &lt; MemBlob &gt;</text>
</g>
<!-- Node17 -->
<g id="Node000017" class="node">
<title>Node17</title>
<g id="a_Node000017"><a xlink:href="classRefCount.html" target="_top" xlink:title=" ">
<polygon fill="white" stroke="#666666" points="1835,-405.5 1704,-405.5 1704,-386.5 1835,-386.5 1835,-405.5"/>
<text text-anchor="middle" x="1769.5" y="-393.5" font-family="Helvetica,sans-Serif" font-size="10.00">RefCount&lt; NotePairs &gt;</text>
</a>
</g>
</g>
<!-- Node12&#45;&gt;Node17 -->
<g id="edge24_Node000017_Node000012" class="edge">
<title>Node12&#45;&gt;Node17</title>
<g id="a_edge24_Node000017_Node000012"><a xlink:title=" ">
<path fill="none" stroke="orange" stroke-dasharray="5,2" d="M601.32,-400.78C800.95,-399.96 1488.63,-397.15 1703.69,-396.27"/>
<polygon fill="orange" stroke="orange" points="601.06,-397.28 591.08,-400.82 601.09,-404.28 601.06,-397.28"/>
</a>
</g>
<text text-anchor="middle" x="1076.5" y="-401" font-family="Helvetica,sans-Serif" font-size="10.00" fill="grey"> &lt; NotePairs &gt;</text>
</g>
<!-- Node19 -->
<g id="Node000019" class="node">
<title>Node19</title>
<g id="a_Node000019"><a xlink:title=" ">
<polygon fill="white" stroke="#666666" points="1268,-454 1163,-454 1163,-424 1268,-424 1268,-454"/>
<text text-anchor="start" x="1171" y="-442" font-family="Helvetica,sans-Serif" font-size="10.00">std::vector&lt; Entry</text>
<text text-anchor="middle" x="1215.5" y="-431" font-family="Helvetica,sans-Serif" font-size="10.00">::Pointer &gt;</text>
</a>
</g>
</g>
<!-- Node12&#45;&gt;Node19 -->
<g id="edge22_Node000019_Node000012" class="edge">
<title>Node12&#45;&gt;Node19</title>
<g id="a_edge22_Node000019_Node000012"><a xlink:title=" ">
<path fill="none" stroke="#9a32cd" stroke-dasharray="5,2" d="M594.14,-412.6C599.13,-413.54 604.16,-414.37 609,-415 812.68,-441.63 1057.89,-441.6 1162.8,-440.09"/>
<polygon fill="#9a32cd" stroke="#9a32cd" points="594.48,-409.1 583.98,-410.55 593.09,-415.96 594.48,-409.1"/>
</a>
</g>
<text text-anchor="middle" x="873.5" y="-440" font-family="Helvetica,sans-Serif" font-size="10.00" fill="grey"> elements</text>
</g>
<!-- Node13 -->
<g id="Node000013" class="node">
<title>Node13</title>
<g id="a_Node000013"><a xlink:href="classSBufStats.html" target="_top" xlink:title=" ">
<polygon fill="white" stroke="#666666" points="797.5,-275.5 733.5,-275.5 733.5,-256.5 797.5,-256.5 797.5,-275.5"/>
<text text-anchor="middle" x="765.5" y="-263.5" font-family="Helvetica,sans-Serif" font-size="10.00">SBufStats</text>
</a>
</g>
</g>
<!-- Node13&#45;&gt;Node6 -->
<g id="edge14_Node000006_Node000013" class="edge">
<title>Node13&#45;&gt;Node6</title>
<g id="a_edge14_Node000006_Node000013"><a xlink:title=" ">
<path fill="none" stroke="#9a32cd" stroke-dasharray="5,2" d="M807.56,-272.23C833.56,-276.33 867.83,-282.03 898,-288 913.91,-291.15 931.85,-295.3 944.93,-298.44"/>
<polygon fill="#9a32cd" stroke="#9a32cd" points="808.1,-268.77 797.68,-270.68 807.02,-275.69 808.1,-268.77"/>
</a>
</g>
<text text-anchor="middle" x="873.5" y="-291" font-family="Helvetica,sans-Serif" font-size="10.00" fill="grey"> stats</text>
</g>
<!-- Node14 -->
<g id="Node000014" class="node">
<title>Node14</title>
<g id="a_Node000014"><a xlink:href="classString.html" target="_top" xlink:title=" ">
<polygon fill="white" stroke="#666666" points="987,-88.5 942,-88.5 942,-69.5 987,-69.5 987,-88.5"/>
<text text-anchor="middle" x="964.5" y="-76.5" font-family="Helvetica,sans-Serif" font-size="10.00">String</text>
</a>
</g>
</g>
<!-- Node14&#45;&gt;Node1 -->
<g id="edge32_Node000001_Node000014" class="edge">
<title>Node14&#45;&gt;Node1</title>
<g id="a_edge32_Node000001_Node000014"><a xlink:title=" ">
<path fill="none" stroke="#9a32cd" stroke-dasharray="5,2" d="M991.68,-64.8C1036.13,-42.06 1129.78,0 1214.5,0 1214.5,0 1214.5,0 1770.5,0 1902.76,0 1976.85,-195.62 1992.4,-241.47"/>
<polygon fill="#9a32cd" stroke="#9a32cd" points="989.97,-61.75 982.71,-69.47 993.2,-67.96 989.97,-61.75"/>
</a>
</g>
<text text-anchor="middle" x="1465" y="-25" font-family="Helvetica,sans-Serif" font-size="10.00" fill="grey"> theNextServices</text>
<text text-anchor="middle" x="1465" y="-14" font-family="Helvetica,sans-Serif" font-size="10.00" fill="grey">theXxName</text>
<text text-anchor="middle" x="1465" y="-3" font-family="Helvetica,sans-Serif" font-size="10.00" fill="grey">theXxValue</text>
</g>
<!-- Node14&#45;&gt;Node5 -->
<g id="edge15_Node000005_Node000014" class="edge">
<title>Node14&#45;&gt;Node5</title>
<g id="a_edge15_Node000005_Node000014"><a xlink:title=" ">
<path fill="none" stroke="#9a32cd" stroke-dasharray="5,2" d="M976.32,-97.67C987.74,-115.81 1007.34,-142.89 1031,-159 1072.07,-186.97 1127.24,-202.35 1166.33,-210.32"/>
<polygon fill="#9a32cd" stroke="#9a32cd" points="979.03,-95.38 970.85,-88.65 973.04,-99.01 979.03,-95.38"/>
</a>
</g>
<text text-anchor="middle" x="1076.5" y="-203" font-family="Helvetica,sans-Serif" font-size="10.00" fill="grey"> value</text>
</g>
<!-- Node22 -->
<g id="Node000022" class="node">
<title>Node22</title>
<g id="a_Node000022"><a xlink:href="classAdaptation_1_1History_1_1Entry.html" target="_top" xlink:title="single Xaction stats (i.e., a historical record entry)">
<polygon fill="white" stroke="#666666" points="1271,-143 1160,-143 1160,-113 1271,-113 1271,-143"/>
<text text-anchor="start" x="1168" y="-131" font-family="Helvetica,sans-Serif" font-size="10.00">Adaptation::History</text>
<text text-anchor="middle" x="1215.5" y="-120" font-family="Helvetica,sans-Serif" font-size="10.00">::Entry</text>
</a>
</g>
</g>
<!-- Node14&#45;&gt;Node22 -->
<g id="edge30_Node000022_Node000014" class="edge">
<title>Node14&#45;&gt;Node22</title>
<g id="a_edge30_Node000022_Node000014"><a xlink:title=" ">
<path fill="none" stroke="#9a32cd" stroke-dasharray="5,2" d="M997.1,-85.22C1038.01,-93.27 1109.95,-107.42 1159.81,-117.24"/>
<polygon fill="#9a32cd" stroke="#9a32cd" points="997.65,-81.76 987.16,-83.26 996.3,-88.63 997.65,-81.76"/>
</a>
</g>
<text text-anchor="middle" x="1076.5" y="-113" font-family="Helvetica,sans-Serif" font-size="10.00" fill="grey"> service</text>
</g>
<!-- Node23 -->
<g id="Node000023" class="node">
<title>Node23</title>
<g id="a_Node000023"><a xlink:href="classAdaptation_1_1DynamicGroupCfg.html" target="_top" xlink:title="DynamicServiceGroup configuration to remember future dynamic chains.">
<polygon fill="white" stroke="#666666" points="1547.5,-94.5 1382.5,-94.5 1382.5,-75.5 1547.5,-75.5 1547.5,-94.5"/>
<text text-anchor="middle" x="1465" y="-82.5" font-family="Helvetica,sans-Serif" font-size="10.00">Adaptation::DynamicGroupCfg</text>
</a>
</g>
</g>
<!-- Node14&#45;&gt;Node23 -->
<g id="edge34_Node000023_Node000014" class="edge">
<title>Node14&#45;&gt;Node23</title>
<g id="a_edge34_Node000023_Node000014"><a xlink:title=" ">
<path fill="none" stroke="#9a32cd" stroke-dasharray="5,2" d="M997.22,-73.31C1032.08,-67.36 1089.82,-58.43 1140,-55 1206.95,-50.42 1224.14,-49.25 1291,-55 1335.8,-58.86 1386.4,-68.23 1421.25,-75.48"/>
<polygon fill="#9a32cd" stroke="#9a32cd" points="996.42,-69.89 987.16,-75.05 997.62,-76.79 996.42,-69.89"/>
</a>
</g>
<text text-anchor="middle" x="1215.5" y="-58" font-family="Helvetica,sans-Serif" font-size="10.00" fill="grey"> id</text>
</g>
<!-- Node24 -->
<g id="Node000024" class="node">
<title>Node24</title>
<g id="a_Node000024"><a xlink:title=" ">
<polygon fill="white" stroke="#666666" points="1275,-94.5 1156,-94.5 1156,-75.5 1275,-75.5 1275,-94.5"/>
<text text-anchor="middle" x="1215.5" y="-82.5" font-family="Helvetica,sans-Serif" font-size="10.00">std::vector&lt; String &gt;</text>
</a>
</g>
</g>
<!-- Node14&#45;&gt;Node24 -->
<g id="edge36_Node000024_Node000014" class="edge">
<title>Node14&#45;&gt;Node24</title>
<g id="a_edge36_Node000024_Node000014"><a xlink:title=" ">
<path fill="none" stroke="#9a32cd" stroke-dasharray="5,2" d="M997.41,-78.76C1029.04,-78.63 1078.88,-78.7 1122,-80 1132.93,-80.33 1144.58,-80.84 1155.8,-81.41"/>
<polygon fill="#9a32cd" stroke="#9a32cd" points="997.01,-75.26 987.02,-78.81 997.04,-82.26 997.01,-75.26"/>
</a>
</g>
<text text-anchor="middle" x="1076.5" y="-83" font-family="Helvetica,sans-Serif" font-size="10.00" fill="grey"> elements</text>
</g>
<!-- Node15 -->
<g id="Node000015" class="node">
<title>Node15</title>
<g id="a_Node000015"><a xlink:title=" ">
<polygon fill="white" stroke="#666666" points="1013,-240.5 916,-240.5 916,-221.5 1013,-221.5 1013,-240.5"/>
<text text-anchor="middle" x="964.5" y="-228.5" font-family="Helvetica,sans-Serif" font-size="10.00">std::vector&lt; T &gt;</text>
</a>
</g>
</g>
<!-- Node15&#45;&gt;Node4 -->
<g id="edge16_Node000004_Node000015" class="edge">
<title>Node15&#45;&gt;Node4</title>
<g id="a_edge16_Node000004_Node000015"><a xlink:title=" ">
<path fill="none" stroke="orange" stroke-dasharray="5,2" d="M1023.37,-235.07C1091.62,-239.66 1208.49,-246.9 1309,-250 1330.65,-250.67 1354.01,-251.02 1375.87,-251.18"/>
<polygon fill="orange" stroke="orange" points="1023.47,-231.56 1013.26,-234.38 1023,-238.55 1023.47,-231.56"/>
</a>
</g>
<text text-anchor="start" x="1140" y="-275" font-family="Helvetica,sans-Serif" font-size="10.00" fill="grey"> &lt; HttpHeaderEntry *,</text>
<text text-anchor="start" x="1140" y="-264" font-family="Helvetica,sans-Serif" font-size="10.00" fill="grey"> PoolingAllocator&lt; HttpHeader</text>
<text text-anchor="middle" x="1215.5" y="-253" font-family="Helvetica,sans-Serif" font-size="10.00" fill="grey">Entry * &gt; &gt;</text>
</g>
<!-- Node15&#45;&gt;Node19 -->
<g id="edge23_Node000019_Node000015" class="edge">
<title>Node15&#45;&gt;Node19</title>
<g id="a_edge23_Node000019_Node000015"><a xlink:title=" ">
<path fill="none" stroke="orange" stroke-dasharray="5,2" d="M983.49,-248.13C993.23,-258.16 1004.89,-271.48 1013,-285 1024.72,-304.54 1014.96,-316.82 1031,-333 1061.51,-363.77 1084.2,-346.81 1122,-368 1150.61,-384.04 1180.05,-408.21 1197.82,-423.8"/>
<polygon fill="orange" stroke="orange" points="985.75,-245.44 976.2,-240.86 980.8,-250.4 985.75,-245.44"/>
</a>
</g>
<text text-anchor="middle" x="1076.5" y="-371" font-family="Helvetica,sans-Serif" font-size="10.00" fill="grey"> &lt; Entry::Pointer &gt;</text>
</g>
<!-- Node15&#45;&gt;Node20 -->
<g id="edge27_Node000020_Node000015" class="edge">
<title>Node15&#45;&gt;Node20</title>
<g id="a_edge27_Node000020_Node000015"><a xlink:title=" ">
<path fill="none" stroke="orange" stroke-dasharray="5,2" d="M1023.02,-241.9C1065.97,-250.24 1117.94,-260.83 1122,-264 1136.41,-275.25 1126.19,-289.01 1140,-301 1147.29,-307.32 1156.26,-311.99 1165.43,-315.42"/>
<polygon fill="orange" stroke="orange" points="1023.65,-238.46 1013.17,-240 1022.33,-245.33 1023.65,-238.46"/>
</a>
</g>
<text text-anchor="middle" x="1076.5" y="-267" font-family="Helvetica,sans-Serif" font-size="10.00" fill="grey"> &lt; SBuf &gt;</text>
</g>
<!-- Node21 -->
<g id="Node000021" class="node">
<title>Node21</title>
<g id="a_Node000021"><a xlink:title=" ">
<polygon fill="white" stroke="#666666" points="1523,-188.5 1407,-188.5 1407,-169.5 1523,-169.5 1523,-188.5"/>
<text text-anchor="middle" x="1465" y="-176.5" font-family="Helvetica,sans-Serif" font-size="10.00">std::vector&lt; Entry &gt;</text>
</a>
</g>
</g>
<!-- Node15&#45;&gt;Node21 -->
<g id="edge31_Node000021_Node000015" class="edge">
<title>Node15&#45;&gt;Node21</title>
<g id="a_edge31_Node000021_Node000015"><a xlink:title=" ">
<path fill="none" stroke="orange" stroke-dasharray="5,2" d="M1016.48,-219.07C1047.12,-211.78 1086.87,-202.14 1122,-193 1130.04,-190.91 1131.79,-189.24 1140,-188 1232.65,-174.06 1341.84,-174.44 1406.86,-176.42"/>
<polygon fill="orange" stroke="orange" points="1015.38,-215.73 1006.45,-221.44 1016.99,-222.54 1015.38,-215.73"/>
</a>
</g>
<text text-anchor="middle" x="1215.5" y="-191" font-family="Helvetica,sans-Serif" font-size="10.00" fill="grey"> &lt; Entry &gt;</text>
</g>
<!-- Node15&#45;&gt;Node24 -->
<g id="edge37_Node000024_Node000015" class="edge">
<title>Node15&#45;&gt;Node24</title>
<g id="a_edge37_Node000024_Node000015"><a xlink:title=" ">
<path fill="none" stroke="orange" stroke-dasharray="5,2" d="M974.79,-212.44C985.58,-192.84 1005.25,-162.53 1031,-146 1065.93,-123.58 1086.49,-146.5 1122,-125 1132.52,-118.63 1129.56,-110.49 1140,-104 1146.24,-100.13 1153.23,-97.04 1160.37,-94.58"/>
<polygon fill="orange" stroke="orange" points="971.66,-210.86 970.09,-221.34 977.85,-214.13 971.66,-210.86"/>
</a>
</g>
<text text-anchor="middle" x="1076.5" y="-149" font-family="Helvetica,sans-Serif" font-size="10.00" fill="grey"> &lt; String &gt;</text>
</g>
<!-- Node16 -->
<g id="Node000016" class="node">
<title>Node16</title>
<g id="a_Node000016"><a xlink:title=" ">
<polygon fill="white" stroke="#666666" points="780,-238.5 751,-238.5 751,-219.5 780,-219.5 780,-238.5"/>
<text text-anchor="middle" x="765.5" y="-226.5" font-family="Helvetica,sans-Serif" font-size="10.00">T</text>
</a>
</g>
</g>
<!-- Node16&#45;&gt;Node15 -->
<g id="edge17_Node000015_Node000016" class="edge">
<title>Node16&#45;&gt;Node15</title>
<g id="a_edge17_Node000015_Node000016"><a xlink:title=" ">
<path fill="none" stroke="#9a32cd" stroke-dasharray="5,2" d="M790.31,-229.24C821.32,-229.56 876.23,-230.11 915.93,-230.52"/>
<polygon fill="#9a32cd" stroke="#9a32cd" points="790.08,-225.74 780.04,-229.14 790,-232.74 790.08,-225.74"/>
</a>
</g>
<text text-anchor="middle" x="873.5" y="-234" font-family="Helvetica,sans-Serif" font-size="10.00" fill="grey"> elements</text>
</g>
<!-- Node17&#45;&gt;Node1 -->
<g id="edge18_Node000001_Node000017" class="edge">
<title>Node17&#45;&gt;Node1</title>
<g id="a_edge18_Node000001_Node000017"><a xlink:title=" ">
<path fill="none" stroke="#9a32cd" stroke-dasharray="5,2" d="M1804.35,-382.6C1836.37,-369.14 1885.03,-346.63 1923,-320 1948.61,-302.04 1974.05,-275.23 1986.9,-260.89"/>
<polygon fill="#9a32cd" stroke="#9a32cd" points="1802.88,-379.42 1794.98,-386.48 1805.56,-385.89 1802.88,-379.42"/>
</a>
</g>
<text text-anchor="middle" x="1888" y="-362" font-family="Helvetica,sans-Serif" font-size="10.00" fill="grey"> metaHeaders</text>
</g>
<!-- Node18&#45;&gt;Node17 -->
<g id="edge19_Node000017_Node000018" class="edge">
<title>Node18&#45;&gt;Node17</title>
<g id="a_edge19_Node000017_Node000018"><a xlink:title=" ">
<path fill="none" stroke="#9a32cd" stroke-dasharray="5,2" d="M1506.72,-434.09C1550.93,-428.65 1623.58,-419.41 1686,-410 1695.05,-408.64 1704.64,-407.1 1713.96,-405.55"/>
<polygon fill="#9a32cd" stroke="#9a32cd" points="1506.16,-430.63 1496.66,-435.32 1507.01,-437.58 1506.16,-430.63"/>
</a>
</g>
<text text-anchor="middle" x="1629" y="-428" font-family="Helvetica,sans-Serif" font-size="10.00" fill="grey"> p_</text>
</g>
<!-- Node19&#45;&gt;Node18 -->
<g id="edge21_Node000018_Node000019" class="edge">
<title>Node19&#45;&gt;Node18</title>
<g id="a_edge21_Node000018_Node000019"><a xlink:title=" ">
<path fill="none" stroke="#9a32cd" stroke-dasharray="5,2" d="M1278.32,-439C1327.62,-439 1394.6,-439 1433.17,-439"/>
<polygon fill="#9a32cd" stroke="#9a32cd" points="1278.08,-435.5 1268.08,-439 1278.08,-442.5 1278.08,-435.5"/>
</a>
</g>
<text text-anchor="middle" x="1333.5" y="-442" font-family="Helvetica,sans-Serif" font-size="10.00" fill="grey"> entries</text>
</g>
<!-- Node20&#45;&gt;Node1 -->
<g id="edge25_Node000001_Node000020" class="edge">
<title>Node20&#45;&gt;Node1</title>
<g id="a_edge25_Node000001_Node000020"><a xlink:title=" ">
<path fill="none" stroke="#9a32cd" stroke-dasharray="5,2" d="M1282.42,-326.54C1408.35,-328.17 1691.25,-325.45 1923,-277 1940.54,-273.33 1959.58,-266.38 1973.75,-260.59"/>
<polygon fill="#9a32cd" stroke="#9a32cd" points="1282.22,-323.04 1272.17,-326.4 1282.12,-330.04 1282.22,-323.04"/>
</a>
</g>
<text text-anchor="middle" x="1629" y="-322" font-family="Helvetica,sans-Serif" font-size="10.00" fill="grey"> theAdaptationServices</text>
</g>
<!-- Node21&#45;&gt;Node1 -->
<g id="edge28_Node000001_Node000021" class="edge">
<title>Node21&#45;&gt;Node1</title>
<g id="a_edge28_Node000001_Node000021"><a xlink:title=" ">
<path fill="none" stroke="#9a32cd" stroke-dasharray="5,2" d="M1533.18,-185.19C1607.29,-192.36 1729.95,-205.22 1835,-221 1873.69,-226.81 1917.3,-235.07 1949.29,-241.46"/>
<polygon fill="#9a32cd" stroke="#9a32cd" points="1533.35,-181.69 1523.06,-184.22 1532.68,-188.66 1533.35,-181.69"/>
</a>
</g>
<text text-anchor="middle" x="1769.5" y="-224" font-family="Helvetica,sans-Serif" font-size="10.00" fill="grey"> theEntries</text>
</g>
<!-- Node22&#45;&gt;Node21 -->
<g id="edge29_Node000021_Node000022" class="edge">
<title>Node22&#45;&gt;Node21</title>
<g id="a_edge29_Node000021_Node000022"><a xlink:title=" ">
<path fill="none" stroke="#9a32cd" stroke-dasharray="5,2" d="M1281.17,-139.18C1305.33,-143.54 1332.97,-148.75 1358,-154 1380.39,-158.69 1405.3,-164.54 1425.34,-169.39"/>
<polygon fill="#9a32cd" stroke="#9a32cd" points="1281.51,-135.69 1271.05,-137.37 1280.28,-142.58 1281.51,-135.69"/>
</a>
</g>
<text text-anchor="middle" x="1333.5" y="-157" font-family="Helvetica,sans-Serif" font-size="10.00" fill="grey"> elements</text>
</g>
<!-- Node23&#45;&gt;Node1 -->
<g id="edge33_Node000001_Node000023" class="edge">
<title>Node23&#45;&gt;Node1</title>
<g id="a_edge33_Node000001_Node000023"><a xlink:title=" ">
<path fill="none" stroke="#9a32cd" stroke-dasharray="5,2" d="M1513.1,-97.08C1583.57,-115.42 1720.43,-152.08 1835,-189 1874.61,-201.76 1884.21,-205.93 1923,-221 1939.89,-227.56 1958.8,-235.4 1973.07,-241.42"/>
<polygon fill="#9a32cd" stroke="#9a32cd" points="1513.75,-93.63 1503.2,-94.51 1512,-100.41 1513.75,-93.63"/>
</a>
</g>
<text text-anchor="middle" x="1769.5" y="-192" font-family="Helvetica,sans-Serif" font-size="10.00" fill="grey"> theFutureServices</text>
</g>
<!-- Node24&#45;&gt;Node23 -->
<g id="edge35_Node000023_Node000024" class="edge">
<title>Node24&#45;&gt;Node23</title>
<g id="a_edge35_Node000023_Node000024"><a xlink:title=" ">
<path fill="none" stroke="#9a32cd" stroke-dasharray="5,2" d="M1285.54,-85C1315.59,-85 1351.02,-85 1382.36,-85"/>
<polygon fill="#9a32cd" stroke="#9a32cd" points="1285.15,-81.5 1275.15,-85 1285.15,-88.5 1285.15,-81.5"/>
</a>
</g>
<text text-anchor="middle" x="1333.5" y="-88" font-family="Helvetica,sans-Serif" font-size="10.00" fill="grey"> services</text>
</g>
</g>
</svg>

<g id="navigator" transform="translate(0 0)" fill="#404254">
  <rect fill="#f2f5e9" fill-opacity="0.5" stroke="#606060" stroke-width=".5" x="0" y="0" width="60" height="60"/>
  <use id="zoomplus" xlink:href="#zoomPlus" x="17" y="9" onmousedown="handleZoom(evt,'in')"/>
  <use id="zoomminus" xlink:href="#zoomMin" x="42" y="9" onmousedown="handleZoom(evt,'out')"/>
  <use id="reset" xlink:href="#resetDef" x="30" y="36" onmousedown="handleReset()"/>
   <use id="arrowup" xlink:href="#arrowUp" x="0" y="0" onmousedown="handlePan(0,-1)"/>
  <use id="arrowright" xlink:href="#arrowRight" x="0" y="0" onmousedown="handlePan(1,0)"/>
  <use id="arrowdown" xlink:href="#arrowDown" x="0" y="0" onmousedown="handlePan(0,1)"/>
  <use id="arrowleft" xlink:href="#arrowLeft" x="0" y="0" onmousedown="handlePan(-1,0)"/>
</g>
<svg viewBox="0 0 15 15" width="100%" height="30px" preserveAspectRatio="xMaxYMin meet">
 <g id="arrow_out" transform="scale(0.3 0.3)">
  <a xlink:href="classAdaptation_1_1History__coll__graph_org.svg" target="_base">
   <rect id="button" ry="5" rx="5" y="6" x="6" height="38" width="38"
        fill="#f2f5e9" fill-opacity="0.5" stroke="#606060" stroke-width="1.0"/>
   <path id="arrow"
     d="M 11.500037,31.436501 C 11.940474,20.09759 22.043105,11.32322 32.158766,21.979434 L 37.068811,17.246167 C 37.068811,17.246167 37.088388,32 37.088388,32 L 22.160133,31.978069 C 22.160133,31.978069 26.997745,27.140456 26.997745,27.140456 C 18.528582,18.264221 13.291696,25.230495 11.500037,31.436501 z"
     style="fill:#404040;"/>
  </a>
 </g>
</svg>

<style type='text/css'>
<![CDATA[
[data-mouse-over-selected='false'] { opacity: 0.7; }
[data-mouse-over-selected='true']  { opacity: 1.0; }
]]>
</style>
<script type="application/ecmascript"><![CDATA[
document.addEventListener('DOMContentLoaded', (event) => {
  highlightEdges();
  highlightAdjacentNodes();
});
]]></script>
</svg>
