<?xml version="1.0" encoding="UTF-8" standalone="no"?>
<!DOCTYPE svg PUBLIC "-//W3C//DTD SVG 1.1//EN"
 "http://www.w3.org/Graphics/SVG/1.1/DTD/svg11.dtd">
<!-- Generated by graphviz version 2.43.0 (0)
 -->
<!-- Title: Mgr::ServiceTimesAction Pages: 1 -->
<svg width="317pt" height="159pt"
 viewBox="0.00 0.00 317.00 159.00" xmlns="http://www.w3.org/2000/svg" xmlns:xlink="http://www.w3.org/1999/xlink">

<svg id="main" version="1.1" xmlns="http://www.w3.org/2000/svg" xmlns:xlink="http://www.w3.org/1999/xlink" xml:space="preserve" onload="init(evt)">
<style type="text/css"><![CDATA[
.node, .edge {opacity: 0.7;}
.node.selected, .edge.selected {opacity: 1;}
.edge:hover path { stroke: red; }
.edge:hover polygon { stroke: red; fill: red; }
]]></style>
<script type="application/ecmascript" xlink:href="svg.min.js"/>
<svg id="graph" class="graph">
<g id="graph0" class="graph" transform="scale(1 1) rotate(0) translate(4 155)">
<title>Mgr::ServiceTimesAction</title>
<!-- Node1 -->
<g id="Node000001" class="node">
<title>Node1</title>
<g id="a_Node000001"><a xlink:title="implement aggregated &#39;service_times&#39; action">
<polygon fill="#999999" stroke="#666666" points="229.5,-19 91.5,-19 91.5,0 229.5,0 229.5,-19"/>
<text text-anchor="middle" x="160.5" y="-7" font-family="Helvetica,sans-Serif" font-size="10.00">Mgr::ServiceTimesAction</text>
</a>
</g>
</g>
<!-- Node2 -->
<g id="Node000002" class="node">
<title>Node2</title>
<g id="a_Node000002"><a xlink:href="classMgr_1_1Action.html" target="_top" xlink:title=" ">
<polygon fill="white" stroke="#666666" points="129.5,-85 57.5,-85 57.5,-66 129.5,-66 129.5,-85"/>
<text text-anchor="middle" x="93.5" y="-73" font-family="Helvetica,sans-Serif" font-size="10.00">Mgr::Action</text>
</a>
</g>
</g>
<!-- Node2&#45;&gt;Node1 -->
<g id="edge1_Node000001_Node000002" class="edge">
<title>Node2&#45;&gt;Node1</title>
<g id="a_edge1_Node000001_Node000002"><a xlink:title=" ">
<path fill="none" stroke="#63b8ff" d="M109.9,-58.83C122.88,-46.44 140.52,-29.59 151.18,-19.41"/>
<polygon fill="#63b8ff" stroke="#63b8ff" points="107.35,-56.43 102.54,-65.87 112.18,-61.49 107.35,-56.43"/>
</a>
</g>
</g>
<!-- Node3 -->
<g id="Node000003" class="node">
<title>Node3</title>
<g id="a_Node000003"><a xlink:title=" ">
<polygon fill="white" stroke="#666666" points="83,-151 0,-151 0,-132 83,-132 83,-151"/>
<text text-anchor="middle" x="41.5" y="-139" font-family="Helvetica,sans-Serif" font-size="10.00">RefCountable</text>
</a>
</g>
</g>
<!-- Node3&#45;&gt;Node2 -->
<g id="edge2_Node000002_Node000003" class="edge">
<title>Node3&#45;&gt;Node2</title>
<g id="a_edge2_Node000002_Node000003"><a xlink:title=" ">
<path fill="none" stroke="#63b8ff" d="M55.1,-123.77C65.07,-111.49 78.23,-95.3 86.26,-85.41"/>
<polygon fill="#63b8ff" stroke="#63b8ff" points="52.1,-121.9 48.51,-131.87 57.54,-126.31 52.1,-121.9"/>
</a>
</g>
</g>
<!-- Node4 -->
<g id="Node000004" class="node">
<title>Node4</title>
<g id="a_Node000004"><a xlink:href="classRefCount.html" target="_top" xlink:title=" ">
<polygon fill="white" stroke="#666666" points="192,-151 101,-151 101,-132 192,-132 192,-151"/>
<text text-anchor="middle" x="146.5" y="-139" font-family="Helvetica,sans-Serif" font-size="10.00">RefCount&lt; C &gt;</text>
</a>
</g>
</g>
<!-- Node4&#45;&gt;Node2 -->
<g id="edge3_Node000002_Node000004" class="edge">
<title>Node4&#45;&gt;Node2</title>
<g id="a_edge3_Node000002_Node000004"><a xlink:title=" ">
<path fill="none" stroke="#9a32cd" stroke-dasharray="5,2" d="M132.94,-124.12C122.74,-111.81 109.15,-95.39 100.87,-85.41"/>
<polygon fill="#9a32cd" stroke="#9a32cd" points="130.28,-126.4 139.35,-131.87 135.67,-121.93 130.28,-126.4"/>
</a>
</g>
<text text-anchor="middle" x="136" y="-106" font-family="Helvetica,sans-Serif" font-size="10.00" fill="grey"> cmd</text>
</g>
<!-- Node5 -->
<g id="Node000005" class="node">
<title>Node5</title>
<g id="a_Node000005"><a xlink:href="classMgr_1_1ServiceTimesActionData.html" target="_top" xlink:title="store service times for 5 and 60 min">
<polygon fill="white" stroke="#666666" points="309,-85 148,-85 148,-66 309,-66 309,-85"/>
<text text-anchor="middle" x="228.5" y="-73" font-family="Helvetica,sans-Serif" font-size="10.00">Mgr::ServiceTimesActionData</text>
</a>
</g>
</g>
<!-- Node5&#45;&gt;Node1 -->
<g id="edge4_Node000001_Node000005" class="edge">
<title>Node5&#45;&gt;Node1</title>
<g id="a_edge4_Node000001_Node000005"><a xlink:title=" ">
<path fill="none" stroke="#9a32cd" stroke-dasharray="5,2" d="M211.85,-58.83C198.69,-46.44 180.78,-29.59 169.96,-19.41"/>
<polygon fill="#9a32cd" stroke="#9a32cd" points="209.65,-61.56 219.33,-65.87 214.45,-56.47 209.65,-61.56"/>
</a>
</g>
<text text-anchor="middle" x="211" y="-40" font-family="Helvetica,sans-Serif" font-size="10.00" fill="grey"> data</text>
</g>
</g>
</svg>
</svg>

<style type='text/css'>
<![CDATA[
[data-mouse-over-selected='false'] { opacity: 0.7; }
[data-mouse-over-selected='true']  { opacity: 1.0; }
]]>
</style>
<script type="application/ecmascript"><![CDATA[
document.addEventListener('DOMContentLoaded', (event) => {
  highlightEdges();
  highlightAdjacentNodes();
});
]]></script>
</svg>
