<?xml version="1.0" encoding="UTF-8" standalone="no"?>
<!DOCTYPE svg PUBLIC "-//W3C//DTD SVG 1.1//EN"
 "http://www.w3.org/Graphics/SVG/1.1/DTD/svg11.dtd">
<!-- Generated by graphviz version 2.43.0 (0)
 -->
<!-- Title: Ipc::MemMap Pages: 1 -->
<svg width="1318pt" height="194pt"
 viewBox="0.00 0.00 1318.00 194.00" xmlns="http://www.w3.org/2000/svg" xmlns:xlink="http://www.w3.org/1999/xlink">
<g id="graph0" class="graph" transform="scale(1 1) rotate(0) translate(4 190)">
<title>Ipc::MemMap</title>
<!-- Node1 -->
<g id="Node000001" class="node">
<title>Node1</title>
<g id="a_Node000001"><a xlink:title="A map of MemMapSlots indexed by their keys, with read/write slot locking.">
<polygon fill="#999999" stroke="#666666" points="1310,-125.5 1227,-125.5 1227,-106.5 1310,-106.5 1310,-125.5"/>
<text text-anchor="middle" x="1268.5" y="-113.5" font-family="Helvetica,sans-Serif" font-size="10.00">Ipc::MemMap</text>
</a>
</g>
</g>
<!-- Node2 -->
<g id="Node000002" class="node">
<title>Node2</title>
<g id="a_Node000002"><a xlink:href="classIpc_1_1MemMapCleaner.html" target="_top" xlink:title="API for adjusting external state when dirty map slot is being freed.">
<polygon fill="white" stroke="#666666" points="1142.5,-162.5 1022.5,-162.5 1022.5,-143.5 1142.5,-143.5 1142.5,-162.5"/>
<text text-anchor="middle" x="1082.5" y="-150.5" font-family="Helvetica,sans-Serif" font-size="10.00">Ipc::MemMapCleaner</text>
</a>
</g>
</g>
<!-- Node2&#45;&gt;Node1 -->
<g id="edge1_Node000001_Node000002" class="edge">
<title>Node2&#45;&gt;Node1</title>
<g id="a_edge1_Node000001_Node000002"><a xlink:title=" ">
<path fill="none" stroke="#9a32cd" stroke-dasharray="5,2" d="M1152.76,-141.85C1171.1,-138.62 1190.85,-134.91 1209,-131 1216.48,-129.39 1224.45,-127.47 1232.03,-125.56"/>
<polygon fill="#9a32cd" stroke="#9a32cd" points="1151.99,-138.43 1142.74,-143.59 1153.19,-145.33 1151.99,-138.43"/>
</a>
</g>
<text text-anchor="middle" x="1189" y="-141" font-family="Helvetica,sans-Serif" font-size="10.00" fill="grey"> cleaner</text>
</g>
<!-- Node3 -->
<g id="Node000003" class="node">
<title>Node3</title>
<g id="a_Node000003"><a xlink:href="classSBuf.html" target="_top" xlink:title=" ">
<polygon fill="white" stroke="#666666" points="1102,-125.5 1063,-125.5 1063,-106.5 1102,-106.5 1102,-125.5"/>
<text text-anchor="middle" x="1082.5" y="-113.5" font-family="Helvetica,sans-Serif" font-size="10.00">SBuf</text>
</a>
</g>
</g>
<!-- Node3&#45;&gt;Node1 -->
<g id="edge2_Node000001_Node000003" class="edge">
<title>Node3&#45;&gt;Node1</title>
<g id="a_edge2_Node000001_Node000003"><a xlink:title=" ">
<path fill="none" stroke="#9a32cd" stroke-dasharray="5,2" d="M1112.22,-116C1142.98,-116 1192.05,-116 1226.79,-116"/>
<polygon fill="#9a32cd" stroke="#9a32cd" points="1112.16,-112.5 1102.16,-116 1112.16,-119.5 1112.16,-112.5"/>
</a>
</g>
<text text-anchor="middle" x="1189" y="-119" font-family="Helvetica,sans-Serif" font-size="10.00" fill="grey"> path</text>
</g>
<!-- Node4 -->
<g id="Node000004" class="node">
<title>Node4</title>
<g id="a_Node000004"><a xlink:href="classInstanceId.html" target="_top" xlink:title=" ">
<polygon fill="white" stroke="#666666" points="482,-179.5 370,-179.5 370,-160.5 482,-160.5 482,-179.5"/>
<text text-anchor="middle" x="426" y="-167.5" font-family="Helvetica,sans-Serif" font-size="10.00">InstanceId&lt; SBuf &gt;</text>
</a>
</g>
</g>
<!-- Node4&#45;&gt;Node3 -->
<g id="edge3_Node000003_Node000004" class="edge">
<title>Node4&#45;&gt;Node3</title>
<g id="a_edge3_Node000003_Node000004"><a xlink:title=" ">
<path fill="none" stroke="#9a32cd" stroke-dasharray="5,2" d="M492.63,-173.75C599.5,-178.31 817.17,-181.13 996,-142 1004.39,-140.17 1005.86,-137.72 1014,-135 1030.28,-129.56 1049.1,-124.35 1062.73,-120.76"/>
<polygon fill="#9a32cd" stroke="#9a32cd" points="492.47,-170.24 482.33,-173.29 492.16,-177.23 492.47,-170.24"/>
</a>
</g>
<text text-anchor="middle" x="689.5" y="-178" font-family="Helvetica,sans-Serif" font-size="10.00" fill="grey"> id</text>
</g>
<!-- Node5 -->
<g id="Node000005" class="node">
<title>Node5</title>
<g id="a_Node000005"><a xlink:href="classInstanceId.html" target="_top" xlink:title=" ">
<polygon fill="white" stroke="#666666" points="107,-148 0,-148 0,-118 107,-118 107,-148"/>
<text text-anchor="start" x="8" y="-136" font-family="Helvetica,sans-Serif" font-size="10.00">InstanceId&lt; Class,</text>
<text text-anchor="middle" x="53.5" y="-125" font-family="Helvetica,sans-Serif" font-size="10.00"> ValueType &gt;</text>
</a>
</g>
</g>
<!-- Node5&#45;&gt;Node4 -->
<g id="edge4_Node000004_Node000005" class="edge">
<title>Node5&#45;&gt;Node4</title>
<g id="a_edge4_Node000004_Node000005"><a xlink:title=" ">
<path fill="none" stroke="orange" stroke-dasharray="5,2" d="M117.48,-140.32C147.33,-143.71 183.48,-147.71 216,-151 268.2,-156.28 327.8,-161.63 369.97,-165.3"/>
<polygon fill="orange" stroke="orange" points="117.54,-136.8 107.2,-139.15 116.74,-143.76 117.54,-136.8"/>
</a>
</g>
<text text-anchor="middle" x="161.5" y="-152" font-family="Helvetica,sans-Serif" font-size="10.00" fill="grey"> &lt; SBuf &gt;</text>
</g>
<!-- Node9 -->
<g id="Node000009" class="node">
<title>Node9</title>
<g id="a_Node000009"><a xlink:href="classInstanceId.html" target="_top" xlink:title=" ">
<polygon fill="white" stroke="#666666" points="352,-104.5 216,-104.5 216,-85.5 352,-85.5 352,-104.5"/>
<text text-anchor="middle" x="284" y="-92.5" font-family="Helvetica,sans-Serif" font-size="10.00">InstanceId&lt; MemBlob &gt;</text>
</a>
</g>
</g>
<!-- Node5&#45;&gt;Node9 -->
<g id="edge9_Node000009_Node000005" class="edge">
<title>Node5&#45;&gt;Node9</title>
<g id="a_edge9_Node000009_Node000005"><a xlink:title=" ">
<path fill="none" stroke="orange" stroke-dasharray="5,2" d="M117.46,-122.53C151.33,-116.9 192.8,-110 225.75,-104.52"/>
<polygon fill="orange" stroke="orange" points="116.5,-119.14 107.21,-124.23 117.65,-126.05 116.5,-119.14"/>
</a>
</g>
<text text-anchor="middle" x="161.5" y="-123" font-family="Helvetica,sans-Serif" font-size="10.00" fill="grey"> &lt; MemBlob &gt;</text>
</g>
<!-- Node6 -->
<g id="Node000006" class="node">
<title>Node6</title>
<g id="a_Node000006"><a xlink:href="classRefCount.html" target="_top" xlink:title=" ">
<polygon fill="white" stroke="#666666" points="846,-141.5 715,-141.5 715,-122.5 846,-122.5 846,-141.5"/>
<text text-anchor="middle" x="780.5" y="-129.5" font-family="Helvetica,sans-Serif" font-size="10.00">RefCount&lt; MemBlob &gt;</text>
</a>
</g>
</g>
<!-- Node6&#45;&gt;Node3 -->
<g id="edge5_Node000003_Node000006" class="edge">
<title>Node6&#45;&gt;Node3</title>
<g id="a_edge5_Node000003_Node000006"><a xlink:title=" ">
<path fill="none" stroke="#9a32cd" stroke-dasharray="5,2" d="M856.59,-128C925.42,-124.32 1022.56,-119.14 1062.86,-116.99"/>
<polygon fill="#9a32cd" stroke="#9a32cd" points="856.03,-124.52 846.23,-128.55 856.4,-131.51 856.03,-124.52"/>
</a>
</g>
<text text-anchor="middle" x="930" y="-130" font-family="Helvetica,sans-Serif" font-size="10.00" fill="grey"> store_</text>
</g>
<!-- Node7 -->
<g id="Node000007" class="node">
<title>Node7</title>
<g id="a_Node000007"><a xlink:href="classMemBlob.html" target="_top" xlink:title=" ">
<polygon fill="white" stroke="#666666" points="613.5,-141.5 550.5,-141.5 550.5,-122.5 613.5,-122.5 613.5,-141.5"/>
<text text-anchor="middle" x="582" y="-129.5" font-family="Helvetica,sans-Serif" font-size="10.00">MemBlob</text>
</a>
</g>
</g>
<!-- Node7&#45;&gt;Node6 -->
<g id="edge6_Node000006_Node000007" class="edge">
<title>Node7&#45;&gt;Node6</title>
<g id="a_edge6_Node000006_Node000007"><a xlink:title=" ">
<path fill="none" stroke="#9a32cd" stroke-dasharray="5,2" d="M624.05,-132C650.33,-132 684.97,-132 714.89,-132"/>
<polygon fill="#9a32cd" stroke="#9a32cd" points="623.7,-128.5 613.7,-132 623.7,-135.5 623.7,-128.5"/>
</a>
</g>
<text text-anchor="middle" x="689.5" y="-135" font-family="Helvetica,sans-Serif" font-size="10.00" fill="grey"> p_</text>
</g>
<!-- Node8 -->
<g id="Node000008" class="node">
<title>Node8</title>
<g id="a_Node000008"><a xlink:title=" ">
<polygon fill="white" stroke="#666666" points="325.5,-141.5 242.5,-141.5 242.5,-122.5 325.5,-122.5 325.5,-141.5"/>
<text text-anchor="middle" x="284" y="-129.5" font-family="Helvetica,sans-Serif" font-size="10.00">RefCountable</text>
</a>
</g>
</g>
<!-- Node8&#45;&gt;Node7 -->
<g id="edge7_Node000007_Node000008" class="edge">
<title>Node8&#45;&gt;Node7</title>
<g id="a_edge7_Node000007_Node000008"><a xlink:title=" ">
<path fill="none" stroke="#63b8ff" d="M335.82,-132C397.53,-132 499.63,-132 550.39,-132"/>
<polygon fill="#63b8ff" stroke="#63b8ff" points="335.54,-128.5 325.54,-132 335.54,-135.5 335.54,-128.5"/>
</a>
</g>
</g>
<!-- Node9&#45;&gt;Node7 -->
<g id="edge8_Node000007_Node000009" class="edge">
<title>Node9&#45;&gt;Node7</title>
<g id="a_edge8_Node000007_Node000009"><a xlink:title=" ">
<path fill="none" stroke="#9a32cd" stroke-dasharray="5,2" d="M362.15,-102.91C398.54,-106.82 442.55,-111.81 482,-117 504.92,-120.02 530.75,-123.95 550.27,-127.03"/>
<polygon fill="#9a32cd" stroke="#9a32cd" points="362.41,-99.42 352.1,-101.83 361.67,-106.38 362.41,-99.42"/>
</a>
</g>
<text text-anchor="middle" x="426" y="-120" font-family="Helvetica,sans-Serif" font-size="10.00" fill="grey"> id</text>
</g>
<!-- Node10 -->
<g id="Node000010" class="node">
<title>Node10</title>
<g id="a_Node000010"><a xlink:href="classRefCount.html" target="_top" xlink:title=" ">
<polygon fill="white" stroke="#666666" points="329.5,-62.5 238.5,-62.5 238.5,-43.5 329.5,-43.5 329.5,-62.5"/>
<text text-anchor="middle" x="284" y="-50.5" font-family="Helvetica,sans-Serif" font-size="10.00">RefCount&lt; C &gt;</text>
</a>
</g>
</g>
<!-- Node10&#45;&gt;Node6 -->
<g id="edge10_Node000006_Node000010" class="edge">
<title>Node10&#45;&gt;Node6</title>
<g id="a_edge10_Node000006_Node000010"><a xlink:title=" ">
<path fill="none" stroke="orange" stroke-dasharray="5,2" d="M339.62,-58.22C413.56,-65.73 549.44,-81.14 664,-103 691.82,-108.31 722.94,-116.24 745.87,-122.47"/>
<polygon fill="orange" stroke="orange" points="339.91,-54.73 329.61,-57.21 339.21,-61.69 339.91,-54.73"/>
</a>
</g>
<text text-anchor="middle" x="582" y="-106" font-family="Helvetica,sans-Serif" font-size="10.00" fill="grey"> &lt; MemBlob &gt;</text>
</g>
<!-- Node15 -->
<g id="Node000015" class="node">
<title>Node15</title>
<g id="a_Node000015"><a xlink:href="classRefCount.html" target="_top" xlink:title=" ">
<polygon fill="white" stroke="#666666" points="664,-31.5 500,-31.5 500,-12.5 664,-12.5 664,-31.5"/>
<text text-anchor="middle" x="582" y="-19.5" font-family="Helvetica,sans-Serif" font-size="10.00">RefCount&lt; Object&lt; Class &gt; &gt;</text>
</a>
</g>
</g>
<!-- Node10&#45;&gt;Node15 -->
<g id="edge16_Node000015_Node000010" class="edge">
<title>Node10&#45;&gt;Node15</title>
<g id="a_edge16_Node000015_Node000010"><a xlink:title=" ">
<path fill="none" stroke="orange" stroke-dasharray="5,2" d="M339.53,-47.21C349.66,-46.14 360.15,-45.04 370,-44 412.86,-39.5 460.61,-34.51 499.84,-30.43"/>
<polygon fill="orange" stroke="orange" points="339.13,-43.74 329.55,-48.27 339.87,-50.7 339.13,-43.74"/>
</a>
</g>
<text text-anchor="middle" x="426" y="-47" font-family="Helvetica,sans-Serif" font-size="10.00" fill="grey"> &lt; Object&lt; Class &gt; &gt;</text>
</g>
<!-- Node11 -->
<g id="Node000011" class="node">
<title>Node11</title>
<g id="a_Node000011"><a xlink:href="classSBufStats.html" target="_top" xlink:title=" ">
<polygon fill="white" stroke="#666666" points="812.5,-104.5 748.5,-104.5 748.5,-85.5 812.5,-85.5 812.5,-104.5"/>
<text text-anchor="middle" x="780.5" y="-92.5" font-family="Helvetica,sans-Serif" font-size="10.00">SBufStats</text>
</a>
</g>
</g>
<!-- Node11&#45;&gt;Node3 -->
<g id="edge11_Node000003_Node000011" class="edge">
<title>Node11&#45;&gt;Node3</title>
<g id="a_edge11_Node000003_Node000011"><a xlink:title=" ">
<path fill="none" stroke="#9a32cd" stroke-dasharray="5,2" d="M822.95,-95.93C866.21,-97.14 935.96,-99.75 996,-105 1019.11,-107.02 1045.58,-110.63 1062.87,-113.16"/>
<polygon fill="#9a32cd" stroke="#9a32cd" points="822.9,-92.43 812.81,-95.66 822.72,-99.43 822.9,-92.43"/>
</a>
</g>
<text text-anchor="middle" x="930" y="-108" font-family="Helvetica,sans-Serif" font-size="10.00" fill="grey"> stats</text>
</g>
<!-- Node12 -->
<g id="Node000012" class="node">
<title>Node12</title>
<g id="a_Node000012"><a xlink:href="classIpc_1_1Mem_1_1Pointer.html" target="_top" xlink:title=" ">
<polygon fill="white" stroke="#666666" points="1151,-73 1014,-73 1014,-43 1151,-43 1151,-73"/>
<text text-anchor="start" x="1022" y="-61" font-family="Helvetica,sans-Serif" font-size="10.00">Ipc::Mem::Pointer&lt;</text>
<text text-anchor="middle" x="1082.5" y="-50" font-family="Helvetica,sans-Serif" font-size="10.00"> Ipc::MemMap::Shared &gt;</text>
</a>
</g>
</g>
<!-- Node12&#45;&gt;Node1 -->
<g id="edge12_Node000001_Node000012" class="edge">
<title>Node12&#45;&gt;Node1</title>
<g id="a_edge12_Node000001_Node000012"><a xlink:title=" ">
<path fill="none" stroke="#9a32cd" stroke-dasharray="5,2" d="M1141.02,-76.13C1172.85,-86.16 1211.12,-98.23 1237.17,-106.44"/>
<polygon fill="#9a32cd" stroke="#9a32cd" points="1141.95,-72.76 1131.36,-73.09 1139.85,-79.43 1141.95,-72.76"/>
</a>
</g>
<text text-anchor="middle" x="1189" y="-100" font-family="Helvetica,sans-Serif" font-size="10.00" fill="grey"> shared</text>
</g>
<!-- Node13 -->
<g id="Node000013" class="node">
<title>Node13</title>
<g id="a_Node000013"><a xlink:href="classRefCount.html" target="_top" xlink:title=" ">
<polygon fill="white" stroke="#666666" points="826,-67.5 735,-67.5 735,-48.5 826,-48.5 826,-67.5"/>
<text text-anchor="middle" x="780.5" y="-55.5" font-family="Helvetica,sans-Serif" font-size="10.00">RefCount&lt; C &gt;</text>
</a>
</g>
</g>
<!-- Node13&#45;&gt;Node12 -->
<g id="edge13_Node000012_Node000013" class="edge">
<title>Node13&#45;&gt;Node12</title>
<g id="a_edge13_Node000012_Node000013"><a xlink:title=" ">
<path fill="none" stroke="#63b8ff" d="M836.37,-58C886.33,-58 960.26,-58 1013.86,-58"/>
<polygon fill="#63b8ff" stroke="#63b8ff" points="836.09,-54.5 826.09,-58 836.09,-61.5 836.09,-54.5"/>
</a>
</g>
</g>
<!-- Node14 -->
<g id="Node000014" class="node">
<title>Node14</title>
<g id="a_Node000014"><a xlink:href="classIpc_1_1Mem_1_1Pointer.html" target="_top" xlink:title=" ">
<polygon fill="white" stroke="#666666" points="835.5,-30 725.5,-30 725.5,0 835.5,0 835.5,-30"/>
<text text-anchor="start" x="733.5" y="-18" font-family="Helvetica,sans-Serif" font-size="10.00">Ipc::Mem::Pointer&lt;</text>
<text text-anchor="middle" x="780.5" y="-7" font-family="Helvetica,sans-Serif" font-size="10.00"> Class &gt;</text>
</a>
</g>
</g>
<!-- Node14&#45;&gt;Node12 -->
<g id="edge14_Node000012_Node000014" class="edge">
<title>Node14&#45;&gt;Node12</title>
<g id="a_edge14_Node000012_Node000014"><a xlink:title=" ">
<path fill="none" stroke="orange" stroke-dasharray="5,2" d="M845.78,-22.64C888.44,-27.9 945.65,-35.3 996,-43 1001.81,-43.89 1007.83,-44.85 1013.87,-45.85"/>
<polygon fill="orange" stroke="orange" points="846.16,-19.16 835.81,-21.42 845.31,-26.11 846.16,-19.16"/>
</a>
</g>
<text text-anchor="middle" x="930" y="-46" font-family="Helvetica,sans-Serif" font-size="10.00" fill="grey"> &lt; Ipc::MemMap::Shared &gt;</text>
</g>
<!-- Node15&#45;&gt;Node14 -->
<g id="edge15_Node000014_Node000015" class="edge">
<title>Node15&#45;&gt;Node14</title>
<g id="a_edge15_Node000014_Node000015"><a xlink:title=" ">
<path fill="none" stroke="#63b8ff" d="M674.27,-18.75C691.71,-18.13 709.43,-17.5 725.25,-16.93"/>
<polygon fill="#63b8ff" stroke="#63b8ff" points="673.93,-15.26 664.06,-19.11 674.18,-22.25 673.93,-15.26"/>
</a>
</g>
</g>
</g>
</svg>
