<?xml version="1.0" encoding="UTF-8" standalone="no"?>
<!DOCTYPE svg PUBLIC "-//W3C//DTD SVG 1.1//EN"
 "http://www.w3.org/Graphics/SVG/1.1/DTD/svg11.dtd">
<!-- Generated by graphviz version 2.43.0 (0)
 -->
<!-- Title: BodyProducerDialer Pages: 1 -->
<svg width="275pt" height="312pt"
 viewBox="0.00 0.00 275.00 312.00" xmlns="http://www.w3.org/2000/svg" xmlns:xlink="http://www.w3.org/1999/xlink">

<svg id="main" version="1.1" xmlns="http://www.w3.org/2000/svg" xmlns:xlink="http://www.w3.org/1999/xlink" xml:space="preserve" onload="init(evt)">
<style type="text/css"><![CDATA[
.node, .edge {opacity: 0.7;}
.node.selected, .edge.selected {opacity: 1;}
.edge:hover path { stroke: red; }
.edge:hover polygon { stroke: red; fill: red; }
]]></style>
<script type="application/ecmascript" xlink:href="svg.min.js"/>
<svg id="graph" class="graph">
<g id="graph0" class="graph" transform="scale(1 1) rotate(0) translate(4 308)">
<title>BodyProducerDialer</title>
<!-- Node1 -->
<g id="Node000001" class="node">
<title>Node1</title>
<g id="a_Node000001"><a xlink:title=" ">
<polygon fill="#999999" stroke="#666666" points="144.5,-19 31.5,-19 31.5,0 144.5,0 144.5,-19"/>
<text text-anchor="middle" x="88" y="-7" font-family="Helvetica,sans-Serif" font-size="10.00">BodyProducerDialer</text>
</a>
</g>
</g>
<!-- Node2 -->
<g id="Node000002" class="node">
<title>Node2</title>
<g id="a_Node000002"><a xlink:href="classUnaryMemFunT.html" target="_top" xlink:title=" ">
<polygon fill="white" stroke="#666666" points="176,-86 0,-86 0,-56 176,-56 176,-86"/>
<text text-anchor="start" x="8" y="-74" font-family="Helvetica,sans-Serif" font-size="10.00">UnaryMemFunT&lt; BodyProducer,</text>
<text text-anchor="middle" x="88" y="-63" font-family="Helvetica,sans-Serif" font-size="10.00"> BodyPipe::Pointer &gt;</text>
</a>
</g>
</g>
<!-- Node2&#45;&gt;Node1 -->
<g id="edge1_Node000001_Node000002" class="edge">
<title>Node2&#45;&gt;Node1</title>
<g id="a_edge1_Node000001_Node000002"><a xlink:title=" ">
<path fill="none" stroke="#63b8ff" d="M88,-45.79C88,-36.36 88,-26.15 88,-19.16"/>
<polygon fill="#63b8ff" stroke="#63b8ff" points="84.5,-45.9 88,-55.9 91.5,-45.9 84.5,-45.9"/>
</a>
</g>
</g>
<!-- Node3 -->
<g id="Node000003" class="node">
<title>Node3</title>
<g id="a_Node000003"><a xlink:href="classJobDialer.html" target="_top" xlink:title=" ">
<polygon fill="white" stroke="#666666" points="127,-211 29,-211 29,-192 127,-192 127,-211"/>
<text text-anchor="middle" x="78" y="-199" font-family="Helvetica,sans-Serif" font-size="10.00">JobDialer&lt; Job &gt;</text>
</a>
</g>
</g>
<!-- Node3&#45;&gt;Node2 -->
<g id="edge2_Node000002_Node000003" class="edge">
<title>Node3&#45;&gt;Node2</title>
<g id="a_edge2_Node000002_Node000003"><a xlink:title=" ">
<path fill="none" stroke="#63b8ff" d="M79.47,-181.6C81.49,-155.61 85.09,-109.44 86.9,-86.2"/>
<polygon fill="#63b8ff" stroke="#63b8ff" points="75.97,-181.43 78.69,-191.67 82.95,-181.97 75.97,-181.43"/>
</a>
</g>
</g>
<!-- Node4 -->
<g id="Node000004" class="node">
<title>Node4</title>
<g id="a_Node000004"><a xlink:href="classCallDialer.html" target="_top" xlink:title=" ">
<polygon fill="white" stroke="#666666" points="125.5,-304 60.5,-304 60.5,-285 125.5,-285 125.5,-304"/>
<text text-anchor="middle" x="93" y="-292" font-family="Helvetica,sans-Serif" font-size="10.00">CallDialer</text>
</a>
</g>
</g>
<!-- Node4&#45;&gt;Node3 -->
<g id="edge3_Node000003_Node000004" class="edge">
<title>Node4&#45;&gt;Node3</title>
<g id="a_edge3_Node000003_Node000004"><a xlink:title=" ">
<path fill="none" stroke="#63b8ff" d="M89.89,-274.64C86.68,-255.13 81.8,-225.53 79.41,-211.07"/>
<polygon fill="#63b8ff" stroke="#63b8ff" points="86.48,-275.48 91.56,-284.77 93.39,-274.34 86.48,-275.48"/>
</a>
</g>
</g>
<!-- Node6 -->
<g id="Node000006" class="node">
<title>Node6</title>
<g id="a_Node000006"><a xlink:href="classJobDialer.html" target="_top" xlink:title=" ">
<polygon fill="white" stroke="#666666" points="209,-248 111,-248 111,-229 209,-229 209,-248"/>
<text text-anchor="middle" x="160" y="-236" font-family="Helvetica,sans-Serif" font-size="10.00">JobDialer&lt; Job &gt;</text>
</a>
</g>
</g>
<!-- Node4&#45;&gt;Node6 -->
<g id="edge6_Node000006_Node000004" class="edge">
<title>Node4&#45;&gt;Node6</title>
<g id="a_edge6_Node000006_Node000004"><a xlink:title=" ">
<path fill="none" stroke="#63b8ff" d="M111.83,-278.32C123.84,-268.65 138.97,-256.45 149.04,-248.33"/>
<polygon fill="#63b8ff" stroke="#63b8ff" points="109.35,-275.82 103.76,-284.82 113.75,-281.27 109.35,-275.82"/>
</a>
</g>
</g>
<!-- Node5 -->
<g id="Node000005" class="node">
<title>Node5</title>
<g id="a_Node000005"><a xlink:href="classUnaryMemFunT.html" target="_top" xlink:title=" ">
<polygon fill="white" stroke="#666666" points="223.5,-174 100.5,-174 100.5,-144 223.5,-144 223.5,-174"/>
<text text-anchor="start" x="108.5" y="-162" font-family="Helvetica,sans-Serif" font-size="10.00">UnaryMemFunT&lt; Job,</text>
<text text-anchor="middle" x="162" y="-151" font-family="Helvetica,sans-Serif" font-size="10.00"> Data, Argument1 &gt;</text>
</a>
</g>
</g>
<!-- Node5&#45;&gt;Node2 -->
<g id="edge4_Node000002_Node000005" class="edge">
<title>Node5&#45;&gt;Node2</title>
<g id="a_edge4_Node000002_Node000005"><a xlink:title=" ">
<path fill="none" stroke="orange" stroke-dasharray="5,2" d="M143.17,-136.12C129.69,-120.45 111.92,-99.8 100.24,-86.22"/>
<polygon fill="orange" stroke="orange" points="140.6,-138.5 149.78,-143.8 145.91,-133.94 140.6,-138.5"/>
</a>
</g>
<text text-anchor="start" x="133" y="-118" font-family="Helvetica,sans-Serif" font-size="10.00" fill="grey"> &lt; BodyProducer, BodyPipe</text>
<text text-anchor="middle" x="200" y="-107" font-family="Helvetica,sans-Serif" font-size="10.00" fill="grey">::Pointer &gt;</text>
</g>
<!-- Node6&#45;&gt;Node5 -->
<g id="edge5_Node000005_Node000006" class="edge">
<title>Node6&#45;&gt;Node5</title>
<g id="a_edge5_Node000005_Node000006"><a xlink:title=" ">
<path fill="none" stroke="#63b8ff" d="M160.49,-218.68C160.84,-204.95 161.31,-186.63 161.64,-174.14"/>
<polygon fill="#63b8ff" stroke="#63b8ff" points="156.98,-218.82 160.22,-228.91 163.98,-219 156.98,-218.82"/>
</a>
</g>
</g>
</g>
</svg>
</svg>

<style type='text/css'>
<![CDATA[
[data-mouse-over-selected='false'] { opacity: 0.7; }
[data-mouse-over-selected='true']  { opacity: 1.0; }
]]>
</style>
<script type="application/ecmascript"><![CDATA[
document.addEventListener('DOMContentLoaded', (event) => {
  highlightEdges();
  highlightAdjacentNodes();
});
]]></script>
</svg>
