<?xml version="1.0" encoding="UTF-8" standalone="no"?>
<!DOCTYPE svg PUBLIC "-//W3C//DTD SVG 1.1//EN"
 "http://www.w3.org/Graphics/SVG/1.1/DTD/svg11.dtd">
<!-- Generated by graphviz version 2.43.0 (0)
 -->
<!-- Title: PeerSelectionInitiator Pages: 1 -->
<svg width="186pt" height="137pt"
 viewBox="0.00 0.00 185.50 137.00" xmlns="http://www.w3.org/2000/svg" xmlns:xlink="http://www.w3.org/1999/xlink">
<g id="graph0" class="graph" transform="scale(1 1) rotate(0) translate(4 133)">
<title>PeerSelectionInitiator</title>
<!-- Node1 -->
<g id="Node000001" class="node">
<title>Node1</title>
<g id="a_Node000001"><a xlink:title="Interface for those who need a list of peers to forward a request to.">
<polygon fill="#999999" stroke="#666666" points="141,-74 19,-74 19,-55 141,-55 141,-74"/>
<text text-anchor="middle" x="80" y="-62" font-family="Helvetica,sans-Serif" font-size="10.00">PeerSelectionInitiator</text>
</a>
</g>
</g>
<!-- Node3 -->
<g id="Node000003" class="node">
<title>Node3</title>
<g id="a_Node000003"><a xlink:href="classFwdState.html" target="_top" xlink:title=" ">
<polygon fill="white" stroke="#666666" points="62,-19 0,-19 0,0 62,0 62,-19"/>
<text text-anchor="middle" x="31" y="-7" font-family="Helvetica,sans-Serif" font-size="10.00">FwdState</text>
</a>
</g>
</g>
<!-- Node1&#45;&gt;Node3 -->
<g id="edge2_Node000001_Node000003" class="edge">
<title>Node1&#45;&gt;Node3</title>
<g id="a_edge2_Node000001_Node000003"><a xlink:title=" ">
<path fill="none" stroke="#63b8ff" d="M64.97,-47.24C56.38,-37.95 45.96,-26.68 38.94,-19.09"/>
<polygon fill="#63b8ff" stroke="#63b8ff" points="62.55,-49.78 71.91,-54.75 67.69,-45.03 62.55,-49.78"/>
</a>
</g>
</g>
<!-- Node4 -->
<g id="Node000004" class="node">
<title>Node4</title>
<g id="a_Node000004"><a xlink:href="classTunnelStateData.html" target="_top" xlink:title=" ">
<polygon fill="white" stroke="#666666" points="177.5,-19 80.5,-19 80.5,0 177.5,0 177.5,-19"/>
<text text-anchor="middle" x="129" y="-7" font-family="Helvetica,sans-Serif" font-size="10.00">TunnelStateData</text>
</a>
</g>
</g>
<!-- Node1&#45;&gt;Node4 -->
<g id="edge3_Node000001_Node000004" class="edge">
<title>Node1&#45;&gt;Node4</title>
<g id="a_edge3_Node000001_Node000004"><a xlink:title=" ">
<path fill="none" stroke="#63b8ff" d="M95.03,-47.24C103.62,-37.95 114.04,-26.68 121.06,-19.09"/>
<polygon fill="#63b8ff" stroke="#63b8ff" points="92.31,-45.03 88.09,-54.75 97.45,-49.78 92.31,-45.03"/>
</a>
</g>
</g>
<!-- Node2 -->
<g id="Node000002" class="node">
<title>Node2</title>
<g id="a_Node000002"><a xlink:href="classCbdataParent.html" target="_top" xlink:title=" ">
<polygon fill="white" stroke="#666666" points="121,-129 39,-129 39,-110 121,-110 121,-129"/>
<text text-anchor="middle" x="80" y="-117" font-family="Helvetica,sans-Serif" font-size="10.00">CbdataParent</text>
</a>
</g>
</g>
<!-- Node2&#45;&gt;Node1 -->
<g id="edge1_Node000001_Node000002" class="edge">
<title>Node2&#45;&gt;Node1</title>
<g id="a_edge1_Node000001_Node000002"><a xlink:title=" ">
<path fill="none" stroke="#63b8ff" d="M80,-99.66C80,-90.93 80,-80.99 80,-74.09"/>
<polygon fill="#63b8ff" stroke="#63b8ff" points="76.5,-99.75 80,-109.75 83.5,-99.75 76.5,-99.75"/>
</a>
</g>
</g>
</g>
</svg>
