<?xml version="1.0" encoding="UTF-8" standalone="no"?>
<!DOCTYPE svg PUBLIC "-//W3C//DTD SVG 1.1//EN"
 "http://www.w3.org/Graphics/SVG/1.1/DTD/svg11.dtd">
<!-- Generated by graphviz version 2.43.0 (0)
 -->
<!-- Title: Ipc::Strand Pages: 1 -->
<svg width="90pt" height="247pt"
 viewBox="0.00 0.00 90.00 247.00" xmlns="http://www.w3.org/2000/svg" xmlns:xlink="http://www.w3.org/1999/xlink">

<svg id="main" version="1.1" xmlns="http://www.w3.org/2000/svg" xmlns:xlink="http://www.w3.org/1999/xlink" xml:space="preserve" onload="init(evt)">
<style type="text/css"><![CDATA[
.node, .edge {opacity: 0.7;}
.node.selected, .edge.selected {opacity: 1;}
.edge:hover path { stroke: red; }
.edge:hover polygon { stroke: red; fill: red; }
]]></style>
<script type="application/ecmascript" xlink:href="svg.min.js"/>
<svg id="graph" class="graph">
<g id="graph0" class="graph" transform="scale(1 1) rotate(0) translate(4 243)">
<title>Ipc::Strand</title>
<!-- Node1 -->
<g id="Node000001" class="node">
<title>Node1</title>
<g id="a_Node000001"><a xlink:title="Receives coordination messages on behalf of its process or thread.">
<polygon fill="#999999" stroke="#666666" points="75,-19 7,-19 7,0 75,0 75,-19"/>
<text text-anchor="middle" x="41" y="-7" font-family="Helvetica,sans-Serif" font-size="10.00">Ipc::Strand</text>
</a>
</g>
</g>
<!-- Node2 -->
<g id="Node000002" class="node">
<title>Node2</title>
<g id="a_Node000002"><a xlink:href="classIpc_1_1Port.html" target="_top" xlink:title="Waits for and receives incoming IPC messages; kids handle the messages.">
<polygon fill="white" stroke="#666666" points="69,-74 13,-74 13,-55 69,-55 69,-74"/>
<text text-anchor="middle" x="41" y="-62" font-family="Helvetica,sans-Serif" font-size="10.00">Ipc::Port</text>
</a>
</g>
</g>
<!-- Node2&#45;&gt;Node1 -->
<g id="edge1_Node000001_Node000002" class="edge">
<title>Node2&#45;&gt;Node1</title>
<g id="a_edge1_Node000001_Node000002"><a xlink:title=" ">
<path fill="none" stroke="#63b8ff" d="M41,-44.66C41,-35.93 41,-25.99 41,-19.09"/>
<polygon fill="#63b8ff" stroke="#63b8ff" points="37.5,-44.75 41,-54.75 44.5,-44.75 37.5,-44.75"/>
</a>
</g>
</g>
<!-- Node3 -->
<g id="Node000003" class="node">
<title>Node3</title>
<g id="a_Node000003"><a xlink:href="classIpc_1_1UdsOp.html" target="_top" xlink:title=" ">
<polygon fill="white" stroke="#666666" points="75.5,-129 6.5,-129 6.5,-110 75.5,-110 75.5,-129"/>
<text text-anchor="middle" x="41" y="-117" font-family="Helvetica,sans-Serif" font-size="10.00">Ipc::UdsOp</text>
</a>
</g>
</g>
<!-- Node3&#45;&gt;Node2 -->
<g id="edge2_Node000002_Node000003" class="edge">
<title>Node3&#45;&gt;Node2</title>
<g id="a_edge2_Node000002_Node000003"><a xlink:title=" ">
<path fill="none" stroke="#63b8ff" d="M41,-99.66C41,-90.93 41,-80.99 41,-74.09"/>
<polygon fill="#63b8ff" stroke="#63b8ff" points="37.5,-99.75 41,-109.75 44.5,-99.75 37.5,-99.75"/>
</a>
</g>
</g>
<!-- Node4 -->
<g id="Node000004" class="node">
<title>Node4</title>
<g id="a_Node000004"><a xlink:href="classAsyncJob.html" target="_top" xlink:title=" ">
<polygon fill="white" stroke="#666666" points="71.5,-184 10.5,-184 10.5,-165 71.5,-165 71.5,-184"/>
<text text-anchor="middle" x="41" y="-172" font-family="Helvetica,sans-Serif" font-size="10.00">AsyncJob</text>
</a>
</g>
</g>
<!-- Node4&#45;&gt;Node3 -->
<g id="edge3_Node000003_Node000004" class="edge">
<title>Node4&#45;&gt;Node3</title>
<g id="a_edge3_Node000003_Node000004"><a xlink:title=" ">
<path fill="none" stroke="#63b8ff" d="M41,-154.66C41,-145.93 41,-135.99 41,-129.09"/>
<polygon fill="#63b8ff" stroke="#63b8ff" points="37.5,-154.75 41,-164.75 44.5,-154.75 37.5,-154.75"/>
</a>
</g>
</g>
<!-- Node5 -->
<g id="Node000005" class="node">
<title>Node5</title>
<g id="a_Node000005"><a xlink:href="classCbdataParent.html" target="_top" xlink:title=" ">
<polygon fill="white" stroke="#666666" points="82,-239 0,-239 0,-220 82,-220 82,-239"/>
<text text-anchor="middle" x="41" y="-227" font-family="Helvetica,sans-Serif" font-size="10.00">CbdataParent</text>
</a>
</g>
</g>
<!-- Node5&#45;&gt;Node4 -->
<g id="edge4_Node000004_Node000005" class="edge">
<title>Node5&#45;&gt;Node4</title>
<g id="a_edge4_Node000004_Node000005"><a xlink:title=" ">
<path fill="none" stroke="#63b8ff" d="M41,-209.66C41,-200.93 41,-190.99 41,-184.09"/>
<polygon fill="#63b8ff" stroke="#63b8ff" points="37.5,-209.75 41,-219.75 44.5,-209.75 37.5,-209.75"/>
</a>
</g>
</g>
</g>
</svg>
</svg>

<style type='text/css'>
<![CDATA[
[data-mouse-over-selected='false'] { opacity: 0.7; }
[data-mouse-over-selected='true']  { opacity: 1.0; }
]]>
</style>
<script type="application/ecmascript"><![CDATA[
document.addEventListener('DOMContentLoaded', (event) => {
  highlightEdges();
  highlightAdjacentNodes();
});
]]></script>
</svg>
