<?xml version="1.0" encoding="UTF-8" standalone="no"?>
<!DOCTYPE svg PUBLIC "-//W3C//DTD SVG 1.1//EN"
 "http://www.w3.org/Graphics/SVG/1.1/DTD/svg11.dtd">
<!-- Generated by graphviz version 2.43.0 (0)
 -->
<!-- Title: ACLMaxConnection Pages: 1 -->
<svg width="373pt" height="432pt"
 viewBox="0.00 0.00 372.50 432.00" xmlns="http://www.w3.org/2000/svg" xmlns:xlink="http://www.w3.org/1999/xlink">

<svg id="main" version="1.1" xmlns="http://www.w3.org/2000/svg" xmlns:xlink="http://www.w3.org/1999/xlink" xml:space="preserve" onload="init(evt)">
<style type="text/css"><![CDATA[
.node, .edge {opacity: 0.7;}
.node.selected, .edge.selected {opacity: 1;}
.edge:hover path { stroke: red; }
.edge:hover polygon { stroke: red; fill: red; }
]]></style>
<script type="application/ecmascript" xlink:href="svg.min.js"/>
<svg id="graph" class="graph">
<g id="graph0" class="graph" transform="scale(1 1) rotate(0) translate(4 428)">
<title>ACLMaxConnection</title>
<!-- Node1 -->
<g id="Node000001" class="node">
<title>Node1</title>
<g id="a_Node000001"><a xlink:title=" ">
<polygon fill="#999999" stroke="#666666" points="111,-19 0,-19 0,0 111,0 111,-19"/>
<text text-anchor="middle" x="55.5" y="-7" font-family="Helvetica,sans-Serif" font-size="10.00">ACLMaxConnection</text>
</a>
</g>
</g>
<!-- Node2 -->
<g id="Node000002" class="node">
<title>Node2</title>
<g id="a_Node000002"><a xlink:href="classAcl_1_1Node.html" target="_top" xlink:title=" ">
<polygon fill="white" stroke="#666666" points="87,-75 24,-75 24,-56 87,-56 87,-75"/>
<text text-anchor="middle" x="55.5" y="-63" font-family="Helvetica,sans-Serif" font-size="10.00">Acl::Node</text>
</a>
</g>
</g>
<!-- Node2&#45;&gt;Node1 -->
<g id="edge1_Node000001_Node000002" class="edge">
<title>Node2&#45;&gt;Node1</title>
<g id="a_edge1_Node000001_Node000002"><a xlink:title=" ">
<path fill="none" stroke="#63b8ff" d="M55.5,-45.3C55.5,-36.41 55.5,-26.28 55.5,-19.25"/>
<polygon fill="#63b8ff" stroke="#63b8ff" points="52,-45.58 55.5,-55.58 59,-45.58 52,-45.58"/>
</a>
</g>
</g>
<!-- Node3 -->
<g id="Node000003" class="node">
<title>Node3</title>
<g id="a_Node000003"><a xlink:title=" ">
<polygon fill="white" stroke="#666666" points="102,-347 19,-347 19,-328 102,-328 102,-347"/>
<text text-anchor="middle" x="60.5" y="-335" font-family="Helvetica,sans-Serif" font-size="10.00">RefCountable</text>
</a>
</g>
</g>
<!-- Node3&#45;&gt;Node2 -->
<g id="edge2_Node000002_Node000003" class="edge">
<title>Node3&#45;&gt;Node2</title>
<g id="a_edge2_Node000002_Node000003"><a xlink:title=" ">
<path fill="none" stroke="#63b8ff" d="M52.08,-318.29C46.24,-303.98 39.5,-283.38 39.5,-264.5 39.5,-264.5 39.5,-264.5 39.5,-130.5 39.5,-110.11 47.24,-87.14 51.95,-75.03"/>
<polygon fill="#63b8ff" stroke="#63b8ff" points="49.05,-320.1 56.25,-327.87 55.47,-317.3 49.05,-320.1"/>
</a>
</g>
</g>
<!-- Node8 -->
<g id="Node000008" class="node">
<title>Node8</title>
<g id="a_Node000008"><a xlink:href="classMemBlob.html" target="_top" xlink:title=" ">
<polygon fill="white" stroke="#666666" points="241,-273 178,-273 178,-254 241,-254 241,-273"/>
<text text-anchor="middle" x="209.5" y="-261" font-family="Helvetica,sans-Serif" font-size="10.00">MemBlob</text>
</a>
</g>
</g>
<!-- Node3&#45;&gt;Node8 -->
<g id="edge8_Node000008_Node000003" class="edge">
<title>Node3&#45;&gt;Node8</title>
<g id="a_edge8_Node000008_Node000003"><a xlink:title=" ">
<path fill="none" stroke="#63b8ff" d="M87.32,-323.54C117.59,-308.91 165.98,-285.53 191.85,-273.03"/>
<polygon fill="#63b8ff" stroke="#63b8ff" points="85.66,-320.46 78.18,-327.96 88.7,-326.76 85.66,-320.46"/>
</a>
</g>
</g>
<!-- Node4 -->
<g id="Node000004" class="node">
<title>Node4</title>
<g id="a_Node000004"><a xlink:href="classSBuf.html" target="_top" xlink:title=" ">
<polygon fill="white" stroke="#666666" points="240,-141 201,-141 201,-122 240,-122 240,-141"/>
<text text-anchor="middle" x="220.5" y="-129" font-family="Helvetica,sans-Serif" font-size="10.00">SBuf</text>
</a>
</g>
</g>
<!-- Node4&#45;&gt;Node2 -->
<g id="edge3_Node000002_Node000004" class="edge">
<title>Node4&#45;&gt;Node2</title>
<g id="a_edge3_Node000002_Node000004"><a xlink:title=" ">
<path fill="none" stroke="#9a32cd" stroke-dasharray="5,2" d="M191.52,-119.26C159.03,-106.66 107.08,-86.51 77.67,-75.1"/>
<polygon fill="#9a32cd" stroke="#9a32cd" points="190.34,-122.55 200.92,-122.91 192.87,-116.03 190.34,-122.55"/>
</a>
</g>
<text text-anchor="middle" x="163" y="-96" font-family="Helvetica,sans-Serif" font-size="10.00" fill="grey"> name</text>
</g>
<!-- Node5 -->
<g id="Node000005" class="node">
<title>Node5</title>
<g id="a_Node000005"><a xlink:href="classInstanceId.html" target="_top" xlink:title=" ">
<polygon fill="white" stroke="#666666" points="364.5,-310 252.5,-310 252.5,-291 364.5,-291 364.5,-310"/>
<text text-anchor="middle" x="308.5" y="-298" font-family="Helvetica,sans-Serif" font-size="10.00">InstanceId&lt; SBuf &gt;</text>
</a>
</g>
</g>
<!-- Node5&#45;&gt;Node4 -->
<g id="edge4_Node000004_Node000005" class="edge">
<title>Node5&#45;&gt;Node4</title>
<g id="a_edge4_Node000004_Node000005"><a xlink:title=" ">
<path fill="none" stroke="#9a32cd" stroke-dasharray="5,2" d="M308.22,-280.68C307.26,-257.87 303.64,-218.69 290.5,-188 284.13,-173.13 280.74,-169.58 268.5,-159 260.15,-151.78 249.51,-145.66 240.37,-141.13"/>
<polygon fill="#9a32cd" stroke="#9a32cd" points="304.72,-280.82 308.5,-290.71 311.72,-280.62 304.72,-280.82"/>
</a>
</g>
<text text-anchor="middle" x="310" y="-228" font-family="Helvetica,sans-Serif" font-size="10.00" fill="grey"> id</text>
</g>
<!-- Node6 -->
<g id="Node000006" class="node">
<title>Node6</title>
<g id="a_Node000006"><a xlink:href="classInstanceId.html" target="_top" xlink:title=" ">
<polygon fill="white" stroke="#666666" points="313,-424 206,-424 206,-394 313,-394 313,-424"/>
<text text-anchor="start" x="214" y="-412" font-family="Helvetica,sans-Serif" font-size="10.00">InstanceId&lt; Class,</text>
<text text-anchor="middle" x="259.5" y="-401" font-family="Helvetica,sans-Serif" font-size="10.00"> ValueType &gt;</text>
</a>
</g>
</g>
<!-- Node6&#45;&gt;Node5 -->
<g id="edge5_Node000005_Node000006" class="edge">
<title>Node6&#45;&gt;Node5</title>
<g id="a_edge5_Node000005_Node000006"><a xlink:title=" ">
<path fill="none" stroke="orange" stroke-dasharray="5,2" d="M280.04,-385.97C282.44,-382.77 284.67,-379.4 286.5,-376 298.39,-353.91 304.62,-324.59 307.13,-310.21"/>
<polygon fill="orange" stroke="orange" points="277.13,-384 273.52,-393.96 282.55,-388.43 277.13,-384"/>
</a>
</g>
<text text-anchor="middle" x="316" y="-368" font-family="Helvetica,sans-Serif" font-size="10.00" fill="grey"> &lt; SBuf &gt;</text>
</g>
<!-- Node9 -->
<g id="Node000009" class="node">
<title>Node9</title>
<g id="a_Node000009"><a xlink:href="classInstanceId.html" target="_top" xlink:title=" ">
<polygon fill="white" stroke="#666666" points="277.5,-347 141.5,-347 141.5,-328 277.5,-328 277.5,-347"/>
<text text-anchor="middle" x="209.5" y="-335" font-family="Helvetica,sans-Serif" font-size="10.00">InstanceId&lt; MemBlob &gt;</text>
</a>
</g>
</g>
<!-- Node6&#45;&gt;Node9 -->
<g id="edge10_Node000009_Node000006" class="edge">
<title>Node6&#45;&gt;Node9</title>
<g id="a_edge10_Node000009_Node000006"><a xlink:title=" ">
<path fill="none" stroke="orange" stroke-dasharray="5,2" d="M223.13,-387.53C219.38,-384.12 216.03,-380.27 213.5,-376 208.3,-367.21 207.95,-355.21 208.47,-347.17"/>
<polygon fill="orange" stroke="orange" points="221.21,-390.48 231.23,-393.93 225.55,-384.98 221.21,-390.48"/>
</a>
</g>
<text text-anchor="middle" x="250" y="-368" font-family="Helvetica,sans-Serif" font-size="10.00" fill="grey"> &lt; MemBlob &gt;</text>
</g>
<!-- Node7 -->
<g id="Node000007" class="node">
<title>Node7</title>
<g id="a_Node000007"><a xlink:href="classRefCount.html" target="_top" xlink:title=" ">
<polygon fill="white" stroke="#666666" points="199,-207 68,-207 68,-188 199,-188 199,-207"/>
<text text-anchor="middle" x="133.5" y="-195" font-family="Helvetica,sans-Serif" font-size="10.00">RefCount&lt; MemBlob &gt;</text>
</a>
</g>
</g>
<!-- Node7&#45;&gt;Node4 -->
<g id="edge6_Node000004_Node000007" class="edge">
<title>Node7&#45;&gt;Node4</title>
<g id="a_edge6_Node000004_Node000007"><a xlink:title=" ">
<path fill="none" stroke="#9a32cd" stroke-dasharray="5,2" d="M153.44,-181.83C170.5,-169.28 194.49,-151.63 208.67,-141.2"/>
<polygon fill="#9a32cd" stroke="#9a32cd" points="151.21,-179.12 145.23,-187.87 155.36,-184.76 151.21,-179.12"/>
</a>
</g>
<text text-anchor="middle" x="198.5" y="-162" font-family="Helvetica,sans-Serif" font-size="10.00" fill="grey"> store_</text>
</g>
<!-- Node8&#45;&gt;Node7 -->
<g id="edge7_Node000007_Node000008" class="edge">
<title>Node8&#45;&gt;Node7</title>
<g id="a_edge7_Node000007_Node000008"><a xlink:title=" ">
<path fill="none" stroke="#9a32cd" stroke-dasharray="5,2" d="M201.75,-244.6C198.16,-237.83 193.37,-230.45 187.5,-225 179.16,-217.26 168.13,-211.3 158.22,-207.02"/>
<polygon fill="#9a32cd" stroke="#9a32cd" points="198.67,-246.28 206.14,-253.79 204.98,-243.26 198.67,-246.28"/>
</a>
</g>
<text text-anchor="middle" x="204" y="-228" font-family="Helvetica,sans-Serif" font-size="10.00" fill="grey"> p_</text>
</g>
<!-- Node9&#45;&gt;Node8 -->
<g id="edge9_Node000008_Node000009" class="edge">
<title>Node9&#45;&gt;Node8</title>
<g id="a_edge9_Node000008_Node000009"><a xlink:title=" ">
<path fill="none" stroke="#9a32cd" stroke-dasharray="5,2" d="M209.5,-317.66C209.5,-303.21 209.5,-283.96 209.5,-273.03"/>
<polygon fill="#9a32cd" stroke="#9a32cd" points="206,-317.96 209.5,-327.96 213,-317.96 206,-317.96"/>
</a>
</g>
<text text-anchor="middle" x="216" y="-298" font-family="Helvetica,sans-Serif" font-size="10.00" fill="grey"> id</text>
</g>
<!-- Node10 -->
<g id="Node000010" class="node">
<title>Node10</title>
<g id="a_Node000010"><a xlink:href="classRefCount.html" target="_top" xlink:title=" ">
<polygon fill="white" stroke="#666666" points="159,-273 68,-273 68,-254 159,-254 159,-273"/>
<text text-anchor="middle" x="113.5" y="-261" font-family="Helvetica,sans-Serif" font-size="10.00">RefCount&lt; C &gt;</text>
</a>
</g>
</g>
<!-- Node10&#45;&gt;Node7 -->
<g id="edge11_Node000007_Node000010" class="edge">
<title>Node10&#45;&gt;Node7</title>
<g id="a_edge11_Node000007_Node000010"><a xlink:title=" ">
<path fill="none" stroke="orange" stroke-dasharray="5,2" d="M111.85,-243.86C111.87,-237.72 112.5,-230.94 114.5,-225 116.74,-218.35 121.26,-211.92 125.34,-207.06"/>
<polygon fill="orange" stroke="orange" points="108.36,-244.09 112.33,-253.91 115.35,-243.76 108.36,-244.09"/>
</a>
</g>
<text text-anchor="middle" x="151" y="-228" font-family="Helvetica,sans-Serif" font-size="10.00" fill="grey"> &lt; MemBlob &gt;</text>
</g>
<!-- Node11 -->
<g id="Node000011" class="node">
<title>Node11</title>
<g id="a_Node000011"><a xlink:href="classSBufStats.html" target="_top" xlink:title=" ">
<polygon fill="white" stroke="#666666" points="281.5,-207 217.5,-207 217.5,-188 281.5,-188 281.5,-207"/>
<text text-anchor="middle" x="249.5" y="-195" font-family="Helvetica,sans-Serif" font-size="10.00">SBufStats</text>
</a>
</g>
</g>
<!-- Node11&#45;&gt;Node4 -->
<g id="edge12_Node000004_Node000011" class="edge">
<title>Node11&#45;&gt;Node4</title>
<g id="a_edge12_Node000004_Node000011"><a xlink:title=" ">
<path fill="none" stroke="#9a32cd" stroke-dasharray="5,2" d="M241.43,-178.68C235.93,-166.55 228.89,-151.01 224.54,-141.41"/>
<polygon fill="#9a32cd" stroke="#9a32cd" points="238.27,-180.2 245.59,-187.87 244.65,-177.32 238.27,-180.2"/>
</a>
</g>
<text text-anchor="middle" x="250.5" y="-162" font-family="Helvetica,sans-Serif" font-size="10.00" fill="grey"> stats</text>
</g>
</g>
</svg>
</svg>

<style type='text/css'>
<![CDATA[
[data-mouse-over-selected='false'] { opacity: 0.7; }
[data-mouse-over-selected='true']  { opacity: 1.0; }
]]>
</style>
<script type="application/ecmascript"><![CDATA[
document.addEventListener('DOMContentLoaded', (event) => {
  highlightEdges();
  highlightAdjacentNodes();
});
]]></script>
</svg>
