<?xml version="1.0" encoding="UTF-8" standalone="no"?>
<!DOCTYPE svg PUBLIC "-//W3C//DTD SVG 1.1//EN"
 "http://www.w3.org/Graphics/SVG/1.1/DTD/svg11.dtd">
<!-- Generated by graphviz version 2.43.0 (0)
 -->
<!-- Title: CodeContextGuard Pages: 1 -->
<svg width="267pt" height="225pt"
 viewBox="0.00 0.00 266.50 225.00" xmlns="http://www.w3.org/2000/svg" xmlns:xlink="http://www.w3.org/1999/xlink">
<g id="graph0" class="graph" transform="scale(1 1) rotate(0) translate(4 221)">
<title>CodeContextGuard</title>
<!-- Node1 -->
<g id="Node000001" class="node">
<title>Node1</title>
<g id="a_Node000001"><a xlink:title=" ">
<polygon fill="#999999" stroke="#666666" points="195,-19 86,-19 86,0 195,0 195,-19"/>
<text text-anchor="middle" x="140.5" y="-7" font-family="Helvetica,sans-Serif" font-size="10.00">CodeContextGuard</text>
</a>
</g>
</g>
<!-- Node2 -->
<g id="Node000002" class="node">
<title>Node2</title>
<g id="a_Node000002"><a xlink:href="classRefCount.html" target="_top" xlink:title=" ">
<polygon fill="white" stroke="#666666" points="214,-85 67,-85 67,-66 214,-66 214,-85"/>
<text text-anchor="middle" x="140.5" y="-73" font-family="Helvetica,sans-Serif" font-size="10.00">RefCount&lt; CodeContext &gt;</text>
</a>
</g>
</g>
<!-- Node2&#45;&gt;Node1 -->
<g id="edge1_Node000001_Node000002" class="edge">
<title>Node2&#45;&gt;Node1</title>
<g id="a_edge1_Node000001_Node000002"><a xlink:title=" ">
<path fill="none" stroke="#9a32cd" stroke-dasharray="5,2" d="M140.5,-55.58C140.5,-43.63 140.5,-28.72 140.5,-19.41"/>
<polygon fill="#9a32cd" stroke="#9a32cd" points="137,-55.87 140.5,-65.87 144,-55.87 137,-55.87"/>
</a>
</g>
<text text-anchor="middle" x="188.5" y="-40" font-family="Helvetica,sans-Serif" font-size="10.00" fill="grey"> savedCodeContext</text>
</g>
<!-- Node3 -->
<g id="Node000003" class="node">
<title>Node3</title>
<g id="a_Node000003"><a xlink:href="classCodeContext.html" target="_top" xlink:title=" ">
<polygon fill="white" stroke="#666666" points="128.5,-151 48.5,-151 48.5,-132 128.5,-132 128.5,-151"/>
<text text-anchor="middle" x="88.5" y="-139" font-family="Helvetica,sans-Serif" font-size="10.00">CodeContext</text>
</a>
</g>
</g>
<!-- Node3&#45;&gt;Node2 -->
<g id="edge2_Node000002_Node000003" class="edge">
<title>Node3&#45;&gt;Node2</title>
<g id="a_edge2_Node000002_Node000003"><a xlink:title=" ">
<path fill="none" stroke="#9a32cd" stroke-dasharray="5,2" d="M102.1,-123.77C112.07,-111.49 125.23,-95.3 133.26,-85.41"/>
<polygon fill="#9a32cd" stroke="#9a32cd" points="99.1,-121.9 95.51,-131.87 104.54,-126.31 99.1,-121.9"/>
</a>
</g>
<text text-anchor="middle" x="126" y="-106" font-family="Helvetica,sans-Serif" font-size="10.00" fill="grey"> p_</text>
</g>
<!-- Node4 -->
<g id="Node000004" class="node">
<title>Node4</title>
<g id="a_Node000004"><a xlink:title=" ">
<polygon fill="white" stroke="#666666" points="83,-217 0,-217 0,-198 83,-198 83,-217"/>
<text text-anchor="middle" x="41.5" y="-205" font-family="Helvetica,sans-Serif" font-size="10.00">RefCountable</text>
</a>
</g>
</g>
<!-- Node4&#45;&gt;Node3 -->
<g id="edge3_Node000003_Node000004" class="edge">
<title>Node4&#45;&gt;Node3</title>
<g id="a_edge3_Node000003_Node000004"><a xlink:title=" ">
<path fill="none" stroke="#63b8ff" d="M53.79,-189.77C62.8,-177.49 74.7,-161.3 81.96,-151.41"/>
<polygon fill="#63b8ff" stroke="#63b8ff" points="50.94,-187.74 47.84,-197.87 56.58,-191.88 50.94,-187.74"/>
</a>
</g>
</g>
<!-- Node5 -->
<g id="Node000005" class="node">
<title>Node5</title>
<g id="a_Node000005"><a xlink:href="classStopwatch.html" target="_top" xlink:title=" ">
<polygon fill="white" stroke="#666666" points="169.5,-217 101.5,-217 101.5,-198 169.5,-198 169.5,-217"/>
<text text-anchor="middle" x="135.5" y="-205" font-family="Helvetica,sans-Serif" font-size="10.00">Stopwatch</text>
</a>
</g>
</g>
<!-- Node5&#45;&gt;Node3 -->
<g id="edge4_Node000003_Node000005" class="edge">
<title>Node5&#45;&gt;Node3</title>
<g id="a_edge4_Node000003_Node000005"><a xlink:title=" ">
<path fill="none" stroke="#9a32cd" stroke-dasharray="5,2" d="M123.21,-189.77C114.2,-177.49 102.3,-161.3 95.04,-151.41"/>
<polygon fill="#9a32cd" stroke="#9a32cd" points="120.42,-191.88 129.16,-197.87 126.06,-187.74 120.42,-191.88"/>
</a>
</g>
<text text-anchor="middle" x="141.5" y="-172" font-family="Helvetica,sans-Serif" font-size="10.00" fill="grey"> busyTime</text>
</g>
<!-- Node6 -->
<g id="Node000006" class="node">
<title>Node6</title>
<g id="a_Node000006"><a xlink:href="classRefCount.html" target="_top" xlink:title=" ">
<polygon fill="white" stroke="#666666" points="238,-151 147,-151 147,-132 238,-132 238,-151"/>
<text text-anchor="middle" x="192.5" y="-139" font-family="Helvetica,sans-Serif" font-size="10.00">RefCount&lt; C &gt;</text>
</a>
</g>
</g>
<!-- Node6&#45;&gt;Node2 -->
<g id="edge5_Node000002_Node000006" class="edge">
<title>Node6&#45;&gt;Node2</title>
<g id="a_edge5_Node000002_Node000006"><a xlink:title=" ">
<path fill="none" stroke="orange" stroke-dasharray="5,2" d="M178.9,-123.77C168.93,-111.49 155.77,-95.3 147.74,-85.41"/>
<polygon fill="orange" stroke="orange" points="176.46,-126.31 185.49,-131.87 181.9,-121.9 176.46,-126.31"/>
</a>
</g>
<text text-anchor="middle" x="214" y="-106" font-family="Helvetica,sans-Serif" font-size="10.00" fill="grey"> &lt; CodeContext &gt;</text>
</g>
</g>
</svg>
