<?xml version="1.0" encoding="UTF-8" standalone="no"?>
<!DOCTYPE svg PUBLIC "-//W3C//DTD SVG 1.1//EN"
 "http://www.w3.org/Graphics/SVG/1.1/DTD/svg11.dtd">
<!-- Generated by graphviz version 2.43.0 (0)
 -->
<!-- Title: Server Pages: 1 -->
<svg width="198pt" height="302pt"
 viewBox="0.00 0.00 197.50 302.00" xmlns="http://www.w3.org/2000/svg" xmlns:xlink="http://www.w3.org/1999/xlink">

<svg id="main" version="1.1" xmlns="http://www.w3.org/2000/svg" xmlns:xlink="http://www.w3.org/1999/xlink" xml:space="preserve" onload="init(evt)">
<style type="text/css"><![CDATA[
.node, .edge {opacity: 0.7;}
.node.selected, .edge.selected {opacity: 1;}
.edge:hover path { stroke: red; }
.edge:hover polygon { stroke: red; fill: red; }
]]></style>
<script type="application/ecmascript" xlink:href="svg.min.js"/>
<svg id="graph" class="graph">
<g id="graph0" class="graph" transform="scale(1 1) rotate(0) translate(4 298)">
<title>Server</title>
<!-- Node1 -->
<g id="Node000001" class="node">
<title>Node1</title>
<g id="a_Node000001"><a xlink:title=" ">
<polygon fill="#999999" stroke="#666666" points="111,-129 63,-129 63,-110 111,-110 111,-129"/>
<text text-anchor="middle" x="87" y="-117" font-family="Helvetica,sans-Serif" font-size="10.00">Server</text>
</a>
</g>
</g>
<!-- Node5 -->
<g id="Node000005" class="node">
<title>Node5</title>
<g id="a_Node000005"><a xlink:href="classConnStateData.html" target="_top" xlink:title=" ">
<polygon fill="white" stroke="#666666" points="132,-74 42,-74 42,-55 132,-55 132,-74"/>
<text text-anchor="middle" x="87" y="-62" font-family="Helvetica,sans-Serif" font-size="10.00">ConnStateData</text>
</a>
</g>
</g>
<!-- Node1&#45;&gt;Node5 -->
<g id="edge5_Node000001_Node000005" class="edge">
<title>Node1&#45;&gt;Node5</title>
<g id="a_edge5_Node000001_Node000005"><a xlink:title=" ">
<path fill="none" stroke="#63b8ff" d="M87,-99.66C87,-90.93 87,-80.99 87,-74.09"/>
<polygon fill="#63b8ff" stroke="#63b8ff" points="83.5,-99.75 87,-109.75 90.5,-99.75 83.5,-99.75"/>
</a>
</g>
</g>
<!-- Node2 -->
<g id="Node000002" class="node">
<title>Node2</title>
<g id="a_Node000002"><a xlink:href="classAsyncJob.html" target="_top" xlink:title=" ">
<polygon fill="white" stroke="#666666" points="117.5,-239 56.5,-239 56.5,-220 117.5,-220 117.5,-239"/>
<text text-anchor="middle" x="87" y="-227" font-family="Helvetica,sans-Serif" font-size="10.00">AsyncJob</text>
</a>
</g>
</g>
<!-- Node2&#45;&gt;Node1 -->
<g id="edge1_Node000001_Node000002" class="edge">
<title>Node2&#45;&gt;Node1</title>
<g id="a_edge1_Node000001_Node000002"><a xlink:title=" ">
<path fill="none" stroke="#63b8ff" d="M78.94,-210.54C75.8,-202.58 72.57,-193 71,-184 67.52,-164.06 76.62,-141.15 82.48,-129.04"/>
<polygon fill="#63b8ff" stroke="#63b8ff" points="75.77,-212.03 82.89,-219.88 82.22,-209.31 75.77,-212.03"/>
</a>
</g>
</g>
<!-- Node4 -->
<g id="Node000004" class="node">
<title>Node4</title>
<g id="a_Node000004"><a xlink:href="classBodyProducer.html" target="_top" xlink:title=" ">
<polygon fill="white" stroke="#666666" points="164,-184 80,-184 80,-165 164,-165 164,-184"/>
<text text-anchor="middle" x="122" y="-172" font-family="Helvetica,sans-Serif" font-size="10.00">BodyProducer</text>
</a>
</g>
</g>
<!-- Node2&#45;&gt;Node4 -->
<g id="edge4_Node000004_Node000002" class="edge">
<title>Node2&#45;&gt;Node4</title>
<g id="a_edge4_Node000004_Node000002"><a xlink:title=" ">
<path fill="none" stroke="#63b8ff" d="M98.3,-211.39C104.32,-202.27 111.47,-191.45 116.33,-184.09"/>
<polygon fill="#63b8ff" stroke="#63b8ff" points="95.37,-209.47 92.78,-219.75 101.21,-213.33 95.37,-209.47"/>
</a>
</g>
</g>
<!-- Node3 -->
<g id="Node000003" class="node">
<title>Node3</title>
<g id="a_Node000003"><a xlink:href="classCbdataParent.html" target="_top" xlink:title=" ">
<polygon fill="white" stroke="#666666" points="128,-294 46,-294 46,-275 128,-275 128,-294"/>
<text text-anchor="middle" x="87" y="-282" font-family="Helvetica,sans-Serif" font-size="10.00">CbdataParent</text>
</a>
</g>
</g>
<!-- Node3&#45;&gt;Node2 -->
<g id="edge2_Node000002_Node000003" class="edge">
<title>Node3&#45;&gt;Node2</title>
<g id="a_edge2_Node000002_Node000003"><a xlink:title=" ">
<path fill="none" stroke="#63b8ff" d="M87,-264.66C87,-255.93 87,-245.99 87,-239.09"/>
<polygon fill="#63b8ff" stroke="#63b8ff" points="83.5,-264.75 87,-274.75 90.5,-264.75 83.5,-264.75"/>
</a>
</g>
</g>
<!-- Node4&#45;&gt;Node1 -->
<g id="edge3_Node000001_Node000004" class="edge">
<title>Node4&#45;&gt;Node1</title>
<g id="a_edge3_Node000001_Node000004"><a xlink:title=" ">
<path fill="none" stroke="#63b8ff" d="M110.7,-156.39C104.68,-147.27 97.53,-136.45 92.67,-129.09"/>
<polygon fill="#63b8ff" stroke="#63b8ff" points="107.79,-158.33 116.22,-164.75 113.63,-154.47 107.79,-158.33"/>
</a>
</g>
</g>
<!-- Node6 -->
<g id="Node000006" class="node">
<title>Node6</title>
<g id="a_Node000006"><a xlink:href="classFtp_1_1Server.html" target="_top" xlink:title="Manages a control connection from an FTP client.">
<polygon fill="white" stroke="#666666" points="70,-19 0,-19 0,0 70,0 70,-19"/>
<text text-anchor="middle" x="35" y="-7" font-family="Helvetica,sans-Serif" font-size="10.00">Ftp::Server</text>
</a>
</g>
</g>
<!-- Node5&#45;&gt;Node6 -->
<g id="edge6_Node000005_Node000006" class="edge">
<title>Node5&#45;&gt;Node6</title>
<g id="a_edge6_Node000005_Node000006"><a xlink:title=" ">
<path fill="none" stroke="#63b8ff" d="M71.32,-47.52C62.16,-38.18 50.95,-26.75 43.43,-19.09"/>
<polygon fill="#63b8ff" stroke="#63b8ff" points="68.91,-50.06 78.41,-54.75 73.91,-45.16 68.91,-50.06"/>
</a>
</g>
</g>
<!-- Node7 -->
<g id="Node000007" class="node">
<title>Node7</title>
<g id="a_Node000007"><a xlink:href="classHttp_1_1One_1_1Server.html" target="_top" xlink:title="Manages a connection from an HTTP/1 or HTTP/0.9 client.">
<polygon fill="white" stroke="#666666" points="189.5,-19 88.5,-19 88.5,0 189.5,0 189.5,-19"/>
<text text-anchor="middle" x="139" y="-7" font-family="Helvetica,sans-Serif" font-size="10.00">Http::One::Server</text>
</a>
</g>
</g>
<!-- Node5&#45;&gt;Node7 -->
<g id="edge7_Node000005_Node000007" class="edge">
<title>Node5&#45;&gt;Node7</title>
<g id="a_edge7_Node000005_Node000007"><a xlink:title=" ">
<path fill="none" stroke="#63b8ff" d="M102.68,-47.52C111.84,-38.18 123.05,-26.75 130.57,-19.09"/>
<polygon fill="#63b8ff" stroke="#63b8ff" points="100.09,-45.16 95.59,-54.75 105.09,-50.06 100.09,-45.16"/>
</a>
</g>
</g>
</g>
</svg>
</svg>

<style type='text/css'>
<![CDATA[
[data-mouse-over-selected='false'] { opacity: 0.7; }
[data-mouse-over-selected='true']  { opacity: 1.0; }
]]>
</style>
<script type="application/ecmascript"><![CDATA[
document.addEventListener('DOMContentLoaded', (event) => {
  highlightEdges();
  highlightAdjacentNodes();
});
]]></script>
</svg>
