<?xml version="1.0" encoding="UTF-8" standalone="no"?>
<!DOCTYPE svg PUBLIC "-//W3C//DTD SVG 1.1//EN"
 "http://www.w3.org/Graphics/SVG/1.1/DTD/svg11.dtd">
<!-- Generated by graphviz version 2.43.0 (0)
 -->
<!-- Title: HttpHdrRange Pages: 1 -->
<svg width="281pt" height="236pt"
 viewBox="0.00 0.00 280.50 236.00" xmlns="http://www.w3.org/2000/svg" xmlns:xlink="http://www.w3.org/1999/xlink">
<g id="graph0" class="graph" transform="scale(1 1) rotate(0) translate(4 232)">
<title>HttpHdrRange</title>
<!-- Node1 -->
<g id="Node000001" class="node">
<title>Node1</title>
<g id="a_Node000001"><a xlink:title=" ">
<polygon fill="#999999" stroke="#666666" points="145.5,-19 59.5,-19 59.5,0 145.5,0 145.5,-19"/>
<text text-anchor="middle" x="102.5" y="-7" font-family="Helvetica,sans-Serif" font-size="10.00">HttpHdrRange</text>
</a>
</g>
</g>
<!-- Node2 -->
<g id="Node000002" class="node">
<title>Node2</title>
<g id="a_Node000002"><a xlink:title=" ">
<polygon fill="white" stroke="#666666" points="177,-96 28,-96 28,-66 177,-66 177,-96"/>
<text text-anchor="start" x="36" y="-84" font-family="Helvetica,sans-Serif" font-size="10.00">std::vector&lt; HttpHdrRange</text>
<text text-anchor="middle" x="102.5" y="-73" font-family="Helvetica,sans-Serif" font-size="10.00">Spec * &gt;</text>
</a>
</g>
</g>
<!-- Node2&#45;&gt;Node1 -->
<g id="edge1_Node000001_Node000002" class="edge">
<title>Node2&#45;&gt;Node1</title>
<g id="a_edge1_Node000001_Node000002"><a xlink:title=" ">
<path fill="none" stroke="#9a32cd" stroke-dasharray="5,2" d="M102.5,-55.56C102.5,-42.95 102.5,-28.35 102.5,-19.27"/>
<polygon fill="#9a32cd" stroke="#9a32cd" points="99,-55.94 102.5,-65.94 106,-55.94 99,-55.94"/>
</a>
</g>
<text text-anchor="middle" x="118" y="-40" font-family="Helvetica,sans-Serif" font-size="10.00" fill="grey"> specs</text>
</g>
<!-- Node3 -->
<g id="Node000003" class="node">
<title>Node3</title>
<g id="a_Node000003"><a xlink:href="classHttpHdrRangeSpec.html" target="_top" xlink:title=" ">
<polygon fill="white" stroke="#666666" points="109,-162 0,-162 0,-143 109,-143 109,-162"/>
<text text-anchor="middle" x="54.5" y="-150" font-family="Helvetica,sans-Serif" font-size="10.00">HttpHdrRangeSpec</text>
</a>
</g>
</g>
<!-- Node3&#45;&gt;Node2 -->
<g id="edge2_Node000002_Node000003" class="edge">
<title>Node3&#45;&gt;Node2</title>
<g id="a_edge2_Node000002_Node000003"><a xlink:title=" ">
<path fill="none" stroke="#9a32cd" stroke-dasharray="5,2" d="M65.81,-134.26C70.05,-127.87 74.95,-120.57 79.5,-114 83.55,-108.15 88.11,-101.77 92.09,-96.26"/>
<polygon fill="#9a32cd" stroke="#9a32cd" points="62.76,-132.53 60.17,-142.8 68.6,-136.38 62.76,-132.53"/>
</a>
</g>
<text text-anchor="middle" x="104" y="-117" font-family="Helvetica,sans-Serif" font-size="10.00" fill="grey"> elements</text>
</g>
<!-- Node4 -->
<g id="Node000004" class="node">
<title>Node4</title>
<g id="a_Node000004"><a xlink:title=" ">
<polygon fill="white" stroke="#666666" points="224,-162 127,-162 127,-143 224,-143 224,-162"/>
<text text-anchor="middle" x="175.5" y="-150" font-family="Helvetica,sans-Serif" font-size="10.00">std::vector&lt; T &gt;</text>
</a>
</g>
</g>
<!-- Node4&#45;&gt;Node2 -->
<g id="edge3_Node000002_Node000004" class="edge">
<title>Node4&#45;&gt;Node2</title>
<g id="a_edge3_Node000002_Node000004"><a xlink:title=" ">
<path fill="none" stroke="orange" stroke-dasharray="5,2" d="M159.08,-135.87C146.56,-123.95 129.46,-107.67 117.35,-96.14"/>
<polygon fill="orange" stroke="orange" points="156.89,-138.62 166.55,-142.98 161.72,-133.55 156.89,-138.62"/>
</a>
</g>
<text text-anchor="middle" x="209" y="-117" font-family="Helvetica,sans-Serif" font-size="10.00" fill="grey"> &lt; HttpHdrRangeSpec * &gt;</text>
</g>
<!-- Node5 -->
<g id="Node000005" class="node">
<title>Node5</title>
<g id="a_Node000005"><a xlink:title=" ">
<polygon fill="white" stroke="#666666" points="190,-228 161,-228 161,-209 190,-209 190,-228"/>
<text text-anchor="middle" x="175.5" y="-216" font-family="Helvetica,sans-Serif" font-size="10.00">T</text>
</a>
</g>
</g>
<!-- Node5&#45;&gt;Node4 -->
<g id="edge4_Node000004_Node000005" class="edge">
<title>Node5&#45;&gt;Node4</title>
<g id="a_edge4_Node000004_Node000005"><a xlink:title=" ">
<path fill="none" stroke="#9a32cd" stroke-dasharray="5,2" d="M175.5,-198.58C175.5,-186.63 175.5,-171.72 175.5,-162.41"/>
<polygon fill="#9a32cd" stroke="#9a32cd" points="172,-198.87 175.5,-208.87 179,-198.87 172,-198.87"/>
</a>
</g>
<text text-anchor="middle" x="200" y="-183" font-family="Helvetica,sans-Serif" font-size="10.00" fill="grey"> elements</text>
</g>
</g>
</svg>
