<?xml version="1.0" encoding="UTF-8" standalone="no"?>
<!DOCTYPE svg PUBLIC "-//W3C//DTD SVG 1.1//EN"
 "http://www.w3.org/Graphics/SVG/1.1/DTD/svg11.dtd">
<!-- Generated by graphviz version 2.43.0 (0)
 -->
<!-- Title: Adaptation::Icap::TrailerParser Pages: 1 -->
<svg width="445pt" height="629pt"
 viewBox="0.00 0.00 445.00 629.00" xmlns="http://www.w3.org/2000/svg" xmlns:xlink="http://www.w3.org/1999/xlink">
<g id="graph0" class="graph" transform="scale(1 1) rotate(0) translate(4 625)">
<title>Adaptation::Icap::TrailerParser</title>
<!-- Node1 -->
<g id="Node000001" class="node">
<title>Node1</title>
<g id="a_Node000001"><a xlink:title="Parses and stores ICAP trailer header block.">
<polygon fill="#999999" stroke="#666666" points="308,-30 176,-30 176,0 308,0 308,-30"/>
<text text-anchor="start" x="184" y="-18" font-family="Helvetica,sans-Serif" font-size="10.00">Adaptation::Icap::Trailer</text>
<text text-anchor="middle" x="242" y="-7" font-family="Helvetica,sans-Serif" font-size="10.00">Parser</text>
</a>
</g>
</g>
<!-- Node2 -->
<g id="Node000002" class="node">
<title>Node2</title>
<g id="a_Node000002"><a xlink:href="classHttpHeader.html" target="_top" xlink:title=" ">
<polygon fill="white" stroke="#666666" points="278.5,-96 205.5,-96 205.5,-77 278.5,-77 278.5,-96"/>
<text text-anchor="middle" x="242" y="-84" font-family="Helvetica,sans-Serif" font-size="10.00">HttpHeader</text>
</a>
</g>
</g>
<!-- Node2&#45;&gt;Node1 -->
<g id="edge1_Node000001_Node000002" class="edge">
<title>Node2&#45;&gt;Node1</title>
<g id="a_edge1_Node000001_Node000002"><a xlink:title=" ">
<path fill="none" stroke="#9a32cd" stroke-dasharray="5,2" d="M242,-66.71C242,-55.19 242,-40.68 242,-30.14"/>
<polygon fill="#9a32cd" stroke="#9a32cd" points="238.5,-66.98 242,-76.98 245.5,-66.98 238.5,-66.98"/>
</a>
</g>
<text text-anchor="middle" x="258.5" y="-51" font-family="Helvetica,sans-Serif" font-size="10.00" fill="grey"> trailer</text>
</g>
<!-- Node3 -->
<g id="Node000003" class="node">
<title>Node3</title>
<g id="a_Node000003"><a xlink:title=" ">
<polygon fill="white" stroke="#666666" points="331,-184 153,-184 153,-143 331,-143 331,-184"/>
<text text-anchor="start" x="161" y="-172" font-family="Helvetica,sans-Serif" font-size="10.00">std::vector&lt; HttpHeaderEntry</text>
<text text-anchor="start" x="161" y="-161" font-family="Helvetica,sans-Serif" font-size="10.00"> *, PoolingAllocator&lt; HttpHeader</text>
<text text-anchor="middle" x="242" y="-150" font-family="Helvetica,sans-Serif" font-size="10.00">Entry * &gt; &gt;</text>
</a>
</g>
</g>
<!-- Node3&#45;&gt;Node2 -->
<g id="edge2_Node000002_Node000003" class="edge">
<title>Node3&#45;&gt;Node2</title>
<g id="a_edge2_Node000002_Node000003"><a xlink:title=" ">
<path fill="none" stroke="#9a32cd" stroke-dasharray="5,2" d="M242,-132.7C242,-119.59 242,-105.18 242,-96.24"/>
<polygon fill="#9a32cd" stroke="#9a32cd" points="238.5,-132.79 242,-142.79 245.5,-132.79 238.5,-132.79"/>
</a>
</g>
<text text-anchor="middle" x="260.5" y="-117" font-family="Helvetica,sans-Serif" font-size="10.00" fill="grey"> entries</text>
</g>
<!-- Node4 -->
<g id="Node000004" class="node">
<title>Node4</title>
<g id="a_Node000004"><a xlink:href="classHttpHeaderEntry.html" target="_top" xlink:title=" ">
<polygon fill="white" stroke="#666666" points="233,-272 135,-272 135,-253 233,-253 233,-272"/>
<text text-anchor="middle" x="184" y="-260" font-family="Helvetica,sans-Serif" font-size="10.00">HttpHeaderEntry</text>
</a>
</g>
</g>
<!-- Node4&#45;&gt;Node3 -->
<g id="edge3_Node000003_Node000004" class="edge">
<title>Node4&#45;&gt;Node3</title>
<g id="a_edge3_Node000003_Node000004"><a xlink:title=" ">
<path fill="none" stroke="#9a32cd" stroke-dasharray="5,2" d="M193.67,-244.05C200.35,-232.12 209.53,-216 218,-202 221.52,-196.18 225.46,-189.93 229.11,-184.23"/>
<polygon fill="#9a32cd" stroke="#9a32cd" points="190.52,-242.51 188.71,-252.95 196.63,-245.92 190.52,-242.51"/>
</a>
</g>
<text text-anchor="middle" x="242.5" y="-216" font-family="Helvetica,sans-Serif" font-size="10.00" fill="grey"> elements</text>
</g>
<!-- Node5 -->
<g id="Node000005" class="node">
<title>Node5</title>
<g id="a_Node000005"><a xlink:href="classSBuf.html" target="_top" xlink:title=" ">
<polygon fill="white" stroke="#666666" points="170.5,-338 131.5,-338 131.5,-319 170.5,-319 170.5,-338"/>
<text text-anchor="middle" x="151" y="-326" font-family="Helvetica,sans-Serif" font-size="10.00">SBuf</text>
</a>
</g>
</g>
<!-- Node5&#45;&gt;Node4 -->
<g id="edge4_Node000004_Node000005" class="edge">
<title>Node5&#45;&gt;Node4</title>
<g id="a_edge4_Node000004_Node000005"><a xlink:title=" ">
<path fill="none" stroke="#9a32cd" stroke-dasharray="5,2" d="M154.27,-308.61C155.79,-302.45 157.96,-295.73 161,-290 164.54,-283.33 170.05,-276.9 174.78,-272.05"/>
<polygon fill="#9a32cd" stroke="#9a32cd" points="150.77,-308.25 152.18,-318.75 157.63,-309.66 150.77,-308.25"/>
</a>
</g>
<text text-anchor="middle" x="176.5" y="-293" font-family="Helvetica,sans-Serif" font-size="10.00" fill="grey"> name</text>
</g>
<!-- Node6 -->
<g id="Node000006" class="node">
<title>Node6</title>
<g id="a_Node000006"><a xlink:href="classInstanceId.html" target="_top" xlink:title=" ">
<polygon fill="white" stroke="#666666" points="112,-507 0,-507 0,-488 112,-488 112,-507"/>
<text text-anchor="middle" x="56" y="-495" font-family="Helvetica,sans-Serif" font-size="10.00">InstanceId&lt; SBuf &gt;</text>
</a>
</g>
</g>
<!-- Node6&#45;&gt;Node5 -->
<g id="edge5_Node000005_Node000006" class="edge">
<title>Node6&#45;&gt;Node5</title>
<g id="a_edge5_Node000005_Node000006"><a xlink:title=" ">
<path fill="none" stroke="#9a32cd" stroke-dasharray="5,2" d="M55.28,-477.63C55.26,-454.17 58.16,-413.73 76,-385 89.5,-363.26 114.9,-347.21 132.38,-338.11"/>
<polygon fill="#9a32cd" stroke="#9a32cd" points="51.79,-477.99 55.49,-487.92 58.79,-477.86 51.79,-477.99"/>
</a>
</g>
<text text-anchor="middle" x="68.5" y="-425" font-family="Helvetica,sans-Serif" font-size="10.00" fill="grey"> id</text>
</g>
<!-- Node7 -->
<g id="Node000007" class="node">
<title>Node7</title>
<g id="a_Node000007"><a xlink:href="classInstanceId.html" target="_top" xlink:title=" ">
<polygon fill="white" stroke="#666666" points="144.5,-621 37.5,-621 37.5,-591 144.5,-591 144.5,-621"/>
<text text-anchor="start" x="45.5" y="-609" font-family="Helvetica,sans-Serif" font-size="10.00">InstanceId&lt; Class,</text>
<text text-anchor="middle" x="91" y="-598" font-family="Helvetica,sans-Serif" font-size="10.00"> ValueType &gt;</text>
</a>
</g>
</g>
<!-- Node7&#45;&gt;Node6 -->
<g id="edge6_Node000006_Node000007" class="edge">
<title>Node7&#45;&gt;Node6</title>
<g id="a_edge6_Node000006_Node000007"><a xlink:title=" ">
<path fill="none" stroke="orange" stroke-dasharray="5,2" d="M72.17,-582.69C70.17,-579.58 68.38,-576.3 67,-573 57.64,-550.55 56.08,-521.4 55.92,-507.13"/>
<polygon fill="orange" stroke="orange" points="69.43,-584.89 78.1,-590.97 75.12,-580.81 69.43,-584.89"/>
</a>
</g>
<text text-anchor="middle" x="91.5" y="-565" font-family="Helvetica,sans-Serif" font-size="10.00" fill="grey"> &lt; SBuf &gt;</text>
</g>
<!-- Node11 -->
<g id="Node000011" class="node">
<title>Node11</title>
<g id="a_Node000011"><a xlink:href="classInstanceId.html" target="_top" xlink:title=" ">
<polygon fill="white" stroke="#666666" points="219,-544 83,-544 83,-525 219,-525 219,-544"/>
<text text-anchor="middle" x="151" y="-532" font-family="Helvetica,sans-Serif" font-size="10.00">InstanceId&lt; MemBlob &gt;</text>
</a>
</g>
</g>
<!-- Node7&#45;&gt;Node11 -->
<g id="edge11_Node000011_Node000007" class="edge">
<title>Node7&#45;&gt;Node11</title>
<g id="a_edge11_Node000011_Node000007"><a xlink:title=" ">
<path fill="none" stroke="orange" stroke-dasharray="5,2" d="M109.82,-583.2C121.18,-570.04 135.04,-553.99 143.43,-544.27"/>
<polygon fill="orange" stroke="orange" points="107.03,-581.08 103.14,-590.94 112.33,-585.65 107.03,-581.08"/>
</a>
</g>
<text text-anchor="middle" x="163.5" y="-565" font-family="Helvetica,sans-Serif" font-size="10.00" fill="grey"> &lt; MemBlob &gt;</text>
</g>
<!-- Node8 -->
<g id="Node000008" class="node">
<title>Node8</title>
<g id="a_Node000008"><a xlink:href="classRefCount.html" target="_top" xlink:title=" ">
<polygon fill="white" stroke="#666666" points="216.5,-404 85.5,-404 85.5,-385 216.5,-385 216.5,-404"/>
<text text-anchor="middle" x="151" y="-392" font-family="Helvetica,sans-Serif" font-size="10.00">RefCount&lt; MemBlob &gt;</text>
</a>
</g>
</g>
<!-- Node8&#45;&gt;Node5 -->
<g id="edge7_Node000005_Node000008" class="edge">
<title>Node8&#45;&gt;Node5</title>
<g id="a_edge7_Node000005_Node000008"><a xlink:title=" ">
<path fill="none" stroke="#9a32cd" stroke-dasharray="5,2" d="M151,-374.58C151,-362.63 151,-347.72 151,-338.41"/>
<polygon fill="#9a32cd" stroke="#9a32cd" points="147.5,-374.87 151,-384.87 154.5,-374.87 147.5,-374.87"/>
</a>
</g>
<text text-anchor="middle" x="168" y="-359" font-family="Helvetica,sans-Serif" font-size="10.00" fill="grey"> store_</text>
</g>
<!-- Node9 -->
<g id="Node000009" class="node">
<title>Node9</title>
<g id="a_Node000009"><a xlink:href="classMemBlob.html" target="_top" xlink:title=" ">
<polygon fill="white" stroke="#666666" points="182.5,-470 119.5,-470 119.5,-451 182.5,-451 182.5,-470"/>
<text text-anchor="middle" x="151" y="-458" font-family="Helvetica,sans-Serif" font-size="10.00">MemBlob</text>
</a>
</g>
</g>
<!-- Node9&#45;&gt;Node8 -->
<g id="edge8_Node000008_Node000009" class="edge">
<title>Node9&#45;&gt;Node8</title>
<g id="a_edge8_Node000008_Node000009"><a xlink:title=" ">
<path fill="none" stroke="#9a32cd" stroke-dasharray="5,2" d="M151,-440.58C151,-428.63 151,-413.72 151,-404.41"/>
<polygon fill="#9a32cd" stroke="#9a32cd" points="147.5,-440.87 151,-450.87 154.5,-440.87 147.5,-440.87"/>
</a>
</g>
<text text-anchor="middle" x="158.5" y="-425" font-family="Helvetica,sans-Serif" font-size="10.00" fill="grey"> p_</text>
</g>
<!-- Node10 -->
<g id="Node000010" class="node">
<title>Node10</title>
<g id="a_Node000010"><a xlink:title=" ">
<polygon fill="white" stroke="#666666" points="320.5,-544 237.5,-544 237.5,-525 320.5,-525 320.5,-544"/>
<text text-anchor="middle" x="279" y="-532" font-family="Helvetica,sans-Serif" font-size="10.00">RefCountable</text>
</a>
</g>
</g>
<!-- Node10&#45;&gt;Node9 -->
<g id="edge9_Node000009_Node000010" class="edge">
<title>Node10&#45;&gt;Node9</title>
<g id="a_edge9_Node000009_Node000010"><a xlink:title=" ">
<path fill="none" stroke="#63b8ff" d="M254.94,-519.97C228.88,-505.31 188.1,-482.37 166.17,-470.03"/>
<polygon fill="#63b8ff" stroke="#63b8ff" points="253.38,-523.11 263.81,-524.96 256.81,-517 253.38,-523.11"/>
</a>
</g>
</g>
<!-- Node11&#45;&gt;Node9 -->
<g id="edge10_Node000009_Node000011" class="edge">
<title>Node11&#45;&gt;Node9</title>
<g id="a_edge10_Node000009_Node000011"><a xlink:title=" ">
<path fill="none" stroke="#9a32cd" stroke-dasharray="5,2" d="M151,-514.66C151,-500.21 151,-480.96 151,-470.03"/>
<polygon fill="#9a32cd" stroke="#9a32cd" points="147.5,-514.96 151,-524.96 154.5,-514.96 147.5,-514.96"/>
</a>
</g>
<text text-anchor="middle" x="157.5" y="-495" font-family="Helvetica,sans-Serif" font-size="10.00" fill="grey"> id</text>
</g>
<!-- Node12 -->
<g id="Node000012" class="node">
<title>Node12</title>
<g id="a_Node000012"><a xlink:href="classRefCount.html" target="_top" xlink:title=" ">
<polygon fill="white" stroke="#666666" points="291.5,-470 200.5,-470 200.5,-451 291.5,-451 291.5,-470"/>
<text text-anchor="middle" x="246" y="-458" font-family="Helvetica,sans-Serif" font-size="10.00">RefCount&lt; C &gt;</text>
</a>
</g>
</g>
<!-- Node12&#45;&gt;Node8 -->
<g id="edge12_Node000008_Node000012" class="edge">
<title>Node12&#45;&gt;Node8</title>
<g id="a_edge12_Node000008_Node000012"><a xlink:title=" ">
<path fill="none" stroke="orange" stroke-dasharray="5,2" d="M224.74,-445.18C206.08,-432.61 179.54,-414.73 163.91,-404.2"/>
<polygon fill="orange" stroke="orange" points="222.94,-448.18 233.19,-450.87 226.85,-442.38 222.94,-448.18"/>
</a>
</g>
<text text-anchor="middle" x="241.5" y="-425" font-family="Helvetica,sans-Serif" font-size="10.00" fill="grey"> &lt; MemBlob &gt;</text>
</g>
<!-- Node13 -->
<g id="Node000013" class="node">
<title>Node13</title>
<g id="a_Node000013"><a xlink:href="classSBufStats.html" target="_top" xlink:title=" ">
<polygon fill="white" stroke="#666666" points="299,-404 235,-404 235,-385 299,-385 299,-404"/>
<text text-anchor="middle" x="267" y="-392" font-family="Helvetica,sans-Serif" font-size="10.00">SBufStats</text>
</a>
</g>
</g>
<!-- Node13&#45;&gt;Node5 -->
<g id="edge13_Node000005_Node000013" class="edge">
<title>Node13&#45;&gt;Node5</title>
<g id="a_edge13_Node000005_Node000013"><a xlink:title=" ">
<path fill="none" stroke="#9a32cd" stroke-dasharray="5,2" d="M242.58,-380.03C219.73,-367.42 186.28,-348.97 166.77,-338.2"/>
<polygon fill="#9a32cd" stroke="#9a32cd" points="240.91,-383.1 251.36,-384.87 244.29,-376.97 240.91,-383.1"/>
</a>
</g>
<text text-anchor="middle" x="230" y="-359" font-family="Helvetica,sans-Serif" font-size="10.00" fill="grey"> stats</text>
</g>
<!-- Node14 -->
<g id="Node000014" class="node">
<title>Node14</title>
<g id="a_Node000014"><a xlink:href="classString.html" target="_top" xlink:title=" ">
<polygon fill="white" stroke="#666666" points="233.5,-338 188.5,-338 188.5,-319 233.5,-319 233.5,-338"/>
<text text-anchor="middle" x="211" y="-326" font-family="Helvetica,sans-Serif" font-size="10.00">String</text>
</a>
</g>
</g>
<!-- Node14&#45;&gt;Node4 -->
<g id="edge14_Node000004_Node000014" class="edge">
<title>Node14&#45;&gt;Node4</title>
<g id="a_edge14_Node000004_Node000014"><a xlink:title=" ">
<path fill="none" stroke="#9a32cd" stroke-dasharray="5,2" d="M203.33,-309.32C198.23,-297.24 191.77,-281.91 187.76,-272.41"/>
<polygon fill="#9a32cd" stroke="#9a32cd" points="200.25,-311.02 207.36,-318.87 206.7,-308.29 200.25,-311.02"/>
</a>
</g>
<text text-anchor="middle" x="215.5" y="-293" font-family="Helvetica,sans-Serif" font-size="10.00" fill="grey"> value</text>
</g>
<!-- Node15 -->
<g id="Node000015" class="node">
<title>Node15</title>
<g id="a_Node000015"><a xlink:title=" ">
<polygon fill="white" stroke="#666666" points="348.5,-272 251.5,-272 251.5,-253 348.5,-253 348.5,-272"/>
<text text-anchor="middle" x="300" y="-260" font-family="Helvetica,sans-Serif" font-size="10.00">std::vector&lt; T &gt;</text>
</a>
</g>
</g>
<!-- Node15&#45;&gt;Node3 -->
<g id="edge15_Node000003_Node000015" class="edge">
<title>Node15&#45;&gt;Node3</title>
<g id="a_edge15_Node000003_Node000015"><a xlink:title=" ">
<path fill="none" stroke="orange" stroke-dasharray="5,2" d="M290.77,-243.97C284.34,-232.01 275.45,-215.87 267,-202 263.42,-196.12 259.34,-189.85 255.54,-184.16"/>
<polygon fill="orange" stroke="orange" points="287.73,-245.72 295.52,-252.9 293.91,-242.43 287.73,-245.72"/>
</a>
</g>
<text text-anchor="start" x="286" y="-227" font-family="Helvetica,sans-Serif" font-size="10.00" fill="grey"> &lt; HttpHeaderEntry *,</text>
<text text-anchor="start" x="286" y="-216" font-family="Helvetica,sans-Serif" font-size="10.00" fill="grey"> PoolingAllocator&lt; HttpHeader</text>
<text text-anchor="middle" x="361.5" y="-205" font-family="Helvetica,sans-Serif" font-size="10.00" fill="grey">Entry * &gt; &gt;</text>
</g>
<!-- Node16 -->
<g id="Node000016" class="node">
<title>Node16</title>
<g id="a_Node000016"><a xlink:title=" ">
<polygon fill="white" stroke="#666666" points="314.5,-338 285.5,-338 285.5,-319 314.5,-319 314.5,-338"/>
<text text-anchor="middle" x="300" y="-326" font-family="Helvetica,sans-Serif" font-size="10.00">T</text>
</a>
</g>
</g>
<!-- Node16&#45;&gt;Node15 -->
<g id="edge16_Node000015_Node000016" class="edge">
<title>Node16&#45;&gt;Node15</title>
<g id="a_edge16_Node000015_Node000016"><a xlink:title=" ">
<path fill="none" stroke="#9a32cd" stroke-dasharray="5,2" d="M300,-308.58C300,-296.63 300,-281.72 300,-272.41"/>
<polygon fill="#9a32cd" stroke="#9a32cd" points="296.5,-308.87 300,-318.87 303.5,-308.87 296.5,-308.87"/>
</a>
</g>
<text text-anchor="middle" x="324.5" y="-293" font-family="Helvetica,sans-Serif" font-size="10.00" fill="grey"> elements</text>
</g>
</g>
</svg>
