<?xml version="1.0" encoding="UTF-8" standalone="no"?>
<!DOCTYPE svg PUBLIC "-//W3C//DTD SVG 1.1//EN"
 "http://www.w3.org/Graphics/SVG/1.1/DTD/svg11.dtd">
<!-- Generated by graphviz version 2.43.0 (0)
 -->
<!-- Title: Acl::LocalPortCheck Pages: 1 -->
<svg width="249pt" height="272pt"
 viewBox="0.00 0.00 249.00 272.00" xmlns="http://www.w3.org/2000/svg" xmlns:xlink="http://www.w3.org/1999/xlink">
<g id="graph0" class="graph" transform="scale(1 1) rotate(0) translate(4 268)">
<title>Acl::LocalPortCheck</title>
<!-- Node1 -->
<g id="Node000001" class="node">
<title>Node1</title>
<g id="a_Node000001"><a xlink:title="a &quot;localport&quot; ACL">
<polygon fill="#999999" stroke="#666666" points="123.5,-19 10.5,-19 10.5,0 123.5,0 123.5,-19"/>
<text text-anchor="middle" x="67" y="-7" font-family="Helvetica,sans-Serif" font-size="10.00">Acl::LocalPortCheck</text>
</a>
</g>
</g>
<!-- Node2 -->
<g id="Node000002" class="node">
<title>Node2</title>
<g id="a_Node000002"><a xlink:href="classAcl_1_1ParameterizedNode.html" target="_top" xlink:title=" ">
<polygon fill="white" stroke="#666666" points="134,-86 0,-86 0,-56 134,-56 134,-86"/>
<text text-anchor="start" x="8" y="-74" font-family="Helvetica,sans-Serif" font-size="10.00">Acl::ParameterizedNode</text>
<text text-anchor="middle" x="67" y="-63" font-family="Helvetica,sans-Serif" font-size="10.00">&lt; ACLData&lt; int &gt; &gt;</text>
</a>
</g>
</g>
<!-- Node2&#45;&gt;Node1 -->
<g id="edge1_Node000001_Node000002" class="edge">
<title>Node2&#45;&gt;Node1</title>
<g id="a_edge1_Node000001_Node000002"><a xlink:title=" ">
<path fill="none" stroke="#63b8ff" d="M67,-45.79C67,-36.36 67,-26.15 67,-19.16"/>
<polygon fill="#63b8ff" stroke="#63b8ff" points="63.5,-45.9 67,-55.9 70.5,-45.9 63.5,-45.9"/>
</a>
</g>
</g>
<!-- Node3 -->
<g id="Node000003" class="node">
<title>Node3</title>
<g id="a_Node000003"><a xlink:href="classAcl_1_1Node.html" target="_top" xlink:title=" ">
<polygon fill="white" stroke="#666666" points="94.5,-208 31.5,-208 31.5,-189 94.5,-189 94.5,-208"/>
<text text-anchor="middle" x="63" y="-196" font-family="Helvetica,sans-Serif" font-size="10.00">Acl::Node</text>
</a>
</g>
</g>
<!-- Node3&#45;&gt;Node2 -->
<g id="edge2_Node000002_Node000003" class="edge">
<title>Node3&#45;&gt;Node2</title>
<g id="a_edge2_Node000002_Node000003"><a xlink:title=" ">
<path fill="none" stroke="#63b8ff" d="M63.6,-178.76C64.4,-153.48 65.82,-109.02 66.55,-86.27"/>
<polygon fill="#63b8ff" stroke="#63b8ff" points="60.1,-178.77 63.27,-188.87 67.09,-178.99 60.1,-178.77"/>
</a>
</g>
</g>
<!-- Node5 -->
<g id="Node000005" class="node">
<title>Node5</title>
<g id="a_Node000005"><a xlink:href="classAcl_1_1ParameterizedNode.html" target="_top" xlink:title=" ">
<polygon fill="white" stroke="#666666" points="241,-152 79,-152 79,-133 241,-133 241,-152"/>
<text text-anchor="middle" x="160" y="-140" font-family="Helvetica,sans-Serif" font-size="10.00">Acl::ParameterizedNode&lt; P &gt;</text>
</a>
</g>
</g>
<!-- Node3&#45;&gt;Node5 -->
<g id="edge5_Node000005_Node000003" class="edge">
<title>Node3&#45;&gt;Node5</title>
<g id="a_edge5_Node000005_Node000003"><a xlink:title=" ">
<path fill="none" stroke="#63b8ff" d="M87.34,-183.95C105.24,-173.98 129.05,-160.73 144.45,-152.15"/>
<polygon fill="#63b8ff" stroke="#63b8ff" points="85.62,-180.9 78.58,-188.82 89.02,-187.02 85.62,-180.9"/>
</a>
</g>
</g>
<!-- Node4 -->
<g id="Node000004" class="node">
<title>Node4</title>
<g id="a_Node000004"><a xlink:title=" ">
<polygon fill="white" stroke="#666666" points="104.5,-264 21.5,-264 21.5,-245 104.5,-245 104.5,-264"/>
<text text-anchor="middle" x="63" y="-252" font-family="Helvetica,sans-Serif" font-size="10.00">RefCountable</text>
</a>
</g>
</g>
<!-- Node4&#45;&gt;Node3 -->
<g id="edge3_Node000003_Node000004" class="edge">
<title>Node4&#45;&gt;Node3</title>
<g id="a_edge3_Node000003_Node000004"><a xlink:title=" ">
<path fill="none" stroke="#63b8ff" d="M63,-234.3C63,-225.41 63,-215.28 63,-208.25"/>
<polygon fill="#63b8ff" stroke="#63b8ff" points="59.5,-234.58 63,-244.58 66.5,-234.58 59.5,-234.58"/>
</a>
</g>
</g>
<!-- Node5&#45;&gt;Node2 -->
<g id="edge4_Node000002_Node000005" class="edge">
<title>Node5&#45;&gt;Node2</title>
<g id="a_edge4_Node000002_Node000005"><a xlink:title=" ">
<path fill="none" stroke="orange" stroke-dasharray="5,2" d="M140.43,-126.88C124.38,-114.88 101.79,-98 85.92,-86.14"/>
<polygon fill="orange" stroke="orange" points="138.49,-129.8 148.6,-132.98 142.68,-124.19 138.49,-129.8"/>
</a>
</g>
<text text-anchor="middle" x="172.5" y="-107" font-family="Helvetica,sans-Serif" font-size="10.00" fill="grey"> &lt; ACLData&lt; int &gt; &gt;</text>
</g>
</g>
</svg>
