<?xml version="1.0" encoding="UTF-8" standalone="no"?>
<!DOCTYPE svg PUBLIC "-//W3C//DTD SVG 1.1//EN"
 "http://www.w3.org/Graphics/SVG/1.1/DTD/svg11.dtd">
<!-- Generated by graphviz version 2.43.0 (0)
 -->
<!-- Title: Acl::HasComponentCheck Pages: 1 -->
<!--zoomable 586 -->

<svg id="main" version="1.1" xmlns="http://www.w3.org/2000/svg" xmlns:xlink="http://www.w3.org/1999/xlink" xml:space="preserve" onload="init(evt)">
<style type="text/css"><![CDATA[
.node, .edge {opacity: 0.7;}
.node.selected, .edge.selected {opacity: 1;}
.edge:hover path { stroke: red; }
.edge:hover polygon { stroke: red; fill: red; }
]]></style>

<defs>
  <circle id="rim" cx="0" cy="0" r="7"/>
  <circle id="rim2" cx="0" cy="0" r="3.5"/>
  <g id="zoomPlus">
    <use xlink:href="#rim" fill="#404040"><set attributeName="fill" to="#808080" begin="zoomplus.mouseover" end="zoomplus.mouseout"/></use>
    <path d="M-4,0h8M0,-4v8" fill="none" stroke="white" stroke-width="1.5" pointer-events="none"/>
  </g>
  <g id="zoomMin">
    <use xlink:href="#rim" fill="#404040"><set attributeName="fill" to="#808080" begin="zoomminus.mouseover" end="zoomminus.mouseout"/></use>
    <path d="M-4,0h8" fill="none" stroke="white" stroke-width="1.5" pointer-events="none"/>
  </g>
  <g id="arrowUp" transform="translate(30 24)">
    <use xlink:href="#rim"/>
    <path pointer-events="none" fill="none" stroke="white" stroke-width="1.5" d="M0,-3.0v7 M-2.5,-0.5L0,-3.0L2.5,-0.5"/>
  </g>
  <g id="arrowRight" transform="rotate(90) translate(36 -43)">
    <use xlink:href="#rim"/>
    <path pointer-events="none" fill="none" stroke="white" stroke-width="1.5" d="M0,-3.0v7 M-2.5,-0.5L0,-3.0L2.5,-0.5"/>
  </g>
  <g id="arrowDown" transform="rotate(180) translate(-30 -48)">
    <use xlink:href="#rim"/>
    <path pointer-events="none" fill="none" stroke="white" stroke-width="1.5" d="M0,-3.0v7 M-2.5,-0.5L0,-3.0L2.5,-0.5"/>
  </g>
  <g id="arrowLeft" transform="rotate(270) translate(-36 17)">
    <use xlink:href="#rim"/>
    <path pointer-events="none" fill="none" stroke="white" stroke-width="1.5" d="M0,-3.0v7 M-2.5,-0.5L0,-3.0L2.5,-0.5"/>
  </g>
  <g id="resetDef">
    <use xlink:href="#rim2" fill="#404040"><set attributeName="fill" to="#808080" begin="reset.mouseover" end="reset.mouseout"/></use>
  </g>
</defs>
<script type="application/ecmascript">
var viewWidth = 535;
var viewHeight = 586;
var sectionId = 'dynsection-1';
</script>
<script type="application/ecmascript" xlink:href="svg.min.js"/>
<svg id="graph" class="graph">
<g id="viewport">
<title>Acl::HasComponentCheck</title>
<!-- Node1 -->
<g id="Node000001" class="node">
<title>Node1</title>
<g id="a_Node000001"><a xlink:title="a &quot;has&quot; ACL">
<polygon fill="#999999" stroke="#666666" points="384.5,-19 241.5,-19 241.5,0 384.5,0 384.5,-19"/>
<text text-anchor="middle" x="313" y="-7" font-family="Helvetica,sans-Serif" font-size="10.00">Acl::HasComponentCheck</text>
</a>
</g>
</g>
<!-- Node2 -->
<g id="Node000002" class="node">
<title>Node2</title>
<g id="a_Node000002"><a xlink:href="classAcl_1_1ParameterizedNode.html" target="_top" xlink:title=" ">
<polygon fill="white" stroke="#666666" points="401,-86 225,-86 225,-56 401,-56 401,-86"/>
<text text-anchor="start" x="233" y="-74" font-family="Helvetica,sans-Serif" font-size="10.00">Acl::ParameterizedNode</text>
<text text-anchor="middle" x="313" y="-63" font-family="Helvetica,sans-Serif" font-size="10.00">&lt; ACLData&lt; ACLChecklist * &gt; &gt;</text>
</a>
</g>
</g>
<!-- Node2&#45;&gt;Node1 -->
<g id="edge1_Node000001_Node000002" class="edge">
<title>Node2&#45;&gt;Node1</title>
<g id="a_edge1_Node000001_Node000002"><a xlink:title=" ">
<path fill="none" stroke="#63b8ff" d="M313,-45.79C313,-36.36 313,-26.15 313,-19.16"/>
<polygon fill="#63b8ff" stroke="#63b8ff" points="309.5,-45.9 313,-55.9 316.5,-45.9 309.5,-45.9"/>
</a>
</g>
</g>
<!-- Node3 -->
<g id="Node000003" class="node">
<title>Node3</title>
<g id="a_Node000003"><a xlink:href="classAcl_1_1Node.html" target="_top" xlink:title=" ">
<polygon fill="white" stroke="#666666" points="321.5,-229 258.5,-229 258.5,-210 321.5,-210 321.5,-229"/>
<text text-anchor="middle" x="290" y="-217" font-family="Helvetica,sans-Serif" font-size="10.00">Acl::Node</text>
</a>
</g>
</g>
<!-- Node3&#45;&gt;Node2 -->
<g id="edge2_Node000002_Node000003" class="edge">
<title>Node3&#45;&gt;Node2</title>
<g id="a_edge2_Node000002_Node000003"><a xlink:title=" ">
<path fill="none" stroke="#63b8ff" d="M273.34,-202.28C260.27,-187.49 245.45,-164.85 253,-144 261.47,-120.59 281.25,-99.45 295.79,-86.22"/>
<polygon fill="#63b8ff" stroke="#63b8ff" points="270.86,-204.75 280.27,-209.62 275.95,-199.94 270.86,-204.75"/>
</a>
</g>
</g>
<!-- Node16 -->
<g id="Node000016" class="node">
<title>Node16</title>
<g id="a_Node000016"><a xlink:href="classAcl_1_1ParameterizedNode.html" target="_top" xlink:title=" ">
<polygon fill="white" stroke="#666666" points="424,-163 262,-163 262,-144 424,-144 424,-163"/>
<text text-anchor="middle" x="343" y="-151" font-family="Helvetica,sans-Serif" font-size="10.00">Acl::ParameterizedNode&lt; P &gt;</text>
</a>
</g>
</g>
<!-- Node3&#45;&gt;Node16 -->
<g id="edge18_Node000016_Node000003" class="edge">
<title>Node3&#45;&gt;Node16</title>
<g id="a_edge18_Node000016_Node000003"><a xlink:title=" ">
<path fill="none" stroke="#63b8ff" d="M303.56,-202.12C313.76,-189.81 327.35,-173.39 335.63,-163.41"/>
<polygon fill="#63b8ff" stroke="#63b8ff" points="300.83,-199.93 297.15,-209.87 306.22,-204.4 300.83,-199.93"/>
</a>
</g>
</g>
<!-- Node4 -->
<g id="Node000004" class="node">
<title>Node4</title>
<g id="a_Node000004"><a xlink:title=" ">
<polygon fill="white" stroke="#666666" points="361.5,-501 278.5,-501 278.5,-482 361.5,-482 361.5,-501"/>
<text text-anchor="middle" x="320" y="-489" font-family="Helvetica,sans-Serif" font-size="10.00">RefCountable</text>
</a>
</g>
</g>
<!-- Node4&#45;&gt;Node3 -->
<g id="edge3_Node000003_Node000004" class="edge">
<title>Node4&#45;&gt;Node3</title>
<g id="a_edge3_Node000003_Node000004"><a xlink:title=" ">
<path fill="none" stroke="#63b8ff" d="M321.23,-471.44C322.06,-456.93 323,-436.47 323,-418.5 323,-418.5 323,-418.5 323,-284.5 323,-262.75 307.75,-241 297.99,-229.3"/>
<polygon fill="#63b8ff" stroke="#63b8ff" points="317.72,-471.44 320.61,-481.64 324.71,-471.87 317.72,-471.44"/>
</a>
</g>
</g>
<!-- Node9 -->
<g id="Node000009" class="node">
<title>Node9</title>
<g id="a_Node000009"><a xlink:href="classMemBlob.html" target="_top" xlink:title=" ">
<polygon fill="white" stroke="#666666" points="277.5,-427 214.5,-427 214.5,-408 277.5,-408 277.5,-427"/>
<text text-anchor="middle" x="246" y="-415" font-family="Helvetica,sans-Serif" font-size="10.00">MemBlob</text>
</a>
</g>
</g>
<!-- Node4&#45;&gt;Node9 -->
<g id="edge9_Node000009_Node000004" class="edge">
<title>Node4&#45;&gt;Node9</title>
<g id="a_edge9_Node000009_Node000004"><a xlink:title=" ">
<path fill="none" stroke="#63b8ff" d="M303.64,-474.59C288.57,-459.92 266.78,-438.72 254.77,-427.03"/>
<polygon fill="#63b8ff" stroke="#63b8ff" points="301.61,-477.49 311.22,-481.96 306.49,-472.48 301.61,-477.49"/>
</a>
</g>
</g>
<!-- Node5 -->
<g id="Node000005" class="node">
<title>Node5</title>
<g id="a_Node000005"><a xlink:href="classSBuf.html" target="_top" xlink:title=" ">
<polygon fill="white" stroke="#666666" points="174.5,-295 135.5,-295 135.5,-276 174.5,-276 174.5,-295"/>
<text text-anchor="middle" x="155" y="-283" font-family="Helvetica,sans-Serif" font-size="10.00">SBuf</text>
</a>
</g>
</g>
<!-- Node5&#45;&gt;Node3 -->
<g id="edge4_Node000003_Node000005" class="edge">
<title>Node5&#45;&gt;Node3</title>
<g id="a_edge4_Node000003_Node000005"><a xlink:title=" ">
<path fill="none" stroke="#9a32cd" stroke-dasharray="5,2" d="M182.36,-271.53C208.97,-258.92 248.63,-240.11 271.65,-229.2"/>
<polygon fill="#9a32cd" stroke="#9a32cd" points="180.74,-268.42 173.21,-275.87 183.74,-274.75 180.74,-268.42"/>
</a>
</g>
<text text-anchor="middle" x="245.5" y="-250" font-family="Helvetica,sans-Serif" font-size="10.00" fill="grey"> name</text>
</g>
<!-- Node6 -->
<g id="Node000006" class="node">
<title>Node6</title>
<g id="a_Node000006"><a xlink:href="classInstanceId.html" target="_top" xlink:title=" ">
<polygon fill="white" stroke="#666666" points="112,-464 0,-464 0,-445 112,-445 112,-464"/>
<text text-anchor="middle" x="56" y="-452" font-family="Helvetica,sans-Serif" font-size="10.00">InstanceId&lt; SBuf &gt;</text>
</a>
</g>
</g>
<!-- Node6&#45;&gt;Node5 -->
<g id="edge5_Node000005_Node000006" class="edge">
<title>Node6&#45;&gt;Node5</title>
<g id="a_edge5_Node000005_Node000006"><a xlink:title=" ">
<path fill="none" stroke="#9a32cd" stroke-dasharray="5,2" d="M54.26,-434.86C53.01,-411.36 54,-370.58 72,-342 86.87,-318.38 115.87,-302.52 135.34,-294"/>
<polygon fill="#9a32cd" stroke="#9a32cd" points="50.78,-435.16 55,-444.88 57.76,-434.65 50.78,-435.16"/>
</a>
</g>
<text text-anchor="middle" x="64.5" y="-382" font-family="Helvetica,sans-Serif" font-size="10.00" fill="grey"> id</text>
</g>
<!-- Node7 -->
<g id="Node000007" class="node">
<title>Node7</title>
<g id="a_Node000007"><a xlink:href="classInstanceId.html" target="_top" xlink:title=" ">
<polygon fill="white" stroke="#666666" points="168.5,-578 61.5,-578 61.5,-548 168.5,-548 168.5,-578"/>
<text text-anchor="start" x="69.5" y="-566" font-family="Helvetica,sans-Serif" font-size="10.00">InstanceId&lt; Class,</text>
<text text-anchor="middle" x="115" y="-555" font-family="Helvetica,sans-Serif" font-size="10.00"> ValueType &gt;</text>
</a>
</g>
</g>
<!-- Node7&#45;&gt;Node6 -->
<g id="edge6_Node000006_Node000007" class="edge">
<title>Node7&#45;&gt;Node6</title>
<g id="a_edge6_Node000006_Node000007"><a xlink:title=" ">
<path fill="none" stroke="orange" stroke-dasharray="5,2" d="M101.18,-539C99.42,-535.98 97.65,-532.93 96,-530 82.71,-506.48 67.86,-478.28 60.56,-464.28"/>
<polygon fill="orange" stroke="orange" points="98.25,-540.92 106.36,-547.74 104.27,-537.35 98.25,-540.92"/>
</a>
</g>
<text text-anchor="middle" x="120.5" y="-522" font-family="Helvetica,sans-Serif" font-size="10.00" fill="grey"> &lt; SBuf &gt;</text>
</g>
<!-- Node10 -->
<g id="Node000010" class="node">
<title>Node10</title>
<g id="a_Node000010"><a xlink:href="classInstanceId.html" target="_top" xlink:title=" ">
<polygon fill="white" stroke="#666666" points="254,-501 118,-501 118,-482 254,-482 254,-501"/>
<text text-anchor="middle" x="186" y="-489" font-family="Helvetica,sans-Serif" font-size="10.00">InstanceId&lt; MemBlob &gt;</text>
</a>
</g>
</g>
<!-- Node7&#45;&gt;Node10 -->
<g id="edge11_Node000010_Node000007" class="edge">
<title>Node7&#45;&gt;Node10</title>
<g id="a_edge11_Node000010_Node000007"><a xlink:title=" ">
<path fill="none" stroke="orange" stroke-dasharray="5,2" d="M136.51,-540.94C150.09,-527.65 166.92,-511.17 177.04,-501.27"/>
<polygon fill="orange" stroke="orange" points="134.07,-538.44 129.37,-547.94 138.96,-543.44 134.07,-538.44"/>
</a>
</g>
<text text-anchor="middle" x="192.5" y="-522" font-family="Helvetica,sans-Serif" font-size="10.00" fill="grey"> &lt; MemBlob &gt;</text>
</g>
<!-- Node8 -->
<g id="Node000008" class="node">
<title>Node8</title>
<g id="a_Node000008"><a xlink:href="classRefCount.html" target="_top" xlink:title=" ">
<polygon fill="white" stroke="#666666" points="294.5,-361 163.5,-361 163.5,-342 294.5,-342 294.5,-361"/>
<text text-anchor="middle" x="229" y="-349" font-family="Helvetica,sans-Serif" font-size="10.00">RefCount&lt; MemBlob &gt;</text>
</a>
</g>
</g>
<!-- Node8&#45;&gt;Node5 -->
<g id="edge7_Node000005_Node000008" class="edge">
<title>Node8&#45;&gt;Node5</title>
<g id="a_edge7_Node000005_Node000008"><a xlink:title=" ">
<path fill="none" stroke="#9a32cd" stroke-dasharray="5,2" d="M211.29,-335.18C196.92,-322.76 177.18,-305.68 165.3,-295.41"/>
<polygon fill="#9a32cd" stroke="#9a32cd" points="209.17,-337.97 219.02,-341.87 213.75,-332.68 209.17,-337.97"/>
</a>
</g>
<text text-anchor="middle" x="213" y="-316" font-family="Helvetica,sans-Serif" font-size="10.00" fill="grey"> store_</text>
</g>
<!-- Node9&#45;&gt;Node8 -->
<g id="edge8_Node000008_Node000009" class="edge">
<title>Node9&#45;&gt;Node8</title>
<g id="a_edge8_Node000008_Node000009"><a xlink:title=" ">
<path fill="none" stroke="#9a32cd" stroke-dasharray="5,2" d="M241.07,-397.95C237.88,-385.93 233.87,-370.82 231.37,-361.41"/>
<polygon fill="#9a32cd" stroke="#9a32cd" points="237.76,-399.1 243.71,-407.87 244.52,-397.31 237.76,-399.1"/>
</a>
</g>
<text text-anchor="middle" x="245.5" y="-382" font-family="Helvetica,sans-Serif" font-size="10.00" fill="grey"> p_</text>
</g>
<!-- Node10&#45;&gt;Node9 -->
<g id="edge10_Node000009_Node000010" class="edge">
<title>Node10&#45;&gt;Node9</title>
<g id="a_edge10_Node000009_Node000010"><a xlink:title=" ">
<path fill="none" stroke="#9a32cd" stroke-dasharray="5,2" d="M199.6,-474.18C211.81,-459.53 229.24,-438.61 238.89,-427.03"/>
<polygon fill="#9a32cd" stroke="#9a32cd" points="196.83,-472.04 193.12,-481.96 202.21,-476.52 196.83,-472.04"/>
</a>
</g>
<text text-anchor="middle" x="229.5" y="-452" font-family="Helvetica,sans-Serif" font-size="10.00" fill="grey"> id</text>
</g>
<!-- Node11 -->
<g id="Node000011" class="node">
<title>Node11</title>
<g id="a_Node000011"><a xlink:href="classRefCount.html" target="_top" xlink:title=" ">
<polygon fill="white" stroke="#666666" points="195.5,-427 104.5,-427 104.5,-408 195.5,-408 195.5,-427"/>
<text text-anchor="middle" x="150" y="-415" font-family="Helvetica,sans-Serif" font-size="10.00">RefCount&lt; C &gt;</text>
</a>
</g>
</g>
<!-- Node11&#45;&gt;Node8 -->
<g id="edge12_Node000008_Node000011" class="edge">
<title>Node11&#45;&gt;Node8</title>
<g id="a_edge12_Node000008_Node000011"><a xlink:title=" ">
<path fill="none" stroke="orange" stroke-dasharray="5,2" d="M150.98,-397.53C152.18,-391.01 154.52,-384.08 159,-379 166.3,-370.71 176.47,-365.01 186.8,-361.08"/>
<polygon fill="orange" stroke="orange" points="147.47,-397.39 149.87,-407.71 154.43,-398.15 147.47,-397.39"/>
</a>
</g>
<text text-anchor="middle" x="195.5" y="-382" font-family="Helvetica,sans-Serif" font-size="10.00" fill="grey"> &lt; MemBlob &gt;</text>
</g>
<!-- Node12 -->
<g id="Node000012" class="node">
<title>Node12</title>
<g id="a_Node000012"><a xlink:href="classSBufStats.html" target="_top" xlink:title=" ">
<polygon fill="white" stroke="#666666" points="145,-361 81,-361 81,-342 145,-342 145,-361"/>
<text text-anchor="middle" x="113" y="-349" font-family="Helvetica,sans-Serif" font-size="10.00">SBufStats</text>
</a>
</g>
</g>
<!-- Node12&#45;&gt;Node5 -->
<g id="edge13_Node000005_Node000012" class="edge">
<title>Node12&#45;&gt;Node5</title>
<g id="a_edge13_Node000005_Node000012"><a xlink:title=" ">
<path fill="none" stroke="#9a32cd" stroke-dasharray="5,2" d="M124.22,-333.41C132.24,-321.18 142.73,-305.2 149.16,-295.41"/>
<polygon fill="#9a32cd" stroke="#9a32cd" points="121.22,-331.59 118.66,-341.87 127.08,-335.43 121.22,-331.59"/>
</a>
</g>
<text text-anchor="middle" x="151" y="-316" font-family="Helvetica,sans-Serif" font-size="10.00" fill="grey"> stats</text>
</g>
<!-- Node13 -->
<g id="Node000013" class="node">
<title>Node13</title>
<g id="a_Node000013"><a xlink:title=" ">
<polygon fill="white" stroke="#666666" points="526.5,-229 359.5,-229 359.5,-210 526.5,-210 526.5,-229"/>
<text text-anchor="middle" x="443" y="-217" font-family="Helvetica,sans-Serif" font-size="10.00">std::unique_ptr&lt; Parameters &gt;</text>
</a>
</g>
</g>
<!-- Node13&#45;&gt;Node2 -->
<g id="edge14_Node000002_Node000013" class="edge">
<title>Node13&#45;&gt;Node2</title>
<g id="a_edge14_Node000002_Node000013"><a xlink:title=" ">
<path fill="none" stroke="#9a32cd" stroke-dasharray="5,2" d="M449.93,-200.35C458.03,-175.71 467.76,-131.62 446,-104 439.53,-95.79 421.8,-89.45 401.3,-84.65"/>
<polygon fill="#9a32cd" stroke="#9a32cd" points="446.59,-199.29 446.55,-209.89 453.19,-201.63 446.59,-199.29"/>
</a>
</g>
<text text-anchor="middle" x="471.5" y="-151" font-family="Helvetica,sans-Serif" font-size="10.00" fill="grey"> data</text>
</g>
<!-- Node13&#45;&gt;Node16 -->
<g id="edge19_Node000016_Node000013" class="edge">
<title>Node13&#45;&gt;Node16</title>
<g id="a_edge19_Node000016_Node000013"><a xlink:title=" ">
<path fill="none" stroke="#9a32cd" stroke-dasharray="5,2" d="M420.89,-204.35C401.23,-191.77 373.12,-173.78 356.59,-163.2"/>
<polygon fill="#9a32cd" stroke="#9a32cd" points="419.2,-207.43 429.51,-209.87 422.98,-201.53 419.2,-207.43"/>
</a>
</g>
<text text-anchor="middle" x="410.5" y="-184" font-family="Helvetica,sans-Serif" font-size="10.00" fill="grey"> data</text>
</g>
<!-- Node14 -->
<g id="Node000014" class="node">
<title>Node14</title>
<g id="a_Node000014"><a xlink:title=" ">
<polygon fill="white" stroke="#666666" points="502,-295 384,-295 384,-276 502,-276 502,-295"/>
<text text-anchor="middle" x="443" y="-283" font-family="Helvetica,sans-Serif" font-size="10.00">std::unique_ptr&lt; T &gt;</text>
</a>
</g>
</g>
<!-- Node14&#45;&gt;Node13 -->
<g id="edge15_Node000013_Node000014" class="edge">
<title>Node14&#45;&gt;Node13</title>
<g id="a_edge15_Node000013_Node000014"><a xlink:title=" ">
<path fill="none" stroke="orange" stroke-dasharray="5,2" d="M443,-265.58C443,-253.63 443,-238.72 443,-229.41"/>
<polygon fill="orange" stroke="orange" points="439.5,-265.87 443,-275.87 446.5,-265.87 439.5,-265.87"/>
</a>
</g>
<text text-anchor="middle" x="484" y="-250" font-family="Helvetica,sans-Serif" font-size="10.00" fill="grey"> &lt; Parameters &gt;</text>
</g>
<!-- Node15 -->
<g id="Node000015" class="node">
<title>Node15</title>
<g id="a_Node000015"><a xlink:title=" ">
<polygon fill="white" stroke="#666666" points="457.5,-361 428.5,-361 428.5,-342 457.5,-342 457.5,-361"/>
<text text-anchor="middle" x="443" y="-349" font-family="Helvetica,sans-Serif" font-size="10.00">T</text>
</a>
</g>
</g>
<!-- Node15&#45;&gt;Node14 -->
<g id="edge16_Node000014_Node000015" class="edge">
<title>Node15&#45;&gt;Node14</title>
<g id="a_edge16_Node000014_Node000015"><a xlink:title=" ">
<path fill="none" stroke="#9a32cd" stroke-dasharray="5,2" d="M443,-331.58C443,-319.63 443,-304.72 443,-295.41"/>
<polygon fill="#9a32cd" stroke="#9a32cd" points="439.5,-331.87 443,-341.87 446.5,-331.87 439.5,-331.87"/>
</a>
</g>
<text text-anchor="middle" x="451.5" y="-316" font-family="Helvetica,sans-Serif" font-size="10.00" fill="grey"> ptr</text>
</g>
<!-- Node16&#45;&gt;Node2 -->
<g id="edge17_Node000002_Node000016" class="edge">
<title>Node16&#45;&gt;Node2</title>
<g id="a_edge17_Node000002_Node000016"><a xlink:title=" ">
<path fill="none" stroke="orange" stroke-dasharray="5,2" d="M321.74,-137.04C318.62,-133.76 315.83,-130.06 314,-126 308.36,-113.52 308.83,-97.72 310.27,-86.43"/>
<polygon fill="orange" stroke="orange" points="319.6,-139.82 329.39,-143.86 324.26,-134.59 319.6,-139.82"/>
</a>
</g>
<text text-anchor="start" x="314" y="-118" font-family="Helvetica,sans-Serif" font-size="10.00" fill="grey"> &lt; ACLData&lt; ACLChecklist</text>
<text text-anchor="middle" x="380" y="-107" font-family="Helvetica,sans-Serif" font-size="10.00" fill="grey"> * &gt; &gt;</text>
</g>
</g>
</svg>

<g id="navigator" transform="translate(0 0)" fill="#404254">
  <rect fill="#f2f5e9" fill-opacity="0.5" stroke="#606060" stroke-width=".5" x="0" y="0" width="60" height="60"/>
  <use id="zoomplus" xlink:href="#zoomPlus" x="17" y="9" onmousedown="handleZoom(evt,'in')"/>
  <use id="zoomminus" xlink:href="#zoomMin" x="42" y="9" onmousedown="handleZoom(evt,'out')"/>
  <use id="reset" xlink:href="#resetDef" x="30" y="36" onmousedown="handleReset()"/>
   <use id="arrowup" xlink:href="#arrowUp" x="0" y="0" onmousedown="handlePan(0,-1)"/>
  <use id="arrowright" xlink:href="#arrowRight" x="0" y="0" onmousedown="handlePan(1,0)"/>
  <use id="arrowdown" xlink:href="#arrowDown" x="0" y="0" onmousedown="handlePan(0,1)"/>
  <use id="arrowleft" xlink:href="#arrowLeft" x="0" y="0" onmousedown="handlePan(-1,0)"/>
</g>
<svg viewBox="0 0 15 15" width="100%" height="30px" preserveAspectRatio="xMaxYMin meet">
 <g id="arrow_out" transform="scale(0.3 0.3)">
  <a xlink:href="classAcl_1_1HasComponentCheck__coll__graph_org.svg" target="_base">
   <rect id="button" ry="5" rx="5" y="6" x="6" height="38" width="38"
        fill="#f2f5e9" fill-opacity="0.5" stroke="#606060" stroke-width="1.0"/>
   <path id="arrow"
     d="M 11.500037,31.436501 C 11.940474,20.09759 22.043105,11.32322 32.158766,21.979434 L 37.068811,17.246167 C 37.068811,17.246167 37.088388,32 37.088388,32 L 22.160133,31.978069 C 22.160133,31.978069 26.997745,27.140456 26.997745,27.140456 C 18.528582,18.264221 13.291696,25.230495 11.500037,31.436501 z"
     style="fill:#404040;"/>
  </a>
 </g>
</svg>

<style type='text/css'>
<![CDATA[
[data-mouse-over-selected='false'] { opacity: 0.7; }
[data-mouse-over-selected='true']  { opacity: 1.0; }
]]>
</style>
<script type="application/ecmascript"><![CDATA[
document.addEventListener('DOMContentLoaded', (event) => {
  highlightEdges();
  highlightAdjacentNodes();
});
]]></script>
</svg>
