<?xml version="1.0" encoding="UTF-8" standalone="no"?>
<!DOCTYPE svg PUBLIC "-//W3C//DTD SVG 1.1//EN"
 "http://www.w3.org/Graphics/SVG/1.1/DTD/svg11.dtd">
<!-- Generated by graphviz version 2.43.0 (0)
 -->
<!-- Title: idns_query Pages: 1 -->
<svg width="729pt" height="310pt"
 viewBox="0.00 0.00 729.00 310.00" xmlns="http://www.w3.org/2000/svg" xmlns:xlink="http://www.w3.org/1999/xlink">
<g id="graph0" class="graph" transform="scale(1 1) rotate(0) translate(4 306)">
<title>idns_query</title>
<!-- Node1 -->
<g id="Node000001" class="node">
<title>Node1</title>
<g id="a_Node000001"><a xlink:title=" ">
<polygon fill="#999999" stroke="#666666" points="721,-170 651,-170 651,-151 721,-151 721,-170"/>
<text text-anchor="middle" x="686" y="-158" font-family="Helvetica,sans-Serif" font-size="10.00">idns_query</text>
</a>
</g>
</g>
<!-- Node1&#45;&gt;Node1 -->
<g id="edge13_Node000001_Node000001" class="edge">
<title>Node1&#45;&gt;Node1</title>
<g id="a_edge13_Node000001_Node000001"><a xlink:title=" ">
<path fill="none" stroke="#9a32cd" stroke-dasharray="5,2" d="M670.53,-179.91C671.75,-184.56 676.9,-188 686,-188 700.93,-188 705.25,-178.73 698.95,-170.08"/>
<polygon fill="#9a32cd" stroke="#9a32cd" points="673.96,-180.64 673.05,-170.08 667.18,-178.9 673.96,-180.64"/>
</a>
</g>
<text text-anchor="middle" x="686" y="-213" font-family="Helvetica,sans-Serif" font-size="10.00" fill="grey"> master</text>
<text text-anchor="middle" x="686" y="-202" font-family="Helvetica,sans-Serif" font-size="10.00" fill="grey">queue</text>
<text text-anchor="middle" x="686" y="-191" font-family="Helvetica,sans-Serif" font-size="10.00" fill="grey">slave</text>
</g>
<!-- Node2 -->
<g id="Node000002" class="node">
<title>Node2</title>
<g id="a_Node000002"><a xlink:href="classhash__link.html" target="_top" xlink:title=" ">
<polygon fill="white" stroke="#666666" points="508,-273 445,-273 445,-254 508,-254 508,-273"/>
<text text-anchor="middle" x="476.5" y="-261" font-family="Helvetica,sans-Serif" font-size="10.00">hash_link</text>
</a>
</g>
</g>
<!-- Node2&#45;&gt;Node1 -->
<g id="edge1_Node000001_Node000002" class="edge">
<title>Node2&#45;&gt;Node1</title>
<g id="a_edge1_Node000001_Node000002"><a xlink:title=" ">
<path fill="none" stroke="#9a32cd" stroke-dasharray="5,2" d="M518.4,-265.59C551.74,-265.37 598.75,-260.51 633,-238.5 659.02,-221.78 675.06,-186.92 681.6,-170.05"/>
<polygon fill="#9a32cd" stroke="#9a32cd" points="518.11,-262.09 508.09,-265.51 518.06,-269.09 518.11,-262.09"/>
</a>
</g>
<text text-anchor="middle" x="600.5" y="-263.5" font-family="Helvetica,sans-Serif" font-size="10.00" fill="grey"> hash</text>
</g>
<!-- Node2&#45;&gt;Node2 -->
<g id="edge2_Node000002_Node000002" class="edge">
<title>Node2&#45;&gt;Node2</title>
<g id="a_edge2_Node000002_Node000002"><a xlink:title=" ">
<path fill="none" stroke="#9a32cd" stroke-dasharray="5,2" d="M453.54,-282.55C455.07,-287.38 462.73,-291 476.5,-291 498.54,-291 504.91,-281.73 495.61,-273.08"/>
<polygon fill="#9a32cd" stroke="#9a32cd" points="456.86,-283.66 457.39,-273.08 450.38,-281.03 456.86,-283.66"/>
</a>
</g>
<text text-anchor="middle" x="476.5" y="-294" font-family="Helvetica,sans-Serif" font-size="10.00" fill="grey"> next</text>
</g>
<!-- Node3 -->
<g id="Node000003" class="node">
<title>Node3</title>
<g id="a_Node000003"><a xlink:href="struct__rfc1035__query.html" target="_top" xlink:title=" ">
<polygon fill="white" stroke="#666666" points="270.5,-222 178.5,-222 178.5,-203 270.5,-203 270.5,-222"/>
<text text-anchor="middle" x="224.5" y="-210" font-family="Helvetica,sans-Serif" font-size="10.00">_rfc1035_query</text>
</a>
</g>
</g>
<!-- Node3&#45;&gt;Node1 -->
<g id="edge3_Node000001_Node000003" class="edge">
<title>Node3&#45;&gt;Node1</title>
<g id="a_edge3_Node000001_Node000003"><a xlink:title=" ">
<path fill="none" stroke="#9a32cd" stroke-dasharray="5,2" d="M280.64,-212.7C311.37,-212.59 350.33,-212.08 385,-210.5 458.48,-207.15 476.89,-205.66 550,-197.5 587.04,-193.37 597.35,-196.37 633,-185.5 645.26,-181.76 658.26,-175.51 668.2,-170.2"/>
<polygon fill="#9a32cd" stroke="#9a32cd" points="280.55,-209.2 270.55,-212.73 280.56,-216.2 280.55,-209.2"/>
</a>
</g>
<text text-anchor="middle" x="476.5" y="-212.5" font-family="Helvetica,sans-Serif" font-size="10.00" fill="grey"> query</text>
</g>
<!-- Node12 -->
<g id="Node000012" class="node">
<title>Node12</title>
<g id="a_Node000012"><a xlink:href="struct__rfc1035__message.html" target="_top" xlink:title=" ">
<polygon fill="white" stroke="#666666" points="530.5,-188 422.5,-188 422.5,-169 530.5,-169 530.5,-188"/>
<text text-anchor="middle" x="476.5" y="-176" font-family="Helvetica,sans-Serif" font-size="10.00">_rfc1035_message</text>
</a>
</g>
</g>
<!-- Node3&#45;&gt;Node12 -->
<g id="edge15_Node000012_Node000003" class="edge">
<title>Node3&#45;&gt;Node12</title>
<g id="a_edge15_Node000012_Node000003"><a xlink:title=" ">
<path fill="none" stroke="#9a32cd" stroke-dasharray="5,2" d="M280.54,-201.99C285.76,-201.1 290.98,-200.26 296,-199.5 338.35,-193.13 386.57,-187.58 422.36,-183.79"/>
<polygon fill="#9a32cd" stroke="#9a32cd" points="279.81,-198.57 270.56,-203.73 281.01,-205.46 279.81,-198.57"/>
</a>
</g>
<text text-anchor="middle" x="340.5" y="-202.5" font-family="Helvetica,sans-Serif" font-size="10.00" fill="grey"> query</text>
</g>
<!-- Node4 -->
<g id="Node000004" class="node">
<title>Node4</title>
<g id="a_Node000004"><a xlink:href="classInstanceId.html" target="_top" xlink:title=" ">
<polygon fill="white" stroke="#666666" points="548,-151 405,-151 405,-132 548,-132 548,-151"/>
<text text-anchor="middle" x="476.5" y="-139" font-family="Helvetica,sans-Serif" font-size="10.00">InstanceId&lt; idns_query &gt;</text>
</a>
</g>
</g>
<!-- Node4&#45;&gt;Node1 -->
<g id="edge4_Node000001_Node000004" class="edge">
<title>Node4&#45;&gt;Node1</title>
<g id="a_edge4_Node000001_Node000004"><a xlink:title=" ">
<path fill="none" stroke="#9a32cd" stroke-dasharray="5,2" d="M558.33,-143.25C582.42,-144.42 608.84,-146.34 633,-149.5 638.76,-150.25 644.84,-151.3 650.73,-152.46"/>
<polygon fill="#9a32cd" stroke="#9a32cd" points="558.3,-139.74 548.15,-142.79 557.99,-146.74 558.3,-139.74"/>
</a>
</g>
<text text-anchor="middle" x="600.5" y="-152.5" font-family="Helvetica,sans-Serif" font-size="10.00" fill="grey"> xact_id</text>
</g>
<!-- Node5 -->
<g id="Node000005" class="node">
<title>Node5</title>
<g id="a_Node000005"><a xlink:href="classInstanceId.html" target="_top" xlink:title=" ">
<polygon fill="white" stroke="#666666" points="278,-136.5 171,-136.5 171,-106.5 278,-106.5 278,-136.5"/>
<text text-anchor="start" x="179" y="-124.5" font-family="Helvetica,sans-Serif" font-size="10.00">InstanceId&lt; Class,</text>
<text text-anchor="middle" x="224.5" y="-113.5" font-family="Helvetica,sans-Serif" font-size="10.00"> ValueType &gt;</text>
</a>
</g>
</g>
<!-- Node5&#45;&gt;Node4 -->
<g id="edge5_Node000004_Node000005" class="edge">
<title>Node5&#45;&gt;Node4</title>
<g id="a_edge5_Node000004_Node000005"><a xlink:title=" ">
<path fill="none" stroke="orange" stroke-dasharray="5,2" d="M288.43,-126.53C323.86,-129.37 368.21,-132.92 404.83,-135.85"/>
<polygon fill="orange" stroke="orange" points="288.46,-123.03 278.21,-125.72 287.9,-130 288.46,-123.03"/>
</a>
</g>
<text text-anchor="middle" x="340.5" y="-136.5" font-family="Helvetica,sans-Serif" font-size="10.00" fill="grey"> &lt; idns_query &gt;</text>
</g>
<!-- Node6 -->
<g id="Node000006" class="node">
<title>Node6</title>
<g id="a_Node000006"><a xlink:href="classdlink__node.html" target="_top" xlink:title=" ">
<polygon fill="white" stroke="#666666" points="511.5,-74 441.5,-74 441.5,-55 511.5,-55 511.5,-74"/>
<text text-anchor="middle" x="476.5" y="-62" font-family="Helvetica,sans-Serif" font-size="10.00">dlink_node</text>
</a>
</g>
</g>
<!-- Node6&#45;&gt;Node1 -->
<g id="edge6_Node000001_Node000006" class="edge">
<title>Node6&#45;&gt;Node1</title>
<g id="a_edge6_Node000001_Node000006"><a xlink:title=" ">
<path fill="none" stroke="#9a32cd" stroke-dasharray="5,2" d="M513.9,-77.58C545.9,-89.51 593.39,-108.33 633,-128.5 646.22,-135.23 660.54,-144.17 670.79,-150.89"/>
<polygon fill="#9a32cd" stroke="#9a32cd" points="515.09,-74.28 504.5,-74.1 512.66,-80.85 515.09,-74.28"/>
</a>
</g>
<text text-anchor="middle" x="600.5" y="-131.5" font-family="Helvetica,sans-Serif" font-size="10.00" fill="grey"> lru</text>
</g>
<!-- Node6&#45;&gt;Node6 -->
<g id="edge7_Node000006_Node000006" class="edge">
<title>Node6&#45;&gt;Node6</title>
<g id="a_edge7_Node000006_Node000006"><a xlink:title=" ">
<path fill="none" stroke="#9a32cd" stroke-dasharray="5,2" d="M453.54,-83.55C455.07,-88.38 462.73,-92 476.5,-92 498.54,-92 504.91,-82.73 495.61,-74.08"/>
<polygon fill="#9a32cd" stroke="#9a32cd" points="456.86,-84.66 457.39,-74.08 450.38,-82.03 456.86,-84.66"/>
</a>
</g>
<text text-anchor="middle" x="476.5" y="-106" font-family="Helvetica,sans-Serif" font-size="10.00" fill="grey"> next</text>
<text text-anchor="middle" x="476.5" y="-95" font-family="Helvetica,sans-Serif" font-size="10.00" fill="grey">prev</text>
</g>
<!-- Node7 -->
<g id="Node000007" class="node">
<title>Node7</title>
<g id="a_Node000007"><a xlink:href="classRefCount.html" target="_top" xlink:title=" ">
<polygon fill="white" stroke="#666666" points="550,-37 403,-37 403,-18 550,-18 550,-37"/>
<text text-anchor="middle" x="476.5" y="-25" font-family="Helvetica,sans-Serif" font-size="10.00">RefCount&lt; CodeContext &gt;</text>
</a>
</g>
</g>
<!-- Node7&#45;&gt;Node1 -->
<g id="edge8_Node000001_Node000007" class="edge">
<title>Node7&#45;&gt;Node1</title>
<g id="a_edge8_Node000001_Node000007"><a xlink:title=" ">
<path fill="none" stroke="#9a32cd" stroke-dasharray="5,2" d="M539.49,-39.65C570.25,-48.15 606.41,-62.1 633,-84.5 655.74,-103.66 672.89,-135.1 680.56,-150.86"/>
<polygon fill="#9a32cd" stroke="#9a32cd" points="540.27,-36.24 529.71,-37.09 538.49,-43.01 540.27,-36.24"/>
</a>
</g>
<text text-anchor="middle" x="600.5" y="-87.5" font-family="Helvetica,sans-Serif" font-size="10.00" fill="grey"> codeContext</text>
</g>
<!-- Node8 -->
<g id="Node000008" class="node">
<title>Node8</title>
<g id="a_Node000008"><a xlink:href="classCodeContext.html" target="_top" xlink:title=" ">
<polygon fill="white" stroke="#666666" points="264.5,-56 184.5,-56 184.5,-37 264.5,-37 264.5,-56"/>
<text text-anchor="middle" x="224.5" y="-44" font-family="Helvetica,sans-Serif" font-size="10.00">CodeContext</text>
</a>
</g>
</g>
<!-- Node8&#45;&gt;Node7 -->
<g id="edge9_Node000007_Node000008" class="edge">
<title>Node8&#45;&gt;Node7</title>
<g id="a_edge9_Node000007_Node000008"><a xlink:title=" ">
<path fill="none" stroke="#9a32cd" stroke-dasharray="5,2" d="M274.95,-42.74C311.45,-39.97 361.7,-36.15 402.77,-33.03"/>
<polygon fill="#9a32cd" stroke="#9a32cd" points="274.27,-39.28 264.56,-43.53 274.8,-46.26 274.27,-39.28"/>
</a>
</g>
<text text-anchor="middle" x="340.5" y="-43.5" font-family="Helvetica,sans-Serif" font-size="10.00" fill="grey"> p_</text>
</g>
<!-- Node9 -->
<g id="Node000009" class="node">
<title>Node9</title>
<g id="a_Node000009"><a xlink:title=" ">
<polygon fill="white" stroke="#666666" points="83,-74 0,-74 0,-55 83,-55 83,-74"/>
<text text-anchor="middle" x="41.5" y="-62" font-family="Helvetica,sans-Serif" font-size="10.00">RefCountable</text>
</a>
</g>
</g>
<!-- Node9&#45;&gt;Node8 -->
<g id="edge10_Node000008_Node000009" class="edge">
<title>Node9&#45;&gt;Node8</title>
<g id="a_edge10_Node000008_Node000009"><a xlink:title=" ">
<path fill="none" stroke="#63b8ff" d="M93.4,-59.44C122.19,-56.58 157.64,-53.05 184.26,-50.4"/>
<polygon fill="#63b8ff" stroke="#63b8ff" points="92.72,-55.99 83.12,-60.46 93.42,-62.95 92.72,-55.99"/>
</a>
</g>
</g>
<!-- Node10 -->
<g id="Node000010" class="node">
<title>Node10</title>
<g id="a_Node000010"><a xlink:href="classStopwatch.html" target="_top" xlink:title=" ">
<polygon fill="white" stroke="#666666" points="75.5,-37 7.5,-37 7.5,-18 75.5,-18 75.5,-37"/>
<text text-anchor="middle" x="41.5" y="-25" font-family="Helvetica,sans-Serif" font-size="10.00">Stopwatch</text>
</a>
</g>
</g>
<!-- Node10&#45;&gt;Node8 -->
<g id="edge11_Node000008_Node000010" class="edge">
<title>Node10&#45;&gt;Node8</title>
<g id="a_edge11_Node000008_Node000010"><a xlink:title=" ">
<path fill="none" stroke="#9a32cd" stroke-dasharray="5,2" d="M86.1,-31.7C106.43,-33.7 130.96,-36.15 153,-38.5 163.17,-39.58 174.15,-40.8 184.36,-41.96"/>
<polygon fill="#9a32cd" stroke="#9a32cd" points="86.17,-28.19 75.88,-30.7 85.49,-35.16 86.17,-28.19"/>
</a>
</g>
<text text-anchor="middle" x="127" y="-41.5" font-family="Helvetica,sans-Serif" font-size="10.00" fill="grey"> busyTime</text>
</g>
<!-- Node11 -->
<g id="Node000011" class="node">
<title>Node11</title>
<g id="a_Node000011"><a xlink:href="classRefCount.html" target="_top" xlink:title=" ">
<polygon fill="white" stroke="#666666" points="270,-19 179,-19 179,0 270,0 270,-19"/>
<text text-anchor="middle" x="224.5" y="-7" font-family="Helvetica,sans-Serif" font-size="10.00">RefCount&lt; C &gt;</text>
</a>
</g>
</g>
<!-- Node11&#45;&gt;Node7 -->
<g id="edge12_Node000007_Node000011" class="edge">
<title>Node11&#45;&gt;Node7</title>
<g id="a_edge12_Node000007_Node000011"><a xlink:title=" ">
<path fill="none" stroke="orange" stroke-dasharray="5,2" d="M280.4,-8.57C311.2,-8.54 350.31,-9.32 385,-12.5 398.32,-13.72 412.65,-15.76 425.88,-17.94"/>
<polygon fill="orange" stroke="orange" points="280.27,-5.07 270.28,-8.61 280.3,-12.07 280.27,-5.07"/>
</a>
</g>
<text text-anchor="middle" x="340.5" y="-15.5" font-family="Helvetica,sans-Serif" font-size="10.00" fill="grey"> &lt; CodeContext &gt;</text>
</g>
<!-- Node12&#45;&gt;Node1 -->
<g id="edge14_Node000001_Node000012" class="edge">
<title>Node12&#45;&gt;Node1</title>
<g id="a_edge14_Node000001_Node000012"><a xlink:title=" ">
<path fill="none" stroke="#9a32cd" stroke-dasharray="5,2" d="M540.66,-173.02C576.91,-169.88 621,-166.05 650.84,-163.46"/>
<polygon fill="#9a32cd" stroke="#9a32cd" points="540.33,-169.54 530.67,-173.89 540.93,-176.51 540.33,-169.54"/>
</a>
</g>
<text text-anchor="middle" x="600.5" y="-173.5" font-family="Helvetica,sans-Serif" font-size="10.00" fill="grey"> message</text>
</g>
<!-- Node13 -->
<g id="Node000013" class="node">
<title>Node13</title>
<g id="a_Node000013"><a xlink:href="classrfc1035__rr.html" target="_top" xlink:title=" ">
<polygon fill="white" stroke="#666666" points="257.5,-174 191.5,-174 191.5,-155 257.5,-155 257.5,-174"/>
<text text-anchor="middle" x="224.5" y="-162" font-family="Helvetica,sans-Serif" font-size="10.00">rfc1035_rr</text>
</a>
</g>
</g>
<!-- Node13&#45;&gt;Node12 -->
<g id="edge16_Node000012_Node000013" class="edge">
<title>Node13&#45;&gt;Node12</title>
<g id="a_edge16_Node000012_Node000013"><a xlink:title=" ">
<path fill="none" stroke="#9a32cd" stroke-dasharray="5,2" d="M268.01,-163.19C300.18,-162.59 345.43,-162.55 385,-165.5 397.03,-166.4 409.89,-167.91 422.04,-169.59"/>
<polygon fill="#9a32cd" stroke="#9a32cd" points="267.55,-159.7 257.63,-163.42 267.7,-166.7 267.55,-159.7"/>
</a>
</g>
<text text-anchor="middle" x="340.5" y="-168.5" font-family="Helvetica,sans-Serif" font-size="10.00" fill="grey"> answer</text>
</g>
</g>
</svg>
