<?xml version="1.0" encoding="UTF-8" standalone="no"?>
<!DOCTYPE svg PUBLIC "-//W3C//DTD SVG 1.1//EN"
 "http://www.w3.org/Graphics/SVG/1.1/DTD/svg11.dtd">
<!-- Generated by graphviz version 2.43.0 (0)
 -->
<!-- Title: Adaptation::Ecap::Config Pages: 1 -->
<svg width="265pt" height="292pt"
 viewBox="0.00 0.00 264.50 292.00" xmlns="http://www.w3.org/2000/svg" xmlns:xlink="http://www.w3.org/1999/xlink">

<svg id="main" version="1.1" xmlns="http://www.w3.org/2000/svg" xmlns:xlink="http://www.w3.org/1999/xlink" xml:space="preserve" onload="init(evt)">
<style type="text/css"><![CDATA[
.node, .edge {opacity: 0.7;}
.node.selected, .edge.selected {opacity: 1;}
.edge:hover path { stroke: red; }
.edge:hover polygon { stroke: red; fill: red; }
]]></style>
<script type="application/ecmascript" xlink:href="svg.min.js"/>
<svg id="graph" class="graph">
<g id="graph0" class="graph" transform="scale(1 1) rotate(0) translate(4 288)">
<title>Adaptation::Ecap::Config</title>
<!-- Node1 -->
<g id="Node000001" class="node">
<title>Node1</title>
<g id="a_Node000001"><a xlink:title="General eCAP configuration.">
<polygon fill="#999999" stroke="#666666" points="159.5,-19 23.5,-19 23.5,0 159.5,0 159.5,-19"/>
<text text-anchor="middle" x="91.5" y="-7" font-family="Helvetica,sans-Serif" font-size="10.00">Adaptation::Ecap::Config</text>
</a>
</g>
</g>
<!-- Node2 -->
<g id="Node000002" class="node">
<title>Node2</title>
<g id="a_Node000002"><a xlink:href="classAdaptation_1_1Config.html" target="_top" xlink:title=" ">
<polygon fill="white" stroke="#666666" points="145,-75 38,-75 38,-56 145,-56 145,-75"/>
<text text-anchor="middle" x="91.5" y="-63" font-family="Helvetica,sans-Serif" font-size="10.00">Adaptation::Config</text>
</a>
</g>
</g>
<!-- Node2&#45;&gt;Node1 -->
<g id="edge1_Node000001_Node000002" class="edge">
<title>Node2&#45;&gt;Node1</title>
<g id="a_edge1_Node000001_Node000002"><a xlink:title=" ">
<path fill="none" stroke="#63b8ff" d="M91.5,-45.3C91.5,-36.41 91.5,-26.28 91.5,-19.25"/>
<polygon fill="#63b8ff" stroke="#63b8ff" points="88,-45.58 91.5,-55.58 95,-45.58 88,-45.58"/>
</a>
</g>
</g>
<!-- Node3 -->
<g id="Node000003" class="node">
<title>Node3</title>
<g id="a_Node000003"><a xlink:title=" ">
<polygon fill="white" stroke="#666666" points="164.5,-152 18.5,-152 18.5,-122 164.5,-122 164.5,-152"/>
<text text-anchor="start" x="26.5" y="-140" font-family="Helvetica,sans-Serif" font-size="10.00">std::vector&lt; ServiceConfig</text>
<text text-anchor="middle" x="91.5" y="-129" font-family="Helvetica,sans-Serif" font-size="10.00">Pointer &gt;</text>
</a>
</g>
</g>
<!-- Node3&#45;&gt;Node2 -->
<g id="edge2_Node000002_Node000003" class="edge">
<title>Node3&#45;&gt;Node2</title>
<g id="a_edge2_Node000002_Node000003"><a xlink:title=" ">
<path fill="none" stroke="#9a32cd" stroke-dasharray="5,2" d="M91.5,-111.56C91.5,-98.95 91.5,-84.35 91.5,-75.27"/>
<polygon fill="#9a32cd" stroke="#9a32cd" points="88,-111.94 91.5,-121.94 95,-111.94 88,-111.94"/>
</a>
</g>
<text text-anchor="middle" x="129" y="-96" font-family="Helvetica,sans-Serif" font-size="10.00" fill="grey"> serviceConfigs</text>
</g>
<!-- Node4 -->
<g id="Node000004" class="node">
<title>Node4</title>
<g id="a_Node000004"><a xlink:href="classRefCount.html" target="_top" xlink:title=" ">
<polygon fill="white" stroke="#666666" points="91,-218 0,-218 0,-199 91,-199 91,-218"/>
<text text-anchor="middle" x="45.5" y="-206" font-family="Helvetica,sans-Serif" font-size="10.00">RefCount&lt; C &gt;</text>
</a>
</g>
</g>
<!-- Node4&#45;&gt;Node3 -->
<g id="edge3_Node000003_Node000004" class="edge">
<title>Node4&#45;&gt;Node3</title>
<g id="a_edge3_Node000003_Node000004"><a xlink:title=" ">
<path fill="none" stroke="#9a32cd" stroke-dasharray="5,2" d="M54.68,-189.82C58.17,-183.45 62.32,-176.28 66.5,-170 70.48,-164.01 75.26,-157.72 79.57,-152.31"/>
<polygon fill="#9a32cd" stroke="#9a32cd" points="51.43,-188.47 49.81,-198.94 57.61,-191.76 51.43,-188.47"/>
</a>
</g>
<text text-anchor="middle" x="91" y="-173" font-family="Helvetica,sans-Serif" font-size="10.00" fill="grey"> elements</text>
</g>
<!-- Node5 -->
<g id="Node000005" class="node">
<title>Node5</title>
<g id="a_Node000005"><a xlink:title=" ">
<polygon fill="white" stroke="#666666" points="206,-218 109,-218 109,-199 206,-199 206,-218"/>
<text text-anchor="middle" x="157.5" y="-206" font-family="Helvetica,sans-Serif" font-size="10.00">std::vector&lt; T &gt;</text>
</a>
</g>
</g>
<!-- Node5&#45;&gt;Node3 -->
<g id="edge4_Node000003_Node000005" class="edge">
<title>Node5&#45;&gt;Node3</title>
<g id="a_edge4_Node000003_Node000005"><a xlink:title=" ">
<path fill="none" stroke="orange" stroke-dasharray="5,2" d="M142.33,-191.53C131.04,-179.64 115.77,-163.56 104.93,-152.14"/>
<polygon fill="orange" stroke="orange" points="139.98,-194.14 149.41,-198.98 145.06,-189.32 139.98,-194.14"/>
</a>
</g>
<text text-anchor="middle" x="193" y="-173" font-family="Helvetica,sans-Serif" font-size="10.00" fill="grey"> &lt; ServiceConfigPointer &gt;</text>
</g>
<!-- Node6 -->
<g id="Node000006" class="node">
<title>Node6</title>
<g id="a_Node000006"><a xlink:title=" ">
<polygon fill="white" stroke="#666666" points="172,-284 143,-284 143,-265 172,-265 172,-284"/>
<text text-anchor="middle" x="157.5" y="-272" font-family="Helvetica,sans-Serif" font-size="10.00">T</text>
</a>
</g>
</g>
<!-- Node6&#45;&gt;Node5 -->
<g id="edge5_Node000005_Node000006" class="edge">
<title>Node6&#45;&gt;Node5</title>
<g id="a_edge5_Node000005_Node000006"><a xlink:title=" ">
<path fill="none" stroke="#9a32cd" stroke-dasharray="5,2" d="M157.5,-254.58C157.5,-242.63 157.5,-227.72 157.5,-218.41"/>
<polygon fill="#9a32cd" stroke="#9a32cd" points="154,-254.87 157.5,-264.87 161,-254.87 154,-254.87"/>
</a>
</g>
<text text-anchor="middle" x="182" y="-239" font-family="Helvetica,sans-Serif" font-size="10.00" fill="grey"> elements</text>
</g>
</g>
</svg>
</svg>

<style type='text/css'>
<![CDATA[
[data-mouse-over-selected='false'] { opacity: 0.7; }
[data-mouse-over-selected='true']  { opacity: 1.0; }
]]>
</style>
<script type="application/ecmascript"><![CDATA[
document.addEventListener('DOMContentLoaded', (event) => {
  highlightEdges();
  highlightAdjacentNodes();
});
]]></script>
</svg>
