<?xml version="1.0" encoding="UTF-8" standalone="no"?>
<!DOCTYPE svg PUBLIC "-//W3C//DTD SVG 1.1//EN"
 "http://www.w3.org/Graphics/SVG/1.1/DTD/svg11.dtd">
<!-- Generated by graphviz version 2.43.0 (0)
 -->
<!-- Title: Acl::TransactionInitiator Pages: 1 -->
<svg width="385pt" height="442pt"
 viewBox="0.00 0.00 384.50 442.00" xmlns="http://www.w3.org/2000/svg" xmlns:xlink="http://www.w3.org/1999/xlink">

<svg id="main" version="1.1" xmlns="http://www.w3.org/2000/svg" xmlns:xlink="http://www.w3.org/1999/xlink" xml:space="preserve" onload="init(evt)">
<style type="text/css"><![CDATA[
.node, .edge {opacity: 0.7;}
.node.selected, .edge.selected {opacity: 1;}
.edge:hover path { stroke: red; }
.edge:hover polygon { stroke: red; fill: red; }
]]></style>
<script type="application/ecmascript" xlink:href="svg.min.js"/>
<svg id="graph" class="graph">
<g id="graph0" class="graph" transform="scale(1 1) rotate(0) translate(4 438)">
<title>Acl::TransactionInitiator</title>
<!-- Node1 -->
<g id="Node000001" class="node">
<title>Node1</title>
<g id="a_Node000001"><a xlink:title="transaction_initiator ACL">
<polygon fill="#999999" stroke="#666666" points="273,-19 142,-19 142,0 273,0 273,-19"/>
<text text-anchor="middle" x="207.5" y="-7" font-family="Helvetica,sans-Serif" font-size="10.00">Acl::TransactionInitiator</text>
</a>
</g>
</g>
<!-- Node2 -->
<g id="Node000002" class="node">
<title>Node2</title>
<g id="a_Node000002"><a xlink:href="classAcl_1_1Node.html" target="_top" xlink:title=" ">
<polygon fill="white" stroke="#666666" points="190,-85 127,-85 127,-66 190,-66 190,-85"/>
<text text-anchor="middle" x="158.5" y="-73" font-family="Helvetica,sans-Serif" font-size="10.00">Acl::Node</text>
</a>
</g>
</g>
<!-- Node2&#45;&gt;Node1 -->
<g id="edge1_Node000001_Node000002" class="edge">
<title>Node2&#45;&gt;Node1</title>
<g id="a_edge1_Node000001_Node000002"><a xlink:title=" ">
<path fill="none" stroke="#63b8ff" d="M171.31,-57.77C180.71,-45.49 193.11,-29.3 200.68,-19.41"/>
<polygon fill="#63b8ff" stroke="#63b8ff" points="168.41,-55.8 165.11,-65.87 173.97,-60.06 168.41,-55.8"/>
</a>
</g>
</g>
<!-- Node3 -->
<g id="Node000003" class="node">
<title>Node3</title>
<g id="a_Node000003"><a xlink:title=" ">
<polygon fill="white" stroke="#666666" points="83,-357 0,-357 0,-338 83,-338 83,-357"/>
<text text-anchor="middle" x="41.5" y="-345" font-family="Helvetica,sans-Serif" font-size="10.00">RefCountable</text>
</a>
</g>
</g>
<!-- Node3&#45;&gt;Node2 -->
<g id="edge2_Node000002_Node000003" class="edge">
<title>Node3&#45;&gt;Node2</title>
<g id="a_edge2_Node000002_Node000003"><a xlink:title=" ">
<path fill="none" stroke="#63b8ff" d="M33.08,-328.29C27.24,-313.98 20.5,-293.38 20.5,-274.5 20.5,-274.5 20.5,-274.5 20.5,-140.5 20.5,-93.89 86.1,-81.13 126.84,-77.7"/>
<polygon fill="#63b8ff" stroke="#63b8ff" points="30.05,-330.1 37.25,-337.87 36.47,-327.3 30.05,-330.1"/>
</a>
</g>
</g>
<!-- Node8 -->
<g id="Node000008" class="node">
<title>Node8</title>
<g id="a_Node000008"><a xlink:href="classMemBlob.html" target="_top" xlink:title=" ">
<polygon fill="white" stroke="#666666" points="222,-283 159,-283 159,-264 222,-264 222,-283"/>
<text text-anchor="middle" x="190.5" y="-271" font-family="Helvetica,sans-Serif" font-size="10.00">MemBlob</text>
</a>
</g>
</g>
<!-- Node3&#45;&gt;Node8 -->
<g id="edge8_Node000008_Node000003" class="edge">
<title>Node3&#45;&gt;Node8</title>
<g id="a_edge8_Node000008_Node000003"><a xlink:title=" ">
<path fill="none" stroke="#63b8ff" d="M68.32,-333.54C98.59,-318.91 146.98,-295.53 172.85,-283.03"/>
<polygon fill="#63b8ff" stroke="#63b8ff" points="66.66,-330.46 59.18,-337.96 69.7,-336.76 66.66,-330.46"/>
</a>
</g>
</g>
<!-- Node4 -->
<g id="Node000004" class="node">
<title>Node4</title>
<g id="a_Node000004"><a xlink:href="classSBuf.html" target="_top" xlink:title=" ">
<polygon fill="white" stroke="#666666" points="250,-151 211,-151 211,-132 250,-132 250,-151"/>
<text text-anchor="middle" x="230.5" y="-139" font-family="Helvetica,sans-Serif" font-size="10.00">SBuf</text>
</a>
</g>
</g>
<!-- Node4&#45;&gt;Node2 -->
<g id="edge3_Node000002_Node000004" class="edge">
<title>Node4&#45;&gt;Node2</title>
<g id="a_edge3_Node000002_Node000004"><a xlink:title=" ">
<path fill="none" stroke="#9a32cd" stroke-dasharray="5,2" d="M213.26,-125.18C199.29,-112.76 180.08,-95.68 168.52,-85.41"/>
<polygon fill="#9a32cd" stroke="#9a32cd" points="210.99,-127.84 220.79,-131.87 215.64,-122.61 210.99,-127.84"/>
</a>
</g>
<text text-anchor="middle" x="214" y="-106" font-family="Helvetica,sans-Serif" font-size="10.00" fill="grey"> name</text>
</g>
<!-- Node12 -->
<g id="Node000012" class="node">
<title>Node12</title>
<g id="a_Node000012"><a xlink:title=" ">
<polygon fill="white" stroke="#666666" points="306.5,-85 208.5,-85 208.5,-66 306.5,-66 306.5,-85"/>
<text text-anchor="middle" x="257.5" y="-73" font-family="Helvetica,sans-Serif" font-size="10.00">std::list&lt; SBuf &gt;</text>
</a>
</g>
</g>
<!-- Node4&#45;&gt;Node12 -->
<g id="edge14_Node000012_Node000004" class="edge">
<title>Node4&#45;&gt;Node12</title>
<g id="a_edge14_Node000012_Node000004"><a xlink:title=" ">
<path fill="none" stroke="#9a32cd" stroke-dasharray="5,2" d="M237.56,-122.38C240.01,-116.21 242.82,-109.28 245.5,-103 248.03,-97.05 251.03,-90.43 253.4,-85.29"/>
<polygon fill="#9a32cd" stroke="#9a32cd" points="234.25,-121.23 233.85,-131.82 240.76,-123.79 234.25,-121.23"/>
</a>
</g>
<text text-anchor="middle" x="270" y="-106" font-family="Helvetica,sans-Serif" font-size="10.00" fill="grey"> elements</text>
</g>
<!-- Node5 -->
<g id="Node000005" class="node">
<title>Node5</title>
<g id="a_Node000005"><a xlink:href="classInstanceId.html" target="_top" xlink:title=" ">
<polygon fill="white" stroke="#666666" points="345.5,-320 233.5,-320 233.5,-301 345.5,-301 345.5,-320"/>
<text text-anchor="middle" x="289.5" y="-308" font-family="Helvetica,sans-Serif" font-size="10.00">InstanceId&lt; SBuf &gt;</text>
</a>
</g>
</g>
<!-- Node5&#45;&gt;Node4 -->
<g id="edge4_Node000004_Node000005" class="edge">
<title>Node5&#45;&gt;Node4</title>
<g id="a_edge4_Node000004_Node000005"><a xlink:title=" ">
<path fill="none" stroke="#9a32cd" stroke-dasharray="5,2" d="M290.34,-290.45C290.69,-261.69 287.64,-206.55 262.5,-169 257.76,-161.93 250.6,-155.74 244.24,-151.13"/>
<polygon fill="#9a32cd" stroke="#9a32cd" points="286.84,-290.63 290.06,-300.72 293.83,-290.83 286.84,-290.63"/>
</a>
</g>
<text text-anchor="middle" x="294" y="-238" font-family="Helvetica,sans-Serif" font-size="10.00" fill="grey"> id</text>
</g>
<!-- Node6 -->
<g id="Node000006" class="node">
<title>Node6</title>
<g id="a_Node000006"><a xlink:href="classInstanceId.html" target="_top" xlink:title=" ">
<polygon fill="white" stroke="#666666" points="294,-434 187,-434 187,-404 294,-404 294,-434"/>
<text text-anchor="start" x="195" y="-422" font-family="Helvetica,sans-Serif" font-size="10.00">InstanceId&lt; Class,</text>
<text text-anchor="middle" x="240.5" y="-411" font-family="Helvetica,sans-Serif" font-size="10.00"> ValueType &gt;</text>
</a>
</g>
</g>
<!-- Node6&#45;&gt;Node5 -->
<g id="edge5_Node000005_Node000006" class="edge">
<title>Node6&#45;&gt;Node5</title>
<g id="a_edge5_Node000005_Node000006"><a xlink:title=" ">
<path fill="none" stroke="orange" stroke-dasharray="5,2" d="M261.04,-395.97C263.44,-392.77 265.67,-389.4 267.5,-386 279.39,-363.91 285.62,-334.59 288.13,-320.21"/>
<polygon fill="orange" stroke="orange" points="258.13,-394 254.52,-403.96 263.55,-398.43 258.13,-394"/>
</a>
</g>
<text text-anchor="middle" x="297" y="-378" font-family="Helvetica,sans-Serif" font-size="10.00" fill="grey"> &lt; SBuf &gt;</text>
</g>
<!-- Node9 -->
<g id="Node000009" class="node">
<title>Node9</title>
<g id="a_Node000009"><a xlink:href="classInstanceId.html" target="_top" xlink:title=" ">
<polygon fill="white" stroke="#666666" points="258.5,-357 122.5,-357 122.5,-338 258.5,-338 258.5,-357"/>
<text text-anchor="middle" x="190.5" y="-345" font-family="Helvetica,sans-Serif" font-size="10.00">InstanceId&lt; MemBlob &gt;</text>
</a>
</g>
</g>
<!-- Node6&#45;&gt;Node9 -->
<g id="edge10_Node000009_Node000006" class="edge">
<title>Node6&#45;&gt;Node9</title>
<g id="a_edge10_Node000009_Node000006"><a xlink:title=" ">
<path fill="none" stroke="orange" stroke-dasharray="5,2" d="M204.13,-397.53C200.38,-394.12 197.03,-390.27 194.5,-386 189.3,-377.21 188.95,-365.21 189.47,-357.17"/>
<polygon fill="orange" stroke="orange" points="202.21,-400.48 212.23,-403.93 206.55,-394.98 202.21,-400.48"/>
</a>
</g>
<text text-anchor="middle" x="231" y="-378" font-family="Helvetica,sans-Serif" font-size="10.00" fill="grey"> &lt; MemBlob &gt;</text>
</g>
<!-- Node7 -->
<g id="Node000007" class="node">
<title>Node7</title>
<g id="a_Node000007"><a xlink:href="classRefCount.html" target="_top" xlink:title=" ">
<polygon fill="white" stroke="#666666" points="180,-217 49,-217 49,-198 180,-198 180,-217"/>
<text text-anchor="middle" x="114.5" y="-205" font-family="Helvetica,sans-Serif" font-size="10.00">RefCount&lt; MemBlob &gt;</text>
</a>
</g>
</g>
<!-- Node7&#45;&gt;Node4 -->
<g id="edge6_Node000004_Node000007" class="edge">
<title>Node7&#45;&gt;Node4</title>
<g id="a_edge6_Node000004_Node000007"><a xlink:title=" ">
<path fill="none" stroke="#9a32cd" stroke-dasharray="5,2" d="M138.92,-193.03C161.77,-180.42 195.22,-161.97 214.73,-151.2"/>
<polygon fill="#9a32cd" stroke="#9a32cd" points="137.21,-189.97 130.14,-197.87 140.59,-196.1 137.21,-189.97"/>
</a>
</g>
<text text-anchor="middle" x="195.5" y="-172" font-family="Helvetica,sans-Serif" font-size="10.00" fill="grey"> store_</text>
</g>
<!-- Node8&#45;&gt;Node7 -->
<g id="edge7_Node000007_Node000008" class="edge">
<title>Node8&#45;&gt;Node7</title>
<g id="a_edge7_Node000007_Node000008"><a xlink:title=" ">
<path fill="none" stroke="#9a32cd" stroke-dasharray="5,2" d="M182.75,-254.6C179.16,-247.83 174.37,-240.45 168.5,-235 160.16,-227.26 149.13,-221.3 139.22,-217.02"/>
<polygon fill="#9a32cd" stroke="#9a32cd" points="179.67,-256.28 187.14,-263.79 185.98,-253.26 179.67,-256.28"/>
</a>
</g>
<text text-anchor="middle" x="185" y="-238" font-family="Helvetica,sans-Serif" font-size="10.00" fill="grey"> p_</text>
</g>
<!-- Node9&#45;&gt;Node8 -->
<g id="edge9_Node000008_Node000009" class="edge">
<title>Node9&#45;&gt;Node8</title>
<g id="a_edge9_Node000008_Node000009"><a xlink:title=" ">
<path fill="none" stroke="#9a32cd" stroke-dasharray="5,2" d="M190.5,-327.66C190.5,-313.21 190.5,-293.96 190.5,-283.03"/>
<polygon fill="#9a32cd" stroke="#9a32cd" points="187,-327.96 190.5,-337.96 194,-327.96 187,-327.96"/>
</a>
</g>
<text text-anchor="middle" x="197" y="-308" font-family="Helvetica,sans-Serif" font-size="10.00" fill="grey"> id</text>
</g>
<!-- Node10 -->
<g id="Node000010" class="node">
<title>Node10</title>
<g id="a_Node000010"><a xlink:href="classRefCount.html" target="_top" xlink:title=" ">
<polygon fill="white" stroke="#666666" points="140,-283 49,-283 49,-264 140,-264 140,-283"/>
<text text-anchor="middle" x="94.5" y="-271" font-family="Helvetica,sans-Serif" font-size="10.00">RefCount&lt; C &gt;</text>
</a>
</g>
</g>
<!-- Node10&#45;&gt;Node7 -->
<g id="edge11_Node000007_Node000010" class="edge">
<title>Node10&#45;&gt;Node7</title>
<g id="a_edge11_Node000007_Node000010"><a xlink:title=" ">
<path fill="none" stroke="orange" stroke-dasharray="5,2" d="M92.85,-253.86C92.87,-247.72 93.5,-240.94 95.5,-235 97.74,-228.35 102.26,-221.92 106.34,-217.06"/>
<polygon fill="orange" stroke="orange" points="89.36,-254.09 93.33,-263.91 96.35,-253.76 89.36,-254.09"/>
</a>
</g>
<text text-anchor="middle" x="132" y="-238" font-family="Helvetica,sans-Serif" font-size="10.00" fill="grey"> &lt; MemBlob &gt;</text>
</g>
<!-- Node11 -->
<g id="Node000011" class="node">
<title>Node11</title>
<g id="a_Node000011"><a xlink:href="classSBufStats.html" target="_top" xlink:title=" ">
<polygon fill="white" stroke="#666666" points="262.5,-217 198.5,-217 198.5,-198 262.5,-198 262.5,-217"/>
<text text-anchor="middle" x="230.5" y="-205" font-family="Helvetica,sans-Serif" font-size="10.00">SBufStats</text>
</a>
</g>
</g>
<!-- Node11&#45;&gt;Node4 -->
<g id="edge12_Node000004_Node000011" class="edge">
<title>Node11&#45;&gt;Node4</title>
<g id="a_edge12_Node000004_Node000011"><a xlink:title=" ">
<path fill="none" stroke="#9a32cd" stroke-dasharray="5,2" d="M230.5,-187.58C230.5,-175.63 230.5,-160.72 230.5,-151.41"/>
<polygon fill="#9a32cd" stroke="#9a32cd" points="227,-187.87 230.5,-197.87 234,-187.87 227,-187.87"/>
</a>
</g>
<text text-anchor="middle" x="244.5" y="-172" font-family="Helvetica,sans-Serif" font-size="10.00" fill="grey"> stats</text>
</g>
<!-- Node12&#45;&gt;Node1 -->
<g id="edge13_Node000001_Node000012" class="edge">
<title>Node12&#45;&gt;Node1</title>
<g id="a_edge13_Node000001_Node000012"><a xlink:title=" ">
<path fill="none" stroke="#9a32cd" stroke-dasharray="5,2" d="M244.43,-57.77C234.84,-45.49 222.19,-29.3 214.46,-19.41"/>
<polygon fill="#9a32cd" stroke="#9a32cd" points="241.84,-60.14 250.76,-65.87 247.36,-55.83 241.84,-60.14"/>
</a>
</g>
<text text-anchor="middle" x="259" y="-40" font-family="Helvetica,sans-Serif" font-size="10.00" fill="grey"> cfgWords</text>
</g>
<!-- Node13 -->
<g id="Node000013" class="node">
<title>Node13</title>
<g id="a_Node000013"><a xlink:title=" ">
<polygon fill="white" stroke="#666666" points="361,-151 280,-151 280,-132 361,-132 361,-151"/>
<text text-anchor="middle" x="320.5" y="-139" font-family="Helvetica,sans-Serif" font-size="10.00">std::list&lt; T &gt;</text>
</a>
</g>
</g>
<!-- Node13&#45;&gt;Node12 -->
<g id="edge15_Node000012_Node000013" class="edge">
<title>Node13&#45;&gt;Node12</title>
<g id="a_edge15_Node000012_Node000013"><a xlink:title=" ">
<path fill="none" stroke="orange" stroke-dasharray="5,2" d="M310.1,-122.9C305.74,-116.27 300.33,-108.92 294.5,-103 287.74,-96.13 279.02,-89.79 271.74,-85.04"/>
<polygon fill="orange" stroke="orange" points="307.41,-125.2 315.67,-131.83 313.35,-121.5 307.41,-125.2"/>
</a>
</g>
<text text-anchor="middle" x="327" y="-106" font-family="Helvetica,sans-Serif" font-size="10.00" fill="grey"> &lt; SBuf &gt;</text>
</g>
<!-- Node14 -->
<g id="Node000014" class="node">
<title>Node14</title>
<g id="a_Node000014"><a xlink:title=" ">
<polygon fill="white" stroke="#666666" points="348,-217 319,-217 319,-198 348,-198 348,-217"/>
<text text-anchor="middle" x="333.5" y="-205" font-family="Helvetica,sans-Serif" font-size="10.00">T</text>
</a>
</g>
</g>
<!-- Node14&#45;&gt;Node13 -->
<g id="edge16_Node000013_Node000014" class="edge">
<title>Node14&#45;&gt;Node13</title>
<g id="a_edge16_Node000013_Node000014"><a xlink:title=" ">
<path fill="none" stroke="#9a32cd" stroke-dasharray="5,2" d="M329.73,-187.95C327.29,-175.93 324.22,-160.82 322.31,-151.41"/>
<polygon fill="#9a32cd" stroke="#9a32cd" points="326.33,-188.77 331.75,-197.87 333.19,-187.37 326.33,-188.77"/>
</a>
</g>
<text text-anchor="middle" x="352" y="-172" font-family="Helvetica,sans-Serif" font-size="10.00" fill="grey"> elements</text>
</g>
</g>
</svg>
</svg>

<style type='text/css'>
<![CDATA[
[data-mouse-over-selected='false'] { opacity: 0.7; }
[data-mouse-over-selected='true']  { opacity: 1.0; }
]]>
</style>
<script type="application/ecmascript"><![CDATA[
document.addEventListener('DOMContentLoaded', (event) => {
  highlightEdges();
  highlightAdjacentNodes();
});
]]></script>
</svg>
