<?xml version="1.0" encoding="UTF-8" standalone="no"?>
<!DOCTYPE svg PUBLIC "-//W3C//DTD SVG 1.1//EN"
 "http://www.w3.org/Graphics/SVG/1.1/DTD/svg11.dtd">
<!-- Generated by graphviz version 2.43.0 (0)
 -->
<!-- Title: FormattedLog Pages: 1 -->
<svg width="320pt" height="159pt"
 viewBox="0.00 0.00 319.50 159.00" xmlns="http://www.w3.org/2000/svg" xmlns:xlink="http://www.w3.org/1999/xlink">
<g id="graph0" class="graph" transform="scale(1 1) rotate(0) translate(4 155)">
<title>FormattedLog</title>
<!-- Node1 -->
<g id="Node000001" class="node">
<title>Node1</title>
<g id="a_Node000001"><a xlink:title=" ">
<polygon fill="#999999" stroke="#666666" points="154.5,-19 70.5,-19 70.5,0 154.5,0 154.5,-19"/>
<text text-anchor="middle" x="112.5" y="-7" font-family="Helvetica,sans-Serif" font-size="10.00">FormattedLog</text>
</a>
</g>
</g>
<!-- Node2 -->
<g id="Node000002" class="node">
<title>Node2</title>
<g id="a_Node000002"><a xlink:href="classLogfile.html" target="_top" xlink:title=" ">
<polygon fill="white" stroke="#666666" points="49,-85 0,-85 0,-66 49,-66 49,-85"/>
<text text-anchor="middle" x="24.5" y="-73" font-family="Helvetica,sans-Serif" font-size="10.00">Logfile</text>
</a>
</g>
</g>
<!-- Node2&#45;&gt;Node1 -->
<g id="edge1_Node000001_Node000002" class="edge">
<title>Node2&#45;&gt;Node1</title>
<g id="a_edge1_Node000001_Node000002"><a xlink:title=" ">
<path fill="none" stroke="#9a32cd" stroke-dasharray="5,2" d="M44.05,-59.59C53.24,-52.65 64.37,-44.33 74.5,-37 82.84,-30.97 92.34,-24.34 99.76,-19.22"/>
<polygon fill="#9a32cd" stroke="#9a32cd" points="41.79,-56.92 35.93,-65.75 46.02,-62.49 41.79,-56.92"/>
</a>
</g>
<text text-anchor="middle" x="91.5" y="-40" font-family="Helvetica,sans-Serif" font-size="10.00" fill="grey"> logfile</text>
</g>
<!-- Node3 -->
<g id="Node000003" class="node">
<title>Node3</title>
<g id="a_Node000003"><a xlink:href="classRefCount.html" target="_top" xlink:title=" ">
<polygon fill="white" stroke="#666666" points="158,-85 67,-85 67,-66 158,-66 158,-85"/>
<text text-anchor="middle" x="112.5" y="-73" font-family="Helvetica,sans-Serif" font-size="10.00">RefCount&lt; C &gt;</text>
</a>
</g>
</g>
<!-- Node3&#45;&gt;Node1 -->
<g id="edge2_Node000001_Node000003" class="edge">
<title>Node3&#45;&gt;Node1</title>
<g id="a_edge2_Node000001_Node000003"><a xlink:title=" ">
<path fill="none" stroke="#9a32cd" stroke-dasharray="5,2" d="M112.5,-55.58C112.5,-43.63 112.5,-28.72 112.5,-19.41"/>
<polygon fill="#9a32cd" stroke="#9a32cd" points="109,-55.87 112.5,-65.87 116,-55.87 109,-55.87"/>
</a>
</g>
<text text-anchor="middle" x="130" y="-40" font-family="Helvetica,sans-Serif" font-size="10.00" fill="grey"> aclList</text>
</g>
<!-- Node4 -->
<g id="Node000004" class="node">
<title>Node4</title>
<g id="a_Node000004"><a xlink:href="classFormat_1_1Format.html" target="_top" xlink:title=" ">
<polygon fill="white" stroke="#666666" points="268.5,-85 176.5,-85 176.5,-66 268.5,-66 268.5,-85"/>
<text text-anchor="middle" x="222.5" y="-73" font-family="Helvetica,sans-Serif" font-size="10.00">Format::Format</text>
</a>
</g>
</g>
<!-- Node4&#45;&gt;Node1 -->
<g id="edge3_Node000001_Node000004" class="edge">
<title>Node4&#45;&gt;Node1</title>
<g id="a_edge3_Node000001_Node000004"><a xlink:title=" ">
<path fill="none" stroke="#9a32cd" stroke-dasharray="5,2" d="M198.76,-60.69C177.12,-48.09 145.79,-29.87 127.45,-19.2"/>
<polygon fill="#9a32cd" stroke="#9a32cd" points="197.26,-63.86 207.66,-65.87 200.78,-57.81 197.26,-63.86"/>
</a>
</g>
<text text-anchor="middle" x="200" y="-40" font-family="Helvetica,sans-Serif" font-size="10.00" fill="grey"> logFormat</text>
</g>
<!-- Node4&#45;&gt;Node4 -->
<g id="edge6_Node000004_Node000004" class="edge">
<title>Node4&#45;&gt;Node4</title>
<g id="a_edge6_Node000004_Node000004"><a xlink:title=" ">
<path fill="none" stroke="#9a32cd" stroke-dasharray="5,2" d="M278.77,-80.16C283.53,-79.16 286.5,-77.61 286.5,-75.5 286.5,-72.12 278.91,-70.17 268.52,-69.65"/>
<polygon fill="#9a32cd" stroke="#9a32cd" points="278.05,-76.72 268.52,-81.35 278.86,-83.67 278.05,-76.72"/>
</a>
</g>
<text text-anchor="middle" x="299" y="-73" font-family="Helvetica,sans-Serif" font-size="10.00" fill="grey"> next</text>
</g>
<!-- Node5 -->
<g id="Node000005" class="node">
<title>Node5</title>
<g id="a_Node000005"><a xlink:href="classFormat_1_1Token.html" target="_top" xlink:title=" ">
<polygon fill="white" stroke="#666666" points="265,-151 180,-151 180,-132 265,-132 265,-151"/>
<text text-anchor="middle" x="222.5" y="-139" font-family="Helvetica,sans-Serif" font-size="10.00">Format::Token</text>
</a>
</g>
</g>
<!-- Node5&#45;&gt;Node4 -->
<g id="edge4_Node000004_Node000005" class="edge">
<title>Node5&#45;&gt;Node4</title>
<g id="a_edge4_Node000004_Node000005"><a xlink:title=" ">
<path fill="none" stroke="#9a32cd" stroke-dasharray="5,2" d="M222.5,-121.58C222.5,-109.63 222.5,-94.72 222.5,-85.41"/>
<polygon fill="#9a32cd" stroke="#9a32cd" points="219,-121.87 222.5,-131.87 226,-121.87 219,-121.87"/>
</a>
</g>
<text text-anchor="middle" x="241" y="-106" font-family="Helvetica,sans-Serif" font-size="10.00" fill="grey"> format</text>
</g>
<!-- Node5&#45;&gt;Node5 -->
<g id="edge5_Node000005_Node000005" class="edge">
<title>Node5&#45;&gt;Node5</title>
<g id="a_edge5_Node000005_Node000005"><a xlink:title=" ">
<path fill="none" stroke="#9a32cd" stroke-dasharray="5,2" d="M275.32,-146.24C280.04,-145.25 283,-143.67 283,-141.5 283,-138.03 275.42,-136.07 265.18,-135.61"/>
<polygon fill="#9a32cd" stroke="#9a32cd" points="274.72,-142.79 265.18,-147.39 275.51,-149.74 274.72,-142.79"/>
</a>
</g>
<text text-anchor="middle" x="295.5" y="-139" font-family="Helvetica,sans-Serif" font-size="10.00" fill="grey"> next</text>
</g>
</g>
</svg>
