<?xml version="1.0" encoding="UTF-8" standalone="no"?>
<!DOCTYPE svg PUBLIC "-//W3C//DTD SVG 1.1//EN"
 "http://www.w3.org/Graphics/SVG/1.1/DTD/svg11.dtd">
<!-- Generated by graphviz version 2.43.0 (0)
 -->
<!-- Title: HttpHeader Pages: 1 -->
<svg width="445pt" height="552pt"
 viewBox="0.00 0.00 445.00 552.00" xmlns="http://www.w3.org/2000/svg" xmlns:xlink="http://www.w3.org/1999/xlink">
<g id="graph0" class="graph" transform="scale(1 1) rotate(0) translate(4 548)">
<title>HttpHeader</title>
<!-- Node1 -->
<g id="Node000001" class="node">
<title>Node1</title>
<g id="a_Node000001"><a xlink:title=" ">
<polygon fill="#999999" stroke="#666666" points="278.5,-19 205.5,-19 205.5,0 278.5,0 278.5,-19"/>
<text text-anchor="middle" x="242" y="-7" font-family="Helvetica,sans-Serif" font-size="10.00">HttpHeader</text>
</a>
</g>
</g>
<!-- Node2 -->
<g id="Node000002" class="node">
<title>Node2</title>
<g id="a_Node000002"><a xlink:title=" ">
<polygon fill="white" stroke="#666666" points="331,-107 153,-107 153,-66 331,-66 331,-107"/>
<text text-anchor="start" x="161" y="-95" font-family="Helvetica,sans-Serif" font-size="10.00">std::vector&lt; HttpHeaderEntry</text>
<text text-anchor="start" x="161" y="-84" font-family="Helvetica,sans-Serif" font-size="10.00"> *, PoolingAllocator&lt; HttpHeader</text>
<text text-anchor="middle" x="242" y="-73" font-family="Helvetica,sans-Serif" font-size="10.00">Entry * &gt; &gt;</text>
</a>
</g>
</g>
<!-- Node2&#45;&gt;Node1 -->
<g id="edge1_Node000001_Node000002" class="edge">
<title>Node2&#45;&gt;Node1</title>
<g id="a_edge1_Node000001_Node000002"><a xlink:title=" ">
<path fill="none" stroke="#9a32cd" stroke-dasharray="5,2" d="M242,-55.7C242,-42.59 242,-28.18 242,-19.24"/>
<polygon fill="#9a32cd" stroke="#9a32cd" points="238.5,-55.79 242,-65.79 245.5,-55.79 238.5,-55.79"/>
</a>
</g>
<text text-anchor="middle" x="260.5" y="-40" font-family="Helvetica,sans-Serif" font-size="10.00" fill="grey"> entries</text>
</g>
<!-- Node3 -->
<g id="Node000003" class="node">
<title>Node3</title>
<g id="a_Node000003"><a xlink:href="classHttpHeaderEntry.html" target="_top" xlink:title=" ">
<polygon fill="white" stroke="#666666" points="233,-195 135,-195 135,-176 233,-176 233,-195"/>
<text text-anchor="middle" x="184" y="-183" font-family="Helvetica,sans-Serif" font-size="10.00">HttpHeaderEntry</text>
</a>
</g>
</g>
<!-- Node3&#45;&gt;Node2 -->
<g id="edge2_Node000002_Node000003" class="edge">
<title>Node3&#45;&gt;Node2</title>
<g id="a_edge2_Node000002_Node000003"><a xlink:title=" ">
<path fill="none" stroke="#9a32cd" stroke-dasharray="5,2" d="M193.67,-167.05C200.35,-155.12 209.53,-139 218,-125 221.52,-119.18 225.46,-112.93 229.11,-107.23"/>
<polygon fill="#9a32cd" stroke="#9a32cd" points="190.52,-165.51 188.71,-175.95 196.63,-168.92 190.52,-165.51"/>
</a>
</g>
<text text-anchor="middle" x="242.5" y="-139" font-family="Helvetica,sans-Serif" font-size="10.00" fill="grey"> elements</text>
</g>
<!-- Node4 -->
<g id="Node000004" class="node">
<title>Node4</title>
<g id="a_Node000004"><a xlink:href="classSBuf.html" target="_top" xlink:title=" ">
<polygon fill="white" stroke="#666666" points="170.5,-261 131.5,-261 131.5,-242 170.5,-242 170.5,-261"/>
<text text-anchor="middle" x="151" y="-249" font-family="Helvetica,sans-Serif" font-size="10.00">SBuf</text>
</a>
</g>
</g>
<!-- Node4&#45;&gt;Node3 -->
<g id="edge3_Node000003_Node000004" class="edge">
<title>Node4&#45;&gt;Node3</title>
<g id="a_edge3_Node000003_Node000004"><a xlink:title=" ">
<path fill="none" stroke="#9a32cd" stroke-dasharray="5,2" d="M154.27,-231.61C155.79,-225.45 157.96,-218.73 161,-213 164.54,-206.33 170.05,-199.9 174.78,-195.05"/>
<polygon fill="#9a32cd" stroke="#9a32cd" points="150.77,-231.25 152.18,-241.75 157.63,-232.66 150.77,-231.25"/>
</a>
</g>
<text text-anchor="middle" x="176.5" y="-216" font-family="Helvetica,sans-Serif" font-size="10.00" fill="grey"> name</text>
</g>
<!-- Node5 -->
<g id="Node000005" class="node">
<title>Node5</title>
<g id="a_Node000005"><a xlink:href="classInstanceId.html" target="_top" xlink:title=" ">
<polygon fill="white" stroke="#666666" points="112,-430 0,-430 0,-411 112,-411 112,-430"/>
<text text-anchor="middle" x="56" y="-418" font-family="Helvetica,sans-Serif" font-size="10.00">InstanceId&lt; SBuf &gt;</text>
</a>
</g>
</g>
<!-- Node5&#45;&gt;Node4 -->
<g id="edge4_Node000004_Node000005" class="edge">
<title>Node5&#45;&gt;Node4</title>
<g id="a_edge4_Node000004_Node000005"><a xlink:title=" ">
<path fill="none" stroke="#9a32cd" stroke-dasharray="5,2" d="M55.28,-400.63C55.26,-377.17 58.16,-336.73 76,-308 89.5,-286.26 114.9,-270.21 132.38,-261.11"/>
<polygon fill="#9a32cd" stroke="#9a32cd" points="51.79,-400.99 55.49,-410.92 58.79,-400.86 51.79,-400.99"/>
</a>
</g>
<text text-anchor="middle" x="68.5" y="-348" font-family="Helvetica,sans-Serif" font-size="10.00" fill="grey"> id</text>
</g>
<!-- Node6 -->
<g id="Node000006" class="node">
<title>Node6</title>
<g id="a_Node000006"><a xlink:href="classInstanceId.html" target="_top" xlink:title=" ">
<polygon fill="white" stroke="#666666" points="144.5,-544 37.5,-544 37.5,-514 144.5,-514 144.5,-544"/>
<text text-anchor="start" x="45.5" y="-532" font-family="Helvetica,sans-Serif" font-size="10.00">InstanceId&lt; Class,</text>
<text text-anchor="middle" x="91" y="-521" font-family="Helvetica,sans-Serif" font-size="10.00"> ValueType &gt;</text>
</a>
</g>
</g>
<!-- Node6&#45;&gt;Node5 -->
<g id="edge5_Node000005_Node000006" class="edge">
<title>Node6&#45;&gt;Node5</title>
<g id="a_edge5_Node000005_Node000006"><a xlink:title=" ">
<path fill="none" stroke="orange" stroke-dasharray="5,2" d="M72.17,-505.69C70.17,-502.58 68.38,-499.3 67,-496 57.64,-473.55 56.08,-444.4 55.92,-430.13"/>
<polygon fill="orange" stroke="orange" points="69.43,-507.89 78.1,-513.97 75.12,-503.81 69.43,-507.89"/>
</a>
</g>
<text text-anchor="middle" x="91.5" y="-488" font-family="Helvetica,sans-Serif" font-size="10.00" fill="grey"> &lt; SBuf &gt;</text>
</g>
<!-- Node10 -->
<g id="Node000010" class="node">
<title>Node10</title>
<g id="a_Node000010"><a xlink:href="classInstanceId.html" target="_top" xlink:title=" ">
<polygon fill="white" stroke="#666666" points="219,-467 83,-467 83,-448 219,-448 219,-467"/>
<text text-anchor="middle" x="151" y="-455" font-family="Helvetica,sans-Serif" font-size="10.00">InstanceId&lt; MemBlob &gt;</text>
</a>
</g>
</g>
<!-- Node6&#45;&gt;Node10 -->
<g id="edge10_Node000010_Node000006" class="edge">
<title>Node6&#45;&gt;Node10</title>
<g id="a_edge10_Node000010_Node000006"><a xlink:title=" ">
<path fill="none" stroke="orange" stroke-dasharray="5,2" d="M109.82,-506.2C121.18,-493.04 135.04,-476.99 143.43,-467.27"/>
<polygon fill="orange" stroke="orange" points="107.03,-504.08 103.14,-513.94 112.33,-508.65 107.03,-504.08"/>
</a>
</g>
<text text-anchor="middle" x="163.5" y="-488" font-family="Helvetica,sans-Serif" font-size="10.00" fill="grey"> &lt; MemBlob &gt;</text>
</g>
<!-- Node7 -->
<g id="Node000007" class="node">
<title>Node7</title>
<g id="a_Node000007"><a xlink:href="classRefCount.html" target="_top" xlink:title=" ">
<polygon fill="white" stroke="#666666" points="216.5,-327 85.5,-327 85.5,-308 216.5,-308 216.5,-327"/>
<text text-anchor="middle" x="151" y="-315" font-family="Helvetica,sans-Serif" font-size="10.00">RefCount&lt; MemBlob &gt;</text>
</a>
</g>
</g>
<!-- Node7&#45;&gt;Node4 -->
<g id="edge6_Node000004_Node000007" class="edge">
<title>Node7&#45;&gt;Node4</title>
<g id="a_edge6_Node000004_Node000007"><a xlink:title=" ">
<path fill="none" stroke="#9a32cd" stroke-dasharray="5,2" d="M151,-297.58C151,-285.63 151,-270.72 151,-261.41"/>
<polygon fill="#9a32cd" stroke="#9a32cd" points="147.5,-297.87 151,-307.87 154.5,-297.87 147.5,-297.87"/>
</a>
</g>
<text text-anchor="middle" x="168" y="-282" font-family="Helvetica,sans-Serif" font-size="10.00" fill="grey"> store_</text>
</g>
<!-- Node8 -->
<g id="Node000008" class="node">
<title>Node8</title>
<g id="a_Node000008"><a xlink:href="classMemBlob.html" target="_top" xlink:title=" ">
<polygon fill="white" stroke="#666666" points="182.5,-393 119.5,-393 119.5,-374 182.5,-374 182.5,-393"/>
<text text-anchor="middle" x="151" y="-381" font-family="Helvetica,sans-Serif" font-size="10.00">MemBlob</text>
</a>
</g>
</g>
<!-- Node8&#45;&gt;Node7 -->
<g id="edge7_Node000007_Node000008" class="edge">
<title>Node8&#45;&gt;Node7</title>
<g id="a_edge7_Node000007_Node000008"><a xlink:title=" ">
<path fill="none" stroke="#9a32cd" stroke-dasharray="5,2" d="M151,-363.58C151,-351.63 151,-336.72 151,-327.41"/>
<polygon fill="#9a32cd" stroke="#9a32cd" points="147.5,-363.87 151,-373.87 154.5,-363.87 147.5,-363.87"/>
</a>
</g>
<text text-anchor="middle" x="158.5" y="-348" font-family="Helvetica,sans-Serif" font-size="10.00" fill="grey"> p_</text>
</g>
<!-- Node9 -->
<g id="Node000009" class="node">
<title>Node9</title>
<g id="a_Node000009"><a xlink:title=" ">
<polygon fill="white" stroke="#666666" points="320.5,-467 237.5,-467 237.5,-448 320.5,-448 320.5,-467"/>
<text text-anchor="middle" x="279" y="-455" font-family="Helvetica,sans-Serif" font-size="10.00">RefCountable</text>
</a>
</g>
</g>
<!-- Node9&#45;&gt;Node8 -->
<g id="edge8_Node000008_Node000009" class="edge">
<title>Node9&#45;&gt;Node8</title>
<g id="a_edge8_Node000008_Node000009"><a xlink:title=" ">
<path fill="none" stroke="#63b8ff" d="M254.94,-442.97C228.88,-428.31 188.1,-405.37 166.17,-393.03"/>
<polygon fill="#63b8ff" stroke="#63b8ff" points="253.38,-446.11 263.81,-447.96 256.81,-440 253.38,-446.11"/>
</a>
</g>
</g>
<!-- Node10&#45;&gt;Node8 -->
<g id="edge9_Node000008_Node000010" class="edge">
<title>Node10&#45;&gt;Node8</title>
<g id="a_edge9_Node000008_Node000010"><a xlink:title=" ">
<path fill="none" stroke="#9a32cd" stroke-dasharray="5,2" d="M151,-437.66C151,-423.21 151,-403.96 151,-393.03"/>
<polygon fill="#9a32cd" stroke="#9a32cd" points="147.5,-437.96 151,-447.96 154.5,-437.96 147.5,-437.96"/>
</a>
</g>
<text text-anchor="middle" x="157.5" y="-418" font-family="Helvetica,sans-Serif" font-size="10.00" fill="grey"> id</text>
</g>
<!-- Node11 -->
<g id="Node000011" class="node">
<title>Node11</title>
<g id="a_Node000011"><a xlink:href="classRefCount.html" target="_top" xlink:title=" ">
<polygon fill="white" stroke="#666666" points="291.5,-393 200.5,-393 200.5,-374 291.5,-374 291.5,-393"/>
<text text-anchor="middle" x="246" y="-381" font-family="Helvetica,sans-Serif" font-size="10.00">RefCount&lt; C &gt;</text>
</a>
</g>
</g>
<!-- Node11&#45;&gt;Node7 -->
<g id="edge11_Node000007_Node000011" class="edge">
<title>Node11&#45;&gt;Node7</title>
<g id="a_edge11_Node000007_Node000011"><a xlink:title=" ">
<path fill="none" stroke="orange" stroke-dasharray="5,2" d="M224.74,-368.18C206.08,-355.61 179.54,-337.73 163.91,-327.2"/>
<polygon fill="orange" stroke="orange" points="222.94,-371.18 233.19,-373.87 226.85,-365.38 222.94,-371.18"/>
</a>
</g>
<text text-anchor="middle" x="241.5" y="-348" font-family="Helvetica,sans-Serif" font-size="10.00" fill="grey"> &lt; MemBlob &gt;</text>
</g>
<!-- Node12 -->
<g id="Node000012" class="node">
<title>Node12</title>
<g id="a_Node000012"><a xlink:href="classSBufStats.html" target="_top" xlink:title=" ">
<polygon fill="white" stroke="#666666" points="299,-327 235,-327 235,-308 299,-308 299,-327"/>
<text text-anchor="middle" x="267" y="-315" font-family="Helvetica,sans-Serif" font-size="10.00">SBufStats</text>
</a>
</g>
</g>
<!-- Node12&#45;&gt;Node4 -->
<g id="edge12_Node000004_Node000012" class="edge">
<title>Node12&#45;&gt;Node4</title>
<g id="a_edge12_Node000004_Node000012"><a xlink:title=" ">
<path fill="none" stroke="#9a32cd" stroke-dasharray="5,2" d="M242.58,-303.03C219.73,-290.42 186.28,-271.97 166.77,-261.2"/>
<polygon fill="#9a32cd" stroke="#9a32cd" points="240.91,-306.1 251.36,-307.87 244.29,-299.97 240.91,-306.1"/>
</a>
</g>
<text text-anchor="middle" x="230" y="-282" font-family="Helvetica,sans-Serif" font-size="10.00" fill="grey"> stats</text>
</g>
<!-- Node13 -->
<g id="Node000013" class="node">
<title>Node13</title>
<g id="a_Node000013"><a xlink:href="classString.html" target="_top" xlink:title=" ">
<polygon fill="white" stroke="#666666" points="233.5,-261 188.5,-261 188.5,-242 233.5,-242 233.5,-261"/>
<text text-anchor="middle" x="211" y="-249" font-family="Helvetica,sans-Serif" font-size="10.00">String</text>
</a>
</g>
</g>
<!-- Node13&#45;&gt;Node3 -->
<g id="edge13_Node000003_Node000013" class="edge">
<title>Node13&#45;&gt;Node3</title>
<g id="a_edge13_Node000003_Node000013"><a xlink:title=" ">
<path fill="none" stroke="#9a32cd" stroke-dasharray="5,2" d="M203.33,-232.32C198.23,-220.24 191.77,-204.91 187.76,-195.41"/>
<polygon fill="#9a32cd" stroke="#9a32cd" points="200.25,-234.02 207.36,-241.87 206.7,-231.29 200.25,-234.02"/>
</a>
</g>
<text text-anchor="middle" x="215.5" y="-216" font-family="Helvetica,sans-Serif" font-size="10.00" fill="grey"> value</text>
</g>
<!-- Node14 -->
<g id="Node000014" class="node">
<title>Node14</title>
<g id="a_Node000014"><a xlink:title=" ">
<polygon fill="white" stroke="#666666" points="348.5,-195 251.5,-195 251.5,-176 348.5,-176 348.5,-195"/>
<text text-anchor="middle" x="300" y="-183" font-family="Helvetica,sans-Serif" font-size="10.00">std::vector&lt; T &gt;</text>
</a>
</g>
</g>
<!-- Node14&#45;&gt;Node2 -->
<g id="edge14_Node000002_Node000014" class="edge">
<title>Node14&#45;&gt;Node2</title>
<g id="a_edge14_Node000002_Node000014"><a xlink:title=" ">
<path fill="none" stroke="orange" stroke-dasharray="5,2" d="M290.77,-166.97C284.34,-155.01 275.45,-138.87 267,-125 263.42,-119.12 259.34,-112.85 255.54,-107.16"/>
<polygon fill="orange" stroke="orange" points="287.73,-168.72 295.52,-175.9 293.91,-165.43 287.73,-168.72"/>
</a>
</g>
<text text-anchor="start" x="286" y="-150" font-family="Helvetica,sans-Serif" font-size="10.00" fill="grey"> &lt; HttpHeaderEntry *,</text>
<text text-anchor="start" x="286" y="-139" font-family="Helvetica,sans-Serif" font-size="10.00" fill="grey"> PoolingAllocator&lt; HttpHeader</text>
<text text-anchor="middle" x="361.5" y="-128" font-family="Helvetica,sans-Serif" font-size="10.00" fill="grey">Entry * &gt; &gt;</text>
</g>
<!-- Node15 -->
<g id="Node000015" class="node">
<title>Node15</title>
<g id="a_Node000015"><a xlink:title=" ">
<polygon fill="white" stroke="#666666" points="314.5,-261 285.5,-261 285.5,-242 314.5,-242 314.5,-261"/>
<text text-anchor="middle" x="300" y="-249" font-family="Helvetica,sans-Serif" font-size="10.00">T</text>
</a>
</g>
</g>
<!-- Node15&#45;&gt;Node14 -->
<g id="edge15_Node000014_Node000015" class="edge">
<title>Node15&#45;&gt;Node14</title>
<g id="a_edge15_Node000014_Node000015"><a xlink:title=" ">
<path fill="none" stroke="#9a32cd" stroke-dasharray="5,2" d="M300,-231.58C300,-219.63 300,-204.72 300,-195.41"/>
<polygon fill="#9a32cd" stroke="#9a32cd" points="296.5,-231.87 300,-241.87 303.5,-231.87 296.5,-231.87"/>
</a>
</g>
<text text-anchor="middle" x="324.5" y="-216" font-family="Helvetica,sans-Serif" font-size="10.00" fill="grey"> elements</text>
</g>
</g>
</svg>
