<?xml version="1.0" encoding="UTF-8" standalone="no"?>
<!DOCTYPE svg PUBLIC "-//W3C//DTD SVG 1.1//EN"
 "http://www.w3.org/Graphics/SVG/1.1/DTD/svg11.dtd">
<!-- Generated by graphviz version 2.43.0 (0)
 -->
<!-- Title: UnaryMemFunT&lt; Job, Data, Argument1 &gt; Pages: 1 -->
<svg width="200pt" height="226pt"
 viewBox="0.00 0.00 199.50 226.00" xmlns="http://www.w3.org/2000/svg" xmlns:xlink="http://www.w3.org/1999/xlink">

<svg id="main" version="1.1" xmlns="http://www.w3.org/2000/svg" xmlns:xlink="http://www.w3.org/1999/xlink" xml:space="preserve" onload="init(evt)">
<style type="text/css"><![CDATA[
.node, .edge {opacity: 0.7;}
.node.selected, .edge.selected {opacity: 1;}
.edge:hover path { stroke: red; }
.edge:hover polygon { stroke: red; fill: red; }
]]></style>
<script type="application/ecmascript" xlink:href="svg.min.js"/>
<svg id="graph" class="graph">
<g id="graph0" class="graph" transform="scale(1 1) rotate(0) translate(4 222)">
<title>UnaryMemFunT&lt; Job, Data, Argument1 &gt;</title>
<!-- Node1 -->
<g id="Node000001" class="node">
<title>Node1</title>
<g id="a_Node000001"><a xlink:title=" ">
<polygon fill="#999999" stroke="#666666" points="128,-30 5,-30 5,0 128,0 128,-30"/>
<text text-anchor="start" x="13" y="-18" font-family="Helvetica,sans-Serif" font-size="10.00">UnaryMemFunT&lt; Job,</text>
<text text-anchor="middle" x="66.5" y="-7" font-family="Helvetica,sans-Serif" font-size="10.00"> Data, Argument1 &gt;</text>
</a>
</g>
</g>
<!-- Node2 -->
<g id="Node000002" class="node">
<title>Node2</title>
<g id="a_Node000002"><a xlink:href="classJobDialer.html" target="_top" xlink:title=" ">
<polygon fill="white" stroke="#666666" points="115.5,-86 17.5,-86 17.5,-67 115.5,-67 115.5,-86"/>
<text text-anchor="middle" x="66.5" y="-74" font-family="Helvetica,sans-Serif" font-size="10.00">JobDialer&lt; Job &gt;</text>
</a>
</g>
</g>
<!-- Node2&#45;&gt;Node1 -->
<g id="edge1_Node000001_Node000002" class="edge">
<title>Node2&#45;&gt;Node1</title>
<g id="a_edge1_Node000001_Node000002"><a xlink:title=" ">
<path fill="none" stroke="#63b8ff" d="M66.5,-56.73C66.5,-48.09 66.5,-38 66.5,-30.02"/>
<polygon fill="#63b8ff" stroke="#63b8ff" points="63,-56.98 66.5,-66.98 70,-56.98 63,-56.98"/>
</a>
</g>
</g>
<!-- Node3 -->
<g id="Node000003" class="node">
<title>Node3</title>
<g id="a_Node000003"><a xlink:href="classCallDialer.html" target="_top" xlink:title=" ">
<polygon fill="white" stroke="#666666" points="65,-152 0,-152 0,-133 65,-133 65,-152"/>
<text text-anchor="middle" x="32.5" y="-140" font-family="Helvetica,sans-Serif" font-size="10.00">CallDialer</text>
</a>
</g>
</g>
<!-- Node3&#45;&gt;Node2 -->
<g id="edge2_Node000002_Node000003" class="edge">
<title>Node3&#45;&gt;Node2</title>
<g id="a_edge2_Node000002_Node000003"><a xlink:title=" ">
<path fill="none" stroke="#63b8ff" d="M41.96,-123.68C48.41,-111.55 56.67,-96.01 61.77,-86.41"/>
<polygon fill="#63b8ff" stroke="#63b8ff" points="38.69,-122.4 37.09,-132.87 44.87,-125.68 38.69,-122.4"/>
</a>
</g>
</g>
<!-- Node4 -->
<g id="Node000004" class="node">
<title>Node4</title>
<g id="a_Node000004"><a xlink:href="classCbcPointer.html" target="_top" xlink:title=" ">
<polygon fill="white" stroke="#666666" points="190,-152 83,-152 83,-133 190,-133 190,-152"/>
<text text-anchor="middle" x="136.5" y="-140" font-family="Helvetica,sans-Serif" font-size="10.00">CbcPointer&lt; Job &gt;</text>
</a>
</g>
</g>
<!-- Node4&#45;&gt;Node2 -->
<g id="edge3_Node000002_Node000004" class="edge">
<title>Node4&#45;&gt;Node2</title>
<g id="a_edge3_Node000002_Node000004"><a xlink:title=" ">
<path fill="none" stroke="#9a32cd" stroke-dasharray="5,2" d="M119.36,-125.83C105.81,-113.44 87.37,-96.59 76.24,-86.41"/>
<polygon fill="#9a32cd" stroke="#9a32cd" points="117.32,-128.7 127.06,-132.87 122.04,-123.54 117.32,-128.7"/>
</a>
</g>
<text text-anchor="middle" x="115" y="-107" font-family="Helvetica,sans-Serif" font-size="10.00" fill="grey"> job</text>
</g>
<!-- Node5 -->
<g id="Node000005" class="node">
<title>Node5</title>
<g id="a_Node000005"><a xlink:href="classCbcPointer.html" target="_top" xlink:title=" ">
<polygon fill="white" stroke="#666666" points="191.5,-218 81.5,-218 81.5,-199 191.5,-199 191.5,-218"/>
<text text-anchor="middle" x="136.5" y="-206" font-family="Helvetica,sans-Serif" font-size="10.00">CbcPointer&lt; Cbc &gt;</text>
</a>
</g>
</g>
<!-- Node5&#45;&gt;Node4 -->
<g id="edge4_Node000004_Node000005" class="edge">
<title>Node5&#45;&gt;Node4</title>
<g id="a_edge4_Node000004_Node000005"><a xlink:title=" ">
<path fill="none" stroke="orange" stroke-dasharray="5,2" d="M136.5,-188.58C136.5,-176.63 136.5,-161.72 136.5,-152.41"/>
<polygon fill="orange" stroke="orange" points="133,-188.87 136.5,-198.87 140,-188.87 133,-188.87"/>
</a>
</g>
<text text-anchor="middle" x="157" y="-173" font-family="Helvetica,sans-Serif" font-size="10.00" fill="grey"> &lt; Job &gt;</text>
</g>
</g>
</svg>
</svg>

<style type='text/css'>
<![CDATA[
[data-mouse-over-selected='false'] { opacity: 0.7; }
[data-mouse-over-selected='true']  { opacity: 1.0; }
]]>
</style>
<script type="application/ecmascript"><![CDATA[
document.addEventListener('DOMContentLoaded', (event) => {
  highlightEdges();
  highlightAdjacentNodes();
});
]]></script>
</svg>
