<?xml version="1.0" encoding="UTF-8" standalone="no"?>
<!DOCTYPE svg PUBLIC "-//W3C//DTD SVG 1.1//EN"
 "http://www.w3.org/Graphics/SVG/1.1/DTD/svg11.dtd">
<!-- Generated by graphviz version 2.43.0 (0)
 -->
<!-- Title: CallSubscription&lt; Call_ &gt; Pages: 1 -->
<svg width="215pt" height="159pt"
 viewBox="0.00 0.00 214.50 159.00" xmlns="http://www.w3.org/2000/svg" xmlns:xlink="http://www.w3.org/1999/xlink">
<g id="graph0" class="graph" transform="scale(1 1) rotate(0) translate(4 155)">
<title>CallSubscription&lt; Call_ &gt;</title>
<!-- Node1 -->
<g id="Node000001" class="node">
<title>Node1</title>
<g id="a_Node000001"><a xlink:title=" ">
<polygon fill="#999999" stroke="#666666" points="167.5,-19 25.5,-19 25.5,0 167.5,0 167.5,-19"/>
<text text-anchor="middle" x="96.5" y="-7" font-family="Helvetica,sans-Serif" font-size="10.00">CallSubscription&lt; Call_ &gt;</text>
</a>
</g>
</g>
<!-- Node2 -->
<g id="Node000002" class="node">
<title>Node2</title>
<g id="a_Node000002"><a xlink:href="classSubscription.html" target="_top" xlink:title=" ">
<polygon fill="white" stroke="#666666" points="80,-85 3,-85 3,-66 80,-66 80,-85"/>
<text text-anchor="middle" x="41.5" y="-73" font-family="Helvetica,sans-Serif" font-size="10.00">Subscription</text>
</a>
</g>
</g>
<!-- Node2&#45;&gt;Node1 -->
<g id="edge1_Node000001_Node000002" class="edge">
<title>Node2&#45;&gt;Node1</title>
<g id="a_edge1_Node000001_Node000002"><a xlink:title=" ">
<path fill="none" stroke="#63b8ff" d="M55.57,-58.12C66.16,-45.81 80.26,-29.39 88.85,-19.41"/>
<polygon fill="#63b8ff" stroke="#63b8ff" points="52.78,-56 48.92,-65.87 58.09,-60.57 52.78,-56"/>
</a>
</g>
</g>
<!-- Node3 -->
<g id="Node000003" class="node">
<title>Node3</title>
<g id="a_Node000003"><a xlink:title=" ">
<polygon fill="white" stroke="#666666" points="83,-151 0,-151 0,-132 83,-132 83,-151"/>
<text text-anchor="middle" x="41.5" y="-139" font-family="Helvetica,sans-Serif" font-size="10.00">RefCountable</text>
</a>
</g>
</g>
<!-- Node3&#45;&gt;Node2 -->
<g id="edge2_Node000002_Node000003" class="edge">
<title>Node3&#45;&gt;Node2</title>
<g id="a_edge2_Node000002_Node000003"><a xlink:title=" ">
<path fill="none" stroke="#63b8ff" d="M41.5,-121.58C41.5,-109.63 41.5,-94.72 41.5,-85.41"/>
<polygon fill="#63b8ff" stroke="#63b8ff" points="38,-121.87 41.5,-131.87 45,-121.87 38,-121.87"/>
</a>
</g>
</g>
<!-- Node4 -->
<g id="Node000004" class="node">
<title>Node4</title>
<g id="a_Node000004"><a xlink:href="classRefCount.html" target="_top" xlink:title=" ">
<polygon fill="white" stroke="#666666" points="206.5,-85 98.5,-85 98.5,-66 206.5,-66 206.5,-85"/>
<text text-anchor="middle" x="152.5" y="-73" font-family="Helvetica,sans-Serif" font-size="10.00">RefCount&lt; Call_ &gt;</text>
</a>
</g>
</g>
<!-- Node4&#45;&gt;Node1 -->
<g id="edge3_Node000001_Node000004" class="edge">
<title>Node4&#45;&gt;Node1</title>
<g id="a_edge3_Node000001_Node000004"><a xlink:title=" ">
<path fill="none" stroke="#9a32cd" stroke-dasharray="5,2" d="M138.17,-58.12C127.39,-45.81 113.03,-29.39 104.29,-19.41"/>
<polygon fill="#9a32cd" stroke="#9a32cd" points="135.73,-60.65 144.95,-65.87 141,-56.04 135.73,-60.65"/>
</a>
</g>
<text text-anchor="middle" x="139" y="-40" font-family="Helvetica,sans-Serif" font-size="10.00" fill="grey"> call</text>
</g>
<!-- Node5 -->
<g id="Node000005" class="node">
<title>Node5</title>
<g id="a_Node000005"><a xlink:href="classRefCount.html" target="_top" xlink:title=" ">
<polygon fill="white" stroke="#666666" points="198,-151 107,-151 107,-132 198,-132 198,-151"/>
<text text-anchor="middle" x="152.5" y="-139" font-family="Helvetica,sans-Serif" font-size="10.00">RefCount&lt; C &gt;</text>
</a>
</g>
</g>
<!-- Node5&#45;&gt;Node4 -->
<g id="edge4_Node000004_Node000005" class="edge">
<title>Node5&#45;&gt;Node4</title>
<g id="a_edge4_Node000004_Node000005"><a xlink:title=" ">
<path fill="none" stroke="orange" stroke-dasharray="5,2" d="M152.5,-121.58C152.5,-109.63 152.5,-94.72 152.5,-85.41"/>
<polygon fill="orange" stroke="orange" points="149,-121.87 152.5,-131.87 156,-121.87 149,-121.87"/>
</a>
</g>
<text text-anchor="middle" x="177.5" y="-106" font-family="Helvetica,sans-Serif" font-size="10.00" fill="grey"> &lt; Call_ &gt;</text>
</g>
</g>
</svg>
