<?xml version="1.0" encoding="UTF-8" standalone="no"?>
<!DOCTYPE svg PUBLIC "-//W3C//DTD SVG 1.1//EN"
 "http://www.w3.org/Graphics/SVG/1.1/DTD/svg11.dtd">
<!-- Generated by graphviz version 2.43.0 (0)
 -->
<!-- Title: MessageBucket Pages: 1 -->
<svg width="529pt" height="508pt"
 viewBox="0.00 0.00 528.50 508.00" xmlns="http://www.w3.org/2000/svg" xmlns:xlink="http://www.w3.org/1999/xlink">
<g id="graph0" class="graph" transform="scale(1 1) rotate(0) translate(4 504)">
<title>MessageBucket</title>
<!-- Node1 -->
<g id="Node000001" class="node">
<title>Node1</title>
<g id="a_Node000001"><a xlink:title="Limits Squid&#45;to&#45;client bandwidth for each matching response.">
<polygon fill="#999999" stroke="#666666" points="150,-19 57,-19 57,0 150,0 150,-19"/>
<text text-anchor="middle" x="103.5" y="-7" font-family="Helvetica,sans-Serif" font-size="10.00">MessageBucket</text>
</a>
</g>
</g>
<!-- Node2 -->
<g id="Node000002" class="node">
<title>Node2</title>
<g id="a_Node000002"><a xlink:title=" ">
<polygon fill="white" stroke="#666666" points="83,-423 0,-423 0,-404 83,-404 83,-423"/>
<text text-anchor="middle" x="41.5" y="-411" font-family="Helvetica,sans-Serif" font-size="10.00">RefCountable</text>
</a>
</g>
</g>
<!-- Node2&#45;&gt;Node1 -->
<g id="edge1_Node000001_Node000002" class="edge">
<title>Node2&#45;&gt;Node1</title>
<g id="a_edge1_Node000001_Node000002"><a xlink:title=" ">
<path fill="none" stroke="#63b8ff" d="M26.84,-395.94C16.14,-382.12 3.5,-361.37 3.5,-340.5 3.5,-340.5 3.5,-340.5 3.5,-74.5 3.5,-44.3 36.25,-27.71 64.26,-19.04"/>
<polygon fill="#63b8ff" stroke="#63b8ff" points="24.38,-398.46 33.44,-403.96 29.79,-394.01 24.38,-398.46"/>
</a>
</g>
</g>
<!-- Node5 -->
<g id="Node000005" class="node">
<title>Node5</title>
<g id="a_Node000005"><a xlink:href="classMessageDelayPool.html" target="_top" xlink:title=" ">
<polygon fill="white" stroke="#666666" points="326.5,-151 216.5,-151 216.5,-132 326.5,-132 326.5,-151"/>
<text text-anchor="middle" x="271.5" y="-139" font-family="Helvetica,sans-Serif" font-size="10.00">MessageDelayPool</text>
</a>
</g>
</g>
<!-- Node2&#45;&gt;Node5 -->
<g id="edge5_Node000005_Node000002" class="edge">
<title>Node2&#45;&gt;Node5</title>
<g id="a_edge5_Node000005_Node000002"><a xlink:title=" ">
<path fill="none" stroke="#63b8ff" d="M41.5,-393.43C41.5,-378.92 41.5,-358.45 41.5,-340.5 41.5,-340.5 41.5,-340.5 41.5,-206.5 41.5,-170.34 148.37,-153.74 216.41,-146.83"/>
<polygon fill="#63b8ff" stroke="#63b8ff" points="38,-393.63 41.5,-403.63 45,-393.63 38,-393.63"/>
</a>
</g>
</g>
<!-- Node11 -->
<g id="Node000011" class="node">
<title>Node11</title>
<g id="a_Node000011"><a xlink:href="classMemBlob.html" target="_top" xlink:title=" ">
<polygon fill="white" stroke="#666666" points="167,-349 104,-349 104,-330 167,-330 167,-349"/>
<text text-anchor="middle" x="135.5" y="-337" font-family="Helvetica,sans-Serif" font-size="10.00">MemBlob</text>
</a>
</g>
</g>
<!-- Node2&#45;&gt;Node11 -->
<g id="edge12_Node000011_Node000002" class="edge">
<title>Node2&#45;&gt;Node11</title>
<g id="a_edge12_Node000011_Node000002"><a xlink:title=" ">
<path fill="none" stroke="#63b8ff" d="M60.7,-397.79C79.87,-383.11 108.68,-361.04 124.36,-349.03"/>
<polygon fill="#63b8ff" stroke="#63b8ff" points="58.46,-395.1 52.65,-403.96 62.72,-400.66 58.46,-395.1"/>
</a>
</g>
</g>
<!-- Node3 -->
<g id="Node000003" class="node">
<title>Node3</title>
<g id="a_Node000003"><a xlink:href="classBandwidthBucket.html" target="_top" xlink:title="Base class for Squid&#45;to&#45;client bandwidth limiting.">
<polygon fill="white" stroke="#666666" points="154,-85 53,-85 53,-66 154,-66 154,-85"/>
<text text-anchor="middle" x="103.5" y="-73" font-family="Helvetica,sans-Serif" font-size="10.00">BandwidthBucket</text>
</a>
</g>
</g>
<!-- Node3&#45;&gt;Node1 -->
<g id="edge2_Node000001_Node000003" class="edge">
<title>Node3&#45;&gt;Node1</title>
<g id="a_edge2_Node000001_Node000003"><a xlink:title=" ">
<path fill="none" stroke="#63b8ff" d="M103.5,-55.58C103.5,-43.63 103.5,-28.72 103.5,-19.41"/>
<polygon fill="#63b8ff" stroke="#63b8ff" points="100,-55.87 103.5,-65.87 107,-55.87 100,-55.87"/>
</a>
</g>
</g>
<!-- Node4 -->
<g id="Node000004" class="node">
<title>Node4</title>
<g id="a_Node000004"><a xlink:href="classRefCount.html" target="_top" xlink:title=" ">
<polygon fill="white" stroke="#666666" points="360,-85 183,-85 183,-66 360,-66 360,-85"/>
<text text-anchor="middle" x="271.5" y="-73" font-family="Helvetica,sans-Serif" font-size="10.00">RefCount&lt; MessageDelayPool &gt;</text>
</a>
</g>
</g>
<!-- Node4&#45;&gt;Node1 -->
<g id="edge3_Node000001_Node000004" class="edge">
<title>Node4&#45;&gt;Node1</title>
<g id="a_edge3_Node000001_Node000004"><a xlink:title=" ">
<path fill="none" stroke="#9a32cd" stroke-dasharray="5,2" d="M239.15,-62.18C205.95,-49.53 155.16,-30.18 126.07,-19.1"/>
<polygon fill="#9a32cd" stroke="#9a32cd" points="238.25,-65.58 248.84,-65.87 240.74,-59.04 238.25,-65.58"/>
</a>
</g>
<text text-anchor="middle" x="232.5" y="-40" font-family="Helvetica,sans-Serif" font-size="10.00" fill="grey"> theAggregate</text>
</g>
<!-- Node5&#45;&gt;Node4 -->
<g id="edge4_Node000004_Node000005" class="edge">
<title>Node5&#45;&gt;Node4</title>
<g id="a_edge4_Node000004_Node000005"><a xlink:title=" ">
<path fill="none" stroke="#9a32cd" stroke-dasharray="5,2" d="M271.5,-121.58C271.5,-109.63 271.5,-94.72 271.5,-85.41"/>
<polygon fill="#9a32cd" stroke="#9a32cd" points="268,-121.87 271.5,-131.87 275,-121.87 268,-121.87"/>
</a>
</g>
<text text-anchor="middle" x="279" y="-106" font-family="Helvetica,sans-Serif" font-size="10.00" fill="grey"> p_</text>
</g>
<!-- Node6 -->
<g id="Node000006" class="node">
<title>Node6</title>
<g id="a_Node000006"><a xlink:href="classRefCount.html" target="_top" xlink:title=" ">
<polygon fill="white" stroke="#666666" points="431,-349 340,-349 340,-330 431,-330 431,-349"/>
<text text-anchor="middle" x="385.5" y="-337" font-family="Helvetica,sans-Serif" font-size="10.00">RefCount&lt; C &gt;</text>
</a>
</g>
</g>
<!-- Node6&#45;&gt;Node4 -->
<g id="edge18_Node000004_Node000006" class="edge">
<title>Node6&#45;&gt;Node4</title>
<g id="a_edge18_Node000004_Node000006"><a xlink:title=" ">
<path fill="none" stroke="orange" stroke-dasharray="5,2" d="M392.59,-320.23C396.87,-307.59 401.5,-290.27 401.5,-274.5 401.5,-274.5 401.5,-274.5 401.5,-140.5 401.5,-109.18 370.75,-93.19 339.17,-85.02"/>
<polygon fill="orange" stroke="orange" points="389.18,-319.38 389.05,-329.97 395.76,-321.77 389.18,-319.38"/>
</a>
</g>
<text text-anchor="middle" x="461" y="-205" font-family="Helvetica,sans-Serif" font-size="10.00" fill="grey"> &lt; MessageDelayPool &gt;</text>
</g>
<!-- Node6&#45;&gt;Node5 -->
<g id="edge6_Node000005_Node000006" class="edge">
<title>Node6&#45;&gt;Node5</title>
<g id="a_edge6_Node000005_Node000006"><a xlink:title=" ">
<path fill="none" stroke="#9a32cd" stroke-dasharray="5,2" d="M377.81,-320.51C370.13,-302.06 358.37,-272.41 350.5,-246 340.49,-212.41 355.86,-195.98 333.5,-169 326.7,-160.8 316.9,-155.08 307.1,-151.11"/>
<polygon fill="#9a32cd" stroke="#9a32cd" points="374.68,-322.12 381.8,-329.97 381.13,-319.4 374.68,-322.12"/>
</a>
</g>
<text text-anchor="middle" x="369" y="-238" font-family="Helvetica,sans-Serif" font-size="10.00" fill="grey"> access</text>
</g>
<!-- Node10 -->
<g id="Node000010" class="node">
<title>Node10</title>
<g id="a_Node000010"><a xlink:href="classRefCount.html" target="_top" xlink:title=" ">
<polygon fill="white" stroke="#666666" points="201,-283 70,-283 70,-264 201,-264 201,-283"/>
<text text-anchor="middle" x="135.5" y="-271" font-family="Helvetica,sans-Serif" font-size="10.00">RefCount&lt; MemBlob &gt;</text>
</a>
</g>
</g>
<!-- Node6&#45;&gt;Node10 -->
<g id="edge15_Node000010_Node000006" class="edge">
<title>Node6&#45;&gt;Node10</title>
<g id="a_edge15_Node000010_Node000006"><a xlink:title=" ">
<path fill="none" stroke="orange" stroke-dasharray="5,2" d="M329.87,-333.71C296.48,-329.87 253.46,-323.21 216.5,-312 192.48,-304.71 166.42,-291.63 150.53,-283.01"/>
<polygon fill="orange" stroke="orange" points="329.58,-337.2 339.9,-334.81 330.34,-330.24 329.58,-337.2"/>
</a>
</g>
<text text-anchor="middle" x="253" y="-304" font-family="Helvetica,sans-Serif" font-size="10.00" fill="grey"> &lt; MemBlob &gt;</text>
</g>
<!-- Node7 -->
<g id="Node000007" class="node">
<title>Node7</title>
<g id="a_Node000007"><a xlink:href="classSBuf.html" target="_top" xlink:title=" ">
<polygon fill="white" stroke="#666666" points="225,-217 186,-217 186,-198 225,-198 225,-217"/>
<text text-anchor="middle" x="205.5" y="-205" font-family="Helvetica,sans-Serif" font-size="10.00">SBuf</text>
</a>
</g>
</g>
<!-- Node7&#45;&gt;Node5 -->
<g id="edge7_Node000005_Node000007" class="edge">
<title>Node7&#45;&gt;Node5</title>
<g id="a_edge7_Node000005_Node000007"><a xlink:title=" ">
<path fill="none" stroke="#9a32cd" stroke-dasharray="5,2" d="M208.4,-187.7C210.16,-181.2 212.98,-174.24 217.5,-169 224.39,-161.02 234.25,-155.21 243.66,-151.1"/>
<polygon fill="#9a32cd" stroke="#9a32cd" points="204.9,-187.32 206.33,-197.82 211.76,-188.72 204.9,-187.32"/>
</a>
</g>
<text text-anchor="middle" x="244.5" y="-172" font-family="Helvetica,sans-Serif" font-size="10.00" fill="grey"> poolName</text>
</g>
<!-- Node8 -->
<g id="Node000008" class="node">
<title>Node8</title>
<g id="a_Node000008"><a xlink:href="classInstanceId.html" target="_top" xlink:title=" ">
<polygon fill="white" stroke="#666666" points="364.5,-386 252.5,-386 252.5,-367 364.5,-367 364.5,-386"/>
<text text-anchor="middle" x="308.5" y="-374" font-family="Helvetica,sans-Serif" font-size="10.00">InstanceId&lt; SBuf &gt;</text>
</a>
</g>
</g>
<!-- Node8&#45;&gt;Node7 -->
<g id="edge8_Node000007_Node000008" class="edge">
<title>Node8&#45;&gt;Node7</title>
<g id="a_edge8_Node000007_Node000008"><a xlink:title=" ">
<path fill="none" stroke="#9a32cd" stroke-dasharray="5,2" d="M309.41,-356.67C309.75,-333.57 307.73,-293.79 292.5,-264 278.97,-237.52 246.4,-222.04 225.18,-214.44"/>
<polygon fill="#9a32cd" stroke="#9a32cd" points="305.91,-356.72 309.09,-366.83 312.91,-356.94 305.91,-356.72"/>
</a>
</g>
<text text-anchor="middle" x="313" y="-304" font-family="Helvetica,sans-Serif" font-size="10.00" fill="grey"> id</text>
</g>
<!-- Node9 -->
<g id="Node000009" class="node">
<title>Node9</title>
<g id="a_Node000009"><a xlink:href="classInstanceId.html" target="_top" xlink:title=" ">
<polygon fill="white" stroke="#666666" points="305,-500 198,-500 198,-470 305,-470 305,-500"/>
<text text-anchor="start" x="206" y="-488" font-family="Helvetica,sans-Serif" font-size="10.00">InstanceId&lt; Class,</text>
<text text-anchor="middle" x="251.5" y="-477" font-family="Helvetica,sans-Serif" font-size="10.00"> ValueType &gt;</text>
</a>
</g>
</g>
<!-- Node9&#45;&gt;Node8 -->
<g id="edge9_Node000008_Node000009" class="edge">
<title>Node9&#45;&gt;Node8</title>
<g id="a_edge9_Node000008_Node000009"><a xlink:title=" ">
<path fill="none" stroke="orange" stroke-dasharray="5,2" d="M275.48,-462.61C278.44,-459.26 281.22,-455.68 283.5,-452 296.86,-430.43 304,-400.87 306.91,-386.33"/>
<polygon fill="orange" stroke="orange" points="272.81,-460.33 268.39,-469.96 277.85,-465.19 272.81,-460.33"/>
</a>
</g>
<text text-anchor="middle" x="313" y="-444" font-family="Helvetica,sans-Serif" font-size="10.00" fill="grey"> &lt; SBuf &gt;</text>
</g>
<!-- Node12 -->
<g id="Node000012" class="node">
<title>Node12</title>
<g id="a_Node000012"><a xlink:href="classInstanceId.html" target="_top" xlink:title=" ">
<polygon fill="white" stroke="#666666" points="260.5,-423 124.5,-423 124.5,-404 260.5,-404 260.5,-423"/>
<text text-anchor="middle" x="192.5" y="-411" font-family="Helvetica,sans-Serif" font-size="10.00">InstanceId&lt; MemBlob &gt;</text>
</a>
</g>
</g>
<!-- Node9&#45;&gt;Node12 -->
<g id="edge14_Node000012_Node000009" class="edge">
<title>Node9&#45;&gt;Node12</title>
<g id="a_edge14_Node000012_Node000009"><a xlink:title=" ">
<path fill="none" stroke="orange" stroke-dasharray="5,2" d="M221.6,-463.37C217.59,-459.86 213.74,-456.03 210.5,-452 203.44,-443.22 198.3,-431.22 195.36,-423.18"/>
<polygon fill="orange" stroke="orange" points="219.45,-466.13 229.42,-469.72 223.86,-460.7 219.45,-466.13"/>
</a>
</g>
<text text-anchor="middle" x="247" y="-444" font-family="Helvetica,sans-Serif" font-size="10.00" fill="grey"> &lt; MemBlob &gt;</text>
</g>
<!-- Node10&#45;&gt;Node7 -->
<g id="edge10_Node000007_Node000010" class="edge">
<title>Node10&#45;&gt;Node7</title>
<g id="a_edge10_Node000007_Node000010"><a xlink:title=" ">
<path fill="none" stroke="#9a32cd" stroke-dasharray="5,2" d="M152.64,-256.83C166.19,-244.44 184.63,-227.59 195.76,-217.41"/>
<polygon fill="#9a32cd" stroke="#9a32cd" points="149.96,-254.54 144.94,-263.87 154.68,-259.7 149.96,-254.54"/>
</a>
</g>
<text text-anchor="middle" x="191.5" y="-238" font-family="Helvetica,sans-Serif" font-size="10.00" fill="grey"> store_</text>
</g>
<!-- Node11&#45;&gt;Node10 -->
<g id="edge11_Node000010_Node000011" class="edge">
<title>Node11&#45;&gt;Node10</title>
<g id="a_edge11_Node000010_Node000011"><a xlink:title=" ">
<path fill="none" stroke="#9a32cd" stroke-dasharray="5,2" d="M135.5,-319.58C135.5,-307.63 135.5,-292.72 135.5,-283.41"/>
<polygon fill="#9a32cd" stroke="#9a32cd" points="132,-319.87 135.5,-329.87 139,-319.87 132,-319.87"/>
</a>
</g>
<text text-anchor="middle" x="143" y="-304" font-family="Helvetica,sans-Serif" font-size="10.00" fill="grey"> p_</text>
</g>
<!-- Node12&#45;&gt;Node11 -->
<g id="edge13_Node000011_Node000012" class="edge">
<title>Node12&#45;&gt;Node11</title>
<g id="a_edge13_Node000011_Node000012"><a xlink:title=" ">
<path fill="none" stroke="#9a32cd" stroke-dasharray="5,2" d="M179.25,-395.76C167.67,-381.14 151.33,-360.5 142.25,-349.03"/>
<polygon fill="#9a32cd" stroke="#9a32cd" points="176.79,-398.29 185.74,-403.96 182.27,-393.94 176.79,-398.29"/>
</a>
</g>
<text text-anchor="middle" x="177" y="-374" font-family="Helvetica,sans-Serif" font-size="10.00" fill="grey"> id</text>
</g>
<!-- Node13 -->
<g id="Node000013" class="node">
<title>Node13</title>
<g id="a_Node000013"><a xlink:href="classSBufStats.html" target="_top" xlink:title=" ">
<polygon fill="white" stroke="#666666" points="283.5,-283 219.5,-283 219.5,-264 283.5,-264 283.5,-283"/>
<text text-anchor="middle" x="251.5" y="-271" font-family="Helvetica,sans-Serif" font-size="10.00">SBufStats</text>
</a>
</g>
</g>
<!-- Node13&#45;&gt;Node7 -->
<g id="edge16_Node000007_Node000013" class="edge">
<title>Node13&#45;&gt;Node7</title>
<g id="a_edge16_Node000007_Node000013"><a xlink:title=" ">
<path fill="none" stroke="#9a32cd" stroke-dasharray="5,2" d="M239.22,-255.41C230.42,-243.18 218.94,-227.2 211.9,-217.41"/>
<polygon fill="#9a32cd" stroke="#9a32cd" points="236.62,-257.79 245.3,-263.87 242.3,-253.71 236.62,-257.79"/>
</a>
</g>
<text text-anchor="middle" x="244.5" y="-238" font-family="Helvetica,sans-Serif" font-size="10.00" fill="grey"> stats</text>
</g>
<!-- Node14 -->
<g id="Node000014" class="node">
<title>Node14</title>
<g id="a_Node000014"><a xlink:href="classDelayBucket.html" target="_top" xlink:title=" ">
<polygon fill="white" stroke="#666666" points="321.5,-217 243.5,-217 243.5,-198 321.5,-198 321.5,-217"/>
<text text-anchor="middle" x="282.5" y="-205" font-family="Helvetica,sans-Serif" font-size="10.00">DelayBucket</text>
</a>
</g>
</g>
<!-- Node14&#45;&gt;Node5 -->
<g id="edge17_Node000005_Node000014" class="edge">
<title>Node14&#45;&gt;Node5</title>
<g id="a_edge17_Node000005_Node000014"><a xlink:title=" ">
<path fill="none" stroke="#9a32cd" stroke-dasharray="5,2" d="M279.31,-187.95C277.25,-175.93 274.65,-160.82 273.03,-151.41"/>
<polygon fill="#9a32cd" stroke="#9a32cd" points="275.87,-188.61 281.02,-197.87 282.77,-187.42 275.87,-188.61"/>
</a>
</g>
<text text-anchor="middle" x="303.5" y="-172" font-family="Helvetica,sans-Serif" font-size="10.00" fill="grey"> theBucket</text>
</g>
</g>
</svg>
