<?xml version="1.0" encoding="UTF-8" standalone="no"?>
<!DOCTYPE svg PUBLIC "-//W3C//DTD SVG 1.1//EN"
 "http://www.w3.org/Graphics/SVG/1.1/DTD/svg11.dtd">
<!-- Generated by graphviz version 2.43.0 (0)
 -->
<!-- Title: CommDialerParamsT&lt; Params_ &gt; Pages: 1 -->
<!--zoomable 268 -->

<svg id="main" version="1.1" xmlns="http://www.w3.org/2000/svg" xmlns:xlink="http://www.w3.org/1999/xlink" xml:space="preserve" onload="init(evt)">
<style type="text/css"><![CDATA[
.node, .edge {opacity: 0.7;}
.node.selected, .edge.selected {opacity: 1;}
.edge:hover path { stroke: red; }
.edge:hover polygon { stroke: red; fill: red; }
]]></style>

<defs>
  <circle id="rim" cx="0" cy="0" r="7"/>
  <circle id="rim2" cx="0" cy="0" r="3.5"/>
  <g id="zoomPlus">
    <use xlink:href="#rim" fill="#404040"><set attributeName="fill" to="#808080" begin="zoomplus.mouseover" end="zoomplus.mouseout"/></use>
    <path d="M-4,0h8M0,-4v8" fill="none" stroke="white" stroke-width="1.5" pointer-events="none"/>
  </g>
  <g id="zoomMin">
    <use xlink:href="#rim" fill="#404040"><set attributeName="fill" to="#808080" begin="zoomminus.mouseover" end="zoomminus.mouseout"/></use>
    <path d="M-4,0h8" fill="none" stroke="white" stroke-width="1.5" pointer-events="none"/>
  </g>
  <g id="arrowUp" transform="translate(30 24)">
    <use xlink:href="#rim"/>
    <path pointer-events="none" fill="none" stroke="white" stroke-width="1.5" d="M0,-3.0v7 M-2.5,-0.5L0,-3.0L2.5,-0.5"/>
  </g>
  <g id="arrowRight" transform="rotate(90) translate(36 -43)">
    <use xlink:href="#rim"/>
    <path pointer-events="none" fill="none" stroke="white" stroke-width="1.5" d="M0,-3.0v7 M-2.5,-0.5L0,-3.0L2.5,-0.5"/>
  </g>
  <g id="arrowDown" transform="rotate(180) translate(-30 -48)">
    <use xlink:href="#rim"/>
    <path pointer-events="none" fill="none" stroke="white" stroke-width="1.5" d="M0,-3.0v7 M-2.5,-0.5L0,-3.0L2.5,-0.5"/>
  </g>
  <g id="arrowLeft" transform="rotate(270) translate(-36 17)">
    <use xlink:href="#rim"/>
    <path pointer-events="none" fill="none" stroke="white" stroke-width="1.5" d="M0,-3.0v7 M-2.5,-0.5L0,-3.0L2.5,-0.5"/>
  </g>
  <g id="resetDef">
    <use xlink:href="#rim2" fill="#404040"><set attributeName="fill" to="#808080" begin="reset.mouseover" end="reset.mouseout"/></use>
  </g>
</defs>
<script type="application/ecmascript">
var viewWidth = 676;
var viewHeight = 268;
var sectionId = 'dynsection-0';
</script>
<script type="application/ecmascript" xlink:href="svg.min.js"/>
<svg id="graph" class="graph">
<g id="viewport">
<title>CommDialerParamsT&lt; Params_ &gt;</title>
<!-- Node1 -->
<g id="Node000001" class="node">
<title>Node1</title>
<g id="a_Node000001"><a xlink:title=" ">
<polygon fill="#999999" stroke="#666666" points="128,-153 0,-153 0,-123 128,-123 128,-153"/>
<text text-anchor="start" x="8" y="-141" font-family="Helvetica,sans-Serif" font-size="10.00">CommDialerParamsT&lt;</text>
<text text-anchor="middle" x="64" y="-130" font-family="Helvetica,sans-Serif" font-size="10.00"> Params_ &gt;</text>
</a>
</g>
</g>
<!-- Node2 -->
<g id="Node000002" class="node">
<title>Node2</title>
<g id="a_Node000002"><a xlink:href="classCommCbMemFunT.html" target="_top" xlink:title=" ">
<polygon fill="white" stroke="#666666" points="498,-259.5 312,-259.5 312,-240.5 498,-240.5 498,-259.5"/>
<text text-anchor="middle" x="405" y="-247.5" font-family="Helvetica,sans-Serif" font-size="10.00">CommCbMemFunT&lt; C, Params_ &gt;</text>
</a>
</g>
</g>
<!-- Node1&#45;&gt;Node2 -->
<g id="edge1_Node000001_Node000002" class="edge">
<title>Node1&#45;&gt;Node2</title>
<g id="a_edge1_Node000001_Node000002"><a xlink:title=" ">
<path fill="none" stroke="#63b8ff" d="M84.45,-160.42C99.58,-176.33 121.98,-196.78 146,-208 197.7,-232.15 260.86,-242.71 311.75,-247.2"/>
<polygon fill="#63b8ff" stroke="#63b8ff" points="86.98,-158 77.63,-153.03 81.84,-162.75 86.98,-158"/>
</a>
</g>
</g>
<!-- Node3 -->
<g id="Node000003" class="node">
<title>Node3</title>
<g id="a_Node000003"><a xlink:href="classCommDialerParamsT.html" target="_top" xlink:title=" ">
<polygon fill="white" stroke="#666666" points="477.5,-222 332.5,-222 332.5,-192 477.5,-192 477.5,-222"/>
<text text-anchor="start" x="340.5" y="-210" font-family="Helvetica,sans-Serif" font-size="10.00">CommDialerParamsT&lt;</text>
<text text-anchor="middle" x="405" y="-199" font-family="Helvetica,sans-Serif" font-size="10.00"> CommAcceptCbParams &gt;</text>
</a>
</g>
</g>
<!-- Node1&#45;&gt;Node3 -->
<g id="edge2_Node000001_Node000003" class="edge">
<title>Node1&#45;&gt;Node3</title>
<g id="a_edge2_Node000001_Node000003"><a xlink:title=" ">
<path fill="none" stroke="orange" stroke-dasharray="5,2" d="M113.63,-156.35C124.2,-159.91 135.39,-163.35 146,-166 208.15,-181.55 280.26,-192.42 332.42,-199.05"/>
<polygon fill="orange" stroke="orange" points="114.73,-153.03 104.13,-153.08 112.44,-159.65 114.73,-153.03"/>
</a>
</g>
<text text-anchor="middle" x="220" y="-196" font-family="Helvetica,sans-Serif" font-size="10.00" fill="grey"> &lt; CommAcceptCbParams &gt;</text>
</g>
<!-- Node5 -->
<g id="Node000005" class="node">
<title>Node5</title>
<g id="a_Node000005"><a xlink:href="classCommDialerParamsT.html" target="_top" xlink:title=" ">
<polygon fill="white" stroke="#666666" points="474.5,-174 335.5,-174 335.5,-144 474.5,-144 474.5,-174"/>
<text text-anchor="start" x="343.5" y="-162" font-family="Helvetica,sans-Serif" font-size="10.00">CommDialerParamsT&lt;</text>
<text text-anchor="middle" x="405" y="-151" font-family="Helvetica,sans-Serif" font-size="10.00"> CommCloseCbParams &gt;</text>
</a>
</g>
</g>
<!-- Node1&#45;&gt;Node5 -->
<g id="edge4_Node000001_Node000005" class="edge">
<title>Node1&#45;&gt;Node5</title>
<g id="a_edge4_Node000001_Node000005"><a xlink:title=" ">
<path fill="none" stroke="orange" stroke-dasharray="5,2" d="M138.64,-142.56C197.13,-146.18 278.29,-151.21 335.41,-154.75"/>
<polygon fill="orange" stroke="orange" points="138.56,-139.05 128.37,-141.93 138.13,-146.04 138.56,-139.05"/>
</a>
</g>
<text text-anchor="middle" x="220" y="-154" font-family="Helvetica,sans-Serif" font-size="10.00" fill="grey"> &lt; CommCloseCbParams &gt;</text>
</g>
<!-- Node7 -->
<g id="Node000007" class="node">
<title>Node7</title>
<g id="a_Node000007"><a xlink:href="classCommDialerParamsT.html" target="_top" xlink:title=" ">
<polygon fill="white" stroke="#666666" points="481,-126 329,-126 329,-96 481,-96 481,-126"/>
<text text-anchor="start" x="337" y="-114" font-family="Helvetica,sans-Serif" font-size="10.00">CommDialerParamsT&lt;</text>
<text text-anchor="middle" x="405" y="-103" font-family="Helvetica,sans-Serif" font-size="10.00"> CommConnectCbParams &gt;</text>
</a>
</g>
</g>
<!-- Node1&#45;&gt;Node7 -->
<g id="edge6_Node000001_Node000007" class="edge">
<title>Node1&#45;&gt;Node7</title>
<g id="a_edge6_Node000001_Node000007"><a xlink:title=" ">
<path fill="none" stroke="orange" stroke-dasharray="5,2" d="M138.3,-128.76C140.9,-128.49 143.47,-128.24 146,-128 207.45,-122.19 277.32,-117.71 328.83,-114.82"/>
<polygon fill="orange" stroke="orange" points="137.76,-125.3 128.19,-129.85 138.51,-132.26 137.76,-125.3"/>
</a>
</g>
<text text-anchor="middle" x="220" y="-131" font-family="Helvetica,sans-Serif" font-size="10.00" fill="grey"> &lt; CommConnectCbParams &gt;</text>
</g>
<!-- Node9 -->
<g id="Node000009" class="node">
<title>Node9</title>
<g id="a_Node000009"><a xlink:href="classCommDialerParamsT.html" target="_top" xlink:title=" ">
<polygon fill="white" stroke="#666666" points="469,-78 341,-78 341,-48 469,-48 469,-78"/>
<text text-anchor="start" x="349" y="-66" font-family="Helvetica,sans-Serif" font-size="10.00">CommDialerParamsT&lt;</text>
<text text-anchor="middle" x="405" y="-55" font-family="Helvetica,sans-Serif" font-size="10.00"> CommIoCbParams &gt;</text>
</a>
</g>
</g>
<!-- Node1&#45;&gt;Node9 -->
<g id="edge8_Node000001_Node000009" class="edge">
<title>Node1&#45;&gt;Node9</title>
<g id="a_edge8_Node000001_Node000009"><a xlink:title=" ">
<path fill="none" stroke="orange" stroke-dasharray="5,2" d="M101.76,-118.55C115.34,-112.09 131.06,-105.41 146,-101 210.91,-81.82 288,-72.08 340.9,-67.3"/>
<polygon fill="orange" stroke="orange" points="100.18,-115.43 92.73,-122.97 103.25,-121.72 100.18,-115.43"/>
</a>
</g>
<text text-anchor="middle" x="220" y="-104" font-family="Helvetica,sans-Serif" font-size="10.00" fill="grey"> &lt; CommIoCbParams &gt;</text>
</g>
<!-- Node11 -->
<g id="Node000011" class="node">
<title>Node11</title>
<g id="a_Node000011"><a xlink:href="classCommDialerParamsT.html" target="_top" xlink:title=" ">
<polygon fill="white" stroke="#666666" points="481,-30 329,-30 329,0 481,0 481,-30"/>
<text text-anchor="start" x="337" y="-18" font-family="Helvetica,sans-Serif" font-size="10.00">CommDialerParamsT&lt;</text>
<text text-anchor="middle" x="405" y="-7" font-family="Helvetica,sans-Serif" font-size="10.00"> CommTimeoutCbParams &gt;</text>
</a>
</g>
</g>
<!-- Node1&#45;&gt;Node11 -->
<g id="edge10_Node000001_Node000011" class="edge">
<title>Node1&#45;&gt;Node11</title>
<g id="a_edge10_Node000001_Node000011"><a xlink:title=" ">
<path fill="none" stroke="orange" stroke-dasharray="5,2" d="M81.5,-114.84C96.2,-96.08 119.45,-70.6 146,-57 202.85,-27.88 275.18,-18.08 328.78,-15.17"/>
<polygon fill="orange" stroke="orange" points="78.62,-112.84 75.37,-122.92 84.2,-117.07 78.62,-112.84"/>
</a>
</g>
<text text-anchor="middle" x="220" y="-60" font-family="Helvetica,sans-Serif" font-size="10.00" fill="grey"> &lt; CommTimeoutCbParams &gt;</text>
</g>
<!-- Node4 -->
<g id="Node000004" class="node">
<title>Node4</title>
<g id="a_Node000004"><a xlink:href="classCommAcceptCbPtrFun.html" target="_top" xlink:title=" ">
<polygon fill="white" stroke="#666666" points="664,-216.5 539,-216.5 539,-197.5 664,-197.5 664,-216.5"/>
<text text-anchor="middle" x="601.5" y="-204.5" font-family="Helvetica,sans-Serif" font-size="10.00">CommAcceptCbPtrFun</text>
</a>
</g>
</g>
<!-- Node3&#45;&gt;Node4 -->
<g id="edge3_Node000003_Node000004" class="edge">
<title>Node3&#45;&gt;Node4</title>
<g id="a_edge3_Node000003_Node000004"><a xlink:title=" ">
<path fill="none" stroke="#63b8ff" d="M487.62,-207C504.81,-207 522.67,-207 538.97,-207"/>
<polygon fill="#63b8ff" stroke="#63b8ff" points="487.6,-203.5 477.6,-207 487.6,-210.5 487.6,-203.5"/>
</a>
</g>
</g>
<!-- Node6 -->
<g id="Node000006" class="node">
<title>Node6</title>
<g id="a_Node000006"><a xlink:href="classCommCloseCbPtrFun.html" target="_top" xlink:title=" ">
<polygon fill="white" stroke="#666666" points="661,-168.5 542,-168.5 542,-149.5 661,-149.5 661,-168.5"/>
<text text-anchor="middle" x="601.5" y="-156.5" font-family="Helvetica,sans-Serif" font-size="10.00">CommCloseCbPtrFun</text>
</a>
</g>
</g>
<!-- Node5&#45;&gt;Node6 -->
<g id="edge5_Node000005_Node000006" class="edge">
<title>Node5&#45;&gt;Node6</title>
<g id="a_edge5_Node000005_Node000006"><a xlink:title=" ">
<path fill="none" stroke="#63b8ff" d="M484.75,-159C503.84,-159 523.92,-159 541.89,-159"/>
<polygon fill="#63b8ff" stroke="#63b8ff" points="484.57,-155.5 474.57,-159 484.57,-162.5 484.57,-155.5"/>
</a>
</g>
</g>
<!-- Node8 -->
<g id="Node000008" class="node">
<title>Node8</title>
<g id="a_Node000008"><a xlink:href="classCommConnectCbPtrFun.html" target="_top" xlink:title=" ">
<polygon fill="white" stroke="#666666" points="667.5,-120.5 535.5,-120.5 535.5,-101.5 667.5,-101.5 667.5,-120.5"/>
<text text-anchor="middle" x="601.5" y="-108.5" font-family="Helvetica,sans-Serif" font-size="10.00">CommConnectCbPtrFun</text>
</a>
</g>
</g>
<!-- Node7&#45;&gt;Node8 -->
<g id="edge7_Node000007_Node000008" class="edge">
<title>Node7&#45;&gt;Node8</title>
<g id="a_edge7_Node000007_Node000008"><a xlink:title=" ">
<path fill="none" stroke="#63b8ff" d="M491.33,-111C506.08,-111 521.21,-111 535.31,-111"/>
<polygon fill="#63b8ff" stroke="#63b8ff" points="491.2,-107.5 481.2,-111 491.2,-114.5 491.2,-107.5"/>
</a>
</g>
</g>
<!-- Node10 -->
<g id="Node000010" class="node">
<title>Node10</title>
<g id="a_Node000010"><a xlink:href="classCommIoCbPtrFun.html" target="_top" xlink:title=" ">
<polygon fill="white" stroke="#666666" points="652,-72.5 551,-72.5 551,-53.5 652,-53.5 652,-72.5"/>
<text text-anchor="middle" x="601.5" y="-60.5" font-family="Helvetica,sans-Serif" font-size="10.00">CommIoCbPtrFun</text>
</a>
</g>
</g>
<!-- Node9&#45;&gt;Node10 -->
<g id="edge9_Node000009_Node000010" class="edge">
<title>Node9&#45;&gt;Node10</title>
<g id="a_edge9_Node000009_Node000010"><a xlink:title=" ">
<path fill="none" stroke="#63b8ff" d="M479.25,-63C503.17,-63 529.15,-63 550.9,-63"/>
<polygon fill="#63b8ff" stroke="#63b8ff" points="479.15,-59.5 469.15,-63 479.15,-66.5 479.15,-59.5"/>
</a>
</g>
</g>
<!-- Node12 -->
<g id="Node000012" class="node">
<title>Node12</title>
<g id="a_Node000012"><a xlink:href="classCommTimeoutCbPtrFun.html" target="_top" xlink:title=" ">
<polygon fill="white" stroke="#666666" points="668,-24.5 535,-24.5 535,-5.5 668,-5.5 668,-24.5"/>
<text text-anchor="middle" x="601.5" y="-12.5" font-family="Helvetica,sans-Serif" font-size="10.00">CommTimeoutCbPtrFun</text>
</a>
</g>
</g>
<!-- Node11&#45;&gt;Node12 -->
<g id="edge11_Node000011_Node000012" class="edge">
<title>Node11&#45;&gt;Node12</title>
<g id="a_edge11_Node000011_Node000012"><a xlink:title=" ">
<path fill="none" stroke="#63b8ff" d="M491.21,-15C505.78,-15 520.72,-15 534.69,-15"/>
<polygon fill="#63b8ff" stroke="#63b8ff" points="491.2,-11.5 481.2,-15 491.2,-18.5 491.2,-11.5"/>
</a>
</g>
</g>
</g>
</svg>

<g id="navigator" transform="translate(0 0)" fill="#404254">
  <rect fill="#f2f5e9" fill-opacity="0.5" stroke="#606060" stroke-width=".5" x="0" y="0" width="60" height="60"/>
  <use id="zoomplus" xlink:href="#zoomPlus" x="17" y="9" onmousedown="handleZoom(evt,'in')"/>
  <use id="zoomminus" xlink:href="#zoomMin" x="42" y="9" onmousedown="handleZoom(evt,'out')"/>
  <use id="reset" xlink:href="#resetDef" x="30" y="36" onmousedown="handleReset()"/>
   <use id="arrowup" xlink:href="#arrowUp" x="0" y="0" onmousedown="handlePan(0,-1)"/>
  <use id="arrowright" xlink:href="#arrowRight" x="0" y="0" onmousedown="handlePan(1,0)"/>
  <use id="arrowdown" xlink:href="#arrowDown" x="0" y="0" onmousedown="handlePan(0,1)"/>
  <use id="arrowleft" xlink:href="#arrowLeft" x="0" y="0" onmousedown="handlePan(-1,0)"/>
</g>
<svg viewBox="0 0 15 15" width="100%" height="30px" preserveAspectRatio="xMaxYMin meet">
 <g id="arrow_out" transform="scale(0.3 0.3)">
  <a xlink:href="classCommDialerParamsT__inherit__graph_org.svg" target="_base">
   <rect id="button" ry="5" rx="5" y="6" x="6" height="38" width="38"
        fill="#f2f5e9" fill-opacity="0.5" stroke="#606060" stroke-width="1.0"/>
   <path id="arrow"
     d="M 11.500037,31.436501 C 11.940474,20.09759 22.043105,11.32322 32.158766,21.979434 L 37.068811,17.246167 C 37.068811,17.246167 37.088388,32 37.088388,32 L 22.160133,31.978069 C 22.160133,31.978069 26.997745,27.140456 26.997745,27.140456 C 18.528582,18.264221 13.291696,25.230495 11.500037,31.436501 z"
     style="fill:#404040;"/>
  </a>
 </g>
</svg>

<style type='text/css'>
<![CDATA[
[data-mouse-over-selected='false'] { opacity: 0.7; }
[data-mouse-over-selected='true']  { opacity: 1.0; }
]]>
</style>
<script type="application/ecmascript"><![CDATA[
document.addEventListener('DOMContentLoaded', (event) => {
  highlightEdges();
  highlightAdjacentNodes();
});
]]></script>
</svg>
