<?xml version="1.0" encoding="UTF-8" standalone="no"?>
<!DOCTYPE svg PUBLIC "-//W3C//DTD SVG 1.1//EN"
 "http://www.w3.org/Graphics/SVG/1.1/DTD/svg11.dtd">
<!-- Generated by graphviz version 2.43.0 (0)
 -->
<!-- Title: squid/src/clientStream.h Pages: 1 -->
<svg width="692pt" height="247pt"
 viewBox="0.00 0.00 691.65 247.00" xmlns="http://www.w3.org/2000/svg" xmlns:xlink="http://www.w3.org/1999/xlink">
<g id="graph0" class="graph" transform="scale(1 1) rotate(0) translate(4 243)">
<title>squid/src/clientStream.h</title>
<!-- Node1 -->
<g id="Node000001" class="node">
<title>Node1</title>
<g id="a_Node000001"><a xlink:title=" ">
<polygon fill="#999999" stroke="#666666" points="375,-239 241,-239 241,-220 375,-220 375,-239"/>
<text text-anchor="middle" x="308" y="-227" font-family="Helvetica,sans-Serif" font-size="10.00">squid/src/clientStream.h</text>
</a>
</g>
</g>
<!-- Node2 -->
<g id="Node000002" class="node">
<title>Node2</title>
<g id="a_Node000002"><a xlink:href="RefCount_8h.html" target="_top" xlink:title=" ">
<polygon fill="white" stroke="#666666" points="165.5,-184 68.5,-184 68.5,-165 165.5,-165 165.5,-184"/>
<text text-anchor="middle" x="117" y="-172" font-family="Helvetica,sans-Serif" font-size="10.00">base/RefCount.h</text>
</a>
</g>
</g>
<!-- Node1&#45;&gt;Node2 -->
<g id="edge1_Node000001_Node000002" class="edge">
<title>Node1&#45;&gt;Node2</title>
<g id="a_edge1_Node000001_Node000002"><a xlink:title=" ">
<path fill="none" stroke="#63b8ff" d="M277.31,-219.98C244.83,-210.97 193.4,-196.7 157.59,-186.76"/>
<polygon fill="#63b8ff" stroke="#63b8ff" points="158.5,-183.38 147.93,-184.08 156.63,-190.13 158.5,-183.38"/>
</a>
</g>
</g>
<!-- Node6 -->
<g id="Node000006" class="node">
<title>Node6</title>
<g id="a_Node000006"><a xlink:href="clientStreamForward_8h.html" target="_top" xlink:title=" ">
<polygon fill="white" stroke="#666666" points="318.5,-184 191.5,-184 191.5,-165 318.5,-165 318.5,-184"/>
<text text-anchor="middle" x="255" y="-172" font-family="Helvetica,sans-Serif" font-size="10.00">clientStreamForward.h</text>
</a>
</g>
</g>
<!-- Node1&#45;&gt;Node6 -->
<g id="edge5_Node000001_Node000006" class="edge">
<title>Node1&#45;&gt;Node6</title>
<g id="a_edge5_Node000001_Node000006"><a xlink:title=" ">
<path fill="none" stroke="#63b8ff" d="M299.25,-219.75C291.53,-212.03 280.1,-200.6 270.78,-191.28"/>
<polygon fill="#63b8ff" stroke="#63b8ff" points="273.14,-188.69 263.59,-184.09 268.19,-193.64 273.14,-188.69"/>
</a>
</g>
</g>
<!-- Node8 -->
<g id="Node000008" class="node">
<title>Node8</title>
<g id="a_Node000008"><a xlink:href="dlink_8h.html" target="_top" xlink:title=" ">
<polygon fill="white" stroke="#666666" points="387,-184 337,-184 337,-165 387,-165 387,-184"/>
<text text-anchor="middle" x="362" y="-172" font-family="Helvetica,sans-Serif" font-size="10.00">dlink.h</text>
</a>
</g>
</g>
<!-- Node1&#45;&gt;Node8 -->
<g id="edge7_Node000001_Node000008" class="edge">
<title>Node1&#45;&gt;Node8</title>
<g id="a_edge7_Node000001_Node000008"><a xlink:title=" ">
<path fill="none" stroke="#63b8ff" d="M316.92,-219.75C324.78,-212.03 336.43,-200.6 345.92,-191.28"/>
<polygon fill="#63b8ff" stroke="#63b8ff" points="348.56,-193.59 353.25,-184.09 343.66,-188.6 348.56,-193.59"/>
</a>
</g>
</g>
<!-- Node12 -->
<g id="Node000012" class="node">
<title>Node12</title>
<g id="a_Node000012"><a xlink:href="StoreIOBuffer_8h.html" target="_top" xlink:title=" ">
<polygon fill="white" stroke="#666666" points="498,-184 408,-184 408,-165 498,-165 498,-184"/>
<text text-anchor="middle" x="453" y="-172" font-family="Helvetica,sans-Serif" font-size="10.00">StoreIOBuffer.h</text>
</a>
</g>
</g>
<!-- Node1&#45;&gt;Node12 -->
<g id="edge11_Node000001_Node000012" class="edge">
<title>Node1&#45;&gt;Node12</title>
<g id="a_edge11_Node000001_Node000012"><a xlink:title=" ">
<path fill="none" stroke="#63b8ff" d="M331.3,-219.98C355.25,-211.23 392.78,-197.51 419.83,-187.62"/>
<polygon fill="#63b8ff" stroke="#63b8ff" points="421.09,-190.89 429.28,-184.17 418.69,-184.32 421.09,-190.89"/>
</a>
</g>
</g>
<!-- Node3 -->
<g id="Node000003" class="node">
<title>Node3</title>
<g id="a_Node000003"><a xlink:href="Lock_8h.html" target="_top" xlink:title=" ">
<polygon fill="white" stroke="#666666" points="216,-129 142,-129 142,-110 216,-110 216,-129"/>
<text text-anchor="middle" x="179" y="-117" font-family="Helvetica,sans-Serif" font-size="10.00">base/Lock.h</text>
</a>
</g>
</g>
<!-- Node2&#45;&gt;Node3 -->
<g id="edge2_Node000002_Node000003" class="edge">
<title>Node2&#45;&gt;Node3</title>
<g id="a_edge2_Node000002_Node000003"><a xlink:title=" ">
<path fill="none" stroke="#63b8ff" d="M126.96,-164.98C136.13,-157.15 149.94,-145.34 161.03,-135.86"/>
<polygon fill="#63b8ff" stroke="#63b8ff" points="163.53,-138.33 168.86,-129.17 158.98,-133.01 163.53,-138.33"/>
</a>
</g>
</g>
<!-- Node4 -->
<g id="Node000004" class="node">
<title>Node4</title>
<g id="a_Node000004"><a xlink:title=" ">
<polygon fill="#e0e0e0" stroke="#999999" points="60,-129 0,-129 0,-110 60,-110 60,-129"/>
<text text-anchor="middle" x="30" y="-117" font-family="Helvetica,sans-Serif" font-size="10.00">iostream</text>
</a>
</g>
</g>
<!-- Node2&#45;&gt;Node4 -->
<g id="edge3_Node000002_Node000004" class="edge">
<title>Node2&#45;&gt;Node4</title>
<g id="a_edge3_Node000002_Node000004"><a xlink:title=" ">
<path fill="none" stroke="#63b8ff" d="M103.02,-164.98C89.53,-156.77 68.87,-144.18 52.96,-134.49"/>
<polygon fill="#63b8ff" stroke="#63b8ff" points="54.59,-131.38 44.23,-129.17 50.95,-137.36 54.59,-131.38"/>
</a>
</g>
</g>
<!-- Node5 -->
<g id="Node000005" class="node">
<title>Node5</title>
<g id="a_Node000005"><a xlink:title=" ">
<polygon fill="#e0e0e0" stroke="#999999" points="123.5,-129 78.5,-129 78.5,-110 123.5,-110 123.5,-129"/>
<text text-anchor="middle" x="101" y="-117" font-family="Helvetica,sans-Serif" font-size="10.00">utility</text>
</a>
</g>
</g>
<!-- Node2&#45;&gt;Node5 -->
<g id="edge4_Node000002_Node000005" class="edge">
<title>Node2&#45;&gt;Node5</title>
<g id="a_edge4_Node000002_Node000005"><a xlink:title=" ">
<path fill="none" stroke="#63b8ff" d="M114.36,-164.75C112.24,-157.72 109.19,-147.62 106.54,-138.84"/>
<polygon fill="#63b8ff" stroke="#63b8ff" points="109.83,-137.65 103.59,-129.09 103.13,-139.67 109.83,-137.65"/>
</a>
</g>
</g>
<!-- Node7 -->
<g id="Node000007" class="node">
<title>Node7</title>
<g id="a_Node000007"><a xlink:href="enums_8h.html" target="_top" xlink:title=" ">
<polygon fill="white" stroke="#666666" points="293.5,-129 234.5,-129 234.5,-110 293.5,-110 293.5,-129"/>
<text text-anchor="middle" x="264" y="-117" font-family="Helvetica,sans-Serif" font-size="10.00">enums.h</text>
</a>
</g>
</g>
<!-- Node6&#45;&gt;Node7 -->
<g id="edge6_Node000006_Node000007" class="edge">
<title>Node6&#45;&gt;Node7</title>
<g id="a_edge6_Node000006_Node000007"><a xlink:title=" ">
<path fill="none" stroke="#63b8ff" d="M256.49,-164.75C257.67,-157.8 259.36,-147.85 260.84,-139.13"/>
<polygon fill="#63b8ff" stroke="#63b8ff" points="264.32,-139.53 262.54,-129.09 257.42,-138.36 264.32,-139.53"/>
</a>
</g>
</g>
<!-- Node9 -->
<g id="Node000009" class="node">
<title>Node9</title>
<g id="a_Node000009"><a xlink:href="mem_2forward_8h.html" target="_top" xlink:title=" ">
<polygon fill="white" stroke="#666666" points="405,-74 313,-74 313,-55 405,-55 405,-74"/>
<text text-anchor="middle" x="359" y="-62" font-family="Helvetica,sans-Serif" font-size="10.00">mem/forward.h</text>
</a>
</g>
</g>
<!-- Node8&#45;&gt;Node9 -->
<g id="edge8_Node000008_Node000009" class="edge">
<title>Node8&#45;&gt;Node9</title>
<g id="a_edge8_Node000008_Node000009"><a xlink:title=" ">
<path fill="none" stroke="#63b8ff" d="M361.75,-164.66C361.27,-147.17 360.18,-107.8 359.52,-84.27"/>
<polygon fill="#63b8ff" stroke="#63b8ff" points="363.02,-84.06 359.24,-74.16 356.02,-84.25 363.02,-84.06"/>
</a>
</g>
</g>
<!-- Node10 -->
<g id="Node000010" class="node">
<title>Node10</title>
<g id="a_Node000010"><a xlink:href="AllocatorProxy_8h.html" target="_top" xlink:title=" ">
<polygon fill="white" stroke="#666666" points="421,-19 297,-19 297,0 421,0 421,-19"/>
<text text-anchor="middle" x="359" y="-7" font-family="Helvetica,sans-Serif" font-size="10.00">mem/AllocatorProxy.h</text>
</a>
</g>
</g>
<!-- Node9&#45;&gt;Node10 -->
<g id="edge9_Node000009_Node000010" class="edge">
<title>Node9&#45;&gt;Node10</title>
<g id="a_edge9_Node000009_Node000010"><a xlink:title=" ">
<path fill="none" stroke="#63b8ff" d="M359,-54.75C359,-47.8 359,-37.85 359,-29.13"/>
<polygon fill="#63b8ff" stroke="#63b8ff" points="362.5,-29.09 359,-19.09 355.5,-29.09 362.5,-29.09"/>
</a>
</g>
</g>
<!-- Node11 -->
<g id="Node000011" class="node">
<title>Node11</title>
<g id="a_Node000011"><a xlink:title=" ">
<polygon fill="#e0e0e0" stroke="#999999" points="605,-19 557,-19 557,0 605,0 605,-19"/>
<text text-anchor="middle" x="581" y="-7" font-family="Helvetica,sans-Serif" font-size="10.00">iosfwd</text>
</a>
</g>
</g>
<!-- Node9&#45;&gt;Node11 -->
<g id="edge10_Node000009_Node000011" class="edge">
<title>Node9&#45;&gt;Node11</title>
<g id="a_edge10_Node000009_Node000011"><a xlink:title=" ">
<path fill="none" stroke="#63b8ff" d="M394.67,-54.98C436.59,-44.98 505.65,-28.49 546.88,-18.64"/>
<polygon fill="#63b8ff" stroke="#63b8ff" points="547.82,-22.02 556.73,-16.29 546.2,-15.21 547.82,-22.02"/>
</a>
</g>
</g>
<!-- Node13 -->
<g id="Node000013" class="node">
<title>Node13</title>
<g id="a_Node000013"><a xlink:href="Range_8h.html" target="_top" xlink:title=" ">
<polygon fill="white" stroke="#666666" points="683.5,-129 600.5,-129 600.5,-110 683.5,-110 683.5,-129"/>
<text text-anchor="middle" x="642" y="-117" font-family="Helvetica,sans-Serif" font-size="10.00">base/Range.h</text>
</a>
</g>
</g>
<!-- Node12&#45;&gt;Node13 -->
<g id="edge12_Node000012_Node000013" class="edge">
<title>Node12&#45;&gt;Node13</title>
<g id="a_edge12_Node000012_Node000013"><a xlink:title=" ">
<path fill="none" stroke="#63b8ff" d="M483.37,-164.98C515.37,-156.01 565.96,-141.82 601.38,-131.89"/>
<polygon fill="#63b8ff" stroke="#63b8ff" points="602.71,-135.15 611.4,-129.08 600.82,-128.41 602.71,-135.15"/>
</a>
</g>
</g>
<!-- Node15 -->
<g id="Node000015" class="node">
<title>Node15</title>
<g id="a_Node000015"><a xlink:href="MemBuf_8h.html" target="_top" xlink:title=" ">
<polygon fill="white" stroke="#666666" points="486,-129 420,-129 420,-110 486,-110 486,-129"/>
<text text-anchor="middle" x="453" y="-117" font-family="Helvetica,sans-Serif" font-size="10.00">MemBuf.h</text>
</a>
</g>
</g>
<!-- Node12&#45;&gt;Node15 -->
<g id="edge15_Node000012_Node000015" class="edge">
<title>Node12&#45;&gt;Node15</title>
<g id="a_edge15_Node000012_Node000015"><a xlink:title=" ">
<path fill="none" stroke="#63b8ff" d="M453,-164.75C453,-157.8 453,-147.85 453,-139.13"/>
<polygon fill="#63b8ff" stroke="#63b8ff" points="456.5,-139.09 453,-129.09 449.5,-139.09 456.5,-139.09"/>
</a>
</g>
</g>
<!-- Node13&#45;&gt;Node11 -->
<g id="edge13_Node000013_Node000011" class="edge">
<title>Node13&#45;&gt;Node11</title>
<g id="a_edge13_Node000013_Node000011"><a xlink:title=" ">
<path fill="none" stroke="#63b8ff" d="M653.64,-109.96C668.94,-97.66 692.49,-74.31 680,-55 665.8,-33.05 637.91,-21.82 615.34,-16.14"/>
<polygon fill="#63b8ff" stroke="#63b8ff" points="615.94,-12.69 605.42,-13.9 614.4,-19.51 615.94,-12.69"/>
</a>
</g>
</g>
<!-- Node14 -->
<g id="Node000014" class="node">
<title>Node14</title>
<g id="a_Node000014"><a xlink:title=" ">
<polygon fill="#e0e0e0" stroke="#999999" points="670.5,-74 613.5,-74 613.5,-55 670.5,-55 670.5,-74"/>
<text text-anchor="middle" x="642" y="-62" font-family="Helvetica,sans-Serif" font-size="10.00">ostream</text>
</a>
</g>
</g>
<!-- Node13&#45;&gt;Node14 -->
<g id="edge14_Node000013_Node000014" class="edge">
<title>Node13&#45;&gt;Node14</title>
<g id="a_edge14_Node000013_Node000014"><a xlink:title=" ">
<path fill="none" stroke="#63b8ff" d="M642,-109.75C642,-102.8 642,-92.85 642,-84.13"/>
<polygon fill="#63b8ff" stroke="#63b8ff" points="645.5,-84.09 642,-74.09 638.5,-84.09 645.5,-84.09"/>
</a>
</g>
</g>
<!-- Node15&#45;&gt;Node9 -->
<g id="edge18_Node000015_Node000009" class="edge">
<title>Node15&#45;&gt;Node9</title>
<g id="a_edge18_Node000015_Node000009"><a xlink:title=" ">
<path fill="none" stroke="#63b8ff" d="M437.9,-109.98C423.18,-101.69 400.58,-88.94 383.33,-79.22"/>
<polygon fill="#63b8ff" stroke="#63b8ff" points="384.81,-76.03 374.38,-74.17 381.37,-82.13 384.81,-76.03"/>
</a>
</g>
</g>
<!-- Node16 -->
<g id="Node000016" class="node">
<title>Node16</title>
<g id="a_Node000016"><a xlink:href="Packable_8h.html" target="_top" xlink:title=" ">
<polygon fill="white" stroke="#666666" points="595.5,-74 500.5,-74 500.5,-55 595.5,-55 595.5,-74"/>
<text text-anchor="middle" x="548" y="-62" font-family="Helvetica,sans-Serif" font-size="10.00">base/Packable.h</text>
</a>
</g>
</g>
<!-- Node15&#45;&gt;Node16 -->
<g id="edge16_Node000015_Node000016" class="edge">
<title>Node15&#45;&gt;Node16</title>
<g id="a_edge16_Node000015_Node000016"><a xlink:title=" ">
<path fill="none" stroke="#63b8ff" d="M468.26,-109.98C483.13,-101.69 505.98,-88.94 523.42,-79.22"/>
<polygon fill="#63b8ff" stroke="#63b8ff" points="525.43,-82.1 532.46,-74.17 522.02,-75.99 525.43,-82.1"/>
</a>
</g>
</g>
<!-- Node17 -->
<g id="Node000017" class="node">
<title>Node17</title>
<g id="a_Node000017"><a xlink:href="cbdata_8h.html" target="_top" xlink:title=" ">
<polygon fill="white" stroke="#666666" points="482.5,-74 423.5,-74 423.5,-55 482.5,-55 482.5,-74"/>
<text text-anchor="middle" x="453" y="-62" font-family="Helvetica,sans-Serif" font-size="10.00">cbdata.h</text>
</a>
</g>
</g>
<!-- Node15&#45;&gt;Node17 -->
<g id="edge17_Node000015_Node000017" class="edge">
<title>Node15&#45;&gt;Node17</title>
<g id="a_edge17_Node000015_Node000017"><a xlink:title=" ">
<path fill="none" stroke="#63b8ff" d="M453,-109.75C453,-102.8 453,-92.85 453,-84.13"/>
<polygon fill="#63b8ff" stroke="#63b8ff" points="456.5,-84.09 453,-74.09 449.5,-84.09 456.5,-84.09"/>
</a>
</g>
</g>
</g>
</svg>
