<?xml version="1.0" encoding="UTF-8" standalone="no"?>
<!DOCTYPE svg PUBLIC "-//W3C//DTD SVG 1.1//EN"
 "http://www.w3.org/Graphics/SVG/1.1/DTD/svg11.dtd">
<!-- Generated by graphviz version 2.43.0 (0)
 -->
<!-- Title: squid/src/comm/minimal.cc Pages: 1 -->
<!--zoomable 302 -->

<svg id="main" version="1.1" xmlns="http://www.w3.org/2000/svg" xmlns:xlink="http://www.w3.org/1999/xlink" xml:space="preserve" onload="init(evt)">
<style type="text/css"><![CDATA[
.node, .edge {opacity: 0.7;}
.node.selected, .edge.selected {opacity: 1;}
.edge:hover path { stroke: red; }
.edge:hover polygon { stroke: red; fill: red; }
]]></style>

<defs>
  <circle id="rim" cx="0" cy="0" r="7"/>
  <circle id="rim2" cx="0" cy="0" r="3.5"/>
  <g id="zoomPlus">
    <use xlink:href="#rim" fill="#404040"><set attributeName="fill" to="#808080" begin="zoomplus.mouseover" end="zoomplus.mouseout"/></use>
    <path d="M-4,0h8M0,-4v8" fill="none" stroke="white" stroke-width="1.5" pointer-events="none"/>
  </g>
  <g id="zoomMin">
    <use xlink:href="#rim" fill="#404040"><set attributeName="fill" to="#808080" begin="zoomminus.mouseover" end="zoomminus.mouseout"/></use>
    <path d="M-4,0h8" fill="none" stroke="white" stroke-width="1.5" pointer-events="none"/>
  </g>
  <g id="arrowUp" transform="translate(30 24)">
    <use xlink:href="#rim"/>
    <path pointer-events="none" fill="none" stroke="white" stroke-width="1.5" d="M0,-3.0v7 M-2.5,-0.5L0,-3.0L2.5,-0.5"/>
  </g>
  <g id="arrowRight" transform="rotate(90) translate(36 -43)">
    <use xlink:href="#rim"/>
    <path pointer-events="none" fill="none" stroke="white" stroke-width="1.5" d="M0,-3.0v7 M-2.5,-0.5L0,-3.0L2.5,-0.5"/>
  </g>
  <g id="arrowDown" transform="rotate(180) translate(-30 -48)">
    <use xlink:href="#rim"/>
    <path pointer-events="none" fill="none" stroke="white" stroke-width="1.5" d="M0,-3.0v7 M-2.5,-0.5L0,-3.0L2.5,-0.5"/>
  </g>
  <g id="arrowLeft" transform="rotate(270) translate(-36 17)">
    <use xlink:href="#rim"/>
    <path pointer-events="none" fill="none" stroke="white" stroke-width="1.5" d="M0,-3.0v7 M-2.5,-0.5L0,-3.0L2.5,-0.5"/>
  </g>
  <g id="resetDef">
    <use xlink:href="#rim2" fill="#404040"><set attributeName="fill" to="#808080" begin="reset.mouseover" end="reset.mouseout"/></use>
  </g>
</defs>
<script type="application/ecmascript">
var viewWidth = 4205;
var viewHeight = 302;
var sectionId = 'dynsection-0';
</script>
<script type="application/ecmascript" xlink:href="svg.min.js"/>
<svg id="graph" class="graph">
<g id="viewport">
<title>squid/src/comm/minimal.cc</title>
<!-- Node1 -->
<g id="Node000001" class="node">
<title>Node1</title>
<g id="a_Node000001"><a xlink:title=" ">
<polygon fill="#999999" stroke="#666666" points="4071,-294 3920,-294 3920,-275 4071,-275 4071,-294"/>
<text text-anchor="middle" x="3995.5" y="-282" font-family="Helvetica,sans-Serif" font-size="10.00">squid/src/comm/minimal.cc</text>
</a>
</g>
</g>
<!-- Node2 -->
<g id="Node000002" class="node">
<title>Node2</title>
<g id="a_Node000002"><a xlink:href="squid_8h.html" target="_top" xlink:title=" ">
<polygon fill="white" stroke="#666666" points="1728.5,-239 1676.5,-239 1676.5,-220 1728.5,-220 1728.5,-239"/>
<text text-anchor="middle" x="1702.5" y="-227" font-family="Helvetica,sans-Serif" font-size="10.00">squid.h</text>
</a>
</g>
</g>
<!-- Node1&#45;&gt;Node2 -->
<g id="edge1_Node000001_Node000002" class="edge">
<title>Node1&#45;&gt;Node2</title>
<g id="a_edge1_Node000001_Node000002"><a xlink:title=" ">
<path fill="none" stroke="#63b8ff" d="M3919.86,-281.75C3556.62,-273.36 1998.21,-237.33 1739.08,-231.35"/>
<polygon fill="#63b8ff" stroke="#63b8ff" points="1738.81,-227.84 1728.73,-231.11 1738.65,-234.84 1738.81,-227.84"/>
</a>
</g>
</g>
<!-- Node44 -->
<g id="Node000044" class="node">
<title>Node44</title>
<g id="a_Node000044"><a xlink:href="comm_8h.html" target="_top" xlink:title=" ">
<polygon fill="white" stroke="#666666" points="3823.5,-239 3767.5,-239 3767.5,-220 3823.5,-220 3823.5,-239"/>
<text text-anchor="middle" x="3795.5" y="-227" font-family="Helvetica,sans-Serif" font-size="10.00">comm.h</text>
</a>
</g>
</g>
<!-- Node1&#45;&gt;Node44 -->
<g id="edge30_Node000001_Node000044" class="edge">
<title>Node1&#45;&gt;Node44</title>
<g id="a_edge30_Node000001_Node000044"><a xlink:title=" ">
<path fill="none" stroke="#63b8ff" d="M3963.37,-274.98C3928.04,-265.62 3871.32,-250.59 3833.73,-240.63"/>
<polygon fill="#63b8ff" stroke="#63b8ff" points="3834.24,-237.14 3823.67,-237.97 3832.44,-243.91 3834.24,-237.14"/>
</a>
</g>
</g>
<!-- Node78 -->
<g id="Node000078" class="node">
<title>Node78</title>
<g id="a_Node000078"><a xlink:href="debug_2Stream_8h.html" target="_top" xlink:title=" ">
<polygon fill="white" stroke="#666666" points="4043.5,-74 3949.5,-74 3949.5,-55 4043.5,-55 4043.5,-74"/>
<text text-anchor="middle" x="3996.5" y="-62" font-family="Helvetica,sans-Serif" font-size="10.00">debug/Stream.h</text>
</a>
</g>
</g>
<!-- Node1&#45;&gt;Node78 -->
<g id="edge53_Node000001_Node000078" class="edge">
<title>Node1&#45;&gt;Node78</title>
<g id="a_edge53_Node000001_Node000078"><a xlink:title=" ">
<path fill="none" stroke="#63b8ff" d="M4009.59,-275C4049.59,-249.79 4158.24,-173.24 4114.5,-110 4100.61,-89.92 4076.44,-78.89 4053.57,-72.84"/>
<polygon fill="#63b8ff" stroke="#63b8ff" points="4054.08,-69.36 4043.54,-70.46 4052.47,-76.17 4054.08,-69.36"/>
</a>
</g>
</g>
<!-- Node144 -->
<g id="Node000144" class="node">
<title>Node144</title>
<g id="a_Node000144"><a xlink:href="fd_8h.html" target="_top" xlink:title=" ">
<polygon fill="white" stroke="#666666" points="4197,-239 4162,-239 4162,-220 4197,-220 4197,-239"/>
<text text-anchor="middle" x="4179.5" y="-227" font-family="Helvetica,sans-Serif" font-size="10.00">fd.h</text>
</a>
</g>
</g>
<!-- Node1&#45;&gt;Node144 -->
<g id="edge54_Node000001_Node000144" class="edge">
<title>Node1&#45;&gt;Node144</title>
<g id="a_edge54_Node000001_Node000144"><a xlink:title=" ">
<path fill="none" stroke="#63b8ff" d="M4025.06,-274.98C4060.05,-264.91 4117.84,-248.26 4151.93,-238.44"/>
<polygon fill="#63b8ff" stroke="#63b8ff" points="4153.05,-241.76 4161.7,-235.63 4151.12,-235.03 4153.05,-241.76"/>
</a>
</g>
</g>
<!-- Node3 -->
<g id="Node000003" class="node">
<title>Node3</title>
<g id="a_Node000003"><a xlink:href="autoconf_8h.html" target="_top" xlink:title=" ">
<polygon fill="white" stroke="#666666" points="1787.5,-184 1719.5,-184 1719.5,-165 1787.5,-165 1787.5,-184"/>
<text text-anchor="middle" x="1753.5" y="-172" font-family="Helvetica,sans-Serif" font-size="10.00">autoconf.h</text>
</a>
</g>
</g>
<!-- Node2&#45;&gt;Node3 -->
<g id="edge2_Node000002_Node000003" class="edge">
<title>Node2&#45;&gt;Node3</title>
<g id="a_edge2_Node000002_Node000003"><a xlink:title=" ">
<path fill="none" stroke="#63b8ff" d="M1710.92,-219.75C1718.27,-212.11 1729.13,-200.82 1738.04,-191.56"/>
<polygon fill="#63b8ff" stroke="#63b8ff" points="1740.82,-193.72 1745.24,-184.09 1735.78,-188.87 1740.82,-193.72"/>
</a>
</g>
</g>
<!-- Node4 -->
<g id="Node000004" class="node">
<title>Node4</title>
<g id="a_Node000004"><a xlink:href="version_8h.html" target="_top" xlink:title=" ">
<polygon fill="white" stroke="#666666" points="1581.5,-184 1519.5,-184 1519.5,-165 1581.5,-165 1581.5,-184"/>
<text text-anchor="middle" x="1550.5" y="-172" font-family="Helvetica,sans-Serif" font-size="10.00">version.h</text>
</a>
</g>
</g>
<!-- Node2&#45;&gt;Node4 -->
<g id="edge3_Node000002_Node000004" class="edge">
<title>Node2&#45;&gt;Node4</title>
<g id="a_edge3_Node000002_Node000004"><a xlink:title=" ">
<path fill="none" stroke="#63b8ff" d="M1678.08,-219.98C1652.78,-211.16 1613.05,-197.31 1584.64,-187.41"/>
<polygon fill="#63b8ff" stroke="#63b8ff" points="1585.71,-184.07 1575.11,-184.08 1583.4,-190.68 1585.71,-184.07"/>
</a>
</g>
</g>
<!-- Node5 -->
<g id="Node000005" class="node">
<title>Node5</title>
<g id="a_Node000005"><a xlink:href="compat_8h.html" target="_top" xlink:title=" ">
<polygon fill="white" stroke="#666666" points="1701.5,-184 1599.5,-184 1599.5,-165 1701.5,-165 1701.5,-184"/>
<text text-anchor="middle" x="1650.5" y="-172" font-family="Helvetica,sans-Serif" font-size="10.00">compat/compat.h</text>
</a>
</g>
</g>
<!-- Node2&#45;&gt;Node5 -->
<g id="edge4_Node000002_Node000005" class="edge">
<title>Node2&#45;&gt;Node5</title>
<g id="a_edge4_Node000002_Node000005"><a xlink:title=" ">
<path fill="none" stroke="#63b8ff" d="M1693.91,-219.75C1686.34,-212.03 1675.12,-200.6 1665.99,-191.28"/>
<polygon fill="#63b8ff" stroke="#63b8ff" points="1668.43,-188.78 1658.93,-184.09 1663.43,-193.68 1668.43,-188.78"/>
</a>
</g>
</g>
<!-- Node6 -->
<g id="Node000006" class="node">
<title>Node6</title>
<g id="a_Node000006"><a xlink:href="osdetect_8h.html" target="_top" xlink:title=" ">
<polygon fill="white" stroke="#666666" points="1887,-129 1780,-129 1780,-110 1887,-110 1887,-129"/>
<text text-anchor="middle" x="1833.5" y="-117" font-family="Helvetica,sans-Serif" font-size="10.00">compat/osdetect.h</text>
</a>
</g>
</g>
<!-- Node5&#45;&gt;Node6 -->
<g id="edge5_Node000005_Node000006" class="edge">
<title>Node5&#45;&gt;Node6</title>
<g id="a_edge5_Node000005_Node000006"><a xlink:title=" ">
<path fill="none" stroke="#63b8ff" d="M1679.9,-164.98C1710.89,-156.01 1759.88,-141.82 1794.17,-131.89"/>
<polygon fill="#63b8ff" stroke="#63b8ff" points="1795.24,-135.23 1803.87,-129.08 1793.29,-128.5 1795.24,-135.23"/>
</a>
</g>
</g>
<!-- Node7 -->
<g id="Node000007" class="node">
<title>Node7</title>
<g id="a_Node000007"><a xlink:href="fdsetsize_8h.html" target="_top" xlink:title=" ">
<polygon fill="white" stroke="#666666" points="2015.5,-129 1905.5,-129 1905.5,-110 2015.5,-110 2015.5,-129"/>
<text text-anchor="middle" x="1960.5" y="-117" font-family="Helvetica,sans-Serif" font-size="10.00">compat/fdsetsize.h</text>
</a>
</g>
</g>
<!-- Node5&#45;&gt;Node7 -->
<g id="edge6_Node000005_Node000007" class="edge">
<title>Node5&#45;&gt;Node7</title>
<g id="a_edge6_Node000005_Node000007"><a xlink:title=" ">
<path fill="none" stroke="#63b8ff" d="M1700.31,-164.98C1754.8,-155.67 1842.13,-140.74 1900.39,-130.78"/>
<polygon fill="#63b8ff" stroke="#63b8ff" points="1901.29,-134.17 1910.56,-129.04 1900.11,-127.27 1901.29,-134.17"/>
</a>
</g>
</g>
<!-- Node8 -->
<g id="Node000008" class="node">
<title>Node8</title>
<g id="a_Node000008"><a xlink:href="types_8h.html" target="_top" xlink:title=" ">
<polygon fill="#fff0f0" stroke="red" points="2125.5,-129 2033.5,-129 2033.5,-110 2125.5,-110 2125.5,-129"/>
<text text-anchor="middle" x="2079.5" y="-117" font-family="Helvetica,sans-Serif" font-size="10.00">compat/types.h</text>
</a>
</g>
</g>
<!-- Node5&#45;&gt;Node8 -->
<g id="edge7_Node000005_Node000008" class="edge">
<title>Node5&#45;&gt;Node8</title>
<g id="a_edge7_Node000005_Node000008"><a xlink:title=" ">
<path fill="none" stroke="#63b8ff" d="M1701.55,-166.17C1704.58,-165.77 1707.58,-165.37 1710.5,-165 1846.57,-147.57 1883.57,-147.71 2023.08,-129.14"/>
<polygon fill="#63b8ff" stroke="#63b8ff" points="2023.86,-132.57 2033.31,-127.77 2022.93,-125.63 2023.86,-132.57"/>
</a>
</g>
</g>
<!-- Node10 -->
<g id="Node000010" class="node">
<title>Node10</title>
<g id="a_Node000010"><a xlink:href="aix_8h.html" target="_top" xlink:title=" ">
<polygon fill="white" stroke="#666666" points="2239,-129 2144,-129 2144,-110 2239,-110 2239,-129"/>
<text text-anchor="middle" x="2191.5" y="-117" font-family="Helvetica,sans-Serif" font-size="10.00">compat/os/aix.h</text>
</a>
</g>
</g>
<!-- Node5&#45;&gt;Node10 -->
<g id="edge8_Node000005_Node000010" class="edge">
<title>Node5&#45;&gt;Node10</title>
<g id="a_edge8_Node000005_Node000010"><a xlink:title=" ">
<path fill="none" stroke="#63b8ff" d="M1701.54,-166.07C1704.57,-165.69 1707.57,-165.33 1710.5,-165 1895.21,-144.09 1944.97,-150.72 2133.96,-128.98"/>
<polygon fill="#63b8ff" stroke="#63b8ff" points="2134.41,-132.45 2143.94,-127.82 2133.61,-125.5 2134.41,-132.45"/>
</a>
</g>
</g>
<!-- Node11 -->
<g id="Node000011" class="node">
<title>Node11</title>
<g id="a_Node000011"><a xlink:href="android_8h.html" target="_top" xlink:title=" ">
<polygon fill="white" stroke="#666666" points="2373.5,-129 2257.5,-129 2257.5,-110 2373.5,-110 2373.5,-129"/>
<text text-anchor="middle" x="2315.5" y="-117" font-family="Helvetica,sans-Serif" font-size="10.00">compat/os/android.h</text>
</a>
</g>
</g>
<!-- Node5&#45;&gt;Node11 -->
<g id="edge9_Node000005_Node000011" class="edge">
<title>Node5&#45;&gt;Node11</title>
<g id="a_edge9_Node000005_Node000011"><a xlink:title=" ">
<path fill="none" stroke="#63b8ff" d="M1701.53,-166.01C1704.56,-165.65 1707.57,-165.31 1710.5,-165 1945.16,-140.55 2007.69,-151.53 2247.22,-128.96"/>
<polygon fill="#63b8ff" stroke="#63b8ff" points="2247.66,-132.43 2257.29,-128 2247,-125.46 2247.66,-132.43"/>
</a>
</g>
</g>
<!-- Node12 -->
<g id="Node000012" class="node">
<title>Node12</title>
<g id="a_Node000012"><a xlink:href="dragonfly_8h.html" target="_top" xlink:title=" ">
<polygon fill="white" stroke="#666666" points="2515.5,-129 2391.5,-129 2391.5,-110 2515.5,-110 2515.5,-129"/>
<text text-anchor="middle" x="2453.5" y="-117" font-family="Helvetica,sans-Serif" font-size="10.00">compat/os/dragonfly.h</text>
</a>
</g>
</g>
<!-- Node5&#45;&gt;Node12 -->
<g id="edge10_Node000005_Node000012" class="edge">
<title>Node5&#45;&gt;Node12</title>
<g id="a_edge10_Node000005_Node000012"><a xlink:title=" ">
<path fill="none" stroke="#63b8ff" d="M1701.53,-165.96C1704.56,-165.61 1707.57,-165.29 1710.5,-165 2004.84,-136.32 2082.78,-154.37 2380.94,-129.07"/>
<polygon fill="#63b8ff" stroke="#63b8ff" points="2381.52,-132.54 2391.19,-128.19 2380.92,-125.56 2381.52,-132.54"/>
</a>
</g>
</g>
<!-- Node13 -->
<g id="Node000013" class="node">
<title>Node13</title>
<g id="a_Node000013"><a xlink:href="freebsd_8h.html" target="_top" xlink:title=" ">
<polygon fill="white" stroke="#666666" points="2649.5,-129 2533.5,-129 2533.5,-110 2649.5,-110 2649.5,-129"/>
<text text-anchor="middle" x="2591.5" y="-117" font-family="Helvetica,sans-Serif" font-size="10.00">compat/os/freebsd.h</text>
</a>
</g>
</g>
<!-- Node5&#45;&gt;Node13 -->
<g id="edge11_Node000005_Node000013" class="edge">
<title>Node5&#45;&gt;Node13</title>
<g id="a_edge11_Node000005_Node000013"><a xlink:title=" ">
<path fill="none" stroke="#63b8ff" d="M1701.52,-165.93C1704.56,-165.59 1707.57,-165.27 1710.5,-165 2067.74,-131.87 2161.94,-159.3 2523.21,-129.03"/>
<polygon fill="#63b8ff" stroke="#63b8ff" points="2523.76,-132.49 2533.43,-128.16 2523.17,-125.52 2523.76,-132.49"/>
</a>
</g>
</g>
<!-- Node14 -->
<g id="Node000014" class="node">
<title>Node14</title>
<g id="a_Node000014"><a xlink:href="hpux_8h.html" target="_top" xlink:title=" ">
<polygon fill="white" stroke="#666666" points="2771.5,-129 2667.5,-129 2667.5,-110 2771.5,-110 2771.5,-129"/>
<text text-anchor="middle" x="2719.5" y="-117" font-family="Helvetica,sans-Serif" font-size="10.00">compat/os/hpux.h</text>
</a>
</g>
</g>
<!-- Node5&#45;&gt;Node14 -->
<g id="edge12_Node000005_Node000014" class="edge">
<title>Node5&#45;&gt;Node14</title>
<g id="a_edge12_Node000005_Node000014"><a xlink:title=" ">
<path fill="none" stroke="#63b8ff" d="M1701.52,-165.91C1704.56,-165.57 1707.57,-165.26 1710.5,-165 2127.17,-127.67 2236.79,-165.54 2657.3,-129"/>
<polygon fill="#63b8ff" stroke="#63b8ff" points="2657.64,-132.49 2667.3,-128.13 2657.03,-125.51 2657.64,-132.49"/>
</a>
</g>
</g>
<!-- Node15 -->
<g id="Node000015" class="node">
<title>Node15</title>
<g id="a_Node000015"><a xlink:href="linux_8h.html" target="_top" xlink:title=" ">
<polygon fill="white" stroke="#666666" points="2893.5,-129 2789.5,-129 2789.5,-110 2893.5,-110 2893.5,-129"/>
<text text-anchor="middle" x="2841.5" y="-117" font-family="Helvetica,sans-Serif" font-size="10.00">compat/os/linux.h</text>
</a>
</g>
</g>
<!-- Node5&#45;&gt;Node15 -->
<g id="edge13_Node000005_Node000015" class="edge">
<title>Node5&#45;&gt;Node15</title>
<g id="a_edge13_Node000005_Node000015"><a xlink:title=" ">
<path fill="none" stroke="#63b8ff" d="M1701.52,-165.89C1704.55,-165.56 1707.57,-165.26 1710.5,-165 2181.16,-123.86 2304.69,-169.24 2779.1,-129.01"/>
<polygon fill="#63b8ff" stroke="#63b8ff" points="2779.63,-132.48 2789.3,-128.14 2779.04,-125.51 2779.63,-132.48"/>
</a>
</g>
</g>
<!-- Node16 -->
<g id="Node000016" class="node">
<title>Node16</title>
<g id="a_Node000016"><a xlink:href="macosx_8h.html" target="_top" xlink:title=" ">
<polygon fill="white" stroke="#666666" points="3029.5,-129 2911.5,-129 2911.5,-110 3029.5,-110 3029.5,-129"/>
<text text-anchor="middle" x="2970.5" y="-117" font-family="Helvetica,sans-Serif" font-size="10.00">compat/os/macosx.h</text>
</a>
</g>
</g>
<!-- Node5&#45;&gt;Node16 -->
<g id="edge14_Node000005_Node000016" class="edge">
<title>Node5&#45;&gt;Node16</title>
<g id="a_edge14_Node000005_Node000016"><a xlink:title=" ">
<path fill="none" stroke="#63b8ff" d="M1701.52,-165.88C1704.55,-165.55 1707.56,-165.25 1710.5,-165 2235.23,-120.05 2372.33,-169.28 2901.01,-129.03"/>
<polygon fill="#63b8ff" stroke="#63b8ff" points="2901.49,-132.5 2911.2,-128.25 2900.96,-125.52 2901.49,-132.5"/>
</a>
</g>
</g>
<!-- Node17 -->
<g id="Node000017" class="node">
<title>Node17</title>
<g id="a_Node000017"><a xlink:href="mingw_8h.html" target="_top" xlink:title=" ">
<polygon fill="white" stroke="#666666" points="3159.5,-129 3047.5,-129 3047.5,-110 3159.5,-110 3159.5,-129"/>
<text text-anchor="middle" x="3103.5" y="-117" font-family="Helvetica,sans-Serif" font-size="10.00">compat/os/mingw.h</text>
</a>
</g>
</g>
<!-- Node5&#45;&gt;Node17 -->
<g id="edge15_Node000005_Node000017" class="edge">
<title>Node5&#45;&gt;Node17</title>
<g id="a_edge15_Node000005_Node000017"><a xlink:title=" ">
<path fill="none" stroke="#63b8ff" d="M1701.52,-165.87C1704.55,-165.54 1707.56,-165.25 1710.5,-165 2295.56,-115.79 2448.17,-174.67 3037.15,-129.01"/>
<polygon fill="#63b8ff" stroke="#63b8ff" points="3037.47,-132.5 3047.17,-128.23 3036.92,-125.52 3037.47,-132.5"/>
</a>
</g>
</g>
<!-- Node18 -->
<g id="Node000018" class="node">
<title>Node18</title>
<g id="a_Node000018"><a xlink:href="mswindows_8h.html" target="_top" xlink:title=" ">
<polygon fill="white" stroke="#666666" points="137,-129 0,-129 0,-110 137,-110 137,-129"/>
<text text-anchor="middle" x="68.5" y="-117" font-family="Helvetica,sans-Serif" font-size="10.00">compat/os/mswindows.h</text>
</a>
</g>
</g>
<!-- Node5&#45;&gt;Node18 -->
<g id="edge16_Node000005_Node000018" class="edge">
<title>Node5&#45;&gt;Node18</title>
<g id="a_edge16_Node000005_Node000018"><a xlink:title=" ">
<path fill="none" stroke="#63b8ff" d="M1599.48,-165.86C1596.45,-165.54 1593.44,-165.24 1590.5,-165 953.72,-112.14 788.24,-171.64 147.74,-129.09"/>
<polygon fill="#63b8ff" stroke="#63b8ff" points="147.53,-125.57 137.32,-128.39 147.06,-132.55 147.53,-125.57"/>
</a>
</g>
</g>
<!-- Node19 -->
<g id="Node000019" class="node">
<title>Node19</title>
<g id="a_Node000019"><a xlink:href="netbsd_8h.html" target="_top" xlink:title=" ">
<polygon fill="white" stroke="#666666" points="268,-129 155,-129 155,-110 268,-110 268,-129"/>
<text text-anchor="middle" x="211.5" y="-117" font-family="Helvetica,sans-Serif" font-size="10.00">compat/os/netbsd.h</text>
</a>
</g>
</g>
<!-- Node5&#45;&gt;Node19 -->
<g id="edge17_Node000005_Node000019" class="edge">
<title>Node5&#45;&gt;Node19</title>
<g id="a_edge17_Node000005_Node000019"><a xlink:title=" ">
<path fill="none" stroke="#63b8ff" d="M1599.48,-165.87C1596.45,-165.54 1593.44,-165.25 1590.5,-165 1011.75,-116.24 860.68,-174.25 278.52,-129.07"/>
<polygon fill="#63b8ff" stroke="#63b8ff" points="278.43,-125.55 268.18,-128.26 277.88,-132.53 278.43,-125.55"/>
</a>
</g>
</g>
<!-- Node20 -->
<g id="Node000020" class="node">
<title>Node20</title>
<g id="a_Node000020"><a xlink:href="openbsd_8h.html" target="_top" xlink:title=" ">
<polygon fill="white" stroke="#666666" points="407,-129 286,-129 286,-110 407,-110 407,-129"/>
<text text-anchor="middle" x="346.5" y="-117" font-family="Helvetica,sans-Serif" font-size="10.00">compat/os/openbsd.h</text>
</a>
</g>
</g>
<!-- Node5&#45;&gt;Node20 -->
<g id="edge18_Node000005_Node000020" class="edge">
<title>Node5&#45;&gt;Node20</title>
<g id="a_edge18_Node000005_Node000020"><a xlink:title=" ">
<path fill="none" stroke="#63b8ff" d="M1599.48,-165.88C1596.45,-165.55 1593.43,-165.25 1590.5,-165 1073.25,-120.57 938.15,-168.37 417.08,-129.04"/>
<polygon fill="#63b8ff" stroke="#63b8ff" points="417.29,-125.55 407.05,-128.28 416.76,-132.53 417.29,-125.55"/>
</a>
</g>
</g>
<!-- Node21 -->
<g id="Node000021" class="node">
<title>Node21</title>
<g id="a_Node000021"><a xlink:href="os2_8h.html" target="_top" xlink:title=" ">
<polygon fill="white" stroke="#666666" points="522,-129 425,-129 425,-110 522,-110 522,-129"/>
<text text-anchor="middle" x="473.5" y="-117" font-family="Helvetica,sans-Serif" font-size="10.00">compat/os/os2.h</text>
</a>
</g>
</g>
<!-- Node5&#45;&gt;Node21 -->
<g id="edge19_Node000005_Node000021" class="edge">
<title>Node5&#45;&gt;Node21</title>
<g id="a_edge19_Node000005_Node000021"><a xlink:title=" ">
<path fill="none" stroke="#63b8ff" d="M1599.48,-165.89C1596.44,-165.56 1593.43,-165.26 1590.5,-165 1124.68,-124.2 1002.27,-170.54 532.29,-128.94"/>
<polygon fill="#63b8ff" stroke="#63b8ff" points="532.46,-125.44 522.19,-128.04 531.84,-132.41 532.46,-125.44"/>
</a>
</g>
</g>
<!-- Node22 -->
<g id="Node000022" class="node">
<title>Node22</title>
<g id="a_Node000022"><a xlink:href="qnx_8h.html" target="_top" xlink:title=" ">
<polygon fill="white" stroke="#666666" points="638.5,-129 540.5,-129 540.5,-110 638.5,-110 638.5,-129"/>
<text text-anchor="middle" x="589.5" y="-117" font-family="Helvetica,sans-Serif" font-size="10.00">compat/os/qnx.h</text>
</a>
</g>
</g>
<!-- Node5&#45;&gt;Node22 -->
<g id="edge20_Node000005_Node000022" class="edge">
<title>Node5&#45;&gt;Node22</title>
<g id="a_edge20_Node000005_Node000022"><a xlink:title=" ">
<path fill="none" stroke="#63b8ff" d="M1599.48,-165.91C1596.44,-165.57 1593.43,-165.26 1590.5,-165 1176.13,-127.84 1066.9,-166.83 648.75,-129"/>
<polygon fill="#63b8ff" stroke="#63b8ff" points="648.78,-125.48 638.5,-128.06 648.14,-132.45 648.78,-125.48"/>
</a>
</g>
</g>
<!-- Node23 -->
<g id="Node000023" class="node">
<title>Node23</title>
<g id="a_Node000023"><a xlink:href="solaris_8h.html" target="_top" xlink:title=" ">
<polygon fill="white" stroke="#666666" points="768.5,-129 656.5,-129 656.5,-110 768.5,-110 768.5,-129"/>
<text text-anchor="middle" x="712.5" y="-117" font-family="Helvetica,sans-Serif" font-size="10.00">compat/os/solaris.h</text>
</a>
</g>
</g>
<!-- Node5&#45;&gt;Node23 -->
<g id="edge21_Node000005_Node000023" class="edge">
<title>Node5&#45;&gt;Node23</title>
<g id="a_edge21_Node000005_Node000023"><a xlink:title=" ">
<path fill="none" stroke="#63b8ff" d="M1599.48,-165.93C1596.44,-165.59 1593.43,-165.27 1590.5,-165 1233.7,-131.9 1139.56,-159.95 779.04,-129.05"/>
<polygon fill="#63b8ff" stroke="#63b8ff" points="779.1,-125.54 768.84,-128.17 778.5,-132.52 779.1,-125.54"/>
</a>
</g>
</g>
<!-- Node24 -->
<g id="Node000024" class="node">
<title>Node24</title>
<g id="a_Node000024"><a xlink:href="sunos_8h.html" target="_top" xlink:title=" ">
<polygon fill="white" stroke="#666666" points="894.5,-129 786.5,-129 786.5,-110 894.5,-110 894.5,-129"/>
<text text-anchor="middle" x="840.5" y="-117" font-family="Helvetica,sans-Serif" font-size="10.00">compat/os/sunos.h</text>
</a>
</g>
</g>
<!-- Node5&#45;&gt;Node24 -->
<g id="edge22_Node000005_Node000024" class="edge">
<title>Node5&#45;&gt;Node24</title>
<g id="a_edge22_Node000005_Node000024"><a xlink:title=" ">
<path fill="none" stroke="#63b8ff" d="M1599.47,-165.96C1596.44,-165.61 1593.43,-165.28 1590.5,-165 1289.44,-135.84 1209.63,-157 904.78,-129.04"/>
<polygon fill="#63b8ff" stroke="#63b8ff" points="905.04,-125.55 894.76,-128.11 904.4,-132.52 905.04,-125.55"/>
</a>
</g>
</g>
<!-- Node25 -->
<g id="Node000025" class="node">
<title>Node25</title>
<g id="a_Node000025"><a xlink:href="assert_8h.html" target="_top" xlink:title=" ">
<polygon fill="white" stroke="#666666" points="1008,-129 913,-129 913,-110 1008,-110 1008,-129"/>
<text text-anchor="middle" x="960.5" y="-117" font-family="Helvetica,sans-Serif" font-size="10.00">compat/assert.h</text>
</a>
</g>
</g>
<!-- Node5&#45;&gt;Node25 -->
<g id="edge23_Node000005_Node000025" class="edge">
<title>Node5&#45;&gt;Node25</title>
<g id="a_edge23_Node000005_Node000025"><a xlink:title=" ">
<path fill="none" stroke="#63b8ff" d="M1599.47,-165.99C1596.44,-165.63 1593.43,-165.3 1590.5,-165 1340,-139.43 1273.01,-155.41 1018.35,-128.98"/>
<polygon fill="#63b8ff" stroke="#63b8ff" points="1018.36,-125.46 1008.05,-127.9 1017.63,-132.43 1018.36,-125.46"/>
</a>
</g>
</g>
<!-- Node26 -->
<g id="Node000026" class="node">
<title>Node26</title>
<g id="a_Node000026"><a xlink:href="compat__shared_8h.html" target="_top" xlink:title=" ">
<polygon fill="#fff0f0" stroke="red" points="1166.5,-129 1026.5,-129 1026.5,-110 1166.5,-110 1166.5,-129"/>
<text text-anchor="middle" x="1096.5" y="-117" font-family="Helvetica,sans-Serif" font-size="10.00">compat/compat_shared.h</text>
</a>
</g>
</g>
<!-- Node5&#45;&gt;Node26 -->
<g id="edge24_Node000005_Node000026" class="edge">
<title>Node5&#45;&gt;Node26</title>
<g id="a_edge24_Node000005_Node000026"><a xlink:title=" ">
<path fill="none" stroke="#63b8ff" d="M1599.46,-166.08C1596.43,-165.7 1593.43,-165.33 1590.5,-165 1409.79,-144.38 1361.46,-146.81 1176.75,-129.1"/>
<polygon fill="#63b8ff" stroke="#63b8ff" points="1176.99,-125.61 1166.7,-128.13 1176.32,-132.57 1176.99,-125.61"/>
</a>
</g>
</g>
<!-- Node36 -->
<g id="Node000036" class="node">
<title>Node36</title>
<g id="a_Node000036"><a xlink:href="stdvarargs_8h.html" target="_top" xlink:title=" ">
<polygon fill="#fff0f0" stroke="red" points="1302,-129 1185,-129 1185,-110 1302,-110 1302,-129"/>
<text text-anchor="middle" x="1243.5" y="-117" font-family="Helvetica,sans-Serif" font-size="10.00">compat/stdvarargs.h</text>
</a>
</g>
</g>
<!-- Node5&#45;&gt;Node36 -->
<g id="edge25_Node000005_Node000036" class="edge">
<title>Node5&#45;&gt;Node36</title>
<g id="a_edge25_Node000005_Node000036"><a xlink:title=" ">
<path fill="none" stroke="#63b8ff" d="M1599.44,-166.22C1596.42,-165.8 1593.42,-165.39 1590.5,-165 1563.64,-161.38 1405.54,-141.17 1312.27,-129.27"/>
<polygon fill="#63b8ff" stroke="#63b8ff" points="1312.71,-125.8 1302.34,-128 1311.82,-132.74 1312.71,-125.8"/>
</a>
</g>
</g>
<!-- Node38 -->
<g id="Node000038" class="node">
<title>Node38</title>
<g id="a_Node000038"><a xlink:href="stdio_8h.html" target="_top" xlink:title=" ">
<polygon fill="#fff0f0" stroke="red" points="1409,-129 1320,-129 1320,-110 1409,-110 1409,-129"/>
<text text-anchor="middle" x="1364.5" y="-117" font-family="Helvetica,sans-Serif" font-size="10.00">compat/stdio.h</text>
</a>
</g>
</g>
<!-- Node5&#45;&gt;Node38 -->
<g id="edge26_Node000005_Node000038" class="edge">
<title>Node5&#45;&gt;Node38</title>
<g id="a_edge26_Node000005_Node000038"><a xlink:title=" ">
<path fill="none" stroke="#63b8ff" d="M1604.55,-164.98C1554.11,-155.64 1473.18,-140.64 1419.43,-130.68"/>
<polygon fill="#63b8ff" stroke="#63b8ff" points="1419.86,-127.2 1409.39,-128.82 1418.59,-134.08 1419.86,-127.2"/>
</a>
</g>
</g>
<!-- Node40 -->
<g id="Node000040" class="node">
<title>Node40</title>
<g id="a_Node000040"><a xlink:href="statvfs_8h.html" target="_top" xlink:title=" ">
<polygon fill="white" stroke="#666666" points="1526,-129 1427,-129 1427,-110 1526,-110 1526,-129"/>
<text text-anchor="middle" x="1476.5" y="-117" font-family="Helvetica,sans-Serif" font-size="10.00">compat/statvfs.h</text>
</a>
</g>
</g>
<!-- Node5&#45;&gt;Node40 -->
<g id="edge27_Node000005_Node000040" class="edge">
<title>Node5&#45;&gt;Node40</title>
<g id="a_edge27_Node000005_Node000040"><a xlink:title=" ">
<path fill="none" stroke="#63b8ff" d="M1622.54,-164.98C1593.2,-156.05 1546.9,-141.94 1514.31,-132.02"/>
<polygon fill="#63b8ff" stroke="#63b8ff" points="1515.26,-128.65 1504.68,-129.08 1513.22,-135.34 1515.26,-128.65"/>
</a>
</g>
</g>
<!-- Node41 -->
<g id="Node000041" class="node">
<title>Node41</title>
<g id="a_Node000041"><a xlink:href="debug_8h.html" target="_top" xlink:title=" ">
<polygon fill="white" stroke="#666666" points="1639,-129 1544,-129 1544,-110 1639,-110 1639,-129"/>
<text text-anchor="middle" x="1591.5" y="-117" font-family="Helvetica,sans-Serif" font-size="10.00">compat/debug.h</text>
</a>
</g>
</g>
<!-- Node5&#45;&gt;Node41 -->
<g id="edge28_Node000005_Node000041" class="edge">
<title>Node5&#45;&gt;Node41</title>
<g id="a_edge28_Node000005_Node000041"><a xlink:title=" ">
<path fill="none" stroke="#63b8ff" d="M1641.02,-164.98C1632.3,-157.15 1619.16,-145.34 1608.6,-135.86"/>
<polygon fill="#63b8ff" stroke="#63b8ff" points="1610.93,-133.25 1601.15,-129.17 1606.25,-138.46 1610.93,-133.25"/>
</a>
</g>
</g>
<!-- Node42 -->
<g id="Node000042" class="node">
<title>Node42</title>
<g id="a_Node000042"><a xlink:href="valgrind_8h.html" target="_top" xlink:title=" ">
<polygon fill="#fff0f0" stroke="red" points="1762,-129 1657,-129 1657,-110 1762,-110 1762,-129"/>
<text text-anchor="middle" x="1709.5" y="-117" font-family="Helvetica,sans-Serif" font-size="10.00">compat/valgrind.h</text>
</a>
</g>
</g>
<!-- Node5&#45;&gt;Node42 -->
<g id="edge29_Node000005_Node000042" class="edge">
<title>Node5&#45;&gt;Node42</title>
<g id="a_edge29_Node000005_Node000042"><a xlink:title=" ">
<path fill="none" stroke="#63b8ff" d="M1659.98,-164.98C1668.7,-157.15 1681.84,-145.34 1692.4,-135.86"/>
<polygon fill="#63b8ff" stroke="#63b8ff" points="1694.75,-138.46 1699.85,-129.17 1690.07,-133.25 1694.75,-138.46"/>
</a>
</g>
</g>
<!-- Node45 -->
<g id="Node000045" class="node">
<title>Node45</title>
<g id="a_Node000045"><a xlink:href="IoCallback_8h.html" target="_top" xlink:title=" ">
<polygon fill="white" stroke="#666666" points="3497.5,-184 3387.5,-184 3387.5,-165 3497.5,-165 3497.5,-184"/>
<text text-anchor="middle" x="3442.5" y="-172" font-family="Helvetica,sans-Serif" font-size="10.00">comm/IoCallback.h</text>
</a>
</g>
</g>
<!-- Node44&#45;&gt;Node45 -->
<g id="edge31_Node000044_Node000045" class="edge">
<title>Node44&#45;&gt;Node45</title>
<g id="a_edge31_Node000044_Node000045"><a xlink:title=" ">
<path fill="none" stroke="#63b8ff" d="M3767.21,-224.25C3711.31,-215.86 3585.42,-196.96 3507.85,-185.31"/>
<polygon fill="#63b8ff" stroke="#63b8ff" points="3508.11,-181.81 3497.7,-183.79 3507.07,-188.73 3508.11,-181.81"/>
</a>
</g>
</g>
<!-- Node69 -->
<g id="Node000069" class="node">
<title>Node69</title>
<g id="a_Node000069"><a xlink:href="CommCalls_8h.html" target="_top" xlink:title=" ">
<polygon fill="white" stroke="#666666" points="3736.5,-184 3654.5,-184 3654.5,-165 3736.5,-165 3736.5,-184"/>
<text text-anchor="middle" x="3695.5" y="-172" font-family="Helvetica,sans-Serif" font-size="10.00">CommCalls.h</text>
</a>
</g>
</g>
<!-- Node44&#45;&gt;Node69 -->
<g id="edge37_Node000044_Node000069" class="edge">
<title>Node44&#45;&gt;Node69</title>
<g id="a_edge37_Node000044_Node000069"><a xlink:title=" ">
<path fill="none" stroke="#63b8ff" d="M3779.43,-219.98C3763.64,-211.61 3739.28,-198.7 3720.87,-188.95"/>
<polygon fill="#63b8ff" stroke="#63b8ff" points="3722.33,-185.76 3711.86,-184.17 3719.06,-191.95 3722.33,-185.76"/>
</a>
</g>
</g>
<!-- Node141 -->
<g id="Node000141" class="node">
<title>Node141</title>
<g id="a_Node000141"><a xlink:href="StoreIOBuffer_8h.html" target="_top" xlink:title=" ">
<polygon fill="white" stroke="#666666" points="4015.5,-184 3925.5,-184 3925.5,-165 4015.5,-165 4015.5,-184"/>
<text text-anchor="middle" x="3970.5" y="-172" font-family="Helvetica,sans-Serif" font-size="10.00">StoreIOBuffer.h</text>
</a>
</g>
</g>
<!-- Node44&#45;&gt;Node141 -->
<g id="edge50_Node000044_Node000141" class="edge">
<title>Node44&#45;&gt;Node141</title>
<g id="a_edge50_Node000044_Node000141"><a xlink:title=" ">
<path fill="none" stroke="#63b8ff" d="M3823.62,-219.98C3853.12,-211.05 3899.69,-196.94 3932.47,-187.02"/>
<polygon fill="#63b8ff" stroke="#63b8ff" points="3933.61,-190.33 3942.16,-184.08 3931.58,-183.63 3933.61,-190.33"/>
</a>
</g>
</g>
<!-- Node46 -->
<g id="Node000046" class="node">
<title>Node46</title>
<g id="a_Node000046"><a xlink:href="AsyncCall_8h.html" target="_top" xlink:title=" ">
<polygon fill="#fff0f0" stroke="red" points="3531.5,-129 3431.5,-129 3431.5,-110 3531.5,-110 3531.5,-129"/>
<text text-anchor="middle" x="3481.5" y="-117" font-family="Helvetica,sans-Serif" font-size="10.00">base/AsyncCall.h</text>
</a>
</g>
</g>
<!-- Node45&#45;&gt;Node46 -->
<g id="edge32_Node000045_Node000046" class="edge">
<title>Node45&#45;&gt;Node46</title>
<g id="a_edge32_Node000045_Node000046"><a xlink:title=" ">
<path fill="none" stroke="#63b8ff" d="M3448.94,-164.75C3454.39,-157.34 3462.36,-146.5 3469.06,-137.41"/>
<polygon fill="#63b8ff" stroke="#63b8ff" points="3472.07,-139.22 3475.18,-129.09 3466.43,-135.07 3472.07,-139.22"/>
</a>
</g>
</g>
<!-- Node62 -->
<g id="Node000062" class="node">
<title>Node62</title>
<g id="a_Node000062"><a xlink:href="Flag_8h.html" target="_top" xlink:title=" ">
<polygon fill="white" stroke="#666666" points="3629.5,-129 3549.5,-129 3549.5,-110 3629.5,-110 3629.5,-129"/>
<text text-anchor="middle" x="3589.5" y="-117" font-family="Helvetica,sans-Serif" font-size="10.00">comm/Flag.h</text>
</a>
</g>
</g>
<!-- Node45&#45;&gt;Node62 -->
<g id="edge33_Node000045_Node000062" class="edge">
<title>Node45&#45;&gt;Node62</title>
<g id="a_edge33_Node000045_Node000062"><a xlink:title=" ">
<path fill="none" stroke="#63b8ff" d="M3466.12,-164.98C3490.4,-156.23 3528.45,-142.51 3555.87,-132.62"/>
<polygon fill="#63b8ff" stroke="#63b8ff" points="3557.23,-135.85 3565.45,-129.17 3554.86,-129.27 3557.23,-135.85"/>
</a>
</g>
</g>
<!-- Node63 -->
<g id="Node000063" class="node">
<title>Node63</title>
<g id="a_Node000063"><a xlink:href="comm_2forward_8h.html" target="_top" xlink:title=" ">
<polygon fill="#fff0f0" stroke="red" points="3706,-74 3609,-74 3609,-55 3706,-55 3706,-74"/>
<text text-anchor="middle" x="3657.5" y="-62" font-family="Helvetica,sans-Serif" font-size="10.00">comm/forward.h</text>
</a>
</g>
</g>
<!-- Node45&#45;&gt;Node63 -->
<g id="edge34_Node000045_Node000063" class="edge">
<title>Node45&#45;&gt;Node63</title>
<g id="a_edge34_Node000045_Node000063"><a xlink:title=" ">
<path fill="none" stroke="#63b8ff" d="M3435.09,-164.71C3424.85,-151.46 3409.08,-126.2 3422.5,-110 3444.46,-83.5 3536.52,-72.66 3598.68,-68.31"/>
<polygon fill="#63b8ff" stroke="#63b8ff" points="3599.02,-71.8 3608.77,-67.64 3598.56,-64.81 3599.02,-71.8"/>
</a>
</g>
</g>
<!-- Node65 -->
<g id="Node000065" class="node">
<title>Node65</title>
<g id="a_Node000065"><a xlink:title=" ">
<polygon fill="#e0e0e0" stroke="#999999" points="3269.5,-129 3177.5,-129 3177.5,-110 3269.5,-110 3269.5,-129"/>
<text text-anchor="middle" x="3223.5" y="-117" font-family="Helvetica,sans-Serif" font-size="10.00">mem/forward.h</text>
</a>
</g>
</g>
<!-- Node45&#45;&gt;Node65 -->
<g id="edge35_Node000045_Node000065" class="edge">
<title>Node45&#45;&gt;Node65</title>
<g id="a_edge35_Node000045_Node000065"><a xlink:title=" ">
<path fill="none" stroke="#63b8ff" d="M3407.31,-164.98C3369.67,-155.87 3309.84,-141.4 3268.73,-131.45"/>
<polygon fill="#63b8ff" stroke="#63b8ff" points="3269.5,-128.03 3258.96,-129.08 3267.86,-134.84 3269.5,-128.03"/>
</a>
</g>
</g>
<!-- Node66 -->
<g id="Node000066" class="node">
<title>Node66</title>
<g id="a_Node000066"><a xlink:href="sbuf_2forward_8h.html" target="_top" xlink:title=" ">
<polygon fill="#fff0f0" stroke="red" points="3375,-129 3288,-129 3288,-110 3375,-110 3375,-129"/>
<text text-anchor="middle" x="3331.5" y="-117" font-family="Helvetica,sans-Serif" font-size="10.00">sbuf/forward.h</text>
</a>
</g>
</g>
<!-- Node45&#45;&gt;Node66 -->
<g id="edge36_Node000045_Node000066" class="edge">
<title>Node45&#45;&gt;Node66</title>
<g id="a_edge36_Node000045_Node000066"><a xlink:title=" ">
<path fill="none" stroke="#63b8ff" d="M3424.67,-164.98C3406.89,-156.5 3379.35,-143.35 3358.82,-133.54"/>
<polygon fill="#63b8ff" stroke="#63b8ff" points="3360.19,-130.32 3349.66,-129.17 3357.17,-136.64 3360.19,-130.32"/>
</a>
</g>
</g>
<!-- Node69&#45;&gt;Node46 -->
<g id="edge38_Node000069_Node000046" class="edge">
<title>Node69&#45;&gt;Node46</title>
<g id="a_edge38_Node000069_Node000046"><a xlink:title=" ">
<path fill="none" stroke="#63b8ff" d="M3661.12,-164.98C3624.41,-155.89 3566.12,-141.46 3525.95,-131.51"/>
<polygon fill="#63b8ff" stroke="#63b8ff" points="3526.7,-128.09 3516.15,-129.08 3525.02,-134.88 3526.7,-128.09"/>
</a>
</g>
</g>
<!-- Node69&#45;&gt;Node62 -->
<g id="edge46_Node000069_Node000062" class="edge">
<title>Node69&#45;&gt;Node62</title>
<g id="a_edge46_Node000069_Node000062"><a xlink:title=" ">
<path fill="none" stroke="#63b8ff" d="M3678.47,-164.98C3661.57,-156.54 3635.44,-143.47 3615.86,-133.68"/>
<polygon fill="#63b8ff" stroke="#63b8ff" points="3617.35,-130.51 3606.84,-129.17 3614.22,-136.77 3617.35,-130.51"/>
</a>
</g>
</g>
<!-- Node69&#45;&gt;Node63 -->
<g id="edge47_Node000069_Node000063" class="edge">
<title>Node69&#45;&gt;Node63</title>
<g id="a_edge47_Node000069_Node000063"><a xlink:title=" ">
<path fill="none" stroke="#63b8ff" d="M3691.42,-164.75C3687.35,-155.86 3681.07,-141.64 3676.5,-129 3671.11,-114.1 3666.02,-96.86 3662.47,-84.11"/>
<polygon fill="#63b8ff" stroke="#63b8ff" points="3665.78,-82.96 3659.78,-74.23 3659.03,-84.8 3665.78,-82.96"/>
</a>
</g>
</g>
<!-- Node70 -->
<g id="Node000070" class="node">
<title>Node70</title>
<g id="a_Node000070"><a xlink:href="AsyncJobCalls_8h.html" target="_top" xlink:title=" ">
<polygon fill="#fff0f0" stroke="red" points="3919.5,-129 3799.5,-129 3799.5,-110 3919.5,-110 3919.5,-129"/>
<text text-anchor="middle" x="3859.5" y="-117" font-family="Helvetica,sans-Serif" font-size="10.00">base/AsyncJobCalls.h</text>
</a>
</g>
</g>
<!-- Node69&#45;&gt;Node70 -->
<g id="edge39_Node000069_Node000070" class="edge">
<title>Node69&#45;&gt;Node70</title>
<g id="a_edge39_Node000069_Node000070"><a xlink:title=" ">
<path fill="none" stroke="#63b8ff" d="M3721.85,-164.98C3749.26,-156.13 3792.39,-142.19 3823.06,-132.28"/>
<polygon fill="#63b8ff" stroke="#63b8ff" points="3824.5,-135.49 3832.94,-129.08 3822.35,-128.83 3824.5,-135.49"/>
</a>
</g>
</g>
<!-- Node84 -->
<g id="Node000084" class="node">
<title>Node84</title>
<g id="a_Node000084"><a xlink:href="MasterXaction_8h.html" target="_top" xlink:title=" ">
<polygon fill="#fff0f0" stroke="red" points="3781.5,-129 3685.5,-129 3685.5,-110 3781.5,-110 3781.5,-129"/>
<text text-anchor="middle" x="3733.5" y="-117" font-family="Helvetica,sans-Serif" font-size="10.00">MasterXaction.h</text>
</a>
</g>
</g>
<!-- Node69&#45;&gt;Node84 -->
<g id="edge48_Node000069_Node000084" class="edge">
<title>Node69&#45;&gt;Node84</title>
<g id="a_edge48_Node000069_Node000084"><a xlink:title=" ">
<path fill="none" stroke="#63b8ff" d="M3701.77,-164.75C3707.09,-157.34 3714.86,-146.5 3721.38,-137.41"/>
<polygon fill="#63b8ff" stroke="#63b8ff" points="3724.36,-139.26 3727.34,-129.09 3718.67,-135.18 3724.36,-139.26"/>
</a>
</g>
</g>
<!-- Node70&#45;&gt;Node78 -->
<g id="edge40_Node000070_Node000078" class="edge">
<title>Node70&#45;&gt;Node78</title>
<g id="a_edge40_Node000070_Node000078"><a xlink:title=" ">
<path fill="none" stroke="#63b8ff" d="M3881.51,-109.98C3903.95,-101.3 3938.98,-87.75 3964.49,-77.88"/>
<polygon fill="#63b8ff" stroke="#63b8ff" points="3966.02,-81.04 3974.09,-74.17 3963.5,-74.51 3966.02,-81.04"/>
</a>
</g>
</g>
<!-- Node76 -->
<g id="Node000076" class="node">
<title>Node76</title>
<g id="a_Node000076"><a xlink:href="Here_8h.html" target="_top" xlink:title=" ">
<polygon fill="#fff0f0" stroke="red" points="3807,-19 3732,-19 3732,0 3807,0 3807,-19"/>
<text text-anchor="middle" x="3769.5" y="-7" font-family="Helvetica,sans-Serif" font-size="10.00">base/Here.h</text>
</a>
</g>
</g>
<!-- Node78&#45;&gt;Node76 -->
<g id="edge41_Node000078_Node000076" class="edge">
<title>Node78&#45;&gt;Node76</title>
<g id="a_edge41_Node000078_Node000076"><a xlink:title=" ">
<path fill="none" stroke="#63b8ff" d="M3960.03,-54.98C3920.93,-45.86 3858.73,-31.33 3816.11,-21.38"/>
<polygon fill="#63b8ff" stroke="#63b8ff" points="3816.79,-17.95 3806.26,-19.08 3815.2,-24.76 3816.79,-17.95"/>
</a>
</g>
</g>
<!-- Node61 -->
<g id="Node000061" class="node">
<title>Node61</title>
<g id="a_Node000061"><a xlink:href="AllocatorProxy_8h.html" target="_top" xlink:title=" ">
<polygon fill="white" stroke="#666666" points="3948.5,-19 3824.5,-19 3824.5,0 3948.5,0 3948.5,-19"/>
<text text-anchor="middle" x="3886.5" y="-7" font-family="Helvetica,sans-Serif" font-size="10.00">mem/AllocatorProxy.h</text>
</a>
</g>
</g>
<!-- Node78&#45;&gt;Node61 -->
<g id="edge42_Node000078_Node000061" class="edge">
<title>Node78&#45;&gt;Node61</title>
<g id="a_edge42_Node000078_Node000061"><a xlink:title=" ">
<path fill="none" stroke="#63b8ff" d="M3978.83,-54.98C3961.21,-46.5 3933.92,-33.35 3913.57,-23.54"/>
<polygon fill="#63b8ff" stroke="#63b8ff" points="3915.02,-20.36 3904.49,-19.17 3911.98,-26.66 3915.02,-20.36"/>
</a>
</g>
</g>
<!-- Node52 -->
<g id="Node000052" class="node">
<title>Node52</title>
<g id="a_Node000052"><a xlink:title=" ">
<polygon fill="#e0e0e0" stroke="#999999" points="4026.5,-19 3966.5,-19 3966.5,0 4026.5,0 4026.5,-19"/>
<text text-anchor="middle" x="3996.5" y="-7" font-family="Helvetica,sans-Serif" font-size="10.00">iostream</text>
</a>
</g>
</g>
<!-- Node78&#45;&gt;Node52 -->
<g id="edge43_Node000078_Node000052" class="edge">
<title>Node78&#45;&gt;Node52</title>
<g id="a_edge43_Node000078_Node000052"><a xlink:title=" ">
<path fill="none" stroke="#63b8ff" d="M3996.5,-54.75C3996.5,-47.8 3996.5,-37.85 3996.5,-29.13"/>
<polygon fill="#63b8ff" stroke="#63b8ff" points="4000,-29.09 3996.5,-19.09 3993,-29.09 4000,-29.09"/>
</a>
</g>
</g>
<!-- Node79 -->
<g id="Node000079" class="node">
<title>Node79</title>
<g id="a_Node000079"><a xlink:title=" ">
<polygon fill="#e0e0e0" stroke="#999999" points="4100.5,-19 4044.5,-19 4044.5,0 4100.5,0 4100.5,-19"/>
<text text-anchor="middle" x="4072.5" y="-7" font-family="Helvetica,sans-Serif" font-size="10.00">sstream</text>
</a>
</g>
</g>
<!-- Node78&#45;&gt;Node79 -->
<g id="edge44_Node000078_Node000079" class="edge">
<title>Node78&#45;&gt;Node79</title>
<g id="a_edge44_Node000078_Node000079"><a xlink:title=" ">
<path fill="none" stroke="#63b8ff" d="M4008.71,-54.98C4020.28,-46.92 4037.88,-34.65 4051.66,-25.03"/>
<polygon fill="#63b8ff" stroke="#63b8ff" points="4053.87,-27.76 4060.07,-19.17 4049.86,-22.02 4053.87,-27.76"/>
</a>
</g>
</g>
<!-- Node80 -->
<g id="Node000080" class="node">
<title>Node80</title>
<g id="a_Node000080"><a xlink:title=" ">
<polygon fill="#e0e0e0" stroke="#999999" points="4174.5,-19 4118.5,-19 4118.5,0 4174.5,0 4174.5,-19"/>
<text text-anchor="middle" x="4146.5" y="-7" font-family="Helvetica,sans-Serif" font-size="10.00">iomanip</text>
</a>
</g>
</g>
<!-- Node78&#45;&gt;Node80 -->
<g id="edge45_Node000078_Node000080" class="edge">
<title>Node78&#45;&gt;Node80</title>
<g id="a_edge45_Node000078_Node000080"><a xlink:title=" ">
<path fill="none" stroke="#63b8ff" d="M4020.6,-54.98C4045.38,-46.23 4084.2,-32.51 4112.19,-22.62"/>
<polygon fill="#63b8ff" stroke="#63b8ff" points="4113.7,-25.8 4121.96,-19.17 4111.37,-19.2 4113.7,-25.8"/>
</a>
</g>
</g>
<!-- Node84&#45;&gt;Node63 -->
<g id="edge49_Node000084_Node000063" class="edge">
<title>Node84&#45;&gt;Node63</title>
<g id="a_edge49_Node000084_Node000063"><a xlink:title=" ">
<path fill="none" stroke="#63b8ff" d="M3721.29,-109.98C3709.72,-101.92 3692.12,-89.65 3678.34,-80.03"/>
<polygon fill="#63b8ff" stroke="#63b8ff" points="3680.14,-77.02 3669.93,-74.17 3676.13,-82.76 3680.14,-77.02"/>
</a>
</g>
</g>
<!-- Node142 -->
<g id="Node000142" class="node">
<title>Node142</title>
<g id="a_Node000142"><a xlink:href="Range_8h.html" target="_top" xlink:title=" ">
<polygon fill="#fff0f0" stroke="red" points="4105,-129 4022,-129 4022,-110 4105,-110 4105,-129"/>
<text text-anchor="middle" x="4063.5" y="-117" font-family="Helvetica,sans-Serif" font-size="10.00">base/Range.h</text>
</a>
</g>
</g>
<!-- Node141&#45;&gt;Node142 -->
<g id="edge51_Node000141_Node000142" class="edge">
<title>Node141&#45;&gt;Node142</title>
<g id="a_edge51_Node000141_Node000142"><a xlink:title=" ">
<path fill="none" stroke="#63b8ff" d="M3985.44,-164.98C4000,-156.69 4022.37,-143.94 4039.43,-134.22"/>
<polygon fill="#63b8ff" stroke="#63b8ff" points="4041.33,-137.16 4048.29,-129.17 4037.86,-131.08 4041.33,-137.16"/>
</a>
</g>
</g>
<!-- Node143 -->
<g id="Node000143" class="node">
<title>Node143</title>
<g id="a_Node000143"><a xlink:href="MemBuf_8h.html" target="_top" xlink:title=" ">
<polygon fill="#fff0f0" stroke="red" points="4003.5,-129 3937.5,-129 3937.5,-110 4003.5,-110 4003.5,-129"/>
<text text-anchor="middle" x="3970.5" y="-117" font-family="Helvetica,sans-Serif" font-size="10.00">MemBuf.h</text>
</a>
</g>
</g>
<!-- Node141&#45;&gt;Node143 -->
<g id="edge52_Node000141_Node000143" class="edge">
<title>Node141&#45;&gt;Node143</title>
<g id="a_edge52_Node000141_Node000143"><a xlink:title=" ">
<path fill="none" stroke="#63b8ff" d="M3970.5,-164.75C3970.5,-157.8 3970.5,-147.85 3970.5,-139.13"/>
<polygon fill="#63b8ff" stroke="#63b8ff" points="3974,-139.09 3970.5,-129.09 3967,-139.09 3974,-139.09"/>
</a>
</g>
</g>
</g>
</svg>

<g id="navigator" transform="translate(0 0)" fill="#404254">
  <rect fill="#f2f5e9" fill-opacity="0.5" stroke="#606060" stroke-width=".5" x="0" y="0" width="60" height="60"/>
  <use id="zoomplus" xlink:href="#zoomPlus" x="17" y="9" onmousedown="handleZoom(evt,'in')"/>
  <use id="zoomminus" xlink:href="#zoomMin" x="42" y="9" onmousedown="handleZoom(evt,'out')"/>
  <use id="reset" xlink:href="#resetDef" x="30" y="36" onmousedown="handleReset()"/>
   <use id="arrowup" xlink:href="#arrowUp" x="0" y="0" onmousedown="handlePan(0,-1)"/>
  <use id="arrowright" xlink:href="#arrowRight" x="0" y="0" onmousedown="handlePan(1,0)"/>
  <use id="arrowdown" xlink:href="#arrowDown" x="0" y="0" onmousedown="handlePan(0,1)"/>
  <use id="arrowleft" xlink:href="#arrowLeft" x="0" y="0" onmousedown="handlePan(-1,0)"/>
</g>
<svg viewBox="0 0 15 15" width="100%" height="30px" preserveAspectRatio="xMaxYMin meet">
 <g id="arrow_out" transform="scale(0.3 0.3)">
  <a xlink:href="comm_2minimal_8cc__incl_org.svg" target="_base">
   <rect id="button" ry="5" rx="5" y="6" x="6" height="38" width="38"
        fill="#f2f5e9" fill-opacity="0.5" stroke="#606060" stroke-width="1.0"/>
   <path id="arrow"
     d="M 11.500037,31.436501 C 11.940474,20.09759 22.043105,11.32322 32.158766,21.979434 L 37.068811,17.246167 C 37.068811,17.246167 37.088388,32 37.088388,32 L 22.160133,31.978069 C 22.160133,31.978069 26.997745,27.140456 26.997745,27.140456 C 18.528582,18.264221 13.291696,25.230495 11.500037,31.436501 z"
     style="fill:#404040;"/>
  </a>
 </g>
</svg>

<style type='text/css'>
<![CDATA[
[data-mouse-over-selected='false'] { opacity: 0.7; }
[data-mouse-over-selected='true']  { opacity: 1.0; }
]]>
</style>
<script type="application/ecmascript"><![CDATA[
document.addEventListener('DOMContentLoaded', (event) => {
  highlightEdges();
  highlightAdjacentNodes();
});
]]></script>
</svg>
