<?xml version="1.0" encoding="UTF-8" standalone="no"?>
<!DOCTYPE svg PUBLIC "-//W3C//DTD SVG 1.1//EN"
 "http://www.w3.org/Graphics/SVG/1.1/DTD/svg11.dtd">
<!-- Generated by graphviz version 2.43.0 (0)
 -->
<!-- Title: squid/src/CommandLine.cc Pages: 1 -->
<svg width="4206pt" height="302pt"
 viewBox="0.00 0.00 4206.00 302.00" xmlns="http://www.w3.org/2000/svg" xmlns:xlink="http://www.w3.org/1999/xlink">
<g id="graph0" class="graph" transform="scale(1 1) rotate(0) translate(4 298)">
<title>squid/src/CommandLine.cc</title>
<!-- Node1 -->
<g id="Node000001" class="node">
<title>Node1</title>
<g id="a_Node000001"><a xlink:title=" ">
<polygon fill="#999999" stroke="#666666" points="2607.5,-294 2460.5,-294 2460.5,-275 2607.5,-275 2607.5,-294"/>
<text text-anchor="middle" x="2534" y="-282" font-family="Helvetica,sans-Serif" font-size="10.00">squid/src/CommandLine.cc</text>
</a>
</g>
</g>
<!-- Node2 -->
<g id="Node000002" class="node">
<title>Node2</title>
<g id="a_Node000002"><a xlink:href="squid_8h.html" target="_top" xlink:title=" ">
<polygon fill="white" stroke="#666666" points="2436,-239 2384,-239 2384,-220 2436,-220 2436,-239"/>
<text text-anchor="middle" x="2410" y="-227" font-family="Helvetica,sans-Serif" font-size="10.00">squid.h</text>
</a>
</g>
</g>
<!-- Node1&#45;&gt;Node2 -->
<g id="edge1_Node000001_Node000002" class="edge">
<title>Node1&#45;&gt;Node2</title>
<g id="a_edge1_Node000001_Node000002"><a xlink:title=" ">
<path fill="none" stroke="#63b8ff" d="M2514.08,-274.98C2493.95,-266.38 2462.62,-252.99 2439.59,-243.15"/>
<polygon fill="#63b8ff" stroke="#63b8ff" points="2440.86,-239.88 2430.29,-239.17 2438.1,-246.32 2440.86,-239.88"/>
</a>
</g>
</g>
<!-- Node45 -->
<g id="Node000045" class="node">
<title>Node45</title>
<g id="a_Node000045"><a xlink:href="CommandLine_8h.html" target="_top" xlink:title=" ">
<polygon fill="white" stroke="#666666" points="2582,-239 2486,-239 2486,-220 2582,-220 2582,-239"/>
<text text-anchor="middle" x="2534" y="-227" font-family="Helvetica,sans-Serif" font-size="10.00">CommandLine.h</text>
</a>
</g>
</g>
<!-- Node1&#45;&gt;Node45 -->
<g id="edge31_Node000001_Node000045" class="edge">
<title>Node1&#45;&gt;Node45</title>
<g id="a_edge31_Node000001_Node000045"><a xlink:title=" ">
<path fill="none" stroke="#63b8ff" d="M2534,-274.75C2534,-267.8 2534,-257.85 2534,-249.13"/>
<polygon fill="#63b8ff" stroke="#63b8ff" points="2537.5,-249.09 2534,-239.09 2530.5,-249.09 2537.5,-249.09"/>
</a>
</g>
</g>
<!-- Node47 -->
<g id="Node000047" class="node">
<title>Node47</title>
<g id="a_Node000047"><a xlink:href="SBuf_8h.html" target="_top" xlink:title=" ">
<polygon fill="white" stroke="#666666" points="3502.5,-239 3431.5,-239 3431.5,-220 3502.5,-220 3502.5,-239"/>
<text text-anchor="middle" x="3467" y="-227" font-family="Helvetica,sans-Serif" font-size="10.00">sbuf/SBuf.h</text>
</a>
</g>
</g>
<!-- Node1&#45;&gt;Node47 -->
<g id="edge33_Node000001_Node000047" class="edge">
<title>Node1&#45;&gt;Node47</title>
<g id="a_edge33_Node000001_Node000047"><a xlink:title=" ">
<path fill="none" stroke="#63b8ff" d="M2607.6,-279.32C2792.07,-268.84 3270.16,-241.68 3420.82,-233.12"/>
<polygon fill="#63b8ff" stroke="#63b8ff" points="3421.31,-236.6 3431.09,-232.54 3420.91,-229.61 3421.31,-236.6"/>
</a>
</g>
</g>
<!-- Node3 -->
<g id="Node000003" class="node">
<title>Node3</title>
<g id="a_Node000003"><a xlink:href="autoconf_8h.html" target="_top" xlink:title=" ">
<polygon fill="white" stroke="#666666" points="2387,-184 2319,-184 2319,-165 2387,-165 2387,-184"/>
<text text-anchor="middle" x="2353" y="-172" font-family="Helvetica,sans-Serif" font-size="10.00">autoconf.h</text>
</a>
</g>
</g>
<!-- Node2&#45;&gt;Node3 -->
<g id="edge2_Node000002_Node000003" class="edge">
<title>Node2&#45;&gt;Node3</title>
<g id="a_edge2_Node000002_Node000003"><a xlink:title=" ">
<path fill="none" stroke="#63b8ff" d="M2400.84,-219.98C2392.5,-212.23 2379.97,-200.58 2369.82,-191.14"/>
<polygon fill="#63b8ff" stroke="#63b8ff" points="2372.03,-188.42 2362.32,-184.17 2367.26,-193.54 2372.03,-188.42"/>
</a>
</g>
</g>
<!-- Node4 -->
<g id="Node000004" class="node">
<title>Node4</title>
<g id="a_Node000004"><a xlink:href="version_8h.html" target="_top" xlink:title=" ">
<polygon fill="white" stroke="#666666" points="2467,-184 2405,-184 2405,-165 2467,-165 2467,-184"/>
<text text-anchor="middle" x="2436" y="-172" font-family="Helvetica,sans-Serif" font-size="10.00">version.h</text>
</a>
</g>
</g>
<!-- Node2&#45;&gt;Node4 -->
<g id="edge3_Node000002_Node000004" class="edge">
<title>Node2&#45;&gt;Node4</title>
<g id="a_edge3_Node000002_Node000004"><a xlink:title=" ">
<path fill="none" stroke="#63b8ff" d="M2414.29,-219.75C2417.81,-212.57 2422.91,-202.18 2427.28,-193.27"/>
<polygon fill="#63b8ff" stroke="#63b8ff" points="2430.52,-194.61 2431.79,-184.09 2424.24,-191.53 2430.52,-194.61"/>
</a>
</g>
</g>
<!-- Node5 -->
<g id="Node000005" class="node">
<title>Node5</title>
<g id="a_Node000005"><a xlink:href="compat_8h.html" target="_top" xlink:title=" ">
<polygon fill="white" stroke="#666666" points="1770,-184 1668,-184 1668,-165 1770,-165 1770,-184"/>
<text text-anchor="middle" x="1719" y="-172" font-family="Helvetica,sans-Serif" font-size="10.00">compat/compat.h</text>
</a>
</g>
</g>
<!-- Node2&#45;&gt;Node5 -->
<g id="edge4_Node000002_Node000005" class="edge">
<title>Node2&#45;&gt;Node5</title>
<g id="a_edge4_Node000002_Node000005"><a xlink:title=" ">
<path fill="none" stroke="#63b8ff" d="M2383.76,-226.49C2283.73,-218.81 1924.74,-191.28 1780.07,-180.18"/>
<polygon fill="#63b8ff" stroke="#63b8ff" points="1780.26,-176.69 1770.03,-179.41 1779.73,-183.67 1780.26,-176.69"/>
</a>
</g>
</g>
<!-- Node6 -->
<g id="Node000006" class="node">
<title>Node6</title>
<g id="a_Node000006"><a xlink:href="osdetect_8h.html" target="_top" xlink:title=" ">
<polygon fill="white" stroke="#666666" points="2129.5,-129 2022.5,-129 2022.5,-110 2129.5,-110 2129.5,-129"/>
<text text-anchor="middle" x="2076" y="-117" font-family="Helvetica,sans-Serif" font-size="10.00">compat/osdetect.h</text>
</a>
</g>
</g>
<!-- Node5&#45;&gt;Node6 -->
<g id="edge5_Node000005_Node000006" class="edge">
<title>Node5&#45;&gt;Node6</title>
<g id="a_edge5_Node000005_Node000006"><a xlink:title=" ">
<path fill="none" stroke="#63b8ff" d="M1770.15,-165.91C1834.01,-156.43 1943.24,-140.21 2012.41,-129.94"/>
<polygon fill="#63b8ff" stroke="#63b8ff" points="2012.94,-133.4 2022.32,-128.47 2011.91,-126.48 2012.94,-133.4"/>
</a>
</g>
</g>
<!-- Node7 -->
<g id="Node000007" class="node">
<title>Node7</title>
<g id="a_Node000007"><a xlink:href="fdsetsize_8h.html" target="_top" xlink:title=" ">
<polygon fill="white" stroke="#666666" points="2258,-129 2148,-129 2148,-110 2258,-110 2258,-129"/>
<text text-anchor="middle" x="2203" y="-117" font-family="Helvetica,sans-Serif" font-size="10.00">compat/fdsetsize.h</text>
</a>
</g>
</g>
<!-- Node5&#45;&gt;Node7 -->
<g id="edge6_Node000005_Node000007" class="edge">
<title>Node5&#45;&gt;Node7</title>
<g id="a_edge6_Node000005_Node000007"><a xlink:title=" ">
<path fill="none" stroke="#63b8ff" d="M1770.32,-168.45C1847.51,-160.77 1998.32,-145.43 2137.68,-129.01"/>
<polygon fill="#63b8ff" stroke="#63b8ff" points="2138.17,-132.48 2147.69,-127.83 2137.35,-125.52 2138.17,-132.48"/>
</a>
</g>
</g>
<!-- Node8 -->
<g id="Node000008" class="node">
<title>Node8</title>
<g id="a_Node000008"><a xlink:href="types_8h.html" target="_top" xlink:title=" ">
<polygon fill="#fff0f0" stroke="red" points="2368,-129 2276,-129 2276,-110 2368,-110 2368,-129"/>
<text text-anchor="middle" x="2322" y="-117" font-family="Helvetica,sans-Serif" font-size="10.00">compat/types.h</text>
</a>
</g>
</g>
<!-- Node5&#45;&gt;Node8 -->
<g id="edge7_Node000005_Node000008" class="edge">
<title>Node5&#45;&gt;Node8</title>
<g id="a_edge7_Node000005_Node000008"><a xlink:title=" ">
<path fill="none" stroke="#63b8ff" d="M1770.12,-170.59C1865.47,-164.88 2077.14,-150.96 2265.72,-129.07"/>
<polygon fill="#63b8ff" stroke="#63b8ff" points="2266.29,-132.52 2275.82,-127.88 2265.48,-125.57 2266.29,-132.52"/>
</a>
</g>
</g>
<!-- Node10 -->
<g id="Node000010" class="node">
<title>Node10</title>
<g id="a_Node000010"><a xlink:href="aix_8h.html" target="_top" xlink:title=" ">
<polygon fill="white" stroke="#666666" points="2481.5,-129 2386.5,-129 2386.5,-110 2481.5,-110 2481.5,-129"/>
<text text-anchor="middle" x="2434" y="-117" font-family="Helvetica,sans-Serif" font-size="10.00">compat/os/aix.h</text>
</a>
</g>
</g>
<!-- Node5&#45;&gt;Node10 -->
<g id="edge8_Node000005_Node000010" class="edge">
<title>Node5&#45;&gt;Node10</title>
<g id="a_edge8_Node000005_Node000010"><a xlink:title=" ">
<path fill="none" stroke="#63b8ff" d="M1770.31,-171.44C1879.68,-166.74 2143.99,-153.76 2376.45,-128.96"/>
<polygon fill="#63b8ff" stroke="#63b8ff" points="2376.88,-132.43 2386.45,-127.88 2376.13,-125.47 2376.88,-132.43"/>
</a>
</g>
</g>
<!-- Node11 -->
<g id="Node000011" class="node">
<title>Node11</title>
<g id="a_Node000011"><a xlink:href="android_8h.html" target="_top" xlink:title=" ">
<polygon fill="white" stroke="#666666" points="2616,-129 2500,-129 2500,-110 2616,-110 2616,-129"/>
<text text-anchor="middle" x="2558" y="-117" font-family="Helvetica,sans-Serif" font-size="10.00">compat/os/android.h</text>
</a>
</g>
</g>
<!-- Node5&#45;&gt;Node11 -->
<g id="edge9_Node000005_Node000011" class="edge">
<title>Node5&#45;&gt;Node11</title>
<g id="a_edge9_Node000005_Node000011"><a xlink:title=" ">
<path fill="none" stroke="#63b8ff" d="M1770.06,-171.73C1892.26,-167.25 2211.37,-154.03 2489.5,-128.97"/>
<polygon fill="#63b8ff" stroke="#63b8ff" points="2490.15,-132.43 2499.79,-128.04 2489.51,-125.45 2490.15,-132.43"/>
</a>
</g>
</g>
<!-- Node12 -->
<g id="Node000012" class="node">
<title>Node12</title>
<g id="a_Node000012"><a xlink:href="dragonfly_8h.html" target="_top" xlink:title=" ">
<polygon fill="white" stroke="#666666" points="2758,-129 2634,-129 2634,-110 2758,-110 2758,-129"/>
<text text-anchor="middle" x="2696" y="-117" font-family="Helvetica,sans-Serif" font-size="10.00">compat/os/dragonfly.h</text>
</a>
</g>
</g>
<!-- Node5&#45;&gt;Node12 -->
<g id="edge10_Node000005_Node000012" class="edge">
<title>Node5&#45;&gt;Node12</title>
<g id="a_edge10_Node000005_Node000012"><a xlink:title=" ">
<path fill="none" stroke="#63b8ff" d="M1770.17,-172.24C1906.87,-168.62 2292.16,-156.64 2623.41,-129.07"/>
<polygon fill="#63b8ff" stroke="#63b8ff" points="2624.01,-132.53 2633.69,-128.21 2623.43,-125.56 2624.01,-132.53"/>
</a>
</g>
</g>
<!-- Node13 -->
<g id="Node000013" class="node">
<title>Node13</title>
<g id="a_Node000013"><a xlink:href="freebsd_8h.html" target="_top" xlink:title=" ">
<polygon fill="white" stroke="#666666" points="2892,-129 2776,-129 2776,-110 2892,-110 2892,-129"/>
<text text-anchor="middle" x="2834" y="-117" font-family="Helvetica,sans-Serif" font-size="10.00">compat/os/freebsd.h</text>
</a>
</g>
</g>
<!-- Node5&#45;&gt;Node13 -->
<g id="edge11_Node000005_Node000013" class="edge">
<title>Node5&#45;&gt;Node13</title>
<g id="a_edge11_Node000005_Node000013"><a xlink:title=" ">
<path fill="none" stroke="#63b8ff" d="M1770.08,-172.85C1920.8,-170.59 2376.91,-161.46 2765.88,-129.01"/>
<polygon fill="#63b8ff" stroke="#63b8ff" points="2766.26,-132.5 2775.93,-128.17 2765.67,-125.52 2766.26,-132.5"/>
</a>
</g>
</g>
<!-- Node14 -->
<g id="Node000014" class="node">
<title>Node14</title>
<g id="a_Node000014"><a xlink:href="hpux_8h.html" target="_top" xlink:title=" ">
<polygon fill="white" stroke="#666666" points="3014,-129 2910,-129 2910,-110 3014,-110 3014,-129"/>
<text text-anchor="middle" x="2962" y="-117" font-family="Helvetica,sans-Serif" font-size="10.00">compat/os/hpux.h</text>
</a>
</g>
</g>
<!-- Node5&#45;&gt;Node14 -->
<g id="edge12_Node000005_Node000014" class="edge">
<title>Node5&#45;&gt;Node14</title>
<g id="a_edge12_Node000005_Node000014"><a xlink:title=" ">
<path fill="none" stroke="#63b8ff" d="M1770.09,-173.41C1933.25,-172.75 2456.52,-167.61 2899.67,-129.02"/>
<polygon fill="#63b8ff" stroke="#63b8ff" points="2900.14,-132.49 2909.8,-128.13 2899.53,-125.51 2900.14,-132.49"/>
</a>
</g>
</g>
<!-- Node15 -->
<g id="Node000015" class="node">
<title>Node15</title>
<g id="a_Node000015"><a xlink:href="linux_8h.html" target="_top" xlink:title=" ">
<polygon fill="white" stroke="#666666" points="3136,-129 3032,-129 3032,-110 3136,-110 3136,-129"/>
<text text-anchor="middle" x="3084" y="-117" font-family="Helvetica,sans-Serif" font-size="10.00">compat/os/linux.h</text>
</a>
</g>
</g>
<!-- Node5&#45;&gt;Node15 -->
<g id="edge13_Node000005_Node000015" class="edge">
<title>Node5&#45;&gt;Node15</title>
<g id="a_edge13_Node000005_Node000015"><a xlink:title=" ">
<path fill="none" stroke="#63b8ff" d="M1770.05,-172.47C1976.76,-168.2 2753,-151.06 3021.69,-128.99"/>
<polygon fill="#63b8ff" stroke="#63b8ff" points="3022.13,-132.47 3031.8,-128.14 3021.54,-125.49 3022.13,-132.47"/>
</a>
</g>
</g>
<!-- Node16 -->
<g id="Node000016" class="node">
<title>Node16</title>
<g id="a_Node000016"><a xlink:href="macosx_8h.html" target="_top" xlink:title=" ">
<polygon fill="white" stroke="#666666" points="3272,-129 3154,-129 3154,-110 3272,-110 3272,-129"/>
<text text-anchor="middle" x="3213" y="-117" font-family="Helvetica,sans-Serif" font-size="10.00">compat/os/macosx.h</text>
</a>
</g>
</g>
<!-- Node5&#45;&gt;Node16 -->
<g id="edge14_Node000005_Node000016" class="edge">
<title>Node5&#45;&gt;Node16</title>
<g id="a_edge14_Node000005_Node000016"><a xlink:title=" ">
<path fill="none" stroke="#63b8ff" d="M1770.25,-172.54C1989.36,-168.35 2849.18,-150.87 3143.47,-129.02"/>
<polygon fill="#63b8ff" stroke="#63b8ff" points="3143.99,-132.49 3153.69,-128.24 3143.46,-125.51 3143.99,-132.49"/>
</a>
</g>
</g>
<!-- Node17 -->
<g id="Node000017" class="node">
<title>Node17</title>
<g id="a_Node000017"><a xlink:href="mingw_8h.html" target="_top" xlink:title=" ">
<polygon fill="white" stroke="#666666" points="112,-129 0,-129 0,-110 112,-110 112,-129"/>
<text text-anchor="middle" x="56" y="-117" font-family="Helvetica,sans-Serif" font-size="10.00">compat/os/mingw.h</text>
</a>
</g>
</g>
<!-- Node5&#45;&gt;Node17 -->
<g id="edge15_Node000005_Node000017" class="edge">
<title>Node5&#45;&gt;Node17</title>
<g id="a_edge15_Node000005_Node000017"><a xlink:title=" ">
<path fill="none" stroke="#63b8ff" d="M1667.84,-173.97C1470.1,-175.41 736.6,-177.02 122.72,-129.04"/>
<polygon fill="#63b8ff" stroke="#63b8ff" points="122.58,-125.52 112.33,-128.22 122.03,-132.5 122.58,-125.52"/>
</a>
</g>
</g>
<!-- Node18 -->
<g id="Node000018" class="node">
<title>Node18</title>
<g id="a_Node000018"><a xlink:href="mswindows_8h.html" target="_top" xlink:title=" ">
<polygon fill="white" stroke="#666666" points="267.5,-129 130.5,-129 130.5,-110 267.5,-110 267.5,-129"/>
<text text-anchor="middle" x="199" y="-117" font-family="Helvetica,sans-Serif" font-size="10.00">compat/os/mswindows.h</text>
</a>
</g>
</g>
<!-- Node5&#45;&gt;Node18 -->
<g id="edge16_Node000005_Node000018" class="edge">
<title>Node5&#45;&gt;Node18</title>
<g id="a_edge16_Node000005_Node000018"><a xlink:title=" ">
<path fill="none" stroke="#63b8ff" d="M1667.8,-173.38C1482.31,-172.66 827.85,-167.4 277.94,-129.08"/>
<polygon fill="#63b8ff" stroke="#63b8ff" points="278.04,-125.58 267.82,-128.37 277.55,-132.56 278.04,-125.58"/>
</a>
</g>
</g>
<!-- Node19 -->
<g id="Node000019" class="node">
<title>Node19</title>
<g id="a_Node000019"><a xlink:href="netbsd_8h.html" target="_top" xlink:title=" ">
<polygon fill="white" stroke="#666666" points="398.5,-129 285.5,-129 285.5,-110 398.5,-110 398.5,-129"/>
<text text-anchor="middle" x="342" y="-117" font-family="Helvetica,sans-Serif" font-size="10.00">compat/os/netbsd.h</text>
</a>
</g>
</g>
<!-- Node5&#45;&gt;Node19 -->
<g id="edge17_Node000005_Node000019" class="edge">
<title>Node5&#45;&gt;Node19</title>
<g id="a_edge17_Node000005_Node000019"><a xlink:title=" ">
<path fill="none" stroke="#63b8ff" d="M1667.94,-173.53C1493.48,-173.26 904.9,-169.29 408.91,-129.07"/>
<polygon fill="#63b8ff" stroke="#63b8ff" points="408.94,-125.56 398.69,-128.24 408.37,-132.54 408.94,-125.56"/>
</a>
</g>
</g>
<!-- Node20 -->
<g id="Node000020" class="node">
<title>Node20</title>
<g id="a_Node000020"><a xlink:href="openbsd_8h.html" target="_top" xlink:title=" ">
<polygon fill="white" stroke="#666666" points="537.5,-129 416.5,-129 416.5,-110 537.5,-110 537.5,-129"/>
<text text-anchor="middle" x="477" y="-117" font-family="Helvetica,sans-Serif" font-size="10.00">compat/os/openbsd.h</text>
</a>
</g>
</g>
<!-- Node5&#45;&gt;Node20 -->
<g id="edge18_Node000005_Node000020" class="edge">
<title>Node5&#45;&gt;Node20</title>
<g id="a_edge18_Node000005_Node000020"><a xlink:title=" ">
<path fill="none" stroke="#63b8ff" d="M1667.75,-173.1C1505.25,-171.52 986.86,-163.93 547.59,-129.06"/>
<polygon fill="#63b8ff" stroke="#63b8ff" points="547.8,-125.56 537.55,-128.25 547.24,-132.54 547.8,-125.56"/>
</a>
</g>
</g>
<!-- Node21 -->
<g id="Node000021" class="node">
<title>Node21</title>
<g id="a_Node000021"><a xlink:href="os2_8h.html" target="_top" xlink:title=" ">
<polygon fill="white" stroke="#666666" points="652.5,-129 555.5,-129 555.5,-110 652.5,-110 652.5,-129"/>
<text text-anchor="middle" x="604" y="-117" font-family="Helvetica,sans-Serif" font-size="10.00">compat/os/os2.h</text>
</a>
</g>
</g>
<!-- Node5&#45;&gt;Node21 -->
<g id="edge19_Node000005_Node000021" class="edge">
<title>Node5&#45;&gt;Node21</title>
<g id="a_edge19_Node000005_Node000021"><a xlink:title=" ">
<path fill="none" stroke="#63b8ff" d="M1668,-173.22C1516.46,-171.99 1055.58,-165.39 662.83,-128.96"/>
<polygon fill="#63b8ff" stroke="#63b8ff" points="662.97,-125.46 652.69,-128.01 662.32,-132.43 662.97,-125.46"/>
</a>
</g>
</g>
<!-- Node22 -->
<g id="Node000022" class="node">
<title>Node22</title>
<g id="a_Node000022"><a xlink:href="qnx_8h.html" target="_top" xlink:title=" ">
<polygon fill="white" stroke="#666666" points="769,-129 671,-129 671,-110 769,-110 769,-129"/>
<text text-anchor="middle" x="720" y="-117" font-family="Helvetica,sans-Serif" font-size="10.00">compat/os/qnx.h</text>
</a>
</g>
</g>
<!-- Node5&#45;&gt;Node22 -->
<g id="edge20_Node000005_Node000022" class="edge">
<title>Node5&#45;&gt;Node22</title>
<g id="a_edge20_Node000005_Node000022"><a xlink:title=" ">
<path fill="none" stroke="#63b8ff" d="M1667.87,-172.85C1527.57,-170.68 1124.58,-161.91 779.21,-129.01"/>
<polygon fill="#63b8ff" stroke="#63b8ff" points="779.3,-125.5 769.01,-128.03 778.63,-132.47 779.3,-125.5"/>
</a>
</g>
</g>
<!-- Node23 -->
<g id="Node000023" class="node">
<title>Node23</title>
<g id="a_Node000023"><a xlink:href="sgi_8h.html" target="_top" xlink:title=" ">
<polygon fill="white" stroke="#666666" points="881,-129 787,-129 787,-110 881,-110 881,-129"/>
<text text-anchor="middle" x="834" y="-117" font-family="Helvetica,sans-Serif" font-size="10.00">compat/os/sgi.h</text>
</a>
</g>
</g>
<!-- Node5&#45;&gt;Node23 -->
<g id="edge21_Node000005_Node000023" class="edge">
<title>Node5&#45;&gt;Node23</title>
<g id="a_edge21_Node000005_Node000023"><a xlink:title=" ">
<path fill="none" stroke="#63b8ff" d="M1667.93,-172.48C1539.3,-169.55 1191.5,-159.32 891.22,-129.01"/>
<polygon fill="#63b8ff" stroke="#63b8ff" points="891.31,-125.51 881.01,-127.97 890.61,-132.47 891.31,-125.51"/>
</a>
</g>
</g>
<!-- Node24 -->
<g id="Node000024" class="node">
<title>Node24</title>
<g id="a_Node000024"><a xlink:href="solaris_8h.html" target="_top" xlink:title=" ">
<polygon fill="white" stroke="#666666" points="1011,-129 899,-129 899,-110 1011,-110 1011,-129"/>
<text text-anchor="middle" x="955" y="-117" font-family="Helvetica,sans-Serif" font-size="10.00">compat/os/solaris.h</text>
</a>
</g>
</g>
<!-- Node5&#45;&gt;Node24 -->
<g id="edge22_Node000005_Node000024" class="edge">
<title>Node5&#45;&gt;Node24</title>
<g id="a_edge22_Node000005_Node000024"><a xlink:title=" ">
<path fill="none" stroke="#63b8ff" d="M1667.6,-171.4C1553.39,-166.48 1269.66,-152.86 1021.64,-129.09"/>
<polygon fill="#63b8ff" stroke="#63b8ff" points="1021.63,-125.58 1011.34,-128.1 1020.96,-132.55 1021.63,-125.58"/>
</a>
</g>
</g>
<!-- Node25 -->
<g id="Node000025" class="node">
<title>Node25</title>
<g id="a_Node000025"><a xlink:href="sunos_8h.html" target="_top" xlink:title=" ">
<polygon fill="white" stroke="#666666" points="1137,-129 1029,-129 1029,-110 1137,-110 1137,-129"/>
<text text-anchor="middle" x="1083" y="-117" font-family="Helvetica,sans-Serif" font-size="10.00">compat/os/sunos.h</text>
</a>
</g>
</g>
<!-- Node5&#45;&gt;Node25 -->
<g id="edge23_Node000005_Node000025" class="edge">
<title>Node5&#45;&gt;Node25</title>
<g id="a_edge23_Node000005_Node000025"><a xlink:title=" ">
<path fill="none" stroke="#63b8ff" d="M1667.94,-170.51C1569.37,-164.52 1345.82,-149.91 1147.3,-129.08"/>
<polygon fill="#63b8ff" stroke="#63b8ff" points="1147.59,-125.59 1137.27,-128.02 1146.85,-132.55 1147.59,-125.59"/>
</a>
</g>
</g>
<!-- Node26 -->
<g id="Node000026" class="node">
<title>Node26</title>
<g id="a_Node000026"><a xlink:href="assert_8h.html" target="_top" xlink:title=" ">
<polygon fill="white" stroke="#666666" points="1250.5,-129 1155.5,-129 1155.5,-110 1250.5,-110 1250.5,-129"/>
<text text-anchor="middle" x="1203" y="-117" font-family="Helvetica,sans-Serif" font-size="10.00">compat/assert.h</text>
</a>
</g>
</g>
<!-- Node5&#45;&gt;Node26 -->
<g id="edge24_Node000005_Node000026" class="edge">
<title>Node5&#45;&gt;Node26</title>
<g id="a_edge24_Node000005_Node000026"><a xlink:title=" ">
<path fill="none" stroke="#63b8ff" d="M1667.96,-169.41C1584.95,-162.58 1415.29,-147.82 1260.72,-129.02"/>
<polygon fill="#63b8ff" stroke="#63b8ff" points="1260.91,-125.52 1250.56,-127.78 1260.06,-132.47 1260.91,-125.52"/>
</a>
</g>
</g>
<!-- Node27 -->
<g id="Node000027" class="node">
<title>Node27</title>
<g id="a_Node000027"><a xlink:href="compat__shared_8h.html" target="_top" xlink:title=" ">
<polygon fill="#fff0f0" stroke="red" points="1409,-129 1269,-129 1269,-110 1409,-110 1409,-129"/>
<text text-anchor="middle" x="1339" y="-117" font-family="Helvetica,sans-Serif" font-size="10.00">compat/compat_shared.h</text>
</a>
</g>
</g>
<!-- Node5&#45;&gt;Node27 -->
<g id="edge25_Node000005_Node000027" class="edge">
<title>Node5&#45;&gt;Node27</title>
<g id="a_edge25_Node000005_Node000027"><a xlink:title=" ">
<path fill="none" stroke="#63b8ff" d="M1667.75,-166.35C1601.39,-157.1 1485.36,-140.91 1410.39,-130.46"/>
<polygon fill="#63b8ff" stroke="#63b8ff" points="1410.48,-126.94 1400.1,-129.02 1409.52,-133.87 1410.48,-126.94"/>
</a>
</g>
</g>
<!-- Node37 -->
<g id="Node000037" class="node">
<title>Node37</title>
<g id="a_Node000037"><a xlink:href="stdvarargs_8h.html" target="_top" xlink:title=" ">
<polygon fill="#fff0f0" stroke="red" points="1544.5,-129 1427.5,-129 1427.5,-110 1544.5,-110 1544.5,-129"/>
<text text-anchor="middle" x="1486" y="-117" font-family="Helvetica,sans-Serif" font-size="10.00">compat/stdvarargs.h</text>
</a>
</g>
</g>
<!-- Node5&#45;&gt;Node37 -->
<g id="edge26_Node000005_Node000037" class="edge">
<title>Node5&#45;&gt;Node37</title>
<g id="a_edge26_Node000005_Node000037"><a xlink:title=" ">
<path fill="none" stroke="#63b8ff" d="M1681.56,-164.98C1641.35,-155.84 1577.32,-141.27 1533.56,-131.32"/>
<polygon fill="#63b8ff" stroke="#63b8ff" points="1534.26,-127.89 1523.73,-129.08 1532.7,-134.71 1534.26,-127.89"/>
</a>
</g>
</g>
<!-- Node39 -->
<g id="Node000039" class="node">
<title>Node39</title>
<g id="a_Node000039"><a xlink:href="stdio_8h.html" target="_top" xlink:title=" ">
<polygon fill="#fff0f0" stroke="red" points="1651.5,-129 1562.5,-129 1562.5,-110 1651.5,-110 1651.5,-129"/>
<text text-anchor="middle" x="1607" y="-117" font-family="Helvetica,sans-Serif" font-size="10.00">compat/stdio.h</text>
</a>
</g>
</g>
<!-- Node5&#45;&gt;Node39 -->
<g id="edge27_Node000005_Node000039" class="edge">
<title>Node5&#45;&gt;Node39</title>
<g id="a_edge27_Node000005_Node000039"><a xlink:title=" ">
<path fill="none" stroke="#63b8ff" d="M1701.01,-164.98C1683.07,-156.5 1655.28,-143.35 1634.57,-133.54"/>
<polygon fill="#63b8ff" stroke="#63b8ff" points="1635.86,-130.28 1625.32,-129.17 1632.86,-136.61 1635.86,-130.28"/>
</a>
</g>
</g>
<!-- Node41 -->
<g id="Node000041" class="node">
<title>Node41</title>
<g id="a_Node000041"><a xlink:href="statvfs_8h.html" target="_top" xlink:title=" ">
<polygon fill="white" stroke="#666666" points="1768.5,-129 1669.5,-129 1669.5,-110 1768.5,-110 1768.5,-129"/>
<text text-anchor="middle" x="1719" y="-117" font-family="Helvetica,sans-Serif" font-size="10.00">compat/statvfs.h</text>
</a>
</g>
</g>
<!-- Node5&#45;&gt;Node41 -->
<g id="edge28_Node000005_Node000041" class="edge">
<title>Node5&#45;&gt;Node41</title>
<g id="a_edge28_Node000005_Node000041"><a xlink:title=" ">
<path fill="none" stroke="#63b8ff" d="M1719,-164.75C1719,-157.8 1719,-147.85 1719,-139.13"/>
<polygon fill="#63b8ff" stroke="#63b8ff" points="1722.5,-139.09 1719,-129.09 1715.5,-139.09 1722.5,-139.09"/>
</a>
</g>
</g>
<!-- Node42 -->
<g id="Node000042" class="node">
<title>Node42</title>
<g id="a_Node000042"><a xlink:href="debug_8h.html" target="_top" xlink:title=" ">
<polygon fill="white" stroke="#666666" points="1881.5,-129 1786.5,-129 1786.5,-110 1881.5,-110 1881.5,-129"/>
<text text-anchor="middle" x="1834" y="-117" font-family="Helvetica,sans-Serif" font-size="10.00">compat/debug.h</text>
</a>
</g>
</g>
<!-- Node5&#45;&gt;Node42 -->
<g id="edge29_Node000005_Node000042" class="edge">
<title>Node5&#45;&gt;Node42</title>
<g id="a_edge29_Node000005_Node000042"><a xlink:title=" ">
<path fill="none" stroke="#63b8ff" d="M1737.48,-164.98C1755.98,-156.46 1784.68,-143.23 1805.98,-133.41"/>
<polygon fill="#63b8ff" stroke="#63b8ff" points="1807.57,-136.53 1815.19,-129.17 1804.64,-130.18 1807.57,-136.53"/>
</a>
</g>
</g>
<!-- Node43 -->
<g id="Node000043" class="node">
<title>Node43</title>
<g id="a_Node000043"><a xlink:href="valgrind_8h.html" target="_top" xlink:title=" ">
<polygon fill="#fff0f0" stroke="red" points="2004.5,-129 1899.5,-129 1899.5,-110 2004.5,-110 2004.5,-129"/>
<text text-anchor="middle" x="1952" y="-117" font-family="Helvetica,sans-Serif" font-size="10.00">compat/valgrind.h</text>
</a>
</g>
</g>
<!-- Node5&#45;&gt;Node43 -->
<g id="edge30_Node000005_Node000043" class="edge">
<title>Node5&#45;&gt;Node43</title>
<g id="a_edge30_Node000005_Node000043"><a xlink:title=" ">
<path fill="none" stroke="#63b8ff" d="M1756.44,-164.98C1796.65,-155.84 1860.68,-141.27 1904.44,-131.32"/>
<polygon fill="#63b8ff" stroke="#63b8ff" points="1905.3,-134.71 1914.27,-129.08 1903.74,-127.89 1905.3,-134.71"/>
</a>
</g>
</g>
<!-- Node46 -->
<g id="Node000046" class="node">
<title>Node46</title>
<g id="a_Node000046"><a xlink:title=" ">
<polygon fill="#e0e0e0" stroke="#999999" points="2557.5,-184 2510.5,-184 2510.5,-165 2557.5,-165 2557.5,-184"/>
<text text-anchor="middle" x="2534" y="-172" font-family="Helvetica,sans-Serif" font-size="10.00">vector</text>
</a>
</g>
</g>
<!-- Node45&#45;&gt;Node46 -->
<g id="edge32_Node000045_Node000046" class="edge">
<title>Node45&#45;&gt;Node46</title>
<g id="a_edge32_Node000045_Node000046"><a xlink:title=" ">
<path fill="none" stroke="#63b8ff" d="M2534,-219.75C2534,-212.8 2534,-202.85 2534,-194.13"/>
<polygon fill="#63b8ff" stroke="#63b8ff" points="2537.5,-194.09 2534,-184.09 2530.5,-194.09 2537.5,-194.09"/>
</a>
</g>
</g>
<!-- Node48 -->
<g id="Node000048" class="node">
<title>Node48</title>
<g id="a_Node000048"><a xlink:href="InstanceId_8h.html" target="_top" xlink:title=" ">
<polygon fill="white" stroke="#666666" points="3602,-129 3500,-129 3500,-110 3602,-110 3602,-129"/>
<text text-anchor="middle" x="3551" y="-117" font-family="Helvetica,sans-Serif" font-size="10.00">base/InstanceId.h</text>
</a>
</g>
</g>
<!-- Node47&#45;&gt;Node48 -->
<g id="edge34_Node000047_Node000048" class="edge">
<title>Node47&#45;&gt;Node48</title>
<g id="a_edge34_Node000047_Node000048"><a xlink:title=" ">
<path fill="none" stroke="#63b8ff" d="M3502.52,-223.82C3526.85,-218.56 3557.42,-207.44 3573,-184 3582.45,-169.79 3573.92,-151.09 3564.87,-137.67"/>
<polygon fill="#63b8ff" stroke="#63b8ff" points="3567.49,-135.32 3558.74,-129.34 3561.85,-139.47 3567.49,-135.32"/>
</a>
</g>
</g>
<!-- Node49 -->
<g id="Node000049" class="node">
<title>Node49</title>
<g id="a_Node000049"><a xlink:title=" ">
<polygon fill="#e0e0e0" stroke="#999999" points="3634,-19 3586,-19 3586,0 3634,0 3634,-19"/>
<text text-anchor="middle" x="3610" y="-7" font-family="Helvetica,sans-Serif" font-size="10.00">iosfwd</text>
</a>
</g>
</g>
<!-- Node47&#45;&gt;Node49 -->
<g id="edge54_Node000047_Node000049" class="edge">
<title>Node47&#45;&gt;Node49</title>
<g id="a_edge54_Node000047_Node000049"><a xlink:title=" ">
<path fill="none" stroke="#63b8ff" d="M3502.68,-223.49C3529.51,-218.01 3565.53,-206.76 3589,-184 3631.06,-143.21 3621.62,-65.24 3614.44,-29.39"/>
<polygon fill="#63b8ff" stroke="#63b8ff" points="3617.8,-28.36 3612.25,-19.33 3610.95,-29.84 3617.8,-28.36"/>
</a>
</g>
</g>
<!-- Node50 -->
<g id="Node000050" class="node">
<title>Node50</title>
<g id="a_Node000050"><a xlink:href="TextException_8h.html" target="_top" xlink:title=" ">
<polygon fill="white" stroke="#666666" points="3805,-184 3685,-184 3685,-165 3805,-165 3805,-184"/>
<text text-anchor="middle" x="3745" y="-172" font-family="Helvetica,sans-Serif" font-size="10.00">base/TextException.h</text>
</a>
</g>
</g>
<!-- Node47&#45;&gt;Node50 -->
<g id="edge36_Node000047_Node000050" class="edge">
<title>Node47&#45;&gt;Node50</title>
<g id="a_edge36_Node000047_Node000050"><a xlink:title=" ">
<path fill="none" stroke="#63b8ff" d="M3502.77,-221.68C3550.27,-212.63 3634.59,-196.55 3690.15,-185.96"/>
<polygon fill="#63b8ff" stroke="#63b8ff" points="3691,-189.36 3700.17,-184.05 3689.69,-182.48 3691,-189.36"/>
</a>
</g>
</g>
<!-- Node54 -->
<g id="Node000054" class="node">
<title>Node54</title>
<g id="a_Node000054"><a xlink:href="debug_2Stream_8h.html" target="_top" xlink:title=" ">
<polygon fill="#fff0f0" stroke="red" points="4031,-184 3937,-184 3937,-165 4031,-165 4031,-184"/>
<text text-anchor="middle" x="3984" y="-172" font-family="Helvetica,sans-Serif" font-size="10.00">debug/Stream.h</text>
</a>
</g>
</g>
<!-- Node47&#45;&gt;Node54 -->
<g id="edge42_Node000047_Node000054" class="edge">
<title>Node47&#45;&gt;Node54</title>
<g id="a_edge42_Node000047_Node000054"><a xlink:title=" ">
<path fill="none" stroke="#63b8ff" d="M3502.54,-224.86C3590.61,-215.83 3819.59,-192.35 3926.91,-181.35"/>
<polygon fill="#63b8ff" stroke="#63b8ff" points="3927.32,-184.83 3936.91,-180.33 3926.61,-177.87 3927.32,-184.83"/>
</a>
</g>
</g>
<!-- Node59 -->
<g id="Node000059" class="node">
<title>Node59</title>
<g id="a_Node000059"><a xlink:href="globals_8h.html" target="_top" xlink:title=" ">
<polygon fill="#fff0f0" stroke="red" points="3166.5,-184 3105.5,-184 3105.5,-165 3166.5,-165 3166.5,-184"/>
<text text-anchor="middle" x="3136" y="-172" font-family="Helvetica,sans-Serif" font-size="10.00">globals.h</text>
</a>
</g>
</g>
<!-- Node47&#45;&gt;Node59 -->
<g id="edge47_Node000047_Node000059" class="edge">
<title>Node47&#45;&gt;Node59</title>
<g id="a_edge47_Node000047_Node000059"><a xlink:title=" ">
<path fill="none" stroke="#63b8ff" d="M3431.37,-223.81C3378.07,-216.64 3274.22,-202.03 3176.65,-184.21"/>
<polygon fill="#63b8ff" stroke="#63b8ff" points="3177.09,-180.74 3166.62,-182.37 3175.82,-187.62 3177.09,-180.74"/>
</a>
</g>
</g>
<!-- Node70 -->
<g id="Node000070" class="node">
<title>Node70</title>
<g id="a_Node000070"><a xlink:href="sbuf_2forward_8h.html" target="_top" xlink:title=" ">
<polygon fill="#fff0f0" stroke="red" points="3271.5,-184 3184.5,-184 3184.5,-165 3271.5,-165 3271.5,-184"/>
<text text-anchor="middle" x="3228" y="-172" font-family="Helvetica,sans-Serif" font-size="10.00">sbuf/forward.h</text>
</a>
</g>
</g>
<!-- Node47&#45;&gt;Node70 -->
<g id="edge48_Node000047_Node000070" class="edge">
<title>Node47&#45;&gt;Node70</title>
<g id="a_edge48_Node000047_Node000070"><a xlink:title=" ">
<path fill="none" stroke="#63b8ff" d="M3431.48,-220.62C3390.37,-211.51 3322.47,-196.45 3276.52,-186.26"/>
<polygon fill="#63b8ff" stroke="#63b8ff" points="3277.01,-182.78 3266.49,-184.04 3275.5,-189.62 3277.01,-182.78"/>
</a>
</g>
</g>
<!-- Node77 -->
<g id="Node000077" class="node">
<title>Node77</title>
<g id="a_Node000077"><a xlink:href="MemBlob_8h.html" target="_top" xlink:title=" ">
<polygon fill="#fff0f0" stroke="red" points="3424,-184 3328,-184 3328,-165 3424,-165 3424,-184"/>
<text text-anchor="middle" x="3376" y="-172" font-family="Helvetica,sans-Serif" font-size="10.00">sbuf/MemBlob.h</text>
</a>
</g>
</g>
<!-- Node47&#45;&gt;Node77 -->
<g id="edge49_Node000047_Node000077" class="edge">
<title>Node47&#45;&gt;Node77</title>
<g id="a_edge49_Node000047_Node000077"><a xlink:title=" ">
<path fill="none" stroke="#63b8ff" d="M3452.38,-219.98C3438.14,-211.69 3416.25,-198.94 3399.55,-189.22"/>
<polygon fill="#63b8ff" stroke="#63b8ff" points="3401.29,-186.18 3390.89,-184.17 3397.77,-192.23 3401.29,-186.18"/>
</a>
</g>
</g>
<!-- Node79 -->
<g id="Node000079" class="node">
<title>Node79</title>
<g id="a_Node000079"><a xlink:href="sbuf_2Stats_8h.html" target="_top" xlink:title=" ">
<polygon fill="white" stroke="#666666" points="3450,-74 3376,-74 3376,-55 3450,-55 3450,-74"/>
<text text-anchor="middle" x="3413" y="-62" font-family="Helvetica,sans-Serif" font-size="10.00">sbuf/Stats.h</text>
</a>
</g>
</g>
<!-- Node47&#45;&gt;Node79 -->
<g id="edge51_Node000047_Node000079" class="edge">
<title>Node47&#45;&gt;Node79</title>
<g id="a_edge51_Node000047_Node000079"><a xlink:title=" ">
<path fill="none" stroke="#63b8ff" d="M3431.31,-228.97C3396.35,-227.27 3344.7,-218.56 3319,-184 3290.18,-145.24 3351.29,-101.01 3387.98,-79.18"/>
<polygon fill="#63b8ff" stroke="#63b8ff" points="3389.81,-82.16 3396.72,-74.13 3386.31,-76.1 3389.81,-82.16"/>
</a>
</g>
</g>
<!-- Node80 -->
<g id="Node000080" class="node">
<title>Node80</title>
<g id="a_Node000080"><a xlink:title=" ">
<polygon fill="#e0e0e0" stroke="#999999" points="3492,-184 3442,-184 3442,-165 3492,-165 3492,-184"/>
<text text-anchor="middle" x="3467" y="-172" font-family="Helvetica,sans-Serif" font-size="10.00">climits</text>
</a>
</g>
</g>
<!-- Node47&#45;&gt;Node80 -->
<g id="edge53_Node000047_Node000080" class="edge">
<title>Node47&#45;&gt;Node80</title>
<g id="a_edge53_Node000047_Node000080"><a xlink:title=" ">
<path fill="none" stroke="#63b8ff" d="M3467,-219.75C3467,-212.8 3467,-202.85 3467,-194.13"/>
<polygon fill="#63b8ff" stroke="#63b8ff" points="3470.5,-194.09 3467,-184.09 3463.5,-194.09 3470.5,-194.09"/>
</a>
</g>
</g>
<!-- Node81 -->
<g id="Node000081" class="node">
<title>Node81</title>
<g id="a_Node000081"><a xlink:title=" ">
<polygon fill="#e0e0e0" stroke="#999999" points="3563.5,-184 3510.5,-184 3510.5,-165 3563.5,-165 3563.5,-184"/>
<text text-anchor="middle" x="3537" y="-172" font-family="Helvetica,sans-Serif" font-size="10.00">iterator</text>
</a>
</g>
</g>
<!-- Node47&#45;&gt;Node81 -->
<g id="edge55_Node000047_Node000081" class="edge">
<title>Node47&#45;&gt;Node81</title>
<g id="a_edge55_Node000047_Node000081"><a xlink:title=" ">
<path fill="none" stroke="#63b8ff" d="M3478.25,-219.98C3488.8,-212 3504.8,-199.88 3517.44,-190.31"/>
<polygon fill="#63b8ff" stroke="#63b8ff" points="3519.69,-193 3525.55,-184.17 3515.46,-187.42 3519.69,-193"/>
</a>
</g>
</g>
<!-- Node48&#45;&gt;Node49 -->
<g id="edge35_Node000048_Node000049" class="edge">
<title>Node48&#45;&gt;Node49</title>
<g id="a_edge35_Node000048_Node000049"><a xlink:title=" ">
<path fill="none" stroke="#63b8ff" d="M3555.83,-109.66C3565.56,-91.85 3587.68,-51.37 3600.44,-28.01"/>
<polygon fill="#63b8ff" stroke="#63b8ff" points="3603.55,-29.61 3605.27,-19.16 3597.4,-26.26 3603.55,-29.61"/>
</a>
</g>
</g>
<!-- Node51 -->
<g id="Node000051" class="node">
<title>Node51</title>
<g id="a_Node000051"><a xlink:href="Assure_8h.html" target="_top" xlink:title=" ">
<polygon fill="white" stroke="#666666" points="3743.5,-129 3658.5,-129 3658.5,-110 3743.5,-110 3743.5,-129"/>
<text text-anchor="middle" x="3701" y="-117" font-family="Helvetica,sans-Serif" font-size="10.00">base/Assure.h</text>
</a>
</g>
</g>
<!-- Node50&#45;&gt;Node51 -->
<g id="edge37_Node000050_Node000051" class="edge">
<title>Node50&#45;&gt;Node51</title>
<g id="a_edge37_Node000050_Node000051"><a xlink:title=" ">
<path fill="none" stroke="#63b8ff" d="M3737.73,-164.75C3731.46,-157.18 3722.21,-146.05 3714.57,-136.84"/>
<polygon fill="#63b8ff" stroke="#63b8ff" points="3717.21,-134.55 3708.13,-129.09 3711.83,-139.02 3717.21,-134.55"/>
</a>
</g>
</g>
<!-- Node52 -->
<g id="Node000052" class="node">
<title>Node52</title>
<g id="a_Node000052"><a xlink:href="Here_8h.html" target="_top" xlink:title=" ">
<polygon fill="white" stroke="#666666" points="3773.5,-74 3698.5,-74 3698.5,-55 3773.5,-55 3773.5,-74"/>
<text text-anchor="middle" x="3736" y="-62" font-family="Helvetica,sans-Serif" font-size="10.00">base/Here.h</text>
</a>
</g>
</g>
<!-- Node50&#45;&gt;Node52 -->
<g id="edge40_Node000050_Node000052" class="edge">
<title>Node50&#45;&gt;Node52</title>
<g id="a_edge40_Node000050_Node000052"><a xlink:title=" ">
<path fill="none" stroke="#63b8ff" d="M3747.77,-164.82C3751.32,-152.55 3756.59,-129.45 3753,-110 3751.33,-100.95 3747.9,-91.36 3744.56,-83.41"/>
<polygon fill="#63b8ff" stroke="#63b8ff" points="3747.66,-81.78 3740.37,-74.09 3741.27,-84.65 3747.66,-81.78"/>
</a>
</g>
</g>
<!-- Node53 -->
<g id="Node000053" class="node">
<title>Node53</title>
<g id="a_Node000053"><a xlink:title=" ">
<polygon fill="#e0e0e0" stroke="#999999" points="3865.5,-129 3800.5,-129 3800.5,-110 3865.5,-110 3865.5,-129"/>
<text text-anchor="middle" x="3833" y="-117" font-family="Helvetica,sans-Serif" font-size="10.00">stdexcept</text>
</a>
</g>
</g>
<!-- Node50&#45;&gt;Node53 -->
<g id="edge41_Node000050_Node000053" class="edge">
<title>Node50&#45;&gt;Node53</title>
<g id="a_edge41_Node000050_Node000053"><a xlink:title=" ">
<path fill="none" stroke="#63b8ff" d="M3759.14,-164.98C3772.79,-156.77 3793.69,-144.18 3809.78,-134.49"/>
<polygon fill="#63b8ff" stroke="#63b8ff" points="3811.84,-137.33 3818.6,-129.17 3808.23,-131.33 3811.84,-137.33"/>
</a>
</g>
</g>
<!-- Node51&#45;&gt;Node52 -->
<g id="edge38_Node000051_Node000052" class="edge">
<title>Node51&#45;&gt;Node52</title>
<g id="a_edge38_Node000051_Node000052"><a xlink:title=" ">
<path fill="none" stroke="#63b8ff" d="M3706.78,-109.75C3711.62,-102.42 3718.68,-91.73 3724.64,-82.7"/>
<polygon fill="#63b8ff" stroke="#63b8ff" points="3727.74,-84.36 3730.33,-74.09 3721.9,-80.5 3727.74,-84.36"/>
</a>
</g>
</g>
<!-- Node52&#45;&gt;Node49 -->
<g id="edge39_Node000052_Node000049" class="edge">
<title>Node52&#45;&gt;Node49</title>
<g id="a_edge39_Node000052_Node000049"><a xlink:title=" ">
<path fill="none" stroke="#63b8ff" d="M3715.76,-54.98C3695.3,-46.38 3663.47,-32.99 3640.07,-23.15"/>
<polygon fill="#63b8ff" stroke="#63b8ff" points="3641.19,-19.82 3630.61,-19.17 3638.47,-26.27 3641.19,-19.82"/>
</a>
</g>
</g>
<!-- Node54&#45;&gt;Node52 -->
<g id="edge43_Node000054_Node000052" class="edge">
<title>Node54&#45;&gt;Node52</title>
<g id="a_edge43_Node000054_Node000052"><a xlink:title=" ">
<path fill="none" stroke="#63b8ff" d="M3971.4,-164.93C3951.58,-151.74 3911.62,-126.29 3875,-110 3843.97,-96.19 3807.33,-84.64 3779.46,-76.77"/>
<polygon fill="#63b8ff" stroke="#63b8ff" points="3780.18,-73.34 3769.61,-74.04 3778.31,-80.09 3780.18,-73.34"/>
</a>
</g>
</g>
<!-- Node55 -->
<g id="Node000055" class="node">
<title>Node55</title>
<g id="a_Node000055"><a xlink:href="AllocatorProxy_8h.html" target="_top" xlink:title=" ">
<polygon fill="white" stroke="#666666" points="4046,-129 3922,-129 3922,-110 4046,-110 4046,-129"/>
<text text-anchor="middle" x="3984" y="-117" font-family="Helvetica,sans-Serif" font-size="10.00">mem/AllocatorProxy.h</text>
</a>
</g>
</g>
<!-- Node54&#45;&gt;Node55 -->
<g id="edge44_Node000054_Node000055" class="edge">
<title>Node54&#45;&gt;Node55</title>
<g id="a_edge44_Node000054_Node000055"><a xlink:title=" ">
<path fill="none" stroke="#63b8ff" d="M3984,-164.75C3984,-157.8 3984,-147.85 3984,-139.13"/>
<polygon fill="#63b8ff" stroke="#63b8ff" points="3987.5,-139.09 3984,-129.09 3980.5,-139.09 3987.5,-139.09"/>
</a>
</g>
</g>
<!-- Node56 -->
<g id="Node000056" class="node">
<title>Node56</title>
<g id="a_Node000056"><a xlink:title=" ">
<polygon fill="#e0e0e0" stroke="#999999" points="4124,-129 4064,-129 4064,-110 4124,-110 4124,-129"/>
<text text-anchor="middle" x="4094" y="-117" font-family="Helvetica,sans-Serif" font-size="10.00">iostream</text>
</a>
</g>
</g>
<!-- Node54&#45;&gt;Node56 -->
<g id="edge45_Node000054_Node000056" class="edge">
<title>Node54&#45;&gt;Node56</title>
<g id="a_edge45_Node000054_Node000056"><a xlink:title=" ">
<path fill="none" stroke="#63b8ff" d="M4001.67,-164.98C4019.29,-156.5 4046.58,-143.35 4066.93,-133.54"/>
<polygon fill="#63b8ff" stroke="#63b8ff" points="4068.52,-136.66 4076.01,-129.17 4065.48,-130.36 4068.52,-136.66"/>
</a>
</g>
</g>
<!-- Node57 -->
<g id="Node000057" class="node">
<title>Node57</title>
<g id="a_Node000057"><a xlink:title=" ">
<polygon fill="#e0e0e0" stroke="#999999" points="4198,-129 4142,-129 4142,-110 4198,-110 4198,-129"/>
<text text-anchor="middle" x="4170" y="-117" font-family="Helvetica,sans-Serif" font-size="10.00">sstream</text>
</a>
</g>
</g>
<!-- Node54&#45;&gt;Node57 -->
<g id="edge46_Node000054_Node000057" class="edge">
<title>Node54&#45;&gt;Node57</title>
<g id="a_edge46_Node000054_Node000057"><a xlink:title=" ">
<path fill="none" stroke="#63b8ff" d="M4013.88,-164.98C4045.94,-155.85 4096.95,-141.32 4131.87,-131.36"/>
<polygon fill="#63b8ff" stroke="#63b8ff" points="4133.06,-134.67 4141.71,-128.56 4131.14,-127.93 4133.06,-134.67"/>
</a>
</g>
</g>
<!-- Node77&#45;&gt;Node48 -->
<g id="edge50_Node000077_Node000048" class="edge">
<title>Node77&#45;&gt;Node48</title>
<g id="a_edge50_Node000077_Node000048"><a xlink:title=" ">
<path fill="none" stroke="#63b8ff" d="M3404.12,-164.98C3433.62,-156.05 3480.19,-141.94 3512.97,-132.02"/>
<polygon fill="#63b8ff" stroke="#63b8ff" points="3514.11,-135.33 3522.66,-129.08 3512.08,-128.63 3514.11,-135.33"/>
</a>
</g>
</g>
<!-- Node79&#45;&gt;Node49 -->
<g id="edge52_Node000079_Node000049" class="edge">
<title>Node79&#45;&gt;Node49</title>
<g id="a_edge52_Node000079_Node000049"><a xlink:title=" ">
<path fill="none" stroke="#63b8ff" d="M3444.65,-54.98C3480.64,-45.3 3539.17,-29.56 3576.08,-19.63"/>
<polygon fill="#63b8ff" stroke="#63b8ff" points="3577.13,-22.97 3585.88,-16.99 3575.31,-16.21 3577.13,-22.97"/>
</a>
</g>
</g>
</g>
</svg>
