<?xml version="1.0" encoding="UTF-8" standalone="no"?>
<!DOCTYPE svg PUBLIC "-//W3C//DTD SVG 1.1//EN"
 "http://www.w3.org/Graphics/SVG/1.1/DTD/svg11.dtd">
<!-- Generated by graphviz version 2.43.0 (0)
 -->
<!-- Title: squid/src/DiskIO/DiskThreads/CommIO.h Pages: 1 -->
<svg width="650pt" height="104pt"
 viewBox="0.00 0.00 650.00 104.00" xmlns="http://www.w3.org/2000/svg" xmlns:xlink="http://www.w3.org/1999/xlink">
<g id="graph0" class="graph" transform="scale(1 1) rotate(0) translate(4 100)">
<title>squid/src/DiskIO/DiskThreads/CommIO.h</title>
<!-- Node1 -->
<g id="Node000001" class="node">
<title>Node1</title>
<g id="a_Node000001"><a xlink:title=" ">
<polygon fill="#999999" stroke="#666666" points="424,-96 265,-96 265,-66 424,-66 424,-96"/>
<text text-anchor="start" x="273" y="-84" font-family="Helvetica,sans-Serif" font-size="10.00">squid/src/DiskIO/DiskThreads</text>
<text text-anchor="middle" x="344.5" y="-73" font-family="Helvetica,sans-Serif" font-size="10.00">/CommIO.h</text>
</a>
</g>
</g>
<!-- Node2 -->
<g id="Node000002" class="node">
<title>Node2</title>
<g id="a_Node000002"><a xlink:href="CommIO_8cc.html" target="_top" xlink:title=" ">
<polygon fill="white" stroke="#666666" points="159,-30 0,-30 0,0 159,0 159,-30"/>
<text text-anchor="start" x="8" y="-18" font-family="Helvetica,sans-Serif" font-size="10.00">squid/src/DiskIO/DiskThreads</text>
<text text-anchor="middle" x="79.5" y="-7" font-family="Helvetica,sans-Serif" font-size="10.00">/CommIO.cc</text>
</a>
</g>
</g>
<!-- Node1&#45;&gt;Node2 -->
<g id="edge1_Node000001_Node000002" class="edge">
<title>Node1&#45;&gt;Node2</title>
<g id="a_edge1_Node000001_Node000002"><a xlink:title=" ">
<path fill="none" stroke="#63b8ff" d="M276.52,-63.58C233.5,-53.19 178.48,-39.9 137.52,-30.01"/>
<polygon fill="#63b8ff" stroke="#63b8ff" points="275.8,-67.01 286.34,-65.95 277.45,-60.21 275.8,-67.01"/>
</a>
</g>
</g>
<!-- Node3 -->
<g id="Node000003" class="node">
<title>Node3</title>
<g id="a_Node000003"><a xlink:href="aiops_8cc.html" target="_top" xlink:title=" ">
<polygon fill="white" stroke="#666666" points="336,-30 177,-30 177,0 336,0 336,-30"/>
<text text-anchor="start" x="185" y="-18" font-family="Helvetica,sans-Serif" font-size="10.00">squid/src/DiskIO/DiskThreads</text>
<text text-anchor="middle" x="256.5" y="-7" font-family="Helvetica,sans-Serif" font-size="10.00">/aiops.cc</text>
</a>
</g>
</g>
<!-- Node1&#45;&gt;Node3 -->
<g id="edge2_Node000001_Node000003" class="edge">
<title>Node1&#45;&gt;Node3</title>
<g id="a_edge2_Node000001_Node000003"><a xlink:title=" ">
<path fill="none" stroke="#63b8ff" d="M316.66,-59.75C303.43,-50.13 287.93,-38.86 275.98,-30.16"/>
<polygon fill="#63b8ff" stroke="#63b8ff" points="314.82,-62.75 324.97,-65.8 318.94,-57.08 314.82,-62.75"/>
</a>
</g>
</g>
<!-- Node4 -->
<g id="Node000004" class="node">
<title>Node4</title>
<g id="a_Node000004"><a xlink:href="aiops__win32_8cc.html" target="_top" xlink:title=" ">
<polygon fill="white" stroke="#666666" points="513,-30 354,-30 354,0 513,0 513,-30"/>
<text text-anchor="start" x="362" y="-18" font-family="Helvetica,sans-Serif" font-size="10.00">squid/src/DiskIO/DiskThreads</text>
<text text-anchor="middle" x="433.5" y="-7" font-family="Helvetica,sans-Serif" font-size="10.00">/aiops_win32.cc</text>
</a>
</g>
</g>
<!-- Node1&#45;&gt;Node4 -->
<g id="edge3_Node000001_Node000004" class="edge">
<title>Node1&#45;&gt;Node4</title>
<g id="a_edge3_Node000001_Node000004"><a xlink:title=" ">
<path fill="none" stroke="#63b8ff" d="M372.66,-59.75C386.04,-50.13 401.72,-38.86 413.8,-30.16"/>
<polygon fill="#63b8ff" stroke="#63b8ff" points="370.33,-57.12 364.25,-65.8 374.41,-62.8 370.33,-57.12"/>
</a>
</g>
</g>
<!-- Node5 -->
<g id="Node000005" class="node">
<title>Node5</title>
<g id="a_Node000005"><a xlink:href="stub__CommIO_8cc.html" target="_top" xlink:title=" ">
<polygon fill="white" stroke="#666666" points="642,-30 531,-30 531,0 642,0 642,-30"/>
<text text-anchor="start" x="539" y="-18" font-family="Helvetica,sans-Serif" font-size="10.00">squid/src/tests/stub</text>
<text text-anchor="middle" x="586.5" y="-7" font-family="Helvetica,sans-Serif" font-size="10.00">_CommIO.cc</text>
</a>
</g>
</g>
<!-- Node1&#45;&gt;Node5 -->
<g id="edge4_Node000001_Node000005" class="edge">
<title>Node1&#45;&gt;Node5</title>
<g id="a_edge4_Node000001_Node000005"><a xlink:title=" ">
<path fill="none" stroke="#63b8ff" d="M407.32,-63.39C446.5,-53.03 496.35,-39.84 533.52,-30.01"/>
<polygon fill="#63b8ff" stroke="#63b8ff" points="406.38,-60.01 397.61,-65.95 408.17,-66.78 406.38,-60.01"/>
</a>
</g>
</g>
</g>
</svg>
