<?xml version="1.0" encoding="UTF-8" standalone="no"?>
<!DOCTYPE svg PUBLIC "-//W3C//DTD SVG 1.1//EN"
 "http://www.w3.org/Graphics/SVG/1.1/DTD/svg11.dtd">
<!-- Generated by graphviz version 2.43.0 (0)
 -->
<!-- Title: squid/src/comm/ConnOpener.h Pages: 1 -->
<svg width="2166pt" height="225pt"
 viewBox="0.00 0.00 2165.50 225.00" xmlns="http://www.w3.org/2000/svg" xmlns:xlink="http://www.w3.org/1999/xlink">
<g id="graph0" class="graph" transform="scale(1 1) rotate(0) translate(4 221)">
<title>squid/src/comm/ConnOpener.h</title>
<!-- Node1 -->
<g id="Node000001" class="node">
<title>Node1</title>
<g id="a_Node000001"><a xlink:title=" ">
<polygon fill="#999999" stroke="#666666" points="1016.5,-217 851.5,-217 851.5,-198 1016.5,-198 1016.5,-217"/>
<text text-anchor="middle" x="934" y="-205" font-family="Helvetica,sans-Serif" font-size="10.00">squid/src/comm/ConnOpener.h</text>
</a>
</g>
</g>
<!-- Node2 -->
<g id="Node000002" class="node">
<title>Node2</title>
<g id="a_Node000002"><a xlink:href="FwdState_8cc.html" target="_top" xlink:title=" ">
<polygon fill="white" stroke="#666666" points="122,-90.5 0,-90.5 0,-71.5 122,-71.5 122,-90.5"/>
<text text-anchor="middle" x="61" y="-78.5" font-family="Helvetica,sans-Serif" font-size="10.00">squid/src/FwdState.cc</text>
</a>
</g>
</g>
<!-- Node1&#45;&gt;Node2 -->
<g id="edge1_Node000001_Node000002" class="edge">
<title>Node1&#45;&gt;Node2</title>
<g id="a_edge1_Node000001_Node000002"><a xlink:title=" ">
<path fill="none" stroke="#63b8ff" d="M841.23,-205.31C643.91,-202.2 195.43,-191.9 133,-162 99.97,-146.18 75.31,-107.69 65.57,-90.52"/>
<polygon fill="#63b8ff" stroke="#63b8ff" points="841.24,-208.81 851.29,-205.46 841.35,-201.81 841.24,-208.81"/>
</a>
</g>
</g>
<!-- Node3 -->
<g id="Node000003" class="node">
<title>Node3</title>
<g id="a_Node000003"><a xlink:href="HappyConnOpener_8h.html" target="_top" xlink:title=" ">
<polygon fill="white" stroke="#666666" points="305.5,-156.5 142.5,-156.5 142.5,-137.5 305.5,-137.5 305.5,-156.5"/>
<text text-anchor="middle" x="224" y="-144.5" font-family="Helvetica,sans-Serif" font-size="10.00">squid/src/HappyConnOpener.h</text>
</a>
</g>
</g>
<!-- Node1&#45;&gt;Node3 -->
<g id="edge2_Node000001_Node000003" class="edge">
<title>Node1&#45;&gt;Node3</title>
<g id="a_edge2_Node000001_Node000003"><a xlink:title=" ">
<path fill="none" stroke="#63b8ff" d="M841.12,-201.87C720.7,-195.38 504.28,-182.09 320,-162 306.19,-160.49 291.31,-158.5 277.48,-156.5"/>
<polygon fill="#63b8ff" stroke="#63b8ff" points="841.23,-205.38 851.4,-202.42 841.6,-198.39 841.23,-205.38"/>
</a>
</g>
</g>
<!-- Node5 -->
<g id="Node000005" class="node">
<title>Node5</title>
<g id="a_Node000005"><a xlink:href="tunnel_8cc.html" target="_top" xlink:title=" ">
<polygon fill="white" stroke="#666666" points="432.5,-90.5 325.5,-90.5 325.5,-71.5 432.5,-71.5 432.5,-90.5"/>
<text text-anchor="middle" x="379" y="-78.5" font-family="Helvetica,sans-Serif" font-size="10.00">squid/src/tunnel.cc</text>
</a>
</g>
</g>
<!-- Node1&#45;&gt;Node5 -->
<g id="edge26_Node000001_Node000005" class="edge">
<title>Node1&#45;&gt;Node5</title>
<g id="a_edge26_Node000001_Node000005"><a xlink:title=" ">
<path fill="none" stroke="#63b8ff" d="M841.45,-206.15C685.83,-204.59 385.44,-197.02 353,-162 333.95,-141.43 358.1,-106.71 371.36,-90.64"/>
<polygon fill="#63b8ff" stroke="#63b8ff" points="841.46,-209.65 851.49,-206.24 841.52,-202.65 841.46,-209.65"/>
</a>
</g>
</g>
<!-- Node6 -->
<g id="Node000006" class="node">
<title>Node6</title>
<g id="a_Node000006"><a xlink:href="PeerPoolMgr_8cc.html" target="_top" xlink:title=" ">
<polygon fill="white" stroke="#666666" points="499.5,-156.5 362.5,-156.5 362.5,-137.5 499.5,-137.5 499.5,-156.5"/>
<text text-anchor="middle" x="431" y="-144.5" font-family="Helvetica,sans-Serif" font-size="10.00">squid/src/PeerPoolMgr.cc</text>
</a>
</g>
</g>
<!-- Node1&#45;&gt;Node6 -->
<g id="edge6_Node000001_Node000006" class="edge">
<title>Node1&#45;&gt;Node6</title>
<g id="a_edge6_Node000001_Node000006"><a xlink:title=" ">
<path fill="none" stroke="#63b8ff" d="M841.26,-198.85C754.8,-191.24 622.36,-178.34 508,-162 497.24,-160.46 485.68,-158.52 474.88,-156.57"/>
<polygon fill="#63b8ff" stroke="#63b8ff" points="841.04,-202.35 851.31,-199.73 841.65,-195.37 841.04,-202.35"/>
</a>
</g>
</g>
<!-- Node7 -->
<g id="Node000007" class="node">
<title>Node7</title>
<g id="a_Node000007"><a xlink:href="ResolvedPeers_8cc.html" target="_top" xlink:title=" ">
<polygon fill="white" stroke="#666666" points="666.5,-156.5 517.5,-156.5 517.5,-137.5 666.5,-137.5 666.5,-156.5"/>
<text text-anchor="middle" x="592" y="-144.5" font-family="Helvetica,sans-Serif" font-size="10.00">squid/src/ResolvedPeers.cc</text>
</a>
</g>
</g>
<!-- Node1&#45;&gt;Node7 -->
<g id="edge7_Node000001_Node000007" class="edge">
<title>Node1&#45;&gt;Node7</title>
<g id="a_edge7_Node000001_Node000007"><a xlink:title=" ">
<path fill="none" stroke="#63b8ff" d="M874.03,-196.24C808.1,-184.96 703.37,-167.05 641.79,-156.52"/>
<polygon fill="#63b8ff" stroke="#63b8ff" points="873.82,-199.76 884.27,-197.99 875,-192.86 873.82,-199.76"/>
</a>
</g>
</g>
<!-- Node8 -->
<g id="Node000008" class="node">
<title>Node8</title>
<g id="a_Node000008"><a xlink:href="Xaction_8cc.html" target="_top" xlink:title=" ">
<polygon fill="white" stroke="#666666" points="704,-96 588,-96 588,-66 704,-66 704,-96"/>
<text text-anchor="start" x="596" y="-84" font-family="Helvetica,sans-Serif" font-size="10.00">squid/src/adaptation</text>
<text text-anchor="middle" x="646" y="-73" font-family="Helvetica,sans-Serif" font-size="10.00">/icap/Xaction.cc</text>
</a>
</g>
</g>
<!-- Node1&#45;&gt;Node8 -->
<g id="edge8_Node000001_Node000008" class="edge">
<title>Node1&#45;&gt;Node8</title>
<g id="a_edge8_Node000001_Node000008"><a xlink:title=" ">
<path fill="none" stroke="#63b8ff" d="M841.2,-201.7C799.65,-196.17 751.47,-184.86 713,-162 685.74,-145.8 664.44,-114.37 653.69,-96.09"/>
<polygon fill="#63b8ff" stroke="#63b8ff" points="840.98,-205.2 851.33,-202.95 841.84,-198.25 840.98,-205.2"/>
</a>
</g>
</g>
<!-- Node9 -->
<g id="Node000009" class="node">
<title>Node9</title>
<g id="a_Node000009"><a xlink:href="Xaction_8h.html" target="_top" xlink:title=" ">
<polygon fill="white" stroke="#666666" points="838,-162 722,-162 722,-132 838,-132 838,-162"/>
<text text-anchor="start" x="730" y="-150" font-family="Helvetica,sans-Serif" font-size="10.00">squid/src/adaptation</text>
<text text-anchor="middle" x="780" y="-139" font-family="Helvetica,sans-Serif" font-size="10.00">/icap/Xaction.h</text>
</a>
</g>
</g>
<!-- Node1&#45;&gt;Node9 -->
<g id="edge9_Node000001_Node000009" class="edge">
<title>Node1&#45;&gt;Node9</title>
<g id="a_edge9_Node000001_Node000009"><a xlink:title=" ">
<path fill="none" stroke="#63b8ff" d="M901.97,-194.33C877.23,-184.93 842.94,-171.91 817.02,-162.06"/>
<polygon fill="#63b8ff" stroke="#63b8ff" points="901.02,-197.71 911.61,-197.99 903.5,-191.17 901.02,-197.71"/>
</a>
</g>
</g>
<!-- Node16 -->
<g id="Node000016" class="node">
<title>Node16</title>
<g id="a_Node000016"><a xlink:href="FtpClient_8cc.html" target="_top" xlink:title=" ">
<polygon fill="white" stroke="#666666" points="1012,-156.5 856,-156.5 856,-137.5 1012,-137.5 1012,-156.5"/>
<text text-anchor="middle" x="934" y="-144.5" font-family="Helvetica,sans-Serif" font-size="10.00">squid/src/clients/FtpClient.cc</text>
</a>
</g>
</g>
<!-- Node1&#45;&gt;Node16 -->
<g id="edge18_Node000001_Node000016" class="edge">
<title>Node1&#45;&gt;Node16</title>
<g id="a_edge18_Node000001_Node000016"><a xlink:title=" ">
<path fill="none" stroke="#63b8ff" d="M934,-187.66C934,-177.24 934,-164.8 934,-156.67"/>
<polygon fill="#63b8ff" stroke="#63b8ff" points="930.5,-187.87 934,-197.87 937.5,-187.87 930.5,-187.87"/>
</a>
</g>
</g>
<!-- Node17 -->
<g id="Node000017" class="node">
<title>Node17</title>
<g id="a_Node000017"><a xlink:href="FtpGateway_8cc.html" target="_top" xlink:title=" ">
<polygon fill="white" stroke="#666666" points="1200,-156.5 1030,-156.5 1030,-137.5 1200,-137.5 1200,-156.5"/>
<text text-anchor="middle" x="1115" y="-144.5" font-family="Helvetica,sans-Serif" font-size="10.00">squid/src/clients/FtpGateway.cc</text>
</a>
</g>
</g>
<!-- Node1&#45;&gt;Node17 -->
<g id="edge19_Node000001_Node000017" class="edge">
<title>Node1&#45;&gt;Node17</title>
<g id="a_edge19_Node000001_Node000017"><a xlink:title=" ">
<path fill="none" stroke="#63b8ff" d="M970.15,-194.82C1005.15,-183.5 1057.4,-166.62 1088.65,-156.52"/>
<polygon fill="#63b8ff" stroke="#63b8ff" points="968.76,-191.59 960.32,-197.99 970.91,-198.25 968.76,-191.59"/>
</a>
</g>
</g>
<!-- Node18 -->
<g id="Node000018" class="node">
<title>Node18</title>
<g id="a_Node000018"><a xlink:href="ConnOpener_8cc.html" target="_top" xlink:title=" ">
<polygon fill="white" stroke="#666666" points="1388,-156.5 1218,-156.5 1218,-137.5 1388,-137.5 1388,-156.5"/>
<text text-anchor="middle" x="1303" y="-144.5" font-family="Helvetica,sans-Serif" font-size="10.00">squid/src/comm/ConnOpener.cc</text>
</a>
</g>
</g>
<!-- Node1&#45;&gt;Node18 -->
<g id="edge20_Node000001_Node000018" class="edge">
<title>Node1&#45;&gt;Node18</title>
<g id="a_edge20_Node000001_Node000018"><a xlink:title=" ">
<path fill="none" stroke="#63b8ff" d="M997.82,-196.38C1068.91,-185.11 1182.57,-167.09 1249.28,-156.52"/>
<polygon fill="#63b8ff" stroke="#63b8ff" points="996.98,-192.97 987.66,-197.99 998.08,-199.88 996.98,-192.97"/>
</a>
</g>
</g>
<!-- Node19 -->
<g id="Node000019" class="node">
<title>Node19</title>
<g id="a_Node000019"><a xlink:href="dns__internal_8cc.html" target="_top" xlink:title=" ">
<polygon fill="white" stroke="#666666" points="1543.5,-156.5 1406.5,-156.5 1406.5,-137.5 1543.5,-137.5 1543.5,-156.5"/>
<text text-anchor="middle" x="1475" y="-144.5" font-family="Helvetica,sans-Serif" font-size="10.00">squid/src/dns_internal.cc</text>
</a>
</g>
</g>
<!-- Node1&#45;&gt;Node19 -->
<g id="edge21_Node000001_Node000019" class="edge">
<title>Node1&#45;&gt;Node19</title>
<g id="a_edge21_Node000001_Node000019"><a xlink:title=" ">
<path fill="none" stroke="#63b8ff" d="M1026.63,-199.84C1120.29,-192.58 1269.06,-179.6 1397,-162 1408.04,-160.48 1419.9,-158.52 1430.96,-156.55"/>
<polygon fill="#63b8ff" stroke="#63b8ff" points="1026.32,-196.35 1016.62,-200.61 1026.86,-203.33 1026.32,-196.35"/>
</a>
</g>
</g>
<!-- Node20 -->
<g id="Node000020" class="node">
<title>Node20</title>
<g id="a_Node000020"><a xlink:href="TcpLogger_8cc.html" target="_top" xlink:title=" ">
<polygon fill="white" stroke="#666666" points="1704.5,-156.5 1561.5,-156.5 1561.5,-137.5 1704.5,-137.5 1704.5,-156.5"/>
<text text-anchor="middle" x="1633" y="-144.5" font-family="Helvetica,sans-Serif" font-size="10.00">squid/src/log/TcpLogger.cc</text>
</a>
</g>
</g>
<!-- Node1&#45;&gt;Node20 -->
<g id="edge22_Node000001_Node000020" class="edge">
<title>Node1&#45;&gt;Node20</title>
<g id="a_edge22_Node000001_Node000020"><a xlink:title=" ">
<path fill="none" stroke="#63b8ff" d="M1026.86,-202.77C1148.18,-197.21 1367.08,-184.89 1553,-162 1564.76,-160.55 1577.41,-158.55 1589.11,-156.51"/>
<polygon fill="#63b8ff" stroke="#63b8ff" points="1026.69,-199.27 1016.86,-203.22 1027.01,-206.26 1026.69,-199.27"/>
</a>
</g>
</g>
<!-- Node21 -->
<g id="Node000021" class="node">
<title>Node21</title>
<g id="a_Node000021"><a xlink:href="neighbors_8cc.html" target="_top" xlink:title=" ">
<polygon fill="white" stroke="#666666" points="1847.5,-156.5 1722.5,-156.5 1722.5,-137.5 1847.5,-137.5 1847.5,-156.5"/>
<text text-anchor="middle" x="1785" y="-144.5" font-family="Helvetica,sans-Serif" font-size="10.00">squid/src/neighbors.cc</text>
</a>
</g>
</g>
<!-- Node1&#45;&gt;Node21 -->
<g id="edge23_Node000001_Node000021" class="edge">
<title>Node1&#45;&gt;Node21</title>
<g id="a_edge23_Node000001_Node000021"><a xlink:title=" ">
<path fill="none" stroke="#63b8ff" d="M1026.9,-205.33C1173.47,-202.55 1467.11,-193.23 1714,-162 1724.72,-160.64 1736.25,-158.62 1746.84,-156.53"/>
<polygon fill="#63b8ff" stroke="#63b8ff" points="1026.54,-201.84 1016.6,-205.52 1026.66,-208.83 1026.54,-201.84"/>
</a>
</g>
</g>
<!-- Node22 -->
<g id="Node000022" class="node">
<title>Node22</title>
<g id="a_Node000022"><a xlink:href="FtpServer_8cc.html" target="_top" xlink:title=" ">
<polygon fill="white" stroke="#666666" points="2028,-156.5 1866,-156.5 1866,-137.5 2028,-137.5 2028,-156.5"/>
<text text-anchor="middle" x="1947" y="-144.5" font-family="Helvetica,sans-Serif" font-size="10.00">squid/src/servers/FtpServer.cc</text>
</a>
</g>
</g>
<!-- Node1&#45;&gt;Node22 -->
<g id="edge24_Node000001_Node000022" class="edge">
<title>Node1&#45;&gt;Node22</title>
<g id="a_edge24_Node000001_Node000022"><a xlink:title=" ">
<path fill="none" stroke="#63b8ff" d="M1026.85,-205.28C1193.52,-202.36 1554.3,-192.75 1857,-162 1870.53,-160.63 1885.13,-158.59 1898.55,-156.5"/>
<polygon fill="#63b8ff" stroke="#63b8ff" points="1026.58,-201.78 1016.64,-205.45 1026.7,-208.78 1026.58,-201.78"/>
</a>
</g>
</g>
<!-- Node23 -->
<g id="Node000023" class="node">
<title>Node23</title>
<g id="a_Node000023"><a xlink:href="stub__libcomm_8cc.html" target="_top" xlink:title=" ">
<polygon fill="white" stroke="#666666" points="2157.5,-162 2046.5,-162 2046.5,-132 2157.5,-132 2157.5,-162"/>
<text text-anchor="start" x="2054.5" y="-150" font-family="Helvetica,sans-Serif" font-size="10.00">squid/src/tests/stub</text>
<text text-anchor="middle" x="2102" y="-139" font-family="Helvetica,sans-Serif" font-size="10.00">_libcomm.cc</text>
</a>
</g>
</g>
<!-- Node1&#45;&gt;Node23 -->
<g id="edge25_Node000001_Node000023" class="edge">
<title>Node1&#45;&gt;Node23</title>
<g id="a_edge25_Node000001_Node000023"><a xlink:title=" ">
<path fill="none" stroke="#63b8ff" d="M1026.83,-204.81C1255.74,-200.3 1842.73,-186.65 2037,-162 2040.09,-161.61 2043.25,-161.14 2046.44,-160.62"/>
<polygon fill="#63b8ff" stroke="#63b8ff" points="1026.46,-201.31 1016.53,-205.01 1026.59,-208.31 1026.46,-201.31"/>
</a>
</g>
</g>
<!-- Node3&#45;&gt;Node2 -->
<g id="edge3_Node000003_Node000002" class="edge">
<title>Node3&#45;&gt;Node2</title>
<g id="a_edge3_Node000003_Node000002"><a xlink:title=" ">
<path fill="none" stroke="#63b8ff" d="M192.61,-133.68C160.4,-121.03 111.12,-101.68 82.89,-90.6"/>
<polygon fill="#63b8ff" stroke="#63b8ff" points="191.43,-136.97 202.02,-137.37 193.99,-130.46 191.43,-136.97"/>
</a>
</g>
</g>
<!-- Node4 -->
<g id="Node000004" class="node">
<title>Node4</title>
<g id="a_Node000004"><a xlink:href="HappyConnOpener_8cc.html" target="_top" xlink:title=" ">
<polygon fill="white" stroke="#666666" points="307.5,-90.5 140.5,-90.5 140.5,-71.5 307.5,-71.5 307.5,-90.5"/>
<text text-anchor="middle" x="224" y="-78.5" font-family="Helvetica,sans-Serif" font-size="10.00">squid/src/HappyConnOpener.cc</text>
</a>
</g>
</g>
<!-- Node3&#45;&gt;Node4 -->
<g id="edge4_Node000003_Node000004" class="edge">
<title>Node3&#45;&gt;Node4</title>
<g id="a_edge4_Node000003_Node000004"><a xlink:title=" ">
<path fill="none" stroke="#63b8ff" d="M224,-127.08C224,-115.13 224,-100.22 224,-90.91"/>
<polygon fill="#63b8ff" stroke="#63b8ff" points="220.5,-127.37 224,-137.37 227.5,-127.37 220.5,-127.37"/>
</a>
</g>
</g>
<!-- Node3&#45;&gt;Node5 -->
<g id="edge5_Node000003_Node000005" class="edge">
<title>Node3&#45;&gt;Node5</title>
<g id="a_edge5_Node000003_Node000005"><a xlink:title=" ">
<path fill="none" stroke="#63b8ff" d="M254.22,-133.52C284.76,-120.91 331.16,-101.75 357.93,-90.7"/>
<polygon fill="#63b8ff" stroke="#63b8ff" points="252.81,-130.32 244.9,-137.37 255.48,-136.79 252.81,-130.32"/>
</a>
</g>
</g>
<!-- Node9&#45;&gt;Node8 -->
<g id="edge17_Node000009_Node000008" class="edge">
<title>Node9&#45;&gt;Node8</title>
<g id="a_edge17_Node000009_Node000008"><a xlink:title=" ">
<path fill="none" stroke="#63b8ff" d="M741.29,-127.51C720.27,-117.47 694.7,-105.26 675.34,-96.01"/>
<polygon fill="#63b8ff" stroke="#63b8ff" points="740.06,-130.8 750.59,-131.95 743.08,-124.49 740.06,-130.8"/>
</a>
</g>
</g>
<!-- Node10 -->
<g id="Node000010" class="node">
<title>Node10</title>
<g id="a_Node000010"><a xlink:href="Launcher_8cc.html" target="_top" xlink:title=" ">
<polygon fill="white" stroke="#666666" points="838,-96 722,-96 722,-66 838,-66 838,-96"/>
<text text-anchor="start" x="730" y="-84" font-family="Helvetica,sans-Serif" font-size="10.00">squid/src/adaptation</text>
<text text-anchor="middle" x="780" y="-73" font-family="Helvetica,sans-Serif" font-size="10.00">/icap/Launcher.cc</text>
</a>
</g>
</g>
<!-- Node9&#45;&gt;Node10 -->
<g id="edge10_Node000009_Node000010" class="edge">
<title>Node9&#45;&gt;Node10</title>
<g id="a_edge10_Node000009_Node000010"><a xlink:title=" ">
<path fill="none" stroke="#63b8ff" d="M780,-121.54C780,-112.96 780,-103.61 780,-96.16"/>
<polygon fill="#63b8ff" stroke="#63b8ff" points="776.5,-121.8 780,-131.8 783.5,-121.8 776.5,-121.8"/>
</a>
</g>
</g>
<!-- Node11 -->
<g id="Node000011" class="node">
<title>Node11</title>
<g id="a_Node000011"><a xlink:href="ModXact_8h.html" target="_top" xlink:title=" ">
<polygon fill="white" stroke="#666666" points="972,-96 856,-96 856,-66 972,-66 972,-96"/>
<text text-anchor="start" x="864" y="-84" font-family="Helvetica,sans-Serif" font-size="10.00">squid/src/adaptation</text>
<text text-anchor="middle" x="914" y="-73" font-family="Helvetica,sans-Serif" font-size="10.00">/icap/ModXact.h</text>
</a>
</g>
</g>
<!-- Node9&#45;&gt;Node11 -->
<g id="edge11_Node000009_Node000011" class="edge">
<title>Node9&#45;&gt;Node11</title>
<g id="a_edge11_Node000009_Node000011"><a xlink:title=" ">
<path fill="none" stroke="#63b8ff" d="M818.71,-127.51C839.73,-117.47 865.3,-105.26 884.66,-96.01"/>
<polygon fill="#63b8ff" stroke="#63b8ff" points="816.92,-124.49 809.41,-131.95 819.94,-130.8 816.92,-124.49"/>
</a>
</g>
</g>
<!-- Node14 -->
<g id="Node000014" class="node">
<title>Node14</title>
<g id="a_Node000014"><a xlink:href="OptXact_8h.html" target="_top" xlink:title=" ">
<polygon fill="white" stroke="#666666" points="1106,-96 990,-96 990,-66 1106,-66 1106,-96"/>
<text text-anchor="start" x="998" y="-84" font-family="Helvetica,sans-Serif" font-size="10.00">squid/src/adaptation</text>
<text text-anchor="middle" x="1048" y="-73" font-family="Helvetica,sans-Serif" font-size="10.00">/icap/OptXact.h</text>
</a>
</g>
</g>
<!-- Node9&#45;&gt;Node14 -->
<g id="edge14_Node000009_Node000014" class="edge">
<title>Node9&#45;&gt;Node14</title>
<g id="a_edge14_Node000009_Node000014"><a xlink:title=" ">
<path fill="none" stroke="#63b8ff" d="M848.15,-129.73C891.97,-119.26 948.28,-105.81 989.96,-95.86"/>
<polygon fill="#63b8ff" stroke="#63b8ff" points="847.07,-126.39 838.15,-132.11 848.69,-133.19 847.07,-126.39"/>
</a>
</g>
</g>
<!-- Node12 -->
<g id="Node000012" class="node">
<title>Node12</title>
<g id="a_Node000012"><a xlink:href="ModXact_8cc.html" target="_top" xlink:title=" ">
<polygon fill="white" stroke="#666666" points="905,-30 789,-30 789,0 905,0 905,-30"/>
<text text-anchor="start" x="797" y="-18" font-family="Helvetica,sans-Serif" font-size="10.00">squid/src/adaptation</text>
<text text-anchor="middle" x="847" y="-7" font-family="Helvetica,sans-Serif" font-size="10.00">/icap/ModXact.cc</text>
</a>
</g>
</g>
<!-- Node11&#45;&gt;Node12 -->
<g id="edge12_Node000011_Node000012" class="edge">
<title>Node11&#45;&gt;Node12</title>
<g id="a_edge12_Node000011_Node000012"><a xlink:title=" ">
<path fill="none" stroke="#63b8ff" d="M891.65,-58.65C881.83,-49.27 870.58,-38.53 861.83,-30.16"/>
<polygon fill="#63b8ff" stroke="#63b8ff" points="889.48,-61.42 899.13,-65.8 894.32,-56.36 889.48,-61.42"/>
</a>
</g>
</g>
<!-- Node13 -->
<g id="Node000013" class="node">
<title>Node13</title>
<g id="a_Node000013"><a xlink:href="icap_2ServiceRep_8cc.html" target="_top" xlink:title=" ">
<polygon fill="white" stroke="#666666" points="1039,-30 923,-30 923,0 1039,0 1039,-30"/>
<text text-anchor="start" x="931" y="-18" font-family="Helvetica,sans-Serif" font-size="10.00">squid/src/adaptation</text>
<text text-anchor="middle" x="981" y="-7" font-family="Helvetica,sans-Serif" font-size="10.00">/icap/ServiceRep.cc</text>
</a>
</g>
</g>
<!-- Node11&#45;&gt;Node13 -->
<g id="edge13_Node000011_Node000013" class="edge">
<title>Node11&#45;&gt;Node13</title>
<g id="a_edge13_Node000011_Node000013"><a xlink:title=" ">
<path fill="none" stroke="#63b8ff" d="M936.35,-58.65C946.17,-49.27 957.42,-38.53 966.17,-30.16"/>
<polygon fill="#63b8ff" stroke="#63b8ff" points="933.68,-56.36 928.87,-65.8 938.52,-61.42 933.68,-56.36"/>
</a>
</g>
</g>
<!-- Node14&#45;&gt;Node13 -->
<g id="edge16_Node000014_Node000013" class="edge">
<title>Node14&#45;&gt;Node13</title>
<g id="a_edge16_Node000014_Node000013"><a xlink:title=" ">
<path fill="none" stroke="#63b8ff" d="M1025.65,-58.65C1015.83,-49.27 1004.58,-38.53 995.83,-30.16"/>
<polygon fill="#63b8ff" stroke="#63b8ff" points="1023.48,-61.42 1033.13,-65.8 1028.32,-56.36 1023.48,-61.42"/>
</a>
</g>
</g>
<!-- Node15 -->
<g id="Node000015" class="node">
<title>Node15</title>
<g id="a_Node000015"><a xlink:href="OptXact_8cc.html" target="_top" xlink:title=" ">
<polygon fill="white" stroke="#666666" points="1173,-30 1057,-30 1057,0 1173,0 1173,-30"/>
<text text-anchor="start" x="1065" y="-18" font-family="Helvetica,sans-Serif" font-size="10.00">squid/src/adaptation</text>
<text text-anchor="middle" x="1115" y="-7" font-family="Helvetica,sans-Serif" font-size="10.00">/icap/OptXact.cc</text>
</a>
</g>
</g>
<!-- Node14&#45;&gt;Node15 -->
<g id="edge15_Node000014_Node000015" class="edge">
<title>Node14&#45;&gt;Node15</title>
<g id="a_edge15_Node000014_Node000015"><a xlink:title=" ">
<path fill="none" stroke="#63b8ff" d="M1070.35,-58.65C1080.17,-49.27 1091.42,-38.53 1100.17,-30.16"/>
<polygon fill="#63b8ff" stroke="#63b8ff" points="1067.68,-56.36 1062.87,-65.8 1072.52,-61.42 1067.68,-56.36"/>
</a>
</g>
</g>
</g>
</svg>
