<?xml version="1.0" encoding="UTF-8" standalone="no"?>
<!DOCTYPE svg PUBLIC "-//W3C//DTD SVG 1.1//EN"
 "http://www.w3.org/Graphics/SVG/1.1/DTD/svg11.dtd">
<!-- Generated by graphviz version 2.43.0 (0)
 -->
<!-- Title: squid/src/store/Controller.h Pages: 1 -->
<!--zoomable 632 -->

<svg id="main" version="1.1" xmlns="http://www.w3.org/2000/svg" xmlns:xlink="http://www.w3.org/1999/xlink" xml:space="preserve" onload="init(evt)">
<style type="text/css"><![CDATA[
.node, .edge {opacity: 0.7;}
.node.selected, .edge.selected {opacity: 1;}
.edge:hover path { stroke: red; }
.edge:hover polygon { stroke: red; fill: red; }
]]></style>

<defs>
  <circle id="rim" cx="0" cy="0" r="7"/>
  <circle id="rim2" cx="0" cy="0" r="3.5"/>
  <g id="zoomPlus">
    <use xlink:href="#rim" fill="#404040"><set attributeName="fill" to="#808080" begin="zoomplus.mouseover" end="zoomplus.mouseout"/></use>
    <path d="M-4,0h8M0,-4v8" fill="none" stroke="white" stroke-width="1.5" pointer-events="none"/>
  </g>
  <g id="zoomMin">
    <use xlink:href="#rim" fill="#404040"><set attributeName="fill" to="#808080" begin="zoomminus.mouseover" end="zoomminus.mouseout"/></use>
    <path d="M-4,0h8" fill="none" stroke="white" stroke-width="1.5" pointer-events="none"/>
  </g>
  <g id="arrowUp" transform="translate(30 24)">
    <use xlink:href="#rim"/>
    <path pointer-events="none" fill="none" stroke="white" stroke-width="1.5" d="M0,-3.0v7 M-2.5,-0.5L0,-3.0L2.5,-0.5"/>
  </g>
  <g id="arrowRight" transform="rotate(90) translate(36 -43)">
    <use xlink:href="#rim"/>
    <path pointer-events="none" fill="none" stroke="white" stroke-width="1.5" d="M0,-3.0v7 M-2.5,-0.5L0,-3.0L2.5,-0.5"/>
  </g>
  <g id="arrowDown" transform="rotate(180) translate(-30 -48)">
    <use xlink:href="#rim"/>
    <path pointer-events="none" fill="none" stroke="white" stroke-width="1.5" d="M0,-3.0v7 M-2.5,-0.5L0,-3.0L2.5,-0.5"/>
  </g>
  <g id="arrowLeft" transform="rotate(270) translate(-36 17)">
    <use xlink:href="#rim"/>
    <path pointer-events="none" fill="none" stroke="white" stroke-width="1.5" d="M0,-3.0v7 M-2.5,-0.5L0,-3.0L2.5,-0.5"/>
  </g>
  <g id="resetDef">
    <use xlink:href="#rim2" fill="#404040"><set attributeName="fill" to="#808080" begin="reset.mouseover" end="reset.mouseout"/></use>
  </g>
</defs>
<script type="application/ecmascript">
var viewWidth = 1306;
var viewHeight = 632;
var sectionId = 'dynsection-0';
</script>
<script type="application/ecmascript" xlink:href="svg.min.js"/>
<svg id="graph" class="graph">
<g id="viewport">
<title>squid/src/store/Controller.h</title>
<!-- Node1 -->
<g id="Node000001" class="node">
<title>Node1</title>
<g id="a_Node000001"><a xlink:title=" ">
<polygon fill="#999999" stroke="#666666" points="176.5,-624 29.5,-624 29.5,-605 176.5,-605 176.5,-624"/>
<text text-anchor="middle" x="103" y="-612" font-family="Helvetica,sans-Serif" font-size="10.00">squid/src/store/Controller.h</text>
</a>
</g>
</g>
<!-- Node2 -->
<g id="Node000002" class="node">
<title>Node2</title>
<g id="a_Node000002"><a xlink:href="Storage_8h.html" target="_top" xlink:title=" ">
<polygon fill="white" stroke="#666666" points="148.5,-569 57.5,-569 57.5,-550 148.5,-550 148.5,-569"/>
<text text-anchor="middle" x="103" y="-557" font-family="Helvetica,sans-Serif" font-size="10.00">store/Storage.h</text>
</a>
</g>
</g>
<!-- Node1&#45;&gt;Node2 -->
<g id="edge1_Node000001_Node000002" class="edge">
<title>Node1&#45;&gt;Node2</title>
<g id="a_edge1_Node000001_Node000002"><a xlink:title=" ">
<path fill="none" stroke="#63b8ff" d="M103,-604.75C103,-597.8 103,-587.85 103,-579.13"/>
<polygon fill="#63b8ff" stroke="#63b8ff" points="106.5,-579.09 103,-569.09 99.5,-579.09 106.5,-579.09"/>
</a>
</g>
</g>
<!-- Node3 -->
<g id="Node000003" class="node">
<title>Node3</title>
<g id="a_Node000003"><a xlink:href="RefCount_8h.html" target="_top" xlink:title=" ">
<polygon fill="white" stroke="#666666" points="395.5,-74 298.5,-74 298.5,-55 395.5,-55 395.5,-74"/>
<text text-anchor="middle" x="347" y="-62" font-family="Helvetica,sans-Serif" font-size="10.00">base/RefCount.h</text>
</a>
</g>
</g>
<!-- Node2&#45;&gt;Node3 -->
<g id="edge2_Node000002_Node000003" class="edge">
<title>Node2&#45;&gt;Node3</title>
<g id="a_edge2_Node000002_Node000003"><a xlink:title=" ">
<path fill="none" stroke="#63b8ff" d="M85.06,-550C55.55,-534.62 0,-499.21 0,-450.5 0,-450.5 0,-450.5 0,-173.5 0,-113.86 189.25,-83.41 288.23,-71.56"/>
<polygon fill="#63b8ff" stroke="#63b8ff" points="288.86,-75.01 298.39,-70.37 288.05,-68.06 288.86,-75.01"/>
</a>
</g>
</g>
<!-- Node7 -->
<g id="Node000007" class="node">
<title>Node7</title>
<g id="a_Node000007"><a xlink:href="RequestMethod_8h.html" target="_top" xlink:title=" ">
<polygon fill="white" stroke="#666666" points="814.5,-514 689.5,-514 689.5,-495 814.5,-495 814.5,-514"/>
<text text-anchor="middle" x="752" y="-502" font-family="Helvetica,sans-Serif" font-size="10.00">http/RequestMethod.h</text>
</a>
</g>
</g>
<!-- Node2&#45;&gt;Node7 -->
<g id="edge6_Node000002_Node000007" class="edge">
<title>Node2&#45;&gt;Node7</title>
<g id="a_edge6_Node000002_Node000007"><a xlink:title=" ">
<path fill="none" stroke="#63b8ff" d="M148.64,-554.77C259.57,-545.71 544.14,-522.47 679.01,-511.46"/>
<polygon fill="#63b8ff" stroke="#63b8ff" points="679.56,-514.93 689.24,-510.63 678.99,-507.95 679.56,-514.93"/>
</a>
</g>
</g>
<!-- Node29 -->
<g id="Node000029" class="node">
<title>Node29</title>
<g id="a_Node000029"><a xlink:href="store__key__md5_8h.html" target="_top" xlink:title=" ">
<polygon fill="white" stroke="#666666" points="231,-239 131,-239 131,-220 231,-220 231,-239"/>
<text text-anchor="middle" x="181" y="-227" font-family="Helvetica,sans-Serif" font-size="10.00">store_key_md5.h</text>
</a>
</g>
</g>
<!-- Node2&#45;&gt;Node29 -->
<g id="edge56_Node000002_Node000029" class="edge">
<title>Node2&#45;&gt;Node29</title>
<g id="a_edge56_Node000002_Node000029"><a xlink:title=" ">
<path fill="none" stroke="#63b8ff" d="M105.56,-549.91C110.75,-531.74 122,-488 122,-450.5 122,-450.5 122,-450.5 122,-393.5 122,-337.53 153.14,-276.86 170.17,-247.85"/>
<polygon fill="#63b8ff" stroke="#63b8ff" points="173.17,-249.65 175.34,-239.28 167.18,-246.04 173.17,-249.65"/>
</a>
</g>
</g>
<!-- Node31 -->
<g id="Node000031" class="node">
<title>Node31</title>
<g id="a_Node000031"><a xlink:href="store_2forward_8h.html" target="_top" xlink:title=" ">
<polygon fill="white" stroke="#666666" points="119.5,-184 28.5,-184 28.5,-165 119.5,-165 119.5,-184"/>
<text text-anchor="middle" x="74" y="-172" font-family="Helvetica,sans-Serif" font-size="10.00">store/forward.h</text>
</a>
</g>
</g>
<!-- Node2&#45;&gt;Node31 -->
<g id="edge55_Node000002_Node000031" class="edge">
<title>Node2&#45;&gt;Node31</title>
<g id="a_edge55_Node000002_Node000031"><a xlink:title=" ">
<path fill="none" stroke="#63b8ff" d="M97.72,-549.9C87.27,-532.07 65,-489.46 65,-450.5 65,-450.5 65,-450.5 65,-283.5 65,-252.08 68.83,-215.7 71.49,-194.2"/>
<polygon fill="#63b8ff" stroke="#63b8ff" points="74.98,-194.52 72.79,-184.16 68.04,-193.63 74.98,-194.52"/>
</a>
</g>
</g>
<!-- Node4 -->
<g id="Node000004" class="node">
<title>Node4</title>
<g id="a_Node000004"><a xlink:href="Lock_8h.html" target="_top" xlink:title=" ">
<polygon fill="white" stroke="#666666" points="423,-19 349,-19 349,0 423,0 423,-19"/>
<text text-anchor="middle" x="386" y="-7" font-family="Helvetica,sans-Serif" font-size="10.00">base/Lock.h</text>
</a>
</g>
</g>
<!-- Node3&#45;&gt;Node4 -->
<g id="edge3_Node000003_Node000004" class="edge">
<title>Node3&#45;&gt;Node4</title>
<g id="a_edge3_Node000003_Node000004"><a xlink:title=" ">
<path fill="none" stroke="#63b8ff" d="M353.44,-54.75C358.89,-47.34 366.86,-36.5 373.56,-27.41"/>
<polygon fill="#63b8ff" stroke="#63b8ff" points="376.57,-29.22 379.68,-19.09 370.93,-25.07 376.57,-29.22"/>
</a>
</g>
</g>
<!-- Node5 -->
<g id="Node000005" class="node">
<title>Node5</title>
<g id="a_Node000005"><a xlink:title=" ">
<polygon fill="#e0e0e0" stroke="#999999" points="591,-19 531,-19 531,0 591,0 591,-19"/>
<text text-anchor="middle" x="561" y="-7" font-family="Helvetica,sans-Serif" font-size="10.00">iostream</text>
</a>
</g>
</g>
<!-- Node3&#45;&gt;Node5 -->
<g id="edge4_Node000003_Node000005" class="edge">
<title>Node3&#45;&gt;Node5</title>
<g id="a_edge4_Node000003_Node000005"><a xlink:title=" ">
<path fill="none" stroke="#63b8ff" d="M381.38,-54.98C419.5,-45.54 480.91,-30.34 521.12,-20.38"/>
<polygon fill="#63b8ff" stroke="#63b8ff" points="521.99,-23.77 530.85,-17.97 520.3,-16.97 521.99,-23.77"/>
</a>
</g>
</g>
<!-- Node6 -->
<g id="Node000006" class="node">
<title>Node6</title>
<g id="a_Node000006"><a xlink:title=" ">
<polygon fill="#e0e0e0" stroke="#999999" points="330.5,-19 285.5,-19 285.5,0 330.5,0 330.5,-19"/>
<text text-anchor="middle" x="308" y="-7" font-family="Helvetica,sans-Serif" font-size="10.00">utility</text>
</a>
</g>
</g>
<!-- Node3&#45;&gt;Node6 -->
<g id="edge5_Node000003_Node000006" class="edge">
<title>Node3&#45;&gt;Node6</title>
<g id="a_edge5_Node000003_Node000006"><a xlink:title=" ">
<path fill="none" stroke="#63b8ff" d="M340.56,-54.75C335.11,-47.34 327.14,-36.5 320.44,-27.41"/>
<polygon fill="#63b8ff" stroke="#63b8ff" points="323.07,-25.07 314.32,-19.09 317.43,-29.22 323.07,-25.07"/>
</a>
</g>
</g>
<!-- Node8 -->
<g id="Node000008" class="node">
<title>Node8</title>
<g id="a_Node000008"><a xlink:href="http_2forward_8h.html" target="_top" xlink:title=" ">
<polygon fill="white" stroke="#666666" points="224,-184 138,-184 138,-165 224,-165 224,-184"/>
<text text-anchor="middle" x="181" y="-172" font-family="Helvetica,sans-Serif" font-size="10.00">http/forward.h</text>
</a>
</g>
</g>
<!-- Node7&#45;&gt;Node8 -->
<g id="edge7_Node000007_Node000008" class="edge">
<title>Node7&#45;&gt;Node8</title>
<g id="a_edge7_Node000007_Node000008"><a xlink:title=" ">
<path fill="none" stroke="#63b8ff" d="M715.71,-494.95C623.1,-472.12 372.4,-403.87 189,-294 155.95,-274.2 138.47,-273.83 122,-239 112.46,-218.83 133.77,-200.72 153.39,-189.05"/>
<polygon fill="#63b8ff" stroke="#63b8ff" points="155.14,-192.08 162.17,-184.16 151.73,-185.97 155.14,-192.08"/>
</a>
</g>
</g>
<!-- Node14 -->
<g id="Node000014" class="node">
<title>Node14</title>
<g id="a_Node000014"><a xlink:href="MethodType_8h.html" target="_top" xlink:title=" ">
<polygon fill="white" stroke="#666666" points="805.5,-459 698.5,-459 698.5,-440 805.5,-440 805.5,-459"/>
<text text-anchor="middle" x="752" y="-447" font-family="Helvetica,sans-Serif" font-size="10.00">http/MethodType.h</text>
</a>
</g>
</g>
<!-- Node7&#45;&gt;Node14 -->
<g id="edge14_Node000007_Node000014" class="edge">
<title>Node7&#45;&gt;Node14</title>
<g id="a_edge14_Node000007_Node000014"><a xlink:title=" ">
<path fill="none" stroke="#63b8ff" d="M752,-494.75C752,-487.8 752,-477.85 752,-469.13"/>
<polygon fill="#63b8ff" stroke="#63b8ff" points="755.5,-469.09 752,-459.09 748.5,-469.09 755.5,-469.09"/>
</a>
</g>
</g>
<!-- Node15 -->
<g id="Node000015" class="node">
<title>Node15</title>
<g id="a_Node000015"><a xlink:href="SBuf_8h.html" target="_top" xlink:title=" ">
<polygon fill="white" stroke="#666666" points="869.5,-404 798.5,-404 798.5,-385 869.5,-385 869.5,-404"/>
<text text-anchor="middle" x="834" y="-392" font-family="Helvetica,sans-Serif" font-size="10.00">sbuf/SBuf.h</text>
</a>
</g>
</g>
<!-- Node7&#45;&gt;Node15 -->
<g id="edge53_Node000007_Node000015" class="edge">
<title>Node7&#45;&gt;Node15</title>
<g id="a_edge53_Node000007_Node000015"><a xlink:title=" ">
<path fill="none" stroke="#63b8ff" d="M769.65,-494.9C783.57,-487.27 802.5,-474.88 814,-459 823.64,-445.69 828.74,-427.57 831.37,-414.1"/>
<polygon fill="#63b8ff" stroke="#63b8ff" points="834.85,-414.52 833.05,-404.08 827.94,-413.37 834.85,-414.52"/>
</a>
</g>
</g>
<!-- Node17 -->
<g id="Node000017" class="node">
<title>Node17</title>
<g id="a_Node000017"><a xlink:title=" ">
<polygon fill="#e0e0e0" stroke="#999999" points="1026,-184 978,-184 978,-165 1026,-165 1026,-184"/>
<text text-anchor="middle" x="1002" y="-172" font-family="Helvetica,sans-Serif" font-size="10.00">iosfwd</text>
</a>
</g>
</g>
<!-- Node7&#45;&gt;Node17 -->
<g id="edge54_Node000007_Node000017" class="edge">
<title>Node7&#45;&gt;Node17</title>
<g id="a_edge54_Node000007_Node000017"><a xlink:title=" ">
<path fill="none" stroke="#63b8ff" d="M814.63,-504.14C958.05,-503.92 1298,-493.09 1298,-395.5 1298,-395.5 1298,-395.5 1298,-283.5 1298,-228.38 1114.58,-193.12 1036.51,-180.6"/>
<polygon fill="#63b8ff" stroke="#63b8ff" points="1036.64,-177.08 1026.22,-178.99 1035.56,-184 1036.64,-177.08"/>
</a>
</g>
</g>
<!-- Node9 -->
<g id="Node000009" class="node">
<title>Node9</title>
<g id="a_Node000009"><a xlink:href="http_2one_2forward_8h.html" target="_top" xlink:title=" ">
<polygon fill="white" stroke="#666666" points="499.5,-129 392.5,-129 392.5,-110 499.5,-110 499.5,-129"/>
<text text-anchor="middle" x="446" y="-117" font-family="Helvetica,sans-Serif" font-size="10.00">http/one/forward.h</text>
</a>
</g>
</g>
<!-- Node8&#45;&gt;Node9 -->
<g id="edge8_Node000008_Node000009" class="edge">
<title>Node8&#45;&gt;Node9</title>
<g id="a_edge8_Node000008_Node000009"><a xlink:title=" ">
<path fill="none" stroke="#63b8ff" d="M223.58,-164.98C269.7,-155.76 343.36,-141.03 393.16,-131.07"/>
<polygon fill="#63b8ff" stroke="#63b8ff" points="393.97,-134.48 403.09,-129.08 392.6,-127.61 393.97,-134.48"/>
</a>
</g>
</g>
<!-- Node9&#45;&gt;Node3 -->
<g id="edge9_Node000009_Node000003" class="edge">
<title>Node9&#45;&gt;Node3</title>
<g id="a_edge9_Node000009_Node000003"><a xlink:title=" ">
<path fill="none" stroke="#63b8ff" d="M430.09,-109.98C414.45,-101.61 390.34,-88.7 372.12,-78.95"/>
<polygon fill="#63b8ff" stroke="#63b8ff" points="373.66,-75.8 363.2,-74.17 370.36,-81.98 373.66,-75.8"/>
</a>
</g>
</g>
<!-- Node10 -->
<g id="Node000010" class="node">
<title>Node10</title>
<g id="a_Node000010"><a xlink:href="parser_2forward_8h.html" target="_top" xlink:title=" ">
<polygon fill="white" stroke="#666666" points="510.5,-74 413.5,-74 413.5,-55 510.5,-55 510.5,-74"/>
<text text-anchor="middle" x="462" y="-62" font-family="Helvetica,sans-Serif" font-size="10.00">parser/forward.h</text>
</a>
</g>
</g>
<!-- Node9&#45;&gt;Node10 -->
<g id="edge10_Node000009_Node000010" class="edge">
<title>Node9&#45;&gt;Node10</title>
<g id="a_edge10_Node000009_Node000010"><a xlink:title=" ">
<path fill="none" stroke="#63b8ff" d="M448.64,-109.75C450.76,-102.72 453.81,-92.62 456.46,-83.84"/>
<polygon fill="#63b8ff" stroke="#63b8ff" points="459.87,-84.67 459.41,-74.09 453.17,-82.65 459.87,-84.67"/>
</a>
</g>
</g>
<!-- Node11 -->
<g id="Node000011" class="node">
<title>Node11</title>
<g id="a_Node000011"><a xlink:href="sbuf_2forward_8h.html" target="_top" xlink:title=" ">
<polygon fill="white" stroke="#666666" points="796.5,-74 709.5,-74 709.5,-55 796.5,-55 796.5,-74"/>
<text text-anchor="middle" x="753" y="-62" font-family="Helvetica,sans-Serif" font-size="10.00">sbuf/forward.h</text>
</a>
</g>
</g>
<!-- Node9&#45;&gt;Node11 -->
<g id="edge11_Node000009_Node000011" class="edge">
<title>Node9&#45;&gt;Node11</title>
<g id="a_edge11_Node000009_Node000011"><a xlink:title=" ">
<path fill="none" stroke="#63b8ff" d="M495.32,-109.98C551.13,-100.35 641.71,-84.71 699.27,-74.78"/>
<polygon fill="#63b8ff" stroke="#63b8ff" points="700.01,-78.2 709.27,-73.05 698.82,-71.3 700.01,-78.2"/>
</a>
</g>
</g>
<!-- Node12 -->
<g id="Node000012" class="node">
<title>Node12</title>
<g id="a_Node000012"><a xlink:title=" ">
<polygon fill="#e0e0e0" stroke="#999999" points="814.5,-19 749.5,-19 749.5,0 814.5,0 814.5,-19"/>
<text text-anchor="middle" x="782" y="-7" font-family="Helvetica,sans-Serif" font-size="10.00">functional</text>
</a>
</g>
</g>
<!-- Node11&#45;&gt;Node12 -->
<g id="edge12_Node000011_Node000012" class="edge">
<title>Node11&#45;&gt;Node12</title>
<g id="a_edge12_Node000011_Node000012"><a xlink:title=" ">
<path fill="none" stroke="#63b8ff" d="M757.79,-54.75C761.76,-47.49 767.53,-36.95 772.43,-27.98"/>
<polygon fill="#63b8ff" stroke="#63b8ff" points="775.57,-29.54 777.3,-19.09 769.43,-26.18 775.57,-29.54"/>
</a>
</g>
</g>
<!-- Node13 -->
<g id="Node000013" class="node">
<title>Node13</title>
<g id="a_Node000013"><a xlink:title=" ">
<polygon fill="#e0e0e0" stroke="#999999" points="731,-19 699,-19 699,0 731,0 731,-19"/>
<text text-anchor="middle" x="715" y="-7" font-family="Helvetica,sans-Serif" font-size="10.00">list</text>
</a>
</g>
</g>
<!-- Node11&#45;&gt;Node13 -->
<g id="edge13_Node000011_Node000013" class="edge">
<title>Node11&#45;&gt;Node13</title>
<g id="a_edge13_Node000011_Node000013"><a xlink:title=" ">
<path fill="none" stroke="#63b8ff" d="M746.73,-54.75C741.41,-47.34 733.64,-36.5 727.12,-27.41"/>
<polygon fill="#63b8ff" stroke="#63b8ff" points="729.83,-25.18 721.16,-19.09 724.14,-29.26 729.83,-25.18"/>
</a>
</g>
</g>
<!-- Node14&#45;&gt;Node15 -->
<g id="edge15_Node000014_Node000015" class="edge">
<title>Node14&#45;&gt;Node15</title>
<g id="a_edge15_Node000014_Node000015"><a xlink:title=" ">
<path fill="none" stroke="#63b8ff" d="M765.17,-439.98C777.77,-431.84 797,-419.41 811.94,-409.76"/>
<polygon fill="#63b8ff" stroke="#63b8ff" points="814.09,-412.54 820.59,-404.17 810.29,-406.66 814.09,-412.54"/>
</a>
</g>
</g>
<!-- Node15&#45;&gt;Node11 -->
<g id="edge43_Node000015_Node000011" class="edge">
<title>Node15&#45;&gt;Node11</title>
<g id="a_edge43_Node000015_Node000011"><a xlink:title=" ">
<path fill="none" stroke="#63b8ff" d="M798.31,-393.97C763.35,-392.27 711.7,-383.56 686,-349 680.96,-342.22 684.96,-338.38 686,-330 697.81,-235.3 732.52,-125.84 746.78,-83.5"/>
<polygon fill="#63b8ff" stroke="#63b8ff" points="750.1,-84.62 750.01,-74.03 743.47,-82.36 750.1,-84.62"/>
</a>
</g>
</g>
<!-- Node16 -->
<g id="Node000016" class="node">
<title>Node16</title>
<g id="a_Node000016"><a xlink:href="InstanceId_8h.html" target="_top" xlink:title=" ">
<polygon fill="white" stroke="#666666" points="956,-294 854,-294 854,-275 956,-275 956,-294"/>
<text text-anchor="middle" x="905" y="-282" font-family="Helvetica,sans-Serif" font-size="10.00">base/InstanceId.h</text>
</a>
</g>
</g>
<!-- Node15&#45;&gt;Node16 -->
<g id="edge16_Node000015_Node000016" class="edge">
<title>Node15&#45;&gt;Node16</title>
<g id="a_edge16_Node000015_Node000016"><a xlink:title=" ">
<path fill="none" stroke="#63b8ff" d="M869.52,-388.82C893.85,-383.56 924.42,-372.44 940,-349 950.37,-333.4 936.86,-314.48 923.73,-301.37"/>
<polygon fill="#63b8ff" stroke="#63b8ff" points="925.93,-298.64 916.22,-294.4 921.16,-303.77 925.93,-298.64"/>
</a>
</g>
</g>
<!-- Node15&#45;&gt;Node17 -->
<g id="edge51_Node000015_Node000017" class="edge">
<title>Node15&#45;&gt;Node17</title>
<g id="a_edge51_Node000015_Node000017"><a xlink:title=" ">
<path fill="none" stroke="#63b8ff" d="M869.67,-390.74C900.88,-386.53 945.54,-375.88 974,-349 1017.83,-307.6 1025.15,-279.6 1016,-220 1014.65,-211.19 1011.87,-201.74 1009.15,-193.82"/>
<polygon fill="#63b8ff" stroke="#63b8ff" points="1012.34,-192.35 1005.6,-184.18 1005.77,-194.77 1012.34,-192.35"/>
</a>
</g>
</g>
<!-- Node18 -->
<g id="Node000018" class="node">
<title>Node18</title>
<g id="a_Node000018"><a xlink:href="TextException_8h.html" target="_top" xlink:title=" ">
<polygon fill="white" stroke="#666666" points="1216,-349 1096,-349 1096,-330 1216,-330 1216,-349"/>
<text text-anchor="middle" x="1156" y="-337" font-family="Helvetica,sans-Serif" font-size="10.00">base/TextException.h</text>
</a>
</g>
</g>
<!-- Node15&#45;&gt;Node18 -->
<g id="edge18_Node000015_Node000018" class="edge">
<title>Node15&#45;&gt;Node18</title>
<g id="a_edge18_Node000015_Node000018"><a xlink:title=" ">
<path fill="none" stroke="#63b8ff" d="M869.69,-387.63C923.89,-378.7 1027.68,-361.62 1094.28,-350.66"/>
<polygon fill="#63b8ff" stroke="#63b8ff" points="1094.93,-354.1 1104.23,-349.02 1093.8,-347.19 1094.93,-354.1"/>
</a>
</g>
</g>
<!-- Node22 -->
<g id="Node000022" class="node">
<title>Node22</title>
<g id="a_Node000022"><a xlink:href="debug_2Stream_8h.html" target="_top" xlink:title=" ">
<polygon fill="white" stroke="#666666" points="682,-294 588,-294 588,-275 682,-275 682,-294"/>
<text text-anchor="middle" x="635" y="-282" font-family="Helvetica,sans-Serif" font-size="10.00">debug/Stream.h</text>
</a>
</g>
</g>
<!-- Node15&#45;&gt;Node22 -->
<g id="edge24_Node000015_Node000022" class="edge">
<title>Node15&#45;&gt;Node22</title>
<g id="a_edge24_Node000015_Node000022"><a xlink:title=" ">
<path fill="none" stroke="#63b8ff" d="M798.42,-389.03C751.8,-382.47 673.54,-368.84 653,-349 641.03,-337.44 636.85,-318.57 635.47,-304.4"/>
<polygon fill="#63b8ff" stroke="#63b8ff" points="638.96,-304.04 634.87,-294.27 631.97,-304.46 638.96,-304.04"/>
</a>
</g>
</g>
<!-- Node26 -->
<g id="Node000026" class="node">
<title>Node26</title>
<g id="a_Node000026"><a xlink:href="globals_8h.html" target="_top" xlink:title=" ">
<polygon fill="white" stroke="#666666" points="392.5,-349 331.5,-349 331.5,-330 392.5,-330 392.5,-349"/>
<text text-anchor="middle" x="362" y="-337" font-family="Helvetica,sans-Serif" font-size="10.00">globals.h</text>
</a>
</g>
</g>
<!-- Node15&#45;&gt;Node26 -->
<g id="edge30_Node000015_Node000026" class="edge">
<title>Node15&#45;&gt;Node26</title>
<g id="a_edge30_Node000015_Node000026"><a xlink:title=" ">
<path fill="none" stroke="#63b8ff" d="M798.14,-389.47C711.95,-379.79 493.6,-355.28 402.69,-345.07"/>
<polygon fill="#63b8ff" stroke="#63b8ff" points="402.84,-341.56 392.51,-343.93 402.06,-348.52 402.84,-341.56"/>
</a>
</g>
</g>
<!-- Node35 -->
<g id="Node000035" class="node">
<title>Node35</title>
<g id="a_Node000035"><a xlink:href="MemBlob_8h.html" target="_top" xlink:title=" ">
<polygon fill="white" stroke="#666666" points="791,-349 695,-349 695,-330 791,-330 791,-349"/>
<text text-anchor="middle" x="743" y="-337" font-family="Helvetica,sans-Serif" font-size="10.00">sbuf/MemBlob.h</text>
</a>
</g>
</g>
<!-- Node15&#45;&gt;Node35 -->
<g id="edge44_Node000015_Node000035" class="edge">
<title>Node15&#45;&gt;Node35</title>
<g id="a_edge44_Node000015_Node000035"><a xlink:title=" ">
<path fill="none" stroke="#63b8ff" d="M819.38,-384.98C805.14,-376.69 783.25,-363.94 766.55,-354.22"/>
<polygon fill="#63b8ff" stroke="#63b8ff" points="768.29,-351.18 757.89,-349.17 764.77,-357.23 768.29,-351.18"/>
</a>
</g>
</g>
<!-- Node37 -->
<g id="Node000037" class="node">
<title>Node37</title>
<g id="a_Node000037"><a xlink:href="sbuf_2Stats_8h.html" target="_top" xlink:title=" ">
<polygon fill="white" stroke="#666666" points="1007,-239 933,-239 933,-220 1007,-220 1007,-239"/>
<text text-anchor="middle" x="970" y="-227" font-family="Helvetica,sans-Serif" font-size="10.00">sbuf/Stats.h</text>
</a>
</g>
</g>
<!-- Node15&#45;&gt;Node37 -->
<g id="edge48_Node000015_Node000037" class="edge">
<title>Node15&#45;&gt;Node37</title>
<g id="a_edge48_Node000015_Node000037"><a xlink:title=" ">
<path fill="none" stroke="#63b8ff" d="M869.61,-389.86C897.07,-385.12 933.83,-374.18 955,-349 978.71,-320.79 976.73,-274.65 973.3,-249.06"/>
<polygon fill="#63b8ff" stroke="#63b8ff" points="976.76,-248.52 971.76,-239.17 969.85,-249.59 976.76,-248.52"/>
</a>
</g>
</g>
<!-- Node38 -->
<g id="Node000038" class="node">
<title>Node38</title>
<g id="a_Node000038"><a xlink:title=" ">
<polygon fill="#e0e0e0" stroke="#999999" points="859,-349 809,-349 809,-330 859,-330 859,-349"/>
<text text-anchor="middle" x="834" y="-337" font-family="Helvetica,sans-Serif" font-size="10.00">climits</text>
</a>
</g>
</g>
<!-- Node15&#45;&gt;Node38 -->
<g id="edge50_Node000015_Node000038" class="edge">
<title>Node15&#45;&gt;Node38</title>
<g id="a_edge50_Node000015_Node000038"><a xlink:title=" ">
<path fill="none" stroke="#63b8ff" d="M834,-384.75C834,-377.8 834,-367.85 834,-359.13"/>
<polygon fill="#63b8ff" stroke="#63b8ff" points="837.5,-359.09 834,-349.09 830.5,-359.09 837.5,-359.09"/>
</a>
</g>
</g>
<!-- Node39 -->
<g id="Node000039" class="node">
<title>Node39</title>
<g id="a_Node000039"><a xlink:title=" ">
<polygon fill="#e0e0e0" stroke="#999999" points="930.5,-349 877.5,-349 877.5,-330 930.5,-330 930.5,-349"/>
<text text-anchor="middle" x="904" y="-337" font-family="Helvetica,sans-Serif" font-size="10.00">iterator</text>
</a>
</g>
</g>
<!-- Node15&#45;&gt;Node39 -->
<g id="edge52_Node000015_Node000039" class="edge">
<title>Node15&#45;&gt;Node39</title>
<g id="a_edge52_Node000015_Node000039"><a xlink:title=" ">
<path fill="none" stroke="#63b8ff" d="M845.25,-384.98C855.8,-377 871.8,-364.88 884.44,-355.31"/>
<polygon fill="#63b8ff" stroke="#63b8ff" points="886.69,-358 892.55,-349.17 882.46,-352.42 886.69,-358"/>
</a>
</g>
</g>
<!-- Node16&#45;&gt;Node17 -->
<g id="edge17_Node000016_Node000017" class="edge">
<title>Node16&#45;&gt;Node17</title>
<g id="a_edge17_Node000016_Node000017"><a xlink:title=" ">
<path fill="none" stroke="#63b8ff" d="M905.58,-274.76C906.86,-261.57 910.97,-236.4 924,-220 935.49,-205.55 953.04,-194.94 968.58,-187.72"/>
<polygon fill="#63b8ff" stroke="#63b8ff" points="970.16,-190.85 977.93,-183.65 967.37,-184.43 970.16,-190.85"/>
</a>
</g>
</g>
<!-- Node19 -->
<g id="Node000019" class="node">
<title>Node19</title>
<g id="a_Node000019"><a xlink:href="Assure_8h.html" target="_top" xlink:title=" ">
<polygon fill="white" stroke="#666666" points="1231.5,-294 1146.5,-294 1146.5,-275 1231.5,-275 1231.5,-294"/>
<text text-anchor="middle" x="1189" y="-282" font-family="Helvetica,sans-Serif" font-size="10.00">base/Assure.h</text>
</a>
</g>
</g>
<!-- Node18&#45;&gt;Node19 -->
<g id="edge19_Node000018_Node000019" class="edge">
<title>Node18&#45;&gt;Node19</title>
<g id="a_edge19_Node000018_Node000019"><a xlink:title=" ">
<path fill="none" stroke="#63b8ff" d="M1161.45,-329.75C1166.01,-322.42 1172.67,-311.73 1178.29,-302.7"/>
<polygon fill="#63b8ff" stroke="#63b8ff" points="1181.34,-304.43 1183.65,-294.09 1175.4,-300.73 1181.34,-304.43"/>
</a>
</g>
</g>
<!-- Node20 -->
<g id="Node000020" class="node">
<title>Node20</title>
<g id="a_Node000020"><a xlink:href="Here_8h.html" target="_top" xlink:title=" ">
<polygon fill="white" stroke="#666666" points="1182.5,-239 1107.5,-239 1107.5,-220 1182.5,-220 1182.5,-239"/>
<text text-anchor="middle" x="1145" y="-227" font-family="Helvetica,sans-Serif" font-size="10.00">base/Here.h</text>
</a>
</g>
</g>
<!-- Node18&#45;&gt;Node20 -->
<g id="edge22_Node000018_Node000020" class="edge">
<title>Node18&#45;&gt;Node20</title>
<g id="a_edge22_Node000018_Node000020"><a xlink:title=" ">
<path fill="none" stroke="#63b8ff" d="M1186.51,-329.94C1217.08,-319.7 1257.41,-300.69 1241,-275 1230.05,-257.86 1210.62,-247.22 1192.09,-240.67"/>
<polygon fill="#63b8ff" stroke="#63b8ff" points="1193.12,-237.33 1182.53,-237.6 1190.99,-243.99 1193.12,-237.33"/>
</a>
</g>
</g>
<!-- Node21 -->
<g id="Node000021" class="node">
<title>Node21</title>
<g id="a_Node000021"><a xlink:title=" ">
<polygon fill="#e0e0e0" stroke="#999999" points="1128.5,-294 1063.5,-294 1063.5,-275 1128.5,-275 1128.5,-294"/>
<text text-anchor="middle" x="1096" y="-282" font-family="Helvetica,sans-Serif" font-size="10.00">stdexcept</text>
</a>
</g>
</g>
<!-- Node18&#45;&gt;Node21 -->
<g id="edge23_Node000018_Node000021" class="edge">
<title>Node18&#45;&gt;Node21</title>
<g id="a_edge23_Node000018_Node000021"><a xlink:title=" ">
<path fill="none" stroke="#63b8ff" d="M1146.36,-329.98C1137.49,-322.15 1124.13,-310.34 1113.39,-300.86"/>
<polygon fill="#63b8ff" stroke="#63b8ff" points="1115.63,-298.17 1105.82,-294.17 1110.99,-303.41 1115.63,-298.17"/>
</a>
</g>
</g>
<!-- Node19&#45;&gt;Node20 -->
<g id="edge20_Node000019_Node000020" class="edge">
<title>Node19&#45;&gt;Node20</title>
<g id="a_edge20_Node000019_Node000020"><a xlink:title=" ">
<path fill="none" stroke="#63b8ff" d="M1181.73,-274.75C1175.46,-267.18 1166.21,-256.05 1158.57,-246.84"/>
<polygon fill="#63b8ff" stroke="#63b8ff" points="1161.21,-244.55 1152.13,-239.09 1155.83,-249.02 1161.21,-244.55"/>
</a>
</g>
</g>
<!-- Node20&#45;&gt;Node17 -->
<g id="edge21_Node000020_Node000017" class="edge">
<title>Node20&#45;&gt;Node17</title>
<g id="a_edge21_Node000020_Node000017"><a xlink:title=" ">
<path fill="none" stroke="#63b8ff" d="M1122.02,-219.98C1098.5,-211.27 1061.71,-197.63 1035.06,-187.75"/>
<polygon fill="#63b8ff" stroke="#63b8ff" points="1035.99,-184.36 1025.39,-184.17 1033.55,-190.93 1035.99,-184.36"/>
</a>
</g>
</g>
<!-- Node22&#45;&gt;Node5 -->
<g id="edge27_Node000022_Node000005" class="edge">
<title>Node22&#45;&gt;Node5</title>
<g id="a_edge27_Node000022_Node000005"><a xlink:title=" ">
<path fill="none" stroke="#63b8ff" d="M641.59,-274.8C654.31,-257.1 681,-215.24 681,-175.5 681,-175.5 681,-175.5 681,-118.5 681,-71.36 629.2,-39.54 593.67,-23.26"/>
<polygon fill="#63b8ff" stroke="#63b8ff" points="594.7,-19.89 584.14,-19.09 591.89,-26.31 594.7,-19.89"/>
</a>
</g>
</g>
<!-- Node22&#45;&gt;Node20 -->
<g id="edge25_Node000022_Node000020" class="edge">
<title>Node22&#45;&gt;Node20</title>
<g id="a_edge25_Node000022_Node000020"><a xlink:title=" ">
<path fill="none" stroke="#63b8ff" d="M682.07,-278.61C778.9,-268.55 999.52,-245.62 1097.08,-235.48"/>
<polygon fill="#63b8ff" stroke="#63b8ff" points="1097.65,-238.94 1107.24,-234.42 1096.93,-231.98 1097.65,-238.94"/>
</a>
</g>
</g>
<!-- Node23 -->
<g id="Node000023" class="node">
<title>Node23</title>
<g id="a_Node000023"><a xlink:href="AllocatorProxy_8h.html" target="_top" xlink:title=" ">
<polygon fill="white" stroke="#666666" points="528,-184 404,-184 404,-165 528,-165 528,-184"/>
<text text-anchor="middle" x="466" y="-172" font-family="Helvetica,sans-Serif" font-size="10.00">mem/AllocatorProxy.h</text>
</a>
</g>
</g>
<!-- Node22&#45;&gt;Node23 -->
<g id="edge26_Node000022_Node000023" class="edge">
<title>Node22&#45;&gt;Node23</title>
<g id="a_edge26_Node000022_Node000023"><a xlink:title=" ">
<path fill="none" stroke="#63b8ff" d="M595.17,-274.98C570.12,-268.22 538.09,-256.86 514,-239 497.4,-226.7 483.82,-207.11 475.39,-192.94"/>
<polygon fill="#63b8ff" stroke="#63b8ff" points="478.39,-191.12 470.41,-184.15 472.3,-194.57 478.39,-191.12"/>
</a>
</g>
</g>
<!-- Node24 -->
<g id="Node000024" class="node">
<title>Node24</title>
<g id="a_Node000024"><a xlink:title=" ">
<polygon fill="#e0e0e0" stroke="#999999" points="579,-239 523,-239 523,-220 579,-220 579,-239"/>
<text text-anchor="middle" x="551" y="-227" font-family="Helvetica,sans-Serif" font-size="10.00">sstream</text>
</a>
</g>
</g>
<!-- Node22&#45;&gt;Node24 -->
<g id="edge28_Node000022_Node000024" class="edge">
<title>Node22&#45;&gt;Node24</title>
<g id="a_edge28_Node000022_Node000024"><a xlink:title=" ">
<path fill="none" stroke="#63b8ff" d="M621.5,-274.98C608.6,-266.84 588.9,-254.41 573.6,-244.76"/>
<polygon fill="#63b8ff" stroke="#63b8ff" points="575.07,-241.55 564.74,-239.17 571.33,-247.47 575.07,-241.55"/>
</a>
</g>
</g>
<!-- Node25 -->
<g id="Node000025" class="node">
<title>Node25</title>
<g id="a_Node000025"><a xlink:title=" ">
<polygon fill="#e0e0e0" stroke="#999999" points="653,-239 597,-239 597,-220 653,-220 653,-239"/>
<text text-anchor="middle" x="625" y="-227" font-family="Helvetica,sans-Serif" font-size="10.00">iomanip</text>
</a>
</g>
</g>
<!-- Node22&#45;&gt;Node25 -->
<g id="edge29_Node000022_Node000025" class="edge">
<title>Node22&#45;&gt;Node25</title>
<g id="a_edge29_Node000022_Node000025"><a xlink:title=" ">
<path fill="none" stroke="#63b8ff" d="M633.35,-274.75C632.04,-267.8 630.16,-257.85 628.52,-249.13"/>
<polygon fill="#63b8ff" stroke="#63b8ff" points="631.91,-248.27 626.62,-239.09 625.04,-249.56 631.91,-248.27"/>
</a>
</g>
</g>
<!-- Node27 -->
<g id="Node000027" class="node">
<title>Node27</title>
<g id="a_Node000027"><a xlink:href="CacheDigest_8h.html" target="_top" xlink:title=" ">
<polygon fill="white" stroke="#666666" points="452.5,-294 365.5,-294 365.5,-275 452.5,-275 452.5,-294"/>
<text text-anchor="middle" x="409" y="-282" font-family="Helvetica,sans-Serif" font-size="10.00">CacheDigest.h</text>
</a>
</g>
</g>
<!-- Node26&#45;&gt;Node27 -->
<g id="edge31_Node000026_Node000027" class="edge">
<title>Node26&#45;&gt;Node27</title>
<g id="a_edge31_Node000026_Node000027"><a xlink:title=" ">
<path fill="none" stroke="#63b8ff" d="M369.76,-329.75C376.47,-322.18 386.34,-311.05 394.51,-301.84"/>
<polygon fill="#63b8ff" stroke="#63b8ff" points="397.37,-303.89 401.38,-294.09 392.13,-299.25 397.37,-303.89"/>
</a>
</g>
</g>
<!-- Node30 -->
<g id="Node000030" class="node">
<title>Node30</title>
<g id="a_Node000030"><a xlink:href="hash_8h.html" target="_top" xlink:title=" ">
<polygon fill="white" stroke="#666666" points="291.5,-184 242.5,-184 242.5,-165 291.5,-165 291.5,-184"/>
<text text-anchor="middle" x="267" y="-172" font-family="Helvetica,sans-Serif" font-size="10.00">hash.h</text>
</a>
</g>
</g>
<!-- Node26&#45;&gt;Node30 -->
<g id="edge40_Node000026_Node000030" class="edge">
<title>Node26&#45;&gt;Node30</title>
<g id="a_edge40_Node000026_Node000030"><a xlink:title=" ">
<path fill="none" stroke="#63b8ff" d="M331.48,-334.64C288.66,-328.52 214.13,-315.09 198,-294 175.25,-264.25 236.17,-244.23 240,-239 249.95,-225.41 257.12,-207.59 261.56,-194.29"/>
<polygon fill="#63b8ff" stroke="#63b8ff" points="265.01,-194.96 264.64,-184.37 258.33,-192.88 265.01,-194.96"/>
</a>
</g>
</g>
<!-- Node32 -->
<g id="Node000032" class="node">
<title>Node32</title>
<g id="a_Node000032"><a xlink:href="defines_8h.html" target="_top" xlink:title=" ">
<polygon fill="white" stroke="#666666" points="531.5,-294 470.5,-294 470.5,-275 531.5,-275 531.5,-294"/>
<text text-anchor="middle" x="501" y="-282" font-family="Helvetica,sans-Serif" font-size="10.00">defines.h</text>
</a>
</g>
</g>
<!-- Node26&#45;&gt;Node32 -->
<g id="edge39_Node000026_Node000032" class="edge">
<title>Node26&#45;&gt;Node32</title>
<g id="a_edge39_Node000026_Node000032"><a xlink:title=" ">
<path fill="none" stroke="#63b8ff" d="M384.33,-329.98C407.2,-321.27 442.96,-307.63 468.86,-297.75"/>
<polygon fill="#63b8ff" stroke="#63b8ff" points="470.16,-301 478.26,-294.17 467.67,-294.46 470.16,-301"/>
</a>
</g>
</g>
<!-- Node33 -->
<g id="Node000033" class="node">
<title>Node33</title>
<g id="a_Node000033"><a xlink:href="IoStats_8h.html" target="_top" xlink:title=" ">
<polygon fill="white" stroke="#666666" points="266.5,-294 207.5,-294 207.5,-275 266.5,-275 266.5,-294"/>
<text text-anchor="middle" x="237" y="-282" font-family="Helvetica,sans-Serif" font-size="10.00">IoStats.h</text>
</a>
</g>
</g>
<!-- Node26&#45;&gt;Node33 -->
<g id="edge41_Node000026_Node000033" class="edge">
<title>Node26&#45;&gt;Node33</title>
<g id="a_edge41_Node000026_Node000033"><a xlink:title=" ">
<path fill="none" stroke="#63b8ff" d="M341.92,-329.98C321.63,-321.38 290.04,-307.99 266.83,-298.15"/>
<polygon fill="#63b8ff" stroke="#63b8ff" points="268.02,-294.85 257.45,-294.17 265.29,-301.3 268.02,-294.85"/>
</a>
</g>
</g>
<!-- Node34 -->
<g id="Node000034" class="node">
<title>Node34</title>
<g id="a_Node000034"><a xlink:href="rfc2181_8h.html" target="_top" xlink:title=" ">
<polygon fill="white" stroke="#666666" points="347,-294 285,-294 285,-275 347,-275 347,-294"/>
<text text-anchor="middle" x="316" y="-282" font-family="Helvetica,sans-Serif" font-size="10.00">rfc2181.h</text>
</a>
</g>
</g>
<!-- Node26&#45;&gt;Node34 -->
<g id="edge42_Node000026_Node000034" class="edge">
<title>Node26&#45;&gt;Node34</title>
<g id="a_edge42_Node000026_Node000034"><a xlink:title=" ">
<path fill="none" stroke="#63b8ff" d="M354.4,-329.75C347.84,-322.18 338.18,-311.05 330.19,-301.84"/>
<polygon fill="#63b8ff" stroke="#63b8ff" points="332.65,-299.35 323.45,-294.09 327.37,-303.94 332.65,-299.35"/>
</a>
</g>
</g>
<!-- Node28 -->
<g id="Node000028" class="node">
<title>Node28</title>
<g id="a_Node000028"><a xlink:href="mem_2forward_8h.html" target="_top" xlink:title=" ">
<polygon fill="white" stroke="#666666" points="467,-239 375,-239 375,-220 467,-220 467,-239"/>
<text text-anchor="middle" x="421" y="-227" font-family="Helvetica,sans-Serif" font-size="10.00">mem/forward.h</text>
</a>
</g>
</g>
<!-- Node27&#45;&gt;Node28 -->
<g id="edge32_Node000027_Node000028" class="edge">
<title>Node27&#45;&gt;Node28</title>
<g id="a_edge32_Node000027_Node000028"><a xlink:title=" ">
<path fill="none" stroke="#63b8ff" d="M410.98,-274.75C412.57,-267.72 414.86,-257.62 416.85,-248.84"/>
<polygon fill="#63b8ff" stroke="#63b8ff" points="420.26,-249.62 419.06,-239.09 413.43,-248.07 420.26,-249.62"/>
</a>
</g>
</g>
<!-- Node27&#45;&gt;Node29 -->
<g id="edge35_Node000027_Node000029" class="edge">
<title>Node27&#45;&gt;Node29</title>
<g id="a_edge35_Node000027_Node000029"><a xlink:title=" ">
<path fill="none" stroke="#63b8ff" d="M372.37,-274.98C333.09,-265.86 270.63,-251.33 227.81,-241.38"/>
<polygon fill="#63b8ff" stroke="#63b8ff" points="228.45,-237.94 217.92,-239.08 226.87,-244.76 228.45,-237.94"/>
</a>
</g>
</g>
<!-- Node28&#45;&gt;Node17 -->
<g id="edge34_Node000028_Node000017" class="edge">
<title>Node28&#45;&gt;Node17</title>
<g id="a_edge34_Node000028_Node000017"><a xlink:title=" ">
<path fill="none" stroke="#63b8ff" d="M467.36,-224.26C482.25,-222.9 498.82,-221.39 514,-220 684.12,-204.47 887.61,-185.92 967.45,-178.65"/>
<polygon fill="#63b8ff" stroke="#63b8ff" points="968.24,-182.09 977.88,-177.7 967.6,-175.12 968.24,-182.09"/>
</a>
</g>
</g>
<!-- Node28&#45;&gt;Node23 -->
<g id="edge33_Node000028_Node000023" class="edge">
<title>Node28&#45;&gt;Node23</title>
<g id="a_edge33_Node000028_Node000023"><a xlink:title=" ">
<path fill="none" stroke="#63b8ff" d="M428.43,-219.75C434.85,-212.18 444.31,-201.05 452.12,-191.84"/>
<polygon fill="#63b8ff" stroke="#63b8ff" points="454.9,-193.98 458.71,-184.09 449.57,-189.45 454.9,-193.98"/>
</a>
</g>
</g>
<!-- Node29&#45;&gt;Node8 -->
<g id="edge37_Node000029_Node000008" class="edge">
<title>Node29&#45;&gt;Node8</title>
<g id="a_edge37_Node000029_Node000008"><a xlink:title=" ">
<path fill="none" stroke="#63b8ff" d="M181,-219.75C181,-212.8 181,-202.85 181,-194.13"/>
<polygon fill="#63b8ff" stroke="#63b8ff" points="184.5,-194.09 181,-184.09 177.5,-194.09 184.5,-194.09"/>
</a>
</g>
</g>
<!-- Node29&#45;&gt;Node30 -->
<g id="edge36_Node000029_Node000030" class="edge">
<title>Node29&#45;&gt;Node30</title>
<g id="a_edge36_Node000029_Node000030"><a xlink:title=" ">
<path fill="none" stroke="#63b8ff" d="M194.82,-219.98C208.15,-211.77 228.58,-199.18 244.31,-189.49"/>
<polygon fill="#63b8ff" stroke="#63b8ff" points="246.25,-192.4 252.93,-184.17 242.58,-186.44 246.25,-192.4"/>
</a>
</g>
</g>
<!-- Node29&#45;&gt;Node31 -->
<g id="edge38_Node000029_Node000031" class="edge">
<title>Node29&#45;&gt;Node31</title>
<g id="a_edge38_Node000029_Node000031"><a xlink:title=" ">
<path fill="none" stroke="#63b8ff" d="M163.81,-219.98C146.75,-211.54 120.37,-198.47 100.6,-188.68"/>
<polygon fill="#63b8ff" stroke="#63b8ff" points="102.02,-185.47 91.5,-184.17 98.91,-191.75 102.02,-185.47"/>
</a>
</g>
</g>
<!-- Node35&#45;&gt;Node3 -->
<g id="edge46_Node000035_Node000003" class="edge">
<title>Node35&#45;&gt;Node3</title>
<g id="a_edge46_Node000035_Node000003"><a xlink:title=" ">
<path fill="none" stroke="#63b8ff" d="M703.24,-329.93C669.61,-322.16 620.43,-309.55 579,-294 560.95,-287.22 558.25,-281.22 540,-275 465.26,-249.51 419.13,-297.43 366,-239 326.64,-195.71 335.85,-119.01 342.75,-83.93"/>
<polygon fill="#63b8ff" stroke="#63b8ff" points="346.18,-84.61 344.84,-74.1 339.34,-83.15 346.18,-84.61"/>
</a>
</g>
</g>
<!-- Node35&#45;&gt;Node16 -->
<g id="edge45_Node000035_Node000016" class="edge">
<title>Node35&#45;&gt;Node16</title>
<g id="a_edge45_Node000035_Node000016"><a xlink:title=" ">
<path fill="none" stroke="#63b8ff" d="M769.03,-329.98C796.11,-321.13 838.71,-307.19 869.01,-297.28"/>
<polygon fill="#63b8ff" stroke="#63b8ff" points="870.35,-300.52 878.77,-294.08 868.18,-293.87 870.35,-300.52"/>
</a>
</g>
</g>
<!-- Node36 -->
<g id="Node000036" class="node">
<title>Node36</title>
<g id="a_Node000036"><a xlink:title=" ">
<polygon fill="#e0e0e0" stroke="#999999" points="830,-294 738,-294 738,-275 830,-275 830,-294"/>
<text text-anchor="middle" x="784" y="-282" font-family="Helvetica,sans-Serif" font-size="10.00">mem/forward.h</text>
</a>
</g>
</g>
<!-- Node35&#45;&gt;Node36 -->
<g id="edge47_Node000035_Node000036" class="edge">
<title>Node35&#45;&gt;Node36</title>
<g id="a_edge47_Node000035_Node000036"><a xlink:title=" ">
<path fill="none" stroke="#63b8ff" d="M749.77,-329.75C755.56,-322.26 764.06,-311.28 771.14,-302.13"/>
<polygon fill="#63b8ff" stroke="#63b8ff" points="774.01,-304.14 777.36,-294.09 768.47,-299.86 774.01,-304.14"/>
</a>
</g>
</g>
<!-- Node37&#45;&gt;Node17 -->
<g id="edge49_Node000037_Node000017" class="edge">
<title>Node37&#45;&gt;Node17</title>
<g id="a_edge49_Node000037_Node000017"><a xlink:title=" ">
<path fill="none" stroke="#63b8ff" d="M975.28,-219.75C979.71,-212.42 986.16,-201.73 991.62,-192.7"/>
<polygon fill="#63b8ff" stroke="#63b8ff" points="994.64,-194.46 996.81,-184.09 988.65,-190.84 994.64,-194.46"/>
</a>
</g>
</g>
</g>
</svg>

<g id="navigator" transform="translate(0 0)" fill="#404254">
  <rect fill="#f2f5e9" fill-opacity="0.5" stroke="#606060" stroke-width=".5" x="0" y="0" width="60" height="60"/>
  <use id="zoomplus" xlink:href="#zoomPlus" x="17" y="9" onmousedown="handleZoom(evt,'in')"/>
  <use id="zoomminus" xlink:href="#zoomMin" x="42" y="9" onmousedown="handleZoom(evt,'out')"/>
  <use id="reset" xlink:href="#resetDef" x="30" y="36" onmousedown="handleReset()"/>
   <use id="arrowup" xlink:href="#arrowUp" x="0" y="0" onmousedown="handlePan(0,-1)"/>
  <use id="arrowright" xlink:href="#arrowRight" x="0" y="0" onmousedown="handlePan(1,0)"/>
  <use id="arrowdown" xlink:href="#arrowDown" x="0" y="0" onmousedown="handlePan(0,1)"/>
  <use id="arrowleft" xlink:href="#arrowLeft" x="0" y="0" onmousedown="handlePan(-1,0)"/>
</g>
<svg viewBox="0 0 15 15" width="100%" height="30px" preserveAspectRatio="xMaxYMin meet">
 <g id="arrow_out" transform="scale(0.3 0.3)">
  <a xlink:href="Controller_8h__incl_org.svg" target="_base">
   <rect id="button" ry="5" rx="5" y="6" x="6" height="38" width="38"
        fill="#f2f5e9" fill-opacity="0.5" stroke="#606060" stroke-width="1.0"/>
   <path id="arrow"
     d="M 11.500037,31.436501 C 11.940474,20.09759 22.043105,11.32322 32.158766,21.979434 L 37.068811,17.246167 C 37.068811,17.246167 37.088388,32 37.088388,32 L 22.160133,31.978069 C 22.160133,31.978069 26.997745,27.140456 26.997745,27.140456 C 18.528582,18.264221 13.291696,25.230495 11.500037,31.436501 z"
     style="fill:#404040;"/>
  </a>
 </g>
</svg>

<style type='text/css'>
<![CDATA[
[data-mouse-over-selected='false'] { opacity: 0.7; }
[data-mouse-over-selected='true']  { opacity: 1.0; }
]]>
</style>
<script type="application/ecmascript"><![CDATA[
document.addEventListener('DOMContentLoaded', (event) => {
  highlightEdges();
  highlightAdjacentNodes();
});
]]></script>
</svg>
