<?xml version="1.0" encoding="UTF-8" standalone="no"?>
<!DOCTYPE svg PUBLIC "-//W3C//DTD SVG 1.1//EN"
 "http://www.w3.org/Graphics/SVG/1.1/DTD/svg11.dtd">
<!-- Generated by graphviz version 2.43.0 (0)
 -->
<!-- Title: squid/compat/cppunit.h Pages: 1 -->
<svg width="6585pt" height="159pt"
 viewBox="0.00 0.00 6584.50 159.00" xmlns="http://www.w3.org/2000/svg" xmlns:xlink="http://www.w3.org/1999/xlink">
<g id="graph0" class="graph" transform="scale(1 1) rotate(0) translate(4 155)">
<title>squid/compat/cppunit.h</title>
<!-- Node1 -->
<g id="Node000001" class="node">
<title>Node1</title>
<g id="a_Node000001"><a xlink:title=" ">
<polygon fill="#999999" stroke="#666666" points="3383,-151 3252,-151 3252,-132 3383,-132 3383,-151"/>
<text text-anchor="middle" x="3317.5" y="-139" font-family="Helvetica,sans-Serif" font-size="10.00">squid/compat/cppunit.h</text>
</a>
</g>
</g>
<!-- Node2 -->
<g id="Node000002" class="node">
<title>Node2</title>
<g id="a_Node000002"><a xlink:href="testACLMaxUserIP_8cc.html" target="_top" xlink:title=" ">
<polygon fill="white" stroke="#666666" points="149,-96 0,-96 0,-66 149,-66 149,-96"/>
<text text-anchor="start" x="8" y="-84" font-family="Helvetica,sans-Serif" font-size="10.00">squid/src/tests/testACLMax</text>
<text text-anchor="middle" x="74.5" y="-73" font-family="Helvetica,sans-Serif" font-size="10.00">UserIP.cc</text>
</a>
</g>
</g>
<!-- Node1&#45;&gt;Node2 -->
<g id="edge1_Node000001_Node000002" class="edge">
<title>Node1&#45;&gt;Node2</title>
<g id="a_edge1_Node000001_Node000002"><a xlink:title=" ">
<path fill="none" stroke="#63b8ff" d="M3241.63,-140.12C2790.88,-137.76 473.89,-124.34 158.5,-96 155.41,-95.72 152.26,-95.4 149.08,-95.03"/>
<polygon fill="#63b8ff" stroke="#63b8ff" points="3241.91,-143.62 3251.93,-140.17 3241.95,-136.62 3241.91,-143.62"/>
</a>
</g>
</g>
<!-- Node3 -->
<g id="Node000003" class="node">
<title>Node3</title>
<g id="a_Node000003"><a xlink:href="testAuth_8h.html" target="_top" xlink:title=" ">
<polygon fill="white" stroke="#666666" points="307.5,-90.5 167.5,-90.5 167.5,-71.5 307.5,-71.5 307.5,-90.5"/>
<text text-anchor="middle" x="237.5" y="-78.5" font-family="Helvetica,sans-Serif" font-size="10.00">squid/src/tests/testAuth.h</text>
</a>
</g>
</g>
<!-- Node1&#45;&gt;Node3 -->
<g id="edge2_Node000001_Node000003" class="edge">
<title>Node1&#45;&gt;Node3</title>
<g id="a_edge2_Node000001_Node000003"><a xlink:title=" ">
<path fill="none" stroke="#63b8ff" d="M3241.61,-140.1C2804.3,-137.73 615.09,-124.48 316.5,-96 304.02,-94.81 290.55,-92.73 278.33,-90.52"/>
<polygon fill="#63b8ff" stroke="#63b8ff" points="3241.9,-143.61 3251.92,-140.16 3241.94,-136.61 3241.9,-143.61"/>
</a>
</g>
</g>
<!-- Node5 -->
<g id="Node000005" class="node">
<title>Node5</title>
<g id="a_Node000005"><a xlink:href="testBoilerplate_8cc.html" target="_top" xlink:title=" ">
<polygon fill="white" stroke="#666666" points="501.5,-90.5 325.5,-90.5 325.5,-71.5 501.5,-71.5 501.5,-90.5"/>
<text text-anchor="middle" x="413.5" y="-78.5" font-family="Helvetica,sans-Serif" font-size="10.00">squid/src/tests/testBoilerplate.cc</text>
</a>
</g>
</g>
<!-- Node1&#45;&gt;Node5 -->
<g id="edge4_Node000001_Node000005" class="edge">
<title>Node1&#45;&gt;Node5</title>
<g id="a_edge4_Node000001_Node000005"><a xlink:title=" ">
<path fill="none" stroke="#63b8ff" d="M3241.66,-140.61C2851.05,-140.96 1063.26,-140.09 510.5,-96 495.32,-94.79 478.9,-92.71 463.96,-90.53"/>
<polygon fill="#63b8ff" stroke="#63b8ff" points="3241.72,-144.11 3251.72,-140.6 3241.71,-137.11 3241.72,-144.11"/>
</a>
</g>
</g>
<!-- Node6 -->
<g id="Node000006" class="node">
<title>Node6</title>
<g id="a_Node000006"><a xlink:href="testCacheManager_8cc.html" target="_top" xlink:title=" ">
<polygon fill="white" stroke="#666666" points="659,-96 520,-96 520,-66 659,-66 659,-96"/>
<text text-anchor="start" x="528" y="-84" font-family="Helvetica,sans-Serif" font-size="10.00">squid/src/tests/testCache</text>
<text text-anchor="middle" x="589.5" y="-73" font-family="Helvetica,sans-Serif" font-size="10.00">Manager.cc</text>
</a>
</g>
</g>
<!-- Node1&#45;&gt;Node6 -->
<g id="edge5_Node000001_Node000006" class="edge">
<title>Node1&#45;&gt;Node6</title>
<g id="a_edge5_Node000001_Node000006"><a xlink:title=" ">
<path fill="none" stroke="#63b8ff" d="M3241.58,-139.94C2835.64,-136.87 930.08,-121.21 668.5,-96 665.45,-95.71 662.34,-95.36 659.2,-94.97"/>
<polygon fill="#63b8ff" stroke="#63b8ff" points="3241.71,-143.44 3251.74,-140.02 3241.77,-136.44 3241.71,-143.44"/>
</a>
</g>
</g>
<!-- Node7 -->
<g id="Node000007" class="node">
<title>Node7</title>
<g id="a_Node000007"><a xlink:href="testCharacterSet_8cc.html" target="_top" xlink:title=" ">
<polygon fill="white" stroke="#666666" points="833.5,-96 677.5,-96 677.5,-66 833.5,-66 833.5,-96"/>
<text text-anchor="start" x="685.5" y="-84" font-family="Helvetica,sans-Serif" font-size="10.00">squid/src/tests/testCharacter</text>
<text text-anchor="middle" x="755.5" y="-73" font-family="Helvetica,sans-Serif" font-size="10.00">Set.cc</text>
</a>
</g>
</g>
<!-- Node1&#45;&gt;Node7 -->
<g id="edge6_Node000001_Node000007" class="edge">
<title>Node1&#45;&gt;Node7</title>
<g id="a_edge6_Node000001_Node000007"><a xlink:title=" ">
<path fill="none" stroke="#63b8ff" d="M3241.72,-140.58C2879.87,-140.77 1325.45,-138.98 842.5,-96 839.6,-95.74 836.66,-95.45 833.69,-95.12"/>
<polygon fill="#63b8ff" stroke="#63b8ff" points="3241.83,-144.08 3251.82,-140.58 3241.82,-137.08 3241.83,-144.08"/>
</a>
</g>
</g>
<!-- Node8 -->
<g id="Node000008" class="node">
<title>Node8</title>
<g id="a_Node000008"><a xlink:href="testClpMap_8cc.html" target="_top" xlink:title=" ">
<polygon fill="white" stroke="#666666" points="1011,-90.5 852,-90.5 852,-71.5 1011,-71.5 1011,-90.5"/>
<text text-anchor="middle" x="931.5" y="-78.5" font-family="Helvetica,sans-Serif" font-size="10.00">squid/src/tests/testClpMap.cc</text>
</a>
</g>
</g>
<!-- Node1&#45;&gt;Node8 -->
<g id="edge7_Node000001_Node000008" class="edge">
<title>Node1&#45;&gt;Node8</title>
<g id="a_edge7_Node000001_Node000008"><a xlink:title=" ">
<path fill="none" stroke="#63b8ff" d="M3241.61,-140.43C2895.72,-139.87 1466.34,-135.2 1020.5,-96 1006.63,-94.78 991.65,-92.72 978,-90.54"/>
<polygon fill="#63b8ff" stroke="#63b8ff" points="3241.76,-143.93 3251.76,-140.44 3241.77,-136.93 3241.76,-143.93"/>
</a>
</g>
</g>
<!-- Node9 -->
<g id="Node000009" class="node">
<title>Node9</title>
<g id="a_Node000009"><a xlink:href="testConfigParser_8cc.html" target="_top" xlink:title=" ">
<polygon fill="white" stroke="#666666" points="1169.5,-96 1029.5,-96 1029.5,-66 1169.5,-66 1169.5,-96"/>
<text text-anchor="start" x="1037.5" y="-84" font-family="Helvetica,sans-Serif" font-size="10.00">squid/src/tests/testConfig</text>
<text text-anchor="middle" x="1099.5" y="-73" font-family="Helvetica,sans-Serif" font-size="10.00">Parser.cc</text>
</a>
</g>
</g>
<!-- Node1&#45;&gt;Node9 -->
<g id="edge8_Node000001_Node000009" class="edge">
<title>Node1&#45;&gt;Node9</title>
<g id="a_edge8_Node000001_Node000009"><a xlink:title=" ">
<path fill="none" stroke="#63b8ff" d="M3241.48,-140.5C2910.22,-140.23 1591.03,-136.6 1178.5,-96 1175.59,-95.71 1172.62,-95.38 1169.63,-95.01"/>
<polygon fill="#63b8ff" stroke="#63b8ff" points="3241.92,-144 3251.92,-140.5 3241.92,-137 3241.92,-144"/>
</a>
</g>
</g>
<!-- Node10 -->
<g id="Node000010" class="node">
<title>Node10</title>
<g id="a_Node000010"><a xlink:href="testDiskIO_8cc.html" target="_top" xlink:title=" ">
<polygon fill="white" stroke="#666666" points="1319,-96 1188,-96 1188,-66 1319,-66 1319,-96"/>
<text text-anchor="start" x="1196" y="-84" font-family="Helvetica,sans-Serif" font-size="10.00">squid/src/tests/testDisk</text>
<text text-anchor="middle" x="1253.5" y="-73" font-family="Helvetica,sans-Serif" font-size="10.00">IO.cc</text>
</a>
</g>
</g>
<!-- Node1&#45;&gt;Node10 -->
<g id="edge9_Node000001_Node000010" class="edge">
<title>Node1&#45;&gt;Node10</title>
<g id="a_edge9_Node000001_Node000010"><a xlink:title=" ">
<path fill="none" stroke="#63b8ff" d="M3241.35,-140.47C2924.43,-140.11 1708.84,-136.06 1327.5,-96 1324.77,-95.71 1321.99,-95.38 1319.18,-95.01"/>
<polygon fill="#63b8ff" stroke="#63b8ff" points="3241.79,-143.97 3251.8,-140.49 3241.8,-136.97 3241.79,-143.97"/>
</a>
</g>
</g>
<!-- Node11 -->
<g id="Node000011" class="node">
<title>Node11</title>
<g id="a_Node000011"><a xlink:href="testEnumIterator_8cc.html" target="_top" xlink:title=" ">
<polygon fill="white" stroke="#666666" points="1474,-96 1337,-96 1337,-66 1474,-66 1474,-96"/>
<text text-anchor="start" x="1345" y="-84" font-family="Helvetica,sans-Serif" font-size="10.00">squid/src/tests/testEnum</text>
<text text-anchor="middle" x="1405.5" y="-73" font-family="Helvetica,sans-Serif" font-size="10.00">Iterator.cc</text>
</a>
</g>
</g>
<!-- Node1&#45;&gt;Node11 -->
<g id="edge10_Node000001_Node000011" class="edge">
<title>Node1&#45;&gt;Node11</title>
<g id="a_edge10_Node000001_Node000011"><a xlink:title=" ">
<path fill="none" stroke="#63b8ff" d="M3241.17,-140.21C2939.87,-138.82 1832.68,-131.36 1483.5,-96 1480.49,-95.7 1477.42,-95.34 1474.32,-94.94"/>
<polygon fill="#63b8ff" stroke="#63b8ff" points="3241.53,-143.71 3251.54,-140.26 3241.56,-136.71 3241.53,-143.71"/>
</a>
</g>
</g>
<!-- Node12 -->
<g id="Node000012" class="node">
<title>Node12</title>
<g id="a_Node000012"><a xlink:href="testEvent_8cc.html" target="_top" xlink:title=" ">
<polygon fill="white" stroke="#666666" points="1642.5,-90.5 1492.5,-90.5 1492.5,-71.5 1642.5,-71.5 1642.5,-90.5"/>
<text text-anchor="middle" x="1567.5" y="-78.5" font-family="Helvetica,sans-Serif" font-size="10.00">squid/src/tests/testEvent.cc</text>
</a>
</g>
</g>
<!-- Node1&#45;&gt;Node12 -->
<g id="edge11_Node000001_Node000012" class="edge">
<title>Node1&#45;&gt;Node12</title>
<g id="a_edge11_Node000001_Node000012"><a xlink:title=" ">
<path fill="none" stroke="#63b8ff" d="M3241.65,-139.87C2958.91,-137.31 1966.4,-126.3 1651.5,-96 1638.55,-94.75 1624.58,-92.71 1611.81,-90.56"/>
<polygon fill="#63b8ff" stroke="#63b8ff" points="3241.78,-143.37 3251.81,-139.96 3241.84,-136.37 3241.78,-143.37"/>
</a>
</g>
</g>
<!-- Node13 -->
<g id="Node000013" class="node">
<title>Node13</title>
<g id="a_Node000013"><a xlink:href="testEventLoop_8cc.html" target="_top" xlink:title=" ">
<polygon fill="white" stroke="#666666" points="1798,-96 1661,-96 1661,-66 1798,-66 1798,-96"/>
<text text-anchor="start" x="1669" y="-84" font-family="Helvetica,sans-Serif" font-size="10.00">squid/src/tests/testEvent</text>
<text text-anchor="middle" x="1729.5" y="-73" font-family="Helvetica,sans-Serif" font-size="10.00">Loop.cc</text>
</a>
</g>
</g>
<!-- Node1&#45;&gt;Node13 -->
<g id="edge12_Node000001_Node000013" class="edge">
<title>Node1&#45;&gt;Node13</title>
<g id="a_edge12_Node000001_Node000013"><a xlink:title=" ">
<path fill="none" stroke="#63b8ff" d="M3241.25,-139.77C2975.25,-137 2089.18,-125.69 1806.5,-96 1803.8,-95.72 1801.05,-95.39 1798.27,-95.03"/>
<polygon fill="#63b8ff" stroke="#63b8ff" points="3241.54,-143.28 3251.58,-139.88 3241.62,-136.28 3241.54,-143.28"/>
</a>
</g>
</g>
<!-- Node14 -->
<g id="Node000014" class="node">
<title>Node14</title>
<g id="a_Node000014"><a xlink:href="testHtmlQuote_8cc.html" target="_top" xlink:title=" ">
<polygon fill="white" stroke="#666666" points="1949,-96 1816,-96 1816,-66 1949,-66 1949,-96"/>
<text text-anchor="start" x="1824" y="-84" font-family="Helvetica,sans-Serif" font-size="10.00">squid/src/tests/testHtml</text>
<text text-anchor="middle" x="1882.5" y="-73" font-family="Helvetica,sans-Serif" font-size="10.00">Quote.cc</text>
</a>
</g>
</g>
<!-- Node1&#45;&gt;Node14 -->
<g id="edge13_Node000001_Node000014" class="edge">
<title>Node1&#45;&gt;Node14</title>
<g id="a_edge13_Node000001_Node000014"><a xlink:title=" ">
<path fill="none" stroke="#63b8ff" d="M3241.51,-139.51C2993.63,-136.04 2210.12,-123.14 1958.5,-96 1955.43,-95.67 1952.3,-95.28 1949.15,-94.86"/>
<polygon fill="#63b8ff" stroke="#63b8ff" points="3241.8,-143.01 3251.85,-139.65 3241.9,-136.01 3241.8,-143.01"/>
</a>
</g>
</g>
<!-- Node15 -->
<g id="Node000015" class="node">
<title>Node15</title>
<g id="a_Node000015"><a xlink:href="testHttp1Parser_8cc.html" target="_top" xlink:title=" ">
<polygon fill="white" stroke="#666666" points="2103.5,-96 1967.5,-96 1967.5,-66 2103.5,-66 2103.5,-96"/>
<text text-anchor="start" x="1975.5" y="-84" font-family="Helvetica,sans-Serif" font-size="10.00">squid/src/tests/testHttp1</text>
<text text-anchor="middle" x="2035.5" y="-73" font-family="Helvetica,sans-Serif" font-size="10.00">Parser.cc</text>
</a>
</g>
</g>
<!-- Node1&#45;&gt;Node15 -->
<g id="edge14_Node000001_Node000015" class="edge">
<title>Node1&#45;&gt;Node15</title>
<g id="a_edge14_Node000001_Node000015"><a xlink:title=" ">
<path fill="none" stroke="#63b8ff" d="M3241.67,-139.12C3013.08,-134.73 2332.84,-119.97 2112.5,-96 2109.66,-95.69 2106.77,-95.34 2103.86,-94.95"/>
<polygon fill="#63b8ff" stroke="#63b8ff" points="3241.83,-142.62 3251.89,-139.31 3241.96,-135.62 3241.83,-142.62"/>
</a>
</g>
</g>
<!-- Node16 -->
<g id="Node000016" class="node">
<title>Node16</title>
<g id="a_Node000016"><a xlink:href="testHttpRange_8cc.html" target="_top" xlink:title=" ">
<polygon fill="white" stroke="#666666" points="2251.5,-96 2121.5,-96 2121.5,-66 2251.5,-66 2251.5,-96"/>
<text text-anchor="start" x="2129.5" y="-84" font-family="Helvetica,sans-Serif" font-size="10.00">squid/src/tests/testHttp</text>
<text text-anchor="middle" x="2186.5" y="-73" font-family="Helvetica,sans-Serif" font-size="10.00">Range.cc</text>
</a>
</g>
</g>
<!-- Node1&#45;&gt;Node16 -->
<g id="edge15_Node000001_Node000016" class="edge">
<title>Node1&#45;&gt;Node16</title>
<g id="a_edge15_Node000001_Node000016"><a xlink:title=" ">
<path fill="none" stroke="#63b8ff" d="M3241.92,-141.07C3068.06,-141.55 2626.58,-138.11 2260.5,-96 2257.64,-95.67 2254.73,-95.3 2251.79,-94.88"/>
<polygon fill="#63b8ff" stroke="#63b8ff" points="3242,-144.57 3251.99,-141.03 3241.98,-137.57 3242,-144.57"/>
</a>
</g>
</g>
<!-- Node17 -->
<g id="Node000017" class="node">
<title>Node17</title>
<g id="a_Node000017"><a xlink:href="testHttpReply_8cc.html" target="_top" xlink:title=" ">
<polygon fill="white" stroke="#666666" points="2399.5,-96 2269.5,-96 2269.5,-66 2399.5,-66 2399.5,-96"/>
<text text-anchor="start" x="2277.5" y="-84" font-family="Helvetica,sans-Serif" font-size="10.00">squid/src/tests/testHttp</text>
<text text-anchor="middle" x="2334.5" y="-73" font-family="Helvetica,sans-Serif" font-size="10.00">Reply.cc</text>
</a>
</g>
</g>
<!-- Node1&#45;&gt;Node17 -->
<g id="edge16_Node000001_Node000017" class="edge">
<title>Node1&#45;&gt;Node17</title>
<g id="a_edge16_Node000001_Node000017"><a xlink:title=" ">
<path fill="none" stroke="#63b8ff" d="M3241.49,-140.32C3085.02,-139.16 2715.83,-132.42 2408.5,-96 2405.64,-95.66 2402.73,-95.28 2399.79,-94.86"/>
<polygon fill="#63b8ff" stroke="#63b8ff" points="3241.91,-143.82 3251.93,-140.39 3241.96,-136.82 3241.91,-143.82"/>
</a>
</g>
</g>
<!-- Node18 -->
<g id="Node000018" class="node">
<title>Node18</title>
<g id="a_Node000018"><a xlink:href="testHttpRequest_8cc.html" target="_top" xlink:title=" ">
<polygon fill="white" stroke="#666666" points="2547.5,-96 2417.5,-96 2417.5,-66 2547.5,-66 2547.5,-96"/>
<text text-anchor="start" x="2425.5" y="-84" font-family="Helvetica,sans-Serif" font-size="10.00">squid/src/tests/testHttp</text>
<text text-anchor="middle" x="2482.5" y="-73" font-family="Helvetica,sans-Serif" font-size="10.00">Request.cc</text>
</a>
</g>
</g>
<!-- Node1&#45;&gt;Node18 -->
<g id="edge17_Node000001_Node000018" class="edge">
<title>Node1&#45;&gt;Node18</title>
<g id="a_edge17_Node000001_Node000018"><a xlink:title=" ">
<path fill="none" stroke="#63b8ff" d="M3241.44,-139.28C3104.14,-136.37 2805.97,-126.76 2556.5,-96 2553.65,-95.65 2550.73,-95.25 2547.8,-94.83"/>
<polygon fill="#63b8ff" stroke="#63b8ff" points="3241.77,-142.79 3251.84,-139.5 3241.92,-135.79 3241.77,-142.79"/>
</a>
</g>
</g>
<!-- Node19 -->
<g id="Node000019" class="node">
<title>Node19</title>
<g id="a_Node000019"><a xlink:href="testHttpRequestMethod_8cc.html" target="_top" xlink:title=" ">
<polygon fill="white" stroke="#666666" points="2695.5,-96 2565.5,-96 2565.5,-66 2695.5,-66 2695.5,-96"/>
<text text-anchor="start" x="2573.5" y="-84" font-family="Helvetica,sans-Serif" font-size="10.00">squid/src/tests/testHttp</text>
<text text-anchor="middle" x="2630.5" y="-73" font-family="Helvetica,sans-Serif" font-size="10.00">RequestMethod.cc</text>
</a>
</g>
</g>
<!-- Node1&#45;&gt;Node19 -->
<g id="edge18_Node000001_Node000019" class="edge">
<title>Node1&#45;&gt;Node19</title>
<g id="a_edge18_Node000001_Node000019"><a xlink:title=" ">
<path fill="none" stroke="#63b8ff" d="M3241.73,-137.79C3125.68,-133.02 2897.08,-121.12 2704.5,-96 2701.65,-95.63 2698.74,-95.22 2695.8,-94.77"/>
<polygon fill="#63b8ff" stroke="#63b8ff" points="3241.8,-141.3 3251.93,-138.21 3242.08,-134.3 3241.8,-141.3"/>
</a>
</g>
</g>
<!-- Node20 -->
<g id="Node000020" class="node">
<title>Node20</title>
<g id="a_Node000020"><a xlink:href="testIcmp_8cc.html" target="_top" xlink:title=" ">
<polygon fill="white" stroke="#666666" points="2859.5,-90.5 2713.5,-90.5 2713.5,-71.5 2859.5,-71.5 2859.5,-90.5"/>
<text text-anchor="middle" x="2786.5" y="-78.5" font-family="Helvetica,sans-Serif" font-size="10.00">squid/src/tests/testIcmp.cc</text>
</a>
</g>
</g>
<!-- Node1&#45;&gt;Node20 -->
<g id="edge19_Node000001_Node000020" class="edge">
<title>Node1&#45;&gt;Node20</title>
<g id="a_edge19_Node000001_Node000020"><a xlink:title=" ">
<path fill="none" stroke="#63b8ff" d="M3241.85,-134.64C3152.45,-127.33 2999.31,-113.63 2868.5,-96 2857.05,-94.46 2844.75,-92.51 2833.25,-90.57"/>
<polygon fill="#63b8ff" stroke="#63b8ff" points="3241.65,-138.13 3251.9,-135.45 3242.21,-131.15 3241.65,-138.13"/>
</a>
</g>
</g>
<!-- Node21 -->
<g id="Node000021" class="node">
<title>Node21</title>
<g id="a_Node000021"><a xlink:href="testIoManip_8cc.html" target="_top" xlink:title=" ">
<polygon fill="white" stroke="#666666" points="3039,-90.5 2878,-90.5 2878,-71.5 3039,-71.5 3039,-90.5"/>
<text text-anchor="middle" x="2958.5" y="-78.5" font-family="Helvetica,sans-Serif" font-size="10.00">squid/src/tests/testIoManip.cc</text>
</a>
</g>
</g>
<!-- Node1&#45;&gt;Node21 -->
<g id="edge20_Node000001_Node000021" class="edge">
<title>Node1&#45;&gt;Node21</title>
<g id="a_edge20_Node000001_Node000021"><a xlink:title=" ">
<path fill="none" stroke="#63b8ff" d="M3255.41,-130.38C3186.25,-119.11 3075.67,-101.09 3010.76,-90.52"/>
<polygon fill="#63b8ff" stroke="#63b8ff" points="3254.87,-133.84 3265.3,-131.99 3255.99,-126.93 3254.87,-133.84"/>
</a>
</g>
</g>
<!-- Node22 -->
<g id="Node000022" class="node">
<title>Node22</title>
<g id="a_Node000022"><a xlink:href="testIpAddress_8cc.html" target="_top" xlink:title=" ">
<polygon fill="white" stroke="#666666" points="3227.5,-90.5 3057.5,-90.5 3057.5,-71.5 3227.5,-71.5 3227.5,-90.5"/>
<text text-anchor="middle" x="3142.5" y="-78.5" font-family="Helvetica,sans-Serif" font-size="10.00">squid/src/tests/testIpAddress.cc</text>
</a>
</g>
</g>
<!-- Node1&#45;&gt;Node22 -->
<g id="edge21_Node000001_Node000022" class="edge">
<title>Node1&#45;&gt;Node22</title>
<g id="a_edge21_Node000001_Node000022"><a xlink:title=" ">
<path fill="none" stroke="#63b8ff" d="M3282.55,-128.82C3248.7,-117.5 3198.19,-100.62 3167.98,-90.52"/>
<polygon fill="#63b8ff" stroke="#63b8ff" points="3281.46,-132.14 3292.05,-131.99 3283.68,-125.5 3281.46,-132.14"/>
</a>
</g>
</g>
<!-- Node23 -->
<g id="Node000023" class="node">
<title>Node23</title>
<g id="a_Node000023"><a xlink:href="testLookupTable_8cc.html" target="_top" xlink:title=" ">
<polygon fill="white" stroke="#666666" points="3389,-96 3246,-96 3246,-66 3389,-66 3389,-96"/>
<text text-anchor="start" x="3254" y="-84" font-family="Helvetica,sans-Serif" font-size="10.00">squid/src/tests/testLookup</text>
<text text-anchor="middle" x="3317.5" y="-73" font-family="Helvetica,sans-Serif" font-size="10.00">Table.cc</text>
</a>
</g>
</g>
<!-- Node1&#45;&gt;Node23 -->
<g id="edge22_Node000001_Node000023" class="edge">
<title>Node1&#45;&gt;Node23</title>
<g id="a_edge22_Node000001_Node000023"><a xlink:title=" ">
<path fill="none" stroke="#63b8ff" d="M3317.5,-121.65C3317.5,-113.36 3317.5,-103.78 3317.5,-96.11"/>
<polygon fill="#63b8ff" stroke="#63b8ff" points="3314,-121.87 3317.5,-131.87 3321,-121.87 3314,-121.87"/>
</a>
</g>
</g>
<!-- Node24 -->
<g id="Node000024" class="node">
<title>Node24</title>
<g id="a_Node000024"><a xlink:href="testMath_8cc.html" target="_top" xlink:title=" ">
<polygon fill="white" stroke="#666666" points="3554,-90.5 3407,-90.5 3407,-71.5 3554,-71.5 3554,-90.5"/>
<text text-anchor="middle" x="3480.5" y="-78.5" font-family="Helvetica,sans-Serif" font-size="10.00">squid/src/tests/testMath.cc</text>
</a>
</g>
</g>
<!-- Node1&#45;&gt;Node24 -->
<g id="edge23_Node000001_Node000024" class="edge">
<title>Node1&#45;&gt;Node24</title>
<g id="a_edge23_Node000001_Node000024"><a xlink:title=" ">
<path fill="none" stroke="#63b8ff" d="M3350.87,-128.52C3382.38,-117.21 3428.87,-100.53 3456.77,-90.52"/>
<polygon fill="#63b8ff" stroke="#63b8ff" points="3349.43,-125.32 3341.2,-131.99 3351.8,-131.91 3349.43,-125.32"/>
</a>
</g>
</g>
<!-- Node25 -->
<g id="Node000025" class="node">
<title>Node25</title>
<g id="a_Node000025"><a xlink:href="testMem_8cc.html" target="_top" xlink:title=" ">
<polygon fill="white" stroke="#666666" points="3719,-90.5 3572,-90.5 3572,-71.5 3719,-71.5 3719,-90.5"/>
<text text-anchor="middle" x="3645.5" y="-78.5" font-family="Helvetica,sans-Serif" font-size="10.00">squid/src/tests/testMem.cc</text>
</a>
</g>
</g>
<!-- Node1&#45;&gt;Node25 -->
<g id="edge24_Node000001_Node000025" class="edge">
<title>Node1&#45;&gt;Node25</title>
<g id="a_edge24_Node000001_Node000025"><a xlink:title=" ">
<path fill="none" stroke="#63b8ff" d="M3375.4,-130.17C3438.66,-118.89 3538.81,-101.03 3597.75,-90.52"/>
<polygon fill="#63b8ff" stroke="#63b8ff" points="3374.42,-126.79 3365.19,-131.99 3375.65,-133.68 3374.42,-126.79"/>
</a>
</g>
</g>
<!-- Node26 -->
<g id="Node000026" class="node">
<title>Node26</title>
<g id="a_Node000026"><a xlink:href="testNetDb_8cc.html" target="_top" xlink:title=" ">
<polygon fill="white" stroke="#666666" points="3890,-90.5 3737,-90.5 3737,-71.5 3890,-71.5 3890,-90.5"/>
<text text-anchor="middle" x="3813.5" y="-78.5" font-family="Helvetica,sans-Serif" font-size="10.00">squid/src/tests/testNetDb.cc</text>
</a>
</g>
</g>
<!-- Node1&#45;&gt;Node26 -->
<g id="edge25_Node000001_Node000026" class="edge">
<title>Node1&#45;&gt;Node26</title>
<g id="a_edge25_Node000001_Node000026"><a xlink:title=" ">
<path fill="none" stroke="#63b8ff" d="M3393.34,-133.49C3475.75,-125.59 3611.2,-111.77 3727.5,-96 3739.34,-94.39 3752.07,-92.45 3764,-90.52"/>
<polygon fill="#63b8ff" stroke="#63b8ff" points="3392.94,-130.01 3383.32,-134.45 3393.6,-136.98 3392.94,-130.01"/>
</a>
</g>
</g>
<!-- Node27 -->
<g id="Node000027" class="node">
<title>Node27</title>
<g id="a_Node000027"><a xlink:href="testPackableStream_8cc.html" target="_top" xlink:title=" ">
<polygon fill="white" stroke="#666666" points="4539.5,-30 4387.5,-30 4387.5,0 4539.5,0 4539.5,-30"/>
<text text-anchor="start" x="4395.5" y="-18" font-family="Helvetica,sans-Serif" font-size="10.00">squid/src/tests/testPackable</text>
<text text-anchor="middle" x="4463.5" y="-7" font-family="Helvetica,sans-Serif" font-size="10.00">Stream.cc</text>
</a>
</g>
</g>
<!-- Node1&#45;&gt;Node27 -->
<g id="edge26_Node000001_Node000027" class="edge">
<title>Node1&#45;&gt;Node27</title>
<g id="a_edge26_Node000001_Node000027"><a xlink:title=" ">
<path fill="none" stroke="#63b8ff" d="M3393.35,-140.04C3529.2,-138.33 3808.28,-130.59 3898.5,-96 3918.92,-88.17 3917.15,-74.01 3937.5,-66 4017.41,-34.52 4261.84,-22.34 4387.36,-18.07"/>
<polygon fill="#63b8ff" stroke="#63b8ff" points="3392.99,-136.54 3383.03,-140.16 3393.07,-143.54 3392.99,-136.54"/>
</a>
</g>
</g>
<!-- Node28 -->
<g id="Node000028" class="node">
<title>Node28</title>
<g id="a_Node000028"><a xlink:href="testRFC1035_8cc.html" target="_top" xlink:title=" ">
<polygon fill="white" stroke="#666666" points="4112.5,-90.5 3946.5,-90.5 3946.5,-71.5 4112.5,-71.5 4112.5,-90.5"/>
<text text-anchor="middle" x="4029.5" y="-78.5" font-family="Helvetica,sans-Serif" font-size="10.00">squid/src/tests/testRFC1035.cc</text>
</a>
</g>
</g>
<!-- Node1&#45;&gt;Node28 -->
<g id="edge27_Node000001_Node000028" class="edge">
<title>Node1&#45;&gt;Node28</title>
<g id="a_edge27_Node000001_Node000028"><a xlink:title=" ">
<path fill="none" stroke="#63b8ff" d="M3393.39,-136.75C3509.66,-130.61 3738.79,-116.96 3932.5,-96 3946.37,-94.5 3961.31,-92.52 3975.21,-90.53"/>
<polygon fill="#63b8ff" stroke="#63b8ff" points="3392.97,-133.27 3383.17,-137.28 3393.34,-140.26 3392.97,-133.27"/>
</a>
</g>
</g>
<!-- Node29 -->
<g id="Node000029" class="node">
<title>Node29</title>
<g id="a_Node000029"><a xlink:href="testRandomUuid_8cc.html" target="_top" xlink:title=" ">
<polygon fill="white" stroke="#666666" points="4280,-96 4131,-96 4131,-66 4280,-66 4280,-96"/>
<text text-anchor="start" x="4139" y="-84" font-family="Helvetica,sans-Serif" font-size="10.00">squid/src/tests/testRandom</text>
<text text-anchor="middle" x="4205.5" y="-73" font-family="Helvetica,sans-Serif" font-size="10.00">Uuid.cc</text>
</a>
</g>
</g>
<!-- Node1&#45;&gt;Node29 -->
<g id="edge28_Node000001_Node000029" class="edge">
<title>Node1&#45;&gt;Node29</title>
<g id="a_edge28_Node000001_Node000029"><a xlink:title=" ">
<path fill="none" stroke="#63b8ff" d="M3393.5,-139.07C3536.44,-135.77 3854.96,-125.5 4121.5,-96 4124.59,-95.66 4127.73,-95.28 4130.9,-94.87"/>
<polygon fill="#63b8ff" stroke="#63b8ff" points="3393.02,-135.58 3383.1,-139.31 3393.17,-142.58 3393.02,-135.58"/>
</a>
</g>
</g>
<!-- Node30 -->
<g id="Node000030" class="node">
<title>Node30</title>
<g id="a_Node000030"><a xlink:href="testRefCount_8cc.html" target="_top" xlink:title=" ">
<polygon fill="white" stroke="#666666" points="4465,-90.5 4298,-90.5 4298,-71.5 4465,-71.5 4465,-90.5"/>
<text text-anchor="middle" x="4381.5" y="-78.5" font-family="Helvetica,sans-Serif" font-size="10.00">squid/src/tests/testRefCount.cc</text>
</a>
</g>
</g>
<!-- Node1&#45;&gt;Node30 -->
<g id="edge29_Node000001_Node000030" class="edge">
<title>Node1&#45;&gt;Node30</title>
<g id="a_edge29_Node000001_Node000030"><a xlink:title=" ">
<path fill="none" stroke="#63b8ff" d="M3393.47,-139.69C3557.34,-137.37 3956.12,-128.55 4288.5,-96 4302.48,-94.63 4317.56,-92.6 4331.42,-90.51"/>
<polygon fill="#63b8ff" stroke="#63b8ff" points="3392.97,-136.2 3383.02,-139.84 3393.07,-143.2 3392.97,-136.2"/>
</a>
</g>
</g>
<!-- Node31 -->
<g id="Node000031" class="node">
<title>Node31</title>
<g id="a_Node000031"><a xlink:href="testRock_8cc.html" target="_top" xlink:title=" ">
<polygon fill="white" stroke="#666666" points="4629.5,-90.5 4483.5,-90.5 4483.5,-71.5 4629.5,-71.5 4629.5,-90.5"/>
<text text-anchor="middle" x="4556.5" y="-78.5" font-family="Helvetica,sans-Serif" font-size="10.00">squid/src/tests/testRock.cc</text>
</a>
</g>
</g>
<!-- Node1&#45;&gt;Node31 -->
<g id="edge30_Node000001_Node000031" class="edge">
<title>Node1&#45;&gt;Node31</title>
<g id="a_edge30_Node000001_Node000031"><a xlink:title=" ">
<path fill="none" stroke="#63b8ff" d="M3393.38,-140.95C3578.5,-141.3 4067.87,-137.84 4473.5,-96 4486.15,-94.7 4499.78,-92.66 4512.28,-90.54"/>
<polygon fill="#63b8ff" stroke="#63b8ff" points="3393.22,-137.45 3383.21,-140.92 3393.2,-144.45 3393.22,-137.45"/>
</a>
</g>
</g>
<!-- Node32 -->
<g id="Node000032" class="node">
<title>Node32</title>
<g id="a_Node000032"><a xlink:href="testSBuf_8cc.html" target="_top" xlink:title=" ">
<polygon fill="white" stroke="#666666" points="4791.5,-90.5 4647.5,-90.5 4647.5,-71.5 4791.5,-71.5 4791.5,-90.5"/>
<text text-anchor="middle" x="4719.5" y="-78.5" font-family="Helvetica,sans-Serif" font-size="10.00">squid/src/tests/testSBuf.cc</text>
</a>
</g>
</g>
<!-- Node1&#45;&gt;Node32 -->
<g id="edge31_Node000001_Node000032" class="edge">
<title>Node1&#45;&gt;Node32</title>
<g id="a_edge31_Node000001_Node000032"><a xlink:title=" ">
<path fill="none" stroke="#63b8ff" d="M3393.45,-139.32C3636.64,-135.31 4394.48,-121.08 4638.5,-96 4650.99,-94.72 4664.47,-92.66 4676.77,-90.52"/>
<polygon fill="#63b8ff" stroke="#63b8ff" points="3393.23,-135.82 3383.29,-139.48 3393.35,-142.82 3393.23,-135.82"/>
</a>
</g>
</g>
<!-- Node33 -->
<g id="Node000033" class="node">
<title>Node33</title>
<g id="a_Node000033"><a xlink:href="testSBufList_8cc.html" target="_top" xlink:title=" ">
<polygon fill="white" stroke="#666666" points="4941,-96 4810,-96 4810,-66 4941,-66 4941,-96"/>
<text text-anchor="start" x="4818" y="-84" font-family="Helvetica,sans-Serif" font-size="10.00">squid/src/tests/testSBuf</text>
<text text-anchor="middle" x="4875.5" y="-73" font-family="Helvetica,sans-Serif" font-size="10.00">List.cc</text>
</a>
</g>
</g>
<!-- Node1&#45;&gt;Node33 -->
<g id="edge32_Node000001_Node000033" class="edge">
<title>Node1&#45;&gt;Node33</title>
<g id="a_edge32_Node000001_Node000033"><a xlink:title=" ">
<path fill="none" stroke="#63b8ff" d="M3393.23,-139.78C3655.41,-137.02 4523.45,-125.83 4800.5,-96 4803.53,-95.67 4806.62,-95.29 4809.73,-94.87"/>
<polygon fill="#63b8ff" stroke="#63b8ff" points="3393.02,-136.28 3383.05,-139.88 3393.09,-143.28 3393.02,-136.28"/>
</a>
</g>
</g>
<!-- Node34 -->
<g id="Node000034" class="node">
<title>Node34</title>
<g id="a_Node000034"><a xlink:href="testStatHist_8cc.html" target="_top" xlink:title=" ">
<polygon fill="white" stroke="#666666" points="5087.5,-96 4959.5,-96 4959.5,-66 5087.5,-66 5087.5,-96"/>
<text text-anchor="start" x="4967.5" y="-84" font-family="Helvetica,sans-Serif" font-size="10.00">squid/src/tests/testStat</text>
<text text-anchor="middle" x="5023.5" y="-73" font-family="Helvetica,sans-Serif" font-size="10.00">Hist.cc</text>
</a>
</g>
</g>
<!-- Node1&#45;&gt;Node34 -->
<g id="edge33_Node000001_Node000034" class="edge">
<title>Node1&#45;&gt;Node34</title>
<g id="a_edge33_Node000001_Node000034"><a xlink:title=" ">
<path fill="none" stroke="#63b8ff" d="M3393.23,-140.04C3672.16,-138.1 4641.9,-129.08 4949.5,-96 4952.75,-95.65 4956.07,-95.24 4959.42,-94.77"/>
<polygon fill="#63b8ff" stroke="#63b8ff" points="3393.19,-136.54 3383.21,-140.11 3393.24,-143.54 3393.19,-136.54"/>
</a>
</g>
</g>
<!-- Node35 -->
<g id="Node000035" class="node">
<title>Node35</title>
<g id="a_Node000035"><a xlink:href="testStore_8h.html" target="_top" xlink:title=" ">
<polygon fill="white" stroke="#666666" points="5249,-90.5 5106,-90.5 5106,-71.5 5249,-71.5 5249,-90.5"/>
<text text-anchor="middle" x="5177.5" y="-78.5" font-family="Helvetica,sans-Serif" font-size="10.00">squid/src/tests/testStore.h</text>
</a>
</g>
</g>
<!-- Node1&#45;&gt;Node35 -->
<g id="edge34_Node000001_Node000035" class="edge">
<title>Node1&#45;&gt;Node35</title>
<g id="a_edge34_Node000001_Node000035"><a xlink:title=" ">
<path fill="none" stroke="#63b8ff" d="M3393.51,-140.08C3688.59,-138.22 4758.45,-129.26 5096.5,-96 5109.14,-94.76 5122.78,-92.69 5135.2,-90.51"/>
<polygon fill="#63b8ff" stroke="#63b8ff" points="3393.32,-136.58 3383.35,-140.14 3393.37,-143.58 3393.32,-136.58"/>
</a>
</g>
</g>
<!-- Node37 -->
<g id="Node000037" class="node">
<title>Node37</title>
<g id="a_Node000037"><a xlink:href="testStoreController_8cc.html" target="_top" xlink:title=" ">
<polygon fill="white" stroke="#666666" points="5401.5,-96 5267.5,-96 5267.5,-66 5401.5,-66 5401.5,-96"/>
<text text-anchor="start" x="5275.5" y="-84" font-family="Helvetica,sans-Serif" font-size="10.00">squid/src/tests/testStore</text>
<text text-anchor="middle" x="5334.5" y="-73" font-family="Helvetica,sans-Serif" font-size="10.00">Controller.cc</text>
</a>
</g>
</g>
<!-- Node1&#45;&gt;Node37 -->
<g id="edge37_Node000001_Node000037" class="edge">
<title>Node1&#45;&gt;Node37</title>
<g id="a_edge37_Node000001_Node000037"><a xlink:title=" ">
<path fill="none" stroke="#63b8ff" d="M3393.59,-140.38C3705.49,-139.61 4887.18,-134.21 5258.5,-96 5261.44,-95.7 5264.43,-95.34 5267.45,-94.95"/>
<polygon fill="#63b8ff" stroke="#63b8ff" points="3393.29,-136.88 3383.3,-140.4 3393.31,-143.88 3393.29,-136.88"/>
</a>
</g>
</g>
<!-- Node38 -->
<g id="Node000038" class="node">
<title>Node38</title>
<g id="a_Node000038"><a xlink:href="testStoreHashIndex_8cc.html" target="_top" xlink:title=" ">
<polygon fill="white" stroke="#666666" points="5553.5,-96 5419.5,-96 5419.5,-66 5553.5,-66 5553.5,-96"/>
<text text-anchor="start" x="5427.5" y="-84" font-family="Helvetica,sans-Serif" font-size="10.00">squid/src/tests/testStore</text>
<text text-anchor="middle" x="5486.5" y="-73" font-family="Helvetica,sans-Serif" font-size="10.00">HashIndex.cc</text>
</a>
</g>
</g>
<!-- Node1&#45;&gt;Node38 -->
<g id="edge38_Node000001_Node000038" class="edge">
<title>Node1&#45;&gt;Node38</title>
<g id="a_edge38_Node000001_Node000038"><a xlink:title=" ">
<path fill="none" stroke="#63b8ff" d="M3393.52,-140.52C3720.35,-140.37 5007.65,-137.12 5410.5,-96 5413.44,-95.7 5416.43,-95.35 5419.45,-94.96"/>
<polygon fill="#63b8ff" stroke="#63b8ff" points="3393.21,-137.02 3383.21,-140.53 3393.21,-144.02 3393.21,-137.02"/>
</a>
</g>
</g>
<!-- Node39 -->
<g id="Node000039" class="node">
<title>Node39</title>
<g id="a_Node000039"><a xlink:href="testString_8cc.html" target="_top" xlink:title=" ">
<polygon fill="white" stroke="#666666" points="5723,-90.5 5572,-90.5 5572,-71.5 5723,-71.5 5723,-90.5"/>
<text text-anchor="middle" x="5647.5" y="-78.5" font-family="Helvetica,sans-Serif" font-size="10.00">squid/src/tests/testString.cc</text>
</a>
</g>
</g>
<!-- Node1&#45;&gt;Node39 -->
<g id="edge39_Node000001_Node000039" class="edge">
<title>Node1&#45;&gt;Node39</title>
<g id="a_edge39_Node000001_Node000039"><a xlink:title=" ">
<path fill="none" stroke="#63b8ff" d="M3393.09,-140.46C3733.62,-140.05 5127.5,-135.93 5562.5,-96 5575.75,-94.78 5590.07,-92.72 5603.1,-90.55"/>
<polygon fill="#63b8ff" stroke="#63b8ff" points="3393.08,-136.96 3383.08,-140.47 3393.09,-143.96 3393.08,-136.96"/>
</a>
</g>
</g>
<!-- Node40 -->
<g id="Node000040" class="node">
<title>Node40</title>
<g id="a_Node000040"><a xlink:href="testTokenizer_8cc.html" target="_top" xlink:title=" ">
<polygon fill="white" stroke="#666666" points="5908,-90.5 5741,-90.5 5741,-71.5 5908,-71.5 5908,-90.5"/>
<text text-anchor="middle" x="5824.5" y="-78.5" font-family="Helvetica,sans-Serif" font-size="10.00">squid/src/tests/testTokenizer.cc</text>
</a>
</g>
</g>
<!-- Node1&#45;&gt;Node40 -->
<g id="edge40_Node000001_Node000040" class="edge">
<title>Node1&#45;&gt;Node40</title>
<g id="a_edge40_Node000001_Node000040"><a xlink:title=" ">
<path fill="none" stroke="#63b8ff" d="M3393.45,-140.46C3750.22,-140.05 5261.98,-135.96 5732.5,-96 5746.83,-94.78 5762.31,-92.72 5776.42,-90.55"/>
<polygon fill="#63b8ff" stroke="#63b8ff" points="3393.23,-136.96 3383.24,-140.47 3393.24,-143.96 3393.23,-136.96"/>
</a>
</g>
</g>
<!-- Node41 -->
<g id="Node000041" class="node">
<title>Node41</title>
<g id="a_Node000041"><a xlink:href="testURL_8cc.html" target="_top" xlink:title=" ">
<polygon fill="white" stroke="#666666" points="6068.5,-90.5 5926.5,-90.5 5926.5,-71.5 6068.5,-71.5 6068.5,-90.5"/>
<text text-anchor="middle" x="5997.5" y="-78.5" font-family="Helvetica,sans-Serif" font-size="10.00">squid/src/tests/testURL.cc</text>
</a>
</g>
</g>
<!-- Node1&#45;&gt;Node41 -->
<g id="edge41_Node000001_Node000041" class="edge">
<title>Node1&#45;&gt;Node41</title>
<g id="a_edge41_Node000001_Node000041"><a xlink:title=" ">
<path fill="none" stroke="#63b8ff" d="M3393.44,-140.8C3766.63,-142.04 5408.81,-144.56 5917.5,-96 5930.13,-94.79 5943.77,-92.71 5956.15,-90.5"/>
<polygon fill="#63b8ff" stroke="#63b8ff" points="3393.3,-137.3 3383.29,-140.77 3393.28,-144.3 3393.3,-137.3"/>
</a>
</g>
</g>
<!-- Node42 -->
<g id="Node000042" class="node">
<title>Node42</title>
<g id="a_Node000042"><a xlink:href="testUfs_8cc.html" target="_top" xlink:title=" ">
<polygon fill="white" stroke="#666666" points="6226,-90.5 6087,-90.5 6087,-71.5 6226,-71.5 6226,-90.5"/>
<text text-anchor="middle" x="6156.5" y="-78.5" font-family="Helvetica,sans-Serif" font-size="10.00">squid/src/tests/testUfs.cc</text>
</a>
</g>
</g>
<!-- Node1&#45;&gt;Node42 -->
<g id="edge42_Node000001_Node000042" class="edge">
<title>Node1&#45;&gt;Node42</title>
<g id="a_edge42_Node000001_Node000042"><a xlink:title=" ">
<path fill="none" stroke="#63b8ff" d="M3393.23,-140C3808.86,-137.16 5804.23,-122.25 6077.5,-96 6089.98,-94.8 6103.45,-92.72 6115.67,-90.51"/>
<polygon fill="#63b8ff" stroke="#63b8ff" points="3393.1,-136.5 3383.12,-140.07 3393.15,-143.5 3393.1,-136.5"/>
</a>
</g>
</g>
<!-- Node43 -->
<g id="Node000043" class="node">
<title>Node43</title>
<g id="a_Node000043"><a xlink:href="testUriScheme_8cc.html" target="_top" xlink:title=" ">
<polygon fill="white" stroke="#666666" points="6420.5,-90.5 6244.5,-90.5 6244.5,-71.5 6420.5,-71.5 6420.5,-90.5"/>
<text text-anchor="middle" x="6332.5" y="-78.5" font-family="Helvetica,sans-Serif" font-size="10.00">squid/src/tests/testUriScheme.cc</text>
</a>
</g>
</g>
<!-- Node1&#45;&gt;Node43 -->
<g id="edge43_Node000001_Node000043" class="edge">
<title>Node1&#45;&gt;Node43</title>
<g id="a_edge43_Node000001_Node000043"><a xlink:title=" ">
<path fill="none" stroke="#63b8ff" d="M3393.38,-140.66C3793.28,-141.31 5659.47,-141.77 6235.5,-96 6250.68,-94.79 6267.1,-92.72 6282.04,-90.53"/>
<polygon fill="#63b8ff" stroke="#63b8ff" points="3393.1,-137.16 3383.09,-140.64 3393.09,-144.16 3393.1,-137.16"/>
</a>
</g>
</g>
<!-- Node44 -->
<g id="Node000044" class="node">
<title>Node44</title>
<g id="a_Node000044"><a xlink:href="testYesNoNone_8cc.html" target="_top" xlink:title=" ">
<polygon fill="white" stroke="#666666" points="6576.5,-96 6438.5,-96 6438.5,-66 6576.5,-66 6576.5,-96"/>
<text text-anchor="start" x="6446.5" y="-84" font-family="Helvetica,sans-Serif" font-size="10.00">squid/src/tests/testYesNo</text>
<text text-anchor="middle" x="6507.5" y="-73" font-family="Helvetica,sans-Serif" font-size="10.00">None.cc</text>
</a>
</g>
</g>
<!-- Node1&#45;&gt;Node44 -->
<g id="edge44_Node000001_Node000044" class="edge">
<title>Node1&#45;&gt;Node44</title>
<g id="a_edge44_Node000001_Node000044"><a xlink:title=" ">
<path fill="none" stroke="#63b8ff" d="M3393.32,-140.16C3840,-138.04 6119.23,-125.86 6429.5,-96 6432.38,-95.72 6435.3,-95.4 6438.26,-95.03"/>
<polygon fill="#63b8ff" stroke="#63b8ff" points="3393.1,-136.66 3383.11,-140.21 3393.13,-143.66 3393.1,-136.66"/>
</a>
</g>
</g>
<!-- Node4 -->
<g id="Node000004" class="node">
<title>Node4</title>
<g id="a_Node000004"><a xlink:href="testAuth_8cc.html" target="_top" xlink:title=" ">
<polygon fill="white" stroke="#666666" points="310,-24.5 165,-24.5 165,-5.5 310,-5.5 310,-24.5"/>
<text text-anchor="middle" x="237.5" y="-12.5" font-family="Helvetica,sans-Serif" font-size="10.00">squid/src/tests/testAuth.cc</text>
</a>
</g>
</g>
<!-- Node3&#45;&gt;Node4 -->
<g id="edge3_Node000003_Node000004" class="edge">
<title>Node3&#45;&gt;Node4</title>
<g id="a_edge3_Node000003_Node000004"><a xlink:title=" ">
<path fill="none" stroke="#63b8ff" d="M237.5,-61.08C237.5,-49.13 237.5,-34.22 237.5,-24.91"/>
<polygon fill="#63b8ff" stroke="#63b8ff" points="234,-61.37 237.5,-71.37 241,-61.37 234,-61.37"/>
</a>
</g>
</g>
<!-- Node35&#45;&gt;Node27 -->
<g id="edge35_Node000035_Node000027" class="edge">
<title>Node35&#45;&gt;Node27</title>
<g id="a_edge35_Node000035_Node000027"><a xlink:title=" ">
<path fill="none" stroke="#63b8ff" d="M5122.55,-69.8C5113.86,-68.39 5104.95,-67.06 5096.5,-66 4896.34,-40.85 4658.88,-26.11 4539.73,-19.74"/>
<polygon fill="#63b8ff" stroke="#63b8ff" points="5122.18,-73.29 5132.62,-71.48 5123.34,-66.38 5122.18,-73.29"/>
</a>
</g>
</g>
<!-- Node36 -->
<g id="Node000036" class="node">
<title>Node36</title>
<g id="a_Node000036"><a xlink:href="testStore_8cc.html" target="_top" xlink:title=" ">
<polygon fill="white" stroke="#666666" points="5251.5,-24.5 5103.5,-24.5 5103.5,-5.5 5251.5,-5.5 5251.5,-24.5"/>
<text text-anchor="middle" x="5177.5" y="-12.5" font-family="Helvetica,sans-Serif" font-size="10.00">squid/src/tests/testStore.cc</text>
</a>
</g>
</g>
<!-- Node35&#45;&gt;Node36 -->
<g id="edge36_Node000035_Node000036" class="edge">
<title>Node35&#45;&gt;Node36</title>
<g id="a_edge36_Node000035_Node000036"><a xlink:title=" ">
<path fill="none" stroke="#63b8ff" d="M5177.5,-61.08C5177.5,-49.13 5177.5,-34.22 5177.5,-24.91"/>
<polygon fill="#63b8ff" stroke="#63b8ff" points="5174,-61.37 5177.5,-71.37 5181,-61.37 5174,-61.37"/>
</a>
</g>
</g>
</g>
</svg>
