<?xml version="1.0" encoding="UTF-8" standalone="no"?>
<!DOCTYPE svg PUBLIC "-//W3C//DTD SVG 1.1//EN"
 "http://www.w3.org/Graphics/SVG/1.1/DTD/svg11.dtd">
<!-- Generated by graphviz version 2.43.0 (0)
 -->
<!-- Title: squid/src/ssl/crtd_message.cc Pages: 1 -->
<!--zoomable 368 -->

<svg id="main" version="1.1" xmlns="http://www.w3.org/2000/svg" xmlns:xlink="http://www.w3.org/1999/xlink" xml:space="preserve" onload="init(evt)">
<style type="text/css"><![CDATA[
.node, .edge {opacity: 0.7;}
.node.selected, .edge.selected {opacity: 1;}
.edge:hover path { stroke: red; }
.edge:hover polygon { stroke: red; fill: red; }
]]></style>

<defs>
  <circle id="rim" cx="0" cy="0" r="7"/>
  <circle id="rim2" cx="0" cy="0" r="3.5"/>
  <g id="zoomPlus">
    <use xlink:href="#rim" fill="#404040"><set attributeName="fill" to="#808080" begin="zoomplus.mouseover" end="zoomplus.mouseout"/></use>
    <path d="M-4,0h8M0,-4v8" fill="none" stroke="white" stroke-width="1.5" pointer-events="none"/>
  </g>
  <g id="zoomMin">
    <use xlink:href="#rim" fill="#404040"><set attributeName="fill" to="#808080" begin="zoomminus.mouseover" end="zoomminus.mouseout"/></use>
    <path d="M-4,0h8" fill="none" stroke="white" stroke-width="1.5" pointer-events="none"/>
  </g>
  <g id="arrowUp" transform="translate(30 24)">
    <use xlink:href="#rim"/>
    <path pointer-events="none" fill="none" stroke="white" stroke-width="1.5" d="M0,-3.0v7 M-2.5,-0.5L0,-3.0L2.5,-0.5"/>
  </g>
  <g id="arrowRight" transform="rotate(90) translate(36 -43)">
    <use xlink:href="#rim"/>
    <path pointer-events="none" fill="none" stroke="white" stroke-width="1.5" d="M0,-3.0v7 M-2.5,-0.5L0,-3.0L2.5,-0.5"/>
  </g>
  <g id="arrowDown" transform="rotate(180) translate(-30 -48)">
    <use xlink:href="#rim"/>
    <path pointer-events="none" fill="none" stroke="white" stroke-width="1.5" d="M0,-3.0v7 M-2.5,-0.5L0,-3.0L2.5,-0.5"/>
  </g>
  <g id="arrowLeft" transform="rotate(270) translate(-36 17)">
    <use xlink:href="#rim"/>
    <path pointer-events="none" fill="none" stroke="white" stroke-width="1.5" d="M0,-3.0v7 M-2.5,-0.5L0,-3.0L2.5,-0.5"/>
  </g>
  <g id="resetDef">
    <use xlink:href="#rim2" fill="#404040"><set attributeName="fill" to="#808080" begin="reset.mouseover" end="reset.mouseout"/></use>
  </g>
</defs>
<script type="application/ecmascript">
var viewWidth = 4241;
var viewHeight = 368;
var sectionId = 'dynsection-0';
</script>
<script type="application/ecmascript" xlink:href="svg.min.js"/>
<svg id="graph" class="graph">
<g id="viewport">
<title>squid/src/ssl/crtd_message.cc</title>
<!-- Node1 -->
<g id="Node000001" class="node">
<title>Node1</title>
<g id="a_Node000001"><a xlink:title=" ">
<polygon fill="#999999" stroke="#666666" points="3646.5,-360 3548.5,-360 3548.5,-330 3646.5,-330 3646.5,-360"/>
<text text-anchor="start" x="3556.5" y="-348" font-family="Helvetica,sans-Serif" font-size="10.00">squid/src/ssl/crtd</text>
<text text-anchor="middle" x="3597.5" y="-337" font-family="Helvetica,sans-Serif" font-size="10.00">_message.cc</text>
</a>
</g>
</g>
<!-- Node2 -->
<g id="Node000002" class="node">
<title>Node2</title>
<g id="a_Node000002"><a xlink:href="squid_8h.html" target="_top" xlink:title=" ">
<polygon fill="white" stroke="#666666" points="1571.5,-294 1519.5,-294 1519.5,-275 1571.5,-275 1571.5,-294"/>
<text text-anchor="middle" x="1545.5" y="-282" font-family="Helvetica,sans-Serif" font-size="10.00">squid.h</text>
</a>
</g>
</g>
<!-- Node1&#45;&gt;Node2 -->
<g id="edge1_Node000001_Node000002" class="edge">
<title>Node1&#45;&gt;Node2</title>
<g id="a_edge1_Node000001_Node000002"><a xlink:title=" ">
<path fill="none" stroke="#63b8ff" d="M3548.3,-342.6C3263.33,-334.47 1828.68,-293.57 1581.72,-286.53"/>
<polygon fill="#63b8ff" stroke="#63b8ff" points="1581.6,-283.03 1571.5,-286.24 1581.4,-290.02 1581.6,-283.03"/>
</a>
</g>
</g>
<!-- Node44 -->
<g id="Node000044" class="node">
<title>Node44</title>
<g id="a_Node000044"><a xlink:href="TextException_8h.html" target="_top" xlink:title=" ">
<polygon fill="white" stroke="#666666" points="3298.5,-184 3178.5,-184 3178.5,-165 3298.5,-165 3298.5,-184"/>
<text text-anchor="middle" x="3238.5" y="-172" font-family="Helvetica,sans-Serif" font-size="10.00">base/TextException.h</text>
</a>
</g>
</g>
<!-- Node1&#45;&gt;Node44 -->
<g id="edge30_Node000001_Node000044" class="edge">
<title>Node1&#45;&gt;Node44</title>
<g id="a_edge30_Node000001_Node000044"><a xlink:title=" ">
<path fill="none" stroke="#63b8ff" d="M3548.45,-340.21C3477.41,-333.92 3350.25,-319.45 3312.5,-294 3276.09,-269.45 3254.16,-220.35 3244.45,-193.71"/>
<polygon fill="#63b8ff" stroke="#63b8ff" points="3247.7,-192.4 3241.12,-184.1 3241.09,-194.69 3247.7,-192.4"/>
</a>
</g>
</g>
<!-- Node48 -->
<g id="Node000048" class="node">
<title>Node48</title>
<g id="a_Node000048"><a xlink:title=" ">
<polygon fill="#e0e0e0" stroke="#999999" points="3362,-129 3297,-129 3297,-110 3362,-110 3362,-129"/>
<text text-anchor="middle" x="3329.5" y="-117" font-family="Helvetica,sans-Serif" font-size="10.00">stdexcept</text>
</a>
</g>
</g>
<!-- Node1&#45;&gt;Node48 -->
<g id="edge57_Node000001_Node000048" class="edge">
<title>Node1&#45;&gt;Node48</title>
<g id="a_edge57_Node000001_Node000048"><a xlink:title=" ">
<path fill="none" stroke="#63b8ff" d="M3548.27,-338.71C3489.4,-329.52 3392.87,-304.76 3345.5,-239 3324.14,-209.35 3324.59,-164.44 3326.96,-139.28"/>
<polygon fill="#63b8ff" stroke="#63b8ff" points="3330.45,-139.57 3328.11,-129.24 3323.49,-138.77 3330.45,-139.57"/>
</a>
</g>
</g>
<!-- Node49 -->
<g id="Node000049" class="node">
<title>Node49</title>
<g id="a_Node000049"><a xlink:href="sbuf_2Stream_8h.html" target="_top" xlink:title=" ">
<polygon fill="white" stroke="#666666" points="3552,-294 3467,-294 3467,-275 3552,-275 3552,-294"/>
<text text-anchor="middle" x="3509.5" y="-282" font-family="Helvetica,sans-Serif" font-size="10.00">sbuf/Stream.h</text>
</a>
</g>
</g>
<!-- Node1&#45;&gt;Node49 -->
<g id="edge36_Node000001_Node000049" class="edge">
<title>Node1&#45;&gt;Node49</title>
<g id="a_edge36_Node000001_Node000049"><a xlink:title=" ">
<path fill="none" stroke="#63b8ff" d="M3576.2,-329.84C3562.43,-320.68 3544.57,-308.82 3530.8,-299.66"/>
<polygon fill="#63b8ff" stroke="#63b8ff" points="3532.69,-296.72 3522.43,-294.09 3528.82,-302.55 3532.69,-296.72"/>
</a>
</g>
</g>
<!-- Node83 -->
<g id="Node000083" class="node">
<title>Node83</title>
<g id="a_Node000083"><a xlink:href="crtd__message_8h.html" target="_top" xlink:title=" ">
<polygon fill="white" stroke="#666666" points="3740.5,-239 3630.5,-239 3630.5,-220 3740.5,-220 3740.5,-239"/>
<text text-anchor="middle" x="3685.5" y="-227" font-family="Helvetica,sans-Serif" font-size="10.00">ssl/crtd_message.h</text>
</a>
</g>
</g>
<!-- Node1&#45;&gt;Node83 -->
<g id="edge42_Node000001_Node000083" class="edge">
<title>Node1&#45;&gt;Node83</title>
<g id="a_edge42_Node000001_Node000083"><a xlink:title=" ">
<path fill="none" stroke="#63b8ff" d="M3608.65,-329.63C3624.9,-308.65 3655.07,-269.75 3672.38,-247.42"/>
<polygon fill="#63b8ff" stroke="#63b8ff" points="3675.37,-249.28 3678.73,-239.23 3669.84,-244.99 3675.37,-249.28"/>
</a>
</g>
</g>
<!-- Node86 -->
<g id="Node000086" class="node">
<title>Node86</title>
<g id="a_Node000086"><a xlink:href="ssl_2gadgets_8h.html" target="_top" xlink:title=" ">
<polygon fill="white" stroke="#666666" points="3845,-294 3764,-294 3764,-275 3845,-275 3845,-294"/>
<text text-anchor="middle" x="3804.5" y="-282" font-family="Helvetica,sans-Serif" font-size="10.00">ssl/gadgets.h</text>
</a>
</g>
</g>
<!-- Node1&#45;&gt;Node86 -->
<g id="edge45_Node000001_Node000086" class="edge">
<title>Node1&#45;&gt;Node86</title>
<g id="a_edge45_Node000001_Node000086"><a xlink:title=" ">
<path fill="none" stroke="#63b8ff" d="M3646.56,-330.14C3682.53,-319.97 3730.76,-306.34 3764.43,-296.82"/>
<polygon fill="#63b8ff" stroke="#63b8ff" points="3765.71,-300.1 3774.38,-294.01 3763.8,-293.36 3765.71,-300.1"/>
</a>
</g>
</g>
<!-- Node102 -->
<g id="Node000102" class="node">
<title>Node102</title>
<g id="a_Node000102"><a xlink:title=" ">
<polygon fill="#e0e0e0" stroke="#999999" points="3912,-294 3863,-294 3863,-275 3912,-275 3912,-294"/>
<text text-anchor="middle" x="3887.5" y="-282" font-family="Helvetica,sans-Serif" font-size="10.00">cstdlib</text>
</a>
</g>
</g>
<!-- Node1&#45;&gt;Node102 -->
<g id="edge55_Node000001_Node000102" class="edge">
<title>Node1&#45;&gt;Node102</title>
<g id="a_edge55_Node000001_Node000102"><a xlink:title=" ">
<path fill="none" stroke="#63b8ff" d="M3646.95,-335.29C3696.71,-326.32 3775.85,-311.5 3852.81,-294.29"/>
<polygon fill="#63b8ff" stroke="#63b8ff" points="3853.69,-297.68 3862.67,-292.06 3852.15,-290.85 3853.69,-297.68"/>
</a>
</g>
</g>
<!-- Node103 -->
<g id="Node000103" class="node">
<title>Node103</title>
<g id="a_Node000103"><a xlink:title=" ">
<polygon fill="#e0e0e0" stroke="#999999" points="3980.5,-294 3930.5,-294 3930.5,-275 3980.5,-275 3980.5,-294"/>
<text text-anchor="middle" x="3955.5" y="-282" font-family="Helvetica,sans-Serif" font-size="10.00">cstring</text>
</a>
</g>
</g>
<!-- Node1&#45;&gt;Node103 -->
<g id="edge56_Node000001_Node000103" class="edge">
<title>Node1&#45;&gt;Node103</title>
<g id="a_edge56_Node000001_Node000103"><a xlink:title=" ">
<path fill="none" stroke="#63b8ff" d="M3646.6,-337.85C3708.3,-329.81 3817.6,-314.52 3920.38,-294.07"/>
<polygon fill="#63b8ff" stroke="#63b8ff" points="3921.19,-297.47 3930.31,-292.07 3919.81,-290.61 3921.19,-297.47"/>
</a>
</g>
</g>
<!-- Node3 -->
<g id="Node000003" class="node">
<title>Node3</title>
<g id="a_Node000003"><a xlink:href="autoconf_8h.html" target="_top" xlink:title=" ">
<polygon fill="white" stroke="#666666" points="1446.5,-239 1378.5,-239 1378.5,-220 1446.5,-220 1446.5,-239"/>
<text text-anchor="middle" x="1412.5" y="-227" font-family="Helvetica,sans-Serif" font-size="10.00">autoconf.h</text>
</a>
</g>
</g>
<!-- Node2&#45;&gt;Node3 -->
<g id="edge2_Node000002_Node000003" class="edge">
<title>Node2&#45;&gt;Node3</title>
<g id="a_edge2_Node000002_Node000003"><a xlink:title=" ">
<path fill="none" stroke="#63b8ff" d="M1524.13,-274.98C1502.35,-266.3 1468.34,-252.75 1443.58,-242.88"/>
<polygon fill="#63b8ff" stroke="#63b8ff" points="1444.84,-239.62 1434.26,-239.17 1442.25,-246.12 1444.84,-239.62"/>
</a>
</g>
</g>
<!-- Node4 -->
<g id="Node000004" class="node">
<title>Node4</title>
<g id="a_Node000004"><a xlink:href="version_8h.html" target="_top" xlink:title=" ">
<polygon fill="white" stroke="#666666" points="1526.5,-239 1464.5,-239 1464.5,-220 1526.5,-220 1526.5,-239"/>
<text text-anchor="middle" x="1495.5" y="-227" font-family="Helvetica,sans-Serif" font-size="10.00">version.h</text>
</a>
</g>
</g>
<!-- Node2&#45;&gt;Node4 -->
<g id="edge3_Node000002_Node000004" class="edge">
<title>Node2&#45;&gt;Node4</title>
<g id="a_edge3_Node000002_Node000004"><a xlink:title=" ">
<path fill="none" stroke="#63b8ff" d="M1537.24,-274.75C1530.04,-267.11 1519.39,-255.82 1510.65,-246.56"/>
<polygon fill="#63b8ff" stroke="#63b8ff" points="1513.01,-243.96 1503.6,-239.09 1507.92,-248.76 1513.01,-243.96"/>
</a>
</g>
</g>
<!-- Node5 -->
<g id="Node000005" class="node">
<title>Node5</title>
<g id="a_Node000005"><a xlink:href="compat_8h.html" target="_top" xlink:title=" ">
<polygon fill="white" stroke="#666666" points="1646.5,-239 1544.5,-239 1544.5,-220 1646.5,-220 1646.5,-239"/>
<text text-anchor="middle" x="1595.5" y="-227" font-family="Helvetica,sans-Serif" font-size="10.00">compat/compat.h</text>
</a>
</g>
</g>
<!-- Node2&#45;&gt;Node5 -->
<g id="edge4_Node000002_Node000005" class="edge">
<title>Node2&#45;&gt;Node5</title>
<g id="a_edge4_Node000002_Node000005"><a xlink:title=" ">
<path fill="none" stroke="#63b8ff" d="M1553.76,-274.75C1560.96,-267.11 1571.61,-255.82 1580.35,-246.56"/>
<polygon fill="#63b8ff" stroke="#63b8ff" points="1583.08,-248.76 1587.4,-239.09 1577.99,-243.96 1583.08,-248.76"/>
</a>
</g>
</g>
<!-- Node6 -->
<g id="Node000006" class="node">
<title>Node6</title>
<g id="a_Node000006"><a xlink:href="osdetect_8h.html" target="_top" xlink:title=" ">
<polygon fill="white" stroke="#666666" points="1462,-184 1355,-184 1355,-165 1462,-165 1462,-184"/>
<text text-anchor="middle" x="1408.5" y="-172" font-family="Helvetica,sans-Serif" font-size="10.00">compat/osdetect.h</text>
</a>
</g>
</g>
<!-- Node5&#45;&gt;Node6 -->
<g id="edge5_Node000005_Node000006" class="edge">
<title>Node5&#45;&gt;Node6</title>
<g id="a_edge5_Node000005_Node000006"><a xlink:title=" ">
<path fill="none" stroke="#63b8ff" d="M1565.46,-219.98C1533.79,-211.01 1483.73,-196.82 1448.69,-186.89"/>
<polygon fill="#63b8ff" stroke="#63b8ff" points="1449.36,-183.44 1438.78,-184.08 1447.45,-190.18 1449.36,-183.44"/>
</a>
</g>
</g>
<!-- Node7 -->
<g id="Node000007" class="node">
<title>Node7</title>
<g id="a_Node000007"><a xlink:href="fdsetsize_8h.html" target="_top" xlink:title=" ">
<polygon fill="white" stroke="#666666" points="1590.5,-184 1480.5,-184 1480.5,-165 1590.5,-165 1590.5,-184"/>
<text text-anchor="middle" x="1535.5" y="-172" font-family="Helvetica,sans-Serif" font-size="10.00">compat/fdsetsize.h</text>
</a>
</g>
</g>
<!-- Node5&#45;&gt;Node7 -->
<g id="edge6_Node000005_Node000007" class="edge">
<title>Node5&#45;&gt;Node7</title>
<g id="a_edge6_Node000005_Node000007"><a xlink:title=" ">
<path fill="none" stroke="#63b8ff" d="M1585.86,-219.98C1576.99,-212.15 1563.63,-200.34 1552.89,-190.86"/>
<polygon fill="#63b8ff" stroke="#63b8ff" points="1555.13,-188.17 1545.32,-184.17 1550.49,-193.41 1555.13,-188.17"/>
</a>
</g>
</g>
<!-- Node8 -->
<g id="Node000008" class="node">
<title>Node8</title>
<g id="a_Node000008"><a xlink:href="types_8h.html" target="_top" xlink:title=" ">
<polygon fill="#fff0f0" stroke="red" points="1700.5,-184 1608.5,-184 1608.5,-165 1700.5,-165 1700.5,-184"/>
<text text-anchor="middle" x="1654.5" y="-172" font-family="Helvetica,sans-Serif" font-size="10.00">compat/types.h</text>
</a>
</g>
</g>
<!-- Node5&#45;&gt;Node8 -->
<g id="edge7_Node000005_Node000008" class="edge">
<title>Node5&#45;&gt;Node8</title>
<g id="a_edge7_Node000005_Node000008"><a xlink:title=" ">
<path fill="none" stroke="#63b8ff" d="M1604.98,-219.98C1613.7,-212.15 1626.84,-200.34 1637.4,-190.86"/>
<polygon fill="#63b8ff" stroke="#63b8ff" points="1639.75,-193.46 1644.85,-184.17 1635.07,-188.25 1639.75,-193.46"/>
</a>
</g>
</g>
<!-- Node10 -->
<g id="Node000010" class="node">
<title>Node10</title>
<g id="a_Node000010"><a xlink:href="aix_8h.html" target="_top" xlink:title=" ">
<polygon fill="white" stroke="#666666" points="1814,-184 1719,-184 1719,-165 1814,-165 1814,-184"/>
<text text-anchor="middle" x="1766.5" y="-172" font-family="Helvetica,sans-Serif" font-size="10.00">compat/os/aix.h</text>
</a>
</g>
</g>
<!-- Node5&#45;&gt;Node10 -->
<g id="edge8_Node000005_Node000010" class="edge">
<title>Node5&#45;&gt;Node10</title>
<g id="a_edge8_Node000005_Node000010"><a xlink:title=" ">
<path fill="none" stroke="#63b8ff" d="M1622.97,-219.98C1651.68,-211.09 1696.92,-197.07 1728.92,-187.15"/>
<polygon fill="#63b8ff" stroke="#63b8ff" points="1730.3,-190.39 1738.81,-184.08 1728.22,-183.7 1730.3,-190.39"/>
</a>
</g>
</g>
<!-- Node11 -->
<g id="Node000011" class="node">
<title>Node11</title>
<g id="a_Node000011"><a xlink:href="android_8h.html" target="_top" xlink:title=" ">
<polygon fill="white" stroke="#666666" points="1948.5,-184 1832.5,-184 1832.5,-165 1948.5,-165 1948.5,-184"/>
<text text-anchor="middle" x="1890.5" y="-172" font-family="Helvetica,sans-Serif" font-size="10.00">compat/os/android.h</text>
</a>
</g>
</g>
<!-- Node5&#45;&gt;Node11 -->
<g id="edge9_Node000005_Node000011" class="edge">
<title>Node5&#45;&gt;Node11</title>
<g id="a_edge9_Node000005_Node000011"><a xlink:title=" ">
<path fill="none" stroke="#63b8ff" d="M1642.9,-219.98C1694.57,-210.7 1777.27,-195.84 1832.71,-185.88"/>
<polygon fill="#63b8ff" stroke="#63b8ff" points="1833.51,-189.3 1842.73,-184.08 1832.27,-182.41 1833.51,-189.3"/>
</a>
</g>
</g>
<!-- Node12 -->
<g id="Node000012" class="node">
<title>Node12</title>
<g id="a_Node000012"><a xlink:href="dragonfly_8h.html" target="_top" xlink:title=" ">
<polygon fill="white" stroke="#666666" points="2090.5,-184 1966.5,-184 1966.5,-165 2090.5,-165 2090.5,-184"/>
<text text-anchor="middle" x="2028.5" y="-172" font-family="Helvetica,sans-Serif" font-size="10.00">compat/os/dragonfly.h</text>
</a>
</g>
</g>
<!-- Node5&#45;&gt;Node12 -->
<g id="edge10_Node000005_Node000012" class="edge">
<title>Node5&#45;&gt;Node12</title>
<g id="a_edge10_Node000005_Node000012"><a xlink:title=" ">
<path fill="none" stroke="#63b8ff" d="M1646.87,-222.21C1723.69,-212.81 1868.8,-195.05 1956.27,-184.34"/>
<polygon fill="#63b8ff" stroke="#63b8ff" points="1956.88,-187.79 1966.38,-183.1 1956.03,-180.84 1956.88,-187.79"/>
</a>
</g>
</g>
<!-- Node13 -->
<g id="Node000013" class="node">
<title>Node13</title>
<g id="a_Node000013"><a xlink:href="freebsd_8h.html" target="_top" xlink:title=" ">
<polygon fill="white" stroke="#666666" points="2224.5,-184 2108.5,-184 2108.5,-165 2224.5,-165 2224.5,-184"/>
<text text-anchor="middle" x="2166.5" y="-172" font-family="Helvetica,sans-Serif" font-size="10.00">compat/os/freebsd.h</text>
</a>
</g>
</g>
<!-- Node5&#45;&gt;Node13 -->
<g id="edge11_Node000005_Node000013" class="edge">
<title>Node5&#45;&gt;Node13</title>
<g id="a_edge11_Node000005_Node000013"><a xlink:title=" ">
<path fill="none" stroke="#63b8ff" d="M1646.72,-224.63C1736.13,-217.72 1926.78,-202.37 2098.44,-184.08"/>
<polygon fill="#63b8ff" stroke="#63b8ff" points="2098.84,-187.55 2108.41,-183.01 2098.1,-180.59 2098.84,-187.55"/>
</a>
</g>
</g>
<!-- Node14 -->
<g id="Node000014" class="node">
<title>Node14</title>
<g id="a_Node000014"><a xlink:href="hpux_8h.html" target="_top" xlink:title=" ">
<polygon fill="white" stroke="#666666" points="2346.5,-184 2242.5,-184 2242.5,-165 2346.5,-165 2346.5,-184"/>
<text text-anchor="middle" x="2294.5" y="-172" font-family="Helvetica,sans-Serif" font-size="10.00">compat/os/hpux.h</text>
</a>
</g>
</g>
<!-- Node5&#45;&gt;Node14 -->
<g id="edge12_Node000005_Node000014" class="edge">
<title>Node5&#45;&gt;Node14</title>
<g id="a_edge12_Node000005_Node000014"><a xlink:title=" ">
<path fill="none" stroke="#63b8ff" d="M1646.88,-226.12C1753.82,-220.9 2008.35,-207.13 2232.32,-184.05"/>
<polygon fill="#63b8ff" stroke="#63b8ff" points="2232.7,-187.53 2242.29,-183.02 2231.98,-180.57 2232.7,-187.53"/>
</a>
</g>
</g>
<!-- Node15 -->
<g id="Node000015" class="node">
<title>Node15</title>
<g id="a_Node000015"><a xlink:href="linux_8h.html" target="_top" xlink:title=" ">
<polygon fill="white" stroke="#666666" points="2468.5,-184 2364.5,-184 2364.5,-165 2468.5,-165 2468.5,-184"/>
<text text-anchor="middle" x="2416.5" y="-172" font-family="Helvetica,sans-Serif" font-size="10.00">compat/os/linux.h</text>
</a>
</g>
</g>
<!-- Node5&#45;&gt;Node15 -->
<g id="edge13_Node000005_Node000015" class="edge">
<title>Node5&#45;&gt;Node15</title>
<g id="a_edge13_Node000005_Node000015"><a xlink:title=" ">
<path fill="none" stroke="#63b8ff" d="M1646.76,-226.91C1767.93,-222.86 2081.7,-210.58 2354.21,-184.05"/>
<polygon fill="#63b8ff" stroke="#63b8ff" points="2354.68,-187.52 2364.29,-183.05 2354,-180.55 2354.68,-187.52"/>
</a>
</g>
</g>
<!-- Node16 -->
<g id="Node000016" class="node">
<title>Node16</title>
<g id="a_Node000016"><a xlink:href="macosx_8h.html" target="_top" xlink:title=" ">
<polygon fill="white" stroke="#666666" points="2604.5,-184 2486.5,-184 2486.5,-165 2604.5,-165 2604.5,-184"/>
<text text-anchor="middle" x="2545.5" y="-172" font-family="Helvetica,sans-Serif" font-size="10.00">compat/os/macosx.h</text>
</a>
</g>
</g>
<!-- Node5&#45;&gt;Node16 -->
<g id="edge14_Node000005_Node000016" class="edge">
<title>Node5&#45;&gt;Node16</title>
<g id="a_edge14_Node000005_Node000016"><a xlink:title=" ">
<path fill="none" stroke="#63b8ff" d="M1646.79,-227.24C1781.17,-223.65 2154.72,-211.84 2476.21,-184.05"/>
<polygon fill="#63b8ff" stroke="#63b8ff" points="2476.53,-187.53 2486.19,-183.18 2475.92,-180.56 2476.53,-187.53"/>
</a>
</g>
</g>
<!-- Node17 -->
<g id="Node000017" class="node">
<title>Node17</title>
<g id="a_Node000017"><a xlink:href="mingw_8h.html" target="_top" xlink:title=" ">
<polygon fill="white" stroke="#666666" points="2734.5,-184 2622.5,-184 2622.5,-165 2734.5,-165 2734.5,-184"/>
<text text-anchor="middle" x="2678.5" y="-172" font-family="Helvetica,sans-Serif" font-size="10.00">compat/os/mingw.h</text>
</a>
</g>
</g>
<!-- Node5&#45;&gt;Node17 -->
<g id="edge15_Node000005_Node000017" class="edge">
<title>Node5&#45;&gt;Node17</title>
<g id="a_edge15_Node000005_Node000017"><a xlink:title=" ">
<path fill="none" stroke="#63b8ff" d="M1646.71,-227.82C1794.69,-225.54 2235.78,-216.37 2612.17,-184.04"/>
<polygon fill="#63b8ff" stroke="#63b8ff" points="2612.5,-187.52 2622.16,-183.17 2611.9,-180.55 2612.5,-187.52"/>
</a>
</g>
</g>
<!-- Node18 -->
<g id="Node000018" class="node">
<title>Node18</title>
<g id="a_Node000018"><a xlink:href="mswindows_8h.html" target="_top" xlink:title=" ">
<polygon fill="white" stroke="#666666" points="2890,-184 2753,-184 2753,-165 2890,-165 2890,-184"/>
<text text-anchor="middle" x="2821.5" y="-172" font-family="Helvetica,sans-Serif" font-size="10.00">compat/os/mswindows.h</text>
</a>
</g>
</g>
<!-- Node5&#45;&gt;Node18 -->
<g id="edge16_Node000005_Node000018" class="edge">
<title>Node5&#45;&gt;Node18</title>
<g id="a_edge16_Node000005_Node000018"><a xlink:title=" ">
<path fill="none" stroke="#63b8ff" d="M1646.78,-227.79C1806.98,-225.29 2312.57,-215.36 2742.48,-184.01"/>
<polygon fill="#63b8ff" stroke="#63b8ff" points="2742.9,-187.49 2752.62,-183.27 2742.39,-180.51 2742.9,-187.49"/>
</a>
</g>
</g>
<!-- Node19 -->
<g id="Node000019" class="node">
<title>Node19</title>
<g id="a_Node000019"><a xlink:href="netbsd_8h.html" target="_top" xlink:title=" ">
<polygon fill="white" stroke="#666666" points="3021,-184 2908,-184 2908,-165 3021,-165 3021,-184"/>
<text text-anchor="middle" x="2964.5" y="-172" font-family="Helvetica,sans-Serif" font-size="10.00">compat/os/netbsd.h</text>
</a>
</g>
</g>
<!-- Node5&#45;&gt;Node19 -->
<g id="edge17_Node000005_Node000019" class="edge">
<title>Node5&#45;&gt;Node19</title>
<g id="a_edge17_Node000005_Node000019"><a xlink:title=" ">
<path fill="none" stroke="#63b8ff" d="M1646.51,-228.48C1820.14,-228.04 2404.27,-223.58 2897.48,-183.99"/>
<polygon fill="#63b8ff" stroke="#63b8ff" points="2897.97,-187.46 2907.65,-183.17 2897.4,-180.48 2897.97,-187.46"/>
</a>
</g>
</g>
<!-- Node20 -->
<g id="Node000020" class="node">
<title>Node20</title>
<g id="a_Node000020"><a xlink:href="openbsd_8h.html" target="_top" xlink:title=" ">
<polygon fill="white" stroke="#666666" points="3160,-184 3039,-184 3039,-165 3160,-165 3160,-184"/>
<text text-anchor="middle" x="3099.5" y="-172" font-family="Helvetica,sans-Serif" font-size="10.00">compat/os/openbsd.h</text>
</a>
</g>
</g>
<!-- Node5&#45;&gt;Node20 -->
<g id="edge18_Node000005_Node000020" class="edge">
<title>Node5&#45;&gt;Node20</title>
<g id="a_edge18_Node000005_Node000020"><a xlink:title=" ">
<path fill="none" stroke="#63b8ff" d="M1646.71,-228.57C1831.53,-228.48 2481.62,-225.11 3028.76,-183.97"/>
<polygon fill="#63b8ff" stroke="#63b8ff" points="3029.12,-187.45 3038.83,-183.21 3028.59,-180.47 3029.12,-187.45"/>
</a>
</g>
</g>
<!-- Node21 -->
<g id="Node000021" class="node">
<title>Node21</title>
<g id="a_Node000021"><a xlink:href="os2_8h.html" target="_top" xlink:title=" ">
<polygon fill="white" stroke="#666666" points="97,-184 0,-184 0,-165 97,-165 97,-184"/>
<text text-anchor="middle" x="48.5" y="-172" font-family="Helvetica,sans-Serif" font-size="10.00">compat/os/os2.h</text>
</a>
</g>
</g>
<!-- Node5&#45;&gt;Node21 -->
<g id="edge19_Node000005_Node000021" class="edge">
<title>Node5&#45;&gt;Node21</title>
<g id="a_edge19_Node000005_Node000021"><a xlink:title=" ">
<path fill="none" stroke="#63b8ff" d="M1544.48,-220.86C1541.45,-220.54 1538.44,-220.24 1535.5,-220 905.77,-167.64 741.26,-237.4 107.49,-183.95"/>
<polygon fill="#63b8ff" stroke="#63b8ff" points="107.45,-180.43 97.18,-183.07 106.85,-187.4 107.45,-180.43"/>
</a>
</g>
</g>
<!-- Node22 -->
<g id="Node000022" class="node">
<title>Node22</title>
<g id="a_Node000022"><a xlink:href="qnx_8h.html" target="_top" xlink:title=" ">
<polygon fill="white" stroke="#666666" points="213.5,-184 115.5,-184 115.5,-165 213.5,-165 213.5,-184"/>
<text text-anchor="middle" x="164.5" y="-172" font-family="Helvetica,sans-Serif" font-size="10.00">compat/os/qnx.h</text>
</a>
</g>
</g>
<!-- Node5&#45;&gt;Node22 -->
<g id="edge20_Node000005_Node000022" class="edge">
<title>Node5&#45;&gt;Node22</title>
<g id="a_edge20_Node000005_Node000022"><a xlink:title=" ">
<path fill="none" stroke="#63b8ff" d="M1544.48,-220.87C1541.45,-220.54 1538.44,-220.25 1535.5,-220 957.2,-171.27 805.86,-233.67 223.84,-183.99"/>
<polygon fill="#63b8ff" stroke="#63b8ff" points="223.76,-180.47 213.5,-183.1 223.16,-187.44 223.76,-180.47"/>
</a>
</g>
</g>
<!-- Node23 -->
<g id="Node000023" class="node">
<title>Node23</title>
<g id="a_Node000023"><a xlink:href="solaris_8h.html" target="_top" xlink:title=" ">
<polygon fill="white" stroke="#666666" points="343.5,-184 231.5,-184 231.5,-165 343.5,-165 343.5,-184"/>
<text text-anchor="middle" x="287.5" y="-172" font-family="Helvetica,sans-Serif" font-size="10.00">compat/os/solaris.h</text>
</a>
</g>
</g>
<!-- Node5&#45;&gt;Node23 -->
<g id="edge21_Node000005_Node000023" class="edge">
<title>Node5&#45;&gt;Node23</title>
<g id="a_edge21_Node000005_Node000023"><a xlink:title=" ">
<path fill="none" stroke="#63b8ff" d="M1544.48,-220.88C1541.45,-220.55 1538.44,-220.25 1535.5,-220 1014.73,-175.33 878.55,-225.51 353.94,-184.02"/>
<polygon fill="#63b8ff" stroke="#63b8ff" points="354.08,-180.52 343.83,-183.22 353.52,-187.5 354.08,-180.52"/>
</a>
</g>
</g>
<!-- Node24 -->
<g id="Node000024" class="node">
<title>Node24</title>
<g id="a_Node000024"><a xlink:href="sunos_8h.html" target="_top" xlink:title=" ">
<polygon fill="white" stroke="#666666" points="469.5,-184 361.5,-184 361.5,-165 469.5,-165 469.5,-184"/>
<text text-anchor="middle" x="415.5" y="-172" font-family="Helvetica,sans-Serif" font-size="10.00">compat/os/sunos.h</text>
</a>
</g>
</g>
<!-- Node5&#45;&gt;Node24 -->
<g id="edge22_Node000005_Node000024" class="edge">
<title>Node5&#45;&gt;Node24</title>
<g id="a_edge22_Node000005_Node000024"><a xlink:title=" ">
<path fill="none" stroke="#63b8ff" d="M1544.48,-220.89C1541.44,-220.56 1538.43,-220.26 1535.5,-220 1070.56,-179.27 948.61,-222.85 479.84,-184.01"/>
<polygon fill="#63b8ff" stroke="#63b8ff" points="480.02,-180.52 469.76,-183.17 479.43,-187.49 480.02,-180.52"/>
</a>
</g>
</g>
<!-- Node25 -->
<g id="Node000025" class="node">
<title>Node25</title>
<g id="a_Node000025"><a xlink:href="assert_8h.html" target="_top" xlink:title=" ">
<polygon fill="white" stroke="#666666" points="583,-184 488,-184 488,-165 583,-165 583,-184"/>
<text text-anchor="middle" x="535.5" y="-172" font-family="Helvetica,sans-Serif" font-size="10.00">compat/assert.h</text>
</a>
</g>
</g>
<!-- Node5&#45;&gt;Node25 -->
<g id="edge23_Node000005_Node000025" class="edge">
<title>Node5&#45;&gt;Node25</title>
<g id="a_edge23_Node000005_Node000025"><a xlink:title=" ">
<path fill="none" stroke="#63b8ff" d="M1544.48,-220.91C1541.44,-220.57 1538.43,-220.26 1535.5,-220 1121.13,-182.84 1011.86,-222.34 593.3,-183.94"/>
<polygon fill="#63b8ff" stroke="#63b8ff" points="593.32,-180.43 583.04,-182.99 592.67,-187.4 593.32,-180.43"/>
</a>
</g>
</g>
<!-- Node26 -->
<g id="Node000026" class="node">
<title>Node26</title>
<g id="a_Node000026"><a xlink:href="compat__shared_8h.html" target="_top" xlink:title=" ">
<polygon fill="#fff0f0" stroke="red" points="741.5,-184 601.5,-184 601.5,-165 741.5,-165 741.5,-184"/>
<text text-anchor="middle" x="671.5" y="-172" font-family="Helvetica,sans-Serif" font-size="10.00">compat/compat_shared.h</text>
</a>
</g>
</g>
<!-- Node5&#45;&gt;Node26 -->
<g id="edge24_Node000005_Node000026" class="edge">
<title>Node5&#45;&gt;Node26</title>
<g id="a_edge24_Node000005_Node000026"><a xlink:title=" ">
<path fill="none" stroke="#63b8ff" d="M1544.48,-220.94C1541.44,-220.59 1538.43,-220.27 1535.5,-220 1191.07,-187.78 1100.45,-210.26 751.82,-184.05"/>
<polygon fill="#63b8ff" stroke="#63b8ff" points="751.93,-180.55 741.69,-183.28 751.4,-187.53 751.93,-180.55"/>
</a>
</g>
</g>
<!-- Node36 -->
<g id="Node000036" class="node">
<title>Node36</title>
<g id="a_Node000036"><a xlink:href="stdvarargs_8h.html" target="_top" xlink:title=" ">
<polygon fill="#fff0f0" stroke="red" points="877,-184 760,-184 760,-165 877,-165 877,-184"/>
<text text-anchor="middle" x="818.5" y="-172" font-family="Helvetica,sans-Serif" font-size="10.00">compat/stdvarargs.h</text>
</a>
</g>
</g>
<!-- Node5&#45;&gt;Node36 -->
<g id="edge25_Node000005_Node000036" class="edge">
<title>Node5&#45;&gt;Node36</title>
<g id="a_edge25_Node000005_Node000036"><a xlink:title=" ">
<path fill="none" stroke="#63b8ff" d="M1544.47,-220.97C1541.44,-220.62 1538.43,-220.29 1535.5,-220 1250.93,-192.01 1175.4,-209.8 887.63,-184.13"/>
<polygon fill="#63b8ff" stroke="#63b8ff" points="887.57,-180.61 877.3,-183.2 886.95,-187.58 887.57,-180.61"/>
</a>
</g>
</g>
<!-- Node38 -->
<g id="Node000038" class="node">
<title>Node38</title>
<g id="a_Node000038"><a xlink:href="stdio_8h.html" target="_top" xlink:title=" ">
<polygon fill="#fff0f0" stroke="red" points="984,-184 895,-184 895,-165 984,-165 984,-184"/>
<text text-anchor="middle" x="939.5" y="-172" font-family="Helvetica,sans-Serif" font-size="10.00">compat/stdio.h</text>
</a>
</g>
</g>
<!-- Node5&#45;&gt;Node38 -->
<g id="edge26_Node000005_Node000038" class="edge">
<title>Node5&#45;&gt;Node38</title>
<g id="a_edge26_Node000005_Node000038"><a xlink:title=" ">
<path fill="none" stroke="#63b8ff" d="M1544.47,-221.01C1541.44,-220.64 1538.43,-220.3 1535.5,-220 1298.22,-195.36 1234.56,-210.75 994.37,-184.11"/>
<polygon fill="#63b8ff" stroke="#63b8ff" points="994.61,-180.62 984.28,-182.98 993.83,-187.57 994.61,-180.62"/>
</a>
</g>
</g>
<!-- Node40 -->
<g id="Node000040" class="node">
<title>Node40</title>
<g id="a_Node000040"><a xlink:href="statvfs_8h.html" target="_top" xlink:title=" ">
<polygon fill="white" stroke="#666666" points="1101,-184 1002,-184 1002,-165 1101,-165 1101,-184"/>
<text text-anchor="middle" x="1051.5" y="-172" font-family="Helvetica,sans-Serif" font-size="10.00">compat/statvfs.h</text>
</a>
</g>
</g>
<!-- Node5&#45;&gt;Node40 -->
<g id="edge27_Node000005_Node000040" class="edge">
<title>Node5&#45;&gt;Node40</title>
<g id="a_edge27_Node000005_Node000040"><a xlink:title=" ">
<path fill="none" stroke="#63b8ff" d="M1544.46,-221.07C1541.43,-220.69 1538.43,-220.33 1535.5,-220 1349.92,-199.03 1299.95,-205.55 1111.12,-184.12"/>
<polygon fill="#63b8ff" stroke="#63b8ff" points="1111.48,-180.64 1101.15,-182.98 1110.68,-187.6 1111.48,-180.64"/>
</a>
</g>
</g>
<!-- Node41 -->
<g id="Node000041" class="node">
<title>Node41</title>
<g id="a_Node000041"><a xlink:href="debug_8h.html" target="_top" xlink:title=" ">
<polygon fill="white" stroke="#666666" points="1214,-184 1119,-184 1119,-165 1214,-165 1214,-184"/>
<text text-anchor="middle" x="1166.5" y="-172" font-family="Helvetica,sans-Serif" font-size="10.00">compat/debug.h</text>
</a>
</g>
</g>
<!-- Node5&#45;&gt;Node41 -->
<g id="edge28_Node000005_Node000041" class="edge">
<title>Node5&#45;&gt;Node41</title>
<g id="a_edge28_Node000005_Node000041"><a xlink:title=" ">
<path fill="none" stroke="#63b8ff" d="M1544.45,-221.17C1541.42,-220.77 1538.42,-220.37 1535.5,-220 1399.87,-202.6 1363.01,-202.5 1224.31,-184.2"/>
<polygon fill="#63b8ff" stroke="#63b8ff" points="1224.52,-180.7 1214.14,-182.85 1223.59,-187.64 1224.52,-180.7"/>
</a>
</g>
</g>
<!-- Node42 -->
<g id="Node000042" class="node">
<title>Node42</title>
<g id="a_Node000042"><a xlink:href="valgrind_8h.html" target="_top" xlink:title=" ">
<polygon fill="#fff0f0" stroke="red" points="1337,-184 1232,-184 1232,-165 1337,-165 1337,-184"/>
<text text-anchor="middle" x="1284.5" y="-172" font-family="Helvetica,sans-Serif" font-size="10.00">compat/valgrind.h</text>
</a>
</g>
</g>
<!-- Node5&#45;&gt;Node42 -->
<g id="edge29_Node000005_Node000042" class="edge">
<title>Node5&#45;&gt;Node42</title>
<g id="a_edge29_Node000005_Node000042"><a xlink:title=" ">
<path fill="none" stroke="#63b8ff" d="M1545.53,-219.98C1490.86,-210.67 1403.25,-195.74 1344.8,-185.78"/>
<polygon fill="#63b8ff" stroke="#63b8ff" points="1345.05,-182.27 1334.6,-184.04 1343.87,-189.17 1345.05,-182.27"/>
</a>
</g>
</g>
<!-- Node45 -->
<g id="Node000045" class="node">
<title>Node45</title>
<g id="a_Node000045"><a xlink:href="Assure_8h.html" target="_top" xlink:title=" ">
<polygon fill="white" stroke="#666666" points="3279,-129 3194,-129 3194,-110 3279,-110 3279,-129"/>
<text text-anchor="middle" x="3236.5" y="-117" font-family="Helvetica,sans-Serif" font-size="10.00">base/Assure.h</text>
</a>
</g>
</g>
<!-- Node44&#45;&gt;Node45 -->
<g id="edge31_Node000044_Node000045" class="edge">
<title>Node44&#45;&gt;Node45</title>
<g id="a_edge31_Node000044_Node000045"><a xlink:title=" ">
<path fill="none" stroke="#63b8ff" d="M3238.17,-164.75C3237.91,-157.8 3237.53,-147.85 3237.2,-139.13"/>
<polygon fill="#63b8ff" stroke="#63b8ff" points="3240.7,-138.95 3236.82,-129.09 3233.7,-139.21 3240.7,-138.95"/>
</a>
</g>
</g>
<!-- Node46 -->
<g id="Node000046" class="node">
<title>Node46</title>
<g id="a_Node000046"><a xlink:href="Here_8h.html" target="_top" xlink:title=" ">
<polygon fill="white" stroke="#666666" points="3274,-74 3199,-74 3199,-55 3274,-55 3274,-74"/>
<text text-anchor="middle" x="3236.5" y="-62" font-family="Helvetica,sans-Serif" font-size="10.00">base/Here.h</text>
</a>
</g>
</g>
<!-- Node44&#45;&gt;Node46 -->
<g id="edge34_Node000044_Node000046" class="edge">
<title>Node44&#45;&gt;Node46</title>
<g id="a_edge34_Node000044_Node000046"><a xlink:title=" ">
<path fill="none" stroke="#63b8ff" d="M3221.61,-164.95C3208.79,-157.43 3192.12,-145.15 3184.5,-129 3175.54,-110.01 3194.12,-91.85 3211.5,-79.85"/>
<polygon fill="#63b8ff" stroke="#63b8ff" points="3213.82,-82.52 3220.33,-74.17 3210.03,-76.64 3213.82,-82.52"/>
</a>
</g>
</g>
<!-- Node44&#45;&gt;Node48 -->
<g id="edge35_Node000044_Node000048" class="edge">
<title>Node44&#45;&gt;Node48</title>
<g id="a_edge35_Node000044_Node000048"><a xlink:title=" ">
<path fill="none" stroke="#63b8ff" d="M3253.12,-164.98C3267.36,-156.69 3289.25,-143.94 3305.95,-134.22"/>
<polygon fill="#63b8ff" stroke="#63b8ff" points="3307.73,-137.23 3314.61,-129.17 3304.21,-131.18 3307.73,-137.23"/>
</a>
</g>
</g>
<!-- Node45&#45;&gt;Node46 -->
<g id="edge32_Node000045_Node000046" class="edge">
<title>Node45&#45;&gt;Node46</title>
<g id="a_edge32_Node000045_Node000046"><a xlink:title=" ">
<path fill="none" stroke="#63b8ff" d="M3236.5,-109.75C3236.5,-102.8 3236.5,-92.85 3236.5,-84.13"/>
<polygon fill="#63b8ff" stroke="#63b8ff" points="3240,-84.09 3236.5,-74.09 3233,-84.09 3240,-84.09"/>
</a>
</g>
</g>
<!-- Node47 -->
<g id="Node000047" class="node">
<title>Node47</title>
<g id="a_Node000047"><a xlink:title=" ">
<polygon fill="#e0e0e0" stroke="#999999" points="3337.5,-19 3289.5,-19 3289.5,0 3337.5,0 3337.5,-19"/>
<text text-anchor="middle" x="3313.5" y="-7" font-family="Helvetica,sans-Serif" font-size="10.00">iosfwd</text>
</a>
</g>
</g>
<!-- Node46&#45;&gt;Node47 -->
<g id="edge33_Node000046_Node000047" class="edge">
<title>Node46&#45;&gt;Node47</title>
<g id="a_edge33_Node000046_Node000047"><a xlink:title=" ">
<path fill="none" stroke="#63b8ff" d="M3248.87,-54.98C3260.59,-46.92 3278.42,-34.65 3292.39,-25.03"/>
<polygon fill="#63b8ff" stroke="#63b8ff" points="3294.65,-27.72 3300.9,-19.17 3290.68,-21.96 3294.65,-27.72"/>
</a>
</g>
</g>
<!-- Node50 -->
<g id="Node000050" class="node">
<title>Node50</title>
<g id="a_Node000050"><a xlink:href="PackableStream_8h.html" target="_top" xlink:title=" ">
<polygon fill="#fff0f0" stroke="red" points="3574.5,-239 3444.5,-239 3444.5,-220 3574.5,-220 3574.5,-239"/>
<text text-anchor="middle" x="3509.5" y="-227" font-family="Helvetica,sans-Serif" font-size="10.00">base/PackableStream.h</text>
</a>
</g>
</g>
<!-- Node49&#45;&gt;Node50 -->
<g id="edge37_Node000049_Node000050" class="edge">
<title>Node49&#45;&gt;Node50</title>
<g id="a_edge37_Node000049_Node000050"><a xlink:title=" ">
<path fill="none" stroke="#63b8ff" d="M3509.5,-274.75C3509.5,-267.8 3509.5,-257.85 3509.5,-249.13"/>
<polygon fill="#63b8ff" stroke="#63b8ff" points="3513,-249.09 3509.5,-239.09 3506,-249.09 3513,-249.09"/>
</a>
</g>
</g>
<!-- Node53 -->
<g id="Node000053" class="node">
<title>Node53</title>
<g id="a_Node000053"><a xlink:href="SBuf_8h.html" target="_top" xlink:title=" ">
<polygon fill="#fff0f0" stroke="red" points="3426,-239 3355,-239 3355,-220 3426,-220 3426,-239"/>
<text text-anchor="middle" x="3390.5" y="-227" font-family="Helvetica,sans-Serif" font-size="10.00">sbuf/SBuf.h</text>
</a>
</g>
</g>
<!-- Node49&#45;&gt;Node53 -->
<g id="edge38_Node000049_Node000053" class="edge">
<title>Node49&#45;&gt;Node53</title>
<g id="a_edge38_Node000049_Node000053"><a xlink:title=" ">
<path fill="none" stroke="#63b8ff" d="M3490.38,-274.98C3471.15,-266.42 3441.27,-253.11 3419.19,-243.28"/>
<polygon fill="#63b8ff" stroke="#63b8ff" points="3420.53,-240.04 3409.97,-239.17 3417.68,-246.44 3420.53,-240.04"/>
</a>
</g>
</g>
<!-- Node53&#45;&gt;Node44 -->
<g id="edge39_Node000053_Node000044" class="edge">
<title>Node53&#45;&gt;Node44</title>
<g id="a_edge39_Node000053_Node000044"><a xlink:title=" ">
<path fill="none" stroke="#63b8ff" d="M3366.08,-219.98C3340.78,-211.16 3301.05,-197.31 3272.64,-187.41"/>
<polygon fill="#63b8ff" stroke="#63b8ff" points="3273.71,-184.07 3263.11,-184.08 3271.4,-190.68 3273.71,-184.07"/>
</a>
</g>
</g>
<!-- Node53&#45;&gt;Node47 -->
<g id="edge41_Node000053_Node000047" class="edge">
<title>Node53&#45;&gt;Node47</title>
<g id="a_edge41_Node000053_Node000047"><a xlink:title=" ">
<path fill="none" stroke="#63b8ff" d="M3390.08,-219.91C3388.9,-200.02 3384.63,-149.48 3370.5,-110 3359.37,-78.91 3338.74,-46.34 3325.59,-27.26"/>
<polygon fill="#63b8ff" stroke="#63b8ff" points="3328.42,-25.21 3319.8,-19.04 3322.7,-29.23 3328.42,-25.21"/>
</a>
</g>
</g>
<!-- Node71 -->
<g id="Node000071" class="node">
<title>Node71</title>
<g id="a_Node000071"><a xlink:href="sbuf_2forward_8h.html" target="_top" xlink:title=" ">
<polygon fill="#fff0f0" stroke="red" points="3576,-184 3489,-184 3489,-165 3576,-165 3576,-184"/>
<text text-anchor="middle" x="3532.5" y="-172" font-family="Helvetica,sans-Serif" font-size="10.00">sbuf/forward.h</text>
</a>
</g>
</g>
<!-- Node53&#45;&gt;Node71 -->
<g id="edge40_Node000053_Node000071" class="edge">
<title>Node53&#45;&gt;Node71</title>
<g id="a_edge40_Node000053_Node000071"><a xlink:title=" ">
<path fill="none" stroke="#63b8ff" d="M3413.31,-219.98C3436.67,-211.27 3473.2,-197.63 3499.67,-187.75"/>
<polygon fill="#63b8ff" stroke="#63b8ff" points="3501.13,-190.95 3509.27,-184.17 3498.68,-184.39 3501.13,-190.95"/>
</a>
</g>
</g>
<!-- Node84 -->
<g id="Node000084" class="node">
<title>Node84</title>
<g id="a_Node000084"><a xlink:title=" ">
<polygon fill="#e0e0e0" stroke="#999999" points="3704.5,-184 3666.5,-184 3666.5,-165 3704.5,-165 3704.5,-184"/>
<text text-anchor="middle" x="3685.5" y="-172" font-family="Helvetica,sans-Serif" font-size="10.00">map</text>
</a>
</g>
</g>
<!-- Node83&#45;&gt;Node84 -->
<g id="edge43_Node000083_Node000084" class="edge">
<title>Node83&#45;&gt;Node84</title>
<g id="a_edge43_Node000083_Node000084"><a xlink:title=" ">
<path fill="none" stroke="#63b8ff" d="M3685.5,-219.75C3685.5,-212.8 3685.5,-202.85 3685.5,-194.13"/>
<polygon fill="#63b8ff" stroke="#63b8ff" points="3689,-194.09 3685.5,-184.09 3682,-194.09 3689,-194.09"/>
</a>
</g>
</g>
<!-- Node85 -->
<g id="Node000085" class="node">
<title>Node85</title>
<g id="a_Node000085"><a xlink:title=" ">
<polygon fill="#e0e0e0" stroke="#999999" points="3833.5,-184 3789.5,-184 3789.5,-165 3833.5,-165 3833.5,-184"/>
<text text-anchor="middle" x="3811.5" y="-172" font-family="Helvetica,sans-Serif" font-size="10.00">string</text>
</a>
</g>
</g>
<!-- Node83&#45;&gt;Node85 -->
<g id="edge44_Node000083_Node000085" class="edge">
<title>Node83&#45;&gt;Node85</title>
<g id="a_edge44_Node000083_Node000085"><a xlink:title=" ">
<path fill="none" stroke="#63b8ff" d="M3705.74,-219.98C3726.2,-211.38 3758.03,-197.99 3781.43,-188.15"/>
<polygon fill="#63b8ff" stroke="#63b8ff" points="3783.03,-191.27 3790.89,-184.17 3780.31,-184.82 3783.03,-191.27"/>
</a>
</g>
</g>
<!-- Node86&#45;&gt;Node71 -->
<g id="edge49_Node000086_Node000071" class="edge">
<title>Node86&#45;&gt;Node71</title>
<g id="a_edge49_Node000086_Node000071"><a xlink:title=" ">
<path fill="none" stroke="#63b8ff" d="M3763.78,-278.15C3725.69,-272.1 3667.88,-260.22 3621.5,-239 3594.46,-226.63 3567.18,-205.61 3550.08,-191.17"/>
<polygon fill="#63b8ff" stroke="#63b8ff" points="3551.98,-188.18 3542.12,-184.3 3547.4,-193.48 3551.98,-188.18"/>
</a>
</g>
</g>
<!-- Node86&#45;&gt;Node83 -->
<g id="edge52_Node000086_Node000083" class="edge">
<title>Node86&#45;&gt;Node83</title>
<g id="a_edge52_Node000086_Node000083"><a xlink:title=" ">
<path fill="none" stroke="#63b8ff" d="M3785.38,-274.98C3766.15,-266.42 3736.27,-253.11 3714.19,-243.28"/>
<polygon fill="#63b8ff" stroke="#63b8ff" points="3715.53,-240.04 3704.97,-239.17 3712.68,-246.44 3715.53,-240.04"/>
</a>
</g>
</g>
<!-- Node86&#45;&gt;Node85 -->
<g id="edge54_Node000086_Node000085" class="edge">
<title>Node86&#45;&gt;Node85</title>
<g id="a_edge54_Node000086_Node000085"><a xlink:title=" ">
<path fill="none" stroke="#63b8ff" d="M3821.96,-274.88C3834.97,-267.38 3851.78,-255.18 3859.5,-239 3868.32,-220.52 3850.85,-202.16 3834.57,-189.97"/>
<polygon fill="#63b8ff" stroke="#63b8ff" points="3836.51,-187.06 3826.31,-184.19 3832.49,-192.79 3836.51,-187.06"/>
</a>
</g>
</g>
<!-- Node87 -->
<g id="Node000087" class="node">
<title>Node87</title>
<g id="a_Node000087"><a xlink:href="anyp_2forward_8h.html" target="_top" xlink:title=" ">
<polygon fill="#fff0f0" stroke="red" points="4232.5,-239 4142.5,-239 4142.5,-220 4232.5,-220 4232.5,-239"/>
<text text-anchor="middle" x="4187.5" y="-227" font-family="Helvetica,sans-Serif" font-size="10.00">anyp/forward.h</text>
</a>
</g>
</g>
<!-- Node86&#45;&gt;Node87 -->
<g id="edge46_Node000086_Node000087" class="edge">
<title>Node86&#45;&gt;Node87</title>
<g id="a_edge46_Node000086_Node000087"><a xlink:title=" ">
<path fill="none" stroke="#63b8ff" d="M3845.14,-276.45C3848.3,-275.95 3851.45,-275.46 3854.5,-275 3975.01,-256.99 4008.07,-256.72 4132.52,-239.1"/>
<polygon fill="#63b8ff" stroke="#63b8ff" points="4133.03,-242.57 4142.43,-237.69 4132.04,-235.64 4133.03,-242.57"/>
</a>
</g>
</g>
<!-- Node88 -->
<g id="Node000088" class="node">
<title>Node88</title>
<g id="a_Node000088"><a xlink:href="HardFun_8h.html" target="_top" xlink:title=" ">
<polygon fill="white" stroke="#666666" points="3850.5,-239 3758.5,-239 3758.5,-220 3850.5,-220 3850.5,-239"/>
<text text-anchor="middle" x="3804.5" y="-227" font-family="Helvetica,sans-Serif" font-size="10.00">base/HardFun.h</text>
</a>
</g>
</g>
<!-- Node86&#45;&gt;Node88 -->
<g id="edge47_Node000086_Node000088" class="edge">
<title>Node86&#45;&gt;Node88</title>
<g id="a_edge47_Node000086_Node000088"><a xlink:title=" ">
<path fill="none" stroke="#63b8ff" d="M3804.5,-274.75C3804.5,-267.8 3804.5,-257.85 3804.5,-249.13"/>
<polygon fill="#63b8ff" stroke="#63b8ff" points="3808,-249.09 3804.5,-239.09 3801,-249.09 3808,-249.09"/>
</a>
</g>
</g>
<!-- Node89 -->
<g id="Node000089" class="node">
<title>Node89</title>
<g id="a_Node000089"><a xlink:href="openssl_8h.html" target="_top" xlink:title=" ">
<polygon fill="#fff0f0" stroke="red" points="4083,-184 3980,-184 3980,-165 4083,-165 4083,-184"/>
<text text-anchor="middle" x="4031.5" y="-172" font-family="Helvetica,sans-Serif" font-size="10.00">compat/openssl.h</text>
</a>
</g>
</g>
<!-- Node86&#45;&gt;Node89 -->
<g id="edge48_Node000086_Node000089" class="edge">
<title>Node86&#45;&gt;Node89</title>
<g id="a_edge48_Node000086_Node000089"><a xlink:title=" ">
<path fill="none" stroke="#63b8ff" d="M3845.13,-275.35C3887.39,-266.4 3950.3,-251.63 3971.5,-239 3991.36,-227.18 4008.83,-206.93 4019.73,-192.48"/>
<polygon fill="#63b8ff" stroke="#63b8ff" points="4022.58,-194.5 4025.62,-184.36 4016.92,-190.39 4022.58,-194.5"/>
</a>
</g>
</g>
<!-- Node91 -->
<g id="Node000091" class="node">
<title>Node91</title>
<g id="a_Node000091"><a xlink:href="security_2forward_8h.html" target="_top" xlink:title=" ">
<polygon fill="#fff0f0" stroke="red" points="4124,-239 4019,-239 4019,-220 4124,-220 4124,-239"/>
<text text-anchor="middle" x="4071.5" y="-227" font-family="Helvetica,sans-Serif" font-size="10.00">security/forward.h</text>
</a>
</g>
</g>
<!-- Node86&#45;&gt;Node91 -->
<g id="edge50_Node000086_Node000091" class="edge">
<title>Node86&#45;&gt;Node91</title>
<g id="a_edge50_Node000086_Node000091"><a xlink:title=" ">
<path fill="none" stroke="#63b8ff" d="M3845.05,-275.45C3891.42,-266.25 3967.47,-251.15 4018.49,-241.02"/>
<polygon fill="#63b8ff" stroke="#63b8ff" points="4019.22,-244.45 4028.35,-239.07 4017.86,-237.58 4019.22,-244.45"/>
</a>
</g>
</g>
<!-- Node101 -->
<g id="Node000101" class="node">
<title>Node101</title>
<g id="a_Node000101"><a xlink:title=" ">
<polygon fill="#e0e0e0" stroke="#999999" points="3962.5,-239 3906.5,-239 3906.5,-220 3962.5,-220 3962.5,-239"/>
<text text-anchor="middle" x="3934.5" y="-227" font-family="Helvetica,sans-Serif" font-size="10.00">optional</text>
</a>
</g>
</g>
<!-- Node86&#45;&gt;Node101 -->
<g id="edge53_Node000086_Node000101" class="edge">
<title>Node86&#45;&gt;Node101</title>
<g id="a_edge53_Node000086_Node000101"><a xlink:title=" ">
<path fill="none" stroke="#63b8ff" d="M3825.39,-274.98C3846.58,-266.34 3879.63,-252.87 3903.8,-243.02"/>
<polygon fill="#63b8ff" stroke="#63b8ff" points="3905.29,-246.19 3913.23,-239.17 3902.65,-239.7 3905.29,-246.19"/>
</a>
</g>
</g>
<!-- Node91&#45;&gt;Node89 -->
<g id="edge51_Node000091_Node000089" class="edge">
<title>Node91&#45;&gt;Node89</title>
<g id="a_edge51_Node000091_Node000089"><a xlink:title=" ">
<path fill="none" stroke="#63b8ff" d="M4064.89,-219.75C4059.24,-212.26 4050.96,-201.28 4044.05,-192.13"/>
<polygon fill="#63b8ff" stroke="#63b8ff" points="4046.8,-189.96 4037.98,-184.09 4041.21,-194.18 4046.8,-189.96"/>
</a>
</g>
</g>
</g>
</svg>

<g id="navigator" transform="translate(0 0)" fill="#404254">
  <rect fill="#f2f5e9" fill-opacity="0.5" stroke="#606060" stroke-width=".5" x="0" y="0" width="60" height="60"/>
  <use id="zoomplus" xlink:href="#zoomPlus" x="17" y="9" onmousedown="handleZoom(evt,'in')"/>
  <use id="zoomminus" xlink:href="#zoomMin" x="42" y="9" onmousedown="handleZoom(evt,'out')"/>
  <use id="reset" xlink:href="#resetDef" x="30" y="36" onmousedown="handleReset()"/>
   <use id="arrowup" xlink:href="#arrowUp" x="0" y="0" onmousedown="handlePan(0,-1)"/>
  <use id="arrowright" xlink:href="#arrowRight" x="0" y="0" onmousedown="handlePan(1,0)"/>
  <use id="arrowdown" xlink:href="#arrowDown" x="0" y="0" onmousedown="handlePan(0,1)"/>
  <use id="arrowleft" xlink:href="#arrowLeft" x="0" y="0" onmousedown="handlePan(-1,0)"/>
</g>
<svg viewBox="0 0 15 15" width="100%" height="30px" preserveAspectRatio="xMaxYMin meet">
 <g id="arrow_out" transform="scale(0.3 0.3)">
  <a xlink:href="crtd__message_8cc__incl_org.svg" target="_base">
   <rect id="button" ry="5" rx="5" y="6" x="6" height="38" width="38"
        fill="#f2f5e9" fill-opacity="0.5" stroke="#606060" stroke-width="1.0"/>
   <path id="arrow"
     d="M 11.500037,31.436501 C 11.940474,20.09759 22.043105,11.32322 32.158766,21.979434 L 37.068811,17.246167 C 37.068811,17.246167 37.088388,32 37.088388,32 L 22.160133,31.978069 C 22.160133,31.978069 26.997745,27.140456 26.997745,27.140456 C 18.528582,18.264221 13.291696,25.230495 11.500037,31.436501 z"
     style="fill:#404040;"/>
  </a>
 </g>
</svg>

<style type='text/css'>
<![CDATA[
[data-mouse-over-selected='false'] { opacity: 0.7; }
[data-mouse-over-selected='true']  { opacity: 1.0; }
]]>
</style>
<script type="application/ecmascript"><![CDATA[
document.addEventListener('DOMContentLoaded', (event) => {
  highlightEdges();
  highlightAdjacentNodes();
});
]]></script>
</svg>
