<?xml version="1.0" encoding="UTF-8" standalone="no"?>
<!DOCTYPE svg PUBLIC "-//W3C//DTD SVG 1.1//EN"
 "http://www.w3.org/Graphics/SVG/1.1/DTD/svg11.dtd">
<!-- Generated by graphviz version 2.43.0 (0)
 -->
<!-- Title: squid/src/log/CustomLog.h Pages: 1 -->
<!--zoomable 159 -->

<svg id="main" version="1.1" xmlns="http://www.w3.org/2000/svg" xmlns:xlink="http://www.w3.org/1999/xlink" xml:space="preserve" onload="init(evt)">
<style type="text/css"><![CDATA[
.node, .edge {opacity: 0.7;}
.node.selected, .edge.selected {opacity: 1;}
.edge:hover path { stroke: red; }
.edge:hover polygon { stroke: red; fill: red; }
]]></style>

<defs>
  <circle id="rim" cx="0" cy="0" r="7"/>
  <circle id="rim2" cx="0" cy="0" r="3.5"/>
  <g id="zoomPlus">
    <use xlink:href="#rim" fill="#404040"><set attributeName="fill" to="#808080" begin="zoomplus.mouseover" end="zoomplus.mouseout"/></use>
    <path d="M-4,0h8M0,-4v8" fill="none" stroke="white" stroke-width="1.5" pointer-events="none"/>
  </g>
  <g id="zoomMin">
    <use xlink:href="#rim" fill="#404040"><set attributeName="fill" to="#808080" begin="zoomminus.mouseover" end="zoomminus.mouseout"/></use>
    <path d="M-4,0h8" fill="none" stroke="white" stroke-width="1.5" pointer-events="none"/>
  </g>
  <g id="arrowUp" transform="translate(30 24)">
    <use xlink:href="#rim"/>
    <path pointer-events="none" fill="none" stroke="white" stroke-width="1.5" d="M0,-3.0v7 M-2.5,-0.5L0,-3.0L2.5,-0.5"/>
  </g>
  <g id="arrowRight" transform="rotate(90) translate(36 -43)">
    <use xlink:href="#rim"/>
    <path pointer-events="none" fill="none" stroke="white" stroke-width="1.5" d="M0,-3.0v7 M-2.5,-0.5L0,-3.0L2.5,-0.5"/>
  </g>
  <g id="arrowDown" transform="rotate(180) translate(-30 -48)">
    <use xlink:href="#rim"/>
    <path pointer-events="none" fill="none" stroke="white" stroke-width="1.5" d="M0,-3.0v7 M-2.5,-0.5L0,-3.0L2.5,-0.5"/>
  </g>
  <g id="arrowLeft" transform="rotate(270) translate(-36 17)">
    <use xlink:href="#rim"/>
    <path pointer-events="none" fill="none" stroke="white" stroke-width="1.5" d="M0,-3.0v7 M-2.5,-0.5L0,-3.0L2.5,-0.5"/>
  </g>
  <g id="resetDef">
    <use xlink:href="#rim2" fill="#404040"><set attributeName="fill" to="#808080" begin="reset.mouseover" end="reset.mouseout"/></use>
  </g>
</defs>
<script type="application/ecmascript">
var viewWidth = 956;
var viewHeight = 159;
var sectionId = 'dynsection-1';
</script>
<script type="application/ecmascript" xlink:href="svg.min.js"/>
<svg id="graph" class="graph">
<g id="viewport">
<title>squid/src/log/CustomLog.h</title>
<!-- Node1 -->
<g id="Node000001" class="node">
<title>Node1</title>
<g id="a_Node000001"><a xlink:title=" ">
<polygon fill="#999999" stroke="#666666" points="495.5,-151 350.5,-151 350.5,-132 495.5,-132 495.5,-151"/>
<text text-anchor="middle" x="423" y="-139" font-family="Helvetica,sans-Serif" font-size="10.00">squid/src/log/CustomLog.h</text>
</a>
</g>
</g>
<!-- Node2 -->
<g id="Node000002" class="node">
<title>Node2</title>
<g id="a_Node000002"><a xlink:href="icap__log_8cc.html" target="_top" xlink:title=" ">
<polygon fill="white" stroke="#666666" points="116,-96 0,-96 0,-66 116,-66 116,-96"/>
<text text-anchor="start" x="8" y="-84" font-family="Helvetica,sans-Serif" font-size="10.00">squid/src/adaptation</text>
<text text-anchor="middle" x="58" y="-73" font-family="Helvetica,sans-Serif" font-size="10.00">/icap/icap_log.cc</text>
</a>
</g>
</g>
<!-- Node1&#45;&gt;Node2 -->
<g id="edge1_Node000001_Node000002" class="edge">
<title>Node1&#45;&gt;Node2</title>
<g id="a_edge1_Node000001_Node000002"><a xlink:title=" ">
<path fill="none" stroke="#63b8ff" d="M348.39,-130.58C287.99,-122.25 200.81,-109.57 125,-96 122.08,-95.48 119.08,-94.92 116.06,-94.35"/>
<polygon fill="#63b8ff" stroke="#63b8ff" points="348.21,-134.08 358.59,-131.98 349.16,-127.15 348.21,-134.08"/>
</a>
</g>
</g>
<!-- Node3 -->
<g id="Node000003" class="node">
<title>Node3</title>
<g id="a_Node000003"><a xlink:href="cache__cf_8cc.html" target="_top" xlink:title=" ">
<polygon fill="white" stroke="#666666" points="253.5,-90.5 134.5,-90.5 134.5,-71.5 253.5,-71.5 253.5,-90.5"/>
<text text-anchor="middle" x="194" y="-78.5" font-family="Helvetica,sans-Serif" font-size="10.00">squid/src/cache_cf.cc</text>
</a>
</g>
</g>
<!-- Node1&#45;&gt;Node3 -->
<g id="edge2_Node000001_Node000003" class="edge">
<title>Node1&#45;&gt;Node3</title>
<g id="a_edge2_Node000001_Node000003"><a xlink:title=" ">
<path fill="none" stroke="#63b8ff" d="M379.81,-129.47C335.54,-118.16 267.64,-100.81 227.34,-90.52"/>
<polygon fill="#63b8ff" stroke="#63b8ff" points="379.15,-132.91 389.7,-131.99 380.88,-126.13 379.15,-132.91"/>
</a>
</g>
</g>
<!-- Node4 -->
<g id="Node000004" class="node">
<title>Node4</title>
<g id="a_Node000004"><a xlink:href="FormatSquidCustom_8cc.html" target="_top" xlink:title=" ">
<polygon fill="white" stroke="#666666" points="414.5,-96 271.5,-96 271.5,-66 414.5,-66 414.5,-96"/>
<text text-anchor="start" x="279.5" y="-84" font-family="Helvetica,sans-Serif" font-size="10.00">squid/src/log/FormatSquid</text>
<text text-anchor="middle" x="343" y="-73" font-family="Helvetica,sans-Serif" font-size="10.00">Custom.cc</text>
</a>
</g>
</g>
<!-- Node1&#45;&gt;Node4 -->
<g id="edge3_Node000001_Node000004" class="edge">
<title>Node1&#45;&gt;Node4</title>
<g id="a_edge3_Node000001_Node000004"><a xlink:title=" ">
<path fill="none" stroke="#63b8ff" d="M402.85,-125.77C390.42,-116.68 374.57,-105.09 362.3,-96.11"/>
<polygon fill="#63b8ff" stroke="#63b8ff" points="401.06,-128.79 411.2,-131.87 405.19,-123.14 401.06,-128.79"/>
</a>
</g>
</g>
<!-- Node5 -->
<g id="Node000005" class="node">
<title>Node5</title>
<g id="a_Node000005"><a xlink:href="TcpLogger_8cc.html" target="_top" xlink:title=" ">
<polygon fill="white" stroke="#666666" points="575.5,-90.5 432.5,-90.5 432.5,-71.5 575.5,-71.5 575.5,-90.5"/>
<text text-anchor="middle" x="504" y="-78.5" font-family="Helvetica,sans-Serif" font-size="10.00">squid/src/log/TcpLogger.cc</text>
</a>
</g>
</g>
<!-- Node1&#45;&gt;Node5 -->
<g id="edge4_Node000001_Node000005" class="edge">
<title>Node1&#45;&gt;Node5</title>
<g id="a_edge4_Node000001_Node000005"><a xlink:title=" ">
<path fill="none" stroke="#63b8ff" d="M443.29,-125.85C458.63,-114.77 479.18,-99.93 492,-90.67"/>
<polygon fill="#63b8ff" stroke="#63b8ff" points="441.01,-123.18 434.95,-131.87 445.11,-128.85 441.01,-123.18"/>
</a>
</g>
</g>
<!-- Node6 -->
<g id="Node000006" class="node">
<title>Node6</title>
<g id="a_Node000006"><a xlink:href="access__log_8cc.html" target="_top" xlink:title=" ">
<polygon fill="white" stroke="#666666" points="708,-96 594,-96 594,-66 708,-66 708,-96"/>
<text text-anchor="start" x="602" y="-84" font-family="Helvetica,sans-Serif" font-size="10.00">squid/src/log/access</text>
<text text-anchor="middle" x="651" y="-73" font-family="Helvetica,sans-Serif" font-size="10.00">_log.cc</text>
</a>
</g>
</g>
<!-- Node1&#45;&gt;Node6 -->
<g id="edge5_Node000001_Node000006" class="edge">
<title>Node1&#45;&gt;Node6</title>
<g id="a_edge5_Node000001_Node000006"><a xlink:title=" ">
<path fill="none" stroke="#63b8ff" d="M466.1,-129.44C502.98,-119.98 556.28,-106.3 596.19,-96.06"/>
<polygon fill="#63b8ff" stroke="#63b8ff" points="464.97,-126.12 456.15,-131.99 466.71,-132.9 464.97,-126.12"/>
</a>
</g>
</g>
<!-- Node7 -->
<g id="Node000007" class="node">
<title>Node7</title>
<g id="a_Node000007"><a xlink:href="KeyLog_8h.html" target="_top" xlink:title=" ">
<polygon fill="white" stroke="#666666" points="828,-96 726,-96 726,-66 828,-66 828,-96"/>
<text text-anchor="start" x="734" y="-84" font-family="Helvetica,sans-Serif" font-size="10.00">squid/src/security</text>
<text text-anchor="middle" x="777" y="-73" font-family="Helvetica,sans-Serif" font-size="10.00">/KeyLog.h</text>
</a>
</g>
</g>
<!-- Node1&#45;&gt;Node7 -->
<g id="edge6_Node000001_Node000007" class="edge">
<title>Node1&#45;&gt;Node7</title>
<g id="a_edge6_Node000001_Node000007"><a xlink:title=" ">
<path fill="none" stroke="#63b8ff" d="M499.3,-130.64C558.81,-122.54 643.44,-110.13 717,-96 719.94,-95.44 722.96,-94.83 726,-94.19"/>
<polygon fill="#63b8ff" stroke="#63b8ff" points="498.67,-127.19 489.23,-132 499.61,-134.13 498.67,-127.19"/>
</a>
</g>
</g>
<!-- Node8 -->
<g id="Node000008" class="node">
<title>Node8</title>
<g id="a_Node000008"><a xlink:href="client__side_8cc.html" target="_top" xlink:title=" ">
<polygon fill="white" stroke="#666666" points="707.5,-24.5 578.5,-24.5 578.5,-5.5 707.5,-5.5 707.5,-24.5"/>
<text text-anchor="middle" x="643" y="-12.5" font-family="Helvetica,sans-Serif" font-size="10.00">squid/src/client_side.cc</text>
</a>
</g>
</g>
<!-- Node7&#45;&gt;Node8 -->
<g id="edge7_Node000007_Node000008" class="edge">
<title>Node7&#45;&gt;Node8</title>
<g id="a_edge7_Node000007_Node000008"><a xlink:title=" ">
<path fill="none" stroke="#63b8ff" d="M738.52,-61.62C712.95,-49.41 680.56,-33.94 660.83,-24.52"/>
<polygon fill="#63b8ff" stroke="#63b8ff" points="737.06,-64.8 747.59,-65.95 740.08,-58.49 737.06,-64.8"/>
</a>
</g>
</g>
<!-- Node9 -->
<g id="Node000009" class="node">
<title>Node9</title>
<g id="a_Node000009"><a xlink:href="KeyLog_8cc.html" target="_top" xlink:title=" ">
<polygon fill="white" stroke="#666666" points="828,-30 726,-30 726,0 828,0 828,-30"/>
<text text-anchor="start" x="734" y="-18" font-family="Helvetica,sans-Serif" font-size="10.00">squid/src/security</text>
<text text-anchor="middle" x="777" y="-7" font-family="Helvetica,sans-Serif" font-size="10.00">/KeyLog.cc</text>
</a>
</g>
</g>
<!-- Node7&#45;&gt;Node9 -->
<g id="edge8_Node000007_Node000009" class="edge">
<title>Node7&#45;&gt;Node9</title>
<g id="a_edge8_Node000007_Node000009"><a xlink:title=" ">
<path fill="none" stroke="#63b8ff" d="M777,-55.54C777,-46.96 777,-37.61 777,-30.16"/>
<polygon fill="#63b8ff" stroke="#63b8ff" points="773.5,-55.8 777,-65.8 780.5,-55.8 773.5,-55.8"/>
</a>
</g>
</g>
<!-- Node10 -->
<g id="Node000010" class="node">
<title>Node10</title>
<g id="a_Node000010"><a xlink:href="KeyLogger_8cc.html" target="_top" xlink:title=" ">
<polygon fill="white" stroke="#666666" points="948,-30 846,-30 846,0 948,0 948,-30"/>
<text text-anchor="start" x="854" y="-18" font-family="Helvetica,sans-Serif" font-size="10.00">squid/src/security</text>
<text text-anchor="middle" x="897" y="-7" font-family="Helvetica,sans-Serif" font-size="10.00">/KeyLogger.cc</text>
</a>
</g>
</g>
<!-- Node7&#45;&gt;Node10 -->
<g id="edge9_Node000007_Node000010" class="edge">
<title>Node7&#45;&gt;Node10</title>
<g id="a_edge9_Node000007_Node000010"><a xlink:title=" ">
<path fill="none" stroke="#63b8ff" d="M812.17,-61.24C830.9,-51.25 853.55,-39.18 870.73,-30.01"/>
<polygon fill="#63b8ff" stroke="#63b8ff" points="810.51,-58.16 803.33,-65.95 813.81,-64.34 810.51,-58.16"/>
</a>
</g>
</g>
</g>
</svg>

<g id="navigator" transform="translate(0 0)" fill="#404254">
  <rect fill="#f2f5e9" fill-opacity="0.5" stroke="#606060" stroke-width=".5" x="0" y="0" width="60" height="60"/>
  <use id="zoomplus" xlink:href="#zoomPlus" x="17" y="9" onmousedown="handleZoom(evt,'in')"/>
  <use id="zoomminus" xlink:href="#zoomMin" x="42" y="9" onmousedown="handleZoom(evt,'out')"/>
  <use id="reset" xlink:href="#resetDef" x="30" y="36" onmousedown="handleReset()"/>
   <use id="arrowup" xlink:href="#arrowUp" x="0" y="0" onmousedown="handlePan(0,-1)"/>
  <use id="arrowright" xlink:href="#arrowRight" x="0" y="0" onmousedown="handlePan(1,0)"/>
  <use id="arrowdown" xlink:href="#arrowDown" x="0" y="0" onmousedown="handlePan(0,1)"/>
  <use id="arrowleft" xlink:href="#arrowLeft" x="0" y="0" onmousedown="handlePan(-1,0)"/>
</g>
<svg viewBox="0 0 15 15" width="100%" height="30px" preserveAspectRatio="xMaxYMin meet">
 <g id="arrow_out" transform="scale(0.3 0.3)">
  <a xlink:href="CustomLog_8h__dep__incl_org.svg" target="_base">
   <rect id="button" ry="5" rx="5" y="6" x="6" height="38" width="38"
        fill="#f2f5e9" fill-opacity="0.5" stroke="#606060" stroke-width="1.0"/>
   <path id="arrow"
     d="M 11.500037,31.436501 C 11.940474,20.09759 22.043105,11.32322 32.158766,21.979434 L 37.068811,17.246167 C 37.068811,17.246167 37.088388,32 37.088388,32 L 22.160133,31.978069 C 22.160133,31.978069 26.997745,27.140456 26.997745,27.140456 C 18.528582,18.264221 13.291696,25.230495 11.500037,31.436501 z"
     style="fill:#404040;"/>
  </a>
 </g>
</svg>

<style type='text/css'>
<![CDATA[
[data-mouse-over-selected='false'] { opacity: 0.7; }
[data-mouse-over-selected='true']  { opacity: 1.0; }
]]>
</style>
<script type="application/ecmascript"><![CDATA[
document.addEventListener('DOMContentLoaded', (event) => {
  highlightEdges();
  highlightAdjacentNodes();
});
]]></script>
</svg>
