<?xml version="1.0" encoding="UTF-8" standalone="no"?>
<!DOCTYPE svg PUBLIC "-//W3C//DTD SVG 1.1//EN"
 "http://www.w3.org/Graphics/SVG/1.1/DTD/svg11.dtd">
<!-- Generated by graphviz version 2.43.0 (0)
 -->
<!-- Title: squid/compat/debug.h Pages: 1 -->
<svg width="6642pt" height="258pt"
 viewBox="0.00 0.00 6641.50 258.00" xmlns="http://www.w3.org/2000/svg" xmlns:xlink="http://www.w3.org/1999/xlink">
<g id="graph0" class="graph" transform="scale(1 1) rotate(0) translate(4 254)">
<title>squid/compat/debug.h</title>
<!-- Node1 -->
<g id="Node000001" class="node">
<title>Node1</title>
<g id="a_Node000001"><a xlink:title=" ">
<polygon fill="#999999" stroke="#666666" points="3522.5,-250 3397.5,-250 3397.5,-231 3522.5,-231 3522.5,-250"/>
<text text-anchor="middle" x="3460" y="-238" font-family="Helvetica,sans-Serif" font-size="10.00">squid/compat/debug.h</text>
</a>
</g>
</g>
<!-- Node2 -->
<g id="Node000002" class="node">
<title>Node2</title>
<g id="a_Node000002"><a xlink:href="compat_8h.html" target="_top" xlink:title=" ">
<polygon fill="white" stroke="#666666" points="3478.5,-195 3347.5,-195 3347.5,-176 3478.5,-176 3478.5,-195"/>
<text text-anchor="middle" x="3413" y="-183" font-family="Helvetica,sans-Serif" font-size="10.00">squid/compat/compat.h</text>
</a>
</g>
</g>
<!-- Node1&#45;&gt;Node2 -->
<g id="edge1_Node000001_Node000002" class="edge">
<title>Node1&#45;&gt;Node2</title>
<g id="a_edge1_Node000001_Node000002"><a xlink:title=" ">
<path fill="none" stroke="#63b8ff" d="M3445.58,-223.24C3437.34,-213.95 3427.35,-202.68 3420.62,-195.09"/>
<polygon fill="#63b8ff" stroke="#63b8ff" points="3442.99,-225.59 3452.24,-230.75 3448.22,-220.94 3442.99,-225.59"/>
</a>
</g>
</g>
<!-- Node6 -->
<g id="Node000006" class="node">
<title>Node6</title>
<g id="a_Node000006"><a xlink:href="compat_2debug_8cc.html" target="_top" xlink:title=" ">
<polygon fill="white" stroke="#666666" points="6633.5,-79.5 6504.5,-79.5 6504.5,-60.5 6633.5,-60.5 6633.5,-79.5"/>
<text text-anchor="middle" x="6569" y="-67.5" font-family="Helvetica,sans-Serif" font-size="10.00">squid/compat/debug.cc</text>
</a>
</g>
</g>
<!-- Node1&#45;&gt;Node6 -->
<g id="edge52_Node000001_Node000006" class="edge">
<title>Node1&#45;&gt;Node6</title>
<g id="a_edge52_Node000001_Node000006"><a xlink:title=" ">
<path fill="none" stroke="#63b8ff" d="M3532.66,-239.51C3870.27,-238.78 5319.13,-227.1 6496,-85 6507.02,-83.67 6518.87,-81.65 6529.76,-79.56"/>
<polygon fill="#63b8ff" stroke="#63b8ff" points="3532.52,-236.01 3522.53,-239.53 3532.53,-243.01 3532.52,-236.01"/>
</a>
</g>
</g>
<!-- Node3 -->
<g id="Node000003" class="node">
<title>Node3</title>
<g id="a_Node000003"><a xlink:href="compat_8cc.html" target="_top" xlink:title=" ">
<polygon fill="white" stroke="#666666" points="136,-79.5 0,-79.5 0,-60.5 136,-60.5 136,-79.5"/>
<text text-anchor="middle" x="68" y="-67.5" font-family="Helvetica,sans-Serif" font-size="10.00">squid/compat/compat.cc</text>
</a>
</g>
</g>
<!-- Node2&#45;&gt;Node3 -->
<g id="edge2_Node000002_Node000003" class="edge">
<title>Node2&#45;&gt;Node3</title>
<g id="a_edge2_Node000002_Node000003"><a xlink:title=" ">
<path fill="none" stroke="#63b8ff" d="M3337.12,-183.73C2909.17,-179.16 793.31,-153.42 145,-85 133.11,-83.75 120.29,-81.7 108.6,-79.55"/>
<polygon fill="#63b8ff" stroke="#63b8ff" points="3337.18,-187.23 3347.21,-183.84 3337.25,-180.23 3337.18,-187.23"/>
</a>
</g>
</g>
<!-- Node4 -->
<g id="Node000004" class="node">
<title>Node4</title>
<g id="a_Node000004"><a xlink:href="squid_8h.html" target="_top" xlink:title=" ">
<polygon fill="#fff0f0" stroke="red" points="3472.5,-140 3353.5,-140 3353.5,-121 3472.5,-121 3472.5,-140"/>
<text text-anchor="middle" x="3413" y="-128" font-family="Helvetica,sans-Serif" font-size="10.00">squid/include/squid.h</text>
</a>
</g>
</g>
<!-- Node2&#45;&gt;Node4 -->
<g id="edge3_Node000002_Node000004" class="edge">
<title>Node2&#45;&gt;Node4</title>
<g id="a_edge3_Node000002_Node000004"><a xlink:title=" ">
<path fill="none" stroke="#63b8ff" d="M3413,-165.66C3413,-156.93 3413,-146.99 3413,-140.09"/>
<polygon fill="#63b8ff" stroke="#63b8ff" points="3409.5,-165.75 3413,-175.75 3416.5,-165.75 3409.5,-165.75"/>
</a>
</g>
</g>
<!-- Node4&#45;&gt;Node3 -->
<g id="edge5_Node000004_Node000003" class="edge">
<title>Node4&#45;&gt;Node3</title>
<g id="a_edge5_Node000004_Node000003"><a xlink:title=" ">
<path fill="none" stroke="#63b8ff" d="M3343.28,-129.25C2899.15,-127.55 473.15,-116.84 145,-85 132.83,-83.82 119.7,-81.74 107.79,-79.54"/>
<polygon fill="#63b8ff" stroke="#63b8ff" points="3343.39,-132.75 3353.4,-129.29 3343.42,-125.75 3343.39,-132.75"/>
</a>
</g>
</g>
<!-- Node5 -->
<g id="Node000005" class="node">
<title>Node5</title>
<g id="a_Node000005"><a xlink:href="assert_8cc.html" target="_top" xlink:title=" ">
<polygon fill="white" stroke="#666666" points="6486.5,-79.5 6357.5,-79.5 6357.5,-60.5 6486.5,-60.5 6486.5,-79.5"/>
<text text-anchor="middle" x="6422" y="-67.5" font-family="Helvetica,sans-Serif" font-size="10.00">squid/compat/assert.cc</text>
</a>
</g>
</g>
<!-- Node4&#45;&gt;Node5 -->
<g id="edge4_Node000004_Node000005" class="edge">
<title>Node4&#45;&gt;Node5</title>
<g id="a_edge4_Node000004_Node000005"><a xlink:title=" ">
<path fill="none" stroke="#63b8ff" d="M3482.79,-129.17C3900.01,-127.11 6056.06,-115.08 6349,-85 6360.55,-83.81 6373.01,-81.73 6384.3,-79.53"/>
<polygon fill="#63b8ff" stroke="#63b8ff" points="3482.67,-125.67 3472.69,-129.22 3482.7,-132.67 3482.67,-125.67"/>
</a>
</g>
</g>
<!-- Node4&#45;&gt;Node6 -->
<g id="edge6_Node000004_Node000006" class="edge">
<title>Node4&#45;&gt;Node6</title>
<g id="a_edge6_Node000004_Node000006"><a xlink:title=" ">
<path fill="none" stroke="#63b8ff" d="M3482.83,-129.23C3912.33,-127.44 6187.56,-116.56 6496,-85 6507.55,-83.82 6520.01,-81.74 6531.3,-79.53"/>
<polygon fill="#63b8ff" stroke="#63b8ff" points="3482.72,-125.73 3472.73,-129.27 3482.75,-132.73 3482.72,-125.73"/>
</a>
</g>
</g>
<!-- Node7 -->
<g id="Node000007" class="node">
<title>Node7</title>
<g id="a_Node000007"><a xlink:href="eui64__aton_8c.html" target="_top" xlink:title=" ">
<polygon fill="white" stroke="#666666" points="267.5,-85 154.5,-85 154.5,-55 267.5,-55 267.5,-85"/>
<text text-anchor="start" x="162.5" y="-73" font-family="Helvetica,sans-Serif" font-size="10.00">squid/compat/eui64</text>
<text text-anchor="middle" x="211" y="-62" font-family="Helvetica,sans-Serif" font-size="10.00">_aton.c</text>
</a>
</g>
</g>
<!-- Node4&#45;&gt;Node7 -->
<g id="edge7_Node000004_Node000007" class="edge">
<title>Node4&#45;&gt;Node7</title>
<g id="a_edge7_Node000004_Node000007"><a xlink:title=" ">
<path fill="none" stroke="#63b8ff" d="M3343.01,-129.33C2908.74,-128.13 590.66,-120.15 277,-85 273.97,-84.66 270.88,-84.25 267.77,-83.77"/>
<polygon fill="#63b8ff" stroke="#63b8ff" points="3343.21,-132.83 3353.22,-129.35 3343.22,-125.83 3343.21,-132.83"/>
</a>
</g>
</g>
<!-- Node8 -->
<g id="Node000008" class="node">
<title>Node8</title>
<g id="a_Node000008"><a xlink:href="initgroups_8c.html" target="_top" xlink:title=" ">
<polygon fill="white" stroke="#666666" points="428.5,-79.5 285.5,-79.5 285.5,-60.5 428.5,-60.5 428.5,-79.5"/>
<text text-anchor="middle" x="357" y="-67.5" font-family="Helvetica,sans-Serif" font-size="10.00">squid/compat/initgroups.c</text>
</a>
</g>
</g>
<!-- Node4&#45;&gt;Node8 -->
<g id="edge8_Node000004_Node000008" class="edge">
<title>Node4&#45;&gt;Node8</title>
<g id="a_edge8_Node000004_Node000008"><a xlink:title=" ">
<path fill="none" stroke="#63b8ff" d="M3343.3,-129.11C2923.09,-126.68 735.34,-112.75 438,-85 425.21,-83.81 411.4,-81.72 398.87,-79.52"/>
<polygon fill="#63b8ff" stroke="#63b8ff" points="3343.46,-132.61 3353.48,-129.17 3343.5,-125.61 3343.46,-132.61"/>
</a>
</g>
</g>
<!-- Node9 -->
<g id="Node000009" class="node">
<title>Node9</title>
<g id="a_Node000009"><a xlink:href="memrchr_8cc.html" target="_top" xlink:title=" ">
<polygon fill="white" stroke="#666666" points="589.5,-79.5 446.5,-79.5 446.5,-60.5 589.5,-60.5 589.5,-79.5"/>
<text text-anchor="middle" x="518" y="-67.5" font-family="Helvetica,sans-Serif" font-size="10.00">squid/compat/memrchr.cc</text>
</a>
</g>
</g>
<!-- Node4&#45;&gt;Node9 -->
<g id="edge9_Node000004_Node000009" class="edge">
<title>Node4&#45;&gt;Node9</title>
<g id="a_edge9_Node000004_Node000009"><a xlink:title=" ">
<path fill="none" stroke="#63b8ff" d="M3343.22,-129.05C2936.4,-126.31 879.34,-111.28 599,-85 586.21,-83.8 572.4,-81.71 559.87,-79.51"/>
<polygon fill="#63b8ff" stroke="#63b8ff" points="3343.34,-132.55 3353.36,-129.11 3343.39,-125.55 3343.34,-132.55"/>
</a>
</g>
</g>
<!-- Node10 -->
<g id="Node000010" class="node">
<title>Node10</title>
<g id="a_Node000010"><a xlink:href="mswindows_8cc.html" target="_top" xlink:title=" ">
<polygon fill="white" stroke="#666666" points="764.5,-79.5 607.5,-79.5 607.5,-60.5 764.5,-60.5 764.5,-79.5"/>
<text text-anchor="middle" x="686" y="-67.5" font-family="Helvetica,sans-Serif" font-size="10.00">squid/compat/mswindows.cc</text>
</a>
</g>
</g>
<!-- Node4&#45;&gt;Node10 -->
<g id="edge10_Node000004_Node000010" class="edge">
<title>Node4&#45;&gt;Node10</title>
<g id="a_edge10_Node000004_Node000010"><a xlink:title=" ">
<path fill="none" stroke="#63b8ff" d="M3343.26,-129.66C2979.23,-130.26 1294.09,-130.53 774,-85 760.28,-83.8 745.47,-81.74 731.98,-79.57"/>
<polygon fill="#63b8ff" stroke="#63b8ff" points="3343.4,-133.16 3353.39,-129.64 3343.38,-126.16 3343.4,-133.16"/>
</a>
</g>
</g>
<!-- Node11 -->
<g id="Node000011" class="node">
<title>Node11</title>
<g id="a_Node000011"><a xlink:href="netdb_8cc.html" target="_top" xlink:title=" ">
<polygon fill="white" stroke="#666666" points="909.5,-79.5 782.5,-79.5 782.5,-60.5 909.5,-60.5 909.5,-79.5"/>
<text text-anchor="middle" x="846" y="-67.5" font-family="Helvetica,sans-Serif" font-size="10.00">squid/compat/netdb.cc</text>
</a>
</g>
</g>
<!-- Node4&#45;&gt;Node11 -->
<g id="edge11_Node000004_Node000011" class="edge">
<title>Node4&#45;&gt;Node11</title>
<g id="a_edge11_Node000004_Node000011"><a xlink:title=" ">
<path fill="none" stroke="#63b8ff" d="M3343.15,-128.97C2964.43,-126 1165.44,-110.64 919,-85 907.45,-83.8 895,-81.71 883.7,-79.51"/>
<polygon fill="#63b8ff" stroke="#63b8ff" points="3343.38,-132.47 3353.41,-129.05 3343.44,-125.47 3343.38,-132.47"/>
</a>
</g>
</g>
<!-- Node12 -->
<g id="Node000012" class="node">
<title>Node12</title>
<g id="a_Node000012"><a xlink:href="select_8cc.html" target="_top" xlink:title=" ">
<polygon fill="white" stroke="#666666" points="1056,-79.5 928,-79.5 928,-60.5 1056,-60.5 1056,-79.5"/>
<text text-anchor="middle" x="992" y="-67.5" font-family="Helvetica,sans-Serif" font-size="10.00">squid/compat/select.cc</text>
</a>
</g>
</g>
<!-- Node4&#45;&gt;Node12 -->
<g id="edge12_Node000004_Node000012" class="edge">
<title>Node4&#45;&gt;Node12</title>
<g id="a_edge12_Node000004_Node000012"><a xlink:title=" ">
<path fill="none" stroke="#63b8ff" d="M3343.13,-129.78C3003.57,-130.91 1523.41,-132.95 1065,-85 1053.45,-83.79 1041,-81.7 1029.71,-79.5"/>
<polygon fill="#63b8ff" stroke="#63b8ff" points="3343.33,-133.28 3353.31,-129.75 3343.3,-126.28 3343.33,-133.28"/>
</a>
</g>
</g>
<!-- Node13 -->
<g id="Node000013" class="node">
<title>Node13</title>
<g id="a_Node000013"><a xlink:href="shm_8cc.html" target="_top" xlink:title=" ">
<polygon fill="white" stroke="#666666" points="1194,-79.5 1074,-79.5 1074,-60.5 1194,-60.5 1194,-79.5"/>
<text text-anchor="middle" x="1134" y="-67.5" font-family="Helvetica,sans-Serif" font-size="10.00">squid/compat/shm.cc</text>
</a>
</g>
</g>
<!-- Node4&#45;&gt;Node13 -->
<g id="edge13_Node000004_Node000013" class="edge">
<title>Node4&#45;&gt;Node13</title>
<g id="a_edge13_Node000004_Node000013"><a xlink:title=" ">
<path fill="none" stroke="#63b8ff" d="M3343.06,-129.76C3015.74,-130.72 1633.21,-131.87 1204,-85 1193.04,-83.8 1181.23,-81.75 1170.5,-79.57"/>
<polygon fill="#63b8ff" stroke="#63b8ff" points="3343.35,-133.26 3353.34,-129.73 3343.33,-126.26 3343.35,-133.26"/>
</a>
</g>
</g>
<!-- Node14 -->
<g id="Node000014" class="node">
<title>Node14</title>
<g id="a_Node000014"><a xlink:href="socket_8cc.html" target="_top" xlink:title=" ">
<polygon fill="white" stroke="#666666" points="1343.5,-79.5 1212.5,-79.5 1212.5,-60.5 1343.5,-60.5 1343.5,-79.5"/>
<text text-anchor="middle" x="1278" y="-67.5" font-family="Helvetica,sans-Serif" font-size="10.00">squid/compat/socket.cc</text>
</a>
</g>
</g>
<!-- Node4&#45;&gt;Node14 -->
<g id="edge14_Node000004_Node000014" class="edge">
<title>Node4&#45;&gt;Node14</title>
<g id="a_edge14_Node000004_Node000014"><a xlink:title=" ">
<path fill="none" stroke="#63b8ff" d="M3342.98,-129.52C3029.32,-129.37 1751.44,-126.21 1353,-85 1341.27,-83.79 1328.64,-81.73 1317.14,-79.55"/>
<polygon fill="#63b8ff" stroke="#63b8ff" points="3343.29,-133.02 3353.29,-129.52 3343.29,-126.02 3343.29,-133.02"/>
</a>
</g>
</g>
<!-- Node15 -->
<g id="Node000015" class="node">
<title>Node15</title>
<g id="a_Node000015"><a xlink:href="statvfs_8cc.html" target="_top" xlink:title=" ">
<polygon fill="white" stroke="#666666" points="1494.5,-79.5 1361.5,-79.5 1361.5,-60.5 1494.5,-60.5 1494.5,-79.5"/>
<text text-anchor="middle" x="1428" y="-67.5" font-family="Helvetica,sans-Serif" font-size="10.00">squid/compat/statvfs.cc</text>
</a>
</g>
</g>
<!-- Node4&#45;&gt;Node15 -->
<g id="edge15_Node000004_Node000015" class="edge">
<title>Node4&#45;&gt;Node15</title>
<g id="a_edge15_Node000004_Node000015"><a xlink:title=" ">
<path fill="none" stroke="#63b8ff" d="M3342.78,-129.36C3043.25,-128.52 1871.05,-122.84 1504,-85 1492.12,-83.78 1479.32,-81.71 1467.67,-79.54"/>
<polygon fill="#63b8ff" stroke="#63b8ff" points="3343.05,-132.86 3353.06,-129.39 3343.07,-125.86 3343.05,-132.86"/>
</a>
</g>
</g>
<!-- Node16 -->
<g id="Node000016" class="node">
<title>Node16</title>
<g id="a_Node000016"><a xlink:href="strerror_8c.html" target="_top" xlink:title=" ">
<polygon fill="white" stroke="#666666" points="1641.5,-79.5 1512.5,-79.5 1512.5,-60.5 1641.5,-60.5 1641.5,-79.5"/>
<text text-anchor="middle" x="1577" y="-67.5" font-family="Helvetica,sans-Serif" font-size="10.00">squid/compat/strerror.c</text>
</a>
</g>
</g>
<!-- Node4&#45;&gt;Node16 -->
<g id="edge16_Node000004_Node000016" class="edge">
<title>Node4&#45;&gt;Node16</title>
<g id="a_edge16_Node000004_Node000016"><a xlink:title=" ">
<path fill="none" stroke="#63b8ff" d="M3343.08,-129.24C3058.65,-127.97 1987.63,-120.86 1651,-85 1639.43,-83.77 1626.96,-81.7 1615.61,-79.53"/>
<polygon fill="#63b8ff" stroke="#63b8ff" points="3343.25,-132.75 3353.26,-129.29 3343.28,-125.75 3343.25,-132.75"/>
</a>
</g>
</g>
<!-- Node17 -->
<g id="Node000017" class="node">
<title>Node17</title>
<g id="a_Node000017"><a xlink:href="strtoll_8c.html" target="_top" xlink:title=" ">
<polygon fill="white" stroke="#666666" points="1782,-79.5 1660,-79.5 1660,-60.5 1782,-60.5 1782,-79.5"/>
<text text-anchor="middle" x="1721" y="-67.5" font-family="Helvetica,sans-Serif" font-size="10.00">squid/compat/strtoll.c</text>
</a>
</g>
</g>
<!-- Node4&#45;&gt;Node17 -->
<g id="edge17_Node000004_Node000017" class="edge">
<title>Node4&#45;&gt;Node17</title>
<g id="a_edge17_Node000004_Node000017"><a xlink:title=" ">
<path fill="none" stroke="#63b8ff" d="M3343.37,-129.14C3073.93,-127.5 2099.49,-119.29 1792,-85 1780.89,-83.76 1768.92,-81.69 1758.04,-79.52"/>
<polygon fill="#63b8ff" stroke="#63b8ff" points="3343.39,-132.64 3353.41,-129.2 3343.43,-125.64 3343.39,-132.64"/>
</a>
</g>
</g>
<!-- Node18 -->
<g id="Node000018" class="node">
<title>Node18</title>
<g id="a_Node000018"><a xlink:href="tempnam_8c.html" target="_top" xlink:title=" ">
<polygon fill="white" stroke="#666666" points="1941.5,-79.5 1800.5,-79.5 1800.5,-60.5 1941.5,-60.5 1941.5,-79.5"/>
<text text-anchor="middle" x="1871" y="-67.5" font-family="Helvetica,sans-Serif" font-size="10.00">squid/compat/tempnam.c</text>
</a>
</g>
</g>
<!-- Node4&#45;&gt;Node18 -->
<g id="edge18_Node000004_Node000018" class="edge">
<title>Node4&#45;&gt;Node18</title>
<g id="a_edge18_Node000004_Node000018"><a xlink:title=" ">
<path fill="none" stroke="#63b8ff" d="M3343.2,-128.7C3090.8,-125.59 2226.02,-113.1 1951,-85 1938.66,-83.74 1925.35,-81.69 1913.19,-79.54"/>
<polygon fill="#63b8ff" stroke="#63b8ff" points="3343.29,-132.2 3353.34,-128.82 3343.38,-125.2 3343.29,-132.2"/>
</a>
</g>
</g>
<!-- Node19 -->
<g id="Node000019" class="node">
<title>Node19</title>
<g id="a_Node000019"><a xlink:href="unistd_8cc.html" target="_top" xlink:title=" ">
<polygon fill="white" stroke="#666666" points="2088.5,-79.5 1959.5,-79.5 1959.5,-60.5 2088.5,-60.5 2088.5,-79.5"/>
<text text-anchor="middle" x="2024" y="-67.5" font-family="Helvetica,sans-Serif" font-size="10.00">squid/compat/unistd.cc</text>
</a>
</g>
</g>
<!-- Node4&#45;&gt;Node19 -->
<g id="edge19_Node000004_Node000019" class="edge">
<title>Node4&#45;&gt;Node19</title>
<g id="a_edge19_Node000004_Node000019"><a xlink:title=" ">
<path fill="none" stroke="#63b8ff" d="M3343.2,-128.55C3107.57,-125.12 2342.69,-112.12 2098,-85 2086.56,-83.73 2074.25,-81.68 2063,-79.54"/>
<polygon fill="#63b8ff" stroke="#63b8ff" points="3343.3,-132.05 3353.35,-128.7 3343.4,-125.05 3343.3,-132.05"/>
</a>
</g>
</g>
<!-- Node20 -->
<g id="Node000020" class="node">
<title>Node20</title>
<g id="a_Node000020"><a xlink:href="win32__maperror_8cc.html" target="_top" xlink:title=" ">
<polygon fill="white" stroke="#666666" points="2221.5,-85 2106.5,-85 2106.5,-55 2221.5,-55 2221.5,-85"/>
<text text-anchor="start" x="2114.5" y="-73" font-family="Helvetica,sans-Serif" font-size="10.00">squid/compat/win32</text>
<text text-anchor="middle" x="2164" y="-62" font-family="Helvetica,sans-Serif" font-size="10.00">_maperror.cc</text>
</a>
</g>
</g>
<!-- Node4&#45;&gt;Node20 -->
<g id="edge20_Node000004_Node000020" class="edge">
<title>Node4&#45;&gt;Node20</title>
<g id="a_edge20_Node000004_Node000020"><a xlink:title=" ">
<path fill="none" stroke="#63b8ff" d="M3343.28,-128.42C3123.72,-124.76 2448.33,-111.6 2231,-85 2227.93,-84.62 2224.8,-84.18 2221.64,-83.69"/>
<polygon fill="#63b8ff" stroke="#63b8ff" points="3343.33,-131.92 3353.38,-128.58 3343.44,-124.92 3343.33,-131.92"/>
</a>
</g>
</g>
<!-- Node21 -->
<g id="Node000021" class="node">
<title>Node21</title>
<g id="a_Node000021"><a xlink:href="wserrno_8cc.html" target="_top" xlink:title=" ">
<polygon fill="white" stroke="#666666" points="2378,-79.5 2240,-79.5 2240,-60.5 2378,-60.5 2378,-79.5"/>
<text text-anchor="middle" x="2309" y="-67.5" font-family="Helvetica,sans-Serif" font-size="10.00">squid/compat/wserrno.cc</text>
</a>
</g>
</g>
<!-- Node4&#45;&gt;Node21 -->
<g id="edge21_Node000004_Node000021" class="edge">
<title>Node4&#45;&gt;Node21</title>
<g id="a_edge21_Node000004_Node000021"><a xlink:title=" ">
<path fill="none" stroke="#63b8ff" d="M3343.14,-129.7C3176.91,-129.46 2744.99,-124.71 2387,-85 2375.1,-83.68 2362.28,-81.64 2350.54,-79.52"/>
<polygon fill="#63b8ff" stroke="#63b8ff" points="3343.22,-133.2 3353.22,-129.7 3343.23,-126.2 3343.22,-133.2"/>
</a>
</g>
</g>
<!-- Node22 -->
<g id="Node000022" class="node">
<title>Node22</title>
<g id="a_Node000022"><a xlink:href="xalloc_8cc.html" target="_top" xlink:title=" ">
<polygon fill="white" stroke="#666666" points="2524,-79.5 2396,-79.5 2396,-60.5 2524,-60.5 2524,-79.5"/>
<text text-anchor="middle" x="2460" y="-67.5" font-family="Helvetica,sans-Serif" font-size="10.00">squid/compat/xalloc.cc</text>
</a>
</g>
</g>
<!-- Node4&#45;&gt;Node22 -->
<g id="edge22_Node000004_Node000022" class="edge">
<title>Node4&#45;&gt;Node22</title>
<g id="a_edge22_Node000004_Node000022"><a xlink:title=" ">
<path fill="none" stroke="#63b8ff" d="M3342.88,-129.25C3193.44,-128.01 2832.78,-121.15 2533,-85 2521.98,-83.67 2510.13,-81.66 2499.24,-79.56"/>
<polygon fill="#63b8ff" stroke="#63b8ff" points="3343.24,-132.76 3353.27,-129.34 3343.3,-125.76 3343.24,-132.76"/>
</a>
</g>
</g>
<!-- Node23 -->
<g id="Node000023" class="node">
<title>Node23</title>
<g id="a_Node000023"><a xlink:href="xstrerror_8cc.html" target="_top" xlink:title=" ">
<polygon fill="white" stroke="#666666" points="2682,-79.5 2542,-79.5 2542,-60.5 2682,-60.5 2682,-79.5"/>
<text text-anchor="middle" x="2612" y="-67.5" font-family="Helvetica,sans-Serif" font-size="10.00">squid/compat/xstrerror.cc</text>
</a>
</g>
</g>
<!-- Node4&#45;&gt;Node23 -->
<g id="edge23_Node000004_Node000023" class="edge">
<title>Node4&#45;&gt;Node23</title>
<g id="a_edge23_Node000004_Node000023"><a xlink:title=" ">
<path fill="none" stroke="#63b8ff" d="M3343.32,-127.78C3214.38,-124.03 2929.98,-113.08 2692,-85 2680.1,-83.6 2667.28,-81.58 2655.47,-79.51"/>
<polygon fill="#63b8ff" stroke="#63b8ff" points="3343.35,-131.29 3353.45,-128.07 3343.55,-124.29 3343.35,-131.29"/>
</a>
</g>
</g>
<!-- Node24 -->
<g id="Node000024" class="node">
<title>Node24</title>
<g id="a_Node000024"><a xlink:href="xstring_8cc.html" target="_top" xlink:title=" ">
<polygon fill="white" stroke="#666666" points="2833.5,-79.5 2700.5,-79.5 2700.5,-60.5 2833.5,-60.5 2833.5,-79.5"/>
<text text-anchor="middle" x="2767" y="-67.5" font-family="Helvetica,sans-Serif" font-size="10.00">squid/compat/xstring.cc</text>
</a>
</g>
</g>
<!-- Node4&#45;&gt;Node24 -->
<g id="edge24_Node000004_Node000024" class="edge">
<title>Node4&#45;&gt;Node24</title>
<g id="a_edge24_Node000004_Node000024"><a xlink:title=" ">
<path fill="none" stroke="#63b8ff" d="M3343.21,-126.4C3235.51,-121.09 3022.49,-108.47 2843,-85 2831.96,-83.56 2820.09,-81.58 2809.09,-79.56"/>
<polygon fill="#63b8ff" stroke="#63b8ff" points="3343.14,-129.9 3353.29,-126.89 3343.48,-122.91 3343.14,-129.9"/>
</a>
</g>
</g>
<!-- Node25 -->
<g id="Node000025" class="node">
<title>Node25</title>
<g id="a_Node000025"><a xlink:href="xstrto_8cc.html" target="_top" xlink:title=" ">
<polygon fill="white" stroke="#666666" points="2980,-79.5 2852,-79.5 2852,-60.5 2980,-60.5 2980,-79.5"/>
<text text-anchor="middle" x="2916" y="-67.5" font-family="Helvetica,sans-Serif" font-size="10.00">squid/compat/xstrto.cc</text>
</a>
</g>
</g>
<!-- Node4&#45;&gt;Node25 -->
<g id="edge25_Node000004_Node000025" class="edge">
<title>Node4&#45;&gt;Node25</title>
<g id="a_edge25_Node000004_Node000025"><a xlink:title=" ">
<path fill="none" stroke="#63b8ff" d="M3343.25,-124.01C3259.04,-116.96 3113.23,-103.4 2989,-85 2978.66,-83.47 2967.56,-81.5 2957.2,-79.54"/>
<polygon fill="#63b8ff" stroke="#63b8ff" points="3343.21,-127.52 3353.46,-124.86 3343.79,-120.54 3343.21,-127.52"/>
</a>
</g>
</g>
<!-- Node26 -->
<g id="Node000026" class="node">
<title>Node26</title>
<g id="a_Node000026"><a xlink:href="Splay_8cc.html" target="_top" xlink:title=" ">
<polygon fill="white" stroke="#666666" points="3098,-79.5 2998,-79.5 2998,-60.5 3098,-60.5 3098,-79.5"/>
<text text-anchor="middle" x="3048" y="-67.5" font-family="Helvetica,sans-Serif" font-size="10.00">squid/lib/Splay.cc</text>
</a>
</g>
</g>
<!-- Node4&#45;&gt;Node26 -->
<g id="edge26_Node000004_Node000026" class="edge">
<title>Node4&#45;&gt;Node26</title>
<g id="a_edge26_Node000004_Node000026"><a xlink:title=" ">
<path fill="none" stroke="#63b8ff" d="M3343.13,-121.13C3280.91,-113.25 3187.54,-100.38 3107,-85 3098.73,-83.42 3089.86,-81.46 3081.59,-79.51"/>
<polygon fill="#63b8ff" stroke="#63b8ff" points="3342.86,-124.62 3353.22,-122.4 3343.73,-117.68 3342.86,-124.62"/>
</a>
</g>
</g>
<!-- Node27 -->
<g id="Node000027" class="node">
<title>Node27</title>
<g id="a_Node000027"><a xlink:href="base64_8cc.html" target="_top" xlink:title=" ">
<polygon fill="white" stroke="#666666" points="3226,-79.5 3116,-79.5 3116,-60.5 3226,-60.5 3226,-79.5"/>
<text text-anchor="middle" x="3171" y="-67.5" font-family="Helvetica,sans-Serif" font-size="10.00">squid/lib/base64.cc</text>
</a>
</g>
</g>
<!-- Node4&#45;&gt;Node27 -->
<g id="edge27_Node000004_Node000027" class="edge">
<title>Node4&#45;&gt;Node27</title>
<g id="a_edge27_Node000004_Node000027"><a xlink:title=" ">
<path fill="none" stroke="#63b8ff" d="M3367.95,-118.61C3321.18,-107.3 3249,-89.85 3206.23,-79.52"/>
<polygon fill="#63b8ff" stroke="#63b8ff" points="3367.27,-122.05 3377.81,-120.99 3368.91,-115.24 3367.27,-122.05"/>
</a>
</g>
</g>
<!-- Node28 -->
<g id="Node000028" class="node">
<title>Node28</title>
<g id="a_Node000028"><a xlink:href="dirent_8c.html" target="_top" xlink:title=" ">
<polygon fill="white" stroke="#666666" points="3342,-79.5 3244,-79.5 3244,-60.5 3342,-60.5 3342,-79.5"/>
<text text-anchor="middle" x="3293" y="-67.5" font-family="Helvetica,sans-Serif" font-size="10.00">squid/lib/dirent.c</text>
</a>
</g>
</g>
<!-- Node4&#45;&gt;Node28 -->
<g id="edge28_Node000004_Node000028" class="edge">
<title>Node4&#45;&gt;Node28</title>
<g id="a_edge28_Node000004_Node000028"><a xlink:title=" ">
<path fill="none" stroke="#63b8ff" d="M3386.3,-116.48C3363.17,-105.21 3330.39,-89.23 3310.47,-79.52"/>
<polygon fill="#63b8ff" stroke="#63b8ff" points="3385.03,-119.76 3395.55,-120.99 3388.1,-113.47 3385.03,-119.76"/>
</a>
</g>
</g>
<!-- Node29 -->
<g id="Node000029" class="node">
<title>Node29</title>
<g id="a_Node000029"><a xlink:href="encrypt_8c.html" target="_top" xlink:title=" ">
<polygon fill="white" stroke="#666666" points="3466,-79.5 3360,-79.5 3360,-60.5 3466,-60.5 3466,-79.5"/>
<text text-anchor="middle" x="3413" y="-67.5" font-family="Helvetica,sans-Serif" font-size="10.00">squid/lib/encrypt.c</text>
</a>
</g>
</g>
<!-- Node4&#45;&gt;Node29 -->
<g id="edge29_Node000004_Node000029" class="edge">
<title>Node4&#45;&gt;Node29</title>
<g id="a_edge29_Node000004_Node000029"><a xlink:title=" ">
<path fill="none" stroke="#63b8ff" d="M3413,-110.66C3413,-100.24 3413,-87.8 3413,-79.67"/>
<polygon fill="#63b8ff" stroke="#63b8ff" points="3409.5,-110.87 3413,-120.87 3416.5,-110.87 3409.5,-110.87"/>
</a>
</g>
</g>
<!-- Node30 -->
<g id="Node000030" class="node">
<title>Node30</title>
<g id="a_Node000030"><a xlink:href="getopt_8c.html" target="_top" xlink:title=" ">
<polygon fill="white" stroke="#666666" points="3585.5,-79.5 3484.5,-79.5 3484.5,-60.5 3585.5,-60.5 3585.5,-79.5"/>
<text text-anchor="middle" x="3535" y="-67.5" font-family="Helvetica,sans-Serif" font-size="10.00">squid/lib/getopt.c</text>
</a>
</g>
</g>
<!-- Node4&#45;&gt;Node30 -->
<g id="edge30_Node000004_Node000030" class="edge">
<title>Node4&#45;&gt;Node30</title>
<g id="a_edge30_Node000004_Node000030"><a xlink:title=" ">
<path fill="none" stroke="#63b8ff" d="M3439.83,-116.63C3463.36,-105.35 3496.9,-89.27 3517.24,-79.52"/>
<polygon fill="#63b8ff" stroke="#63b8ff" points="3438.24,-113.51 3430.74,-120.99 3441.27,-119.83 3438.24,-113.51"/>
</a>
</g>
</g>
<!-- Node31 -->
<g id="Node000031" class="node">
<title>Node31</title>
<g id="a_Node000031"><a xlink:href="hash_8cc.html" target="_top" xlink:title=" ">
<polygon fill="white" stroke="#666666" points="3702,-79.5 3604,-79.5 3604,-60.5 3702,-60.5 3702,-79.5"/>
<text text-anchor="middle" x="3653" y="-67.5" font-family="Helvetica,sans-Serif" font-size="10.00">squid/lib/hash.cc</text>
</a>
</g>
</g>
<!-- Node4&#45;&gt;Node31 -->
<g id="edge31_Node000004_Node000031" class="edge">
<title>Node4&#45;&gt;Node31</title>
<g id="a_edge31_Node000004_Node000031"><a xlink:title=" ">
<path fill="none" stroke="#63b8ff" d="M3457.68,-118.61C3504.06,-107.3 3575.65,-89.85 3618.06,-79.52"/>
<polygon fill="#63b8ff" stroke="#63b8ff" points="3456.78,-115.22 3447.9,-120.99 3458.44,-122.03 3456.78,-115.22"/>
</a>
</g>
</g>
<!-- Node32 -->
<g id="Node000032" class="node">
<title>Node32</title>
<g id="a_Node000032"><a xlink:href="heap_8c.html" target="_top" xlink:title=" ">
<polygon fill="white" stroke="#666666" points="3813.5,-79.5 3720.5,-79.5 3720.5,-60.5 3813.5,-60.5 3813.5,-79.5"/>
<text text-anchor="middle" x="3767" y="-67.5" font-family="Helvetica,sans-Serif" font-size="10.00">squid/lib/heap.c</text>
</a>
</g>
</g>
<!-- Node4&#45;&gt;Node32 -->
<g id="edge32_Node000004_Node000032" class="edge">
<title>Node4&#45;&gt;Node32</title>
<g id="a_edge32_Node000004_Node000032"><a xlink:title=" ">
<path fill="none" stroke="#63b8ff" d="M3482.88,-121.01C3543.48,-113.18 3633.41,-100.46 3711,-85 3718.86,-83.43 3727.28,-81.48 3735.14,-79.53"/>
<polygon fill="#63b8ff" stroke="#63b8ff" points="3482.13,-117.57 3472.66,-122.32 3483.02,-124.52 3482.13,-117.57"/>
</a>
</g>
</g>
<!-- Node33 -->
<g id="Node000033" class="node">
<title>Node33</title>
<g id="a_Node000033"><a xlink:href="md5-test_8cc.html" target="_top" xlink:title=" ">
<polygon fill="white" stroke="#666666" points="3950.5,-79.5 3831.5,-79.5 3831.5,-60.5 3950.5,-60.5 3950.5,-79.5"/>
<text text-anchor="middle" x="3891" y="-67.5" font-family="Helvetica,sans-Serif" font-size="10.00">squid/lib/md5&#45;test.cc</text>
</a>
</g>
</g>
<!-- Node4&#45;&gt;Node33 -->
<g id="edge33_Node000004_Node000033" class="edge">
<title>Node4&#45;&gt;Node33</title>
<g id="a_edge33_Node000004_Node000033"><a xlink:title=" ">
<path fill="none" stroke="#63b8ff" d="M3482.82,-123.96C3564.63,-116.99 3704.12,-103.65 3823,-85 3832.65,-83.49 3842.99,-81.53 3852.64,-79.56"/>
<polygon fill="#63b8ff" stroke="#63b8ff" points="3482.31,-120.49 3472.64,-124.81 3482.9,-127.46 3482.31,-120.49"/>
</a>
</g>
</g>
<!-- Node34 -->
<g id="Node000034" class="node">
<title>Node34</title>
<g id="a_Node000034"><a xlink:href="md5_8cc.html" target="_top" xlink:title=" ">
<polygon fill="white" stroke="#666666" points="4065,-79.5 3969,-79.5 3969,-60.5 4065,-60.5 4065,-79.5"/>
<text text-anchor="middle" x="4017" y="-67.5" font-family="Helvetica,sans-Serif" font-size="10.00">squid/lib/md5.cc</text>
</a>
</g>
</g>
<!-- Node4&#45;&gt;Node34 -->
<g id="edge34_Node000004_Node000034" class="edge">
<title>Node4&#45;&gt;Node34</title>
<g id="a_edge34_Node000004_Node000034"><a xlink:title=" ">
<path fill="none" stroke="#63b8ff" d="M3482.97,-127.38C3587.42,-123.41 3790.03,-112.61 3960,-85 3968.55,-83.61 3977.71,-81.6 3986.12,-79.54"/>
<polygon fill="#63b8ff" stroke="#63b8ff" points="3482.73,-123.89 3472.87,-127.75 3482.99,-130.88 3482.73,-123.89"/>
</a>
</g>
</g>
<!-- Node35 -->
<g id="Node000035" class="node">
<title>Node35</title>
<g id="a_Node000035"><a xlink:href="ntlmauth_8cc.html" target="_top" xlink:title=" ">
<polygon fill="white" stroke="#666666" points="4188.5,-85 4083.5,-85 4083.5,-55 4188.5,-55 4188.5,-85"/>
<text text-anchor="start" x="4091.5" y="-73" font-family="Helvetica,sans-Serif" font-size="10.00">squid/lib/ntlmauth</text>
<text text-anchor="middle" x="4136" y="-62" font-family="Helvetica,sans-Serif" font-size="10.00">/ntlmauth.cc</text>
</a>
</g>
</g>
<!-- Node4&#45;&gt;Node35 -->
<g id="edge35_Node000004_Node000035" class="edge">
<title>Node4&#45;&gt;Node35</title>
<g id="a_edge35_Node000004_Node000035"><a xlink:title=" ">
<path fill="none" stroke="#63b8ff" d="M3482.81,-128.35C3603.79,-125.56 3860,-116.17 4074,-85 4077.06,-84.55 4080.19,-84.04 4083.34,-83.47"/>
<polygon fill="#63b8ff" stroke="#63b8ff" points="3482.5,-124.85 3472.58,-128.57 3482.65,-131.85 3482.5,-124.85"/>
</a>
</g>
</g>
<!-- Node36 -->
<g id="Node000036" class="node">
<title>Node36</title>
<g id="a_Node000036"><a xlink:href="rfc1738_8cc.html" target="_top" xlink:title=" ">
<polygon fill="white" stroke="#666666" points="4317.5,-79.5 4206.5,-79.5 4206.5,-60.5 4317.5,-60.5 4317.5,-79.5"/>
<text text-anchor="middle" x="4262" y="-67.5" font-family="Helvetica,sans-Serif" font-size="10.00">squid/lib/rfc1738.cc</text>
</a>
</g>
</g>
<!-- Node4&#45;&gt;Node36 -->
<g id="edge36_Node000004_Node000036" class="edge">
<title>Node4&#45;&gt;Node36</title>
<g id="a_edge36_Node000004_Node000036"><a xlink:title=" ">
<path fill="none" stroke="#63b8ff" d="M3483.29,-129.25C3621.07,-127.92 3936.03,-120.85 4198,-85 4207.69,-83.67 4218.09,-81.66 4227.64,-79.57"/>
<polygon fill="#63b8ff" stroke="#63b8ff" points="3482.86,-125.75 3472.89,-129.34 3482.92,-132.75 3482.86,-125.75"/>
</a>
</g>
</g>
<!-- Node37 -->
<g id="Node000037" class="node">
<title>Node37</title>
<g id="a_Node000037"><a xlink:href="testRFC1738_8cc.html" target="_top" xlink:title=" ">
<polygon fill="white" stroke="#666666" points="4386,-19 4222,-19 4222,0 4386,0 4386,-19"/>
<text text-anchor="middle" x="4304" y="-7" font-family="Helvetica,sans-Serif" font-size="10.00">squid/lib/tests/testRFC1738.cc</text>
</a>
</g>
</g>
<!-- Node4&#45;&gt;Node37 -->
<g id="edge51_Node000004_Node000037" class="edge">
<title>Node4&#45;&gt;Node37</title>
<g id="a_edge51_Node000004_Node000037"><a xlink:title=" ">
<path fill="none" stroke="#63b8ff" d="M3482.74,-128.7C3691.36,-125.98 4297.99,-115.46 4327,-85 4344.74,-66.38 4323.48,-34.36 4311.34,-19.09"/>
<polygon fill="#63b8ff" stroke="#63b8ff" points="3482.47,-125.21 3472.52,-128.83 3482.56,-132.2 3482.47,-125.21"/>
</a>
</g>
</g>
<!-- Node38 -->
<g id="Node000038" class="node">
<title>Node38</title>
<g id="a_Node000038"><a xlink:href="rfc2617_8cc.html" target="_top" xlink:title=" ">
<polygon fill="white" stroke="#666666" points="4485.5,-79.5 4374.5,-79.5 4374.5,-60.5 4485.5,-60.5 4485.5,-79.5"/>
<text text-anchor="middle" x="4430" y="-67.5" font-family="Helvetica,sans-Serif" font-size="10.00">squid/lib/rfc2617.cc</text>
</a>
</g>
</g>
<!-- Node4&#45;&gt;Node38 -->
<g id="edge38_Node000004_Node000038" class="edge">
<title>Node4&#45;&gt;Node38</title>
<g id="a_edge38_Node000004_Node000038"><a xlink:title=" ">
<path fill="none" stroke="#63b8ff" d="M3483.01,-129.8C3640.38,-129.7 4033.82,-125.05 4360,-85 4370.7,-83.69 4382.21,-81.65 4392.75,-79.53"/>
<polygon fill="#63b8ff" stroke="#63b8ff" points="3482.54,-126.3 3472.54,-129.8 3482.54,-133.3 3482.54,-126.3"/>
</a>
</g>
</g>
<!-- Node39 -->
<g id="Node000039" class="node">
<title>Node39</title>
<g id="a_Node000039"><a xlink:href="asn1_8c.html" target="_top" xlink:title=" ">
<polygon fill="white" stroke="#666666" points="4638,-79.5 4504,-79.5 4504,-60.5 4638,-60.5 4638,-79.5"/>
<text text-anchor="middle" x="4571" y="-67.5" font-family="Helvetica,sans-Serif" font-size="10.00">squid/lib/snmplib/asn1.c</text>
</a>
</g>
</g>
<!-- Node4&#45;&gt;Node39 -->
<g id="edge39_Node000004_Node000039" class="edge">
<title>Node4&#45;&gt;Node39</title>
<g id="a_edge39_Node000004_Node000039"><a xlink:title=" ">
<path fill="none" stroke="#63b8ff" d="M3482.96,-130.03C3655.48,-130.6 4114.85,-127.62 4495,-85 4506.6,-83.7 4519.09,-81.67 4530.53,-79.55"/>
<polygon fill="#63b8ff" stroke="#63b8ff" points="3482.76,-126.53 3472.75,-129.99 3482.74,-133.53 3482.76,-126.53"/>
</a>
</g>
</g>
<!-- Node40 -->
<g id="Node000040" class="node">
<title>Node40</title>
<g id="a_Node000040"><a xlink:href="coexistance_8c.html" target="_top" xlink:title=" ">
<polygon fill="white" stroke="#666666" points="4826,-79.5 4656,-79.5 4656,-60.5 4826,-60.5 4826,-79.5"/>
<text text-anchor="middle" x="4741" y="-67.5" font-family="Helvetica,sans-Serif" font-size="10.00">squid/lib/snmplib/coexistance.c</text>
</a>
</g>
</g>
<!-- Node4&#45;&gt;Node40 -->
<g id="edge40_Node000004_Node000040" class="edge">
<title>Node4&#45;&gt;Node40</title>
<g id="a_edge40_Node000004_Node000040"><a xlink:title=" ">
<path fill="none" stroke="#63b8ff" d="M3482.58,-129.71C3670.69,-129.7 4204.98,-125.76 4647,-85 4661.29,-83.68 4676.73,-81.64 4690.88,-79.53"/>
<polygon fill="#63b8ff" stroke="#63b8ff" points="3482.55,-126.21 3472.55,-129.71 3482.55,-133.21 3482.55,-126.21"/>
</a>
</g>
</g>
<!-- Node41 -->
<g id="Node000041" class="node">
<title>Node41</title>
<g id="a_Node000041"><a xlink:href="mib_8c.html" target="_top" xlink:title=" ">
<polygon fill="white" stroke="#666666" points="4974,-79.5 4844,-79.5 4844,-60.5 4974,-60.5 4974,-79.5"/>
<text text-anchor="middle" x="4909" y="-67.5" font-family="Helvetica,sans-Serif" font-size="10.00">squid/lib/snmplib/mib.c</text>
</a>
</g>
</g>
<!-- Node4&#45;&gt;Node41 -->
<g id="edge41_Node000004_Node000041" class="edge">
<title>Node4&#45;&gt;Node41</title>
<g id="a_edge41_Node000004_Node000041"><a xlink:title=" ">
<path fill="none" stroke="#63b8ff" d="M3482.95,-128.75C3731.08,-125.88 4568.44,-114.21 4835,-85 4846.44,-83.75 4858.76,-81.7 4870,-79.56"/>
<polygon fill="#63b8ff" stroke="#63b8ff" points="3482.59,-125.26 3472.63,-128.87 3482.67,-132.26 3482.59,-125.26"/>
</a>
</g>
</g>
<!-- Node42 -->
<g id="Node000042" class="node">
<title>Node42</title>
<g id="a_Node000042"><a xlink:href="parse_8c.html" target="_top" xlink:title=" ">
<polygon fill="white" stroke="#666666" points="5130,-79.5 4992,-79.5 4992,-60.5 5130,-60.5 5130,-79.5"/>
<text text-anchor="middle" x="5061" y="-67.5" font-family="Helvetica,sans-Serif" font-size="10.00">squid/lib/snmplib/parse.c</text>
</a>
</g>
</g>
<!-- Node4&#45;&gt;Node42 -->
<g id="edge42_Node000004_Node000042" class="edge">
<title>Node4&#45;&gt;Node42</title>
<g id="a_edge42_Node000004_Node000042"><a xlink:title=" ">
<path fill="none" stroke="#63b8ff" d="M3483.03,-128.91C3747.55,-126.44 4685.9,-115.7 4983,-85 4995.04,-83.76 5008.02,-81.71 5019.87,-79.57"/>
<polygon fill="#63b8ff" stroke="#63b8ff" points="3482.76,-125.41 3472.79,-129 3482.82,-132.41 3482.76,-125.41"/>
</a>
</g>
</g>
<!-- Node43 -->
<g id="Node000043" class="node">
<title>Node43</title>
<g id="a_Node000043"><a xlink:href="snmp__api_8c.html" target="_top" xlink:title=" ">
<polygon fill="white" stroke="#666666" points="5278,-85 5148,-85 5148,-55 5278,-55 5278,-85"/>
<text text-anchor="start" x="5156" y="-73" font-family="Helvetica,sans-Serif" font-size="10.00">squid/lib/snmplib/snmp</text>
<text text-anchor="middle" x="5213" y="-62" font-family="Helvetica,sans-Serif" font-size="10.00">_api.c</text>
</a>
</g>
</g>
<!-- Node4&#45;&gt;Node43 -->
<g id="edge43_Node000004_Node000043" class="edge">
<title>Node4&#45;&gt;Node43</title>
<g id="a_edge43_Node000004_Node000043"><a xlink:title=" ">
<path fill="none" stroke="#63b8ff" d="M3482.9,-129.2C3763.63,-127.77 4809.8,-120.15 5139,-85 5141.86,-84.69 5144.78,-84.34 5147.71,-83.94"/>
<polygon fill="#63b8ff" stroke="#63b8ff" points="3482.82,-125.7 3472.84,-129.25 3482.86,-132.7 3482.82,-125.7"/>
</a>
</g>
</g>
<!-- Node44 -->
<g id="Node000044" class="node">
<title>Node44</title>
<g id="a_Node000044"><a xlink:href="snmp__api__error_8c.html" target="_top" xlink:title=" ">
<polygon fill="white" stroke="#666666" points="5426,-85 5296,-85 5296,-55 5426,-55 5426,-85"/>
<text text-anchor="start" x="5304" y="-73" font-family="Helvetica,sans-Serif" font-size="10.00">squid/lib/snmplib/snmp</text>
<text text-anchor="middle" x="5361" y="-62" font-family="Helvetica,sans-Serif" font-size="10.00">_api_error.c</text>
</a>
</g>
</g>
<!-- Node4&#45;&gt;Node44 -->
<g id="edge44_Node000004_Node000044" class="edge">
<title>Node4&#45;&gt;Node44</title>
<g id="a_edge44_Node000004_Node000044"><a xlink:title=" ">
<path fill="none" stroke="#63b8ff" d="M3482.92,-129.37C3778.55,-128.57 4927.18,-123.05 5287,-85 5289.86,-84.7 5292.78,-84.34 5295.72,-83.95"/>
<polygon fill="#63b8ff" stroke="#63b8ff" points="3482.76,-125.87 3472.77,-129.39 3482.78,-132.87 3482.76,-125.87"/>
</a>
</g>
</g>
<!-- Node45 -->
<g id="Node000045" class="node">
<title>Node45</title>
<g id="a_Node000045"><a xlink:href="snmp__error_8c.html" target="_top" xlink:title=" ">
<polygon fill="white" stroke="#666666" points="5574,-85 5444,-85 5444,-55 5574,-55 5574,-85"/>
<text text-anchor="start" x="5452" y="-73" font-family="Helvetica,sans-Serif" font-size="10.00">squid/lib/snmplib/snmp</text>
<text text-anchor="middle" x="5509" y="-62" font-family="Helvetica,sans-Serif" font-size="10.00">_error.c</text>
</a>
</g>
</g>
<!-- Node4&#45;&gt;Node45 -->
<g id="edge45_Node000004_Node000045" class="edge">
<title>Node4&#45;&gt;Node45</title>
<g id="a_edge45_Node000004_Node000045"><a xlink:title=" ">
<path fill="none" stroke="#63b8ff" d="M3482.75,-129.51C3792.38,-129.32 5044.39,-125.96 5435,-85 5437.86,-84.7 5440.78,-84.35 5443.72,-83.96"/>
<polygon fill="#63b8ff" stroke="#63b8ff" points="3482.57,-126.01 3472.57,-129.52 3482.57,-133.01 3482.57,-126.01"/>
</a>
</g>
</g>
<!-- Node46 -->
<g id="Node000046" class="node">
<title>Node46</title>
<g id="a_Node000046"><a xlink:href="snmp__msg_8c.html" target="_top" xlink:title=" ">
<polygon fill="white" stroke="#666666" points="5722,-85 5592,-85 5592,-55 5722,-55 5722,-85"/>
<text text-anchor="start" x="5600" y="-73" font-family="Helvetica,sans-Serif" font-size="10.00">squid/lib/snmplib/snmp</text>
<text text-anchor="middle" x="5657" y="-62" font-family="Helvetica,sans-Serif" font-size="10.00">_msg.c</text>
</a>
</g>
</g>
<!-- Node4&#45;&gt;Node46 -->
<g id="edge46_Node000004_Node000046" class="edge">
<title>Node4&#45;&gt;Node46</title>
<g id="a_edge46_Node000004_Node000046"><a xlink:title=" ">
<path fill="none" stroke="#63b8ff" d="M3482.76,-129.63C3806.17,-130.01 5161.6,-128.87 5583,-85 5585.86,-84.7 5588.78,-84.35 5591.72,-83.96"/>
<polygon fill="#63b8ff" stroke="#63b8ff" points="3482.6,-126.13 3472.59,-129.62 3482.59,-133.13 3482.6,-126.13"/>
</a>
</g>
</g>
<!-- Node47 -->
<g id="Node000047" class="node">
<title>Node47</title>
<g id="a_Node000047"><a xlink:href="snmp__pdu_8c.html" target="_top" xlink:title=" ">
<polygon fill="white" stroke="#666666" points="5870,-85 5740,-85 5740,-55 5870,-55 5870,-85"/>
<text text-anchor="start" x="5748" y="-73" font-family="Helvetica,sans-Serif" font-size="10.00">squid/lib/snmplib/snmp</text>
<text text-anchor="middle" x="5805" y="-62" font-family="Helvetica,sans-Serif" font-size="10.00">_pdu.c</text>
</a>
</g>
</g>
<!-- Node4&#45;&gt;Node47 -->
<g id="edge47_Node000004_Node000047" class="edge">
<title>Node4&#45;&gt;Node47</title>
<g id="a_edge47_Node000004_Node000047"><a xlink:title=" ">
<path fill="none" stroke="#63b8ff" d="M3482.8,-129.74C3819.58,-130.65 5278.77,-131.79 5731,-85 5733.86,-84.7 5736.78,-84.36 5739.72,-83.97"/>
<polygon fill="#63b8ff" stroke="#63b8ff" points="3482.71,-126.24 3472.7,-129.71 3482.69,-133.24 3482.71,-126.24"/>
</a>
</g>
</g>
<!-- Node48 -->
<g id="Node000048" class="node">
<title>Node48</title>
<g id="a_Node000048"><a xlink:href="snmp__vars_8c.html" target="_top" xlink:title=" ">
<polygon fill="white" stroke="#666666" points="6018,-85 5888,-85 5888,-55 6018,-55 6018,-85"/>
<text text-anchor="start" x="5896" y="-73" font-family="Helvetica,sans-Serif" font-size="10.00">squid/lib/snmplib/snmp</text>
<text text-anchor="middle" x="5953" y="-62" font-family="Helvetica,sans-Serif" font-size="10.00">_vars.c</text>
</a>
</g>
</g>
<!-- Node4&#45;&gt;Node48 -->
<g id="edge48_Node000004_Node000048" class="edge">
<title>Node4&#45;&gt;Node48</title>
<g id="a_edge48_Node000004_Node000048"><a xlink:title=" ">
<path fill="none" stroke="#63b8ff" d="M3482.93,-129.83C3832.85,-131.26 5395.91,-134.7 5879,-85 5881.86,-84.71 5884.78,-84.36 5887.72,-83.97"/>
<polygon fill="#63b8ff" stroke="#63b8ff" points="3482.71,-126.33 3472.69,-129.79 3482.68,-133.33 3482.71,-126.33"/>
</a>
</g>
</g>
<!-- Node49 -->
<g id="Node000049" class="node">
<title>Node49</title>
<g id="a_Node000049"><a xlink:href="snmplib__debug_8c.html" target="_top" xlink:title=" ">
<polygon fill="white" stroke="#666666" points="6178,-85 6036,-85 6036,-55 6178,-55 6178,-85"/>
<text text-anchor="start" x="6044" y="-73" font-family="Helvetica,sans-Serif" font-size="10.00">squid/lib/snmplib/snmplib</text>
<text text-anchor="middle" x="6107" y="-62" font-family="Helvetica,sans-Serif" font-size="10.00">_debug.c</text>
</a>
</g>
</g>
<!-- Node4&#45;&gt;Node49 -->
<g id="edge49_Node000004_Node000049" class="edge">
<title>Node4&#45;&gt;Node49</title>
<g id="a_edge49_Node000004_Node000049"><a xlink:title=" ">
<path fill="none" stroke="#63b8ff" d="M3483.05,-128.96C3872.98,-125.88 5767.79,-109.73 6027,-85 6029.95,-84.72 6032.95,-84.39 6035.98,-84.02"/>
<polygon fill="#63b8ff" stroke="#63b8ff" points="3482.73,-125.46 3472.76,-129.04 3482.79,-132.46 3482.73,-125.46"/>
</a>
</g>
</g>
<!-- Node50 -->
<g id="Node000050" class="node">
<title>Node50</title>
<g id="a_Node000050"><a xlink:href="sspwin32_8cc.html" target="_top" xlink:title=" ">
<polygon fill="white" stroke="#666666" points="6339.5,-79.5 6196.5,-79.5 6196.5,-60.5 6339.5,-60.5 6339.5,-79.5"/>
<text text-anchor="middle" x="6268" y="-67.5" font-family="Helvetica,sans-Serif" font-size="10.00">squid/lib/sspi/sspwin32.cc</text>
</a>
</g>
</g>
<!-- Node4&#45;&gt;Node50 -->
<g id="edge50_Node000004_Node000050" class="edge">
<title>Node4&#45;&gt;Node50</title>
<g id="a_edge50_Node000004_Node000050"><a xlink:title=" ">
<path fill="none" stroke="#63b8ff" d="M3482.77,-129.03C3886.09,-126.22 5910.87,-110.92 6187,-85 6199.79,-83.8 6213.6,-81.71 6226.13,-79.51"/>
<polygon fill="#63b8ff" stroke="#63b8ff" points="3482.68,-125.53 3472.7,-129.1 3482.73,-132.53 3482.68,-125.53"/>
</a>
</g>
</g>
<!-- Node36&#45;&gt;Node37 -->
<g id="edge37_Node000036_Node000037" class="edge">
<title>Node36&#45;&gt;Node37</title>
<g id="a_edge37_Node000036_Node000037"><a xlink:title=" ">
<path fill="none" stroke="#63b8ff" d="M4274.11,-52.13C4281.85,-41.35 4291.56,-27.82 4297.78,-19.17"/>
<polygon fill="#63b8ff" stroke="#63b8ff" points="4271.19,-50.2 4268.2,-60.37 4276.87,-54.29 4271.19,-50.2"/>
</a>
</g>
</g>
</g>
</svg>
