<?xml version="1.0" encoding="UTF-8" standalone="no"?>
<!DOCTYPE svg PUBLIC "-//W3C//DTD SVG 1.1//EN"
 "http://www.w3.org/Graphics/SVG/1.1/DTD/svg11.dtd">
<!-- Generated by graphviz version 2.43.0 (0)
 -->
<!-- Title: squid/src/DelaySpec.cc Pages: 1 -->
<svg width="4166pt" height="302pt"
 viewBox="0.00 0.00 4166.00 302.00" xmlns="http://www.w3.org/2000/svg" xmlns:xlink="http://www.w3.org/1999/xlink">
<g id="graph0" class="graph" transform="scale(1 1) rotate(0) translate(4 298)">
<title>squid/src/DelaySpec.cc</title>
<!-- Node1 -->
<g id="Node000001" class="node">
<title>Node1</title>
<g id="a_Node000001"><a xlink:title=" ">
<polygon fill="#999999" stroke="#666666" points="3438.5,-294 3310.5,-294 3310.5,-275 3438.5,-275 3438.5,-294"/>
<text text-anchor="middle" x="3374.5" y="-282" font-family="Helvetica,sans-Serif" font-size="10.00">squid/src/DelaySpec.cc</text>
</a>
</g>
</g>
<!-- Node2 -->
<g id="Node000002" class="node">
<title>Node2</title>
<g id="a_Node000002"><a xlink:href="squid_8h.html" target="_top" xlink:title=" ">
<polygon fill="white" stroke="#666666" points="1474.5,-239 1422.5,-239 1422.5,-220 1474.5,-220 1474.5,-239"/>
<text text-anchor="middle" x="1448.5" y="-227" font-family="Helvetica,sans-Serif" font-size="10.00">squid.h</text>
</a>
</g>
</g>
<!-- Node1&#45;&gt;Node2 -->
<g id="edge1_Node000001_Node000002" class="edge">
<title>Node1&#45;&gt;Node2</title>
<g id="a_edge1_Node000001_Node000002"><a xlink:title=" ">
<path fill="none" stroke="#63b8ff" d="M3310.42,-281.74C3006.83,-273.38 1718.27,-237.92 1484.84,-231.5"/>
<polygon fill="#63b8ff" stroke="#63b8ff" points="1484.62,-227.99 1474.53,-231.22 1484.43,-234.99 1484.62,-227.99"/>
</a>
</g>
</g>
<!-- Node44 -->
<g id="Node000044" class="node">
<title>Node44</title>
<g id="a_Node000044"><a xlink:href="cache__cf_8h.html" target="_top" xlink:title=" ">
<polygon fill="white" stroke="#666666" points="3317.5,-239 3249.5,-239 3249.5,-220 3317.5,-220 3317.5,-239"/>
<text text-anchor="middle" x="3283.5" y="-227" font-family="Helvetica,sans-Serif" font-size="10.00">cache_cf.h</text>
</a>
</g>
</g>
<!-- Node1&#45;&gt;Node44 -->
<g id="edge28_Node000001_Node000044" class="edge">
<title>Node1&#45;&gt;Node44</title>
<g id="a_edge28_Node000001_Node000044"><a xlink:title=" ">
<path fill="none" stroke="#63b8ff" d="M3359.88,-274.98C3345.64,-266.69 3323.75,-253.94 3307.05,-244.22"/>
<polygon fill="#63b8ff" stroke="#63b8ff" points="3308.79,-241.18 3298.39,-239.17 3305.27,-247.23 3308.79,-241.18"/>
</a>
</g>
</g>
<!-- Node45 -->
<g id="Node000045" class="node">
<title>Node45</title>
<g id="a_Node000045"><a xlink:href="DelaySpec_8h.html" target="_top" xlink:title=" ">
<polygon fill="white" stroke="#666666" points="3413,-239 3336,-239 3336,-220 3413,-220 3413,-239"/>
<text text-anchor="middle" x="3374.5" y="-227" font-family="Helvetica,sans-Serif" font-size="10.00">DelaySpec.h</text>
</a>
</g>
</g>
<!-- Node1&#45;&gt;Node45 -->
<g id="edge29_Node000001_Node000045" class="edge">
<title>Node1&#45;&gt;Node45</title>
<g id="a_edge29_Node000001_Node000045"><a xlink:title=" ">
<path fill="none" stroke="#63b8ff" d="M3374.5,-274.75C3374.5,-267.8 3374.5,-257.85 3374.5,-249.13"/>
<polygon fill="#63b8ff" stroke="#63b8ff" points="3378,-249.09 3374.5,-239.09 3371,-249.09 3378,-249.09"/>
</a>
</g>
</g>
<!-- Node46 -->
<g id="Node000046" class="node">
<title>Node46</title>
<g id="a_Node000046"><a xlink:href="Parsing_8h.html" target="_top" xlink:title=" ">
<polygon fill="white" stroke="#666666" points="3855,-239 3794,-239 3794,-220 3855,-220 3855,-239"/>
<text text-anchor="middle" x="3824.5" y="-227" font-family="Helvetica,sans-Serif" font-size="10.00">Parsing.h</text>
</a>
</g>
</g>
<!-- Node1&#45;&gt;Node46 -->
<g id="edge30_Node000001_Node000046" class="edge">
<title>Node1&#45;&gt;Node46</title>
<g id="a_edge30_Node000001_Node000046"><a xlink:title=" ">
<path fill="none" stroke="#63b8ff" d="M3438.97,-275.91C3533.17,-264.81 3705.69,-244.49 3783.96,-235.27"/>
<polygon fill="#63b8ff" stroke="#63b8ff" points="3784.4,-238.75 3793.92,-234.1 3783.58,-231.8 3784.4,-238.75"/>
</a>
</g>
</g>
<!-- Node52 -->
<g id="Node000052" class="node">
<title>Node52</title>
<g id="a_Node000052"><a xlink:href="Store_8h.html" target="_top" xlink:title=" ">
<polygon fill="white" stroke="#666666" points="3482,-239 3431,-239 3431,-220 3482,-220 3482,-239"/>
<text text-anchor="middle" x="3456.5" y="-227" font-family="Helvetica,sans-Serif" font-size="10.00">Store.h</text>
</a>
</g>
</g>
<!-- Node1&#45;&gt;Node52 -->
<g id="edge33_Node000001_Node000052" class="edge">
<title>Node1&#45;&gt;Node52</title>
<g id="a_edge33_Node000001_Node000052"><a xlink:title=" ">
<path fill="none" stroke="#63b8ff" d="M3387.67,-274.98C3400.27,-266.84 3419.5,-254.41 3434.44,-244.76"/>
<polygon fill="#63b8ff" stroke="#63b8ff" points="3436.59,-247.54 3443.09,-239.17 3432.79,-241.66 3436.59,-247.54"/>
</a>
</g>
</g>
<!-- Node3 -->
<g id="Node000003" class="node">
<title>Node3</title>
<g id="a_Node000003"><a xlink:href="autoconf_8h.html" target="_top" xlink:title=" ">
<polygon fill="white" stroke="#666666" points="1349.5,-184 1281.5,-184 1281.5,-165 1349.5,-165 1349.5,-184"/>
<text text-anchor="middle" x="1315.5" y="-172" font-family="Helvetica,sans-Serif" font-size="10.00">autoconf.h</text>
</a>
</g>
</g>
<!-- Node2&#45;&gt;Node3 -->
<g id="edge2_Node000002_Node000003" class="edge">
<title>Node2&#45;&gt;Node3</title>
<g id="a_edge2_Node000002_Node000003"><a xlink:title=" ">
<path fill="none" stroke="#63b8ff" d="M1427.13,-219.98C1405.35,-211.3 1371.34,-197.75 1346.58,-187.88"/>
<polygon fill="#63b8ff" stroke="#63b8ff" points="1347.84,-184.62 1337.26,-184.17 1345.25,-191.12 1347.84,-184.62"/>
</a>
</g>
</g>
<!-- Node4 -->
<g id="Node000004" class="node">
<title>Node4</title>
<g id="a_Node000004"><a xlink:href="version_8h.html" target="_top" xlink:title=" ">
<polygon fill="white" stroke="#666666" points="1429.5,-184 1367.5,-184 1367.5,-165 1429.5,-165 1429.5,-184"/>
<text text-anchor="middle" x="1398.5" y="-172" font-family="Helvetica,sans-Serif" font-size="10.00">version.h</text>
</a>
</g>
</g>
<!-- Node2&#45;&gt;Node4 -->
<g id="edge3_Node000002_Node000004" class="edge">
<title>Node2&#45;&gt;Node4</title>
<g id="a_edge3_Node000002_Node000004"><a xlink:title=" ">
<path fill="none" stroke="#63b8ff" d="M1440.24,-219.75C1433.04,-212.11 1422.39,-200.82 1413.65,-191.56"/>
<polygon fill="#63b8ff" stroke="#63b8ff" points="1416.01,-188.96 1406.6,-184.09 1410.92,-193.76 1416.01,-188.96"/>
</a>
</g>
</g>
<!-- Node5 -->
<g id="Node000005" class="node">
<title>Node5</title>
<g id="a_Node000005"><a xlink:href="compat_8h.html" target="_top" xlink:title=" ">
<polygon fill="#fff0f0" stroke="red" points="1549.5,-184 1447.5,-184 1447.5,-165 1549.5,-165 1549.5,-184"/>
<text text-anchor="middle" x="1498.5" y="-172" font-family="Helvetica,sans-Serif" font-size="10.00">compat/compat.h</text>
</a>
</g>
</g>
<!-- Node2&#45;&gt;Node5 -->
<g id="edge4_Node000002_Node000005" class="edge">
<title>Node2&#45;&gt;Node5</title>
<g id="a_edge4_Node000002_Node000005"><a xlink:title=" ">
<path fill="none" stroke="#63b8ff" d="M1456.76,-219.75C1463.96,-212.11 1474.61,-200.82 1483.35,-191.56"/>
<polygon fill="#63b8ff" stroke="#63b8ff" points="1486.08,-193.76 1490.4,-184.09 1480.99,-188.96 1486.08,-193.76"/>
</a>
</g>
</g>
<!-- Node6 -->
<g id="Node000006" class="node">
<title>Node6</title>
<g id="a_Node000006"><a xlink:href="osdetect_8h.html" target="_top" xlink:title=" ">
<polygon fill="white" stroke="#666666" points="1365,-129 1258,-129 1258,-110 1365,-110 1365,-129"/>
<text text-anchor="middle" x="1311.5" y="-117" font-family="Helvetica,sans-Serif" font-size="10.00">compat/osdetect.h</text>
</a>
</g>
</g>
<!-- Node5&#45;&gt;Node6 -->
<g id="edge5_Node000005_Node000006" class="edge">
<title>Node5&#45;&gt;Node6</title>
<g id="a_edge5_Node000005_Node000006"><a xlink:title=" ">
<path fill="none" stroke="#63b8ff" d="M1468.46,-164.98C1436.79,-156.01 1386.73,-141.82 1351.69,-131.89"/>
<polygon fill="#63b8ff" stroke="#63b8ff" points="1352.36,-128.44 1341.78,-129.08 1350.45,-135.18 1352.36,-128.44"/>
</a>
</g>
</g>
<!-- Node7 -->
<g id="Node000007" class="node">
<title>Node7</title>
<g id="a_Node000007"><a xlink:href="fdsetsize_8h.html" target="_top" xlink:title=" ">
<polygon fill="white" stroke="#666666" points="1493.5,-129 1383.5,-129 1383.5,-110 1493.5,-110 1493.5,-129"/>
<text text-anchor="middle" x="1438.5" y="-117" font-family="Helvetica,sans-Serif" font-size="10.00">compat/fdsetsize.h</text>
</a>
</g>
</g>
<!-- Node5&#45;&gt;Node7 -->
<g id="edge6_Node000005_Node000007" class="edge">
<title>Node5&#45;&gt;Node7</title>
<g id="a_edge6_Node000005_Node000007"><a xlink:title=" ">
<path fill="none" stroke="#63b8ff" d="M1488.86,-164.98C1479.99,-157.15 1466.63,-145.34 1455.89,-135.86"/>
<polygon fill="#63b8ff" stroke="#63b8ff" points="1458.13,-133.17 1448.32,-129.17 1453.49,-138.41 1458.13,-133.17"/>
</a>
</g>
</g>
<!-- Node8 -->
<g id="Node000008" class="node">
<title>Node8</title>
<g id="a_Node000008"><a xlink:href="types_8h.html" target="_top" xlink:title=" ">
<polygon fill="#fff0f0" stroke="red" points="1603.5,-129 1511.5,-129 1511.5,-110 1603.5,-110 1603.5,-129"/>
<text text-anchor="middle" x="1557.5" y="-117" font-family="Helvetica,sans-Serif" font-size="10.00">compat/types.h</text>
</a>
</g>
</g>
<!-- Node5&#45;&gt;Node8 -->
<g id="edge7_Node000005_Node000008" class="edge">
<title>Node5&#45;&gt;Node8</title>
<g id="a_edge7_Node000005_Node000008"><a xlink:title=" ">
<path fill="none" stroke="#63b8ff" d="M1507.98,-164.98C1516.7,-157.15 1529.84,-145.34 1540.4,-135.86"/>
<polygon fill="#63b8ff" stroke="#63b8ff" points="1542.75,-138.46 1547.85,-129.17 1538.07,-133.25 1542.75,-138.46"/>
</a>
</g>
</g>
<!-- Node10 -->
<g id="Node000010" class="node">
<title>Node10</title>
<g id="a_Node000010"><a xlink:href="aix_8h.html" target="_top" xlink:title=" ">
<polygon fill="white" stroke="#666666" points="1717,-129 1622,-129 1622,-110 1717,-110 1717,-129"/>
<text text-anchor="middle" x="1669.5" y="-117" font-family="Helvetica,sans-Serif" font-size="10.00">compat/os/aix.h</text>
</a>
</g>
</g>
<!-- Node5&#45;&gt;Node10 -->
<g id="edge8_Node000005_Node000010" class="edge">
<title>Node5&#45;&gt;Node10</title>
<g id="a_edge8_Node000005_Node000010"><a xlink:title=" ">
<path fill="none" stroke="#63b8ff" d="M1525.97,-164.98C1554.68,-156.09 1599.92,-142.07 1631.92,-132.15"/>
<polygon fill="#63b8ff" stroke="#63b8ff" points="1633.3,-135.39 1641.81,-129.08 1631.22,-128.7 1633.3,-135.39"/>
</a>
</g>
</g>
<!-- Node11 -->
<g id="Node000011" class="node">
<title>Node11</title>
<g id="a_Node000011"><a xlink:href="android_8h.html" target="_top" xlink:title=" ">
<polygon fill="white" stroke="#666666" points="1851.5,-129 1735.5,-129 1735.5,-110 1851.5,-110 1851.5,-129"/>
<text text-anchor="middle" x="1793.5" y="-117" font-family="Helvetica,sans-Serif" font-size="10.00">compat/os/android.h</text>
</a>
</g>
</g>
<!-- Node5&#45;&gt;Node11 -->
<g id="edge9_Node000005_Node000011" class="edge">
<title>Node5&#45;&gt;Node11</title>
<g id="a_edge9_Node000005_Node000011"><a xlink:title=" ">
<path fill="none" stroke="#63b8ff" d="M1545.9,-164.98C1597.57,-155.7 1680.27,-140.84 1735.71,-130.88"/>
<polygon fill="#63b8ff" stroke="#63b8ff" points="1736.51,-134.3 1745.73,-129.08 1735.27,-127.41 1736.51,-134.3"/>
</a>
</g>
</g>
<!-- Node12 -->
<g id="Node000012" class="node">
<title>Node12</title>
<g id="a_Node000012"><a xlink:href="dragonfly_8h.html" target="_top" xlink:title=" ">
<polygon fill="white" stroke="#666666" points="1993.5,-129 1869.5,-129 1869.5,-110 1993.5,-110 1993.5,-129"/>
<text text-anchor="middle" x="1931.5" y="-117" font-family="Helvetica,sans-Serif" font-size="10.00">compat/os/dragonfly.h</text>
</a>
</g>
</g>
<!-- Node5&#45;&gt;Node12 -->
<g id="edge10_Node000005_Node000012" class="edge">
<title>Node5&#45;&gt;Node12</title>
<g id="a_edge10_Node000005_Node000012"><a xlink:title=" ">
<path fill="none" stroke="#63b8ff" d="M1549.87,-167.21C1626.69,-157.81 1771.8,-140.05 1859.27,-129.34"/>
<polygon fill="#63b8ff" stroke="#63b8ff" points="1859.88,-132.79 1869.38,-128.1 1859.03,-125.84 1859.88,-132.79"/>
</a>
</g>
</g>
<!-- Node13 -->
<g id="Node000013" class="node">
<title>Node13</title>
<g id="a_Node000013"><a xlink:href="freebsd_8h.html" target="_top" xlink:title=" ">
<polygon fill="white" stroke="#666666" points="2127.5,-129 2011.5,-129 2011.5,-110 2127.5,-110 2127.5,-129"/>
<text text-anchor="middle" x="2069.5" y="-117" font-family="Helvetica,sans-Serif" font-size="10.00">compat/os/freebsd.h</text>
</a>
</g>
</g>
<!-- Node5&#45;&gt;Node13 -->
<g id="edge11_Node000005_Node000013" class="edge">
<title>Node5&#45;&gt;Node13</title>
<g id="a_edge11_Node000005_Node000013"><a xlink:title=" ">
<path fill="none" stroke="#63b8ff" d="M1549.72,-169.63C1639.13,-162.72 1829.78,-147.37 2001.44,-129.08"/>
<polygon fill="#63b8ff" stroke="#63b8ff" points="2001.84,-132.55 2011.41,-128.01 2001.1,-125.59 2001.84,-132.55"/>
</a>
</g>
</g>
<!-- Node14 -->
<g id="Node000014" class="node">
<title>Node14</title>
<g id="a_Node000014"><a xlink:href="hpux_8h.html" target="_top" xlink:title=" ">
<polygon fill="white" stroke="#666666" points="2249.5,-129 2145.5,-129 2145.5,-110 2249.5,-110 2249.5,-129"/>
<text text-anchor="middle" x="2197.5" y="-117" font-family="Helvetica,sans-Serif" font-size="10.00">compat/os/hpux.h</text>
</a>
</g>
</g>
<!-- Node5&#45;&gt;Node14 -->
<g id="edge12_Node000005_Node000014" class="edge">
<title>Node5&#45;&gt;Node14</title>
<g id="a_edge12_Node000005_Node000014"><a xlink:title=" ">
<path fill="none" stroke="#63b8ff" d="M1549.88,-171.12C1656.82,-165.9 1911.35,-152.13 2135.32,-129.05"/>
<polygon fill="#63b8ff" stroke="#63b8ff" points="2135.7,-132.53 2145.29,-128.02 2134.98,-125.57 2135.7,-132.53"/>
</a>
</g>
</g>
<!-- Node15 -->
<g id="Node000015" class="node">
<title>Node15</title>
<g id="a_Node000015"><a xlink:href="linux_8h.html" target="_top" xlink:title=" ">
<polygon fill="white" stroke="#666666" points="2371.5,-129 2267.5,-129 2267.5,-110 2371.5,-110 2371.5,-129"/>
<text text-anchor="middle" x="2319.5" y="-117" font-family="Helvetica,sans-Serif" font-size="10.00">compat/os/linux.h</text>
</a>
</g>
</g>
<!-- Node5&#45;&gt;Node15 -->
<g id="edge13_Node000005_Node000015" class="edge">
<title>Node5&#45;&gt;Node15</title>
<g id="a_edge13_Node000005_Node000015"><a xlink:title=" ">
<path fill="none" stroke="#63b8ff" d="M1549.76,-171.91C1670.93,-167.86 1984.7,-155.58 2257.21,-129.05"/>
<polygon fill="#63b8ff" stroke="#63b8ff" points="2257.68,-132.52 2267.29,-128.05 2257,-125.55 2257.68,-132.52"/>
</a>
</g>
</g>
<!-- Node16 -->
<g id="Node000016" class="node">
<title>Node16</title>
<g id="a_Node000016"><a xlink:href="macosx_8h.html" target="_top" xlink:title=" ">
<polygon fill="white" stroke="#666666" points="2507.5,-129 2389.5,-129 2389.5,-110 2507.5,-110 2507.5,-129"/>
<text text-anchor="middle" x="2448.5" y="-117" font-family="Helvetica,sans-Serif" font-size="10.00">compat/os/macosx.h</text>
</a>
</g>
</g>
<!-- Node5&#45;&gt;Node16 -->
<g id="edge14_Node000005_Node000016" class="edge">
<title>Node5&#45;&gt;Node16</title>
<g id="a_edge14_Node000005_Node000016"><a xlink:title=" ">
<path fill="none" stroke="#63b8ff" d="M1549.79,-172.24C1684.17,-168.65 2057.72,-156.84 2379.21,-129.05"/>
<polygon fill="#63b8ff" stroke="#63b8ff" points="2379.53,-132.53 2389.19,-128.18 2378.92,-125.56 2379.53,-132.53"/>
</a>
</g>
</g>
<!-- Node17 -->
<g id="Node000017" class="node">
<title>Node17</title>
<g id="a_Node000017"><a xlink:href="mingw_8h.html" target="_top" xlink:title=" ">
<polygon fill="white" stroke="#666666" points="2637.5,-129 2525.5,-129 2525.5,-110 2637.5,-110 2637.5,-129"/>
<text text-anchor="middle" x="2581.5" y="-117" font-family="Helvetica,sans-Serif" font-size="10.00">compat/os/mingw.h</text>
</a>
</g>
</g>
<!-- Node5&#45;&gt;Node17 -->
<g id="edge15_Node000005_Node000017" class="edge">
<title>Node5&#45;&gt;Node17</title>
<g id="a_edge15_Node000005_Node000017"><a xlink:title=" ">
<path fill="none" stroke="#63b8ff" d="M1549.71,-172.82C1697.69,-170.54 2138.78,-161.37 2515.17,-129.04"/>
<polygon fill="#63b8ff" stroke="#63b8ff" points="2515.5,-132.52 2525.16,-128.17 2514.9,-125.55 2515.5,-132.52"/>
</a>
</g>
</g>
<!-- Node18 -->
<g id="Node000018" class="node">
<title>Node18</title>
<g id="a_Node000018"><a xlink:href="mswindows_8h.html" target="_top" xlink:title=" ">
<polygon fill="white" stroke="#666666" points="2793,-129 2656,-129 2656,-110 2793,-110 2793,-129"/>
<text text-anchor="middle" x="2724.5" y="-117" font-family="Helvetica,sans-Serif" font-size="10.00">compat/os/mswindows.h</text>
</a>
</g>
</g>
<!-- Node5&#45;&gt;Node18 -->
<g id="edge16_Node000005_Node000018" class="edge">
<title>Node5&#45;&gt;Node18</title>
<g id="a_edge16_Node000005_Node000018"><a xlink:title=" ">
<path fill="none" stroke="#63b8ff" d="M1549.78,-172.79C1709.98,-170.29 2215.57,-160.36 2645.48,-129.01"/>
<polygon fill="#63b8ff" stroke="#63b8ff" points="2645.9,-132.49 2655.62,-128.27 2645.39,-125.51 2645.9,-132.49"/>
</a>
</g>
</g>
<!-- Node19 -->
<g id="Node000019" class="node">
<title>Node19</title>
<g id="a_Node000019"><a xlink:href="netbsd_8h.html" target="_top" xlink:title=" ">
<polygon fill="white" stroke="#666666" points="2924,-129 2811,-129 2811,-110 2924,-110 2924,-129"/>
<text text-anchor="middle" x="2867.5" y="-117" font-family="Helvetica,sans-Serif" font-size="10.00">compat/os/netbsd.h</text>
</a>
</g>
</g>
<!-- Node5&#45;&gt;Node19 -->
<g id="edge17_Node000005_Node000019" class="edge">
<title>Node5&#45;&gt;Node19</title>
<g id="a_edge17_Node000005_Node000019"><a xlink:title=" ">
<path fill="none" stroke="#63b8ff" d="M1549.51,-173.48C1723.14,-173.04 2307.27,-168.58 2800.48,-128.99"/>
<polygon fill="#63b8ff" stroke="#63b8ff" points="2800.97,-132.46 2810.65,-128.17 2800.4,-125.48 2800.97,-132.46"/>
</a>
</g>
</g>
<!-- Node20 -->
<g id="Node000020" class="node">
<title>Node20</title>
<g id="a_Node000020"><a xlink:href="openbsd_8h.html" target="_top" xlink:title=" ">
<polygon fill="white" stroke="#666666" points="121,-129 0,-129 0,-110 121,-110 121,-129"/>
<text text-anchor="middle" x="60.5" y="-117" font-family="Helvetica,sans-Serif" font-size="10.00">compat/os/openbsd.h</text>
</a>
</g>
</g>
<!-- Node5&#45;&gt;Node20 -->
<g id="edge18_Node000005_Node000020" class="edge">
<title>Node5&#45;&gt;Node20</title>
<g id="a_edge18_Node000005_Node000020"><a xlink:title=" ">
<path fill="none" stroke="#63b8ff" d="M1447.48,-165.87C1444.45,-165.54 1441.44,-165.25 1438.5,-165 861.96,-116.39 711.62,-171.97 131.35,-129.06"/>
<polygon fill="#63b8ff" stroke="#63b8ff" points="131.28,-125.54 121.05,-128.29 130.76,-132.52 131.28,-125.54"/>
</a>
</g>
</g>
<!-- Node21 -->
<g id="Node000021" class="node">
<title>Node21</title>
<g id="a_Node000021"><a xlink:href="os2_8h.html" target="_top" xlink:title=" ">
<polygon fill="white" stroke="#666666" points="236,-129 139,-129 139,-110 236,-110 236,-129"/>
<text text-anchor="middle" x="187.5" y="-117" font-family="Helvetica,sans-Serif" font-size="10.00">compat/os/os2.h</text>
</a>
</g>
</g>
<!-- Node5&#45;&gt;Node21 -->
<g id="edge19_Node000005_Node000021" class="edge">
<title>Node5&#45;&gt;Node21</title>
<g id="a_edge19_Node000005_Node000021"><a xlink:title=" ">
<path fill="none" stroke="#63b8ff" d="M1447.48,-165.88C1444.45,-165.55 1441.44,-165.25 1438.5,-165 913.33,-120.02 775.66,-174.83 246.38,-128.94"/>
<polygon fill="#63b8ff" stroke="#63b8ff" points="246.45,-125.44 236.19,-128.05 245.84,-132.41 246.45,-125.44"/>
</a>
</g>
</g>
<!-- Node22 -->
<g id="Node000022" class="node">
<title>Node22</title>
<g id="a_Node000022"><a xlink:href="qnx_8h.html" target="_top" xlink:title=" ">
<polygon fill="white" stroke="#666666" points="352.5,-129 254.5,-129 254.5,-110 352.5,-110 352.5,-129"/>
<text text-anchor="middle" x="303.5" y="-117" font-family="Helvetica,sans-Serif" font-size="10.00">compat/os/qnx.h</text>
</a>
</g>
</g>
<!-- Node5&#45;&gt;Node22 -->
<g id="edge20_Node000005_Node000022" class="edge">
<title>Node5&#45;&gt;Node22</title>
<g id="a_edge20_Node000005_Node000022"><a xlink:title=" ">
<path fill="none" stroke="#63b8ff" d="M1447.48,-165.89C1444.45,-165.56 1441.43,-165.26 1438.5,-165 964.76,-123.65 840.28,-171.11 362.77,-128.99"/>
<polygon fill="#63b8ff" stroke="#63b8ff" points="362.77,-125.48 352.5,-128.08 362.15,-132.45 362.77,-125.48"/>
</a>
</g>
</g>
<!-- Node23 -->
<g id="Node000023" class="node">
<title>Node23</title>
<g id="a_Node000023"><a xlink:href="solaris_8h.html" target="_top" xlink:title=" ">
<polygon fill="white" stroke="#666666" points="482.5,-129 370.5,-129 370.5,-110 482.5,-110 482.5,-129"/>
<text text-anchor="middle" x="426.5" y="-117" font-family="Helvetica,sans-Serif" font-size="10.00">compat/os/solaris.h</text>
</a>
</g>
</g>
<!-- Node5&#45;&gt;Node23 -->
<g id="edge21_Node000005_Node000023" class="edge">
<title>Node5&#45;&gt;Node23</title>
<g id="a_edge21_Node000005_Node000023"><a xlink:title=" ">
<path fill="none" stroke="#63b8ff" d="M1447.48,-165.91C1444.44,-165.57 1441.43,-165.26 1438.5,-165 1022.27,-127.7 912.91,-163.77 492.82,-129.02"/>
<polygon fill="#63b8ff" stroke="#63b8ff" points="493.09,-125.53 482.84,-128.19 492.51,-132.51 493.09,-125.53"/>
</a>
</g>
</g>
<!-- Node24 -->
<g id="Node000024" class="node">
<title>Node24</title>
<g id="a_Node000024"><a xlink:href="sunos_8h.html" target="_top" xlink:title=" ">
<polygon fill="white" stroke="#666666" points="608.5,-129 500.5,-129 500.5,-110 608.5,-110 608.5,-129"/>
<text text-anchor="middle" x="554.5" y="-117" font-family="Helvetica,sans-Serif" font-size="10.00">compat/os/sunos.h</text>
</a>
</g>
</g>
<!-- Node5&#45;&gt;Node24 -->
<g id="edge22_Node000005_Node000024" class="edge">
<title>Node5&#45;&gt;Node24</title>
<g id="a_edge22_Node000005_Node000024"><a xlink:title=" ">
<path fill="none" stroke="#63b8ff" d="M1447.48,-165.93C1444.44,-165.59 1441.43,-165.27 1438.5,-165 1078.1,-131.65 983.01,-160.91 618.79,-129.02"/>
<polygon fill="#63b8ff" stroke="#63b8ff" points="619.03,-125.53 608.76,-128.14 618.41,-132.51 619.03,-125.53"/>
</a>
</g>
</g>
<!-- Node25 -->
<g id="Node000025" class="node">
<title>Node25</title>
<g id="a_Node000025"><a xlink:href="assert_8h.html" target="_top" xlink:title=" ">
<polygon fill="white" stroke="#666666" points="722,-129 627,-129 627,-110 722,-110 722,-129"/>
<text text-anchor="middle" x="674.5" y="-117" font-family="Helvetica,sans-Serif" font-size="10.00">compat/assert.h</text>
</a>
</g>
</g>
<!-- Node5&#45;&gt;Node25 -->
<g id="edge23_Node000005_Node000025" class="edge">
<title>Node5&#45;&gt;Node25</title>
<g id="a_edge23_Node000005_Node000025"><a xlink:title=" ">
<path fill="none" stroke="#63b8ff" d="M1447.47,-165.95C1444.44,-165.6 1441.43,-165.28 1438.5,-165 1128.68,-135.23 1046.34,-159.7 732.35,-128.96"/>
<polygon fill="#63b8ff" stroke="#63b8ff" points="732.34,-125.45 722.04,-127.94 731.65,-132.41 732.34,-125.45"/>
</a>
</g>
</g>
<!-- Node26 -->
<g id="Node000026" class="node">
<title>Node26</title>
<g id="a_Node000026"><a xlink:href="compat__shared_8h.html" target="_top" xlink:title=" ">
<polygon fill="#fff0f0" stroke="red" points="880.5,-129 740.5,-129 740.5,-110 880.5,-110 880.5,-129"/>
<text text-anchor="middle" x="810.5" y="-117" font-family="Helvetica,sans-Serif" font-size="10.00">compat/compat_shared.h</text>
</a>
</g>
</g>
<!-- Node5&#45;&gt;Node26 -->
<g id="edge24_Node000005_Node000026" class="edge">
<title>Node5&#45;&gt;Node26</title>
<g id="a_edge24_Node000005_Node000026"><a xlink:title=" ">
<path fill="none" stroke="#63b8ff" d="M1447.47,-166C1444.44,-165.64 1441.43,-165.3 1438.5,-165 1198.6,-140.18 1134.85,-149.81 890.94,-129.09"/>
<polygon fill="#63b8ff" stroke="#63b8ff" points="890.96,-125.57 880.7,-128.21 890.36,-132.55 890.96,-125.57"/>
</a>
</g>
</g>
<!-- Node36 -->
<g id="Node000036" class="node">
<title>Node36</title>
<g id="a_Node000036"><a xlink:href="stdvarargs_8h.html" target="_top" xlink:title=" ">
<polygon fill="#fff0f0" stroke="red" points="1016,-129 899,-129 899,-110 1016,-110 1016,-129"/>
<text text-anchor="middle" x="957.5" y="-117" font-family="Helvetica,sans-Serif" font-size="10.00">compat/stdvarargs.h</text>
</a>
</g>
</g>
<!-- Node5&#45;&gt;Node36 -->
<g id="edge25_Node000005_Node000036" class="edge">
<title>Node5&#45;&gt;Node36</title>
<g id="a_edge25_Node000005_Node000036"><a xlink:title=" ">
<path fill="none" stroke="#63b8ff" d="M1447.46,-166.08C1444.43,-165.7 1441.43,-165.33 1438.5,-165 1258.22,-144.41 1209.84,-148.47 1026.29,-129.15"/>
<polygon fill="#63b8ff" stroke="#63b8ff" points="1026.62,-125.67 1016.31,-128.09 1025.89,-132.63 1026.62,-125.67"/>
</a>
</g>
</g>
<!-- Node38 -->
<g id="Node000038" class="node">
<title>Node38</title>
<g id="a_Node000038"><a xlink:href="stdio_8h.html" target="_top" xlink:title=" ">
<polygon fill="#fff0f0" stroke="red" points="1123,-129 1034,-129 1034,-110 1123,-110 1123,-129"/>
<text text-anchor="middle" x="1078.5" y="-117" font-family="Helvetica,sans-Serif" font-size="10.00">compat/stdio.h</text>
</a>
</g>
</g>
<!-- Node5&#45;&gt;Node38 -->
<g id="edge26_Node000005_Node000038" class="edge">
<title>Node5&#45;&gt;Node38</title>
<g id="a_edge26_Node000005_Node000038"><a xlink:title=" ">
<path fill="none" stroke="#63b8ff" d="M1447.45,-166.18C1444.42,-165.78 1441.42,-165.38 1438.5,-165 1305.45,-147.78 1269.26,-147.87 1133,-129.16"/>
<polygon fill="#63b8ff" stroke="#63b8ff" points="1133.4,-125.68 1123.01,-127.78 1132.44,-132.61 1133.4,-125.68"/>
</a>
</g>
</g>
<!-- Node40 -->
<g id="Node000040" class="node">
<title>Node40</title>
<g id="a_Node000040"><a xlink:href="statvfs_8h.html" target="_top" xlink:title=" ">
<polygon fill="white" stroke="#666666" points="1240,-129 1141,-129 1141,-110 1240,-110 1240,-129"/>
<text text-anchor="middle" x="1190.5" y="-117" font-family="Helvetica,sans-Serif" font-size="10.00">compat/statvfs.h</text>
</a>
</g>
</g>
<!-- Node5&#45;&gt;Node40 -->
<g id="edge27_Node000005_Node000040" class="edge">
<title>Node5&#45;&gt;Node40</title>
<g id="a_edge27_Node000005_Node000040"><a xlink:title=" ">
<path fill="none" stroke="#63b8ff" d="M1449.01,-164.98C1394.87,-155.67 1308.1,-140.74 1250.22,-130.78"/>
<polygon fill="#63b8ff" stroke="#63b8ff" points="1250.57,-127.28 1240.12,-129.04 1249.38,-134.18 1250.57,-127.28"/>
</a>
</g>
</g>
<!-- Node47 -->
<g id="Node000047" class="node">
<title>Node47</title>
<g id="a_Node000047"><a xlink:href="ip_2Address_8h.html" target="_top" xlink:title=" ">
<polygon fill="#fff0f0" stroke="red" points="4158,-74 4081,-74 4081,-55 4158,-55 4158,-74"/>
<text text-anchor="middle" x="4119.5" y="-62" font-family="Helvetica,sans-Serif" font-size="10.00">ip/Address.h</text>
</a>
</g>
</g>
<!-- Node46&#45;&gt;Node47 -->
<g id="edge31_Node000046_Node000047" class="edge">
<title>Node46&#45;&gt;Node47</title>
<g id="a_edge31_Node000046_Node000047"><a xlink:title=" ">
<path fill="none" stroke="#63b8ff" d="M3855.37,-226.37C3913,-221.83 4034.09,-209.47 4066.5,-184 4098.44,-158.9 4111.68,-110.4 4116.71,-83.89"/>
<polygon fill="#63b8ff" stroke="#63b8ff" points="4120.17,-84.46 4118.4,-74.01 4113.27,-83.28 4120.17,-84.46"/>
</a>
</g>
</g>
<!-- Node50 -->
<g id="Node000050" class="node">
<title>Node50</title>
<g id="a_Node000050"><a xlink:title=" ">
<polygon fill="#e0e0e0" stroke="#999999" points="4081,-19 4024,-19 4024,0 4081,0 4081,-19"/>
<text text-anchor="middle" x="4052.5" y="-7" font-family="Helvetica,sans-Serif" font-size="10.00">ostream</text>
</a>
</g>
</g>
<!-- Node47&#45;&gt;Node50 -->
<g id="edge32_Node000047_Node000050" class="edge">
<title>Node47&#45;&gt;Node50</title>
<g id="a_edge32_Node000047_Node000050"><a xlink:title=" ">
<path fill="none" stroke="#63b8ff" d="M4108.74,-54.98C4098.73,-47.07 4083.61,-35.11 4071.57,-25.58"/>
<polygon fill="#63b8ff" stroke="#63b8ff" points="4073.47,-22.63 4063.46,-19.17 4069.13,-28.12 4073.47,-22.63"/>
</a>
</g>
</g>
<!-- Node52&#45;&gt;Node50 -->
<g id="edge63_Node000052_Node000050" class="edge">
<title>Node52&#45;&gt;Node50</title>
<g id="a_edge63_Node000052_Node000050"><a xlink:title=" ">
<path fill="none" stroke="#63b8ff" d="M3482.16,-227.43C3591.43,-222.75 4013.4,-203.46 4033.5,-184 4075.53,-143.29 4064.97,-65.28 4057.24,-29.4"/>
<polygon fill="#63b8ff" stroke="#63b8ff" points="4060.57,-28.28 4054.9,-19.34 4053.75,-29.87 4060.57,-28.28"/>
</a>
</g>
</g>
<!-- Node53 -->
<g id="Node000053" class="node">
<title>Node53</title>
<g id="a_Node000053"><a xlink:href="DelayedAsyncCalls_8h.html" target="_top" xlink:title=" ">
<polygon fill="#fff0f0" stroke="red" points="3837.5,-129 3691.5,-129 3691.5,-110 3837.5,-110 3837.5,-129"/>
<text text-anchor="middle" x="3764.5" y="-117" font-family="Helvetica,sans-Serif" font-size="10.00">base/DelayedAsyncCalls.h</text>
</a>
</g>
</g>
<!-- Node52&#45;&gt;Node53 -->
<g id="edge34_Node000052_Node000053" class="edge">
<title>Node52&#45;&gt;Node53</title>
<g id="a_edge34_Node000052_Node000053"><a xlink:title=" ">
<path fill="none" stroke="#63b8ff" d="M3482.21,-221.91C3512.82,-213.87 3565.36,-199.41 3609.5,-184 3654.34,-168.34 3705.05,-146.82 3735.9,-133.28"/>
<polygon fill="#63b8ff" stroke="#63b8ff" points="3737.44,-136.43 3745.18,-129.19 3734.62,-130.02 3737.44,-136.43"/>
</a>
</g>
</g>
<!-- Node67 -->
<g id="Node000067" class="node">
<title>Node67</title>
<g id="a_Node000067"><a xlink:href="Packable_8h.html" target="_top" xlink:title=" ">
<polygon fill="white" stroke="#666666" points="3580,-184 3485,-184 3485,-165 3580,-165 3580,-184"/>
<text text-anchor="middle" x="3532.5" y="-172" font-family="Helvetica,sans-Serif" font-size="10.00">base/Packable.h</text>
</a>
</g>
</g>
<!-- Node52&#45;&gt;Node67 -->
<g id="edge35_Node000052_Node000067" class="edge">
<title>Node52&#45;&gt;Node67</title>
<g id="a_edge35_Node000052_Node000067"><a xlink:title=" ">
<path fill="none" stroke="#63b8ff" d="M3468.71,-219.98C3480.28,-211.92 3497.88,-199.65 3511.66,-190.03"/>
<polygon fill="#63b8ff" stroke="#63b8ff" points="3513.87,-192.76 3520.07,-184.17 3509.86,-187.02 3513.87,-192.76"/>
</a>
</g>
</g>
<!-- Node70 -->
<g id="Node000070" class="node">
<title>Node70</title>
<g id="a_Node000070"><a xlink:href="Range_8h.html" target="_top" xlink:title=" ">
<polygon fill="#fff0f0" stroke="red" points="3158,-74 3075,-74 3075,-55 3158,-55 3158,-74"/>
<text text-anchor="middle" x="3116.5" y="-62" font-family="Helvetica,sans-Serif" font-size="10.00">base/Range.h</text>
</a>
</g>
</g>
<!-- Node52&#45;&gt;Node70 -->
<g id="edge36_Node000052_Node000070" class="edge">
<title>Node52&#45;&gt;Node70</title>
<g id="a_edge36_Node000052_Node000070"><a xlink:title=" ">
<path fill="none" stroke="#63b8ff" d="M3430.97,-221.85C3427.8,-221.16 3424.58,-220.52 3421.5,-220 3337.41,-205.9 3112.79,-227.57 3039.5,-184 3007.89,-165.21 2981.76,-140.36 3002.5,-110 3016.6,-89.35 3041.83,-78.29 3064.98,-72.35"/>
<polygon fill="#63b8ff" stroke="#63b8ff" points="3065.77,-75.76 3074.73,-70.11 3064.2,-68.94 3065.77,-75.76"/>
</a>
</g>
</g>
<!-- Node58 -->
<g id="Node000058" class="node">
<title>Node58</title>
<g id="a_Node000058"><a xlink:href="RefCount_8h.html" target="_top" xlink:title=" ">
<polygon fill="#fff0f0" stroke="red" points="3990,-129 3893,-129 3893,-110 3990,-110 3990,-129"/>
<text text-anchor="middle" x="3941.5" y="-117" font-family="Helvetica,sans-Serif" font-size="10.00">base/RefCount.h</text>
</a>
</g>
</g>
<!-- Node52&#45;&gt;Node58 -->
<g id="edge38_Node000052_Node000058" class="edge">
<title>Node52&#45;&gt;Node58</title>
<g id="a_edge38_Node000052_Node000058"><a xlink:title=" ">
<path fill="none" stroke="#63b8ff" d="M3482.02,-228.06C3562.31,-226.34 3808.64,-218.32 3879.5,-184 3900.86,-173.65 3918.96,-152.77 3929.99,-137.77"/>
<polygon fill="#63b8ff" stroke="#63b8ff" points="3933.03,-139.54 3935.91,-129.34 3927.3,-135.52 3933.03,-139.54"/>
</a>
</g>
</g>
<!-- Node71 -->
<g id="Node000071" class="node">
<title>Node71</title>
<g id="a_Node000071"><a xlink:href="comm_2forward_8h.html" target="_top" xlink:title=" ">
<polygon fill="#fff0f0" stroke="red" points="4024,-184 3927,-184 3927,-165 4024,-165 4024,-184"/>
<text text-anchor="middle" x="3975.5" y="-172" font-family="Helvetica,sans-Serif" font-size="10.00">comm/forward.h</text>
</a>
</g>
</g>
<!-- Node52&#45;&gt;Node71 -->
<g id="edge39_Node000052_Node000071" class="edge">
<title>Node52&#45;&gt;Node71</title>
<g id="a_edge39_Node000052_Node000071"><a xlink:title=" ">
<path fill="none" stroke="#63b8ff" d="M3482.25,-226.32C3551.75,-220.37 3748.95,-203.01 3912.5,-184 3913.79,-183.85 3915.1,-183.69 3916.42,-183.54"/>
<polygon fill="#63b8ff" stroke="#63b8ff" points="3917.19,-186.97 3926.68,-182.27 3916.33,-180.02 3917.19,-186.97"/>
</a>
</g>
</g>
<!-- Node73 -->
<g id="Node000073" class="node">
<title>Node73</title>
<g id="a_Node000073"><a xlink:href="hash_8h.html" target="_top" xlink:title=" ">
<polygon fill="white" stroke="#666666" points="3068,-129 3019,-129 3019,-110 3068,-110 3068,-129"/>
<text text-anchor="middle" x="3043.5" y="-117" font-family="Helvetica,sans-Serif" font-size="10.00">hash.h</text>
</a>
</g>
</g>
<!-- Node52&#45;&gt;Node73 -->
<g id="edge41_Node000052_Node000073" class="edge">
<title>Node52&#45;&gt;Node73</title>
<g id="a_edge41_Node000052_Node000073"><a xlink:title=" ">
<path fill="none" stroke="#63b8ff" d="M3430.96,-221.94C3427.79,-221.23 3424.58,-220.56 3421.5,-220 3292.86,-196.53 3250.96,-232.42 3129.5,-184 3102.19,-173.11 3075.76,-151.39 3059.56,-136.41"/>
<polygon fill="#63b8ff" stroke="#63b8ff" points="3061.74,-133.64 3052.08,-129.28 3056.91,-138.71 3061.74,-133.64"/>
</a>
</g>
</g>
<!-- Node74 -->
<g id="Node000074" class="node">
<title>Node74</title>
<g id="a_Node000074"><a xlink:href="http_2forward_8h.html" target="_top" xlink:title=" ">
<polygon fill="#fff0f0" stroke="red" points="3262.5,-74 3176.5,-74 3176.5,-55 3262.5,-55 3262.5,-74"/>
<text text-anchor="middle" x="3219.5" y="-62" font-family="Helvetica,sans-Serif" font-size="10.00">http/forward.h</text>
</a>
</g>
</g>
<!-- Node52&#45;&gt;Node74 -->
<g id="edge42_Node000052_Node000074" class="edge">
<title>Node52&#45;&gt;Node74</title>
<g id="a_edge42_Node000052_Node000074"><a xlink:title=" ">
<path fill="none" stroke="#63b8ff" d="M3430.97,-221.9C3427.79,-221.19 3424.58,-220.54 3421.5,-220 3276.62,-194.59 3230.82,-234.04 3092.5,-184 3050.89,-168.95 3030.44,-167.99 3009.5,-129 3005.51,-121.56 3004.18,-116.56 3009.5,-110 3014.49,-103.84 3105.62,-86.21 3166.18,-75.08"/>
<polygon fill="#63b8ff" stroke="#63b8ff" points="3167.15,-78.46 3176.36,-73.21 3165.89,-71.57 3167.15,-78.46"/>
</a>
</g>
</g>
<!-- Node80 -->
<g id="Node000080" class="node">
<title>Node80</title>
<g id="a_Node000080"><a xlink:href="RequestMethod_8h.html" target="_top" xlink:title=" ">
<polygon fill="#fff0f0" stroke="red" points="3673,-129 3548,-129 3548,-110 3673,-110 3673,-129"/>
<text text-anchor="middle" x="3610.5" y="-117" font-family="Helvetica,sans-Serif" font-size="10.00">http/RequestMethod.h</text>
</a>
</g>
</g>
<!-- Node52&#45;&gt;Node80 -->
<g id="edge43_Node000052_Node000080" class="edge">
<title>Node52&#45;&gt;Node80</title>
<g id="a_edge43_Node000052_Node000080"><a xlink:title=" ">
<path fill="none" stroke="#63b8ff" d="M3482.08,-226.51C3511.53,-222.89 3559.57,-212.69 3588.5,-184 3600.53,-172.07 3605.99,-153.25 3608.46,-139.19"/>
<polygon fill="#63b8ff" stroke="#63b8ff" points="3611.95,-139.55 3609.88,-129.16 3605.02,-138.57 3611.95,-139.55"/>
</a>
</g>
</g>
<!-- Node102 -->
<g id="Node000102" class="node">
<title>Node102</title>
<g id="a_Node000102"><a xlink:href="HttpReply_8h.html" target="_top" xlink:title=" ">
<polygon fill="#fff0f0" stroke="red" points="3415,-129 3342,-129 3342,-110 3415,-110 3415,-129"/>
<text text-anchor="middle" x="3378.5" y="-117" font-family="Helvetica,sans-Serif" font-size="10.00">HttpReply.h</text>
</a>
</g>
</g>
<!-- Node52&#45;&gt;Node102 -->
<g id="edge45_Node000052_Node000102" class="edge">
<title>Node52&#45;&gt;Node102</title>
<g id="a_edge45_Node000052_Node000102"><a xlink:title=" ">
<path fill="none" stroke="#63b8ff" d="M3430.8,-220.6C3397.51,-210.12 3343.05,-192 3337.5,-184 3326.2,-167.72 3342.51,-148.54 3357.78,-135.56"/>
<polygon fill="#63b8ff" stroke="#63b8ff" points="3360.32,-138.01 3365.97,-129.04 3355.97,-132.53 3360.32,-138.01"/>
</a>
</g>
</g>
<!-- Node202 -->
<g id="Node000202" class="node">
<title>Node202</title>
<g id="a_Node000202"><a xlink:href="MemObject_8h.html" target="_top" xlink:title=" ">
<polygon fill="#fff0f0" stroke="red" points="3428.5,-184 3346.5,-184 3346.5,-165 3428.5,-165 3428.5,-184"/>
<text text-anchor="middle" x="3387.5" y="-172" font-family="Helvetica,sans-Serif" font-size="10.00">MemObject.h</text>
</a>
</g>
</g>
<!-- Node52&#45;&gt;Node202 -->
<g id="edge46_Node000052_Node000202" class="edge">
<title>Node52&#45;&gt;Node202</title>
<g id="a_edge46_Node000052_Node000202"><a xlink:title=" ">
<path fill="none" stroke="#63b8ff" d="M3445.41,-219.98C3435.01,-212 3419.24,-199.88 3406.78,-190.31"/>
<polygon fill="#63b8ff" stroke="#63b8ff" points="3408.85,-187.49 3398.79,-184.17 3404.59,-193.04 3408.85,-187.49"/>
</a>
</g>
</g>
<!-- Node203 -->
<g id="Node000203" class="node">
<title>Node203</title>
<g id="a_Node000203"><a xlink:href="RemovalPolicy_8h.html" target="_top" xlink:title=" ">
<polygon fill="#fff0f0" stroke="red" points="3530,-129 3433,-129 3433,-110 3530,-110 3530,-129"/>
<text text-anchor="middle" x="3481.5" y="-117" font-family="Helvetica,sans-Serif" font-size="10.00">RemovalPolicy.h</text>
</a>
</g>
</g>
<!-- Node52&#45;&gt;Node203 -->
<g id="edge54_Node000052_Node000203" class="edge">
<title>Node52&#45;&gt;Node203</title>
<g id="a_edge54_Node000052_Node000203"><a xlink:title=" ">
<path fill="none" stroke="#63b8ff" d="M3458.55,-219.66C3462.61,-202.09 3471.79,-162.45 3477.23,-138.95"/>
<polygon fill="#63b8ff" stroke="#63b8ff" points="3480.65,-139.69 3479.5,-129.16 3473.83,-138.11 3480.65,-139.69"/>
</a>
</g>
</g>
<!-- Node93 -->
<g id="Node000093" class="node">
<title>Node93</title>
<g id="a_Node000093"><a xlink:href="store_2forward_8h.html" target="_top" xlink:title=" ">
<polygon fill="white" stroke="#666666" points="3324,-129 3233,-129 3233,-110 3324,-110 3324,-129"/>
<text text-anchor="middle" x="3278.5" y="-117" font-family="Helvetica,sans-Serif" font-size="10.00">store/forward.h</text>
</a>
</g>
</g>
<!-- Node52&#45;&gt;Node93 -->
<g id="edge56_Node000052_Node000093" class="edge">
<title>Node52&#45;&gt;Node93</title>
<g id="a_edge56_Node000052_Node000093"><a xlink:title=" ">
<path fill="none" stroke="#63b8ff" d="M3430.81,-221.22C3398.99,-211.89 3346.97,-195.56 3330.5,-184 3313.06,-171.76 3298.26,-152.16 3288.96,-137.97"/>
<polygon fill="#63b8ff" stroke="#63b8ff" points="3291.71,-135.78 3283.43,-129.17 3285.79,-139.5 3291.71,-135.78"/>
</a>
</g>
</g>
<!-- Node207 -->
<g id="Node000207" class="node">
<title>Node207</title>
<g id="a_Node000207"><a xlink:href="StoreIOBuffer_8h.html" target="_top" xlink:title=" ">
<polygon fill="#fff0f0" stroke="red" points="3176.5,-129 3086.5,-129 3086.5,-110 3176.5,-110 3176.5,-129"/>
<text text-anchor="middle" x="3131.5" y="-117" font-family="Helvetica,sans-Serif" font-size="10.00">StoreIOBuffer.h</text>
</a>
</g>
</g>
<!-- Node52&#45;&gt;Node207 -->
<g id="edge61_Node000052_Node000207" class="edge">
<title>Node52&#45;&gt;Node207</title>
<g id="a_edge61_Node000052_Node000207"><a xlink:title=" ">
<path fill="none" stroke="#63b8ff" d="M3430.96,-221.95C3427.78,-221.24 3424.57,-220.57 3421.5,-220 3360.25,-208.63 3188.81,-226.75 3143.5,-184 3131.65,-172.82 3129.38,-153.9 3129.64,-139.61"/>
<polygon fill="#63b8ff" stroke="#63b8ff" points="3133.15,-139.57 3130.25,-129.38 3126.16,-139.15 3133.15,-139.57"/>
</a>
</g>
</g>
<!-- Node212 -->
<g id="Node000212" class="node">
<title>Node212</title>
<g id="a_Node000212"><a xlink:href="Controller_8h.html" target="_top" xlink:title=" ">
<polygon fill="#fff0f0" stroke="red" points="3776,-184 3675,-184 3675,-165 3776,-165 3776,-184"/>
<text text-anchor="middle" x="3725.5" y="-172" font-family="Helvetica,sans-Serif" font-size="10.00">store/Controller.h</text>
</a>
</g>
</g>
<!-- Node52&#45;&gt;Node212 -->
<g id="edge55_Node000052_Node000212" class="edge">
<title>Node52&#45;&gt;Node212</title>
<g id="a_edge55_Node000052_Node000212"><a xlink:title=" ">
<path fill="none" stroke="#63b8ff" d="M3482.29,-223.42C3525.84,-214.84 3614.78,-197.32 3672.19,-186"/>
<polygon fill="#63b8ff" stroke="#63b8ff" points="3673.04,-189.4 3682.17,-184.04 3671.68,-182.54 3673.04,-189.4"/>
</a>
</g>
</g>
<!-- Node92 -->
<g id="Node000092" class="node">
<title>Node92</title>
<g id="a_Node000092"><a xlink:href="store__key__md5_8h.html" target="_top" xlink:title=" ">
<polygon fill="white" stroke="#666666" points="3252.5,-184 3152.5,-184 3152.5,-165 3252.5,-165 3252.5,-184"/>
<text text-anchor="middle" x="3202.5" y="-172" font-family="Helvetica,sans-Serif" font-size="10.00">store_key_md5.h</text>
</a>
</g>
</g>
<!-- Node52&#45;&gt;Node92 -->
<g id="edge57_Node000052_Node000092" class="edge">
<title>Node52&#45;&gt;Node92</title>
<g id="a_edge57_Node000052_Node000092"><a xlink:title=" ">
<path fill="none" stroke="#63b8ff" d="M3430.91,-222.17C3427.75,-221.42 3424.55,-220.68 3421.5,-220 3365.64,-207.55 3301.44,-194.67 3257.06,-185.99"/>
<polygon fill="#63b8ff" stroke="#63b8ff" points="3257.55,-182.52 3247.07,-184.04 3256.21,-189.39 3257.55,-182.52"/>
</a>
</g>
</g>
<!-- Node214 -->
<g id="Node000214" class="node">
<title>Node214</title>
<g id="a_Node000214"><a xlink:href="StoreStats_8h.html" target="_top" xlink:title=" ">
<polygon fill="white" stroke="#666666" points="3870.5,-184 3794.5,-184 3794.5,-165 3870.5,-165 3870.5,-184"/>
<text text-anchor="middle" x="3832.5" y="-172" font-family="Helvetica,sans-Serif" font-size="10.00">StoreStats.h</text>
</a>
</g>
</g>
<!-- Node52&#45;&gt;Node214 -->
<g id="edge62_Node000052_Node000214" class="edge">
<title>Node52&#45;&gt;Node214</title>
<g id="a_edge62_Node000052_Node000214"><a xlink:title=" ">
<path fill="none" stroke="#63b8ff" d="M3482.07,-225.39C3535.84,-218.77 3664.77,-202.49 3784.22,-183.98"/>
<polygon fill="#63b8ff" stroke="#63b8ff" points="3784.93,-187.41 3794.27,-182.41 3783.85,-180.5 3784.93,-187.41"/>
</a>
</g>
</g>
<!-- Node70&#45;&gt;Node50 -->
<g id="edge37_Node000070_Node000050" class="edge">
<title>Node70&#45;&gt;Node50</title>
<g id="a_edge37_Node000070_Node000050"><a xlink:title=" ">
<path fill="none" stroke="#63b8ff" d="M3158.19,-56.15C3161.34,-55.72 3164.47,-55.33 3167.5,-55 3493.34,-19.77 3889.76,-12.36 4013.63,-10.86"/>
<polygon fill="#63b8ff" stroke="#63b8ff" points="4013.8,-14.36 4023.75,-10.75 4013.71,-7.36 4013.8,-14.36"/>
</a>
</g>
</g>
<!-- Node71&#45;&gt;Node58 -->
<g id="edge40_Node000071_Node000058" class="edge">
<title>Node71&#45;&gt;Node58</title>
<g id="a_edge40_Node000071_Node000058"><a xlink:title=" ">
<path fill="none" stroke="#63b8ff" d="M3969.89,-164.75C3965.18,-157.42 3958.33,-146.73 3952.53,-137.7"/>
<polygon fill="#63b8ff" stroke="#63b8ff" points="3955.36,-135.62 3947.01,-129.09 3949.46,-139.4 3955.36,-135.62"/>
</a>
</g>
</g>
<!-- Node80&#45;&gt;Node74 -->
<g id="edge44_Node000080_Node000074" class="edge">
<title>Node80&#45;&gt;Node74</title>
<g id="a_edge44_Node000080_Node000074"><a xlink:title=" ">
<path fill="none" stroke="#63b8ff" d="M3547.68,-109.98C3471.45,-99.65 3344.26,-82.41 3272.66,-72.71"/>
<polygon fill="#63b8ff" stroke="#63b8ff" points="3272.9,-69.21 3262.52,-71.33 3271.96,-76.14 3272.9,-69.21"/>
</a>
</g>
</g>
<!-- Node202&#45;&gt;Node53 -->
<g id="edge47_Node000202_Node000053" class="edge">
<title>Node202&#45;&gt;Node53</title>
<g id="a_edge47_Node000202_Node000053"><a xlink:title=" ">
<path fill="none" stroke="#63b8ff" d="M3428.56,-167.73C3492.21,-158.78 3615.49,-141.45 3693.7,-130.45"/>
<polygon fill="#63b8ff" stroke="#63b8ff" points="3694.54,-133.87 3703.95,-129.01 3693.56,-126.94 3694.54,-133.87"/>
</a>
</g>
</g>
<!-- Node202&#45;&gt;Node80 -->
<g id="edge48_Node000202_Node000080" class="edge">
<title>Node202&#45;&gt;Node80</title>
<g id="a_edge48_Node000202_Node000080"><a xlink:title=" ">
<path fill="none" stroke="#63b8ff" d="M3423.33,-164.98C3461.66,-155.87 3522.58,-141.4 3564.45,-131.45"/>
<polygon fill="#63b8ff" stroke="#63b8ff" points="3565.47,-134.8 3574.39,-129.08 3563.85,-127.99 3565.47,-134.8"/>
</a>
</g>
</g>
<!-- Node202&#45;&gt;Node102 -->
<g id="edge49_Node000202_Node000102" class="edge">
<title>Node202&#45;&gt;Node102</title>
<g id="a_edge49_Node000202_Node000102"><a xlink:title=" ">
<path fill="none" stroke="#63b8ff" d="M3386.01,-164.75C3384.83,-157.8 3383.14,-147.85 3381.66,-139.13"/>
<polygon fill="#63b8ff" stroke="#63b8ff" points="3385.08,-138.36 3379.96,-129.09 3378.18,-139.53 3385.08,-138.36"/>
</a>
</g>
</g>
<!-- Node202&#45;&gt;Node203 -->
<g id="edge50_Node000202_Node000203" class="edge">
<title>Node202&#45;&gt;Node203</title>
<g id="a_edge50_Node000202_Node000203"><a xlink:title=" ">
<path fill="none" stroke="#63b8ff" d="M3402.6,-164.98C3417.32,-156.69 3439.92,-143.94 3457.17,-134.22"/>
<polygon fill="#63b8ff" stroke="#63b8ff" points="3459.13,-137.13 3466.12,-129.17 3455.69,-131.03 3459.13,-137.13"/>
</a>
</g>
</g>
<!-- Node202&#45;&gt;Node93 -->
<g id="edge51_Node000202_Node000093" class="edge">
<title>Node202&#45;&gt;Node93</title>
<g id="a_edge51_Node000202_Node000093"><a xlink:title=" ">
<path fill="none" stroke="#63b8ff" d="M3369.99,-164.98C3352.53,-156.5 3325.49,-143.35 3305.33,-133.54"/>
<polygon fill="#63b8ff" stroke="#63b8ff" points="3306.86,-130.4 3296.33,-129.17 3303.79,-136.69 3306.86,-130.4"/>
</a>
</g>
</g>
<!-- Node202&#45;&gt;Node207 -->
<g id="edge52_Node000202_Node000207" class="edge">
<title>Node202&#45;&gt;Node207</title>
<g id="a_edge52_Node000202_Node000207"><a xlink:title=" ">
<path fill="none" stroke="#63b8ff" d="M3346.37,-164.98C3301.9,-155.78 3230.95,-141.09 3182.85,-131.13"/>
<polygon fill="#63b8ff" stroke="#63b8ff" points="3183.46,-127.68 3172.95,-129.08 3182.04,-134.54 3183.46,-127.68"/>
</a>
</g>
</g>
<!-- Node207&#45;&gt;Node70 -->
<g id="edge53_Node000207_Node000070" class="edge">
<title>Node207&#45;&gt;Node70</title>
<g id="a_edge53_Node000207_Node000070"><a xlink:title=" ">
<path fill="none" stroke="#63b8ff" d="M3129.02,-109.75C3127.04,-102.72 3124.18,-92.62 3121.69,-83.84"/>
<polygon fill="#63b8ff" stroke="#63b8ff" points="3125.02,-82.76 3118.93,-74.09 3118.29,-84.66 3125.02,-82.76"/>
</a>
</g>
</g>
<!-- Node92&#45;&gt;Node73 -->
<g id="edge58_Node000092_Node000073" class="edge">
<title>Node92&#45;&gt;Node73</title>
<g id="a_edge58_Node000092_Node000073"><a xlink:title=" ">
<path fill="none" stroke="#63b8ff" d="M3176.95,-164.98C3150.06,-156.02 3107.57,-141.86 3077.77,-131.92"/>
<polygon fill="#63b8ff" stroke="#63b8ff" points="3078.79,-128.57 3068.2,-128.73 3076.58,-135.22 3078.79,-128.57"/>
</a>
</g>
</g>
<!-- Node92&#45;&gt;Node74 -->
<g id="edge59_Node000092_Node000074" class="edge">
<title>Node92&#45;&gt;Node74</title>
<g id="a_edge59_Node000092_Node000074"><a xlink:title=" ">
<path fill="none" stroke="#63b8ff" d="M3203.89,-164.66C3206.64,-147.17 3212.84,-107.8 3216.54,-84.27"/>
<polygon fill="#63b8ff" stroke="#63b8ff" points="3220.04,-84.58 3218.14,-74.16 3213.12,-83.49 3220.04,-84.58"/>
</a>
</g>
</g>
<!-- Node92&#45;&gt;Node93 -->
<g id="edge60_Node000092_Node000093" class="edge">
<title>Node92&#45;&gt;Node93</title>
<g id="a_edge60_Node000092_Node000093"><a xlink:title=" ">
<path fill="none" stroke="#63b8ff" d="M3214.71,-164.98C3226.28,-156.92 3243.88,-144.65 3257.66,-135.03"/>
<polygon fill="#63b8ff" stroke="#63b8ff" points="3259.87,-137.76 3266.07,-129.17 3255.86,-132.02 3259.87,-137.76"/>
</a>
</g>
</g>
</g>
</svg>
