<?xml version="1.0" encoding="UTF-8" standalone="no"?>
<!DOCTYPE svg PUBLIC "-//W3C//DTD SVG 1.1//EN"
 "http://www.w3.org/Graphics/SVG/1.1/DTD/svg11.dtd">
<!-- Generated by graphviz version 2.43.0 (0)
 -->
<!-- Title: squid/src/DelayPool.h Pages: 1 -->
<svg width="574pt" height="82pt"
 viewBox="0.00 0.00 573.50 82.00" xmlns="http://www.w3.org/2000/svg" xmlns:xlink="http://www.w3.org/1999/xlink">
<g id="graph0" class="graph" transform="scale(1 1) rotate(0) translate(4 78)">
<title>squid/src/DelayPool.h</title>
<!-- Node1 -->
<g id="Node000001" class="node">
<title>Node1</title>
<g id="a_Node000001"><a xlink:title=" ">
<polygon fill="#999999" stroke="#666666" points="341,-74 219,-74 219,-55 341,-55 341,-74"/>
<text text-anchor="middle" x="280" y="-62" font-family="Helvetica,sans-Serif" font-size="10.00">squid/src/DelayPool.h</text>
</a>
</g>
</g>
<!-- Node2 -->
<g id="Node000002" class="node">
<title>Node2</title>
<g id="a_Node000002"><a xlink:href="DelayConfig_8cc.html" target="_top" xlink:title=" ">
<polygon fill="white" stroke="#666666" points="136,-19 0,-19 0,0 136,0 136,-19"/>
<text text-anchor="middle" x="68" y="-7" font-family="Helvetica,sans-Serif" font-size="10.00">squid/src/DelayConfig.cc</text>
</a>
</g>
</g>
<!-- Node1&#45;&gt;Node2 -->
<g id="edge1_Node000001_Node000002" class="edge">
<title>Node1&#45;&gt;Node2</title>
<g id="a_edge1_Node000001_Node000002"><a xlink:title=" ">
<path fill="none" stroke="#63b8ff" d="M236,-52.5C196.31,-42.58 138.72,-28.18 102.33,-19.08"/>
<polygon fill="#63b8ff" stroke="#63b8ff" points="235.39,-55.95 245.94,-54.98 237.09,-49.16 235.39,-55.95"/>
</a>
</g>
</g>
<!-- Node3 -->
<g id="Node000003" class="node">
<title>Node3</title>
<g id="a_Node000003"><a xlink:href="DelayId_8cc.html" target="_top" xlink:title=" ">
<polygon fill="white" stroke="#666666" points="268,-19 154,-19 154,0 268,0 268,-19"/>
<text text-anchor="middle" x="211" y="-7" font-family="Helvetica,sans-Serif" font-size="10.00">squid/src/DelayId.cc</text>
</a>
</g>
</g>
<!-- Node1&#45;&gt;Node3 -->
<g id="edge2_Node000001_Node000003" class="edge">
<title>Node1&#45;&gt;Node3</title>
<g id="a_edge2_Node000001_Node000003"><a xlink:title=" ">
<path fill="none" stroke="#63b8ff" d="M260.96,-48.88C248.54,-39.34 232.76,-27.21 222.29,-19.17"/>
<polygon fill="#63b8ff" stroke="#63b8ff" points="258.85,-51.67 268.91,-54.98 263.12,-46.12 258.85,-51.67"/>
</a>
</g>
</g>
<!-- Node4 -->
<g id="Node000004" class="node">
<title>Node4</title>
<g id="a_Node000004"><a xlink:href="DelayPool_8cc.html" target="_top" xlink:title=" ">
<polygon fill="white" stroke="#666666" points="412,-19 286,-19 286,0 412,0 412,-19"/>
<text text-anchor="middle" x="349" y="-7" font-family="Helvetica,sans-Serif" font-size="10.00">squid/src/DelayPool.cc</text>
</a>
</g>
</g>
<!-- Node1&#45;&gt;Node4 -->
<g id="edge3_Node000001_Node000004" class="edge">
<title>Node1&#45;&gt;Node4</title>
<g id="a_edge3_Node000001_Node000004"><a xlink:title=" ">
<path fill="none" stroke="#63b8ff" d="M299.04,-48.88C311.46,-39.34 327.24,-27.21 337.71,-19.17"/>
<polygon fill="#63b8ff" stroke="#63b8ff" points="296.88,-46.12 291.09,-54.98 301.15,-51.67 296.88,-46.12"/>
</a>
</g>
</g>
<!-- Node5 -->
<g id="Node000005" class="node">
<title>Node5</title>
<g id="a_Node000005"><a xlink:href="delay__pools_8cc.html" target="_top" xlink:title=" ">
<polygon fill="white" stroke="#666666" points="565.5,-19 430.5,-19 430.5,0 565.5,0 565.5,-19"/>
<text text-anchor="middle" x="498" y="-7" font-family="Helvetica,sans-Serif" font-size="10.00">squid/src/delay_pools.cc</text>
</a>
</g>
</g>
<!-- Node1&#45;&gt;Node5 -->
<g id="edge4_Node000001_Node000005" class="edge">
<title>Node1&#45;&gt;Node5</title>
<g id="a_edge4_Node000001_Node000005"><a xlink:title=" ">
<path fill="none" stroke="#63b8ff" d="M324.98,-52.56C365.81,-42.64 425.2,-28.2 462.7,-19.08"/>
<polygon fill="#63b8ff" stroke="#63b8ff" points="323.92,-49.22 315.03,-54.98 325.57,-56.02 323.92,-49.22"/>
</a>
</g>
</g>
</g>
</svg>
