<?xml version="1.0" encoding="UTF-8" standalone="no"?>
<!DOCTYPE svg PUBLIC "-//W3C//DTD SVG 1.1//EN"
 "http://www.w3.org/Graphics/SVG/1.1/DTD/svg11.dtd">
<!-- Generated by graphviz version 2.43.0 (0)
 -->
<!-- Title: squid/src/DelayVector.cc Pages: 1 -->
<svg width="4126pt" height="467pt"
 viewBox="0.00 0.00 4125.50 467.00" xmlns="http://www.w3.org/2000/svg" xmlns:xlink="http://www.w3.org/1999/xlink">
<g id="graph0" class="graph" transform="scale(1 1) rotate(0) translate(4 463)">
<title>squid/src/DelayVector.cc</title>
<!-- Node1 -->
<g id="Node000001" class="node">
<title>Node1</title>
<g id="a_Node000001"><a xlink:title=" ">
<polygon fill="#999999" stroke="#666666" points="3080.5,-459 2945.5,-459 2945.5,-440 3080.5,-440 3080.5,-459"/>
<text text-anchor="middle" x="3013" y="-447" font-family="Helvetica,sans-Serif" font-size="10.00">squid/src/DelayVector.cc</text>
</a>
</g>
</g>
<!-- Node2 -->
<g id="Node000002" class="node">
<title>Node2</title>
<g id="a_Node000002"><a xlink:href="squid_8h.html" target="_top" xlink:title=" ">
<polygon fill="white" stroke="#666666" points="1633,-404 1581,-404 1581,-385 1633,-385 1633,-404"/>
<text text-anchor="middle" x="1607" y="-392" font-family="Helvetica,sans-Serif" font-size="10.00">squid.h</text>
</a>
</g>
</g>
<!-- Node1&#45;&gt;Node2 -->
<g id="edge1_Node000001_Node000002" class="edge">
<title>Node1&#45;&gt;Node2</title>
<g id="a_edge1_Node000001_Node000002"><a xlink:title=" ">
<path fill="none" stroke="#63b8ff" d="M2945.19,-445.94C2695.37,-436.53 1831.25,-403.95 1643.27,-396.87"/>
<polygon fill="#63b8ff" stroke="#63b8ff" points="1643.23,-393.36 1633.1,-396.48 1642.96,-400.36 1643.23,-393.36"/>
</a>
</g>
</g>
<!-- Node45 -->
<g id="Node000045" class="node">
<title>Node45</title>
<g id="a_Node000045"><a xlink:href="AsyncCall_8h.html" target="_top" xlink:title=" ">
<polygon fill="white" stroke="#666666" points="3125,-184 3025,-184 3025,-165 3125,-165 3125,-184"/>
<text text-anchor="middle" x="3075" y="-172" font-family="Helvetica,sans-Serif" font-size="10.00">base/AsyncCall.h</text>
</a>
</g>
</g>
<!-- Node1&#45;&gt;Node45 -->
<g id="edge28_Node000001_Node000045" class="edge">
<title>Node1&#45;&gt;Node45</title>
<g id="a_edge28_Node000001_Node000045"><a xlink:title=" ">
<path fill="none" stroke="#63b8ff" d="M3080.52,-447.02C3211.21,-442.33 3486,-422.68 3486,-340.5 3486,-340.5 3486,-340.5 3486,-283.5 3486,-211.88 3249.63,-186.78 3135.4,-178.83"/>
<polygon fill="#63b8ff" stroke="#63b8ff" points="3135.61,-175.33 3125.4,-178.15 3135.14,-182.32 3135.61,-175.33"/>
</a>
</g>
</g>
<!-- Node61 -->
<g id="Node000061" class="node">
<title>Node61</title>
<g id="a_Node000061"><a xlink:href="DelayedAsyncCalls_8h.html" target="_top" xlink:title=" ">
<polygon fill="white" stroke="#666666" points="3121,-294 2975,-294 2975,-275 3121,-275 3121,-294"/>
<text text-anchor="middle" x="3048" y="-282" font-family="Helvetica,sans-Serif" font-size="10.00">base/DelayedAsyncCalls.h</text>
</a>
</g>
</g>
<!-- Node1&#45;&gt;Node61 -->
<g id="edge38_Node000001_Node000061" class="edge">
<title>Node1&#45;&gt;Node61</title>
<g id="a_edge38_Node000001_Node000061"><a xlink:title=" ">
<path fill="none" stroke="#63b8ff" d="M2997.27,-439.88C2985.12,-432.23 2969.2,-419.83 2962,-404 2958.51,-396.31 2960.88,-393.37 2962,-385 2965.36,-359.89 2961.9,-350.34 2977,-330 2987.07,-316.43 3002.63,-306.01 3016.61,-298.68"/>
<polygon fill="#63b8ff" stroke="#63b8ff" points="3018.52,-301.64 3025.96,-294.09 3015.44,-295.36 3018.52,-301.64"/>
</a>
</g>
</g>
<!-- Node63 -->
<g id="Node000063" class="node">
<title>Node63</title>
<g id="a_Node000063"><a xlink:href="Connection_8h.html" target="_top" xlink:title=" ">
<polygon fill="white" stroke="#666666" points="3581,-184 3467,-184 3467,-165 3581,-165 3581,-184"/>
<text text-anchor="middle" x="3524" y="-172" font-family="Helvetica,sans-Serif" font-size="10.00">comm/Connection.h</text>
</a>
</g>
</g>
<!-- Node1&#45;&gt;Node63 -->
<g id="edge42_Node000001_Node000063" class="edge">
<title>Node1&#45;&gt;Node63</title>
<g id="a_edge42_Node000001_Node000063"><a xlink:title=" ">
<path fill="none" stroke="#63b8ff" d="M3080.59,-448.19C3219.47,-445.72 3524,-430.1 3524,-340.5 3524,-340.5 3524,-340.5 3524,-283.5 3524,-252.19 3524,-215.77 3524,-194.23"/>
<polygon fill="#63b8ff" stroke="#63b8ff" points="3527.5,-194.18 3524,-184.18 3520.5,-194.18 3527.5,-194.18"/>
</a>
</g>
</g>
<!-- Node78 -->
<g id="Node000078" class="node">
<title>Node78</title>
<g id="a_Node000078"><a xlink:href="DelayVector_8h.html" target="_top" xlink:title=" ">
<polygon fill="white" stroke="#666666" points="3055,-404 2971,-404 2971,-385 3055,-385 3055,-404"/>
<text text-anchor="middle" x="3013" y="-392" font-family="Helvetica,sans-Serif" font-size="10.00">DelayVector.h</text>
</a>
</g>
</g>
<!-- Node1&#45;&gt;Node78 -->
<g id="edge61_Node000001_Node000078" class="edge">
<title>Node1&#45;&gt;Node78</title>
<g id="a_edge61_Node000001_Node000078"><a xlink:title=" ">
<path fill="none" stroke="#63b8ff" d="M3013,-439.75C3013,-432.8 3013,-422.85 3013,-414.13"/>
<polygon fill="#63b8ff" stroke="#63b8ff" points="3016.5,-414.09 3013,-404.09 3009.5,-414.09 3016.5,-414.09"/>
</a>
</g>
</g>
<!-- Node3 -->
<g id="Node000003" class="node">
<title>Node3</title>
<g id="a_Node000003"><a xlink:href="autoconf_8h.html" target="_top" xlink:title=" ">
<polygon fill="white" stroke="#666666" points="1692,-349 1624,-349 1624,-330 1692,-330 1692,-349"/>
<text text-anchor="middle" x="1658" y="-337" font-family="Helvetica,sans-Serif" font-size="10.00">autoconf.h</text>
</a>
</g>
</g>
<!-- Node2&#45;&gt;Node3 -->
<g id="edge2_Node000002_Node000003" class="edge">
<title>Node2&#45;&gt;Node3</title>
<g id="a_edge2_Node000002_Node000003"><a xlink:title=" ">
<path fill="none" stroke="#63b8ff" d="M1615.42,-384.75C1622.77,-377.11 1633.63,-365.82 1642.54,-356.56"/>
<polygon fill="#63b8ff" stroke="#63b8ff" points="1645.32,-358.72 1649.74,-349.09 1640.28,-353.87 1645.32,-358.72"/>
</a>
</g>
</g>
<!-- Node4 -->
<g id="Node000004" class="node">
<title>Node4</title>
<g id="a_Node000004"><a xlink:href="version_8h.html" target="_top" xlink:title=" ">
<polygon fill="white" stroke="#666666" points="1486,-349 1424,-349 1424,-330 1486,-330 1486,-349"/>
<text text-anchor="middle" x="1455" y="-337" font-family="Helvetica,sans-Serif" font-size="10.00">version.h</text>
</a>
</g>
</g>
<!-- Node2&#45;&gt;Node4 -->
<g id="edge3_Node000002_Node000004" class="edge">
<title>Node2&#45;&gt;Node4</title>
<g id="a_edge3_Node000002_Node000004"><a xlink:title=" ">
<path fill="none" stroke="#63b8ff" d="M1582.58,-384.98C1557.28,-376.16 1517.55,-362.31 1489.14,-352.41"/>
<polygon fill="#63b8ff" stroke="#63b8ff" points="1490.21,-349.07 1479.61,-349.08 1487.9,-355.68 1490.21,-349.07"/>
</a>
</g>
</g>
<!-- Node5 -->
<g id="Node000005" class="node">
<title>Node5</title>
<g id="a_Node000005"><a xlink:href="compat_8h.html" target="_top" xlink:title=" ">
<polygon fill="#fff0f0" stroke="red" points="1606,-349 1504,-349 1504,-330 1606,-330 1606,-349"/>
<text text-anchor="middle" x="1555" y="-337" font-family="Helvetica,sans-Serif" font-size="10.00">compat/compat.h</text>
</a>
</g>
</g>
<!-- Node2&#45;&gt;Node5 -->
<g id="edge4_Node000002_Node000005" class="edge">
<title>Node2&#45;&gt;Node5</title>
<g id="a_edge4_Node000002_Node000005"><a xlink:title=" ">
<path fill="none" stroke="#63b8ff" d="M1598.41,-384.75C1590.84,-377.03 1579.62,-365.6 1570.49,-356.28"/>
<polygon fill="#63b8ff" stroke="#63b8ff" points="1572.93,-353.78 1563.43,-349.09 1567.93,-358.68 1572.93,-353.78"/>
</a>
</g>
</g>
<!-- Node6 -->
<g id="Node000006" class="node">
<title>Node6</title>
<g id="a_Node000006"><a xlink:href="osdetect_8h.html" target="_top" xlink:title=" ">
<polygon fill="white" stroke="#666666" points="2790.5,-294 2683.5,-294 2683.5,-275 2790.5,-275 2790.5,-294"/>
<text text-anchor="middle" x="2737" y="-282" font-family="Helvetica,sans-Serif" font-size="10.00">compat/osdetect.h</text>
</a>
</g>
</g>
<!-- Node5&#45;&gt;Node6 -->
<g id="edge5_Node000005_Node000006" class="edge">
<title>Node5&#45;&gt;Node6</title>
<g id="a_edge5_Node000005_Node000006"><a xlink:title=" ">
<path fill="none" stroke="#63b8ff" d="M1606.02,-330.89C1609.06,-330.56 1612.07,-330.26 1615,-330 2081.26,-289.17 2203.6,-333.43 2673.17,-294.06"/>
<polygon fill="#63b8ff" stroke="#63b8ff" points="2673.6,-297.54 2683.27,-293.21 2673.01,-290.56 2673.6,-297.54"/>
</a>
</g>
</g>
<!-- Node7 -->
<g id="Node000007" class="node">
<title>Node7</title>
<g id="a_Node000007"><a xlink:href="fdsetsize_8h.html" target="_top" xlink:title=" ">
<polygon fill="white" stroke="#666666" points="2919,-294 2809,-294 2809,-275 2919,-275 2919,-294"/>
<text text-anchor="middle" x="2864" y="-282" font-family="Helvetica,sans-Serif" font-size="10.00">compat/fdsetsize.h</text>
</a>
</g>
</g>
<!-- Node5&#45;&gt;Node7 -->
<g id="edge6_Node000005_Node000007" class="edge">
<title>Node5&#45;&gt;Node7</title>
<g id="a_edge6_Node000005_Node000007"><a xlink:title=" ">
<path fill="none" stroke="#63b8ff" d="M1606.02,-330.88C1609.05,-330.55 1612.06,-330.25 1615,-330 2136.65,-285.26 2273.1,-336.09 2798.76,-294"/>
<polygon fill="#63b8ff" stroke="#63b8ff" points="2799.19,-297.48 2808.88,-293.18 2798.63,-290.5 2799.19,-297.48"/>
</a>
</g>
</g>
<!-- Node8 -->
<g id="Node000008" class="node">
<title>Node8</title>
<g id="a_Node000008"><a xlink:href="types_8h.html" target="_top" xlink:title=" ">
<polygon fill="#fff0f0" stroke="red" points="92,-294 0,-294 0,-275 92,-275 92,-294"/>
<text text-anchor="middle" x="46" y="-282" font-family="Helvetica,sans-Serif" font-size="10.00">compat/types.h</text>
</a>
</g>
</g>
<!-- Node5&#45;&gt;Node8 -->
<g id="edge7_Node000005_Node000008" class="edge">
<title>Node5&#45;&gt;Node8</title>
<g id="a_edge7_Node000005_Node000008"><a xlink:title=" ">
<path fill="none" stroke="#63b8ff" d="M1503.98,-330.87C1500.95,-330.54 1497.94,-330.25 1495,-330 880.7,-278.73 720,-348.68 102.21,-293.97"/>
<polygon fill="#63b8ff" stroke="#63b8ff" points="102.43,-290.47 92.16,-293.07 101.81,-297.45 102.43,-290.47"/>
</a>
</g>
</g>
<!-- Node10 -->
<g id="Node000010" class="node">
<title>Node10</title>
<g id="a_Node000010"><a xlink:href="aix_8h.html" target="_top" xlink:title=" ">
<polygon fill="white" stroke="#666666" points="205.5,-294 110.5,-294 110.5,-275 205.5,-275 205.5,-294"/>
<text text-anchor="middle" x="158" y="-282" font-family="Helvetica,sans-Serif" font-size="10.00">compat/os/aix.h</text>
</a>
</g>
</g>
<!-- Node5&#45;&gt;Node10 -->
<g id="edge8_Node000005_Node000010" class="edge">
<title>Node5&#45;&gt;Node10</title>
<g id="a_edge8_Node000005_Node000010"><a xlink:title=" ">
<path fill="none" stroke="#63b8ff" d="M1503.98,-330.87C1500.95,-330.54 1497.94,-330.25 1495,-330 931.24,-282.29 783.63,-343.34 215.62,-293.91"/>
<polygon fill="#63b8ff" stroke="#63b8ff" points="215.8,-290.41 205.53,-293.02 215.19,-297.39 215.8,-290.41"/>
</a>
</g>
</g>
<!-- Node11 -->
<g id="Node000011" class="node">
<title>Node11</title>
<g id="a_Node000011"><a xlink:href="android_8h.html" target="_top" xlink:title=" ">
<polygon fill="white" stroke="#666666" points="340,-294 224,-294 224,-275 340,-275 340,-294"/>
<text text-anchor="middle" x="282" y="-282" font-family="Helvetica,sans-Serif" font-size="10.00">compat/os/android.h</text>
</a>
</g>
</g>
<!-- Node5&#45;&gt;Node11 -->
<g id="edge9_Node000005_Node000011" class="edge">
<title>Node5&#45;&gt;Node11</title>
<g id="a_edge9_Node000005_Node000011"><a xlink:title=" ">
<path fill="none" stroke="#63b8ff" d="M1503.98,-330.89C1500.95,-330.55 1497.93,-330.25 1495,-330 990.65,-286.48 858.74,-333.48 350.24,-294.01"/>
<polygon fill="#63b8ff" stroke="#63b8ff" points="350.31,-290.5 340.07,-293.21 349.77,-297.48 350.31,-290.5"/>
</a>
</g>
</g>
<!-- Node12 -->
<g id="Node000012" class="node">
<title>Node12</title>
<g id="a_Node000012"><a xlink:href="dragonfly_8h.html" target="_top" xlink:title=" ">
<polygon fill="white" stroke="#666666" points="482,-294 358,-294 358,-275 482,-275 482,-294"/>
<text text-anchor="middle" x="420" y="-282" font-family="Helvetica,sans-Serif" font-size="10.00">compat/os/dragonfly.h</text>
</a>
</g>
</g>
<!-- Node5&#45;&gt;Node12 -->
<g id="edge10_Node000005_Node000012" class="edge">
<title>Node5&#45;&gt;Node12</title>
<g id="a_edge10_Node000005_Node000012"><a xlink:title=" ">
<path fill="none" stroke="#63b8ff" d="M1503.98,-330.9C1500.94,-330.56 1497.93,-330.26 1495,-330 1053.6,-290.93 937.91,-328 492.56,-294.05"/>
<polygon fill="#63b8ff" stroke="#63b8ff" points="492.55,-290.54 482.31,-293.26 492.01,-297.51 492.55,-290.54"/>
</a>
</g>
</g>
<!-- Node13 -->
<g id="Node000013" class="node">
<title>Node13</title>
<g id="a_Node000013"><a xlink:href="freebsd_8h.html" target="_top" xlink:title=" ">
<polygon fill="white" stroke="#666666" points="616,-294 500,-294 500,-275 616,-275 616,-294"/>
<text text-anchor="middle" x="558" y="-282" font-family="Helvetica,sans-Serif" font-size="10.00">compat/os/freebsd.h</text>
</a>
</g>
</g>
<!-- Node5&#45;&gt;Node13 -->
<g id="edge11_Node000005_Node000013" class="edge">
<title>Node5&#45;&gt;Node13</title>
<g id="a_edge11_Node000005_Node000013"><a xlink:title=" ">
<path fill="none" stroke="#63b8ff" d="M1503.98,-330.92C1500.94,-330.58 1497.93,-330.27 1495,-330 1112.9,-295.12 1012.35,-325.85 626.12,-294.01"/>
<polygon fill="#63b8ff" stroke="#63b8ff" points="626.33,-290.52 616.07,-293.17 625.75,-297.49 626.33,-290.52"/>
</a>
</g>
</g>
<!-- Node14 -->
<g id="Node000014" class="node">
<title>Node14</title>
<g id="a_Node000014"><a xlink:href="hpux_8h.html" target="_top" xlink:title=" ">
<polygon fill="white" stroke="#666666" points="738,-294 634,-294 634,-275 738,-275 738,-294"/>
<text text-anchor="middle" x="686" y="-282" font-family="Helvetica,sans-Serif" font-size="10.00">compat/os/hpux.h</text>
</a>
</g>
</g>
<!-- Node5&#45;&gt;Node14 -->
<g id="edge12_Node000005_Node000014" class="edge">
<title>Node5&#45;&gt;Node14</title>
<g id="a_edge12_Node000005_Node000014"><a xlink:title=" ">
<path fill="none" stroke="#63b8ff" d="M1503.98,-330.94C1500.94,-330.6 1497.93,-330.28 1495,-330 1167.05,-298.95 1080.16,-324.46 748.59,-294.05"/>
<polygon fill="#63b8ff" stroke="#63b8ff" points="748.49,-290.53 738.21,-293.09 747.84,-297.5 748.49,-290.53"/>
</a>
</g>
</g>
<!-- Node15 -->
<g id="Node000015" class="node">
<title>Node15</title>
<g id="a_Node000015"><a xlink:href="linux_8h.html" target="_top" xlink:title=" ">
<polygon fill="white" stroke="#666666" points="860,-294 756,-294 756,-275 860,-275 860,-294"/>
<text text-anchor="middle" x="808" y="-282" font-family="Helvetica,sans-Serif" font-size="10.00">compat/os/linux.h</text>
</a>
</g>
</g>
<!-- Node5&#45;&gt;Node15 -->
<g id="edge13_Node000005_Node000015" class="edge">
<title>Node5&#45;&gt;Node15</title>
<g id="a_edge13_Node000005_Node000015"><a xlink:title=" ">
<path fill="none" stroke="#63b8ff" d="M1503.97,-330.98C1500.94,-330.62 1497.93,-330.29 1495,-330 1220.93,-302.75 1148.05,-320.82 870.18,-294.03"/>
<polygon fill="#63b8ff" stroke="#63b8ff" points="870.5,-290.55 860.21,-293.06 869.82,-297.51 870.5,-290.55"/>
</a>
</g>
</g>
<!-- Node16 -->
<g id="Node000016" class="node">
<title>Node16</title>
<g id="a_Node000016"><a xlink:href="macosx_8h.html" target="_top" xlink:title=" ">
<polygon fill="white" stroke="#666666" points="996,-294 878,-294 878,-275 996,-275 996,-294"/>
<text text-anchor="middle" x="937" y="-282" font-family="Helvetica,sans-Serif" font-size="10.00">compat/os/macosx.h</text>
</a>
</g>
</g>
<!-- Node5&#45;&gt;Node16 -->
<g id="edge14_Node000005_Node000016" class="edge">
<title>Node5&#45;&gt;Node16</title>
<g id="a_edge14_Node000005_Node000016"><a xlink:title=" ">
<path fill="none" stroke="#63b8ff" d="M1503.97,-331.03C1500.93,-330.66 1497.93,-330.31 1495,-330 1281.17,-307.03 1224.02,-315.29 1006.46,-294.09"/>
<polygon fill="#63b8ff" stroke="#63b8ff" points="1006.61,-290.59 996.32,-293.1 1005.93,-297.56 1006.61,-290.59"/>
</a>
</g>
</g>
<!-- Node17 -->
<g id="Node000017" class="node">
<title>Node17</title>
<g id="a_Node000017"><a xlink:href="mingw_8h.html" target="_top" xlink:title=" ">
<polygon fill="white" stroke="#666666" points="1126,-294 1014,-294 1014,-275 1126,-275 1126,-294"/>
<text text-anchor="middle" x="1070" y="-282" font-family="Helvetica,sans-Serif" font-size="10.00">compat/os/mingw.h</text>
</a>
</g>
</g>
<!-- Node5&#45;&gt;Node17 -->
<g id="edge15_Node000005_Node000017" class="edge">
<title>Node5&#45;&gt;Node17</title>
<g id="a_edge15_Node000005_Node000017"><a xlink:title=" ">
<path fill="none" stroke="#63b8ff" d="M1503.96,-331.12C1500.93,-330.73 1497.92,-330.35 1495,-330 1339.07,-311.14 1297.03,-312.19 1136.4,-294.01"/>
<polygon fill="#63b8ff" stroke="#63b8ff" points="1136.49,-290.5 1126.16,-292.84 1135.7,-297.45 1136.49,-290.5"/>
</a>
</g>
</g>
<!-- Node18 -->
<g id="Node000018" class="node">
<title>Node18</title>
<g id="a_Node000018"><a xlink:href="mswindows_8h.html" target="_top" xlink:title=" ">
<polygon fill="white" stroke="#666666" points="1281.5,-294 1144.5,-294 1144.5,-275 1281.5,-275 1281.5,-294"/>
<text text-anchor="middle" x="1213" y="-282" font-family="Helvetica,sans-Serif" font-size="10.00">compat/os/mswindows.h</text>
</a>
</g>
</g>
<!-- Node5&#45;&gt;Node18 -->
<g id="edge16_Node000005_Node000018" class="edge">
<title>Node5&#45;&gt;Node18</title>
<g id="a_edge16_Node000005_Node000018"><a xlink:title=" ">
<path fill="none" stroke="#63b8ff" d="M1503.8,-330.57C1443.66,-321.25 1343.79,-305.77 1278.18,-295.6"/>
<polygon fill="#63b8ff" stroke="#63b8ff" points="1278.37,-292.09 1267.95,-294.02 1277.3,-299.01 1278.37,-292.09"/>
</a>
</g>
</g>
<!-- Node19 -->
<g id="Node000019" class="node">
<title>Node19</title>
<g id="a_Node000019"><a xlink:href="netbsd_8h.html" target="_top" xlink:title=" ">
<polygon fill="white" stroke="#666666" points="1412.5,-294 1299.5,-294 1299.5,-275 1412.5,-275 1412.5,-294"/>
<text text-anchor="middle" x="1356" y="-282" font-family="Helvetica,sans-Serif" font-size="10.00">compat/os/netbsd.h</text>
</a>
</g>
</g>
<!-- Node5&#45;&gt;Node19 -->
<g id="edge17_Node000005_Node000019" class="edge">
<title>Node5&#45;&gt;Node19</title>
<g id="a_edge17_Node000005_Node000019"><a xlink:title=" ">
<path fill="none" stroke="#63b8ff" d="M1523.03,-329.98C1489.18,-320.97 1435.6,-306.7 1398.29,-296.76"/>
<polygon fill="#63b8ff" stroke="#63b8ff" points="1398.79,-293.27 1388.22,-294.08 1396.99,-300.04 1398.79,-293.27"/>
</a>
</g>
</g>
<!-- Node20 -->
<g id="Node000020" class="node">
<title>Node20</title>
<g id="a_Node000020"><a xlink:href="openbsd_8h.html" target="_top" xlink:title=" ">
<polygon fill="white" stroke="#666666" points="1551.5,-294 1430.5,-294 1430.5,-275 1551.5,-275 1551.5,-294"/>
<text text-anchor="middle" x="1491" y="-282" font-family="Helvetica,sans-Serif" font-size="10.00">compat/os/openbsd.h</text>
</a>
</g>
</g>
<!-- Node5&#45;&gt;Node20 -->
<g id="edge18_Node000005_Node000020" class="edge">
<title>Node5&#45;&gt;Node20</title>
<g id="a_edge18_Node000005_Node000020"><a xlink:title=" ">
<path fill="none" stroke="#63b8ff" d="M1544.72,-329.98C1535.16,-322.07 1520.72,-310.11 1509.22,-300.58"/>
<polygon fill="#63b8ff" stroke="#63b8ff" points="1511.4,-297.85 1501.47,-294.17 1506.94,-303.24 1511.4,-297.85"/>
</a>
</g>
</g>
<!-- Node21 -->
<g id="Node000021" class="node">
<title>Node21</title>
<g id="a_Node000021"><a xlink:href="os2_8h.html" target="_top" xlink:title=" ">
<polygon fill="white" stroke="#666666" points="1666.5,-294 1569.5,-294 1569.5,-275 1666.5,-275 1666.5,-294"/>
<text text-anchor="middle" x="1618" y="-282" font-family="Helvetica,sans-Serif" font-size="10.00">compat/os/os2.h</text>
</a>
</g>
</g>
<!-- Node5&#45;&gt;Node21 -->
<g id="edge19_Node000005_Node000021" class="edge">
<title>Node5&#45;&gt;Node21</title>
<g id="a_edge19_Node000005_Node000021"><a xlink:title=" ">
<path fill="none" stroke="#63b8ff" d="M1565.12,-329.98C1574.44,-322.15 1588.47,-310.34 1599.74,-300.86"/>
<polygon fill="#63b8ff" stroke="#63b8ff" points="1602.29,-303.29 1607.69,-294.17 1597.79,-297.93 1602.29,-303.29"/>
</a>
</g>
</g>
<!-- Node22 -->
<g id="Node000022" class="node">
<title>Node22</title>
<g id="a_Node000022"><a xlink:href="qnx_8h.html" target="_top" xlink:title=" ">
<polygon fill="white" stroke="#666666" points="1783,-294 1685,-294 1685,-275 1783,-275 1783,-294"/>
<text text-anchor="middle" x="1734" y="-282" font-family="Helvetica,sans-Serif" font-size="10.00">compat/os/qnx.h</text>
</a>
</g>
</g>
<!-- Node5&#45;&gt;Node22 -->
<g id="edge20_Node000005_Node000022" class="edge">
<title>Node5&#45;&gt;Node22</title>
<g id="a_edge20_Node000005_Node000022"><a xlink:title=" ">
<path fill="none" stroke="#63b8ff" d="M1583.76,-329.98C1613.94,-321.05 1661.57,-306.94 1695.1,-297.02"/>
<polygon fill="#63b8ff" stroke="#63b8ff" points="1696.42,-300.28 1705.02,-294.08 1694.43,-293.57 1696.42,-300.28"/>
</a>
</g>
</g>
<!-- Node23 -->
<g id="Node000023" class="node">
<title>Node23</title>
<g id="a_Node000023"><a xlink:href="sgi_8h.html" target="_top" xlink:title=" ">
<polygon fill="white" stroke="#666666" points="1895,-294 1801,-294 1801,-275 1895,-275 1895,-294"/>
<text text-anchor="middle" x="1848" y="-282" font-family="Helvetica,sans-Serif" font-size="10.00">compat/os/sgi.h</text>
</a>
</g>
</g>
<!-- Node5&#45;&gt;Node23 -->
<g id="edge21_Node000005_Node000023" class="edge">
<title>Node5&#45;&gt;Node23</title>
<g id="a_edge21_Node000005_Node000023"><a xlink:title=" ">
<path fill="none" stroke="#63b8ff" d="M1602.08,-329.98C1653.4,-320.7 1735.54,-305.84 1790.6,-295.88"/>
<polygon fill="#63b8ff" stroke="#63b8ff" points="1791.34,-299.31 1800.56,-294.08 1790.09,-292.42 1791.34,-299.31"/>
</a>
</g>
</g>
<!-- Node24 -->
<g id="Node000024" class="node">
<title>Node24</title>
<g id="a_Node000024"><a xlink:href="solaris_8h.html" target="_top" xlink:title=" ">
<polygon fill="white" stroke="#666666" points="2025,-294 1913,-294 1913,-275 2025,-275 2025,-294"/>
<text text-anchor="middle" x="1969" y="-282" font-family="Helvetica,sans-Serif" font-size="10.00">compat/os/solaris.h</text>
</a>
</g>
</g>
<!-- Node5&#45;&gt;Node24 -->
<g id="edge22_Node000005_Node000024" class="edge">
<title>Node5&#45;&gt;Node24</title>
<g id="a_edge22_Node000005_Node000024"><a xlink:title=" ">
<path fill="none" stroke="#63b8ff" d="M1606.06,-331.21C1609.08,-330.79 1612.08,-330.39 1615,-330 1740.05,-313.36 1773.9,-310.53 1902.72,-294.16"/>
<polygon fill="#63b8ff" stroke="#63b8ff" points="1903.51,-297.58 1912.98,-292.85 1902.62,-290.64 1903.51,-297.58"/>
</a>
</g>
</g>
<!-- Node25 -->
<g id="Node000025" class="node">
<title>Node25</title>
<g id="a_Node000025"><a xlink:href="sunos_8h.html" target="_top" xlink:title=" ">
<polygon fill="white" stroke="#666666" points="2151,-294 2043,-294 2043,-275 2151,-275 2151,-294"/>
<text text-anchor="middle" x="2097" y="-282" font-family="Helvetica,sans-Serif" font-size="10.00">compat/os/sunos.h</text>
</a>
</g>
</g>
<!-- Node5&#45;&gt;Node25 -->
<g id="edge23_Node000005_Node000025" class="edge">
<title>Node5&#45;&gt;Node25</title>
<g id="a_edge23_Node000005_Node000025"><a xlink:title=" ">
<path fill="none" stroke="#63b8ff" d="M1606.04,-331.07C1609.07,-330.69 1612.07,-330.33 1615,-330 1797.45,-309.25 1846.51,-314.31 2032.6,-294.1"/>
<polygon fill="#63b8ff" stroke="#63b8ff" points="2033.17,-297.56 2042.72,-292.99 2032.4,-290.6 2033.17,-297.56"/>
</a>
</g>
</g>
<!-- Node26 -->
<g id="Node000026" class="node">
<title>Node26</title>
<g id="a_Node000026"><a xlink:href="assert_8h.html" target="_top" xlink:title=" ">
<polygon fill="white" stroke="#666666" points="2264.5,-294 2169.5,-294 2169.5,-275 2264.5,-275 2264.5,-294"/>
<text text-anchor="middle" x="2217" y="-282" font-family="Helvetica,sans-Serif" font-size="10.00">compat/assert.h</text>
</a>
</g>
</g>
<!-- Node5&#45;&gt;Node26 -->
<g id="edge24_Node000005_Node000026" class="edge">
<title>Node5&#45;&gt;Node26</title>
<g id="a_edge24_Node000005_Node000026"><a xlink:title=" ">
<path fill="none" stroke="#63b8ff" d="M1606.03,-331.01C1609.06,-330.64 1612.07,-330.3 1615,-330 1853.15,-305.3 1916.9,-319.52 2159.27,-293.97"/>
<polygon fill="#63b8ff" stroke="#63b8ff" points="2159.88,-297.43 2169.45,-292.89 2159.14,-290.47 2159.88,-297.43"/>
</a>
</g>
</g>
<!-- Node27 -->
<g id="Node000027" class="node">
<title>Node27</title>
<g id="a_Node000027"><a xlink:href="compat__shared_8h.html" target="_top" xlink:title=" ">
<polygon fill="#fff0f0" stroke="red" points="2423,-294 2283,-294 2283,-275 2423,-275 2423,-294"/>
<text text-anchor="middle" x="2353" y="-282" font-family="Helvetica,sans-Serif" font-size="10.00">compat/compat_shared.h</text>
</a>
</g>
</g>
<!-- Node5&#45;&gt;Node27 -->
<g id="edge25_Node000005_Node000027" class="edge">
<title>Node5&#45;&gt;Node27</title>
<g id="a_edge25_Node000005_Node000027"><a xlink:title=" ">
<path fill="none" stroke="#63b8ff" d="M1606.03,-330.97C1609.06,-330.61 1612.07,-330.29 1615,-330 1903.65,-301.72 1979.93,-317.34 2272.74,-294.05"/>
<polygon fill="#63b8ff" stroke="#63b8ff" points="2273.12,-297.54 2282.81,-293.25 2272.56,-290.56 2273.12,-297.54"/>
</a>
</g>
</g>
<!-- Node37 -->
<g id="Node000037" class="node">
<title>Node37</title>
<g id="a_Node000037"><a xlink:href="stdvarargs_8h.html" target="_top" xlink:title=" ">
<polygon fill="#fff0f0" stroke="red" points="2558.5,-294 2441.5,-294 2441.5,-275 2558.5,-275 2558.5,-294"/>
<text text-anchor="middle" x="2500" y="-282" font-family="Helvetica,sans-Serif" font-size="10.00">compat/stdvarargs.h</text>
</a>
</g>
</g>
<!-- Node5&#45;&gt;Node37 -->
<g id="edge26_Node000005_Node000037" class="edge">
<title>Node5&#45;&gt;Node37</title>
<g id="a_edge26_Node000005_Node000037"><a xlink:title=" ">
<path fill="none" stroke="#63b8ff" d="M1606.02,-330.93C1609.06,-330.59 1612.07,-330.27 1615,-330 1973.64,-296.77 2068.12,-324.06 2431.42,-293.96"/>
<polygon fill="#63b8ff" stroke="#63b8ff" points="2431.75,-297.45 2441.43,-293.12 2431.17,-290.47 2431.75,-297.45"/>
</a>
</g>
</g>
<!-- Node39 -->
<g id="Node000039" class="node">
<title>Node39</title>
<g id="a_Node000039"><a xlink:href="stdio_8h.html" target="_top" xlink:title=" ">
<polygon fill="#fff0f0" stroke="red" points="2665.5,-294 2576.5,-294 2576.5,-275 2665.5,-275 2665.5,-294"/>
<text text-anchor="middle" x="2621" y="-282" font-family="Helvetica,sans-Serif" font-size="10.00">compat/stdio.h</text>
</a>
</g>
</g>
<!-- Node5&#45;&gt;Node39 -->
<g id="edge27_Node000005_Node000039" class="edge">
<title>Node5&#45;&gt;Node39</title>
<g id="a_edge27_Node000005_Node000039"><a xlink:title=" ">
<path fill="none" stroke="#63b8ff" d="M1606.02,-330.91C1609.06,-330.57 1612.07,-330.26 1615,-330 2033.87,-292.52 2144.47,-334.96 2566.21,-294.05"/>
<polygon fill="#63b8ff" stroke="#63b8ff" points="2566.62,-297.53 2576.23,-293.07 2565.94,-290.56 2566.62,-297.53"/>
</a>
</g>
</g>
<!-- Node46 -->
<g id="Node000046" class="node">
<title>Node46</title>
<g id="a_Node000046"><a xlink:href="CodeContext_8h.html" target="_top" xlink:title=" ">
<polygon fill="#fff0f0" stroke="red" points="3349.5,-129 3234.5,-129 3234.5,-110 3349.5,-110 3349.5,-129"/>
<text text-anchor="middle" x="3292" y="-117" font-family="Helvetica,sans-Serif" font-size="10.00">base/CodeContext.h</text>
</a>
</g>
</g>
<!-- Node45&#45;&gt;Node46 -->
<g id="edge29_Node000045_Node000046" class="edge">
<title>Node45&#45;&gt;Node46</title>
<g id="a_edge29_Node000045_Node000046"><a xlink:title=" ">
<path fill="none" stroke="#63b8ff" d="M3109.86,-164.98C3147.09,-155.89 3206.2,-141.46 3246.93,-131.51"/>
<polygon fill="#63b8ff" stroke="#63b8ff" points="3247.98,-134.85 3256.86,-129.08 3246.32,-128.05 3247.98,-134.85"/>
</a>
</g>
</g>
<!-- Node47 -->
<g id="Node000047" class="node">
<title>Node47</title>
<g id="a_Node000047"><a xlink:href="InstanceId_8h.html" target="_top" xlink:title=" ">
<polygon fill="white" stroke="#666666" points="3426,-74 3324,-74 3324,-55 3426,-55 3426,-74"/>
<text text-anchor="middle" x="3375" y="-62" font-family="Helvetica,sans-Serif" font-size="10.00">base/InstanceId.h</text>
</a>
</g>
</g>
<!-- Node45&#45;&gt;Node47 -->
<g id="edge35_Node000045_Node000047" class="edge">
<title>Node45&#45;&gt;Node47</title>
<g id="a_edge35_Node000045_Node000047"><a xlink:title=" ">
<path fill="none" stroke="#63b8ff" d="M3125.25,-172.12C3197.48,-169.08 3325.64,-159.44 3359,-129 3371.19,-117.87 3374.7,-98.94 3375.46,-84.64"/>
<polygon fill="#63b8ff" stroke="#63b8ff" points="3378.96,-84.44 3375.58,-74.4 3371.96,-84.35 3378.96,-84.44"/>
</a>
</g>
</g>
<!-- Node49 -->
<g id="Node000049" class="node">
<title>Node49</title>
<g id="a_Node000049"><a xlink:href="RefCount_8h.html" target="_top" xlink:title=" ">
<polygon fill="#fff0f0" stroke="red" points="3142.5,-74 3045.5,-74 3045.5,-55 3142.5,-55 3142.5,-74"/>
<text text-anchor="middle" x="3094" y="-62" font-family="Helvetica,sans-Serif" font-size="10.00">base/RefCount.h</text>
</a>
</g>
</g>
<!-- Node45&#45;&gt;Node49 -->
<g id="edge37_Node000045_Node000049" class="edge">
<title>Node45&#45;&gt;Node49</title>
<g id="a_edge37_Node000045_Node000049"><a xlink:title=" ">
<path fill="none" stroke="#63b8ff" d="M3064.11,-164.64C3050.64,-152.54 3030.55,-130.04 3040,-110 3046.01,-97.26 3057.66,-86.92 3068.61,-79.44"/>
<polygon fill="#63b8ff" stroke="#63b8ff" points="3070.54,-82.36 3077.11,-74.05 3066.79,-76.44 3070.54,-82.36"/>
</a>
</g>
</g>
<!-- Node55 -->
<g id="Node000055" class="node">
<title>Node55</title>
<g id="a_Node000055"><a xlink:href="base_2forward_8h.html" target="_top" xlink:title=" ">
<polygon fill="white" stroke="#666666" points="2991.5,-129 2902.5,-129 2902.5,-110 2991.5,-110 2991.5,-129"/>
<text text-anchor="middle" x="2947" y="-117" font-family="Helvetica,sans-Serif" font-size="10.00">base/forward.h</text>
</a>
</g>
</g>
<!-- Node45&#45;&gt;Node55 -->
<g id="edge34_Node000045_Node000055" class="edge">
<title>Node45&#45;&gt;Node55</title>
<g id="a_edge34_Node000045_Node000055"><a xlink:title=" ">
<path fill="none" stroke="#63b8ff" d="M3054.43,-164.98C3033.57,-156.34 3001.03,-142.87 2977.23,-133.02"/>
<polygon fill="#63b8ff" stroke="#63b8ff" points="2978.52,-129.76 2967.94,-129.17 2975.84,-136.23 2978.52,-129.76"/>
</a>
</g>
</g>
<!-- Node56 -->
<g id="Node000056" class="node">
<title>Node56</title>
<g id="a_Node000056"><a xlink:href="event_8h.html" target="_top" xlink:title=" ">
<polygon fill="#fff0f0" stroke="red" points="3101.5,-129 3048.5,-129 3048.5,-110 3101.5,-110 3101.5,-129"/>
<text text-anchor="middle" x="3075" y="-117" font-family="Helvetica,sans-Serif" font-size="10.00">event.h</text>
</a>
</g>
</g>
<!-- Node45&#45;&gt;Node56 -->
<g id="edge36_Node000045_Node000056" class="edge">
<title>Node45&#45;&gt;Node56</title>
<g id="a_edge36_Node000045_Node000056"><a xlink:title=" ">
<path fill="none" stroke="#63b8ff" d="M3075,-164.75C3075,-157.8 3075,-147.85 3075,-139.13"/>
<polygon fill="#63b8ff" stroke="#63b8ff" points="3078.5,-139.09 3075,-129.09 3071.5,-139.09 3078.5,-139.09"/>
</a>
</g>
</g>
<!-- Node46&#45;&gt;Node47 -->
<g id="edge30_Node000046_Node000047" class="edge">
<title>Node46&#45;&gt;Node47</title>
<g id="a_edge30_Node000046_Node000047"><a xlink:title=" ">
<path fill="none" stroke="#63b8ff" d="M3305.34,-109.98C3318.09,-101.84 3337.55,-89.41 3352.67,-79.76"/>
<polygon fill="#63b8ff" stroke="#63b8ff" points="3354.88,-82.5 3361.42,-74.17 3351.11,-76.6 3354.88,-82.5"/>
</a>
</g>
</g>
<!-- Node48 -->
<g id="Node000048" class="node">
<title>Node48</title>
<g id="a_Node000048"><a xlink:title=" ">
<polygon fill="#e0e0e0" stroke="#999999" points="3478,-19 3430,-19 3430,0 3478,0 3478,-19"/>
<text text-anchor="middle" x="3454" y="-7" font-family="Helvetica,sans-Serif" font-size="10.00">iosfwd</text>
</a>
</g>
</g>
<!-- Node46&#45;&gt;Node48 -->
<g id="edge33_Node000046_Node000048" class="edge">
<title>Node46&#45;&gt;Node48</title>
<g id="a_edge33_Node000046_Node000048"><a xlink:title=" ">
<path fill="none" stroke="#63b8ff" d="M3292.75,-109.81C3294.38,-96.22 3299.46,-69.97 3315,-55 3343.45,-27.6 3388.79,-17.07 3419.9,-13.02"/>
<polygon fill="#63b8ff" stroke="#63b8ff" points="3420.33,-16.5 3429.86,-11.88 3419.53,-9.54 3420.33,-16.5"/>
</a>
</g>
</g>
<!-- Node46&#45;&gt;Node49 -->
<g id="edge32_Node000046_Node000049" class="edge">
<title>Node46&#45;&gt;Node49</title>
<g id="a_edge32_Node000046_Node000049"><a xlink:title=" ">
<path fill="none" stroke="#63b8ff" d="M3260.19,-109.98C3226.51,-100.97 3173.2,-86.7 3136.08,-76.76"/>
<polygon fill="#63b8ff" stroke="#63b8ff" points="3136.63,-73.29 3126.06,-74.08 3134.82,-80.05 3136.63,-73.29"/>
</a>
</g>
</g>
<!-- Node47&#45;&gt;Node48 -->
<g id="edge31_Node000047_Node000048" class="edge">
<title>Node47&#45;&gt;Node48</title>
<g id="a_edge31_Node000047_Node000048"><a xlink:title=" ">
<path fill="none" stroke="#63b8ff" d="M3387.69,-54.98C3399.83,-46.84 3418.36,-34.41 3432.75,-24.76"/>
<polygon fill="#63b8ff" stroke="#63b8ff" points="3434.72,-27.65 3441.08,-19.17 3430.82,-21.84 3434.72,-27.65"/>
</a>
</g>
</g>
<!-- Node62 -->
<g id="Node000062" class="node">
<title>Node62</title>
<g id="a_Node000062"><a xlink:href="AsyncCallList_8h.html" target="_top" xlink:title=" ">
<polygon fill="white" stroke="#666666" points="3106.5,-239 2989.5,-239 2989.5,-220 3106.5,-220 3106.5,-239"/>
<text text-anchor="middle" x="3048" y="-227" font-family="Helvetica,sans-Serif" font-size="10.00">base/AsyncCallList.h</text>
</a>
</g>
</g>
<!-- Node61&#45;&gt;Node62 -->
<g id="edge39_Node000061_Node000062" class="edge">
<title>Node61&#45;&gt;Node62</title>
<g id="a_edge39_Node000061_Node000062"><a xlink:title=" ">
<path fill="none" stroke="#63b8ff" d="M3048,-274.75C3048,-267.8 3048,-257.85 3048,-249.13"/>
<polygon fill="#63b8ff" stroke="#63b8ff" points="3051.5,-249.09 3048,-239.09 3044.5,-249.09 3051.5,-249.09"/>
</a>
</g>
</g>
<!-- Node62&#45;&gt;Node45 -->
<g id="edge40_Node000062_Node000045" class="edge">
<title>Node62&#45;&gt;Node45</title>
<g id="a_edge40_Node000062_Node000045"><a xlink:title=" ">
<path fill="none" stroke="#63b8ff" d="M3052.46,-219.75C3056.12,-212.57 3061.41,-202.18 3065.95,-193.27"/>
<polygon fill="#63b8ff" stroke="#63b8ff" points="3069.2,-194.59 3070.62,-184.09 3062.97,-191.41 3069.2,-194.59"/>
</a>
</g>
</g>
<!-- Node62&#45;&gt;Node49 -->
<g id="edge41_Node000062_Node000049" class="edge">
<title>Node62&#45;&gt;Node49</title>
<g id="a_edge41_Node000062_Node000049"><a xlink:title=" ">
<path fill="none" stroke="#63b8ff" d="M3018.07,-220C2962.61,-202.78 2853.06,-161.06 2894,-110 2911.42,-88.28 2982.34,-76.48 3034.8,-70.59"/>
<polygon fill="#63b8ff" stroke="#63b8ff" points="3035.46,-74.04 3045.03,-69.49 3034.71,-67.08 3035.46,-74.04"/>
</a>
</g>
</g>
<!-- Node63&#45;&gt;Node46 -->
<g id="edge43_Node000063_Node000046" class="edge">
<title>Node63&#45;&gt;Node46</title>
<g id="a_edge43_Node000063_Node000046"><a xlink:title=" ">
<path fill="none" stroke="#63b8ff" d="M3486.73,-164.98C3446.68,-155.84 3382.93,-141.27 3339.36,-131.32"/>
<polygon fill="#63b8ff" stroke="#63b8ff" points="3340.1,-127.9 3329.57,-129.08 3338.54,-134.72 3340.1,-127.9"/>
</a>
</g>
</g>
<!-- Node63&#45;&gt;Node47 -->
<g id="edge44_Node000063_Node000047" class="edge">
<title>Node63&#45;&gt;Node47</title>
<g id="a_edge44_Node000063_Node000047"><a xlink:title=" ">
<path fill="none" stroke="#63b8ff" d="M3504.05,-164.91C3486.42,-156.87 3460.4,-143.89 3440,-129 3420.79,-114.98 3401.67,-95.46 3389.19,-81.77"/>
<polygon fill="#63b8ff" stroke="#63b8ff" points="3391.61,-79.23 3382.34,-74.11 3386.4,-83.9 3391.61,-79.23"/>
</a>
</g>
</g>
<!-- Node63&#45;&gt;Node48 -->
<g id="edge59_Node000063_Node000048" class="edge">
<title>Node63&#45;&gt;Node48</title>
<g id="a_edge59_Node000063_Node000048"><a xlink:title=" ">
<path fill="none" stroke="#63b8ff" d="M3518.95,-164.97C3509.09,-148.07 3487.04,-108.94 3473,-74 3467.09,-59.3 3462.04,-42.05 3458.64,-29.24"/>
<polygon fill="#63b8ff" stroke="#63b8ff" points="3461.96,-28.12 3456.09,-19.3 3455.18,-29.86 3461.96,-28.12"/>
</a>
</g>
</g>
<!-- Node64 -->
<g id="Node000064" class="node">
<title>Node64</title>
<g id="a_Node000064"><a xlink:href="comm_2forward_8h.html" target="_top" xlink:title=" ">
<polygon fill="#fff0f0" stroke="red" points="3216.5,-129 3119.5,-129 3119.5,-110 3216.5,-110 3216.5,-129"/>
<text text-anchor="middle" x="3168" y="-117" font-family="Helvetica,sans-Serif" font-size="10.00">comm/forward.h</text>
</a>
</g>
</g>
<!-- Node63&#45;&gt;Node64 -->
<g id="edge45_Node000063_Node000064" class="edge">
<title>Node63&#45;&gt;Node64</title>
<g id="a_edge45_Node000063_Node000064"><a xlink:title=" ">
<path fill="none" stroke="#63b8ff" d="M3466.8,-164.98C3400.9,-155.17 3293.17,-139.14 3226.66,-129.23"/>
<polygon fill="#63b8ff" stroke="#63b8ff" points="3227.16,-125.77 3216.76,-127.76 3226.13,-132.69 3227.16,-125.77"/>
</a>
</g>
</g>
<!-- Node66 -->
<g id="Node000066" class="node">
<title>Node66</title>
<g id="a_Node000066"><a xlink:href="defines_8h.html" target="_top" xlink:title=" ">
<polygon fill="white" stroke="#666666" points="3999.5,-129 3938.5,-129 3938.5,-110 3999.5,-110 3999.5,-129"/>
<text text-anchor="middle" x="3969" y="-117" font-family="Helvetica,sans-Serif" font-size="10.00">defines.h</text>
</a>
</g>
</g>
<!-- Node63&#45;&gt;Node66 -->
<g id="edge47_Node000063_Node000066" class="edge">
<title>Node63&#45;&gt;Node66</title>
<g id="a_edge47_Node000063_Node000066"><a xlink:title=" ">
<path fill="none" stroke="#63b8ff" d="M3581.34,-166.58C3585.96,-166.04 3590.56,-165.51 3595,-165 3740.16,-148.49 3779.87,-152.37 3928.53,-128.9"/>
<polygon fill="#63b8ff" stroke="#63b8ff" points="3929.16,-132.35 3938.49,-127.32 3928.06,-125.44 3929.16,-132.35"/>
</a>
</g>
</g>
<!-- Node67 -->
<g id="Node000067" class="node">
<title>Node67</title>
<g id="a_Node000067"><a xlink:href="Eui48_8h.html" target="_top" xlink:title=" ">
<polygon fill="#fff0f0" stroke="red" points="3591.5,-129 3520.5,-129 3520.5,-110 3591.5,-110 3591.5,-129"/>
<text text-anchor="middle" x="3556" y="-117" font-family="Helvetica,sans-Serif" font-size="10.00">eui/Eui48.h</text>
</a>
</g>
</g>
<!-- Node63&#45;&gt;Node67 -->
<g id="edge48_Node000063_Node000067" class="edge">
<title>Node63&#45;&gt;Node67</title>
<g id="a_edge48_Node000063_Node000067"><a xlink:title=" ">
<path fill="none" stroke="#63b8ff" d="M3529.28,-164.75C3533.71,-157.42 3540.16,-146.73 3545.62,-137.7"/>
<polygon fill="#63b8ff" stroke="#63b8ff" points="3548.64,-139.46 3550.81,-129.09 3542.65,-135.84 3548.64,-139.46"/>
</a>
</g>
</g>
<!-- Node69 -->
<g id="Node000069" class="node">
<title>Node69</title>
<g id="a_Node000069"><a xlink:href="eui_2Eui64_8h.html" target="_top" xlink:title=" ">
<polygon fill="#fff0f0" stroke="red" points="3680.5,-129 3609.5,-129 3609.5,-110 3680.5,-110 3680.5,-129"/>
<text text-anchor="middle" x="3645" y="-117" font-family="Helvetica,sans-Serif" font-size="10.00">eui/Eui64.h</text>
</a>
</g>
</g>
<!-- Node63&#45;&gt;Node69 -->
<g id="edge49_Node000063_Node000069" class="edge">
<title>Node63&#45;&gt;Node69</title>
<g id="a_edge49_Node000063_Node000069"><a xlink:title=" ">
<path fill="none" stroke="#63b8ff" d="M3543.44,-164.98C3562.99,-156.42 3593.38,-143.11 3615.82,-133.28"/>
<polygon fill="#63b8ff" stroke="#63b8ff" points="3617.45,-136.39 3625.21,-129.17 3614.64,-129.98 3617.45,-136.39"/>
</a>
</g>
</g>
<!-- Node70 -->
<g id="Node000070" class="node">
<title>Node70</title>
<g id="a_Node000070"><a xlink:href="hier__code_8h.html" target="_top" xlink:title=" ">
<polygon fill="white" stroke="#666666" points="3771.5,-129 3698.5,-129 3698.5,-110 3771.5,-110 3771.5,-129"/>
<text text-anchor="middle" x="3735" y="-117" font-family="Helvetica,sans-Serif" font-size="10.00">hier_code.h</text>
</a>
</g>
</g>
<!-- Node63&#45;&gt;Node70 -->
<g id="edge50_Node000063_Node000070" class="edge">
<title>Node63&#45;&gt;Node70</title>
<g id="a_edge50_Node000063_Node000070"><a xlink:title=" ">
<path fill="none" stroke="#63b8ff" d="M3557.9,-164.98C3594.02,-155.91 3651.32,-141.52 3690.92,-131.57"/>
<polygon fill="#63b8ff" stroke="#63b8ff" points="3691.99,-134.91 3700.83,-129.08 3690.28,-128.12 3691.99,-134.91"/>
</a>
</g>
</g>
<!-- Node71 -->
<g id="Node000071" class="node">
<title>Node71</title>
<g id="a_Node000071"><a xlink:href="ip_2Address_8h.html" target="_top" xlink:title=" ">
<polygon fill="#fff0f0" stroke="red" points="4094.5,-129 4017.5,-129 4017.5,-110 4094.5,-110 4094.5,-129"/>
<text text-anchor="middle" x="4056" y="-117" font-family="Helvetica,sans-Serif" font-size="10.00">ip/Address.h</text>
</a>
</g>
</g>
<!-- Node63&#45;&gt;Node71 -->
<g id="edge51_Node000063_Node000071" class="edge">
<title>Node63&#45;&gt;Node71</title>
<g id="a_edge51_Node000063_Node000071"><a xlink:title=" ">
<path fill="none" stroke="#63b8ff" d="M3581.33,-166.47C3585.96,-165.96 3590.55,-165.46 3595,-165 3775.49,-146.35 3824.23,-153.21 4007.36,-129.11"/>
<polygon fill="#63b8ff" stroke="#63b8ff" points="4007.86,-132.57 4017.32,-127.79 4006.94,-125.64 4007.86,-132.57"/>
</a>
</g>
</g>
<!-- Node72 -->
<g id="Node000072" class="node">
<title>Node72</title>
<g id="a_Node000072"><a xlink:href="ip_2forward_8h.html" target="_top" xlink:title=" ">
<polygon fill="white" stroke="#666666" points="3887.5,-74 3812.5,-74 3812.5,-55 3887.5,-55 3887.5,-74"/>
<text text-anchor="middle" x="3850" y="-62" font-family="Helvetica,sans-Serif" font-size="10.00">ip/forward.h</text>
</a>
</g>
</g>
<!-- Node63&#45;&gt;Node72 -->
<g id="edge55_Node000063_Node000072" class="edge">
<title>Node63&#45;&gt;Node72</title>
<g id="a_edge55_Node000063_Node000072"><a xlink:title=" ">
<path fill="none" stroke="#63b8ff" d="M3581.08,-165.36C3651.28,-155.08 3763.36,-137.69 3781,-129 3803.71,-117.82 3824.28,-96.79 3836.94,-82.01"/>
<polygon fill="#63b8ff" stroke="#63b8ff" points="3839.77,-84.08 3843.44,-74.15 3834.37,-79.63 3839.77,-84.08"/>
</a>
</g>
</g>
<!-- Node73 -->
<g id="Node000073" class="node">
<title>Node73</title>
<g id="a_Node000073"><a xlink:title=" ">
<polygon fill="#e0e0e0" stroke="#999999" points="4117.5,-74 4060.5,-74 4060.5,-55 4117.5,-55 4117.5,-74"/>
<text text-anchor="middle" x="4089" y="-62" font-family="Helvetica,sans-Serif" font-size="10.00">ostream</text>
</a>
</g>
</g>
<!-- Node63&#45;&gt;Node73 -->
<g id="edge60_Node000063_Node000073" class="edge">
<title>Node63&#45;&gt;Node73</title>
<g id="a_edge60_Node000063_Node000073"><a xlink:title=" ">
<path fill="none" stroke="#63b8ff" d="M3581.23,-173.42C3720.62,-172.62 4068.96,-166.83 4104,-129 4115.51,-116.58 4108.46,-97.01 4100.6,-82.87"/>
<polygon fill="#63b8ff" stroke="#63b8ff" points="4103.45,-80.82 4095.25,-74.11 4097.48,-84.47 4103.45,-80.82"/>
</a>
</g>
</g>
<!-- Node75 -->
<g id="Node000075" class="node">
<title>Node75</title>
<g id="a_Node000075"><a xlink:title=" ">
<polygon fill="#e0e0e0" stroke="#999999" points="3920,-129 3828,-129 3828,-110 3920,-110 3920,-129"/>
<text text-anchor="middle" x="3874" y="-117" font-family="Helvetica,sans-Serif" font-size="10.00">mem/forward.h</text>
</a>
</g>
</g>
<!-- Node63&#45;&gt;Node75 -->
<g id="edge56_Node000063_Node000075" class="edge">
<title>Node63&#45;&gt;Node75</title>
<g id="a_edge56_Node000063_Node000075"><a xlink:title=" ">
<path fill="none" stroke="#63b8ff" d="M3580.23,-164.98C3645.53,-155.1 3752.6,-138.88 3817.86,-129"/>
<polygon fill="#63b8ff" stroke="#63b8ff" points="3818.6,-132.43 3827.96,-127.47 3817.55,-125.51 3818.6,-132.43"/>
</a>
</g>
</g>
<!-- Node76 -->
<g id="Node000076" class="node">
<title>Node76</title>
<g id="a_Node000076"><a xlink:href="time_2gadgets_8h.html" target="_top" xlink:title=" ">
<polygon fill="#fff0f0" stroke="red" points="3572,-74 3482,-74 3482,-55 3572,-55 3572,-74"/>
<text text-anchor="middle" x="3527" y="-62" font-family="Helvetica,sans-Serif" font-size="10.00">time/gadgets.h</text>
</a>
</g>
</g>
<!-- Node63&#45;&gt;Node76 -->
<g id="edge57_Node000063_Node000076" class="edge">
<title>Node63&#45;&gt;Node76</title>
<g id="a_edge57_Node000063_Node000076"><a xlink:title=" ">
<path fill="none" stroke="#63b8ff" d="M3520.44,-164.9C3515.83,-152.71 3508.77,-129.71 3512,-110 3513.47,-101.05 3516.49,-91.47 3519.44,-83.51"/>
<polygon fill="#63b8ff" stroke="#63b8ff" points="3522.72,-84.74 3523.14,-74.15 3516.21,-82.16 3522.72,-84.74"/>
</a>
</g>
</g>
<!-- Node64&#45;&gt;Node49 -->
<g id="edge46_Node000064_Node000049" class="edge">
<title>Node64&#45;&gt;Node49</title>
<g id="a_edge46_Node000064_Node000049"><a xlink:title=" ">
<path fill="none" stroke="#63b8ff" d="M3156.11,-109.98C3144.85,-101.92 3127.71,-89.65 3114.29,-80.03"/>
<polygon fill="#63b8ff" stroke="#63b8ff" points="3116.27,-77.15 3106.11,-74.17 3112.2,-82.84 3116.27,-77.15"/>
</a>
</g>
</g>
<!-- Node71&#45;&gt;Node48 -->
<g id="edge53_Node000071_Node000048" class="edge">
<title>Node71&#45;&gt;Node48</title>
<g id="a_edge53_Node000071_Node000048"><a xlink:title=" ">
<path fill="none" stroke="#63b8ff" d="M4038.88,-109.8C4010.3,-95.71 3950.7,-68.14 3897,-55 3748.15,-18.57 3564.17,-11.88 3488.74,-10.71"/>
<polygon fill="#63b8ff" stroke="#63b8ff" points="3488.46,-7.21 3478.41,-10.58 3488.36,-14.21 3488.46,-7.21"/>
</a>
</g>
</g>
<!-- Node71&#45;&gt;Node72 -->
<g id="edge52_Node000071_Node000072" class="edge">
<title>Node71&#45;&gt;Node72</title>
<g id="a_edge52_Node000071_Node000072"><a xlink:title=" ">
<path fill="none" stroke="#63b8ff" d="M4022.9,-109.98C3987.72,-100.93 3931.93,-86.58 3893.28,-76.64"/>
<polygon fill="#63b8ff" stroke="#63b8ff" points="3893.91,-73.18 3883.36,-74.08 3892.17,-79.96 3893.91,-73.18"/>
</a>
</g>
</g>
<!-- Node71&#45;&gt;Node73 -->
<g id="edge54_Node000071_Node000073" class="edge">
<title>Node71&#45;&gt;Node73</title>
<g id="a_edge54_Node000071_Node000073"><a xlink:title=" ">
<path fill="none" stroke="#63b8ff" d="M4061.45,-109.75C4066.01,-102.42 4072.67,-91.73 4078.29,-82.7"/>
<polygon fill="#63b8ff" stroke="#63b8ff" points="4081.34,-84.43 4083.65,-74.09 4075.4,-80.73 4081.34,-84.43"/>
</a>
</g>
</g>
<!-- Node76&#45;&gt;Node48 -->
<g id="edge58_Node000076_Node000048" class="edge">
<title>Node76&#45;&gt;Node48</title>
<g id="a_edge58_Node000076_Node000048"><a xlink:title=" ">
<path fill="none" stroke="#63b8ff" d="M3515.27,-54.98C3504.27,-47 3487.58,-34.88 3474.4,-25.31"/>
<polygon fill="#63b8ff" stroke="#63b8ff" points="3476.09,-22.21 3465.94,-19.17 3471.98,-27.88 3476.09,-22.21"/>
</a>
</g>
</g>
<!-- Node78&#45;&gt;Node55 -->
<g id="edge62_Node000078_Node000055" class="edge">
<title>Node78&#45;&gt;Node55</title>
<g id="a_edge62_Node000078_Node000055"><a xlink:title=" ">
<path fill="none" stroke="#63b8ff" d="M3002.98,-384.8C2984.51,-367.76 2947,-327.91 2947,-285.5 2947,-285.5 2947,-285.5 2947,-228.5 2947,-197.19 2947,-160.77 2947,-139.23"/>
<polygon fill="#63b8ff" stroke="#63b8ff" points="2950.5,-139.18 2947,-129.18 2943.5,-139.18 2950.5,-139.18"/>
</a>
</g>
</g>
<!-- Node79 -->
<g id="Node000079" class="node">
<title>Node79</title>
<g id="a_Node000079"><a xlink:href="CompositePoolNode_8h.html" target="_top" xlink:title=" ">
<polygon fill="#fff0f0" stroke="red" points="3110.5,-349 2985.5,-349 2985.5,-330 3110.5,-330 3110.5,-349"/>
<text text-anchor="middle" x="3048" y="-337" font-family="Helvetica,sans-Serif" font-size="10.00">CompositePoolNode.h</text>
</a>
</g>
</g>
<!-- Node78&#45;&gt;Node79 -->
<g id="edge63_Node000078_Node000079" class="edge">
<title>Node78&#45;&gt;Node79</title>
<g id="a_edge63_Node000078_Node000079"><a xlink:title=" ">
<path fill="none" stroke="#63b8ff" d="M3018.78,-384.75C3023.62,-377.42 3030.68,-366.73 3036.64,-357.7"/>
<polygon fill="#63b8ff" stroke="#63b8ff" points="3039.74,-359.36 3042.33,-349.09 3033.9,-355.5 3039.74,-359.36"/>
</a>
</g>
</g>
<!-- Node79&#45;&gt;Node61 -->
<g id="edge64_Node000079_Node000061" class="edge">
<title>Node79&#45;&gt;Node61</title>
<g id="a_edge64_Node000079_Node000061"><a xlink:title=" ">
<path fill="none" stroke="#63b8ff" d="M3048,-329.75C3048,-322.8 3048,-312.85 3048,-304.13"/>
<polygon fill="#63b8ff" stroke="#63b8ff" points="3051.5,-304.09 3048,-294.09 3044.5,-304.09 3051.5,-304.09"/>
</a>
</g>
</g>
<!-- Node79&#45;&gt;Node71 -->
<g id="edge65_Node000079_Node000071" class="edge">
<title>Node79&#45;&gt;Node71</title>
<g id="a_edge65_Node000079_Node000071"><a xlink:title=" ">
<path fill="none" stroke="#63b8ff" d="M3087.51,-329.95C3245.79,-295.72 3833.79,-168.56 4007.42,-131.01"/>
<polygon fill="#63b8ff" stroke="#63b8ff" points="4008.27,-134.4 4017.3,-128.87 4006.79,-127.56 4008.27,-134.4"/>
</a>
</g>
</g>
</g>
</svg>
