<?xml version="1.0" encoding="UTF-8" standalone="no"?>
<!DOCTYPE svg PUBLIC "-//W3C//DTD SVG 1.1//EN"
 "http://www.w3.org/Graphics/SVG/1.1/DTD/svg11.dtd">
<!-- Generated by graphviz version 2.43.0 (0)
 -->
<!-- Title: squid/src/base/DelayedAsyncCalls.cc Pages: 1 -->
<!--zoomable 368 -->

<svg id="main" version="1.1" xmlns="http://www.w3.org/2000/svg" xmlns:xlink="http://www.w3.org/1999/xlink" xml:space="preserve" onload="init(evt)">
<style type="text/css"><![CDATA[
.node, .edge {opacity: 0.7;}
.node.selected, .edge.selected {opacity: 1;}
.edge:hover path { stroke: red; }
.edge:hover polygon { stroke: red; fill: red; }
]]></style>

<defs>
  <circle id="rim" cx="0" cy="0" r="7"/>
  <circle id="rim2" cx="0" cy="0" r="3.5"/>
  <g id="zoomPlus">
    <use xlink:href="#rim" fill="#404040"><set attributeName="fill" to="#808080" begin="zoomplus.mouseover" end="zoomplus.mouseout"/></use>
    <path d="M-4,0h8M0,-4v8" fill="none" stroke="white" stroke-width="1.5" pointer-events="none"/>
  </g>
  <g id="zoomMin">
    <use xlink:href="#rim" fill="#404040"><set attributeName="fill" to="#808080" begin="zoomminus.mouseover" end="zoomminus.mouseout"/></use>
    <path d="M-4,0h8" fill="none" stroke="white" stroke-width="1.5" pointer-events="none"/>
  </g>
  <g id="arrowUp" transform="translate(30 24)">
    <use xlink:href="#rim"/>
    <path pointer-events="none" fill="none" stroke="white" stroke-width="1.5" d="M0,-3.0v7 M-2.5,-0.5L0,-3.0L2.5,-0.5"/>
  </g>
  <g id="arrowRight" transform="rotate(90) translate(36 -43)">
    <use xlink:href="#rim"/>
    <path pointer-events="none" fill="none" stroke="white" stroke-width="1.5" d="M0,-3.0v7 M-2.5,-0.5L0,-3.0L2.5,-0.5"/>
  </g>
  <g id="arrowDown" transform="rotate(180) translate(-30 -48)">
    <use xlink:href="#rim"/>
    <path pointer-events="none" fill="none" stroke="white" stroke-width="1.5" d="M0,-3.0v7 M-2.5,-0.5L0,-3.0L2.5,-0.5"/>
  </g>
  <g id="arrowLeft" transform="rotate(270) translate(-36 17)">
    <use xlink:href="#rim"/>
    <path pointer-events="none" fill="none" stroke="white" stroke-width="1.5" d="M0,-3.0v7 M-2.5,-0.5L0,-3.0L2.5,-0.5"/>
  </g>
  <g id="resetDef">
    <use xlink:href="#rim2" fill="#404040"><set attributeName="fill" to="#808080" begin="reset.mouseover" end="reset.mouseout"/></use>
  </g>
</defs>
<script type="application/ecmascript">
var viewWidth = 3893;
var viewHeight = 368;
var sectionId = 'dynsection-0';
</script>
<script type="application/ecmascript" xlink:href="svg.min.js"/>
<svg id="graph" class="graph">
<g id="viewport">
<title>squid/src/base/DelayedAsyncCalls.cc</title>
<!-- Node1 -->
<g id="Node000001" class="node">
<title>Node1</title>
<g id="a_Node000001"><a xlink:title=" ">
<polygon fill="#999999" stroke="#666666" points="3352,-360 3193,-360 3193,-330 3352,-330 3352,-360"/>
<text text-anchor="start" x="3201" y="-348" font-family="Helvetica,sans-Serif" font-size="10.00">squid/src/base/DelayedAsync</text>
<text text-anchor="middle" x="3272.5" y="-337" font-family="Helvetica,sans-Serif" font-size="10.00">Calls.cc</text>
</a>
</g>
</g>
<!-- Node2 -->
<g id="Node000002" class="node">
<title>Node2</title>
<g id="a_Node000002"><a xlink:href="squid_8h.html" target="_top" xlink:title=" ">
<polygon fill="white" stroke="#666666" points="1653.5,-294 1601.5,-294 1601.5,-275 1653.5,-275 1653.5,-294"/>
<text text-anchor="middle" x="1627.5" y="-282" font-family="Helvetica,sans-Serif" font-size="10.00">squid.h</text>
</a>
</g>
</g>
<!-- Node1&#45;&gt;Node2 -->
<g id="edge1_Node000001_Node000002" class="edge">
<title>Node1&#45;&gt;Node2</title>
<g id="a_edge1_Node000001_Node000002"><a xlink:title=" ">
<path fill="none" stroke="#63b8ff" d="M3192.88,-341.17C2897.43,-330.66 1870.29,-294.13 1663.82,-286.79"/>
<polygon fill="#63b8ff" stroke="#63b8ff" points="1663.65,-283.28 1653.53,-286.43 1663.4,-290.28 1663.65,-283.28"/>
</a>
</g>
</g>
<!-- Node44 -->
<g id="Node000044" class="node">
<title>Node44</title>
<g id="a_Node000044"><a xlink:href="AsyncCall_8h.html" target="_top" xlink:title=" ">
<polygon fill="white" stroke="#666666" points="3278.5,-184 3178.5,-184 3178.5,-165 3278.5,-165 3278.5,-184"/>
<text text-anchor="middle" x="3228.5" y="-172" font-family="Helvetica,sans-Serif" font-size="10.00">base/AsyncCall.h</text>
</a>
</g>
</g>
<!-- Node1&#45;&gt;Node44 -->
<g id="edge30_Node000001_Node000044" class="edge">
<title>Node1&#45;&gt;Node44</title>
<g id="a_edge30_Node000001_Node000044"><a xlink:title=" ">
<path fill="none" stroke="#63b8ff" d="M3261.44,-330C3254.5,-320.42 3246.03,-307.13 3241.5,-294 3229.84,-260.2 3228,-218.06 3228.03,-194.23"/>
<polygon fill="#63b8ff" stroke="#63b8ff" points="3231.53,-194.16 3228.16,-184.11 3224.53,-194.07 3231.53,-194.16"/>
</a>
</g>
</g>
<!-- Node60 -->
<g id="Node000060" class="node">
<title>Node60</title>
<g id="a_Node000060"><a xlink:href="DelayedAsyncCalls_8h.html" target="_top" xlink:title=" ">
<polygon fill="white" stroke="#666666" points="3396.5,-294 3250.5,-294 3250.5,-275 3396.5,-275 3396.5,-294"/>
<text text-anchor="middle" x="3323.5" y="-282" font-family="Helvetica,sans-Serif" font-size="10.00">base/DelayedAsyncCalls.h</text>
</a>
</g>
</g>
<!-- Node1&#45;&gt;Node60 -->
<g id="edge48_Node000001_Node000060" class="edge">
<title>Node1&#45;&gt;Node60</title>
<g id="a_edge48_Node000001_Node000060"><a xlink:title=" ">
<path fill="none" stroke="#63b8ff" d="M3284.85,-329.84C3292.17,-321.43 3301.5,-310.74 3309.15,-301.96"/>
<polygon fill="#63b8ff" stroke="#63b8ff" points="3311.92,-304.1 3315.86,-294.27 3306.65,-299.5 3311.92,-304.1"/>
</a>
</g>
</g>
<!-- Node62 -->
<g id="Node000062" class="node">
<title>Node62</title>
<g id="a_Node000062"><a xlink:href="debug_2Stream_8h.html" target="_top" xlink:title=" ">
<polygon fill="white" stroke="#666666" points="3754.5,-129 3660.5,-129 3660.5,-110 3754.5,-110 3754.5,-129"/>
<text text-anchor="middle" x="3707.5" y="-117" font-family="Helvetica,sans-Serif" font-size="10.00">debug/Stream.h</text>
</a>
</g>
</g>
<!-- Node1&#45;&gt;Node62 -->
<g id="edge52_Node000001_Node000062" class="edge">
<title>Node1&#45;&gt;Node62</title>
<g id="a_edge52_Node000001_Node000062"><a xlink:title=" ">
<path fill="none" stroke="#63b8ff" d="M3315.15,-329.94C3341.61,-320.74 3376.05,-307.88 3405.5,-294 3514.69,-242.53 3637.23,-165.82 3685.9,-134.54"/>
<polygon fill="#63b8ff" stroke="#63b8ff" points="3687.87,-137.44 3694.37,-129.08 3684.07,-131.56 3687.87,-137.44"/>
</a>
</g>
</g>
<!-- Node3 -->
<g id="Node000003" class="node">
<title>Node3</title>
<g id="a_Node000003"><a xlink:href="autoconf_8h.html" target="_top" xlink:title=" ">
<polygon fill="white" stroke="#666666" points="1528.5,-239 1460.5,-239 1460.5,-220 1528.5,-220 1528.5,-239"/>
<text text-anchor="middle" x="1494.5" y="-227" font-family="Helvetica,sans-Serif" font-size="10.00">autoconf.h</text>
</a>
</g>
</g>
<!-- Node2&#45;&gt;Node3 -->
<g id="edge2_Node000002_Node000003" class="edge">
<title>Node2&#45;&gt;Node3</title>
<g id="a_edge2_Node000002_Node000003"><a xlink:title=" ">
<path fill="none" stroke="#63b8ff" d="M1606.13,-274.98C1584.35,-266.3 1550.34,-252.75 1525.58,-242.88"/>
<polygon fill="#63b8ff" stroke="#63b8ff" points="1526.84,-239.62 1516.26,-239.17 1524.25,-246.12 1526.84,-239.62"/>
</a>
</g>
</g>
<!-- Node4 -->
<g id="Node000004" class="node">
<title>Node4</title>
<g id="a_Node000004"><a xlink:href="version_8h.html" target="_top" xlink:title=" ">
<polygon fill="white" stroke="#666666" points="1608.5,-239 1546.5,-239 1546.5,-220 1608.5,-220 1608.5,-239"/>
<text text-anchor="middle" x="1577.5" y="-227" font-family="Helvetica,sans-Serif" font-size="10.00">version.h</text>
</a>
</g>
</g>
<!-- Node2&#45;&gt;Node4 -->
<g id="edge3_Node000002_Node000004" class="edge">
<title>Node2&#45;&gt;Node4</title>
<g id="a_edge3_Node000002_Node000004"><a xlink:title=" ">
<path fill="none" stroke="#63b8ff" d="M1619.24,-274.75C1612.04,-267.11 1601.39,-255.82 1592.65,-246.56"/>
<polygon fill="#63b8ff" stroke="#63b8ff" points="1595.01,-243.96 1585.6,-239.09 1589.92,-248.76 1595.01,-243.96"/>
</a>
</g>
</g>
<!-- Node5 -->
<g id="Node000005" class="node">
<title>Node5</title>
<g id="a_Node000005"><a xlink:href="compat_8h.html" target="_top" xlink:title=" ">
<polygon fill="white" stroke="#666666" points="1728.5,-239 1626.5,-239 1626.5,-220 1728.5,-220 1728.5,-239"/>
<text text-anchor="middle" x="1677.5" y="-227" font-family="Helvetica,sans-Serif" font-size="10.00">compat/compat.h</text>
</a>
</g>
</g>
<!-- Node2&#45;&gt;Node5 -->
<g id="edge4_Node000002_Node000005" class="edge">
<title>Node2&#45;&gt;Node5</title>
<g id="a_edge4_Node000002_Node000005"><a xlink:title=" ">
<path fill="none" stroke="#63b8ff" d="M1635.76,-274.75C1642.96,-267.11 1653.61,-255.82 1662.35,-246.56"/>
<polygon fill="#63b8ff" stroke="#63b8ff" points="1665.08,-248.76 1669.4,-239.09 1659.99,-243.96 1665.08,-248.76"/>
</a>
</g>
</g>
<!-- Node6 -->
<g id="Node000006" class="node">
<title>Node6</title>
<g id="a_Node000006"><a xlink:href="osdetect_8h.html" target="_top" xlink:title=" ">
<polygon fill="white" stroke="#666666" points="107,-184 0,-184 0,-165 107,-165 107,-184"/>
<text text-anchor="middle" x="53.5" y="-172" font-family="Helvetica,sans-Serif" font-size="10.00">compat/osdetect.h</text>
</a>
</g>
</g>
<!-- Node5&#45;&gt;Node6 -->
<g id="edge5_Node000005_Node000006" class="edge">
<title>Node5&#45;&gt;Node6</title>
<g id="a_edge5_Node000005_Node000006"><a xlink:title=" ">
<path fill="none" stroke="#63b8ff" d="M1626.48,-220.86C1623.45,-220.53 1620.44,-220.24 1617.5,-220 955.87,-165.39 783.48,-235.96 117.41,-183.95"/>
<polygon fill="#63b8ff" stroke="#63b8ff" points="117.32,-180.43 107.07,-183.14 116.77,-187.41 117.32,-180.43"/>
</a>
</g>
</g>
<!-- Node7 -->
<g id="Node000007" class="node">
<title>Node7</title>
<g id="a_Node000007"><a xlink:href="fdsetsize_8h.html" target="_top" xlink:title=" ">
<polygon fill="white" stroke="#666666" points="235.5,-184 125.5,-184 125.5,-165 235.5,-165 235.5,-184"/>
<text text-anchor="middle" x="180.5" y="-172" font-family="Helvetica,sans-Serif" font-size="10.00">compat/fdsetsize.h</text>
</a>
</g>
</g>
<!-- Node5&#45;&gt;Node7 -->
<g id="edge6_Node000005_Node000007" class="edge">
<title>Node5&#45;&gt;Node7</title>
<g id="a_edge6_Node000005_Node000007"><a xlink:title=" ">
<path fill="none" stroke="#63b8ff" d="M1626.48,-220.87C1623.45,-220.54 1620.44,-220.25 1617.5,-220 1012.61,-169.39 854.79,-231.55 245.98,-184.01"/>
<polygon fill="#63b8ff" stroke="#63b8ff" points="245.86,-180.49 235.62,-183.2 245.31,-187.47 245.86,-180.49"/>
</a>
</g>
</g>
<!-- Node8 -->
<g id="Node000008" class="node">
<title>Node8</title>
<g id="a_Node000008"><a xlink:href="types_8h.html" target="_top" xlink:title=" ">
<polygon fill="#fff0f0" stroke="red" points="345.5,-184 253.5,-184 253.5,-165 345.5,-165 345.5,-184"/>
<text text-anchor="middle" x="299.5" y="-172" font-family="Helvetica,sans-Serif" font-size="10.00">compat/types.h</text>
</a>
</g>
</g>
<!-- Node5&#45;&gt;Node8 -->
<g id="edge7_Node000005_Node000008" class="edge">
<title>Node5&#45;&gt;Node8</title>
<g id="a_edge7_Node000005_Node000008"><a xlink:title=" ">
<path fill="none" stroke="#63b8ff" d="M1626.48,-220.88C1623.45,-220.55 1620.44,-220.25 1617.5,-220 1061.36,-172.83 915.52,-234.23 356.02,-184"/>
<polygon fill="#63b8ff" stroke="#63b8ff" points="355.94,-180.48 345.66,-183.06 355.31,-187.45 355.94,-180.48"/>
</a>
</g>
</g>
<!-- Node10 -->
<g id="Node000010" class="node">
<title>Node10</title>
<g id="a_Node000010"><a xlink:href="aix_8h.html" target="_top" xlink:title=" ">
<polygon fill="white" stroke="#666666" points="459,-184 364,-184 364,-165 459,-165 459,-184"/>
<text text-anchor="middle" x="411.5" y="-172" font-family="Helvetica,sans-Serif" font-size="10.00">compat/os/aix.h</text>
</a>
</g>
</g>
<!-- Node5&#45;&gt;Node10 -->
<g id="edge8_Node000005_Node000010" class="edge">
<title>Node5&#45;&gt;Node10</title>
<g id="a_edge8_Node000005_Node000010"><a xlink:title=" ">
<path fill="none" stroke="#63b8ff" d="M1626.48,-220.89C1623.45,-220.55 1620.43,-220.25 1617.5,-220 1111.83,-176.39 979.11,-229.05 469.24,-183.92"/>
<polygon fill="#63b8ff" stroke="#63b8ff" points="469.31,-180.42 459.04,-183.01 468.68,-187.39 469.31,-180.42"/>
</a>
</g>
</g>
<!-- Node11 -->
<g id="Node000011" class="node">
<title>Node11</title>
<g id="a_Node000011"><a xlink:href="android_8h.html" target="_top" xlink:title=" ">
<polygon fill="white" stroke="#666666" points="593.5,-184 477.5,-184 477.5,-165 593.5,-165 593.5,-184"/>
<text text-anchor="middle" x="535.5" y="-172" font-family="Helvetica,sans-Serif" font-size="10.00">compat/os/android.h</text>
</a>
</g>
</g>
<!-- Node5&#45;&gt;Node11 -->
<g id="edge9_Node000005_Node000011" class="edge">
<title>Node5&#45;&gt;Node11</title>
<g id="a_edge9_Node000005_Node000011"><a xlink:title=" ">
<path fill="none" stroke="#63b8ff" d="M1626.48,-220.9C1623.44,-220.56 1620.43,-220.26 1617.5,-220 1171.15,-180.58 1054.13,-219.86 603.6,-184"/>
<polygon fill="#63b8ff" stroke="#63b8ff" points="603.82,-180.51 593.57,-183.19 603.26,-187.48 603.82,-180.51"/>
</a>
</g>
</g>
<!-- Node12 -->
<g id="Node000012" class="node">
<title>Node12</title>
<g id="a_Node000012"><a xlink:href="dragonfly_8h.html" target="_top" xlink:title=" ">
<polygon fill="white" stroke="#666666" points="735.5,-184 611.5,-184 611.5,-165 735.5,-165 735.5,-184"/>
<text text-anchor="middle" x="673.5" y="-172" font-family="Helvetica,sans-Serif" font-size="10.00">compat/os/dragonfly.h</text>
</a>
</g>
</g>
<!-- Node5&#45;&gt;Node12 -->
<g id="edge10_Node000005_Node000012" class="edge">
<title>Node5&#45;&gt;Node12</title>
<g id="a_edge10_Node000005_Node000012"><a xlink:title=" ">
<path fill="none" stroke="#63b8ff" d="M1626.48,-220.92C1623.44,-220.58 1620.43,-220.27 1617.5,-220 1234.08,-185.02 1133.3,-214.59 745.89,-184.04"/>
<polygon fill="#63b8ff" stroke="#63b8ff" points="746.06,-180.54 735.81,-183.24 745.5,-187.52 746.06,-180.54"/>
</a>
</g>
</g>
<!-- Node13 -->
<g id="Node000013" class="node">
<title>Node13</title>
<g id="a_Node000013"><a xlink:href="freebsd_8h.html" target="_top" xlink:title=" ">
<polygon fill="white" stroke="#666666" points="869.5,-184 753.5,-184 753.5,-165 869.5,-165 869.5,-184"/>
<text text-anchor="middle" x="811.5" y="-172" font-family="Helvetica,sans-Serif" font-size="10.00">compat/os/freebsd.h</text>
</a>
</g>
</g>
<!-- Node5&#45;&gt;Node13 -->
<g id="edge11_Node000005_Node000013" class="edge">
<title>Node5&#45;&gt;Node13</title>
<g id="a_edge11_Node000005_Node000013"><a xlink:title=" ">
<path fill="none" stroke="#63b8ff" d="M1626.47,-220.95C1623.44,-220.6 1620.43,-220.28 1617.5,-220 1293.5,-189.22 1207.83,-212.23 879.85,-184.04"/>
<polygon fill="#63b8ff" stroke="#63b8ff" points="879.84,-180.53 869.58,-183.15 879.23,-187.5 879.84,-180.53"/>
</a>
</g>
</g>
<!-- Node14 -->
<g id="Node000014" class="node">
<title>Node14</title>
<g id="a_Node000014"><a xlink:href="hpux_8h.html" target="_top" xlink:title=" ">
<polygon fill="white" stroke="#666666" points="991.5,-184 887.5,-184 887.5,-165 991.5,-165 991.5,-184"/>
<text text-anchor="middle" x="939.5" y="-172" font-family="Helvetica,sans-Serif" font-size="10.00">compat/os/hpux.h</text>
</a>
</g>
</g>
<!-- Node5&#45;&gt;Node14 -->
<g id="edge12_Node000005_Node000014" class="edge">
<title>Node5&#45;&gt;Node14</title>
<g id="a_edge12_Node000005_Node000014"><a xlink:title=" ">
<path fill="none" stroke="#63b8ff" d="M1626.47,-220.98C1623.44,-220.62 1620.43,-220.29 1617.5,-220 1347.51,-193.05 1275.61,-210.54 1001.95,-184.06"/>
<polygon fill="#63b8ff" stroke="#63b8ff" points="1002,-180.55 991.71,-183.06 1001.32,-187.51 1002,-180.55"/>
</a>
</g>
</g>
<!-- Node15 -->
<g id="Node000015" class="node">
<title>Node15</title>
<g id="a_Node000015"><a xlink:href="linux_8h.html" target="_top" xlink:title=" ">
<polygon fill="white" stroke="#666666" points="1113.5,-184 1009.5,-184 1009.5,-165 1113.5,-165 1113.5,-184"/>
<text text-anchor="middle" x="1061.5" y="-172" font-family="Helvetica,sans-Serif" font-size="10.00">compat/os/linux.h</text>
</a>
</g>
</g>
<!-- Node5&#45;&gt;Node15 -->
<g id="edge13_Node000005_Node000015" class="edge">
<title>Node5&#45;&gt;Node15</title>
<g id="a_edge13_Node000005_Node000015"><a xlink:title=" ">
<path fill="none" stroke="#63b8ff" d="M1626.47,-221.03C1623.44,-220.66 1620.43,-220.31 1617.5,-220 1401.49,-196.87 1343.6,-206.92 1123.96,-184.08"/>
<polygon fill="#63b8ff" stroke="#63b8ff" points="1124.03,-180.57 1113.72,-183.01 1123.3,-187.53 1124.03,-180.57"/>
</a>
</g>
</g>
<!-- Node16 -->
<g id="Node000016" class="node">
<title>Node16</title>
<g id="a_Node000016"><a xlink:href="macosx_8h.html" target="_top" xlink:title=" ">
<polygon fill="white" stroke="#666666" points="1249.5,-184 1131.5,-184 1131.5,-165 1249.5,-165 1249.5,-184"/>
<text text-anchor="middle" x="1190.5" y="-172" font-family="Helvetica,sans-Serif" font-size="10.00">compat/os/macosx.h</text>
</a>
</g>
</g>
<!-- Node5&#45;&gt;Node16 -->
<g id="edge14_Node000005_Node000016" class="edge">
<title>Node5&#45;&gt;Node16</title>
<g id="a_edge14_Node000005_Node000016"><a xlink:title=" ">
<path fill="none" stroke="#63b8ff" d="M1626.46,-221.12C1623.43,-220.73 1620.42,-220.35 1617.5,-220 1461.57,-201.14 1419.56,-201.91 1260.01,-184.14"/>
<polygon fill="#63b8ff" stroke="#63b8ff" points="1260.16,-180.64 1249.83,-183 1259.38,-187.59 1260.16,-180.64"/>
</a>
</g>
</g>
<!-- Node17 -->
<g id="Node000017" class="node">
<title>Node17</title>
<g id="a_Node000017"><a xlink:href="mingw_8h.html" target="_top" xlink:title=" ">
<polygon fill="white" stroke="#666666" points="1379.5,-184 1267.5,-184 1267.5,-165 1379.5,-165 1379.5,-184"/>
<text text-anchor="middle" x="1323.5" y="-172" font-family="Helvetica,sans-Serif" font-size="10.00">compat/os/mingw.h</text>
</a>
</g>
</g>
<!-- Node5&#45;&gt;Node17 -->
<g id="edge15_Node000005_Node000017" class="edge">
<title>Node5&#45;&gt;Node17</title>
<g id="a_edge15_Node000005_Node000017"><a xlink:title=" ">
<path fill="none" stroke="#63b8ff" d="M1626.4,-220.85C1564.03,-211.51 1458.4,-195.7 1389.81,-185.43"/>
<polygon fill="#63b8ff" stroke="#63b8ff" points="1389.96,-181.91 1379.55,-183.89 1388.92,-188.83 1389.96,-181.91"/>
</a>
</g>
</g>
<!-- Node18 -->
<g id="Node000018" class="node">
<title>Node18</title>
<g id="a_Node000018"><a xlink:href="mswindows_8h.html" target="_top" xlink:title=" ">
<polygon fill="white" stroke="#666666" points="1535,-184 1398,-184 1398,-165 1535,-165 1535,-184"/>
<text text-anchor="middle" x="1466.5" y="-172" font-family="Helvetica,sans-Serif" font-size="10.00">compat/os/mswindows.h</text>
</a>
</g>
</g>
<!-- Node5&#45;&gt;Node18 -->
<g id="edge16_Node000005_Node000018" class="edge">
<title>Node5&#45;&gt;Node18</title>
<g id="a_edge16_Node000005_Node000018"><a xlink:title=" ">
<path fill="none" stroke="#63b8ff" d="M1643.6,-219.98C1607.48,-210.91 1550.18,-196.52 1510.58,-186.57"/>
<polygon fill="#63b8ff" stroke="#63b8ff" points="1511.22,-183.12 1500.67,-184.08 1509.51,-189.91 1511.22,-183.12"/>
</a>
</g>
</g>
<!-- Node19 -->
<g id="Node000019" class="node">
<title>Node19</title>
<g id="a_Node000019"><a xlink:href="netbsd_8h.html" target="_top" xlink:title=" ">
<polygon fill="white" stroke="#666666" points="1666,-184 1553,-184 1553,-165 1666,-165 1666,-184"/>
<text text-anchor="middle" x="1609.5" y="-172" font-family="Helvetica,sans-Serif" font-size="10.00">compat/os/netbsd.h</text>
</a>
</g>
</g>
<!-- Node5&#45;&gt;Node19 -->
<g id="edge17_Node000005_Node000019" class="edge">
<title>Node5&#45;&gt;Node19</title>
<g id="a_edge17_Node000005_Node000019"><a xlink:title=" ">
<path fill="none" stroke="#63b8ff" d="M1666.57,-219.98C1656.42,-212.07 1641.08,-200.11 1628.85,-190.58"/>
<polygon fill="#63b8ff" stroke="#63b8ff" points="1630.66,-187.56 1620.62,-184.17 1626.36,-193.08 1630.66,-187.56"/>
</a>
</g>
</g>
<!-- Node20 -->
<g id="Node000020" class="node">
<title>Node20</title>
<g id="a_Node000020"><a xlink:href="openbsd_8h.html" target="_top" xlink:title=" ">
<polygon fill="white" stroke="#666666" points="1805,-184 1684,-184 1684,-165 1805,-165 1805,-184"/>
<text text-anchor="middle" x="1744.5" y="-172" font-family="Helvetica,sans-Serif" font-size="10.00">compat/os/openbsd.h</text>
</a>
</g>
</g>
<!-- Node5&#45;&gt;Node20 -->
<g id="edge18_Node000005_Node000020" class="edge">
<title>Node5&#45;&gt;Node20</title>
<g id="a_edge18_Node000005_Node000020"><a xlink:title=" ">
<path fill="none" stroke="#63b8ff" d="M1688.26,-219.98C1698.27,-212.07 1713.39,-200.11 1725.43,-190.58"/>
<polygon fill="#63b8ff" stroke="#63b8ff" points="1727.87,-193.12 1733.54,-184.17 1723.53,-187.63 1727.87,-193.12"/>
</a>
</g>
</g>
<!-- Node21 -->
<g id="Node000021" class="node">
<title>Node21</title>
<g id="a_Node000021"><a xlink:href="os2_8h.html" target="_top" xlink:title=" ">
<polygon fill="white" stroke="#666666" points="1920,-184 1823,-184 1823,-165 1920,-165 1920,-184"/>
<text text-anchor="middle" x="1871.5" y="-172" font-family="Helvetica,sans-Serif" font-size="10.00">compat/os/os2.h</text>
</a>
</g>
</g>
<!-- Node5&#45;&gt;Node21 -->
<g id="edge19_Node000005_Node000021" class="edge">
<title>Node5&#45;&gt;Node21</title>
<g id="a_edge19_Node000005_Node000021"><a xlink:title=" ">
<path fill="none" stroke="#63b8ff" d="M1708.67,-219.98C1741.66,-210.97 1793.9,-196.7 1830.27,-186.76"/>
<polygon fill="#63b8ff" stroke="#63b8ff" points="1831.36,-190.09 1840.09,-184.08 1829.52,-183.34 1831.36,-190.09"/>
</a>
</g>
</g>
<!-- Node22 -->
<g id="Node000022" class="node">
<title>Node22</title>
<g id="a_Node000022"><a xlink:href="qnx_8h.html" target="_top" xlink:title=" ">
<polygon fill="white" stroke="#666666" points="2036.5,-184 1938.5,-184 1938.5,-165 2036.5,-165 2036.5,-184"/>
<text text-anchor="middle" x="1987.5" y="-172" font-family="Helvetica,sans-Serif" font-size="10.00">compat/os/qnx.h</text>
</a>
</g>
</g>
<!-- Node5&#45;&gt;Node22 -->
<g id="edge20_Node000005_Node000022" class="edge">
<title>Node5&#45;&gt;Node22</title>
<g id="a_edge20_Node000005_Node000022"><a xlink:title=" ">
<path fill="none" stroke="#63b8ff" d="M1727.31,-219.98C1782.04,-210.63 1869.91,-195.6 1928.17,-185.64"/>
<polygon fill="#63b8ff" stroke="#63b8ff" points="1929.06,-189.04 1938.33,-183.91 1927.88,-182.14 1929.06,-189.04"/>
</a>
</g>
</g>
<!-- Node23 -->
<g id="Node000023" class="node">
<title>Node23</title>
<g id="a_Node000023"><a xlink:href="solaris_8h.html" target="_top" xlink:title=" ">
<polygon fill="white" stroke="#666666" points="2166.5,-184 2054.5,-184 2054.5,-165 2166.5,-165 2166.5,-184"/>
<text text-anchor="middle" x="2110.5" y="-172" font-family="Helvetica,sans-Serif" font-size="10.00">compat/os/solaris.h</text>
</a>
</g>
</g>
<!-- Node5&#45;&gt;Node23 -->
<g id="edge21_Node000005_Node000023" class="edge">
<title>Node5&#45;&gt;Node23</title>
<g id="a_edge21_Node000005_Node000023"><a xlink:title=" ">
<path fill="none" stroke="#63b8ff" d="M1728.72,-222.47C1797.88,-214.28 1925.28,-199.08 2044.45,-184.12"/>
<polygon fill="#63b8ff" stroke="#63b8ff" points="2045,-187.58 2054.48,-182.86 2044.13,-180.63 2045,-187.58"/>
</a>
</g>
</g>
<!-- Node24 -->
<g id="Node000024" class="node">
<title>Node24</title>
<g id="a_Node000024"><a xlink:href="sunos_8h.html" target="_top" xlink:title=" ">
<polygon fill="white" stroke="#666666" points="2292.5,-184 2184.5,-184 2184.5,-165 2292.5,-165 2292.5,-184"/>
<text text-anchor="middle" x="2238.5" y="-172" font-family="Helvetica,sans-Serif" font-size="10.00">compat/os/sunos.h</text>
</a>
</g>
</g>
<!-- Node5&#45;&gt;Node24 -->
<g id="edge22_Node000005_Node000024" class="edge">
<title>Node5&#45;&gt;Node24</title>
<g id="a_edge22_Node000005_Node000024"><a xlink:title=" ">
<path fill="none" stroke="#63b8ff" d="M1728.84,-224.68C1817.47,-217.91 2005.16,-202.85 2174.15,-184.11"/>
<polygon fill="#63b8ff" stroke="#63b8ff" points="2174.67,-187.57 2184.22,-182.98 2173.9,-180.61 2174.67,-187.57"/>
</a>
</g>
</g>
<!-- Node25 -->
<g id="Node000025" class="node">
<title>Node25</title>
<g id="a_Node000025"><a xlink:href="assert_8h.html" target="_top" xlink:title=" ">
<polygon fill="white" stroke="#666666" points="2406,-184 2311,-184 2311,-165 2406,-165 2406,-184"/>
<text text-anchor="middle" x="2358.5" y="-172" font-family="Helvetica,sans-Serif" font-size="10.00">compat/assert.h</text>
</a>
</g>
</g>
<!-- Node5&#45;&gt;Node25 -->
<g id="edge23_Node000005_Node000025" class="edge">
<title>Node5&#45;&gt;Node25</title>
<g id="a_edge23_Node000005_Node000025"><a xlink:title=" ">
<path fill="none" stroke="#63b8ff" d="M1728.58,-226.19C1833.63,-221.15 2081.71,-207.76 2300.87,-183.97"/>
<polygon fill="#63b8ff" stroke="#63b8ff" points="2301.39,-187.44 2310.95,-182.87 2300.63,-180.48 2301.39,-187.44"/>
</a>
</g>
</g>
<!-- Node26 -->
<g id="Node000026" class="node">
<title>Node26</title>
<g id="a_Node000026"><a xlink:href="compat__shared_8h.html" target="_top" xlink:title=" ">
<polygon fill="#fff0f0" stroke="red" points="2564.5,-184 2424.5,-184 2424.5,-165 2564.5,-165 2564.5,-184"/>
<text text-anchor="middle" x="2494.5" y="-172" font-family="Helvetica,sans-Serif" font-size="10.00">compat/compat_shared.h</text>
</a>
</g>
</g>
<!-- Node5&#45;&gt;Node26 -->
<g id="edge24_Node000005_Node000026" class="edge">
<title>Node5&#45;&gt;Node26</title>
<g id="a_edge24_Node000005_Node000026"><a xlink:title=" ">
<path fill="none" stroke="#63b8ff" d="M1728.93,-226.2C1847.54,-220.73 2149.62,-205.79 2414.09,-183.99"/>
<polygon fill="#63b8ff" stroke="#63b8ff" points="2414.6,-187.46 2424.28,-183.14 2414.02,-180.48 2414.6,-187.46"/>
</a>
</g>
</g>
<!-- Node36 -->
<g id="Node000036" class="node">
<title>Node36</title>
<g id="a_Node000036"><a xlink:href="stdvarargs_8h.html" target="_top" xlink:title=" ">
<polygon fill="#fff0f0" stroke="red" points="2700,-184 2583,-184 2583,-165 2700,-165 2700,-184"/>
<text text-anchor="middle" x="2641.5" y="-172" font-family="Helvetica,sans-Serif" font-size="10.00">compat/stdvarargs.h</text>
</a>
</g>
</g>
<!-- Node5&#45;&gt;Node36 -->
<g id="edge25_Node000005_Node000036" class="edge">
<title>Node5&#45;&gt;Node36</title>
<g id="a_edge25_Node000005_Node000036"><a xlink:title=" ">
<path fill="none" stroke="#63b8ff" d="M1728.61,-227.3C1864.25,-223.83 2244.8,-212.22 2572.75,-183.99"/>
<polygon fill="#63b8ff" stroke="#63b8ff" points="2573.26,-187.46 2582.92,-183.1 2572.66,-180.48 2573.26,-187.46"/>
</a>
</g>
</g>
<!-- Node38 -->
<g id="Node000038" class="node">
<title>Node38</title>
<g id="a_Node000038"><a xlink:href="stdio_8h.html" target="_top" xlink:title=" ">
<polygon fill="#fff0f0" stroke="red" points="2807,-184 2718,-184 2718,-165 2807,-165 2807,-184"/>
<text text-anchor="middle" x="2762.5" y="-172" font-family="Helvetica,sans-Serif" font-size="10.00">compat/stdio.h</text>
</a>
</g>
</g>
<!-- Node5&#45;&gt;Node38 -->
<g id="edge26_Node000005_Node000038" class="edge">
<title>Node5&#45;&gt;Node38</title>
<g id="a_edge26_Node000005_Node000038"><a xlink:title=" ">
<path fill="none" stroke="#63b8ff" d="M1728.6,-228.33C1877.78,-227.42 2325.72,-221.57 2707.62,-183.95"/>
<polygon fill="#63b8ff" stroke="#63b8ff" points="2708.16,-187.41 2717.76,-182.94 2707.46,-180.45 2708.16,-187.41"/>
</a>
</g>
</g>
<!-- Node40 -->
<g id="Node000040" class="node">
<title>Node40</title>
<g id="a_Node000040"><a xlink:href="statvfs_8h.html" target="_top" xlink:title=" ">
<polygon fill="white" stroke="#666666" points="2924,-184 2825,-184 2825,-165 2924,-165 2924,-184"/>
<text text-anchor="middle" x="2874.5" y="-172" font-family="Helvetica,sans-Serif" font-size="10.00">compat/statvfs.h</text>
</a>
</g>
</g>
<!-- Node5&#45;&gt;Node40 -->
<g id="edge27_Node000005_Node000040" class="edge">
<title>Node5&#45;&gt;Node40</title>
<g id="a_edge27_Node000005_Node000040"><a xlink:title=" ">
<path fill="none" stroke="#63b8ff" d="M1728.66,-228.39C1887.93,-227.66 2389.17,-222.3 2814.93,-183.93"/>
<polygon fill="#63b8ff" stroke="#63b8ff" points="2815.33,-187.41 2824.97,-183.02 2814.69,-180.44 2815.33,-187.41"/>
</a>
</g>
</g>
<!-- Node41 -->
<g id="Node000041" class="node">
<title>Node41</title>
<g id="a_Node000041"><a xlink:href="debug_8h.html" target="_top" xlink:title=" ">
<polygon fill="white" stroke="#666666" points="3037,-184 2942,-184 2942,-165 3037,-165 3037,-184"/>
<text text-anchor="middle" x="2989.5" y="-172" font-family="Helvetica,sans-Serif" font-size="10.00">compat/debug.h</text>
</a>
</g>
</g>
<!-- Node5&#45;&gt;Node41 -->
<g id="edge28_Node000005_Node000041" class="edge">
<title>Node5&#45;&gt;Node41</title>
<g id="a_edge28_Node000005_Node000041"><a xlink:title=" ">
<path fill="none" stroke="#63b8ff" d="M1728.74,-228.75C1898.56,-229.13 2458.54,-226.9 2931.85,-183.92"/>
<polygon fill="#63b8ff" stroke="#63b8ff" points="2932.32,-187.39 2941.96,-183 2931.69,-180.42 2932.32,-187.39"/>
</a>
</g>
</g>
<!-- Node42 -->
<g id="Node000042" class="node">
<title>Node42</title>
<g id="a_Node000042"><a xlink:href="valgrind_8h.html" target="_top" xlink:title=" ">
<polygon fill="#fff0f0" stroke="red" points="3160,-184 3055,-184 3055,-165 3160,-165 3160,-184"/>
<text text-anchor="middle" x="3107.5" y="-172" font-family="Helvetica,sans-Serif" font-size="10.00">compat/valgrind.h</text>
</a>
</g>
</g>
<!-- Node5&#45;&gt;Node42 -->
<g id="edge29_Node000005_Node000042" class="edge">
<title>Node5&#45;&gt;Node42</title>
<g id="a_edge29_Node000005_Node000042"><a xlink:title=" ">
<path fill="none" stroke="#63b8ff" d="M1728.54,-228.75C1907.7,-229.2 2524.66,-227.38 3044.44,-183.98"/>
<polygon fill="#63b8ff" stroke="#63b8ff" points="3045.1,-187.43 3054.78,-183.11 3044.52,-180.46 3045.1,-187.43"/>
</a>
</g>
</g>
<!-- Node45 -->
<g id="Node000045" class="node">
<title>Node45</title>
<g id="a_Node000045"><a xlink:href="CodeContext_8h.html" target="_top" xlink:title=" ">
<polygon fill="white" stroke="#666666" points="3127,-129 3012,-129 3012,-110 3127,-110 3127,-129"/>
<text text-anchor="middle" x="3069.5" y="-117" font-family="Helvetica,sans-Serif" font-size="10.00">base/CodeContext.h</text>
</a>
</g>
</g>
<!-- Node44&#45;&gt;Node45 -->
<g id="edge31_Node000044_Node000045" class="edge">
<title>Node44&#45;&gt;Node45</title>
<g id="a_edge31_Node000044_Node000045"><a xlink:title=" ">
<path fill="none" stroke="#63b8ff" d="M3202.95,-164.98C3176.38,-156.13 3134.56,-142.19 3104.83,-132.28"/>
<polygon fill="#63b8ff" stroke="#63b8ff" points="3105.84,-128.92 3095.25,-129.08 3103.63,-135.56 3105.84,-128.92"/>
</a>
</g>
</g>
<!-- Node46 -->
<g id="Node000046" class="node">
<title>Node46</title>
<g id="a_Node000046"><a xlink:href="InstanceId_8h.html" target="_top" xlink:title=" ">
<polygon fill="white" stroke="#666666" points="2961.5,-74 2859.5,-74 2859.5,-55 2961.5,-55 2961.5,-74"/>
<text text-anchor="middle" x="2910.5" y="-62" font-family="Helvetica,sans-Serif" font-size="10.00">base/InstanceId.h</text>
</a>
</g>
</g>
<!-- Node44&#45;&gt;Node46 -->
<g id="edge40_Node000044_Node000046" class="edge">
<title>Node44&#45;&gt;Node46</title>
<g id="a_edge40_Node000044_Node000046"><a xlink:title=" ">
<path fill="none" stroke="#63b8ff" d="M3178.47,-166.09C3121.89,-157.28 3033.59,-142.12 3002.5,-129 2974.07,-117.01 2945.47,-95.42 2927.88,-80.78"/>
<polygon fill="#63b8ff" stroke="#63b8ff" points="2930.06,-78.04 2920.17,-74.22 2925.52,-83.37 2930.06,-78.04"/>
</a>
</g>
</g>
<!-- Node48 -->
<g id="Node000048" class="node">
<title>Node48</title>
<g id="a_Node000048"><a xlink:href="RefCount_8h.html" target="_top" xlink:title=" ">
<polygon fill="#fff0f0" stroke="red" points="3236,-74 3139,-74 3139,-55 3236,-55 3236,-74"/>
<text text-anchor="middle" x="3187.5" y="-62" font-family="Helvetica,sans-Serif" font-size="10.00">base/RefCount.h</text>
</a>
</g>
</g>
<!-- Node44&#45;&gt;Node48 -->
<g id="edge47_Node000044_Node000048" class="edge">
<title>Node44&#45;&gt;Node48</title>
<g id="a_edge47_Node000044_Node000048"><a xlink:title=" ">
<path fill="none" stroke="#63b8ff" d="M3217.95,-164.86C3208.84,-156.7 3196.26,-143.55 3190.5,-129 3184.84,-114.71 3184.45,-97.19 3185.27,-84.17"/>
<polygon fill="#63b8ff" stroke="#63b8ff" points="3188.77,-84.36 3186.2,-74.08 3181.8,-83.72 3188.77,-84.36"/>
</a>
</g>
</g>
<!-- Node54 -->
<g id="Node000054" class="node">
<title>Node54</title>
<g id="a_Node000054"><a xlink:href="base_2forward_8h.html" target="_top" xlink:title=" ">
<polygon fill="white" stroke="#666666" points="3289,-129 3200,-129 3200,-110 3289,-110 3289,-129"/>
<text text-anchor="middle" x="3244.5" y="-117" font-family="Helvetica,sans-Serif" font-size="10.00">base/forward.h</text>
</a>
</g>
</g>
<!-- Node44&#45;&gt;Node54 -->
<g id="edge39_Node000044_Node000054" class="edge">
<title>Node44&#45;&gt;Node54</title>
<g id="a_edge39_Node000044_Node000054"><a xlink:title=" ">
<path fill="none" stroke="#63b8ff" d="M3231.14,-164.75C3233.26,-157.72 3236.31,-147.62 3238.96,-138.84"/>
<polygon fill="#63b8ff" stroke="#63b8ff" points="3242.37,-139.67 3241.91,-129.09 3235.67,-137.65 3242.37,-139.67"/>
</a>
</g>
</g>
<!-- Node55 -->
<g id="Node000055" class="node">
<title>Node55</title>
<g id="a_Node000055"><a xlink:href="event_8h.html" target="_top" xlink:title=" ">
<polygon fill="white" stroke="#666666" points="3417,-129 3364,-129 3364,-110 3417,-110 3417,-129"/>
<text text-anchor="middle" x="3390.5" y="-117" font-family="Helvetica,sans-Serif" font-size="10.00">event.h</text>
</a>
</g>
</g>
<!-- Node44&#45;&gt;Node55 -->
<g id="edge41_Node000044_Node000055" class="edge">
<title>Node44&#45;&gt;Node55</title>
<g id="a_edge41_Node000044_Node000055"><a xlink:title=" ">
<path fill="none" stroke="#63b8ff" d="M3254.53,-164.98C3281.61,-156.13 3324.21,-142.19 3354.51,-132.28"/>
<polygon fill="#63b8ff" stroke="#63b8ff" points="3355.85,-135.52 3364.27,-129.08 3353.68,-128.87 3355.85,-135.52"/>
</a>
</g>
</g>
<!-- Node45&#45;&gt;Node46 -->
<g id="edge32_Node000045_Node000046" class="edge">
<title>Node45&#45;&gt;Node46</title>
<g id="a_edge32_Node000045_Node000046"><a xlink:title=" ">
<path fill="none" stroke="#63b8ff" d="M3043.95,-109.98C3017.38,-101.13 2975.56,-87.19 2945.83,-77.28"/>
<polygon fill="#63b8ff" stroke="#63b8ff" points="2946.84,-73.92 2936.25,-74.08 2944.63,-80.56 2946.84,-73.92"/>
</a>
</g>
</g>
<!-- Node47 -->
<g id="Node000047" class="node">
<title>Node47</title>
<g id="a_Node000047"><a xlink:title=" ">
<polygon fill="#e0e0e0" stroke="#999999" points="3073.5,-19 3025.5,-19 3025.5,0 3073.5,0 3073.5,-19"/>
<text text-anchor="middle" x="3049.5" y="-7" font-family="Helvetica,sans-Serif" font-size="10.00">iosfwd</text>
</a>
</g>
</g>
<!-- Node45&#45;&gt;Node47 -->
<g id="edge38_Node000045_Node000047" class="edge">
<title>Node45&#45;&gt;Node47</title>
<g id="a_edge38_Node000045_Node000047"><a xlink:title=" ">
<path fill="none" stroke="#63b8ff" d="M3049.3,-109.91C3035.03,-102.64 3016.99,-90.71 3008.5,-74 2999.75,-56.79 3014.6,-38.39 3028.81,-25.85"/>
<polygon fill="#63b8ff" stroke="#63b8ff" points="3031.41,-28.24 3036.92,-19.2 3026.97,-22.83 3031.41,-28.24"/>
</a>
</g>
</g>
<!-- Node45&#45;&gt;Node48 -->
<g id="edge34_Node000045_Node000048" class="edge">
<title>Node45&#45;&gt;Node48</title>
<g id="a_edge34_Node000045_Node000048"><a xlink:title=" ">
<path fill="none" stroke="#63b8ff" d="M3088.46,-109.98C3107.53,-101.42 3137.16,-88.11 3159.05,-78.28"/>
<polygon fill="#63b8ff" stroke="#63b8ff" points="3160.51,-81.46 3168.2,-74.17 3157.64,-75.07 3160.51,-81.46"/>
</a>
</g>
</g>
<!-- Node52 -->
<g id="Node000052" class="node">
<title>Node52</title>
<g id="a_Node000052"><a xlink:href="Stopwatch_8h.html" target="_top" xlink:title=" ">
<polygon fill="#fff0f0" stroke="red" points="3121,-74 3018,-74 3018,-55 3121,-55 3121,-74"/>
<text text-anchor="middle" x="3069.5" y="-62" font-family="Helvetica,sans-Serif" font-size="10.00">base/Stopwatch.h</text>
</a>
</g>
</g>
<!-- Node45&#45;&gt;Node52 -->
<g id="edge37_Node000045_Node000052" class="edge">
<title>Node45&#45;&gt;Node52</title>
<g id="a_edge37_Node000045_Node000052"><a xlink:title=" ">
<path fill="none" stroke="#63b8ff" d="M3069.5,-109.75C3069.5,-102.8 3069.5,-92.85 3069.5,-84.13"/>
<polygon fill="#63b8ff" stroke="#63b8ff" points="3073,-84.09 3069.5,-74.09 3066,-84.09 3073,-84.09"/>
</a>
</g>
</g>
<!-- Node46&#45;&gt;Node47 -->
<g id="edge33_Node000046_Node000047" class="edge">
<title>Node46&#45;&gt;Node47</title>
<g id="a_edge33_Node000046_Node000047"><a xlink:title=" ">
<path fill="none" stroke="#63b8ff" d="M2932.83,-54.98C2955.7,-46.27 2991.46,-32.63 3017.36,-22.75"/>
<polygon fill="#63b8ff" stroke="#63b8ff" points="3018.66,-26 3026.76,-19.17 3016.17,-19.46 3018.66,-26"/>
</a>
</g>
</g>
<!-- Node49 -->
<g id="Node000049" class="node">
<title>Node49</title>
<g id="a_Node000049"><a xlink:href="Lock_8h.html" target="_top" xlink:title=" ">
<polygon fill="white" stroke="#666666" points="3224.5,-19 3150.5,-19 3150.5,0 3224.5,0 3224.5,-19"/>
<text text-anchor="middle" x="3187.5" y="-7" font-family="Helvetica,sans-Serif" font-size="10.00">base/Lock.h</text>
</a>
</g>
</g>
<!-- Node48&#45;&gt;Node49 -->
<g id="edge35_Node000048_Node000049" class="edge">
<title>Node48&#45;&gt;Node49</title>
<g id="a_edge35_Node000048_Node000049"><a xlink:title=" ">
<path fill="none" stroke="#63b8ff" d="M3187.5,-54.75C3187.5,-47.8 3187.5,-37.85 3187.5,-29.13"/>
<polygon fill="#63b8ff" stroke="#63b8ff" points="3191,-29.09 3187.5,-19.09 3184,-29.09 3191,-29.09"/>
</a>
</g>
</g>
<!-- Node50 -->
<g id="Node000050" class="node">
<title>Node50</title>
<g id="a_Node000050"><a xlink:title=" ">
<polygon fill="#e0e0e0" stroke="#999999" points="3474.5,-19 3414.5,-19 3414.5,0 3474.5,0 3474.5,-19"/>
<text text-anchor="middle" x="3444.5" y="-7" font-family="Helvetica,sans-Serif" font-size="10.00">iostream</text>
</a>
</g>
</g>
<!-- Node48&#45;&gt;Node50 -->
<g id="edge36_Node000048_Node000050" class="edge">
<title>Node48&#45;&gt;Node50</title>
<g id="a_edge36_Node000048_Node000050"><a xlink:title=" ">
<path fill="none" stroke="#63b8ff" d="M3228.79,-54.98C3277.04,-45.03 3356.35,-28.68 3404.18,-18.82"/>
<polygon fill="#63b8ff" stroke="#63b8ff" points="3405.09,-22.2 3414.17,-16.75 3403.67,-15.35 3405.09,-22.2"/>
</a>
</g>
</g>
<!-- Node56 -->
<g id="Node000056" class="node">
<title>Node56</title>
<g id="a_Node000056"><a xlink:href="AsyncEngine_8h.html" target="_top" xlink:title=" ">
<polygon fill="white" stroke="#666666" points="3342.5,-74 3254.5,-74 3254.5,-55 3342.5,-55 3342.5,-74"/>
<text text-anchor="middle" x="3298.5" y="-62" font-family="Helvetica,sans-Serif" font-size="10.00">AsyncEngine.h</text>
</a>
</g>
</g>
<!-- Node55&#45;&gt;Node56 -->
<g id="edge42_Node000055_Node000056" class="edge">
<title>Node55&#45;&gt;Node56</title>
<g id="a_edge42_Node000055_Node000056"><a xlink:title=" ">
<path fill="none" stroke="#63b8ff" d="M3375.72,-109.98C3361.32,-101.69 3339.19,-88.94 3322.31,-79.22"/>
<polygon fill="#63b8ff" stroke="#63b8ff" points="3323.96,-76.13 3313.55,-74.17 3320.47,-82.19 3323.96,-76.13"/>
</a>
</g>
</g>
<!-- Node57 -->
<g id="Node000057" class="node">
<title>Node57</title>
<g id="a_Node000057"><a xlink:href="Packable_8h.html" target="_top" xlink:title=" ">
<polygon fill="white" stroke="#666666" points="3456,-74 3361,-74 3361,-55 3456,-55 3456,-74"/>
<text text-anchor="middle" x="3408.5" y="-62" font-family="Helvetica,sans-Serif" font-size="10.00">base/Packable.h</text>
</a>
</g>
</g>
<!-- Node55&#45;&gt;Node57 -->
<g id="edge43_Node000055_Node000057" class="edge">
<title>Node55&#45;&gt;Node57</title>
<g id="a_edge43_Node000055_Node000057"><a xlink:title=" ">
<path fill="none" stroke="#63b8ff" d="M3393.47,-109.75C3395.86,-102.72 3399.29,-92.62 3402.27,-83.84"/>
<polygon fill="#63b8ff" stroke="#63b8ff" points="3405.68,-84.68 3405.58,-74.09 3399.05,-82.43 3405.68,-84.68"/>
</a>
</g>
</g>
<!-- Node58 -->
<g id="Node000058" class="node">
<title>Node58</title>
<g id="a_Node000058"><a xlink:href="mem_2forward_8h.html" target="_top" xlink:title=" ">
<polygon fill="white" stroke="#666666" points="3566.5,-74 3474.5,-74 3474.5,-55 3566.5,-55 3566.5,-74"/>
<text text-anchor="middle" x="3520.5" y="-62" font-family="Helvetica,sans-Serif" font-size="10.00">mem/forward.h</text>
</a>
</g>
</g>
<!-- Node55&#45;&gt;Node58 -->
<g id="edge44_Node000055_Node000058" class="edge">
<title>Node55&#45;&gt;Node58</title>
<g id="a_edge44_Node000055_Node000058"><a xlink:title=" ">
<path fill="none" stroke="#63b8ff" d="M3411.39,-109.98C3432.58,-101.34 3465.63,-87.87 3489.8,-78.02"/>
<polygon fill="#63b8ff" stroke="#63b8ff" points="3491.29,-81.19 3499.23,-74.17 3488.65,-74.7 3491.29,-81.19"/>
</a>
</g>
</g>
<!-- Node58&#45;&gt;Node47 -->
<g id="edge46_Node000058_Node000047" class="edge">
<title>Node58&#45;&gt;Node47</title>
<g id="a_edge46_Node000058_Node000047"><a xlink:title=" ">
<path fill="none" stroke="#63b8ff" d="M3474.31,-56.2C3471.33,-55.78 3468.37,-55.38 3465.5,-55 3324.38,-36.56 3155.58,-20.28 3084.14,-13.65"/>
<polygon fill="#63b8ff" stroke="#63b8ff" points="3084.21,-10.14 3073.93,-12.71 3083.57,-17.11 3084.21,-10.14"/>
</a>
</g>
</g>
<!-- Node59 -->
<g id="Node000059" class="node">
<title>Node59</title>
<g id="a_Node000059"><a xlink:href="AllocatorProxy_8h.html" target="_top" xlink:title=" ">
<polygon fill="white" stroke="#666666" points="3685.5,-19 3561.5,-19 3561.5,0 3685.5,0 3685.5,-19"/>
<text text-anchor="middle" x="3623.5" y="-7" font-family="Helvetica,sans-Serif" font-size="10.00">mem/AllocatorProxy.h</text>
</a>
</g>
</g>
<!-- Node58&#45;&gt;Node59 -->
<g id="edge45_Node000058_Node000059" class="edge">
<title>Node58&#45;&gt;Node59</title>
<g id="a_edge45_Node000058_Node000059"><a xlink:title=" ">
<path fill="none" stroke="#63b8ff" d="M3537.05,-54.98C3553.39,-46.57 3578.63,-33.59 3597.63,-23.81"/>
<polygon fill="#63b8ff" stroke="#63b8ff" points="3599.36,-26.86 3606.65,-19.17 3596.16,-20.63 3599.36,-26.86"/>
</a>
</g>
</g>
<!-- Node61 -->
<g id="Node000061" class="node">
<title>Node61</title>
<g id="a_Node000061"><a xlink:href="AsyncCallList_8h.html" target="_top" xlink:title=" ">
<polygon fill="white" stroke="#666666" points="3376,-239 3259,-239 3259,-220 3376,-220 3376,-239"/>
<text text-anchor="middle" x="3317.5" y="-227" font-family="Helvetica,sans-Serif" font-size="10.00">base/AsyncCallList.h</text>
</a>
</g>
</g>
<!-- Node60&#45;&gt;Node61 -->
<g id="edge49_Node000060_Node000061" class="edge">
<title>Node60&#45;&gt;Node61</title>
<g id="a_edge49_Node000060_Node000061"><a xlink:title=" ">
<path fill="none" stroke="#63b8ff" d="M3322.51,-274.75C3321.72,-267.8 3320.6,-257.85 3319.61,-249.13"/>
<polygon fill="#63b8ff" stroke="#63b8ff" points="3323.08,-248.63 3318.47,-239.09 3316.12,-249.42 3323.08,-248.63"/>
</a>
</g>
</g>
<!-- Node61&#45;&gt;Node44 -->
<g id="edge50_Node000061_Node000044" class="edge">
<title>Node61&#45;&gt;Node44</title>
<g id="a_edge50_Node000061_Node000044"><a xlink:title=" ">
<path fill="none" stroke="#63b8ff" d="M3303.2,-219.98C3289.4,-211.77 3268.26,-199.18 3251.99,-189.49"/>
<polygon fill="#63b8ff" stroke="#63b8ff" points="3253.44,-186.28 3243.06,-184.17 3249.86,-192.29 3253.44,-186.28"/>
</a>
</g>
</g>
<!-- Node61&#45;&gt;Node48 -->
<g id="edge51_Node000061_Node000048" class="edge">
<title>Node61&#45;&gt;Node48</title>
<g id="a_edge51_Node000061_Node000048"><a xlink:title=" ">
<path fill="none" stroke="#63b8ff" d="M3318.66,-219.93C3321.03,-198.73 3324.16,-143.18 3297.5,-110 3284.59,-93.93 3264.96,-83.62 3245.83,-77.03"/>
<polygon fill="#63b8ff" stroke="#63b8ff" points="3246.81,-73.66 3236.22,-73.99 3244.7,-80.34 3246.81,-73.66"/>
</a>
</g>
</g>
<!-- Node62&#45;&gt;Node50 -->
<g id="edge56_Node000062_Node000050" class="edge">
<title>Node62&#45;&gt;Node50</title>
<g id="a_edge56_Node000062_Node000050"><a xlink:title=" ">
<path fill="none" stroke="#63b8ff" d="M3704.91,-109.94C3700.25,-96.04 3689.04,-68.76 3669.5,-55 3640.23,-34.39 3541.08,-20.78 3484.65,-14.5"/>
<polygon fill="#63b8ff" stroke="#63b8ff" points="3484.96,-11.02 3474.64,-13.42 3484.2,-17.97 3484.96,-11.02"/>
</a>
</g>
</g>
<!-- Node62&#45;&gt;Node59 -->
<g id="edge55_Node000062_Node000059" class="edge">
<title>Node62&#45;&gt;Node59</title>
<g id="a_edge55_Node000062_Node000059"><a xlink:title=" ">
<path fill="none" stroke="#63b8ff" d="M3709.2,-109.9C3711.29,-96.9 3713.33,-71.96 3702.5,-55 3693.1,-40.28 3677.01,-29.96 3661.79,-22.99"/>
<polygon fill="#63b8ff" stroke="#63b8ff" points="3663.07,-19.73 3652.49,-19.07 3660.35,-26.18 3663.07,-19.73"/>
</a>
</g>
</g>
<!-- Node63 -->
<g id="Node000063" class="node">
<title>Node63</title>
<g id="a_Node000063"><a xlink:href="Here_8h.html" target="_top" xlink:title=" ">
<polygon fill="white" stroke="#666666" points="3660,-74 3585,-74 3585,-55 3660,-55 3660,-74"/>
<text text-anchor="middle" x="3622.5" y="-62" font-family="Helvetica,sans-Serif" font-size="10.00">base/Here.h</text>
</a>
</g>
</g>
<!-- Node62&#45;&gt;Node63 -->
<g id="edge53_Node000062_Node000063" class="edge">
<title>Node62&#45;&gt;Node63</title>
<g id="a_edge53_Node000062_Node000063"><a xlink:title=" ">
<path fill="none" stroke="#63b8ff" d="M3693.84,-109.98C3680.66,-101.77 3660.47,-89.18 3644.93,-79.49"/>
<polygon fill="#63b8ff" stroke="#63b8ff" points="3646.74,-76.49 3636.41,-74.17 3643.04,-82.43 3646.74,-76.49"/>
</a>
</g>
</g>
<!-- Node64 -->
<g id="Node000064" class="node">
<title>Node64</title>
<g id="a_Node000064"><a xlink:title=" ">
<polygon fill="#e0e0e0" stroke="#999999" points="3810.5,-74 3754.5,-74 3754.5,-55 3810.5,-55 3810.5,-74"/>
<text text-anchor="middle" x="3782.5" y="-62" font-family="Helvetica,sans-Serif" font-size="10.00">sstream</text>
</a>
</g>
</g>
<!-- Node62&#45;&gt;Node64 -->
<g id="edge57_Node000062_Node000064" class="edge">
<title>Node62&#45;&gt;Node64</title>
<g id="a_edge57_Node000062_Node000064"><a xlink:title=" ">
<path fill="none" stroke="#63b8ff" d="M3719.55,-109.98C3730.96,-101.92 3748.33,-89.65 3761.93,-80.03"/>
<polygon fill="#63b8ff" stroke="#63b8ff" points="3764.08,-82.8 3770.23,-74.17 3760.04,-77.08 3764.08,-82.8"/>
</a>
</g>
</g>
<!-- Node65 -->
<g id="Node000065" class="node">
<title>Node65</title>
<g id="a_Node000065"><a xlink:title=" ">
<polygon fill="#e0e0e0" stroke="#999999" points="3884.5,-74 3828.5,-74 3828.5,-55 3884.5,-55 3884.5,-74"/>
<text text-anchor="middle" x="3856.5" y="-62" font-family="Helvetica,sans-Serif" font-size="10.00">iomanip</text>
</a>
</g>
</g>
<!-- Node62&#45;&gt;Node65 -->
<g id="edge58_Node000062_Node000065" class="edge">
<title>Node62&#45;&gt;Node65</title>
<g id="a_edge58_Node000062_Node000065"><a xlink:title=" ">
<path fill="none" stroke="#63b8ff" d="M3731.44,-109.98C3756.06,-101.23 3794.62,-87.51 3822.42,-77.62"/>
<polygon fill="#63b8ff" stroke="#63b8ff" points="3823.88,-80.82 3832.12,-74.17 3821.53,-74.22 3823.88,-80.82"/>
</a>
</g>
</g>
<!-- Node63&#45;&gt;Node47 -->
<g id="edge54_Node000063_Node000047" class="edge">
<title>Node63&#45;&gt;Node47</title>
<g id="a_edge54_Node000063_Node000047"><a xlink:title=" ">
<path fill="none" stroke="#63b8ff" d="M3584.84,-56.36C3581.69,-55.86 3578.54,-55.4 3575.5,-55 3383.6,-29.75 3334.31,-35.9 3141.5,-19 3122.45,-17.33 3101.18,-15.37 3083.9,-13.76"/>
<polygon fill="#63b8ff" stroke="#63b8ff" points="3083.99,-10.25 3073.71,-12.8 3083.34,-17.22 3083.99,-10.25"/>
</a>
</g>
</g>
</g>
</svg>

<g id="navigator" transform="translate(0 0)" fill="#404254">
  <rect fill="#f2f5e9" fill-opacity="0.5" stroke="#606060" stroke-width=".5" x="0" y="0" width="60" height="60"/>
  <use id="zoomplus" xlink:href="#zoomPlus" x="17" y="9" onmousedown="handleZoom(evt,'in')"/>
  <use id="zoomminus" xlink:href="#zoomMin" x="42" y="9" onmousedown="handleZoom(evt,'out')"/>
  <use id="reset" xlink:href="#resetDef" x="30" y="36" onmousedown="handleReset()"/>
   <use id="arrowup" xlink:href="#arrowUp" x="0" y="0" onmousedown="handlePan(0,-1)"/>
  <use id="arrowright" xlink:href="#arrowRight" x="0" y="0" onmousedown="handlePan(1,0)"/>
  <use id="arrowdown" xlink:href="#arrowDown" x="0" y="0" onmousedown="handlePan(0,1)"/>
  <use id="arrowleft" xlink:href="#arrowLeft" x="0" y="0" onmousedown="handlePan(-1,0)"/>
</g>
<svg viewBox="0 0 15 15" width="100%" height="30px" preserveAspectRatio="xMaxYMin meet">
 <g id="arrow_out" transform="scale(0.3 0.3)">
  <a xlink:href="DelayedAsyncCalls_8cc__incl_org.svg" target="_base">
   <rect id="button" ry="5" rx="5" y="6" x="6" height="38" width="38"
        fill="#f2f5e9" fill-opacity="0.5" stroke="#606060" stroke-width="1.0"/>
   <path id="arrow"
     d="M 11.500037,31.436501 C 11.940474,20.09759 22.043105,11.32322 32.158766,21.979434 L 37.068811,17.246167 C 37.068811,17.246167 37.088388,32 37.088388,32 L 22.160133,31.978069 C 22.160133,31.978069 26.997745,27.140456 26.997745,27.140456 C 18.528582,18.264221 13.291696,25.230495 11.500037,31.436501 z"
     style="fill:#404040;"/>
  </a>
 </g>
</svg>

<style type='text/css'>
<![CDATA[
[data-mouse-over-selected='false'] { opacity: 0.7; }
[data-mouse-over-selected='true']  { opacity: 1.0; }
]]>
</style>
<script type="application/ecmascript"><![CDATA[
document.addEventListener('DOMContentLoaded', (event) => {
  highlightEdges();
  highlightAdjacentNodes();
});
]]></script>
</svg>
