<?xml version="1.0" encoding="UTF-8" standalone="no"?>
<!DOCTYPE svg PUBLIC "-//W3C//DTD SVG 1.1//EN"
 "http://www.w3.org/Graphics/SVG/1.1/DTD/svg11.dtd">
<!-- Generated by graphviz version 2.43.0 (0)
 -->
<!-- Title: squid/src/auth/digest/file/digest_file_auth.cc Pages: 1 -->
<svg width="3499pt" height="280pt"
 viewBox="0.00 0.00 3498.50 280.00" xmlns="http://www.w3.org/2000/svg" xmlns:xlink="http://www.w3.org/1999/xlink">
<g id="graph0" class="graph" transform="scale(1 1) rotate(0) translate(4 276)">
<title>squid/src/auth/digest/file/digest_file_auth.cc</title>
<!-- Node1 -->
<g id="Node000001" class="node">
<title>Node1</title>
<g id="a_Node000001"><a xlink:title=" ">
<polygon fill="#999999" stroke="#666666" points="3298.5,-272 3170.5,-272 3170.5,-242 3298.5,-242 3298.5,-272"/>
<text text-anchor="start" x="3178.5" y="-260" font-family="Helvetica,sans-Serif" font-size="10.00">squid/src/auth/digest</text>
<text text-anchor="middle" x="3234.5" y="-249" font-family="Helvetica,sans-Serif" font-size="10.00">/file/digest_file_auth.cc</text>
</a>
</g>
</g>
<!-- Node2 -->
<g id="Node000002" class="node">
<title>Node2</title>
<g id="a_Node000002"><a xlink:href="squid_8h.html" target="_top" xlink:title=" ">
<polygon fill="white" stroke="#666666" points="1653.5,-200.5 1601.5,-200.5 1601.5,-181.5 1653.5,-181.5 1653.5,-200.5"/>
<text text-anchor="middle" x="1627.5" y="-188.5" font-family="Helvetica,sans-Serif" font-size="10.00">squid.h</text>
</a>
</g>
</g>
<!-- Node1&#45;&gt;Node2 -->
<g id="edge1_Node000001_Node000002" class="edge">
<title>Node1&#45;&gt;Node2</title>
<g id="a_edge1_Node000001_Node000002"><a xlink:title=" ">
<path fill="none" stroke="#63b8ff" d="M3170.01,-253.43C2900.69,-242.71 1870.2,-201.67 1663.66,-193.44"/>
<polygon fill="#63b8ff" stroke="#63b8ff" points="1663.78,-189.94 1653.65,-193.04 1663.5,-196.94 1663.78,-189.94"/>
</a>
</g>
</g>
<!-- Node44 -->
<g id="Node000044" class="node">
<title>Node44</title>
<g id="a_Node000044"><a xlink:href="file_2digest__common_8h.html" target="_top" xlink:title=" ">
<polygon fill="white" stroke="#666666" points="3337.5,-140 3215.5,-140 3215.5,-110 3337.5,-110 3337.5,-140"/>
<text text-anchor="start" x="3223.5" y="-128" font-family="Helvetica,sans-Serif" font-size="10.00">auth/digest/file/digest</text>
<text text-anchor="middle" x="3276.5" y="-117" font-family="Helvetica,sans-Serif" font-size="10.00">_common.h</text>
</a>
</g>
</g>
<!-- Node1&#45;&gt;Node44 -->
<g id="edge42_Node000001_Node000044" class="edge">
<title>Node1&#45;&gt;Node44</title>
<g id="a_edge42_Node000001_Node000044"><a xlink:title=" ">
<path fill="none" stroke="#63b8ff" d="M3224.41,-241.86C3214.03,-225.43 3200.77,-197.78 3211.5,-176 3217.56,-163.68 3228.28,-153.55 3239.29,-145.71"/>
<polygon fill="#63b8ff" stroke="#63b8ff" points="3241.27,-148.59 3247.69,-140.16 3237.41,-142.75 3241.27,-148.59"/>
</a>
</g>
</g>
<!-- Node49 -->
<g id="Node000049" class="node">
<title>Node49</title>
<g id="a_Node000049"><a xlink:href="text__backend_8h.html" target="_top" xlink:title=" ">
<polygon fill="white" stroke="#666666" points="3332.5,-206 3220.5,-206 3220.5,-176 3332.5,-176 3332.5,-206"/>
<text text-anchor="start" x="3228.5" y="-194" font-family="Helvetica,sans-Serif" font-size="10.00">auth/digest/file/text</text>
<text text-anchor="middle" x="3276.5" y="-183" font-family="Helvetica,sans-Serif" font-size="10.00">_backend.h</text>
</a>
</g>
</g>
<!-- Node1&#45;&gt;Node49 -->
<g id="edge47_Node000001_Node000049" class="edge">
<title>Node1&#45;&gt;Node49</title>
<g id="a_edge47_Node000001_Node000049"><a xlink:title=" ">
<path fill="none" stroke="#63b8ff" d="M3243.82,-241.8C3249.04,-233.84 3255.67,-223.74 3261.6,-214.71"/>
<polygon fill="#63b8ff" stroke="#63b8ff" points="3264.64,-216.44 3267.2,-206.16 3258.79,-212.6 3264.64,-216.44"/>
</a>
</g>
</g>
<!-- Node50 -->
<g id="Node000050" class="node">
<title>Node50</title>
<g id="a_Node000050"><a xlink:href="protocol__defines_8h.html" target="_top" xlink:title=" ">
<polygon fill="white" stroke="#666666" points="3490.5,-200.5 3350.5,-200.5 3350.5,-181.5 3490.5,-181.5 3490.5,-200.5"/>
<text text-anchor="middle" x="3420.5" y="-188.5" font-family="Helvetica,sans-Serif" font-size="10.00">helper/protocol_defines.h</text>
</a>
</g>
</g>
<!-- Node1&#45;&gt;Node50 -->
<g id="edge49_Node000001_Node000050" class="edge">
<title>Node1&#45;&gt;Node50</title>
<g id="a_edge49_Node000001_Node000050"><a xlink:title=" ">
<path fill="none" stroke="#63b8ff" d="M3275.32,-241.95C3308.51,-230.53 3354.82,-214.6 3386.14,-203.82"/>
<polygon fill="#63b8ff" stroke="#63b8ff" points="3387.43,-207.08 3395.75,-200.52 3385.15,-200.46 3387.43,-207.08"/>
</a>
</g>
</g>
<!-- Node3 -->
<g id="Node000003" class="node">
<title>Node3</title>
<g id="a_Node000003"><a xlink:href="autoconf_8h.html" target="_top" xlink:title=" ">
<polygon fill="white" stroke="#666666" points="1528.5,-134.5 1460.5,-134.5 1460.5,-115.5 1528.5,-115.5 1528.5,-134.5"/>
<text text-anchor="middle" x="1494.5" y="-122.5" font-family="Helvetica,sans-Serif" font-size="10.00">autoconf.h</text>
</a>
</g>
</g>
<!-- Node2&#45;&gt;Node3 -->
<g id="edge2_Node000002_Node000003" class="edge">
<title>Node2&#45;&gt;Node3</title>
<g id="a_edge2_Node000002_Node000003"><a xlink:title=" ">
<path fill="none" stroke="#63b8ff" d="M1609.56,-181.37C1586.96,-170.49 1547.88,-151.69 1521.62,-139.05"/>
<polygon fill="#63b8ff" stroke="#63b8ff" points="1523.11,-135.88 1512.58,-134.7 1520.07,-142.19 1523.11,-135.88"/>
</a>
</g>
</g>
<!-- Node4 -->
<g id="Node000004" class="node">
<title>Node4</title>
<g id="a_Node000004"><a xlink:href="version_8h.html" target="_top" xlink:title=" ">
<polygon fill="white" stroke="#666666" points="1608.5,-134.5 1546.5,-134.5 1546.5,-115.5 1608.5,-115.5 1608.5,-134.5"/>
<text text-anchor="middle" x="1577.5" y="-122.5" font-family="Helvetica,sans-Serif" font-size="10.00">version.h</text>
</a>
</g>
</g>
<!-- Node2&#45;&gt;Node4 -->
<g id="edge3_Node000002_Node000004" class="edge">
<title>Node2&#45;&gt;Node4</title>
<g id="a_edge3_Node000002_Node000004"><a xlink:title=" ">
<path fill="none" stroke="#63b8ff" d="M1620.76,-181.37C1613.12,-171.59 1600.49,-155.42 1590.84,-143.08"/>
<polygon fill="#63b8ff" stroke="#63b8ff" points="1593.37,-140.63 1584.46,-134.91 1587.86,-144.94 1593.37,-140.63"/>
</a>
</g>
</g>
<!-- Node5 -->
<g id="Node000005" class="node">
<title>Node5</title>
<g id="a_Node000005"><a xlink:href="compat_8h.html" target="_top" xlink:title=" ">
<polygon fill="white" stroke="#666666" points="1728.5,-134.5 1626.5,-134.5 1626.5,-115.5 1728.5,-115.5 1728.5,-134.5"/>
<text text-anchor="middle" x="1677.5" y="-122.5" font-family="Helvetica,sans-Serif" font-size="10.00">compat/compat.h</text>
</a>
</g>
</g>
<!-- Node2&#45;&gt;Node5 -->
<g id="edge4_Node000002_Node000005" class="edge">
<title>Node2&#45;&gt;Node5</title>
<g id="a_edge4_Node000002_Node000005"><a xlink:title=" ">
<path fill="none" stroke="#63b8ff" d="M1634.24,-181.37C1641.88,-171.59 1654.51,-155.42 1664.16,-143.08"/>
<polygon fill="#63b8ff" stroke="#63b8ff" points="1667.14,-144.94 1670.54,-134.91 1661.63,-140.63 1667.14,-144.94"/>
</a>
</g>
</g>
<!-- Node6 -->
<g id="Node000006" class="node">
<title>Node6</title>
<g id="a_Node000006"><a xlink:href="osdetect_8h.html" target="_top" xlink:title=" ">
<polygon fill="white" stroke="#666666" points="107,-74 0,-74 0,-55 107,-55 107,-74"/>
<text text-anchor="middle" x="53.5" y="-62" font-family="Helvetica,sans-Serif" font-size="10.00">compat/osdetect.h</text>
</a>
</g>
</g>
<!-- Node5&#45;&gt;Node6 -->
<g id="edge5_Node000005_Node000006" class="edge">
<title>Node5&#45;&gt;Node6</title>
<g id="a_edge5_Node000005_Node000006"><a xlink:title=" ">
<path fill="none" stroke="#63b8ff" d="M1646.27,-115.43C1637.07,-113.26 1626.94,-111.2 1617.5,-110 958.93,-26.17 783.51,-125.66 117.41,-73.95"/>
<polygon fill="#63b8ff" stroke="#63b8ff" points="117.32,-70.43 107.07,-73.14 116.77,-77.41 117.32,-70.43"/>
</a>
</g>
</g>
<!-- Node7 -->
<g id="Node000007" class="node">
<title>Node7</title>
<g id="a_Node000007"><a xlink:href="fdsetsize_8h.html" target="_top" xlink:title=" ">
<polygon fill="white" stroke="#666666" points="235.5,-74 125.5,-74 125.5,-55 235.5,-55 235.5,-74"/>
<text text-anchor="middle" x="180.5" y="-62" font-family="Helvetica,sans-Serif" font-size="10.00">compat/fdsetsize.h</text>
</a>
</g>
</g>
<!-- Node5&#45;&gt;Node7 -->
<g id="edge6_Node000005_Node000007" class="edge">
<title>Node5&#45;&gt;Node7</title>
<g id="a_edge6_Node000005_Node000007"><a xlink:title=" ">
<path fill="none" stroke="#63b8ff" d="M1646.27,-115.45C1637.07,-113.27 1626.94,-111.21 1617.5,-110 1015.44,-32.68 854.82,-121.25 245.98,-74.01"/>
<polygon fill="#63b8ff" stroke="#63b8ff" points="245.86,-70.49 235.62,-73.2 245.31,-77.47 245.86,-70.49"/>
</a>
</g>
</g>
<!-- Node8 -->
<g id="Node000008" class="node">
<title>Node8</title>
<g id="a_Node000008"><a xlink:href="types_8h.html" target="_top" xlink:title=" ">
<polygon fill="white" stroke="#666666" points="345.5,-74 253.5,-74 253.5,-55 345.5,-55 345.5,-74"/>
<text text-anchor="middle" x="299.5" y="-62" font-family="Helvetica,sans-Serif" font-size="10.00">compat/types.h</text>
</a>
</g>
</g>
<!-- Node5&#45;&gt;Node8 -->
<g id="edge7_Node000005_Node000008" class="edge">
<title>Node5&#45;&gt;Node8</title>
<g id="a_edge7_Node000005_Node000008"><a xlink:title=" ">
<path fill="none" stroke="#63b8ff" d="M1646.27,-115.46C1637.07,-113.29 1626.94,-111.22 1617.5,-110 1063.99,-38.28 915.55,-123.93 356.02,-74"/>
<polygon fill="#63b8ff" stroke="#63b8ff" points="355.94,-70.48 345.66,-73.06 355.31,-77.45 355.94,-70.48"/>
</a>
</g>
</g>
<!-- Node10 -->
<g id="Node000010" class="node">
<title>Node10</title>
<g id="a_Node000010"><a xlink:href="aix_8h.html" target="_top" xlink:title=" ">
<polygon fill="white" stroke="#666666" points="459,-74 364,-74 364,-55 459,-55 459,-74"/>
<text text-anchor="middle" x="411.5" y="-62" font-family="Helvetica,sans-Serif" font-size="10.00">compat/os/aix.h</text>
</a>
</g>
</g>
<!-- Node5&#45;&gt;Node10 -->
<g id="edge9_Node000005_Node000010" class="edge">
<title>Node5&#45;&gt;Node10</title>
<g id="a_edge9_Node000005_Node000010"><a xlink:title=" ">
<path fill="none" stroke="#63b8ff" d="M1646.26,-115.48C1637.07,-113.31 1626.94,-111.24 1617.5,-110 1114.25,-44.07 979.14,-118.76 469.24,-73.92"/>
<polygon fill="#63b8ff" stroke="#63b8ff" points="469.31,-70.41 459.04,-73.01 468.69,-77.39 469.31,-70.41"/>
</a>
</g>
</g>
<!-- Node11 -->
<g id="Node000011" class="node">
<title>Node11</title>
<g id="a_Node000011"><a xlink:href="android_8h.html" target="_top" xlink:title=" ">
<polygon fill="white" stroke="#666666" points="593.5,-74 477.5,-74 477.5,-55 593.5,-55 593.5,-74"/>
<text text-anchor="middle" x="535.5" y="-62" font-family="Helvetica,sans-Serif" font-size="10.00">compat/os/android.h</text>
</a>
</g>
</g>
<!-- Node5&#45;&gt;Node11 -->
<g id="edge10_Node000005_Node000011" class="edge">
<title>Node5&#45;&gt;Node11</title>
<g id="a_edge10_Node000005_Node000011"><a xlink:title=" ">
<path fill="none" stroke="#63b8ff" d="M1645.95,-115.43C1636.84,-113.28 1626.83,-111.24 1617.5,-110 1173.33,-50.87 1054.16,-109.57 603.6,-74"/>
<polygon fill="#63b8ff" stroke="#63b8ff" points="603.82,-70.5 593.57,-73.19 603.26,-77.48 603.82,-70.5"/>
</a>
</g>
</g>
<!-- Node12 -->
<g id="Node000012" class="node">
<title>Node12</title>
<g id="a_Node000012"><a xlink:href="dragonfly_8h.html" target="_top" xlink:title=" ">
<polygon fill="white" stroke="#666666" points="735.5,-74 611.5,-74 611.5,-55 735.5,-55 735.5,-74"/>
<text text-anchor="middle" x="673.5" y="-62" font-family="Helvetica,sans-Serif" font-size="10.00">compat/os/dragonfly.h</text>
</a>
</g>
</g>
<!-- Node5&#45;&gt;Node12 -->
<g id="edge11_Node000005_Node000012" class="edge">
<title>Node5&#45;&gt;Node12</title>
<g id="a_edge11_Node000005_Node000012"><a xlink:title=" ">
<path fill="none" stroke="#63b8ff" d="M1645.95,-115.47C1636.83,-113.32 1626.83,-111.27 1617.5,-110 1236,-58.1 1133.33,-104.3 745.89,-74.04"/>
<polygon fill="#63b8ff" stroke="#63b8ff" points="746.06,-70.54 735.81,-73.24 745.5,-77.52 746.06,-70.54"/>
</a>
</g>
</g>
<!-- Node13 -->
<g id="Node000013" class="node">
<title>Node13</title>
<g id="a_Node000013"><a xlink:href="freebsd_8h.html" target="_top" xlink:title=" ">
<polygon fill="white" stroke="#666666" points="869.5,-74 753.5,-74 753.5,-55 869.5,-55 869.5,-74"/>
<text text-anchor="middle" x="811.5" y="-62" font-family="Helvetica,sans-Serif" font-size="10.00">compat/os/freebsd.h</text>
</a>
</g>
</g>
<!-- Node5&#45;&gt;Node13 -->
<g id="edge12_Node000005_Node000013" class="edge">
<title>Node5&#45;&gt;Node13</title>
<g id="a_edge12_Node000005_Node000013"><a xlink:title=" ">
<path fill="none" stroke="#63b8ff" d="M1645.63,-115.44C1636.6,-113.32 1626.72,-111.29 1617.5,-110 1295.17,-64.92 1207.86,-101.94 879.85,-74.04"/>
<polygon fill="#63b8ff" stroke="#63b8ff" points="879.84,-70.52 869.58,-73.15 879.24,-77.5 879.84,-70.52"/>
</a>
</g>
</g>
<!-- Node14 -->
<g id="Node000014" class="node">
<title>Node14</title>
<g id="a_Node000014"><a xlink:href="hpux_8h.html" target="_top" xlink:title=" ">
<polygon fill="white" stroke="#666666" points="991.5,-74 887.5,-74 887.5,-55 991.5,-55 991.5,-74"/>
<text text-anchor="middle" x="939.5" y="-62" font-family="Helvetica,sans-Serif" font-size="10.00">compat/os/hpux.h</text>
</a>
</g>
</g>
<!-- Node5&#45;&gt;Node14 -->
<g id="edge13_Node000005_Node000014" class="edge">
<title>Node5&#45;&gt;Node14</title>
<g id="a_edge13_Node000005_Node000014"><a xlink:title=" ">
<path fill="none" stroke="#63b8ff" d="M1645.62,-115.49C1636.59,-113.38 1626.71,-111.33 1617.5,-110 1348.96,-71.13 1275.64,-100.25 1001.95,-74.05"/>
<polygon fill="#63b8ff" stroke="#63b8ff" points="1002,-70.54 991.71,-73.06 1001.32,-77.51 1002,-70.54"/>
</a>
</g>
</g>
<!-- Node15 -->
<g id="Node000015" class="node">
<title>Node15</title>
<g id="a_Node000015"><a xlink:href="linux_8h.html" target="_top" xlink:title=" ">
<polygon fill="white" stroke="#666666" points="1113.5,-74 1009.5,-74 1009.5,-55 1113.5,-55 1113.5,-74"/>
<text text-anchor="middle" x="1061.5" y="-62" font-family="Helvetica,sans-Serif" font-size="10.00">compat/os/linux.h</text>
</a>
</g>
</g>
<!-- Node5&#45;&gt;Node15 -->
<g id="edge14_Node000005_Node000015" class="edge">
<title>Node5&#45;&gt;Node15</title>
<g id="a_edge14_Node000005_Node000015"><a xlink:title=" ">
<path fill="none" stroke="#63b8ff" d="M1644.98,-115.44C1636.12,-113.37 1626.49,-111.37 1617.5,-110 1402.73,-77.34 1343.63,-96.63 1123.96,-74.08"/>
<polygon fill="#63b8ff" stroke="#63b8ff" points="1124.03,-70.56 1113.72,-73.01 1123.3,-77.53 1124.03,-70.56"/>
</a>
</g>
</g>
<!-- Node16 -->
<g id="Node000016" class="node">
<title>Node16</title>
<g id="a_Node000016"><a xlink:href="macosx_8h.html" target="_top" xlink:title=" ">
<polygon fill="white" stroke="#666666" points="1249.5,-74 1131.5,-74 1131.5,-55 1249.5,-55 1249.5,-74"/>
<text text-anchor="middle" x="1190.5" y="-62" font-family="Helvetica,sans-Serif" font-size="10.00">compat/os/macosx.h</text>
</a>
</g>
</g>
<!-- Node5&#45;&gt;Node16 -->
<g id="edge15_Node000005_Node000016" class="edge">
<title>Node5&#45;&gt;Node16</title>
<g id="a_edge15_Node000005_Node000016"><a xlink:title=" ">
<path fill="none" stroke="#63b8ff" d="M1644.33,-115.45C1635.64,-113.44 1626.26,-111.45 1617.5,-110 1462.56,-84.27 1419.6,-91.62 1260.01,-74.13"/>
<polygon fill="#63b8ff" stroke="#63b8ff" points="1260.15,-70.63 1249.83,-73 1259.38,-77.59 1260.15,-70.63"/>
</a>
</g>
</g>
<!-- Node17 -->
<g id="Node000017" class="node">
<title>Node17</title>
<g id="a_Node000017"><a xlink:href="mingw_8h.html" target="_top" xlink:title=" ">
<polygon fill="white" stroke="#666666" points="1379.5,-74 1267.5,-74 1267.5,-55 1379.5,-55 1379.5,-74"/>
<text text-anchor="middle" x="1323.5" y="-62" font-family="Helvetica,sans-Serif" font-size="10.00">compat/os/mingw.h</text>
</a>
</g>
</g>
<!-- Node5&#45;&gt;Node17 -->
<g id="edge16_Node000005_Node000017" class="edge">
<title>Node5&#45;&gt;Node17</title>
<g id="a_edge16_Node000005_Node000017"><a xlink:title=" ">
<path fill="none" stroke="#63b8ff" d="M1643.02,-115.46C1634.69,-113.54 1625.8,-111.59 1617.5,-110 1575.07,-101.85 1462.45,-85.34 1389.55,-74.88"/>
<polygon fill="#63b8ff" stroke="#63b8ff" points="1389.94,-71.4 1379.54,-73.44 1388.94,-78.33 1389.94,-71.4"/>
</a>
</g>
</g>
<!-- Node18 -->
<g id="Node000018" class="node">
<title>Node18</title>
<g id="a_Node000018"><a xlink:href="mswindows_8h.html" target="_top" xlink:title=" ">
<polygon fill="white" stroke="#666666" points="1535,-74 1398,-74 1398,-55 1535,-55 1535,-74"/>
<text text-anchor="middle" x="1466.5" y="-62" font-family="Helvetica,sans-Serif" font-size="10.00">compat/os/mswindows.h</text>
</a>
</g>
</g>
<!-- Node5&#45;&gt;Node18 -->
<g id="edge17_Node000005_Node000018" class="edge">
<title>Node5&#45;&gt;Node18</title>
<g id="a_edge17_Node000005_Node000018"><a xlink:title=" ">
<path fill="none" stroke="#63b8ff" d="M1646.82,-115.49C1609.94,-105.27 1547.93,-88.08 1507.11,-76.76"/>
<polygon fill="#63b8ff" stroke="#63b8ff" points="1507.79,-73.32 1497.22,-74.02 1505.92,-80.06 1507.79,-73.32"/>
</a>
</g>
</g>
<!-- Node19 -->
<g id="Node000019" class="node">
<title>Node19</title>
<g id="a_Node000019"><a xlink:href="netbsd_8h.html" target="_top" xlink:title=" ">
<polygon fill="white" stroke="#666666" points="1666,-74 1553,-74 1553,-55 1666,-55 1666,-74"/>
<text text-anchor="middle" x="1609.5" y="-62" font-family="Helvetica,sans-Serif" font-size="10.00">compat/os/netbsd.h</text>
</a>
</g>
</g>
<!-- Node5&#45;&gt;Node19 -->
<g id="edge18_Node000005_Node000019" class="edge">
<title>Node5&#45;&gt;Node19</title>
<g id="a_edge18_Node000005_Node000019"><a xlink:title=" ">
<path fill="none" stroke="#63b8ff" d="M1667.47,-115.37C1656.92,-106.3 1640.11,-91.84 1627.31,-80.82"/>
<polygon fill="#63b8ff" stroke="#63b8ff" points="1629.44,-78.04 1619.57,-74.17 1624.87,-83.34 1629.44,-78.04"/>
</a>
</g>
</g>
<!-- Node20 -->
<g id="Node000020" class="node">
<title>Node20</title>
<g id="a_Node000020"><a xlink:href="openbsd_8h.html" target="_top" xlink:title=" ">
<polygon fill="white" stroke="#666666" points="1805,-74 1684,-74 1684,-55 1805,-55 1805,-74"/>
<text text-anchor="middle" x="1744.5" y="-62" font-family="Helvetica,sans-Serif" font-size="10.00">compat/os/openbsd.h</text>
</a>
</g>
</g>
<!-- Node5&#45;&gt;Node20 -->
<g id="edge19_Node000005_Node000020" class="edge">
<title>Node5&#45;&gt;Node20</title>
<g id="a_edge19_Node000005_Node000020"><a xlink:title=" ">
<path fill="none" stroke="#63b8ff" d="M1687.39,-115.37C1697.78,-106.3 1714.34,-91.84 1726.95,-80.82"/>
<polygon fill="#63b8ff" stroke="#63b8ff" points="1729.34,-83.38 1734.57,-74.17 1724.74,-78.11 1729.34,-83.38"/>
</a>
</g>
</g>
<!-- Node21 -->
<g id="Node000021" class="node">
<title>Node21</title>
<g id="a_Node000021"><a xlink:href="os2_8h.html" target="_top" xlink:title=" ">
<polygon fill="white" stroke="#666666" points="1920,-74 1823,-74 1823,-55 1920,-55 1920,-74"/>
<text text-anchor="middle" x="1871.5" y="-62" font-family="Helvetica,sans-Serif" font-size="10.00">compat/os/os2.h</text>
</a>
</g>
</g>
<!-- Node5&#45;&gt;Node21 -->
<g id="edge20_Node000005_Node000021" class="edge">
<title>Node5&#45;&gt;Node21</title>
<g id="a_edge20_Node000005_Node000021"><a xlink:title=" ">
<path fill="none" stroke="#63b8ff" d="M1705.71,-115.49C1739.47,-105.31 1796.15,-88.22 1833.68,-76.9"/>
<polygon fill="#63b8ff" stroke="#63b8ff" points="1834.69,-80.25 1843.26,-74.02 1832.67,-73.55 1834.69,-80.25"/>
</a>
</g>
</g>
<!-- Node22 -->
<g id="Node000022" class="node">
<title>Node22</title>
<g id="a_Node000022"><a xlink:href="qnx_8h.html" target="_top" xlink:title=" ">
<polygon fill="white" stroke="#666666" points="2036.5,-74 1938.5,-74 1938.5,-55 2036.5,-55 2036.5,-74"/>
<text text-anchor="middle" x="1987.5" y="-62" font-family="Helvetica,sans-Serif" font-size="10.00">compat/os/qnx.h</text>
</a>
</g>
</g>
<!-- Node5&#45;&gt;Node22 -->
<g id="edge21_Node000005_Node000022" class="edge">
<title>Node5&#45;&gt;Node22</title>
<g id="a_edge21_Node000005_Node000022"><a xlink:title=" ">
<path fill="none" stroke="#63b8ff" d="M1722.58,-115.49C1778.14,-105.01 1872.52,-87.2 1932.35,-75.91"/>
<polygon fill="#63b8ff" stroke="#63b8ff" points="1933.19,-79.31 1942.37,-74.02 1931.89,-72.43 1933.19,-79.31"/>
</a>
</g>
</g>
<!-- Node23 -->
<g id="Node000023" class="node">
<title>Node23</title>
<g id="a_Node000023"><a xlink:href="solaris_8h.html" target="_top" xlink:title=" ">
<polygon fill="white" stroke="#666666" points="2166.5,-74 2054.5,-74 2054.5,-55 2166.5,-55 2166.5,-74"/>
<text text-anchor="middle" x="2110.5" y="-62" font-family="Helvetica,sans-Serif" font-size="10.00">compat/os/solaris.h</text>
</a>
</g>
</g>
<!-- Node5&#45;&gt;Node23 -->
<g id="edge22_Node000005_Node000023" class="edge">
<title>Node5&#45;&gt;Node23</title>
<g id="a_edge22_Node000005_Node000023"><a xlink:title=" ">
<path fill="none" stroke="#63b8ff" d="M1728.87,-117.06C1807.52,-106.43 1957.76,-86.14 2044.42,-74.43"/>
<polygon fill="#63b8ff" stroke="#63b8ff" points="2044.97,-77.89 2054.41,-73.08 2044.03,-70.95 2044.97,-77.89"/>
</a>
</g>
</g>
<!-- Node24 -->
<g id="Node000024" class="node">
<title>Node24</title>
<g id="a_Node000024"><a xlink:href="sunos_8h.html" target="_top" xlink:title=" ">
<polygon fill="white" stroke="#666666" points="2292.5,-74 2184.5,-74 2184.5,-55 2292.5,-55 2292.5,-74"/>
<text text-anchor="middle" x="2238.5" y="-62" font-family="Helvetica,sans-Serif" font-size="10.00">compat/os/sunos.h</text>
</a>
</g>
</g>
<!-- Node5&#45;&gt;Node24 -->
<g id="edge23_Node000005_Node000024" class="edge">
<title>Node5&#45;&gt;Node24</title>
<g id="a_edge23_Node000005_Node000024"><a xlink:title=" ">
<path fill="none" stroke="#63b8ff" d="M1728.82,-119.43C1817.43,-111.41 2005.1,-93.86 2174.14,-74.13"/>
<polygon fill="#63b8ff" stroke="#63b8ff" points="2174.69,-77.58 2184.22,-72.94 2173.88,-70.63 2174.69,-77.58"/>
</a>
</g>
</g>
<!-- Node25 -->
<g id="Node000025" class="node">
<title>Node25</title>
<g id="a_Node000025"><a xlink:href="assert_8h.html" target="_top" xlink:title=" ">
<polygon fill="white" stroke="#666666" points="2406,-74 2311,-74 2311,-55 2406,-55 2406,-74"/>
<text text-anchor="middle" x="2358.5" y="-62" font-family="Helvetica,sans-Serif" font-size="10.00">compat/assert.h</text>
</a>
</g>
</g>
<!-- Node5&#45;&gt;Node25 -->
<g id="edge24_Node000005_Node000025" class="edge">
<title>Node5&#45;&gt;Node25</title>
<g id="a_edge24_Node000005_Node000025"><a xlink:title=" ">
<path fill="none" stroke="#63b8ff" d="M1728.57,-121.09C1833.61,-114.85 2081.67,-98.79 2300.86,-73.99"/>
<polygon fill="#63b8ff" stroke="#63b8ff" points="2301.41,-77.45 2310.95,-72.84 2300.61,-70.49 2301.41,-77.45"/>
</a>
</g>
</g>
<!-- Node26 -->
<g id="Node000026" class="node">
<title>Node26</title>
<g id="a_Node000026"><a xlink:href="compat__shared_8h.html" target="_top" xlink:title=" ">
<polygon fill="white" stroke="#666666" points="2564.5,-74 2424.5,-74 2424.5,-55 2564.5,-55 2564.5,-74"/>
<text text-anchor="middle" x="2494.5" y="-62" font-family="Helvetica,sans-Serif" font-size="10.00">compat/compat_shared.h</text>
</a>
</g>
</g>
<!-- Node5&#45;&gt;Node26 -->
<g id="edge25_Node000005_Node000026" class="edge">
<title>Node5&#45;&gt;Node26</title>
<g id="a_edge25_Node000005_Node000026"><a xlink:title=" ">
<path fill="none" stroke="#63b8ff" d="M1728.93,-121.19C1847.53,-114.56 2149.58,-96.83 2414.09,-74"/>
<polygon fill="#63b8ff" stroke="#63b8ff" points="2414.61,-77.47 2424.27,-73.11 2414.01,-70.49 2414.61,-77.47"/>
</a>
</g>
</g>
<!-- Node36 -->
<g id="Node000036" class="node">
<title>Node36</title>
<g id="a_Node000036"><a xlink:href="stdvarargs_8h.html" target="_top" xlink:title=" ">
<polygon fill="white" stroke="#666666" points="2700,-74 2583,-74 2583,-55 2700,-55 2700,-74"/>
<text text-anchor="middle" x="2641.5" y="-62" font-family="Helvetica,sans-Serif" font-size="10.00">compat/stdvarargs.h</text>
</a>
</g>
</g>
<!-- Node5&#45;&gt;Node36 -->
<g id="edge34_Node000005_Node000036" class="edge">
<title>Node5&#45;&gt;Node36</title>
<g id="a_edge34_Node000005_Node000036"><a xlink:title=" ">
<path fill="none" stroke="#63b8ff" d="M1728.61,-122.38C1864.25,-117.81 2244.78,-103.27 2572.75,-74"/>
<polygon fill="#63b8ff" stroke="#63b8ff" points="2573.28,-77.46 2582.92,-73.08 2572.65,-70.49 2573.28,-77.46"/>
</a>
</g>
</g>
<!-- Node38 -->
<g id="Node000038" class="node">
<title>Node38</title>
<g id="a_Node000038"><a xlink:href="stdio_8h.html" target="_top" xlink:title=" ">
<polygon fill="white" stroke="#666666" points="2807,-74 2718,-74 2718,-55 2807,-55 2807,-74"/>
<text text-anchor="middle" x="2762.5" y="-62" font-family="Helvetica,sans-Serif" font-size="10.00">compat/stdio.h</text>
</a>
</g>
</g>
<!-- Node5&#45;&gt;Node38 -->
<g id="edge36_Node000005_Node000038" class="edge">
<title>Node5&#45;&gt;Node38</title>
<g id="a_edge36_Node000005_Node000038"><a xlink:title=" ">
<path fill="none" stroke="#63b8ff" d="M1728.6,-123.47C1877.79,-121.49 2325.73,-112.63 2707.62,-73.96"/>
<polygon fill="#63b8ff" stroke="#63b8ff" points="2708.17,-77.42 2717.76,-72.92 2707.46,-70.46 2708.17,-77.42"/>
</a>
</g>
</g>
<!-- Node40 -->
<g id="Node000040" class="node">
<title>Node40</title>
<g id="a_Node000040"><a xlink:href="statvfs_8h.html" target="_top" xlink:title=" ">
<polygon fill="white" stroke="#666666" points="2924,-74 2825,-74 2825,-55 2924,-55 2924,-74"/>
<text text-anchor="middle" x="2874.5" y="-62" font-family="Helvetica,sans-Serif" font-size="10.00">compat/statvfs.h</text>
</a>
</g>
</g>
<!-- Node5&#45;&gt;Node40 -->
<g id="edge38_Node000005_Node000040" class="edge">
<title>Node5&#45;&gt;Node40</title>
<g id="a_edge38_Node000005_Node000040"><a xlink:title=" ">
<path fill="none" stroke="#63b8ff" d="M1728.67,-123.56C1887.94,-121.8 2389.18,-113.37 2814.93,-73.94"/>
<polygon fill="#63b8ff" stroke="#63b8ff" points="2815.34,-77.41 2824.97,-73 2814.69,-70.44 2815.34,-77.41"/>
</a>
</g>
</g>
<!-- Node41 -->
<g id="Node000041" class="node">
<title>Node41</title>
<g id="a_Node000041"><a xlink:href="debug_8h.html" target="_top" xlink:title=" ">
<polygon fill="white" stroke="#666666" points="3037,-74 2942,-74 2942,-55 3037,-55 3037,-74"/>
<text text-anchor="middle" x="2989.5" y="-62" font-family="Helvetica,sans-Serif" font-size="10.00">compat/debug.h</text>
</a>
</g>
</g>
<!-- Node5&#45;&gt;Node41 -->
<g id="edge39_Node000005_Node000041" class="edge">
<title>Node5&#45;&gt;Node41</title>
<g id="a_edge39_Node000005_Node000041"><a xlink:title=" ">
<path fill="none" stroke="#63b8ff" d="M1728.74,-123.94C1898.57,-123.34 2458.56,-117.97 2931.85,-73.93"/>
<polygon fill="#63b8ff" stroke="#63b8ff" points="2932.33,-77.4 2941.96,-72.98 2931.68,-70.43 2932.33,-77.4"/>
</a>
</g>
</g>
<!-- Node42 -->
<g id="Node000042" class="node">
<title>Node42</title>
<g id="a_Node000042"><a xlink:href="valgrind_8h.html" target="_top" xlink:title=" ">
<polygon fill="white" stroke="#666666" points="3160,-74 3055,-74 3055,-55 3160,-55 3160,-74"/>
<text text-anchor="middle" x="3107.5" y="-62" font-family="Helvetica,sans-Serif" font-size="10.00">compat/valgrind.h</text>
</a>
</g>
</g>
<!-- Node5&#45;&gt;Node42 -->
<g id="edge40_Node000005_Node000042" class="edge">
<title>Node5&#45;&gt;Node42</title>
<g id="a_edge40_Node000005_Node000042"><a xlink:title=" ">
<path fill="none" stroke="#63b8ff" d="M1728.54,-123.97C1907.71,-123.46 2524.68,-118.46 3044.44,-73.98"/>
<polygon fill="#63b8ff" stroke="#63b8ff" points="3045.11,-77.44 3054.77,-73.09 3044.51,-70.46 3045.11,-77.44"/>
</a>
</g>
</g>
<!-- Node9 -->
<g id="Node000009" class="node">
<title>Node9</title>
<g id="a_Node000009"><a xlink:title=" ">
<polygon fill="#e0e0e0" stroke="#999999" points="324.5,-19 274.5,-19 274.5,0 324.5,0 324.5,-19"/>
<text text-anchor="middle" x="299.5" y="-7" font-family="Helvetica,sans-Serif" font-size="10.00">cstdint</text>
</a>
</g>
</g>
<!-- Node8&#45;&gt;Node9 -->
<g id="edge8_Node000008_Node000009" class="edge">
<title>Node8&#45;&gt;Node9</title>
<g id="a_edge8_Node000008_Node000009"><a xlink:title=" ">
<path fill="none" stroke="#63b8ff" d="M299.5,-54.75C299.5,-47.8 299.5,-37.85 299.5,-29.13"/>
<polygon fill="#63b8ff" stroke="#63b8ff" points="303,-29.09 299.5,-19.09 296,-29.09 303,-29.09"/>
</a>
</g>
</g>
<!-- Node27 -->
<g id="Node000027" class="node">
<title>Node27</title>
<g id="a_Node000027"><a xlink:title=" ">
<polygon fill="#e0e0e0" stroke="#999999" points="2031,-19 1980,-19 1980,0 2031,0 2031,-19"/>
<text text-anchor="middle" x="2005.5" y="-7" font-family="Helvetica,sans-Serif" font-size="10.00">csignal</text>
</a>
</g>
</g>
<!-- Node26&#45;&gt;Node27 -->
<g id="edge26_Node000026_Node000027" class="edge">
<title>Node26&#45;&gt;Node27</title>
<g id="a_edge26_Node000026_Node000027"><a xlink:title=" ">
<path fill="none" stroke="#63b8ff" d="M2424.26,-56C2420.96,-55.66 2417.7,-55.32 2414.5,-55 2251.17,-38.48 2206.25,-47.03 2041.05,-19.03"/>
<polygon fill="#63b8ff" stroke="#63b8ff" points="2041.48,-15.56 2031.03,-17.32 2040.3,-22.46 2041.48,-15.56"/>
</a>
</g>
</g>
<!-- Node28 -->
<g id="Node000028" class="node">
<title>Node28</title>
<g id="a_Node000028"><a xlink:href="xalloc_8h.html" target="_top" xlink:title=" ">
<polygon fill="white" stroke="#666666" points="2144,-19 2049,-19 2049,0 2144,0 2144,-19"/>
<text text-anchor="middle" x="2096.5" y="-7" font-family="Helvetica,sans-Serif" font-size="10.00">compat/xalloc.h</text>
</a>
</g>
</g>
<!-- Node26&#45;&gt;Node28 -->
<g id="edge27_Node000026_Node000028" class="edge">
<title>Node26&#45;&gt;Node28</title>
<g id="a_edge27_Node000026_Node000028"><a xlink:title=" ">
<path fill="none" stroke="#63b8ff" d="M2426.52,-55C2359.88,-46.58 2255.12,-33.13 2154.15,-19.07"/>
<polygon fill="#63b8ff" stroke="#63b8ff" points="2154.46,-15.58 2144.08,-17.66 2153.5,-22.51 2154.46,-15.58"/>
</a>
</g>
</g>
<!-- Node29 -->
<g id="Node000029" class="node">
<title>Node29</title>
<g id="a_Node000029"><a xlink:href="xis_8h.html" target="_top" xlink:title=" ">
<polygon fill="#fff0f0" stroke="red" points="2242.5,-19 2162.5,-19 2162.5,0 2242.5,0 2242.5,-19"/>
<text text-anchor="middle" x="2202.5" y="-7" font-family="Helvetica,sans-Serif" font-size="10.00">compat/xis.h</text>
</a>
</g>
</g>
<!-- Node26&#45;&gt;Node29 -->
<g id="edge28_Node000026_Node000029" class="edge">
<title>Node26&#45;&gt;Node29</title>
<g id="a_edge28_Node000026_Node000029"><a xlink:title=" ">
<path fill="none" stroke="#63b8ff" d="M2447.59,-54.98C2394.27,-45.31 2307.59,-29.57 2252.88,-19.64"/>
<polygon fill="#63b8ff" stroke="#63b8ff" points="2253.18,-16.14 2242.72,-17.8 2251.93,-23.03 2253.18,-16.14"/>
</a>
</g>
</g>
<!-- Node31 -->
<g id="Node000031" class="node">
<title>Node31</title>
<g id="a_Node000031"><a xlink:href="xstrerror_8h.html" target="_top" xlink:title=" ">
<polygon fill="white" stroke="#666666" points="2368,-19 2261,-19 2261,0 2368,0 2368,-19"/>
<text text-anchor="middle" x="2314.5" y="-7" font-family="Helvetica,sans-Serif" font-size="10.00">compat/xstrerror.h</text>
</a>
</g>
</g>
<!-- Node26&#45;&gt;Node31 -->
<g id="edge29_Node000026_Node000031" class="edge">
<title>Node26&#45;&gt;Node31</title>
<g id="a_edge29_Node000026_Node000031"><a xlink:title=" ">
<path fill="none" stroke="#63b8ff" d="M2465.58,-54.98C2435.23,-46.05 2387.33,-31.94 2353.62,-22.02"/>
<polygon fill="#63b8ff" stroke="#63b8ff" points="2354.23,-18.55 2343.65,-19.08 2352.25,-25.26 2354.23,-18.55"/>
</a>
</g>
</g>
<!-- Node32 -->
<g id="Node000032" class="node">
<title>Node32</title>
<g id="a_Node000032"><a xlink:href="xstring_8h.html" target="_top" xlink:title=" ">
<polygon fill="white" stroke="#666666" points="2485,-19 2386,-19 2386,0 2485,0 2485,-19"/>
<text text-anchor="middle" x="2435.5" y="-7" font-family="Helvetica,sans-Serif" font-size="10.00">compat/xstring.h</text>
</a>
</g>
</g>
<!-- Node26&#45;&gt;Node32 -->
<g id="edge30_Node000026_Node000032" class="edge">
<title>Node26&#45;&gt;Node32</title>
<g id="a_edge30_Node000026_Node000032"><a xlink:title=" ">
<path fill="none" stroke="#63b8ff" d="M2485.02,-54.98C2476.3,-47.15 2463.16,-35.34 2452.6,-25.86"/>
<polygon fill="#63b8ff" stroke="#63b8ff" points="2454.93,-23.25 2445.15,-19.17 2450.25,-28.46 2454.93,-23.25"/>
</a>
</g>
</g>
<!-- Node33 -->
<g id="Node000033" class="node">
<title>Node33</title>
<g id="a_Node000033"><a xlink:href="xstrto_8h.html" target="_top" xlink:title=" ">
<polygon fill="white" stroke="#666666" points="2597.5,-19 2503.5,-19 2503.5,0 2597.5,0 2597.5,-19"/>
<text text-anchor="middle" x="2550.5" y="-7" font-family="Helvetica,sans-Serif" font-size="10.00">compat/xstrto.h</text>
</a>
</g>
</g>
<!-- Node26&#45;&gt;Node33 -->
<g id="edge31_Node000026_Node000033" class="edge">
<title>Node26&#45;&gt;Node33</title>
<g id="a_edge31_Node000026_Node000033"><a xlink:title=" ">
<path fill="none" stroke="#63b8ff" d="M2503.5,-54.98C2511.69,-47.23 2524.01,-35.58 2533.97,-26.14"/>
<polygon fill="#63b8ff" stroke="#63b8ff" points="2536.48,-28.59 2541.34,-19.17 2531.67,-23.5 2536.48,-28.59"/>
</a>
</g>
</g>
<!-- Node34 -->
<g id="Node000034" class="node">
<title>Node34</title>
<g id="a_Node000034"><a xlink:href="strtoll_8h.html" target="_top" xlink:title=" ">
<polygon fill="white" stroke="#666666" points="2709.5,-19 2615.5,-19 2615.5,0 2709.5,0 2709.5,-19"/>
<text text-anchor="middle" x="2662.5" y="-7" font-family="Helvetica,sans-Serif" font-size="10.00">compat/strtoll.h</text>
</a>
</g>
</g>
<!-- Node26&#45;&gt;Node34 -->
<g id="edge32_Node000026_Node000034" class="edge">
<title>Node26&#45;&gt;Node34</title>
<g id="a_edge32_Node000026_Node000034"><a xlink:title=" ">
<path fill="none" stroke="#63b8ff" d="M2521.49,-54.98C2549.7,-46.09 2594.14,-32.07 2625.58,-22.15"/>
<polygon fill="#63b8ff" stroke="#63b8ff" points="2626.81,-25.43 2635.3,-19.08 2624.71,-18.75 2626.81,-25.43"/>
</a>
</g>
</g>
<!-- Node35 -->
<g id="Node000035" class="node">
<title>Node35</title>
<g id="a_Node000035"><a xlink:href="memrchr_8h.html" target="_top" xlink:title=" ">
<polygon fill="white" stroke="#666666" points="2837,-19 2728,-19 2728,0 2837,0 2837,-19"/>
<text text-anchor="middle" x="2782.5" y="-7" font-family="Helvetica,sans-Serif" font-size="10.00">compat/memrchr.h</text>
</a>
</g>
</g>
<!-- Node26&#45;&gt;Node35 -->
<g id="edge33_Node000026_Node000035" class="edge">
<title>Node26&#45;&gt;Node35</title>
<g id="a_edge33_Node000026_Node000035"><a xlink:title=" ">
<path fill="none" stroke="#63b8ff" d="M2540.77,-54.98C2591.11,-45.72 2671.62,-30.9 2725.74,-20.94"/>
<polygon fill="#63b8ff" stroke="#63b8ff" points="2726.66,-24.33 2735.87,-19.08 2725.4,-17.45 2726.66,-24.33"/>
</a>
</g>
</g>
<!-- Node37 -->
<g id="Node000037" class="node">
<title>Node37</title>
<g id="a_Node000037"><a xlink:title=" ">
<polygon fill="#e0e0e0" stroke="#999999" points="2908,-19 2855,-19 2855,0 2908,0 2908,-19"/>
<text text-anchor="middle" x="2881.5" y="-7" font-family="Helvetica,sans-Serif" font-size="10.00">cstdarg</text>
</a>
</g>
</g>
<!-- Node36&#45;&gt;Node37 -->
<g id="edge35_Node000036_Node000037" class="edge">
<title>Node36&#45;&gt;Node37</title>
<g id="a_edge35_Node000036_Node000037"><a xlink:title=" ">
<path fill="none" stroke="#63b8ff" d="M2681.8,-54.92C2720.89,-46.55 2782.15,-33.32 2844.72,-19.15"/>
<polygon fill="#63b8ff" stroke="#63b8ff" points="2845.8,-22.49 2854.78,-16.86 2844.25,-15.66 2845.8,-22.49"/>
</a>
</g>
</g>
<!-- Node39 -->
<g id="Node000039" class="node">
<title>Node39</title>
<g id="a_Node000039"><a xlink:title=" ">
<polygon fill="#e0e0e0" stroke="#999999" points="2972.5,-19 2926.5,-19 2926.5,0 2972.5,0 2972.5,-19"/>
<text text-anchor="middle" x="2949.5" y="-7" font-family="Helvetica,sans-Serif" font-size="10.00">cstdio</text>
</a>
</g>
</g>
<!-- Node38&#45;&gt;Node39 -->
<g id="edge37_Node000038_Node000039" class="edge">
<title>Node38&#45;&gt;Node39</title>
<g id="a_edge37_Node000038_Node000039"><a xlink:title=" ">
<path fill="none" stroke="#63b8ff" d="M2792.54,-54.98C2826.47,-45.37 2881.49,-29.78 2916.56,-19.84"/>
<polygon fill="#63b8ff" stroke="#63b8ff" points="2917.66,-23.16 2926.32,-17.07 2915.75,-16.43 2917.66,-23.16"/>
</a>
</g>
</g>
<!-- Node43 -->
<g id="Node000043" class="node">
<title>Node43</title>
<g id="a_Node000043"><a xlink:title=" ">
<polygon fill="#e0e0e0" stroke="#999999" points="3168.5,-19 3046.5,-19 3046.5,0 3168.5,0 3168.5,-19"/>
<text text-anchor="middle" x="3107.5" y="-7" font-family="Helvetica,sans-Serif" font-size="10.00">valgrind/memcheck.h</text>
</a>
</g>
</g>
<!-- Node42&#45;&gt;Node43 -->
<g id="edge41_Node000042_Node000043" class="edge">
<title>Node42&#45;&gt;Node43</title>
<g id="a_edge41_Node000042_Node000043"><a xlink:title=" ">
<path fill="none" stroke="#63b8ff" d="M3107.5,-54.75C3107.5,-47.8 3107.5,-37.85 3107.5,-29.13"/>
<polygon fill="#63b8ff" stroke="#63b8ff" points="3111,-29.09 3107.5,-19.09 3104,-29.09 3111,-29.09"/>
</a>
</g>
</g>
<!-- Node45 -->
<g id="Node000045" class="node">
<title>Node45</title>
<g id="a_Node000045"><a xlink:href="hash_8h.html" target="_top" xlink:title=" ">
<polygon fill="white" stroke="#666666" points="3227,-74 3178,-74 3178,-55 3227,-55 3227,-74"/>
<text text-anchor="middle" x="3202.5" y="-62" font-family="Helvetica,sans-Serif" font-size="10.00">hash.h</text>
</a>
</g>
</g>
<!-- Node44&#45;&gt;Node45 -->
<g id="edge43_Node000044_Node000045" class="edge">
<title>Node44&#45;&gt;Node45</title>
<g id="a_edge43_Node000044_Node000045"><a xlink:title=" ">
<path fill="none" stroke="#63b8ff" d="M3258.59,-109.84C3247.41,-101 3233.02,-89.63 3221.62,-80.62"/>
<polygon fill="#63b8ff" stroke="#63b8ff" points="3223.6,-77.72 3213.59,-74.27 3219.26,-83.21 3223.6,-77.72"/>
</a>
</g>
</g>
<!-- Node46 -->
<g id="Node000046" class="node">
<title>Node46</title>
<g id="a_Node000046"><a xlink:href="rfc2617_8h.html" target="_top" xlink:title=" ">
<polygon fill="white" stroke="#666666" points="3307.5,-74 3245.5,-74 3245.5,-55 3307.5,-55 3307.5,-74"/>
<text text-anchor="middle" x="3276.5" y="-62" font-family="Helvetica,sans-Serif" font-size="10.00">rfc2617.h</text>
</a>
</g>
</g>
<!-- Node44&#45;&gt;Node46 -->
<g id="edge44_Node000044_Node000046" class="edge">
<title>Node44&#45;&gt;Node46</title>
<g id="a_edge44_Node000044_Node000046"><a xlink:title=" ">
<path fill="none" stroke="#63b8ff" d="M3276.5,-109.84C3276.5,-102.21 3276.5,-92.7 3276.5,-84.45"/>
<polygon fill="#63b8ff" stroke="#63b8ff" points="3280,-84.27 3276.5,-74.27 3273,-84.27 3280,-84.27"/>
</a>
</g>
</g>
<!-- Node47 -->
<g id="Node000047" class="node">
<title>Node47</title>
<g id="a_Node000047"><a xlink:href="util_8h.html" target="_top" xlink:title=" ">
<polygon fill="white" stroke="#666666" points="3367,-74 3326,-74 3326,-55 3367,-55 3367,-74"/>
<text text-anchor="middle" x="3346.5" y="-62" font-family="Helvetica,sans-Serif" font-size="10.00">util.h</text>
</a>
</g>
</g>
<!-- Node44&#45;&gt;Node47 -->
<g id="edge45_Node000044_Node000047" class="edge">
<title>Node44&#45;&gt;Node47</title>
<g id="a_edge45_Node000044_Node000047"><a xlink:title=" ">
<path fill="none" stroke="#63b8ff" d="M3293.45,-109.84C3303.92,-101.09 3317.36,-89.85 3328.09,-80.88"/>
<polygon fill="#63b8ff" stroke="#63b8ff" points="3330.58,-83.36 3336.01,-74.27 3326.09,-77.99 3330.58,-83.36"/>
</a>
</g>
</g>
<!-- Node48 -->
<g id="Node000048" class="node">
<title>Node48</title>
<g id="a_Node000048"><a xlink:title=" ">
<polygon fill="#e0e0e0" stroke="#999999" points="3435.5,-74 3385.5,-74 3385.5,-55 3435.5,-55 3435.5,-74"/>
<text text-anchor="middle" x="3410.5" y="-62" font-family="Helvetica,sans-Serif" font-size="10.00">cstring</text>
</a>
</g>
</g>
<!-- Node44&#45;&gt;Node48 -->
<g id="edge46_Node000044_Node000048" class="edge">
<title>Node44&#45;&gt;Node48</title>
<g id="a_edge46_Node000044_Node000048"><a xlink:title=" ">
<path fill="none" stroke="#63b8ff" d="M3308.6,-109.99C3330.75,-100.31 3359.98,-87.56 3381.45,-78.18"/>
<polygon fill="#63b8ff" stroke="#63b8ff" points="3382.95,-81.35 3390.71,-74.14 3380.15,-74.93 3382.95,-81.35"/>
</a>
</g>
</g>
<!-- Node49&#45;&gt;Node44 -->
<g id="edge48_Node000049_Node000044" class="edge">
<title>Node49&#45;&gt;Node44</title>
<g id="a_edge48_Node000049_Node000044"><a xlink:title=" ">
<path fill="none" stroke="#63b8ff" d="M3276.5,-175.8C3276.5,-168.34 3276.5,-158.99 3276.5,-150.41"/>
<polygon fill="#63b8ff" stroke="#63b8ff" points="3280,-150.16 3276.5,-140.16 3273,-150.16 3280,-150.16"/>
</a>
</g>
</g>
<!-- Node51 -->
<g id="Node000051" class="node">
<title>Node51</title>
<g id="a_Node000051"><a xlink:title=" ">
<polygon fill="#e0e0e0" stroke="#999999" points="3450.5,-134.5 3390.5,-134.5 3390.5,-115.5 3450.5,-115.5 3450.5,-134.5"/>
<text text-anchor="middle" x="3420.5" y="-122.5" font-family="Helvetica,sans-Serif" font-size="10.00">iostream</text>
</a>
</g>
</g>
<!-- Node50&#45;&gt;Node51 -->
<g id="edge50_Node000050_Node000051" class="edge">
<title>Node50&#45;&gt;Node51</title>
<g id="a_edge50_Node000050_Node000051"><a xlink:title=" ">
<path fill="none" stroke="#63b8ff" d="M3420.5,-181.37C3420.5,-172.16 3420.5,-157.29 3420.5,-145.27"/>
<polygon fill="#63b8ff" stroke="#63b8ff" points="3424,-144.91 3420.5,-134.91 3417,-144.91 3424,-144.91"/>
</a>
</g>
</g>
</g>
</svg>
