<?xml version="1.0" encoding="UTF-8" standalone="no"?>
<!DOCTYPE svg PUBLIC "-//W3C//DTD SVG 1.1//EN"
 "http://www.w3.org/Graphics/SVG/1.1/DTD/svg11.dtd">
<!-- Generated by graphviz version 2.43.0 (0)
 -->
<!-- Title: squid/src/ssl Pages: 1 -->
<svg width="1015pt" height="133pt"
 viewBox="0.00 0.00 1015.00 133.00" xmlns="http://www.w3.org/2000/svg" xmlns:xlink="http://www.w3.org/1999/xlink">
<g id="graph0" class="graph" transform="scale(1 1) rotate(0) translate(4 129)">
<title>squid/src/ssl</title>
<g id="clust1" class="cluster">
<title>clusterdir_27a06220d184fcc3bd2c56b7794ae45b</title>
<g id="a_clust1"><a xlink:href="dir_27a06220d184fcc3bd2c56b7794ae45b.html" target="_top" xlink:title="src">
<polygon fill="#edf0f7" stroke="#7f7f7f" stroke-dasharray="5,2" points="8,-8 8,-117 874,-117 874,-8 8,-8"/>
<text text-anchor="middle" x="441" y="-105" font-family="Helvetica,sans-Serif" font-size="10.00">src</text>
</a>
</g>
</g>
<!-- dir_008e24b6ef3ec489277636e4133de850 -->
<g id="node1" class="node">
<title>dir_008e24b6ef3ec489277636e4133de850</title>
<g id="a_node1"><a xlink:href="dir_008e24b6ef3ec489277636e4133de850.html" target="_top" xlink:title="sbuf">
<polygon fill="#eaeef6" stroke="#404040" points="54,-35 16,-35 16,-16 54,-16 54,-35"/>
<text text-anchor="middle" x="35" y="-23" font-family="Helvetica,sans-Serif" font-size="10.00">sbuf</text>
</a>
</g>
</g>
<!-- dir_27bf6a35aa2eb0312e6ebe0593a6cab3 -->
<g id="node2" class="node">
<title>dir_27bf6a35aa2eb0312e6ebe0593a6cab3</title>
<g id="a_node2"><a xlink:href="dir_27bf6a35aa2eb0312e6ebe0593a6cab3.html" target="_top" xlink:title="dns">
<polygon fill="#eaeef6" stroke="#404040" points="106,-35 72,-35 72,-16 106,-16 106,-35"/>
<text text-anchor="middle" x="89" y="-23" font-family="Helvetica,sans-Serif" font-size="10.00">dns</text>
</a>
</g>
</g>
<!-- dir_2926faa6d81a8066318a65bfc336f67b -->
<g id="node3" class="node">
<title>dir_2926faa6d81a8066318a65bfc336f67b</title>
<g id="a_node3"><a xlink:href="dir_2926faa6d81a8066318a65bfc336f67b.html" target="_top" xlink:title="acl">
<polygon fill="#eaeef6" stroke="red" points="155.5,-35 124.5,-35 124.5,-16 155.5,-16 155.5,-35"/>
<text text-anchor="middle" x="140" y="-23" font-family="Helvetica,sans-Serif" font-size="10.00">acl</text>
</a>
</g>
</g>
<!-- dir_46e48f159c6fdd75bd63e946ebf1533e -->
<g id="node4" class="node">
<title>dir_46e48f159c6fdd75bd63e946ebf1533e</title>
<g id="a_node4"><a xlink:href="dir_46e48f159c6fdd75bd63e946ebf1533e.html" target="_top" xlink:title="http">
<polygon fill="#eaeef6" stroke="red" points="210,-35 174,-35 174,-16 210,-16 210,-35"/>
<text text-anchor="middle" x="192" y="-23" font-family="Helvetica,sans-Serif" font-size="10.00">http</text>
</a>
</g>
</g>
<!-- dir_49892635ae30f06b98770bacb35a9385 -->
<g id="node5" class="node">
<title>dir_49892635ae30f06b98770bacb35a9385</title>
<g id="a_node5"><a xlink:href="dir_49892635ae30f06b98770bacb35a9385.html" target="_top" xlink:title="base">
<polygon fill="#eaeef6" stroke="#404040" points="268,-35 228,-35 228,-16 268,-16 268,-35"/>
<text text-anchor="middle" x="248" y="-23" font-family="Helvetica,sans-Serif" font-size="10.00">base</text>
</a>
</g>
</g>
<!-- dir_6b7615169cf4177f323b6deda6409b41 -->
<g id="node6" class="node">
<title>dir_6b7615169cf4177f323b6deda6409b41</title>
<g id="a_node6"><a xlink:href="dir_6b7615169cf4177f323b6deda6409b41.html" target="_top" xlink:title="anyp">
<polygon fill="#eaeef6" stroke="#404040" points="327.5,-35 286.5,-35 286.5,-16 327.5,-16 327.5,-35"/>
<text text-anchor="middle" x="307" y="-23" font-family="Helvetica,sans-Serif" font-size="10.00">anyp</text>
</a>
</g>
</g>
<!-- dir_78cc654a211fbf15eaa8c471d4d5c5ff -->
<g id="node7" class="node">
<title>dir_78cc654a211fbf15eaa8c471d4d5c5ff</title>
<g id="a_node7"><a xlink:href="dir_78cc654a211fbf15eaa8c471d4d5c5ff.html" target="_top" xlink:title="tests">
<polygon fill="#eaeef6" stroke="#404040" points="386.5,-35 345.5,-35 345.5,-16 386.5,-16 386.5,-35"/>
<text text-anchor="middle" x="366" y="-23" font-family="Helvetica,sans-Serif" font-size="10.00">tests</text>
</a>
</g>
</g>
<!-- dir_81f981ce9e735fdd4ac8452d01660f4f -->
<g id="node8" class="node">
<title>dir_81f981ce9e735fdd4ac8452d01660f4f</title>
<g id="a_node8"><a xlink:href="dir_81f981ce9e735fdd4ac8452d01660f4f.html" target="_top" xlink:title="security">
<polygon fill="#eaeef6" stroke="red" points="461,-35 405,-35 405,-16 461,-16 461,-35"/>
<text text-anchor="middle" x="433" y="-23" font-family="Helvetica,sans-Serif" font-size="10.00">security</text>
</a>
</g>
</g>
<!-- dir_900fadd3908af8f5d091140c3df49239 -->
<g id="node9" class="node">
<title>dir_900fadd3908af8f5d091140c3df49239</title>
<g id="a_node9"><a xlink:href="dir_900fadd3908af8f5d091140c3df49239.html" target="_top" xlink:title="ip">
<polygon fill="#eaeef6" stroke="#404040" points="508.5,-35 479.5,-35 479.5,-16 508.5,-16 508.5,-35"/>
<text text-anchor="middle" x="494" y="-23" font-family="Helvetica,sans-Serif" font-size="10.00">ip</text>
</a>
</g>
</g>
<!-- dir_c5d369d8d52b23f00d4897c91e3e9a7a -->
<g id="node10" class="node">
<title>dir_c5d369d8d52b23f00d4897c91e3e9a7a</title>
<g id="a_node10"><a xlink:href="dir_c5d369d8d52b23f00d4897c91e3e9a7a.html" target="_top" xlink:title="mgr">
<polygon fill="#eaeef6" stroke="#404040" points="563,-35 527,-35 527,-16 563,-16 563,-35"/>
<text text-anchor="middle" x="545" y="-23" font-family="Helvetica,sans-Serif" font-size="10.00">mgr</text>
</a>
</g>
</g>
<!-- dir_c63f27843881769261e9f0e02d97c751 -->
<g id="node11" class="node">
<title>dir_c63f27843881769261e9f0e02d97c751</title>
<g id="a_node11"><a xlink:href="dir_c63f27843881769261e9f0e02d97c751.html" target="_top" xlink:title="error">
<polygon fill="#eaeef6" stroke="#404040" points="621,-35 581,-35 581,-16 621,-16 621,-35"/>
<text text-anchor="middle" x="601" y="-23" font-family="Helvetica,sans-Serif" font-size="10.00">error</text>
</a>
</g>
</g>
<!-- dir_c8beb12667e670be2c1fb7f9efa8bac3 -->
<g id="node12" class="node">
<title>dir_c8beb12667e670be2c1fb7f9efa8bac3</title>
<g id="a_node12"><a xlink:href="dir_c8beb12667e670be2c1fb7f9efa8bac3.html" target="_top" xlink:title="comm">
<polygon fill="#eaeef6" stroke="#404040" points="686.5,-35 639.5,-35 639.5,-16 686.5,-16 686.5,-35"/>
<text text-anchor="middle" x="663" y="-23" font-family="Helvetica,sans-Serif" font-size="10.00">comm</text>
</a>
</g>
</g>
<!-- dir_cce7e4eda75c585c784c6ea3659dc5d2 -->
<g id="node13" class="node">
<title>dir_cce7e4eda75c585c784c6ea3659dc5d2</title>
<g id="a_node13"><a xlink:href="dir_cce7e4eda75c585c784c6ea3659dc5d2.html" target="_top" xlink:title="helper">
<polygon fill="#eaeef6" stroke="#404040" points="751.5,-35 704.5,-35 704.5,-16 751.5,-16 751.5,-35"/>
<text text-anchor="middle" x="728" y="-23" font-family="Helvetica,sans-Serif" font-size="10.00">helper</text>
</a>
</g>
</g>
<!-- dir_dd4f5294299cd91ca8f126727715fb74 -->
<g id="node14" class="node">
<title>dir_dd4f5294299cd91ca8f126727715fb74</title>
<g id="a_node14"><a xlink:href="dir_dd4f5294299cd91ca8f126727715fb74.html" target="_top" xlink:title="ipc">
<polygon fill="#eaeef6" stroke="red" points="800.5,-35 769.5,-35 769.5,-16 800.5,-16 800.5,-35"/>
<text text-anchor="middle" x="785" y="-23" font-family="Helvetica,sans-Serif" font-size="10.00">ipc</text>
</a>
</g>
</g>
<!-- dir_f9425c2010de9e0bfd045f1ea46112c8 -->
<g id="node15" class="node">
<title>dir_f9425c2010de9e0bfd045f1ea46112c8</title>
<g id="a_node15"><a xlink:href="dir_f9425c2010de9e0bfd045f1ea46112c8.html" target="_top" xlink:title="parser">
<polygon fill="#eaeef6" stroke="#404040" points="865.5,-35 818.5,-35 818.5,-16 865.5,-16 865.5,-35"/>
<text text-anchor="middle" x="842" y="-23" font-family="Helvetica,sans-Serif" font-size="10.00">parser</text>
</a>
</g>
</g>
<!-- dir_34d8c116a98ee54e3e383a09eadea7c5 -->
<g id="node16" class="node">
<title>dir_34d8c116a98ee54e3e383a09eadea7c5</title>
<g id="a_node16"><a xlink:href="dir_34d8c116a98ee54e3e383a09eadea7c5.html" target="_top" xlink:title="ssl">
<polygon fill="#edf0f7" stroke="#404040" stroke-width="2" points="509,-90 479,-90 479,-71 509,-71 509,-90"/>
<text text-anchor="middle" x="494" y="-78" font-family="Helvetica,sans-Serif" font-size="10.00">ssl</text>
</a>
</g>
</g>
<!-- dir_34d8c116a98ee54e3e383a09eadea7c5&#45;&gt;dir_008e24b6ef3ec489277636e4133de850 -->
<g id="edge1" class="edge">
<title>dir_34d8c116a98ee54e3e383a09eadea7c5&#45;&gt;dir_008e24b6ef3ec489277636e4133de850</title>
<g id="a_edge1"><a xlink:href="dir_000087_000077.html" target="_top">
<path fill="none" stroke="#63b8ff" d="M478.96,-78.99C424.36,-76.93 231.5,-67.76 64.13,-34.84"/>
<polygon fill="#63b8ff" stroke="#63b8ff" points="64.65,-31.38 54.16,-32.84 63.27,-38.24 64.65,-31.38"/>
</a>
</g>
<g id="a_edge1&#45;headlabel"><a xlink:href="dir_000087_000077.html" target="_top" xlink:title="10">
<text text-anchor="middle" x="68.73" y="-26.8" font-family="Helvetica,sans-Serif" font-size="10.00" fill="#63b8ff">10</text>
</a>
</g>
</g>
<!-- dir_34d8c116a98ee54e3e383a09eadea7c5&#45;&gt;dir_27bf6a35aa2eb0312e6ebe0593a6cab3 -->
<g id="edge2" class="edge">
<title>dir_34d8c116a98ee54e3e383a09eadea7c5&#45;&gt;dir_27bf6a35aa2eb0312e6ebe0593a6cab3</title>
<g id="a_edge2"><a xlink:href="dir_000087_000020.html" target="_top">
<path fill="none" stroke="#63b8ff" d="M478.71,-78.73C427.11,-75.92 254.91,-64.77 116,-35 115.9,-34.98 115.8,-34.96 115.69,-34.93"/>
<polygon fill="#63b8ff" stroke="#63b8ff" points="116.57,-31.55 106.01,-32.39 114.79,-38.32 116.57,-31.55"/>
</a>
</g>
<g id="a_edge2&#45;headlabel"><a xlink:href="dir_000087_000020.html" target="_top" xlink:title="1">
<text text-anchor="middle" x="120.77" y="-27.21" font-family="Helvetica,sans-Serif" font-size="10.00" fill="#63b8ff">1</text>
</a>
</g>
</g>
<!-- dir_34d8c116a98ee54e3e383a09eadea7c5&#45;&gt;dir_2926faa6d81a8066318a65bfc336f67b -->
<g id="edge3" class="edge">
<title>dir_34d8c116a98ee54e3e383a09eadea7c5&#45;&gt;dir_2926faa6d81a8066318a65bfc336f67b</title>
<g id="a_edge3"><a xlink:href="dir_000087_000000.html" target="_top">
<path fill="none" stroke="#63b8ff" d="M478.73,-78.49C432.71,-75.22 291.37,-63.6 165.54,-34.66"/>
<polygon fill="#63b8ff" stroke="#63b8ff" points="166.27,-31.24 155.74,-32.36 164.67,-38.05 166.27,-31.24"/>
</a>
</g>
<g id="a_edge3&#45;headlabel"><a xlink:href="dir_000087_000000.html" target="_top" xlink:title="5">
<text text-anchor="middle" x="170.42" y="-26.79" font-family="Helvetica,sans-Serif" font-size="10.00" fill="#63b8ff">5</text>
</a>
</g>
</g>
<!-- dir_34d8c116a98ee54e3e383a09eadea7c5&#45;&gt;dir_46e48f159c6fdd75bd63e946ebf1533e -->
<g id="edge4" class="edge">
<title>dir_34d8c116a98ee54e3e383a09eadea7c5&#45;&gt;dir_46e48f159c6fdd75bd63e946ebf1533e</title>
<g id="a_edge4"><a xlink:href="dir_000087_000042.html" target="_top">
<path fill="none" stroke="#63b8ff" d="M478.95,-77.84C438.55,-73.23 324.33,-59.12 220.24,-34.99"/>
<polygon fill="#63b8ff" stroke="#63b8ff" points="220.74,-31.51 210.2,-32.62 219.13,-38.32 220.74,-31.51"/>
</a>
</g>
<g id="a_edge4&#45;headlabel"><a xlink:href="dir_000087_000042.html" target="_top" xlink:title="3">
<text text-anchor="middle" x="224.89" y="-27.07" font-family="Helvetica,sans-Serif" font-size="10.00" fill="#63b8ff">3</text>
</a>
</g>
</g>
<!-- dir_34d8c116a98ee54e3e383a09eadea7c5&#45;&gt;dir_49892635ae30f06b98770bacb35a9385 -->
<g id="edge5" class="edge">
<title>dir_34d8c116a98ee54e3e383a09eadea7c5&#45;&gt;dir_49892635ae30f06b98770bacb35a9385</title>
<g id="a_edge5"><a xlink:href="dir_000087_000007.html" target="_top">
<path fill="none" stroke="#63b8ff" d="M478.99,-76.8C443.73,-70.37 352.94,-53.31 278,-35 277.9,-34.98 277.8,-34.95 277.7,-34.93"/>
<polygon fill="#63b8ff" stroke="#63b8ff" points="278.84,-31.61 268.28,-32.46 277.07,-38.38 278.84,-31.61"/>
</a>
</g>
<g id="a_edge5&#45;headlabel"><a xlink:href="dir_000087_000007.html" target="_top" xlink:title="18">
<text text-anchor="middle" x="283.04" y="-27.27" font-family="Helvetica,sans-Serif" font-size="10.00" fill="#63b8ff">18</text>
</a>
</g>
</g>
<!-- dir_34d8c116a98ee54e3e383a09eadea7c5&#45;&gt;dir_6b7615169cf4177f323b6deda6409b41 -->
<g id="edge7" class="edge">
<title>dir_34d8c116a98ee54e3e383a09eadea7c5&#45;&gt;dir_6b7615169cf4177f323b6deda6409b41</title>
<g id="a_edge7"><a xlink:href="dir_000087_000004.html" target="_top">
<path fill="none" stroke="#63b8ff" d="M478.7,-75.16C447.88,-66.43 377.86,-46.58 337.4,-35.11"/>
<polygon fill="#63b8ff" stroke="#63b8ff" points="338.12,-31.68 327.55,-32.32 336.21,-38.42 338.12,-31.68"/>
</a>
</g>
<g id="a_edge7&#45;headlabel"><a xlink:href="dir_000087_000004.html" target="_top" xlink:title="8">
<text text-anchor="middle" x="342.36" y="-27.43" font-family="Helvetica,sans-Serif" font-size="10.00" fill="#63b8ff">8</text>
</a>
</g>
</g>
<!-- dir_34d8c116a98ee54e3e383a09eadea7c5&#45;&gt;dir_78cc654a211fbf15eaa8c471d4d5c5ff -->
<g id="edge8" class="edge">
<title>dir_34d8c116a98ee54e3e383a09eadea7c5&#45;&gt;dir_78cc654a211fbf15eaa8c471d4d5c5ff</title>
<g id="a_edge8"><a xlink:href="dir_000087_000094.html" target="_top">
<path fill="none" stroke="#63b8ff" d="M478.81,-73.21C458.5,-64.8 422.02,-49.7 396.05,-38.94"/>
<polygon fill="#63b8ff" stroke="#63b8ff" points="397.24,-35.65 386.66,-35.05 394.56,-42.11 397.24,-35.65"/>
</a>
</g>
<g id="a_edge8&#45;headlabel"><a xlink:href="dir_000087_000094.html" target="_top" xlink:title="1">
<text text-anchor="middle" x="401.65" y="-31.9" font-family="Helvetica,sans-Serif" font-size="10.00" fill="#63b8ff">1</text>
</a>
</g>
</g>
<!-- dir_34d8c116a98ee54e3e383a09eadea7c5&#45;&gt;dir_81f981ce9e735fdd4ac8452d01660f4f -->
<g id="edge9" class="edge">
<title>dir_34d8c116a98ee54e3e383a09eadea7c5&#45;&gt;dir_81f981ce9e735fdd4ac8452d01660f4f</title>
<g id="a_edge9"><a xlink:href="dir_000087_000079.html" target="_top">
<path fill="none" stroke="#63b8ff" d="M484.2,-70.98C475.18,-63.15 461.59,-51.34 450.68,-41.86"/>
<polygon fill="#63b8ff" stroke="#63b8ff" points="452.82,-39.09 442.98,-35.17 448.23,-44.37 452.82,-39.09"/>
</a>
</g>
<g id="a_edge9&#45;headlabel"><a xlink:href="dir_000087_000079.html" target="_top" xlink:title="16">
<text text-anchor="middle" x="457.4" y="-36.8" font-family="Helvetica,sans-Serif" font-size="10.00" fill="#63b8ff">16</text>
</a>
</g>
</g>
<!-- dir_34d8c116a98ee54e3e383a09eadea7c5&#45;&gt;dir_900fadd3908af8f5d091140c3df49239 -->
<g id="edge10" class="edge">
<title>dir_34d8c116a98ee54e3e383a09eadea7c5&#45;&gt;dir_900fadd3908af8f5d091140c3df49239</title>
<g id="a_edge10"><a xlink:href="dir_000087_000046.html" target="_top">
<path fill="none" stroke="#63b8ff" d="M494,-70.75C494,-63.8 494,-53.85 494,-45.13"/>
<polygon fill="#63b8ff" stroke="#63b8ff" points="497.5,-45.09 494,-35.09 490.5,-45.09 497.5,-45.09"/>
</a>
</g>
<g id="a_edge10&#45;headlabel"><a xlink:href="dir_000087_000046.html" target="_top" xlink:title="6">
<text text-anchor="middle" x="500.34" y="-46.18" font-family="Helvetica,sans-Serif" font-size="10.00" fill="#63b8ff">6</text>
</a>
</g>
</g>
<!-- dir_34d8c116a98ee54e3e383a09eadea7c5&#45;&gt;dir_c5d369d8d52b23f00d4897c91e3e9a7a -->
<g id="edge11" class="edge">
<title>dir_34d8c116a98ee54e3e383a09eadea7c5&#45;&gt;dir_c5d369d8d52b23f00d4897c91e3e9a7a</title>
<g id="a_edge11"><a xlink:href="dir_000087_000060.html" target="_top">
<path fill="none" stroke="#63b8ff" d="M502.42,-70.75C509.77,-63.11 520.63,-51.82 529.54,-42.56"/>
<polygon fill="#63b8ff" stroke="#63b8ff" points="532.32,-44.72 536.74,-35.09 527.28,-39.87 532.32,-44.72"/>
</a>
</g>
<g id="a_edge11&#45;headlabel"><a xlink:href="dir_000087_000060.html" target="_top" xlink:title="3">
<text text-anchor="middle" x="531.88" y="-46.78" font-family="Helvetica,sans-Serif" font-size="10.00" fill="#63b8ff">3</text>
</a>
</g>
</g>
<!-- dir_34d8c116a98ee54e3e383a09eadea7c5&#45;&gt;dir_c63f27843881769261e9f0e02d97c751 -->
<g id="edge12" class="edge">
<title>dir_34d8c116a98ee54e3e383a09eadea7c5&#45;&gt;dir_c63f27843881769261e9f0e02d97c751</title>
<g id="a_edge12"><a xlink:href="dir_000087_000025.html" target="_top">
<path fill="none" stroke="#63b8ff" d="M509.33,-71.91C526.29,-63.51 553.93,-49.81 574.43,-39.66"/>
<polygon fill="#63b8ff" stroke="#63b8ff" points="576.16,-42.71 583.57,-35.14 573.05,-36.44 576.16,-42.71"/>
</a>
</g>
<g id="a_edge12&#45;headlabel"><a xlink:href="dir_000087_000025.html" target="_top" xlink:title="1">
<text text-anchor="middle" x="574.2" y="-44.35" font-family="Helvetica,sans-Serif" font-size="10.00" fill="#63b8ff">1</text>
</a>
</g>
</g>
<!-- dir_34d8c116a98ee54e3e383a09eadea7c5&#45;&gt;dir_c8beb12667e670be2c1fb7f9efa8bac3 -->
<g id="edge13" class="edge">
<title>dir_34d8c116a98ee54e3e383a09eadea7c5&#45;&gt;dir_c8beb12667e670be2c1fb7f9efa8bac3</title>
<g id="a_edge13"><a xlink:href="dir_000087_000012.html" target="_top">
<path fill="none" stroke="#63b8ff" d="M509.3,-74.7C536.33,-66.23 593.14,-48.41 629.6,-36.97"/>
<polygon fill="#63b8ff" stroke="#63b8ff" points="630.81,-40.26 639.31,-33.93 628.72,-33.58 630.81,-40.26"/>
</a>
</g>
<g id="a_edge13&#45;headlabel"><a xlink:href="dir_000087_000012.html" target="_top" xlink:title="2">
<text text-anchor="middle" x="628.23" y="-41.55" font-family="Helvetica,sans-Serif" font-size="10.00" fill="#63b8ff">2</text>
</a>
</g>
</g>
<!-- dir_34d8c116a98ee54e3e383a09eadea7c5&#45;&gt;dir_cce7e4eda75c585c784c6ea3659dc5d2 -->
<g id="edge15" class="edge">
<title>dir_34d8c116a98ee54e3e383a09eadea7c5&#45;&gt;dir_cce7e4eda75c585c784c6ea3659dc5d2</title>
<g id="a_edge15"><a xlink:href="dir_000087_000040.html" target="_top">
<path fill="none" stroke="#63b8ff" d="M509,-76.42C541.15,-69.79 619.27,-53.4 694.2,-35.36"/>
<polygon fill="#63b8ff" stroke="#63b8ff" points="695.37,-38.68 704.26,-32.93 693.72,-31.88 695.37,-38.68"/>
</a>
</g>
<g id="a_edge15&#45;headlabel"><a xlink:href="dir_000087_000040.html" target="_top" xlink:title="4">
<text text-anchor="middle" x="692.54" y="-39.79" font-family="Helvetica,sans-Serif" font-size="10.00" fill="#63b8ff">4</text>
</a>
</g>
</g>
<!-- dir_34d8c116a98ee54e3e383a09eadea7c5&#45;&gt;dir_dd4f5294299cd91ca8f126727715fb74 -->
<g id="edge16" class="edge">
<title>dir_34d8c116a98ee54e3e383a09eadea7c5&#45;&gt;dir_dd4f5294299cd91ca8f126727715fb74</title>
<g id="a_edge16"><a xlink:href="dir_000087_000047.html" target="_top">
<path fill="none" stroke="#63b8ff" d="M509.25,-77.91C549.05,-73.55 659.39,-60.22 759.42,-35.03"/>
<polygon fill="#63b8ff" stroke="#63b8ff" points="760.56,-38.35 769.37,-32.48 758.82,-31.57 760.56,-38.35"/>
</a>
</g>
<g id="a_edge16&#45;headlabel"><a xlink:href="dir_000087_000047.html" target="_top" xlink:title="1">
<text text-anchor="middle" x="757.78" y="-39.5" font-family="Helvetica,sans-Serif" font-size="10.00" fill="#63b8ff">1</text>
</a>
</g>
</g>
<!-- dir_34d8c116a98ee54e3e383a09eadea7c5&#45;&gt;dir_f9425c2010de9e0bfd045f1ea46112c8 -->
<g id="edge17" class="edge">
<title>dir_34d8c116a98ee54e3e383a09eadea7c5&#45;&gt;dir_f9425c2010de9e0bfd045f1ea46112c8</title>
<g id="a_edge17"><a xlink:href="dir_000087_000070.html" target="_top">
<path fill="none" stroke="#63b8ff" d="M509.24,-78.01C553.8,-73.51 687.82,-59.02 808.19,-35.17"/>
<polygon fill="#63b8ff" stroke="#63b8ff" points="809.19,-38.53 818.31,-33.13 807.82,-31.67 809.19,-38.53"/>
</a>
</g>
<g id="a_edge17&#45;headlabel"><a xlink:href="dir_000087_000070.html" target="_top" xlink:title="1">
<text text-anchor="middle" x="806.23" y="-39.53" font-family="Helvetica,sans-Serif" font-size="10.00" fill="#63b8ff">1</text>
</a>
</g>
</g>
<!-- dir_669c8d98ab0a41d3f42c455aff8a0105 -->
<g id="node17" class="node">
<title>dir_669c8d98ab0a41d3f42c455aff8a0105</title>
<g id="a_node17"><a xlink:href="dir_669c8d98ab0a41d3f42c455aff8a0105.html" target="_top" xlink:title="compat">
<polygon fill="#edf0f7" stroke="red" stroke-dasharray="5,2" points="936.5,-35 883.5,-35 883.5,-16 936.5,-16 936.5,-35"/>
<text text-anchor="middle" x="910" y="-23" font-family="Helvetica,sans-Serif" font-size="10.00">compat</text>
</a>
</g>
</g>
<!-- dir_34d8c116a98ee54e3e383a09eadea7c5&#45;&gt;dir_669c8d98ab0a41d3f42c455aff8a0105 -->
<g id="edge6" class="edge">
<title>dir_34d8c116a98ee54e3e383a09eadea7c5&#45;&gt;dir_669c8d98ab0a41d3f42c455aff8a0105</title>
<g id="a_edge6"><a xlink:href="dir_000087_000013.html" target="_top">
<path fill="none" stroke="#63b8ff" d="M509.12,-78.54C559.77,-75.14 728.11,-62.54 873.21,-35.79"/>
<polygon fill="#63b8ff" stroke="#63b8ff" points="873.99,-39.21 883.18,-33.93 872.7,-32.33 873.99,-39.21"/>
</a>
</g>
<g id="a_edge6&#45;headlabel"><a xlink:href="dir_000087_000013.html" target="_top" xlink:title="5">
<text text-anchor="middle" x="870.98" y="-40.16" font-family="Helvetica,sans-Serif" font-size="10.00" fill="#63b8ff">5</text>
</a>
</g>
</g>
<!-- dir_cba44140afe74f820e83d8e084616738 -->
<g id="node18" class="node">
<title>dir_cba44140afe74f820e83d8e084616738</title>
<g id="a_node18"><a xlink:href="dir_cba44140afe74f820e83d8e084616738.html" target="_top" xlink:title="include">
<polygon fill="#edf0f7" stroke="#7f7f7f" points="1007,-35 955,-35 955,-16 1007,-16 1007,-35"/>
<text text-anchor="middle" x="981" y="-23" font-family="Helvetica,sans-Serif" font-size="10.00">include</text>
</a>
</g>
</g>
<!-- dir_34d8c116a98ee54e3e383a09eadea7c5&#45;&gt;dir_cba44140afe74f820e83d8e084616738 -->
<g id="edge14" class="edge">
<title>dir_34d8c116a98ee54e3e383a09eadea7c5&#45;&gt;dir_cba44140afe74f820e83d8e084616738</title>
<g id="a_edge14"><a xlink:href="dir_000087_000045.html" target="_top">
<path fill="none" stroke="#63b8ff" d="M509.32,-78.77C565.89,-75.92 768.43,-64.28 944.74,-34.98"/>
<polygon fill="#63b8ff" stroke="#63b8ff" points="945.43,-38.42 954.71,-33.3 944.27,-31.51 945.43,-38.42"/>
</a>
</g>
<g id="a_edge14&#45;headlabel"><a xlink:href="dir_000087_000045.html" target="_top" xlink:title="14">
<text text-anchor="middle" x="942.36" y="-39.31" font-family="Helvetica,sans-Serif" font-size="10.00" fill="#63b8ff">14</text>
</a>
</g>
</g>
</g>
</svg>
