<?xml version="1.0" encoding="UTF-8" standalone="no"?>
<!DOCTYPE svg PUBLIC "-//W3C//DTD SVG 1.1//EN"
 "http://www.w3.org/Graphics/SVG/1.1/DTD/svg11.dtd">
<!-- Generated by graphviz version 2.43.0 (0)
 -->
<!-- Title: squid/lib Pages: 1 -->
<svg width="353pt" height="141pt"
 viewBox="0.00 0.00 353.00 141.00" xmlns="http://www.w3.org/2000/svg" xmlns:xlink="http://www.w3.org/1999/xlink">
<g id="graph0" class="graph" transform="scale(1 1) rotate(0) translate(4 137)">
<title>squid/lib</title>
<g id="clust1" class="cluster">
<title>clusterdir_3c69fff7f634b97773a4d39d4565ffb4</title>
<g id="a_clust1"><a xlink:href="dir_3c69fff7f634b97773a4d39d4565ffb4.html" target="_top" xlink:title="squid">
<polygon fill="#edf0f7" stroke="#404040" stroke-dasharray="5,2" points="8,-8 8,-125 337,-125 337,-8 8,-8"/>
<text text-anchor="middle" x="172.5" y="-113" font-family="Helvetica,sans-Serif" font-size="10.00">squid</text>
</a>
</g>
</g>
<g id="clust2" class="cluster">
<title>clusterdir_94dae81ba4a513a137753445de77fca5</title>
<g id="a_clust2"><a xlink:href="dir_94dae81ba4a513a137753445de77fca5.html" target="_top">
<polygon fill="#edf0f7" stroke="#404040" stroke-width="2" points="16,-63 16,-98 329,-98 329,-63 16,-63"/>
</a>
</g>
</g>
<!-- dir_cba44140afe74f820e83d8e084616738 -->
<g id="node1" class="node">
<title>dir_cba44140afe74f820e83d8e084616738</title>
<g id="a_node1"><a xlink:href="dir_cba44140afe74f820e83d8e084616738.html" target="_top" xlink:title="include">
<polygon fill="#eaeef6" stroke="#404040" points="192,-35 140,-35 140,-16 192,-16 192,-35"/>
<text text-anchor="middle" x="166" y="-23" font-family="Helvetica,sans-Serif" font-size="10.00">include</text>
</a>
</g>
</g>
<!-- dir_94dae81ba4a513a137753445de77fca5 -->
<g id="node2" class="node">
<title>dir_94dae81ba4a513a137753445de77fca5</title>
<text text-anchor="middle" x="306" y="-78" font-family="Helvetica,sans-Serif" font-size="10.00">lib</text>
</g>
<!-- dir_94dae81ba4a513a137753445de77fca5&#45;&gt;dir_cba44140afe74f820e83d8e084616738 -->
<g id="edge1" class="edge">
<title>dir_94dae81ba4a513a137753445de77fca5&#45;&gt;dir_cba44140afe74f820e83d8e084616738</title>
<g id="a_edge1"><a xlink:href="dir_000055_000045.html" target="_top">
<path fill="none" stroke="#63b8ff" d="M295.23,-70.69C291.51,-67.95 287.22,-65.1 283,-63 257.12,-50.1 225.75,-40.61 202.01,-34.55"/>
<polygon fill="#63b8ff" stroke="#63b8ff" points="202.56,-31.08 192.01,-32.08 200.88,-37.87 202.56,-31.08"/>
</a>
</g>
<g id="a_edge1&#45;headlabel"><a xlink:href="dir_000055_000045.html" target="_top" xlink:title="103">
<text text-anchor="middle" x="206.73" y="-26.68" font-family="Helvetica,sans-Serif" font-size="10.00" fill="#63b8ff">103</text>
</a>
</g>
</g>
<!-- dir_2f70efcc2970118a194fcf01c98a87b0 -->
<g id="node3" class="node">
<title>dir_2f70efcc2970118a194fcf01c98a87b0</title>
<g id="a_node3"><a xlink:href="dir_2f70efcc2970118a194fcf01c98a87b0.html" target="_top" xlink:title="ntlmauth">
<polygon fill="#eaeef6" stroke="#404040" points="273.5,-90 212.5,-90 212.5,-71 273.5,-71 273.5,-90"/>
<text text-anchor="middle" x="243" y="-78" font-family="Helvetica,sans-Serif" font-size="10.00">ntlmauth</text>
</a>
</g>
</g>
<!-- dir_2f70efcc2970118a194fcf01c98a87b0&#45;&gt;dir_cba44140afe74f820e83d8e084616738 -->
<g id="edge2" class="edge">
<title>dir_2f70efcc2970118a194fcf01c98a87b0&#45;&gt;dir_cba44140afe74f820e83d8e084616738</title>
<g id="a_edge2"><a xlink:href="dir_000066_000045.html" target="_top">
<path fill="none" stroke="#63b8ff" d="M230.63,-70.98C218.91,-62.92 201.08,-50.65 187.11,-41.03"/>
<polygon fill="#63b8ff" stroke="#63b8ff" points="188.82,-37.96 178.6,-35.17 184.85,-43.72 188.82,-37.96"/>
</a>
</g>
<g id="a_edge2&#45;headlabel"><a xlink:href="dir_000066_000045.html" target="_top" xlink:title="2">
<text text-anchor="middle" x="193.39" y="-35.16" font-family="Helvetica,sans-Serif" font-size="10.00" fill="#63b8ff">2</text>
</a>
</g>
</g>
<!-- dir_ee53d0b2c1955c23d179e3d156ac0747 -->
<g id="node4" class="node">
<title>dir_ee53d0b2c1955c23d179e3d156ac0747</title>
<g id="a_node4"><a xlink:href="dir_ee53d0b2c1955c23d179e3d156ac0747.html" target="_top" xlink:title="snmplib">
<polygon fill="#eaeef6" stroke="#404040" points="194,-90 138,-90 138,-71 194,-71 194,-90"/>
<text text-anchor="middle" x="166" y="-78" font-family="Helvetica,sans-Serif" font-size="10.00">snmplib</text>
</a>
</g>
</g>
<!-- dir_ee53d0b2c1955c23d179e3d156ac0747&#45;&gt;dir_cba44140afe74f820e83d8e084616738 -->
<g id="edge3" class="edge">
<title>dir_ee53d0b2c1955c23d179e3d156ac0747&#45;&gt;dir_cba44140afe74f820e83d8e084616738</title>
<g id="a_edge3"><a xlink:href="dir_000084_000045.html" target="_top">
<path fill="none" stroke="#63b8ff" d="M166,-70.75C166,-63.8 166,-53.85 166,-45.13"/>
<polygon fill="#63b8ff" stroke="#63b8ff" points="169.5,-45.09 166,-35.09 162.5,-45.09 169.5,-45.09"/>
</a>
</g>
<g id="a_edge3&#45;headlabel"><a xlink:href="dir_000084_000045.html" target="_top" xlink:title="72">
<text text-anchor="middle" x="172.34" y="-46.18" font-family="Helvetica,sans-Serif" font-size="10.00" fill="#63b8ff">72</text>
</a>
</g>
</g>
<!-- dir_f705ef520a3593f1e3f35a83216e9f08 -->
<g id="node5" class="node">
<title>dir_f705ef520a3593f1e3f35a83216e9f08</title>
<g id="a_node5"><a xlink:href="dir_f705ef520a3593f1e3f35a83216e9f08.html" target="_top" xlink:title="sspi">
<polygon fill="#eaeef6" stroke="#404040" points="120,-90 84,-90 84,-71 120,-71 120,-90"/>
<text text-anchor="middle" x="102" y="-78" font-family="Helvetica,sans-Serif" font-size="10.00">sspi</text>
</a>
</g>
</g>
<!-- dir_f705ef520a3593f1e3f35a83216e9f08&#45;&gt;dir_cba44140afe74f820e83d8e084616738 -->
<g id="edge4" class="edge">
<title>dir_f705ef520a3593f1e3f35a83216e9f08&#45;&gt;dir_cba44140afe74f820e83d8e084616738</title>
<g id="a_edge4"><a xlink:href="dir_000088_000045.html" target="_top">
<path fill="none" stroke="#63b8ff" d="M112.28,-70.98C121.84,-63.07 136.28,-51.11 147.78,-41.58"/>
<polygon fill="#63b8ff" stroke="#63b8ff" points="150.06,-44.24 155.53,-35.17 145.6,-38.85 150.06,-44.24"/>
</a>
</g>
<g id="a_edge4&#45;headlabel"><a xlink:href="dir_000088_000045.html" target="_top" xlink:title="3">
<text text-anchor="middle" x="149.1" y="-46.22" font-family="Helvetica,sans-Serif" font-size="10.00" fill="#63b8ff">3</text>
</a>
</g>
</g>
<!-- dir_95cd557742fcea6d7cfbd40060a2f68c -->
<g id="node6" class="node">
<title>dir_95cd557742fcea6d7cfbd40060a2f68c</title>
<g id="a_node6"><a xlink:href="dir_95cd557742fcea6d7cfbd40060a2f68c.html" target="_top" xlink:title="tests">
<polygon fill="#eaeef6" stroke="#404040" points="65.5,-90 24.5,-90 24.5,-71 65.5,-71 65.5,-90"/>
<text text-anchor="middle" x="45" y="-78" font-family="Helvetica,sans-Serif" font-size="10.00">tests</text>
</a>
</g>
</g>
<!-- dir_95cd557742fcea6d7cfbd40060a2f68c&#45;&gt;dir_cba44140afe74f820e83d8e084616738 -->
<g id="edge5" class="edge">
<title>dir_95cd557742fcea6d7cfbd40060a2f68c&#45;&gt;dir_cba44140afe74f820e83d8e084616738</title>
<g id="a_edge5"><a xlink:href="dir_000093_000045.html" target="_top">
<path fill="none" stroke="#63b8ff" d="M59.77,-70.91C64.56,-68.25 69.95,-65.39 75,-63 93.78,-54.11 115.33,-45.4 132.75,-38.72"/>
<polygon fill="#63b8ff" stroke="#63b8ff" points="134.37,-41.85 142.48,-35.04 131.88,-35.31 134.37,-41.85"/>
</a>
</g>
<g id="a_edge5&#45;headlabel"><a xlink:href="dir_000093_000045.html" target="_top" xlink:title="2">
<text text-anchor="middle" x="132.01" y="-43.28" font-family="Helvetica,sans-Serif" font-size="10.00" fill="#63b8ff">2</text>
</a>
</g>
</g>
</g>
</svg>
