<?xml version="1.0" encoding="UTF-8" standalone="no"?>
<!DOCTYPE svg PUBLIC "-//W3C//DTD SVG 1.1//EN"
 "http://www.w3.org/Graphics/SVG/1.1/DTD/svg11.dtd">
<!-- Generated by graphviz version 2.43.0 (0)
 -->
<!-- Title: squid/src/tests Pages: 1 -->
<!--zoomable 133 -->

<svg id="main" version="1.1" xmlns="http://www.w3.org/2000/svg" xmlns:xlink="http://www.w3.org/1999/xlink" xml:space="preserve" onload="init(evt)">
<style type="text/css"><![CDATA[
.node, .edge {opacity: 0.7;}
.node.selected, .edge.selected {opacity: 1;}
.edge:hover path { stroke: red; }
.edge:hover polygon { stroke: red; fill: red; }
]]></style>

<defs>
  <circle id="rim" cx="0" cy="0" r="7"/>
  <circle id="rim2" cx="0" cy="0" r="3.5"/>
  <g id="zoomPlus">
    <use xlink:href="#rim" fill="#404040"><set attributeName="fill" to="#808080" begin="zoomplus.mouseover" end="zoomplus.mouseout"/></use>
    <path d="M-4,0h8M0,-4v8" fill="none" stroke="white" stroke-width="1.5" pointer-events="none"/>
  </g>
  <g id="zoomMin">
    <use xlink:href="#rim" fill="#404040"><set attributeName="fill" to="#808080" begin="zoomminus.mouseover" end="zoomminus.mouseout"/></use>
    <path d="M-4,0h8" fill="none" stroke="white" stroke-width="1.5" pointer-events="none"/>
  </g>
  <g id="arrowUp" transform="translate(30 24)">
    <use xlink:href="#rim"/>
    <path pointer-events="none" fill="none" stroke="white" stroke-width="1.5" d="M0,-3.0v7 M-2.5,-0.5L0,-3.0L2.5,-0.5"/>
  </g>
  <g id="arrowRight" transform="rotate(90) translate(36 -43)">
    <use xlink:href="#rim"/>
    <path pointer-events="none" fill="none" stroke="white" stroke-width="1.5" d="M0,-3.0v7 M-2.5,-0.5L0,-3.0L2.5,-0.5"/>
  </g>
  <g id="arrowDown" transform="rotate(180) translate(-30 -48)">
    <use xlink:href="#rim"/>
    <path pointer-events="none" fill="none" stroke="white" stroke-width="1.5" d="M0,-3.0v7 M-2.5,-0.5L0,-3.0L2.5,-0.5"/>
  </g>
  <g id="arrowLeft" transform="rotate(270) translate(-36 17)">
    <use xlink:href="#rim"/>
    <path pointer-events="none" fill="none" stroke="white" stroke-width="1.5" d="M0,-3.0v7 M-2.5,-0.5L0,-3.0L2.5,-0.5"/>
  </g>
  <g id="resetDef">
    <use xlink:href="#rim2" fill="#404040"><set attributeName="fill" to="#808080" begin="reset.mouseover" end="reset.mouseout"/></use>
  </g>
</defs>
<script type="application/ecmascript">
var viewWidth = 1788;
var viewHeight = 133;
var sectionId = 'dynsection-0';
</script>
<script type="application/ecmascript" xlink:href="svg.min.js"/>
<svg id="graph" class="graph">
<g id="viewport">
<title>squid/src/tests</title>
<g id="clust1" class="cluster">
<title>clusterdir_27a06220d184fcc3bd2c56b7794ae45b</title>
<g id="a_clust1"><a xlink:href="dir_27a06220d184fcc3bd2c56b7794ae45b.html" target="_top" xlink:title="src">
<polygon fill="#edf0f7" stroke="#7f7f7f" stroke-dasharray="5,2" points="8,-8 8,-117 1647,-117 1647,-8 8,-8"/>
<text text-anchor="middle" x="827.5" y="-105" font-family="Helvetica,sans-Serif" font-size="10.00">src</text>
</a>
</g>
</g>
<!-- dir_008e24b6ef3ec489277636e4133de850 -->
<g id="node1" class="node">
<title>dir_008e24b6ef3ec489277636e4133de850</title>
<g id="a_node1"><a xlink:href="dir_008e24b6ef3ec489277636e4133de850.html" target="_top" xlink:title="sbuf">
<polygon fill="#eaeef6" stroke="#404040" points="54,-35 16,-35 16,-16 54,-16 54,-35"/>
<text text-anchor="middle" x="35" y="-23" font-family="Helvetica,sans-Serif" font-size="10.00">sbuf</text>
</a>
</g>
</g>
<!-- dir_1229afb8e52dfc1c3c62a62edc39069e -->
<g id="node2" class="node">
<title>dir_1229afb8e52dfc1c3c62a62edc39069e</title>
<g id="a_node2"><a xlink:href="dir_1229afb8e52dfc1c3c62a62edc39069e.html" target="_top" xlink:title="store">
<polygon fill="#eaeef6" stroke="#404040" points="113.5,-35 72.5,-35 72.5,-16 113.5,-16 113.5,-35"/>
<text text-anchor="middle" x="93" y="-23" font-family="Helvetica,sans-Serif" font-size="10.00">store</text>
</a>
</g>
</g>
<!-- dir_1ad05120b44f4919e1d77d58275d4190 -->
<g id="node3" class="node">
<title>dir_1ad05120b44f4919e1d77d58275d4190</title>
<g id="a_node3"><a xlink:href="dir_1ad05120b44f4919e1d77d58275d4190.html" target="_top" xlink:title="html">
<polygon fill="#eaeef6" stroke="#404040" points="170.5,-35 131.5,-35 131.5,-16 170.5,-16 170.5,-35"/>
<text text-anchor="middle" x="151" y="-23" font-family="Helvetica,sans-Serif" font-size="10.00">html</text>
</a>
</g>
</g>
<!-- dir_27bf6a35aa2eb0312e6ebe0593a6cab3 -->
<g id="node4" class="node">
<title>dir_27bf6a35aa2eb0312e6ebe0593a6cab3</title>
<g id="a_node4"><a xlink:href="dir_27bf6a35aa2eb0312e6ebe0593a6cab3.html" target="_top" xlink:title="dns">
<polygon fill="#eaeef6" stroke="#404040" points="223,-35 189,-35 189,-16 223,-16 223,-35"/>
<text text-anchor="middle" x="206" y="-23" font-family="Helvetica,sans-Serif" font-size="10.00">dns</text>
</a>
</g>
</g>
<!-- dir_2926faa6d81a8066318a65bfc336f67b -->
<g id="node5" class="node">
<title>dir_2926faa6d81a8066318a65bfc336f67b</title>
<g id="a_node5"><a xlink:href="dir_2926faa6d81a8066318a65bfc336f67b.html" target="_top" xlink:title="acl">
<polygon fill="#eaeef6" stroke="red" points="272.5,-35 241.5,-35 241.5,-16 272.5,-16 272.5,-35"/>
<text text-anchor="middle" x="257" y="-23" font-family="Helvetica,sans-Serif" font-size="10.00">acl</text>
</a>
</g>
</g>
<!-- dir_2e21134419e2db2c9a4ff64f0ab0ad8d -->
<g id="node6" class="node">
<title>dir_2e21134419e2db2c9a4ff64f0ab0ad8d</title>
<g id="a_node6"><a xlink:href="dir_2e21134419e2db2c9a4ff64f0ab0ad8d.html" target="_top" xlink:title="time">
<polygon fill="#eaeef6" stroke="#404040" points="329.5,-35 290.5,-35 290.5,-16 329.5,-16 329.5,-35"/>
<text text-anchor="middle" x="310" y="-23" font-family="Helvetica,sans-Serif" font-size="10.00">time</text>
</a>
</g>
</g>
<!-- dir_325033e05b374299803b755ab5d5550d -->
<g id="node7" class="node">
<title>dir_325033e05b374299803b755ab5d5550d</title>
<g id="a_node7"><a xlink:href="dir_325033e05b374299803b755ab5d5550d.html" target="_top" xlink:title="adaptation">
<polygon fill="#eaeef6" stroke="red" points="416.5,-35 347.5,-35 347.5,-16 416.5,-16 416.5,-35"/>
<text text-anchor="middle" x="382" y="-23" font-family="Helvetica,sans-Serif" font-size="10.00">adaptation</text>
</a>
</g>
</g>
<!-- dir_34d8c116a98ee54e3e383a09eadea7c5 -->
<g id="node8" class="node">
<title>dir_34d8c116a98ee54e3e383a09eadea7c5</title>
<g id="a_node8"><a xlink:href="dir_34d8c116a98ee54e3e383a09eadea7c5.html" target="_top" xlink:title="ssl">
<polygon fill="#eaeef6" stroke="#404040" points="465,-35 435,-35 435,-16 465,-16 465,-35"/>
<text text-anchor="middle" x="450" y="-23" font-family="Helvetica,sans-Serif" font-size="10.00">ssl</text>
</a>
</g>
</g>
<!-- dir_46e48f159c6fdd75bd63e946ebf1533e -->
<g id="node9" class="node">
<title>dir_46e48f159c6fdd75bd63e946ebf1533e</title>
<g id="a_node9"><a xlink:href="dir_46e48f159c6fdd75bd63e946ebf1533e.html" target="_top" xlink:title="http">
<polygon fill="#eaeef6" stroke="red" points="519,-35 483,-35 483,-16 519,-16 519,-35"/>
<text text-anchor="middle" x="501" y="-23" font-family="Helvetica,sans-Serif" font-size="10.00">http</text>
</a>
</g>
</g>
<!-- dir_49892635ae30f06b98770bacb35a9385 -->
<g id="node10" class="node">
<title>dir_49892635ae30f06b98770bacb35a9385</title>
<g id="a_node10"><a xlink:href="dir_49892635ae30f06b98770bacb35a9385.html" target="_top" xlink:title="base">
<polygon fill="#eaeef6" stroke="#404040" points="577,-35 537,-35 537,-16 577,-16 577,-35"/>
<text text-anchor="middle" x="557" y="-23" font-family="Helvetica,sans-Serif" font-size="10.00">base</text>
</a>
</g>
</g>
<!-- dir_55b0ad995e1786cdb535c62f30120969 -->
<g id="node11" class="node">
<title>dir_55b0ad995e1786cdb535c62f30120969</title>
<g id="a_node11"><a xlink:href="dir_55b0ad995e1786cdb535c62f30120969.html" target="_top" xlink:title="log">
<polygon fill="#eaeef6" stroke="red" points="627,-35 595,-35 595,-16 627,-16 627,-35"/>
<text text-anchor="middle" x="611" y="-23" font-family="Helvetica,sans-Serif" font-size="10.00">log</text>
</a>
</g>
</g>
<!-- dir_6b7615169cf4177f323b6deda6409b41 -->
<g id="node12" class="node">
<title>dir_6b7615169cf4177f323b6deda6409b41</title>
<g id="a_node12"><a xlink:href="dir_6b7615169cf4177f323b6deda6409b41.html" target="_top" xlink:title="anyp">
<polygon fill="#eaeef6" stroke="#404040" points="686.5,-35 645.5,-35 645.5,-16 686.5,-16 686.5,-35"/>
<text text-anchor="middle" x="666" y="-23" font-family="Helvetica,sans-Serif" font-size="10.00">anyp</text>
</a>
</g>
</g>
<!-- dir_72bd1cc4908af49389bffee6af8ae79c -->
<g id="node13" class="node">
<title>dir_72bd1cc4908af49389bffee6af8ae79c</title>
<g id="a_node13"><a xlink:href="dir_72bd1cc4908af49389bffee6af8ae79c.html" target="_top" xlink:title="mem">
<polygon fill="#eaeef6" stroke="#404040" points="747,-35 705,-35 705,-16 747,-16 747,-35"/>
<text text-anchor="middle" x="726" y="-23" font-family="Helvetica,sans-Serif" font-size="10.00">mem</text>
</a>
</g>
</g>
<!-- dir_81f981ce9e735fdd4ac8452d01660f4f -->
<g id="node14" class="node">
<title>dir_81f981ce9e735fdd4ac8452d01660f4f</title>
<g id="a_node14"><a xlink:href="dir_81f981ce9e735fdd4ac8452d01660f4f.html" target="_top" xlink:title="security">
<polygon fill="#eaeef6" stroke="red" points="821,-35 765,-35 765,-16 821,-16 821,-35"/>
<text text-anchor="middle" x="793" y="-23" font-family="Helvetica,sans-Serif" font-size="10.00">security</text>
</a>
</g>
</g>
<!-- dir_877c6be962203536ec0ede72ce1d02d8 -->
<g id="node15" class="node">
<title>dir_877c6be962203536ec0ede72ce1d02d8</title>
<g id="a_node15"><a xlink:href="dir_877c6be962203536ec0ede72ce1d02d8.html" target="_top" xlink:title="eui">
<polygon fill="#eaeef6" stroke="#404040" points="871,-35 839,-35 839,-16 871,-16 871,-35"/>
<text text-anchor="middle" x="855" y="-23" font-family="Helvetica,sans-Serif" font-size="10.00">eui</text>
</a>
</g>
</g>
<!-- dir_900fadd3908af8f5d091140c3df49239 -->
<g id="node16" class="node">
<title>dir_900fadd3908af8f5d091140c3df49239</title>
<g id="a_node16"><a xlink:href="dir_900fadd3908af8f5d091140c3df49239.html" target="_top" xlink:title="ip">
<polygon fill="#eaeef6" stroke="#404040" points="918.5,-35 889.5,-35 889.5,-16 918.5,-16 918.5,-35"/>
<text text-anchor="middle" x="904" y="-23" font-family="Helvetica,sans-Serif" font-size="10.00">ip</text>
</a>
</g>
</g>
<!-- dir_974c35a9e5da76de066be5bc9a9208f0 -->
<g id="node17" class="node">
<title>dir_974c35a9e5da76de066be5bc9a9208f0</title>
<g id="a_node17"><a xlink:href="dir_974c35a9e5da76de066be5bc9a9208f0.html" target="_top" xlink:title="debug">
<polygon fill="#eaeef6" stroke="#404040" points="983.5,-35 936.5,-35 936.5,-16 983.5,-16 983.5,-35"/>
<text text-anchor="middle" x="960" y="-23" font-family="Helvetica,sans-Serif" font-size="10.00">debug</text>
</a>
</g>
</g>
<!-- dir_a709f1c13cdcc3dd32e0e7a9b41904a5 -->
<g id="node18" class="node">
<title>dir_a709f1c13cdcc3dd32e0e7a9b41904a5</title>
<g id="a_node18"><a xlink:href="dir_a709f1c13cdcc3dd32e0e7a9b41904a5.html" target="_top" xlink:title="DiskIO">
<polygon fill="#eaeef6" stroke="red" points="1050.5,-35 1001.5,-35 1001.5,-16 1050.5,-16 1050.5,-35"/>
<text text-anchor="middle" x="1026" y="-23" font-family="Helvetica,sans-Serif" font-size="10.00">DiskIO</text>
</a>
</g>
</g>
<!-- dir_aa9ab13a9492763818e06702b5c02d59 -->
<g id="node19" class="node">
<title>dir_aa9ab13a9492763818e06702b5c02d59</title>
<g id="a_node19"><a xlink:href="dir_aa9ab13a9492763818e06702b5c02d59.html" target="_top" xlink:title="icmp">
<polygon fill="#eaeef6" stroke="#404040" points="1109.5,-35 1068.5,-35 1068.5,-16 1109.5,-16 1109.5,-35"/>
<text text-anchor="middle" x="1089" y="-23" font-family="Helvetica,sans-Serif" font-size="10.00">icmp</text>
</a>
</g>
</g>
<!-- dir_aac6bef21c08f140b9c9770a74a20a95 -->
<g id="node20" class="node">
<title>dir_aac6bef21c08f140b9c9770a74a20a95</title>
<g id="a_node20"><a xlink:href="dir_aac6bef21c08f140b9c9770a74a20a95.html" target="_top" xlink:title="auth">
<polygon fill="#eaeef6" stroke="red" points="1166,-35 1128,-35 1128,-16 1166,-16 1166,-35"/>
<text text-anchor="middle" x="1147" y="-23" font-family="Helvetica,sans-Serif" font-size="10.00">auth</text>
</a>
</g>
</g>
<!-- dir_c5d369d8d52b23f00d4897c91e3e9a7a -->
<g id="node21" class="node">
<title>dir_c5d369d8d52b23f00d4897c91e3e9a7a</title>
<g id="a_node21"><a xlink:href="dir_c5d369d8d52b23f00d4897c91e3e9a7a.html" target="_top" xlink:title="mgr">
<polygon fill="#eaeef6" stroke="#404040" points="1220,-35 1184,-35 1184,-16 1220,-16 1220,-35"/>
<text text-anchor="middle" x="1202" y="-23" font-family="Helvetica,sans-Serif" font-size="10.00">mgr</text>
</a>
</g>
</g>
<!-- dir_c63f27843881769261e9f0e02d97c751 -->
<g id="node22" class="node">
<title>dir_c63f27843881769261e9f0e02d97c751</title>
<g id="a_node22"><a xlink:href="dir_c63f27843881769261e9f0e02d97c751.html" target="_top" xlink:title="error">
<polygon fill="#eaeef6" stroke="#404040" points="1278,-35 1238,-35 1238,-16 1278,-16 1278,-35"/>
<text text-anchor="middle" x="1258" y="-23" font-family="Helvetica,sans-Serif" font-size="10.00">error</text>
</a>
</g>
</g>
<!-- dir_c8beb12667e670be2c1fb7f9efa8bac3 -->
<g id="node23" class="node">
<title>dir_c8beb12667e670be2c1fb7f9efa8bac3</title>
<g id="a_node23"><a xlink:href="dir_c8beb12667e670be2c1fb7f9efa8bac3.html" target="_top" xlink:title="comm">
<polygon fill="#eaeef6" stroke="#404040" points="1343.5,-35 1296.5,-35 1296.5,-16 1343.5,-16 1343.5,-35"/>
<text text-anchor="middle" x="1320" y="-23" font-family="Helvetica,sans-Serif" font-size="10.00">comm</text>
</a>
</g>
</g>
<!-- dir_cce7e4eda75c585c784c6ea3659dc5d2 -->
<g id="node24" class="node">
<title>dir_cce7e4eda75c585c784c6ea3659dc5d2</title>
<g id="a_node24"><a xlink:href="dir_cce7e4eda75c585c784c6ea3659dc5d2.html" target="_top" xlink:title="helper">
<polygon fill="#eaeef6" stroke="#404040" points="1408.5,-35 1361.5,-35 1361.5,-16 1408.5,-16 1408.5,-35"/>
<text text-anchor="middle" x="1385" y="-23" font-family="Helvetica,sans-Serif" font-size="10.00">helper</text>
</a>
</g>
</g>
<!-- dir_d213a8fe46ca211aae8dbe539bb9aa31 -->
<g id="node25" class="node">
<title>dir_d213a8fe46ca211aae8dbe539bb9aa31</title>
<g id="a_node25"><a xlink:href="dir_d213a8fe46ca211aae8dbe539bb9aa31.html" target="_top" xlink:title="format">
<polygon fill="#eaeef6" stroke="#404040" points="1477,-35 1427,-35 1427,-16 1477,-16 1477,-35"/>
<text text-anchor="middle" x="1452" y="-23" font-family="Helvetica,sans-Serif" font-size="10.00">format</text>
</a>
</g>
</g>
<!-- dir_d7fd326be3a24d275f9d3ec413e71e70 -->
<g id="node26" class="node">
<title>dir_d7fd326be3a24d275f9d3ec413e71e70</title>
<g id="a_node26"><a xlink:href="dir_d7fd326be3a24d275f9d3ec413e71e70.html" target="_top" xlink:title="fs">
<polygon fill="#eaeef6" stroke="red" points="1524.5,-35 1495.5,-35 1495.5,-16 1524.5,-16 1524.5,-35"/>
<text text-anchor="middle" x="1510" y="-23" font-family="Helvetica,sans-Serif" font-size="10.00">fs</text>
</a>
</g>
</g>
<!-- dir_dd4f5294299cd91ca8f126727715fb74 -->
<g id="node27" class="node">
<title>dir_dd4f5294299cd91ca8f126727715fb74</title>
<g id="a_node27"><a xlink:href="dir_dd4f5294299cd91ca8f126727715fb74.html" target="_top" xlink:title="ipc">
<polygon fill="#eaeef6" stroke="red" points="1573.5,-35 1542.5,-35 1542.5,-16 1573.5,-16 1573.5,-35"/>
<text text-anchor="middle" x="1558" y="-23" font-family="Helvetica,sans-Serif" font-size="10.00">ipc</text>
</a>
</g>
</g>
<!-- dir_f9425c2010de9e0bfd045f1ea46112c8 -->
<g id="node28" class="node">
<title>dir_f9425c2010de9e0bfd045f1ea46112c8</title>
<g id="a_node28"><a xlink:href="dir_f9425c2010de9e0bfd045f1ea46112c8.html" target="_top" xlink:title="parser">
<polygon fill="#eaeef6" stroke="#404040" points="1638.5,-35 1591.5,-35 1591.5,-16 1638.5,-16 1638.5,-35"/>
<text text-anchor="middle" x="1615" y="-23" font-family="Helvetica,sans-Serif" font-size="10.00">parser</text>
</a>
</g>
</g>
<!-- dir_78cc654a211fbf15eaa8c471d4d5c5ff -->
<g id="node29" class="node">
<title>dir_78cc654a211fbf15eaa8c471d4d5c5ff</title>
<g id="a_node29"><a xlink:href="dir_78cc654a211fbf15eaa8c471d4d5c5ff.html" target="_top" xlink:title="tests">
<polygon fill="#edf0f7" stroke="#404040" stroke-width="2" points="899.5,-90 858.5,-90 858.5,-71 899.5,-71 899.5,-90"/>
<text text-anchor="middle" x="879" y="-78" font-family="Helvetica,sans-Serif" font-size="10.00">tests</text>
</a>
</g>
</g>
<!-- dir_78cc654a211fbf15eaa8c471d4d5c5ff&#45;&gt;dir_008e24b6ef3ec489277636e4133de850 -->
<g id="edge1" class="edge">
<title>dir_78cc654a211fbf15eaa8c471d4d5c5ff&#45;&gt;dir_008e24b6ef3ec489277636e4133de850</title>
<g id="a_edge1"><a xlink:href="dir_000094_000077.html" target="_top">
<path fill="none" stroke="#63b8ff" d="M858.33,-79.02C747.59,-76.33 223.57,-62.36 64,-35 63.9,-34.98 63.8,-34.97 63.7,-34.95"/>
<polygon fill="#63b8ff" stroke="#63b8ff" points="64.72,-31.59 54.2,-32.8 63.18,-38.42 64.72,-31.59"/>
</a>
</g>
<g id="a_edge1&#45;headlabel"><a xlink:href="dir_000094_000077.html" target="_top" xlink:title="16">
<text text-anchor="middle" x="68.86" y="-27.11" font-family="Helvetica,sans-Serif" font-size="10.00" fill="#63b8ff">16</text>
</a>
</g>
</g>
<!-- dir_78cc654a211fbf15eaa8c471d4d5c5ff&#45;&gt;dir_1229afb8e52dfc1c3c62a62edc39069e -->
<g id="edge2" class="edge">
<title>dir_78cc654a211fbf15eaa8c471d4d5c5ff&#45;&gt;dir_1229afb8e52dfc1c3c62a62edc39069e</title>
<g id="a_edge2"><a xlink:href="dir_000094_000091.html" target="_top">
<path fill="none" stroke="#63b8ff" d="M858.37,-79.92C770.58,-81.36 419.46,-83.7 123.58,-34.64"/>
<polygon fill="#63b8ff" stroke="#63b8ff" points="123.96,-31.16 113.52,-32.95 122.8,-38.06 123.96,-31.16"/>
</a>
</g>
<g id="a_edge2&#45;headlabel"><a xlink:href="dir_000094_000091.html" target="_top" xlink:title="14">
<text text-anchor="middle" x="127.98" y="-26.45" font-family="Helvetica,sans-Serif" font-size="10.00" fill="#63b8ff">14</text>
</a>
</g>
</g>
<!-- dir_78cc654a211fbf15eaa8c471d4d5c5ff&#45;&gt;dir_1ad05120b44f4919e1d77d58275d4190 -->
<g id="edge3" class="edge">
<title>dir_78cc654a211fbf15eaa8c471d4d5c5ff&#45;&gt;dir_1ad05120b44f4919e1d77d58275d4190</title>
<g id="a_edge3"><a xlink:href="dir_000094_000041.html" target="_top">
<path fill="none" stroke="#63b8ff" d="M858.22,-79.85C774.34,-80.9 452.65,-81.6 180.58,-34.62"/>
<polygon fill="#63b8ff" stroke="#63b8ff" points="180.97,-31.14 170.52,-32.86 179.76,-38.03 180.97,-31.14"/>
</a>
</g>
<g id="a_edge3&#45;headlabel"><a xlink:href="dir_000094_000041.html" target="_top" xlink:title="1">
<text text-anchor="middle" x="185" y="-26.46" font-family="Helvetica,sans-Serif" font-size="10.00" fill="#63b8ff">1</text>
</a>
</g>
</g>
<!-- dir_78cc654a211fbf15eaa8c471d4d5c5ff&#45;&gt;dir_27bf6a35aa2eb0312e6ebe0593a6cab3 -->
<g id="edge4" class="edge">
<title>dir_78cc654a211fbf15eaa8c471d4d5c5ff&#45;&gt;dir_27bf6a35aa2eb0312e6ebe0593a6cab3</title>
<g id="a_edge4"><a xlink:href="dir_000094_000020.html" target="_top">
<path fill="none" stroke="#63b8ff" d="M858.41,-79.84C777.75,-80.79 475.74,-80.9 233,-35 232.9,-34.98 232.8,-34.96 232.7,-34.94"/>
<polygon fill="#63b8ff" stroke="#63b8ff" points="233.82,-31.62 223.27,-32.6 232.14,-38.41 233.82,-31.62"/>
</a>
</g>
<g id="a_edge4&#45;headlabel"><a xlink:href="dir_000094_000020.html" target="_top" xlink:title="2">
<text text-anchor="middle" x="238" y="-27.23" font-family="Helvetica,sans-Serif" font-size="10.00" fill="#63b8ff">2</text>
</a>
</g>
</g>
<!-- dir_78cc654a211fbf15eaa8c471d4d5c5ff&#45;&gt;dir_2926faa6d81a8066318a65bfc336f67b -->
<g id="edge5" class="edge">
<title>dir_78cc654a211fbf15eaa8c471d4d5c5ff&#45;&gt;dir_2926faa6d81a8066318a65bfc336f67b</title>
<g id="a_edge5"><a xlink:href="dir_000094_000000.html" target="_top">
<path fill="none" stroke="#63b8ff" d="M858.38,-79.84C782.55,-80.69 512.07,-80.31 282.57,-34.51"/>
<polygon fill="#63b8ff" stroke="#63b8ff" points="283.2,-31.07 272.7,-32.51 281.81,-37.93 283.2,-31.07"/>
</a>
</g>
<g id="a_edge5&#45;headlabel"><a xlink:href="dir_000094_000000.html" target="_top" xlink:title="9">
<text text-anchor="middle" x="287.29" y="-26.5" font-family="Helvetica,sans-Serif" font-size="10.00" fill="#63b8ff">9</text>
</a>
</g>
</g>
<!-- dir_78cc654a211fbf15eaa8c471d4d5c5ff&#45;&gt;dir_2e21134419e2db2c9a4ff64f0ab0ad8d -->
<g id="edge6" class="edge">
<title>dir_78cc654a211fbf15eaa8c471d4d5c5ff&#45;&gt;dir_2e21134419e2db2c9a4ff64f0ab0ad8d</title>
<g id="a_edge6"><a xlink:href="dir_000094_000095.html" target="_top">
<path fill="none" stroke="#63b8ff" d="M858.2,-79.3C786.99,-78.29 546.45,-72.3 339.36,-34.63"/>
<polygon fill="#63b8ff" stroke="#63b8ff" points="339.99,-31.18 329.53,-32.81 338.72,-38.07 339.99,-31.18"/>
</a>
</g>
<g id="a_edge6&#45;headlabel"><a xlink:href="dir_000094_000095.html" target="_top" xlink:title="5">
<text text-anchor="middle" x="344.05" y="-26.54" font-family="Helvetica,sans-Serif" font-size="10.00" fill="#63b8ff">5</text>
</a>
</g>
</g>
<!-- dir_78cc654a211fbf15eaa8c471d4d5c5ff&#45;&gt;dir_325033e05b374299803b755ab5d5550d -->
<g id="edge7" class="edge">
<title>dir_78cc654a211fbf15eaa8c471d4d5c5ff&#45;&gt;dir_325033e05b374299803b755ab5d5550d</title>
<g id="a_edge7"><a xlink:href="dir_000094_000002.html" target="_top">
<path fill="none" stroke="#63b8ff" d="M858.15,-78.14C794.88,-73.89 599.43,-59.66 426.58,-34.94"/>
<polygon fill="#63b8ff" stroke="#63b8ff" points="426.93,-31.45 416.54,-33.49 425.93,-38.38 426.93,-31.45"/>
</a>
</g>
<g id="a_edge7&#45;headlabel"><a xlink:href="dir_000094_000002.html" target="_top" xlink:title="2">
<text text-anchor="middle" x="430.9" y="-26.66" font-family="Helvetica,sans-Serif" font-size="10.00" fill="#63b8ff">2</text>
</a>
</g>
</g>
<!-- dir_78cc654a211fbf15eaa8c471d4d5c5ff&#45;&gt;dir_34d8c116a98ee54e3e383a09eadea7c5 -->
<g id="edge8" class="edge">
<title>dir_78cc654a211fbf15eaa8c471d4d5c5ff&#45;&gt;dir_34d8c116a98ee54e3e383a09eadea7c5</title>
<g id="a_edge8"><a xlink:href="dir_000094_000087.html" target="_top">
<path fill="none" stroke="#63b8ff" d="M858.5,-78.91C799.86,-76.89 626.47,-68.5 475.02,-34.7"/>
<polygon fill="#63b8ff" stroke="#63b8ff" points="475.61,-31.24 465.08,-32.43 474.05,-38.07 475.61,-31.24"/>
</a>
</g>
<g id="a_edge8&#45;headlabel"><a xlink:href="dir_000094_000087.html" target="_top" xlink:title="4">
<text text-anchor="middle" x="479.74" y="-26.77" font-family="Helvetica,sans-Serif" font-size="10.00" fill="#63b8ff">4</text>
</a>
</g>
</g>
<!-- dir_78cc654a211fbf15eaa8c471d4d5c5ff&#45;&gt;dir_46e48f159c6fdd75bd63e946ebf1533e -->
<g id="edge9" class="edge">
<title>dir_78cc654a211fbf15eaa8c471d4d5c5ff&#45;&gt;dir_46e48f159c6fdd75bd63e946ebf1533e</title>
<g id="a_edge9"><a xlink:href="dir_000094_000042.html" target="_top">
<path fill="none" stroke="#63b8ff" d="M858.21,-78.17C804.95,-74.48 659.26,-62.68 529.3,-34.91"/>
<polygon fill="#63b8ff" stroke="#63b8ff" points="529.7,-31.42 519.18,-32.71 528.21,-38.26 529.7,-31.42"/>
</a>
</g>
<g id="a_edge9&#45;headlabel"><a xlink:href="dir_000094_000042.html" target="_top" xlink:title="14">
<text text-anchor="middle" x="533.81" y="-26.91" font-family="Helvetica,sans-Serif" font-size="10.00" fill="#63b8ff">14</text>
</a>
</g>
</g>
<!-- dir_78cc654a211fbf15eaa8c471d4d5c5ff&#45;&gt;dir_49892635ae30f06b98770bacb35a9385 -->
<g id="edge10" class="edge">
<title>dir_78cc654a211fbf15eaa8c471d4d5c5ff&#45;&gt;dir_49892635ae30f06b98770bacb35a9385</title>
<g id="a_edge10"><a xlink:href="dir_000094_000007.html" target="_top">
<path fill="none" stroke="#63b8ff" d="M858.22,-77.32C811.47,-72.2 694.35,-58.24 587.2,-35"/>
<polygon fill="#63b8ff" stroke="#63b8ff" points="587.71,-31.53 577.19,-32.79 586.2,-38.36 587.71,-31.53"/>
</a>
</g>
<g id="a_edge10&#45;headlabel"><a xlink:href="dir_000094_000007.html" target="_top" xlink:title="19">
<text text-anchor="middle" x="591.83" y="-27.03" font-family="Helvetica,sans-Serif" font-size="10.00" fill="#63b8ff">19</text>
</a>
</g>
</g>
<!-- dir_78cc654a211fbf15eaa8c471d4d5c5ff&#45;&gt;dir_55b0ad995e1786cdb535c62f30120969 -->
<g id="edge11" class="edge">
<title>dir_78cc654a211fbf15eaa8c471d4d5c5ff&#45;&gt;dir_55b0ad995e1786cdb535c62f30120969</title>
<g id="a_edge11"><a xlink:href="dir_000094_000056.html" target="_top">
<path fill="none" stroke="#63b8ff" d="M858.4,-76.67C816.39,-70.68 717.94,-55.57 637,-35 636.9,-34.97 636.8,-34.95 636.7,-34.92"/>
<polygon fill="#63b8ff" stroke="#63b8ff" points="637.71,-31.57 627.13,-32.14 635.76,-38.29 637.71,-31.57"/>
</a>
</g>
<g id="a_edge11&#45;headlabel"><a xlink:href="dir_000094_000056.html" target="_top" xlink:title="10">
<text text-anchor="middle" x="641.95" y="-27.35" font-family="Helvetica,sans-Serif" font-size="10.00" fill="#63b8ff">10</text>
</a>
</g>
</g>
<!-- dir_78cc654a211fbf15eaa8c471d4d5c5ff&#45;&gt;dir_6b7615169cf4177f323b6deda6409b41 -->
<g id="edge13" class="edge">
<title>dir_78cc654a211fbf15eaa8c471d4d5c5ff&#45;&gt;dir_6b7615169cf4177f323b6deda6409b41</title>
<g id="a_edge13"><a xlink:href="dir_000094_000004.html" target="_top">
<path fill="none" stroke="#63b8ff" d="M858.35,-74.75C826.05,-67.25 761.38,-52.02 696.6,-35.08"/>
<polygon fill="#63b8ff" stroke="#63b8ff" points="697.19,-31.61 686.63,-32.45 695.41,-38.38 697.19,-31.61"/>
</a>
</g>
<g id="a_edge13&#45;headlabel"><a xlink:href="dir_000094_000004.html" target="_top" xlink:title="4">
<text text-anchor="middle" x="701.39" y="-27.28" font-family="Helvetica,sans-Serif" font-size="10.00" fill="#63b8ff">4</text>
</a>
</g>
</g>
<!-- dir_78cc654a211fbf15eaa8c471d4d5c5ff&#45;&gt;dir_72bd1cc4908af49389bffee6af8ae79c -->
<g id="edge14" class="edge">
<title>dir_78cc654a211fbf15eaa8c471d4d5c5ff&#45;&gt;dir_72bd1cc4908af49389bffee6af8ae79c</title>
<g id="a_edge14"><a xlink:href="dir_000094_000059.html" target="_top">
<path fill="none" stroke="#63b8ff" d="M858.37,-72.35C832.28,-63.31 787.13,-47.68 756.91,-37.21"/>
<polygon fill="#63b8ff" stroke="#63b8ff" points="757.88,-33.84 747.29,-33.87 755.59,-40.46 757.88,-33.84"/>
</a>
</g>
<g id="a_edge14&#45;headlabel"><a xlink:href="dir_000094_000059.html" target="_top" xlink:title="6">
<text text-anchor="middle" x="762.21" y="-29.83" font-family="Helvetica,sans-Serif" font-size="10.00" fill="#63b8ff">6</text>
</a>
</g>
</g>
<!-- dir_78cc654a211fbf15eaa8c471d4d5c5ff&#45;&gt;dir_81f981ce9e735fdd4ac8452d01660f4f -->
<g id="edge15" class="edge">
<title>dir_78cc654a211fbf15eaa8c471d4d5c5ff&#45;&gt;dir_81f981ce9e735fdd4ac8452d01660f4f</title>
<g id="a_edge15"><a xlink:href="dir_000094_000079.html" target="_top">
<path fill="none" stroke="#63b8ff" d="M865.18,-70.98C851.85,-62.77 831.42,-50.18 815.69,-40.49"/>
<polygon fill="#63b8ff" stroke="#63b8ff" points="817.42,-37.44 807.07,-35.17 813.75,-43.4 817.42,-37.44"/>
</a>
</g>
<g id="a_edge15&#45;headlabel"><a xlink:href="dir_000094_000079.html" target="_top" xlink:title="13">
<text text-anchor="middle" x="821.97" y="-34.41" font-family="Helvetica,sans-Serif" font-size="10.00" fill="#63b8ff">13</text>
</a>
</g>
</g>
<!-- dir_78cc654a211fbf15eaa8c471d4d5c5ff&#45;&gt;dir_877c6be962203536ec0ede72ce1d02d8 -->
<g id="edge16" class="edge">
<title>dir_78cc654a211fbf15eaa8c471d4d5c5ff&#45;&gt;dir_877c6be962203536ec0ede72ce1d02d8</title>
<g id="a_edge16"><a xlink:href="dir_000094_000026.html" target="_top">
<path fill="none" stroke="#63b8ff" d="M875.04,-70.75C871.79,-63.57 867.08,-53.18 863.05,-44.27"/>
<polygon fill="#63b8ff" stroke="#63b8ff" points="866.2,-42.75 858.89,-35.09 859.83,-45.64 866.2,-42.75"/>
</a>
</g>
<g id="a_edge16&#45;headlabel"><a xlink:href="dir_000094_000026.html" target="_top" xlink:title="3">
<text text-anchor="middle" x="870.27" y="-42.36" font-family="Helvetica,sans-Serif" font-size="10.00" fill="#63b8ff">3</text>
</a>
</g>
</g>
<!-- dir_78cc654a211fbf15eaa8c471d4d5c5ff&#45;&gt;dir_900fadd3908af8f5d091140c3df49239 -->
<g id="edge17" class="edge">
<title>dir_78cc654a211fbf15eaa8c471d4d5c5ff&#45;&gt;dir_900fadd3908af8f5d091140c3df49239</title>
<g id="a_edge17"><a xlink:href="dir_000094_000046.html" target="_top">
<path fill="none" stroke="#63b8ff" d="M883.13,-70.75C886.51,-63.57 891.42,-53.18 895.62,-44.27"/>
<polygon fill="#63b8ff" stroke="#63b8ff" points="898.85,-45.63 899.95,-35.09 892.52,-42.64 898.85,-45.63"/>
</a>
</g>
<g id="a_edge17&#45;headlabel"><a xlink:href="dir_000094_000046.html" target="_top" xlink:title="7">
<text text-anchor="middle" x="899.88" y="-47.59" font-family="Helvetica,sans-Serif" font-size="10.00" fill="#63b8ff">7</text>
</a>
</g>
</g>
<!-- dir_78cc654a211fbf15eaa8c471d4d5c5ff&#45;&gt;dir_974c35a9e5da76de066be5bc9a9208f0 -->
<g id="edge18" class="edge">
<title>dir_78cc654a211fbf15eaa8c471d4d5c5ff&#45;&gt;dir_974c35a9e5da76de066be5bc9a9208f0</title>
<g id="a_edge18"><a xlink:href="dir_000094_000014.html" target="_top">
<path fill="none" stroke="#63b8ff" d="M892.01,-70.98C904.46,-62.84 923.46,-50.41 938.21,-40.76"/>
<polygon fill="#63b8ff" stroke="#63b8ff" points="940.3,-43.57 946.75,-35.17 936.46,-37.72 940.3,-43.57"/>
</a>
</g>
<g id="a_edge18&#45;headlabel"><a xlink:href="dir_000094_000014.html" target="_top" xlink:title="4">
<text text-anchor="middle" x="938.84" y="-45.42" font-family="Helvetica,sans-Serif" font-size="10.00" fill="#63b8ff">4</text>
</a>
</g>
</g>
<!-- dir_78cc654a211fbf15eaa8c471d4d5c5ff&#45;&gt;dir_a709f1c13cdcc3dd32e0e7a9b41904a5 -->
<g id="edge19" class="edge">
<title>dir_78cc654a211fbf15eaa8c471d4d5c5ff&#45;&gt;dir_a709f1c13cdcc3dd32e0e7a9b41904a5</title>
<g id="a_edge19"><a xlink:href="dir_000094_000018.html" target="_top">
<path fill="none" stroke="#63b8ff" d="M899.75,-72.02C923.82,-63.34 963.84,-48.91 992.37,-38.62"/>
<polygon fill="#63b8ff" stroke="#63b8ff" points="993.72,-41.86 1001.94,-35.17 991.34,-35.27 993.72,-41.86"/>
</a>
</g>
<g id="a_edge19&#45;headlabel"><a xlink:href="dir_000094_000018.html" target="_top" xlink:title="7">
<text text-anchor="middle" x="991.3" y="-43.25" font-family="Helvetica,sans-Serif" font-size="10.00" fill="#63b8ff">7</text>
</a>
</g>
</g>
<!-- dir_78cc654a211fbf15eaa8c471d4d5c5ff&#45;&gt;dir_aa9ab13a9492763818e06702b5c02d59 -->
<g id="edge20" class="edge">
<title>dir_78cc654a211fbf15eaa8c471d4d5c5ff&#45;&gt;dir_aa9ab13a9492763818e06702b5c02d59</title>
<g id="a_edge20"><a xlink:href="dir_000094_000044.html" target="_top">
<path fill="none" stroke="#63b8ff" d="M899.71,-74.72C931.77,-67.26 995.56,-52.14 1058.72,-35.26"/>
<polygon fill="#63b8ff" stroke="#63b8ff" points="1059.69,-38.63 1068.44,-32.65 1057.87,-31.87 1059.69,-38.63"/>
</a>
</g>
<g id="a_edge20&#45;headlabel"><a xlink:href="dir_000094_000044.html" target="_top" xlink:title="4">
<text text-anchor="middle" x="1056.95" y="-39.8" font-family="Helvetica,sans-Serif" font-size="10.00" fill="#63b8ff">4</text>
</a>
</g>
</g>
<!-- dir_78cc654a211fbf15eaa8c471d4d5c5ff&#45;&gt;dir_aac6bef21c08f140b9c9770a74a20a95 -->
<g id="edge21" class="edge">
<title>dir_78cc654a211fbf15eaa8c471d4d5c5ff&#45;&gt;dir_aac6bef21c08f140b9c9770a74a20a95</title>
<g id="a_edge21"><a xlink:href="dir_000094_000006.html" target="_top">
<path fill="none" stroke="#63b8ff" d="M899.71,-76.46C939.94,-70.38 1031.57,-55.71 1117.85,-35.05"/>
<polygon fill="#63b8ff" stroke="#63b8ff" points="1118.91,-38.4 1127.8,-32.64 1117.25,-31.59 1118.91,-38.4"/>
</a>
</g>
<g id="a_edge21&#45;headlabel"><a xlink:href="dir_000094_000006.html" target="_top" xlink:title="14">
<text text-anchor="middle" x="1116.08" y="-39.5" font-family="Helvetica,sans-Serif" font-size="10.00" fill="#63b8ff">14</text>
</a>
</g>
</g>
<!-- dir_78cc654a211fbf15eaa8c471d4d5c5ff&#45;&gt;dir_c5d369d8d52b23f00d4897c91e3e9a7a -->
<g id="edge22" class="edge">
<title>dir_78cc654a211fbf15eaa8c471d4d5c5ff&#45;&gt;dir_c5d369d8d52b23f00d4897c91e3e9a7a</title>
<g id="a_edge22"><a xlink:href="dir_000094_000060.html" target="_top">
<path fill="none" stroke="#63b8ff" d="M899.66,-77.51C946.75,-72.75 1065.73,-59.39 1174.03,-34.9"/>
<polygon fill="#63b8ff" stroke="#63b8ff" points="1174.85,-38.3 1183.81,-32.65 1173.28,-31.48 1174.85,-38.3"/>
</a>
</g>
<g id="a_edge22&#45;headlabel"><a xlink:href="dir_000094_000060.html" target="_top" xlink:title="26">
<text text-anchor="middle" x="1171.98" y="-39.38" font-family="Helvetica,sans-Serif" font-size="10.00" fill="#63b8ff">26</text>
</a>
</g>
</g>
<!-- dir_78cc654a211fbf15eaa8c471d4d5c5ff&#45;&gt;dir_c63f27843881769261e9f0e02d97c751 -->
<g id="edge23" class="edge">
<title>dir_78cc654a211fbf15eaa8c471d4d5c5ff&#45;&gt;dir_c63f27843881769261e9f0e02d97c751</title>
<g id="a_edge23"><a xlink:href="dir_000094_000025.html" target="_top">
<path fill="none" stroke="#63b8ff" d="M899.7,-78.02C952.74,-73.99 1097.86,-61.44 1227.71,-34.96"/>
<polygon fill="#63b8ff" stroke="#63b8ff" points="1228.74,-38.32 1237.82,-32.86 1227.32,-31.46 1228.74,-38.32"/>
</a>
</g>
<g id="a_edge23&#45;headlabel"><a xlink:href="dir_000094_000025.html" target="_top" xlink:title="2">
<text text-anchor="middle" x="1225.8" y="-39.33" font-family="Helvetica,sans-Serif" font-size="10.00" fill="#63b8ff">2</text>
</a>
</g>
</g>
<!-- dir_78cc654a211fbf15eaa8c471d4d5c5ff&#45;&gt;dir_c8beb12667e670be2c1fb7f9efa8bac3 -->
<g id="edge24" class="edge">
<title>dir_78cc654a211fbf15eaa8c471d4d5c5ff&#45;&gt;dir_c8beb12667e670be2c1fb7f9efa8bac3</title>
<g id="a_edge24"><a xlink:href="dir_000094_000012.html" target="_top">
<path fill="none" stroke="#63b8ff" d="M899.53,-78.31C958.26,-74.67 1132.11,-62.39 1286.18,-34.87"/>
<polygon fill="#63b8ff" stroke="#63b8ff" points="1287.08,-38.27 1296.3,-33.04 1285.83,-31.38 1287.08,-38.27"/>
</a>
</g>
<g id="a_edge24&#45;headlabel"><a xlink:href="dir_000094_000012.html" target="_top" xlink:title="18">
<text text-anchor="middle" x="1284.05" y="-39.2" font-family="Helvetica,sans-Serif" font-size="10.00" fill="#63b8ff">18</text>
</a>
</g>
</g>
<!-- dir_78cc654a211fbf15eaa8c471d4d5c5ff&#45;&gt;dir_cce7e4eda75c585c784c6ea3659dc5d2 -->
<g id="edge26" class="edge">
<title>dir_78cc654a211fbf15eaa8c471d4d5c5ff&#45;&gt;dir_cce7e4eda75c585c784c6ea3659dc5d2</title>
<g id="a_edge26"><a xlink:href="dir_000094_000040.html" target="_top">
<path fill="none" stroke="#63b8ff" d="M899.96,-78.77C965.43,-76.24 1172.04,-66.3 1351.46,-35"/>
<polygon fill="#63b8ff" stroke="#63b8ff" points="1352.1,-38.45 1361.33,-33.26 1350.88,-31.55 1352.1,-38.45"/>
</a>
</g>
<g id="a_edge26&#45;headlabel"><a xlink:href="dir_000094_000040.html" target="_top" xlink:title="1">
<text text-anchor="middle" x="1349.05" y="-39.37" font-family="Helvetica,sans-Serif" font-size="10.00" fill="#63b8ff">1</text>
</a>
</g>
</g>
<!-- dir_78cc654a211fbf15eaa8c471d4d5c5ff&#45;&gt;dir_d213a8fe46ca211aae8dbe539bb9aa31 -->
<g id="edge27" class="edge">
<title>dir_78cc654a211fbf15eaa8c471d4d5c5ff&#45;&gt;dir_d213a8fe46ca211aae8dbe539bb9aa31</title>
<g id="a_edge27"><a xlink:href="dir_000094_000035.html" target="_top">
<path fill="none" stroke="#63b8ff" d="M899.71,-79C970.59,-77.04 1210.01,-68.33 1416.72,-34.93"/>
<polygon fill="#63b8ff" stroke="#63b8ff" points="1417.54,-38.35 1426.84,-33.27 1416.41,-31.44 1417.54,-38.35"/>
</a>
</g>
<g id="a_edge27&#45;headlabel"><a xlink:href="dir_000094_000035.html" target="_top" xlink:title="2">
<text text-anchor="middle" x="1414.45" y="-39.23" font-family="Helvetica,sans-Serif" font-size="10.00" fill="#63b8ff">2</text>
</a>
</g>
</g>
<!-- dir_78cc654a211fbf15eaa8c471d4d5c5ff&#45;&gt;dir_d7fd326be3a24d275f9d3ec413e71e70 -->
<g id="edge28" class="edge">
<title>dir_78cc654a211fbf15eaa8c471d4d5c5ff&#45;&gt;dir_d7fd326be3a24d275f9d3ec413e71e70</title>
<g id="a_edge28"><a xlink:href="dir_000094_000036.html" target="_top">
<path fill="none" stroke="#63b8ff" d="M899.71,-79.97C976.51,-81.29 1252.08,-82.37 1485.43,-34.44"/>
<polygon fill="#63b8ff" stroke="#63b8ff" points="1486.38,-37.82 1495.45,-32.35 1484.95,-30.97 1486.38,-37.82"/>
</a>
</g>
<g id="a_edge28&#45;headlabel"><a xlink:href="dir_000094_000036.html" target="_top" xlink:title="2">
<text text-anchor="middle" x="1483.44" y="-38.83" font-family="Helvetica,sans-Serif" font-size="10.00" fill="#63b8ff">2</text>
</a>
</g>
</g>
<!-- dir_78cc654a211fbf15eaa8c471d4d5c5ff&#45;&gt;dir_dd4f5294299cd91ca8f126727715fb74 -->
<g id="edge29" class="edge">
<title>dir_78cc654a211fbf15eaa8c471d4d5c5ff&#45;&gt;dir_dd4f5294299cd91ca8f126727715fb74</title>
<g id="a_edge29"><a xlink:href="dir_000094_000047.html" target="_top">
<path fill="none" stroke="#63b8ff" d="M899.64,-78.85C994.43,-75.78 1389.18,-61.7 1532.54,-34.67"/>
<polygon fill="#63b8ff" stroke="#63b8ff" points="1533.3,-38.09 1542.42,-32.7 1531.93,-31.23 1533.3,-38.09"/>
</a>
</g>
<g id="a_edge29&#45;headlabel"><a xlink:href="dir_000094_000047.html" target="_top" xlink:title="5">
<text text-anchor="middle" x="1530.33" y="-39.08" font-family="Helvetica,sans-Serif" font-size="10.00" fill="#63b8ff">5</text>
</a>
</g>
</g>
<!-- dir_78cc654a211fbf15eaa8c471d4d5c5ff&#45;&gt;dir_f9425c2010de9e0bfd045f1ea46112c8 -->
<g id="edge30" class="edge">
<title>dir_78cc654a211fbf15eaa8c471d4d5c5ff&#45;&gt;dir_f9425c2010de9e0bfd045f1ea46112c8</title>
<g id="a_edge30"><a xlink:href="dir_000094_000070.html" target="_top">
<path fill="none" stroke="#63b8ff" d="M899.61,-79.67C983.51,-80.05 1307.52,-78.57 1581.22,-34.97"/>
<polygon fill="#63b8ff" stroke="#63b8ff" points="1582.03,-38.39 1591.35,-33.34 1580.92,-31.48 1582.03,-38.39"/>
</a>
</g>
<g id="a_edge30&#45;headlabel"><a xlink:href="dir_000094_000070.html" target="_top" xlink:title="1">
<text text-anchor="middle" x="1578.94" y="-39.26" font-family="Helvetica,sans-Serif" font-size="10.00" fill="#63b8ff">1</text>
</a>
</g>
</g>
<!-- dir_669c8d98ab0a41d3f42c455aff8a0105 -->
<g id="node30" class="node">
<title>dir_669c8d98ab0a41d3f42c455aff8a0105</title>
<g id="a_node30"><a xlink:href="dir_669c8d98ab0a41d3f42c455aff8a0105.html" target="_top" xlink:title="compat">
<polygon fill="#edf0f7" stroke="red" stroke-dasharray="5,2" points="1709.5,-35 1656.5,-35 1656.5,-16 1709.5,-16 1709.5,-35"/>
<text text-anchor="middle" x="1683" y="-23" font-family="Helvetica,sans-Serif" font-size="10.00">compat</text>
</a>
</g>
</g>
<!-- dir_78cc654a211fbf15eaa8c471d4d5c5ff&#45;&gt;dir_669c8d98ab0a41d3f42c455aff8a0105 -->
<g id="edge12" class="edge">
<title>dir_78cc654a211fbf15eaa8c471d4d5c5ff&#45;&gt;dir_669c8d98ab0a41d3f42c455aff8a0105</title>
<g id="a_edge12"><a xlink:href="dir_000094_000013.html" target="_top">
<path fill="none" stroke="#63b8ff" d="M899.74,-79.83C988.8,-80.95 1347.53,-82.2 1646.05,-35.65"/>
<polygon fill="#63b8ff" stroke="#63b8ff" points="1646.87,-39.06 1656.2,-34.04 1645.77,-32.15 1646.87,-39.06"/>
</a>
</g>
<g id="a_edge12&#45;headlabel"><a xlink:href="dir_000094_000013.html" target="_top" xlink:title="42">
<text text-anchor="middle" x="1643.76" y="-39.93" font-family="Helvetica,sans-Serif" font-size="10.00" fill="#63b8ff">42</text>
</a>
</g>
</g>
<!-- dir_cba44140afe74f820e83d8e084616738 -->
<g id="node31" class="node">
<title>dir_cba44140afe74f820e83d8e084616738</title>
<g id="a_node31"><a xlink:href="dir_cba44140afe74f820e83d8e084616738.html" target="_top" xlink:title="include">
<polygon fill="#edf0f7" stroke="#7f7f7f" points="1780,-35 1728,-35 1728,-16 1780,-16 1780,-35"/>
<text text-anchor="middle" x="1754" y="-23" font-family="Helvetica,sans-Serif" font-size="10.00">include</text>
</a>
</g>
</g>
<!-- dir_78cc654a211fbf15eaa8c471d4d5c5ff&#45;&gt;dir_cba44140afe74f820e83d8e084616738 -->
<g id="edge25" class="edge">
<title>dir_78cc654a211fbf15eaa8c471d4d5c5ff&#45;&gt;dir_cba44140afe74f820e83d8e084616738</title>
<g id="a_edge25"><a xlink:href="dir_000094_000045.html" target="_top">
<path fill="none" stroke="#63b8ff" d="M899.6,-79.81C993.1,-80.92 1386.79,-82.48 1717.47,-34.93"/>
<polygon fill="#63b8ff" stroke="#63b8ff" points="1718.34,-38.34 1727.73,-33.43 1717.33,-31.41 1718.34,-38.34"/>
</a>
</g>
<g id="a_edge25&#45;headlabel"><a xlink:href="dir_000094_000045.html" target="_top" xlink:title="165">
<text text-anchor="middle" x="1715.19" y="-39.17" font-family="Helvetica,sans-Serif" font-size="10.00" fill="#63b8ff">165</text>
</a>
</g>
</g>
</g>
</svg>

<g id="navigator" transform="translate(0 0)" fill="#404254">
  <rect fill="#f2f5e9" fill-opacity="0.5" stroke="#606060" stroke-width=".5" x="0" y="0" width="60" height="60"/>
  <use id="zoomplus" xlink:href="#zoomPlus" x="17" y="9" onmousedown="handleZoom(evt,'in')"/>
  <use id="zoomminus" xlink:href="#zoomMin" x="42" y="9" onmousedown="handleZoom(evt,'out')"/>
  <use id="reset" xlink:href="#resetDef" x="30" y="36" onmousedown="handleReset()"/>
   <use id="arrowup" xlink:href="#arrowUp" x="0" y="0" onmousedown="handlePan(0,-1)"/>
  <use id="arrowright" xlink:href="#arrowRight" x="0" y="0" onmousedown="handlePan(1,0)"/>
  <use id="arrowdown" xlink:href="#arrowDown" x="0" y="0" onmousedown="handlePan(0,1)"/>
  <use id="arrowleft" xlink:href="#arrowLeft" x="0" y="0" onmousedown="handlePan(-1,0)"/>
</g>
<svg viewBox="0 0 15 15" width="100%" height="30px" preserveAspectRatio="xMaxYMin meet">
 <g id="arrow_out" transform="scale(0.3 0.3)">
  <a xlink:href="dir_78cc654a211fbf15eaa8c471d4d5c5ff_dep_org.svg" target="_base">
   <rect id="button" ry="5" rx="5" y="6" x="6" height="38" width="38"
        fill="#f2f5e9" fill-opacity="0.5" stroke="#606060" stroke-width="1.0"/>
   <path id="arrow"
     d="M 11.500037,31.436501 C 11.940474,20.09759 22.043105,11.32322 32.158766,21.979434 L 37.068811,17.246167 C 37.068811,17.246167 37.088388,32 37.088388,32 L 22.160133,31.978069 C 22.160133,31.978069 26.997745,27.140456 26.997745,27.140456 C 18.528582,18.264221 13.291696,25.230495 11.500037,31.436501 z"
     style="fill:#404040;"/>
  </a>
 </g>
</svg>

<style type='text/css'>
<![CDATA[
[data-mouse-over-selected='false'] { opacity: 0.7; }
[data-mouse-over-selected='true']  { opacity: 1.0; }
]]>
</style>
<script type="application/ecmascript"><![CDATA[
document.addEventListener('DOMContentLoaded', (event) => {
  highlightEdges();
  highlightAdjacentNodes();
});
]]></script>
</svg>
