<?xml version="1.0" encoding="UTF-8" standalone="no"?>
<!DOCTYPE svg PUBLIC "-//W3C//DTD SVG 1.1//EN"
 "http://www.w3.org/Graphics/SVG/1.1/DTD/svg11.dtd">
<!-- Generated by graphviz version 2.43.0 (0)
 -->
<!-- Title: squid/src/DiskIO/DiskDaemon/DiskdIOStrategy.h Pages: 1 -->
<svg width="710pt" height="104pt"
 viewBox="0.00 0.00 709.50 104.00" xmlns="http://www.w3.org/2000/svg" xmlns:xlink="http://www.w3.org/1999/xlink">
<g id="graph0" class="graph" transform="scale(1 1) rotate(0) translate(4 100)">
<title>squid/src/DiskIO/DiskDaemon/DiskdIOStrategy.h</title>
<!-- Node1 -->
<g id="Node000001" class="node">
<title>Node1</title>
<g id="a_Node000001"><a xlink:title=" ">
<polygon fill="#999999" stroke="#666666" points="432.5,-96 271.5,-96 271.5,-66 432.5,-66 432.5,-96"/>
<text text-anchor="start" x="279.5" y="-84" font-family="Helvetica,sans-Serif" font-size="10.00">squid/src/DiskIO/DiskDaemon</text>
<text text-anchor="middle" x="352" y="-73" font-family="Helvetica,sans-Serif" font-size="10.00">/DiskdIOStrategy.h</text>
</a>
</g>
</g>
<!-- Node2 -->
<g id="Node000002" class="node">
<title>Node2</title>
<g id="a_Node000002"><a xlink:href="DiskDaemonDiskIOModule_8cc.html" target="_top" xlink:title=" ">
<polygon fill="white" stroke="#666666" points="164,-30 0,-30 0,0 164,0 164,-30"/>
<text text-anchor="start" x="8" y="-18" font-family="Helvetica,sans-Serif" font-size="10.00">squid/src/DiskIO/DiskDaemon</text>
<text text-anchor="middle" x="82" y="-7" font-family="Helvetica,sans-Serif" font-size="10.00">/DiskDaemonDiskIOModule.cc</text>
</a>
</g>
</g>
<!-- Node1&#45;&gt;Node2 -->
<g id="edge1_Node000001_Node000002" class="edge">
<title>Node1&#45;&gt;Node2</title>
<g id="a_edge1_Node000001_Node000002"><a xlink:title=" ">
<path fill="none" stroke="#63b8ff" d="M283.02,-63.65C239.15,-53.25 182.93,-39.93 141.11,-30.01"/>
<polygon fill="#63b8ff" stroke="#63b8ff" points="282.21,-67.05 292.75,-65.95 283.82,-60.24 282.21,-67.05"/>
</a>
</g>
</g>
<!-- Node3 -->
<g id="Node000003" class="node">
<title>Node3</title>
<g id="a_Node000003"><a xlink:href="DiskdAction_8cc.html" target="_top" xlink:title=" ">
<polygon fill="white" stroke="#666666" points="343.5,-30 182.5,-30 182.5,0 343.5,0 343.5,-30"/>
<text text-anchor="start" x="190.5" y="-18" font-family="Helvetica,sans-Serif" font-size="10.00">squid/src/DiskIO/DiskDaemon</text>
<text text-anchor="middle" x="263" y="-7" font-family="Helvetica,sans-Serif" font-size="10.00">/DiskdAction.cc</text>
</a>
</g>
</g>
<!-- Node1&#45;&gt;Node3 -->
<g id="edge2_Node000001_Node000003" class="edge">
<title>Node1&#45;&gt;Node3</title>
<g id="a_edge2_Node000001_Node000003"><a xlink:title=" ">
<path fill="none" stroke="#63b8ff" d="M323.84,-59.75C310.46,-50.13 294.78,-38.86 282.7,-30.16"/>
<polygon fill="#63b8ff" stroke="#63b8ff" points="322.09,-62.8 332.25,-65.8 326.17,-57.12 322.09,-62.8"/>
</a>
</g>
</g>
<!-- Node4 -->
<g id="Node000004" class="node">
<title>Node4</title>
<g id="a_Node000004"><a xlink:href="DiskdFile_8cc.html" target="_top" xlink:title=" ">
<polygon fill="white" stroke="#666666" points="522.5,-30 361.5,-30 361.5,0 522.5,0 522.5,-30"/>
<text text-anchor="start" x="369.5" y="-18" font-family="Helvetica,sans-Serif" font-size="10.00">squid/src/DiskIO/DiskDaemon</text>
<text text-anchor="middle" x="442" y="-7" font-family="Helvetica,sans-Serif" font-size="10.00">/DiskdFile.cc</text>
</a>
</g>
</g>
<!-- Node1&#45;&gt;Node4 -->
<g id="edge3_Node000001_Node000004" class="edge">
<title>Node1&#45;&gt;Node4</title>
<g id="a_edge3_Node000001_Node000004"><a xlink:title=" ">
<path fill="none" stroke="#63b8ff" d="M380.47,-59.75C394.01,-50.13 409.86,-38.86 422.08,-30.16"/>
<polygon fill="#63b8ff" stroke="#63b8ff" points="378.1,-57.15 371.97,-65.8 382.15,-62.85 378.1,-57.15"/>
</a>
</g>
</g>
<!-- Node5 -->
<g id="Node000005" class="node">
<title>Node5</title>
<g id="a_Node000005"><a xlink:href="DiskdIOStrategy_8cc.html" target="_top" xlink:title=" ">
<polygon fill="white" stroke="#666666" points="701.5,-30 540.5,-30 540.5,0 701.5,0 701.5,-30"/>
<text text-anchor="start" x="548.5" y="-18" font-family="Helvetica,sans-Serif" font-size="10.00">squid/src/DiskIO/DiskDaemon</text>
<text text-anchor="middle" x="621" y="-7" font-family="Helvetica,sans-Serif" font-size="10.00">/DiskdIOStrategy.cc</text>
</a>
</g>
</g>
<!-- Node1&#45;&gt;Node5 -->
<g id="edge4_Node000001_Node000005" class="edge">
<title>Node1&#45;&gt;Node5</title>
<g id="a_edge4_Node000001_Node000005"><a xlink:title=" ">
<path fill="none" stroke="#63b8ff" d="M421,-63.58C464.67,-53.19 520.53,-39.9 562.1,-30.01"/>
<polygon fill="#63b8ff" stroke="#63b8ff" points="419.95,-60.24 411.03,-65.95 421.57,-67.05 419.95,-60.24"/>
</a>
</g>
</g>
</g>
</svg>
