<?xml version="1.0" encoding="UTF-8" standalone="no"?>
<!DOCTYPE svg PUBLIC "-//W3C//DTD SVG 1.1//EN"
 "http://www.w3.org/Graphics/SVG/1.1/DTD/svg11.dtd">
<!-- Generated by graphviz version 2.43.0 (0)
 -->
<!-- Title: squid/src/auth/digest/eDirectory/edir_ldapext.cc Pages: 1 -->
<svg width="3952pt" height="324pt"
 viewBox="0.00 0.00 3952.00 324.00" xmlns="http://www.w3.org/2000/svg" xmlns:xlink="http://www.w3.org/1999/xlink">
<g id="graph0" class="graph" transform="scale(1 1) rotate(0) translate(4 320)">
<title>squid/src/auth/digest/eDirectory/edir_ldapext.cc</title>
<!-- Node1 -->
<g id="Node000001" class="node">
<title>Node1</title>
<g id="a_Node000001"><a xlink:title=" ">
<polygon fill="#999999" stroke="#666666" points="3756.5,-316 3608.5,-316 3608.5,-286 3756.5,-286 3756.5,-316"/>
<text text-anchor="start" x="3616.5" y="-304" font-family="Helvetica,sans-Serif" font-size="10.00">squid/src/auth/digest</text>
<text text-anchor="middle" x="3682.5" y="-293" font-family="Helvetica,sans-Serif" font-size="10.00">/eDirectory/edir_ldapext.cc</text>
</a>
</g>
</g>
<!-- Node2 -->
<g id="Node000002" class="node">
<title>Node2</title>
<g id="a_Node000002"><a xlink:href="squid_8h.html" target="_top" xlink:title=" ">
<polygon fill="white" stroke="#666666" points="1720.5,-244.5 1668.5,-244.5 1668.5,-225.5 1720.5,-225.5 1720.5,-244.5"/>
<text text-anchor="middle" x="1694.5" y="-232.5" font-family="Helvetica,sans-Serif" font-size="10.00">squid.h</text>
</a>
</g>
</g>
<!-- Node1&#45;&gt;Node2 -->
<g id="edge1_Node000001_Node000002" class="edge">
<title>Node1&#45;&gt;Node2</title>
<g id="a_edge1_Node000001_Node000002"><a xlink:title=" ">
<path fill="none" stroke="#63b8ff" d="M3608.5,-297.62C3280.81,-287.07 1966.33,-244.75 1730.74,-237.17"/>
<polygon fill="#63b8ff" stroke="#63b8ff" points="1730.76,-233.67 1720.65,-236.84 1730.54,-240.66 1730.76,-233.67"/>
</a>
</g>
</g>
<!-- Node45 -->
<g id="Node000045" class="node">
<title>Node45</title>
<g id="a_Node000045"><a xlink:href="eDirectory_2digest__common_8h.html" target="_top" xlink:title=" ">
<polygon fill="white" stroke="#666666" points="3525,-250 3400,-250 3400,-220 3525,-220 3525,-250"/>
<text text-anchor="start" x="3408" y="-238" font-family="Helvetica,sans-Serif" font-size="10.00">auth/digest/eDirectory</text>
<text text-anchor="middle" x="3462.5" y="-227" font-family="Helvetica,sans-Serif" font-size="10.00">/digest_common.h</text>
</a>
</g>
</g>
<!-- Node1&#45;&gt;Node45 -->
<g id="edge39_Node000001_Node000045" class="edge">
<title>Node1&#45;&gt;Node45</title>
<g id="a_edge39_Node000001_Node000045"><a xlink:title=" ">
<path fill="none" stroke="#63b8ff" d="M3634.22,-285.95C3600.69,-276.2 3555.85,-263.16 3520.4,-252.84"/>
<polygon fill="#63b8ff" stroke="#63b8ff" points="3521.25,-249.44 3510.67,-250.01 3519.29,-256.17 3521.25,-249.44"/>
</a>
</g>
</g>
<!-- Node51 -->
<g id="Node000051" class="node">
<title>Node51</title>
<g id="a_Node000051"><a xlink:href="Sensitive_8h.html" target="_top" xlink:title=" ">
<polygon fill="white" stroke="#666666" points="3642,-244.5 3543,-244.5 3543,-225.5 3642,-225.5 3642,-244.5"/>
<text text-anchor="middle" x="3592.5" y="-232.5" font-family="Helvetica,sans-Serif" font-size="10.00">mem/Sensitive.h</text>
</a>
</g>
</g>
<!-- Node1&#45;&gt;Node51 -->
<g id="edge46_Node000001_Node000051" class="edge">
<title>Node1&#45;&gt;Node51</title>
<g id="a_edge46_Node000001_Node000051"><a xlink:title=" ">
<path fill="none" stroke="#63b8ff" d="M3662.53,-285.8C3647.86,-275.37 3627.99,-261.24 3613.16,-250.69"/>
<polygon fill="#63b8ff" stroke="#63b8ff" points="3614.85,-247.6 3604.68,-244.66 3610.8,-253.31 3614.85,-247.6"/>
</a>
</g>
</g>
<!-- Node52 -->
<g id="Node000052" class="node">
<title>Node52</title>
<g id="a_Node000052"><a xlink:title=" ">
<polygon fill="#e0e0e0" stroke="#999999" points="3704.5,-244.5 3660.5,-244.5 3660.5,-225.5 3704.5,-225.5 3704.5,-244.5"/>
<text text-anchor="middle" x="3682.5" y="-232.5" font-family="Helvetica,sans-Serif" font-size="10.00">lber.h</text>
</a>
</g>
</g>
<!-- Node1&#45;&gt;Node52 -->
<g id="edge48_Node000001_Node000052" class="edge">
<title>Node1&#45;&gt;Node52</title>
<g id="a_edge48_Node000001_Node000052"><a xlink:title=" ">
<path fill="none" stroke="#63b8ff" d="M3682.5,-285.8C3682.5,-276.7 3682.5,-264.79 3682.5,-254.9"/>
<polygon fill="#63b8ff" stroke="#63b8ff" points="3686,-254.84 3682.5,-244.84 3679,-254.84 3686,-254.84"/>
</a>
</g>
</g>
<!-- Node53 -->
<g id="Node000053" class="node">
<title>Node53</title>
<g id="a_Node000053"><a xlink:title=" ">
<polygon fill="#e0e0e0" stroke="#999999" points="3770,-244.5 3723,-244.5 3723,-225.5 3770,-225.5 3770,-244.5"/>
<text text-anchor="middle" x="3746.5" y="-232.5" font-family="Helvetica,sans-Serif" font-size="10.00">ldap.h</text>
</a>
</g>
</g>
<!-- Node1&#45;&gt;Node53 -->
<g id="edge49_Node000001_Node000053" class="edge">
<title>Node1&#45;&gt;Node53</title>
<g id="a_edge49_Node000001_Node000053"><a xlink:title=" ">
<path fill="none" stroke="#63b8ff" d="M3696.7,-285.8C3706.68,-275.82 3720.04,-262.46 3730.41,-252.09"/>
<polygon fill="#63b8ff" stroke="#63b8ff" points="3733.06,-254.39 3737.66,-244.84 3728.11,-249.44 3733.06,-254.39"/>
</a>
</g>
</g>
<!-- Node54 -->
<g id="Node000054" class="node">
<title>Node54</title>
<g id="a_Node000054"><a xlink:href="edir__ldapext_8h.html" target="_top" xlink:title=" ">
<polygon fill="white" stroke="#666666" points="3874.5,-244.5 3788.5,-244.5 3788.5,-225.5 3874.5,-225.5 3874.5,-244.5"/>
<text text-anchor="middle" x="3831.5" y="-232.5" font-family="Helvetica,sans-Serif" font-size="10.00">edir_ldapext.h</text>
</a>
</g>
</g>
<!-- Node1&#45;&gt;Node54 -->
<g id="edge50_Node000001_Node000054" class="edge">
<title>Node1&#45;&gt;Node54</title>
<g id="a_edge50_Node000001_Node000054"><a xlink:title=" ">
<path fill="none" stroke="#63b8ff" d="M3715.2,-285.95C3741.21,-274.78 3777.28,-259.29 3802.33,-248.53"/>
<polygon fill="#63b8ff" stroke="#63b8ff" points="3803.86,-251.68 3811.67,-244.52 3801.1,-245.25 3803.86,-251.68"/>
</a>
</g>
</g>
<!-- Node55 -->
<g id="Node000055" class="node">
<title>Node55</title>
<g id="a_Node000055"><a xlink:title=" ">
<polygon fill="#e0e0e0" stroke="#999999" points="3944,-244.5 3893,-244.5 3893,-225.5 3944,-225.5 3944,-244.5"/>
<text text-anchor="middle" x="3918.5" y="-232.5" font-family="Helvetica,sans-Serif" font-size="10.00">cwchar</text>
</a>
</g>
</g>
<!-- Node1&#45;&gt;Node55 -->
<g id="edge51_Node000001_Node000055" class="edge">
<title>Node1&#45;&gt;Node55</title>
<g id="a_edge51_Node000001_Node000055"><a xlink:title=" ">
<path fill="none" stroke="#63b8ff" d="M3748.77,-285.92C3788.27,-276.93 3839.18,-264.3 3883.5,-250 3885.17,-249.46 3886.87,-248.88 3888.59,-248.28"/>
<polygon fill="#63b8ff" stroke="#63b8ff" points="3890.18,-251.41 3898.31,-244.62 3887.72,-244.86 3890.18,-251.41"/>
</a>
</g>
</g>
<!-- Node3 -->
<g id="Node000003" class="node">
<title>Node3</title>
<g id="a_Node000003"><a xlink:href="autoconf_8h.html" target="_top" xlink:title=" ">
<polygon fill="white" stroke="#666666" points="1595.5,-184 1527.5,-184 1527.5,-165 1595.5,-165 1595.5,-184"/>
<text text-anchor="middle" x="1561.5" y="-172" font-family="Helvetica,sans-Serif" font-size="10.00">autoconf.h</text>
</a>
</g>
</g>
<!-- Node2&#45;&gt;Node3 -->
<g id="edge2_Node000002_Node000003" class="edge">
<title>Node2&#45;&gt;Node3</title>
<g id="a_edge2_Node000002_Node000003"><a xlink:title=" ">
<path fill="none" stroke="#63b8ff" d="M1675.16,-225.49C1652.8,-215.66 1615.79,-199.38 1590.1,-188.08"/>
<polygon fill="#63b8ff" stroke="#63b8ff" points="1591.43,-184.84 1580.86,-184.02 1588.61,-191.25 1591.43,-184.84"/>
</a>
</g>
</g>
<!-- Node4 -->
<g id="Node000004" class="node">
<title>Node4</title>
<g id="a_Node000004"><a xlink:href="version_8h.html" target="_top" xlink:title=" ">
<polygon fill="white" stroke="#666666" points="1675.5,-184 1613.5,-184 1613.5,-165 1675.5,-165 1675.5,-184"/>
<text text-anchor="middle" x="1644.5" y="-172" font-family="Helvetica,sans-Serif" font-size="10.00">version.h</text>
</a>
</g>
</g>
<!-- Node2&#45;&gt;Node4 -->
<g id="edge3_Node000002_Node000004" class="edge">
<title>Node2&#45;&gt;Node4</title>
<g id="a_edge3_Node000002_Node000004"><a xlink:title=" ">
<path fill="none" stroke="#63b8ff" d="M1687.12,-225.37C1679.59,-216.55 1667.71,-202.66 1658.41,-191.77"/>
<polygon fill="#63b8ff" stroke="#63b8ff" points="1661.07,-189.5 1651.91,-184.17 1655.74,-194.04 1661.07,-189.5"/>
</a>
</g>
</g>
<!-- Node5 -->
<g id="Node000005" class="node">
<title>Node5</title>
<g id="a_Node000005"><a xlink:href="compat_8h.html" target="_top" xlink:title=" ">
<polygon fill="white" stroke="#666666" points="1795.5,-184 1693.5,-184 1693.5,-165 1795.5,-165 1795.5,-184"/>
<text text-anchor="middle" x="1744.5" y="-172" font-family="Helvetica,sans-Serif" font-size="10.00">compat/compat.h</text>
</a>
</g>
</g>
<!-- Node2&#45;&gt;Node5 -->
<g id="edge4_Node000002_Node000005" class="edge">
<title>Node2&#45;&gt;Node5</title>
<g id="a_edge4_Node000002_Node000005"><a xlink:title=" ">
<path fill="none" stroke="#63b8ff" d="M1701.88,-225.37C1709.41,-216.55 1721.29,-202.66 1730.59,-191.77"/>
<polygon fill="#63b8ff" stroke="#63b8ff" points="1733.26,-194.04 1737.09,-184.17 1727.93,-189.5 1733.26,-194.04"/>
</a>
</g>
</g>
<!-- Node6 -->
<g id="Node000006" class="node">
<title>Node6</title>
<g id="a_Node000006"><a xlink:href="osdetect_8h.html" target="_top" xlink:title=" ">
<polygon fill="white" stroke="#666666" points="107,-129 0,-129 0,-110 107,-110 107,-129"/>
<text text-anchor="middle" x="53.5" y="-117" font-family="Helvetica,sans-Serif" font-size="10.00">compat/osdetect.h</text>
</a>
</g>
</g>
<!-- Node5&#45;&gt;Node6 -->
<g id="edge5_Node000005_Node000006" class="edge">
<title>Node5&#45;&gt;Node6</title>
<g id="a_edge5_Node000005_Node000006"><a xlink:title=" ">
<path fill="none" stroke="#63b8ff" d="M1693.48,-165.86C1690.45,-165.53 1687.44,-165.24 1684.5,-165 993.07,-108.28 813.13,-182.97 117.1,-128.92"/>
<polygon fill="#63b8ff" stroke="#63b8ff" points="117.32,-125.43 107.07,-128.14 116.77,-132.41 117.32,-125.43"/>
</a>
</g>
</g>
<!-- Node7 -->
<g id="Node000007" class="node">
<title>Node7</title>
<g id="a_Node000007"><a xlink:href="fdsetsize_8h.html" target="_top" xlink:title=" ">
<polygon fill="white" stroke="#666666" points="235.5,-129 125.5,-129 125.5,-110 235.5,-110 235.5,-129"/>
<text text-anchor="middle" x="180.5" y="-117" font-family="Helvetica,sans-Serif" font-size="10.00">compat/fdsetsize.h</text>
</a>
</g>
</g>
<!-- Node5&#45;&gt;Node7 -->
<g id="edge6_Node000005_Node000007" class="edge">
<title>Node5&#45;&gt;Node7</title>
<g id="a_edge6_Node000005_Node000007"><a xlink:title=" ">
<path fill="none" stroke="#63b8ff" d="M1693.48,-165.86C1690.45,-165.54 1687.44,-165.24 1684.5,-165 1049.92,-112.3 884.5,-178.5 246,-129.01"/>
<polygon fill="#63b8ff" stroke="#63b8ff" points="245.86,-125.49 235.62,-128.2 245.32,-132.47 245.86,-125.49"/>
</a>
</g>
</g>
<!-- Node8 -->
<g id="Node000008" class="node">
<title>Node8</title>
<g id="a_Node000008"><a xlink:href="types_8h.html" target="_top" xlink:title=" ">
<polygon fill="white" stroke="#666666" points="345.5,-129 253.5,-129 253.5,-110 345.5,-110 345.5,-129"/>
<text text-anchor="middle" x="299.5" y="-117" font-family="Helvetica,sans-Serif" font-size="10.00">compat/types.h</text>
</a>
</g>
</g>
<!-- Node5&#45;&gt;Node8 -->
<g id="edge7_Node000005_Node000008" class="edge">
<title>Node5&#45;&gt;Node8</title>
<g id="a_edge7_Node000005_Node000008"><a xlink:title=" ">
<path fill="none" stroke="#63b8ff" d="M1693.48,-165.87C1690.45,-165.54 1687.44,-165.25 1684.5,-165 1098.56,-115.73 945.14,-181.52 355.69,-128.97"/>
<polygon fill="#63b8ff" stroke="#63b8ff" points="355.93,-125.48 345.66,-128.07 355.31,-132.45 355.93,-125.48"/>
</a>
</g>
</g>
<!-- Node10 -->
<g id="Node000010" class="node">
<title>Node10</title>
<g id="a_Node000010"><a xlink:href="aix_8h.html" target="_top" xlink:title=" ">
<polygon fill="white" stroke="#666666" points="459,-129 364,-129 364,-110 459,-110 459,-129"/>
<text text-anchor="middle" x="411.5" y="-117" font-family="Helvetica,sans-Serif" font-size="10.00">compat/os/aix.h</text>
</a>
</g>
</g>
<!-- Node5&#45;&gt;Node10 -->
<g id="edge9_Node000005_Node000010" class="edge">
<title>Node5&#45;&gt;Node10</title>
<g id="a_edge9_Node000005_Node000010"><a xlink:title=" ">
<path fill="none" stroke="#63b8ff" d="M1693.48,-165.88C1690.45,-165.55 1687.44,-165.25 1684.5,-165 1149.07,-119.29 1008.76,-176.25 469.02,-128.9"/>
<polygon fill="#63b8ff" stroke="#63b8ff" points="469.31,-125.41 459.04,-128.02 468.69,-132.39 469.31,-125.41"/>
</a>
</g>
</g>
<!-- Node11 -->
<g id="Node000011" class="node">
<title>Node11</title>
<g id="a_Node000011"><a xlink:href="android_8h.html" target="_top" xlink:title=" ">
<polygon fill="white" stroke="#666666" points="593.5,-129 477.5,-129 477.5,-110 593.5,-110 593.5,-129"/>
<text text-anchor="middle" x="535.5" y="-117" font-family="Helvetica,sans-Serif" font-size="10.00">compat/os/android.h</text>
</a>
</g>
</g>
<!-- Node5&#45;&gt;Node11 -->
<g id="edge10_Node000005_Node000011" class="edge">
<title>Node5&#45;&gt;Node11</title>
<g id="a_edge10_Node000005_Node000011"><a xlink:title=" ">
<path fill="none" stroke="#63b8ff" d="M1693.48,-165.89C1690.45,-165.56 1687.43,-165.26 1684.5,-165 1208.56,-123.49 1083.89,-166.7 603.89,-129.02"/>
<polygon fill="#63b8ff" stroke="#63b8ff" points="603.82,-125.5 593.57,-128.2 603.26,-132.48 603.82,-125.5"/>
</a>
</g>
</g>
<!-- Node12 -->
<g id="Node000012" class="node">
<title>Node12</title>
<g id="a_Node000012"><a xlink:href="dragonfly_8h.html" target="_top" xlink:title=" ">
<polygon fill="white" stroke="#666666" points="735.5,-129 611.5,-129 611.5,-110 735.5,-110 735.5,-129"/>
<text text-anchor="middle" x="673.5" y="-117" font-family="Helvetica,sans-Serif" font-size="10.00">compat/os/dragonfly.h</text>
</a>
</g>
</g>
<!-- Node5&#45;&gt;Node12 -->
<g id="edge11_Node000005_Node000012" class="edge">
<title>Node5&#45;&gt;Node12</title>
<g id="a_edge11_Node000005_Node000012"><a xlink:title=" ">
<path fill="none" stroke="#63b8ff" d="M1693.48,-165.91C1690.44,-165.57 1687.43,-165.26 1684.5,-165 1271.44,-127.93 1163.03,-161.33 746.03,-129.05"/>
<polygon fill="#63b8ff" stroke="#63b8ff" points="746.05,-125.54 735.81,-128.25 745.51,-132.52 746.05,-125.54"/>
</a>
</g>
</g>
<!-- Node13 -->
<g id="Node000013" class="node">
<title>Node13</title>
<g id="a_Node000013"><a xlink:href="freebsd_8h.html" target="_top" xlink:title=" ">
<polygon fill="white" stroke="#666666" points="869.5,-129 753.5,-129 753.5,-110 869.5,-110 869.5,-129"/>
<text text-anchor="middle" x="811.5" y="-117" font-family="Helvetica,sans-Serif" font-size="10.00">compat/os/freebsd.h</text>
</a>
</g>
</g>
<!-- Node5&#45;&gt;Node13 -->
<g id="edge12_Node000005_Node000013" class="edge">
<title>Node5&#45;&gt;Node13</title>
<g id="a_edge12_Node000005_Node000013"><a xlink:title=" ">
<path fill="none" stroke="#63b8ff" d="M1693.48,-165.93C1690.44,-165.59 1687.43,-165.27 1684.5,-165 1330.77,-132.12 1237.5,-159.08 879.7,-129.02"/>
<polygon fill="#63b8ff" stroke="#63b8ff" points="879.83,-125.52 869.57,-128.16 879.24,-132.5 879.83,-125.52"/>
</a>
</g>
</g>
<!-- Node14 -->
<g id="Node000014" class="node">
<title>Node14</title>
<g id="a_Node000014"><a xlink:href="hpux_8h.html" target="_top" xlink:title=" ">
<polygon fill="white" stroke="#666666" points="991.5,-129 887.5,-129 887.5,-110 991.5,-110 991.5,-129"/>
<text text-anchor="middle" x="939.5" y="-117" font-family="Helvetica,sans-Serif" font-size="10.00">compat/os/hpux.h</text>
</a>
</g>
</g>
<!-- Node5&#45;&gt;Node14 -->
<g id="edge13_Node000005_Node000014" class="edge">
<title>Node5&#45;&gt;Node14</title>
<g id="a_edge13_Node000005_Node000014"><a xlink:title=" ">
<path fill="none" stroke="#63b8ff" d="M1693.47,-165.96C1690.44,-165.61 1687.43,-165.28 1684.5,-165 1384.76,-135.94 1305.23,-157.56 1001.68,-129.02"/>
<polygon fill="#63b8ff" stroke="#63b8ff" points="1002,-125.54 991.71,-128.08 1001.33,-132.51 1002,-125.54"/>
</a>
</g>
</g>
<!-- Node15 -->
<g id="Node000015" class="node">
<title>Node15</title>
<g id="a_Node000015"><a xlink:href="linux_8h.html" target="_top" xlink:title=" ">
<polygon fill="white" stroke="#666666" points="1113.5,-129 1009.5,-129 1009.5,-110 1113.5,-110 1113.5,-129"/>
<text text-anchor="middle" x="1061.5" y="-117" font-family="Helvetica,sans-Serif" font-size="10.00">compat/os/linux.h</text>
</a>
</g>
</g>
<!-- Node5&#45;&gt;Node15 -->
<g id="edge14_Node000005_Node000015" class="edge">
<title>Node5&#45;&gt;Node15</title>
<g id="a_edge14_Node000005_Node000015"><a xlink:title=" ">
<path fill="none" stroke="#63b8ff" d="M1693.47,-166C1690.44,-165.64 1687.43,-165.3 1684.5,-165 1438.8,-139.76 1373.23,-153.9 1123.81,-129.05"/>
<polygon fill="#63b8ff" stroke="#63b8ff" points="1124.01,-125.56 1113.71,-128.04 1123.31,-132.52 1124.01,-125.56"/>
</a>
</g>
</g>
<!-- Node16 -->
<g id="Node000016" class="node">
<title>Node16</title>
<g id="a_Node000016"><a xlink:href="macosx_8h.html" target="_top" xlink:title=" ">
<polygon fill="white" stroke="#666666" points="1249.5,-129 1131.5,-129 1131.5,-110 1249.5,-110 1249.5,-129"/>
<text text-anchor="middle" x="1190.5" y="-117" font-family="Helvetica,sans-Serif" font-size="10.00">compat/os/macosx.h</text>
</a>
</g>
</g>
<!-- Node5&#45;&gt;Node16 -->
<g id="edge15_Node000005_Node000016" class="edge">
<title>Node5&#45;&gt;Node16</title>
<g id="a_edge15_Node000005_Node000016"><a xlink:title=" ">
<path fill="none" stroke="#63b8ff" d="M1693.46,-166.07C1690.43,-165.69 1687.43,-165.33 1684.5,-165 1498.92,-144.03 1449.16,-148.62 1259.83,-129.1"/>
<polygon fill="#63b8ff" stroke="#63b8ff" points="1260.13,-125.61 1249.82,-128.06 1259.41,-132.57 1260.13,-125.61"/>
</a>
</g>
</g>
<!-- Node17 -->
<g id="Node000017" class="node">
<title>Node17</title>
<g id="a_Node000017"><a xlink:href="mingw_8h.html" target="_top" xlink:title=" ">
<polygon fill="white" stroke="#666666" points="1379.5,-129 1267.5,-129 1267.5,-110 1379.5,-110 1379.5,-129"/>
<text text-anchor="middle" x="1323.5" y="-117" font-family="Helvetica,sans-Serif" font-size="10.00">compat/os/mingw.h</text>
</a>
</g>
</g>
<!-- Node5&#45;&gt;Node17 -->
<g id="edge16_Node000005_Node000017" class="edge">
<title>Node5&#45;&gt;Node17</title>
<g id="a_edge16_Node000005_Node000017"><a xlink:title=" ">
<path fill="none" stroke="#63b8ff" d="M1693.45,-166.2C1690.42,-165.79 1687.42,-165.38 1684.5,-165 1556.32,-148.13 1521.66,-145.7 1389.61,-129.13"/>
<polygon fill="#63b8ff" stroke="#63b8ff" points="1389.87,-125.63 1379.52,-127.86 1389,-132.58 1389.87,-125.63"/>
</a>
</g>
</g>
<!-- Node18 -->
<g id="Node000018" class="node">
<title>Node18</title>
<g id="a_Node000018"><a xlink:href="mswindows_8h.html" target="_top" xlink:title=" ">
<polygon fill="white" stroke="#666666" points="1535,-129 1398,-129 1398,-110 1535,-110 1535,-129"/>
<text text-anchor="middle" x="1466.5" y="-117" font-family="Helvetica,sans-Serif" font-size="10.00">compat/os/mswindows.h</text>
</a>
</g>
</g>
<!-- Node5&#45;&gt;Node18 -->
<g id="edge17_Node000005_Node000018" class="edge">
<title>Node5&#45;&gt;Node18</title>
<g id="a_edge17_Node000005_Node000018"><a xlink:title=" ">
<path fill="none" stroke="#63b8ff" d="M1699.83,-164.98C1651.34,-155.74 1573.85,-140.97 1521.61,-131.01"/>
<polygon fill="#63b8ff" stroke="#63b8ff" points="1521.99,-127.52 1511.52,-129.08 1520.68,-134.39 1521.99,-127.52"/>
</a>
</g>
</g>
<!-- Node19 -->
<g id="Node000019" class="node">
<title>Node19</title>
<g id="a_Node000019"><a xlink:href="netbsd_8h.html" target="_top" xlink:title=" ">
<polygon fill="white" stroke="#666666" points="1666,-129 1553,-129 1553,-110 1666,-110 1666,-129"/>
<text text-anchor="middle" x="1609.5" y="-117" font-family="Helvetica,sans-Serif" font-size="10.00">compat/os/netbsd.h</text>
</a>
</g>
</g>
<!-- Node5&#45;&gt;Node19 -->
<g id="edge18_Node000005_Node000019" class="edge">
<title>Node5&#45;&gt;Node19</title>
<g id="a_edge18_Node000005_Node000019"><a xlink:title=" ">
<path fill="none" stroke="#63b8ff" d="M1722.81,-164.98C1700.7,-156.3 1666.18,-142.75 1641.05,-132.88"/>
<polygon fill="#63b8ff" stroke="#63b8ff" points="1642.17,-129.57 1631.58,-129.17 1639.61,-136.08 1642.17,-129.57"/>
</a>
</g>
</g>
<!-- Node20 -->
<g id="Node000020" class="node">
<title>Node20</title>
<g id="a_Node000020"><a xlink:href="openbsd_8h.html" target="_top" xlink:title=" ">
<polygon fill="white" stroke="#666666" points="1805,-129 1684,-129 1684,-110 1805,-110 1805,-129"/>
<text text-anchor="middle" x="1744.5" y="-117" font-family="Helvetica,sans-Serif" font-size="10.00">compat/os/openbsd.h</text>
</a>
</g>
</g>
<!-- Node5&#45;&gt;Node20 -->
<g id="edge19_Node000005_Node000020" class="edge">
<title>Node5&#45;&gt;Node20</title>
<g id="a_edge19_Node000005_Node000020"><a xlink:title=" ">
<path fill="none" stroke="#63b8ff" d="M1744.5,-164.75C1744.5,-157.8 1744.5,-147.85 1744.5,-139.13"/>
<polygon fill="#63b8ff" stroke="#63b8ff" points="1748,-139.09 1744.5,-129.09 1741,-139.09 1748,-139.09"/>
</a>
</g>
</g>
<!-- Node21 -->
<g id="Node000021" class="node">
<title>Node21</title>
<g id="a_Node000021"><a xlink:href="os2_8h.html" target="_top" xlink:title=" ">
<polygon fill="white" stroke="#666666" points="1920,-129 1823,-129 1823,-110 1920,-110 1920,-129"/>
<text text-anchor="middle" x="1871.5" y="-117" font-family="Helvetica,sans-Serif" font-size="10.00">compat/os/os2.h</text>
</a>
</g>
</g>
<!-- Node5&#45;&gt;Node21 -->
<g id="edge20_Node000005_Node000021" class="edge">
<title>Node5&#45;&gt;Node21</title>
<g id="a_edge20_Node000005_Node000021"><a xlink:title=" ">
<path fill="none" stroke="#63b8ff" d="M1764.9,-164.98C1785.52,-156.38 1817.61,-142.99 1841.19,-133.15"/>
<polygon fill="#63b8ff" stroke="#63b8ff" points="1842.84,-136.25 1850.72,-129.17 1840.15,-129.79 1842.84,-136.25"/>
</a>
</g>
</g>
<!-- Node22 -->
<g id="Node000022" class="node">
<title>Node22</title>
<g id="a_Node000022"><a xlink:href="qnx_8h.html" target="_top" xlink:title=" ">
<polygon fill="white" stroke="#666666" points="2036.5,-129 1938.5,-129 1938.5,-110 2036.5,-110 2036.5,-129"/>
<text text-anchor="middle" x="1987.5" y="-117" font-family="Helvetica,sans-Serif" font-size="10.00">compat/os/qnx.h</text>
</a>
</g>
</g>
<!-- Node5&#45;&gt;Node22 -->
<g id="edge21_Node000005_Node000022" class="edge">
<title>Node5&#45;&gt;Node22</title>
<g id="a_edge21_Node000005_Node000022"><a xlink:title=" ">
<path fill="none" stroke="#63b8ff" d="M1783.54,-164.98C1825.58,-155.82 1892.54,-141.21 1938.18,-131.26"/>
<polygon fill="#63b8ff" stroke="#63b8ff" points="1939.13,-134.63 1948.15,-129.08 1937.64,-127.79 1939.13,-134.63"/>
</a>
</g>
</g>
<!-- Node23 -->
<g id="Node000023" class="node">
<title>Node23</title>
<g id="a_Node000023"><a xlink:href="sgi_8h.html" target="_top" xlink:title=" ">
<polygon fill="white" stroke="#666666" points="2148.5,-129 2054.5,-129 2054.5,-110 2148.5,-110 2148.5,-129"/>
<text text-anchor="middle" x="2101.5" y="-117" font-family="Helvetica,sans-Serif" font-size="10.00">compat/os/sgi.h</text>
</a>
</g>
</g>
<!-- Node5&#45;&gt;Node23 -->
<g id="edge22_Node000005_Node000023" class="edge">
<title>Node5&#45;&gt;Node23</title>
<g id="a_edge22_Node000005_Node000023"><a xlink:title=" ">
<path fill="none" stroke="#63b8ff" d="M1795.64,-166C1853.48,-157.5 1950.8,-143.17 2044.51,-129.14"/>
<polygon fill="#63b8ff" stroke="#63b8ff" points="2045.08,-132.6 2054.45,-127.66 2044.04,-125.68 2045.08,-132.6"/>
</a>
</g>
</g>
<!-- Node24 -->
<g id="Node000024" class="node">
<title>Node24</title>
<g id="a_Node000024"><a xlink:href="solaris_8h.html" target="_top" xlink:title=" ">
<polygon fill="white" stroke="#666666" points="2278.5,-129 2166.5,-129 2166.5,-110 2278.5,-110 2278.5,-129"/>
<text text-anchor="middle" x="2222.5" y="-117" font-family="Helvetica,sans-Serif" font-size="10.00">compat/os/solaris.h</text>
</a>
</g>
</g>
<!-- Node5&#45;&gt;Node24 -->
<g id="edge23_Node000005_Node000024" class="edge">
<title>Node5&#45;&gt;Node24</title>
<g id="a_edge23_Node000005_Node000024"><a xlink:title=" ">
<path fill="none" stroke="#63b8ff" d="M1795.73,-168.36C1871.93,-160.63 2019.9,-145.29 2156.27,-129.12"/>
<polygon fill="#63b8ff" stroke="#63b8ff" points="2156.97,-132.56 2166.49,-127.91 2156.15,-125.61 2156.97,-132.56"/>
</a>
</g>
</g>
<!-- Node25 -->
<g id="Node000025" class="node">
<title>Node25</title>
<g id="a_Node000025"><a xlink:href="sunos_8h.html" target="_top" xlink:title=" ">
<polygon fill="white" stroke="#666666" points="2404.5,-129 2296.5,-129 2296.5,-110 2404.5,-110 2404.5,-129"/>
<text text-anchor="middle" x="2350.5" y="-117" font-family="Helvetica,sans-Serif" font-size="10.00">compat/os/sunos.h</text>
</a>
</g>
</g>
<!-- Node5&#45;&gt;Node25 -->
<g id="edge24_Node000005_Node000025" class="edge">
<title>Node5&#45;&gt;Node25</title>
<g id="a_edge24_Node000005_Node000025"><a xlink:title=" ">
<path fill="none" stroke="#63b8ff" d="M1795.87,-170.19C1890.65,-163.89 2099.67,-149.07 2286.23,-129.08"/>
<polygon fill="#63b8ff" stroke="#63b8ff" points="2286.66,-132.56 2296.23,-128.01 2285.91,-125.6 2286.66,-132.56"/>
</a>
</g>
</g>
<!-- Node26 -->
<g id="Node000026" class="node">
<title>Node26</title>
<g id="a_Node000026"><a xlink:href="assert_8h.html" target="_top" xlink:title=" ">
<polygon fill="white" stroke="#666666" points="2518,-129 2423,-129 2423,-110 2518,-110 2518,-129"/>
<text text-anchor="middle" x="2470.5" y="-117" font-family="Helvetica,sans-Serif" font-size="10.00">compat/assert.h</text>
</a>
</g>
</g>
<!-- Node5&#45;&gt;Node26 -->
<g id="edge25_Node000005_Node000026" class="edge">
<title>Node5&#45;&gt;Node26</title>
<g id="a_edge25_Node000005_Node000026"><a xlink:title=" ">
<path fill="none" stroke="#63b8ff" d="M1795.82,-171.52C1906.49,-166.93 2175.99,-154.1 2412.77,-128.98"/>
<polygon fill="#63b8ff" stroke="#63b8ff" points="2413.38,-132.43 2422.95,-127.89 2412.64,-125.47 2413.38,-132.43"/>
</a>
</g>
</g>
<!-- Node27 -->
<g id="Node000027" class="node">
<title>Node27</title>
<g id="a_Node000027"><a xlink:href="compat__shared_8h.html" target="_top" xlink:title=" ">
<polygon fill="#fff0f0" stroke="red" points="2676.5,-129 2536.5,-129 2536.5,-110 2676.5,-110 2676.5,-129"/>
<text text-anchor="middle" x="2606.5" y="-117" font-family="Helvetica,sans-Serif" font-size="10.00">compat/compat_shared.h</text>
</a>
</g>
</g>
<!-- Node5&#45;&gt;Node27 -->
<g id="edge26_Node000005_Node000027" class="edge">
<title>Node5&#45;&gt;Node27</title>
<g id="a_edge26_Node000005_Node000027"><a xlink:title=" ">
<path fill="none" stroke="#63b8ff" d="M1795.8,-171.45C1919.39,-166.33 2243.65,-151.78 2526.24,-128.97"/>
<polygon fill="#63b8ff" stroke="#63b8ff" points="2526.59,-132.46 2536.28,-128.16 2526.03,-125.48 2526.59,-132.46"/>
</a>
</g>
</g>
<!-- Node37 -->
<g id="Node000037" class="node">
<title>Node37</title>
<g id="a_Node000037"><a xlink:href="stdvarargs_8h.html" target="_top" xlink:title=" ">
<polygon fill="#fff0f0" stroke="red" points="2812,-129 2695,-129 2695,-110 2812,-110 2812,-129"/>
<text text-anchor="middle" x="2753.5" y="-117" font-family="Helvetica,sans-Serif" font-size="10.00">compat/stdvarargs.h</text>
</a>
</g>
</g>
<!-- Node5&#45;&gt;Node37 -->
<g id="edge34_Node000005_Node000037" class="edge">
<title>Node5&#45;&gt;Node37</title>
<g id="a_edge34_Node000005_Node000037"><a xlink:title=" ">
<path fill="none" stroke="#63b8ff" d="M1795.59,-172.47C1935.84,-169.34 2338.79,-158.37 2684.96,-128.97"/>
<polygon fill="#63b8ff" stroke="#63b8ff" points="2685.26,-132.45 2694.92,-128.11 2684.66,-125.48 2685.26,-132.45"/>
</a>
</g>
</g>
<!-- Node39 -->
<g id="Node000039" class="node">
<title>Node39</title>
<g id="a_Node000039"><a xlink:href="stdio_8h.html" target="_top" xlink:title=" ">
<polygon fill="#fff0f0" stroke="red" points="2919,-129 2830,-129 2830,-110 2919,-110 2919,-129"/>
<text text-anchor="middle" x="2874.5" y="-117" font-family="Helvetica,sans-Serif" font-size="10.00">compat/stdio.h</text>
</a>
</g>
</g>
<!-- Node5&#45;&gt;Node39 -->
<g id="edge35_Node000005_Node000039" class="edge">
<title>Node5&#45;&gt;Node39</title>
<g id="a_edge35_Node000005_Node000039"><a xlink:title=" ">
<path fill="none" stroke="#63b8ff" d="M1795.61,-173.46C1949.11,-172.92 2419.56,-168.01 2819.73,-128.94"/>
<polygon fill="#63b8ff" stroke="#63b8ff" points="2820.15,-132.41 2829.76,-127.95 2819.47,-125.44 2820.15,-132.41"/>
</a>
</g>
</g>
<!-- Node41 -->
<g id="Node000041" class="node">
<title>Node41</title>
<g id="a_Node000041"><a xlink:href="statvfs_8h.html" target="_top" xlink:title=" ">
<polygon fill="white" stroke="#666666" points="3036,-129 2937,-129 2937,-110 3036,-110 3036,-129"/>
<text text-anchor="middle" x="2986.5" y="-117" font-family="Helvetica,sans-Serif" font-size="10.00">compat/statvfs.h</text>
</a>
</g>
</g>
<!-- Node5&#45;&gt;Node41 -->
<g id="edge36_Node000005_Node000041" class="edge">
<title>Node5&#45;&gt;Node41</title>
<g id="a_edge36_Node000005_Node000041"><a xlink:title=" ">
<path fill="none" stroke="#63b8ff" d="M1795.64,-173.5C1958.96,-173.09 2482.74,-168.63 2926.82,-128.94"/>
<polygon fill="#63b8ff" stroke="#63b8ff" points="2927.32,-132.41 2936.97,-128.02 2926.7,-125.43 2927.32,-132.41"/>
</a>
</g>
</g>
<!-- Node42 -->
<g id="Node000042" class="node">
<title>Node42</title>
<g id="a_Node000042"><a xlink:href="debug_8h.html" target="_top" xlink:title=" ">
<polygon fill="white" stroke="#666666" points="3149,-129 3054,-129 3054,-110 3149,-110 3149,-129"/>
<text text-anchor="middle" x="3101.5" y="-117" font-family="Helvetica,sans-Serif" font-size="10.00">compat/debug.h</text>
</a>
</g>
</g>
<!-- Node5&#45;&gt;Node42 -->
<g id="edge37_Node000005_Node000042" class="edge">
<title>Node5&#45;&gt;Node42</title>
<g id="a_edge37_Node000005_Node000042"><a xlink:title=" ">
<path fill="none" stroke="#63b8ff" d="M1795.73,-173.84C1969.44,-174.54 2552.1,-173.28 3043.82,-128.92"/>
<polygon fill="#63b8ff" stroke="#63b8ff" points="3044.32,-132.39 3053.96,-128 3043.69,-125.42 3044.32,-132.39"/>
</a>
</g>
</g>
<!-- Node43 -->
<g id="Node000043" class="node">
<title>Node43</title>
<g id="a_Node000043"><a xlink:href="valgrind_8h.html" target="_top" xlink:title=" ">
<polygon fill="#fff0f0" stroke="red" points="3272,-129 3167,-129 3167,-110 3272,-110 3272,-129"/>
<text text-anchor="middle" x="3219.5" y="-117" font-family="Helvetica,sans-Serif" font-size="10.00">compat/valgrind.h</text>
</a>
</g>
</g>
<!-- Node5&#45;&gt;Node43 -->
<g id="edge38_Node000005_Node000043" class="edge">
<title>Node5&#45;&gt;Node43</title>
<g id="a_edge38_Node000005_Node000043"><a xlink:title=" ">
<path fill="none" stroke="#63b8ff" d="M1795.62,-173.82C1978.61,-174.56 2618.28,-173.65 3156.47,-128.97"/>
<polygon fill="#63b8ff" stroke="#63b8ff" points="3157.1,-132.43 3166.78,-128.11 3156.52,-125.46 3157.1,-132.43"/>
</a>
</g>
</g>
<!-- Node9 -->
<g id="Node000009" class="node">
<title>Node9</title>
<g id="a_Node000009"><a xlink:title=" ">
<polygon fill="#e0e0e0" stroke="#999999" points="324.5,-74 274.5,-74 274.5,-55 324.5,-55 324.5,-74"/>
<text text-anchor="middle" x="299.5" y="-62" font-family="Helvetica,sans-Serif" font-size="10.00">cstdint</text>
</a>
</g>
</g>
<!-- Node8&#45;&gt;Node9 -->
<g id="edge8_Node000008_Node000009" class="edge">
<title>Node8&#45;&gt;Node9</title>
<g id="a_edge8_Node000008_Node000009"><a xlink:title=" ">
<path fill="none" stroke="#63b8ff" d="M299.5,-109.75C299.5,-102.8 299.5,-92.85 299.5,-84.13"/>
<polygon fill="#63b8ff" stroke="#63b8ff" points="303,-84.09 299.5,-74.09 296,-84.09 303,-84.09"/>
</a>
</g>
</g>
<!-- Node28 -->
<g id="Node000028" class="node">
<title>Node28</title>
<g id="a_Node000028"><a xlink:title=" ">
<polygon fill="#e0e0e0" stroke="#999999" points="2435,-74 2384,-74 2384,-55 2435,-55 2435,-74"/>
<text text-anchor="middle" x="2409.5" y="-62" font-family="Helvetica,sans-Serif" font-size="10.00">csignal</text>
</a>
</g>
</g>
<!-- Node27&#45;&gt;Node28 -->
<g id="edge27_Node000027_Node000028" class="edge">
<title>Node27&#45;&gt;Node28</title>
<g id="a_edge27_Node000027_Node000028"><a xlink:title=" ">
<path fill="none" stroke="#63b8ff" d="M2574.85,-109.98C2539.36,-100.44 2481.94,-84.99 2444.96,-75.04"/>
<polygon fill="#63b8ff" stroke="#63b8ff" points="2445.68,-71.61 2435.11,-72.39 2443.86,-78.37 2445.68,-71.61"/>
</a>
</g>
</g>
<!-- Node29 -->
<g id="Node000029" class="node">
<title>Node29</title>
<g id="a_Node000029"><a xlink:href="xalloc_8h.html" target="_top" xlink:title=" ">
<polygon fill="white" stroke="#666666" points="2548,-74 2453,-74 2453,-55 2548,-55 2548,-74"/>
<text text-anchor="middle" x="2500.5" y="-62" font-family="Helvetica,sans-Serif" font-size="10.00">compat/xalloc.h</text>
</a>
</g>
</g>
<!-- Node27&#45;&gt;Node29 -->
<g id="edge28_Node000027_Node000029" class="edge">
<title>Node27&#45;&gt;Node29</title>
<g id="a_edge28_Node000027_Node000029"><a xlink:title=" ">
<path fill="none" stroke="#63b8ff" d="M2589.47,-109.98C2572.57,-101.54 2546.44,-88.47 2526.86,-78.68"/>
<polygon fill="#63b8ff" stroke="#63b8ff" points="2528.35,-75.51 2517.84,-74.17 2525.22,-81.77 2528.35,-75.51"/>
</a>
</g>
</g>
<!-- Node30 -->
<g id="Node000030" class="node">
<title>Node30</title>
<g id="a_Node000030"><a xlink:href="xis_8h.html" target="_top" xlink:title=" ">
<polygon fill="white" stroke="#666666" points="2646.5,-74 2566.5,-74 2566.5,-55 2646.5,-55 2646.5,-74"/>
<text text-anchor="middle" x="2606.5" y="-62" font-family="Helvetica,sans-Serif" font-size="10.00">compat/xis.h</text>
</a>
</g>
</g>
<!-- Node27&#45;&gt;Node30 -->
<g id="edge29_Node000027_Node000030" class="edge">
<title>Node27&#45;&gt;Node30</title>
<g id="a_edge29_Node000027_Node000030"><a xlink:title=" ">
<path fill="none" stroke="#63b8ff" d="M2606.5,-109.75C2606.5,-102.8 2606.5,-92.85 2606.5,-84.13"/>
<polygon fill="#63b8ff" stroke="#63b8ff" points="2610,-84.09 2606.5,-74.09 2603,-84.09 2610,-84.09"/>
</a>
</g>
</g>
<!-- Node32 -->
<g id="Node000032" class="node">
<title>Node32</title>
<g id="a_Node000032"><a xlink:href="xstrerror_8h.html" target="_top" xlink:title=" ">
<polygon fill="white" stroke="#666666" points="2772,-74 2665,-74 2665,-55 2772,-55 2772,-74"/>
<text text-anchor="middle" x="2718.5" y="-62" font-family="Helvetica,sans-Serif" font-size="10.00">compat/xstrerror.h</text>
</a>
</g>
</g>
<!-- Node27&#45;&gt;Node32 -->
<g id="edge31_Node000027_Node000032" class="edge">
<title>Node27&#45;&gt;Node32</title>
<g id="a_edge31_Node000027_Node000032"><a xlink:title=" ">
<path fill="none" stroke="#63b8ff" d="M2624.49,-109.98C2642.43,-101.5 2670.22,-88.35 2690.93,-78.54"/>
<polygon fill="#63b8ff" stroke="#63b8ff" points="2692.64,-81.61 2700.18,-74.17 2689.64,-75.28 2692.64,-81.61"/>
</a>
</g>
</g>
<!-- Node33 -->
<g id="Node000033" class="node">
<title>Node33</title>
<g id="a_Node000033"><a xlink:href="xstring_8h.html" target="_top" xlink:title=" ">
<polygon fill="white" stroke="#666666" points="2889,-74 2790,-74 2790,-55 2889,-55 2889,-74"/>
<text text-anchor="middle" x="2839.5" y="-62" font-family="Helvetica,sans-Serif" font-size="10.00">compat/xstring.h</text>
</a>
</g>
</g>
<!-- Node27&#45;&gt;Node33 -->
<g id="edge32_Node000027_Node000033" class="edge">
<title>Node27&#45;&gt;Node33</title>
<g id="a_edge32_Node000027_Node000033"><a xlink:title=" ">
<path fill="none" stroke="#63b8ff" d="M2643.94,-109.98C2684.15,-100.84 2748.18,-86.27 2791.94,-76.32"/>
<polygon fill="#63b8ff" stroke="#63b8ff" points="2792.8,-79.71 2801.77,-74.08 2791.24,-72.89 2792.8,-79.71"/>
</a>
</g>
</g>
<!-- Node34 -->
<g id="Node000034" class="node">
<title>Node34</title>
<g id="a_Node000034"><a xlink:href="xstrto_8h.html" target="_top" xlink:title=" ">
<polygon fill="white" stroke="#666666" points="3001.5,-74 2907.5,-74 2907.5,-55 3001.5,-55 3001.5,-74"/>
<text text-anchor="middle" x="2954.5" y="-62" font-family="Helvetica,sans-Serif" font-size="10.00">compat/xstrto.h</text>
</a>
</g>
</g>
<!-- Node27&#45;&gt;Node34 -->
<g id="edge33_Node000027_Node000034" class="edge">
<title>Node27&#45;&gt;Node34</title>
<g id="a_edge33_Node000027_Node000034"><a xlink:title=" ">
<path fill="none" stroke="#63b8ff" d="M2662.41,-109.98C2726.88,-100.17 2832.3,-84.11 2897.31,-74.21"/>
<polygon fill="#63b8ff" stroke="#63b8ff" points="2898.02,-77.64 2907.38,-72.68 2896.97,-70.72 2898.02,-77.64"/>
</a>
</g>
</g>
<!-- Node31 -->
<g id="Node000031" class="node">
<title>Node31</title>
<g id="a_Node000031"><a xlink:title=" ">
<polygon fill="#e0e0e0" stroke="#999999" points="2978,-19 2929,-19 2929,0 2978,0 2978,-19"/>
<text text-anchor="middle" x="2953.5" y="-7" font-family="Helvetica,sans-Serif" font-size="10.00">cctype</text>
</a>
</g>
</g>
<!-- Node30&#45;&gt;Node31 -->
<g id="edge30_Node000030_Node000031" class="edge">
<title>Node30&#45;&gt;Node31</title>
<g id="a_edge30_Node000030_Node000031"><a xlink:title=" ">
<path fill="none" stroke="#63b8ff" d="M2646.6,-56.47C2649.61,-55.96 2652.6,-55.47 2655.5,-55 2750.59,-39.65 2863.06,-23.36 2918.71,-15.42"/>
<polygon fill="#63b8ff" stroke="#63b8ff" points="2919.34,-18.87 2928.74,-14 2918.35,-11.94 2919.34,-18.87"/>
</a>
</g>
</g>
<!-- Node45&#45;&gt;Node31 -->
<g id="edge43_Node000045_Node000031" class="edge">
<title>Node45&#45;&gt;Node31</title>
<g id="a_edge43_Node000045_Node000031"><a xlink:title=" ">
<path fill="none" stroke="#63b8ff" d="M3399.93,-222.88C3372.79,-215.52 3342.12,-203.48 3319.5,-184 3291.33,-159.74 3309.16,-133.68 3280.5,-110 3192.75,-37.49 3052.91,-17.78 2988.31,-12.45"/>
<polygon fill="#63b8ff" stroke="#63b8ff" points="2988.47,-8.96 2978.24,-11.69 2987.95,-15.94 2988.47,-8.96"/>
</a>
</g>
</g>
<!-- Node46 -->
<g id="Node000046" class="node">
<title>Node46</title>
<g id="a_Node000046"><a xlink:href="hash_8h.html" target="_top" xlink:title=" ">
<polygon fill="white" stroke="#666666" points="3378,-184 3329,-184 3329,-165 3378,-165 3378,-184"/>
<text text-anchor="middle" x="3353.5" y="-172" font-family="Helvetica,sans-Serif" font-size="10.00">hash.h</text>
</a>
</g>
</g>
<!-- Node45&#45;&gt;Node46 -->
<g id="edge40_Node000045_Node000046" class="edge">
<title>Node45&#45;&gt;Node46</title>
<g id="a_edge40_Node000045_Node000046"><a xlink:title=" ">
<path fill="none" stroke="#63b8ff" d="M3436.39,-219.99C3418.86,-210.58 3395.88,-198.24 3378.56,-188.95"/>
<polygon fill="#63b8ff" stroke="#63b8ff" points="3380.06,-185.78 3369.6,-184.14 3376.75,-191.95 3380.06,-185.78"/>
</a>
</g>
</g>
<!-- Node47 -->
<g id="Node000047" class="node">
<title>Node47</title>
<g id="a_Node000047"><a xlink:href="rfc2617_8h.html" target="_top" xlink:title=" ">
<polygon fill="white" stroke="#666666" points="3458.5,-184 3396.5,-184 3396.5,-165 3458.5,-165 3458.5,-184"/>
<text text-anchor="middle" x="3427.5" y="-172" font-family="Helvetica,sans-Serif" font-size="10.00">rfc2617.h</text>
</a>
</g>
</g>
<!-- Node45&#45;&gt;Node47 -->
<g id="edge41_Node000045_Node000047" class="edge">
<title>Node45&#45;&gt;Node47</title>
<g id="a_edge41_Node000045_Node000047"><a xlink:title=" ">
<path fill="none" stroke="#63b8ff" d="M3454.03,-219.84C3449.21,-211.78 3443.13,-201.62 3438,-193.06"/>
<polygon fill="#63b8ff" stroke="#63b8ff" points="3440.88,-191.05 3432.74,-184.27 3434.88,-194.64 3440.88,-191.05"/>
</a>
</g>
</g>
<!-- Node48 -->
<g id="Node000048" class="node">
<title>Node48</title>
<g id="a_Node000048"><a xlink:href="util_8h.html" target="_top" xlink:title=" ">
<polygon fill="white" stroke="#666666" points="3518,-184 3477,-184 3477,-165 3518,-165 3518,-184"/>
<text text-anchor="middle" x="3497.5" y="-172" font-family="Helvetica,sans-Serif" font-size="10.00">util.h</text>
</a>
</g>
</g>
<!-- Node45&#45;&gt;Node48 -->
<g id="edge42_Node000045_Node000048" class="edge">
<title>Node45&#45;&gt;Node48</title>
<g id="a_edge42_Node000045_Node000048"><a xlink:title=" ">
<path fill="none" stroke="#63b8ff" d="M3470.97,-219.84C3475.79,-211.78 3481.87,-201.62 3487,-193.06"/>
<polygon fill="#63b8ff" stroke="#63b8ff" points="3490.12,-194.64 3492.26,-184.27 3484.12,-191.05 3490.12,-194.64"/>
</a>
</g>
</g>
<!-- Node49 -->
<g id="Node000049" class="node">
<title>Node49</title>
<g id="a_Node000049"><a xlink:title=" ">
<polygon fill="#e0e0e0" stroke="#999999" points="3585,-184 3536,-184 3536,-165 3585,-165 3585,-184"/>
<text text-anchor="middle" x="3560.5" y="-172" font-family="Helvetica,sans-Serif" font-size="10.00">cstdlib</text>
</a>
</g>
</g>
<!-- Node45&#45;&gt;Node49 -->
<g id="edge44_Node000045_Node000049" class="edge">
<title>Node45&#45;&gt;Node49</title>
<g id="a_edge44_Node000045_Node000049"><a xlink:title=" ">
<path fill="none" stroke="#63b8ff" d="M3486.22,-219.84C3501.7,-210.6 3521.82,-198.59 3537.21,-189.4"/>
<polygon fill="#63b8ff" stroke="#63b8ff" points="3539.31,-192.23 3546.1,-184.09 3535.72,-186.21 3539.31,-192.23"/>
</a>
</g>
</g>
<!-- Node50 -->
<g id="Node000050" class="node">
<title>Node50</title>
<g id="a_Node000050"><a xlink:title=" ">
<polygon fill="#e0e0e0" stroke="#999999" points="3653.5,-184 3603.5,-184 3603.5,-165 3653.5,-165 3653.5,-184"/>
<text text-anchor="middle" x="3628.5" y="-172" font-family="Helvetica,sans-Serif" font-size="10.00">cstring</text>
</a>
</g>
</g>
<!-- Node45&#45;&gt;Node50 -->
<g id="edge45_Node000045_Node000050" class="edge">
<title>Node45&#45;&gt;Node50</title>
<g id="a_edge45_Node000045_Node000050"><a xlink:title=" ">
<path fill="none" stroke="#63b8ff" d="M3502.26,-219.99C3530.33,-210.1 3567.55,-196.98 3594.29,-187.56"/>
<polygon fill="#63b8ff" stroke="#63b8ff" points="3595.72,-190.76 3603.99,-184.14 3593.39,-184.16 3595.72,-190.76"/>
</a>
</g>
</g>
<!-- Node51&#45;&gt;Node50 -->
<g id="edge47_Node000051_Node000050" class="edge">
<title>Node51&#45;&gt;Node50</title>
<g id="a_edge47_Node000051_Node000050"><a xlink:title=" ">
<path fill="none" stroke="#63b8ff" d="M3597.81,-225.37C3603.08,-216.81 3611.29,-203.47 3617.89,-192.74"/>
<polygon fill="#63b8ff" stroke="#63b8ff" points="3620.91,-194.52 3623.17,-184.17 3614.94,-190.85 3620.91,-194.52"/>
</a>
</g>
</g>
</g>
</svg>
