<?xml version="1.0" encoding="UTF-8" standalone="no"?>
<!DOCTYPE svg PUBLIC "-//W3C//DTD SVG 1.1//EN"
 "http://www.w3.org/Graphics/SVG/1.1/DTD/svg11.dtd">
<!-- Generated by graphviz version 2.43.0 (0)
 -->
<!-- Title: squid/src/base/EnumIterator.h Pages: 1 -->
<svg width="1235pt" height="93pt"
 viewBox="0.00 0.00 1235.00 93.00" xmlns="http://www.w3.org/2000/svg" xmlns:xlink="http://www.w3.org/1999/xlink">
<g id="graph0" class="graph" transform="scale(1 1) rotate(0) translate(4 89)">
<title>squid/src/base/EnumIterator.h</title>
<!-- Node1 -->
<g id="Node000001" class="node">
<title>Node1</title>
<g id="a_Node000001"><a xlink:title=" ">
<polygon fill="#999999" stroke="#666666" points="690,-85 529,-85 529,-66 690,-66 690,-85"/>
<text text-anchor="middle" x="609.5" y="-73" font-family="Helvetica,sans-Serif" font-size="10.00">squid/src/base/EnumIterator.h</text>
</a>
</g>
</g>
<!-- Node2 -->
<g id="Node000002" class="node">
<title>Node2</title>
<g id="a_Node000002"><a xlink:href="HeaderMangling_8cc.html" target="_top" xlink:title=" ">
<polygon fill="white" stroke="#666666" points="157,-24.5 0,-24.5 0,-5.5 157,-5.5 157,-24.5"/>
<text text-anchor="middle" x="78.5" y="-12.5" font-family="Helvetica,sans-Serif" font-size="10.00">squid/src/HeaderMangling.cc</text>
</a>
</g>
</g>
<!-- Node1&#45;&gt;Node2 -->
<g id="edge1_Node000001_Node000002" class="edge">
<title>Node1&#45;&gt;Node2</title>
<g id="a_edge1_Node000001_Node000002"><a xlink:title=" ">
<path fill="none" stroke="#63b8ff" d="M518.56,-66.98C428.69,-59.18 287.36,-45.9 165.5,-30 153.36,-28.42 140.32,-26.46 128.11,-24.51"/>
<polygon fill="#63b8ff" stroke="#63b8ff" points="518.46,-70.49 528.72,-67.86 519.06,-63.51 518.46,-70.49"/>
</a>
</g>
</g>
<!-- Node3 -->
<g id="Node000003" class="node">
<title>Node3</title>
<g id="a_Node000003"><a xlink:href="HttpHdrCc_8cc.html" target="_top" xlink:title=" ">
<polygon fill="white" stroke="#666666" points="302,-24.5 175,-24.5 175,-5.5 302,-5.5 302,-24.5"/>
<text text-anchor="middle" x="238.5" y="-12.5" font-family="Helvetica,sans-Serif" font-size="10.00">squid/src/HttpHdrCc.cc</text>
</a>
</g>
</g>
<!-- Node1&#45;&gt;Node3 -->
<g id="edge2_Node000001_Node000003" class="edge">
<title>Node1&#45;&gt;Node3</title>
<g id="a_edge2_Node000001_Node000003"><a xlink:title=" ">
<path fill="none" stroke="#63b8ff" d="M537.26,-64.56C476.82,-56.05 388.4,-43.11 311.5,-30 301.7,-28.33 291.2,-26.4 281.29,-24.51"/>
<polygon fill="#63b8ff" stroke="#63b8ff" points="537.07,-68.07 547.46,-66 538.04,-61.14 537.07,-68.07"/>
</a>
</g>
</g>
<!-- Node4 -->
<g id="Node000004" class="node">
<title>Node4</title>
<g id="a_Node000004"><a xlink:href="HttpHeader_8cc.html" target="_top" xlink:title=" ">
<polygon fill="white" stroke="#666666" points="452.5,-24.5 320.5,-24.5 320.5,-5.5 452.5,-5.5 452.5,-24.5"/>
<text text-anchor="middle" x="386.5" y="-12.5" font-family="Helvetica,sans-Serif" font-size="10.00">squid/src/HttpHeader.cc</text>
</a>
</g>
</g>
<!-- Node1&#45;&gt;Node4 -->
<g id="edge3_Node000001_Node000004" class="edge">
<title>Node1&#45;&gt;Node4</title>
<g id="a_edge3_Node000001_Node000004"><a xlink:title=" ">
<path fill="none" stroke="#63b8ff" d="M567.17,-63.4C524.05,-52.08 458.12,-34.79 418.97,-24.52"/>
<polygon fill="#63b8ff" stroke="#63b8ff" points="566.51,-66.84 577.07,-65.99 568.29,-60.07 566.51,-66.84"/>
</a>
</g>
</g>
<!-- Node5 -->
<g id="Node000005" class="node">
<title>Node5</title>
<g id="a_Node000005"><a xlink:href="HttpReply_8cc.html" target="_top" xlink:title=" ">
<polygon fill="white" stroke="#666666" points="594.5,-24.5 470.5,-24.5 470.5,-5.5 594.5,-5.5 594.5,-24.5"/>
<text text-anchor="middle" x="532.5" y="-12.5" font-family="Helvetica,sans-Serif" font-size="10.00">squid/src/HttpReply.cc</text>
</a>
</g>
</g>
<!-- Node1&#45;&gt;Node5 -->
<g id="edge4_Node000001_Node000005" class="edge">
<title>Node1&#45;&gt;Node5</title>
<g id="a_edge4_Node000001_Node000005"><a xlink:title=" ">
<path fill="none" stroke="#63b8ff" d="M589.81,-59.54C575.27,-48.49 555.98,-33.84 543.91,-24.67"/>
<polygon fill="#63b8ff" stroke="#63b8ff" points="588.06,-62.61 598.14,-65.87 592.29,-57.03 588.06,-62.61"/>
</a>
</g>
</g>
<!-- Node6 -->
<g id="Node000006" class="node">
<title>Node6</title>
<g id="a_Node000006"><a xlink:href="AtStepData_8cc.html" target="_top" xlink:title=" ">
<polygon fill="white" stroke="#666666" points="762,-24.5 613,-24.5 613,-5.5 762,-5.5 762,-24.5"/>
<text text-anchor="middle" x="687.5" y="-12.5" font-family="Helvetica,sans-Serif" font-size="10.00">squid/src/acl/AtStepData.cc</text>
</a>
</g>
</g>
<!-- Node1&#45;&gt;Node6 -->
<g id="edge5_Node000001_Node000006" class="edge">
<title>Node1&#45;&gt;Node6</title>
<g id="a_edge5_Node000001_Node000006"><a xlink:title=" ">
<path fill="none" stroke="#63b8ff" d="M629.04,-59.85C643.81,-48.77 663.6,-33.93 675.94,-24.67"/>
<polygon fill="#63b8ff" stroke="#63b8ff" points="626.91,-57.07 621.01,-65.87 631.11,-62.67 626.91,-57.07"/>
</a>
</g>
</g>
<!-- Node7 -->
<g id="Node000007" class="node">
<title>Node7</title>
<g id="a_Node000007"><a xlink:href="neighbors_8cc.html" target="_top" xlink:title=" ">
<polygon fill="white" stroke="#666666" points="905,-24.5 780,-24.5 780,-5.5 905,-5.5 905,-24.5"/>
<text text-anchor="middle" x="842.5" y="-12.5" font-family="Helvetica,sans-Serif" font-size="10.00">squid/src/neighbors.cc</text>
</a>
</g>
</g>
<!-- Node1&#45;&gt;Node7 -->
<g id="edge6_Node000001_Node000007" class="edge">
<title>Node1&#45;&gt;Node7</title>
<g id="a_edge6_Node000001_Node000007"><a xlink:title=" ">
<path fill="none" stroke="#63b8ff" d="M653.16,-63.54C698.2,-52.23 767.49,-34.83 808.58,-24.52"/>
<polygon fill="#63b8ff" stroke="#63b8ff" points="652.23,-60.16 643.38,-65.99 653.93,-66.95 652.23,-60.16"/>
</a>
</g>
</g>
<!-- Node8 -->
<g id="Node000008" class="node">
<title>Node8</title>
<g id="a_Node000008"><a xlink:href="Header_8cc.html" target="_top" xlink:title=" ">
<polygon fill="white" stroke="#666666" points="1071.5,-24.5 923.5,-24.5 923.5,-5.5 1071.5,-5.5 1071.5,-24.5"/>
<text text-anchor="middle" x="997.5" y="-12.5" font-family="Helvetica,sans-Serif" font-size="10.00">squid/src/proxyp/Header.cc</text>
</a>
</g>
</g>
<!-- Node1&#45;&gt;Node8 -->
<g id="edge7_Node000001_Node000008" class="edge">
<title>Node1&#45;&gt;Node8</title>
<g id="a_edge7_Node000001_Node000008"><a xlink:title=" ">
<path fill="none" stroke="#63b8ff" d="M680.65,-64.57C742.51,-55.84 834.51,-42.58 914.5,-30 925.33,-28.3 936.93,-26.39 947.93,-24.55"/>
<polygon fill="#63b8ff" stroke="#63b8ff" points="680.02,-61.13 670.61,-65.99 681,-68.06 680.02,-61.13"/>
</a>
</g>
</g>
<!-- Node9 -->
<g id="Node000009" class="node">
<title>Node9</title>
<g id="a_Node000009"><a xlink:href="testEnumIterator_8cc.html" target="_top" xlink:title=" ">
<polygon fill="white" stroke="#666666" points="1227,-30 1090,-30 1090,0 1227,0 1227,-30"/>
<text text-anchor="start" x="1098" y="-18" font-family="Helvetica,sans-Serif" font-size="10.00">squid/src/tests/testEnum</text>
<text text-anchor="middle" x="1158.5" y="-7" font-family="Helvetica,sans-Serif" font-size="10.00">Iterator.cc</text>
</a>
</g>
</g>
<!-- Node1&#45;&gt;Node9 -->
<g id="edge8_Node000001_Node000009" class="edge">
<title>Node1&#45;&gt;Node9</title>
<g id="a_edge8_Node000001_Node000009"><a xlink:title=" ">
<path fill="none" stroke="#63b8ff" d="M700.31,-68.18C795.35,-61.03 948.79,-48.01 1080.5,-30 1083.5,-29.59 1086.56,-29.15 1089.65,-28.68"/>
<polygon fill="#63b8ff" stroke="#63b8ff" points="699.87,-64.7 690.16,-68.94 700.39,-71.68 699.87,-64.7"/>
</a>
</g>
</g>
</g>
</svg>
