<?xml version="1.0" encoding="UTF-8" standalone="no"?>
<!DOCTYPE svg PUBLIC "-//W3C//DTD SVG 1.1//EN"
 "http://www.w3.org/Graphics/SVG/1.1/DTD/svg11.dtd">
<!-- Generated by graphviz version 2.43.0 (0)
 -->
<!-- Title: squid/compat/eui64_aton.h Pages: 1 -->
<svg width="262pt" height="104pt"
 viewBox="0.00 0.00 261.50 104.00" xmlns="http://www.w3.org/2000/svg" xmlns:xlink="http://www.w3.org/1999/xlink">
<g id="graph0" class="graph" transform="scale(1 1) rotate(0) translate(4 100)">
<title>squid/compat/eui64_aton.h</title>
<!-- Node1 -->
<g id="Node000001" class="node">
<title>Node1</title>
<g id="a_Node000001"><a xlink:title=" ">
<polygon fill="#999999" stroke="#666666" points="181,-96 68,-96 68,-66 181,-66 181,-96"/>
<text text-anchor="start" x="76" y="-84" font-family="Helvetica,sans-Serif" font-size="10.00">squid/compat/eui64</text>
<text text-anchor="middle" x="124.5" y="-73" font-family="Helvetica,sans-Serif" font-size="10.00">_aton.h</text>
</a>
</g>
</g>
<!-- Node2 -->
<g id="Node000002" class="node">
<title>Node2</title>
<g id="a_Node000002"><a xlink:href="eui64__aton_8c.html" target="_top" xlink:title=" ">
<polygon fill="white" stroke="#666666" points="113,-30 0,-30 0,0 113,0 113,-30"/>
<text text-anchor="start" x="8" y="-18" font-family="Helvetica,sans-Serif" font-size="10.00">squid/compat/eui64</text>
<text text-anchor="middle" x="56.5" y="-7" font-family="Helvetica,sans-Serif" font-size="10.00">_aton.c</text>
</a>
</g>
</g>
<!-- Node1&#45;&gt;Node2 -->
<g id="edge1_Node000001_Node000002" class="edge">
<title>Node1&#45;&gt;Node2</title>
<g id="a_edge1_Node000001_Node000002"><a xlink:title=" ">
<path fill="none" stroke="#63b8ff" d="M102.11,-58.92C92.08,-49.49 80.52,-38.61 71.55,-30.16"/>
<polygon fill="#63b8ff" stroke="#63b8ff" points="99.73,-61.49 109.41,-65.8 104.53,-56.39 99.73,-61.49"/>
</a>
</g>
</g>
<!-- Node3 -->
<g id="Node000003" class="node">
<title>Node3</title>
<g id="a_Node000003"><a xlink:href="eui_2Eui64_8cc.html" target="_top" xlink:title=" ">
<polygon fill="white" stroke="#666666" points="253.5,-24.5 131.5,-24.5 131.5,-5.5 253.5,-5.5 253.5,-24.5"/>
<text text-anchor="middle" x="192.5" y="-12.5" font-family="Helvetica,sans-Serif" font-size="10.00">squid/src/eui/Eui64.cc</text>
</a>
</g>
</g>
<!-- Node1&#45;&gt;Node3 -->
<g id="edge2_Node000001_Node000003" class="edge">
<title>Node1&#45;&gt;Node3</title>
<g id="a_edge2_Node000001_Node000003"><a xlink:title=" ">
<path fill="none" stroke="#63b8ff" d="M146.88,-58.93C159.19,-47.35 173.79,-33.61 183.1,-24.84"/>
<polygon fill="#63b8ff" stroke="#63b8ff" points="144.47,-56.39 139.59,-65.8 149.27,-61.49 144.47,-56.39"/>
</a>
</g>
</g>
</g>
</svg>
