<?xml version="1.0" encoding="UTF-8" standalone="no"?>
<!DOCTYPE svg PUBLIC "-//W3C//DTD SVG 1.1//EN"
 "http://www.w3.org/Graphics/SVG/1.1/DTD/svg11.dtd">
<!-- Generated by graphviz version 2.43.0 (0)
 -->
<!-- Title: squid/src/eui/Eui64.cc Pages: 1 -->
<!--zoomable 192 -->

<svg id="main" version="1.1" xmlns="http://www.w3.org/2000/svg" xmlns:xlink="http://www.w3.org/1999/xlink" xml:space="preserve" onload="init(evt)">
<style type="text/css"><![CDATA[
.node, .edge {opacity: 0.7;}
.node.selected, .edge.selected {opacity: 1;}
.edge:hover path { stroke: red; }
.edge:hover polygon { stroke: red; fill: red; }
]]></style>

<defs>
  <circle id="rim" cx="0" cy="0" r="7"/>
  <circle id="rim2" cx="0" cy="0" r="3.5"/>
  <g id="zoomPlus">
    <use xlink:href="#rim" fill="#404040"><set attributeName="fill" to="#808080" begin="zoomplus.mouseover" end="zoomplus.mouseout"/></use>
    <path d="M-4,0h8M0,-4v8" fill="none" stroke="white" stroke-width="1.5" pointer-events="none"/>
  </g>
  <g id="zoomMin">
    <use xlink:href="#rim" fill="#404040"><set attributeName="fill" to="#808080" begin="zoomminus.mouseover" end="zoomminus.mouseout"/></use>
    <path d="M-4,0h8" fill="none" stroke="white" stroke-width="1.5" pointer-events="none"/>
  </g>
  <g id="arrowUp" transform="translate(30 24)">
    <use xlink:href="#rim"/>
    <path pointer-events="none" fill="none" stroke="white" stroke-width="1.5" d="M0,-3.0v7 M-2.5,-0.5L0,-3.0L2.5,-0.5"/>
  </g>
  <g id="arrowRight" transform="rotate(90) translate(36 -43)">
    <use xlink:href="#rim"/>
    <path pointer-events="none" fill="none" stroke="white" stroke-width="1.5" d="M0,-3.0v7 M-2.5,-0.5L0,-3.0L2.5,-0.5"/>
  </g>
  <g id="arrowDown" transform="rotate(180) translate(-30 -48)">
    <use xlink:href="#rim"/>
    <path pointer-events="none" fill="none" stroke="white" stroke-width="1.5" d="M0,-3.0v7 M-2.5,-0.5L0,-3.0L2.5,-0.5"/>
  </g>
  <g id="arrowLeft" transform="rotate(270) translate(-36 17)">
    <use xlink:href="#rim"/>
    <path pointer-events="none" fill="none" stroke="white" stroke-width="1.5" d="M0,-3.0v7 M-2.5,-0.5L0,-3.0L2.5,-0.5"/>
  </g>
  <g id="resetDef">
    <use xlink:href="#rim2" fill="#404040"><set attributeName="fill" to="#808080" begin="reset.mouseover" end="reset.mouseout"/></use>
  </g>
</defs>
<script type="application/ecmascript">
var viewWidth = 3464;
var viewHeight = 192;
var sectionId = 'dynsection-0';
</script>
<script type="application/ecmascript" xlink:href="svg.min.js"/>
<svg id="graph" class="graph">
<g id="viewport">
<title>squid/src/eui/Eui64.cc</title>
<!-- Node1 -->
<g id="Node000001" class="node">
<title>Node1</title>
<g id="a_Node000001"><a xlink:title=" ">
<polygon fill="#999999" stroke="#666666" points="2728.5,-184 2606.5,-184 2606.5,-165 2728.5,-165 2728.5,-184"/>
<text text-anchor="middle" x="2667.5" y="-172" font-family="Helvetica,sans-Serif" font-size="10.00">squid/src/eui/Eui64.cc</text>
</a>
</g>
</g>
<!-- Node2 -->
<g id="Node000002" class="node">
<title>Node2</title>
<g id="a_Node000002"><a xlink:href="squid_8h.html" target="_top" xlink:title=" ">
<polygon fill="white" stroke="#666666" points="1652.5,-129 1600.5,-129 1600.5,-110 1652.5,-110 1652.5,-129"/>
<text text-anchor="middle" x="1626.5" y="-117" font-family="Helvetica,sans-Serif" font-size="10.00">squid.h</text>
</a>
</g>
</g>
<!-- Node1&#45;&gt;Node2 -->
<g id="edge1_Node000001_Node000002" class="edge">
<title>Node1&#45;&gt;Node2</title>
<g id="a_edge1_Node000001_Node000002"><a xlink:title=" ">
<path fill="none" stroke="#63b8ff" d="M2606.27,-170.38C2412.61,-160.52 1817.17,-130.21 1663.17,-122.37"/>
<polygon fill="#63b8ff" stroke="#63b8ff" points="1663.02,-118.85 1652.85,-121.84 1662.66,-125.85 1663.02,-118.85"/>
</a>
</g>
</g>
<!-- Node44 -->
<g id="Node000044" class="node">
<title>Node44</title>
<g id="a_Node000044"><a xlink:href="eui64__aton_8h.html" target="_top" xlink:title=" ">
<polygon fill="white" stroke="#666666" points="2530,-129 2411,-129 2411,-110 2530,-110 2530,-129"/>
<text text-anchor="middle" x="2470.5" y="-117" font-family="Helvetica,sans-Serif" font-size="10.00">compat/eui64_aton.h</text>
</a>
</g>
</g>
<!-- Node1&#45;&gt;Node44 -->
<g id="edge30_Node000001_Node000044" class="edge">
<title>Node1&#45;&gt;Node44</title>
<g id="a_edge30_Node000001_Node000044"><a xlink:title=" ">
<path fill="none" stroke="#63b8ff" d="M2635.85,-164.98C2602.34,-155.97 2549.3,-141.7 2512.36,-131.76"/>
<polygon fill="#63b8ff" stroke="#63b8ff" points="2512.97,-128.3 2502.4,-129.08 2511.15,-135.06 2512.97,-128.3"/>
</a>
</g>
</g>
<!-- Node45 -->
<g id="Node000045" class="node">
<title>Node45</title>
<g id="a_Node000045"><a xlink:href="debug_2Stream_8h.html" target="_top" xlink:title=" ">
<polygon fill="white" stroke="#666666" points="2642.5,-129 2548.5,-129 2548.5,-110 2642.5,-110 2642.5,-129"/>
<text text-anchor="middle" x="2595.5" y="-117" font-family="Helvetica,sans-Serif" font-size="10.00">debug/Stream.h</text>
</a>
</g>
</g>
<!-- Node1&#45;&gt;Node45 -->
<g id="edge31_Node000001_Node000045" class="edge">
<title>Node1&#45;&gt;Node45</title>
<g id="a_edge31_Node000001_Node000045"><a xlink:title=" ">
<path fill="none" stroke="#63b8ff" d="M2655.93,-164.98C2645.08,-157 2628.62,-144.88 2615.62,-135.31"/>
<polygon fill="#63b8ff" stroke="#63b8ff" points="2617.41,-132.28 2607.28,-129.17 2613.26,-137.92 2617.41,-132.28"/>
</a>
</g>
</g>
<!-- Node52 -->
<g id="Node000052" class="node">
<title>Node52</title>
<g id="a_Node000052"><a xlink:href="eui_2Eui64_8h.html" target="_top" xlink:title=" ">
<polygon fill="white" stroke="#666666" points="2754,-129 2683,-129 2683,-110 2754,-110 2754,-129"/>
<text text-anchor="middle" x="2718.5" y="-117" font-family="Helvetica,sans-Serif" font-size="10.00">eui/Eui64.h</text>
</a>
</g>
</g>
<!-- Node1&#45;&gt;Node52 -->
<g id="edge38_Node000001_Node000052" class="edge">
<title>Node1&#45;&gt;Node52</title>
<g id="a_edge38_Node000001_Node000052"><a xlink:title=" ">
<path fill="none" stroke="#63b8ff" d="M2675.92,-164.75C2683.27,-157.11 2694.13,-145.82 2703.04,-136.56"/>
<polygon fill="#63b8ff" stroke="#63b8ff" points="2705.82,-138.72 2710.24,-129.09 2700.78,-133.87 2705.82,-138.72"/>
</a>
</g>
</g>
<!-- Node54 -->
<g id="Node000054" class="node">
<title>Node54</title>
<g id="a_Node000054"><a xlink:href="globals_8h.html" target="_top" xlink:title=" ">
<polygon fill="white" stroke="#666666" points="2986,-129 2925,-129 2925,-110 2986,-110 2986,-129"/>
<text text-anchor="middle" x="2955.5" y="-117" font-family="Helvetica,sans-Serif" font-size="10.00">globals.h</text>
</a>
</g>
</g>
<!-- Node1&#45;&gt;Node54 -->
<g id="edge40_Node000001_Node000054" class="edge">
<title>Node1&#45;&gt;Node54</title>
<g id="a_edge40_Node000001_Node000054"><a xlink:title=" ">
<path fill="none" stroke="#63b8ff" d="M2713.77,-164.98C2769.37,-154.75 2861.78,-137.75 2914.79,-127.99"/>
<polygon fill="#63b8ff" stroke="#63b8ff" points="2915.64,-131.39 2924.84,-126.14 2914.37,-124.51 2915.64,-131.39"/>
</a>
</g>
</g>
<!-- Node72 -->
<g id="Node000072" class="node">
<title>Node72</title>
<g id="a_Node000072"><a xlink:href="ip_2Address_8h.html" target="_top" xlink:title=" ">
<polygon fill="white" stroke="#666666" points="3307,-129 3230,-129 3230,-110 3307,-110 3307,-129"/>
<text text-anchor="middle" x="3268.5" y="-117" font-family="Helvetica,sans-Serif" font-size="10.00">ip/Address.h</text>
</a>
</g>
</g>
<!-- Node1&#45;&gt;Node72 -->
<g id="edge46_Node000001_Node000072" class="edge">
<title>Node1&#45;&gt;Node72</title>
<g id="a_edge46_Node000001_Node000072"><a xlink:title=" ">
<path fill="none" stroke="#63b8ff" d="M2728.71,-168.1C2848.4,-157.55 3111.22,-134.37 3219.94,-124.78"/>
<polygon fill="#63b8ff" stroke="#63b8ff" points="3220.32,-128.26 3229.97,-123.9 3219.7,-121.29 3220.32,-128.26"/>
</a>
</g>
</g>
<!-- Node3 -->
<g id="Node000003" class="node">
<title>Node3</title>
<g id="a_Node000003"><a xlink:href="autoconf_8h.html" target="_top" xlink:title=" ">
<polygon fill="white" stroke="#666666" points="1527.5,-74 1459.5,-74 1459.5,-55 1527.5,-55 1527.5,-74"/>
<text text-anchor="middle" x="1493.5" y="-62" font-family="Helvetica,sans-Serif" font-size="10.00">autoconf.h</text>
</a>
</g>
</g>
<!-- Node2&#45;&gt;Node3 -->
<g id="edge2_Node000002_Node000003" class="edge">
<title>Node2&#45;&gt;Node3</title>
<g id="a_edge2_Node000002_Node000003"><a xlink:title=" ">
<path fill="none" stroke="#63b8ff" d="M1605.13,-109.98C1583.35,-101.3 1549.34,-87.75 1524.58,-77.88"/>
<polygon fill="#63b8ff" stroke="#63b8ff" points="1525.84,-74.62 1515.26,-74.17 1523.25,-81.12 1525.84,-74.62"/>
</a>
</g>
</g>
<!-- Node4 -->
<g id="Node000004" class="node">
<title>Node4</title>
<g id="a_Node000004"><a xlink:href="version_8h.html" target="_top" xlink:title=" ">
<polygon fill="white" stroke="#666666" points="1607.5,-74 1545.5,-74 1545.5,-55 1607.5,-55 1607.5,-74"/>
<text text-anchor="middle" x="1576.5" y="-62" font-family="Helvetica,sans-Serif" font-size="10.00">version.h</text>
</a>
</g>
</g>
<!-- Node2&#45;&gt;Node4 -->
<g id="edge3_Node000002_Node000004" class="edge">
<title>Node2&#45;&gt;Node4</title>
<g id="a_edge3_Node000002_Node000004"><a xlink:title=" ">
<path fill="none" stroke="#63b8ff" d="M1618.24,-109.75C1611.04,-102.11 1600.39,-90.82 1591.65,-81.56"/>
<polygon fill="#63b8ff" stroke="#63b8ff" points="1594.01,-78.96 1584.6,-74.09 1588.92,-83.76 1594.01,-78.96"/>
</a>
</g>
</g>
<!-- Node5 -->
<g id="Node000005" class="node">
<title>Node5</title>
<g id="a_Node000005"><a xlink:href="compat_8h.html" target="_top" xlink:title=" ">
<polygon fill="white" stroke="#666666" points="1727.5,-74 1625.5,-74 1625.5,-55 1727.5,-55 1727.5,-74"/>
<text text-anchor="middle" x="1676.5" y="-62" font-family="Helvetica,sans-Serif" font-size="10.00">compat/compat.h</text>
</a>
</g>
</g>
<!-- Node2&#45;&gt;Node5 -->
<g id="edge4_Node000002_Node000005" class="edge">
<title>Node2&#45;&gt;Node5</title>
<g id="a_edge4_Node000002_Node000005"><a xlink:title=" ">
<path fill="none" stroke="#63b8ff" d="M1634.76,-109.75C1641.96,-102.11 1652.61,-90.82 1661.35,-81.56"/>
<polygon fill="#63b8ff" stroke="#63b8ff" points="1664.08,-83.76 1668.4,-74.09 1658.99,-78.96 1664.08,-83.76"/>
</a>
</g>
</g>
<!-- Node6 -->
<g id="Node000006" class="node">
<title>Node6</title>
<g id="a_Node000006"><a xlink:href="osdetect_8h.html" target="_top" xlink:title=" ">
<polygon fill="white" stroke="#666666" points="107,-19 0,-19 0,0 107,0 107,-19"/>
<text text-anchor="middle" x="53.5" y="-7" font-family="Helvetica,sans-Serif" font-size="10.00">compat/osdetect.h</text>
</a>
</g>
</g>
<!-- Node5&#45;&gt;Node6 -->
<g id="edge5_Node000005_Node000006" class="edge">
<title>Node5&#45;&gt;Node6</title>
<g id="a_edge5_Node000005_Node000006"><a xlink:title=" ">
<path fill="none" stroke="#63b8ff" d="M1625.48,-55.86C1622.45,-55.53 1619.44,-55.24 1616.5,-55 955.31,-0.42 783.04,-70.93 117.4,-18.95"/>
<polygon fill="#63b8ff" stroke="#63b8ff" points="117.32,-15.43 107.07,-18.14 116.77,-22.41 117.32,-15.43"/>
</a>
</g>
</g>
<!-- Node7 -->
<g id="Node000007" class="node">
<title>Node7</title>
<g id="a_Node000007"><a xlink:href="fdsetsize_8h.html" target="_top" xlink:title=" ">
<polygon fill="white" stroke="#666666" points="235.5,-19 125.5,-19 125.5,0 235.5,0 235.5,-19"/>
<text text-anchor="middle" x="180.5" y="-7" font-family="Helvetica,sans-Serif" font-size="10.00">compat/fdsetsize.h</text>
</a>
</g>
</g>
<!-- Node5&#45;&gt;Node7 -->
<g id="edge6_Node000005_Node000007" class="edge">
<title>Node5&#45;&gt;Node7</title>
<g id="a_edge6_Node000005_Node000007"><a xlink:title=" ">
<path fill="none" stroke="#63b8ff" d="M1625.48,-55.87C1622.45,-55.54 1619.44,-55.25 1616.5,-55 1012.05,-4.42 854.35,-66.52 245.97,-19.01"/>
<polygon fill="#63b8ff" stroke="#63b8ff" points="245.86,-15.49 235.62,-18.2 245.31,-22.47 245.86,-15.49"/>
</a>
</g>
</g>
<!-- Node8 -->
<g id="Node000008" class="node">
<title>Node8</title>
<g id="a_Node000008"><a xlink:href="types_8h.html" target="_top" xlink:title=" ">
<polygon fill="#fff0f0" stroke="red" points="345.5,-19 253.5,-19 253.5,0 345.5,0 345.5,-19"/>
<text text-anchor="middle" x="299.5" y="-7" font-family="Helvetica,sans-Serif" font-size="10.00">compat/types.h</text>
</a>
</g>
</g>
<!-- Node5&#45;&gt;Node8 -->
<g id="edge7_Node000005_Node000008" class="edge">
<title>Node5&#45;&gt;Node8</title>
<g id="a_edge7_Node000005_Node000008"><a xlink:title=" ">
<path fill="none" stroke="#63b8ff" d="M1625.48,-55.88C1622.45,-55.55 1619.44,-55.25 1616.5,-55 1060.8,-7.86 915.07,-69.19 356.01,-19"/>
<polygon fill="#63b8ff" stroke="#63b8ff" points="355.94,-15.48 345.66,-18.06 355.31,-22.45 355.94,-15.48"/>
</a>
</g>
</g>
<!-- Node10 -->
<g id="Node000010" class="node">
<title>Node10</title>
<g id="a_Node000010"><a xlink:href="aix_8h.html" target="_top" xlink:title=" ">
<polygon fill="white" stroke="#666666" points="459,-19 364,-19 364,0 459,0 459,-19"/>
<text text-anchor="middle" x="411.5" y="-7" font-family="Helvetica,sans-Serif" font-size="10.00">compat/os/aix.h</text>
</a>
</g>
</g>
<!-- Node5&#45;&gt;Node10 -->
<g id="edge8_Node000005_Node000010" class="edge">
<title>Node5&#45;&gt;Node10</title>
<g id="a_edge8_Node000005_Node000010"><a xlink:title=" ">
<path fill="none" stroke="#63b8ff" d="M1625.48,-55.89C1622.45,-55.55 1619.43,-55.25 1616.5,-55 1111.27,-11.42 978.66,-64.02 469.23,-18.92"/>
<polygon fill="#63b8ff" stroke="#63b8ff" points="469.31,-15.42 459.04,-18.01 468.68,-22.39 469.31,-15.42"/>
</a>
</g>
</g>
<!-- Node11 -->
<g id="Node000011" class="node">
<title>Node11</title>
<g id="a_Node000011"><a xlink:href="android_8h.html" target="_top" xlink:title=" ">
<polygon fill="white" stroke="#666666" points="593.5,-19 477.5,-19 477.5,0 593.5,0 593.5,-19"/>
<text text-anchor="middle" x="535.5" y="-7" font-family="Helvetica,sans-Serif" font-size="10.00">compat/os/android.h</text>
</a>
</g>
</g>
<!-- Node5&#45;&gt;Node11 -->
<g id="edge9_Node000005_Node000011" class="edge">
<title>Node5&#45;&gt;Node11</title>
<g id="a_edge9_Node000005_Node000011"><a xlink:title=" ">
<path fill="none" stroke="#63b8ff" d="M1625.48,-55.9C1622.44,-55.56 1619.43,-55.26 1616.5,-55 1170.59,-15.61 1053.69,-54.83 603.59,-19"/>
<polygon fill="#63b8ff" stroke="#63b8ff" points="603.82,-15.51 593.57,-18.19 603.26,-22.48 603.82,-15.51"/>
</a>
</g>
</g>
<!-- Node12 -->
<g id="Node000012" class="node">
<title>Node12</title>
<g id="a_Node000012"><a xlink:href="dragonfly_8h.html" target="_top" xlink:title=" ">
<polygon fill="white" stroke="#666666" points="735.5,-19 611.5,-19 611.5,0 735.5,0 735.5,-19"/>
<text text-anchor="middle" x="673.5" y="-7" font-family="Helvetica,sans-Serif" font-size="10.00">compat/os/dragonfly.h</text>
</a>
</g>
</g>
<!-- Node5&#45;&gt;Node12 -->
<g id="edge10_Node000005_Node000012" class="edge">
<title>Node5&#45;&gt;Node12</title>
<g id="a_edge10_Node000005_Node000012"><a xlink:title=" ">
<path fill="none" stroke="#63b8ff" d="M1625.48,-55.92C1622.44,-55.58 1619.43,-55.27 1616.5,-55 1233.52,-20.05 1132.85,-49.56 745.88,-19.04"/>
<polygon fill="#63b8ff" stroke="#63b8ff" points="746.06,-15.54 735.81,-18.24 745.5,-22.52 746.06,-15.54"/>
</a>
</g>
</g>
<!-- Node13 -->
<g id="Node000013" class="node">
<title>Node13</title>
<g id="a_Node000013"><a xlink:href="freebsd_8h.html" target="_top" xlink:title=" ">
<polygon fill="white" stroke="#666666" points="869.5,-19 753.5,-19 753.5,0 869.5,0 869.5,-19"/>
<text text-anchor="middle" x="811.5" y="-7" font-family="Helvetica,sans-Serif" font-size="10.00">compat/os/freebsd.h</text>
</a>
</g>
</g>
<!-- Node5&#45;&gt;Node13 -->
<g id="edge11_Node000005_Node000013" class="edge">
<title>Node5&#45;&gt;Node13</title>
<g id="a_edge11_Node000005_Node000013"><a xlink:title=" ">
<path fill="none" stroke="#63b8ff" d="M1625.47,-55.95C1622.44,-55.6 1619.43,-55.28 1616.5,-55 1292.93,-24.25 1207.38,-47.21 879.83,-19.04"/>
<polygon fill="#63b8ff" stroke="#63b8ff" points="879.84,-15.53 869.58,-18.15 879.23,-22.5 879.84,-15.53"/>
</a>
</g>
</g>
<!-- Node14 -->
<g id="Node000014" class="node">
<title>Node14</title>
<g id="a_Node000014"><a xlink:href="hpux_8h.html" target="_top" xlink:title=" ">
<polygon fill="white" stroke="#666666" points="991.5,-19 887.5,-19 887.5,0 991.5,0 991.5,-19"/>
<text text-anchor="middle" x="939.5" y="-7" font-family="Helvetica,sans-Serif" font-size="10.00">compat/os/hpux.h</text>
</a>
</g>
</g>
<!-- Node5&#45;&gt;Node14 -->
<g id="edge12_Node000005_Node000014" class="edge">
<title>Node5&#45;&gt;Node14</title>
<g id="a_edge12_Node000005_Node000014"><a xlink:title=" ">
<path fill="none" stroke="#63b8ff" d="M1625.47,-55.98C1622.44,-55.62 1619.43,-55.29 1616.5,-55 1346.94,-28.08 1275.16,-45.51 1001.93,-19.06"/>
<polygon fill="#63b8ff" stroke="#63b8ff" points="1002,-15.55 991.71,-18.06 1001.32,-22.51 1002,-15.55"/>
</a>
</g>
</g>
<!-- Node15 -->
<g id="Node000015" class="node">
<title>Node15</title>
<g id="a_Node000015"><a xlink:href="linux_8h.html" target="_top" xlink:title=" ">
<polygon fill="white" stroke="#666666" points="1113.5,-19 1009.5,-19 1009.5,0 1113.5,0 1113.5,-19"/>
<text text-anchor="middle" x="1061.5" y="-7" font-family="Helvetica,sans-Serif" font-size="10.00">compat/os/linux.h</text>
</a>
</g>
</g>
<!-- Node5&#45;&gt;Node15 -->
<g id="edge13_Node000005_Node000015" class="edge">
<title>Node5&#45;&gt;Node15</title>
<g id="a_edge13_Node000005_Node000015"><a xlink:title=" ">
<path fill="none" stroke="#63b8ff" d="M1625.47,-56.03C1622.44,-55.66 1619.43,-55.31 1616.5,-55 1400.93,-31.9 1343.15,-41.89 1123.94,-19.08"/>
<polygon fill="#63b8ff" stroke="#63b8ff" points="1124.03,-15.57 1113.72,-18.01 1123.29,-22.53 1124.03,-15.57"/>
</a>
</g>
</g>
<!-- Node16 -->
<g id="Node000016" class="node">
<title>Node16</title>
<g id="a_Node000016"><a xlink:href="macosx_8h.html" target="_top" xlink:title=" ">
<polygon fill="white" stroke="#666666" points="1249.5,-19 1131.5,-19 1131.5,0 1249.5,0 1249.5,-19"/>
<text text-anchor="middle" x="1190.5" y="-7" font-family="Helvetica,sans-Serif" font-size="10.00">compat/os/macosx.h</text>
</a>
</g>
</g>
<!-- Node5&#45;&gt;Node16 -->
<g id="edge14_Node000005_Node000016" class="edge">
<title>Node5&#45;&gt;Node16</title>
<g id="a_edge14_Node000005_Node000016"><a xlink:title=" ">
<path fill="none" stroke="#63b8ff" d="M1625.46,-56.13C1622.43,-55.73 1619.42,-55.35 1616.5,-55 1461,-36.17 1419.11,-36.88 1259.98,-19.14"/>
<polygon fill="#63b8ff" stroke="#63b8ff" points="1260.16,-15.64 1249.83,-18 1259.38,-22.59 1260.16,-15.64"/>
</a>
</g>
</g>
<!-- Node17 -->
<g id="Node000017" class="node">
<title>Node17</title>
<g id="a_Node000017"><a xlink:href="mingw_8h.html" target="_top" xlink:title=" ">
<polygon fill="white" stroke="#666666" points="1379.5,-19 1267.5,-19 1267.5,0 1379.5,0 1379.5,-19"/>
<text text-anchor="middle" x="1323.5" y="-7" font-family="Helvetica,sans-Serif" font-size="10.00">compat/os/mingw.h</text>
</a>
</g>
</g>
<!-- Node5&#45;&gt;Node17 -->
<g id="edge15_Node000005_Node000017" class="edge">
<title>Node5&#45;&gt;Node17</title>
<g id="a_edge15_Node000005_Node000017"><a xlink:title=" ">
<path fill="none" stroke="#63b8ff" d="M1625.17,-55.79C1562.97,-46.45 1458.03,-30.7 1389.77,-20.45"/>
<polygon fill="#63b8ff" stroke="#63b8ff" points="1389.97,-16.94 1379.56,-18.92 1388.93,-23.86 1389.97,-16.94"/>
</a>
</g>
</g>
<!-- Node18 -->
<g id="Node000018" class="node">
<title>Node18</title>
<g id="a_Node000018"><a xlink:href="mswindows_8h.html" target="_top" xlink:title=" ">
<polygon fill="white" stroke="#666666" points="1535,-19 1398,-19 1398,0 1535,0 1535,-19"/>
<text text-anchor="middle" x="1466.5" y="-7" font-family="Helvetica,sans-Serif" font-size="10.00">compat/os/mswindows.h</text>
</a>
</g>
</g>
<!-- Node5&#45;&gt;Node18 -->
<g id="edge16_Node000005_Node000018" class="edge">
<title>Node5&#45;&gt;Node18</title>
<g id="a_edge16_Node000005_Node000018"><a xlink:title=" ">
<path fill="none" stroke="#63b8ff" d="M1642.76,-54.98C1606.82,-45.91 1549.78,-31.52 1510.37,-21.57"/>
<polygon fill="#63b8ff" stroke="#63b8ff" points="1511.06,-18.14 1500.5,-19.08 1509.34,-24.92 1511.06,-18.14"/>
</a>
</g>
</g>
<!-- Node19 -->
<g id="Node000019" class="node">
<title>Node19</title>
<g id="a_Node000019"><a xlink:href="netbsd_8h.html" target="_top" xlink:title=" ">
<polygon fill="white" stroke="#666666" points="1666,-19 1553,-19 1553,0 1666,0 1666,-19"/>
<text text-anchor="middle" x="1609.5" y="-7" font-family="Helvetica,sans-Serif" font-size="10.00">compat/os/netbsd.h</text>
</a>
</g>
</g>
<!-- Node5&#45;&gt;Node19 -->
<g id="edge17_Node000005_Node000019" class="edge">
<title>Node5&#45;&gt;Node19</title>
<g id="a_edge17_Node000005_Node000019"><a xlink:title=" ">
<path fill="none" stroke="#63b8ff" d="M1665.74,-54.98C1655.73,-47.07 1640.61,-35.11 1628.57,-25.58"/>
<polygon fill="#63b8ff" stroke="#63b8ff" points="1630.47,-22.63 1620.46,-19.17 1626.13,-28.12 1630.47,-22.63"/>
</a>
</g>
</g>
<!-- Node20 -->
<g id="Node000020" class="node">
<title>Node20</title>
<g id="a_Node000020"><a xlink:href="openbsd_8h.html" target="_top" xlink:title=" ">
<polygon fill="white" stroke="#666666" points="1805,-19 1684,-19 1684,0 1805,0 1805,-19"/>
<text text-anchor="middle" x="1744.5" y="-7" font-family="Helvetica,sans-Serif" font-size="10.00">compat/os/openbsd.h</text>
</a>
</g>
</g>
<!-- Node5&#45;&gt;Node20 -->
<g id="edge18_Node000005_Node000020" class="edge">
<title>Node5&#45;&gt;Node20</title>
<g id="a_edge18_Node000005_Node000020"><a xlink:title=" ">
<path fill="none" stroke="#63b8ff" d="M1687.43,-54.98C1697.58,-47.07 1712.92,-35.11 1725.15,-25.58"/>
<polygon fill="#63b8ff" stroke="#63b8ff" points="1727.64,-28.08 1733.38,-19.17 1723.34,-22.56 1727.64,-28.08"/>
</a>
</g>
</g>
<!-- Node21 -->
<g id="Node000021" class="node">
<title>Node21</title>
<g id="a_Node000021"><a xlink:href="os2_8h.html" target="_top" xlink:title=" ">
<polygon fill="white" stroke="#666666" points="1920,-19 1823,-19 1823,0 1920,0 1920,-19"/>
<text text-anchor="middle" x="1871.5" y="-7" font-family="Helvetica,sans-Serif" font-size="10.00">compat/os/os2.h</text>
</a>
</g>
</g>
<!-- Node5&#45;&gt;Node21 -->
<g id="edge19_Node000005_Node000021" class="edge">
<title>Node5&#45;&gt;Node21</title>
<g id="a_edge19_Node000005_Node000021"><a xlink:title=" ">
<path fill="none" stroke="#63b8ff" d="M1707.83,-54.98C1740.99,-45.97 1793.5,-31.7 1830.06,-21.76"/>
<polygon fill="#63b8ff" stroke="#63b8ff" points="1831.19,-25.08 1839.92,-19.08 1829.36,-18.33 1831.19,-25.08"/>
</a>
</g>
</g>
<!-- Node22 -->
<g id="Node000022" class="node">
<title>Node22</title>
<g id="a_Node000022"><a xlink:href="qnx_8h.html" target="_top" xlink:title=" ">
<polygon fill="white" stroke="#666666" points="2036.5,-19 1938.5,-19 1938.5,0 2036.5,0 2036.5,-19"/>
<text text-anchor="middle" x="1987.5" y="-7" font-family="Helvetica,sans-Serif" font-size="10.00">compat/os/qnx.h</text>
</a>
</g>
</g>
<!-- Node5&#45;&gt;Node22 -->
<g id="edge20_Node000005_Node000022" class="edge">
<title>Node5&#45;&gt;Node22</title>
<g id="a_edge20_Node000005_Node000022"><a xlink:title=" ">
<path fill="none" stroke="#63b8ff" d="M1726.47,-54.98C1781.46,-45.61 1869.79,-30.56 1928.24,-20.6"/>
<polygon fill="#63b8ff" stroke="#63b8ff" points="1929.16,-23.99 1938.43,-18.86 1927.98,-17.09 1929.16,-23.99"/>
</a>
</g>
</g>
<!-- Node23 -->
<g id="Node000023" class="node">
<title>Node23</title>
<g id="a_Node000023"><a xlink:href="solaris_8h.html" target="_top" xlink:title=" ">
<polygon fill="white" stroke="#666666" points="2166.5,-19 2054.5,-19 2054.5,0 2166.5,0 2166.5,-19"/>
<text text-anchor="middle" x="2110.5" y="-7" font-family="Helvetica,sans-Serif" font-size="10.00">compat/os/solaris.h</text>
</a>
</g>
</g>
<!-- Node5&#45;&gt;Node23 -->
<g id="edge21_Node000005_Node000023" class="edge">
<title>Node5&#45;&gt;Node23</title>
<g id="a_edge21_Node000005_Node000023"><a xlink:title=" ">
<path fill="none" stroke="#63b8ff" d="M1727.56,-57.51C1796.84,-49.34 1924.78,-34.12 2044.42,-19.13"/>
<polygon fill="#63b8ff" stroke="#63b8ff" points="2045,-22.58 2054.48,-17.86 2044.13,-15.63 2045,-22.58"/>
</a>
</g>
</g>
<!-- Node24 -->
<g id="Node000024" class="node">
<title>Node24</title>
<g id="a_Node000024"><a xlink:href="sunos_8h.html" target="_top" xlink:title=" ">
<polygon fill="white" stroke="#666666" points="2292.5,-19 2184.5,-19 2184.5,0 2292.5,0 2292.5,-19"/>
<text text-anchor="middle" x="2238.5" y="-7" font-family="Helvetica,sans-Serif" font-size="10.00">compat/os/sunos.h</text>
</a>
</g>
</g>
<!-- Node5&#45;&gt;Node24 -->
<g id="edge22_Node000005_Node000024" class="edge">
<title>Node5&#45;&gt;Node24</title>
<g id="a_edge22_Node000005_Node000024"><a xlink:title=" ">
<path fill="none" stroke="#63b8ff" d="M1727.58,-59.71C1816.24,-52.97 2004.59,-37.9 2174.12,-19.11"/>
<polygon fill="#63b8ff" stroke="#63b8ff" points="2174.67,-22.57 2184.22,-17.98 2173.9,-15.61 2174.67,-22.57"/>
</a>
</g>
</g>
<!-- Node25 -->
<g id="Node000025" class="node">
<title>Node25</title>
<g id="a_Node000025"><a xlink:href="assert_8h.html" target="_top" xlink:title=" ">
<polygon fill="white" stroke="#666666" points="2406,-19 2311,-19 2311,0 2406,0 2406,-19"/>
<text text-anchor="middle" x="2358.5" y="-7" font-family="Helvetica,sans-Serif" font-size="10.00">compat/assert.h</text>
</a>
</g>
</g>
<!-- Node5&#45;&gt;Node25 -->
<g id="edge23_Node000005_Node000025" class="edge">
<title>Node5&#45;&gt;Node25</title>
<g id="a_edge23_Node000005_Node000025"><a xlink:title=" ">
<path fill="none" stroke="#63b8ff" d="M1727.66,-61.19C1832.88,-56.16 2081.35,-42.78 2300.85,-18.98"/>
<polygon fill="#63b8ff" stroke="#63b8ff" points="2301.39,-22.44 2310.95,-17.87 2300.63,-15.48 2301.39,-22.44"/>
</a>
</g>
</g>
<!-- Node26 -->
<g id="Node000026" class="node">
<title>Node26</title>
<g id="a_Node000026"><a xlink:href="compat__shared_8h.html" target="_top" xlink:title=" ">
<polygon fill="#fff0f0" stroke="red" points="2564.5,-19 2424.5,-19 2424.5,0 2564.5,0 2564.5,-19"/>
<text text-anchor="middle" x="2494.5" y="-7" font-family="Helvetica,sans-Serif" font-size="10.00">compat/compat_shared.h</text>
</a>
</g>
</g>
<!-- Node5&#45;&gt;Node26 -->
<g id="edge24_Node000005_Node000026" class="edge">
<title>Node5&#45;&gt;Node26</title>
<g id="a_edge24_Node000005_Node000026"><a xlink:title=" ">
<path fill="none" stroke="#63b8ff" d="M1727.56,-61.23C1846.01,-55.77 2148.93,-40.84 2414.07,-18.99"/>
<polygon fill="#63b8ff" stroke="#63b8ff" points="2414.6,-22.46 2424.28,-18.14 2414.02,-15.48 2414.6,-22.46"/>
</a>
</g>
</g>
<!-- Node36 -->
<g id="Node000036" class="node">
<title>Node36</title>
<g id="a_Node000036"><a xlink:href="stdvarargs_8h.html" target="_top" xlink:title=" ">
<polygon fill="#fff0f0" stroke="red" points="2700,-19 2583,-19 2583,0 2700,0 2700,-19"/>
<text text-anchor="middle" x="2641.5" y="-7" font-family="Helvetica,sans-Serif" font-size="10.00">compat/stdvarargs.h</text>
</a>
</g>
</g>
<!-- Node5&#45;&gt;Node36 -->
<g id="edge25_Node000005_Node000036" class="edge">
<title>Node5&#45;&gt;Node36</title>
<g id="a_edge25_Node000005_Node000036"><a xlink:title=" ">
<path fill="none" stroke="#63b8ff" d="M1727.67,-62.3C1863.46,-58.83 2244.43,-47.24 2572.74,-18.99"/>
<polygon fill="#63b8ff" stroke="#63b8ff" points="2573.26,-22.46 2582.92,-18.1 2572.66,-15.48 2573.26,-22.46"/>
</a>
</g>
</g>
<!-- Node38 -->
<g id="Node000038" class="node">
<title>Node38</title>
<g id="a_Node000038"><a xlink:href="stdio_8h.html" target="_top" xlink:title=" ">
<polygon fill="#fff0f0" stroke="red" points="2807,-19 2718,-19 2718,0 2807,0 2807,-19"/>
<text text-anchor="middle" x="2762.5" y="-7" font-family="Helvetica,sans-Serif" font-size="10.00">compat/stdio.h</text>
</a>
</g>
</g>
<!-- Node5&#45;&gt;Node38 -->
<g id="edge26_Node000005_Node000038" class="edge">
<title>Node5&#45;&gt;Node38</title>
<g id="a_edge26_Node000005_Node000038"><a xlink:title=" ">
<path fill="none" stroke="#63b8ff" d="M1727.65,-63.34C1876.98,-62.43 2325.35,-56.6 2707.61,-18.95"/>
<polygon fill="#63b8ff" stroke="#63b8ff" points="2708.16,-22.41 2717.76,-17.94 2707.46,-15.45 2708.16,-22.41"/>
</a>
</g>
</g>
<!-- Node40 -->
<g id="Node000040" class="node">
<title>Node40</title>
<g id="a_Node000040"><a xlink:href="statvfs_8h.html" target="_top" xlink:title=" ">
<polygon fill="white" stroke="#666666" points="2924,-19 2825,-19 2825,0 2924,0 2924,-19"/>
<text text-anchor="middle" x="2874.5" y="-7" font-family="Helvetica,sans-Serif" font-size="10.00">compat/statvfs.h</text>
</a>
</g>
</g>
<!-- Node5&#45;&gt;Node40 -->
<g id="edge27_Node000005_Node000040" class="edge">
<title>Node5&#45;&gt;Node40</title>
<g id="a_edge27_Node000005_Node000040"><a xlink:title=" ">
<path fill="none" stroke="#63b8ff" d="M1727.71,-63.39C1887.12,-62.66 2388.8,-57.33 2814.92,-18.93"/>
<polygon fill="#63b8ff" stroke="#63b8ff" points="2815.33,-22.41 2824.97,-18.02 2814.69,-15.44 2815.33,-22.41"/>
</a>
</g>
</g>
<!-- Node41 -->
<g id="Node000041" class="node">
<title>Node41</title>
<g id="a_Node000041"><a xlink:href="debug_8h.html" target="_top" xlink:title=" ">
<polygon fill="white" stroke="#666666" points="3037,-19 2942,-19 2942,0 3037,0 3037,-19"/>
<text text-anchor="middle" x="2989.5" y="-7" font-family="Helvetica,sans-Serif" font-size="10.00">compat/debug.h</text>
</a>
</g>
</g>
<!-- Node5&#45;&gt;Node41 -->
<g id="edge28_Node000005_Node000041" class="edge">
<title>Node5&#45;&gt;Node41</title>
<g id="a_edge28_Node000005_Node000041"><a xlink:title=" ">
<path fill="none" stroke="#63b8ff" d="M1727.74,-62.46C1929.83,-58.22 2672.74,-41.51 2931.84,-18.91"/>
<polygon fill="#63b8ff" stroke="#63b8ff" points="2932.32,-22.38 2941.96,-18 2931.69,-15.41 2932.32,-22.38"/>
</a>
</g>
</g>
<!-- Node42 -->
<g id="Node000042" class="node">
<title>Node42</title>
<g id="a_Node000042"><a xlink:href="valgrind_8h.html" target="_top" xlink:title=" ">
<polygon fill="#fff0f0" stroke="red" points="3160,-19 3055,-19 3055,0 3160,0 3160,-19"/>
<text text-anchor="middle" x="3107.5" y="-7" font-family="Helvetica,sans-Serif" font-size="10.00">compat/valgrind.h</text>
</a>
</g>
</g>
<!-- Node5&#45;&gt;Node42 -->
<g id="edge29_Node000005_Node000042" class="edge">
<title>Node5&#45;&gt;Node42</title>
<g id="a_edge29_Node000005_Node000042"><a xlink:title=" ">
<path fill="none" stroke="#63b8ff" d="M1727.55,-62.57C1940.87,-58.56 2762.47,-42 3044.75,-19.03"/>
<polygon fill="#63b8ff" stroke="#63b8ff" points="3045.29,-22.5 3054.97,-18.18 3044.71,-15.53 3045.29,-22.5"/>
</a>
</g>
</g>
<!-- Node46 -->
<g id="Node000046" class="node">
<title>Node46</title>
<g id="a_Node000046"><a xlink:href="Here_8h.html" target="_top" xlink:title=" ">
<polygon fill="white" stroke="#666666" points="2330,-74 2255,-74 2255,-55 2330,-55 2330,-74"/>
<text text-anchor="middle" x="2292.5" y="-62" font-family="Helvetica,sans-Serif" font-size="10.00">base/Here.h</text>
</a>
</g>
</g>
<!-- Node45&#45;&gt;Node46 -->
<g id="edge32_Node000045_Node000046" class="edge">
<title>Node45&#45;&gt;Node46</title>
<g id="a_edge32_Node000045_Node000046"><a xlink:title=" ">
<path fill="none" stroke="#63b8ff" d="M2548.1,-110.46C2498.63,-102.03 2418.51,-88.27 2340.19,-74.29"/>
<polygon fill="#63b8ff" stroke="#63b8ff" points="2340.61,-70.81 2330.15,-72.49 2339.38,-77.7 2340.61,-70.81"/>
</a>
</g>
</g>
<!-- Node48 -->
<g id="Node000048" class="node">
<title>Node48</title>
<g id="a_Node000048"><a xlink:href="AllocatorProxy_8h.html" target="_top" xlink:title=" ">
<polygon fill="white" stroke="#666666" points="2471.5,-74 2347.5,-74 2347.5,-55 2471.5,-55 2471.5,-74"/>
<text text-anchor="middle" x="2409.5" y="-62" font-family="Helvetica,sans-Serif" font-size="10.00">mem/AllocatorProxy.h</text>
</a>
</g>
</g>
<!-- Node45&#45;&gt;Node48 -->
<g id="edge34_Node000045_Node000048" class="edge">
<title>Node45&#45;&gt;Node48</title>
<g id="a_edge34_Node000045_Node000048"><a xlink:title=" ">
<path fill="none" stroke="#63b8ff" d="M2565.62,-109.98C2534.12,-101.01 2484.33,-86.82 2449.47,-76.89"/>
<polygon fill="#63b8ff" stroke="#63b8ff" points="2450.19,-73.46 2439.62,-74.08 2448.28,-80.19 2450.19,-73.46"/>
</a>
</g>
</g>
<!-- Node49 -->
<g id="Node000049" class="node">
<title>Node49</title>
<g id="a_Node000049"><a xlink:title=" ">
<polygon fill="#e0e0e0" stroke="#999999" points="2549.5,-74 2489.5,-74 2489.5,-55 2549.5,-55 2549.5,-74"/>
<text text-anchor="middle" x="2519.5" y="-62" font-family="Helvetica,sans-Serif" font-size="10.00">iostream</text>
</a>
</g>
</g>
<!-- Node45&#45;&gt;Node49 -->
<g id="edge35_Node000045_Node000049" class="edge">
<title>Node45&#45;&gt;Node49</title>
<g id="a_edge35_Node000045_Node000049"><a xlink:title=" ">
<path fill="none" stroke="#63b8ff" d="M2583.29,-109.98C2571.72,-101.92 2554.12,-89.65 2540.34,-80.03"/>
<polygon fill="#63b8ff" stroke="#63b8ff" points="2542.14,-77.02 2531.93,-74.17 2538.13,-82.76 2542.14,-77.02"/>
</a>
</g>
</g>
<!-- Node50 -->
<g id="Node000050" class="node">
<title>Node50</title>
<g id="a_Node000050"><a xlink:title=" ">
<polygon fill="#e0e0e0" stroke="#999999" points="2623.5,-74 2567.5,-74 2567.5,-55 2623.5,-55 2623.5,-74"/>
<text text-anchor="middle" x="2595.5" y="-62" font-family="Helvetica,sans-Serif" font-size="10.00">sstream</text>
</a>
</g>
</g>
<!-- Node45&#45;&gt;Node50 -->
<g id="edge36_Node000045_Node000050" class="edge">
<title>Node45&#45;&gt;Node50</title>
<g id="a_edge36_Node000045_Node000050"><a xlink:title=" ">
<path fill="none" stroke="#63b8ff" d="M2595.5,-109.75C2595.5,-102.8 2595.5,-92.85 2595.5,-84.13"/>
<polygon fill="#63b8ff" stroke="#63b8ff" points="2599,-84.09 2595.5,-74.09 2592,-84.09 2599,-84.09"/>
</a>
</g>
</g>
<!-- Node51 -->
<g id="Node000051" class="node">
<title>Node51</title>
<g id="a_Node000051"><a xlink:title=" ">
<polygon fill="#e0e0e0" stroke="#999999" points="2697.5,-74 2641.5,-74 2641.5,-55 2697.5,-55 2697.5,-74"/>
<text text-anchor="middle" x="2669.5" y="-62" font-family="Helvetica,sans-Serif" font-size="10.00">iomanip</text>
</a>
</g>
</g>
<!-- Node45&#45;&gt;Node51 -->
<g id="edge37_Node000045_Node000051" class="edge">
<title>Node45&#45;&gt;Node51</title>
<g id="a_edge37_Node000045_Node000051"><a xlink:title=" ">
<path fill="none" stroke="#63b8ff" d="M2607.39,-109.98C2618.65,-101.92 2635.79,-89.65 2649.21,-80.03"/>
<polygon fill="#63b8ff" stroke="#63b8ff" points="2651.3,-82.84 2657.39,-74.17 2647.23,-77.15 2651.3,-82.84"/>
</a>
</g>
</g>
<!-- Node47 -->
<g id="Node000047" class="node">
<title>Node47</title>
<g id="a_Node000047"><a xlink:title=" ">
<polygon fill="#e0e0e0" stroke="#999999" points="3226.5,-19 3178.5,-19 3178.5,0 3226.5,0 3226.5,-19"/>
<text text-anchor="middle" x="3202.5" y="-7" font-family="Helvetica,sans-Serif" font-size="10.00">iosfwd</text>
</a>
</g>
</g>
<!-- Node46&#45;&gt;Node47 -->
<g id="edge33_Node000046_Node000047" class="edge">
<title>Node46&#45;&gt;Node47</title>
<g id="a_edge33_Node000046_Node000047"><a xlink:title=" ">
<path fill="none" stroke="#63b8ff" d="M2330.09,-56.11C2332.93,-55.69 2335.76,-55.31 2338.5,-55 2702.5,-13.69 2802.05,-72.32 3168.38,-18.8"/>
<polygon fill="#63b8ff" stroke="#63b8ff" points="3169.09,-22.23 3178.47,-17.31 3168.06,-15.31 3169.09,-22.23"/>
</a>
</g>
</g>
<!-- Node53 -->
<g id="Node000053" class="node">
<title>Node53</title>
<g id="a_Node000053"><a xlink:title=" ">
<polygon fill="#e0e0e0" stroke="#999999" points="2765.5,-74 2715.5,-74 2715.5,-55 2765.5,-55 2765.5,-74"/>
<text text-anchor="middle" x="2740.5" y="-62" font-family="Helvetica,sans-Serif" font-size="10.00">cstring</text>
</a>
</g>
</g>
<!-- Node52&#45;&gt;Node53 -->
<g id="edge39_Node000052_Node000053" class="edge">
<title>Node52&#45;&gt;Node53</title>
<g id="a_edge39_Node000052_Node000053"><a xlink:title=" ">
<path fill="none" stroke="#63b8ff" d="M2722.13,-109.75C2725.08,-102.65 2729.33,-92.4 2733.01,-83.56"/>
<polygon fill="#63b8ff" stroke="#63b8ff" points="2736.33,-84.67 2736.93,-74.09 2729.87,-81.98 2736.33,-84.67"/>
</a>
</g>
</g>
<!-- Node55 -->
<g id="Node000055" class="node">
<title>Node55</title>
<g id="a_Node000055"><a xlink:href="CacheDigest_8h.html" target="_top" xlink:title=" ">
<polygon fill="#fff0f0" stroke="red" points="2871,-74 2784,-74 2784,-55 2871,-55 2871,-74"/>
<text text-anchor="middle" x="2827.5" y="-62" font-family="Helvetica,sans-Serif" font-size="10.00">CacheDigest.h</text>
</a>
</g>
</g>
<!-- Node54&#45;&gt;Node55 -->
<g id="edge41_Node000054_Node000055" class="edge">
<title>Node54&#45;&gt;Node55</title>
<g id="a_edge41_Node000054_Node000055"><a xlink:title=" ">
<path fill="none" stroke="#63b8ff" d="M2934.93,-109.98C2914.07,-101.34 2881.53,-87.87 2857.73,-78.02"/>
<polygon fill="#63b8ff" stroke="#63b8ff" points="2859.02,-74.76 2848.44,-74.17 2856.34,-81.23 2859.02,-74.76"/>
</a>
</g>
</g>
<!-- Node69 -->
<g id="Node000069" class="node">
<title>Node69</title>
<g id="a_Node000069"><a xlink:href="defines_8h.html" target="_top" xlink:title=" ">
<polygon fill="white" stroke="#666666" points="2950,-74 2889,-74 2889,-55 2950,-55 2950,-74"/>
<text text-anchor="middle" x="2919.5" y="-62" font-family="Helvetica,sans-Serif" font-size="10.00">defines.h</text>
</a>
</g>
</g>
<!-- Node54&#45;&gt;Node69 -->
<g id="edge42_Node000054_Node000069" class="edge">
<title>Node54&#45;&gt;Node69</title>
<g id="a_edge42_Node000054_Node000069"><a xlink:title=" ">
<path fill="none" stroke="#63b8ff" d="M2949.56,-109.75C2944.52,-102.34 2937.16,-91.5 2930.99,-82.41"/>
<polygon fill="#63b8ff" stroke="#63b8ff" points="2933.85,-80.39 2925.33,-74.09 2928.06,-84.33 2933.85,-80.39"/>
</a>
</g>
</g>
<!-- Node58 -->
<g id="Node000058" class="node">
<title>Node58</title>
<g id="a_Node000058"><a xlink:href="hash_8h.html" target="_top" xlink:title=" ">
<polygon fill="white" stroke="#666666" points="3017,-74 2968,-74 2968,-55 3017,-55 3017,-74"/>
<text text-anchor="middle" x="2992.5" y="-62" font-family="Helvetica,sans-Serif" font-size="10.00">hash.h</text>
</a>
</g>
</g>
<!-- Node54&#45;&gt;Node58 -->
<g id="edge43_Node000054_Node000058" class="edge">
<title>Node54&#45;&gt;Node58</title>
<g id="a_edge43_Node000054_Node000058"><a xlink:title=" ">
<path fill="none" stroke="#63b8ff" d="M2961.61,-109.75C2966.78,-102.34 2974.35,-91.5 2980.69,-82.41"/>
<polygon fill="#63b8ff" stroke="#63b8ff" points="2983.65,-84.29 2986.5,-74.09 2977.91,-80.29 2983.65,-84.29"/>
</a>
</g>
</g>
<!-- Node70 -->
<g id="Node000070" class="node">
<title>Node70</title>
<g id="a_Node000070"><a xlink:href="IoStats_8h.html" target="_top" xlink:title=" ">
<polygon fill="white" stroke="#666666" points="3094,-74 3035,-74 3035,-55 3094,-55 3094,-74"/>
<text text-anchor="middle" x="3064.5" y="-62" font-family="Helvetica,sans-Serif" font-size="10.00">IoStats.h</text>
</a>
</g>
</g>
<!-- Node54&#45;&gt;Node70 -->
<g id="edge44_Node000054_Node000070" class="edge">
<title>Node54&#45;&gt;Node70</title>
<g id="a_edge44_Node000054_Node000070"><a xlink:title=" ">
<path fill="none" stroke="#63b8ff" d="M2973.01,-109.98C2990.47,-101.5 3017.51,-88.35 3037.67,-78.54"/>
<polygon fill="#63b8ff" stroke="#63b8ff" points="3039.21,-81.69 3046.67,-74.17 3036.14,-75.4 3039.21,-81.69"/>
</a>
</g>
</g>
<!-- Node71 -->
<g id="Node000071" class="node">
<title>Node71</title>
<g id="a_Node000071"><a xlink:href="rfc2181_8h.html" target="_top" xlink:title=" ">
<polygon fill="white" stroke="#666666" points="3174.5,-74 3112.5,-74 3112.5,-55 3174.5,-55 3174.5,-74"/>
<text text-anchor="middle" x="3143.5" y="-62" font-family="Helvetica,sans-Serif" font-size="10.00">rfc2181.h</text>
</a>
</g>
</g>
<!-- Node54&#45;&gt;Node71 -->
<g id="edge45_Node000054_Node000071" class="edge">
<title>Node54&#45;&gt;Node71</title>
<g id="a_edge45_Node000054_Node000071"><a xlink:title=" ">
<path fill="none" stroke="#63b8ff" d="M2985.71,-109.98C3017.54,-101.01 3067.86,-86.82 3103.1,-76.89"/>
<polygon fill="#63b8ff" stroke="#63b8ff" points="3104.38,-80.16 3113.06,-74.08 3102.48,-73.43 3104.38,-80.16"/>
</a>
</g>
</g>
<!-- Node72&#45;&gt;Node47 -->
<g id="edge48_Node000072_Node000047" class="edge">
<title>Node72&#45;&gt;Node47</title>
<g id="a_edge48_Node000072_Node000047"><a xlink:title=" ">
<path fill="none" stroke="#63b8ff" d="M3256.7,-109.87C3246.31,-101.7 3231.5,-88.56 3222.5,-74 3213.96,-60.17 3208.76,-42.38 3205.82,-29.14"/>
<polygon fill="#63b8ff" stroke="#63b8ff" points="3209.24,-28.41 3203.85,-19.29 3202.38,-29.78 3209.24,-28.41"/>
</a>
</g>
</g>
<!-- Node73 -->
<g id="Node000073" class="node">
<title>Node73</title>
<g id="a_Node000073"><a xlink:href="ip_2forward_8h.html" target="_top" xlink:title=" ">
<polygon fill="white" stroke="#666666" points="3306,-74 3231,-74 3231,-55 3306,-55 3306,-74"/>
<text text-anchor="middle" x="3268.5" y="-62" font-family="Helvetica,sans-Serif" font-size="10.00">ip/forward.h</text>
</a>
</g>
</g>
<!-- Node72&#45;&gt;Node73 -->
<g id="edge47_Node000072_Node000073" class="edge">
<title>Node72&#45;&gt;Node73</title>
<g id="a_edge47_Node000072_Node000073"><a xlink:title=" ">
<path fill="none" stroke="#63b8ff" d="M3268.5,-109.75C3268.5,-102.8 3268.5,-92.85 3268.5,-84.13"/>
<polygon fill="#63b8ff" stroke="#63b8ff" points="3272,-84.09 3268.5,-74.09 3265,-84.09 3272,-84.09"/>
</a>
</g>
</g>
<!-- Node74 -->
<g id="Node000074" class="node">
<title>Node74</title>
<g id="a_Node000074"><a xlink:title=" ">
<polygon fill="#e0e0e0" stroke="#999999" points="3381,-74 3324,-74 3324,-55 3381,-55 3381,-74"/>
<text text-anchor="middle" x="3352.5" y="-62" font-family="Helvetica,sans-Serif" font-size="10.00">ostream</text>
</a>
</g>
</g>
<!-- Node72&#45;&gt;Node74 -->
<g id="edge49_Node000072_Node000074" class="edge">
<title>Node72&#45;&gt;Node74</title>
<g id="a_edge49_Node000072_Node000074"><a xlink:title=" ">
<path fill="none" stroke="#63b8ff" d="M3282,-109.98C3294.9,-101.84 3314.6,-89.41 3329.9,-79.76"/>
<polygon fill="#63b8ff" stroke="#63b8ff" points="3332.17,-82.47 3338.76,-74.17 3328.43,-76.55 3332.17,-82.47"/>
</a>
</g>
</g>
<!-- Node75 -->
<g id="Node000075" class="node">
<title>Node75</title>
<g id="a_Node000075"><a xlink:title=" ">
<polygon fill="#e0e0e0" stroke="#999999" points="3455.5,-74 3399.5,-74 3399.5,-55 3455.5,-55 3455.5,-74"/>
<text text-anchor="middle" x="3427.5" y="-62" font-family="Helvetica,sans-Serif" font-size="10.00">optional</text>
</a>
</g>
</g>
<!-- Node72&#45;&gt;Node75 -->
<g id="edge50_Node000072_Node000075" class="edge">
<title>Node72&#45;&gt;Node75</title>
<g id="a_edge50_Node000072_Node000075"><a xlink:title=" ">
<path fill="none" stroke="#63b8ff" d="M3294.05,-109.98C3320.62,-101.13 3362.44,-87.19 3392.17,-77.28"/>
<polygon fill="#63b8ff" stroke="#63b8ff" points="3393.37,-80.56 3401.75,-74.08 3391.16,-73.92 3393.37,-80.56"/>
</a>
</g>
</g>
</g>
</svg>

<g id="navigator" transform="translate(0 0)" fill="#404254">
  <rect fill="#f2f5e9" fill-opacity="0.5" stroke="#606060" stroke-width=".5" x="0" y="0" width="60" height="60"/>
  <use id="zoomplus" xlink:href="#zoomPlus" x="17" y="9" onmousedown="handleZoom(evt,'in')"/>
  <use id="zoomminus" xlink:href="#zoomMin" x="42" y="9" onmousedown="handleZoom(evt,'out')"/>
  <use id="reset" xlink:href="#resetDef" x="30" y="36" onmousedown="handleReset()"/>
   <use id="arrowup" xlink:href="#arrowUp" x="0" y="0" onmousedown="handlePan(0,-1)"/>
  <use id="arrowright" xlink:href="#arrowRight" x="0" y="0" onmousedown="handlePan(1,0)"/>
  <use id="arrowdown" xlink:href="#arrowDown" x="0" y="0" onmousedown="handlePan(0,1)"/>
  <use id="arrowleft" xlink:href="#arrowLeft" x="0" y="0" onmousedown="handlePan(-1,0)"/>
</g>
<svg viewBox="0 0 15 15" width="100%" height="30px" preserveAspectRatio="xMaxYMin meet">
 <g id="arrow_out" transform="scale(0.3 0.3)">
  <a xlink:href="eui_2Eui64_8cc__incl_org.svg" target="_base">
   <rect id="button" ry="5" rx="5" y="6" x="6" height="38" width="38"
        fill="#f2f5e9" fill-opacity="0.5" stroke="#606060" stroke-width="1.0"/>
   <path id="arrow"
     d="M 11.500037,31.436501 C 11.940474,20.09759 22.043105,11.32322 32.158766,21.979434 L 37.068811,17.246167 C 37.068811,17.246167 37.088388,32 37.088388,32 L 22.160133,31.978069 C 22.160133,31.978069 26.997745,27.140456 26.997745,27.140456 C 18.528582,18.264221 13.291696,25.230495 11.500037,31.436501 z"
     style="fill:#404040;"/>
  </a>
 </g>
</svg>

<style type='text/css'>
<![CDATA[
[data-mouse-over-selected='false'] { opacity: 0.7; }
[data-mouse-over-selected='true']  { opacity: 1.0; }
]]>
</style>
<script type="application/ecmascript"><![CDATA[
document.addEventListener('DOMContentLoaded', (event) => {
  highlightEdges();
  highlightAdjacentNodes();
});
]]></script>
</svg>
