<?xml version="1.0" encoding="UTF-8" standalone="no"?>
<!DOCTYPE svg PUBLIC "-//W3C//DTD SVG 1.1//EN"
 "http://www.w3.org/Graphics/SVG/1.1/DTD/svg11.dtd">
<!-- Generated by graphviz version 2.43.0 (0)
 -->
<!-- Title: squid/src/ExternalACLEntry.cc Pages: 1 -->
<!--zoomable 302 -->

<svg id="main" version="1.1" xmlns="http://www.w3.org/2000/svg" xmlns:xlink="http://www.w3.org/1999/xlink" xml:space="preserve" onload="init(evt)">
<style type="text/css"><![CDATA[
.node, .edge {opacity: 0.7;}
.node.selected, .edge.selected {opacity: 1;}
.edge:hover path { stroke: red; }
.edge:hover polygon { stroke: red; fill: red; }
]]></style>

<defs>
  <circle id="rim" cx="0" cy="0" r="7"/>
  <circle id="rim2" cx="0" cy="0" r="3.5"/>
  <g id="zoomPlus">
    <use xlink:href="#rim" fill="#404040"><set attributeName="fill" to="#808080" begin="zoomplus.mouseover" end="zoomplus.mouseout"/></use>
    <path d="M-4,0h8M0,-4v8" fill="none" stroke="white" stroke-width="1.5" pointer-events="none"/>
  </g>
  <g id="zoomMin">
    <use xlink:href="#rim" fill="#404040"><set attributeName="fill" to="#808080" begin="zoomminus.mouseover" end="zoomminus.mouseout"/></use>
    <path d="M-4,0h8" fill="none" stroke="white" stroke-width="1.5" pointer-events="none"/>
  </g>
  <g id="arrowUp" transform="translate(30 24)">
    <use xlink:href="#rim"/>
    <path pointer-events="none" fill="none" stroke="white" stroke-width="1.5" d="M0,-3.0v7 M-2.5,-0.5L0,-3.0L2.5,-0.5"/>
  </g>
  <g id="arrowRight" transform="rotate(90) translate(36 -43)">
    <use xlink:href="#rim"/>
    <path pointer-events="none" fill="none" stroke="white" stroke-width="1.5" d="M0,-3.0v7 M-2.5,-0.5L0,-3.0L2.5,-0.5"/>
  </g>
  <g id="arrowDown" transform="rotate(180) translate(-30 -48)">
    <use xlink:href="#rim"/>
    <path pointer-events="none" fill="none" stroke="white" stroke-width="1.5" d="M0,-3.0v7 M-2.5,-0.5L0,-3.0L2.5,-0.5"/>
  </g>
  <g id="arrowLeft" transform="rotate(270) translate(-36 17)">
    <use xlink:href="#rim"/>
    <path pointer-events="none" fill="none" stroke="white" stroke-width="1.5" d="M0,-3.0v7 M-2.5,-0.5L0,-3.0L2.5,-0.5"/>
  </g>
  <g id="resetDef">
    <use xlink:href="#rim2" fill="#404040"><set attributeName="fill" to="#808080" begin="reset.mouseover" end="reset.mouseout"/></use>
  </g>
</defs>
<script type="application/ecmascript">
var viewWidth = 4173;
var viewHeight = 302;
var sectionId = 'dynsection-0';
</script>
<script type="application/ecmascript" xlink:href="svg.min.js"/>
<svg id="graph" class="graph">
<g id="viewport">
<title>squid/src/ExternalACLEntry.cc</title>
<!-- Node1 -->
<g id="Node000001" class="node">
<title>Node1</title>
<g id="a_Node000001"><a xlink:title=" ">
<polygon fill="#999999" stroke="#666666" points="3647,-294 3487,-294 3487,-275 3647,-275 3647,-294"/>
<text text-anchor="middle" x="3567" y="-282" font-family="Helvetica,sans-Serif" font-size="10.00">squid/src/ExternalACLEntry.cc</text>
</a>
</g>
</g>
<!-- Node2 -->
<g id="Node000002" class="node">
<title>Node2</title>
<g id="a_Node000002"><a xlink:href="squid_8h.html" target="_top" xlink:title=" ">
<polygon fill="white" stroke="#666666" points="2522,-239 2470,-239 2470,-220 2522,-220 2522,-239"/>
<text text-anchor="middle" x="2496" y="-227" font-family="Helvetica,sans-Serif" font-size="10.00">squid.h</text>
</a>
</g>
</g>
<!-- Node1&#45;&gt;Node2 -->
<g id="edge1_Node000001_Node000002" class="edge">
<title>Node1&#45;&gt;Node2</title>
<g id="a_edge1_Node000001_Node000002"><a xlink:title=" ">
<path fill="none" stroke="#63b8ff" d="M3486.94,-279.54C3271.39,-268.87 2684.87,-239.85 2532.54,-232.31"/>
<polygon fill="#63b8ff" stroke="#63b8ff" points="2532.5,-228.8 2522.34,-231.8 2532.15,-235.79 2532.5,-228.8"/>
</a>
</g>
</g>
<!-- Node44 -->
<g id="Node000044" class="node">
<title>Node44</title>
<g id="a_Node000044"><a xlink:href="ExternalACLEntry_8h.html" target="_top" xlink:title=" ">
<polygon fill="white" stroke="#666666" points="3621.5,-239 3512.5,-239 3512.5,-220 3621.5,-220 3621.5,-239"/>
<text text-anchor="middle" x="3567" y="-227" font-family="Helvetica,sans-Serif" font-size="10.00">ExternalACLEntry.h</text>
</a>
</g>
</g>
<!-- Node1&#45;&gt;Node44 -->
<g id="edge30_Node000001_Node000044" class="edge">
<title>Node1&#45;&gt;Node44</title>
<g id="a_edge30_Node000001_Node000044"><a xlink:title=" ">
<path fill="none" stroke="#63b8ff" d="M3567,-274.75C3567,-267.8 3567,-257.85 3567,-249.13"/>
<polygon fill="#63b8ff" stroke="#63b8ff" points="3570.5,-249.09 3567,-239.09 3563.5,-249.09 3570.5,-249.09"/>
</a>
</g>
</g>
<!-- Node96 -->
<g id="Node000096" class="node">
<title>Node96</title>
<g id="a_Node000096"><a xlink:href="time_2gadgets_8h.html" target="_top" xlink:title=" ">
<polygon fill="white" stroke="#666666" points="4138,-239 4048,-239 4048,-220 4138,-220 4138,-239"/>
<text text-anchor="middle" x="4093" y="-227" font-family="Helvetica,sans-Serif" font-size="10.00">time/gadgets.h</text>
</a>
</g>
</g>
<!-- Node1&#45;&gt;Node96 -->
<g id="edge61_Node000001_Node000096" class="edge">
<title>Node1&#45;&gt;Node96</title>
<g id="a_edge61_Node000001_Node000096"><a xlink:title=" ">
<path fill="none" stroke="#63b8ff" d="M3647.17,-275.42C3755.14,-264.54 3944.48,-245.47 4037.8,-236.06"/>
<polygon fill="#63b8ff" stroke="#63b8ff" points="4038.29,-239.53 4047.89,-235.05 4037.59,-232.57 4038.29,-239.53"/>
</a>
</g>
</g>
<!-- Node3 -->
<g id="Node000003" class="node">
<title>Node3</title>
<g id="a_Node000003"><a xlink:href="autoconf_8h.html" target="_top" xlink:title=" ">
<polygon fill="white" stroke="#666666" points="2488,-184 2420,-184 2420,-165 2488,-165 2488,-184"/>
<text text-anchor="middle" x="2454" y="-172" font-family="Helvetica,sans-Serif" font-size="10.00">autoconf.h</text>
</a>
</g>
</g>
<!-- Node2&#45;&gt;Node3 -->
<g id="edge2_Node000002_Node000003" class="edge">
<title>Node2&#45;&gt;Node3</title>
<g id="a_edge2_Node000002_Node000003"><a xlink:title=" ">
<path fill="none" stroke="#63b8ff" d="M2489.06,-219.75C2483.13,-212.26 2474.43,-201.28 2467.18,-192.13"/>
<polygon fill="#63b8ff" stroke="#63b8ff" points="2469.76,-189.75 2460.81,-184.09 2464.27,-194.1 2469.76,-189.75"/>
</a>
</g>
</g>
<!-- Node4 -->
<g id="Node000004" class="node">
<title>Node4</title>
<g id="a_Node000004"><a xlink:href="version_8h.html" target="_top" xlink:title=" ">
<polygon fill="white" stroke="#666666" points="2568,-184 2506,-184 2506,-165 2568,-165 2568,-184"/>
<text text-anchor="middle" x="2537" y="-172" font-family="Helvetica,sans-Serif" font-size="10.00">version.h</text>
</a>
</g>
</g>
<!-- Node2&#45;&gt;Node4 -->
<g id="edge3_Node000002_Node000004" class="edge">
<title>Node2&#45;&gt;Node4</title>
<g id="a_edge3_Node000002_Node000004"><a xlink:title=" ">
<path fill="none" stroke="#63b8ff" d="M2502.77,-219.75C2508.56,-212.26 2517.06,-201.28 2524.14,-192.13"/>
<polygon fill="#63b8ff" stroke="#63b8ff" points="2527.01,-194.14 2530.36,-184.09 2521.47,-189.86 2527.01,-194.14"/>
</a>
</g>
</g>
<!-- Node5 -->
<g id="Node000005" class="node">
<title>Node5</title>
<g id="a_Node000005"><a xlink:href="compat_8h.html" target="_top" xlink:title=" ">
<polygon fill="white" stroke="#666666" points="1738,-184 1636,-184 1636,-165 1738,-165 1738,-184"/>
<text text-anchor="middle" x="1687" y="-172" font-family="Helvetica,sans-Serif" font-size="10.00">compat/compat.h</text>
</a>
</g>
</g>
<!-- Node2&#45;&gt;Node5 -->
<g id="edge4_Node000002_Node000005" class="edge">
<title>Node2&#45;&gt;Node5</title>
<g id="a_edge4_Node000002_Node000005"><a xlink:title=" ">
<path fill="none" stroke="#63b8ff" d="M2470,-226.8C2357.72,-219.44 1912.76,-190.29 1748.42,-179.52"/>
<polygon fill="#63b8ff" stroke="#63b8ff" points="1748.21,-176 1738,-178.84 1747.75,-182.99 1748.21,-176"/>
</a>
</g>
</g>
<!-- Node6 -->
<g id="Node000006" class="node">
<title>Node6</title>
<g id="a_Node000006"><a xlink:href="osdetect_8h.html" target="_top" xlink:title=" ">
<polygon fill="white" stroke="#666666" points="2673.5,-129 2566.5,-129 2566.5,-110 2673.5,-110 2673.5,-129"/>
<text text-anchor="middle" x="2620" y="-117" font-family="Helvetica,sans-Serif" font-size="10.00">compat/osdetect.h</text>
</a>
</g>
</g>
<!-- Node5&#45;&gt;Node6 -->
<g id="edge5_Node000005_Node000006" class="edge">
<title>Node5&#45;&gt;Node6</title>
<g id="a_edge5_Node000005_Node000006"><a xlink:title=" ">
<path fill="none" stroke="#63b8ff" d="M1738.1,-172.37C1871.03,-169.1 2238.77,-158.05 2556.1,-128.99"/>
<polygon fill="#63b8ff" stroke="#63b8ff" points="2556.78,-132.44 2566.42,-128.04 2556.14,-125.47 2556.78,-132.44"/>
</a>
</g>
</g>
<!-- Node7 -->
<g id="Node000007" class="node">
<title>Node7</title>
<g id="a_Node000007"><a xlink:href="fdsetsize_8h.html" target="_top" xlink:title=" ">
<polygon fill="white" stroke="#666666" points="2802,-129 2692,-129 2692,-110 2802,-110 2802,-129"/>
<text text-anchor="middle" x="2747" y="-117" font-family="Helvetica,sans-Serif" font-size="10.00">compat/fdsetsize.h</text>
</a>
</g>
</g>
<!-- Node5&#45;&gt;Node7 -->
<g id="edge6_Node000005_Node000007" class="edge">
<title>Node5&#45;&gt;Node7</title>
<g id="a_edge6_Node000005_Node000007"><a xlink:title=" ">
<path fill="none" stroke="#63b8ff" d="M1738.1,-172.75C1883.73,-170.3 2313.48,-160.76 2681.66,-128.93"/>
<polygon fill="#63b8ff" stroke="#63b8ff" points="2682.06,-132.41 2691.72,-128.06 2681.45,-125.44 2682.06,-132.41"/>
</a>
</g>
</g>
<!-- Node8 -->
<g id="Node000008" class="node">
<title>Node8</title>
<g id="a_Node000008"><a xlink:href="types_8h.html" target="_top" xlink:title=" ">
<polygon fill="#fff0f0" stroke="red" points="2912,-129 2820,-129 2820,-110 2912,-110 2912,-129"/>
<text text-anchor="middle" x="2866" y="-117" font-family="Helvetica,sans-Serif" font-size="10.00">compat/types.h</text>
</a>
</g>
</g>
<!-- Node5&#45;&gt;Node8 -->
<g id="edge7_Node000005_Node000008" class="edge">
<title>Node5&#45;&gt;Node8</title>
<g id="a_edge7_Node000005_Node000008"><a xlink:title=" ">
<path fill="none" stroke="#63b8ff" d="M1738.11,-173.54C1896.05,-173.24 2390.37,-168.99 2809.63,-129.01"/>
<polygon fill="#63b8ff" stroke="#63b8ff" points="2810.22,-132.47 2819.83,-128.02 2809.55,-125.5 2810.22,-132.47"/>
</a>
</g>
</g>
<!-- Node10 -->
<g id="Node000010" class="node">
<title>Node10</title>
<g id="a_Node000010"><a xlink:href="aix_8h.html" target="_top" xlink:title=" ">
<polygon fill="white" stroke="#666666" points="3025.5,-129 2930.5,-129 2930.5,-110 3025.5,-110 3025.5,-129"/>
<text text-anchor="middle" x="2978" y="-117" font-family="Helvetica,sans-Serif" font-size="10.00">compat/os/aix.h</text>
</a>
</g>
</g>
<!-- Node5&#45;&gt;Node10 -->
<g id="edge8_Node000005_Node000010" class="edge">
<title>Node5&#45;&gt;Node10</title>
<g id="a_edge8_Node000005_Node000010"><a xlink:title=" ">
<path fill="none" stroke="#63b8ff" d="M1738.26,-173.7C1906.26,-173.94 2455.52,-171.25 2920.19,-128.94"/>
<polygon fill="#63b8ff" stroke="#63b8ff" points="2920.82,-132.4 2930.46,-128 2920.18,-125.42 2920.82,-132.4"/>
</a>
</g>
</g>
<!-- Node11 -->
<g id="Node000011" class="node">
<title>Node11</title>
<g id="a_Node000011"><a xlink:href="android_8h.html" target="_top" xlink:title=" ">
<polygon fill="white" stroke="#666666" points="3160,-129 3044,-129 3044,-110 3160,-110 3160,-129"/>
<text text-anchor="middle" x="3102" y="-117" font-family="Helvetica,sans-Serif" font-size="10.00">compat/os/android.h</text>
</a>
</g>
</g>
<!-- Node5&#45;&gt;Node11 -->
<g id="edge9_Node000005_Node000011" class="edge">
<title>Node5&#45;&gt;Node11</title>
<g id="a_edge9_Node000005_Node000011"><a xlink:title=" ">
<path fill="none" stroke="#63b8ff" d="M1738.17,-173.49C1915.72,-173.1 2521.81,-168.81 3033.62,-128.93"/>
<polygon fill="#63b8ff" stroke="#63b8ff" points="3034.1,-132.4 3043.8,-128.13 3033.55,-125.42 3034.1,-132.4"/>
</a>
</g>
</g>
<!-- Node12 -->
<g id="Node000012" class="node">
<title>Node12</title>
<g id="a_Node000012"><a xlink:href="dragonfly_8h.html" target="_top" xlink:title=" ">
<polygon fill="white" stroke="#666666" points="124,-129 0,-129 0,-110 124,-110 124,-129"/>
<text text-anchor="middle" x="62" y="-117" font-family="Helvetica,sans-Serif" font-size="10.00">compat/os/dragonfly.h</text>
</a>
</g>
</g>
<!-- Node5&#45;&gt;Node12 -->
<g id="edge10_Node000005_Node000012" class="edge">
<title>Node5&#45;&gt;Node12</title>
<g id="a_edge10_Node000005_Node000012"><a xlink:title=" ">
<path fill="none" stroke="#63b8ff" d="M1635.94,-173.71C1441.75,-174.18 730.52,-172.65 134.39,-129.03"/>
<polygon fill="#63b8ff" stroke="#63b8ff" points="134.54,-125.53 124.31,-128.28 134.02,-132.51 134.54,-125.53"/>
</a>
</g>
</g>
<!-- Node13 -->
<g id="Node000013" class="node">
<title>Node13</title>
<g id="a_Node000013"><a xlink:href="freebsd_8h.html" target="_top" xlink:title=" ">
<polygon fill="white" stroke="#666666" points="258,-129 142,-129 142,-110 258,-110 258,-129"/>
<text text-anchor="middle" x="200" y="-117" font-family="Helvetica,sans-Serif" font-size="10.00">compat/os/freebsd.h</text>
</a>
</g>
</g>
<!-- Node5&#45;&gt;Node13 -->
<g id="edge11_Node000005_Node000013" class="edge">
<title>Node5&#45;&gt;Node13</title>
<g id="a_edge11_Node000005_Node000013"><a xlink:title=" ">
<path fill="none" stroke="#63b8ff" d="M1635.96,-173.65C1452.54,-173.81 809.42,-171.19 268.43,-129.02"/>
<polygon fill="#63b8ff" stroke="#63b8ff" points="268.31,-125.5 258.07,-128.21 267.77,-132.48 268.31,-125.5"/>
</a>
</g>
</g>
<!-- Node14 -->
<g id="Node000014" class="node">
<title>Node14</title>
<g id="a_Node000014"><a xlink:href="hpux_8h.html" target="_top" xlink:title=" ">
<polygon fill="white" stroke="#666666" points="380,-129 276,-129 276,-110 380,-110 380,-129"/>
<text text-anchor="middle" x="328" y="-117" font-family="Helvetica,sans-Serif" font-size="10.00">compat/os/hpux.h</text>
</a>
</g>
</g>
<!-- Node5&#45;&gt;Node14 -->
<g id="edge12_Node000005_Node000014" class="edge">
<title>Node5&#45;&gt;Node14</title>
<g id="a_edge12_Node000005_Node000014"><a xlink:title=" ">
<path fill="none" stroke="#63b8ff" d="M1635.86,-173.66C1462.47,-173.79 880.84,-170.93 390.32,-129.01"/>
<polygon fill="#63b8ff" stroke="#63b8ff" points="390.47,-125.51 380.2,-128.14 389.87,-132.48 390.47,-125.51"/>
</a>
</g>
</g>
<!-- Node15 -->
<g id="Node000015" class="node">
<title>Node15</title>
<g id="a_Node000015"><a xlink:href="linux_8h.html" target="_top" xlink:title=" ">
<polygon fill="white" stroke="#666666" points="502,-129 398,-129 398,-110 502,-110 502,-129"/>
<text text-anchor="middle" x="450" y="-117" font-family="Helvetica,sans-Serif" font-size="10.00">compat/os/linux.h</text>
</a>
</g>
</g>
<!-- Node5&#45;&gt;Node15 -->
<g id="edge13_Node000005_Node000015" class="edge">
<title>Node5&#45;&gt;Node15</title>
<g id="a_edge13_Node000005_Node000015"><a xlink:title=" ">
<path fill="none" stroke="#63b8ff" d="M1635.88,-173.4C1473.22,-172.69 952.96,-167.43 512.27,-129.01"/>
<polygon fill="#63b8ff" stroke="#63b8ff" points="512.47,-125.52 502.2,-128.13 511.86,-132.49 512.47,-125.52"/>
</a>
</g>
</g>
<!-- Node16 -->
<g id="Node000016" class="node">
<title>Node16</title>
<g id="a_Node000016"><a xlink:href="macosx_8h.html" target="_top" xlink:title=" ">
<polygon fill="white" stroke="#666666" points="638,-129 520,-129 520,-110 638,-110 638,-129"/>
<text text-anchor="middle" x="579" y="-117" font-family="Helvetica,sans-Serif" font-size="10.00">compat/os/macosx.h</text>
</a>
</g>
</g>
<!-- Node5&#45;&gt;Node16 -->
<g id="edge14_Node000005_Node000016" class="edge">
<title>Node5&#45;&gt;Node16</title>
<g id="a_edge14_Node000005_Node000016"><a xlink:title=" ">
<path fill="none" stroke="#63b8ff" d="M1635.78,-172.79C1485.71,-170.38 1033.9,-160.9 648.54,-129.06"/>
<polygon fill="#63b8ff" stroke="#63b8ff" points="648.56,-125.54 638.31,-128.2 647.98,-132.52 648.56,-125.54"/>
</a>
</g>
</g>
<!-- Node17 -->
<g id="Node000017" class="node">
<title>Node17</title>
<g id="a_Node000017"><a xlink:href="mingw_8h.html" target="_top" xlink:title=" ">
<polygon fill="white" stroke="#666666" points="768,-129 656,-129 656,-110 768,-110 768,-129"/>
<text text-anchor="middle" x="712" y="-117" font-family="Helvetica,sans-Serif" font-size="10.00">compat/os/mingw.h</text>
</a>
</g>
</g>
<!-- Node5&#45;&gt;Node17 -->
<g id="edge15_Node000005_Node000017" class="edge">
<title>Node5&#45;&gt;Node17</title>
<g id="a_edge15_Node000005_Node000017"><a xlink:title=" ">
<path fill="none" stroke="#63b8ff" d="M1635.59,-172.45C1498.24,-169.32 1111.16,-158.47 778.66,-129.07"/>
<polygon fill="#63b8ff" stroke="#63b8ff" points="778.61,-125.55 768.34,-128.15 777.99,-132.53 778.61,-125.55"/>
</a>
</g>
</g>
<!-- Node18 -->
<g id="Node000018" class="node">
<title>Node18</title>
<g id="a_Node000018"><a xlink:href="mswindows_8h.html" target="_top" xlink:title=" ">
<polygon fill="white" stroke="#666666" points="923.5,-129 786.5,-129 786.5,-110 923.5,-110 923.5,-129"/>
<text text-anchor="middle" x="855" y="-117" font-family="Helvetica,sans-Serif" font-size="10.00">compat/os/mswindows.h</text>
</a>
</g>
</g>
<!-- Node5&#45;&gt;Node18 -->
<g id="edge16_Node000005_Node000018" class="edge">
<title>Node5&#45;&gt;Node18</title>
<g id="a_edge16_Node000005_Node000018"><a xlink:title=" ">
<path fill="none" stroke="#63b8ff" d="M1635.67,-171.38C1515.07,-166.2 1204.01,-151.72 933.83,-129.12"/>
<polygon fill="#63b8ff" stroke="#63b8ff" points="934.09,-125.63 923.83,-128.27 933.5,-132.6 934.09,-125.63"/>
</a>
</g>
</g>
<!-- Node19 -->
<g id="Node000019" class="node">
<title>Node19</title>
<g id="a_Node000019"><a xlink:href="netbsd_8h.html" target="_top" xlink:title=" ">
<polygon fill="white" stroke="#666666" points="1054.5,-129 941.5,-129 941.5,-110 1054.5,-110 1054.5,-129"/>
<text text-anchor="middle" x="998" y="-117" font-family="Helvetica,sans-Serif" font-size="10.00">compat/os/netbsd.h</text>
</a>
</g>
</g>
<!-- Node5&#45;&gt;Node19 -->
<g id="edge17_Node000005_Node000019" class="edge">
<title>Node5&#45;&gt;Node19</title>
<g id="a_edge17_Node000005_Node000019"><a xlink:title=" ">
<path fill="none" stroke="#63b8ff" d="M1635.96,-170.88C1530.96,-165.27 1282.99,-150.88 1064.74,-129.12"/>
<polygon fill="#63b8ff" stroke="#63b8ff" points="1065,-125.63 1054.7,-128.11 1064.3,-132.6 1065,-125.63"/>
</a>
</g>
</g>
<!-- Node20 -->
<g id="Node000020" class="node">
<title>Node20</title>
<g id="a_Node000020"><a xlink:href="openbsd_8h.html" target="_top" xlink:title=" ">
<polygon fill="white" stroke="#666666" points="1193.5,-129 1072.5,-129 1072.5,-110 1193.5,-110 1193.5,-129"/>
<text text-anchor="middle" x="1133" y="-117" font-family="Helvetica,sans-Serif" font-size="10.00">compat/os/openbsd.h</text>
</a>
</g>
</g>
<!-- Node5&#45;&gt;Node20 -->
<g id="edge18_Node000005_Node000020" class="edge">
<title>Node5&#45;&gt;Node20</title>
<g id="a_edge18_Node000005_Node000020"><a xlink:title=" ">
<path fill="none" stroke="#63b8ff" d="M1635.97,-169.34C1549.34,-162.17 1367.7,-146.64 1203.84,-129.17"/>
<polygon fill="#63b8ff" stroke="#63b8ff" points="1203.89,-125.65 1193.57,-128.07 1203.14,-132.61 1203.89,-125.65"/>
</a>
</g>
</g>
<!-- Node21 -->
<g id="Node000021" class="node">
<title>Node21</title>
<g id="a_Node000021"><a xlink:href="os2_8h.html" target="_top" xlink:title=" ">
<polygon fill="white" stroke="#666666" points="1308.5,-129 1211.5,-129 1211.5,-110 1308.5,-110 1308.5,-129"/>
<text text-anchor="middle" x="1260" y="-117" font-family="Helvetica,sans-Serif" font-size="10.00">compat/os/os2.h</text>
</a>
</g>
</g>
<!-- Node5&#45;&gt;Node21 -->
<g id="edge19_Node000005_Node000021" class="edge">
<title>Node5&#45;&gt;Node21</title>
<g id="a_edge19_Node000005_Node000021"><a xlink:title=" ">
<path fill="none" stroke="#63b8ff" d="M1635.91,-167.76C1566.59,-159.87 1438.61,-144.98 1318.8,-129.08"/>
<polygon fill="#63b8ff" stroke="#63b8ff" points="1319.1,-125.58 1308.72,-127.73 1318.17,-132.52 1319.1,-125.58"/>
</a>
</g>
</g>
<!-- Node22 -->
<g id="Node000022" class="node">
<title>Node22</title>
<g id="a_Node000022"><a xlink:href="qnx_8h.html" target="_top" xlink:title=" ">
<polygon fill="white" stroke="#666666" points="1425,-129 1327,-129 1327,-110 1425,-110 1425,-129"/>
<text text-anchor="middle" x="1376" y="-117" font-family="Helvetica,sans-Serif" font-size="10.00">compat/os/qnx.h</text>
</a>
</g>
</g>
<!-- Node5&#45;&gt;Node22 -->
<g id="edge20_Node000005_Node000022" class="edge">
<title>Node5&#45;&gt;Node22</title>
<g id="a_edge20_Node000005_Node000022"><a xlink:title=" ">
<path fill="none" stroke="#63b8ff" d="M1637.03,-164.98C1582.04,-155.61 1493.71,-140.56 1435.26,-130.6"/>
<polygon fill="#63b8ff" stroke="#63b8ff" points="1435.52,-127.09 1425.07,-128.86 1434.34,-133.99 1435.52,-127.09"/>
</a>
</g>
</g>
<!-- Node23 -->
<g id="Node000023" class="node">
<title>Node23</title>
<g id="a_Node000023"><a xlink:href="solaris_8h.html" target="_top" xlink:title=" ">
<polygon fill="white" stroke="#666666" points="1555,-129 1443,-129 1443,-110 1555,-110 1555,-129"/>
<text text-anchor="middle" x="1499" y="-117" font-family="Helvetica,sans-Serif" font-size="10.00">compat/os/solaris.h</text>
</a>
</g>
</g>
<!-- Node5&#45;&gt;Node23 -->
<g id="edge21_Node000005_Node000023" class="edge">
<title>Node5&#45;&gt;Node23</title>
<g id="a_edge21_Node000005_Node000023"><a xlink:title=" ">
<path fill="none" stroke="#63b8ff" d="M1656.79,-164.98C1624.96,-156.01 1574.64,-141.82 1539.4,-131.89"/>
<polygon fill="#63b8ff" stroke="#63b8ff" points="1540.02,-128.43 1529.44,-129.08 1538.12,-135.16 1540.02,-128.43"/>
</a>
</g>
</g>
<!-- Node24 -->
<g id="Node000024" class="node">
<title>Node24</title>
<g id="a_Node000024"><a xlink:href="sunos_8h.html" target="_top" xlink:title=" ">
<polygon fill="white" stroke="#666666" points="1681,-129 1573,-129 1573,-110 1681,-110 1681,-129"/>
<text text-anchor="middle" x="1627" y="-117" font-family="Helvetica,sans-Serif" font-size="10.00">compat/os/sunos.h</text>
</a>
</g>
</g>
<!-- Node5&#45;&gt;Node24 -->
<g id="edge22_Node000005_Node000024" class="edge">
<title>Node5&#45;&gt;Node24</title>
<g id="a_edge22_Node000005_Node000024"><a xlink:title=" ">
<path fill="none" stroke="#63b8ff" d="M1677.36,-164.98C1668.49,-157.15 1655.13,-145.34 1644.39,-135.86"/>
<polygon fill="#63b8ff" stroke="#63b8ff" points="1646.63,-133.17 1636.82,-129.17 1641.99,-138.41 1646.63,-133.17"/>
</a>
</g>
</g>
<!-- Node25 -->
<g id="Node000025" class="node">
<title>Node25</title>
<g id="a_Node000025"><a xlink:href="assert_8h.html" target="_top" xlink:title=" ">
<polygon fill="white" stroke="#666666" points="1794.5,-129 1699.5,-129 1699.5,-110 1794.5,-110 1794.5,-129"/>
<text text-anchor="middle" x="1747" y="-117" font-family="Helvetica,sans-Serif" font-size="10.00">compat/assert.h</text>
</a>
</g>
</g>
<!-- Node5&#45;&gt;Node25 -->
<g id="edge23_Node000005_Node000025" class="edge">
<title>Node5&#45;&gt;Node25</title>
<g id="a_edge23_Node000005_Node000025"><a xlink:title=" ">
<path fill="none" stroke="#63b8ff" d="M1696.64,-164.98C1705.51,-157.15 1718.87,-145.34 1729.61,-135.86"/>
<polygon fill="#63b8ff" stroke="#63b8ff" points="1732.01,-138.41 1737.18,-129.17 1727.37,-133.17 1732.01,-138.41"/>
</a>
</g>
</g>
<!-- Node26 -->
<g id="Node000026" class="node">
<title>Node26</title>
<g id="a_Node000026"><a xlink:href="compat__shared_8h.html" target="_top" xlink:title=" ">
<polygon fill="#fff0f0" stroke="red" points="1953,-129 1813,-129 1813,-110 1953,-110 1953,-129"/>
<text text-anchor="middle" x="1883" y="-117" font-family="Helvetica,sans-Serif" font-size="10.00">compat/compat_shared.h</text>
</a>
</g>
</g>
<!-- Node5&#45;&gt;Node26 -->
<g id="edge24_Node000005_Node000026" class="edge">
<title>Node5&#45;&gt;Node26</title>
<g id="a_edge24_Node000005_Node000026"><a xlink:title=" ">
<path fill="none" stroke="#63b8ff" d="M1718.49,-164.98C1751.82,-155.97 1804.6,-141.7 1841.35,-131.76"/>
<polygon fill="#63b8ff" stroke="#63b8ff" points="1842.52,-135.07 1851.26,-129.08 1840.7,-128.31 1842.52,-135.07"/>
</a>
</g>
</g>
<!-- Node36 -->
<g id="Node000036" class="node">
<title>Node36</title>
<g id="a_Node000036"><a xlink:href="stdvarargs_8h.html" target="_top" xlink:title=" ">
<polygon fill="#fff0f0" stroke="red" points="2088.5,-129 1971.5,-129 1971.5,-110 2088.5,-110 2088.5,-129"/>
<text text-anchor="middle" x="2030" y="-117" font-family="Helvetica,sans-Serif" font-size="10.00">compat/stdvarargs.h</text>
</a>
</g>
</g>
<!-- Node5&#45;&gt;Node36 -->
<g id="edge25_Node000005_Node000036" class="edge">
<title>Node5&#45;&gt;Node36</title>
<g id="a_edge25_Node000005_Node000036"><a xlink:title=" ">
<path fill="none" stroke="#63b8ff" d="M1738.35,-165.57C1798.67,-156.25 1898.82,-140.77 1964.63,-130.6"/>
<polygon fill="#63b8ff" stroke="#63b8ff" points="1965.54,-134 1974.89,-129.02 1964.47,-127.08 1965.54,-134"/>
</a>
</g>
</g>
<!-- Node38 -->
<g id="Node000038" class="node">
<title>Node38</title>
<g id="a_Node000038"><a xlink:href="stdio_8h.html" target="_top" xlink:title=" ">
<polygon fill="#fff0f0" stroke="red" points="2195.5,-129 2106.5,-129 2106.5,-110 2195.5,-110 2195.5,-129"/>
<text text-anchor="middle" x="2151" y="-117" font-family="Helvetica,sans-Serif" font-size="10.00">compat/stdio.h</text>
</a>
</g>
</g>
<!-- Node5&#45;&gt;Node38 -->
<g id="edge26_Node000005_Node000038" class="edge">
<title>Node5&#45;&gt;Node38</title>
<g id="a_edge26_Node000005_Node000038"><a xlink:title=" ">
<path fill="none" stroke="#63b8ff" d="M1738.23,-168.74C1814.04,-161.51 1960.79,-146.86 2096.1,-129.06"/>
<polygon fill="#63b8ff" stroke="#63b8ff" points="2096.78,-132.5 2106.23,-127.72 2095.86,-125.56 2096.78,-132.5"/>
</a>
</g>
</g>
<!-- Node40 -->
<g id="Node000040" class="node">
<title>Node40</title>
<g id="a_Node000040"><a xlink:href="statvfs_8h.html" target="_top" xlink:title=" ">
<polygon fill="white" stroke="#666666" points="2312.5,-129 2213.5,-129 2213.5,-110 2312.5,-110 2312.5,-129"/>
<text text-anchor="middle" x="2263" y="-117" font-family="Helvetica,sans-Serif" font-size="10.00">compat/statvfs.h</text>
</a>
</g>
</g>
<!-- Node5&#45;&gt;Node40 -->
<g id="edge27_Node000005_Node000040" class="edge">
<title>Node5&#45;&gt;Node40</title>
<g id="a_edge27_Node000005_Node000040"><a xlink:title=" ">
<path fill="none" stroke="#63b8ff" d="M1738.1,-170.08C1829.28,-163.75 2026.24,-149.13 2203.43,-129"/>
<polygon fill="#63b8ff" stroke="#63b8ff" points="2203.92,-132.46 2213.45,-127.85 2203.12,-125.51 2203.92,-132.46"/>
</a>
</g>
</g>
<!-- Node41 -->
<g id="Node000041" class="node">
<title>Node41</title>
<g id="a_Node000041"><a xlink:href="debug_8h.html" target="_top" xlink:title=" ">
<polygon fill="white" stroke="#666666" points="2425.5,-129 2330.5,-129 2330.5,-110 2425.5,-110 2425.5,-129"/>
<text text-anchor="middle" x="2378" y="-117" font-family="Helvetica,sans-Serif" font-size="10.00">compat/debug.h</text>
</a>
</g>
</g>
<!-- Node5&#45;&gt;Node41 -->
<g id="edge28_Node000005_Node000041" class="edge">
<title>Node5&#45;&gt;Node41</title>
<g id="a_edge28_Node000005_Node000041"><a xlink:title=" ">
<path fill="none" stroke="#63b8ff" d="M1738.07,-171.27C1844.33,-166.33 2097.12,-153.07 2320.19,-128.99"/>
<polygon fill="#63b8ff" stroke="#63b8ff" points="2320.89,-132.44 2330.45,-127.87 2320.13,-125.48 2320.89,-132.44"/>
</a>
</g>
</g>
<!-- Node42 -->
<g id="Node000042" class="node">
<title>Node42</title>
<g id="a_Node000042"><a xlink:href="valgrind_8h.html" target="_top" xlink:title=" ">
<polygon fill="#fff0f0" stroke="red" points="2548.5,-129 2443.5,-129 2443.5,-110 2548.5,-110 2548.5,-129"/>
<text text-anchor="middle" x="2496" y="-117" font-family="Helvetica,sans-Serif" font-size="10.00">compat/valgrind.h</text>
</a>
</g>
</g>
<!-- Node5&#45;&gt;Node42 -->
<g id="edge29_Node000005_Node000042" class="edge">
<title>Node5&#45;&gt;Node42</title>
<g id="a_edge29_Node000005_Node000042"><a xlink:title=" ">
<path fill="none" stroke="#63b8ff" d="M1738.28,-171.8C1857.96,-167.55 2165.21,-154.94 2432.96,-129.02"/>
<polygon fill="#63b8ff" stroke="#63b8ff" points="2433.65,-132.47 2443.27,-128.01 2432.97,-125.5 2433.65,-132.47"/>
</a>
</g>
</g>
<!-- Node45 -->
<g id="Node000045" class="node">
<title>Node45</title>
<g id="a_Node000045"><a xlink:href="acl_2Acl_8h.html" target="_top" xlink:title=" ">
<polygon fill="white" stroke="#666666" points="3519,-184 3461,-184 3461,-165 3519,-165 3519,-184"/>
<text text-anchor="middle" x="3490" y="-172" font-family="Helvetica,sans-Serif" font-size="10.00">acl/Acl.h</text>
</a>
</g>
</g>
<!-- Node44&#45;&gt;Node45 -->
<g id="edge31_Node000044_Node000045" class="edge">
<title>Node44&#45;&gt;Node45</title>
<g id="a_edge31_Node000044_Node000045"><a xlink:title=" ">
<path fill="none" stroke="#63b8ff" d="M3554.63,-219.98C3542.91,-211.92 3525.08,-199.65 3511.11,-190.03"/>
<polygon fill="#63b8ff" stroke="#63b8ff" points="3512.82,-186.96 3502.6,-184.17 3508.85,-192.72 3512.82,-186.96"/>
</a>
</g>
</g>
<!-- Node46 -->
<g id="Node000046" class="node">
<title>Node46</title>
<g id="a_Node000046"><a xlink:href="acl_2forward_8h.html" target="_top" xlink:title=" ">
<polygon fill="white" stroke="#666666" points="3663,-129 3583,-129 3583,-110 3663,-110 3663,-129"/>
<text text-anchor="middle" x="3623" y="-117" font-family="Helvetica,sans-Serif" font-size="10.00">acl/forward.h</text>
</a>
</g>
</g>
<!-- Node44&#45;&gt;Node46 -->
<g id="edge44_Node000044_Node000046" class="edge">
<title>Node44&#45;&gt;Node46</title>
<g id="a_edge44_Node000044_Node000046"><a xlink:title=" ">
<path fill="none" stroke="#63b8ff" d="M3574.64,-219.82C3581.93,-211.2 3592.81,-197.39 3600,-184 3607.8,-169.47 3613.97,-151.75 3617.95,-138.72"/>
<polygon fill="#63b8ff" stroke="#63b8ff" points="3621.33,-139.63 3620.76,-129.05 3614.61,-137.67 3621.33,-139.63"/>
</a>
</g>
</g>
<!-- Node68 -->
<g id="Node000068" class="node">
<title>Node68</title>
<g id="a_Node000068"><a xlink:href="hash_8h.html" target="_top" xlink:title=" ">
<polygon fill="white" stroke="#666666" points="3591.5,-184 3542.5,-184 3542.5,-165 3591.5,-165 3591.5,-184"/>
<text text-anchor="middle" x="3567" y="-172" font-family="Helvetica,sans-Serif" font-size="10.00">hash.h</text>
</a>
</g>
</g>
<!-- Node44&#45;&gt;Node68 -->
<g id="edge45_Node000044_Node000068" class="edge">
<title>Node44&#45;&gt;Node68</title>
<g id="a_edge45_Node000044_Node000068"><a xlink:title=" ">
<path fill="none" stroke="#63b8ff" d="M3567,-219.75C3567,-212.8 3567,-202.85 3567,-194.13"/>
<polygon fill="#63b8ff" stroke="#63b8ff" points="3570.5,-194.09 3567,-184.09 3563.5,-194.09 3570.5,-194.09"/>
</a>
</g>
</g>
<!-- Node86 -->
<g id="Node000086" class="node">
<title>Node86</title>
<g id="a_Node000086"><a xlink:href="Notes_8h.html" target="_top" xlink:title=" ">
<polygon fill="#fff0f0" stroke="red" points="3811,-184 3757,-184 3757,-165 3811,-165 3811,-184"/>
<text text-anchor="middle" x="3784" y="-172" font-family="Helvetica,sans-Serif" font-size="10.00">Notes.h</text>
</a>
</g>
</g>
<!-- Node44&#45;&gt;Node86 -->
<g id="edge46_Node000044_Node000086" class="edge">
<title>Node44&#45;&gt;Node86</title>
<g id="a_edge46_Node000044_Node000086"><a xlink:title=" ">
<path fill="none" stroke="#63b8ff" d="M3601.86,-219.98C3641.63,-210.27 3706.37,-194.46 3747,-184.54"/>
<polygon fill="#63b8ff" stroke="#63b8ff" points="3747.89,-187.92 3756.78,-182.15 3746.23,-181.12 3747.89,-187.92"/>
</a>
</g>
</g>
<!-- Node90 -->
<g id="Node000090" class="node">
<title>Node90</title>
<g id="a_Node000090"><a xlink:href="SquidString_8h.html" target="_top" xlink:title=" ">
<polygon fill="#fff0f0" stroke="red" points="3297.5,-129 3216.5,-129 3216.5,-110 3297.5,-110 3297.5,-129"/>
<text text-anchor="middle" x="3257" y="-117" font-family="Helvetica,sans-Serif" font-size="10.00">SquidString.h</text>
</a>
</g>
</g>
<!-- Node44&#45;&gt;Node90 -->
<g id="edge60_Node000044_Node000090" class="edge">
<title>Node44&#45;&gt;Node90</title>
<g id="a_edge60_Node000044_Node000090"><a xlink:title=" ">
<path fill="none" stroke="#63b8ff" d="M3542.42,-219.94C3487.36,-200.76 3354.07,-154.32 3291.07,-132.37"/>
<polygon fill="#63b8ff" stroke="#63b8ff" points="3292.18,-129.05 3281.59,-129.07 3289.88,-135.66 3292.18,-129.05"/>
</a>
</g>
</g>
<!-- Node45&#45;&gt;Node46 -->
<g id="edge32_Node000045_Node000046" class="edge">
<title>Node45&#45;&gt;Node46</title>
<g id="a_edge32_Node000045_Node000046"><a xlink:title=" ">
<path fill="none" stroke="#63b8ff" d="M3511.37,-164.98C3533.15,-156.3 3567.16,-142.75 3591.92,-132.88"/>
<polygon fill="#63b8ff" stroke="#63b8ff" points="3593.25,-136.12 3601.24,-129.17 3590.66,-129.62 3593.25,-136.12"/>
</a>
</g>
</g>
<!-- Node51 -->
<g id="Node000051" class="node">
<title>Node51</title>
<g id="a_Node000051"><a xlink:href="defines_8h.html" target="_top" xlink:title=" ">
<polygon fill="white" stroke="#666666" points="3376.5,-129 3315.5,-129 3315.5,-110 3376.5,-110 3376.5,-129"/>
<text text-anchor="middle" x="3346" y="-117" font-family="Helvetica,sans-Serif" font-size="10.00">defines.h</text>
</a>
</g>
</g>
<!-- Node45&#45;&gt;Node51 -->
<g id="edge34_Node000045_Node000051" class="edge">
<title>Node45&#45;&gt;Node51</title>
<g id="a_edge34_Node000045_Node000051"><a xlink:title=" ">
<path fill="none" stroke="#63b8ff" d="M3466.86,-164.98C3443.18,-156.27 3406.13,-142.63 3379.29,-132.75"/>
<polygon fill="#63b8ff" stroke="#63b8ff" points="3380.15,-129.34 3369.56,-129.17 3377.73,-135.91 3380.15,-129.34"/>
</a>
</g>
</g>
<!-- Node52 -->
<g id="Node000052" class="node">
<title>Node52</title>
<g id="a_Node000052"><a xlink:href="dlink_8h.html" target="_top" xlink:title=" ">
<polygon fill="white" stroke="#666666" points="3565,-129 3515,-129 3515,-110 3565,-110 3565,-129"/>
<text text-anchor="middle" x="3540" y="-117" font-family="Helvetica,sans-Serif" font-size="10.00">dlink.h</text>
</a>
</g>
</g>
<!-- Node45&#45;&gt;Node52 -->
<g id="edge35_Node000045_Node000052" class="edge">
<title>Node45&#45;&gt;Node52</title>
<g id="a_edge35_Node000045_Node000052"><a xlink:title=" ">
<path fill="none" stroke="#63b8ff" d="M3498.26,-164.75C3505.46,-157.11 3516.11,-145.82 3524.85,-136.56"/>
<polygon fill="#63b8ff" stroke="#63b8ff" points="3527.58,-138.76 3531.9,-129.09 3522.49,-133.96 3527.58,-138.76"/>
</a>
</g>
</g>
<!-- Node56 -->
<g id="Node000056" class="node">
<title>Node56</title>
<g id="a_Node000056"><a xlink:href="SBuf_8h.html" target="_top" xlink:title=" ">
<polygon fill="#fff0f0" stroke="red" points="3788.5,-74 3717.5,-74 3717.5,-55 3788.5,-55 3788.5,-74"/>
<text text-anchor="middle" x="3753" y="-62" font-family="Helvetica,sans-Serif" font-size="10.00">sbuf/SBuf.h</text>
</a>
</g>
</g>
<!-- Node45&#45;&gt;Node56 -->
<g id="edge38_Node000045_Node000056" class="edge">
<title>Node45&#45;&gt;Node56</title>
<g id="a_edge38_Node000045_Node000056"><a xlink:title=" ">
<path fill="none" stroke="#63b8ff" d="M3489.46,-164.64C3489.13,-150.83 3490.71,-124.28 3506,-110 3534.51,-83.38 3643.95,-72.23 3707.18,-67.93"/>
<polygon fill="#63b8ff" stroke="#63b8ff" points="3707.53,-71.41 3717.28,-67.27 3707.08,-64.43 3707.53,-71.41"/>
</a>
</g>
</g>
<!-- Node83 -->
<g id="Node000083" class="node">
<title>Node83</title>
<g id="a_Node000083"><a xlink:title=" ">
<polygon fill="#e0e0e0" stroke="#999999" points="3459,-129 3395,-129 3395,-110 3459,-110 3459,-129"/>
<text text-anchor="middle" x="3427" y="-117" font-family="Helvetica,sans-Serif" font-size="10.00">algorithm</text>
</a>
</g>
</g>
<!-- Node45&#45;&gt;Node83 -->
<g id="edge41_Node000045_Node000083" class="edge">
<title>Node45&#45;&gt;Node83</title>
<g id="a_edge41_Node000045_Node000083"><a xlink:title=" ">
<path fill="none" stroke="#63b8ff" d="M3479.88,-164.98C3470.56,-157.15 3456.53,-145.34 3445.26,-135.86"/>
<polygon fill="#63b8ff" stroke="#63b8ff" points="3447.21,-132.93 3437.31,-129.17 3442.71,-138.29 3447.21,-132.93"/>
</a>
</g>
</g>
<!-- Node84 -->
<g id="Node000084" class="node">
<title>Node84</title>
<g id="a_Node000084"><a xlink:title=" ">
<polygon fill="#e0e0e0" stroke="#999999" points="3737,-129 3681,-129 3681,-110 3737,-110 3737,-129"/>
<text text-anchor="middle" x="3709" y="-117" font-family="Helvetica,sans-Serif" font-size="10.00">optional</text>
</a>
</g>
</g>
<!-- Node45&#45;&gt;Node84 -->
<g id="edge42_Node000045_Node000084" class="edge">
<title>Node45&#45;&gt;Node84</title>
<g id="a_edge42_Node000045_Node000084"><a xlink:title=" ">
<path fill="none" stroke="#63b8ff" d="M3519.08,-166.46C3558.18,-157 3627.77,-140.16 3670.99,-129.7"/>
<polygon fill="#63b8ff" stroke="#63b8ff" points="3671.94,-133.07 3680.84,-127.32 3670.3,-126.27 3671.94,-133.07"/>
</a>
</g>
</g>
<!-- Node85 -->
<g id="Node000085" class="node">
<title>Node85</title>
<g id="a_Node000085"><a xlink:title=" ">
<polygon fill="#e0e0e0" stroke="#999999" points="3251.5,-74 3194.5,-74 3194.5,-55 3251.5,-55 3251.5,-74"/>
<text text-anchor="middle" x="3223" y="-62" font-family="Helvetica,sans-Serif" font-size="10.00">ostream</text>
</a>
</g>
</g>
<!-- Node45&#45;&gt;Node85 -->
<g id="edge43_Node000045_Node000085" class="edge">
<title>Node45&#45;&gt;Node85</title>
<g id="a_edge43_Node000045_Node000085"><a xlink:title=" ">
<path fill="none" stroke="#63b8ff" d="M3460.92,-173.48C3395.42,-172.76 3239.48,-166.99 3207,-129 3196.07,-116.22 3203.11,-97.02 3211,-83.08"/>
<polygon fill="#63b8ff" stroke="#63b8ff" points="3214.08,-84.75 3216.39,-74.41 3208.14,-81.05 3214.08,-84.75"/>
</a>
</g>
</g>
<!-- Node47 -->
<g id="Node000047" class="node">
<title>Node47</title>
<g id="a_Node000047"><a xlink:href="RefCount_8h.html" target="_top" xlink:title=" ">
<polygon fill="#fff0f0" stroke="red" points="4014.5,-74 3917.5,-74 3917.5,-55 4014.5,-55 4014.5,-74"/>
<text text-anchor="middle" x="3966" y="-62" font-family="Helvetica,sans-Serif" font-size="10.00">base/RefCount.h</text>
</a>
</g>
</g>
<!-- Node46&#45;&gt;Node47 -->
<g id="edge33_Node000046_Node000047" class="edge">
<title>Node46&#45;&gt;Node47</title>
<g id="a_edge33_Node000046_Node000047"><a xlink:title=" ">
<path fill="none" stroke="#63b8ff" d="M3663.1,-111.47C3666.11,-110.97 3669.1,-110.47 3672,-110 3716.01,-102.85 3834.51,-85.09 3906.92,-74.29"/>
<polygon fill="#63b8ff" stroke="#63b8ff" points="3907.88,-77.68 3917.25,-72.75 3906.84,-70.76 3907.88,-77.68"/>
</a>
</g>
</g>
<!-- Node53 -->
<g id="Node000053" class="node">
<title>Node53</title>
<g id="a_Node000053"><a xlink:href="mem_2forward_8h.html" target="_top" xlink:title=" ">
<polygon fill="#fff0f0" stroke="red" points="3899,-74 3807,-74 3807,-55 3899,-55 3899,-74"/>
<text text-anchor="middle" x="3853" y="-62" font-family="Helvetica,sans-Serif" font-size="10.00">mem/forward.h</text>
</a>
</g>
</g>
<!-- Node52&#45;&gt;Node53 -->
<g id="edge36_Node000052_Node000053" class="edge">
<title>Node52&#45;&gt;Node53</title>
<g id="a_edge36_Node000052_Node000053"><a xlink:title=" ">
<path fill="none" stroke="#63b8ff" d="M3565.2,-111.94C3568.15,-111.25 3571.14,-110.58 3574,-110 3595.34,-105.64 3721.41,-85.9 3796.59,-74.23"/>
<polygon fill="#63b8ff" stroke="#63b8ff" points="3797.49,-77.63 3806.84,-72.64 3796.42,-70.71 3797.49,-77.63"/>
</a>
</g>
</g>
<!-- Node55 -->
<g id="Node000055" class="node">
<title>Node55</title>
<g id="a_Node000055"><a xlink:title=" ">
<polygon fill="#e0e0e0" stroke="#999999" points="3978,-19 3930,-19 3930,0 3978,0 3978,-19"/>
<text text-anchor="middle" x="3954" y="-7" font-family="Helvetica,sans-Serif" font-size="10.00">iosfwd</text>
</a>
</g>
</g>
<!-- Node53&#45;&gt;Node55 -->
<g id="edge37_Node000053_Node000055" class="edge">
<title>Node53&#45;&gt;Node55</title>
<g id="a_edge37_Node000053_Node000055"><a xlink:title=" ">
<path fill="none" stroke="#63b8ff" d="M3869.23,-54.98C3885.18,-46.61 3909.78,-33.7 3928.38,-23.95"/>
<polygon fill="#63b8ff" stroke="#63b8ff" points="3930.25,-26.92 3937.48,-19.17 3927,-20.72 3930.25,-26.92"/>
</a>
</g>
</g>
<!-- Node56&#45;&gt;Node55 -->
<g id="edge40_Node000056_Node000055" class="edge">
<title>Node56&#45;&gt;Node55</title>
<g id="a_edge40_Node000056_Node000055"><a xlink:title=" ">
<path fill="none" stroke="#63b8ff" d="M3785.29,-54.98C3822.22,-45.25 3882.4,-29.38 3920.01,-19.46"/>
<polygon fill="#63b8ff" stroke="#63b8ff" points="3921.21,-22.77 3929.99,-16.83 3919.42,-16 3921.21,-22.77"/>
</a>
</g>
</g>
<!-- Node72 -->
<g id="Node000072" class="node">
<title>Node72</title>
<g id="a_Node000072"><a xlink:href="sbuf_2forward_8h.html" target="_top" xlink:title=" ">
<polygon fill="#fff0f0" stroke="red" points="3732.5,-19 3645.5,-19 3645.5,0 3732.5,0 3732.5,-19"/>
<text text-anchor="middle" x="3689" y="-7" font-family="Helvetica,sans-Serif" font-size="10.00">sbuf/forward.h</text>
</a>
</g>
</g>
<!-- Node56&#45;&gt;Node72 -->
<g id="edge39_Node000056_Node000072" class="edge">
<title>Node56&#45;&gt;Node72</title>
<g id="a_edge39_Node000056_Node000072"><a xlink:title=" ">
<path fill="none" stroke="#63b8ff" d="M3742.72,-54.98C3733.16,-47.07 3718.72,-35.11 3707.22,-25.58"/>
<polygon fill="#63b8ff" stroke="#63b8ff" points="3709.4,-22.85 3699.47,-19.17 3704.94,-28.24 3709.4,-22.85"/>
</a>
</g>
</g>
<!-- Node86&#45;&gt;Node46 -->
<g id="edge47_Node000086_Node000046" class="edge">
<title>Node86&#45;&gt;Node46</title>
<g id="a_edge47_Node000086_Node000046"><a xlink:title=" ">
<path fill="none" stroke="#63b8ff" d="M3758.13,-164.98C3731.22,-156.13 3688.88,-142.19 3658.77,-132.28"/>
<polygon fill="#63b8ff" stroke="#63b8ff" points="3659.66,-128.88 3649.07,-129.08 3657.47,-135.53 3659.66,-128.88"/>
</a>
</g>
</g>
<!-- Node86&#45;&gt;Node47 -->
<g id="edge48_Node000086_Node000047" class="edge">
<title>Node86&#45;&gt;Node47</title>
<g id="a_edge48_Node000086_Node000047"><a xlink:title=" ">
<path fill="none" stroke="#63b8ff" d="M3811.03,-172.17C3844.12,-169.2 3900.15,-159.64 3936,-129 3949.59,-117.39 3957.45,-98.24 3961.69,-84.01"/>
<polygon fill="#63b8ff" stroke="#63b8ff" points="3965.09,-84.85 3964.26,-74.28 3958.32,-83.06 3965.09,-84.85"/>
</a>
</g>
</g>
<!-- Node86&#45;&gt;Node53 -->
<g id="edge52_Node000086_Node000053" class="edge">
<title>Node86&#45;&gt;Node53</title>
<g id="a_edge52_Node000086_Node000053"><a xlink:title=" ">
<path fill="none" stroke="#63b8ff" d="M3788.98,-164.76C3796.06,-152.4 3809.59,-129.21 3822,-110 3827.94,-100.81 3834.88,-90.79 3840.68,-82.59"/>
<polygon fill="#63b8ff" stroke="#63b8ff" points="3843.68,-84.42 3846.64,-74.24 3837.98,-80.35 3843.68,-84.42"/>
</a>
</g>
</g>
<!-- Node86&#45;&gt;Node55 -->
<g id="edge57_Node000086_Node000055" class="edge">
<title>Node86&#45;&gt;Node55</title>
<g id="a_edge57_Node000086_Node000055"><a xlink:title=" ">
<path fill="none" stroke="#63b8ff" d="M3811.24,-172.92C3870.39,-171.01 4007.52,-162.95 4036,-129 4047.97,-114.73 4041.68,-80.31 4024,-55 4014.49,-41.38 3999.33,-31 3985.55,-23.7"/>
<polygon fill="#63b8ff" stroke="#63b8ff" points="3986.83,-20.43 3976.31,-19.14 3983.73,-26.71 3986.83,-20.43"/>
</a>
</g>
</g>
<!-- Node86&#45;&gt;Node72 -->
<g id="edge53_Node000086_Node000072" class="edge">
<title>Node86&#45;&gt;Node72</title>
<g id="a_edge53_Node000086_Node000072"><a xlink:title=" ">
<path fill="none" stroke="#63b8ff" d="M3779.77,-164.8C3773.38,-152.11 3760.47,-128.04 3746,-110 3731.45,-91.85 3720.19,-93.81 3708,-74 3699.52,-60.22 3694.62,-42.42 3691.93,-29.17"/>
<polygon fill="#63b8ff" stroke="#63b8ff" points="3695.37,-28.53 3690.16,-19.3 3688.48,-29.76 3695.37,-28.53"/>
</a>
</g>
</g>
<!-- Node86&#45;&gt;Node84 -->
<g id="edge58_Node000086_Node000084" class="edge">
<title>Node86&#45;&gt;Node84</title>
<g id="a_edge58_Node000086_Node000084"><a xlink:title=" ">
<path fill="none" stroke="#63b8ff" d="M3771.95,-164.98C3760.54,-156.92 3743.17,-144.65 3729.57,-135.03"/>
<polygon fill="#63b8ff" stroke="#63b8ff" points="3731.46,-132.08 3721.27,-129.17 3727.42,-137.8 3731.46,-132.08"/>
</a>
</g>
</g>
<!-- Node87 -->
<g id="Node000087" class="node">
<title>Node87</title>
<g id="a_Node000087"><a xlink:href="Format_8h.html" target="_top" xlink:title=" ">
<polygon fill="#fff0f0" stroke="red" points="3927,-129 3831,-129 3831,-110 3927,-110 3927,-129"/>
<text text-anchor="middle" x="3879" y="-117" font-family="Helvetica,sans-Serif" font-size="10.00">format/Format.h</text>
</a>
</g>
</g>
<!-- Node86&#45;&gt;Node87 -->
<g id="edge49_Node000086_Node000087" class="edge">
<title>Node86&#45;&gt;Node87</title>
<g id="a_edge49_Node000086_Node000087"><a xlink:title=" ">
<path fill="none" stroke="#63b8ff" d="M3799.26,-164.98C3814.13,-156.69 3836.98,-143.94 3854.42,-134.22"/>
<polygon fill="#63b8ff" stroke="#63b8ff" points="3856.43,-137.1 3863.46,-129.17 3853.02,-130.99 3856.43,-137.1"/>
</a>
</g>
</g>
<!-- Node86&#45;&gt;Node90 -->
<g id="edge54_Node000086_Node000090" class="edge">
<title>Node86&#45;&gt;Node90</title>
<g id="a_edge54_Node000086_Node000090"><a xlink:title=" ">
<path fill="none" stroke="#63b8ff" d="M3756.96,-171.73C3685.35,-166.9 3484.65,-152.31 3307.62,-129.12"/>
<polygon fill="#63b8ff" stroke="#63b8ff" points="3307.98,-125.64 3297.6,-127.8 3307.06,-132.58 3307.98,-125.64"/>
</a>
</g>
</g>
<!-- Node94 -->
<g id="Node000094" class="node">
<title>Node94</title>
<g id="a_Node000094"><a xlink:title=" ">
<polygon fill="#e0e0e0" stroke="#999999" points="4027,-129 3983,-129 3983,-110 4027,-110 4027,-129"/>
<text text-anchor="middle" x="4005" y="-117" font-family="Helvetica,sans-Serif" font-size="10.00">string</text>
</a>
</g>
</g>
<!-- Node86&#45;&gt;Node94 -->
<g id="edge59_Node000086_Node000094" class="edge">
<title>Node86&#45;&gt;Node94</title>
<g id="a_edge59_Node000086_Node000094"><a xlink:title=" ">
<path fill="none" stroke="#63b8ff" d="M3811.1,-167C3851.97,-157.2 3929.22,-138.67 3972.87,-128.21"/>
<polygon fill="#63b8ff" stroke="#63b8ff" points="3973.77,-131.59 3982.68,-125.85 3972.14,-124.78 3973.77,-131.59"/>
</a>
</g>
</g>
<!-- Node87&#45;&gt;Node47 -->
<g id="edge50_Node000087_Node000047" class="edge">
<title>Node87&#45;&gt;Node47</title>
<g id="a_edge50_Node000087_Node000047"><a xlink:title=" ">
<path fill="none" stroke="#63b8ff" d="M3892.98,-109.98C3906.47,-101.77 3927.13,-89.18 3943.04,-79.49"/>
<polygon fill="#63b8ff" stroke="#63b8ff" points="3945.05,-82.36 3951.77,-74.17 3941.41,-76.38 3945.05,-82.36"/>
</a>
</g>
</g>
<!-- Node87&#45;&gt;Node56 -->
<g id="edge51_Node000087_Node000056" class="edge">
<title>Node87&#45;&gt;Node56</title>
<g id="a_edge51_Node000087_Node000056"><a xlink:title=" ">
<path fill="none" stroke="#63b8ff" d="M3858.76,-109.98C3838.3,-101.38 3806.47,-87.99 3783.07,-78.15"/>
<polygon fill="#63b8ff" stroke="#63b8ff" points="3784.19,-74.82 3773.61,-74.17 3781.47,-81.27 3784.19,-74.82"/>
</a>
</g>
</g>
<!-- Node90&#45;&gt;Node72 -->
<g id="edge55_Node000090_Node000072" class="edge">
<title>Node90&#45;&gt;Node72</title>
<g id="a_edge55_Node000090_Node000072"><a xlink:title=" ">
<path fill="none" stroke="#63b8ff" d="M3291.26,-109.94C3369,-90.5 3558.71,-43.07 3644.99,-21.5"/>
<polygon fill="#63b8ff" stroke="#63b8ff" points="3645.88,-24.89 3654.74,-19.07 3644.19,-18.1 3645.88,-24.89"/>
</a>
</g>
</g>
<!-- Node90&#45;&gt;Node85 -->
<g id="edge56_Node000090_Node000085" class="edge">
<title>Node90&#45;&gt;Node85</title>
<g id="a_edge56_Node000090_Node000085"><a xlink:title=" ">
<path fill="none" stroke="#63b8ff" d="M3251.39,-109.75C3246.68,-102.42 3239.83,-91.73 3234.03,-82.7"/>
<polygon fill="#63b8ff" stroke="#63b8ff" points="3236.86,-80.62 3228.51,-74.09 3230.96,-84.4 3236.86,-80.62"/>
</a>
</g>
</g>
<!-- Node96&#45;&gt;Node55 -->
<g id="edge63_Node000096_Node000055" class="edge">
<title>Node96&#45;&gt;Node55</title>
<g id="a_edge63_Node000096_Node000055"><a xlink:title=" ">
<path fill="none" stroke="#63b8ff" d="M4092.86,-219.8C4091.96,-192.35 4085.7,-106.33 4043,-55 4028.86,-38 4006.61,-26.88 3987.9,-20"/>
<polygon fill="#63b8ff" stroke="#63b8ff" points="3988.81,-16.61 3978.22,-16.7 3986.55,-23.24 3988.81,-16.61"/>
</a>
</g>
</g>
<!-- Node97 -->
<g id="Node000097" class="node">
<title>Node97</title>
<g id="a_Node000097"><a xlink:title=" ">
<polygon fill="#e0e0e0" stroke="#999999" points="4165,-184 4121,-184 4121,-165 4165,-165 4165,-184"/>
<text text-anchor="middle" x="4143" y="-172" font-family="Helvetica,sans-Serif" font-size="10.00">ctime</text>
</a>
</g>
</g>
<!-- Node96&#45;&gt;Node97 -->
<g id="edge62_Node000096_Node000097" class="edge">
<title>Node96&#45;&gt;Node97</title>
<g id="a_edge62_Node000096_Node000097"><a xlink:title=" ">
<path fill="none" stroke="#63b8ff" d="M4101.26,-219.75C4108.46,-212.11 4119.11,-200.82 4127.85,-191.56"/>
<polygon fill="#63b8ff" stroke="#63b8ff" points="4130.58,-193.76 4134.9,-184.09 4125.49,-188.96 4130.58,-193.76"/>
</a>
</g>
</g>
</g>
</svg>

<g id="navigator" transform="translate(0 0)" fill="#404254">
  <rect fill="#f2f5e9" fill-opacity="0.5" stroke="#606060" stroke-width=".5" x="0" y="0" width="60" height="60"/>
  <use id="zoomplus" xlink:href="#zoomPlus" x="17" y="9" onmousedown="handleZoom(evt,'in')"/>
  <use id="zoomminus" xlink:href="#zoomMin" x="42" y="9" onmousedown="handleZoom(evt,'out')"/>
  <use id="reset" xlink:href="#resetDef" x="30" y="36" onmousedown="handleReset()"/>
   <use id="arrowup" xlink:href="#arrowUp" x="0" y="0" onmousedown="handlePan(0,-1)"/>
  <use id="arrowright" xlink:href="#arrowRight" x="0" y="0" onmousedown="handlePan(1,0)"/>
  <use id="arrowdown" xlink:href="#arrowDown" x="0" y="0" onmousedown="handlePan(0,1)"/>
  <use id="arrowleft" xlink:href="#arrowLeft" x="0" y="0" onmousedown="handlePan(-1,0)"/>
</g>
<svg viewBox="0 0 15 15" width="100%" height="30px" preserveAspectRatio="xMaxYMin meet">
 <g id="arrow_out" transform="scale(0.3 0.3)">
  <a xlink:href="ExternalACLEntry_8cc__incl_org.svg" target="_base">
   <rect id="button" ry="5" rx="5" y="6" x="6" height="38" width="38"
        fill="#f2f5e9" fill-opacity="0.5" stroke="#606060" stroke-width="1.0"/>
   <path id="arrow"
     d="M 11.500037,31.436501 C 11.940474,20.09759 22.043105,11.32322 32.158766,21.979434 L 37.068811,17.246167 C 37.068811,17.246167 37.088388,32 37.088388,32 L 22.160133,31.978069 C 22.160133,31.978069 26.997745,27.140456 26.997745,27.140456 C 18.528582,18.264221 13.291696,25.230495 11.500037,31.436501 z"
     style="fill:#404040;"/>
  </a>
 </g>
</svg>

<style type='text/css'>
<![CDATA[
[data-mouse-over-selected='false'] { opacity: 0.7; }
[data-mouse-over-selected='true']  { opacity: 1.0; }
]]>
</style>
<script type="application/ecmascript"><![CDATA[
document.addEventListener('DOMContentLoaded', (event) => {
  highlightEdges();
  highlightAdjacentNodes();
});
]]></script>
</svg>
