<?xml version="1.0" encoding="UTF-8" standalone="no"?>
<!DOCTYPE svg PUBLIC "-//W3C//DTD SVG 1.1//EN"
 "http://www.w3.org/Graphics/SVG/1.1/DTD/svg11.dtd">
<!-- Generated by graphviz version 2.43.0 (0)
 -->
<!-- Title: squid/src/fatal.cc Pages: 1 -->
<svg width="3839pt" height="302pt"
 viewBox="0.00 0.00 3839.00 302.00" xmlns="http://www.w3.org/2000/svg" xmlns:xlink="http://www.w3.org/1999/xlink">
<g id="graph0" class="graph" transform="scale(1 1) rotate(0) translate(4 298)">
<title>squid/src/fatal.cc</title>
<!-- Node1 -->
<g id="Node000001" class="node">
<title>Node1</title>
<g id="a_Node000001"><a xlink:title=" ">
<polygon fill="#999999" stroke="#666666" points="3343,-294 3244,-294 3244,-275 3343,-275 3343,-294"/>
<text text-anchor="middle" x="3293.5" y="-282" font-family="Helvetica,sans-Serif" font-size="10.00">squid/src/fatal.cc</text>
</a>
</g>
</g>
<!-- Node2 -->
<g id="Node000002" class="node">
<title>Node2</title>
<g id="a_Node000002"><a xlink:href="squid_8h.html" target="_top" xlink:title=" ">
<polygon fill="white" stroke="#666666" points="1661.5,-239 1609.5,-239 1609.5,-220 1661.5,-220 1661.5,-239"/>
<text text-anchor="middle" x="1635.5" y="-227" font-family="Helvetica,sans-Serif" font-size="10.00">squid.h</text>
</a>
</g>
</g>
<!-- Node1&#45;&gt;Node2 -->
<g id="edge1_Node000001_Node000002" class="edge">
<title>Node1&#45;&gt;Node2</title>
<g id="a_edge1_Node000001_Node000002"><a xlink:title=" ">
<path fill="none" stroke="#63b8ff" d="M3243.88,-281.91C2995.11,-273.96 1887.09,-238.54 1671.81,-231.66"/>
<polygon fill="#63b8ff" stroke="#63b8ff" points="1671.78,-228.16 1661.68,-231.34 1671.56,-235.15 1671.78,-228.16"/>
</a>
</g>
</g>
<!-- Node44 -->
<g id="Node000044" class="node">
<title>Node44</title>
<g id="a_Node000044"><a xlink:href="debug_2Stream_8h.html" target="_top" xlink:title=" ">
<polygon fill="white" stroke="#666666" points="3271.5,-129 3177.5,-129 3177.5,-110 3271.5,-110 3271.5,-129"/>
<text text-anchor="middle" x="3224.5" y="-117" font-family="Helvetica,sans-Serif" font-size="10.00">debug/Stream.h</text>
</a>
</g>
</g>
<!-- Node1&#45;&gt;Node44 -->
<g id="edge30_Node000001_Node000044" class="edge">
<title>Node1&#45;&gt;Node44</title>
<g id="a_edge30_Node000001_Node000044"><a xlink:title=" ">
<path fill="none" stroke="#63b8ff" d="M3274,-274.94C3259.19,-267.48 3239.39,-255.3 3227.5,-239 3207.67,-211.82 3206.73,-198.31 3211.5,-165 3212.75,-156.24 3215.33,-146.79 3217.86,-138.86"/>
<polygon fill="#63b8ff" stroke="#63b8ff" points="3221.24,-139.8 3221.16,-129.2 3214.62,-137.54 3221.24,-139.8"/>
</a>
</g>
</g>
<!-- Node51 -->
<g id="Node000051" class="node">
<title>Node51</title>
<g id="a_Node000051"><a xlink:href="fatal_8h.html" target="_top" xlink:title=" ">
<polygon fill="white" stroke="#666666" points="3284.5,-239 3236.5,-239 3236.5,-220 3284.5,-220 3284.5,-239"/>
<text text-anchor="middle" x="3260.5" y="-227" font-family="Helvetica,sans-Serif" font-size="10.00">fatal.h</text>
</a>
</g>
</g>
<!-- Node1&#45;&gt;Node51 -->
<g id="edge37_Node000001_Node000051" class="edge">
<title>Node1&#45;&gt;Node51</title>
<g id="a_edge37_Node000001_Node000051"><a xlink:title=" ">
<path fill="none" stroke="#63b8ff" d="M3288.05,-274.75C3283.49,-267.42 3276.83,-256.73 3271.21,-247.7"/>
<polygon fill="#63b8ff" stroke="#63b8ff" points="3274.1,-245.73 3265.85,-239.09 3268.16,-249.43 3274.1,-245.73"/>
</a>
</g>
</g>
<!-- Node52 -->
<g id="Node000052" class="node">
<title>Node52</title>
<g id="a_Node000052"><a xlink:href="globals_8h.html" target="_top" xlink:title=" ">
<polygon fill="white" stroke="#666666" points="3646,-129 3585,-129 3585,-110 3646,-110 3646,-129"/>
<text text-anchor="middle" x="3615.5" y="-117" font-family="Helvetica,sans-Serif" font-size="10.00">globals.h</text>
</a>
</g>
</g>
<!-- Node1&#45;&gt;Node52 -->
<g id="edge38_Node000001_Node000052" class="edge">
<title>Node1&#45;&gt;Node52</title>
<g id="a_edge38_Node000001_Node000052"><a xlink:title=" ">
<path fill="none" stroke="#63b8ff" d="M3343.14,-276.11C3426.57,-262.51 3588.82,-230.58 3619.5,-184 3628.23,-170.75 3625.9,-152.39 3622.18,-138.81"/>
<polygon fill="#63b8ff" stroke="#63b8ff" points="3625.47,-137.6 3619.08,-129.14 3618.8,-139.73 3625.47,-137.6"/>
</a>
</g>
</g>
<!-- Node70 -->
<g id="Node000070" class="node">
<title>Node70</title>
<g id="a_Node000070"><a xlink:href="Disks_8h.html" target="_top" xlink:title=" ">
<polygon fill="white" stroke="#666666" points="3482.5,-239 3402.5,-239 3402.5,-220 3482.5,-220 3482.5,-239"/>
<text text-anchor="middle" x="3442.5" y="-227" font-family="Helvetica,sans-Serif" font-size="10.00">store/Disks.h</text>
</a>
</g>
</g>
<!-- Node1&#45;&gt;Node70 -->
<g id="edge44_Node000001_Node000070" class="edge">
<title>Node1&#45;&gt;Node70</title>
<g id="a_edge44_Node000001_Node000070"><a xlink:title=" ">
<path fill="none" stroke="#63b8ff" d="M3317.44,-274.98C3342.06,-266.23 3380.62,-252.51 3408.42,-242.62"/>
<polygon fill="#63b8ff" stroke="#63b8ff" points="3409.88,-245.82 3418.12,-239.17 3407.53,-239.22 3409.88,-245.82"/>
</a>
</g>
</g>
<!-- Node85 -->
<g id="Node000085" class="node">
<title>Node85</title>
<g id="a_Node000085"><a xlink:href="tools_8h.html" target="_top" xlink:title=" ">
<polygon fill="white" stroke="#666666" points="3352.5,-239 3302.5,-239 3302.5,-220 3352.5,-220 3352.5,-239"/>
<text text-anchor="middle" x="3327.5" y="-227" font-family="Helvetica,sans-Serif" font-size="10.00">tools.h</text>
</a>
</g>
</g>
<!-- Node1&#45;&gt;Node85 -->
<g id="edge47_Node000001_Node000085" class="edge">
<title>Node1&#45;&gt;Node85</title>
<g id="a_edge47_Node000001_Node000085"><a xlink:title=" ">
<path fill="none" stroke="#63b8ff" d="M3299.11,-274.75C3303.82,-267.42 3310.67,-256.73 3316.47,-247.7"/>
<polygon fill="#63b8ff" stroke="#63b8ff" points="3319.54,-249.4 3321.99,-239.09 3313.64,-245.62 3319.54,-249.4"/>
</a>
</g>
</g>
<!-- Node3 -->
<g id="Node000003" class="node">
<title>Node3</title>
<g id="a_Node000003"><a xlink:href="autoconf_8h.html" target="_top" xlink:title=" ">
<polygon fill="white" stroke="#666666" points="1536.5,-184 1468.5,-184 1468.5,-165 1536.5,-165 1536.5,-184"/>
<text text-anchor="middle" x="1502.5" y="-172" font-family="Helvetica,sans-Serif" font-size="10.00">autoconf.h</text>
</a>
</g>
</g>
<!-- Node2&#45;&gt;Node3 -->
<g id="edge2_Node000002_Node000003" class="edge">
<title>Node2&#45;&gt;Node3</title>
<g id="a_edge2_Node000002_Node000003"><a xlink:title=" ">
<path fill="none" stroke="#63b8ff" d="M1614.13,-219.98C1592.35,-211.3 1558.34,-197.75 1533.58,-187.88"/>
<polygon fill="#63b8ff" stroke="#63b8ff" points="1534.84,-184.62 1524.26,-184.17 1532.25,-191.12 1534.84,-184.62"/>
</a>
</g>
</g>
<!-- Node4 -->
<g id="Node000004" class="node">
<title>Node4</title>
<g id="a_Node000004"><a xlink:href="version_8h.html" target="_top" xlink:title=" ">
<polygon fill="white" stroke="#666666" points="1616.5,-184 1554.5,-184 1554.5,-165 1616.5,-165 1616.5,-184"/>
<text text-anchor="middle" x="1585.5" y="-172" font-family="Helvetica,sans-Serif" font-size="10.00">version.h</text>
</a>
</g>
</g>
<!-- Node2&#45;&gt;Node4 -->
<g id="edge3_Node000002_Node000004" class="edge">
<title>Node2&#45;&gt;Node4</title>
<g id="a_edge3_Node000002_Node000004"><a xlink:title=" ">
<path fill="none" stroke="#63b8ff" d="M1627.24,-219.75C1620.04,-212.11 1609.39,-200.82 1600.65,-191.56"/>
<polygon fill="#63b8ff" stroke="#63b8ff" points="1603.01,-188.96 1593.6,-184.09 1597.92,-193.76 1603.01,-188.96"/>
</a>
</g>
</g>
<!-- Node5 -->
<g id="Node000005" class="node">
<title>Node5</title>
<g id="a_Node000005"><a xlink:href="compat_8h.html" target="_top" xlink:title=" ">
<polygon fill="white" stroke="#666666" points="1736.5,-184 1634.5,-184 1634.5,-165 1736.5,-165 1736.5,-184"/>
<text text-anchor="middle" x="1685.5" y="-172" font-family="Helvetica,sans-Serif" font-size="10.00">compat/compat.h</text>
</a>
</g>
</g>
<!-- Node2&#45;&gt;Node5 -->
<g id="edge4_Node000002_Node000005" class="edge">
<title>Node2&#45;&gt;Node5</title>
<g id="a_edge4_Node000002_Node000005"><a xlink:title=" ">
<path fill="none" stroke="#63b8ff" d="M1643.76,-219.75C1650.96,-212.11 1661.61,-200.82 1670.35,-191.56"/>
<polygon fill="#63b8ff" stroke="#63b8ff" points="1673.08,-193.76 1677.4,-184.09 1667.99,-188.96 1673.08,-193.76"/>
</a>
</g>
</g>
<!-- Node6 -->
<g id="Node000006" class="node">
<title>Node6</title>
<g id="a_Node000006"><a xlink:href="osdetect_8h.html" target="_top" xlink:title=" ">
<polygon fill="white" stroke="#666666" points="2921,-129 2814,-129 2814,-110 2921,-110 2921,-129"/>
<text text-anchor="middle" x="2867.5" y="-117" font-family="Helvetica,sans-Serif" font-size="10.00">compat/osdetect.h</text>
</a>
</g>
</g>
<!-- Node5&#45;&gt;Node6 -->
<g id="edge5_Node000005_Node000006" class="edge">
<title>Node5&#45;&gt;Node6</title>
<g id="a_edge5_Node000005_Node000006"><a xlink:title=" ">
<path fill="none" stroke="#63b8ff" d="M1736.63,-173.18C1894.08,-171.84 2385.63,-164.92 2803.75,-128.96"/>
<polygon fill="#63b8ff" stroke="#63b8ff" points="2804.26,-132.43 2813.92,-128.08 2803.66,-125.46 2804.26,-132.43"/>
</a>
</g>
</g>
<!-- Node7 -->
<g id="Node000007" class="node">
<title>Node7</title>
<g id="a_Node000007"><a xlink:href="fdsetsize_8h.html" target="_top" xlink:title=" ">
<polygon fill="white" stroke="#666666" points="3049.5,-129 2939.5,-129 2939.5,-110 3049.5,-110 3049.5,-129"/>
<text text-anchor="middle" x="2994.5" y="-117" font-family="Helvetica,sans-Serif" font-size="10.00">compat/fdsetsize.h</text>
</a>
</g>
</g>
<!-- Node5&#45;&gt;Node7 -->
<g id="edge6_Node000005_Node000007" class="edge">
<title>Node5&#45;&gt;Node7</title>
<g id="a_edge6_Node000005_Node000007"><a xlink:title=" ">
<path fill="none" stroke="#63b8ff" d="M1736.56,-173.4C1905.16,-172.69 2459.61,-167.46 2929.19,-128.92"/>
<polygon fill="#63b8ff" stroke="#63b8ff" points="2929.54,-132.4 2939.22,-128.09 2928.97,-125.43 2929.54,-132.4"/>
</a>
</g>
</g>
<!-- Node8 -->
<g id="Node000008" class="node">
<title>Node8</title>
<g id="a_Node000008"><a xlink:href="types_8h.html" target="_top" xlink:title=" ">
<polygon fill="#fff0f0" stroke="red" points="3159.5,-129 3067.5,-129 3067.5,-110 3159.5,-110 3159.5,-129"/>
<text text-anchor="middle" x="3113.5" y="-117" font-family="Helvetica,sans-Serif" font-size="10.00">compat/types.h</text>
</a>
</g>
</g>
<!-- Node5&#45;&gt;Node8 -->
<g id="edge7_Node000005_Node000008" class="edge">
<title>Node5&#45;&gt;Node8</title>
<g id="a_edge7_Node000005_Node000008"><a xlink:title=" ">
<path fill="none" stroke="#63b8ff" d="M1736.67,-172.67C1950.49,-169.08 2774.02,-153.97 3057.09,-128.98"/>
<polygon fill="#63b8ff" stroke="#63b8ff" points="3057.69,-132.44 3067.34,-128.05 3057.06,-125.47 3057.69,-132.44"/>
</a>
</g>
</g>
<!-- Node10 -->
<g id="Node000010" class="node">
<title>Node10</title>
<g id="a_Node000010"><a xlink:href="aix_8h.html" target="_top" xlink:title=" ">
<polygon fill="white" stroke="#666666" points="95,-129 0,-129 0,-110 95,-110 95,-129"/>
<text text-anchor="middle" x="47.5" y="-117" font-family="Helvetica,sans-Serif" font-size="10.00">compat/os/aix.h</text>
</a>
</g>
</g>
<!-- Node5&#45;&gt;Node10 -->
<g id="edge8_Node000005_Node000010" class="edge">
<title>Node5&#45;&gt;Node10</title>
<g id="a_edge8_Node000005_Node000010"><a xlink:title=" ">
<path fill="none" stroke="#63b8ff" d="M1634.48,-165.86C1631.45,-165.53 1628.44,-165.24 1625.5,-165 954.88,-109.75 779.9,-186.22 105,-128.89"/>
<polygon fill="#63b8ff" stroke="#63b8ff" points="105.3,-125.41 95.03,-128.04 104.7,-132.38 105.3,-125.41"/>
</a>
</g>
</g>
<!-- Node11 -->
<g id="Node000011" class="node">
<title>Node11</title>
<g id="a_Node000011"><a xlink:href="android_8h.html" target="_top" xlink:title=" ">
<polygon fill="white" stroke="#666666" points="229.5,-129 113.5,-129 113.5,-110 229.5,-110 229.5,-129"/>
<text text-anchor="middle" x="171.5" y="-117" font-family="Helvetica,sans-Serif" font-size="10.00">compat/os/android.h</text>
</a>
</g>
</g>
<!-- Node5&#45;&gt;Node11 -->
<g id="edge9_Node000005_Node000011" class="edge">
<title>Node5&#45;&gt;Node11</title>
<g id="a_edge9_Node000005_Node000011"><a xlink:title=" ">
<path fill="none" stroke="#63b8ff" d="M1634.48,-165.87C1631.45,-165.54 1628.44,-165.25 1625.5,-165 1014.29,-113.94 855.08,-175.2 239.58,-128.99"/>
<polygon fill="#63b8ff" stroke="#63b8ff" points="239.8,-125.49 229.57,-128.23 239.28,-132.47 239.8,-125.49"/>
</a>
</g>
</g>
<!-- Node12 -->
<g id="Node000012" class="node">
<title>Node12</title>
<g id="a_Node000012"><a xlink:href="dragonfly_8h.html" target="_top" xlink:title=" ">
<polygon fill="white" stroke="#666666" points="371.5,-129 247.5,-129 247.5,-110 371.5,-110 371.5,-129"/>
<text text-anchor="middle" x="309.5" y="-117" font-family="Helvetica,sans-Serif" font-size="10.00">compat/os/dragonfly.h</text>
</a>
</g>
</g>
<!-- Node5&#45;&gt;Node12 -->
<g id="edge10_Node000005_Node000012" class="edge">
<title>Node5&#45;&gt;Node12</title>
<g id="a_edge10_Node000005_Node000012"><a xlink:title=" ">
<path fill="none" stroke="#63b8ff" d="M1634.48,-165.88C1631.45,-165.55 1628.44,-165.25 1625.5,-165 1077.29,-118.39 934.29,-169.31 382.03,-129.03"/>
<polygon fill="#63b8ff" stroke="#63b8ff" points="382.04,-125.53 371.81,-128.28 381.52,-132.51 382.04,-125.53"/>
</a>
</g>
</g>
<!-- Node13 -->
<g id="Node000013" class="node">
<title>Node13</title>
<g id="a_Node000013"><a xlink:href="freebsd_8h.html" target="_top" xlink:title=" ">
<polygon fill="white" stroke="#666666" points="505.5,-129 389.5,-129 389.5,-110 505.5,-110 505.5,-129"/>
<text text-anchor="middle" x="447.5" y="-117" font-family="Helvetica,sans-Serif" font-size="10.00">compat/os/freebsd.h</text>
</a>
</g>
</g>
<!-- Node5&#45;&gt;Node13 -->
<g id="edge11_Node000005_Node000013" class="edge">
<title>Node5&#45;&gt;Node13</title>
<g id="a_edge11_Node000005_Node000013"><a xlink:title=" ">
<path fill="none" stroke="#63b8ff" d="M1634.48,-165.89C1631.45,-165.56 1628.43,-165.25 1625.5,-165 1136.68,-122.58 1008.73,-167.51 515.8,-129.01"/>
<polygon fill="#63b8ff" stroke="#63b8ff" points="515.81,-125.5 505.57,-128.21 515.26,-132.48 515.81,-125.5"/>
</a>
</g>
</g>
<!-- Node14 -->
<g id="Node000014" class="node">
<title>Node14</title>
<g id="a_Node000014"><a xlink:href="hpux_8h.html" target="_top" xlink:title=" ">
<polygon fill="white" stroke="#666666" points="627.5,-129 523.5,-129 523.5,-110 627.5,-110 627.5,-129"/>
<text text-anchor="middle" x="575.5" y="-117" font-family="Helvetica,sans-Serif" font-size="10.00">compat/os/hpux.h</text>
</a>
</g>
</g>
<!-- Node5&#45;&gt;Node14 -->
<g id="edge12_Node000005_Node000014" class="edge">
<title>Node5&#45;&gt;Node14</title>
<g id="a_edge12_Node000005_Node000014"><a xlink:title=" ">
<path fill="none" stroke="#63b8ff" d="M1634.48,-165.9C1631.44,-165.57 1628.43,-165.26 1625.5,-165 1190.69,-126.39 1076.39,-166.78 637.79,-129.01"/>
<polygon fill="#63b8ff" stroke="#63b8ff" points="637.97,-125.51 627.7,-128.13 637.36,-132.48 637.97,-125.51"/>
</a>
</g>
</g>
<!-- Node15 -->
<g id="Node000015" class="node">
<title>Node15</title>
<g id="a_Node000015"><a xlink:href="linux_8h.html" target="_top" xlink:title=" ">
<polygon fill="white" stroke="#666666" points="749.5,-129 645.5,-129 645.5,-110 749.5,-110 749.5,-129"/>
<text text-anchor="middle" x="697.5" y="-117" font-family="Helvetica,sans-Serif" font-size="10.00">compat/os/linux.h</text>
</a>
</g>
</g>
<!-- Node5&#45;&gt;Node15 -->
<g id="edge13_Node000005_Node000015" class="edge">
<title>Node5&#45;&gt;Node15</title>
<g id="a_edge13_Node000005_Node000015"><a xlink:title=" ">
<path fill="none" stroke="#63b8ff" d="M1634.48,-165.92C1631.44,-165.58 1628.43,-165.27 1625.5,-165 1244.72,-130.21 1144.32,-163.08 759.71,-129.01"/>
<polygon fill="#63b8ff" stroke="#63b8ff" points="759.98,-125.52 749.71,-128.11 759.35,-132.49 759.98,-125.52"/>
</a>
</g>
</g>
<!-- Node16 -->
<g id="Node000016" class="node">
<title>Node16</title>
<g id="a_Node000016"><a xlink:href="macosx_8h.html" target="_top" xlink:title=" ">
<polygon fill="white" stroke="#666666" points="885.5,-129 767.5,-129 767.5,-110 885.5,-110 885.5,-129"/>
<text text-anchor="middle" x="826.5" y="-117" font-family="Helvetica,sans-Serif" font-size="10.00">compat/os/macosx.h</text>
</a>
</g>
</g>
<!-- Node5&#45;&gt;Node16 -->
<g id="edge14_Node000005_Node000016" class="edge">
<title>Node5&#45;&gt;Node16</title>
<g id="a_edge14_Node000005_Node000016"><a xlink:title=" ">
<path fill="none" stroke="#63b8ff" d="M1634.47,-165.95C1631.44,-165.6 1628.43,-165.28 1625.5,-165 1305,-134.47 1220.29,-156.73 895.97,-129.06"/>
<polygon fill="#63b8ff" stroke="#63b8ff" points="896.07,-125.55 885.81,-128.18 895.47,-132.53 896.07,-125.55"/>
</a>
</g>
</g>
<!-- Node17 -->
<g id="Node000017" class="node">
<title>Node17</title>
<g id="a_Node000017"><a xlink:href="mingw_8h.html" target="_top" xlink:title=" ">
<polygon fill="white" stroke="#666666" points="1015.5,-129 903.5,-129 903.5,-110 1015.5,-110 1015.5,-129"/>
<text text-anchor="middle" x="959.5" y="-117" font-family="Helvetica,sans-Serif" font-size="10.00">compat/os/mingw.h</text>
</a>
</g>
</g>
<!-- Node5&#45;&gt;Node17 -->
<g id="edge15_Node000005_Node000017" class="edge">
<title>Node5&#45;&gt;Node17</title>
<g id="a_edge15_Node000005_Node000017"><a xlink:title=" ">
<path fill="none" stroke="#63b8ff" d="M1634.47,-165.98C1631.44,-165.63 1628.43,-165.29 1625.5,-165 1362.5,-138.54 1292.58,-153.98 1025.82,-129.06"/>
<polygon fill="#63b8ff" stroke="#63b8ff" points="1026.13,-125.57 1015.84,-128.11 1025.47,-132.54 1026.13,-125.57"/>
</a>
</g>
</g>
<!-- Node18 -->
<g id="Node000018" class="node">
<title>Node18</title>
<g id="a_Node000018"><a xlink:href="mswindows_8h.html" target="_top" xlink:title=" ">
<polygon fill="white" stroke="#666666" points="1171,-129 1034,-129 1034,-110 1171,-110 1171,-129"/>
<text text-anchor="middle" x="1102.5" y="-117" font-family="Helvetica,sans-Serif" font-size="10.00">compat/os/mswindows.h</text>
</a>
</g>
</g>
<!-- Node5&#45;&gt;Node18 -->
<g id="edge16_Node000005_Node000018" class="edge">
<title>Node5&#45;&gt;Node18</title>
<g id="a_edge16_Node000005_Node000018"><a xlink:title=" ">
<path fill="none" stroke="#63b8ff" d="M1634.46,-166.06C1631.43,-165.68 1628.43,-165.33 1625.5,-165 1431.13,-143.41 1379.18,-147.76 1181.48,-129.16"/>
<polygon fill="#63b8ff" stroke="#63b8ff" points="1181.62,-125.66 1171.34,-128.2 1180.96,-132.63 1181.62,-125.66"/>
</a>
</g>
</g>
<!-- Node19 -->
<g id="Node000019" class="node">
<title>Node19</title>
<g id="a_Node000019"><a xlink:href="netbsd_8h.html" target="_top" xlink:title=" ">
<polygon fill="white" stroke="#666666" points="1302,-129 1189,-129 1189,-110 1302,-110 1302,-129"/>
<text text-anchor="middle" x="1245.5" y="-117" font-family="Helvetica,sans-Serif" font-size="10.00">compat/os/netbsd.h</text>
</a>
</g>
</g>
<!-- Node5&#45;&gt;Node19 -->
<g id="edge17_Node000005_Node000019" class="edge">
<title>Node5&#45;&gt;Node19</title>
<g id="a_edge17_Node000005_Node000019"><a xlink:title=" ">
<path fill="none" stroke="#63b8ff" d="M1634.45,-166.17C1631.42,-165.77 1628.42,-165.37 1625.5,-165 1489,-147.53 1452.08,-146.19 1312.45,-129.22"/>
<polygon fill="#63b8ff" stroke="#63b8ff" points="1312.56,-125.71 1302.21,-127.97 1311.72,-132.66 1312.56,-125.71"/>
</a>
</g>
</g>
<!-- Node20 -->
<g id="Node000020" class="node">
<title>Node20</title>
<g id="a_Node000020"><a xlink:href="openbsd_8h.html" target="_top" xlink:title=" ">
<polygon fill="white" stroke="#666666" points="1441,-129 1320,-129 1320,-110 1441,-110 1441,-129"/>
<text text-anchor="middle" x="1380.5" y="-117" font-family="Helvetica,sans-Serif" font-size="10.00">compat/os/openbsd.h</text>
</a>
</g>
</g>
<!-- Node5&#45;&gt;Node20 -->
<g id="edge18_Node000005_Node000020" class="edge">
<title>Node5&#45;&gt;Node20</title>
<g id="a_edge18_Node000005_Node000020"><a xlink:title=" ">
<path fill="none" stroke="#63b8ff" d="M1636.5,-164.98C1582.88,-155.67 1496.96,-140.74 1439.64,-130.78"/>
<polygon fill="#63b8ff" stroke="#63b8ff" points="1440.09,-127.3 1429.63,-129.04 1438.89,-134.2 1440.09,-127.3"/>
</a>
</g>
</g>
<!-- Node21 -->
<g id="Node000021" class="node">
<title>Node21</title>
<g id="a_Node000021"><a xlink:href="os2_8h.html" target="_top" xlink:title=" ">
<polygon fill="white" stroke="#666666" points="1556,-129 1459,-129 1459,-110 1556,-110 1556,-129"/>
<text text-anchor="middle" x="1507.5" y="-117" font-family="Helvetica,sans-Serif" font-size="10.00">compat/os/os2.h</text>
</a>
</g>
</g>
<!-- Node5&#45;&gt;Node21 -->
<g id="edge19_Node000005_Node000021" class="edge">
<title>Node5&#45;&gt;Node21</title>
<g id="a_edge19_Node000005_Node000021"><a xlink:title=" ">
<path fill="none" stroke="#63b8ff" d="M1656.9,-164.98C1626.89,-156.05 1579.52,-141.94 1546.18,-132.02"/>
<polygon fill="#63b8ff" stroke="#63b8ff" points="1546.91,-128.58 1536.32,-129.08 1544.91,-135.29 1546.91,-128.58"/>
</a>
</g>
</g>
<!-- Node22 -->
<g id="Node000022" class="node">
<title>Node22</title>
<g id="a_Node000022"><a xlink:href="qnx_8h.html" target="_top" xlink:title=" ">
<polygon fill="white" stroke="#666666" points="1672.5,-129 1574.5,-129 1574.5,-110 1672.5,-110 1672.5,-129"/>
<text text-anchor="middle" x="1623.5" y="-117" font-family="Helvetica,sans-Serif" font-size="10.00">compat/os/qnx.h</text>
</a>
</g>
</g>
<!-- Node5&#45;&gt;Node22 -->
<g id="edge20_Node000005_Node000022" class="edge">
<title>Node5&#45;&gt;Node22</title>
<g id="a_edge20_Node000005_Node000022"><a xlink:title=" ">
<path fill="none" stroke="#63b8ff" d="M1675.54,-164.98C1666.37,-157.15 1652.56,-145.34 1641.47,-135.86"/>
<polygon fill="#63b8ff" stroke="#63b8ff" points="1643.52,-133.01 1633.64,-129.17 1638.97,-138.33 1643.52,-133.01"/>
</a>
</g>
</g>
<!-- Node23 -->
<g id="Node000023" class="node">
<title>Node23</title>
<g id="a_Node000023"><a xlink:href="solaris_8h.html" target="_top" xlink:title=" ">
<polygon fill="white" stroke="#666666" points="1802.5,-129 1690.5,-129 1690.5,-110 1802.5,-110 1802.5,-129"/>
<text text-anchor="middle" x="1746.5" y="-117" font-family="Helvetica,sans-Serif" font-size="10.00">compat/os/solaris.h</text>
</a>
</g>
</g>
<!-- Node5&#45;&gt;Node23 -->
<g id="edge21_Node000005_Node000023" class="edge">
<title>Node5&#45;&gt;Node23</title>
<g id="a_edge21_Node000005_Node000023"><a xlink:title=" ">
<path fill="none" stroke="#63b8ff" d="M1695.3,-164.98C1704.32,-157.15 1717.91,-145.34 1728.82,-135.86"/>
<polygon fill="#63b8ff" stroke="#63b8ff" points="1731.27,-138.37 1736.52,-129.17 1726.68,-133.09 1731.27,-138.37"/>
</a>
</g>
</g>
<!-- Node24 -->
<g id="Node000024" class="node">
<title>Node24</title>
<g id="a_Node000024"><a xlink:href="sunos_8h.html" target="_top" xlink:title=" ">
<polygon fill="white" stroke="#666666" points="1928.5,-129 1820.5,-129 1820.5,-110 1928.5,-110 1928.5,-129"/>
<text text-anchor="middle" x="1874.5" y="-117" font-family="Helvetica,sans-Serif" font-size="10.00">compat/os/sunos.h</text>
</a>
</g>
</g>
<!-- Node5&#45;&gt;Node24 -->
<g id="edge22_Node000005_Node000024" class="edge">
<title>Node5&#45;&gt;Node24</title>
<g id="a_edge22_Node000005_Node000024"><a xlink:title=" ">
<path fill="none" stroke="#63b8ff" d="M1715.87,-164.98C1747.87,-156.01 1798.46,-141.82 1833.88,-131.89"/>
<polygon fill="#63b8ff" stroke="#63b8ff" points="1835.21,-135.15 1843.9,-129.08 1833.32,-128.41 1835.21,-135.15"/>
</a>
</g>
</g>
<!-- Node25 -->
<g id="Node000025" class="node">
<title>Node25</title>
<g id="a_Node000025"><a xlink:href="assert_8h.html" target="_top" xlink:title=" ">
<polygon fill="white" stroke="#666666" points="2042,-129 1947,-129 1947,-110 2042,-110 2042,-129"/>
<text text-anchor="middle" x="1994.5" y="-117" font-family="Helvetica,sans-Serif" font-size="10.00">compat/assert.h</text>
</a>
</g>
</g>
<!-- Node5&#45;&gt;Node25 -->
<g id="edge23_Node000005_Node000025" class="edge">
<title>Node5&#45;&gt;Node25</title>
<g id="a_edge23_Node000005_Node000025"><a xlink:title=" ">
<path fill="none" stroke="#63b8ff" d="M1735.15,-164.98C1790.11,-155.56 1878.58,-140.38 1936.64,-130.42"/>
<polygon fill="#63b8ff" stroke="#63b8ff" points="1937.49,-133.83 1946.75,-128.69 1936.31,-126.93 1937.49,-133.83"/>
</a>
</g>
</g>
<!-- Node26 -->
<g id="Node000026" class="node">
<title>Node26</title>
<g id="a_Node000026"><a xlink:href="compat__shared_8h.html" target="_top" xlink:title=" ">
<polygon fill="#fff0f0" stroke="red" points="2200.5,-129 2060.5,-129 2060.5,-110 2200.5,-110 2200.5,-129"/>
<text text-anchor="middle" x="2130.5" y="-117" font-family="Helvetica,sans-Serif" font-size="10.00">compat/compat_shared.h</text>
</a>
</g>
</g>
<!-- Node5&#45;&gt;Node26 -->
<g id="edge24_Node000005_Node000026" class="edge">
<title>Node5&#45;&gt;Node26</title>
<g id="a_edge24_Node000005_Node000026"><a xlink:title=" ">
<path fill="none" stroke="#63b8ff" d="M1736.55,-167.42C1813.34,-158.27 1959.28,-140.89 2050.36,-130.04"/>
<polygon fill="#63b8ff" stroke="#63b8ff" points="2050.85,-133.51 2060.36,-128.85 2050.02,-126.56 2050.85,-133.51"/>
</a>
</g>
</g>
<!-- Node36 -->
<g id="Node000036" class="node">
<title>Node36</title>
<g id="a_Node000036"><a xlink:href="stdvarargs_8h.html" target="_top" xlink:title=" ">
<polygon fill="#fff0f0" stroke="red" points="2336,-129 2219,-129 2219,-110 2336,-110 2336,-129"/>
<text text-anchor="middle" x="2277.5" y="-117" font-family="Helvetica,sans-Serif" font-size="10.00">compat/stdvarargs.h</text>
</a>
</g>
</g>
<!-- Node5&#45;&gt;Node36 -->
<g id="edge25_Node000005_Node000036" class="edge">
<title>Node5&#45;&gt;Node36</title>
<g id="a_edge25_Node000005_Node000036"><a xlink:title=" ">
<path fill="none" stroke="#63b8ff" d="M1736.52,-169.84C1828.54,-163.1 2028.69,-147.76 2208.72,-129.04"/>
<polygon fill="#63b8ff" stroke="#63b8ff" points="2209.33,-132.49 2218.91,-127.97 2208.6,-125.53 2209.33,-132.49"/>
</a>
</g>
</g>
<!-- Node38 -->
<g id="Node000038" class="node">
<title>Node38</title>
<g id="a_Node000038"><a xlink:href="stdio_8h.html" target="_top" xlink:title=" ">
<polygon fill="#fff0f0" stroke="red" points="2443,-129 2354,-129 2354,-110 2443,-110 2443,-129"/>
<text text-anchor="middle" x="2398.5" y="-117" font-family="Helvetica,sans-Serif" font-size="10.00">compat/stdio.h</text>
</a>
</g>
</g>
<!-- Node5&#45;&gt;Node38 -->
<g id="edge26_Node000005_Node000038" class="edge">
<title>Node5&#45;&gt;Node38</title>
<g id="a_edge26_Node000005_Node000038"><a xlink:title=" ">
<path fill="none" stroke="#63b8ff" d="M1736.91,-171.58C1846.47,-167.16 2111.23,-154.69 2343.75,-128.97"/>
<polygon fill="#63b8ff" stroke="#63b8ff" points="2344.2,-132.44 2353.75,-127.86 2343.43,-125.49 2344.2,-132.44"/>
</a>
</g>
</g>
<!-- Node40 -->
<g id="Node000040" class="node">
<title>Node40</title>
<g id="a_Node000040"><a xlink:href="statvfs_8h.html" target="_top" xlink:title=" ">
<polygon fill="white" stroke="#666666" points="2560,-129 2461,-129 2461,-110 2560,-110 2560,-129"/>
<text text-anchor="middle" x="2510.5" y="-117" font-family="Helvetica,sans-Serif" font-size="10.00">compat/statvfs.h</text>
</a>
</g>
</g>
<!-- Node5&#45;&gt;Node40 -->
<g id="edge27_Node000005_Node000040" class="edge">
<title>Node5&#45;&gt;Node40</title>
<g id="a_edge27_Node000005_Node000040"><a xlink:title=" ">
<path fill="none" stroke="#63b8ff" d="M1736.72,-172.03C1858.53,-168.21 2175.25,-156.37 2450.77,-128.97"/>
<polygon fill="#63b8ff" stroke="#63b8ff" points="2451.36,-132.43 2460.96,-127.95 2450.66,-125.46 2451.36,-132.43"/>
</a>
</g>
</g>
<!-- Node41 -->
<g id="Node000041" class="node">
<title>Node41</title>
<g id="a_Node000041"><a xlink:href="debug_8h.html" target="_top" xlink:title=" ">
<polygon fill="white" stroke="#666666" points="2673,-129 2578,-129 2578,-110 2673,-110 2673,-129"/>
<text text-anchor="middle" x="2625.5" y="-117" font-family="Helvetica,sans-Serif" font-size="10.00">compat/debug.h</text>
</a>
</g>
</g>
<!-- Node5&#45;&gt;Node41 -->
<g id="edge28_Node000005_Node000041" class="edge">
<title>Node5&#45;&gt;Node41</title>
<g id="a_edge28_Node000005_Node000041"><a xlink:title=" ">
<path fill="none" stroke="#63b8ff" d="M1736.89,-172.66C1871.51,-170.1 2245.7,-160.55 2567.96,-128.93"/>
<polygon fill="#63b8ff" stroke="#63b8ff" points="2568.35,-132.41 2577.96,-127.94 2567.66,-125.45 2568.35,-132.41"/>
</a>
</g>
</g>
<!-- Node42 -->
<g id="Node000042" class="node">
<title>Node42</title>
<g id="a_Node000042"><a xlink:href="valgrind_8h.html" target="_top" xlink:title=" ">
<polygon fill="#fff0f0" stroke="red" points="2796,-129 2691,-129 2691,-110 2796,-110 2796,-129"/>
<text text-anchor="middle" x="2743.5" y="-117" font-family="Helvetica,sans-Serif" font-size="10.00">compat/valgrind.h</text>
</a>
</g>
</g>
<!-- Node5&#45;&gt;Node42 -->
<g id="edge29_Node000005_Node000042" class="edge">
<title>Node5&#45;&gt;Node42</title>
<g id="a_edge29_Node000005_Node000042"><a xlink:title=" ">
<path fill="none" stroke="#63b8ff" d="M1736.66,-172.87C1882.46,-170.71 2312.71,-161.9 2680.72,-128.97"/>
<polygon fill="#63b8ff" stroke="#63b8ff" points="2681.13,-132.45 2690.77,-128.06 2680.5,-125.48 2681.13,-132.45"/>
</a>
</g>
</g>
<!-- Node45 -->
<g id="Node000045" class="node">
<title>Node45</title>
<g id="a_Node000045"><a xlink:href="Here_8h.html" target="_top" xlink:title=" ">
<polygon fill="white" stroke="#666666" points="3360,-74 3285,-74 3285,-55 3360,-55 3360,-74"/>
<text text-anchor="middle" x="3322.5" y="-62" font-family="Helvetica,sans-Serif" font-size="10.00">base/Here.h</text>
</a>
</g>
</g>
<!-- Node44&#45;&gt;Node45 -->
<g id="edge31_Node000044_Node000045" class="edge">
<title>Node44&#45;&gt;Node45</title>
<g id="a_edge31_Node000044_Node000045"><a xlink:title=" ">
<path fill="none" stroke="#63b8ff" d="M3240.25,-109.98C3255.73,-101.61 3279.59,-88.7 3297.64,-78.95"/>
<polygon fill="#63b8ff" stroke="#63b8ff" points="3299.34,-82.01 3306.47,-74.17 3296.01,-75.85 3299.34,-82.01"/>
</a>
</g>
</g>
<!-- Node47 -->
<g id="Node000047" class="node">
<title>Node47</title>
<g id="a_Node000047"><a xlink:href="AllocatorProxy_8h.html" target="_top" xlink:title=" ">
<polygon fill="white" stroke="#666666" points="3040.5,-74 2916.5,-74 2916.5,-55 3040.5,-55 3040.5,-74"/>
<text text-anchor="middle" x="2978.5" y="-62" font-family="Helvetica,sans-Serif" font-size="10.00">mem/AllocatorProxy.h</text>
</a>
</g>
</g>
<!-- Node44&#45;&gt;Node47 -->
<g id="edge33_Node000044_Node000047" class="edge">
<title>Node44&#45;&gt;Node47</title>
<g id="a_edge33_Node000044_Node000047"><a xlink:title=" ">
<path fill="none" stroke="#63b8ff" d="M3184.98,-109.98C3142.33,-100.8 3074.35,-86.15 3028.14,-76.19"/>
<polygon fill="#63b8ff" stroke="#63b8ff" points="3028.85,-72.77 3018.33,-74.08 3027.37,-79.61 3028.85,-72.77"/>
</a>
</g>
</g>
<!-- Node48 -->
<g id="Node000048" class="node">
<title>Node48</title>
<g id="a_Node000048"><a xlink:title=" ">
<polygon fill="#e0e0e0" stroke="#999999" points="3118.5,-74 3058.5,-74 3058.5,-55 3118.5,-55 3118.5,-74"/>
<text text-anchor="middle" x="3088.5" y="-62" font-family="Helvetica,sans-Serif" font-size="10.00">iostream</text>
</a>
</g>
</g>
<!-- Node44&#45;&gt;Node48 -->
<g id="edge34_Node000044_Node000048" class="edge">
<title>Node44&#45;&gt;Node48</title>
<g id="a_edge34_Node000044_Node000048"><a xlink:title=" ">
<path fill="none" stroke="#63b8ff" d="M3202.65,-109.98C3180.38,-101.3 3145.6,-87.75 3120.28,-77.88"/>
<polygon fill="#63b8ff" stroke="#63b8ff" points="3121.34,-74.54 3110.75,-74.17 3118.79,-81.06 3121.34,-74.54"/>
</a>
</g>
</g>
<!-- Node49 -->
<g id="Node000049" class="node">
<title>Node49</title>
<g id="a_Node000049"><a xlink:title=" ">
<polygon fill="#e0e0e0" stroke="#999999" points="3192.5,-74 3136.5,-74 3136.5,-55 3192.5,-55 3192.5,-74"/>
<text text-anchor="middle" x="3164.5" y="-62" font-family="Helvetica,sans-Serif" font-size="10.00">sstream</text>
</a>
</g>
</g>
<!-- Node44&#45;&gt;Node49 -->
<g id="edge35_Node000044_Node000049" class="edge">
<title>Node44&#45;&gt;Node49</title>
<g id="a_edge35_Node000044_Node000049"><a xlink:title=" ">
<path fill="none" stroke="#63b8ff" d="M3214.86,-109.98C3205.99,-102.15 3192.63,-90.34 3181.89,-80.86"/>
<polygon fill="#63b8ff" stroke="#63b8ff" points="3184.13,-78.17 3174.32,-74.17 3179.49,-83.41 3184.13,-78.17"/>
</a>
</g>
</g>
<!-- Node50 -->
<g id="Node000050" class="node">
<title>Node50</title>
<g id="a_Node000050"><a xlink:title=" ">
<polygon fill="#e0e0e0" stroke="#999999" points="3266.5,-74 3210.5,-74 3210.5,-55 3266.5,-55 3266.5,-74"/>
<text text-anchor="middle" x="3238.5" y="-62" font-family="Helvetica,sans-Serif" font-size="10.00">iomanip</text>
</a>
</g>
</g>
<!-- Node44&#45;&gt;Node50 -->
<g id="edge36_Node000044_Node000050" class="edge">
<title>Node44&#45;&gt;Node50</title>
<g id="a_edge36_Node000044_Node000050"><a xlink:title=" ">
<path fill="none" stroke="#63b8ff" d="M3226.81,-109.75C3228.67,-102.72 3231.34,-92.62 3233.65,-83.84"/>
<polygon fill="#63b8ff" stroke="#63b8ff" points="3237.06,-84.65 3236.23,-74.09 3230.29,-82.86 3237.06,-84.65"/>
</a>
</g>
</g>
<!-- Node46 -->
<g id="Node000046" class="node">
<title>Node46</title>
<g id="a_Node000046"><a xlink:title=" ">
<polygon fill="#e0e0e0" stroke="#999999" points="3379.5,-19 3331.5,-19 3331.5,0 3379.5,0 3379.5,-19"/>
<text text-anchor="middle" x="3355.5" y="-7" font-family="Helvetica,sans-Serif" font-size="10.00">iosfwd</text>
</a>
</g>
</g>
<!-- Node45&#45;&gt;Node46 -->
<g id="edge32_Node000045_Node000046" class="edge">
<title>Node45&#45;&gt;Node46</title>
<g id="a_edge32_Node000045_Node000046"><a xlink:title=" ">
<path fill="none" stroke="#63b8ff" d="M3327.95,-54.75C3332.51,-47.42 3339.17,-36.73 3344.79,-27.7"/>
<polygon fill="#63b8ff" stroke="#63b8ff" points="3347.84,-29.43 3350.15,-19.09 3341.9,-25.73 3347.84,-29.43"/>
</a>
</g>
</g>
<!-- Node53 -->
<g id="Node000053" class="node">
<title>Node53</title>
<g id="a_Node000053"><a xlink:href="CacheDigest_8h.html" target="_top" xlink:title=" ">
<polygon fill="#fff0f0" stroke="red" points="3831,-74 3744,-74 3744,-55 3831,-55 3831,-74"/>
<text text-anchor="middle" x="3787.5" y="-62" font-family="Helvetica,sans-Serif" font-size="10.00">CacheDigest.h</text>
</a>
</g>
</g>
<!-- Node52&#45;&gt;Node53 -->
<g id="edge39_Node000052_Node000053" class="edge">
<title>Node52&#45;&gt;Node53</title>
<g id="a_edge39_Node000052_Node000053"><a xlink:title=" ">
<path fill="none" stroke="#63b8ff" d="M3643.13,-109.98C3672.01,-101.09 3717.51,-87.07 3749.7,-77.15"/>
<polygon fill="#63b8ff" stroke="#63b8ff" points="3751.12,-80.37 3759.65,-74.08 3749.06,-73.68 3751.12,-80.37"/>
</a>
</g>
</g>
<!-- Node67 -->
<g id="Node000067" class="node">
<title>Node67</title>
<g id="a_Node000067"><a xlink:href="defines_8h.html" target="_top" xlink:title=" ">
<polygon fill="white" stroke="#666666" points="3501,-74 3440,-74 3440,-55 3501,-55 3501,-74"/>
<text text-anchor="middle" x="3470.5" y="-62" font-family="Helvetica,sans-Serif" font-size="10.00">defines.h</text>
</a>
</g>
</g>
<!-- Node52&#45;&gt;Node67 -->
<g id="edge40_Node000052_Node000067" class="edge">
<title>Node52&#45;&gt;Node67</title>
<g id="a_edge40_Node000052_Node000067"><a xlink:title=" ">
<path fill="none" stroke="#63b8ff" d="M3592.2,-109.98C3568.25,-101.23 3530.72,-87.51 3503.67,-77.62"/>
<polygon fill="#63b8ff" stroke="#63b8ff" points="3504.81,-74.32 3494.22,-74.17 3502.41,-80.89 3504.81,-74.32"/>
</a>
</g>
</g>
<!-- Node56 -->
<g id="Node000056" class="node">
<title>Node56</title>
<g id="a_Node000056"><a xlink:href="hash_8h.html" target="_top" xlink:title=" ">
<polygon fill="white" stroke="#666666" points="3568,-74 3519,-74 3519,-55 3568,-55 3568,-74"/>
<text text-anchor="middle" x="3543.5" y="-62" font-family="Helvetica,sans-Serif" font-size="10.00">hash.h</text>
</a>
</g>
</g>
<!-- Node52&#45;&gt;Node56 -->
<g id="edge41_Node000052_Node000056" class="edge">
<title>Node52&#45;&gt;Node56</title>
<g id="a_edge41_Node000052_Node000056"><a xlink:title=" ">
<path fill="none" stroke="#63b8ff" d="M3603.93,-109.98C3593.08,-102 3576.62,-89.88 3563.62,-80.31"/>
<polygon fill="#63b8ff" stroke="#63b8ff" points="3565.41,-77.28 3555.28,-74.17 3561.26,-82.92 3565.41,-77.28"/>
</a>
</g>
</g>
<!-- Node68 -->
<g id="Node000068" class="node">
<title>Node68</title>
<g id="a_Node000068"><a xlink:href="IoStats_8h.html" target="_top" xlink:title=" ">
<polygon fill="white" stroke="#666666" points="3645,-74 3586,-74 3586,-55 3645,-55 3645,-74"/>
<text text-anchor="middle" x="3615.5" y="-62" font-family="Helvetica,sans-Serif" font-size="10.00">IoStats.h</text>
</a>
</g>
</g>
<!-- Node52&#45;&gt;Node68 -->
<g id="edge42_Node000052_Node000068" class="edge">
<title>Node52&#45;&gt;Node68</title>
<g id="a_edge42_Node000052_Node000068"><a xlink:title=" ">
<path fill="none" stroke="#63b8ff" d="M3615.5,-109.75C3615.5,-102.8 3615.5,-92.85 3615.5,-84.13"/>
<polygon fill="#63b8ff" stroke="#63b8ff" points="3619,-84.09 3615.5,-74.09 3612,-84.09 3619,-84.09"/>
</a>
</g>
</g>
<!-- Node69 -->
<g id="Node000069" class="node">
<title>Node69</title>
<g id="a_Node000069"><a xlink:href="rfc2181_8h.html" target="_top" xlink:title=" ">
<polygon fill="white" stroke="#666666" points="3725.5,-74 3663.5,-74 3663.5,-55 3725.5,-55 3725.5,-74"/>
<text text-anchor="middle" x="3694.5" y="-62" font-family="Helvetica,sans-Serif" font-size="10.00">rfc2181.h</text>
</a>
</g>
</g>
<!-- Node52&#45;&gt;Node69 -->
<g id="edge43_Node000052_Node000069" class="edge">
<title>Node52&#45;&gt;Node69</title>
<g id="a_edge43_Node000052_Node000069"><a xlink:title=" ">
<path fill="none" stroke="#63b8ff" d="M3628.19,-109.98C3640.33,-101.84 3658.86,-89.41 3673.25,-79.76"/>
<polygon fill="#63b8ff" stroke="#63b8ff" points="3675.22,-82.65 3681.58,-74.17 3671.32,-76.84 3675.22,-82.65"/>
</a>
</g>
</g>
<!-- Node71 -->
<g id="Node000071" class="node">
<title>Node71</title>
<g id="a_Node000071"><a xlink:href="Controlled_8h.html" target="_top" xlink:title=" ">
<polygon fill="#fff0f0" stroke="red" points="3610.5,-184 3506.5,-184 3506.5,-165 3610.5,-165 3610.5,-184"/>
<text text-anchor="middle" x="3558.5" y="-172" font-family="Helvetica,sans-Serif" font-size="10.00">store/Controlled.h</text>
</a>
</g>
</g>
<!-- Node70&#45;&gt;Node71 -->
<g id="edge45_Node000070_Node000071" class="edge">
<title>Node70&#45;&gt;Node71</title>
<g id="a_edge45_Node000070_Node000071"><a xlink:title=" ">
<path fill="none" stroke="#63b8ff" d="M3461.14,-219.98C3479.8,-211.46 3508.75,-198.23 3530.24,-188.41"/>
<polygon fill="#63b8ff" stroke="#63b8ff" points="3531.88,-191.51 3539.52,-184.17 3528.97,-185.14 3531.88,-191.51"/>
</a>
</g>
</g>
<!-- Node66 -->
<g id="Node000066" class="node">
<title>Node66</title>
<g id="a_Node000066"><a xlink:href="store_2forward_8h.html" target="_top" xlink:title=" ">
<polygon fill="white" stroke="#666666" points="3488,-184 3397,-184 3397,-165 3488,-165 3488,-184"/>
<text text-anchor="middle" x="3442.5" y="-172" font-family="Helvetica,sans-Serif" font-size="10.00">store/forward.h</text>
</a>
</g>
</g>
<!-- Node70&#45;&gt;Node66 -->
<g id="edge46_Node000070_Node000066" class="edge">
<title>Node70&#45;&gt;Node66</title>
<g id="a_edge46_Node000070_Node000066"><a xlink:title=" ">
<path fill="none" stroke="#63b8ff" d="M3442.5,-219.75C3442.5,-212.8 3442.5,-202.85 3442.5,-194.13"/>
<polygon fill="#63b8ff" stroke="#63b8ff" points="3446,-194.09 3442.5,-184.09 3439,-194.09 3446,-194.09"/>
</a>
</g>
</g>
<!-- Node75 -->
<g id="Node000075" class="node">
<title>Node75</title>
<g id="a_Node000075"><a xlink:href="SBuf_8h.html" target="_top" xlink:title=" ">
<polygon fill="#fff0f0" stroke="red" points="3292,-184 3221,-184 3221,-165 3292,-165 3292,-184"/>
<text text-anchor="middle" x="3256.5" y="-172" font-family="Helvetica,sans-Serif" font-size="10.00">sbuf/SBuf.h</text>
</a>
</g>
</g>
<!-- Node85&#45;&gt;Node75 -->
<g id="edge48_Node000085_Node000075" class="edge">
<title>Node85&#45;&gt;Node75</title>
<g id="a_edge48_Node000085_Node000075"><a xlink:title=" ">
<path fill="none" stroke="#63b8ff" d="M3316.09,-219.98C3305.39,-212 3289.16,-199.88 3276.34,-190.31"/>
<polygon fill="#63b8ff" stroke="#63b8ff" points="3278.22,-187.35 3268.11,-184.17 3274.03,-192.96 3278.22,-187.35"/>
</a>
</g>
</g>
<!-- Node86 -->
<g id="Node000086" class="node">
<title>Node86</title>
<g id="a_Node000086"><a xlink:href="typedefs_8h.html" target="_top" xlink:title=" ">
<polygon fill="#fff0f0" stroke="red" points="3378.5,-184 3310.5,-184 3310.5,-165 3378.5,-165 3378.5,-184"/>
<text text-anchor="middle" x="3344.5" y="-172" font-family="Helvetica,sans-Serif" font-size="10.00">typedefs.h</text>
</a>
</g>
</g>
<!-- Node85&#45;&gt;Node86 -->
<g id="edge52_Node000085_Node000086" class="edge">
<title>Node85&#45;&gt;Node86</title>
<g id="a_edge52_Node000085_Node000086"><a xlink:title=" ">
<path fill="none" stroke="#63b8ff" d="M3330.31,-219.75C3332.56,-212.72 3335.8,-202.62 3338.62,-193.84"/>
<polygon fill="#63b8ff" stroke="#63b8ff" points="3342.02,-194.68 3341.75,-184.09 3335.36,-192.54 3342.02,-194.68"/>
</a>
</g>
</g>
<!-- Node75&#45;&gt;Node44 -->
<g id="edge49_Node000075_Node000044" class="edge">
<title>Node75&#45;&gt;Node44</title>
<g id="a_edge49_Node000075_Node000044"><a xlink:title=" ">
<path fill="none" stroke="#63b8ff" d="M3251.22,-164.75C3246.79,-157.42 3240.34,-146.73 3234.88,-137.7"/>
<polygon fill="#63b8ff" stroke="#63b8ff" points="3237.85,-135.84 3229.69,-129.09 3231.86,-139.46 3237.85,-135.84"/>
</a>
</g>
</g>
<!-- Node75&#45;&gt;Node46 -->
<g id="edge51_Node000075_Node000046" class="edge">
<title>Node75&#45;&gt;Node46</title>
<g id="a_edge51_Node000075_Node000046"><a xlink:title=" ">
<path fill="none" stroke="#63b8ff" d="M3273.02,-164.91C3299.07,-150.31 3348.78,-117.89 3368.5,-74 3375.05,-59.42 3370.33,-41.47 3364.83,-28.38"/>
<polygon fill="#63b8ff" stroke="#63b8ff" points="3367.88,-26.64 3360.45,-19.08 3361.54,-29.62 3367.88,-26.64"/>
</a>
</g>
</g>
<!-- Node75&#45;&gt;Node52 -->
<g id="edge50_Node000075_Node000052" class="edge">
<title>Node75&#45;&gt;Node52</title>
<g id="a_edge50_Node000075_Node000052"><a xlink:title=" ">
<path fill="none" stroke="#63b8ff" d="M3292.34,-166.58C3295.43,-166.03 3298.52,-165.49 3301.5,-165 3399.12,-148.87 3514.42,-133.46 3574.47,-125.7"/>
<polygon fill="#63b8ff" stroke="#63b8ff" points="3575.2,-129.14 3584.68,-124.39 3574.31,-122.2 3575.2,-129.14"/>
</a>
</g>
</g>
</g>
</svg>
