<?xml version="1.0" encoding="UTF-8" standalone="no"?>
<!DOCTYPE svg PUBLIC "-//W3C//DTD SVG 1.1//EN"
 "http://www.w3.org/Graphics/SVG/1.1/DTD/svg11.dtd">
<!-- Generated by graphviz version 2.43.0 (0)
 -->
<!-- Title: squid/src/fs/rock/forward.h Pages: 1 -->
<svg width="1005pt" height="346pt"
 viewBox="0.00 0.00 1005.06 346.00" xmlns="http://www.w3.org/2000/svg" xmlns:xlink="http://www.w3.org/1999/xlink">
<g id="graph0" class="graph" transform="scale(1 1) rotate(0) translate(4 342)">
<title>squid/src/fs/rock/forward.h</title>
<!-- Node1 -->
<g id="Node000001" class="node">
<title>Node1</title>
<g id="a_Node000001"><a xlink:title=" ">
<polygon fill="#999999" stroke="#666666" points="432.56,-338 286.56,-338 286.56,-319 432.56,-319 432.56,-338"/>
<text text-anchor="middle" x="359.56" y="-326" font-family="Helvetica,sans-Serif" font-size="10.00">squid/src/fs/rock/forward.h</text>
</a>
</g>
</g>
<!-- Node2 -->
<g id="Node000002" class="node">
<title>Node2</title>
<g id="a_Node000002"><a xlink:href="RockHeaderUpdater_8h.html" target="_top" xlink:title=" ">
<polygon fill="white" stroke="#666666" points="178.56,-162 20.56,-162 20.56,-132 178.56,-132 178.56,-162"/>
<text text-anchor="start" x="28.56" y="-150" font-family="Helvetica,sans-Serif" font-size="10.00">squid/src/fs/rock/RockHeader</text>
<text text-anchor="middle" x="99.56" y="-139" font-family="Helvetica,sans-Serif" font-size="10.00">Updater.h</text>
</a>
</g>
</g>
<!-- Node1&#45;&gt;Node2 -->
<g id="edge1_Node000001_Node000002" class="edge">
<title>Node1&#45;&gt;Node2</title>
<g id="a_edge1_Node000001_Node000002"><a xlink:title=" ">
<path fill="none" stroke="#63b8ff" d="M338.49,-312.95C289.54,-279.16 168.64,-195.69 120.16,-162.22"/>
<polygon fill="#63b8ff" stroke="#63b8ff" points="336.8,-316.04 347.02,-318.84 340.78,-310.28 336.8,-316.04"/>
</a>
</g>
</g>
<!-- Node5 -->
<g id="Node000005" class="node">
<title>Node5</title>
<g id="a_Node000005"><a xlink:href="RockIoRequests_8h.html" target="_top" xlink:title=" ">
<polygon fill="white" stroke="#666666" points="360.56,-96 228.56,-96 228.56,-66 360.56,-66 360.56,-96"/>
<text text-anchor="start" x="236.56" y="-84" font-family="Helvetica,sans-Serif" font-size="10.00">squid/src/fs/rock/RockIo</text>
<text text-anchor="middle" x="294.56" y="-73" font-family="Helvetica,sans-Serif" font-size="10.00">Requests.h</text>
</a>
</g>
</g>
<!-- Node1&#45;&gt;Node5 -->
<g id="edge4_Node000001_Node000005" class="edge">
<title>Node1&#45;&gt;Node5</title>
<g id="a_edge4_Node000001_Node000005"><a xlink:title=" ">
<path fill="none" stroke="#63b8ff" d="M361.55,-308.78C364.57,-272.78 367.43,-192.12 340.56,-132 334.3,-118 322.54,-105.33 312.47,-96.24"/>
<polygon fill="#63b8ff" stroke="#63b8ff" points="358.05,-308.53 360.6,-318.82 365.02,-309.19 358.05,-308.53"/>
</a>
</g>
</g>
<!-- Node8 -->
<g id="Node000008" class="node">
<title>Node8</title>
<g id="a_Node000008"><a xlink:href="RockIoState_8h.html" target="_top" xlink:title=" ">
<polygon fill="white" stroke="#666666" points="331.56,-162 199.56,-162 199.56,-132 331.56,-132 331.56,-162"/>
<text text-anchor="start" x="207.56" y="-150" font-family="Helvetica,sans-Serif" font-size="10.00">squid/src/fs/rock/RockIo</text>
<text text-anchor="middle" x="265.56" y="-139" font-family="Helvetica,sans-Serif" font-size="10.00">State.h</text>
</a>
</g>
</g>
<!-- Node1&#45;&gt;Node8 -->
<g id="edge8_Node000001_Node000008" class="edge">
<title>Node1&#45;&gt;Node8</title>
<g id="a_edge8_Node000001_Node000008"><a xlink:title=" ">
<path fill="none" stroke="#63b8ff" d="M350.21,-309.65C331.54,-274.01 289.99,-194.65 273,-162.22"/>
<polygon fill="#63b8ff" stroke="#63b8ff" points="347.28,-311.61 355.02,-318.84 353.48,-308.36 347.28,-311.61"/>
</a>
</g>
</g>
<!-- Node9 -->
<g id="Node000009" class="node">
<title>Node9</title>
<g id="a_Node000009"><a xlink:href="RockRebuild_8h.html" target="_top" xlink:title=" ">
<polygon fill="white" stroke="#666666" points="594.06,-283 425.06,-283 425.06,-264 594.06,-264 594.06,-283"/>
<text text-anchor="middle" x="509.56" y="-271" font-family="Helvetica,sans-Serif" font-size="10.00">squid/src/fs/rock/RockRebuild.h</text>
</a>
</g>
</g>
<!-- Node1&#45;&gt;Node9 -->
<g id="edge13_Node000001_Node000009" class="edge">
<title>Node1&#45;&gt;Node9</title>
<g id="a_edge13_Node000001_Node000009"><a xlink:title=" ">
<path fill="none" stroke="#63b8ff" d="M393.38,-315.55C421.23,-305.71 460.07,-291.98 485.02,-283.17"/>
<polygon fill="#63b8ff" stroke="#63b8ff" points="391.92,-312.35 383.66,-318.98 394.25,-318.95 391.92,-312.35"/>
</a>
</g>
</g>
<!-- Node11 -->
<g id="Node000011" class="node">
<title>Node11</title>
<g id="a_Node000011"><a xlink:href="RockSwapDir_8h.html" target="_top" xlink:title=" ">
<polygon fill="white" stroke="#666666" points="539.06,-228 390.06,-228 390.06,-198 539.06,-198 539.06,-228"/>
<text text-anchor="start" x="398.06" y="-216" font-family="Helvetica,sans-Serif" font-size="10.00">squid/src/fs/rock/RockSwap</text>
<text text-anchor="middle" x="464.56" y="-205" font-family="Helvetica,sans-Serif" font-size="10.00">Dir.h</text>
</a>
</g>
</g>
<!-- Node1&#45;&gt;Node11 -->
<g id="edge23_Node000001_Node000011" class="edge">
<title>Node1&#45;&gt;Node11</title>
<g id="a_edge23_Node000001_Node000011"><a xlink:title=" ">
<path fill="none" stroke="#63b8ff" d="M373.93,-311.19C385.37,-298.28 401.84,-279.85 416.56,-264 427.85,-251.83 440.92,-238.25 450.56,-228.32"/>
<polygon fill="#63b8ff" stroke="#63b8ff" points="371.21,-308.98 367.21,-318.79 376.46,-313.61 371.21,-308.98"/>
</a>
</g>
</g>
<!-- Node3 -->
<g id="Node000003" class="node">
<title>Node3</title>
<g id="a_Node000003"><a xlink:href="RockHeaderUpdater_8cc.html" target="_top" xlink:title=" ">
<polygon fill="white" stroke="#666666" points="172.56,-96 14.56,-96 14.56,-66 172.56,-66 172.56,-96"/>
<text text-anchor="start" x="22.56" y="-84" font-family="Helvetica,sans-Serif" font-size="10.00">squid/src/fs/rock/RockHeader</text>
<text text-anchor="middle" x="93.56" y="-73" font-family="Helvetica,sans-Serif" font-size="10.00">Updater.cc</text>
</a>
</g>
</g>
<!-- Node2&#45;&gt;Node3 -->
<g id="edge2_Node000002_Node000003" class="edge">
<title>Node2&#45;&gt;Node3</title>
<g id="a_edge2_Node000002_Node000003"><a xlink:title=" ">
<path fill="none" stroke="#63b8ff" d="M97.29,-121.83C96.48,-113.17 95.59,-103.7 94.88,-96.16"/>
<polygon fill="#63b8ff" stroke="#63b8ff" points="93.81,-122.17 98.23,-131.8 100.78,-121.51 93.81,-122.17"/>
</a>
</g>
</g>
<!-- Node4 -->
<g id="Node000004" class="node">
<title>Node4</title>
<g id="a_Node000004"><a xlink:href="RockSwapDir_8cc.html" target="_top" xlink:title=" ">
<polygon fill="white" stroke="#666666" points="220.06,-30 71.06,-30 71.06,0 220.06,0 220.06,-30"/>
<text text-anchor="start" x="79.06" y="-18" font-family="Helvetica,sans-Serif" font-size="10.00">squid/src/fs/rock/RockSwap</text>
<text text-anchor="middle" x="145.56" y="-7" font-family="Helvetica,sans-Serif" font-size="10.00">Dir.cc</text>
</a>
</g>
</g>
<!-- Node2&#45;&gt;Node4 -->
<g id="edge3_Node000002_Node000004" class="edge">
<title>Node2&#45;&gt;Node4</title>
<g id="a_edge3_Node000002_Node000004"><a xlink:title=" ">
<path fill="none" stroke="#63b8ff" d="M41.55,-127.41C27.33,-119.96 13.83,-109.78 5.56,-96 -1.31,-84.57 -2.12,-76.9 5.56,-66 20.72,-44.48 46.03,-32.17 70.99,-25.15"/>
<polygon fill="#63b8ff" stroke="#63b8ff" points="40.42,-130.75 50.95,-131.92 43.45,-124.44 40.42,-130.75"/>
</a>
</g>
</g>
<!-- Node5&#45;&gt;Node4 -->
<g id="edge7_Node000005_Node000004" class="edge">
<title>Node5&#45;&gt;Node4</title>
<g id="a_edge7_Node000005_Node000004"><a xlink:title=" ">
<path fill="none" stroke="#63b8ff" d="M252.46,-61.92C228.91,-51.8 200,-39.38 178.18,-30.01"/>
<polygon fill="#63b8ff" stroke="#63b8ff" points="251.29,-65.22 261.86,-65.95 254.05,-58.79 251.29,-65.22"/>
</a>
</g>
</g>
<!-- Node6 -->
<g id="Node000006" class="node">
<title>Node6</title>
<g id="a_Node000006"><a xlink:href="RockIoRequests_8cc.html" target="_top" xlink:title=" ">
<polygon fill="white" stroke="#666666" points="370.56,-30 238.56,-30 238.56,0 370.56,0 370.56,-30"/>
<text text-anchor="start" x="246.56" y="-18" font-family="Helvetica,sans-Serif" font-size="10.00">squid/src/fs/rock/RockIo</text>
<text text-anchor="middle" x="304.56" y="-7" font-family="Helvetica,sans-Serif" font-size="10.00">Requests.cc</text>
</a>
</g>
</g>
<!-- Node5&#45;&gt;Node6 -->
<g id="edge5_Node000005_Node000006" class="edge">
<title>Node5&#45;&gt;Node6</title>
<g id="a_edge5_Node000005_Node000006"><a xlink:title=" ">
<path fill="none" stroke="#63b8ff" d="M298.33,-55.83C299.69,-47.17 301.17,-37.7 302.34,-30.16"/>
<polygon fill="#63b8ff" stroke="#63b8ff" points="294.86,-55.38 296.78,-65.8 301.78,-56.46 294.86,-55.38"/>
</a>
</g>
</g>
<!-- Node7 -->
<g id="Node000007" class="node">
<title>Node7</title>
<g id="a_Node000007"><a xlink:href="RockIoState_8cc.html" target="_top" xlink:title=" ">
<polygon fill="white" stroke="#666666" points="520.56,-30 388.56,-30 388.56,0 520.56,0 520.56,-30"/>
<text text-anchor="start" x="396.56" y="-18" font-family="Helvetica,sans-Serif" font-size="10.00">squid/src/fs/rock/RockIo</text>
<text text-anchor="middle" x="454.56" y="-7" font-family="Helvetica,sans-Serif" font-size="10.00">State.cc</text>
</a>
</g>
</g>
<!-- Node5&#45;&gt;Node7 -->
<g id="edge6_Node000005_Node000007" class="edge">
<title>Node5&#45;&gt;Node7</title>
<g id="a_edge6_Node000005_Node000007"><a xlink:title=" ">
<path fill="none" stroke="#63b8ff" d="M339.09,-62.19C364.49,-52.02 395.89,-39.47 419.53,-30.01"/>
<polygon fill="#63b8ff" stroke="#63b8ff" points="337.65,-58.99 329.67,-65.95 340.25,-65.49 337.65,-58.99"/>
</a>
</g>
</g>
<!-- Node8&#45;&gt;Node3 -->
<g id="edge9_Node000008_Node000003" class="edge">
<title>Node8&#45;&gt;Node3</title>
<g id="a_edge9_Node000008_Node000003"><a xlink:title=" ">
<path fill="none" stroke="#63b8ff" d="M218.41,-128.46C190.97,-118.25 156.85,-105.55 131.21,-96.01"/>
<polygon fill="#63b8ff" stroke="#63b8ff" points="217.22,-131.75 227.81,-131.95 219.66,-125.19 217.22,-131.75"/>
</a>
</g>
</g>
<!-- Node8&#45;&gt;Node4 -->
<g id="edge12_Node000008_Node000004" class="edge">
<title>Node8&#45;&gt;Node4</title>
<g id="a_edge12_Node000008_Node000004"><a xlink:title=" ">
<path fill="none" stroke="#63b8ff" d="M245.39,-124.15C220.67,-97.38 179.52,-52.79 158.61,-30.14"/>
<polygon fill="#63b8ff" stroke="#63b8ff" points="243.13,-126.87 252.49,-131.84 248.28,-122.12 243.13,-126.87"/>
</a>
</g>
</g>
<!-- Node8&#45;&gt;Node5 -->
<g id="edge10_Node000008_Node000005" class="edge">
<title>Node8&#45;&gt;Node5</title>
<g id="a_edge10_Node000008_Node000005"><a xlink:title=" ">
<path fill="none" stroke="#63b8ff" d="M276.12,-122.68C280.15,-113.79 284.61,-103.95 288.14,-96.16"/>
<polygon fill="#63b8ff" stroke="#63b8ff" points="272.93,-121.24 271.99,-131.8 279.31,-124.13 272.93,-121.24"/>
</a>
</g>
</g>
<!-- Node8&#45;&gt;Node7 -->
<g id="edge11_Node000008_Node000007" class="edge">
<title>Node8&#45;&gt;Node7</title>
<g id="a_edge11_Node000008_Node000007"><a xlink:title=" ">
<path fill="none" stroke="#63b8ff" d="M310.98,-127.82C329.83,-119.36 351.47,-108.42 369.56,-96 398.13,-76.39 426.45,-47.28 442.12,-30.12"/>
<polygon fill="#63b8ff" stroke="#63b8ff" points="309.45,-124.66 301.7,-131.89 312.27,-131.08 309.45,-124.66"/>
</a>
</g>
</g>
<!-- Node10 -->
<g id="Node000010" class="node">
<title>Node10</title>
<g id="a_Node000010"><a xlink:href="RockRebuild_8cc.html" target="_top" xlink:title=" ">
<polygon fill="white" stroke="#666666" points="997.06,-156.5 824.06,-156.5 824.06,-137.5 997.06,-137.5 997.06,-156.5"/>
<text text-anchor="middle" x="910.56" y="-144.5" font-family="Helvetica,sans-Serif" font-size="10.00">squid/src/fs/rock/RockRebuild.cc</text>
</a>
</g>
</g>
<!-- Node9&#45;&gt;Node10 -->
<g id="edge14_Node000009_Node000010" class="edge">
<title>Node9&#45;&gt;Node10</title>
<g id="a_edge14_Node000009_Node000010"><a xlink:title=" ">
<path fill="none" stroke="#63b8ff" d="M546.76,-260.95C626.6,-236.16 812.81,-178.35 883.07,-156.53"/>
<polygon fill="#63b8ff" stroke="#63b8ff" points="545.63,-257.63 537.12,-263.94 547.71,-264.32 545.63,-257.63"/>
</a>
</g>
</g>
<!-- Node9&#45;&gt;Node11 -->
<g id="edge15_Node000009_Node000011" class="edge">
<title>Node9&#45;&gt;Node11</title>
<g id="a_edge15_Node000009_Node000011"><a xlink:title=" ">
<path fill="none" stroke="#63b8ff" d="M496.77,-255.88C490.03,-247.11 481.85,-236.48 475.41,-228.11"/>
<polygon fill="#63b8ff" stroke="#63b8ff" points="494.05,-258.08 502.92,-263.87 499.59,-253.81 494.05,-258.08"/>
</a>
</g>
</g>
<!-- Node11&#45;&gt;Node2 -->
<g id="edge16_Node000011_Node000002" class="edge">
<title>Node11&#45;&gt;Node2</title>
<g id="a_edge16_Node000011_Node000002"><a xlink:title=" ">
<path fill="none" stroke="#63b8ff" d="M379.87,-197.15C319.18,-186.51 238,-172.27 178.62,-161.86"/>
<polygon fill="#63b8ff" stroke="#63b8ff" points="379.36,-200.61 389.81,-198.89 380.57,-193.72 379.36,-200.61"/>
</a>
</g>
</g>
<!-- Node11&#45;&gt;Node4 -->
<g id="edge21_Node000011_Node000004" class="edge">
<title>Node11&#45;&gt;Node4</title>
<g id="a_edge21_Node000011_Node000004"><a xlink:title=" ">
<path fill="none" stroke="#63b8ff" d="M455.73,-188.01C442.36,-155.13 413.72,-96.65 369.56,-66 357.12,-57.37 280.48,-41.36 220.27,-29.78"/>
<polygon fill="#63b8ff" stroke="#63b8ff" points="452.63,-189.69 459.54,-197.72 459.15,-187.14 452.63,-189.69"/>
</a>
</g>
</g>
<!-- Node11&#45;&gt;Node7 -->
<g id="edge17_Node000011_Node000007" class="edge">
<title>Node11&#45;&gt;Node7</title>
<g id="a_edge17_Node000011_Node000007"><a xlink:title=" ">
<path fill="none" stroke="#63b8ff" d="M463.33,-187.89C461.22,-146.58 456.98,-63.48 455.28,-30.23"/>
<polygon fill="#63b8ff" stroke="#63b8ff" points="459.83,-188.1 463.84,-197.9 466.82,-187.74 459.83,-188.1"/>
</a>
</g>
</g>
<!-- Node11&#45;&gt;Node8 -->
<g id="edge18_Node000011_Node000008" class="edge">
<title>Node11&#45;&gt;Node8</title>
<g id="a_edge18_Node000011_Node000008"><a xlink:title=" ">
<path fill="none" stroke="#63b8ff" d="M411.25,-194.86C379.3,-184.58 339.17,-171.68 309.13,-162.01"/>
<polygon fill="#63b8ff" stroke="#63b8ff" points="410.29,-198.23 420.89,-197.95 412.44,-191.56 410.29,-198.23"/>
</a>
</g>
</g>
<!-- Node11&#45;&gt;Node10 -->
<g id="edge19_Node000011_Node000010" class="edge">
<title>Node11&#45;&gt;Node10</title>
<g id="a_edge19_Node000011_Node000010"><a xlink:title=" ">
<path fill="none" stroke="#63b8ff" d="M549.54,-199.93C620.43,-189.85 724.08,-175.06 814.56,-162 826.81,-160.23 839.94,-158.32 852.43,-156.5"/>
<polygon fill="#63b8ff" stroke="#63b8ff" points="548.73,-196.51 539.33,-201.38 549.72,-203.44 548.73,-196.51"/>
</a>
</g>
</g>
<!-- Node12 -->
<g id="Node000012" class="node">
<title>Node12</title>
<g id="a_Node000012"><a xlink:href="RockStoreFileSystem_8cc.html" target="_top" xlink:title=" ">
<polygon fill="white" stroke="#666666" points="641.06,-162 492.06,-162 492.06,-132 641.06,-132 641.06,-162"/>
<text text-anchor="start" x="500.06" y="-150" font-family="Helvetica,sans-Serif" font-size="10.00">squid/src/fs/rock/RockStore</text>
<text text-anchor="middle" x="566.56" y="-139" font-family="Helvetica,sans-Serif" font-size="10.00">FileSystem.cc</text>
</a>
</g>
</g>
<!-- Node11&#45;&gt;Node12 -->
<g id="edge20_Node000011_Node000012" class="edge">
<title>Node11&#45;&gt;Node12</title>
<g id="a_edge20_Node000011_Node000012"><a xlink:title=" ">
<path fill="none" stroke="#63b8ff" d="M495.76,-192.42C511.42,-182.6 530.02,-170.93 544.22,-162.01"/>
<polygon fill="#63b8ff" stroke="#63b8ff" points="493.55,-189.68 486.94,-197.95 497.27,-195.6 493.55,-189.68"/>
</a>
</g>
</g>
<!-- Node13 -->
<g id="Node000013" class="node">
<title>Node13</title>
<g id="a_Node000013"><a xlink:href="testRock_8cc.html" target="_top" xlink:title=" ">
<polygon fill="white" stroke="#666666" points="805.56,-156.5 659.56,-156.5 659.56,-137.5 805.56,-137.5 805.56,-156.5"/>
<text text-anchor="middle" x="732.56" y="-144.5" font-family="Helvetica,sans-Serif" font-size="10.00">squid/src/tests/testRock.cc</text>
</a>
</g>
</g>
<!-- Node11&#45;&gt;Node13 -->
<g id="edge22_Node000011_Node000013" class="edge">
<title>Node11&#45;&gt;Node13</title>
<g id="a_edge22_Node000011_Node000013"><a xlink:title=" ">
<path fill="none" stroke="#63b8ff" d="M533.24,-195.6C585.49,-183.12 655.27,-166.46 696.89,-156.52"/>
<polygon fill="#63b8ff" stroke="#63b8ff" points="532.28,-192.23 523.37,-197.95 533.91,-199.04 532.28,-192.23"/>
</a>
</g>
</g>
</g>
</svg>
