<?xml version="1.0" encoding="UTF-8" standalone="no"?>
<!DOCTYPE svg PUBLIC "-//W3C//DTD SVG 1.1//EN"
 "http://www.w3.org/Graphics/SVG/1.1/DTD/svg11.dtd">
<!-- Generated by graphviz version 2.43.0 (0)
 -->
<!-- Title: squid/src/ftp/Elements.cc Pages: 1 -->
<svg width="3828pt" height="357pt"
 viewBox="0.00 0.00 3827.50 357.00" xmlns="http://www.w3.org/2000/svg" xmlns:xlink="http://www.w3.org/1999/xlink">
<g id="graph0" class="graph" transform="scale(1 1) rotate(0) translate(4 353)">
<title>squid/src/ftp/Elements.cc</title>
<!-- Node1 -->
<g id="Node000001" class="node">
<title>Node1</title>
<g id="a_Node000001"><a xlink:title=" ">
<polygon fill="#999999" stroke="#666666" points="3193.5,-349 3055.5,-349 3055.5,-330 3193.5,-330 3193.5,-349"/>
<text text-anchor="middle" x="3124.5" y="-337" font-family="Helvetica,sans-Serif" font-size="10.00">squid/src/ftp/Elements.cc</text>
</a>
</g>
</g>
<!-- Node2 -->
<g id="Node000002" class="node">
<title>Node2</title>
<g id="a_Node000002"><a xlink:href="squid_8h.html" target="_top" xlink:title=" ">
<polygon fill="white" stroke="#666666" points="1429.5,-294 1377.5,-294 1377.5,-275 1429.5,-275 1429.5,-294"/>
<text text-anchor="middle" x="1403.5" y="-282" font-family="Helvetica,sans-Serif" font-size="10.00">squid.h</text>
</a>
</g>
</g>
<!-- Node1&#45;&gt;Node2 -->
<g id="edge1_Node000001_Node000002" class="edge">
<title>Node1&#45;&gt;Node2</title>
<g id="a_edge1_Node000001_Node000002"><a xlink:title=" ">
<path fill="none" stroke="#63b8ff" d="M3055.44,-336.37C2765.94,-327.46 1655.23,-293.25 1439.81,-286.62"/>
<polygon fill="#63b8ff" stroke="#63b8ff" points="1439.78,-283.12 1429.67,-286.31 1439.56,-290.11 1439.78,-283.12"/>
</a>
</g>
</g>
<!-- Node44 -->
<g id="Node000044" class="node">
<title>Node44</title>
<g id="a_Node000044"><a xlink:href="ftp_2Elements_8h.html" target="_top" xlink:title=" ">
<polygon fill="white" stroke="#666666" points="3168,-239 3081,-239 3081,-220 3168,-220 3168,-239"/>
<text text-anchor="middle" x="3124.5" y="-227" font-family="Helvetica,sans-Serif" font-size="10.00">ftp/Elements.h</text>
</a>
</g>
</g>
<!-- Node1&#45;&gt;Node44 -->
<g id="edge27_Node000001_Node000044" class="edge">
<title>Node1&#45;&gt;Node44</title>
<g id="a_edge27_Node000001_Node000044"><a xlink:title=" ">
<path fill="none" stroke="#63b8ff" d="M3124.5,-329.66C3124.5,-312.17 3124.5,-272.8 3124.5,-249.27"/>
<polygon fill="#63b8ff" stroke="#63b8ff" points="3128,-249.16 3124.5,-239.16 3121,-249.16 3128,-249.16"/>
</a>
</g>
</g>
<!-- Node56 -->
<g id="Node000056" class="node">
<title>Node56</title>
<g id="a_Node000056"><a xlink:href="HttpHdrCc_8h.html" target="_top" xlink:title=" ">
<polygon fill="white" stroke="#666666" points="2993.5,-239 2917.5,-239 2917.5,-220 2993.5,-220 2993.5,-239"/>
<text text-anchor="middle" x="2955.5" y="-227" font-family="Helvetica,sans-Serif" font-size="10.00">HttpHdrCc.h</text>
</a>
</g>
</g>
<!-- Node1&#45;&gt;Node56 -->
<g id="edge31_Node000001_Node000056" class="edge">
<title>Node1&#45;&gt;Node56</title>
<g id="a_edge31_Node000001_Node000056"><a xlink:title=" ">
<path fill="none" stroke="#63b8ff" d="M3110.96,-329.84C3081.91,-311.28 3013.38,-267.49 2977.8,-244.75"/>
<polygon fill="#63b8ff" stroke="#63b8ff" points="2979.42,-241.63 2969.11,-239.2 2975.65,-247.53 2979.42,-241.63"/>
</a>
</g>
</g>
<!-- Node71 -->
<g id="Node000071" class="node">
<title>Node71</title>
<g id="a_Node000071"><a xlink:href="HttpReply_8h.html" target="_top" xlink:title=" ">
<polygon fill="white" stroke="#666666" points="3449,-294 3376,-294 3376,-275 3449,-275 3449,-294"/>
<text text-anchor="middle" x="3412.5" y="-282" font-family="Helvetica,sans-Serif" font-size="10.00">HttpReply.h</text>
</a>
</g>
</g>
<!-- Node1&#45;&gt;Node71 -->
<g id="edge42_Node000001_Node000071" class="edge">
<title>Node1&#45;&gt;Node71</title>
<g id="a_edge42_Node000001_Node000071"><a xlink:title=" ">
<path fill="none" stroke="#63b8ff" d="M3170.77,-329.98C3224.4,-320.12 3312.26,-303.95 3365.99,-294.06"/>
<polygon fill="#63b8ff" stroke="#63b8ff" points="3366.73,-297.48 3375.94,-292.23 3365.47,-290.6 3366.73,-297.48"/>
</a>
</g>
</g>
<!-- Node77 -->
<g id="Node000077" class="node">
<title>Node77</title>
<g id="a_Node000077"><a xlink:href="SBuf_8h.html" target="_top" xlink:title=" ">
<polygon fill="white" stroke="#666666" points="3475,-184 3404,-184 3404,-165 3475,-165 3475,-184"/>
<text text-anchor="middle" x="3439.5" y="-172" font-family="Helvetica,sans-Serif" font-size="10.00">sbuf/SBuf.h</text>
</a>
</g>
</g>
<!-- Node1&#45;&gt;Node77 -->
<g id="edge63_Node000001_Node000077" class="edge">
<title>Node1&#45;&gt;Node77</title>
<g id="a_edge63_Node000001_Node000077"><a xlink:title=" ">
<path fill="none" stroke="#63b8ff" d="M3142.88,-329.94C3178.73,-313.16 3260.34,-274.46 3327.5,-239 3358.63,-222.56 3393.85,-202.32 3416.34,-189.17"/>
<polygon fill="#63b8ff" stroke="#63b8ff" points="3418.3,-192.08 3425.16,-184 3414.76,-186.04 3418.3,-192.08"/>
</a>
</g>
</g>
<!-- Node3 -->
<g id="Node000003" class="node">
<title>Node3</title>
<g id="a_Node000003"><a xlink:href="autoconf_8h.html" target="_top" xlink:title=" ">
<polygon fill="white" stroke="#666666" points="1304.5,-239 1236.5,-239 1236.5,-220 1304.5,-220 1304.5,-239"/>
<text text-anchor="middle" x="1270.5" y="-227" font-family="Helvetica,sans-Serif" font-size="10.00">autoconf.h</text>
</a>
</g>
</g>
<!-- Node2&#45;&gt;Node3 -->
<g id="edge2_Node000002_Node000003" class="edge">
<title>Node2&#45;&gt;Node3</title>
<g id="a_edge2_Node000002_Node000003"><a xlink:title=" ">
<path fill="none" stroke="#63b8ff" d="M1382.13,-274.98C1360.35,-266.3 1326.34,-252.75 1301.58,-242.88"/>
<polygon fill="#63b8ff" stroke="#63b8ff" points="1302.84,-239.62 1292.26,-239.17 1300.25,-246.12 1302.84,-239.62"/>
</a>
</g>
</g>
<!-- Node4 -->
<g id="Node000004" class="node">
<title>Node4</title>
<g id="a_Node000004"><a xlink:href="version_8h.html" target="_top" xlink:title=" ">
<polygon fill="white" stroke="#666666" points="1384.5,-239 1322.5,-239 1322.5,-220 1384.5,-220 1384.5,-239"/>
<text text-anchor="middle" x="1353.5" y="-227" font-family="Helvetica,sans-Serif" font-size="10.00">version.h</text>
</a>
</g>
</g>
<!-- Node2&#45;&gt;Node4 -->
<g id="edge3_Node000002_Node000004" class="edge">
<title>Node2&#45;&gt;Node4</title>
<g id="a_edge3_Node000002_Node000004"><a xlink:title=" ">
<path fill="none" stroke="#63b8ff" d="M1395.24,-274.75C1388.04,-267.11 1377.39,-255.82 1368.65,-246.56"/>
<polygon fill="#63b8ff" stroke="#63b8ff" points="1371.01,-243.96 1361.6,-239.09 1365.92,-248.76 1371.01,-243.96"/>
</a>
</g>
</g>
<!-- Node5 -->
<g id="Node000005" class="node">
<title>Node5</title>
<g id="a_Node000005"><a xlink:href="compat_8h.html" target="_top" xlink:title=" ">
<polygon fill="#fff0f0" stroke="red" points="1504.5,-239 1402.5,-239 1402.5,-220 1504.5,-220 1504.5,-239"/>
<text text-anchor="middle" x="1453.5" y="-227" font-family="Helvetica,sans-Serif" font-size="10.00">compat/compat.h</text>
</a>
</g>
</g>
<!-- Node2&#45;&gt;Node5 -->
<g id="edge4_Node000002_Node000005" class="edge">
<title>Node2&#45;&gt;Node5</title>
<g id="a_edge4_Node000002_Node000005"><a xlink:title=" ">
<path fill="none" stroke="#63b8ff" d="M1411.76,-274.75C1418.96,-267.11 1429.61,-255.82 1438.35,-246.56"/>
<polygon fill="#63b8ff" stroke="#63b8ff" points="1441.08,-248.76 1445.4,-239.09 1435.99,-243.96 1441.08,-248.76"/>
</a>
</g>
</g>
<!-- Node6 -->
<g id="Node000006" class="node">
<title>Node6</title>
<g id="a_Node000006"><a xlink:href="osdetect_8h.html" target="_top" xlink:title=" ">
<polygon fill="white" stroke="#666666" points="621,-184 514,-184 514,-165 621,-165 621,-184"/>
<text text-anchor="middle" x="567.5" y="-172" font-family="Helvetica,sans-Serif" font-size="10.00">compat/osdetect.h</text>
</a>
</g>
</g>
<!-- Node5&#45;&gt;Node6 -->
<g id="edge5_Node000005_Node000006" class="edge">
<title>Node5&#45;&gt;Node6</title>
<g id="a_edge5_Node000005_Node000006"><a xlink:title=" ">
<path fill="none" stroke="#63b8ff" d="M1402.48,-220.94C1399.44,-220.59 1396.43,-220.28 1393.5,-220 1058.81,-188.47 970.32,-214.21 631.19,-183.96"/>
<polygon fill="#63b8ff" stroke="#63b8ff" points="631.35,-180.46 621.08,-183.05 630.73,-187.44 631.35,-180.46"/>
</a>
</g>
</g>
<!-- Node7 -->
<g id="Node000007" class="node">
<title>Node7</title>
<g id="a_Node000007"><a xlink:href="fdsetsize_8h.html" target="_top" xlink:title=" ">
<polygon fill="white" stroke="#666666" points="749.5,-184 639.5,-184 639.5,-165 749.5,-165 749.5,-184"/>
<text text-anchor="middle" x="694.5" y="-172" font-family="Helvetica,sans-Serif" font-size="10.00">compat/fdsetsize.h</text>
</a>
</g>
</g>
<!-- Node5&#45;&gt;Node7 -->
<g id="edge6_Node000005_Node000007" class="edge">
<title>Node5&#45;&gt;Node7</title>
<g id="a_edge6_Node000005_Node000007"><a xlink:title=" ">
<path fill="none" stroke="#63b8ff" d="M1402.47,-220.97C1399.44,-220.62 1396.43,-220.29 1393.5,-220 1115.5,-192.48 1041.64,-210.2 759.74,-184.04"/>
<polygon fill="#63b8ff" stroke="#63b8ff" points="759.91,-180.54 749.63,-183.09 759.26,-187.51 759.91,-180.54"/>
</a>
</g>
</g>
<!-- Node8 -->
<g id="Node000008" class="node">
<title>Node8</title>
<g id="a_Node000008"><a xlink:href="types_8h.html" target="_top" xlink:title=" ">
<polygon fill="#fff0f0" stroke="red" points="859.5,-184 767.5,-184 767.5,-165 859.5,-165 859.5,-184"/>
<text text-anchor="middle" x="813.5" y="-172" font-family="Helvetica,sans-Serif" font-size="10.00">compat/types.h</text>
</a>
</g>
</g>
<!-- Node5&#45;&gt;Node8 -->
<g id="edge7_Node000005_Node000008" class="edge">
<title>Node5&#45;&gt;Node8</title>
<g id="a_edge7_Node000005_Node000008"><a xlink:title=" ">
<path fill="none" stroke="#63b8ff" d="M1402.47,-221.01C1399.44,-220.65 1396.43,-220.31 1393.5,-220 1164.19,-195.93 1102.68,-209.49 869.82,-184.05"/>
<polygon fill="#63b8ff" stroke="#63b8ff" points="870,-180.55 859.68,-182.93 869.23,-187.5 870,-180.55"/>
</a>
</g>
</g>
<!-- Node10 -->
<g id="Node000010" class="node">
<title>Node10</title>
<g id="a_Node000010"><a xlink:href="aix_8h.html" target="_top" xlink:title=" ">
<polygon fill="white" stroke="#666666" points="973,-184 878,-184 878,-165 973,-165 973,-184"/>
<text text-anchor="middle" x="925.5" y="-172" font-family="Helvetica,sans-Serif" font-size="10.00">compat/os/aix.h</text>
</a>
</g>
</g>
<!-- Node5&#45;&gt;Node10 -->
<g id="edge8_Node000005_Node000010" class="edge">
<title>Node5&#45;&gt;Node10</title>
<g id="a_edge8_Node000005_Node000010"><a xlink:title=" ">
<path fill="none" stroke="#63b8ff" d="M1402.46,-221.08C1399.43,-220.7 1396.43,-220.34 1393.5,-220 1214.53,-199.5 1166.28,-205.32 983.02,-183.98"/>
<polygon fill="#63b8ff" stroke="#63b8ff" points="983.4,-180.5 973.06,-182.81 982.58,-187.46 983.4,-180.5"/>
</a>
</g>
</g>
<!-- Node11 -->
<g id="Node000011" class="node">
<title>Node11</title>
<g id="a_Node000011"><a xlink:href="android_8h.html" target="_top" xlink:title=" ">
<polygon fill="white" stroke="#666666" points="1107.5,-184 991.5,-184 991.5,-165 1107.5,-165 1107.5,-184"/>
<text text-anchor="middle" x="1049.5" y="-172" font-family="Helvetica,sans-Serif" font-size="10.00">compat/os/android.h</text>
</a>
</g>
</g>
<!-- Node5&#45;&gt;Node11 -->
<g id="edge9_Node000005_Node000011" class="edge">
<title>Node5&#45;&gt;Node11</title>
<g id="a_edge9_Node000005_Node000011"><a xlink:title=" ">
<path fill="none" stroke="#63b8ff" d="M1402.44,-221.22C1399.42,-220.81 1396.42,-220.4 1393.5,-220 1341.75,-212.99 1202.21,-195.05 1117.6,-184.21"/>
<polygon fill="#63b8ff" stroke="#63b8ff" points="1117.92,-180.72 1107.56,-182.92 1117.03,-187.67 1117.92,-180.72"/>
</a>
</g>
</g>
<!-- Node12 -->
<g id="Node000012" class="node">
<title>Node12</title>
<g id="a_Node000012"><a xlink:href="dragonfly_8h.html" target="_top" xlink:title=" ">
<polygon fill="white" stroke="#666666" points="1249.5,-184 1125.5,-184 1125.5,-165 1249.5,-165 1249.5,-184"/>
<text text-anchor="middle" x="1187.5" y="-172" font-family="Helvetica,sans-Serif" font-size="10.00">compat/os/dragonfly.h</text>
</a>
</g>
</g>
<!-- Node5&#45;&gt;Node12 -->
<g id="edge10_Node000005_Node000012" class="edge">
<title>Node5&#45;&gt;Node12</title>
<g id="a_edge10_Node000005_Node000012"><a xlink:title=" ">
<path fill="none" stroke="#63b8ff" d="M1410.76,-219.98C1364.46,-210.76 1290.52,-196.03 1240.54,-186.07"/>
<polygon fill="#63b8ff" stroke="#63b8ff" points="1241.06,-182.6 1230.57,-184.08 1239.7,-189.47 1241.06,-182.6"/>
</a>
</g>
</g>
<!-- Node13 -->
<g id="Node000013" class="node">
<title>Node13</title>
<g id="a_Node000013"><a xlink:href="freebsd_8h.html" target="_top" xlink:title=" ">
<polygon fill="white" stroke="#666666" points="1383.5,-184 1267.5,-184 1267.5,-165 1383.5,-165 1383.5,-184"/>
<text text-anchor="middle" x="1325.5" y="-172" font-family="Helvetica,sans-Serif" font-size="10.00">compat/os/freebsd.h</text>
</a>
</g>
</g>
<!-- Node5&#45;&gt;Node13 -->
<g id="edge11_Node000005_Node000013" class="edge">
<title>Node5&#45;&gt;Node13</title>
<g id="a_edge11_Node000005_Node000013"><a xlink:title=" ">
<path fill="none" stroke="#63b8ff" d="M1432.93,-219.98C1412.07,-211.34 1379.53,-197.87 1355.73,-188.02"/>
<polygon fill="#63b8ff" stroke="#63b8ff" points="1357.02,-184.76 1346.44,-184.17 1354.34,-191.23 1357.02,-184.76"/>
</a>
</g>
</g>
<!-- Node14 -->
<g id="Node000014" class="node">
<title>Node14</title>
<g id="a_Node000014"><a xlink:href="hpux_8h.html" target="_top" xlink:title=" ">
<polygon fill="white" stroke="#666666" points="1505.5,-184 1401.5,-184 1401.5,-165 1505.5,-165 1505.5,-184"/>
<text text-anchor="middle" x="1453.5" y="-172" font-family="Helvetica,sans-Serif" font-size="10.00">compat/os/hpux.h</text>
</a>
</g>
</g>
<!-- Node5&#45;&gt;Node14 -->
<g id="edge12_Node000005_Node000014" class="edge">
<title>Node5&#45;&gt;Node14</title>
<g id="a_edge12_Node000005_Node000014"><a xlink:title=" ">
<path fill="none" stroke="#63b8ff" d="M1453.5,-219.75C1453.5,-212.8 1453.5,-202.85 1453.5,-194.13"/>
<polygon fill="#63b8ff" stroke="#63b8ff" points="1457,-194.09 1453.5,-184.09 1450,-194.09 1457,-194.09"/>
</a>
</g>
</g>
<!-- Node15 -->
<g id="Node000015" class="node">
<title>Node15</title>
<g id="a_Node000015"><a xlink:href="linux_8h.html" target="_top" xlink:title=" ">
<polygon fill="white" stroke="#666666" points="1627.5,-184 1523.5,-184 1523.5,-165 1627.5,-165 1627.5,-184"/>
<text text-anchor="middle" x="1575.5" y="-172" font-family="Helvetica,sans-Serif" font-size="10.00">compat/os/linux.h</text>
</a>
</g>
</g>
<!-- Node5&#45;&gt;Node15 -->
<g id="edge13_Node000005_Node000015" class="edge">
<title>Node5&#45;&gt;Node15</title>
<g id="a_edge13_Node000005_Node000015"><a xlink:title=" ">
<path fill="none" stroke="#63b8ff" d="M1473.1,-219.98C1492.82,-211.42 1523.45,-198.11 1546.08,-188.28"/>
<polygon fill="#63b8ff" stroke="#63b8ff" points="1547.76,-191.37 1555.54,-184.17 1544.98,-184.94 1547.76,-191.37"/>
</a>
</g>
</g>
<!-- Node16 -->
<g id="Node000016" class="node">
<title>Node16</title>
<g id="a_Node000016"><a xlink:href="macosx_8h.html" target="_top" xlink:title=" ">
<polygon fill="white" stroke="#666666" points="1763.5,-184 1645.5,-184 1645.5,-165 1763.5,-165 1763.5,-184"/>
<text text-anchor="middle" x="1704.5" y="-172" font-family="Helvetica,sans-Serif" font-size="10.00">compat/os/macosx.h</text>
</a>
</g>
</g>
<!-- Node5&#45;&gt;Node16 -->
<g id="edge14_Node000005_Node000016" class="edge">
<title>Node5&#45;&gt;Node16</title>
<g id="a_edge14_Node000005_Node000016"><a xlink:title=" ">
<path fill="none" stroke="#63b8ff" d="M1493.83,-219.98C1537.34,-210.8 1606.7,-196.15 1653.85,-186.19"/>
<polygon fill="#63b8ff" stroke="#63b8ff" points="1654.8,-189.57 1663.86,-184.08 1653.35,-182.72 1654.8,-189.57"/>
</a>
</g>
</g>
<!-- Node17 -->
<g id="Node000017" class="node">
<title>Node17</title>
<g id="a_Node000017"><a xlink:href="mingw_8h.html" target="_top" xlink:title=" ">
<polygon fill="white" stroke="#666666" points="1893.5,-184 1781.5,-184 1781.5,-165 1893.5,-165 1893.5,-184"/>
<text text-anchor="middle" x="1837.5" y="-172" font-family="Helvetica,sans-Serif" font-size="10.00">compat/os/mingw.h</text>
</a>
</g>
</g>
<!-- Node5&#45;&gt;Node17 -->
<g id="edge15_Node000005_Node000017" class="edge">
<title>Node5&#45;&gt;Node17</title>
<g id="a_edge15_Node000005_Node000017"><a xlink:title=" ">
<path fill="none" stroke="#63b8ff" d="M1504.89,-221.41C1573.6,-211.92 1695.48,-195.1 1771.08,-184.67"/>
<polygon fill="#63b8ff" stroke="#63b8ff" points="1772,-188.07 1781.43,-183.24 1771.05,-181.14 1772,-188.07"/>
</a>
</g>
</g>
<!-- Node18 -->
<g id="Node000018" class="node">
<title>Node18</title>
<g id="a_Node000018"><a xlink:href="mswindows_8h.html" target="_top" xlink:title=" ">
<polygon fill="white" stroke="#666666" points="2049,-184 1912,-184 1912,-165 2049,-165 2049,-184"/>
<text text-anchor="middle" x="1980.5" y="-172" font-family="Helvetica,sans-Serif" font-size="10.00">compat/os/mswindows.h</text>
</a>
</g>
</g>
<!-- Node5&#45;&gt;Node18 -->
<g id="edge16_Node000005_Node000018" class="edge">
<title>Node5&#45;&gt;Node18</title>
<g id="a_edge16_Node000005_Node000018"><a xlink:title=" ">
<path fill="none" stroke="#63b8ff" d="M1504.69,-223.59C1586.19,-215.74 1750.76,-199.74 1901.25,-184.12"/>
<polygon fill="#63b8ff" stroke="#63b8ff" points="1902.02,-187.56 1911.6,-183.05 1901.29,-180.6 1902.02,-187.56"/>
</a>
</g>
</g>
<!-- Node19 -->
<g id="Node000019" class="node">
<title>Node19</title>
<g id="a_Node000019"><a xlink:href="netbsd_8h.html" target="_top" xlink:title=" ">
<polygon fill="white" stroke="#666666" points="2180,-184 2067,-184 2067,-165 2180,-165 2180,-184"/>
<text text-anchor="middle" x="2123.5" y="-172" font-family="Helvetica,sans-Serif" font-size="10.00">compat/os/netbsd.h</text>
</a>
</g>
</g>
<!-- Node5&#45;&gt;Node19 -->
<g id="edge17_Node000005_Node000019" class="edge">
<title>Node5&#45;&gt;Node19</title>
<g id="a_edge17_Node000005_Node000019"><a xlink:title=" ">
<path fill="none" stroke="#63b8ff" d="M1504.89,-225.66C1607.58,-219.79 1845.65,-205.13 2056.96,-183.99"/>
<polygon fill="#63b8ff" stroke="#63b8ff" points="2057.4,-187.47 2067,-182.98 2056.7,-180.5 2057.4,-187.47"/>
</a>
</g>
</g>
<!-- Node20 -->
<g id="Node000020" class="node">
<title>Node20</title>
<g id="a_Node000020"><a xlink:href="openbsd_8h.html" target="_top" xlink:title=" ">
<polygon fill="white" stroke="#666666" points="2319,-184 2198,-184 2198,-165 2319,-165 2319,-184"/>
<text text-anchor="middle" x="2258.5" y="-172" font-family="Helvetica,sans-Serif" font-size="10.00">compat/os/openbsd.h</text>
</a>
</g>
</g>
<!-- Node5&#45;&gt;Node20 -->
<g id="edge18_Node000005_Node000020" class="edge">
<title>Node5&#45;&gt;Node20</title>
<g id="a_edge18_Node000005_Node000020"><a xlink:title=" ">
<path fill="none" stroke="#63b8ff" d="M1504.82,-226.46C1623.15,-221.53 1924.5,-207.65 2187.68,-184.01"/>
<polygon fill="#63b8ff" stroke="#63b8ff" points="2188.17,-187.48 2197.82,-183.1 2187.54,-180.51 2188.17,-187.48"/>
</a>
</g>
</g>
<!-- Node21 -->
<g id="Node000021" class="node">
<title>Node21</title>
<g id="a_Node000021"><a xlink:href="os2_8h.html" target="_top" xlink:title=" ">
<polygon fill="white" stroke="#666666" points="2434,-184 2337,-184 2337,-165 2434,-165 2434,-184"/>
<text text-anchor="middle" x="2385.5" y="-172" font-family="Helvetica,sans-Serif" font-size="10.00">compat/os/os2.h</text>
</a>
</g>
</g>
<!-- Node5&#45;&gt;Node21 -->
<g id="edge19_Node000005_Node000021" class="edge">
<title>Node5&#45;&gt;Node21</title>
<g id="a_edge19_Node000005_Node000021"><a xlink:title=" ">
<path fill="none" stroke="#63b8ff" d="M1504.85,-227.58C1638.45,-224.83 2007.97,-214.9 2326.45,-183.99"/>
<polygon fill="#63b8ff" stroke="#63b8ff" points="2327.2,-187.44 2336.81,-182.98 2326.51,-180.47 2327.2,-187.44"/>
</a>
</g>
</g>
<!-- Node22 -->
<g id="Node000022" class="node">
<title>Node22</title>
<g id="a_Node000022"><a xlink:href="qnx_8h.html" target="_top" xlink:title=" ">
<polygon fill="white" stroke="#666666" points="2550.5,-184 2452.5,-184 2452.5,-165 2550.5,-165 2550.5,-184"/>
<text text-anchor="middle" x="2501.5" y="-172" font-family="Helvetica,sans-Serif" font-size="10.00">compat/os/qnx.h</text>
</a>
</g>
</g>
<!-- Node5&#45;&gt;Node22 -->
<g id="edge20_Node000005_Node000022" class="edge">
<title>Node5&#45;&gt;Node22</title>
<g id="a_edge20_Node000005_Node000022"><a xlink:title=" ">
<path fill="none" stroke="#63b8ff" d="M1504.58,-227.97C1649.64,-226.08 2076.63,-217.92 2442.3,-183.9"/>
<polygon fill="#63b8ff" stroke="#63b8ff" points="2442.66,-187.38 2452.29,-182.96 2442,-180.41 2442.66,-187.38"/>
</a>
</g>
</g>
<!-- Node23 -->
<g id="Node000023" class="node">
<title>Node23</title>
<g id="a_Node000023"><a xlink:href="solaris_8h.html" target="_top" xlink:title=" ">
<polygon fill="white" stroke="#666666" points="2680.5,-184 2568.5,-184 2568.5,-165 2680.5,-165 2680.5,-184"/>
<text text-anchor="middle" x="2624.5" y="-172" font-family="Helvetica,sans-Serif" font-size="10.00">compat/os/solaris.h</text>
</a>
</g>
</g>
<!-- Node5&#45;&gt;Node23 -->
<g id="edge21_Node000005_Node000023" class="edge">
<title>Node5&#45;&gt;Node23</title>
<g id="a_edge21_Node000005_Node000023"><a xlink:title=" ">
<path fill="none" stroke="#63b8ff" d="M1504.59,-228.07C1660.79,-226.43 2145.91,-218.74 2558.13,-184.03"/>
<polygon fill="#63b8ff" stroke="#63b8ff" points="2558.5,-187.51 2568.16,-183.18 2557.9,-180.54 2558.5,-187.51"/>
</a>
</g>
</g>
<!-- Node24 -->
<g id="Node000024" class="node">
<title>Node24</title>
<g id="a_Node000024"><a xlink:href="sunos_8h.html" target="_top" xlink:title=" ">
<polygon fill="white" stroke="#666666" points="2806.5,-184 2698.5,-184 2698.5,-165 2806.5,-165 2806.5,-184"/>
<text text-anchor="middle" x="2752.5" y="-172" font-family="Helvetica,sans-Serif" font-size="10.00">compat/os/sunos.h</text>
</a>
</g>
</g>
<!-- Node5&#45;&gt;Node24 -->
<g id="edge22_Node000005_Node000024" class="edge">
<title>Node5&#45;&gt;Node24</title>
<g id="a_edge22_Node000005_Node000024"><a xlink:title=" ">
<path fill="none" stroke="#63b8ff" d="M1504.53,-228.45C1672.38,-227.92 2222.71,-223.17 2687.96,-184.04"/>
<polygon fill="#63b8ff" stroke="#63b8ff" points="2688.57,-187.5 2698.24,-183.16 2687.98,-180.52 2688.57,-187.5"/>
</a>
</g>
</g>
<!-- Node25 -->
<g id="Node000025" class="node">
<title>Node25</title>
<g id="a_Node000025"><a xlink:href="assert_8h.html" target="_top" xlink:title=" ">
<polygon fill="white" stroke="#666666" points="95,-184 0,-184 0,-165 95,-165 95,-184"/>
<text text-anchor="middle" x="47.5" y="-172" font-family="Helvetica,sans-Serif" font-size="10.00">compat/assert.h</text>
</a>
</g>
</g>
<!-- Node5&#45;&gt;Node25 -->
<g id="edge23_Node000005_Node000025" class="edge">
<title>Node5&#45;&gt;Node25</title>
<g id="a_edge23_Node000005_Node000025"><a xlink:title=" ">
<path fill="none" stroke="#63b8ff" d="M1402.48,-220.87C1399.45,-220.54 1396.44,-220.25 1393.5,-220 825.77,-172.01 677.13,-233.63 105.19,-183.92"/>
<polygon fill="#63b8ff" stroke="#63b8ff" points="105.3,-180.41 95.03,-183.02 104.69,-187.38 105.3,-180.41"/>
</a>
</g>
</g>
<!-- Node26 -->
<g id="Node000026" class="node">
<title>Node26</title>
<g id="a_Node000026"><a xlink:href="compat__shared_8h.html" target="_top" xlink:title=" ">
<polygon fill="#fff0f0" stroke="red" points="253.5,-184 113.5,-184 113.5,-165 253.5,-165 253.5,-184"/>
<text text-anchor="middle" x="183.5" y="-172" font-family="Helvetica,sans-Serif" font-size="10.00">compat/compat_shared.h</text>
</a>
</g>
</g>
<!-- Node5&#45;&gt;Node26 -->
<g id="edge24_Node000005_Node000026" class="edge">
<title>Node5&#45;&gt;Node26</title>
<g id="a_edge24_Node000005_Node000026"><a xlink:title=" ">
<path fill="none" stroke="#63b8ff" d="M1402.48,-220.89C1399.45,-220.55 1396.43,-220.25 1393.5,-220 895.75,-176.95 765.91,-218.37 263.73,-184.02"/>
<polygon fill="#63b8ff" stroke="#63b8ff" points="263.9,-180.53 253.69,-183.33 263.42,-187.51 263.9,-180.53"/>
</a>
</g>
</g>
<!-- Node36 -->
<g id="Node000036" class="node">
<title>Node36</title>
<g id="a_Node000036"><a xlink:href="stdvarargs_8h.html" target="_top" xlink:title=" ">
<polygon fill="#fff0f0" stroke="red" points="389,-184 272,-184 272,-165 389,-165 389,-184"/>
<text text-anchor="middle" x="330.5" y="-172" font-family="Helvetica,sans-Serif" font-size="10.00">compat/stdvarargs.h</text>
</a>
</g>
</g>
<!-- Node5&#45;&gt;Node36 -->
<g id="edge25_Node000005_Node000036" class="edge">
<title>Node5&#45;&gt;Node36</title>
<g id="a_edge25_Node000005_Node000036"><a xlink:title=" ">
<path fill="none" stroke="#63b8ff" d="M1402.48,-220.9C1399.44,-220.57 1396.43,-220.26 1393.5,-220 955.61,-181.18 840.73,-219.32 399.45,-184.08"/>
<polygon fill="#63b8ff" stroke="#63b8ff" points="399.54,-180.58 389.29,-183.26 398.98,-187.56 399.54,-180.58"/>
</a>
</g>
</g>
<!-- Node38 -->
<g id="Node000038" class="node">
<title>Node38</title>
<g id="a_Node000038"><a xlink:href="stdio_8h.html" target="_top" xlink:title=" ">
<polygon fill="#fff0f0" stroke="red" points="496,-184 407,-184 407,-165 496,-165 496,-184"/>
<text text-anchor="middle" x="451.5" y="-172" font-family="Helvetica,sans-Serif" font-size="10.00">compat/stdio.h</text>
</a>
</g>
</g>
<!-- Node5&#45;&gt;Node38 -->
<g id="edge26_Node000005_Node000038" class="edge">
<title>Node5&#45;&gt;Node38</title>
<g id="a_edge26_Node000005_Node000038"><a xlink:title=" ">
<path fill="none" stroke="#63b8ff" d="M1402.48,-220.92C1399.44,-220.58 1396.43,-220.27 1393.5,-220 1003.05,-184.53 899.73,-222.71 506.5,-184.08"/>
<polygon fill="#63b8ff" stroke="#63b8ff" points="506.57,-180.57 496.27,-183.06 505.88,-187.53 506.57,-180.57"/>
</a>
</g>
</g>
<!-- Node45 -->
<g id="Node000045" class="node">
<title>Node45</title>
<g id="a_Node000045"><a xlink:href="http_2forward_8h.html" target="_top" xlink:title=" ">
<polygon fill="#fff0f0" stroke="red" points="3096.5,-184 3010.5,-184 3010.5,-165 3096.5,-165 3096.5,-184"/>
<text text-anchor="middle" x="3053.5" y="-172" font-family="Helvetica,sans-Serif" font-size="10.00">http/forward.h</text>
</a>
</g>
</g>
<!-- Node44&#45;&gt;Node45 -->
<g id="edge28_Node000044_Node000045" class="edge">
<title>Node44&#45;&gt;Node45</title>
<g id="a_edge28_Node000044_Node000045"><a xlink:title=" ">
<path fill="none" stroke="#63b8ff" d="M3113.09,-219.98C3102.39,-212 3086.16,-199.88 3073.34,-190.31"/>
<polygon fill="#63b8ff" stroke="#63b8ff" points="3075.22,-187.35 3065.11,-184.17 3071.03,-192.96 3075.22,-187.35"/>
</a>
</g>
</g>
<!-- Node55 -->
<g id="Node000055" class="node">
<title>Node55</title>
<g id="a_Node000055"><a xlink:href="StatusCode_8h.html" target="_top" xlink:title=" ">
<polygon fill="white" stroke="#666666" points="3356.5,-184 3252.5,-184 3252.5,-165 3356.5,-165 3356.5,-184"/>
<text text-anchor="middle" x="3304.5" y="-172" font-family="Helvetica,sans-Serif" font-size="10.00">http/StatusCode.h</text>
</a>
</g>
</g>
<!-- Node44&#45;&gt;Node55 -->
<g id="edge29_Node000044_Node000055" class="edge">
<title>Node44&#45;&gt;Node55</title>
<g id="a_edge29_Node000044_Node000055"><a xlink:title=" ">
<path fill="none" stroke="#63b8ff" d="M3153.42,-219.98C3183.77,-211.05 3231.67,-196.94 3265.38,-187.02"/>
<polygon fill="#63b8ff" stroke="#63b8ff" points="3266.75,-190.26 3275.35,-184.08 3264.77,-183.55 3266.75,-190.26"/>
</a>
</g>
</g>
<!-- Node52 -->
<g id="Node000052" class="node">
<title>Node52</title>
<g id="a_Node000052"><a xlink:href="sbuf_2forward_8h.html" target="_top" xlink:title=" ">
<polygon fill="#fff0f0" stroke="red" points="3098,-129 3011,-129 3011,-110 3098,-110 3098,-129"/>
<text text-anchor="middle" x="3054.5" y="-117" font-family="Helvetica,sans-Serif" font-size="10.00">sbuf/forward.h</text>
</a>
</g>
</g>
<!-- Node44&#45;&gt;Node52 -->
<g id="edge30_Node000044_Node000052" class="edge">
<title>Node44&#45;&gt;Node52</title>
<g id="a_edge30_Node000044_Node000052"><a xlink:title=" ">
<path fill="none" stroke="#63b8ff" d="M3123.44,-219.64C3121.55,-206.73 3116.71,-182.42 3105.5,-165 3097.95,-153.27 3086.43,-142.84 3076.25,-135.04"/>
<polygon fill="#63b8ff" stroke="#63b8ff" points="3078.27,-132.18 3068.12,-129.13 3074.15,-137.84 3078.27,-132.18"/>
</a>
</g>
</g>
<!-- Node57 -->
<g id="Node000057" class="node">
<title>Node57</title>
<g id="a_Node000057"><a xlink:href="defines_8h.html" target="_top" xlink:title=" ">
<polygon fill="white" stroke="#666666" points="3254,-74 3193,-74 3193,-55 3254,-55 3254,-74"/>
<text text-anchor="middle" x="3223.5" y="-62" font-family="Helvetica,sans-Serif" font-size="10.00">defines.h</text>
</a>
</g>
</g>
<!-- Node56&#45;&gt;Node57 -->
<g id="edge32_Node000056_Node000057" class="edge">
<title>Node56&#45;&gt;Node57</title>
<g id="a_edge32_Node000056_Node000057"><a xlink:title=" ">
<path fill="none" stroke="#63b8ff" d="M2957.7,-219.84C2964.17,-195.1 2983.76,-124.91 3001.5,-110 3015.26,-98.43 3122.7,-80.68 3182.92,-71.48"/>
<polygon fill="#63b8ff" stroke="#63b8ff" points="3183.5,-74.93 3192.87,-69.97 3182.46,-68.01 3183.5,-74.93"/>
</a>
</g>
</g>
<!-- Node58 -->
<g id="Node000058" class="node">
<title>Node58</title>
<g id="a_Node000058"><a xlink:href="dlink_8h.html" target="_top" xlink:title=" ">
<polygon fill="white" stroke="#666666" points="2954.5,-184 2904.5,-184 2904.5,-165 2954.5,-165 2954.5,-184"/>
<text text-anchor="middle" x="2929.5" y="-172" font-family="Helvetica,sans-Serif" font-size="10.00">dlink.h</text>
</a>
</g>
</g>
<!-- Node56&#45;&gt;Node58 -->
<g id="edge33_Node000056_Node000058" class="edge">
<title>Node56&#45;&gt;Node58</title>
<g id="a_edge33_Node000056_Node000058"><a xlink:title=" ">
<path fill="none" stroke="#63b8ff" d="M2951.21,-219.75C2947.69,-212.57 2942.59,-202.18 2938.22,-193.27"/>
<polygon fill="#63b8ff" stroke="#63b8ff" points="2941.26,-191.53 2933.71,-184.09 2934.98,-194.61 2941.26,-191.53"/>
</a>
</g>
</g>
<!-- Node59 -->
<g id="Node000059" class="node">
<title>Node59</title>
<g id="a_Node000059"><a xlink:href="mem_2forward_8h.html" target="_top" xlink:title=" ">
<polygon fill="#fff0f0" stroke="red" points="2954.5,-129 2862.5,-129 2862.5,-110 2954.5,-110 2954.5,-129"/>
<text text-anchor="middle" x="2908.5" y="-117" font-family="Helvetica,sans-Serif" font-size="10.00">mem/forward.h</text>
</a>
</g>
</g>
<!-- Node56&#45;&gt;Node59 -->
<g id="edge36_Node000056_Node000059" class="edge">
<title>Node56&#45;&gt;Node59</title>
<g id="a_edge36_Node000056_Node000059"><a xlink:title=" ">
<path fill="none" stroke="#63b8ff" d="M2935.92,-219.98C2921.83,-212.68 2903.9,-200.68 2895.5,-184 2888.31,-169.72 2893.1,-151.74 2898.79,-138.56"/>
<polygon fill="#63b8ff" stroke="#63b8ff" points="2902.13,-139.71 2903.34,-129.18 2895.83,-136.66 2902.13,-139.71"/>
</a>
</g>
</g>
<!-- Node61 -->
<g id="Node000061" class="node">
<title>Node61</title>
<g id="a_Node000061"><a xlink:title=" ">
<polygon fill="#e0e0e0" stroke="#999999" points="3619.5,-19 3571.5,-19 3571.5,0 3619.5,0 3619.5,-19"/>
<text text-anchor="middle" x="3595.5" y="-7" font-family="Helvetica,sans-Serif" font-size="10.00">iosfwd</text>
</a>
</g>
</g>
<!-- Node56&#45;&gt;Node61 -->
<g id="edge41_Node000056_Node000061" class="edge">
<title>Node56&#45;&gt;Node61</title>
<g id="a_edge41_Node000056_Node000061"><a xlink:title=" ">
<path fill="none" stroke="#63b8ff" d="M2937.87,-219.93C2900.59,-200.7 2819.85,-152.43 2853.5,-110 2898.21,-53.61 3420.94,-20.32 3561.1,-12.36"/>
<polygon fill="#63b8ff" stroke="#63b8ff" points="3561.47,-15.85 3571.26,-11.79 3561.08,-8.86 3561.47,-15.85"/>
</a>
</g>
</g>
<!-- Node62 -->
<g id="Node000062" class="node">
<title>Node62</title>
<g id="a_Node000062"><a xlink:href="SquidString_8h.html" target="_top" xlink:title=" ">
<polygon fill="#fff0f0" stroke="red" points="3234,-184 3153,-184 3153,-165 3234,-165 3234,-184"/>
<text text-anchor="middle" x="3193.5" y="-172" font-family="Helvetica,sans-Serif" font-size="10.00">SquidString.h</text>
</a>
</g>
</g>
<!-- Node56&#45;&gt;Node62 -->
<g id="edge37_Node000056_Node000062" class="edge">
<title>Node56&#45;&gt;Node62</title>
<g id="a_edge37_Node000056_Node000062"><a xlink:title=" ">
<path fill="none" stroke="#63b8ff" d="M2993.74,-219.98C3034.91,-210.82 3100.49,-196.21 3145.2,-186.26"/>
<polygon fill="#63b8ff" stroke="#63b8ff" points="3145.96,-189.67 3154.96,-184.08 3144.44,-182.84 3145.96,-189.67"/>
</a>
</g>
</g>
<!-- Node58&#45;&gt;Node59 -->
<g id="edge34_Node000058_Node000059" class="edge">
<title>Node58&#45;&gt;Node59</title>
<g id="a_edge34_Node000058_Node000059"><a xlink:title=" ">
<path fill="none" stroke="#63b8ff" d="M2926.03,-164.75C2923.22,-157.65 2919.16,-147.4 2915.65,-138.56"/>
<polygon fill="#63b8ff" stroke="#63b8ff" points="2918.84,-137.1 2911.9,-129.09 2912.33,-139.68 2918.84,-137.1"/>
</a>
</g>
</g>
<!-- Node59&#45;&gt;Node61 -->
<g id="edge35_Node000059_Node000061" class="edge">
<title>Node59&#45;&gt;Node61</title>
<g id="a_edge35_Node000059_Node000061"><a xlink:title=" ">
<path fill="none" stroke="#63b8ff" d="M2940.01,-109.93C2990.87,-96.39 3094.36,-70.05 3183.5,-55 3322.5,-31.53 3490.08,-17.92 3561.06,-12.82"/>
<polygon fill="#63b8ff" stroke="#63b8ff" points="3561.49,-16.3 3571.21,-12.11 3560.99,-9.32 3561.49,-16.3"/>
</a>
</g>
</g>
<!-- Node62&#45;&gt;Node52 -->
<g id="edge40_Node000062_Node000052" class="edge">
<title>Node62&#45;&gt;Node52</title>
<g id="a_edge40_Node000062_Node000052"><a xlink:title=" ">
<path fill="none" stroke="#63b8ff" d="M3171.17,-164.98C3148.3,-156.27 3112.54,-142.63 3086.64,-132.75"/>
<polygon fill="#63b8ff" stroke="#63b8ff" points="3087.83,-129.46 3077.24,-129.17 3085.34,-136 3087.83,-129.46"/>
</a>
</g>
</g>
<!-- Node63 -->
<g id="Node000063" class="node">
<title>Node63</title>
<g id="a_Node000063"><a xlink:href="TextException_8h.html" target="_top" xlink:title=" ">
<polygon fill="#fff0f0" stroke="red" points="3236.5,-129 3116.5,-129 3116.5,-110 3236.5,-110 3236.5,-129"/>
<text text-anchor="middle" x="3176.5" y="-117" font-family="Helvetica,sans-Serif" font-size="10.00">base/TextException.h</text>
</a>
</g>
</g>
<!-- Node62&#45;&gt;Node63 -->
<g id="edge38_Node000062_Node000063" class="edge">
<title>Node62&#45;&gt;Node63</title>
<g id="a_edge38_Node000062_Node000063"><a xlink:title=" ">
<path fill="none" stroke="#63b8ff" d="M3190.69,-164.75C3188.44,-157.72 3185.2,-147.62 3182.38,-138.84"/>
<polygon fill="#63b8ff" stroke="#63b8ff" points="3185.64,-137.54 3179.25,-129.09 3178.98,-139.68 3185.64,-137.54"/>
</a>
</g>
</g>
<!-- Node67 -->
<g id="Node000067" class="node">
<title>Node67</title>
<g id="a_Node000067"><a xlink:href="debug_2Stream_8h.html" target="_top" xlink:title=" ">
<polygon fill="#fff0f0" stroke="red" points="3348.5,-129 3254.5,-129 3254.5,-110 3348.5,-110 3348.5,-129"/>
<text text-anchor="middle" x="3301.5" y="-117" font-family="Helvetica,sans-Serif" font-size="10.00">debug/Stream.h</text>
</a>
</g>
</g>
<!-- Node62&#45;&gt;Node67 -->
<g id="edge39_Node000062_Node000067" class="edge">
<title>Node62&#45;&gt;Node67</title>
<g id="a_edge39_Node000062_Node000067"><a xlink:title=" ">
<path fill="none" stroke="#63b8ff" d="M3210.85,-164.98C3228.07,-156.54 3254.7,-143.47 3274.65,-133.68"/>
<polygon fill="#63b8ff" stroke="#63b8ff" points="3276.4,-136.72 3283.83,-129.17 3273.31,-130.43 3276.4,-136.72"/>
</a>
</g>
</g>
<!-- Node72 -->
<g id="Node000072" class="node">
<title>Node72</title>
<g id="a_Node000072"><a xlink:href="StatusLine_8h.html" target="_top" xlink:title=" ">
<polygon fill="#fff0f0" stroke="red" points="3319,-239 3220,-239 3220,-220 3319,-220 3319,-239"/>
<text text-anchor="middle" x="3269.5" y="-227" font-family="Helvetica,sans-Serif" font-size="10.00">http/StatusLine.h</text>
</a>
</g>
</g>
<!-- Node71&#45;&gt;Node72 -->
<g id="edge43_Node000071_Node000072" class="edge">
<title>Node71&#45;&gt;Node72</title>
<g id="a_edge43_Node000071_Node000072"><a xlink:title=" ">
<path fill="none" stroke="#63b8ff" d="M3389.52,-274.98C3366,-266.27 3329.21,-252.63 3302.56,-242.75"/>
<polygon fill="#63b8ff" stroke="#63b8ff" points="3303.49,-239.36 3292.89,-239.17 3301.05,-245.93 3303.49,-239.36"/>
</a>
</g>
</g>
<!-- Node76 -->
<g id="Node000076" class="node">
<title>Node76</title>
<g id="a_Node000076"><a xlink:href="HttpBody_8h.html" target="_top" xlink:title=" ">
<polygon fill="white" stroke="#666666" points="3447.5,-239 3377.5,-239 3377.5,-220 3447.5,-220 3447.5,-239"/>
<text text-anchor="middle" x="3412.5" y="-227" font-family="Helvetica,sans-Serif" font-size="10.00">HttpBody.h</text>
</a>
</g>
</g>
<!-- Node71&#45;&gt;Node76 -->
<g id="edge46_Node000071_Node000076" class="edge">
<title>Node71&#45;&gt;Node76</title>
<g id="a_edge46_Node000071_Node000076"><a xlink:title=" ">
<path fill="none" stroke="#63b8ff" d="M3412.5,-274.75C3412.5,-267.8 3412.5,-257.85 3412.5,-249.13"/>
<polygon fill="#63b8ff" stroke="#63b8ff" points="3416,-249.09 3412.5,-239.09 3409,-249.09 3416,-249.09"/>
</a>
</g>
</g>
<!-- Node91 -->
<g id="Node000091" class="node">
<title>Node91</title>
<g id="a_Node000091"><a xlink:href="HttpRequest_8h.html" target="_top" xlink:title=" ">
<polygon fill="#fff0f0" stroke="red" points="3551.5,-239 3465.5,-239 3465.5,-220 3551.5,-220 3551.5,-239"/>
<text text-anchor="middle" x="3508.5" y="-227" font-family="Helvetica,sans-Serif" font-size="10.00">HttpRequest.h</text>
</a>
</g>
</g>
<!-- Node71&#45;&gt;Node91 -->
<g id="edge62_Node000071_Node000091" class="edge">
<title>Node71&#45;&gt;Node91</title>
<g id="a_edge62_Node000071_Node000091"><a xlink:title=" ">
<path fill="none" stroke="#63b8ff" d="M3427.92,-274.98C3442.95,-266.69 3466.04,-253.94 3483.66,-244.22"/>
<polygon fill="#63b8ff" stroke="#63b8ff" points="3485.73,-247.07 3492.8,-239.17 3482.35,-240.94 3485.73,-247.07"/>
</a>
</g>
</g>
<!-- Node72&#45;&gt;Node55 -->
<g id="edge44_Node000072_Node000055" class="edge">
<title>Node72&#45;&gt;Node55</title>
<g id="a_edge44_Node000072_Node000055"><a xlink:title=" ">
<path fill="none" stroke="#63b8ff" d="M3275.28,-219.75C3280.12,-212.42 3287.18,-201.73 3293.14,-192.7"/>
<polygon fill="#63b8ff" stroke="#63b8ff" points="3296.24,-194.36 3298.83,-184.09 3290.4,-190.5 3296.24,-194.36"/>
</a>
</g>
</g>
<!-- Node72&#45;&gt;Node62 -->
<g id="edge45_Node000072_Node000062" class="edge">
<title>Node72&#45;&gt;Node62</title>
<g id="a_edge45_Node000072_Node000062"><a xlink:title=" ">
<path fill="none" stroke="#63b8ff" d="M3257.29,-219.98C3245.72,-211.92 3228.12,-199.65 3214.34,-190.03"/>
<polygon fill="#63b8ff" stroke="#63b8ff" points="3216.14,-187.02 3205.93,-184.17 3212.13,-192.76 3216.14,-187.02"/>
</a>
</g>
</g>
<!-- Node76&#45;&gt;Node77 -->
<g id="edge47_Node000076_Node000077" class="edge">
<title>Node76&#45;&gt;Node77</title>
<g id="a_edge47_Node000076_Node000077"><a xlink:title=" ">
<path fill="none" stroke="#63b8ff" d="M3416.96,-219.75C3420.62,-212.57 3425.91,-202.18 3430.45,-193.27"/>
<polygon fill="#63b8ff" stroke="#63b8ff" points="3433.7,-194.59 3435.12,-184.09 3427.47,-191.41 3433.7,-194.59"/>
</a>
</g>
</g>
<!-- Node77&#45;&gt;Node52 -->
<g id="edge54_Node000077_Node000052" class="edge">
<title>Node77&#45;&gt;Node52</title>
<g id="a_edge54_Node000077_Node000052"><a xlink:title=" ">
<path fill="none" stroke="#63b8ff" d="M3403.59,-169C3344.37,-161.5 3222.26,-145.76 3108.12,-129.06"/>
<polygon fill="#63b8ff" stroke="#63b8ff" points="3108.56,-125.58 3098.16,-127.59 3107.54,-132.51 3108.56,-125.58"/>
</a>
</g>
</g>
<!-- Node77&#45;&gt;Node61 -->
<g id="edge60_Node000077_Node000061" class="edge">
<title>Node77&#45;&gt;Node61</title>
<g id="a_edge60_Node000077_Node000061"><a xlink:title=" ">
<path fill="none" stroke="#63b8ff" d="M3475.18,-171.9C3506.68,-168.49 3551.38,-158.35 3576.5,-129 3600.47,-101 3600.38,-55.11 3598.04,-29.43"/>
<polygon fill="#63b8ff" stroke="#63b8ff" points="3601.49,-28.73 3596.89,-19.18 3594.53,-29.51 3601.49,-28.73"/>
</a>
</g>
</g>
<!-- Node77&#45;&gt;Node63 -->
<g id="edge50_Node000077_Node000063" class="edge">
<title>Node77&#45;&gt;Node63</title>
<g id="a_edge50_Node000077_Node000063"><a xlink:title=" ">
<path fill="none" stroke="#63b8ff" d="M3403.76,-166.3C3358.59,-157.2 3280.52,-141.46 3228.69,-131.02"/>
<polygon fill="#63b8ff" stroke="#63b8ff" points="3229.18,-127.55 3218.69,-129 3227.8,-134.41 3229.18,-127.55"/>
</a>
</g>
</g>
<!-- Node77&#45;&gt;Node67 -->
<g id="edge51_Node000077_Node000067" class="edge">
<title>Node77&#45;&gt;Node67</title>
<g id="a_edge51_Node000077_Node000067"><a xlink:title=" ">
<path fill="none" stroke="#63b8ff" d="M3417.33,-164.98C3394.73,-156.3 3359.44,-142.75 3333.75,-132.88"/>
<polygon fill="#63b8ff" stroke="#63b8ff" points="3334.67,-129.49 3324.08,-129.17 3332.16,-136.02 3334.67,-129.49"/>
</a>
</g>
</g>
<!-- Node78 -->
<g id="Node000078" class="node">
<title>Node78</title>
<g id="a_Node000078"><a xlink:href="InstanceId_8h.html" target="_top" xlink:title=" ">
<polygon fill="white" stroke="#666666" points="3725.5,-74 3623.5,-74 3623.5,-55 3725.5,-55 3725.5,-74"/>
<text text-anchor="middle" x="3674.5" y="-62" font-family="Helvetica,sans-Serif" font-size="10.00">base/InstanceId.h</text>
</a>
</g>
</g>
<!-- Node77&#45;&gt;Node78 -->
<g id="edge48_Node000077_Node000078" class="edge">
<title>Node77&#45;&gt;Node78</title>
<g id="a_edge48_Node000077_Node000078"><a xlink:title=" ">
<path fill="none" stroke="#63b8ff" d="M3475.03,-169.61C3510.88,-164.48 3566.88,-153.11 3609.5,-129 3630.42,-117.16 3649.47,-96.92 3661.46,-82.47"/>
<polygon fill="#63b8ff" stroke="#63b8ff" points="3664.44,-84.34 3667.96,-74.35 3658.98,-79.97 3664.44,-84.34"/>
</a>
</g>
</g>
<!-- Node79 -->
<g id="Node000079" class="node">
<title>Node79</title>
<g id="a_Node000079"><a xlink:href="globals_8h.html" target="_top" xlink:title=" ">
<polygon fill="#fff0f0" stroke="red" points="3496,-129 3435,-129 3435,-110 3496,-110 3496,-129"/>
<text text-anchor="middle" x="3465.5" y="-117" font-family="Helvetica,sans-Serif" font-size="10.00">globals.h</text>
</a>
</g>
</g>
<!-- Node77&#45;&gt;Node79 -->
<g id="edge52_Node000077_Node000079" class="edge">
<title>Node77&#45;&gt;Node79</title>
<g id="a_edge52_Node000077_Node000079"><a xlink:title=" ">
<path fill="none" stroke="#63b8ff" d="M3443.79,-164.75C3447.31,-157.57 3452.41,-147.18 3456.78,-138.27"/>
<polygon fill="#63b8ff" stroke="#63b8ff" points="3460.02,-139.61 3461.29,-129.09 3453.74,-136.53 3460.02,-139.61"/>
</a>
</g>
</g>
<!-- Node86 -->
<g id="Node000086" class="node">
<title>Node86</title>
<g id="a_Node000086"><a xlink:href="MemBlob_8h.html" target="_top" xlink:title=" ">
<polygon fill="#fff0f0" stroke="red" points="3757.5,-129 3661.5,-129 3661.5,-110 3757.5,-110 3757.5,-129"/>
<text text-anchor="middle" x="3709.5" y="-117" font-family="Helvetica,sans-Serif" font-size="10.00">sbuf/MemBlob.h</text>
</a>
</g>
</g>
<!-- Node77&#45;&gt;Node86 -->
<g id="edge55_Node000077_Node000086" class="edge">
<title>Node77&#45;&gt;Node86</title>
<g id="a_edge55_Node000077_Node000086"><a xlink:title=" ">
<path fill="none" stroke="#63b8ff" d="M3475.08,-166.52C3521.22,-157.46 3602.13,-141.58 3655.78,-131.05"/>
<polygon fill="#63b8ff" stroke="#63b8ff" points="3656.65,-134.44 3665.79,-129.08 3655.31,-127.57 3656.65,-134.44"/>
</a>
</g>
</g>
<!-- Node88 -->
<g id="Node000088" class="node">
<title>Node88</title>
<g id="a_Node000088"><a xlink:href="sbuf_2Stats_8h.html" target="_top" xlink:title=" ">
<polygon fill="white" stroke="#666666" points="3819.5,-74 3745.5,-74 3745.5,-55 3819.5,-55 3819.5,-74"/>
<text text-anchor="middle" x="3782.5" y="-62" font-family="Helvetica,sans-Serif" font-size="10.00">sbuf/Stats.h</text>
</a>
</g>
</g>
<!-- Node77&#45;&gt;Node88 -->
<g id="edge57_Node000077_Node000088" class="edge">
<title>Node77&#45;&gt;Node88</title>
<g id="a_edge57_Node000077_Node000088"><a xlink:title=" ">
<path fill="none" stroke="#63b8ff" d="M3475.16,-173.51C3550.86,-172.78 3724.11,-166.9 3766.5,-129 3778.8,-118 3782.3,-99.05 3783.02,-84.71"/>
<polygon fill="#63b8ff" stroke="#63b8ff" points="3786.52,-84.47 3783.12,-74.43 3779.52,-84.4 3786.52,-84.47"/>
</a>
</g>
</g>
<!-- Node89 -->
<g id="Node000089" class="node">
<title>Node89</title>
<g id="a_Node000089"><a xlink:title=" ">
<polygon fill="#e0e0e0" stroke="#999999" points="3416.5,-129 3366.5,-129 3366.5,-110 3416.5,-110 3416.5,-129"/>
<text text-anchor="middle" x="3391.5" y="-117" font-family="Helvetica,sans-Serif" font-size="10.00">climits</text>
</a>
</g>
</g>
<!-- Node77&#45;&gt;Node89 -->
<g id="edge59_Node000077_Node000089" class="edge">
<title>Node77&#45;&gt;Node89</title>
<g id="a_edge59_Node000077_Node000089"><a xlink:title=" ">
<path fill="none" stroke="#63b8ff" d="M3431.57,-164.75C3424.65,-157.11 3414.43,-145.82 3406.05,-136.56"/>
<polygon fill="#63b8ff" stroke="#63b8ff" points="3408.59,-134.15 3399.28,-129.09 3403.4,-138.85 3408.59,-134.15"/>
</a>
</g>
</g>
<!-- Node90 -->
<g id="Node000090" class="node">
<title>Node90</title>
<g id="a_Node000090"><a xlink:title=" ">
<polygon fill="#e0e0e0" stroke="#999999" points="3567,-129 3514,-129 3514,-110 3567,-110 3567,-129"/>
<text text-anchor="middle" x="3540.5" y="-117" font-family="Helvetica,sans-Serif" font-size="10.00">iterator</text>
</a>
</g>
</g>
<!-- Node77&#45;&gt;Node90 -->
<g id="edge61_Node000077_Node000090" class="edge">
<title>Node77&#45;&gt;Node90</title>
<g id="a_edge61_Node000077_Node000090"><a xlink:title=" ">
<path fill="none" stroke="#63b8ff" d="M3455.73,-164.98C3471.68,-156.61 3496.28,-143.7 3514.88,-133.95"/>
<polygon fill="#63b8ff" stroke="#63b8ff" points="3516.75,-136.92 3523.98,-129.17 3513.5,-130.72 3516.75,-136.92"/>
</a>
</g>
</g>
<!-- Node78&#45;&gt;Node61 -->
<g id="edge49_Node000078_Node000061" class="edge">
<title>Node78&#45;&gt;Node61</title>
<g id="a_edge49_Node000078_Node000061"><a xlink:title=" ">
<path fill="none" stroke="#63b8ff" d="M3661.81,-54.98C3649.67,-46.84 3631.14,-34.41 3616.75,-24.76"/>
<polygon fill="#63b8ff" stroke="#63b8ff" points="3618.68,-21.84 3608.42,-19.17 3614.78,-27.65 3618.68,-21.84"/>
</a>
</g>
</g>
<!-- Node79&#45;&gt;Node57 -->
<g id="edge53_Node000079_Node000057" class="edge">
<title>Node79&#45;&gt;Node57</title>
<g id="a_edge53_Node000079_Node000057"><a xlink:title=" ">
<path fill="none" stroke="#63b8ff" d="M3434.85,-111.79C3391.51,-102.3 3312.24,-84.94 3264.07,-74.38"/>
<polygon fill="#63b8ff" stroke="#63b8ff" points="3264.8,-70.96 3254.28,-72.24 3263.3,-77.8 3264.8,-70.96"/>
</a>
</g>
</g>
<!-- Node86&#45;&gt;Node78 -->
<g id="edge56_Node000086_Node000078" class="edge">
<title>Node86&#45;&gt;Node78</title>
<g id="a_edge56_Node000086_Node000078"><a xlink:title=" ">
<path fill="none" stroke="#63b8ff" d="M3703.72,-109.75C3698.88,-102.42 3691.82,-91.73 3685.86,-82.7"/>
<polygon fill="#63b8ff" stroke="#63b8ff" points="3688.6,-80.5 3680.17,-74.09 3682.76,-84.36 3688.6,-80.5"/>
</a>
</g>
</g>
<!-- Node88&#45;&gt;Node61 -->
<g id="edge58_Node000088_Node000061" class="edge">
<title>Node88&#45;&gt;Node61</title>
<g id="a_edge58_Node000088_Node000061"><a xlink:title=" ">
<path fill="none" stroke="#63b8ff" d="M3752.46,-54.98C3718.81,-45.45 3664.42,-30.03 3629.32,-20.09"/>
<polygon fill="#63b8ff" stroke="#63b8ff" points="3630.1,-16.67 3619.53,-17.31 3628.19,-23.4 3630.1,-16.67"/>
</a>
</g>
</g>
</g>
</svg>
