<?xml version="1.0" encoding="UTF-8" standalone="no"?>
<!DOCTYPE svg PUBLIC "-//W3C//DTD SVG 1.1//EN"
 "http://www.w3.org/Graphics/SVG/1.1/DTD/svg11.dtd">
<!-- Generated by graphviz version 2.43.0 (0)
 -->
<!-- Title: squid/src/acl/HasComponent.cc Pages: 1 -->
<svg width="3930pt" height="357pt"
 viewBox="0.00 0.00 3929.50 357.00" xmlns="http://www.w3.org/2000/svg" xmlns:xlink="http://www.w3.org/1999/xlink">
<g id="graph0" class="graph" transform="scale(1 1) rotate(0) translate(4 353)">
<title>squid/src/acl/HasComponent.cc</title>
<!-- Node1 -->
<g id="Node000001" class="node">
<title>Node1</title>
<g id="a_Node000001"><a xlink:title=" ">
<polygon fill="#999999" stroke="#666666" points="3381.5,-349 3212.5,-349 3212.5,-330 3381.5,-330 3381.5,-349"/>
<text text-anchor="middle" x="3297" y="-337" font-family="Helvetica,sans-Serif" font-size="10.00">squid/src/acl/HasComponent.cc</text>
</a>
</g>
</g>
<!-- Node2 -->
<g id="Node000002" class="node">
<title>Node2</title>
<g id="a_Node000002"><a xlink:href="squid_8h.html" target="_top" xlink:title=" ">
<polygon fill="white" stroke="#666666" points="1669,-294 1617,-294 1617,-275 1669,-275 1669,-294"/>
<text text-anchor="middle" x="1643" y="-282" font-family="Helvetica,sans-Serif" font-size="10.00">squid.h</text>
</a>
</g>
</g>
<!-- Node1&#45;&gt;Node2 -->
<g id="edge1_Node000001_Node000002" class="edge">
<title>Node1&#45;&gt;Node2</title>
<g id="a_edge1_Node000001_Node000002"><a xlink:title=" ">
<path fill="none" stroke="#63b8ff" d="M3212.42,-335.79C2909.54,-326.08 1886.12,-293.29 1679.53,-286.67"/>
<polygon fill="#63b8ff" stroke="#63b8ff" points="1679.34,-283.16 1669.23,-286.34 1679.12,-290.16 1679.34,-283.16"/>
</a>
</g>
</g>
<!-- Node44 -->
<g id="Node000044" class="node">
<title>Node44</title>
<g id="a_Node000044"><a xlink:href="HasComponent_8h.html" target="_top" xlink:title=" ">
<polygon fill="white" stroke="#666666" points="3356,-294 3238,-294 3238,-275 3356,-275 3356,-294"/>
<text text-anchor="middle" x="3297" y="-282" font-family="Helvetica,sans-Serif" font-size="10.00">acl/HasComponent.h</text>
</a>
</g>
</g>
<!-- Node1&#45;&gt;Node44 -->
<g id="edge34_Node000001_Node000044" class="edge">
<title>Node1&#45;&gt;Node44</title>
<g id="a_edge34_Node000001_Node000044"><a xlink:title=" ">
<path fill="none" stroke="#63b8ff" d="M3297,-329.75C3297,-322.8 3297,-312.85 3297,-304.13"/>
<polygon fill="#63b8ff" stroke="#63b8ff" points="3300.5,-304.09 3297,-294.09 3293.5,-304.09 3300.5,-304.09"/>
</a>
</g>
</g>
<!-- Node89 -->
<g id="Node000089" class="node">
<title>Node89</title>
<g id="a_Node000089"><a xlink:href="HasComponentData_8h.html" target="_top" xlink:title=" ">
<polygon fill="white" stroke="#666666" points="3515.5,-294 3374.5,-294 3374.5,-275 3515.5,-275 3515.5,-294"/>
<text text-anchor="middle" x="3445" y="-282" font-family="Helvetica,sans-Serif" font-size="10.00">acl/HasComponentData.h</text>
</a>
</g>
</g>
<!-- Node1&#45;&gt;Node89 -->
<g id="edge44_Node000001_Node000089" class="edge">
<title>Node1&#45;&gt;Node89</title>
<g id="a_edge44_Node000001_Node000089"><a xlink:title=" ">
<path fill="none" stroke="#63b8ff" d="M3320.78,-329.98C3345.23,-321.23 3383.53,-307.51 3411.15,-297.62"/>
<polygon fill="#63b8ff" stroke="#63b8ff" points="3412.55,-300.84 3420.79,-294.17 3410.19,-294.25 3412.55,-300.84"/>
</a>
</g>
</g>
<!-- Node3 -->
<g id="Node000003" class="node">
<title>Node3</title>
<g id="a_Node000003"><a xlink:href="autoconf_8h.html" target="_top" xlink:title=" ">
<polygon fill="white" stroke="#666666" points="1544,-239 1476,-239 1476,-220 1544,-220 1544,-239"/>
<text text-anchor="middle" x="1510" y="-227" font-family="Helvetica,sans-Serif" font-size="10.00">autoconf.h</text>
</a>
</g>
</g>
<!-- Node2&#45;&gt;Node3 -->
<g id="edge2_Node000002_Node000003" class="edge">
<title>Node2&#45;&gt;Node3</title>
<g id="a_edge2_Node000002_Node000003"><a xlink:title=" ">
<path fill="none" stroke="#63b8ff" d="M1621.63,-274.98C1599.85,-266.3 1565.84,-252.75 1541.08,-242.88"/>
<polygon fill="#63b8ff" stroke="#63b8ff" points="1542.34,-239.62 1531.76,-239.17 1539.75,-246.12 1542.34,-239.62"/>
</a>
</g>
</g>
<!-- Node4 -->
<g id="Node000004" class="node">
<title>Node4</title>
<g id="a_Node000004"><a xlink:href="version_8h.html" target="_top" xlink:title=" ">
<polygon fill="white" stroke="#666666" points="1624,-239 1562,-239 1562,-220 1624,-220 1624,-239"/>
<text text-anchor="middle" x="1593" y="-227" font-family="Helvetica,sans-Serif" font-size="10.00">version.h</text>
</a>
</g>
</g>
<!-- Node2&#45;&gt;Node4 -->
<g id="edge3_Node000002_Node000004" class="edge">
<title>Node2&#45;&gt;Node4</title>
<g id="a_edge3_Node000002_Node000004"><a xlink:title=" ">
<path fill="none" stroke="#63b8ff" d="M1634.74,-274.75C1627.54,-267.11 1616.89,-255.82 1608.15,-246.56"/>
<polygon fill="#63b8ff" stroke="#63b8ff" points="1610.51,-243.96 1601.1,-239.09 1605.42,-248.76 1610.51,-243.96"/>
</a>
</g>
</g>
<!-- Node5 -->
<g id="Node000005" class="node">
<title>Node5</title>
<g id="a_Node000005"><a xlink:href="compat_8h.html" target="_top" xlink:title=" ">
<polygon fill="white" stroke="#666666" points="1744,-239 1642,-239 1642,-220 1744,-220 1744,-239"/>
<text text-anchor="middle" x="1693" y="-227" font-family="Helvetica,sans-Serif" font-size="10.00">compat/compat.h</text>
</a>
</g>
</g>
<!-- Node2&#45;&gt;Node5 -->
<g id="edge4_Node000002_Node000005" class="edge">
<title>Node2&#45;&gt;Node5</title>
<g id="a_edge4_Node000002_Node000005"><a xlink:title=" ">
<path fill="none" stroke="#63b8ff" d="M1651.26,-274.75C1658.46,-267.11 1669.11,-255.82 1677.85,-246.56"/>
<polygon fill="#63b8ff" stroke="#63b8ff" points="1680.58,-248.76 1684.9,-239.09 1675.49,-243.96 1680.58,-248.76"/>
</a>
</g>
</g>
<!-- Node6 -->
<g id="Node000006" class="node">
<title>Node6</title>
<g id="a_Node000006"><a xlink:href="osdetect_8h.html" target="_top" xlink:title=" ">
<polygon fill="white" stroke="#666666" points="2275.5,-184 2168.5,-184 2168.5,-165 2275.5,-165 2275.5,-184"/>
<text text-anchor="middle" x="2222" y="-172" font-family="Helvetica,sans-Serif" font-size="10.00">compat/osdetect.h</text>
</a>
</g>
</g>
<!-- Node5&#45;&gt;Node6 -->
<g id="edge5_Node000005_Node000006" class="edge">
<title>Node5&#45;&gt;Node6</title>
<g id="a_edge5_Node000005_Node000006"><a xlink:title=" ">
<path fill="none" stroke="#63b8ff" d="M1744.1,-224.28C1828.08,-217.19 2000.8,-202.01 2158.07,-184.06"/>
<polygon fill="#63b8ff" stroke="#63b8ff" points="2158.87,-187.49 2168.4,-182.88 2158.07,-180.54 2158.87,-187.49"/>
</a>
</g>
</g>
<!-- Node7 -->
<g id="Node000007" class="node">
<title>Node7</title>
<g id="a_Node000007"><a xlink:href="fdsetsize_8h.html" target="_top" xlink:title=" ">
<polygon fill="white" stroke="#666666" points="2404,-184 2294,-184 2294,-165 2404,-165 2404,-184"/>
<text text-anchor="middle" x="2349" y="-172" font-family="Helvetica,sans-Serif" font-size="10.00">compat/fdsetsize.h</text>
</a>
</g>
</g>
<!-- Node5&#45;&gt;Node7 -->
<g id="edge6_Node000005_Node000007" class="edge">
<title>Node5&#45;&gt;Node7</title>
<g id="a_edge6_Node000005_Node000007"><a xlink:title=" ">
<path fill="none" stroke="#63b8ff" d="M1744.07,-225.6C1844.94,-219.67 2077.03,-205 2283.58,-183.98"/>
<polygon fill="#63b8ff" stroke="#63b8ff" points="2284.11,-187.44 2293.71,-182.94 2283.4,-180.48 2284.11,-187.44"/>
</a>
</g>
</g>
<!-- Node8 -->
<g id="Node000008" class="node">
<title>Node8</title>
<g id="a_Node000008"><a xlink:href="types_8h.html" target="_top" xlink:title=" ">
<polygon fill="white" stroke="#666666" points="2514,-184 2422,-184 2422,-165 2514,-165 2514,-184"/>
<text text-anchor="middle" x="2468" y="-172" font-family="Helvetica,sans-Serif" font-size="10.00">compat/types.h</text>
</a>
</g>
</g>
<!-- Node5&#45;&gt;Node8 -->
<g id="edge7_Node000005_Node000008" class="edge">
<title>Node5&#45;&gt;Node8</title>
<g id="a_edge7_Node000005_Node000008"><a xlink:title=" ">
<path fill="none" stroke="#63b8ff" d="M1744.2,-226.95C1860.79,-223.06 2155.14,-211.3 2411.57,-184.05"/>
<polygon fill="#63b8ff" stroke="#63b8ff" points="2412.26,-187.5 2421.83,-182.95 2411.51,-180.54 2412.26,-187.5"/>
</a>
</g>
</g>
<!-- Node10 -->
<g id="Node000010" class="node">
<title>Node10</title>
<g id="a_Node000010"><a xlink:href="aix_8h.html" target="_top" xlink:title=" ">
<polygon fill="white" stroke="#666666" points="2627.5,-184 2532.5,-184 2532.5,-165 2627.5,-165 2627.5,-184"/>
<text text-anchor="middle" x="2580" y="-172" font-family="Helvetica,sans-Serif" font-size="10.00">compat/os/aix.h</text>
</a>
</g>
</g>
<!-- Node5&#45;&gt;Node10 -->
<g id="edge9_Node000005_Node000010" class="edge">
<title>Node5&#45;&gt;Node10</title>
<g id="a_edge9_Node000005_Node000010"><a xlink:title=" ">
<path fill="none" stroke="#63b8ff" d="M1744.13,-227.44C1872.9,-224.4 2221.1,-213.97 2522.21,-183.96"/>
<polygon fill="#63b8ff" stroke="#63b8ff" points="2522.86,-187.42 2532.46,-182.93 2522.16,-180.45 2522.86,-187.42"/>
</a>
</g>
</g>
<!-- Node11 -->
<g id="Node000011" class="node">
<title>Node11</title>
<g id="a_Node000011"><a xlink:href="android_8h.html" target="_top" xlink:title=" ">
<polygon fill="white" stroke="#666666" points="2762,-184 2646,-184 2646,-165 2762,-165 2762,-184"/>
<text text-anchor="middle" x="2704" y="-172" font-family="Helvetica,sans-Serif" font-size="10.00">compat/os/android.h</text>
</a>
</g>
</g>
<!-- Node5&#45;&gt;Node11 -->
<g id="edge10_Node000005_Node000011" class="edge">
<title>Node5&#45;&gt;Node11</title>
<g id="a_edge10_Node000005_Node000011"><a xlink:title=" ">
<path fill="none" stroke="#63b8ff" d="M1744.2,-227.47C1884.75,-224.36 2288.56,-213.41 2635.79,-183.93"/>
<polygon fill="#63b8ff" stroke="#63b8ff" points="2636.13,-187.42 2645.79,-183.08 2635.53,-180.44 2636.13,-187.42"/>
</a>
</g>
</g>
<!-- Node12 -->
<g id="Node000012" class="node">
<title>Node12</title>
<g id="a_Node000012"><a xlink:href="dragonfly_8h.html" target="_top" xlink:title=" ">
<polygon fill="white" stroke="#666666" points="2904,-184 2780,-184 2780,-165 2904,-165 2904,-184"/>
<text text-anchor="middle" x="2842" y="-172" font-family="Helvetica,sans-Serif" font-size="10.00">compat/os/dragonfly.h</text>
</a>
</g>
</g>
<!-- Node5&#45;&gt;Node12 -->
<g id="edge11_Node000005_Node000012" class="edge">
<title>Node5&#45;&gt;Node12</title>
<g id="a_edge11_Node000005_Node000012"><a xlink:title=" ">
<path fill="none" stroke="#63b8ff" d="M1744.15,-227.8C1897.76,-225.41 2368.67,-215.86 2769.64,-184.04"/>
<polygon fill="#63b8ff" stroke="#63b8ff" points="2770,-187.52 2779.69,-183.24 2769.44,-180.55 2770,-187.52"/>
</a>
</g>
</g>
<!-- Node13 -->
<g id="Node000013" class="node">
<title>Node13</title>
<g id="a_Node000013"><a xlink:href="freebsd_8h.html" target="_top" xlink:title=" ">
<polygon fill="white" stroke="#666666" points="3038,-184 2922,-184 2922,-165 3038,-165 3038,-184"/>
<text text-anchor="middle" x="2980" y="-172" font-family="Helvetica,sans-Serif" font-size="10.00">compat/os/freebsd.h</text>
</a>
</g>
</g>
<!-- Node5&#45;&gt;Node13 -->
<g id="edge12_Node000005_Node000013" class="edge">
<title>Node5&#45;&gt;Node13</title>
<g id="a_edge12_Node000005_Node000013"><a xlink:title=" ">
<path fill="none" stroke="#63b8ff" d="M1744.24,-228.27C1910.91,-227.19 2452.92,-220.94 2911.79,-184.01"/>
<polygon fill="#63b8ff" stroke="#63b8ff" points="2912.24,-187.49 2921.93,-183.19 2911.68,-180.51 2912.24,-187.49"/>
</a>
</g>
</g>
<!-- Node14 -->
<g id="Node000014" class="node">
<title>Node14</title>
<g id="a_Node000014"><a xlink:href="hpux_8h.html" target="_top" xlink:title=" ">
<polygon fill="white" stroke="#666666" points="3160,-184 3056,-184 3056,-165 3160,-165 3160,-184"/>
<text text-anchor="middle" x="3108" y="-172" font-family="Helvetica,sans-Serif" font-size="10.00">compat/os/hpux.h</text>
</a>
</g>
</g>
<!-- Node5&#45;&gt;Node14 -->
<g id="edge13_Node000005_Node000014" class="edge">
<title>Node5&#45;&gt;Node14</title>
<g id="a_edge13_Node000005_Node000014"><a xlink:title=" ">
<path fill="none" stroke="#63b8ff" d="M1744.14,-228.76C1922.28,-229.26 2532.14,-227.53 3045.59,-184.02"/>
<polygon fill="#63b8ff" stroke="#63b8ff" points="3046.13,-187.48 3055.8,-183.14 3045.54,-180.51 3046.13,-187.48"/>
</a>
</g>
</g>
<!-- Node15 -->
<g id="Node000015" class="node">
<title>Node15</title>
<g id="a_Node000015"><a xlink:href="linux_8h.html" target="_top" xlink:title=" ">
<polygon fill="white" stroke="#666666" points="104,-184 0,-184 0,-165 104,-165 104,-184"/>
<text text-anchor="middle" x="52" y="-172" font-family="Helvetica,sans-Serif" font-size="10.00">compat/os/linux.h</text>
</a>
</g>
</g>
<!-- Node5&#45;&gt;Node15 -->
<g id="edge14_Node000005_Node000015" class="edge">
<title>Node5&#45;&gt;Node15</title>
<g id="a_edge14_Node000005_Node000015"><a xlink:title=" ">
<path fill="none" stroke="#63b8ff" d="M1641.98,-220.86C1638.95,-220.53 1635.94,-220.24 1633,-220 962.99,-164.8 788.31,-237.96 114.65,-184.02"/>
<polygon fill="#63b8ff" stroke="#63b8ff" points="114.45,-180.49 104.2,-183.18 113.89,-187.47 114.45,-180.49"/>
</a>
</g>
</g>
<!-- Node16 -->
<g id="Node000016" class="node">
<title>Node16</title>
<g id="a_Node000016"><a xlink:href="macosx_8h.html" target="_top" xlink:title=" ">
<polygon fill="white" stroke="#666666" points="240,-184 122,-184 122,-165 240,-165 240,-184"/>
<text text-anchor="middle" x="181" y="-172" font-family="Helvetica,sans-Serif" font-size="10.00">compat/os/macosx.h</text>
</a>
</g>
</g>
<!-- Node5&#45;&gt;Node16 -->
<g id="edge15_Node000005_Node000016" class="edge">
<title>Node5&#45;&gt;Node16</title>
<g id="a_edge15_Node000005_Node000016"><a xlink:title=" ">
<path fill="none" stroke="#63b8ff" d="M1641.98,-220.87C1638.95,-220.54 1635.94,-220.25 1633,-220 1023.11,-169.04 864.28,-229.56 250.29,-184.01"/>
<polygon fill="#63b8ff" stroke="#63b8ff" points="250.54,-180.52 240.3,-183.26 250.01,-187.5 250.54,-180.52"/>
</a>
</g>
</g>
<!-- Node17 -->
<g id="Node000017" class="node">
<title>Node17</title>
<g id="a_Node000017"><a xlink:href="mingw_8h.html" target="_top" xlink:title=" ">
<polygon fill="white" stroke="#666666" points="370,-184 258,-184 258,-165 370,-165 370,-184"/>
<text text-anchor="middle" x="314" y="-172" font-family="Helvetica,sans-Serif" font-size="10.00">compat/os/mingw.h</text>
</a>
</g>
</g>
<!-- Node5&#45;&gt;Node17 -->
<g id="edge16_Node000005_Node000017" class="edge">
<title>Node5&#45;&gt;Node17</title>
<g id="a_edge16_Node000005_Node000017"><a xlink:title=" ">
<path fill="none" stroke="#63b8ff" d="M1641.98,-220.88C1638.95,-220.55 1635.94,-220.25 1633,-220 1080.83,-173.11 936.56,-227.53 380.62,-184.03"/>
<polygon fill="#63b8ff" stroke="#63b8ff" points="380.58,-180.52 370.33,-183.22 380.03,-187.5 380.58,-180.52"/>
</a>
</g>
</g>
<!-- Node18 -->
<g id="Node000018" class="node">
<title>Node18</title>
<g id="a_Node000018"><a xlink:href="mswindows_8h.html" target="_top" xlink:title=" ">
<polygon fill="white" stroke="#666666" points="525.5,-184 388.5,-184 388.5,-165 525.5,-165 525.5,-184"/>
<text text-anchor="middle" x="457" y="-172" font-family="Helvetica,sans-Serif" font-size="10.00">compat/os/mswindows.h</text>
</a>
</g>
</g>
<!-- Node5&#45;&gt;Node18 -->
<g id="edge17_Node000005_Node000018" class="edge">
<title>Node5&#45;&gt;Node18</title>
<g id="a_edge17_Node000005_Node000018"><a xlink:title=" ">
<path fill="none" stroke="#63b8ff" d="M1641.98,-220.89C1638.95,-220.56 1635.93,-220.26 1633,-220 1149.46,-177.95 1023.18,-218.28 535.94,-184.08"/>
<polygon fill="#63b8ff" stroke="#63b8ff" points="536.05,-180.58 525.82,-183.36 535.55,-187.56 536.05,-180.58"/>
</a>
</g>
</g>
<!-- Node19 -->
<g id="Node000019" class="node">
<title>Node19</title>
<g id="a_Node000019"><a xlink:href="netbsd_8h.html" target="_top" xlink:title=" ">
<polygon fill="white" stroke="#666666" points="656.5,-184 543.5,-184 543.5,-165 656.5,-165 656.5,-184"/>
<text text-anchor="middle" x="600" y="-172" font-family="Helvetica,sans-Serif" font-size="10.00">compat/os/netbsd.h</text>
</a>
</g>
</g>
<!-- Node5&#45;&gt;Node19 -->
<g id="edge18_Node000005_Node000019" class="edge">
<title>Node5&#45;&gt;Node19</title>
<g id="a_edge18_Node000005_Node000019"><a xlink:title=" ">
<path fill="none" stroke="#63b8ff" d="M1641.98,-220.91C1638.94,-220.57 1635.93,-220.26 1633,-220 1207.53,-182.05 1095.76,-219.36 666.88,-184.07"/>
<polygon fill="#63b8ff" stroke="#63b8ff" points="666.94,-180.57 656.69,-183.23 666.36,-187.54 666.94,-180.57"/>
</a>
</g>
</g>
<!-- Node20 -->
<g id="Node000020" class="node">
<title>Node20</title>
<g id="a_Node000020"><a xlink:href="openbsd_8h.html" target="_top" xlink:title=" ">
<polygon fill="white" stroke="#666666" points="795.5,-184 674.5,-184 674.5,-165 795.5,-165 795.5,-184"/>
<text text-anchor="middle" x="735" y="-172" font-family="Helvetica,sans-Serif" font-size="10.00">compat/os/openbsd.h</text>
</a>
</g>
</g>
<!-- Node5&#45;&gt;Node20 -->
<g id="edge19_Node000005_Node000020" class="edge">
<title>Node5&#45;&gt;Node20</title>
<g id="a_edge19_Node000005_Node000020"><a xlink:title=" ">
<path fill="none" stroke="#63b8ff" d="M1641.98,-220.93C1638.94,-220.58 1635.93,-220.27 1633,-220 1269.09,-186.4 1173.25,-214.06 805.67,-184.07"/>
<polygon fill="#63b8ff" stroke="#63b8ff" points="805.81,-180.57 795.55,-183.23 805.23,-187.54 805.81,-180.57"/>
</a>
</g>
</g>
<!-- Node21 -->
<g id="Node000021" class="node">
<title>Node21</title>
<g id="a_Node000021"><a xlink:href="os2_8h.html" target="_top" xlink:title=" ">
<polygon fill="white" stroke="#666666" points="910.5,-184 813.5,-184 813.5,-165 910.5,-165 910.5,-184"/>
<text text-anchor="middle" x="862" y="-172" font-family="Helvetica,sans-Serif" font-size="10.00">compat/os/os2.h</text>
</a>
</g>
</g>
<!-- Node5&#45;&gt;Node21 -->
<g id="edge20_Node000005_Node000021" class="edge">
<title>Node5&#45;&gt;Node21</title>
<g id="a_edge20_Node000005_Node000021"><a xlink:title=" ">
<path fill="none" stroke="#63b8ff" d="M1641.97,-220.95C1638.94,-220.6 1635.93,-220.28 1633,-220 1320.55,-190.04 1237.55,-214.5 921.09,-183.99"/>
<polygon fill="#63b8ff" stroke="#63b8ff" points="920.99,-180.47 910.69,-182.98 920.31,-187.43 920.99,-180.47"/>
</a>
</g>
</g>
<!-- Node22 -->
<g id="Node000022" class="node">
<title>Node22</title>
<g id="a_Node000022"><a xlink:href="qnx_8h.html" target="_top" xlink:title=" ">
<polygon fill="white" stroke="#666666" points="1027,-184 929,-184 929,-165 1027,-165 1027,-184"/>
<text text-anchor="middle" x="978" y="-172" font-family="Helvetica,sans-Serif" font-size="10.00">compat/os/qnx.h</text>
</a>
</g>
</g>
<!-- Node5&#45;&gt;Node22 -->
<g id="edge21_Node000005_Node000022" class="edge">
<title>Node5&#45;&gt;Node22</title>
<g id="a_edge21_Node000005_Node000022"><a xlink:title=" ">
<path fill="none" stroke="#63b8ff" d="M1641.97,-220.99C1638.94,-220.63 1635.93,-220.3 1633,-220 1371.88,-193.67 1302.17,-210.85 1037.33,-184.04"/>
<polygon fill="#63b8ff" stroke="#63b8ff" points="1037.32,-180.52 1027.01,-182.98 1036.6,-187.48 1037.32,-180.52"/>
</a>
</g>
</g>
<!-- Node23 -->
<g id="Node000023" class="node">
<title>Node23</title>
<g id="a_Node000023"><a xlink:href="solaris_8h.html" target="_top" xlink:title=" ">
<polygon fill="white" stroke="#666666" points="1157,-184 1045,-184 1045,-165 1157,-165 1157,-184"/>
<text text-anchor="middle" x="1101" y="-172" font-family="Helvetica,sans-Serif" font-size="10.00">compat/os/solaris.h</text>
</a>
</g>
</g>
<!-- Node5&#45;&gt;Node23 -->
<g id="edge22_Node000005_Node000023" class="edge">
<title>Node5&#45;&gt;Node23</title>
<g id="a_edge22_Node000005_Node000023"><a xlink:title=" ">
<path fill="none" stroke="#63b8ff" d="M1641.96,-221.04C1638.93,-220.67 1635.93,-220.32 1633,-220 1429.29,-197.74 1374.75,-205.26 1167.34,-184.08"/>
<polygon fill="#63b8ff" stroke="#63b8ff" points="1167.65,-180.6 1157.35,-183.05 1166.94,-187.56 1167.65,-180.6"/>
</a>
</g>
</g>
<!-- Node24 -->
<g id="Node000024" class="node">
<title>Node24</title>
<g id="a_Node000024"><a xlink:href="sunos_8h.html" target="_top" xlink:title=" ">
<polygon fill="white" stroke="#666666" points="1283,-184 1175,-184 1175,-165 1283,-165 1283,-184"/>
<text text-anchor="middle" x="1229" y="-172" font-family="Helvetica,sans-Serif" font-size="10.00">compat/os/sunos.h</text>
</a>
</g>
</g>
<!-- Node5&#45;&gt;Node24 -->
<g id="edge23_Node000005_Node000024" class="edge">
<title>Node5&#45;&gt;Node24</title>
<g id="a_edge23_Node000005_Node000024"><a xlink:title=" ">
<path fill="none" stroke="#63b8ff" d="M1641.95,-221.14C1638.93,-220.75 1635.92,-220.36 1633,-220 1485,-201.71 1445.01,-202.16 1293.43,-184.14"/>
<polygon fill="#63b8ff" stroke="#63b8ff" points="1293.63,-180.64 1283.28,-182.93 1292.8,-187.59 1293.63,-180.64"/>
</a>
</g>
</g>
<!-- Node25 -->
<g id="Node000025" class="node">
<title>Node25</title>
<g id="a_Node000025"><a xlink:href="assert_8h.html" target="_top" xlink:title=" ">
<polygon fill="white" stroke="#666666" points="1396.5,-184 1301.5,-184 1301.5,-165 1396.5,-165 1396.5,-184"/>
<text text-anchor="middle" x="1349" y="-172" font-family="Helvetica,sans-Serif" font-size="10.00">compat/assert.h</text>
</a>
</g>
</g>
<!-- Node5&#45;&gt;Node25 -->
<g id="edge24_Node000005_Node000025" class="edge">
<title>Node5&#45;&gt;Node25</title>
<g id="a_edge24_Node000005_Node000025"><a xlink:title=" ">
<path fill="none" stroke="#63b8ff" d="M1641.87,-220.62C1578.98,-210.93 1472.49,-194.53 1406.72,-184.39"/>
<polygon fill="#63b8ff" stroke="#63b8ff" points="1406.94,-180.89 1396.53,-182.82 1405.88,-187.8 1406.94,-180.89"/>
</a>
</g>
</g>
<!-- Node26 -->
<g id="Node000026" class="node">
<title>Node26</title>
<g id="a_Node000026"><a xlink:href="compat__shared_8h.html" target="_top" xlink:title=" ">
<polygon fill="#fff0f0" stroke="red" points="1555,-184 1415,-184 1415,-165 1555,-165 1555,-184"/>
<text text-anchor="middle" x="1485" y="-172" font-family="Helvetica,sans-Serif" font-size="10.00">compat/compat_shared.h</text>
</a>
</g>
</g>
<!-- Node5&#45;&gt;Node26 -->
<g id="edge25_Node000005_Node000026" class="edge">
<title>Node5&#45;&gt;Node26</title>
<g id="a_edge25_Node000005_Node000026"><a xlink:title=" ">
<path fill="none" stroke="#63b8ff" d="M1659.58,-219.98C1624.06,-210.93 1567.73,-196.58 1528.7,-186.64"/>
<polygon fill="#63b8ff" stroke="#63b8ff" points="1529.24,-183.16 1518.68,-184.08 1527.51,-189.94 1529.24,-183.16"/>
</a>
</g>
</g>
<!-- Node36 -->
<g id="Node000036" class="node">
<title>Node36</title>
<g id="a_Node000036"><a xlink:href="stdvarargs_8h.html" target="_top" xlink:title=" ">
<polygon fill="#fff0f0" stroke="red" points="1690.5,-184 1573.5,-184 1573.5,-165 1690.5,-165 1690.5,-184"/>
<text text-anchor="middle" x="1632" y="-172" font-family="Helvetica,sans-Serif" font-size="10.00">compat/stdvarargs.h</text>
</a>
</g>
</g>
<!-- Node5&#45;&gt;Node36 -->
<g id="edge29_Node000005_Node000036" class="edge">
<title>Node5&#45;&gt;Node36</title>
<g id="a_edge29_Node000005_Node000036"><a xlink:title=" ">
<path fill="none" stroke="#63b8ff" d="M1683.2,-219.98C1674.18,-212.15 1660.59,-200.34 1649.68,-190.86"/>
<polygon fill="#63b8ff" stroke="#63b8ff" points="1651.82,-188.09 1641.98,-184.17 1647.23,-193.37 1651.82,-188.09"/>
</a>
</g>
</g>
<!-- Node38 -->
<g id="Node000038" class="node">
<title>Node38</title>
<g id="a_Node000038"><a xlink:href="stdio_8h.html" target="_top" xlink:title=" ">
<polygon fill="#fff0f0" stroke="red" points="1797.5,-184 1708.5,-184 1708.5,-165 1797.5,-165 1797.5,-184"/>
<text text-anchor="middle" x="1753" y="-172" font-family="Helvetica,sans-Serif" font-size="10.00">compat/stdio.h</text>
</a>
</g>
</g>
<!-- Node5&#45;&gt;Node38 -->
<g id="edge30_Node000005_Node000038" class="edge">
<title>Node5&#45;&gt;Node38</title>
<g id="a_edge30_Node000005_Node000038"><a xlink:title=" ">
<path fill="none" stroke="#63b8ff" d="M1702.64,-219.98C1711.51,-212.15 1724.87,-200.34 1735.61,-190.86"/>
<polygon fill="#63b8ff" stroke="#63b8ff" points="1738.01,-193.41 1743.18,-184.17 1733.37,-188.17 1738.01,-193.41"/>
</a>
</g>
</g>
<!-- Node40 -->
<g id="Node000040" class="node">
<title>Node40</title>
<g id="a_Node000040"><a xlink:href="statvfs_8h.html" target="_top" xlink:title=" ">
<polygon fill="white" stroke="#666666" points="1914.5,-184 1815.5,-184 1815.5,-165 1914.5,-165 1914.5,-184"/>
<text text-anchor="middle" x="1865" y="-172" font-family="Helvetica,sans-Serif" font-size="10.00">compat/statvfs.h</text>
</a>
</g>
</g>
<!-- Node5&#45;&gt;Node40 -->
<g id="edge31_Node000005_Node000040" class="edge">
<title>Node5&#45;&gt;Node40</title>
<g id="a_edge31_Node000005_Node000040"><a xlink:title=" ">
<path fill="none" stroke="#63b8ff" d="M1720.63,-219.98C1749.51,-211.09 1795.01,-197.07 1827.2,-187.15"/>
<polygon fill="#63b8ff" stroke="#63b8ff" points="1828.62,-190.37 1837.15,-184.08 1826.56,-183.68 1828.62,-190.37"/>
</a>
</g>
</g>
<!-- Node41 -->
<g id="Node000041" class="node">
<title>Node41</title>
<g id="a_Node000041"><a xlink:href="debug_8h.html" target="_top" xlink:title=" ">
<polygon fill="white" stroke="#666666" points="2027.5,-184 1932.5,-184 1932.5,-165 2027.5,-165 2027.5,-184"/>
<text text-anchor="middle" x="1980" y="-172" font-family="Helvetica,sans-Serif" font-size="10.00">compat/debug.h</text>
</a>
</g>
</g>
<!-- Node5&#45;&gt;Node41 -->
<g id="edge32_Node000005_Node000041" class="edge">
<title>Node5&#45;&gt;Node41</title>
<g id="a_edge32_Node000005_Node000041"><a xlink:title=" ">
<path fill="none" stroke="#63b8ff" d="M1739.11,-219.98C1789.28,-210.72 1869.51,-195.9 1923.44,-185.94"/>
<polygon fill="#63b8ff" stroke="#63b8ff" points="1924.33,-189.34 1933.53,-184.08 1923.06,-182.46 1924.33,-189.34"/>
</a>
</g>
</g>
<!-- Node42 -->
<g id="Node000042" class="node">
<title>Node42</title>
<g id="a_Node000042"><a xlink:href="valgrind_8h.html" target="_top" xlink:title=" ">
<polygon fill="#fff0f0" stroke="red" points="2150.5,-184 2045.5,-184 2045.5,-165 2150.5,-165 2150.5,-184"/>
<text text-anchor="middle" x="2098" y="-172" font-family="Helvetica,sans-Serif" font-size="10.00">compat/valgrind.h</text>
</a>
</g>
</g>
<!-- Node5&#45;&gt;Node42 -->
<g id="edge33_Node000005_Node000042" class="edge">
<title>Node5&#45;&gt;Node42</title>
<g id="a_edge33_Node000005_Node000042"><a xlink:title=" ">
<path fill="none" stroke="#63b8ff" d="M1744.15,-221.98C1809.23,-213.66 1925.38,-198.72 2035.3,-184.08"/>
<polygon fill="#63b8ff" stroke="#63b8ff" points="2035.79,-187.55 2045.24,-182.76 2034.86,-180.61 2035.79,-187.55"/>
</a>
</g>
</g>
<!-- Node9 -->
<g id="Node000009" class="node">
<title>Node9</title>
<g id="a_Node000009"><a xlink:title=" ">
<polygon fill="#e0e0e0" stroke="#999999" points="2493,-129 2443,-129 2443,-110 2493,-110 2493,-129"/>
<text text-anchor="middle" x="2468" y="-117" font-family="Helvetica,sans-Serif" font-size="10.00">cstdint</text>
</a>
</g>
</g>
<!-- Node8&#45;&gt;Node9 -->
<g id="edge8_Node000008_Node000009" class="edge">
<title>Node8&#45;&gt;Node9</title>
<g id="a_edge8_Node000008_Node000009"><a xlink:title=" ">
<path fill="none" stroke="#63b8ff" d="M2468,-164.75C2468,-157.8 2468,-147.85 2468,-139.13"/>
<polygon fill="#63b8ff" stroke="#63b8ff" points="2471.5,-139.09 2468,-129.09 2464.5,-139.09 2471.5,-139.09"/>
</a>
</g>
</g>
<!-- Node27 -->
<g id="Node000027" class="node">
<title>Node27</title>
<g id="a_Node000027"><a xlink:title=" ">
<polygon fill="#e0e0e0" stroke="#999999" points="1594.5,-129 1543.5,-129 1543.5,-110 1594.5,-110 1594.5,-129"/>
<text text-anchor="middle" x="1569" y="-117" font-family="Helvetica,sans-Serif" font-size="10.00">csignal</text>
</a>
</g>
</g>
<!-- Node26&#45;&gt;Node27 -->
<g id="edge26_Node000026_Node000027" class="edge">
<title>Node26&#45;&gt;Node27</title>
<g id="a_edge26_Node000026_Node000027"><a xlink:title=" ">
<path fill="none" stroke="#63b8ff" d="M1498.5,-164.98C1511.4,-156.84 1531.1,-144.41 1546.4,-134.76"/>
<polygon fill="#63b8ff" stroke="#63b8ff" points="1548.67,-137.47 1555.26,-129.17 1544.93,-131.55 1548.67,-137.47"/>
</a>
</g>
</g>
<!-- Node28 -->
<g id="Node000028" class="node">
<title>Node28</title>
<g id="a_Node000028"><a xlink:href="xalloc_8h.html" target="_top" xlink:title=" ">
<polygon fill="white" stroke="#666666" points="1426.5,-129 1331.5,-129 1331.5,-110 1426.5,-110 1426.5,-129"/>
<text text-anchor="middle" x="1379" y="-117" font-family="Helvetica,sans-Serif" font-size="10.00">compat/xalloc.h</text>
</a>
</g>
</g>
<!-- Node26&#45;&gt;Node28 -->
<g id="edge27_Node000026_Node000028" class="edge">
<title>Node26&#45;&gt;Node28</title>
<g id="a_edge27_Node000026_Node000028"><a xlink:title=" ">
<path fill="none" stroke="#63b8ff" d="M1467.97,-164.98C1451.07,-156.54 1424.94,-143.47 1405.36,-133.68"/>
<polygon fill="#63b8ff" stroke="#63b8ff" points="1406.85,-130.51 1396.34,-129.17 1403.72,-136.77 1406.85,-130.51"/>
</a>
</g>
</g>
<!-- Node29 -->
<g id="Node000029" class="node">
<title>Node29</title>
<g id="a_Node000029"><a xlink:href="xis_8h.html" target="_top" xlink:title=" ">
<polygon fill="#fff0f0" stroke="red" points="1525,-129 1445,-129 1445,-110 1525,-110 1525,-129"/>
<text text-anchor="middle" x="1485" y="-117" font-family="Helvetica,sans-Serif" font-size="10.00">compat/xis.h</text>
</a>
</g>
</g>
<!-- Node26&#45;&gt;Node29 -->
<g id="edge28_Node000026_Node000029" class="edge">
<title>Node26&#45;&gt;Node29</title>
<g id="a_edge28_Node000026_Node000029"><a xlink:title=" ">
<path fill="none" stroke="#63b8ff" d="M1485,-164.75C1485,-157.8 1485,-147.85 1485,-139.13"/>
<polygon fill="#63b8ff" stroke="#63b8ff" points="1488.5,-139.09 1485,-129.09 1481.5,-139.09 1488.5,-139.09"/>
</a>
</g>
</g>
<!-- Node45 -->
<g id="Node000045" class="node">
<title>Node45</title>
<g id="a_Node000045"><a xlink:href="Data_8h.html" target="_top" xlink:title=" ">
<polygon fill="white" stroke="#666666" points="3467,-239 3401,-239 3401,-220 3467,-220 3467,-239"/>
<text text-anchor="middle" x="3434" y="-227" font-family="Helvetica,sans-Serif" font-size="10.00">acl/Data.h</text>
</a>
</g>
</g>
<!-- Node44&#45;&gt;Node45 -->
<g id="edge35_Node000044_Node000045" class="edge">
<title>Node44&#45;&gt;Node45</title>
<g id="a_edge35_Node000044_Node000045"><a xlink:title=" ">
<path fill="none" stroke="#63b8ff" d="M3319.01,-274.98C3341.45,-266.3 3376.48,-252.75 3401.99,-242.88"/>
<polygon fill="#63b8ff" stroke="#63b8ff" points="3403.52,-246.04 3411.59,-239.17 3401,-239.51 3403.52,-246.04"/>
</a>
</g>
</g>
<!-- Node85 -->
<g id="Node000085" class="node">
<title>Node85</title>
<g id="a_Node000085"><a xlink:href="ParameterizedNode_8h.html" target="_top" xlink:title=" ">
<polygon fill="white" stroke="#666666" points="3366.5,-239 3227.5,-239 3227.5,-220 3366.5,-220 3366.5,-239"/>
<text text-anchor="middle" x="3297" y="-227" font-family="Helvetica,sans-Serif" font-size="10.00">acl/ParameterizedNode.h</text>
</a>
</g>
</g>
<!-- Node44&#45;&gt;Node85 -->
<g id="edge39_Node000044_Node000085" class="edge">
<title>Node44&#45;&gt;Node85</title>
<g id="a_edge39_Node000044_Node000085"><a xlink:title=" ">
<path fill="none" stroke="#63b8ff" d="M3297,-274.75C3297,-267.8 3297,-257.85 3297,-249.13"/>
<polygon fill="#63b8ff" stroke="#63b8ff" points="3300.5,-249.09 3297,-239.09 3293.5,-249.09 3300.5,-249.09"/>
</a>
</g>
</g>
<!-- Node46 -->
<g id="Node000046" class="node">
<title>Node46</title>
<g id="a_Node000046"><a xlink:href="acl_2Options_8h.html" target="_top" xlink:title=" ">
<polygon fill="#fff0f0" stroke="red" points="3464,-74 3384,-74 3384,-55 3464,-55 3464,-74"/>
<text text-anchor="middle" x="3424" y="-62" font-family="Helvetica,sans-Serif" font-size="10.00">acl/Options.h</text>
</a>
</g>
</g>
<!-- Node45&#45;&gt;Node46 -->
<g id="edge36_Node000045_Node000046" class="edge">
<title>Node45&#45;&gt;Node46</title>
<g id="a_edge36_Node000045_Node000046"><a xlink:title=" ">
<path fill="none" stroke="#63b8ff" d="M3433.46,-219.74C3431.9,-194.31 3427.35,-120.08 3425.18,-84.69"/>
<polygon fill="#63b8ff" stroke="#63b8ff" points="3428.65,-84.07 3424.54,-74.31 3421.66,-84.5 3428.65,-84.07"/>
</a>
</g>
</g>
<!-- Node57 -->
<g id="Node000057" class="node">
<title>Node57</title>
<g id="a_Node000057"><a xlink:href="List_8h.html" target="_top" xlink:title=" ">
<polygon fill="#fff0f0" stroke="red" points="3519.5,-184 3452.5,-184 3452.5,-165 3519.5,-165 3519.5,-184"/>
<text text-anchor="middle" x="3486" y="-172" font-family="Helvetica,sans-Serif" font-size="10.00">sbuf/List.h</text>
</a>
</g>
</g>
<!-- Node45&#45;&gt;Node57 -->
<g id="edge38_Node000045_Node000057" class="edge">
<title>Node45&#45;&gt;Node57</title>
<g id="a_edge38_Node000045_Node000057"><a xlink:title=" ">
<path fill="none" stroke="#63b8ff" d="M3442.59,-219.75C3450.16,-212.03 3461.38,-200.6 3470.51,-191.28"/>
<polygon fill="#63b8ff" stroke="#63b8ff" points="3473.07,-193.68 3477.57,-184.09 3468.07,-188.78 3473.07,-193.68"/>
</a>
</g>
</g>
<!-- Node56 -->
<g id="Node000056" class="node">
<title>Node56</title>
<g id="a_Node000056"><a xlink:title=" ">
<polygon fill="#e0e0e0" stroke="#999999" points="3607.5,-19 3560.5,-19 3560.5,0 3607.5,0 3607.5,-19"/>
<text text-anchor="middle" x="3584" y="-7" font-family="Helvetica,sans-Serif" font-size="10.00">vector</text>
</a>
</g>
</g>
<!-- Node46&#45;&gt;Node56 -->
<g id="edge37_Node000046_Node000056" class="edge">
<title>Node46&#45;&gt;Node56</title>
<g id="a_edge37_Node000046_Node000056"><a xlink:title=" ">
<path fill="none" stroke="#63b8ff" d="M3449.71,-54.98C3477.17,-45.89 3520.79,-31.44 3550.82,-21.49"/>
<polygon fill="#63b8ff" stroke="#63b8ff" points="3552.05,-24.77 3560.44,-18.3 3549.85,-18.13 3552.05,-24.77"/>
</a>
</g>
</g>
<!-- Node86 -->
<g id="Node000086" class="node">
<title>Node86</title>
<g id="a_Node000086"><a xlink:href="Node_8h.html" target="_top" xlink:title=" ">
<polygon fill="#fff0f0" stroke="red" points="3396,-129 3328,-129 3328,-110 3396,-110 3396,-129"/>
<text text-anchor="middle" x="3362" y="-117" font-family="Helvetica,sans-Serif" font-size="10.00">acl/Node.h</text>
</a>
</g>
</g>
<!-- Node85&#45;&gt;Node86 -->
<g id="edge40_Node000085_Node000086" class="edge">
<title>Node85&#45;&gt;Node86</title>
<g id="a_edge40_Node000085_Node000086"><a xlink:title=" ">
<path fill="none" stroke="#63b8ff" d="M3311.37,-219.73C3323.05,-211.83 3339.01,-199.16 3348,-184 3356.02,-170.48 3359.45,-152.89 3360.92,-139.65"/>
<polygon fill="#63b8ff" stroke="#63b8ff" points="3364.44,-139.6 3361.77,-129.35 3357.46,-139.02 3364.44,-139.6"/>
</a>
</g>
</g>
<!-- Node61 -->
<g id="Node000061" class="node">
<title>Node61</title>
<g id="a_Node000061"><a xlink:href="Assure_8h.html" target="_top" xlink:title=" ">
<polygon fill="#fff0f0" stroke="red" points="3339.5,-184 3254.5,-184 3254.5,-165 3339.5,-165 3339.5,-184"/>
<text text-anchor="middle" x="3297" y="-172" font-family="Helvetica,sans-Serif" font-size="10.00">base/Assure.h</text>
</a>
</g>
</g>
<!-- Node85&#45;&gt;Node61 -->
<g id="edge42_Node000085_Node000061" class="edge">
<title>Node85&#45;&gt;Node61</title>
<g id="a_edge42_Node000085_Node000061"><a xlink:title=" ">
<path fill="none" stroke="#63b8ff" d="M3297,-219.75C3297,-212.8 3297,-202.85 3297,-194.13"/>
<polygon fill="#63b8ff" stroke="#63b8ff" points="3300.5,-194.09 3297,-184.09 3293.5,-194.09 3300.5,-194.09"/>
</a>
</g>
</g>
<!-- Node88 -->
<g id="Node000088" class="node">
<title>Node88</title>
<g id="a_Node000088"><a xlink:title=" ">
<polygon fill="#e0e0e0" stroke="#999999" points="3236,-184 3178,-184 3178,-165 3236,-165 3236,-184"/>
<text text-anchor="middle" x="3207" y="-172" font-family="Helvetica,sans-Serif" font-size="10.00">memory</text>
</a>
</g>
</g>
<!-- Node85&#45;&gt;Node88 -->
<g id="edge43_Node000085_Node000088" class="edge">
<title>Node85&#45;&gt;Node88</title>
<g id="a_edge43_Node000085_Node000088"><a xlink:title=" ">
<path fill="none" stroke="#63b8ff" d="M3282.54,-219.98C3268.58,-211.77 3247.21,-199.18 3230.75,-189.49"/>
<polygon fill="#63b8ff" stroke="#63b8ff" points="3232.12,-186.23 3221.72,-184.17 3228.56,-192.26 3232.12,-186.23"/>
</a>
</g>
</g>
<!-- Node86&#45;&gt;Node46 -->
<g id="edge41_Node000086_Node000046" class="edge">
<title>Node86&#45;&gt;Node46</title>
<g id="a_edge41_Node000086_Node000046"><a xlink:title=" ">
<path fill="none" stroke="#63b8ff" d="M3371.96,-109.98C3381.13,-102.15 3394.94,-90.34 3406.03,-80.86"/>
<polygon fill="#63b8ff" stroke="#63b8ff" points="3408.53,-83.33 3413.86,-74.17 3403.98,-78.01 3408.53,-83.33"/>
</a>
</g>
</g>
<!-- Node89&#45;&gt;Node45 -->
<g id="edge55_Node000089_Node000045" class="edge">
<title>Node89&#45;&gt;Node45</title>
<g id="a_edge55_Node000089_Node000045"><a xlink:title=" ">
<path fill="none" stroke="#63b8ff" d="M3443.18,-274.75C3441.74,-267.8 3439.68,-257.85 3437.87,-249.13"/>
<polygon fill="#63b8ff" stroke="#63b8ff" points="3441.24,-248.17 3435.78,-239.09 3434.39,-249.59 3441.24,-248.17"/>
</a>
</g>
</g>
<!-- Node90 -->
<g id="Node000090" class="node">
<title>Node90</title>
<g id="a_Node000090"><a xlink:href="Checklist_8h.html" target="_top" xlink:title=" ">
<polygon fill="white" stroke="#666666" points="3741,-239 3653,-239 3653,-220 3741,-220 3741,-239"/>
<text text-anchor="middle" x="3697" y="-227" font-family="Helvetica,sans-Serif" font-size="10.00">acl/Checklist.h</text>
</a>
</g>
</g>
<!-- Node89&#45;&gt;Node90 -->
<g id="edge45_Node000089_Node000090" class="edge">
<title>Node89&#45;&gt;Node90</title>
<g id="a_edge45_Node000089_Node000090"><a xlink:title=" ">
<path fill="none" stroke="#63b8ff" d="M3485.49,-274.98C3529.17,-265.8 3598.81,-251.15 3646.15,-241.19"/>
<polygon fill="#63b8ff" stroke="#63b8ff" points="3647.13,-244.57 3656.19,-239.08 3645.69,-237.72 3647.13,-244.57"/>
</a>
</g>
</g>
<!-- Node90&#45;&gt;Node56 -->
<g id="edge54_Node000090_Node000056" class="edge">
<title>Node90&#45;&gt;Node56</title>
<g id="a_edge54_Node000090_Node000056"><a xlink:title=" ">
<path fill="none" stroke="#63b8ff" d="M3692.57,-219.95C3675.84,-187.67 3616.27,-72.75 3593.21,-28.26"/>
<polygon fill="#63b8ff" stroke="#63b8ff" points="3596.23,-26.49 3588.52,-19.22 3590.02,-29.71 3596.23,-26.49"/>
</a>
</g>
</g>
<!-- Node91 -->
<g id="Node000091" class="node">
<title>Node91</title>
<g id="a_Node000091"><a xlink:href="acl_2Acl_8h.html" target="_top" xlink:title=" ">
<polygon fill="#fff0f0" stroke="red" points="3783,-184 3725,-184 3725,-165 3783,-165 3783,-184"/>
<text text-anchor="middle" x="3754" y="-172" font-family="Helvetica,sans-Serif" font-size="10.00">acl/Acl.h</text>
</a>
</g>
</g>
<!-- Node90&#45;&gt;Node91 -->
<g id="edge46_Node000090_Node000091" class="edge">
<title>Node90&#45;&gt;Node91</title>
<g id="a_edge46_Node000090_Node000091"><a xlink:title=" ">
<path fill="none" stroke="#63b8ff" d="M3706.16,-219.98C3714.5,-212.23 3727.03,-200.58 3737.18,-191.14"/>
<polygon fill="#63b8ff" stroke="#63b8ff" points="3739.74,-193.54 3744.68,-184.17 3734.97,-188.42 3739.74,-193.54"/>
</a>
</g>
</g>
<!-- Node93 -->
<g id="Node000093" class="node">
<title>Node93</title>
<g id="a_Node000093"><a xlink:title=" ">
<polygon fill="#e0e0e0" stroke="#999999" points="3762,-129 3706,-129 3706,-110 3762,-110 3762,-129"/>
<text text-anchor="middle" x="3734" y="-117" font-family="Helvetica,sans-Serif" font-size="10.00">optional</text>
</a>
</g>
</g>
<!-- Node90&#45;&gt;Node93 -->
<g id="edge52_Node000090_Node000093" class="edge">
<title>Node90&#45;&gt;Node93</title>
<g id="a_edge52_Node000090_Node000093"><a xlink:title=" ">
<path fill="none" stroke="#63b8ff" d="M3699.33,-219.79C3702.68,-207.48 3709.22,-184.33 3716,-165 3719.07,-156.25 3722.87,-146.7 3726.19,-138.7"/>
<polygon fill="#63b8ff" stroke="#63b8ff" points="3729.5,-139.85 3730.17,-129.27 3723.06,-137.12 3729.5,-139.85"/>
</a>
</g>
</g>
<!-- Node95 -->
<g id="Node000095" class="node">
<title>Node95</title>
<g id="a_Node000095"><a xlink:href="InnerNode_8h.html" target="_top" xlink:title=" ">
<polygon fill="white" stroke="#666666" points="3630.5,-184 3537.5,-184 3537.5,-165 3630.5,-165 3630.5,-184"/>
<text text-anchor="middle" x="3584" y="-172" font-family="Helvetica,sans-Serif" font-size="10.00">acl/InnerNode.h</text>
</a>
</g>
</g>
<!-- Node90&#45;&gt;Node95 -->
<g id="edge48_Node000090_Node000095" class="edge">
<title>Node90&#45;&gt;Node95</title>
<g id="a_edge48_Node000090_Node000095"><a xlink:title=" ">
<path fill="none" stroke="#63b8ff" d="M3678.84,-219.98C3660.75,-211.5 3632.72,-198.35 3611.81,-188.54"/>
<polygon fill="#63b8ff" stroke="#63b8ff" points="3613.03,-185.25 3602.49,-184.17 3610.05,-191.59 3613.03,-185.25"/>
</a>
</g>
</g>
<!-- Node96 -->
<g id="Node000096" class="node">
<title>Node96</title>
<g id="a_Node000096"><a xlink:href="cbdata_8h.html" target="_top" xlink:title=" ">
<polygon fill="white" stroke="#666666" points="3860.5,-184 3801.5,-184 3801.5,-165 3860.5,-165 3860.5,-184"/>
<text text-anchor="middle" x="3831" y="-172" font-family="Helvetica,sans-Serif" font-size="10.00">cbdata.h</text>
</a>
</g>
</g>
<!-- Node90&#45;&gt;Node96 -->
<g id="edge51_Node000090_Node000096" class="edge">
<title>Node90&#45;&gt;Node96</title>
<g id="a_edge51_Node000090_Node000096"><a xlink:title=" ">
<path fill="none" stroke="#63b8ff" d="M3718.53,-219.98C3740.47,-211.3 3774.74,-197.75 3799.69,-187.88"/>
<polygon fill="#63b8ff" stroke="#63b8ff" points="3801.07,-191.1 3809.08,-184.17 3798.49,-184.59 3801.07,-191.1"/>
</a>
</g>
</g>
<!-- Node97 -->
<g id="Node000097" class="node">
<title>Node97</title>
<g id="a_Node000097"><a xlink:title=" ">
<polygon fill="#e0e0e0" stroke="#999999" points="3921.5,-184 3878.5,-184 3878.5,-165 3921.5,-165 3921.5,-184"/>
<text text-anchor="middle" x="3900" y="-172" font-family="Helvetica,sans-Serif" font-size="10.00">stack</text>
</a>
</g>
</g>
<!-- Node90&#45;&gt;Node97 -->
<g id="edge53_Node000090_Node000097" class="edge">
<title>Node90&#45;&gt;Node97</title>
<g id="a_edge53_Node000090_Node000097"><a xlink:title=" ">
<path fill="none" stroke="#63b8ff" d="M3731.2,-219.96C3764.1,-211.69 3815.48,-198.63 3868.48,-184.37"/>
<polygon fill="#63b8ff" stroke="#63b8ff" points="3869.65,-187.68 3878.39,-181.69 3867.82,-180.92 3869.65,-187.68"/>
</a>
</g>
</g>
<!-- Node91&#45;&gt;Node93 -->
<g id="edge47_Node000091_Node000093" class="edge">
<title>Node91&#45;&gt;Node93</title>
<g id="a_edge47_Node000091_Node000093"><a xlink:title=" ">
<path fill="none" stroke="#63b8ff" d="M3750.7,-164.75C3748.02,-157.65 3744.15,-147.4 3740.81,-138.56"/>
<polygon fill="#63b8ff" stroke="#63b8ff" points="3744.05,-137.21 3737.24,-129.09 3737.5,-139.68 3744.05,-137.21"/>
</a>
</g>
</g>
<!-- Node95&#45;&gt;Node56 -->
<g id="edge50_Node000095_Node000056" class="edge">
<title>Node95&#45;&gt;Node56</title>
<g id="a_edge50_Node000095_Node000056"><a xlink:title=" ">
<path fill="none" stroke="#63b8ff" d="M3584,-164.74C3584,-139.31 3584,-65.08 3584,-29.69"/>
<polygon fill="#63b8ff" stroke="#63b8ff" points="3587.5,-29.31 3584,-19.31 3580.5,-29.31 3587.5,-29.31"/>
</a>
</g>
</g>
<!-- Node95&#45;&gt;Node86 -->
<g id="edge49_Node000095_Node000086" class="edge">
<title>Node95&#45;&gt;Node86</title>
<g id="a_edge49_Node000095_Node000086"><a xlink:title=" ">
<path fill="none" stroke="#63b8ff" d="M3548.33,-164.98C3509.61,-155.74 3447.72,-140.96 3406,-131.01"/>
<polygon fill="#63b8ff" stroke="#63b8ff" points="3406.66,-127.56 3396.12,-128.65 3405.04,-134.37 3406.66,-127.56"/>
</a>
</g>
</g>
</g>
</svg>
