<?xml version="1.0" encoding="UTF-8" standalone="no"?>
<!DOCTYPE svg PUBLIC "-//W3C//DTD SVG 1.1//EN"
 "http://www.w3.org/Graphics/SVG/1.1/DTD/svg11.dtd">
<!-- Generated by graphviz version 2.43.0 (0)
 -->
<!-- Title: squid/src/proxyp/Header.h Pages: 1 -->
<svg width="936pt" height="93pt"
 viewBox="0.00 0.00 935.50 93.00" xmlns="http://www.w3.org/2000/svg" xmlns:xlink="http://www.w3.org/1999/xlink">
<g id="graph0" class="graph" transform="scale(1 1) rotate(0) translate(4 89)">
<title>squid/src/proxyp/Header.h</title>
<!-- Node1 -->
<g id="Node000001" class="node">
<title>Node1</title>
<g id="a_Node000001"><a xlink:title=" ">
<polygon fill="#999999" stroke="#666666" points="522.5,-85 379.5,-85 379.5,-66 522.5,-66 522.5,-85"/>
<text text-anchor="middle" x="451" y="-73" font-family="Helvetica,sans-Serif" font-size="10.00">squid/src/proxyp/Header.h</text>
</a>
</g>
</g>
<!-- Node2 -->
<g id="Node000002" class="node">
<title>Node2</title>
<g id="a_Node000002"><a xlink:href="AccessLogEntry_8cc.html" target="_top" xlink:title=" ">
<polygon fill="white" stroke="#666666" points="152,-24.5 0,-24.5 0,-5.5 152,-5.5 152,-24.5"/>
<text text-anchor="middle" x="76" y="-12.5" font-family="Helvetica,sans-Serif" font-size="10.00">squid/src/AccessLogEntry.cc</text>
</a>
</g>
</g>
<!-- Node1&#45;&gt;Node2 -->
<g id="edge1_Node000001_Node000002" class="edge">
<title>Node1&#45;&gt;Node2</title>
<g id="a_edge1_Node000001_Node000002"><a xlink:title=" ">
<path fill="none" stroke="#63b8ff" d="M384.39,-64.49C325.59,-55.6 237.56,-42.18 161,-30 150.07,-28.26 138.36,-26.36 127.23,-24.53"/>
<polygon fill="#63b8ff" stroke="#63b8ff" points="383.88,-67.95 394.29,-65.99 384.93,-61.03 383.88,-67.95"/>
</a>
</g>
</g>
<!-- Node3 -->
<g id="Node000003" class="node">
<title>Node3</title>
<g id="a_Node000003"><a xlink:href="client__side_8cc.html" target="_top" xlink:title=" ">
<polygon fill="white" stroke="#666666" points="299.5,-24.5 170.5,-24.5 170.5,-5.5 299.5,-5.5 299.5,-24.5"/>
<text text-anchor="middle" x="235" y="-12.5" font-family="Helvetica,sans-Serif" font-size="10.00">squid/src/client_side.cc</text>
</a>
</g>
</g>
<!-- Node1&#45;&gt;Node3 -->
<g id="edge2_Node000001_Node000003" class="edge">
<title>Node1&#45;&gt;Node3</title>
<g id="a_edge2_Node000001_Node000003"><a xlink:title=" ">
<path fill="none" stroke="#63b8ff" d="M409.73,-63.32C367.96,-52.01 304.3,-34.77 266.45,-24.52"/>
<polygon fill="#63b8ff" stroke="#63b8ff" points="409.02,-66.76 419.59,-65.99 410.85,-60 409.02,-66.76"/>
</a>
</g>
</g>
<!-- Node4 -->
<g id="Node000004" class="node">
<title>Node4</title>
<g id="a_Node000004"><a xlink:href="client__side__request_8cc.html" target="_top" xlink:title=" ">
<polygon fill="white" stroke="#666666" points="434,-30 318,-30 318,0 434,0 434,-30"/>
<text text-anchor="start" x="326" y="-18" font-family="Helvetica,sans-Serif" font-size="10.00">squid/src/client_side</text>
<text text-anchor="middle" x="376" y="-7" font-family="Helvetica,sans-Serif" font-size="10.00">_request.cc</text>
</a>
</g>
</g>
<!-- Node1&#45;&gt;Node4 -->
<g id="edge3_Node000001_Node000004" class="edge">
<title>Node1&#45;&gt;Node4</title>
<g id="a_edge3_Node000001_Node000004"><a xlink:title=" ">
<path fill="none" stroke="#63b8ff" d="M431.77,-59.5C420.17,-50.45 405.49,-39 394.1,-30.11"/>
<polygon fill="#63b8ff" stroke="#63b8ff" points="429.9,-62.48 439.93,-65.87 434.2,-56.96 429.9,-62.48"/>
</a>
</g>
</g>
<!-- Node5 -->
<g id="Node000005" class="node">
<title>Node5</title>
<g id="a_Node000005"><a xlink:href="Format_8cc.html" target="_top" xlink:title=" ">
<polygon fill="white" stroke="#666666" points="599.5,-24.5 452.5,-24.5 452.5,-5.5 599.5,-5.5 599.5,-24.5"/>
<text text-anchor="middle" x="526" y="-12.5" font-family="Helvetica,sans-Serif" font-size="10.00">squid/src/format/Format.cc</text>
</a>
</g>
</g>
<!-- Node1&#45;&gt;Node5 -->
<g id="edge4_Node000001_Node000005" class="edge">
<title>Node1&#45;&gt;Node5</title>
<g id="a_edge4_Node000001_Node000005"><a xlink:title=" ">
<path fill="none" stroke="#63b8ff" d="M470.18,-59.54C484.35,-48.49 503.13,-33.84 514.89,-24.67"/>
<polygon fill="#63b8ff" stroke="#63b8ff" points="467.8,-56.96 462.07,-65.87 472.1,-62.48 467.8,-56.96"/>
</a>
</g>
</g>
<!-- Node6 -->
<g id="Node000006" class="node">
<title>Node6</title>
<g id="a_Node000006"><a xlink:href="Header_8cc.html" target="_top" xlink:title=" ">
<polygon fill="white" stroke="#666666" points="766,-24.5 618,-24.5 618,-5.5 766,-5.5 766,-24.5"/>
<text text-anchor="middle" x="692" y="-12.5" font-family="Helvetica,sans-Serif" font-size="10.00">squid/src/proxyp/Header.cc</text>
</a>
</g>
</g>
<!-- Node1&#45;&gt;Node6 -->
<g id="edge5_Node000001_Node000006" class="edge">
<title>Node1&#45;&gt;Node6</title>
<g id="a_edge5_Node000001_Node000006"><a xlink:title=" ">
<path fill="none" stroke="#63b8ff" d="M495.87,-63.61C542.44,-52.3 614.33,-34.85 656.91,-24.52"/>
<polygon fill="#63b8ff" stroke="#63b8ff" points="494.94,-60.23 486.04,-65.99 496.59,-67.04 494.94,-60.23"/>
</a>
</g>
</g>
<!-- Node7 -->
<g id="Node000007" class="node">
<title>Node7</title>
<g id="a_Node000007"><a xlink:href="proxyp_2Parser_8cc.html" target="_top" xlink:title=" ">
<polygon fill="white" stroke="#666666" points="927.5,-24.5 784.5,-24.5 784.5,-5.5 927.5,-5.5 927.5,-24.5"/>
<text text-anchor="middle" x="856" y="-12.5" font-family="Helvetica,sans-Serif" font-size="10.00">squid/src/proxyp/Parser.cc</text>
</a>
</g>
</g>
<!-- Node1&#45;&gt;Node7 -->
<g id="edge6_Node000001_Node000007" class="edge">
<title>Node1&#45;&gt;Node7</title>
<g id="a_edge6_Node000001_Node000007"><a xlink:title=" ">
<path fill="none" stroke="#63b8ff" d="M528.39,-64.64C594.1,-56.08 690.85,-43.05 775,-30 785.72,-28.34 797.21,-26.43 808.07,-24.57"/>
<polygon fill="#63b8ff" stroke="#63b8ff" points="527.58,-61.21 518.12,-65.97 528.48,-68.15 527.58,-61.21"/>
</a>
</g>
</g>
</g>
</svg>
