<?xml version="1.0" encoding="UTF-8" standalone="no"?>
<!DOCTYPE svg PUBLIC "-//W3C//DTD SVG 1.1//EN"
 "http://www.w3.org/Graphics/SVG/1.1/DTD/svg11.dtd">
<!-- Generated by graphviz version 2.43.0 (0)
 -->
<!-- Title: squid/src/html/Quoting.cc Pages: 1 -->
<svg width="4142pt" height="302pt"
 viewBox="0.00 0.00 4141.90 302.00" xmlns="http://www.w3.org/2000/svg" xmlns:xlink="http://www.w3.org/1999/xlink">
<g id="graph0" class="graph" transform="scale(1 1) rotate(0) translate(4 298)">
<title>squid/src/html/Quoting.cc</title>
<!-- Node1 -->
<g id="Node000001" class="node">
<title>Node1</title>
<g id="a_Node000001"><a xlink:title=" ">
<polygon fill="#999999" stroke="#666666" points="3854,-294 3714,-294 3714,-275 3854,-275 3854,-294"/>
<text text-anchor="middle" x="3784" y="-282" font-family="Helvetica,sans-Serif" font-size="10.00">squid/src/html/Quoting.cc</text>
</a>
</g>
</g>
<!-- Node2 -->
<g id="Node000002" class="node">
<title>Node2</title>
<g id="a_Node000002"><a xlink:href="squid_8h.html" target="_top" xlink:title=" ">
<polygon fill="white" stroke="#666666" points="1743,-239 1691,-239 1691,-220 1743,-220 1743,-239"/>
<text text-anchor="middle" x="1717" y="-227" font-family="Helvetica,sans-Serif" font-size="10.00">squid.h</text>
</a>
</g>
</g>
<!-- Node1&#45;&gt;Node2 -->
<g id="edge1_Node000001_Node000002" class="edge">
<title>Node1&#45;&gt;Node2</title>
<g id="a_edge1_Node000001_Node000002"><a xlink:title=" ">
<path fill="none" stroke="#63b8ff" d="M3713.75,-281.7C3384,-273.24 1995.71,-237.65 1753.21,-231.43"/>
<polygon fill="#63b8ff" stroke="#63b8ff" points="1753.25,-227.93 1743.16,-231.17 1753.07,-234.93 1753.25,-227.93"/>
</a>
</g>
</g>
<!-- Node44 -->
<g id="Node000044" class="node">
<title>Node44</title>
<g id="a_Node000044"><a xlink:href="html_2Quoting_8h.html" target="_top" xlink:title=" ">
<polygon fill="white" stroke="#666666" points="3730.5,-239 3641.5,-239 3641.5,-220 3730.5,-220 3730.5,-239"/>
<text text-anchor="middle" x="3686" y="-227" font-family="Helvetica,sans-Serif" font-size="10.00">html/Quoting.h</text>
</a>
</g>
</g>
<!-- Node1&#45;&gt;Node44 -->
<g id="edge30_Node000001_Node000044" class="edge">
<title>Node1&#45;&gt;Node44</title>
<g id="a_edge30_Node000001_Node000044"><a xlink:title=" ">
<path fill="none" stroke="#63b8ff" d="M3768.25,-274.98C3752.77,-266.61 3728.91,-253.7 3710.86,-243.95"/>
<polygon fill="#63b8ff" stroke="#63b8ff" points="3712.49,-240.85 3702.03,-239.17 3709.16,-247.01 3712.49,-240.85"/>
</a>
</g>
</g>
<!-- Node45 -->
<g id="Node000045" class="node">
<title>Node45</title>
<g id="a_Node000045"><a xlink:href="SBuf_8h.html" target="_top" xlink:title=" ">
<polygon fill="white" stroke="#666666" points="3819.5,-239 3748.5,-239 3748.5,-220 3819.5,-220 3819.5,-239"/>
<text text-anchor="middle" x="3784" y="-227" font-family="Helvetica,sans-Serif" font-size="10.00">sbuf/SBuf.h</text>
</a>
</g>
</g>
<!-- Node1&#45;&gt;Node45 -->
<g id="edge31_Node000001_Node000045" class="edge">
<title>Node1&#45;&gt;Node45</title>
<g id="a_edge31_Node000001_Node000045"><a xlink:title=" ">
<path fill="none" stroke="#63b8ff" d="M3784,-274.75C3784,-267.8 3784,-257.85 3784,-249.13"/>
<polygon fill="#63b8ff" stroke="#63b8ff" points="3787.5,-249.09 3784,-239.09 3780.5,-249.09 3787.5,-249.09"/>
</a>
</g>
</g>
<!-- Node80 -->
<g id="Node000080" class="node">
<title>Node80</title>
<g id="a_Node000080"><a xlink:title=" ">
<polygon fill="#e0e0e0" stroke="#999999" points="3880,-239 3838,-239 3838,-220 3880,-220 3880,-239"/>
<text text-anchor="middle" x="3859" y="-227" font-family="Helvetica,sans-Serif" font-size="10.00">array</text>
</a>
</g>
</g>
<!-- Node1&#45;&gt;Node80 -->
<g id="edge54_Node000001_Node000080" class="edge">
<title>Node1&#45;&gt;Node80</title>
<g id="a_edge54_Node000001_Node000080"><a xlink:title=" ">
<path fill="none" stroke="#63b8ff" d="M3796.05,-274.98C3807.46,-266.92 3824.83,-254.65 3838.43,-245.03"/>
<polygon fill="#63b8ff" stroke="#63b8ff" points="3840.58,-247.8 3846.73,-239.17 3836.54,-242.08 3840.58,-247.8"/>
</a>
</g>
</g>
<!-- Node81 -->
<g id="Node000081" class="node">
<title>Node81</title>
<g id="a_Node000081"><a xlink:title=" ">
<polygon fill="#e0e0e0" stroke="#999999" points="3948,-239 3898,-239 3898,-220 3948,-220 3948,-239"/>
<text text-anchor="middle" x="3923" y="-227" font-family="Helvetica,sans-Serif" font-size="10.00">cstring</text>
</a>
</g>
</g>
<!-- Node1&#45;&gt;Node81 -->
<g id="edge55_Node000001_Node000081" class="edge">
<title>Node1&#45;&gt;Node81</title>
<g id="a_edge55_Node000001_Node000081"><a xlink:title=" ">
<path fill="none" stroke="#63b8ff" d="M3806.33,-274.98C3829.2,-266.27 3864.96,-252.63 3890.86,-242.75"/>
<polygon fill="#63b8ff" stroke="#63b8ff" points="3892.16,-246 3900.26,-239.17 3889.67,-239.46 3892.16,-246"/>
</a>
</g>
</g>
<!-- Node3 -->
<g id="Node000003" class="node">
<title>Node3</title>
<g id="a_Node000003"><a xlink:href="autoconf_8h.html" target="_top" xlink:title=" ">
<polygon fill="white" stroke="#666666" points="1802,-184 1734,-184 1734,-165 1802,-165 1802,-184"/>
<text text-anchor="middle" x="1768" y="-172" font-family="Helvetica,sans-Serif" font-size="10.00">autoconf.h</text>
</a>
</g>
</g>
<!-- Node2&#45;&gt;Node3 -->
<g id="edge2_Node000002_Node000003" class="edge">
<title>Node2&#45;&gt;Node3</title>
<g id="a_edge2_Node000002_Node000003"><a xlink:title=" ">
<path fill="none" stroke="#63b8ff" d="M1725.42,-219.75C1732.77,-212.11 1743.63,-200.82 1752.54,-191.56"/>
<polygon fill="#63b8ff" stroke="#63b8ff" points="1755.32,-193.72 1759.74,-184.09 1750.28,-188.87 1755.32,-193.72"/>
</a>
</g>
</g>
<!-- Node4 -->
<g id="Node000004" class="node">
<title>Node4</title>
<g id="a_Node000004"><a xlink:href="version_8h.html" target="_top" xlink:title=" ">
<polygon fill="white" stroke="#666666" points="1596,-184 1534,-184 1534,-165 1596,-165 1596,-184"/>
<text text-anchor="middle" x="1565" y="-172" font-family="Helvetica,sans-Serif" font-size="10.00">version.h</text>
</a>
</g>
</g>
<!-- Node2&#45;&gt;Node4 -->
<g id="edge3_Node000002_Node000004" class="edge">
<title>Node2&#45;&gt;Node4</title>
<g id="a_edge3_Node000002_Node000004"><a xlink:title=" ">
<path fill="none" stroke="#63b8ff" d="M1692.58,-219.98C1667.28,-211.16 1627.55,-197.31 1599.14,-187.41"/>
<polygon fill="#63b8ff" stroke="#63b8ff" points="1600.21,-184.07 1589.61,-184.08 1597.9,-190.68 1600.21,-184.07"/>
</a>
</g>
</g>
<!-- Node5 -->
<g id="Node000005" class="node">
<title>Node5</title>
<g id="a_Node000005"><a xlink:href="compat_8h.html" target="_top" xlink:title=" ">
<polygon fill="white" stroke="#666666" points="1716,-184 1614,-184 1614,-165 1716,-165 1716,-184"/>
<text text-anchor="middle" x="1665" y="-172" font-family="Helvetica,sans-Serif" font-size="10.00">compat/compat.h</text>
</a>
</g>
</g>
<!-- Node2&#45;&gt;Node5 -->
<g id="edge4_Node000002_Node000005" class="edge">
<title>Node2&#45;&gt;Node5</title>
<g id="a_edge4_Node000002_Node000005"><a xlink:title=" ">
<path fill="none" stroke="#63b8ff" d="M1708.41,-219.75C1700.84,-212.03 1689.62,-200.6 1680.49,-191.28"/>
<polygon fill="#63b8ff" stroke="#63b8ff" points="1682.93,-188.78 1673.43,-184.09 1677.93,-193.68 1682.93,-188.78"/>
</a>
</g>
</g>
<!-- Node6 -->
<g id="Node000006" class="node">
<title>Node6</title>
<g id="a_Node000006"><a xlink:href="osdetect_8h.html" target="_top" xlink:title=" ">
<polygon fill="white" stroke="#666666" points="2017.5,-129 1910.5,-129 1910.5,-110 2017.5,-110 2017.5,-129"/>
<text text-anchor="middle" x="1964" y="-117" font-family="Helvetica,sans-Serif" font-size="10.00">compat/osdetect.h</text>
</a>
</g>
</g>
<!-- Node5&#45;&gt;Node6 -->
<g id="edge5_Node000005_Node000006" class="edge">
<title>Node5&#45;&gt;Node6</title>
<g id="a_edge5_Node000005_Node000006"><a xlink:title=" ">
<path fill="none" stroke="#63b8ff" d="M1713.04,-164.98C1765.41,-155.7 1849.24,-140.84 1905.43,-130.88"/>
<polygon fill="#63b8ff" stroke="#63b8ff" points="1906.35,-134.27 1915.58,-129.08 1905.13,-127.38 1906.35,-134.27"/>
</a>
</g>
</g>
<!-- Node7 -->
<g id="Node000007" class="node">
<title>Node7</title>
<g id="a_Node000007"><a xlink:href="fdsetsize_8h.html" target="_top" xlink:title=" ">
<polygon fill="white" stroke="#666666" points="2146,-129 2036,-129 2036,-110 2146,-110 2146,-129"/>
<text text-anchor="middle" x="2091" y="-117" font-family="Helvetica,sans-Serif" font-size="10.00">compat/fdsetsize.h</text>
</a>
</g>
</g>
<!-- Node5&#45;&gt;Node7 -->
<g id="edge6_Node000005_Node000007" class="edge">
<title>Node5&#45;&gt;Node7</title>
<g id="a_edge6_Node000005_Node000007"><a xlink:title=" ">
<path fill="none" stroke="#63b8ff" d="M1716.05,-166.19C1719.08,-165.78 1722.08,-165.38 1725,-165 1855.33,-147.98 1890.61,-145.83 2025.38,-129.06"/>
<polygon fill="#63b8ff" stroke="#63b8ff" points="2026.2,-132.49 2035.69,-127.78 2025.33,-125.54 2026.2,-132.49"/>
</a>
</g>
</g>
<!-- Node8 -->
<g id="Node000008" class="node">
<title>Node8</title>
<g id="a_Node000008"><a xlink:href="types_8h.html" target="_top" xlink:title=" ">
<polygon fill="#fff0f0" stroke="red" points="2256,-129 2164,-129 2164,-110 2256,-110 2256,-129"/>
<text text-anchor="middle" x="2210" y="-117" font-family="Helvetica,sans-Serif" font-size="10.00">compat/types.h</text>
</a>
</g>
</g>
<!-- Node5&#45;&gt;Node8 -->
<g id="edge7_Node000005_Node000008" class="edge">
<title>Node5&#45;&gt;Node8</title>
<g id="a_edge7_Node000005_Node000008"><a xlink:title=" ">
<path fill="none" stroke="#63b8ff" d="M1716.04,-166.07C1719.07,-165.69 1722.07,-165.33 1725,-165 1912.32,-143.91 1962.85,-151.39 2153.73,-129.07"/>
<polygon fill="#63b8ff" stroke="#63b8ff" points="2154.3,-132.53 2163.82,-127.88 2153.48,-125.57 2154.3,-132.53"/>
</a>
</g>
</g>
<!-- Node10 -->
<g id="Node000010" class="node">
<title>Node10</title>
<g id="a_Node000010"><a xlink:href="aix_8h.html" target="_top" xlink:title=" ">
<polygon fill="white" stroke="#666666" points="2369.5,-129 2274.5,-129 2274.5,-110 2369.5,-110 2369.5,-129"/>
<text text-anchor="middle" x="2322" y="-117" font-family="Helvetica,sans-Serif" font-size="10.00">compat/os/aix.h</text>
</a>
</g>
</g>
<!-- Node5&#45;&gt;Node10 -->
<g id="edge8_Node000005_Node000010" class="edge">
<title>Node5&#45;&gt;Node10</title>
<g id="a_edge8_Node000005_Node000010"><a xlink:title=" ">
<path fill="none" stroke="#63b8ff" d="M1716.03,-166.01C1719.06,-165.64 1722.07,-165.3 1725,-165 1960.97,-140.45 2024.13,-154.37 2264.36,-128.97"/>
<polygon fill="#63b8ff" stroke="#63b8ff" points="2264.88,-132.43 2274.45,-127.89 2264.14,-125.47 2264.88,-132.43"/>
</a>
</g>
</g>
<!-- Node11 -->
<g id="Node000011" class="node">
<title>Node11</title>
<g id="a_Node000011"><a xlink:href="android_8h.html" target="_top" xlink:title=" ">
<polygon fill="white" stroke="#666666" points="2504,-129 2388,-129 2388,-110 2504,-110 2504,-129"/>
<text text-anchor="middle" x="2446" y="-117" font-family="Helvetica,sans-Serif" font-size="10.00">compat/os/android.h</text>
</a>
</g>
</g>
<!-- Node5&#45;&gt;Node11 -->
<g id="edge9_Node000005_Node000011" class="edge">
<title>Node5&#45;&gt;Node11</title>
<g id="a_edge9_Node000005_Node000011"><a xlink:title=" ">
<path fill="none" stroke="#63b8ff" d="M1716.03,-165.97C1719.06,-165.61 1722.07,-165.29 1725,-165 2011.02,-136.91 2086.81,-154.63 2377.79,-128.94"/>
<polygon fill="#63b8ff" stroke="#63b8ff" points="2378.14,-132.42 2387.79,-128.05 2377.52,-125.45 2378.14,-132.42"/>
</a>
</g>
</g>
<!-- Node12 -->
<g id="Node000012" class="node">
<title>Node12</title>
<g id="a_Node000012"><a xlink:href="dragonfly_8h.html" target="_top" xlink:title=" ">
<polygon fill="white" stroke="#666666" points="2646,-129 2522,-129 2522,-110 2646,-110 2646,-129"/>
<text text-anchor="middle" x="2584" y="-117" font-family="Helvetica,sans-Serif" font-size="10.00">compat/os/dragonfly.h</text>
</a>
</g>
</g>
<!-- Node5&#45;&gt;Node12 -->
<g id="edge10_Node000005_Node000012" class="edge">
<title>Node5&#45;&gt;Node12</title>
<g id="a_edge10_Node000005_Node000012"><a xlink:title=" ">
<path fill="none" stroke="#63b8ff" d="M1716.02,-165.94C1719.06,-165.59 1722.07,-165.27 1725,-165 2070.74,-132.69 2161.87,-157.38 2511.53,-129.05"/>
<polygon fill="#63b8ff" stroke="#63b8ff" points="2512.01,-132.53 2521.69,-128.22 2511.44,-125.55 2512.01,-132.53"/>
</a>
</g>
</g>
<!-- Node13 -->
<g id="Node000013" class="node">
<title>Node13</title>
<g id="a_Node000013"><a xlink:href="freebsd_8h.html" target="_top" xlink:title=" ">
<polygon fill="white" stroke="#666666" points="2780,-129 2664,-129 2664,-110 2780,-110 2780,-129"/>
<text text-anchor="middle" x="2722" y="-117" font-family="Helvetica,sans-Serif" font-size="10.00">compat/os/freebsd.h</text>
</a>
</g>
</g>
<!-- Node5&#45;&gt;Node13 -->
<g id="edge11_Node000005_Node000013" class="edge">
<title>Node5&#45;&gt;Node13</title>
<g id="a_edge11_Node000005_Node000013"><a xlink:title=" ">
<path fill="none" stroke="#63b8ff" d="M1716.02,-165.91C1719.06,-165.57 1722.07,-165.26 1725,-165 2133.66,-128.24 2241.04,-162.5 2653.81,-129.01"/>
<polygon fill="#63b8ff" stroke="#63b8ff" points="2654.25,-132.49 2663.93,-128.18 2653.68,-125.51 2654.25,-132.49"/>
</a>
</g>
</g>
<!-- Node14 -->
<g id="Node000014" class="node">
<title>Node14</title>
<g id="a_Node000014"><a xlink:href="hpux_8h.html" target="_top" xlink:title=" ">
<polygon fill="white" stroke="#666666" points="2902,-129 2798,-129 2798,-110 2902,-110 2902,-129"/>
<text text-anchor="middle" x="2850" y="-117" font-family="Helvetica,sans-Serif" font-size="10.00">compat/os/hpux.h</text>
</a>
</g>
</g>
<!-- Node5&#45;&gt;Node14 -->
<g id="edge12_Node000005_Node000014" class="edge">
<title>Node5&#45;&gt;Node14</title>
<g id="a_edge12_Node000005_Node000014"><a xlink:title=" ">
<path fill="none" stroke="#63b8ff" d="M1716.02,-165.89C1719.06,-165.56 1722.07,-165.26 1725,-165 2193.02,-124.05 2315.86,-169.06 2787.65,-129.01"/>
<polygon fill="#63b8ff" stroke="#63b8ff" points="2788.13,-132.48 2797.8,-128.14 2787.53,-125.51 2788.13,-132.48"/>
</a>
</g>
</g>
<!-- Node15 -->
<g id="Node000015" class="node">
<title>Node15</title>
<g id="a_Node000015"><a xlink:href="linux_8h.html" target="_top" xlink:title=" ">
<polygon fill="white" stroke="#666666" points="3024,-129 2920,-129 2920,-110 3024,-110 3024,-129"/>
<text text-anchor="middle" x="2972" y="-117" font-family="Helvetica,sans-Serif" font-size="10.00">compat/os/linux.h</text>
</a>
</g>
</g>
<!-- Node5&#45;&gt;Node15 -->
<g id="edge13_Node000005_Node000015" class="edge">
<title>Node5&#45;&gt;Node15</title>
<g id="a_edge13_Node000005_Node000015"><a xlink:title=" ">
<path fill="none" stroke="#63b8ff" d="M1716.02,-165.88C1719.05,-165.55 1722.06,-165.25 1725,-165 2247.09,-120.23 2383.79,-172.78 2909.67,-129"/>
<polygon fill="#63b8ff" stroke="#63b8ff" points="2910.13,-132.48 2919.8,-128.15 2909.54,-125.5 2910.13,-132.48"/>
</a>
</g>
</g>
<!-- Node16 -->
<g id="Node000016" class="node">
<title>Node16</title>
<g id="a_Node000016"><a xlink:href="macosx_8h.html" target="_top" xlink:title=" ">
<polygon fill="white" stroke="#666666" points="3160,-129 3042,-129 3042,-110 3160,-110 3160,-129"/>
<text text-anchor="middle" x="3101" y="-117" font-family="Helvetica,sans-Serif" font-size="10.00">compat/os/macosx.h</text>
</a>
</g>
</g>
<!-- Node5&#45;&gt;Node16 -->
<g id="edge14_Node000005_Node000016" class="edge">
<title>Node5&#45;&gt;Node16</title>
<g id="a_edge14_Node000005_Node000016"><a xlink:title=" ">
<path fill="none" stroke="#63b8ff" d="M1716.02,-165.87C1719.05,-165.54 1722.06,-165.25 1725,-165 2301.1,-116.42 2451.37,-172.45 3031.4,-129.03"/>
<polygon fill="#63b8ff" stroke="#63b8ff" points="3031.99,-132.5 3041.7,-128.26 3031.46,-125.52 3031.99,-132.5"/>
</a>
</g>
</g>
<!-- Node17 -->
<g id="Node000017" class="node">
<title>Node17</title>
<g id="a_Node000017"><a xlink:href="mingw_8h.html" target="_top" xlink:title=" ">
<polygon fill="white" stroke="#666666" points="112,-129 0,-129 0,-110 112,-110 112,-129"/>
<text text-anchor="middle" x="56" y="-117" font-family="Helvetica,sans-Serif" font-size="10.00">compat/os/mingw.h</text>
</a>
</g>
</g>
<!-- Node5&#45;&gt;Node17 -->
<g id="edge15_Node000005_Node000017" class="edge">
<title>Node5&#45;&gt;Node17</title>
<g id="a_edge15_Node000005_Node000017"><a xlink:title=" ">
<path fill="none" stroke="#63b8ff" d="M1613.98,-165.86C1610.95,-165.53 1607.94,-165.24 1605,-165 950.86,-110.92 780.53,-179.14 122.54,-129.02"/>
<polygon fill="#63b8ff" stroke="#63b8ff" points="122.57,-125.51 112.33,-128.24 122.03,-132.49 122.57,-125.51"/>
</a>
</g>
</g>
<!-- Node18 -->
<g id="Node000018" class="node">
<title>Node18</title>
<g id="a_Node000018"><a xlink:href="mswindows_8h.html" target="_top" xlink:title=" ">
<polygon fill="white" stroke="#666666" points="267.5,-129 130.5,-129 130.5,-110 267.5,-110 267.5,-129"/>
<text text-anchor="middle" x="199" y="-117" font-family="Helvetica,sans-Serif" font-size="10.00">compat/os/mswindows.h</text>
</a>
</g>
</g>
<!-- Node5&#45;&gt;Node18 -->
<g id="edge16_Node000005_Node000018" class="edge">
<title>Node5&#45;&gt;Node18</title>
<g id="a_edge16_Node000005_Node000018"><a xlink:title=" ">
<path fill="none" stroke="#63b8ff" d="M1613.98,-165.87C1610.95,-165.54 1607.94,-165.25 1605,-165 1019.5,-115.76 867.2,-168.85 277.85,-129.07"/>
<polygon fill="#63b8ff" stroke="#63b8ff" points="278.04,-125.57 267.82,-128.38 277.56,-132.55 278.04,-125.57"/>
</a>
</g>
</g>
<!-- Node19 -->
<g id="Node000019" class="node">
<title>Node19</title>
<g id="a_Node000019"><a xlink:href="netbsd_8h.html" target="_top" xlink:title=" ">
<polygon fill="white" stroke="#666666" points="398.5,-129 285.5,-129 285.5,-110 398.5,-110 398.5,-129"/>
<text text-anchor="middle" x="342" y="-117" font-family="Helvetica,sans-Serif" font-size="10.00">compat/os/netbsd.h</text>
</a>
</g>
</g>
<!-- Node5&#45;&gt;Node19 -->
<g id="edge17_Node000005_Node000019" class="edge">
<title>Node5&#45;&gt;Node19</title>
<g id="a_edge17_Node000005_Node000019"><a xlink:title=" ">
<path fill="none" stroke="#63b8ff" d="M1613.98,-165.88C1610.95,-165.55 1607.94,-165.25 1605,-165 1077.62,-119.86 939.73,-170.93 408.91,-129.07"/>
<polygon fill="#63b8ff" stroke="#63b8ff" points="408.93,-125.56 398.69,-128.25 408.38,-132.53 408.93,-125.56"/>
</a>
</g>
</g>
<!-- Node20 -->
<g id="Node000020" class="node">
<title>Node20</title>
<g id="a_Node000020"><a xlink:href="openbsd_8h.html" target="_top" xlink:title=" ">
<polygon fill="white" stroke="#666666" points="537.5,-129 416.5,-129 416.5,-110 537.5,-110 537.5,-129"/>
<text text-anchor="middle" x="477" y="-117" font-family="Helvetica,sans-Serif" font-size="10.00">compat/os/openbsd.h</text>
</a>
</g>
</g>
<!-- Node5&#45;&gt;Node20 -->
<g id="edge18_Node000005_Node000020" class="edge">
<title>Node5&#45;&gt;Node20</title>
<g id="a_edge18_Node000005_Node000020"><a xlink:title=" ">
<path fill="none" stroke="#63b8ff" d="M1613.98,-165.89C1610.94,-165.56 1607.93,-165.26 1605,-165 1139.18,-124.2 1017.22,-165.24 547.65,-129.05"/>
<polygon fill="#63b8ff" stroke="#63b8ff" points="547.79,-125.55 537.55,-128.27 547.25,-132.53 547.79,-125.55"/>
</a>
</g>
</g>
<!-- Node21 -->
<g id="Node000021" class="node">
<title>Node21</title>
<g id="a_Node000021"><a xlink:href="os2_8h.html" target="_top" xlink:title=" ">
<polygon fill="white" stroke="#666666" points="652.5,-129 555.5,-129 555.5,-110 652.5,-110 652.5,-129"/>
<text text-anchor="middle" x="604" y="-117" font-family="Helvetica,sans-Serif" font-size="10.00">compat/os/os2.h</text>
</a>
</g>
</g>
<!-- Node5&#45;&gt;Node21 -->
<g id="edge19_Node000005_Node000021" class="edge">
<title>Node5&#45;&gt;Node21</title>
<g id="a_edge19_Node000005_Node000021"><a xlink:title=" ">
<path fill="none" stroke="#63b8ff" d="M1613.98,-165.91C1610.94,-165.57 1607.93,-165.26 1605,-165 1190.63,-127.84 1081.4,-166.83 662.95,-128.96"/>
<polygon fill="#63b8ff" stroke="#63b8ff" points="662.97,-125.45 652.69,-128.02 662.33,-132.42 662.97,-125.45"/>
</a>
</g>
</g>
<!-- Node22 -->
<g id="Node000022" class="node">
<title>Node22</title>
<g id="a_Node000022"><a xlink:href="qnx_8h.html" target="_top" xlink:title=" ">
<polygon fill="white" stroke="#666666" points="769,-129 671,-129 671,-110 769,-110 769,-129"/>
<text text-anchor="middle" x="720" y="-117" font-family="Helvetica,sans-Serif" font-size="10.00">compat/os/qnx.h</text>
</a>
</g>
</g>
<!-- Node5&#45;&gt;Node22 -->
<g id="edge20_Node000005_Node000022" class="edge">
<title>Node5&#45;&gt;Node22</title>
<g id="a_edge20_Node000005_Node000022"><a xlink:title=" ">
<path fill="none" stroke="#63b8ff" d="M1613.98,-165.93C1610.94,-165.58 1607.93,-165.27 1605,-165 1241.97,-131.46 1145.99,-163.14 779.11,-128.99"/>
<polygon fill="#63b8ff" stroke="#63b8ff" points="779.29,-125.49 769.01,-128.04 778.63,-132.46 779.29,-125.49"/>
</a>
</g>
</g>
<!-- Node23 -->
<g id="Node000023" class="node">
<title>Node23</title>
<g id="a_Node000023"><a xlink:href="solaris_8h.html" target="_top" xlink:title=" ">
<polygon fill="white" stroke="#666666" points="899,-129 787,-129 787,-110 899,-110 899,-129"/>
<text text-anchor="middle" x="843" y="-117" font-family="Helvetica,sans-Serif" font-size="10.00">compat/os/solaris.h</text>
</a>
</g>
</g>
<!-- Node5&#45;&gt;Node23 -->
<g id="edge21_Node000005_Node000023" class="edge">
<title>Node5&#45;&gt;Node23</title>
<g id="a_edge21_Node000005_Node000023"><a xlink:title=" ">
<path fill="none" stroke="#63b8ff" d="M1613.97,-165.96C1610.94,-165.61 1607.93,-165.28 1605,-165 1299.56,-135.54 1218.64,-156.67 909.49,-129.06"/>
<polygon fill="#63b8ff" stroke="#63b8ff" points="909.61,-125.56 899.34,-128.14 908.98,-132.53 909.61,-125.56"/>
</a>
</g>
</g>
<!-- Node24 -->
<g id="Node000024" class="node">
<title>Node24</title>
<g id="a_Node000024"><a xlink:href="sunos_8h.html" target="_top" xlink:title=" ">
<polygon fill="white" stroke="#666666" points="1025,-129 917,-129 917,-110 1025,-110 1025,-129"/>
<text text-anchor="middle" x="971" y="-117" font-family="Helvetica,sans-Serif" font-size="10.00">compat/os/sunos.h</text>
</a>
</g>
</g>
<!-- Node5&#45;&gt;Node24 -->
<g id="edge22_Node000005_Node000024" class="edge">
<title>Node5&#45;&gt;Node24</title>
<g id="a_edge22_Node000005_Node000024"><a xlink:title=" ">
<path fill="none" stroke="#63b8ff" d="M1613.97,-166C1610.94,-165.64 1607.93,-165.3 1605,-165 1355.37,-139.49 1288.79,-153.63 1035.52,-129.08"/>
<polygon fill="#63b8ff" stroke="#63b8ff" points="1035.56,-125.56 1025.27,-128.07 1034.88,-132.53 1035.56,-125.56"/>
</a>
</g>
</g>
<!-- Node25 -->
<g id="Node000025" class="node">
<title>Node25</title>
<g id="a_Node000025"><a xlink:href="assert_8h.html" target="_top" xlink:title=" ">
<polygon fill="white" stroke="#666666" points="1138.5,-129 1043.5,-129 1043.5,-110 1138.5,-110 1138.5,-129"/>
<text text-anchor="middle" x="1091" y="-117" font-family="Helvetica,sans-Serif" font-size="10.00">compat/assert.h</text>
</a>
</g>
</g>
<!-- Node5&#45;&gt;Node25 -->
<g id="edge23_Node000005_Node000025" class="edge">
<title>Node5&#45;&gt;Node25</title>
<g id="a_edge23_Node000005_Node000025"><a xlink:title=" ">
<path fill="none" stroke="#63b8ff" d="M1613.96,-166.05C1610.93,-165.68 1607.93,-165.32 1605,-165 1405.75,-143.06 1352.15,-151.75 1148.67,-128.99"/>
<polygon fill="#63b8ff" stroke="#63b8ff" points="1148.88,-125.49 1138.55,-127.84 1148.1,-132.44 1148.88,-125.49"/>
</a>
</g>
</g>
<!-- Node26 -->
<g id="Node000026" class="node">
<title>Node26</title>
<g id="a_Node000026"><a xlink:href="compat__shared_8h.html" target="_top" xlink:title=" ">
<polygon fill="#fff0f0" stroke="red" points="1297,-129 1157,-129 1157,-110 1297,-110 1297,-129"/>
<text text-anchor="middle" x="1227" y="-117" font-family="Helvetica,sans-Serif" font-size="10.00">compat/compat_shared.h</text>
</a>
</g>
</g>
<!-- Node5&#45;&gt;Node26 -->
<g id="edge24_Node000005_Node000026" class="edge">
<title>Node5&#45;&gt;Node26</title>
<g id="a_edge24_Node000005_Node000026"><a xlink:title=" ">
<path fill="none" stroke="#63b8ff" d="M1613.95,-166.18C1610.92,-165.78 1607.92,-165.38 1605,-165 1502.31,-151.68 1383.69,-137.99 1307.13,-129.38"/>
<polygon fill="#63b8ff" stroke="#63b8ff" points="1307.4,-125.89 1297.08,-128.25 1306.62,-132.84 1307.4,-125.89"/>
</a>
</g>
</g>
<!-- Node36 -->
<g id="Node000036" class="node">
<title>Node36</title>
<g id="a_Node000036"><a xlink:href="stdvarargs_8h.html" target="_top" xlink:title=" ">
<polygon fill="#fff0f0" stroke="red" points="1432.5,-129 1315.5,-129 1315.5,-110 1432.5,-110 1432.5,-129"/>
<text text-anchor="middle" x="1374" y="-117" font-family="Helvetica,sans-Serif" font-size="10.00">compat/stdvarargs.h</text>
</a>
</g>
</g>
<!-- Node5&#45;&gt;Node36 -->
<g id="edge25_Node000005_Node000036" class="edge">
<title>Node5&#45;&gt;Node36</title>
<g id="a_edge25_Node000005_Node000036"><a xlink:title=" ">
<path fill="none" stroke="#63b8ff" d="M1618.25,-164.98C1567.28,-155.7 1485.69,-140.84 1431.01,-130.88"/>
<polygon fill="#63b8ff" stroke="#63b8ff" points="1431.59,-127.43 1421.12,-129.08 1430.33,-134.32 1431.59,-127.43"/>
</a>
</g>
</g>
<!-- Node38 -->
<g id="Node000038" class="node">
<title>Node38</title>
<g id="a_Node000038"><a xlink:href="stdio_8h.html" target="_top" xlink:title=" ">
<polygon fill="#fff0f0" stroke="red" points="1539.5,-129 1450.5,-129 1450.5,-110 1539.5,-110 1539.5,-129"/>
<text text-anchor="middle" x="1495" y="-117" font-family="Helvetica,sans-Serif" font-size="10.00">compat/stdio.h</text>
</a>
</g>
</g>
<!-- Node5&#45;&gt;Node38 -->
<g id="edge26_Node000005_Node000038" class="edge">
<title>Node5&#45;&gt;Node38</title>
<g id="a_edge26_Node000005_Node000038"><a xlink:title=" ">
<path fill="none" stroke="#63b8ff" d="M1637.69,-164.98C1609.15,-156.09 1564.17,-142.07 1532.36,-132.15"/>
<polygon fill="#63b8ff" stroke="#63b8ff" points="1533.12,-128.72 1522.53,-129.08 1531.03,-135.4 1533.12,-128.72"/>
</a>
</g>
</g>
<!-- Node40 -->
<g id="Node000040" class="node">
<title>Node40</title>
<g id="a_Node000040"><a xlink:href="statvfs_8h.html" target="_top" xlink:title=" ">
<polygon fill="white" stroke="#666666" points="1656.5,-129 1557.5,-129 1557.5,-110 1656.5,-110 1656.5,-129"/>
<text text-anchor="middle" x="1607" y="-117" font-family="Helvetica,sans-Serif" font-size="10.00">compat/statvfs.h</text>
</a>
</g>
</g>
<!-- Node5&#45;&gt;Node40 -->
<g id="edge27_Node000005_Node000040" class="edge">
<title>Node5&#45;&gt;Node40</title>
<g id="a_edge27_Node000005_Node000040"><a xlink:title=" ">
<path fill="none" stroke="#63b8ff" d="M1655.68,-164.98C1647.19,-157.23 1634.44,-145.58 1624.12,-136.14"/>
<polygon fill="#63b8ff" stroke="#63b8ff" points="1626.23,-133.33 1616.49,-129.17 1621.51,-138.5 1626.23,-133.33"/>
</a>
</g>
</g>
<!-- Node41 -->
<g id="Node000041" class="node">
<title>Node41</title>
<g id="a_Node000041"><a xlink:href="debug_8h.html" target="_top" xlink:title=" ">
<polygon fill="white" stroke="#666666" points="1769.5,-129 1674.5,-129 1674.5,-110 1769.5,-110 1769.5,-129"/>
<text text-anchor="middle" x="1722" y="-117" font-family="Helvetica,sans-Serif" font-size="10.00">compat/debug.h</text>
</a>
</g>
</g>
<!-- Node5&#45;&gt;Node41 -->
<g id="edge28_Node000005_Node000041" class="edge">
<title>Node5&#45;&gt;Node41</title>
<g id="a_edge28_Node000005_Node000041"><a xlink:title=" ">
<path fill="none" stroke="#63b8ff" d="M1674.16,-164.98C1682.5,-157.23 1695.03,-145.58 1705.18,-136.14"/>
<polygon fill="#63b8ff" stroke="#63b8ff" points="1707.74,-138.54 1712.68,-129.17 1702.97,-133.42 1707.74,-138.54"/>
</a>
</g>
</g>
<!-- Node42 -->
<g id="Node000042" class="node">
<title>Node42</title>
<g id="a_Node000042"><a xlink:href="valgrind_8h.html" target="_top" xlink:title=" ">
<polygon fill="#fff0f0" stroke="red" points="1892.5,-129 1787.5,-129 1787.5,-110 1892.5,-110 1892.5,-129"/>
<text text-anchor="middle" x="1840" y="-117" font-family="Helvetica,sans-Serif" font-size="10.00">compat/valgrind.h</text>
</a>
</g>
</g>
<!-- Node5&#45;&gt;Node42 -->
<g id="edge29_Node000005_Node000042" class="edge">
<title>Node5&#45;&gt;Node42</title>
<g id="a_edge29_Node000005_Node000042"><a xlink:title=" ">
<path fill="none" stroke="#63b8ff" d="M1693.12,-164.98C1722.62,-156.05 1769.19,-141.94 1801.97,-132.02"/>
<polygon fill="#63b8ff" stroke="#63b8ff" points="1803.11,-135.33 1811.66,-129.08 1801.08,-128.63 1803.11,-135.33"/>
</a>
</g>
</g>
<!-- Node46 -->
<g id="Node000046" class="node">
<title>Node46</title>
<g id="a_Node000046"><a xlink:href="InstanceId_8h.html" target="_top" xlink:title=" ">
<polygon fill="white" stroke="#666666" points="4126,-129 4024,-129 4024,-110 4126,-110 4126,-129"/>
<text text-anchor="middle" x="4075" y="-117" font-family="Helvetica,sans-Serif" font-size="10.00">base/InstanceId.h</text>
</a>
</g>
</g>
<!-- Node45&#45;&gt;Node46 -->
<g id="edge32_Node000045_Node000046" class="edge">
<title>Node45&#45;&gt;Node46</title>
<g id="a_edge32_Node000045_Node000046"><a xlink:title=" ">
<path fill="none" stroke="#63b8ff" d="M3819.82,-221.51C3822.92,-220.97 3826.01,-220.46 3829,-220 3895.36,-209.76 4084.44,-234.23 4129,-184 4143.98,-167.12 4120.67,-147.25 4100.17,-134.29"/>
<polygon fill="#63b8ff" stroke="#63b8ff" points="4101.76,-131.16 4091.38,-129.02 4098.16,-137.16 4101.76,-131.16"/>
</a>
</g>
</g>
<!-- Node47 -->
<g id="Node000047" class="node">
<title>Node47</title>
<g id="a_Node000047"><a xlink:title=" ">
<polygon fill="#e0e0e0" stroke="#999999" points="3943,-19 3895,-19 3895,0 3943,0 3943,-19"/>
<text text-anchor="middle" x="3919" y="-7" font-family="Helvetica,sans-Serif" font-size="10.00">iosfwd</text>
</a>
</g>
</g>
<!-- Node45&#45;&gt;Node47 -->
<g id="edge52_Node000045_Node000047" class="edge">
<title>Node45&#45;&gt;Node47</title>
<g id="a_edge52_Node000045_Node000047"><a xlink:title=" ">
<path fill="none" stroke="#63b8ff" d="M3819.6,-221.48C3874,-210.58 3972.06,-190.21 3977,-184 4015.66,-135.41 3961.43,-59.83 3933.65,-26.84"/>
<polygon fill="#63b8ff" stroke="#63b8ff" points="3936.11,-24.33 3926.92,-19.06 3930.82,-28.91 3936.11,-24.33"/>
</a>
</g>
</g>
<!-- Node48 -->
<g id="Node000048" class="node">
<title>Node48</title>
<g id="a_Node000048"><a xlink:href="TextException_8h.html" target="_top" xlink:title=" ">
<polygon fill="white" stroke="#666666" points="3355,-184 3235,-184 3235,-165 3355,-165 3355,-184"/>
<text text-anchor="middle" x="3295" y="-172" font-family="Helvetica,sans-Serif" font-size="10.00">base/TextException.h</text>
</a>
</g>
</g>
<!-- Node45&#45;&gt;Node48 -->
<g id="edge34_Node000045_Node000048" class="edge">
<title>Node45&#45;&gt;Node48</title>
<g id="a_edge34_Node000045_Node000048"><a xlink:title=" ">
<path fill="none" stroke="#63b8ff" d="M3748.03,-221.27C3745.32,-220.81 3742.62,-220.38 3740,-220 3608.28,-200.73 3453.38,-187.31 3365.44,-180.55"/>
<polygon fill="#63b8ff" stroke="#63b8ff" points="3365.55,-177.05 3355.31,-179.78 3365.02,-184.03 3365.55,-177.05"/>
</a>
</g>
</g>
<!-- Node52 -->
<g id="Node000052" class="node">
<title>Node52</title>
<g id="a_Node000052"><a xlink:href="debug_2Stream_8h.html" target="_top" xlink:title=" ">
<polygon fill="#fff0f0" stroke="red" points="3605,-184 3511,-184 3511,-165 3605,-165 3605,-184"/>
<text text-anchor="middle" x="3558" y="-172" font-family="Helvetica,sans-Serif" font-size="10.00">debug/Stream.h</text>
</a>
</g>
</g>
<!-- Node45&#45;&gt;Node52 -->
<g id="edge40_Node000045_Node000052" class="edge">
<title>Node45&#45;&gt;Node52</title>
<g id="a_edge40_Node000045_Node000052"><a xlink:title=" ">
<path fill="none" stroke="#63b8ff" d="M3748.44,-220.16C3709.54,-211.04 3647.06,-196.39 3604.35,-186.37"/>
<polygon fill="#63b8ff" stroke="#63b8ff" points="3605.01,-182.93 3594.48,-184.05 3603.41,-189.75 3605.01,-182.93"/>
</a>
</g>
</g>
<!-- Node57 -->
<g id="Node000057" class="node">
<title>Node57</title>
<g id="a_Node000057"><a xlink:href="globals_8h.html" target="_top" xlink:title=" ">
<polygon fill="#fff0f0" stroke="red" points="3722.5,-184 3661.5,-184 3661.5,-165 3722.5,-165 3722.5,-184"/>
<text text-anchor="middle" x="3692" y="-172" font-family="Helvetica,sans-Serif" font-size="10.00">globals.h</text>
</a>
</g>
</g>
<!-- Node45&#45;&gt;Node57 -->
<g id="edge45_Node000045_Node000057" class="edge">
<title>Node45&#45;&gt;Node57</title>
<g id="a_edge45_Node000045_Node000057"><a xlink:title=" ">
<path fill="none" stroke="#63b8ff" d="M3769.22,-219.98C3754.82,-211.69 3732.69,-198.94 3715.81,-189.22"/>
<polygon fill="#63b8ff" stroke="#63b8ff" points="3717.46,-186.13 3707.05,-184.17 3713.97,-192.19 3717.46,-186.13"/>
</a>
</g>
</g>
<!-- Node68 -->
<g id="Node000068" class="node">
<title>Node68</title>
<g id="a_Node000068"><a xlink:href="sbuf_2forward_8h.html" target="_top" xlink:title=" ">
<polygon fill="#fff0f0" stroke="red" points="3827.5,-184 3740.5,-184 3740.5,-165 3827.5,-165 3827.5,-184"/>
<text text-anchor="middle" x="3784" y="-172" font-family="Helvetica,sans-Serif" font-size="10.00">sbuf/forward.h</text>
</a>
</g>
</g>
<!-- Node45&#45;&gt;Node68 -->
<g id="edge46_Node000045_Node000068" class="edge">
<title>Node45&#45;&gt;Node68</title>
<g id="a_edge46_Node000045_Node000068"><a xlink:title=" ">
<path fill="none" stroke="#63b8ff" d="M3784,-219.75C3784,-212.8 3784,-202.85 3784,-194.13"/>
<polygon fill="#63b8ff" stroke="#63b8ff" points="3787.5,-194.09 3784,-184.09 3780.5,-194.09 3787.5,-194.09"/>
</a>
</g>
</g>
<!-- Node75 -->
<g id="Node000075" class="node">
<title>Node75</title>
<g id="a_Node000075"><a xlink:href="MemBlob_8h.html" target="_top" xlink:title=" ">
<polygon fill="#fff0f0" stroke="red" points="4120,-184 4024,-184 4024,-165 4120,-165 4120,-184"/>
<text text-anchor="middle" x="4072" y="-172" font-family="Helvetica,sans-Serif" font-size="10.00">sbuf/MemBlob.h</text>
</a>
</g>
</g>
<!-- Node45&#45;&gt;Node75 -->
<g id="edge47_Node000045_Node000075" class="edge">
<title>Node45&#45;&gt;Node75</title>
<g id="a_edge47_Node000045_Node000075"><a xlink:title=" ">
<path fill="none" stroke="#63b8ff" d="M3819.86,-221.71C3822.95,-221.13 3826.03,-220.55 3829,-220 3892.58,-208.17 3965.56,-194.84 4014.81,-185.88"/>
<polygon fill="#63b8ff" stroke="#63b8ff" points="4015.73,-189.27 4024.95,-184.04 4014.48,-182.38 4015.73,-189.27"/>
</a>
</g>
</g>
<!-- Node77 -->
<g id="Node000077" class="node">
<title>Node77</title>
<g id="a_Node000077"><a xlink:href="sbuf_2Stats_8h.html" target="_top" xlink:title=" ">
<polygon fill="white" stroke="#666666" points="3858,-74 3784,-74 3784,-55 3858,-55 3858,-74"/>
<text text-anchor="middle" x="3821" y="-62" font-family="Helvetica,sans-Serif" font-size="10.00">sbuf/Stats.h</text>
</a>
</g>
</g>
<!-- Node45&#45;&gt;Node77 -->
<g id="edge49_Node000045_Node000077" class="edge">
<title>Node45&#45;&gt;Node77</title>
<g id="a_edge49_Node000045_Node000077"><a xlink:title=" ">
<path fill="none" stroke="#63b8ff" d="M3748.24,-221.23C3713.48,-213.35 3664.3,-199.77 3653,-184 3648.08,-177.14 3648.54,-172.17 3653,-165 3672.1,-134.28 3694.67,-147.09 3726,-129 3752.72,-113.57 3782.04,-93.45 3800.94,-80.03"/>
<polygon fill="#63b8ff" stroke="#63b8ff" points="3803.23,-82.7 3809.32,-74.03 3799.15,-77.01 3803.23,-82.7"/>
</a>
</g>
</g>
<!-- Node78 -->
<g id="Node000078" class="node">
<title>Node78</title>
<g id="a_Node000078"><a xlink:title=" ">
<polygon fill="#e0e0e0" stroke="#999999" points="3896,-184 3846,-184 3846,-165 3896,-165 3896,-184"/>
<text text-anchor="middle" x="3871" y="-172" font-family="Helvetica,sans-Serif" font-size="10.00">climits</text>
</a>
</g>
</g>
<!-- Node45&#45;&gt;Node78 -->
<g id="edge51_Node000045_Node000078" class="edge">
<title>Node45&#45;&gt;Node78</title>
<g id="a_edge51_Node000045_Node000078"><a xlink:title=" ">
<path fill="none" stroke="#63b8ff" d="M3797.98,-219.98C3811.47,-211.77 3832.13,-199.18 3848.04,-189.49"/>
<polygon fill="#63b8ff" stroke="#63b8ff" points="3850.05,-192.36 3856.77,-184.17 3846.41,-186.38 3850.05,-192.36"/>
</a>
</g>
</g>
<!-- Node79 -->
<g id="Node000079" class="node">
<title>Node79</title>
<g id="a_Node000079"><a xlink:title=" ">
<polygon fill="#e0e0e0" stroke="#999999" points="3967.5,-184 3914.5,-184 3914.5,-165 3967.5,-165 3967.5,-184"/>
<text text-anchor="middle" x="3941" y="-172" font-family="Helvetica,sans-Serif" font-size="10.00">iterator</text>
</a>
</g>
</g>
<!-- Node45&#45;&gt;Node79 -->
<g id="edge53_Node000045_Node000079" class="edge">
<title>Node45&#45;&gt;Node79</title>
<g id="a_edge53_Node000045_Node000079"><a xlink:title=" ">
<path fill="none" stroke="#63b8ff" d="M3809.22,-219.98C3835.36,-211.16 3876.4,-197.31 3905.73,-187.41"/>
<polygon fill="#63b8ff" stroke="#63b8ff" points="3907.22,-190.6 3915.58,-184.08 3904.98,-183.96 3907.22,-190.6"/>
</a>
</g>
</g>
<!-- Node46&#45;&gt;Node47 -->
<g id="edge33_Node000046_Node000047" class="edge">
<title>Node46&#45;&gt;Node47</title>
<g id="a_edge33_Node000046_Node000047"><a xlink:title=" ">
<path fill="none" stroke="#63b8ff" d="M4067.73,-109.8C4056.42,-96.66 4033.46,-71.55 4010,-55 3991.69,-42.09 3969.07,-31 3950.96,-23.13"/>
<polygon fill="#63b8ff" stroke="#63b8ff" points="3951.99,-19.77 3941.42,-19.09 3949.26,-26.21 3951.99,-19.77"/>
</a>
</g>
</g>
<!-- Node49 -->
<g id="Node000049" class="node">
<title>Node49</title>
<g id="a_Node000049"><a xlink:href="Assure_8h.html" target="_top" xlink:title=" ">
<polygon fill="white" stroke="#666666" points="3384.5,-129 3299.5,-129 3299.5,-110 3384.5,-110 3384.5,-129"/>
<text text-anchor="middle" x="3342" y="-117" font-family="Helvetica,sans-Serif" font-size="10.00">base/Assure.h</text>
</a>
</g>
</g>
<!-- Node48&#45;&gt;Node49 -->
<g id="edge35_Node000048_Node000049" class="edge">
<title>Node48&#45;&gt;Node49</title>
<g id="a_edge35_Node000048_Node000049"><a xlink:title=" ">
<path fill="none" stroke="#63b8ff" d="M3302.76,-164.75C3309.47,-157.18 3319.34,-146.05 3327.51,-136.84"/>
<polygon fill="#63b8ff" stroke="#63b8ff" points="3330.37,-138.89 3334.38,-129.09 3325.13,-134.25 3330.37,-138.89"/>
</a>
</g>
</g>
<!-- Node50 -->
<g id="Node000050" class="node">
<title>Node50</title>
<g id="a_Node000050"><a xlink:href="Here_8h.html" target="_top" xlink:title=" ">
<polygon fill="white" stroke="#666666" points="3415.5,-74 3340.5,-74 3340.5,-55 3415.5,-55 3415.5,-74"/>
<text text-anchor="middle" x="3378" y="-62" font-family="Helvetica,sans-Serif" font-size="10.00">base/Here.h</text>
</a>
</g>
</g>
<!-- Node48&#45;&gt;Node50 -->
<g id="edge38_Node000048_Node000050" class="edge">
<title>Node48&#45;&gt;Node50</title>
<g id="a_edge38_Node000048_Node000050"><a xlink:title=" ">
<path fill="none" stroke="#63b8ff" d="M3263.8,-164.93C3231.33,-154.45 3187.7,-134.97 3207,-110 3222.04,-90.54 3285.35,-78 3330.54,-71.34"/>
<polygon fill="#63b8ff" stroke="#63b8ff" points="3331.05,-74.81 3340.46,-69.93 3330.06,-67.88 3331.05,-74.81"/>
</a>
</g>
</g>
<!-- Node51 -->
<g id="Node000051" class="node">
<title>Node51</title>
<g id="a_Node000051"><a xlink:title=" ">
<polygon fill="#e0e0e0" stroke="#999999" points="3281.5,-129 3216.5,-129 3216.5,-110 3281.5,-110 3281.5,-129"/>
<text text-anchor="middle" x="3249" y="-117" font-family="Helvetica,sans-Serif" font-size="10.00">stdexcept</text>
</a>
</g>
</g>
<!-- Node48&#45;&gt;Node51 -->
<g id="edge39_Node000048_Node000051" class="edge">
<title>Node48&#45;&gt;Node51</title>
<g id="a_edge39_Node000048_Node000051"><a xlink:title=" ">
<path fill="none" stroke="#63b8ff" d="M3287.4,-164.75C3280.84,-157.18 3271.18,-146.05 3263.19,-136.84"/>
<polygon fill="#63b8ff" stroke="#63b8ff" points="3265.65,-134.35 3256.45,-129.09 3260.37,-138.94 3265.65,-134.35"/>
</a>
</g>
</g>
<!-- Node49&#45;&gt;Node50 -->
<g id="edge36_Node000049_Node000050" class="edge">
<title>Node49&#45;&gt;Node50</title>
<g id="a_edge36_Node000049_Node000050"><a xlink:title=" ">
<path fill="none" stroke="#63b8ff" d="M3347.94,-109.75C3352.98,-102.34 3360.34,-91.5 3366.51,-82.41"/>
<polygon fill="#63b8ff" stroke="#63b8ff" points="3369.44,-84.33 3372.17,-74.09 3363.65,-80.39 3369.44,-84.33"/>
</a>
</g>
</g>
<!-- Node50&#45;&gt;Node47 -->
<g id="edge37_Node000050_Node000047" class="edge">
<title>Node50&#45;&gt;Node47</title>
<g id="a_edge37_Node000050_Node000047"><a xlink:title=" ">
<path fill="none" stroke="#63b8ff" d="M3415.61,-59.82C3515.85,-50 3788.32,-23.3 3884.68,-13.86"/>
<polygon fill="#63b8ff" stroke="#63b8ff" points="3885.14,-17.33 3894.75,-12.88 3884.46,-10.37 3885.14,-17.33"/>
</a>
</g>
</g>
<!-- Node52&#45;&gt;Node50 -->
<g id="edge41_Node000052_Node000050" class="edge">
<title>Node52&#45;&gt;Node50</title>
<g id="a_edge41_Node000052_Node000050"><a xlink:title=" ">
<path fill="none" stroke="#63b8ff" d="M3517.45,-164.97C3491.43,-158.16 3457.8,-146.76 3432,-129 3414.01,-116.62 3398.46,-96.76 3388.73,-82.55"/>
<polygon fill="#63b8ff" stroke="#63b8ff" points="3391.63,-80.59 3383.21,-74.16 3385.78,-84.44 3391.63,-80.59"/>
</a>
</g>
</g>
<!-- Node53 -->
<g id="Node000053" class="node">
<title>Node53</title>
<g id="a_Node000053"><a xlink:href="AllocatorProxy_8h.html" target="_top" xlink:title=" ">
<polygon fill="white" stroke="#666666" points="3565,-129 3441,-129 3441,-110 3565,-110 3565,-129"/>
<text text-anchor="middle" x="3503" y="-117" font-family="Helvetica,sans-Serif" font-size="10.00">mem/AllocatorProxy.h</text>
</a>
</g>
</g>
<!-- Node52&#45;&gt;Node53 -->
<g id="edge42_Node000052_Node000053" class="edge">
<title>Node52&#45;&gt;Node53</title>
<g id="a_edge42_Node000052_Node000053"><a xlink:title=" ">
<path fill="none" stroke="#63b8ff" d="M3548.92,-164.75C3540.91,-157.03 3529.04,-145.6 3519.38,-136.28"/>
<polygon fill="#63b8ff" stroke="#63b8ff" points="3521.54,-133.51 3511.91,-129.09 3516.69,-138.55 3521.54,-133.51"/>
</a>
</g>
</g>
<!-- Node54 -->
<g id="Node000054" class="node">
<title>Node54</title>
<g id="a_Node000054"><a xlink:title=" ">
<polygon fill="#e0e0e0" stroke="#999999" points="3643,-129 3583,-129 3583,-110 3643,-110 3643,-129"/>
<text text-anchor="middle" x="3613" y="-117" font-family="Helvetica,sans-Serif" font-size="10.00">iostream</text>
</a>
</g>
</g>
<!-- Node52&#45;&gt;Node54 -->
<g id="edge43_Node000052_Node000054" class="edge">
<title>Node52&#45;&gt;Node54</title>
<g id="a_edge43_Node000052_Node000054"><a xlink:title=" ">
<path fill="none" stroke="#63b8ff" d="M3567.08,-164.75C3575.09,-157.03 3586.96,-145.6 3596.62,-136.28"/>
<polygon fill="#63b8ff" stroke="#63b8ff" points="3599.31,-138.55 3604.09,-129.09 3594.46,-133.51 3599.31,-138.55"/>
</a>
</g>
</g>
<!-- Node55 -->
<g id="Node000055" class="node">
<title>Node55</title>
<g id="a_Node000055"><a xlink:title=" ">
<polygon fill="#e0e0e0" stroke="#999999" points="3717,-129 3661,-129 3661,-110 3717,-110 3717,-129"/>
<text text-anchor="middle" x="3689" y="-117" font-family="Helvetica,sans-Serif" font-size="10.00">sstream</text>
</a>
</g>
</g>
<!-- Node52&#45;&gt;Node55 -->
<g id="edge44_Node000052_Node000055" class="edge">
<title>Node52&#45;&gt;Node55</title>
<g id="a_edge44_Node000052_Node000055"><a xlink:title=" ">
<path fill="none" stroke="#63b8ff" d="M3579.05,-164.98C3600.41,-156.34 3633.7,-142.87 3658.06,-133.02"/>
<polygon fill="#63b8ff" stroke="#63b8ff" points="3659.61,-136.17 3667.57,-129.17 3656.99,-129.68 3659.61,-136.17"/>
</a>
</g>
</g>
<!-- Node75&#45;&gt;Node46 -->
<g id="edge48_Node000075_Node000046" class="edge">
<title>Node75&#45;&gt;Node46</title>
<g id="a_edge48_Node000075_Node000046"><a xlink:title=" ">
<path fill="none" stroke="#63b8ff" d="M4072.5,-164.75C4072.89,-157.8 4073.45,-147.85 4073.95,-139.13"/>
<polygon fill="#63b8ff" stroke="#63b8ff" points="4077.44,-139.27 4074.51,-129.09 4070.45,-138.88 4077.44,-139.27"/>
</a>
</g>
</g>
<!-- Node77&#45;&gt;Node47 -->
<g id="edge50_Node000077_Node000047" class="edge">
<title>Node77&#45;&gt;Node47</title>
<g id="a_edge50_Node000077_Node000047"><a xlink:title=" ">
<path fill="none" stroke="#63b8ff" d="M3836.75,-54.98C3852.23,-46.61 3876.09,-33.7 3894.14,-23.95"/>
<polygon fill="#63b8ff" stroke="#63b8ff" points="3895.84,-27.01 3902.97,-19.17 3892.51,-20.85 3895.84,-27.01"/>
</a>
</g>
</g>
</g>
</svg>
