<?xml version="1.0" encoding="UTF-8" standalone="no"?>
<!DOCTYPE svg PUBLIC "-//W3C//DTD SVG 1.1//EN"
 "http://www.w3.org/Graphics/SVG/1.1/DTD/svg11.dtd">
<!-- Generated by graphviz version 2.43.0 (0)
 -->
<!-- Title: squid/src/HttpHdrContRange.cc Pages: 1 -->
<svg width="3640pt" height="357pt"
 viewBox="0.00 0.00 3640.00 357.00" xmlns="http://www.w3.org/2000/svg" xmlns:xlink="http://www.w3.org/1999/xlink">
<g id="graph0" class="graph" transform="scale(1 1) rotate(0) translate(4 353)">
<title>squid/src/HttpHdrContRange.cc</title>
<!-- Node1 -->
<g id="Node000001" class="node">
<title>Node1</title>
<g id="a_Node000001"><a xlink:title=" ">
<polygon fill="#999999" stroke="#666666" points="3315.5,-349 3147.5,-349 3147.5,-330 3315.5,-330 3315.5,-349"/>
<text text-anchor="middle" x="3231.5" y="-337" font-family="Helvetica,sans-Serif" font-size="10.00">squid/src/HttpHdrContRange.cc</text>
</a>
</g>
</g>
<!-- Node2 -->
<g id="Node000002" class="node">
<title>Node2</title>
<g id="a_Node000002"><a xlink:href="squid_8h.html" target="_top" xlink:title=" ">
<polygon fill="white" stroke="#666666" points="1637.5,-294 1585.5,-294 1585.5,-275 1637.5,-275 1637.5,-294"/>
<text text-anchor="middle" x="1611.5" y="-282" font-family="Helvetica,sans-Serif" font-size="10.00">squid.h</text>
</a>
</g>
</g>
<!-- Node1&#45;&gt;Node2 -->
<g id="edge1_Node000001_Node000002" class="edge">
<title>Node1&#45;&gt;Node2</title>
<g id="a_edge1_Node000001_Node000002"><a xlink:title=" ">
<path fill="none" stroke="#63b8ff" d="M3147.25,-335.74C2849.12,-325.99 1851.11,-293.34 1647.83,-286.69"/>
<polygon fill="#63b8ff" stroke="#63b8ff" points="1647.8,-283.19 1637.69,-286.36 1647.57,-290.18 1647.8,-283.19"/>
</a>
</g>
</g>
<!-- Node44 -->
<g id="Node000044" class="node">
<title>Node44</title>
<g id="a_Node000044"><a xlink:href="Packable_8h.html" target="_top" xlink:title=" ">
<polygon fill="white" stroke="#666666" points="3160,-294 3065,-294 3065,-275 3160,-275 3160,-294"/>
<text text-anchor="middle" x="3112.5" y="-282" font-family="Helvetica,sans-Serif" font-size="10.00">base/Packable.h</text>
</a>
</g>
</g>
<!-- Node1&#45;&gt;Node44 -->
<g id="edge30_Node000001_Node000044" class="edge">
<title>Node1&#45;&gt;Node44</title>
<g id="a_edge30_Node000001_Node000044"><a xlink:title=" ">
<path fill="none" stroke="#63b8ff" d="M3212.38,-329.98C3193.15,-321.42 3163.27,-308.11 3141.19,-298.28"/>
<polygon fill="#63b8ff" stroke="#63b8ff" points="3142.53,-295.04 3131.97,-294.17 3139.68,-301.44 3142.53,-295.04"/>
</a>
</g>
</g>
<!-- Node45 -->
<g id="Node000045" class="node">
<title>Node45</title>
<g id="a_Node000045"><a xlink:href="debug_2Stream_8h.html" target="_top" xlink:title=" ">
<polygon fill="white" stroke="#666666" points="3253.5,-129 3159.5,-129 3159.5,-110 3253.5,-110 3253.5,-129"/>
<text text-anchor="middle" x="3206.5" y="-117" font-family="Helvetica,sans-Serif" font-size="10.00">debug/Stream.h</text>
</a>
</g>
</g>
<!-- Node1&#45;&gt;Node45 -->
<g id="edge31_Node000001_Node000045" class="edge">
<title>Node1&#45;&gt;Node45</title>
<g id="a_edge31_Node000001_Node000045"><a xlink:title=" ">
<path fill="none" stroke="#63b8ff" d="M3228.07,-329.79C3224.75,-320.94 3219.87,-306.74 3217.5,-294 3207.17,-238.5 3206.06,-171.49 3206.22,-139.41"/>
<polygon fill="#63b8ff" stroke="#63b8ff" points="3209.72,-139.29 3206.31,-129.26 3202.72,-139.22 3209.72,-139.29"/>
</a>
</g>
</g>
<!-- Node52 -->
<g id="Node000052" class="node">
<title>Node52</title>
<g id="a_Node000052"><a xlink:href="enums_8h.html" target="_top" xlink:title=" ">
<polygon fill="white" stroke="#666666" points="3565,-294 3506,-294 3506,-275 3565,-275 3565,-294"/>
<text text-anchor="middle" x="3535.5" y="-282" font-family="Helvetica,sans-Serif" font-size="10.00">enums.h</text>
</a>
</g>
</g>
<!-- Node1&#45;&gt;Node52 -->
<g id="edge38_Node000001_Node000052" class="edge">
<title>Node1&#45;&gt;Node52</title>
<g id="a_edge38_Node000001_Node000052"><a xlink:title=" ">
<path fill="none" stroke="#63b8ff" d="M3286.96,-329.98C3338.47,-321.9 3417.54,-309.02 3495.7,-294.07"/>
<polygon fill="#63b8ff" stroke="#63b8ff" points="3496.56,-297.47 3505.72,-292.15 3495.24,-290.6 3496.56,-297.47"/>
</a>
</g>
</g>
<!-- Node53 -->
<g id="Node000053" class="node">
<title>Node53</title>
<g id="a_Node000053"><a xlink:href="HttpHdrContRange_8h.html" target="_top" xlink:title=" ">
<polygon fill="white" stroke="#666666" points="3344,-294 3227,-294 3227,-275 3344,-275 3344,-294"/>
<text text-anchor="middle" x="3285.5" y="-282" font-family="Helvetica,sans-Serif" font-size="10.00">HttpHdrContRange.h</text>
</a>
</g>
</g>
<!-- Node1&#45;&gt;Node53 -->
<g id="edge39_Node000001_Node000053" class="edge">
<title>Node1&#45;&gt;Node53</title>
<g id="a_edge39_Node000001_Node000053"><a xlink:title=" ">
<path fill="none" stroke="#63b8ff" d="M3240.42,-329.75C3248.28,-322.03 3259.93,-310.6 3269.42,-301.28"/>
<polygon fill="#63b8ff" stroke="#63b8ff" points="3272.06,-303.59 3276.75,-294.09 3267.16,-298.6 3272.06,-303.59"/>
</a>
</g>
</g>
<!-- Node66 -->
<g id="Node000066" class="node">
<title>Node66</title>
<g id="a_Node000066"><a xlink:href="HttpHeaderTools_8h.html" target="_top" xlink:title=" ">
<polygon fill="white" stroke="#666666" points="3488,-294 3381,-294 3381,-275 3488,-275 3488,-294"/>
<text text-anchor="middle" x="3434.5" y="-282" font-family="Helvetica,sans-Serif" font-size="10.00">HttpHeaderTools.h</text>
</a>
</g>
</g>
<!-- Node1&#45;&gt;Node66 -->
<g id="edge51_Node000001_Node000066" class="edge">
<title>Node1&#45;&gt;Node66</title>
<g id="a_edge51_Node000001_Node000066"><a xlink:title=" ">
<path fill="none" stroke="#63b8ff" d="M3264.12,-329.98C3298.79,-320.93 3353.76,-306.58 3391.85,-296.64"/>
<polygon fill="#63b8ff" stroke="#63b8ff" points="3392.84,-299.99 3401.63,-294.08 3391.07,-293.22 3392.84,-299.99"/>
</a>
</g>
</g>
<!-- Node3 -->
<g id="Node000003" class="node">
<title>Node3</title>
<g id="a_Node000003"><a xlink:href="autoconf_8h.html" target="_top" xlink:title=" ">
<polygon fill="white" stroke="#666666" points="1512.5,-239 1444.5,-239 1444.5,-220 1512.5,-220 1512.5,-239"/>
<text text-anchor="middle" x="1478.5" y="-227" font-family="Helvetica,sans-Serif" font-size="10.00">autoconf.h</text>
</a>
</g>
</g>
<!-- Node2&#45;&gt;Node3 -->
<g id="edge2_Node000002_Node000003" class="edge">
<title>Node2&#45;&gt;Node3</title>
<g id="a_edge2_Node000002_Node000003"><a xlink:title=" ">
<path fill="none" stroke="#63b8ff" d="M1590.13,-274.98C1568.35,-266.3 1534.34,-252.75 1509.58,-242.88"/>
<polygon fill="#63b8ff" stroke="#63b8ff" points="1510.84,-239.62 1500.26,-239.17 1508.25,-246.12 1510.84,-239.62"/>
</a>
</g>
</g>
<!-- Node4 -->
<g id="Node000004" class="node">
<title>Node4</title>
<g id="a_Node000004"><a xlink:href="version_8h.html" target="_top" xlink:title=" ">
<polygon fill="white" stroke="#666666" points="1592.5,-239 1530.5,-239 1530.5,-220 1592.5,-220 1592.5,-239"/>
<text text-anchor="middle" x="1561.5" y="-227" font-family="Helvetica,sans-Serif" font-size="10.00">version.h</text>
</a>
</g>
</g>
<!-- Node2&#45;&gt;Node4 -->
<g id="edge3_Node000002_Node000004" class="edge">
<title>Node2&#45;&gt;Node4</title>
<g id="a_edge3_Node000002_Node000004"><a xlink:title=" ">
<path fill="none" stroke="#63b8ff" d="M1603.24,-274.75C1596.04,-267.11 1585.39,-255.82 1576.65,-246.56"/>
<polygon fill="#63b8ff" stroke="#63b8ff" points="1579.01,-243.96 1569.6,-239.09 1573.92,-248.76 1579.01,-243.96"/>
</a>
</g>
</g>
<!-- Node5 -->
<g id="Node000005" class="node">
<title>Node5</title>
<g id="a_Node000005"><a xlink:href="compat_8h.html" target="_top" xlink:title=" ">
<polygon fill="white" stroke="#666666" points="1712.5,-239 1610.5,-239 1610.5,-220 1712.5,-220 1712.5,-239"/>
<text text-anchor="middle" x="1661.5" y="-227" font-family="Helvetica,sans-Serif" font-size="10.00">compat/compat.h</text>
</a>
</g>
</g>
<!-- Node2&#45;&gt;Node5 -->
<g id="edge4_Node000002_Node000005" class="edge">
<title>Node2&#45;&gt;Node5</title>
<g id="a_edge4_Node000002_Node000005"><a xlink:title=" ">
<path fill="none" stroke="#63b8ff" d="M1619.76,-274.75C1626.96,-267.11 1637.61,-255.82 1646.35,-246.56"/>
<polygon fill="#63b8ff" stroke="#63b8ff" points="1649.08,-248.76 1653.4,-239.09 1643.99,-243.96 1649.08,-248.76"/>
</a>
</g>
</g>
<!-- Node6 -->
<g id="Node000006" class="node">
<title>Node6</title>
<g id="a_Node000006"><a xlink:href="osdetect_8h.html" target="_top" xlink:title=" ">
<polygon fill="white" stroke="#666666" points="230,-184 123,-184 123,-165 230,-165 230,-184"/>
<text text-anchor="middle" x="176.5" y="-172" font-family="Helvetica,sans-Serif" font-size="10.00">compat/osdetect.h</text>
</a>
</g>
</g>
<!-- Node5&#45;&gt;Node6 -->
<g id="edge5_Node000005_Node000006" class="edge">
<title>Node5&#45;&gt;Node6</title>
<g id="a_edge5_Node000005_Node000006"><a xlink:title=" ">
<path fill="none" stroke="#63b8ff" d="M1610.48,-220.87C1607.45,-220.54 1604.44,-220.25 1601.5,-220 1001.46,-169.73 844.85,-231.85 240.36,-183.95"/>
<polygon fill="#63b8ff" stroke="#63b8ff" points="240.32,-180.44 230.07,-183.13 239.76,-187.41 240.32,-180.44"/>
</a>
</g>
</g>
<!-- Node7 -->
<g id="Node000007" class="node">
<title>Node7</title>
<g id="a_Node000007"><a xlink:href="fdsetsize_8h.html" target="_top" xlink:title=" ">
<polygon fill="white" stroke="#666666" points="358.5,-184 248.5,-184 248.5,-165 358.5,-165 358.5,-184"/>
<text text-anchor="middle" x="303.5" y="-172" font-family="Helvetica,sans-Serif" font-size="10.00">compat/fdsetsize.h</text>
</a>
</g>
</g>
<!-- Node5&#45;&gt;Node7 -->
<g id="edge6_Node000005_Node000007" class="edge">
<title>Node5&#45;&gt;Node7</title>
<g id="a_edge6_Node000005_Node000007"><a xlink:title=" ">
<path fill="none" stroke="#63b8ff" d="M1610.48,-220.88C1607.45,-220.55 1604.44,-220.25 1601.5,-220 1058.14,-173.73 916.13,-227.51 368.75,-184"/>
<polygon fill="#63b8ff" stroke="#63b8ff" points="368.87,-180.5 358.62,-183.19 368.31,-187.48 368.87,-180.5"/>
</a>
</g>
</g>
<!-- Node8 -->
<g id="Node000008" class="node">
<title>Node8</title>
<g id="a_Node000008"><a xlink:href="types_8h.html" target="_top" xlink:title=" ">
<polygon fill="#fff0f0" stroke="red" points="468.5,-184 376.5,-184 376.5,-165 468.5,-165 468.5,-184"/>
<text text-anchor="middle" x="422.5" y="-172" font-family="Helvetica,sans-Serif" font-size="10.00">compat/types.h</text>
</a>
</g>
</g>
<!-- Node5&#45;&gt;Node8 -->
<g id="edge7_Node000005_Node000008" class="edge">
<title>Node5&#45;&gt;Node8</title>
<g id="a_edge7_Node000005_Node000008"><a xlink:title=" ">
<path fill="none" stroke="#63b8ff" d="M1610.48,-220.89C1607.45,-220.55 1604.43,-220.25 1601.5,-220 1106.83,-177.17 976.88,-229.55 478.63,-183.97"/>
<polygon fill="#63b8ff" stroke="#63b8ff" points="478.94,-180.48 468.66,-183.05 478.3,-187.45 478.94,-180.48"/>
</a>
</g>
</g>
<!-- Node10 -->
<g id="Node000010" class="node">
<title>Node10</title>
<g id="a_Node000010"><a xlink:href="aix_8h.html" target="_top" xlink:title=" ">
<polygon fill="white" stroke="#666666" points="582,-184 487,-184 487,-165 582,-165 582,-184"/>
<text text-anchor="middle" x="534.5" y="-172" font-family="Helvetica,sans-Serif" font-size="10.00">compat/os/aix.h</text>
</a>
</g>
</g>
<!-- Node5&#45;&gt;Node10 -->
<g id="edge8_Node000005_Node000010" class="edge">
<title>Node5&#45;&gt;Node10</title>
<g id="a_edge8_Node000005_Node000010"><a xlink:title=" ">
<path fill="none" stroke="#63b8ff" d="M1610.48,-220.9C1607.44,-220.56 1604.43,-220.26 1601.5,-220 1157.35,-180.73 1040.49,-224.54 592.02,-183.91"/>
<polygon fill="#63b8ff" stroke="#63b8ff" points="592.31,-180.42 582.04,-183 591.68,-187.39 592.31,-180.42"/>
</a>
</g>
</g>
<!-- Node11 -->
<g id="Node000011" class="node">
<title>Node11</title>
<g id="a_Node000011"><a xlink:href="android_8h.html" target="_top" xlink:title=" ">
<polygon fill="white" stroke="#666666" points="716.5,-184 600.5,-184 600.5,-165 716.5,-165 716.5,-184"/>
<text text-anchor="middle" x="658.5" y="-172" font-family="Helvetica,sans-Serif" font-size="10.00">compat/os/android.h</text>
</a>
</g>
</g>
<!-- Node5&#45;&gt;Node11 -->
<g id="edge9_Node000005_Node000011" class="edge">
<title>Node5&#45;&gt;Node11</title>
<g id="a_edge9_Node000005_Node000011"><a xlink:title=" ">
<path fill="none" stroke="#63b8ff" d="M1610.48,-220.92C1607.44,-220.58 1604.43,-220.27 1601.5,-220 1216.76,-184.93 1115.52,-216.01 726.69,-184.02"/>
<polygon fill="#63b8ff" stroke="#63b8ff" points="726.83,-180.52 716.57,-183.17 726.25,-187.49 726.83,-180.52"/>
</a>
</g>
</g>
<!-- Node12 -->
<g id="Node000012" class="node">
<title>Node12</title>
<g id="a_Node000012"><a xlink:href="dragonfly_8h.html" target="_top" xlink:title=" ">
<polygon fill="white" stroke="#666666" points="858.5,-184 734.5,-184 734.5,-165 858.5,-165 858.5,-184"/>
<text text-anchor="middle" x="796.5" y="-172" font-family="Helvetica,sans-Serif" font-size="10.00">compat/os/dragonfly.h</text>
</a>
</g>
</g>
<!-- Node5&#45;&gt;Node12 -->
<g id="edge10_Node000005_Node000012" class="edge">
<title>Node5&#45;&gt;Node12</title>
<g id="a_edge10_Node000005_Node000012"><a xlink:title=" ">
<path fill="none" stroke="#63b8ff" d="M1610.47,-220.95C1607.44,-220.6 1604.43,-220.28 1601.5,-220 1279.69,-189.38 1194.7,-210.98 869.01,-184.06"/>
<polygon fill="#63b8ff" stroke="#63b8ff" points="869.07,-180.56 858.81,-183.21 868.49,-187.53 869.07,-180.56"/>
</a>
</g>
</g>
<!-- Node13 -->
<g id="Node000013" class="node">
<title>Node13</title>
<g id="a_Node000013"><a xlink:href="freebsd_8h.html" target="_top" xlink:title=" ">
<polygon fill="white" stroke="#666666" points="992.5,-184 876.5,-184 876.5,-165 992.5,-165 992.5,-184"/>
<text text-anchor="middle" x="934.5" y="-172" font-family="Helvetica,sans-Serif" font-size="10.00">compat/os/freebsd.h</text>
</a>
</g>
</g>
<!-- Node5&#45;&gt;Node13 -->
<g id="edge11_Node000005_Node000013" class="edge">
<title>Node5&#45;&gt;Node13</title>
<g id="a_edge11_Node000005_Node000013"><a xlink:title=" ">
<path fill="none" stroke="#63b8ff" d="M1610.47,-220.98C1607.44,-220.63 1604.43,-220.3 1601.5,-220 1338.94,-193.57 1269.18,-208.45 1002.55,-184.03"/>
<polygon fill="#63b8ff" stroke="#63b8ff" points="1002.86,-180.54 992.58,-183.11 1002.21,-187.51 1002.86,-180.54"/>
</a>
</g>
</g>
<!-- Node14 -->
<g id="Node000014" class="node">
<title>Node14</title>
<g id="a_Node000014"><a xlink:href="hpux_8h.html" target="_top" xlink:title=" ">
<polygon fill="white" stroke="#666666" points="1114.5,-184 1010.5,-184 1010.5,-165 1114.5,-165 1114.5,-184"/>
<text text-anchor="middle" x="1062.5" y="-172" font-family="Helvetica,sans-Serif" font-size="10.00">compat/os/hpux.h</text>
</a>
</g>
</g>
<!-- Node5&#45;&gt;Node14 -->
<g id="edge12_Node000005_Node000014" class="edge">
<title>Node5&#45;&gt;Node14</title>
<g id="a_edge12_Node000005_Node000014"><a xlink:title=" ">
<path fill="none" stroke="#63b8ff" d="M1610.47,-221.04C1607.43,-220.67 1604.43,-220.32 1601.5,-220 1393,-197.4 1337.07,-206.42 1124.94,-184.08"/>
<polygon fill="#63b8ff" stroke="#63b8ff" points="1125.03,-180.58 1114.72,-183 1124.29,-187.54 1125.03,-180.58"/>
</a>
</g>
</g>
<!-- Node15 -->
<g id="Node000015" class="node">
<title>Node15</title>
<g id="a_Node000015"><a xlink:href="linux_8h.html" target="_top" xlink:title=" ">
<polygon fill="white" stroke="#666666" points="1236.5,-184 1132.5,-184 1132.5,-165 1236.5,-165 1236.5,-184"/>
<text text-anchor="middle" x="1184.5" y="-172" font-family="Helvetica,sans-Serif" font-size="10.00">compat/os/linux.h</text>
</a>
</g>
</g>
<!-- Node5&#45;&gt;Node15 -->
<g id="edge13_Node000005_Node000015" class="edge">
<title>Node5&#45;&gt;Node15</title>
<g id="a_edge13_Node000005_Node000015"><a xlink:title=" ">
<path fill="none" stroke="#63b8ff" d="M1610.46,-221.13C1607.43,-220.73 1604.42,-220.35 1601.5,-220 1446.87,-201.24 1405.09,-202.9 1246.82,-184.12"/>
<polygon fill="#63b8ff" stroke="#63b8ff" points="1247.07,-180.62 1236.73,-182.91 1246.24,-187.57 1247.07,-180.62"/>
</a>
</g>
</g>
<!-- Node16 -->
<g id="Node000016" class="node">
<title>Node16</title>
<g id="a_Node000016"><a xlink:href="macosx_8h.html" target="_top" xlink:title=" ">
<polygon fill="white" stroke="#666666" points="1372.5,-184 1254.5,-184 1254.5,-165 1372.5,-165 1372.5,-184"/>
<text text-anchor="middle" x="1313.5" y="-172" font-family="Helvetica,sans-Serif" font-size="10.00">compat/os/macosx.h</text>
</a>
</g>
</g>
<!-- Node5&#45;&gt;Node16 -->
<g id="edge14_Node000005_Node000016" class="edge">
<title>Node5&#45;&gt;Node16</title>
<g id="a_edge14_Node000005_Node000016"><a xlink:title=" ">
<path fill="none" stroke="#63b8ff" d="M1610.15,-220.68C1548.92,-211.35 1446.45,-195.75 1379.42,-185.54"/>
<polygon fill="#63b8ff" stroke="#63b8ff" points="1379.8,-182.06 1369.39,-184.01 1378.74,-188.98 1379.8,-182.06"/>
</a>
</g>
</g>
<!-- Node17 -->
<g id="Node000017" class="node">
<title>Node17</title>
<g id="a_Node000017"><a xlink:href="mingw_8h.html" target="_top" xlink:title=" ">
<polygon fill="white" stroke="#666666" points="1502.5,-184 1390.5,-184 1390.5,-165 1502.5,-165 1502.5,-184"/>
<text text-anchor="middle" x="1446.5" y="-172" font-family="Helvetica,sans-Serif" font-size="10.00">compat/os/mingw.h</text>
</a>
</g>
</g>
<!-- Node5&#45;&gt;Node17 -->
<g id="edge15_Node000005_Node000017" class="edge">
<title>Node5&#45;&gt;Node17</title>
<g id="a_edge15_Node000005_Node000017"><a xlink:title=" ">
<path fill="none" stroke="#63b8ff" d="M1626.96,-219.98C1590.08,-210.89 1531.51,-196.46 1491.16,-186.51"/>
<polygon fill="#63b8ff" stroke="#63b8ff" points="1491.86,-183.08 1481.31,-184.08 1490.19,-189.87 1491.86,-183.08"/>
</a>
</g>
</g>
<!-- Node18 -->
<g id="Node000018" class="node">
<title>Node18</title>
<g id="a_Node000018"><a xlink:href="mswindows_8h.html" target="_top" xlink:title=" ">
<polygon fill="white" stroke="#666666" points="1658,-184 1521,-184 1521,-165 1658,-165 1658,-184"/>
<text text-anchor="middle" x="1589.5" y="-172" font-family="Helvetica,sans-Serif" font-size="10.00">compat/os/mswindows.h</text>
</a>
</g>
</g>
<!-- Node5&#45;&gt;Node18 -->
<g id="edge16_Node000005_Node000018" class="edge">
<title>Node5&#45;&gt;Node18</title>
<g id="a_edge16_Node000005_Node000018"><a xlink:title=" ">
<path fill="none" stroke="#63b8ff" d="M1649.93,-219.98C1639.08,-212 1622.62,-199.88 1609.62,-190.31"/>
<polygon fill="#63b8ff" stroke="#63b8ff" points="1611.41,-187.28 1601.28,-184.17 1607.26,-192.92 1611.41,-187.28"/>
</a>
</g>
</g>
<!-- Node19 -->
<g id="Node000019" class="node">
<title>Node19</title>
<g id="a_Node000019"><a xlink:href="netbsd_8h.html" target="_top" xlink:title=" ">
<polygon fill="white" stroke="#666666" points="1789,-184 1676,-184 1676,-165 1789,-165 1789,-184"/>
<text text-anchor="middle" x="1732.5" y="-172" font-family="Helvetica,sans-Serif" font-size="10.00">compat/os/netbsd.h</text>
</a>
</g>
</g>
<!-- Node5&#45;&gt;Node19 -->
<g id="edge17_Node000005_Node000019" class="edge">
<title>Node5&#45;&gt;Node19</title>
<g id="a_edge17_Node000005_Node000019"><a xlink:title=" ">
<path fill="none" stroke="#63b8ff" d="M1672.91,-219.98C1683.61,-212 1699.84,-199.88 1712.66,-190.31"/>
<polygon fill="#63b8ff" stroke="#63b8ff" points="1714.97,-192.96 1720.89,-184.17 1710.78,-187.35 1714.97,-192.96"/>
</a>
</g>
</g>
<!-- Node20 -->
<g id="Node000020" class="node">
<title>Node20</title>
<g id="a_Node000020"><a xlink:href="openbsd_8h.html" target="_top" xlink:title=" ">
<polygon fill="white" stroke="#666666" points="1928,-184 1807,-184 1807,-165 1928,-165 1928,-184"/>
<text text-anchor="middle" x="1867.5" y="-172" font-family="Helvetica,sans-Serif" font-size="10.00">compat/os/openbsd.h</text>
</a>
</g>
</g>
<!-- Node5&#45;&gt;Node20 -->
<g id="edge18_Node000005_Node000020" class="edge">
<title>Node5&#45;&gt;Node20</title>
<g id="a_edge18_Node000005_Node000020"><a xlink:title=" ">
<path fill="none" stroke="#63b8ff" d="M1694.6,-219.98C1729.78,-210.93 1785.57,-196.58 1824.22,-186.64"/>
<polygon fill="#63b8ff" stroke="#63b8ff" points="1825.33,-189.96 1834.14,-184.08 1823.59,-183.18 1825.33,-189.96"/>
</a>
</g>
</g>
<!-- Node21 -->
<g id="Node000021" class="node">
<title>Node21</title>
<g id="a_Node000021"><a xlink:href="os2_8h.html" target="_top" xlink:title=" ">
<polygon fill="white" stroke="#666666" points="2043,-184 1946,-184 1946,-165 2043,-165 2043,-184"/>
<text text-anchor="middle" x="1994.5" y="-172" font-family="Helvetica,sans-Serif" font-size="10.00">compat/os/os2.h</text>
</a>
</g>
</g>
<!-- Node5&#45;&gt;Node21 -->
<g id="edge19_Node000005_Node000021" class="edge">
<title>Node5&#45;&gt;Node21</title>
<g id="a_edge19_Node000005_Node000021"><a xlink:title=" ">
<path fill="none" stroke="#63b8ff" d="M1712.8,-220.33C1772.94,-210.76 1872.41,-194.93 1935.64,-184.87"/>
<polygon fill="#63b8ff" stroke="#63b8ff" points="1936.53,-188.27 1945.85,-183.24 1935.42,-181.36 1936.53,-188.27"/>
</a>
</g>
</g>
<!-- Node22 -->
<g id="Node000022" class="node">
<title>Node22</title>
<g id="a_Node000022"><a xlink:href="qnx_8h.html" target="_top" xlink:title=" ">
<polygon fill="white" stroke="#666666" points="2159.5,-184 2061.5,-184 2061.5,-165 2159.5,-165 2159.5,-184"/>
<text text-anchor="middle" x="2110.5" y="-172" font-family="Helvetica,sans-Serif" font-size="10.00">compat/os/qnx.h</text>
</a>
</g>
</g>
<!-- Node5&#45;&gt;Node22 -->
<g id="edge20_Node000005_Node000022" class="edge">
<title>Node5&#45;&gt;Node22</title>
<g id="a_edge20_Node000005_Node000022"><a xlink:title=" ">
<path fill="none" stroke="#63b8ff" d="M1712.66,-223.15C1785.36,-215.44 1922.97,-200.44 2051.25,-183.99"/>
<polygon fill="#63b8ff" stroke="#63b8ff" points="2051.79,-187.45 2061.26,-182.7 2050.89,-180.51 2051.79,-187.45"/>
</a>
</g>
</g>
<!-- Node23 -->
<g id="Node000023" class="node">
<title>Node23</title>
<g id="a_Node000023"><a xlink:href="solaris_8h.html" target="_top" xlink:title=" ">
<polygon fill="white" stroke="#666666" points="2289.5,-184 2177.5,-184 2177.5,-165 2289.5,-165 2289.5,-184"/>
<text text-anchor="middle" x="2233.5" y="-172" font-family="Helvetica,sans-Serif" font-size="10.00">compat/os/solaris.h</text>
</a>
</g>
</g>
<!-- Node5&#45;&gt;Node23 -->
<g id="edge21_Node000005_Node000023" class="edge">
<title>Node5&#45;&gt;Node23</title>
<g id="a_edge21_Node000005_Node000023"><a xlink:title=" ">
<path fill="none" stroke="#63b8ff" d="M1712.66,-224.73C1802.47,-217.96 1994.55,-202.77 2167.45,-184.07"/>
<polygon fill="#63b8ff" stroke="#63b8ff" points="2167.94,-187.54 2177.5,-182.98 2167.18,-180.58 2167.94,-187.54"/>
</a>
</g>
</g>
<!-- Node24 -->
<g id="Node000024" class="node">
<title>Node24</title>
<g id="a_Node000024"><a xlink:href="sunos_8h.html" target="_top" xlink:title=" ">
<polygon fill="white" stroke="#666666" points="2415.5,-184 2307.5,-184 2307.5,-165 2415.5,-165 2415.5,-184"/>
<text text-anchor="middle" x="2361.5" y="-172" font-family="Helvetica,sans-Serif" font-size="10.00">compat/os/sunos.h</text>
</a>
</g>
</g>
<!-- Node5&#45;&gt;Node24 -->
<g id="edge22_Node000005_Node000024" class="edge">
<title>Node5&#45;&gt;Node24</title>
<g id="a_edge22_Node000005_Node000024"><a xlink:title=" ">
<path fill="none" stroke="#63b8ff" d="M1712.79,-226.04C1819.55,-220.67 2073.65,-206.64 2297.28,-184.06"/>
<polygon fill="#63b8ff" stroke="#63b8ff" points="2297.64,-187.54 2307.23,-183.05 2296.93,-180.58 2297.64,-187.54"/>
</a>
</g>
</g>
<!-- Node25 -->
<g id="Node000025" class="node">
<title>Node25</title>
<g id="a_Node000025"><a xlink:href="assert_8h.html" target="_top" xlink:title=" ">
<polygon fill="white" stroke="#666666" points="2529,-184 2434,-184 2434,-165 2529,-165 2529,-184"/>
<text text-anchor="middle" x="2481.5" y="-172" font-family="Helvetica,sans-Serif" font-size="10.00">compat/assert.h</text>
</a>
</g>
</g>
<!-- Node5&#45;&gt;Node25 -->
<g id="edge23_Node000005_Node000025" class="edge">
<title>Node5&#45;&gt;Node25</title>
<g id="a_edge23_Node000005_Node000025"><a xlink:title=" ">
<path fill="none" stroke="#63b8ff" d="M1712.52,-227.11C1833.88,-223.45 2149.4,-211.95 2423.8,-183.96"/>
<polygon fill="#63b8ff" stroke="#63b8ff" points="2424.37,-187.42 2433.95,-182.92 2423.65,-180.46 2424.37,-187.42"/>
</a>
</g>
</g>
<!-- Node26 -->
<g id="Node000026" class="node">
<title>Node26</title>
<g id="a_Node000026"><a xlink:href="compat__shared_8h.html" target="_top" xlink:title=" ">
<polygon fill="#fff0f0" stroke="red" points="2687.5,-184 2547.5,-184 2547.5,-165 2687.5,-165 2687.5,-184"/>
<text text-anchor="middle" x="2617.5" y="-172" font-family="Helvetica,sans-Serif" font-size="10.00">compat/compat_shared.h</text>
</a>
</g>
</g>
<!-- Node5&#45;&gt;Node26 -->
<g id="edge24_Node000005_Node000026" class="edge">
<title>Node5&#45;&gt;Node26</title>
<g id="a_edge24_Node000005_Node000026"><a xlink:title=" ">
<path fill="none" stroke="#63b8ff" d="M1712.91,-226.88C1846.66,-222.45 2216.7,-208.84 2536.87,-184"/>
<polygon fill="#63b8ff" stroke="#63b8ff" points="2537.58,-187.45 2547.28,-183.18 2537.04,-180.47 2537.58,-187.45"/>
</a>
</g>
</g>
<!-- Node36 -->
<g id="Node000036" class="node">
<title>Node36</title>
<g id="a_Node000036"><a xlink:href="stdvarargs_8h.html" target="_top" xlink:title=" ">
<polygon fill="#fff0f0" stroke="red" points="2823,-184 2706,-184 2706,-165 2823,-165 2823,-184"/>
<text text-anchor="middle" x="2764.5" y="-172" font-family="Helvetica,sans-Serif" font-size="10.00">compat/stdvarargs.h</text>
</a>
</g>
</g>
<!-- Node5&#45;&gt;Node36 -->
<g id="edge25_Node000005_Node000036" class="edge">
<title>Node5&#45;&gt;Node36</title>
<g id="a_edge25_Node000005_Node000036"><a xlink:title=" ">
<path fill="none" stroke="#63b8ff" d="M1712.75,-227.77C1862.37,-225.33 2311.69,-215.77 2695.73,-183.98"/>
<polygon fill="#63b8ff" stroke="#63b8ff" points="2696.25,-187.45 2705.93,-183.13 2695.67,-180.47 2696.25,-187.45"/>
</a>
</g>
</g>
<!-- Node38 -->
<g id="Node000038" class="node">
<title>Node38</title>
<g id="a_Node000038"><a xlink:href="stdio_8h.html" target="_top" xlink:title=" ">
<polygon fill="#fff0f0" stroke="red" points="2930,-184 2841,-184 2841,-165 2930,-165 2930,-184"/>
<text text-anchor="middle" x="2885.5" y="-172" font-family="Helvetica,sans-Serif" font-size="10.00">compat/stdio.h</text>
</a>
</g>
</g>
<!-- Node5&#45;&gt;Node38 -->
<g id="edge26_Node000005_Node000038" class="edge">
<title>Node5&#45;&gt;Node38</title>
<g id="a_edge26_Node000005_Node000038"><a xlink:title=" ">
<path fill="none" stroke="#63b8ff" d="M1712.68,-228.71C1874.92,-228.91 2392.4,-226.03 2830.75,-183.93"/>
<polygon fill="#63b8ff" stroke="#63b8ff" points="2831.15,-187.41 2840.76,-182.96 2830.47,-180.44 2831.15,-187.41"/>
</a>
</g>
</g>
<!-- Node40 -->
<g id="Node000040" class="node">
<title>Node40</title>
<g id="a_Node000040"><a xlink:href="statvfs_8h.html" target="_top" xlink:title=" ">
<polygon fill="white" stroke="#666666" points="3047,-184 2948,-184 2948,-165 3047,-165 3047,-184"/>
<text text-anchor="middle" x="2997.5" y="-172" font-family="Helvetica,sans-Serif" font-size="10.00">compat/statvfs.h</text>
</a>
</g>
</g>
<!-- Node5&#45;&gt;Node40 -->
<g id="edge27_Node000005_Node000040" class="edge">
<title>Node5&#45;&gt;Node40</title>
<g id="a_edge27_Node000005_Node000040"><a xlink:title=" ">
<path fill="none" stroke="#63b8ff" d="M1712.72,-228.7C1884.39,-228.96 2455.28,-226.41 2937.67,-183.95"/>
<polygon fill="#63b8ff" stroke="#63b8ff" points="2938.32,-187.4 2947.97,-183.03 2937.7,-180.43 2938.32,-187.4"/>
</a>
</g>
</g>
<!-- Node41 -->
<g id="Node000041" class="node">
<title>Node41</title>
<g id="a_Node000041"><a xlink:href="debug_8h.html" target="_top" xlink:title=" ">
<polygon fill="white" stroke="#666666" points="3160,-184 3065,-184 3065,-165 3160,-165 3160,-184"/>
<text text-anchor="middle" x="3112.5" y="-172" font-family="Helvetica,sans-Serif" font-size="10.00">compat/debug.h</text>
</a>
</g>
</g>
<!-- Node5&#45;&gt;Node41 -->
<g id="edge28_Node000005_Node000041" class="edge">
<title>Node5&#45;&gt;Node41</title>
<g id="a_edge28_Node000005_Node000041"><a xlink:title=" ">
<path fill="none" stroke="#63b8ff" d="M1712.58,-229.01C1894.01,-230.35 2524.42,-231.17 3054.81,-183.92"/>
<polygon fill="#63b8ff" stroke="#63b8ff" points="3055.32,-187.39 3064.96,-183.01 3054.69,-180.42 3055.32,-187.39"/>
</a>
</g>
</g>
<!-- Node42 -->
<g id="Node000042" class="node">
<title>Node42</title>
<g id="a_Node000042"><a xlink:href="valgrind_8h.html" target="_top" xlink:title=" ">
<polygon fill="#fff0f0" stroke="red" points="105,-184 0,-184 0,-165 105,-165 105,-184"/>
<text text-anchor="middle" x="52.5" y="-172" font-family="Helvetica,sans-Serif" font-size="10.00">compat/valgrind.h</text>
</a>
</g>
</g>
<!-- Node5&#45;&gt;Node42 -->
<g id="edge29_Node000005_Node000042" class="edge">
<title>Node5&#45;&gt;Node42</title>
<g id="a_edge29_Node000005_Node000042"><a xlink:title=" ">
<path fill="none" stroke="#63b8ff" d="M1610.48,-220.86C1607.45,-220.53 1604.44,-220.24 1601.5,-220 945.6,-165.79 774.59,-237 115.26,-184.04"/>
<polygon fill="#63b8ff" stroke="#63b8ff" points="115.28,-180.53 105.03,-183.21 114.72,-187.5 115.28,-180.53"/>
</a>
</g>
</g>
<!-- Node46 -->
<g id="Node000046" class="node">
<title>Node46</title>
<g id="a_Node000046"><a xlink:href="Here_8h.html" target="_top" xlink:title=" ">
<polygon fill="white" stroke="#666666" points="3402,-74 3327,-74 3327,-55 3402,-55 3402,-74"/>
<text text-anchor="middle" x="3364.5" y="-62" font-family="Helvetica,sans-Serif" font-size="10.00">base/Here.h</text>
</a>
</g>
</g>
<!-- Node45&#45;&gt;Node46 -->
<g id="edge32_Node000045_Node000046" class="edge">
<title>Node45&#45;&gt;Node46</title>
<g id="a_edge32_Node000045_Node000046"><a xlink:title=" ">
<path fill="none" stroke="#63b8ff" d="M3231.89,-109.98C3258.3,-101.13 3299.85,-87.19 3329.39,-77.28"/>
<polygon fill="#63b8ff" stroke="#63b8ff" points="3330.55,-80.58 3338.92,-74.08 3328.32,-73.94 3330.55,-80.58"/>
</a>
</g>
</g>
<!-- Node48 -->
<g id="Node000048" class="node">
<title>Node48</title>
<g id="a_Node000048"><a xlink:href="AllocatorProxy_8h.html" target="_top" xlink:title=" ">
<polygon fill="white" stroke="#666666" points="3082.5,-74 2958.5,-74 2958.5,-55 3082.5,-55 3082.5,-74"/>
<text text-anchor="middle" x="3020.5" y="-62" font-family="Helvetica,sans-Serif" font-size="10.00">mem/AllocatorProxy.h</text>
</a>
</g>
</g>
<!-- Node45&#45;&gt;Node48 -->
<g id="edge34_Node000045_Node000048" class="edge">
<title>Node45&#45;&gt;Node48</title>
<g id="a_edge34_Node000045_Node000048"><a xlink:title=" ">
<path fill="none" stroke="#63b8ff" d="M3176.62,-109.98C3145.12,-101.01 3095.33,-86.82 3060.47,-76.89"/>
<polygon fill="#63b8ff" stroke="#63b8ff" points="3061.19,-73.46 3050.62,-74.08 3059.28,-80.19 3061.19,-73.46"/>
</a>
</g>
</g>
<!-- Node49 -->
<g id="Node000049" class="node">
<title>Node49</title>
<g id="a_Node000049"><a xlink:title=" ">
<polygon fill="#e0e0e0" stroke="#999999" points="3160.5,-74 3100.5,-74 3100.5,-55 3160.5,-55 3160.5,-74"/>
<text text-anchor="middle" x="3130.5" y="-62" font-family="Helvetica,sans-Serif" font-size="10.00">iostream</text>
</a>
</g>
</g>
<!-- Node45&#45;&gt;Node49 -->
<g id="edge35_Node000045_Node000049" class="edge">
<title>Node45&#45;&gt;Node49</title>
<g id="a_edge35_Node000045_Node000049"><a xlink:title=" ">
<path fill="none" stroke="#63b8ff" d="M3194.29,-109.98C3182.72,-101.92 3165.12,-89.65 3151.34,-80.03"/>
<polygon fill="#63b8ff" stroke="#63b8ff" points="3153.14,-77.02 3142.93,-74.17 3149.13,-82.76 3153.14,-77.02"/>
</a>
</g>
</g>
<!-- Node50 -->
<g id="Node000050" class="node">
<title>Node50</title>
<g id="a_Node000050"><a xlink:title=" ">
<polygon fill="#e0e0e0" stroke="#999999" points="3234.5,-74 3178.5,-74 3178.5,-55 3234.5,-55 3234.5,-74"/>
<text text-anchor="middle" x="3206.5" y="-62" font-family="Helvetica,sans-Serif" font-size="10.00">sstream</text>
</a>
</g>
</g>
<!-- Node45&#45;&gt;Node50 -->
<g id="edge36_Node000045_Node000050" class="edge">
<title>Node45&#45;&gt;Node50</title>
<g id="a_edge36_Node000045_Node000050"><a xlink:title=" ">
<path fill="none" stroke="#63b8ff" d="M3206.5,-109.75C3206.5,-102.8 3206.5,-92.85 3206.5,-84.13"/>
<polygon fill="#63b8ff" stroke="#63b8ff" points="3210,-84.09 3206.5,-74.09 3203,-84.09 3210,-84.09"/>
</a>
</g>
</g>
<!-- Node51 -->
<g id="Node000051" class="node">
<title>Node51</title>
<g id="a_Node000051"><a xlink:title=" ">
<polygon fill="#e0e0e0" stroke="#999999" points="3308.5,-74 3252.5,-74 3252.5,-55 3308.5,-55 3308.5,-74"/>
<text text-anchor="middle" x="3280.5" y="-62" font-family="Helvetica,sans-Serif" font-size="10.00">iomanip</text>
</a>
</g>
</g>
<!-- Node45&#45;&gt;Node51 -->
<g id="edge37_Node000045_Node000051" class="edge">
<title>Node45&#45;&gt;Node51</title>
<g id="a_edge37_Node000045_Node000051"><a xlink:title=" ">
<path fill="none" stroke="#63b8ff" d="M3218.39,-109.98C3229.65,-101.92 3246.79,-89.65 3260.21,-80.03"/>
<polygon fill="#63b8ff" stroke="#63b8ff" points="3262.3,-82.84 3268.39,-74.17 3258.23,-77.15 3262.3,-82.84"/>
</a>
</g>
</g>
<!-- Node47 -->
<g id="Node000047" class="node">
<title>Node47</title>
<g id="a_Node000047"><a xlink:title=" ">
<polygon fill="#e0e0e0" stroke="#999999" points="3421.5,-19 3373.5,-19 3373.5,0 3421.5,0 3421.5,-19"/>
<text text-anchor="middle" x="3397.5" y="-7" font-family="Helvetica,sans-Serif" font-size="10.00">iosfwd</text>
</a>
</g>
</g>
<!-- Node46&#45;&gt;Node47 -->
<g id="edge33_Node000046_Node000047" class="edge">
<title>Node46&#45;&gt;Node47</title>
<g id="a_edge33_Node000046_Node000047"><a xlink:title=" ">
<path fill="none" stroke="#63b8ff" d="M3369.95,-54.75C3374.51,-47.42 3381.17,-36.73 3386.79,-27.7"/>
<polygon fill="#63b8ff" stroke="#63b8ff" points="3389.84,-29.43 3392.15,-19.09 3383.9,-25.73 3389.84,-29.43"/>
</a>
</g>
</g>
<!-- Node54 -->
<g id="Node000054" class="node">
<title>Node54</title>
<g id="a_Node000054"><a xlink:href="HttpHeaderRange_8h.html" target="_top" xlink:title=" ">
<polygon fill="white" stroke="#666666" points="3352,-239 3239,-239 3239,-220 3352,-220 3352,-239"/>
<text text-anchor="middle" x="3295.5" y="-227" font-family="Helvetica,sans-Serif" font-size="10.00">HttpHeaderRange.h</text>
</a>
</g>
</g>
<!-- Node53&#45;&gt;Node54 -->
<g id="edge40_Node000053_Node000054" class="edge">
<title>Node53&#45;&gt;Node54</title>
<g id="a_edge40_Node000053_Node000054"><a xlink:title=" ">
<path fill="none" stroke="#63b8ff" d="M3287.15,-274.75C3288.46,-267.8 3290.34,-257.85 3291.98,-249.13"/>
<polygon fill="#63b8ff" stroke="#63b8ff" points="3295.46,-249.56 3293.88,-239.09 3288.59,-248.27 3295.46,-249.56"/>
</a>
</g>
</g>
<!-- Node55 -->
<g id="Node000055" class="node">
<title>Node55</title>
<g id="a_Node000055"><a xlink:href="Range_8h.html" target="_top" xlink:title=" ">
<polygon fill="#fff0f0" stroke="red" points="3423,-129 3340,-129 3340,-110 3423,-110 3423,-129"/>
<text text-anchor="middle" x="3381.5" y="-117" font-family="Helvetica,sans-Serif" font-size="10.00">base/Range.h</text>
</a>
</g>
</g>
<!-- Node54&#45;&gt;Node55 -->
<g id="edge41_Node000054_Node000055" class="edge">
<title>Node54&#45;&gt;Node55</title>
<g id="a_edge41_Node000054_Node000055"><a xlink:title=" ">
<path fill="none" stroke="#63b8ff" d="M3306.93,-219.81C3317.49,-211.41 3333.22,-197.93 3344.5,-184 3356.02,-169.78 3366.24,-151.56 3373.01,-138.28"/>
<polygon fill="#63b8ff" stroke="#63b8ff" points="3376.18,-139.76 3377.47,-129.25 3369.91,-136.66 3376.18,-139.76"/>
</a>
</g>
</g>
<!-- Node57 -->
<g id="Node000057" class="node">
<title>Node57</title>
<g id="a_Node000057"><a xlink:href="mem_2forward_8h.html" target="_top" xlink:title=" ">
<polygon fill="white" stroke="#666666" points="3066.5,-129 2974.5,-129 2974.5,-110 3066.5,-110 3066.5,-129"/>
<text text-anchor="middle" x="3020.5" y="-117" font-family="Helvetica,sans-Serif" font-size="10.00">mem/forward.h</text>
</a>
</g>
</g>
<!-- Node54&#45;&gt;Node57 -->
<g id="edge43_Node000054_Node000057" class="edge">
<title>Node54&#45;&gt;Node57</title>
<g id="a_edge43_Node000054_Node000057"><a xlink:title=" ">
<path fill="none" stroke="#63b8ff" d="M3280.25,-219.8C3256.8,-206.66 3210.2,-181.55 3168.5,-165 3134.33,-151.44 3094.34,-139.65 3064.55,-131.61"/>
<polygon fill="#63b8ff" stroke="#63b8ff" points="3065.43,-128.23 3054.86,-129.04 3063.63,-134.99 3065.43,-128.23"/>
</a>
</g>
</g>
<!-- Node58 -->
<g id="Node000058" class="node">
<title>Node58</title>
<g id="a_Node000058"><a xlink:href="SquidString_8h.html" target="_top" xlink:title=" ">
<polygon fill="#fff0f0" stroke="red" points="3336,-184 3255,-184 3255,-165 3336,-165 3336,-184"/>
<text text-anchor="middle" x="3295.5" y="-172" font-family="Helvetica,sans-Serif" font-size="10.00">SquidString.h</text>
</a>
</g>
</g>
<!-- Node54&#45;&gt;Node58 -->
<g id="edge46_Node000054_Node000058" class="edge">
<title>Node54&#45;&gt;Node58</title>
<g id="a_edge46_Node000054_Node000058"><a xlink:title=" ">
<path fill="none" stroke="#63b8ff" d="M3295.5,-219.75C3295.5,-212.8 3295.5,-202.85 3295.5,-194.13"/>
<polygon fill="#63b8ff" stroke="#63b8ff" points="3299,-194.09 3295.5,-184.09 3292,-194.09 3299,-194.09"/>
</a>
</g>
</g>
<!-- Node65 -->
<g id="Node000065" class="node">
<title>Node65</title>
<g id="a_Node000065"><a xlink:title=" ">
<polygon fill="#e0e0e0" stroke="#999999" points="3440,-184 3393,-184 3393,-165 3440,-165 3440,-184"/>
<text text-anchor="middle" x="3416.5" y="-172" font-family="Helvetica,sans-Serif" font-size="10.00">vector</text>
</a>
</g>
</g>
<!-- Node54&#45;&gt;Node65 -->
<g id="edge50_Node000054_Node000065" class="edge">
<title>Node54&#45;&gt;Node65</title>
<g id="a_edge50_Node000054_Node000065"><a xlink:title=" ">
<path fill="none" stroke="#63b8ff" d="M3314.94,-219.98C3334.49,-211.42 3364.88,-198.11 3387.32,-188.28"/>
<polygon fill="#63b8ff" stroke="#63b8ff" points="3388.95,-191.39 3396.71,-184.17 3386.14,-184.98 3388.95,-191.39"/>
</a>
</g>
</g>
<!-- Node55&#45;&gt;Node47 -->
<g id="edge42_Node000055_Node000047" class="edge">
<title>Node55&#45;&gt;Node47</title>
<g id="a_edge42_Node000055_Node000047"><a xlink:title=" ">
<path fill="none" stroke="#63b8ff" d="M3389.44,-109.75C3396.53,-101.3 3406.4,-87.79 3410.5,-74 3414.96,-59 3410.74,-41.56 3405.95,-28.75"/>
<polygon fill="#63b8ff" stroke="#63b8ff" points="3409.06,-27.12 3401.97,-19.25 3402.6,-29.82 3409.06,-27.12"/>
</a>
</g>
</g>
<!-- Node57&#45;&gt;Node47 -->
<g id="edge45_Node000057_Node000047" class="edge">
<title>Node57&#45;&gt;Node47</title>
<g id="a_edge45_Node000057_Node000047"><a xlink:title=" ">
<path fill="none" stroke="#63b8ff" d="M2997.84,-109.89C2970.39,-98.25 2930.07,-76.45 2949.5,-55 2977.15,-24.47 3263.08,-14.04 3363.15,-11.32"/>
<polygon fill="#63b8ff" stroke="#63b8ff" points="3363.42,-14.81 3373.32,-11.05 3363.23,-7.81 3363.42,-14.81"/>
</a>
</g>
</g>
<!-- Node57&#45;&gt;Node48 -->
<g id="edge44_Node000057_Node000048" class="edge">
<title>Node57&#45;&gt;Node48</title>
<g id="a_edge44_Node000057_Node000048"><a xlink:title=" ">
<path fill="none" stroke="#63b8ff" d="M3020.5,-109.75C3020.5,-102.8 3020.5,-92.85 3020.5,-84.13"/>
<polygon fill="#63b8ff" stroke="#63b8ff" points="3024,-84.09 3020.5,-74.09 3017,-84.09 3024,-84.09"/>
</a>
</g>
</g>
<!-- Node58&#45;&gt;Node45 -->
<g id="edge47_Node000058_Node000045" class="edge">
<title>Node58&#45;&gt;Node45</title>
<g id="a_edge47_Node000058_Node000045"><a xlink:title=" ">
<path fill="none" stroke="#63b8ff" d="M3281.2,-164.98C3267.4,-156.77 3246.26,-144.18 3229.99,-134.49"/>
<polygon fill="#63b8ff" stroke="#63b8ff" points="3231.44,-131.28 3221.06,-129.17 3227.86,-137.29 3231.44,-131.28"/>
</a>
</g>
</g>
<!-- Node62 -->
<g id="Node000062" class="node">
<title>Node62</title>
<g id="a_Node000062"><a xlink:href="sbuf_2forward_8h.html" target="_top" xlink:title=" ">
<polygon fill="#fff0f0" stroke="red" points="3632,-129 3545,-129 3545,-110 3632,-110 3632,-129"/>
<text text-anchor="middle" x="3588.5" y="-117" font-family="Helvetica,sans-Serif" font-size="10.00">sbuf/forward.h</text>
</a>
</g>
</g>
<!-- Node58&#45;&gt;Node62 -->
<g id="edge48_Node000058_Node000062" class="edge">
<title>Node58&#45;&gt;Node62</title>
<g id="a_edge48_Node000058_Node000062"><a xlink:title=" ">
<path fill="none" stroke="#63b8ff" d="M3336.24,-166.13C3388.01,-156.77 3477.51,-140.58 3534.81,-130.21"/>
<polygon fill="#63b8ff" stroke="#63b8ff" points="3535.55,-133.64 3544.76,-128.41 3534.3,-126.75 3535.55,-133.64"/>
</a>
</g>
</g>
<!-- Node63 -->
<g id="Node000063" class="node">
<title>Node63</title>
<g id="a_Node000063"><a xlink:title=" ">
<polygon fill="#e0e0e0" stroke="#999999" points="3621,-74 3556,-74 3556,-55 3621,-55 3621,-74"/>
<text text-anchor="middle" x="3588.5" y="-62" font-family="Helvetica,sans-Serif" font-size="10.00">functional</text>
</a>
</g>
</g>
<!-- Node62&#45;&gt;Node63 -->
<g id="edge49_Node000062_Node000063" class="edge">
<title>Node62&#45;&gt;Node63</title>
<g id="a_edge49_Node000062_Node000063"><a xlink:title=" ">
<path fill="none" stroke="#63b8ff" d="M3588.5,-109.75C3588.5,-102.8 3588.5,-92.85 3588.5,-84.13"/>
<polygon fill="#63b8ff" stroke="#63b8ff" points="3592,-84.09 3588.5,-74.09 3585,-84.09 3592,-84.09"/>
</a>
</g>
</g>
<!-- Node66&#45;&gt;Node62 -->
<g id="edge56_Node000066_Node000062" class="edge">
<title>Node66&#45;&gt;Node62</title>
<g id="a_edge56_Node000066_Node000062"><a xlink:title=" ">
<path fill="none" stroke="#63b8ff" d="M3475.46,-274.94C3520.07,-263.13 3588.87,-236.97 3617.5,-184 3625.91,-168.43 3615.3,-149.97 3604.62,-136.97"/>
<polygon fill="#63b8ff" stroke="#63b8ff" points="3607.06,-134.45 3597.79,-129.31 3601.83,-139.1 3607.06,-134.45"/>
</a>
</g>
</g>
<!-- Node67 -->
<g id="Node000067" class="node">
<title>Node67</title>
<g id="a_Node000067"><a xlink:href="RegisteredHeaders_8h.html" target="_top" xlink:title=" ">
<polygon fill="white" stroke="#666666" points="3525,-239 3384,-239 3384,-220 3525,-220 3525,-239"/>
<text text-anchor="middle" x="3454.5" y="-227" font-family="Helvetica,sans-Serif" font-size="10.00">http/RegisteredHeaders.h</text>
</a>
</g>
</g>
<!-- Node66&#45;&gt;Node67 -->
<g id="edge52_Node000066_Node000067" class="edge">
<title>Node66&#45;&gt;Node67</title>
<g id="a_edge52_Node000066_Node000067"><a xlink:title=" ">
<path fill="none" stroke="#63b8ff" d="M3437.8,-274.75C3440.48,-267.65 3444.35,-257.4 3447.69,-248.56"/>
<polygon fill="#63b8ff" stroke="#63b8ff" points="3451,-249.68 3451.26,-239.09 3444.45,-247.21 3451,-249.68"/>
</a>
</g>
</g>
<!-- Node67&#45;&gt;Node47 -->
<g id="edge54_Node000067_Node000047" class="edge">
<title>Node67&#45;&gt;Node47</title>
<g id="a_edge54_Node000067_Node000047"><a xlink:title=" ">
<path fill="none" stroke="#63b8ff" d="M3454.36,-219.84C3453.69,-193.87 3449.63,-114.75 3425.5,-55 3421.62,-45.39 3415.67,-35.55 3410.25,-27.57"/>
<polygon fill="#63b8ff" stroke="#63b8ff" points="3412.94,-25.31 3404.29,-19.19 3407.24,-29.37 3412.94,-25.31"/>
</a>
</g>
</g>
<!-- Node67&#45;&gt;Node65 -->
<g id="edge55_Node000067_Node000065" class="edge">
<title>Node67&#45;&gt;Node65</title>
<g id="a_edge55_Node000067_Node000065"><a xlink:title=" ">
<path fill="none" stroke="#63b8ff" d="M3448.23,-219.75C3442.91,-212.34 3435.14,-201.5 3428.62,-192.41"/>
<polygon fill="#63b8ff" stroke="#63b8ff" points="3431.33,-190.18 3422.66,-184.09 3425.64,-194.26 3431.33,-190.18"/>
</a>
</g>
</g>
<!-- Node68 -->
<g id="Node000068" class="node">
<title>Node68</title>
<g id="a_Node000068"><a xlink:href="LookupTable_8h.html" target="_top" xlink:title=" ">
<polygon fill="#fff0f0" stroke="red" points="3608.5,-184 3496.5,-184 3496.5,-165 3608.5,-165 3608.5,-184"/>
<text text-anchor="middle" x="3552.5" y="-172" font-family="Helvetica,sans-Serif" font-size="10.00">base/LookupTable.h</text>
</a>
</g>
</g>
<!-- Node67&#45;&gt;Node68 -->
<g id="edge53_Node000067_Node000068" class="edge">
<title>Node67&#45;&gt;Node68</title>
<g id="a_edge53_Node000067_Node000068"><a xlink:title=" ">
<path fill="none" stroke="#63b8ff" d="M3470.25,-219.98C3485.73,-211.61 3509.59,-198.7 3527.64,-188.95"/>
<polygon fill="#63b8ff" stroke="#63b8ff" points="3529.34,-192.01 3536.47,-184.17 3526.01,-185.85 3529.34,-192.01"/>
</a>
</g>
</g>
</g>
</svg>
