<?xml version="1.0" encoding="UTF-8" standalone="no"?>
<!DOCTYPE svg PUBLIC "-//W3C//DTD SVG 1.1//EN"
 "http://www.w3.org/Graphics/SVG/1.1/DTD/svg11.dtd">
<!-- Generated by graphviz version 2.43.0 (0)
 -->
<!-- Title: squid/src/HttpHdrScTarget.cc Pages: 1 -->
<svg width="4147pt" height="357pt"
 viewBox="0.00 0.00 4146.50 357.00" xmlns="http://www.w3.org/2000/svg" xmlns:xlink="http://www.w3.org/1999/xlink">
<g id="graph0" class="graph" transform="scale(1 1) rotate(0) translate(4 353)">
<title>squid/src/HttpHdrScTarget.cc</title>
<!-- Node1 -->
<g id="Node000001" class="node">
<title>Node1</title>
<g id="a_Node000001"><a xlink:title=" ">
<polygon fill="#999999" stroke="#666666" points="3558,-349 3402,-349 3402,-330 3558,-330 3558,-349"/>
<text text-anchor="middle" x="3480" y="-337" font-family="Helvetica,sans-Serif" font-size="10.00">squid/src/HttpHdrScTarget.cc</text>
</a>
</g>
</g>
<!-- Node2 -->
<g id="Node000002" class="node">
<title>Node2</title>
<g id="a_Node000002"><a xlink:href="squid_8h.html" target="_top" xlink:title=" ">
<polygon fill="white" stroke="#666666" points="1605,-294 1553,-294 1553,-275 1605,-275 1605,-294"/>
<text text-anchor="middle" x="1579" y="-282" font-family="Helvetica,sans-Serif" font-size="10.00">squid.h</text>
</a>
</g>
</g>
<!-- Node1&#45;&gt;Node2 -->
<g id="edge1_Node000001_Node000002" class="edge">
<title>Node1&#45;&gt;Node2</title>
<g id="a_edge1_Node000001_Node000002"><a xlink:title=" ">
<path fill="none" stroke="#63b8ff" d="M3401.93,-336.32C3077.66,-327.28 1843.29,-292.87 1615.32,-286.51"/>
<polygon fill="#63b8ff" stroke="#63b8ff" points="1615.32,-283.01 1605.23,-286.23 1615.13,-290.01 1615.32,-283.01"/>
</a>
</g>
</g>
<!-- Node44 -->
<g id="Node000044" class="node">
<title>Node44</title>
<g id="a_Node000044"><a xlink:href="HttpHdrSc_8h.html" target="_top" xlink:title=" ">
<polygon fill="white" stroke="#666666" points="3484.5,-294 3409.5,-294 3409.5,-275 3484.5,-275 3484.5,-294"/>
<text text-anchor="middle" x="3447" y="-282" font-family="Helvetica,sans-Serif" font-size="10.00">HttpHdrSc.h</text>
</a>
</g>
</g>
<!-- Node1&#45;&gt;Node44 -->
<g id="edge30_Node000001_Node000044" class="edge">
<title>Node1&#45;&gt;Node44</title>
<g id="a_edge30_Node000001_Node000044"><a xlink:title=" ">
<path fill="none" stroke="#63b8ff" d="M3474.55,-329.75C3469.99,-322.42 3463.33,-311.73 3457.71,-302.7"/>
<polygon fill="#63b8ff" stroke="#63b8ff" points="3460.6,-300.73 3452.35,-294.09 3454.66,-304.43 3460.6,-300.73"/>
</a>
</g>
</g>
<!-- Node55 -->
<g id="Node000055" class="node">
<title>Node55</title>
<g id="a_Node000055"><a xlink:href="HttpHdrScTarget_8h.html" target="_top" xlink:title=" ">
<polygon fill="white" stroke="#666666" points="3576.5,-239 3471.5,-239 3471.5,-220 3576.5,-220 3576.5,-239"/>
<text text-anchor="middle" x="3524" y="-227" font-family="Helvetica,sans-Serif" font-size="10.00">HttpHdrScTarget.h</text>
</a>
</g>
</g>
<!-- Node1&#45;&gt;Node55 -->
<g id="edge50_Node000001_Node000055" class="edge">
<title>Node1&#45;&gt;Node55</title>
<g id="a_edge50_Node000001_Node000055"><a xlink:title=" ">
<path fill="none" stroke="#63b8ff" d="M3483.6,-329.66C3490.79,-312.01 3507.06,-272.09 3516.61,-248.64"/>
<polygon fill="#63b8ff" stroke="#63b8ff" points="3519.94,-249.74 3520.47,-239.16 3513.46,-247.1 3519.94,-249.74"/>
</a>
</g>
</g>
<!-- Node70 -->
<g id="Node000070" class="node">
<title>Node70</title>
<g id="a_Node000070"><a xlink:href="StatHist_8h.html" target="_top" xlink:title=" ">
<polygon fill="white" stroke="#666666" points="3731.5,-294 3666.5,-294 3666.5,-275 3731.5,-275 3731.5,-294"/>
<text text-anchor="middle" x="3699" y="-282" font-family="Helvetica,sans-Serif" font-size="10.00">StatHist.h</text>
</a>
</g>
</g>
<!-- Node1&#45;&gt;Node70 -->
<g id="edge51_Node000001_Node000070" class="edge">
<title>Node1&#45;&gt;Node70</title>
<g id="a_edge51_Node000001_Node000070"><a xlink:title=" ">
<path fill="none" stroke="#63b8ff" d="M3515.19,-329.98C3553.72,-320.66 3615.51,-305.71 3656.67,-295.74"/>
<polygon fill="#63b8ff" stroke="#63b8ff" points="3657.51,-299.14 3666.4,-293.39 3655.86,-292.34 3657.51,-299.14"/>
</a>
</g>
</g>
<!-- Node3 -->
<g id="Node000003" class="node">
<title>Node3</title>
<g id="a_Node000003"><a xlink:href="autoconf_8h.html" target="_top" xlink:title=" ">
<polygon fill="white" stroke="#666666" points="1480,-239 1412,-239 1412,-220 1480,-220 1480,-239"/>
<text text-anchor="middle" x="1446" y="-227" font-family="Helvetica,sans-Serif" font-size="10.00">autoconf.h</text>
</a>
</g>
</g>
<!-- Node2&#45;&gt;Node3 -->
<g id="edge2_Node000002_Node000003" class="edge">
<title>Node2&#45;&gt;Node3</title>
<g id="a_edge2_Node000002_Node000003"><a xlink:title=" ">
<path fill="none" stroke="#63b8ff" d="M1557.63,-274.98C1535.85,-266.3 1501.84,-252.75 1477.08,-242.88"/>
<polygon fill="#63b8ff" stroke="#63b8ff" points="1478.34,-239.62 1467.76,-239.17 1475.75,-246.12 1478.34,-239.62"/>
</a>
</g>
</g>
<!-- Node4 -->
<g id="Node000004" class="node">
<title>Node4</title>
<g id="a_Node000004"><a xlink:href="version_8h.html" target="_top" xlink:title=" ">
<polygon fill="white" stroke="#666666" points="1560,-239 1498,-239 1498,-220 1560,-220 1560,-239"/>
<text text-anchor="middle" x="1529" y="-227" font-family="Helvetica,sans-Serif" font-size="10.00">version.h</text>
</a>
</g>
</g>
<!-- Node2&#45;&gt;Node4 -->
<g id="edge3_Node000002_Node000004" class="edge">
<title>Node2&#45;&gt;Node4</title>
<g id="a_edge3_Node000002_Node000004"><a xlink:title=" ">
<path fill="none" stroke="#63b8ff" d="M1570.74,-274.75C1563.54,-267.11 1552.89,-255.82 1544.15,-246.56"/>
<polygon fill="#63b8ff" stroke="#63b8ff" points="1546.51,-243.96 1537.1,-239.09 1541.42,-248.76 1546.51,-243.96"/>
</a>
</g>
</g>
<!-- Node5 -->
<g id="Node000005" class="node">
<title>Node5</title>
<g id="a_Node000005"><a xlink:href="compat_8h.html" target="_top" xlink:title=" ">
<polygon fill="white" stroke="#666666" points="1680,-239 1578,-239 1578,-220 1680,-220 1680,-239"/>
<text text-anchor="middle" x="1629" y="-227" font-family="Helvetica,sans-Serif" font-size="10.00">compat/compat.h</text>
</a>
</g>
</g>
<!-- Node2&#45;&gt;Node5 -->
<g id="edge4_Node000002_Node000005" class="edge">
<title>Node2&#45;&gt;Node5</title>
<g id="a_edge4_Node000002_Node000005"><a xlink:title=" ">
<path fill="none" stroke="#63b8ff" d="M1587.26,-274.75C1594.46,-267.11 1605.11,-255.82 1613.85,-246.56"/>
<polygon fill="#63b8ff" stroke="#63b8ff" points="1616.58,-248.76 1620.9,-239.09 1611.49,-243.96 1616.58,-248.76"/>
</a>
</g>
</g>
<!-- Node6 -->
<g id="Node000006" class="node">
<title>Node6</title>
<g id="a_Node000006"><a xlink:href="osdetect_8h.html" target="_top" xlink:title=" ">
<polygon fill="white" stroke="#666666" points="860.5,-184 753.5,-184 753.5,-165 860.5,-165 860.5,-184"/>
<text text-anchor="middle" x="807" y="-172" font-family="Helvetica,sans-Serif" font-size="10.00">compat/osdetect.h</text>
</a>
</g>
</g>
<!-- Node5&#45;&gt;Node6 -->
<g id="edge5_Node000005_Node000006" class="edge">
<title>Node5&#45;&gt;Node6</title>
<g id="a_edge5_Node000005_Node000006"><a xlink:title=" ">
<path fill="none" stroke="#63b8ff" d="M1577.97,-220.96C1574.94,-220.61 1571.93,-220.28 1569,-220 1262.68,-190.47 1181.48,-212.34 870.78,-183.98"/>
<polygon fill="#63b8ff" stroke="#63b8ff" points="870.86,-180.47 860.58,-183.04 870.22,-187.44 870.86,-180.47"/>
</a>
</g>
</g>
<!-- Node7 -->
<g id="Node000007" class="node">
<title>Node7</title>
<g id="a_Node000007"><a xlink:href="fdsetsize_8h.html" target="_top" xlink:title=" ">
<polygon fill="white" stroke="#666666" points="989,-184 879,-184 879,-165 989,-165 989,-184"/>
<text text-anchor="middle" x="934" y="-172" font-family="Helvetica,sans-Serif" font-size="10.00">compat/fdsetsize.h</text>
</a>
</g>
</g>
<!-- Node5&#45;&gt;Node7 -->
<g id="edge6_Node000005_Node000007" class="edge">
<title>Node5&#45;&gt;Node7</title>
<g id="a_edge6_Node000005_Node000007"><a xlink:title=" ">
<path fill="none" stroke="#63b8ff" d="M1577.97,-221C1574.94,-220.64 1571.93,-220.3 1569,-220 1319.37,-194.49 1252.82,-208.38 999.39,-184.06"/>
<polygon fill="#63b8ff" stroke="#63b8ff" points="999.42,-180.55 989.13,-183.07 998.75,-187.52 999.42,-180.55"/>
</a>
</g>
</g>
<!-- Node8 -->
<g id="Node000008" class="node">
<title>Node8</title>
<g id="a_Node000008"><a xlink:href="types_8h.html" target="_top" xlink:title=" ">
<polygon fill="#fff0f0" stroke="red" points="1099,-184 1007,-184 1007,-165 1099,-165 1099,-184"/>
<text text-anchor="middle" x="1053" y="-172" font-family="Helvetica,sans-Serif" font-size="10.00">compat/types.h</text>
</a>
</g>
</g>
<!-- Node5&#45;&gt;Node8 -->
<g id="edge7_Node000005_Node000008" class="edge">
<title>Node5&#45;&gt;Node8</title>
<g id="a_edge7_Node000005_Node000008"><a xlink:title=" ">
<path fill="none" stroke="#63b8ff" d="M1577.96,-221.05C1574.93,-220.67 1571.93,-220.32 1569,-220 1368.01,-197.94 1313.87,-207.39 1109.35,-184.07"/>
<polygon fill="#63b8ff" stroke="#63b8ff" points="1109.51,-180.56 1099.18,-182.9 1108.71,-187.52 1109.51,-180.56"/>
</a>
</g>
</g>
<!-- Node10 -->
<g id="Node000010" class="node">
<title>Node10</title>
<g id="a_Node000010"><a xlink:href="aix_8h.html" target="_top" xlink:title=" ">
<polygon fill="white" stroke="#666666" points="1212.5,-184 1117.5,-184 1117.5,-165 1212.5,-165 1212.5,-184"/>
<text text-anchor="middle" x="1165" y="-172" font-family="Helvetica,sans-Serif" font-size="10.00">compat/os/aix.h</text>
</a>
</g>
</g>
<!-- Node5&#45;&gt;Node10 -->
<g id="edge8_Node000005_Node000010" class="edge">
<title>Node5&#45;&gt;Node10</title>
<g id="a_edge8_Node000005_Node000010"><a xlink:title=" ">
<path fill="none" stroke="#63b8ff" d="M1577.95,-221.14C1574.93,-220.74 1571.92,-220.36 1569,-220 1418.41,-201.53 1377.57,-203.35 1222.92,-184.06"/>
<polygon fill="#63b8ff" stroke="#63b8ff" points="1222.92,-180.53 1212.56,-182.76 1222.05,-187.48 1222.92,-180.53"/>
</a>
</g>
</g>
<!-- Node11 -->
<g id="Node000011" class="node">
<title>Node11</title>
<g id="a_Node000011"><a xlink:href="android_8h.html" target="_top" xlink:title=" ">
<polygon fill="white" stroke="#666666" points="1347,-184 1231,-184 1231,-165 1347,-165 1347,-184"/>
<text text-anchor="middle" x="1289" y="-172" font-family="Helvetica,sans-Serif" font-size="10.00">compat/os/android.h</text>
</a>
</g>
</g>
<!-- Node5&#45;&gt;Node11 -->
<g id="edge9_Node000005_Node000011" class="edge">
<title>Node5&#45;&gt;Node11</title>
<g id="a_edge9_Node000005_Node000011"><a xlink:title=" ">
<path fill="none" stroke="#63b8ff" d="M1577.73,-220.51C1517.95,-211.19 1419.04,-195.77 1353.94,-185.62"/>
<polygon fill="#63b8ff" stroke="#63b8ff" points="1354.21,-182.12 1343.79,-184.04 1353.13,-189.04 1354.21,-182.12"/>
</a>
</g>
</g>
<!-- Node12 -->
<g id="Node000012" class="node">
<title>Node12</title>
<g id="a_Node000012"><a xlink:href="dragonfly_8h.html" target="_top" xlink:title=" ">
<polygon fill="white" stroke="#666666" points="1489,-184 1365,-184 1365,-165 1489,-165 1489,-184"/>
<text text-anchor="middle" x="1427" y="-172" font-family="Helvetica,sans-Serif" font-size="10.00">compat/os/dragonfly.h</text>
</a>
</g>
</g>
<!-- Node5&#45;&gt;Node12 -->
<g id="edge10_Node000005_Node000012" class="edge">
<title>Node5&#45;&gt;Node12</title>
<g id="a_edge10_Node000005_Node000012"><a xlink:title=" ">
<path fill="none" stroke="#63b8ff" d="M1596.55,-219.98C1562.04,-210.93 1507.34,-196.58 1469.44,-186.64"/>
<polygon fill="#63b8ff" stroke="#63b8ff" points="1470.27,-183.23 1459.71,-184.08 1468.49,-190.01 1470.27,-183.23"/>
</a>
</g>
</g>
<!-- Node13 -->
<g id="Node000013" class="node">
<title>Node13</title>
<g id="a_Node000013"><a xlink:href="freebsd_8h.html" target="_top" xlink:title=" ">
<polygon fill="white" stroke="#666666" points="1623,-184 1507,-184 1507,-165 1623,-165 1623,-184"/>
<text text-anchor="middle" x="1565" y="-172" font-family="Helvetica,sans-Serif" font-size="10.00">compat/os/freebsd.h</text>
</a>
</g>
</g>
<!-- Node5&#45;&gt;Node13 -->
<g id="edge11_Node000005_Node000013" class="edge">
<title>Node5&#45;&gt;Node13</title>
<g id="a_edge11_Node000005_Node000013"><a xlink:title=" ">
<path fill="none" stroke="#63b8ff" d="M1618.72,-219.98C1609.16,-212.07 1594.72,-200.11 1583.22,-190.58"/>
<polygon fill="#63b8ff" stroke="#63b8ff" points="1585.4,-187.85 1575.47,-184.17 1580.94,-193.24 1585.4,-187.85"/>
</a>
</g>
</g>
<!-- Node14 -->
<g id="Node000014" class="node">
<title>Node14</title>
<g id="a_Node000014"><a xlink:href="hpux_8h.html" target="_top" xlink:title=" ">
<polygon fill="white" stroke="#666666" points="1745,-184 1641,-184 1641,-165 1745,-165 1745,-184"/>
<text text-anchor="middle" x="1693" y="-172" font-family="Helvetica,sans-Serif" font-size="10.00">compat/os/hpux.h</text>
</a>
</g>
</g>
<!-- Node5&#45;&gt;Node14 -->
<g id="edge12_Node000005_Node000014" class="edge">
<title>Node5&#45;&gt;Node14</title>
<g id="a_edge12_Node000005_Node000014"><a xlink:title=" ">
<path fill="none" stroke="#63b8ff" d="M1639.28,-219.98C1648.84,-212.07 1663.28,-200.11 1674.78,-190.58"/>
<polygon fill="#63b8ff" stroke="#63b8ff" points="1677.06,-193.24 1682.53,-184.17 1672.6,-187.85 1677.06,-193.24"/>
</a>
</g>
</g>
<!-- Node15 -->
<g id="Node000015" class="node">
<title>Node15</title>
<g id="a_Node000015"><a xlink:href="linux_8h.html" target="_top" xlink:title=" ">
<polygon fill="white" stroke="#666666" points="1867,-184 1763,-184 1763,-165 1867,-165 1867,-184"/>
<text text-anchor="middle" x="1815" y="-172" font-family="Helvetica,sans-Serif" font-size="10.00">compat/os/linux.h</text>
</a>
</g>
</g>
<!-- Node5&#45;&gt;Node15 -->
<g id="edge13_Node000005_Node000015" class="edge">
<title>Node5&#45;&gt;Node15</title>
<g id="a_edge13_Node000005_Node000015"><a xlink:title=" ">
<path fill="none" stroke="#63b8ff" d="M1658.88,-219.98C1690.38,-211.01 1740.17,-196.82 1775.03,-186.89"/>
<polygon fill="#63b8ff" stroke="#63b8ff" points="1776.22,-190.19 1784.88,-184.08 1774.31,-183.46 1776.22,-190.19"/>
</a>
</g>
</g>
<!-- Node16 -->
<g id="Node000016" class="node">
<title>Node16</title>
<g id="a_Node000016"><a xlink:href="macosx_8h.html" target="_top" xlink:title=" ">
<polygon fill="white" stroke="#666666" points="2003,-184 1885,-184 1885,-165 2003,-165 2003,-184"/>
<text text-anchor="middle" x="1944" y="-172" font-family="Helvetica,sans-Serif" font-size="10.00">compat/os/macosx.h</text>
</a>
</g>
</g>
<!-- Node5&#45;&gt;Node16 -->
<g id="edge14_Node000005_Node000016" class="edge">
<title>Node5&#45;&gt;Node16</title>
<g id="a_edge14_Node000005_Node000016"><a xlink:title=" ">
<path fill="none" stroke="#63b8ff" d="M1679.61,-219.98C1735.1,-210.65 1824.09,-195.67 1883.29,-185.71"/>
<polygon fill="#63b8ff" stroke="#63b8ff" points="1883.97,-189.15 1893.25,-184.04 1882.81,-182.25 1883.97,-189.15"/>
</a>
</g>
</g>
<!-- Node17 -->
<g id="Node000017" class="node">
<title>Node17</title>
<g id="a_Node000017"><a xlink:href="mingw_8h.html" target="_top" xlink:title=" ">
<polygon fill="white" stroke="#666666" points="2133,-184 2021,-184 2021,-165 2133,-165 2133,-184"/>
<text text-anchor="middle" x="2077" y="-172" font-family="Helvetica,sans-Serif" font-size="10.00">compat/os/mingw.h</text>
</a>
</g>
</g>
<!-- Node5&#45;&gt;Node17 -->
<g id="edge15_Node000005_Node000017" class="edge">
<title>Node5&#45;&gt;Node17</title>
<g id="a_edge15_Node000005_Node000017"><a xlink:title=" ">
<path fill="none" stroke="#63b8ff" d="M1680.14,-222.79C1751.66,-214.76 1885.93,-199.5 2010.86,-184.13"/>
<polygon fill="#63b8ff" stroke="#63b8ff" points="2011.49,-187.57 2020.99,-182.88 2010.63,-180.63 2011.49,-187.57"/>
</a>
</g>
</g>
<!-- Node18 -->
<g id="Node000018" class="node">
<title>Node18</title>
<g id="a_Node000018"><a xlink:href="mswindows_8h.html" target="_top" xlink:title=" ">
<polygon fill="white" stroke="#666666" points="2288.5,-184 2151.5,-184 2151.5,-165 2288.5,-165 2288.5,-184"/>
<text text-anchor="middle" x="2220" y="-172" font-family="Helvetica,sans-Serif" font-size="10.00">compat/os/mswindows.h</text>
</a>
</g>
</g>
<!-- Node5&#45;&gt;Node18 -->
<g id="edge16_Node000005_Node000018" class="edge">
<title>Node5&#45;&gt;Node18</title>
<g id="a_edge16_Node000005_Node000018"><a xlink:title=" ">
<path fill="none" stroke="#63b8ff" d="M1680,-224.45C1770.5,-217.18 1965.35,-201.17 2140.9,-184.09"/>
<polygon fill="#63b8ff" stroke="#63b8ff" points="2141.49,-187.55 2151.11,-183.09 2140.81,-180.58 2141.49,-187.55"/>
</a>
</g>
</g>
<!-- Node19 -->
<g id="Node000019" class="node">
<title>Node19</title>
<g id="a_Node000019"><a xlink:href="netbsd_8h.html" target="_top" xlink:title=" ">
<polygon fill="white" stroke="#666666" points="2419.5,-184 2306.5,-184 2306.5,-165 2419.5,-165 2419.5,-184"/>
<text text-anchor="middle" x="2363" y="-172" font-family="Helvetica,sans-Serif" font-size="10.00">compat/os/netbsd.h</text>
</a>
</g>
</g>
<!-- Node5&#45;&gt;Node19 -->
<g id="edge17_Node000005_Node000019" class="edge">
<title>Node5&#45;&gt;Node19</title>
<g id="a_edge17_Node000005_Node000019"><a xlink:title=" ">
<path fill="none" stroke="#63b8ff" d="M1680.21,-226.17C1790.64,-220.9 2059.62,-206.82 2295.98,-184.04"/>
<polygon fill="#63b8ff" stroke="#63b8ff" points="2296.53,-187.5 2306.14,-183.05 2295.85,-180.53 2296.53,-187.5"/>
</a>
</g>
</g>
<!-- Node20 -->
<g id="Node000020" class="node">
<title>Node20</title>
<g id="a_Node000020"><a xlink:href="openbsd_8h.html" target="_top" xlink:title=" ">
<polygon fill="white" stroke="#666666" points="2558.5,-184 2437.5,-184 2437.5,-165 2558.5,-165 2558.5,-184"/>
<text text-anchor="middle" x="2498" y="-172" font-family="Helvetica,sans-Serif" font-size="10.00">compat/os/openbsd.h</text>
</a>
</g>
</g>
<!-- Node5&#45;&gt;Node20 -->
<g id="edge18_Node000005_Node000020" class="edge">
<title>Node5&#45;&gt;Node20</title>
<g id="a_edge18_Node000005_Node000020"><a xlink:title=" ">
<path fill="none" stroke="#63b8ff" d="M1680.03,-226.81C1805.28,-222.42 2138.11,-209.26 2427.06,-184.02"/>
<polygon fill="#63b8ff" stroke="#63b8ff" points="2427.66,-187.48 2437.32,-183.11 2427.05,-180.5 2427.66,-187.48"/>
</a>
</g>
</g>
<!-- Node21 -->
<g id="Node000021" class="node">
<title>Node21</title>
<g id="a_Node000021"><a xlink:href="os2_8h.html" target="_top" xlink:title=" ">
<polygon fill="white" stroke="#666666" points="2673.5,-184 2576.5,-184 2576.5,-165 2673.5,-165 2673.5,-184"/>
<text text-anchor="middle" x="2625" y="-172" font-family="Helvetica,sans-Serif" font-size="10.00">compat/os/os2.h</text>
</a>
</g>
</g>
<!-- Node5&#45;&gt;Node21 -->
<g id="edge19_Node000005_Node000021" class="edge">
<title>Node5&#45;&gt;Node21</title>
<g id="a_edge19_Node000005_Node000021"><a xlink:title=" ">
<path fill="none" stroke="#63b8ff" d="M1680.22,-227.83C1820.31,-225.64 2221.73,-216.81 2566.14,-183.97"/>
<polygon fill="#63b8ff" stroke="#63b8ff" points="2566.69,-187.43 2576.31,-182.99 2566.02,-180.46 2566.69,-187.43"/>
</a>
</g>
</g>
<!-- Node22 -->
<g id="Node000022" class="node">
<title>Node22</title>
<g id="a_Node000022"><a xlink:href="qnx_8h.html" target="_top" xlink:title=" ">
<polygon fill="white" stroke="#666666" points="2790,-184 2692,-184 2692,-165 2790,-165 2790,-184"/>
<text text-anchor="middle" x="2741" y="-172" font-family="Helvetica,sans-Serif" font-size="10.00">compat/os/qnx.h</text>
</a>
</g>
</g>
<!-- Node5&#45;&gt;Node22 -->
<g id="edge20_Node000005_Node000022" class="edge">
<title>Node5&#45;&gt;Node22</title>
<g id="a_edge20_Node000005_Node000022"><a xlink:title=" ">
<path fill="none" stroke="#63b8ff" d="M1680.08,-228.16C1831.31,-226.78 2290.1,-219.8 2681.68,-183.9"/>
<polygon fill="#63b8ff" stroke="#63b8ff" points="2682.15,-187.37 2691.79,-182.97 2681.51,-180.4 2682.15,-187.37"/>
</a>
</g>
</g>
<!-- Node23 -->
<g id="Node000023" class="node">
<title>Node23</title>
<g id="a_Node000023"><a xlink:href="solaris_8h.html" target="_top" xlink:title=" ">
<polygon fill="white" stroke="#666666" points="2920,-184 2808,-184 2808,-165 2920,-165 2920,-184"/>
<text text-anchor="middle" x="2864" y="-172" font-family="Helvetica,sans-Serif" font-size="10.00">compat/os/solaris.h</text>
</a>
</g>
</g>
<!-- Node5&#45;&gt;Node23 -->
<g id="edge21_Node000005_Node000023" class="edge">
<title>Node5&#45;&gt;Node23</title>
<g id="a_edge21_Node000005_Node000023"><a xlink:title=" ">
<path fill="none" stroke="#63b8ff" d="M1680.13,-228.23C1842.25,-227.03 2359.4,-220.46 2797.65,-184.03"/>
<polygon fill="#63b8ff" stroke="#63b8ff" points="2797.99,-187.51 2807.66,-183.19 2797.41,-180.54 2797.99,-187.51"/>
</a>
</g>
</g>
<!-- Node24 -->
<g id="Node000024" class="node">
<title>Node24</title>
<g id="a_Node000024"><a xlink:href="sunos_8h.html" target="_top" xlink:title=" ">
<polygon fill="white" stroke="#666666" points="3046,-184 2938,-184 2938,-165 3046,-165 3046,-184"/>
<text text-anchor="middle" x="2992" y="-172" font-family="Helvetica,sans-Serif" font-size="10.00">compat/os/sunos.h</text>
</a>
</g>
</g>
<!-- Node5&#45;&gt;Node24 -->
<g id="edge22_Node000005_Node000024" class="edge">
<title>Node5&#45;&gt;Node24</title>
<g id="a_edge22_Node000005_Node000024"><a xlink:title=" ">
<path fill="none" stroke="#63b8ff" d="M1680.21,-228.58C1853.84,-228.47 2436.31,-224.94 2927.61,-184.02"/>
<polygon fill="#63b8ff" stroke="#63b8ff" points="2928.07,-187.49 2937.74,-183.17 2927.48,-180.52 2928.07,-187.49"/>
</a>
</g>
</g>
<!-- Node25 -->
<g id="Node000025" class="node">
<title>Node25</title>
<g id="a_Node000025"><a xlink:href="assert_8h.html" target="_top" xlink:title=" ">
<polygon fill="white" stroke="#666666" points="3159.5,-184 3064.5,-184 3064.5,-165 3159.5,-165 3159.5,-184"/>
<text text-anchor="middle" x="3112" y="-172" font-family="Helvetica,sans-Serif" font-size="10.00">compat/assert.h</text>
</a>
</g>
</g>
<!-- Node5&#45;&gt;Node25 -->
<g id="edge23_Node000005_Node000025" class="edge">
<title>Node5&#45;&gt;Node25</title>
<g id="a_edge23_Node000005_Node000025"><a xlink:title=" ">
<path fill="none" stroke="#63b8ff" d="M1680.27,-227.7C1899.43,-224.18 2759.45,-209.08 3054.22,-183.91"/>
<polygon fill="#63b8ff" stroke="#63b8ff" points="3054.81,-187.37 3064.46,-183.01 3054.2,-180.4 3054.81,-187.37"/>
</a>
</g>
</g>
<!-- Node26 -->
<g id="Node000026" class="node">
<title>Node26</title>
<g id="a_Node000026"><a xlink:href="compat__shared_8h.html" target="_top" xlink:title=" ">
<polygon fill="#fff0f0" stroke="red" points="140,-184 0,-184 0,-165 140,-165 140,-184"/>
<text text-anchor="middle" x="70" y="-172" font-family="Helvetica,sans-Serif" font-size="10.00">compat/compat_shared.h</text>
</a>
</g>
</g>
<!-- Node5&#45;&gt;Node26 -->
<g id="edge24_Node000005_Node000026" class="edge">
<title>Node5&#45;&gt;Node26</title>
<g id="a_edge24_Node000005_Node000026"><a xlink:title=" ">
<path fill="none" stroke="#63b8ff" d="M1577.98,-220.86C1574.95,-220.54 1571.94,-220.24 1569,-220 943.24,-167.92 780.67,-225.18 150.44,-184.03"/>
<polygon fill="#63b8ff" stroke="#63b8ff" points="150.39,-180.52 140.19,-183.35 149.93,-187.5 150.39,-180.52"/>
</a>
</g>
</g>
<!-- Node36 -->
<g id="Node000036" class="node">
<title>Node36</title>
<g id="a_Node000036"><a xlink:href="stdvarargs_8h.html" target="_top" xlink:title=" ">
<polygon fill="#fff0f0" stroke="red" points="275.5,-184 158.5,-184 158.5,-165 275.5,-165 275.5,-184"/>
<text text-anchor="middle" x="217" y="-172" font-family="Helvetica,sans-Serif" font-size="10.00">compat/stdvarargs.h</text>
</a>
</g>
</g>
<!-- Node5&#45;&gt;Node36 -->
<g id="edge25_Node000005_Node000036" class="edge">
<title>Node5&#45;&gt;Node36</title>
<g id="a_edge25_Node000005_Node000036"><a xlink:title=" ">
<path fill="none" stroke="#63b8ff" d="M1577.98,-220.87C1574.95,-220.54 1571.94,-220.25 1569,-220 1003.03,-172.14 855.36,-227.35 285.91,-184.07"/>
<polygon fill="#63b8ff" stroke="#63b8ff" points="286.03,-180.57 275.79,-183.29 285.5,-187.54 286.03,-180.57"/>
</a>
</g>
</g>
<!-- Node38 -->
<g id="Node000038" class="node">
<title>Node38</title>
<g id="a_Node000038"><a xlink:href="stdio_8h.html" target="_top" xlink:title=" ">
<polygon fill="#fff0f0" stroke="red" points="382.5,-184 293.5,-184 293.5,-165 382.5,-165 382.5,-184"/>
<text text-anchor="middle" x="338" y="-172" font-family="Helvetica,sans-Serif" font-size="10.00">compat/stdio.h</text>
</a>
</g>
</g>
<!-- Node5&#45;&gt;Node38 -->
<g id="edge26_Node000005_Node000038" class="edge">
<title>Node5&#45;&gt;Node38</title>
<g id="a_edge26_Node000005_Node000038"><a xlink:title=" ">
<path fill="none" stroke="#63b8ff" d="M1577.98,-220.88C1574.95,-220.55 1571.93,-220.25 1569,-220 1050.43,-175.48 914.17,-232.84 392.81,-184.04"/>
<polygon fill="#63b8ff" stroke="#63b8ff" points="393.05,-180.55 382.77,-183.09 392.39,-187.52 393.05,-180.55"/>
</a>
</g>
</g>
<!-- Node40 -->
<g id="Node000040" class="node">
<title>Node40</title>
<g id="a_Node000040"><a xlink:href="statvfs_8h.html" target="_top" xlink:title=" ">
<polygon fill="white" stroke="#666666" points="499.5,-184 400.5,-184 400.5,-165 499.5,-165 499.5,-184"/>
<text text-anchor="middle" x="450" y="-172" font-family="Helvetica,sans-Serif" font-size="10.00">compat/statvfs.h</text>
</a>
</g>
</g>
<!-- Node5&#45;&gt;Node40 -->
<g id="edge27_Node000005_Node000040" class="edge">
<title>Node5&#45;&gt;Node40</title>
<g id="a_edge27_Node000005_Node000040"><a xlink:title=" ">
<path fill="none" stroke="#63b8ff" d="M1577.98,-220.89C1574.94,-220.56 1571.93,-220.26 1569,-220 1102.3,-179.14 979.66,-225.61 509.74,-184.05"/>
<polygon fill="#63b8ff" stroke="#63b8ff" points="509.9,-180.55 499.63,-183.15 509.28,-187.52 509.9,-180.55"/>
</a>
</g>
</g>
<!-- Node41 -->
<g id="Node000041" class="node">
<title>Node41</title>
<g id="a_Node000041"><a xlink:href="debug_8h.html" target="_top" xlink:title=" ">
<polygon fill="white" stroke="#666666" points="612.5,-184 517.5,-184 517.5,-165 612.5,-165 612.5,-184"/>
<text text-anchor="middle" x="565" y="-172" font-family="Helvetica,sans-Serif" font-size="10.00">compat/debug.h</text>
</a>
</g>
</g>
<!-- Node5&#45;&gt;Node41 -->
<g id="edge28_Node000005_Node000041" class="edge">
<title>Node5&#45;&gt;Node41</title>
<g id="a_edge28_Node000005_Node000041"><a xlink:title=" ">
<path fill="none" stroke="#63b8ff" d="M1577.98,-220.91C1574.94,-220.57 1571.93,-220.26 1569,-220 1152.33,-182.67 1042.47,-223.06 622.59,-184.04"/>
<polygon fill="#63b8ff" stroke="#63b8ff" points="622.9,-180.55 612.61,-183.1 622.24,-187.52 622.9,-180.55"/>
</a>
</g>
</g>
<!-- Node42 -->
<g id="Node000042" class="node">
<title>Node42</title>
<g id="a_Node000042"><a xlink:href="valgrind_8h.html" target="_top" xlink:title=" ">
<polygon fill="#fff0f0" stroke="red" points="735.5,-184 630.5,-184 630.5,-165 735.5,-165 735.5,-184"/>
<text text-anchor="middle" x="683" y="-172" font-family="Helvetica,sans-Serif" font-size="10.00">compat/valgrind.h</text>
</a>
</g>
</g>
<!-- Node5&#45;&gt;Node42 -->
<g id="edge29_Node000005_Node000042" class="edge">
<title>Node5&#45;&gt;Node42</title>
<g id="a_edge29_Node000005_Node000042"><a xlink:title=" ">
<path fill="none" stroke="#63b8ff" d="M1577.98,-220.93C1574.94,-220.58 1571.93,-220.27 1569,-220 1206.84,-186.53 1111.22,-216.81 745.6,-184.05"/>
<polygon fill="#63b8ff" stroke="#63b8ff" points="745.81,-180.56 735.54,-183.14 745.18,-187.53 745.81,-180.56"/>
</a>
</g>
</g>
<!-- Node45 -->
<g id="Node000045" class="node">
<title>Node45</title>
<g id="a_Node000045"><a xlink:href="http_2forward_8h.html" target="_top" xlink:title=" ">
<polygon fill="white" stroke="#666666" points="3678,-184 3592,-184 3592,-165 3678,-165 3678,-184"/>
<text text-anchor="middle" x="3635" y="-172" font-family="Helvetica,sans-Serif" font-size="10.00">http/forward.h</text>
</a>
</g>
</g>
<!-- Node44&#45;&gt;Node45 -->
<g id="edge31_Node000044_Node000045" class="edge">
<title>Node44&#45;&gt;Node45</title>
<g id="a_edge31_Node000044_Node000045"><a xlink:title=" ">
<path fill="none" stroke="#63b8ff" d="M3484.53,-277.6C3513.91,-271.59 3554.73,-260.06 3585,-239 3602.22,-227.02 3616.38,-207.38 3625.18,-193.11"/>
<polygon fill="#63b8ff" stroke="#63b8ff" points="3628.34,-194.64 3630.39,-184.24 3622.3,-191.09 3628.34,-194.64"/>
</a>
</g>
</g>
<!-- Node54 -->
<g id="Node000054" class="node">
<title>Node54</title>
<g id="a_Node000054"><a xlink:title=" ">
<polygon fill="#e0e0e0" stroke="#999999" points="3335,-19 3303,-19 3303,0 3335,0 3335,-19"/>
<text text-anchor="middle" x="3319" y="-7" font-family="Helvetica,sans-Serif" font-size="10.00">list</text>
</a>
</g>
</g>
<!-- Node44&#45;&gt;Node54 -->
<g id="edge49_Node000044_Node000054" class="edge">
<title>Node44&#45;&gt;Node54</title>
<g id="a_edge49_Node000044_Node000054"><a xlink:title=" ">
<path fill="none" stroke="#63b8ff" d="M3409.34,-284.2C3337.51,-283.37 3188,-270.26 3188,-175.5 3188,-175.5 3188,-175.5 3188,-118.5 3188,-64.61 3254.8,-32.61 3293,-18.72"/>
<polygon fill="#63b8ff" stroke="#63b8ff" points="3294.63,-21.86 3302.94,-15.28 3292.34,-15.25 3294.63,-21.86"/>
</a>
</g>
</g>
<!-- Node44&#45;&gt;Node55 -->
<g id="edge37_Node000044_Node000055" class="edge">
<title>Node44&#45;&gt;Node55</title>
<g id="a_edge37_Node000044_Node000055"><a xlink:title=" ">
<path fill="none" stroke="#63b8ff" d="M3459.37,-274.98C3471.09,-266.92 3488.92,-254.65 3502.89,-245.03"/>
<polygon fill="#63b8ff" stroke="#63b8ff" points="3505.15,-247.72 3511.4,-239.17 3501.18,-241.96 3505.15,-247.72"/>
</a>
</g>
</g>
<!-- Node57 -->
<g id="Node000057" class="node">
<title>Node57</title>
<g id="a_Node000057"><a xlink:href="SquidString_8h.html" target="_top" xlink:title=" ">
<polygon fill="white" stroke="#666666" points="3483.5,-184 3402.5,-184 3402.5,-165 3483.5,-165 3483.5,-184"/>
<text text-anchor="middle" x="3443" y="-172" font-family="Helvetica,sans-Serif" font-size="10.00">SquidString.h</text>
</a>
</g>
</g>
<!-- Node44&#45;&gt;Node57 -->
<g id="edge48_Node000044_Node000057" class="edge">
<title>Node44&#45;&gt;Node57</title>
<g id="a_edge48_Node000044_Node000057"><a xlink:title=" ">
<path fill="none" stroke="#63b8ff" d="M3446.67,-274.66C3446.02,-257.17 3444.57,-217.8 3443.7,-194.27"/>
<polygon fill="#63b8ff" stroke="#63b8ff" points="3447.19,-194.02 3443.32,-184.16 3440.19,-194.28 3447.19,-194.02"/>
</a>
</g>
</g>
<!-- Node68 -->
<g id="Node000068" class="node">
<title>Node68</title>
<g id="a_Node000068"><a xlink:href="PoolingAllocator_8h.html" target="_top" xlink:title=" ">
<polygon fill="white" stroke="#666666" points="3402.5,-239 3269.5,-239 3269.5,-220 3402.5,-220 3402.5,-239"/>
<text text-anchor="middle" x="3336" y="-227" font-family="Helvetica,sans-Serif" font-size="10.00">mem/PoolingAllocator.h</text>
</a>
</g>
</g>
<!-- Node44&#45;&gt;Node68 -->
<g id="edge45_Node000044_Node000068" class="edge">
<title>Node44&#45;&gt;Node68</title>
<g id="a_edge45_Node000044_Node000068"><a xlink:title=" ">
<path fill="none" stroke="#63b8ff" d="M3429.17,-274.98C3411.39,-266.5 3383.85,-253.35 3363.32,-243.54"/>
<polygon fill="#63b8ff" stroke="#63b8ff" points="3364.69,-240.32 3354.16,-239.17 3361.67,-246.64 3364.69,-240.32"/>
</a>
</g>
</g>
<!-- Node46 -->
<g id="Node000046" class="node">
<title>Node46</title>
<g id="a_Node000046"><a xlink:href="http_2one_2forward_8h.html" target="_top" xlink:title=" ">
<polygon fill="#fff0f0" stroke="red" points="3747.5,-129 3640.5,-129 3640.5,-110 3747.5,-110 3747.5,-129"/>
<text text-anchor="middle" x="3694" y="-117" font-family="Helvetica,sans-Serif" font-size="10.00">http/one/forward.h</text>
</a>
</g>
</g>
<!-- Node45&#45;&gt;Node46 -->
<g id="edge32_Node000045_Node000046" class="edge">
<title>Node45&#45;&gt;Node46</title>
<g id="a_edge32_Node000045_Node000046"><a xlink:title=" ">
<path fill="none" stroke="#63b8ff" d="M3644.48,-164.98C3653.2,-157.15 3666.34,-145.34 3676.9,-135.86"/>
<polygon fill="#63b8ff" stroke="#63b8ff" points="3679.25,-138.46 3684.35,-129.17 3674.57,-133.25 3679.25,-138.46"/>
</a>
</g>
</g>
<!-- Node47 -->
<g id="Node000047" class="node">
<title>Node47</title>
<g id="a_Node000047"><a xlink:href="RefCount_8h.html" target="_top" xlink:title=" ">
<polygon fill="#fff0f0" stroke="red" points="3742.5,-74 3645.5,-74 3645.5,-55 3742.5,-55 3742.5,-74"/>
<text text-anchor="middle" x="3694" y="-62" font-family="Helvetica,sans-Serif" font-size="10.00">base/RefCount.h</text>
</a>
</g>
</g>
<!-- Node46&#45;&gt;Node47 -->
<g id="edge33_Node000046_Node000047" class="edge">
<title>Node46&#45;&gt;Node47</title>
<g id="a_edge33_Node000046_Node000047"><a xlink:title=" ">
<path fill="none" stroke="#63b8ff" d="M3694,-109.75C3694,-102.8 3694,-92.85 3694,-84.13"/>
<polygon fill="#63b8ff" stroke="#63b8ff" points="3697.5,-84.09 3694,-74.09 3690.5,-84.09 3697.5,-84.09"/>
</a>
</g>
</g>
<!-- Node52 -->
<g id="Node000052" class="node">
<title>Node52</title>
<g id="a_Node000052"><a xlink:href="sbuf_2forward_8h.html" target="_top" xlink:title=" ">
<polygon fill="#fff0f0" stroke="red" points="3439.5,-74 3352.5,-74 3352.5,-55 3439.5,-55 3439.5,-74"/>
<text text-anchor="middle" x="3396" y="-62" font-family="Helvetica,sans-Serif" font-size="10.00">sbuf/forward.h</text>
</a>
</g>
</g>
<!-- Node46&#45;&gt;Node52 -->
<g id="edge35_Node000046_Node000052" class="edge">
<title>Node46&#45;&gt;Node52</title>
<g id="a_edge35_Node000046_Node000052"><a xlink:title=" ">
<path fill="none" stroke="#63b8ff" d="M3646.12,-109.98C3592.53,-100.45 3505.9,-85.05 3449.95,-75.1"/>
<polygon fill="#63b8ff" stroke="#63b8ff" points="3450.33,-71.61 3439.88,-73.3 3449.11,-78.5 3450.33,-71.61"/>
</a>
</g>
</g>
<!-- Node50 -->
<g id="Node000050" class="node">
<title>Node50</title>
<g id="a_Node000050"><a xlink:title=" ">
<polygon fill="#e0e0e0" stroke="#999999" points="3423.5,-19 3378.5,-19 3378.5,0 3423.5,0 3423.5,-19"/>
<text text-anchor="middle" x="3401" y="-7" font-family="Helvetica,sans-Serif" font-size="10.00">utility</text>
</a>
</g>
</g>
<!-- Node47&#45;&gt;Node50 -->
<g id="edge34_Node000047_Node000050" class="edge">
<title>Node47&#45;&gt;Node50</title>
<g id="a_edge34_Node000047_Node000050"><a xlink:title=" ">
<path fill="none" stroke="#63b8ff" d="M3646.92,-54.98C3587.15,-44.17 3485.55,-25.79 3433.64,-16.4"/>
<polygon fill="#63b8ff" stroke="#63b8ff" points="3434.11,-12.93 3423.65,-14.6 3432.86,-19.82 3434.11,-12.93"/>
</a>
</g>
</g>
<!-- Node52&#45;&gt;Node54 -->
<g id="edge36_Node000052_Node000054" class="edge">
<title>Node52&#45;&gt;Node54</title>
<g id="a_edge36_Node000052_Node000054"><a xlink:title=" ">
<path fill="none" stroke="#63b8ff" d="M3383.63,-54.98C3371.91,-46.92 3354.08,-34.65 3340.11,-25.03"/>
<polygon fill="#63b8ff" stroke="#63b8ff" points="3341.82,-21.96 3331.6,-19.17 3337.85,-27.72 3341.82,-21.96"/>
</a>
</g>
</g>
<!-- Node55&#45;&gt;Node45 -->
<g id="edge39_Node000055_Node000045" class="edge">
<title>Node55&#45;&gt;Node45</title>
<g id="a_edge39_Node000055_Node000045"><a xlink:title=" ">
<path fill="none" stroke="#63b8ff" d="M3541.83,-219.98C3559.61,-211.5 3587.15,-198.35 3607.68,-188.54"/>
<polygon fill="#63b8ff" stroke="#63b8ff" points="3609.33,-191.64 3616.84,-184.17 3606.31,-185.32 3609.33,-191.64"/>
</a>
</g>
</g>
<!-- Node56 -->
<g id="Node000056" class="node">
<title>Node56</title>
<g id="a_Node000056"><a xlink:href="defines_8h.html" target="_top" xlink:title=" ">
<polygon fill="white" stroke="#666666" points="3562.5,-184 3501.5,-184 3501.5,-165 3562.5,-165 3562.5,-184"/>
<text text-anchor="middle" x="3532" y="-172" font-family="Helvetica,sans-Serif" font-size="10.00">defines.h</text>
</a>
</g>
</g>
<!-- Node55&#45;&gt;Node56 -->
<g id="edge38_Node000055_Node000056" class="edge">
<title>Node55&#45;&gt;Node56</title>
<g id="a_edge38_Node000055_Node000056"><a xlink:title=" ">
<path fill="none" stroke="#63b8ff" d="M3525.32,-219.75C3526.37,-212.8 3527.87,-202.85 3529.19,-194.13"/>
<polygon fill="#63b8ff" stroke="#63b8ff" points="3532.67,-194.5 3530.7,-184.09 3525.75,-193.45 3532.67,-194.5"/>
</a>
</g>
</g>
<!-- Node55&#45;&gt;Node57 -->
<g id="edge40_Node000055_Node000057" class="edge">
<title>Node55&#45;&gt;Node57</title>
<g id="a_edge40_Node000055_Node000057"><a xlink:title=" ">
<path fill="none" stroke="#63b8ff" d="M3510.99,-219.98C3498.54,-211.84 3479.54,-199.41 3464.79,-189.76"/>
<polygon fill="#63b8ff" stroke="#63b8ff" points="3466.54,-186.72 3456.25,-184.17 3462.7,-192.57 3466.54,-186.72"/>
</a>
</g>
</g>
<!-- Node57&#45;&gt;Node52 -->
<g id="edge43_Node000057_Node000052" class="edge">
<title>Node57&#45;&gt;Node52</title>
<g id="a_edge43_Node000057_Node000052"><a xlink:title=" ">
<path fill="none" stroke="#63b8ff" d="M3422.48,-165C3407.98,-157.77 3389.65,-145.86 3381,-129 3373.58,-114.54 3379.19,-96.35 3385.55,-83.15"/>
<polygon fill="#63b8ff" stroke="#63b8ff" points="3388.72,-84.64 3390.36,-74.17 3382.55,-81.33 3388.72,-84.64"/>
</a>
</g>
</g>
<!-- Node58 -->
<g id="Node000058" class="node">
<title>Node58</title>
<g id="a_Node000058"><a xlink:href="TextException_8h.html" target="_top" xlink:title=" ">
<polygon fill="#fff0f0" stroke="red" points="3622,-129 3502,-129 3502,-110 3622,-110 3622,-129"/>
<text text-anchor="middle" x="3562" y="-117" font-family="Helvetica,sans-Serif" font-size="10.00">base/TextException.h</text>
</a>
</g>
</g>
<!-- Node57&#45;&gt;Node58 -->
<g id="edge41_Node000057_Node000058" class="edge">
<title>Node57&#45;&gt;Node58</title>
<g id="a_edge41_Node000057_Node000058"><a xlink:title=" ">
<path fill="none" stroke="#63b8ff" d="M3462.12,-164.98C3481.35,-156.42 3511.23,-143.11 3533.31,-133.28"/>
<polygon fill="#63b8ff" stroke="#63b8ff" points="3534.82,-136.44 3542.53,-129.17 3531.97,-130.04 3534.82,-136.44"/>
</a>
</g>
</g>
<!-- Node63 -->
<g id="Node000063" class="node">
<title>Node63</title>
<g id="a_Node000063"><a xlink:href="debug_2Stream_8h.html" target="_top" xlink:title=" ">
<polygon fill="#fff0f0" stroke="red" points="3484,-129 3390,-129 3390,-110 3484,-110 3484,-129"/>
<text text-anchor="middle" x="3437" y="-117" font-family="Helvetica,sans-Serif" font-size="10.00">debug/Stream.h</text>
</a>
</g>
</g>
<!-- Node57&#45;&gt;Node63 -->
<g id="edge42_Node000057_Node000063" class="edge">
<title>Node57&#45;&gt;Node63</title>
<g id="a_edge42_Node000057_Node000063"><a xlink:title=" ">
<path fill="none" stroke="#63b8ff" d="M3442.01,-164.75C3441.22,-157.8 3440.1,-147.85 3439.11,-139.13"/>
<polygon fill="#63b8ff" stroke="#63b8ff" points="3442.58,-138.63 3437.97,-129.09 3435.62,-139.42 3442.58,-138.63"/>
</a>
</g>
</g>
<!-- Node67 -->
<g id="Node000067" class="node">
<title>Node67</title>
<g id="a_Node000067"><a xlink:title=" ">
<polygon fill="#e0e0e0" stroke="#999999" points="3822.5,-129 3765.5,-129 3765.5,-110 3822.5,-110 3822.5,-129"/>
<text text-anchor="middle" x="3794" y="-117" font-family="Helvetica,sans-Serif" font-size="10.00">ostream</text>
</a>
</g>
</g>
<!-- Node57&#45;&gt;Node67 -->
<g id="edge44_Node000057_Node000067" class="edge">
<title>Node57&#45;&gt;Node67</title>
<g id="a_edge44_Node000057_Node000067"><a xlink:title=" ">
<path fill="none" stroke="#63b8ff" d="M3483.62,-166.34C3486.46,-165.87 3489.27,-165.42 3492,-165 3605.82,-147.37 3637.72,-149.79 3755.3,-128.98"/>
<polygon fill="#63b8ff" stroke="#63b8ff" points="3756.19,-132.37 3765.42,-127.17 3754.96,-125.48 3756.19,-132.37"/>
</a>
</g>
</g>
<!-- Node68&#45;&gt;Node50 -->
<g id="edge47_Node000068_Node000050" class="edge">
<title>Node68&#45;&gt;Node50</title>
<g id="a_edge47_Node000068_Node000050"><a xlink:title=" ">
<path fill="none" stroke="#63b8ff" d="M3333.94,-219.91C3328.09,-193.49 3313.58,-111.74 3343,-55 3349.75,-41.98 3362.22,-31.65 3373.88,-24.23"/>
<polygon fill="#63b8ff" stroke="#63b8ff" points="3375.69,-27.23 3382.52,-19.13 3372.13,-21.2 3375.69,-27.23"/>
</a>
</g>
</g>
<!-- Node69 -->
<g id="Node000069" class="node">
<title>Node69</title>
<g id="a_Node000069"><a xlink:title=" ">
<polygon fill="#e0e0e0" stroke="#999999" points="3308,-184 3216,-184 3216,-165 3308,-165 3308,-184"/>
<text text-anchor="middle" x="3262" y="-172" font-family="Helvetica,sans-Serif" font-size="10.00">mem/forward.h</text>
</a>
</g>
</g>
<!-- Node68&#45;&gt;Node69 -->
<g id="edge46_Node000068_Node000069" class="edge">
<title>Node68&#45;&gt;Node69</title>
<g id="a_edge46_Node000068_Node000069"><a xlink:title=" ">
<path fill="none" stroke="#63b8ff" d="M3324.11,-219.98C3312.85,-211.92 3295.71,-199.65 3282.29,-190.03"/>
<polygon fill="#63b8ff" stroke="#63b8ff" points="3284.27,-187.15 3274.11,-184.17 3280.2,-192.84 3284.27,-187.15"/>
</a>
</g>
</g>
<!-- Node71 -->
<g id="Node000071" class="node">
<title>Node71</title>
<g id="a_Node000071"><a xlink:href="Store_8h.html" target="_top" xlink:title=" ">
<polygon fill="#fff0f0" stroke="red" points="3838.5,-239 3787.5,-239 3787.5,-220 3838.5,-220 3838.5,-239"/>
<text text-anchor="middle" x="3813" y="-227" font-family="Helvetica,sans-Serif" font-size="10.00">Store.h</text>
</a>
</g>
</g>
<!-- Node70&#45;&gt;Node71 -->
<g id="edge52_Node000070_Node000071" class="edge">
<title>Node70&#45;&gt;Node71</title>
<g id="a_edge52_Node000070_Node000071"><a xlink:title=" ">
<path fill="none" stroke="#63b8ff" d="M3717.32,-274.98C3735.66,-266.46 3764.11,-253.23 3785.23,-243.41"/>
<polygon fill="#63b8ff" stroke="#63b8ff" points="3786.76,-246.56 3794.35,-239.17 3783.81,-240.21 3786.76,-246.56"/>
</a>
</g>
</g>
<!-- Node71&#45;&gt;Node45 -->
<g id="edge58_Node000071_Node000045" class="edge">
<title>Node71&#45;&gt;Node45</title>
<g id="a_edge58_Node000071_Node000045"><a xlink:title=" ">
<path fill="none" stroke="#63b8ff" d="M3787.5,-220.91C3757.66,-212.02 3707.96,-197.22 3673.44,-186.95"/>
<polygon fill="#63b8ff" stroke="#63b8ff" points="3674.28,-183.54 3663.7,-184.05 3672.28,-190.25 3674.28,-183.54"/>
</a>
</g>
</g>
<!-- Node71&#45;&gt;Node47 -->
<g id="edge57_Node000071_Node000047" class="edge">
<title>Node71&#45;&gt;Node47</title>
<g id="a_edge57_Node000071_Node000047"><a xlink:title=" ">
<path fill="none" stroke="#63b8ff" d="M3818.19,-219.76C3829.96,-198.66 3855.83,-144.17 3831,-110 3813.05,-85.3 3781.06,-74.04 3752.5,-69.01"/>
<polygon fill="#63b8ff" stroke="#63b8ff" points="3752.99,-65.55 3742.57,-67.48 3751.92,-72.47 3752.99,-65.55"/>
</a>
</g>
</g>
<!-- Node71&#45;&gt;Node67 -->
<g id="edge59_Node000071_Node000067" class="edge">
<title>Node71&#45;&gt;Node67</title>
<g id="a_edge59_Node000071_Node000067"><a xlink:title=" ">
<path fill="none" stroke="#63b8ff" d="M3811.45,-219.66C3808.37,-202.17 3801.44,-162.8 3797.3,-139.27"/>
<polygon fill="#63b8ff" stroke="#63b8ff" points="3800.7,-138.4 3795.52,-129.16 3793.81,-139.61 3800.7,-138.4"/>
</a>
</g>
</g>
<!-- Node72 -->
<g id="Node000072" class="node">
<title>Node72</title>
<g id="a_Node000072"><a xlink:href="DelayedAsyncCalls_8h.html" target="_top" xlink:title=" ">
<polygon fill="#fff0f0" stroke="red" points="4025,-184 3879,-184 3879,-165 4025,-165 4025,-184"/>
<text text-anchor="middle" x="3952" y="-172" font-family="Helvetica,sans-Serif" font-size="10.00">base/DelayedAsyncCalls.h</text>
</a>
</g>
</g>
<!-- Node71&#45;&gt;Node72 -->
<g id="edge53_Node000071_Node000072" class="edge">
<title>Node71&#45;&gt;Node72</title>
<g id="a_edge53_Node000071_Node000072"><a xlink:title=" ">
<path fill="none" stroke="#63b8ff" d="M3835.33,-219.98C3858.2,-211.27 3893.96,-197.63 3919.86,-187.75"/>
<polygon fill="#63b8ff" stroke="#63b8ff" points="3921.16,-191 3929.26,-184.17 3918.67,-184.46 3921.16,-191"/>
</a>
</g>
</g>
<!-- Node82 -->
<g id="Node000082" class="node">
<title>Node82</title>
<g id="a_Node000082"><a xlink:href="Packable_8h.html" target="_top" xlink:title=" ">
<polygon fill="white" stroke="#666666" points="4138.5,-184 4043.5,-184 4043.5,-165 4138.5,-165 4138.5,-184"/>
<text text-anchor="middle" x="4091" y="-172" font-family="Helvetica,sans-Serif" font-size="10.00">base/Packable.h</text>
</a>
</g>
</g>
<!-- Node71&#45;&gt;Node82 -->
<g id="edge54_Node000071_Node000082" class="edge">
<title>Node71&#45;&gt;Node82</title>
<g id="a_edge54_Node000071_Node000082"><a xlink:title=" ">
<path fill="none" stroke="#63b8ff" d="M3838.66,-223.61C3883.38,-215.08 3976.56,-197.32 4036.31,-185.93"/>
<polygon fill="#63b8ff" stroke="#63b8ff" points="4037.17,-189.33 4046.33,-184.02 4035.86,-182.45 4037.17,-189.33"/>
</a>
</g>
</g>
<!-- Node84 -->
<g id="Node000084" class="node">
<title>Node84</title>
<g id="a_Node000084"><a xlink:href="Range_8h.html" target="_top" xlink:title=" ">
<polygon fill="#fff0f0" stroke="red" points="3784.5,-184 3701.5,-184 3701.5,-165 3784.5,-165 3784.5,-184"/>
<text text-anchor="middle" x="3743" y="-172" font-family="Helvetica,sans-Serif" font-size="10.00">base/Range.h</text>
</a>
</g>
</g>
<!-- Node71&#45;&gt;Node84 -->
<g id="edge55_Node000071_Node000084" class="edge">
<title>Node71&#45;&gt;Node84</title>
<g id="a_edge55_Node000071_Node000084"><a xlink:title=" ">
<path fill="none" stroke="#63b8ff" d="M3801.75,-219.98C3791.2,-212 3775.2,-199.88 3762.56,-190.31"/>
<polygon fill="#63b8ff" stroke="#63b8ff" points="3764.54,-187.42 3754.45,-184.17 3760.31,-193 3764.54,-187.42"/>
</a>
</g>
</g>
<!-- Node84&#45;&gt;Node67 -->
<g id="edge56_Node000084_Node000067" class="edge">
<title>Node84&#45;&gt;Node67</title>
<g id="a_edge56_Node000084_Node000067"><a xlink:title=" ">
<path fill="none" stroke="#63b8ff" d="M3751.42,-164.75C3758.77,-157.11 3769.63,-145.82 3778.54,-136.56"/>
<polygon fill="#63b8ff" stroke="#63b8ff" points="3781.32,-138.72 3785.74,-129.09 3776.28,-133.87 3781.32,-138.72"/>
</a>
</g>
</g>
</g>
</svg>
