<?xml version="1.0" encoding="UTF-8" standalone="no"?>
<!DOCTYPE svg PUBLIC "-//W3C//DTD SVG 1.1//EN"
 "http://www.w3.org/Graphics/SVG/1.1/DTD/svg11.dtd">
<!-- Generated by graphviz version 2.43.0 (0)
 -->
<!-- Title: squid/src/acl/HttpHeaderData.h Pages: 1 -->
<svg width="415pt" height="104pt"
 viewBox="0.00 0.00 414.50 104.00" xmlns="http://www.w3.org/2000/svg" xmlns:xlink="http://www.w3.org/1999/xlink">
<g id="graph0" class="graph" transform="scale(1 1) rotate(0) translate(4 100)">
<title>squid/src/acl/HttpHeaderData.h</title>
<!-- Node1 -->
<g id="Node000001" class="node">
<title>Node1</title>
<g id="a_Node000001"><a xlink:title=" ">
<polygon fill="#999999" stroke="#666666" points="271.5,-96 134.5,-96 134.5,-66 271.5,-66 271.5,-96"/>
<text text-anchor="start" x="142.5" y="-84" font-family="Helvetica,sans-Serif" font-size="10.00">squid/src/acl/HttpHeader</text>
<text text-anchor="middle" x="203" y="-73" font-family="Helvetica,sans-Serif" font-size="10.00">Data.h</text>
</a>
</g>
</g>
<!-- Node2 -->
<g id="Node000002" class="node">
<title>Node2</title>
<g id="a_Node000002"><a xlink:href="AclRegs_8cc.html" target="_top" xlink:title=" ">
<polygon fill="white" stroke="#666666" points="116,-24.5 0,-24.5 0,-5.5 116,-5.5 116,-24.5"/>
<text text-anchor="middle" x="58" y="-12.5" font-family="Helvetica,sans-Serif" font-size="10.00">squid/src/AclRegs.cc</text>
</a>
</g>
</g>
<!-- Node1&#45;&gt;Node2 -->
<g id="edge1_Node000001_Node000002" class="edge">
<title>Node1&#45;&gt;Node2</title>
<g id="a_edge1_Node000001_Node000002"><a xlink:title=" ">
<path fill="none" stroke="#63b8ff" d="M161.72,-61.78C134,-49.54 98.74,-33.98 77.3,-24.52"/>
<polygon fill="#63b8ff" stroke="#63b8ff" points="160.62,-65.12 171.18,-65.95 163.44,-58.71 160.62,-65.12"/>
</a>
</g>
</g>
<!-- Node3 -->
<g id="Node000003" class="node">
<title>Node3</title>
<g id="a_Node000003"><a xlink:href="HttpHeaderData_8cc.html" target="_top" xlink:title=" ">
<polygon fill="white" stroke="#666666" points="271.5,-30 134.5,-30 134.5,0 271.5,0 271.5,-30"/>
<text text-anchor="start" x="142.5" y="-18" font-family="Helvetica,sans-Serif" font-size="10.00">squid/src/acl/HttpHeader</text>
<text text-anchor="middle" x="203" y="-7" font-family="Helvetica,sans-Serif" font-size="10.00">Data.cc</text>
</a>
</g>
</g>
<!-- Node1&#45;&gt;Node3 -->
<g id="edge2_Node000001_Node000003" class="edge">
<title>Node1&#45;&gt;Node3</title>
<g id="a_edge2_Node000001_Node000003"><a xlink:title=" ">
<path fill="none" stroke="#63b8ff" d="M203,-55.54C203,-46.96 203,-37.61 203,-30.16"/>
<polygon fill="#63b8ff" stroke="#63b8ff" points="199.5,-55.8 203,-65.8 206.5,-55.8 199.5,-55.8"/>
</a>
</g>
</g>
<!-- Node4 -->
<g id="Node000004" class="node">
<title>Node4</title>
<g id="a_Node000004"><a xlink:href="Note_8cc.html" target="_top" xlink:title=" ">
<polygon fill="white" stroke="#666666" points="406.5,-24.5 289.5,-24.5 289.5,-5.5 406.5,-5.5 406.5,-24.5"/>
<text text-anchor="middle" x="348" y="-12.5" font-family="Helvetica,sans-Serif" font-size="10.00">squid/src/acl/Note.cc</text>
</a>
</g>
</g>
<!-- Node1&#45;&gt;Node4 -->
<g id="edge3_Node000001_Node000004" class="edge">
<title>Node1&#45;&gt;Node4</title>
<g id="a_edge3_Node000001_Node000004"><a xlink:title=" ">
<path fill="none" stroke="#63b8ff" d="M244.28,-61.78C272,-49.54 307.26,-33.98 328.7,-24.52"/>
<polygon fill="#63b8ff" stroke="#63b8ff" points="242.56,-58.71 234.82,-65.95 245.38,-65.12 242.56,-58.71"/>
</a>
</g>
</g>
</g>
</svg>
