<?xml version="1.0" encoding="UTF-8" standalone="no"?>
<!DOCTYPE svg PUBLIC "-//W3C//DTD SVG 1.1//EN"
 "http://www.w3.org/Graphics/SVG/1.1/DTD/svg11.dtd">
<!-- Generated by graphviz version 2.43.0 (0)
 -->
<!-- Title: squid/src/HttpHeaderTools.cc Pages: 1 -->
<svg width="4438pt" height="247pt"
 viewBox="0.00 0.00 4438.00 247.00" xmlns="http://www.w3.org/2000/svg" xmlns:xlink="http://www.w3.org/1999/xlink">
<g id="graph0" class="graph" transform="scale(1 1) rotate(0) translate(4 243)">
<title>squid/src/HttpHeaderTools.cc</title>
<!-- Node1 -->
<g id="Node000001" class="node">
<title>Node1</title>
<g id="a_Node000001"><a xlink:title=" ">
<polygon fill="#999999" stroke="#666666" points="3758.5,-239 3600.5,-239 3600.5,-220 3758.5,-220 3758.5,-239"/>
<text text-anchor="middle" x="3679.5" y="-227" font-family="Helvetica,sans-Serif" font-size="10.00">squid/src/HttpHeaderTools.cc</text>
</a>
</g>
</g>
<!-- Node2 -->
<g id="Node000002" class="node">
<title>Node2</title>
<g id="a_Node000002"><a xlink:href="squid_8h.html" target="_top" xlink:title=" ">
<polygon fill="white" stroke="#666666" points="1627.5,-184 1575.5,-184 1575.5,-165 1627.5,-165 1627.5,-184"/>
<text text-anchor="middle" x="1601.5" y="-172" font-family="Helvetica,sans-Serif" font-size="10.00">squid.h</text>
</a>
</g>
</g>
<!-- Node1&#45;&gt;Node2 -->
<g id="edge1_Node000001_Node000002" class="edge">
<title>Node1&#45;&gt;Node2</title>
<g id="a_edge1_Node000001_Node000002"><a xlink:title=" ">
<path fill="none" stroke="#63b8ff" d="M3600.26,-226.48C3253.85,-217.64 1879.03,-182.58 1637.74,-176.42"/>
<polygon fill="#63b8ff" stroke="#63b8ff" points="1637.83,-172.93 1627.74,-176.17 1637.65,-179.92 1637.83,-172.93"/>
</a>
</g>
</g>
<!-- Node35 -->
<g id="Node000035" class="node">
<title>Node35</title>
<g id="a_Node000035"><a xlink:href="strtoll_8h.html" target="_top" xlink:title=" ">
<polygon fill="white" stroke="#666666" points="3174.5,-19 3080.5,-19 3080.5,0 3174.5,0 3174.5,-19"/>
<text text-anchor="middle" x="3127.5" y="-7" font-family="Helvetica,sans-Serif" font-size="10.00">compat/strtoll.h</text>
</a>
</g>
</g>
<!-- Node1&#45;&gt;Node35 -->
<g id="edge31_Node000001_Node000035" class="edge">
<title>Node1&#45;&gt;Node35</title>
<g id="a_edge31_Node000001_Node000035"><a xlink:title=" ">
<path fill="none" stroke="#63b8ff" d="M3600.26,-229.1C3519.75,-227.51 3392.46,-218.88 3288.5,-184 3242.97,-168.73 3228.43,-163.95 3195.5,-129 3170.15,-102.09 3176.31,-86.83 3157.5,-55 3151.99,-45.68 3145.3,-35.64 3139.63,-27.47"/>
<polygon fill="#63b8ff" stroke="#63b8ff" points="3142.41,-25.33 3133.79,-19.17 3136.68,-29.36 3142.41,-25.33"/>
</a>
</g>
</g>
<!-- Node45 -->
<g id="Node000045" class="node">
<title>Node45</title>
<g id="a_Node000045"><a xlink:href="HttpHdrContRange_8h.html" target="_top" xlink:title=" ">
<polygon fill="white" stroke="#666666" points="3612,-184 3495,-184 3495,-165 3612,-165 3612,-184"/>
<text text-anchor="middle" x="3553.5" y="-172" font-family="Helvetica,sans-Serif" font-size="10.00">HttpHdrContRange.h</text>
</a>
</g>
</g>
<!-- Node1&#45;&gt;Node45 -->
<g id="edge32_Node000001_Node000045" class="edge">
<title>Node1&#45;&gt;Node45</title>
<g id="a_edge32_Node000001_Node000045"><a xlink:title=" ">
<path fill="none" stroke="#63b8ff" d="M3659.26,-219.98C3638.8,-211.38 3606.97,-197.99 3583.57,-188.15"/>
<polygon fill="#63b8ff" stroke="#63b8ff" points="3584.69,-184.82 3574.11,-184.17 3581.97,-191.27 3584.69,-184.82"/>
</a>
</g>
</g>
<!-- Node65 -->
<g id="Node000065" class="node">
<title>Node65</title>
<g id="a_Node000065"><a xlink:href="HttpHeader_8h.html" target="_top" xlink:title=" ">
<polygon fill="white" stroke="#666666" points="3784,-184 3703,-184 3703,-165 3784,-165 3784,-184"/>
<text text-anchor="middle" x="3743.5" y="-172" font-family="Helvetica,sans-Serif" font-size="10.00">HttpHeader.h</text>
</a>
</g>
</g>
<!-- Node1&#45;&gt;Node65 -->
<g id="edge38_Node000001_Node000065" class="edge">
<title>Node1&#45;&gt;Node65</title>
<g id="a_edge38_Node000001_Node000065"><a xlink:title=" ">
<path fill="none" stroke="#63b8ff" d="M3689.78,-219.98C3699.34,-212.07 3713.78,-200.11 3725.28,-190.58"/>
<polygon fill="#63b8ff" stroke="#63b8ff" points="3727.56,-193.24 3733.03,-184.17 3723.1,-187.85 3727.56,-193.24"/>
</a>
</g>
</g>
<!-- Node97 -->
<g id="Node000097" class="node">
<title>Node97</title>
<g id="a_Node000097"><a xlink:href="HttpHeaderTools_8h.html" target="_top" xlink:title=" ">
<polygon fill="white" stroke="#666666" points="4227,-184 4120,-184 4120,-165 4227,-165 4227,-184"/>
<text text-anchor="middle" x="4173.5" y="-172" font-family="Helvetica,sans-Serif" font-size="10.00">HttpHeaderTools.h</text>
</a>
</g>
</g>
<!-- Node1&#45;&gt;Node97 -->
<g id="edge49_Node000001_Node000097" class="edge">
<title>Node1&#45;&gt;Node97</title>
<g id="a_edge49_Node000001_Node000097"><a xlink:title=" ">
<path fill="none" stroke="#63b8ff" d="M3758.6,-220.01C3856.1,-209.55 4019.88,-191.98 4109.74,-182.34"/>
<polygon fill="#63b8ff" stroke="#63b8ff" points="4110.22,-185.81 4119.79,-181.26 4109.48,-178.85 4110.22,-185.81"/>
</a>
</g>
</g>
<!-- Node98 -->
<g id="Node000098" class="node">
<title>Node98</title>
<g id="a_Node000098"><a xlink:href="MemBuf_8h.html" target="_top" xlink:title=" ">
<polygon fill="white" stroke="#666666" points="3363.5,-184 3297.5,-184 3297.5,-165 3363.5,-165 3363.5,-184"/>
<text text-anchor="middle" x="3330.5" y="-172" font-family="Helvetica,sans-Serif" font-size="10.00">MemBuf.h</text>
</a>
</g>
</g>
<!-- Node1&#45;&gt;Node98 -->
<g id="edge52_Node000001_Node000098" class="edge">
<title>Node1&#45;&gt;Node98</title>
<g id="a_edge52_Node000001_Node000098"><a xlink:title=" ">
<path fill="none" stroke="#63b8ff" d="M3623.43,-219.98C3553.89,-209.42 3436.83,-191.65 3373.8,-182.08"/>
<polygon fill="#63b8ff" stroke="#63b8ff" points="3374.21,-178.6 3363.8,-180.56 3373.16,-185.52 3374.21,-178.6"/>
</a>
</g>
</g>
<!-- Node101 -->
<g id="Node000101" class="node">
<title>Node101</title>
<g id="a_Node000101"><a xlink:href="StrList_8h.html" target="_top" xlink:title=" ">
<polygon fill="white" stroke="#666666" points="4338.5,-184 4282.5,-184 4282.5,-165 4338.5,-165 4338.5,-184"/>
<text text-anchor="middle" x="4310.5" y="-172" font-family="Helvetica,sans-Serif" font-size="10.00">StrList.h</text>
</a>
</g>
</g>
<!-- Node1&#45;&gt;Node101 -->
<g id="edge56_Node000001_Node000101" class="edge">
<title>Node1&#45;&gt;Node101</title>
<g id="a_edge56_Node000001_Node000101"><a xlink:title=" ">
<path fill="none" stroke="#63b8ff" d="M3758.76,-222.98C3866.68,-215.28 4065.86,-200.4 4235.5,-184 4247.51,-182.84 4260.57,-181.41 4272.39,-180.07"/>
<polygon fill="#63b8ff" stroke="#63b8ff" points="4272.86,-183.54 4282.39,-178.91 4272.05,-176.58 4272.86,-183.54"/>
</a>
</g>
</g>
<!-- Node102 -->
<g id="Node000102" class="node">
<title>Node102</title>
<g id="a_Node000102"><a xlink:title=" ">
<polygon fill="#e0e0e0" stroke="#999999" points="4404,-184 4357,-184 4357,-165 4404,-165 4404,-184"/>
<text text-anchor="middle" x="4380.5" y="-172" font-family="Helvetica,sans-Serif" font-size="10.00">cerrno</text>
</a>
</g>
</g>
<!-- Node1&#45;&gt;Node102 -->
<g id="edge59_Node000001_Node000102" class="edge">
<title>Node1&#45;&gt;Node102</title>
<g id="a_edge59_Node000001_Node000102"><a xlink:title=" ">
<path fill="none" stroke="#63b8ff" d="M3758.7,-227.96C3882.42,-226.08 4129.02,-218.13 4346.8,-183.76"/>
<polygon fill="#63b8ff" stroke="#63b8ff" points="4347.5,-187.2 4356.82,-182.16 4346.39,-180.28 4347.5,-187.2"/>
</a>
</g>
</g>
<!-- Node3 -->
<g id="Node000003" class="node">
<title>Node3</title>
<g id="a_Node000003"><a xlink:href="autoconf_8h.html" target="_top" xlink:title=" ">
<polygon fill="white" stroke="#666666" points="1502.5,-129 1434.5,-129 1434.5,-110 1502.5,-110 1502.5,-129"/>
<text text-anchor="middle" x="1468.5" y="-117" font-family="Helvetica,sans-Serif" font-size="10.00">autoconf.h</text>
</a>
</g>
</g>
<!-- Node2&#45;&gt;Node3 -->
<g id="edge2_Node000002_Node000003" class="edge">
<title>Node2&#45;&gt;Node3</title>
<g id="a_edge2_Node000002_Node000003"><a xlink:title=" ">
<path fill="none" stroke="#63b8ff" d="M1580.13,-164.98C1558.35,-156.3 1524.34,-142.75 1499.58,-132.88"/>
<polygon fill="#63b8ff" stroke="#63b8ff" points="1500.84,-129.62 1490.26,-129.17 1498.25,-136.12 1500.84,-129.62"/>
</a>
</g>
</g>
<!-- Node4 -->
<g id="Node000004" class="node">
<title>Node4</title>
<g id="a_Node000004"><a xlink:href="version_8h.html" target="_top" xlink:title=" ">
<polygon fill="white" stroke="#666666" points="1582.5,-129 1520.5,-129 1520.5,-110 1582.5,-110 1582.5,-129"/>
<text text-anchor="middle" x="1551.5" y="-117" font-family="Helvetica,sans-Serif" font-size="10.00">version.h</text>
</a>
</g>
</g>
<!-- Node2&#45;&gt;Node4 -->
<g id="edge3_Node000002_Node000004" class="edge">
<title>Node2&#45;&gt;Node4</title>
<g id="a_edge3_Node000002_Node000004"><a xlink:title=" ">
<path fill="none" stroke="#63b8ff" d="M1593.24,-164.75C1586.04,-157.11 1575.39,-145.82 1566.65,-136.56"/>
<polygon fill="#63b8ff" stroke="#63b8ff" points="1569.01,-133.96 1559.6,-129.09 1563.92,-138.76 1569.01,-133.96"/>
</a>
</g>
</g>
<!-- Node5 -->
<g id="Node000005" class="node">
<title>Node5</title>
<g id="a_Node000005"><a xlink:href="compat_8h.html" target="_top" xlink:title=" ">
<polygon fill="#fff0f0" stroke="red" points="1702.5,-129 1600.5,-129 1600.5,-110 1702.5,-110 1702.5,-129"/>
<text text-anchor="middle" x="1651.5" y="-117" font-family="Helvetica,sans-Serif" font-size="10.00">compat/compat.h</text>
</a>
</g>
</g>
<!-- Node2&#45;&gt;Node5 -->
<g id="edge4_Node000002_Node000005" class="edge">
<title>Node2&#45;&gt;Node5</title>
<g id="a_edge4_Node000002_Node000005"><a xlink:title=" ">
<path fill="none" stroke="#63b8ff" d="M1609.76,-164.75C1616.96,-157.11 1627.61,-145.82 1636.35,-136.56"/>
<polygon fill="#63b8ff" stroke="#63b8ff" points="1639.08,-138.76 1643.4,-129.09 1633.99,-133.96 1639.08,-138.76"/>
</a>
</g>
</g>
<!-- Node6 -->
<g id="Node000006" class="node">
<title>Node6</title>
<g id="a_Node000006"><a xlink:href="osdetect_8h.html" target="_top" xlink:title=" ">
<polygon fill="white" stroke="#666666" points="220,-74 113,-74 113,-55 220,-55 220,-74"/>
<text text-anchor="middle" x="166.5" y="-62" font-family="Helvetica,sans-Serif" font-size="10.00">compat/osdetect.h</text>
</a>
</g>
</g>
<!-- Node5&#45;&gt;Node6 -->
<g id="edge5_Node000005_Node000006" class="edge">
<title>Node5&#45;&gt;Node6</title>
<g id="a_edge5_Node000005_Node000006"><a xlink:title=" ">
<path fill="none" stroke="#63b8ff" d="M1600.48,-110.87C1597.45,-110.54 1594.44,-110.25 1591.5,-110 991.46,-59.73 834.85,-121.85 230.36,-73.95"/>
<polygon fill="#63b8ff" stroke="#63b8ff" points="230.32,-70.44 220.07,-73.13 229.76,-77.41 230.32,-70.44"/>
</a>
</g>
</g>
<!-- Node7 -->
<g id="Node000007" class="node">
<title>Node7</title>
<g id="a_Node000007"><a xlink:href="fdsetsize_8h.html" target="_top" xlink:title=" ">
<polygon fill="white" stroke="#666666" points="348.5,-74 238.5,-74 238.5,-55 348.5,-55 348.5,-74"/>
<text text-anchor="middle" x="293.5" y="-62" font-family="Helvetica,sans-Serif" font-size="10.00">compat/fdsetsize.h</text>
</a>
</g>
</g>
<!-- Node5&#45;&gt;Node7 -->
<g id="edge6_Node000005_Node000007" class="edge">
<title>Node5&#45;&gt;Node7</title>
<g id="a_edge6_Node000005_Node000007"><a xlink:title=" ">
<path fill="none" stroke="#63b8ff" d="M1600.48,-110.88C1597.45,-110.55 1594.44,-110.25 1591.5,-110 1048.14,-63.73 906.13,-117.51 358.75,-74"/>
<polygon fill="#63b8ff" stroke="#63b8ff" points="358.87,-70.5 348.62,-73.19 358.31,-77.48 358.87,-70.5"/>
</a>
</g>
</g>
<!-- Node8 -->
<g id="Node000008" class="node">
<title>Node8</title>
<g id="a_Node000008"><a xlink:href="types_8h.html" target="_top" xlink:title=" ">
<polygon fill="#fff0f0" stroke="red" points="458.5,-74 366.5,-74 366.5,-55 458.5,-55 458.5,-74"/>
<text text-anchor="middle" x="412.5" y="-62" font-family="Helvetica,sans-Serif" font-size="10.00">compat/types.h</text>
</a>
</g>
</g>
<!-- Node5&#45;&gt;Node8 -->
<g id="edge7_Node000005_Node000008" class="edge">
<title>Node5&#45;&gt;Node8</title>
<g id="a_edge7_Node000005_Node000008"><a xlink:title=" ">
<path fill="none" stroke="#63b8ff" d="M1600.48,-110.89C1597.45,-110.55 1594.43,-110.25 1591.5,-110 1096.83,-67.17 966.88,-119.55 468.63,-73.97"/>
<polygon fill="#63b8ff" stroke="#63b8ff" points="468.94,-70.48 458.66,-73.05 468.3,-77.45 468.94,-70.48"/>
</a>
</g>
</g>
<!-- Node10 -->
<g id="Node000010" class="node">
<title>Node10</title>
<g id="a_Node000010"><a xlink:href="aix_8h.html" target="_top" xlink:title=" ">
<polygon fill="white" stroke="#666666" points="572,-74 477,-74 477,-55 572,-55 572,-74"/>
<text text-anchor="middle" x="524.5" y="-62" font-family="Helvetica,sans-Serif" font-size="10.00">compat/os/aix.h</text>
</a>
</g>
</g>
<!-- Node5&#45;&gt;Node10 -->
<g id="edge8_Node000005_Node000010" class="edge">
<title>Node5&#45;&gt;Node10</title>
<g id="a_edge8_Node000005_Node000010"><a xlink:title=" ">
<path fill="none" stroke="#63b8ff" d="M1600.48,-110.9C1597.44,-110.56 1594.43,-110.26 1591.5,-110 1147.35,-70.73 1030.49,-114.54 582.02,-73.91"/>
<polygon fill="#63b8ff" stroke="#63b8ff" points="582.31,-70.42 572.04,-73 581.68,-77.39 582.31,-70.42"/>
</a>
</g>
</g>
<!-- Node11 -->
<g id="Node000011" class="node">
<title>Node11</title>
<g id="a_Node000011"><a xlink:href="android_8h.html" target="_top" xlink:title=" ">
<polygon fill="white" stroke="#666666" points="706.5,-74 590.5,-74 590.5,-55 706.5,-55 706.5,-74"/>
<text text-anchor="middle" x="648.5" y="-62" font-family="Helvetica,sans-Serif" font-size="10.00">compat/os/android.h</text>
</a>
</g>
</g>
<!-- Node5&#45;&gt;Node11 -->
<g id="edge9_Node000005_Node000011" class="edge">
<title>Node5&#45;&gt;Node11</title>
<g id="a_edge9_Node000005_Node000011"><a xlink:title=" ">
<path fill="none" stroke="#63b8ff" d="M1600.48,-110.92C1597.44,-110.58 1594.43,-110.27 1591.5,-110 1206.76,-74.93 1105.52,-106.01 716.69,-74.02"/>
<polygon fill="#63b8ff" stroke="#63b8ff" points="716.83,-70.52 706.57,-73.17 716.25,-77.49 716.83,-70.52"/>
</a>
</g>
</g>
<!-- Node12 -->
<g id="Node000012" class="node">
<title>Node12</title>
<g id="a_Node000012"><a xlink:href="dragonfly_8h.html" target="_top" xlink:title=" ">
<polygon fill="white" stroke="#666666" points="848.5,-74 724.5,-74 724.5,-55 848.5,-55 848.5,-74"/>
<text text-anchor="middle" x="786.5" y="-62" font-family="Helvetica,sans-Serif" font-size="10.00">compat/os/dragonfly.h</text>
</a>
</g>
</g>
<!-- Node5&#45;&gt;Node12 -->
<g id="edge10_Node000005_Node000012" class="edge">
<title>Node5&#45;&gt;Node12</title>
<g id="a_edge10_Node000005_Node000012"><a xlink:title=" ">
<path fill="none" stroke="#63b8ff" d="M1600.47,-110.95C1597.44,-110.6 1594.43,-110.28 1591.5,-110 1269.69,-79.38 1184.7,-100.98 859.01,-74.06"/>
<polygon fill="#63b8ff" stroke="#63b8ff" points="859.07,-70.56 848.81,-73.21 858.49,-77.53 859.07,-70.56"/>
</a>
</g>
</g>
<!-- Node13 -->
<g id="Node000013" class="node">
<title>Node13</title>
<g id="a_Node000013"><a xlink:href="freebsd_8h.html" target="_top" xlink:title=" ">
<polygon fill="white" stroke="#666666" points="982.5,-74 866.5,-74 866.5,-55 982.5,-55 982.5,-74"/>
<text text-anchor="middle" x="924.5" y="-62" font-family="Helvetica,sans-Serif" font-size="10.00">compat/os/freebsd.h</text>
</a>
</g>
</g>
<!-- Node5&#45;&gt;Node13 -->
<g id="edge11_Node000005_Node000013" class="edge">
<title>Node5&#45;&gt;Node13</title>
<g id="a_edge11_Node000005_Node000013"><a xlink:title=" ">
<path fill="none" stroke="#63b8ff" d="M1600.47,-110.98C1597.44,-110.63 1594.43,-110.3 1591.5,-110 1328.94,-83.57 1259.18,-98.45 992.55,-74.03"/>
<polygon fill="#63b8ff" stroke="#63b8ff" points="992.86,-70.54 982.58,-73.11 992.21,-77.51 992.86,-70.54"/>
</a>
</g>
</g>
<!-- Node14 -->
<g id="Node000014" class="node">
<title>Node14</title>
<g id="a_Node000014"><a xlink:href="hpux_8h.html" target="_top" xlink:title=" ">
<polygon fill="white" stroke="#666666" points="1104.5,-74 1000.5,-74 1000.5,-55 1104.5,-55 1104.5,-74"/>
<text text-anchor="middle" x="1052.5" y="-62" font-family="Helvetica,sans-Serif" font-size="10.00">compat/os/hpux.h</text>
</a>
</g>
</g>
<!-- Node5&#45;&gt;Node14 -->
<g id="edge12_Node000005_Node000014" class="edge">
<title>Node5&#45;&gt;Node14</title>
<g id="a_edge12_Node000005_Node000014"><a xlink:title=" ">
<path fill="none" stroke="#63b8ff" d="M1600.47,-111.04C1597.43,-110.67 1594.43,-110.32 1591.5,-110 1383,-87.4 1327.07,-96.42 1114.94,-74.08"/>
<polygon fill="#63b8ff" stroke="#63b8ff" points="1115.03,-70.58 1104.72,-73 1114.29,-77.54 1115.03,-70.58"/>
</a>
</g>
</g>
<!-- Node15 -->
<g id="Node000015" class="node">
<title>Node15</title>
<g id="a_Node000015"><a xlink:href="linux_8h.html" target="_top" xlink:title=" ">
<polygon fill="white" stroke="#666666" points="1226.5,-74 1122.5,-74 1122.5,-55 1226.5,-55 1226.5,-74"/>
<text text-anchor="middle" x="1174.5" y="-62" font-family="Helvetica,sans-Serif" font-size="10.00">compat/os/linux.h</text>
</a>
</g>
</g>
<!-- Node5&#45;&gt;Node15 -->
<g id="edge13_Node000005_Node000015" class="edge">
<title>Node5&#45;&gt;Node15</title>
<g id="a_edge13_Node000005_Node000015"><a xlink:title=" ">
<path fill="none" stroke="#63b8ff" d="M1600.46,-111.13C1597.43,-110.73 1594.42,-110.35 1591.5,-110 1436.87,-91.24 1395.09,-92.9 1236.82,-74.12"/>
<polygon fill="#63b8ff" stroke="#63b8ff" points="1237.07,-70.62 1226.73,-72.91 1236.24,-77.57 1237.07,-70.62"/>
</a>
</g>
</g>
<!-- Node16 -->
<g id="Node000016" class="node">
<title>Node16</title>
<g id="a_Node000016"><a xlink:href="macosx_8h.html" target="_top" xlink:title=" ">
<polygon fill="white" stroke="#666666" points="1362.5,-74 1244.5,-74 1244.5,-55 1362.5,-55 1362.5,-74"/>
<text text-anchor="middle" x="1303.5" y="-62" font-family="Helvetica,sans-Serif" font-size="10.00">compat/os/macosx.h</text>
</a>
</g>
</g>
<!-- Node5&#45;&gt;Node16 -->
<g id="edge14_Node000005_Node000016" class="edge">
<title>Node5&#45;&gt;Node16</title>
<g id="a_edge14_Node000005_Node000016"><a xlink:title=" ">
<path fill="none" stroke="#63b8ff" d="M1600.15,-110.68C1538.92,-101.35 1436.45,-85.75 1369.42,-75.54"/>
<polygon fill="#63b8ff" stroke="#63b8ff" points="1369.8,-72.06 1359.39,-74.01 1368.74,-78.98 1369.8,-72.06"/>
</a>
</g>
</g>
<!-- Node17 -->
<g id="Node000017" class="node">
<title>Node17</title>
<g id="a_Node000017"><a xlink:href="mingw_8h.html" target="_top" xlink:title=" ">
<polygon fill="white" stroke="#666666" points="1492.5,-74 1380.5,-74 1380.5,-55 1492.5,-55 1492.5,-74"/>
<text text-anchor="middle" x="1436.5" y="-62" font-family="Helvetica,sans-Serif" font-size="10.00">compat/os/mingw.h</text>
</a>
</g>
</g>
<!-- Node5&#45;&gt;Node17 -->
<g id="edge15_Node000005_Node000017" class="edge">
<title>Node5&#45;&gt;Node17</title>
<g id="a_edge15_Node000005_Node000017"><a xlink:title=" ">
<path fill="none" stroke="#63b8ff" d="M1616.96,-109.98C1580.08,-100.89 1521.51,-86.46 1481.16,-76.51"/>
<polygon fill="#63b8ff" stroke="#63b8ff" points="1481.86,-73.08 1471.31,-74.08 1480.19,-79.87 1481.86,-73.08"/>
</a>
</g>
</g>
<!-- Node18 -->
<g id="Node000018" class="node">
<title>Node18</title>
<g id="a_Node000018"><a xlink:href="mswindows_8h.html" target="_top" xlink:title=" ">
<polygon fill="white" stroke="#666666" points="1648,-74 1511,-74 1511,-55 1648,-55 1648,-74"/>
<text text-anchor="middle" x="1579.5" y="-62" font-family="Helvetica,sans-Serif" font-size="10.00">compat/os/mswindows.h</text>
</a>
</g>
</g>
<!-- Node5&#45;&gt;Node18 -->
<g id="edge16_Node000005_Node000018" class="edge">
<title>Node5&#45;&gt;Node18</title>
<g id="a_edge16_Node000005_Node000018"><a xlink:title=" ">
<path fill="none" stroke="#63b8ff" d="M1639.93,-109.98C1629.08,-102 1612.62,-89.88 1599.62,-80.31"/>
<polygon fill="#63b8ff" stroke="#63b8ff" points="1601.41,-77.28 1591.28,-74.17 1597.26,-82.92 1601.41,-77.28"/>
</a>
</g>
</g>
<!-- Node19 -->
<g id="Node000019" class="node">
<title>Node19</title>
<g id="a_Node000019"><a xlink:href="netbsd_8h.html" target="_top" xlink:title=" ">
<polygon fill="white" stroke="#666666" points="1779,-74 1666,-74 1666,-55 1779,-55 1779,-74"/>
<text text-anchor="middle" x="1722.5" y="-62" font-family="Helvetica,sans-Serif" font-size="10.00">compat/os/netbsd.h</text>
</a>
</g>
</g>
<!-- Node5&#45;&gt;Node19 -->
<g id="edge17_Node000005_Node000019" class="edge">
<title>Node5&#45;&gt;Node19</title>
<g id="a_edge17_Node000005_Node000019"><a xlink:title=" ">
<path fill="none" stroke="#63b8ff" d="M1662.91,-109.98C1673.61,-102 1689.84,-89.88 1702.66,-80.31"/>
<polygon fill="#63b8ff" stroke="#63b8ff" points="1704.97,-82.96 1710.89,-74.17 1700.78,-77.35 1704.97,-82.96"/>
</a>
</g>
</g>
<!-- Node20 -->
<g id="Node000020" class="node">
<title>Node20</title>
<g id="a_Node000020"><a xlink:href="openbsd_8h.html" target="_top" xlink:title=" ">
<polygon fill="white" stroke="#666666" points="1918,-74 1797,-74 1797,-55 1918,-55 1918,-74"/>
<text text-anchor="middle" x="1857.5" y="-62" font-family="Helvetica,sans-Serif" font-size="10.00">compat/os/openbsd.h</text>
</a>
</g>
</g>
<!-- Node5&#45;&gt;Node20 -->
<g id="edge18_Node000005_Node000020" class="edge">
<title>Node5&#45;&gt;Node20</title>
<g id="a_edge18_Node000005_Node000020"><a xlink:title=" ">
<path fill="none" stroke="#63b8ff" d="M1684.6,-109.98C1719.78,-100.93 1775.57,-86.58 1814.22,-76.64"/>
<polygon fill="#63b8ff" stroke="#63b8ff" points="1815.33,-79.96 1824.14,-74.08 1813.59,-73.18 1815.33,-79.96"/>
</a>
</g>
</g>
<!-- Node21 -->
<g id="Node000021" class="node">
<title>Node21</title>
<g id="a_Node000021"><a xlink:href="os2_8h.html" target="_top" xlink:title=" ">
<polygon fill="white" stroke="#666666" points="2033,-74 1936,-74 1936,-55 2033,-55 2033,-74"/>
<text text-anchor="middle" x="1984.5" y="-62" font-family="Helvetica,sans-Serif" font-size="10.00">compat/os/os2.h</text>
</a>
</g>
</g>
<!-- Node5&#45;&gt;Node21 -->
<g id="edge19_Node000005_Node000021" class="edge">
<title>Node5&#45;&gt;Node21</title>
<g id="a_edge19_Node000005_Node000021"><a xlink:title=" ">
<path fill="none" stroke="#63b8ff" d="M1702.8,-110.33C1762.94,-100.76 1862.41,-84.93 1925.64,-74.87"/>
<polygon fill="#63b8ff" stroke="#63b8ff" points="1926.53,-78.27 1935.85,-73.24 1925.42,-71.36 1926.53,-78.27"/>
</a>
</g>
</g>
<!-- Node22 -->
<g id="Node000022" class="node">
<title>Node22</title>
<g id="a_Node000022"><a xlink:href="qnx_8h.html" target="_top" xlink:title=" ">
<polygon fill="white" stroke="#666666" points="2149.5,-74 2051.5,-74 2051.5,-55 2149.5,-55 2149.5,-74"/>
<text text-anchor="middle" x="2100.5" y="-62" font-family="Helvetica,sans-Serif" font-size="10.00">compat/os/qnx.h</text>
</a>
</g>
</g>
<!-- Node5&#45;&gt;Node22 -->
<g id="edge20_Node000005_Node000022" class="edge">
<title>Node5&#45;&gt;Node22</title>
<g id="a_edge20_Node000005_Node000022"><a xlink:title=" ">
<path fill="none" stroke="#63b8ff" d="M1702.66,-113.15C1775.36,-105.44 1912.97,-90.44 2041.25,-73.99"/>
<polygon fill="#63b8ff" stroke="#63b8ff" points="2041.79,-77.45 2051.26,-72.7 2040.89,-70.51 2041.79,-77.45"/>
</a>
</g>
</g>
<!-- Node23 -->
<g id="Node000023" class="node">
<title>Node23</title>
<g id="a_Node000023"><a xlink:href="sgi_8h.html" target="_top" xlink:title=" ">
<polygon fill="white" stroke="#666666" points="2261.5,-74 2167.5,-74 2167.5,-55 2261.5,-55 2261.5,-74"/>
<text text-anchor="middle" x="2214.5" y="-62" font-family="Helvetica,sans-Serif" font-size="10.00">compat/os/sgi.h</text>
</a>
</g>
</g>
<!-- Node5&#45;&gt;Node23 -->
<g id="edge21_Node000005_Node000023" class="edge">
<title>Node5&#45;&gt;Node23</title>
<g id="a_edge21_Node000005_Node000023"><a xlink:title=" ">
<path fill="none" stroke="#63b8ff" d="M1702.7,-115.08C1792.57,-108.84 1984.75,-94.46 2157.44,-74.05"/>
<polygon fill="#63b8ff" stroke="#63b8ff" points="2157.96,-77.52 2167.48,-72.86 2157.13,-70.56 2157.96,-77.52"/>
</a>
</g>
</g>
<!-- Node24 -->
<g id="Node000024" class="node">
<title>Node24</title>
<g id="a_Node000024"><a xlink:href="solaris_8h.html" target="_top" xlink:title=" ">
<polygon fill="white" stroke="#666666" points="2391.5,-74 2279.5,-74 2279.5,-55 2391.5,-55 2391.5,-74"/>
<text text-anchor="middle" x="2335.5" y="-62" font-family="Helvetica,sans-Serif" font-size="10.00">compat/os/solaris.h</text>
</a>
</g>
</g>
<!-- Node5&#45;&gt;Node24 -->
<g id="edge22_Node000005_Node000024" class="edge">
<title>Node5&#45;&gt;Node24</title>
<g id="a_edge22_Node000005_Node000024"><a xlink:title=" ">
<path fill="none" stroke="#63b8ff" d="M1702.54,-115.84C1806.92,-110.18 2052.55,-95.74 2269.19,-74.08"/>
<polygon fill="#63b8ff" stroke="#63b8ff" points="2269.55,-77.56 2279.15,-73.07 2268.85,-70.59 2269.55,-77.56"/>
</a>
</g>
</g>
<!-- Node25 -->
<g id="Node000025" class="node">
<title>Node25</title>
<g id="a_Node000025"><a xlink:href="sunos_8h.html" target="_top" xlink:title=" ">
<polygon fill="white" stroke="#666666" points="2517.5,-74 2409.5,-74 2409.5,-55 2517.5,-55 2517.5,-74"/>
<text text-anchor="middle" x="2463.5" y="-62" font-family="Helvetica,sans-Serif" font-size="10.00">compat/os/sunos.h</text>
</a>
</g>
</g>
<!-- Node5&#45;&gt;Node25 -->
<g id="edge23_Node000005_Node000025" class="edge">
<title>Node5&#45;&gt;Node25</title>
<g id="a_edge23_Node000005_Node000025"><a xlink:title=" ">
<path fill="none" stroke="#63b8ff" d="M1702.91,-116.77C1822.9,-112.45 2130.97,-99.71 2398.92,-74.08"/>
<polygon fill="#63b8ff" stroke="#63b8ff" points="2399.62,-77.53 2409.23,-73.08 2398.94,-70.56 2399.62,-77.53"/>
</a>
</g>
</g>
<!-- Node26 -->
<g id="Node000026" class="node">
<title>Node26</title>
<g id="a_Node000026"><a xlink:href="assert_8h.html" target="_top" xlink:title=" ">
<polygon fill="white" stroke="#666666" points="2631,-74 2536,-74 2536,-55 2631,-55 2631,-74"/>
<text text-anchor="middle" x="2583.5" y="-62" font-family="Helvetica,sans-Serif" font-size="10.00">compat/assert.h</text>
</a>
</g>
</g>
<!-- Node5&#45;&gt;Node26 -->
<g id="edge24_Node000005_Node000026" class="edge">
<title>Node5&#45;&gt;Node26</title>
<g id="a_edge24_Node000005_Node000026"><a xlink:title=" ">
<path fill="none" stroke="#63b8ff" d="M1702.92,-117.63C1836.67,-114.99 2206.65,-105.31 2525.59,-73.97"/>
<polygon fill="#63b8ff" stroke="#63b8ff" points="2526.35,-77.41 2535.96,-72.94 2525.66,-70.45 2526.35,-77.41"/>
</a>
</g>
</g>
<!-- Node27 -->
<g id="Node000027" class="node">
<title>Node27</title>
<g id="a_Node000027"><a xlink:href="compat__shared_8h.html" target="_top" xlink:title=" ">
<polygon fill="#fff0f0" stroke="red" points="3148.5,-74 3008.5,-74 3008.5,-55 3148.5,-55 3148.5,-74"/>
<text text-anchor="middle" x="3078.5" y="-62" font-family="Helvetica,sans-Serif" font-size="10.00">compat/compat_shared.h</text>
</a>
</g>
</g>
<!-- Node5&#45;&gt;Node27 -->
<g id="edge25_Node000005_Node000027" class="edge">
<title>Node5&#45;&gt;Node27</title>
<g id="a_edge25_Node000005_Node000027"><a xlink:title=" ">
<path fill="none" stroke="#63b8ff" d="M1702.64,-118.15C1880.11,-116.66 2485.97,-109.19 2998.1,-73.96"/>
<polygon fill="#63b8ff" stroke="#63b8ff" points="2998.55,-77.43 3008.29,-73.25 2998.07,-70.45 2998.55,-77.43"/>
</a>
</g>
</g>
<!-- Node37 -->
<g id="Node000037" class="node">
<title>Node37</title>
<g id="a_Node000037"><a xlink:href="stdvarargs_8h.html" target="_top" xlink:title=" ">
<polygon fill="#fff0f0" stroke="red" points="2766,-74 2649,-74 2649,-55 2766,-55 2766,-74"/>
<text text-anchor="middle" x="2707.5" y="-62" font-family="Helvetica,sans-Serif" font-size="10.00">compat/stdvarargs.h</text>
</a>
</g>
</g>
<!-- Node5&#45;&gt;Node37 -->
<g id="edge27_Node000005_Node000037" class="edge">
<title>Node5&#45;&gt;Node37</title>
<g id="a_edge27_Node000005_Node000037"><a xlink:title=" ">
<path fill="none" stroke="#63b8ff" d="M1702.76,-117.63C1847.84,-114.84 2273.92,-104.56 2638.96,-73.96"/>
<polygon fill="#63b8ff" stroke="#63b8ff" points="2639.26,-77.45 2648.93,-73.12 2638.67,-70.48 2639.26,-77.45"/>
</a>
</g>
</g>
<!-- Node39 -->
<g id="Node000039" class="node">
<title>Node39</title>
<g id="a_Node000039"><a xlink:href="stdio_8h.html" target="_top" xlink:title=" ">
<polygon fill="#fff0f0" stroke="red" points="2873,-74 2784,-74 2784,-55 2873,-55 2873,-74"/>
<text text-anchor="middle" x="2828.5" y="-62" font-family="Helvetica,sans-Serif" font-size="10.00">compat/stdio.h</text>
</a>
</g>
</g>
<!-- Node5&#45;&gt;Node39 -->
<g id="edge28_Node000005_Node000039" class="edge">
<title>Node5&#45;&gt;Node39</title>
<g id="a_edge28_Node000005_Node000039"><a xlink:title=" ">
<path fill="none" stroke="#63b8ff" d="M1702.57,-118.59C1860.38,-118.42 2354.3,-114.53 2773.56,-73.95"/>
<polygon fill="#63b8ff" stroke="#63b8ff" points="2774.15,-77.41 2783.76,-72.95 2773.47,-70.44 2774.15,-77.41"/>
</a>
</g>
</g>
<!-- Node41 -->
<g id="Node000041" class="node">
<title>Node41</title>
<g id="a_Node000041"><a xlink:href="statvfs_8h.html" target="_top" xlink:title=" ">
<polygon fill="white" stroke="#666666" points="2990,-74 2891,-74 2891,-55 2990,-55 2990,-74"/>
<text text-anchor="middle" x="2940.5" y="-62" font-family="Helvetica,sans-Serif" font-size="10.00">compat/statvfs.h</text>
</a>
</g>
</g>
<!-- Node5&#45;&gt;Node41 -->
<g id="edge29_Node000005_Node000041" class="edge">
<title>Node5&#45;&gt;Node41</title>
<g id="a_edge29_Node000005_Node000041"><a xlink:title=" ">
<path fill="none" stroke="#63b8ff" d="M1702.59,-118.6C1870.02,-118.53 2417.43,-115.03 2880.73,-73.94"/>
<polygon fill="#63b8ff" stroke="#63b8ff" points="2881.32,-77.4 2890.97,-73.03 2880.7,-70.43 2881.32,-77.4"/>
</a>
</g>
</g>
<!-- Node42 -->
<g id="Node000042" class="node">
<title>Node42</title>
<g id="a_Node000042"><a xlink:href="debug_8h.html" target="_top" xlink:title=" ">
<polygon fill="white" stroke="#666666" points="95,-74 0,-74 0,-55 95,-55 95,-74"/>
<text text-anchor="middle" x="47.5" y="-62" font-family="Helvetica,sans-Serif" font-size="10.00">compat/debug.h</text>
</a>
</g>
</g>
<!-- Node5&#45;&gt;Node42 -->
<g id="edge30_Node000005_Node000042" class="edge">
<title>Node5&#45;&gt;Node42</title>
<g id="a_edge30_Node000005_Node000042"><a xlink:title=" ">
<path fill="none" stroke="#63b8ff" d="M1600.48,-110.86C1597.45,-110.53 1594.44,-110.24 1591.5,-110 935.6,-55.79 764.25,-130.97 105.34,-74.04"/>
<polygon fill="#63b8ff" stroke="#63b8ff" points="105.38,-70.53 95.11,-73.15 104.77,-77.5 105.38,-70.53"/>
</a>
</g>
</g>
<!-- Node27&#45;&gt;Node35 -->
<g id="edge26_Node000027_Node000035" class="edge">
<title>Node27&#45;&gt;Node35</title>
<g id="a_edge26_Node000027_Node000035"><a xlink:title=" ">
<path fill="none" stroke="#63b8ff" d="M3086.59,-54.75C3093.66,-47.11 3104.09,-35.82 3112.65,-26.56"/>
<polygon fill="#63b8ff" stroke="#63b8ff" points="3115.34,-28.81 3119.56,-19.09 3110.2,-24.06 3115.34,-28.81"/>
</a>
</g>
</g>
<!-- Node46 -->
<g id="Node000046" class="node">
<title>Node46</title>
<g id="a_Node000046"><a xlink:href="HttpHeaderRange_8h.html" target="_top" xlink:title=" ">
<polygon fill="#fff0f0" stroke="red" points="3547,-129 3434,-129 3434,-110 3547,-110 3547,-129"/>
<text text-anchor="middle" x="3490.5" y="-117" font-family="Helvetica,sans-Serif" font-size="10.00">HttpHeaderRange.h</text>
</a>
</g>
</g>
<!-- Node45&#45;&gt;Node46 -->
<g id="edge33_Node000045_Node000046" class="edge">
<title>Node45&#45;&gt;Node46</title>
<g id="a_edge33_Node000045_Node000046"><a xlink:title=" ">
<path fill="none" stroke="#63b8ff" d="M3543.38,-164.98C3534.06,-157.15 3520.03,-145.34 3508.76,-135.86"/>
<polygon fill="#63b8ff" stroke="#63b8ff" points="3510.71,-132.93 3500.81,-129.17 3506.21,-138.29 3510.71,-132.93"/>
</a>
</g>
</g>
<!-- Node50 -->
<g id="Node000050" class="node">
<title>Node50</title>
<g id="a_Node000050"><a xlink:href="mem_2forward_8h.html" target="_top" xlink:title=" ">
<polygon fill="#fff0f0" stroke="red" points="3398.5,-74 3306.5,-74 3306.5,-55 3398.5,-55 3398.5,-74"/>
<text text-anchor="middle" x="3352.5" y="-62" font-family="Helvetica,sans-Serif" font-size="10.00">mem/forward.h</text>
</a>
</g>
</g>
<!-- Node46&#45;&gt;Node50 -->
<g id="edge34_Node000046_Node000050" class="edge">
<title>Node46&#45;&gt;Node50</title>
<g id="a_edge34_Node000046_Node000050"><a xlink:title=" ">
<path fill="none" stroke="#63b8ff" d="M3468.33,-109.98C3445.73,-101.3 3410.44,-87.75 3384.75,-77.88"/>
<polygon fill="#63b8ff" stroke="#63b8ff" points="3385.67,-74.49 3375.08,-74.17 3383.16,-81.02 3385.67,-74.49"/>
</a>
</g>
</g>
<!-- Node52 -->
<g id="Node000052" class="node">
<title>Node52</title>
<g id="a_Node000052"><a xlink:href="SquidString_8h.html" target="_top" xlink:title=" ">
<polygon fill="#fff0f0" stroke="red" points="3558,-74 3477,-74 3477,-55 3558,-55 3558,-74"/>
<text text-anchor="middle" x="3517.5" y="-62" font-family="Helvetica,sans-Serif" font-size="10.00">SquidString.h</text>
</a>
</g>
</g>
<!-- Node46&#45;&gt;Node52 -->
<g id="edge35_Node000046_Node000052" class="edge">
<title>Node46&#45;&gt;Node52</title>
<g id="a_edge35_Node000046_Node000052"><a xlink:title=" ">
<path fill="none" stroke="#63b8ff" d="M3494.96,-109.75C3498.62,-102.57 3503.91,-92.18 3508.45,-83.27"/>
<polygon fill="#63b8ff" stroke="#63b8ff" points="3511.7,-84.59 3513.12,-74.09 3505.47,-81.41 3511.7,-84.59"/>
</a>
</g>
</g>
<!-- Node64 -->
<g id="Node000064" class="node">
<title>Node64</title>
<g id="a_Node000064"><a xlink:title=" ">
<polygon fill="#e0e0e0" stroke="#999999" points="3623,-74 3576,-74 3576,-55 3623,-55 3623,-74"/>
<text text-anchor="middle" x="3599.5" y="-62" font-family="Helvetica,sans-Serif" font-size="10.00">vector</text>
</a>
</g>
</g>
<!-- Node46&#45;&gt;Node64 -->
<g id="edge37_Node000046_Node000064" class="edge">
<title>Node46&#45;&gt;Node64</title>
<g id="a_edge37_Node000046_Node000064"><a xlink:title=" ">
<path fill="none" stroke="#63b8ff" d="M3508.01,-109.98C3525.47,-101.5 3552.51,-88.35 3572.67,-78.54"/>
<polygon fill="#63b8ff" stroke="#63b8ff" points="3574.21,-81.69 3581.67,-74.17 3571.14,-75.4 3574.21,-81.69"/>
</a>
</g>
</g>
<!-- Node61 -->
<g id="Node000061" class="node">
<title>Node61</title>
<g id="a_Node000061"><a xlink:href="sbuf_2forward_8h.html" target="_top" xlink:title=" ">
<polygon fill="#fff0f0" stroke="red" points="4024,-19 3937,-19 3937,0 4024,0 4024,-19"/>
<text text-anchor="middle" x="3980.5" y="-7" font-family="Helvetica,sans-Serif" font-size="10.00">sbuf/forward.h</text>
</a>
</g>
</g>
<!-- Node52&#45;&gt;Node61 -->
<g id="edge36_Node000052_Node000061" class="edge">
<title>Node52&#45;&gt;Node61</title>
<g id="a_edge36_Node000052_Node000061"><a xlink:title=" ">
<path fill="none" stroke="#63b8ff" d="M3558.11,-56.25C3560.95,-55.8 3563.76,-55.38 3566.5,-55 3695.3,-36.93 3847.55,-22.28 3926.67,-15.17"/>
<polygon fill="#63b8ff" stroke="#63b8ff" points="3927.23,-18.63 3936.87,-14.25 3926.6,-11.66 3927.23,-18.63"/>
</a>
</g>
</g>
<!-- Node65&#45;&gt;Node52 -->
<g id="edge47_Node000065_Node000052" class="edge">
<title>Node65&#45;&gt;Node52</title>
<g id="a_edge47_Node000065_Node000052"><a xlink:title=" ">
<path fill="none" stroke="#63b8ff" d="M3713.71,-164.92C3687.91,-157.02 3649.9,-144.23 3618.5,-129 3588.93,-114.65 3557.21,-93.69 3537.36,-79.83"/>
<polygon fill="#63b8ff" stroke="#63b8ff" points="3539.32,-76.93 3529.14,-74.01 3535.28,-82.64 3539.32,-76.93"/>
</a>
</g>
</g>
<!-- Node65&#45;&gt;Node61 -->
<g id="edge46_Node000065_Node000061" class="edge">
<title>Node65&#45;&gt;Node61</title>
<g id="a_edge46_Node000065_Node000061"><a xlink:title=" ">
<path fill="none" stroke="#63b8ff" d="M3719.1,-164.82C3691.83,-153.74 3653.58,-133.21 3670.5,-110 3729.39,-29.25 3854.8,-12.58 3926.76,-9.99"/>
<polygon fill="#63b8ff" stroke="#63b8ff" points="3927.08,-13.49 3936.97,-9.71 3926.88,-6.49 3927.08,-13.49"/>
</a>
</g>
</g>
<!-- Node65&#45;&gt;Node64 -->
<g id="edge48_Node000065_Node000064" class="edge">
<title>Node65&#45;&gt;Node64</title>
<g id="a_edge48_Node000065_Node000064"><a xlink:title=" ">
<path fill="none" stroke="#63b8ff" d="M3708.48,-164.91C3686.22,-158.06 3657.85,-146.65 3637.5,-129 3623.27,-116.66 3612.87,-97.62 3606.59,-83.61"/>
<polygon fill="#63b8ff" stroke="#63b8ff" points="3609.68,-81.94 3602.59,-74.07 3603.23,-84.64 3609.68,-81.94"/>
</a>
</g>
</g>
<!-- Node66 -->
<g id="Node000066" class="node">
<title>Node66</title>
<g id="a_Node000066"><a xlink:href="anyp_2ProtocolVersion_8h.html" target="_top" xlink:title=" ">
<polygon fill="#fff0f0" stroke="red" points="3807.5,-129 3679.5,-129 3679.5,-110 3807.5,-110 3807.5,-129"/>
<text text-anchor="middle" x="3743.5" y="-117" font-family="Helvetica,sans-Serif" font-size="10.00">anyp/ProtocolVersion.h</text>
</a>
</g>
</g>
<!-- Node65&#45;&gt;Node66 -->
<g id="edge39_Node000065_Node000066" class="edge">
<title>Node65&#45;&gt;Node66</title>
<g id="a_edge39_Node000065_Node000066"><a xlink:title=" ">
<path fill="none" stroke="#63b8ff" d="M3743.5,-164.75C3743.5,-157.8 3743.5,-147.85 3743.5,-139.13"/>
<polygon fill="#63b8ff" stroke="#63b8ff" points="3747,-139.09 3743.5,-129.09 3740,-139.09 3747,-139.09"/>
</a>
</g>
</g>
<!-- Node68 -->
<g id="Node000068" class="node">
<title>Node68</title>
<g id="a_Node000068"><a xlink:href="LookupTable_8h.html" target="_top" xlink:title=" ">
<polygon fill="#fff0f0" stroke="red" points="4256.5,-74 4144.5,-74 4144.5,-55 4256.5,-55 4256.5,-74"/>
<text text-anchor="middle" x="4200.5" y="-62" font-family="Helvetica,sans-Serif" font-size="10.00">base/LookupTable.h</text>
</a>
</g>
</g>
<!-- Node65&#45;&gt;Node68 -->
<g id="edge40_Node000065_Node000068" class="edge">
<title>Node65&#45;&gt;Node68</title>
<g id="a_edge40_Node000065_Node000068"><a xlink:title=" ">
<path fill="none" stroke="#63b8ff" d="M3784.26,-173.03C3899.45,-171.26 4221.07,-163.29 4252.5,-129 4267.51,-112.62 4244.94,-92.64 4225.01,-79.52"/>
<polygon fill="#63b8ff" stroke="#63b8ff" points="4226.8,-76.5 4216.46,-74.17 4223.09,-82.44 4226.8,-76.5"/>
</a>
</g>
</g>
<!-- Node94 -->
<g id="Node000094" class="node">
<title>Node94</title>
<g id="a_Node000094"><a xlink:href="RegisteredHeaders_8h.html" target="_top" xlink:title=" ">
<polygon fill="#fff0f0" stroke="red" points="4244,-129 4103,-129 4103,-110 4244,-110 4244,-129"/>
<text text-anchor="middle" x="4173.5" y="-117" font-family="Helvetica,sans-Serif" font-size="10.00">http/RegisteredHeaders.h</text>
</a>
</g>
</g>
<!-- Node65&#45;&gt;Node94 -->
<g id="edge41_Node000065_Node000094" class="edge">
<title>Node65&#45;&gt;Node94</title>
<g id="a_edge41_Node000065_Node000094"><a xlink:title=" ">
<path fill="none" stroke="#63b8ff" d="M3784.34,-168.47C3855.37,-159.71 4002.8,-141.54 4094.41,-130.25"/>
<polygon fill="#63b8ff" stroke="#63b8ff" points="4094.98,-133.7 4104.47,-129.01 4094.12,-126.76 4094.98,-133.7"/>
</a>
</g>
</g>
<!-- Node95 -->
<g id="Node000095" class="node">
<title>Node95</title>
<g id="a_Node000095"><a xlink:href="HttpHeaderMask_8h.html" target="_top" xlink:title=" ">
<polygon fill="white" stroke="#666666" points="3933.5,-129 3825.5,-129 3825.5,-110 3933.5,-110 3933.5,-129"/>
<text text-anchor="middle" x="3879.5" y="-117" font-family="Helvetica,sans-Serif" font-size="10.00">HttpHeaderMask.h</text>
</a>
</g>
</g>
<!-- Node65&#45;&gt;Node95 -->
<g id="edge44_Node000065_Node000095" class="edge">
<title>Node65&#45;&gt;Node95</title>
<g id="a_edge44_Node000065_Node000095"><a xlink:title=" ">
<path fill="none" stroke="#63b8ff" d="M3765.35,-164.98C3787.62,-156.3 3822.4,-142.75 3847.72,-132.88"/>
<polygon fill="#63b8ff" stroke="#63b8ff" points="3849.21,-136.06 3857.25,-129.17 3846.66,-129.54 3849.21,-136.06"/>
</a>
</g>
</g>
<!-- Node96 -->
<g id="Node000096" class="node">
<title>Node96</title>
<g id="a_Node000096"><a xlink:href="PoolingAllocator_8h.html" target="_top" xlink:title=" ">
<polygon fill="#fff0f0" stroke="red" points="4085,-129 3952,-129 3952,-110 4085,-110 4085,-129"/>
<text text-anchor="middle" x="4018.5" y="-117" font-family="Helvetica,sans-Serif" font-size="10.00">mem/PoolingAllocator.h</text>
</a>
</g>
</g>
<!-- Node65&#45;&gt;Node96 -->
<g id="edge45_Node000065_Node000096" class="edge">
<title>Node65&#45;&gt;Node96</title>
<g id="a_edge45_Node000065_Node000096"><a xlink:title=" ">
<path fill="none" stroke="#63b8ff" d="M3784.08,-165.68C3831.8,-156.48 3911.21,-141.18 3964.21,-130.96"/>
<polygon fill="#63b8ff" stroke="#63b8ff" points="3964.95,-134.39 3974.11,-129.06 3963.62,-127.51 3964.95,-134.39"/>
</a>
</g>
</g>
<!-- Node94&#45;&gt;Node64 -->
<g id="edge43_Node000094_Node000064" class="edge">
<title>Node94&#45;&gt;Node64</title>
<g id="a_edge43_Node000094_Node000064"><a xlink:title=" ">
<path fill="none" stroke="#63b8ff" d="M4102.84,-110.93C4099.68,-110.61 4096.56,-110.3 4093.5,-110 3920.44,-93.01 3713.03,-75.14 3633.14,-68.34"/>
<polygon fill="#63b8ff" stroke="#63b8ff" points="3633.42,-64.85 3623.16,-67.5 3632.83,-71.83 3633.42,-64.85"/>
</a>
</g>
</g>
<!-- Node94&#45;&gt;Node68 -->
<g id="edge42_Node000094_Node000068" class="edge">
<title>Node94&#45;&gt;Node68</title>
<g id="a_edge42_Node000094_Node000068"><a xlink:title=" ">
<path fill="none" stroke="#63b8ff" d="M4177.96,-109.75C4181.62,-102.57 4186.91,-92.18 4191.45,-83.27"/>
<polygon fill="#63b8ff" stroke="#63b8ff" points="4194.7,-84.59 4196.12,-74.09 4188.47,-81.41 4194.7,-84.59"/>
</a>
</g>
</g>
<!-- Node97&#45;&gt;Node61 -->
<g id="edge51_Node000097_Node000061" class="edge">
<title>Node97&#45;&gt;Node61</title>
<g id="a_edge51_Node000097_Node000061"><a xlink:title=" ">
<path fill="none" stroke="#63b8ff" d="M4215.95,-164.9C4235.8,-158.52 4257.63,-147.58 4269.5,-129 4278.51,-114.89 4285.71,-76.95 4265.5,-55 4235.17,-22.06 4108.13,-13.43 4034.3,-11.21"/>
<polygon fill="#63b8ff" stroke="#63b8ff" points="4034.34,-7.71 4024.25,-10.94 4034.15,-14.71 4034.34,-7.71"/>
</a>
</g>
</g>
<!-- Node97&#45;&gt;Node94 -->
<g id="edge50_Node000097_Node000094" class="edge">
<title>Node97&#45;&gt;Node94</title>
<g id="a_edge50_Node000097_Node000094"><a xlink:title=" ">
<path fill="none" stroke="#63b8ff" d="M4173.5,-164.75C4173.5,-157.8 4173.5,-147.85 4173.5,-139.13"/>
<polygon fill="#63b8ff" stroke="#63b8ff" points="4177,-139.09 4173.5,-129.09 4170,-139.09 4177,-139.09"/>
</a>
</g>
</g>
<!-- Node98&#45;&gt;Node50 -->
<g id="edge55_Node000098_Node000050" class="edge">
<title>Node98&#45;&gt;Node50</title>
<g id="a_edge55_Node000098_Node000050"><a xlink:title=" ">
<path fill="none" stroke="#63b8ff" d="M3324.21,-164.72C3316.15,-152.33 3304.05,-129.08 3311.5,-110 3315.9,-98.73 3324.64,-88.59 3332.93,-80.85"/>
<polygon fill="#63b8ff" stroke="#63b8ff" points="3335.32,-83.4 3340.57,-74.2 3330.73,-78.12 3335.32,-83.4"/>
</a>
</g>
</g>
<!-- Node99 -->
<g id="Node000099" class="node">
<title>Node99</title>
<g id="a_Node000099"><a xlink:href="Packable_8h.html" target="_top" xlink:title=" ">
<polygon fill="white" stroke="#666666" points="3416,-129 3321,-129 3321,-110 3416,-110 3416,-129"/>
<text text-anchor="middle" x="3368.5" y="-117" font-family="Helvetica,sans-Serif" font-size="10.00">base/Packable.h</text>
</a>
</g>
</g>
<!-- Node98&#45;&gt;Node99 -->
<g id="edge53_Node000098_Node000099" class="edge">
<title>Node98&#45;&gt;Node99</title>
<g id="a_edge53_Node000098_Node000099"><a xlink:title=" ">
<path fill="none" stroke="#63b8ff" d="M3336.77,-164.75C3342.09,-157.34 3349.86,-146.5 3356.38,-137.41"/>
<polygon fill="#63b8ff" stroke="#63b8ff" points="3359.36,-139.26 3362.34,-129.09 3353.67,-135.18 3359.36,-139.26"/>
</a>
</g>
</g>
<!-- Node100 -->
<g id="Node000100" class="node">
<title>Node100</title>
<g id="a_Node000100"><a xlink:href="cbdata_8h.html" target="_top" xlink:title=" ">
<polygon fill="white" stroke="#666666" points="3264,-129 3205,-129 3205,-110 3264,-110 3264,-129"/>
<text text-anchor="middle" x="3234.5" y="-117" font-family="Helvetica,sans-Serif" font-size="10.00">cbdata.h</text>
</a>
</g>
</g>
<!-- Node98&#45;&gt;Node100 -->
<g id="edge54_Node000098_Node000100" class="edge">
<title>Node98&#45;&gt;Node100</title>
<g id="a_edge54_Node000098_Node000100"><a xlink:title=" ">
<path fill="none" stroke="#63b8ff" d="M3315.08,-164.98C3300.05,-156.69 3276.96,-143.94 3259.34,-134.22"/>
<polygon fill="#63b8ff" stroke="#63b8ff" points="3260.65,-130.94 3250.2,-129.17 3257.27,-137.07 3260.65,-130.94"/>
</a>
</g>
</g>
<!-- Node101&#45;&gt;Node61 -->
<g id="edge57_Node000101_Node000061" class="edge">
<title>Node101&#45;&gt;Node61</title>
<g id="a_edge57_Node000101_Node000061"><a xlink:title=" ">
<path fill="none" stroke="#63b8ff" d="M4311.66,-164.78C4314.05,-142.74 4316.92,-84.5 4285.5,-55 4250.12,-21.79 4111.8,-13.3 4034.15,-11.17"/>
<polygon fill="#63b8ff" stroke="#63b8ff" points="4034.15,-7.67 4024.07,-10.92 4033.98,-14.67 4034.15,-7.67"/>
</a>
</g>
</g>
<!-- Node90 -->
<g id="Node000090" class="node">
<title>Node90</title>
<g id="a_Node000090"><a xlink:title=" ">
<polygon fill="#e0e0e0" stroke="#999999" points="4430,-129 4377,-129 4377,-110 4430,-110 4430,-129"/>
<text text-anchor="middle" x="4403.5" y="-117" font-family="Helvetica,sans-Serif" font-size="10.00">iterator</text>
</a>
</g>
</g>
<!-- Node101&#45;&gt;Node90 -->
<g id="edge58_Node000101_Node000090" class="edge">
<title>Node101&#45;&gt;Node90</title>
<g id="a_edge58_Node000101_Node000090"><a xlink:title=" ">
<path fill="none" stroke="#63b8ff" d="M4325.44,-164.98C4340,-156.69 4362.37,-143.94 4379.43,-134.22"/>
<polygon fill="#63b8ff" stroke="#63b8ff" points="4381.33,-137.16 4388.29,-129.17 4377.86,-131.08 4381.33,-137.16"/>
</a>
</g>
</g>
</g>
</svg>
