<?xml version="1.0" encoding="UTF-8" standalone="no"?>
<!DOCTYPE svg PUBLIC "-//W3C//DTD SVG 1.1//EN"
 "http://www.w3.org/Graphics/SVG/1.1/DTD/svg11.dtd">
<!-- Generated by graphviz version 2.43.0 (0)
 -->
<!-- Title: squid/src/icmp/Icmp.cc Pages: 1 -->
<!--zoomable 247 -->

<svg id="main" version="1.1" xmlns="http://www.w3.org/2000/svg" xmlns:xlink="http://www.w3.org/1999/xlink" xml:space="preserve" onload="init(evt)">
<style type="text/css"><![CDATA[
.node, .edge {opacity: 0.7;}
.node.selected, .edge.selected {opacity: 1;}
.edge:hover path { stroke: red; }
.edge:hover polygon { stroke: red; fill: red; }
]]></style>

<defs>
  <circle id="rim" cx="0" cy="0" r="7"/>
  <circle id="rim2" cx="0" cy="0" r="3.5"/>
  <g id="zoomPlus">
    <use xlink:href="#rim" fill="#404040"><set attributeName="fill" to="#808080" begin="zoomplus.mouseover" end="zoomplus.mouseout"/></use>
    <path d="M-4,0h8M0,-4v8" fill="none" stroke="white" stroke-width="1.5" pointer-events="none"/>
  </g>
  <g id="zoomMin">
    <use xlink:href="#rim" fill="#404040"><set attributeName="fill" to="#808080" begin="zoomminus.mouseover" end="zoomminus.mouseout"/></use>
    <path d="M-4,0h8" fill="none" stroke="white" stroke-width="1.5" pointer-events="none"/>
  </g>
  <g id="arrowUp" transform="translate(30 24)">
    <use xlink:href="#rim"/>
    <path pointer-events="none" fill="none" stroke="white" stroke-width="1.5" d="M0,-3.0v7 M-2.5,-0.5L0,-3.0L2.5,-0.5"/>
  </g>
  <g id="arrowRight" transform="rotate(90) translate(36 -43)">
    <use xlink:href="#rim"/>
    <path pointer-events="none" fill="none" stroke="white" stroke-width="1.5" d="M0,-3.0v7 M-2.5,-0.5L0,-3.0L2.5,-0.5"/>
  </g>
  <g id="arrowDown" transform="rotate(180) translate(-30 -48)">
    <use xlink:href="#rim"/>
    <path pointer-events="none" fill="none" stroke="white" stroke-width="1.5" d="M0,-3.0v7 M-2.5,-0.5L0,-3.0L2.5,-0.5"/>
  </g>
  <g id="arrowLeft" transform="rotate(270) translate(-36 17)">
    <use xlink:href="#rim"/>
    <path pointer-events="none" fill="none" stroke="white" stroke-width="1.5" d="M0,-3.0v7 M-2.5,-0.5L0,-3.0L2.5,-0.5"/>
  </g>
  <g id="resetDef">
    <use xlink:href="#rim2" fill="#404040"><set attributeName="fill" to="#808080" begin="reset.mouseover" end="reset.mouseout"/></use>
  </g>
</defs>
<script type="application/ecmascript">
var viewWidth = 3890;
var viewHeight = 247;
var sectionId = 'dynsection-0';
</script>
<script type="application/ecmascript" xlink:href="svg.min.js"/>
<svg id="graph" class="graph">
<g id="viewport">
<title>squid/src/icmp/Icmp.cc</title>
<!-- Node1 -->
<g id="Node000001" class="node">
<title>Node1</title>
<g id="a_Node000001"><a xlink:title=" ">
<polygon fill="#999999" stroke="#666666" points="3345,-239 3217,-239 3217,-220 3345,-220 3345,-239"/>
<text text-anchor="middle" x="3281" y="-227" font-family="Helvetica,sans-Serif" font-size="10.00">squid/src/icmp/Icmp.cc</text>
</a>
</g>
</g>
<!-- Node2 -->
<g id="Node000002" class="node">
<title>Node2</title>
<g id="a_Node000002"><a xlink:href="squid_8h.html" target="_top" xlink:title=" ">
<polygon fill="white" stroke="#666666" points="2528,-184 2476,-184 2476,-165 2528,-165 2528,-184"/>
<text text-anchor="middle" x="2502" y="-172" font-family="Helvetica,sans-Serif" font-size="10.00">squid.h</text>
</a>
</g>
</g>
<!-- Node1&#45;&gt;Node2 -->
<g id="edge1_Node000001_Node000002" class="edge">
<title>Node1&#45;&gt;Node2</title>
<g id="a_edge1_Node000001_Node000002"><a xlink:title=" ">
<path fill="none" stroke="#63b8ff" d="M3216.92,-224.14C3060.08,-213.47 2660.79,-186.3 2538.29,-177.97"/>
<polygon fill="#63b8ff" stroke="#63b8ff" points="2538.51,-174.48 2528.3,-177.29 2538.04,-181.46 2538.51,-174.48"/>
</a>
</g>
</g>
<!-- Node44 -->
<g id="Node000044" class="node">
<title>Node44</title>
<g id="a_Node000044"><a xlink:href="unistd_8h.html" target="_top" xlink:title=" ">
<polygon fill="white" stroke="#666666" points="3237.5,-184 3142.5,-184 3142.5,-165 3237.5,-165 3237.5,-184"/>
<text text-anchor="middle" x="3190" y="-172" font-family="Helvetica,sans-Serif" font-size="10.00">compat/unistd.h</text>
</a>
</g>
</g>
<!-- Node1&#45;&gt;Node44 -->
<g id="edge35_Node000001_Node000044" class="edge">
<title>Node1&#45;&gt;Node44</title>
<g id="a_edge35_Node000001_Node000044"><a xlink:title=" ">
<path fill="none" stroke="#63b8ff" d="M3266.38,-219.98C3252.14,-211.69 3230.25,-198.94 3213.55,-189.22"/>
<polygon fill="#63b8ff" stroke="#63b8ff" points="3215.29,-186.18 3204.89,-184.17 3211.77,-192.23 3215.29,-186.18"/>
</a>
</g>
</g>
<!-- Node45 -->
<g id="Node000045" class="node">
<title>Node45</title>
<g id="a_Node000045"><a xlink:href="debug_2Stream_8h.html" target="_top" xlink:title=" ">
<polygon fill="white" stroke="#666666" points="3695,-184 3601,-184 3601,-165 3695,-165 3695,-184"/>
<text text-anchor="middle" x="3648" y="-172" font-family="Helvetica,sans-Serif" font-size="10.00">debug/Stream.h</text>
</a>
</g>
</g>
<!-- Node1&#45;&gt;Node45 -->
<g id="edge36_Node000001_Node000045" class="edge">
<title>Node1&#45;&gt;Node45</title>
<g id="a_edge36_Node000001_Node000045"><a xlink:title=" ">
<path fill="none" stroke="#63b8ff" d="M3339.96,-219.98C3408.96,-210.02 3522.43,-193.63 3590.7,-183.77"/>
<polygon fill="#63b8ff" stroke="#63b8ff" points="3591.45,-187.2 3600.85,-182.31 3590.45,-180.27 3591.45,-187.2"/>
</a>
</g>
</g>
<!-- Node52 -->
<g id="Node000052" class="node">
<title>Node52</title>
<g id="a_Node000052"><a xlink:href="Icmp_8h.html" target="_top" xlink:title=" ">
<polygon fill="white" stroke="#666666" points="3306,-184 3256,-184 3256,-165 3306,-165 3306,-184"/>
<text text-anchor="middle" x="3281" y="-172" font-family="Helvetica,sans-Serif" font-size="10.00">Icmp.h</text>
</a>
</g>
</g>
<!-- Node1&#45;&gt;Node52 -->
<g id="edge43_Node000001_Node000052" class="edge">
<title>Node1&#45;&gt;Node52</title>
<g id="a_edge43_Node000001_Node000052"><a xlink:title=" ">
<path fill="none" stroke="#63b8ff" d="M3281,-219.75C3281,-212.8 3281,-202.85 3281,-194.13"/>
<polygon fill="#63b8ff" stroke="#63b8ff" points="3284.5,-194.09 3281,-184.09 3277.5,-194.09 3284.5,-194.09"/>
</a>
</g>
</g>
<!-- Node57 -->
<g id="Node000057" class="node">
<title>Node57</title>
<g id="a_Node000057"><a xlink:href="time_2gadgets_8h.html" target="_top" xlink:title=" ">
<polygon fill="white" stroke="#666666" points="3414,-184 3324,-184 3324,-165 3414,-165 3414,-184"/>
<text text-anchor="middle" x="3369" y="-172" font-family="Helvetica,sans-Serif" font-size="10.00">time/gadgets.h</text>
</a>
</g>
</g>
<!-- Node1&#45;&gt;Node57 -->
<g id="edge49_Node000001_Node000057" class="edge">
<title>Node1&#45;&gt;Node57</title>
<g id="a_edge49_Node000001_Node000057"><a xlink:title=" ">
<path fill="none" stroke="#63b8ff" d="M3295.14,-219.98C3308.79,-211.77 3329.69,-199.18 3345.78,-189.49"/>
<polygon fill="#63b8ff" stroke="#63b8ff" points="3347.84,-192.33 3354.6,-184.17 3344.23,-186.33 3347.84,-192.33"/>
</a>
</g>
</g>
<!-- Node3 -->
<g id="Node000003" class="node">
<title>Node3</title>
<g id="a_Node000003"><a xlink:href="autoconf_8h.html" target="_top" xlink:title=" ">
<polygon fill="white" stroke="#666666" points="2494,-129 2426,-129 2426,-110 2494,-110 2494,-129"/>
<text text-anchor="middle" x="2460" y="-117" font-family="Helvetica,sans-Serif" font-size="10.00">autoconf.h</text>
</a>
</g>
</g>
<!-- Node2&#45;&gt;Node3 -->
<g id="edge2_Node000002_Node000003" class="edge">
<title>Node2&#45;&gt;Node3</title>
<g id="a_edge2_Node000002_Node000003"><a xlink:title=" ">
<path fill="none" stroke="#63b8ff" d="M2495.06,-164.75C2489.13,-157.26 2480.43,-146.28 2473.18,-137.13"/>
<polygon fill="#63b8ff" stroke="#63b8ff" points="2475.76,-134.75 2466.81,-129.09 2470.27,-139.1 2475.76,-134.75"/>
</a>
</g>
</g>
<!-- Node4 -->
<g id="Node000004" class="node">
<title>Node4</title>
<g id="a_Node000004"><a xlink:href="version_8h.html" target="_top" xlink:title=" ">
<polygon fill="white" stroke="#666666" points="2574,-129 2512,-129 2512,-110 2574,-110 2574,-129"/>
<text text-anchor="middle" x="2543" y="-117" font-family="Helvetica,sans-Serif" font-size="10.00">version.h</text>
</a>
</g>
</g>
<!-- Node2&#45;&gt;Node4 -->
<g id="edge3_Node000002_Node000004" class="edge">
<title>Node2&#45;&gt;Node4</title>
<g id="a_edge3_Node000002_Node000004"><a xlink:title=" ">
<path fill="none" stroke="#63b8ff" d="M2508.77,-164.75C2514.56,-157.26 2523.06,-146.28 2530.14,-137.13"/>
<polygon fill="#63b8ff" stroke="#63b8ff" points="2533.01,-139.14 2536.36,-129.09 2527.47,-134.86 2533.01,-139.14"/>
</a>
</g>
</g>
<!-- Node5 -->
<g id="Node000005" class="node">
<title>Node5</title>
<g id="a_Node000005"><a xlink:href="compat_8h.html" target="_top" xlink:title=" ">
<polygon fill="white" stroke="#666666" points="1748,-129 1646,-129 1646,-110 1748,-110 1748,-129"/>
<text text-anchor="middle" x="1697" y="-117" font-family="Helvetica,sans-Serif" font-size="10.00">compat/compat.h</text>
</a>
</g>
</g>
<!-- Node2&#45;&gt;Node5 -->
<g id="edge4_Node000002_Node000005" class="edge">
<title>Node2&#45;&gt;Node5</title>
<g id="a_edge4_Node000002_Node000005"><a xlink:title=" ">
<path fill="none" stroke="#63b8ff" d="M2475.67,-171.77C2363.32,-164.37 1922.24,-135.33 1758.57,-124.55"/>
<polygon fill="#63b8ff" stroke="#63b8ff" points="1758.4,-121.04 1748.19,-123.87 1757.94,-128.02 1758.4,-121.04"/>
</a>
</g>
</g>
<!-- Node6 -->
<g id="Node000006" class="node">
<title>Node6</title>
<g id="a_Node000006"><a xlink:href="osdetect_8h.html" target="_top" xlink:title=" ">
<polygon fill="white" stroke="#666666" points="2807.5,-74 2700.5,-74 2700.5,-55 2807.5,-55 2807.5,-74"/>
<text text-anchor="middle" x="2754" y="-62" font-family="Helvetica,sans-Serif" font-size="10.00">compat/osdetect.h</text>
</a>
</g>
</g>
<!-- Node5&#45;&gt;Node6 -->
<g id="edge5_Node000005_Node000006" class="edge">
<title>Node5&#45;&gt;Node6</title>
<g id="a_edge5_Node000005_Node000006"><a xlink:title=" ">
<path fill="none" stroke="#63b8ff" d="M1748.06,-117.82C1893.56,-115.55 2322.91,-106.47 2690.39,-73.96"/>
<polygon fill="#63b8ff" stroke="#63b8ff" points="2690.77,-77.44 2700.42,-73.06 2690.15,-70.46 2690.77,-77.44"/>
</a>
</g>
</g>
<!-- Node7 -->
<g id="Node000007" class="node">
<title>Node7</title>
<g id="a_Node000007"><a xlink:href="fdsetsize_8h.html" target="_top" xlink:title=" ">
<polygon fill="white" stroke="#666666" points="2936,-74 2826,-74 2826,-55 2936,-55 2936,-74"/>
<text text-anchor="middle" x="2881" y="-62" font-family="Helvetica,sans-Serif" font-size="10.00">compat/fdsetsize.h</text>
</a>
</g>
</g>
<!-- Node5&#45;&gt;Node7 -->
<g id="edge6_Node000005_Node000007" class="edge">
<title>Node5&#45;&gt;Node7</title>
<g id="a_edge6_Node000005_Node000007"><a xlink:title=" ">
<path fill="none" stroke="#63b8ff" d="M1748.13,-118.11C1905.56,-116.55 2397.06,-109.09 2815.54,-73.94"/>
<polygon fill="#63b8ff" stroke="#63b8ff" points="2816.05,-77.41 2825.72,-73.07 2815.46,-70.43 2816.05,-77.41"/>
</a>
</g>
</g>
<!-- Node8 -->
<g id="Node000008" class="node">
<title>Node8</title>
<g id="a_Node000008"><a xlink:href="types_8h.html" target="_top" xlink:title=" ">
<polygon fill="white" stroke="#666666" points="3046,-74 2954,-74 2954,-55 3046,-55 3046,-74"/>
<text text-anchor="middle" x="3000" y="-62" font-family="Helvetica,sans-Serif" font-size="10.00">compat/types.h</text>
</a>
</g>
</g>
<!-- Node5&#45;&gt;Node8 -->
<g id="edge7_Node000005_Node000008" class="edge">
<title>Node5&#45;&gt;Node8</title>
<g id="a_edge7_Node000005_Node000008"><a xlink:title=" ">
<path fill="none" stroke="#63b8ff" d="M1748.26,-118.83C1917.52,-119.46 2474.07,-117.9 2943.8,-73.98"/>
<polygon fill="#63b8ff" stroke="#63b8ff" points="2944.21,-77.46 2953.84,-73.04 2943.55,-70.49 2944.21,-77.46"/>
</a>
</g>
</g>
<!-- Node10 -->
<g id="Node000010" class="node">
<title>Node10</title>
<g id="a_Node000010"><a xlink:href="aix_8h.html" target="_top" xlink:title=" ">
<polygon fill="white" stroke="#666666" points="3159.5,-74 3064.5,-74 3064.5,-55 3159.5,-55 3159.5,-74"/>
<text text-anchor="middle" x="3112" y="-62" font-family="Helvetica,sans-Serif" font-size="10.00">compat/os/aix.h</text>
</a>
</g>
</g>
<!-- Node5&#45;&gt;Node10 -->
<g id="edge9_Node000005_Node000010" class="edge">
<title>Node5&#45;&gt;Node10</title>
<g id="a_edge9_Node000005_Node000010"><a xlink:title=" ">
<path fill="none" stroke="#63b8ff" d="M1748.34,-117.61C1960.94,-113.81 2773.9,-98.04 3054.31,-73.91"/>
<polygon fill="#63b8ff" stroke="#63b8ff" points="3054.81,-77.38 3064.46,-73.01 3054.19,-70.4 3054.81,-77.38"/>
</a>
</g>
</g>
<!-- Node11 -->
<g id="Node000011" class="node">
<title>Node11</title>
<g id="a_Node000011"><a xlink:href="android_8h.html" target="_top" xlink:title=" ">
<polygon fill="white" stroke="#666666" points="116,-74 0,-74 0,-55 116,-55 116,-74"/>
<text text-anchor="middle" x="58" y="-62" font-family="Helvetica,sans-Serif" font-size="10.00">compat/os/android.h</text>
</a>
</g>
</g>
<!-- Node5&#45;&gt;Node11 -->
<g id="edge10_Node000005_Node000011" class="edge">
<title>Node5&#45;&gt;Node11</title>
<g id="a_edge10_Node000005_Node000011"><a xlink:title=" ">
<path fill="none" stroke="#63b8ff" d="M1645.68,-118.87C1449.69,-119.9 729.63,-120.16 126.28,-74.01"/>
<polygon fill="#63b8ff" stroke="#63b8ff" points="126.31,-70.5 116.07,-73.22 125.77,-77.48 126.31,-70.5"/>
</a>
</g>
</g>
<!-- Node12 -->
<g id="Node000012" class="node">
<title>Node12</title>
<g id="a_Node000012"><a xlink:href="dragonfly_8h.html" target="_top" xlink:title=" ">
<polygon fill="white" stroke="#666666" points="258,-74 134,-74 134,-55 258,-55 258,-74"/>
<text text-anchor="middle" x="196" y="-62" font-family="Helvetica,sans-Serif" font-size="10.00">compat/os/dragonfly.h</text>
</a>
</g>
</g>
<!-- Node5&#45;&gt;Node12 -->
<g id="edge11_Node000005_Node000012" class="edge">
<title>Node5&#45;&gt;Node12</title>
<g id="a_edge11_Node000005_Node000012"><a xlink:title=" ">
<path fill="none" stroke="#63b8ff" d="M1645.93,-118.53C1461.64,-118.32 813.38,-114.57 268.34,-74.03"/>
<polygon fill="#63b8ff" stroke="#63b8ff" points="268.54,-70.53 258.31,-73.27 268.02,-77.51 268.54,-70.53"/>
</a>
</g>
</g>
<!-- Node13 -->
<g id="Node000013" class="node">
<title>Node13</title>
<g id="a_Node000013"><a xlink:href="freebsd_8h.html" target="_top" xlink:title=" ">
<polygon fill="white" stroke="#666666" points="392,-74 276,-74 276,-55 392,-55 392,-74"/>
<text text-anchor="middle" x="334" y="-62" font-family="Helvetica,sans-Serif" font-size="10.00">compat/os/freebsd.h</text>
</a>
</g>
</g>
<!-- Node5&#45;&gt;Node13 -->
<g id="edge12_Node000005_Node000013" class="edge">
<title>Node5&#45;&gt;Node13</title>
<g id="a_edge12_Node000005_Node000013"><a xlink:title=" ">
<path fill="none" stroke="#63b8ff" d="M1645.96,-118.43C1472.9,-117.84 892.33,-112.94 402.18,-74.01"/>
<polygon fill="#63b8ff" stroke="#63b8ff" points="402.32,-70.51 392.07,-73.2 401.76,-77.49 402.32,-70.51"/>
</a>
</g>
</g>
<!-- Node14 -->
<g id="Node000014" class="node">
<title>Node14</title>
<g id="a_Node000014"><a xlink:href="hpux_8h.html" target="_top" xlink:title=" ">
<polygon fill="white" stroke="#666666" points="514,-74 410,-74 410,-55 514,-55 514,-74"/>
<text text-anchor="middle" x="462" y="-62" font-family="Helvetica,sans-Serif" font-size="10.00">compat/os/hpux.h</text>
</a>
</g>
</g>
<!-- Node5&#45;&gt;Node14 -->
<g id="edge13_Node000005_Node000014" class="edge">
<title>Node5&#45;&gt;Node14</title>
<g id="a_edge13_Node000005_Node000014"><a xlink:title=" ">
<path fill="none" stroke="#63b8ff" d="M1645.97,-118.4C1483.58,-117.68 964.21,-112.38 524.26,-74.01"/>
<polygon fill="#63b8ff" stroke="#63b8ff" points="524.47,-70.52 514.2,-73.13 523.86,-77.49 524.47,-70.52"/>
</a>
</g>
</g>
<!-- Node15 -->
<g id="Node000015" class="node">
<title>Node15</title>
<g id="a_Node000015"><a xlink:href="linux_8h.html" target="_top" xlink:title=" ">
<polygon fill="white" stroke="#666666" points="636,-74 532,-74 532,-55 636,-55 636,-74"/>
<text text-anchor="middle" x="584" y="-62" font-family="Helvetica,sans-Serif" font-size="10.00">compat/os/linux.h</text>
</a>
</g>
</g>
<!-- Node5&#45;&gt;Node15 -->
<g id="edge14_Node000005_Node000015" class="edge">
<title>Node5&#45;&gt;Node15</title>
<g id="a_edge14_Node000005_Node000015"><a xlink:title=" ">
<path fill="none" stroke="#63b8ff" d="M1645.98,-118.08C1494.91,-116.46 1036.61,-108.9 646.28,-74.02"/>
<polygon fill="#63b8ff" stroke="#63b8ff" points="646.48,-70.52 636.21,-73.11 645.85,-77.49 646.48,-70.52"/>
</a>
</g>
</g>
<!-- Node16 -->
<g id="Node000016" class="node">
<title>Node16</title>
<g id="a_Node000016"><a xlink:href="macosx_8h.html" target="_top" xlink:title=" ">
<polygon fill="white" stroke="#666666" points="772,-74 654,-74 654,-55 772,-55 772,-74"/>
<text text-anchor="middle" x="713" y="-62" font-family="Helvetica,sans-Serif" font-size="10.00">compat/os/macosx.h</text>
</a>
</g>
</g>
<!-- Node5&#45;&gt;Node16 -->
<g id="edge15_Node000005_Node000016" class="edge">
<title>Node5&#45;&gt;Node16</title>
<g id="a_edge15_Node000005_Node000016"><a xlink:title=" ">
<path fill="none" stroke="#63b8ff" d="M1645.76,-117.37C1507.98,-114.05 1117.85,-102.73 782.71,-74.08"/>
<polygon fill="#63b8ff" stroke="#63b8ff" points="782.57,-70.55 772.31,-73.18 781.97,-77.53 782.57,-70.55"/>
</a>
</g>
</g>
<!-- Node17 -->
<g id="Node000017" class="node">
<title>Node17</title>
<g id="a_Node000017"><a xlink:href="mingw_8h.html" target="_top" xlink:title=" ">
<polygon fill="white" stroke="#666666" points="902,-74 790,-74 790,-55 902,-55 902,-74"/>
<text text-anchor="middle" x="846" y="-62" font-family="Helvetica,sans-Serif" font-size="10.00">compat/os/mingw.h</text>
</a>
</g>
</g>
<!-- Node5&#45;&gt;Node17 -->
<g id="edge16_Node000005_Node000017" class="edge">
<title>Node5&#45;&gt;Node17</title>
<g id="a_edge16_Node000005_Node000017"><a xlink:title=" ">
<path fill="none" stroke="#63b8ff" d="M1645.87,-116.91C1521.91,-112.76 1195.36,-100.18 912.39,-74.06"/>
<polygon fill="#63b8ff" stroke="#63b8ff" points="912.62,-70.57 902.34,-73.13 911.97,-77.54 912.62,-70.57"/>
</a>
</g>
</g>
<!-- Node18 -->
<g id="Node000018" class="node">
<title>Node18</title>
<g id="a_Node000018"><a xlink:href="mswindows_8h.html" target="_top" xlink:title=" ">
<polygon fill="white" stroke="#666666" points="1057.5,-74 920.5,-74 920.5,-55 1057.5,-55 1057.5,-74"/>
<text text-anchor="middle" x="989" y="-62" font-family="Helvetica,sans-Serif" font-size="10.00">compat/os/mswindows.h</text>
</a>
</g>
</g>
<!-- Node5&#45;&gt;Node18 -->
<g id="edge17_Node000005_Node000018" class="edge">
<title>Node5&#45;&gt;Node18</title>
<g id="a_edge17_Node000005_Node000018"><a xlink:title=" ">
<path fill="none" stroke="#63b8ff" d="M1645.83,-115.58C1539.96,-109.39 1288.94,-93.94 1068,-74.15"/>
<polygon fill="#63b8ff" stroke="#63b8ff" points="1068.11,-70.65 1057.83,-73.23 1067.48,-77.62 1068.11,-70.65"/>
</a>
</g>
</g>
<!-- Node19 -->
<g id="Node000019" class="node">
<title>Node19</title>
<g id="a_Node000019"><a xlink:href="netbsd_8h.html" target="_top" xlink:title=" ">
<polygon fill="white" stroke="#666666" points="1188.5,-74 1075.5,-74 1075.5,-55 1188.5,-55 1188.5,-74"/>
<text text-anchor="middle" x="1132" y="-62" font-family="Helvetica,sans-Serif" font-size="10.00">compat/os/netbsd.h</text>
</a>
</g>
</g>
<!-- Node5&#45;&gt;Node19 -->
<g id="edge18_Node000005_Node000019" class="edge">
<title>Node5&#45;&gt;Node19</title>
<g id="a_edge18_Node000005_Node000019"><a xlink:title=" ">
<path fill="none" stroke="#63b8ff" d="M1645.83,-114.65C1557,-107.8 1368.28,-92.59 1198.81,-74.16"/>
<polygon fill="#63b8ff" stroke="#63b8ff" points="1199.03,-70.66 1188.7,-73.06 1198.26,-77.62 1199.03,-70.66"/>
</a>
</g>
</g>
<!-- Node20 -->
<g id="Node000020" class="node">
<title>Node20</title>
<g id="a_Node000020"><a xlink:href="openbsd_8h.html" target="_top" xlink:title=" ">
<polygon fill="white" stroke="#666666" points="1327.5,-74 1206.5,-74 1206.5,-55 1327.5,-55 1327.5,-74"/>
<text text-anchor="middle" x="1267" y="-62" font-family="Helvetica,sans-Serif" font-size="10.00">compat/os/openbsd.h</text>
</a>
</g>
</g>
<!-- Node5&#45;&gt;Node20 -->
<g id="edge19_Node000005_Node000020" class="edge">
<title>Node5&#45;&gt;Node20</title>
<g id="a_edge19_Node000005_Node000020"><a xlink:title=" ">
<path fill="none" stroke="#63b8ff" d="M1645.98,-112.21C1569.38,-102.77 1424.38,-84.9 1337.64,-74.21"/>
<polygon fill="#63b8ff" stroke="#63b8ff" points="1337.97,-70.72 1327.62,-72.97 1337.12,-77.67 1337.97,-70.72"/>
</a>
</g>
</g>
<!-- Node21 -->
<g id="Node000021" class="node">
<title>Node21</title>
<g id="a_Node000021"><a xlink:href="os2_8h.html" target="_top" xlink:title=" ">
<polygon fill="white" stroke="#666666" points="1442.5,-74 1345.5,-74 1345.5,-55 1442.5,-55 1442.5,-74"/>
<text text-anchor="middle" x="1394" y="-62" font-family="Helvetica,sans-Serif" font-size="10.00">compat/os/os2.h</text>
</a>
</g>
</g>
<!-- Node5&#45;&gt;Node21 -->
<g id="edge20_Node000005_Node000021" class="edge">
<title>Node5&#45;&gt;Node21</title>
<g id="a_edge20_Node000005_Node000021"><a xlink:title=" ">
<path fill="none" stroke="#63b8ff" d="M1648.32,-109.98C1594.98,-100.65 1509.44,-85.69 1452.5,-75.73"/>
<polygon fill="#63b8ff" stroke="#63b8ff" points="1453.01,-72.27 1442.56,-73.99 1451.81,-79.16 1453.01,-72.27"/>
</a>
</g>
</g>
<!-- Node22 -->
<g id="Node000022" class="node">
<title>Node22</title>
<g id="a_Node000022"><a xlink:href="qnx_8h.html" target="_top" xlink:title=" ">
<polygon fill="white" stroke="#666666" points="1559,-74 1461,-74 1461,-55 1559,-55 1559,-74"/>
<text text-anchor="middle" x="1510" y="-62" font-family="Helvetica,sans-Serif" font-size="10.00">compat/os/qnx.h</text>
</a>
</g>
</g>
<!-- Node5&#45;&gt;Node22 -->
<g id="edge21_Node000005_Node000022" class="edge">
<title>Node5&#45;&gt;Node22</title>
<g id="a_edge21_Node000005_Node000022"><a xlink:title=" ">
<path fill="none" stroke="#63b8ff" d="M1666.96,-109.98C1635.29,-101.01 1585.23,-86.82 1550.19,-76.89"/>
<polygon fill="#63b8ff" stroke="#63b8ff" points="1550.86,-73.44 1540.28,-74.08 1548.95,-80.18 1550.86,-73.44"/>
</a>
</g>
</g>
<!-- Node23 -->
<g id="Node000023" class="node">
<title>Node23</title>
<g id="a_Node000023"><a xlink:href="solaris_8h.html" target="_top" xlink:title=" ">
<polygon fill="white" stroke="#666666" points="1689,-74 1577,-74 1577,-55 1689,-55 1689,-74"/>
<text text-anchor="middle" x="1633" y="-62" font-family="Helvetica,sans-Serif" font-size="10.00">compat/os/solaris.h</text>
</a>
</g>
</g>
<!-- Node5&#45;&gt;Node23 -->
<g id="edge22_Node000005_Node000023" class="edge">
<title>Node5&#45;&gt;Node23</title>
<g id="a_edge22_Node000005_Node000023"><a xlink:title=" ">
<path fill="none" stroke="#63b8ff" d="M1686.72,-109.98C1677.16,-102.07 1662.72,-90.11 1651.22,-80.58"/>
<polygon fill="#63b8ff" stroke="#63b8ff" points="1653.4,-77.85 1643.47,-74.17 1648.94,-83.24 1653.4,-77.85"/>
</a>
</g>
</g>
<!-- Node24 -->
<g id="Node000024" class="node">
<title>Node24</title>
<g id="a_Node000024"><a xlink:href="sunos_8h.html" target="_top" xlink:title=" ">
<polygon fill="white" stroke="#666666" points="1815,-74 1707,-74 1707,-55 1815,-55 1815,-74"/>
<text text-anchor="middle" x="1761" y="-62" font-family="Helvetica,sans-Serif" font-size="10.00">compat/os/sunos.h</text>
</a>
</g>
</g>
<!-- Node5&#45;&gt;Node24 -->
<g id="edge23_Node000005_Node000024" class="edge">
<title>Node5&#45;&gt;Node24</title>
<g id="a_edge23_Node000005_Node000024"><a xlink:title=" ">
<path fill="none" stroke="#63b8ff" d="M1707.28,-109.98C1716.84,-102.07 1731.28,-90.11 1742.78,-80.58"/>
<polygon fill="#63b8ff" stroke="#63b8ff" points="1745.06,-83.24 1750.53,-74.17 1740.6,-77.85 1745.06,-83.24"/>
</a>
</g>
</g>
<!-- Node25 -->
<g id="Node000025" class="node">
<title>Node25</title>
<g id="a_Node000025"><a xlink:href="assert_8h.html" target="_top" xlink:title=" ">
<polygon fill="white" stroke="#666666" points="1928.5,-74 1833.5,-74 1833.5,-55 1928.5,-55 1928.5,-74"/>
<text text-anchor="middle" x="1881" y="-62" font-family="Helvetica,sans-Serif" font-size="10.00">compat/assert.h</text>
</a>
</g>
</g>
<!-- Node5&#45;&gt;Node25 -->
<g id="edge24_Node000005_Node000025" class="edge">
<title>Node5&#45;&gt;Node25</title>
<g id="a_edge24_Node000005_Node000025"><a xlink:title=" ">
<path fill="none" stroke="#63b8ff" d="M1726.56,-109.98C1757.72,-101.01 1806.97,-86.82 1841.46,-76.89"/>
<polygon fill="#63b8ff" stroke="#63b8ff" points="1842.57,-80.21 1851.21,-74.08 1840.63,-73.49 1842.57,-80.21"/>
</a>
</g>
</g>
<!-- Node26 -->
<g id="Node000026" class="node">
<title>Node26</title>
<g id="a_Node000026"><a xlink:href="compat__shared_8h.html" target="_top" xlink:title=" ">
<polygon fill="#fff0f0" stroke="red" points="2087,-74 1947,-74 1947,-55 2087,-55 2087,-74"/>
<text text-anchor="middle" x="2017" y="-62" font-family="Helvetica,sans-Serif" font-size="10.00">compat/compat_shared.h</text>
</a>
</g>
</g>
<!-- Node5&#45;&gt;Node26 -->
<g id="edge25_Node000005_Node000026" class="edge">
<title>Node5&#45;&gt;Node26</title>
<g id="a_edge25_Node000005_Node000026"><a xlink:title=" ">
<path fill="none" stroke="#63b8ff" d="M1748.06,-110.04C1804.44,-100.71 1895.19,-85.68 1955.45,-75.69"/>
<polygon fill="#63b8ff" stroke="#63b8ff" points="1956.3,-79.1 1965.59,-74.01 1955.16,-72.2 1956.3,-79.1"/>
</a>
</g>
</g>
<!-- Node36 -->
<g id="Node000036" class="node">
<title>Node36</title>
<g id="a_Node000036"><a xlink:href="stdvarargs_8h.html" target="_top" xlink:title=" ">
<polygon fill="#fff0f0" stroke="red" points="2222.5,-74 2105.5,-74 2105.5,-55 2222.5,-55 2222.5,-74"/>
<text text-anchor="middle" x="2164" y="-62" font-family="Helvetica,sans-Serif" font-size="10.00">compat/stdvarargs.h</text>
</a>
</g>
</g>
<!-- Node5&#45;&gt;Node36 -->
<g id="edge30_Node000005_Node000036" class="edge">
<title>Node5&#45;&gt;Node36</title>
<g id="a_edge30_Node000005_Node000036"><a xlink:title=" ">
<path fill="none" stroke="#63b8ff" d="M1748.04,-113.03C1822.02,-105.05 1963.64,-89.59 2095.14,-74.09"/>
<polygon fill="#63b8ff" stroke="#63b8ff" points="2095.88,-77.52 2105.4,-72.88 2095.06,-70.57 2095.88,-77.52"/>
</a>
</g>
</g>
<!-- Node38 -->
<g id="Node000038" class="node">
<title>Node38</title>
<g id="a_Node000038"><a xlink:href="stdio_8h.html" target="_top" xlink:title=" ">
<polygon fill="#fff0f0" stroke="red" points="2329.5,-74 2240.5,-74 2240.5,-55 2329.5,-55 2329.5,-74"/>
<text text-anchor="middle" x="2285" y="-62" font-family="Helvetica,sans-Serif" font-size="10.00">compat/stdio.h</text>
</a>
</g>
</g>
<!-- Node5&#45;&gt;Node38 -->
<g id="edge31_Node000005_Node000038" class="edge">
<title>Node5&#45;&gt;Node38</title>
<g id="a_edge31_Node000005_Node000038"><a xlink:title=" ">
<path fill="none" stroke="#63b8ff" d="M1748.3,-115.47C1841.89,-109.68 2046.78,-95.75 2230.15,-74.01"/>
<polygon fill="#63b8ff" stroke="#63b8ff" points="2230.73,-77.47 2240.25,-72.8 2229.9,-70.51 2230.73,-77.47"/>
</a>
</g>
</g>
<!-- Node40 -->
<g id="Node000040" class="node">
<title>Node40</title>
<g id="a_Node000040"><a xlink:href="statvfs_8h.html" target="_top" xlink:title=" ">
<polygon fill="white" stroke="#666666" points="2446.5,-74 2347.5,-74 2347.5,-55 2446.5,-55 2446.5,-74"/>
<text text-anchor="middle" x="2397" y="-62" font-family="Helvetica,sans-Serif" font-size="10.00">compat/statvfs.h</text>
</a>
</g>
</g>
<!-- Node5&#45;&gt;Node40 -->
<g id="edge32_Node000005_Node000040" class="edge">
<title>Node5&#45;&gt;Node40</title>
<g id="a_edge32_Node000005_Node000040"><a xlink:title=" ">
<path fill="none" stroke="#63b8ff" d="M1748.21,-116.23C1855.43,-111.2 2111.55,-97.73 2337.41,-73.97"/>
<polygon fill="#63b8ff" stroke="#63b8ff" points="2337.88,-77.44 2347.46,-72.91 2337.15,-70.48 2337.88,-77.44"/>
</a>
</g>
</g>
<!-- Node41 -->
<g id="Node000041" class="node">
<title>Node41</title>
<g id="a_Node000041"><a xlink:href="debug_8h.html" target="_top" xlink:title=" ">
<polygon fill="white" stroke="#666666" points="2559.5,-74 2464.5,-74 2464.5,-55 2559.5,-55 2559.5,-74"/>
<text text-anchor="middle" x="2512" y="-62" font-family="Helvetica,sans-Serif" font-size="10.00">compat/debug.h</text>
</a>
</g>
</g>
<!-- Node5&#45;&gt;Node41 -->
<g id="edge33_Node000005_Node000041" class="edge">
<title>Node5&#45;&gt;Node41</title>
<g id="a_edge33_Node000005_Node000041"><a xlink:title=" ">
<path fill="none" stroke="#63b8ff" d="M1748.14,-117.08C1869.03,-113.37 2182.04,-101.79 2454.38,-73.95"/>
<polygon fill="#63b8ff" stroke="#63b8ff" points="2454.87,-77.42 2464.45,-72.91 2454.15,-70.46 2454.87,-77.42"/>
</a>
</g>
</g>
<!-- Node42 -->
<g id="Node000042" class="node">
<title>Node42</title>
<g id="a_Node000042"><a xlink:href="valgrind_8h.html" target="_top" xlink:title=" ">
<polygon fill="#fff0f0" stroke="red" points="2682.5,-74 2577.5,-74 2577.5,-55 2682.5,-55 2682.5,-74"/>
<text text-anchor="middle" x="2630" y="-62" font-family="Helvetica,sans-Serif" font-size="10.00">compat/valgrind.h</text>
</a>
</g>
</g>
<!-- Node5&#45;&gt;Node42 -->
<g id="edge34_Node000005_Node000042" class="edge">
<title>Node5&#45;&gt;Node42</title>
<g id="a_edge34_Node000005_Node000042"><a xlink:title=" ">
<path fill="none" stroke="#63b8ff" d="M1748.16,-117.41C1881.26,-114.24 2249.43,-103.4 2566.95,-74"/>
<polygon fill="#63b8ff" stroke="#63b8ff" points="2567.64,-77.46 2577.27,-73.04 2566.99,-70.49 2567.64,-77.46"/>
</a>
</g>
</g>
<!-- Node9 -->
<g id="Node000009" class="node">
<title>Node9</title>
<g id="a_Node000009"><a xlink:title=" ">
<polygon fill="#e0e0e0" stroke="#999999" points="3025,-19 2975,-19 2975,0 3025,0 3025,-19"/>
<text text-anchor="middle" x="3000" y="-7" font-family="Helvetica,sans-Serif" font-size="10.00">cstdint</text>
</a>
</g>
</g>
<!-- Node8&#45;&gt;Node9 -->
<g id="edge8_Node000008_Node000009" class="edge">
<title>Node8&#45;&gt;Node9</title>
<g id="a_edge8_Node000008_Node000009"><a xlink:title=" ">
<path fill="none" stroke="#63b8ff" d="M3000,-54.75C3000,-47.8 3000,-37.85 3000,-29.13"/>
<polygon fill="#63b8ff" stroke="#63b8ff" points="3003.5,-29.09 3000,-19.09 2996.5,-29.09 3003.5,-29.09"/>
</a>
</g>
</g>
<!-- Node27 -->
<g id="Node000027" class="node">
<title>Node27</title>
<g id="a_Node000027"><a xlink:title=" ">
<polygon fill="#e0e0e0" stroke="#999999" points="1898.5,-19 1847.5,-19 1847.5,0 1898.5,0 1898.5,-19"/>
<text text-anchor="middle" x="1873" y="-7" font-family="Helvetica,sans-Serif" font-size="10.00">csignal</text>
</a>
</g>
</g>
<!-- Node26&#45;&gt;Node27 -->
<g id="edge26_Node000026_Node000027" class="edge">
<title>Node26&#45;&gt;Node27</title>
<g id="a_edge26_Node000026_Node000027"><a xlink:title=" ">
<path fill="none" stroke="#63b8ff" d="M1993.86,-54.98C1970.18,-46.27 1933.13,-32.63 1906.29,-22.75"/>
<polygon fill="#63b8ff" stroke="#63b8ff" points="1907.15,-19.34 1896.56,-19.17 1904.73,-25.91 1907.15,-19.34"/>
</a>
</g>
</g>
<!-- Node28 -->
<g id="Node000028" class="node">
<title>Node28</title>
<g id="a_Node000028"><a xlink:href="xalloc_8h.html" target="_top" xlink:title=" ">
<polygon fill="white" stroke="#666666" points="2011.5,-19 1916.5,-19 1916.5,0 2011.5,0 2011.5,-19"/>
<text text-anchor="middle" x="1964" y="-7" font-family="Helvetica,sans-Serif" font-size="10.00">compat/xalloc.h</text>
</a>
</g>
</g>
<!-- Node26&#45;&gt;Node28 -->
<g id="edge27_Node000026_Node000028" class="edge">
<title>Node26&#45;&gt;Node28</title>
<g id="a_edge27_Node000026_Node000028"><a xlink:title=" ">
<path fill="none" stroke="#63b8ff" d="M2008.25,-54.75C2000.53,-47.03 1989.1,-35.6 1979.78,-26.28"/>
<polygon fill="#63b8ff" stroke="#63b8ff" points="1982.14,-23.69 1972.59,-19.09 1977.19,-28.64 1982.14,-23.69"/>
</a>
</g>
</g>
<!-- Node29 -->
<g id="Node000029" class="node">
<title>Node29</title>
<g id="a_Node000029"><a xlink:href="xis_8h.html" target="_top" xlink:title=" ">
<polygon fill="#fff0f0" stroke="red" points="2110,-19 2030,-19 2030,0 2110,0 2110,-19"/>
<text text-anchor="middle" x="2070" y="-7" font-family="Helvetica,sans-Serif" font-size="10.00">compat/xis.h</text>
</a>
</g>
</g>
<!-- Node26&#45;&gt;Node29 -->
<g id="edge28_Node000026_Node000029" class="edge">
<title>Node26&#45;&gt;Node29</title>
<g id="a_edge28_Node000026_Node000029"><a xlink:title=" ">
<path fill="none" stroke="#63b8ff" d="M2025.75,-54.75C2033.47,-47.03 2044.9,-35.6 2054.22,-26.28"/>
<polygon fill="#63b8ff" stroke="#63b8ff" points="2056.81,-28.64 2061.41,-19.09 2051.86,-23.69 2056.81,-28.64"/>
</a>
</g>
</g>
<!-- Node31 -->
<g id="Node000031" class="node">
<title>Node31</title>
<g id="a_Node000031"><a xlink:href="xstrerror_8h.html" target="_top" xlink:title=" ">
<polygon fill="white" stroke="#666666" points="2235.5,-19 2128.5,-19 2128.5,0 2235.5,0 2235.5,-19"/>
<text text-anchor="middle" x="2182" y="-7" font-family="Helvetica,sans-Serif" font-size="10.00">compat/xstrerror.h</text>
</a>
</g>
</g>
<!-- Node26&#45;&gt;Node31 -->
<g id="edge29_Node000026_Node000031" class="edge">
<title>Node26&#45;&gt;Node31</title>
<g id="a_edge29_Node000026_Node000031"><a xlink:title=" ">
<path fill="none" stroke="#63b8ff" d="M2043.51,-54.98C2071.21,-46.09 2114.86,-32.07 2145.74,-22.15"/>
<polygon fill="#63b8ff" stroke="#63b8ff" points="2146.83,-25.47 2155.28,-19.08 2144.69,-18.81 2146.83,-25.47"/>
</a>
</g>
</g>
<!-- Node46 -->
<g id="Node000046" class="node">
<title>Node46</title>
<g id="a_Node000046"><a xlink:href="Here_8h.html" target="_top" xlink:title=" ">
<polygon fill="white" stroke="#666666" points="3881.5,-129 3806.5,-129 3806.5,-110 3881.5,-110 3881.5,-129"/>
<text text-anchor="middle" x="3844" y="-117" font-family="Helvetica,sans-Serif" font-size="10.00">base/Here.h</text>
</a>
</g>
</g>
<!-- Node45&#45;&gt;Node46 -->
<g id="edge37_Node000045_Node000046" class="edge">
<title>Node45&#45;&gt;Node46</title>
<g id="a_edge37_Node000045_Node000046"><a xlink:title=" ">
<path fill="none" stroke="#63b8ff" d="M3679.49,-164.98C3712.82,-155.97 3765.6,-141.7 3802.35,-131.76"/>
<polygon fill="#63b8ff" stroke="#63b8ff" points="3803.52,-135.07 3812.26,-129.08 3801.7,-128.31 3803.52,-135.07"/>
</a>
</g>
</g>
<!-- Node48 -->
<g id="Node000048" class="node">
<title>Node48</title>
<g id="a_Node000048"><a xlink:href="AllocatorProxy_8h.html" target="_top" xlink:title=" ">
<polygon fill="white" stroke="#666666" points="3562,-129 3438,-129 3438,-110 3562,-110 3562,-129"/>
<text text-anchor="middle" x="3500" y="-117" font-family="Helvetica,sans-Serif" font-size="10.00">mem/AllocatorProxy.h</text>
</a>
</g>
</g>
<!-- Node45&#45;&gt;Node48 -->
<g id="edge39_Node000045_Node000048" class="edge">
<title>Node45&#45;&gt;Node48</title>
<g id="a_edge39_Node000045_Node000048"><a xlink:title=" ">
<path fill="none" stroke="#63b8ff" d="M3624.22,-164.98C3599.77,-156.23 3561.47,-142.51 3533.85,-132.62"/>
<polygon fill="#63b8ff" stroke="#63b8ff" points="3534.81,-129.25 3524.21,-129.17 3532.45,-135.84 3534.81,-129.25"/>
</a>
</g>
</g>
<!-- Node49 -->
<g id="Node000049" class="node">
<title>Node49</title>
<g id="a_Node000049"><a xlink:title=" ">
<polygon fill="#e0e0e0" stroke="#999999" points="3640,-129 3580,-129 3580,-110 3640,-110 3640,-129"/>
<text text-anchor="middle" x="3610" y="-117" font-family="Helvetica,sans-Serif" font-size="10.00">iostream</text>
</a>
</g>
</g>
<!-- Node45&#45;&gt;Node49 -->
<g id="edge40_Node000045_Node000049" class="edge">
<title>Node45&#45;&gt;Node49</title>
<g id="a_edge40_Node000045_Node000049"><a xlink:title=" ">
<path fill="none" stroke="#63b8ff" d="M3641.73,-164.75C3636.41,-157.34 3628.64,-146.5 3622.12,-137.41"/>
<polygon fill="#63b8ff" stroke="#63b8ff" points="3624.83,-135.18 3616.16,-129.09 3619.14,-139.26 3624.83,-135.18"/>
</a>
</g>
</g>
<!-- Node50 -->
<g id="Node000050" class="node">
<title>Node50</title>
<g id="a_Node000050"><a xlink:title=" ">
<polygon fill="#e0e0e0" stroke="#999999" points="3714,-129 3658,-129 3658,-110 3714,-110 3714,-129"/>
<text text-anchor="middle" x="3686" y="-117" font-family="Helvetica,sans-Serif" font-size="10.00">sstream</text>
</a>
</g>
</g>
<!-- Node45&#45;&gt;Node50 -->
<g id="edge41_Node000045_Node000050" class="edge">
<title>Node45&#45;&gt;Node50</title>
<g id="a_edge41_Node000045_Node000050"><a xlink:title=" ">
<path fill="none" stroke="#63b8ff" d="M3654.27,-164.75C3659.59,-157.34 3667.36,-146.5 3673.88,-137.41"/>
<polygon fill="#63b8ff" stroke="#63b8ff" points="3676.86,-139.26 3679.84,-129.09 3671.17,-135.18 3676.86,-139.26"/>
</a>
</g>
</g>
<!-- Node51 -->
<g id="Node000051" class="node">
<title>Node51</title>
<g id="a_Node000051"><a xlink:title=" ">
<polygon fill="#e0e0e0" stroke="#999999" points="3788,-129 3732,-129 3732,-110 3788,-110 3788,-129"/>
<text text-anchor="middle" x="3760" y="-117" font-family="Helvetica,sans-Serif" font-size="10.00">iomanip</text>
</a>
</g>
</g>
<!-- Node45&#45;&gt;Node51 -->
<g id="edge42_Node000045_Node000051" class="edge">
<title>Node45&#45;&gt;Node51</title>
<g id="a_edge42_Node000045_Node000051"><a xlink:title=" ">
<path fill="none" stroke="#63b8ff" d="M3665.99,-164.98C3683.93,-156.5 3711.72,-143.35 3732.43,-133.54"/>
<polygon fill="#63b8ff" stroke="#63b8ff" points="3734.14,-136.61 3741.68,-129.17 3731.14,-130.28 3734.14,-136.61"/>
</a>
</g>
</g>
<!-- Node47 -->
<g id="Node000047" class="node">
<title>Node47</title>
<g id="a_Node000047"><a xlink:title=" ">
<polygon fill="#e0e0e0" stroke="#999999" points="3469,-74 3421,-74 3421,-55 3469,-55 3469,-74"/>
<text text-anchor="middle" x="3445" y="-62" font-family="Helvetica,sans-Serif" font-size="10.00">iosfwd</text>
</a>
</g>
</g>
<!-- Node46&#45;&gt;Node47 -->
<g id="edge38_Node000046_Node000047" class="edge">
<title>Node46&#45;&gt;Node47</title>
<g id="a_edge38_Node000046_Node000047"><a xlink:title=" ">
<path fill="none" stroke="#63b8ff" d="M3806.32,-111.5C3803.17,-110.97 3800.03,-110.47 3797,-110 3681.03,-92.2 3542.76,-76.25 3479.58,-69.25"/>
<polygon fill="#63b8ff" stroke="#63b8ff" points="3479.71,-65.75 3469.39,-68.13 3478.94,-72.71 3479.71,-65.75"/>
</a>
</g>
</g>
<!-- Node53 -->
<g id="Node000053" class="node">
<title>Node53</title>
<g id="a_Node000053"><a xlink:href="ip_2Address_8h.html" target="_top" xlink:title=" ">
<polygon fill="white" stroke="#666666" points="3319.5,-129 3242.5,-129 3242.5,-110 3319.5,-110 3319.5,-129"/>
<text text-anchor="middle" x="3281" y="-117" font-family="Helvetica,sans-Serif" font-size="10.00">ip/Address.h</text>
</a>
</g>
</g>
<!-- Node52&#45;&gt;Node53 -->
<g id="edge44_Node000052_Node000053" class="edge">
<title>Node52&#45;&gt;Node53</title>
<g id="a_edge44_Node000052_Node000053"><a xlink:title=" ">
<path fill="none" stroke="#63b8ff" d="M3281,-164.75C3281,-157.8 3281,-147.85 3281,-139.13"/>
<polygon fill="#63b8ff" stroke="#63b8ff" points="3284.5,-139.09 3281,-129.09 3277.5,-139.09 3284.5,-139.09"/>
</a>
</g>
</g>
<!-- Node53&#45;&gt;Node47 -->
<g id="edge46_Node000053_Node000047" class="edge">
<title>Node53&#45;&gt;Node47</title>
<g id="a_edge46_Node000053_Node000047"><a xlink:title=" ">
<path fill="none" stroke="#63b8ff" d="M3307.35,-109.98C3335.5,-100.89 3380.21,-86.44 3410.99,-76.49"/>
<polygon fill="#63b8ff" stroke="#63b8ff" points="3412.41,-79.71 3420.85,-73.3 3410.26,-73.05 3412.41,-79.71"/>
</a>
</g>
</g>
<!-- Node54 -->
<g id="Node000054" class="node">
<title>Node54</title>
<g id="a_Node000054"><a xlink:href="ip_2forward_8h.html" target="_top" xlink:title=" ">
<polygon fill="white" stroke="#666666" points="3402.5,-74 3327.5,-74 3327.5,-55 3402.5,-55 3402.5,-74"/>
<text text-anchor="middle" x="3365" y="-62" font-family="Helvetica,sans-Serif" font-size="10.00">ip/forward.h</text>
</a>
</g>
</g>
<!-- Node53&#45;&gt;Node54 -->
<g id="edge45_Node000053_Node000054" class="edge">
<title>Node53&#45;&gt;Node54</title>
<g id="a_edge45_Node000053_Node000054"><a xlink:title=" ">
<path fill="none" stroke="#63b8ff" d="M3294.5,-109.98C3307.4,-101.84 3327.1,-89.41 3342.4,-79.76"/>
<polygon fill="#63b8ff" stroke="#63b8ff" points="3344.67,-82.47 3351.26,-74.17 3340.93,-76.55 3344.67,-82.47"/>
</a>
</g>
</g>
<!-- Node55 -->
<g id="Node000055" class="node">
<title>Node55</title>
<g id="a_Node000055"><a xlink:title=" ">
<polygon fill="#e0e0e0" stroke="#999999" points="3234.5,-74 3177.5,-74 3177.5,-55 3234.5,-55 3234.5,-74"/>
<text text-anchor="middle" x="3206" y="-62" font-family="Helvetica,sans-Serif" font-size="10.00">ostream</text>
</a>
</g>
</g>
<!-- Node53&#45;&gt;Node55 -->
<g id="edge47_Node000053_Node000055" class="edge">
<title>Node53&#45;&gt;Node55</title>
<g id="a_edge47_Node000053_Node000055"><a xlink:title=" ">
<path fill="none" stroke="#63b8ff" d="M3268.95,-109.98C3257.54,-101.92 3240.17,-89.65 3226.57,-80.03"/>
<polygon fill="#63b8ff" stroke="#63b8ff" points="3228.46,-77.08 3218.27,-74.17 3224.42,-82.8 3228.46,-77.08"/>
</a>
</g>
</g>
<!-- Node56 -->
<g id="Node000056" class="node">
<title>Node56</title>
<g id="a_Node000056"><a xlink:title=" ">
<polygon fill="#e0e0e0" stroke="#999999" points="3309,-74 3253,-74 3253,-55 3309,-55 3309,-74"/>
<text text-anchor="middle" x="3281" y="-62" font-family="Helvetica,sans-Serif" font-size="10.00">optional</text>
</a>
</g>
</g>
<!-- Node53&#45;&gt;Node56 -->
<g id="edge48_Node000053_Node000056" class="edge">
<title>Node53&#45;&gt;Node56</title>
<g id="a_edge48_Node000053_Node000056"><a xlink:title=" ">
<path fill="none" stroke="#63b8ff" d="M3281,-109.75C3281,-102.8 3281,-92.85 3281,-84.13"/>
<polygon fill="#63b8ff" stroke="#63b8ff" points="3284.5,-84.09 3281,-74.09 3277.5,-84.09 3284.5,-84.09"/>
</a>
</g>
</g>
<!-- Node57&#45;&gt;Node47 -->
<g id="edge51_Node000057_Node000047" class="edge">
<title>Node57&#45;&gt;Node47</title>
<g id="a_edge51_Node000057_Node000047"><a xlink:title=" ">
<path fill="none" stroke="#63b8ff" d="M3365.94,-164.57C3362.07,-151.59 3357.03,-127.17 3367,-110 3376.62,-93.43 3394.98,-82.52 3411.47,-75.65"/>
<polygon fill="#63b8ff" stroke="#63b8ff" points="3412.78,-78.89 3420.88,-72.05 3410.29,-72.35 3412.78,-78.89"/>
</a>
</g>
</g>
<!-- Node58 -->
<g id="Node000058" class="node">
<title>Node58</title>
<g id="a_Node000058"><a xlink:title=" ">
<polygon fill="#e0e0e0" stroke="#999999" points="3420,-129 3376,-129 3376,-110 3420,-110 3420,-129"/>
<text text-anchor="middle" x="3398" y="-117" font-family="Helvetica,sans-Serif" font-size="10.00">ctime</text>
</a>
</g>
</g>
<!-- Node57&#45;&gt;Node58 -->
<g id="edge50_Node000057_Node000058" class="edge">
<title>Node57&#45;&gt;Node58</title>
<g id="a_edge50_Node000057_Node000058"><a xlink:title=" ">
<path fill="none" stroke="#63b8ff" d="M3373.79,-164.75C3377.76,-157.49 3383.53,-146.95 3388.43,-137.98"/>
<polygon fill="#63b8ff" stroke="#63b8ff" points="3391.57,-139.54 3393.3,-129.09 3385.43,-136.18 3391.57,-139.54"/>
</a>
</g>
</g>
</g>
</svg>

<g id="navigator" transform="translate(0 0)" fill="#404254">
  <rect fill="#f2f5e9" fill-opacity="0.5" stroke="#606060" stroke-width=".5" x="0" y="0" width="60" height="60"/>
  <use id="zoomplus" xlink:href="#zoomPlus" x="17" y="9" onmousedown="handleZoom(evt,'in')"/>
  <use id="zoomminus" xlink:href="#zoomMin" x="42" y="9" onmousedown="handleZoom(evt,'out')"/>
  <use id="reset" xlink:href="#resetDef" x="30" y="36" onmousedown="handleReset()"/>
   <use id="arrowup" xlink:href="#arrowUp" x="0" y="0" onmousedown="handlePan(0,-1)"/>
  <use id="arrowright" xlink:href="#arrowRight" x="0" y="0" onmousedown="handlePan(1,0)"/>
  <use id="arrowdown" xlink:href="#arrowDown" x="0" y="0" onmousedown="handlePan(0,1)"/>
  <use id="arrowleft" xlink:href="#arrowLeft" x="0" y="0" onmousedown="handlePan(-1,0)"/>
</g>
<svg viewBox="0 0 15 15" width="100%" height="30px" preserveAspectRatio="xMaxYMin meet">
 <g id="arrow_out" transform="scale(0.3 0.3)">
  <a xlink:href="Icmp_8cc__incl_org.svg" target="_base">
   <rect id="button" ry="5" rx="5" y="6" x="6" height="38" width="38"
        fill="#f2f5e9" fill-opacity="0.5" stroke="#606060" stroke-width="1.0"/>
   <path id="arrow"
     d="M 11.500037,31.436501 C 11.940474,20.09759 22.043105,11.32322 32.158766,21.979434 L 37.068811,17.246167 C 37.068811,17.246167 37.088388,32 37.088388,32 L 22.160133,31.978069 C 22.160133,31.978069 26.997745,27.140456 26.997745,27.140456 C 18.528582,18.264221 13.291696,25.230495 11.500037,31.436501 z"
     style="fill:#404040;"/>
  </a>
 </g>
</svg>

<style type='text/css'>
<![CDATA[
[data-mouse-over-selected='false'] { opacity: 0.7; }
[data-mouse-over-selected='true']  { opacity: 1.0; }
]]>
</style>
<script type="application/ecmascript"><![CDATA[
document.addEventListener('DOMContentLoaded', (event) => {
  highlightEdges();
  highlightAdjacentNodes();
});
]]></script>
</svg>
