<?xml version="1.0" encoding="UTF-8" standalone="no"?>
<!DOCTYPE svg PUBLIC "-//W3C//DTD SVG 1.1//EN"
 "http://www.w3.org/Graphics/SVG/1.1/DTD/svg11.dtd">
<!-- Generated by graphviz version 2.43.0 (0)
 -->
<!-- Title: squid/src/icmp/Icmp.h Pages: 1 -->
<!--zoomable 148 -->

<svg id="main" version="1.1" xmlns="http://www.w3.org/2000/svg" xmlns:xlink="http://www.w3.org/1999/xlink" xml:space="preserve" onload="init(evt)">
<style type="text/css"><![CDATA[
.node, .edge {opacity: 0.7;}
.node.selected, .edge.selected {opacity: 1;}
.edge:hover path { stroke: red; }
.edge:hover polygon { stroke: red; fill: red; }
]]></style>

<defs>
  <circle id="rim" cx="0" cy="0" r="7"/>
  <circle id="rim2" cx="0" cy="0" r="3.5"/>
  <g id="zoomPlus">
    <use xlink:href="#rim" fill="#404040"><set attributeName="fill" to="#808080" begin="zoomplus.mouseover" end="zoomplus.mouseout"/></use>
    <path d="M-4,0h8M0,-4v8" fill="none" stroke="white" stroke-width="1.5" pointer-events="none"/>
  </g>
  <g id="zoomMin">
    <use xlink:href="#rim" fill="#404040"><set attributeName="fill" to="#808080" begin="zoomminus.mouseover" end="zoomminus.mouseout"/></use>
    <path d="M-4,0h8" fill="none" stroke="white" stroke-width="1.5" pointer-events="none"/>
  </g>
  <g id="arrowUp" transform="translate(30 24)">
    <use xlink:href="#rim"/>
    <path pointer-events="none" fill="none" stroke="white" stroke-width="1.5" d="M0,-3.0v7 M-2.5,-0.5L0,-3.0L2.5,-0.5"/>
  </g>
  <g id="arrowRight" transform="rotate(90) translate(36 -43)">
    <use xlink:href="#rim"/>
    <path pointer-events="none" fill="none" stroke="white" stroke-width="1.5" d="M0,-3.0v7 M-2.5,-0.5L0,-3.0L2.5,-0.5"/>
  </g>
  <g id="arrowDown" transform="rotate(180) translate(-30 -48)">
    <use xlink:href="#rim"/>
    <path pointer-events="none" fill="none" stroke="white" stroke-width="1.5" d="M0,-3.0v7 M-2.5,-0.5L0,-3.0L2.5,-0.5"/>
  </g>
  <g id="arrowLeft" transform="rotate(270) translate(-36 17)">
    <use xlink:href="#rim"/>
    <path pointer-events="none" fill="none" stroke="white" stroke-width="1.5" d="M0,-3.0v7 M-2.5,-0.5L0,-3.0L2.5,-0.5"/>
  </g>
  <g id="resetDef">
    <use xlink:href="#rim2" fill="#404040"><set attributeName="fill" to="#808080" begin="reset.mouseover" end="reset.mouseout"/></use>
  </g>
</defs>
<script type="application/ecmascript">
var viewWidth = 1169;
var viewHeight = 148;
var sectionId = 'dynsection-1';
</script>
<script type="application/ecmascript" xlink:href="svg.min.js"/>
<svg id="graph" class="graph">
<g id="viewport">
<title>squid/src/icmp/Icmp.h</title>
<!-- Node1 -->
<g id="Node000001" class="node">
<title>Node1</title>
<g id="a_Node000001"><a xlink:title=" ">
<polygon fill="#999999" stroke="#666666" points="529.5,-140 406.5,-140 406.5,-121 529.5,-121 529.5,-140"/>
<text text-anchor="middle" x="468" y="-128" font-family="Helvetica,sans-Serif" font-size="10.00">squid/src/icmp/Icmp.h</text>
</a>
</g>
</g>
<!-- Node2 -->
<g id="Node000002" class="node">
<title>Node2</title>
<g id="a_Node000002"><a xlink:href="Icmp_8cc.html" target="_top" xlink:title=" ">
<polygon fill="white" stroke="#666666" points="147,-85 19,-85 19,-66 147,-66 147,-85"/>
<text text-anchor="middle" x="83" y="-73" font-family="Helvetica,sans-Serif" font-size="10.00">squid/src/icmp/Icmp.cc</text>
</a>
</g>
</g>
<!-- Node1&#45;&gt;Node2 -->
<g id="edge1_Node000001_Node000002" class="edge">
<title>Node1&#45;&gt;Node2</title>
<g id="a_edge1_Node000001_Node000002"><a xlink:title=" ">
<path fill="none" stroke="#63b8ff" d="M396.21,-119.62C323.93,-109.67 213.61,-94.48 145.02,-85.04"/>
<polygon fill="#63b8ff" stroke="#63b8ff" points="395.76,-123.09 406.14,-120.98 396.71,-116.15 395.76,-123.09"/>
</a>
</g>
</g>
<!-- Node3 -->
<g id="Node000003" class="node">
<title>Node3</title>
<g id="a_Node000003"><a xlink:href="Icmp4_8h.html" target="_top" xlink:title=" ">
<polygon fill="white" stroke="#666666" points="294.5,-85 165.5,-85 165.5,-66 294.5,-66 294.5,-85"/>
<text text-anchor="middle" x="230" y="-73" font-family="Helvetica,sans-Serif" font-size="10.00">squid/src/icmp/Icmp4.h</text>
</a>
</g>
</g>
<!-- Node1&#45;&gt;Node3 -->
<g id="edge2_Node000001_Node000003" class="edge">
<title>Node1&#45;&gt;Node3</title>
<g id="a_edge2_Node000001_Node000003"><a xlink:title=" ">
<path fill="none" stroke="#63b8ff" d="M419.74,-118.75C375.14,-108.82 309.74,-94.26 268.54,-85.08"/>
<polygon fill="#63b8ff" stroke="#63b8ff" points="419.24,-122.23 429.76,-120.98 420.76,-115.39 419.24,-122.23"/>
</a>
</g>
</g>
<!-- Node7 -->
<g id="Node000007" class="node">
<title>Node7</title>
<g id="a_Node000007"><a xlink:href="Icmp6_8h.html" target="_top" xlink:title=" ">
<polygon fill="white" stroke="#666666" points="612.5,-85 483.5,-85 483.5,-66 612.5,-66 612.5,-85"/>
<text text-anchor="middle" x="548" y="-73" font-family="Helvetica,sans-Serif" font-size="10.00">squid/src/icmp/Icmp6.h</text>
</a>
</g>
</g>
<!-- Node1&#45;&gt;Node7 -->
<g id="edge6_Node000001_Node000007" class="edge">
<title>Node1&#45;&gt;Node7</title>
<g id="a_edge6_Node000001_Node000007"><a xlink:title=" ">
<path fill="none" stroke="#63b8ff" d="M489.25,-115.42C503.76,-105.81 522.54,-93.37 534.91,-85.17"/>
<polygon fill="#63b8ff" stroke="#63b8ff" points="487.26,-112.54 480.85,-120.98 491.12,-118.38 487.26,-112.54"/>
</a>
</g>
</g>
<!-- Node9 -->
<g id="Node000009" class="node">
<title>Node9</title>
<g id="a_Node000009"><a xlink:href="IcmpPinger_8h.html" target="_top" xlink:title=" ">
<polygon fill="white" stroke="#666666" points="465.5,-85 312.5,-85 312.5,-66 465.5,-66 465.5,-85"/>
<text text-anchor="middle" x="389" y="-73" font-family="Helvetica,sans-Serif" font-size="10.00">squid/src/icmp/IcmpPinger.h</text>
</a>
</g>
</g>
<!-- Node1&#45;&gt;Node9 -->
<g id="edge10_Node000001_Node000009" class="edge">
<title>Node1&#45;&gt;Node9</title>
<g id="a_edge10_Node000001_Node000009"><a xlink:title=" ">
<path fill="none" stroke="#63b8ff" d="M446.61,-115.15C432.33,-105.57 414.03,-93.29 401.92,-85.17"/>
<polygon fill="#63b8ff" stroke="#63b8ff" points="445.05,-118.32 455.31,-120.98 448.95,-112.51 445.05,-118.32"/>
</a>
</g>
</g>
<!-- Node10 -->
<g id="Node000010" class="node">
<title>Node10</title>
<g id="a_Node000010"><a xlink:href="IcmpSquid_8h.html" target="_top" xlink:title=" ">
<polygon fill="white" stroke="#666666" points="859,-85 709,-85 709,-66 859,-66 859,-85"/>
<text text-anchor="middle" x="784" y="-73" font-family="Helvetica,sans-Serif" font-size="10.00">squid/src/icmp/IcmpSquid.h</text>
</a>
</g>
</g>
<!-- Node1&#45;&gt;Node10 -->
<g id="edge15_Node000001_Node000010" class="edge">
<title>Node1&#45;&gt;Node10</title>
<g id="a_edge15_Node000001_Node000010"><a xlink:title=" ">
<path fill="none" stroke="#63b8ff" d="M528.76,-119.31C588.1,-109.36 677.38,-94.38 733.09,-85.04"/>
<polygon fill="#63b8ff" stroke="#63b8ff" points="528.05,-115.88 518.77,-120.98 529.21,-122.78 528.05,-115.88"/>
</a>
</g>
</g>
<!-- Node15 -->
<g id="Node000015" class="node">
<title>Node15</title>
<g id="a_Node000015"><a xlink:href="testIcmp_8cc.html" target="_top" xlink:title=" ">
<polygon fill="white" stroke="#666666" points="1023,-85 877,-85 877,-66 1023,-66 1023,-85"/>
<text text-anchor="middle" x="950" y="-73" font-family="Helvetica,sans-Serif" font-size="10.00">squid/src/tests/testIcmp.cc</text>
</a>
</g>
</g>
<!-- Node1&#45;&gt;Node15 -->
<g id="edge20_Node000001_Node000015" class="edge">
<title>Node1&#45;&gt;Node15</title>
<g id="a_edge20_Node000001_Node000015"><a xlink:title=" ">
<path fill="none" stroke="#63b8ff" d="M539.71,-121.61C630.28,-111.66 785.28,-94.61 876.63,-84.57"/>
<polygon fill="#63b8ff" stroke="#63b8ff" points="539.09,-118.16 529.54,-122.73 539.86,-125.12 539.09,-118.16"/>
</a>
</g>
</g>
<!-- Node4 -->
<g id="Node000004" class="node">
<title>Node4</title>
<g id="a_Node000004"><a xlink:href="Icmp4_8cc.html" target="_top" xlink:title=" ">
<polygon fill="white" stroke="#666666" points="134,-24.5 0,-24.5 0,-5.5 134,-5.5 134,-24.5"/>
<text text-anchor="middle" x="67" y="-12.5" font-family="Helvetica,sans-Serif" font-size="10.00">squid/src/icmp/Icmp4.cc</text>
</a>
</g>
</g>
<!-- Node3&#45;&gt;Node4 -->
<g id="edge3_Node000003_Node000004" class="edge">
<title>Node3&#45;&gt;Node4</title>
<g id="a_edge3_Node000003_Node000004"><a xlink:title=" ">
<path fill="none" stroke="#63b8ff" d="M196.63,-62.52C165.12,-51.21 118.63,-34.53 90.73,-24.52"/>
<polygon fill="#63b8ff" stroke="#63b8ff" points="195.7,-65.91 206.3,-65.99 198.07,-59.32 195.7,-65.91"/>
</a>
</g>
</g>
<!-- Node5 -->
<g id="Node000005" class="node">
<title>Node5</title>
<g id="a_Node000005"><a xlink:href="IcmpPinger_8cc.html" target="_top" xlink:title=" ">
<polygon fill="white" stroke="#666666" points="310,-24.5 152,-24.5 152,-5.5 310,-5.5 310,-24.5"/>
<text text-anchor="middle" x="231" y="-12.5" font-family="Helvetica,sans-Serif" font-size="10.00">squid/src/icmp/IcmpPinger.cc</text>
</a>
</g>
</g>
<!-- Node3&#45;&gt;Node5 -->
<g id="edge4_Node000003_Node000005" class="edge">
<title>Node3&#45;&gt;Node5</title>
<g id="a_edge4_Node000003_Node000005"><a xlink:title=" ">
<path fill="none" stroke="#63b8ff" d="M230.32,-55.66C230.5,-45.24 230.71,-32.8 230.85,-24.67"/>
<polygon fill="#63b8ff" stroke="#63b8ff" points="226.82,-55.81 230.15,-65.87 233.82,-55.93 226.82,-55.81"/>
</a>
</g>
</g>
<!-- Node6 -->
<g id="Node000006" class="node">
<title>Node6</title>
<g id="a_Node000006"><a xlink:href="pinger_8cc.html" target="_top" xlink:title=" ">
<polygon fill="white" stroke="#666666" points="462,-24.5 328,-24.5 328,-5.5 462,-5.5 462,-24.5"/>
<text text-anchor="middle" x="395" y="-12.5" font-family="Helvetica,sans-Serif" font-size="10.00">squid/src/icmp/pinger.cc</text>
</a>
</g>
</g>
<!-- Node3&#45;&gt;Node6 -->
<g id="edge5_Node000003_Node000006" class="edge">
<title>Node3&#45;&gt;Node6</title>
<g id="a_edge5_Node000003_Node000006"><a xlink:title=" ">
<path fill="none" stroke="#63b8ff" d="M263.78,-62.52C295.68,-51.21 342.74,-34.53 370.98,-24.52"/>
<polygon fill="#63b8ff" stroke="#63b8ff" points="262.25,-59.35 253.99,-65.99 264.59,-65.95 262.25,-59.35"/>
</a>
</g>
</g>
<!-- Node7&#45;&gt;Node5 -->
<g id="edge8_Node000007_Node000005" class="edge">
<title>Node7&#45;&gt;Node5</title>
<g id="a_edge8_Node000007_Node000005"><a xlink:title=" ">
<path fill="none" stroke="#63b8ff" d="M492.04,-64.17C430.9,-52.89 334.11,-35.03 277.15,-24.52"/>
<polygon fill="#63b8ff" stroke="#63b8ff" points="491.44,-67.62 501.91,-65.99 492.71,-60.74 491.44,-67.62"/>
</a>
</g>
</g>
<!-- Node7&#45;&gt;Node6 -->
<g id="edge9_Node000007_Node000006" class="edge">
<title>Node7&#45;&gt;Node6</title>
<g id="a_edge9_Node000007_Node000006"><a xlink:title=" ">
<path fill="none" stroke="#63b8ff" d="M516.3,-62.38C486.72,-51.07 443.35,-34.49 417.27,-24.52"/>
<polygon fill="#63b8ff" stroke="#63b8ff" points="515.16,-65.69 525.75,-65.99 517.66,-59.15 515.16,-65.69"/>
</a>
</g>
</g>
<!-- Node8 -->
<g id="Node000008" class="node">
<title>Node8</title>
<g id="a_Node000008"><a xlink:href="Icmp6_8cc.html" target="_top" xlink:title=" ">
<polygon fill="white" stroke="#666666" points="614,-24.5 480,-24.5 480,-5.5 614,-5.5 614,-24.5"/>
<text text-anchor="middle" x="547" y="-12.5" font-family="Helvetica,sans-Serif" font-size="10.00">squid/src/icmp/Icmp6.cc</text>
</a>
</g>
</g>
<!-- Node7&#45;&gt;Node8 -->
<g id="edge7_Node000007_Node000008" class="edge">
<title>Node7&#45;&gt;Node8</title>
<g id="a_edge7_Node000007_Node000008"><a xlink:title=" ">
<path fill="none" stroke="#63b8ff" d="M547.68,-55.66C547.5,-45.24 547.29,-32.8 547.15,-24.67"/>
<polygon fill="#63b8ff" stroke="#63b8ff" points="544.18,-55.93 547.85,-65.87 551.18,-55.81 544.18,-55.93"/>
</a>
</g>
</g>
<!-- Node9&#45;&gt;Node4 -->
<g id="edge11_Node000009_Node000004" class="edge">
<title>Node9&#45;&gt;Node4</title>
<g id="a_edge11_Node000009_Node000004"><a xlink:title=" ">
<path fill="none" stroke="#63b8ff" d="M331.42,-64.14C281.56,-55.15 207.51,-41.78 143,-30 133.37,-28.24 123.05,-26.35 113.21,-24.54"/>
<polygon fill="#63b8ff" stroke="#63b8ff" points="330.91,-67.6 341.37,-65.93 332.15,-60.71 330.91,-67.6"/>
</a>
</g>
</g>
<!-- Node9&#45;&gt;Node5 -->
<g id="edge13_Node000009_Node000005" class="edge">
<title>Node9&#45;&gt;Node5</title>
<g id="a_edge13_Node000009_Node000005"><a xlink:title=" ">
<path fill="none" stroke="#63b8ff" d="M356.26,-62.38C325.72,-51.07 280.93,-34.49 254,-24.52"/>
<polygon fill="#63b8ff" stroke="#63b8ff" points="355.43,-65.8 366.03,-65.99 357.86,-59.24 355.43,-65.8"/>
</a>
</g>
</g>
<!-- Node9&#45;&gt;Node6 -->
<g id="edge14_Node000009_Node000006" class="edge">
<title>Node9&#45;&gt;Node6</title>
<g id="a_edge14_Node000009_Node000006"><a xlink:title=" ">
<path fill="none" stroke="#63b8ff" d="M390.93,-55.66C392,-45.24 393.28,-32.8 394.11,-24.67"/>
<polygon fill="#63b8ff" stroke="#63b8ff" points="387.42,-55.56 389.89,-65.87 394.39,-56.28 387.42,-55.56"/>
</a>
</g>
</g>
<!-- Node9&#45;&gt;Node8 -->
<g id="edge12_Node000009_Node000008" class="edge">
<title>Node9&#45;&gt;Node8</title>
<g id="a_edge12_Node000009_Node000008"><a xlink:title=" ">
<path fill="none" stroke="#63b8ff" d="M421.74,-62.38C452.28,-51.07 497.07,-34.49 524,-24.52"/>
<polygon fill="#63b8ff" stroke="#63b8ff" points="420.14,-59.24 411.97,-65.99 422.57,-65.8 420.14,-59.24"/>
</a>
</g>
</g>
<!-- Node11 -->
<g id="Node000011" class="node">
<title>Node11</title>
<g id="a_Node000011"><a xlink:href="IcmpSquid_8cc.html" target="_top" xlink:title=" ">
<polygon fill="white" stroke="#666666" points="787.5,-24.5 632.5,-24.5 632.5,-5.5 787.5,-5.5 787.5,-24.5"/>
<text text-anchor="middle" x="710" y="-12.5" font-family="Helvetica,sans-Serif" font-size="10.00">squid/src/icmp/IcmpSquid.cc</text>
</a>
</g>
</g>
<!-- Node10&#45;&gt;Node11 -->
<g id="edge16_Node000010_Node000011" class="edge">
<title>Node10&#45;&gt;Node11</title>
<g id="a_edge16_Node000010_Node000011"><a xlink:title=" ">
<path fill="none" stroke="#63b8ff" d="M765.07,-59.54C751.1,-48.49 732.57,-33.84 720.96,-24.67"/>
<polygon fill="#63b8ff" stroke="#63b8ff" points="763.07,-62.41 773.08,-65.87 767.41,-56.92 763.07,-62.41"/>
</a>
</g>
</g>
<!-- Node12 -->
<g id="Node000012" class="node">
<title>Node12</title>
<g id="a_Node000012"><a xlink:href="net__db_8cc.html" target="_top" xlink:title=" ">
<polygon fill="white" stroke="#666666" points="912,-30 806,-30 806,0 912,0 912,-30"/>
<text text-anchor="start" x="814" y="-18" font-family="Helvetica,sans-Serif" font-size="10.00">squid/src/icmp/net</text>
<text text-anchor="middle" x="859" y="-7" font-family="Helvetica,sans-Serif" font-size="10.00">_db.cc</text>
</a>
</g>
</g>
<!-- Node10&#45;&gt;Node12 -->
<g id="edge17_Node000010_Node000012" class="edge">
<title>Node10&#45;&gt;Node12</title>
<g id="a_edge17_Node000010_Node000012"><a xlink:title=" ">
<path fill="none" stroke="#63b8ff" d="M803.23,-59.5C814.83,-50.45 829.51,-39 840.9,-30.11"/>
<polygon fill="#63b8ff" stroke="#63b8ff" points="800.8,-56.96 795.07,-65.87 805.1,-62.48 800.8,-56.96"/>
</a>
</g>
</g>
<!-- Node13 -->
<g id="Node000013" class="node">
<title>Node13</title>
<g id="a_Node000013"><a xlink:href="main_8cc.html" target="_top" xlink:title=" ">
<polygon fill="white" stroke="#666666" points="1031.5,-24.5 930.5,-24.5 930.5,-5.5 1031.5,-5.5 1031.5,-24.5"/>
<text text-anchor="middle" x="981" y="-12.5" font-family="Helvetica,sans-Serif" font-size="10.00">squid/src/main.cc</text>
</a>
</g>
</g>
<!-- Node10&#45;&gt;Node13 -->
<g id="edge18_Node000010_Node000013" class="edge">
<title>Node10&#45;&gt;Node13</title>
<g id="a_edge18_Node000010_Node000013"><a xlink:title=" ">
<path fill="none" stroke="#63b8ff" d="M822.36,-63.11C860.47,-51.79 918.02,-34.7 952.32,-24.52"/>
<polygon fill="#63b8ff" stroke="#63b8ff" points="821.24,-59.79 812.65,-65.99 823.23,-66.5 821.24,-59.79"/>
</a>
</g>
</g>
<!-- Node14 -->
<g id="Node000014" class="node">
<title>Node14</title>
<g id="a_Node000014"><a xlink:href="stub__libicmp_8cc.html" target="_top" xlink:title=" ">
<polygon fill="white" stroke="#666666" points="1160.5,-30 1049.5,-30 1049.5,0 1160.5,0 1160.5,-30"/>
<text text-anchor="start" x="1057.5" y="-18" font-family="Helvetica,sans-Serif" font-size="10.00">squid/src/tests/stub</text>
<text text-anchor="middle" x="1105" y="-7" font-family="Helvetica,sans-Serif" font-size="10.00">_libicmp.cc</text>
</a>
</g>
</g>
<!-- Node10&#45;&gt;Node14 -->
<g id="edge19_Node000010_Node000014" class="edge">
<title>Node10&#45;&gt;Node14</title>
<g id="a_edge19_Node000010_Node000014"><a xlink:title=" ">
<path fill="none" stroke="#63b8ff" d="M847.38,-64.32C899.48,-55.76 975.18,-42.89 1041,-30 1043.68,-29.48 1046.42,-28.93 1049.18,-28.36"/>
<polygon fill="#63b8ff" stroke="#63b8ff" points="846.59,-60.9 837.28,-65.97 847.72,-67.81 846.59,-60.9"/>
</a>
</g>
</g>
</g>
</svg>

<g id="navigator" transform="translate(0 0)" fill="#404254">
  <rect fill="#f2f5e9" fill-opacity="0.5" stroke="#606060" stroke-width=".5" x="0" y="0" width="60" height="60"/>
  <use id="zoomplus" xlink:href="#zoomPlus" x="17" y="9" onmousedown="handleZoom(evt,'in')"/>
  <use id="zoomminus" xlink:href="#zoomMin" x="42" y="9" onmousedown="handleZoom(evt,'out')"/>
  <use id="reset" xlink:href="#resetDef" x="30" y="36" onmousedown="handleReset()"/>
   <use id="arrowup" xlink:href="#arrowUp" x="0" y="0" onmousedown="handlePan(0,-1)"/>
  <use id="arrowright" xlink:href="#arrowRight" x="0" y="0" onmousedown="handlePan(1,0)"/>
  <use id="arrowdown" xlink:href="#arrowDown" x="0" y="0" onmousedown="handlePan(0,1)"/>
  <use id="arrowleft" xlink:href="#arrowLeft" x="0" y="0" onmousedown="handlePan(-1,0)"/>
</g>
<svg viewBox="0 0 15 15" width="100%" height="30px" preserveAspectRatio="xMaxYMin meet">
 <g id="arrow_out" transform="scale(0.3 0.3)">
  <a xlink:href="Icmp_8h__dep__incl_org.svg" target="_base">
   <rect id="button" ry="5" rx="5" y="6" x="6" height="38" width="38"
        fill="#f2f5e9" fill-opacity="0.5" stroke="#606060" stroke-width="1.0"/>
   <path id="arrow"
     d="M 11.500037,31.436501 C 11.940474,20.09759 22.043105,11.32322 32.158766,21.979434 L 37.068811,17.246167 C 37.068811,17.246167 37.088388,32 37.088388,32 L 22.160133,31.978069 C 22.160133,31.978069 26.997745,27.140456 26.997745,27.140456 C 18.528582,18.264221 13.291696,25.230495 11.500037,31.436501 z"
     style="fill:#404040;"/>
  </a>
 </g>
</svg>

<style type='text/css'>
<![CDATA[
[data-mouse-over-selected='false'] { opacity: 0.7; }
[data-mouse-over-selected='true']  { opacity: 1.0; }
]]>
</style>
<script type="application/ecmascript"><![CDATA[
document.addEventListener('DOMContentLoaded', (event) => {
  highlightEdges();
  highlightAdjacentNodes();
});
]]></script>
</svg>
