<?xml version="1.0" encoding="UTF-8" standalone="no"?>
<!DOCTYPE svg PUBLIC "-//W3C//DTD SVG 1.1//EN"
 "http://www.w3.org/Graphics/SVG/1.1/DTD/svg11.dtd">
<!-- Generated by graphviz version 2.43.0 (0)
 -->
<!-- Title: squid/src/comm/Incoming.h Pages: 1 -->
<!--zoomable 203 -->

<svg id="main" version="1.1" xmlns="http://www.w3.org/2000/svg" xmlns:xlink="http://www.w3.org/1999/xlink" xml:space="preserve" onload="init(evt)">
<style type="text/css"><![CDATA[
.node, .edge {opacity: 0.7;}
.node.selected, .edge.selected {opacity: 1;}
.edge:hover path { stroke: red; }
.edge:hover polygon { stroke: red; fill: red; }
]]></style>

<defs>
  <circle id="rim" cx="0" cy="0" r="7"/>
  <circle id="rim2" cx="0" cy="0" r="3.5"/>
  <g id="zoomPlus">
    <use xlink:href="#rim" fill="#404040"><set attributeName="fill" to="#808080" begin="zoomplus.mouseover" end="zoomplus.mouseout"/></use>
    <path d="M-4,0h8M0,-4v8" fill="none" stroke="white" stroke-width="1.5" pointer-events="none"/>
  </g>
  <g id="zoomMin">
    <use xlink:href="#rim" fill="#404040"><set attributeName="fill" to="#808080" begin="zoomminus.mouseover" end="zoomminus.mouseout"/></use>
    <path d="M-4,0h8" fill="none" stroke="white" stroke-width="1.5" pointer-events="none"/>
  </g>
  <g id="arrowUp" transform="translate(30 24)">
    <use xlink:href="#rim"/>
    <path pointer-events="none" fill="none" stroke="white" stroke-width="1.5" d="M0,-3.0v7 M-2.5,-0.5L0,-3.0L2.5,-0.5"/>
  </g>
  <g id="arrowRight" transform="rotate(90) translate(36 -43)">
    <use xlink:href="#rim"/>
    <path pointer-events="none" fill="none" stroke="white" stroke-width="1.5" d="M0,-3.0v7 M-2.5,-0.5L0,-3.0L2.5,-0.5"/>
  </g>
  <g id="arrowDown" transform="rotate(180) translate(-30 -48)">
    <use xlink:href="#rim"/>
    <path pointer-events="none" fill="none" stroke="white" stroke-width="1.5" d="M0,-3.0v7 M-2.5,-0.5L0,-3.0L2.5,-0.5"/>
  </g>
  <g id="arrowLeft" transform="rotate(270) translate(-36 17)">
    <use xlink:href="#rim"/>
    <path pointer-events="none" fill="none" stroke="white" stroke-width="1.5" d="M0,-3.0v7 M-2.5,-0.5L0,-3.0L2.5,-0.5"/>
  </g>
  <g id="resetDef">
    <use xlink:href="#rim2" fill="#404040"><set attributeName="fill" to="#808080" begin="reset.mouseover" end="reset.mouseout"/></use>
  </g>
</defs>
<script type="application/ecmascript">
var viewWidth = 6884;
var viewHeight = 203;
var sectionId = 'dynsection-1';
</script>
<script type="application/ecmascript" xlink:href="svg.min.js"/>
<svg id="graph" class="graph">
<g id="viewport">
<title>squid/src/comm/Incoming.h</title>
<!-- Node1 -->
<g id="Node000001" class="node">
<title>Node1</title>
<g id="a_Node000001"><a xlink:title=" ">
<polygon fill="#999999" stroke="#666666" points="3759.5,-195 3608.5,-195 3608.5,-176 3759.5,-176 3759.5,-195"/>
<text text-anchor="middle" x="3684" y="-183" font-family="Helvetica,sans-Serif" font-size="10.00">squid/src/comm/Incoming.h</text>
</a>
</g>
</g>
<!-- Node2 -->
<g id="Node000002" class="node">
<title>Node2</title>
<g id="a_Node000002"><a xlink:href="StatCounters_8h.html" target="_top" xlink:title=" ">
<polygon fill="white" stroke="#666666" points="3670.5,-140 3535.5,-140 3535.5,-121 3670.5,-121 3670.5,-140"/>
<text text-anchor="middle" x="3603" y="-128" font-family="Helvetica,sans-Serif" font-size="10.00">squid/src/StatCounters.h</text>
</a>
</g>
</g>
<!-- Node1&#45;&gt;Node2 -->
<g id="edge1_Node000001_Node000002" class="edge">
<title>Node1&#45;&gt;Node2</title>
<g id="a_edge1_Node000001_Node000002"><a xlink:title=" ">
<path fill="none" stroke="#63b8ff" d="M3662.49,-170.42C3647.79,-160.81 3628.78,-148.37 3616.25,-140.17"/>
<polygon fill="#63b8ff" stroke="#63b8ff" points="3660.7,-173.44 3670.99,-175.98 3664.53,-167.58 3660.7,-173.44"/>
</a>
</g>
</g>
<!-- Node53 -->
<g id="Node000053" class="node">
<title>Node53</title>
<g id="a_Node000053"><a xlink:href="Incoming_8cc.html" target="_top" xlink:title=" ">
<polygon fill="white" stroke="#666666" points="3843.5,-140 3688.5,-140 3688.5,-121 3843.5,-121 3843.5,-140"/>
<text text-anchor="middle" x="3766" y="-128" font-family="Helvetica,sans-Serif" font-size="10.00">squid/src/comm/Incoming.cc</text>
</a>
</g>
</g>
<!-- Node1&#45;&gt;Node53 -->
<g id="edge50_Node000001_Node000053" class="edge">
<title>Node1&#45;&gt;Node53</title>
<g id="a_edge50_Node000001_Node000053"><a xlink:title=" ">
<path fill="none" stroke="#63b8ff" d="M3705.78,-170.42C3720.66,-160.81 3739.91,-148.37 3752.59,-140.17"/>
<polygon fill="#63b8ff" stroke="#63b8ff" points="3703.67,-167.62 3697.17,-175.98 3707.47,-173.5 3703.67,-167.62"/>
</a>
</g>
</g>
<!-- Node3 -->
<g id="Node000003" class="node">
<title>Node3</title>
<g id="a_Node000003"><a xlink:href="CacheDigest_8cc.html" target="_top" xlink:title=" ">
<polygon fill="white" stroke="#666666" points="138,-79.5 0,-79.5 0,-60.5 138,-60.5 138,-79.5"/>
<text text-anchor="middle" x="69" y="-67.5" font-family="Helvetica,sans-Serif" font-size="10.00">squid/src/CacheDigest.cc</text>
</a>
</g>
</g>
<!-- Node2&#45;&gt;Node3 -->
<g id="edge2_Node000002_Node000003" class="edge">
<title>Node2&#45;&gt;Node3</title>
<g id="a_edge2_Node000002_Node000003"><a xlink:title=" ">
<path fill="none" stroke="#63b8ff" d="M3525.02,-129.27C3044.34,-127.73 493.05,-118.06 147,-85 134.67,-83.82 121.37,-81.74 109.31,-79.54"/>
<polygon fill="#63b8ff" stroke="#63b8ff" points="3525.31,-132.77 3535.32,-129.3 3525.33,-125.77 3525.31,-132.77"/>
</a>
</g>
</g>
<!-- Node4 -->
<g id="Node000004" class="node">
<title>Node4</title>
<g id="a_Node000004"><a xlink:href="aio__win32_8cc.html" target="_top" xlink:title=" ">
<polygon fill="white" stroke="#666666" points="272,-85 156,-85 156,-55 272,-55 272,-85"/>
<text text-anchor="start" x="164" y="-73" font-family="Helvetica,sans-Serif" font-size="10.00">squid/src/DiskIO/AIO</text>
<text text-anchor="middle" x="214" y="-62" font-family="Helvetica,sans-Serif" font-size="10.00">/aio_win32.cc</text>
</a>
</g>
</g>
<!-- Node2&#45;&gt;Node4 -->
<g id="edge3_Node000002_Node000004" class="edge">
<title>Node2&#45;&gt;Node4</title>
<g id="a_edge3_Node000002_Node000004"><a xlink:title=" ">
<path fill="none" stroke="#63b8ff" d="M3525.41,-129.36C3056.72,-128.37 612.51,-121.51 281,-85 278.17,-84.69 275.27,-84.31 272.36,-83.88"/>
<polygon fill="#63b8ff" stroke="#63b8ff" points="3525.45,-132.86 3535.46,-129.38 3525.47,-125.86 3525.45,-132.86"/>
</a>
</g>
</g>
<!-- Node5 -->
<g id="Node000005" class="node">
<title>Node5</title>
<g id="a_Node000005"><a xlink:href="DiskdFile_8cc.html" target="_top" xlink:title=" ">
<polygon fill="white" stroke="#666666" points="451.5,-85 290.5,-85 290.5,-55 451.5,-55 451.5,-85"/>
<text text-anchor="start" x="298.5" y="-73" font-family="Helvetica,sans-Serif" font-size="10.00">squid/src/DiskIO/DiskDaemon</text>
<text text-anchor="middle" x="371" y="-62" font-family="Helvetica,sans-Serif" font-size="10.00">/DiskdFile.cc</text>
</a>
</g>
</g>
<!-- Node2&#45;&gt;Node5 -->
<g id="edge4_Node000002_Node000005" class="edge">
<title>Node2&#45;&gt;Node5</title>
<g id="a_edge4_Node000002_Node000005"><a xlink:title=" ">
<path fill="none" stroke="#63b8ff" d="M3525.31,-129.06C3071.54,-126.41 773.4,-111.73 460,-85 457.35,-84.77 454.66,-84.52 451.95,-84.23"/>
<polygon fill="#63b8ff" stroke="#63b8ff" points="3525.34,-132.56 3535.36,-129.12 3525.38,-125.56 3525.34,-132.56"/>
</a>
</g>
</g>
<!-- Node6 -->
<g id="Node000006" class="node">
<title>Node6</title>
<g id="a_Node000006"><a xlink:href="DiskdIOStrategy_8cc.html" target="_top" xlink:title=" ">
<polygon fill="white" stroke="#666666" points="630.5,-85 469.5,-85 469.5,-55 630.5,-55 630.5,-85"/>
<text text-anchor="start" x="477.5" y="-73" font-family="Helvetica,sans-Serif" font-size="10.00">squid/src/DiskIO/DiskDaemon</text>
<text text-anchor="middle" x="550" y="-62" font-family="Helvetica,sans-Serif" font-size="10.00">/DiskdIOStrategy.cc</text>
</a>
</g>
</g>
<!-- Node2&#45;&gt;Node6 -->
<g id="edge5_Node000002_Node000006" class="edge">
<title>Node2&#45;&gt;Node6</title>
<g id="a_edge5_Node000002_Node000006"><a xlink:title=" ">
<path fill="none" stroke="#63b8ff" d="M3525.21,-128.99C3086.78,-126.02 933.52,-110.25 639,-85 636.35,-84.77 633.66,-84.51 630.95,-84.23"/>
<polygon fill="#63b8ff" stroke="#63b8ff" points="3525.22,-132.49 3535.24,-129.06 3525.27,-125.49 3525.22,-132.49"/>
</a>
</g>
</g>
<!-- Node7 -->
<g id="Node000007" class="node">
<title>Node7</title>
<g id="a_Node000007"><a xlink:href="DiskThreadsDiskFile_8cc.html" target="_top" xlink:title=" ">
<polygon fill="white" stroke="#666666" points="807.5,-85 648.5,-85 648.5,-55 807.5,-55 807.5,-85"/>
<text text-anchor="start" x="656.5" y="-73" font-family="Helvetica,sans-Serif" font-size="10.00">squid/src/DiskIO/DiskThreads</text>
<text text-anchor="middle" x="728" y="-62" font-family="Helvetica,sans-Serif" font-size="10.00">/DiskThreadsDiskFile.cc</text>
</a>
</g>
</g>
<!-- Node2&#45;&gt;Node7 -->
<g id="edge6_Node000002_Node000007" class="edge">
<title>Node2&#45;&gt;Node7</title>
<g id="a_edge6_Node000002_Node000007"><a xlink:title=" ">
<path fill="none" stroke="#63b8ff" d="M3525.13,-129.75C3132.07,-130.78 1363.29,-132.66 816,-85 813.23,-84.76 810.41,-84.48 807.56,-84.18"/>
<polygon fill="#63b8ff" stroke="#63b8ff" points="3525.27,-133.25 3535.26,-129.72 3525.25,-126.25 3525.27,-133.25"/>
</a>
</g>
</g>
<!-- Node8 -->
<g id="Node000008" class="node">
<title>Node8</title>
<g id="a_Node000008"><a xlink:href="DiskThreadsIOStrategy_8cc.html" target="_top" xlink:title=" ">
<polygon fill="white" stroke="#666666" points="984.5,-85 825.5,-85 825.5,-55 984.5,-55 984.5,-85"/>
<text text-anchor="start" x="833.5" y="-73" font-family="Helvetica,sans-Serif" font-size="10.00">squid/src/DiskIO/DiskThreads</text>
<text text-anchor="middle" x="905" y="-62" font-family="Helvetica,sans-Serif" font-size="10.00">/DiskThreadsIOStrategy.cc</text>
</a>
</g>
</g>
<!-- Node2&#45;&gt;Node8 -->
<g id="edge7_Node000002_Node000008" class="edge">
<title>Node2&#45;&gt;Node8</title>
<g id="a_edge7_Node000002_Node000008"><a xlink:title=" ">
<path fill="none" stroke="#63b8ff" d="M3525.24,-129.63C3147.81,-130.05 1504.14,-129.26 994,-85 990.88,-84.73 987.71,-84.42 984.51,-84.07"/>
<polygon fill="#63b8ff" stroke="#63b8ff" points="3525.25,-133.13 3535.25,-129.62 3525.24,-126.13 3525.25,-133.13"/>
</a>
</g>
</g>
<!-- Node9 -->
<g id="Node000009" class="node">
<title>Node9</title>
<g id="a_Node000009"><a xlink:href="IpcIoFile_8cc.html" target="_top" xlink:title=" ">
<polygon fill="white" stroke="#666666" points="1125,-85 1003,-85 1003,-55 1125,-55 1125,-85"/>
<text text-anchor="start" x="1011" y="-73" font-family="Helvetica,sans-Serif" font-size="10.00">squid/src/DiskIO/IpcIo</text>
<text text-anchor="middle" x="1064" y="-62" font-family="Helvetica,sans-Serif" font-size="10.00">/IpcIoFile.cc</text>
</a>
</g>
</g>
<!-- Node2&#45;&gt;Node9 -->
<g id="edge8_Node000002_Node000009" class="edge">
<title>Node2&#45;&gt;Node9</title>
<g id="a_edge8_Node000002_Node000009"><a xlink:title=" ">
<path fill="none" stroke="#63b8ff" d="M3525.34,-128.93C3132.78,-125.94 1376.07,-111.17 1134,-85 1131.17,-84.69 1128.28,-84.33 1125.36,-83.92"/>
<polygon fill="#63b8ff" stroke="#63b8ff" points="3525.43,-132.43 3535.46,-129.01 3525.48,-125.43 3525.43,-132.43"/>
</a>
</g>
</g>
<!-- Node10 -->
<g id="Node000010" class="node">
<title>Node10</title>
<g id="a_Node000010"><a xlink:href="PeerDigest_8h.html" target="_top" xlink:title=" ">
<polygon fill="#fff0f0" stroke="red" points="1268.5,-79.5 1143.5,-79.5 1143.5,-60.5 1268.5,-60.5 1268.5,-79.5"/>
<text text-anchor="middle" x="1206" y="-67.5" font-family="Helvetica,sans-Serif" font-size="10.00">squid/src/PeerDigest.h</text>
</a>
</g>
</g>
<!-- Node2&#45;&gt;Node10 -->
<g id="edge9_Node000002_Node000010" class="edge">
<title>Node2&#45;&gt;Node10</title>
<g id="a_edge9_Node000002_Node000010"><a xlink:title=" ">
<path fill="none" stroke="#63b8ff" d="M3525.42,-129.69C3174.4,-130.28 1732.42,-129.87 1283,-85 1270.97,-83.8 1257.99,-81.74 1246.19,-79.57"/>
<polygon fill="#63b8ff" stroke="#63b8ff" points="3525.49,-133.19 3535.49,-129.67 3525.48,-126.19 3525.49,-133.19"/>
</a>
</g>
</g>
<!-- Node15 -->
<g id="Node000015" class="node">
<title>Node15</title>
<g id="a_Node000015"><a xlink:href="stat_8cc.html" target="_top" xlink:title=" ">
<polygon fill="white" stroke="#666666" points="1361.5,-19 1266.5,-19 1266.5,0 1361.5,0 1361.5,-19"/>
<text text-anchor="middle" x="1314" y="-7" font-family="Helvetica,sans-Serif" font-size="10.00">squid/src/stat.cc</text>
</a>
</g>
</g>
<!-- Node2&#45;&gt;Node15 -->
<g id="edge42_Node000002_Node000015" class="edge">
<title>Node2&#45;&gt;Node15</title>
<g id="a_edge42_Node000002_Node000015"><a xlink:title=" ">
<path fill="none" stroke="#63b8ff" d="M3525.03,-129.45C3128.85,-129 1356.05,-124.76 1316,-85 1298.46,-67.59 1305.98,-34.69 1310.93,-19.1"/>
<polygon fill="#63b8ff" stroke="#63b8ff" points="3525.24,-132.95 3535.24,-129.46 3525.25,-125.95 3525.24,-132.95"/>
</a>
</g>
</g>
<!-- Node17 -->
<g id="Node000017" class="node">
<title>Node17</title>
<g id="a_Node000017"><a xlink:href="StatCounters_8cc.html" target="_top" xlink:title=" ">
<polygon fill="white" stroke="#666666" points="1465,-79.5 1325,-79.5 1325,-60.5 1465,-60.5 1465,-79.5"/>
<text text-anchor="middle" x="1395" y="-67.5" font-family="Helvetica,sans-Serif" font-size="10.00">squid/src/StatCounters.cc</text>
</a>
</g>
</g>
<!-- Node2&#45;&gt;Node17 -->
<g id="edge13_Node000002_Node000017" class="edge">
<title>Node2&#45;&gt;Node17</title>
<g id="a_edge13_Node000002_Node000017"><a xlink:title=" ">
<path fill="none" stroke="#63b8ff" d="M3525.38,-129.46C3192.58,-129.05 1884.63,-124.89 1475,-85 1462.51,-83.78 1449.04,-81.72 1436.77,-79.55"/>
<polygon fill="#63b8ff" stroke="#63b8ff" points="3525.41,-132.96 3535.41,-129.47 3525.41,-125.96 3525.41,-132.96"/>
</a>
</g>
</g>
<!-- Node18 -->
<g id="Node000018" class="node">
<title>Node18</title>
<g id="a_Node000018"><a xlink:href="client__db_8cc.html" target="_top" xlink:title=" ">
<polygon fill="white" stroke="#666666" points="1604.5,-79.5 1483.5,-79.5 1483.5,-60.5 1604.5,-60.5 1604.5,-79.5"/>
<text text-anchor="middle" x="1544" y="-67.5" font-family="Helvetica,sans-Serif" font-size="10.00">squid/src/client_db.cc</text>
</a>
</g>
</g>
<!-- Node2&#45;&gt;Node18 -->
<g id="edge14_Node000002_Node000018" class="edge">
<title>Node2&#45;&gt;Node18</title>
<g id="a_edge14_Node000002_Node000018"><a xlink:title=" ">
<path fill="none" stroke="#63b8ff" d="M3525.22,-129.58C3205.86,-129.62 1994.28,-126.95 1614,-85 1603.04,-83.79 1591.24,-81.73 1580.5,-79.56"/>
<polygon fill="#63b8ff" stroke="#63b8ff" points="3525.31,-133.08 3535.31,-129.58 3525.3,-126.08 3525.31,-133.08"/>
</a>
</g>
</g>
<!-- Node19 -->
<g id="Node000019" class="node">
<title>Node19</title>
<g id="a_Node000019"><a xlink:href="client__side_8cc.html" target="_top" xlink:title=" ">
<polygon fill="white" stroke="#666666" points="1751.5,-79.5 1622.5,-79.5 1622.5,-60.5 1751.5,-60.5 1751.5,-79.5"/>
<text text-anchor="middle" x="1687" y="-67.5" font-family="Helvetica,sans-Serif" font-size="10.00">squid/src/client_side.cc</text>
</a>
</g>
</g>
<!-- Node2&#45;&gt;Node19 -->
<g id="edge15_Node000002_Node000019" class="edge">
<title>Node2&#45;&gt;Node19</title>
<g id="a_edge15_Node000002_Node000019"><a xlink:title=" ">
<path fill="none" stroke="#63b8ff" d="M3525.24,-129.31C3221.04,-128.3 2111.11,-122.1 1761,-85 1749.43,-83.77 1736.96,-81.71 1725.61,-79.53"/>
<polygon fill="#63b8ff" stroke="#63b8ff" points="3525.28,-132.81 3535.29,-129.34 3525.31,-125.81 3525.28,-132.81"/>
</a>
</g>
</g>
<!-- Node20 -->
<g id="Node000020" class="node">
<title>Node20</title>
<g id="a_Node000020"><a xlink:href="clients_2Client_8cc.html" target="_top" xlink:title=" ">
<polygon fill="white" stroke="#666666" points="1910,-79.5 1770,-79.5 1770,-60.5 1910,-60.5 1910,-79.5"/>
<text text-anchor="middle" x="1840" y="-67.5" font-family="Helvetica,sans-Serif" font-size="10.00">squid/src/clients/Client.cc</text>
</a>
</g>
</g>
<!-- Node2&#45;&gt;Node20 -->
<g id="edge16_Node000002_Node000020" class="edge">
<title>Node2&#45;&gt;Node20</title>
<g id="a_edge16_Node000002_Node000020"><a xlink:title=" ">
<path fill="none" stroke="#63b8ff" d="M3524.87,-128.98C3237.09,-126.83 2236.6,-117.16 1919,-85 1906.67,-83.75 1893.36,-81.68 1881.25,-79.51"/>
<polygon fill="#63b8ff" stroke="#63b8ff" points="3525.18,-132.48 3535.21,-129.06 3525.23,-125.48 3525.18,-132.48"/>
</a>
</g>
</g>
<!-- Node21 -->
<g id="Node000021" class="node">
<title>Node21</title>
<g id="a_Node000021"><a xlink:href="FtpClient_8cc.html" target="_top" xlink:title=" ">
<polygon fill="white" stroke="#666666" points="2084,-79.5 1928,-79.5 1928,-60.5 2084,-60.5 2084,-79.5"/>
<text text-anchor="middle" x="2006" y="-67.5" font-family="Helvetica,sans-Serif" font-size="10.00">squid/src/clients/FtpClient.cc</text>
</a>
</g>
</g>
<!-- Node2&#45;&gt;Node21 -->
<g id="edge17_Node000002_Node000021" class="edge">
<title>Node2&#45;&gt;Node21</title>
<g id="a_edge17_Node000002_Node000021"><a xlink:title=" ">
<path fill="none" stroke="#63b8ff" d="M3525.4,-128.55C3257.9,-125.06 2375.27,-111.76 2093,-85 2079.6,-83.73 2065.13,-81.68 2051.91,-79.53"/>
<polygon fill="#63b8ff" stroke="#63b8ff" points="3525.36,-132.05 3535.41,-128.68 3525.45,-125.05 3525.36,-132.05"/>
</a>
</g>
</g>
<!-- Node22 -->
<g id="Node000022" class="node">
<title>Node22</title>
<g id="a_Node000022"><a xlink:href="FtpGateway_8cc.html" target="_top" xlink:title=" ">
<polygon fill="white" stroke="#666666" points="2272,-79.5 2102,-79.5 2102,-60.5 2272,-60.5 2272,-79.5"/>
<text text-anchor="middle" x="2187" y="-67.5" font-family="Helvetica,sans-Serif" font-size="10.00">squid/src/clients/FtpGateway.cc</text>
</a>
</g>
</g>
<!-- Node2&#45;&gt;Node22 -->
<g id="edge18_Node000002_Node000022" class="edge">
<title>Node2&#45;&gt;Node22</title>
<g id="a_edge18_Node000002_Node000022"><a xlink:title=" ">
<path fill="none" stroke="#63b8ff" d="M3525.45,-129.93C3321.4,-130.41 2752.85,-127.49 2282,-85 2267.55,-83.7 2251.96,-81.66 2237.66,-79.54"/>
<polygon fill="#63b8ff" stroke="#63b8ff" points="3525.48,-133.43 3535.47,-129.91 3525.46,-126.43 3525.48,-133.43"/>
</a>
</g>
</g>
<!-- Node23 -->
<g id="Node000023" class="node">
<title>Node23</title>
<g id="a_Node000023"><a xlink:href="HttpTunneler_8cc.html" target="_top" xlink:title=" ">
<polygon fill="white" stroke="#666666" points="2463.5,-79.5 2290.5,-79.5 2290.5,-60.5 2463.5,-60.5 2463.5,-79.5"/>
<text text-anchor="middle" x="2377" y="-67.5" font-family="Helvetica,sans-Serif" font-size="10.00">squid/src/clients/HttpTunneler.cc</text>
</a>
</g>
</g>
<!-- Node2&#45;&gt;Node23 -->
<g id="edge19_Node000002_Node000023" class="edge">
<title>Node2&#45;&gt;Node23</title>
<g id="a_edge19_Node000002_Node000023"><a xlink:title=" ">
<path fill="none" stroke="#63b8ff" d="M3525.24,-129.26C3341.69,-128.07 2867.3,-121.41 2473,-85 2458.58,-83.67 2443.01,-81.65 2428.7,-79.56"/>
<polygon fill="#63b8ff" stroke="#63b8ff" points="3525.31,-132.76 3535.33,-129.32 3525.35,-125.76 3525.31,-132.76"/>
</a>
</g>
</g>
<!-- Node24 -->
<g id="Node000024" class="node">
<title>Node24</title>
<g id="a_Node000024"><a xlink:href="WhoisGateway_8cc.html" target="_top" xlink:title=" ">
<polygon fill="white" stroke="#666666" points="2666,-79.5 2482,-79.5 2482,-60.5 2666,-60.5 2666,-79.5"/>
<text text-anchor="middle" x="2574" y="-67.5" font-family="Helvetica,sans-Serif" font-size="10.00">squid/src/clients/WhoisGateway.cc</text>
</a>
</g>
</g>
<!-- Node2&#45;&gt;Node24 -->
<g id="edge20_Node000002_Node000024" class="edge">
<title>Node2&#45;&gt;Node24</title>
<g id="a_edge20_Node000002_Node000024"><a xlink:title=" ">
<path fill="none" stroke="#63b8ff" d="M3525.2,-128.09C3365.65,-124.68 2989.98,-114.03 2676,-85 2660.87,-83.6 2644.54,-81.59 2629.48,-79.52"/>
<polygon fill="#63b8ff" stroke="#63b8ff" points="3525.32,-131.59 3535.4,-128.3 3525.47,-124.59 3525.32,-131.59"/>
</a>
</g>
</g>
<!-- Node25 -->
<g id="Node000025" class="node">
<title>Node25</title>
<g id="a_Node000025"><a xlink:href="comm_8cc.html" target="_top" xlink:title=" ">
<polygon fill="white" stroke="#666666" points="2791.5,-79.5 2684.5,-79.5 2684.5,-60.5 2791.5,-60.5 2791.5,-79.5"/>
<text text-anchor="middle" x="2738" y="-67.5" font-family="Helvetica,sans-Serif" font-size="10.00">squid/src/comm.cc</text>
</a>
</g>
</g>
<!-- Node2&#45;&gt;Node25 -->
<g id="edge21_Node000002_Node000025" class="edge">
<title>Node2&#45;&gt;Node25</title>
<g id="a_edge21_Node000002_Node000025"><a xlink:title=" ">
<path fill="none" stroke="#63b8ff" d="M3525.27,-129.39C3381.56,-128.25 3064.91,-121.4 2801,-85 2791.34,-83.67 2780.97,-81.62 2771.49,-79.51"/>
<polygon fill="#63b8ff" stroke="#63b8ff" points="3525.29,-132.89 3535.31,-129.46 3525.34,-125.89 3525.29,-132.89"/>
</a>
</g>
</g>
<!-- Node26 -->
<g id="Node000026" class="node">
<title>Node26</title>
<g id="a_Node000026"><a xlink:href="ModDevPoll_8cc.html" target="_top" xlink:title=" ">
<polygon fill="white" stroke="#666666" points="2978.5,-79.5 2809.5,-79.5 2809.5,-60.5 2978.5,-60.5 2978.5,-79.5"/>
<text text-anchor="middle" x="2894" y="-67.5" font-family="Helvetica,sans-Serif" font-size="10.00">squid/src/comm/ModDevPoll.cc</text>
</a>
</g>
</g>
<!-- Node2&#45;&gt;Node26 -->
<g id="edge22_Node000002_Node000026" class="edge">
<title>Node2&#45;&gt;Node26</title>
<g id="a_edge22_Node000002_Node000026"><a xlink:title=" ">
<path fill="none" stroke="#63b8ff" d="M3524.76,-125.74C3407.76,-119.68 3180.37,-106.25 2988,-85 2974.55,-83.51 2960.08,-81.54 2946.61,-79.55"/>
<polygon fill="#63b8ff" stroke="#63b8ff" points="3524.88,-129.25 3535.05,-126.27 3525.24,-122.26 3524.88,-129.25"/>
</a>
</g>
</g>
<!-- Node27 -->
<g id="Node000027" class="node">
<title>Node27</title>
<g id="a_Node000027"><a xlink:href="ModEpoll_8cc.html" target="_top" xlink:title=" ">
<polygon fill="white" stroke="#666666" points="3151.5,-79.5 2996.5,-79.5 2996.5,-60.5 3151.5,-60.5 3151.5,-79.5"/>
<text text-anchor="middle" x="3074" y="-67.5" font-family="Helvetica,sans-Serif" font-size="10.00">squid/src/comm/ModEpoll.cc</text>
</a>
</g>
</g>
<!-- Node2&#45;&gt;Node27 -->
<g id="edge23_Node000002_Node000027" class="edge">
<title>Node2&#45;&gt;Node27</title>
<g id="a_edge23_Node000002_Node000027"><a xlink:title=" ">
<path fill="none" stroke="#63b8ff" d="M3525.25,-123.08C3436.84,-115.44 3288.26,-101.63 3161,-85 3148.86,-83.41 3135.82,-81.45 3123.61,-79.5"/>
<polygon fill="#63b8ff" stroke="#63b8ff" points="3525.2,-126.58 3535.46,-123.95 3525.8,-119.61 3525.2,-126.58"/>
</a>
</g>
</g>
<!-- Node28 -->
<g id="Node000028" class="node">
<title>Node28</title>
<g id="a_Node000028"><a xlink:href="ModKqueue_8cc.html" target="_top" xlink:title=" ">
<polygon fill="white" stroke="#666666" points="3338,-79.5 3170,-79.5 3170,-60.5 3338,-60.5 3338,-79.5"/>
<text text-anchor="middle" x="3254" y="-67.5" font-family="Helvetica,sans-Serif" font-size="10.00">squid/src/comm/ModKqueue.cc</text>
</a>
</g>
</g>
<!-- Node2&#45;&gt;Node28 -->
<g id="edge24_Node000002_Node000028" class="edge">
<title>Node2&#45;&gt;Node28</title>
<g id="a_edge24_Node000002_Node000028"><a xlink:title=" ">
<path fill="none" stroke="#63b8ff" d="M3542.22,-119.31C3474.96,-108.04 3367.77,-90.07 3304.81,-79.52"/>
<polygon fill="#63b8ff" stroke="#63b8ff" points="3541.81,-122.79 3552.25,-120.99 3542.97,-115.89 3541.81,-122.79"/>
</a>
</g>
</g>
<!-- Node29 -->
<g id="Node000029" class="node">
<title>Node29</title>
<g id="a_Node000029"><a xlink:href="ModPoll_8cc.html" target="_top" xlink:title=" ">
<polygon fill="white" stroke="#666666" points="3504.5,-79.5 3355.5,-79.5 3355.5,-60.5 3504.5,-60.5 3504.5,-79.5"/>
<text text-anchor="middle" x="3430" y="-67.5" font-family="Helvetica,sans-Serif" font-size="10.00">squid/src/comm/ModPoll.cc</text>
</a>
</g>
</g>
<!-- Node2&#45;&gt;Node29 -->
<g id="edge25_Node000002_Node000029" class="edge">
<title>Node2&#45;&gt;Node29</title>
<g id="a_edge25_Node000002_Node000029"><a xlink:title=" ">
<path fill="none" stroke="#63b8ff" d="M3568.02,-117.67C3534.56,-106.36 3484.92,-89.57 3455.19,-79.52"/>
<polygon fill="#63b8ff" stroke="#63b8ff" points="3567.25,-121.11 3577.84,-120.99 3569.49,-114.47 3567.25,-121.11"/>
</a>
</g>
</g>
<!-- Node30 -->
<g id="Node000030" class="node">
<title>Node30</title>
<g id="a_Node000030"><a xlink:href="ModSelect_8cc.html" target="_top" xlink:title=" ">
<polygon fill="white" stroke="#666666" points="3683.5,-79.5 3522.5,-79.5 3522.5,-60.5 3683.5,-60.5 3683.5,-79.5"/>
<text text-anchor="middle" x="3603" y="-67.5" font-family="Helvetica,sans-Serif" font-size="10.00">squid/src/comm/ModSelect.cc</text>
</a>
</g>
</g>
<!-- Node2&#45;&gt;Node30 -->
<g id="edge26_Node000002_Node000030" class="edge">
<title>Node2&#45;&gt;Node30</title>
<g id="a_edge26_Node000002_Node000030"><a xlink:title=" ">
<path fill="none" stroke="#63b8ff" d="M3603,-110.66C3603,-100.24 3603,-87.8 3603,-79.67"/>
<polygon fill="#63b8ff" stroke="#63b8ff" points="3599.5,-110.87 3603,-120.87 3606.5,-110.87 3599.5,-110.87"/>
</a>
</g>
</g>
<!-- Node31 -->
<g id="Node000031" class="node">
<title>Node31</title>
<g id="a_Node000031"><a xlink:href="Read_8cc.html" target="_top" xlink:title=" ">
<polygon fill="white" stroke="#666666" points="3836.5,-79.5 3701.5,-79.5 3701.5,-60.5 3836.5,-60.5 3836.5,-79.5"/>
<text text-anchor="middle" x="3769" y="-67.5" font-family="Helvetica,sans-Serif" font-size="10.00">squid/src/comm/Read.cc</text>
</a>
</g>
</g>
<!-- Node2&#45;&gt;Node31 -->
<g id="edge27_Node000002_Node000031" class="edge">
<title>Node2&#45;&gt;Node31</title>
<g id="a_edge27_Node000002_Node000031"><a xlink:title=" ">
<path fill="none" stroke="#63b8ff" d="M3636.98,-117.52C3669.08,-106.21 3716.42,-89.53 3744.83,-79.52"/>
<polygon fill="#63b8ff" stroke="#63b8ff" points="3635.41,-114.37 3627.14,-120.99 3637.73,-120.97 3635.41,-114.37"/>
</a>
</g>
</g>
<!-- Node32 -->
<g id="Node000032" class="node">
<title>Node32</title>
<g id="a_Node000032"><a xlink:href="TcpAcceptor_8cc.html" target="_top" xlink:title=" ">
<polygon fill="white" stroke="#666666" points="4023,-79.5 3855,-79.5 3855,-60.5 4023,-60.5 4023,-79.5"/>
<text text-anchor="middle" x="3939" y="-67.5" font-family="Helvetica,sans-Serif" font-size="10.00">squid/src/comm/TcpAcceptor.cc</text>
</a>
</g>
</g>
<!-- Node2&#45;&gt;Node32 -->
<g id="edge28_Node000002_Node000032" class="edge">
<title>Node2&#45;&gt;Node32</title>
<g id="a_edge28_Node000002_Node000032"><a xlink:title=" ">
<path fill="none" stroke="#63b8ff" d="M3661.91,-119.24C3726.69,-107.96 3829.59,-90.05 3890.08,-79.52"/>
<polygon fill="#63b8ff" stroke="#63b8ff" points="3661.11,-115.83 3651.86,-120.99 3662.31,-122.73 3661.11,-115.83"/>
</a>
</g>
</g>
<!-- Node33 -->
<g id="Node000033" class="node">
<title>Node33</title>
<g id="a_Node000033"><a xlink:href="Write_8cc.html" target="_top" xlink:title=" ">
<polygon fill="white" stroke="#666666" points="4178.5,-79.5 4041.5,-79.5 4041.5,-60.5 4178.5,-60.5 4178.5,-79.5"/>
<text text-anchor="middle" x="4110" y="-67.5" font-family="Helvetica,sans-Serif" font-size="10.00">squid/src/comm/Write.cc</text>
</a>
</g>
</g>
<!-- Node2&#45;&gt;Node33 -->
<g id="edge29_Node000002_Node000033" class="edge">
<title>Node2&#45;&gt;Node33</title>
<g id="a_edge29_Node000002_Node000033"><a xlink:title=" ">
<path fill="none" stroke="#63b8ff" d="M3680.65,-120.95C3838.06,-104.47 3879.47,-106.46 4032,-85 4043.04,-83.45 4054.9,-81.48 4065.96,-79.51"/>
<polygon fill="#63b8ff" stroke="#63b8ff" points="3680.18,-117.48 3670.6,-122.01 3680.91,-124.44 3680.18,-117.48"/>
</a>
</g>
</g>
<!-- Node34 -->
<g id="Node000034" class="node">
<title>Node34</title>
<g id="a_Node000034"><a xlink:href="fqdncache_8cc.html" target="_top" xlink:title=" ">
<polygon fill="white" stroke="#666666" points="4323.5,-79.5 4196.5,-79.5 4196.5,-60.5 4323.5,-60.5 4323.5,-79.5"/>
<text text-anchor="middle" x="4260" y="-67.5" font-family="Helvetica,sans-Serif" font-size="10.00">squid/src/fqdncache.cc</text>
</a>
</g>
</g>
<!-- Node2&#45;&gt;Node34 -->
<g id="edge30_Node000002_Node000034" class="edge">
<title>Node2&#45;&gt;Node34</title>
<g id="a_edge30_Node000002_Node000034"><a xlink:title=" ">
<path fill="none" stroke="#63b8ff" d="M3680.8,-120.97C3907.16,-100.98 3966.89,-114.22 4188,-85 4198.6,-83.6 4210,-81.61 4220.53,-79.57"/>
<polygon fill="#63b8ff" stroke="#63b8ff" points="3680.24,-117.51 3670.59,-121.89 3680.86,-124.48 3680.24,-117.51"/>
</a>
</g>
</g>
<!-- Node35 -->
<g id="Node000035" class="node">
<title>Node35</title>
<g id="a_Node000035"><a xlink:href="UFSSwapDir_8cc.html" target="_top" xlink:title=" ">
<polygon fill="white" stroke="#666666" points="4480,-85 4342,-85 4342,-55 4480,-55 4480,-85"/>
<text text-anchor="start" x="4350" y="-73" font-family="Helvetica,sans-Serif" font-size="10.00">squid/src/fs/ufs/UFSSwap</text>
<text text-anchor="middle" x="4411" y="-62" font-family="Helvetica,sans-Serif" font-size="10.00">Dir.cc</text>
</a>
</g>
</g>
<!-- Node2&#45;&gt;Node35 -->
<g id="edge31_Node000002_Node000035" class="edge">
<title>Node2&#45;&gt;Node35</title>
<g id="a_edge31_Node000002_Node000035"><a xlink:title=" ">
<path fill="none" stroke="#63b8ff" d="M3680.58,-121.01C3971.38,-97.53 4047.54,-118.36 4333,-85 4335.87,-84.66 4338.79,-84.29 4341.74,-83.89"/>
<polygon fill="#63b8ff" stroke="#63b8ff" points="3680.27,-117.52 3670.59,-121.83 3680.84,-124.5 3680.27,-117.52"/>
</a>
</g>
</g>
<!-- Node36 -->
<g id="Node000036" class="node">
<title>Node36</title>
<g id="a_Node000036"><a xlink:href="fs__io_8cc.html" target="_top" xlink:title=" ">
<polygon fill="white" stroke="#666666" points="4598,-79.5 4498,-79.5 4498,-60.5 4598,-60.5 4598,-79.5"/>
<text text-anchor="middle" x="4548" y="-67.5" font-family="Helvetica,sans-Serif" font-size="10.00">squid/src/fs_io.cc</text>
</a>
</g>
</g>
<!-- Node2&#45;&gt;Node36 -->
<g id="edge32_Node000002_Node000036" class="edge">
<title>Node2&#45;&gt;Node36</title>
<g id="a_edge32_Node000002_Node000036"><a xlink:title=" ">
<path fill="none" stroke="#63b8ff" d="M3680.76,-121.01C4040.6,-94 4135.85,-134.31 4489,-85 4498.18,-83.72 4508.01,-81.66 4516.98,-79.52"/>
<polygon fill="#63b8ff" stroke="#63b8ff" points="3680.29,-117.54 3670.58,-121.79 3680.82,-124.52 3680.29,-117.54"/>
</a>
</g>
</g>
<!-- Node37 -->
<g id="Node000037" class="node">
<title>Node37</title>
<g id="a_Node000037"><a xlink:href="htcp_8cc.html" target="_top" xlink:title=" ">
<polygon fill="white" stroke="#666666" points="4714,-79.5 4616,-79.5 4616,-60.5 4714,-60.5 4714,-79.5"/>
<text text-anchor="middle" x="4665" y="-67.5" font-family="Helvetica,sans-Serif" font-size="10.00">squid/src/htcp.cc</text>
</a>
</g>
</g>
<!-- Node2&#45;&gt;Node37 -->
<g id="edge33_Node000002_Node000037" class="edge">
<title>Node2&#45;&gt;Node37</title>
<g id="a_edge33_Node000002_Node000037"><a xlink:title=" ">
<path fill="none" stroke="#63b8ff" d="M3680.69,-121.02C4092.92,-91.18 4201.89,-141.19 4607,-85 4616.03,-83.75 4625.7,-81.7 4634.51,-79.56"/>
<polygon fill="#63b8ff" stroke="#63b8ff" points="3680.3,-117.54 3670.58,-121.76 3680.81,-124.52 3680.3,-117.54"/>
</a>
</g>
</g>
<!-- Node38 -->
<g id="Node000038" class="node">
<title>Node38</title>
<g id="a_Node000038"><a xlink:href="http_8cc.html" target="_top" xlink:title=" ">
<polygon fill="white" stroke="#666666" points="4828,-79.5 4732,-79.5 4732,-60.5 4828,-60.5 4828,-79.5"/>
<text text-anchor="middle" x="4780" y="-67.5" font-family="Helvetica,sans-Serif" font-size="10.00">squid/src/http.cc</text>
</a>
</g>
</g>
<!-- Node2&#45;&gt;Node38 -->
<g id="edge34_Node000002_Node000038" class="edge">
<title>Node2&#45;&gt;Node38</title>
<g id="a_edge34_Node000002_Node000038"><a xlink:title=" ">
<path fill="none" stroke="#63b8ff" d="M3680.9,-121.01C4144.41,-88.42 4266.92,-148.19 4723,-85 4731.98,-83.76 4741.61,-81.68 4750.35,-79.51"/>
<polygon fill="#63b8ff" stroke="#63b8ff" points="3680.3,-117.54 3670.58,-121.75 3680.8,-124.53 3680.3,-117.54"/>
</a>
</g>
</g>
<!-- Node39 -->
<g id="Node000039" class="node">
<title>Node39</title>
<g id="a_Node000039"><a xlink:href="icp__v2_8cc.html" target="_top" xlink:title=" ">
<polygon fill="white" stroke="#666666" points="4954,-79.5 4846,-79.5 4846,-60.5 4954,-60.5 4954,-79.5"/>
<text text-anchor="middle" x="4900" y="-67.5" font-family="Helvetica,sans-Serif" font-size="10.00">squid/src/icp_v2.cc</text>
</a>
</g>
</g>
<!-- Node2&#45;&gt;Node39 -->
<g id="edge35_Node000002_Node000039" class="edge">
<title>Node2&#45;&gt;Node39</title>
<g id="a_edge35_Node000002_Node000039"><a xlink:title=" ">
<path fill="none" stroke="#63b8ff" d="M3680.86,-121.02C4194.97,-85.59 4329.9,-148.66 4837,-85 4846.89,-83.76 4857.52,-81.69 4867.18,-79.51"/>
<polygon fill="#63b8ff" stroke="#63b8ff" points="3680.31,-117.55 3670.58,-121.74 3680.8,-124.53 3680.31,-117.55"/>
</a>
</g>
</g>
<!-- Node40 -->
<g id="Node000040" class="node">
<title>Node40</title>
<g id="a_Node000040"><a xlink:href="StoreMap_8cc.html" target="_top" xlink:title=" ">
<polygon fill="white" stroke="#666666" points="5112,-79.5 4972,-79.5 4972,-60.5 5112,-60.5 5112,-79.5"/>
<text text-anchor="middle" x="5042" y="-67.5" font-family="Helvetica,sans-Serif" font-size="10.00">squid/src/ipc/StoreMap.cc</text>
</a>
</g>
</g>
<!-- Node2&#45;&gt;Node40 -->
<g id="edge36_Node000002_Node000040" class="edge">
<title>Node2&#45;&gt;Node40</title>
<g id="a_edge36_Node000002_Node000040"><a xlink:title=" ">
<path fill="none" stroke="#63b8ff" d="M3680.7,-121.03C4250.82,-82.39 4398.83,-142.59 4963,-85 4975.19,-83.76 4988.34,-81.71 5000.34,-79.57"/>
<polygon fill="#63b8ff" stroke="#63b8ff" points="3680.32,-117.55 3670.58,-121.72 3680.79,-124.53 3680.32,-117.55"/>
</a>
</g>
</g>
<!-- Node41 -->
<g id="Node000041" class="node">
<title>Node41</title>
<g id="a_Node000041"><a xlink:href="ipcache_8cc.html" target="_top" xlink:title=" ">
<polygon fill="white" stroke="#666666" points="5244,-79.5 5130,-79.5 5130,-60.5 5244,-60.5 5244,-79.5"/>
<text text-anchor="middle" x="5187" y="-67.5" font-family="Helvetica,sans-Serif" font-size="10.00">squid/src/ipcache.cc</text>
</a>
</g>
</g>
<!-- Node2&#45;&gt;Node41 -->
<g id="edge37_Node000002_Node000041" class="edge">
<title>Node2&#45;&gt;Node41</title>
<g id="a_edge37_Node000002_Node000041"><a xlink:title=" ">
<path fill="none" stroke="#63b8ff" d="M3680.99,-121.02C4320.98,-78.69 4488.15,-159.38 5121,-85 5131.35,-83.78 5142.49,-81.72 5152.6,-79.55"/>
<polygon fill="#63b8ff" stroke="#63b8ff" points="3680.32,-117.55 3670.58,-121.71 3680.79,-124.54 3680.32,-117.55"/>
</a>
</g>
</g>
<!-- Node42 -->
<g id="Node000042" class="node">
<title>Node42</title>
<g id="a_Node000042"><a xlink:href="main_8cc.html" target="_top" xlink:title=" ">
<polygon fill="white" stroke="#666666" points="5363.5,-79.5 5262.5,-79.5 5262.5,-60.5 5363.5,-60.5 5363.5,-79.5"/>
<text text-anchor="middle" x="5313" y="-67.5" font-family="Helvetica,sans-Serif" font-size="10.00">squid/src/main.cc</text>
</a>
</g>
</g>
<!-- Node2&#45;&gt;Node42 -->
<g id="edge38_Node000002_Node000042" class="edge">
<title>Node2&#45;&gt;Node42</title>
<g id="a_edge38_Node000002_Node000042"><a xlink:title=" ">
<path fill="none" stroke="#63b8ff" d="M3680.68,-121.05C4045.11,-98.37 4909.35,-128.55 5253,-85 5262.44,-83.8 5272.57,-81.75 5281.77,-79.57"/>
<polygon fill="#63b8ff" stroke="#63b8ff" points="3680.33,-117.57 3670.58,-121.7 3680.78,-124.55 3680.33,-117.57"/>
</a>
</g>
</g>
<!-- Node43 -->
<g id="Node000043" class="node">
<title>Node43</title>
<g id="a_Node000043"><a xlink:href="FtpServer_8cc.html" target="_top" xlink:title=" ">
<polygon fill="white" stroke="#666666" points="5544,-79.5 5382,-79.5 5382,-60.5 5544,-60.5 5544,-79.5"/>
<text text-anchor="middle" x="5463" y="-67.5" font-family="Helvetica,sans-Serif" font-size="10.00">squid/src/servers/FtpServer.cc</text>
</a>
</g>
</g>
<!-- Node2&#45;&gt;Node43 -->
<g id="edge39_Node000002_Node000043" class="edge">
<title>Node2&#45;&gt;Node43</title>
<g id="a_edge39_Node000002_Node000043"><a xlink:title=" ">
<path fill="none" stroke="#63b8ff" d="M3680.57,-121.05C4432.7,-72.36 4626.58,-150.7 5373,-85 5387.02,-83.77 5402.17,-81.7 5415.97,-79.52"/>
<polygon fill="#63b8ff" stroke="#63b8ff" points="3680.33,-117.55 3670.58,-121.7 3680.78,-124.54 3680.33,-117.55"/>
</a>
</g>
</g>
<!-- Node44 -->
<g id="Node000044" class="node">
<title>Node44</title>
<g id="a_Node000044"><a xlink:href="Server_8cc.html" target="_top" xlink:title=" ">
<polygon fill="white" stroke="#666666" points="5708,-79.5 5562,-79.5 5562,-60.5 5708,-60.5 5708,-79.5"/>
<text text-anchor="middle" x="5635" y="-67.5" font-family="Helvetica,sans-Serif" font-size="10.00">squid/src/servers/Server.cc</text>
</a>
</g>
</g>
<!-- Node2&#45;&gt;Node44 -->
<g id="edge40_Node000002_Node000044" class="edge">
<title>Node2&#45;&gt;Node44</title>
<g id="a_edge40_Node000002_Node000044"><a xlink:title=" ">
<path fill="none" stroke="#63b8ff" d="M3680.7,-121.04C4512.59,-68.04 4727.43,-162.97 5553,-85 5565.8,-83.79 5579.61,-81.73 5592.18,-79.56"/>
<polygon fill="#63b8ff" stroke="#63b8ff" points="3680.33,-117.56 3670.58,-121.69 3680.78,-124.54 3680.33,-117.56"/>
</a>
</g>
</g>
<!-- Node45 -->
<g id="Node000045" class="node">
<title>Node45</title>
<g id="a_Node000045"><a xlink:href="snmp__agent_8cc.html" target="_top" xlink:title=" ">
<polygon fill="white" stroke="#666666" points="5863.5,-79.5 5726.5,-79.5 5726.5,-60.5 5863.5,-60.5 5863.5,-79.5"/>
<text text-anchor="middle" x="5795" y="-67.5" font-family="Helvetica,sans-Serif" font-size="10.00">squid/src/snmp_agent.cc</text>
</a>
</g>
</g>
<!-- Node2&#45;&gt;Node45 -->
<g id="edge41_Node000002_Node000045" class="edge">
<title>Node2&#45;&gt;Node45</title>
<g id="a_edge41_Node000002_Node000045"><a xlink:title=" ">
<path fill="none" stroke="#63b8ff" d="M3680.58,-121.05C4585.34,-64.07 4819.14,-172.94 5717,-85 5729.32,-83.79 5742.62,-81.7 5754.69,-79.5"/>
<polygon fill="#63b8ff" stroke="#63b8ff" points="3680.33,-117.56 3670.58,-121.68 3680.78,-124.54 3680.33,-117.56"/>
</a>
</g>
</g>
<!-- Node46 -->
<g id="Node000046" class="node">
<title>Node46</title>
<g id="a_Node000046"><a xlink:href="store_8cc.html" target="_top" xlink:title=" ">
<polygon fill="white" stroke="#666666" points="5982.5,-79.5 5881.5,-79.5 5881.5,-60.5 5982.5,-60.5 5982.5,-79.5"/>
<text text-anchor="middle" x="5932" y="-67.5" font-family="Helvetica,sans-Serif" font-size="10.00">squid/src/store.cc</text>
</a>
</g>
</g>
<!-- Node2&#45;&gt;Node46 -->
<g id="edge43_Node000002_Node000046" class="edge">
<title>Node2&#45;&gt;Node46</title>
<g id="a_edge43_Node000002_Node000046"><a xlink:title=" ">
<path fill="none" stroke="#63b8ff" d="M3680.85,-121.05C4183.11,-90.98 5392.69,-145.21 5873,-85 5882.4,-83.82 5892.48,-81.74 5901.61,-79.54"/>
<polygon fill="#63b8ff" stroke="#63b8ff" points="3680.34,-117.57 3670.58,-121.68 3680.77,-124.56 3680.34,-117.57"/>
</a>
</g>
</g>
<!-- Node47 -->
<g id="Node000047" class="node">
<title>Node47</title>
<g id="a_Node000047"><a xlink:href="store__client_8cc.html" target="_top" xlink:title=" ">
<polygon fill="white" stroke="#666666" points="6135,-79.5 6001,-79.5 6001,-60.5 6135,-60.5 6135,-79.5"/>
<text text-anchor="middle" x="6068" y="-67.5" font-family="Helvetica,sans-Serif" font-size="10.00">squid/src/store_client.cc</text>
</a>
</g>
</g>
<!-- Node2&#45;&gt;Node47 -->
<g id="edge44_Node000002_Node000047" class="edge">
<title>Node2&#45;&gt;Node47</title>
<g id="a_edge44_Node000002_Node000047"><a xlink:title=" ">
<path fill="none" stroke="#63b8ff" d="M3680.61,-121.06C4209.15,-89.37 5483.92,-135.4 5992,-85 6004.02,-83.81 6016.98,-81.72 6028.73,-79.52"/>
<polygon fill="#63b8ff" stroke="#63b8ff" points="3680.34,-117.57 3670.57,-121.68 3680.77,-124.56 3680.34,-117.57"/>
</a>
</g>
</g>
<!-- Node48 -->
<g id="Node000048" class="node">
<title>Node48</title>
<g id="a_Node000048"><a xlink:href="store__rebuild_8cc.html" target="_top" xlink:title=" ">
<polygon fill="white" stroke="#666666" points="6293,-79.5 6153,-79.5 6153,-60.5 6293,-60.5 6293,-79.5"/>
<text text-anchor="middle" x="6223" y="-67.5" font-family="Helvetica,sans-Serif" font-size="10.00">squid/src/store_rebuild.cc</text>
</a>
</g>
</g>
<!-- Node2&#45;&gt;Node48 -->
<g id="edge45_Node000002_Node000048" class="edge">
<title>Node2&#45;&gt;Node48</title>
<g id="a_edge45_Node000002_Node000048"><a xlink:title=" ">
<path fill="none" stroke="#63b8ff" d="M3680.85,-121.05C4243.27,-87.53 5602.18,-136.63 6144,-85 6156.48,-83.81 6169.95,-81.73 6182.17,-79.53"/>
<polygon fill="#63b8ff" stroke="#63b8ff" points="3680.34,-117.57 3670.57,-121.67 3680.77,-124.56 3680.34,-117.57"/>
</a>
</g>
</g>
<!-- Node49 -->
<g id="Node000049" class="node">
<title>Node49</title>
<g id="a_Node000049"><a xlink:href="store__swapin_8cc.html" target="_top" xlink:title=" ">
<polygon fill="white" stroke="#666666" points="6452.5,-79.5 6311.5,-79.5 6311.5,-60.5 6452.5,-60.5 6452.5,-79.5"/>
<text text-anchor="middle" x="6382" y="-67.5" font-family="Helvetica,sans-Serif" font-size="10.00">squid/src/store_swapin.cc</text>
</a>
</g>
</g>
<!-- Node2&#45;&gt;Node49 -->
<g id="edge46_Node000002_Node000049" class="edge">
<title>Node2&#45;&gt;Node49</title>
<g id="a_edge46_Node000002_Node000049"><a xlink:title=" ">
<path fill="none" stroke="#63b8ff" d="M3680.61,-121.06C4277.98,-85.6 5725.08,-139.09 6302,-85 6314.63,-83.82 6328.27,-81.73 6340.65,-79.53"/>
<polygon fill="#63b8ff" stroke="#63b8ff" points="3680.34,-117.57 3670.57,-121.67 3680.77,-124.56 3680.34,-117.57"/>
</a>
</g>
</g>
<!-- Node50 -->
<g id="Node000050" class="node">
<title>Node50</title>
<g id="a_Node000050"><a xlink:href="store__swapout_8cc.html" target="_top" xlink:title=" ">
<polygon fill="white" stroke="#666666" points="6619,-79.5 6471,-79.5 6471,-60.5 6619,-60.5 6619,-79.5"/>
<text text-anchor="middle" x="6545" y="-67.5" font-family="Helvetica,sans-Serif" font-size="10.00">squid/src/store_swapout.cc</text>
</a>
</g>
</g>
<!-- Node2&#45;&gt;Node50 -->
<g id="edge47_Node000002_Node000050" class="edge">
<title>Node2&#45;&gt;Node50</title>
<g id="a_edge47_Node000002_Node000050"><a xlink:title=" ">
<path fill="none" stroke="#63b8ff" d="M3680.75,-121.05C4313.72,-83.65 5849.54,-140.28 6462,-85 6475.1,-83.82 6489.25,-81.74 6502.09,-79.53"/>
<polygon fill="#63b8ff" stroke="#63b8ff" points="3680.35,-117.57 3670.57,-121.67 3680.77,-124.56 3680.35,-117.57"/>
</a>
</g>
</g>
<!-- Node51 -->
<g id="Node000051" class="node">
<title>Node51</title>
<g id="a_Node000051"><a xlink:href="tunnel_8cc.html" target="_top" xlink:title=" ">
<polygon fill="white" stroke="#666666" points="6744.5,-79.5 6637.5,-79.5 6637.5,-60.5 6744.5,-60.5 6744.5,-79.5"/>
<text text-anchor="middle" x="6691" y="-67.5" font-family="Helvetica,sans-Serif" font-size="10.00">squid/src/tunnel.cc</text>
</a>
</g>
</g>
<!-- Node2&#45;&gt;Node51 -->
<g id="edge48_Node000002_Node000051" class="edge">
<title>Node2&#45;&gt;Node51</title>
<g id="a_edge48_Node000002_Node000051"><a xlink:title=" ">
<path fill="none" stroke="#63b8ff" d="M3680.85,-121.05C4350.76,-81.82 5980.54,-160.08 6628,-85 6638.02,-83.84 6648.78,-81.76 6658.52,-79.56"/>
<polygon fill="#63b8ff" stroke="#63b8ff" points="3680.35,-117.57 3670.57,-121.66 3680.77,-124.56 3680.35,-117.57"/>
</a>
</g>
</g>
<!-- Node52 -->
<g id="Node000052" class="node">
<title>Node52</title>
<g id="a_Node000052"><a xlink:href="unlinkd_8cc.html" target="_top" xlink:title=" ">
<polygon fill="white" stroke="#666666" points="6875.5,-79.5 6762.5,-79.5 6762.5,-60.5 6875.5,-60.5 6875.5,-79.5"/>
<text text-anchor="middle" x="6819" y="-67.5" font-family="Helvetica,sans-Serif" font-size="10.00">squid/src/unlinkd.cc</text>
</a>
</g>
</g>
<!-- Node2&#45;&gt;Node52 -->
<g id="edge49_Node000002_Node000052" class="edge">
<title>Node2&#45;&gt;Node52</title>
<g id="a_edge49_Node000002_Node000052"><a xlink:title=" ">
<path fill="none" stroke="#63b8ff" d="M3680.77,-121.05C4378.6,-80.27 6078.43,-160.93 6754,-85 6764.32,-83.84 6775.42,-81.76 6785.48,-79.56"/>
<polygon fill="#63b8ff" stroke="#63b8ff" points="3680.35,-117.57 3670.57,-121.66 3680.76,-124.56 3680.35,-117.57"/>
</a>
</g>
</g>
<!-- Node11 -->
<g id="Node000011" class="node">
<title>Node11</title>
<g id="a_Node000011"><a xlink:href="CachePeer_8cc.html" target="_top" xlink:title=" ">
<polygon fill="white" stroke="#666666" points="1111,-19 983,-19 983,0 1111,0 1111,-19"/>
<text text-anchor="middle" x="1047" y="-7" font-family="Helvetica,sans-Serif" font-size="10.00">squid/src/CachePeer.cc</text>
</a>
</g>
</g>
<!-- Node10&#45;&gt;Node11 -->
<g id="edge10_Node000010_Node000011" class="edge">
<title>Node10&#45;&gt;Node11</title>
<g id="a_edge10_Node000010_Node000011"><a xlink:title=" ">
<path fill="none" stroke="#63b8ff" d="M1173.45,-57.02C1142.71,-45.71 1097.36,-29.03 1070.15,-19.02"/>
<polygon fill="#63b8ff" stroke="#63b8ff" points="1172.29,-60.33 1182.88,-60.49 1174.7,-53.76 1172.29,-60.33"/>
</a>
</g>
</g>
<!-- Node12 -->
<g id="Node000012" class="node">
<title>Node12</title>
<g id="a_Node000012"><a xlink:href="cache__cf_8cc.html" target="_top" xlink:title=" ">
<polygon fill="white" stroke="#666666" points="1248.5,-19 1129.5,-19 1129.5,0 1248.5,0 1248.5,-19"/>
<text text-anchor="middle" x="1189" y="-7" font-family="Helvetica,sans-Serif" font-size="10.00">squid/src/cache_cf.cc</text>
</a>
</g>
</g>
<!-- Node10&#45;&gt;Node12 -->
<g id="edge11_Node000010_Node000012" class="edge">
<title>Node10&#45;&gt;Node12</title>
<g id="a_edge11_Node000010_Node000012"><a xlink:title=" ">
<path fill="none" stroke="#63b8ff" d="M1200.62,-50.49C1197.58,-40.01 1193.91,-27.39 1191.52,-19.17"/>
<polygon fill="#63b8ff" stroke="#63b8ff" points="1197.34,-51.74 1203.49,-60.37 1204.06,-49.79 1197.34,-51.74"/>
</a>
</g>
</g>
<!-- Node10&#45;&gt;Node15 -->
<g id="edge12_Node000010_Node000015" class="edge">
<title>Node10&#45;&gt;Node15</title>
<g id="a_edge12_Node000010_Node000015"><a xlink:title=" ">
<path fill="none" stroke="#63b8ff" d="M1230.78,-55.58C1251.44,-44.38 1280.26,-28.77 1298,-19.17"/>
<polygon fill="#63b8ff" stroke="#63b8ff" points="1229.06,-52.53 1221.94,-60.37 1232.4,-58.68 1229.06,-52.53"/>
</a>
</g>
</g>
</g>
</svg>

<g id="navigator" transform="translate(0 0)" fill="#404254">
  <rect fill="#f2f5e9" fill-opacity="0.5" stroke="#606060" stroke-width=".5" x="0" y="0" width="60" height="60"/>
  <use id="zoomplus" xlink:href="#zoomPlus" x="17" y="9" onmousedown="handleZoom(evt,'in')"/>
  <use id="zoomminus" xlink:href="#zoomMin" x="42" y="9" onmousedown="handleZoom(evt,'out')"/>
  <use id="reset" xlink:href="#resetDef" x="30" y="36" onmousedown="handleReset()"/>
   <use id="arrowup" xlink:href="#arrowUp" x="0" y="0" onmousedown="handlePan(0,-1)"/>
  <use id="arrowright" xlink:href="#arrowRight" x="0" y="0" onmousedown="handlePan(1,0)"/>
  <use id="arrowdown" xlink:href="#arrowDown" x="0" y="0" onmousedown="handlePan(0,1)"/>
  <use id="arrowleft" xlink:href="#arrowLeft" x="0" y="0" onmousedown="handlePan(-1,0)"/>
</g>
<svg viewBox="0 0 15 15" width="100%" height="30px" preserveAspectRatio="xMaxYMin meet">
 <g id="arrow_out" transform="scale(0.3 0.3)">
  <a xlink:href="Incoming_8h__dep__incl_org.svg" target="_base">
   <rect id="button" ry="5" rx="5" y="6" x="6" height="38" width="38"
        fill="#f2f5e9" fill-opacity="0.5" stroke="#606060" stroke-width="1.0"/>
   <path id="arrow"
     d="M 11.500037,31.436501 C 11.940474,20.09759 22.043105,11.32322 32.158766,21.979434 L 37.068811,17.246167 C 37.068811,17.246167 37.088388,32 37.088388,32 L 22.160133,31.978069 C 22.160133,31.978069 26.997745,27.140456 26.997745,27.140456 C 18.528582,18.264221 13.291696,25.230495 11.500037,31.436501 z"
     style="fill:#404040;"/>
  </a>
 </g>
</svg>

<style type='text/css'>
<![CDATA[
[data-mouse-over-selected='false'] { opacity: 0.7; }
[data-mouse-over-selected='true']  { opacity: 1.0; }
]]>
</style>
<script type="application/ecmascript"><![CDATA[
document.addEventListener('DOMContentLoaded', (event) => {
  highlightEdges();
  highlightAdjacentNodes();
});
]]></script>
</svg>
