<?xml version="1.0" encoding="UTF-8" standalone="no"?>
<!DOCTYPE svg PUBLIC "-//W3C//DTD SVG 1.1//EN"
 "http://www.w3.org/Graphics/SVG/1.1/DTD/svg11.dtd">
<!-- Generated by graphviz version 2.43.0 (0)
 -->
<!-- Title: Graphical Class Hierarchy Pages: 1 -->
<svg width="348pt" height="64pt"
 viewBox="0.00 0.00 348.00 64.00" xmlns="http://www.w3.org/2000/svg" xmlns:xlink="http://www.w3.org/1999/xlink">
<g id="graph0" class="graph" transform="scale(1 1) rotate(0) translate(4 60)">
<title>Graphical Class Hierarchy</title>
<!-- Node0 -->
<g id="Node000000" class="node">
<title>Node0</title>
<g id="a_Node000000"><a xlink:href="classFs_1_1Ufs_1_1UFSSwapLogParser.html" target="_top" xlink:title=" ">
<polygon fill="white" stroke="#666666" points="149,-37 0,-37 0,-18 149,-18 149,-37"/>
<text text-anchor="middle" x="74.5" y="-25" font-family="Helvetica,sans-Serif" font-size="10.00">Fs::Ufs::UFSSwapLogParser</text>
</a>
</g>
</g>
<!-- Node1 -->
<g id="Node000001" class="node">
<title>Node1</title>
<g id="a_Node000001"><a xlink:href="classUFSSwapLogParser__v1__32bs.html" target="_top" xlink:title=" ">
<polygon fill="white" stroke="#666666" points="340,-56 185,-56 185,-37 340,-37 340,-56"/>
<text text-anchor="middle" x="262.5" y="-44" font-family="Helvetica,sans-Serif" font-size="10.00">UFSSwapLogParser_v1_32bs</text>
</a>
</g>
</g>
<!-- Node0&#45;&gt;Node1 -->
<g id="edge513_Node000000_Node000001" class="edge">
<title>Node0&#45;&gt;Node1</title>
<g id="a_edge513_Node000000_Node000001"><a xlink:title=" ">
<path fill="none" stroke="#63b8ff" d="M159.04,-36.03C167.63,-36.91 176.34,-37.8 184.86,-38.67"/>
<polygon fill="#63b8ff" stroke="#63b8ff" points="159.32,-32.54 149.01,-35.01 158.6,-39.51 159.32,-32.54"/>
</a>
</g>
</g>
<!-- Node2 -->
<g id="Node000002" class="node">
<title>Node2</title>
<g id="a_Node000002"><a xlink:href="classUFSSwapLogParser__v2.html" target="_top" xlink:title="swap.state v2 log parser">
<polygon fill="white" stroke="#666666" points="325.5,-19 199.5,-19 199.5,0 325.5,0 325.5,-19"/>
<text text-anchor="middle" x="262.5" y="-7" font-family="Helvetica,sans-Serif" font-size="10.00">UFSSwapLogParser_v2</text>
</a>
</g>
</g>
<!-- Node0&#45;&gt;Node2 -->
<g id="edge514_Node000000_Node000002" class="edge">
<title>Node0&#45;&gt;Node2</title>
<g id="a_edge514_Node000000_Node000002"><a xlink:title=" ">
<path fill="none" stroke="#63b8ff" d="M159.25,-19.4C172.73,-18.09 186.47,-16.76 199.32,-15.52"/>
<polygon fill="#63b8ff" stroke="#63b8ff" points="158.63,-15.94 149.01,-20.39 159.3,-22.91 158.63,-15.94"/>
</a>
</g>
</g>
</g>
</svg>
