<?xml version="1.0" encoding="UTF-8" standalone="no"?>
<!DOCTYPE svg PUBLIC "-//W3C//DTD SVG 1.1//EN"
 "http://www.w3.org/Graphics/SVG/1.1/DTD/svg11.dtd">
<!-- Generated by graphviz version 2.43.0 (0)
 -->
<!-- Title: squid/src/adaptation/Initiator.cc Pages: 1 -->
<!--zoomable 258 -->

<svg id="main" version="1.1" xmlns="http://www.w3.org/2000/svg" xmlns:xlink="http://www.w3.org/1999/xlink" xml:space="preserve" onload="init(evt)">
<style type="text/css"><![CDATA[
.node, .edge {opacity: 0.7;}
.node.selected, .edge.selected {opacity: 1;}
.edge:hover path { stroke: red; }
.edge:hover polygon { stroke: red; fill: red; }
]]></style>

<defs>
  <circle id="rim" cx="0" cy="0" r="7"/>
  <circle id="rim2" cx="0" cy="0" r="3.5"/>
  <g id="zoomPlus">
    <use xlink:href="#rim" fill="#404040"><set attributeName="fill" to="#808080" begin="zoomplus.mouseover" end="zoomplus.mouseout"/></use>
    <path d="M-4,0h8M0,-4v8" fill="none" stroke="white" stroke-width="1.5" pointer-events="none"/>
  </g>
  <g id="zoomMin">
    <use xlink:href="#rim" fill="#404040"><set attributeName="fill" to="#808080" begin="zoomminus.mouseover" end="zoomminus.mouseout"/></use>
    <path d="M-4,0h8" fill="none" stroke="white" stroke-width="1.5" pointer-events="none"/>
  </g>
  <g id="arrowUp" transform="translate(30 24)">
    <use xlink:href="#rim"/>
    <path pointer-events="none" fill="none" stroke="white" stroke-width="1.5" d="M0,-3.0v7 M-2.5,-0.5L0,-3.0L2.5,-0.5"/>
  </g>
  <g id="arrowRight" transform="rotate(90) translate(36 -43)">
    <use xlink:href="#rim"/>
    <path pointer-events="none" fill="none" stroke="white" stroke-width="1.5" d="M0,-3.0v7 M-2.5,-0.5L0,-3.0L2.5,-0.5"/>
  </g>
  <g id="arrowDown" transform="rotate(180) translate(-30 -48)">
    <use xlink:href="#rim"/>
    <path pointer-events="none" fill="none" stroke="white" stroke-width="1.5" d="M0,-3.0v7 M-2.5,-0.5L0,-3.0L2.5,-0.5"/>
  </g>
  <g id="arrowLeft" transform="rotate(270) translate(-36 17)">
    <use xlink:href="#rim"/>
    <path pointer-events="none" fill="none" stroke="white" stroke-width="1.5" d="M0,-3.0v7 M-2.5,-0.5L0,-3.0L2.5,-0.5"/>
  </g>
  <g id="resetDef">
    <use xlink:href="#rim2" fill="#404040"><set attributeName="fill" to="#808080" begin="reset.mouseover" end="reset.mouseout"/></use>
  </g>
</defs>
<script type="application/ecmascript">
var viewWidth = 3868;
var viewHeight = 258;
var sectionId = 'dynsection-0';
</script>
<script type="application/ecmascript" xlink:href="svg.min.js"/>
<svg id="graph" class="graph">
<g id="viewport">
<title>squid/src/adaptation/Initiator.cc</title>
<!-- Node1 -->
<g id="Node000001" class="node">
<title>Node1</title>
<g id="a_Node000001"><a xlink:title=" ">
<polygon fill="#999999" stroke="#666666" points="3354.5,-250 3238.5,-250 3238.5,-220 3354.5,-220 3354.5,-250"/>
<text text-anchor="start" x="3246.5" y="-238" font-family="Helvetica,sans-Serif" font-size="10.00">squid/src/adaptation</text>
<text text-anchor="middle" x="3296.5" y="-227" font-family="Helvetica,sans-Serif" font-size="10.00">/Initiator.cc</text>
</a>
</g>
</g>
<!-- Node2 -->
<g id="Node000002" class="node">
<title>Node2</title>
<g id="a_Node000002"><a xlink:href="squid_8h.html" target="_top" xlink:title=" ">
<polygon fill="white" stroke="#666666" points="1562.5,-184 1510.5,-184 1510.5,-165 1562.5,-165 1562.5,-184"/>
<text text-anchor="middle" x="1536.5" y="-172" font-family="Helvetica,sans-Serif" font-size="10.00">squid.h</text>
</a>
</g>
</g>
<!-- Node1&#45;&gt;Node2 -->
<g id="edge1_Node000001_Node000002" class="edge">
<title>Node1&#45;&gt;Node2</title>
<g id="a_edge1_Node000001_Node000002"><a xlink:title=" ">
<path fill="none" stroke="#63b8ff" d="M3238.44,-232.07C2963.26,-222.92 1794.4,-184.07 1572.84,-176.71"/>
<polygon fill="#63b8ff" stroke="#63b8ff" points="1572.83,-173.21 1562.72,-176.37 1572.6,-180.2 1572.83,-173.21"/>
</a>
</g>
</g>
<!-- Node44 -->
<g id="Node000044" class="node">
<title>Node44</title>
<g id="a_Node000044"><a xlink:href="Initiate_8h.html" target="_top" xlink:title=" ">
<polygon fill="white" stroke="#666666" points="3286.5,-184 3170.5,-184 3170.5,-165 3286.5,-165 3286.5,-184"/>
<text text-anchor="middle" x="3228.5" y="-172" font-family="Helvetica,sans-Serif" font-size="10.00">adaptation/Initiate.h</text>
</a>
</g>
</g>
<!-- Node1&#45;&gt;Node44 -->
<g id="edge31_Node000001_Node000044" class="edge">
<title>Node1&#45;&gt;Node44</title>
<g id="a_edge31_Node000001_Node000044"><a xlink:title=" ">
<path fill="none" stroke="#63b8ff" d="M3280.04,-219.84C3269.87,-211.09 3256.81,-199.85 3246.38,-190.88"/>
<polygon fill="#63b8ff" stroke="#63b8ff" points="3248.55,-188.13 3238.69,-184.27 3243.99,-193.44 3248.55,-188.13"/>
</a>
</g>
</g>
<!-- Node72 -->
<g id="Node000072" class="node">
<title>Node72</title>
<g id="a_Node000072"><a xlink:href="Initiator_8h.html" target="_top" xlink:title=" ">
<polygon fill="white" stroke="#666666" points="3424,-184 3305,-184 3305,-165 3424,-165 3424,-184"/>
<text text-anchor="middle" x="3364.5" y="-172" font-family="Helvetica,sans-Serif" font-size="10.00">adaptation/Initiator.h</text>
</a>
</g>
</g>
<!-- Node1&#45;&gt;Node72 -->
<g id="edge48_Node000001_Node000072" class="edge">
<title>Node1&#45;&gt;Node72</title>
<g id="a_edge48_Node000001_Node000072"><a xlink:title=" ">
<path fill="none" stroke="#63b8ff" d="M3312.96,-219.84C3323.13,-211.09 3336.19,-199.85 3346.62,-190.88"/>
<polygon fill="#63b8ff" stroke="#63b8ff" points="3349.01,-193.44 3354.31,-184.27 3344.45,-188.13 3349.01,-193.44"/>
</a>
</g>
</g>
<!-- Node73 -->
<g id="Node000073" class="node">
<title>Node73</title>
<g id="a_Node000073"><a xlink:href="AsyncJobCalls_8h.html" target="_top" xlink:title=" ">
<polygon fill="white" stroke="#666666" points="3562.5,-184 3442.5,-184 3442.5,-165 3562.5,-165 3562.5,-184"/>
<text text-anchor="middle" x="3502.5" y="-172" font-family="Helvetica,sans-Serif" font-size="10.00">base/AsyncJobCalls.h</text>
</a>
</g>
</g>
<!-- Node1&#45;&gt;Node73 -->
<g id="edge52_Node000001_Node000073" class="edge">
<title>Node1&#45;&gt;Node73</title>
<g id="a_edge52_Node000001_Node000073"><a xlink:title=" ">
<path fill="none" stroke="#63b8ff" d="M3345.84,-219.99C3381.55,-209.85 3429.19,-196.32 3462.52,-186.85"/>
<polygon fill="#63b8ff" stroke="#63b8ff" points="3463.72,-190.15 3472.38,-184.05 3461.8,-183.42 3463.72,-190.15"/>
</a>
</g>
</g>
<!-- Node3 -->
<g id="Node000003" class="node">
<title>Node3</title>
<g id="a_Node000003"><a xlink:href="autoconf_8h.html" target="_top" xlink:title=" ">
<polygon fill="white" stroke="#666666" points="1437.5,-129 1369.5,-129 1369.5,-110 1437.5,-110 1437.5,-129"/>
<text text-anchor="middle" x="1403.5" y="-117" font-family="Helvetica,sans-Serif" font-size="10.00">autoconf.h</text>
</a>
</g>
</g>
<!-- Node2&#45;&gt;Node3 -->
<g id="edge2_Node000002_Node000003" class="edge">
<title>Node2&#45;&gt;Node3</title>
<g id="a_edge2_Node000002_Node000003"><a xlink:title=" ">
<path fill="none" stroke="#63b8ff" d="M1515.13,-164.98C1493.35,-156.3 1459.34,-142.75 1434.58,-132.88"/>
<polygon fill="#63b8ff" stroke="#63b8ff" points="1435.84,-129.62 1425.26,-129.17 1433.25,-136.12 1435.84,-129.62"/>
</a>
</g>
</g>
<!-- Node4 -->
<g id="Node000004" class="node">
<title>Node4</title>
<g id="a_Node000004"><a xlink:href="version_8h.html" target="_top" xlink:title=" ">
<polygon fill="white" stroke="#666666" points="1517.5,-129 1455.5,-129 1455.5,-110 1517.5,-110 1517.5,-129"/>
<text text-anchor="middle" x="1486.5" y="-117" font-family="Helvetica,sans-Serif" font-size="10.00">version.h</text>
</a>
</g>
</g>
<!-- Node2&#45;&gt;Node4 -->
<g id="edge3_Node000002_Node000004" class="edge">
<title>Node2&#45;&gt;Node4</title>
<g id="a_edge3_Node000002_Node000004"><a xlink:title=" ">
<path fill="none" stroke="#63b8ff" d="M1528.24,-164.75C1521.04,-157.11 1510.39,-145.82 1501.65,-136.56"/>
<polygon fill="#63b8ff" stroke="#63b8ff" points="1504.01,-133.96 1494.6,-129.09 1498.92,-138.76 1504.01,-133.96"/>
</a>
</g>
</g>
<!-- Node5 -->
<g id="Node000005" class="node">
<title>Node5</title>
<g id="a_Node000005"><a xlink:href="compat_8h.html" target="_top" xlink:title=" ">
<polygon fill="white" stroke="#666666" points="1637.5,-129 1535.5,-129 1535.5,-110 1637.5,-110 1637.5,-129"/>
<text text-anchor="middle" x="1586.5" y="-117" font-family="Helvetica,sans-Serif" font-size="10.00">compat/compat.h</text>
</a>
</g>
</g>
<!-- Node2&#45;&gt;Node5 -->
<g id="edge4_Node000002_Node000005" class="edge">
<title>Node2&#45;&gt;Node5</title>
<g id="a_edge4_Node000002_Node000005"><a xlink:title=" ">
<path fill="none" stroke="#63b8ff" d="M1544.76,-164.75C1551.96,-157.11 1562.61,-145.82 1571.35,-136.56"/>
<polygon fill="#63b8ff" stroke="#63b8ff" points="1574.08,-138.76 1578.4,-129.09 1568.99,-133.96 1574.08,-138.76"/>
</a>
</g>
</g>
<!-- Node6 -->
<g id="Node000006" class="node">
<title>Node6</title>
<g id="a_Node000006"><a xlink:href="osdetect_8h.html" target="_top" xlink:title=" ">
<polygon fill="white" stroke="#666666" points="567,-74 460,-74 460,-55 567,-55 567,-74"/>
<text text-anchor="middle" x="513.5" y="-62" font-family="Helvetica,sans-Serif" font-size="10.00">compat/osdetect.h</text>
</a>
</g>
</g>
<!-- Node5&#45;&gt;Node6 -->
<g id="edge5_Node000005_Node000006" class="edge">
<title>Node5&#45;&gt;Node6</title>
<g id="a_edge5_Node000005_Node000006"><a xlink:title=" ">
<path fill="none" stroke="#63b8ff" d="M1535.48,-110.91C1532.44,-110.57 1529.43,-110.26 1526.5,-110 1108.95,-72.61 999.17,-109.7 577.11,-73.94"/>
<polygon fill="#63b8ff" stroke="#63b8ff" points="577.34,-70.45 567.08,-73.09 576.74,-77.43 577.34,-70.45"/>
</a>
</g>
</g>
<!-- Node7 -->
<g id="Node000007" class="node">
<title>Node7</title>
<g id="a_Node000007"><a xlink:href="fdsetsize_8h.html" target="_top" xlink:title=" ">
<polygon fill="white" stroke="#666666" points="695.5,-74 585.5,-74 585.5,-55 695.5,-55 695.5,-74"/>
<text text-anchor="middle" x="640.5" y="-62" font-family="Helvetica,sans-Serif" font-size="10.00">compat/fdsetsize.h</text>
</a>
</g>
</g>
<!-- Node5&#45;&gt;Node7 -->
<g id="edge6_Node000005_Node000007" class="edge">
<title>Node5&#45;&gt;Node7</title>
<g id="a_edge6_Node000005_Node000007"><a xlink:title=" ">
<path fill="none" stroke="#63b8ff" d="M1535.48,-110.93C1532.44,-110.59 1529.43,-110.27 1526.5,-110 1165.66,-76.62 1070.48,-105.57 705.67,-74.01"/>
<polygon fill="#63b8ff" stroke="#63b8ff" points="705.89,-70.52 695.62,-73.14 705.28,-77.49 705.89,-70.52"/>
</a>
</g>
</g>
<!-- Node8 -->
<g id="Node000008" class="node">
<title>Node8</title>
<g id="a_Node000008"><a xlink:href="types_8h.html" target="_top" xlink:title=" ">
<polygon fill="white" stroke="#666666" points="805.5,-74 713.5,-74 713.5,-55 805.5,-55 805.5,-74"/>
<text text-anchor="middle" x="759.5" y="-62" font-family="Helvetica,sans-Serif" font-size="10.00">compat/types.h</text>
</a>
</g>
</g>
<!-- Node5&#45;&gt;Node8 -->
<g id="edge7_Node000005_Node000008" class="edge">
<title>Node5&#45;&gt;Node8</title>
<g id="a_edge7_Node000005_Node000008"><a xlink:title=" ">
<path fill="none" stroke="#63b8ff" d="M1535.47,-110.95C1532.44,-110.6 1529.43,-110.28 1526.5,-110 1214.49,-80.07 1131.48,-105.68 816.03,-74.04"/>
<polygon fill="#63b8ff" stroke="#63b8ff" points="815.97,-70.51 805.67,-72.99 815.26,-77.48 815.97,-70.51"/>
</a>
</g>
</g>
<!-- Node10 -->
<g id="Node000010" class="node">
<title>Node10</title>
<g id="a_Node000010"><a xlink:href="aix_8h.html" target="_top" xlink:title=" ">
<polygon fill="white" stroke="#666666" points="919,-74 824,-74 824,-55 919,-55 919,-74"/>
<text text-anchor="middle" x="871.5" y="-62" font-family="Helvetica,sans-Serif" font-size="10.00">compat/os/aix.h</text>
</a>
</g>
</g>
<!-- Node5&#45;&gt;Node10 -->
<g id="edge9_Node000005_Node000010" class="edge">
<title>Node5&#45;&gt;Node10</title>
<g id="a_edge9_Node000005_Node000010"><a xlink:title=" ">
<path fill="none" stroke="#63b8ff" d="M1535.47,-110.99C1532.44,-110.63 1529.43,-110.3 1526.5,-110 1264.82,-83.63 1195.01,-101.22 929,-73.94"/>
<polygon fill="#63b8ff" stroke="#63b8ff" points="929.35,-70.46 919.05,-72.91 928.63,-77.42 929.35,-70.46"/>
</a>
</g>
</g>
<!-- Node11 -->
<g id="Node000011" class="node">
<title>Node11</title>
<g id="a_Node000011"><a xlink:href="android_8h.html" target="_top" xlink:title=" ">
<polygon fill="white" stroke="#666666" points="1053.5,-74 937.5,-74 937.5,-55 1053.5,-55 1053.5,-74"/>
<text text-anchor="middle" x="995.5" y="-62" font-family="Helvetica,sans-Serif" font-size="10.00">compat/os/android.h</text>
</a>
</g>
</g>
<!-- Node5&#45;&gt;Node11 -->
<g id="edge10_Node000005_Node000011" class="edge">
<title>Node5&#45;&gt;Node11</title>
<g id="a_edge10_Node000005_Node000011"><a xlink:title=" ">
<path fill="none" stroke="#63b8ff" d="M1535.46,-111.05C1532.43,-110.67 1529.43,-110.32 1526.5,-110 1324.2,-87.85 1270.01,-94.79 1063.84,-74.08"/>
<polygon fill="#63b8ff" stroke="#63b8ff" points="1063.89,-70.57 1053.58,-73.04 1063.18,-77.54 1063.89,-70.57"/>
</a>
</g>
</g>
<!-- Node12 -->
<g id="Node000012" class="node">
<title>Node12</title>
<g id="a_Node000012"><a xlink:href="dragonfly_8h.html" target="_top" xlink:title=" ">
<polygon fill="white" stroke="#666666" points="1195.5,-74 1071.5,-74 1071.5,-55 1195.5,-55 1195.5,-74"/>
<text text-anchor="middle" x="1133.5" y="-62" font-family="Helvetica,sans-Serif" font-size="10.00">compat/os/dragonfly.h</text>
</a>
</g>
</g>
<!-- Node5&#45;&gt;Node12 -->
<g id="edge11_Node000005_Node000012" class="edge">
<title>Node5&#45;&gt;Node12</title>
<g id="a_edge11_Node000005_Node000012"><a xlink:title=" ">
<path fill="none" stroke="#63b8ff" d="M1535.45,-111.16C1532.42,-110.76 1529.42,-110.37 1526.5,-110 1386.85,-92.31 1349.22,-90.63 1205.89,-74.15"/>
<polygon fill="#63b8ff" stroke="#63b8ff" points="1206.17,-70.66 1195.83,-72.99 1205.37,-77.61 1206.17,-70.66"/>
</a>
</g>
</g>
<!-- Node13 -->
<g id="Node000013" class="node">
<title>Node13</title>
<g id="a_Node000013"><a xlink:href="freebsd_8h.html" target="_top" xlink:title=" ">
<polygon fill="white" stroke="#666666" points="1329.5,-74 1213.5,-74 1213.5,-55 1329.5,-55 1329.5,-74"/>
<text text-anchor="middle" x="1271.5" y="-62" font-family="Helvetica,sans-Serif" font-size="10.00">compat/os/freebsd.h</text>
</a>
</g>
</g>
<!-- Node5&#45;&gt;Node13 -->
<g id="edge12_Node000005_Node000013" class="edge">
<title>Node5&#45;&gt;Node13</title>
<g id="a_edge12_Node000005_Node000013"><a xlink:title=" ">
<path fill="none" stroke="#63b8ff" d="M1535.89,-109.98C1480.4,-100.65 1391.41,-85.67 1332.21,-75.71"/>
<polygon fill="#63b8ff" stroke="#63b8ff" points="1332.69,-72.25 1322.25,-74.04 1331.53,-79.15 1332.69,-72.25"/>
</a>
</g>
</g>
<!-- Node14 -->
<g id="Node000014" class="node">
<title>Node14</title>
<g id="a_Node000014"><a xlink:href="hpux_8h.html" target="_top" xlink:title=" ">
<polygon fill="white" stroke="#666666" points="1451.5,-74 1347.5,-74 1347.5,-55 1451.5,-55 1451.5,-74"/>
<text text-anchor="middle" x="1399.5" y="-62" font-family="Helvetica,sans-Serif" font-size="10.00">compat/os/hpux.h</text>
</a>
</g>
</g>
<!-- Node5&#45;&gt;Node14 -->
<g id="edge13_Node000005_Node000014" class="edge">
<title>Node5&#45;&gt;Node14</title>
<g id="a_edge13_Node000005_Node000014"><a xlink:title=" ">
<path fill="none" stroke="#63b8ff" d="M1556.46,-109.98C1524.79,-101.01 1474.73,-86.82 1439.69,-76.89"/>
<polygon fill="#63b8ff" stroke="#63b8ff" points="1440.36,-73.44 1429.78,-74.08 1438.45,-80.18 1440.36,-73.44"/>
</a>
</g>
</g>
<!-- Node15 -->
<g id="Node000015" class="node">
<title>Node15</title>
<g id="a_Node000015"><a xlink:href="linux_8h.html" target="_top" xlink:title=" ">
<polygon fill="white" stroke="#666666" points="1573.5,-74 1469.5,-74 1469.5,-55 1573.5,-55 1573.5,-74"/>
<text text-anchor="middle" x="1521.5" y="-62" font-family="Helvetica,sans-Serif" font-size="10.00">compat/os/linux.h</text>
</a>
</g>
</g>
<!-- Node5&#45;&gt;Node15 -->
<g id="edge14_Node000005_Node000015" class="edge">
<title>Node5&#45;&gt;Node15</title>
<g id="a_edge14_Node000005_Node000015"><a xlink:title=" ">
<path fill="none" stroke="#63b8ff" d="M1576.06,-109.98C1566.35,-102.07 1551.68,-90.11 1540,-80.58"/>
<polygon fill="#63b8ff" stroke="#63b8ff" points="1542.1,-77.78 1532.13,-74.17 1537.67,-83.2 1542.1,-77.78"/>
</a>
</g>
</g>
<!-- Node16 -->
<g id="Node000016" class="node">
<title>Node16</title>
<g id="a_Node000016"><a xlink:href="macosx_8h.html" target="_top" xlink:title=" ">
<polygon fill="white" stroke="#666666" points="1709.5,-74 1591.5,-74 1591.5,-55 1709.5,-55 1709.5,-74"/>
<text text-anchor="middle" x="1650.5" y="-62" font-family="Helvetica,sans-Serif" font-size="10.00">compat/os/macosx.h</text>
</a>
</g>
</g>
<!-- Node5&#45;&gt;Node16 -->
<g id="edge15_Node000005_Node000016" class="edge">
<title>Node5&#45;&gt;Node16</title>
<g id="a_edge15_Node000005_Node000016"><a xlink:title=" ">
<path fill="none" stroke="#63b8ff" d="M1596.78,-109.98C1606.34,-102.07 1620.78,-90.11 1632.28,-80.58"/>
<polygon fill="#63b8ff" stroke="#63b8ff" points="1634.56,-83.24 1640.03,-74.17 1630.1,-77.85 1634.56,-83.24"/>
</a>
</g>
</g>
<!-- Node17 -->
<g id="Node000017" class="node">
<title>Node17</title>
<g id="a_Node000017"><a xlink:href="mingw_8h.html" target="_top" xlink:title=" ">
<polygon fill="white" stroke="#666666" points="1839.5,-74 1727.5,-74 1727.5,-55 1839.5,-55 1839.5,-74"/>
<text text-anchor="middle" x="1783.5" y="-62" font-family="Helvetica,sans-Serif" font-size="10.00">compat/os/mingw.h</text>
</a>
</g>
</g>
<!-- Node5&#45;&gt;Node17 -->
<g id="edge16_Node000005_Node000017" class="edge">
<title>Node5&#45;&gt;Node17</title>
<g id="a_edge16_Node000005_Node000017"><a xlink:title=" ">
<path fill="none" stroke="#63b8ff" d="M1618.15,-109.98C1651.66,-100.97 1704.7,-86.7 1741.64,-76.76"/>
<polygon fill="#63b8ff" stroke="#63b8ff" points="1742.85,-80.06 1751.6,-74.08 1741.03,-73.3 1742.85,-80.06"/>
</a>
</g>
</g>
<!-- Node18 -->
<g id="Node000018" class="node">
<title>Node18</title>
<g id="a_Node000018"><a xlink:href="mswindows_8h.html" target="_top" xlink:title=" ">
<polygon fill="white" stroke="#666666" points="1995,-74 1858,-74 1858,-55 1995,-55 1995,-74"/>
<text text-anchor="middle" x="1926.5" y="-62" font-family="Helvetica,sans-Serif" font-size="10.00">compat/os/mswindows.h</text>
</a>
</g>
</g>
<!-- Node5&#45;&gt;Node18 -->
<g id="edge17_Node000005_Node000018" class="edge">
<title>Node5&#45;&gt;Node18</title>
<g id="a_edge17_Node000005_Node000018"><a xlink:title=" ">
<path fill="none" stroke="#63b8ff" d="M1637.77,-110.51C1697.55,-101.19 1796.46,-85.77 1861.56,-75.62"/>
<polygon fill="#63b8ff" stroke="#63b8ff" points="1862.37,-79.04 1871.71,-74.04 1861.29,-72.12 1862.37,-79.04"/>
</a>
</g>
</g>
<!-- Node19 -->
<g id="Node000019" class="node">
<title>Node19</title>
<g id="a_Node000019"><a xlink:href="netbsd_8h.html" target="_top" xlink:title=" ">
<polygon fill="white" stroke="#666666" points="2126,-74 2013,-74 2013,-55 2126,-55 2126,-74"/>
<text text-anchor="middle" x="2069.5" y="-62" font-family="Helvetica,sans-Serif" font-size="10.00">compat/os/netbsd.h</text>
</a>
</g>
</g>
<!-- Node5&#45;&gt;Node19 -->
<g id="edge18_Node000005_Node000019" class="edge">
<title>Node5&#45;&gt;Node19</title>
<g id="a_edge18_Node000005_Node000019"><a xlink:title=" ">
<path fill="none" stroke="#63b8ff" d="M1637.57,-113.41C1714.38,-105.68 1864.47,-90.26 2003.03,-74.03"/>
<polygon fill="#63b8ff" stroke="#63b8ff" points="2003.46,-77.5 2012.98,-72.86 2002.64,-70.55 2003.46,-77.5"/>
</a>
</g>
</g>
<!-- Node20 -->
<g id="Node000020" class="node">
<title>Node20</title>
<g id="a_Node000020"><a xlink:href="openbsd_8h.html" target="_top" xlink:title=" ">
<polygon fill="white" stroke="#666666" points="2265,-74 2144,-74 2144,-55 2265,-55 2265,-74"/>
<text text-anchor="middle" x="2204.5" y="-62" font-family="Helvetica,sans-Serif" font-size="10.00">compat/os/openbsd.h</text>
</a>
</g>
</g>
<!-- Node5&#45;&gt;Node20 -->
<g id="edge19_Node000005_Node000020" class="edge">
<title>Node5&#45;&gt;Node20</title>
<g id="a_edge19_Node000005_Node000020"><a xlink:title=" ">
<path fill="none" stroke="#63b8ff" d="M1637.56,-115.04C1732.81,-108.42 1944.32,-93.04 2133.67,-74.04"/>
<polygon fill="#63b8ff" stroke="#63b8ff" points="2134.21,-77.51 2143.81,-73.02 2133.51,-70.54 2134.21,-77.51"/>
</a>
</g>
</g>
<!-- Node21 -->
<g id="Node000021" class="node">
<title>Node21</title>
<g id="a_Node000021"><a xlink:href="os2_8h.html" target="_top" xlink:title=" ">
<polygon fill="white" stroke="#666666" points="2380,-74 2283,-74 2283,-55 2380,-55 2380,-74"/>
<text text-anchor="middle" x="2331.5" y="-62" font-family="Helvetica,sans-Serif" font-size="10.00">compat/os/os2.h</text>
</a>
</g>
</g>
<!-- Node5&#45;&gt;Node21 -->
<g id="edge20_Node000005_Node000021" class="edge">
<title>Node5&#45;&gt;Node21</title>
<g id="a_edge20_Node000005_Node000021"><a xlink:title=" ">
<path fill="none" stroke="#63b8ff" d="M1637.9,-116.59C1750.76,-112.1 2028.93,-99.34 2272.69,-73.99"/>
<polygon fill="#63b8ff" stroke="#63b8ff" points="2273.22,-77.45 2282.8,-72.93 2272.49,-70.49 2273.22,-77.45"/>
</a>
</g>
</g>
<!-- Node22 -->
<g id="Node000022" class="node">
<title>Node22</title>
<g id="a_Node000022"><a xlink:href="qnx_8h.html" target="_top" xlink:title=" ">
<polygon fill="white" stroke="#666666" points="2496.5,-74 2398.5,-74 2398.5,-55 2496.5,-55 2496.5,-74"/>
<text text-anchor="middle" x="2447.5" y="-62" font-family="Helvetica,sans-Serif" font-size="10.00">compat/os/qnx.h</text>
</a>
</g>
</g>
<!-- Node5&#45;&gt;Node22 -->
<g id="edge21_Node000005_Node000022" class="edge">
<title>Node5&#45;&gt;Node22</title>
<g id="a_edge21_Node000005_Node000022"><a xlink:title=" ">
<path fill="none" stroke="#63b8ff" d="M1637.76,-117.21C1763.57,-113.72 2097.81,-102.42 2387.98,-73.94"/>
<polygon fill="#63b8ff" stroke="#63b8ff" points="2388.68,-77.39 2398.28,-72.92 2387.99,-70.42 2388.68,-77.39"/>
</a>
</g>
</g>
<!-- Node23 -->
<g id="Node000023" class="node">
<title>Node23</title>
<g id="a_Node000023"><a xlink:href="solaris_8h.html" target="_top" xlink:title=" ">
<polygon fill="white" stroke="#666666" points="2626.5,-74 2514.5,-74 2514.5,-55 2626.5,-55 2626.5,-74"/>
<text text-anchor="middle" x="2570.5" y="-62" font-family="Helvetica,sans-Serif" font-size="10.00">compat/os/solaris.h</text>
</a>
</g>
</g>
<!-- Node5&#45;&gt;Node23 -->
<g id="edge22_Node000005_Node000023" class="edge">
<title>Node5&#45;&gt;Node23</title>
<g id="a_edge22_Node000005_Node000023"><a xlink:title=" ">
<path fill="none" stroke="#63b8ff" d="M1637.66,-117.49C1775.69,-114.44 2167.42,-103.73 2503.73,-74.08"/>
<polygon fill="#63b8ff" stroke="#63b8ff" points="2504.51,-77.53 2514.16,-73.15 2503.89,-70.55 2504.51,-77.53"/>
</a>
</g>
</g>
<!-- Node24 -->
<g id="Node000024" class="node">
<title>Node24</title>
<g id="a_Node000024"><a xlink:href="sunos_8h.html" target="_top" xlink:title=" ">
<polygon fill="white" stroke="#666666" points="2752.5,-74 2644.5,-74 2644.5,-55 2752.5,-55 2752.5,-74"/>
<text text-anchor="middle" x="2698.5" y="-62" font-family="Helvetica,sans-Serif" font-size="10.00">compat/os/sunos.h</text>
</a>
</g>
</g>
<!-- Node5&#45;&gt;Node24 -->
<g id="edge23_Node000005_Node000024" class="edge">
<title>Node5&#45;&gt;Node24</title>
<g id="a_edge23_Node000005_Node000024"><a xlink:title=" ">
<path fill="none" stroke="#63b8ff" d="M1637.64,-117.99C1788.54,-116.13 2245.17,-107.98 2634.2,-74.03"/>
<polygon fill="#63b8ff" stroke="#63b8ff" points="2634.58,-77.51 2644.24,-73.14 2633.97,-70.53 2634.58,-77.51"/>
</a>
</g>
</g>
<!-- Node25 -->
<g id="Node000025" class="node">
<title>Node25</title>
<g id="a_Node000025"><a xlink:href="assert_8h.html" target="_top" xlink:title=" ">
<polygon fill="white" stroke="#666666" points="2866,-74 2771,-74 2771,-55 2866,-55 2866,-74"/>
<text text-anchor="middle" x="2818.5" y="-62" font-family="Helvetica,sans-Serif" font-size="10.00">compat/assert.h</text>
</a>
</g>
</g>
<!-- Node5&#45;&gt;Node25 -->
<g id="edge24_Node000005_Node000025" class="edge">
<title>Node5&#45;&gt;Node25</title>
<g id="a_edge24_Node000005_Node000025"><a xlink:title=" ">
<path fill="none" stroke="#63b8ff" d="M1637.59,-118.57C1800.16,-118.37 2320.1,-114.46 2760.89,-73.92"/>
<polygon fill="#63b8ff" stroke="#63b8ff" points="2761.33,-77.4 2770.96,-72.99 2760.68,-70.43 2761.33,-77.4"/>
</a>
</g>
</g>
<!-- Node26 -->
<g id="Node000026" class="node">
<title>Node26</title>
<g id="a_Node000026"><a xlink:href="compat__shared_8h.html" target="_top" xlink:title=" ">
<polygon fill="#fff0f0" stroke="red" points="3024.5,-74 2884.5,-74 2884.5,-55 3024.5,-55 3024.5,-74"/>
<text text-anchor="middle" x="2954.5" y="-62" font-family="Helvetica,sans-Serif" font-size="10.00">compat/compat_shared.h</text>
</a>
</g>
</g>
<!-- Node5&#45;&gt;Node26 -->
<g id="edge25_Node000005_Node000026" class="edge">
<title>Node5&#45;&gt;Node26</title>
<g id="a_edge25_Node000005_Node000026"><a xlink:title=" ">
<path fill="none" stroke="#63b8ff" d="M1637.8,-118.04C1810.45,-116.22 2386.41,-107.87 2874.22,-73.95"/>
<polygon fill="#63b8ff" stroke="#63b8ff" points="2874.55,-77.44 2884.28,-73.25 2874.06,-70.45 2874.55,-77.44"/>
</a>
</g>
</g>
<!-- Node36 -->
<g id="Node000036" class="node">
<title>Node36</title>
<g id="a_Node000036"><a xlink:href="stdvarargs_8h.html" target="_top" xlink:title=" ">
<polygon fill="#fff0f0" stroke="red" points="3160,-74 3043,-74 3043,-55 3160,-55 3160,-74"/>
<text text-anchor="middle" x="3101.5" y="-62" font-family="Helvetica,sans-Serif" font-size="10.00">compat/stdvarargs.h</text>
</a>
</g>
</g>
<!-- Node5&#45;&gt;Node36 -->
<g id="edge26_Node000005_Node000036" class="edge">
<title>Node5&#45;&gt;Node36</title>
<g id="a_edge26_Node000005_Node000036"><a xlink:title=" ">
<path fill="none" stroke="#63b8ff" d="M1637.54,-118.66C1823.17,-118.86 2480.09,-116.4 3032.76,-73.96"/>
<polygon fill="#63b8ff" stroke="#63b8ff" points="3033.23,-77.44 3042.93,-73.17 3032.69,-70.46 3033.23,-77.44"/>
</a>
</g>
</g>
<!-- Node38 -->
<g id="Node000038" class="node">
<title>Node38</title>
<g id="a_Node000038"><a xlink:href="stdio_8h.html" target="_top" xlink:title=" ">
<polygon fill="#fff0f0" stroke="red" points="89,-74 0,-74 0,-55 89,-55 89,-74"/>
<text text-anchor="middle" x="44.5" y="-62" font-family="Helvetica,sans-Serif" font-size="10.00">compat/stdio.h</text>
</a>
</g>
</g>
<!-- Node5&#45;&gt;Node38 -->
<g id="edge27_Node000005_Node000038" class="edge">
<title>Node5&#45;&gt;Node38</title>
<g id="a_edge27_Node000005_Node000038"><a xlink:title=" ">
<path fill="none" stroke="#63b8ff" d="M1535.48,-110.86C1532.45,-110.54 1529.44,-110.24 1526.5,-110 896.77,-57.64 731.89,-131.63 99.55,-74.06"/>
<polygon fill="#63b8ff" stroke="#63b8ff" points="99.54,-70.54 89.27,-73.11 98.9,-77.51 99.54,-70.54"/>
</a>
</g>
</g>
<!-- Node40 -->
<g id="Node000040" class="node">
<title>Node40</title>
<g id="a_Node000040"><a xlink:href="statvfs_8h.html" target="_top" xlink:title=" ">
<polygon fill="white" stroke="#666666" points="206,-74 107,-74 107,-55 206,-55 206,-74"/>
<text text-anchor="middle" x="156.5" y="-62" font-family="Helvetica,sans-Serif" font-size="10.00">compat/statvfs.h</text>
</a>
</g>
</g>
<!-- Node5&#45;&gt;Node40 -->
<g id="edge28_Node000005_Node000040" class="edge">
<title>Node5&#45;&gt;Node40</title>
<g id="a_edge28_Node000005_Node000040"><a xlink:title=" ">
<path fill="none" stroke="#63b8ff" d="M1535.48,-110.87C1532.45,-110.54 1529.44,-110.25 1526.5,-110 948.64,-61.3 797.42,-123.64 216.45,-74.06"/>
<polygon fill="#63b8ff" stroke="#63b8ff" points="216.39,-70.54 206.13,-73.17 215.79,-77.51 216.39,-70.54"/>
</a>
</g>
</g>
<!-- Node41 -->
<g id="Node000041" class="node">
<title>Node41</title>
<g id="a_Node000041"><a xlink:href="debug_8h.html" target="_top" xlink:title=" ">
<polygon fill="white" stroke="#666666" points="319,-74 224,-74 224,-55 319,-55 319,-74"/>
<text text-anchor="middle" x="271.5" y="-62" font-family="Helvetica,sans-Serif" font-size="10.00">compat/debug.h</text>
</a>
</g>
</g>
<!-- Node5&#45;&gt;Node41 -->
<g id="edge29_Node000005_Node000041" class="edge">
<title>Node5&#45;&gt;Node41</title>
<g id="a_edge29_Node000005_Node000041"><a xlink:title=" ">
<path fill="none" stroke="#63b8ff" d="M1535.48,-110.88C1532.45,-110.55 1529.44,-110.25 1526.5,-110 998.68,-64.83 860.21,-121.36 329.33,-74.05"/>
<polygon fill="#63b8ff" stroke="#63b8ff" points="329.38,-70.54 319.11,-73.13 328.76,-77.51 329.38,-70.54"/>
</a>
</g>
</g>
<!-- Node42 -->
<g id="Node000042" class="node">
<title>Node42</title>
<g id="a_Node000042"><a xlink:href="valgrind_8h.html" target="_top" xlink:title=" ">
<polygon fill="#fff0f0" stroke="red" points="442,-74 337,-74 337,-55 442,-55 442,-74"/>
<text text-anchor="middle" x="389.5" y="-62" font-family="Helvetica,sans-Serif" font-size="10.00">compat/valgrind.h</text>
</a>
</g>
</g>
<!-- Node5&#45;&gt;Node42 -->
<g id="edge30_Node000005_Node000042" class="edge">
<title>Node5&#45;&gt;Node42</title>
<g id="a_edge30_Node000005_Node000042"><a xlink:title=" ">
<path fill="none" stroke="#63b8ff" d="M1535.48,-110.89C1532.45,-110.56 1529.43,-110.26 1526.5,-110 1053.2,-68.68 928.98,-114.42 452.28,-74.05"/>
<polygon fill="#63b8ff" stroke="#63b8ff" points="452.29,-70.54 442.03,-73.18 451.7,-77.52 452.29,-70.54"/>
</a>
</g>
</g>
<!-- Node9 -->
<g id="Node000009" class="node">
<title>Node9</title>
<g id="a_Node000009"><a xlink:title=" ">
<polygon fill="#e0e0e0" stroke="#999999" points="784.5,-19 734.5,-19 734.5,0 784.5,0 784.5,-19"/>
<text text-anchor="middle" x="759.5" y="-7" font-family="Helvetica,sans-Serif" font-size="10.00">cstdint</text>
</a>
</g>
</g>
<!-- Node8&#45;&gt;Node9 -->
<g id="edge8_Node000008_Node000009" class="edge">
<title>Node8&#45;&gt;Node9</title>
<g id="a_edge8_Node000008_Node000009"><a xlink:title=" ">
<path fill="none" stroke="#63b8ff" d="M759.5,-54.75C759.5,-47.8 759.5,-37.85 759.5,-29.13"/>
<polygon fill="#63b8ff" stroke="#63b8ff" points="763,-29.09 759.5,-19.09 756,-29.09 763,-29.09"/>
</a>
</g>
</g>
<!-- Node45 -->
<g id="Node000045" class="node">
<title>Node45</title>
<g id="a_Node000045"><a xlink:href="adaptation_2forward_8h.html" target="_top" xlink:title=" ">
<polygon fill="white" stroke="#666666" points="3288,-129 3169,-129 3169,-110 3288,-110 3288,-129"/>
<text text-anchor="middle" x="3228.5" y="-117" font-family="Helvetica,sans-Serif" font-size="10.00">adaptation/forward.h</text>
</a>
</g>
</g>
<!-- Node44&#45;&gt;Node45 -->
<g id="edge32_Node000044_Node000045" class="edge">
<title>Node44&#45;&gt;Node45</title>
<g id="a_edge32_Node000044_Node000045"><a xlink:title=" ">
<path fill="none" stroke="#63b8ff" d="M3228.5,-164.75C3228.5,-157.8 3228.5,-147.85 3228.5,-139.13"/>
<polygon fill="#63b8ff" stroke="#63b8ff" points="3232,-139.09 3228.5,-129.09 3225,-139.09 3232,-139.09"/>
</a>
</g>
</g>
<!-- Node46 -->
<g id="Node000046" class="node">
<title>Node46</title>
<g id="a_Node000046"><a xlink:href="AsyncJob_8h.html" target="_top" xlink:title=" ">
<polygon fill="white" stroke="#666666" points="3402.5,-129 3306.5,-129 3306.5,-110 3402.5,-110 3402.5,-129"/>
<text text-anchor="middle" x="3354.5" y="-117" font-family="Helvetica,sans-Serif" font-size="10.00">base/AsyncJob.h</text>
</a>
</g>
</g>
<!-- Node44&#45;&gt;Node46 -->
<g id="edge33_Node000044_Node000046" class="edge">
<title>Node44&#45;&gt;Node46</title>
<g id="a_edge33_Node000044_Node000046"><a xlink:title=" ">
<path fill="none" stroke="#63b8ff" d="M3248.74,-164.98C3269.2,-156.38 3301.03,-142.99 3324.43,-133.15"/>
<polygon fill="#63b8ff" stroke="#63b8ff" points="3326.03,-136.27 3333.89,-129.17 3323.31,-129.82 3326.03,-136.27"/>
</a>
</g>
</g>
<!-- Node64 -->
<g id="Node000064" class="node">
<title>Node64</title>
<g id="a_Node000064"><a xlink:href="CbcPointer_8h.html" target="_top" xlink:title=" ">
<polygon fill="white" stroke="#666666" points="3524.5,-129 3420.5,-129 3420.5,-110 3524.5,-110 3524.5,-129"/>
<text text-anchor="middle" x="3472.5" y="-117" font-family="Helvetica,sans-Serif" font-size="10.00">base/CbcPointer.h</text>
</a>
</g>
</g>
<!-- Node44&#45;&gt;Node64 -->
<g id="edge38_Node000044_Node000064" class="edge">
<title>Node44&#45;&gt;Node64</title>
<g id="a_edge38_Node000044_Node000064"><a xlink:title=" ">
<path fill="none" stroke="#63b8ff" d="M3267.7,-164.98C3309.91,-155.82 3377.15,-141.21 3422.98,-131.26"/>
<polygon fill="#63b8ff" stroke="#63b8ff" points="3423.96,-134.63 3432.99,-129.08 3422.47,-127.78 3423.96,-134.63"/>
</a>
</g>
</g>
<!-- Node47 -->
<g id="Node000047" class="node">
<title>Node47</title>
<g id="a_Node000047"><a xlink:href="AsyncCall_8h.html" target="_top" xlink:title=" ">
<polygon fill="#fff0f0" stroke="red" points="3316.5,-74 3216.5,-74 3216.5,-55 3316.5,-55 3316.5,-74"/>
<text text-anchor="middle" x="3266.5" y="-62" font-family="Helvetica,sans-Serif" font-size="10.00">base/AsyncCall.h</text>
</a>
</g>
</g>
<!-- Node46&#45;&gt;Node47 -->
<g id="edge34_Node000046_Node000047" class="edge">
<title>Node46&#45;&gt;Node47</title>
<g id="a_edge34_Node000046_Node000047"><a xlink:title=" ">
<path fill="none" stroke="#63b8ff" d="M3340.36,-109.98C3326.71,-101.77 3305.81,-89.18 3289.72,-79.49"/>
<polygon fill="#63b8ff" stroke="#63b8ff" points="3291.27,-76.33 3280.9,-74.17 3287.66,-82.33 3291.27,-76.33"/>
</a>
</g>
</g>
<!-- Node49 -->
<g id="Node000049" class="node">
<title>Node49</title>
<g id="a_Node000049"><a xlink:href="InstanceId_8h.html" target="_top" xlink:title=" ">
<polygon fill="#fff0f0" stroke="red" points="3278.5,-19 3176.5,-19 3176.5,0 3278.5,0 3278.5,-19"/>
<text text-anchor="middle" x="3227.5" y="-7" font-family="Helvetica,sans-Serif" font-size="10.00">base/InstanceId.h</text>
</a>
</g>
</g>
<!-- Node46&#45;&gt;Node49 -->
<g id="edge36_Node000046_Node000049" class="edge">
<title>Node46&#45;&gt;Node49</title>
<g id="a_edge36_Node000046_Node000049"><a xlink:title=" ">
<path fill="none" stroke="#63b8ff" d="M3306.27,-110.27C3268.16,-102.66 3219.46,-90.11 3207.5,-74 3197.31,-60.27 3205.57,-41.22 3214.36,-27.57"/>
<polygon fill="#63b8ff" stroke="#63b8ff" points="3217.42,-29.31 3220.31,-19.12 3211.69,-25.28 3217.42,-29.31"/>
</a>
</g>
</g>
<!-- Node63 -->
<g id="Node000063" class="node">
<title>Node63</title>
<g id="a_Node000063"><a xlink:href="cbdata_8h.html" target="_top" xlink:title=" ">
<polygon fill="white" stroke="#666666" points="3394,-74 3335,-74 3335,-55 3394,-55 3394,-74"/>
<text text-anchor="middle" x="3364.5" y="-62" font-family="Helvetica,sans-Serif" font-size="10.00">cbdata.h</text>
</a>
</g>
</g>
<!-- Node46&#45;&gt;Node63 -->
<g id="edge37_Node000046_Node000063" class="edge">
<title>Node46&#45;&gt;Node63</title>
<g id="a_edge37_Node000046_Node000063"><a xlink:title=" ">
<path fill="none" stroke="#63b8ff" d="M3356.15,-109.75C3357.46,-102.8 3359.34,-92.85 3360.98,-84.13"/>
<polygon fill="#63b8ff" stroke="#63b8ff" points="3364.46,-84.56 3362.88,-74.09 3357.59,-83.27 3364.46,-84.56"/>
</a>
</g>
</g>
<!-- Node47&#45;&gt;Node49 -->
<g id="edge35_Node000047_Node000049" class="edge">
<title>Node47&#45;&gt;Node49</title>
<g id="a_edge35_Node000047_Node000049"><a xlink:title=" ">
<path fill="none" stroke="#63b8ff" d="M3260.06,-54.75C3254.61,-47.34 3246.64,-36.5 3239.94,-27.41"/>
<polygon fill="#63b8ff" stroke="#63b8ff" points="3242.57,-25.07 3233.82,-19.09 3236.93,-29.22 3242.57,-25.07"/>
</a>
</g>
</g>
<!-- Node64&#45;&gt;Node63 -->
<g id="edge41_Node000064_Node000063" class="edge">
<title>Node64&#45;&gt;Node63</title>
<g id="a_edge41_Node000064_Node000063"><a xlink:title=" ">
<path fill="none" stroke="#63b8ff" d="M3455.15,-109.98C3437.93,-101.54 3411.3,-88.47 3391.35,-78.68"/>
<polygon fill="#63b8ff" stroke="#63b8ff" points="3392.69,-75.43 3382.17,-74.17 3389.6,-81.72 3392.69,-75.43"/>
</a>
</g>
</g>
<!-- Node65 -->
<g id="Node000065" class="node">
<title>Node65</title>
<g id="a_Node000065"><a xlink:href="TextException_8h.html" target="_top" xlink:title=" ">
<polygon fill="#fff0f0" stroke="red" points="3532.5,-74 3412.5,-74 3412.5,-55 3532.5,-55 3532.5,-74"/>
<text text-anchor="middle" x="3472.5" y="-62" font-family="Helvetica,sans-Serif" font-size="10.00">base/TextException.h</text>
</a>
</g>
</g>
<!-- Node64&#45;&gt;Node65 -->
<g id="edge39_Node000064_Node000065" class="edge">
<title>Node64&#45;&gt;Node65</title>
<g id="a_edge39_Node000064_Node000065"><a xlink:title=" ">
<path fill="none" stroke="#63b8ff" d="M3472.5,-109.75C3472.5,-102.8 3472.5,-92.85 3472.5,-84.13"/>
<polygon fill="#63b8ff" stroke="#63b8ff" points="3476,-84.09 3472.5,-74.09 3469,-84.09 3476,-84.09"/>
</a>
</g>
</g>
<!-- Node69 -->
<g id="Node000069" class="node">
<title>Node69</title>
<g id="a_Node000069"><a xlink:href="debug_2Stream_8h.html" target="_top" xlink:title=" ">
<polygon fill="white" stroke="#666666" points="3644.5,-74 3550.5,-74 3550.5,-55 3644.5,-55 3644.5,-74"/>
<text text-anchor="middle" x="3597.5" y="-62" font-family="Helvetica,sans-Serif" font-size="10.00">debug/Stream.h</text>
</a>
</g>
</g>
<!-- Node64&#45;&gt;Node69 -->
<g id="edge42_Node000064_Node000069" class="edge">
<title>Node64&#45;&gt;Node69</title>
<g id="a_edge42_Node000064_Node000069"><a xlink:title=" ">
<path fill="none" stroke="#63b8ff" d="M3492.58,-109.98C3512.87,-101.38 3544.46,-87.99 3567.67,-78.15"/>
<polygon fill="#63b8ff" stroke="#63b8ff" points="3569.21,-81.3 3577.05,-74.17 3566.48,-74.85 3569.21,-81.3"/>
</a>
</g>
</g>
<!-- Node67 -->
<g id="Node000067" class="node">
<title>Node67</title>
<g id="a_Node000067"><a xlink:href="Here_8h.html" target="_top" xlink:title=" ">
<polygon fill="#fff0f0" stroke="red" points="3492,-19 3417,-19 3417,0 3492,0 3492,-19"/>
<text text-anchor="middle" x="3454.5" y="-7" font-family="Helvetica,sans-Serif" font-size="10.00">base/Here.h</text>
</a>
</g>
</g>
<!-- Node65&#45;&gt;Node67 -->
<g id="edge40_Node000065_Node000067" class="edge">
<title>Node65&#45;&gt;Node67</title>
<g id="a_edge40_Node000065_Node000067"><a xlink:title=" ">
<path fill="none" stroke="#63b8ff" d="M3469.53,-54.75C3467.14,-47.72 3463.71,-37.62 3460.73,-28.84"/>
<polygon fill="#63b8ff" stroke="#63b8ff" points="3463.95,-27.43 3457.42,-19.09 3457.32,-29.68 3463.95,-27.43"/>
</a>
</g>
</g>
<!-- Node69&#45;&gt;Node67 -->
<g id="edge43_Node000069_Node000067" class="edge">
<title>Node69&#45;&gt;Node67</title>
<g id="a_edge43_Node000069_Node000067"><a xlink:title=" ">
<path fill="none" stroke="#63b8ff" d="M3574.52,-54.98C3551,-46.27 3514.21,-32.63 3487.56,-22.75"/>
<polygon fill="#63b8ff" stroke="#63b8ff" points="3488.49,-19.36 3477.89,-19.17 3486.05,-25.93 3488.49,-19.36"/>
</a>
</g>
</g>
<!-- Node62 -->
<g id="Node000062" class="node">
<title>Node62</title>
<g id="a_Node000062"><a xlink:href="AllocatorProxy_8h.html" target="_top" xlink:title=" ">
<polygon fill="white" stroke="#666666" points="3859.5,-19 3735.5,-19 3735.5,0 3859.5,0 3859.5,-19"/>
<text text-anchor="middle" x="3797.5" y="-7" font-family="Helvetica,sans-Serif" font-size="10.00">mem/AllocatorProxy.h</text>
</a>
</g>
</g>
<!-- Node69&#45;&gt;Node62 -->
<g id="edge44_Node000069_Node000062" class="edge">
<title>Node69&#45;&gt;Node62</title>
<g id="a_edge44_Node000069_Node000062"><a xlink:title=" ">
<path fill="none" stroke="#63b8ff" d="M3629.63,-54.98C3663.65,-45.97 3717.5,-31.7 3755,-21.76"/>
<polygon fill="#63b8ff" stroke="#63b8ff" points="3756.34,-25.03 3765.11,-19.08 3754.55,-18.26 3756.34,-25.03"/>
</a>
</g>
</g>
<!-- Node53 -->
<g id="Node000053" class="node">
<title>Node53</title>
<g id="a_Node000053"><a xlink:title=" ">
<polygon fill="#e0e0e0" stroke="#999999" points="3569.5,-19 3509.5,-19 3509.5,0 3569.5,0 3569.5,-19"/>
<text text-anchor="middle" x="3539.5" y="-7" font-family="Helvetica,sans-Serif" font-size="10.00">iostream</text>
</a>
</g>
</g>
<!-- Node69&#45;&gt;Node53 -->
<g id="edge45_Node000069_Node000053" class="edge">
<title>Node69&#45;&gt;Node53</title>
<g id="a_edge45_Node000069_Node000053"><a xlink:title=" ">
<path fill="none" stroke="#63b8ff" d="M3588.18,-54.98C3579.69,-47.23 3566.94,-35.58 3556.62,-26.14"/>
<polygon fill="#63b8ff" stroke="#63b8ff" points="3558.73,-23.33 3548.99,-19.17 3554.01,-28.5 3558.73,-23.33"/>
</a>
</g>
</g>
<!-- Node70 -->
<g id="Node000070" class="node">
<title>Node70</title>
<g id="a_Node000070"><a xlink:title=" ">
<polygon fill="#e0e0e0" stroke="#999999" points="3643.5,-19 3587.5,-19 3587.5,0 3643.5,0 3643.5,-19"/>
<text text-anchor="middle" x="3615.5" y="-7" font-family="Helvetica,sans-Serif" font-size="10.00">sstream</text>
</a>
</g>
</g>
<!-- Node69&#45;&gt;Node70 -->
<g id="edge46_Node000069_Node000070" class="edge">
<title>Node69&#45;&gt;Node70</title>
<g id="a_edge46_Node000069_Node000070"><a xlink:title=" ">
<path fill="none" stroke="#63b8ff" d="M3600.47,-54.75C3602.86,-47.72 3606.29,-37.62 3609.27,-28.84"/>
<polygon fill="#63b8ff" stroke="#63b8ff" points="3612.68,-29.68 3612.58,-19.09 3606.05,-27.43 3612.68,-29.68"/>
</a>
</g>
</g>
<!-- Node71 -->
<g id="Node000071" class="node">
<title>Node71</title>
<g id="a_Node000071"><a xlink:title=" ">
<polygon fill="#e0e0e0" stroke="#999999" points="3717.5,-19 3661.5,-19 3661.5,0 3717.5,0 3717.5,-19"/>
<text text-anchor="middle" x="3689.5" y="-7" font-family="Helvetica,sans-Serif" font-size="10.00">iomanip</text>
</a>
</g>
</g>
<!-- Node69&#45;&gt;Node71 -->
<g id="edge47_Node000069_Node000071" class="edge">
<title>Node69&#45;&gt;Node71</title>
<g id="a_edge47_Node000069_Node000071"><a xlink:title=" ">
<path fill="none" stroke="#63b8ff" d="M3612.28,-54.98C3626.68,-46.69 3648.81,-33.94 3665.69,-24.22"/>
<polygon fill="#63b8ff" stroke="#63b8ff" points="3667.53,-27.19 3674.45,-19.17 3664.04,-21.13 3667.53,-27.19"/>
</a>
</g>
</g>
<!-- Node72&#45;&gt;Node45 -->
<g id="edge49_Node000072_Node000045" class="edge">
<title>Node72&#45;&gt;Node45</title>
<g id="a_edge49_Node000072_Node000045"><a xlink:title=" ">
<path fill="none" stroke="#63b8ff" d="M3342.65,-164.98C3320.38,-156.3 3285.6,-142.75 3260.28,-132.88"/>
<polygon fill="#63b8ff" stroke="#63b8ff" points="3261.34,-129.54 3250.75,-129.17 3258.79,-136.06 3261.34,-129.54"/>
</a>
</g>
</g>
<!-- Node72&#45;&gt;Node46 -->
<g id="edge50_Node000072_Node000046" class="edge">
<title>Node72&#45;&gt;Node46</title>
<g id="a_edge50_Node000072_Node000046"><a xlink:title=" ">
<path fill="none" stroke="#63b8ff" d="M3362.85,-164.75C3361.54,-157.8 3359.66,-147.85 3358.02,-139.13"/>
<polygon fill="#63b8ff" stroke="#63b8ff" points="3361.41,-138.27 3356.12,-129.09 3354.54,-139.56 3361.41,-138.27"/>
</a>
</g>
</g>
<!-- Node72&#45;&gt;Node64 -->
<g id="edge51_Node000072_Node000064" class="edge">
<title>Node72&#45;&gt;Node64</title>
<g id="a_edge51_Node000072_Node000064"><a xlink:title=" ">
<path fill="none" stroke="#63b8ff" d="M3381.85,-164.98C3399.07,-156.54 3425.7,-143.47 3445.65,-133.68"/>
<polygon fill="#63b8ff" stroke="#63b8ff" points="3447.4,-136.72 3454.83,-129.17 3444.31,-130.43 3447.4,-136.72"/>
</a>
</g>
</g>
<!-- Node73&#45;&gt;Node46 -->
<g id="edge53_Node000073_Node000046" class="edge">
<title>Node73&#45;&gt;Node46</title>
<g id="a_edge53_Node000073_Node000046"><a xlink:title=" ">
<path fill="none" stroke="#63b8ff" d="M3478.72,-164.98C3454.27,-156.23 3415.97,-142.51 3388.35,-132.62"/>
<polygon fill="#63b8ff" stroke="#63b8ff" points="3389.31,-129.25 3378.71,-129.17 3386.95,-135.84 3389.31,-129.25"/>
</a>
</g>
</g>
<!-- Node73&#45;&gt;Node64 -->
<g id="edge54_Node000073_Node000064" class="edge">
<title>Node73&#45;&gt;Node64</title>
<g id="a_edge54_Node000073_Node000064"><a xlink:title=" ">
<path fill="none" stroke="#63b8ff" d="M3497.55,-164.75C3493.44,-157.49 3487.47,-146.95 3482.4,-137.98"/>
<polygon fill="#63b8ff" stroke="#63b8ff" points="3485.33,-136.07 3477.36,-129.09 3479.24,-139.52 3485.33,-136.07"/>
</a>
</g>
</g>
<!-- Node73&#45;&gt;Node69 -->
<g id="edge59_Node000073_Node000069" class="edge">
<title>Node73&#45;&gt;Node69</title>
<g id="a_edge59_Node000073_Node000069"><a xlink:title=" ">
<path fill="none" stroke="#63b8ff" d="M3510.27,-164.66C3526.22,-146.54 3562.83,-104.91 3583.19,-81.77"/>
<polygon fill="#63b8ff" stroke="#63b8ff" points="3585.91,-83.98 3589.88,-74.16 3580.65,-79.36 3585.91,-83.98"/>
</a>
</g>
</g>
<!-- Node74 -->
<g id="Node000074" class="node">
<title>Node74</title>
<g id="a_Node000074"><a xlink:href="debug_2Messages_8h.html" target="_top" xlink:title=" ">
<polygon fill="white" stroke="#666666" points="3724,-129 3617,-129 3617,-110 3724,-110 3724,-129"/>
<text text-anchor="middle" x="3670.5" y="-117" font-family="Helvetica,sans-Serif" font-size="10.00">debug/Messages.h</text>
</a>
</g>
</g>
<!-- Node73&#45;&gt;Node74 -->
<g id="edge55_Node000073_Node000074" class="edge">
<title>Node73&#45;&gt;Node74</title>
<g id="a_edge55_Node000073_Node000074"><a xlink:title=" ">
<path fill="none" stroke="#63b8ff" d="M3529.49,-164.98C3557.7,-156.09 3602.14,-142.07 3633.58,-132.15"/>
<polygon fill="#63b8ff" stroke="#63b8ff" points="3634.81,-135.43 3643.3,-129.08 3632.71,-128.75 3634.81,-135.43"/>
</a>
</g>
</g>
<!-- Node74&#45;&gt;Node69 -->
<g id="edge56_Node000074_Node000069" class="edge">
<title>Node74&#45;&gt;Node69</title>
<g id="a_edge56_Node000074_Node000069"><a xlink:title=" ">
<path fill="none" stroke="#63b8ff" d="M3658.77,-109.98C3647.77,-102 3631.08,-89.88 3617.9,-80.31"/>
<polygon fill="#63b8ff" stroke="#63b8ff" points="3619.59,-77.21 3609.44,-74.17 3615.48,-82.88 3619.59,-77.21"/>
</a>
</g>
</g>
<!-- Node75 -->
<g id="Node000075" class="node">
<title>Node75</title>
<g id="a_Node000075"><a xlink:title=" ">
<polygon fill="#e0e0e0" stroke="#999999" points="3704.5,-74 3662.5,-74 3662.5,-55 3704.5,-55 3704.5,-74"/>
<text text-anchor="middle" x="3683.5" y="-62" font-family="Helvetica,sans-Serif" font-size="10.00">array</text>
</a>
</g>
</g>
<!-- Node74&#45;&gt;Node75 -->
<g id="edge57_Node000074_Node000075" class="edge">
<title>Node74&#45;&gt;Node75</title>
<g id="a_edge57_Node000074_Node000075"><a xlink:title=" ">
<path fill="none" stroke="#63b8ff" d="M3672.65,-109.75C3674.37,-102.72 3676.85,-92.62 3679,-83.84"/>
<polygon fill="#63b8ff" stroke="#63b8ff" points="3682.41,-84.63 3681.39,-74.09 3675.61,-82.97 3682.41,-84.63"/>
</a>
</g>
</g>
<!-- Node76 -->
<g id="Node000076" class="node">
<title>Node76</title>
<g id="a_Node000076"><a xlink:title=" ">
<polygon fill="#e0e0e0" stroke="#999999" points="3766.5,-74 3722.5,-74 3722.5,-55 3766.5,-55 3766.5,-74"/>
<text text-anchor="middle" x="3744.5" y="-62" font-family="Helvetica,sans-Serif" font-size="10.00">limits</text>
</a>
</g>
</g>
<!-- Node74&#45;&gt;Node76 -->
<g id="edge58_Node000074_Node000076" class="edge">
<title>Node74&#45;&gt;Node76</title>
<g id="a_edge58_Node000074_Node000076"><a xlink:title=" ">
<path fill="none" stroke="#63b8ff" d="M3682.39,-109.98C3693.65,-101.92 3710.79,-89.65 3724.21,-80.03"/>
<polygon fill="#63b8ff" stroke="#63b8ff" points="3726.3,-82.84 3732.39,-74.17 3722.23,-77.15 3726.3,-82.84"/>
</a>
</g>
</g>
</g>
</svg>

<g id="navigator" transform="translate(0 0)" fill="#404254">
  <rect fill="#f2f5e9" fill-opacity="0.5" stroke="#606060" stroke-width=".5" x="0" y="0" width="60" height="60"/>
  <use id="zoomplus" xlink:href="#zoomPlus" x="17" y="9" onmousedown="handleZoom(evt,'in')"/>
  <use id="zoomminus" xlink:href="#zoomMin" x="42" y="9" onmousedown="handleZoom(evt,'out')"/>
  <use id="reset" xlink:href="#resetDef" x="30" y="36" onmousedown="handleReset()"/>
   <use id="arrowup" xlink:href="#arrowUp" x="0" y="0" onmousedown="handlePan(0,-1)"/>
  <use id="arrowright" xlink:href="#arrowRight" x="0" y="0" onmousedown="handlePan(1,0)"/>
  <use id="arrowdown" xlink:href="#arrowDown" x="0" y="0" onmousedown="handlePan(0,1)"/>
  <use id="arrowleft" xlink:href="#arrowLeft" x="0" y="0" onmousedown="handlePan(-1,0)"/>
</g>
<svg viewBox="0 0 15 15" width="100%" height="30px" preserveAspectRatio="xMaxYMin meet">
 <g id="arrow_out" transform="scale(0.3 0.3)">
  <a xlink:href="Initiator_8cc__incl_org.svg" target="_base">
   <rect id="button" ry="5" rx="5" y="6" x="6" height="38" width="38"
        fill="#f2f5e9" fill-opacity="0.5" stroke="#606060" stroke-width="1.0"/>
   <path id="arrow"
     d="M 11.500037,31.436501 C 11.940474,20.09759 22.043105,11.32322 32.158766,21.979434 L 37.068811,17.246167 C 37.068811,17.246167 37.088388,32 37.088388,32 L 22.160133,31.978069 C 22.160133,31.978069 26.997745,27.140456 26.997745,27.140456 C 18.528582,18.264221 13.291696,25.230495 11.500037,31.436501 z"
     style="fill:#404040;"/>
  </a>
 </g>
</svg>

<style type='text/css'>
<![CDATA[
[data-mouse-over-selected='false'] { opacity: 0.7; }
[data-mouse-over-selected='true']  { opacity: 1.0; }
]]>
</style>
<script type="application/ecmascript"><![CDATA[
document.addEventListener('DOMContentLoaded', (event) => {
  highlightEdges();
  highlightAdjacentNodes();
});
]]></script>
</svg>
