<?xml version="1.0" encoding="UTF-8" standalone="no"?>
<!DOCTYPE svg PUBLIC "-//W3C//DTD SVG 1.1//EN"
 "http://www.w3.org/Graphics/SVG/1.1/DTD/svg11.dtd">
<!-- Generated by graphviz version 2.43.0 (0)
 -->
<!-- Title: squid/src/mgr/IntervalAction.h Pages: 1 -->
<svg width="417pt" height="93pt"
 viewBox="0.00 0.00 417.00 93.00" xmlns="http://www.w3.org/2000/svg" xmlns:xlink="http://www.w3.org/1999/xlink">

<svg id="main" version="1.1" xmlns="http://www.w3.org/2000/svg" xmlns:xlink="http://www.w3.org/1999/xlink" xml:space="preserve" onload="init(evt)">
<style type="text/css"><![CDATA[
.node, .edge {opacity: 0.7;}
.node.selected, .edge.selected {opacity: 1;}
.edge:hover path { stroke: red; }
.edge:hover polygon { stroke: red; fill: red; }
]]></style>
<script type="application/ecmascript" xlink:href="svg.min.js"/>
<svg id="graph" class="graph">
<g id="graph0" class="graph" transform="scale(1 1) rotate(0) translate(4 89)">
<title>squid/src/mgr/IntervalAction.h</title>
<!-- Node1 -->
<g id="Node000001" class="node">
<title>Node1</title>
<g id="a_Node000001"><a xlink:title=" ">
<polygon fill="#999999" stroke="#666666" points="314,-85 151,-85 151,-66 314,-66 314,-85"/>
<text text-anchor="middle" x="232.5" y="-73" font-family="Helvetica,sans-Serif" font-size="10.00">squid/src/mgr/IntervalAction.h</text>
</a>
</g>
</g>
<!-- Node2 -->
<g id="Node000002" class="node">
<title>Node2</title>
<g id="a_Node000002"><a xlink:href="IntervalAction_8cc.html" target="_top" xlink:title=" ">
<polygon fill="white" stroke="#666666" points="167,-24.5 0,-24.5 0,-5.5 167,-5.5 167,-24.5"/>
<text text-anchor="middle" x="83.5" y="-12.5" font-family="Helvetica,sans-Serif" font-size="10.00">squid/src/mgr/IntervalAction.cc</text>
</a>
</g>
</g>
<!-- Node1&#45;&gt;Node2 -->
<g id="edge1_Node000001_Node000002" class="edge">
<title>Node1&#45;&gt;Node2</title>
<g id="a_edge1_Node000001_Node000002"><a xlink:title=" ">
<path fill="none" stroke="#63b8ff" d="M201.25,-62.23C172.45,-50.92 130.47,-34.44 105.19,-24.52"/>
<polygon fill="#63b8ff" stroke="#63b8ff" points="200.25,-65.6 210.83,-65.99 202.8,-59.08 200.25,-65.6"/>
</a>
</g>
</g>
<!-- Node3 -->
<g id="Node000003" class="node">
<title>Node3</title>
<g id="a_Node000003"><a xlink:href="stat_8cc.html" target="_top" xlink:title=" ">
<polygon fill="white" stroke="#666666" points="280,-24.5 185,-24.5 185,-5.5 280,-5.5 280,-24.5"/>
<text text-anchor="middle" x="232.5" y="-12.5" font-family="Helvetica,sans-Serif" font-size="10.00">squid/src/stat.cc</text>
</a>
</g>
</g>
<!-- Node1&#45;&gt;Node3 -->
<g id="edge2_Node000001_Node000003" class="edge">
<title>Node1&#45;&gt;Node3</title>
<g id="a_edge2_Node000001_Node000003"><a xlink:title=" ">
<path fill="none" stroke="#63b8ff" d="M232.5,-55.66C232.5,-45.24 232.5,-32.8 232.5,-24.67"/>
<polygon fill="#63b8ff" stroke="#63b8ff" points="229,-55.87 232.5,-65.87 236,-55.87 229,-55.87"/>
</a>
</g>
</g>
<!-- Node4 -->
<g id="Node000004" class="node">
<title>Node4</title>
<g id="a_Node000004"><a xlink:href="stub__libmgr_8cc.html" target="_top" xlink:title=" ">
<polygon fill="white" stroke="#666666" points="409,-30 298,-30 298,0 409,0 409,-30"/>
<text text-anchor="start" x="306" y="-18" font-family="Helvetica,sans-Serif" font-size="10.00">squid/src/tests/stub</text>
<text text-anchor="middle" x="353.5" y="-7" font-family="Helvetica,sans-Serif" font-size="10.00">_libmgr.cc</text>
</a>
</g>
</g>
<!-- Node1&#45;&gt;Node4 -->
<g id="edge3_Node000001_Node000004" class="edge">
<title>Node1&#45;&gt;Node4</title>
<g id="a_edge3_Node000001_Node000004"><a xlink:title=" ">
<path fill="none" stroke="#63b8ff" d="M259.2,-61.59C278.43,-52.29 304.37,-39.75 324.18,-30.18"/>
<polygon fill="#63b8ff" stroke="#63b8ff" points="257.57,-58.49 250.09,-65.99 260.62,-64.79 257.57,-58.49"/>
</a>
</g>
</g>
</g>
</svg>
</svg>

<style type='text/css'>
<![CDATA[
[data-mouse-over-selected='false'] { opacity: 0.7; }
[data-mouse-over-selected='true']  { opacity: 1.0; }
]]>
</style>
<script type="application/ecmascript"><![CDATA[
document.addEventListener('DOMContentLoaded', (event) => {
  highlightEdges();
  highlightAdjacentNodes();
});
]]></script>
</svg>
