<?xml version="1.0" encoding="UTF-8" standalone="no"?>
<!DOCTYPE svg PUBLIC "-//W3C//DTD SVG 1.1//EN"
 "http://www.w3.org/Graphics/SVG/1.1/DTD/svg11.dtd">
<!-- Generated by graphviz version 2.43.0 (0)
 -->
<!-- Title: squid/src/acl/IntRange.cc Pages: 1 -->
<!--zoomable 247 -->

<svg id="main" version="1.1" xmlns="http://www.w3.org/2000/svg" xmlns:xlink="http://www.w3.org/1999/xlink" xml:space="preserve" onload="init(evt)">
<style type="text/css"><![CDATA[
.node, .edge {opacity: 0.7;}
.node.selected, .edge.selected {opacity: 1;}
.edge:hover path { stroke: red; }
.edge:hover polygon { stroke: red; fill: red; }
]]></style>

<defs>
  <circle id="rim" cx="0" cy="0" r="7"/>
  <circle id="rim2" cx="0" cy="0" r="3.5"/>
  <g id="zoomPlus">
    <use xlink:href="#rim" fill="#404040"><set attributeName="fill" to="#808080" begin="zoomplus.mouseover" end="zoomplus.mouseout"/></use>
    <path d="M-4,0h8M0,-4v8" fill="none" stroke="white" stroke-width="1.5" pointer-events="none"/>
  </g>
  <g id="zoomMin">
    <use xlink:href="#rim" fill="#404040"><set attributeName="fill" to="#808080" begin="zoomminus.mouseover" end="zoomminus.mouseout"/></use>
    <path d="M-4,0h8" fill="none" stroke="white" stroke-width="1.5" pointer-events="none"/>
  </g>
  <g id="arrowUp" transform="translate(30 24)">
    <use xlink:href="#rim"/>
    <path pointer-events="none" fill="none" stroke="white" stroke-width="1.5" d="M0,-3.0v7 M-2.5,-0.5L0,-3.0L2.5,-0.5"/>
  </g>
  <g id="arrowRight" transform="rotate(90) translate(36 -43)">
    <use xlink:href="#rim"/>
    <path pointer-events="none" fill="none" stroke="white" stroke-width="1.5" d="M0,-3.0v7 M-2.5,-0.5L0,-3.0L2.5,-0.5"/>
  </g>
  <g id="arrowDown" transform="rotate(180) translate(-30 -48)">
    <use xlink:href="#rim"/>
    <path pointer-events="none" fill="none" stroke="white" stroke-width="1.5" d="M0,-3.0v7 M-2.5,-0.5L0,-3.0L2.5,-0.5"/>
  </g>
  <g id="arrowLeft" transform="rotate(270) translate(-36 17)">
    <use xlink:href="#rim"/>
    <path pointer-events="none" fill="none" stroke="white" stroke-width="1.5" d="M0,-3.0v7 M-2.5,-0.5L0,-3.0L2.5,-0.5"/>
  </g>
  <g id="resetDef">
    <use xlink:href="#rim2" fill="#404040"><set attributeName="fill" to="#808080" begin="reset.mouseover" end="reset.mouseout"/></use>
  </g>
</defs>
<script type="application/ecmascript">
var viewWidth = 3758;
var viewHeight = 247;
var sectionId = 'dynsection-0';
</script>
<script type="application/ecmascript" xlink:href="svg.min.js"/>
<svg id="graph" class="graph">
<g id="viewport">
<title>squid/src/acl/IntRange.cc</title>
<!-- Node1 -->
<g id="Node000001" class="node">
<title>Node1</title>
<g id="a_Node000001"><a xlink:title=" ">
<polygon fill="#999999" stroke="#666666" points="3417,-239 3280,-239 3280,-220 3417,-220 3417,-239"/>
<text text-anchor="middle" x="3348.5" y="-227" font-family="Helvetica,sans-Serif" font-size="10.00">squid/src/acl/IntRange.cc</text>
</a>
</g>
</g>
<!-- Node2 -->
<g id="Node000002" class="node">
<title>Node2</title>
<g id="a_Node000002"><a xlink:href="squid_8h.html" target="_top" xlink:title=" ">
<polygon fill="white" stroke="#666666" points="1514.5,-184 1462.5,-184 1462.5,-165 1514.5,-165 1514.5,-184"/>
<text text-anchor="middle" x="1488.5" y="-172" font-family="Helvetica,sans-Serif" font-size="10.00">squid.h</text>
</a>
</g>
</g>
<!-- Node1&#45;&gt;Node2 -->
<g id="edge1_Node000001_Node000002" class="edge">
<title>Node1&#45;&gt;Node2</title>
<g id="a_edge1_Node000001_Node000002"><a xlink:title=" ">
<path fill="none" stroke="#63b8ff" d="M3279.82,-226.54C2975.15,-217.86 1750.82,-182.97 1524.55,-176.53"/>
<polygon fill="#63b8ff" stroke="#63b8ff" points="1524.64,-173.03 1514.54,-176.24 1524.44,-180.03 1524.64,-173.03"/>
</a>
</g>
</g>
<!-- Node45 -->
<g id="Node000045" class="node">
<title>Node45</title>
<g id="a_Node000045"><a xlink:href="IntRange_8h.html" target="_top" xlink:title=" ">
<polygon fill="white" stroke="#666666" points="2955.5,-184 2869.5,-184 2869.5,-165 2955.5,-165 2955.5,-184"/>
<text text-anchor="middle" x="2912.5" y="-172" font-family="Helvetica,sans-Serif" font-size="10.00">acl/IntRange.h</text>
</a>
</g>
</g>
<!-- Node1&#45;&gt;Node45 -->
<g id="edge28_Node000001_Node000045" class="edge">
<title>Node1&#45;&gt;Node45</title>
<g id="a_edge28_Node000001_Node000045"><a xlink:title=" ">
<path fill="none" stroke="#63b8ff" d="M3279.9,-220.16C3192.91,-209.59 3044.79,-191.58 2965.8,-181.98"/>
<polygon fill="#63b8ff" stroke="#63b8ff" points="2965.94,-178.47 2955.59,-180.74 2965.1,-185.42 2965.94,-178.47"/>
</a>
</g>
</g>
<!-- Node88 -->
<g id="Node000088" class="node">
<title>Node88</title>
<g id="a_Node000088"><a xlink:href="cache__cf_8h.html" target="_top" xlink:title=" ">
<polygon fill="white" stroke="#666666" points="3287.5,-184 3219.5,-184 3219.5,-165 3287.5,-165 3287.5,-184"/>
<text text-anchor="middle" x="3253.5" y="-172" font-family="Helvetica,sans-Serif" font-size="10.00">cache_cf.h</text>
</a>
</g>
</g>
<!-- Node1&#45;&gt;Node88 -->
<g id="edge32_Node000001_Node000088" class="edge">
<title>Node1&#45;&gt;Node88</title>
<g id="a_edge32_Node000001_Node000088"><a xlink:title=" ">
<path fill="none" stroke="#63b8ff" d="M3333.24,-219.98C3318.37,-211.69 3295.52,-198.94 3278.08,-189.22"/>
<polygon fill="#63b8ff" stroke="#63b8ff" points="3279.48,-185.99 3269.04,-184.17 3276.07,-192.1 3279.48,-185.99"/>
</a>
</g>
</g>
<!-- Node89 -->
<g id="Node000089" class="node">
<title>Node89</title>
<g id="a_Node000089"><a xlink:href="ConfigParser_8h.html" target="_top" xlink:title=" ">
<polygon fill="white" stroke="#666666" points="3391.5,-184 3305.5,-184 3305.5,-165 3391.5,-165 3391.5,-184"/>
<text text-anchor="middle" x="3348.5" y="-172" font-family="Helvetica,sans-Serif" font-size="10.00">ConfigParser.h</text>
</a>
</g>
</g>
<!-- Node1&#45;&gt;Node89 -->
<g id="edge33_Node000001_Node000089" class="edge">
<title>Node1&#45;&gt;Node89</title>
<g id="a_edge33_Node000001_Node000089"><a xlink:title=" ">
<path fill="none" stroke="#63b8ff" d="M3348.5,-219.75C3348.5,-212.8 3348.5,-202.85 3348.5,-194.13"/>
<polygon fill="#63b8ff" stroke="#63b8ff" points="3352,-194.09 3348.5,-184.09 3345,-194.09 3352,-194.09"/>
</a>
</g>
</g>
<!-- Node65 -->
<g id="Node000065" class="node">
<title>Node65</title>
<g id="a_Node000065"><a xlink:href="debug_2Stream_8h.html" target="_top" xlink:title=" ">
<polygon fill="white" stroke="#666666" points="3528.5,-74 3434.5,-74 3434.5,-55 3528.5,-55 3528.5,-74"/>
<text text-anchor="middle" x="3481.5" y="-62" font-family="Helvetica,sans-Serif" font-size="10.00">debug/Stream.h</text>
</a>
</g>
</g>
<!-- Node1&#45;&gt;Node65 -->
<g id="edge50_Node000001_Node000065" class="edge">
<title>Node1&#45;&gt;Node65</title>
<g id="a_edge50_Node000001_Node000065"><a xlink:title=" ">
<path fill="none" stroke="#63b8ff" d="M3411.42,-219.96C3465.19,-208.97 3539.43,-184.2 3575.5,-129 3591.37,-104.72 3557.87,-87.36 3526.56,-77"/>
<polygon fill="#63b8ff" stroke="#63b8ff" points="3527.55,-73.64 3516.96,-74 3525.47,-80.32 3527.55,-73.64"/>
</a>
</g>
</g>
<!-- Node96 -->
<g id="Node000096" class="node">
<title>Node96</title>
<g id="a_Node000096"><a xlink:href="fatal_8h.html" target="_top" xlink:title=" ">
<polygon fill="white" stroke="#666666" points="3670.5,-184 3622.5,-184 3622.5,-165 3670.5,-165 3670.5,-184"/>
<text text-anchor="middle" x="3646.5" y="-172" font-family="Helvetica,sans-Serif" font-size="10.00">fatal.h</text>
</a>
</g>
</g>
<!-- Node1&#45;&gt;Node96 -->
<g id="edge51_Node000001_Node000096" class="edge">
<title>Node1&#45;&gt;Node96</title>
<g id="a_edge51_Node000001_Node000096"><a xlink:title=" ">
<path fill="none" stroke="#63b8ff" d="M3403.18,-219.97C3455.89,-211.54 3537.85,-197.94 3608.5,-184 3609.77,-183.75 3611.06,-183.49 3612.36,-183.22"/>
<polygon fill="#63b8ff" stroke="#63b8ff" points="3613.36,-186.59 3622.42,-181.08 3611.91,-179.74 3613.36,-186.59"/>
</a>
</g>
</g>
<!-- Node97 -->
<g id="Node000097" class="node">
<title>Node97</title>
<g id="a_Node000097"><a xlink:title=" ">
<polygon fill="#e0e0e0" stroke="#999999" points="3750,-184 3689,-184 3689,-165 3750,-165 3750,-184"/>
<text text-anchor="middle" x="3719.5" y="-172" font-family="Helvetica,sans-Serif" font-size="10.00">Parsing.h</text>
</a>
</g>
</g>
<!-- Node1&#45;&gt;Node97 -->
<g id="edge52_Node000001_Node000097" class="edge">
<title>Node1&#45;&gt;Node97</title>
<g id="a_edge52_Node000001_Node000097"><a xlink:title=" ">
<path fill="none" stroke="#63b8ff" d="M3417.2,-220.8C3482.08,-213.18 3582.31,-200.51 3679.02,-183.96"/>
<polygon fill="#63b8ff" stroke="#63b8ff" points="3679.71,-187.39 3688.97,-182.24 3678.52,-180.49 3679.71,-187.39"/>
</a>
</g>
</g>
<!-- Node3 -->
<g id="Node000003" class="node">
<title>Node3</title>
<g id="a_Node000003"><a xlink:href="autoconf_8h.html" target="_top" xlink:title=" ">
<polygon fill="white" stroke="#666666" points="1389.5,-129 1321.5,-129 1321.5,-110 1389.5,-110 1389.5,-129"/>
<text text-anchor="middle" x="1355.5" y="-117" font-family="Helvetica,sans-Serif" font-size="10.00">autoconf.h</text>
</a>
</g>
</g>
<!-- Node2&#45;&gt;Node3 -->
<g id="edge2_Node000002_Node000003" class="edge">
<title>Node2&#45;&gt;Node3</title>
<g id="a_edge2_Node000002_Node000003"><a xlink:title=" ">
<path fill="none" stroke="#63b8ff" d="M1467.13,-164.98C1445.35,-156.3 1411.34,-142.75 1386.58,-132.88"/>
<polygon fill="#63b8ff" stroke="#63b8ff" points="1387.84,-129.62 1377.26,-129.17 1385.25,-136.12 1387.84,-129.62"/>
</a>
</g>
</g>
<!-- Node4 -->
<g id="Node000004" class="node">
<title>Node4</title>
<g id="a_Node000004"><a xlink:href="version_8h.html" target="_top" xlink:title=" ">
<polygon fill="white" stroke="#666666" points="1469.5,-129 1407.5,-129 1407.5,-110 1469.5,-110 1469.5,-129"/>
<text text-anchor="middle" x="1438.5" y="-117" font-family="Helvetica,sans-Serif" font-size="10.00">version.h</text>
</a>
</g>
</g>
<!-- Node2&#45;&gt;Node4 -->
<g id="edge3_Node000002_Node000004" class="edge">
<title>Node2&#45;&gt;Node4</title>
<g id="a_edge3_Node000002_Node000004"><a xlink:title=" ">
<path fill="none" stroke="#63b8ff" d="M1480.24,-164.75C1473.04,-157.11 1462.39,-145.82 1453.65,-136.56"/>
<polygon fill="#63b8ff" stroke="#63b8ff" points="1456.01,-133.96 1446.6,-129.09 1450.92,-138.76 1456.01,-133.96"/>
</a>
</g>
</g>
<!-- Node5 -->
<g id="Node000005" class="node">
<title>Node5</title>
<g id="a_Node000005"><a xlink:href="compat_8h.html" target="_top" xlink:title=" ">
<polygon fill="#fff0f0" stroke="red" points="1589.5,-129 1487.5,-129 1487.5,-110 1589.5,-110 1589.5,-129"/>
<text text-anchor="middle" x="1538.5" y="-117" font-family="Helvetica,sans-Serif" font-size="10.00">compat/compat.h</text>
</a>
</g>
</g>
<!-- Node2&#45;&gt;Node5 -->
<g id="edge4_Node000002_Node000005" class="edge">
<title>Node2&#45;&gt;Node5</title>
<g id="a_edge4_Node000002_Node000005"><a xlink:title=" ">
<path fill="none" stroke="#63b8ff" d="M1496.76,-164.75C1503.96,-157.11 1514.61,-145.82 1523.35,-136.56"/>
<polygon fill="#63b8ff" stroke="#63b8ff" points="1526.08,-138.76 1530.4,-129.09 1520.99,-133.96 1526.08,-138.76"/>
</a>
</g>
</g>
<!-- Node6 -->
<g id="Node000006" class="node">
<title>Node6</title>
<g id="a_Node000006"><a xlink:href="osdetect_8h.html" target="_top" xlink:title=" ">
<polygon fill="white" stroke="#666666" points="107,-74 0,-74 0,-55 107,-55 107,-74"/>
<text text-anchor="middle" x="53.5" y="-62" font-family="Helvetica,sans-Serif" font-size="10.00">compat/osdetect.h</text>
</a>
</g>
</g>
<!-- Node5&#45;&gt;Node6 -->
<g id="edge5_Node000005_Node000006" class="edge">
<title>Node5&#45;&gt;Node6</title>
<g id="a_edge5_Node000005_Node000006"><a xlink:title=" ">
<path fill="none" stroke="#63b8ff" d="M1487.48,-110.87C1484.45,-110.54 1481.44,-110.25 1478.5,-110 878.46,-59.73 721.85,-121.85 117.36,-73.95"/>
<polygon fill="#63b8ff" stroke="#63b8ff" points="117.32,-70.44 107.07,-73.13 116.76,-77.41 117.32,-70.44"/>
</a>
</g>
</g>
<!-- Node7 -->
<g id="Node000007" class="node">
<title>Node7</title>
<g id="a_Node000007"><a xlink:href="fdsetsize_8h.html" target="_top" xlink:title=" ">
<polygon fill="white" stroke="#666666" points="235.5,-74 125.5,-74 125.5,-55 235.5,-55 235.5,-74"/>
<text text-anchor="middle" x="180.5" y="-62" font-family="Helvetica,sans-Serif" font-size="10.00">compat/fdsetsize.h</text>
</a>
</g>
</g>
<!-- Node5&#45;&gt;Node7 -->
<g id="edge6_Node000005_Node000007" class="edge">
<title>Node5&#45;&gt;Node7</title>
<g id="a_edge6_Node000005_Node000007"><a xlink:title=" ">
<path fill="none" stroke="#63b8ff" d="M1487.48,-110.88C1484.45,-110.55 1481.44,-110.25 1478.5,-110 935.14,-63.73 793.13,-117.51 245.75,-74"/>
<polygon fill="#63b8ff" stroke="#63b8ff" points="245.87,-70.5 235.62,-73.19 245.31,-77.48 245.87,-70.5"/>
</a>
</g>
</g>
<!-- Node8 -->
<g id="Node000008" class="node">
<title>Node8</title>
<g id="a_Node000008"><a xlink:href="types_8h.html" target="_top" xlink:title=" ">
<polygon fill="#fff0f0" stroke="red" points="345.5,-74 253.5,-74 253.5,-55 345.5,-55 345.5,-74"/>
<text text-anchor="middle" x="299.5" y="-62" font-family="Helvetica,sans-Serif" font-size="10.00">compat/types.h</text>
</a>
</g>
</g>
<!-- Node5&#45;&gt;Node8 -->
<g id="edge7_Node000005_Node000008" class="edge">
<title>Node5&#45;&gt;Node8</title>
<g id="a_edge7_Node000005_Node000008"><a xlink:title=" ">
<path fill="none" stroke="#63b8ff" d="M1487.48,-110.89C1484.45,-110.55 1481.43,-110.25 1478.5,-110 983.83,-67.17 853.88,-119.55 355.63,-73.97"/>
<polygon fill="#63b8ff" stroke="#63b8ff" points="355.94,-70.48 345.66,-73.05 355.3,-77.45 355.94,-70.48"/>
</a>
</g>
</g>
<!-- Node10 -->
<g id="Node000010" class="node">
<title>Node10</title>
<g id="a_Node000010"><a xlink:href="aix_8h.html" target="_top" xlink:title=" ">
<polygon fill="white" stroke="#666666" points="459,-74 364,-74 364,-55 459,-55 459,-74"/>
<text text-anchor="middle" x="411.5" y="-62" font-family="Helvetica,sans-Serif" font-size="10.00">compat/os/aix.h</text>
</a>
</g>
</g>
<!-- Node5&#45;&gt;Node10 -->
<g id="edge8_Node000005_Node000010" class="edge">
<title>Node5&#45;&gt;Node10</title>
<g id="a_edge8_Node000005_Node000010"><a xlink:title=" ">
<path fill="none" stroke="#63b8ff" d="M1487.48,-110.9C1484.44,-110.56 1481.43,-110.26 1478.5,-110 1034.35,-70.73 917.49,-114.54 469.02,-73.91"/>
<polygon fill="#63b8ff" stroke="#63b8ff" points="469.31,-70.42 459.04,-73 468.68,-77.39 469.31,-70.42"/>
</a>
</g>
</g>
<!-- Node11 -->
<g id="Node000011" class="node">
<title>Node11</title>
<g id="a_Node000011"><a xlink:href="android_8h.html" target="_top" xlink:title=" ">
<polygon fill="white" stroke="#666666" points="593.5,-74 477.5,-74 477.5,-55 593.5,-55 593.5,-74"/>
<text text-anchor="middle" x="535.5" y="-62" font-family="Helvetica,sans-Serif" font-size="10.00">compat/os/android.h</text>
</a>
</g>
</g>
<!-- Node5&#45;&gt;Node11 -->
<g id="edge9_Node000005_Node000011" class="edge">
<title>Node5&#45;&gt;Node11</title>
<g id="a_edge9_Node000005_Node000011"><a xlink:title=" ">
<path fill="none" stroke="#63b8ff" d="M1487.48,-110.92C1484.44,-110.58 1481.43,-110.27 1478.5,-110 1093.76,-74.93 992.52,-106.01 603.69,-74.02"/>
<polygon fill="#63b8ff" stroke="#63b8ff" points="603.83,-70.52 593.57,-73.17 603.25,-77.49 603.83,-70.52"/>
</a>
</g>
</g>
<!-- Node12 -->
<g id="Node000012" class="node">
<title>Node12</title>
<g id="a_Node000012"><a xlink:href="dragonfly_8h.html" target="_top" xlink:title=" ">
<polygon fill="white" stroke="#666666" points="735.5,-74 611.5,-74 611.5,-55 735.5,-55 735.5,-74"/>
<text text-anchor="middle" x="673.5" y="-62" font-family="Helvetica,sans-Serif" font-size="10.00">compat/os/dragonfly.h</text>
</a>
</g>
</g>
<!-- Node5&#45;&gt;Node12 -->
<g id="edge10_Node000005_Node000012" class="edge">
<title>Node5&#45;&gt;Node12</title>
<g id="a_edge10_Node000005_Node000012"><a xlink:title=" ">
<path fill="none" stroke="#63b8ff" d="M1487.47,-110.95C1484.44,-110.6 1481.43,-110.28 1478.5,-110 1156.69,-79.38 1071.7,-100.98 746.01,-74.06"/>
<polygon fill="#63b8ff" stroke="#63b8ff" points="746.07,-70.56 735.81,-73.21 745.49,-77.53 746.07,-70.56"/>
</a>
</g>
</g>
<!-- Node13 -->
<g id="Node000013" class="node">
<title>Node13</title>
<g id="a_Node000013"><a xlink:href="freebsd_8h.html" target="_top" xlink:title=" ">
<polygon fill="white" stroke="#666666" points="869.5,-74 753.5,-74 753.5,-55 869.5,-55 869.5,-74"/>
<text text-anchor="middle" x="811.5" y="-62" font-family="Helvetica,sans-Serif" font-size="10.00">compat/os/freebsd.h</text>
</a>
</g>
</g>
<!-- Node5&#45;&gt;Node13 -->
<g id="edge11_Node000005_Node000013" class="edge">
<title>Node5&#45;&gt;Node13</title>
<g id="a_edge11_Node000005_Node000013"><a xlink:title=" ">
<path fill="none" stroke="#63b8ff" d="M1487.47,-110.98C1484.44,-110.63 1481.43,-110.3 1478.5,-110 1215.94,-83.57 1146.18,-98.45 879.55,-74.03"/>
<polygon fill="#63b8ff" stroke="#63b8ff" points="879.86,-70.54 869.58,-73.11 879.21,-77.51 879.86,-70.54"/>
</a>
</g>
</g>
<!-- Node14 -->
<g id="Node000014" class="node">
<title>Node14</title>
<g id="a_Node000014"><a xlink:href="hpux_8h.html" target="_top" xlink:title=" ">
<polygon fill="white" stroke="#666666" points="991.5,-74 887.5,-74 887.5,-55 991.5,-55 991.5,-74"/>
<text text-anchor="middle" x="939.5" y="-62" font-family="Helvetica,sans-Serif" font-size="10.00">compat/os/hpux.h</text>
</a>
</g>
</g>
<!-- Node5&#45;&gt;Node14 -->
<g id="edge12_Node000005_Node000014" class="edge">
<title>Node5&#45;&gt;Node14</title>
<g id="a_edge12_Node000005_Node000014"><a xlink:title=" ">
<path fill="none" stroke="#63b8ff" d="M1487.47,-111.04C1484.43,-110.67 1481.43,-110.32 1478.5,-110 1270,-87.4 1214.07,-96.42 1001.94,-74.08"/>
<polygon fill="#63b8ff" stroke="#63b8ff" points="1002.03,-70.58 991.72,-73 1001.29,-77.54 1002.03,-70.58"/>
</a>
</g>
</g>
<!-- Node15 -->
<g id="Node000015" class="node">
<title>Node15</title>
<g id="a_Node000015"><a xlink:href="linux_8h.html" target="_top" xlink:title=" ">
<polygon fill="white" stroke="#666666" points="1113.5,-74 1009.5,-74 1009.5,-55 1113.5,-55 1113.5,-74"/>
<text text-anchor="middle" x="1061.5" y="-62" font-family="Helvetica,sans-Serif" font-size="10.00">compat/os/linux.h</text>
</a>
</g>
</g>
<!-- Node5&#45;&gt;Node15 -->
<g id="edge13_Node000005_Node000015" class="edge">
<title>Node5&#45;&gt;Node15</title>
<g id="a_edge13_Node000005_Node000015"><a xlink:title=" ">
<path fill="none" stroke="#63b8ff" d="M1487.46,-111.13C1484.43,-110.73 1481.42,-110.35 1478.5,-110 1323.87,-91.24 1282.09,-92.9 1123.82,-74.12"/>
<polygon fill="#63b8ff" stroke="#63b8ff" points="1124.07,-70.62 1113.73,-72.91 1123.24,-77.57 1124.07,-70.62"/>
</a>
</g>
</g>
<!-- Node16 -->
<g id="Node000016" class="node">
<title>Node16</title>
<g id="a_Node000016"><a xlink:href="macosx_8h.html" target="_top" xlink:title=" ">
<polygon fill="white" stroke="#666666" points="1249.5,-74 1131.5,-74 1131.5,-55 1249.5,-55 1249.5,-74"/>
<text text-anchor="middle" x="1190.5" y="-62" font-family="Helvetica,sans-Serif" font-size="10.00">compat/os/macosx.h</text>
</a>
</g>
</g>
<!-- Node5&#45;&gt;Node16 -->
<g id="edge14_Node000005_Node000016" class="edge">
<title>Node5&#45;&gt;Node16</title>
<g id="a_edge14_Node000005_Node000016"><a xlink:title=" ">
<path fill="none" stroke="#63b8ff" d="M1487.15,-110.68C1425.92,-101.35 1323.45,-85.75 1256.42,-75.54"/>
<polygon fill="#63b8ff" stroke="#63b8ff" points="1256.8,-72.06 1246.39,-74.01 1255.74,-78.98 1256.8,-72.06"/>
</a>
</g>
</g>
<!-- Node17 -->
<g id="Node000017" class="node">
<title>Node17</title>
<g id="a_Node000017"><a xlink:href="mingw_8h.html" target="_top" xlink:title=" ">
<polygon fill="white" stroke="#666666" points="1379.5,-74 1267.5,-74 1267.5,-55 1379.5,-55 1379.5,-74"/>
<text text-anchor="middle" x="1323.5" y="-62" font-family="Helvetica,sans-Serif" font-size="10.00">compat/os/mingw.h</text>
</a>
</g>
</g>
<!-- Node5&#45;&gt;Node17 -->
<g id="edge15_Node000005_Node000017" class="edge">
<title>Node5&#45;&gt;Node17</title>
<g id="a_edge15_Node000005_Node000017"><a xlink:title=" ">
<path fill="none" stroke="#63b8ff" d="M1503.96,-109.98C1467.08,-100.89 1408.51,-86.46 1368.16,-76.51"/>
<polygon fill="#63b8ff" stroke="#63b8ff" points="1368.86,-73.08 1358.31,-74.08 1367.19,-79.87 1368.86,-73.08"/>
</a>
</g>
</g>
<!-- Node18 -->
<g id="Node000018" class="node">
<title>Node18</title>
<g id="a_Node000018"><a xlink:href="mswindows_8h.html" target="_top" xlink:title=" ">
<polygon fill="white" stroke="#666666" points="1535,-74 1398,-74 1398,-55 1535,-55 1535,-74"/>
<text text-anchor="middle" x="1466.5" y="-62" font-family="Helvetica,sans-Serif" font-size="10.00">compat/os/mswindows.h</text>
</a>
</g>
</g>
<!-- Node5&#45;&gt;Node18 -->
<g id="edge16_Node000005_Node000018" class="edge">
<title>Node5&#45;&gt;Node18</title>
<g id="a_edge16_Node000005_Node000018"><a xlink:title=" ">
<path fill="none" stroke="#63b8ff" d="M1526.93,-109.98C1516.08,-102 1499.62,-89.88 1486.62,-80.31"/>
<polygon fill="#63b8ff" stroke="#63b8ff" points="1488.41,-77.28 1478.28,-74.17 1484.26,-82.92 1488.41,-77.28"/>
</a>
</g>
</g>
<!-- Node19 -->
<g id="Node000019" class="node">
<title>Node19</title>
<g id="a_Node000019"><a xlink:href="netbsd_8h.html" target="_top" xlink:title=" ">
<polygon fill="white" stroke="#666666" points="1666,-74 1553,-74 1553,-55 1666,-55 1666,-74"/>
<text text-anchor="middle" x="1609.5" y="-62" font-family="Helvetica,sans-Serif" font-size="10.00">compat/os/netbsd.h</text>
</a>
</g>
</g>
<!-- Node5&#45;&gt;Node19 -->
<g id="edge17_Node000005_Node000019" class="edge">
<title>Node5&#45;&gt;Node19</title>
<g id="a_edge17_Node000005_Node000019"><a xlink:title=" ">
<path fill="none" stroke="#63b8ff" d="M1549.91,-109.98C1560.61,-102 1576.84,-89.88 1589.66,-80.31"/>
<polygon fill="#63b8ff" stroke="#63b8ff" points="1591.97,-82.96 1597.89,-74.17 1587.78,-77.35 1591.97,-82.96"/>
</a>
</g>
</g>
<!-- Node20 -->
<g id="Node000020" class="node">
<title>Node20</title>
<g id="a_Node000020"><a xlink:href="openbsd_8h.html" target="_top" xlink:title=" ">
<polygon fill="white" stroke="#666666" points="1805,-74 1684,-74 1684,-55 1805,-55 1805,-74"/>
<text text-anchor="middle" x="1744.5" y="-62" font-family="Helvetica,sans-Serif" font-size="10.00">compat/os/openbsd.h</text>
</a>
</g>
</g>
<!-- Node5&#45;&gt;Node20 -->
<g id="edge18_Node000005_Node000020" class="edge">
<title>Node5&#45;&gt;Node20</title>
<g id="a_edge18_Node000005_Node000020"><a xlink:title=" ">
<path fill="none" stroke="#63b8ff" d="M1571.6,-109.98C1606.78,-100.93 1662.57,-86.58 1701.22,-76.64"/>
<polygon fill="#63b8ff" stroke="#63b8ff" points="1702.33,-79.96 1711.14,-74.08 1700.59,-73.18 1702.33,-79.96"/>
</a>
</g>
</g>
<!-- Node21 -->
<g id="Node000021" class="node">
<title>Node21</title>
<g id="a_Node000021"><a xlink:href="os2_8h.html" target="_top" xlink:title=" ">
<polygon fill="white" stroke="#666666" points="1920,-74 1823,-74 1823,-55 1920,-55 1920,-74"/>
<text text-anchor="middle" x="1871.5" y="-62" font-family="Helvetica,sans-Serif" font-size="10.00">compat/os/os2.h</text>
</a>
</g>
</g>
<!-- Node5&#45;&gt;Node21 -->
<g id="edge19_Node000005_Node000021" class="edge">
<title>Node5&#45;&gt;Node21</title>
<g id="a_edge19_Node000005_Node000021"><a xlink:title=" ">
<path fill="none" stroke="#63b8ff" d="M1589.8,-110.33C1649.94,-100.76 1749.41,-84.93 1812.64,-74.87"/>
<polygon fill="#63b8ff" stroke="#63b8ff" points="1813.53,-78.27 1822.85,-73.24 1812.42,-71.36 1813.53,-78.27"/>
</a>
</g>
</g>
<!-- Node22 -->
<g id="Node000022" class="node">
<title>Node22</title>
<g id="a_Node000022"><a xlink:href="qnx_8h.html" target="_top" xlink:title=" ">
<polygon fill="white" stroke="#666666" points="2036.5,-74 1938.5,-74 1938.5,-55 2036.5,-55 2036.5,-74"/>
<text text-anchor="middle" x="1987.5" y="-62" font-family="Helvetica,sans-Serif" font-size="10.00">compat/os/qnx.h</text>
</a>
</g>
</g>
<!-- Node5&#45;&gt;Node22 -->
<g id="edge20_Node000005_Node000022" class="edge">
<title>Node5&#45;&gt;Node22</title>
<g id="a_edge20_Node000005_Node000022"><a xlink:title=" ">
<path fill="none" stroke="#63b8ff" d="M1589.66,-113.15C1662.36,-105.44 1799.97,-90.44 1928.25,-73.99"/>
<polygon fill="#63b8ff" stroke="#63b8ff" points="1928.79,-77.45 1938.26,-72.7 1927.89,-70.51 1928.79,-77.45"/>
</a>
</g>
</g>
<!-- Node23 -->
<g id="Node000023" class="node">
<title>Node23</title>
<g id="a_Node000023"><a xlink:href="sgi_8h.html" target="_top" xlink:title=" ">
<polygon fill="white" stroke="#666666" points="2148.5,-74 2054.5,-74 2054.5,-55 2148.5,-55 2148.5,-74"/>
<text text-anchor="middle" x="2101.5" y="-62" font-family="Helvetica,sans-Serif" font-size="10.00">compat/os/sgi.h</text>
</a>
</g>
</g>
<!-- Node5&#45;&gt;Node23 -->
<g id="edge21_Node000005_Node000023" class="edge">
<title>Node5&#45;&gt;Node23</title>
<g id="a_edge21_Node000005_Node000023"><a xlink:title=" ">
<path fill="none" stroke="#63b8ff" d="M1589.7,-115.08C1679.57,-108.84 1871.75,-94.46 2044.44,-74.05"/>
<polygon fill="#63b8ff" stroke="#63b8ff" points="2044.96,-77.52 2054.48,-72.86 2044.13,-70.56 2044.96,-77.52"/>
</a>
</g>
</g>
<!-- Node24 -->
<g id="Node000024" class="node">
<title>Node24</title>
<g id="a_Node000024"><a xlink:href="solaris_8h.html" target="_top" xlink:title=" ">
<polygon fill="white" stroke="#666666" points="2278.5,-74 2166.5,-74 2166.5,-55 2278.5,-55 2278.5,-74"/>
<text text-anchor="middle" x="2222.5" y="-62" font-family="Helvetica,sans-Serif" font-size="10.00">compat/os/solaris.h</text>
</a>
</g>
</g>
<!-- Node5&#45;&gt;Node24 -->
<g id="edge22_Node000005_Node000024" class="edge">
<title>Node5&#45;&gt;Node24</title>
<g id="a_edge22_Node000005_Node000024"><a xlink:title=" ">
<path fill="none" stroke="#63b8ff" d="M1589.54,-115.84C1693.92,-110.18 1939.55,-95.74 2156.19,-74.08"/>
<polygon fill="#63b8ff" stroke="#63b8ff" points="2156.55,-77.56 2166.15,-73.07 2155.85,-70.59 2156.55,-77.56"/>
</a>
</g>
</g>
<!-- Node25 -->
<g id="Node000025" class="node">
<title>Node25</title>
<g id="a_Node000025"><a xlink:href="sunos_8h.html" target="_top" xlink:title=" ">
<polygon fill="white" stroke="#666666" points="2404.5,-74 2296.5,-74 2296.5,-55 2404.5,-55 2404.5,-74"/>
<text text-anchor="middle" x="2350.5" y="-62" font-family="Helvetica,sans-Serif" font-size="10.00">compat/os/sunos.h</text>
</a>
</g>
</g>
<!-- Node5&#45;&gt;Node25 -->
<g id="edge23_Node000005_Node000025" class="edge">
<title>Node5&#45;&gt;Node25</title>
<g id="a_edge23_Node000005_Node000025"><a xlink:title=" ">
<path fill="none" stroke="#63b8ff" d="M1589.91,-116.77C1709.9,-112.45 2017.97,-99.71 2285.92,-74.08"/>
<polygon fill="#63b8ff" stroke="#63b8ff" points="2286.62,-77.53 2296.23,-73.08 2285.94,-70.56 2286.62,-77.53"/>
</a>
</g>
</g>
<!-- Node26 -->
<g id="Node000026" class="node">
<title>Node26</title>
<g id="a_Node000026"><a xlink:href="assert_8h.html" target="_top" xlink:title=" ">
<polygon fill="white" stroke="#666666" points="2518,-74 2423,-74 2423,-55 2518,-55 2518,-74"/>
<text text-anchor="middle" x="2470.5" y="-62" font-family="Helvetica,sans-Serif" font-size="10.00">compat/assert.h</text>
</a>
</g>
</g>
<!-- Node5&#45;&gt;Node26 -->
<g id="edge24_Node000005_Node000026" class="edge">
<title>Node5&#45;&gt;Node26</title>
<g id="a_edge24_Node000005_Node000026"><a xlink:title=" ">
<path fill="none" stroke="#63b8ff" d="M1589.92,-117.63C1723.67,-114.99 2093.65,-105.31 2412.59,-73.97"/>
<polygon fill="#63b8ff" stroke="#63b8ff" points="2413.35,-77.41 2422.96,-72.94 2412.66,-70.45 2413.35,-77.41"/>
</a>
</g>
</g>
<!-- Node27 -->
<g id="Node000027" class="node">
<title>Node27</title>
<g id="a_Node000027"><a xlink:href="compat__shared_8h.html" target="_top" xlink:title=" ">
<polygon fill="#fff0f0" stroke="red" points="2676.5,-74 2536.5,-74 2536.5,-55 2676.5,-55 2676.5,-74"/>
<text text-anchor="middle" x="2606.5" y="-62" font-family="Helvetica,sans-Serif" font-size="10.00">compat/compat_shared.h</text>
</a>
</g>
</g>
<!-- Node5&#45;&gt;Node27 -->
<g id="edge25_Node000005_Node000027" class="edge">
<title>Node5&#45;&gt;Node27</title>
<g id="a_edge25_Node000005_Node000027"><a xlink:title=" ">
<path fill="none" stroke="#63b8ff" d="M1589.73,-117.29C1734.75,-113.64 2160.66,-101.29 2526.3,-73.96"/>
<polygon fill="#63b8ff" stroke="#63b8ff" points="2526.57,-77.45 2536.28,-73.2 2526.05,-70.47 2526.57,-77.45"/>
</a>
</g>
</g>
<!-- Node37 -->
<g id="Node000037" class="node">
<title>Node37</title>
<g id="a_Node000037"><a xlink:href="stdvarargs_8h.html" target="_top" xlink:title=" ">
<polygon fill="#fff0f0" stroke="red" points="2812,-74 2695,-74 2695,-55 2812,-55 2812,-74"/>
<text text-anchor="middle" x="2753.5" y="-62" font-family="Helvetica,sans-Serif" font-size="10.00">compat/stdvarargs.h</text>
</a>
</g>
</g>
<!-- Node5&#45;&gt;Node37 -->
<g id="edge26_Node000005_Node000037" class="edge">
<title>Node5&#45;&gt;Node37</title>
<g id="a_edge26_Node000005_Node000037"><a xlink:title=" ">
<path fill="none" stroke="#63b8ff" d="M1589.75,-118.07C1749.88,-116.41 2255.21,-108.65 2684.79,-73.97"/>
<polygon fill="#63b8ff" stroke="#63b8ff" points="2685.24,-77.44 2694.93,-73.14 2684.68,-70.47 2685.24,-77.44"/>
</a>
</g>
</g>
<!-- Node39 -->
<g id="Node000039" class="node">
<title>Node39</title>
<g id="a_Node000039"><a xlink:href="stdio_8h.html" target="_top" xlink:title=" ">
<polygon fill="#fff0f0" stroke="red" points="2919,-74 2830,-74 2830,-55 2919,-55 2919,-74"/>
<text text-anchor="middle" x="2874.5" y="-62" font-family="Helvetica,sans-Serif" font-size="10.00">compat/stdio.h</text>
</a>
</g>
</g>
<!-- Node5&#45;&gt;Node39 -->
<g id="edge27_Node000005_Node000039" class="edge">
<title>Node5&#45;&gt;Node39</title>
<g id="a_edge27_Node000005_Node000039"><a xlink:title=" ">
<path fill="none" stroke="#63b8ff" d="M1589.64,-118.95C1761.73,-119.99 2335.67,-119.65 2819.78,-73.92"/>
<polygon fill="#63b8ff" stroke="#63b8ff" points="2820.14,-77.4 2829.76,-72.97 2819.48,-70.43 2820.14,-77.4"/>
</a>
</g>
</g>
<!-- Node46 -->
<g id="Node000046" class="node">
<title>Node46</title>
<g id="a_Node000046"><a xlink:href="Data_8h.html" target="_top" xlink:title=" ">
<polygon fill="#fff0f0" stroke="red" points="2817.5,-129 2751.5,-129 2751.5,-110 2817.5,-110 2817.5,-129"/>
<text text-anchor="middle" x="2784.5" y="-117" font-family="Helvetica,sans-Serif" font-size="10.00">acl/Data.h</text>
</a>
</g>
</g>
<!-- Node45&#45;&gt;Node46 -->
<g id="edge29_Node000045_Node000046" class="edge">
<title>Node45&#45;&gt;Node46</title>
<g id="a_edge29_Node000045_Node000046"><a xlink:title=" ">
<path fill="none" stroke="#63b8ff" d="M2891.93,-164.98C2871.07,-156.34 2838.53,-142.87 2814.73,-133.02"/>
<polygon fill="#63b8ff" stroke="#63b8ff" points="2816.02,-129.76 2805.44,-129.17 2813.34,-136.23 2816.02,-129.76"/>
</a>
</g>
</g>
<!-- Node86 -->
<g id="Node000086" class="node">
<title>Node86</title>
<g id="a_Node000086"><a xlink:href="Range_8h.html" target="_top" xlink:title=" ">
<polygon fill="#fff0f0" stroke="red" points="2919,-129 2836,-129 2836,-110 2919,-110 2919,-129"/>
<text text-anchor="middle" x="2877.5" y="-117" font-family="Helvetica,sans-Serif" font-size="10.00">base/Range.h</text>
</a>
</g>
</g>
<!-- Node45&#45;&gt;Node86 -->
<g id="edge30_Node000045_Node000086" class="edge">
<title>Node45&#45;&gt;Node86</title>
<g id="a_edge30_Node000045_Node000086"><a xlink:title=" ">
<path fill="none" stroke="#63b8ff" d="M2906.72,-164.75C2901.88,-157.42 2894.82,-146.73 2888.86,-137.7"/>
<polygon fill="#63b8ff" stroke="#63b8ff" points="2891.6,-135.5 2883.17,-129.09 2885.76,-139.36 2891.6,-135.5"/>
</a>
</g>
</g>
<!-- Node55 -->
<g id="Node000055" class="node">
<title>Node55</title>
<g id="a_Node000055"><a xlink:title=" ">
<polygon fill="#e0e0e0" stroke="#999999" points="3085.5,-19 3053.5,-19 3053.5,0 3085.5,0 3085.5,-19"/>
<text text-anchor="middle" x="3069.5" y="-7" font-family="Helvetica,sans-Serif" font-size="10.00">list</text>
</a>
</g>
</g>
<!-- Node45&#45;&gt;Node55 -->
<g id="edge31_Node000045_Node000055" class="edge">
<title>Node45&#45;&gt;Node55</title>
<g id="a_edge31_Node000045_Node000055"><a xlink:title=" ">
<path fill="none" stroke="#63b8ff" d="M2919.57,-164.64C2929.65,-152.15 2948.87,-128.78 2966.5,-110 2995.49,-79.11 3031.52,-45.26 3052.37,-26.08"/>
<polygon fill="#63b8ff" stroke="#63b8ff" points="3054.81,-28.59 3059.82,-19.25 3050.08,-23.43 3054.81,-28.59"/>
</a>
</g>
</g>
<!-- Node48 -->
<g id="Node000048" class="node">
<title>Node48</title>
<g id="a_Node000048"><a xlink:href="acl_2forward_8h.html" target="_top" xlink:title=" ">
<polygon fill="#fff0f0" stroke="red" points="3055.5,-129 2975.5,-129 2975.5,-110 3055.5,-110 3055.5,-129"/>
<text text-anchor="middle" x="3015.5" y="-117" font-family="Helvetica,sans-Serif" font-size="10.00">acl/forward.h</text>
</a>
</g>
</g>
<!-- Node89&#45;&gt;Node48 -->
<g id="edge34_Node000089_Node000048" class="edge">
<title>Node89&#45;&gt;Node48</title>
<g id="a_edge34_Node000089_Node000048"><a xlink:title=" ">
<path fill="none" stroke="#63b8ff" d="M3305.37,-166.42C3302.37,-165.94 3299.39,-165.46 3296.5,-165 3196.57,-149.08 3169.11,-146.09 3065.53,-129.15"/>
<polygon fill="#63b8ff" stroke="#63b8ff" points="3066.04,-125.68 3055.6,-127.52 3064.9,-132.59 3066.04,-125.68"/>
</a>
</g>
</g>
<!-- Node90 -->
<g id="Node000090" class="node">
<title>Node90</title>
<g id="a_Node000090"><a xlink:href="base_2forward_8h.html" target="_top" xlink:title=" ">
<polygon fill="white" stroke="#666666" points="3163,-129 3074,-129 3074,-110 3163,-110 3163,-129"/>
<text text-anchor="middle" x="3118.5" y="-117" font-family="Helvetica,sans-Serif" font-size="10.00">base/forward.h</text>
</a>
</g>
</g>
<!-- Node89&#45;&gt;Node90 -->
<g id="edge35_Node000089_Node000090" class="edge">
<title>Node89&#45;&gt;Node90</title>
<g id="a_edge35_Node000089_Node000090"><a xlink:title=" ">
<path fill="none" stroke="#63b8ff" d="M3311.55,-164.98C3271.93,-155.86 3208.91,-141.33 3165.73,-131.38"/>
<polygon fill="#63b8ff" stroke="#63b8ff" points="3166.27,-127.92 3155.74,-129.08 3164.7,-134.74 3166.27,-127.92"/>
</a>
</g>
</g>
<!-- Node53 -->
<g id="Node000053" class="node">
<title>Node53</title>
<g id="a_Node000053"><a xlink:href="sbuf_2forward_8h.html" target="_top" xlink:title=" ">
<polygon fill="#fff0f0" stroke="red" points="3235,-74 3148,-74 3148,-55 3235,-55 3235,-74"/>
<text text-anchor="middle" x="3191.5" y="-62" font-family="Helvetica,sans-Serif" font-size="10.00">sbuf/forward.h</text>
</a>
</g>
</g>
<!-- Node89&#45;&gt;Node53 -->
<g id="edge36_Node000089_Node000053" class="edge">
<title>Node89&#45;&gt;Node53</title>
<g id="a_edge36_Node000089_Node000053"><a xlink:title=" ">
<path fill="none" stroke="#63b8ff" d="M3308.41,-164.94C3272.79,-156.57 3224.28,-143.08 3210.5,-129 3198.81,-117.06 3194.27,-98.24 3192.53,-84.18"/>
<polygon fill="#63b8ff" stroke="#63b8ff" points="3196.01,-83.81 3191.65,-74.15 3189.04,-84.42 3196.01,-83.81"/>
</a>
</g>
</g>
<!-- Node91 -->
<g id="Node000091" class="node">
<title>Node91</title>
<g id="a_Node000091"><a xlink:href="SquidString_8h.html" target="_top" xlink:title=" ">
<polygon fill="#fff0f0" stroke="red" points="3301,-129 3220,-129 3220,-110 3301,-110 3301,-129"/>
<text text-anchor="middle" x="3260.5" y="-117" font-family="Helvetica,sans-Serif" font-size="10.00">SquidString.h</text>
</a>
</g>
</g>
<!-- Node89&#45;&gt;Node91 -->
<g id="edge38_Node000089_Node000091" class="edge">
<title>Node89&#45;&gt;Node91</title>
<g id="a_edge38_Node000089_Node000091"><a xlink:title=" ">
<path fill="none" stroke="#63b8ff" d="M3334.36,-164.98C3320.71,-156.77 3299.81,-144.18 3283.72,-134.49"/>
<polygon fill="#63b8ff" stroke="#63b8ff" points="3285.27,-131.33 3274.9,-129.17 3281.66,-137.33 3285.27,-131.33"/>
</a>
</g>
</g>
<!-- Node92 -->
<g id="Node000092" class="node">
<title>Node92</title>
<g id="a_Node000092"><a xlink:title=" ">
<polygon fill="#e0e0e0" stroke="#999999" points="3377.5,-129 3319.5,-129 3319.5,-110 3377.5,-110 3377.5,-129"/>
<text text-anchor="middle" x="3348.5" y="-117" font-family="Helvetica,sans-Serif" font-size="10.00">memory</text>
</a>
</g>
</g>
<!-- Node89&#45;&gt;Node92 -->
<g id="edge46_Node000089_Node000092" class="edge">
<title>Node89&#45;&gt;Node92</title>
<g id="a_edge46_Node000089_Node000092"><a xlink:title=" ">
<path fill="none" stroke="#63b8ff" d="M3348.5,-164.75C3348.5,-157.8 3348.5,-147.85 3348.5,-139.13"/>
<polygon fill="#63b8ff" stroke="#63b8ff" points="3352,-139.09 3348.5,-129.09 3345,-139.09 3352,-139.09"/>
</a>
</g>
</g>
<!-- Node93 -->
<g id="Node000093" class="node">
<title>Node93</title>
<g id="a_Node000093"><a xlink:title=" ">
<polygon fill="#e0e0e0" stroke="#999999" points="3443,-129 3396,-129 3396,-110 3443,-110 3443,-129"/>
<text text-anchor="middle" x="3419.5" y="-117" font-family="Helvetica,sans-Serif" font-size="10.00">queue</text>
</a>
</g>
</g>
<!-- Node89&#45;&gt;Node93 -->
<g id="edge47_Node000089_Node000093" class="edge">
<title>Node89&#45;&gt;Node93</title>
<g id="a_edge47_Node000089_Node000093"><a xlink:title=" ">
<path fill="none" stroke="#63b8ff" d="M3359.91,-164.98C3370.61,-157 3386.84,-144.88 3399.66,-135.31"/>
<polygon fill="#63b8ff" stroke="#63b8ff" points="3401.97,-137.96 3407.89,-129.17 3397.78,-132.35 3401.97,-137.96"/>
</a>
</g>
</g>
<!-- Node94 -->
<g id="Node000094" class="node">
<title>Node94</title>
<g id="a_Node000094"><a xlink:title=" ">
<polygon fill="#e0e0e0" stroke="#999999" points="3504,-129 3461,-129 3461,-110 3504,-110 3504,-129"/>
<text text-anchor="middle" x="3482.5" y="-117" font-family="Helvetica,sans-Serif" font-size="10.00">stack</text>
</a>
</g>
</g>
<!-- Node89&#45;&gt;Node94 -->
<g id="edge48_Node000089_Node000094" class="edge">
<title>Node89&#45;&gt;Node94</title>
<g id="a_edge48_Node000089_Node000094"><a xlink:title=" ">
<path fill="none" stroke="#63b8ff" d="M3370.03,-164.98C3391.97,-156.3 3426.24,-142.75 3451.19,-132.88"/>
<polygon fill="#63b8ff" stroke="#63b8ff" points="3452.57,-136.1 3460.58,-129.17 3449.99,-129.59 3452.57,-136.1"/>
</a>
</g>
</g>
<!-- Node95 -->
<g id="Node000095" class="node">
<title>Node95</title>
<g id="a_Node000095"><a xlink:title=" ">
<polygon fill="#e0e0e0" stroke="#999999" points="3566.5,-129 3522.5,-129 3522.5,-110 3566.5,-110 3566.5,-129"/>
<text text-anchor="middle" x="3544.5" y="-117" font-family="Helvetica,sans-Serif" font-size="10.00">string</text>
</a>
</g>
</g>
<!-- Node89&#45;&gt;Node95 -->
<g id="edge49_Node000089_Node000095" class="edge">
<title>Node89&#45;&gt;Node95</title>
<g id="a_edge49_Node000089_Node000095"><a xlink:title=" ">
<path fill="none" stroke="#63b8ff" d="M3379.99,-164.98C3416.39,-155.14 3475.97,-139.03 3512.56,-129.14"/>
<polygon fill="#63b8ff" stroke="#63b8ff" points="3513.49,-132.51 3522.23,-126.52 3511.66,-125.75 3513.49,-132.51"/>
</a>
</g>
</g>
<!-- Node53&#45;&gt;Node55 -->
<g id="edge37_Node000053_Node000055" class="edge">
<title>Node53&#45;&gt;Node55</title>
<g id="a_edge37_Node000053_Node000055"><a xlink:title=" ">
<path fill="none" stroke="#63b8ff" d="M3171.9,-54.98C3151.01,-45.91 3117.86,-31.51 3094.97,-21.56"/>
<polygon fill="#63b8ff" stroke="#63b8ff" points="3096.11,-18.25 3085.55,-17.47 3093.32,-24.67 3096.11,-18.25"/>
</a>
</g>
</g>
<!-- Node91&#45;&gt;Node53 -->
<g id="edge45_Node000091_Node000053" class="edge">
<title>Node91&#45;&gt;Node53</title>
<g id="a_edge45_Node000091_Node000053"><a xlink:title=" ">
<path fill="none" stroke="#63b8ff" d="M3249.41,-109.98C3239.01,-102 3223.24,-89.88 3210.78,-80.31"/>
<polygon fill="#63b8ff" stroke="#63b8ff" points="3212.85,-77.49 3202.79,-74.17 3208.59,-83.04 3212.85,-77.49"/>
</a>
</g>
</g>
<!-- Node91&#45;&gt;Node65 -->
<g id="edge39_Node000091_Node000065" class="edge">
<title>Node91&#45;&gt;Node65</title>
<g id="a_edge39_Node000091_Node000065"><a xlink:title=" ">
<path fill="none" stroke="#63b8ff" d="M3296.01,-109.98C3333.99,-100.87 3394.37,-86.4 3435.86,-76.45"/>
<polygon fill="#63b8ff" stroke="#63b8ff" points="3436.81,-79.82 3445.71,-74.08 3435.17,-73.01 3436.81,-79.82"/>
</a>
</g>
</g>
<!-- Node63 -->
<g id="Node000063" class="node">
<title>Node63</title>
<g id="a_Node000063"><a xlink:href="Here_8h.html" target="_top" xlink:title=" ">
<polygon fill="#fff0f0" stroke="red" points="3292,-19 3217,-19 3217,0 3292,0 3292,-19"/>
<text text-anchor="middle" x="3254.5" y="-7" font-family="Helvetica,sans-Serif" font-size="10.00">base/Here.h</text>
</a>
</g>
</g>
<!-- Node65&#45;&gt;Node63 -->
<g id="edge40_Node000065_Node000063" class="edge">
<title>Node65&#45;&gt;Node63</title>
<g id="a_edge40_Node000065_Node000063"><a xlink:title=" ">
<path fill="none" stroke="#63b8ff" d="M3445.03,-54.98C3405.93,-45.86 3343.73,-31.33 3301.11,-21.38"/>
<polygon fill="#63b8ff" stroke="#63b8ff" points="3301.79,-17.95 3291.26,-19.08 3300.2,-24.76 3301.79,-17.95"/>
</a>
</g>
</g>
<!-- Node66 -->
<g id="Node000066" class="node">
<title>Node66</title>
<g id="a_Node000066"><a xlink:href="AllocatorProxy_8h.html" target="_top" xlink:title=" ">
<polygon fill="white" stroke="#666666" points="3433.5,-19 3309.5,-19 3309.5,0 3433.5,0 3433.5,-19"/>
<text text-anchor="middle" x="3371.5" y="-7" font-family="Helvetica,sans-Serif" font-size="10.00">mem/AllocatorProxy.h</text>
</a>
</g>
</g>
<!-- Node65&#45;&gt;Node66 -->
<g id="edge41_Node000065_Node000066" class="edge">
<title>Node65&#45;&gt;Node66</title>
<g id="a_edge41_Node000065_Node000066"><a xlink:title=" ">
<path fill="none" stroke="#63b8ff" d="M3463.83,-54.98C3446.21,-46.5 3418.92,-33.35 3398.57,-23.54"/>
<polygon fill="#63b8ff" stroke="#63b8ff" points="3400.02,-20.36 3389.49,-19.17 3396.98,-26.66 3400.02,-20.36"/>
</a>
</g>
</g>
<!-- Node51 -->
<g id="Node000051" class="node">
<title>Node51</title>
<g id="a_Node000051"><a xlink:title=" ">
<polygon fill="#e0e0e0" stroke="#999999" points="3511.5,-19 3451.5,-19 3451.5,0 3511.5,0 3511.5,-19"/>
<text text-anchor="middle" x="3481.5" y="-7" font-family="Helvetica,sans-Serif" font-size="10.00">iostream</text>
</a>
</g>
</g>
<!-- Node65&#45;&gt;Node51 -->
<g id="edge42_Node000065_Node000051" class="edge">
<title>Node65&#45;&gt;Node51</title>
<g id="a_edge42_Node000065_Node000051"><a xlink:title=" ">
<path fill="none" stroke="#63b8ff" d="M3481.5,-54.75C3481.5,-47.8 3481.5,-37.85 3481.5,-29.13"/>
<polygon fill="#63b8ff" stroke="#63b8ff" points="3485,-29.09 3481.5,-19.09 3478,-29.09 3485,-29.09"/>
</a>
</g>
</g>
<!-- Node67 -->
<g id="Node000067" class="node">
<title>Node67</title>
<g id="a_Node000067"><a xlink:title=" ">
<polygon fill="#e0e0e0" stroke="#999999" points="3585.5,-19 3529.5,-19 3529.5,0 3585.5,0 3585.5,-19"/>
<text text-anchor="middle" x="3557.5" y="-7" font-family="Helvetica,sans-Serif" font-size="10.00">sstream</text>
</a>
</g>
</g>
<!-- Node65&#45;&gt;Node67 -->
<g id="edge43_Node000065_Node000067" class="edge">
<title>Node65&#45;&gt;Node67</title>
<g id="a_edge43_Node000065_Node000067"><a xlink:title=" ">
<path fill="none" stroke="#63b8ff" d="M3493.71,-54.98C3505.28,-46.92 3522.88,-34.65 3536.66,-25.03"/>
<polygon fill="#63b8ff" stroke="#63b8ff" points="3538.87,-27.76 3545.07,-19.17 3534.86,-22.02 3538.87,-27.76"/>
</a>
</g>
</g>
<!-- Node68 -->
<g id="Node000068" class="node">
<title>Node68</title>
<g id="a_Node000068"><a xlink:title=" ">
<polygon fill="#e0e0e0" stroke="#999999" points="3659.5,-19 3603.5,-19 3603.5,0 3659.5,0 3659.5,-19"/>
<text text-anchor="middle" x="3631.5" y="-7" font-family="Helvetica,sans-Serif" font-size="10.00">iomanip</text>
</a>
</g>
</g>
<!-- Node65&#45;&gt;Node68 -->
<g id="edge44_Node000065_Node000068" class="edge">
<title>Node65&#45;&gt;Node68</title>
<g id="a_edge44_Node000065_Node000068"><a xlink:title=" ">
<path fill="none" stroke="#63b8ff" d="M3505.6,-54.98C3530.38,-46.23 3569.2,-32.51 3597.19,-22.62"/>
<polygon fill="#63b8ff" stroke="#63b8ff" points="3598.7,-25.8 3606.96,-19.17 3596.37,-19.2 3598.7,-25.8"/>
</a>
</g>
</g>
</g>
</svg>

<g id="navigator" transform="translate(0 0)" fill="#404254">
  <rect fill="#f2f5e9" fill-opacity="0.5" stroke="#606060" stroke-width=".5" x="0" y="0" width="60" height="60"/>
  <use id="zoomplus" xlink:href="#zoomPlus" x="17" y="9" onmousedown="handleZoom(evt,'in')"/>
  <use id="zoomminus" xlink:href="#zoomMin" x="42" y="9" onmousedown="handleZoom(evt,'out')"/>
  <use id="reset" xlink:href="#resetDef" x="30" y="36" onmousedown="handleReset()"/>
   <use id="arrowup" xlink:href="#arrowUp" x="0" y="0" onmousedown="handlePan(0,-1)"/>
  <use id="arrowright" xlink:href="#arrowRight" x="0" y="0" onmousedown="handlePan(1,0)"/>
  <use id="arrowdown" xlink:href="#arrowDown" x="0" y="0" onmousedown="handlePan(0,1)"/>
  <use id="arrowleft" xlink:href="#arrowLeft" x="0" y="0" onmousedown="handlePan(-1,0)"/>
</g>
<svg viewBox="0 0 15 15" width="100%" height="30px" preserveAspectRatio="xMaxYMin meet">
 <g id="arrow_out" transform="scale(0.3 0.3)">
  <a xlink:href="IntRange_8cc__incl_org.svg" target="_base">
   <rect id="button" ry="5" rx="5" y="6" x="6" height="38" width="38"
        fill="#f2f5e9" fill-opacity="0.5" stroke="#606060" stroke-width="1.0"/>
   <path id="arrow"
     d="M 11.500037,31.436501 C 11.940474,20.09759 22.043105,11.32322 32.158766,21.979434 L 37.068811,17.246167 C 37.068811,17.246167 37.088388,32 37.088388,32 L 22.160133,31.978069 C 22.160133,31.978069 26.997745,27.140456 26.997745,27.140456 C 18.528582,18.264221 13.291696,25.230495 11.500037,31.436501 z"
     style="fill:#404040;"/>
  </a>
 </g>
</svg>

<style type='text/css'>
<![CDATA[
[data-mouse-over-selected='false'] { opacity: 0.7; }
[data-mouse-over-selected='true']  { opacity: 1.0; }
]]>
</style>
<script type="application/ecmascript"><![CDATA[
document.addEventListener('DOMContentLoaded', (event) => {
  highlightEdges();
  highlightAdjacentNodes();
});
]]></script>
</svg>
