<?xml version="1.0" encoding="UTF-8" standalone="no"?>
<!DOCTYPE svg PUBLIC "-//W3C//DTD SVG 1.1//EN"
 "http://www.w3.org/Graphics/SVG/1.1/DTD/svg11.dtd">
<!-- Generated by graphviz version 2.43.0 (0)
 -->
<!-- Title: squid/src/base/IoManip.h Pages: 1 -->
<svg width="469pt" height="192pt"
 viewBox="0.00 0.00 468.50 192.00" xmlns="http://www.w3.org/2000/svg" xmlns:xlink="http://www.w3.org/1999/xlink">
<g id="graph0" class="graph" transform="scale(1 1) rotate(0) translate(4 188)">
<title>squid/src/base/IoManip.h</title>
<!-- Node1 -->
<g id="Node000001" class="node">
<title>Node1</title>
<g id="a_Node000001"><a xlink:title=" ">
<polygon fill="#999999" stroke="#666666" points="426,-184 289,-184 289,-165 426,-165 426,-184"/>
<text text-anchor="middle" x="357.5" y="-172" font-family="Helvetica,sans-Serif" font-size="10.00">squid/src/base/IoManip.h</text>
</a>
</g>
</g>
<!-- Node2 -->
<g id="Node000002" class="node">
<title>Node2</title>
<g id="a_Node000002"><a xlink:href="debug_2Stream_8h.html" target="_top" xlink:title=" ">
<polygon fill="white" stroke="#666666" points="309.5,-129 215.5,-129 215.5,-110 309.5,-110 309.5,-129"/>
<text text-anchor="middle" x="262.5" y="-117" font-family="Helvetica,sans-Serif" font-size="10.00">debug/Stream.h</text>
</a>
</g>
</g>
<!-- Node1&#45;&gt;Node2 -->
<g id="edge1_Node000001_Node000002" class="edge">
<title>Node1&#45;&gt;Node2</title>
<g id="a_edge1_Node000001_Node000002"><a xlink:title=" ">
<path fill="none" stroke="#63b8ff" d="M342.24,-164.98C327.37,-156.69 304.52,-143.94 287.08,-134.22"/>
<polygon fill="#63b8ff" stroke="#63b8ff" points="288.48,-130.99 278.04,-129.17 285.07,-137.1 288.48,-130.99"/>
</a>
</g>
</g>
<!-- Node6 -->
<g id="Node000006" class="node">
<title>Node6</title>
<g id="a_Node000006"><a xlink:title=" ">
<polygon fill="#e0e0e0" stroke="#999999" points="368.5,-74 308.5,-74 308.5,-55 368.5,-55 368.5,-74"/>
<text text-anchor="middle" x="338.5" y="-62" font-family="Helvetica,sans-Serif" font-size="10.00">iostream</text>
</a>
</g>
</g>
<!-- Node1&#45;&gt;Node6 -->
<g id="edge8_Node000001_Node000006" class="edge">
<title>Node1&#45;&gt;Node6</title>
<g id="a_edge8_Node000001_Node000006"><a xlink:title=" ">
<path fill="none" stroke="#63b8ff" d="M355.95,-164.66C352.87,-147.17 345.94,-107.8 341.8,-84.27"/>
<polygon fill="#63b8ff" stroke="#63b8ff" points="345.2,-83.4 340.02,-74.16 338.31,-84.61 345.2,-83.4"/>
</a>
</g>
</g>
<!-- Node8 -->
<g id="Node000008" class="node">
<title>Node8</title>
<g id="a_Node000008"><a xlink:title=" ">
<polygon fill="#e0e0e0" stroke="#999999" points="442.5,-74 386.5,-74 386.5,-55 442.5,-55 442.5,-74"/>
<text text-anchor="middle" x="414.5" y="-62" font-family="Helvetica,sans-Serif" font-size="10.00">iomanip</text>
</a>
</g>
</g>
<!-- Node1&#45;&gt;Node8 -->
<g id="edge9_Node000001_Node000008" class="edge">
<title>Node1&#45;&gt;Node8</title>
<g id="a_edge9_Node000001_Node000008"><a xlink:title=" ">
<path fill="none" stroke="#63b8ff" d="M362.16,-164.66C371.56,-146.85 392.93,-106.37 405.26,-83.01"/>
<polygon fill="#63b8ff" stroke="#63b8ff" points="408.36,-84.64 409.93,-74.16 402.17,-81.37 408.36,-84.64"/>
</a>
</g>
</g>
<!-- Node9 -->
<g id="Node000009" class="node">
<title>Node9</title>
<g id="a_Node000009"><a xlink:title=" ">
<polygon fill="#e0e0e0" stroke="#999999" points="460.5,-129 404.5,-129 404.5,-110 460.5,-110 460.5,-129"/>
<text text-anchor="middle" x="432.5" y="-117" font-family="Helvetica,sans-Serif" font-size="10.00">optional</text>
</a>
</g>
</g>
<!-- Node1&#45;&gt;Node9 -->
<g id="edge10_Node000001_Node000009" class="edge">
<title>Node1&#45;&gt;Node9</title>
<g id="a_edge10_Node000001_Node000009"><a xlink:title=" ">
<path fill="none" stroke="#63b8ff" d="M369.55,-164.98C380.96,-156.92 398.33,-144.65 411.93,-135.03"/>
<polygon fill="#63b8ff" stroke="#63b8ff" points="414.08,-137.8 420.23,-129.17 410.04,-132.08 414.08,-137.8"/>
</a>
</g>
</g>
<!-- Node3 -->
<g id="Node000003" class="node">
<title>Node3</title>
<g id="a_Node000003"><a xlink:href="Here_8h.html" target="_top" xlink:title=" ">
<polygon fill="white" stroke="#666666" points="75,-74 0,-74 0,-55 75,-55 75,-74"/>
<text text-anchor="middle" x="37.5" y="-62" font-family="Helvetica,sans-Serif" font-size="10.00">base/Here.h</text>
</a>
</g>
</g>
<!-- Node2&#45;&gt;Node3 -->
<g id="edge2_Node000002_Node000003" class="edge">
<title>Node2&#45;&gt;Node3</title>
<g id="a_edge2_Node000002_Node000003"><a xlink:title=" ">
<path fill="none" stroke="#63b8ff" d="M226.35,-109.98C187.59,-100.86 125.95,-86.33 83.7,-76.38"/>
<polygon fill="#63b8ff" stroke="#63b8ff" points="84.47,-72.97 73.93,-74.08 82.86,-79.78 84.47,-72.97"/>
</a>
</g>
</g>
<!-- Node5 -->
<g id="Node000005" class="node">
<title>Node5</title>
<g id="a_Node000005"><a xlink:href="AllocatorProxy_8h.html" target="_top" xlink:title=" ">
<polygon fill="white" stroke="#666666" points="216.5,-74 92.5,-74 92.5,-55 216.5,-55 216.5,-74"/>
<text text-anchor="middle" x="154.5" y="-62" font-family="Helvetica,sans-Serif" font-size="10.00">mem/AllocatorProxy.h</text>
</a>
</g>
</g>
<!-- Node2&#45;&gt;Node5 -->
<g id="edge4_Node000002_Node000005" class="edge">
<title>Node2&#45;&gt;Node5</title>
<g id="a_edge4_Node000002_Node000005"><a xlink:title=" ">
<path fill="none" stroke="#63b8ff" d="M245.15,-109.98C227.93,-101.54 201.3,-88.47 181.35,-78.68"/>
<polygon fill="#63b8ff" stroke="#63b8ff" points="182.69,-75.43 172.17,-74.17 179.6,-81.72 182.69,-75.43"/>
</a>
</g>
</g>
<!-- Node2&#45;&gt;Node6 -->
<g id="edge5_Node000002_Node000006" class="edge">
<title>Node2&#45;&gt;Node6</title>
<g id="a_edge5_Node000002_Node000006"><a xlink:title=" ">
<path fill="none" stroke="#63b8ff" d="M274.71,-109.98C286.28,-101.92 303.88,-89.65 317.66,-80.03"/>
<polygon fill="#63b8ff" stroke="#63b8ff" points="319.87,-82.76 326.07,-74.17 315.86,-77.02 319.87,-82.76"/>
</a>
</g>
</g>
<!-- Node7 -->
<g id="Node000007" class="node">
<title>Node7</title>
<g id="a_Node000007"><a xlink:title=" ">
<polygon fill="#e0e0e0" stroke="#999999" points="290.5,-74 234.5,-74 234.5,-55 290.5,-55 290.5,-74"/>
<text text-anchor="middle" x="262.5" y="-62" font-family="Helvetica,sans-Serif" font-size="10.00">sstream</text>
</a>
</g>
</g>
<!-- Node2&#45;&gt;Node7 -->
<g id="edge6_Node000002_Node000007" class="edge">
<title>Node2&#45;&gt;Node7</title>
<g id="a_edge6_Node000002_Node000007"><a xlink:title=" ">
<path fill="none" stroke="#63b8ff" d="M262.5,-109.75C262.5,-102.8 262.5,-92.85 262.5,-84.13"/>
<polygon fill="#63b8ff" stroke="#63b8ff" points="266,-84.09 262.5,-74.09 259,-84.09 266,-84.09"/>
</a>
</g>
</g>
<!-- Node2&#45;&gt;Node8 -->
<g id="edge7_Node000002_Node000008" class="edge">
<title>Node2&#45;&gt;Node8</title>
<g id="a_edge7_Node000002_Node000008"><a xlink:title=" ">
<path fill="none" stroke="#63b8ff" d="M286.92,-109.98C312.22,-101.16 351.95,-87.31 380.36,-77.41"/>
<polygon fill="#63b8ff" stroke="#63b8ff" points="381.6,-80.68 389.89,-74.08 379.29,-74.07 381.6,-80.68"/>
</a>
</g>
</g>
<!-- Node4 -->
<g id="Node000004" class="node">
<title>Node4</title>
<g id="a_Node000004"><a xlink:title=" ">
<polygon fill="#e0e0e0" stroke="#999999" points="61.5,-19 13.5,-19 13.5,0 61.5,0 61.5,-19"/>
<text text-anchor="middle" x="37.5" y="-7" font-family="Helvetica,sans-Serif" font-size="10.00">iosfwd</text>
</a>
</g>
</g>
<!-- Node3&#45;&gt;Node4 -->
<g id="edge3_Node000003_Node000004" class="edge">
<title>Node3&#45;&gt;Node4</title>
<g id="a_edge3_Node000003_Node000004"><a xlink:title=" ">
<path fill="none" stroke="#63b8ff" d="M37.5,-54.75C37.5,-47.8 37.5,-37.85 37.5,-29.13"/>
<polygon fill="#63b8ff" stroke="#63b8ff" points="41,-29.09 37.5,-19.09 34,-29.09 41,-29.09"/>
</a>
</g>
</g>
</g>
</svg>
