<?xml version="1.0" encoding="UTF-8" standalone="no"?>
<!DOCTYPE svg PUBLIC "-//W3C//DTD SVG 1.1//EN"
 "http://www.w3.org/Graphics/SVG/1.1/DTD/svg11.dtd">
<!-- Generated by graphviz version 2.43.0 (0)
 -->
<!-- Title: squid/src/DiskIO/IpcIo/IpcIoIOStrategy.cc Pages: 1 -->
<svg width="3921pt" height="258pt"
 viewBox="0.00 0.00 3920.50 258.00" xmlns="http://www.w3.org/2000/svg" xmlns:xlink="http://www.w3.org/1999/xlink">
<g id="graph0" class="graph" transform="scale(1 1) rotate(0) translate(4 254)">
<title>squid/src/DiskIO/IpcIo/IpcIoIOStrategy.cc</title>
<!-- Node1 -->
<g id="Node000001" class="node">
<title>Node1</title>
<g id="a_Node000001"><a xlink:title=" ">
<polygon fill="#999999" stroke="#666666" points="3438,-250 3316,-250 3316,-220 3438,-220 3438,-250"/>
<text text-anchor="start" x="3324" y="-238" font-family="Helvetica,sans-Serif" font-size="10.00">squid/src/DiskIO/IpcIo</text>
<text text-anchor="middle" x="3377" y="-227" font-family="Helvetica,sans-Serif" font-size="10.00">/IpcIoIOStrategy.cc</text>
</a>
</g>
</g>
<!-- Node2 -->
<g id="Node000002" class="node">
<title>Node2</title>
<g id="a_Node000002"><a xlink:href="squid_8h.html" target="_top" xlink:title=" ">
<polygon fill="white" stroke="#666666" points="2383,-184 2331,-184 2331,-165 2383,-165 2383,-184"/>
<text text-anchor="middle" x="2357" y="-172" font-family="Helvetica,sans-Serif" font-size="10.00">squid.h</text>
</a>
</g>
</g>
<!-- Node1&#45;&gt;Node2 -->
<g id="edge1_Node000001_Node000002" class="edge">
<title>Node1&#45;&gt;Node2</title>
<g id="a_edge1_Node000001_Node000002"><a xlink:title=" ">
<path fill="none" stroke="#63b8ff" d="M3315.87,-230.49C3125.11,-219.55 2544.5,-186.25 2393.31,-177.58"/>
<polygon fill="#63b8ff" stroke="#63b8ff" points="2393.36,-174.08 2383.17,-177 2392.96,-181.07 2393.36,-174.08"/>
</a>
</g>
</g>
<!-- Node45 -->
<g id="Node000045" class="node">
<title>Node45</title>
<g id="a_Node000045"><a xlink:href="IpcIoFile_8h.html" target="_top" xlink:title=" ">
<polygon fill="white" stroke="#666666" points="3360,-184 3294,-184 3294,-165 3360,-165 3360,-184"/>
<text text-anchor="middle" x="3327" y="-172" font-family="Helvetica,sans-Serif" font-size="10.00">IpcIoFile.h</text>
</a>
</g>
</g>
<!-- Node1&#45;&gt;Node45 -->
<g id="edge31_Node000001_Node000045" class="edge">
<title>Node1&#45;&gt;Node45</title>
<g id="a_edge31_Node000001_Node000045"><a xlink:title=" ">
<path fill="none" stroke="#63b8ff" d="M3364.9,-219.84C3357.71,-211.43 3348.57,-200.74 3341.07,-191.96"/>
<polygon fill="#63b8ff" stroke="#63b8ff" points="3343.65,-189.59 3334.49,-184.27 3338.33,-194.14 3343.65,-189.59"/>
</a>
</g>
</g>
<!-- Node84 -->
<g id="Node000084" class="node">
<title>Node84</title>
<g id="a_Node000084"><a xlink:href="IpcIoIOStrategy_8h.html" target="_top" xlink:title=" ">
<polygon fill="white" stroke="#666666" points="3477.5,-184 3378.5,-184 3378.5,-165 3477.5,-165 3477.5,-184"/>
<text text-anchor="middle" x="3428" y="-172" font-family="Helvetica,sans-Serif" font-size="10.00">IpcIoIOStrategy.h</text>
</a>
</g>
</g>
<!-- Node1&#45;&gt;Node84 -->
<g id="edge51_Node000001_Node000084" class="edge">
<title>Node1&#45;&gt;Node84</title>
<g id="a_edge51_Node000001_Node000084"><a xlink:title=" ">
<path fill="none" stroke="#63b8ff" d="M3389.35,-219.84C3396.67,-211.43 3406,-200.74 3413.65,-191.96"/>
<polygon fill="#63b8ff" stroke="#63b8ff" points="3416.42,-194.1 3420.36,-184.27 3411.15,-189.5 3416.42,-194.1"/>
</a>
</g>
</g>
<!-- Node221 -->
<g id="Node000221" class="node">
<title>Node221</title>
<g id="a_Node000221"><a xlink:href="unlinkd_8h.html" target="_top" xlink:title=" ">
<polygon fill="white" stroke="#666666" points="3558,-184 3496,-184 3496,-165 3558,-165 3558,-184"/>
<text text-anchor="middle" x="3527" y="-172" font-family="Helvetica,sans-Serif" font-size="10.00">unlinkd.h</text>
</a>
</g>
</g>
<!-- Node1&#45;&gt;Node221 -->
<g id="edge55_Node000001_Node000221" class="edge">
<title>Node1&#45;&gt;Node221</title>
<g id="a_edge55_Node000001_Node000221"><a xlink:title=" ">
<path fill="none" stroke="#63b8ff" d="M3412.93,-219.99C3438.07,-210.18 3471.33,-197.21 3495.45,-187.81"/>
<polygon fill="#63b8ff" stroke="#63b8ff" points="3496.8,-191.03 3504.85,-184.14 3494.26,-184.51 3496.8,-191.03"/>
</a>
</g>
</g>
<!-- Node3 -->
<g id="Node000003" class="node">
<title>Node3</title>
<g id="a_Node000003"><a xlink:href="autoconf_8h.html" target="_top" xlink:title=" ">
<polygon fill="white" stroke="#666666" points="2349,-129 2281,-129 2281,-110 2349,-110 2349,-129"/>
<text text-anchor="middle" x="2315" y="-117" font-family="Helvetica,sans-Serif" font-size="10.00">autoconf.h</text>
</a>
</g>
</g>
<!-- Node2&#45;&gt;Node3 -->
<g id="edge2_Node000002_Node000003" class="edge">
<title>Node2&#45;&gt;Node3</title>
<g id="a_edge2_Node000002_Node000003"><a xlink:title=" ">
<path fill="none" stroke="#63b8ff" d="M2350.06,-164.75C2344.13,-157.26 2335.43,-146.28 2328.18,-137.13"/>
<polygon fill="#63b8ff" stroke="#63b8ff" points="2330.76,-134.75 2321.81,-129.09 2325.27,-139.1 2330.76,-134.75"/>
</a>
</g>
</g>
<!-- Node4 -->
<g id="Node000004" class="node">
<title>Node4</title>
<g id="a_Node000004"><a xlink:href="version_8h.html" target="_top" xlink:title=" ">
<polygon fill="white" stroke="#666666" points="2429,-129 2367,-129 2367,-110 2429,-110 2429,-129"/>
<text text-anchor="middle" x="2398" y="-117" font-family="Helvetica,sans-Serif" font-size="10.00">version.h</text>
</a>
</g>
</g>
<!-- Node2&#45;&gt;Node4 -->
<g id="edge3_Node000002_Node000004" class="edge">
<title>Node2&#45;&gt;Node4</title>
<g id="a_edge3_Node000002_Node000004"><a xlink:title=" ">
<path fill="none" stroke="#63b8ff" d="M2363.77,-164.75C2369.56,-157.26 2378.06,-146.28 2385.14,-137.13"/>
<polygon fill="#63b8ff" stroke="#63b8ff" points="2388.01,-139.14 2391.36,-129.09 2382.47,-134.86 2388.01,-139.14"/>
</a>
</g>
</g>
<!-- Node5 -->
<g id="Node000005" class="node">
<title>Node5</title>
<g id="a_Node000005"><a xlink:href="compat_8h.html" target="_top" xlink:title=" ">
<polygon fill="white" stroke="#666666" points="1795,-129 1693,-129 1693,-110 1795,-110 1795,-129"/>
<text text-anchor="middle" x="1744" y="-117" font-family="Helvetica,sans-Serif" font-size="10.00">compat/compat.h</text>
</a>
</g>
</g>
<!-- Node2&#45;&gt;Node5 -->
<g id="edge4_Node000002_Node000005" class="edge">
<title>Node2&#45;&gt;Node5</title>
<g id="a_edge4_Node000002_Node000005"><a xlink:title=" ">
<path fill="none" stroke="#63b8ff" d="M2330.66,-171.22C2239.63,-163.35 1936.7,-137.16 1805.48,-125.82"/>
<polygon fill="#63b8ff" stroke="#63b8ff" points="1805.47,-122.3 1795.21,-124.93 1804.87,-129.28 1805.47,-122.3"/>
</a>
</g>
</g>
<!-- Node6 -->
<g id="Node000006" class="node">
<title>Node6</title>
<g id="a_Node000006"><a xlink:href="osdetect_8h.html" target="_top" xlink:title=" ">
<polygon fill="white" stroke="#666666" points="2387.5,-74 2280.5,-74 2280.5,-55 2387.5,-55 2387.5,-74"/>
<text text-anchor="middle" x="2334" y="-62" font-family="Helvetica,sans-Serif" font-size="10.00">compat/osdetect.h</text>
</a>
</g>
</g>
<!-- Node5&#45;&gt;Node6 -->
<g id="edge5_Node000005_Node000006" class="edge">
<title>Node5&#45;&gt;Node6</title>
<g id="a_edge5_Node000005_Node000006"><a xlink:title=" ">
<path fill="none" stroke="#63b8ff" d="M1795.33,-115.02C1887.95,-108.55 2089.45,-93.64 2270.44,-74"/>
<polygon fill="#63b8ff" stroke="#63b8ff" points="2270.84,-77.48 2280.41,-72.92 2270.09,-70.52 2270.84,-77.48"/>
</a>
</g>
</g>
<!-- Node7 -->
<g id="Node000007" class="node">
<title>Node7</title>
<g id="a_Node000007"><a xlink:href="fdsetsize_8h.html" target="_top" xlink:title=" ">
<polygon fill="white" stroke="#666666" points="2516,-74 2406,-74 2406,-55 2516,-55 2516,-74"/>
<text text-anchor="middle" x="2461" y="-62" font-family="Helvetica,sans-Serif" font-size="10.00">compat/fdsetsize.h</text>
</a>
</g>
</g>
<!-- Node5&#45;&gt;Node7 -->
<g id="edge6_Node000005_Node000007" class="edge">
<title>Node5&#45;&gt;Node7</title>
<g id="a_edge6_Node000005_Node000007"><a xlink:title=" ">
<path fill="none" stroke="#63b8ff" d="M1795.23,-116.08C1903.74,-110.73 2164.94,-96.62 2395.45,-73.98"/>
<polygon fill="#63b8ff" stroke="#63b8ff" points="2396.1,-77.43 2405.71,-72.97 2395.41,-70.47 2396.1,-77.43"/>
</a>
</g>
</g>
<!-- Node8 -->
<g id="Node000008" class="node">
<title>Node8</title>
<g id="a_Node000008"><a xlink:href="types_8h.html" target="_top" xlink:title=" ">
<polygon fill="#fff0f0" stroke="red" points="2626,-74 2534,-74 2534,-55 2626,-55 2626,-74"/>
<text text-anchor="middle" x="2580" y="-62" font-family="Helvetica,sans-Serif" font-size="10.00">compat/types.h</text>
</a>
</g>
</g>
<!-- Node5&#45;&gt;Node8 -->
<g id="edge7_Node000005_Node000008" class="edge">
<title>Node5&#45;&gt;Node8</title>
<g id="a_edge7_Node000005_Node000008"><a xlink:title=" ">
<path fill="none" stroke="#63b8ff" d="M1795.31,-117.29C1918.92,-114 2243.11,-103.19 2523.86,-74.01"/>
<polygon fill="#63b8ff" stroke="#63b8ff" points="2524.25,-77.49 2533.83,-72.97 2523.52,-70.53 2524.25,-77.49"/>
</a>
</g>
</g>
<!-- Node10 -->
<g id="Node000010" class="node">
<title>Node10</title>
<g id="a_Node000010"><a xlink:href="aix_8h.html" target="_top" xlink:title=" ">
<polygon fill="white" stroke="#666666" points="2739.5,-74 2644.5,-74 2644.5,-55 2739.5,-55 2739.5,-74"/>
<text text-anchor="middle" x="2692" y="-62" font-family="Helvetica,sans-Serif" font-size="10.00">compat/os/aix.h</text>
</a>
</g>
</g>
<!-- Node5&#45;&gt;Node10 -->
<g id="edge8_Node000005_Node000010" class="edge">
<title>Node5&#45;&gt;Node10</title>
<g id="a_edge8_Node000005_Node000010"><a xlink:title=" ">
<path fill="none" stroke="#63b8ff" d="M1795.36,-117.7C1930.77,-115.2 2308.88,-105.8 2634.36,-73.94"/>
<polygon fill="#63b8ff" stroke="#63b8ff" points="2634.85,-77.41 2644.46,-72.95 2634.16,-70.45 2634.85,-77.41"/>
</a>
</g>
</g>
<!-- Node11 -->
<g id="Node000011" class="node">
<title>Node11</title>
<g id="a_Node000011"><a xlink:href="android_8h.html" target="_top" xlink:title=" ">
<polygon fill="white" stroke="#666666" points="2874,-74 2758,-74 2758,-55 2874,-55 2874,-74"/>
<text text-anchor="middle" x="2816" y="-62" font-family="Helvetica,sans-Serif" font-size="10.00">compat/os/android.h</text>
</a>
</g>
</g>
<!-- Node5&#45;&gt;Node11 -->
<g id="edge9_Node000005_Node000011" class="edge">
<title>Node5&#45;&gt;Node11</title>
<g id="a_edge9_Node000005_Node000011"><a xlink:title=" ">
<path fill="none" stroke="#63b8ff" d="M1795.03,-117.68C1941.43,-115.02 2375.61,-104.99 2747.64,-73.94"/>
<polygon fill="#63b8ff" stroke="#63b8ff" points="2748.12,-77.41 2757.79,-73.09 2747.54,-70.44 2748.12,-77.41"/>
</a>
</g>
</g>
<!-- Node12 -->
<g id="Node000012" class="node">
<title>Node12</title>
<g id="a_Node000012"><a xlink:href="dragonfly_8h.html" target="_top" xlink:title=" ">
<polygon fill="white" stroke="#666666" points="3016,-74 2892,-74 2892,-55 3016,-55 3016,-74"/>
<text text-anchor="middle" x="2954" y="-62" font-family="Helvetica,sans-Serif" font-size="10.00">compat/os/dragonfly.h</text>
</a>
</g>
</g>
<!-- Node5&#45;&gt;Node12 -->
<g id="edge10_Node000005_Node000012" class="edge">
<title>Node5&#45;&gt;Node12</title>
<g id="a_edge10_Node000005_Node000012"><a xlink:title=" ">
<path fill="none" stroke="#63b8ff" d="M1795.17,-117.96C1954.48,-115.97 2455.87,-107.36 2881.65,-74.04"/>
<polygon fill="#63b8ff" stroke="#63b8ff" points="2882,-77.52 2891.69,-73.25 2881.45,-70.54 2882,-77.52"/>
</a>
</g>
</g>
<!-- Node13 -->
<g id="Node000013" class="node">
<title>Node13</title>
<g id="a_Node000013"><a xlink:href="freebsd_8h.html" target="_top" xlink:title=" ">
<polygon fill="white" stroke="#666666" points="3150,-74 3034,-74 3034,-55 3150,-55 3150,-74"/>
<text text-anchor="middle" x="3092" y="-62" font-family="Helvetica,sans-Serif" font-size="10.00">compat/os/freebsd.h</text>
</a>
</g>
</g>
<!-- Node5&#45;&gt;Node13 -->
<g id="edge11_Node000005_Node000013" class="edge">
<title>Node5&#45;&gt;Node13</title>
<g id="a_edge11_Node000005_Node000013"><a xlink:title=" ">
<path fill="none" stroke="#63b8ff" d="M1795.19,-117.35C1999.7,-112.65 2759.36,-94.27 3023.61,-74.01"/>
<polygon fill="#63b8ff" stroke="#63b8ff" points="3024.23,-77.47 3033.93,-73.2 3023.69,-70.49 3024.23,-77.47"/>
</a>
</g>
</g>
<!-- Node14 -->
<g id="Node000014" class="node">
<title>Node14</title>
<g id="a_Node000014"><a xlink:href="hpux_8h.html" target="_top" xlink:title=" ">
<polygon fill="white" stroke="#666666" points="3272,-74 3168,-74 3168,-55 3272,-55 3272,-74"/>
<text text-anchor="middle" x="3220" y="-62" font-family="Helvetica,sans-Serif" font-size="10.00">compat/os/hpux.h</text>
</a>
</g>
</g>
<!-- Node5&#45;&gt;Node14 -->
<g id="edge12_Node000005_Node000014" class="edge">
<title>Node5&#45;&gt;Node14</title>
<g id="a_edge12_Node000005_Node000014"><a xlink:title=" ">
<path fill="none" stroke="#63b8ff" d="M1795.24,-117.62C2013.28,-113.79 2865.79,-97.62 3157.65,-73.99"/>
<polygon fill="#63b8ff" stroke="#63b8ff" points="3158.12,-77.47 3167.8,-73.15 3157.54,-70.49 3158.12,-77.47"/>
</a>
</g>
</g>
<!-- Node15 -->
<g id="Node000015" class="node">
<title>Node15</title>
<g id="a_Node000015"><a xlink:href="linux_8h.html" target="_top" xlink:title=" ">
<polygon fill="white" stroke="#666666" points="104,-74 0,-74 0,-55 104,-55 104,-74"/>
<text text-anchor="middle" x="52" y="-62" font-family="Helvetica,sans-Serif" font-size="10.00">compat/os/linux.h</text>
</a>
</g>
</g>
<!-- Node5&#45;&gt;Node15 -->
<g id="edge13_Node000005_Node000015" class="edge">
<title>Node5&#45;&gt;Node15</title>
<g id="a_edge13_Node000005_Node000015"><a xlink:title=" ">
<path fill="none" stroke="#63b8ff" d="M1692.82,-117.87C1454.56,-114.83 451.79,-100.7 114.47,-74"/>
<polygon fill="#63b8ff" stroke="#63b8ff" points="114.45,-70.48 104.2,-73.16 113.88,-77.46 114.45,-70.48"/>
</a>
</g>
</g>
<!-- Node16 -->
<g id="Node000016" class="node">
<title>Node16</title>
<g id="a_Node000016"><a xlink:href="macosx_8h.html" target="_top" xlink:title=" ">
<polygon fill="white" stroke="#666666" points="240,-74 122,-74 122,-55 240,-55 240,-74"/>
<text text-anchor="middle" x="181" y="-62" font-family="Helvetica,sans-Serif" font-size="10.00">compat/os/macosx.h</text>
</a>
</g>
</g>
<!-- Node5&#45;&gt;Node16 -->
<g id="edge14_Node000005_Node000016" class="edge">
<title>Node5&#45;&gt;Node16</title>
<g id="a_edge14_Node000005_Node000016"><a xlink:title=" ">
<path fill="none" stroke="#63b8ff" d="M1692.92,-118.73C1503.36,-119.21 822.08,-117.64 250.4,-74.02"/>
<polygon fill="#63b8ff" stroke="#63b8ff" points="250.54,-70.52 240.3,-73.25 250.01,-77.5 250.54,-70.52"/>
</a>
</g>
</g>
<!-- Node17 -->
<g id="Node000017" class="node">
<title>Node17</title>
<g id="a_Node000017"><a xlink:href="mingw_8h.html" target="_top" xlink:title=" ">
<polygon fill="white" stroke="#666666" points="370,-74 258,-74 258,-55 370,-55 370,-74"/>
<text text-anchor="middle" x="314" y="-62" font-family="Helvetica,sans-Serif" font-size="10.00">compat/os/mingw.h</text>
</a>
</g>
</g>
<!-- Node5&#45;&gt;Node17 -->
<g id="edge15_Node000005_Node000017" class="edge">
<title>Node5&#45;&gt;Node17</title>
<g id="a_edge15_Node000005_Node000017"><a xlink:title=" ">
<path fill="none" stroke="#63b8ff" d="M1692.77,-118.63C1513.62,-118.69 898.52,-115.71 380.63,-74.04"/>
<polygon fill="#63b8ff" stroke="#63b8ff" points="380.58,-70.53 370.33,-73.21 380.02,-77.5 380.58,-70.53"/>
</a>
</g>
</g>
<!-- Node18 -->
<g id="Node000018" class="node">
<title>Node18</title>
<g id="a_Node000018"><a xlink:href="mswindows_8h.html" target="_top" xlink:title=" ">
<polygon fill="white" stroke="#666666" points="525.5,-74 388.5,-74 388.5,-55 525.5,-55 525.5,-74"/>
<text text-anchor="middle" x="457" y="-62" font-family="Helvetica,sans-Serif" font-size="10.00">compat/os/mswindows.h</text>
</a>
</g>
</g>
<!-- Node5&#45;&gt;Node18 -->
<g id="edge16_Node000005_Node000018" class="edge">
<title>Node5&#45;&gt;Node18</title>
<g id="a_edge16_Node000005_Node000018"><a xlink:title=" ">
<path fill="none" stroke="#63b8ff" d="M1692.92,-117.96C1527.33,-115.92 990.33,-107.08 535.87,-74.08"/>
<polygon fill="#63b8ff" stroke="#63b8ff" points="536.05,-70.59 525.82,-73.35 535.54,-77.57 536.05,-70.59"/>
</a>
</g>
</g>
<!-- Node19 -->
<g id="Node000019" class="node">
<title>Node19</title>
<g id="a_Node000019"><a xlink:href="netbsd_8h.html" target="_top" xlink:title=" ">
<polygon fill="white" stroke="#666666" points="656.5,-74 543.5,-74 543.5,-55 656.5,-55 656.5,-74"/>
<text text-anchor="middle" x="600" y="-62" font-family="Helvetica,sans-Serif" font-size="10.00">compat/os/netbsd.h</text>
</a>
</g>
</g>
<!-- Node5&#45;&gt;Node19 -->
<g id="edge17_Node000005_Node000019" class="edge">
<title>Node5&#45;&gt;Node19</title>
<g id="a_edge17_Node000005_Node000019"><a xlink:title=" ">
<path fill="none" stroke="#63b8ff" d="M1692.79,-118C1538.99,-116.16 1067.53,-108.01 666.74,-74.07"/>
<polygon fill="#63b8ff" stroke="#63b8ff" points="666.95,-70.58 656.69,-73.21 666.35,-77.55 666.95,-70.58"/>
</a>
</g>
</g>
<!-- Node20 -->
<g id="Node000020" class="node">
<title>Node20</title>
<g id="a_Node000020"><a xlink:href="openbsd_8h.html" target="_top" xlink:title=" ">
<polygon fill="white" stroke="#666666" points="795.5,-74 674.5,-74 674.5,-55 795.5,-55 795.5,-74"/>
<text text-anchor="middle" x="735" y="-62" font-family="Helvetica,sans-Serif" font-size="10.00">compat/os/openbsd.h</text>
</a>
</g>
</g>
<!-- Node5&#45;&gt;Node20 -->
<g id="edge18_Node000005_Node000020" class="edge">
<title>Node5&#45;&gt;Node20</title>
<g id="a_edge18_Node000005_Node000020"><a xlink:title=" ">
<path fill="none" stroke="#63b8ff" d="M1692.96,-117.43C1552.9,-114.22 1150.56,-103.05 805.74,-74.08"/>
<polygon fill="#63b8ff" stroke="#63b8ff" points="805.81,-70.58 795.56,-73.22 805.22,-77.55 805.81,-70.58"/>
</a>
</g>
</g>
<!-- Node21 -->
<g id="Node000021" class="node">
<title>Node21</title>
<g id="a_Node000021"><a xlink:href="os2_8h.html" target="_top" xlink:title=" ">
<polygon fill="white" stroke="#666666" points="910.5,-74 813.5,-74 813.5,-55 910.5,-55 910.5,-74"/>
<text text-anchor="middle" x="862" y="-62" font-family="Helvetica,sans-Serif" font-size="10.00">compat/os/os2.h</text>
</a>
</g>
</g>
<!-- Node5&#45;&gt;Node21 -->
<g id="edge19_Node000005_Node000021" class="edge">
<title>Node5&#45;&gt;Node21</title>
<g id="a_edge19_Node000005_Node000021"><a xlink:title=" ">
<path fill="none" stroke="#63b8ff" d="M1692.77,-117.36C1564.56,-114.17 1219.39,-103.42 920.85,-73.98"/>
<polygon fill="#63b8ff" stroke="#63b8ff" points="920.99,-70.47 910.69,-72.97 920.3,-77.44 920.99,-70.47"/>
</a>
</g>
</g>
<!-- Node22 -->
<g id="Node000022" class="node">
<title>Node22</title>
<g id="a_Node000022"><a xlink:href="qnx_8h.html" target="_top" xlink:title=" ">
<polygon fill="white" stroke="#666666" points="1027,-74 929,-74 929,-55 1027,-55 1027,-74"/>
<text text-anchor="middle" x="978" y="-62" font-family="Helvetica,sans-Serif" font-size="10.00">compat/os/qnx.h</text>
</a>
</g>
</g>
<!-- Node5&#45;&gt;Node22 -->
<g id="edge20_Node000005_Node000022" class="edge">
<title>Node5&#45;&gt;Node22</title>
<g id="a_edge20_Node000005_Node000022"><a xlink:title=" ">
<path fill="none" stroke="#63b8ff" d="M1692.79,-116.74C1577.58,-112.45 1289.03,-99.97 1037.09,-74.02"/>
<polygon fill="#63b8ff" stroke="#63b8ff" points="1037.32,-70.53 1027.01,-72.97 1036.6,-77.49 1037.32,-70.53"/>
</a>
</g>
</g>
<!-- Node23 -->
<g id="Node000023" class="node">
<title>Node23</title>
<g id="a_Node000023"><a xlink:href="sgi_8h.html" target="_top" xlink:title=" ">
<polygon fill="white" stroke="#666666" points="1139,-74 1045,-74 1045,-55 1139,-55 1139,-74"/>
<text text-anchor="middle" x="1092" y="-62" font-family="Helvetica,sans-Serif" font-size="10.00">compat/os/sgi.h</text>
</a>
</g>
</g>
<!-- Node5&#45;&gt;Node23 -->
<g id="edge21_Node000005_Node000023" class="edge">
<title>Node5&#45;&gt;Node23</title>
<g id="a_edge21_Node000005_Node000023"><a xlink:title=" ">
<path fill="none" stroke="#63b8ff" d="M1692.85,-116C1591.29,-110.74 1356.77,-97.18 1149.2,-74.05"/>
<polygon fill="#63b8ff" stroke="#63b8ff" points="1149.35,-70.54 1139.02,-72.9 1148.57,-77.5 1149.35,-70.54"/>
</a>
</g>
</g>
<!-- Node24 -->
<g id="Node000024" class="node">
<title>Node24</title>
<g id="a_Node000024"><a xlink:href="solaris_8h.html" target="_top" xlink:title=" ">
<polygon fill="white" stroke="#666666" points="1269,-74 1157,-74 1157,-55 1269,-55 1269,-74"/>
<text text-anchor="middle" x="1213" y="-62" font-family="Helvetica,sans-Serif" font-size="10.00">compat/os/solaris.h</text>
</a>
</g>
</g>
<!-- Node5&#45;&gt;Node24 -->
<g id="edge22_Node000005_Node000024" class="edge">
<title>Node5&#45;&gt;Node24</title>
<g id="a_edge22_Node000005_Node000024"><a xlink:title=" ">
<path fill="none" stroke="#63b8ff" d="M1692.91,-114.21C1608.94,-107.02 1436.24,-91.71 1279.32,-74.11"/>
<polygon fill="#63b8ff" stroke="#63b8ff" points="1279.33,-70.59 1269,-72.95 1278.55,-77.55 1279.33,-70.59"/>
</a>
</g>
</g>
<!-- Node25 -->
<g id="Node000025" class="node">
<title>Node25</title>
<g id="a_Node000025"><a xlink:href="sunos_8h.html" target="_top" xlink:title=" ">
<polygon fill="white" stroke="#666666" points="1395,-74 1287,-74 1287,-55 1395,-55 1395,-74"/>
<text text-anchor="middle" x="1341" y="-62" font-family="Helvetica,sans-Serif" font-size="10.00">compat/os/sunos.h</text>
</a>
</g>
</g>
<!-- Node5&#45;&gt;Node25 -->
<g id="edge23_Node000005_Node000025" class="edge">
<title>Node5&#45;&gt;Node25</title>
<g id="a_edge23_Node000005_Node000025"><a xlink:title=" ">
<path fill="none" stroke="#63b8ff" d="M1692.73,-111.85C1628.18,-103.47 1513.59,-88.55 1405.41,-74.18"/>
<polygon fill="#63b8ff" stroke="#63b8ff" points="1405.67,-70.69 1395.29,-72.84 1404.75,-77.63 1405.67,-70.69"/>
</a>
</g>
</g>
<!-- Node26 -->
<g id="Node000026" class="node">
<title>Node26</title>
<g id="a_Node000026"><a xlink:href="assert_8h.html" target="_top" xlink:title=" ">
<polygon fill="white" stroke="#666666" points="1508.5,-74 1413.5,-74 1413.5,-55 1508.5,-55 1508.5,-74"/>
<text text-anchor="middle" x="1461" y="-62" font-family="Helvetica,sans-Serif" font-size="10.00">compat/assert.h</text>
</a>
</g>
</g>
<!-- Node5&#45;&gt;Node26 -->
<g id="edge24_Node000005_Node000026" class="edge">
<title>Node5&#45;&gt;Node26</title>
<g id="a_edge24_Node000005_Node000026"><a xlink:title=" ">
<path fill="none" stroke="#63b8ff" d="M1698.53,-109.98C1649.06,-100.72 1569.95,-85.9 1516.77,-75.94"/>
<polygon fill="#63b8ff" stroke="#63b8ff" points="1517.3,-72.48 1506.83,-74.08 1516.01,-79.36 1517.3,-72.48"/>
</a>
</g>
</g>
<!-- Node27 -->
<g id="Node000027" class="node">
<title>Node27</title>
<g id="a_Node000027"><a xlink:href="compat__shared_8h.html" target="_top" xlink:title=" ">
<polygon fill="#fff0f0" stroke="red" points="1667,-74 1527,-74 1527,-55 1667,-55 1667,-74"/>
<text text-anchor="middle" x="1597" y="-62" font-family="Helvetica,sans-Serif" font-size="10.00">compat/compat_shared.h</text>
</a>
</g>
</g>
<!-- Node5&#45;&gt;Node27 -->
<g id="edge25_Node000005_Node000027" class="edge">
<title>Node5&#45;&gt;Node27</title>
<g id="a_edge25_Node000005_Node000027"><a xlink:title=" ">
<path fill="none" stroke="#63b8ff" d="M1720.38,-109.98C1696.1,-101.23 1658.05,-87.51 1630.63,-77.62"/>
<polygon fill="#63b8ff" stroke="#63b8ff" points="1631.64,-74.27 1621.05,-74.17 1629.27,-80.85 1631.64,-74.27"/>
</a>
</g>
</g>
<!-- Node37 -->
<g id="Node000037" class="node">
<title>Node37</title>
<g id="a_Node000037"><a xlink:href="stdvarargs_8h.html" target="_top" xlink:title=" ">
<polygon fill="#fff0f0" stroke="red" points="1802.5,-74 1685.5,-74 1685.5,-55 1802.5,-55 1802.5,-74"/>
<text text-anchor="middle" x="1744" y="-62" font-family="Helvetica,sans-Serif" font-size="10.00">compat/stdvarargs.h</text>
</a>
</g>
</g>
<!-- Node5&#45;&gt;Node37 -->
<g id="edge26_Node000005_Node000037" class="edge">
<title>Node5&#45;&gt;Node37</title>
<g id="a_edge26_Node000005_Node000037"><a xlink:title=" ">
<path fill="none" stroke="#63b8ff" d="M1744,-109.75C1744,-102.8 1744,-92.85 1744,-84.13"/>
<polygon fill="#63b8ff" stroke="#63b8ff" points="1747.5,-84.09 1744,-74.09 1740.5,-84.09 1747.5,-84.09"/>
</a>
</g>
</g>
<!-- Node39 -->
<g id="Node000039" class="node">
<title>Node39</title>
<g id="a_Node000039"><a xlink:href="stdio_8h.html" target="_top" xlink:title=" ">
<polygon fill="#fff0f0" stroke="red" points="1909.5,-74 1820.5,-74 1820.5,-55 1909.5,-55 1909.5,-74"/>
<text text-anchor="middle" x="1865" y="-62" font-family="Helvetica,sans-Serif" font-size="10.00">compat/stdio.h</text>
</a>
</g>
</g>
<!-- Node5&#45;&gt;Node39 -->
<g id="edge27_Node000005_Node000039" class="edge">
<title>Node5&#45;&gt;Node39</title>
<g id="a_edge27_Node000005_Node000039"><a xlink:title=" ">
<path fill="none" stroke="#63b8ff" d="M1763.44,-109.98C1782.99,-101.42 1813.38,-88.11 1835.82,-78.28"/>
<polygon fill="#63b8ff" stroke="#63b8ff" points="1837.45,-81.39 1845.21,-74.17 1834.64,-74.98 1837.45,-81.39"/>
</a>
</g>
</g>
<!-- Node41 -->
<g id="Node000041" class="node">
<title>Node41</title>
<g id="a_Node000041"><a xlink:href="statvfs_8h.html" target="_top" xlink:title=" ">
<polygon fill="white" stroke="#666666" points="2026.5,-74 1927.5,-74 1927.5,-55 2026.5,-55 2026.5,-74"/>
<text text-anchor="middle" x="1977" y="-62" font-family="Helvetica,sans-Serif" font-size="10.00">compat/statvfs.h</text>
</a>
</g>
</g>
<!-- Node5&#45;&gt;Node41 -->
<g id="edge28_Node000005_Node000041" class="edge">
<title>Node5&#45;&gt;Node41</title>
<g id="a_edge28_Node000005_Node000041"><a xlink:title=" ">
<path fill="none" stroke="#63b8ff" d="M1781.44,-109.98C1821.65,-100.84 1885.68,-86.27 1929.44,-76.32"/>
<polygon fill="#63b8ff" stroke="#63b8ff" points="1930.3,-79.71 1939.27,-74.08 1928.74,-72.89 1930.3,-79.71"/>
</a>
</g>
</g>
<!-- Node42 -->
<g id="Node000042" class="node">
<title>Node42</title>
<g id="a_Node000042"><a xlink:href="debug_8h.html" target="_top" xlink:title=" ">
<polygon fill="white" stroke="#666666" points="2139.5,-74 2044.5,-74 2044.5,-55 2139.5,-55 2139.5,-74"/>
<text text-anchor="middle" x="2092" y="-62" font-family="Helvetica,sans-Serif" font-size="10.00">compat/debug.h</text>
</a>
</g>
</g>
<!-- Node5&#45;&gt;Node42 -->
<g id="edge29_Node000005_Node000042" class="edge">
<title>Node5&#45;&gt;Node42</title>
<g id="a_edge29_Node000005_Node000042"><a xlink:title=" ">
<path fill="none" stroke="#63b8ff" d="M1795.35,-110.68C1859.19,-100.96 1967.85,-84.41 2034.45,-74.27"/>
<polygon fill="#63b8ff" stroke="#63b8ff" points="2035,-77.72 2044.36,-72.76 2033.95,-70.8 2035,-77.72"/>
</a>
</g>
</g>
<!-- Node43 -->
<g id="Node000043" class="node">
<title>Node43</title>
<g id="a_Node000043"><a xlink:href="valgrind_8h.html" target="_top" xlink:title=" ">
<polygon fill="#fff0f0" stroke="red" points="2262.5,-74 2157.5,-74 2157.5,-55 2262.5,-55 2262.5,-74"/>
<text text-anchor="middle" x="2210" y="-62" font-family="Helvetica,sans-Serif" font-size="10.00">compat/valgrind.h</text>
</a>
</g>
</g>
<!-- Node5&#45;&gt;Node43 -->
<g id="edge30_Node000005_Node000043" class="edge">
<title>Node5&#45;&gt;Node43</title>
<g id="a_edge30_Node000005_Node000043"><a xlink:title=" ">
<path fill="none" stroke="#63b8ff" d="M1795.07,-113.31C1869.9,-105.62 2013.99,-90.43 2147.26,-74.06"/>
<polygon fill="#63b8ff" stroke="#63b8ff" points="2147.75,-77.53 2157.25,-72.83 2146.89,-70.58 2147.75,-77.53"/>
</a>
</g>
</g>
<!-- Node46 -->
<g id="Node000046" class="node">
<title>Node46</title>
<g id="a_Node000046"><a xlink:href="AsyncCall_8h.html" target="_top" xlink:title=" ">
<polygon fill="white" stroke="#666666" points="3507,-129 3407,-129 3407,-110 3507,-110 3507,-129"/>
<text text-anchor="middle" x="3457" y="-117" font-family="Helvetica,sans-Serif" font-size="10.00">base/AsyncCall.h</text>
</a>
</g>
</g>
<!-- Node45&#45;&gt;Node46 -->
<g id="edge32_Node000045_Node000046" class="edge">
<title>Node45&#45;&gt;Node46</title>
<g id="a_edge32_Node000045_Node000046"><a xlink:title=" ">
<path fill="none" stroke="#63b8ff" d="M3347.89,-164.98C3369.08,-156.34 3402.13,-142.87 3426.3,-133.02"/>
<polygon fill="#63b8ff" stroke="#63b8ff" points="3427.79,-136.19 3435.73,-129.17 3425.15,-129.7 3427.79,-136.19"/>
</a>
</g>
</g>
<!-- Node62 -->
<g id="Node000062" class="node">
<title>Node62</title>
<g id="a_Node000062"><a xlink:href="cbdata_8h.html" target="_top" xlink:title=" ">
<polygon fill="white" stroke="#666666" points="3584.5,-129 3525.5,-129 3525.5,-110 3584.5,-110 3584.5,-129"/>
<text text-anchor="middle" x="3555" y="-117" font-family="Helvetica,sans-Serif" font-size="10.00">cbdata.h</text>
</a>
</g>
</g>
<!-- Node45&#45;&gt;Node62 -->
<g id="edge40_Node000045_Node000062" class="edge">
<title>Node45&#45;&gt;Node62</title>
<g id="a_edge40_Node000045_Node000062"><a xlink:title=" ">
<path fill="none" stroke="#63b8ff" d="M3360.15,-165.79C3401.4,-156.2 3471.75,-139.85 3515.68,-129.64"/>
<polygon fill="#63b8ff" stroke="#63b8ff" points="3516.49,-133.05 3525.43,-127.37 3514.9,-126.23 3516.49,-133.05"/>
</a>
</g>
</g>
<!-- Node63 -->
<g id="Node000063" class="node">
<title>Node63</title>
<g id="a_Node000063"><a xlink:href="DiskFile_8h.html" target="_top" xlink:title=" ">
<polygon fill="#fff0f0" stroke="red" points="3817,-74 3717,-74 3717,-55 3817,-55 3817,-74"/>
<text text-anchor="middle" x="3767" y="-62" font-family="Helvetica,sans-Serif" font-size="10.00">DiskIO/DiskFile.h</text>
</a>
</g>
</g>
<!-- Node45&#45;&gt;Node63 -->
<g id="edge41_Node000045_Node000063" class="edge">
<title>Node45&#45;&gt;Node63</title>
<g id="a_edge41_Node000045_Node000063"><a xlink:title=" ">
<path fill="none" stroke="#63b8ff" d="M3360.42,-166.42C3363.31,-165.9 3366.2,-165.42 3369,-165 3449.16,-152.94 3664.33,-173.62 3732,-129 3747.73,-118.63 3757.03,-98.68 3762.04,-83.9"/>
<polygon fill="#63b8ff" stroke="#63b8ff" points="3765.41,-84.84 3764.96,-74.26 3758.71,-82.81 3765.41,-84.84"/>
</a>
</g>
</g>
<!-- Node66 -->
<g id="Node000066" class="node">
<title>Node66</title>
<g id="a_Node000066"><a xlink:href="IORequestor_8h.html" target="_top" xlink:title=" ">
<polygon fill="white" stroke="#666666" points="3723,-129 3603,-129 3603,-110 3723,-110 3723,-129"/>
<text text-anchor="middle" x="3663" y="-117" font-family="Helvetica,sans-Serif" font-size="10.00">DiskIO/IORequestor.h</text>
</a>
</g>
</g>
<!-- Node45&#45;&gt;Node66 -->
<g id="edge43_Node000045_Node000066" class="edge">
<title>Node45&#45;&gt;Node66</title>
<g id="a_edge43_Node000045_Node000066"><a xlink:title=" ">
<path fill="none" stroke="#63b8ff" d="M3360.44,-166.58C3363.33,-166.03 3366.22,-165.49 3369,-165 3445.29,-151.52 3533.16,-138.55 3592.83,-130.13"/>
<polygon fill="#63b8ff" stroke="#63b8ff" points="3593.48,-133.57 3602.89,-128.71 3592.5,-126.64 3593.48,-133.57"/>
</a>
</g>
</g>
<!-- Node67 -->
<g id="Node000067" class="node">
<title>Node67</title>
<g id="a_Node000067"><a xlink:href="ipc_2forward_8h.html" target="_top" xlink:title=" ">
<polygon fill="white" stroke="#666666" points="2994,-129 2914,-129 2914,-110 2994,-110 2994,-129"/>
<text text-anchor="middle" x="2954" y="-117" font-family="Helvetica,sans-Serif" font-size="10.00">ipc/forward.h</text>
</a>
</g>
</g>
<!-- Node45&#45;&gt;Node67 -->
<g id="edge45_Node000045_Node000067" class="edge">
<title>Node45&#45;&gt;Node67</title>
<g id="a_edge45_Node000045_Node000067"><a xlink:title=" ">
<path fill="none" stroke="#63b8ff" d="M3293.83,-169.34C3236.82,-162.1 3116.37,-146.43 3004.22,-129.14"/>
<polygon fill="#63b8ff" stroke="#63b8ff" points="3004.51,-125.65 2994.09,-127.57 3003.44,-132.56 3004.51,-125.65"/>
</a>
</g>
</g>
<!-- Node68 -->
<g id="Node000068" class="node">
<title>Node68</title>
<g id="a_Node000068"><a xlink:href="Page_8h.html" target="_top" xlink:title=" ">
<polygon fill="#fff0f0" stroke="red" points="3107.5,-129 3012.5,-129 3012.5,-110 3107.5,-110 3107.5,-129"/>
<text text-anchor="middle" x="3060" y="-117" font-family="Helvetica,sans-Serif" font-size="10.00">ipc/mem/Page.h</text>
</a>
</g>
</g>
<!-- Node45&#45;&gt;Node68 -->
<g id="edge46_Node000045_Node000068" class="edge">
<title>Node45&#45;&gt;Node68</title>
<g id="a_edge46_Node000045_Node000068"><a xlink:title=" ">
<path fill="none" stroke="#63b8ff" d="M3293.99,-166.95C3248.77,-157.97 3167.04,-141.75 3113.14,-131.05"/>
<polygon fill="#63b8ff" stroke="#63b8ff" points="3113.57,-127.57 3103.08,-129.05 3112.21,-134.43 3113.57,-127.57"/>
</a>
</g>
</g>
<!-- Node70 -->
<g id="Node000070" class="node">
<title>Node70</title>
<g id="a_Node000070"><a xlink:href="SquidString_8h.html" target="_top" xlink:title=" ">
<polygon fill="#fff0f0" stroke="red" points="3206.5,-129 3125.5,-129 3125.5,-110 3206.5,-110 3206.5,-129"/>
<text text-anchor="middle" x="3166" y="-117" font-family="Helvetica,sans-Serif" font-size="10.00">SquidString.h</text>
</a>
</g>
</g>
<!-- Node45&#45;&gt;Node70 -->
<g id="edge47_Node000045_Node000070" class="edge">
<title>Node45&#45;&gt;Node70</title>
<g id="a_edge47_Node000045_Node000070"><a xlink:title=" ">
<path fill="none" stroke="#63b8ff" d="M3301.13,-164.98C3274.22,-156.13 3231.88,-142.19 3201.77,-132.28"/>
<polygon fill="#63b8ff" stroke="#63b8ff" points="3202.66,-128.88 3192.07,-129.08 3200.47,-135.53 3202.66,-128.88"/>
</a>
</g>
</g>
<!-- Node80 -->
<g id="Node000080" class="node">
<title>Node80</title>
<g id="a_Node000080"><a xlink:title=" ">
<polygon fill="#e0e0e0" stroke="#999999" points="3257,-129 3225,-129 3225,-110 3257,-110 3257,-129"/>
<text text-anchor="middle" x="3241" y="-117" font-family="Helvetica,sans-Serif" font-size="10.00">list</text>
</a>
</g>
</g>
<!-- Node45&#45;&gt;Node80 -->
<g id="edge48_Node000045_Node000080" class="edge">
<title>Node45&#45;&gt;Node80</title>
<g id="a_edge48_Node000045_Node000080"><a xlink:title=" ">
<path fill="none" stroke="#63b8ff" d="M3313.18,-164.98C3299.85,-156.77 3279.42,-144.18 3263.69,-134.49"/>
<polygon fill="#63b8ff" stroke="#63b8ff" points="3265.42,-131.44 3255.07,-129.17 3261.75,-137.4 3265.42,-131.44"/>
</a>
</g>
</g>
<!-- Node82 -->
<g id="Node000082" class="node">
<title>Node82</title>
<g id="a_Node000082"><a xlink:title=" ">
<polygon fill="#e0e0e0" stroke="#999999" points="3313,-129 3275,-129 3275,-110 3313,-110 3313,-129"/>
<text text-anchor="middle" x="3294" y="-117" font-family="Helvetica,sans-Serif" font-size="10.00">map</text>
</a>
</g>
</g>
<!-- Node45&#45;&gt;Node82 -->
<g id="edge49_Node000045_Node000082" class="edge">
<title>Node45&#45;&gt;Node82</title>
<g id="a_edge49_Node000045_Node000082"><a xlink:title=" ">
<path fill="none" stroke="#63b8ff" d="M3321.55,-164.75C3316.99,-157.42 3310.33,-146.73 3304.71,-137.7"/>
<polygon fill="#63b8ff" stroke="#63b8ff" points="3307.6,-135.73 3299.35,-129.09 3301.66,-139.43 3307.6,-135.73"/>
</a>
</g>
</g>
<!-- Node83 -->
<g id="Node000083" class="node">
<title>Node83</title>
<g id="a_Node000083"><a xlink:title=" ">
<polygon fill="#e0e0e0" stroke="#999999" points="3389,-129 3331,-129 3331,-110 3389,-110 3389,-129"/>
<text text-anchor="middle" x="3360" y="-117" font-family="Helvetica,sans-Serif" font-size="10.00">memory</text>
</a>
</g>
</g>
<!-- Node45&#45;&gt;Node83 -->
<g id="edge50_Node000045_Node000083" class="edge">
<title>Node45&#45;&gt;Node83</title>
<g id="a_edge50_Node000045_Node000083"><a xlink:title=" ">
<path fill="none" stroke="#63b8ff" d="M3332.45,-164.75C3337.01,-157.42 3343.67,-146.73 3349.29,-137.7"/>
<polygon fill="#63b8ff" stroke="#63b8ff" points="3352.34,-139.43 3354.65,-129.09 3346.4,-135.73 3352.34,-139.43"/>
</a>
</g>
</g>
<!-- Node47 -->
<g id="Node000047" class="node">
<title>Node47</title>
<g id="a_Node000047"><a xlink:href="CodeContext_8h.html" target="_top" xlink:title=" ">
<polygon fill="#fff0f0" stroke="red" points="3515.5,-74 3400.5,-74 3400.5,-55 3515.5,-55 3515.5,-74"/>
<text text-anchor="middle" x="3458" y="-62" font-family="Helvetica,sans-Serif" font-size="10.00">base/CodeContext.h</text>
</a>
</g>
</g>
<!-- Node46&#45;&gt;Node47 -->
<g id="edge33_Node000046_Node000047" class="edge">
<title>Node46&#45;&gt;Node47</title>
<g id="a_edge33_Node000046_Node000047"><a xlink:title=" ">
<path fill="none" stroke="#63b8ff" d="M3457.17,-109.75C3457.3,-102.8 3457.48,-92.85 3457.65,-84.13"/>
<polygon fill="#63b8ff" stroke="#63b8ff" points="3461.15,-84.15 3457.84,-74.09 3454.15,-84.02 3461.15,-84.15"/>
</a>
</g>
</g>
<!-- Node48 -->
<g id="Node000048" class="node">
<title>Node48</title>
<g id="a_Node000048"><a xlink:href="InstanceId_8h.html" target="_top" xlink:title=" ">
<polygon fill="#fff0f0" stroke="red" points="3466,-19 3364,-19 3364,0 3466,0 3466,-19"/>
<text text-anchor="middle" x="3415" y="-7" font-family="Helvetica,sans-Serif" font-size="10.00">base/InstanceId.h</text>
</a>
</g>
</g>
<!-- Node46&#45;&gt;Node48 -->
<g id="edge37_Node000046_Node000048" class="edge">
<title>Node46&#45;&gt;Node48</title>
<g id="a_edge37_Node000046_Node000048"><a xlink:title=" ">
<path fill="none" stroke="#63b8ff" d="M3434.22,-109.89C3418.97,-102.79 3400.08,-91.08 3391,-74 3382.91,-58.78 3391.89,-40.23 3401.09,-27.11"/>
<polygon fill="#63b8ff" stroke="#63b8ff" points="3403.99,-29.09 3407.28,-19.01 3398.42,-24.84 3403.99,-29.09"/>
</a>
</g>
</g>
<!-- Node50 -->
<g id="Node000050" class="node">
<title>Node50</title>
<g id="a_Node000050"><a xlink:href="RefCount_8h.html" target="_top" xlink:title=" ">
<polygon fill="#fff0f0" stroke="red" points="3737.5,-19 3640.5,-19 3640.5,0 3737.5,0 3737.5,-19"/>
<text text-anchor="middle" x="3689" y="-7" font-family="Helvetica,sans-Serif" font-size="10.00">base/RefCount.h</text>
</a>
</g>
</g>
<!-- Node46&#45;&gt;Node50 -->
<g id="edge39_Node000046_Node000050" class="edge">
<title>Node46&#45;&gt;Node50</title>
<g id="a_edge39_Node000046_Node000050"><a xlink:title=" ">
<path fill="none" stroke="#63b8ff" d="M3502.21,-110C3546.21,-101.19 3609.48,-86.92 3631,-74 3650.32,-62.4 3667.02,-42.41 3677.48,-27.95"/>
<polygon fill="#63b8ff" stroke="#63b8ff" points="3680.59,-29.6 3683.41,-19.39 3674.83,-25.61 3680.59,-29.6"/>
</a>
</g>
</g>
<!-- Node56 -->
<g id="Node000056" class="node">
<title>Node56</title>
<g id="a_Node000056"><a xlink:href="base_2forward_8h.html" target="_top" xlink:title=" ">
<polygon fill="white" stroke="#666666" points="3622.5,-74 3533.5,-74 3533.5,-55 3622.5,-55 3622.5,-74"/>
<text text-anchor="middle" x="3578" y="-62" font-family="Helvetica,sans-Serif" font-size="10.00">base/forward.h</text>
</a>
</g>
</g>
<!-- Node46&#45;&gt;Node56 -->
<g id="edge36_Node000046_Node000056" class="edge">
<title>Node46&#45;&gt;Node56</title>
<g id="a_edge36_Node000046_Node000056"><a xlink:title=" ">
<path fill="none" stroke="#63b8ff" d="M3476.44,-109.98C3495.99,-101.42 3526.38,-88.11 3548.82,-78.28"/>
<polygon fill="#63b8ff" stroke="#63b8ff" points="3550.45,-81.39 3558.21,-74.17 3547.64,-74.98 3550.45,-81.39"/>
</a>
</g>
</g>
<!-- Node57 -->
<g id="Node000057" class="node">
<title>Node57</title>
<g id="a_Node000057"><a xlink:href="event_8h.html" target="_top" xlink:title=" ">
<polygon fill="#fff0f0" stroke="red" points="3343.5,-74 3290.5,-74 3290.5,-55 3343.5,-55 3343.5,-74"/>
<text text-anchor="middle" x="3317" y="-62" font-family="Helvetica,sans-Serif" font-size="10.00">event.h</text>
</a>
</g>
</g>
<!-- Node46&#45;&gt;Node57 -->
<g id="edge38_Node000046_Node000057" class="edge">
<title>Node46&#45;&gt;Node57</title>
<g id="a_edge38_Node000046_Node000057"><a xlink:title=" ">
<path fill="none" stroke="#63b8ff" d="M3434.51,-109.98C3411.48,-101.27 3375.46,-87.63 3349.37,-77.75"/>
<polygon fill="#63b8ff" stroke="#63b8ff" points="3350.49,-74.44 3339.9,-74.17 3348.02,-80.98 3350.49,-74.44"/>
</a>
</g>
</g>
<!-- Node47&#45;&gt;Node48 -->
<g id="edge34_Node000047_Node000048" class="edge">
<title>Node47&#45;&gt;Node48</title>
<g id="a_edge34_Node000047_Node000048"><a xlink:title=" ">
<path fill="none" stroke="#63b8ff" d="M3450.9,-54.75C3444.83,-47.26 3435.91,-36.28 3428.49,-27.13"/>
<polygon fill="#63b8ff" stroke="#63b8ff" points="3430.99,-24.65 3421.97,-19.09 3425.55,-29.06 3430.99,-24.65"/>
</a>
</g>
</g>
<!-- Node47&#45;&gt;Node50 -->
<g id="edge35_Node000047_Node000050" class="edge">
<title>Node47&#45;&gt;Node50</title>
<g id="a_edge35_Node000047_Node000050"><a xlink:title=" ">
<path fill="none" stroke="#63b8ff" d="M3495.11,-54.98C3534.99,-45.84 3598.46,-31.27 3641.84,-21.32"/>
<polygon fill="#63b8ff" stroke="#63b8ff" points="3642.63,-24.73 3651.59,-19.08 3641.07,-17.91 3642.63,-24.73"/>
</a>
</g>
</g>
<!-- Node63&#45;&gt;Node50 -->
<g id="edge42_Node000063_Node000050" class="edge">
<title>Node63&#45;&gt;Node50</title>
<g id="a_edge42_Node000063_Node000050"><a xlink:title=" ">
<path fill="none" stroke="#63b8ff" d="M3754.47,-54.98C3742.6,-46.92 3724.54,-34.65 3710.39,-25.03"/>
<polygon fill="#63b8ff" stroke="#63b8ff" points="3712,-21.9 3701.76,-19.17 3708.06,-27.69 3712,-21.9"/>
</a>
</g>
</g>
<!-- Node66&#45;&gt;Node50 -->
<g id="edge44_Node000066_Node000050" class="edge">
<title>Node66&#45;&gt;Node50</title>
<g id="a_edge44_Node000066_Node000050"><a xlink:title=" ">
<path fill="none" stroke="#63b8ff" d="M3665.13,-109.66C3669.36,-92.09 3678.9,-52.45 3684.56,-28.95"/>
<polygon fill="#63b8ff" stroke="#63b8ff" points="3687.98,-29.7 3686.92,-19.16 3681.17,-28.06 3687.98,-29.7"/>
</a>
</g>
</g>
<!-- Node85 -->
<g id="Node000085" class="node">
<title>Node85</title>
<g id="a_Node000085"><a xlink:href="DiskIOStrategy_8h.html" target="_top" xlink:title=" ">
<polygon fill="#fff0f0" stroke="red" points="3912.5,-129 3779.5,-129 3779.5,-110 3912.5,-110 3912.5,-129"/>
<text text-anchor="middle" x="3846" y="-117" font-family="Helvetica,sans-Serif" font-size="10.00">DiskIO/DiskIOStrategy.h</text>
</a>
</g>
</g>
<!-- Node84&#45;&gt;Node85 -->
<g id="edge52_Node000084_Node000085" class="edge">
<title>Node84&#45;&gt;Node85</title>
<g id="a_edge52_Node000084_Node000085"><a xlink:title=" ">
<path fill="none" stroke="#63b8ff" d="M3477.56,-166.29C3480.76,-165.84 3483.92,-165.41 3487,-165 3584.35,-151.96 3696.74,-138.24 3769.46,-129.54"/>
<polygon fill="#63b8ff" stroke="#63b8ff" points="3769.94,-133.01 3779.45,-128.35 3769.11,-126.06 3769.94,-133.01"/>
</a>
</g>
</g>
<!-- Node85&#45;&gt;Node50 -->
<g id="edge53_Node000085_Node000050" class="edge">
<title>Node85&#45;&gt;Node50</title>
<g id="a_edge53_Node000085_Node000050"><a xlink:title=" ">
<path fill="none" stroke="#63b8ff" d="M3845.7,-109.84C3844.75,-96.3 3840.97,-70.11 3826,-55 3805.32,-34.13 3774.76,-23.04 3747.75,-17.16"/>
<polygon fill="#63b8ff" stroke="#63b8ff" points="3748.09,-13.66 3737.6,-15.15 3746.73,-20.52 3748.09,-13.66"/>
</a>
</g>
</g>
<!-- Node85&#45;&gt;Node63 -->
<g id="edge54_Node000085_Node000063" class="edge">
<title>Node85&#45;&gt;Node63</title>
<g id="a_edge54_Node000085_Node000063"><a xlink:title=" ">
<path fill="none" stroke="#63b8ff" d="M3833.31,-109.98C3821.17,-101.84 3802.64,-89.41 3788.25,-79.76"/>
<polygon fill="#63b8ff" stroke="#63b8ff" points="3790.18,-76.84 3779.92,-74.17 3786.28,-82.65 3790.18,-76.84"/>
</a>
</g>
</g>
</g>
</svg>
