<?xml version="1.0" encoding="UTF-8" standalone="no"?>
<!DOCTYPE svg PUBLIC "-//W3C//DTD SVG 1.1//EN"
 "http://www.w3.org/Graphics/SVG/1.1/DTD/svg11.dtd">
<!-- Generated by graphviz version 2.43.0 (0)
 -->
<!-- Title: squid/src/DiskIO/IpcIo/IpcIoIOStrategy.cc Pages: 1 -->
<svg width="4099pt" height="258pt"
 viewBox="0.00 0.00 4098.50 258.00" xmlns="http://www.w3.org/2000/svg" xmlns:xlink="http://www.w3.org/1999/xlink">
<g id="graph0" class="graph" transform="scale(1 1) rotate(0) translate(4 254)">
<title>squid/src/DiskIO/IpcIo/IpcIoIOStrategy.cc</title>
<!-- Node1 -->
<g id="Node000001" class="node">
<title>Node1</title>
<g id="a_Node000001"><a xlink:title=" ">
<polygon fill="#999999" stroke="#666666" points="3650,-250 3528,-250 3528,-220 3650,-220 3650,-250"/>
<text text-anchor="start" x="3536" y="-238" font-family="Helvetica,sans-Serif" font-size="10.00">squid/src/DiskIO/IpcIo</text>
<text text-anchor="middle" x="3589" y="-227" font-family="Helvetica,sans-Serif" font-size="10.00">/IpcIoIOStrategy.cc</text>
</a>
</g>
</g>
<!-- Node2 -->
<g id="Node000002" class="node">
<title>Node2</title>
<g id="a_Node000002"><a xlink:href="squid_8h.html" target="_top" xlink:title=" ">
<polygon fill="white" stroke="#666666" points="1675,-184 1623,-184 1623,-165 1675,-165 1675,-184"/>
<text text-anchor="middle" x="1649" y="-172" font-family="Helvetica,sans-Serif" font-size="10.00">squid.h</text>
</a>
</g>
</g>
<!-- Node1&#45;&gt;Node2 -->
<g id="edge1_Node000001_Node000002" class="edge">
<title>Node1&#45;&gt;Node2</title>
<g id="a_edge1_Node000001_Node000002"><a xlink:title=" ">
<path fill="none" stroke="#63b8ff" d="M3527.74,-232.15C3227.86,-223.11 1919.77,-183.67 1685.11,-176.59"/>
<polygon fill="#63b8ff" stroke="#63b8ff" points="1685.16,-173.09 1675.06,-176.29 1684.95,-180.09 1685.16,-173.09"/>
</a>
</g>
</g>
<!-- Node44 -->
<g id="Node000044" class="node">
<title>Node44</title>
<g id="a_Node000044"><a xlink:href="IpcIoFile_8h.html" target="_top" xlink:title=" ">
<polygon fill="white" stroke="#666666" points="3572,-184 3506,-184 3506,-165 3572,-165 3572,-184"/>
<text text-anchor="middle" x="3539" y="-172" font-family="Helvetica,sans-Serif" font-size="10.00">IpcIoFile.h</text>
</a>
</g>
</g>
<!-- Node1&#45;&gt;Node44 -->
<g id="edge30_Node000001_Node000044" class="edge">
<title>Node1&#45;&gt;Node44</title>
<g id="a_edge30_Node000001_Node000044"><a xlink:title=" ">
<path fill="none" stroke="#63b8ff" d="M3576.9,-219.84C3569.71,-211.43 3560.57,-200.74 3553.07,-191.96"/>
<polygon fill="#63b8ff" stroke="#63b8ff" points="3555.65,-189.59 3546.49,-184.27 3550.33,-194.14 3555.65,-189.59"/>
</a>
</g>
</g>
<!-- Node83 -->
<g id="Node000083" class="node">
<title>Node83</title>
<g id="a_Node000083"><a xlink:href="IpcIoIOStrategy_8h.html" target="_top" xlink:title=" ">
<polygon fill="white" stroke="#666666" points="3689.5,-184 3590.5,-184 3590.5,-165 3689.5,-165 3689.5,-184"/>
<text text-anchor="middle" x="3640" y="-172" font-family="Helvetica,sans-Serif" font-size="10.00">IpcIoIOStrategy.h</text>
</a>
</g>
</g>
<!-- Node1&#45;&gt;Node83 -->
<g id="edge51_Node000001_Node000083" class="edge">
<title>Node1&#45;&gt;Node83</title>
<g id="a_edge51_Node000001_Node000083"><a xlink:title=" ">
<path fill="none" stroke="#63b8ff" d="M3601.35,-219.84C3608.67,-211.43 3618,-200.74 3625.65,-191.96"/>
<polygon fill="#63b8ff" stroke="#63b8ff" points="3628.42,-194.1 3632.36,-184.27 3623.15,-189.5 3628.42,-194.1"/>
</a>
</g>
</g>
<!-- Node220 -->
<g id="Node000220" class="node">
<title>Node220</title>
<g id="a_Node000220"><a xlink:href="unlinkd_8h.html" target="_top" xlink:title=" ">
<polygon fill="white" stroke="#666666" points="3770,-184 3708,-184 3708,-165 3770,-165 3770,-184"/>
<text text-anchor="middle" x="3739" y="-172" font-family="Helvetica,sans-Serif" font-size="10.00">unlinkd.h</text>
</a>
</g>
</g>
<!-- Node1&#45;&gt;Node220 -->
<g id="edge55_Node000001_Node000220" class="edge">
<title>Node1&#45;&gt;Node220</title>
<g id="a_edge55_Node000001_Node000220"><a xlink:title=" ">
<path fill="none" stroke="#63b8ff" d="M3624.93,-219.99C3650.07,-210.18 3683.33,-197.21 3707.45,-187.81"/>
<polygon fill="#63b8ff" stroke="#63b8ff" points="3708.8,-191.03 3716.85,-184.14 3706.26,-184.51 3708.8,-191.03"/>
</a>
</g>
</g>
<!-- Node3 -->
<g id="Node000003" class="node">
<title>Node3</title>
<g id="a_Node000003"><a xlink:href="autoconf_8h.html" target="_top" xlink:title=" ">
<polygon fill="white" stroke="#666666" points="1734,-129 1666,-129 1666,-110 1734,-110 1734,-129"/>
<text text-anchor="middle" x="1700" y="-117" font-family="Helvetica,sans-Serif" font-size="10.00">autoconf.h</text>
</a>
</g>
</g>
<!-- Node2&#45;&gt;Node3 -->
<g id="edge2_Node000002_Node000003" class="edge">
<title>Node2&#45;&gt;Node3</title>
<g id="a_edge2_Node000002_Node000003"><a xlink:title=" ">
<path fill="none" stroke="#63b8ff" d="M1657.42,-164.75C1664.77,-157.11 1675.63,-145.82 1684.54,-136.56"/>
<polygon fill="#63b8ff" stroke="#63b8ff" points="1687.32,-138.72 1691.74,-129.09 1682.28,-133.87 1687.32,-138.72"/>
</a>
</g>
</g>
<!-- Node4 -->
<g id="Node000004" class="node">
<title>Node4</title>
<g id="a_Node000004"><a xlink:href="version_8h.html" target="_top" xlink:title=" ">
<polygon fill="white" stroke="#666666" points="1528,-129 1466,-129 1466,-110 1528,-110 1528,-129"/>
<text text-anchor="middle" x="1497" y="-117" font-family="Helvetica,sans-Serif" font-size="10.00">version.h</text>
</a>
</g>
</g>
<!-- Node2&#45;&gt;Node4 -->
<g id="edge3_Node000002_Node000004" class="edge">
<title>Node2&#45;&gt;Node4</title>
<g id="a_edge3_Node000002_Node000004"><a xlink:title=" ">
<path fill="none" stroke="#63b8ff" d="M1624.58,-164.98C1599.28,-156.16 1559.55,-142.31 1531.14,-132.41"/>
<polygon fill="#63b8ff" stroke="#63b8ff" points="1532.21,-129.07 1521.61,-129.08 1529.9,-135.68 1532.21,-129.07"/>
</a>
</g>
</g>
<!-- Node5 -->
<g id="Node000005" class="node">
<title>Node5</title>
<g id="a_Node000005"><a xlink:href="compat_8h.html" target="_top" xlink:title=" ">
<polygon fill="white" stroke="#666666" points="1648,-129 1546,-129 1546,-110 1648,-110 1648,-129"/>
<text text-anchor="middle" x="1597" y="-117" font-family="Helvetica,sans-Serif" font-size="10.00">compat/compat.h</text>
</a>
</g>
</g>
<!-- Node2&#45;&gt;Node5 -->
<g id="edge4_Node000002_Node000005" class="edge">
<title>Node2&#45;&gt;Node5</title>
<g id="a_edge4_Node000002_Node000005"><a xlink:title=" ">
<path fill="none" stroke="#63b8ff" d="M1640.41,-164.75C1632.84,-157.03 1621.62,-145.6 1612.49,-136.28"/>
<polygon fill="#63b8ff" stroke="#63b8ff" points="1614.93,-133.78 1605.43,-129.09 1609.93,-138.68 1614.93,-133.78"/>
</a>
</g>
</g>
<!-- Node6 -->
<g id="Node000006" class="node">
<title>Node6</title>
<g id="a_Node000006"><a xlink:href="osdetect_8h.html" target="_top" xlink:title=" ">
<polygon fill="white" stroke="#666666" points="1230.5,-74 1123.5,-74 1123.5,-55 1230.5,-55 1230.5,-74"/>
<text text-anchor="middle" x="1177" y="-62" font-family="Helvetica,sans-Serif" font-size="10.00">compat/osdetect.h</text>
</a>
</g>
</g>
<!-- Node5&#45;&gt;Node6 -->
<g id="edge5_Node000005_Node000006" class="edge">
<title>Node5&#45;&gt;Node6</title>
<g id="a_edge5_Node000005_Node000006"><a xlink:title=" ">
<path fill="none" stroke="#63b8ff" d="M1545.95,-111.2C1542.92,-110.79 1539.92,-110.38 1537,-110 1408.39,-93.1 1373.57,-90.99 1240.77,-74.08"/>
<polygon fill="#63b8ff" stroke="#63b8ff" points="1240.97,-70.58 1230.61,-72.78 1240.09,-77.52 1240.97,-70.58"/>
</a>
</g>
</g>
<!-- Node7 -->
<g id="Node000007" class="node">
<title>Node7</title>
<g id="a_Node000007"><a xlink:href="fdsetsize_8h.html" target="_top" xlink:title=" ">
<polygon fill="white" stroke="#666666" points="1359,-74 1249,-74 1249,-55 1359,-55 1359,-74"/>
<text text-anchor="middle" x="1304" y="-62" font-family="Helvetica,sans-Serif" font-size="10.00">compat/fdsetsize.h</text>
</a>
</g>
</g>
<!-- Node5&#45;&gt;Node7 -->
<g id="edge6_Node000005_Node000007" class="edge">
<title>Node5&#45;&gt;Node7</title>
<g id="a_edge6_Node000005_Node000007"><a xlink:title=" ">
<path fill="none" stroke="#63b8ff" d="M1549.92,-109.98C1498.6,-100.7 1416.46,-85.84 1361.4,-75.88"/>
<polygon fill="#63b8ff" stroke="#63b8ff" points="1361.91,-72.42 1351.44,-74.08 1360.66,-79.31 1361.91,-72.42"/>
</a>
</g>
</g>
<!-- Node8 -->
<g id="Node000008" class="node">
<title>Node8</title>
<g id="a_Node000008"><a xlink:href="types_8h.html" target="_top" xlink:title=" ">
<polygon fill="#fff0f0" stroke="red" points="1469,-74 1377,-74 1377,-55 1469,-55 1469,-74"/>
<text text-anchor="middle" x="1423" y="-62" font-family="Helvetica,sans-Serif" font-size="10.00">compat/types.h</text>
</a>
</g>
</g>
<!-- Node5&#45;&gt;Node8 -->
<g id="edge7_Node000005_Node000008" class="edge">
<title>Node5&#45;&gt;Node8</title>
<g id="a_edge7_Node000005_Node000008"><a xlink:title=" ">
<path fill="none" stroke="#63b8ff" d="M1569.04,-109.98C1539.7,-101.05 1493.4,-86.94 1460.81,-77.02"/>
<polygon fill="#63b8ff" stroke="#63b8ff" points="1461.76,-73.65 1451.18,-74.08 1459.72,-80.34 1461.76,-73.65"/>
</a>
</g>
</g>
<!-- Node10 -->
<g id="Node000010" class="node">
<title>Node10</title>
<g id="a_Node000010"><a xlink:href="aix_8h.html" target="_top" xlink:title=" ">
<polygon fill="white" stroke="#666666" points="1582.5,-74 1487.5,-74 1487.5,-55 1582.5,-55 1582.5,-74"/>
<text text-anchor="middle" x="1535" y="-62" font-family="Helvetica,sans-Serif" font-size="10.00">compat/os/aix.h</text>
</a>
</g>
</g>
<!-- Node5&#45;&gt;Node10 -->
<g id="edge8_Node000005_Node000010" class="edge">
<title>Node5&#45;&gt;Node10</title>
<g id="a_edge8_Node000005_Node000010"><a xlink:title=" ">
<path fill="none" stroke="#63b8ff" d="M1587.04,-109.98C1577.87,-102.15 1564.06,-90.34 1552.97,-80.86"/>
<polygon fill="#63b8ff" stroke="#63b8ff" points="1555.02,-78.01 1545.14,-74.17 1550.47,-83.33 1555.02,-78.01"/>
</a>
</g>
</g>
<!-- Node11 -->
<g id="Node000011" class="node">
<title>Node11</title>
<g id="a_Node000011"><a xlink:href="android_8h.html" target="_top" xlink:title=" ">
<polygon fill="white" stroke="#666666" points="1717,-74 1601,-74 1601,-55 1717,-55 1717,-74"/>
<text text-anchor="middle" x="1659" y="-62" font-family="Helvetica,sans-Serif" font-size="10.00">compat/os/android.h</text>
</a>
</g>
</g>
<!-- Node5&#45;&gt;Node11 -->
<g id="edge9_Node000005_Node000011" class="edge">
<title>Node5&#45;&gt;Node11</title>
<g id="a_edge9_Node000005_Node000011"><a xlink:title=" ">
<path fill="none" stroke="#63b8ff" d="M1606.96,-109.98C1616.13,-102.15 1629.94,-90.34 1641.03,-80.86"/>
<polygon fill="#63b8ff" stroke="#63b8ff" points="1643.53,-83.33 1648.86,-74.17 1638.98,-78.01 1643.53,-83.33"/>
</a>
</g>
</g>
<!-- Node12 -->
<g id="Node000012" class="node">
<title>Node12</title>
<g id="a_Node000012"><a xlink:href="dragonfly_8h.html" target="_top" xlink:title=" ">
<polygon fill="white" stroke="#666666" points="1859,-74 1735,-74 1735,-55 1859,-55 1859,-74"/>
<text text-anchor="middle" x="1797" y="-62" font-family="Helvetica,sans-Serif" font-size="10.00">compat/os/dragonfly.h</text>
</a>
</g>
</g>
<!-- Node5&#45;&gt;Node12 -->
<g id="edge10_Node000005_Node000012" class="edge">
<title>Node5&#45;&gt;Node12</title>
<g id="a_edge10_Node000005_Node000012"><a xlink:title=" ">
<path fill="none" stroke="#63b8ff" d="M1629.13,-109.98C1663.15,-100.97 1717,-86.7 1754.5,-76.76"/>
<polygon fill="#63b8ff" stroke="#63b8ff" points="1755.84,-80.03 1764.61,-74.08 1754.05,-73.26 1755.84,-80.03"/>
</a>
</g>
</g>
<!-- Node13 -->
<g id="Node000013" class="node">
<title>Node13</title>
<g id="a_Node000013"><a xlink:href="freebsd_8h.html" target="_top" xlink:title=" ">
<polygon fill="white" stroke="#666666" points="1993,-74 1877,-74 1877,-55 1993,-55 1993,-74"/>
<text text-anchor="middle" x="1935" y="-62" font-family="Helvetica,sans-Serif" font-size="10.00">compat/os/freebsd.h</text>
</a>
</g>
</g>
<!-- Node5&#45;&gt;Node13 -->
<g id="edge11_Node000005_Node000013" class="edge">
<title>Node5&#45;&gt;Node13</title>
<g id="a_edge11_Node000005_Node000013"><a xlink:title=" ">
<path fill="none" stroke="#63b8ff" d="M1648.33,-110.45C1707.85,-101.12 1806.01,-85.73 1870.59,-75.6"/>
<polygon fill="#63b8ff" stroke="#63b8ff" points="1871.32,-79.03 1880.66,-74.02 1870.24,-72.11 1871.32,-79.03"/>
</a>
</g>
</g>
<!-- Node14 -->
<g id="Node000014" class="node">
<title>Node14</title>
<g id="a_Node000014"><a xlink:href="hpux_8h.html" target="_top" xlink:title=" ">
<polygon fill="white" stroke="#666666" points="2115,-74 2011,-74 2011,-55 2115,-55 2115,-74"/>
<text text-anchor="middle" x="2063" y="-62" font-family="Helvetica,sans-Serif" font-size="10.00">compat/os/hpux.h</text>
</a>
</g>
</g>
<!-- Node5&#45;&gt;Node14 -->
<g id="edge12_Node000005_Node000014" class="edge">
<title>Node5&#45;&gt;Node14</title>
<g id="a_edge12_Node000005_Node000014"><a xlink:title=" ">
<path fill="none" stroke="#63b8ff" d="M1648.05,-111.14C1651.07,-110.74 1654.08,-110.36 1657,-110 1806.73,-91.59 1847.24,-92.59 2000.51,-74.14"/>
<polygon fill="#63b8ff" stroke="#63b8ff" points="2001.27,-77.58 2010.77,-72.9 2000.42,-70.63 2001.27,-77.58"/>
</a>
</g>
</g>
<!-- Node15 -->
<g id="Node000015" class="node">
<title>Node15</title>
<g id="a_Node000015"><a xlink:href="linux_8h.html" target="_top" xlink:title=" ">
<polygon fill="white" stroke="#666666" points="2237,-74 2133,-74 2133,-55 2237,-55 2237,-74"/>
<text text-anchor="middle" x="2185" y="-62" font-family="Helvetica,sans-Serif" font-size="10.00">compat/os/linux.h</text>
</a>
</g>
</g>
<!-- Node5&#45;&gt;Node15 -->
<g id="edge13_Node000005_Node000015" class="edge">
<title>Node5&#45;&gt;Node15</title>
<g id="a_edge13_Node000005_Node000015"><a xlink:title=" ">
<path fill="none" stroke="#63b8ff" d="M1648.04,-111.04C1651.07,-110.67 1654.07,-110.32 1657,-110 1860.71,-87.74 1915.34,-96.1 2122.79,-74.06"/>
<polygon fill="#63b8ff" stroke="#63b8ff" points="2123.21,-77.54 2132.78,-72.99 2122.47,-70.58 2123.21,-77.54"/>
</a>
</g>
</g>
<!-- Node16 -->
<g id="Node000016" class="node">
<title>Node16</title>
<g id="a_Node000016"><a xlink:href="macosx_8h.html" target="_top" xlink:title=" ">
<polygon fill="white" stroke="#666666" points="2373,-74 2255,-74 2255,-55 2373,-55 2373,-74"/>
<text text-anchor="middle" x="2314" y="-62" font-family="Helvetica,sans-Serif" font-size="10.00">compat/os/macosx.h</text>
</a>
</g>
</g>
<!-- Node5&#45;&gt;Node16 -->
<g id="edge14_Node000005_Node000016" class="edge">
<title>Node5&#45;&gt;Node16</title>
<g id="a_edge14_Node000005_Node000016"><a xlink:title=" ">
<path fill="none" stroke="#63b8ff" d="M1648.03,-110.99C1651.06,-110.63 1654.07,-110.3 1657,-110 1914.62,-83.92 1983.13,-97.91 2244.51,-74.08"/>
<polygon fill="#63b8ff" stroke="#63b8ff" points="2245.05,-77.54 2254.69,-73.14 2244.41,-70.57 2245.05,-77.54"/>
</a>
</g>
</g>
<!-- Node17 -->
<g id="Node000017" class="node">
<title>Node17</title>
<g id="a_Node000017"><a xlink:href="mingw_8h.html" target="_top" xlink:title=" ">
<polygon fill="white" stroke="#666666" points="2503,-74 2391,-74 2391,-55 2503,-55 2503,-74"/>
<text text-anchor="middle" x="2447" y="-62" font-family="Helvetica,sans-Serif" font-size="10.00">compat/os/mingw.h</text>
</a>
</g>
</g>
<!-- Node5&#45;&gt;Node17 -->
<g id="edge15_Node000005_Node000017" class="edge">
<title>Node5&#45;&gt;Node17</title>
<g id="a_edge15_Node000005_Node000017"><a xlink:title=" ">
<path fill="none" stroke="#63b8ff" d="M1648.03,-110.95C1651.06,-110.6 1654.07,-110.28 1657,-110 1974.87,-79.66 2058.96,-102.46 2380.59,-74.05"/>
<polygon fill="#63b8ff" stroke="#63b8ff" points="2381.01,-77.53 2390.66,-73.15 2380.39,-70.55 2381.01,-77.53"/>
</a>
</g>
</g>
<!-- Node18 -->
<g id="Node000018" class="node">
<title>Node18</title>
<g id="a_Node000018"><a xlink:href="mswindows_8h.html" target="_top" xlink:title=" ">
<polygon fill="white" stroke="#666666" points="2658.5,-74 2521.5,-74 2521.5,-55 2658.5,-55 2658.5,-74"/>
<text text-anchor="middle" x="2590" y="-62" font-family="Helvetica,sans-Serif" font-size="10.00">compat/os/mswindows.h</text>
</a>
</g>
</g>
<!-- Node5&#45;&gt;Node18 -->
<g id="edge16_Node000005_Node000018" class="edge">
<title>Node5&#45;&gt;Node18</title>
<g id="a_edge16_Node000005_Node000018"><a xlink:title=" ">
<path fill="none" stroke="#63b8ff" d="M1648.02,-110.92C1651.06,-110.58 1654.07,-110.27 1657,-110 2032.42,-75.59 2131.01,-102.14 2510.95,-74.02"/>
<polygon fill="#63b8ff" stroke="#63b8ff" points="2511.41,-77.49 2521.12,-73.26 2510.89,-70.51 2511.41,-77.49"/>
</a>
</g>
</g>
<!-- Node19 -->
<g id="Node000019" class="node">
<title>Node19</title>
<g id="a_Node000019"><a xlink:href="netbsd_8h.html" target="_top" xlink:title=" ">
<polygon fill="white" stroke="#666666" points="2789.5,-74 2676.5,-74 2676.5,-55 2789.5,-55 2789.5,-74"/>
<text text-anchor="middle" x="2733" y="-62" font-family="Helvetica,sans-Serif" font-size="10.00">compat/os/netbsd.h</text>
</a>
</g>
</g>
<!-- Node5&#45;&gt;Node19 -->
<g id="edge17_Node000005_Node000019" class="edge">
<title>Node5&#45;&gt;Node19</title>
<g id="a_edge17_Node000005_Node000019"><a xlink:title=" ">
<path fill="none" stroke="#63b8ff" d="M1648.02,-110.9C1651.06,-110.56 1654.07,-110.26 1657,-110 2101.15,-70.73 2217.63,-110.14 2666.17,-73.97"/>
<polygon fill="#63b8ff" stroke="#63b8ff" points="2666.47,-77.46 2676.15,-73.16 2665.9,-70.48 2666.47,-77.46"/>
</a>
</g>
</g>
<!-- Node20 -->
<g id="Node000020" class="node">
<title>Node20</title>
<g id="a_Node000020"><a xlink:href="openbsd_8h.html" target="_top" xlink:title=" ">
<polygon fill="white" stroke="#666666" points="2928.5,-74 2807.5,-74 2807.5,-55 2928.5,-55 2928.5,-74"/>
<text text-anchor="middle" x="2868" y="-62" font-family="Helvetica,sans-Serif" font-size="10.00">compat/os/openbsd.h</text>
</a>
</g>
</g>
<!-- Node5&#45;&gt;Node20 -->
<g id="edge18_Node000005_Node000020" class="edge">
<title>Node5&#45;&gt;Node20</title>
<g id="a_edge18_Node000005_Node000020"><a xlink:title=" ">
<path fill="none" stroke="#63b8ff" d="M1648.02,-110.89C1651.05,-110.55 1654.07,-110.25 1657,-110 2159.15,-66.64 2290.38,-112.01 2797.19,-73.97"/>
<polygon fill="#63b8ff" stroke="#63b8ff" points="2797.62,-77.45 2807.33,-73.2 2797.09,-70.47 2797.62,-77.45"/>
</a>
</g>
</g>
<!-- Node21 -->
<g id="Node000021" class="node">
<title>Node21</title>
<g id="a_Node000021"><a xlink:href="os2_8h.html" target="_top" xlink:title=" ">
<polygon fill="white" stroke="#666666" points="3043.5,-74 2946.5,-74 2946.5,-55 3043.5,-55 3043.5,-74"/>
<text text-anchor="middle" x="2995" y="-62" font-family="Helvetica,sans-Serif" font-size="10.00">compat/os/os2.h</text>
</a>
</g>
</g>
<!-- Node5&#45;&gt;Node21 -->
<g id="edge19_Node000005_Node000021" class="edge">
<title>Node5&#45;&gt;Node21</title>
<g id="a_edge19_Node000005_Node000021"><a xlink:title=" ">
<path fill="none" stroke="#63b8ff" d="M1648.02,-110.87C1651.05,-110.54 1654.06,-110.25 1657,-110 2220.76,-62.29 2368.3,-122.63 2936.23,-73.93"/>
<polygon fill="#63b8ff" stroke="#63b8ff" points="2936.65,-77.41 2946.31,-73.06 2936.05,-70.43 2936.65,-77.41"/>
</a>
</g>
</g>
<!-- Node22 -->
<g id="Node000022" class="node">
<title>Node22</title>
<g id="a_Node000022"><a xlink:href="qnx_8h.html" target="_top" xlink:title=" ">
<polygon fill="white" stroke="#666666" points="3160,-74 3062,-74 3062,-55 3160,-55 3160,-74"/>
<text text-anchor="middle" x="3111" y="-62" font-family="Helvetica,sans-Serif" font-size="10.00">compat/os/qnx.h</text>
</a>
</g>
</g>
<!-- Node5&#45;&gt;Node22 -->
<g id="edge20_Node000005_Node000022" class="edge">
<title>Node5&#45;&gt;Node22</title>
<g id="a_edge20_Node000005_Node000022"><a xlink:title=" ">
<path fill="none" stroke="#63b8ff" d="M1648.02,-110.87C1651.05,-110.54 1654.06,-110.24 1657,-110 2271.74,-58.69 2432.28,-125.58 3051.72,-73.88"/>
<polygon fill="#63b8ff" stroke="#63b8ff" points="3052.12,-77.36 3061.79,-73.03 3051.54,-70.38 3052.12,-77.36"/>
</a>
</g>
</g>
<!-- Node23 -->
<g id="Node000023" class="node">
<title>Node23</title>
<g id="a_Node000023"><a xlink:href="solaris_8h.html" target="_top" xlink:title=" ">
<polygon fill="white" stroke="#666666" points="112,-74 0,-74 0,-55 112,-55 112,-74"/>
<text text-anchor="middle" x="56" y="-62" font-family="Helvetica,sans-Serif" font-size="10.00">compat/os/solaris.h</text>
</a>
</g>
</g>
<!-- Node5&#45;&gt;Node23 -->
<g id="edge21_Node000005_Node000023" class="edge">
<title>Node5&#45;&gt;Node23</title>
<g id="a_edge21_Node000005_Node000023"><a xlink:title=" ">
<path fill="none" stroke="#63b8ff" d="M1545.98,-110.86C1542.95,-110.54 1539.94,-110.24 1537,-110 913,-58.04 750.38,-122.19 122.54,-74.02"/>
<polygon fill="#63b8ff" stroke="#63b8ff" points="122.57,-70.51 112.33,-73.23 122.03,-77.49 122.57,-70.51"/>
</a>
</g>
</g>
<!-- Node24 -->
<g id="Node000024" class="node">
<title>Node24</title>
<g id="a_Node000024"><a xlink:href="sunos_8h.html" target="_top" xlink:title=" ">
<polygon fill="white" stroke="#666666" points="238,-74 130,-74 130,-55 238,-55 238,-74"/>
<text text-anchor="middle" x="184" y="-62" font-family="Helvetica,sans-Serif" font-size="10.00">compat/os/sunos.h</text>
</a>
</g>
</g>
<!-- Node5&#45;&gt;Node24 -->
<g id="edge22_Node000005_Node000024" class="edge">
<title>Node5&#45;&gt;Node24</title>
<g id="a_edge22_Node000005_Node000024"><a xlink:title=" ">
<path fill="none" stroke="#63b8ff" d="M1545.98,-110.87C1542.95,-110.54 1539.94,-110.25 1537,-110 968.83,-61.98 820.41,-119.73 248.41,-74.01"/>
<polygon fill="#63b8ff" stroke="#63b8ff" points="248.51,-70.51 238.26,-73.19 247.94,-77.49 248.51,-70.51"/>
</a>
</g>
</g>
<!-- Node25 -->
<g id="Node000025" class="node">
<title>Node25</title>
<g id="a_Node000025"><a xlink:href="assert_8h.html" target="_top" xlink:title=" ">
<polygon fill="white" stroke="#666666" points="351.5,-74 256.5,-74 256.5,-55 351.5,-55 351.5,-74"/>
<text text-anchor="middle" x="304" y="-62" font-family="Helvetica,sans-Serif" font-size="10.00">compat/assert.h</text>
</a>
</g>
</g>
<!-- Node5&#45;&gt;Node25 -->
<g id="edge23_Node000005_Node000025" class="edge">
<title>Node5&#45;&gt;Node25</title>
<g id="a_edge23_Node000005_Node000025"><a xlink:title=" ">
<path fill="none" stroke="#63b8ff" d="M1545.98,-110.88C1542.95,-110.55 1539.93,-110.25 1537,-110 1019.31,-65.54 883.55,-119.94 361.59,-73.91"/>
<polygon fill="#63b8ff" stroke="#63b8ff" points="361.81,-70.42 351.54,-73.02 361.19,-77.39 361.81,-70.42"/>
</a>
</g>
</g>
<!-- Node26 -->
<g id="Node000026" class="node">
<title>Node26</title>
<g id="a_Node000026"><a xlink:href="compat__shared_8h.html" target="_top" xlink:title=" ">
<polygon fill="#fff0f0" stroke="red" points="510,-74 370,-74 370,-55 510,-55 510,-74"/>
<text text-anchor="middle" x="440" y="-62" font-family="Helvetica,sans-Serif" font-size="10.00">compat/compat_shared.h</text>
</a>
</g>
</g>
<!-- Node5&#45;&gt;Node26 -->
<g id="edge24_Node000005_Node000026" class="edge">
<title>Node5&#45;&gt;Node26</title>
<g id="a_edge24_Node000005_Node000026"><a xlink:title=" ">
<path fill="none" stroke="#63b8ff" d="M1545.98,-110.9C1542.94,-110.56 1539.93,-110.26 1537,-110 1089.33,-70.49 972.29,-105.71 520.25,-74.03"/>
<polygon fill="#63b8ff" stroke="#63b8ff" points="520.41,-70.53 510.19,-73.32 519.92,-77.51 520.41,-70.53"/>
</a>
</g>
</g>
<!-- Node36 -->
<g id="Node000036" class="node">
<title>Node36</title>
<g id="a_Node000036"><a xlink:href="stdvarargs_8h.html" target="_top" xlink:title=" ">
<polygon fill="#fff0f0" stroke="red" points="645.5,-74 528.5,-74 528.5,-55 645.5,-55 645.5,-74"/>
<text text-anchor="middle" x="587" y="-62" font-family="Helvetica,sans-Serif" font-size="10.00">compat/stdvarargs.h</text>
</a>
</g>
</g>
<!-- Node5&#45;&gt;Node36 -->
<g id="edge25_Node000005_Node000036" class="edge">
<title>Node5&#45;&gt;Node36</title>
<g id="a_edge25_Node000005_Node000036"><a xlink:title=" ">
<path fill="none" stroke="#63b8ff" d="M1545.98,-110.92C1542.94,-110.58 1539.93,-110.27 1537,-110 1149.19,-74.71 1047.14,-106.2 655.97,-74.09"/>
<polygon fill="#63b8ff" stroke="#63b8ff" points="656.05,-70.59 645.8,-73.25 655.47,-77.56 656.05,-70.59"/>
</a>
</g>
</g>
<!-- Node38 -->
<g id="Node000038" class="node">
<title>Node38</title>
<g id="a_Node000038"><a xlink:href="stdio_8h.html" target="_top" xlink:title=" ">
<polygon fill="#fff0f0" stroke="red" points="752.5,-74 663.5,-74 663.5,-55 752.5,-55 752.5,-74"/>
<text text-anchor="middle" x="708" y="-62" font-family="Helvetica,sans-Serif" font-size="10.00">compat/stdio.h</text>
</a>
</g>
</g>
<!-- Node5&#45;&gt;Node38 -->
<g id="edge26_Node000005_Node000038" class="edge">
<title>Node5&#45;&gt;Node38</title>
<g id="a_edge26_Node000005_Node000038"><a xlink:title=" ">
<path fill="none" stroke="#63b8ff" d="M1545.98,-110.94C1542.94,-110.59 1539.93,-110.28 1537,-110 1196.52,-78.06 1106.16,-108.8 762.75,-74.06"/>
<polygon fill="#63b8ff" stroke="#63b8ff" points="763.08,-70.58 752.77,-73.04 762.36,-77.54 763.08,-70.58"/>
</a>
</g>
</g>
<!-- Node40 -->
<g id="Node000040" class="node">
<title>Node40</title>
<g id="a_Node000040"><a xlink:href="statvfs_8h.html" target="_top" xlink:title=" ">
<polygon fill="white" stroke="#666666" points="869.5,-74 770.5,-74 770.5,-55 869.5,-55 869.5,-74"/>
<text text-anchor="middle" x="820" y="-62" font-family="Helvetica,sans-Serif" font-size="10.00">compat/statvfs.h</text>
</a>
</g>
</g>
<!-- Node5&#45;&gt;Node40 -->
<g id="edge27_Node000005_Node000040" class="edge">
<title>Node5&#45;&gt;Node40</title>
<g id="a_edge27_Node000005_Node000040"><a xlink:title=" ">
<path fill="none" stroke="#63b8ff" d="M1545.97,-110.97C1542.94,-110.61 1539.93,-110.29 1537,-110 1248.35,-81.72 1171.58,-102.81 879.67,-74.08"/>
<polygon fill="#63b8ff" stroke="#63b8ff" points="879.93,-70.59 869.64,-73.08 879.24,-77.55 879.93,-70.59"/>
</a>
</g>
</g>
<!-- Node41 -->
<g id="Node000041" class="node">
<title>Node41</title>
<g id="a_Node000041"><a xlink:href="debug_8h.html" target="_top" xlink:title=" ">
<polygon fill="white" stroke="#666666" points="982.5,-74 887.5,-74 887.5,-55 982.5,-55 982.5,-74"/>
<text text-anchor="middle" x="935" y="-62" font-family="Helvetica,sans-Serif" font-size="10.00">compat/debug.h</text>
</a>
</g>
</g>
<!-- Node5&#45;&gt;Node41 -->
<g id="edge28_Node000005_Node000041" class="edge">
<title>Node5&#45;&gt;Node41</title>
<g id="a_edge28_Node000005_Node000041"><a xlink:title=" ">
<path fill="none" stroke="#63b8ff" d="M1545.97,-111.01C1542.94,-110.64 1539.93,-110.3 1537,-110 1298.41,-85.27 1234.51,-99.86 992.78,-74.1"/>
<polygon fill="#63b8ff" stroke="#63b8ff" points="992.94,-70.6 982.62,-73.01 992.19,-77.56 992.94,-70.6"/>
</a>
</g>
</g>
<!-- Node42 -->
<g id="Node000042" class="node">
<title>Node42</title>
<g id="a_Node000042"><a xlink:href="valgrind_8h.html" target="_top" xlink:title=" ">
<polygon fill="#fff0f0" stroke="red" points="1105.5,-74 1000.5,-74 1000.5,-55 1105.5,-55 1105.5,-74"/>
<text text-anchor="middle" x="1053" y="-62" font-family="Helvetica,sans-Serif" font-size="10.00">compat/valgrind.h</text>
</a>
</g>
</g>
<!-- Node5&#45;&gt;Node42 -->
<g id="edge29_Node000005_Node000042" class="edge">
<title>Node5&#45;&gt;Node42</title>
<g id="a_edge29_Node000005_Node000042"><a xlink:title=" ">
<path fill="none" stroke="#63b8ff" d="M1545.96,-111.07C1542.93,-110.69 1539.93,-110.33 1537,-110 1352.82,-89.13 1303.24,-94.82 1115.75,-74.14"/>
<polygon fill="#63b8ff" stroke="#63b8ff" points="1115.88,-70.63 1105.55,-73 1115.1,-77.59 1115.88,-70.63"/>
</a>
</g>
</g>
<!-- Node45 -->
<g id="Node000045" class="node">
<title>Node45</title>
<g id="a_Node000045"><a xlink:href="AsyncCall_8h.html" target="_top" xlink:title=" ">
<polygon fill="white" stroke="#666666" points="3324,-129 3224,-129 3224,-110 3324,-110 3324,-129"/>
<text text-anchor="middle" x="3274" y="-117" font-family="Helvetica,sans-Serif" font-size="10.00">base/AsyncCall.h</text>
</a>
</g>
</g>
<!-- Node44&#45;&gt;Node45 -->
<g id="edge31_Node000044_Node000045" class="edge">
<title>Node44&#45;&gt;Node45</title>
<g id="a_edge31_Node000044_Node000045"><a xlink:title=" ">
<path fill="none" stroke="#63b8ff" d="M3505.97,-166.89C3461,-157.9 3380.01,-141.7 3326.62,-131.02"/>
<polygon fill="#63b8ff" stroke="#63b8ff" points="3327.15,-127.56 3316.66,-129.03 3325.78,-134.43 3327.15,-127.56"/>
</a>
</g>
</g>
<!-- Node61 -->
<g id="Node000061" class="node">
<title>Node61</title>
<g id="a_Node000061"><a xlink:href="cbdata_8h.html" target="_top" xlink:title=" ">
<polygon fill="white" stroke="#666666" points="3401.5,-129 3342.5,-129 3342.5,-110 3401.5,-110 3401.5,-129"/>
<text text-anchor="middle" x="3372" y="-117" font-family="Helvetica,sans-Serif" font-size="10.00">cbdata.h</text>
</a>
</g>
</g>
<!-- Node44&#45;&gt;Node61 -->
<g id="edge39_Node000044_Node000061" class="edge">
<title>Node44&#45;&gt;Node61</title>
<g id="a_edge39_Node000044_Node000061"><a xlink:title=" ">
<path fill="none" stroke="#63b8ff" d="M3512.17,-164.98C3484.13,-156.09 3439.95,-142.07 3408.7,-132.15"/>
<polygon fill="#63b8ff" stroke="#63b8ff" points="3409.63,-128.77 3399.04,-129.08 3407.51,-135.44 3409.63,-128.77"/>
</a>
</g>
</g>
<!-- Node62 -->
<g id="Node000062" class="node">
<title>Node62</title>
<g id="a_Node000062"><a xlink:href="DiskFile_8h.html" target="_top" xlink:title=" ">
<polygon fill="white" stroke="#666666" points="3979,-74 3879,-74 3879,-55 3979,-55 3979,-74"/>
<text text-anchor="middle" x="3929" y="-62" font-family="Helvetica,sans-Serif" font-size="10.00">DiskIO/DiskFile.h</text>
</a>
</g>
</g>
<!-- Node44&#45;&gt;Node62 -->
<g id="edge40_Node000044_Node000062" class="edge">
<title>Node44&#45;&gt;Node62</title>
<g id="a_edge40_Node000044_Node000062"><a xlink:title=" ">
<path fill="none" stroke="#63b8ff" d="M3572.42,-166.45C3575.32,-165.93 3578.21,-165.43 3581,-165 3653.67,-153.69 3853.49,-176.07 3910,-129 3922.98,-118.19 3927.32,-98.9 3928.66,-84.41"/>
<polygon fill="#63b8ff" stroke="#63b8ff" points="3932.18,-84.24 3929.2,-74.07 3925.19,-83.88 3932.18,-84.24"/>
</a>
</g>
</g>
<!-- Node65 -->
<g id="Node000065" class="node">
<title>Node65</title>
<g id="a_Node000065"><a xlink:href="IORequestor_8h.html" target="_top" xlink:title=" ">
<polygon fill="white" stroke="#666666" points="3540,-129 3420,-129 3420,-110 3540,-110 3540,-129"/>
<text text-anchor="middle" x="3480" y="-117" font-family="Helvetica,sans-Serif" font-size="10.00">DiskIO/IORequestor.h</text>
</a>
</g>
</g>
<!-- Node44&#45;&gt;Node65 -->
<g id="edge43_Node000044_Node000065" class="edge">
<title>Node44&#45;&gt;Node65</title>
<g id="a_edge43_Node000044_Node000065"><a xlink:title=" ">
<path fill="none" stroke="#63b8ff" d="M3529.52,-164.98C3520.8,-157.15 3507.66,-145.34 3497.1,-135.86"/>
<polygon fill="#63b8ff" stroke="#63b8ff" points="3499.43,-133.25 3489.65,-129.17 3494.75,-138.46 3499.43,-133.25"/>
</a>
</g>
</g>
<!-- Node66 -->
<g id="Node000066" class="node">
<title>Node66</title>
<g id="a_Node000066"><a xlink:href="ipc_2forward_8h.html" target="_top" xlink:title=" ">
<polygon fill="white" stroke="#666666" points="3638,-129 3558,-129 3558,-110 3638,-110 3638,-129"/>
<text text-anchor="middle" x="3598" y="-117" font-family="Helvetica,sans-Serif" font-size="10.00">ipc/forward.h</text>
</a>
</g>
</g>
<!-- Node44&#45;&gt;Node66 -->
<g id="edge45_Node000044_Node000066" class="edge">
<title>Node44&#45;&gt;Node66</title>
<g id="a_edge45_Node000044_Node000066"><a xlink:title=" ">
<path fill="none" stroke="#63b8ff" d="M3548.48,-164.98C3557.2,-157.15 3570.34,-145.34 3580.9,-135.86"/>
<polygon fill="#63b8ff" stroke="#63b8ff" points="3583.25,-138.46 3588.35,-129.17 3578.57,-133.25 3583.25,-138.46"/>
</a>
</g>
</g>
<!-- Node67 -->
<g id="Node000067" class="node">
<title>Node67</title>
<g id="a_Node000067"><a xlink:href="Page_8h.html" target="_top" xlink:title=" ">
<polygon fill="#fff0f0" stroke="red" points="3751.5,-129 3656.5,-129 3656.5,-110 3751.5,-110 3751.5,-129"/>
<text text-anchor="middle" x="3704" y="-117" font-family="Helvetica,sans-Serif" font-size="10.00">ipc/mem/Page.h</text>
</a>
</g>
</g>
<!-- Node44&#45;&gt;Node67 -->
<g id="edge46_Node000044_Node000067" class="edge">
<title>Node44&#45;&gt;Node67</title>
<g id="a_edge46_Node000044_Node000067"><a xlink:title=" ">
<path fill="none" stroke="#63b8ff" d="M3565.51,-164.98C3593.21,-156.09 3636.86,-142.07 3667.74,-132.15"/>
<polygon fill="#63b8ff" stroke="#63b8ff" points="3668.83,-135.47 3677.28,-129.08 3666.69,-128.81 3668.83,-135.47"/>
</a>
</g>
</g>
<!-- Node69 -->
<g id="Node000069" class="node">
<title>Node69</title>
<g id="a_Node000069"><a xlink:href="SquidString_8h.html" target="_top" xlink:title=" ">
<polygon fill="#fff0f0" stroke="red" points="3850.5,-129 3769.5,-129 3769.5,-110 3850.5,-110 3850.5,-129"/>
<text text-anchor="middle" x="3810" y="-117" font-family="Helvetica,sans-Serif" font-size="10.00">SquidString.h</text>
</a>
</g>
</g>
<!-- Node44&#45;&gt;Node69 -->
<g id="edge47_Node000044_Node000069" class="edge">
<title>Node44&#45;&gt;Node69</title>
<g id="a_edge47_Node000044_Node000069"><a xlink:title=" ">
<path fill="none" stroke="#63b8ff" d="M3572.01,-166.79C3575.05,-166.18 3578.08,-165.58 3581,-165 3642.31,-152.84 3712.92,-139.17 3759.34,-130.23"/>
<polygon fill="#63b8ff" stroke="#63b8ff" points="3760.28,-133.61 3769.44,-128.28 3758.96,-126.74 3760.28,-133.61"/>
</a>
</g>
</g>
<!-- Node79 -->
<g id="Node000079" class="node">
<title>Node79</title>
<g id="a_Node000079"><a xlink:title=" ">
<polygon fill="#e0e0e0" stroke="#999999" points="3901,-129 3869,-129 3869,-110 3901,-110 3901,-129"/>
<text text-anchor="middle" x="3885" y="-117" font-family="Helvetica,sans-Serif" font-size="10.00">list</text>
</a>
</g>
</g>
<!-- Node44&#45;&gt;Node79 -->
<g id="edge48_Node000044_Node000079" class="edge">
<title>Node44&#45;&gt;Node79</title>
<g id="a_edge48_Node000044_Node000079"><a xlink:title=" ">
<path fill="none" stroke="#63b8ff" d="M3572.43,-166.51C3575.32,-165.97 3578.21,-165.46 3581,-165 3703.91,-144.63 3737.48,-156.48 3859,-129 3859.1,-128.98 3859.2,-128.95 3859.3,-128.93"/>
<polygon fill="#63b8ff" stroke="#63b8ff" points="3860.2,-132.32 3868.9,-126.28 3858.33,-125.57 3860.2,-132.32"/>
</a>
</g>
</g>
<!-- Node81 -->
<g id="Node000081" class="node">
<title>Node81</title>
<g id="a_Node000081"><a xlink:title=" ">
<polygon fill="#e0e0e0" stroke="#999999" points="3130,-129 3092,-129 3092,-110 3130,-110 3130,-129"/>
<text text-anchor="middle" x="3111" y="-117" font-family="Helvetica,sans-Serif" font-size="10.00">map</text>
</a>
</g>
</g>
<!-- Node44&#45;&gt;Node81 -->
<g id="edge49_Node000044_Node000081" class="edge">
<title>Node44&#45;&gt;Node81</title>
<g id="a_edge49_Node000044_Node000081"><a xlink:title=" ">
<path fill="none" stroke="#63b8ff" d="M3505.75,-171.87C3438.39,-168.13 3280.93,-157.15 3140.26,-128.89"/>
<polygon fill="#63b8ff" stroke="#63b8ff" points="3140.66,-125.4 3130.16,-126.82 3139.26,-132.26 3140.66,-125.4"/>
</a>
</g>
</g>
<!-- Node82 -->
<g id="Node000082" class="node">
<title>Node82</title>
<g id="a_Node000082"><a xlink:title=" ">
<polygon fill="#e0e0e0" stroke="#999999" points="3206,-129 3148,-129 3148,-110 3206,-110 3206,-129"/>
<text text-anchor="middle" x="3177" y="-117" font-family="Helvetica,sans-Serif" font-size="10.00">memory</text>
</a>
</g>
</g>
<!-- Node44&#45;&gt;Node82 -->
<g id="edge50_Node000044_Node000082" class="edge">
<title>Node44&#45;&gt;Node82</title>
<g id="a_edge50_Node000044_Node000082"><a xlink:title=" ">
<path fill="none" stroke="#63b8ff" d="M3505.74,-169.86C3448.6,-163.41 3327.95,-148.91 3216.48,-129.14"/>
<polygon fill="#63b8ff" stroke="#63b8ff" points="3216.87,-125.65 3206.41,-127.33 3215.63,-132.54 3216.87,-125.65"/>
</a>
</g>
</g>
<!-- Node46 -->
<g id="Node000046" class="node">
<title>Node46</title>
<g id="a_Node000046"><a xlink:href="CodeContext_8h.html" target="_top" xlink:title=" ">
<polygon fill="#fff0f0" stroke="red" points="3331.5,-74 3216.5,-74 3216.5,-55 3331.5,-55 3331.5,-74"/>
<text text-anchor="middle" x="3274" y="-62" font-family="Helvetica,sans-Serif" font-size="10.00">base/CodeContext.h</text>
</a>
</g>
</g>
<!-- Node45&#45;&gt;Node46 -->
<g id="edge32_Node000045_Node000046" class="edge">
<title>Node45&#45;&gt;Node46</title>
<g id="a_edge32_Node000045_Node000046"><a xlink:title=" ">
<path fill="none" stroke="#63b8ff" d="M3274,-109.75C3274,-102.8 3274,-92.85 3274,-84.13"/>
<polygon fill="#63b8ff" stroke="#63b8ff" points="3277.5,-84.09 3274,-74.09 3270.5,-84.09 3277.5,-84.09"/>
</a>
</g>
</g>
<!-- Node47 -->
<g id="Node000047" class="node">
<title>Node47</title>
<g id="a_Node000047"><a xlink:href="InstanceId_8h.html" target="_top" xlink:title=" ">
<polygon fill="#fff0f0" stroke="red" points="3282,-19 3180,-19 3180,0 3282,0 3282,-19"/>
<text text-anchor="middle" x="3231" y="-7" font-family="Helvetica,sans-Serif" font-size="10.00">base/InstanceId.h</text>
</a>
</g>
</g>
<!-- Node45&#45;&gt;Node47 -->
<g id="edge36_Node000045_Node000047" class="edge">
<title>Node45&#45;&gt;Node47</title>
<g id="a_edge36_Node000045_Node000047"><a xlink:title=" ">
<path fill="none" stroke="#63b8ff" d="M3250.89,-109.98C3235.41,-102.92 3216.24,-91.23 3207,-74 3198.85,-58.81 3207.85,-40.25 3217.06,-27.13"/>
<polygon fill="#63b8ff" stroke="#63b8ff" points="3219.96,-29.09 3223.26,-19.02 3214.4,-24.84 3219.96,-29.09"/>
</a>
</g>
</g>
<!-- Node49 -->
<g id="Node000049" class="node">
<title>Node49</title>
<g id="a_Node000049"><a xlink:href="RefCount_8h.html" target="_top" xlink:title=" ">
<polygon fill="#fff0f0" stroke="red" points="3624.5,-19 3527.5,-19 3527.5,0 3624.5,0 3624.5,-19"/>
<text text-anchor="middle" x="3576" y="-7" font-family="Helvetica,sans-Serif" font-size="10.00">base/RefCount.h</text>
</a>
</g>
</g>
<!-- Node45&#45;&gt;Node49 -->
<g id="edge38_Node000045_Node000049" class="edge">
<title>Node45&#45;&gt;Node49</title>
<g id="a_edge38_Node000045_Node000049"><a xlink:title=" ">
<path fill="none" stroke="#63b8ff" d="M3324.04,-111.12C3390.44,-101.07 3501.28,-83.25 3518,-74 3537.93,-62.97 3554.71,-42.53 3565.01,-27.82"/>
<polygon fill="#63b8ff" stroke="#63b8ff" points="3568.17,-29.39 3570.81,-19.13 3562.35,-25.5 3568.17,-29.39"/>
</a>
</g>
</g>
<!-- Node55 -->
<g id="Node000055" class="node">
<title>Node55</title>
<g id="a_Node000055"><a xlink:href="base_2forward_8h.html" target="_top" xlink:title=" ">
<polygon fill="white" stroke="#666666" points="3438.5,-74 3349.5,-74 3349.5,-55 3438.5,-55 3438.5,-74"/>
<text text-anchor="middle" x="3394" y="-62" font-family="Helvetica,sans-Serif" font-size="10.00">base/forward.h</text>
</a>
</g>
</g>
<!-- Node45&#45;&gt;Node55 -->
<g id="edge35_Node000045_Node000055" class="edge">
<title>Node45&#45;&gt;Node55</title>
<g id="a_edge35_Node000045_Node000055"><a xlink:title=" ">
<path fill="none" stroke="#63b8ff" d="M3293.28,-109.98C3312.67,-101.42 3342.81,-88.11 3365.07,-78.28"/>
<polygon fill="#63b8ff" stroke="#63b8ff" points="3366.64,-81.41 3374.37,-74.17 3363.81,-75.01 3366.64,-81.41"/>
</a>
</g>
</g>
<!-- Node56 -->
<g id="Node000056" class="node">
<title>Node56</title>
<g id="a_Node000056"><a xlink:href="event_8h.html" target="_top" xlink:title=" ">
<polygon fill="#fff0f0" stroke="red" points="3509.5,-74 3456.5,-74 3456.5,-55 3509.5,-55 3509.5,-74"/>
<text text-anchor="middle" x="3483" y="-62" font-family="Helvetica,sans-Serif" font-size="10.00">event.h</text>
</a>
</g>
</g>
<!-- Node45&#45;&gt;Node56 -->
<g id="edge37_Node000045_Node000056" class="edge">
<title>Node45&#45;&gt;Node56</title>
<g id="a_edge37_Node000045_Node000056"><a xlink:title=" ">
<path fill="none" stroke="#63b8ff" d="M3307.58,-109.98C3345.61,-100.34 3407.36,-84.68 3446.54,-74.75"/>
<polygon fill="#63b8ff" stroke="#63b8ff" points="3447.63,-78.08 3456.47,-72.23 3445.91,-71.29 3447.63,-78.08"/>
</a>
</g>
</g>
<!-- Node46&#45;&gt;Node47 -->
<g id="edge33_Node000046_Node000047" class="edge">
<title>Node46&#45;&gt;Node47</title>
<g id="a_edge33_Node000046_Node000047"><a xlink:title=" ">
<path fill="none" stroke="#63b8ff" d="M3266.9,-54.75C3260.83,-47.26 3251.91,-36.28 3244.49,-27.13"/>
<polygon fill="#63b8ff" stroke="#63b8ff" points="3246.99,-24.65 3237.97,-19.09 3241.55,-29.06 3246.99,-24.65"/>
</a>
</g>
</g>
<!-- Node46&#45;&gt;Node49 -->
<g id="edge34_Node000046_Node000049" class="edge">
<title>Node46&#45;&gt;Node49</title>
<g id="a_edge34_Node000046_Node000049"><a xlink:title=" ">
<path fill="none" stroke="#63b8ff" d="M3322.52,-54.98C3375.61,-45.67 3460.69,-30.74 3517.44,-20.78"/>
<polygon fill="#63b8ff" stroke="#63b8ff" points="3518.1,-24.21 3527.35,-19.04 3516.89,-17.32 3518.1,-24.21"/>
</a>
</g>
</g>
<!-- Node62&#45;&gt;Node49 -->
<g id="edge41_Node000062_Node000049" class="edge">
<title>Node62&#45;&gt;Node49</title>
<g id="a_edge41_Node000062_Node000049"><a xlink:title=" ">
<path fill="none" stroke="#63b8ff" d="M3878.8,-55.96C3814.43,-46.3 3703.01,-29.57 3634.77,-19.32"/>
<polygon fill="#63b8ff" stroke="#63b8ff" points="3635.02,-15.82 3624.61,-17.8 3633.98,-22.74 3635.02,-15.82"/>
</a>
</g>
</g>
<!-- Node63 -->
<g id="Node000063" class="node">
<title>Node63</title>
<g id="a_Node000063"><a xlink:href="time_2gadgets_8h.html" target="_top" xlink:title=" ">
<polygon fill="#fff0f0" stroke="red" points="3974,-19 3884,-19 3884,0 3974,0 3974,-19"/>
<text text-anchor="middle" x="3929" y="-7" font-family="Helvetica,sans-Serif" font-size="10.00">time/gadgets.h</text>
</a>
</g>
</g>
<!-- Node62&#45;&gt;Node63 -->
<g id="edge42_Node000062_Node000063" class="edge">
<title>Node62&#45;&gt;Node63</title>
<g id="a_edge42_Node000062_Node000063"><a xlink:title=" ">
<path fill="none" stroke="#63b8ff" d="M3929,-54.75C3929,-47.8 3929,-37.85 3929,-29.13"/>
<polygon fill="#63b8ff" stroke="#63b8ff" points="3932.5,-29.09 3929,-19.09 3925.5,-29.09 3932.5,-29.09"/>
</a>
</g>
</g>
<!-- Node65&#45;&gt;Node49 -->
<g id="edge44_Node000065_Node000049" class="edge">
<title>Node65&#45;&gt;Node49</title>
<g id="a_edge44_Node000065_Node000049"><a xlink:title=" ">
<path fill="none" stroke="#63b8ff" d="M3501.23,-109.93C3517.15,-102.54 3538.45,-90.44 3552,-74 3562.66,-61.07 3568.88,-42.91 3572.31,-29.32"/>
<polygon fill="#63b8ff" stroke="#63b8ff" points="3575.8,-29.72 3574.56,-19.2 3568.97,-28.2 3575.8,-29.72"/>
</a>
</g>
</g>
<!-- Node84 -->
<g id="Node000084" class="node">
<title>Node84</title>
<g id="a_Node000084"><a xlink:href="DiskIOStrategy_8h.html" target="_top" xlink:title=" ">
<polygon fill="#fff0f0" stroke="red" points="4090.5,-129 3957.5,-129 3957.5,-110 4090.5,-110 4090.5,-129"/>
<text text-anchor="middle" x="4024" y="-117" font-family="Helvetica,sans-Serif" font-size="10.00">DiskIO/DiskIOStrategy.h</text>
</a>
</g>
</g>
<!-- Node83&#45;&gt;Node84 -->
<g id="edge52_Node000083_Node000084" class="edge">
<title>Node83&#45;&gt;Node84</title>
<g id="a_edge52_Node000083_Node000084"><a xlink:title=" ">
<path fill="none" stroke="#63b8ff" d="M3689.57,-166.33C3692.76,-165.88 3695.93,-165.43 3699,-165 3785.32,-152.87 3884.6,-139.34 3950.49,-130.42"/>
<polygon fill="#63b8ff" stroke="#63b8ff" points="3951.33,-133.83 3960.77,-129.02 3950.39,-126.9 3951.33,-133.83"/>
</a>
</g>
</g>
<!-- Node84&#45;&gt;Node49 -->
<g id="edge53_Node000084_Node000049" class="edge">
<title>Node84&#45;&gt;Node49</title>
<g id="a_edge53_Node000084_Node000049"><a xlink:title=" ">
<path fill="none" stroke="#63b8ff" d="M4021.82,-109.76C4017.78,-95.6 4007.7,-67.94 3988,-55 3931.31,-17.75 3734.58,-11.23 3634.88,-10.38"/>
<polygon fill="#63b8ff" stroke="#63b8ff" points="3634.7,-6.88 3624.68,-10.31 3634.65,-13.88 3634.7,-6.88"/>
</a>
</g>
</g>
<!-- Node84&#45;&gt;Node62 -->
<g id="edge54_Node000084_Node000062" class="edge">
<title>Node84&#45;&gt;Node62</title>
<g id="a_edge54_Node000084_Node000062"><a xlink:title=" ">
<path fill="none" stroke="#63b8ff" d="M4008.74,-109.98C3993.87,-101.69 3971.02,-88.94 3953.58,-79.22"/>
<polygon fill="#63b8ff" stroke="#63b8ff" points="3954.98,-75.99 3944.54,-74.17 3951.57,-82.1 3954.98,-75.99"/>
</a>
</g>
</g>
</g>
</svg>
