<?xml version="1.0" encoding="UTF-8" standalone="no"?>
<!DOCTYPE svg PUBLIC "-//W3C//DTD SVG 1.1//EN"
 "http://www.w3.org/Graphics/SVG/1.1/DTD/svg11.dtd">
<!-- Generated by graphviz version 2.43.0 (0)
 -->
<!-- Title: squid/src/ipc/Kid.cc Pages: 1 -->
<!--zoomable 247 -->

<svg id="main" version="1.1" xmlns="http://www.w3.org/2000/svg" xmlns:xlink="http://www.w3.org/1999/xlink" xml:space="preserve" onload="init(evt)">
<style type="text/css"><![CDATA[
.node, .edge {opacity: 0.7;}
.node.selected, .edge.selected {opacity: 1;}
.edge:hover path { stroke: red; }
.edge:hover polygon { stroke: red; fill: red; }
]]></style>

<defs>
  <circle id="rim" cx="0" cy="0" r="7"/>
  <circle id="rim2" cx="0" cy="0" r="3.5"/>
  <g id="zoomPlus">
    <use xlink:href="#rim" fill="#404040"><set attributeName="fill" to="#808080" begin="zoomplus.mouseover" end="zoomplus.mouseout"/></use>
    <path d="M-4,0h8M0,-4v8" fill="none" stroke="white" stroke-width="1.5" pointer-events="none"/>
  </g>
  <g id="zoomMin">
    <use xlink:href="#rim" fill="#404040"><set attributeName="fill" to="#808080" begin="zoomminus.mouseover" end="zoomminus.mouseout"/></use>
    <path d="M-4,0h8" fill="none" stroke="white" stroke-width="1.5" pointer-events="none"/>
  </g>
  <g id="arrowUp" transform="translate(30 24)">
    <use xlink:href="#rim"/>
    <path pointer-events="none" fill="none" stroke="white" stroke-width="1.5" d="M0,-3.0v7 M-2.5,-0.5L0,-3.0L2.5,-0.5"/>
  </g>
  <g id="arrowRight" transform="rotate(90) translate(36 -43)">
    <use xlink:href="#rim"/>
    <path pointer-events="none" fill="none" stroke="white" stroke-width="1.5" d="M0,-3.0v7 M-2.5,-0.5L0,-3.0L2.5,-0.5"/>
  </g>
  <g id="arrowDown" transform="rotate(180) translate(-30 -48)">
    <use xlink:href="#rim"/>
    <path pointer-events="none" fill="none" stroke="white" stroke-width="1.5" d="M0,-3.0v7 M-2.5,-0.5L0,-3.0L2.5,-0.5"/>
  </g>
  <g id="arrowLeft" transform="rotate(270) translate(-36 17)">
    <use xlink:href="#rim"/>
    <path pointer-events="none" fill="none" stroke="white" stroke-width="1.5" d="M0,-3.0v7 M-2.5,-0.5L0,-3.0L2.5,-0.5"/>
  </g>
  <g id="resetDef">
    <use xlink:href="#rim2" fill="#404040"><set attributeName="fill" to="#808080" begin="reset.mouseover" end="reset.mouseout"/></use>
  </g>
</defs>
<script type="application/ecmascript">
var viewWidth = 3848;
var viewHeight = 247;
var sectionId = 'dynsection-0';
</script>
<script type="application/ecmascript" xlink:href="svg.min.js"/>
<svg id="graph" class="graph">
<g id="viewport">
<title>squid/src/ipc/Kid.cc</title>
<!-- Node1 -->
<g id="Node000001" class="node">
<title>Node1</title>
<g id="a_Node000001"><a xlink:title=" ">
<polygon fill="#999999" stroke="#666666" points="2262,-239 2152,-239 2152,-220 2262,-220 2262,-239"/>
<text text-anchor="middle" x="2207" y="-227" font-family="Helvetica,sans-Serif" font-size="10.00">squid/src/ipc/Kid.cc</text>
</a>
</g>
</g>
<!-- Node2 -->
<g id="Node000002" class="node">
<title>Node2</title>
<g id="a_Node000002"><a xlink:href="squid_8h.html" target="_top" xlink:title=" ">
<polygon fill="white" stroke="#666666" points="1243,-184 1191,-184 1191,-165 1243,-165 1243,-184"/>
<text text-anchor="middle" x="1217" y="-172" font-family="Helvetica,sans-Serif" font-size="10.00">squid.h</text>
</a>
</g>
</g>
<!-- Node1&#45;&gt;Node2 -->
<g id="edge1_Node000001_Node000002" class="edge">
<title>Node1&#45;&gt;Node2</title>
<g id="a_edge1_Node000001_Node000002"><a xlink:title=" ">
<path fill="none" stroke="#63b8ff" d="M2151.65,-225.54C1971.11,-215.87 1402.4,-185.43 1253.16,-177.44"/>
<polygon fill="#63b8ff" stroke="#63b8ff" points="1253.32,-173.94 1243.15,-176.9 1252.95,-180.93 1253.32,-173.94"/>
</a>
</g>
</g>
<!-- Node44 -->
<g id="Node000044" class="node">
<title>Node44</title>
<g id="a_Node000044"><a xlink:href="globals_8h.html" target="_top" xlink:title=" ">
<polygon fill="white" stroke="#666666" points="2024.5,-184 1963.5,-184 1963.5,-165 2024.5,-165 2024.5,-184"/>
<text text-anchor="middle" x="1994" y="-172" font-family="Helvetica,sans-Serif" font-size="10.00">globals.h</text>
</a>
</g>
</g>
<!-- Node1&#45;&gt;Node44 -->
<g id="edge22_Node000001_Node000044" class="edge">
<title>Node1&#45;&gt;Node44</title>
<g id="a_edge22_Node000001_Node000044"><a xlink:title=" ">
<path fill="none" stroke="#63b8ff" d="M2172.78,-219.98C2135.05,-210.6 2074.41,-195.51 2034.39,-185.55"/>
<polygon fill="#63b8ff" stroke="#63b8ff" points="2035.23,-182.15 2024.68,-183.13 2033.54,-188.95 2035.23,-182.15"/>
</a>
</g>
</g>
<!-- Node65 -->
<g id="Node000065" class="node">
<title>Node65</title>
<g id="a_Node000065"><a xlink:href="Kid_8h.html" target="_top" xlink:title=" ">
<polygon fill="white" stroke="#666666" points="2236.5,-184 2177.5,-184 2177.5,-165 2236.5,-165 2236.5,-184"/>
<text text-anchor="middle" x="2207" y="-172" font-family="Helvetica,sans-Serif" font-size="10.00">ipc/Kid.h</text>
</a>
</g>
</g>
<!-- Node1&#45;&gt;Node65 -->
<g id="edge28_Node000001_Node000065" class="edge">
<title>Node1&#45;&gt;Node65</title>
<g id="a_edge28_Node000001_Node000065"><a xlink:title=" ">
<path fill="none" stroke="#63b8ff" d="M2207,-219.75C2207,-212.8 2207,-202.85 2207,-194.13"/>
<polygon fill="#63b8ff" stroke="#63b8ff" points="2210.5,-194.09 2207,-184.09 2203.5,-194.09 2210.5,-194.09"/>
</a>
</g>
</g>
<!-- Node76 -->
<g id="Node000076" class="node">
<title>Node76</title>
<g id="a_Node000076"><a xlink:href="SquidConfig_8h.html" target="_top" xlink:title=" ">
<polygon fill="white" stroke="#666666" points="3039.5,-184 2956.5,-184 2956.5,-165 3039.5,-165 3039.5,-184"/>
<text text-anchor="middle" x="2998" y="-172" font-family="Helvetica,sans-Serif" font-size="10.00">SquidConfig.h</text>
</a>
</g>
</g>
<!-- Node1&#45;&gt;Node76 -->
<g id="edge31_Node000001_Node000076" class="edge">
<title>Node1&#45;&gt;Node76</title>
<g id="a_edge31_Node000001_Node000076"><a xlink:title=" ">
<path fill="none" stroke="#63b8ff" d="M2262.31,-224.79C2408.53,-215 2803.83,-188.51 2946.1,-178.98"/>
<polygon fill="#63b8ff" stroke="#63b8ff" points="2946.55,-182.46 2956.3,-178.29 2946.08,-175.47 2946.55,-182.46"/>
</a>
</g>
</g>
<!-- Node142 -->
<g id="Node000142" class="node">
<title>Node142</title>
<g id="a_Node000142"><a xlink:title=" ">
<polygon fill="#e0e0e0" stroke="#999999" points="3839,-74 3795,-74 3795,-55 3839,-55 3839,-74"/>
<text text-anchor="middle" x="3817" y="-62" font-family="Helvetica,sans-Serif" font-size="10.00">ctime</text>
</a>
</g>
</g>
<!-- Node1&#45;&gt;Node142 -->
<g id="edge59_Node000001_Node000142" class="edge">
<title>Node1&#45;&gt;Node142</title>
<g id="a_edge59_Node000001_Node000142"><a xlink:title=" ">
<path fill="none" stroke="#63b8ff" d="M2262.34,-227.23C2540.97,-220.58 3779.21,-187.76 3834,-129 3845.64,-116.52 3837.88,-96.96 3829.42,-82.85"/>
<polygon fill="#63b8ff" stroke="#63b8ff" points="3832.09,-80.54 3823.68,-74.1 3826.24,-84.38 3832.09,-80.54"/>
</a>
</g>
</g>
<!-- Node3 -->
<g id="Node000003" class="node">
<title>Node3</title>
<g id="a_Node000003"><a xlink:href="autoconf_8h.html" target="_top" xlink:title=" ">
<polygon fill="white" stroke="#666666" points="1302,-129 1234,-129 1234,-110 1302,-110 1302,-129"/>
<text text-anchor="middle" x="1268" y="-117" font-family="Helvetica,sans-Serif" font-size="10.00">autoconf.h</text>
</a>
</g>
</g>
<!-- Node2&#45;&gt;Node3 -->
<g id="edge2_Node000002_Node000003" class="edge">
<title>Node2&#45;&gt;Node3</title>
<g id="a_edge2_Node000002_Node000003"><a xlink:title=" ">
<path fill="none" stroke="#63b8ff" d="M1225.42,-164.75C1232.77,-157.11 1243.63,-145.82 1252.54,-136.56"/>
<polygon fill="#63b8ff" stroke="#63b8ff" points="1255.32,-138.72 1259.74,-129.09 1250.28,-133.87 1255.32,-138.72"/>
</a>
</g>
</g>
<!-- Node4 -->
<g id="Node000004" class="node">
<title>Node4</title>
<g id="a_Node000004"><a xlink:href="version_8h.html" target="_top" xlink:title=" ">
<polygon fill="white" stroke="#666666" points="1096,-129 1034,-129 1034,-110 1096,-110 1096,-129"/>
<text text-anchor="middle" x="1065" y="-117" font-family="Helvetica,sans-Serif" font-size="10.00">version.h</text>
</a>
</g>
</g>
<!-- Node2&#45;&gt;Node4 -->
<g id="edge3_Node000002_Node000004" class="edge">
<title>Node2&#45;&gt;Node4</title>
<g id="a_edge3_Node000002_Node000004"><a xlink:title=" ">
<path fill="none" stroke="#63b8ff" d="M1192.58,-164.98C1167.28,-156.16 1127.55,-142.31 1099.14,-132.41"/>
<polygon fill="#63b8ff" stroke="#63b8ff" points="1100.21,-129.07 1089.61,-129.08 1097.9,-135.68 1100.21,-129.07"/>
</a>
</g>
</g>
<!-- Node5 -->
<g id="Node000005" class="node">
<title>Node5</title>
<g id="a_Node000005"><a xlink:href="compat_8h.html" target="_top" xlink:title=" ">
<polygon fill="#fff0f0" stroke="red" points="1216,-129 1114,-129 1114,-110 1216,-110 1216,-129"/>
<text text-anchor="middle" x="1165" y="-117" font-family="Helvetica,sans-Serif" font-size="10.00">compat/compat.h</text>
</a>
</g>
</g>
<!-- Node2&#45;&gt;Node5 -->
<g id="edge4_Node000002_Node000005" class="edge">
<title>Node2&#45;&gt;Node5</title>
<g id="a_edge4_Node000002_Node000005"><a xlink:title=" ">
<path fill="none" stroke="#63b8ff" d="M1208.41,-164.75C1200.84,-157.03 1189.62,-145.6 1180.49,-136.28"/>
<polygon fill="#63b8ff" stroke="#63b8ff" points="1182.93,-133.78 1173.43,-129.09 1177.93,-138.68 1182.93,-133.78"/>
</a>
</g>
</g>
<!-- Node6 -->
<g id="Node000006" class="node">
<title>Node6</title>
<g id="a_Node000006"><a xlink:href="osdetect_8h.html" target="_top" xlink:title=" ">
<polygon fill="white" stroke="#666666" points="1282.5,-74 1175.5,-74 1175.5,-55 1282.5,-55 1282.5,-74"/>
<text text-anchor="middle" x="1229" y="-62" font-family="Helvetica,sans-Serif" font-size="10.00">compat/osdetect.h</text>
</a>
</g>
</g>
<!-- Node5&#45;&gt;Node6 -->
<g id="edge5_Node000005_Node000006" class="edge">
<title>Node5&#45;&gt;Node6</title>
<g id="a_edge5_Node000005_Node000006"><a xlink:title=" ">
<path fill="none" stroke="#63b8ff" d="M1175.28,-109.98C1184.84,-102.07 1199.28,-90.11 1210.78,-80.58"/>
<polygon fill="#63b8ff" stroke="#63b8ff" points="1213.06,-83.24 1218.53,-74.17 1208.6,-77.85 1213.06,-83.24"/>
</a>
</g>
</g>
<!-- Node7 -->
<g id="Node000007" class="node">
<title>Node7</title>
<g id="a_Node000007"><a xlink:href="fdsetsize_8h.html" target="_top" xlink:title=" ">
<polygon fill="white" stroke="#666666" points="1411,-74 1301,-74 1301,-55 1411,-55 1411,-74"/>
<text text-anchor="middle" x="1356" y="-62" font-family="Helvetica,sans-Serif" font-size="10.00">compat/fdsetsize.h</text>
</a>
</g>
</g>
<!-- Node5&#45;&gt;Node7 -->
<g id="edge6_Node000005_Node000007" class="edge">
<title>Node5&#45;&gt;Node7</title>
<g id="a_edge6_Node000005_Node000007"><a xlink:title=" ">
<path fill="none" stroke="#63b8ff" d="M1195.69,-109.98C1228.17,-100.97 1279.6,-86.7 1315.41,-76.76"/>
<polygon fill="#63b8ff" stroke="#63b8ff" points="1316.37,-80.13 1325.07,-74.08 1314.5,-73.38 1316.37,-80.13"/>
</a>
</g>
</g>
<!-- Node8 -->
<g id="Node000008" class="node">
<title>Node8</title>
<g id="a_Node000008"><a xlink:href="types_8h.html" target="_top" xlink:title=" ">
<polygon fill="#fff0f0" stroke="red" points="1521,-74 1429,-74 1429,-55 1521,-55 1521,-74"/>
<text text-anchor="middle" x="1475" y="-62" font-family="Helvetica,sans-Serif" font-size="10.00">compat/types.h</text>
</a>
</g>
</g>
<!-- Node5&#45;&gt;Node8 -->
<g id="edge7_Node000005_Node000008" class="edge">
<title>Node5&#45;&gt;Node8</title>
<g id="a_edge7_Node000005_Node000008"><a xlink:title=" ">
<path fill="none" stroke="#63b8ff" d="M1214.81,-109.98C1270.51,-100.46 1360.53,-85.07 1418.73,-75.12"/>
<polygon fill="#63b8ff" stroke="#63b8ff" points="1419.59,-78.52 1428.86,-73.39 1418.41,-71.62 1419.59,-78.52"/>
</a>
</g>
</g>
<!-- Node10 -->
<g id="Node000010" class="node">
<title>Node10</title>
<g id="a_Node000010"><a xlink:href="aix_8h.html" target="_top" xlink:title=" ">
<polygon fill="white" stroke="#666666" points="1634.5,-74 1539.5,-74 1539.5,-55 1634.5,-55 1634.5,-74"/>
<text text-anchor="middle" x="1587" y="-62" font-family="Helvetica,sans-Serif" font-size="10.00">compat/os/aix.h</text>
</a>
</g>
</g>
<!-- Node5&#45;&gt;Node10 -->
<g id="edge8_Node000005_Node000010" class="edge">
<title>Node5&#45;&gt;Node10</title>
<g id="a_edge8_Node000005_Node000010"><a xlink:title=" ">
<path fill="none" stroke="#63b8ff" d="M1216.05,-111.19C1219.08,-110.78 1222.08,-110.38 1225,-110 1357.19,-92.84 1393.04,-92.09 1529.43,-74.04"/>
<polygon fill="#63b8ff" stroke="#63b8ff" points="1529.98,-77.49 1539.43,-72.7 1529.06,-70.55 1529.98,-77.49"/>
</a>
</g>
</g>
<!-- Node11 -->
<g id="Node000011" class="node">
<title>Node11</title>
<g id="a_Node000011"><a xlink:href="android_8h.html" target="_top" xlink:title=" ">
<polygon fill="white" stroke="#666666" points="1769,-74 1653,-74 1653,-55 1769,-55 1769,-74"/>
<text text-anchor="middle" x="1711" y="-62" font-family="Helvetica,sans-Serif" font-size="10.00">compat/os/android.h</text>
</a>
</g>
</g>
<!-- Node5&#45;&gt;Node11 -->
<g id="edge9_Node000005_Node000011" class="edge">
<title>Node5&#45;&gt;Node11</title>
<g id="a_edge9_Node000005_Node000011"><a xlink:title=" ">
<path fill="none" stroke="#63b8ff" d="M1216.04,-111.07C1219.07,-110.69 1222.07,-110.33 1225,-110 1407.45,-89.25 1456.43,-93.6 1642.78,-74.09"/>
<polygon fill="#63b8ff" stroke="#63b8ff" points="1643.34,-77.55 1652.91,-73.02 1642.6,-70.59 1643.34,-77.55"/>
</a>
</g>
</g>
<!-- Node12 -->
<g id="Node000012" class="node">
<title>Node12</title>
<g id="a_Node000012"><a xlink:href="dragonfly_8h.html" target="_top" xlink:title=" ">
<polygon fill="white" stroke="#666666" points="1911,-74 1787,-74 1787,-55 1911,-55 1911,-74"/>
<text text-anchor="middle" x="1849" y="-62" font-family="Helvetica,sans-Serif" font-size="10.00">compat/os/dragonfly.h</text>
</a>
</g>
</g>
<!-- Node5&#45;&gt;Node12 -->
<g id="edge10_Node000005_Node000012" class="edge">
<title>Node5&#45;&gt;Node12</title>
<g id="a_edge10_Node000005_Node000012"><a xlink:title=" ">
<path fill="none" stroke="#63b8ff" d="M1216.03,-111C1219.06,-110.64 1222.07,-110.3 1225,-110 1466.65,-85.05 1531,-96.33 1776.37,-74.1"/>
<polygon fill="#63b8ff" stroke="#63b8ff" points="1777.04,-77.55 1786.68,-73.15 1776.4,-70.58 1777.04,-77.55"/>
</a>
</g>
</g>
<!-- Node13 -->
<g id="Node000013" class="node">
<title>Node13</title>
<g id="a_Node000013"><a xlink:href="freebsd_8h.html" target="_top" xlink:title=" ">
<polygon fill="white" stroke="#666666" points="2045,-74 1929,-74 1929,-55 2045,-55 2045,-74"/>
<text text-anchor="middle" x="1987" y="-62" font-family="Helvetica,sans-Serif" font-size="10.00">compat/os/freebsd.h</text>
</a>
</g>
</g>
<!-- Node5&#45;&gt;Node13 -->
<g id="edge11_Node000005_Node000013" class="edge">
<title>Node5&#45;&gt;Node13</title>
<g id="a_edge11_Node000005_Node000013"><a xlink:title=" ">
<path fill="none" stroke="#63b8ff" d="M1216.03,-110.96C1219.06,-110.61 1222.07,-110.28 1225,-110 1529.56,-80.6 1610.2,-101.03 1918.79,-74.03"/>
<polygon fill="#63b8ff" stroke="#63b8ff" points="1919.27,-77.5 1928.92,-73.14 1918.65,-70.53 1919.27,-77.5"/>
</a>
</g>
</g>
<!-- Node14 -->
<g id="Node000014" class="node">
<title>Node14</title>
<g id="a_Node000014"><a xlink:href="hpux_8h.html" target="_top" xlink:title=" ">
<polygon fill="white" stroke="#666666" points="2167,-74 2063,-74 2063,-55 2167,-55 2167,-74"/>
<text text-anchor="middle" x="2115" y="-62" font-family="Helvetica,sans-Serif" font-size="10.00">compat/os/hpux.h</text>
</a>
</g>
</g>
<!-- Node5&#45;&gt;Node14 -->
<g id="edge12_Node000005_Node000014" class="edge">
<title>Node5&#45;&gt;Node14</title>
<g id="a_edge12_Node000005_Node000014"><a xlink:title=" ">
<path fill="none" stroke="#63b8ff" d="M1216.02,-110.93C1219.06,-110.58 1222.07,-110.27 1225,-110 1588.91,-76.4 1685,-106.92 2052.67,-74.02"/>
<polygon fill="#63b8ff" stroke="#63b8ff" points="2053.15,-77.49 2062.79,-73.11 2052.52,-70.52 2053.15,-77.49"/>
</a>
</g>
</g>
<!-- Node15 -->
<g id="Node000015" class="node">
<title>Node15</title>
<g id="a_Node000015"><a xlink:href="linux_8h.html" target="_top" xlink:title=" ">
<polygon fill="white" stroke="#666666" points="104,-74 0,-74 0,-55 104,-55 104,-74"/>
<text text-anchor="middle" x="52" y="-62" font-family="Helvetica,sans-Serif" font-size="10.00">compat/os/linux.h</text>
</a>
</g>
</g>
<!-- Node5&#45;&gt;Node15 -->
<g id="edge13_Node000005_Node000015" class="edge">
<title>Node5&#45;&gt;Node15</title>
<g id="a_edge13_Node000005_Node000015"><a xlink:title=" ">
<path fill="none" stroke="#63b8ff" d="M1113.98,-110.9C1110.94,-110.57 1107.93,-110.26 1105,-110 668.87,-71.3 554.23,-111.87 114.32,-74.01"/>
<polygon fill="#63b8ff" stroke="#63b8ff" points="114.47,-70.51 104.2,-73.13 113.86,-77.48 114.47,-70.51"/>
</a>
</g>
</g>
<!-- Node16 -->
<g id="Node000016" class="node">
<title>Node16</title>
<g id="a_Node000016"><a xlink:href="macosx_8h.html" target="_top" xlink:title=" ">
<polygon fill="white" stroke="#666666" points="240,-74 122,-74 122,-55 240,-55 240,-74"/>
<text text-anchor="middle" x="181" y="-62" font-family="Helvetica,sans-Serif" font-size="10.00">compat/os/macosx.h</text>
</a>
</g>
</g>
<!-- Node5&#45;&gt;Node16 -->
<g id="edge14_Node000005_Node000016" class="edge">
<title>Node5&#45;&gt;Node16</title>
<g id="a_edge14_Node000005_Node000016"><a xlink:title=" ">
<path fill="none" stroke="#63b8ff" d="M1113.98,-110.92C1110.94,-110.58 1107.93,-110.27 1105,-110 729.14,-75.56 630.2,-105.11 250.48,-74.05"/>
<polygon fill="#63b8ff" stroke="#63b8ff" points="250.56,-70.54 240.31,-73.21 249.99,-77.52 250.56,-70.54"/>
</a>
</g>
</g>
<!-- Node17 -->
<g id="Node000017" class="node">
<title>Node17</title>
<g id="a_Node000017"><a xlink:href="mingw_8h.html" target="_top" xlink:title=" ">
<polygon fill="white" stroke="#666666" points="370,-74 258,-74 258,-55 370,-55 370,-74"/>
<text text-anchor="middle" x="314" y="-62" font-family="Helvetica,sans-Serif" font-size="10.00">compat/os/mingw.h</text>
</a>
</g>
</g>
<!-- Node5&#45;&gt;Node17 -->
<g id="edge15_Node000005_Node000017" class="edge">
<title>Node5&#45;&gt;Node17</title>
<g id="a_edge15_Node000005_Node000017"><a xlink:title=" ">
<path fill="none" stroke="#63b8ff" d="M1113.97,-110.95C1110.94,-110.6 1107.93,-110.28 1105,-110 786.7,-79.63 702.48,-102.49 380.43,-74.05"/>
<polygon fill="#63b8ff" stroke="#63b8ff" points="380.61,-70.55 370.34,-73.15 379.99,-77.52 380.61,-70.55"/>
</a>
</g>
</g>
<!-- Node18 -->
<g id="Node000018" class="node">
<title>Node18</title>
<g id="a_Node000018"><a xlink:href="mswindows_8h.html" target="_top" xlink:title=" ">
<polygon fill="white" stroke="#666666" points="525.5,-74 388.5,-74 388.5,-55 525.5,-55 525.5,-74"/>
<text text-anchor="middle" x="457" y="-62" font-family="Helvetica,sans-Serif" font-size="10.00">compat/os/mswindows.h</text>
</a>
</g>
</g>
<!-- Node5&#45;&gt;Node18 -->
<g id="edge16_Node000005_Node000018" class="edge">
<title>Node5&#45;&gt;Node18</title>
<g id="a_edge16_Node000005_Node000018"><a xlink:title=" ">
<path fill="none" stroke="#63b8ff" d="M1113.97,-111C1110.94,-110.64 1107.93,-110.3 1105,-110 855.37,-84.49 789.07,-95.65 536.07,-74.14"/>
<polygon fill="#63b8ff" stroke="#63b8ff" points="536.09,-70.63 525.83,-73.26 535.49,-77.6 536.09,-70.63"/>
</a>
</g>
</g>
<!-- Node19 -->
<g id="Node000019" class="node">
<title>Node19</title>
<g id="a_Node000019"><a xlink:href="netbsd_8h.html" target="_top" xlink:title=" ">
<polygon fill="white" stroke="#666666" points="656.5,-74 543.5,-74 543.5,-55 656.5,-55 656.5,-74"/>
<text text-anchor="middle" x="600" y="-62" font-family="Helvetica,sans-Serif" font-size="10.00">compat/os/netbsd.h</text>
</a>
</g>
</g>
<!-- Node5&#45;&gt;Node19 -->
<g id="edge17_Node000005_Node000019" class="edge">
<title>Node5&#45;&gt;Node19</title>
<g id="a_edge17_Node000005_Node000019"><a xlink:title=" ">
<path fill="none" stroke="#63b8ff" d="M1113.96,-111.06C1110.93,-110.68 1107.93,-110.33 1105,-110 913.24,-88.59 861.81,-94.52 666.71,-74.13"/>
<polygon fill="#63b8ff" stroke="#63b8ff" points="667.01,-70.65 656.7,-73.08 666.28,-77.61 667.01,-70.65"/>
</a>
</g>
</g>
<!-- Node20 -->
<g id="Node000020" class="node">
<title>Node20</title>
<g id="a_Node000020"><a xlink:href="openbsd_8h.html" target="_top" xlink:title=" ">
<polygon fill="white" stroke="#666666" points="795.5,-74 674.5,-74 674.5,-55 795.5,-55 795.5,-74"/>
<text text-anchor="middle" x="735" y="-62" font-family="Helvetica,sans-Serif" font-size="10.00">compat/os/openbsd.h</text>
</a>
</g>
</g>
<!-- Node5&#45;&gt;Node20 -->
<g id="edge18_Node000005_Node000020" class="edge">
<title>Node5&#45;&gt;Node20</title>
<g id="a_edge18_Node000005_Node000020"><a xlink:title=" ">
<path fill="none" stroke="#63b8ff" d="M1113.95,-111.19C1110.92,-110.78 1107.92,-110.38 1105,-110 975.1,-93.01 940.02,-90.22 805.96,-74.11"/>
<polygon fill="#63b8ff" stroke="#63b8ff" points="806.05,-70.6 795.71,-72.88 805.22,-77.55 806.05,-70.6"/>
</a>
</g>
</g>
<!-- Node21 -->
<g id="Node000021" class="node">
<title>Node21</title>
<g id="a_Node000021"><a xlink:href="os2_8h.html" target="_top" xlink:title=" ">
<polygon fill="white" stroke="#666666" points="910.5,-74 813.5,-74 813.5,-55 910.5,-55 910.5,-74"/>
<text text-anchor="middle" x="862" y="-62" font-family="Helvetica,sans-Serif" font-size="10.00">compat/os/os2.h</text>
</a>
</g>
</g>
<!-- Node5&#45;&gt;Node21 -->
<g id="edge19_Node000005_Node000021" class="edge">
<title>Node5&#45;&gt;Node21</title>
<g id="a_edge19_Node000005_Node000021"><a xlink:title=" ">
<path fill="none" stroke="#63b8ff" d="M1116.32,-109.98C1062.98,-100.65 977.44,-85.69 920.5,-75.73"/>
<polygon fill="#63b8ff" stroke="#63b8ff" points="921.01,-72.27 910.56,-73.99 919.81,-79.16 921.01,-72.27"/>
</a>
</g>
</g>
<!-- Node22 -->
<g id="Node000022" class="node">
<title>Node22</title>
<g id="a_Node000022"><a xlink:href="qnx_8h.html" target="_top" xlink:title=" ">
<polygon fill="white" stroke="#666666" points="1027,-74 929,-74 929,-55 1027,-55 1027,-74"/>
<text text-anchor="middle" x="978" y="-62" font-family="Helvetica,sans-Serif" font-size="10.00">compat/os/qnx.h</text>
</a>
</g>
</g>
<!-- Node5&#45;&gt;Node22 -->
<g id="edge20_Node000005_Node000022" class="edge">
<title>Node5&#45;&gt;Node22</title>
<g id="a_edge20_Node000005_Node000022"><a xlink:title=" ">
<path fill="none" stroke="#63b8ff" d="M1134.96,-109.98C1103.29,-101.01 1053.23,-86.82 1018.19,-76.89"/>
<polygon fill="#63b8ff" stroke="#63b8ff" points="1018.86,-73.44 1008.28,-74.08 1016.95,-80.18 1018.86,-73.44"/>
</a>
</g>
</g>
<!-- Node23 -->
<g id="Node000023" class="node">
<title>Node23</title>
<g id="a_Node000023"><a xlink:href="solaris_8h.html" target="_top" xlink:title=" ">
<polygon fill="white" stroke="#666666" points="1157,-74 1045,-74 1045,-55 1157,-55 1157,-74"/>
<text text-anchor="middle" x="1101" y="-62" font-family="Helvetica,sans-Serif" font-size="10.00">compat/os/solaris.h</text>
</a>
</g>
</g>
<!-- Node5&#45;&gt;Node23 -->
<g id="edge21_Node000005_Node000023" class="edge">
<title>Node5&#45;&gt;Node23</title>
<g id="a_edge21_Node000005_Node000023"><a xlink:title=" ">
<path fill="none" stroke="#63b8ff" d="M1154.72,-109.98C1145.16,-102.07 1130.72,-90.11 1119.22,-80.58"/>
<polygon fill="#63b8ff" stroke="#63b8ff" points="1121.4,-77.85 1111.47,-74.17 1116.94,-83.24 1121.4,-77.85"/>
</a>
</g>
</g>
<!-- Node45 -->
<g id="Node000045" class="node">
<title>Node45</title>
<g id="a_Node000045"><a xlink:href="CacheDigest_8h.html" target="_top" xlink:title=" ">
<polygon fill="#fff0f0" stroke="red" points="1991.5,-129 1904.5,-129 1904.5,-110 1991.5,-110 1991.5,-129"/>
<text text-anchor="middle" x="1948" y="-117" font-family="Helvetica,sans-Serif" font-size="10.00">CacheDigest.h</text>
</a>
</g>
</g>
<!-- Node44&#45;&gt;Node45 -->
<g id="edge23_Node000044_Node000045" class="edge">
<title>Node44&#45;&gt;Node45</title>
<g id="a_edge23_Node000044_Node000045"><a xlink:title=" ">
<path fill="none" stroke="#63b8ff" d="M1986.4,-164.75C1979.84,-157.18 1970.18,-146.05 1962.19,-136.84"/>
<polygon fill="#63b8ff" stroke="#63b8ff" points="1964.65,-134.35 1955.45,-129.09 1959.37,-138.94 1964.65,-134.35"/>
</a>
</g>
</g>
<!-- Node62 -->
<g id="Node000062" class="node">
<title>Node62</title>
<g id="a_Node000062"><a xlink:href="defines_8h.html" target="_top" xlink:title=" ">
<polygon fill="white" stroke="#666666" points="2070.5,-129 2009.5,-129 2009.5,-110 2070.5,-110 2070.5,-129"/>
<text text-anchor="middle" x="2040" y="-117" font-family="Helvetica,sans-Serif" font-size="10.00">defines.h</text>
</a>
</g>
</g>
<!-- Node44&#45;&gt;Node62 -->
<g id="edge24_Node000044_Node000062" class="edge">
<title>Node44&#45;&gt;Node62</title>
<g id="a_edge24_Node000044_Node000062"><a xlink:title=" ">
<path fill="none" stroke="#63b8ff" d="M2001.6,-164.75C2008.16,-157.18 2017.82,-146.05 2025.81,-136.84"/>
<polygon fill="#63b8ff" stroke="#63b8ff" points="2028.63,-138.94 2032.55,-129.09 2023.35,-134.35 2028.63,-138.94"/>
</a>
</g>
</g>
<!-- Node50 -->
<g id="Node000050" class="node">
<title>Node50</title>
<g id="a_Node000050"><a xlink:href="hash_8h.html" target="_top" xlink:title=" ">
<polygon fill="white" stroke="#666666" points="2137.5,-129 2088.5,-129 2088.5,-110 2137.5,-110 2137.5,-129"/>
<text text-anchor="middle" x="2113" y="-117" font-family="Helvetica,sans-Serif" font-size="10.00">hash.h</text>
</a>
</g>
</g>
<!-- Node44&#45;&gt;Node50 -->
<g id="edge25_Node000044_Node000050" class="edge">
<title>Node44&#45;&gt;Node50</title>
<g id="a_edge25_Node000044_Node000050"><a xlink:title=" ">
<path fill="none" stroke="#63b8ff" d="M2013.12,-164.98C2032.35,-156.42 2062.23,-143.11 2084.31,-133.28"/>
<polygon fill="#63b8ff" stroke="#63b8ff" points="2085.82,-136.44 2093.53,-129.17 2082.97,-130.04 2085.82,-136.44"/>
</a>
</g>
</g>
<!-- Node63 -->
<g id="Node000063" class="node">
<title>Node63</title>
<g id="a_Node000063"><a xlink:href="IoStats_8h.html" target="_top" xlink:title=" ">
<polygon fill="white" stroke="#666666" points="1805.5,-129 1746.5,-129 1746.5,-110 1805.5,-110 1805.5,-129"/>
<text text-anchor="middle" x="1776" y="-117" font-family="Helvetica,sans-Serif" font-size="10.00">IoStats.h</text>
</a>
</g>
</g>
<!-- Node44&#45;&gt;Node63 -->
<g id="edge26_Node000044_Node000063" class="edge">
<title>Node44&#45;&gt;Node63</title>
<g id="a_edge26_Node000044_Node000063"><a xlink:title=" ">
<path fill="none" stroke="#63b8ff" d="M1963.23,-166.02C1924.52,-156.61 1857.99,-140.43 1815.55,-130.11"/>
<polygon fill="#63b8ff" stroke="#63b8ff" points="1816.11,-126.65 1805.57,-127.69 1814.46,-133.45 1816.11,-126.65"/>
</a>
</g>
</g>
<!-- Node64 -->
<g id="Node000064" class="node">
<title>Node64</title>
<g id="a_Node000064"><a xlink:href="rfc2181_8h.html" target="_top" xlink:title=" ">
<polygon fill="white" stroke="#666666" points="1886,-129 1824,-129 1824,-110 1886,-110 1886,-129"/>
<text text-anchor="middle" x="1855" y="-117" font-family="Helvetica,sans-Serif" font-size="10.00">rfc2181.h</text>
</a>
</g>
</g>
<!-- Node44&#45;&gt;Node64 -->
<g id="edge27_Node000044_Node000064" class="edge">
<title>Node44&#45;&gt;Node64</title>
<g id="a_edge27_Node000044_Node000064"><a xlink:title=" ">
<path fill="none" stroke="#63b8ff" d="M1971.67,-164.98C1948.8,-156.27 1913.04,-142.63 1887.14,-132.75"/>
<polygon fill="#63b8ff" stroke="#63b8ff" points="1888.33,-129.46 1877.74,-129.17 1885.84,-136 1888.33,-129.46"/>
</a>
</g>
</g>
<!-- Node66 -->
<g id="Node000066" class="node">
<title>Node66</title>
<g id="a_Node000066"><a xlink:href="SquidString_8h.html" target="_top" xlink:title=" ">
<polygon fill="#fff0f0" stroke="red" points="2266.5,-74 2185.5,-74 2185.5,-55 2266.5,-55 2266.5,-74"/>
<text text-anchor="middle" x="2226" y="-62" font-family="Helvetica,sans-Serif" font-size="10.00">SquidString.h</text>
</a>
</g>
</g>
<!-- Node65&#45;&gt;Node66 -->
<g id="edge29_Node000065_Node000066" class="edge">
<title>Node65&#45;&gt;Node66</title>
<g id="a_edge29_Node000065_Node000066"><a xlink:title=" ">
<path fill="none" stroke="#63b8ff" d="M2208.55,-164.97C2210.17,-156.02 2212.79,-141.52 2215,-129 2217.65,-113.98 2220.6,-96.96 2222.77,-84.32"/>
<polygon fill="#63b8ff" stroke="#63b8ff" points="2226.28,-84.58 2224.52,-74.13 2219.38,-83.39 2226.28,-84.58"/>
</a>
</g>
</g>
<!-- Node75 -->
<g id="Node000075" class="node">
<title>Node75</title>
<g id="a_Node000075"><a xlink:title=" ">
<polygon fill="#e0e0e0" stroke="#999999" points="2206,-129 2156,-129 2156,-110 2206,-110 2206,-129"/>
<text text-anchor="middle" x="2181" y="-117" font-family="Helvetica,sans-Serif" font-size="10.00">tools.h</text>
</a>
</g>
</g>
<!-- Node65&#45;&gt;Node75 -->
<g id="edge30_Node000065_Node000075" class="edge">
<title>Node65&#45;&gt;Node75</title>
<g id="a_edge30_Node000065_Node000075"><a xlink:title=" ">
<path fill="none" stroke="#63b8ff" d="M2202.71,-164.75C2199.19,-157.57 2194.09,-147.18 2189.72,-138.27"/>
<polygon fill="#63b8ff" stroke="#63b8ff" points="2192.76,-136.53 2185.21,-129.09 2186.48,-139.61 2192.76,-136.53"/>
</a>
</g>
</g>
<!-- Node77 -->
<g id="Node000077" class="node">
<title>Node77</title>
<g id="a_Node000077"><a xlink:href="acl_2forward_8h.html" target="_top" xlink:title=" ">
<polygon fill="white" stroke="#666666" points="3021,-74 2941,-74 2941,-55 3021,-55 3021,-74"/>
<text text-anchor="middle" x="2981" y="-62" font-family="Helvetica,sans-Serif" font-size="10.00">acl/forward.h</text>
</a>
</g>
</g>
<!-- Node76&#45;&gt;Node77 -->
<g id="edge32_Node000076_Node000077" class="edge">
<title>Node76&#45;&gt;Node77</title>
<g id="a_edge32_Node000076_Node000077"><a xlink:title=" ">
<path fill="none" stroke="#63b8ff" d="M3004.92,-164.82C3013.82,-152.54 3027.31,-129.44 3020,-110 3015.82,-98.89 3007.48,-88.75 2999.57,-80.96"/>
<polygon fill="#63b8ff" stroke="#63b8ff" points="3001.72,-78.19 2991.99,-74.01 2996.99,-83.35 3001.72,-78.19"/>
</a>
</g>
</g>
<!-- Node53 -->
<g id="Node000053" class="node">
<title>Node53</title>
<g id="a_Node000053"><a xlink:href="RefCount_8h.html" target="_top" xlink:title=" ">
<polygon fill="#fff0f0" stroke="red" points="3029.5,-19 2932.5,-19 2932.5,0 3029.5,0 3029.5,-19"/>
<text text-anchor="middle" x="2981" y="-7" font-family="Helvetica,sans-Serif" font-size="10.00">base/RefCount.h</text>
</a>
</g>
</g>
<!-- Node76&#45;&gt;Node53 -->
<g id="edge34_Node000076_Node000053" class="edge">
<title>Node76&#45;&gt;Node53</title>
<g id="a_edge34_Node000076_Node000053"><a xlink:title=" ">
<path fill="none" stroke="#63b8ff" d="M2956.27,-172.37C2810.02,-168.23 2328.34,-152.82 2306,-129 2219.43,-36.68 2742.91,-15.96 2922.29,-11.6"/>
<polygon fill="#63b8ff" stroke="#63b8ff" points="2922.42,-15.1 2932.34,-11.36 2922.26,-8.1 2922.42,-15.1"/>
</a>
</g>
</g>
<!-- Node78 -->
<g id="Node000078" class="node">
<title>Node78</title>
<g id="a_Node000078"><a xlink:href="YesNoNone_8h.html" target="_top" xlink:title=" ">
<polygon fill="#fff0f0" stroke="red" points="3344.5,-129 3237.5,-129 3237.5,-110 3344.5,-110 3344.5,-129"/>
<text text-anchor="middle" x="3291" y="-117" font-family="Helvetica,sans-Serif" font-size="10.00">base/YesNoNone.h</text>
</a>
</g>
</g>
<!-- Node76&#45;&gt;Node78 -->
<g id="edge35_Node000076_Node000078" class="edge">
<title>Node76&#45;&gt;Node78</title>
<g id="a_edge35_Node000076_Node000078"><a xlink:title=" ">
<path fill="none" stroke="#63b8ff" d="M3039.67,-165.96C3090.49,-156.77 3176.67,-141.18 3233.71,-130.86"/>
<polygon fill="#63b8ff" stroke="#63b8ff" points="3234.43,-134.29 3243.65,-129.06 3233.19,-127.4 3234.43,-134.29"/>
</a>
</g>
</g>
<!-- Node79 -->
<g id="Node000079" class="node">
<title>Node79</title>
<g id="a_Node000079"><a xlink:href="ClientDelayConfig_8h.html" target="_top" xlink:title=" ">
<polygon fill="#fff0f0" stroke="red" points="3180.5,-129 3067.5,-129 3067.5,-110 3180.5,-110 3180.5,-129"/>
<text text-anchor="middle" x="3124" y="-117" font-family="Helvetica,sans-Serif" font-size="10.00">ClientDelayConfig.h</text>
</a>
</g>
</g>
<!-- Node76&#45;&gt;Node79 -->
<g id="edge36_Node000076_Node000079" class="edge">
<title>Node76&#45;&gt;Node79</title>
<g id="a_edge36_Node000076_Node000079"><a xlink:title=" ">
<path fill="none" stroke="#63b8ff" d="M3018.24,-164.98C3038.7,-156.38 3070.53,-142.99 3093.93,-133.15"/>
<polygon fill="#63b8ff" stroke="#63b8ff" points="3095.53,-136.27 3103.39,-129.17 3092.81,-129.82 3095.53,-136.27"/>
</a>
</g>
</g>
<!-- Node81 -->
<g id="Node000081" class="node">
<title>Node81</title>
<g id="a_Node000081"><a xlink:href="DelayConfig_8h.html" target="_top" xlink:title=" ">
<polygon fill="white" stroke="#666666" points="3447.5,-129 3362.5,-129 3362.5,-110 3447.5,-110 3447.5,-129"/>
<text text-anchor="middle" x="3405" y="-117" font-family="Helvetica,sans-Serif" font-size="10.00">DelayConfig.h</text>
</a>
</g>
</g>
<!-- Node76&#45;&gt;Node81 -->
<g id="edge39_Node000076_Node000081" class="edge">
<title>Node76&#45;&gt;Node81</title>
<g id="a_edge39_Node000076_Node000081"><a xlink:title=" ">
<path fill="none" stroke="#63b8ff" d="M3039.73,-168.84C3104.48,-161.49 3233.3,-146.39 3352.42,-129.18"/>
<polygon fill="#63b8ff" stroke="#63b8ff" points="3353.05,-132.63 3362.44,-127.73 3352.04,-125.7 3353.05,-132.63"/>
</a>
</g>
</g>
<!-- Node82 -->
<g id="Node000082" class="node">
<title>Node82</title>
<g id="a_Node000082"><a xlink:href="HeaderMangling_8h.html" target="_top" xlink:title=" ">
<polygon fill="#fff0f0" stroke="red" points="3011,-129 2905,-129 2905,-110 3011,-110 3011,-129"/>
<text text-anchor="middle" x="2958" y="-117" font-family="Helvetica,sans-Serif" font-size="10.00">HeaderMangling.h</text>
</a>
</g>
</g>
<!-- Node76&#45;&gt;Node82 -->
<g id="edge40_Node000076_Node000082" class="edge">
<title>Node76&#45;&gt;Node82</title>
<g id="a_edge40_Node000076_Node000082"><a xlink:title=" ">
<path fill="none" stroke="#63b8ff" d="M2991.39,-164.75C2985.74,-157.26 2977.46,-146.28 2970.55,-137.13"/>
<polygon fill="#63b8ff" stroke="#63b8ff" points="2973.3,-134.96 2964.48,-129.09 2967.71,-139.18 2973.3,-134.96"/>
</a>
</g>
</g>
<!-- Node104 -->
<g id="Node000104" class="node">
<title>Node104</title>
<g id="a_Node000104"><a xlink:href="ChildConfig_8h.html" target="_top" xlink:title=" ">
<polygon fill="white" stroke="#666666" points="3580.5,-129 3465.5,-129 3465.5,-110 3580.5,-110 3580.5,-129"/>
<text text-anchor="middle" x="3523" y="-117" font-family="Helvetica,sans-Serif" font-size="10.00">helper/ChildConfig.h</text>
</a>
</g>
</g>
<!-- Node76&#45;&gt;Node104 -->
<g id="edge42_Node000076_Node000104" class="edge">
<title>Node76&#45;&gt;Node104</title>
<g id="a_edge42_Node000076_Node000104"><a xlink:title=" ">
<path fill="none" stroke="#63b8ff" d="M3039.5,-169.92C3118.42,-163.01 3295.79,-147.02 3455.42,-129.15"/>
<polygon fill="#63b8ff" stroke="#63b8ff" points="3455.87,-132.62 3465.42,-128.02 3455.09,-125.66 3455.87,-132.62"/>
</a>
</g>
</g>
<!-- Node105 -->
<g id="Node000105" class="node">
<title>Node105</title>
<g id="a_Node000105"><a xlink:href="ip_2Address_8h.html" target="_top" xlink:title=" ">
<polygon fill="#fff0f0" stroke="red" points="3681.5,-74 3604.5,-74 3604.5,-55 3681.5,-55 3681.5,-74"/>
<text text-anchor="middle" x="3643" y="-62" font-family="Helvetica,sans-Serif" font-size="10.00">ip/Address.h</text>
</a>
</g>
</g>
<!-- Node76&#45;&gt;Node105 -->
<g id="edge43_Node000076_Node000105" class="edge">
<title>Node76&#45;&gt;Node105</title>
<g id="a_edge43_Node000076_Node000105"><a xlink:title=" ">
<path fill="none" stroke="#63b8ff" d="M3039.7,-172.24C3166.43,-168.14 3541.37,-154.02 3590,-129 3609.48,-118.98 3624.57,-98.34 3633.58,-83.31"/>
<polygon fill="#63b8ff" stroke="#63b8ff" points="3636.74,-84.83 3638.61,-74.41 3630.64,-81.39 3636.74,-84.83"/>
</a>
</g>
</g>
<!-- Node108 -->
<g id="Node000108" class="node">
<title>Node108</title>
<g id="a_Node000108"><a xlink:href="MessageDelayPools_8h.html" target="_top" xlink:title=" ">
<polygon fill="#fff0f0" stroke="red" points="3259,-74 3135,-74 3135,-55 3259,-55 3259,-74"/>
<text text-anchor="middle" x="3197" y="-62" font-family="Helvetica,sans-Serif" font-size="10.00">MessageDelayPools.h</text>
</a>
</g>
</g>
<!-- Node76&#45;&gt;Node108 -->
<g id="edge44_Node000076_Node000108" class="edge">
<title>Node76&#45;&gt;Node108</title>
<g id="a_edge44_Node000076_Node000108"><a xlink:title=" ">
<path fill="none" stroke="#63b8ff" d="M3039.7,-169.43C3090.04,-163.6 3170.4,-151.06 3190,-129 3200.7,-116.96 3201.51,-98.15 3200.21,-84.13"/>
<polygon fill="#63b8ff" stroke="#63b8ff" points="3203.67,-83.57 3198.87,-74.12 3196.73,-84.5 3203.67,-83.57"/>
</a>
</g>
</g>
<!-- Node113 -->
<g id="Node000113" class="node">
<title>Node113</title>
<g id="a_Node000113"><a xlink:href="Notes_8h.html" target="_top" xlink:title=" ">
<polygon fill="#fff0f0" stroke="red" points="2887,-129 2833,-129 2833,-110 2887,-110 2887,-129"/>
<text text-anchor="middle" x="2860" y="-117" font-family="Helvetica,sans-Serif" font-size="10.00">Notes.h</text>
</a>
</g>
</g>
<!-- Node76&#45;&gt;Node113 -->
<g id="edge46_Node000076_Node000113" class="edge">
<title>Node76&#45;&gt;Node113</title>
<g id="a_edge46_Node000076_Node000113"><a xlink:title=" ">
<path fill="none" stroke="#63b8ff" d="M2975.83,-164.98C2953.23,-156.3 2917.94,-142.75 2892.25,-132.88"/>
<polygon fill="#63b8ff" stroke="#63b8ff" points="2893.17,-129.49 2882.58,-129.17 2890.66,-136.02 2893.17,-129.49"/>
</a>
</g>
</g>
<!-- Node114 -->
<g id="Node000114" class="node">
<title>Node114</title>
<g id="a_Node000114"><a xlink:href="Context_8h.html" target="_top" xlink:title=" ">
<polygon fill="#fff0f0" stroke="red" points="2421,-129 2315,-129 2315,-110 2421,-110 2421,-129"/>
<text text-anchor="middle" x="2368" y="-117" font-family="Helvetica,sans-Serif" font-size="10.00">security/Context.h</text>
</a>
</g>
</g>
<!-- Node76&#45;&gt;Node114 -->
<g id="edge50_Node000076_Node000114" class="edge">
<title>Node76&#45;&gt;Node114</title>
<g id="a_edge50_Node000076_Node000114"><a xlink:title=" ">
<path fill="none" stroke="#63b8ff" d="M2956.31,-171.03C2863.9,-165.37 2634.67,-150.4 2431.22,-128.96"/>
<polygon fill="#63b8ff" stroke="#63b8ff" points="2431.56,-125.47 2421.25,-127.9 2430.83,-132.43 2431.56,-125.47"/>
</a>
</g>
</g>
<!-- Node116 -->
<g id="Node000116" class="node">
<title>Node116</title>
<g id="a_Node000116"><a xlink:href="security_2forward_8h.html" target="_top" xlink:title=" ">
<polygon fill="#fff0f0" stroke="red" points="2544.5,-129 2439.5,-129 2439.5,-110 2544.5,-110 2544.5,-129"/>
<text text-anchor="middle" x="2492" y="-117" font-family="Helvetica,sans-Serif" font-size="10.00">security/forward.h</text>
</a>
</g>
</g>
<!-- Node76&#45;&gt;Node116 -->
<g id="edge51_Node000076_Node000116" class="edge">
<title>Node76&#45;&gt;Node116</title>
<g id="a_edge51_Node000076_Node000116"><a xlink:title=" ">
<path fill="none" stroke="#63b8ff" d="M2956.32,-169.83C2879.29,-162.94 2709.22,-147.22 2554.89,-129.06"/>
<polygon fill="#63b8ff" stroke="#63b8ff" points="2555.09,-125.56 2544.75,-127.86 2554.27,-132.51 2555.09,-125.56"/>
</a>
</g>
</g>
<!-- Node125 -->
<g id="Node000125" class="node">
<title>Node125</title>
<g id="a_Node000125"><a xlink:href="ssl_2support_8h.html" target="_top" xlink:title=" ">
<polygon fill="#fff0f0" stroke="red" points="3716.5,-129 3637.5,-129 3637.5,-110 3716.5,-110 3716.5,-129"/>
<text text-anchor="middle" x="3677" y="-117" font-family="Helvetica,sans-Serif" font-size="10.00">ssl/support.h</text>
</a>
</g>
</g>
<!-- Node76&#45;&gt;Node125 -->
<g id="edge52_Node000076_Node000125" class="edge">
<title>Node76&#45;&gt;Node125</title>
<g id="a_edge52_Node000076_Node000125"><a xlink:title=" ">
<path fill="none" stroke="#63b8ff" d="M3039.8,-171.75C3140.46,-167.28 3404.14,-153.97 3623,-129 3624.3,-128.85 3625.62,-128.69 3626.94,-128.53"/>
<polygon fill="#63b8ff" stroke="#63b8ff" points="3627.79,-131.95 3637.24,-127.15 3626.86,-125.01 3627.79,-131.95"/>
</a>
</g>
</g>
<!-- Node135 -->
<g id="Node000135" class="node">
<title>Node135</title>
<g id="a_Node000135"><a xlink:href="Disk_8h.html" target="_top" xlink:title=" ">
<polygon fill="#fff0f0" stroke="red" points="2637.5,-129 2562.5,-129 2562.5,-110 2637.5,-110 2637.5,-129"/>
<text text-anchor="middle" x="2600" y="-117" font-family="Helvetica,sans-Serif" font-size="10.00">store/Disk.h</text>
</a>
</g>
</g>
<!-- Node76&#45;&gt;Node135 -->
<g id="edge54_Node000076_Node000135" class="edge">
<title>Node76&#45;&gt;Node135</title>
<g id="a_edge54_Node000076_Node000135"><a xlink:title=" ">
<path fill="none" stroke="#63b8ff" d="M2956.3,-168.93C2892.25,-161.76 2765.58,-146.96 2647.61,-129.02"/>
<polygon fill="#63b8ff" stroke="#63b8ff" points="2648.1,-125.55 2637.68,-127.5 2647.04,-132.47 2648.1,-125.55"/>
</a>
</g>
</g>
<!-- Node61 -->
<g id="Node000061" class="node">
<title>Node61</title>
<g id="a_Node000061"><a xlink:href="store_2forward_8h.html" target="_top" xlink:title=" ">
<polygon fill="white" stroke="#666666" points="2746.5,-129 2655.5,-129 2655.5,-110 2746.5,-110 2746.5,-129"/>
<text text-anchor="middle" x="2701" y="-117" font-family="Helvetica,sans-Serif" font-size="10.00">store/forward.h</text>
</a>
</g>
</g>
<!-- Node76&#45;&gt;Node61 -->
<g id="edge55_Node000076_Node000061" class="edge">
<title>Node76&#45;&gt;Node61</title>
<g id="a_edge55_Node000076_Node000061"><a xlink:title=" ">
<path fill="none" stroke="#63b8ff" d="M2956.39,-166.07C2904.28,-156.78 2814.82,-140.81 2756.81,-130.46"/>
<polygon fill="#63b8ff" stroke="#63b8ff" points="2757.17,-126.97 2746.71,-128.66 2755.94,-133.86 2757.17,-126.97"/>
</a>
</g>
</g>
<!-- Node141 -->
<g id="Node000141" class="node">
<title>Node141</title>
<g id="a_Node000141"><a xlink:href="time_2gadgets_8h.html" target="_top" xlink:title=" ">
<polygon fill="#fff0f0" stroke="red" points="3825,-129 3735,-129 3735,-110 3825,-110 3825,-129"/>
<text text-anchor="middle" x="3780" y="-117" font-family="Helvetica,sans-Serif" font-size="10.00">time/gadgets.h</text>
</a>
</g>
</g>
<!-- Node76&#45;&gt;Node141 -->
<g id="edge56_Node000076_Node000141" class="edge">
<title>Node76&#45;&gt;Node141</title>
<g id="a_edge56_Node000076_Node000141"><a xlink:title=" ">
<path fill="none" stroke="#63b8ff" d="M3039.57,-172.34C3149.61,-168.98 3457.79,-157.66 3724.69,-129.03"/>
<polygon fill="#63b8ff" stroke="#63b8ff" points="3725.4,-132.47 3734.96,-127.92 3724.64,-125.51 3725.4,-132.47"/>
</a>
</g>
</g>
<!-- Node143 -->
<g id="Node000143" class="node">
<title>Node143</title>
<g id="a_Node000143"><a xlink:title=" ">
<polygon fill="#e0e0e0" stroke="#999999" points="2815,-129 2765,-129 2765,-110 2815,-110 2815,-129"/>
<text text-anchor="middle" x="2790" y="-117" font-family="Helvetica,sans-Serif" font-size="10.00">chrono</text>
</a>
</g>
</g>
<!-- Node76&#45;&gt;Node143 -->
<g id="edge58_Node000076_Node000143" class="edge">
<title>Node76&#45;&gt;Node143</title>
<g id="a_edge58_Node000076_Node000143"><a xlink:title=" ">
<path fill="none" stroke="#63b8ff" d="M2964.58,-164.98C2926.31,-155.23 2863.91,-139.33 2824.99,-129.42"/>
<polygon fill="#63b8ff" stroke="#63b8ff" points="2825.71,-125.99 2815.16,-126.91 2823.99,-132.77 2825.71,-125.99"/>
</a>
</g>
</g>
<!-- Node77&#45;&gt;Node53 -->
<g id="edge33_Node000077_Node000053" class="edge">
<title>Node77&#45;&gt;Node53</title>
<g id="a_edge33_Node000077_Node000053"><a xlink:title=" ">
<path fill="none" stroke="#63b8ff" d="M2981,-54.75C2981,-47.8 2981,-37.85 2981,-29.13"/>
<polygon fill="#63b8ff" stroke="#63b8ff" points="2984.5,-29.09 2981,-19.09 2977.5,-29.09 2984.5,-29.09"/>
</a>
</g>
</g>
<!-- Node79&#45;&gt;Node77 -->
<g id="edge37_Node000079_Node000077" class="edge">
<title>Node79&#45;&gt;Node77</title>
<g id="a_edge37_Node000079_Node000077"><a xlink:title=" ">
<path fill="none" stroke="#63b8ff" d="M3101.02,-109.98C3077.5,-101.27 3040.71,-87.63 3014.06,-77.75"/>
<polygon fill="#63b8ff" stroke="#63b8ff" points="3014.99,-74.36 3004.39,-74.17 3012.55,-80.93 3014.99,-74.36"/>
</a>
</g>
</g>
<!-- Node79&#45;&gt;Node53 -->
<g id="edge38_Node000079_Node000053" class="edge">
<title>Node79&#45;&gt;Node53</title>
<g id="a_edge38_Node000079_Node000053"><a xlink:title=" ">
<path fill="none" stroke="#63b8ff" d="M3112.3,-109.66C3087.77,-91.14 3030.75,-48.08 3000.56,-25.28"/>
<polygon fill="#63b8ff" stroke="#63b8ff" points="3002.55,-22.39 2992.46,-19.16 2998.33,-27.98 3002.55,-22.39"/>
</a>
</g>
</g>
<!-- Node82&#45;&gt;Node77 -->
<g id="edge41_Node000082_Node000077" class="edge">
<title>Node82&#45;&gt;Node77</title>
<g id="a_edge41_Node000082_Node000077"><a xlink:title=" ">
<path fill="none" stroke="#63b8ff" d="M2961.8,-109.75C2964.91,-102.57 2969.42,-92.18 2973.29,-83.27"/>
<polygon fill="#63b8ff" stroke="#63b8ff" points="2976.5,-84.66 2977.27,-74.09 2970.08,-81.87 2976.5,-84.66"/>
</a>
</g>
</g>
<!-- Node108&#45;&gt;Node53 -->
<g id="edge45_Node000108_Node000053" class="edge">
<title>Node108&#45;&gt;Node53</title>
<g id="a_edge45_Node000108_Node000053"><a xlink:title=" ">
<path fill="none" stroke="#63b8ff" d="M3162.3,-54.98C3125.25,-45.89 3066.41,-31.46 3025.87,-21.51"/>
<polygon fill="#63b8ff" stroke="#63b8ff" points="3026.52,-18.07 3015.98,-19.08 3024.85,-24.86 3026.52,-18.07"/>
</a>
</g>
</g>
<!-- Node113&#45;&gt;Node66 -->
<g id="edge49_Node000113_Node000066" class="edge">
<title>Node113&#45;&gt;Node66</title>
<g id="a_edge49_Node000113_Node000066"><a xlink:title=" ">
<path fill="none" stroke="#63b8ff" d="M2832.96,-111.63C2829.95,-111.01 2826.92,-110.45 2824,-110 2623.06,-79 2380.69,-69.4 2277.04,-66.59"/>
<polygon fill="#63b8ff" stroke="#63b8ff" points="2276.94,-63.09 2266.86,-66.32 2276.76,-70.08 2276.94,-63.09"/>
</a>
</g>
</g>
<!-- Node113&#45;&gt;Node77 -->
<g id="edge47_Node000113_Node000077" class="edge">
<title>Node113&#45;&gt;Node77</title>
<g id="a_edge47_Node000113_Node000077"><a xlink:title=" ">
<path fill="none" stroke="#63b8ff" d="M2879.44,-109.98C2898.99,-101.42 2929.38,-88.11 2951.82,-78.28"/>
<polygon fill="#63b8ff" stroke="#63b8ff" points="2953.45,-81.39 2961.21,-74.17 2950.64,-74.98 2953.45,-81.39"/>
</a>
</g>
</g>
<!-- Node113&#45;&gt;Node53 -->
<g id="edge48_Node000113_Node000053" class="edge">
<title>Node113&#45;&gt;Node53</title>
<g id="a_edge48_Node000113_Node000053"><a xlink:title=" ">
<path fill="none" stroke="#63b8ff" d="M2869.9,-109.66C2890.48,-91.3 2938.07,-48.81 2963.78,-25.87"/>
<polygon fill="#63b8ff" stroke="#63b8ff" points="2966.17,-28.43 2971.3,-19.16 2961.51,-23.21 2966.17,-28.43"/>
</a>
</g>
</g>
<!-- Node125&#45;&gt;Node105 -->
<g id="edge53_Node000125_Node000105" class="edge">
<title>Node125&#45;&gt;Node105</title>
<g id="a_edge53_Node000125_Node000105"><a xlink:title=" ">
<path fill="none" stroke="#63b8ff" d="M3671.39,-109.75C3666.68,-102.42 3659.83,-91.73 3654.03,-82.7"/>
<polygon fill="#63b8ff" stroke="#63b8ff" points="3656.86,-80.62 3648.51,-74.09 3650.96,-84.4 3656.86,-80.62"/>
</a>
</g>
</g>
<!-- Node141&#45;&gt;Node142 -->
<g id="edge57_Node000141_Node000142" class="edge">
<title>Node141&#45;&gt;Node142</title>
<g id="a_edge57_Node000141_Node000142"><a xlink:title=" ">
<path fill="none" stroke="#63b8ff" d="M3786.11,-109.75C3791.28,-102.34 3798.85,-91.5 3805.19,-82.41"/>
<polygon fill="#63b8ff" stroke="#63b8ff" points="3808.15,-84.29 3811,-74.09 3802.41,-80.29 3808.15,-84.29"/>
</a>
</g>
</g>
</g>
</svg>

<g id="navigator" transform="translate(0 0)" fill="#404254">
  <rect fill="#f2f5e9" fill-opacity="0.5" stroke="#606060" stroke-width=".5" x="0" y="0" width="60" height="60"/>
  <use id="zoomplus" xlink:href="#zoomPlus" x="17" y="9" onmousedown="handleZoom(evt,'in')"/>
  <use id="zoomminus" xlink:href="#zoomMin" x="42" y="9" onmousedown="handleZoom(evt,'out')"/>
  <use id="reset" xlink:href="#resetDef" x="30" y="36" onmousedown="handleReset()"/>
   <use id="arrowup" xlink:href="#arrowUp" x="0" y="0" onmousedown="handlePan(0,-1)"/>
  <use id="arrowright" xlink:href="#arrowRight" x="0" y="0" onmousedown="handlePan(1,0)"/>
  <use id="arrowdown" xlink:href="#arrowDown" x="0" y="0" onmousedown="handlePan(0,1)"/>
  <use id="arrowleft" xlink:href="#arrowLeft" x="0" y="0" onmousedown="handlePan(-1,0)"/>
</g>
<svg viewBox="0 0 15 15" width="100%" height="30px" preserveAspectRatio="xMaxYMin meet">
 <g id="arrow_out" transform="scale(0.3 0.3)">
  <a xlink:href="Kid_8cc__incl_org.svg" target="_base">
   <rect id="button" ry="5" rx="5" y="6" x="6" height="38" width="38"
        fill="#f2f5e9" fill-opacity="0.5" stroke="#606060" stroke-width="1.0"/>
   <path id="arrow"
     d="M 11.500037,31.436501 C 11.940474,20.09759 22.043105,11.32322 32.158766,21.979434 L 37.068811,17.246167 C 37.068811,17.246167 37.088388,32 37.088388,32 L 22.160133,31.978069 C 22.160133,31.978069 26.997745,27.140456 26.997745,27.140456 C 18.528582,18.264221 13.291696,25.230495 11.500037,31.436501 z"
     style="fill:#404040;"/>
  </a>
 </g>
</svg>

<style type='text/css'>
<![CDATA[
[data-mouse-over-selected='false'] { opacity: 0.7; }
[data-mouse-over-selected='true']  { opacity: 1.0; }
]]>
</style>
<script type="application/ecmascript"><![CDATA[
document.addEventListener('DOMContentLoaded', (event) => {
  highlightEdges();
  highlightAdjacentNodes();
});
]]></script>
</svg>
