<?xml version="1.0" encoding="UTF-8" standalone="no"?>
<!DOCTYPE svg PUBLIC "-//W3C//DTD SVG 1.1//EN"
 "http://www.w3.org/Graphics/SVG/1.1/DTD/svg11.dtd">
<!-- Generated by graphviz version 2.43.0 (0)
 -->
<!-- Title: squid/src/LoadableModules.cc Pages: 1 -->
<!--zoomable 247 -->

<svg id="main" version="1.1" xmlns="http://www.w3.org/2000/svg" xmlns:xlink="http://www.w3.org/1999/xlink" xml:space="preserve" onload="init(evt)">
<style type="text/css"><![CDATA[
.node, .edge {opacity: 0.7;}
.node.selected, .edge.selected {opacity: 1;}
.edge:hover path { stroke: red; }
.edge:hover polygon { stroke: red; fill: red; }
]]></style>

<defs>
  <circle id="rim" cx="0" cy="0" r="7"/>
  <circle id="rim2" cx="0" cy="0" r="3.5"/>
  <g id="zoomPlus">
    <use xlink:href="#rim" fill="#404040"><set attributeName="fill" to="#808080" begin="zoomplus.mouseover" end="zoomplus.mouseout"/></use>
    <path d="M-4,0h8M0,-4v8" fill="none" stroke="white" stroke-width="1.5" pointer-events="none"/>
  </g>
  <g id="zoomMin">
    <use xlink:href="#rim" fill="#404040"><set attributeName="fill" to="#808080" begin="zoomminus.mouseover" end="zoomminus.mouseout"/></use>
    <path d="M-4,0h8" fill="none" stroke="white" stroke-width="1.5" pointer-events="none"/>
  </g>
  <g id="arrowUp" transform="translate(30 24)">
    <use xlink:href="#rim"/>
    <path pointer-events="none" fill="none" stroke="white" stroke-width="1.5" d="M0,-3.0v7 M-2.5,-0.5L0,-3.0L2.5,-0.5"/>
  </g>
  <g id="arrowRight" transform="rotate(90) translate(36 -43)">
    <use xlink:href="#rim"/>
    <path pointer-events="none" fill="none" stroke="white" stroke-width="1.5" d="M0,-3.0v7 M-2.5,-0.5L0,-3.0L2.5,-0.5"/>
  </g>
  <g id="arrowDown" transform="rotate(180) translate(-30 -48)">
    <use xlink:href="#rim"/>
    <path pointer-events="none" fill="none" stroke="white" stroke-width="1.5" d="M0,-3.0v7 M-2.5,-0.5L0,-3.0L2.5,-0.5"/>
  </g>
  <g id="arrowLeft" transform="rotate(270) translate(-36 17)">
    <use xlink:href="#rim"/>
    <path pointer-events="none" fill="none" stroke="white" stroke-width="1.5" d="M0,-3.0v7 M-2.5,-0.5L0,-3.0L2.5,-0.5"/>
  </g>
  <g id="resetDef">
    <use xlink:href="#rim2" fill="#404040"><set attributeName="fill" to="#808080" begin="reset.mouseover" end="reset.mouseout"/></use>
  </g>
</defs>
<script type="application/ecmascript">
var viewWidth = 3879;
var viewHeight = 247;
var sectionId = 'dynsection-0';
</script>
<script type="application/ecmascript" xlink:href="svg.min.js"/>
<svg id="graph" class="graph">
<g id="viewport">
<title>squid/src/LoadableModules.cc</title>
<!-- Node1 -->
<g id="Node000001" class="node">
<title>Node1</title>
<g id="a_Node000001"><a xlink:title=" ">
<polygon fill="#999999" stroke="#666666" points="3626.5,-239 3464.5,-239 3464.5,-220 3626.5,-220 3626.5,-239"/>
<text text-anchor="middle" x="3545.5" y="-227" font-family="Helvetica,sans-Serif" font-size="10.00">squid/src/LoadableModules.cc</text>
</a>
</g>
</g>
<!-- Node2 -->
<g id="Node000002" class="node">
<title>Node2</title>
<g id="a_Node000002"><a xlink:href="squid_8h.html" target="_top" xlink:title=" ">
<polygon fill="white" stroke="#666666" points="1632.5,-184 1580.5,-184 1580.5,-165 1632.5,-165 1632.5,-184"/>
<text text-anchor="middle" x="1606.5" y="-172" font-family="Helvetica,sans-Serif" font-size="10.00">squid.h</text>
</a>
</g>
</g>
<!-- Node1&#45;&gt;Node2 -->
<g id="edge1_Node000001_Node000002" class="edge">
<title>Node1&#45;&gt;Node2</title>
<g id="a_edge1_Node000001_Node000002"><a xlink:title=" ">
<path fill="none" stroke="#63b8ff" d="M3464.35,-226.28C3130.86,-217.17 1872.69,-182.78 1642.71,-176.49"/>
<polygon fill="#63b8ff" stroke="#63b8ff" points="1642.64,-172.99 1632.54,-176.21 1642.44,-179.98 1642.64,-172.99"/>
</a>
</g>
</g>
<!-- Node45 -->
<g id="Node000045" class="node">
<title>Node45</title>
<g id="a_Node000045"><a xlink:href="debug_2Messages_8h.html" target="_top" xlink:title=" ">
<polygon fill="white" stroke="#666666" points="3461,-184 3354,-184 3354,-165 3461,-165 3461,-184"/>
<text text-anchor="middle" x="3407.5" y="-172" font-family="Helvetica,sans-Serif" font-size="10.00">debug/Messages.h</text>
</a>
</g>
</g>
<!-- Node1&#45;&gt;Node45 -->
<g id="edge31_Node000001_Node000045" class="edge">
<title>Node1&#45;&gt;Node45</title>
<g id="a_edge31_Node000001_Node000045"><a xlink:title=" ">
<path fill="none" stroke="#63b8ff" d="M3523.33,-219.98C3500.73,-211.3 3465.44,-197.75 3439.75,-187.88"/>
<polygon fill="#63b8ff" stroke="#63b8ff" points="3440.67,-184.49 3430.08,-184.17 3438.16,-191.02 3440.67,-184.49"/>
</a>
</g>
</g>
<!-- Node55 -->
<g id="Node000055" class="node">
<title>Node55</title>
<g id="a_Node000055"><a xlink:href="LoadableModule_8h.html" target="_top" xlink:title=" ">
<polygon fill="white" stroke="#666666" points="3598.5,-184 3492.5,-184 3492.5,-165 3598.5,-165 3598.5,-184"/>
<text text-anchor="middle" x="3545.5" y="-172" font-family="Helvetica,sans-Serif" font-size="10.00">LoadableModule.h</text>
</a>
</g>
</g>
<!-- Node1&#45;&gt;Node55 -->
<g id="edge40_Node000001_Node000055" class="edge">
<title>Node1&#45;&gt;Node55</title>
<g id="a_edge40_Node000001_Node000055"><a xlink:title=" ">
<path fill="none" stroke="#63b8ff" d="M3545.5,-219.75C3545.5,-212.8 3545.5,-202.85 3545.5,-194.13"/>
<polygon fill="#63b8ff" stroke="#63b8ff" points="3549,-194.09 3545.5,-184.09 3542,-194.09 3549,-194.09"/>
</a>
</g>
</g>
<!-- Node84 -->
<g id="Node000084" class="node">
<title>Node84</title>
<g id="a_Node000084"><a xlink:href="LoadableModules_8h.html" target="_top" xlink:title=" ">
<polygon fill="white" stroke="#666666" points="3728,-184 3617,-184 3617,-165 3728,-165 3728,-184"/>
<text text-anchor="middle" x="3672.5" y="-172" font-family="Helvetica,sans-Serif" font-size="10.00">LoadableModules.h</text>
</a>
</g>
</g>
<!-- Node1&#45;&gt;Node84 -->
<g id="edge51_Node000001_Node000084" class="edge">
<title>Node1&#45;&gt;Node84</title>
<g id="a_edge51_Node000001_Node000084"><a xlink:title=" ">
<path fill="none" stroke="#63b8ff" d="M3565.9,-219.98C3586.52,-211.38 3618.61,-197.99 3642.19,-188.15"/>
<polygon fill="#63b8ff" stroke="#63b8ff" points="3643.84,-191.25 3651.72,-184.17 3641.15,-184.79 3643.84,-191.25"/>
</a>
</g>
</g>
<!-- Node85 -->
<g id="Node000085" class="node">
<title>Node85</title>
<g id="a_Node000085"><a xlink:href="List_8h.html" target="_top" xlink:title=" ">
<polygon fill="white" stroke="#666666" points="3813,-184 3746,-184 3746,-165 3813,-165 3813,-184"/>
<text text-anchor="middle" x="3779.5" y="-172" font-family="Helvetica,sans-Serif" font-size="10.00">sbuf/List.h</text>
</a>
</g>
</g>
<!-- Node1&#45;&gt;Node85 -->
<g id="edge53_Node000001_Node000085" class="edge">
<title>Node1&#45;&gt;Node85</title>
<g id="a_edge53_Node000001_Node000085"><a xlink:title=" ">
<path fill="none" stroke="#63b8ff" d="M3583.1,-219.98C3624.81,-210.54 3692.01,-195.32 3735.97,-185.36"/>
<polygon fill="#63b8ff" stroke="#63b8ff" points="3736.81,-188.76 3745.79,-183.13 3735.27,-181.93 3736.81,-188.76"/>
</a>
</g>
</g>
<!-- Node3 -->
<g id="Node000003" class="node">
<title>Node3</title>
<g id="a_Node000003"><a xlink:href="autoconf_8h.html" target="_top" xlink:title=" ">
<polygon fill="white" stroke="#666666" points="1507.5,-129 1439.5,-129 1439.5,-110 1507.5,-110 1507.5,-129"/>
<text text-anchor="middle" x="1473.5" y="-117" font-family="Helvetica,sans-Serif" font-size="10.00">autoconf.h</text>
</a>
</g>
</g>
<!-- Node2&#45;&gt;Node3 -->
<g id="edge2_Node000002_Node000003" class="edge">
<title>Node2&#45;&gt;Node3</title>
<g id="a_edge2_Node000002_Node000003"><a xlink:title=" ">
<path fill="none" stroke="#63b8ff" d="M1585.13,-164.98C1563.35,-156.3 1529.34,-142.75 1504.58,-132.88"/>
<polygon fill="#63b8ff" stroke="#63b8ff" points="1505.84,-129.62 1495.26,-129.17 1503.25,-136.12 1505.84,-129.62"/>
</a>
</g>
</g>
<!-- Node4 -->
<g id="Node000004" class="node">
<title>Node4</title>
<g id="a_Node000004"><a xlink:href="version_8h.html" target="_top" xlink:title=" ">
<polygon fill="white" stroke="#666666" points="1587.5,-129 1525.5,-129 1525.5,-110 1587.5,-110 1587.5,-129"/>
<text text-anchor="middle" x="1556.5" y="-117" font-family="Helvetica,sans-Serif" font-size="10.00">version.h</text>
</a>
</g>
</g>
<!-- Node2&#45;&gt;Node4 -->
<g id="edge3_Node000002_Node000004" class="edge">
<title>Node2&#45;&gt;Node4</title>
<g id="a_edge3_Node000002_Node000004"><a xlink:title=" ">
<path fill="none" stroke="#63b8ff" d="M1598.24,-164.75C1591.04,-157.11 1580.39,-145.82 1571.65,-136.56"/>
<polygon fill="#63b8ff" stroke="#63b8ff" points="1574.01,-133.96 1564.6,-129.09 1568.92,-138.76 1574.01,-133.96"/>
</a>
</g>
</g>
<!-- Node5 -->
<g id="Node000005" class="node">
<title>Node5</title>
<g id="a_Node000005"><a xlink:href="compat_8h.html" target="_top" xlink:title=" ">
<polygon fill="white" stroke="#666666" points="1707.5,-129 1605.5,-129 1605.5,-110 1707.5,-110 1707.5,-129"/>
<text text-anchor="middle" x="1656.5" y="-117" font-family="Helvetica,sans-Serif" font-size="10.00">compat/compat.h</text>
</a>
</g>
</g>
<!-- Node2&#45;&gt;Node5 -->
<g id="edge4_Node000002_Node000005" class="edge">
<title>Node2&#45;&gt;Node5</title>
<g id="a_edge4_Node000002_Node000005"><a xlink:title=" ">
<path fill="none" stroke="#63b8ff" d="M1614.76,-164.75C1621.96,-157.11 1632.61,-145.82 1641.35,-136.56"/>
<polygon fill="#63b8ff" stroke="#63b8ff" points="1644.08,-138.76 1648.4,-129.09 1638.99,-133.96 1644.08,-138.76"/>
</a>
</g>
</g>
<!-- Node6 -->
<g id="Node000006" class="node">
<title>Node6</title>
<g id="a_Node000006"><a xlink:href="osdetect_8h.html" target="_top" xlink:title=" ">
<polygon fill="white" stroke="#666666" points="702,-74 595,-74 595,-55 702,-55 702,-74"/>
<text text-anchor="middle" x="648.5" y="-62" font-family="Helvetica,sans-Serif" font-size="10.00">compat/osdetect.h</text>
</a>
</g>
</g>
<!-- Node5&#45;&gt;Node6 -->
<g id="edge5_Node000005_Node000006" class="edge">
<title>Node5&#45;&gt;Node6</title>
<g id="a_edge5_Node000005_Node000006"><a xlink:title=" ">
<path fill="none" stroke="#63b8ff" d="M1605.48,-110.92C1602.44,-110.58 1599.43,-110.27 1596.5,-110 1207.81,-74.65 1105.4,-107.78 712.31,-73.96"/>
<polygon fill="#63b8ff" stroke="#63b8ff" points="712.34,-70.45 702.08,-73.08 711.74,-77.43 712.34,-70.45"/>
</a>
</g>
</g>
<!-- Node7 -->
<g id="Node000007" class="node">
<title>Node7</title>
<g id="a_Node000007"><a xlink:href="fdsetsize_8h.html" target="_top" xlink:title=" ">
<polygon fill="white" stroke="#666666" points="830.5,-74 720.5,-74 720.5,-55 830.5,-55 830.5,-74"/>
<text text-anchor="middle" x="775.5" y="-62" font-family="Helvetica,sans-Serif" font-size="10.00">compat/fdsetsize.h</text>
</a>
</g>
</g>
<!-- Node5&#45;&gt;Node7 -->
<g id="edge6_Node000005_Node000007" class="edge">
<title>Node5&#45;&gt;Node7</title>
<g id="a_edge6_Node000005_Node000007"><a xlink:title=" ">
<path fill="none" stroke="#63b8ff" d="M1605.48,-110.94C1602.44,-110.59 1599.43,-110.28 1596.5,-110 1264.44,-78.65 1176.68,-103.7 840.64,-74.02"/>
<polygon fill="#63b8ff" stroke="#63b8ff" points="840.9,-70.53 830.62,-73.12 840.27,-77.5 840.9,-70.53"/>
</a>
</g>
</g>
<!-- Node8 -->
<g id="Node000008" class="node">
<title>Node8</title>
<g id="a_Node000008"><a xlink:href="types_8h.html" target="_top" xlink:title=" ">
<polygon fill="#fff0f0" stroke="red" points="940.5,-74 848.5,-74 848.5,-55 940.5,-55 940.5,-74"/>
<text text-anchor="middle" x="894.5" y="-62" font-family="Helvetica,sans-Serif" font-size="10.00">compat/types.h</text>
</a>
</g>
</g>
<!-- Node5&#45;&gt;Node8 -->
<g id="edge7_Node000005_Node000008" class="edge">
<title>Node5&#45;&gt;Node8</title>
<g id="a_edge7_Node000005_Node000008"><a xlink:title=" ">
<path fill="none" stroke="#63b8ff" d="M1605.47,-110.97C1602.44,-110.62 1599.43,-110.29 1596.5,-110 1313.24,-82.11 1237.69,-103.51 950.96,-74.04"/>
<polygon fill="#63b8ff" stroke="#63b8ff" points="950.98,-70.52 940.67,-72.97 950.26,-77.49 950.98,-70.52"/>
</a>
</g>
</g>
<!-- Node10 -->
<g id="Node000010" class="node">
<title>Node10</title>
<g id="a_Node000010"><a xlink:href="aix_8h.html" target="_top" xlink:title=" ">
<polygon fill="white" stroke="#666666" points="1054,-74 959,-74 959,-55 1054,-55 1054,-74"/>
<text text-anchor="middle" x="1006.5" y="-62" font-family="Helvetica,sans-Serif" font-size="10.00">compat/os/aix.h</text>
</a>
</g>
</g>
<!-- Node5&#45;&gt;Node10 -->
<g id="edge8_Node000005_Node000010" class="edge">
<title>Node5&#45;&gt;Node10</title>
<g id="a_edge8_Node000005_Node000010"><a xlink:title=" ">
<path fill="none" stroke="#63b8ff" d="M1605.47,-111.01C1602.44,-110.65 1599.43,-110.31 1596.5,-110 1363.58,-85.67 1301.25,-99.15 1064.02,-73.95"/>
<polygon fill="#63b8ff" stroke="#63b8ff" points="1064.37,-70.47 1054.05,-72.88 1063.62,-77.43 1064.37,-70.47"/>
</a>
</g>
</g>
<!-- Node11 -->
<g id="Node000011" class="node">
<title>Node11</title>
<g id="a_Node000011"><a xlink:href="android_8h.html" target="_top" xlink:title=" ">
<polygon fill="white" stroke="#666666" points="1188.5,-74 1072.5,-74 1072.5,-55 1188.5,-55 1188.5,-74"/>
<text text-anchor="middle" x="1130.5" y="-62" font-family="Helvetica,sans-Serif" font-size="10.00">compat/os/android.h</text>
</a>
</g>
</g>
<!-- Node5&#45;&gt;Node11 -->
<g id="edge9_Node000005_Node000011" class="edge">
<title>Node5&#45;&gt;Node11</title>
<g id="a_edge9_Node000005_Node000011"><a xlink:title=" ">
<path fill="none" stroke="#63b8ff" d="M1605.46,-111.09C1602.43,-110.71 1599.43,-110.34 1596.5,-110 1422.91,-89.89 1376.23,-93.08 1198.8,-74.1"/>
<polygon fill="#63b8ff" stroke="#63b8ff" points="1198.91,-70.59 1188.59,-73 1198.16,-77.55 1198.91,-70.59"/>
</a>
</g>
</g>
<!-- Node12 -->
<g id="Node000012" class="node">
<title>Node12</title>
<g id="a_Node000012"><a xlink:href="dragonfly_8h.html" target="_top" xlink:title=" ">
<polygon fill="white" stroke="#666666" points="1330.5,-74 1206.5,-74 1206.5,-55 1330.5,-55 1330.5,-74"/>
<text text-anchor="middle" x="1268.5" y="-62" font-family="Helvetica,sans-Serif" font-size="10.00">compat/os/dragonfly.h</text>
</a>
</g>
</g>
<!-- Node5&#45;&gt;Node12 -->
<g id="edge10_Node000005_Node000012" class="edge">
<title>Node5&#45;&gt;Node12</title>
<g id="a_edge10_Node000005_Node000012"><a xlink:title=" ">
<path fill="none" stroke="#63b8ff" d="M1605.44,-111.25C1602.42,-110.82 1599.42,-110.4 1596.5,-110 1508.52,-97.8 1407.21,-84.11 1340.74,-75.18"/>
<polygon fill="#63b8ff" stroke="#63b8ff" points="1341.16,-71.7 1330.78,-73.84 1340.23,-78.64 1341.16,-71.7"/>
</a>
</g>
</g>
<!-- Node13 -->
<g id="Node000013" class="node">
<title>Node13</title>
<g id="a_Node000013"><a xlink:href="freebsd_8h.html" target="_top" xlink:title=" ">
<polygon fill="white" stroke="#666666" points="1464.5,-74 1348.5,-74 1348.5,-55 1464.5,-55 1464.5,-74"/>
<text text-anchor="middle" x="1406.5" y="-62" font-family="Helvetica,sans-Serif" font-size="10.00">compat/os/freebsd.h</text>
</a>
</g>
</g>
<!-- Node5&#45;&gt;Node13 -->
<g id="edge11_Node000005_Node000013" class="edge">
<title>Node5&#45;&gt;Node13</title>
<g id="a_edge11_Node000005_Node000013"><a xlink:title=" ">
<path fill="none" stroke="#63b8ff" d="M1616.33,-109.98C1573,-100.8 1503.91,-86.15 1456.94,-76.19"/>
<polygon fill="#63b8ff" stroke="#63b8ff" points="1457.49,-72.73 1446.98,-74.08 1456.04,-79.58 1457.49,-72.73"/>
</a>
</g>
</g>
<!-- Node14 -->
<g id="Node000014" class="node">
<title>Node14</title>
<g id="a_Node000014"><a xlink:href="hpux_8h.html" target="_top" xlink:title=" ">
<polygon fill="white" stroke="#666666" points="1586.5,-74 1482.5,-74 1482.5,-55 1586.5,-55 1586.5,-74"/>
<text text-anchor="middle" x="1534.5" y="-62" font-family="Helvetica,sans-Serif" font-size="10.00">compat/os/hpux.h</text>
</a>
</g>
</g>
<!-- Node5&#45;&gt;Node14 -->
<g id="edge12_Node000005_Node000014" class="edge">
<title>Node5&#45;&gt;Node14</title>
<g id="a_edge12_Node000005_Node000014"><a xlink:title=" ">
<path fill="none" stroke="#63b8ff" d="M1636.9,-109.98C1617.18,-101.42 1586.55,-88.11 1563.92,-78.28"/>
<polygon fill="#63b8ff" stroke="#63b8ff" points="1565.02,-74.94 1554.46,-74.17 1562.24,-81.37 1565.02,-74.94"/>
</a>
</g>
</g>
<!-- Node15 -->
<g id="Node000015" class="node">
<title>Node15</title>
<g id="a_Node000015"><a xlink:href="linux_8h.html" target="_top" xlink:title=" ">
<polygon fill="white" stroke="#666666" points="1708.5,-74 1604.5,-74 1604.5,-55 1708.5,-55 1708.5,-74"/>
<text text-anchor="middle" x="1656.5" y="-62" font-family="Helvetica,sans-Serif" font-size="10.00">compat/os/linux.h</text>
</a>
</g>
</g>
<!-- Node5&#45;&gt;Node15 -->
<g id="edge13_Node000005_Node000015" class="edge">
<title>Node5&#45;&gt;Node15</title>
<g id="a_edge13_Node000005_Node000015"><a xlink:title=" ">
<path fill="none" stroke="#63b8ff" d="M1656.5,-109.75C1656.5,-102.8 1656.5,-92.85 1656.5,-84.13"/>
<polygon fill="#63b8ff" stroke="#63b8ff" points="1660,-84.09 1656.5,-74.09 1653,-84.09 1660,-84.09"/>
</a>
</g>
</g>
<!-- Node16 -->
<g id="Node000016" class="node">
<title>Node16</title>
<g id="a_Node000016"><a xlink:href="macosx_8h.html" target="_top" xlink:title=" ">
<polygon fill="white" stroke="#666666" points="1844.5,-74 1726.5,-74 1726.5,-55 1844.5,-55 1844.5,-74"/>
<text text-anchor="middle" x="1785.5" y="-62" font-family="Helvetica,sans-Serif" font-size="10.00">compat/os/macosx.h</text>
</a>
</g>
</g>
<!-- Node5&#45;&gt;Node16 -->
<g id="edge14_Node000005_Node000016" class="edge">
<title>Node5&#45;&gt;Node16</title>
<g id="a_edge14_Node000005_Node000016"><a xlink:title=" ">
<path fill="none" stroke="#63b8ff" d="M1677.23,-109.98C1698.26,-101.34 1731.05,-87.87 1755.04,-78.02"/>
<polygon fill="#63b8ff" stroke="#63b8ff" points="1756.48,-81.21 1764.4,-74.17 1753.82,-74.73 1756.48,-81.21"/>
</a>
</g>
</g>
<!-- Node17 -->
<g id="Node000017" class="node">
<title>Node17</title>
<g id="a_Node000017"><a xlink:href="mingw_8h.html" target="_top" xlink:title=" ">
<polygon fill="white" stroke="#666666" points="1974.5,-74 1862.5,-74 1862.5,-55 1974.5,-55 1974.5,-74"/>
<text text-anchor="middle" x="1918.5" y="-62" font-family="Helvetica,sans-Serif" font-size="10.00">compat/os/mingw.h</text>
</a>
</g>
</g>
<!-- Node5&#45;&gt;Node17 -->
<g id="edge15_Node000005_Node000017" class="edge">
<title>Node5&#45;&gt;Node17</title>
<g id="a_edge15_Node000005_Node000017"><a xlink:title=" ">
<path fill="none" stroke="#63b8ff" d="M1698.59,-109.98C1744.2,-100.76 1817.02,-86.03 1866.25,-76.07"/>
<polygon fill="#63b8ff" stroke="#63b8ff" points="1866.97,-79.5 1876.08,-74.08 1865.58,-72.63 1866.97,-79.5"/>
</a>
</g>
</g>
<!-- Node18 -->
<g id="Node000018" class="node">
<title>Node18</title>
<g id="a_Node000018"><a xlink:href="mswindows_8h.html" target="_top" xlink:title=" ">
<polygon fill="white" stroke="#666666" points="2130,-74 1993,-74 1993,-55 2130,-55 2130,-74"/>
<text text-anchor="middle" x="2061.5" y="-62" font-family="Helvetica,sans-Serif" font-size="10.00">compat/os/mswindows.h</text>
</a>
</g>
</g>
<!-- Node5&#45;&gt;Node18 -->
<g id="edge16_Node000005_Node000018" class="edge">
<title>Node5&#45;&gt;Node18</title>
<g id="a_edge16_Node000005_Node000018"><a xlink:title=" ">
<path fill="none" stroke="#63b8ff" d="M1707.79,-111.79C1778.11,-102.59 1904.95,-85.99 1986.09,-75.37"/>
<polygon fill="#63b8ff" stroke="#63b8ff" points="1986.78,-78.81 1996.25,-74.04 1985.88,-71.87 1986.78,-78.81"/>
</a>
</g>
</g>
<!-- Node19 -->
<g id="Node000019" class="node">
<title>Node19</title>
<g id="a_Node000019"><a xlink:href="netbsd_8h.html" target="_top" xlink:title=" ">
<polygon fill="white" stroke="#666666" points="2261,-74 2148,-74 2148,-55 2261,-55 2261,-74"/>
<text text-anchor="middle" x="2204.5" y="-62" font-family="Helvetica,sans-Serif" font-size="10.00">compat/os/netbsd.h</text>
</a>
</g>
</g>
<!-- Node5&#45;&gt;Node19 -->
<g id="edge17_Node000005_Node000019" class="edge">
<title>Node5&#45;&gt;Node19</title>
<g id="a_edge17_Node000005_Node000019"><a xlink:title=" ">
<path fill="none" stroke="#63b8ff" d="M1707.57,-114.39C1793.82,-107.32 1974.09,-91.98 2137.73,-74.04"/>
<polygon fill="#63b8ff" stroke="#63b8ff" points="2138.43,-77.49 2147.99,-72.91 2137.67,-70.53 2138.43,-77.49"/>
</a>
</g>
</g>
<!-- Node20 -->
<g id="Node000020" class="node">
<title>Node20</title>
<g id="a_Node000020"><a xlink:href="openbsd_8h.html" target="_top" xlink:title=" ">
<polygon fill="white" stroke="#666666" points="2400,-74 2279,-74 2279,-55 2400,-55 2400,-74"/>
<text text-anchor="middle" x="2339.5" y="-62" font-family="Helvetica,sans-Serif" font-size="10.00">compat/os/openbsd.h</text>
</a>
</g>
</g>
<!-- Node5&#45;&gt;Node20 -->
<g id="edge18_Node000005_Node000020" class="edge">
<title>Node5&#45;&gt;Node20</title>
<g id="a_edge18_Node000005_Node000020"><a xlink:title=" ">
<path fill="none" stroke="#63b8ff" d="M1707.83,-115.62C1811.58,-109.6 2053.88,-94.63 2268.61,-74.04"/>
<polygon fill="#63b8ff" stroke="#63b8ff" points="2269.2,-77.5 2278.81,-73.05 2268.52,-70.53 2269.2,-77.5"/>
</a>
</g>
</g>
<!-- Node21 -->
<g id="Node000021" class="node">
<title>Node21</title>
<g id="a_Node000021"><a xlink:href="os2_8h.html" target="_top" xlink:title=" ">
<polygon fill="white" stroke="#666666" points="2515,-74 2418,-74 2418,-55 2515,-55 2515,-74"/>
<text text-anchor="middle" x="2466.5" y="-62" font-family="Helvetica,sans-Serif" font-size="10.00">compat/os/os2.h</text>
</a>
</g>
</g>
<!-- Node5&#45;&gt;Node21 -->
<g id="edge19_Node000005_Node000021" class="edge">
<title>Node5&#45;&gt;Node21</title>
<g id="a_edge19_Node000005_Node000021"><a xlink:title=" ">
<path fill="none" stroke="#63b8ff" d="M1707.68,-117C1827.93,-113.14 2138.01,-101.28 2407.82,-73.97"/>
<polygon fill="#63b8ff" stroke="#63b8ff" points="2408.21,-77.45 2417.8,-72.95 2407.5,-70.48 2408.21,-77.45"/>
</a>
</g>
</g>
<!-- Node22 -->
<g id="Node000022" class="node">
<title>Node22</title>
<g id="a_Node000022"><a xlink:href="qnx_8h.html" target="_top" xlink:title=" ">
<polygon fill="white" stroke="#666666" points="2631.5,-74 2533.5,-74 2533.5,-55 2631.5,-55 2631.5,-74"/>
<text text-anchor="middle" x="2582.5" y="-62" font-family="Helvetica,sans-Serif" font-size="10.00">compat/os/qnx.h</text>
</a>
</g>
</g>
<!-- Node5&#45;&gt;Node22 -->
<g id="edge20_Node000005_Node000022" class="edge">
<title>Node5&#45;&gt;Node22</title>
<g id="a_edge20_Node000005_Node000022"><a xlink:title=" ">
<path fill="none" stroke="#63b8ff" d="M1707.93,-117.51C1840.85,-114.59 2206.88,-104.31 2523.01,-73.93"/>
<polygon fill="#63b8ff" stroke="#63b8ff" points="2523.67,-77.38 2533.29,-72.93 2522.99,-70.42 2523.67,-77.38"/>
</a>
</g>
</g>
<!-- Node23 -->
<g id="Node000023" class="node">
<title>Node23</title>
<g id="a_Node000023"><a xlink:href="sgi_8h.html" target="_top" xlink:title=" ">
<polygon fill="white" stroke="#666666" points="2743.5,-74 2649.5,-74 2649.5,-55 2743.5,-55 2743.5,-74"/>
<text text-anchor="middle" x="2696.5" y="-62" font-family="Helvetica,sans-Serif" font-size="10.00">compat/os/sgi.h</text>
</a>
</g>
</g>
<!-- Node5&#45;&gt;Node23 -->
<g id="edge21_Node000005_Node000023" class="edge">
<title>Node5&#45;&gt;Node23</title>
<g id="a_edge21_Node000005_Node000023"><a xlink:title=" ">
<path fill="none" stroke="#63b8ff" d="M1707.59,-118.09C1852.17,-116.51 2276.62,-109.1 2639.32,-74"/>
<polygon fill="#63b8ff" stroke="#63b8ff" points="2639.88,-77.46 2649.49,-73 2639.2,-70.49 2639.88,-77.46"/>
</a>
</g>
</g>
<!-- Node24 -->
<g id="Node000024" class="node">
<title>Node24</title>
<g id="a_Node000024"><a xlink:href="solaris_8h.html" target="_top" xlink:title=" ">
<polygon fill="white" stroke="#666666" points="2873.5,-74 2761.5,-74 2761.5,-55 2873.5,-55 2873.5,-74"/>
<text text-anchor="middle" x="2817.5" y="-62" font-family="Helvetica,sans-Serif" font-size="10.00">compat/os/solaris.h</text>
</a>
</g>
</g>
<!-- Node5&#45;&gt;Node24 -->
<g id="edge22_Node000005_Node000024" class="edge">
<title>Node5&#45;&gt;Node24</title>
<g id="a_edge22_Node000005_Node000024"><a xlink:title=" ">
<path fill="none" stroke="#63b8ff" d="M1707.68,-118.05C1863.02,-116.33 2342.9,-108.47 2750.93,-74.05"/>
<polygon fill="#63b8ff" stroke="#63b8ff" points="2751.5,-77.52 2761.16,-73.18 2750.9,-70.54 2751.5,-77.52"/>
</a>
</g>
</g>
<!-- Node25 -->
<g id="Node000025" class="node">
<title>Node25</title>
<g id="a_Node000025"><a xlink:href="sunos_8h.html" target="_top" xlink:title=" ">
<polygon fill="white" stroke="#666666" points="2999.5,-74 2891.5,-74 2891.5,-55 2999.5,-55 2999.5,-74"/>
<text text-anchor="middle" x="2945.5" y="-62" font-family="Helvetica,sans-Serif" font-size="10.00">compat/os/sunos.h</text>
</a>
</g>
</g>
<!-- Node5&#45;&gt;Node25 -->
<g id="edge23_Node000005_Node000025" class="edge">
<title>Node5&#45;&gt;Node25</title>
<g id="a_edge23_Node000005_Node000025"><a xlink:title=" ">
<path fill="none" stroke="#63b8ff" d="M1707.7,-118.43C1874.89,-117.83 2420.03,-112.88 2881.05,-74.03"/>
<polygon fill="#63b8ff" stroke="#63b8ff" points="2881.57,-77.5 2891.24,-73.16 2880.98,-70.52 2881.57,-77.5"/>
</a>
</g>
</g>
<!-- Node26 -->
<g id="Node000026" class="node">
<title>Node26</title>
<g id="a_Node000026"><a xlink:href="assert_8h.html" target="_top" xlink:title=" ">
<polygon fill="white" stroke="#666666" points="3113,-74 3018,-74 3018,-55 3113,-55 3113,-74"/>
<text text-anchor="middle" x="3065.5" y="-62" font-family="Helvetica,sans-Serif" font-size="10.00">compat/assert.h</text>
</a>
</g>
</g>
<!-- Node5&#45;&gt;Node26 -->
<g id="edge24_Node000005_Node000026" class="edge">
<title>Node5&#45;&gt;Node26</title>
<g id="a_edge24_Node000005_Node000026"><a xlink:title=" ">
<path fill="none" stroke="#63b8ff" d="M1707.58,-118.93C1885.51,-120 2494.61,-119.88 3007.76,-73.93"/>
<polygon fill="#63b8ff" stroke="#63b8ff" points="3008.32,-77.39 3017.96,-73.01 3007.69,-70.42 3008.32,-77.39"/>
</a>
</g>
</g>
<!-- Node27 -->
<g id="Node000027" class="node">
<title>Node27</title>
<g id="a_Node000027"><a xlink:href="compat__shared_8h.html" target="_top" xlink:title=" ">
<polygon fill="#fff0f0" stroke="red" points="3271.5,-74 3131.5,-74 3131.5,-55 3271.5,-55 3271.5,-74"/>
<text text-anchor="middle" x="3201.5" y="-62" font-family="Helvetica,sans-Serif" font-size="10.00">compat/compat_shared.h</text>
</a>
</g>
</g>
<!-- Node5&#45;&gt;Node27 -->
<g id="edge25_Node000005_Node000027" class="edge">
<title>Node5&#45;&gt;Node27</title>
<g id="a_edge25_Node000005_Node000027"><a xlink:title=" ">
<path fill="none" stroke="#63b8ff" d="M1707.82,-118.34C1895.24,-117.47 2560.51,-111.78 3120.97,-73.96"/>
<polygon fill="#63b8ff" stroke="#63b8ff" points="3121.55,-77.43 3131.29,-73.26 3121.07,-70.45 3121.55,-77.43"/>
</a>
</g>
</g>
<!-- Node37 -->
<g id="Node000037" class="node">
<title>Node37</title>
<g id="a_Node000037"><a xlink:href="stdvarargs_8h.html" target="_top" xlink:title=" ">
<polygon fill="#fff0f0" stroke="red" points="117,-74 0,-74 0,-55 117,-55 117,-74"/>
<text text-anchor="middle" x="58.5" y="-62" font-family="Helvetica,sans-Serif" font-size="10.00">compat/stdvarargs.h</text>
</a>
</g>
</g>
<!-- Node5&#45;&gt;Node37 -->
<g id="edge26_Node000005_Node000037" class="edge">
<title>Node5&#45;&gt;Node37</title>
<g id="a_edge26_Node000005_Node000037"><a xlink:title=" ">
<path fill="none" stroke="#63b8ff" d="M1605.48,-110.86C1602.45,-110.53 1599.44,-110.24 1596.5,-110 948.1,-56.32 779.35,-122.53 127.41,-74.06"/>
<polygon fill="#63b8ff" stroke="#63b8ff" points="127.53,-70.56 117.29,-73.3 127,-77.54 127.53,-70.56"/>
</a>
</g>
</g>
<!-- Node39 -->
<g id="Node000039" class="node">
<title>Node39</title>
<g id="a_Node000039"><a xlink:href="stdio_8h.html" target="_top" xlink:title=" ">
<polygon fill="#fff0f0" stroke="red" points="224,-74 135,-74 135,-55 224,-55 224,-74"/>
<text text-anchor="middle" x="179.5" y="-62" font-family="Helvetica,sans-Serif" font-size="10.00">compat/stdio.h</text>
</a>
</g>
</g>
<!-- Node5&#45;&gt;Node39 -->
<g id="edge27_Node000005_Node000039" class="edge">
<title>Node5&#45;&gt;Node39</title>
<g id="a_edge27_Node000005_Node000039"><a xlink:title=" ">
<path fill="none" stroke="#63b8ff" d="M1605.48,-110.87C1602.45,-110.54 1599.44,-110.25 1596.5,-110 995.58,-59.67 838.09,-129.35 234.53,-74.06"/>
<polygon fill="#63b8ff" stroke="#63b8ff" points="234.55,-70.54 224.27,-73.11 233.9,-77.51 234.55,-70.54"/>
</a>
</g>
</g>
<!-- Node41 -->
<g id="Node000041" class="node">
<title>Node41</title>
<g id="a_Node000041"><a xlink:href="statvfs_8h.html" target="_top" xlink:title=" ">
<polygon fill="white" stroke="#666666" points="341,-74 242,-74 242,-55 341,-55 341,-74"/>
<text text-anchor="middle" x="291.5" y="-62" font-family="Helvetica,sans-Serif" font-size="10.00">compat/statvfs.h</text>
</a>
</g>
</g>
<!-- Node5&#45;&gt;Node41 -->
<g id="edge28_Node000005_Node000041" class="edge">
<title>Node5&#45;&gt;Node41</title>
<g id="a_edge28_Node000005_Node000041"><a xlink:title=" ">
<path fill="none" stroke="#63b8ff" d="M1605.48,-110.88C1602.45,-110.55 1599.44,-110.25 1596.5,-110 1047.41,-63.33 903.6,-121.56 351.35,-74.05"/>
<polygon fill="#63b8ff" stroke="#63b8ff" points="351.39,-70.54 341.13,-73.16 350.79,-77.51 351.39,-70.54"/>
</a>
</g>
</g>
<!-- Node42 -->
<g id="Node000042" class="node">
<title>Node42</title>
<g id="a_Node000042"><a xlink:href="debug_8h.html" target="_top" xlink:title=" ">
<polygon fill="white" stroke="#666666" points="454,-74 359,-74 359,-55 454,-55 454,-74"/>
<text text-anchor="middle" x="406.5" y="-62" font-family="Helvetica,sans-Serif" font-size="10.00">compat/debug.h</text>
</a>
</g>
</g>
<!-- Node5&#45;&gt;Node42 -->
<g id="edge29_Node000005_Node000042" class="edge">
<title>Node5&#45;&gt;Node42</title>
<g id="a_edge29_Node000005_Node000042"><a xlink:title=" ">
<path fill="none" stroke="#63b8ff" d="M1605.48,-110.89C1602.45,-110.55 1599.43,-110.25 1596.5,-110 1097.43,-66.86 966.38,-119.22 464.16,-74.03"/>
<polygon fill="#63b8ff" stroke="#63b8ff" points="464.39,-70.54 454.11,-73.12 463.75,-77.51 464.39,-70.54"/>
</a>
</g>
</g>
<!-- Node43 -->
<g id="Node000043" class="node">
<title>Node43</title>
<g id="a_Node000043"><a xlink:href="valgrind_8h.html" target="_top" xlink:title=" ">
<polygon fill="#fff0f0" stroke="red" points="577,-74 472,-74 472,-55 577,-55 577,-74"/>
<text text-anchor="middle" x="524.5" y="-62" font-family="Helvetica,sans-Serif" font-size="10.00">compat/valgrind.h</text>
</a>
</g>
</g>
<!-- Node5&#45;&gt;Node43 -->
<g id="edge30_Node000005_Node000043" class="edge">
<title>Node5&#45;&gt;Node43</title>
<g id="a_edge30_Node000005_Node000043"><a xlink:title=" ">
<path fill="none" stroke="#63b8ff" d="M1605.48,-110.9C1602.44,-110.56 1599.43,-110.26 1596.5,-110 1151.91,-70.7 1035.12,-112.46 587.01,-74.03"/>
<polygon fill="#63b8ff" stroke="#63b8ff" points="587.3,-70.55 577.03,-73.17 586.69,-77.52 587.3,-70.55"/>
</a>
</g>
</g>
<!-- Node46 -->
<g id="Node000046" class="node">
<title>Node46</title>
<g id="a_Node000046"><a xlink:href="debug_2Stream_8h.html" target="_top" xlink:title=" ">
<polygon fill="white" stroke="#666666" points="3383.5,-74 3289.5,-74 3289.5,-55 3383.5,-55 3383.5,-74"/>
<text text-anchor="middle" x="3336.5" y="-62" font-family="Helvetica,sans-Serif" font-size="10.00">debug/Stream.h</text>
</a>
</g>
</g>
<!-- Node45&#45;&gt;Node46 -->
<g id="edge32_Node000045_Node000046" class="edge">
<title>Node45&#45;&gt;Node46</title>
<g id="a_edge32_Node000045_Node000046"><a xlink:title=" ">
<path fill="none" stroke="#63b8ff" d="M3399.85,-164.99C3392.22,-156.28 3380.37,-142.19 3371.5,-129 3361.63,-114.33 3352.06,-96.64 3345.42,-83.66"/>
<polygon fill="#63b8ff" stroke="#63b8ff" points="3348.4,-81.78 3340.79,-74.41 3342.14,-84.92 3348.4,-81.78"/>
</a>
</g>
</g>
<!-- Node53 -->
<g id="Node000053" class="node">
<title>Node53</title>
<g id="a_Node000053"><a xlink:title=" ">
<polygon fill="#e0e0e0" stroke="#999999" points="3422.5,-129 3380.5,-129 3380.5,-110 3422.5,-110 3422.5,-129"/>
<text text-anchor="middle" x="3401.5" y="-117" font-family="Helvetica,sans-Serif" font-size="10.00">array</text>
</a>
</g>
</g>
<!-- Node45&#45;&gt;Node53 -->
<g id="edge38_Node000045_Node000053" class="edge">
<title>Node45&#45;&gt;Node53</title>
<g id="a_edge38_Node000045_Node000053"><a xlink:title=" ">
<path fill="none" stroke="#63b8ff" d="M3406.51,-164.75C3405.72,-157.8 3404.6,-147.85 3403.61,-139.13"/>
<polygon fill="#63b8ff" stroke="#63b8ff" points="3407.08,-138.63 3402.47,-129.09 3400.12,-139.42 3407.08,-138.63"/>
</a>
</g>
</g>
<!-- Node54 -->
<g id="Node000054" class="node">
<title>Node54</title>
<g id="a_Node000054"><a xlink:title=" ">
<polygon fill="#e0e0e0" stroke="#999999" points="3484.5,-129 3440.5,-129 3440.5,-110 3484.5,-110 3484.5,-129"/>
<text text-anchor="middle" x="3462.5" y="-117" font-family="Helvetica,sans-Serif" font-size="10.00">limits</text>
</a>
</g>
</g>
<!-- Node45&#45;&gt;Node54 -->
<g id="edge39_Node000045_Node000054" class="edge">
<title>Node45&#45;&gt;Node54</title>
<g id="a_edge39_Node000045_Node000054"><a xlink:title=" ">
<path fill="none" stroke="#63b8ff" d="M3416.58,-164.75C3424.59,-157.03 3436.46,-145.6 3446.12,-136.28"/>
<polygon fill="#63b8ff" stroke="#63b8ff" points="3448.81,-138.55 3453.59,-129.09 3443.96,-133.51 3448.81,-138.55"/>
</a>
</g>
</g>
<!-- Node47 -->
<g id="Node000047" class="node">
<title>Node47</title>
<g id="a_Node000047"><a xlink:href="Here_8h.html" target="_top" xlink:title=" ">
<polygon fill="#fff0f0" stroke="red" points="3533,-19 3458,-19 3458,0 3533,0 3533,-19"/>
<text text-anchor="middle" x="3495.5" y="-7" font-family="Helvetica,sans-Serif" font-size="10.00">base/Here.h</text>
</a>
</g>
</g>
<!-- Node46&#45;&gt;Node47 -->
<g id="edge33_Node000046_Node000047" class="edge">
<title>Node46&#45;&gt;Node47</title>
<g id="a_edge33_Node000046_Node000047"><a xlink:title=" ">
<path fill="none" stroke="#63b8ff" d="M3362.05,-54.98C3388.62,-46.13 3430.44,-32.19 3460.17,-22.28"/>
<polygon fill="#63b8ff" stroke="#63b8ff" points="3461.37,-25.56 3469.75,-19.08 3459.16,-18.92 3461.37,-25.56"/>
</a>
</g>
</g>
<!-- Node49 -->
<g id="Node000049" class="node">
<title>Node49</title>
<g id="a_Node000049"><a xlink:href="AllocatorProxy_8h.html" target="_top" xlink:title=" ">
<polygon fill="white" stroke="#666666" points="3439.5,-19 3315.5,-19 3315.5,0 3439.5,0 3439.5,-19"/>
<text text-anchor="middle" x="3377.5" y="-7" font-family="Helvetica,sans-Serif" font-size="10.00">mem/AllocatorProxy.h</text>
</a>
</g>
</g>
<!-- Node46&#45;&gt;Node49 -->
<g id="edge34_Node000046_Node000049" class="edge">
<title>Node46&#45;&gt;Node49</title>
<g id="a_edge34_Node000046_Node000049"><a xlink:title=" ">
<path fill="none" stroke="#63b8ff" d="M3343.27,-54.75C3349.06,-47.26 3357.56,-36.28 3364.64,-27.13"/>
<polygon fill="#63b8ff" stroke="#63b8ff" points="3367.51,-29.14 3370.86,-19.09 3361.97,-24.86 3367.51,-29.14"/>
</a>
</g>
</g>
<!-- Node50 -->
<g id="Node000050" class="node">
<title>Node50</title>
<g id="a_Node000050"><a xlink:title=" ">
<polygon fill="#e0e0e0" stroke="#999999" points="3149.5,-19 3089.5,-19 3089.5,0 3149.5,0 3149.5,-19"/>
<text text-anchor="middle" x="3119.5" y="-7" font-family="Helvetica,sans-Serif" font-size="10.00">iostream</text>
</a>
</g>
</g>
<!-- Node46&#45;&gt;Node50 -->
<g id="edge35_Node000046_Node000050" class="edge">
<title>Node46&#45;&gt;Node50</title>
<g id="a_edge35_Node000046_Node000050"><a xlink:title=" ">
<path fill="none" stroke="#63b8ff" d="M3301.64,-54.98C3262.87,-45.52 3200.36,-30.25 3159.59,-20.29"/>
<polygon fill="#63b8ff" stroke="#63b8ff" points="3160.27,-16.86 3149.73,-17.88 3158.61,-23.66 3160.27,-16.86"/>
</a>
</g>
</g>
<!-- Node51 -->
<g id="Node000051" class="node">
<title>Node51</title>
<g id="a_Node000051"><a xlink:title=" ">
<polygon fill="#e0e0e0" stroke="#999999" points="3223.5,-19 3167.5,-19 3167.5,0 3223.5,0 3223.5,-19"/>
<text text-anchor="middle" x="3195.5" y="-7" font-family="Helvetica,sans-Serif" font-size="10.00">sstream</text>
</a>
</g>
</g>
<!-- Node46&#45;&gt;Node51 -->
<g id="edge36_Node000046_Node000051" class="edge">
<title>Node46&#45;&gt;Node51</title>
<g id="a_edge36_Node000046_Node000051"><a xlink:title=" ">
<path fill="none" stroke="#63b8ff" d="M3313.85,-54.98C3290.65,-46.27 3254.38,-32.63 3228.1,-22.75"/>
<polygon fill="#63b8ff" stroke="#63b8ff" points="3229.16,-19.41 3218.57,-19.17 3226.7,-25.97 3229.16,-19.41"/>
</a>
</g>
</g>
<!-- Node52 -->
<g id="Node000052" class="node">
<title>Node52</title>
<g id="a_Node000052"><a xlink:title=" ">
<polygon fill="#e0e0e0" stroke="#999999" points="3297.5,-19 3241.5,-19 3241.5,0 3297.5,0 3297.5,-19"/>
<text text-anchor="middle" x="3269.5" y="-7" font-family="Helvetica,sans-Serif" font-size="10.00">iomanip</text>
</a>
</g>
</g>
<!-- Node46&#45;&gt;Node52 -->
<g id="edge37_Node000046_Node000052" class="edge">
<title>Node46&#45;&gt;Node52</title>
<g id="a_edge37_Node000046_Node000052"><a xlink:title=" ">
<path fill="none" stroke="#63b8ff" d="M3325.74,-54.98C3315.73,-47.07 3300.61,-35.11 3288.57,-25.58"/>
<polygon fill="#63b8ff" stroke="#63b8ff" points="3290.47,-22.63 3280.46,-19.17 3286.13,-28.12 3290.47,-22.63"/>
</a>
</g>
</g>
<!-- Node56 -->
<g id="Node000056" class="node">
<title>Node56</title>
<g id="a_Node000056"><a xlink:href="SBuf_8h.html" target="_top" xlink:title=" ">
<polygon fill="#fff0f0" stroke="red" points="3614,-129 3543,-129 3543,-110 3614,-110 3614,-129"/>
<text text-anchor="middle" x="3578.5" y="-117" font-family="Helvetica,sans-Serif" font-size="10.00">sbuf/SBuf.h</text>
</a>
</g>
</g>
<!-- Node55&#45;&gt;Node56 -->
<g id="edge41_Node000055_Node000056" class="edge">
<title>Node55&#45;&gt;Node56</title>
<g id="a_edge41_Node000055_Node000056"><a xlink:title=" ">
<path fill="none" stroke="#63b8ff" d="M3550.95,-164.75C3555.51,-157.42 3562.17,-146.73 3567.79,-137.7"/>
<polygon fill="#63b8ff" stroke="#63b8ff" points="3570.84,-139.43 3573.15,-129.09 3564.9,-135.73 3570.84,-139.43"/>
</a>
</g>
</g>
<!-- Node56&#45;&gt;Node46 -->
<g id="edge45_Node000056_Node000046" class="edge">
<title>Node56&#45;&gt;Node46</title>
<g id="a_edge45_Node000056_Node000046"><a xlink:title=" ">
<path fill="none" stroke="#63b8ff" d="M3542.79,-110.68C3501.15,-101.56 3432.07,-86.43 3385.45,-76.22"/>
<polygon fill="#63b8ff" stroke="#63b8ff" points="3386.08,-72.78 3375.57,-74.06 3384.59,-79.61 3386.08,-72.78"/>
</a>
</g>
</g>
<!-- Node57 -->
<g id="Node000057" class="node">
<title>Node57</title>
<g id="a_Node000057"><a xlink:href="InstanceId_8h.html" target="_top" xlink:title=" ">
<polygon fill="#fff0f0" stroke="red" points="3687.5,-19 3585.5,-19 3585.5,0 3687.5,0 3687.5,-19"/>
<text text-anchor="middle" x="3636.5" y="-7" font-family="Helvetica,sans-Serif" font-size="10.00">base/InstanceId.h</text>
</a>
</g>
</g>
<!-- Node56&#45;&gt;Node57 -->
<g id="edge42_Node000056_Node000057" class="edge">
<title>Node56&#45;&gt;Node57</title>
<g id="a_edge42_Node000056_Node000057"><a xlink:title=" ">
<path fill="none" stroke="#63b8ff" d="M3573.85,-109.71C3567.77,-96.89 3558.95,-72.67 3568.5,-55 3576.08,-40.98 3590.2,-30.67 3603.63,-23.53"/>
<polygon fill="#63b8ff" stroke="#63b8ff" points="3605.27,-26.62 3612.72,-19.08 3602.2,-20.33 3605.27,-26.62"/>
</a>
</g>
</g>
<!-- Node58 -->
<g id="Node000058" class="node">
<title>Node58</title>
<g id="a_Node000058"><a xlink:href="TextException_8h.html" target="_top" xlink:title=" ">
<polygon fill="#fff0f0" stroke="red" points="3521.5,-74 3401.5,-74 3401.5,-55 3521.5,-55 3521.5,-74"/>
<text text-anchor="middle" x="3461.5" y="-62" font-family="Helvetica,sans-Serif" font-size="10.00">base/TextException.h</text>
</a>
</g>
</g>
<!-- Node56&#45;&gt;Node58 -->
<g id="edge43_Node000056_Node000058" class="edge">
<title>Node56&#45;&gt;Node58</title>
<g id="a_edge43_Node000056_Node000058"><a xlink:title=" ">
<path fill="none" stroke="#63b8ff" d="M3559.7,-109.98C3540.88,-101.46 3511.68,-88.23 3490,-78.41"/>
<polygon fill="#63b8ff" stroke="#63b8ff" points="3491.19,-75.11 3480.64,-74.17 3488.3,-81.48 3491.19,-75.11"/>
</a>
</g>
</g>
<!-- Node61 -->
<g id="Node000061" class="node">
<title>Node61</title>
<g id="a_Node000061"><a xlink:href="globals_8h.html" target="_top" xlink:title=" ">
<polygon fill="#fff0f0" stroke="red" points="3639,-74 3578,-74 3578,-55 3639,-55 3639,-74"/>
<text text-anchor="middle" x="3608.5" y="-62" font-family="Helvetica,sans-Serif" font-size="10.00">globals.h</text>
</a>
</g>
</g>
<!-- Node56&#45;&gt;Node61 -->
<g id="edge46_Node000056_Node000061" class="edge">
<title>Node56&#45;&gt;Node61</title>
<g id="a_edge46_Node000056_Node000061"><a xlink:title=" ">
<path fill="none" stroke="#63b8ff" d="M3583.45,-109.75C3587.56,-102.49 3593.53,-91.95 3598.6,-82.98"/>
<polygon fill="#63b8ff" stroke="#63b8ff" points="3601.76,-84.52 3603.64,-74.09 3595.67,-81.07 3601.76,-84.52"/>
</a>
</g>
</g>
<!-- Node72 -->
<g id="Node000072" class="node">
<title>Node72</title>
<g id="a_Node000072"><a xlink:href="sbuf_2forward_8h.html" target="_top" xlink:title=" ">
<polygon fill="#fff0f0" stroke="red" points="3859,-74 3772,-74 3772,-55 3859,-55 3859,-74"/>
<text text-anchor="middle" x="3815.5" y="-62" font-family="Helvetica,sans-Serif" font-size="10.00">sbuf/forward.h</text>
</a>
</g>
</g>
<!-- Node56&#45;&gt;Node72 -->
<g id="edge47_Node000056_Node000072" class="edge">
<title>Node56&#45;&gt;Node72</title>
<g id="a_edge47_Node000056_Node000072"><a xlink:title=" ">
<path fill="none" stroke="#63b8ff" d="M3614.24,-110.51C3654.99,-101.39 3721.83,-86.45 3767.2,-76.3"/>
<polygon fill="#63b8ff" stroke="#63b8ff" points="3768.11,-79.68 3777.11,-74.09 3766.59,-72.85 3768.11,-79.68"/>
</a>
</g>
</g>
<!-- Node79 -->
<g id="Node000079" class="node">
<title>Node79</title>
<g id="a_Node000079"><a xlink:href="MemBlob_8h.html" target="_top" xlink:title=" ">
<polygon fill="#fff0f0" stroke="red" points="3753.5,-74 3657.5,-74 3657.5,-55 3753.5,-55 3753.5,-74"/>
<text text-anchor="middle" x="3705.5" y="-62" font-family="Helvetica,sans-Serif" font-size="10.00">sbuf/MemBlob.h</text>
</a>
</g>
</g>
<!-- Node56&#45;&gt;Node79 -->
<g id="edge49_Node000056_Node000079" class="edge">
<title>Node56&#45;&gt;Node79</title>
<g id="a_edge49_Node000056_Node000079"><a xlink:title=" ">
<path fill="none" stroke="#63b8ff" d="M3598.9,-109.98C3619.52,-101.38 3651.61,-87.99 3675.19,-78.15"/>
<polygon fill="#63b8ff" stroke="#63b8ff" points="3676.84,-81.25 3684.72,-74.17 3674.15,-74.79 3676.84,-81.25"/>
</a>
</g>
</g>
<!-- Node58&#45;&gt;Node47 -->
<g id="edge44_Node000058_Node000047" class="edge">
<title>Node58&#45;&gt;Node47</title>
<g id="a_edge44_Node000058_Node000047"><a xlink:title=" ">
<path fill="none" stroke="#63b8ff" d="M3467.11,-54.75C3471.82,-47.42 3478.67,-36.73 3484.47,-27.7"/>
<polygon fill="#63b8ff" stroke="#63b8ff" points="3487.54,-29.4 3489.99,-19.09 3481.64,-25.62 3487.54,-29.4"/>
</a>
</g>
</g>
<!-- Node74 -->
<g id="Node000074" class="node">
<title>Node74</title>
<g id="a_Node000074"><a xlink:title=" ">
<polygon fill="#e0e0e0" stroke="#999999" points="3867.5,-19 3835.5,-19 3835.5,0 3867.5,0 3867.5,-19"/>
<text text-anchor="middle" x="3851.5" y="-7" font-family="Helvetica,sans-Serif" font-size="10.00">list</text>
</a>
</g>
</g>
<!-- Node72&#45;&gt;Node74 -->
<g id="edge48_Node000072_Node000074" class="edge">
<title>Node72&#45;&gt;Node74</title>
<g id="a_edge48_Node000072_Node000074"><a xlink:title=" ">
<path fill="none" stroke="#63b8ff" d="M3821.44,-54.75C3826.48,-47.34 3833.84,-36.5 3840.01,-27.41"/>
<polygon fill="#63b8ff" stroke="#63b8ff" points="3842.94,-29.33 3845.67,-19.09 3837.15,-25.39 3842.94,-29.33"/>
</a>
</g>
</g>
<!-- Node79&#45;&gt;Node57 -->
<g id="edge50_Node000079_Node000057" class="edge">
<title>Node79&#45;&gt;Node57</title>
<g id="a_edge50_Node000079_Node000057"><a xlink:title=" ">
<path fill="none" stroke="#63b8ff" d="M3694.41,-54.98C3684.01,-47 3668.24,-34.88 3655.78,-25.31"/>
<polygon fill="#63b8ff" stroke="#63b8ff" points="3657.85,-22.49 3647.79,-19.17 3653.59,-28.04 3657.85,-22.49"/>
</a>
</g>
</g>
<!-- Node84&#45;&gt;Node72 -->
<g id="edge52_Node000084_Node000072" class="edge">
<title>Node84&#45;&gt;Node72</title>
<g id="a_edge52_Node000084_Node000072"><a xlink:title=" ">
<path fill="none" stroke="#63b8ff" d="M3684.2,-164.66C3708.73,-146.14 3765.75,-103.08 3795.94,-80.28"/>
<polygon fill="#63b8ff" stroke="#63b8ff" points="3798.17,-82.98 3804.04,-74.16 3793.95,-77.39 3798.17,-82.98"/>
</a>
</g>
</g>
<!-- Node85&#45;&gt;Node56 -->
<g id="edge54_Node000085_Node000056" class="edge">
<title>Node85&#45;&gt;Node56</title>
<g id="a_edge54_Node000085_Node000056"><a xlink:title=" ">
<path fill="none" stroke="#63b8ff" d="M3747.21,-164.98C3712.88,-155.93 3658.44,-141.58 3620.73,-131.64"/>
<polygon fill="#63b8ff" stroke="#63b8ff" points="3621.61,-128.25 3611.05,-129.08 3619.82,-135.02 3621.61,-128.25"/>
</a>
</g>
</g>
<!-- Node85&#45;&gt;Node74 -->
<g id="edge55_Node000085_Node000074" class="edge">
<title>Node85&#45;&gt;Node74</title>
<g id="a_edge55_Node000085_Node000074"><a xlink:title=" ">
<path fill="none" stroke="#63b8ff" d="M3791.71,-164.78C3812.24,-149.28 3852.95,-114.7 3868.5,-74 3874.28,-58.88 3868.43,-41.02 3862.07,-28.1"/>
<polygon fill="#63b8ff" stroke="#63b8ff" points="3865.14,-26.42 3857.29,-19.31 3858.99,-29.76 3865.14,-26.42"/>
</a>
</g>
</g>
</g>
</svg>

<g id="navigator" transform="translate(0 0)" fill="#404254">
  <rect fill="#f2f5e9" fill-opacity="0.5" stroke="#606060" stroke-width=".5" x="0" y="0" width="60" height="60"/>
  <use id="zoomplus" xlink:href="#zoomPlus" x="17" y="9" onmousedown="handleZoom(evt,'in')"/>
  <use id="zoomminus" xlink:href="#zoomMin" x="42" y="9" onmousedown="handleZoom(evt,'out')"/>
  <use id="reset" xlink:href="#resetDef" x="30" y="36" onmousedown="handleReset()"/>
   <use id="arrowup" xlink:href="#arrowUp" x="0" y="0" onmousedown="handlePan(0,-1)"/>
  <use id="arrowright" xlink:href="#arrowRight" x="0" y="0" onmousedown="handlePan(1,0)"/>
  <use id="arrowdown" xlink:href="#arrowDown" x="0" y="0" onmousedown="handlePan(0,1)"/>
  <use id="arrowleft" xlink:href="#arrowLeft" x="0" y="0" onmousedown="handlePan(-1,0)"/>
</g>
<svg viewBox="0 0 15 15" width="100%" height="30px" preserveAspectRatio="xMaxYMin meet">
 <g id="arrow_out" transform="scale(0.3 0.3)">
  <a xlink:href="LoadableModules_8cc__incl_org.svg" target="_base">
   <rect id="button" ry="5" rx="5" y="6" x="6" height="38" width="38"
        fill="#f2f5e9" fill-opacity="0.5" stroke="#606060" stroke-width="1.0"/>
   <path id="arrow"
     d="M 11.500037,31.436501 C 11.940474,20.09759 22.043105,11.32322 32.158766,21.979434 L 37.068811,17.246167 C 37.068811,17.246167 37.088388,32 37.088388,32 L 22.160133,31.978069 C 22.160133,31.978069 26.997745,27.140456 26.997745,27.140456 C 18.528582,18.264221 13.291696,25.230495 11.500037,31.436501 z"
     style="fill:#404040;"/>
  </a>
 </g>
</svg>

<style type='text/css'>
<![CDATA[
[data-mouse-over-selected='false'] { opacity: 0.7; }
[data-mouse-over-selected='true']  { opacity: 1.0; }
]]>
</style>
<script type="application/ecmascript"><![CDATA[
document.addEventListener('DOMContentLoaded', (event) => {
  highlightEdges();
  highlightAdjacentNodes();
});
]]></script>
</svg>
