<?xml version="1.0" encoding="UTF-8" standalone="no"?>
<!DOCTYPE svg PUBLIC "-//W3C//DTD SVG 1.1//EN"
 "http://www.w3.org/Graphics/SVG/1.1/DTD/svg11.dtd">
<!-- Generated by graphviz version 2.43.0 (0)
 -->
<!-- Title: squid/src/LoadableModule.cc Pages: 1 -->
<svg width="3897pt" height="357pt"
 viewBox="0.00 0.00 3897.00 357.00" xmlns="http://www.w3.org/2000/svg" xmlns:xlink="http://www.w3.org/1999/xlink">
<g id="graph0" class="graph" transform="scale(1 1) rotate(0) translate(4 353)">
<title>squid/src/LoadableModule.cc</title>
<!-- Node1 -->
<g id="Node000001" class="node">
<title>Node1</title>
<g id="a_Node000001"><a xlink:title=" ">
<polygon fill="#999999" stroke="#666666" points="3348.5,-349 3191.5,-349 3191.5,-330 3348.5,-330 3348.5,-349"/>
<text text-anchor="middle" x="3270" y="-337" font-family="Helvetica,sans-Serif" font-size="10.00">squid/src/LoadableModule.cc</text>
</a>
</g>
</g>
<!-- Node2 -->
<g id="Node000002" class="node">
<title>Node2</title>
<g id="a_Node000002"><a xlink:href="squid_8h.html" target="_top" xlink:title=" ">
<polygon fill="white" stroke="#666666" points="2500,-294 2448,-294 2448,-275 2500,-275 2500,-294"/>
<text text-anchor="middle" x="2474" y="-282" font-family="Helvetica,sans-Serif" font-size="10.00">squid.h</text>
</a>
</g>
</g>
<!-- Node1&#45;&gt;Node2 -->
<g id="edge1_Node000001_Node000002" class="edge">
<title>Node1&#45;&gt;Node2</title>
<g id="a_edge1_Node000001_Node000002"><a xlink:title=" ">
<path fill="none" stroke="#63b8ff" d="M3191.5,-333.27C3022.83,-322.04 2631.36,-295.98 2510.32,-287.92"/>
<polygon fill="#63b8ff" stroke="#63b8ff" points="2510.32,-284.41 2500.11,-287.24 2509.86,-291.4 2510.32,-284.41"/>
</a>
</g>
</g>
<!-- Node44 -->
<g id="Node000044" class="node">
<title>Node44</title>
<g id="a_Node000044"><a xlink:href="TextException_8h.html" target="_top" xlink:title=" ">
<polygon fill="white" stroke="#666666" points="3298,-184 3178,-184 3178,-165 3298,-165 3298,-184"/>
<text text-anchor="middle" x="3238" y="-172" font-family="Helvetica,sans-Serif" font-size="10.00">base/TextException.h</text>
</a>
</g>
</g>
<!-- Node1&#45;&gt;Node44 -->
<g id="edge34_Node000001_Node000044" class="edge">
<title>Node1&#45;&gt;Node44</title>
<g id="a_edge34_Node000001_Node000044"><a xlink:title=" ">
<path fill="none" stroke="#63b8ff" d="M3267.08,-329.72C3264.2,-320.8 3259.83,-306.56 3257,-294 3249.13,-259.06 3243.26,-217.62 3240.26,-194.16"/>
<polygon fill="#63b8ff" stroke="#63b8ff" points="3243.72,-193.69 3239.01,-184.19 3236.78,-194.55 3243.72,-193.69"/>
</a>
</g>
</g>
<!-- Node49 -->
<g id="Node000049" class="node">
<title>Node49</title>
<g id="a_Node000049"><a xlink:title=" ">
<polygon fill="#e0e0e0" stroke="#999999" points="3338,-294 3266,-294 3266,-275 3338,-275 3338,-294"/>
<text text-anchor="middle" x="3302" y="-282" font-family="Helvetica,sans-Serif" font-size="10.00">libltdl/ltdl.h</text>
</a>
</g>
</g>
<!-- Node1&#45;&gt;Node49 -->
<g id="edge40_Node000001_Node000049" class="edge">
<title>Node1&#45;&gt;Node49</title>
<g id="a_edge40_Node000001_Node000049"><a xlink:title=" ">
<path fill="none" stroke="#63b8ff" d="M3275.28,-329.75C3279.71,-322.42 3286.16,-311.73 3291.62,-302.7"/>
<polygon fill="#63b8ff" stroke="#63b8ff" points="3294.64,-304.46 3296.81,-294.09 3288.65,-300.84 3294.64,-304.46"/>
</a>
</g>
</g>
<!-- Node50 -->
<g id="Node000050" class="node">
<title>Node50</title>
<g id="a_Node000050"><a xlink:href="LoadableModule_8h.html" target="_top" xlink:title=" ">
<polygon fill="white" stroke="#666666" points="3513,-294 3407,-294 3407,-275 3513,-275 3513,-294"/>
<text text-anchor="middle" x="3460" y="-282" font-family="Helvetica,sans-Serif" font-size="10.00">LoadableModule.h</text>
</a>
</g>
</g>
<!-- Node1&#45;&gt;Node50 -->
<g id="edge41_Node000001_Node000050" class="edge">
<title>Node1&#45;&gt;Node50</title>
<g id="a_edge41_Node000001_Node000050"><a xlink:title=" ">
<path fill="none" stroke="#63b8ff" d="M3300.53,-329.98C3332.7,-321.01 3383.56,-306.82 3419.17,-296.89"/>
<polygon fill="#63b8ff" stroke="#63b8ff" points="3420.54,-300.14 3429.23,-294.08 3418.66,-293.4 3420.54,-300.14"/>
</a>
</g>
</g>
<!-- Node3 -->
<g id="Node000003" class="node">
<title>Node3</title>
<g id="a_Node000003"><a xlink:href="autoconf_8h.html" target="_top" xlink:title=" ">
<polygon fill="white" stroke="#666666" points="2466,-239 2398,-239 2398,-220 2466,-220 2466,-239"/>
<text text-anchor="middle" x="2432" y="-227" font-family="Helvetica,sans-Serif" font-size="10.00">autoconf.h</text>
</a>
</g>
</g>
<!-- Node2&#45;&gt;Node3 -->
<g id="edge2_Node000002_Node000003" class="edge">
<title>Node2&#45;&gt;Node3</title>
<g id="a_edge2_Node000002_Node000003"><a xlink:title=" ">
<path fill="none" stroke="#63b8ff" d="M2467.06,-274.75C2461.13,-267.26 2452.43,-256.28 2445.18,-247.13"/>
<polygon fill="#63b8ff" stroke="#63b8ff" points="2447.76,-244.75 2438.81,-239.09 2442.27,-249.1 2447.76,-244.75"/>
</a>
</g>
</g>
<!-- Node4 -->
<g id="Node000004" class="node">
<title>Node4</title>
<g id="a_Node000004"><a xlink:href="version_8h.html" target="_top" xlink:title=" ">
<polygon fill="white" stroke="#666666" points="2546,-239 2484,-239 2484,-220 2546,-220 2546,-239"/>
<text text-anchor="middle" x="2515" y="-227" font-family="Helvetica,sans-Serif" font-size="10.00">version.h</text>
</a>
</g>
</g>
<!-- Node2&#45;&gt;Node4 -->
<g id="edge3_Node000002_Node000004" class="edge">
<title>Node2&#45;&gt;Node4</title>
<g id="a_edge3_Node000002_Node000004"><a xlink:title=" ">
<path fill="none" stroke="#63b8ff" d="M2480.77,-274.75C2486.56,-267.26 2495.06,-256.28 2502.14,-247.13"/>
<polygon fill="#63b8ff" stroke="#63b8ff" points="2505.01,-249.14 2508.36,-239.09 2499.47,-244.86 2505.01,-249.14"/>
</a>
</g>
</g>
<!-- Node5 -->
<g id="Node000005" class="node">
<title>Node5</title>
<g id="a_Node000005"><a xlink:href="compat_8h.html" target="_top" xlink:title=" ">
<polygon fill="white" stroke="#666666" points="1716,-239 1614,-239 1614,-220 1716,-220 1716,-239"/>
<text text-anchor="middle" x="1665" y="-227" font-family="Helvetica,sans-Serif" font-size="10.00">compat/compat.h</text>
</a>
</g>
</g>
<!-- Node2&#45;&gt;Node5 -->
<g id="edge4_Node000002_Node000005" class="edge">
<title>Node2&#45;&gt;Node5</title>
<g id="a_edge4_Node000002_Node000005"><a xlink:title=" ">
<path fill="none" stroke="#63b8ff" d="M2448,-281.8C2335.72,-274.44 1890.76,-245.29 1726.42,-234.52"/>
<polygon fill="#63b8ff" stroke="#63b8ff" points="1726.21,-231 1716,-233.84 1725.75,-237.99 1726.21,-231"/>
</a>
</g>
</g>
<!-- Node6 -->
<g id="Node000006" class="node">
<title>Node6</title>
<g id="a_Node000006"><a xlink:href="osdetect_8h.html" target="_top" xlink:title=" ">
<polygon fill="white" stroke="#666666" points="2017.5,-184 1910.5,-184 1910.5,-165 2017.5,-165 2017.5,-184"/>
<text text-anchor="middle" x="1964" y="-172" font-family="Helvetica,sans-Serif" font-size="10.00">compat/osdetect.h</text>
</a>
</g>
</g>
<!-- Node5&#45;&gt;Node6 -->
<g id="edge5_Node000005_Node000006" class="edge">
<title>Node5&#45;&gt;Node6</title>
<g id="a_edge5_Node000005_Node000006"><a xlink:title=" ">
<path fill="none" stroke="#63b8ff" d="M1713.04,-219.98C1765.41,-210.7 1849.24,-195.84 1905.43,-185.88"/>
<polygon fill="#63b8ff" stroke="#63b8ff" points="1906.35,-189.27 1915.58,-184.08 1905.13,-182.38 1906.35,-189.27"/>
</a>
</g>
</g>
<!-- Node7 -->
<g id="Node000007" class="node">
<title>Node7</title>
<g id="a_Node000007"><a xlink:href="fdsetsize_8h.html" target="_top" xlink:title=" ">
<polygon fill="white" stroke="#666666" points="2146,-184 2036,-184 2036,-165 2146,-165 2146,-184"/>
<text text-anchor="middle" x="2091" y="-172" font-family="Helvetica,sans-Serif" font-size="10.00">compat/fdsetsize.h</text>
</a>
</g>
</g>
<!-- Node5&#45;&gt;Node7 -->
<g id="edge6_Node000005_Node000007" class="edge">
<title>Node5&#45;&gt;Node7</title>
<g id="a_edge6_Node000005_Node000007"><a xlink:title=" ">
<path fill="none" stroke="#63b8ff" d="M1716.13,-222.32C1784.11,-214.07 1908.3,-198.91 2025.46,-184.06"/>
<polygon fill="#63b8ff" stroke="#63b8ff" points="2026.21,-187.49 2035.69,-182.76 2025.32,-180.55 2026.21,-187.49"/>
</a>
</g>
</g>
<!-- Node8 -->
<g id="Node000008" class="node">
<title>Node8</title>
<g id="a_Node000008"><a xlink:href="types_8h.html" target="_top" xlink:title=" ">
<polygon fill="white" stroke="#666666" points="2256,-184 2164,-184 2164,-165 2256,-165 2256,-184"/>
<text text-anchor="middle" x="2210" y="-172" font-family="Helvetica,sans-Serif" font-size="10.00">compat/types.h</text>
</a>
</g>
</g>
<!-- Node5&#45;&gt;Node8 -->
<g id="edge7_Node000005_Node000008" class="edge">
<title>Node5&#45;&gt;Node8</title>
<g id="a_edge7_Node000005_Node000008"><a xlink:title=" ">
<path fill="none" stroke="#63b8ff" d="M1716.26,-224.91C1803.73,-218.55 1987.65,-204.17 2153.43,-184.12"/>
<polygon fill="#63b8ff" stroke="#63b8ff" points="2154.31,-187.54 2163.82,-182.85 2153.47,-180.59 2154.31,-187.54"/>
</a>
</g>
</g>
<!-- Node10 -->
<g id="Node000010" class="node">
<title>Node10</title>
<g id="a_Node000010"><a xlink:href="aix_8h.html" target="_top" xlink:title=" ">
<polygon fill="white" stroke="#666666" points="2369.5,-184 2274.5,-184 2274.5,-165 2369.5,-165 2369.5,-184"/>
<text text-anchor="middle" x="2322" y="-172" font-family="Helvetica,sans-Serif" font-size="10.00">compat/os/aix.h</text>
</a>
</g>
</g>
<!-- Node5&#45;&gt;Node10 -->
<g id="edge9_Node000005_Node000010" class="edge">
<title>Node5&#45;&gt;Node10</title>
<g id="a_edge9_Node000005_Node000010"><a xlink:title=" ">
<path fill="none" stroke="#63b8ff" d="M1716.09,-225.99C1818.16,-220.69 2054.77,-207.03 2264.48,-183.97"/>
<polygon fill="#63b8ff" stroke="#63b8ff" points="2264.9,-187.44 2274.45,-182.86 2264.12,-180.48 2264.9,-187.44"/>
</a>
</g>
</g>
<!-- Node11 -->
<g id="Node000011" class="node">
<title>Node11</title>
<g id="a_Node000011"><a xlink:href="android_8h.html" target="_top" xlink:title=" ">
<polygon fill="white" stroke="#666666" points="2504,-184 2388,-184 2388,-165 2504,-165 2504,-184"/>
<text text-anchor="middle" x="2446" y="-172" font-family="Helvetica,sans-Serif" font-size="10.00">compat/os/android.h</text>
</a>
</g>
</g>
<!-- Node5&#45;&gt;Node11 -->
<g id="edge10_Node000005_Node000011" class="edge">
<title>Node5&#45;&gt;Node11</title>
<g id="a_edge10_Node000005_Node000011"><a xlink:title=" ">
<path fill="none" stroke="#63b8ff" d="M1716.17,-226.44C1831.99,-221.52 2123.27,-207.8 2377.74,-184.06"/>
<polygon fill="#63b8ff" stroke="#63b8ff" points="2378.29,-187.52 2387.92,-183.1 2377.64,-180.55 2378.29,-187.52"/>
</a>
</g>
</g>
<!-- Node12 -->
<g id="Node000012" class="node">
<title>Node12</title>
<g id="a_Node000012"><a xlink:href="dragonfly_8h.html" target="_top" xlink:title=" ">
<polygon fill="white" stroke="#666666" points="2646,-184 2522,-184 2522,-165 2646,-165 2646,-184"/>
<text text-anchor="middle" x="2584" y="-172" font-family="Helvetica,sans-Serif" font-size="10.00">compat/os/dragonfly.h</text>
</a>
</g>
</g>
<!-- Node5&#45;&gt;Node12 -->
<g id="edge11_Node000005_Node000012" class="edge">
<title>Node5&#45;&gt;Node12</title>
<g id="a_edge11_Node000005_Node000012"><a xlink:title=" ">
<path fill="none" stroke="#63b8ff" d="M1716.22,-227C1846.94,-222.93 2203.75,-210.2 2511.67,-184.06"/>
<polygon fill="#63b8ff" stroke="#63b8ff" points="2512.02,-187.54 2521.69,-183.2 2511.42,-180.56 2512.02,-187.54"/>
</a>
</g>
</g>
<!-- Node13 -->
<g id="Node000013" class="node">
<title>Node13</title>
<g id="a_Node000013"><a xlink:href="freebsd_8h.html" target="_top" xlink:title=" ">
<polygon fill="white" stroke="#666666" points="2780,-184 2664,-184 2664,-165 2780,-165 2780,-184"/>
<text text-anchor="middle" x="2722" y="-172" font-family="Helvetica,sans-Serif" font-size="10.00">compat/os/freebsd.h</text>
</a>
</g>
</g>
<!-- Node5&#45;&gt;Node13 -->
<g id="edge12_Node000005_Node000013" class="edge">
<title>Node5&#45;&gt;Node13</title>
<g id="a_edge12_Node000005_Node000013"><a xlink:title=" ">
<path fill="none" stroke="#63b8ff" d="M1716.1,-227.67C1861.24,-224.99 2288.49,-214.95 2653.95,-184.01"/>
<polygon fill="#63b8ff" stroke="#63b8ff" points="2654.26,-187.5 2663.93,-183.16 2653.66,-180.52 2654.26,-187.5"/>
</a>
</g>
</g>
<!-- Node14 -->
<g id="Node000014" class="node">
<title>Node14</title>
<g id="a_Node000014"><a xlink:href="hpux_8h.html" target="_top" xlink:title=" ">
<polygon fill="white" stroke="#666666" points="2902,-184 2798,-184 2798,-165 2902,-165 2902,-184"/>
<text text-anchor="middle" x="2850" y="-172" font-family="Helvetica,sans-Serif" font-size="10.00">compat/os/hpux.h</text>
</a>
</g>
</g>
<!-- Node5&#45;&gt;Node14 -->
<g id="edge13_Node000005_Node000014" class="edge">
<title>Node5&#45;&gt;Node14</title>
<g id="a_edge13_Node000005_Node000014"><a xlink:title=" ">
<path fill="none" stroke="#63b8ff" d="M1716.09,-228.27C1873.95,-227.19 2368.09,-220.95 2787.59,-184.03"/>
<polygon fill="#63b8ff" stroke="#63b8ff" points="2788.14,-187.49 2797.8,-183.12 2787.53,-180.52 2788.14,-187.49"/>
</a>
</g>
</g>
<!-- Node15 -->
<g id="Node000015" class="node">
<title>Node15</title>
<g id="a_Node000015"><a xlink:href="linux_8h.html" target="_top" xlink:title=" ">
<polygon fill="white" stroke="#666666" points="3024,-184 2920,-184 2920,-165 3024,-165 3024,-184"/>
<text text-anchor="middle" x="2972" y="-172" font-family="Helvetica,sans-Serif" font-size="10.00">compat/os/linux.h</text>
</a>
</g>
</g>
<!-- Node5&#45;&gt;Node15 -->
<g id="edge14_Node000005_Node000015" class="edge">
<title>Node5&#45;&gt;Node15</title>
<g id="a_edge14_Node000005_Node000015"><a xlink:title=" ">
<path fill="none" stroke="#63b8ff" d="M1716.15,-228.55C1885.06,-228.33 2440.52,-224.43 2909.77,-184"/>
<polygon fill="#63b8ff" stroke="#63b8ff" points="2910.14,-187.49 2919.8,-183.13 2909.53,-180.51 2910.14,-187.49"/>
</a>
</g>
</g>
<!-- Node16 -->
<g id="Node000016" class="node">
<title>Node16</title>
<g id="a_Node000016"><a xlink:href="macosx_8h.html" target="_top" xlink:title=" ">
<polygon fill="white" stroke="#666666" points="3160,-184 3042,-184 3042,-165 3160,-165 3160,-184"/>
<text text-anchor="middle" x="3101" y="-172" font-family="Helvetica,sans-Serif" font-size="10.00">compat/os/macosx.h</text>
</a>
</g>
</g>
<!-- Node5&#45;&gt;Node16 -->
<g id="edge15_Node000005_Node000016" class="edge">
<title>Node5&#45;&gt;Node16</title>
<g id="a_edge15_Node000005_Node000016"><a xlink:title=" ">
<path fill="none" stroke="#63b8ff" d="M1716.02,-228.53C1895.13,-228.27 2511.92,-224.36 3031.37,-184.05"/>
<polygon fill="#63b8ff" stroke="#63b8ff" points="3032,-187.51 3041.69,-183.24 3031.45,-180.53 3032,-187.51"/>
</a>
</g>
</g>
<!-- Node17 -->
<g id="Node000017" class="node">
<title>Node17</title>
<g id="a_Node000017"><a xlink:href="mingw_8h.html" target="_top" xlink:title=" ">
<polygon fill="white" stroke="#666666" points="112,-184 0,-184 0,-165 112,-165 112,-184"/>
<text text-anchor="middle" x="56" y="-172" font-family="Helvetica,sans-Serif" font-size="10.00">compat/os/mingw.h</text>
</a>
</g>
</g>
<!-- Node5&#45;&gt;Node17 -->
<g id="edge16_Node000005_Node000017" class="edge">
<title>Node5&#45;&gt;Node17</title>
<g id="a_edge16_Node000005_Node000017"><a xlink:title=" ">
<path fill="none" stroke="#63b8ff" d="M1613.92,-228.9C1420.45,-230.03 714.09,-230.56 122.35,-184.01"/>
<polygon fill="#63b8ff" stroke="#63b8ff" points="122.58,-180.52 112.33,-183.22 122.03,-187.5 122.58,-180.52"/>
</a>
</g>
</g>
<!-- Node18 -->
<g id="Node000018" class="node">
<title>Node18</title>
<g id="a_Node000018"><a xlink:href="mswindows_8h.html" target="_top" xlink:title=" ">
<polygon fill="white" stroke="#666666" points="267.5,-184 130.5,-184 130.5,-165 267.5,-165 267.5,-184"/>
<text text-anchor="middle" x="199" y="-172" font-family="Helvetica,sans-Serif" font-size="10.00">compat/os/mswindows.h</text>
</a>
</g>
</g>
<!-- Node5&#45;&gt;Node18 -->
<g id="edge17_Node000005_Node000018" class="edge">
<title>Node5&#45;&gt;Node18</title>
<g id="a_edge17_Node000005_Node000018"><a xlink:title=" ">
<path fill="none" stroke="#63b8ff" d="M1613.84,-228.3C1432.84,-227.28 805.67,-221.17 277.92,-184.08"/>
<polygon fill="#63b8ff" stroke="#63b8ff" points="278.04,-180.58 267.82,-183.37 277.55,-187.56 278.04,-180.58"/>
</a>
</g>
</g>
<!-- Node19 -->
<g id="Node000019" class="node">
<title>Node19</title>
<g id="a_Node000019"><a xlink:href="netbsd_8h.html" target="_top" xlink:title=" ">
<polygon fill="white" stroke="#666666" points="398.5,-184 285.5,-184 285.5,-165 398.5,-165 398.5,-184"/>
<text text-anchor="middle" x="342" y="-172" font-family="Helvetica,sans-Serif" font-size="10.00">compat/os/netbsd.h</text>
</a>
</g>
</g>
<!-- Node5&#45;&gt;Node19 -->
<g id="edge18_Node000005_Node000019" class="edge">
<title>Node5&#45;&gt;Node19</title>
<g id="a_edge18_Node000005_Node000019"><a xlink:title=" ">
<path fill="none" stroke="#63b8ff" d="M1613.97,-228.43C1444.19,-227.81 882.74,-222.84 408.81,-184.07"/>
<polygon fill="#63b8ff" stroke="#63b8ff" points="408.94,-180.57 398.69,-183.23 408.37,-187.54 408.94,-180.57"/>
</a>
</g>
</g>
<!-- Node20 -->
<g id="Node000020" class="node">
<title>Node20</title>
<g id="a_Node000020"><a xlink:href="openbsd_8h.html" target="_top" xlink:title=" ">
<polygon fill="white" stroke="#666666" points="537.5,-184 416.5,-184 416.5,-165 537.5,-165 537.5,-184"/>
<text text-anchor="middle" x="477" y="-172" font-family="Helvetica,sans-Serif" font-size="10.00">compat/os/openbsd.h</text>
</a>
</g>
</g>
<!-- Node5&#45;&gt;Node20 -->
<g id="edge19_Node000005_Node000020" class="edge">
<title>Node5&#45;&gt;Node20</title>
<g id="a_edge19_Node000005_Node000020"><a xlink:title=" ">
<path fill="none" stroke="#63b8ff" d="M1613.88,-227.97C1456.49,-226.03 965.07,-217.57 547.71,-184.07"/>
<polygon fill="#63b8ff" stroke="#63b8ff" points="547.8,-180.56 537.55,-183.25 547.24,-187.54 547.8,-180.56"/>
</a>
</g>
</g>
<!-- Node21 -->
<g id="Node000021" class="node">
<title>Node21</title>
<g id="a_Node000021"><a xlink:href="os2_8h.html" target="_top" xlink:title=" ">
<polygon fill="white" stroke="#666666" points="652.5,-184 555.5,-184 555.5,-165 652.5,-165 652.5,-184"/>
<text text-anchor="middle" x="604" y="-172" font-family="Helvetica,sans-Serif" font-size="10.00">compat/os/os2.h</text>
</a>
</g>
</g>
<!-- Node5&#45;&gt;Node21 -->
<g id="edge20_Node000005_Node000021" class="edge">
<title>Node5&#45;&gt;Node21</title>
<g id="a_edge20_Node000005_Node000021"><a xlink:title=" ">
<path fill="none" stroke="#63b8ff" d="M1613.99,-228.06C1467.64,-226.4 1033.67,-218.77 662.82,-183.96"/>
<polygon fill="#63b8ff" stroke="#63b8ff" points="662.98,-180.46 652.69,-183 662.32,-187.43 662.98,-180.46"/>
</a>
</g>
</g>
<!-- Node22 -->
<g id="Node000022" class="node">
<title>Node22</title>
<g id="a_Node000022"><a xlink:href="qnx_8h.html" target="_top" xlink:title=" ">
<polygon fill="white" stroke="#666666" points="769,-184 671,-184 671,-165 769,-165 769,-184"/>
<text text-anchor="middle" x="720" y="-172" font-family="Helvetica,sans-Serif" font-size="10.00">compat/os/qnx.h</text>
</a>
</g>
</g>
<!-- Node5&#45;&gt;Node22 -->
<g id="edge21_Node000005_Node000022" class="edge">
<title>Node5&#45;&gt;Node22</title>
<g id="a_edge21_Node000005_Node000022"><a xlink:title=" ">
<path fill="none" stroke="#63b8ff" d="M1613.88,-227.64C1479.08,-225.01 1102.7,-215.3 779.05,-184"/>
<polygon fill="#63b8ff" stroke="#63b8ff" points="779.3,-180.51 769.01,-183.02 778.62,-187.47 779.3,-180.51"/>
</a>
</g>
</g>
<!-- Node23 -->
<g id="Node000023" class="node">
<title>Node23</title>
<g id="a_Node000023"><a xlink:href="solaris_8h.html" target="_top" xlink:title=" ">
<polygon fill="white" stroke="#666666" points="899,-184 787,-184 787,-165 899,-165 899,-184"/>
<text text-anchor="middle" x="843" y="-172" font-family="Helvetica,sans-Serif" font-size="10.00">compat/os/solaris.h</text>
</a>
</g>
</g>
<!-- Node5&#45;&gt;Node23 -->
<g id="edge22_Node000005_Node000023" class="edge">
<title>Node5&#45;&gt;Node23</title>
<g id="a_edge22_Node000005_Node000023"><a xlink:title=" ">
<path fill="none" stroke="#63b8ff" d="M1613.96,-226.76C1493.29,-222.37 1180.83,-209.41 909.39,-184.06"/>
<polygon fill="#63b8ff" stroke="#63b8ff" points="909.63,-180.57 899.34,-183.12 908.97,-187.54 909.63,-180.57"/>
</a>
</g>
</g>
<!-- Node24 -->
<g id="Node000024" class="node">
<title>Node24</title>
<g id="a_Node000024"><a xlink:href="sunos_8h.html" target="_top" xlink:title=" ">
<polygon fill="white" stroke="#666666" points="1025,-184 917,-184 917,-165 1025,-165 1025,-184"/>
<text text-anchor="middle" x="971" y="-172" font-family="Helvetica,sans-Serif" font-size="10.00">compat/os/sunos.h</text>
</a>
</g>
</g>
<!-- Node5&#45;&gt;Node24 -->
<g id="edge23_Node000005_Node000024" class="edge">
<title>Node5&#45;&gt;Node24</title>
<g id="a_edge23_Node000005_Node000024"><a xlink:title=" ">
<path fill="none" stroke="#63b8ff" d="M1613.79,-226C1507.84,-220.58 1256.7,-206.49 1035.45,-184.08"/>
<polygon fill="#63b8ff" stroke="#63b8ff" points="1035.57,-180.58 1025.27,-183.05 1034.86,-187.54 1035.57,-180.58"/>
</a>
</g>
</g>
<!-- Node25 -->
<g id="Node000025" class="node">
<title>Node25</title>
<g id="a_Node000025"><a xlink:href="assert_8h.html" target="_top" xlink:title=" ">
<polygon fill="white" stroke="#666666" points="1138.5,-184 1043.5,-184 1043.5,-165 1138.5,-165 1138.5,-184"/>
<text text-anchor="middle" x="1091" y="-172" font-family="Helvetica,sans-Serif" font-size="10.00">compat/assert.h</text>
</a>
</g>
</g>
<!-- Node5&#45;&gt;Node25 -->
<g id="edge24_Node000005_Node000025" class="edge">
<title>Node5&#45;&gt;Node25</title>
<g id="a_edge24_Node000005_Node000025"><a xlink:title=" ">
<path fill="none" stroke="#63b8ff" d="M1613.89,-225.16C1522.7,-218.97 1325.71,-204.55 1148.58,-183.99"/>
<polygon fill="#63b8ff" stroke="#63b8ff" points="1148.9,-180.5 1138.56,-182.82 1148.08,-187.46 1148.9,-180.5"/>
</a>
</g>
</g>
<!-- Node26 -->
<g id="Node000026" class="node">
<title>Node26</title>
<g id="a_Node000026"><a xlink:href="compat__shared_8h.html" target="_top" xlink:title=" ">
<polygon fill="#fff0f0" stroke="red" points="1297,-184 1157,-184 1157,-165 1297,-165 1297,-184"/>
<text text-anchor="middle" x="1227" y="-172" font-family="Helvetica,sans-Serif" font-size="10.00">compat/compat_shared.h</text>
</a>
</g>
</g>
<!-- Node5&#45;&gt;Node26 -->
<g id="edge25_Node000005_Node000026" class="edge">
<title>Node5&#45;&gt;Node26</title>
<g id="a_edge25_Node000005_Node000026"><a xlink:title=" ">
<path fill="none" stroke="#63b8ff" d="M1613.9,-222.32C1538.5,-213.19 1396.74,-196.04 1307.34,-185.22"/>
<polygon fill="#63b8ff" stroke="#63b8ff" points="1307.6,-181.73 1297.25,-184 1306.76,-188.68 1307.6,-181.73"/>
</a>
</g>
</g>
<!-- Node36 -->
<g id="Node000036" class="node">
<title>Node36</title>
<g id="a_Node000036"><a xlink:href="stdvarargs_8h.html" target="_top" xlink:title=" ">
<polygon fill="#fff0f0" stroke="red" points="1432.5,-184 1315.5,-184 1315.5,-165 1432.5,-165 1432.5,-184"/>
<text text-anchor="middle" x="1374" y="-172" font-family="Helvetica,sans-Serif" font-size="10.00">compat/stdvarargs.h</text>
</a>
</g>
</g>
<!-- Node5&#45;&gt;Node36 -->
<g id="edge29_Node000005_Node000036" class="edge">
<title>Node5&#45;&gt;Node36</title>
<g id="a_edge29_Node000005_Node000036"><a xlink:title=" ">
<path fill="none" stroke="#63b8ff" d="M1618.25,-219.98C1567.28,-210.7 1485.69,-195.84 1431.01,-185.88"/>
<polygon fill="#63b8ff" stroke="#63b8ff" points="1431.59,-182.43 1421.12,-184.08 1430.33,-189.32 1431.59,-182.43"/>
</a>
</g>
</g>
<!-- Node38 -->
<g id="Node000038" class="node">
<title>Node38</title>
<g id="a_Node000038"><a xlink:href="stdio_8h.html" target="_top" xlink:title=" ">
<polygon fill="#fff0f0" stroke="red" points="1539.5,-184 1450.5,-184 1450.5,-165 1539.5,-165 1539.5,-184"/>
<text text-anchor="middle" x="1495" y="-172" font-family="Helvetica,sans-Serif" font-size="10.00">compat/stdio.h</text>
</a>
</g>
</g>
<!-- Node5&#45;&gt;Node38 -->
<g id="edge30_Node000005_Node000038" class="edge">
<title>Node5&#45;&gt;Node38</title>
<g id="a_edge30_Node000005_Node000038"><a xlink:title=" ">
<path fill="none" stroke="#63b8ff" d="M1637.69,-219.98C1609.15,-211.09 1564.17,-197.07 1532.36,-187.15"/>
<polygon fill="#63b8ff" stroke="#63b8ff" points="1533.12,-183.72 1522.53,-184.08 1531.03,-190.4 1533.12,-183.72"/>
</a>
</g>
</g>
<!-- Node40 -->
<g id="Node000040" class="node">
<title>Node40</title>
<g id="a_Node000040"><a xlink:href="statvfs_8h.html" target="_top" xlink:title=" ">
<polygon fill="white" stroke="#666666" points="1656.5,-184 1557.5,-184 1557.5,-165 1656.5,-165 1656.5,-184"/>
<text text-anchor="middle" x="1607" y="-172" font-family="Helvetica,sans-Serif" font-size="10.00">compat/statvfs.h</text>
</a>
</g>
</g>
<!-- Node5&#45;&gt;Node40 -->
<g id="edge31_Node000005_Node000040" class="edge">
<title>Node5&#45;&gt;Node40</title>
<g id="a_edge31_Node000005_Node000040"><a xlink:title=" ">
<path fill="none" stroke="#63b8ff" d="M1655.68,-219.98C1647.19,-212.23 1634.44,-200.58 1624.12,-191.14"/>
<polygon fill="#63b8ff" stroke="#63b8ff" points="1626.23,-188.33 1616.49,-184.17 1621.51,-193.5 1626.23,-188.33"/>
</a>
</g>
</g>
<!-- Node41 -->
<g id="Node000041" class="node">
<title>Node41</title>
<g id="a_Node000041"><a xlink:href="debug_8h.html" target="_top" xlink:title=" ">
<polygon fill="white" stroke="#666666" points="1769.5,-184 1674.5,-184 1674.5,-165 1769.5,-165 1769.5,-184"/>
<text text-anchor="middle" x="1722" y="-172" font-family="Helvetica,sans-Serif" font-size="10.00">compat/debug.h</text>
</a>
</g>
</g>
<!-- Node5&#45;&gt;Node41 -->
<g id="edge32_Node000005_Node000041" class="edge">
<title>Node5&#45;&gt;Node41</title>
<g id="a_edge32_Node000005_Node000041"><a xlink:title=" ">
<path fill="none" stroke="#63b8ff" d="M1674.16,-219.98C1682.5,-212.23 1695.03,-200.58 1705.18,-191.14"/>
<polygon fill="#63b8ff" stroke="#63b8ff" points="1707.74,-193.54 1712.68,-184.17 1702.97,-188.42 1707.74,-193.54"/>
</a>
</g>
</g>
<!-- Node42 -->
<g id="Node000042" class="node">
<title>Node42</title>
<g id="a_Node000042"><a xlink:href="valgrind_8h.html" target="_top" xlink:title=" ">
<polygon fill="#fff0f0" stroke="red" points="1892.5,-184 1787.5,-184 1787.5,-165 1892.5,-165 1892.5,-184"/>
<text text-anchor="middle" x="1840" y="-172" font-family="Helvetica,sans-Serif" font-size="10.00">compat/valgrind.h</text>
</a>
</g>
</g>
<!-- Node5&#45;&gt;Node42 -->
<g id="edge33_Node000005_Node000042" class="edge">
<title>Node5&#45;&gt;Node42</title>
<g id="a_edge33_Node000005_Node000042"><a xlink:title=" ">
<path fill="none" stroke="#63b8ff" d="M1693.12,-219.98C1722.62,-211.05 1769.19,-196.94 1801.97,-187.02"/>
<polygon fill="#63b8ff" stroke="#63b8ff" points="1803.11,-190.33 1811.66,-184.08 1801.08,-183.63 1803.11,-190.33"/>
</a>
</g>
</g>
<!-- Node9 -->
<g id="Node000009" class="node">
<title>Node9</title>
<g id="a_Node000009"><a xlink:title=" ">
<polygon fill="#e0e0e0" stroke="#999999" points="2235,-129 2185,-129 2185,-110 2235,-110 2235,-129"/>
<text text-anchor="middle" x="2210" y="-117" font-family="Helvetica,sans-Serif" font-size="10.00">cstdint</text>
</a>
</g>
</g>
<!-- Node8&#45;&gt;Node9 -->
<g id="edge8_Node000008_Node000009" class="edge">
<title>Node8&#45;&gt;Node9</title>
<g id="a_edge8_Node000008_Node000009"><a xlink:title=" ">
<path fill="none" stroke="#63b8ff" d="M2210,-164.75C2210,-157.8 2210,-147.85 2210,-139.13"/>
<polygon fill="#63b8ff" stroke="#63b8ff" points="2213.5,-139.09 2210,-129.09 2206.5,-139.09 2213.5,-139.09"/>
</a>
</g>
</g>
<!-- Node27 -->
<g id="Node000027" class="node">
<title>Node27</title>
<g id="a_Node000027"><a xlink:title=" ">
<polygon fill="#e0e0e0" stroke="#999999" points="1336.5,-129 1285.5,-129 1285.5,-110 1336.5,-110 1336.5,-129"/>
<text text-anchor="middle" x="1311" y="-117" font-family="Helvetica,sans-Serif" font-size="10.00">csignal</text>
</a>
</g>
</g>
<!-- Node26&#45;&gt;Node27 -->
<g id="edge26_Node000026_Node000027" class="edge">
<title>Node26&#45;&gt;Node27</title>
<g id="a_edge26_Node000026_Node000027"><a xlink:title=" ">
<path fill="none" stroke="#63b8ff" d="M1240.5,-164.98C1253.4,-156.84 1273.1,-144.41 1288.4,-134.76"/>
<polygon fill="#63b8ff" stroke="#63b8ff" points="1290.67,-137.47 1297.26,-129.17 1286.93,-131.55 1290.67,-137.47"/>
</a>
</g>
</g>
<!-- Node28 -->
<g id="Node000028" class="node">
<title>Node28</title>
<g id="a_Node000028"><a xlink:href="xalloc_8h.html" target="_top" xlink:title=" ">
<polygon fill="white" stroke="#666666" points="1168.5,-129 1073.5,-129 1073.5,-110 1168.5,-110 1168.5,-129"/>
<text text-anchor="middle" x="1121" y="-117" font-family="Helvetica,sans-Serif" font-size="10.00">compat/xalloc.h</text>
</a>
</g>
</g>
<!-- Node26&#45;&gt;Node28 -->
<g id="edge27_Node000026_Node000028" class="edge">
<title>Node26&#45;&gt;Node28</title>
<g id="a_edge27_Node000026_Node000028"><a xlink:title=" ">
<path fill="none" stroke="#63b8ff" d="M1209.97,-164.98C1193.07,-156.54 1166.94,-143.47 1147.36,-133.68"/>
<polygon fill="#63b8ff" stroke="#63b8ff" points="1148.85,-130.51 1138.34,-129.17 1145.72,-136.77 1148.85,-130.51"/>
</a>
</g>
</g>
<!-- Node29 -->
<g id="Node000029" class="node">
<title>Node29</title>
<g id="a_Node000029"><a xlink:href="xis_8h.html" target="_top" xlink:title=" ">
<polygon fill="#fff0f0" stroke="red" points="1267,-129 1187,-129 1187,-110 1267,-110 1267,-129"/>
<text text-anchor="middle" x="1227" y="-117" font-family="Helvetica,sans-Serif" font-size="10.00">compat/xis.h</text>
</a>
</g>
</g>
<!-- Node26&#45;&gt;Node29 -->
<g id="edge28_Node000026_Node000029" class="edge">
<title>Node26&#45;&gt;Node29</title>
<g id="a_edge28_Node000026_Node000029"><a xlink:title=" ">
<path fill="none" stroke="#63b8ff" d="M1227,-164.75C1227,-157.8 1227,-147.85 1227,-139.13"/>
<polygon fill="#63b8ff" stroke="#63b8ff" points="1230.5,-139.09 1227,-129.09 1223.5,-139.09 1230.5,-139.09"/>
</a>
</g>
</g>
<!-- Node45 -->
<g id="Node000045" class="node">
<title>Node45</title>
<g id="a_Node000045"><a xlink:href="Assure_8h.html" target="_top" xlink:title=" ">
<polygon fill="white" stroke="#666666" points="3257.5,-129 3172.5,-129 3172.5,-110 3257.5,-110 3257.5,-129"/>
<text text-anchor="middle" x="3215" y="-117" font-family="Helvetica,sans-Serif" font-size="10.00">base/Assure.h</text>
</a>
</g>
</g>
<!-- Node44&#45;&gt;Node45 -->
<g id="edge35_Node000044_Node000045" class="edge">
<title>Node44&#45;&gt;Node45</title>
<g id="a_edge35_Node000044_Node000045"><a xlink:title=" ">
<path fill="none" stroke="#63b8ff" d="M3234.2,-164.75C3231.09,-157.57 3226.58,-147.18 3222.71,-138.27"/>
<polygon fill="#63b8ff" stroke="#63b8ff" points="3225.92,-136.87 3218.73,-129.09 3219.5,-139.66 3225.92,-136.87"/>
</a>
</g>
</g>
<!-- Node46 -->
<g id="Node000046" class="node">
<title>Node46</title>
<g id="a_Node000046"><a xlink:href="Here_8h.html" target="_top" xlink:title=" ">
<polygon fill="white" stroke="#666666" points="3361.5,-74 3286.5,-74 3286.5,-55 3361.5,-55 3361.5,-74"/>
<text text-anchor="middle" x="3324" y="-62" font-family="Helvetica,sans-Serif" font-size="10.00">base/Here.h</text>
</a>
</g>
</g>
<!-- Node44&#45;&gt;Node46 -->
<g id="edge38_Node000044_Node000046" class="edge">
<title>Node44&#45;&gt;Node46</title>
<g id="a_edge38_Node000044_Node000046"><a xlink:title=" ">
<path fill="none" stroke="#63b8ff" d="M3245.04,-164.66C3259.41,-146.61 3292.33,-105.28 3310.8,-82.08"/>
<polygon fill="#63b8ff" stroke="#63b8ff" points="3313.61,-84.16 3317.11,-74.16 3308.14,-79.8 3313.61,-84.16"/>
</a>
</g>
</g>
<!-- Node48 -->
<g id="Node000048" class="node">
<title>Node48</title>
<g id="a_Node000048"><a xlink:title=" ">
<polygon fill="#e0e0e0" stroke="#999999" points="3154.5,-129 3089.5,-129 3089.5,-110 3154.5,-110 3154.5,-129"/>
<text text-anchor="middle" x="3122" y="-117" font-family="Helvetica,sans-Serif" font-size="10.00">stdexcept</text>
</a>
</g>
</g>
<!-- Node44&#45;&gt;Node48 -->
<g id="edge39_Node000044_Node000048" class="edge">
<title>Node44&#45;&gt;Node48</title>
<g id="a_edge39_Node000044_Node000048"><a xlink:title=" ">
<path fill="none" stroke="#63b8ff" d="M3219.36,-164.98C3200.7,-156.46 3171.75,-143.23 3150.26,-133.41"/>
<polygon fill="#63b8ff" stroke="#63b8ff" points="3151.53,-130.14 3140.98,-129.17 3148.62,-136.51 3151.53,-130.14"/>
</a>
</g>
</g>
<!-- Node45&#45;&gt;Node46 -->
<g id="edge36_Node000045_Node000046" class="edge">
<title>Node45&#45;&gt;Node46</title>
<g id="a_edge36_Node000045_Node000046"><a xlink:title=" ">
<path fill="none" stroke="#63b8ff" d="M3232.51,-109.98C3249.97,-101.5 3277.01,-88.35 3297.17,-78.54"/>
<polygon fill="#63b8ff" stroke="#63b8ff" points="3298.71,-81.69 3306.17,-74.17 3295.64,-75.4 3298.71,-81.69"/>
</a>
</g>
</g>
<!-- Node47 -->
<g id="Node000047" class="node">
<title>Node47</title>
<g id="a_Node000047"><a xlink:title=" ">
<polygon fill="#e0e0e0" stroke="#999999" points="3479,-19 3431,-19 3431,0 3479,0 3479,-19"/>
<text text-anchor="middle" x="3455" y="-7" font-family="Helvetica,sans-Serif" font-size="10.00">iosfwd</text>
</a>
</g>
</g>
<!-- Node46&#45;&gt;Node47 -->
<g id="edge37_Node000046_Node000047" class="edge">
<title>Node46&#45;&gt;Node47</title>
<g id="a_edge37_Node000046_Node000047"><a xlink:title=" ">
<path fill="none" stroke="#63b8ff" d="M3345.05,-54.98C3366.41,-46.34 3399.7,-32.87 3424.06,-23.02"/>
<polygon fill="#63b8ff" stroke="#63b8ff" points="3425.61,-26.17 3433.57,-19.17 3422.99,-19.68 3425.61,-26.17"/>
</a>
</g>
</g>
<!-- Node51 -->
<g id="Node000051" class="node">
<title>Node51</title>
<g id="a_Node000051"><a xlink:href="SBuf_8h.html" target="_top" xlink:title=" ">
<polygon fill="white" stroke="#666666" points="3547.5,-239 3476.5,-239 3476.5,-220 3547.5,-220 3547.5,-239"/>
<text text-anchor="middle" x="3512" y="-227" font-family="Helvetica,sans-Serif" font-size="10.00">sbuf/SBuf.h</text>
</a>
</g>
</g>
<!-- Node50&#45;&gt;Node51 -->
<g id="edge42_Node000050_Node000051" class="edge">
<title>Node50&#45;&gt;Node51</title>
<g id="a_edge42_Node000050_Node000051"><a xlink:title=" ">
<path fill="none" stroke="#63b8ff" d="M3468.59,-274.75C3476.16,-267.03 3487.38,-255.6 3496.51,-246.28"/>
<polygon fill="#63b8ff" stroke="#63b8ff" points="3499.07,-248.68 3503.57,-239.09 3494.07,-243.78 3499.07,-248.68"/>
</a>
</g>
</g>
<!-- Node51&#45;&gt;Node44 -->
<g id="edge45_Node000051_Node000044" class="edge">
<title>Node51&#45;&gt;Node44</title>
<g id="a_edge45_Node000051_Node000044"><a xlink:title=" ">
<path fill="none" stroke="#63b8ff" d="M3476.46,-221.63C3429.57,-212.56 3346.6,-196.51 3291.94,-185.93"/>
<polygon fill="#63b8ff" stroke="#63b8ff" points="3292.57,-182.49 3282.08,-184.03 3291.24,-189.36 3292.57,-182.49"/>
</a>
</g>
</g>
<!-- Node51&#45;&gt;Node47 -->
<g id="edge55_Node000051_Node000047" class="edge">
<title>Node51&#45;&gt;Node47</title>
<g id="a_edge55_Node000051_Node000047"><a xlink:title=" ">
<path fill="none" stroke="#63b8ff" d="M3493.65,-219.88C3480.21,-212.46 3462.98,-200.36 3455,-184 3429.95,-132.66 3442.01,-62.18 3449.95,-29.08"/>
<polygon fill="#63b8ff" stroke="#63b8ff" points="3453.43,-29.58 3452.52,-19.03 3446.65,-27.85 3453.43,-29.58"/>
</a>
</g>
</g>
<!-- Node52 -->
<g id="Node000052" class="node">
<title>Node52</title>
<g id="a_Node000052"><a xlink:href="InstanceId_8h.html" target="_top" xlink:title=" ">
<polygon fill="white" stroke="#666666" points="3566,-129 3464,-129 3464,-110 3566,-110 3566,-129"/>
<text text-anchor="middle" x="3515" y="-117" font-family="Helvetica,sans-Serif" font-size="10.00">base/InstanceId.h</text>
</a>
</g>
</g>
<!-- Node51&#45;&gt;Node52 -->
<g id="edge43_Node000051_Node000052" class="edge">
<title>Node51&#45;&gt;Node52</title>
<g id="a_edge43_Node000051_Node000052"><a xlink:title=" ">
<path fill="none" stroke="#63b8ff" d="M3547.74,-227.33C3608.57,-224.49 3728.16,-215.02 3754,-184 3759.4,-177.51 3759.4,-171.49 3754,-165 3731.83,-138.33 3639.62,-127.56 3576.44,-123.27"/>
<polygon fill="#63b8ff" stroke="#63b8ff" points="3576.38,-119.76 3566.18,-122.61 3575.93,-126.74 3576.38,-119.76"/>
</a>
</g>
</g>
<!-- Node53 -->
<g id="Node000053" class="node">
<title>Node53</title>
<g id="a_Node000053"><a xlink:href="debug_2Stream_8h.html" target="_top" xlink:title=" ">
<polygon fill="#fff0f0" stroke="red" points="3408,-129 3314,-129 3314,-110 3408,-110 3408,-129"/>
<text text-anchor="middle" x="3361" y="-117" font-family="Helvetica,sans-Serif" font-size="10.00">debug/Stream.h</text>
</a>
</g>
</g>
<!-- Node51&#45;&gt;Node53 -->
<g id="edge46_Node000051_Node000053" class="edge">
<title>Node51&#45;&gt;Node53</title>
<g id="a_edge46_Node000051_Node000053"><a xlink:title=" ">
<path fill="none" stroke="#63b8ff" d="M3489.34,-219.88C3470.36,-212.07 3443.09,-199.45 3422,-184 3403.59,-170.51 3385.91,-151.16 3374.36,-137.37"/>
<polygon fill="#63b8ff" stroke="#63b8ff" points="3376.75,-134.76 3367.72,-129.23 3371.33,-139.19 3376.75,-134.76"/>
</a>
</g>
</g>
<!-- Node58 -->
<g id="Node000058" class="node">
<title>Node58</title>
<g id="a_Node000058"><a xlink:href="globals_8h.html" target="_top" xlink:title=" ">
<polygon fill="#fff0f0" stroke="red" points="3639.5,-184 3578.5,-184 3578.5,-165 3639.5,-165 3639.5,-184"/>
<text text-anchor="middle" x="3609" y="-172" font-family="Helvetica,sans-Serif" font-size="10.00">globals.h</text>
</a>
</g>
</g>
<!-- Node51&#45;&gt;Node58 -->
<g id="edge48_Node000051_Node000058" class="edge">
<title>Node51&#45;&gt;Node58</title>
<g id="a_edge48_Node000051_Node000058"><a xlink:title=" ">
<path fill="none" stroke="#63b8ff" d="M3527.58,-219.98C3542.77,-211.69 3566.1,-198.94 3583.9,-189.22"/>
<polygon fill="#63b8ff" stroke="#63b8ff" points="3586.03,-192.04 3593.13,-184.17 3582.68,-185.89 3586.03,-192.04"/>
</a>
</g>
</g>
<!-- Node69 -->
<g id="Node000069" class="node">
<title>Node69</title>
<g id="a_Node000069"><a xlink:href="sbuf_2forward_8h.html" target="_top" xlink:title=" ">
<polygon fill="#fff0f0" stroke="red" points="3744.5,-184 3657.5,-184 3657.5,-165 3744.5,-165 3744.5,-184"/>
<text text-anchor="middle" x="3701" y="-172" font-family="Helvetica,sans-Serif" font-size="10.00">sbuf/forward.h</text>
</a>
</g>
</g>
<!-- Node51&#45;&gt;Node69 -->
<g id="edge49_Node000051_Node000069" class="edge">
<title>Node51&#45;&gt;Node69</title>
<g id="a_edge49_Node000051_Node000069"><a xlink:title=" ">
<path fill="none" stroke="#63b8ff" d="M3542.37,-219.98C3574.37,-211.01 3624.96,-196.82 3660.38,-186.89"/>
<polygon fill="#63b8ff" stroke="#63b8ff" points="3661.71,-190.15 3670.4,-184.08 3659.82,-183.41 3661.71,-190.15"/>
</a>
</g>
</g>
<!-- Node76 -->
<g id="Node000076" class="node">
<title>Node76</title>
<g id="a_Node000076"><a xlink:href="MemBlob_8h.html" target="_top" xlink:title=" ">
<polygon fill="#fff0f0" stroke="red" points="3560,-184 3464,-184 3464,-165 3560,-165 3560,-184"/>
<text text-anchor="middle" x="3512" y="-172" font-family="Helvetica,sans-Serif" font-size="10.00">sbuf/MemBlob.h</text>
</a>
</g>
</g>
<!-- Node51&#45;&gt;Node76 -->
<g id="edge50_Node000051_Node000076" class="edge">
<title>Node51&#45;&gt;Node76</title>
<g id="a_edge50_Node000051_Node000076"><a xlink:title=" ">
<path fill="none" stroke="#63b8ff" d="M3512,-219.75C3512,-212.8 3512,-202.85 3512,-194.13"/>
<polygon fill="#63b8ff" stroke="#63b8ff" points="3515.5,-194.09 3512,-184.09 3508.5,-194.09 3515.5,-194.09"/>
</a>
</g>
</g>
<!-- Node78 -->
<g id="Node000078" class="node">
<title>Node78</title>
<g id="a_Node000078"><a xlink:href="sbuf_2Stats_8h.html" target="_top" xlink:title=" ">
<polygon fill="white" stroke="#666666" points="3722,-74 3648,-74 3648,-55 3722,-55 3722,-74"/>
<text text-anchor="middle" x="3685" y="-62" font-family="Helvetica,sans-Serif" font-size="10.00">sbuf/Stats.h</text>
</a>
</g>
</g>
<!-- Node51&#45;&gt;Node78 -->
<g id="edge52_Node000051_Node000078" class="edge">
<title>Node51&#45;&gt;Node78</title>
<g id="a_edge52_Node000051_Node000078"><a xlink:title=" ">
<path fill="none" stroke="#63b8ff" d="M3547.54,-227.79C3611.5,-225.67 3741.96,-217.29 3770,-184 3800.09,-148.27 3742.65,-102.49 3708.22,-79.7"/>
<polygon fill="#63b8ff" stroke="#63b8ff" points="3709.93,-76.64 3699.62,-74.17 3706.14,-82.52 3709.93,-76.64"/>
</a>
</g>
</g>
<!-- Node79 -->
<g id="Node000079" class="node">
<title>Node79</title>
<g id="a_Node000079"><a xlink:title=" ">
<polygon fill="#e0e0e0" stroke="#999999" points="3889,-184 3839,-184 3839,-165 3889,-165 3889,-184"/>
<text text-anchor="middle" x="3864" y="-172" font-family="Helvetica,sans-Serif" font-size="10.00">climits</text>
</a>
</g>
</g>
<!-- Node51&#45;&gt;Node79 -->
<g id="edge54_Node000051_Node000079" class="edge">
<title>Node51&#45;&gt;Node79</title>
<g id="a_edge54_Node000051_Node000079"><a xlink:title=" ">
<path fill="none" stroke="#63b8ff" d="M3547.81,-224.28C3606.11,-217.21 3725.06,-201.97 3825,-184 3826.27,-183.77 3827.55,-183.53 3828.85,-183.28"/>
<polygon fill="#63b8ff" stroke="#63b8ff" points="3829.77,-186.67 3838.88,-181.26 3828.38,-179.81 3829.77,-186.67"/>
</a>
</g>
</g>
<!-- Node80 -->
<g id="Node000080" class="node">
<title>Node80</title>
<g id="a_Node000080"><a xlink:title=" ">
<polygon fill="#e0e0e0" stroke="#999999" points="3369.5,-184 3316.5,-184 3316.5,-165 3369.5,-165 3369.5,-184"/>
<text text-anchor="middle" x="3343" y="-172" font-family="Helvetica,sans-Serif" font-size="10.00">iterator</text>
</a>
</g>
</g>
<!-- Node51&#45;&gt;Node80 -->
<g id="edge56_Node000051_Node000080" class="edge">
<title>Node51&#45;&gt;Node80</title>
<g id="a_edge56_Node000051_Node000080"><a xlink:title=" ">
<path fill="none" stroke="#63b8ff" d="M3484.85,-219.98C3456.22,-211.01 3410.97,-196.82 3379.3,-186.88"/>
<polygon fill="#63b8ff" stroke="#63b8ff" points="3380.12,-183.47 3369.53,-183.82 3378.02,-190.15 3380.12,-183.47"/>
</a>
</g>
</g>
<!-- Node52&#45;&gt;Node47 -->
<g id="edge44_Node000052_Node000047" class="edge">
<title>Node52&#45;&gt;Node47</title>
<g id="a_edge44_Node000052_Node000047"><a xlink:title=" ">
<path fill="none" stroke="#63b8ff" d="M3510.09,-109.66C3500.2,-91.85 3477.7,-51.37 3464.73,-28.01"/>
<polygon fill="#63b8ff" stroke="#63b8ff" points="3467.73,-26.2 3459.81,-19.16 3461.61,-29.6 3467.73,-26.2"/>
</a>
</g>
</g>
<!-- Node53&#45;&gt;Node46 -->
<g id="edge47_Node000053_Node000046" class="edge">
<title>Node53&#45;&gt;Node46</title>
<g id="a_edge47_Node000053_Node000046"><a xlink:title=" ">
<path fill="none" stroke="#63b8ff" d="M3354.89,-109.75C3349.72,-102.34 3342.15,-91.5 3335.81,-82.41"/>
<polygon fill="#63b8ff" stroke="#63b8ff" points="3338.59,-80.29 3330,-74.09 3332.85,-84.29 3338.59,-80.29"/>
</a>
</g>
</g>
<!-- Node76&#45;&gt;Node52 -->
<g id="edge51_Node000076_Node000052" class="edge">
<title>Node76&#45;&gt;Node52</title>
<g id="a_edge51_Node000076_Node000052"><a xlink:title=" ">
<path fill="none" stroke="#63b8ff" d="M3512.5,-164.75C3512.89,-157.8 3513.45,-147.85 3513.95,-139.13"/>
<polygon fill="#63b8ff" stroke="#63b8ff" points="3517.44,-139.27 3514.51,-129.09 3510.45,-138.88 3517.44,-139.27"/>
</a>
</g>
</g>
<!-- Node78&#45;&gt;Node47 -->
<g id="edge53_Node000078_Node000047" class="edge">
<title>Node78&#45;&gt;Node47</title>
<g id="a_edge53_Node000078_Node000047"><a xlink:title=" ">
<path fill="none" stroke="#63b8ff" d="M3648.05,-54.98C3604.17,-44.87 3531.6,-28.15 3489.04,-18.34"/>
<polygon fill="#63b8ff" stroke="#63b8ff" points="3489.69,-14.9 3479.16,-16.07 3488.12,-21.72 3489.69,-14.9"/>
</a>
</g>
</g>
</g>
</svg>
