<?xml version="1.0" encoding="UTF-8" standalone="no"?>
<!DOCTYPE svg PUBLIC "-//W3C//DTD SVG 1.1//EN"
 "http://www.w3.org/Graphics/SVG/1.1/DTD/svg11.dtd">
<!-- Generated by graphviz version 2.43.0 (0)
 -->
<!-- Title: squid/src/log/Config.h Pages: 1 -->
<!--zoomable 93 -->

<svg id="main" version="1.1" xmlns="http://www.w3.org/2000/svg" xmlns:xlink="http://www.w3.org/1999/xlink" xml:space="preserve" onload="init(evt)">
<style type="text/css"><![CDATA[
.node, .edge {opacity: 0.7;}
.node.selected, .edge.selected {opacity: 1;}
.edge:hover path { stroke: red; }
.edge:hover polygon { stroke: red; fill: red; }
]]></style>

<defs>
  <circle id="rim" cx="0" cy="0" r="7"/>
  <circle id="rim2" cx="0" cy="0" r="3.5"/>
  <g id="zoomPlus">
    <use xlink:href="#rim" fill="#404040"><set attributeName="fill" to="#808080" begin="zoomplus.mouseover" end="zoomplus.mouseout"/></use>
    <path d="M-4,0h8M0,-4v8" fill="none" stroke="white" stroke-width="1.5" pointer-events="none"/>
  </g>
  <g id="zoomMin">
    <use xlink:href="#rim" fill="#404040"><set attributeName="fill" to="#808080" begin="zoomminus.mouseover" end="zoomminus.mouseout"/></use>
    <path d="M-4,0h8" fill="none" stroke="white" stroke-width="1.5" pointer-events="none"/>
  </g>
  <g id="arrowUp" transform="translate(30 24)">
    <use xlink:href="#rim"/>
    <path pointer-events="none" fill="none" stroke="white" stroke-width="1.5" d="M0,-3.0v7 M-2.5,-0.5L0,-3.0L2.5,-0.5"/>
  </g>
  <g id="arrowRight" transform="rotate(90) translate(36 -43)">
    <use xlink:href="#rim"/>
    <path pointer-events="none" fill="none" stroke="white" stroke-width="1.5" d="M0,-3.0v7 M-2.5,-0.5L0,-3.0L2.5,-0.5"/>
  </g>
  <g id="arrowDown" transform="rotate(180) translate(-30 -48)">
    <use xlink:href="#rim"/>
    <path pointer-events="none" fill="none" stroke="white" stroke-width="1.5" d="M0,-3.0v7 M-2.5,-0.5L0,-3.0L2.5,-0.5"/>
  </g>
  <g id="arrowLeft" transform="rotate(270) translate(-36 17)">
    <use xlink:href="#rim"/>
    <path pointer-events="none" fill="none" stroke="white" stroke-width="1.5" d="M0,-3.0v7 M-2.5,-0.5L0,-3.0L2.5,-0.5"/>
  </g>
  <g id="resetDef">
    <use xlink:href="#rim2" fill="#404040"><set attributeName="fill" to="#808080" begin="reset.mouseover" end="reset.mouseout"/></use>
  </g>
</defs>
<script type="application/ecmascript">
var viewWidth = 1043;
var viewHeight = 93;
var sectionId = 'dynsection-1';
</script>
<script type="application/ecmascript" xlink:href="svg.min.js"/>
<svg id="graph" class="graph">
<g id="viewport">
<title>squid/src/log/Config.h</title>
<!-- Node1 -->
<g id="Node000001" class="node">
<title>Node1</title>
<g id="a_Node000001"><a xlink:title=" ">
<polygon fill="#999999" stroke="#666666" points="577,-85 456,-85 456,-66 577,-66 577,-85"/>
<text text-anchor="middle" x="516.5" y="-73" font-family="Helvetica,sans-Serif" font-size="10.00">squid/src/log/Config.h</text>
</a>
</g>
</g>
<!-- Node2 -->
<g id="Node000002" class="node">
<title>Node2</title>
<g id="a_Node000002"><a xlink:href="HttpRequest_8cc.html" target="_top" xlink:title=" ">
<polygon fill="white" stroke="#666666" points="137,-24.5 0,-24.5 0,-5.5 137,-5.5 137,-24.5"/>
<text text-anchor="middle" x="68.5" y="-12.5" font-family="Helvetica,sans-Serif" font-size="10.00">squid/src/HttpRequest.cc</text>
</a>
</g>
</g>
<!-- Node1&#45;&gt;Node2 -->
<g id="edge1_Node000001_Node000002" class="edge">
<title>Node1&#45;&gt;Node2</title>
<g id="a_edge1_Node000001_Node000002"><a xlink:title=" ">
<path fill="none" stroke="#63b8ff" d="M445.71,-67.3C370.92,-59.39 249.65,-45.7 145.5,-30 134.89,-28.4 123.49,-26.45 112.81,-24.53"/>
<polygon fill="#63b8ff" stroke="#63b8ff" points="445.63,-70.81 455.94,-68.37 446.37,-63.85 445.63,-70.81"/>
</a>
</g>
</g>
<!-- Node3 -->
<g id="Node000003" class="node">
<title>Node3</title>
<g id="a_Node000003"><a xlink:href="cache__cf_8cc.html" target="_top" xlink:title=" ">
<polygon fill="white" stroke="#666666" points="274,-24.5 155,-24.5 155,-5.5 274,-5.5 274,-24.5"/>
<text text-anchor="middle" x="214.5" y="-12.5" font-family="Helvetica,sans-Serif" font-size="10.00">squid/src/cache_cf.cc</text>
</a>
</g>
</g>
<!-- Node1&#45;&gt;Node3 -->
<g id="edge2_Node000001_Node000003" class="edge">
<title>Node1&#45;&gt;Node3</title>
<g id="a_edge2_Node000001_Node000003"><a xlink:title=" ">
<path fill="none" stroke="#63b8ff" d="M460.22,-64.04C412.79,-55.17 343.16,-42.01 282.5,-30 273.75,-28.27 264.38,-26.37 255.47,-24.54"/>
<polygon fill="#63b8ff" stroke="#63b8ff" points="459.81,-67.53 470.28,-65.92 461.1,-60.65 459.81,-67.53"/>
</a>
</g>
</g>
<!-- Node4 -->
<g id="Node000004" class="node">
<title>Node4</title>
<g id="a_Node000004"><a xlink:href="log_2Config_8cc.html" target="_top" xlink:title=" ">
<polygon fill="white" stroke="#666666" points="417,-24.5 292,-24.5 292,-5.5 417,-5.5 417,-24.5"/>
<text text-anchor="middle" x="354.5" y="-12.5" font-family="Helvetica,sans-Serif" font-size="10.00">squid/src/log/Config.cc</text>
</a>
</g>
</g>
<!-- Node1&#45;&gt;Node4 -->
<g id="edge3_Node000001_Node000004" class="edge">
<title>Node1&#45;&gt;Node4</title>
<g id="a_edge3_Node000001_Node000004"><a xlink:title=" ">
<path fill="none" stroke="#63b8ff" d="M483.34,-62.52C452.01,-51.21 405.81,-34.53 378.08,-24.52"/>
<polygon fill="#63b8ff" stroke="#63b8ff" points="482.35,-65.89 492.94,-65.99 484.73,-59.31 482.35,-65.89"/>
</a>
</g>
</g>
<!-- Node5 -->
<g id="Node000005" class="node">
<title>Node5</title>
<g id="a_Node000005"><a xlink:href="FormattedLog_8cc.html" target="_top" xlink:title=" ">
<polygon fill="white" stroke="#666666" points="597.5,-24.5 435.5,-24.5 435.5,-5.5 597.5,-5.5 597.5,-24.5"/>
<text text-anchor="middle" x="516.5" y="-12.5" font-family="Helvetica,sans-Serif" font-size="10.00">squid/src/log/FormattedLog.cc</text>
</a>
</g>
</g>
<!-- Node1&#45;&gt;Node5 -->
<g id="edge4_Node000001_Node000005" class="edge">
<title>Node1&#45;&gt;Node5</title>
<g id="a_edge4_Node000001_Node000005"><a xlink:title=" ">
<path fill="none" stroke="#63b8ff" d="M516.5,-55.66C516.5,-45.24 516.5,-32.8 516.5,-24.67"/>
<polygon fill="#63b8ff" stroke="#63b8ff" points="513,-55.87 516.5,-65.87 520,-55.87 513,-55.87"/>
</a>
</g>
</g>
<!-- Node6 -->
<g id="Node000006" class="node">
<title>Node6</title>
<g id="a_Node000006"><a xlink:href="ModDaemon_8cc.html" target="_top" xlink:title=" ">
<polygon fill="white" stroke="#666666" points="773,-24.5 616,-24.5 616,-5.5 773,-5.5 773,-24.5"/>
<text text-anchor="middle" x="694.5" y="-12.5" font-family="Helvetica,sans-Serif" font-size="10.00">squid/src/log/ModDaemon.cc</text>
</a>
</g>
</g>
<!-- Node1&#45;&gt;Node6 -->
<g id="edge5_Node000001_Node000006" class="edge">
<title>Node1&#45;&gt;Node6</title>
<g id="a_edge5_Node000001_Node000006"><a xlink:title=" ">
<path fill="none" stroke="#63b8ff" d="M552.05,-62.82C586.48,-51.5 637.86,-34.62 668.59,-24.52"/>
<polygon fill="#63b8ff" stroke="#63b8ff" points="550.79,-59.55 542.38,-65.99 552.98,-66.2 550.79,-59.55"/>
</a>
</g>
</g>
<!-- Node7 -->
<g id="Node000007" class="node">
<title>Node7</title>
<g id="a_Node000007"><a xlink:href="access__log_8cc.html" target="_top" xlink:title=" ">
<polygon fill="white" stroke="#666666" points="905.5,-30 791.5,-30 791.5,0 905.5,0 905.5,-30"/>
<text text-anchor="start" x="799.5" y="-18" font-family="Helvetica,sans-Serif" font-size="10.00">squid/src/log/access</text>
<text text-anchor="middle" x="848.5" y="-7" font-family="Helvetica,sans-Serif" font-size="10.00">_log.cc</text>
</a>
</g>
</g>
<!-- Node1&#45;&gt;Node7 -->
<g id="edge6_Node000001_Node000007" class="edge">
<title>Node1&#45;&gt;Node7</title>
<g id="a_edge6_Node000001_Node000007"><a xlink:title=" ">
<path fill="none" stroke="#63b8ff" d="M581.76,-64.39C635.69,-55.84 714.22,-42.95 782.5,-30 785.38,-29.45 788.32,-28.88 791.29,-28.29"/>
<polygon fill="#63b8ff" stroke="#63b8ff" points="580.97,-60.97 571.64,-65.99 582.07,-67.88 580.97,-60.97"/>
</a>
</g>
</g>
<!-- Node8 -->
<g id="Node000008" class="node">
<title>Node8</title>
<g id="a_Node000008"><a xlink:href="stub__liblog_8cc.html" target="_top" xlink:title=" ">
<polygon fill="white" stroke="#666666" points="1035,-30 924,-30 924,0 1035,0 1035,-30"/>
<text text-anchor="start" x="932" y="-18" font-family="Helvetica,sans-Serif" font-size="10.00">squid/src/tests/stub</text>
<text text-anchor="middle" x="979.5" y="-7" font-family="Helvetica,sans-Serif" font-size="10.00">_liblog.cc</text>
</a>
</g>
</g>
<!-- Node1&#45;&gt;Node8 -->
<g id="edge7_Node000001_Node000008" class="edge">
<title>Node1&#45;&gt;Node8</title>
<g id="a_edge7_Node000001_Node000008"><a xlink:title=" ">
<path fill="none" stroke="#63b8ff" d="M587.53,-68.73C667.37,-61.75 800.72,-48.56 914.5,-30 917.58,-29.5 920.73,-28.95 923.9,-28.36"/>
<polygon fill="#63b8ff" stroke="#63b8ff" points="586.77,-65.29 577.11,-69.64 587.37,-72.26 586.77,-65.29"/>
</a>
</g>
</g>
</g>
</svg>

<g id="navigator" transform="translate(0 0)" fill="#404254">
  <rect fill="#f2f5e9" fill-opacity="0.5" stroke="#606060" stroke-width=".5" x="0" y="0" width="60" height="60"/>
  <use id="zoomplus" xlink:href="#zoomPlus" x="17" y="9" onmousedown="handleZoom(evt,'in')"/>
  <use id="zoomminus" xlink:href="#zoomMin" x="42" y="9" onmousedown="handleZoom(evt,'out')"/>
  <use id="reset" xlink:href="#resetDef" x="30" y="36" onmousedown="handleReset()"/>
   <use id="arrowup" xlink:href="#arrowUp" x="0" y="0" onmousedown="handlePan(0,-1)"/>
  <use id="arrowright" xlink:href="#arrowRight" x="0" y="0" onmousedown="handlePan(1,0)"/>
  <use id="arrowdown" xlink:href="#arrowDown" x="0" y="0" onmousedown="handlePan(0,1)"/>
  <use id="arrowleft" xlink:href="#arrowLeft" x="0" y="0" onmousedown="handlePan(-1,0)"/>
</g>
<svg viewBox="0 0 15 15" width="100%" height="30px" preserveAspectRatio="xMaxYMin meet">
 <g id="arrow_out" transform="scale(0.3 0.3)">
  <a xlink:href="log_2Config_8h__dep__incl_org.svg" target="_base">
   <rect id="button" ry="5" rx="5" y="6" x="6" height="38" width="38"
        fill="#f2f5e9" fill-opacity="0.5" stroke="#606060" stroke-width="1.0"/>
   <path id="arrow"
     d="M 11.500037,31.436501 C 11.940474,20.09759 22.043105,11.32322 32.158766,21.979434 L 37.068811,17.246167 C 37.068811,17.246167 37.088388,32 37.088388,32 L 22.160133,31.978069 C 22.160133,31.978069 26.997745,27.140456 26.997745,27.140456 C 18.528582,18.264221 13.291696,25.230495 11.500037,31.436501 z"
     style="fill:#404040;"/>
  </a>
 </g>
</svg>

<style type='text/css'>
<![CDATA[
[data-mouse-over-selected='false'] { opacity: 0.7; }
[data-mouse-over-selected='true']  { opacity: 1.0; }
]]>
</style>
<script type="application/ecmascript"><![CDATA[
document.addEventListener('DOMContentLoaded', (event) => {
  highlightEdges();
  highlightAdjacentNodes();
});
]]></script>
</svg>
