<?xml version="1.0" encoding="UTF-8" standalone="no"?>
<!DOCTYPE svg PUBLIC "-//W3C//DTD SVG 1.1//EN"
 "http://www.w3.org/Graphics/SVG/1.1/DTD/svg11.dtd">
<!-- Generated by graphviz version 2.43.0 (0)
 -->
<!-- Title: squid/src/log/File.h Pages: 1 -->
<svg width="2857pt" height="93pt"
 viewBox="0.00 0.00 2856.50 93.00" xmlns="http://www.w3.org/2000/svg" xmlns:xlink="http://www.w3.org/1999/xlink">
<g id="graph0" class="graph" transform="scale(1 1) rotate(0) translate(4 89)">
<title>squid/src/log/File.h</title>
<!-- Node1 -->
<g id="Node000001" class="node">
<title>Node1</title>
<g id="a_Node000001"><a xlink:title=" ">
<polygon fill="#999999" stroke="#666666" points="1479.5,-85 1372.5,-85 1372.5,-66 1479.5,-66 1479.5,-85"/>
<text text-anchor="middle" x="1426" y="-73" font-family="Helvetica,sans-Serif" font-size="10.00">squid/src/log/File.h</text>
</a>
</g>
</g>
<!-- Node2 -->
<g id="Node000002" class="node">
<title>Node2</title>
<g id="a_Node000002"><a xlink:href="icap__log_8cc.html" target="_top" xlink:title=" ">
<polygon fill="white" stroke="#666666" points="116,-30 0,-30 0,0 116,0 116,-30"/>
<text text-anchor="start" x="8" y="-18" font-family="Helvetica,sans-Serif" font-size="10.00">squid/src/adaptation</text>
<text text-anchor="middle" x="58" y="-7" font-family="Helvetica,sans-Serif" font-size="10.00">/icap/icap_log.cc</text>
</a>
</g>
</g>
<!-- Node1&#45;&gt;Node2 -->
<g id="edge1_Node000001_Node000002" class="edge">
<title>Node1&#45;&gt;Node2</title>
<g id="a_edge1_Node000001_Node000002"><a xlink:title=" ">
<path fill="none" stroke="#63b8ff" d="M1362.08,-73.77C1135.12,-70.94 368.63,-59.4 125,-30 122.05,-29.64 119.04,-29.22 116,-28.76"/>
<polygon fill="#63b8ff" stroke="#63b8ff" points="1362.11,-77.27 1372.16,-73.89 1362.2,-70.27 1362.11,-77.27"/>
</a>
</g>
</g>
<!-- Node3 -->
<g id="Node000003" class="node">
<title>Node3</title>
<g id="a_Node000003"><a xlink:href="net__db_8cc.html" target="_top" xlink:title=" ">
<polygon fill="white" stroke="#666666" points="240,-30 134,-30 134,0 240,0 240,-30"/>
<text text-anchor="start" x="142" y="-18" font-family="Helvetica,sans-Serif" font-size="10.00">squid/src/icmp/net</text>
<text text-anchor="middle" x="187" y="-7" font-family="Helvetica,sans-Serif" font-size="10.00">_db.cc</text>
</a>
</g>
</g>
<!-- Node1&#45;&gt;Node3 -->
<g id="edge2_Node000001_Node000003" class="edge">
<title>Node1&#45;&gt;Node3</title>
<g id="a_edge2_Node000001_Node000003"><a xlink:title=" ">
<path fill="none" stroke="#63b8ff" d="M1362.18,-73.64C1149.65,-70.52 467.07,-58.5 249,-30 246.16,-29.63 243.25,-29.19 240.32,-28.7"/>
<polygon fill="#63b8ff" stroke="#63b8ff" points="1362.19,-77.14 1372.24,-73.78 1362.29,-70.14 1362.19,-77.14"/>
</a>
</g>
</g>
<!-- Node4 -->
<g id="Node000004" class="node">
<title>Node4</title>
<g id="a_Node000004"><a xlink:href="log_2File_8cc.html" target="_top" xlink:title=" ">
<polygon fill="white" stroke="#666666" points="370,-24.5 258,-24.5 258,-5.5 370,-5.5 370,-24.5"/>
<text text-anchor="middle" x="314" y="-12.5" font-family="Helvetica,sans-Serif" font-size="10.00">squid/src/log/File.cc</text>
</a>
</g>
</g>
<!-- Node1&#45;&gt;Node4 -->
<g id="edge3_Node000001_Node000004" class="edge">
<title>Node1&#45;&gt;Node4</title>
<g id="a_edge3_Node000001_Node000004"><a xlink:title=" ">
<path fill="none" stroke="#63b8ff" d="M1362.05,-73.2C1165.29,-69 570.7,-54.54 379,-30 368.92,-28.71 358.09,-26.65 348.22,-24.51"/>
<polygon fill="#63b8ff" stroke="#63b8ff" points="1362.15,-76.71 1372.22,-73.42 1362.3,-69.71 1362.15,-76.71"/>
</a>
</g>
</g>
<!-- Node5 -->
<g id="Node000005" class="node">
<title>Node5</title>
<g id="a_Node000005"><a xlink:href="FormatHttpdCombined_8cc.html" target="_top" xlink:title=" ">
<polygon fill="white" stroke="#666666" points="531.5,-30 388.5,-30 388.5,0 531.5,0 531.5,-30"/>
<text text-anchor="start" x="396.5" y="-18" font-family="Helvetica,sans-Serif" font-size="10.00">squid/src/log/FormatHttpd</text>
<text text-anchor="middle" x="460" y="-7" font-family="Helvetica,sans-Serif" font-size="10.00">Combined.cc</text>
</a>
</g>
</g>
<!-- Node1&#45;&gt;Node5 -->
<g id="edge4_Node000001_Node000005" class="edge">
<title>Node1&#45;&gt;Node5</title>
<g id="a_edge4_Node000001_Node000005"><a xlink:title=" ">
<path fill="none" stroke="#63b8ff" d="M1362.27,-73.98C1216.31,-72.22 846.78,-64.42 540,-30 537.34,-29.7 534.63,-29.37 531.9,-29.01"/>
<polygon fill="#63b8ff" stroke="#63b8ff" points="1362.34,-77.49 1372.38,-74.1 1362.42,-70.49 1362.34,-77.49"/>
</a>
</g>
</g>
<!-- Node6 -->
<g id="Node000006" class="node">
<title>Node6</title>
<g id="a_Node000006"><a xlink:href="FormatHttpdCommon_8cc.html" target="_top" xlink:title=" ">
<polygon fill="white" stroke="#666666" points="692.5,-30 549.5,-30 549.5,0 692.5,0 692.5,-30"/>
<text text-anchor="start" x="557.5" y="-18" font-family="Helvetica,sans-Serif" font-size="10.00">squid/src/log/FormatHttpd</text>
<text text-anchor="middle" x="621" y="-7" font-family="Helvetica,sans-Serif" font-size="10.00">Common.cc</text>
</a>
</g>
</g>
<!-- Node1&#45;&gt;Node6 -->
<g id="edge5_Node000001_Node000006" class="edge">
<title>Node1&#45;&gt;Node6</title>
<g id="a_edge5_Node000001_Node000006"><a xlink:title=" ">
<path fill="none" stroke="#63b8ff" d="M1361.86,-72.97C1235.17,-69.43 944.02,-58.63 701,-30 698.34,-29.69 695.63,-29.34 692.9,-28.97"/>
<polygon fill="#63b8ff" stroke="#63b8ff" points="1362.06,-76.48 1372.15,-73.26 1362.25,-69.48 1362.06,-76.48"/>
</a>
</g>
</g>
<!-- Node7 -->
<g id="Node000007" class="node">
<title>Node7</title>
<g id="a_Node000007"><a xlink:href="FormatSquidCustom_8cc.html" target="_top" xlink:title=" ">
<polygon fill="white" stroke="#666666" points="853.5,-30 710.5,-30 710.5,0 853.5,0 853.5,-30"/>
<text text-anchor="start" x="718.5" y="-18" font-family="Helvetica,sans-Serif" font-size="10.00">squid/src/log/FormatSquid</text>
<text text-anchor="middle" x="782" y="-7" font-family="Helvetica,sans-Serif" font-size="10.00">Custom.cc</text>
</a>
</g>
</g>
<!-- Node1&#45;&gt;Node7 -->
<g id="edge6_Node000001_Node000007" class="edge">
<title>Node1&#45;&gt;Node7</title>
<g id="a_edge6_Node000001_Node000007"><a xlink:title=" ">
<path fill="none" stroke="#63b8ff" d="M1362.07,-71.43C1257.29,-65.95 1042.59,-52.87 862,-30 859.34,-29.66 856.64,-29.3 853.91,-28.91"/>
<polygon fill="#63b8ff" stroke="#63b8ff" points="1362,-74.93 1372.17,-71.95 1362.36,-67.94 1362,-74.93"/>
</a>
</g>
</g>
<!-- Node8 -->
<g id="Node000008" class="node">
<title>Node8</title>
<g id="a_Node000008"><a xlink:href="FormatSquidIcap_8cc.html" target="_top" xlink:title=" ">
<polygon fill="white" stroke="#666666" points="1014.5,-30 871.5,-30 871.5,0 1014.5,0 1014.5,-30"/>
<text text-anchor="start" x="879.5" y="-18" font-family="Helvetica,sans-Serif" font-size="10.00">squid/src/log/FormatSquid</text>
<text text-anchor="middle" x="943" y="-7" font-family="Helvetica,sans-Serif" font-size="10.00">Icap.cc</text>
</a>
</g>
</g>
<!-- Node1&#45;&gt;Node8 -->
<g id="edge7_Node000001_Node000008" class="edge">
<title>Node1&#45;&gt;Node8</title>
<g id="a_edge7_Node000001_Node000008"><a xlink:title=" ">
<path fill="none" stroke="#63b8ff" d="M1362.06,-68.7C1282.45,-61.19 1142.38,-47.02 1023,-30 1020.35,-29.62 1017.65,-29.22 1014.92,-28.81"/>
<polygon fill="#63b8ff" stroke="#63b8ff" points="1362.13,-72.22 1372.41,-69.67 1362.78,-65.25 1362.13,-72.22"/>
</a>
</g>
</g>
<!-- Node9 -->
<g id="Node000009" class="node">
<title>Node9</title>
<g id="a_Node000009"><a xlink:href="FormatSquidNative_8cc.html" target="_top" xlink:title=" ">
<polygon fill="white" stroke="#666666" points="1175.5,-30 1032.5,-30 1032.5,0 1175.5,0 1175.5,-30"/>
<text text-anchor="start" x="1040.5" y="-18" font-family="Helvetica,sans-Serif" font-size="10.00">squid/src/log/FormatSquid</text>
<text text-anchor="middle" x="1104" y="-7" font-family="Helvetica,sans-Serif" font-size="10.00">Native.cc</text>
</a>
</g>
</g>
<!-- Node1&#45;&gt;Node9 -->
<g id="edge8_Node000001_Node000009" class="edge">
<title>Node1&#45;&gt;Node9</title>
<g id="a_edge8_Node000001_Node000009"><a xlink:title=" ">
<path fill="none" stroke="#63b8ff" d="M1369.1,-64.16C1315.15,-54.36 1233.89,-39.6 1175.57,-29"/>
<polygon fill="#63b8ff" stroke="#63b8ff" points="1368.71,-67.65 1379.18,-65.99 1369.97,-60.76 1368.71,-67.65"/>
</a>
</g>
</g>
<!-- Node10 -->
<g id="Node000010" class="node">
<title>Node10</title>
<g id="a_Node000010"><a xlink:href="FormatSquidReferer_8cc.html" target="_top" xlink:title=" ">
<polygon fill="white" stroke="#666666" points="1336.5,-30 1193.5,-30 1193.5,0 1336.5,0 1336.5,-30"/>
<text text-anchor="start" x="1201.5" y="-18" font-family="Helvetica,sans-Serif" font-size="10.00">squid/src/log/FormatSquid</text>
<text text-anchor="middle" x="1265" y="-7" font-family="Helvetica,sans-Serif" font-size="10.00">Referer.cc</text>
</a>
</g>
</g>
<!-- Node1&#45;&gt;Node10 -->
<g id="edge9_Node000001_Node000010" class="edge">
<title>Node1&#45;&gt;Node10</title>
<g id="a_edge9_Node000001_Node000010"><a xlink:title=" ">
<path fill="none" stroke="#63b8ff" d="M1392.86,-62.46C1366.96,-53.05 1330.92,-39.95 1303.71,-30.06"/>
<polygon fill="#63b8ff" stroke="#63b8ff" points="1392,-65.87 1402.59,-65.99 1394.39,-59.29 1392,-65.87"/>
</a>
</g>
</g>
<!-- Node11 -->
<g id="Node000011" class="node">
<title>Node11</title>
<g id="a_Node000011"><a xlink:href="FormatSquidUseragent_8cc.html" target="_top" xlink:title=" ">
<polygon fill="white" stroke="#666666" points="1497.5,-30 1354.5,-30 1354.5,0 1497.5,0 1497.5,-30"/>
<text text-anchor="start" x="1362.5" y="-18" font-family="Helvetica,sans-Serif" font-size="10.00">squid/src/log/FormatSquid</text>
<text text-anchor="middle" x="1426" y="-7" font-family="Helvetica,sans-Serif" font-size="10.00">Useragent.cc</text>
</a>
</g>
</g>
<!-- Node1&#45;&gt;Node11 -->
<g id="edge10_Node000001_Node000011" class="edge">
<title>Node1&#45;&gt;Node11</title>
<g id="a_edge10_Node000001_Node000011"><a xlink:title=" ">
<path fill="none" stroke="#63b8ff" d="M1426,-55.65C1426,-47.36 1426,-37.78 1426,-30.11"/>
<polygon fill="#63b8ff" stroke="#63b8ff" points="1422.5,-55.87 1426,-65.87 1429.5,-55.87 1422.5,-55.87"/>
</a>
</g>
</g>
<!-- Node12 -->
<g id="Node000012" class="node">
<title>Node12</title>
<g id="a_Node000012"><a xlink:href="FormattedLog_8cc.html" target="_top" xlink:title=" ">
<polygon fill="white" stroke="#666666" points="1678,-24.5 1516,-24.5 1516,-5.5 1678,-5.5 1678,-24.5"/>
<text text-anchor="middle" x="1597" y="-12.5" font-family="Helvetica,sans-Serif" font-size="10.00">squid/src/log/FormattedLog.cc</text>
</a>
</g>
</g>
<!-- Node1&#45;&gt;Node12 -->
<g id="edge11_Node000001_Node000012" class="edge">
<title>Node1&#45;&gt;Node12</title>
<g id="a_edge11_Node000001_Node000012"><a xlink:title=" ">
<path fill="none" stroke="#63b8ff" d="M1460.58,-62.67C1493.65,-51.36 1542.71,-34.57 1572.11,-24.52"/>
<polygon fill="#63b8ff" stroke="#63b8ff" points="1459.19,-59.45 1450.86,-65.99 1461.46,-66.07 1459.19,-59.45"/>
</a>
</g>
</g>
<!-- Node13 -->
<g id="Node000013" class="node">
<title>Node13</title>
<g id="a_Node000013"><a xlink:href="ModDaemon_8cc.html" target="_top" xlink:title=" ">
<polygon fill="white" stroke="#666666" points="1853.5,-24.5 1696.5,-24.5 1696.5,-5.5 1853.5,-5.5 1853.5,-24.5"/>
<text text-anchor="middle" x="1775" y="-12.5" font-family="Helvetica,sans-Serif" font-size="10.00">squid/src/log/ModDaemon.cc</text>
</a>
</g>
</g>
<!-- Node1&#45;&gt;Node13 -->
<g id="edge12_Node000001_Node000013" class="edge">
<title>Node1&#45;&gt;Node13</title>
<g id="a_edge12_Node000001_Node000013"><a xlink:title=" ">
<path fill="none" stroke="#63b8ff" d="M1486.78,-64.31C1554.04,-53.04 1661.23,-35.07 1724.19,-24.52"/>
<polygon fill="#63b8ff" stroke="#63b8ff" points="1486.03,-60.89 1476.75,-65.99 1487.19,-67.79 1486.03,-60.89"/>
</a>
</g>
</g>
<!-- Node14 -->
<g id="Node000014" class="node">
<title>Node14</title>
<g id="a_Node000014"><a xlink:href="ModStdio_8cc.html" target="_top" xlink:title=" ">
<polygon fill="white" stroke="#666666" points="2012,-24.5 1872,-24.5 1872,-5.5 2012,-5.5 2012,-24.5"/>
<text text-anchor="middle" x="1942" y="-12.5" font-family="Helvetica,sans-Serif" font-size="10.00">squid/src/log/ModStdio.cc</text>
</a>
</g>
</g>
<!-- Node1&#45;&gt;Node14 -->
<g id="edge13_Node000001_Node000014" class="edge">
<title>Node1&#45;&gt;Node14</title>
<g id="a_edge13_Node000001_Node000014"><a xlink:title=" ">
<path fill="none" stroke="#63b8ff" d="M1489.67,-69.5C1574.91,-62.47 1730.72,-48.43 1863,-30 1874.04,-28.46 1885.89,-26.52 1896.97,-24.57"/>
<polygon fill="#63b8ff" stroke="#63b8ff" points="1489.32,-66.02 1479.63,-70.32 1489.89,-73 1489.32,-66.02"/>
</a>
</g>
</g>
<!-- Node15 -->
<g id="Node000015" class="node">
<title>Node15</title>
<g id="a_Node000015"><a xlink:href="ModUdp_8cc.html" target="_top" xlink:title=" ">
<polygon fill="white" stroke="#666666" points="2165.5,-24.5 2030.5,-24.5 2030.5,-5.5 2165.5,-5.5 2165.5,-24.5"/>
<text text-anchor="middle" x="2098" y="-12.5" font-family="Helvetica,sans-Serif" font-size="10.00">squid/src/log/ModUdp.cc</text>
</a>
</g>
</g>
<!-- Node1&#45;&gt;Node15 -->
<g id="edge14_Node000001_Node000015" class="edge">
<title>Node1&#45;&gt;Node15</title>
<g id="a_edge14_Node000001_Node000015"><a xlink:title=" ">
<path fill="none" stroke="#63b8ff" d="M1489.71,-71.94C1598.83,-67.06 1828.39,-54.64 2021,-30 2032.32,-28.55 2044.5,-26.55 2055.76,-24.51"/>
<polygon fill="#63b8ff" stroke="#63b8ff" points="1489.36,-68.45 1479.53,-72.39 1489.67,-75.44 1489.36,-68.45"/>
</a>
</g>
</g>
<!-- Node16 -->
<g id="Node000016" class="node">
<title>Node16</title>
<g id="a_Node000016"><a xlink:href="TcpLogger_8cc.html" target="_top" xlink:title=" ">
<polygon fill="white" stroke="#666666" points="2326.5,-24.5 2183.5,-24.5 2183.5,-5.5 2326.5,-5.5 2326.5,-24.5"/>
<text text-anchor="middle" x="2255" y="-12.5" font-family="Helvetica,sans-Serif" font-size="10.00">squid/src/log/TcpLogger.cc</text>
</a>
</g>
</g>
<!-- Node1&#45;&gt;Node16 -->
<g id="edge15_Node000001_Node000016" class="edge">
<title>Node1&#45;&gt;Node16</title>
<g id="a_edge15_Node000001_Node000016"><a xlink:title=" ">
<path fill="none" stroke="#63b8ff" d="M1489.91,-73.16C1619.52,-69.89 1922.42,-59.51 2175,-30 2186.9,-28.61 2199.72,-26.6 2211.54,-24.53"/>
<polygon fill="#63b8ff" stroke="#63b8ff" points="1489.68,-69.66 1479.77,-73.41 1489.85,-76.66 1489.68,-69.66"/>
</a>
</g>
</g>
<!-- Node17 -->
<g id="Node000017" class="node">
<title>Node17</title>
<g id="a_Node000017"><a xlink:href="access__log_8cc.html" target="_top" xlink:title=" ">
<polygon fill="white" stroke="#666666" points="2459,-30 2345,-30 2345,0 2459,0 2459,-30"/>
<text text-anchor="start" x="2353" y="-18" font-family="Helvetica,sans-Serif" font-size="10.00">squid/src/log/access</text>
<text text-anchor="middle" x="2402" y="-7" font-family="Helvetica,sans-Serif" font-size="10.00">_log.cc</text>
</a>
</g>
</g>
<!-- Node1&#45;&gt;Node17 -->
<g id="edge16_Node000001_Node000017" class="edge">
<title>Node1&#45;&gt;Node17</title>
<g id="a_edge16_Node000001_Node000017"><a xlink:title=" ">
<path fill="none" stroke="#63b8ff" d="M1489.92,-74.88C1638.88,-75.01 2020.44,-70.92 2336,-30 2338.9,-29.62 2341.87,-29.19 2344.86,-28.71"/>
<polygon fill="#63b8ff" stroke="#63b8ff" points="1489.61,-71.38 1479.6,-74.87 1489.6,-78.38 1489.61,-71.38"/>
</a>
</g>
</g>
<!-- Node18 -->
<g id="Node000018" class="node">
<title>Node18</title>
<g id="a_Node000018"><a xlink:href="KeyLog_8cc.html" target="_top" xlink:title=" ">
<polygon fill="white" stroke="#666666" points="2579,-30 2477,-30 2477,0 2579,0 2579,-30"/>
<text text-anchor="start" x="2485" y="-18" font-family="Helvetica,sans-Serif" font-size="10.00">squid/src/security</text>
<text text-anchor="middle" x="2528" y="-7" font-family="Helvetica,sans-Serif" font-size="10.00">/KeyLog.cc</text>
</a>
</g>
</g>
<!-- Node1&#45;&gt;Node18 -->
<g id="edge17_Node000001_Node000018" class="edge">
<title>Node1&#45;&gt;Node18</title>
<g id="a_edge17_Node000001_Node000018"><a xlink:title=" ">
<path fill="none" stroke="#63b8ff" d="M1489.66,-73.34C1685.54,-69.52 2277.44,-56.07 2468,-30 2470.86,-29.61 2473.79,-29.14 2476.73,-28.63"/>
<polygon fill="#63b8ff" stroke="#63b8ff" points="1489.47,-69.84 1479.54,-73.53 1489.6,-76.84 1489.47,-69.84"/>
</a>
</g>
</g>
<!-- Node19 -->
<g id="Node000019" class="node">
<title>Node19</title>
<g id="a_Node000019"><a xlink:href="store__log_8cc.html" target="_top" xlink:title=" ">
<polygon fill="white" stroke="#666666" points="2719,-24.5 2597,-24.5 2597,-5.5 2719,-5.5 2719,-24.5"/>
<text text-anchor="middle" x="2658" y="-12.5" font-family="Helvetica,sans-Serif" font-size="10.00">squid/src/store_log.cc</text>
</a>
</g>
</g>
<!-- Node1&#45;&gt;Node19 -->
<g id="edge18_Node000001_Node000019" class="edge">
<title>Node1&#45;&gt;Node19</title>
<g id="a_edge18_Node000001_Node000019"><a xlink:title=" ">
<path fill="none" stroke="#63b8ff" d="M1490.02,-73.39C1700.93,-69.53 2372.73,-55.48 2588,-30 2598.83,-28.72 2610.49,-26.66 2621.12,-24.52"/>
<polygon fill="#63b8ff" stroke="#63b8ff" points="1489.67,-69.9 1479.74,-73.58 1489.8,-76.9 1489.67,-69.9"/>
</a>
</g>
</g>
<!-- Node20 -->
<g id="Node000020" class="node">
<title>Node20</title>
<g id="a_Node000020"><a xlink:href="stub__liblog_8cc.html" target="_top" xlink:title=" ">
<polygon fill="white" stroke="#666666" points="2848.5,-30 2737.5,-30 2737.5,0 2848.5,0 2848.5,-30"/>
<text text-anchor="start" x="2745.5" y="-18" font-family="Helvetica,sans-Serif" font-size="10.00">squid/src/tests/stub</text>
<text text-anchor="middle" x="2793" y="-7" font-family="Helvetica,sans-Serif" font-size="10.00">_liblog.cc</text>
</a>
</g>
</g>
<!-- Node1&#45;&gt;Node20 -->
<g id="edge19_Node000001_Node000020" class="edge">
<title>Node1&#45;&gt;Node20</title>
<g id="a_edge19_Node000001_Node000020"><a xlink:title=" ">
<path fill="none" stroke="#63b8ff" d="M1489.59,-73.83C1716.27,-71.19 2484.14,-60.19 2728,-30 2731.09,-29.62 2734.26,-29.16 2737.44,-28.65"/>
<polygon fill="#63b8ff" stroke="#63b8ff" points="1489.49,-70.33 1479.53,-73.94 1489.57,-77.33 1489.49,-70.33"/>
</a>
</g>
</g>
</g>
</svg>
