<?xml version="1.0" encoding="UTF-8" standalone="no"?>
<!DOCTYPE svg PUBLIC "-//W3C//DTD SVG 1.1//EN"
 "http://www.w3.org/Graphics/SVG/1.1/DTD/svg11.dtd">
<!-- Generated by graphviz version 2.43.0 (0)
 -->
<!-- Title: squid/src/base/LookupTable.h Pages: 1 -->
<svg width="1257pt" height="522pt"
 viewBox="0.00 0.00 1256.50 522.00" xmlns="http://www.w3.org/2000/svg" xmlns:xlink="http://www.w3.org/1999/xlink">
<g id="graph0" class="graph" transform="scale(1 1) rotate(0) translate(4 518)">
<title>squid/src/base/LookupTable.h</title>
<!-- Node1 -->
<g id="Node000001" class="node">
<title>Node1</title>
<g id="a_Node000001"><a xlink:title=" ">
<polygon fill="#999999" stroke="#666666" points="827,-514 669,-514 669,-495 827,-495 827,-514"/>
<text text-anchor="middle" x="748" y="-502" font-family="Helvetica,sans-Serif" font-size="10.00">squid/src/base/LookupTable.h</text>
</a>
</g>
</g>
<!-- Node2 -->
<g id="Node000002" class="node">
<title>Node2</title>
<g id="a_Node000002"><a xlink:href="Algorithms_8h.html" target="_top" xlink:title=" ">
<polygon fill="white" stroke="#666666" points="799.5,-459 696.5,-459 696.5,-440 799.5,-440 799.5,-459"/>
<text text-anchor="middle" x="748" y="-447" font-family="Helvetica,sans-Serif" font-size="10.00">sbuf/Algorithms.h</text>
</a>
</g>
</g>
<!-- Node1&#45;&gt;Node2 -->
<g id="edge1_Node000001_Node000002" class="edge">
<title>Node1&#45;&gt;Node2</title>
<g id="a_edge1_Node000001_Node000002"><a xlink:title=" ">
<path fill="none" stroke="#63b8ff" d="M748,-494.75C748,-487.8 748,-477.85 748,-469.13"/>
<polygon fill="#63b8ff" stroke="#63b8ff" points="751.5,-469.09 748,-459.09 744.5,-469.09 751.5,-469.09"/>
</a>
</g>
</g>
<!-- Node3 -->
<g id="Node000003" class="node">
<title>Node3</title>
<g id="a_Node000003"><a xlink:href="SBuf_8h.html" target="_top" xlink:title=" ">
<polygon fill="white" stroke="#666666" points="702.5,-404 631.5,-404 631.5,-385 702.5,-385 702.5,-404"/>
<text text-anchor="middle" x="667" y="-392" font-family="Helvetica,sans-Serif" font-size="10.00">sbuf/SBuf.h</text>
</a>
</g>
</g>
<!-- Node1&#45;&gt;Node3 -->
<g id="edge51_Node000001_Node000003" class="edge">
<title>Node1&#45;&gt;Node3</title>
<g id="a_edge51_Node000001_Node000003"><a xlink:title=" ">
<path fill="none" stroke="#63b8ff" d="M730.91,-494.99C717.19,-487.34 698.39,-474.86 687,-459 677.41,-445.65 672.31,-427.54 669.66,-414.08"/>
<polygon fill="#63b8ff" stroke="#63b8ff" points="673.09,-413.35 667.97,-404.07 666.18,-414.51 673.09,-413.35"/>
</a>
</g>
</g>
<!-- Node40 -->
<g id="Node000040" class="node">
<title>Node40</title>
<g id="a_Node000040"><a xlink:title=" ">
<polygon fill="#e0e0e0" stroke="#999999" points="910.5,-459 817.5,-459 817.5,-440 910.5,-440 910.5,-459"/>
<text text-anchor="middle" x="864" y="-447" font-family="Helvetica,sans-Serif" font-size="10.00">unordered_map</text>
</a>
</g>
</g>
<!-- Node1&#45;&gt;Node40 -->
<g id="edge52_Node000001_Node000040" class="edge">
<title>Node1&#45;&gt;Node40</title>
<g id="a_edge52_Node000001_Node000040"><a xlink:title=" ">
<path fill="none" stroke="#63b8ff" d="M766.64,-494.98C785.3,-486.46 814.25,-473.23 835.74,-463.41"/>
<polygon fill="#63b8ff" stroke="#63b8ff" points="837.38,-466.51 845.02,-459.17 834.47,-460.14 837.38,-466.51"/>
</a>
</g>
</g>
<!-- Node2&#45;&gt;Node3 -->
<g id="edge2_Node000002_Node000003" class="edge">
<title>Node2&#45;&gt;Node3</title>
<g id="a_edge2_Node000002_Node000003"><a xlink:title=" ">
<path fill="none" stroke="#63b8ff" d="M734.99,-439.98C722.54,-431.84 703.54,-419.41 688.79,-409.76"/>
<polygon fill="#63b8ff" stroke="#63b8ff" points="690.54,-406.72 680.25,-404.17 686.7,-412.57 690.54,-406.72"/>
</a>
</g>
</g>
<!-- Node38 -->
<g id="Node000038" class="node">
<title>Node38</title>
<g id="a_Node000038"><a xlink:title=" ">
<polygon fill="#e0e0e0" stroke="#999999" points="859,-404 795,-404 795,-385 859,-385 859,-404"/>
<text text-anchor="middle" x="827" y="-392" font-family="Helvetica,sans-Serif" font-size="10.00">algorithm</text>
</a>
</g>
</g>
<!-- Node2&#45;&gt;Node38 -->
<g id="edge49_Node000002_Node000038" class="edge">
<title>Node2&#45;&gt;Node38</title>
<g id="a_edge49_Node000002_Node000038"><a xlink:title=" ">
<path fill="none" stroke="#63b8ff" d="M760.69,-439.98C772.83,-431.84 791.36,-419.41 805.75,-409.76"/>
<polygon fill="#63b8ff" stroke="#63b8ff" points="807.72,-412.65 814.08,-404.17 803.82,-406.84 807.72,-412.65"/>
</a>
</g>
</g>
<!-- Node39 -->
<g id="Node000039" class="node">
<title>Node39</title>
<g id="a_Node000039"><a xlink:title=" ">
<polygon fill="#e0e0e0" stroke="#999999" points="777,-404 721,-404 721,-385 777,-385 777,-404"/>
<text text-anchor="middle" x="749" y="-392" font-family="Helvetica,sans-Serif" font-size="10.00">numeric</text>
</a>
</g>
</g>
<!-- Node2&#45;&gt;Node39 -->
<g id="edge50_Node000002_Node000039" class="edge">
<title>Node2&#45;&gt;Node39</title>
<g id="a_edge50_Node000002_Node000039"><a xlink:title=" ">
<path fill="none" stroke="#63b8ff" d="M748.17,-439.75C748.3,-432.8 748.48,-422.85 748.65,-414.13"/>
<polygon fill="#63b8ff" stroke="#63b8ff" points="752.15,-414.15 748.84,-404.09 745.15,-414.02 752.15,-414.15"/>
</a>
</g>
</g>
<!-- Node4 -->
<g id="Node000004" class="node">
<title>Node4</title>
<g id="a_Node000004"><a xlink:href="InstanceId_8h.html" target="_top" xlink:title=" ">
<polygon fill="white" stroke="#666666" points="779,-294 677,-294 677,-275 779,-275 779,-294"/>
<text text-anchor="middle" x="728" y="-282" font-family="Helvetica,sans-Serif" font-size="10.00">base/InstanceId.h</text>
</a>
</g>
</g>
<!-- Node3&#45;&gt;Node4 -->
<g id="edge3_Node000003_Node000004" class="edge">
<title>Node3&#45;&gt;Node4</title>
<g id="a_edge3_Node000003_Node000004"><a xlink:title=" ">
<path fill="none" stroke="#63b8ff" d="M671.99,-384.66C682.05,-366.85 704.92,-326.37 718.11,-303.01"/>
<polygon fill="#63b8ff" stroke="#63b8ff" points="721.24,-304.59 723.11,-294.16 715.14,-301.14 721.24,-304.59"/>
</a>
</g>
</g>
<!-- Node5 -->
<g id="Node000005" class="node">
<title>Node5</title>
<g id="a_Node000005"><a xlink:title=" ">
<polygon fill="#e0e0e0" stroke="#999999" points="443,-184 395,-184 395,-165 443,-165 443,-184"/>
<text text-anchor="middle" x="419" y="-172" font-family="Helvetica,sans-Serif" font-size="10.00">iosfwd</text>
</a>
</g>
</g>
<!-- Node3&#45;&gt;Node5 -->
<g id="edge47_Node000003_Node000005" class="edge">
<title>Node3&#45;&gt;Node5</title>
<g id="a_edge47_Node000003_Node000005"><a xlink:title=" ">
<path fill="none" stroke="#63b8ff" d="M631.3,-389.68C578.09,-381.92 479.09,-359.09 431,-294 409.37,-264.72 411.81,-219.68 415.45,-194.39"/>
<polygon fill="#63b8ff" stroke="#63b8ff" points="418.94,-194.73 417.12,-184.29 412.04,-193.59 418.94,-194.73"/>
</a>
</g>
</g>
<!-- Node6 -->
<g id="Node000006" class="node">
<title>Node6</title>
<g id="a_Node000006"><a xlink:href="TextException_8h.html" target="_top" xlink:title=" ">
<polygon fill="white" stroke="#666666" points="291,-349 171,-349 171,-330 291,-330 291,-349"/>
<text text-anchor="middle" x="231" y="-337" font-family="Helvetica,sans-Serif" font-size="10.00">base/TextException.h</text>
</a>
</g>
</g>
<!-- Node3&#45;&gt;Node6 -->
<g id="edge5_Node000003_Node000006" class="edge">
<title>Node3&#45;&gt;Node6</title>
<g id="a_edge5_Node000003_Node000006"><a xlink:title=" ">
<path fill="none" stroke="#63b8ff" d="M631.32,-389.16C559.3,-380.41 395.42,-360.49 301.19,-349.03"/>
<polygon fill="#63b8ff" stroke="#63b8ff" points="301.53,-345.55 291.18,-347.82 300.68,-352.5 301.53,-345.55"/>
</a>
</g>
</g>
<!-- Node10 -->
<g id="Node000010" class="node">
<title>Node10</title>
<g id="a_Node000010"><a xlink:href="debug_2Stream_8h.html" target="_top" xlink:title=" ">
<polygon fill="white" stroke="#666666" points="384,-294 290,-294 290,-275 384,-275 384,-294"/>
<text text-anchor="middle" x="337" y="-282" font-family="Helvetica,sans-Serif" font-size="10.00">debug/Stream.h</text>
</a>
</g>
</g>
<!-- Node3&#45;&gt;Node10 -->
<g id="edge11_Node000003_Node000010" class="edge">
<title>Node3&#45;&gt;Node10</title>
<g id="a_edge11_Node000003_Node000010"><a xlink:title=" ">
<path fill="none" stroke="#63b8ff" d="M631.02,-390.38C567.37,-384.39 437.89,-370.01 398,-349 377.17,-338.03 359.32,-317.27 348.41,-302.48"/>
<polygon fill="#63b8ff" stroke="#63b8ff" points="351.17,-300.32 342.55,-294.18 345.46,-304.36 351.17,-300.32"/>
</a>
</g>
</g>
<!-- Node15 -->
<g id="Node000015" class="node">
<title>Node15</title>
<g id="a_Node000015"><a xlink:href="globals_8h.html" target="_top" xlink:title=" ">
<polygon fill="white" stroke="#666666" points="668.5,-349 607.5,-349 607.5,-330 668.5,-330 668.5,-349"/>
<text text-anchor="middle" x="638" y="-337" font-family="Helvetica,sans-Serif" font-size="10.00">globals.h</text>
</a>
</g>
</g>
<!-- Node3&#45;&gt;Node15 -->
<g id="edge17_Node000003_Node000015" class="edge">
<title>Node3&#45;&gt;Node15</title>
<g id="a_edge17_Node000003_Node000015"><a xlink:title=" ">
<path fill="none" stroke="#63b8ff" d="M662.21,-384.75C658.24,-377.49 652.47,-366.95 647.57,-357.98"/>
<polygon fill="#63b8ff" stroke="#63b8ff" points="650.57,-356.18 642.7,-349.09 644.43,-359.54 650.57,-356.18"/>
</a>
</g>
</g>
<!-- Node26 -->
<g id="Node000026" class="node">
<title>Node26</title>
<g id="a_Node000026"><a xlink:href="sbuf_2forward_8h.html" target="_top" xlink:title=" ">
<polygon fill="white" stroke="#666666" points="1101.5,-74 1014.5,-74 1014.5,-55 1101.5,-55 1101.5,-74"/>
<text text-anchor="middle" x="1058" y="-62" font-family="Helvetica,sans-Serif" font-size="10.00">sbuf/forward.h</text>
</a>
</g>
</g>
<!-- Node3&#45;&gt;Node26 -->
<g id="edge39_Node000003_Node000026" class="edge">
<title>Node3&#45;&gt;Node26</title>
<g id="a_edge39_Node000003_Node000026"><a xlink:title=" ">
<path fill="none" stroke="#63b8ff" d="M702.85,-386.65C705.94,-386.08 709.02,-385.52 712,-385 799.45,-369.59 1099,-374.3 1099,-285.5 1099,-285.5 1099,-285.5 1099,-173.5 1099,-139.57 1081.09,-103.31 1068.94,-82.62"/>
<polygon fill="#63b8ff" stroke="#63b8ff" points="1071.9,-80.75 1063.7,-74.04 1065.93,-84.4 1071.9,-80.75"/>
</a>
</g>
</g>
<!-- Node33 -->
<g id="Node000033" class="node">
<title>Node33</title>
<g id="a_Node000033"><a xlink:href="MemBlob_8h.html" target="_top" xlink:title=" ">
<polygon fill="white" stroke="#666666" points="923,-349 827,-349 827,-330 923,-330 923,-349"/>
<text text-anchor="middle" x="875" y="-337" font-family="Helvetica,sans-Serif" font-size="10.00">sbuf/MemBlob.h</text>
</a>
</g>
</g>
<!-- Node3&#45;&gt;Node33 -->
<g id="edge40_Node000003_Node000033" class="edge">
<title>Node3&#45;&gt;Node33</title>
<g id="a_edge40_Node000003_Node000033"><a xlink:title=" ">
<path fill="none" stroke="#63b8ff" d="M700.42,-384.98C735.94,-375.93 792.27,-361.58 831.3,-351.64"/>
<polygon fill="#63b8ff" stroke="#63b8ff" points="832.49,-354.94 841.32,-349.08 830.76,-348.16 832.49,-354.94"/>
</a>
</g>
</g>
<!-- Node35 -->
<g id="Node000035" class="node">
<title>Node35</title>
<g id="a_Node000035"><a xlink:href="sbuf_2Stats_8h.html" target="_top" xlink:title=" ">
<polygon fill="white" stroke="#666666" points="74,-239 0,-239 0,-220 74,-220 74,-239"/>
<text text-anchor="middle" x="37" y="-227" font-family="Helvetica,sans-Serif" font-size="10.00">sbuf/Stats.h</text>
</a>
</g>
</g>
<!-- Node3&#45;&gt;Node35 -->
<g id="edge44_Node000003_Node000035" class="edge">
<title>Node3&#45;&gt;Node35</title>
<g id="a_edge44_Node000003_Node000035"><a xlink:title=" ">
<path fill="none" stroke="#63b8ff" d="M631.47,-392.16C531.69,-388.13 250.41,-374.74 162,-349 111.04,-334.17 89.84,-334.89 56,-294 45.57,-281.4 40.86,-263.2 38.74,-249.52"/>
<polygon fill="#63b8ff" stroke="#63b8ff" points="42.18,-248.81 37.5,-239.31 35.23,-249.66 42.18,-248.81"/>
</a>
</g>
</g>
<!-- Node36 -->
<g id="Node000036" class="node">
<title>Node36</title>
<g id="a_Node000036"><a xlink:title=" ">
<polygon fill="#e0e0e0" stroke="#999999" points="1177,-349 1127,-349 1127,-330 1177,-330 1177,-349"/>
<text text-anchor="middle" x="1152" y="-337" font-family="Helvetica,sans-Serif" font-size="10.00">climits</text>
</a>
</g>
</g>
<!-- Node3&#45;&gt;Node36 -->
<g id="edge46_Node000003_Node000036" class="edge">
<title>Node3&#45;&gt;Node36</title>
<g id="a_edge46_Node000003_Node000036"><a xlink:title=" ">
<path fill="none" stroke="#63b8ff" d="M702.81,-386.41C705.91,-385.9 709.01,-385.42 712,-385 889.24,-360.36 936.13,-376.11 1113,-349 1114.27,-348.81 1115.56,-348.59 1116.87,-348.37"/>
<polygon fill="#63b8ff" stroke="#63b8ff" points="1117.74,-351.77 1126.91,-346.45 1116.43,-344.89 1117.74,-351.77"/>
</a>
</g>
</g>
<!-- Node37 -->
<g id="Node000037" class="node">
<title>Node37</title>
<g id="a_Node000037"><a xlink:title=" ">
<polygon fill="#e0e0e0" stroke="#999999" points="1248.5,-349 1195.5,-349 1195.5,-330 1248.5,-330 1248.5,-349"/>
<text text-anchor="middle" x="1222" y="-337" font-family="Helvetica,sans-Serif" font-size="10.00">iterator</text>
</a>
</g>
</g>
<!-- Node3&#45;&gt;Node37 -->
<g id="edge48_Node000003_Node000037" class="edge">
<title>Node3&#45;&gt;Node37</title>
<g id="a_edge48_Node000003_Node000037"><a xlink:title=" ">
<path fill="none" stroke="#63b8ff" d="M702.8,-386.37C705.91,-385.86 709,-385.4 712,-385 918.18,-357.78 975.44,-380.63 1185.25,-348.84"/>
<polygon fill="#63b8ff" stroke="#63b8ff" points="1186,-352.26 1195.35,-347.28 1184.94,-345.34 1186,-352.26"/>
</a>
</g>
</g>
<!-- Node4&#45;&gt;Node5 -->
<g id="edge4_Node000004_Node000005" class="edge">
<title>Node4&#45;&gt;Node5</title>
<g id="a_edge4_Node000004_Node000005"><a xlink:title=" ">
<path fill="none" stroke="#63b8ff" d="M676.89,-276.3C608.36,-266.36 493.28,-248.6 476,-239 456.24,-228.02 439.79,-207.57 429.72,-192.84"/>
<polygon fill="#63b8ff" stroke="#63b8ff" points="432.44,-190.61 424.05,-184.15 426.58,-194.44 432.44,-190.61"/>
</a>
</g>
</g>
<!-- Node7 -->
<g id="Node000007" class="node">
<title>Node7</title>
<g id="a_Node000007"><a xlink:href="Assure_8h.html" target="_top" xlink:title=" ">
<polygon fill="white" stroke="#666666" points="150.5,-294 65.5,-294 65.5,-275 150.5,-275 150.5,-294"/>
<text text-anchor="middle" x="108" y="-282" font-family="Helvetica,sans-Serif" font-size="10.00">base/Assure.h</text>
</a>
</g>
</g>
<!-- Node6&#45;&gt;Node7 -->
<g id="edge6_Node000006_Node000007" class="edge">
<title>Node6&#45;&gt;Node7</title>
<g id="a_edge6_Node000006_Node000007"><a xlink:title=" ">
<path fill="none" stroke="#63b8ff" d="M211.24,-329.98C191.27,-321.38 160.2,-307.99 137.35,-298.15"/>
<polygon fill="#63b8ff" stroke="#63b8ff" points="138.69,-294.91 128.12,-294.17 135.92,-301.34 138.69,-294.91"/>
</a>
</g>
</g>
<!-- Node8 -->
<g id="Node000008" class="node">
<title>Node8</title>
<g id="a_Node000008"><a xlink:href="Here_8h.html" target="_top" xlink:title=" ">
<polygon fill="white" stroke="#666666" points="167.5,-239 92.5,-239 92.5,-220 167.5,-220 167.5,-239"/>
<text text-anchor="middle" x="130" y="-227" font-family="Helvetica,sans-Serif" font-size="10.00">base/Here.h</text>
</a>
</g>
</g>
<!-- Node6&#45;&gt;Node8 -->
<g id="edge9_Node000006_Node000008" class="edge">
<title>Node6&#45;&gt;Node8</title>
<g id="a_edge9_Node000006_Node000008"><a xlink:title=" ">
<path fill="none" stroke="#63b8ff" d="M236.09,-329.87C243.05,-316.84 253.44,-291.85 242,-275 233.7,-262.77 200.42,-250.48 172.28,-241.92"/>
<polygon fill="#63b8ff" stroke="#63b8ff" points="173.17,-238.54 162.59,-239.06 171.19,-245.25 173.17,-238.54"/>
</a>
</g>
</g>
<!-- Node9 -->
<g id="Node000009" class="node">
<title>Node9</title>
<g id="a_Node000009"><a xlink:title=" ">
<polygon fill="#e0e0e0" stroke="#999999" points="233.5,-294 168.5,-294 168.5,-275 233.5,-275 233.5,-294"/>
<text text-anchor="middle" x="201" y="-282" font-family="Helvetica,sans-Serif" font-size="10.00">stdexcept</text>
</a>
</g>
</g>
<!-- Node6&#45;&gt;Node9 -->
<g id="edge10_Node000006_Node000009" class="edge">
<title>Node6&#45;&gt;Node9</title>
<g id="a_edge10_Node000006_Node000009"><a xlink:title=" ">
<path fill="none" stroke="#63b8ff" d="M226.05,-329.75C221.94,-322.49 215.97,-311.95 210.9,-302.98"/>
<polygon fill="#63b8ff" stroke="#63b8ff" points="213.83,-301.07 205.86,-294.09 207.74,-304.52 213.83,-301.07"/>
</a>
</g>
</g>
<!-- Node7&#45;&gt;Node8 -->
<g id="edge7_Node000007_Node000008" class="edge">
<title>Node7&#45;&gt;Node8</title>
<g id="a_edge7_Node000007_Node000008"><a xlink:title=" ">
<path fill="none" stroke="#63b8ff" d="M111.63,-274.75C114.58,-267.65 118.83,-257.4 122.51,-248.56"/>
<polygon fill="#63b8ff" stroke="#63b8ff" points="125.83,-249.67 126.43,-239.09 119.37,-246.98 125.83,-249.67"/>
</a>
</g>
</g>
<!-- Node8&#45;&gt;Node5 -->
<g id="edge8_Node000008_Node000005" class="edge">
<title>Node8&#45;&gt;Node5</title>
<g id="a_edge8_Node000008_Node000005"><a xlink:title=" ">
<path fill="none" stroke="#63b8ff" d="M167.65,-221.54C170.48,-221.02 173.28,-220.5 176,-220 250.51,-206.29 337.89,-190.32 384.9,-181.73"/>
<polygon fill="#63b8ff" stroke="#63b8ff" points="385.65,-185.15 394.85,-179.91 384.39,-178.26 385.65,-185.15"/>
</a>
</g>
</g>
<!-- Node10&#45;&gt;Node8 -->
<g id="edge12_Node000010_Node000008" class="edge">
<title>Node10&#45;&gt;Node8</title>
<g id="a_edge12_Node000010_Node000008"><a xlink:title=" ">
<path fill="none" stroke="#63b8ff" d="M303.74,-274.98C268.39,-265.93 212.33,-251.58 173.49,-241.64"/>
<polygon fill="#63b8ff" stroke="#63b8ff" points="174.07,-238.17 163.52,-239.08 172.34,-244.95 174.07,-238.17"/>
</a>
</g>
</g>
<!-- Node11 -->
<g id="Node000011" class="node">
<title>Node11</title>
<g id="a_Node000011"><a xlink:href="AllocatorProxy_8h.html" target="_top" xlink:title=" ">
<polygon fill="white" stroke="#666666" points="589,-184 465,-184 465,-165 589,-165 589,-184"/>
<text text-anchor="middle" x="527" y="-172" font-family="Helvetica,sans-Serif" font-size="10.00">mem/AllocatorProxy.h</text>
</a>
</g>
</g>
<!-- Node10&#45;&gt;Node11 -->
<g id="edge13_Node000010_Node000011" class="edge">
<title>Node10&#45;&gt;Node11</title>
<g id="a_edge13_Node000010_Node000011"><a xlink:title=" ">
<path fill="none" stroke="#63b8ff" d="M352.23,-274.84C385.24,-256.08 463.63,-211.52 503.23,-189.01"/>
<polygon fill="#63b8ff" stroke="#63b8ff" points="505,-192.03 511.96,-184.05 501.54,-185.95 505,-192.03"/>
</a>
</g>
</g>
<!-- Node12 -->
<g id="Node000012" class="node">
<title>Node12</title>
<g id="a_Node000012"><a xlink:title=" ">
<polygon fill="#e0e0e0" stroke="#999999" points="600,-19 540,-19 540,0 600,0 600,-19"/>
<text text-anchor="middle" x="570" y="-7" font-family="Helvetica,sans-Serif" font-size="10.00">iostream</text>
</a>
</g>
</g>
<!-- Node10&#45;&gt;Node12 -->
<g id="edge14_Node000010_Node000012" class="edge">
<title>Node10&#45;&gt;Node12</title>
<g id="a_edge14_Node000010_Node000012"><a xlink:title=" ">
<path fill="none" stroke="#63b8ff" d="M337.81,-274.83C339.45,-256.51 343,-212.49 343,-175.5 343,-175.5 343,-175.5 343,-118.5 343,-36.85 464.23,-16.86 529.51,-12.02"/>
<polygon fill="#63b8ff" stroke="#63b8ff" points="530.11,-15.48 539.86,-11.34 529.65,-8.5 530.11,-15.48"/>
</a>
</g>
</g>
<!-- Node13 -->
<g id="Node000013" class="node">
<title>Node13</title>
<g id="a_Node000013"><a xlink:title=" ">
<polygon fill="#e0e0e0" stroke="#999999" points="315,-239 259,-239 259,-220 315,-220 315,-239"/>
<text text-anchor="middle" x="287" y="-227" font-family="Helvetica,sans-Serif" font-size="10.00">sstream</text>
</a>
</g>
</g>
<!-- Node10&#45;&gt;Node13 -->
<g id="edge15_Node000010_Node000013" class="edge">
<title>Node10&#45;&gt;Node13</title>
<g id="a_edge15_Node000010_Node000013"><a xlink:title=" ">
<path fill="none" stroke="#63b8ff" d="M328.74,-274.75C321.54,-267.11 310.89,-255.82 302.15,-246.56"/>
<polygon fill="#63b8ff" stroke="#63b8ff" points="304.51,-243.96 295.1,-239.09 299.42,-248.76 304.51,-243.96"/>
</a>
</g>
</g>
<!-- Node14 -->
<g id="Node000014" class="node">
<title>Node14</title>
<g id="a_Node000014"><a xlink:title=" ">
<polygon fill="#e0e0e0" stroke="#999999" points="241,-239 185,-239 185,-220 241,-220 241,-239"/>
<text text-anchor="middle" x="213" y="-227" font-family="Helvetica,sans-Serif" font-size="10.00">iomanip</text>
</a>
</g>
</g>
<!-- Node10&#45;&gt;Node14 -->
<g id="edge16_Node000010_Node000014" class="edge">
<title>Node10&#45;&gt;Node14</title>
<g id="a_edge16_Node000010_Node000014"><a xlink:title=" ">
<path fill="none" stroke="#63b8ff" d="M317.08,-274.98C296.95,-266.38 265.62,-252.99 242.59,-243.15"/>
<polygon fill="#63b8ff" stroke="#63b8ff" points="243.86,-239.88 233.29,-239.17 241.1,-246.32 243.86,-239.88"/>
</a>
</g>
</g>
<!-- Node16 -->
<g id="Node000016" class="node">
<title>Node16</title>
<g id="a_Node000016"><a xlink:href="CacheDigest_8h.html" target="_top" xlink:title=" ">
<polygon fill="white" stroke="#666666" points="884.5,-294 797.5,-294 797.5,-275 884.5,-275 884.5,-294"/>
<text text-anchor="middle" x="841" y="-282" font-family="Helvetica,sans-Serif" font-size="10.00">CacheDigest.h</text>
</a>
</g>
</g>
<!-- Node15&#45;&gt;Node16 -->
<g id="edge18_Node000015_Node000016" class="edge">
<title>Node15&#45;&gt;Node16</title>
<g id="a_edge18_Node000015_Node000016"><a xlink:title=" ">
<path fill="none" stroke="#63b8ff" d="M668.83,-330.45C703.35,-321.44 759.51,-306.78 798.25,-296.66"/>
<polygon fill="#63b8ff" stroke="#63b8ff" points="799.4,-299.98 808.19,-294.07 797.63,-293.21 799.4,-299.98"/>
</a>
</g>
</g>
<!-- Node19 -->
<g id="Node000019" class="node">
<title>Node19</title>
<g id="a_Node000019"><a xlink:href="hash_8h.html" target="_top" xlink:title=" ">
<polygon fill="white" stroke="#666666" points="945.5,-184 896.5,-184 896.5,-165 945.5,-165 945.5,-184"/>
<text text-anchor="middle" x="921" y="-172" font-family="Helvetica,sans-Serif" font-size="10.00">hash.h</text>
</a>
</g>
</g>
<!-- Node15&#45;&gt;Node19 -->
<g id="edge36_Node000015_Node000019" class="edge">
<title>Node15&#45;&gt;Node19</title>
<g id="a_edge36_Node000015_Node000019"><a xlink:title=" ">
<path fill="none" stroke="#63b8ff" d="M668.78,-337.31C729.59,-334.3 862.02,-324.36 894,-294 921.33,-268.06 923.67,-220.65 922.58,-194.34"/>
<polygon fill="#63b8ff" stroke="#63b8ff" points="926.07,-193.95 921.95,-184.19 919.08,-194.39 926.07,-193.95"/>
</a>
</g>
</g>
<!-- Node30 -->
<g id="Node000030" class="node">
<title>Node30</title>
<g id="a_Node000030"><a xlink:href="defines_8h.html" target="_top" xlink:title=" ">
<polygon fill="white" stroke="#666666" points="501.5,-294 440.5,-294 440.5,-275 501.5,-275 501.5,-294"/>
<text text-anchor="middle" x="471" y="-282" font-family="Helvetica,sans-Serif" font-size="10.00">defines.h</text>
</a>
</g>
</g>
<!-- Node15&#45;&gt;Node30 -->
<g id="edge35_Node000015_Node000030" class="edge">
<title>Node15&#45;&gt;Node30</title>
<g id="a_edge35_Node000015_Node000030"><a xlink:title=" ">
<path fill="none" stroke="#63b8ff" d="M611.17,-329.98C583.13,-321.09 538.95,-307.07 507.7,-297.15"/>
<polygon fill="#63b8ff" stroke="#63b8ff" points="508.63,-293.77 498.04,-294.08 506.51,-300.44 508.63,-293.77"/>
</a>
</g>
</g>
<!-- Node31 -->
<g id="Node000031" class="node">
<title>Node31</title>
<g id="a_Node000031"><a xlink:href="IoStats_8h.html" target="_top" xlink:title=" ">
<polygon fill="white" stroke="#666666" points="578.5,-294 519.5,-294 519.5,-275 578.5,-275 578.5,-294"/>
<text text-anchor="middle" x="549" y="-282" font-family="Helvetica,sans-Serif" font-size="10.00">IoStats.h</text>
</a>
</g>
</g>
<!-- Node15&#45;&gt;Node31 -->
<g id="edge37_Node000015_Node000031" class="edge">
<title>Node15&#45;&gt;Node31</title>
<g id="a_edge37_Node000015_Node000031"><a xlink:title=" ">
<path fill="none" stroke="#63b8ff" d="M623.7,-329.98C609.9,-321.77 588.76,-309.18 572.49,-299.49"/>
<polygon fill="#63b8ff" stroke="#63b8ff" points="573.94,-296.28 563.56,-294.17 570.36,-302.29 573.94,-296.28"/>
</a>
</g>
</g>
<!-- Node32 -->
<g id="Node000032" class="node">
<title>Node32</title>
<g id="a_Node000032"><a xlink:href="rfc2181_8h.html" target="_top" xlink:title=" ">
<polygon fill="white" stroke="#666666" points="659,-294 597,-294 597,-275 659,-275 659,-294"/>
<text text-anchor="middle" x="628" y="-282" font-family="Helvetica,sans-Serif" font-size="10.00">rfc2181.h</text>
</a>
</g>
</g>
<!-- Node15&#45;&gt;Node32 -->
<g id="edge38_Node000015_Node000032" class="edge">
<title>Node15&#45;&gt;Node32</title>
<g id="a_edge38_Node000015_Node000032"><a xlink:title=" ">
<path fill="none" stroke="#63b8ff" d="M636.35,-329.75C635.04,-322.8 633.16,-312.85 631.52,-304.13"/>
<polygon fill="#63b8ff" stroke="#63b8ff" points="634.91,-303.27 629.62,-294.09 628.04,-304.56 634.91,-303.27"/>
</a>
</g>
</g>
<!-- Node17 -->
<g id="Node000017" class="node">
<title>Node17</title>
<g id="a_Node000017"><a xlink:href="mem_2forward_8h.html" target="_top" xlink:title=" ">
<polygon fill="white" stroke="#666666" points="577,-239 485,-239 485,-220 577,-220 577,-239"/>
<text text-anchor="middle" x="531" y="-227" font-family="Helvetica,sans-Serif" font-size="10.00">mem/forward.h</text>
</a>
</g>
</g>
<!-- Node16&#45;&gt;Node17 -->
<g id="edge19_Node000016_Node000017" class="edge">
<title>Node16&#45;&gt;Node17</title>
<g id="a_edge19_Node000016_Node000017"><a xlink:title=" ">
<path fill="none" stroke="#63b8ff" d="M797.24,-276.02C742.18,-266.6 647.53,-250.42 587.18,-240.1"/>
<polygon fill="#63b8ff" stroke="#63b8ff" points="587.51,-236.61 577.06,-238.37 586.33,-243.51 587.51,-236.61"/>
</a>
</g>
</g>
<!-- Node18 -->
<g id="Node000018" class="node">
<title>Node18</title>
<g id="a_Node000018"><a xlink:href="store__key__md5_8h.html" target="_top" xlink:title=" ">
<polygon fill="white" stroke="#666666" points="885,-239 785,-239 785,-220 885,-220 885,-239"/>
<text text-anchor="middle" x="835" y="-227" font-family="Helvetica,sans-Serif" font-size="10.00">store_key_md5.h</text>
</a>
</g>
</g>
<!-- Node16&#45;&gt;Node18 -->
<g id="edge22_Node000016_Node000018" class="edge">
<title>Node16&#45;&gt;Node18</title>
<g id="a_edge22_Node000016_Node000018"><a xlink:title=" ">
<path fill="none" stroke="#63b8ff" d="M840.01,-274.75C839.22,-267.8 838.1,-257.85 837.11,-249.13"/>
<polygon fill="#63b8ff" stroke="#63b8ff" points="840.58,-248.63 835.97,-239.09 833.62,-249.42 840.58,-248.63"/>
</a>
</g>
</g>
<!-- Node17&#45;&gt;Node5 -->
<g id="edge21_Node000017_Node000005" class="edge">
<title>Node17&#45;&gt;Node5</title>
<g id="a_edge21_Node000017_Node000005"><a xlink:title=" ">
<path fill="none" stroke="#63b8ff" d="M513.01,-219.98C495.07,-211.5 467.28,-198.35 446.57,-188.54"/>
<polygon fill="#63b8ff" stroke="#63b8ff" points="447.86,-185.28 437.32,-184.17 444.86,-191.61 447.86,-185.28"/>
</a>
</g>
</g>
<!-- Node17&#45;&gt;Node11 -->
<g id="edge20_Node000017_Node000011" class="edge">
<title>Node17&#45;&gt;Node11</title>
<g id="a_edge20_Node000017_Node000011"><a xlink:title=" ">
<path fill="none" stroke="#63b8ff" d="M530.34,-219.75C529.82,-212.8 529.06,-202.85 528.41,-194.13"/>
<polygon fill="#63b8ff" stroke="#63b8ff" points="531.89,-193.8 527.65,-184.09 524.91,-194.32 531.89,-193.8"/>
</a>
</g>
</g>
<!-- Node18&#45;&gt;Node19 -->
<g id="edge23_Node000018_Node000019" class="edge">
<title>Node18&#45;&gt;Node19</title>
<g id="a_edge23_Node000018_Node000019"><a xlink:title=" ">
<path fill="none" stroke="#63b8ff" d="M848.82,-219.98C862.15,-211.77 882.58,-199.18 898.31,-189.49"/>
<polygon fill="#63b8ff" stroke="#63b8ff" points="900.25,-192.4 906.93,-184.17 896.58,-186.44 900.25,-192.4"/>
</a>
</g>
</g>
<!-- Node20 -->
<g id="Node000020" class="node">
<title>Node20</title>
<g id="a_Node000020"><a xlink:href="http_2forward_8h.html" target="_top" xlink:title=" ">
<polygon fill="white" stroke="#666666" points="878,-184 792,-184 792,-165 878,-165 878,-184"/>
<text text-anchor="middle" x="835" y="-172" font-family="Helvetica,sans-Serif" font-size="10.00">http/forward.h</text>
</a>
</g>
</g>
<!-- Node18&#45;&gt;Node20 -->
<g id="edge24_Node000018_Node000020" class="edge">
<title>Node18&#45;&gt;Node20</title>
<g id="a_edge24_Node000018_Node000020"><a xlink:title=" ">
<path fill="none" stroke="#63b8ff" d="M835,-219.75C835,-212.8 835,-202.85 835,-194.13"/>
<polygon fill="#63b8ff" stroke="#63b8ff" points="838.5,-194.09 835,-184.09 831.5,-194.09 838.5,-194.09"/>
</a>
</g>
</g>
<!-- Node29 -->
<g id="Node000029" class="node">
<title>Node29</title>
<g id="a_Node000029"><a xlink:href="store_2forward_8h.html" target="_top" xlink:title=" ">
<polygon fill="white" stroke="#666666" points="773.5,-184 682.5,-184 682.5,-165 773.5,-165 773.5,-184"/>
<text text-anchor="middle" x="728" y="-172" font-family="Helvetica,sans-Serif" font-size="10.00">store/forward.h</text>
</a>
</g>
</g>
<!-- Node18&#45;&gt;Node29 -->
<g id="edge34_Node000018_Node000029" class="edge">
<title>Node18&#45;&gt;Node29</title>
<g id="a_edge34_Node000018_Node000029"><a xlink:title=" ">
<path fill="none" stroke="#63b8ff" d="M817.81,-219.98C800.75,-211.54 774.37,-198.47 754.6,-188.68"/>
<polygon fill="#63b8ff" stroke="#63b8ff" points="756.02,-185.47 745.5,-184.17 752.91,-191.75 756.02,-185.47"/>
</a>
</g>
</g>
<!-- Node21 -->
<g id="Node000021" class="node">
<title>Node21</title>
<g id="a_Node000021"><a xlink:href="http_2one_2forward_8h.html" target="_top" xlink:title=" ">
<polygon fill="white" stroke="#666666" points="919.5,-129 812.5,-129 812.5,-110 919.5,-110 919.5,-129"/>
<text text-anchor="middle" x="866" y="-117" font-family="Helvetica,sans-Serif" font-size="10.00">http/one/forward.h</text>
</a>
</g>
</g>
<!-- Node20&#45;&gt;Node21 -->
<g id="edge25_Node000020_Node000021" class="edge">
<title>Node20&#45;&gt;Node21</title>
<g id="a_edge25_Node000020_Node000021"><a xlink:title=" ">
<path fill="none" stroke="#63b8ff" d="M840.12,-164.75C844.36,-157.49 850.53,-146.95 855.78,-137.98"/>
<polygon fill="#63b8ff" stroke="#63b8ff" points="858.95,-139.49 860.98,-129.09 852.91,-135.95 858.95,-139.49"/>
</a>
</g>
</g>
<!-- Node22 -->
<g id="Node000022" class="node">
<title>Node22</title>
<g id="a_Node000022"><a xlink:href="RefCount_8h.html" target="_top" xlink:title=" ">
<polygon fill="white" stroke="#666666" points="922.5,-74 825.5,-74 825.5,-55 922.5,-55 922.5,-74"/>
<text text-anchor="middle" x="874" y="-62" font-family="Helvetica,sans-Serif" font-size="10.00">base/RefCount.h</text>
</a>
</g>
</g>
<!-- Node21&#45;&gt;Node22 -->
<g id="edge26_Node000021_Node000022" class="edge">
<title>Node21&#45;&gt;Node22</title>
<g id="a_edge26_Node000021_Node000022"><a xlink:title=" ">
<path fill="none" stroke="#63b8ff" d="M867.32,-109.75C868.37,-102.8 869.87,-92.85 871.19,-84.13"/>
<polygon fill="#63b8ff" stroke="#63b8ff" points="874.67,-84.5 872.7,-74.09 867.75,-83.45 874.67,-84.5"/>
</a>
</g>
</g>
<!-- Node25 -->
<g id="Node000025" class="node">
<title>Node25</title>
<g id="a_Node000025"><a xlink:href="parser_2forward_8h.html" target="_top" xlink:title=" ">
<polygon fill="white" stroke="#666666" points="807.5,-74 710.5,-74 710.5,-55 807.5,-55 807.5,-74"/>
<text text-anchor="middle" x="759" y="-62" font-family="Helvetica,sans-Serif" font-size="10.00">parser/forward.h</text>
</a>
</g>
</g>
<!-- Node21&#45;&gt;Node25 -->
<g id="edge30_Node000021_Node000025" class="edge">
<title>Node21&#45;&gt;Node25</title>
<g id="a_edge30_Node000021_Node000025"><a xlink:title=" ">
<path fill="none" stroke="#63b8ff" d="M848.81,-109.98C831.75,-101.54 805.37,-88.47 785.6,-78.68"/>
<polygon fill="#63b8ff" stroke="#63b8ff" points="787.02,-75.47 776.5,-74.17 783.91,-81.75 787.02,-75.47"/>
</a>
</g>
</g>
<!-- Node21&#45;&gt;Node26 -->
<g id="edge31_Node000021_Node000026" class="edge">
<title>Node21&#45;&gt;Node26</title>
<g id="a_edge31_Node000021_Node000026"><a xlink:title=" ">
<path fill="none" stroke="#63b8ff" d="M896.85,-109.98C929.5,-100.97 981.2,-86.7 1017.2,-76.76"/>
<polygon fill="#63b8ff" stroke="#63b8ff" points="1018.2,-80.12 1026.91,-74.08 1016.34,-73.37 1018.2,-80.12"/>
</a>
</g>
</g>
<!-- Node22&#45;&gt;Node12 -->
<g id="edge28_Node000022_Node000012" class="edge">
<title>Node22&#45;&gt;Node12</title>
<g id="a_edge28_Node000022_Node000012"><a xlink:title=" ">
<path fill="none" stroke="#63b8ff" d="M825.49,-55.04C765.97,-44.67 666.11,-27.26 610.5,-17.56"/>
<polygon fill="#63b8ff" stroke="#63b8ff" points="610.77,-14.06 600.32,-15.79 609.57,-20.95 610.77,-14.06"/>
</a>
</g>
</g>
<!-- Node23 -->
<g id="Node000023" class="node">
<title>Node23</title>
<g id="a_Node000023"><a xlink:href="Lock_8h.html" target="_top" xlink:title=" ">
<polygon fill="white" stroke="#666666" points="927,-19 853,-19 853,0 927,0 927,-19"/>
<text text-anchor="middle" x="890" y="-7" font-family="Helvetica,sans-Serif" font-size="10.00">base/Lock.h</text>
</a>
</g>
</g>
<!-- Node22&#45;&gt;Node23 -->
<g id="edge27_Node000022_Node000023" class="edge">
<title>Node22&#45;&gt;Node23</title>
<g id="a_edge27_Node000022_Node000023"><a xlink:title=" ">
<path fill="none" stroke="#63b8ff" d="M876.64,-54.75C878.76,-47.72 881.81,-37.62 884.46,-28.84"/>
<polygon fill="#63b8ff" stroke="#63b8ff" points="887.87,-29.67 887.41,-19.09 881.17,-27.65 887.87,-29.67"/>
</a>
</g>
</g>
<!-- Node24 -->
<g id="Node000024" class="node">
<title>Node24</title>
<g id="a_Node000024"><a xlink:title=" ">
<polygon fill="#e0e0e0" stroke="#999999" points="834.5,-19 789.5,-19 789.5,0 834.5,0 834.5,-19"/>
<text text-anchor="middle" x="812" y="-7" font-family="Helvetica,sans-Serif" font-size="10.00">utility</text>
</a>
</g>
</g>
<!-- Node22&#45;&gt;Node24 -->
<g id="edge29_Node000022_Node000024" class="edge">
<title>Node22&#45;&gt;Node24</title>
<g id="a_edge29_Node000022_Node000024"><a xlink:title=" ">
<path fill="none" stroke="#63b8ff" d="M864.04,-54.98C854.87,-47.15 841.06,-35.34 829.97,-25.86"/>
<polygon fill="#63b8ff" stroke="#63b8ff" points="832.02,-23.01 822.14,-19.17 827.47,-28.33 832.02,-23.01"/>
</a>
</g>
</g>
<!-- Node27 -->
<g id="Node000027" class="node">
<title>Node27</title>
<g id="a_Node000027"><a xlink:title=" ">
<polygon fill="#e0e0e0" stroke="#999999" points="1123.5,-19 1058.5,-19 1058.5,0 1123.5,0 1123.5,-19"/>
<text text-anchor="middle" x="1091" y="-7" font-family="Helvetica,sans-Serif" font-size="10.00">functional</text>
</a>
</g>
</g>
<!-- Node26&#45;&gt;Node27 -->
<g id="edge32_Node000026_Node000027" class="edge">
<title>Node26&#45;&gt;Node27</title>
<g id="a_edge32_Node000026_Node000027"><a xlink:title=" ">
<path fill="none" stroke="#63b8ff" d="M1063.45,-54.75C1068.01,-47.42 1074.67,-36.73 1080.29,-27.7"/>
<polygon fill="#63b8ff" stroke="#63b8ff" points="1083.34,-29.43 1085.65,-19.09 1077.4,-25.73 1083.34,-29.43"/>
</a>
</g>
</g>
<!-- Node28 -->
<g id="Node000028" class="node">
<title>Node28</title>
<g id="a_Node000028"><a xlink:title=" ">
<polygon fill="#e0e0e0" stroke="#999999" points="1040,-19 1008,-19 1008,0 1040,0 1040,-19"/>
<text text-anchor="middle" x="1024" y="-7" font-family="Helvetica,sans-Serif" font-size="10.00">list</text>
</a>
</g>
</g>
<!-- Node26&#45;&gt;Node28 -->
<g id="edge33_Node000026_Node000028" class="edge">
<title>Node26&#45;&gt;Node28</title>
<g id="a_edge33_Node000026_Node000028"><a xlink:title=" ">
<path fill="none" stroke="#63b8ff" d="M1052.39,-54.75C1047.68,-47.42 1040.83,-36.73 1035.03,-27.7"/>
<polygon fill="#63b8ff" stroke="#63b8ff" points="1037.86,-25.62 1029.51,-19.09 1031.96,-29.4 1037.86,-25.62"/>
</a>
</g>
</g>
<!-- Node33&#45;&gt;Node4 -->
<g id="edge41_Node000033_Node000004" class="edge">
<title>Node33&#45;&gt;Node4</title>
<g id="a_edge41_Node000033_Node000004"><a xlink:title=" ">
<path fill="none" stroke="#63b8ff" d="M851.38,-329.98C827.1,-321.23 789.05,-307.51 761.63,-297.62"/>
<polygon fill="#63b8ff" stroke="#63b8ff" points="762.64,-294.27 752.05,-294.17 760.27,-300.85 762.64,-294.27"/>
</a>
</g>
</g>
<!-- Node33&#45;&gt;Node22 -->
<g id="edge42_Node000033_Node000022" class="edge">
<title>Node33&#45;&gt;Node22</title>
<g id="a_edge42_Node000033_Node000022"><a xlink:title=" ">
<path fill="none" stroke="#63b8ff" d="M923.21,-337.84C960.32,-334.76 1010.45,-324.61 1042,-294 1063.14,-273.49 1061,-259.96 1061,-230.5 1061,-230.5 1061,-230.5 1061,-173.5 1061,-113.32 987.49,-86.15 932.64,-74.25"/>
<polygon fill="#63b8ff" stroke="#63b8ff" points="933.14,-70.78 922.64,-72.2 931.74,-77.64 933.14,-70.78"/>
</a>
</g>
</g>
<!-- Node34 -->
<g id="Node000034" class="node">
<title>Node34</title>
<g id="a_Node000034"><a xlink:title=" ">
<polygon fill="#e0e0e0" stroke="#999999" points="1033,-294 941,-294 941,-275 1033,-275 1033,-294"/>
<text text-anchor="middle" x="987" y="-282" font-family="Helvetica,sans-Serif" font-size="10.00">mem/forward.h</text>
</a>
</g>
</g>
<!-- Node33&#45;&gt;Node34 -->
<g id="edge43_Node000033_Node000034" class="edge">
<title>Node33&#45;&gt;Node34</title>
<g id="a_edge43_Node000033_Node000034"><a xlink:title=" ">
<path fill="none" stroke="#63b8ff" d="M892.99,-329.98C910.93,-321.5 938.72,-308.35 959.43,-298.54"/>
<polygon fill="#63b8ff" stroke="#63b8ff" points="961.14,-301.61 968.68,-294.17 958.14,-295.28 961.14,-301.61"/>
</a>
</g>
</g>
<!-- Node35&#45;&gt;Node5 -->
<g id="edge45_Node000035_Node000005" class="edge">
<title>Node35&#45;&gt;Node5</title>
<g id="a_edge45_Node000035_Node000005"><a xlink:title=" ">
<path fill="none" stroke="#63b8ff" d="M74.13,-221.47C77.13,-220.95 80.11,-220.46 83,-220 192.92,-202.58 323.83,-186.61 384.71,-179.45"/>
<polygon fill="#63b8ff" stroke="#63b8ff" points="385.38,-182.9 394.9,-178.26 384.56,-175.95 385.38,-182.9"/>
</a>
</g>
</g>
</g>
</svg>
