<?xml version="1.0" encoding="UTF-8" standalone="no"?>
<!DOCTYPE svg PUBLIC "-//W3C//DTD SVG 1.1//EN"
 "http://www.w3.org/Graphics/SVG/1.1/DTD/svg11.dtd">
<!-- Generated by graphviz version 2.43.0 (0)
 -->
<!-- Title: squid/test&#45;suite/mem_node_test.cc Pages: 1 -->
<svg width="3471pt" height="313pt"
 viewBox="0.00 0.00 3471.00 313.00" xmlns="http://www.w3.org/2000/svg" xmlns:xlink="http://www.w3.org/1999/xlink">
<g id="graph0" class="graph" transform="scale(1 1) rotate(0) translate(4 309)">
<title>squid/test&#45;suite/mem_node_test.cc</title>
<!-- Node1 -->
<g id="Node000001" class="node">
<title>Node1</title>
<g id="a_Node000001"><a xlink:title=" ">
<polygon fill="#999999" stroke="#666666" points="3359,-305 3238,-305 3238,-275 3359,-275 3359,-305"/>
<text text-anchor="start" x="3246" y="-293" font-family="Helvetica,sans-Serif" font-size="10.00">squid/test&#45;suite/mem</text>
<text text-anchor="middle" x="3298.5" y="-282" font-family="Helvetica,sans-Serif" font-size="10.00">_node_test.cc</text>
</a>
</g>
</g>
<!-- Node2 -->
<g id="Node000002" class="node">
<title>Node2</title>
<g id="a_Node000002"><a xlink:href="squid_8h.html" target="_top" xlink:title=" ">
<polygon fill="white" stroke="#666666" points="1653.5,-239 1601.5,-239 1601.5,-220 1653.5,-220 1653.5,-239"/>
<text text-anchor="middle" x="1627.5" y="-227" font-family="Helvetica,sans-Serif" font-size="10.00">squid.h</text>
</a>
</g>
</g>
<!-- Node1&#45;&gt;Node2 -->
<g id="edge1_Node000001_Node000002" class="edge">
<title>Node1&#45;&gt;Node2</title>
<g id="a_edge1_Node000001_Node000002"><a xlink:title=" ">
<path fill="none" stroke="#63b8ff" d="M3237.54,-286.87C2966.69,-277.38 1876.2,-239.21 1663.55,-231.76"/>
<polygon fill="#63b8ff" stroke="#63b8ff" points="1663.66,-228.26 1653.54,-231.41 1663.41,-235.26 1663.66,-228.26"/>
</a>
</g>
</g>
<!-- Node44 -->
<g id="Node000044" class="node">
<title>Node44</title>
<g id="a_Node000044"><a xlink:href="mem__node_8h.html" target="_top" xlink:title=" ">
<polygon fill="white" stroke="#666666" points="3338.5,-239 3258.5,-239 3258.5,-220 3338.5,-220 3338.5,-239"/>
<text text-anchor="middle" x="3298.5" y="-227" font-family="Helvetica,sans-Serif" font-size="10.00">mem_node.h</text>
</a>
</g>
</g>
<!-- Node1&#45;&gt;Node44 -->
<g id="edge40_Node000001_Node000044" class="edge">
<title>Node1&#45;&gt;Node44</title>
<g id="a_edge40_Node000001_Node000044"><a xlink:title=" ">
<path fill="none" stroke="#63b8ff" d="M3298.5,-274.84C3298.5,-267.21 3298.5,-257.7 3298.5,-249.45"/>
<polygon fill="#63b8ff" stroke="#63b8ff" points="3302,-249.27 3298.5,-239.27 3295,-249.27 3302,-249.27"/>
</a>
</g>
</g>
<!-- Node55 -->
<g id="Node000055" class="node">
<title>Node55</title>
<g id="a_Node000055"><a xlink:title=" ">
<polygon fill="#e0e0e0" stroke="#999999" points="3416.5,-239 3356.5,-239 3356.5,-220 3416.5,-220 3416.5,-239"/>
<text text-anchor="middle" x="3386.5" y="-227" font-family="Helvetica,sans-Serif" font-size="10.00">iostream</text>
</a>
</g>
</g>
<!-- Node1&#45;&gt;Node55 -->
<g id="edge52_Node000001_Node000055" class="edge">
<title>Node1&#45;&gt;Node55</title>
<g id="a_edge52_Node000001_Node000055"><a xlink:title=" ">
<path fill="none" stroke="#63b8ff" d="M3319.8,-274.84C3333.57,-265.68 3351.43,-253.82 3365.2,-244.66"/>
<polygon fill="#63b8ff" stroke="#63b8ff" points="3367.18,-247.55 3373.57,-239.09 3363.31,-241.72 3367.18,-247.55"/>
</a>
</g>
</g>
<!-- Node3 -->
<g id="Node000003" class="node">
<title>Node3</title>
<g id="a_Node000003"><a xlink:href="autoconf_8h.html" target="_top" xlink:title=" ">
<polygon fill="white" stroke="#666666" points="1528.5,-184 1460.5,-184 1460.5,-165 1528.5,-165 1528.5,-184"/>
<text text-anchor="middle" x="1494.5" y="-172" font-family="Helvetica,sans-Serif" font-size="10.00">autoconf.h</text>
</a>
</g>
</g>
<!-- Node2&#45;&gt;Node3 -->
<g id="edge2_Node000002_Node000003" class="edge">
<title>Node2&#45;&gt;Node3</title>
<g id="a_edge2_Node000002_Node000003"><a xlink:title=" ">
<path fill="none" stroke="#63b8ff" d="M1606.13,-219.98C1584.35,-211.3 1550.34,-197.75 1525.58,-187.88"/>
<polygon fill="#63b8ff" stroke="#63b8ff" points="1526.84,-184.62 1516.26,-184.17 1524.25,-191.12 1526.84,-184.62"/>
</a>
</g>
</g>
<!-- Node4 -->
<g id="Node000004" class="node">
<title>Node4</title>
<g id="a_Node000004"><a xlink:href="version_8h.html" target="_top" xlink:title=" ">
<polygon fill="white" stroke="#666666" points="1608.5,-184 1546.5,-184 1546.5,-165 1608.5,-165 1608.5,-184"/>
<text text-anchor="middle" x="1577.5" y="-172" font-family="Helvetica,sans-Serif" font-size="10.00">version.h</text>
</a>
</g>
</g>
<!-- Node2&#45;&gt;Node4 -->
<g id="edge3_Node000002_Node000004" class="edge">
<title>Node2&#45;&gt;Node4</title>
<g id="a_edge3_Node000002_Node000004"><a xlink:title=" ">
<path fill="none" stroke="#63b8ff" d="M1619.24,-219.75C1612.04,-212.11 1601.39,-200.82 1592.65,-191.56"/>
<polygon fill="#63b8ff" stroke="#63b8ff" points="1595.01,-188.96 1585.6,-184.09 1589.92,-193.76 1595.01,-188.96"/>
</a>
</g>
</g>
<!-- Node5 -->
<g id="Node000005" class="node">
<title>Node5</title>
<g id="a_Node000005"><a xlink:href="compat_8h.html" target="_top" xlink:title=" ">
<polygon fill="white" stroke="#666666" points="1728.5,-184 1626.5,-184 1626.5,-165 1728.5,-165 1728.5,-184"/>
<text text-anchor="middle" x="1677.5" y="-172" font-family="Helvetica,sans-Serif" font-size="10.00">compat/compat.h</text>
</a>
</g>
</g>
<!-- Node2&#45;&gt;Node5 -->
<g id="edge4_Node000002_Node000005" class="edge">
<title>Node2&#45;&gt;Node5</title>
<g id="a_edge4_Node000002_Node000005"><a xlink:title=" ">
<path fill="none" stroke="#63b8ff" d="M1635.76,-219.75C1642.96,-212.11 1653.61,-200.82 1662.35,-191.56"/>
<polygon fill="#63b8ff" stroke="#63b8ff" points="1665.08,-193.76 1669.4,-184.09 1659.99,-188.96 1665.08,-193.76"/>
</a>
</g>
</g>
<!-- Node6 -->
<g id="Node000006" class="node">
<title>Node6</title>
<g id="a_Node000006"><a xlink:href="osdetect_8h.html" target="_top" xlink:title=" ">
<polygon fill="white" stroke="#666666" points="107,-129 0,-129 0,-110 107,-110 107,-129"/>
<text text-anchor="middle" x="53.5" y="-117" font-family="Helvetica,sans-Serif" font-size="10.00">compat/osdetect.h</text>
</a>
</g>
</g>
<!-- Node5&#45;&gt;Node6 -->
<g id="edge5_Node000005_Node000006" class="edge">
<title>Node5&#45;&gt;Node6</title>
<g id="a_edge5_Node000005_Node000006"><a xlink:title=" ">
<path fill="none" stroke="#63b8ff" d="M1626.48,-165.86C1623.45,-165.53 1620.44,-165.24 1617.5,-165 955.87,-110.39 783.48,-180.96 117.41,-128.95"/>
<polygon fill="#63b8ff" stroke="#63b8ff" points="117.32,-125.43 107.07,-128.14 116.77,-132.41 117.32,-125.43"/>
</a>
</g>
</g>
<!-- Node7 -->
<g id="Node000007" class="node">
<title>Node7</title>
<g id="a_Node000007"><a xlink:href="fdsetsize_8h.html" target="_top" xlink:title=" ">
<polygon fill="white" stroke="#666666" points="235.5,-129 125.5,-129 125.5,-110 235.5,-110 235.5,-129"/>
<text text-anchor="middle" x="180.5" y="-117" font-family="Helvetica,sans-Serif" font-size="10.00">compat/fdsetsize.h</text>
</a>
</g>
</g>
<!-- Node5&#45;&gt;Node7 -->
<g id="edge6_Node000005_Node000007" class="edge">
<title>Node5&#45;&gt;Node7</title>
<g id="a_edge6_Node000005_Node000007"><a xlink:title=" ">
<path fill="none" stroke="#63b8ff" d="M1626.48,-165.87C1623.45,-165.54 1620.44,-165.25 1617.5,-165 1012.61,-114.39 854.79,-176.55 245.98,-129.01"/>
<polygon fill="#63b8ff" stroke="#63b8ff" points="245.86,-125.49 235.62,-128.2 245.31,-132.47 245.86,-125.49"/>
</a>
</g>
</g>
<!-- Node8 -->
<g id="Node000008" class="node">
<title>Node8</title>
<g id="a_Node000008"><a xlink:href="types_8h.html" target="_top" xlink:title=" ">
<polygon fill="white" stroke="#666666" points="345.5,-129 253.5,-129 253.5,-110 345.5,-110 345.5,-129"/>
<text text-anchor="middle" x="299.5" y="-117" font-family="Helvetica,sans-Serif" font-size="10.00">compat/types.h</text>
</a>
</g>
</g>
<!-- Node5&#45;&gt;Node8 -->
<g id="edge7_Node000005_Node000008" class="edge">
<title>Node5&#45;&gt;Node8</title>
<g id="a_edge7_Node000005_Node000008"><a xlink:title=" ">
<path fill="none" stroke="#63b8ff" d="M1626.48,-165.88C1623.45,-165.55 1620.44,-165.25 1617.5,-165 1061.36,-117.83 915.52,-179.23 356.02,-129"/>
<polygon fill="#63b8ff" stroke="#63b8ff" points="355.94,-125.48 345.66,-128.06 355.31,-132.45 355.94,-125.48"/>
</a>
</g>
</g>
<!-- Node10 -->
<g id="Node000010" class="node">
<title>Node10</title>
<g id="a_Node000010"><a xlink:href="aix_8h.html" target="_top" xlink:title=" ">
<polygon fill="white" stroke="#666666" points="459,-129 364,-129 364,-110 459,-110 459,-129"/>
<text text-anchor="middle" x="411.5" y="-117" font-family="Helvetica,sans-Serif" font-size="10.00">compat/os/aix.h</text>
</a>
</g>
</g>
<!-- Node5&#45;&gt;Node10 -->
<g id="edge9_Node000005_Node000010" class="edge">
<title>Node5&#45;&gt;Node10</title>
<g id="a_edge9_Node000005_Node000010"><a xlink:title=" ">
<path fill="none" stroke="#63b8ff" d="M1626.48,-165.89C1623.45,-165.55 1620.43,-165.25 1617.5,-165 1111.83,-121.39 979.11,-174.05 469.24,-128.92"/>
<polygon fill="#63b8ff" stroke="#63b8ff" points="469.31,-125.42 459.04,-128.01 468.68,-132.39 469.31,-125.42"/>
</a>
</g>
</g>
<!-- Node11 -->
<g id="Node000011" class="node">
<title>Node11</title>
<g id="a_Node000011"><a xlink:href="android_8h.html" target="_top" xlink:title=" ">
<polygon fill="white" stroke="#666666" points="593.5,-129 477.5,-129 477.5,-110 593.5,-110 593.5,-129"/>
<text text-anchor="middle" x="535.5" y="-117" font-family="Helvetica,sans-Serif" font-size="10.00">compat/os/android.h</text>
</a>
</g>
</g>
<!-- Node5&#45;&gt;Node11 -->
<g id="edge10_Node000005_Node000011" class="edge">
<title>Node5&#45;&gt;Node11</title>
<g id="a_edge10_Node000005_Node000011"><a xlink:title=" ">
<path fill="none" stroke="#63b8ff" d="M1626.48,-165.9C1623.44,-165.56 1620.43,-165.26 1617.5,-165 1171.15,-125.58 1054.13,-164.86 603.6,-129"/>
<polygon fill="#63b8ff" stroke="#63b8ff" points="603.82,-125.51 593.57,-128.19 603.26,-132.48 603.82,-125.51"/>
</a>
</g>
</g>
<!-- Node12 -->
<g id="Node000012" class="node">
<title>Node12</title>
<g id="a_Node000012"><a xlink:href="dragonfly_8h.html" target="_top" xlink:title=" ">
<polygon fill="white" stroke="#666666" points="735.5,-129 611.5,-129 611.5,-110 735.5,-110 735.5,-129"/>
<text text-anchor="middle" x="673.5" y="-117" font-family="Helvetica,sans-Serif" font-size="10.00">compat/os/dragonfly.h</text>
</a>
</g>
</g>
<!-- Node5&#45;&gt;Node12 -->
<g id="edge11_Node000005_Node000012" class="edge">
<title>Node5&#45;&gt;Node12</title>
<g id="a_edge11_Node000005_Node000012"><a xlink:title=" ">
<path fill="none" stroke="#63b8ff" d="M1626.48,-165.92C1623.44,-165.58 1620.43,-165.27 1617.5,-165 1234.08,-130.02 1133.3,-159.59 745.89,-129.04"/>
<polygon fill="#63b8ff" stroke="#63b8ff" points="746.06,-125.54 735.81,-128.24 745.5,-132.52 746.06,-125.54"/>
</a>
</g>
</g>
<!-- Node13 -->
<g id="Node000013" class="node">
<title>Node13</title>
<g id="a_Node000013"><a xlink:href="freebsd_8h.html" target="_top" xlink:title=" ">
<polygon fill="white" stroke="#666666" points="869.5,-129 753.5,-129 753.5,-110 869.5,-110 869.5,-129"/>
<text text-anchor="middle" x="811.5" y="-117" font-family="Helvetica,sans-Serif" font-size="10.00">compat/os/freebsd.h</text>
</a>
</g>
</g>
<!-- Node5&#45;&gt;Node13 -->
<g id="edge12_Node000005_Node000013" class="edge">
<title>Node5&#45;&gt;Node13</title>
<g id="a_edge12_Node000005_Node000013"><a xlink:title=" ">
<path fill="none" stroke="#63b8ff" d="M1626.47,-165.95C1623.44,-165.6 1620.43,-165.28 1617.5,-165 1293.5,-134.22 1207.83,-157.23 879.85,-129.04"/>
<polygon fill="#63b8ff" stroke="#63b8ff" points="879.84,-125.53 869.58,-128.15 879.23,-132.5 879.84,-125.53"/>
</a>
</g>
</g>
<!-- Node14 -->
<g id="Node000014" class="node">
<title>Node14</title>
<g id="a_Node000014"><a xlink:href="hpux_8h.html" target="_top" xlink:title=" ">
<polygon fill="white" stroke="#666666" points="991.5,-129 887.5,-129 887.5,-110 991.5,-110 991.5,-129"/>
<text text-anchor="middle" x="939.5" y="-117" font-family="Helvetica,sans-Serif" font-size="10.00">compat/os/hpux.h</text>
</a>
</g>
</g>
<!-- Node5&#45;&gt;Node14 -->
<g id="edge13_Node000005_Node000014" class="edge">
<title>Node5&#45;&gt;Node14</title>
<g id="a_edge13_Node000005_Node000014"><a xlink:title=" ">
<path fill="none" stroke="#63b8ff" d="M1626.47,-165.98C1623.44,-165.62 1620.43,-165.29 1617.5,-165 1347.51,-138.05 1275.61,-155.54 1001.95,-129.06"/>
<polygon fill="#63b8ff" stroke="#63b8ff" points="1002,-125.55 991.71,-128.06 1001.32,-132.51 1002,-125.55"/>
</a>
</g>
</g>
<!-- Node15 -->
<g id="Node000015" class="node">
<title>Node15</title>
<g id="a_Node000015"><a xlink:href="linux_8h.html" target="_top" xlink:title=" ">
<polygon fill="white" stroke="#666666" points="1113.5,-129 1009.5,-129 1009.5,-110 1113.5,-110 1113.5,-129"/>
<text text-anchor="middle" x="1061.5" y="-117" font-family="Helvetica,sans-Serif" font-size="10.00">compat/os/linux.h</text>
</a>
</g>
</g>
<!-- Node5&#45;&gt;Node15 -->
<g id="edge14_Node000005_Node000015" class="edge">
<title>Node5&#45;&gt;Node15</title>
<g id="a_edge14_Node000005_Node000015"><a xlink:title=" ">
<path fill="none" stroke="#63b8ff" d="M1626.47,-166.03C1623.44,-165.66 1620.43,-165.31 1617.5,-165 1401.49,-141.87 1343.6,-151.92 1123.96,-129.08"/>
<polygon fill="#63b8ff" stroke="#63b8ff" points="1124.03,-125.57 1113.72,-128.01 1123.3,-132.53 1124.03,-125.57"/>
</a>
</g>
</g>
<!-- Node16 -->
<g id="Node000016" class="node">
<title>Node16</title>
<g id="a_Node000016"><a xlink:href="macosx_8h.html" target="_top" xlink:title=" ">
<polygon fill="white" stroke="#666666" points="1249.5,-129 1131.5,-129 1131.5,-110 1249.5,-110 1249.5,-129"/>
<text text-anchor="middle" x="1190.5" y="-117" font-family="Helvetica,sans-Serif" font-size="10.00">compat/os/macosx.h</text>
</a>
</g>
</g>
<!-- Node5&#45;&gt;Node16 -->
<g id="edge15_Node000005_Node000016" class="edge">
<title>Node5&#45;&gt;Node16</title>
<g id="a_edge15_Node000005_Node000016"><a xlink:title=" ">
<path fill="none" stroke="#63b8ff" d="M1626.46,-166.12C1623.43,-165.73 1620.42,-165.35 1617.5,-165 1461.57,-146.14 1419.56,-146.91 1260.01,-129.14"/>
<polygon fill="#63b8ff" stroke="#63b8ff" points="1260.16,-125.64 1249.83,-128 1259.38,-132.59 1260.16,-125.64"/>
</a>
</g>
</g>
<!-- Node17 -->
<g id="Node000017" class="node">
<title>Node17</title>
<g id="a_Node000017"><a xlink:href="mingw_8h.html" target="_top" xlink:title=" ">
<polygon fill="white" stroke="#666666" points="1379.5,-129 1267.5,-129 1267.5,-110 1379.5,-110 1379.5,-129"/>
<text text-anchor="middle" x="1323.5" y="-117" font-family="Helvetica,sans-Serif" font-size="10.00">compat/os/mingw.h</text>
</a>
</g>
</g>
<!-- Node5&#45;&gt;Node17 -->
<g id="edge16_Node000005_Node000017" class="edge">
<title>Node5&#45;&gt;Node17</title>
<g id="a_edge16_Node000005_Node000017"><a xlink:title=" ">
<path fill="none" stroke="#63b8ff" d="M1626.4,-165.85C1564.03,-156.51 1458.4,-140.7 1389.81,-130.43"/>
<polygon fill="#63b8ff" stroke="#63b8ff" points="1389.96,-126.91 1379.55,-128.89 1388.92,-133.83 1389.96,-126.91"/>
</a>
</g>
</g>
<!-- Node18 -->
<g id="Node000018" class="node">
<title>Node18</title>
<g id="a_Node000018"><a xlink:href="mswindows_8h.html" target="_top" xlink:title=" ">
<polygon fill="white" stroke="#666666" points="1535,-129 1398,-129 1398,-110 1535,-110 1535,-129"/>
<text text-anchor="middle" x="1466.5" y="-117" font-family="Helvetica,sans-Serif" font-size="10.00">compat/os/mswindows.h</text>
</a>
</g>
</g>
<!-- Node5&#45;&gt;Node18 -->
<g id="edge17_Node000005_Node000018" class="edge">
<title>Node5&#45;&gt;Node18</title>
<g id="a_edge17_Node000005_Node000018"><a xlink:title=" ">
<path fill="none" stroke="#63b8ff" d="M1643.6,-164.98C1607.48,-155.91 1550.18,-141.52 1510.58,-131.57"/>
<polygon fill="#63b8ff" stroke="#63b8ff" points="1511.22,-128.12 1500.67,-129.08 1509.51,-134.91 1511.22,-128.12"/>
</a>
</g>
</g>
<!-- Node19 -->
<g id="Node000019" class="node">
<title>Node19</title>
<g id="a_Node000019"><a xlink:href="netbsd_8h.html" target="_top" xlink:title=" ">
<polygon fill="white" stroke="#666666" points="1666,-129 1553,-129 1553,-110 1666,-110 1666,-129"/>
<text text-anchor="middle" x="1609.5" y="-117" font-family="Helvetica,sans-Serif" font-size="10.00">compat/os/netbsd.h</text>
</a>
</g>
</g>
<!-- Node5&#45;&gt;Node19 -->
<g id="edge18_Node000005_Node000019" class="edge">
<title>Node5&#45;&gt;Node19</title>
<g id="a_edge18_Node000005_Node000019"><a xlink:title=" ">
<path fill="none" stroke="#63b8ff" d="M1666.57,-164.98C1656.42,-157.07 1641.08,-145.11 1628.85,-135.58"/>
<polygon fill="#63b8ff" stroke="#63b8ff" points="1630.66,-132.56 1620.62,-129.17 1626.36,-138.08 1630.66,-132.56"/>
</a>
</g>
</g>
<!-- Node20 -->
<g id="Node000020" class="node">
<title>Node20</title>
<g id="a_Node000020"><a xlink:href="openbsd_8h.html" target="_top" xlink:title=" ">
<polygon fill="white" stroke="#666666" points="1805,-129 1684,-129 1684,-110 1805,-110 1805,-129"/>
<text text-anchor="middle" x="1744.5" y="-117" font-family="Helvetica,sans-Serif" font-size="10.00">compat/os/openbsd.h</text>
</a>
</g>
</g>
<!-- Node5&#45;&gt;Node20 -->
<g id="edge19_Node000005_Node000020" class="edge">
<title>Node5&#45;&gt;Node20</title>
<g id="a_edge19_Node000005_Node000020"><a xlink:title=" ">
<path fill="none" stroke="#63b8ff" d="M1688.26,-164.98C1698.27,-157.07 1713.39,-145.11 1725.43,-135.58"/>
<polygon fill="#63b8ff" stroke="#63b8ff" points="1727.87,-138.12 1733.54,-129.17 1723.53,-132.63 1727.87,-138.12"/>
</a>
</g>
</g>
<!-- Node21 -->
<g id="Node000021" class="node">
<title>Node21</title>
<g id="a_Node000021"><a xlink:href="os2_8h.html" target="_top" xlink:title=" ">
<polygon fill="white" stroke="#666666" points="1920,-129 1823,-129 1823,-110 1920,-110 1920,-129"/>
<text text-anchor="middle" x="1871.5" y="-117" font-family="Helvetica,sans-Serif" font-size="10.00">compat/os/os2.h</text>
</a>
</g>
</g>
<!-- Node5&#45;&gt;Node21 -->
<g id="edge20_Node000005_Node000021" class="edge">
<title>Node5&#45;&gt;Node21</title>
<g id="a_edge20_Node000005_Node000021"><a xlink:title=" ">
<path fill="none" stroke="#63b8ff" d="M1708.67,-164.98C1741.66,-155.97 1793.9,-141.7 1830.27,-131.76"/>
<polygon fill="#63b8ff" stroke="#63b8ff" points="1831.36,-135.09 1840.09,-129.08 1829.52,-128.34 1831.36,-135.09"/>
</a>
</g>
</g>
<!-- Node22 -->
<g id="Node000022" class="node">
<title>Node22</title>
<g id="a_Node000022"><a xlink:href="qnx_8h.html" target="_top" xlink:title=" ">
<polygon fill="white" stroke="#666666" points="2036.5,-129 1938.5,-129 1938.5,-110 2036.5,-110 2036.5,-129"/>
<text text-anchor="middle" x="1987.5" y="-117" font-family="Helvetica,sans-Serif" font-size="10.00">compat/os/qnx.h</text>
</a>
</g>
</g>
<!-- Node5&#45;&gt;Node22 -->
<g id="edge21_Node000005_Node000022" class="edge">
<title>Node5&#45;&gt;Node22</title>
<g id="a_edge21_Node000005_Node000022"><a xlink:title=" ">
<path fill="none" stroke="#63b8ff" d="M1727.31,-164.98C1782.04,-155.63 1869.91,-140.6 1928.17,-130.64"/>
<polygon fill="#63b8ff" stroke="#63b8ff" points="1929.06,-134.04 1938.33,-128.91 1927.88,-127.14 1929.06,-134.04"/>
</a>
</g>
</g>
<!-- Node23 -->
<g id="Node000023" class="node">
<title>Node23</title>
<g id="a_Node000023"><a xlink:href="solaris_8h.html" target="_top" xlink:title=" ">
<polygon fill="white" stroke="#666666" points="2166.5,-129 2054.5,-129 2054.5,-110 2166.5,-110 2166.5,-129"/>
<text text-anchor="middle" x="2110.5" y="-117" font-family="Helvetica,sans-Serif" font-size="10.00">compat/os/solaris.h</text>
</a>
</g>
</g>
<!-- Node5&#45;&gt;Node23 -->
<g id="edge22_Node000005_Node000023" class="edge">
<title>Node5&#45;&gt;Node23</title>
<g id="a_edge22_Node000005_Node000023"><a xlink:title=" ">
<path fill="none" stroke="#63b8ff" d="M1728.72,-167.47C1797.88,-159.28 1925.28,-144.08 2044.45,-129.12"/>
<polygon fill="#63b8ff" stroke="#63b8ff" points="2045,-132.58 2054.48,-127.86 2044.13,-125.63 2045,-132.58"/>
</a>
</g>
</g>
<!-- Node24 -->
<g id="Node000024" class="node">
<title>Node24</title>
<g id="a_Node000024"><a xlink:href="sunos_8h.html" target="_top" xlink:title=" ">
<polygon fill="white" stroke="#666666" points="2292.5,-129 2184.5,-129 2184.5,-110 2292.5,-110 2292.5,-129"/>
<text text-anchor="middle" x="2238.5" y="-117" font-family="Helvetica,sans-Serif" font-size="10.00">compat/os/sunos.h</text>
</a>
</g>
</g>
<!-- Node5&#45;&gt;Node24 -->
<g id="edge23_Node000005_Node000024" class="edge">
<title>Node5&#45;&gt;Node24</title>
<g id="a_edge23_Node000005_Node000024"><a xlink:title=" ">
<path fill="none" stroke="#63b8ff" d="M1728.84,-169.68C1817.47,-162.91 2005.16,-147.85 2174.15,-129.11"/>
<polygon fill="#63b8ff" stroke="#63b8ff" points="2174.67,-132.57 2184.22,-127.98 2173.9,-125.61 2174.67,-132.57"/>
</a>
</g>
</g>
<!-- Node25 -->
<g id="Node000025" class="node">
<title>Node25</title>
<g id="a_Node000025"><a xlink:href="assert_8h.html" target="_top" xlink:title=" ">
<polygon fill="white" stroke="#666666" points="2406,-129 2311,-129 2311,-110 2406,-110 2406,-129"/>
<text text-anchor="middle" x="2358.5" y="-117" font-family="Helvetica,sans-Serif" font-size="10.00">compat/assert.h</text>
</a>
</g>
</g>
<!-- Node5&#45;&gt;Node25 -->
<g id="edge24_Node000005_Node000025" class="edge">
<title>Node5&#45;&gt;Node25</title>
<g id="a_edge24_Node000005_Node000025"><a xlink:title=" ">
<path fill="none" stroke="#63b8ff" d="M1728.58,-171.19C1833.63,-166.15 2081.71,-152.76 2300.87,-128.97"/>
<polygon fill="#63b8ff" stroke="#63b8ff" points="2301.39,-132.44 2310.95,-127.87 2300.63,-125.48 2301.39,-132.44"/>
</a>
</g>
</g>
<!-- Node26 -->
<g id="Node000026" class="node">
<title>Node26</title>
<g id="a_Node000026"><a xlink:href="compat__shared_8h.html" target="_top" xlink:title=" ">
<polygon fill="white" stroke="#666666" points="2564.5,-129 2424.5,-129 2424.5,-110 2564.5,-110 2564.5,-129"/>
<text text-anchor="middle" x="2494.5" y="-117" font-family="Helvetica,sans-Serif" font-size="10.00">compat/compat_shared.h</text>
</a>
</g>
</g>
<!-- Node5&#45;&gt;Node26 -->
<g id="edge25_Node000005_Node000026" class="edge">
<title>Node5&#45;&gt;Node26</title>
<g id="a_edge25_Node000005_Node000026"><a xlink:title=" ">
<path fill="none" stroke="#63b8ff" d="M1728.93,-171.2C1847.54,-165.73 2149.62,-150.79 2414.09,-128.99"/>
<polygon fill="#63b8ff" stroke="#63b8ff" points="2414.6,-132.46 2424.28,-128.14 2414.02,-125.48 2414.6,-132.46"/>
</a>
</g>
</g>
<!-- Node36 -->
<g id="Node000036" class="node">
<title>Node36</title>
<g id="a_Node000036"><a xlink:href="stdvarargs_8h.html" target="_top" xlink:title=" ">
<polygon fill="white" stroke="#666666" points="2700,-129 2583,-129 2583,-110 2700,-110 2700,-129"/>
<text text-anchor="middle" x="2641.5" y="-117" font-family="Helvetica,sans-Serif" font-size="10.00">compat/stdvarargs.h</text>
</a>
</g>
</g>
<!-- Node5&#45;&gt;Node36 -->
<g id="edge34_Node000005_Node000036" class="edge">
<title>Node5&#45;&gt;Node36</title>
<g id="a_edge34_Node000005_Node000036"><a xlink:title=" ">
<path fill="none" stroke="#63b8ff" d="M1728.61,-172.3C1864.25,-168.83 2244.8,-157.22 2572.75,-128.99"/>
<polygon fill="#63b8ff" stroke="#63b8ff" points="2573.26,-132.46 2582.92,-128.1 2572.66,-125.48 2573.26,-132.46"/>
</a>
</g>
</g>
<!-- Node38 -->
<g id="Node000038" class="node">
<title>Node38</title>
<g id="a_Node000038"><a xlink:href="stdio_8h.html" target="_top" xlink:title=" ">
<polygon fill="#fff0f0" stroke="red" points="2807,-129 2718,-129 2718,-110 2807,-110 2807,-129"/>
<text text-anchor="middle" x="2762.5" y="-117" font-family="Helvetica,sans-Serif" font-size="10.00">compat/stdio.h</text>
</a>
</g>
</g>
<!-- Node5&#45;&gt;Node38 -->
<g id="edge36_Node000005_Node000038" class="edge">
<title>Node5&#45;&gt;Node38</title>
<g id="a_edge36_Node000005_Node000038"><a xlink:title=" ">
<path fill="none" stroke="#63b8ff" d="M1728.6,-173.33C1877.78,-172.42 2325.72,-166.57 2707.62,-128.95"/>
<polygon fill="#63b8ff" stroke="#63b8ff" points="2708.16,-132.41 2717.76,-127.94 2707.46,-125.45 2708.16,-132.41"/>
</a>
</g>
</g>
<!-- Node40 -->
<g id="Node000040" class="node">
<title>Node40</title>
<g id="a_Node000040"><a xlink:href="statvfs_8h.html" target="_top" xlink:title=" ">
<polygon fill="white" stroke="#666666" points="2924,-129 2825,-129 2825,-110 2924,-110 2924,-129"/>
<text text-anchor="middle" x="2874.5" y="-117" font-family="Helvetica,sans-Serif" font-size="10.00">compat/statvfs.h</text>
</a>
</g>
</g>
<!-- Node5&#45;&gt;Node40 -->
<g id="edge37_Node000005_Node000040" class="edge">
<title>Node5&#45;&gt;Node40</title>
<g id="a_edge37_Node000005_Node000040"><a xlink:title=" ">
<path fill="none" stroke="#63b8ff" d="M1728.66,-173.39C1887.93,-172.66 2389.17,-167.3 2814.93,-128.93"/>
<polygon fill="#63b8ff" stroke="#63b8ff" points="2815.33,-132.41 2824.97,-128.02 2814.69,-125.44 2815.33,-132.41"/>
</a>
</g>
</g>
<!-- Node41 -->
<g id="Node000041" class="node">
<title>Node41</title>
<g id="a_Node000041"><a xlink:href="debug_8h.html" target="_top" xlink:title=" ">
<polygon fill="white" stroke="#666666" points="3037,-129 2942,-129 2942,-110 3037,-110 3037,-129"/>
<text text-anchor="middle" x="2989.5" y="-117" font-family="Helvetica,sans-Serif" font-size="10.00">compat/debug.h</text>
</a>
</g>
</g>
<!-- Node5&#45;&gt;Node41 -->
<g id="edge38_Node000005_Node000041" class="edge">
<title>Node5&#45;&gt;Node41</title>
<g id="a_edge38_Node000005_Node000041"><a xlink:title=" ">
<path fill="none" stroke="#63b8ff" d="M1728.74,-173.75C1898.56,-174.13 2458.54,-171.9 2931.85,-128.92"/>
<polygon fill="#63b8ff" stroke="#63b8ff" points="2932.32,-132.39 2941.96,-128 2931.69,-125.42 2932.32,-132.39"/>
</a>
</g>
</g>
<!-- Node42 -->
<g id="Node000042" class="node">
<title>Node42</title>
<g id="a_Node000042"><a xlink:href="valgrind_8h.html" target="_top" xlink:title=" ">
<polygon fill="#fff0f0" stroke="red" points="3160,-129 3055,-129 3055,-110 3160,-110 3160,-129"/>
<text text-anchor="middle" x="3107.5" y="-117" font-family="Helvetica,sans-Serif" font-size="10.00">compat/valgrind.h</text>
</a>
</g>
</g>
<!-- Node5&#45;&gt;Node42 -->
<g id="edge39_Node000005_Node000042" class="edge">
<title>Node5&#45;&gt;Node42</title>
<g id="a_edge39_Node000005_Node000042"><a xlink:title=" ">
<path fill="none" stroke="#63b8ff" d="M1728.54,-173.75C1907.7,-174.2 2524.66,-172.38 3044.44,-128.98"/>
<polygon fill="#63b8ff" stroke="#63b8ff" points="3045.1,-132.43 3054.78,-128.11 3044.52,-125.46 3045.1,-132.43"/>
</a>
</g>
</g>
<!-- Node9 -->
<g id="Node000009" class="node">
<title>Node9</title>
<g id="a_Node000009"><a xlink:title=" ">
<polygon fill="#e0e0e0" stroke="#999999" points="324.5,-74 274.5,-74 274.5,-55 324.5,-55 324.5,-74"/>
<text text-anchor="middle" x="299.5" y="-62" font-family="Helvetica,sans-Serif" font-size="10.00">cstdint</text>
</a>
</g>
</g>
<!-- Node8&#45;&gt;Node9 -->
<g id="edge8_Node000008_Node000009" class="edge">
<title>Node8&#45;&gt;Node9</title>
<g id="a_edge8_Node000008_Node000009"><a xlink:title=" ">
<path fill="none" stroke="#63b8ff" d="M299.5,-109.75C299.5,-102.8 299.5,-92.85 299.5,-84.13"/>
<polygon fill="#63b8ff" stroke="#63b8ff" points="303,-84.09 299.5,-74.09 296,-84.09 303,-84.09"/>
</a>
</g>
</g>
<!-- Node27 -->
<g id="Node000027" class="node">
<title>Node27</title>
<g id="a_Node000027"><a xlink:title=" ">
<polygon fill="#e0e0e0" stroke="#999999" points="2090,-74 2039,-74 2039,-55 2090,-55 2090,-74"/>
<text text-anchor="middle" x="2064.5" y="-62" font-family="Helvetica,sans-Serif" font-size="10.00">csignal</text>
</a>
</g>
</g>
<!-- Node26&#45;&gt;Node27 -->
<g id="edge26_Node000026_Node000027" class="edge">
<title>Node26&#45;&gt;Node27</title>
<g id="a_edge26_Node000026_Node000027"><a xlink:title=" ">
<path fill="none" stroke="#63b8ff" d="M2424.09,-110.83C2323.99,-99.9 2148.02,-80.56 2100.02,-73.82"/>
<polygon fill="#63b8ff" stroke="#63b8ff" points="2100.46,-70.35 2090.04,-72.27 2099.39,-77.26 2100.46,-70.35"/>
</a>
</g>
</g>
<!-- Node28 -->
<g id="Node000028" class="node">
<title>Node28</title>
<g id="a_Node000028"><a xlink:href="xalloc_8h.html" target="_top" xlink:title=" ">
<polygon fill="white" stroke="#666666" points="2203,-74 2108,-74 2108,-55 2203,-55 2203,-74"/>
<text text-anchor="middle" x="2155.5" y="-62" font-family="Helvetica,sans-Serif" font-size="10.00">compat/xalloc.h</text>
</a>
</g>
</g>
<!-- Node26&#45;&gt;Node28 -->
<g id="edge27_Node000026_Node000028" class="edge">
<title>Node26&#45;&gt;Node28</title>
<g id="a_edge27_Node000026_Node000028"><a xlink:title=" ">
<path fill="none" stroke="#63b8ff" d="M2440.03,-109.98C2377.98,-100.28 2276.98,-84.49 2213.5,-74.57"/>
<polygon fill="#63b8ff" stroke="#63b8ff" points="2213.68,-71.05 2203.26,-72.97 2212.6,-77.97 2213.68,-71.05"/>
</a>
</g>
</g>
<!-- Node29 -->
<g id="Node000029" class="node">
<title>Node29</title>
<g id="a_Node000029"><a xlink:href="xis_8h.html" target="_top" xlink:title=" ">
<polygon fill="#fff0f0" stroke="red" points="2301.5,-74 2221.5,-74 2221.5,-55 2301.5,-55 2301.5,-74"/>
<text text-anchor="middle" x="2261.5" y="-62" font-family="Helvetica,sans-Serif" font-size="10.00">compat/xis.h</text>
</a>
</g>
</g>
<!-- Node26&#45;&gt;Node29 -->
<g id="edge28_Node000026_Node000029" class="edge">
<title>Node26&#45;&gt;Node29</title>
<g id="a_edge28_Node000026_Node000029"><a xlink:title=" ">
<path fill="none" stroke="#63b8ff" d="M2457.06,-109.98C2416.85,-100.84 2352.82,-86.27 2309.06,-76.32"/>
<polygon fill="#63b8ff" stroke="#63b8ff" points="2309.76,-72.89 2299.23,-74.08 2308.2,-79.71 2309.76,-72.89"/>
</a>
</g>
</g>
<!-- Node31 -->
<g id="Node000031" class="node">
<title>Node31</title>
<g id="a_Node000031"><a xlink:href="xstrerror_8h.html" target="_top" xlink:title=" ">
<polygon fill="white" stroke="#666666" points="2427,-74 2320,-74 2320,-55 2427,-55 2427,-74"/>
<text text-anchor="middle" x="2373.5" y="-62" font-family="Helvetica,sans-Serif" font-size="10.00">compat/xstrerror.h</text>
</a>
</g>
</g>
<!-- Node26&#45;&gt;Node31 -->
<g id="edge29_Node000026_Node000031" class="edge">
<title>Node26&#45;&gt;Node31</title>
<g id="a_edge29_Node000026_Node000031"><a xlink:title=" ">
<path fill="none" stroke="#63b8ff" d="M2475.06,-109.98C2455.51,-101.42 2425.12,-88.11 2402.68,-78.28"/>
<polygon fill="#63b8ff" stroke="#63b8ff" points="2403.86,-74.98 2393.29,-74.17 2401.05,-81.39 2403.86,-74.98"/>
</a>
</g>
</g>
<!-- Node32 -->
<g id="Node000032" class="node">
<title>Node32</title>
<g id="a_Node000032"><a xlink:href="xstring_8h.html" target="_top" xlink:title=" ">
<polygon fill="white" stroke="#666666" points="2544,-74 2445,-74 2445,-55 2544,-55 2544,-74"/>
<text text-anchor="middle" x="2494.5" y="-62" font-family="Helvetica,sans-Serif" font-size="10.00">compat/xstring.h</text>
</a>
</g>
</g>
<!-- Node26&#45;&gt;Node32 -->
<g id="edge30_Node000026_Node000032" class="edge">
<title>Node26&#45;&gt;Node32</title>
<g id="a_edge30_Node000026_Node000032"><a xlink:title=" ">
<path fill="none" stroke="#63b8ff" d="M2494.5,-109.75C2494.5,-102.8 2494.5,-92.85 2494.5,-84.13"/>
<polygon fill="#63b8ff" stroke="#63b8ff" points="2498,-84.09 2494.5,-74.09 2491,-84.09 2498,-84.09"/>
</a>
</g>
</g>
<!-- Node33 -->
<g id="Node000033" class="node">
<title>Node33</title>
<g id="a_Node000033"><a xlink:href="xstrto_8h.html" target="_top" xlink:title=" ">
<polygon fill="white" stroke="#666666" points="2656.5,-74 2562.5,-74 2562.5,-55 2656.5,-55 2656.5,-74"/>
<text text-anchor="middle" x="2609.5" y="-62" font-family="Helvetica,sans-Serif" font-size="10.00">compat/xstrto.h</text>
</a>
</g>
</g>
<!-- Node26&#45;&gt;Node33 -->
<g id="edge31_Node000026_Node000033" class="edge">
<title>Node26&#45;&gt;Node33</title>
<g id="a_edge31_Node000026_Node000033"><a xlink:title=" ">
<path fill="none" stroke="#63b8ff" d="M2512.98,-109.98C2531.48,-101.46 2560.18,-88.23 2581.48,-78.41"/>
<polygon fill="#63b8ff" stroke="#63b8ff" points="2583.07,-81.53 2590.69,-74.17 2580.14,-75.18 2583.07,-81.53"/>
</a>
</g>
</g>
<!-- Node34 -->
<g id="Node000034" class="node">
<title>Node34</title>
<g id="a_Node000034"><a xlink:href="strtoll_8h.html" target="_top" xlink:title=" ">
<polygon fill="white" stroke="#666666" points="2768.5,-74 2674.5,-74 2674.5,-55 2768.5,-55 2768.5,-74"/>
<text text-anchor="middle" x="2721.5" y="-62" font-family="Helvetica,sans-Serif" font-size="10.00">compat/strtoll.h</text>
</a>
</g>
</g>
<!-- Node26&#45;&gt;Node34 -->
<g id="edge32_Node000026_Node000034" class="edge">
<title>Node26&#45;&gt;Node34</title>
<g id="a_edge32_Node000026_Node000034"><a xlink:title=" ">
<path fill="none" stroke="#63b8ff" d="M2530.97,-109.98C2570.07,-100.86 2632.27,-86.33 2674.89,-76.38"/>
<polygon fill="#63b8ff" stroke="#63b8ff" points="2675.8,-79.76 2684.74,-74.08 2674.21,-72.95 2675.8,-79.76"/>
</a>
</g>
</g>
<!-- Node35 -->
<g id="Node000035" class="node">
<title>Node35</title>
<g id="a_Node000035"><a xlink:href="memrchr_8h.html" target="_top" xlink:title=" ">
<polygon fill="white" stroke="#666666" points="2896,-74 2787,-74 2787,-55 2896,-55 2896,-74"/>
<text text-anchor="middle" x="2841.5" y="-62" font-family="Helvetica,sans-Serif" font-size="10.00">compat/memrchr.h</text>
</a>
</g>
</g>
<!-- Node26&#45;&gt;Node35 -->
<g id="edge33_Node000026_Node000035" class="edge">
<title>Node26&#45;&gt;Node35</title>
<g id="a_edge33_Node000026_Node000035"><a xlink:title=" ">
<path fill="none" stroke="#63b8ff" d="M2550.25,-109.98C2611.99,-100.55 2711.39,-85.37 2776.59,-75.41"/>
<polygon fill="#63b8ff" stroke="#63b8ff" points="2777.39,-78.83 2786.75,-73.86 2776.33,-71.91 2777.39,-78.83"/>
</a>
</g>
</g>
<!-- Node37 -->
<g id="Node000037" class="node">
<title>Node37</title>
<g id="a_Node000037"><a xlink:title=" ">
<polygon fill="#e0e0e0" stroke="#999999" points="2967,-74 2914,-74 2914,-55 2967,-55 2967,-74"/>
<text text-anchor="middle" x="2940.5" y="-62" font-family="Helvetica,sans-Serif" font-size="10.00">cstdarg</text>
</a>
</g>
</g>
<!-- Node36&#45;&gt;Node37 -->
<g id="edge35_Node000036_Node000037" class="edge">
<title>Node36&#45;&gt;Node37</title>
<g id="a_edge35_Node000036_Node000037"><a xlink:title=" ">
<path fill="none" stroke="#63b8ff" d="M2698.13,-110C2749.33,-102.06 2827,-89.42 2903.94,-74"/>
<polygon fill="#63b8ff" stroke="#63b8ff" points="2904.7,-77.42 2913.81,-72 2903.31,-70.56 2904.7,-77.42"/>
</a>
</g>
</g>
<!-- Node45 -->
<g id="Node000045" class="node">
<title>Node45</title>
<g id="a_Node000045"><a xlink:href="Range_8h.html" target="_top" xlink:title=" ">
<polygon fill="white" stroke="#666666" points="3261,-129 3178,-129 3178,-110 3261,-110 3261,-129"/>
<text text-anchor="middle" x="3219.5" y="-117" font-family="Helvetica,sans-Serif" font-size="10.00">base/Range.h</text>
</a>
</g>
</g>
<!-- Node44&#45;&gt;Node45 -->
<g id="edge41_Node000044_Node000045" class="edge">
<title>Node44&#45;&gt;Node45</title>
<g id="a_edge41_Node000044_Node000045"><a xlink:title=" ">
<path fill="none" stroke="#63b8ff" d="M3284.38,-219.83C3272.36,-211.83 3255.35,-198.94 3244.5,-184 3234.71,-170.52 3228.13,-152.69 3224.19,-139.35"/>
<polygon fill="#63b8ff" stroke="#63b8ff" points="3227.49,-138.14 3221.49,-129.4 3220.73,-139.97 3227.49,-138.14"/>
</a>
</g>
</g>
<!-- Node48 -->
<g id="Node000048" class="node">
<title>Node48</title>
<g id="a_Node000048"><a xlink:href="defines_8h.html" target="_top" xlink:title=" ">
<polygon fill="white" stroke="#666666" points="3463,-184 3402,-184 3402,-165 3463,-165 3463,-184"/>
<text text-anchor="middle" x="3432.5" y="-172" font-family="Helvetica,sans-Serif" font-size="10.00">defines.h</text>
</a>
</g>
</g>
<!-- Node44&#45;&gt;Node48 -->
<g id="edge44_Node000044_Node000048" class="edge">
<title>Node44&#45;&gt;Node48</title>
<g id="a_edge44_Node000044_Node000048"><a xlink:title=" ">
<path fill="none" stroke="#63b8ff" d="M3320.03,-219.98C3341.97,-211.3 3376.24,-197.75 3401.19,-187.88"/>
<polygon fill="#63b8ff" stroke="#63b8ff" points="3402.57,-191.1 3410.58,-184.17 3399.99,-184.59 3402.57,-191.1"/>
</a>
</g>
</g>
<!-- Node49 -->
<g id="Node000049" class="node">
<title>Node49</title>
<g id="a_Node000049"><a xlink:href="mem_2forward_8h.html" target="_top" xlink:title=" ">
<polygon fill="white" stroke="#666666" points="3386.5,-74 3294.5,-74 3294.5,-55 3386.5,-55 3386.5,-74"/>
<text text-anchor="middle" x="3340.5" y="-62" font-family="Helvetica,sans-Serif" font-size="10.00">mem/forward.h</text>
</a>
</g>
</g>
<!-- Node44&#45;&gt;Node49 -->
<g id="edge45_Node000044_Node000049" class="edge">
<title>Node44&#45;&gt;Node49</title>
<g id="a_edge45_Node000044_Node000049"><a xlink:title=" ">
<path fill="none" stroke="#63b8ff" d="M3315.23,-219.87C3327.96,-212.31 3344.59,-200.01 3352.5,-184 3368.62,-151.38 3356.91,-107.62 3348.01,-83.44"/>
<polygon fill="#63b8ff" stroke="#63b8ff" points="3351.26,-82.13 3344.35,-74.09 3344.74,-84.68 3351.26,-82.13"/>
</a>
</g>
</g>
<!-- Node51 -->
<g id="Node000051" class="node">
<title>Node51</title>
<g id="a_Node000051"><a xlink:href="StoreIOBuffer_8h.html" target="_top" xlink:title=" ">
<polygon fill="white" stroke="#666666" points="3343.5,-184 3253.5,-184 3253.5,-165 3343.5,-165 3343.5,-184"/>
<text text-anchor="middle" x="3298.5" y="-172" font-family="Helvetica,sans-Serif" font-size="10.00">StoreIOBuffer.h</text>
</a>
</g>
</g>
<!-- Node44&#45;&gt;Node51 -->
<g id="edge48_Node000044_Node000051" class="edge">
<title>Node44&#45;&gt;Node51</title>
<g id="a_edge48_Node000044_Node000051"><a xlink:title=" ">
<path fill="none" stroke="#63b8ff" d="M3298.5,-219.75C3298.5,-212.8 3298.5,-202.85 3298.5,-194.13"/>
<polygon fill="#63b8ff" stroke="#63b8ff" points="3302,-194.09 3298.5,-184.09 3295,-194.09 3302,-194.09"/>
</a>
</g>
</g>
<!-- Node46 -->
<g id="Node000046" class="node">
<title>Node46</title>
<g id="a_Node000046"><a xlink:title=" ">
<polygon fill="#e0e0e0" stroke="#999999" points="3237.5,-19 3189.5,-19 3189.5,0 3237.5,0 3237.5,-19"/>
<text text-anchor="middle" x="3213.5" y="-7" font-family="Helvetica,sans-Serif" font-size="10.00">iosfwd</text>
</a>
</g>
</g>
<!-- Node45&#45;&gt;Node46 -->
<g id="edge42_Node000045_Node000046" class="edge">
<title>Node45&#45;&gt;Node46</title>
<g id="a_edge42_Node000045_Node000046"><a xlink:title=" ">
<path fill="none" stroke="#63b8ff" d="M3216.93,-109.73C3214.45,-100.83 3210.9,-86.59 3209.5,-74 3207.84,-59.04 3209.08,-42.01 3210.6,-29.36"/>
<polygon fill="#63b8ff" stroke="#63b8ff" points="3214.11,-29.53 3212.01,-19.15 3207.18,-28.58 3214.11,-29.53"/>
</a>
</g>
</g>
<!-- Node47 -->
<g id="Node000047" class="node">
<title>Node47</title>
<g id="a_Node000047"><a xlink:title=" ">
<polygon fill="#e0e0e0" stroke="#999999" points="3276,-74 3219,-74 3219,-55 3276,-55 3276,-74"/>
<text text-anchor="middle" x="3247.5" y="-62" font-family="Helvetica,sans-Serif" font-size="10.00">ostream</text>
</a>
</g>
</g>
<!-- Node45&#45;&gt;Node47 -->
<g id="edge43_Node000045_Node000047" class="edge">
<title>Node45&#45;&gt;Node47</title>
<g id="a_edge43_Node000045_Node000047"><a xlink:title=" ">
<path fill="none" stroke="#63b8ff" d="M3224.12,-109.75C3227.96,-102.49 3233.52,-91.95 3238.26,-82.98"/>
<polygon fill="#63b8ff" stroke="#63b8ff" points="3241.39,-84.57 3242.96,-74.09 3235.2,-81.3 3241.39,-84.57"/>
</a>
</g>
</g>
<!-- Node49&#45;&gt;Node46 -->
<g id="edge47_Node000049_Node000046" class="edge">
<title>Node49&#45;&gt;Node46</title>
<g id="a_edge47_Node000049_Node000046"><a xlink:title=" ">
<path fill="none" stroke="#63b8ff" d="M3320.1,-54.98C3299.48,-46.38 3267.39,-32.99 3243.81,-23.15"/>
<polygon fill="#63b8ff" stroke="#63b8ff" points="3244.85,-19.79 3234.28,-19.17 3242.16,-26.25 3244.85,-19.79"/>
</a>
</g>
</g>
<!-- Node50 -->
<g id="Node000050" class="node">
<title>Node50</title>
<g id="a_Node000050"><a xlink:href="AllocatorProxy_8h.html" target="_top" xlink:title=" ">
<polygon fill="white" stroke="#666666" points="3402.5,-19 3278.5,-19 3278.5,0 3402.5,0 3402.5,-19"/>
<text text-anchor="middle" x="3340.5" y="-7" font-family="Helvetica,sans-Serif" font-size="10.00">mem/AllocatorProxy.h</text>
</a>
</g>
</g>
<!-- Node49&#45;&gt;Node50 -->
<g id="edge46_Node000049_Node000050" class="edge">
<title>Node49&#45;&gt;Node50</title>
<g id="a_edge46_Node000049_Node000050"><a xlink:title=" ">
<path fill="none" stroke="#63b8ff" d="M3340.5,-54.75C3340.5,-47.8 3340.5,-37.85 3340.5,-29.13"/>
<polygon fill="#63b8ff" stroke="#63b8ff" points="3344,-29.09 3340.5,-19.09 3337,-29.09 3344,-29.09"/>
</a>
</g>
</g>
<!-- Node51&#45;&gt;Node45 -->
<g id="edge49_Node000051_Node000045" class="edge">
<title>Node51&#45;&gt;Node45</title>
<g id="a_edge49_Node000051_Node000045"><a xlink:title=" ">
<path fill="none" stroke="#63b8ff" d="M3285.81,-164.98C3273.67,-156.84 3255.14,-144.41 3240.75,-134.76"/>
<polygon fill="#63b8ff" stroke="#63b8ff" points="3242.68,-131.84 3232.42,-129.17 3238.78,-137.65 3242.68,-131.84"/>
</a>
</g>
</g>
<!-- Node52 -->
<g id="Node000052" class="node">
<title>Node52</title>
<g id="a_Node000052"><a xlink:href="MemBuf_8h.html" target="_top" xlink:title=" ">
<polygon fill="#fff0f0" stroke="red" points="3345.5,-129 3279.5,-129 3279.5,-110 3345.5,-110 3345.5,-129"/>
<text text-anchor="middle" x="3312.5" y="-117" font-family="Helvetica,sans-Serif" font-size="10.00">MemBuf.h</text>
</a>
</g>
</g>
<!-- Node51&#45;&gt;Node52 -->
<g id="edge50_Node000051_Node000052" class="edge">
<title>Node51&#45;&gt;Node52</title>
<g id="a_edge50_Node000051_Node000052"><a xlink:title=" ">
<path fill="none" stroke="#63b8ff" d="M3300.81,-164.75C3302.67,-157.72 3305.34,-147.62 3307.65,-138.84"/>
<polygon fill="#63b8ff" stroke="#63b8ff" points="3311.06,-139.65 3310.23,-129.09 3304.29,-137.86 3311.06,-139.65"/>
</a>
</g>
</g>
<!-- Node52&#45;&gt;Node49 -->
<g id="edge51_Node000052_Node000049" class="edge">
<title>Node52&#45;&gt;Node49</title>
<g id="a_edge51_Node000052_Node000049"><a xlink:title=" ">
<path fill="none" stroke="#63b8ff" d="M3317.12,-109.75C3320.96,-102.49 3326.52,-91.95 3331.26,-82.98"/>
<polygon fill="#63b8ff" stroke="#63b8ff" points="3334.39,-84.57 3335.96,-74.09 3328.2,-81.3 3334.39,-84.57"/>
</a>
</g>
</g>
</g>
</svg>
