<?xml version="1.0" encoding="UTF-8" standalone="no"?>
<!DOCTYPE svg PUBLIC "-//W3C//DTD SVG 1.1//EN"
 "http://www.w3.org/Graphics/SVG/1.1/DTD/svg11.dtd">
<!-- Generated by graphviz version 2.43.0 (0)
 -->
<!-- Title: squid/src/mem/Stats.h Pages: 1 -->
<svg width="1393pt" height="93pt"
 viewBox="0.00 0.00 1393.00 93.00" xmlns="http://www.w3.org/2000/svg" xmlns:xlink="http://www.w3.org/1999/xlink">
<g id="graph0" class="graph" transform="scale(1 1) rotate(0) translate(4 89)">
<title>squid/src/mem/Stats.h</title>
<!-- Node1 -->
<g id="Node000001" class="node">
<title>Node1</title>
<g id="a_Node000001"><a xlink:title=" ">
<polygon fill="#999999" stroke="#666666" points="827,-85 702,-85 702,-66 827,-66 827,-85"/>
<text text-anchor="middle" x="764.5" y="-73" font-family="Helvetica,sans-Serif" font-size="10.00">squid/src/mem/Stats.h</text>
</a>
</g>
</g>
<!-- Node2 -->
<g id="Node000002" class="node">
<title>Node2</title>
<g id="a_Node000002"><a xlink:href="AllocatorProxy_8cc.html" target="_top" xlink:title=" ">
<polygon fill="white" stroke="#666666" points="175,-24.5 0,-24.5 0,-5.5 175,-5.5 175,-24.5"/>
<text text-anchor="middle" x="87.5" y="-12.5" font-family="Helvetica,sans-Serif" font-size="10.00">squid/src/mem/AllocatorProxy.cc</text>
</a>
</g>
</g>
<!-- Node1&#45;&gt;Node2 -->
<g id="edge1_Node000001_Node000002" class="edge">
<title>Node1&#45;&gt;Node2</title>
<g id="a_edge1_Node000001_Node000002"><a xlink:title=" ">
<path fill="none" stroke="#63b8ff" d="M691.72,-70.48C581.7,-64.05 366.53,-50.1 184.5,-30 170.72,-28.48 155.88,-26.51 142.05,-24.53"/>
<polygon fill="#63b8ff" stroke="#63b8ff" points="691.53,-73.98 701.72,-71.06 691.94,-66.99 691.53,-73.98"/>
</a>
</g>
</g>
<!-- Node3 -->
<g id="Node000003" class="node">
<title>Node3</title>
<g id="a_Node000003"><a xlink:href="Pool_8cc.html" target="_top" xlink:title=" ">
<polygon fill="white" stroke="#666666" points="319.5,-24.5 193.5,-24.5 193.5,-5.5 319.5,-5.5 319.5,-24.5"/>
<text text-anchor="middle" x="256.5" y="-12.5" font-family="Helvetica,sans-Serif" font-size="10.00">squid/src/mem/Pool.cc</text>
</a>
</g>
</g>
<!-- Node1&#45;&gt;Node3 -->
<g id="edge2_Node000001_Node000003" class="edge">
<title>Node1&#45;&gt;Node3</title>
<g id="a_edge2_Node000001_Node000003"><a xlink:title=" ">
<path fill="none" stroke="#63b8ff" d="M691.82,-69.1C605.07,-62.19 455.75,-48.83 328.5,-30 318.3,-28.49 307.34,-26.53 297.13,-24.57"/>
<polygon fill="#63b8ff" stroke="#63b8ff" points="691.58,-72.59 701.83,-69.89 692.13,-65.62 691.58,-72.59"/>
</a>
</g>
</g>
<!-- Node4 -->
<g id="Node000004" class="node">
<title>Node4</title>
<g id="a_Node000004"><a xlink:href="PoolChunked_8cc.html" target="_top" xlink:title=" ">
<polygon fill="white" stroke="#666666" points="505.5,-24.5 337.5,-24.5 337.5,-5.5 505.5,-5.5 505.5,-24.5"/>
<text text-anchor="middle" x="421.5" y="-12.5" font-family="Helvetica,sans-Serif" font-size="10.00">squid/src/mem/PoolChunked.cc</text>
</a>
</g>
</g>
<!-- Node1&#45;&gt;Node4 -->
<g id="edge3_Node000001_Node000004" class="edge">
<title>Node1&#45;&gt;Node4</title>
<g id="a_edge3_Node000001_Node000004"><a xlink:title=" ">
<path fill="none" stroke="#63b8ff" d="M704.77,-64.31C638.66,-53.04 533.32,-35.07 471.44,-24.52"/>
<polygon fill="#63b8ff" stroke="#63b8ff" points="704.18,-67.76 714.62,-65.99 705.36,-60.86 704.18,-67.76"/>
</a>
</g>
</g>
<!-- Node5 -->
<g id="Node000005" class="node">
<title>Node5</title>
<g id="a_Node000005"><a xlink:href="PoolMalloc_8cc.html" target="_top" xlink:title=" ">
<polygon fill="white" stroke="#666666" points="681.5,-24.5 523.5,-24.5 523.5,-5.5 681.5,-5.5 681.5,-24.5"/>
<text text-anchor="middle" x="602.5" y="-12.5" font-family="Helvetica,sans-Serif" font-size="10.00">squid/src/mem/PoolMalloc.cc</text>
</a>
</g>
</g>
<!-- Node1&#45;&gt;Node5 -->
<g id="edge4_Node000001_Node000005" class="edge">
<title>Node1&#45;&gt;Node5</title>
<g id="a_edge4_Node000001_Node000005"><a xlink:title=" ">
<path fill="none" stroke="#63b8ff" d="M731.34,-62.52C700.01,-51.21 653.81,-34.53 626.08,-24.52"/>
<polygon fill="#63b8ff" stroke="#63b8ff" points="730.35,-65.89 740.94,-65.99 732.73,-59.31 730.35,-65.89"/>
</a>
</g>
</g>
<!-- Node6 -->
<g id="Node000006" class="node">
<title>Node6</title>
<g id="a_Node000006"><a xlink:href="mem_2Stats_8cc.html" target="_top" xlink:title=" ">
<polygon fill="white" stroke="#666666" points="829.5,-24.5 699.5,-24.5 699.5,-5.5 829.5,-5.5 829.5,-24.5"/>
<text text-anchor="middle" x="764.5" y="-12.5" font-family="Helvetica,sans-Serif" font-size="10.00">squid/src/mem/Stats.cc</text>
</a>
</g>
</g>
<!-- Node1&#45;&gt;Node6 -->
<g id="edge5_Node000001_Node000006" class="edge">
<title>Node1&#45;&gt;Node6</title>
<g id="a_edge5_Node000001_Node000006"><a xlink:title=" ">
<path fill="none" stroke="#63b8ff" d="M764.5,-55.66C764.5,-45.24 764.5,-32.8 764.5,-24.67"/>
<polygon fill="#63b8ff" stroke="#63b8ff" points="761,-55.87 764.5,-65.87 768,-55.87 761,-55.87"/>
</a>
</g>
</g>
<!-- Node7 -->
<g id="Node000007" class="node">
<title>Node7</title>
<g id="a_Node000007"><a xlink:href="old__api_8cc.html" target="_top" xlink:title=" ">
<polygon fill="white" stroke="#666666" points="987.5,-24.5 847.5,-24.5 847.5,-5.5 987.5,-5.5 987.5,-24.5"/>
<text text-anchor="middle" x="917.5" y="-12.5" font-family="Helvetica,sans-Serif" font-size="10.00">squid/src/mem/old_api.cc</text>
</a>
</g>
</g>
<!-- Node1&#45;&gt;Node7 -->
<g id="edge6_Node000001_Node000007" class="edge">
<title>Node1&#45;&gt;Node7</title>
<g id="a_edge6_Node000001_Node000007"><a xlink:title=" ">
<path fill="none" stroke="#63b8ff" d="M796.2,-62.38C825.78,-51.07 869.15,-34.49 895.23,-24.52"/>
<polygon fill="#63b8ff" stroke="#63b8ff" points="794.84,-59.15 786.75,-65.99 797.34,-65.69 794.84,-59.15"/>
</a>
</g>
</g>
<!-- Node8 -->
<g id="Node000008" class="node">
<title>Node8</title>
<g id="a_Node000008"><a xlink:href="snmp__agent_8cc.html" target="_top" xlink:title=" ">
<polygon fill="white" stroke="#666666" points="1143,-24.5 1006,-24.5 1006,-5.5 1143,-5.5 1143,-24.5"/>
<text text-anchor="middle" x="1074.5" y="-12.5" font-family="Helvetica,sans-Serif" font-size="10.00">squid/src/snmp_agent.cc</text>
</a>
</g>
</g>
<!-- Node1&#45;&gt;Node8 -->
<g id="edge7_Node000001_Node000008" class="edge">
<title>Node1&#45;&gt;Node8</title>
<g id="a_edge7_Node000001_Node000008"><a xlink:title=" ">
<path fill="none" stroke="#63b8ff" d="M819.59,-64.1C879.4,-52.82 973.78,-35.01 1029.37,-24.52"/>
<polygon fill="#63b8ff" stroke="#63b8ff" points="818.75,-60.7 809.58,-65.99 820.05,-67.58 818.75,-60.7"/>
</a>
</g>
</g>
<!-- Node9 -->
<g id="Node000009" class="node">
<title>Node9</title>
<g id="a_Node000009"><a xlink:href="stat_8cc.html" target="_top" xlink:title=" ">
<polygon fill="white" stroke="#666666" points="1256,-24.5 1161,-24.5 1161,-5.5 1256,-5.5 1256,-24.5"/>
<text text-anchor="middle" x="1208.5" y="-12.5" font-family="Helvetica,sans-Serif" font-size="10.00">squid/src/stat.cc</text>
</a>
</g>
</g>
<!-- Node1&#45;&gt;Node9 -->
<g id="edge8_Node000001_Node000009" class="edge">
<title>Node1&#45;&gt;Node9</title>
<g id="a_edge8_Node000001_Node000009"><a xlink:title=" ">
<path fill="none" stroke="#63b8ff" d="M837.27,-69.01C915.55,-62.45 1043.48,-49.79 1152.5,-30 1160.68,-28.51 1169.45,-26.52 1177.56,-24.5"/>
<polygon fill="#63b8ff" stroke="#63b8ff" points="836.7,-65.55 827.03,-69.86 837.28,-72.52 836.7,-65.55"/>
</a>
</g>
</g>
<!-- Node10 -->
<g id="Node000010" class="node">
<title>Node10</title>
<g id="a_Node000010"><a xlink:href="stub__libmem_8cc.html" target="_top" xlink:title=" ">
<polygon fill="white" stroke="#666666" points="1385,-30 1274,-30 1274,0 1385,0 1385,-30"/>
<text text-anchor="start" x="1282" y="-18" font-family="Helvetica,sans-Serif" font-size="10.00">squid/src/tests/stub</text>
<text text-anchor="middle" x="1329.5" y="-7" font-family="Helvetica,sans-Serif" font-size="10.00">_libmem.cc</text>
</a>
</g>
</g>
<!-- Node1&#45;&gt;Node10 -->
<g id="edge9_Node000001_Node000010" class="edge">
<title>Node1&#45;&gt;Node10</title>
<g id="a_edge9_Node000001_Node000010"><a xlink:title=" ">
<path fill="none" stroke="#63b8ff" d="M837.37,-70.93C935.19,-65.48 1114.19,-53.17 1265.5,-30 1268.2,-29.59 1270.95,-29.13 1273.73,-28.64"/>
<polygon fill="#63b8ff" stroke="#63b8ff" points="837.08,-67.44 827.29,-71.48 837.47,-74.43 837.08,-67.44"/>
</a>
</g>
</g>
</g>
</svg>
