<?xml version="1.0" encoding="UTF-8" standalone="no"?>
<!DOCTYPE svg PUBLIC "-//W3C//DTD SVG 1.1//EN"
 "http://www.w3.org/Graphics/SVG/1.1/DTD/svg11.dtd">
<!-- Generated by graphviz version 2.43.0 (0)
 -->
<!-- Title: squid/src/MessageBucket.cc Pages: 1 -->
<svg width="3682pt" height="302pt"
 viewBox="0.00 0.00 3681.67 302.00" xmlns="http://www.w3.org/2000/svg" xmlns:xlink="http://www.w3.org/1999/xlink">
<g id="graph0" class="graph" transform="scale(1 1) rotate(0) translate(4 298)">
<title>squid/src/MessageBucket.cc</title>
<!-- Node1 -->
<g id="Node000001" class="node">
<title>Node1</title>
<g id="a_Node000001"><a xlink:title=" ">
<polygon fill="#999999" stroke="#666666" points="3309,-294 3156,-294 3156,-275 3309,-275 3309,-294"/>
<text text-anchor="middle" x="3232.5" y="-282" font-family="Helvetica,sans-Serif" font-size="10.00">squid/src/MessageBucket.cc</text>
</a>
</g>
</g>
<!-- Node2 -->
<g id="Node000002" class="node">
<title>Node2</title>
<g id="a_Node000002"><a xlink:href="squid_8h.html" target="_top" xlink:title=" ">
<polygon fill="white" stroke="#666666" points="1776.5,-239 1724.5,-239 1724.5,-220 1776.5,-220 1776.5,-239"/>
<text text-anchor="middle" x="1750.5" y="-227" font-family="Helvetica,sans-Serif" font-size="10.00">squid.h</text>
</a>
</g>
</g>
<!-- Node1&#45;&gt;Node2 -->
<g id="edge1_Node000001_Node000002" class="edge">
<title>Node1&#45;&gt;Node2</title>
<g id="a_edge1_Node000001_Node000002"><a xlink:title=" ">
<path fill="none" stroke="#63b8ff" d="M3155.94,-280.76C2885.3,-271.08 1979.56,-238.69 1786.78,-231.8"/>
<polygon fill="#63b8ff" stroke="#63b8ff" points="1786.73,-228.29 1776.62,-231.43 1786.48,-235.29 1786.73,-228.29"/>
</a>
</g>
</g>
<!-- Node45 -->
<g id="Node000045" class="node">
<title>Node45</title>
<g id="a_Node000045"><a xlink:href="Connection_8h.html" target="_top" xlink:title=" ">
<polygon fill="white" stroke="#666666" points="2814.5,-239 2700.5,-239 2700.5,-220 2814.5,-220 2814.5,-239"/>
<text text-anchor="middle" x="2757.5" y="-227" font-family="Helvetica,sans-Serif" font-size="10.00">comm/Connection.h</text>
</a>
</g>
</g>
<!-- Node1&#45;&gt;Node45 -->
<g id="edge25_Node000001_Node000045" class="edge">
<title>Node1&#45;&gt;Node45</title>
<g id="a_edge25_Node000001_Node000045"><a xlink:title=" ">
<path fill="none" stroke="#63b8ff" d="M3156.18,-274.98C3064.49,-264.75 2912.09,-247.75 2824.67,-238"/>
<polygon fill="#63b8ff" stroke="#63b8ff" points="2824.93,-234.5 2814.6,-236.87 2824.15,-241.46 2824.93,-234.5"/>
</a>
</g>
</g>
<!-- Node69 -->
<g id="Node000069" class="node">
<title>Node69</title>
<g id="a_Node000069"><a xlink:href="DelayPools_8h.html" target="_top" xlink:title=" ">
<polygon fill="white" stroke="#666666" points="3500.5,-74 3420.5,-74 3420.5,-55 3500.5,-55 3500.5,-74"/>
<text text-anchor="middle" x="3460.5" y="-62" font-family="Helvetica,sans-Serif" font-size="10.00">DelayPools.h</text>
</a>
</g>
</g>
<!-- Node1&#45;&gt;Node69 -->
<g id="edge49_Node000001_Node000069" class="edge">
<title>Node1&#45;&gt;Node69</title>
<g id="a_edge49_Node000001_Node000069"><a xlink:title=" ">
<path fill="none" stroke="#63b8ff" d="M3309.23,-276.24C3418.7,-264.17 3611.4,-236 3655.5,-184 3676.8,-158.88 3680.09,-135.71 3659.5,-110 3641.19,-87.14 3563.41,-75.24 3510.69,-69.68"/>
<polygon fill="#63b8ff" stroke="#63b8ff" points="3510.8,-66.18 3500.5,-68.65 3510.1,-73.14 3510.8,-66.18"/>
</a>
</g>
</g>
<!-- Node70 -->
<g id="Node000070" class="node">
<title>Node70</title>
<g id="a_Node000070"><a xlink:href="fde_8h.html" target="_top" xlink:title=" ">
<polygon fill="white" stroke="#666666" points="3253,-239 3212,-239 3212,-220 3253,-220 3253,-239"/>
<text text-anchor="middle" x="3232.5" y="-227" font-family="Helvetica,sans-Serif" font-size="10.00">fde.h</text>
</a>
</g>
</g>
<!-- Node1&#45;&gt;Node70 -->
<g id="edge51_Node000001_Node000070" class="edge">
<title>Node1&#45;&gt;Node70</title>
<g id="a_edge51_Node000001_Node000070"><a xlink:title=" ">
<path fill="none" stroke="#63b8ff" d="M3232.5,-274.75C3232.5,-267.8 3232.5,-257.85 3232.5,-249.13"/>
<polygon fill="#63b8ff" stroke="#63b8ff" points="3236,-249.09 3232.5,-239.09 3229,-249.09 3236,-249.09"/>
</a>
</g>
</g>
<!-- Node149 -->
<g id="Node000149" class="node">
<title>Node149</title>
<g id="a_Node000149"><a xlink:href="MessageBucket_8h.html" target="_top" xlink:title=" ">
<polygon fill="white" stroke="#666666" points="3646.5,-184 3544.5,-184 3544.5,-165 3646.5,-165 3646.5,-184"/>
<text text-anchor="middle" x="3595.5" y="-172" font-family="Helvetica,sans-Serif" font-size="10.00">MessageBucket.h</text>
</a>
</g>
</g>
<!-- Node1&#45;&gt;Node149 -->
<g id="edge68_Node000001_Node000149" class="edge">
<title>Node1&#45;&gt;Node149</title>
<g id="a_edge68_Node000001_Node000149"><a xlink:title=" ">
<path fill="none" stroke="#63b8ff" d="M3261.29,-274.94C3326.15,-255.64 3483.76,-208.74 3556.96,-186.97"/>
<polygon fill="#63b8ff" stroke="#63b8ff" points="3558.12,-190.27 3566.71,-184.07 3556.13,-183.56 3558.12,-190.27"/>
</a>
</g>
</g>
<!-- Node3 -->
<g id="Node000003" class="node">
<title>Node3</title>
<g id="a_Node000003"><a xlink:href="autoconf_8h.html" target="_top" xlink:title=" ">
<polygon fill="white" stroke="#666666" points="1742.5,-184 1674.5,-184 1674.5,-165 1742.5,-165 1742.5,-184"/>
<text text-anchor="middle" x="1708.5" y="-172" font-family="Helvetica,sans-Serif" font-size="10.00">autoconf.h</text>
</a>
</g>
</g>
<!-- Node2&#45;&gt;Node3 -->
<g id="edge2_Node000002_Node000003" class="edge">
<title>Node2&#45;&gt;Node3</title>
<g id="a_edge2_Node000002_Node000003"><a xlink:title=" ">
<path fill="none" stroke="#63b8ff" d="M1743.56,-219.75C1737.63,-212.26 1728.93,-201.28 1721.68,-192.13"/>
<polygon fill="#63b8ff" stroke="#63b8ff" points="1724.26,-189.75 1715.31,-184.09 1718.77,-194.1 1724.26,-189.75"/>
</a>
</g>
</g>
<!-- Node4 -->
<g id="Node000004" class="node">
<title>Node4</title>
<g id="a_Node000004"><a xlink:href="version_8h.html" target="_top" xlink:title=" ">
<polygon fill="white" stroke="#666666" points="1822.5,-184 1760.5,-184 1760.5,-165 1822.5,-165 1822.5,-184"/>
<text text-anchor="middle" x="1791.5" y="-172" font-family="Helvetica,sans-Serif" font-size="10.00">version.h</text>
</a>
</g>
</g>
<!-- Node2&#45;&gt;Node4 -->
<g id="edge3_Node000002_Node000004" class="edge">
<title>Node2&#45;&gt;Node4</title>
<g id="a_edge3_Node000002_Node000004"><a xlink:title=" ">
<path fill="none" stroke="#63b8ff" d="M1757.27,-219.75C1763.06,-212.26 1771.56,-201.28 1778.64,-192.13"/>
<polygon fill="#63b8ff" stroke="#63b8ff" points="1781.51,-194.14 1784.86,-184.09 1775.97,-189.86 1781.51,-194.14"/>
</a>
</g>
</g>
<!-- Node5 -->
<g id="Node000005" class="node">
<title>Node5</title>
<g id="a_Node000005"><a xlink:href="compat_8h.html" target="_top" xlink:title=" ">
<polygon fill="#fff0f0" stroke="red" points="1299.5,-184 1197.5,-184 1197.5,-165 1299.5,-165 1299.5,-184"/>
<text text-anchor="middle" x="1248.5" y="-172" font-family="Helvetica,sans-Serif" font-size="10.00">compat/compat.h</text>
</a>
</g>
</g>
<!-- Node2&#45;&gt;Node5 -->
<g id="edge4_Node000002_Node000005" class="edge">
<title>Node2&#45;&gt;Node5</title>
<g id="a_edge4_Node000002_Node000005"><a xlink:title=" ">
<path fill="none" stroke="#63b8ff" d="M1724.22,-225.73C1647.04,-217.58 1419.61,-193.57 1309.55,-181.95"/>
<polygon fill="#63b8ff" stroke="#63b8ff" points="1309.9,-178.46 1299.59,-180.89 1309.17,-185.42 1309.9,-178.46"/>
</a>
</g>
</g>
<!-- Node6 -->
<g id="Node000006" class="node">
<title>Node6</title>
<g id="a_Node000006"><a xlink:href="osdetect_8h.html" target="_top" xlink:title=" ">
<polygon fill="white" stroke="#666666" points="820,-129 713,-129 713,-110 820,-110 820,-129"/>
<text text-anchor="middle" x="766.5" y="-117" font-family="Helvetica,sans-Serif" font-size="10.00">compat/osdetect.h</text>
</a>
</g>
</g>
<!-- Node5&#45;&gt;Node6 -->
<g id="edge5_Node000005_Node000006" class="edge">
<title>Node5&#45;&gt;Node6</title>
<g id="a_edge5_Node000005_Node000006"><a xlink:title=" ">
<path fill="none" stroke="#63b8ff" d="M1197.49,-168.55C1120.4,-160.97 969.34,-145.71 830.11,-129.04"/>
<polygon fill="#63b8ff" stroke="#63b8ff" points="830.45,-125.56 820.1,-127.84 829.61,-132.51 830.45,-125.56"/>
</a>
</g>
</g>
<!-- Node7 -->
<g id="Node000007" class="node">
<title>Node7</title>
<g id="a_Node000007"><a xlink:href="fdsetsize_8h.html" target="_top" xlink:title=" ">
<polygon fill="white" stroke="#666666" points="948.5,-129 838.5,-129 838.5,-110 948.5,-110 948.5,-129"/>
<text text-anchor="middle" x="893.5" y="-117" font-family="Helvetica,sans-Serif" font-size="10.00">compat/fdsetsize.h</text>
</a>
</g>
</g>
<!-- Node5&#45;&gt;Node7 -->
<g id="edge6_Node000005_Node000007" class="edge">
<title>Node5&#45;&gt;Node7</title>
<g id="a_edge6_Node000005_Node000007"><a xlink:title=" ">
<path fill="none" stroke="#63b8ff" d="M1197.26,-165.85C1134.34,-156.46 1027.54,-140.51 958.8,-130.25"/>
<polygon fill="#63b8ff" stroke="#63b8ff" points="958.93,-126.73 948.52,-128.71 957.89,-133.65 958.93,-126.73"/>
</a>
</g>
</g>
<!-- Node8 -->
<g id="Node000008" class="node">
<title>Node8</title>
<g id="a_Node000008"><a xlink:href="types_8h.html" target="_top" xlink:title=" ">
<polygon fill="#fff0f0" stroke="red" points="1058.5,-129 966.5,-129 966.5,-110 1058.5,-110 1058.5,-129"/>
<text text-anchor="middle" x="1012.5" y="-117" font-family="Helvetica,sans-Serif" font-size="10.00">compat/types.h</text>
</a>
</g>
</g>
<!-- Node5&#45;&gt;Node8 -->
<g id="edge7_Node000005_Node000008" class="edge">
<title>Node5&#45;&gt;Node8</title>
<g id="a_edge7_Node000005_Node000008"><a xlink:title=" ">
<path fill="none" stroke="#63b8ff" d="M1210.58,-164.98C1169.85,-155.84 1105,-141.27 1060.68,-131.32"/>
<polygon fill="#63b8ff" stroke="#63b8ff" points="1061.24,-127.86 1050.71,-129.08 1059.7,-134.69 1061.24,-127.86"/>
</a>
</g>
</g>
<!-- Node10 -->
<g id="Node000010" class="node">
<title>Node10</title>
<g id="a_Node000010"><a xlink:href="aix_8h.html" target="_top" xlink:title=" ">
<polygon fill="white" stroke="#666666" points="1172,-129 1077,-129 1077,-110 1172,-110 1172,-129"/>
<text text-anchor="middle" x="1124.5" y="-117" font-family="Helvetica,sans-Serif" font-size="10.00">compat/os/aix.h</text>
</a>
</g>
</g>
<!-- Node5&#45;&gt;Node10 -->
<g id="edge8_Node000005_Node000010" class="edge">
<title>Node5&#45;&gt;Node10</title>
<g id="a_edge8_Node000005_Node000010"><a xlink:title=" ">
<path fill="none" stroke="#63b8ff" d="M1228.58,-164.98C1208.45,-156.38 1177.12,-142.99 1154.09,-133.15"/>
<polygon fill="#63b8ff" stroke="#63b8ff" points="1155.36,-129.88 1144.79,-129.17 1152.6,-136.32 1155.36,-129.88"/>
</a>
</g>
</g>
<!-- Node11 -->
<g id="Node000011" class="node">
<title>Node11</title>
<g id="a_Node000011"><a xlink:href="android_8h.html" target="_top" xlink:title=" ">
<polygon fill="white" stroke="#666666" points="1306.5,-129 1190.5,-129 1190.5,-110 1306.5,-110 1306.5,-129"/>
<text text-anchor="middle" x="1248.5" y="-117" font-family="Helvetica,sans-Serif" font-size="10.00">compat/os/android.h</text>
</a>
</g>
</g>
<!-- Node5&#45;&gt;Node11 -->
<g id="edge9_Node000005_Node000011" class="edge">
<title>Node5&#45;&gt;Node11</title>
<g id="a_edge9_Node000005_Node000011"><a xlink:title=" ">
<path fill="none" stroke="#63b8ff" d="M1248.5,-164.75C1248.5,-157.8 1248.5,-147.85 1248.5,-139.13"/>
<polygon fill="#63b8ff" stroke="#63b8ff" points="1252,-139.09 1248.5,-129.09 1245,-139.09 1252,-139.09"/>
</a>
</g>
</g>
<!-- Node12 -->
<g id="Node000012" class="node">
<title>Node12</title>
<g id="a_Node000012"><a xlink:href="dragonfly_8h.html" target="_top" xlink:title=" ">
<polygon fill="white" stroke="#666666" points="1448.5,-129 1324.5,-129 1324.5,-110 1448.5,-110 1448.5,-129"/>
<text text-anchor="middle" x="1386.5" y="-117" font-family="Helvetica,sans-Serif" font-size="10.00">compat/os/dragonfly.h</text>
</a>
</g>
</g>
<!-- Node5&#45;&gt;Node12 -->
<g id="edge10_Node000005_Node000012" class="edge">
<title>Node5&#45;&gt;Node12</title>
<g id="a_edge10_Node000005_Node000012"><a xlink:title=" ">
<path fill="none" stroke="#63b8ff" d="M1270.67,-164.98C1293.27,-156.3 1328.56,-142.75 1354.25,-132.88"/>
<polygon fill="#63b8ff" stroke="#63b8ff" points="1355.84,-136.02 1363.92,-129.17 1353.33,-129.49 1355.84,-136.02"/>
</a>
</g>
</g>
<!-- Node13 -->
<g id="Node000013" class="node">
<title>Node13</title>
<g id="a_Node000013"><a xlink:href="freebsd_8h.html" target="_top" xlink:title=" ">
<polygon fill="white" stroke="#666666" points="1582.5,-129 1466.5,-129 1466.5,-110 1582.5,-110 1582.5,-129"/>
<text text-anchor="middle" x="1524.5" y="-117" font-family="Helvetica,sans-Serif" font-size="10.00">compat/os/freebsd.h</text>
</a>
</g>
</g>
<!-- Node5&#45;&gt;Node13 -->
<g id="edge11_Node000005_Node000013" class="edge">
<title>Node5&#45;&gt;Node13</title>
<g id="a_edge11_Node000005_Node000013"><a xlink:title=" ">
<path fill="none" stroke="#63b8ff" d="M1292.84,-164.98C1340.99,-155.74 1417.92,-140.97 1469.79,-131.01"/>
<polygon fill="#63b8ff" stroke="#63b8ff" points="1470.65,-134.41 1479.81,-129.08 1469.33,-127.53 1470.65,-134.41"/>
</a>
</g>
</g>
<!-- Node14 -->
<g id="Node000014" class="node">
<title>Node14</title>
<g id="a_Node000014"><a xlink:href="hpux_8h.html" target="_top" xlink:title=" ">
<polygon fill="white" stroke="#666666" points="1704.5,-129 1600.5,-129 1600.5,-110 1704.5,-110 1704.5,-129"/>
<text text-anchor="middle" x="1652.5" y="-117" font-family="Helvetica,sans-Serif" font-size="10.00">compat/os/hpux.h</text>
</a>
</g>
</g>
<!-- Node5&#45;&gt;Node14 -->
<g id="edge12_Node000005_Node000014" class="edge">
<title>Node5&#45;&gt;Node14</title>
<g id="a_edge12_Node000005_Node000014"><a xlink:title=" ">
<path fill="none" stroke="#63b8ff" d="M1299.66,-167.02C1364.68,-158.74 1480.66,-143.87 1590.04,-129.19"/>
<polygon fill="#63b8ff" stroke="#63b8ff" points="1590.82,-132.61 1600.26,-127.81 1589.88,-125.68 1590.82,-132.61"/>
</a>
</g>
</g>
<!-- Node15 -->
<g id="Node000015" class="node">
<title>Node15</title>
<g id="a_Node000015"><a xlink:href="linux_8h.html" target="_top" xlink:title=" ">
<polygon fill="white" stroke="#666666" points="1826.5,-129 1722.5,-129 1722.5,-110 1826.5,-110 1826.5,-129"/>
<text text-anchor="middle" x="1774.5" y="-117" font-family="Helvetica,sans-Serif" font-size="10.00">compat/os/linux.h</text>
</a>
</g>
</g>
<!-- Node5&#45;&gt;Node15 -->
<g id="edge13_Node000005_Node000015" class="edge">
<title>Node5&#45;&gt;Node15</title>
<g id="a_edge13_Node000005_Node000015"><a xlink:title=" ">
<path fill="none" stroke="#63b8ff" d="M1299.84,-169.31C1383.78,-162.31 1555.89,-147.29 1712.02,-129.13"/>
<polygon fill="#63b8ff" stroke="#63b8ff" points="1712.75,-132.57 1722.28,-127.93 1711.94,-125.61 1712.75,-132.57"/>
</a>
</g>
</g>
<!-- Node16 -->
<g id="Node000016" class="node">
<title>Node16</title>
<g id="a_Node000016"><a xlink:href="macosx_8h.html" target="_top" xlink:title=" ">
<polygon fill="white" stroke="#666666" points="1962.5,-129 1844.5,-129 1844.5,-110 1962.5,-110 1962.5,-129"/>
<text text-anchor="middle" x="1903.5" y="-117" font-family="Helvetica,sans-Serif" font-size="10.00">compat/os/macosx.h</text>
</a>
</g>
</g>
<!-- Node5&#45;&gt;Node16 -->
<g id="edge14_Node000005_Node000016" class="edge">
<title>Node5&#45;&gt;Node16</title>
<g id="a_edge14_Node000005_Node000016"><a xlink:title=" ">
<path fill="none" stroke="#63b8ff" d="M1299.61,-170.47C1399.98,-164.32 1630.14,-149.34 1834.18,-129.09"/>
<polygon fill="#63b8ff" stroke="#63b8ff" points="1834.58,-132.56 1844.18,-128.09 1833.88,-125.6 1834.58,-132.56"/>
</a>
</g>
</g>
<!-- Node17 -->
<g id="Node000017" class="node">
<title>Node17</title>
<g id="a_Node000017"><a xlink:href="mingw_8h.html" target="_top" xlink:title=" ">
<polygon fill="white" stroke="#666666" points="2092.5,-129 1980.5,-129 1980.5,-110 2092.5,-110 2092.5,-129"/>
<text text-anchor="middle" x="2036.5" y="-117" font-family="Helvetica,sans-Serif" font-size="10.00">compat/os/mingw.h</text>
</a>
</g>
</g>
<!-- Node5&#45;&gt;Node17 -->
<g id="edge15_Node000005_Node000017" class="edge">
<title>Node5&#45;&gt;Node17</title>
<g id="a_edge15_Node000005_Node000017"><a xlink:title=" ">
<path fill="none" stroke="#63b8ff" d="M1299.88,-171.55C1416.86,-166.85 1712.27,-153.49 1969.85,-129.09"/>
<polygon fill="#63b8ff" stroke="#63b8ff" points="1970.53,-132.54 1980.16,-128.11 1969.87,-125.57 1970.53,-132.54"/>
</a>
</g>
</g>
<!-- Node18 -->
<g id="Node000018" class="node">
<title>Node18</title>
<g id="a_Node000018"><a xlink:href="mswindows_8h.html" target="_top" xlink:title=" ">
<polygon fill="white" stroke="#666666" points="2248,-129 2111,-129 2111,-110 2248,-110 2248,-129"/>
<text text-anchor="middle" x="2179.5" y="-117" font-family="Helvetica,sans-Serif" font-size="10.00">compat/os/mswindows.h</text>
</a>
</g>
</g>
<!-- Node5&#45;&gt;Node18 -->
<g id="edge16_Node000005_Node000018" class="edge">
<title>Node5&#45;&gt;Node18</title>
<g id="a_edge16_Node000005_Node000018"><a xlink:title=" ">
<path fill="none" stroke="#63b8ff" d="M1299.52,-171.84C1430.58,-167.37 1789.91,-153.75 2100.52,-129.03"/>
<polygon fill="#63b8ff" stroke="#63b8ff" points="2100.93,-132.51 2110.62,-128.22 2100.37,-125.53 2100.93,-132.51"/>
</a>
</g>
</g>
<!-- Node19 -->
<g id="Node000019" class="node">
<title>Node19</title>
<g id="a_Node000019"><a xlink:href="netbsd_8h.html" target="_top" xlink:title=" ">
<polygon fill="white" stroke="#666666" points="2379,-129 2266,-129 2266,-110 2379,-110 2379,-129"/>
<text text-anchor="middle" x="2322.5" y="-117" font-family="Helvetica,sans-Serif" font-size="10.00">compat/os/netbsd.h</text>
</a>
</g>
</g>
<!-- Node5&#45;&gt;Node19 -->
<g id="edge17_Node000005_Node000019" class="edge">
<title>Node5&#45;&gt;Node19</title>
<g id="a_edge17_Node000005_Node000019"><a xlink:title=" ">
<path fill="none" stroke="#63b8ff" d="M1299.52,-172.8C1446.42,-170.45 1883.12,-161.15 2255.64,-129.09"/>
<polygon fill="#63b8ff" stroke="#63b8ff" points="2256.15,-132.56 2265.81,-128.2 2255.55,-125.58 2256.15,-132.56"/>
</a>
</g>
</g>
<!-- Node20 -->
<g id="Node000020" class="node">
<title>Node20</title>
<g id="a_Node000020"><a xlink:href="openbsd_8h.html" target="_top" xlink:title=" ">
<polygon fill="white" stroke="#666666" points="2518,-129 2397,-129 2397,-110 2518,-110 2518,-129"/>
<text text-anchor="middle" x="2457.5" y="-117" font-family="Helvetica,sans-Serif" font-size="10.00">compat/os/openbsd.h</text>
</a>
</g>
</g>
<!-- Node5&#45;&gt;Node20 -->
<g id="edge18_Node000005_Node000020" class="edge">
<title>Node5&#45;&gt;Node20</title>
<g id="a_edge18_Node000005_Node000020"><a xlink:title=" ">
<path fill="none" stroke="#63b8ff" d="M1299.51,-172.08C1488.91,-166.71 2152.49,-147.09 2386.79,-129.05"/>
<polygon fill="#63b8ff" stroke="#63b8ff" points="2387.25,-132.53 2396.95,-128.25 2386.7,-125.55 2387.25,-132.53"/>
</a>
</g>
</g>
<!-- Node21 -->
<g id="Node000021" class="node">
<title>Node21</title>
<g id="a_Node000021"><a xlink:href="os2_8h.html" target="_top" xlink:title=" ">
<polygon fill="white" stroke="#666666" points="97,-129 0,-129 0,-110 97,-110 97,-129"/>
<text text-anchor="middle" x="48.5" y="-117" font-family="Helvetica,sans-Serif" font-size="10.00">compat/os/os2.h</text>
</a>
</g>
</g>
<!-- Node5&#45;&gt;Node21 -->
<g id="edge19_Node000005_Node000021" class="edge">
<title>Node5&#45;&gt;Node21</title>
<g id="a_edge19_Node000005_Node000021"><a xlink:title=" ">
<path fill="none" stroke="#63b8ff" d="M1197.44,-173.45C1037.91,-172.87 534.53,-167.93 107.27,-128.95"/>
<polygon fill="#63b8ff" stroke="#63b8ff" points="107.47,-125.45 97.19,-128.02 106.83,-132.42 107.47,-125.45"/>
</a>
</g>
</g>
<!-- Node22 -->
<g id="Node000022" class="node">
<title>Node22</title>
<g id="a_Node000022"><a xlink:href="qnx_8h.html" target="_top" xlink:title=" ">
<polygon fill="white" stroke="#666666" points="213.5,-129 115.5,-129 115.5,-110 213.5,-110 213.5,-129"/>
<text text-anchor="middle" x="164.5" y="-117" font-family="Helvetica,sans-Serif" font-size="10.00">compat/os/qnx.h</text>
</a>
</g>
</g>
<!-- Node5&#45;&gt;Node22 -->
<g id="edge20_Node000005_Node000022" class="edge">
<title>Node5&#45;&gt;Node22</title>
<g id="a_edge20_Node000005_Node000022"><a xlink:title=" ">
<path fill="none" stroke="#63b8ff" d="M1197.4,-173.13C1048.72,-171.65 603.39,-164.45 223.59,-128.99"/>
<polygon fill="#63b8ff" stroke="#63b8ff" points="223.79,-125.49 213.51,-128.04 223.13,-132.46 223.79,-125.49"/>
</a>
</g>
</g>
<!-- Node23 -->
<g id="Node000023" class="node">
<title>Node23</title>
<g id="a_Node000023"><a xlink:href="sgi_8h.html" target="_top" xlink:title=" ">
<polygon fill="white" stroke="#666666" points="325.5,-129 231.5,-129 231.5,-110 325.5,-110 325.5,-129"/>
<text text-anchor="middle" x="278.5" y="-117" font-family="Helvetica,sans-Serif" font-size="10.00">compat/os/sgi.h</text>
</a>
</g>
</g>
<!-- Node5&#45;&gt;Node23 -->
<g id="edge21_Node000005_Node000023" class="edge">
<title>Node5&#45;&gt;Node23</title>
<g id="a_edge21_Node000005_Node000023"><a xlink:title=" ">
<path fill="none" stroke="#63b8ff" d="M1197.33,-172.84C1059.74,-170.66 670.22,-161.93 335.88,-129.02"/>
<polygon fill="#63b8ff" stroke="#63b8ff" points="335.81,-125.5 325.51,-127.99 335.11,-132.46 335.81,-125.5"/>
</a>
</g>
</g>
<!-- Node24 -->
<g id="Node000024" class="node">
<title>Node24</title>
<g id="a_Node000024"><a xlink:href="solaris_8h.html" target="_top" xlink:title=" ">
<polygon fill="white" stroke="#666666" points="455.5,-129 343.5,-129 343.5,-110 455.5,-110 455.5,-129"/>
<text text-anchor="middle" x="399.5" y="-117" font-family="Helvetica,sans-Serif" font-size="10.00">compat/os/solaris.h</text>
</a>
</g>
</g>
<!-- Node5&#45;&gt;Node24 -->
<g id="edge22_Node000005_Node000024" class="edge">
<title>Node5&#45;&gt;Node24</title>
<g id="a_edge22_Node000005_Node000024"><a xlink:title=" ">
<path fill="none" stroke="#63b8ff" d="M1197.5,-171.9C1073.85,-167.75 748.14,-155.13 465.86,-129.06"/>
<polygon fill="#63b8ff" stroke="#63b8ff" points="466.12,-125.57 455.84,-128.12 465.47,-132.54 466.12,-125.57"/>
</a>
</g>
</g>
<!-- Node25 -->
<g id="Node000025" class="node">
<title>Node25</title>
<g id="a_Node000025"><a xlink:href="sunos_8h.html" target="_top" xlink:title=" ">
<polygon fill="white" stroke="#666666" points="581.5,-129 473.5,-129 473.5,-110 581.5,-110 581.5,-129"/>
<text text-anchor="middle" x="527.5" y="-117" font-family="Helvetica,sans-Serif" font-size="10.00">compat/os/sunos.h</text>
</a>
</g>
</g>
<!-- Node5&#45;&gt;Node25 -->
<g id="edge23_Node000005_Node000025" class="edge">
<title>Node5&#45;&gt;Node25</title>
<g id="a_edge23_Node000005_Node000025"><a xlink:title=" ">
<path fill="none" stroke="#63b8ff" d="M1197.21,-171.2C1087.89,-166.03 823.68,-152.22 591.74,-129.06"/>
<polygon fill="#63b8ff" stroke="#63b8ff" points="592.07,-125.57 581.77,-128.06 591.37,-132.54 592.07,-125.57"/>
</a>
</g>
</g>
<!-- Node26 -->
<g id="Node000026" class="node">
<title>Node26</title>
<g id="a_Node000026"><a xlink:href="assert_8h.html" target="_top" xlink:title=" ">
<polygon fill="white" stroke="#666666" points="695,-129 600,-129 600,-110 695,-110 695,-129"/>
<text text-anchor="middle" x="647.5" y="-117" font-family="Helvetica,sans-Serif" font-size="10.00">compat/assert.h</text>
</a>
</g>
</g>
<!-- Node5&#45;&gt;Node26 -->
<g id="edge24_Node000005_Node000026" class="edge">
<title>Node5&#45;&gt;Node26</title>
<g id="a_edge24_Node000005_Node000026"><a xlink:title=" ">
<path fill="none" stroke="#63b8ff" d="M1197.29,-170.5C1102.28,-164.69 892.1,-150.61 705.14,-129.12"/>
<polygon fill="#63b8ff" stroke="#63b8ff" points="705.47,-125.63 695.13,-127.96 704.66,-132.59 705.47,-125.63"/>
</a>
</g>
</g>
<!-- Node46 -->
<g id="Node000046" class="node">
<title>Node46</title>
<g id="a_Node000046"><a xlink:href="CodeContext_8h.html" target="_top" xlink:title=" ">
<polygon fill="#fff0f0" stroke="red" points="2876,-184 2761,-184 2761,-165 2876,-165 2876,-184"/>
<text text-anchor="middle" x="2818.5" y="-172" font-family="Helvetica,sans-Serif" font-size="10.00">base/CodeContext.h</text>
</a>
</g>
</g>
<!-- Node45&#45;&gt;Node46 -->
<g id="edge26_Node000045_Node000046" class="edge">
<title>Node45&#45;&gt;Node46</title>
<g id="a_edge26_Node000045_Node000046"><a xlink:title=" ">
<path fill="none" stroke="#63b8ff" d="M2767.3,-219.98C2776.32,-212.15 2789.91,-200.34 2800.82,-190.86"/>
<polygon fill="#63b8ff" stroke="#63b8ff" points="2803.27,-193.37 2808.52,-184.17 2798.68,-188.09 2803.27,-193.37"/>
</a>
</g>
</g>
<!-- Node47 -->
<g id="Node000047" class="node">
<title>Node47</title>
<g id="a_Node000047"><a xlink:href="InstanceId_8h.html" target="_top" xlink:title=" ">
<polygon fill="white" stroke="#666666" points="2733.5,-129 2631.5,-129 2631.5,-110 2733.5,-110 2733.5,-129"/>
<text text-anchor="middle" x="2682.5" y="-117" font-family="Helvetica,sans-Serif" font-size="10.00">base/InstanceId.h</text>
</a>
</g>
</g>
<!-- Node45&#45;&gt;Node47 -->
<g id="edge31_Node000045_Node000047" class="edge">
<title>Node45&#45;&gt;Node47</title>
<g id="a_edge31_Node000045_Node000047"><a xlink:title=" ">
<path fill="none" stroke="#63b8ff" d="M2700.46,-220.67C2678.25,-214.52 2654.94,-203.55 2641.5,-184 2630.27,-167.67 2646.56,-148.5 2661.81,-135.54"/>
<polygon fill="#63b8ff" stroke="#63b8ff" points="2664.35,-137.99 2669.99,-129.02 2659.99,-132.51 2664.35,-137.99"/>
</a>
</g>
</g>
<!-- Node48 -->
<g id="Node000048" class="node">
<title>Node48</title>
<g id="a_Node000048"><a xlink:title=" ">
<polygon fill="#e0e0e0" stroke="#999999" points="2706.5,-74 2658.5,-74 2658.5,-55 2706.5,-55 2706.5,-74"/>
<text text-anchor="middle" x="2682.5" y="-62" font-family="Helvetica,sans-Serif" font-size="10.00">iosfwd</text>
</a>
</g>
</g>
<!-- Node45&#45;&gt;Node48 -->
<g id="edge47_Node000045_Node000048" class="edge">
<title>Node45&#45;&gt;Node48</title>
<g id="a_edge47_Node000045_Node000048"><a xlink:title=" ">
<path fill="none" stroke="#63b8ff" d="M2700.45,-220.68C2676.52,-214.53 2650.38,-203.57 2633.5,-184 2611.78,-158.82 2607.55,-139.7 2622.5,-110 2629.19,-96.71 2641.94,-86.39 2653.97,-79.05"/>
<polygon fill="#63b8ff" stroke="#63b8ff" points="2655.92,-81.97 2662.92,-74.02 2652.49,-75.87 2655.92,-81.97"/>
</a>
</g>
</g>
<!-- Node55 -->
<g id="Node000055" class="node">
<title>Node55</title>
<g id="a_Node000055"><a xlink:href="comm_2forward_8h.html" target="_top" xlink:title=" ">
<polygon fill="white" stroke="#666666" points="3235,-129 3138,-129 3138,-110 3235,-110 3235,-129"/>
<text text-anchor="middle" x="3186.5" y="-117" font-family="Helvetica,sans-Serif" font-size="10.00">comm/forward.h</text>
</a>
</g>
</g>
<!-- Node45&#45;&gt;Node55 -->
<g id="edge32_Node000045_Node000055" class="edge">
<title>Node45&#45;&gt;Node55</title>
<g id="a_edge32_Node000045_Node000055"><a xlink:title=" ">
<path fill="none" stroke="#63b8ff" d="M2814.59,-223.73C2872.22,-217.94 2963.33,-206.08 3039.5,-184 3083.88,-171.14 3132.6,-148.21 3161.31,-133.71"/>
<polygon fill="#63b8ff" stroke="#63b8ff" points="3162.94,-136.81 3170.25,-129.14 3159.75,-130.57 3162.94,-136.81"/>
</a>
</g>
</g>
<!-- Node57 -->
<g id="Node000057" class="node">
<title>Node57</title>
<g id="a_Node000057"><a xlink:href="defines_8h.html" target="_top" xlink:title=" ">
<polygon fill="white" stroke="#666666" points="3166,-184 3105,-184 3105,-165 3166,-165 3166,-184"/>
<text text-anchor="middle" x="3135.5" y="-172" font-family="Helvetica,sans-Serif" font-size="10.00">defines.h</text>
</a>
</g>
</g>
<!-- Node45&#45;&gt;Node57 -->
<g id="edge35_Node000045_Node000057" class="edge">
<title>Node45&#45;&gt;Node57</title>
<g id="a_edge35_Node000045_Node000057"><a xlink:title=" ">
<path fill="none" stroke="#63b8ff" d="M2814.79,-221.79C2881.25,-213.8 2994.05,-199.54 3090.5,-184 3091.78,-183.79 3093.08,-183.58 3094.39,-183.36"/>
<polygon fill="#63b8ff" stroke="#63b8ff" points="3095.31,-186.75 3104.55,-181.57 3094.1,-179.86 3095.31,-186.75"/>
</a>
</g>
</g>
<!-- Node58 -->
<g id="Node000058" class="node">
<title>Node58</title>
<g id="a_Node000058"><a xlink:href="Eui48_8h.html" target="_top" xlink:title=" ">
<polygon fill="#fff0f0" stroke="red" points="2376,-184 2305,-184 2305,-165 2376,-165 2376,-184"/>
<text text-anchor="middle" x="2340.5" y="-172" font-family="Helvetica,sans-Serif" font-size="10.00">eui/Eui48.h</text>
</a>
</g>
</g>
<!-- Node45&#45;&gt;Node58 -->
<g id="edge36_Node000045_Node000058" class="edge">
<title>Node45&#45;&gt;Node58</title>
<g id="a_edge36_Node000045_Node000058"><a xlink:title=" ">
<path fill="none" stroke="#63b8ff" d="M2700.3,-222.87C2629.12,-215.6 2503.65,-201.89 2386.21,-184.01"/>
<polygon fill="#63b8ff" stroke="#63b8ff" points="2386.74,-180.55 2376.32,-182.49 2385.68,-187.47 2386.74,-180.55"/>
</a>
</g>
</g>
<!-- Node60 -->
<g id="Node000060" class="node">
<title>Node60</title>
<g id="a_Node000060"><a xlink:href="eui_2Eui64_8h.html" target="_top" xlink:title=" ">
<polygon fill="#fff0f0" stroke="red" points="2465,-184 2394,-184 2394,-165 2465,-165 2465,-184"/>
<text text-anchor="middle" x="2429.5" y="-172" font-family="Helvetica,sans-Serif" font-size="10.00">eui/Eui64.h</text>
</a>
</g>
</g>
<!-- Node45&#45;&gt;Node60 -->
<g id="edge37_Node000045_Node000060" class="edge">
<title>Node45&#45;&gt;Node60</title>
<g id="a_edge37_Node000045_Node000060"><a xlink:title=" ">
<path fill="none" stroke="#63b8ff" d="M2700.23,-220.02C2645.18,-211.75 2559.39,-198.56 2475.32,-184.1"/>
<polygon fill="#63b8ff" stroke="#63b8ff" points="2475.79,-180.63 2465.34,-182.37 2474.6,-187.52 2475.79,-180.63"/>
</a>
</g>
</g>
<!-- Node61 -->
<g id="Node000061" class="node">
<title>Node61</title>
<g id="a_Node000061"><a xlink:href="hier__code_8h.html" target="_top" xlink:title=" ">
<polygon fill="white" stroke="#666666" points="2556,-184 2483,-184 2483,-165 2556,-165 2556,-184"/>
<text text-anchor="middle" x="2519.5" y="-172" font-family="Helvetica,sans-Serif" font-size="10.00">hier_code.h</text>
</a>
</g>
</g>
<!-- Node45&#45;&gt;Node61 -->
<g id="edge38_Node000045_Node000061" class="edge">
<title>Node45&#45;&gt;Node61</title>
<g id="a_edge38_Node000045_Node000061"><a xlink:title=" ">
<path fill="none" stroke="#63b8ff" d="M2719.26,-219.98C2677.57,-210.7 2610.84,-195.84 2566.11,-185.88"/>
<polygon fill="#63b8ff" stroke="#63b8ff" points="2566.6,-182.4 2556.08,-183.65 2565.08,-189.24 2566.6,-182.4"/>
</a>
</g>
</g>
<!-- Node62 -->
<g id="Node000062" class="node">
<title>Node62</title>
<g id="a_Node000062"><a xlink:href="ip_2Address_8h.html" target="_top" xlink:title=" ">
<polygon fill="#fff0f0" stroke="red" points="3010,-184 2933,-184 2933,-165 3010,-165 3010,-184"/>
<text text-anchor="middle" x="2971.5" y="-172" font-family="Helvetica,sans-Serif" font-size="10.00">ip/Address.h</text>
</a>
</g>
</g>
<!-- Node45&#45;&gt;Node62 -->
<g id="edge39_Node000045_Node000062" class="edge">
<title>Node45&#45;&gt;Node62</title>
<g id="a_edge39_Node000045_Node000062"><a xlink:title=" ">
<path fill="none" stroke="#63b8ff" d="M2791.88,-219.98C2828.59,-210.89 2886.88,-196.46 2927.05,-186.51"/>
<polygon fill="#63b8ff" stroke="#63b8ff" points="2927.98,-189.88 2936.85,-184.08 2926.3,-183.09 2927.98,-189.88"/>
</a>
</g>
</g>
<!-- Node63 -->
<g id="Node000063" class="node">
<title>Node63</title>
<g id="a_Node000063"><a xlink:href="ip_2forward_8h.html" target="_top" xlink:title=" ">
<polygon fill="white" stroke="#666666" points="3076,-129 3001,-129 3001,-110 3076,-110 3076,-129"/>
<text text-anchor="middle" x="3038.5" y="-117" font-family="Helvetica,sans-Serif" font-size="10.00">ip/forward.h</text>
</a>
</g>
</g>
<!-- Node45&#45;&gt;Node63 -->
<g id="edge43_Node000045_Node000063" class="edge">
<title>Node45&#45;&gt;Node63</title>
<g id="a_edge43_Node000045_Node000063"><a xlink:title=" ">
<path fill="none" stroke="#63b8ff" d="M2814.61,-225.72C2882.35,-221.27 2989.86,-210.21 3019.5,-184 3032.01,-172.93 3036.45,-153.99 3037.94,-139.67"/>
<polygon fill="#63b8ff" stroke="#63b8ff" points="3041.45,-139.62 3038.6,-129.41 3034.46,-139.17 3041.45,-139.62"/>
</a>
</g>
</g>
<!-- Node64 -->
<g id="Node000064" class="node">
<title>Node64</title>
<g id="a_Node000064"><a xlink:title=" ">
<polygon fill="#e0e0e0" stroke="#999999" points="2938,-129 2881,-129 2881,-110 2938,-110 2938,-129"/>
<text text-anchor="middle" x="2909.5" y="-117" font-family="Helvetica,sans-Serif" font-size="10.00">ostream</text>
</a>
</g>
</g>
<!-- Node45&#45;&gt;Node64 -->
<g id="edge48_Node000045_Node000064" class="edge">
<title>Node45&#45;&gt;Node64</title>
<g id="a_edge48_Node000045_Node000064"><a xlink:title=" ">
<path fill="none" stroke="#63b8ff" d="M2813.9,-219.97C2838.56,-213.68 2866.2,-202.79 2885.5,-184 2897.76,-172.06 2903.83,-153.24 2906.79,-139.18"/>
<polygon fill="#63b8ff" stroke="#63b8ff" points="2910.27,-139.61 2908.56,-129.15 2903.38,-138.4 2910.27,-139.61"/>
</a>
</g>
</g>
<!-- Node66 -->
<g id="Node000066" class="node">
<title>Node66</title>
<g id="a_Node000066"><a xlink:title=" ">
<polygon fill="#e0e0e0" stroke="#999999" points="2742.5,-184 2650.5,-184 2650.5,-165 2742.5,-165 2742.5,-184"/>
<text text-anchor="middle" x="2696.5" y="-172" font-family="Helvetica,sans-Serif" font-size="10.00">mem/forward.h</text>
</a>
</g>
</g>
<!-- Node45&#45;&gt;Node66 -->
<g id="edge44_Node000045_Node000066" class="edge">
<title>Node45&#45;&gt;Node66</title>
<g id="a_edge44_Node000045_Node000066"><a xlink:title=" ">
<path fill="none" stroke="#63b8ff" d="M2747.7,-219.98C2738.68,-212.15 2725.09,-200.34 2714.18,-190.86"/>
<polygon fill="#63b8ff" stroke="#63b8ff" points="2716.32,-188.09 2706.48,-184.17 2711.73,-193.37 2716.32,-188.09"/>
</a>
</g>
</g>
<!-- Node67 -->
<g id="Node000067" class="node">
<title>Node67</title>
<g id="a_Node000067"><a xlink:href="time_2gadgets_8h.html" target="_top" xlink:title=" ">
<polygon fill="#fff0f0" stroke="red" points="2286.5,-184 2196.5,-184 2196.5,-165 2286.5,-165 2286.5,-184"/>
<text text-anchor="middle" x="2241.5" y="-172" font-family="Helvetica,sans-Serif" font-size="10.00">time/gadgets.h</text>
</a>
</g>
</g>
<!-- Node45&#45;&gt;Node67 -->
<g id="edge45_Node000045_Node000067" class="edge">
<title>Node45&#45;&gt;Node67</title>
<g id="a_edge45_Node000045_Node000067"><a xlink:title=" ">
<path fill="none" stroke="#63b8ff" d="M2700.25,-224.03C2614.85,-217.13 2448.83,-202.82 2296.79,-183.96"/>
<polygon fill="#63b8ff" stroke="#63b8ff" points="2297.15,-180.48 2286.79,-182.71 2296.28,-187.42 2297.15,-180.48"/>
</a>
</g>
</g>
<!-- Node46&#45;&gt;Node47 -->
<g id="edge27_Node000046_Node000047" class="edge">
<title>Node46&#45;&gt;Node47</title>
<g id="a_edge27_Node000046_Node000047"><a xlink:title=" ">
<path fill="none" stroke="#63b8ff" d="M2796.65,-164.98C2774.38,-156.3 2739.6,-142.75 2714.28,-132.88"/>
<polygon fill="#63b8ff" stroke="#63b8ff" points="2715.34,-129.54 2704.75,-129.17 2712.79,-136.06 2715.34,-129.54"/>
</a>
</g>
</g>
<!-- Node46&#45;&gt;Node48 -->
<g id="edge30_Node000046_Node000048" class="edge">
<title>Node46&#45;&gt;Node48</title>
<g id="a_edge30_Node000046_Node000048"><a xlink:title=" ">
<path fill="none" stroke="#63b8ff" d="M2808.33,-164.68C2793.89,-152.24 2766.54,-128.94 2742.5,-110 2729.51,-99.77 2714.58,-88.69 2702.86,-80.15"/>
<polygon fill="#63b8ff" stroke="#63b8ff" points="2704.76,-77.2 2694.61,-74.16 2700.65,-82.87 2704.76,-77.2"/>
</a>
</g>
</g>
<!-- Node49 -->
<g id="Node000049" class="node">
<title>Node49</title>
<g id="a_Node000049"><a xlink:href="RefCount_8h.html" target="_top" xlink:title=" ">
<polygon fill="#fff0f0" stroke="red" points="3357,-74 3260,-74 3260,-55 3357,-55 3357,-74"/>
<text text-anchor="middle" x="3308.5" y="-62" font-family="Helvetica,sans-Serif" font-size="10.00">base/RefCount.h</text>
</a>
</g>
</g>
<!-- Node46&#45;&gt;Node49 -->
<g id="edge29_Node000046_Node000049" class="edge">
<title>Node46&#45;&gt;Node49</title>
<g id="a_edge29_Node000046_Node000049"><a xlink:title=" ">
<path fill="none" stroke="#63b8ff" d="M2823.06,-164.66C2830.96,-150.37 2848.67,-122.52 2872.5,-110 2936.56,-76.33 3146.14,-68.13 3249.62,-66.14"/>
<polygon fill="#63b8ff" stroke="#63b8ff" points="3249.96,-69.63 3259.89,-65.95 3249.83,-62.63 3249.96,-69.63"/>
</a>
</g>
</g>
<!-- Node47&#45;&gt;Node48 -->
<g id="edge28_Node000047_Node000048" class="edge">
<title>Node47&#45;&gt;Node48</title>
<g id="a_edge28_Node000047_Node000048"><a xlink:title=" ">
<path fill="none" stroke="#63b8ff" d="M2682.5,-109.75C2682.5,-102.8 2682.5,-92.85 2682.5,-84.13"/>
<polygon fill="#63b8ff" stroke="#63b8ff" points="2686,-84.09 2682.5,-74.09 2679,-84.09 2686,-84.09"/>
</a>
</g>
</g>
<!-- Node55&#45;&gt;Node49 -->
<g id="edge33_Node000055_Node000049" class="edge">
<title>Node55&#45;&gt;Node49</title>
<g id="a_edge33_Node000055_Node000049"><a xlink:title=" ">
<path fill="none" stroke="#63b8ff" d="M3206.1,-109.98C3225.82,-101.42 3256.45,-88.11 3279.08,-78.28"/>
<polygon fill="#63b8ff" stroke="#63b8ff" points="3280.76,-81.37 3288.54,-74.17 3277.98,-74.94 3280.76,-81.37"/>
</a>
</g>
</g>
<!-- Node56 -->
<g id="Node000056" class="node">
<title>Node56</title>
<g id="a_Node000056"><a xlink:title=" ">
<polygon fill="#e0e0e0" stroke="#999999" points="3369,-19 3322,-19 3322,0 3369,0 3369,-19"/>
<text text-anchor="middle" x="3345.5" y="-7" font-family="Helvetica,sans-Serif" font-size="10.00">vector</text>
</a>
</g>
</g>
<!-- Node55&#45;&gt;Node56 -->
<g id="edge34_Node000055_Node000056" class="edge">
<title>Node55&#45;&gt;Node56</title>
<g id="a_edge34_Node000055_Node000056"><a xlink:title=" ">
<path fill="none" stroke="#63b8ff" d="M3193.75,-109.76C3205.02,-96.58 3227.93,-71.4 3251.5,-55 3270.43,-41.83 3293.87,-30.72 3312.61,-22.9"/>
<polygon fill="#63b8ff" stroke="#63b8ff" points="3313.98,-26.12 3321.93,-19.11 3311.35,-19.63 3313.98,-26.12"/>
</a>
</g>
</g>
<!-- Node62&#45;&gt;Node48 -->
<g id="edge41_Node000062_Node000048" class="edge">
<title>Node62&#45;&gt;Node48</title>
<g id="a_edge41_Node000062_Node000048"><a xlink:title=" ">
<path fill="none" stroke="#63b8ff" d="M2970.9,-164.97C2969.43,-151.13 2964.44,-123.92 2947.5,-110 2912.83,-81.51 2780.63,-70.71 2717.05,-67.1"/>
<polygon fill="#63b8ff" stroke="#63b8ff" points="2716.91,-63.59 2706.74,-66.54 2716.53,-70.58 2716.91,-63.59"/>
</a>
</g>
</g>
<!-- Node62&#45;&gt;Node63 -->
<g id="edge40_Node000062_Node000063" class="edge">
<title>Node62&#45;&gt;Node63</title>
<g id="a_edge40_Node000062_Node000063"><a xlink:title=" ">
<path fill="none" stroke="#63b8ff" d="M2982.26,-164.98C2992.27,-157.07 3007.39,-145.11 3019.43,-135.58"/>
<polygon fill="#63b8ff" stroke="#63b8ff" points="3021.87,-138.12 3027.54,-129.17 3017.53,-132.63 3021.87,-138.12"/>
</a>
</g>
</g>
<!-- Node62&#45;&gt;Node64 -->
<g id="edge42_Node000062_Node000064" class="edge">
<title>Node62&#45;&gt;Node64</title>
<g id="a_edge42_Node000062_Node000064"><a xlink:title=" ">
<path fill="none" stroke="#63b8ff" d="M2961.54,-164.98C2952.37,-157.15 2938.56,-145.34 2927.47,-135.86"/>
<polygon fill="#63b8ff" stroke="#63b8ff" points="2929.52,-133.01 2919.64,-129.17 2924.97,-138.33 2929.52,-133.01"/>
</a>
</g>
</g>
<!-- Node67&#45;&gt;Node48 -->
<g id="edge46_Node000067_Node000048" class="edge">
<title>Node67&#45;&gt;Node48</title>
<g id="a_edge46_Node000067_Node000048"><a xlink:title=" ">
<path fill="none" stroke="#63b8ff" d="M2286.54,-166.53C2366.73,-154.11 2526.06,-129.42 2527.5,-129 2547.55,-123.12 2551.23,-118.08 2570.5,-110 2597.39,-98.72 2628.2,-86.53 2650.69,-77.77"/>
<polygon fill="#63b8ff" stroke="#63b8ff" points="2652.03,-81 2660.09,-74.12 2649.5,-74.48 2652.03,-81"/>
</a>
</g>
</g>
<!-- Node69&#45;&gt;Node56 -->
<g id="edge50_Node000069_Node000056" class="edge">
<title>Node69&#45;&gt;Node56</title>
<g id="a_edge50_Node000069_Node000056"><a xlink:title=" ">
<path fill="none" stroke="#63b8ff" d="M3442.02,-54.98C3423.52,-46.46 3394.82,-33.23 3373.52,-23.41"/>
<polygon fill="#63b8ff" stroke="#63b8ff" points="3374.86,-20.18 3364.31,-19.17 3371.93,-26.53 3374.86,-20.18"/>
</a>
</g>
</g>
<!-- Node70&#45;&gt;Node46 -->
<g id="edge52_Node000070_Node000046" class="edge">
<title>Node70&#45;&gt;Node46</title>
<g id="a_edge52_Node000070_Node000046"><a xlink:title=" ">
<path fill="none" stroke="#63b8ff" d="M3211.97,-225.87C3153.25,-218.35 2982.68,-196.52 2886.51,-184.21"/>
<polygon fill="#63b8ff" stroke="#63b8ff" points="2886.66,-180.7 2876.3,-182.9 2885.77,-187.64 2886.66,-180.7"/>
</a>
</g>
</g>
<!-- Node70&#45;&gt;Node57 -->
<g id="edge55_Node000070_Node000057" class="edge">
<title>Node70&#45;&gt;Node57</title>
<g id="a_edge55_Node000070_Node000057"><a xlink:title=" ">
<path fill="none" stroke="#63b8ff" d="M3216.92,-219.98C3201.73,-211.69 3178.4,-198.94 3160.6,-189.22"/>
<polygon fill="#63b8ff" stroke="#63b8ff" points="3161.82,-185.89 3151.37,-184.17 3158.47,-192.04 3161.82,-185.89"/>
</a>
</g>
</g>
<!-- Node70&#45;&gt;Node62 -->
<g id="edge56_Node000070_Node000062" class="edge">
<title>Node70&#45;&gt;Node62</title>
<g id="a_edge56_Node000070_Node000062"><a xlink:title=" ">
<path fill="none" stroke="#63b8ff" d="M3211.58,-224.25C3170.39,-215.89 3077.78,-197.08 3020.37,-185.42"/>
<polygon fill="#63b8ff" stroke="#63b8ff" points="3020.93,-181.97 3010.43,-183.41 3019.54,-188.83 3020.93,-181.97"/>
</a>
</g>
</g>
<!-- Node70&#45;&gt;Node63 -->
<g id="edge57_Node000070_Node000063" class="edge">
<title>Node70&#45;&gt;Node63</title>
<g id="a_edge57_Node000070_Node000063"><a xlink:title=" ">
<path fill="none" stroke="#63b8ff" d="M3226.93,-219.78C3217.8,-206.16 3198.35,-179.86 3175.5,-165 3148.43,-147.39 3113.81,-136.22 3086.14,-129.48"/>
<polygon fill="#63b8ff" stroke="#63b8ff" points="3086.82,-126.05 3076.29,-127.19 3085.24,-132.86 3086.82,-126.05"/>
</a>
</g>
</g>
<!-- Node71 -->
<g id="Node000071" class="node">
<title>Node71</title>
<g id="a_Node000071"><a xlink:href="base_2forward_8h.html" target="_top" xlink:title=" ">
<polygon fill="white" stroke="#666666" points="3342,-129 3253,-129 3253,-110 3342,-110 3342,-129"/>
<text text-anchor="middle" x="3297.5" y="-117" font-family="Helvetica,sans-Serif" font-size="10.00">base/forward.h</text>
</a>
</g>
</g>
<!-- Node70&#45;&gt;Node71 -->
<g id="edge53_Node000070_Node000071" class="edge">
<title>Node70&#45;&gt;Node71</title>
<g id="a_edge53_Node000070_Node000071"><a xlink:title=" ">
<path fill="none" stroke="#63b8ff" d="M3233.68,-219.71C3235.72,-206.9 3240.74,-182.7 3251.5,-165 3258.31,-153.81 3268.6,-143.48 3277.73,-135.6"/>
<polygon fill="#63b8ff" stroke="#63b8ff" points="3280.14,-138.15 3285.65,-129.1 3275.7,-132.74 3280.14,-138.15"/>
</a>
</g>
</g>
<!-- Node72 -->
<g id="Node000072" class="node">
<title>Node72</title>
<g id="a_Node000072"><a xlink:href="comm_8h.html" target="_top" xlink:title=" ">
<polygon fill="#fff0f0" stroke="red" points="3526.5,-184 3470.5,-184 3470.5,-165 3526.5,-165 3526.5,-184"/>
<text text-anchor="middle" x="3498.5" y="-172" font-family="Helvetica,sans-Serif" font-size="10.00">comm.h</text>
</a>
</g>
</g>
<!-- Node70&#45;&gt;Node72 -->
<g id="edge54_Node000070_Node000072" class="edge">
<title>Node70&#45;&gt;Node72</title>
<g id="a_edge54_Node000070_Node000072"><a xlink:title=" ">
<path fill="none" stroke="#63b8ff" d="M3253.07,-224.74C3291.66,-217.65 3377.76,-201.57 3460.21,-184.22"/>
<polygon fill="#63b8ff" stroke="#63b8ff" points="3461.18,-187.59 3470.24,-182.1 3459.73,-180.74 3461.18,-187.59"/>
</a>
</g>
</g>
<!-- Node119 -->
<g id="Node000119" class="node">
<title>Node119</title>
<g id="a_Node000119"><a xlink:href="security_2forward_8h.html" target="_top" xlink:title=" ">
<polygon fill="#fff0f0" stroke="red" points="3452,-184 3347,-184 3347,-165 3452,-165 3452,-184"/>
<text text-anchor="middle" x="3399.5" y="-172" font-family="Helvetica,sans-Serif" font-size="10.00">security/forward.h</text>
</a>
</g>
</g>
<!-- Node70&#45;&gt;Node119 -->
<g id="edge58_Node000070_Node000119" class="edge">
<title>Node70&#45;&gt;Node119</title>
<g id="a_edge58_Node000070_Node000119"><a xlink:title=" ">
<path fill="none" stroke="#63b8ff" d="M3253.31,-221.89C3280.65,-213.22 3329.11,-197.84 3362.71,-187.18"/>
<polygon fill="#63b8ff" stroke="#63b8ff" points="3364.14,-190.39 3372.62,-184.03 3362.03,-183.72 3364.14,-190.39"/>
</a>
</g>
</g>
<!-- Node147 -->
<g id="Node000147" class="node">
<title>Node147</title>
<g id="a_Node000147"><a xlink:href="typedefs_8h.html" target="_top" xlink:title=" ">
<polygon fill="#fff0f0" stroke="red" points="3328.5,-184 3260.5,-184 3260.5,-165 3328.5,-165 3328.5,-184"/>
<text text-anchor="middle" x="3294.5" y="-172" font-family="Helvetica,sans-Serif" font-size="10.00">typedefs.h</text>
</a>
</g>
</g>
<!-- Node70&#45;&gt;Node147 -->
<g id="edge60_Node000070_Node000147" class="edge">
<title>Node70&#45;&gt;Node147</title>
<g id="a_edge60_Node000070_Node000147"><a xlink:title=" ">
<path fill="none" stroke="#63b8ff" d="M3242.46,-219.98C3251.63,-212.15 3265.44,-200.34 3276.53,-190.86"/>
<polygon fill="#63b8ff" stroke="#63b8ff" points="3279.03,-193.33 3284.36,-184.17 3274.48,-188.01 3279.03,-193.33"/>
</a>
</g>
</g>
<!-- Node70&#45;&gt;Node149 -->
<g id="edge61_Node000070_Node000149" class="edge">
<title>Node70&#45;&gt;Node149</title>
<g id="a_edge61_Node000070_Node000149"><a xlink:title=" ">
<path fill="none" stroke="#63b8ff" d="M3253.06,-225.5C3306.4,-217.71 3450.88,-196.62 3534.14,-184.46"/>
<polygon fill="#63b8ff" stroke="#63b8ff" points="3534.83,-187.89 3544.22,-182.99 3533.82,-180.97 3534.83,-187.89"/>
</a>
</g>
</g>
<!-- Node119&#45;&gt;Node71 -->
<g id="edge59_Node000119_Node000071" class="edge">
<title>Node119&#45;&gt;Node71</title>
<g id="a_edge59_Node000119_Node000071"><a xlink:title=" ">
<path fill="none" stroke="#63b8ff" d="M3383.11,-164.98C3366.93,-156.57 3341.93,-143.59 3323.12,-133.81"/>
<polygon fill="#63b8ff" stroke="#63b8ff" points="3324.67,-130.68 3314.19,-129.17 3321.45,-136.89 3324.67,-130.68"/>
</a>
</g>
</g>
<!-- Node149&#45;&gt;Node49 -->
<g id="edge63_Node000149_Node000049" class="edge">
<title>Node149&#45;&gt;Node49</title>
<g id="a_edge63_Node000149_Node000049"><a xlink:title=" ">
<path fill="none" stroke="#63b8ff" d="M3544.38,-165.16C3492.63,-156.25 3416.49,-141.67 3389.5,-129 3364.39,-117.21 3339.94,-96.37 3324.59,-81.79"/>
<polygon fill="#63b8ff" stroke="#63b8ff" points="3326.66,-78.91 3317.05,-74.43 3321.77,-83.92 3326.66,-78.91"/>
</a>
</g>
</g>
<!-- Node149&#45;&gt;Node55 -->
<g id="edge64_Node000149_Node000055" class="edge">
<title>Node149&#45;&gt;Node55</title>
<g id="a_edge64_Node000149_Node000055"><a xlink:title=" ">
<path fill="none" stroke="#63b8ff" d="M3544.45,-166.2C3541.42,-165.79 3538.42,-165.39 3535.5,-165 3409.47,-148.28 3375.3,-146.53 3245.18,-129.06"/>
<polygon fill="#63b8ff" stroke="#63b8ff" points="3245.6,-125.59 3235.22,-127.72 3244.67,-132.53 3245.6,-125.59"/>
</a>
</g>
</g>
<!-- Node150 -->
<g id="Node000150" class="node">
<title>Node150</title>
<g id="a_Node000150"><a xlink:href="BandwidthBucket_8h.html" target="_top" xlink:title=" ">
<polygon fill="#fff0f0" stroke="red" points="3650.5,-129 3540.5,-129 3540.5,-110 3650.5,-110 3650.5,-129"/>
<text text-anchor="middle" x="3595.5" y="-117" font-family="Helvetica,sans-Serif" font-size="10.00">BandwidthBucket.h</text>
</a>
</g>
</g>
<!-- Node149&#45;&gt;Node150 -->
<g id="edge62_Node000149_Node000150" class="edge">
<title>Node149&#45;&gt;Node150</title>
<g id="a_edge62_Node000149_Node000150"><a xlink:title=" ">
<path fill="none" stroke="#63b8ff" d="M3595.5,-164.75C3595.5,-157.8 3595.5,-147.85 3595.5,-139.13"/>
<polygon fill="#63b8ff" stroke="#63b8ff" points="3599,-139.09 3595.5,-129.09 3592,-139.09 3599,-139.09"/>
</a>
</g>
</g>
<!-- Node151 -->
<g id="Node000151" class="node">
<title>Node151</title>
<g id="a_Node000151"><a xlink:href="MessageDelayPools_8h.html" target="_top" xlink:title=" ">
<polygon fill="#fff0f0" stroke="red" points="3522.5,-129 3398.5,-129 3398.5,-110 3522.5,-110 3522.5,-129"/>
<text text-anchor="middle" x="3460.5" y="-117" font-family="Helvetica,sans-Serif" font-size="10.00">MessageDelayPools.h</text>
</a>
</g>
</g>
<!-- Node149&#45;&gt;Node151 -->
<g id="edge65_Node000149_Node000151" class="edge">
<title>Node149&#45;&gt;Node151</title>
<g id="a_edge65_Node000149_Node000151"><a xlink:title=" ">
<path fill="none" stroke="#63b8ff" d="M3573.81,-164.98C3551.7,-156.3 3517.18,-142.75 3492.05,-132.88"/>
<polygon fill="#63b8ff" stroke="#63b8ff" points="3493.17,-129.57 3482.58,-129.17 3490.61,-136.08 3493.17,-129.57"/>
</a>
</g>
</g>
<!-- Node151&#45;&gt;Node49 -->
<g id="edge66_Node000151_Node000049" class="edge">
<title>Node151&#45;&gt;Node49</title>
<g id="a_edge66_Node000151_Node000049"><a xlink:title=" ">
<path fill="none" stroke="#63b8ff" d="M3436.08,-109.98C3410.78,-101.16 3371.05,-87.31 3342.64,-77.41"/>
<polygon fill="#63b8ff" stroke="#63b8ff" points="3343.71,-74.07 3333.11,-74.08 3341.4,-80.68 3343.71,-74.07"/>
</a>
</g>
</g>
<!-- Node151&#45;&gt;Node69 -->
<g id="edge67_Node000151_Node000069" class="edge">
<title>Node151&#45;&gt;Node69</title>
<g id="a_edge67_Node000151_Node000069"><a xlink:title=" ">
<path fill="none" stroke="#63b8ff" d="M3460.5,-109.75C3460.5,-102.8 3460.5,-92.85 3460.5,-84.13"/>
<polygon fill="#63b8ff" stroke="#63b8ff" points="3464,-84.09 3460.5,-74.09 3457,-84.09 3464,-84.09"/>
</a>
</g>
</g>
</g>
</svg>
