<?xml version="1.0" encoding="UTF-8" standalone="no"?>
<!DOCTYPE svg PUBLIC "-//W3C//DTD SVG 1.1//EN"
 "http://www.w3.org/Graphics/SVG/1.1/DTD/svg11.dtd">
<!-- Generated by graphviz version 2.43.0 (0)
 -->
<!-- Title: squid/src/mgr/Response.cc Pages: 1 -->
<svg width="4017pt" height="302pt"
 viewBox="0.00 0.00 4017.00 302.00" xmlns="http://www.w3.org/2000/svg" xmlns:xlink="http://www.w3.org/1999/xlink">
<g id="graph0" class="graph" transform="scale(1 1) rotate(0) translate(4 298)">
<title>squid/src/mgr/Response.cc</title>
<!-- Node1 -->
<g id="Node000001" class="node">
<title>Node1</title>
<g id="a_Node000001"><a xlink:title=" ">
<polygon fill="#999999" stroke="#666666" points="3165,-294 3019,-294 3019,-275 3165,-275 3165,-294"/>
<text text-anchor="middle" x="3092" y="-282" font-family="Helvetica,sans-Serif" font-size="10.00">squid/src/mgr/Response.cc</text>
</a>
</g>
</g>
<!-- Node2 -->
<g id="Node000002" class="node">
<title>Node2</title>
<g id="a_Node000002"><a xlink:href="squid_8h.html" target="_top" xlink:title=" ">
<polygon fill="white" stroke="#666666" points="1316,-239 1264,-239 1264,-220 1316,-220 1316,-239"/>
<text text-anchor="middle" x="1290" y="-227" font-family="Helvetica,sans-Serif" font-size="10.00">squid.h</text>
</a>
</g>
</g>
<!-- Node1&#45;&gt;Node2 -->
<g id="edge1_Node000001_Node000002" class="edge">
<title>Node1&#45;&gt;Node2</title>
<g id="a_edge1_Node000001_Node000002"><a xlink:title=" ">
<path fill="none" stroke="#63b8ff" d="M3018.85,-281.35C2713.59,-272.37 1547.05,-238.06 1326.2,-231.56"/>
<polygon fill="#63b8ff" stroke="#63b8ff" points="1326.22,-228.06 1316.12,-231.27 1326.01,-235.06 1326.22,-228.06"/>
</a>
</g>
</g>
<!-- Node44 -->
<g id="Node000044" class="node">
<title>Node44</title>
<g id="a_Node000044"><a xlink:href="TextException_8h.html" target="_top" xlink:title=" ">
<polygon fill="white" stroke="#666666" points="2697,-239 2577,-239 2577,-220 2697,-220 2697,-239"/>
<text text-anchor="middle" x="2637" y="-227" font-family="Helvetica,sans-Serif" font-size="10.00">base/TextException.h</text>
</a>
</g>
</g>
<!-- Node1&#45;&gt;Node44 -->
<g id="edge25_Node000001_Node000044" class="edge">
<title>Node1&#45;&gt;Node44</title>
<g id="a_edge25_Node000001_Node000044"><a xlink:title=" ">
<path fill="none" stroke="#63b8ff" d="M3018.9,-274.98C2933.08,-264.99 2791.77,-248.53 2707.22,-238.68"/>
<polygon fill="#63b8ff" stroke="#63b8ff" points="2707.54,-235.19 2697.2,-237.51 2706.73,-242.15 2707.54,-235.19"/>
</a>
</g>
</g>
<!-- Node49 -->
<g id="Node000049" class="node">
<title>Node49</title>
<g id="a_Node000049"><a xlink:href="CacheManager_8h.html" target="_top" xlink:title=" ">
<polygon fill="white" stroke="#666666" points="3331,-239 3233,-239 3233,-220 3331,-220 3331,-239"/>
<text text-anchor="middle" x="3282" y="-227" font-family="Helvetica,sans-Serif" font-size="10.00">CacheManager.h</text>
</a>
</g>
</g>
<!-- Node1&#45;&gt;Node49 -->
<g id="edge31_Node000001_Node000049" class="edge">
<title>Node1&#45;&gt;Node49</title>
<g id="a_edge31_Node000001_Node000049"><a xlink:title=" ">
<path fill="none" stroke="#63b8ff" d="M3122.53,-274.98C3154.7,-266.01 3205.56,-251.82 3241.17,-241.89"/>
<polygon fill="#63b8ff" stroke="#63b8ff" points="3242.54,-245.14 3251.23,-239.08 3240.66,-238.4 3242.54,-245.14"/>
</a>
</g>
</g>
<!-- Node62 -->
<g id="Node000062" class="node">
<title>Node62</title>
<g id="a_Node000062"><a xlink:href="ActionProfile_8h.html" target="_top" xlink:title=" ">
<polygon fill="white" stroke="#666666" points="3147,-184 3037,-184 3037,-165 3147,-165 3147,-184"/>
<text text-anchor="middle" x="3092" y="-172" font-family="Helvetica,sans-Serif" font-size="10.00">mgr/ActionProfile.h</text>
</a>
</g>
</g>
<!-- Node1&#45;&gt;Node62 -->
<g id="edge61_Node000001_Node000062" class="edge">
<title>Node1&#45;&gt;Node62</title>
<g id="a_edge61_Node000001_Node000062"><a xlink:title=" ">
<path fill="none" stroke="#63b8ff" d="M3092,-274.66C3092,-257.17 3092,-217.8 3092,-194.27"/>
<polygon fill="#63b8ff" stroke="#63b8ff" points="3095.5,-194.16 3092,-184.16 3088.5,-194.16 3095.5,-194.16"/>
</a>
</g>
</g>
<!-- Node63 -->
<g id="Node000063" class="node">
<title>Node63</title>
<g id="a_Node000063"><a xlink:href="ActionCreator_8h.html" target="_top" xlink:title=" ">
<polygon fill="white" stroke="#666666" points="3257,-129 3143,-129 3143,-110 3257,-110 3257,-129"/>
<text text-anchor="middle" x="3200" y="-117" font-family="Helvetica,sans-Serif" font-size="10.00">mgr/ActionCreator.h</text>
</a>
</g>
</g>
<!-- Node1&#45;&gt;Node63 -->
<g id="edge60_Node000001_Node000063" class="edge">
<title>Node1&#45;&gt;Node63</title>
<g id="a_edge60_Node000001_Node000063"><a xlink:title=" ">
<path fill="none" stroke="#63b8ff" d="M3097.81,-274.74C3114.95,-248.87 3165.56,-172.48 3188.48,-137.88"/>
<polygon fill="#63b8ff" stroke="#63b8ff" points="3191.56,-139.58 3194.16,-129.31 3185.72,-135.71 3191.56,-139.58"/>
</a>
</g>
</g>
<!-- Node101 -->
<g id="Node000101" class="node">
<title>Node101</title>
<g id="a_Node000101"><a xlink:href="ipc_2Messages_8h.html" target="_top" xlink:title=" ">
<polygon fill="white" stroke="#666666" points="3811,-184 3719,-184 3719,-165 3811,-165 3811,-184"/>
<text text-anchor="middle" x="3765" y="-172" font-family="Helvetica,sans-Serif" font-size="10.00">ipc/Messages.h</text>
</a>
</g>
</g>
<!-- Node1&#45;&gt;Node101 -->
<g id="edge49_Node000001_Node000101" class="edge">
<title>Node1&#45;&gt;Node101</title>
<g id="a_edge49_Node000001_Node000101"><a xlink:title=" ">
<path fill="none" stroke="#63b8ff" d="M3145.09,-274.98C3269.9,-254.95 3581.03,-205.02 3708.84,-184.51"/>
<polygon fill="#63b8ff" stroke="#63b8ff" points="3709.49,-187.95 3718.81,-182.91 3708.38,-181.04 3709.49,-187.95"/>
</a>
</g>
</g>
<!-- Node102 -->
<g id="Node000102" class="node">
<title>Node102</title>
<g id="a_Node000102"><a xlink:href="RequestId_8h.html" target="_top" xlink:title=" ">
<polygon fill="white" stroke="#666666" points="2788,-129 2696,-129 2696,-110 2788,-110 2788,-129"/>
<text text-anchor="middle" x="2742" y="-117" font-family="Helvetica,sans-Serif" font-size="10.00">ipc/RequestId.h</text>
</a>
</g>
</g>
<!-- Node1&#45;&gt;Node102 -->
<g id="edge50_Node000001_Node000102" class="edge">
<title>Node1&#45;&gt;Node102</title>
<g id="a_edge50_Node000001_Node000102"><a xlink:title=" ">
<path fill="none" stroke="#63b8ff" d="M3020.53,-274.97C2975.1,-268.21 2915.54,-256.88 2865,-239 2815.71,-221.56 2794.18,-224.41 2761,-184 2750.62,-171.36 2745.91,-153.17 2743.77,-139.5"/>
<polygon fill="#63b8ff" stroke="#63b8ff" points="2747.21,-138.79 2742.51,-129.29 2740.26,-139.65 2747.21,-138.79"/>
</a>
</g>
</g>
<!-- Node104 -->
<g id="Node000104" class="node">
<title>Node104</title>
<g id="a_Node000104"><a xlink:href="TypedMsgHdr_8h.html" target="_top" xlink:title=" ">
<polygon fill="white" stroke="#666666" points="3868,-239 3760,-239 3760,-220 3868,-220 3868,-239"/>
<text text-anchor="middle" x="3814" y="-227" font-family="Helvetica,sans-Serif" font-size="10.00">ipc/TypedMsgHdr.h</text>
</a>
</g>
</g>
<!-- Node1&#45;&gt;Node104 -->
<g id="edge56_Node000001_Node000104" class="edge">
<title>Node1&#45;&gt;Node104</title>
<g id="a_edge56_Node000001_Node000104"><a xlink:title=" ">
<path fill="none" stroke="#63b8ff" d="M3165.2,-278.13C3306.71,-267.74 3615.64,-245.06 3749.74,-235.22"/>
<polygon fill="#63b8ff" stroke="#63b8ff" points="3750.14,-238.7 3759.86,-234.47 3749.63,-231.72 3750.14,-238.7"/>
</a>
</g>
</g>
<!-- Node107 -->
<g id="Node000107" class="node">
<title>Node107</title>
<g id="a_Node000107"><a xlink:href="mgr_2Response_8h.html" target="_top" xlink:title=" ">
<polygon fill="white" stroke="#666666" points="2969.5,-239 2874.5,-239 2874.5,-220 2969.5,-220 2969.5,-239"/>
<text text-anchor="middle" x="2922" y="-227" font-family="Helvetica,sans-Serif" font-size="10.00">mgr/Response.h</text>
</a>
</g>
</g>
<!-- Node1&#45;&gt;Node107 -->
<g id="edge62_Node000001_Node000107" class="edge">
<title>Node1&#45;&gt;Node107</title>
<g id="a_edge62_Node000001_Node000107"><a xlink:title=" ">
<path fill="none" stroke="#63b8ff" d="M3064.69,-274.98C3036.15,-266.09 2991.17,-252.07 2959.36,-242.15"/>
<polygon fill="#63b8ff" stroke="#63b8ff" points="2960.12,-238.72 2949.53,-239.08 2958.03,-245.4 2960.12,-238.72"/>
</a>
</g>
</g>
<!-- Node3 -->
<g id="Node000003" class="node">
<title>Node3</title>
<g id="a_Node000003"><a xlink:href="autoconf_8h.html" target="_top" xlink:title=" ">
<polygon fill="white" stroke="#666666" points="1191,-184 1123,-184 1123,-165 1191,-165 1191,-184"/>
<text text-anchor="middle" x="1157" y="-172" font-family="Helvetica,sans-Serif" font-size="10.00">autoconf.h</text>
</a>
</g>
</g>
<!-- Node2&#45;&gt;Node3 -->
<g id="edge2_Node000002_Node000003" class="edge">
<title>Node2&#45;&gt;Node3</title>
<g id="a_edge2_Node000002_Node000003"><a xlink:title=" ">
<path fill="none" stroke="#63b8ff" d="M1268.63,-219.98C1246.85,-211.3 1212.84,-197.75 1188.08,-187.88"/>
<polygon fill="#63b8ff" stroke="#63b8ff" points="1189.34,-184.62 1178.76,-184.17 1186.75,-191.12 1189.34,-184.62"/>
</a>
</g>
</g>
<!-- Node4 -->
<g id="Node000004" class="node">
<title>Node4</title>
<g id="a_Node000004"><a xlink:href="version_8h.html" target="_top" xlink:title=" ">
<polygon fill="white" stroke="#666666" points="1271,-184 1209,-184 1209,-165 1271,-165 1271,-184"/>
<text text-anchor="middle" x="1240" y="-172" font-family="Helvetica,sans-Serif" font-size="10.00">version.h</text>
</a>
</g>
</g>
<!-- Node2&#45;&gt;Node4 -->
<g id="edge3_Node000002_Node000004" class="edge">
<title>Node2&#45;&gt;Node4</title>
<g id="a_edge3_Node000002_Node000004"><a xlink:title=" ">
<path fill="none" stroke="#63b8ff" d="M1281.74,-219.75C1274.54,-212.11 1263.89,-200.82 1255.15,-191.56"/>
<polygon fill="#63b8ff" stroke="#63b8ff" points="1257.51,-188.96 1248.1,-184.09 1252.42,-193.76 1257.51,-188.96"/>
</a>
</g>
</g>
<!-- Node5 -->
<g id="Node000005" class="node">
<title>Node5</title>
<g id="a_Node000005"><a xlink:href="compat_8h.html" target="_top" xlink:title=" ">
<polygon fill="#fff0f0" stroke="red" points="1391,-184 1289,-184 1289,-165 1391,-165 1391,-184"/>
<text text-anchor="middle" x="1340" y="-172" font-family="Helvetica,sans-Serif" font-size="10.00">compat/compat.h</text>
</a>
</g>
</g>
<!-- Node2&#45;&gt;Node5 -->
<g id="edge4_Node000002_Node000005" class="edge">
<title>Node2&#45;&gt;Node5</title>
<g id="a_edge4_Node000002_Node000005"><a xlink:title=" ">
<path fill="none" stroke="#63b8ff" d="M1298.26,-219.75C1305.46,-212.11 1316.11,-200.82 1324.85,-191.56"/>
<polygon fill="#63b8ff" stroke="#63b8ff" points="1327.58,-193.76 1331.9,-184.09 1322.49,-188.96 1327.58,-193.76"/>
</a>
</g>
</g>
<!-- Node6 -->
<g id="Node000006" class="node">
<title>Node6</title>
<g id="a_Node000006"><a xlink:href="osdetect_8h.html" target="_top" xlink:title=" ">
<polygon fill="white" stroke="#666666" points="635.5,-129 528.5,-129 528.5,-110 635.5,-110 635.5,-129"/>
<text text-anchor="middle" x="582" y="-117" font-family="Helvetica,sans-Serif" font-size="10.00">compat/osdetect.h</text>
</a>
</g>
</g>
<!-- Node5&#45;&gt;Node6 -->
<g id="edge5_Node000005_Node000006" class="edge">
<title>Node5&#45;&gt;Node6</title>
<g id="a_edge5_Node000005_Node000006"><a xlink:title=" ">
<path fill="none" stroke="#63b8ff" d="M1288.97,-165.97C1285.94,-165.62 1282.93,-165.29 1280,-165 1002,-137.48 928.11,-155.48 645.72,-128.98"/>
<polygon fill="#63b8ff" stroke="#63b8ff" points="645.87,-125.48 635.58,-128.02 645.21,-132.45 645.87,-125.48"/>
</a>
</g>
</g>
<!-- Node7 -->
<g id="Node000007" class="node">
<title>Node7</title>
<g id="a_Node000007"><a xlink:href="fdsetsize_8h.html" target="_top" xlink:title=" ">
<polygon fill="white" stroke="#666666" points="764,-129 654,-129 654,-110 764,-110 764,-129"/>
<text text-anchor="middle" x="709" y="-117" font-family="Helvetica,sans-Serif" font-size="10.00">compat/fdsetsize.h</text>
</a>
</g>
</g>
<!-- Node5&#45;&gt;Node7 -->
<g id="edge6_Node000005_Node000007" class="edge">
<title>Node5&#45;&gt;Node7</title>
<g id="a_edge6_Node000005_Node000007"><a xlink:title=" ">
<path fill="none" stroke="#63b8ff" d="M1288.97,-166.02C1285.94,-165.66 1282.93,-165.31 1280,-165 1058.65,-141.49 999.46,-151.57 774.29,-129.07"/>
<polygon fill="#63b8ff" stroke="#63b8ff" points="774.43,-125.56 764.13,-128.04 773.73,-132.53 774.43,-125.56"/>
</a>
</g>
</g>
<!-- Node8 -->
<g id="Node000008" class="node">
<title>Node8</title>
<g id="a_Node000008"><a xlink:href="types_8h.html" target="_top" xlink:title=" ">
<polygon fill="#fff0f0" stroke="red" points="874,-129 782,-129 782,-110 874,-110 874,-129"/>
<text text-anchor="middle" x="828" y="-117" font-family="Helvetica,sans-Serif" font-size="10.00">compat/types.h</text>
</a>
</g>
</g>
<!-- Node5&#45;&gt;Node8 -->
<g id="edge7_Node000005_Node000008" class="edge">
<title>Node5&#45;&gt;Node8</title>
<g id="a_edge7_Node000005_Node000008"><a xlink:title=" ">
<path fill="none" stroke="#63b8ff" d="M1288.96,-166.09C1285.93,-165.71 1282.93,-165.34 1280,-165 1107.28,-144.95 1060.57,-150.33 884.32,-129.09"/>
<polygon fill="#63b8ff" stroke="#63b8ff" points="884.53,-125.59 874.18,-127.85 883.69,-132.54 884.53,-125.59"/>
</a>
</g>
</g>
<!-- Node10 -->
<g id="Node000010" class="node">
<title>Node10</title>
<g id="a_Node000010"><a xlink:href="aix_8h.html" target="_top" xlink:title=" ">
<polygon fill="white" stroke="#666666" points="987.5,-129 892.5,-129 892.5,-110 987.5,-110 987.5,-129"/>
<text text-anchor="middle" x="940" y="-117" font-family="Helvetica,sans-Serif" font-size="10.00">compat/os/aix.h</text>
</a>
</g>
</g>
<!-- Node5&#45;&gt;Node10 -->
<g id="edge8_Node000005_Node000010" class="edge">
<title>Node5&#45;&gt;Node10</title>
<g id="a_edge8_Node000005_Node000010"><a xlink:title=" ">
<path fill="none" stroke="#63b8ff" d="M1288.94,-166.22C1285.92,-165.8 1282.92,-165.39 1280,-165 1157.53,-148.54 1124.27,-146.45 997.66,-129.06"/>
<polygon fill="#63b8ff" stroke="#63b8ff" points="997.96,-125.57 987.57,-127.67 997,-132.51 997.96,-125.57"/>
</a>
</g>
</g>
<!-- Node11 -->
<g id="Node000011" class="node">
<title>Node11</title>
<g id="a_Node000011"><a xlink:href="android_8h.html" target="_top" xlink:title=" ">
<polygon fill="white" stroke="#666666" points="1122,-129 1006,-129 1006,-110 1122,-110 1122,-129"/>
<text text-anchor="middle" x="1064" y="-117" font-family="Helvetica,sans-Serif" font-size="10.00">compat/os/android.h</text>
</a>
</g>
</g>
<!-- Node5&#45;&gt;Node11 -->
<g id="edge9_Node000005_Node000011" class="edge">
<title>Node5&#45;&gt;Node11</title>
<g id="a_edge9_Node000005_Node000011"><a xlink:title=" ">
<path fill="none" stroke="#63b8ff" d="M1295.66,-164.98C1247.51,-155.74 1170.58,-140.97 1118.71,-131.01"/>
<polygon fill="#63b8ff" stroke="#63b8ff" points="1119.17,-127.53 1108.69,-129.08 1117.85,-134.41 1119.17,-127.53"/>
</a>
</g>
</g>
<!-- Node12 -->
<g id="Node000012" class="node">
<title>Node12</title>
<g id="a_Node000012"><a xlink:href="dragonfly_8h.html" target="_top" xlink:title=" ">
<polygon fill="white" stroke="#666666" points="1264,-129 1140,-129 1140,-110 1264,-110 1264,-129"/>
<text text-anchor="middle" x="1202" y="-117" font-family="Helvetica,sans-Serif" font-size="10.00">compat/os/dragonfly.h</text>
</a>
</g>
</g>
<!-- Node5&#45;&gt;Node12 -->
<g id="edge10_Node000005_Node000012" class="edge">
<title>Node5&#45;&gt;Node12</title>
<g id="a_edge10_Node000005_Node000012"><a xlink:title=" ">
<path fill="none" stroke="#63b8ff" d="M1317.83,-164.98C1295.23,-156.3 1259.94,-142.75 1234.25,-132.88"/>
<polygon fill="#63b8ff" stroke="#63b8ff" points="1235.17,-129.49 1224.58,-129.17 1232.66,-136.02 1235.17,-129.49"/>
</a>
</g>
</g>
<!-- Node13 -->
<g id="Node000013" class="node">
<title>Node13</title>
<g id="a_Node000013"><a xlink:href="freebsd_8h.html" target="_top" xlink:title=" ">
<polygon fill="white" stroke="#666666" points="1398,-129 1282,-129 1282,-110 1398,-110 1398,-129"/>
<text text-anchor="middle" x="1340" y="-117" font-family="Helvetica,sans-Serif" font-size="10.00">compat/os/freebsd.h</text>
</a>
</g>
</g>
<!-- Node5&#45;&gt;Node13 -->
<g id="edge11_Node000005_Node000013" class="edge">
<title>Node5&#45;&gt;Node13</title>
<g id="a_edge11_Node000005_Node000013"><a xlink:title=" ">
<path fill="none" stroke="#63b8ff" d="M1340,-164.75C1340,-157.8 1340,-147.85 1340,-139.13"/>
<polygon fill="#63b8ff" stroke="#63b8ff" points="1343.5,-139.09 1340,-129.09 1336.5,-139.09 1343.5,-139.09"/>
</a>
</g>
</g>
<!-- Node14 -->
<g id="Node000014" class="node">
<title>Node14</title>
<g id="a_Node000014"><a xlink:href="hpux_8h.html" target="_top" xlink:title=" ">
<polygon fill="white" stroke="#666666" points="1520,-129 1416,-129 1416,-110 1520,-110 1520,-129"/>
<text text-anchor="middle" x="1468" y="-117" font-family="Helvetica,sans-Serif" font-size="10.00">compat/os/hpux.h</text>
</a>
</g>
</g>
<!-- Node5&#45;&gt;Node14 -->
<g id="edge12_Node000005_Node000014" class="edge">
<title>Node5&#45;&gt;Node14</title>
<g id="a_edge12_Node000005_Node000014"><a xlink:title=" ">
<path fill="none" stroke="#63b8ff" d="M1360.57,-164.98C1381.43,-156.34 1413.97,-142.87 1437.77,-133.02"/>
<polygon fill="#63b8ff" stroke="#63b8ff" points="1439.16,-136.23 1447.06,-129.17 1436.48,-129.76 1439.16,-136.23"/>
</a>
</g>
</g>
<!-- Node15 -->
<g id="Node000015" class="node">
<title>Node15</title>
<g id="a_Node000015"><a xlink:href="linux_8h.html" target="_top" xlink:title=" ">
<polygon fill="white" stroke="#666666" points="1642,-129 1538,-129 1538,-110 1642,-110 1642,-129"/>
<text text-anchor="middle" x="1590" y="-117" font-family="Helvetica,sans-Serif" font-size="10.00">compat/os/linux.h</text>
</a>
</g>
</g>
<!-- Node5&#45;&gt;Node15 -->
<g id="edge13_Node000005_Node000015" class="edge">
<title>Node5&#45;&gt;Node15</title>
<g id="a_edge13_Node000005_Node000015"><a xlink:title=" ">
<path fill="none" stroke="#63b8ff" d="M1380.17,-164.98C1423.5,-155.8 1492.59,-141.15 1539.56,-131.19"/>
<polygon fill="#63b8ff" stroke="#63b8ff" points="1540.46,-134.58 1549.52,-129.08 1539.01,-127.73 1540.46,-134.58"/>
</a>
</g>
</g>
<!-- Node16 -->
<g id="Node000016" class="node">
<title>Node16</title>
<g id="a_Node000016"><a xlink:href="macosx_8h.html" target="_top" xlink:title=" ">
<polygon fill="white" stroke="#666666" points="1778,-129 1660,-129 1660,-110 1778,-110 1778,-129"/>
<text text-anchor="middle" x="1719" y="-117" font-family="Helvetica,sans-Serif" font-size="10.00">compat/os/macosx.h</text>
</a>
</g>
</g>
<!-- Node5&#45;&gt;Node16 -->
<g id="edge14_Node000005_Node000016" class="edge">
<title>Node5&#45;&gt;Node16</title>
<g id="a_edge14_Node000005_Node000016"><a xlink:title=" ">
<path fill="none" stroke="#63b8ff" d="M1391.11,-166.35C1457.88,-157.02 1575.05,-140.63 1649.75,-130.18"/>
<polygon fill="#63b8ff" stroke="#63b8ff" points="1650.58,-133.6 1660,-128.75 1649.61,-126.67 1650.58,-133.6"/>
</a>
</g>
</g>
<!-- Node17 -->
<g id="Node000017" class="node">
<title>Node17</title>
<g id="a_Node000017"><a xlink:href="mingw_8h.html" target="_top" xlink:title=" ">
<polygon fill="white" stroke="#666666" points="1908,-129 1796,-129 1796,-110 1908,-110 1908,-129"/>
<text text-anchor="middle" x="1852" y="-117" font-family="Helvetica,sans-Serif" font-size="10.00">compat/os/mingw.h</text>
</a>
</g>
</g>
<!-- Node5&#45;&gt;Node17 -->
<g id="edge15_Node000005_Node000017" class="edge">
<title>Node5&#45;&gt;Node17</title>
<g id="a_edge15_Node000005_Node000017"><a xlink:title=" ">
<path fill="none" stroke="#63b8ff" d="M1391,-168.94C1472.19,-161.56 1636.09,-146.21 1785.7,-129.12"/>
<polygon fill="#63b8ff" stroke="#63b8ff" points="1786.46,-132.55 1795.99,-127.94 1785.66,-125.6 1786.46,-132.55"/>
</a>
</g>
</g>
<!-- Node18 -->
<g id="Node000018" class="node">
<title>Node18</title>
<g id="a_Node000018"><a xlink:href="mswindows_8h.html" target="_top" xlink:title=" ">
<polygon fill="white" stroke="#666666" points="2063.5,-129 1926.5,-129 1926.5,-110 2063.5,-110 2063.5,-129"/>
<text text-anchor="middle" x="1995" y="-117" font-family="Helvetica,sans-Serif" font-size="10.00">compat/os/mswindows.h</text>
</a>
</g>
</g>
<!-- Node5&#45;&gt;Node18 -->
<g id="edge16_Node000005_Node000018" class="edge">
<title>Node5&#45;&gt;Node18</title>
<g id="a_edge16_Node000005_Node000018"><a xlink:title=" ">
<path fill="none" stroke="#63b8ff" d="M1391.38,-170.08C1490.56,-163.37 1715.54,-147.57 1915.98,-129.07"/>
<polygon fill="#63b8ff" stroke="#63b8ff" points="1916.47,-132.54 1926.11,-128.13 1915.83,-125.57 1916.47,-132.54"/>
</a>
</g>
</g>
<!-- Node19 -->
<g id="Node000019" class="node">
<title>Node19</title>
<g id="a_Node000019"><a xlink:href="netbsd_8h.html" target="_top" xlink:title=" ">
<polygon fill="white" stroke="#666666" points="2194.5,-129 2081.5,-129 2081.5,-110 2194.5,-110 2194.5,-129"/>
<text text-anchor="middle" x="2138" y="-117" font-family="Helvetica,sans-Serif" font-size="10.00">compat/os/netbsd.h</text>
</a>
</g>
</g>
<!-- Node5&#45;&gt;Node19 -->
<g id="edge17_Node000005_Node000019" class="edge">
<title>Node5&#45;&gt;Node19</title>
<g id="a_edge17_Node000005_Node000019"><a xlink:title=" ">
<path fill="none" stroke="#63b8ff" d="M1391.12,-171.58C1509,-166.89 1809.16,-153.5 2071.06,-129.02"/>
<polygon fill="#63b8ff" stroke="#63b8ff" points="2071.52,-132.49 2081.15,-128.07 2070.86,-125.52 2071.52,-132.49"/>
</a>
</g>
</g>
<!-- Node20 -->
<g id="Node000020" class="node">
<title>Node20</title>
<g id="a_Node000020"><a xlink:href="openbsd_8h.html" target="_top" xlink:title=" ">
<polygon fill="white" stroke="#666666" points="2333.5,-129 2212.5,-129 2212.5,-110 2333.5,-110 2333.5,-129"/>
<text text-anchor="middle" x="2273" y="-117" font-family="Helvetica,sans-Serif" font-size="10.00">compat/os/openbsd.h</text>
</a>
</g>
</g>
<!-- Node5&#45;&gt;Node20 -->
<g id="edge18_Node000005_Node000020" class="edge">
<title>Node5&#45;&gt;Node20</title>
<g id="a_edge18_Node000005_Node000020"><a xlink:title=" ">
<path fill="none" stroke="#63b8ff" d="M1391.15,-172.1C1523.38,-168.22 1887.53,-155.84 2202.09,-129.01"/>
<polygon fill="#63b8ff" stroke="#63b8ff" points="2202.66,-132.47 2212.32,-128.13 2202.06,-125.5 2202.66,-132.47"/>
</a>
</g>
</g>
<!-- Node21 -->
<g id="Node000021" class="node">
<title>Node21</title>
<g id="a_Node000021"><a xlink:href="os2_8h.html" target="_top" xlink:title=" ">
<polygon fill="white" stroke="#666666" points="2448.5,-129 2351.5,-129 2351.5,-110 2448.5,-110 2448.5,-129"/>
<text text-anchor="middle" x="2400" y="-117" font-family="Helvetica,sans-Serif" font-size="10.00">compat/os/os2.h</text>
</a>
</g>
</g>
<!-- Node5&#45;&gt;Node21 -->
<g id="edge19_Node000005_Node000021" class="edge">
<title>Node5&#45;&gt;Node21</title>
<g id="a_edge19_Node000005_Node000021"><a xlink:title=" ">
<path fill="none" stroke="#63b8ff" d="M1391.22,-173.05C1537.68,-171.38 1970.92,-163.73 2341.2,-128.96"/>
<polygon fill="#63b8ff" stroke="#63b8ff" points="2341.68,-132.43 2351.31,-128 2341.02,-125.46 2341.68,-132.43"/>
</a>
</g>
</g>
<!-- Node22 -->
<g id="Node000022" class="node">
<title>Node22</title>
<g id="a_Node000022"><a xlink:href="qnx_8h.html" target="_top" xlink:title=" ">
<polygon fill="white" stroke="#666666" points="2565,-129 2467,-129 2467,-110 2565,-110 2565,-129"/>
<text text-anchor="middle" x="2516" y="-117" font-family="Helvetica,sans-Serif" font-size="10.00">compat/os/qnx.h</text>
</a>
</g>
</g>
<!-- Node5&#45;&gt;Node22 -->
<g id="edge20_Node000005_Node000022" class="edge">
<title>Node5&#45;&gt;Node22</title>
<g id="a_edge20_Node000005_Node000022"><a xlink:title=" ">
<path fill="none" stroke="#63b8ff" d="M1391.06,-173.34C1548.27,-172.45 2039.04,-166.69 2456.63,-128.9"/>
<polygon fill="#63b8ff" stroke="#63b8ff" points="2457.15,-132.37 2466.79,-127.98 2456.51,-125.4 2457.15,-132.37"/>
</a>
</g>
</g>
<!-- Node23 -->
<g id="Node000023" class="node">
<title>Node23</title>
<g id="a_Node000023"><a xlink:href="solaris_8h.html" target="_top" xlink:title=" ">
<polygon fill="white" stroke="#666666" points="112,-129 0,-129 0,-110 112,-110 112,-129"/>
<text text-anchor="middle" x="56" y="-117" font-family="Helvetica,sans-Serif" font-size="10.00">compat/os/solaris.h</text>
</a>
</g>
</g>
<!-- Node5&#45;&gt;Node23 -->
<g id="edge21_Node000005_Node000023" class="edge">
<title>Node5&#45;&gt;Node23</title>
<g id="a_edge21_Node000005_Node000023"><a xlink:title=" ">
<path fill="none" stroke="#63b8ff" d="M1288.98,-165.88C1285.95,-165.55 1282.93,-165.25 1280,-165 769.92,-121.08 636.44,-169.81 122.61,-129.04"/>
<polygon fill="#63b8ff" stroke="#63b8ff" points="122.58,-125.52 112.33,-128.21 122.02,-132.5 122.58,-125.52"/>
</a>
</g>
</g>
<!-- Node24 -->
<g id="Node000024" class="node">
<title>Node24</title>
<g id="a_Node000024"><a xlink:href="sunos_8h.html" target="_top" xlink:title=" ">
<polygon fill="white" stroke="#666666" points="238,-129 130,-129 130,-110 238,-110 238,-129"/>
<text text-anchor="middle" x="184" y="-117" font-family="Helvetica,sans-Serif" font-size="10.00">compat/os/sunos.h</text>
</a>
</g>
</g>
<!-- Node5&#45;&gt;Node24 -->
<g id="edge22_Node000005_Node000024" class="edge">
<title>Node5&#45;&gt;Node24</title>
<g id="a_edge22_Node000005_Node000024"><a xlink:title=" ">
<path fill="none" stroke="#63b8ff" d="M1288.98,-165.9C1285.94,-165.56 1282.93,-165.26 1280,-165 825.73,-125.02 706.49,-167.13 248.45,-129.03"/>
<polygon fill="#63b8ff" stroke="#63b8ff" points="248.52,-125.52 238.26,-128.17 247.93,-132.49 248.52,-125.52"/>
</a>
</g>
</g>
<!-- Node25 -->
<g id="Node000025" class="node">
<title>Node25</title>
<g id="a_Node000025"><a xlink:href="assert_8h.html" target="_top" xlink:title=" ">
<polygon fill="white" stroke="#666666" points="351.5,-129 256.5,-129 256.5,-110 351.5,-110 351.5,-129"/>
<text text-anchor="middle" x="304" y="-117" font-family="Helvetica,sans-Serif" font-size="10.00">compat/assert.h</text>
</a>
</g>
</g>
<!-- Node5&#45;&gt;Node25 -->
<g id="edge23_Node000005_Node000025" class="edge">
<title>Node5&#45;&gt;Node25</title>
<g id="a_edge23_Node000005_Node000025"><a xlink:title=" ">
<path fill="none" stroke="#63b8ff" d="M1288.98,-165.91C1285.94,-165.57 1282.93,-165.26 1280,-165 876.17,-128.58 769.68,-166.58 361.54,-128.92"/>
<polygon fill="#63b8ff" stroke="#63b8ff" points="361.82,-125.43 351.54,-127.98 361.17,-132.4 361.82,-125.43"/>
</a>
</g>
</g>
<!-- Node26 -->
<g id="Node000026" class="node">
<title>Node26</title>
<g id="a_Node000026"><a xlink:href="compat__shared_8h.html" target="_top" xlink:title=" ">
<polygon fill="#fff0f0" stroke="red" points="510,-129 370,-129 370,-110 510,-110 510,-129"/>
<text text-anchor="middle" x="440" y="-117" font-family="Helvetica,sans-Serif" font-size="10.00">compat/compat_shared.h</text>
</a>
</g>
</g>
<!-- Node5&#45;&gt;Node26 -->
<g id="edge24_Node000005_Node000026" class="edge">
<title>Node5&#45;&gt;Node26</title>
<g id="a_edge24_Node000005_Node000026"><a xlink:title=" ">
<path fill="none" stroke="#63b8ff" d="M1288.98,-165.94C1285.94,-165.59 1282.93,-165.28 1280,-165 946.19,-133.53 858.3,-154.7 520.27,-129.05"/>
<polygon fill="#63b8ff" stroke="#63b8ff" points="520.43,-125.55 510.19,-128.27 519.89,-132.53 520.43,-125.55"/>
</a>
</g>
</g>
<!-- Node45 -->
<g id="Node000045" class="node">
<title>Node45</title>
<g id="a_Node000045"><a xlink:href="Assure_8h.html" target="_top" xlink:title=" ">
<polygon fill="white" stroke="#666666" points="2591.5,-184 2506.5,-184 2506.5,-165 2591.5,-165 2591.5,-184"/>
<text text-anchor="middle" x="2549" y="-172" font-family="Helvetica,sans-Serif" font-size="10.00">base/Assure.h</text>
</a>
</g>
</g>
<!-- Node44&#45;&gt;Node45 -->
<g id="edge26_Node000044_Node000045" class="edge">
<title>Node44&#45;&gt;Node45</title>
<g id="a_edge26_Node000044_Node000045"><a xlink:title=" ">
<path fill="none" stroke="#63b8ff" d="M2622.86,-219.98C2609.21,-211.77 2588.31,-199.18 2572.22,-189.49"/>
<polygon fill="#63b8ff" stroke="#63b8ff" points="2573.77,-186.33 2563.4,-184.17 2570.16,-192.33 2573.77,-186.33"/>
</a>
</g>
</g>
<!-- Node46 -->
<g id="Node000046" class="node">
<title>Node46</title>
<g id="a_Node000046"><a xlink:href="Here_8h.html" target="_top" xlink:title=" ">
<polygon fill="white" stroke="#666666" points="2658.5,-129 2583.5,-129 2583.5,-110 2658.5,-110 2658.5,-129"/>
<text text-anchor="middle" x="2621" y="-117" font-family="Helvetica,sans-Serif" font-size="10.00">base/Here.h</text>
</a>
</g>
</g>
<!-- Node44&#45;&gt;Node46 -->
<g id="edge29_Node000044_Node000046" class="edge">
<title>Node44&#45;&gt;Node46</title>
<g id="a_edge29_Node000044_Node000046"><a xlink:title=" ">
<path fill="none" stroke="#63b8ff" d="M2635.69,-219.66C2633.1,-202.17 2627.27,-162.8 2623.78,-139.27"/>
<polygon fill="#63b8ff" stroke="#63b8ff" points="2627.21,-138.54 2622.28,-129.16 2620.29,-139.56 2627.21,-138.54"/>
</a>
</g>
</g>
<!-- Node48 -->
<g id="Node000048" class="node">
<title>Node48</title>
<g id="a_Node000048"><a xlink:title=" ">
<polygon fill="#e0e0e0" stroke="#999999" points="2713.5,-184 2648.5,-184 2648.5,-165 2713.5,-165 2713.5,-184"/>
<text text-anchor="middle" x="2681" y="-172" font-family="Helvetica,sans-Serif" font-size="10.00">stdexcept</text>
</a>
</g>
</g>
<!-- Node44&#45;&gt;Node48 -->
<g id="edge30_Node000044_Node000048" class="edge">
<title>Node44&#45;&gt;Node48</title>
<g id="a_edge30_Node000044_Node000048"><a xlink:title=" ">
<path fill="none" stroke="#63b8ff" d="M2644.27,-219.75C2650.54,-212.18 2659.79,-201.05 2667.43,-191.84"/>
<polygon fill="#63b8ff" stroke="#63b8ff" points="2670.17,-194.02 2673.87,-184.09 2664.79,-189.55 2670.17,-194.02"/>
</a>
</g>
</g>
<!-- Node45&#45;&gt;Node46 -->
<g id="edge27_Node000045_Node000046" class="edge">
<title>Node45&#45;&gt;Node46</title>
<g id="a_edge27_Node000045_Node000046"><a xlink:title=" ">
<path fill="none" stroke="#63b8ff" d="M2560.57,-164.98C2571.42,-157 2587.88,-144.88 2600.88,-135.31"/>
<polygon fill="#63b8ff" stroke="#63b8ff" points="2603.24,-137.92 2609.22,-129.17 2599.09,-132.28 2603.24,-137.92"/>
</a>
</g>
</g>
<!-- Node47 -->
<g id="Node000047" class="node">
<title>Node47</title>
<g id="a_Node000047"><a xlink:title=" ">
<polygon fill="#e0e0e0" stroke="#999999" points="2685,-19 2637,-19 2637,0 2685,0 2685,-19"/>
<text text-anchor="middle" x="2661" y="-7" font-family="Helvetica,sans-Serif" font-size="10.00">iosfwd</text>
</a>
</g>
</g>
<!-- Node46&#45;&gt;Node47 -->
<g id="edge28_Node000046_Node000047" class="edge">
<title>Node46&#45;&gt;Node47</title>
<g id="a_edge28_Node000046_Node000047"><a xlink:title=" ">
<path fill="none" stroke="#63b8ff" d="M2624.27,-109.66C2630.81,-92.01 2645.6,-52.09 2654.28,-28.64"/>
<polygon fill="#63b8ff" stroke="#63b8ff" points="2657.6,-29.75 2657.79,-19.16 2651.04,-27.32 2657.6,-29.75"/>
</a>
</g>
</g>
<!-- Node50 -->
<g id="Node000050" class="node">
<title>Node50</title>
<g id="a_Node000050"><a xlink:href="anyp_2forward_8h.html" target="_top" xlink:title=" ">
<polygon fill="#fff0f0" stroke="red" points="3663,-184 3573,-184 3573,-165 3663,-165 3663,-184"/>
<text text-anchor="middle" x="3618" y="-172" font-family="Helvetica,sans-Serif" font-size="10.00">anyp/forward.h</text>
</a>
</g>
</g>
<!-- Node49&#45;&gt;Node50 -->
<g id="edge32_Node000049_Node000050" class="edge">
<title>Node49&#45;&gt;Node50</title>
<g id="a_edge32_Node000049_Node000050"><a xlink:title=" ">
<path fill="none" stroke="#63b8ff" d="M3331.22,-220.74C3392.99,-210.99 3498.62,-194.33 3562.99,-184.18"/>
<polygon fill="#63b8ff" stroke="#63b8ff" points="3563.62,-187.62 3572.96,-182.61 3562.53,-180.71 3563.62,-187.62"/>
</a>
</g>
</g>
<!-- Node55 -->
<g id="Node000055" class="node">
<title>Node55</title>
<g id="a_Node000055"><a xlink:href="comm_2forward_8h.html" target="_top" xlink:title=" ">
<polygon fill="#fff0f0" stroke="red" points="3554.5,-184 3457.5,-184 3457.5,-165 3554.5,-165 3554.5,-184"/>
<text text-anchor="middle" x="3506" y="-172" font-family="Helvetica,sans-Serif" font-size="10.00">comm/forward.h</text>
</a>
</g>
</g>
<!-- Node49&#45;&gt;Node55 -->
<g id="edge33_Node000049_Node000055" class="edge">
<title>Node49&#45;&gt;Node55</title>
<g id="a_edge33_Node000049_Node000055"><a xlink:title=" ">
<path fill="none" stroke="#63b8ff" d="M3317.99,-219.98C3356.49,-210.87 3417.69,-196.4 3459.74,-186.45"/>
<polygon fill="#63b8ff" stroke="#63b8ff" points="3460.8,-189.79 3469.73,-184.08 3459.19,-182.98 3460.8,-189.79"/>
</a>
</g>
</g>
<!-- Node56 -->
<g id="Node000056" class="node">
<title>Node56</title>
<g id="a_Node000056"><a xlink:title=" ">
<polygon fill="#e0e0e0" stroke="#999999" points="3622.5,-129 3575.5,-129 3575.5,-110 3622.5,-110 3622.5,-129"/>
<text text-anchor="middle" x="3599" y="-117" font-family="Helvetica,sans-Serif" font-size="10.00">vector</text>
</a>
</g>
</g>
<!-- Node49&#45;&gt;Node56 -->
<g id="edge48_Node000049_Node000056" class="edge">
<title>Node49&#45;&gt;Node56</title>
<g id="a_edge48_Node000049_Node000056"><a xlink:title=" ">
<path fill="none" stroke="#63b8ff" d="M3331.04,-226.49C3430.75,-221.89 3649.65,-209.04 3672,-184 3689.41,-164.49 3658.66,-145.23 3631.88,-133.13"/>
<polygon fill="#63b8ff" stroke="#63b8ff" points="3633.23,-129.9 3622.66,-129.16 3630.46,-136.33 3633.23,-129.9"/>
</a>
</g>
</g>
<!-- Node57 -->
<g id="Node000057" class="node">
<title>Node57</title>
<g id="a_Node000057"><a xlink:href="log_2forward_8h.html" target="_top" xlink:title=" ">
<polygon fill="#fff0f0" stroke="red" points="3322.5,-184 3241.5,-184 3241.5,-165 3322.5,-165 3322.5,-184"/>
<text text-anchor="middle" x="3282" y="-172" font-family="Helvetica,sans-Serif" font-size="10.00">log/forward.h</text>
</a>
</g>
</g>
<!-- Node49&#45;&gt;Node57 -->
<g id="edge35_Node000049_Node000057" class="edge">
<title>Node49&#45;&gt;Node57</title>
<g id="a_edge35_Node000049_Node000057"><a xlink:title=" ">
<path fill="none" stroke="#63b8ff" d="M3282,-219.75C3282,-212.8 3282,-202.85 3282,-194.13"/>
<polygon fill="#63b8ff" stroke="#63b8ff" points="3285.5,-194.09 3282,-184.09 3278.5,-194.09 3285.5,-194.09"/>
</a>
</g>
</g>
<!-- Node58 -->
<g id="Node000058" class="node">
<title>Node58</title>
<g id="a_Node000058"><a xlink:href="Action_8h.html" target="_top" xlink:title=" ">
<polygon fill="white" stroke="#666666" points="2995.5,-184 2916.5,-184 2916.5,-165 2995.5,-165 2995.5,-184"/>
<text text-anchor="middle" x="2956" y="-172" font-family="Helvetica,sans-Serif" font-size="10.00">mgr/Action.h</text>
</a>
</g>
</g>
<!-- Node49&#45;&gt;Node58 -->
<g id="edge36_Node000049_Node000058" class="edge">
<title>Node49&#45;&gt;Node58</title>
<g id="a_edge36_Node000049_Node000058"><a xlink:title=" ">
<path fill="none" stroke="#63b8ff" d="M3232.84,-220.51C3171.64,-210.56 3067.66,-193.65 3006.04,-183.64"/>
<polygon fill="#63b8ff" stroke="#63b8ff" points="3006.23,-180.12 2995.79,-181.97 3005.1,-187.03 3006.23,-180.12"/>
</a>
</g>
</g>
<!-- Node61 -->
<g id="Node000061" class="node">
<title>Node61</title>
<g id="a_Node000061"><a xlink:href="mgr_2forward_8h.html" target="_top" xlink:title=" ">
<polygon fill="#fff0f0" stroke="red" points="3243,-74 3157,-74 3157,-55 3243,-55 3243,-74"/>
<text text-anchor="middle" x="3200" y="-62" font-family="Helvetica,sans-Serif" font-size="10.00">mgr/forward.h</text>
</a>
</g>
</g>
<!-- Node49&#45;&gt;Node61 -->
<g id="edge47_Node000049_Node000061" class="edge">
<title>Node49&#45;&gt;Node61</title>
<g id="a_edge47_Node000049_Node000061"><a xlink:title=" ">
<path fill="none" stroke="#63b8ff" d="M3266.57,-219.8C3254.65,-212.11 3239.04,-199.69 3232,-184 3228.54,-176.3 3228.88,-172.85 3232,-165 3240.13,-144.55 3257.87,-149.45 3266,-129 3269.12,-121.15 3269.97,-117.46 3266,-110 3258.69,-96.25 3245.03,-85.99 3232.03,-78.8"/>
<polygon fill="#63b8ff" stroke="#63b8ff" points="3233.28,-75.51 3222.78,-74.11 3230.11,-81.75 3233.28,-75.51"/>
</a>
</g>
</g>
<!-- Node49&#45;&gt;Node62 -->
<g id="edge40_Node000049_Node000062" class="edge">
<title>Node49&#45;&gt;Node62</title>
<g id="a_edge40_Node000049_Node000062"><a xlink:title=" ">
<path fill="none" stroke="#63b8ff" d="M3251.47,-219.98C3219.3,-211.01 3168.44,-196.82 3132.83,-186.89"/>
<polygon fill="#63b8ff" stroke="#63b8ff" points="3133.34,-183.4 3122.77,-184.08 3131.46,-190.14 3133.34,-183.4"/>
</a>
</g>
</g>
<!-- Node64 -->
<g id="Node000064" class="node">
<title>Node64</title>
<g id="a_Node000064"><a xlink:href="Command_8h.html" target="_top" xlink:title=" ">
<polygon fill="#fff0f0" stroke="red" points="3439,-184 3341,-184 3341,-165 3439,-165 3439,-184"/>
<text text-anchor="middle" x="3390" y="-172" font-family="Helvetica,sans-Serif" font-size="10.00">mgr/Command.h</text>
</a>
</g>
</g>
<!-- Node49&#45;&gt;Node64 -->
<g id="edge45_Node000049_Node000064" class="edge">
<title>Node49&#45;&gt;Node64</title>
<g id="a_edge45_Node000049_Node000064"><a xlink:title=" ">
<path fill="none" stroke="#63b8ff" d="M3299.35,-219.98C3316.57,-211.54 3343.2,-198.47 3363.15,-188.68"/>
<polygon fill="#63b8ff" stroke="#63b8ff" points="3364.9,-191.72 3372.33,-184.17 3361.81,-185.43 3364.9,-191.72"/>
</a>
</g>
</g>
<!-- Node55&#45;&gt;Node56 -->
<g id="edge34_Node000055_Node000056" class="edge">
<title>Node55&#45;&gt;Node56</title>
<g id="a_edge34_Node000055_Node000056"><a xlink:title=" ">
<path fill="none" stroke="#63b8ff" d="M3520.94,-164.98C3535.5,-156.69 3557.87,-143.94 3574.93,-134.22"/>
<polygon fill="#63b8ff" stroke="#63b8ff" points="3576.83,-137.16 3583.79,-129.17 3573.36,-131.08 3576.83,-137.16"/>
</a>
</g>
</g>
<!-- Node59 -->
<g id="Node000059" class="node">
<title>Node59</title>
<g id="a_Node000059"><a xlink:href="ipc_2forward_8h.html" target="_top" xlink:title=" ">
<polygon fill="white" stroke="#666666" points="2882,-19 2802,-19 2802,0 2882,0 2882,-19"/>
<text text-anchor="middle" x="2842" y="-7" font-family="Helvetica,sans-Serif" font-size="10.00">ipc/forward.h</text>
</a>
</g>
</g>
<!-- Node58&#45;&gt;Node59 -->
<g id="edge37_Node000058_Node000059" class="edge">
<title>Node58&#45;&gt;Node59</title>
<g id="a_edge37_Node000058_Node000059"><a xlink:title=" ">
<path fill="none" stroke="#63b8ff" d="M2950.22,-164.8C2937.09,-145.09 2903.91,-95.6 2875,-55 2868.44,-45.79 2860.95,-35.66 2854.77,-27.4"/>
<polygon fill="#63b8ff" stroke="#63b8ff" points="2857.48,-25.18 2848.68,-19.29 2851.89,-29.39 2857.48,-25.18"/>
</a>
</g>
</g>
<!-- Node60 -->
<g id="Node000060" class="node">
<title>Node60</title>
<g id="a_Node000060"><a xlink:href="ActionFeatures_8h.html" target="_top" xlink:title=" ">
<polygon fill="white" stroke="#666666" points="3086.5,-129 2965.5,-129 2965.5,-110 3086.5,-110 3086.5,-129"/>
<text text-anchor="middle" x="3026" y="-117" font-family="Helvetica,sans-Serif" font-size="10.00">mgr/ActionFeatures.h</text>
</a>
</g>
</g>
<!-- Node58&#45;&gt;Node60 -->
<g id="edge38_Node000058_Node000060" class="edge">
<title>Node58&#45;&gt;Node60</title>
<g id="a_edge38_Node000058_Node000060"><a xlink:title=" ">
<path fill="none" stroke="#63b8ff" d="M2967.25,-164.98C2977.8,-157 2993.8,-144.88 3006.44,-135.31"/>
<polygon fill="#63b8ff" stroke="#63b8ff" points="3008.69,-138 3014.55,-129.17 3004.46,-132.42 3008.69,-138"/>
</a>
</g>
</g>
<!-- Node58&#45;&gt;Node61 -->
<g id="edge39_Node000058_Node000061" class="edge">
<title>Node58&#45;&gt;Node61</title>
<g id="a_edge39_Node000058_Node000061"><a xlink:title=" ">
<path fill="none" stroke="#63b8ff" d="M2952.92,-164.95C2948.69,-151.57 2943.01,-125.58 2956,-110 2979.78,-81.5 3082.19,-71.2 3146.54,-67.52"/>
<polygon fill="#63b8ff" stroke="#63b8ff" points="3147.12,-70.99 3156.91,-66.96 3146.74,-64 3147.12,-70.99"/>
</a>
</g>
</g>
<!-- Node62&#45;&gt;Node60 -->
<g id="edge43_Node000062_Node000060" class="edge">
<title>Node62&#45;&gt;Node60</title>
<g id="a_edge43_Node000062_Node000060"><a xlink:title=" ">
<path fill="none" stroke="#63b8ff" d="M3081.4,-164.98C3071.54,-157.07 3056.65,-145.11 3044.78,-135.58"/>
<polygon fill="#63b8ff" stroke="#63b8ff" points="3046.79,-132.7 3036.8,-129.17 3042.4,-138.16 3046.79,-132.7"/>
</a>
</g>
</g>
<!-- Node62&#45;&gt;Node61 -->
<g id="edge44_Node000062_Node000061" class="edge">
<title>Node62&#45;&gt;Node61</title>
<g id="a_edge44_Node000062_Node000061"><a xlink:title=" ">
<path fill="none" stroke="#63b8ff" d="M3096.25,-164.93C3102.98,-151.97 3117.07,-127.09 3134,-110 3145.98,-97.92 3161.7,-87.16 3174.79,-79.25"/>
<polygon fill="#63b8ff" stroke="#63b8ff" points="3176.9,-82.08 3183.77,-74.02 3173.37,-76.03 3176.9,-82.08"/>
</a>
</g>
</g>
<!-- Node62&#45;&gt;Node63 -->
<g id="edge41_Node000062_Node000063" class="edge">
<title>Node62&#45;&gt;Node63</title>
<g id="a_edge41_Node000062_Node000063"><a xlink:title=" ">
<path fill="none" stroke="#63b8ff" d="M3109.35,-164.98C3126.57,-156.54 3153.2,-143.47 3173.15,-133.68"/>
<polygon fill="#63b8ff" stroke="#63b8ff" points="3174.9,-136.72 3182.33,-129.17 3171.81,-130.43 3174.9,-136.72"/>
</a>
</g>
</g>
<!-- Node63&#45;&gt;Node61 -->
<g id="edge42_Node000063_Node000061" class="edge">
<title>Node63&#45;&gt;Node61</title>
<g id="a_edge42_Node000063_Node000061"><a xlink:title=" ">
<path fill="none" stroke="#63b8ff" d="M3200,-109.75C3200,-102.8 3200,-92.85 3200,-84.13"/>
<polygon fill="#63b8ff" stroke="#63b8ff" points="3203.5,-84.09 3200,-74.09 3196.5,-84.09 3203.5,-84.09"/>
</a>
</g>
</g>
<!-- Node64&#45;&gt;Node61 -->
<g id="edge46_Node000064_Node000061" class="edge">
<title>Node64&#45;&gt;Node61</title>
<g id="a_edge46_Node000064_Node000061"><a xlink:title=" ">
<path fill="none" stroke="#63b8ff" d="M3379.23,-164.99C3362.63,-152.09 3329.5,-127.29 3299,-110 3277.26,-97.67 3251.49,-86.18 3231.68,-77.96"/>
<polygon fill="#63b8ff" stroke="#63b8ff" points="3232.79,-74.63 3222.21,-74.09 3230.14,-81.11 3232.79,-74.63"/>
</a>
</g>
</g>
<!-- Node102&#45;&gt;Node47 -->
<g id="edge55_Node000102_Node000047" class="edge">
<title>Node102&#45;&gt;Node47</title>
<g id="a_edge55_Node000102_Node000047"><a xlink:title=" ">
<path fill="none" stroke="#63b8ff" d="M2724.29,-109.95C2710.33,-102.34 2691.39,-89.97 2680,-74 2670.5,-60.68 2665.69,-42.57 2663.29,-29.09"/>
<polygon fill="#63b8ff" stroke="#63b8ff" points="2666.74,-28.45 2661.8,-19.08 2659.81,-29.48 2666.74,-28.45"/>
</a>
</g>
</g>
<!-- Node102&#45;&gt;Node59 -->
<g id="edge51_Node000102_Node000059" class="edge">
<title>Node102&#45;&gt;Node59</title>
<g id="a_edge51_Node000102_Node000059"><a xlink:title=" ">
<path fill="none" stroke="#63b8ff" d="M2756.81,-110C2770.01,-101.92 2789.3,-88.83 2803,-74 2815.73,-60.22 2826.55,-41.67 2833.54,-28.18"/>
<polygon fill="#63b8ff" stroke="#63b8ff" points="2836.79,-29.53 2838.11,-19.01 2830.52,-26.4 2836.79,-29.53"/>
</a>
</g>
</g>
<!-- Node103 -->
<g id="Node000103" class="node">
<title>Node103</title>
<g id="a_Node000103"><a xlink:href="QuestionerId_8h.html" target="_top" xlink:title=" ">
<polygon fill="white" stroke="#666666" points="2794.5,-74 2689.5,-74 2689.5,-55 2794.5,-55 2794.5,-74"/>
<text text-anchor="middle" x="2742" y="-62" font-family="Helvetica,sans-Serif" font-size="10.00">ipc/QuestionerId.h</text>
</a>
</g>
</g>
<!-- Node102&#45;&gt;Node103 -->
<g id="edge52_Node000102_Node000103" class="edge">
<title>Node102&#45;&gt;Node103</title>
<g id="a_edge52_Node000102_Node000103"><a xlink:title=" ">
<path fill="none" stroke="#63b8ff" d="M2742,-109.75C2742,-102.8 2742,-92.85 2742,-84.13"/>
<polygon fill="#63b8ff" stroke="#63b8ff" points="2745.5,-84.09 2742,-74.09 2738.5,-84.09 2745.5,-84.09"/>
</a>
</g>
</g>
<!-- Node103&#45;&gt;Node47 -->
<g id="edge54_Node000103_Node000047" class="edge">
<title>Node103&#45;&gt;Node47</title>
<g id="a_edge54_Node000103_Node000047"><a xlink:title=" ">
<path fill="none" stroke="#63b8ff" d="M2728.99,-54.98C2716.54,-46.84 2697.54,-34.41 2682.79,-24.76"/>
<polygon fill="#63b8ff" stroke="#63b8ff" points="2684.54,-21.72 2674.25,-19.17 2680.7,-27.57 2684.54,-21.72"/>
</a>
</g>
</g>
<!-- Node103&#45;&gt;Node59 -->
<g id="edge53_Node000103_Node000059" class="edge">
<title>Node103&#45;&gt;Node59</title>
<g id="a_edge53_Node000103_Node000059"><a xlink:title=" ">
<path fill="none" stroke="#63b8ff" d="M2758.07,-54.98C2773.86,-46.61 2798.22,-33.7 2816.63,-23.95"/>
<polygon fill="#63b8ff" stroke="#63b8ff" points="2818.44,-26.95 2825.64,-19.17 2815.17,-20.76 2818.44,-26.95"/>
</a>
</g>
</g>
<!-- Node104&#45;&gt;Node101 -->
<g id="edge58_Node000104_Node000101" class="edge">
<title>Node104&#45;&gt;Node101</title>
<g id="a_edge58_Node000104_Node000101"><a xlink:title=" ">
<path fill="none" stroke="#63b8ff" d="M3805.91,-219.75C3798.84,-212.11 3788.41,-200.82 3779.85,-191.56"/>
<polygon fill="#63b8ff" stroke="#63b8ff" points="3782.3,-189.06 3772.94,-184.09 3777.16,-193.81 3782.3,-189.06"/>
</a>
</g>
</g>
<!-- Node105 -->
<g id="Node000105" class="node">
<title>Node105</title>
<g id="a_Node000105"><a xlink:href="cmsg_8h.html" target="_top" xlink:title=" ">
<polygon fill="white" stroke="#666666" points="4009,-184 3917,-184 3917,-165 4009,-165 4009,-184"/>
<text text-anchor="middle" x="3963" y="-172" font-family="Helvetica,sans-Serif" font-size="10.00">compat/cmsg.h</text>
</a>
</g>
</g>
<!-- Node104&#45;&gt;Node105 -->
<g id="edge57_Node000104_Node000105" class="edge">
<title>Node104&#45;&gt;Node105</title>
<g id="a_edge57_Node000104_Node000105"><a xlink:title=" ">
<path fill="none" stroke="#63b8ff" d="M3837.94,-219.98C3862.56,-211.23 3901.12,-197.51 3928.92,-187.62"/>
<polygon fill="#63b8ff" stroke="#63b8ff" points="3930.38,-190.82 3938.62,-184.17 3928.03,-184.22 3930.38,-190.82"/>
</a>
</g>
</g>
<!-- Node106 -->
<g id="Node000106" class="node">
<title>Node106</title>
<g id="a_Node000106"><a xlink:title=" ">
<polygon fill="#e0e0e0" stroke="#999999" points="3898.5,-184 3829.5,-184 3829.5,-165 3898.5,-165 3898.5,-184"/>
<text text-anchor="middle" x="3864" y="-172" font-family="Helvetica,sans-Serif" font-size="10.00">type_traits</text>
</a>
</g>
</g>
<!-- Node104&#45;&gt;Node106 -->
<g id="edge59_Node000104_Node000106" class="edge">
<title>Node104&#45;&gt;Node106</title>
<g id="a_edge59_Node000104_Node000106"><a xlink:title=" ">
<path fill="none" stroke="#63b8ff" d="M3822.26,-219.75C3829.46,-212.11 3840.11,-200.82 3848.85,-191.56"/>
<polygon fill="#63b8ff" stroke="#63b8ff" points="3851.58,-193.76 3855.9,-184.09 3846.49,-188.96 3851.58,-193.76"/>
</a>
</g>
</g>
<!-- Node107&#45;&gt;Node58 -->
<g id="edge67_Node000107_Node000058" class="edge">
<title>Node107&#45;&gt;Node58</title>
<g id="a_edge67_Node000107_Node000058"><a xlink:title=" ">
<path fill="none" stroke="#63b8ff" d="M2927.61,-219.75C2932.32,-212.42 2939.17,-201.73 2944.97,-192.7"/>
<polygon fill="#63b8ff" stroke="#63b8ff" points="2948.04,-194.4 2950.49,-184.09 2942.14,-190.62 2948.04,-194.4"/>
</a>
</g>
</g>
<!-- Node107&#45;&gt;Node59 -->
<g id="edge63_Node000107_Node000059" class="edge">
<title>Node107&#45;&gt;Node59</title>
<g id="a_edge63_Node000107_Node000059"><a xlink:title=" ">
<path fill="none" stroke="#63b8ff" d="M2918.86,-219.95C2907.07,-187.81 2865.2,-73.72 2848.73,-28.83"/>
<polygon fill="#63b8ff" stroke="#63b8ff" points="2851.93,-27.41 2845.2,-19.22 2845.36,-29.82 2851.93,-27.41"/>
</a>
</g>
</g>
<!-- Node108 -->
<g id="Node000108" class="node">
<title>Node108</title>
<g id="a_Node000108"><a xlink:href="ipc_2Response_8h.html" target="_top" xlink:title=" ">
<polygon fill="#fff0f0" stroke="red" points="2860,-184 2770,-184 2770,-165 2860,-165 2860,-184"/>
<text text-anchor="middle" x="2815" y="-172" font-family="Helvetica,sans-Serif" font-size="10.00">ipc/Response.h</text>
</a>
</g>
</g>
<!-- Node107&#45;&gt;Node108 -->
<g id="edge64_Node000107_Node000108" class="edge">
<title>Node107&#45;&gt;Node108</title>
<g id="a_edge64_Node000107_Node000108"><a xlink:title=" ">
<path fill="none" stroke="#63b8ff" d="M2904.81,-219.98C2887.75,-211.54 2861.37,-198.47 2841.6,-188.68"/>
<polygon fill="#63b8ff" stroke="#63b8ff" points="2843.02,-185.47 2832.5,-184.17 2839.91,-191.75 2843.02,-185.47"/>
</a>
</g>
</g>
<!-- Node108&#45;&gt;Node102 -->
<g id="edge66_Node000108_Node000102" class="edge">
<title>Node108&#45;&gt;Node102</title>
<g id="a_edge66_Node000108_Node000102"><a xlink:title=" ">
<path fill="none" stroke="#63b8ff" d="M2803.27,-164.98C2792.27,-157 2775.58,-144.88 2762.4,-135.31"/>
<polygon fill="#63b8ff" stroke="#63b8ff" points="2764.09,-132.21 2753.94,-129.17 2759.98,-137.88 2764.09,-132.21"/>
</a>
</g>
</g>
<!-- Node108&#45;&gt;Node103 -->
<g id="edge65_Node000108_Node000103" class="edge">
<title>Node108&#45;&gt;Node103</title>
<g id="a_edge65_Node000108_Node000103"><a xlink:title=" ">
<path fill="none" stroke="#63b8ff" d="M2814.19,-164.58C2812.64,-151.61 2808.36,-127.21 2797,-110 2788.94,-97.79 2776.47,-87.3 2765.44,-79.58"/>
<polygon fill="#63b8ff" stroke="#63b8ff" points="2767.28,-76.61 2757.01,-74.01 2763.42,-82.44 2767.28,-76.61"/>
</a>
</g>
</g>
</g>
</svg>
