<?xml version="1.0" encoding="UTF-8" standalone="no"?>
<!DOCTYPE svg PUBLIC "-//W3C//DTD SVG 1.1//EN"
 "http://www.w3.org/Graphics/SVG/1.1/DTD/svg11.dtd">
<!-- Generated by graphviz version 2.43.0 (0)
 -->
<!-- Title: squid/src/DiskIO/Mmapped/MmappedFile.cc Pages: 1 -->
<!--zoomable 258 -->

<svg id="main" version="1.1" xmlns="http://www.w3.org/2000/svg" xmlns:xlink="http://www.w3.org/1999/xlink" xml:space="preserve" onload="init(evt)">
<style type="text/css"><![CDATA[
.node, .edge {opacity: 0.7;}
.node.selected, .edge.selected {opacity: 1;}
.edge:hover path { stroke: red; }
.edge:hover polygon { stroke: red; fill: red; }
]]></style>

<defs>
  <circle id="rim" cx="0" cy="0" r="7"/>
  <circle id="rim2" cx="0" cy="0" r="3.5"/>
  <g id="zoomPlus">
    <use xlink:href="#rim" fill="#404040"><set attributeName="fill" to="#808080" begin="zoomplus.mouseover" end="zoomplus.mouseout"/></use>
    <path d="M-4,0h8M0,-4v8" fill="none" stroke="white" stroke-width="1.5" pointer-events="none"/>
  </g>
  <g id="zoomMin">
    <use xlink:href="#rim" fill="#404040"><set attributeName="fill" to="#808080" begin="zoomminus.mouseover" end="zoomminus.mouseout"/></use>
    <path d="M-4,0h8" fill="none" stroke="white" stroke-width="1.5" pointer-events="none"/>
  </g>
  <g id="arrowUp" transform="translate(30 24)">
    <use xlink:href="#rim"/>
    <path pointer-events="none" fill="none" stroke="white" stroke-width="1.5" d="M0,-3.0v7 M-2.5,-0.5L0,-3.0L2.5,-0.5"/>
  </g>
  <g id="arrowRight" transform="rotate(90) translate(36 -43)">
    <use xlink:href="#rim"/>
    <path pointer-events="none" fill="none" stroke="white" stroke-width="1.5" d="M0,-3.0v7 M-2.5,-0.5L0,-3.0L2.5,-0.5"/>
  </g>
  <g id="arrowDown" transform="rotate(180) translate(-30 -48)">
    <use xlink:href="#rim"/>
    <path pointer-events="none" fill="none" stroke="white" stroke-width="1.5" d="M0,-3.0v7 M-2.5,-0.5L0,-3.0L2.5,-0.5"/>
  </g>
  <g id="arrowLeft" transform="rotate(270) translate(-36 17)">
    <use xlink:href="#rim"/>
    <path pointer-events="none" fill="none" stroke="white" stroke-width="1.5" d="M0,-3.0v7 M-2.5,-0.5L0,-3.0L2.5,-0.5"/>
  </g>
  <g id="resetDef">
    <use xlink:href="#rim2" fill="#404040"><set attributeName="fill" to="#808080" begin="reset.mouseover" end="reset.mouseout"/></use>
  </g>
</defs>
<script type="application/ecmascript">
var viewWidth = 3581;
var viewHeight = 258;
var sectionId = 'dynsection-0';
</script>
<script type="application/ecmascript" xlink:href="svg.min.js"/>
<svg id="graph" class="graph">
<g id="viewport">
<title>squid/src/DiskIO/Mmapped/MmappedFile.cc</title>
<!-- Node1 -->
<g id="Node000001" class="node">
<title>Node1</title>
<g id="a_Node000001"><a xlink:title=" ">
<polygon fill="#999999" stroke="#666666" points="3085.5,-250 2938.5,-250 2938.5,-220 3085.5,-220 3085.5,-250"/>
<text text-anchor="start" x="2946.5" y="-238" font-family="Helvetica,sans-Serif" font-size="10.00">squid/src/DiskIO/Mmapped</text>
<text text-anchor="middle" x="3012" y="-227" font-family="Helvetica,sans-Serif" font-size="10.00">/MmappedFile.cc</text>
</a>
</g>
</g>
<!-- Node2 -->
<g id="Node000002" class="node">
<title>Node2</title>
<g id="a_Node000002"><a xlink:href="squid_8h.html" target="_top" xlink:title=" ">
<polygon fill="white" stroke="#666666" points="1339,-184 1287,-184 1287,-165 1339,-165 1339,-184"/>
<text text-anchor="middle" x="1313" y="-172" font-family="Helvetica,sans-Serif" font-size="10.00">squid.h</text>
</a>
</g>
</g>
<!-- Node1&#45;&gt;Node2 -->
<g id="edge1_Node000001_Node000002" class="edge">
<title>Node1&#45;&gt;Node2</title>
<g id="a_edge1_Node000001_Node000002"><a xlink:title=" ">
<path fill="none" stroke="#63b8ff" d="M2938.45,-231.47C2644.84,-221.36 1562.27,-184.08 1349.45,-176.76"/>
<polygon fill="#63b8ff" stroke="#63b8ff" points="1349.26,-173.25 1339.15,-176.4 1349.02,-180.24 1349.26,-173.25"/>
</a>
</g>
</g>
<!-- Node44 -->
<g id="Node000044" class="node">
<title>Node44</title>
<g id="a_Node000044"><a xlink:href="debug_2Stream_8h.html" target="_top" xlink:title=" ">
<polygon fill="white" stroke="#666666" points="2677,-74 2583,-74 2583,-55 2677,-55 2677,-74"/>
<text text-anchor="middle" x="2630" y="-62" font-family="Helvetica,sans-Serif" font-size="10.00">debug/Stream.h</text>
</a>
</g>
</g>
<!-- Node1&#45;&gt;Node44 -->
<g id="edge25_Node000001_Node000044" class="edge">
<title>Node1&#45;&gt;Node44</title>
<g id="a_edge25_Node000001_Node000044"><a xlink:title=" ">
<path fill="none" stroke="#63b8ff" d="M2938.03,-231.8C2812.72,-227.28 2564.36,-214.66 2483,-184 2443.98,-169.3 2425.96,-166.13 2407,-129 2403.16,-121.48 2401.64,-116.53 2407,-110 2412.31,-103.53 2508.54,-86.09 2572.84,-75.06"/>
<polygon fill="#63b8ff" stroke="#63b8ff" points="2573.6,-78.48 2582.87,-73.35 2572.42,-71.58 2573.6,-78.48"/>
</a>
</g>
</g>
<!-- Node51 -->
<g id="Node000051" class="node">
<title>Node51</title>
<g id="a_Node000051"><a xlink:href="IORequestor_8h.html" target="_top" xlink:title=" ">
<polygon fill="white" stroke="#666666" points="3146,-129 3026,-129 3026,-110 3146,-110 3146,-129"/>
<text text-anchor="middle" x="3086" y="-117" font-family="Helvetica,sans-Serif" font-size="10.00">DiskIO/IORequestor.h</text>
</a>
</g>
</g>
<!-- Node1&#45;&gt;Node51 -->
<g id="edge31_Node000001_Node000051" class="edge">
<title>Node1&#45;&gt;Node51</title>
<g id="a_edge31_Node000001_Node000051"><a xlink:title=" ">
<path fill="none" stroke="#63b8ff" d="M3013.34,-219.73C3015.3,-205 3019.98,-181.84 3031,-165 3038.96,-152.84 3051.32,-142.41 3062.3,-134.71"/>
<polygon fill="#63b8ff" stroke="#63b8ff" points="3064.31,-137.58 3070.71,-129.14 3060.44,-131.75 3064.31,-137.58"/>
</a>
</g>
</g>
<!-- Node55 -->
<g id="Node000055" class="node">
<title>Node55</title>
<g id="a_Node000055"><a xlink:href="MmappedFile_8h.html" target="_top" xlink:title=" ">
<polygon fill="white" stroke="#666666" points="3219.5,-184 3040.5,-184 3040.5,-165 3219.5,-165 3219.5,-184"/>
<text text-anchor="middle" x="3130" y="-172" font-family="Helvetica,sans-Serif" font-size="10.00">DiskIO/Mmapped/MmappedFile.h</text>
</a>
</g>
</g>
<!-- Node1&#45;&gt;Node55 -->
<g id="edge34_Node000001_Node000055" class="edge">
<title>Node1&#45;&gt;Node55</title>
<g id="a_edge34_Node000001_Node000055"><a xlink:title=" ">
<path fill="none" stroke="#63b8ff" d="M3040.26,-219.99C3059.42,-210.49 3084.58,-198.02 3103.39,-188.69"/>
<polygon fill="#63b8ff" stroke="#63b8ff" points="3105.17,-191.72 3112.57,-184.14 3102.06,-185.45 3105.17,-191.72"/>
</a>
</g>
</g>
<!-- Node60 -->
<g id="Node000060" class="node">
<title>Node60</title>
<g id="a_Node000060"><a xlink:href="ReadRequest_8h.html" target="_top" xlink:title=" ">
<polygon fill="white" stroke="#666666" points="3362.5,-184 3237.5,-184 3237.5,-165 3362.5,-165 3362.5,-184"/>
<text text-anchor="middle" x="3300" y="-172" font-family="Helvetica,sans-Serif" font-size="10.00">DiskIO/ReadRequest.h</text>
</a>
</g>
</g>
<!-- Node1&#45;&gt;Node60 -->
<g id="edge39_Node000001_Node000060" class="edge">
<title>Node1&#45;&gt;Node60</title>
<g id="a_edge39_Node000001_Node000060"><a xlink:title=" ">
<path fill="none" stroke="#63b8ff" d="M3080.98,-219.99C3132.3,-209.56 3201.25,-195.56 3247.98,-186.07"/>
<polygon fill="#63b8ff" stroke="#63b8ff" points="3248.79,-189.47 3257.89,-184.05 3247.39,-182.61 3248.79,-189.47"/>
</a>
</g>
</g>
<!-- Node61 -->
<g id="Node000061" class="node">
<title>Node61</title>
<g id="a_Node000061"><a xlink:href="WriteRequest_8h.html" target="_top" xlink:title=" ">
<polygon fill="white" stroke="#666666" points="3507.5,-184 3380.5,-184 3380.5,-165 3507.5,-165 3507.5,-184"/>
<text text-anchor="middle" x="3444" y="-172" font-family="Helvetica,sans-Serif" font-size="10.00">DiskIO/WriteRequest.h</text>
</a>
</g>
</g>
<!-- Node1&#45;&gt;Node61 -->
<g id="edge42_Node000001_Node000061" class="edge">
<title>Node1&#45;&gt;Node61</title>
<g id="a_edge42_Node000001_Node000061"><a xlink:title=" ">
<path fill="none" stroke="#63b8ff" d="M3085.77,-224.01C3165.5,-213.21 3291.77,-196.11 3371.14,-185.37"/>
<polygon fill="#63b8ff" stroke="#63b8ff" points="3371.62,-188.83 3381.06,-184.02 3370.68,-181.9 3371.62,-188.83"/>
</a>
</g>
</g>
<!-- Node63 -->
<g id="Node000063" class="node">
<title>Node63</title>
<g id="a_Node000063"><a xlink:href="fs__io_8h.html" target="_top" xlink:title=" ">
<polygon fill="white" stroke="#666666" points="2541.5,-184 2492.5,-184 2492.5,-165 2541.5,-165 2541.5,-184"/>
<text text-anchor="middle" x="2517" y="-172" font-family="Helvetica,sans-Serif" font-size="10.00">fs_io.h</text>
</a>
</g>
</g>
<!-- Node1&#45;&gt;Node63 -->
<g id="edge46_Node000001_Node000063" class="edge">
<title>Node1&#45;&gt;Node63</title>
<g id="a_edge46_Node000001_Node000063"><a xlink:title=" ">
<path fill="none" stroke="#63b8ff" d="M2938.43,-225.31C2830.05,-212.5 2631.68,-189.05 2551.75,-179.61"/>
<polygon fill="#63b8ff" stroke="#63b8ff" points="2552.06,-176.12 2541.72,-178.42 2551.24,-183.07 2552.06,-176.12"/>
</a>
</g>
</g>
<!-- Node72 -->
<g id="Node000072" class="node">
<title>Node72</title>
<g id="a_Node000072"><a xlink:href="globals_8h.html" target="_top" xlink:title=" ">
<polygon fill="white" stroke="#666666" points="2900.5,-184 2839.5,-184 2839.5,-165 2900.5,-165 2900.5,-184"/>
<text text-anchor="middle" x="2870" y="-172" font-family="Helvetica,sans-Serif" font-size="10.00">globals.h</text>
</a>
</g>
</g>
<!-- Node1&#45;&gt;Node72 -->
<g id="edge51_Node000001_Node000072" class="edge">
<title>Node1&#45;&gt;Node72</title>
<g id="a_edge51_Node000001_Node000072"><a xlink:title=" ">
<path fill="none" stroke="#63b8ff" d="M2977.99,-219.99C2954.4,-210.27 2923.26,-197.44 2900.48,-188.06"/>
<polygon fill="#63b8ff" stroke="#63b8ff" points="2901.55,-184.71 2890.97,-184.14 2898.88,-191.18 2901.55,-184.71"/>
</a>
</g>
</g>
<!-- Node83 -->
<g id="Node000083" class="node">
<title>Node83</title>
<g id="a_Node000083"><a xlink:title=" ">
<polygon fill="#e0e0e0" stroke="#999999" points="3572.5,-184 3525.5,-184 3525.5,-165 3572.5,-165 3572.5,-184"/>
<text text-anchor="middle" x="3549" y="-172" font-family="Helvetica,sans-Serif" font-size="10.00">cerrno</text>
</a>
</g>
</g>
<!-- Node1&#45;&gt;Node83 -->
<g id="edge58_Node000001_Node000083" class="edge">
<title>Node1&#45;&gt;Node83</title>
<g id="a_edge58_Node000001_Node000083"><a xlink:title=" ">
<path fill="none" stroke="#63b8ff" d="M3085.51,-230.24C3182.07,-224.52 3356.91,-211.45 3515.37,-183.82"/>
<polygon fill="#63b8ff" stroke="#63b8ff" points="3516.06,-187.25 3525.3,-182.07 3514.85,-180.36 3516.06,-187.25"/>
</a>
</g>
</g>
<!-- Node3 -->
<g id="Node000003" class="node">
<title>Node3</title>
<g id="a_Node000003"><a xlink:href="autoconf_8h.html" target="_top" xlink:title=" ">
<polygon fill="white" stroke="#666666" points="1214,-129 1146,-129 1146,-110 1214,-110 1214,-129"/>
<text text-anchor="middle" x="1180" y="-117" font-family="Helvetica,sans-Serif" font-size="10.00">autoconf.h</text>
</a>
</g>
</g>
<!-- Node2&#45;&gt;Node3 -->
<g id="edge2_Node000002_Node000003" class="edge">
<title>Node2&#45;&gt;Node3</title>
<g id="a_edge2_Node000002_Node000003"><a xlink:title=" ">
<path fill="none" stroke="#63b8ff" d="M1291.63,-164.98C1269.85,-156.3 1235.84,-142.75 1211.08,-132.88"/>
<polygon fill="#63b8ff" stroke="#63b8ff" points="1212.34,-129.62 1201.76,-129.17 1209.75,-136.12 1212.34,-129.62"/>
</a>
</g>
</g>
<!-- Node4 -->
<g id="Node000004" class="node">
<title>Node4</title>
<g id="a_Node000004"><a xlink:href="version_8h.html" target="_top" xlink:title=" ">
<polygon fill="white" stroke="#666666" points="1294,-129 1232,-129 1232,-110 1294,-110 1294,-129"/>
<text text-anchor="middle" x="1263" y="-117" font-family="Helvetica,sans-Serif" font-size="10.00">version.h</text>
</a>
</g>
</g>
<!-- Node2&#45;&gt;Node4 -->
<g id="edge3_Node000002_Node000004" class="edge">
<title>Node2&#45;&gt;Node4</title>
<g id="a_edge3_Node000002_Node000004"><a xlink:title=" ">
<path fill="none" stroke="#63b8ff" d="M1304.74,-164.75C1297.54,-157.11 1286.89,-145.82 1278.15,-136.56"/>
<polygon fill="#63b8ff" stroke="#63b8ff" points="1280.51,-133.96 1271.1,-129.09 1275.42,-138.76 1280.51,-133.96"/>
</a>
</g>
</g>
<!-- Node5 -->
<g id="Node000005" class="node">
<title>Node5</title>
<g id="a_Node000005"><a xlink:href="compat_8h.html" target="_top" xlink:title=" ">
<polygon fill="#fff0f0" stroke="red" points="1414,-129 1312,-129 1312,-110 1414,-110 1414,-129"/>
<text text-anchor="middle" x="1363" y="-117" font-family="Helvetica,sans-Serif" font-size="10.00">compat/compat.h</text>
</a>
</g>
</g>
<!-- Node2&#45;&gt;Node5 -->
<g id="edge4_Node000002_Node000005" class="edge">
<title>Node2&#45;&gt;Node5</title>
<g id="a_edge4_Node000002_Node000005"><a xlink:title=" ">
<path fill="none" stroke="#63b8ff" d="M1321.26,-164.75C1328.46,-157.11 1339.11,-145.82 1347.85,-136.56"/>
<polygon fill="#63b8ff" stroke="#63b8ff" points="1350.58,-138.76 1354.9,-129.09 1345.49,-133.96 1350.58,-138.76"/>
</a>
</g>
</g>
<!-- Node6 -->
<g id="Node000006" class="node">
<title>Node6</title>
<g id="a_Node000006"><a xlink:href="osdetect_8h.html" target="_top" xlink:title=" ">
<polygon fill="white" stroke="#666666" points="1558.5,-74 1451.5,-74 1451.5,-55 1558.5,-55 1558.5,-74"/>
<text text-anchor="middle" x="1505" y="-62" font-family="Helvetica,sans-Serif" font-size="10.00">compat/osdetect.h</text>
</a>
</g>
</g>
<!-- Node5&#45;&gt;Node6 -->
<g id="edge5_Node000005_Node000006" class="edge">
<title>Node5&#45;&gt;Node6</title>
<g id="a_edge5_Node000005_Node000006"><a xlink:title=" ">
<path fill="none" stroke="#63b8ff" d="M1385.81,-109.98C1409.17,-101.27 1445.7,-87.63 1472.17,-77.75"/>
<polygon fill="#63b8ff" stroke="#63b8ff" points="1473.63,-80.95 1481.77,-74.17 1471.18,-74.39 1473.63,-80.95"/>
</a>
</g>
</g>
<!-- Node7 -->
<g id="Node000007" class="node">
<title>Node7</title>
<g id="a_Node000007"><a xlink:href="fdsetsize_8h.html" target="_top" xlink:title=" ">
<polygon fill="white" stroke="#666666" points="1687,-74 1577,-74 1577,-55 1687,-55 1687,-74"/>
<text text-anchor="middle" x="1632" y="-62" font-family="Helvetica,sans-Serif" font-size="10.00">compat/fdsetsize.h</text>
</a>
</g>
</g>
<!-- Node5&#45;&gt;Node7 -->
<g id="edge6_Node000005_Node000007" class="edge">
<title>Node5&#45;&gt;Node7</title>
<g id="a_edge6_Node000005_Node000007"><a xlink:title=" ">
<path fill="none" stroke="#63b8ff" d="M1406.22,-109.98C1453.04,-100.76 1527.81,-86.03 1578.36,-76.07"/>
<polygon fill="#63b8ff" stroke="#63b8ff" points="1579.31,-79.45 1588.44,-74.08 1577.95,-72.58 1579.31,-79.45"/>
</a>
</g>
</g>
<!-- Node8 -->
<g id="Node000008" class="node">
<title>Node8</title>
<g id="a_Node000008"><a xlink:href="types_8h.html" target="_top" xlink:title=" ">
<polygon fill="#fff0f0" stroke="red" points="1797,-74 1705,-74 1705,-55 1797,-55 1797,-74"/>
<text text-anchor="middle" x="1751" y="-62" font-family="Helvetica,sans-Serif" font-size="10.00">compat/types.h</text>
</a>
</g>
</g>
<!-- Node5&#45;&gt;Node8 -->
<g id="edge7_Node000005_Node000008" class="edge">
<title>Node5&#45;&gt;Node8</title>
<g id="a_edge7_Node000005_Node000008"><a xlink:title=" ">
<path fill="none" stroke="#63b8ff" d="M1414.1,-112C1477.46,-103.87 1589.02,-89.31 1694.6,-74.18"/>
<polygon fill="#63b8ff" stroke="#63b8ff" points="1695.4,-77.6 1704.8,-72.71 1694.4,-70.67 1695.4,-77.6"/>
</a>
</g>
</g>
<!-- Node10 -->
<g id="Node000010" class="node">
<title>Node10</title>
<g id="a_Node000010"><a xlink:href="aix_8h.html" target="_top" xlink:title=" ">
<polygon fill="white" stroke="#666666" points="1910.5,-74 1815.5,-74 1815.5,-55 1910.5,-55 1910.5,-74"/>
<text text-anchor="middle" x="1863" y="-62" font-family="Helvetica,sans-Serif" font-size="10.00">compat/os/aix.h</text>
</a>
</g>
</g>
<!-- Node5&#45;&gt;Node10 -->
<g id="edge8_Node000005_Node000010" class="edge">
<title>Node5&#45;&gt;Node10</title>
<g id="a_edge8_Node000005_Node000010"><a xlink:title=" ">
<path fill="none" stroke="#63b8ff" d="M1414.25,-114.16C1494.99,-107.13 1657,-92.33 1805.24,-74.03"/>
<polygon fill="#63b8ff" stroke="#63b8ff" points="1805.95,-77.47 1815.44,-72.77 1805.08,-70.53 1805.95,-77.47"/>
</a>
</g>
</g>
<!-- Node11 -->
<g id="Node000011" class="node">
<title>Node11</title>
<g id="a_Node000011"><a xlink:href="android_8h.html" target="_top" xlink:title=" ">
<polygon fill="white" stroke="#666666" points="2045,-74 1929,-74 1929,-55 2045,-55 2045,-74"/>
<text text-anchor="middle" x="1987" y="-62" font-family="Helvetica,sans-Serif" font-size="10.00">compat/os/android.h</text>
</a>
</g>
</g>
<!-- Node5&#45;&gt;Node11 -->
<g id="edge9_Node000005_Node000011" class="edge">
<title>Node5&#45;&gt;Node11</title>
<g id="a_edge9_Node000005_Node000011"><a xlink:title=" ">
<path fill="none" stroke="#63b8ff" d="M1414.05,-115.18C1510.37,-108.74 1725.79,-93.56 1918.74,-73.98"/>
<polygon fill="#63b8ff" stroke="#63b8ff" points="1919.19,-77.45 1928.78,-72.95 1918.48,-70.48 1919.19,-77.45"/>
</a>
</g>
</g>
<!-- Node12 -->
<g id="Node000012" class="node">
<title>Node12</title>
<g id="a_Node000012"><a xlink:href="dragonfly_8h.html" target="_top" xlink:title=" ">
<polygon fill="white" stroke="#666666" points="2187,-74 2063,-74 2063,-55 2187,-55 2187,-74"/>
<text text-anchor="middle" x="2125" y="-62" font-family="Helvetica,sans-Serif" font-size="10.00">compat/os/dragonfly.h</text>
</a>
</g>
</g>
<!-- Node5&#45;&gt;Node12 -->
<g id="edge10_Node000005_Node000012" class="edge">
<title>Node5&#45;&gt;Node12</title>
<g id="a_edge10_Node000005_Node000012"><a xlink:title=" ">
<path fill="none" stroke="#63b8ff" d="M1414.22,-116.16C1527.37,-110.8 1807.39,-96.37 2052.51,-74.09"/>
<polygon fill="#63b8ff" stroke="#63b8ff" points="2053.04,-77.55 2062.68,-73.16 2052.4,-70.58 2053.04,-77.55"/>
</a>
</g>
</g>
<!-- Node13 -->
<g id="Node000013" class="node">
<title>Node13</title>
<g id="a_Node000013"><a xlink:href="freebsd_8h.html" target="_top" xlink:title=" ">
<polygon fill="white" stroke="#666666" points="2321,-74 2205,-74 2205,-55 2321,-55 2321,-74"/>
<text text-anchor="middle" x="2263" y="-62" font-family="Helvetica,sans-Serif" font-size="10.00">compat/os/freebsd.h</text>
</a>
</g>
</g>
<!-- Node5&#45;&gt;Node13 -->
<g id="edge11_Node000005_Node000013" class="edge">
<title>Node5&#45;&gt;Node13</title>
<g id="a_edge11_Node000005_Node000013"><a xlink:title=" ">
<path fill="none" stroke="#63b8ff" d="M1414.28,-117.06C1543.42,-113.16 1892.7,-100.87 2194.65,-74.05"/>
<polygon fill="#63b8ff" stroke="#63b8ff" points="2195.28,-77.51 2204.92,-73.13 2194.65,-70.54 2195.28,-77.51"/>
</a>
</g>
</g>
<!-- Node14 -->
<g id="Node000014" class="node">
<title>Node14</title>
<g id="a_Node000014"><a xlink:href="hpux_8h.html" target="_top" xlink:title=" ">
<polygon fill="white" stroke="#666666" points="2443,-74 2339,-74 2339,-55 2443,-55 2443,-74"/>
<text text-anchor="middle" x="2391" y="-62" font-family="Helvetica,sans-Serif" font-size="10.00">compat/os/hpux.h</text>
</a>
</g>
</g>
<!-- Node5&#45;&gt;Node14 -->
<g id="edge12_Node000005_Node000014" class="edge">
<title>Node5&#45;&gt;Node14</title>
<g id="a_edge12_Node000005_Node000014"><a xlink:title=" ">
<path fill="none" stroke="#63b8ff" d="M1414.22,-117.81C1557.23,-115.53 1973.06,-106.46 2328.82,-74.02"/>
<polygon fill="#63b8ff" stroke="#63b8ff" points="2329.16,-77.5 2338.79,-73.1 2328.51,-70.53 2329.16,-77.5"/>
</a>
</g>
</g>
<!-- Node15 -->
<g id="Node000015" class="node">
<title>Node15</title>
<g id="a_Node000015"><a xlink:href="linux_8h.html" target="_top" xlink:title=" ">
<polygon fill="white" stroke="#666666" points="2565,-74 2461,-74 2461,-55 2565,-55 2565,-74"/>
<text text-anchor="middle" x="2513" y="-62" font-family="Helvetica,sans-Serif" font-size="10.00">compat/os/linux.h</text>
</a>
</g>
</g>
<!-- Node5&#45;&gt;Node15 -->
<g id="edge13_Node000005_Node000015" class="edge">
<title>Node5&#45;&gt;Node15</title>
<g id="a_edge13_Node000005_Node000015"><a xlink:title=" ">
<path fill="none" stroke="#63b8ff" d="M1414.14,-118.18C1568.82,-116.84 2045.41,-109.94 2450.63,-74.02"/>
<polygon fill="#63b8ff" stroke="#63b8ff" points="2451.15,-77.49 2460.8,-73.12 2450.52,-70.52 2451.15,-77.49"/>
</a>
</g>
</g>
<!-- Node16 -->
<g id="Node000016" class="node">
<title>Node16</title>
<g id="a_Node000016"><a xlink:href="macosx_8h.html" target="_top" xlink:title=" ">
<polygon fill="white" stroke="#666666" points="118,-74 0,-74 0,-55 118,-55 118,-74"/>
<text text-anchor="middle" x="59" y="-62" font-family="Helvetica,sans-Serif" font-size="10.00">compat/os/macosx.h</text>
</a>
</g>
</g>
<!-- Node5&#45;&gt;Node16 -->
<g id="edge14_Node000005_Node000016" class="edge">
<title>Node5&#45;&gt;Node16</title>
<g id="a_edge14_Node000005_Node000016"><a xlink:title=" ">
<path fill="none" stroke="#63b8ff" d="M1311.98,-110.88C1308.95,-110.55 1305.93,-110.25 1303,-110 785.31,-65.54 650.06,-113.85 128.35,-74.02"/>
<polygon fill="#63b8ff" stroke="#63b8ff" points="128.54,-70.52 118.3,-73.25 128.01,-77.5 128.54,-70.52"/>
</a>
</g>
</g>
<!-- Node17 -->
<g id="Node000017" class="node">
<title>Node17</title>
<g id="a_Node000017"><a xlink:href="mingw_8h.html" target="_top" xlink:title=" ">
<polygon fill="white" stroke="#666666" points="248,-74 136,-74 136,-55 248,-55 248,-74"/>
<text text-anchor="middle" x="192" y="-62" font-family="Helvetica,sans-Serif" font-size="10.00">compat/os/mingw.h</text>
</a>
</g>
</g>
<!-- Node5&#45;&gt;Node17 -->
<g id="edge15_Node000005_Node000017" class="edge">
<title>Node5&#45;&gt;Node17</title>
<g id="a_edge15_Node000005_Node000017"><a xlink:title=" ">
<path fill="none" stroke="#63b8ff" d="M1311.98,-110.9C1308.94,-110.56 1305.93,-110.26 1303,-110 842.9,-69.61 722.3,-111.6 258.31,-74.02"/>
<polygon fill="#63b8ff" stroke="#63b8ff" points="258.59,-70.53 248.33,-73.2 258.02,-77.51 258.59,-70.53"/>
</a>
</g>
</g>
<!-- Node18 -->
<g id="Node000018" class="node">
<title>Node18</title>
<g id="a_Node000018"><a xlink:href="mswindows_8h.html" target="_top" xlink:title=" ">
<polygon fill="white" stroke="#666666" points="403.5,-74 266.5,-74 266.5,-55 403.5,-55 403.5,-74"/>
<text text-anchor="middle" x="335" y="-62" font-family="Helvetica,sans-Serif" font-size="10.00">compat/os/mswindows.h</text>
</a>
</g>
</g>
<!-- Node5&#45;&gt;Node18 -->
<g id="edge16_Node000005_Node000018" class="edge">
<title>Node5&#45;&gt;Node18</title>
<g id="a_edge16_Node000005_Node000018"><a xlink:title=" ">
<path fill="none" stroke="#63b8ff" d="M1311.98,-110.92C1308.94,-110.58 1305.93,-110.27 1303,-110 911.58,-74.46 808.9,-103.27 413.81,-74.08"/>
<polygon fill="#63b8ff" stroke="#63b8ff" points="414.06,-70.59 403.82,-73.34 413.54,-77.57 414.06,-70.59"/>
</a>
</g>
</g>
<!-- Node19 -->
<g id="Node000019" class="node">
<title>Node19</title>
<g id="a_Node000019"><a xlink:href="netbsd_8h.html" target="_top" xlink:title=" ">
<polygon fill="white" stroke="#666666" points="534.5,-74 421.5,-74 421.5,-55 534.5,-55 534.5,-74"/>
<text text-anchor="middle" x="478" y="-62" font-family="Helvetica,sans-Serif" font-size="10.00">compat/os/netbsd.h</text>
</a>
</g>
</g>
<!-- Node5&#45;&gt;Node19 -->
<g id="edge17_Node000005_Node000019" class="edge">
<title>Node5&#45;&gt;Node19</title>
<g id="a_edge17_Node000005_Node000019"><a xlink:title=" ">
<path fill="none" stroke="#63b8ff" d="M1311.98,-110.94C1308.94,-110.59 1305.93,-110.28 1303,-110 969.63,-78.56 881.54,-103.45 544.73,-74.08"/>
<polygon fill="#63b8ff" stroke="#63b8ff" points="544.96,-70.59 534.69,-73.19 544.34,-77.56 544.96,-70.59"/>
</a>
</g>
</g>
<!-- Node20 -->
<g id="Node000020" class="node">
<title>Node20</title>
<g id="a_Node000020"><a xlink:href="openbsd_8h.html" target="_top" xlink:title=" ">
<polygon fill="white" stroke="#666666" points="673.5,-74 552.5,-74 552.5,-55 673.5,-55 673.5,-74"/>
<text text-anchor="middle" x="613" y="-62" font-family="Helvetica,sans-Serif" font-size="10.00">compat/os/openbsd.h</text>
</a>
</g>
</g>
<!-- Node5&#45;&gt;Node20 -->
<g id="edge18_Node000005_Node000020" class="edge">
<title>Node5&#45;&gt;Node20</title>
<g id="a_edge18_Node000005_Node000020"><a xlink:title=" ">
<path fill="none" stroke="#63b8ff" d="M1311.97,-110.98C1308.94,-110.62 1305.93,-110.29 1303,-110 1031.26,-82.92 959.09,-98.52 683.86,-74.11"/>
<polygon fill="#63b8ff" stroke="#63b8ff" points="683.83,-70.59 673.56,-73.18 683.21,-77.56 683.83,-70.59"/>
</a>
</g>
</g>
<!-- Node21 -->
<g id="Node000021" class="node">
<title>Node21</title>
<g id="a_Node000021"><a xlink:href="os2_8h.html" target="_top" xlink:title=" ">
<polygon fill="white" stroke="#666666" points="788.5,-74 691.5,-74 691.5,-55 788.5,-55 788.5,-74"/>
<text text-anchor="middle" x="740" y="-62" font-family="Helvetica,sans-Serif" font-size="10.00">compat/os/os2.h</text>
</a>
</g>
</g>
<!-- Node5&#45;&gt;Node21 -->
<g id="edge19_Node000005_Node000021" class="edge">
<title>Node5&#45;&gt;Node21</title>
<g id="a_edge19_Node000005_Node000021"><a xlink:title=" ">
<path fill="none" stroke="#63b8ff" d="M1311.97,-111.02C1308.94,-110.66 1305.93,-110.31 1303,-110 1082.53,-86.55 1023.42,-97.98 798.83,-74"/>
<polygon fill="#63b8ff" stroke="#63b8ff" points="799.02,-70.5 788.7,-72.91 798.27,-77.46 799.02,-70.5"/>
</a>
</g>
</g>
<!-- Node22 -->
<g id="Node000022" class="node">
<title>Node22</title>
<g id="a_Node000022"><a xlink:href="qnx_8h.html" target="_top" xlink:title=" ">
<polygon fill="white" stroke="#666666" points="905,-74 807,-74 807,-55 905,-55 905,-74"/>
<text text-anchor="middle" x="856" y="-62" font-family="Helvetica,sans-Serif" font-size="10.00">compat/os/qnx.h</text>
</a>
</g>
</g>
<!-- Node5&#45;&gt;Node22 -->
<g id="edge20_Node000005_Node000022" class="edge">
<title>Node5&#45;&gt;Node22</title>
<g id="a_edge20_Node000005_Node000022"><a xlink:title=" ">
<path fill="none" stroke="#63b8ff" d="M1311.96,-111.1C1308.93,-110.71 1305.93,-110.34 1303,-110 1133.75,-90.19 1088.08,-94.43 914.98,-74.05"/>
<polygon fill="#63b8ff" stroke="#63b8ff" points="915.37,-70.58 905.02,-72.87 914.54,-77.53 915.37,-70.58"/>
</a>
</g>
</g>
<!-- Node23 -->
<g id="Node000023" class="node">
<title>Node23</title>
<g id="a_Node000023"><a xlink:href="solaris_8h.html" target="_top" xlink:title=" ">
<polygon fill="white" stroke="#666666" points="1035,-74 923,-74 923,-55 1035,-55 1035,-74"/>
<text text-anchor="middle" x="979" y="-62" font-family="Helvetica,sans-Serif" font-size="10.00">compat/os/solaris.h</text>
</a>
</g>
</g>
<!-- Node5&#45;&gt;Node23 -->
<g id="edge21_Node000005_Node000023" class="edge">
<title>Node5&#45;&gt;Node23</title>
<g id="a_edge21_Node000005_Node000023"><a xlink:title=" ">
<path fill="none" stroke="#63b8ff" d="M1311.94,-111.25C1308.91,-110.83 1305.92,-110.41 1303,-110 1213.86,-97.56 1110.88,-83.47 1045.38,-74.53"/>
<polygon fill="#63b8ff" stroke="#63b8ff" points="1045.58,-71.03 1035.2,-73.15 1044.64,-77.96 1045.58,-71.03"/>
</a>
</g>
</g>
<!-- Node24 -->
<g id="Node000024" class="node">
<title>Node24</title>
<g id="a_Node000024"><a xlink:href="sunos_8h.html" target="_top" xlink:title=" ">
<polygon fill="white" stroke="#666666" points="1161,-74 1053,-74 1053,-55 1161,-55 1161,-74"/>
<text text-anchor="middle" x="1107" y="-62" font-family="Helvetica,sans-Serif" font-size="10.00">compat/os/sunos.h</text>
</a>
</g>
</g>
<!-- Node5&#45;&gt;Node24 -->
<g id="edge22_Node000005_Node000024" class="edge">
<title>Node5&#45;&gt;Node24</title>
<g id="a_edge22_Node000005_Node000024"><a xlink:title=" ">
<path fill="none" stroke="#63b8ff" d="M1321.87,-109.98C1277.4,-100.78 1206.45,-86.09 1158.35,-76.13"/>
<polygon fill="#63b8ff" stroke="#63b8ff" points="1158.96,-72.68 1148.45,-74.08 1157.54,-79.54 1158.96,-72.68"/>
</a>
</g>
</g>
<!-- Node25 -->
<g id="Node000025" class="node">
<title>Node25</title>
<g id="a_Node000025"><a xlink:href="assert_8h.html" target="_top" xlink:title=" ">
<polygon fill="white" stroke="#666666" points="1274.5,-74 1179.5,-74 1179.5,-55 1274.5,-55 1274.5,-74"/>
<text text-anchor="middle" x="1227" y="-62" font-family="Helvetica,sans-Serif" font-size="10.00">compat/assert.h</text>
</a>
</g>
</g>
<!-- Node5&#45;&gt;Node25 -->
<g id="edge23_Node000005_Node000025" class="edge">
<title>Node5&#45;&gt;Node25</title>
<g id="a_edge23_Node000005_Node000025"><a xlink:title=" ">
<path fill="none" stroke="#63b8ff" d="M1341.15,-109.98C1318.88,-101.3 1284.1,-87.75 1258.78,-77.88"/>
<polygon fill="#63b8ff" stroke="#63b8ff" points="1259.84,-74.54 1249.25,-74.17 1257.29,-81.06 1259.84,-74.54"/>
</a>
</g>
</g>
<!-- Node26 -->
<g id="Node000026" class="node">
<title>Node26</title>
<g id="a_Node000026"><a xlink:href="compat__shared_8h.html" target="_top" xlink:title=" ">
<polygon fill="#fff0f0" stroke="red" points="1433,-74 1293,-74 1293,-55 1433,-55 1433,-74"/>
<text text-anchor="middle" x="1363" y="-62" font-family="Helvetica,sans-Serif" font-size="10.00">compat/compat_shared.h</text>
</a>
</g>
</g>
<!-- Node5&#45;&gt;Node26 -->
<g id="edge24_Node000005_Node000026" class="edge">
<title>Node5&#45;&gt;Node26</title>
<g id="a_edge24_Node000005_Node000026"><a xlink:title=" ">
<path fill="none" stroke="#63b8ff" d="M1363,-109.75C1363,-102.8 1363,-92.85 1363,-84.13"/>
<polygon fill="#63b8ff" stroke="#63b8ff" points="1366.5,-84.09 1363,-74.09 1359.5,-84.09 1366.5,-84.09"/>
</a>
</g>
</g>
<!-- Node45 -->
<g id="Node000045" class="node">
<title>Node45</title>
<g id="a_Node000045"><a xlink:href="Here_8h.html" target="_top" xlink:title=" ">
<polygon fill="#fff0f0" stroke="red" points="2513.5,-19 2438.5,-19 2438.5,0 2513.5,0 2513.5,-19"/>
<text text-anchor="middle" x="2476" y="-7" font-family="Helvetica,sans-Serif" font-size="10.00">base/Here.h</text>
</a>
</g>
</g>
<!-- Node44&#45;&gt;Node45 -->
<g id="edge26_Node000044_Node000045" class="edge">
<title>Node44&#45;&gt;Node45</title>
<g id="a_edge26_Node000044_Node000045"><a xlink:title=" ">
<path fill="none" stroke="#63b8ff" d="M2605.26,-54.98C2579.63,-46.16 2539.37,-32.31 2510.59,-22.41"/>
<polygon fill="#63b8ff" stroke="#63b8ff" points="2511.53,-19.03 2500.94,-19.08 2509.25,-25.65 2511.53,-19.03"/>
</a>
</g>
</g>
<!-- Node47 -->
<g id="Node000047" class="node">
<title>Node47</title>
<g id="a_Node000047"><a xlink:href="AllocatorProxy_8h.html" target="_top" xlink:title=" ">
<polygon fill="white" stroke="#666666" points="2803,-19 2679,-19 2679,0 2803,0 2803,-19"/>
<text text-anchor="middle" x="2741" y="-7" font-family="Helvetica,sans-Serif" font-size="10.00">mem/AllocatorProxy.h</text>
</a>
</g>
</g>
<!-- Node44&#45;&gt;Node47 -->
<g id="edge27_Node000044_Node000047" class="edge">
<title>Node44&#45;&gt;Node47</title>
<g id="a_edge27_Node000044_Node000047"><a xlink:title=" ">
<path fill="none" stroke="#63b8ff" d="M2647.83,-54.98C2665.61,-46.5 2693.15,-33.35 2713.68,-23.54"/>
<polygon fill="#63b8ff" stroke="#63b8ff" points="2715.33,-26.64 2722.84,-19.17 2712.31,-20.32 2715.33,-26.64"/>
</a>
</g>
</g>
<!-- Node48 -->
<g id="Node000048" class="node">
<title>Node48</title>
<g id="a_Node000048"><a xlink:title=" ">
<polygon fill="#e0e0e0" stroke="#999999" points="3062,-19 3002,-19 3002,0 3062,0 3062,-19"/>
<text text-anchor="middle" x="3032" y="-7" font-family="Helvetica,sans-Serif" font-size="10.00">iostream</text>
</a>
</g>
</g>
<!-- Node44&#45;&gt;Node48 -->
<g id="edge28_Node000044_Node000048" class="edge">
<title>Node44&#45;&gt;Node48</title>
<g id="a_edge28_Node000044_Node000048"><a xlink:title=" ">
<path fill="none" stroke="#63b8ff" d="M2677.04,-56.28C2680.07,-55.84 2683.08,-55.41 2686,-55 2796.5,-39.51 2927.17,-23.27 2991.73,-15.38"/>
<polygon fill="#63b8ff" stroke="#63b8ff" points="2992.38,-18.82 3001.89,-14.14 2991.54,-11.88 2992.38,-18.82"/>
</a>
</g>
</g>
<!-- Node49 -->
<g id="Node000049" class="node">
<title>Node49</title>
<g id="a_Node000049"><a xlink:title=" ">
<polygon fill="#e0e0e0" stroke="#999999" points="2587,-19 2531,-19 2531,0 2587,0 2587,-19"/>
<text text-anchor="middle" x="2559" y="-7" font-family="Helvetica,sans-Serif" font-size="10.00">sstream</text>
</a>
</g>
</g>
<!-- Node44&#45;&gt;Node49 -->
<g id="edge29_Node000044_Node000049" class="edge">
<title>Node44&#45;&gt;Node49</title>
<g id="a_edge29_Node000044_Node000049"><a xlink:title=" ">
<path fill="none" stroke="#63b8ff" d="M2618.59,-54.98C2607.89,-47 2591.66,-34.88 2578.84,-25.31"/>
<polygon fill="#63b8ff" stroke="#63b8ff" points="2580.72,-22.35 2570.61,-19.17 2576.53,-27.96 2580.72,-22.35"/>
</a>
</g>
</g>
<!-- Node50 -->
<g id="Node000050" class="node">
<title>Node50</title>
<g id="a_Node000050"><a xlink:title=" ">
<polygon fill="#e0e0e0" stroke="#999999" points="2661,-19 2605,-19 2605,0 2661,0 2661,-19"/>
<text text-anchor="middle" x="2633" y="-7" font-family="Helvetica,sans-Serif" font-size="10.00">iomanip</text>
</a>
</g>
</g>
<!-- Node44&#45;&gt;Node50 -->
<g id="edge30_Node000044_Node000050" class="edge">
<title>Node44&#45;&gt;Node50</title>
<g id="a_edge30_Node000044_Node000050"><a xlink:title=" ">
<path fill="none" stroke="#63b8ff" d="M2630.5,-54.75C2630.89,-47.8 2631.45,-37.85 2631.95,-29.13"/>
<polygon fill="#63b8ff" stroke="#63b8ff" points="2635.44,-29.27 2632.51,-19.09 2628.45,-28.88 2635.44,-29.27"/>
</a>
</g>
</g>
<!-- Node52 -->
<g id="Node000052" class="node">
<title>Node52</title>
<g id="a_Node000052"><a xlink:href="RefCount_8h.html" target="_top" xlink:title=" ">
<polygon fill="#fff0f0" stroke="red" points="3262.5,-74 3165.5,-74 3165.5,-55 3262.5,-55 3262.5,-74"/>
<text text-anchor="middle" x="3214" y="-62" font-family="Helvetica,sans-Serif" font-size="10.00">base/RefCount.h</text>
</a>
</g>
</g>
<!-- Node51&#45;&gt;Node52 -->
<g id="edge32_Node000051_Node000052" class="edge">
<title>Node51&#45;&gt;Node52</title>
<g id="a_edge32_Node000051_Node000052"><a xlink:title=" ">
<path fill="none" stroke="#63b8ff" d="M3106.57,-109.98C3127.43,-101.34 3159.97,-87.87 3183.77,-78.02"/>
<polygon fill="#63b8ff" stroke="#63b8ff" points="3185.16,-81.23 3193.06,-74.17 3182.48,-74.76 3185.16,-81.23"/>
</a>
</g>
</g>
<!-- Node52&#45;&gt;Node48 -->
<g id="edge33_Node000052_Node000048" class="edge">
<title>Node52&#45;&gt;Node48</title>
<g id="a_edge33_Node000052_Node000048"><a xlink:title=" ">
<path fill="none" stroke="#63b8ff" d="M3184.76,-54.98C3153.94,-46.01 3105.22,-31.82 3071.11,-21.89"/>
<polygon fill="#63b8ff" stroke="#63b8ff" points="3072.05,-18.52 3061.47,-19.08 3070.09,-25.24 3072.05,-18.52"/>
</a>
</g>
</g>
<!-- Node55&#45;&gt;Node51 -->
<g id="edge38_Node000055_Node000051" class="edge">
<title>Node55&#45;&gt;Node51</title>
<g id="a_edge38_Node000055_Node000051"><a xlink:title=" ">
<path fill="none" stroke="#63b8ff" d="M3122.73,-164.75C3116.46,-157.18 3107.21,-146.05 3099.57,-136.84"/>
<polygon fill="#63b8ff" stroke="#63b8ff" points="3102.21,-134.55 3093.13,-129.09 3096.83,-139.02 3102.21,-134.55"/>
</a>
</g>
</g>
<!-- Node56 -->
<g id="Node000056" class="node">
<title>Node56</title>
<g id="a_Node000056"><a xlink:href="cbdata_8h.html" target="_top" xlink:title=" ">
<polygon fill="white" stroke="#666666" points="3341.5,-129 3282.5,-129 3282.5,-110 3341.5,-110 3341.5,-129"/>
<text text-anchor="middle" x="3312" y="-117" font-family="Helvetica,sans-Serif" font-size="10.00">cbdata.h</text>
</a>
</g>
</g>
<!-- Node55&#45;&gt;Node56 -->
<g id="edge35_Node000055_Node000056" class="edge">
<title>Node55&#45;&gt;Node56</title>
<g id="a_edge35_Node000055_Node000056"><a xlink:title=" ">
<path fill="none" stroke="#63b8ff" d="M3159.24,-164.98C3190.06,-156.01 3238.78,-141.82 3272.89,-131.89"/>
<polygon fill="#63b8ff" stroke="#63b8ff" points="3273.91,-135.24 3282.53,-129.08 3271.95,-128.52 3273.91,-135.24"/>
</a>
</g>
</g>
<!-- Node57 -->
<g id="Node000057" class="node">
<title>Node57</title>
<g id="a_Node000057"><a xlink:href="DiskFile_8h.html" target="_top" xlink:title=" ">
<polygon fill="#fff0f0" stroke="red" points="3264,-129 3164,-129 3164,-110 3264,-110 3264,-129"/>
<text text-anchor="middle" x="3214" y="-117" font-family="Helvetica,sans-Serif" font-size="10.00">DiskIO/DiskFile.h</text>
</a>
</g>
</g>
<!-- Node55&#45;&gt;Node57 -->
<g id="edge36_Node000055_Node000057" class="edge">
<title>Node55&#45;&gt;Node57</title>
<g id="a_edge36_Node000055_Node000057"><a xlink:title=" ">
<path fill="none" stroke="#63b8ff" d="M3143.5,-164.98C3156.4,-156.84 3176.1,-144.41 3191.4,-134.76"/>
<polygon fill="#63b8ff" stroke="#63b8ff" points="3193.67,-137.47 3200.26,-129.17 3189.93,-131.55 3193.67,-137.47"/>
</a>
</g>
</g>
<!-- Node57&#45;&gt;Node52 -->
<g id="edge37_Node000057_Node000052" class="edge">
<title>Node57&#45;&gt;Node52</title>
<g id="a_edge37_Node000057_Node000052"><a xlink:title=" ">
<path fill="none" stroke="#63b8ff" d="M3214,-109.75C3214,-102.8 3214,-92.85 3214,-84.13"/>
<polygon fill="#63b8ff" stroke="#63b8ff" points="3217.5,-84.09 3214,-74.09 3210.5,-84.09 3217.5,-84.09"/>
</a>
</g>
</g>
<!-- Node60&#45;&gt;Node52 -->
<g id="edge40_Node000060_Node000052" class="edge">
<title>Node60&#45;&gt;Node52</title>
<g id="a_edge40_Node000060_Node000052"><a xlink:title=" ">
<path fill="none" stroke="#63b8ff" d="M3315.51,-164.84C3335.09,-152.77 3364.58,-130.11 3350,-110 3332.34,-85.64 3300.94,-74.37 3272.77,-69.25"/>
<polygon fill="#63b8ff" stroke="#63b8ff" points="3272.99,-65.74 3262.56,-67.64 3271.89,-72.66 3272.99,-65.74"/>
</a>
</g>
</g>
<!-- Node60&#45;&gt;Node56 -->
<g id="edge41_Node000060_Node000056" class="edge">
<title>Node60&#45;&gt;Node56</title>
<g id="a_edge41_Node000060_Node000056"><a xlink:title=" ">
<path fill="none" stroke="#63b8ff" d="M3301.98,-164.75C3303.57,-157.72 3305.86,-147.62 3307.85,-138.84"/>
<polygon fill="#63b8ff" stroke="#63b8ff" points="3311.26,-139.62 3310.06,-129.09 3304.43,-138.07 3311.26,-139.62"/>
</a>
</g>
</g>
<!-- Node61&#45;&gt;Node52 -->
<g id="edge43_Node000061_Node000052" class="edge">
<title>Node61&#45;&gt;Node52</title>
<g id="a_edge43_Node000061_Node000052"><a xlink:title=" ">
<path fill="none" stroke="#63b8ff" d="M3460.91,-164.9C3482.7,-152.72 3515.88,-129.72 3499,-110 3470.5,-76.71 3347.76,-68.14 3272.96,-66.05"/>
<polygon fill="#63b8ff" stroke="#63b8ff" points="3272.82,-62.54 3262.74,-65.79 3272.65,-69.54 3272.82,-62.54"/>
</a>
</g>
</g>
<!-- Node61&#45;&gt;Node56 -->
<g id="edge44_Node000061_Node000056" class="edge">
<title>Node61&#45;&gt;Node56</title>
<g id="a_edge44_Node000061_Node000056"><a xlink:title=" ">
<path fill="none" stroke="#63b8ff" d="M3422.79,-164.98C3401.27,-156.34 3367.72,-142.87 3343.17,-133.02"/>
<polygon fill="#63b8ff" stroke="#63b8ff" points="3344.18,-129.65 3333.59,-129.17 3341.57,-136.14 3344.18,-129.65"/>
</a>
</g>
</g>
<!-- Node62 -->
<g id="Node000062" class="node">
<title>Node62</title>
<g id="a_Node000062"><a xlink:title=" ">
<polygon fill="#e0e0e0" stroke="#999999" points="3490,-129 3398,-129 3398,-110 3490,-110 3490,-129"/>
<text text-anchor="middle" x="3444" y="-117" font-family="Helvetica,sans-Serif" font-size="10.00">mem/forward.h</text>
</a>
</g>
</g>
<!-- Node61&#45;&gt;Node62 -->
<g id="edge45_Node000061_Node000062" class="edge">
<title>Node61&#45;&gt;Node62</title>
<g id="a_edge45_Node000061_Node000062"><a xlink:title=" ">
<path fill="none" stroke="#63b8ff" d="M3444,-164.75C3444,-157.8 3444,-147.85 3444,-139.13"/>
<polygon fill="#63b8ff" stroke="#63b8ff" points="3447.5,-139.09 3444,-129.09 3440.5,-139.09 3447.5,-139.09"/>
</a>
</g>
</g>
<!-- Node64 -->
<g id="Node000064" class="node">
<title>Node64</title>
<g id="a_Node000064"><a xlink:href="mem_2forward_8h.html" target="_top" xlink:title=" ">
<polygon fill="#fff0f0" stroke="red" points="2787,-74 2695,-74 2695,-55 2787,-55 2787,-74"/>
<text text-anchor="middle" x="2741" y="-62" font-family="Helvetica,sans-Serif" font-size="10.00">mem/forward.h</text>
</a>
</g>
</g>
<!-- Node63&#45;&gt;Node64 -->
<g id="edge47_Node000063_Node000064" class="edge">
<title>Node63&#45;&gt;Node64</title>
<g id="a_edge47_Node000063_Node000064"><a xlink:title=" ">
<path fill="none" stroke="#63b8ff" d="M2492.48,-168.28C2455.09,-159.26 2390.69,-138.91 2416,-110 2454,-66.59 2610.42,-81.06 2684.49,-73.93"/>
<polygon fill="#63b8ff" stroke="#63b8ff" points="2685.28,-77.36 2694.8,-72.71 2684.46,-70.41 2685.28,-77.36"/>
</a>
</g>
</g>
<!-- Node65 -->
<g id="Node000065" class="node">
<title>Node65</title>
<g id="a_Node000065"><a xlink:href="sbuf_2forward_8h.html" target="_top" xlink:title=" ">
<polygon fill="#fff0f0" stroke="red" points="2512.5,-129 2425.5,-129 2425.5,-110 2512.5,-110 2512.5,-129"/>
<text text-anchor="middle" x="2469" y="-117" font-family="Helvetica,sans-Serif" font-size="10.00">sbuf/forward.h</text>
</a>
</g>
</g>
<!-- Node63&#45;&gt;Node65 -->
<g id="edge49_Node000063_Node000065" class="edge">
<title>Node63&#45;&gt;Node65</title>
<g id="a_edge49_Node000063_Node000065"><a xlink:title=" ">
<path fill="none" stroke="#63b8ff" d="M2509.07,-164.75C2502.15,-157.11 2491.93,-145.82 2483.55,-136.56"/>
<polygon fill="#63b8ff" stroke="#63b8ff" points="2486.09,-134.15 2476.78,-129.09 2480.9,-138.85 2486.09,-134.15"/>
</a>
</g>
</g>
<!-- Node68 -->
<g id="Node000068" class="node">
<title>Node68</title>
<g id="a_Node000068"><a xlink:href="typedefs_8h.html" target="_top" xlink:title=" ">
<polygon fill="#fff0f0" stroke="red" points="2599,-129 2531,-129 2531,-110 2599,-110 2599,-129"/>
<text text-anchor="middle" x="2565" y="-117" font-family="Helvetica,sans-Serif" font-size="10.00">typedefs.h</text>
</a>
</g>
</g>
<!-- Node63&#45;&gt;Node68 -->
<g id="edge50_Node000063_Node000068" class="edge">
<title>Node63&#45;&gt;Node68</title>
<g id="a_edge50_Node000063_Node000068"><a xlink:title=" ">
<path fill="none" stroke="#63b8ff" d="M2524.93,-164.75C2531.85,-157.11 2542.07,-145.82 2550.45,-136.56"/>
<polygon fill="#63b8ff" stroke="#63b8ff" points="2553.1,-138.85 2557.22,-129.09 2547.91,-134.15 2553.1,-138.85"/>
</a>
</g>
</g>
<!-- Node64&#45;&gt;Node47 -->
<g id="edge48_Node000064_Node000047" class="edge">
<title>Node64&#45;&gt;Node47</title>
<g id="a_edge48_Node000064_Node000047"><a xlink:title=" ">
<path fill="none" stroke="#63b8ff" d="M2741,-54.75C2741,-47.8 2741,-37.85 2741,-29.13"/>
<polygon fill="#63b8ff" stroke="#63b8ff" points="2744.5,-29.09 2741,-19.09 2737.5,-29.09 2744.5,-29.09"/>
</a>
</g>
</g>
<!-- Node73 -->
<g id="Node000073" class="node">
<title>Node73</title>
<g id="a_Node000073"><a xlink:href="CacheDigest_8h.html" target="_top" xlink:title=" ">
<polygon fill="#fff0f0" stroke="red" points="2784.5,-129 2697.5,-129 2697.5,-110 2784.5,-110 2784.5,-129"/>
<text text-anchor="middle" x="2741" y="-117" font-family="Helvetica,sans-Serif" font-size="10.00">CacheDigest.h</text>
</a>
</g>
</g>
<!-- Node72&#45;&gt;Node73 -->
<g id="edge52_Node000072_Node000073" class="edge">
<title>Node72&#45;&gt;Node73</title>
<g id="a_edge52_Node000072_Node000073"><a xlink:title=" ">
<path fill="none" stroke="#63b8ff" d="M2849.27,-164.98C2828.24,-156.34 2795.45,-142.87 2771.46,-133.02"/>
<polygon fill="#63b8ff" stroke="#63b8ff" points="2772.68,-129.73 2762.1,-129.17 2770.02,-136.21 2772.68,-129.73"/>
</a>
</g>
</g>
<!-- Node80 -->
<g id="Node000080" class="node">
<title>Node80</title>
<g id="a_Node000080"><a xlink:href="defines_8h.html" target="_top" xlink:title=" ">
<polygon fill="white" stroke="#666666" points="2863.5,-129 2802.5,-129 2802.5,-110 2863.5,-110 2863.5,-129"/>
<text text-anchor="middle" x="2833" y="-117" font-family="Helvetica,sans-Serif" font-size="10.00">defines.h</text>
</a>
</g>
</g>
<!-- Node72&#45;&gt;Node80 -->
<g id="edge54_Node000072_Node000080" class="edge">
<title>Node72&#45;&gt;Node80</title>
<g id="a_edge54_Node000072_Node000080"><a xlink:title=" ">
<path fill="none" stroke="#63b8ff" d="M2863.89,-164.75C2858.72,-157.34 2851.15,-146.5 2844.81,-137.41"/>
<polygon fill="#63b8ff" stroke="#63b8ff" points="2847.59,-135.29 2839,-129.09 2841.85,-139.29 2847.59,-135.29"/>
</a>
</g>
</g>
<!-- Node75 -->
<g id="Node000075" class="node">
<title>Node75</title>
<g id="a_Node000075"><a xlink:href="hash_8h.html" target="_top" xlink:title=" ">
<polygon fill="white" stroke="#666666" points="2930.5,-129 2881.5,-129 2881.5,-110 2930.5,-110 2930.5,-129"/>
<text text-anchor="middle" x="2906" y="-117" font-family="Helvetica,sans-Serif" font-size="10.00">hash.h</text>
</a>
</g>
</g>
<!-- Node72&#45;&gt;Node75 -->
<g id="edge55_Node000072_Node000075" class="edge">
<title>Node72&#45;&gt;Node75</title>
<g id="a_edge55_Node000072_Node000075"><a xlink:title=" ">
<path fill="none" stroke="#63b8ff" d="M2875.94,-164.75C2880.98,-157.34 2888.34,-146.5 2894.51,-137.41"/>
<polygon fill="#63b8ff" stroke="#63b8ff" points="2897.44,-139.33 2900.17,-129.09 2891.65,-135.39 2897.44,-139.33"/>
</a>
</g>
</g>
<!-- Node81 -->
<g id="Node000081" class="node">
<title>Node81</title>
<g id="a_Node000081"><a xlink:href="IoStats_8h.html" target="_top" xlink:title=" ">
<polygon fill="white" stroke="#666666" points="3007.5,-129 2948.5,-129 2948.5,-110 3007.5,-110 3007.5,-129"/>
<text text-anchor="middle" x="2978" y="-117" font-family="Helvetica,sans-Serif" font-size="10.00">IoStats.h</text>
</a>
</g>
</g>
<!-- Node72&#45;&gt;Node81 -->
<g id="edge56_Node000072_Node000081" class="edge">
<title>Node72&#45;&gt;Node81</title>
<g id="a_edge56_Node000072_Node000081"><a xlink:title=" ">
<path fill="none" stroke="#63b8ff" d="M2887.35,-164.98C2904.57,-156.54 2931.2,-143.47 2951.15,-133.68"/>
<polygon fill="#63b8ff" stroke="#63b8ff" points="2952.9,-136.72 2960.33,-129.17 2949.81,-130.43 2952.9,-136.72"/>
</a>
</g>
</g>
<!-- Node82 -->
<g id="Node000082" class="node">
<title>Node82</title>
<g id="a_Node000082"><a xlink:href="rfc2181_8h.html" target="_top" xlink:title=" ">
<polygon fill="white" stroke="#666666" points="2679,-129 2617,-129 2617,-110 2679,-110 2679,-129"/>
<text text-anchor="middle" x="2648" y="-117" font-family="Helvetica,sans-Serif" font-size="10.00">rfc2181.h</text>
</a>
</g>
</g>
<!-- Node72&#45;&gt;Node82 -->
<g id="edge57_Node000072_Node000082" class="edge">
<title>Node72&#45;&gt;Node82</title>
<g id="a_edge57_Node000072_Node000082"><a xlink:title=" ">
<path fill="none" stroke="#63b8ff" d="M2839.13,-166.13C2800.09,-156.81 2732.72,-140.73 2689.28,-130.36"/>
<polygon fill="#63b8ff" stroke="#63b8ff" points="2689.86,-126.9 2679.32,-127.98 2688.24,-133.7 2689.86,-126.9"/>
</a>
</g>
</g>
<!-- Node73&#45;&gt;Node64 -->
<g id="edge53_Node000073_Node000064" class="edge">
<title>Node73&#45;&gt;Node64</title>
<g id="a_edge53_Node000073_Node000064"><a xlink:title=" ">
<path fill="none" stroke="#63b8ff" d="M2741,-109.75C2741,-102.8 2741,-92.85 2741,-84.13"/>
<polygon fill="#63b8ff" stroke="#63b8ff" points="2744.5,-84.09 2741,-74.09 2737.5,-84.09 2744.5,-84.09"/>
</a>
</g>
</g>
</g>
</svg>

<g id="navigator" transform="translate(0 0)" fill="#404254">
  <rect fill="#f2f5e9" fill-opacity="0.5" stroke="#606060" stroke-width=".5" x="0" y="0" width="60" height="60"/>
  <use id="zoomplus" xlink:href="#zoomPlus" x="17" y="9" onmousedown="handleZoom(evt,'in')"/>
  <use id="zoomminus" xlink:href="#zoomMin" x="42" y="9" onmousedown="handleZoom(evt,'out')"/>
  <use id="reset" xlink:href="#resetDef" x="30" y="36" onmousedown="handleReset()"/>
   <use id="arrowup" xlink:href="#arrowUp" x="0" y="0" onmousedown="handlePan(0,-1)"/>
  <use id="arrowright" xlink:href="#arrowRight" x="0" y="0" onmousedown="handlePan(1,0)"/>
  <use id="arrowdown" xlink:href="#arrowDown" x="0" y="0" onmousedown="handlePan(0,1)"/>
  <use id="arrowleft" xlink:href="#arrowLeft" x="0" y="0" onmousedown="handlePan(-1,0)"/>
</g>
<svg viewBox="0 0 15 15" width="100%" height="30px" preserveAspectRatio="xMaxYMin meet">
 <g id="arrow_out" transform="scale(0.3 0.3)">
  <a xlink:href="MmappedFile_8cc__incl_org.svg" target="_base">
   <rect id="button" ry="5" rx="5" y="6" x="6" height="38" width="38"
        fill="#f2f5e9" fill-opacity="0.5" stroke="#606060" stroke-width="1.0"/>
   <path id="arrow"
     d="M 11.500037,31.436501 C 11.940474,20.09759 22.043105,11.32322 32.158766,21.979434 L 37.068811,17.246167 C 37.068811,17.246167 37.088388,32 37.088388,32 L 22.160133,31.978069 C 22.160133,31.978069 26.997745,27.140456 26.997745,27.140456 C 18.528582,18.264221 13.291696,25.230495 11.500037,31.436501 z"
     style="fill:#404040;"/>
  </a>
 </g>
</svg>

<style type='text/css'>
<![CDATA[
[data-mouse-over-selected='false'] { opacity: 0.7; }
[data-mouse-over-selected='true']  { opacity: 1.0; }
]]>
</style>
<script type="application/ecmascript"><![CDATA[
document.addEventListener('DOMContentLoaded', (event) => {
  highlightEdges();
  highlightAdjacentNodes();
});
]]></script>
</svg>
