<?xml version="1.0" encoding="UTF-8" standalone="no"?>
<!DOCTYPE svg PUBLIC "-//W3C//DTD SVG 1.1//EN"
 "http://www.w3.org/Graphics/SVG/1.1/DTD/svg11.dtd">
<!-- Generated by graphviz version 2.43.0 (0)
 -->
<!-- Title: squid/src/security/NegotiationHistory.h Pages: 1 -->
<svg width="1183pt" height="104pt"
 viewBox="0.00 0.00 1183.00 104.00" xmlns="http://www.w3.org/2000/svg" xmlns:xlink="http://www.w3.org/1999/xlink">
<g id="graph0" class="graph" transform="scale(1 1) rotate(0) translate(4 100)">
<title>squid/src/security/NegotiationHistory.h</title>
<!-- Node1 -->
<g id="Node000001" class="node">
<title>Node1</title>
<g id="a_Node000001"><a xlink:title=" ">
<polygon fill="#999999" stroke="#666666" points="691,-96 572,-96 572,-66 691,-66 691,-96"/>
<text text-anchor="start" x="580" y="-84" font-family="Helvetica,sans-Serif" font-size="10.00">squid/src/security</text>
<text text-anchor="middle" x="631.5" y="-73" font-family="Helvetica,sans-Serif" font-size="10.00">/NegotiationHistory.h</text>
</a>
</g>
</g>
<!-- Node2 -->
<g id="Node000002" class="node">
<title>Node2</title>
<g id="a_Node000002"><a xlink:href="client__side_8cc.html" target="_top" xlink:title=" ">
<polygon fill="white" stroke="#666666" points="129,-24.5 0,-24.5 0,-5.5 129,-5.5 129,-24.5"/>
<text text-anchor="middle" x="64.5" y="-12.5" font-family="Helvetica,sans-Serif" font-size="10.00">squid/src/client_side.cc</text>
</a>
</g>
</g>
<!-- Node1&#45;&gt;Node2 -->
<g id="edge1_Node000001_Node000002" class="edge">
<title>Node1&#45;&gt;Node2</title>
<g id="a_edge1_Node000001_Node000002"><a xlink:title=" ">
<path fill="none" stroke="#63b8ff" d="M561.83,-74.91C465.96,-67.45 288.1,-52.02 137.5,-30 127.16,-28.49 116.05,-26.53 105.7,-24.56"/>
<polygon fill="#63b8ff" stroke="#63b8ff" points="561.74,-78.41 571.98,-75.69 562.28,-71.43 561.74,-78.41"/>
</a>
</g>
</g>
<!-- Node3 -->
<g id="Node000003" class="node">
<title>Node3</title>
<g id="a_Node000003"><a xlink:href="Connection_8cc.html" target="_top" xlink:title=" ">
<polygon fill="white" stroke="#666666" points="312,-24.5 147,-24.5 147,-5.5 312,-5.5 312,-24.5"/>
<text text-anchor="middle" x="229.5" y="-12.5" font-family="Helvetica,sans-Serif" font-size="10.00">squid/src/comm/Connection.cc</text>
</a>
</g>
</g>
<!-- Node1&#45;&gt;Node3 -->
<g id="edge2_Node000001_Node000003" class="edge">
<title>Node1&#45;&gt;Node3</title>
<g id="a_edge2_Node000001_Node000003"><a xlink:title=" ">
<path fill="none" stroke="#63b8ff" d="M561.86,-68.91C482.65,-56.3 355,-35.98 283.14,-24.54"/>
<polygon fill="#63b8ff" stroke="#63b8ff" points="561.32,-72.37 571.75,-70.49 562.43,-65.46 561.32,-72.37"/>
</a>
</g>
</g>
<!-- Node4 -->
<g id="Node000004" class="node">
<title>Node4</title>
<g id="a_Node000004"><a xlink:href="Format_8cc.html" target="_top" xlink:title=" ">
<polygon fill="white" stroke="#666666" points="477,-24.5 330,-24.5 330,-5.5 477,-5.5 477,-24.5"/>
<text text-anchor="middle" x="403.5" y="-12.5" font-family="Helvetica,sans-Serif" font-size="10.00">squid/src/format/Format.cc</text>
</a>
</g>
</g>
<!-- Node1&#45;&gt;Node4 -->
<g id="edge3_Node000001_Node000004" class="edge">
<title>Node1&#45;&gt;Node4</title>
<g id="a_edge3_Node000001_Node000004"><a xlink:title=" ">
<path fill="none" stroke="#63b8ff" d="M571.68,-63.21C527.39,-50.78 468.89,-34.35 433.84,-24.52"/>
<polygon fill="#63b8ff" stroke="#63b8ff" points="570.89,-66.62 581.46,-65.95 572.78,-59.88 570.89,-66.62"/>
</a>
</g>
</g>
<!-- Node5 -->
<g id="Node000005" class="node">
<title>Node5</title>
<g id="a_Node000005"><a xlink:href="BlindPeerConnector_8cc.html" target="_top" xlink:title=" ">
<polygon fill="white" stroke="#666666" points="623.5,-30 495.5,-30 495.5,0 623.5,0 623.5,-30"/>
<text text-anchor="start" x="503.5" y="-18" font-family="Helvetica,sans-Serif" font-size="10.00">squid/src/security</text>
<text text-anchor="middle" x="559.5" y="-7" font-family="Helvetica,sans-Serif" font-size="10.00">/BlindPeerConnector.cc</text>
</a>
</g>
</g>
<!-- Node1&#45;&gt;Node5 -->
<g id="edge4_Node000001_Node000005" class="edge">
<title>Node1&#45;&gt;Node5</title>
<g id="a_edge4_Node000001_Node000005"><a xlink:title=" ">
<path fill="none" stroke="#63b8ff" d="M607.79,-58.92C597.17,-49.49 584.93,-38.61 575.43,-30.16"/>
<polygon fill="#63b8ff" stroke="#63b8ff" points="605.72,-61.77 615.52,-65.8 610.37,-56.54 605.72,-61.77"/>
</a>
</g>
</g>
<!-- Node6 -->
<g id="Node000006" class="node">
<title>Node6</title>
<g id="a_Node000006"><a xlink:href="NegotiationHistory_8cc.html" target="_top" xlink:title=" ">
<polygon fill="white" stroke="#666666" points="765.5,-30 641.5,-30 641.5,0 765.5,0 765.5,-30"/>
<text text-anchor="start" x="649.5" y="-18" font-family="Helvetica,sans-Serif" font-size="10.00">squid/src/security</text>
<text text-anchor="middle" x="703.5" y="-7" font-family="Helvetica,sans-Serif" font-size="10.00">/NegotiationHistory.cc</text>
</a>
</g>
</g>
<!-- Node1&#45;&gt;Node6 -->
<g id="edge5_Node000001_Node000006" class="edge">
<title>Node1&#45;&gt;Node6</title>
<g id="a_edge5_Node000001_Node000006"><a xlink:title=" ">
<path fill="none" stroke="#63b8ff" d="M655.21,-58.92C665.83,-49.49 678.07,-38.61 687.57,-30.16"/>
<polygon fill="#63b8ff" stroke="#63b8ff" points="652.63,-56.54 647.48,-65.8 657.28,-61.77 652.63,-56.54"/>
</a>
</g>
</g>
<!-- Node7 -->
<g id="Node000007" class="node">
<title>Node7</title>
<g id="a_Node000007"><a xlink:href="PeerConnector_8cc.html" target="_top" xlink:title=" ">
<polygon fill="white" stroke="#666666" points="887.5,-30 783.5,-30 783.5,0 887.5,0 887.5,-30"/>
<text text-anchor="start" x="791.5" y="-18" font-family="Helvetica,sans-Serif" font-size="10.00">squid/src/security</text>
<text text-anchor="middle" x="835.5" y="-7" font-family="Helvetica,sans-Serif" font-size="10.00">/PeerConnector.cc</text>
</a>
</g>
</g>
<!-- Node1&#45;&gt;Node7 -->
<g id="edge6_Node000001_Node000007" class="edge">
<title>Node1&#45;&gt;Node7</title>
<g id="a_edge6_Node000001_Node000007"><a xlink:title=" ">
<path fill="none" stroke="#63b8ff" d="M686.15,-62.86C718.9,-52.58 760.03,-39.68 790.84,-30.01"/>
<polygon fill="#63b8ff" stroke="#63b8ff" points="684.76,-59.62 676.27,-65.95 686.86,-66.3 684.76,-59.62"/>
</a>
</g>
</g>
<!-- Node8 -->
<g id="Node000008" class="node">
<title>Node8</title>
<g id="a_Node000008"><a xlink:href="PeekingPeerConnector_8cc.html" target="_top" xlink:title=" ">
<polygon fill="white" stroke="#666666" points="1045.5,-30 905.5,-30 905.5,0 1045.5,0 1045.5,-30"/>
<text text-anchor="start" x="913.5" y="-18" font-family="Helvetica,sans-Serif" font-size="10.00">squid/src/ssl/PeekingPeer</text>
<text text-anchor="middle" x="975.5" y="-7" font-family="Helvetica,sans-Serif" font-size="10.00">Connector.cc</text>
</a>
</g>
</g>
<!-- Node1&#45;&gt;Node8 -->
<g id="edge7_Node000001_Node000008" class="edge">
<title>Node1&#45;&gt;Node8</title>
<g id="a_edge7_Node000001_Node000008"><a xlink:title=" ">
<path fill="none" stroke="#63b8ff" d="M701.09,-67.05C760.59,-55.98 845.8,-40.13 905.44,-29.03"/>
<polygon fill="#63b8ff" stroke="#63b8ff" points="700.22,-63.66 691.03,-68.93 701.5,-70.54 700.22,-63.66"/>
</a>
</g>
</g>
<!-- Node9 -->
<g id="Node000009" class="node">
<title>Node9</title>
<g id="a_Node000009"><a xlink:href="stub__libsecurity_8cc.html" target="_top" xlink:title=" ">
<polygon fill="white" stroke="#666666" points="1175,-30 1064,-30 1064,0 1175,0 1175,-30"/>
<text text-anchor="start" x="1072" y="-18" font-family="Helvetica,sans-Serif" font-size="10.00">squid/src/tests/stub</text>
<text text-anchor="middle" x="1119.5" y="-7" font-family="Helvetica,sans-Serif" font-size="10.00">_libsecurity.cc</text>
</a>
</g>
</g>
<!-- Node1&#45;&gt;Node9 -->
<g id="edge8_Node000001_Node000009" class="edge">
<title>Node1&#45;&gt;Node9</title>
<g id="a_edge8_Node000001_Node000009"><a xlink:title=" ">
<path fill="none" stroke="#63b8ff" d="M701.5,-73.77C785.62,-65.81 930.91,-50.57 1054.5,-30 1057.57,-29.49 1060.72,-28.93 1063.9,-28.34"/>
<polygon fill="#63b8ff" stroke="#63b8ff" points="700.92,-70.31 691.3,-74.73 701.58,-77.28 700.92,-70.31"/>
</a>
</g>
</g>
</g>
</svg>
