<?xml version="1.0" encoding="UTF-8" standalone="no"?>
<!DOCTYPE svg PUBLIC "-//W3C//DTD SVG 1.1//EN"
 "http://www.w3.org/Graphics/SVG/1.1/DTD/svg11.dtd">
<!-- Generated by graphviz version 2.43.0 (0)
 -->
<!-- Title: squid/src/ipc/mem/PageStack.cc Pages: 1 -->
<svg width="3674pt" height="247pt"
 viewBox="0.00 0.00 3673.50 247.00" xmlns="http://www.w3.org/2000/svg" xmlns:xlink="http://www.w3.org/1999/xlink">
<g id="graph0" class="graph" transform="scale(1 1) rotate(0) translate(4 243)">
<title>squid/src/ipc/mem/PageStack.cc</title>
<!-- Node1 -->
<g id="Node000001" class="node">
<title>Node1</title>
<g id="a_Node000001"><a xlink:title=" ">
<polygon fill="#999999" stroke="#666666" points="3505,-239 3332,-239 3332,-220 3505,-220 3505,-239"/>
<text text-anchor="middle" x="3418.5" y="-227" font-family="Helvetica,sans-Serif" font-size="10.00">squid/src/ipc/mem/PageStack.cc</text>
</a>
</g>
</g>
<!-- Node2 -->
<g id="Node000002" class="node">
<title>Node2</title>
<g id="a_Node000002"><a xlink:href="squid_8h.html" target="_top" xlink:title=" ">
<polygon fill="white" stroke="#666666" points="1653.5,-184 1601.5,-184 1601.5,-165 1653.5,-165 1653.5,-184"/>
<text text-anchor="middle" x="1627.5" y="-172" font-family="Helvetica,sans-Serif" font-size="10.00">squid.h</text>
</a>
</g>
</g>
<!-- Node1&#45;&gt;Node2 -->
<g id="edge1_Node000001_Node000002" class="edge">
<title>Node1&#45;&gt;Node2</title>
<g id="a_edge1_Node000001_Node000002"><a xlink:title=" ">
<path fill="none" stroke="#63b8ff" d="M3331.81,-225.93C3008.62,-216.37 1881.23,-183.01 1663.91,-176.58"/>
<polygon fill="#63b8ff" stroke="#63b8ff" points="1663.79,-173.07 1653.69,-176.27 1663.58,-180.07 1663.79,-173.07"/>
</a>
</g>
</g>
<!-- Node44 -->
<g id="Node000044" class="node">
<title>Node44</title>
<g id="a_Node000044"><a xlink:href="debug_2Stream_8h.html" target="_top" xlink:title=" ">
<polygon fill="white" stroke="#666666" points="3081.5,-184 2987.5,-184 2987.5,-165 3081.5,-165 3081.5,-184"/>
<text text-anchor="middle" x="3034.5" y="-172" font-family="Helvetica,sans-Serif" font-size="10.00">debug/Stream.h</text>
</a>
</g>
</g>
<!-- Node1&#45;&gt;Node44 -->
<g id="edge33_Node000001_Node000044" class="edge">
<title>Node1&#45;&gt;Node44</title>
<g id="a_edge33_Node000001_Node000044"><a xlink:title=" ">
<path fill="none" stroke="#63b8ff" d="M3356.8,-219.98C3283.65,-209.89 3162.73,-193.2 3091.64,-183.39"/>
<polygon fill="#63b8ff" stroke="#63b8ff" points="3091.9,-179.89 3081.52,-181.99 3090.95,-186.82 3091.9,-179.89"/>
</a>
</g>
</g>
<!-- Node51 -->
<g id="Node000051" class="node">
<title>Node51</title>
<g id="a_Node000051"><a xlink:href="Page_8h.html" target="_top" xlink:title=" ">
<polygon fill="white" stroke="#666666" points="3333,-184 3238,-184 3238,-165 3333,-165 3333,-184"/>
<text text-anchor="middle" x="3285.5" y="-172" font-family="Helvetica,sans-Serif" font-size="10.00">ipc/mem/Page.h</text>
</a>
</g>
</g>
<!-- Node1&#45;&gt;Node51 -->
<g id="edge40_Node000001_Node000051" class="edge">
<title>Node1&#45;&gt;Node51</title>
<g id="a_edge40_Node000001_Node000051"><a xlink:title=" ">
<path fill="none" stroke="#63b8ff" d="M3397.13,-219.98C3375.35,-211.3 3341.34,-197.75 3316.58,-187.88"/>
<polygon fill="#63b8ff" stroke="#63b8ff" points="3317.84,-184.62 3307.26,-184.17 3315.25,-191.12 3317.84,-184.62"/>
</a>
</g>
</g>
<!-- Node53 -->
<g id="Node000053" class="node">
<title>Node53</title>
<g id="a_Node000053"><a xlink:href="PageStack_8h.html" target="_top" xlink:title=" ">
<polygon fill="white" stroke="#666666" points="3479.5,-184 3357.5,-184 3357.5,-165 3479.5,-165 3479.5,-184"/>
<text text-anchor="middle" x="3418.5" y="-172" font-family="Helvetica,sans-Serif" font-size="10.00">ipc/mem/PageStack.h</text>
</a>
</g>
</g>
<!-- Node1&#45;&gt;Node53 -->
<g id="edge43_Node000001_Node000053" class="edge">
<title>Node1&#45;&gt;Node53</title>
<g id="a_edge43_Node000001_Node000053"><a xlink:title=" ">
<path fill="none" stroke="#63b8ff" d="M3418.5,-219.75C3418.5,-212.8 3418.5,-202.85 3418.5,-194.13"/>
<polygon fill="#63b8ff" stroke="#63b8ff" points="3422,-194.09 3418.5,-184.09 3415,-194.09 3422,-194.09"/>
</a>
</g>
</g>
<!-- Node58 -->
<g id="Node000058" class="node">
<title>Node58</title>
<g id="a_Node000058"><a xlink:title=" ">
<polygon fill="#e0e0e0" stroke="#999999" points="3623.5,-129 3579.5,-129 3579.5,-110 3623.5,-110 3623.5,-129"/>
<text text-anchor="middle" x="3601.5" y="-117" font-family="Helvetica,sans-Serif" font-size="10.00">limits</text>
</a>
</g>
</g>
<!-- Node1&#45;&gt;Node58 -->
<g id="edge52_Node000001_Node000058" class="edge">
<title>Node1&#45;&gt;Node58</title>
<g id="a_edge52_Node000001_Node000058"><a xlink:title=" ">
<path fill="none" stroke="#63b8ff" d="M3433.17,-219.84C3464.83,-201.16 3539.83,-156.9 3578.12,-134.3"/>
<polygon fill="#63b8ff" stroke="#63b8ff" points="3580.18,-137.14 3587.02,-129.05 3576.63,-131.12 3580.18,-137.14"/>
</a>
</g>
</g>
<!-- Node59 -->
<g id="Node000059" class="node">
<title>Node59</title>
<g id="a_Node000059"><a xlink:title=" ">
<polygon fill="#e0e0e0" stroke="#999999" points="3583,-184 3536,-184 3536,-165 3583,-165 3583,-184"/>
<text text-anchor="middle" x="3559.5" y="-172" font-family="Helvetica,sans-Serif" font-size="10.00">cmath</text>
</a>
</g>
</g>
<!-- Node1&#45;&gt;Node59 -->
<g id="edge50_Node000001_Node000059" class="edge">
<title>Node1&#45;&gt;Node59</title>
<g id="a_edge50_Node000001_Node000059"><a xlink:title=" ">
<path fill="none" stroke="#63b8ff" d="M3441.15,-219.98C3464.35,-211.27 3500.62,-197.63 3526.9,-187.75"/>
<polygon fill="#63b8ff" stroke="#63b8ff" points="3528.3,-190.97 3536.43,-184.17 3525.84,-184.41 3528.3,-190.97"/>
</a>
</g>
</g>
<!-- Node60 -->
<g id="Node000060" class="node">
<title>Node60</title>
<g id="a_Node000060"><a xlink:title=" ">
<polygon fill="#e0e0e0" stroke="#999999" points="3665.5,-184 3601.5,-184 3601.5,-165 3665.5,-165 3665.5,-184"/>
<text text-anchor="middle" x="3633.5" y="-172" font-family="Helvetica,sans-Serif" font-size="10.00">algorithm</text>
</a>
</g>
</g>
<!-- Node1&#45;&gt;Node60 -->
<g id="edge51_Node000001_Node000060" class="edge">
<title>Node1&#45;&gt;Node60</title>
<g id="a_edge51_Node000001_Node000060"><a xlink:title=" ">
<path fill="none" stroke="#63b8ff" d="M3453.04,-219.98C3490.8,-210.68 3551.28,-195.77 3591.69,-185.81"/>
<polygon fill="#63b8ff" stroke="#63b8ff" points="3592.63,-189.18 3601.5,-183.39 3590.95,-182.38 3592.63,-189.18"/>
</a>
</g>
</g>
<!-- Node3 -->
<g id="Node000003" class="node">
<title>Node3</title>
<g id="a_Node000003"><a xlink:href="autoconf_8h.html" target="_top" xlink:title=" ">
<polygon fill="white" stroke="#666666" points="1528.5,-129 1460.5,-129 1460.5,-110 1528.5,-110 1528.5,-129"/>
<text text-anchor="middle" x="1494.5" y="-117" font-family="Helvetica,sans-Serif" font-size="10.00">autoconf.h</text>
</a>
</g>
</g>
<!-- Node2&#45;&gt;Node3 -->
<g id="edge2_Node000002_Node000003" class="edge">
<title>Node2&#45;&gt;Node3</title>
<g id="a_edge2_Node000002_Node000003"><a xlink:title=" ">
<path fill="none" stroke="#63b8ff" d="M1606.13,-164.98C1584.35,-156.3 1550.34,-142.75 1525.58,-132.88"/>
<polygon fill="#63b8ff" stroke="#63b8ff" points="1526.84,-129.62 1516.26,-129.17 1524.25,-136.12 1526.84,-129.62"/>
</a>
</g>
</g>
<!-- Node4 -->
<g id="Node000004" class="node">
<title>Node4</title>
<g id="a_Node000004"><a xlink:href="version_8h.html" target="_top" xlink:title=" ">
<polygon fill="white" stroke="#666666" points="1608.5,-129 1546.5,-129 1546.5,-110 1608.5,-110 1608.5,-129"/>
<text text-anchor="middle" x="1577.5" y="-117" font-family="Helvetica,sans-Serif" font-size="10.00">version.h</text>
</a>
</g>
</g>
<!-- Node2&#45;&gt;Node4 -->
<g id="edge3_Node000002_Node000004" class="edge">
<title>Node2&#45;&gt;Node4</title>
<g id="a_edge3_Node000002_Node000004"><a xlink:title=" ">
<path fill="none" stroke="#63b8ff" d="M1619.24,-164.75C1612.04,-157.11 1601.39,-145.82 1592.65,-136.56"/>
<polygon fill="#63b8ff" stroke="#63b8ff" points="1595.01,-133.96 1585.6,-129.09 1589.92,-138.76 1595.01,-133.96"/>
</a>
</g>
</g>
<!-- Node5 -->
<g id="Node000005" class="node">
<title>Node5</title>
<g id="a_Node000005"><a xlink:href="compat_8h.html" target="_top" xlink:title=" ">
<polygon fill="white" stroke="#666666" points="1728.5,-129 1626.5,-129 1626.5,-110 1728.5,-110 1728.5,-129"/>
<text text-anchor="middle" x="1677.5" y="-117" font-family="Helvetica,sans-Serif" font-size="10.00">compat/compat.h</text>
</a>
</g>
</g>
<!-- Node2&#45;&gt;Node5 -->
<g id="edge4_Node000002_Node000005" class="edge">
<title>Node2&#45;&gt;Node5</title>
<g id="a_edge4_Node000002_Node000005"><a xlink:title=" ">
<path fill="none" stroke="#63b8ff" d="M1635.76,-164.75C1642.96,-157.11 1653.61,-145.82 1662.35,-136.56"/>
<polygon fill="#63b8ff" stroke="#63b8ff" points="1665.08,-138.76 1669.4,-129.09 1659.99,-133.96 1665.08,-138.76"/>
</a>
</g>
</g>
<!-- Node6 -->
<g id="Node000006" class="node">
<title>Node6</title>
<g id="a_Node000006"><a xlink:href="osdetect_8h.html" target="_top" xlink:title=" ">
<polygon fill="white" stroke="#666666" points="107,-74 0,-74 0,-55 107,-55 107,-74"/>
<text text-anchor="middle" x="53.5" y="-62" font-family="Helvetica,sans-Serif" font-size="10.00">compat/osdetect.h</text>
</a>
</g>
</g>
<!-- Node5&#45;&gt;Node6 -->
<g id="edge5_Node000005_Node000006" class="edge">
<title>Node5&#45;&gt;Node6</title>
<g id="a_edge5_Node000005_Node000006"><a xlink:title=" ">
<path fill="none" stroke="#63b8ff" d="M1626.48,-110.86C1623.45,-110.53 1620.44,-110.24 1617.5,-110 955.87,-55.39 783.48,-125.96 117.41,-73.95"/>
<polygon fill="#63b8ff" stroke="#63b8ff" points="117.32,-70.43 107.07,-73.14 116.77,-77.41 117.32,-70.43"/>
</a>
</g>
</g>
<!-- Node7 -->
<g id="Node000007" class="node">
<title>Node7</title>
<g id="a_Node000007"><a xlink:href="fdsetsize_8h.html" target="_top" xlink:title=" ">
<polygon fill="white" stroke="#666666" points="235.5,-74 125.5,-74 125.5,-55 235.5,-55 235.5,-74"/>
<text text-anchor="middle" x="180.5" y="-62" font-family="Helvetica,sans-Serif" font-size="10.00">compat/fdsetsize.h</text>
</a>
</g>
</g>
<!-- Node5&#45;&gt;Node7 -->
<g id="edge6_Node000005_Node000007" class="edge">
<title>Node5&#45;&gt;Node7</title>
<g id="a_edge6_Node000005_Node000007"><a xlink:title=" ">
<path fill="none" stroke="#63b8ff" d="M1626.48,-110.87C1623.45,-110.54 1620.44,-110.25 1617.5,-110 1012.61,-59.39 854.79,-121.55 245.98,-74.01"/>
<polygon fill="#63b8ff" stroke="#63b8ff" points="245.86,-70.49 235.62,-73.2 245.31,-77.47 245.86,-70.49"/>
</a>
</g>
</g>
<!-- Node8 -->
<g id="Node000008" class="node">
<title>Node8</title>
<g id="a_Node000008"><a xlink:href="types_8h.html" target="_top" xlink:title=" ">
<polygon fill="white" stroke="#666666" points="345.5,-74 253.5,-74 253.5,-55 345.5,-55 345.5,-74"/>
<text text-anchor="middle" x="299.5" y="-62" font-family="Helvetica,sans-Serif" font-size="10.00">compat/types.h</text>
</a>
</g>
</g>
<!-- Node5&#45;&gt;Node8 -->
<g id="edge7_Node000005_Node000008" class="edge">
<title>Node5&#45;&gt;Node8</title>
<g id="a_edge7_Node000005_Node000008"><a xlink:title=" ">
<path fill="none" stroke="#63b8ff" d="M1626.48,-110.88C1623.45,-110.55 1620.44,-110.25 1617.5,-110 1061.36,-62.83 915.52,-124.23 356.02,-74"/>
<polygon fill="#63b8ff" stroke="#63b8ff" points="355.94,-70.48 345.66,-73.06 355.31,-77.45 355.94,-70.48"/>
</a>
</g>
</g>
<!-- Node10 -->
<g id="Node000010" class="node">
<title>Node10</title>
<g id="a_Node000010"><a xlink:href="aix_8h.html" target="_top" xlink:title=" ">
<polygon fill="white" stroke="#666666" points="459,-74 364,-74 364,-55 459,-55 459,-74"/>
<text text-anchor="middle" x="411.5" y="-62" font-family="Helvetica,sans-Serif" font-size="10.00">compat/os/aix.h</text>
</a>
</g>
</g>
<!-- Node5&#45;&gt;Node10 -->
<g id="edge9_Node000005_Node000010" class="edge">
<title>Node5&#45;&gt;Node10</title>
<g id="a_edge9_Node000005_Node000010"><a xlink:title=" ">
<path fill="none" stroke="#63b8ff" d="M1626.48,-110.89C1623.45,-110.55 1620.43,-110.25 1617.5,-110 1111.83,-66.39 979.11,-119.05 469.24,-73.92"/>
<polygon fill="#63b8ff" stroke="#63b8ff" points="469.31,-70.42 459.04,-73.01 468.68,-77.39 469.31,-70.42"/>
</a>
</g>
</g>
<!-- Node11 -->
<g id="Node000011" class="node">
<title>Node11</title>
<g id="a_Node000011"><a xlink:href="android_8h.html" target="_top" xlink:title=" ">
<polygon fill="white" stroke="#666666" points="593.5,-74 477.5,-74 477.5,-55 593.5,-55 593.5,-74"/>
<text text-anchor="middle" x="535.5" y="-62" font-family="Helvetica,sans-Serif" font-size="10.00">compat/os/android.h</text>
</a>
</g>
</g>
<!-- Node5&#45;&gt;Node11 -->
<g id="edge10_Node000005_Node000011" class="edge">
<title>Node5&#45;&gt;Node11</title>
<g id="a_edge10_Node000005_Node000011"><a xlink:title=" ">
<path fill="none" stroke="#63b8ff" d="M1626.48,-110.9C1623.44,-110.56 1620.43,-110.26 1617.5,-110 1171.15,-70.58 1054.13,-109.86 603.6,-74"/>
<polygon fill="#63b8ff" stroke="#63b8ff" points="603.82,-70.51 593.57,-73.19 603.26,-77.48 603.82,-70.51"/>
</a>
</g>
</g>
<!-- Node12 -->
<g id="Node000012" class="node">
<title>Node12</title>
<g id="a_Node000012"><a xlink:href="dragonfly_8h.html" target="_top" xlink:title=" ">
<polygon fill="white" stroke="#666666" points="735.5,-74 611.5,-74 611.5,-55 735.5,-55 735.5,-74"/>
<text text-anchor="middle" x="673.5" y="-62" font-family="Helvetica,sans-Serif" font-size="10.00">compat/os/dragonfly.h</text>
</a>
</g>
</g>
<!-- Node5&#45;&gt;Node12 -->
<g id="edge11_Node000005_Node000012" class="edge">
<title>Node5&#45;&gt;Node12</title>
<g id="a_edge11_Node000005_Node000012"><a xlink:title=" ">
<path fill="none" stroke="#63b8ff" d="M1626.48,-110.92C1623.44,-110.58 1620.43,-110.27 1617.5,-110 1234.08,-75.02 1133.3,-104.59 745.89,-74.04"/>
<polygon fill="#63b8ff" stroke="#63b8ff" points="746.06,-70.54 735.81,-73.24 745.5,-77.52 746.06,-70.54"/>
</a>
</g>
</g>
<!-- Node13 -->
<g id="Node000013" class="node">
<title>Node13</title>
<g id="a_Node000013"><a xlink:href="freebsd_8h.html" target="_top" xlink:title=" ">
<polygon fill="white" stroke="#666666" points="869.5,-74 753.5,-74 753.5,-55 869.5,-55 869.5,-74"/>
<text text-anchor="middle" x="811.5" y="-62" font-family="Helvetica,sans-Serif" font-size="10.00">compat/os/freebsd.h</text>
</a>
</g>
</g>
<!-- Node5&#45;&gt;Node13 -->
<g id="edge12_Node000005_Node000013" class="edge">
<title>Node5&#45;&gt;Node13</title>
<g id="a_edge12_Node000005_Node000013"><a xlink:title=" ">
<path fill="none" stroke="#63b8ff" d="M1626.47,-110.95C1623.44,-110.6 1620.43,-110.28 1617.5,-110 1293.5,-79.22 1207.83,-102.23 879.85,-74.04"/>
<polygon fill="#63b8ff" stroke="#63b8ff" points="879.84,-70.53 869.58,-73.15 879.23,-77.5 879.84,-70.53"/>
</a>
</g>
</g>
<!-- Node14 -->
<g id="Node000014" class="node">
<title>Node14</title>
<g id="a_Node000014"><a xlink:href="hpux_8h.html" target="_top" xlink:title=" ">
<polygon fill="white" stroke="#666666" points="991.5,-74 887.5,-74 887.5,-55 991.5,-55 991.5,-74"/>
<text text-anchor="middle" x="939.5" y="-62" font-family="Helvetica,sans-Serif" font-size="10.00">compat/os/hpux.h</text>
</a>
</g>
</g>
<!-- Node5&#45;&gt;Node14 -->
<g id="edge13_Node000005_Node000014" class="edge">
<title>Node5&#45;&gt;Node14</title>
<g id="a_edge13_Node000005_Node000014"><a xlink:title=" ">
<path fill="none" stroke="#63b8ff" d="M1626.47,-110.98C1623.44,-110.62 1620.43,-110.29 1617.5,-110 1347.51,-83.05 1275.61,-100.54 1001.95,-74.06"/>
<polygon fill="#63b8ff" stroke="#63b8ff" points="1002,-70.55 991.71,-73.06 1001.32,-77.51 1002,-70.55"/>
</a>
</g>
</g>
<!-- Node15 -->
<g id="Node000015" class="node">
<title>Node15</title>
<g id="a_Node000015"><a xlink:href="linux_8h.html" target="_top" xlink:title=" ">
<polygon fill="white" stroke="#666666" points="1113.5,-74 1009.5,-74 1009.5,-55 1113.5,-55 1113.5,-74"/>
<text text-anchor="middle" x="1061.5" y="-62" font-family="Helvetica,sans-Serif" font-size="10.00">compat/os/linux.h</text>
</a>
</g>
</g>
<!-- Node5&#45;&gt;Node15 -->
<g id="edge14_Node000005_Node000015" class="edge">
<title>Node5&#45;&gt;Node15</title>
<g id="a_edge14_Node000005_Node000015"><a xlink:title=" ">
<path fill="none" stroke="#63b8ff" d="M1626.47,-111.03C1623.44,-110.66 1620.43,-110.31 1617.5,-110 1401.49,-86.87 1343.6,-96.92 1123.96,-74.08"/>
<polygon fill="#63b8ff" stroke="#63b8ff" points="1124.03,-70.57 1113.72,-73.01 1123.3,-77.53 1124.03,-70.57"/>
</a>
</g>
</g>
<!-- Node16 -->
<g id="Node000016" class="node">
<title>Node16</title>
<g id="a_Node000016"><a xlink:href="macosx_8h.html" target="_top" xlink:title=" ">
<polygon fill="white" stroke="#666666" points="1249.5,-74 1131.5,-74 1131.5,-55 1249.5,-55 1249.5,-74"/>
<text text-anchor="middle" x="1190.5" y="-62" font-family="Helvetica,sans-Serif" font-size="10.00">compat/os/macosx.h</text>
</a>
</g>
</g>
<!-- Node5&#45;&gt;Node16 -->
<g id="edge15_Node000005_Node000016" class="edge">
<title>Node5&#45;&gt;Node16</title>
<g id="a_edge15_Node000005_Node000016"><a xlink:title=" ">
<path fill="none" stroke="#63b8ff" d="M1626.46,-111.12C1623.43,-110.73 1620.42,-110.35 1617.5,-110 1461.57,-91.14 1419.56,-91.91 1260.01,-74.14"/>
<polygon fill="#63b8ff" stroke="#63b8ff" points="1260.16,-70.64 1249.83,-73 1259.38,-77.59 1260.16,-70.64"/>
</a>
</g>
</g>
<!-- Node17 -->
<g id="Node000017" class="node">
<title>Node17</title>
<g id="a_Node000017"><a xlink:href="mingw_8h.html" target="_top" xlink:title=" ">
<polygon fill="white" stroke="#666666" points="1379.5,-74 1267.5,-74 1267.5,-55 1379.5,-55 1379.5,-74"/>
<text text-anchor="middle" x="1323.5" y="-62" font-family="Helvetica,sans-Serif" font-size="10.00">compat/os/mingw.h</text>
</a>
</g>
</g>
<!-- Node5&#45;&gt;Node17 -->
<g id="edge16_Node000005_Node000017" class="edge">
<title>Node5&#45;&gt;Node17</title>
<g id="a_edge16_Node000005_Node000017"><a xlink:title=" ">
<path fill="none" stroke="#63b8ff" d="M1626.4,-110.85C1564.03,-101.51 1458.4,-85.7 1389.81,-75.43"/>
<polygon fill="#63b8ff" stroke="#63b8ff" points="1389.96,-71.91 1379.55,-73.89 1388.92,-78.83 1389.96,-71.91"/>
</a>
</g>
</g>
<!-- Node18 -->
<g id="Node000018" class="node">
<title>Node18</title>
<g id="a_Node000018"><a xlink:href="mswindows_8h.html" target="_top" xlink:title=" ">
<polygon fill="white" stroke="#666666" points="1535,-74 1398,-74 1398,-55 1535,-55 1535,-74"/>
<text text-anchor="middle" x="1466.5" y="-62" font-family="Helvetica,sans-Serif" font-size="10.00">compat/os/mswindows.h</text>
</a>
</g>
</g>
<!-- Node5&#45;&gt;Node18 -->
<g id="edge17_Node000005_Node000018" class="edge">
<title>Node5&#45;&gt;Node18</title>
<g id="a_edge17_Node000005_Node000018"><a xlink:title=" ">
<path fill="none" stroke="#63b8ff" d="M1643.6,-109.98C1607.48,-100.91 1550.18,-86.52 1510.58,-76.57"/>
<polygon fill="#63b8ff" stroke="#63b8ff" points="1511.22,-73.12 1500.67,-74.08 1509.51,-79.91 1511.22,-73.12"/>
</a>
</g>
</g>
<!-- Node19 -->
<g id="Node000019" class="node">
<title>Node19</title>
<g id="a_Node000019"><a xlink:href="netbsd_8h.html" target="_top" xlink:title=" ">
<polygon fill="white" stroke="#666666" points="1666,-74 1553,-74 1553,-55 1666,-55 1666,-74"/>
<text text-anchor="middle" x="1609.5" y="-62" font-family="Helvetica,sans-Serif" font-size="10.00">compat/os/netbsd.h</text>
</a>
</g>
</g>
<!-- Node5&#45;&gt;Node19 -->
<g id="edge18_Node000005_Node000019" class="edge">
<title>Node5&#45;&gt;Node19</title>
<g id="a_edge18_Node000005_Node000019"><a xlink:title=" ">
<path fill="none" stroke="#63b8ff" d="M1666.57,-109.98C1656.42,-102.07 1641.08,-90.11 1628.85,-80.58"/>
<polygon fill="#63b8ff" stroke="#63b8ff" points="1630.66,-77.56 1620.62,-74.17 1626.36,-83.08 1630.66,-77.56"/>
</a>
</g>
</g>
<!-- Node20 -->
<g id="Node000020" class="node">
<title>Node20</title>
<g id="a_Node000020"><a xlink:href="openbsd_8h.html" target="_top" xlink:title=" ">
<polygon fill="white" stroke="#666666" points="1805,-74 1684,-74 1684,-55 1805,-55 1805,-74"/>
<text text-anchor="middle" x="1744.5" y="-62" font-family="Helvetica,sans-Serif" font-size="10.00">compat/os/openbsd.h</text>
</a>
</g>
</g>
<!-- Node5&#45;&gt;Node20 -->
<g id="edge19_Node000005_Node000020" class="edge">
<title>Node5&#45;&gt;Node20</title>
<g id="a_edge19_Node000005_Node000020"><a xlink:title=" ">
<path fill="none" stroke="#63b8ff" d="M1688.26,-109.98C1698.27,-102.07 1713.39,-90.11 1725.43,-80.58"/>
<polygon fill="#63b8ff" stroke="#63b8ff" points="1727.87,-83.12 1733.54,-74.17 1723.53,-77.63 1727.87,-83.12"/>
</a>
</g>
</g>
<!-- Node21 -->
<g id="Node000021" class="node">
<title>Node21</title>
<g id="a_Node000021"><a xlink:href="os2_8h.html" target="_top" xlink:title=" ">
<polygon fill="white" stroke="#666666" points="1920,-74 1823,-74 1823,-55 1920,-55 1920,-74"/>
<text text-anchor="middle" x="1871.5" y="-62" font-family="Helvetica,sans-Serif" font-size="10.00">compat/os/os2.h</text>
</a>
</g>
</g>
<!-- Node5&#45;&gt;Node21 -->
<g id="edge20_Node000005_Node000021" class="edge">
<title>Node5&#45;&gt;Node21</title>
<g id="a_edge20_Node000005_Node000021"><a xlink:title=" ">
<path fill="none" stroke="#63b8ff" d="M1708.67,-109.98C1741.66,-100.97 1793.9,-86.7 1830.27,-76.76"/>
<polygon fill="#63b8ff" stroke="#63b8ff" points="1831.36,-80.09 1840.09,-74.08 1829.52,-73.34 1831.36,-80.09"/>
</a>
</g>
</g>
<!-- Node22 -->
<g id="Node000022" class="node">
<title>Node22</title>
<g id="a_Node000022"><a xlink:href="qnx_8h.html" target="_top" xlink:title=" ">
<polygon fill="white" stroke="#666666" points="2036.5,-74 1938.5,-74 1938.5,-55 2036.5,-55 2036.5,-74"/>
<text text-anchor="middle" x="1987.5" y="-62" font-family="Helvetica,sans-Serif" font-size="10.00">compat/os/qnx.h</text>
</a>
</g>
</g>
<!-- Node5&#45;&gt;Node22 -->
<g id="edge21_Node000005_Node000022" class="edge">
<title>Node5&#45;&gt;Node22</title>
<g id="a_edge21_Node000005_Node000022"><a xlink:title=" ">
<path fill="none" stroke="#63b8ff" d="M1727.31,-109.98C1782.04,-100.63 1869.91,-85.6 1928.17,-75.64"/>
<polygon fill="#63b8ff" stroke="#63b8ff" points="1929.06,-79.04 1938.33,-73.91 1927.88,-72.14 1929.06,-79.04"/>
</a>
</g>
</g>
<!-- Node23 -->
<g id="Node000023" class="node">
<title>Node23</title>
<g id="a_Node000023"><a xlink:href="solaris_8h.html" target="_top" xlink:title=" ">
<polygon fill="white" stroke="#666666" points="2166.5,-74 2054.5,-74 2054.5,-55 2166.5,-55 2166.5,-74"/>
<text text-anchor="middle" x="2110.5" y="-62" font-family="Helvetica,sans-Serif" font-size="10.00">compat/os/solaris.h</text>
</a>
</g>
</g>
<!-- Node5&#45;&gt;Node23 -->
<g id="edge22_Node000005_Node000023" class="edge">
<title>Node5&#45;&gt;Node23</title>
<g id="a_edge22_Node000005_Node000023"><a xlink:title=" ">
<path fill="none" stroke="#63b8ff" d="M1728.72,-112.47C1797.88,-104.28 1925.28,-89.08 2044.45,-74.12"/>
<polygon fill="#63b8ff" stroke="#63b8ff" points="2045,-77.58 2054.48,-72.86 2044.13,-70.63 2045,-77.58"/>
</a>
</g>
</g>
<!-- Node24 -->
<g id="Node000024" class="node">
<title>Node24</title>
<g id="a_Node000024"><a xlink:href="sunos_8h.html" target="_top" xlink:title=" ">
<polygon fill="white" stroke="#666666" points="2292.5,-74 2184.5,-74 2184.5,-55 2292.5,-55 2292.5,-74"/>
<text text-anchor="middle" x="2238.5" y="-62" font-family="Helvetica,sans-Serif" font-size="10.00">compat/os/sunos.h</text>
</a>
</g>
</g>
<!-- Node5&#45;&gt;Node24 -->
<g id="edge23_Node000005_Node000024" class="edge">
<title>Node5&#45;&gt;Node24</title>
<g id="a_edge23_Node000005_Node000024"><a xlink:title=" ">
<path fill="none" stroke="#63b8ff" d="M1728.84,-114.68C1817.47,-107.91 2005.16,-92.85 2174.15,-74.11"/>
<polygon fill="#63b8ff" stroke="#63b8ff" points="2174.67,-77.57 2184.22,-72.98 2173.9,-70.61 2174.67,-77.57"/>
</a>
</g>
</g>
<!-- Node25 -->
<g id="Node000025" class="node">
<title>Node25</title>
<g id="a_Node000025"><a xlink:href="assert_8h.html" target="_top" xlink:title=" ">
<polygon fill="white" stroke="#666666" points="2406,-74 2311,-74 2311,-55 2406,-55 2406,-74"/>
<text text-anchor="middle" x="2358.5" y="-62" font-family="Helvetica,sans-Serif" font-size="10.00">compat/assert.h</text>
</a>
</g>
</g>
<!-- Node5&#45;&gt;Node25 -->
<g id="edge24_Node000005_Node000025" class="edge">
<title>Node5&#45;&gt;Node25</title>
<g id="a_edge24_Node000005_Node000025"><a xlink:title=" ">
<path fill="none" stroke="#63b8ff" d="M1728.58,-116.19C1833.63,-111.15 2081.71,-97.76 2300.87,-73.97"/>
<polygon fill="#63b8ff" stroke="#63b8ff" points="2301.39,-77.44 2310.95,-72.87 2300.63,-70.48 2301.39,-77.44"/>
</a>
</g>
</g>
<!-- Node26 -->
<g id="Node000026" class="node">
<title>Node26</title>
<g id="a_Node000026"><a xlink:href="compat__shared_8h.html" target="_top" xlink:title=" ">
<polygon fill="#fff0f0" stroke="red" points="2564.5,-74 2424.5,-74 2424.5,-55 2564.5,-55 2564.5,-74"/>
<text text-anchor="middle" x="2494.5" y="-62" font-family="Helvetica,sans-Serif" font-size="10.00">compat/compat_shared.h</text>
</a>
</g>
</g>
<!-- Node5&#45;&gt;Node26 -->
<g id="edge25_Node000005_Node000026" class="edge">
<title>Node5&#45;&gt;Node26</title>
<g id="a_edge25_Node000005_Node000026"><a xlink:title=" ">
<path fill="none" stroke="#63b8ff" d="M1728.93,-116.2C1847.54,-110.73 2149.62,-95.79 2414.09,-73.99"/>
<polygon fill="#63b8ff" stroke="#63b8ff" points="2414.6,-77.46 2424.28,-73.14 2414.02,-70.48 2414.6,-77.46"/>
</a>
</g>
</g>
<!-- Node36 -->
<g id="Node000036" class="node">
<title>Node36</title>
<g id="a_Node000036"><a xlink:href="stdvarargs_8h.html" target="_top" xlink:title=" ">
<polygon fill="#fff0f0" stroke="red" points="2700,-74 2583,-74 2583,-55 2700,-55 2700,-74"/>
<text text-anchor="middle" x="2641.5" y="-62" font-family="Helvetica,sans-Serif" font-size="10.00">compat/stdvarargs.h</text>
</a>
</g>
</g>
<!-- Node5&#45;&gt;Node36 -->
<g id="edge28_Node000005_Node000036" class="edge">
<title>Node5&#45;&gt;Node36</title>
<g id="a_edge28_Node000005_Node000036"><a xlink:title=" ">
<path fill="none" stroke="#63b8ff" d="M1728.61,-117.3C1864.25,-113.83 2244.8,-102.22 2572.75,-73.99"/>
<polygon fill="#63b8ff" stroke="#63b8ff" points="2573.26,-77.46 2582.92,-73.1 2572.66,-70.48 2573.26,-77.46"/>
</a>
</g>
</g>
<!-- Node38 -->
<g id="Node000038" class="node">
<title>Node38</title>
<g id="a_Node000038"><a xlink:href="stdio_8h.html" target="_top" xlink:title=" ">
<polygon fill="#fff0f0" stroke="red" points="2807,-74 2718,-74 2718,-55 2807,-55 2807,-74"/>
<text text-anchor="middle" x="2762.5" y="-62" font-family="Helvetica,sans-Serif" font-size="10.00">compat/stdio.h</text>
</a>
</g>
</g>
<!-- Node5&#45;&gt;Node38 -->
<g id="edge29_Node000005_Node000038" class="edge">
<title>Node5&#45;&gt;Node38</title>
<g id="a_edge29_Node000005_Node000038"><a xlink:title=" ">
<path fill="none" stroke="#63b8ff" d="M1728.6,-118.33C1877.78,-117.42 2325.72,-111.57 2707.62,-73.95"/>
<polygon fill="#63b8ff" stroke="#63b8ff" points="2708.16,-77.41 2717.76,-72.94 2707.46,-70.45 2708.16,-77.41"/>
</a>
</g>
</g>
<!-- Node40 -->
<g id="Node000040" class="node">
<title>Node40</title>
<g id="a_Node000040"><a xlink:href="statvfs_8h.html" target="_top" xlink:title=" ">
<polygon fill="white" stroke="#666666" points="2924,-74 2825,-74 2825,-55 2924,-55 2924,-74"/>
<text text-anchor="middle" x="2874.5" y="-62" font-family="Helvetica,sans-Serif" font-size="10.00">compat/statvfs.h</text>
</a>
</g>
</g>
<!-- Node5&#45;&gt;Node40 -->
<g id="edge30_Node000005_Node000040" class="edge">
<title>Node5&#45;&gt;Node40</title>
<g id="a_edge30_Node000005_Node000040"><a xlink:title=" ">
<path fill="none" stroke="#63b8ff" d="M1728.66,-118.39C1887.93,-117.66 2389.17,-112.3 2814.93,-73.93"/>
<polygon fill="#63b8ff" stroke="#63b8ff" points="2815.33,-77.41 2824.97,-73.02 2814.69,-70.44 2815.33,-77.41"/>
</a>
</g>
</g>
<!-- Node41 -->
<g id="Node000041" class="node">
<title>Node41</title>
<g id="a_Node000041"><a xlink:href="debug_8h.html" target="_top" xlink:title=" ">
<polygon fill="white" stroke="#666666" points="3037,-74 2942,-74 2942,-55 3037,-55 3037,-74"/>
<text text-anchor="middle" x="2989.5" y="-62" font-family="Helvetica,sans-Serif" font-size="10.00">compat/debug.h</text>
</a>
</g>
</g>
<!-- Node5&#45;&gt;Node41 -->
<g id="edge31_Node000005_Node000041" class="edge">
<title>Node5&#45;&gt;Node41</title>
<g id="a_edge31_Node000005_Node000041"><a xlink:title=" ">
<path fill="none" stroke="#63b8ff" d="M1728.74,-118.75C1898.56,-119.13 2458.54,-116.9 2931.85,-73.92"/>
<polygon fill="#63b8ff" stroke="#63b8ff" points="2932.32,-77.39 2941.96,-73 2931.69,-70.42 2932.32,-77.39"/>
</a>
</g>
</g>
<!-- Node42 -->
<g id="Node000042" class="node">
<title>Node42</title>
<g id="a_Node000042"><a xlink:href="valgrind_8h.html" target="_top" xlink:title=" ">
<polygon fill="#fff0f0" stroke="red" points="3160,-74 3055,-74 3055,-55 3160,-55 3160,-74"/>
<text text-anchor="middle" x="3107.5" y="-62" font-family="Helvetica,sans-Serif" font-size="10.00">compat/valgrind.h</text>
</a>
</g>
</g>
<!-- Node5&#45;&gt;Node42 -->
<g id="edge32_Node000005_Node000042" class="edge">
<title>Node5&#45;&gt;Node42</title>
<g id="a_edge32_Node000005_Node000042"><a xlink:title=" ">
<path fill="none" stroke="#63b8ff" d="M1728.54,-118.75C1907.7,-119.2 2524.66,-117.38 3044.44,-73.98"/>
<polygon fill="#63b8ff" stroke="#63b8ff" points="3045.1,-77.43 3054.78,-73.11 3044.52,-70.46 3045.1,-77.43"/>
</a>
</g>
</g>
<!-- Node9 -->
<g id="Node000009" class="node">
<title>Node9</title>
<g id="a_Node000009"><a xlink:title=" ">
<polygon fill="#e0e0e0" stroke="#999999" points="324.5,-19 274.5,-19 274.5,0 324.5,0 324.5,-19"/>
<text text-anchor="middle" x="299.5" y="-7" font-family="Helvetica,sans-Serif" font-size="10.00">cstdint</text>
</a>
</g>
</g>
<!-- Node8&#45;&gt;Node9 -->
<g id="edge8_Node000008_Node000009" class="edge">
<title>Node8&#45;&gt;Node9</title>
<g id="a_edge8_Node000008_Node000009"><a xlink:title=" ">
<path fill="none" stroke="#63b8ff" d="M299.5,-54.75C299.5,-47.8 299.5,-37.85 299.5,-29.13"/>
<polygon fill="#63b8ff" stroke="#63b8ff" points="303,-29.09 299.5,-19.09 296,-29.09 303,-29.09"/>
</a>
</g>
</g>
<!-- Node27 -->
<g id="Node000027" class="node">
<title>Node27</title>
<g id="a_Node000027"><a xlink:title=" ">
<polygon fill="#e0e0e0" stroke="#999999" points="2474,-19 2423,-19 2423,0 2474,0 2474,-19"/>
<text text-anchor="middle" x="2448.5" y="-7" font-family="Helvetica,sans-Serif" font-size="10.00">csignal</text>
</a>
</g>
</g>
<!-- Node26&#45;&gt;Node27 -->
<g id="edge26_Node000026_Node000027" class="edge">
<title>Node26&#45;&gt;Node27</title>
<g id="a_edge26_Node000026_Node000027"><a xlink:title=" ">
<path fill="none" stroke="#63b8ff" d="M2486.9,-54.75C2480.34,-47.18 2470.68,-36.05 2462.69,-26.84"/>
<polygon fill="#63b8ff" stroke="#63b8ff" points="2465.15,-24.35 2455.95,-19.09 2459.87,-28.94 2465.15,-24.35"/>
</a>
</g>
</g>
<!-- Node28 -->
<g id="Node000028" class="node">
<title>Node28</title>
<g id="a_Node000028"><a xlink:href="xalloc_8h.html" target="_top" xlink:title=" ">
<polygon fill="white" stroke="#666666" points="2587,-19 2492,-19 2492,0 2587,0 2587,-19"/>
<text text-anchor="middle" x="2539.5" y="-7" font-family="Helvetica,sans-Serif" font-size="10.00">compat/xalloc.h</text>
</a>
</g>
</g>
<!-- Node26&#45;&gt;Node28 -->
<g id="edge27_Node000026_Node000028" class="edge">
<title>Node26&#45;&gt;Node28</title>
<g id="a_edge27_Node000026_Node000028"><a xlink:title=" ">
<path fill="none" stroke="#63b8ff" d="M2501.93,-54.75C2508.35,-47.18 2517.81,-36.05 2525.62,-26.84"/>
<polygon fill="#63b8ff" stroke="#63b8ff" points="2528.4,-28.98 2532.21,-19.09 2523.07,-24.45 2528.4,-28.98"/>
</a>
</g>
</g>
<!-- Node45 -->
<g id="Node000045" class="node">
<title>Node45</title>
<g id="a_Node000045"><a xlink:href="Here_8h.html" target="_top" xlink:title=" ">
<polygon fill="white" stroke="#666666" points="2807,-129 2732,-129 2732,-110 2807,-110 2807,-129"/>
<text text-anchor="middle" x="2769.5" y="-117" font-family="Helvetica,sans-Serif" font-size="10.00">base/Here.h</text>
</a>
</g>
</g>
<!-- Node44&#45;&gt;Node45 -->
<g id="edge34_Node000044_Node000045" class="edge">
<title>Node44&#45;&gt;Node45</title>
<g id="a_edge34_Node000044_Node000045"><a xlink:title=" ">
<path fill="none" stroke="#63b8ff" d="M2991.92,-164.98C2944.15,-155.43 2866.86,-139.97 2817.12,-130.02"/>
<polygon fill="#63b8ff" stroke="#63b8ff" points="2817.74,-126.58 2807.25,-128.05 2816.37,-133.44 2817.74,-126.58"/>
</a>
</g>
</g>
<!-- Node47 -->
<g id="Node000047" class="node">
<title>Node47</title>
<g id="a_Node000047"><a xlink:href="AllocatorProxy_8h.html" target="_top" xlink:title=" ">
<polygon fill="white" stroke="#666666" points="2948.5,-129 2824.5,-129 2824.5,-110 2948.5,-110 2948.5,-129"/>
<text text-anchor="middle" x="2886.5" y="-117" font-family="Helvetica,sans-Serif" font-size="10.00">mem/AllocatorProxy.h</text>
</a>
</g>
</g>
<!-- Node44&#45;&gt;Node47 -->
<g id="edge36_Node000044_Node000047" class="edge">
<title>Node44&#45;&gt;Node47</title>
<g id="a_edge36_Node000044_Node000047"><a xlink:title=" ">
<path fill="none" stroke="#63b8ff" d="M3010.72,-164.98C2986.27,-156.23 2947.97,-142.51 2920.35,-132.62"/>
<polygon fill="#63b8ff" stroke="#63b8ff" points="2921.31,-129.25 2910.71,-129.17 2918.95,-135.84 2921.31,-129.25"/>
</a>
</g>
</g>
<!-- Node48 -->
<g id="Node000048" class="node">
<title>Node48</title>
<g id="a_Node000048"><a xlink:title=" ">
<polygon fill="#e0e0e0" stroke="#999999" points="3026.5,-129 2966.5,-129 2966.5,-110 3026.5,-110 3026.5,-129"/>
<text text-anchor="middle" x="2996.5" y="-117" font-family="Helvetica,sans-Serif" font-size="10.00">iostream</text>
</a>
</g>
</g>
<!-- Node44&#45;&gt;Node48 -->
<g id="edge37_Node000044_Node000048" class="edge">
<title>Node44&#45;&gt;Node48</title>
<g id="a_edge37_Node000044_Node000048"><a xlink:title=" ">
<path fill="none" stroke="#63b8ff" d="M3028.23,-164.75C3022.91,-157.34 3015.14,-146.5 3008.62,-137.41"/>
<polygon fill="#63b8ff" stroke="#63b8ff" points="3011.33,-135.18 3002.66,-129.09 3005.64,-139.26 3011.33,-135.18"/>
</a>
</g>
</g>
<!-- Node49 -->
<g id="Node000049" class="node">
<title>Node49</title>
<g id="a_Node000049"><a xlink:title=" ">
<polygon fill="#e0e0e0" stroke="#999999" points="3100.5,-129 3044.5,-129 3044.5,-110 3100.5,-110 3100.5,-129"/>
<text text-anchor="middle" x="3072.5" y="-117" font-family="Helvetica,sans-Serif" font-size="10.00">sstream</text>
</a>
</g>
</g>
<!-- Node44&#45;&gt;Node49 -->
<g id="edge38_Node000044_Node000049" class="edge">
<title>Node44&#45;&gt;Node49</title>
<g id="a_edge38_Node000044_Node000049"><a xlink:title=" ">
<path fill="none" stroke="#63b8ff" d="M3040.77,-164.75C3046.09,-157.34 3053.86,-146.5 3060.38,-137.41"/>
<polygon fill="#63b8ff" stroke="#63b8ff" points="3063.36,-139.26 3066.34,-129.09 3057.67,-135.18 3063.36,-139.26"/>
</a>
</g>
</g>
<!-- Node50 -->
<g id="Node000050" class="node">
<title>Node50</title>
<g id="a_Node000050"><a xlink:title=" ">
<polygon fill="#e0e0e0" stroke="#999999" points="3174.5,-129 3118.5,-129 3118.5,-110 3174.5,-110 3174.5,-129"/>
<text text-anchor="middle" x="3146.5" y="-117" font-family="Helvetica,sans-Serif" font-size="10.00">iomanip</text>
</a>
</g>
</g>
<!-- Node44&#45;&gt;Node50 -->
<g id="edge39_Node000044_Node000050" class="edge">
<title>Node44&#45;&gt;Node50</title>
<g id="a_edge39_Node000044_Node000050"><a xlink:title=" ">
<path fill="none" stroke="#63b8ff" d="M3052.49,-164.98C3070.43,-156.5 3098.22,-143.35 3118.93,-133.54"/>
<polygon fill="#63b8ff" stroke="#63b8ff" points="3120.64,-136.61 3128.18,-129.17 3117.64,-130.28 3120.64,-136.61"/>
</a>
</g>
</g>
<!-- Node46 -->
<g id="Node000046" class="node">
<title>Node46</title>
<g id="a_Node000046"><a xlink:title=" ">
<polygon fill="#e0e0e0" stroke="#999999" points="3226.5,-74 3178.5,-74 3178.5,-55 3226.5,-55 3226.5,-74"/>
<text text-anchor="middle" x="3202.5" y="-62" font-family="Helvetica,sans-Serif" font-size="10.00">iosfwd</text>
</a>
</g>
</g>
<!-- Node45&#45;&gt;Node46 -->
<g id="edge35_Node000045_Node000046" class="edge">
<title>Node45&#45;&gt;Node46</title>
<g id="a_edge35_Node000045_Node000046"><a xlink:title=" ">
<path fill="none" stroke="#63b8ff" d="M2807.11,-111.29C2809.95,-110.83 2812.77,-110.39 2815.5,-110 2971.61,-87.65 3013.16,-101.19 3168.5,-74 3168.6,-73.98 3168.7,-73.96 3168.8,-73.95"/>
<polygon fill="#63b8ff" stroke="#63b8ff" points="3169.35,-77.41 3178.45,-71.97 3167.95,-70.55 3169.35,-77.41"/>
</a>
</g>
</g>
<!-- Node51&#45;&gt;Node46 -->
<g id="edge42_Node000051_Node000046" class="edge">
<title>Node51&#45;&gt;Node46</title>
<g id="a_edge42_Node000051_Node000046"><a xlink:title=" ">
<path fill="none" stroke="#63b8ff" d="M3266.92,-164.93C3252.54,-157.39 3233.17,-145.11 3221.5,-129 3211.9,-115.75 3207.1,-97.63 3204.73,-84.14"/>
<polygon fill="#63b8ff" stroke="#63b8ff" points="3208.18,-83.49 3203.26,-74.1 3201.25,-84.5 3208.18,-83.49"/>
</a>
</g>
</g>
<!-- Node52 -->
<g id="Node000052" class="node">
<title>Node52</title>
<g id="a_Node000052"><a xlink:href="ipc_2mem_2forward_8h.html" target="_top" xlink:title=" ">
<polygon fill="white" stroke="#666666" points="3340,-129 3231,-129 3231,-110 3340,-110 3340,-129"/>
<text text-anchor="middle" x="3285.5" y="-117" font-family="Helvetica,sans-Serif" font-size="10.00">ipc/mem/forward.h</text>
</a>
</g>
</g>
<!-- Node51&#45;&gt;Node52 -->
<g id="edge41_Node000051_Node000052" class="edge">
<title>Node51&#45;&gt;Node52</title>
<g id="a_edge41_Node000051_Node000052"><a xlink:title=" ">
<path fill="none" stroke="#63b8ff" d="M3285.5,-164.75C3285.5,-157.8 3285.5,-147.85 3285.5,-139.13"/>
<polygon fill="#63b8ff" stroke="#63b8ff" points="3289,-139.09 3285.5,-129.09 3282,-139.09 3289,-139.09"/>
</a>
</g>
</g>
<!-- Node53&#45;&gt;Node52 -->
<g id="edge47_Node000053_Node000052" class="edge">
<title>Node53&#45;&gt;Node52</title>
<g id="a_edge47_Node000053_Node000052"><a xlink:title=" ">
<path fill="none" stroke="#63b8ff" d="M3397.13,-164.98C3375.35,-156.3 3341.34,-142.75 3316.58,-132.88"/>
<polygon fill="#63b8ff" stroke="#63b8ff" points="3317.84,-129.62 3307.26,-129.17 3315.25,-136.12 3317.84,-129.62"/>
</a>
</g>
</g>
<!-- Node54 -->
<g id="Node000054" class="node">
<title>Node54</title>
<g id="a_Node000054"><a xlink:href="FlexibleArray_8h.html" target="_top" xlink:title=" ">
<polygon fill="white" stroke="#666666" points="3493,-129 3358,-129 3358,-110 3493,-110 3493,-129"/>
<text text-anchor="middle" x="3425.5" y="-117" font-family="Helvetica,sans-Serif" font-size="10.00">ipc/mem/FlexibleArray.h</text>
</a>
</g>
</g>
<!-- Node53&#45;&gt;Node54 -->
<g id="edge44_Node000053_Node000054" class="edge">
<title>Node53&#45;&gt;Node54</title>
<g id="a_edge44_Node000053_Node000054"><a xlink:title=" ">
<path fill="none" stroke="#63b8ff" d="M3419.66,-164.75C3420.57,-157.8 3421.89,-147.85 3423.04,-139.13"/>
<polygon fill="#63b8ff" stroke="#63b8ff" points="3426.53,-139.46 3424.37,-129.09 3419.59,-138.54 3426.53,-139.46"/>
</a>
</g>
</g>
<!-- Node57 -->
<g id="Node000057" class="node">
<title>Node57</title>
<g id="a_Node000057"><a xlink:title=" ">
<polygon fill="#e0e0e0" stroke="#999999" points="3561.5,-129 3511.5,-129 3511.5,-110 3561.5,-110 3561.5,-129"/>
<text text-anchor="middle" x="3536.5" y="-117" font-family="Helvetica,sans-Serif" font-size="10.00">atomic</text>
</a>
</g>
</g>
<!-- Node53&#45;&gt;Node57 -->
<g id="edge48_Node000053_Node000057" class="edge">
<title>Node53&#45;&gt;Node57</title>
<g id="a_edge48_Node000053_Node000057"><a xlink:title=" ">
<path fill="none" stroke="#63b8ff" d="M3437.46,-164.98C3456.53,-156.42 3486.16,-143.11 3508.05,-133.28"/>
<polygon fill="#63b8ff" stroke="#63b8ff" points="3509.51,-136.46 3517.2,-129.17 3506.64,-130.07 3509.51,-136.46"/>
</a>
</g>
</g>
<!-- Node53&#45;&gt;Node58 -->
<g id="edge49_Node000053_Node000058" class="edge">
<title>Node53&#45;&gt;Node58</title>
<g id="a_edge49_Node000053_Node000058"><a xlink:title=" ">
<path fill="none" stroke="#63b8ff" d="M3447.9,-164.98C3481.14,-155.36 3535.08,-139.74 3569.39,-129.8"/>
<polygon fill="#63b8ff" stroke="#63b8ff" points="3570.73,-133.05 3579.36,-126.91 3568.79,-126.33 3570.73,-133.05"/>
</a>
</g>
</g>
<!-- Node55 -->
<g id="Node000055" class="node">
<title>Node55</title>
<g id="a_Node000055"><a xlink:title=" ">
<polygon fill="#e0e0e0" stroke="#999999" points="3421,-74 3368,-74 3368,-55 3421,-55 3421,-74"/>
<text text-anchor="middle" x="3394.5" y="-62" font-family="Helvetica,sans-Serif" font-size="10.00">cstddef</text>
</a>
</g>
</g>
<!-- Node54&#45;&gt;Node55 -->
<g id="edge45_Node000054_Node000055" class="edge">
<title>Node54&#45;&gt;Node55</title>
<g id="a_edge45_Node000054_Node000055"><a xlink:title=" ">
<path fill="none" stroke="#63b8ff" d="M3420.38,-109.75C3416.14,-102.49 3409.97,-91.95 3404.72,-82.98"/>
<polygon fill="#63b8ff" stroke="#63b8ff" points="3407.59,-80.95 3399.52,-74.09 3401.55,-84.49 3407.59,-80.95"/>
</a>
</g>
</g>
<!-- Node56 -->
<g id="Node000056" class="node">
<title>Node56</title>
<g id="a_Node000056"><a xlink:title=" ">
<polygon fill="#e0e0e0" stroke="#999999" points="3476,-74 3439,-74 3439,-55 3476,-55 3476,-74"/>
<text text-anchor="middle" x="3457.5" y="-62" font-family="Helvetica,sans-Serif" font-size="10.00">new</text>
</a>
</g>
</g>
<!-- Node54&#45;&gt;Node56 -->
<g id="edge46_Node000054_Node000056" class="edge">
<title>Node54&#45;&gt;Node56</title>
<g id="a_edge46_Node000054_Node000056"><a xlink:title=" ">
<path fill="none" stroke="#63b8ff" d="M3430.78,-109.75C3435.21,-102.42 3441.66,-91.73 3447.12,-82.7"/>
<polygon fill="#63b8ff" stroke="#63b8ff" points="3450.14,-84.46 3452.31,-74.09 3444.15,-80.84 3450.14,-84.46"/>
</a>
</g>
</g>
</g>
</svg>
