<?xml version="1.0" encoding="UTF-8" standalone="no"?>
<!DOCTYPE svg PUBLIC "-//W3C//DTD SVG 1.1//EN"
 "http://www.w3.org/Graphics/SVG/1.1/DTD/svg11.dtd">
<!-- Generated by graphviz version 2.43.0 (0)
 -->
<!-- Title: squid/src/snmp/Pdu.cc Pages: 1 -->
<svg width="4279pt" height="247pt"
 viewBox="0.00 0.00 4279.00 247.00" xmlns="http://www.w3.org/2000/svg" xmlns:xlink="http://www.w3.org/1999/xlink">
<g id="graph0" class="graph" transform="scale(1 1) rotate(0) translate(4 243)">
<title>squid/src/snmp/Pdu.cc</title>
<!-- Node1 -->
<g id="Node000001" class="node">
<title>Node1</title>
<g id="a_Node000001"><a xlink:title=" ">
<polygon fill="#999999" stroke="#666666" points="3643,-239 3518,-239 3518,-220 3643,-220 3643,-239"/>
<text text-anchor="middle" x="3580.5" y="-227" font-family="Helvetica,sans-Serif" font-size="10.00">squid/src/snmp/Pdu.cc</text>
</a>
</g>
</g>
<!-- Node2 -->
<g id="Node000002" class="node">
<title>Node2</title>
<g id="a_Node000002"><a xlink:href="squid_8h.html" target="_top" xlink:title=" ">
<polygon fill="white" stroke="#666666" points="2262.5,-184 2210.5,-184 2210.5,-165 2262.5,-165 2262.5,-184"/>
<text text-anchor="middle" x="2236.5" y="-172" font-family="Helvetica,sans-Serif" font-size="10.00">squid.h</text>
</a>
</g>
</g>
<!-- Node1&#45;&gt;Node2 -->
<g id="edge1_Node000001_Node000002" class="edge">
<title>Node1&#45;&gt;Node2</title>
<g id="a_edge1_Node000001_Node000002"><a xlink:title=" ">
<path fill="none" stroke="#63b8ff" d="M3517.93,-226.03C3282.82,-216.76 2456.4,-184.17 2272.81,-176.93"/>
<polygon fill="#63b8ff" stroke="#63b8ff" points="2272.75,-173.43 2262.62,-176.53 2272.47,-180.42 2272.75,-173.43"/>
</a>
</g>
</g>
<!-- Node45 -->
<g id="Node000045" class="node">
<title>Node45</title>
<g id="a_Node000045"><a xlink:href="TextException_8h.html" target="_top" xlink:title=" ">
<polygon fill="white" stroke="#666666" points="3963.5,-129 3843.5,-129 3843.5,-110 3963.5,-110 3963.5,-129"/>
<text text-anchor="middle" x="3903.5" y="-117" font-family="Helvetica,sans-Serif" font-size="10.00">base/TextException.h</text>
</a>
</g>
</g>
<!-- Node1&#45;&gt;Node45 -->
<g id="edge28_Node000001_Node000045" class="edge">
<title>Node1&#45;&gt;Node45</title>
<g id="a_edge28_Node000001_Node000045"><a xlink:title=" ">
<path fill="none" stroke="#63b8ff" d="M3606.12,-219.94C3663.48,-200.76 3802.36,-154.32 3868,-132.37"/>
<polygon fill="#63b8ff" stroke="#63b8ff" points="3869.51,-135.56 3877.88,-129.07 3867.29,-128.92 3869.51,-135.56"/>
</a>
</g>
</g>
<!-- Node50 -->
<g id="Node000050" class="node">
<title>Node50</title>
<g id="a_Node000050"><a xlink:href="TypedMsgHdr_8h.html" target="_top" xlink:title=" ">
<polygon fill="white" stroke="#666666" points="3987.5,-184 3879.5,-184 3879.5,-165 3987.5,-165 3987.5,-184"/>
<text text-anchor="middle" x="3933.5" y="-172" font-family="Helvetica,sans-Serif" font-size="10.00">ipc/TypedMsgHdr.h</text>
</a>
</g>
</g>
<!-- Node1&#45;&gt;Node50 -->
<g id="edge33_Node000001_Node000050" class="edge">
<title>Node1&#45;&gt;Node50</title>
<g id="a_edge33_Node000001_Node000050"><a xlink:title=" ">
<path fill="none" stroke="#63b8ff" d="M3637.22,-219.98C3700.61,-210.47 3803.05,-195.09 3869.33,-185.13"/>
<polygon fill="#63b8ff" stroke="#63b8ff" points="3869.87,-188.59 3879.24,-183.65 3868.84,-181.67 3869.87,-188.59"/>
</a>
</g>
</g>
<!-- Node54 -->
<g id="Node000054" class="node">
<title>Node54</title>
<g id="a_Node000054"><a xlink:href="Pdu_8h.html" target="_top" xlink:title=" ">
<polygon fill="white" stroke="#666666" points="3130.5,-184 3056.5,-184 3056.5,-165 3130.5,-165 3130.5,-184"/>
<text text-anchor="middle" x="3093.5" y="-172" font-family="Helvetica,sans-Serif" font-size="10.00">snmp/Pdu.h</text>
</a>
</g>
</g>
<!-- Node1&#45;&gt;Node54 -->
<g id="edge37_Node000001_Node000054" class="edge">
<title>Node1&#45;&gt;Node54</title>
<g id="a_edge37_Node000001_Node000054"><a xlink:title=" ">
<path fill="none" stroke="#63b8ff" d="M3517.75,-223.44C3432.73,-216.28 3276.31,-202.03 3143.5,-184 3142.58,-183.88 3141.66,-183.75 3140.73,-183.62"/>
<polygon fill="#63b8ff" stroke="#63b8ff" points="3141,-180.12 3130.59,-182.09 3139.96,-187.04 3141,-180.12"/>
</a>
</g>
</g>
<!-- Node72 -->
<g id="Node000072" class="node">
<title>Node72</title>
<g id="a_Node000072"><a xlink:href="Var_8h.html" target="_top" xlink:title=" ">
<polygon fill="white" stroke="#666666" points="3224,-184 3153,-184 3153,-165 3224,-165 3224,-184"/>
<text text-anchor="middle" x="3188.5" y="-172" font-family="Helvetica,sans-Serif" font-size="10.00">snmp/Var.h</text>
</a>
</g>
</g>
<!-- Node1&#45;&gt;Node72 -->
<g id="edge43_Node000001_Node000072" class="edge">
<title>Node1&#45;&gt;Node72</title>
<g id="a_edge43_Node000001_Node000072"><a xlink:title=" ">
<path fill="none" stroke="#63b8ff" d="M3517.95,-220.04C3438.9,-209.35 3304.68,-191.21 3234.45,-181.71"/>
<polygon fill="#63b8ff" stroke="#63b8ff" points="3234.53,-178.19 3224.15,-180.32 3233.59,-185.13 3234.53,-178.19"/>
</a>
</g>
</g>
<!-- Node73 -->
<g id="Node000073" class="node">
<title>Node73</title>
<g id="a_Node000073"><a xlink:href="snmp__core_8h.html" target="_top" xlink:title=" ">
<polygon fill="white" stroke="#666666" points="3586,-184 3507,-184 3507,-165 3586,-165 3586,-184"/>
<text text-anchor="middle" x="3546.5" y="-172" font-family="Helvetica,sans-Serif" font-size="10.00">snmp_core.h</text>
</a>
</g>
</g>
<!-- Node1&#45;&gt;Node73 -->
<g id="edge47_Node000001_Node000073" class="edge">
<title>Node1&#45;&gt;Node73</title>
<g id="a_edge47_Node000001_Node000073"><a xlink:title=" ">
<path fill="none" stroke="#63b8ff" d="M3574.89,-219.75C3570.18,-212.42 3563.33,-201.73 3557.53,-192.7"/>
<polygon fill="#63b8ff" stroke="#63b8ff" points="3560.36,-190.62 3552.01,-184.09 3554.46,-194.4 3560.36,-190.62"/>
</a>
</g>
</g>
<!-- Node116 -->
<g id="Node000116" class="node">
<title>Node116</title>
<g id="a_Node000116"><a xlink:title=" ">
<polygon fill="#e0e0e0" stroke="#999999" points="4055.5,-184 4005.5,-184 4005.5,-165 4055.5,-165 4055.5,-184"/>
<text text-anchor="middle" x="4030.5" y="-172" font-family="Helvetica,sans-Serif" font-size="10.00">tools.h</text>
</a>
</g>
</g>
<!-- Node1&#45;&gt;Node116 -->
<g id="edge56_Node000001_Node000116" class="edge">
<title>Node1&#45;&gt;Node116</title>
<g id="a_edge56_Node000001_Node000116"><a xlink:title=" ">
<path fill="none" stroke="#63b8ff" d="M3643.25,-224.51C3722.95,-218.83 3864.81,-206.7 3995.17,-184"/>
<polygon fill="#63b8ff" stroke="#63b8ff" points="3996.09,-187.39 4005.33,-182.2 3994.88,-180.5 3996.09,-187.39"/>
</a>
</g>
</g>
<!-- Node117 -->
<g id="Node000117" class="node">
<title>Node117</title>
<g id="a_Node000117"><a xlink:title=" ">
<polygon fill="#e0e0e0" stroke="#999999" points="4137.5,-184 4073.5,-184 4073.5,-165 4137.5,-165 4137.5,-184"/>
<text text-anchor="middle" x="4105.5" y="-172" font-family="Helvetica,sans-Serif" font-size="10.00">algorithm</text>
</a>
</g>
</g>
<!-- Node1&#45;&gt;Node117 -->
<g id="edge57_Node000001_Node000117" class="edge">
<title>Node1&#45;&gt;Node117</title>
<g id="a_edge57_Node000001_Node000117"><a xlink:title=" ">
<path fill="none" stroke="#63b8ff" d="M3643.04,-225.01C3733.54,-219.46 3906.43,-206.99 4063.04,-184.05"/>
<polygon fill="#63b8ff" stroke="#63b8ff" points="4063.95,-187.46 4073.33,-182.53 4062.93,-180.53 4063.95,-187.46"/>
</a>
</g>
</g>
<!-- Node3 -->
<g id="Node000003" class="node">
<title>Node3</title>
<g id="a_Node000003"><a xlink:href="autoconf_8h.html" target="_top" xlink:title=" ">
<polygon fill="white" stroke="#666666" points="1456.5,-129 1388.5,-129 1388.5,-110 1456.5,-110 1456.5,-129"/>
<text text-anchor="middle" x="1422.5" y="-117" font-family="Helvetica,sans-Serif" font-size="10.00">autoconf.h</text>
</a>
</g>
</g>
<!-- Node2&#45;&gt;Node3 -->
<g id="edge2_Node000002_Node000003" class="edge">
<title>Node2&#45;&gt;Node3</title>
<g id="a_edge2_Node000002_Node000003"><a xlink:title=" ">
<path fill="none" stroke="#63b8ff" d="M2210.42,-173.29C2113.41,-172.25 1764.09,-166.07 1466.81,-128.98"/>
<polygon fill="#63b8ff" stroke="#63b8ff" points="1467.06,-125.48 1456.7,-127.7 1466.18,-132.43 1467.06,-125.48"/>
</a>
</g>
</g>
<!-- Node4 -->
<g id="Node000004" class="node">
<title>Node4</title>
<g id="a_Node000004"><a xlink:href="version_8h.html" target="_top" xlink:title=" ">
<polygon fill="white" stroke="#666666" points="3072.5,-19 3010.5,-19 3010.5,0 3072.5,0 3072.5,-19"/>
<text text-anchor="middle" x="3041.5" y="-7" font-family="Helvetica,sans-Serif" font-size="10.00">version.h</text>
</a>
</g>
</g>
<!-- Node2&#45;&gt;Node4 -->
<g id="edge3_Node000002_Node000004" class="edge">
<title>Node2&#45;&gt;Node4</title>
<g id="a_edge3_Node000002_Node000004"><a xlink:title=" ">
<path fill="none" stroke="#63b8ff" d="M2262.7,-173.13C2355.82,-171.1 2678.6,-158.04 2927.5,-74 2962.43,-62.21 2999.02,-39.74 3021.05,-24.94"/>
<polygon fill="#63b8ff" stroke="#63b8ff" points="3023.27,-27.66 3029.55,-19.12 3019.32,-21.89 3023.27,-27.66"/>
</a>
</g>
</g>
<!-- Node5 -->
<g id="Node000005" class="node">
<title>Node5</title>
<g id="a_Node000005"><a xlink:href="compat_8h.html" target="_top" xlink:title=" ">
<polygon fill="#fff0f0" stroke="red" points="1576.5,-129 1474.5,-129 1474.5,-110 1576.5,-110 1576.5,-129"/>
<text text-anchor="middle" x="1525.5" y="-117" font-family="Helvetica,sans-Serif" font-size="10.00">compat/compat.h</text>
</a>
</g>
</g>
<!-- Node2&#45;&gt;Node5 -->
<g id="edge4_Node000002_Node000005" class="edge">
<title>Node2&#45;&gt;Node5</title>
<g id="a_edge4_Node000002_Node000005"><a xlink:title=" ">
<path fill="none" stroke="#63b8ff" d="M2210.35,-171.55C2108.33,-163.95 1735.36,-136.14 1586.98,-125.08"/>
<polygon fill="#63b8ff" stroke="#63b8ff" points="1586.93,-121.57 1576.69,-124.32 1586.41,-128.55 1586.93,-121.57"/>
</a>
</g>
</g>
<!-- Node6 -->
<g id="Node000006" class="node">
<title>Node6</title>
<g id="a_Node000006"><a xlink:href="osdetect_8h.html" target="_top" xlink:title=" ">
<polygon fill="white" stroke="#666666" points="1221,-74 1114,-74 1114,-55 1221,-55 1221,-74"/>
<text text-anchor="middle" x="1167.5" y="-62" font-family="Helvetica,sans-Serif" font-size="10.00">compat/osdetect.h</text>
</a>
</g>
</g>
<!-- Node5&#45;&gt;Node6 -->
<g id="edge5_Node000005_Node000006" class="edge">
<title>Node5&#45;&gt;Node6</title>
<g id="a_edge5_Node000005_Node000006"><a xlink:title=" ">
<path fill="none" stroke="#63b8ff" d="M1474.21,-110.91C1410.08,-101.41 1300.32,-85.16 1230.96,-74.9"/>
<polygon fill="#63b8ff" stroke="#63b8ff" points="1231.44,-71.43 1221.04,-73.43 1230.42,-78.35 1231.44,-71.43"/>
</a>
</g>
</g>
<!-- Node7 -->
<g id="Node000007" class="node">
<title>Node7</title>
<g id="a_Node000007"><a xlink:href="fdsetsize_8h.html" target="_top" xlink:title=" ">
<polygon fill="white" stroke="#666666" points="1349.5,-74 1239.5,-74 1239.5,-55 1349.5,-55 1349.5,-74"/>
<text text-anchor="middle" x="1294.5" y="-62" font-family="Helvetica,sans-Serif" font-size="10.00">compat/fdsetsize.h</text>
</a>
</g>
</g>
<!-- Node5&#45;&gt;Node7 -->
<g id="edge6_Node000005_Node000007" class="edge">
<title>Node5&#45;&gt;Node7</title>
<g id="a_edge6_Node000005_Node000007"><a xlink:title=" ">
<path fill="none" stroke="#63b8ff" d="M1488.39,-109.98C1448.51,-100.84 1385.04,-86.27 1341.66,-76.32"/>
<polygon fill="#63b8ff" stroke="#63b8ff" points="1342.43,-72.91 1331.91,-74.08 1340.87,-79.73 1342.43,-72.91"/>
</a>
</g>
</g>
<!-- Node8 -->
<g id="Node000008" class="node">
<title>Node8</title>
<g id="a_Node000008"><a xlink:href="types_8h.html" target="_top" xlink:title=" ">
<polygon fill="#fff0f0" stroke="red" points="1459.5,-74 1367.5,-74 1367.5,-55 1459.5,-55 1459.5,-74"/>
<text text-anchor="middle" x="1413.5" y="-62" font-family="Helvetica,sans-Serif" font-size="10.00">compat/types.h</text>
</a>
</g>
</g>
<!-- Node5&#45;&gt;Node8 -->
<g id="edge7_Node000005_Node000008" class="edge">
<title>Node5&#45;&gt;Node8</title>
<g id="a_edge7_Node000005_Node000008"><a xlink:title=" ">
<path fill="none" stroke="#63b8ff" d="M1507.51,-109.98C1489.57,-101.5 1461.78,-88.35 1441.07,-78.54"/>
<polygon fill="#63b8ff" stroke="#63b8ff" points="1442.36,-75.28 1431.82,-74.17 1439.36,-81.61 1442.36,-75.28"/>
</a>
</g>
</g>
<!-- Node10 -->
<g id="Node000010" class="node">
<title>Node10</title>
<g id="a_Node000010"><a xlink:href="aix_8h.html" target="_top" xlink:title=" ">
<polygon fill="white" stroke="#666666" points="1573,-74 1478,-74 1478,-55 1573,-55 1573,-74"/>
<text text-anchor="middle" x="1525.5" y="-62" font-family="Helvetica,sans-Serif" font-size="10.00">compat/os/aix.h</text>
</a>
</g>
</g>
<!-- Node5&#45;&gt;Node10 -->
<g id="edge8_Node000005_Node000010" class="edge">
<title>Node5&#45;&gt;Node10</title>
<g id="a_edge8_Node000005_Node000010"><a xlink:title=" ">
<path fill="none" stroke="#63b8ff" d="M1525.5,-109.75C1525.5,-102.8 1525.5,-92.85 1525.5,-84.13"/>
<polygon fill="#63b8ff" stroke="#63b8ff" points="1529,-84.09 1525.5,-74.09 1522,-84.09 1529,-84.09"/>
</a>
</g>
</g>
<!-- Node11 -->
<g id="Node000011" class="node">
<title>Node11</title>
<g id="a_Node000011"><a xlink:href="android_8h.html" target="_top" xlink:title=" ">
<polygon fill="white" stroke="#666666" points="1707.5,-74 1591.5,-74 1591.5,-55 1707.5,-55 1707.5,-74"/>
<text text-anchor="middle" x="1649.5" y="-62" font-family="Helvetica,sans-Serif" font-size="10.00">compat/os/android.h</text>
</a>
</g>
</g>
<!-- Node5&#45;&gt;Node11 -->
<g id="edge9_Node000005_Node000011" class="edge">
<title>Node5&#45;&gt;Node11</title>
<g id="a_edge9_Node000005_Node000011"><a xlink:title=" ">
<path fill="none" stroke="#63b8ff" d="M1545.42,-109.98C1565.55,-101.38 1596.88,-87.99 1619.91,-78.15"/>
<polygon fill="#63b8ff" stroke="#63b8ff" points="1621.4,-81.32 1629.21,-74.17 1618.64,-74.88 1621.4,-81.32"/>
</a>
</g>
</g>
<!-- Node12 -->
<g id="Node000012" class="node">
<title>Node12</title>
<g id="a_Node000012"><a xlink:href="dragonfly_8h.html" target="_top" xlink:title=" ">
<polygon fill="white" stroke="#666666" points="1849.5,-74 1725.5,-74 1725.5,-55 1849.5,-55 1849.5,-74"/>
<text text-anchor="middle" x="1787.5" y="-62" font-family="Helvetica,sans-Serif" font-size="10.00">compat/os/dragonfly.h</text>
</a>
</g>
</g>
<!-- Node5&#45;&gt;Node12 -->
<g id="edge10_Node000005_Node000012" class="edge">
<title>Node5&#45;&gt;Node12</title>
<g id="a_edge10_Node000005_Node000012"><a xlink:title=" ">
<path fill="none" stroke="#63b8ff" d="M1567.59,-109.98C1613.2,-100.76 1686.02,-86.03 1735.25,-76.07"/>
<polygon fill="#63b8ff" stroke="#63b8ff" points="1735.97,-79.5 1745.08,-74.08 1734.58,-72.63 1735.97,-79.5"/>
</a>
</g>
</g>
<!-- Node13 -->
<g id="Node000013" class="node">
<title>Node13</title>
<g id="a_Node000013"><a xlink:href="freebsd_8h.html" target="_top" xlink:title=" ">
<polygon fill="white" stroke="#666666" points="1983.5,-74 1867.5,-74 1867.5,-55 1983.5,-55 1983.5,-74"/>
<text text-anchor="middle" x="1925.5" y="-62" font-family="Helvetica,sans-Serif" font-size="10.00">compat/os/freebsd.h</text>
</a>
</g>
</g>
<!-- Node5&#45;&gt;Node13 -->
<g id="edge11_Node000005_Node000013" class="edge">
<title>Node5&#45;&gt;Node13</title>
<g id="a_edge11_Node000005_Node000013"><a xlink:title=" ">
<path fill="none" stroke="#63b8ff" d="M1576.57,-111.73C1647.97,-102.27 1777.79,-85.07 1857.36,-74.53"/>
<polygon fill="#63b8ff" stroke="#63b8ff" points="1857.84,-78 1867.29,-73.21 1856.92,-71.06 1857.84,-78"/>
</a>
</g>
</g>
<!-- Node14 -->
<g id="Node000014" class="node">
<title>Node14</title>
<g id="a_Node000014"><a xlink:href="hpux_8h.html" target="_top" xlink:title=" ">
<polygon fill="white" stroke="#666666" points="2105.5,-74 2001.5,-74 2001.5,-55 2105.5,-55 2105.5,-74"/>
<text text-anchor="middle" x="2053.5" y="-62" font-family="Helvetica,sans-Serif" font-size="10.00">compat/os/hpux.h</text>
</a>
</g>
</g>
<!-- Node5&#45;&gt;Node14 -->
<g id="edge12_Node000005_Node000014" class="edge">
<title>Node5&#45;&gt;Node14</title>
<g id="a_edge12_Node000005_Node000014"><a xlink:title=" ">
<path fill="none" stroke="#63b8ff" d="M1576.71,-114.35C1660.89,-107.38 1834,-92.35 1990.96,-74.13"/>
<polygon fill="#63b8ff" stroke="#63b8ff" points="1991.75,-77.57 2001.28,-72.93 1990.94,-70.61 1991.75,-77.57"/>
</a>
</g>
</g>
<!-- Node15 -->
<g id="Node000015" class="node">
<title>Node15</title>
<g id="a_Node000015"><a xlink:href="linux_8h.html" target="_top" xlink:title=" ">
<polygon fill="white" stroke="#666666" points="2227.5,-74 2123.5,-74 2123.5,-55 2227.5,-55 2227.5,-74"/>
<text text-anchor="middle" x="2175.5" y="-62" font-family="Helvetica,sans-Serif" font-size="10.00">compat/os/linux.h</text>
</a>
</g>
</g>
<!-- Node5&#45;&gt;Node15 -->
<g id="edge13_Node000005_Node000015" class="edge">
<title>Node5&#45;&gt;Node15</title>
<g id="a_edge13_Node000005_Node000015"><a xlink:title=" ">
<path fill="none" stroke="#63b8ff" d="M1576.81,-115.71C1677.57,-110.01 1908.58,-95.76 2113.25,-74.07"/>
<polygon fill="#63b8ff" stroke="#63b8ff" points="2113.71,-77.54 2123.28,-73 2112.97,-70.58 2113.71,-77.54"/>
</a>
</g>
</g>
<!-- Node16 -->
<g id="Node000016" class="node">
<title>Node16</title>
<g id="a_Node000016"><a xlink:href="macosx_8h.html" target="_top" xlink:title=" ">
<polygon fill="white" stroke="#666666" points="2363.5,-74 2245.5,-74 2245.5,-55 2363.5,-55 2363.5,-74"/>
<text text-anchor="middle" x="2304.5" y="-62" font-family="Helvetica,sans-Serif" font-size="10.00">compat/os/macosx.h</text>
</a>
</g>
</g>
<!-- Node5&#45;&gt;Node16 -->
<g id="edge14_Node000005_Node000016" class="edge">
<title>Node5&#45;&gt;Node16</title>
<g id="a_edge14_Node000005_Node000016"><a xlink:title=" ">
<path fill="none" stroke="#63b8ff" d="M1576.89,-116.38C1692.51,-111.36 1982.14,-97.48 2235.07,-74.08"/>
<polygon fill="#63b8ff" stroke="#63b8ff" points="2235.55,-77.55 2245.19,-73.13 2234.9,-70.58 2235.55,-77.55"/>
</a>
</g>
</g>
<!-- Node17 -->
<g id="Node000017" class="node">
<title>Node17</title>
<g id="a_Node000017"><a xlink:href="mingw_8h.html" target="_top" xlink:title=" ">
<polygon fill="white" stroke="#666666" points="2493.5,-74 2381.5,-74 2381.5,-55 2493.5,-55 2493.5,-74"/>
<text text-anchor="middle" x="2437.5" y="-62" font-family="Helvetica,sans-Serif" font-size="10.00">compat/os/mingw.h</text>
</a>
</g>
</g>
<!-- Node5&#45;&gt;Node17 -->
<g id="edge15_Node000005_Node000017" class="edge">
<title>Node5&#45;&gt;Node17</title>
<g id="a_edge15_Node000005_Node000017"><a xlink:title=" ">
<path fill="none" stroke="#63b8ff" d="M1576.68,-117.19C1707.28,-113.57 2063.76,-101.8 2371.16,-74.05"/>
<polygon fill="#63b8ff" stroke="#63b8ff" points="2371.52,-77.53 2381.16,-73.14 2370.88,-70.56 2371.52,-77.53"/>
</a>
</g>
</g>
<!-- Node18 -->
<g id="Node000018" class="node">
<title>Node18</title>
<g id="a_Node000018"><a xlink:href="mswindows_8h.html" target="_top" xlink:title=" ">
<polygon fill="white" stroke="#666666" points="2649,-74 2512,-74 2512,-55 2649,-55 2649,-74"/>
<text text-anchor="middle" x="2580.5" y="-62" font-family="Helvetica,sans-Serif" font-size="10.00">compat/os/mswindows.h</text>
</a>
</g>
</g>
<!-- Node5&#45;&gt;Node18 -->
<g id="edge16_Node000005_Node000018" class="edge">
<title>Node5&#45;&gt;Node18</title>
<g id="a_edge16_Node000005_Node000018"><a xlink:title=" ">
<path fill="none" stroke="#63b8ff" d="M1576.68,-117.31C1720.56,-113.71 2141,-101.52 2501.51,-74.02"/>
<polygon fill="#63b8ff" stroke="#63b8ff" points="2501.92,-77.5 2511.62,-73.24 2501.38,-70.52 2501.92,-77.5"/>
</a>
</g>
</g>
<!-- Node19 -->
<g id="Node000019" class="node">
<title>Node19</title>
<g id="a_Node000019"><a xlink:href="netbsd_8h.html" target="_top" xlink:title=" ">
<polygon fill="white" stroke="#666666" points="2780,-74 2667,-74 2667,-55 2780,-55 2780,-74"/>
<text text-anchor="middle" x="2723.5" y="-62" font-family="Helvetica,sans-Serif" font-size="10.00">compat/os/netbsd.h</text>
</a>
</g>
</g>
<!-- Node5&#45;&gt;Node19 -->
<g id="edge17_Node000005_Node000019" class="edge">
<title>Node5&#45;&gt;Node19</title>
<g id="a_edge17_Node000005_Node000019"><a xlink:title=" ">
<path fill="none" stroke="#63b8ff" d="M1576.65,-118.11C1735.32,-116.54 2233.4,-109.03 2656.67,-73.98"/>
<polygon fill="#63b8ff" stroke="#63b8ff" points="2656.98,-77.47 2666.65,-73.15 2656.4,-70.49 2656.98,-77.47"/>
</a>
</g>
</g>
<!-- Node20 -->
<g id="Node000020" class="node">
<title>Node20</title>
<g id="a_Node000020"><a xlink:href="openbsd_8h.html" target="_top" xlink:title=" ">
<polygon fill="white" stroke="#666666" points="2919,-74 2798,-74 2798,-55 2919,-55 2919,-74"/>
<text text-anchor="middle" x="2858.5" y="-62" font-family="Helvetica,sans-Serif" font-size="10.00">compat/os/openbsd.h</text>
</a>
</g>
</g>
<!-- Node5&#45;&gt;Node20 -->
<g id="edge18_Node000005_Node000020" class="edge">
<title>Node5&#45;&gt;Node20</title>
<g id="a_edge18_Node000005_Node000020"><a xlink:title=" ">
<path fill="none" stroke="#63b8ff" d="M1576.72,-118.27C1747.13,-117.16 2310.7,-110.82 2787.64,-73.98"/>
<polygon fill="#63b8ff" stroke="#63b8ff" points="2788.13,-77.46 2797.83,-73.19 2787.58,-70.48 2788.13,-77.46"/>
</a>
</g>
</g>
<!-- Node21 -->
<g id="Node000021" class="node">
<title>Node21</title>
<g id="a_Node000021"><a xlink:href="os2_8h.html" target="_top" xlink:title=" ">
<polygon fill="white" stroke="#666666" points="97,-74 0,-74 0,-55 97,-55 97,-74"/>
<text text-anchor="middle" x="48.5" y="-62" font-family="Helvetica,sans-Serif" font-size="10.00">compat/os/os2.h</text>
</a>
</g>
</g>
<!-- Node5&#45;&gt;Node21 -->
<g id="edge19_Node000005_Node000021" class="edge">
<title>Node5&#45;&gt;Node21</title>
<g id="a_edge19_Node000005_Node000021"><a xlink:title=" ">
<path fill="none" stroke="#63b8ff" d="M1474.48,-110.87C1471.45,-110.54 1468.44,-110.25 1465.5,-110 866.78,-59.83 710.23,-125.16 107.44,-73.94"/>
<polygon fill="#63b8ff" stroke="#63b8ff" points="107.45,-70.43 97.19,-73.06 106.85,-77.41 107.45,-70.43"/>
</a>
</g>
</g>
<!-- Node22 -->
<g id="Node000022" class="node">
<title>Node22</title>
<g id="a_Node000022"><a xlink:href="qnx_8h.html" target="_top" xlink:title=" ">
<polygon fill="white" stroke="#666666" points="213.5,-74 115.5,-74 115.5,-55 213.5,-55 213.5,-74"/>
<text text-anchor="middle" x="164.5" y="-62" font-family="Helvetica,sans-Serif" font-size="10.00">compat/os/qnx.h</text>
</a>
</g>
</g>
<!-- Node5&#45;&gt;Node22 -->
<g id="edge20_Node000005_Node000022" class="edge">
<title>Node5&#45;&gt;Node22</title>
<g id="a_edge20_Node000005_Node000022"><a xlink:title=" ">
<path fill="none" stroke="#63b8ff" d="M1474.48,-110.88C1471.45,-110.55 1468.44,-110.25 1465.5,-110 918.17,-63.45 774.82,-121.44 223.7,-73.98"/>
<polygon fill="#63b8ff" stroke="#63b8ff" points="223.77,-70.47 213.5,-73.09 223.16,-77.44 223.77,-70.47"/>
</a>
</g>
</g>
<!-- Node23 -->
<g id="Node000023" class="node">
<title>Node23</title>
<g id="a_Node000023"><a xlink:href="sgi_8h.html" target="_top" xlink:title=" ">
<polygon fill="white" stroke="#666666" points="325.5,-74 231.5,-74 231.5,-55 325.5,-55 325.5,-74"/>
<text text-anchor="middle" x="278.5" y="-62" font-family="Helvetica,sans-Serif" font-size="10.00">compat/os/sgi.h</text>
</a>
</g>
</g>
<!-- Node5&#45;&gt;Node23 -->
<g id="edge21_Node000005_Node000023" class="edge">
<title>Node5&#45;&gt;Node23</title>
<g id="a_edge21_Node000005_Node000023"><a xlink:title=" ">
<path fill="none" stroke="#63b8ff" d="M1474.48,-110.89C1471.45,-110.55 1468.43,-110.25 1465.5,-110 967.75,-66.95 837.05,-119.12 335.54,-73.96"/>
<polygon fill="#63b8ff" stroke="#63b8ff" points="335.78,-70.47 325.5,-73.05 335.15,-77.44 335.78,-70.47"/>
</a>
</g>
</g>
<!-- Node24 -->
<g id="Node000024" class="node">
<title>Node24</title>
<g id="a_Node000024"><a xlink:href="solaris_8h.html" target="_top" xlink:title=" ">
<polygon fill="white" stroke="#666666" points="455.5,-74 343.5,-74 343.5,-55 455.5,-55 455.5,-74"/>
<text text-anchor="middle" x="399.5" y="-62" font-family="Helvetica,sans-Serif" font-size="10.00">compat/os/solaris.h</text>
</a>
</g>
</g>
<!-- Node5&#45;&gt;Node24 -->
<g id="edge22_Node000005_Node000024" class="edge">
<title>Node5&#45;&gt;Node24</title>
<g id="a_edge22_Node000005_Node000024"><a xlink:title=" ">
<path fill="none" stroke="#63b8ff" d="M1474.48,-110.9C1471.44,-110.56 1468.43,-110.26 1465.5,-110 1025.42,-71.02 909.89,-110.3 466.05,-74.04"/>
<polygon fill="#63b8ff" stroke="#63b8ff" points="466.09,-70.53 455.84,-73.2 465.51,-77.51 466.09,-70.53"/>
</a>
</g>
</g>
<!-- Node25 -->
<g id="Node000025" class="node">
<title>Node25</title>
<g id="a_Node000025"><a xlink:href="sunos_8h.html" target="_top" xlink:title=" ">
<polygon fill="white" stroke="#666666" points="581.5,-74 473.5,-74 473.5,-55 581.5,-55 581.5,-74"/>
<text text-anchor="middle" x="527.5" y="-62" font-family="Helvetica,sans-Serif" font-size="10.00">compat/os/sunos.h</text>
</a>
</g>
</g>
<!-- Node5&#45;&gt;Node25 -->
<g id="edge23_Node000005_Node000025" class="edge">
<title>Node5&#45;&gt;Node25</title>
<g id="a_edge23_Node000005_Node000025"><a xlink:title=" ">
<path fill="none" stroke="#63b8ff" d="M1474.48,-110.92C1471.44,-110.58 1468.43,-110.27 1465.5,-110 1081.2,-74.96 979.95,-107.49 591.86,-74.03"/>
<polygon fill="#63b8ff" stroke="#63b8ff" points="592.03,-70.53 581.76,-73.15 591.42,-77.5 592.03,-70.53"/>
</a>
</g>
</g>
<!-- Node26 -->
<g id="Node000026" class="node">
<title>Node26</title>
<g id="a_Node000026"><a xlink:href="assert_8h.html" target="_top" xlink:title=" ">
<polygon fill="white" stroke="#666666" points="695,-74 600,-74 600,-55 695,-55 695,-74"/>
<text text-anchor="middle" x="647.5" y="-62" font-family="Helvetica,sans-Serif" font-size="10.00">compat/assert.h</text>
</a>
</g>
</g>
<!-- Node5&#45;&gt;Node26 -->
<g id="edge24_Node000005_Node000026" class="edge">
<title>Node5&#45;&gt;Node26</title>
<g id="a_edge24_Node000005_Node000026"><a xlink:title=" ">
<path fill="none" stroke="#63b8ff" d="M1474.48,-110.94C1471.44,-110.59 1468.43,-110.28 1465.5,-110 1131.69,-78.53 1043.21,-106.46 705.12,-73.94"/>
<polygon fill="#63b8ff" stroke="#63b8ff" points="705.33,-70.44 695.04,-72.96 704.66,-77.41 705.33,-70.44"/>
</a>
</g>
</g>
<!-- Node27 -->
<g id="Node000027" class="node">
<title>Node27</title>
<g id="a_Node000027"><a xlink:href="compat__shared_8h.html" target="_top" xlink:title=" ">
<polygon fill="#fff0f0" stroke="red" points="853.5,-74 713.5,-74 713.5,-55 853.5,-55 853.5,-74"/>
<text text-anchor="middle" x="783.5" y="-62" font-family="Helvetica,sans-Serif" font-size="10.00">compat/compat_shared.h</text>
</a>
</g>
</g>
<!-- Node5&#45;&gt;Node27 -->
<g id="edge25_Node000005_Node000027" class="edge">
<title>Node5&#45;&gt;Node27</title>
<g id="a_edge25_Node000005_Node000027"><a xlink:title=" ">
<path fill="none" stroke="#63b8ff" d="M1474.47,-110.98C1471.44,-110.63 1468.43,-110.29 1465.5,-110 1201.63,-83.48 1131.74,-96.05 863.72,-74.06"/>
<polygon fill="#63b8ff" stroke="#63b8ff" points="863.95,-70.57 853.69,-73.23 863.37,-77.54 863.95,-70.57"/>
</a>
</g>
</g>
<!-- Node37 -->
<g id="Node000037" class="node">
<title>Node37</title>
<g id="a_Node000037"><a xlink:href="stdvarargs_8h.html" target="_top" xlink:title=" ">
<polygon fill="#fff0f0" stroke="red" points="989,-74 872,-74 872,-55 989,-55 989,-74"/>
<text text-anchor="middle" x="930.5" y="-62" font-family="Helvetica,sans-Serif" font-size="10.00">compat/stdvarargs.h</text>
</a>
</g>
</g>
<!-- Node5&#45;&gt;Node37 -->
<g id="edge26_Node000005_Node000037" class="edge">
<title>Node5&#45;&gt;Node37</title>
<g id="a_edge26_Node000005_Node000037"><a xlink:title=" ">
<path fill="none" stroke="#63b8ff" d="M1474.46,-111.04C1471.43,-110.67 1468.43,-110.32 1465.5,-110 1261.36,-87.71 1206.74,-94.9 999.3,-74.14"/>
<polygon fill="#63b8ff" stroke="#63b8ff" points="999.61,-70.65 989.31,-73.13 998.9,-77.62 999.61,-70.65"/>
</a>
</g>
</g>
<!-- Node39 -->
<g id="Node000039" class="node">
<title>Node39</title>
<g id="a_Node000039"><a xlink:href="stdio_8h.html" target="_top" xlink:title=" ">
<polygon fill="#fff0f0" stroke="red" points="1096,-74 1007,-74 1007,-55 1096,-55 1096,-74"/>
<text text-anchor="middle" x="1051.5" y="-62" font-family="Helvetica,sans-Serif" font-size="10.00">compat/stdio.h</text>
</a>
</g>
</g>
<!-- Node5&#45;&gt;Node39 -->
<g id="edge27_Node000005_Node000039" class="edge">
<title>Node5&#45;&gt;Node39</title>
<g id="a_edge27_Node000005_Node000039"><a xlink:title=" ">
<path fill="none" stroke="#63b8ff" d="M1474.46,-111.12C1471.43,-110.73 1468.42,-110.35 1465.5,-110 1308.7,-91.08 1266.13,-94.62 1106.21,-74.15"/>
<polygon fill="#63b8ff" stroke="#63b8ff" points="1106.37,-70.64 1096.01,-72.83 1105.47,-77.59 1106.37,-70.64"/>
</a>
</g>
</g>
<!-- Node46 -->
<g id="Node000046" class="node">
<title>Node46</title>
<g id="a_Node000046"><a xlink:href="Assure_8h.html" target="_top" xlink:title=" ">
<polygon fill="white" stroke="#666666" points="3844,-74 3759,-74 3759,-55 3844,-55 3844,-74"/>
<text text-anchor="middle" x="3801.5" y="-62" font-family="Helvetica,sans-Serif" font-size="10.00">base/Assure.h</text>
</a>
</g>
</g>
<!-- Node45&#45;&gt;Node46 -->
<g id="edge29_Node000045_Node000046" class="edge">
<title>Node45&#45;&gt;Node46</title>
<g id="a_edge29_Node000045_Node000046"><a xlink:title=" ">
<path fill="none" stroke="#63b8ff" d="M3887.11,-109.98C3870.93,-101.57 3845.93,-88.59 3827.12,-78.81"/>
<polygon fill="#63b8ff" stroke="#63b8ff" points="3828.67,-75.68 3818.19,-74.17 3825.45,-81.89 3828.67,-75.68"/>
</a>
</g>
</g>
<!-- Node47 -->
<g id="Node000047" class="node">
<title>Node47</title>
<g id="a_Node000047"><a xlink:href="Here_8h.html" target="_top" xlink:title=" ">
<polygon fill="#fff0f0" stroke="red" points="3874,-19 3799,-19 3799,0 3874,0 3874,-19"/>
<text text-anchor="middle" x="3836.5" y="-7" font-family="Helvetica,sans-Serif" font-size="10.00">base/Here.h</text>
</a>
</g>
</g>
<!-- Node45&#45;&gt;Node47 -->
<g id="edge31_Node000045_Node000047" class="edge">
<title>Node45&#45;&gt;Node47</title>
<g id="a_edge31_Node000045_Node000047"><a xlink:title=" ">
<path fill="none" stroke="#63b8ff" d="M3898.02,-109.66C3886.92,-91.77 3861.63,-51 3847.17,-27.69"/>
<polygon fill="#63b8ff" stroke="#63b8ff" points="3850.12,-25.81 3841.87,-19.16 3844.17,-29.5 3850.12,-25.81"/>
</a>
</g>
</g>
<!-- Node49 -->
<g id="Node000049" class="node">
<title>Node49</title>
<g id="a_Node000049"><a xlink:title=" ">
<polygon fill="#e0e0e0" stroke="#999999" points="3966,-74 3901,-74 3901,-55 3966,-55 3966,-74"/>
<text text-anchor="middle" x="3933.5" y="-62" font-family="Helvetica,sans-Serif" font-size="10.00">stdexcept</text>
</a>
</g>
</g>
<!-- Node45&#45;&gt;Node49 -->
<g id="edge32_Node000045_Node000049" class="edge">
<title>Node45&#45;&gt;Node49</title>
<g id="a_edge32_Node000045_Node000049"><a xlink:title=" ">
<path fill="none" stroke="#63b8ff" d="M3908.45,-109.75C3912.56,-102.49 3918.53,-91.95 3923.6,-82.98"/>
<polygon fill="#63b8ff" stroke="#63b8ff" points="3926.76,-84.52 3928.64,-74.09 3920.67,-81.07 3926.76,-84.52"/>
</a>
</g>
</g>
<!-- Node46&#45;&gt;Node47 -->
<g id="edge30_Node000046_Node000047" class="edge">
<title>Node46&#45;&gt;Node47</title>
<g id="a_edge30_Node000046_Node000047"><a xlink:title=" ">
<path fill="none" stroke="#63b8ff" d="M3807.28,-54.75C3812.12,-47.42 3819.18,-36.73 3825.14,-27.7"/>
<polygon fill="#63b8ff" stroke="#63b8ff" points="3828.24,-29.36 3830.83,-19.09 3822.4,-25.5 3828.24,-29.36"/>
</a>
</g>
</g>
<!-- Node51 -->
<g id="Node000051" class="node">
<title>Node51</title>
<g id="a_Node000051"><a xlink:href="cmsg_8h.html" target="_top" xlink:title=" ">
<polygon fill="white" stroke="#666666" points="4073.5,-129 3981.5,-129 3981.5,-110 4073.5,-110 4073.5,-129"/>
<text text-anchor="middle" x="4027.5" y="-117" font-family="Helvetica,sans-Serif" font-size="10.00">compat/cmsg.h</text>
</a>
</g>
</g>
<!-- Node50&#45;&gt;Node51 -->
<g id="edge34_Node000050_Node000051" class="edge">
<title>Node50&#45;&gt;Node51</title>
<g id="a_edge34_Node000050_Node000051"><a xlink:title=" ">
<path fill="none" stroke="#63b8ff" d="M3948.6,-164.98C3963.32,-156.69 3985.92,-143.94 4003.17,-134.22"/>
<polygon fill="#63b8ff" stroke="#63b8ff" points="4005.13,-137.13 4012.12,-129.17 4001.69,-131.03 4005.13,-137.13"/>
</a>
</g>
</g>
<!-- Node52 -->
<g id="Node000052" class="node">
<title>Node52</title>
<g id="a_Node000052"><a xlink:href="ipc_2Messages_8h.html" target="_top" xlink:title=" ">
<polygon fill="white" stroke="#666666" points="4183.5,-129 4091.5,-129 4091.5,-110 4183.5,-110 4183.5,-129"/>
<text text-anchor="middle" x="4137.5" y="-117" font-family="Helvetica,sans-Serif" font-size="10.00">ipc/Messages.h</text>
</a>
</g>
</g>
<!-- Node50&#45;&gt;Node52 -->
<g id="edge35_Node000050_Node000052" class="edge">
<title>Node50&#45;&gt;Node52</title>
<g id="a_edge35_Node000050_Node000052"><a xlink:title=" ">
<path fill="none" stroke="#63b8ff" d="M3966.28,-164.98C4001.12,-155.93 4056.37,-141.58 4094.64,-131.64"/>
<polygon fill="#63b8ff" stroke="#63b8ff" points="4095.67,-134.98 4104.47,-129.08 4093.91,-128.21 4095.67,-134.98"/>
</a>
</g>
</g>
<!-- Node53 -->
<g id="Node000053" class="node">
<title>Node53</title>
<g id="a_Node000053"><a xlink:title=" ">
<polygon fill="#e0e0e0" stroke="#999999" points="4271,-129 4202,-129 4202,-110 4271,-110 4271,-129"/>
<text text-anchor="middle" x="4236.5" y="-117" font-family="Helvetica,sans-Serif" font-size="10.00">type_traits</text>
</a>
</g>
</g>
<!-- Node50&#45;&gt;Node53 -->
<g id="edge36_Node000050_Node000053" class="edge">
<title>Node50&#45;&gt;Node53</title>
<g id="a_edge36_Node000050_Node000053"><a xlink:title=" ">
<path fill="none" stroke="#63b8ff" d="M3985.15,-164.95C4035.32,-156.57 4113.91,-143.25 4191.92,-129.07"/>
<polygon fill="#63b8ff" stroke="#63b8ff" points="4192.72,-132.49 4201.93,-127.25 4191.46,-125.6 4192.72,-132.49"/>
</a>
</g>
</g>
<!-- Node55 -->
<g id="Node000055" class="node">
<title>Node55</title>
<g id="a_Node000055"><a xlink:href="Range_8h.html" target="_top" xlink:title=" ">
<polygon fill="#fff0f0" stroke="red" points="3195,-129 3112,-129 3112,-110 3195,-110 3195,-129"/>
<text text-anchor="middle" x="3153.5" y="-117" font-family="Helvetica,sans-Serif" font-size="10.00">base/Range.h</text>
</a>
</g>
</g>
<!-- Node54&#45;&gt;Node55 -->
<g id="edge38_Node000054_Node000055" class="edge">
<title>Node54&#45;&gt;Node55</title>
<g id="a_edge38_Node000054_Node000055"><a xlink:title=" ">
<path fill="none" stroke="#63b8ff" d="M3103.14,-164.98C3112.01,-157.15 3125.37,-145.34 3136.11,-135.86"/>
<polygon fill="#63b8ff" stroke="#63b8ff" points="3138.51,-138.41 3143.68,-129.17 3133.87,-133.17 3138.51,-138.41"/>
</a>
</g>
</g>
<!-- Node57 -->
<g id="Node000057" class="node">
<title>Node57</title>
<g id="a_Node000057"><a xlink:href="ipc_2forward_8h.html" target="_top" xlink:title=" ">
<polygon fill="white" stroke="#666666" points="3093.5,-129 3013.5,-129 3013.5,-110 3093.5,-110 3093.5,-129"/>
<text text-anchor="middle" x="3053.5" y="-117" font-family="Helvetica,sans-Serif" font-size="10.00">ipc/forward.h</text>
</a>
</g>
</g>
<!-- Node54&#45;&gt;Node57 -->
<g id="edge39_Node000054_Node000057" class="edge">
<title>Node54&#45;&gt;Node57</title>
<g id="a_edge39_Node000054_Node000057"><a xlink:title=" ">
<path fill="none" stroke="#63b8ff" d="M3086.89,-164.75C3081.24,-157.26 3072.96,-146.28 3066.05,-137.13"/>
<polygon fill="#63b8ff" stroke="#63b8ff" points="3068.8,-134.96 3059.98,-129.09 3063.21,-139.18 3068.8,-134.96"/>
</a>
</g>
</g>
<!-- Node58 -->
<g id="Node000058" class="node">
<title>Node58</title>
<g id="a_Node000058"><a xlink:href="snmp_8h.html" target="_top" xlink:title=" ">
<polygon fill="#fff0f0" stroke="red" points="3178,-74 3125,-74 3125,-55 3178,-55 3178,-74"/>
<text text-anchor="middle" x="3151.5" y="-62" font-family="Helvetica,sans-Serif" font-size="10.00">snmp.h</text>
</a>
</g>
</g>
<!-- Node54&#45;&gt;Node58 -->
<g id="edge40_Node000054_Node000058" class="edge">
<title>Node54&#45;&gt;Node58</title>
<g id="a_edge40_Node000054_Node000058"><a xlink:title=" ">
<path fill="none" stroke="#63b8ff" d="M3061.57,-164.95C3028.98,-154.61 2985.67,-135.38 3004.5,-110 3029.63,-76.14 3079.81,-67.13 3114.5,-65.19"/>
<polygon fill="#63b8ff" stroke="#63b8ff" points="3114.86,-68.68 3124.72,-64.8 3114.59,-61.69 3114.86,-68.68"/>
</a>
</g>
</g>
<!-- Node58&#45;&gt;Node4 -->
<g id="edge42_Node000058_Node000004" class="edge">
<title>Node58&#45;&gt;Node4</title>
<g id="a_edge42_Node000058_Node000004"><a xlink:title=" ">
<path fill="none" stroke="#63b8ff" d="M3133.83,-54.98C3116.21,-46.5 3088.92,-33.35 3068.57,-23.54"/>
<polygon fill="#63b8ff" stroke="#63b8ff" points="3070.02,-20.36 3059.49,-19.17 3066.98,-26.66 3070.02,-20.36"/>
</a>
</g>
</g>
<!-- Node64 -->
<g id="Node000064" class="node">
<title>Node64</title>
<g id="a_Node000064"><a xlink:href="snmp__vars_8h.html" target="_top" xlink:title=" ">
<polygon fill="#fff0f0" stroke="red" points="3263,-19 3184,-19 3184,0 3263,0 3263,-19"/>
<text text-anchor="middle" x="3223.5" y="-7" font-family="Helvetica,sans-Serif" font-size="10.00">snmp_vars.h</text>
</a>
</g>
</g>
<!-- Node58&#45;&gt;Node64 -->
<g id="edge41_Node000058_Node000064" class="edge">
<title>Node58&#45;&gt;Node64</title>
<g id="a_edge41_Node000058_Node000064"><a xlink:title=" ">
<path fill="none" stroke="#63b8ff" d="M3163.07,-54.98C3173.92,-47 3190.38,-34.88 3203.38,-25.31"/>
<polygon fill="#63b8ff" stroke="#63b8ff" points="3205.74,-27.92 3211.72,-19.17 3201.59,-22.28 3205.74,-27.92"/>
</a>
</g>
</g>
<!-- Node72&#45;&gt;Node55 -->
<g id="edge44_Node000072_Node000055" class="edge">
<title>Node72&#45;&gt;Node55</title>
<g id="a_edge44_Node000072_Node000055"><a xlink:title=" ">
<path fill="none" stroke="#63b8ff" d="M3182.72,-164.75C3177.88,-157.42 3170.82,-146.73 3164.86,-137.7"/>
<polygon fill="#63b8ff" stroke="#63b8ff" points="3167.6,-135.5 3159.17,-129.09 3161.76,-139.36 3167.6,-135.5"/>
</a>
</g>
</g>
<!-- Node72&#45;&gt;Node57 -->
<g id="edge45_Node000072_Node000057" class="edge">
<title>Node72&#45;&gt;Node57</title>
<g id="a_edge45_Node000072_Node000057"><a xlink:title=" ">
<path fill="none" stroke="#63b8ff" d="M3166.81,-164.98C3144.7,-156.3 3110.18,-142.75 3085.05,-132.88"/>
<polygon fill="#63b8ff" stroke="#63b8ff" points="3086.17,-129.57 3075.58,-129.17 3083.61,-136.08 3086.17,-129.57"/>
</a>
</g>
</g>
<!-- Node72&#45;&gt;Node64 -->
<g id="edge46_Node000072_Node000064" class="edge">
<title>Node72&#45;&gt;Node64</title>
<g id="a_edge46_Node000072_Node000064"><a xlink:title=" ">
<path fill="none" stroke="#63b8ff" d="M3191.91,-164.76C3195.26,-155.87 3200.32,-141.65 3203.5,-129 3212.24,-94.22 3218.26,-52.73 3221.27,-29.21"/>
<polygon fill="#63b8ff" stroke="#63b8ff" points="3224.75,-29.57 3222.51,-19.22 3217.81,-28.72 3224.75,-29.57"/>
</a>
</g>
</g>
<!-- Node73&#45;&gt;Node64 -->
<g id="edge55_Node000073_Node000064" class="edge">
<title>Node73&#45;&gt;Node64</title>
<g id="a_edge55_Node000073_Node000064"><a xlink:title=" ">
<path fill="none" stroke="#63b8ff" d="M3506.76,-166.81C3473.05,-160.16 3424,-148.14 3384.5,-129 3326.48,-100.88 3267.88,-51.17 3240.1,-26.01"/>
<polygon fill="#63b8ff" stroke="#63b8ff" points="3242.24,-23.22 3232.5,-19.04 3237.5,-28.38 3242.24,-23.22"/>
</a>
</g>
</g>
<!-- Node74 -->
<g id="Node000074" class="node">
<title>Node74</title>
<g id="a_Node000074"><a xlink:href="Data_8h.html" target="_top" xlink:title=" ">
<polygon fill="#fff0f0" stroke="red" points="3825.5,-129 3759.5,-129 3759.5,-110 3825.5,-110 3825.5,-129"/>
<text text-anchor="middle" x="3792.5" y="-117" font-family="Helvetica,sans-Serif" font-size="10.00">acl/Data.h</text>
</a>
</g>
</g>
<!-- Node73&#45;&gt;Node74 -->
<g id="edge48_Node000073_Node000074" class="edge">
<title>Node73&#45;&gt;Node74</title>
<g id="a_edge48_Node000073_Node000074"><a xlink:title=" ">
<path fill="none" stroke="#63b8ff" d="M3586.02,-164.98C3630.72,-155.35 3703.27,-139.72 3749.39,-129.79"/>
<polygon fill="#63b8ff" stroke="#63b8ff" points="3750.34,-133.16 3759.38,-127.63 3748.87,-126.32 3750.34,-133.16"/>
</a>
</g>
</g>
<!-- Node109 -->
<g id="Node000109" class="node">
<title>Node109</title>
<g id="a_Node000109"><a xlink:href="ParameterizedNode_8h.html" target="_top" xlink:title=" ">
<polygon fill="#fff0f0" stroke="red" points="3741,-129 3602,-129 3602,-110 3741,-110 3741,-129"/>
<text text-anchor="middle" x="3671.5" y="-117" font-family="Helvetica,sans-Serif" font-size="10.00">acl/ParameterizedNode.h</text>
</a>
</g>
</g>
<!-- Node73&#45;&gt;Node109 -->
<g id="edge49_Node000073_Node000109" class="edge">
<title>Node73&#45;&gt;Node109</title>
<g id="a_edge49_Node000073_Node000109"><a xlink:title=" ">
<path fill="none" stroke="#63b8ff" d="M3566.58,-164.98C3586.87,-156.38 3618.46,-142.99 3641.67,-133.15"/>
<polygon fill="#63b8ff" stroke="#63b8ff" points="3643.21,-136.3 3651.05,-129.17 3640.48,-129.85 3643.21,-136.3"/>
</a>
</g>
</g>
<!-- Node113 -->
<g id="Node000113" class="node">
<title>Node113</title>
<g id="a_Node000113"><a xlink:href="cache__snmp_8h.html" target="_top" xlink:title=" ">
<polygon fill="#fff0f0" stroke="red" points="3337.5,-129 3251.5,-129 3251.5,-110 3337.5,-110 3337.5,-129"/>
<text text-anchor="middle" x="3294.5" y="-117" font-family="Helvetica,sans-Serif" font-size="10.00">cache_snmp.h</text>
</a>
</g>
</g>
<!-- Node73&#45;&gt;Node113 -->
<g id="edge51_Node000073_Node000113" class="edge">
<title>Node73&#45;&gt;Node113</title>
<g id="a_edge51_Node000073_Node000113"><a xlink:title=" ">
<path fill="none" stroke="#63b8ff" d="M3506.85,-165.16C3463.11,-155.96 3392.62,-141.14 3344.98,-131.12"/>
<polygon fill="#63b8ff" stroke="#63b8ff" points="3345.68,-127.69 3335.17,-129.05 3344.24,-134.54 3345.68,-127.69"/>
</a>
</g>
</g>
<!-- Node114 -->
<g id="Node000114" class="node">
<title>Node114</title>
<g id="a_Node000114"><a xlink:href="comm_2forward_8h.html" target="_top" xlink:title=" ">
<polygon fill="#fff0f0" stroke="red" points="3491,-129 3394,-129 3394,-110 3491,-110 3491,-129"/>
<text text-anchor="middle" x="3442.5" y="-117" font-family="Helvetica,sans-Serif" font-size="10.00">comm/forward.h</text>
</a>
</g>
</g>
<!-- Node73&#45;&gt;Node114 -->
<g id="edge53_Node000073_Node000114" class="edge">
<title>Node73&#45;&gt;Node114</title>
<g id="a_edge53_Node000073_Node000114"><a xlink:title=" ">
<path fill="none" stroke="#63b8ff" d="M3529.79,-164.98C3513.29,-156.57 3487.8,-143.59 3468.62,-133.81"/>
<polygon fill="#63b8ff" stroke="#63b8ff" points="3470.01,-130.59 3459.51,-129.17 3466.83,-136.83 3470.01,-130.59"/>
</a>
</g>
</g>
<!-- Node115 -->
<g id="Node000115" class="node">
<title>Node115</title>
<g id="a_Node000115"><a xlink:href="ip_2forward_8h.html" target="_top" xlink:title=" ">
<polygon fill="white" stroke="#666666" points="3584,-129 3509,-129 3509,-110 3584,-110 3584,-129"/>
<text text-anchor="middle" x="3546.5" y="-117" font-family="Helvetica,sans-Serif" font-size="10.00">ip/forward.h</text>
</a>
</g>
</g>
<!-- Node73&#45;&gt;Node115 -->
<g id="edge54_Node000073_Node000115" class="edge">
<title>Node73&#45;&gt;Node115</title>
<g id="a_edge54_Node000073_Node000115"><a xlink:title=" ">
<path fill="none" stroke="#63b8ff" d="M3546.5,-164.75C3546.5,-157.8 3546.5,-147.85 3546.5,-139.13"/>
<polygon fill="#63b8ff" stroke="#63b8ff" points="3550,-139.09 3546.5,-129.09 3543,-139.09 3550,-139.09"/>
</a>
</g>
</g>
<!-- Node109&#45;&gt;Node46 -->
<g id="edge50_Node000109_Node000046" class="edge">
<title>Node109&#45;&gt;Node46</title>
<g id="a_edge50_Node000109_Node000046"><a xlink:title=" ">
<path fill="none" stroke="#63b8ff" d="M3692.39,-109.98C3713.58,-101.34 3746.63,-87.87 3770.8,-78.02"/>
<polygon fill="#63b8ff" stroke="#63b8ff" points="3772.29,-81.19 3780.23,-74.17 3769.65,-74.7 3772.29,-81.19"/>
</a>
</g>
</g>
<!-- Node113&#45;&gt;Node58 -->
<g id="edge52_Node000113_Node000058" class="edge">
<title>Node113&#45;&gt;Node58</title>
<g id="a_edge52_Node000113_Node000058"><a xlink:title=" ">
<path fill="none" stroke="#63b8ff" d="M3271.52,-109.98C3248,-101.27 3211.21,-87.63 3184.56,-77.75"/>
<polygon fill="#63b8ff" stroke="#63b8ff" points="3185.49,-74.36 3174.89,-74.17 3183.05,-80.93 3185.49,-74.36"/>
</a>
</g>
</g>
</g>
</svg>
