<?xml version="1.0" encoding="UTF-8" standalone="no"?>
<!DOCTYPE svg PUBLIC "-//W3C//DTD SVG 1.1//EN"
 "http://www.w3.org/Graphics/SVG/1.1/DTD/svg11.dtd">
<!-- Generated by graphviz version 2.43.0 (0)
 -->
<!-- Title: squid/src/PeerPoolMgr.h Pages: 1 -->
<svg width="1021pt" height="82pt"
 viewBox="0.00 0.00 1021.00 82.00" xmlns="http://www.w3.org/2000/svg" xmlns:xlink="http://www.w3.org/1999/xlink">
<g id="graph0" class="graph" transform="scale(1 1) rotate(0) translate(4 78)">
<title>squid/src/PeerPoolMgr.h</title>
<!-- Node1 -->
<g id="Node000001" class="node">
<title>Node1</title>
<g id="a_Node000001"><a xlink:title=" ">
<polygon fill="#999999" stroke="#666666" points="606.5,-74 473.5,-74 473.5,-55 606.5,-55 606.5,-74"/>
<text text-anchor="middle" x="540" y="-62" font-family="Helvetica,sans-Serif" font-size="10.00">squid/src/PeerPoolMgr.h</text>
</a>
</g>
</g>
<!-- Node2 -->
<g id="Node000002" class="node">
<title>Node2</title>
<g id="a_Node000002"><a xlink:href="CachePeer_8cc.html" target="_top" xlink:title=" ">
<polygon fill="white" stroke="#666666" points="128,-19 0,-19 0,0 128,0 128,-19"/>
<text text-anchor="middle" x="64" y="-7" font-family="Helvetica,sans-Serif" font-size="10.00">squid/src/CachePeer.cc</text>
</a>
</g>
</g>
<!-- Node1&#45;&gt;Node2 -->
<g id="edge1_Node000001_Node000002" class="edge">
<title>Node1&#45;&gt;Node2</title>
<g id="a_edge1_Node000001_Node000002"><a xlink:title=" ">
<path fill="none" stroke="#63b8ff" d="M463.19,-55.16C382.09,-46.31 250.52,-31.88 137,-19 134.08,-18.67 131.1,-18.33 128.09,-17.98"/>
<polygon fill="#63b8ff" stroke="#63b8ff" points="462.99,-58.65 473.31,-56.26 463.75,-51.7 462.99,-58.65"/>
</a>
</g>
</g>
<!-- Node3 -->
<g id="Node000003" class="node">
<title>Node3</title>
<g id="a_Node000003"><a xlink:href="FwdState_8cc.html" target="_top" xlink:title=" ">
<polygon fill="white" stroke="#666666" points="268,-19 146,-19 146,0 268,0 268,-19"/>
<text text-anchor="middle" x="207" y="-7" font-family="Helvetica,sans-Serif" font-size="10.00">squid/src/FwdState.cc</text>
</a>
</g>
</g>
<!-- Node1&#45;&gt;Node3 -->
<g id="edge2_Node000001_Node000003" class="edge">
<title>Node1&#45;&gt;Node3</title>
<g id="a_edge2_Node000001_Node000003"><a xlink:title=" ">
<path fill="none" stroke="#63b8ff" d="M476.36,-53.37C413.83,-43.42 319.48,-28.4 260.65,-19.04"/>
<polygon fill="#63b8ff" stroke="#63b8ff" points="476.07,-56.87 486.5,-54.98 477.17,-49.96 476.07,-56.87"/>
</a>
</g>
</g>
<!-- Node4 -->
<g id="Node000004" class="node">
<title>Node4</title>
<g id="a_Node000004"><a xlink:href="HappyConnOpener_8cc.html" target="_top" xlink:title=" ">
<polygon fill="white" stroke="#666666" points="453.5,-19 286.5,-19 286.5,0 453.5,0 453.5,-19"/>
<text text-anchor="middle" x="370" y="-7" font-family="Helvetica,sans-Serif" font-size="10.00">squid/src/HappyConnOpener.cc</text>
</a>
</g>
</g>
<!-- Node1&#45;&gt;Node4 -->
<g id="edge3_Node000001_Node000004" class="edge">
<title>Node1&#45;&gt;Node4</title>
<g id="a_edge3_Node000001_Node000004"><a xlink:title=" ">
<path fill="none" stroke="#63b8ff" d="M502.88,-51.93C471.13,-42.03 426.15,-28.01 397.53,-19.08"/>
<polygon fill="#63b8ff" stroke="#63b8ff" points="502.1,-55.35 512.69,-54.98 504.18,-48.67 502.1,-55.35"/>
</a>
</g>
</g>
<!-- Node5 -->
<g id="Node000005" class="node">
<title>Node5</title>
<g id="a_Node000005"><a xlink:href="PeerPoolMgr_8cc.html" target="_top" xlink:title=" ">
<polygon fill="white" stroke="#666666" points="608.5,-19 471.5,-19 471.5,0 608.5,0 608.5,-19"/>
<text text-anchor="middle" x="540" y="-7" font-family="Helvetica,sans-Serif" font-size="10.00">squid/src/PeerPoolMgr.cc</text>
</a>
</g>
</g>
<!-- Node1&#45;&gt;Node5 -->
<g id="edge4_Node000001_Node000005" class="edge">
<title>Node1&#45;&gt;Node5</title>
<g id="a_edge4_Node000001_Node000005"><a xlink:title=" ">
<path fill="none" stroke="#63b8ff" d="M540,-44.66C540,-35.93 540,-25.99 540,-19.09"/>
<polygon fill="#63b8ff" stroke="#63b8ff" points="536.5,-44.75 540,-54.75 543.5,-44.75 536.5,-44.75"/>
</a>
</g>
</g>
<!-- Node6 -->
<g id="Node000006" class="node">
<title>Node6</title>
<g id="a_Node000006"><a xlink:href="cache__cf_8cc.html" target="_top" xlink:title=" ">
<polygon fill="white" stroke="#666666" points="745.5,-19 626.5,-19 626.5,0 745.5,0 745.5,-19"/>
<text text-anchor="middle" x="686" y="-7" font-family="Helvetica,sans-Serif" font-size="10.00">squid/src/cache_cf.cc</text>
</a>
</g>
</g>
<!-- Node1&#45;&gt;Node6 -->
<g id="edge5_Node000001_Node000006" class="edge">
<title>Node1&#45;&gt;Node6</title>
<g id="a_edge5_Node000001_Node000006"><a xlink:title=" ">
<path fill="none" stroke="#63b8ff" d="M572.92,-51.55C600.03,-41.71 637.83,-27.98 662.12,-19.17"/>
<polygon fill="#63b8ff" stroke="#63b8ff" points="571.66,-48.28 563.46,-54.98 574.05,-54.86 571.66,-48.28"/>
</a>
</g>
</g>
<!-- Node7 -->
<g id="Node000007" class="node">
<title>Node7</title>
<g id="a_Node000007"><a xlink:href="neighbors_8cc.html" target="_top" xlink:title=" ">
<polygon fill="white" stroke="#666666" points="888.5,-19 763.5,-19 763.5,0 888.5,0 888.5,-19"/>
<text text-anchor="middle" x="826" y="-7" font-family="Helvetica,sans-Serif" font-size="10.00">squid/src/neighbors.cc</text>
</a>
</g>
</g>
<!-- Node1&#45;&gt;Node7 -->
<g id="edge6_Node000001_Node000007" class="edge">
<title>Node1&#45;&gt;Node7</title>
<g id="a_edge6_Node000001_Node000007"><a xlink:title=" ">
<path fill="none" stroke="#63b8ff" d="M595.97,-53.13C649.59,-43.19 729.55,-28.37 779.69,-19.08"/>
<polygon fill="#63b8ff" stroke="#63b8ff" points="595.15,-49.72 585.95,-54.98 596.42,-56.6 595.15,-49.72"/>
</a>
</g>
</g>
<!-- Node8 -->
<g id="Node000008" class="node">
<title>Node8</title>
<g id="a_Node000008"><a xlink:href="pconn_8cc.html" target="_top" xlink:title=" ">
<polygon fill="white" stroke="#666666" points="1013,-19 907,-19 907,0 1013,0 1013,-19"/>
<text text-anchor="middle" x="960" y="-7" font-family="Helvetica,sans-Serif" font-size="10.00">squid/src/pconn.cc</text>
</a>
</g>
</g>
<!-- Node1&#45;&gt;Node8 -->
<g id="edge7_Node000001_Node000008" class="edge">
<title>Node1&#45;&gt;Node8</title>
<g id="a_edge7_Node000001_Node000008"><a xlink:title=" ">
<path fill="none" stroke="#63b8ff" d="M616.64,-54.26C689.15,-45.44 801.02,-31.67 898,-19 900.91,-18.62 903.89,-18.23 906.91,-17.82"/>
<polygon fill="#63b8ff" stroke="#63b8ff" points="616.18,-50.79 606.67,-55.47 617.02,-57.74 616.18,-50.79"/>
</a>
</g>
</g>
</g>
</svg>
