<?xml version="1.0" encoding="UTF-8" standalone="no"?>
<!DOCTYPE svg PUBLIC "-//W3C//DTD SVG 1.1//EN"
 "http://www.w3.org/Graphics/SVG/1.1/DTD/svg11.dtd">
<!-- Generated by graphviz version 2.43.0 (0)
 -->
<!-- Title: squid/src/icmp/pinger.cc Pages: 1 -->
<svg width="4146pt" height="247pt"
 viewBox="0.00 0.00 4146.00 247.00" xmlns="http://www.w3.org/2000/svg" xmlns:xlink="http://www.w3.org/1999/xlink">
<g id="graph0" class="graph" transform="scale(1 1) rotate(0) translate(4 243)">
<title>squid/src/icmp/pinger.cc</title>
<!-- Node1 -->
<g id="Node000001" class="node">
<title>Node1</title>
<g id="a_Node000001"><a xlink:title=" ">
<polygon fill="#999999" stroke="#666666" points="3716,-239 3582,-239 3582,-220 3716,-220 3716,-239"/>
<text text-anchor="middle" x="3649" y="-227" font-family="Helvetica,sans-Serif" font-size="10.00">squid/src/icmp/pinger.cc</text>
</a>
</g>
</g>
<!-- Node2 -->
<g id="Node000002" class="node">
<title>Node2</title>
<g id="a_Node000002"><a xlink:href="squid_8h.html" target="_top" xlink:title=" ">
<polygon fill="white" stroke="#666666" points="1530,-184 1478,-184 1478,-165 1530,-165 1530,-184"/>
<text text-anchor="middle" x="1504" y="-172" font-family="Helvetica,sans-Serif" font-size="10.00">squid.h</text>
</a>
</g>
</g>
<!-- Node1&#45;&gt;Node2 -->
<g id="edge1_Node000001_Node000002" class="edge">
<title>Node1&#45;&gt;Node2</title>
<g id="a_edge1_Node000001_Node000002"><a xlink:title=" ">
<path fill="none" stroke="#63b8ff" d="M3581.86,-226.84C3249.89,-218.64 1789.98,-182.57 1540.37,-176.4"/>
<polygon fill="#63b8ff" stroke="#63b8ff" points="1540.13,-172.89 1530.05,-176.14 1539.96,-179.89 1540.13,-172.89"/>
</a>
</g>
</g>
<!-- Node44 -->
<g id="Node000044" class="node">
<title>Node44</title>
<g id="a_Node000044"><a xlink:href="debug_2Stream_8h.html" target="_top" xlink:title=" ">
<polygon fill="white" stroke="#666666" points="3475,-184 3381,-184 3381,-165 3475,-165 3475,-184"/>
<text text-anchor="middle" x="3428" y="-172" font-family="Helvetica,sans-Serif" font-size="10.00">debug/Stream.h</text>
</a>
</g>
</g>
<!-- Node1&#45;&gt;Node44 -->
<g id="edge29_Node000001_Node000044" class="edge">
<title>Node1&#45;&gt;Node44</title>
<g id="a_edge29_Node000001_Node000044"><a xlink:title=" ">
<path fill="none" stroke="#63b8ff" d="M3613.49,-219.98C3575.51,-210.87 3515.13,-196.4 3473.64,-186.45"/>
<polygon fill="#63b8ff" stroke="#63b8ff" points="3474.33,-183.01 3463.79,-184.08 3472.69,-189.82 3474.33,-183.01"/>
</a>
</g>
</g>
<!-- Node51 -->
<g id="Node000051" class="node">
<title>Node51</title>
<g id="a_Node000051"><a xlink:href="Stopwatch_8h.html" target="_top" xlink:title=" ">
<polygon fill="white" stroke="#666666" points="3056.5,-184 2953.5,-184 2953.5,-165 3056.5,-165 3056.5,-184"/>
<text text-anchor="middle" x="3005" y="-172" font-family="Helvetica,sans-Serif" font-size="10.00">base/Stopwatch.h</text>
</a>
</g>
</g>
<!-- Node1&#45;&gt;Node51 -->
<g id="edge36_Node000001_Node000051" class="edge">
<title>Node1&#45;&gt;Node51</title>
<g id="a_edge36_Node000001_Node000051"><a xlink:title=" ">
<path fill="none" stroke="#63b8ff" d="M3582,-223.09C3479.32,-214.78 3276.87,-198.33 3105,-184 3092.6,-182.97 3079.34,-181.85 3066.66,-180.77"/>
<polygon fill="#63b8ff" stroke="#63b8ff" points="3066.9,-177.28 3056.64,-179.92 3066.31,-184.25 3066.9,-177.28"/>
</a>
</g>
</g>
<!-- Node53 -->
<g id="Node000053" class="node">
<title>Node53</title>
<g id="a_Node000053"><a xlink:href="TextException_8h.html" target="_top" xlink:title=" ">
<polygon fill="white" stroke="#666666" points="3234,-184 3114,-184 3114,-165 3234,-165 3234,-184"/>
<text text-anchor="middle" x="3174" y="-172" font-family="Helvetica,sans-Serif" font-size="10.00">base/TextException.h</text>
</a>
</g>
</g>
<!-- Node1&#45;&gt;Node53 -->
<g id="edge39_Node000001_Node000053" class="edge">
<title>Node1&#45;&gt;Node53</title>
<g id="a_edge39_Node000001_Node000053"><a xlink:title=" ">
<path fill="none" stroke="#63b8ff" d="M3581.95,-221.02C3492.6,-211.05 3335.21,-193.49 3244.26,-183.34"/>
<polygon fill="#63b8ff" stroke="#63b8ff" points="3244.65,-179.86 3234.32,-182.23 3243.87,-186.82 3244.65,-179.86"/>
</a>
</g>
</g>
<!-- Node56 -->
<g id="Node000056" class="node">
<title>Node56</title>
<g id="a_Node000056"><a xlink:href="select_8h.html" target="_top" xlink:title=" ">
<polygon fill="white" stroke="#666666" points="3696.5,-184 3601.5,-184 3601.5,-165 3696.5,-165 3696.5,-184"/>
<text text-anchor="middle" x="3649" y="-172" font-family="Helvetica,sans-Serif" font-size="10.00">compat/select.h</text>
</a>
</g>
</g>
<!-- Node1&#45;&gt;Node56 -->
<g id="edge44_Node000001_Node000056" class="edge">
<title>Node1&#45;&gt;Node56</title>
<g id="a_edge44_Node000001_Node000056"><a xlink:title=" ">
<path fill="none" stroke="#63b8ff" d="M3649,-219.75C3649,-212.8 3649,-202.85 3649,-194.13"/>
<polygon fill="#63b8ff" stroke="#63b8ff" points="3652.5,-194.09 3649,-184.09 3645.5,-194.09 3652.5,-194.09"/>
</a>
</g>
</g>
<!-- Node57 -->
<g id="Node000057" class="node">
<title>Node57</title>
<g id="a_Node000057"><a xlink:href="socket_8h.html" target="_top" xlink:title=" ">
<polygon fill="white" stroke="#666666" points="3811.5,-184 3714.5,-184 3714.5,-165 3811.5,-165 3811.5,-184"/>
<text text-anchor="middle" x="3763" y="-172" font-family="Helvetica,sans-Serif" font-size="10.00">compat/socket.h</text>
</a>
</g>
</g>
<!-- Node1&#45;&gt;Node57 -->
<g id="edge45_Node000001_Node000057" class="edge">
<title>Node1&#45;&gt;Node57</title>
<g id="a_edge45_Node000001_Node000057"><a xlink:title=" ">
<path fill="none" stroke="#63b8ff" d="M3667.32,-219.98C3685.66,-211.46 3714.11,-198.23 3735.23,-188.41"/>
<polygon fill="#63b8ff" stroke="#63b8ff" points="3736.76,-191.56 3744.35,-184.17 3733.81,-185.21 3736.76,-191.56"/>
</a>
</g>
</g>
<!-- Node58 -->
<g id="Node000058" class="node">
<title>Node58</title>
<g id="a_Node000058"><a xlink:href="Icmp4_8h.html" target="_top" xlink:title=" ">
<polygon fill="white" stroke="#666666" points="3984,-184 3928,-184 3928,-165 3984,-165 3984,-184"/>
<text text-anchor="middle" x="3956" y="-172" font-family="Helvetica,sans-Serif" font-size="10.00">Icmp4.h</text>
</a>
</g>
</g>
<!-- Node1&#45;&gt;Node58 -->
<g id="edge46_Node000001_Node000058" class="edge">
<title>Node1&#45;&gt;Node58</title>
<g id="a_edge46_Node000001_Node000058"><a xlink:title=" ">
<path fill="none" stroke="#63b8ff" d="M3707.12,-219.99C3759.68,-212.06 3839.42,-199.42 3917.72,-184.15"/>
<polygon fill="#63b8ff" stroke="#63b8ff" points="3918.62,-187.54 3927.76,-182.18 3917.27,-180.67 3918.62,-187.54"/>
</a>
</g>
</g>
<!-- Node64 -->
<g id="Node000064" class="node">
<title>Node64</title>
<g id="a_Node000064"><a xlink:href="Icmp6_8h.html" target="_top" xlink:title=" ">
<polygon fill="white" stroke="#666666" points="4058,-184 4002,-184 4002,-165 4058,-165 4058,-184"/>
<text text-anchor="middle" x="4030" y="-172" font-family="Helvetica,sans-Serif" font-size="10.00">Icmp6.h</text>
</a>
</g>
</g>
<!-- Node1&#45;&gt;Node64 -->
<g id="edge48_Node000001_Node000064" class="edge">
<title>Node1&#45;&gt;Node64</title>
<g id="a_edge48_Node000001_Node000064"><a xlink:title=" ">
<path fill="none" stroke="#63b8ff" d="M3716.21,-221.76C3783.52,-214.57 3890.26,-201.97 3991.67,-184.08"/>
<polygon fill="#63b8ff" stroke="#63b8ff" points="3992.55,-187.48 4001.78,-182.28 3991.32,-180.59 3992.55,-187.48"/>
</a>
</g>
</g>
<!-- Node65 -->
<g id="Node000065" class="node">
<title>Node65</title>
<g id="a_Node000065"><a xlink:href="IcmpPinger_8h.html" target="_top" xlink:title=" ">
<polygon fill="white" stroke="#666666" points="3910,-184 3830,-184 3830,-165 3910,-165 3910,-184"/>
<text text-anchor="middle" x="3870" y="-172" font-family="Helvetica,sans-Serif" font-size="10.00">IcmpPinger.h</text>
</a>
</g>
</g>
<!-- Node1&#45;&gt;Node65 -->
<g id="edge50_Node000001_Node000065" class="edge">
<title>Node1&#45;&gt;Node65</title>
<g id="a_edge50_Node000001_Node000065"><a xlink:title=" ">
<path fill="none" stroke="#63b8ff" d="M3684.51,-219.98C3722.49,-210.87 3782.87,-196.4 3824.36,-186.45"/>
<polygon fill="#63b8ff" stroke="#63b8ff" points="3825.31,-189.82 3834.21,-184.08 3823.67,-183.01 3825.31,-189.82"/>
</a>
</g>
</g>
<!-- Node66 -->
<g id="Node000066" class="node">
<title>Node66</title>
<g id="a_Node000066"><a xlink:href="ip_2tools_8h.html" target="_top" xlink:title=" ">
<polygon fill="white" stroke="#666666" points="4138,-184 4076,-184 4076,-165 4138,-165 4138,-184"/>
<text text-anchor="middle" x="4107" y="-172" font-family="Helvetica,sans-Serif" font-size="10.00">ip/tools.h</text>
</a>
</g>
</g>
<!-- Node1&#45;&gt;Node66 -->
<g id="edge52_Node000001_Node000066" class="edge">
<title>Node1&#45;&gt;Node66</title>
<g id="a_edge52_Node000001_Node000066"><a xlink:title=" ">
<path fill="none" stroke="#63b8ff" d="M3716.25,-223.49C3796.97,-217 3936.62,-204.24 4065.56,-184.08"/>
<polygon fill="#63b8ff" stroke="#63b8ff" points="4066.28,-187.51 4075.61,-182.49 4065.19,-180.6 4066.28,-187.51"/>
</a>
</g>
</g>
<!-- Node67 -->
<g id="Node000067" class="node">
<title>Node67</title>
<g id="a_Node000067"><a xlink:href="time_2gadgets_8h.html" target="_top" xlink:title=" ">
<polygon fill="white" stroke="#666666" points="3583,-184 3493,-184 3493,-165 3583,-165 3583,-184"/>
<text text-anchor="middle" x="3538" y="-172" font-family="Helvetica,sans-Serif" font-size="10.00">time/gadgets.h</text>
</a>
</g>
</g>
<!-- Node1&#45;&gt;Node67 -->
<g id="edge53_Node000001_Node000067" class="edge">
<title>Node1&#45;&gt;Node67</title>
<g id="a_edge53_Node000001_Node000067"><a xlink:title=" ">
<path fill="none" stroke="#63b8ff" d="M3631.17,-219.98C3613.39,-211.5 3585.85,-198.35 3565.32,-188.54"/>
<polygon fill="#63b8ff" stroke="#63b8ff" points="3566.69,-185.32 3556.16,-184.17 3563.67,-191.64 3566.69,-185.32"/>
</a>
</g>
</g>
<!-- Node3 -->
<g id="Node000003" class="node">
<title>Node3</title>
<g id="a_Node000003"><a xlink:href="autoconf_8h.html" target="_top" xlink:title=" ">
<polygon fill="white" stroke="#666666" points="1486,-129 1418,-129 1418,-110 1486,-110 1486,-129"/>
<text text-anchor="middle" x="1452" y="-117" font-family="Helvetica,sans-Serif" font-size="10.00">autoconf.h</text>
</a>
</g>
</g>
<!-- Node2&#45;&gt;Node3 -->
<g id="edge2_Node000002_Node000003" class="edge">
<title>Node2&#45;&gt;Node3</title>
<g id="a_edge2_Node000002_Node000003"><a xlink:title=" ">
<path fill="none" stroke="#63b8ff" d="M1495.41,-164.75C1487.84,-157.03 1476.62,-145.6 1467.49,-136.28"/>
<polygon fill="#63b8ff" stroke="#63b8ff" points="1469.93,-133.78 1460.43,-129.09 1464.93,-138.68 1469.93,-133.78"/>
</a>
</g>
</g>
<!-- Node4 -->
<g id="Node000004" class="node">
<title>Node4</title>
<g id="a_Node000004"><a xlink:href="version_8h.html" target="_top" xlink:title=" ">
<polygon fill="white" stroke="#666666" points="1400,-129 1338,-129 1338,-110 1400,-110 1400,-129"/>
<text text-anchor="middle" x="1369" y="-117" font-family="Helvetica,sans-Serif" font-size="10.00">version.h</text>
</a>
</g>
</g>
<!-- Node2&#45;&gt;Node4 -->
<g id="edge3_Node000002_Node000004" class="edge">
<title>Node2&#45;&gt;Node4</title>
<g id="a_edge3_Node000002_Node000004"><a xlink:title=" ">
<path fill="none" stroke="#63b8ff" d="M1482.31,-164.98C1460.2,-156.3 1425.68,-142.75 1400.55,-132.88"/>
<polygon fill="#63b8ff" stroke="#63b8ff" points="1401.67,-129.57 1391.08,-129.17 1399.11,-136.08 1401.67,-129.57"/>
</a>
</g>
</g>
<!-- Node5 -->
<g id="Node000005" class="node">
<title>Node5</title>
<g id="a_Node000005"><a xlink:href="compat_8h.html" target="_top" xlink:title=" ">
<polygon fill="#fff0f0" stroke="red" points="1606,-129 1504,-129 1504,-110 1606,-110 1606,-129"/>
<text text-anchor="middle" x="1555" y="-117" font-family="Helvetica,sans-Serif" font-size="10.00">compat/compat.h</text>
</a>
</g>
</g>
<!-- Node2&#45;&gt;Node5 -->
<g id="edge4_Node000002_Node000005" class="edge">
<title>Node2&#45;&gt;Node5</title>
<g id="a_edge4_Node000002_Node000005"><a xlink:title=" ">
<path fill="none" stroke="#63b8ff" d="M1512.42,-164.75C1519.77,-157.11 1530.63,-145.82 1539.54,-136.56"/>
<polygon fill="#63b8ff" stroke="#63b8ff" points="1542.32,-138.72 1546.74,-129.09 1537.28,-133.87 1542.32,-138.72"/>
</a>
</g>
</g>
<!-- Node6 -->
<g id="Node000006" class="node">
<title>Node6</title>
<g id="a_Node000006"><a xlink:href="osdetect_8h.html" target="_top" xlink:title=" ">
<polygon fill="white" stroke="#666666" points="2795.5,-74 2688.5,-74 2688.5,-55 2795.5,-55 2795.5,-74"/>
<text text-anchor="middle" x="2742" y="-62" font-family="Helvetica,sans-Serif" font-size="10.00">compat/osdetect.h</text>
</a>
</g>
</g>
<!-- Node5&#45;&gt;Node6 -->
<g id="edge5_Node000005_Node000006" class="edge">
<title>Node5&#45;&gt;Node6</title>
<g id="a_edge5_Node000005_Node000006"><a xlink:title=" ">
<path fill="none" stroke="#63b8ff" d="M1606.08,-118.2C1763.93,-116.89 2258.01,-110.06 2678.2,-73.96"/>
<polygon fill="#63b8ff" stroke="#63b8ff" points="2678.76,-77.43 2688.42,-73.08 2678.16,-70.46 2678.76,-77.43"/>
</a>
</g>
</g>
<!-- Node7 -->
<g id="Node000007" class="node">
<title>Node7</title>
<g id="a_Node000007"><a xlink:href="fdsetsize_8h.html" target="_top" xlink:title=" ">
<polygon fill="white" stroke="#666666" points="2924,-74 2814,-74 2814,-55 2924,-55 2924,-74"/>
<text text-anchor="middle" x="2869" y="-62" font-family="Helvetica,sans-Serif" font-size="10.00">compat/fdsetsize.h</text>
</a>
</g>
</g>
<!-- Node5&#45;&gt;Node7 -->
<g id="edge6_Node000005_Node000007" class="edge">
<title>Node5&#45;&gt;Node7</title>
<g id="a_edge6_Node000005_Node000007"><a xlink:title=" ">
<path fill="none" stroke="#63b8ff" d="M1606.26,-118.41C1775.54,-117.73 2332.22,-112.58 2803.65,-73.92"/>
<polygon fill="#63b8ff" stroke="#63b8ff" points="2804.04,-77.4 2813.72,-73.09 2803.47,-70.43 2804.04,-77.4"/>
</a>
</g>
</g>
<!-- Node8 -->
<g id="Node000008" class="node">
<title>Node8</title>
<g id="a_Node000008"><a xlink:href="types_8h.html" target="_top" xlink:title=" ">
<polygon fill="white" stroke="#666666" points="92,-74 0,-74 0,-55 92,-55 92,-74"/>
<text text-anchor="middle" x="46" y="-62" font-family="Helvetica,sans-Serif" font-size="10.00">compat/types.h</text>
</a>
</g>
</g>
<!-- Node5&#45;&gt;Node8 -->
<g id="edge7_Node000005_Node000008" class="edge">
<title>Node5&#45;&gt;Node8</title>
<g id="a_edge7_Node000005_Node000008"><a xlink:title=" ">
<path fill="none" stroke="#63b8ff" d="M1503.98,-110.87C1500.95,-110.54 1497.94,-110.25 1495,-110 880.7,-58.73 720,-128.68 102.21,-73.97"/>
<polygon fill="#63b8ff" stroke="#63b8ff" points="102.43,-70.47 92.16,-73.07 101.81,-77.45 102.43,-70.47"/>
</a>
</g>
</g>
<!-- Node10 -->
<g id="Node000010" class="node">
<title>Node10</title>
<g id="a_Node000010"><a xlink:href="aix_8h.html" target="_top" xlink:title=" ">
<polygon fill="white" stroke="#666666" points="205.5,-74 110.5,-74 110.5,-55 205.5,-55 205.5,-74"/>
<text text-anchor="middle" x="158" y="-62" font-family="Helvetica,sans-Serif" font-size="10.00">compat/os/aix.h</text>
</a>
</g>
</g>
<!-- Node5&#45;&gt;Node10 -->
<g id="edge9_Node000005_Node000010" class="edge">
<title>Node5&#45;&gt;Node10</title>
<g id="a_edge9_Node000005_Node000010"><a xlink:title=" ">
<path fill="none" stroke="#63b8ff" d="M1503.98,-110.87C1500.95,-110.54 1497.94,-110.25 1495,-110 931.24,-62.29 783.63,-123.34 215.62,-73.91"/>
<polygon fill="#63b8ff" stroke="#63b8ff" points="215.8,-70.41 205.53,-73.02 215.19,-77.39 215.8,-70.41"/>
</a>
</g>
</g>
<!-- Node11 -->
<g id="Node000011" class="node">
<title>Node11</title>
<g id="a_Node000011"><a xlink:href="android_8h.html" target="_top" xlink:title=" ">
<polygon fill="white" stroke="#666666" points="340,-74 224,-74 224,-55 340,-55 340,-74"/>
<text text-anchor="middle" x="282" y="-62" font-family="Helvetica,sans-Serif" font-size="10.00">compat/os/android.h</text>
</a>
</g>
</g>
<!-- Node5&#45;&gt;Node11 -->
<g id="edge10_Node000005_Node000011" class="edge">
<title>Node5&#45;&gt;Node11</title>
<g id="a_edge10_Node000005_Node000011"><a xlink:title=" ">
<path fill="none" stroke="#63b8ff" d="M1503.98,-110.89C1500.95,-110.55 1497.93,-110.25 1495,-110 990.65,-66.48 858.74,-113.48 350.24,-74.01"/>
<polygon fill="#63b8ff" stroke="#63b8ff" points="350.31,-70.5 340.07,-73.21 349.77,-77.48 350.31,-70.5"/>
</a>
</g>
</g>
<!-- Node12 -->
<g id="Node000012" class="node">
<title>Node12</title>
<g id="a_Node000012"><a xlink:href="dragonfly_8h.html" target="_top" xlink:title=" ">
<polygon fill="white" stroke="#666666" points="482,-74 358,-74 358,-55 482,-55 482,-74"/>
<text text-anchor="middle" x="420" y="-62" font-family="Helvetica,sans-Serif" font-size="10.00">compat/os/dragonfly.h</text>
</a>
</g>
</g>
<!-- Node5&#45;&gt;Node12 -->
<g id="edge11_Node000005_Node000012" class="edge">
<title>Node5&#45;&gt;Node12</title>
<g id="a_edge11_Node000005_Node000012"><a xlink:title=" ">
<path fill="none" stroke="#63b8ff" d="M1503.98,-110.9C1500.94,-110.56 1497.93,-110.26 1495,-110 1053.6,-70.93 937.91,-108 492.56,-74.05"/>
<polygon fill="#63b8ff" stroke="#63b8ff" points="492.55,-70.54 482.31,-73.26 492.01,-77.51 492.55,-70.54"/>
</a>
</g>
</g>
<!-- Node13 -->
<g id="Node000013" class="node">
<title>Node13</title>
<g id="a_Node000013"><a xlink:href="freebsd_8h.html" target="_top" xlink:title=" ">
<polygon fill="white" stroke="#666666" points="616,-74 500,-74 500,-55 616,-55 616,-74"/>
<text text-anchor="middle" x="558" y="-62" font-family="Helvetica,sans-Serif" font-size="10.00">compat/os/freebsd.h</text>
</a>
</g>
</g>
<!-- Node5&#45;&gt;Node13 -->
<g id="edge12_Node000005_Node000013" class="edge">
<title>Node5&#45;&gt;Node13</title>
<g id="a_edge12_Node000005_Node000013"><a xlink:title=" ">
<path fill="none" stroke="#63b8ff" d="M1503.98,-110.92C1500.94,-110.58 1497.93,-110.27 1495,-110 1112.9,-75.12 1012.35,-105.85 626.12,-74.01"/>
<polygon fill="#63b8ff" stroke="#63b8ff" points="626.33,-70.52 616.07,-73.17 625.75,-77.49 626.33,-70.52"/>
</a>
</g>
</g>
<!-- Node14 -->
<g id="Node000014" class="node">
<title>Node14</title>
<g id="a_Node000014"><a xlink:href="hpux_8h.html" target="_top" xlink:title=" ">
<polygon fill="white" stroke="#666666" points="738,-74 634,-74 634,-55 738,-55 738,-74"/>
<text text-anchor="middle" x="686" y="-62" font-family="Helvetica,sans-Serif" font-size="10.00">compat/os/hpux.h</text>
</a>
</g>
</g>
<!-- Node5&#45;&gt;Node14 -->
<g id="edge13_Node000005_Node000014" class="edge">
<title>Node5&#45;&gt;Node14</title>
<g id="a_edge13_Node000005_Node000014"><a xlink:title=" ">
<path fill="none" stroke="#63b8ff" d="M1503.98,-110.94C1500.94,-110.6 1497.93,-110.28 1495,-110 1167.05,-78.95 1080.16,-104.46 748.59,-74.05"/>
<polygon fill="#63b8ff" stroke="#63b8ff" points="748.49,-70.53 738.21,-73.09 747.84,-77.5 748.49,-70.53"/>
</a>
</g>
</g>
<!-- Node15 -->
<g id="Node000015" class="node">
<title>Node15</title>
<g id="a_Node000015"><a xlink:href="linux_8h.html" target="_top" xlink:title=" ">
<polygon fill="white" stroke="#666666" points="860,-74 756,-74 756,-55 860,-55 860,-74"/>
<text text-anchor="middle" x="808" y="-62" font-family="Helvetica,sans-Serif" font-size="10.00">compat/os/linux.h</text>
</a>
</g>
</g>
<!-- Node5&#45;&gt;Node15 -->
<g id="edge14_Node000005_Node000015" class="edge">
<title>Node5&#45;&gt;Node15</title>
<g id="a_edge14_Node000005_Node000015"><a xlink:title=" ">
<path fill="none" stroke="#63b8ff" d="M1503.97,-110.98C1500.94,-110.62 1497.93,-110.29 1495,-110 1220.93,-82.75 1148.05,-100.82 870.18,-74.03"/>
<polygon fill="#63b8ff" stroke="#63b8ff" points="870.5,-70.55 860.21,-73.06 869.82,-77.51 870.5,-70.55"/>
</a>
</g>
</g>
<!-- Node16 -->
<g id="Node000016" class="node">
<title>Node16</title>
<g id="a_Node000016"><a xlink:href="macosx_8h.html" target="_top" xlink:title=" ">
<polygon fill="white" stroke="#666666" points="996,-74 878,-74 878,-55 996,-55 996,-74"/>
<text text-anchor="middle" x="937" y="-62" font-family="Helvetica,sans-Serif" font-size="10.00">compat/os/macosx.h</text>
</a>
</g>
</g>
<!-- Node5&#45;&gt;Node16 -->
<g id="edge15_Node000005_Node000016" class="edge">
<title>Node5&#45;&gt;Node16</title>
<g id="a_edge15_Node000005_Node000016"><a xlink:title=" ">
<path fill="none" stroke="#63b8ff" d="M1503.97,-111.03C1500.93,-110.66 1497.93,-110.31 1495,-110 1281.17,-87.03 1224.02,-95.29 1006.46,-74.09"/>
<polygon fill="#63b8ff" stroke="#63b8ff" points="1006.61,-70.59 996.32,-73.1 1005.93,-77.56 1006.61,-70.59"/>
</a>
</g>
</g>
<!-- Node17 -->
<g id="Node000017" class="node">
<title>Node17</title>
<g id="a_Node000017"><a xlink:href="mingw_8h.html" target="_top" xlink:title=" ">
<polygon fill="white" stroke="#666666" points="1126,-74 1014,-74 1014,-55 1126,-55 1126,-74"/>
<text text-anchor="middle" x="1070" y="-62" font-family="Helvetica,sans-Serif" font-size="10.00">compat/os/mingw.h</text>
</a>
</g>
</g>
<!-- Node5&#45;&gt;Node17 -->
<g id="edge16_Node000005_Node000017" class="edge">
<title>Node5&#45;&gt;Node17</title>
<g id="a_edge16_Node000005_Node000017"><a xlink:title=" ">
<path fill="none" stroke="#63b8ff" d="M1503.96,-111.12C1500.93,-110.73 1497.92,-110.35 1495,-110 1338.64,-91.11 1296.45,-92.37 1136.23,-74.11"/>
<polygon fill="#63b8ff" stroke="#63b8ff" points="1136.34,-70.6 1126.01,-72.93 1135.54,-77.55 1136.34,-70.6"/>
</a>
</g>
</g>
<!-- Node18 -->
<g id="Node000018" class="node">
<title>Node18</title>
<g id="a_Node000018"><a xlink:href="mswindows_8h.html" target="_top" xlink:title=" ">
<polygon fill="white" stroke="#666666" points="1281.5,-74 1144.5,-74 1144.5,-55 1281.5,-55 1281.5,-74"/>
<text text-anchor="middle" x="1213" y="-62" font-family="Helvetica,sans-Serif" font-size="10.00">compat/os/mswindows.h</text>
</a>
</g>
</g>
<!-- Node5&#45;&gt;Node18 -->
<g id="edge17_Node000005_Node000018" class="edge">
<title>Node5&#45;&gt;Node18</title>
<g id="a_edge17_Node000005_Node000018"><a xlink:title=" ">
<path fill="none" stroke="#63b8ff" d="M1503.8,-110.57C1443.66,-101.25 1343.79,-85.77 1278.18,-75.6"/>
<polygon fill="#63b8ff" stroke="#63b8ff" points="1278.37,-72.09 1267.95,-74.02 1277.3,-79.01 1278.37,-72.09"/>
</a>
</g>
</g>
<!-- Node19 -->
<g id="Node000019" class="node">
<title>Node19</title>
<g id="a_Node000019"><a xlink:href="netbsd_8h.html" target="_top" xlink:title=" ">
<polygon fill="white" stroke="#666666" points="1412.5,-74 1299.5,-74 1299.5,-55 1412.5,-55 1412.5,-74"/>
<text text-anchor="middle" x="1356" y="-62" font-family="Helvetica,sans-Serif" font-size="10.00">compat/os/netbsd.h</text>
</a>
</g>
</g>
<!-- Node5&#45;&gt;Node19 -->
<g id="edge18_Node000005_Node000019" class="edge">
<title>Node5&#45;&gt;Node19</title>
<g id="a_edge18_Node000005_Node000019"><a xlink:title=" ">
<path fill="none" stroke="#63b8ff" d="M1523.03,-109.98C1489.18,-100.97 1435.6,-86.7 1398.29,-76.76"/>
<polygon fill="#63b8ff" stroke="#63b8ff" points="1398.79,-73.27 1388.22,-74.08 1396.99,-80.04 1398.79,-73.27"/>
</a>
</g>
</g>
<!-- Node20 -->
<g id="Node000020" class="node">
<title>Node20</title>
<g id="a_Node000020"><a xlink:href="openbsd_8h.html" target="_top" xlink:title=" ">
<polygon fill="white" stroke="#666666" points="1551.5,-74 1430.5,-74 1430.5,-55 1551.5,-55 1551.5,-74"/>
<text text-anchor="middle" x="1491" y="-62" font-family="Helvetica,sans-Serif" font-size="10.00">compat/os/openbsd.h</text>
</a>
</g>
</g>
<!-- Node5&#45;&gt;Node20 -->
<g id="edge19_Node000005_Node000020" class="edge">
<title>Node5&#45;&gt;Node20</title>
<g id="a_edge19_Node000005_Node000020"><a xlink:title=" ">
<path fill="none" stroke="#63b8ff" d="M1544.72,-109.98C1535.16,-102.07 1520.72,-90.11 1509.22,-80.58"/>
<polygon fill="#63b8ff" stroke="#63b8ff" points="1511.4,-77.85 1501.47,-74.17 1506.94,-83.24 1511.4,-77.85"/>
</a>
</g>
</g>
<!-- Node21 -->
<g id="Node000021" class="node">
<title>Node21</title>
<g id="a_Node000021"><a xlink:href="os2_8h.html" target="_top" xlink:title=" ">
<polygon fill="white" stroke="#666666" points="1666.5,-74 1569.5,-74 1569.5,-55 1666.5,-55 1666.5,-74"/>
<text text-anchor="middle" x="1618" y="-62" font-family="Helvetica,sans-Serif" font-size="10.00">compat/os/os2.h</text>
</a>
</g>
</g>
<!-- Node5&#45;&gt;Node21 -->
<g id="edge20_Node000005_Node000021" class="edge">
<title>Node5&#45;&gt;Node21</title>
<g id="a_edge20_Node000005_Node000021"><a xlink:title=" ">
<path fill="none" stroke="#63b8ff" d="M1565.12,-109.98C1574.44,-102.15 1588.47,-90.34 1599.74,-80.86"/>
<polygon fill="#63b8ff" stroke="#63b8ff" points="1602.29,-83.29 1607.69,-74.17 1597.79,-77.93 1602.29,-83.29"/>
</a>
</g>
</g>
<!-- Node22 -->
<g id="Node000022" class="node">
<title>Node22</title>
<g id="a_Node000022"><a xlink:href="qnx_8h.html" target="_top" xlink:title=" ">
<polygon fill="white" stroke="#666666" points="1783,-74 1685,-74 1685,-55 1783,-55 1783,-74"/>
<text text-anchor="middle" x="1734" y="-62" font-family="Helvetica,sans-Serif" font-size="10.00">compat/os/qnx.h</text>
</a>
</g>
</g>
<!-- Node5&#45;&gt;Node22 -->
<g id="edge21_Node000005_Node000022" class="edge">
<title>Node5&#45;&gt;Node22</title>
<g id="a_edge21_Node000005_Node000022"><a xlink:title=" ">
<path fill="none" stroke="#63b8ff" d="M1583.76,-109.98C1613.94,-101.05 1661.57,-86.94 1695.1,-77.02"/>
<polygon fill="#63b8ff" stroke="#63b8ff" points="1696.42,-80.28 1705.02,-74.08 1694.43,-73.57 1696.42,-80.28"/>
</a>
</g>
</g>
<!-- Node23 -->
<g id="Node000023" class="node">
<title>Node23</title>
<g id="a_Node000023"><a xlink:href="solaris_8h.html" target="_top" xlink:title=" ">
<polygon fill="white" stroke="#666666" points="1913,-74 1801,-74 1801,-55 1913,-55 1913,-74"/>
<text text-anchor="middle" x="1857" y="-62" font-family="Helvetica,sans-Serif" font-size="10.00">compat/os/solaris.h</text>
</a>
</g>
</g>
<!-- Node5&#45;&gt;Node23 -->
<g id="edge22_Node000005_Node000023" class="edge">
<title>Node5&#45;&gt;Node23</title>
<g id="a_edge22_Node000005_Node000023"><a xlink:title=" ">
<path fill="none" stroke="#63b8ff" d="M1603.52,-109.98C1656.61,-100.67 1741.69,-85.74 1798.44,-75.78"/>
<polygon fill="#63b8ff" stroke="#63b8ff" points="1799.1,-79.21 1808.35,-74.04 1797.89,-72.32 1799.1,-79.21"/>
</a>
</g>
</g>
<!-- Node24 -->
<g id="Node000024" class="node">
<title>Node24</title>
<g id="a_Node000024"><a xlink:href="sunos_8h.html" target="_top" xlink:title=" ">
<polygon fill="white" stroke="#666666" points="2039,-74 1931,-74 1931,-55 2039,-55 2039,-74"/>
<text text-anchor="middle" x="1985" y="-62" font-family="Helvetica,sans-Serif" font-size="10.00">compat/os/sunos.h</text>
</a>
</g>
</g>
<!-- Node5&#45;&gt;Node24 -->
<g id="edge23_Node000005_Node000024" class="edge">
<title>Node5&#45;&gt;Node24</title>
<g id="a_edge23_Node000005_Node000024"><a xlink:title=" ">
<path fill="none" stroke="#63b8ff" d="M1606.09,-112.53C1675.07,-104.41 1802.13,-89.29 1920.73,-74.15"/>
<polygon fill="#63b8ff" stroke="#63b8ff" points="1921.23,-77.61 1930.71,-72.87 1920.35,-70.67 1921.23,-77.61"/>
</a>
</g>
</g>
<!-- Node25 -->
<g id="Node000025" class="node">
<title>Node25</title>
<g id="a_Node000025"><a xlink:href="assert_8h.html" target="_top" xlink:title=" ">
<polygon fill="white" stroke="#666666" points="2152.5,-74 2057.5,-74 2057.5,-55 2152.5,-55 2152.5,-74"/>
<text text-anchor="middle" x="2105" y="-62" font-family="Helvetica,sans-Serif" font-size="10.00">compat/assert.h</text>
</a>
</g>
</g>
<!-- Node5&#45;&gt;Node25 -->
<g id="edge24_Node000005_Node000025" class="edge">
<title>Node5&#45;&gt;Node25</title>
<g id="a_edge24_Node000005_Node000025"><a xlink:title=" ">
<path fill="none" stroke="#63b8ff" d="M1606.2,-114.86C1694.13,-108.4 1879.72,-93.82 2047.44,-73.99"/>
<polygon fill="#63b8ff" stroke="#63b8ff" points="2047.93,-77.46 2057.44,-72.8 2047.1,-70.51 2047.93,-77.46"/>
</a>
</g>
</g>
<!-- Node26 -->
<g id="Node000026" class="node">
<title>Node26</title>
<g id="a_Node000026"><a xlink:href="compat__shared_8h.html" target="_top" xlink:title=" ">
<polygon fill="#fff0f0" stroke="red" points="2311,-74 2171,-74 2171,-55 2311,-55 2311,-74"/>
<text text-anchor="middle" x="2241" y="-62" font-family="Helvetica,sans-Serif" font-size="10.00">compat/compat_shared.h</text>
</a>
</g>
</g>
<!-- Node5&#45;&gt;Node26 -->
<g id="edge25_Node000005_Node000026" class="edge">
<title>Node5&#45;&gt;Node26</title>
<g id="a_edge25_Node000005_Node000026"><a xlink:title=" ">
<path fill="none" stroke="#63b8ff" d="M1606.12,-115.31C1708.87,-108.78 1947.97,-92.95 2160.66,-74"/>
<polygon fill="#63b8ff" stroke="#63b8ff" points="2161.12,-77.47 2170.77,-73.09 2160.5,-70.5 2161.12,-77.47"/>
</a>
</g>
</g>
<!-- Node36 -->
<g id="Node000036" class="node">
<title>Node36</title>
<g id="a_Node000036"><a xlink:href="stdvarargs_8h.html" target="_top" xlink:title=" ">
<polygon fill="#fff0f0" stroke="red" points="2446.5,-74 2329.5,-74 2329.5,-55 2446.5,-55 2446.5,-74"/>
<text text-anchor="middle" x="2388" y="-62" font-family="Helvetica,sans-Serif" font-size="10.00">compat/stdvarargs.h</text>
</a>
</g>
</g>
<!-- Node5&#45;&gt;Node36 -->
<g id="edge26_Node000005_Node000036" class="edge">
<title>Node5&#45;&gt;Node36</title>
<g id="a_edge26_Node000005_Node000036"><a xlink:title=" ">
<path fill="none" stroke="#63b8ff" d="M1606.12,-116.7C1727.7,-112.16 2043.88,-98.87 2319.23,-74"/>
<polygon fill="#63b8ff" stroke="#63b8ff" points="2319.78,-77.46 2329.42,-73.07 2319.15,-70.49 2319.78,-77.46"/>
</a>
</g>
</g>
<!-- Node38 -->
<g id="Node000038" class="node">
<title>Node38</title>
<g id="a_Node000038"><a xlink:href="stdio_8h.html" target="_top" xlink:title=" ">
<polygon fill="#fff0f0" stroke="red" points="2553.5,-74 2464.5,-74 2464.5,-55 2553.5,-55 2553.5,-74"/>
<text text-anchor="middle" x="2509" y="-62" font-family="Helvetica,sans-Serif" font-size="10.00">compat/stdio.h</text>
</a>
</g>
</g>
<!-- Node5&#45;&gt;Node38 -->
<g id="edge27_Node000005_Node000038" class="edge">
<title>Node5&#45;&gt;Node38</title>
<g id="a_edge27_Node000005_Node000038"><a xlink:title=" ">
<path fill="none" stroke="#63b8ff" d="M1606.14,-117.88C1742.31,-115.82 2125.11,-107.38 2454.05,-73.97"/>
<polygon fill="#63b8ff" stroke="#63b8ff" points="2454.67,-77.42 2464.26,-72.92 2453.95,-70.46 2454.67,-77.42"/>
</a>
</g>
</g>
<!-- Node40 -->
<g id="Node000040" class="node">
<title>Node40</title>
<g id="a_Node000040"><a xlink:href="statvfs_8h.html" target="_top" xlink:title=" ">
<polygon fill="white" stroke="#666666" points="2670.5,-74 2571.5,-74 2571.5,-55 2670.5,-55 2670.5,-74"/>
<text text-anchor="middle" x="2621" y="-62" font-family="Helvetica,sans-Serif" font-size="10.00">compat/statvfs.h</text>
</a>
</g>
</g>
<!-- Node5&#45;&gt;Node40 -->
<g id="edge28_Node000005_Node000040" class="edge">
<title>Node5&#45;&gt;Node40</title>
<g id="a_edge28_Node000005_Node000040"><a xlink:title=" ">
<path fill="none" stroke="#63b8ff" d="M1606.21,-118.02C1753.13,-116.28 2188.8,-108.44 2561.3,-73.95"/>
<polygon fill="#63b8ff" stroke="#63b8ff" points="2561.84,-77.41 2571.47,-73 2561.19,-70.44 2561.84,-77.41"/>
</a>
</g>
</g>
<!-- Node9 -->
<g id="Node000009" class="node">
<title>Node9</title>
<g id="a_Node000009"><a xlink:title=" ">
<polygon fill="#e0e0e0" stroke="#999999" points="1524,-19 1474,-19 1474,0 1524,0 1524,-19"/>
<text text-anchor="middle" x="1499" y="-7" font-family="Helvetica,sans-Serif" font-size="10.00">cstdint</text>
</a>
</g>
</g>
<!-- Node8&#45;&gt;Node9 -->
<g id="edge8_Node000008_Node000009" class="edge">
<title>Node8&#45;&gt;Node9</title>
<g id="a_edge8_Node000008_Node000009"><a xlink:title=" ">
<path fill="none" stroke="#63b8ff" d="M92.16,-55.95C95.15,-55.59 98.11,-55.27 101,-55 377.32,-29.35 1274.62,-14.03 1463.79,-11.04"/>
<polygon fill="#63b8ff" stroke="#63b8ff" points="1464.05,-14.54 1474,-10.88 1463.94,-7.54 1464.05,-14.54"/>
</a>
</g>
</g>
<!-- Node45 -->
<g id="Node000045" class="node">
<title>Node45</title>
<g id="a_Node000045"><a xlink:href="Here_8h.html" target="_top" xlink:title=" ">
<polygon fill="white" stroke="#666666" points="3284.5,-74 3209.5,-74 3209.5,-55 3284.5,-55 3284.5,-74"/>
<text text-anchor="middle" x="3247" y="-62" font-family="Helvetica,sans-Serif" font-size="10.00">base/Here.h</text>
</a>
</g>
</g>
<!-- Node44&#45;&gt;Node45 -->
<g id="edge30_Node000044_Node000045" class="edge">
<title>Node44&#45;&gt;Node45</title>
<g id="a_edge30_Node000044_Node000045"><a xlink:title=" ">
<path fill="none" stroke="#63b8ff" d="M3387.8,-164.97C3361.75,-158.13 3327.98,-146.7 3302,-129 3283.81,-116.6 3267.95,-96.75 3258,-82.54"/>
<polygon fill="#63b8ff" stroke="#63b8ff" points="3260.83,-80.49 3252.34,-74.16 3255.03,-84.41 3260.83,-80.49"/>
</a>
</g>
</g>
<!-- Node47 -->
<g id="Node000047" class="node">
<title>Node47</title>
<g id="a_Node000047"><a xlink:href="AllocatorProxy_8h.html" target="_top" xlink:title=" ">
<polygon fill="white" stroke="#666666" points="3435,-129 3311,-129 3311,-110 3435,-110 3435,-129"/>
<text text-anchor="middle" x="3373" y="-117" font-family="Helvetica,sans-Serif" font-size="10.00">mem/AllocatorProxy.h</text>
</a>
</g>
</g>
<!-- Node44&#45;&gt;Node47 -->
<g id="edge32_Node000044_Node000047" class="edge">
<title>Node44&#45;&gt;Node47</title>
<g id="a_edge32_Node000044_Node000047"><a xlink:title=" ">
<path fill="none" stroke="#63b8ff" d="M3418.92,-164.75C3410.91,-157.03 3399.04,-145.6 3389.38,-136.28"/>
<polygon fill="#63b8ff" stroke="#63b8ff" points="3391.54,-133.51 3381.91,-129.09 3386.69,-138.55 3391.54,-133.51"/>
</a>
</g>
</g>
<!-- Node48 -->
<g id="Node000048" class="node">
<title>Node48</title>
<g id="a_Node000048"><a xlink:title=" ">
<polygon fill="#e0e0e0" stroke="#999999" points="3513,-129 3453,-129 3453,-110 3513,-110 3513,-129"/>
<text text-anchor="middle" x="3483" y="-117" font-family="Helvetica,sans-Serif" font-size="10.00">iostream</text>
</a>
</g>
</g>
<!-- Node44&#45;&gt;Node48 -->
<g id="edge33_Node000044_Node000048" class="edge">
<title>Node44&#45;&gt;Node48</title>
<g id="a_edge33_Node000044_Node000048"><a xlink:title=" ">
<path fill="none" stroke="#63b8ff" d="M3437.08,-164.75C3445.09,-157.03 3456.96,-145.6 3466.62,-136.28"/>
<polygon fill="#63b8ff" stroke="#63b8ff" points="3469.31,-138.55 3474.09,-129.09 3464.46,-133.51 3469.31,-138.55"/>
</a>
</g>
</g>
<!-- Node49 -->
<g id="Node000049" class="node">
<title>Node49</title>
<g id="a_Node000049"><a xlink:title=" ">
<polygon fill="#e0e0e0" stroke="#999999" points="3587,-129 3531,-129 3531,-110 3587,-110 3587,-129"/>
<text text-anchor="middle" x="3559" y="-117" font-family="Helvetica,sans-Serif" font-size="10.00">sstream</text>
</a>
</g>
</g>
<!-- Node44&#45;&gt;Node49 -->
<g id="edge34_Node000044_Node000049" class="edge">
<title>Node44&#45;&gt;Node49</title>
<g id="a_edge34_Node000044_Node000049"><a xlink:title=" ">
<path fill="none" stroke="#63b8ff" d="M3449.05,-164.98C3470.41,-156.34 3503.7,-142.87 3528.06,-133.02"/>
<polygon fill="#63b8ff" stroke="#63b8ff" points="3529.61,-136.17 3537.57,-129.17 3526.99,-129.68 3529.61,-136.17"/>
</a>
</g>
</g>
<!-- Node50 -->
<g id="Node000050" class="node">
<title>Node50</title>
<g id="a_Node000050"><a xlink:title=" ">
<polygon fill="#e0e0e0" stroke="#999999" points="3661,-129 3605,-129 3605,-110 3661,-110 3661,-129"/>
<text text-anchor="middle" x="3633" y="-117" font-family="Helvetica,sans-Serif" font-size="10.00">iomanip</text>
</a>
</g>
</g>
<!-- Node44&#45;&gt;Node50 -->
<g id="edge35_Node000044_Node000050" class="edge">
<title>Node44&#45;&gt;Node50</title>
<g id="a_edge35_Node000044_Node000050"><a xlink:title=" ">
<path fill="none" stroke="#63b8ff" d="M3460.94,-164.98C3497.51,-155.53 3556.45,-140.29 3594.96,-130.33"/>
<polygon fill="#63b8ff" stroke="#63b8ff" points="3595.96,-133.69 3604.76,-127.8 3594.21,-126.91 3595.96,-133.69"/>
</a>
</g>
</g>
<!-- Node46 -->
<g id="Node000046" class="node">
<title>Node46</title>
<g id="a_Node000046"><a xlink:title=" ">
<polygon fill="#e0e0e0" stroke="#999999" points="3540,-19 3492,-19 3492,0 3540,0 3540,-19"/>
<text text-anchor="middle" x="3516" y="-7" font-family="Helvetica,sans-Serif" font-size="10.00">iosfwd</text>
</a>
</g>
</g>
<!-- Node45&#45;&gt;Node46 -->
<g id="edge31_Node000045_Node000046" class="edge">
<title>Node45&#45;&gt;Node46</title>
<g id="a_edge31_Node000045_Node000046"><a xlink:title=" ">
<path fill="none" stroke="#63b8ff" d="M3284.69,-56.07C3337.06,-45.76 3431.11,-27.23 3481.65,-17.27"/>
<polygon fill="#63b8ff" stroke="#63b8ff" points="3482.61,-20.65 3491.74,-15.28 3481.25,-13.78 3482.61,-20.65"/>
</a>
</g>
</g>
<!-- Node51&#45;&gt;Node9 -->
<g id="edge38_Node000051_Node000009" class="edge">
<title>Node51&#45;&gt;Node9</title>
<g id="a_edge38_Node000051_Node000009"><a xlink:title=" ">
<path fill="none" stroke="#63b8ff" d="M2997.75,-164.97C2990.51,-156.25 2979.31,-142.15 2971,-129 2951.25,-97.74 2964.25,-74.75 2933,-55 2872.08,-16.49 1749,-11.24 1534.31,-10.59"/>
<polygon fill="#63b8ff" stroke="#63b8ff" points="1534.23,-7.09 1524.22,-10.56 1534.21,-14.09 1534.23,-7.09"/>
</a>
</g>
</g>
<!-- Node52 -->
<g id="Node000052" class="node">
<title>Node52</title>
<g id="a_Node000052"><a xlink:title=" ">
<polygon fill="#e0e0e0" stroke="#999999" points="3030,-129 2980,-129 2980,-110 3030,-110 3030,-129"/>
<text text-anchor="middle" x="3005" y="-117" font-family="Helvetica,sans-Serif" font-size="10.00">chrono</text>
</a>
</g>
</g>
<!-- Node51&#45;&gt;Node52 -->
<g id="edge37_Node000051_Node000052" class="edge">
<title>Node51&#45;&gt;Node52</title>
<g id="a_edge37_Node000051_Node000052"><a xlink:title=" ">
<path fill="none" stroke="#63b8ff" d="M3005,-164.75C3005,-157.8 3005,-147.85 3005,-139.13"/>
<polygon fill="#63b8ff" stroke="#63b8ff" points="3008.5,-139.09 3005,-129.09 3001.5,-139.09 3008.5,-139.09"/>
</a>
</g>
</g>
<!-- Node53&#45;&gt;Node45 -->
<g id="edge42_Node000053_Node000045" class="edge">
<title>Node53&#45;&gt;Node45</title>
<g id="a_edge42_Node000053_Node000045"><a xlink:title=" ">
<path fill="none" stroke="#63b8ff" d="M3137.61,-164.92C3102.31,-154.84 3056.83,-136.13 3077,-110 3091.87,-90.73 3154.26,-78.19 3199.14,-71.48"/>
<polygon fill="#63b8ff" stroke="#63b8ff" points="3199.88,-74.91 3209.28,-70.02 3198.88,-67.98 3199.88,-74.91"/>
</a>
</g>
</g>
<!-- Node54 -->
<g id="Node000054" class="node">
<title>Node54</title>
<g id="a_Node000054"><a xlink:href="Assure_8h.html" target="_top" xlink:title=" ">
<polygon fill="white" stroke="#666666" points="3254.5,-129 3169.5,-129 3169.5,-110 3254.5,-110 3254.5,-129"/>
<text text-anchor="middle" x="3212" y="-117" font-family="Helvetica,sans-Serif" font-size="10.00">base/Assure.h</text>
</a>
</g>
</g>
<!-- Node53&#45;&gt;Node54 -->
<g id="edge40_Node000053_Node000054" class="edge">
<title>Node53&#45;&gt;Node54</title>
<g id="a_edge40_Node000053_Node000054"><a xlink:title=" ">
<path fill="none" stroke="#63b8ff" d="M3180.27,-164.75C3185.59,-157.34 3193.36,-146.5 3199.88,-137.41"/>
<polygon fill="#63b8ff" stroke="#63b8ff" points="3202.86,-139.26 3205.84,-129.09 3197.17,-135.18 3202.86,-139.26"/>
</a>
</g>
</g>
<!-- Node55 -->
<g id="Node000055" class="node">
<title>Node55</title>
<g id="a_Node000055"><a xlink:title=" ">
<polygon fill="#e0e0e0" stroke="#999999" points="3151.5,-129 3086.5,-129 3086.5,-110 3151.5,-110 3151.5,-129"/>
<text text-anchor="middle" x="3119" y="-117" font-family="Helvetica,sans-Serif" font-size="10.00">stdexcept</text>
</a>
</g>
</g>
<!-- Node53&#45;&gt;Node55 -->
<g id="edge43_Node000053_Node000055" class="edge">
<title>Node53&#45;&gt;Node55</title>
<g id="a_edge43_Node000053_Node000055"><a xlink:title=" ">
<path fill="none" stroke="#63b8ff" d="M3164.92,-164.75C3156.91,-157.03 3145.04,-145.6 3135.38,-136.28"/>
<polygon fill="#63b8ff" stroke="#63b8ff" points="3137.54,-133.51 3127.91,-129.09 3132.69,-138.55 3137.54,-133.51"/>
</a>
</g>
</g>
<!-- Node54&#45;&gt;Node45 -->
<g id="edge41_Node000054_Node000045" class="edge">
<title>Node54&#45;&gt;Node45</title>
<g id="a_edge41_Node000054_Node000045"><a xlink:title=" ">
<path fill="none" stroke="#63b8ff" d="M3217.78,-109.75C3222.62,-102.42 3229.68,-91.73 3235.64,-82.7"/>
<polygon fill="#63b8ff" stroke="#63b8ff" points="3238.74,-84.36 3241.33,-74.09 3232.9,-80.5 3238.74,-84.36"/>
</a>
</g>
</g>
<!-- Node59 -->
<g id="Node000059" class="node">
<title>Node59</title>
<g id="a_Node000059"><a xlink:href="Icmp_8h.html" target="_top" xlink:title=" ">
<polygon fill="#fff0f0" stroke="red" points="3981,-129 3931,-129 3931,-110 3981,-110 3981,-129"/>
<text text-anchor="middle" x="3956" y="-117" font-family="Helvetica,sans-Serif" font-size="10.00">Icmp.h</text>
</a>
</g>
</g>
<!-- Node58&#45;&gt;Node59 -->
<g id="edge47_Node000058_Node000059" class="edge">
<title>Node58&#45;&gt;Node59</title>
<g id="a_edge47_Node000058_Node000059"><a xlink:title=" ">
<path fill="none" stroke="#63b8ff" d="M3956,-164.75C3956,-157.8 3956,-147.85 3956,-139.13"/>
<polygon fill="#63b8ff" stroke="#63b8ff" points="3959.5,-139.09 3956,-129.09 3952.5,-139.09 3959.5,-139.09"/>
</a>
</g>
</g>
<!-- Node64&#45;&gt;Node59 -->
<g id="edge49_Node000064_Node000059" class="edge">
<title>Node64&#45;&gt;Node59</title>
<g id="a_edge49_Node000064_Node000059"><a xlink:title=" ">
<path fill="none" stroke="#63b8ff" d="M4018.11,-164.98C4006.85,-156.92 3989.71,-144.65 3976.29,-135.03"/>
<polygon fill="#63b8ff" stroke="#63b8ff" points="3978.27,-132.15 3968.11,-129.17 3974.2,-137.84 3978.27,-132.15"/>
</a>
</g>
</g>
<!-- Node65&#45;&gt;Node59 -->
<g id="edge51_Node000065_Node000059" class="edge">
<title>Node65&#45;&gt;Node59</title>
<g id="a_edge51_Node000065_Node000059"><a xlink:title=" ">
<path fill="none" stroke="#63b8ff" d="M3883.82,-164.98C3897.15,-156.77 3917.58,-144.18 3933.31,-134.49"/>
<polygon fill="#63b8ff" stroke="#63b8ff" points="3935.25,-137.4 3941.93,-129.17 3931.58,-131.44 3935.25,-137.4"/>
</a>
</g>
</g>
<!-- Node67&#45;&gt;Node46 -->
<g id="edge55_Node000067_Node000046" class="edge">
<title>Node67&#45;&gt;Node46</title>
<g id="a_edge55_Node000067_Node000046"><a xlink:title=" ">
<path fill="none" stroke="#63b8ff" d="M3583.02,-166.19C3637.37,-156.9 3722.69,-140.69 3732,-129 3737.26,-122.4 3736.55,-117.11 3732,-110 3691.67,-47.03 3600.29,-23.36 3550.28,-14.9"/>
<polygon fill="#63b8ff" stroke="#63b8ff" points="3550.69,-11.42 3540.27,-13.31 3549.6,-18.33 3550.69,-11.42"/>
</a>
</g>
</g>
<!-- Node68 -->
<g id="Node000068" class="node">
<title>Node68</title>
<g id="a_Node000068"><a xlink:title=" ">
<polygon fill="#e0e0e0" stroke="#999999" points="3723,-129 3679,-129 3679,-110 3723,-110 3723,-129"/>
<text text-anchor="middle" x="3701" y="-117" font-family="Helvetica,sans-Serif" font-size="10.00">ctime</text>
</a>
</g>
</g>
<!-- Node67&#45;&gt;Node68 -->
<g id="edge54_Node000067_Node000068" class="edge">
<title>Node67&#45;&gt;Node68</title>
<g id="a_edge54_Node000067_Node000068"><a xlink:title=" ">
<path fill="none" stroke="#63b8ff" d="M3564.19,-164.98C3592.73,-155.7 3638.41,-140.85 3669.04,-130.89"/>
<polygon fill="#63b8ff" stroke="#63b8ff" points="3670.38,-134.14 3678.8,-127.72 3668.21,-127.48 3670.38,-134.14"/>
</a>
</g>
</g>
</g>
</svg>
