<?xml version="1.0" encoding="UTF-8" standalone="no"?>
<!DOCTYPE svg PUBLIC "-//W3C//DTD SVG 1.1//EN"
 "http://www.w3.org/Graphics/SVG/1.1/DTD/svg11.dtd">
<!-- Generated by graphviz version 2.43.0 (0)
 -->
<!-- Title: squid/src/ipc/mem/Pointer.h Pages: 1 -->
<svg width="755pt" height="357pt"
 viewBox="0.00 0.00 754.50 357.00" xmlns="http://www.w3.org/2000/svg" xmlns:xlink="http://www.w3.org/1999/xlink">
<g id="graph0" class="graph" transform="scale(1 1) rotate(0) translate(4 353)">
<title>squid/src/ipc/mem/Pointer.h</title>
<!-- Node1 -->
<g id="Node000001" class="node">
<title>Node1</title>
<g id="a_Node000001"><a xlink:title=" ">
<polygon fill="#999999" stroke="#666666" points="321.5,-349 169.5,-349 169.5,-330 321.5,-330 321.5,-349"/>
<text text-anchor="middle" x="245.5" y="-337" font-family="Helvetica,sans-Serif" font-size="10.00">squid/src/ipc/mem/Pointer.h</text>
</a>
</g>
</g>
<!-- Node2 -->
<g id="Node000002" class="node">
<title>Node2</title>
<g id="a_Node000002"><a xlink:href="RefCount_8h.html" target="_top" xlink:title=" ">
<polygon fill="white" stroke="#666666" points="294,-294 197,-294 197,-275 294,-275 294,-294"/>
<text text-anchor="middle" x="245.5" y="-282" font-family="Helvetica,sans-Serif" font-size="10.00">base/RefCount.h</text>
</a>
</g>
</g>
<!-- Node1&#45;&gt;Node2 -->
<g id="edge1_Node000001_Node000002" class="edge">
<title>Node1&#45;&gt;Node2</title>
<g id="a_edge1_Node000001_Node000002"><a xlink:title=" ">
<path fill="none" stroke="#63b8ff" d="M245.5,-329.75C245.5,-322.8 245.5,-312.85 245.5,-304.13"/>
<polygon fill="#63b8ff" stroke="#63b8ff" points="249,-304.09 245.5,-294.09 242,-304.09 249,-304.09"/>
</a>
</g>
</g>
<!-- Node6 -->
<g id="Node000006" class="node">
<title>Node6</title>
<g id="a_Node000006"><a xlink:href="TextException_8h.html" target="_top" xlink:title=" ">
<polygon fill="white" stroke="#666666" points="203.5,-184 83.5,-184 83.5,-165 203.5,-165 203.5,-184"/>
<text text-anchor="middle" x="143.5" y="-172" font-family="Helvetica,sans-Serif" font-size="10.00">base/TextException.h</text>
</a>
</g>
</g>
<!-- Node1&#45;&gt;Node6 -->
<g id="edge5_Node000001_Node000006" class="edge">
<title>Node1&#45;&gt;Node6</title>
<g id="a_edge5_Node000001_Node000006"><a xlink:title=" ">
<path fill="none" stroke="#63b8ff" d="M230.5,-329.91C217.7,-321.96 199.5,-309.1 187.5,-294 163.46,-263.75 151.68,-219.07 146.66,-194.11"/>
<polygon fill="#63b8ff" stroke="#63b8ff" points="150.08,-193.34 144.81,-184.15 143.2,-194.62 150.08,-193.34"/>
</a>
</g>
</g>
<!-- Node11 -->
<g id="Node000011" class="node">
<title>Node11</title>
<g id="a_Node000011"><a xlink:href="Segment_8h.html" target="_top" xlink:title=" ">
<polygon fill="white" stroke="#666666" points="551,-294 436,-294 436,-275 551,-275 551,-294"/>
<text text-anchor="middle" x="493.5" y="-282" font-family="Helvetica,sans-Serif" font-size="10.00">ipc/mem/Segment.h</text>
</a>
</g>
</g>
<!-- Node1&#45;&gt;Node11 -->
<g id="edge11_Node000001_Node000011" class="edge">
<title>Node1&#45;&gt;Node11</title>
<g id="a_edge11_Node000001_Node000011"><a xlink:title=" ">
<path fill="none" stroke="#63b8ff" d="M285.35,-329.98C328.33,-320.8 396.87,-306.15 443.46,-296.19"/>
<polygon fill="#63b8ff" stroke="#63b8ff" points="444.29,-299.59 453.34,-294.08 442.83,-292.75 444.29,-299.59"/>
</a>
</g>
</g>
<!-- Node3 -->
<g id="Node000003" class="node">
<title>Node3</title>
<g id="a_Node000003"><a xlink:href="Lock_8h.html" target="_top" xlink:title=" ">
<polygon fill="white" stroke="#666666" points="347.5,-239 273.5,-239 273.5,-220 347.5,-220 347.5,-239"/>
<text text-anchor="middle" x="310.5" y="-227" font-family="Helvetica,sans-Serif" font-size="10.00">base/Lock.h</text>
</a>
</g>
</g>
<!-- Node2&#45;&gt;Node3 -->
<g id="edge2_Node000002_Node000003" class="edge">
<title>Node2&#45;&gt;Node3</title>
<g id="a_edge2_Node000002_Node000003"><a xlink:title=" ">
<path fill="none" stroke="#63b8ff" d="M255.94,-274.98C265.65,-267.07 280.32,-255.11 292,-245.58"/>
<polygon fill="#63b8ff" stroke="#63b8ff" points="294.33,-248.2 299.87,-239.17 289.9,-242.78 294.33,-248.2"/>
</a>
</g>
</g>
<!-- Node4 -->
<g id="Node000004" class="node">
<title>Node4</title>
<g id="a_Node000004"><a xlink:title=" ">
<polygon fill="#e0e0e0" stroke="#999999" points="284.5,-129 224.5,-129 224.5,-110 284.5,-110 284.5,-129"/>
<text text-anchor="middle" x="254.5" y="-117" font-family="Helvetica,sans-Serif" font-size="10.00">iostream</text>
</a>
</g>
</g>
<!-- Node2&#45;&gt;Node4 -->
<g id="edge3_Node000002_Node000004" class="edge">
<title>Node2&#45;&gt;Node4</title>
<g id="a_edge3_Node000002_Node000004"><a xlink:title=" ">
<path fill="none" stroke="#63b8ff" d="M245.98,-274.74C247.39,-249.31 251.49,-175.08 253.44,-139.69"/>
<polygon fill="#63b8ff" stroke="#63b8ff" points="256.96,-139.48 254.01,-129.31 249.97,-139.1 256.96,-139.48"/>
</a>
</g>
</g>
<!-- Node5 -->
<g id="Node000005" class="node">
<title>Node5</title>
<g id="a_Node000005"><a xlink:title=" ">
<polygon fill="#e0e0e0" stroke="#999999" points="217,-239 172,-239 172,-220 217,-220 217,-239"/>
<text text-anchor="middle" x="194.5" y="-227" font-family="Helvetica,sans-Serif" font-size="10.00">utility</text>
</a>
</g>
</g>
<!-- Node2&#45;&gt;Node5 -->
<g id="edge4_Node000002_Node000005" class="edge">
<title>Node2&#45;&gt;Node5</title>
<g id="a_edge4_Node000002_Node000005"><a xlink:title=" ">
<path fill="none" stroke="#63b8ff" d="M237.08,-274.75C229.73,-267.11 218.87,-255.82 209.96,-246.56"/>
<polygon fill="#63b8ff" stroke="#63b8ff" points="212.22,-243.87 202.76,-239.09 207.18,-248.72 212.22,-243.87"/>
</a>
</g>
</g>
<!-- Node7 -->
<g id="Node000007" class="node">
<title>Node7</title>
<g id="a_Node000007"><a xlink:href="Assure_8h.html" target="_top" xlink:title=" ">
<polygon fill="white" stroke="#666666" points="85,-129 0,-129 0,-110 85,-110 85,-129"/>
<text text-anchor="middle" x="42.5" y="-117" font-family="Helvetica,sans-Serif" font-size="10.00">base/Assure.h</text>
</a>
</g>
</g>
<!-- Node6&#45;&gt;Node7 -->
<g id="edge6_Node000006_Node000007" class="edge">
<title>Node6&#45;&gt;Node7</title>
<g id="a_edge6_Node000006_Node000007"><a xlink:title=" ">
<path fill="none" stroke="#63b8ff" d="M127.27,-164.98C111.32,-156.61 86.72,-143.7 68.12,-133.95"/>
<polygon fill="#63b8ff" stroke="#63b8ff" points="69.5,-130.72 59.02,-129.17 66.25,-136.92 69.5,-130.72"/>
</a>
</g>
</g>
<!-- Node8 -->
<g id="Node000008" class="node">
<title>Node8</title>
<g id="a_Node000008"><a xlink:href="Here_8h.html" target="_top" xlink:title=" ">
<polygon fill="white" stroke="#666666" points="234,-74 159,-74 159,-55 234,-55 234,-74"/>
<text text-anchor="middle" x="196.5" y="-62" font-family="Helvetica,sans-Serif" font-size="10.00">base/Here.h</text>
</a>
</g>
</g>
<!-- Node6&#45;&gt;Node8 -->
<g id="edge9_Node000006_Node000008" class="edge">
<title>Node6&#45;&gt;Node8</title>
<g id="a_edge9_Node000006_Node000008"><a xlink:title=" ">
<path fill="none" stroke="#63b8ff" d="M151.27,-164.88C158.64,-156.32 169.6,-142.54 176.5,-129 183.81,-114.67 189.08,-97.14 192.38,-84.14"/>
<polygon fill="#63b8ff" stroke="#63b8ff" points="195.86,-84.6 194.76,-74.07 189.05,-82.99 195.86,-84.6"/>
</a>
</g>
</g>
<!-- Node10 -->
<g id="Node000010" class="node">
<title>Node10</title>
<g id="a_Node000010"><a xlink:title=" ">
<polygon fill="#e0e0e0" stroke="#999999" points="168,-129 103,-129 103,-110 168,-110 168,-129"/>
<text text-anchor="middle" x="135.5" y="-117" font-family="Helvetica,sans-Serif" font-size="10.00">stdexcept</text>
</a>
</g>
</g>
<!-- Node6&#45;&gt;Node10 -->
<g id="edge10_Node000006_Node000010" class="edge">
<title>Node6&#45;&gt;Node10</title>
<g id="a_edge10_Node000006_Node000010"><a xlink:title=" ">
<path fill="none" stroke="#63b8ff" d="M142.18,-164.75C141.13,-157.8 139.63,-147.85 138.31,-139.13"/>
<polygon fill="#63b8ff" stroke="#63b8ff" points="141.75,-138.45 136.8,-129.09 134.83,-139.5 141.75,-138.45"/>
</a>
</g>
</g>
<!-- Node7&#45;&gt;Node8 -->
<g id="edge7_Node000007_Node000008" class="edge">
<title>Node7&#45;&gt;Node8</title>
<g id="a_edge7_Node000007_Node000008"><a xlink:title=" ">
<path fill="none" stroke="#63b8ff" d="M67.24,-109.98C92.87,-101.16 133.13,-87.31 161.91,-77.41"/>
<polygon fill="#63b8ff" stroke="#63b8ff" points="163.25,-80.65 171.56,-74.08 160.97,-74.03 163.25,-80.65"/>
</a>
</g>
</g>
<!-- Node9 -->
<g id="Node000009" class="node">
<title>Node9</title>
<g id="a_Node000009"><a xlink:title=" ">
<polygon fill="#e0e0e0" stroke="#999999" points="220.5,-19 172.5,-19 172.5,0 220.5,0 220.5,-19"/>
<text text-anchor="middle" x="196.5" y="-7" font-family="Helvetica,sans-Serif" font-size="10.00">iosfwd</text>
</a>
</g>
</g>
<!-- Node8&#45;&gt;Node9 -->
<g id="edge8_Node000008_Node000009" class="edge">
<title>Node8&#45;&gt;Node9</title>
<g id="a_edge8_Node000008_Node000009"><a xlink:title=" ">
<path fill="none" stroke="#63b8ff" d="M196.5,-54.75C196.5,-47.8 196.5,-37.85 196.5,-29.13"/>
<polygon fill="#63b8ff" stroke="#63b8ff" points="200,-29.09 196.5,-19.09 193,-29.09 200,-29.09"/>
</a>
</g>
</g>
<!-- Node12 -->
<g id="Node000012" class="node">
<title>Node12</title>
<g id="a_Node000012"><a xlink:href="RunnersRegistry_8h.html" target="_top" xlink:title=" ">
<polygon fill="white" stroke="#666666" points="497,-239 366,-239 366,-220 497,-220 497,-239"/>
<text text-anchor="middle" x="431.5" y="-227" font-family="Helvetica,sans-Serif" font-size="10.00">base/RunnersRegistry.h</text>
</a>
</g>
</g>
<!-- Node11&#45;&gt;Node12 -->
<g id="edge12_Node000011_Node000012" class="edge">
<title>Node11&#45;&gt;Node12</title>
<g id="a_edge12_Node000011_Node000012"><a xlink:title=" ">
<path fill="none" stroke="#63b8ff" d="M483.54,-274.98C474.37,-267.15 460.56,-255.34 449.47,-245.86"/>
<polygon fill="#63b8ff" stroke="#63b8ff" points="451.52,-243.01 441.64,-239.17 446.97,-248.33 451.52,-243.01"/>
</a>
</g>
</g>
<!-- Node13 -->
<g id="Node000013" class="node">
<title>Node13</title>
<g id="a_Node000013"><a xlink:href="sbuf_2forward_8h.html" target="_top" xlink:title=" ">
<polygon fill="white" stroke="#666666" points="697,-184 610,-184 610,-165 697,-165 697,-184"/>
<text text-anchor="middle" x="653.5" y="-172" font-family="Helvetica,sans-Serif" font-size="10.00">sbuf/forward.h</text>
</a>
</g>
</g>
<!-- Node11&#45;&gt;Node13 -->
<g id="edge13_Node000011_Node000013" class="edge">
<title>Node11&#45;&gt;Node13</title>
<g id="a_edge13_Node000011_Node000013"><a xlink:title=" ">
<path fill="none" stroke="#63b8ff" d="M528.56,-274.93C552,-267.97 582.61,-256.43 605.5,-239 621.94,-226.48 635.55,-206.93 644.02,-192.83"/>
<polygon fill="#63b8ff" stroke="#63b8ff" points="647.1,-194.5 649.05,-184.09 641.03,-191.01 647.1,-194.5"/>
</a>
</g>
</g>
<!-- Node16 -->
<g id="Node000016" class="node">
<title>Node16</title>
<g id="a_Node000016"><a xlink:href="SquidString_8h.html" target="_top" xlink:title=" ">
<polygon fill="white" stroke="#666666" points="596,-239 515,-239 515,-220 596,-220 596,-239"/>
<text text-anchor="middle" x="555.5" y="-227" font-family="Helvetica,sans-Serif" font-size="10.00">SquidString.h</text>
</a>
</g>
</g>
<!-- Node11&#45;&gt;Node16 -->
<g id="edge16_Node000011_Node000016" class="edge">
<title>Node11&#45;&gt;Node16</title>
<g id="a_edge16_Node000011_Node000016"><a xlink:title=" ">
<path fill="none" stroke="#63b8ff" d="M503.46,-274.98C512.63,-267.15 526.44,-255.34 537.53,-245.86"/>
<polygon fill="#63b8ff" stroke="#63b8ff" points="540.03,-248.33 545.36,-239.17 535.48,-243.01 540.03,-248.33"/>
</a>
</g>
</g>
<!-- Node14 -->
<g id="Node000014" class="node">
<title>Node14</title>
<g id="a_Node000014"><a xlink:title=" ">
<polygon fill="#e0e0e0" stroke="#999999" points="696,-129 631,-129 631,-110 696,-110 696,-129"/>
<text text-anchor="middle" x="663.5" y="-117" font-family="Helvetica,sans-Serif" font-size="10.00">functional</text>
</a>
</g>
</g>
<!-- Node13&#45;&gt;Node14 -->
<g id="edge14_Node000013_Node000014" class="edge">
<title>Node13&#45;&gt;Node14</title>
<g id="a_edge14_Node000013_Node000014"><a xlink:title=" ">
<path fill="none" stroke="#63b8ff" d="M655.15,-164.75C656.46,-157.8 658.34,-147.85 659.98,-139.13"/>
<polygon fill="#63b8ff" stroke="#63b8ff" points="663.46,-139.56 661.88,-129.09 656.59,-138.27 663.46,-139.56"/>
</a>
</g>
</g>
<!-- Node15 -->
<g id="Node000015" class="node">
<title>Node15</title>
<g id="a_Node000015"><a xlink:title=" ">
<polygon fill="#e0e0e0" stroke="#999999" points="746.5,-129 714.5,-129 714.5,-110 746.5,-110 746.5,-129"/>
<text text-anchor="middle" x="730.5" y="-117" font-family="Helvetica,sans-Serif" font-size="10.00">list</text>
</a>
</g>
</g>
<!-- Node13&#45;&gt;Node15 -->
<g id="edge15_Node000013_Node000015" class="edge">
<title>Node13&#45;&gt;Node15</title>
<g id="a_edge15_Node000013_Node000015"><a xlink:title=" ">
<path fill="none" stroke="#63b8ff" d="M665.87,-164.98C677.59,-156.92 695.42,-144.65 709.39,-135.03"/>
<polygon fill="#63b8ff" stroke="#63b8ff" points="711.65,-137.72 717.9,-129.17 707.68,-131.96 711.65,-137.72"/>
</a>
</g>
</g>
<!-- Node16&#45;&gt;Node6 -->
<g id="edge17_Node000016_Node000006" class="edge">
<title>Node16&#45;&gt;Node6</title>
<g id="a_edge17_Node000016_Node000006"><a xlink:title=" ">
<path fill="none" stroke="#63b8ff" d="M514.88,-221.29C512.05,-220.84 509.23,-220.4 506.5,-220 404.97,-204.98 286.93,-191.19 213.71,-183.06"/>
<polygon fill="#63b8ff" stroke="#63b8ff" points="214,-179.57 203.68,-181.95 213.23,-186.53 214,-179.57"/>
</a>
</g>
</g>
<!-- Node16&#45;&gt;Node13 -->
<g id="edge24_Node000016_Node000013" class="edge">
<title>Node16&#45;&gt;Node13</title>
<g id="a_edge24_Node000016_Node000013"><a xlink:title=" ">
<path fill="none" stroke="#63b8ff" d="M571.25,-219.98C586.73,-211.61 610.59,-198.7 628.64,-188.95"/>
<polygon fill="#63b8ff" stroke="#63b8ff" points="630.34,-192.01 637.47,-184.17 627.01,-185.85 630.34,-192.01"/>
</a>
</g>
</g>
<!-- Node17 -->
<g id="Node000017" class="node">
<title>Node17</title>
<g id="a_Node000017"><a xlink:href="debug_2Stream_8h.html" target="_top" xlink:title=" ">
<polygon fill="white" stroke="#666666" points="489.5,-184 395.5,-184 395.5,-165 489.5,-165 489.5,-184"/>
<text text-anchor="middle" x="442.5" y="-172" font-family="Helvetica,sans-Serif" font-size="10.00">debug/Stream.h</text>
</a>
</g>
</g>
<!-- Node16&#45;&gt;Node17 -->
<g id="edge18_Node000016_Node000017" class="edge">
<title>Node16&#45;&gt;Node17</title>
<g id="a_edge18_Node000016_Node000017"><a xlink:title=" ">
<path fill="none" stroke="#63b8ff" d="M537.34,-219.98C519.25,-211.5 491.22,-198.35 470.31,-188.54"/>
<polygon fill="#63b8ff" stroke="#63b8ff" points="471.53,-185.25 460.99,-184.17 468.55,-191.59 471.53,-185.25"/>
</a>
</g>
</g>
<!-- Node21 -->
<g id="Node000021" class="node">
<title>Node21</title>
<g id="a_Node000021"><a xlink:title=" ">
<polygon fill="#e0e0e0" stroke="#999999" points="377,-184 320,-184 320,-165 377,-165 377,-184"/>
<text text-anchor="middle" x="348.5" y="-172" font-family="Helvetica,sans-Serif" font-size="10.00">ostream</text>
</a>
</g>
</g>
<!-- Node16&#45;&gt;Node21 -->
<g id="edge25_Node000016_Node000021" class="edge">
<title>Node16&#45;&gt;Node21</title>
<g id="a_edge25_Node000016_Node000021"><a xlink:title=" ">
<path fill="none" stroke="#63b8ff" d="M522.24,-219.98C485.31,-210.53 425.8,-195.29 386.91,-185.33"/>
<polygon fill="#63b8ff" stroke="#63b8ff" points="387.57,-181.89 377.01,-182.8 385.83,-188.67 387.57,-181.89"/>
</a>
</g>
</g>
<!-- Node17&#45;&gt;Node4 -->
<g id="edge21_Node000017_Node000004" class="edge">
<title>Node17&#45;&gt;Node4</title>
<g id="a_edge21_Node000017_Node000004"><a xlink:title=" ">
<path fill="none" stroke="#63b8ff" d="M412.29,-164.98C380.36,-155.98 329.84,-141.74 294.59,-131.8"/>
<polygon fill="#63b8ff" stroke="#63b8ff" points="295.21,-128.34 284.63,-128.99 293.31,-135.08 295.21,-128.34"/>
</a>
</g>
</g>
<!-- Node17&#45;&gt;Node8 -->
<g id="edge19_Node000017_Node000008" class="edge">
<title>Node17&#45;&gt;Node8</title>
<g id="a_edge19_Node000017_Node000008"><a xlink:title=" ">
<path fill="none" stroke="#63b8ff" d="M419.31,-164.84C396.69,-156.25 361.42,-142.45 331.5,-129 314.28,-121.26 310.53,-118.16 293.5,-110 270.49,-98.97 244.16,-86.93 224.75,-78.16"/>
<polygon fill="#63b8ff" stroke="#63b8ff" points="226.1,-74.93 215.55,-74.01 223.22,-81.31 226.1,-74.93"/>
</a>
</g>
</g>
<!-- Node18 -->
<g id="Node000018" class="node">
<title>Node18</title>
<g id="a_Node000018"><a xlink:href="AllocatorProxy_8h.html" target="_top" xlink:title=" ">
<polygon fill="white" stroke="#666666" points="612.5,-129 488.5,-129 488.5,-110 612.5,-110 612.5,-129"/>
<text text-anchor="middle" x="550.5" y="-117" font-family="Helvetica,sans-Serif" font-size="10.00">mem/AllocatorProxy.h</text>
</a>
</g>
</g>
<!-- Node17&#45;&gt;Node18 -->
<g id="edge20_Node000017_Node000018" class="edge">
<title>Node17&#45;&gt;Node18</title>
<g id="a_edge20_Node000017_Node000018"><a xlink:title=" ">
<path fill="none" stroke="#63b8ff" d="M459.85,-164.98C477.07,-156.54 503.7,-143.47 523.65,-133.68"/>
<polygon fill="#63b8ff" stroke="#63b8ff" points="525.4,-136.72 532.83,-129.17 522.31,-130.43 525.4,-136.72"/>
</a>
</g>
</g>
<!-- Node19 -->
<g id="Node000019" class="node">
<title>Node19</title>
<g id="a_Node000019"><a xlink:title=" ">
<polygon fill="#e0e0e0" stroke="#999999" points="396.5,-129 340.5,-129 340.5,-110 396.5,-110 396.5,-129"/>
<text text-anchor="middle" x="368.5" y="-117" font-family="Helvetica,sans-Serif" font-size="10.00">sstream</text>
</a>
</g>
</g>
<!-- Node17&#45;&gt;Node19 -->
<g id="edge22_Node000017_Node000019" class="edge">
<title>Node17&#45;&gt;Node19</title>
<g id="a_edge22_Node000017_Node000019"><a xlink:title=" ">
<path fill="none" stroke="#63b8ff" d="M430.61,-164.98C419.35,-156.92 402.21,-144.65 388.79,-135.03"/>
<polygon fill="#63b8ff" stroke="#63b8ff" points="390.77,-132.15 380.61,-129.17 386.7,-137.84 390.77,-132.15"/>
</a>
</g>
</g>
<!-- Node20 -->
<g id="Node000020" class="node">
<title>Node20</title>
<g id="a_Node000020"><a xlink:title=" ">
<polygon fill="#e0e0e0" stroke="#999999" points="470.5,-129 414.5,-129 414.5,-110 470.5,-110 470.5,-129"/>
<text text-anchor="middle" x="442.5" y="-117" font-family="Helvetica,sans-Serif" font-size="10.00">iomanip</text>
</a>
</g>
</g>
<!-- Node17&#45;&gt;Node20 -->
<g id="edge23_Node000017_Node000020" class="edge">
<title>Node17&#45;&gt;Node20</title>
<g id="a_edge23_Node000017_Node000020"><a xlink:title=" ">
<path fill="none" stroke="#63b8ff" d="M442.5,-164.75C442.5,-157.8 442.5,-147.85 442.5,-139.13"/>
<polygon fill="#63b8ff" stroke="#63b8ff" points="446,-139.09 442.5,-129.09 439,-139.09 446,-139.09"/>
</a>
</g>
</g>
</g>
</svg>
