<?xml version="1.0" encoding="UTF-8" standalone="no"?>
<!DOCTYPE svg PUBLIC "-//W3C//DTD SVG 1.1//EN"
 "http://www.w3.org/Graphics/SVG/1.1/DTD/svg11.dtd">
<!-- Generated by graphviz version 2.43.0 (0)
 -->
<!-- Title: squid/src/mem/Pool.cc Pages: 1 -->
<svg width="3807pt" height="247pt"
 viewBox="0.00 0.00 3807.00 247.00" xmlns="http://www.w3.org/2000/svg" xmlns:xlink="http://www.w3.org/1999/xlink">
<g id="graph0" class="graph" transform="scale(1 1) rotate(0) translate(4 243)">
<title>squid/src/mem/Pool.cc</title>
<!-- Node1 -->
<g id="Node000001" class="node">
<title>Node1</title>
<g id="a_Node000001"><a xlink:title=" ">
<polygon fill="#999999" stroke="#666666" points="3513.5,-239 3387.5,-239 3387.5,-220 3513.5,-220 3513.5,-239"/>
<text text-anchor="middle" x="3450.5" y="-227" font-family="Helvetica,sans-Serif" font-size="10.00">squid/src/mem/Pool.cc</text>
</a>
</g>
</g>
<!-- Node2 -->
<g id="Node000002" class="node">
<title>Node2</title>
<g id="a_Node000002"><a xlink:href="squid_8h.html" target="_top" xlink:title=" ">
<polygon fill="white" stroke="#666666" points="1637.5,-184 1585.5,-184 1585.5,-165 1637.5,-165 1637.5,-184"/>
<text text-anchor="middle" x="1611.5" y="-172" font-family="Helvetica,sans-Serif" font-size="10.00">squid.h</text>
</a>
</g>
</g>
<!-- Node1&#45;&gt;Node2 -->
<g id="edge1_Node000001_Node000002" class="edge">
<title>Node1&#45;&gt;Node2</title>
<g id="a_edge1_Node000001_Node000002"><a xlink:title=" ">
<path fill="none" stroke="#63b8ff" d="M3387.46,-226.68C3094.96,-218.25 1874.62,-183.08 1647.85,-176.55"/>
<polygon fill="#63b8ff" stroke="#63b8ff" points="1647.91,-173.05 1637.81,-176.26 1647.71,-180.05 1647.91,-173.05"/>
</a>
</g>
</g>
<!-- Node44 -->
<g id="Node000044" class="node">
<title>Node44</title>
<g id="a_Node000044"><a xlink:href="Pool_8h.html" target="_top" xlink:title=" ">
<polygon fill="white" stroke="#666666" points="3304,-129 3229,-129 3229,-110 3304,-110 3304,-129"/>
<text text-anchor="middle" x="3266.5" y="-117" font-family="Helvetica,sans-Serif" font-size="10.00">mem/Pool.h</text>
</a>
</g>
</g>
<!-- Node1&#45;&gt;Node44 -->
<g id="edge33_Node000001_Node000044" class="edge">
<title>Node1&#45;&gt;Node44</title>
<g id="a_edge33_Node000001_Node000044"><a xlink:title=" ">
<path fill="none" stroke="#63b8ff" d="M3387.2,-225.95C3353,-221.35 3312.4,-210.17 3285.5,-184 3273.53,-172.35 3269.02,-153.49 3267.37,-139.34"/>
<polygon fill="#63b8ff" stroke="#63b8ff" points="3270.85,-138.93 3266.56,-129.24 3263.87,-139.49 3270.85,-138.93"/>
</a>
</g>
</g>
<!-- Node52 -->
<g id="Node000052" class="node">
<title>Node52</title>
<g id="a_Node000052"><a xlink:href="PoolChunked_8h.html" target="_top" xlink:title=" ">
<polygon fill="white" stroke="#666666" points="3509,-184 3392,-184 3392,-165 3509,-165 3509,-184"/>
<text text-anchor="middle" x="3450.5" y="-172" font-family="Helvetica,sans-Serif" font-size="10.00">mem/PoolChunked.h</text>
</a>
</g>
</g>
<!-- Node1&#45;&gt;Node52 -->
<g id="edge39_Node000001_Node000052" class="edge">
<title>Node1&#45;&gt;Node52</title>
<g id="a_edge39_Node000001_Node000052"><a xlink:title=" ">
<path fill="none" stroke="#63b8ff" d="M3450.5,-219.75C3450.5,-212.8 3450.5,-202.85 3450.5,-194.13"/>
<polygon fill="#63b8ff" stroke="#63b8ff" points="3454,-194.09 3450.5,-184.09 3447,-194.09 3454,-194.09"/>
</a>
</g>
</g>
<!-- Node60 -->
<g id="Node000060" class="node">
<title>Node60</title>
<g id="a_Node000060"><a xlink:href="PoolMalloc_8h.html" target="_top" xlink:title=" ">
<polygon fill="white" stroke="#666666" points="3634,-184 3527,-184 3527,-165 3634,-165 3634,-184"/>
<text text-anchor="middle" x="3580.5" y="-172" font-family="Helvetica,sans-Serif" font-size="10.00">mem/PoolMalloc.h</text>
</a>
</g>
</g>
<!-- Node1&#45;&gt;Node60 -->
<g id="edge48_Node000001_Node000060" class="edge">
<title>Node1&#45;&gt;Node60</title>
<g id="a_edge48_Node000001_Node000060"><a xlink:title=" ">
<path fill="none" stroke="#63b8ff" d="M3471.39,-219.98C3492.58,-211.34 3525.63,-197.87 3549.8,-188.02"/>
<polygon fill="#63b8ff" stroke="#63b8ff" points="3551.29,-191.19 3559.23,-184.17 3548.65,-184.7 3551.29,-191.19"/>
</a>
</g>
</g>
<!-- Node61 -->
<g id="Node000061" class="node">
<title>Node61</title>
<g id="a_Node000061"><a xlink:href="mem_2Stats_8h.html" target="_top" xlink:title=" ">
<polygon fill="white" stroke="#666666" points="3374,-184 3295,-184 3295,-165 3374,-165 3374,-184"/>
<text text-anchor="middle" x="3334.5" y="-172" font-family="Helvetica,sans-Serif" font-size="10.00">mem/Stats.h</text>
</a>
</g>
</g>
<!-- Node1&#45;&gt;Node61 -->
<g id="edge51_Node000001_Node000061" class="edge">
<title>Node1&#45;&gt;Node61</title>
<g id="a_edge51_Node000001_Node000061"><a xlink:title=" ">
<path fill="none" stroke="#63b8ff" d="M3431.86,-219.98C3413.2,-211.46 3384.25,-198.23 3362.76,-188.41"/>
<polygon fill="#63b8ff" stroke="#63b8ff" points="3364.03,-185.14 3353.48,-184.17 3361.12,-191.51 3364.03,-185.14"/>
</a>
</g>
</g>
<!-- Node62 -->
<g id="Node000062" class="node">
<title>Node62</title>
<g id="a_Node000062"><a xlink:title=" ">
<polygon fill="#e0e0e0" stroke="#999999" points="3704.5,-184 3652.5,-184 3652.5,-165 3704.5,-165 3704.5,-184"/>
<text text-anchor="middle" x="3678.5" y="-172" font-family="Helvetica,sans-Serif" font-size="10.00">cassert</text>
</a>
</g>
</g>
<!-- Node1&#45;&gt;Node62 -->
<g id="edge53_Node000001_Node000062" class="edge">
<title>Node1&#45;&gt;Node62</title>
<g id="a_edge53_Node000001_Node000062"><a xlink:title=" ">
<path fill="none" stroke="#63b8ff" d="M3488.25,-219.93C3525.13,-211.53 3583.11,-198.25 3642.25,-184.28"/>
<polygon fill="#63b8ff" stroke="#63b8ff" points="3643.21,-187.65 3652.13,-181.94 3641.6,-180.83 3643.21,-187.65"/>
</a>
</g>
</g>
<!-- Node63 -->
<g id="Node000063" class="node">
<title>Node63</title>
<g id="a_Node000063"><a xlink:title=" ">
<polygon fill="#e0e0e0" stroke="#999999" points="3772.5,-184 3722.5,-184 3722.5,-165 3772.5,-165 3772.5,-184"/>
<text text-anchor="middle" x="3747.5" y="-172" font-family="Helvetica,sans-Serif" font-size="10.00">cstring</text>
</a>
</g>
</g>
<!-- Node1&#45;&gt;Node63 -->
<g id="edge54_Node000001_Node000063" class="edge">
<title>Node1&#45;&gt;Node63</title>
<g id="a_edge54_Node000001_Node000063"><a xlink:title=" ">
<path fill="none" stroke="#63b8ff" d="M3508.72,-219.97C3559.88,-212.18 3636.54,-199.78 3712.13,-184.15"/>
<polygon fill="#63b8ff" stroke="#63b8ff" points="3713.23,-187.5 3722.3,-182.03 3711.79,-180.65 3713.23,-187.5"/>
</a>
</g>
</g>
<!-- Node3 -->
<g id="Node000003" class="node">
<title>Node3</title>
<g id="a_Node000003"><a xlink:href="autoconf_8h.html" target="_top" xlink:title=" ">
<polygon fill="white" stroke="#666666" points="1512.5,-129 1444.5,-129 1444.5,-110 1512.5,-110 1512.5,-129"/>
<text text-anchor="middle" x="1478.5" y="-117" font-family="Helvetica,sans-Serif" font-size="10.00">autoconf.h</text>
</a>
</g>
</g>
<!-- Node2&#45;&gt;Node3 -->
<g id="edge2_Node000002_Node000003" class="edge">
<title>Node2&#45;&gt;Node3</title>
<g id="a_edge2_Node000002_Node000003"><a xlink:title=" ">
<path fill="none" stroke="#63b8ff" d="M1590.13,-164.98C1568.35,-156.3 1534.34,-142.75 1509.58,-132.88"/>
<polygon fill="#63b8ff" stroke="#63b8ff" points="1510.84,-129.62 1500.26,-129.17 1508.25,-136.12 1510.84,-129.62"/>
</a>
</g>
</g>
<!-- Node4 -->
<g id="Node000004" class="node">
<title>Node4</title>
<g id="a_Node000004"><a xlink:href="version_8h.html" target="_top" xlink:title=" ">
<polygon fill="white" stroke="#666666" points="1592.5,-129 1530.5,-129 1530.5,-110 1592.5,-110 1592.5,-129"/>
<text text-anchor="middle" x="1561.5" y="-117" font-family="Helvetica,sans-Serif" font-size="10.00">version.h</text>
</a>
</g>
</g>
<!-- Node2&#45;&gt;Node4 -->
<g id="edge3_Node000002_Node000004" class="edge">
<title>Node2&#45;&gt;Node4</title>
<g id="a_edge3_Node000002_Node000004"><a xlink:title=" ">
<path fill="none" stroke="#63b8ff" d="M1603.24,-164.75C1596.04,-157.11 1585.39,-145.82 1576.65,-136.56"/>
<polygon fill="#63b8ff" stroke="#63b8ff" points="1579.01,-133.96 1569.6,-129.09 1573.92,-138.76 1579.01,-133.96"/>
</a>
</g>
</g>
<!-- Node5 -->
<g id="Node000005" class="node">
<title>Node5</title>
<g id="a_Node000005"><a xlink:href="compat_8h.html" target="_top" xlink:title=" ">
<polygon fill="white" stroke="#666666" points="1712.5,-129 1610.5,-129 1610.5,-110 1712.5,-110 1712.5,-129"/>
<text text-anchor="middle" x="1661.5" y="-117" font-family="Helvetica,sans-Serif" font-size="10.00">compat/compat.h</text>
</a>
</g>
</g>
<!-- Node2&#45;&gt;Node5 -->
<g id="edge4_Node000002_Node000005" class="edge">
<title>Node2&#45;&gt;Node5</title>
<g id="a_edge4_Node000002_Node000005"><a xlink:title=" ">
<path fill="none" stroke="#63b8ff" d="M1619.76,-164.75C1626.96,-157.11 1637.61,-145.82 1646.35,-136.56"/>
<polygon fill="#63b8ff" stroke="#63b8ff" points="1649.08,-138.76 1653.4,-129.09 1643.99,-133.96 1649.08,-138.76"/>
</a>
</g>
</g>
<!-- Node6 -->
<g id="Node000006" class="node">
<title>Node6</title>
<g id="a_Node000006"><a xlink:href="osdetect_8h.html" target="_top" xlink:title=" ">
<polygon fill="white" stroke="#666666" points="230,-74 123,-74 123,-55 230,-55 230,-74"/>
<text text-anchor="middle" x="176.5" y="-62" font-family="Helvetica,sans-Serif" font-size="10.00">compat/osdetect.h</text>
</a>
</g>
</g>
<!-- Node5&#45;&gt;Node6 -->
<g id="edge5_Node000005_Node000006" class="edge">
<title>Node5&#45;&gt;Node6</title>
<g id="a_edge5_Node000005_Node000006"><a xlink:title=" ">
<path fill="none" stroke="#63b8ff" d="M1610.48,-110.87C1607.45,-110.54 1604.44,-110.25 1601.5,-110 1001.46,-59.73 844.85,-121.85 240.36,-73.95"/>
<polygon fill="#63b8ff" stroke="#63b8ff" points="240.32,-70.44 230.07,-73.13 239.76,-77.41 240.32,-70.44"/>
</a>
</g>
</g>
<!-- Node7 -->
<g id="Node000007" class="node">
<title>Node7</title>
<g id="a_Node000007"><a xlink:href="fdsetsize_8h.html" target="_top" xlink:title=" ">
<polygon fill="white" stroke="#666666" points="358.5,-74 248.5,-74 248.5,-55 358.5,-55 358.5,-74"/>
<text text-anchor="middle" x="303.5" y="-62" font-family="Helvetica,sans-Serif" font-size="10.00">compat/fdsetsize.h</text>
</a>
</g>
</g>
<!-- Node5&#45;&gt;Node7 -->
<g id="edge6_Node000005_Node000007" class="edge">
<title>Node5&#45;&gt;Node7</title>
<g id="a_edge6_Node000005_Node000007"><a xlink:title=" ">
<path fill="none" stroke="#63b8ff" d="M1610.48,-110.88C1607.45,-110.55 1604.44,-110.25 1601.5,-110 1058.14,-63.73 916.13,-117.51 368.75,-74"/>
<polygon fill="#63b8ff" stroke="#63b8ff" points="368.87,-70.5 358.62,-73.19 368.31,-77.48 368.87,-70.5"/>
</a>
</g>
</g>
<!-- Node8 -->
<g id="Node000008" class="node">
<title>Node8</title>
<g id="a_Node000008"><a xlink:href="types_8h.html" target="_top" xlink:title=" ">
<polygon fill="white" stroke="#666666" points="468.5,-74 376.5,-74 376.5,-55 468.5,-55 468.5,-74"/>
<text text-anchor="middle" x="422.5" y="-62" font-family="Helvetica,sans-Serif" font-size="10.00">compat/types.h</text>
</a>
</g>
</g>
<!-- Node5&#45;&gt;Node8 -->
<g id="edge7_Node000005_Node000008" class="edge">
<title>Node5&#45;&gt;Node8</title>
<g id="a_edge7_Node000005_Node000008"><a xlink:title=" ">
<path fill="none" stroke="#63b8ff" d="M1610.48,-110.89C1607.45,-110.55 1604.43,-110.25 1601.5,-110 1106.83,-67.17 976.88,-119.55 478.63,-73.97"/>
<polygon fill="#63b8ff" stroke="#63b8ff" points="478.94,-70.48 468.66,-73.05 478.3,-77.45 478.94,-70.48"/>
</a>
</g>
</g>
<!-- Node10 -->
<g id="Node000010" class="node">
<title>Node10</title>
<g id="a_Node000010"><a xlink:href="aix_8h.html" target="_top" xlink:title=" ">
<polygon fill="white" stroke="#666666" points="582,-74 487,-74 487,-55 582,-55 582,-74"/>
<text text-anchor="middle" x="534.5" y="-62" font-family="Helvetica,sans-Serif" font-size="10.00">compat/os/aix.h</text>
</a>
</g>
</g>
<!-- Node5&#45;&gt;Node10 -->
<g id="edge9_Node000005_Node000010" class="edge">
<title>Node5&#45;&gt;Node10</title>
<g id="a_edge9_Node000005_Node000010"><a xlink:title=" ">
<path fill="none" stroke="#63b8ff" d="M1610.48,-110.9C1607.44,-110.56 1604.43,-110.26 1601.5,-110 1157.35,-70.73 1040.49,-114.54 592.02,-73.91"/>
<polygon fill="#63b8ff" stroke="#63b8ff" points="592.31,-70.42 582.04,-73 591.68,-77.39 592.31,-70.42"/>
</a>
</g>
</g>
<!-- Node11 -->
<g id="Node000011" class="node">
<title>Node11</title>
<g id="a_Node000011"><a xlink:href="android_8h.html" target="_top" xlink:title=" ">
<polygon fill="white" stroke="#666666" points="716.5,-74 600.5,-74 600.5,-55 716.5,-55 716.5,-74"/>
<text text-anchor="middle" x="658.5" y="-62" font-family="Helvetica,sans-Serif" font-size="10.00">compat/os/android.h</text>
</a>
</g>
</g>
<!-- Node5&#45;&gt;Node11 -->
<g id="edge10_Node000005_Node000011" class="edge">
<title>Node5&#45;&gt;Node11</title>
<g id="a_edge10_Node000005_Node000011"><a xlink:title=" ">
<path fill="none" stroke="#63b8ff" d="M1610.48,-110.92C1607.44,-110.58 1604.43,-110.27 1601.5,-110 1216.76,-74.93 1115.52,-106.01 726.69,-74.02"/>
<polygon fill="#63b8ff" stroke="#63b8ff" points="726.83,-70.52 716.57,-73.17 726.25,-77.49 726.83,-70.52"/>
</a>
</g>
</g>
<!-- Node12 -->
<g id="Node000012" class="node">
<title>Node12</title>
<g id="a_Node000012"><a xlink:href="dragonfly_8h.html" target="_top" xlink:title=" ">
<polygon fill="white" stroke="#666666" points="858.5,-74 734.5,-74 734.5,-55 858.5,-55 858.5,-74"/>
<text text-anchor="middle" x="796.5" y="-62" font-family="Helvetica,sans-Serif" font-size="10.00">compat/os/dragonfly.h</text>
</a>
</g>
</g>
<!-- Node5&#45;&gt;Node12 -->
<g id="edge11_Node000005_Node000012" class="edge">
<title>Node5&#45;&gt;Node12</title>
<g id="a_edge11_Node000005_Node000012"><a xlink:title=" ">
<path fill="none" stroke="#63b8ff" d="M1610.47,-110.95C1607.44,-110.6 1604.43,-110.28 1601.5,-110 1279.69,-79.38 1194.7,-100.98 869.01,-74.06"/>
<polygon fill="#63b8ff" stroke="#63b8ff" points="869.07,-70.56 858.81,-73.21 868.49,-77.53 869.07,-70.56"/>
</a>
</g>
</g>
<!-- Node13 -->
<g id="Node000013" class="node">
<title>Node13</title>
<g id="a_Node000013"><a xlink:href="freebsd_8h.html" target="_top" xlink:title=" ">
<polygon fill="white" stroke="#666666" points="992.5,-74 876.5,-74 876.5,-55 992.5,-55 992.5,-74"/>
<text text-anchor="middle" x="934.5" y="-62" font-family="Helvetica,sans-Serif" font-size="10.00">compat/os/freebsd.h</text>
</a>
</g>
</g>
<!-- Node5&#45;&gt;Node13 -->
<g id="edge12_Node000005_Node000013" class="edge">
<title>Node5&#45;&gt;Node13</title>
<g id="a_edge12_Node000005_Node000013"><a xlink:title=" ">
<path fill="none" stroke="#63b8ff" d="M1610.47,-110.98C1607.44,-110.63 1604.43,-110.3 1601.5,-110 1338.94,-83.57 1269.18,-98.45 1002.55,-74.03"/>
<polygon fill="#63b8ff" stroke="#63b8ff" points="1002.86,-70.54 992.58,-73.11 1002.21,-77.51 1002.86,-70.54"/>
</a>
</g>
</g>
<!-- Node14 -->
<g id="Node000014" class="node">
<title>Node14</title>
<g id="a_Node000014"><a xlink:href="hpux_8h.html" target="_top" xlink:title=" ">
<polygon fill="white" stroke="#666666" points="1114.5,-74 1010.5,-74 1010.5,-55 1114.5,-55 1114.5,-74"/>
<text text-anchor="middle" x="1062.5" y="-62" font-family="Helvetica,sans-Serif" font-size="10.00">compat/os/hpux.h</text>
</a>
</g>
</g>
<!-- Node5&#45;&gt;Node14 -->
<g id="edge13_Node000005_Node000014" class="edge">
<title>Node5&#45;&gt;Node14</title>
<g id="a_edge13_Node000005_Node000014"><a xlink:title=" ">
<path fill="none" stroke="#63b8ff" d="M1610.47,-111.04C1607.43,-110.67 1604.43,-110.32 1601.5,-110 1393,-87.4 1337.07,-96.42 1124.94,-74.08"/>
<polygon fill="#63b8ff" stroke="#63b8ff" points="1125.03,-70.58 1114.72,-73 1124.29,-77.54 1125.03,-70.58"/>
</a>
</g>
</g>
<!-- Node15 -->
<g id="Node000015" class="node">
<title>Node15</title>
<g id="a_Node000015"><a xlink:href="linux_8h.html" target="_top" xlink:title=" ">
<polygon fill="white" stroke="#666666" points="1236.5,-74 1132.5,-74 1132.5,-55 1236.5,-55 1236.5,-74"/>
<text text-anchor="middle" x="1184.5" y="-62" font-family="Helvetica,sans-Serif" font-size="10.00">compat/os/linux.h</text>
</a>
</g>
</g>
<!-- Node5&#45;&gt;Node15 -->
<g id="edge14_Node000005_Node000015" class="edge">
<title>Node5&#45;&gt;Node15</title>
<g id="a_edge14_Node000005_Node000015"><a xlink:title=" ">
<path fill="none" stroke="#63b8ff" d="M1610.46,-111.13C1607.43,-110.73 1604.42,-110.35 1601.5,-110 1446.87,-91.24 1405.09,-92.9 1246.82,-74.12"/>
<polygon fill="#63b8ff" stroke="#63b8ff" points="1247.07,-70.62 1236.73,-72.91 1246.24,-77.57 1247.07,-70.62"/>
</a>
</g>
</g>
<!-- Node16 -->
<g id="Node000016" class="node">
<title>Node16</title>
<g id="a_Node000016"><a xlink:href="macosx_8h.html" target="_top" xlink:title=" ">
<polygon fill="white" stroke="#666666" points="1372.5,-74 1254.5,-74 1254.5,-55 1372.5,-55 1372.5,-74"/>
<text text-anchor="middle" x="1313.5" y="-62" font-family="Helvetica,sans-Serif" font-size="10.00">compat/os/macosx.h</text>
</a>
</g>
</g>
<!-- Node5&#45;&gt;Node16 -->
<g id="edge15_Node000005_Node000016" class="edge">
<title>Node5&#45;&gt;Node16</title>
<g id="a_edge15_Node000005_Node000016"><a xlink:title=" ">
<path fill="none" stroke="#63b8ff" d="M1610.15,-110.68C1548.92,-101.35 1446.45,-85.75 1379.42,-75.54"/>
<polygon fill="#63b8ff" stroke="#63b8ff" points="1379.8,-72.06 1369.39,-74.01 1378.74,-78.98 1379.8,-72.06"/>
</a>
</g>
</g>
<!-- Node17 -->
<g id="Node000017" class="node">
<title>Node17</title>
<g id="a_Node000017"><a xlink:href="mingw_8h.html" target="_top" xlink:title=" ">
<polygon fill="white" stroke="#666666" points="1502.5,-74 1390.5,-74 1390.5,-55 1502.5,-55 1502.5,-74"/>
<text text-anchor="middle" x="1446.5" y="-62" font-family="Helvetica,sans-Serif" font-size="10.00">compat/os/mingw.h</text>
</a>
</g>
</g>
<!-- Node5&#45;&gt;Node17 -->
<g id="edge16_Node000005_Node000017" class="edge">
<title>Node5&#45;&gt;Node17</title>
<g id="a_edge16_Node000005_Node000017"><a xlink:title=" ">
<path fill="none" stroke="#63b8ff" d="M1626.96,-109.98C1590.08,-100.89 1531.51,-86.46 1491.16,-76.51"/>
<polygon fill="#63b8ff" stroke="#63b8ff" points="1491.86,-73.08 1481.31,-74.08 1490.19,-79.87 1491.86,-73.08"/>
</a>
</g>
</g>
<!-- Node18 -->
<g id="Node000018" class="node">
<title>Node18</title>
<g id="a_Node000018"><a xlink:href="mswindows_8h.html" target="_top" xlink:title=" ">
<polygon fill="white" stroke="#666666" points="1658,-74 1521,-74 1521,-55 1658,-55 1658,-74"/>
<text text-anchor="middle" x="1589.5" y="-62" font-family="Helvetica,sans-Serif" font-size="10.00">compat/os/mswindows.h</text>
</a>
</g>
</g>
<!-- Node5&#45;&gt;Node18 -->
<g id="edge17_Node000005_Node000018" class="edge">
<title>Node5&#45;&gt;Node18</title>
<g id="a_edge17_Node000005_Node000018"><a xlink:title=" ">
<path fill="none" stroke="#63b8ff" d="M1649.93,-109.98C1639.08,-102 1622.62,-89.88 1609.62,-80.31"/>
<polygon fill="#63b8ff" stroke="#63b8ff" points="1611.41,-77.28 1601.28,-74.17 1607.26,-82.92 1611.41,-77.28"/>
</a>
</g>
</g>
<!-- Node19 -->
<g id="Node000019" class="node">
<title>Node19</title>
<g id="a_Node000019"><a xlink:href="netbsd_8h.html" target="_top" xlink:title=" ">
<polygon fill="white" stroke="#666666" points="1789,-74 1676,-74 1676,-55 1789,-55 1789,-74"/>
<text text-anchor="middle" x="1732.5" y="-62" font-family="Helvetica,sans-Serif" font-size="10.00">compat/os/netbsd.h</text>
</a>
</g>
</g>
<!-- Node5&#45;&gt;Node19 -->
<g id="edge18_Node000005_Node000019" class="edge">
<title>Node5&#45;&gt;Node19</title>
<g id="a_edge18_Node000005_Node000019"><a xlink:title=" ">
<path fill="none" stroke="#63b8ff" d="M1672.91,-109.98C1683.61,-102 1699.84,-89.88 1712.66,-80.31"/>
<polygon fill="#63b8ff" stroke="#63b8ff" points="1714.97,-82.96 1720.89,-74.17 1710.78,-77.35 1714.97,-82.96"/>
</a>
</g>
</g>
<!-- Node20 -->
<g id="Node000020" class="node">
<title>Node20</title>
<g id="a_Node000020"><a xlink:href="openbsd_8h.html" target="_top" xlink:title=" ">
<polygon fill="white" stroke="#666666" points="1928,-74 1807,-74 1807,-55 1928,-55 1928,-74"/>
<text text-anchor="middle" x="1867.5" y="-62" font-family="Helvetica,sans-Serif" font-size="10.00">compat/os/openbsd.h</text>
</a>
</g>
</g>
<!-- Node5&#45;&gt;Node20 -->
<g id="edge19_Node000005_Node000020" class="edge">
<title>Node5&#45;&gt;Node20</title>
<g id="a_edge19_Node000005_Node000020"><a xlink:title=" ">
<path fill="none" stroke="#63b8ff" d="M1694.6,-109.98C1729.78,-100.93 1785.57,-86.58 1824.22,-76.64"/>
<polygon fill="#63b8ff" stroke="#63b8ff" points="1825.33,-79.96 1834.14,-74.08 1823.59,-73.18 1825.33,-79.96"/>
</a>
</g>
</g>
<!-- Node21 -->
<g id="Node000021" class="node">
<title>Node21</title>
<g id="a_Node000021"><a xlink:href="os2_8h.html" target="_top" xlink:title=" ">
<polygon fill="white" stroke="#666666" points="2043,-74 1946,-74 1946,-55 2043,-55 2043,-74"/>
<text text-anchor="middle" x="1994.5" y="-62" font-family="Helvetica,sans-Serif" font-size="10.00">compat/os/os2.h</text>
</a>
</g>
</g>
<!-- Node5&#45;&gt;Node21 -->
<g id="edge20_Node000005_Node000021" class="edge">
<title>Node5&#45;&gt;Node21</title>
<g id="a_edge20_Node000005_Node000021"><a xlink:title=" ">
<path fill="none" stroke="#63b8ff" d="M1712.8,-110.33C1772.94,-100.76 1872.41,-84.93 1935.64,-74.87"/>
<polygon fill="#63b8ff" stroke="#63b8ff" points="1936.53,-78.27 1945.85,-73.24 1935.42,-71.36 1936.53,-78.27"/>
</a>
</g>
</g>
<!-- Node22 -->
<g id="Node000022" class="node">
<title>Node22</title>
<g id="a_Node000022"><a xlink:href="qnx_8h.html" target="_top" xlink:title=" ">
<polygon fill="white" stroke="#666666" points="2159.5,-74 2061.5,-74 2061.5,-55 2159.5,-55 2159.5,-74"/>
<text text-anchor="middle" x="2110.5" y="-62" font-family="Helvetica,sans-Serif" font-size="10.00">compat/os/qnx.h</text>
</a>
</g>
</g>
<!-- Node5&#45;&gt;Node22 -->
<g id="edge21_Node000005_Node000022" class="edge">
<title>Node5&#45;&gt;Node22</title>
<g id="a_edge21_Node000005_Node000022"><a xlink:title=" ">
<path fill="none" stroke="#63b8ff" d="M1712.66,-113.15C1785.36,-105.44 1922.97,-90.44 2051.25,-73.99"/>
<polygon fill="#63b8ff" stroke="#63b8ff" points="2051.79,-77.45 2061.26,-72.7 2050.89,-70.51 2051.79,-77.45"/>
</a>
</g>
</g>
<!-- Node23 -->
<g id="Node000023" class="node">
<title>Node23</title>
<g id="a_Node000023"><a xlink:href="solaris_8h.html" target="_top" xlink:title=" ">
<polygon fill="white" stroke="#666666" points="2289.5,-74 2177.5,-74 2177.5,-55 2289.5,-55 2289.5,-74"/>
<text text-anchor="middle" x="2233.5" y="-62" font-family="Helvetica,sans-Serif" font-size="10.00">compat/os/solaris.h</text>
</a>
</g>
</g>
<!-- Node5&#45;&gt;Node23 -->
<g id="edge22_Node000005_Node000023" class="edge">
<title>Node5&#45;&gt;Node23</title>
<g id="a_edge22_Node000005_Node000023"><a xlink:title=" ">
<path fill="none" stroke="#63b8ff" d="M1712.66,-114.73C1802.47,-107.96 1994.55,-92.77 2167.45,-74.07"/>
<polygon fill="#63b8ff" stroke="#63b8ff" points="2167.94,-77.54 2177.5,-72.98 2167.18,-70.58 2167.94,-77.54"/>
</a>
</g>
</g>
<!-- Node24 -->
<g id="Node000024" class="node">
<title>Node24</title>
<g id="a_Node000024"><a xlink:href="sunos_8h.html" target="_top" xlink:title=" ">
<polygon fill="white" stroke="#666666" points="2415.5,-74 2307.5,-74 2307.5,-55 2415.5,-55 2415.5,-74"/>
<text text-anchor="middle" x="2361.5" y="-62" font-family="Helvetica,sans-Serif" font-size="10.00">compat/os/sunos.h</text>
</a>
</g>
</g>
<!-- Node5&#45;&gt;Node24 -->
<g id="edge23_Node000005_Node000024" class="edge">
<title>Node5&#45;&gt;Node24</title>
<g id="a_edge23_Node000005_Node000024"><a xlink:title=" ">
<path fill="none" stroke="#63b8ff" d="M1712.79,-116.04C1819.55,-110.67 2073.65,-96.64 2297.28,-74.06"/>
<polygon fill="#63b8ff" stroke="#63b8ff" points="2297.64,-77.54 2307.23,-73.05 2296.93,-70.58 2297.64,-77.54"/>
</a>
</g>
</g>
<!-- Node25 -->
<g id="Node000025" class="node">
<title>Node25</title>
<g id="a_Node000025"><a xlink:href="assert_8h.html" target="_top" xlink:title=" ">
<polygon fill="white" stroke="#666666" points="2529,-74 2434,-74 2434,-55 2529,-55 2529,-74"/>
<text text-anchor="middle" x="2481.5" y="-62" font-family="Helvetica,sans-Serif" font-size="10.00">compat/assert.h</text>
</a>
</g>
</g>
<!-- Node5&#45;&gt;Node25 -->
<g id="edge24_Node000005_Node000025" class="edge">
<title>Node5&#45;&gt;Node25</title>
<g id="a_edge24_Node000005_Node000025"><a xlink:title=" ">
<path fill="none" stroke="#63b8ff" d="M1712.52,-117.11C1833.88,-113.45 2149.4,-101.95 2423.8,-73.96"/>
<polygon fill="#63b8ff" stroke="#63b8ff" points="2424.37,-77.42 2433.95,-72.92 2423.65,-70.46 2424.37,-77.42"/>
</a>
</g>
</g>
<!-- Node26 -->
<g id="Node000026" class="node">
<title>Node26</title>
<g id="a_Node000026"><a xlink:href="compat__shared_8h.html" target="_top" xlink:title=" ">
<polygon fill="#fff0f0" stroke="red" points="2687.5,-74 2547.5,-74 2547.5,-55 2687.5,-55 2687.5,-74"/>
<text text-anchor="middle" x="2617.5" y="-62" font-family="Helvetica,sans-Serif" font-size="10.00">compat/compat_shared.h</text>
</a>
</g>
</g>
<!-- Node5&#45;&gt;Node26 -->
<g id="edge25_Node000005_Node000026" class="edge">
<title>Node5&#45;&gt;Node26</title>
<g id="a_edge25_Node000005_Node000026"><a xlink:title=" ">
<path fill="none" stroke="#63b8ff" d="M1712.91,-116.88C1846.66,-112.45 2216.7,-98.84 2536.87,-74"/>
<polygon fill="#63b8ff" stroke="#63b8ff" points="2537.58,-77.45 2547.28,-73.18 2537.04,-70.47 2537.58,-77.45"/>
</a>
</g>
</g>
<!-- Node36 -->
<g id="Node000036" class="node">
<title>Node36</title>
<g id="a_Node000036"><a xlink:href="stdvarargs_8h.html" target="_top" xlink:title=" ">
<polygon fill="#fff0f0" stroke="red" points="2823,-74 2706,-74 2706,-55 2823,-55 2823,-74"/>
<text text-anchor="middle" x="2764.5" y="-62" font-family="Helvetica,sans-Serif" font-size="10.00">compat/stdvarargs.h</text>
</a>
</g>
</g>
<!-- Node5&#45;&gt;Node36 -->
<g id="edge28_Node000005_Node000036" class="edge">
<title>Node5&#45;&gt;Node36</title>
<g id="a_edge28_Node000005_Node000036"><a xlink:title=" ">
<path fill="none" stroke="#63b8ff" d="M1712.75,-117.77C1862.37,-115.33 2311.69,-105.77 2695.73,-73.98"/>
<polygon fill="#63b8ff" stroke="#63b8ff" points="2696.25,-77.45 2705.93,-73.13 2695.67,-70.47 2696.25,-77.45"/>
</a>
</g>
</g>
<!-- Node38 -->
<g id="Node000038" class="node">
<title>Node38</title>
<g id="a_Node000038"><a xlink:href="stdio_8h.html" target="_top" xlink:title=" ">
<polygon fill="#fff0f0" stroke="red" points="2930,-74 2841,-74 2841,-55 2930,-55 2930,-74"/>
<text text-anchor="middle" x="2885.5" y="-62" font-family="Helvetica,sans-Serif" font-size="10.00">compat/stdio.h</text>
</a>
</g>
</g>
<!-- Node5&#45;&gt;Node38 -->
<g id="edge29_Node000005_Node000038" class="edge">
<title>Node5&#45;&gt;Node38</title>
<g id="a_edge29_Node000005_Node000038"><a xlink:title=" ">
<path fill="none" stroke="#63b8ff" d="M1712.68,-118.71C1874.92,-118.91 2392.4,-116.03 2830.75,-73.93"/>
<polygon fill="#63b8ff" stroke="#63b8ff" points="2831.15,-77.41 2840.76,-72.96 2830.47,-70.44 2831.15,-77.41"/>
</a>
</g>
</g>
<!-- Node40 -->
<g id="Node000040" class="node">
<title>Node40</title>
<g id="a_Node000040"><a xlink:href="statvfs_8h.html" target="_top" xlink:title=" ">
<polygon fill="white" stroke="#666666" points="3047,-74 2948,-74 2948,-55 3047,-55 3047,-74"/>
<text text-anchor="middle" x="2997.5" y="-62" font-family="Helvetica,sans-Serif" font-size="10.00">compat/statvfs.h</text>
</a>
</g>
</g>
<!-- Node5&#45;&gt;Node40 -->
<g id="edge30_Node000005_Node000040" class="edge">
<title>Node5&#45;&gt;Node40</title>
<g id="a_edge30_Node000005_Node000040"><a xlink:title=" ">
<path fill="none" stroke="#63b8ff" d="M1712.72,-118.7C1884.39,-118.96 2455.28,-116.41 2937.67,-73.95"/>
<polygon fill="#63b8ff" stroke="#63b8ff" points="2938.32,-77.4 2947.97,-73.03 2937.7,-70.43 2938.32,-77.4"/>
</a>
</g>
</g>
<!-- Node41 -->
<g id="Node000041" class="node">
<title>Node41</title>
<g id="a_Node000041"><a xlink:href="debug_8h.html" target="_top" xlink:title=" ">
<polygon fill="white" stroke="#666666" points="3160,-74 3065,-74 3065,-55 3160,-55 3160,-74"/>
<text text-anchor="middle" x="3112.5" y="-62" font-family="Helvetica,sans-Serif" font-size="10.00">compat/debug.h</text>
</a>
</g>
</g>
<!-- Node5&#45;&gt;Node41 -->
<g id="edge31_Node000005_Node000041" class="edge">
<title>Node5&#45;&gt;Node41</title>
<g id="a_edge31_Node000005_Node000041"><a xlink:title=" ">
<path fill="none" stroke="#63b8ff" d="M1712.58,-119.01C1894.01,-120.35 2524.42,-121.17 3054.81,-73.92"/>
<polygon fill="#63b8ff" stroke="#63b8ff" points="3055.32,-77.39 3064.96,-73.01 3054.69,-70.42 3055.32,-77.39"/>
</a>
</g>
</g>
<!-- Node42 -->
<g id="Node000042" class="node">
<title>Node42</title>
<g id="a_Node000042"><a xlink:href="valgrind_8h.html" target="_top" xlink:title=" ">
<polygon fill="#fff0f0" stroke="red" points="105,-74 0,-74 0,-55 105,-55 105,-74"/>
<text text-anchor="middle" x="52.5" y="-62" font-family="Helvetica,sans-Serif" font-size="10.00">compat/valgrind.h</text>
</a>
</g>
</g>
<!-- Node5&#45;&gt;Node42 -->
<g id="edge32_Node000005_Node000042" class="edge">
<title>Node5&#45;&gt;Node42</title>
<g id="a_edge32_Node000005_Node000042"><a xlink:title=" ">
<path fill="none" stroke="#63b8ff" d="M1610.48,-110.86C1607.45,-110.53 1604.44,-110.24 1601.5,-110 945.6,-55.79 774.59,-127 115.26,-74.04"/>
<polygon fill="#63b8ff" stroke="#63b8ff" points="115.28,-70.53 105.03,-73.21 114.72,-77.5 115.28,-70.53"/>
</a>
</g>
</g>
<!-- Node9 -->
<g id="Node000009" class="node">
<title>Node9</title>
<g id="a_Node000009"><a xlink:title=" ">
<polygon fill="#e0e0e0" stroke="#999999" points="447.5,-19 397.5,-19 397.5,0 447.5,0 447.5,-19"/>
<text text-anchor="middle" x="422.5" y="-7" font-family="Helvetica,sans-Serif" font-size="10.00">cstdint</text>
</a>
</g>
</g>
<!-- Node8&#45;&gt;Node9 -->
<g id="edge8_Node000008_Node000009" class="edge">
<title>Node8&#45;&gt;Node9</title>
<g id="a_edge8_Node000008_Node000009"><a xlink:title=" ">
<path fill="none" stroke="#63b8ff" d="M422.5,-54.75C422.5,-47.8 422.5,-37.85 422.5,-29.13"/>
<polygon fill="#63b8ff" stroke="#63b8ff" points="426,-29.09 422.5,-19.09 419,-29.09 426,-29.09"/>
</a>
</g>
</g>
<!-- Node27 -->
<g id="Node000027" class="node">
<title>Node27</title>
<g id="a_Node000027"><a xlink:title=" ">
<polygon fill="#e0e0e0" stroke="#999999" points="2688,-19 2637,-19 2637,0 2688,0 2688,-19"/>
<text text-anchor="middle" x="2662.5" y="-7" font-family="Helvetica,sans-Serif" font-size="10.00">csignal</text>
</a>
</g>
</g>
<!-- Node26&#45;&gt;Node27 -->
<g id="edge26_Node000026_Node000027" class="edge">
<title>Node26&#45;&gt;Node27</title>
<g id="a_edge26_Node000026_Node000027"><a xlink:title=" ">
<path fill="none" stroke="#63b8ff" d="M2624.93,-54.75C2631.35,-47.18 2640.81,-36.05 2648.62,-26.84"/>
<polygon fill="#63b8ff" stroke="#63b8ff" points="2651.4,-28.98 2655.21,-19.09 2646.07,-24.45 2651.4,-28.98"/>
</a>
</g>
</g>
<!-- Node28 -->
<g id="Node000028" class="node">
<title>Node28</title>
<g id="a_Node000028"><a xlink:href="xalloc_8h.html" target="_top" xlink:title=" ">
<polygon fill="white" stroke="#666666" points="2619,-19 2524,-19 2524,0 2619,0 2619,-19"/>
<text text-anchor="middle" x="2571.5" y="-7" font-family="Helvetica,sans-Serif" font-size="10.00">compat/xalloc.h</text>
</a>
</g>
</g>
<!-- Node26&#45;&gt;Node28 -->
<g id="edge27_Node000026_Node000028" class="edge">
<title>Node26&#45;&gt;Node28</title>
<g id="a_edge27_Node000026_Node000028"><a xlink:title=" ">
<path fill="none" stroke="#63b8ff" d="M2609.9,-54.75C2603.34,-47.18 2593.68,-36.05 2585.69,-26.84"/>
<polygon fill="#63b8ff" stroke="#63b8ff" points="2588.15,-24.35 2578.95,-19.09 2582.87,-28.94 2588.15,-24.35"/>
</a>
</g>
</g>
<!-- Node45 -->
<g id="Node000045" class="node">
<title>Node45</title>
<g id="a_Node000045"><a xlink:title=" ">
<polygon fill="#e0e0e0" stroke="#999999" points="3380.5,-74 3288.5,-74 3288.5,-55 3380.5,-55 3380.5,-74"/>
<text text-anchor="middle" x="3334.5" y="-62" font-family="Helvetica,sans-Serif" font-size="10.00">mem/forward.h</text>
</a>
</g>
</g>
<!-- Node44&#45;&gt;Node45 -->
<g id="edge34_Node000044_Node000045" class="edge">
<title>Node44&#45;&gt;Node45</title>
<g id="a_edge34_Node000044_Node000045"><a xlink:title=" ">
<path fill="none" stroke="#63b8ff" d="M3277.43,-109.98C3287.58,-102.07 3302.92,-90.11 3315.15,-80.58"/>
<polygon fill="#63b8ff" stroke="#63b8ff" points="3317.64,-83.08 3323.38,-74.17 3313.34,-77.56 3317.64,-83.08"/>
</a>
</g>
</g>
<!-- Node46 -->
<g id="Node000046" class="node">
<title>Node46</title>
<g id="a_Node000046"><a xlink:href="Meter_8h.html" target="_top" xlink:title=" ">
<polygon fill="white" stroke="#666666" points="3480.5,-74 3398.5,-74 3398.5,-55 3480.5,-55 3480.5,-74"/>
<text text-anchor="middle" x="3439.5" y="-62" font-family="Helvetica,sans-Serif" font-size="10.00">mem/Meter.h</text>
</a>
</g>
</g>
<!-- Node44&#45;&gt;Node46 -->
<g id="edge35_Node000044_Node000046" class="edge">
<title>Node44&#45;&gt;Node46</title>
<g id="a_edge35_Node000044_Node000046"><a xlink:title=" ">
<path fill="none" stroke="#63b8ff" d="M3294.3,-109.98C3323.47,-101.05 3369.5,-86.94 3401.9,-77.02"/>
<polygon fill="#63b8ff" stroke="#63b8ff" points="3402.95,-80.36 3411.49,-74.08 3400.9,-73.66 3402.95,-80.36"/>
</a>
</g>
</g>
<!-- Node50 -->
<g id="Node000050" class="node">
<title>Node50</title>
<g id="a_Node000050"><a xlink:href="util_8h.html" target="_top" xlink:title=" ">
<polygon fill="white" stroke="#666666" points="3270,-74 3229,-74 3229,-55 3270,-55 3270,-74"/>
<text text-anchor="middle" x="3249.5" y="-62" font-family="Helvetica,sans-Serif" font-size="10.00">util.h</text>
</a>
</g>
</g>
<!-- Node44&#45;&gt;Node50 -->
<g id="edge37_Node000044_Node000050" class="edge">
<title>Node44&#45;&gt;Node50</title>
<g id="a_edge37_Node000044_Node000050"><a xlink:title=" ">
<path fill="none" stroke="#63b8ff" d="M3263.69,-109.75C3261.44,-102.72 3258.2,-92.62 3255.38,-83.84"/>
<polygon fill="#63b8ff" stroke="#63b8ff" points="3258.64,-82.54 3252.25,-74.09 3251.98,-84.68 3258.64,-82.54"/>
</a>
</g>
</g>
<!-- Node51 -->
<g id="Node000051" class="node">
<title>Node51</title>
<g id="a_Node000051"><a xlink:title=" ">
<polygon fill="#e0e0e0" stroke="#999999" points="3210.5,-74 3178.5,-74 3178.5,-55 3210.5,-55 3210.5,-74"/>
<text text-anchor="middle" x="3194.5" y="-62" font-family="Helvetica,sans-Serif" font-size="10.00">list</text>
</a>
</g>
</g>
<!-- Node44&#45;&gt;Node51 -->
<g id="edge38_Node000044_Node000051" class="edge">
<title>Node44&#45;&gt;Node51</title>
<g id="a_edge38_Node000044_Node000051"><a xlink:title=" ">
<path fill="none" stroke="#63b8ff" d="M3254.93,-109.98C3244.08,-102 3227.62,-89.88 3214.62,-80.31"/>
<polygon fill="#63b8ff" stroke="#63b8ff" points="3216.41,-77.28 3206.28,-74.17 3212.26,-82.92 3216.41,-77.28"/>
</a>
</g>
</g>
<!-- Node47 -->
<g id="Node000047" class="node">
<title>Node47</title>
<g id="a_Node000047"><a xlink:href="time_2gadgets_8h.html" target="_top" xlink:title=" ">
<polygon fill="#fff0f0" stroke="red" points="3484.5,-19 3394.5,-19 3394.5,0 3484.5,0 3484.5,-19"/>
<text text-anchor="middle" x="3439.5" y="-7" font-family="Helvetica,sans-Serif" font-size="10.00">time/gadgets.h</text>
</a>
</g>
</g>
<!-- Node46&#45;&gt;Node47 -->
<g id="edge36_Node000046_Node000047" class="edge">
<title>Node46&#45;&gt;Node47</title>
<g id="a_edge36_Node000046_Node000047"><a xlink:title=" ">
<path fill="none" stroke="#63b8ff" d="M3439.5,-54.75C3439.5,-47.8 3439.5,-37.85 3439.5,-29.13"/>
<polygon fill="#63b8ff" stroke="#63b8ff" points="3443,-29.09 3439.5,-19.09 3436,-29.09 3443,-29.09"/>
</a>
</g>
</g>
<!-- Node53 -->
<g id="Node000053" class="node">
<title>Node53</title>
<g id="a_Node000053"><a xlink:href="Allocator_8h.html" target="_top" xlink:title=" ">
<polygon fill="white" stroke="#666666" points="3499,-129 3402,-129 3402,-110 3499,-110 3499,-129"/>
<text text-anchor="middle" x="3450.5" y="-117" font-family="Helvetica,sans-Serif" font-size="10.00">mem/Allocator.h</text>
</a>
</g>
</g>
<!-- Node52&#45;&gt;Node53 -->
<g id="edge40_Node000052_Node000053" class="edge">
<title>Node52&#45;&gt;Node53</title>
<g id="a_edge40_Node000052_Node000053"><a xlink:title=" ">
<path fill="none" stroke="#63b8ff" d="M3450.5,-164.75C3450.5,-157.8 3450.5,-147.85 3450.5,-139.13"/>
<polygon fill="#63b8ff" stroke="#63b8ff" points="3454,-139.09 3450.5,-129.09 3447,-139.09 3454,-139.09"/>
</a>
</g>
</g>
<!-- Node56 -->
<g id="Node000056" class="node">
<title>Node56</title>
<g id="a_Node000056"><a xlink:href="splay_8h.html" target="_top" xlink:title=" ">
<polygon fill="white" stroke="#666666" points="3687.5,-129 3637.5,-129 3637.5,-110 3687.5,-110 3687.5,-129"/>
<text text-anchor="middle" x="3662.5" y="-117" font-family="Helvetica,sans-Serif" font-size="10.00">splay.h</text>
</a>
</g>
</g>
<!-- Node52&#45;&gt;Node56 -->
<g id="edge44_Node000052_Node000056" class="edge">
<title>Node52&#45;&gt;Node56</title>
<g id="a_edge44_Node000052_Node000056"><a xlink:title=" ">
<path fill="none" stroke="#63b8ff" d="M3484.56,-164.98C3523.86,-155.16 3588.14,-139.09 3627.74,-129.19"/>
<polygon fill="#63b8ff" stroke="#63b8ff" points="3628.63,-132.57 3637.48,-126.75 3626.93,-125.78 3628.63,-132.57"/>
</a>
</g>
</g>
<!-- Node53&#45;&gt;Node45 -->
<g id="edge42_Node000053_Node000045" class="edge">
<title>Node53&#45;&gt;Node45</title>
<g id="a_edge42_Node000053_Node000045"><a xlink:title=" ">
<path fill="none" stroke="#63b8ff" d="M3431.86,-109.98C3413.2,-101.46 3384.25,-88.23 3362.76,-78.41"/>
<polygon fill="#63b8ff" stroke="#63b8ff" points="3364.03,-75.14 3353.48,-74.17 3361.12,-81.51 3364.03,-75.14"/>
</a>
</g>
</g>
<!-- Node53&#45;&gt;Node46 -->
<g id="edge43_Node000053_Node000046" class="edge">
<title>Node53&#45;&gt;Node46</title>
<g id="a_edge43_Node000053_Node000046"><a xlink:title=" ">
<path fill="none" stroke="#63b8ff" d="M3448.68,-109.75C3447.24,-102.8 3445.18,-92.85 3443.37,-84.13"/>
<polygon fill="#63b8ff" stroke="#63b8ff" points="3446.74,-83.17 3441.28,-74.09 3439.89,-84.59 3446.74,-83.17"/>
</a>
</g>
</g>
<!-- Node54 -->
<g id="Node000054" class="node">
<title>Node54</title>
<g id="a_Node000054"><a xlink:href="TypeTraits_8h.html" target="_top" xlink:title=" ">
<polygon fill="#fff0f0" stroke="red" points="3600,-74 3499,-74 3499,-55 3600,-55 3600,-74"/>
<text text-anchor="middle" x="3549.5" y="-62" font-family="Helvetica,sans-Serif" font-size="10.00">base/TypeTraits.h</text>
</a>
</g>
</g>
<!-- Node53&#45;&gt;Node54 -->
<g id="edge41_Node000053_Node000054" class="edge">
<title>Node53&#45;&gt;Node54</title>
<g id="a_edge41_Node000053_Node000054"><a xlink:title=" ">
<path fill="none" stroke="#63b8ff" d="M3466.41,-109.98C3482.05,-101.61 3506.16,-88.7 3524.38,-78.95"/>
<polygon fill="#63b8ff" stroke="#63b8ff" points="3526.14,-81.98 3533.3,-74.17 3522.84,-75.8 3526.14,-81.98"/>
</a>
</g>
</g>
<!-- Node57 -->
<g id="Node000057" class="node">
<title>Node57</title>
<g id="a_Node000057"><a xlink:href="fatal_8h.html" target="_top" xlink:title=" ">
<polygon fill="white" stroke="#666666" points="3666.5,-74 3618.5,-74 3618.5,-55 3666.5,-55 3666.5,-74"/>
<text text-anchor="middle" x="3642.5" y="-62" font-family="Helvetica,sans-Serif" font-size="10.00">fatal.h</text>
</a>
</g>
</g>
<!-- Node56&#45;&gt;Node57 -->
<g id="edge45_Node000056_Node000057" class="edge">
<title>Node56&#45;&gt;Node57</title>
<g id="a_edge45_Node000056_Node000057"><a xlink:title=" ">
<path fill="none" stroke="#63b8ff" d="M3659.2,-109.75C3656.52,-102.65 3652.65,-92.4 3649.31,-83.56"/>
<polygon fill="#63b8ff" stroke="#63b8ff" points="3652.55,-82.21 3645.74,-74.09 3646,-84.68 3652.55,-82.21"/>
</a>
</g>
</g>
<!-- Node58 -->
<g id="Node000058" class="node">
<title>Node58</title>
<g id="a_Node000058"><a xlink:title=" ">
<polygon fill="#e0e0e0" stroke="#999999" points="3738,-74 3685,-74 3685,-55 3738,-55 3738,-74"/>
<text text-anchor="middle" x="3711.5" y="-62" font-family="Helvetica,sans-Serif" font-size="10.00">cstddef</text>
</a>
</g>
</g>
<!-- Node56&#45;&gt;Node58 -->
<g id="edge46_Node000056_Node000058" class="edge">
<title>Node56&#45;&gt;Node58</title>
<g id="a_edge46_Node000056_Node000058"><a xlink:title=" ">
<path fill="none" stroke="#63b8ff" d="M3670.59,-109.75C3677.66,-102.11 3688.09,-90.82 3696.65,-81.56"/>
<polygon fill="#63b8ff" stroke="#63b8ff" points="3699.34,-83.81 3703.56,-74.09 3694.2,-79.06 3699.34,-83.81"/>
</a>
</g>
</g>
<!-- Node59 -->
<g id="Node000059" class="node">
<title>Node59</title>
<g id="a_Node000059"><a xlink:title=" ">
<polygon fill="#e0e0e0" stroke="#999999" points="3799,-74 3756,-74 3756,-55 3799,-55 3799,-74"/>
<text text-anchor="middle" x="3777.5" y="-62" font-family="Helvetica,sans-Serif" font-size="10.00">stack</text>
</a>
</g>
</g>
<!-- Node56&#45;&gt;Node59 -->
<g id="edge47_Node000056_Node000059" class="edge">
<title>Node56&#45;&gt;Node59</title>
<g id="a_edge47_Node000056_Node000059"><a xlink:title=" ">
<path fill="none" stroke="#63b8ff" d="M3680.98,-109.98C3699.48,-101.46 3728.18,-88.23 3749.48,-78.41"/>
<polygon fill="#63b8ff" stroke="#63b8ff" points="3751.07,-81.53 3758.69,-74.17 3748.14,-75.18 3751.07,-81.53"/>
</a>
</g>
</g>
<!-- Node60&#45;&gt;Node53 -->
<g id="edge49_Node000060_Node000053" class="edge">
<title>Node60&#45;&gt;Node53</title>
<g id="a_edge49_Node000060_Node000053"><a xlink:title=" ">
<path fill="none" stroke="#63b8ff" d="M3559.61,-164.98C3538.42,-156.34 3505.37,-142.87 3481.2,-133.02"/>
<polygon fill="#63b8ff" stroke="#63b8ff" points="3482.35,-129.7 3471.77,-129.17 3479.71,-136.19 3482.35,-129.7"/>
</a>
</g>
</g>
<!-- Node60&#45;&gt;Node59 -->
<g id="edge50_Node000060_Node000059" class="edge">
<title>Node60&#45;&gt;Node59</title>
<g id="a_edge50_Node000060_Node000059"><a xlink:title=" ">
<path fill="none" stroke="#63b8ff" d="M3609.7,-164.98C3633.83,-157.32 3668.54,-144.85 3696.5,-129 3720.37,-115.47 3744.75,-95.32 3760.44,-81.37"/>
<polygon fill="#63b8ff" stroke="#63b8ff" points="3763.14,-83.64 3768.2,-74.33 3758.44,-78.45 3763.14,-83.64"/>
</a>
</g>
</g>
<!-- Node61&#45;&gt;Node45 -->
<g id="edge52_Node000061_Node000045" class="edge">
<title>Node61&#45;&gt;Node45</title>
<g id="a_edge52_Node000061_Node000045"><a xlink:title=" ">
<path fill="none" stroke="#63b8ff" d="M3334.5,-164.66C3334.5,-147.17 3334.5,-107.8 3334.5,-84.27"/>
<polygon fill="#63b8ff" stroke="#63b8ff" points="3338,-84.16 3334.5,-74.16 3331,-84.16 3338,-84.16"/>
</a>
</g>
</g>
</g>
</svg>
