<?xml version="1.0" encoding="UTF-8" standalone="no"?>
<!DOCTYPE svg PUBLIC "-//W3C//DTD SVG 1.1//EN"
 "http://www.w3.org/Graphics/SVG/1.1/DTD/svg11.dtd">
<!-- Generated by graphviz version 2.43.0 (0)
 -->
<!-- Title: squid/src/ssl/ProxyCerts.h Pages: 1 -->
<svg width="274pt" height="82pt"
 viewBox="0.00 0.00 274.00 82.00" xmlns="http://www.w3.org/2000/svg" xmlns:xlink="http://www.w3.org/1999/xlink">
<g id="graph0" class="graph" transform="scale(1 1) rotate(0) translate(4 78)">
<title>squid/src/ssl/ProxyCerts.h</title>
<!-- Node1 -->
<g id="Node000001" class="node">
<title>Node1</title>
<g id="a_Node000001"><a xlink:title=" ">
<polygon fill="#999999" stroke="#666666" points="201.5,-74 59.5,-74 59.5,-55 201.5,-55 201.5,-74"/>
<text text-anchor="middle" x="130.5" y="-62" font-family="Helvetica,sans-Serif" font-size="10.00">squid/src/ssl/ProxyCerts.h</text>
</a>
</g>
</g>
<!-- Node2 -->
<g id="Node000002" class="node">
<title>Node2</title>
<g id="a_Node000002"><a xlink:href="cache__cf_8cc.html" target="_top" xlink:title=" ">
<polygon fill="white" stroke="#666666" points="119,-19 0,-19 0,0 119,0 119,-19"/>
<text text-anchor="middle" x="59.5" y="-7" font-family="Helvetica,sans-Serif" font-size="10.00">squid/src/cache_cf.cc</text>
</a>
</g>
</g>
<!-- Node1&#45;&gt;Node2 -->
<g id="edge1_Node000001_Node000002" class="edge">
<title>Node1&#45;&gt;Node2</title>
<g id="a_edge1_Node000001_Node000002"><a xlink:title=" ">
<path fill="none" stroke="#63b8ff" d="M110.91,-48.88C98.13,-39.34 81.89,-27.21 71.11,-19.17"/>
<polygon fill="#63b8ff" stroke="#63b8ff" points="108.99,-51.81 119.09,-54.98 113.17,-46.2 108.99,-51.81"/>
</a>
</g>
</g>
<!-- Node3 -->
<g id="Node000003" class="node">
<title>Node3</title>
<g id="a_Node000003"><a xlink:href="client__side_8cc.html" target="_top" xlink:title=" ">
<polygon fill="white" stroke="#666666" points="266,-19 137,-19 137,0 266,0 266,-19"/>
<text text-anchor="middle" x="201.5" y="-7" font-family="Helvetica,sans-Serif" font-size="10.00">squid/src/client_side.cc</text>
</a>
</g>
</g>
<!-- Node1&#45;&gt;Node3 -->
<g id="edge2_Node000001_Node000003" class="edge">
<title>Node1&#45;&gt;Node3</title>
<g id="a_edge2_Node000001_Node000003"><a xlink:title=" ">
<path fill="none" stroke="#63b8ff" d="M150.09,-48.88C162.87,-39.34 179.11,-27.21 189.89,-19.17"/>
<polygon fill="#63b8ff" stroke="#63b8ff" points="147.83,-46.2 141.91,-54.98 152.01,-51.81 147.83,-46.2"/>
</a>
</g>
</g>
</g>
</svg>
