<?xml version="1.0" encoding="UTF-8" standalone="no"?>
<!DOCTYPE svg PUBLIC "-//W3C//DTD SVG 1.1//EN"
 "http://www.w3.org/Graphics/SVG/1.1/DTD/svg11.dtd">
<!-- Generated by graphviz version 2.43.0 (0)
 -->
<!-- Title: squid/src/proxyp/Elements.cc Pages: 1 -->
<svg width="4157pt" height="302pt"
 viewBox="0.00 0.00 4156.64 302.00" xmlns="http://www.w3.org/2000/svg" xmlns:xlink="http://www.w3.org/1999/xlink">
<g id="graph0" class="graph" transform="scale(1 1) rotate(0) translate(4 298)">
<title>squid/src/proxyp/Elements.cc</title>
<!-- Node1 -->
<g id="Node000001" class="node">
<title>Node1</title>
<g id="a_Node000001"><a xlink:title=" ">
<polygon fill="#999999" stroke="#666666" points="3535,-294 3376,-294 3376,-275 3535,-275 3535,-294"/>
<text text-anchor="middle" x="3455.5" y="-282" font-family="Helvetica,sans-Serif" font-size="10.00">squid/src/proxyp/Elements.cc</text>
</a>
</g>
</g>
<!-- Node2 -->
<g id="Node000002" class="node">
<title>Node2</title>
<g id="a_Node000002"><a xlink:href="squid_8h.html" target="_top" xlink:title=" ">
<polygon fill="white" stroke="#666666" points="1689.5,-239 1637.5,-239 1637.5,-220 1689.5,-220 1689.5,-239"/>
<text text-anchor="middle" x="1663.5" y="-227" font-family="Helvetica,sans-Serif" font-size="10.00">squid.h</text>
</a>
</g>
</g>
<!-- Node1&#45;&gt;Node2 -->
<g id="edge1_Node000001_Node000002" class="edge">
<title>Node1&#45;&gt;Node2</title>
<g id="a_edge1_Node000001_Node000002"><a xlink:title=" ">
<path fill="none" stroke="#63b8ff" d="M3375.9,-281.15C3062.4,-271.87 1919.44,-238.07 1700.06,-231.58"/>
<polygon fill="#63b8ff" stroke="#63b8ff" points="1699.84,-228.07 1689.74,-231.28 1699.63,-235.07 1699.84,-228.07"/>
</a>
</g>
</g>
<!-- Node44 -->
<g id="Node000044" class="node">
<title>Node44</title>
<g id="a_Node000044"><a xlink:href="parser_2Tokenizer_8h.html" target="_top" xlink:title=" ">
<polygon fill="white" stroke="#666666" points="3383.5,-239 3279.5,-239 3279.5,-220 3383.5,-220 3383.5,-239"/>
<text text-anchor="middle" x="3331.5" y="-227" font-family="Helvetica,sans-Serif" font-size="10.00">parser/Tokenizer.h</text>
</a>
</g>
</g>
<!-- Node1&#45;&gt;Node44 -->
<g id="edge30_Node000001_Node000044" class="edge">
<title>Node1&#45;&gt;Node44</title>
<g id="a_edge30_Node000001_Node000044"><a xlink:title=" ">
<path fill="none" stroke="#63b8ff" d="M3435.58,-274.98C3415.45,-266.38 3384.12,-252.99 3361.09,-243.15"/>
<polygon fill="#63b8ff" stroke="#63b8ff" points="3362.36,-239.88 3351.79,-239.17 3359.6,-246.32 3362.36,-239.88"/>
</a>
</g>
</g>
<!-- Node48 -->
<g id="Node000048" class="node">
<title>Node48</title>
<g id="a_Node000048"><a xlink:title=" ">
<polygon fill="#e0e0e0" stroke="#999999" points="3225,-129 3178,-129 3178,-110 3225,-110 3225,-129"/>
<text text-anchor="middle" x="3201.5" y="-117" font-family="Helvetica,sans-Serif" font-size="10.00">vector</text>
</a>
</g>
</g>
<!-- Node1&#45;&gt;Node48 -->
<g id="edge56_Node000001_Node000048" class="edge">
<title>Node1&#45;&gt;Node48</title>
<g id="a_edge56_Node000001_Node000048"><a xlink:title=" ">
<path fill="none" stroke="#63b8ff" d="M3375.77,-278.37C3340.7,-272.77 3300.71,-261.48 3270.5,-239 3236.09,-213.39 3215.94,-165.13 3207.02,-138.79"/>
<polygon fill="#63b8ff" stroke="#63b8ff" points="3210.35,-137.72 3203.96,-129.27 3203.68,-139.86 3210.35,-137.72"/>
</a>
</g>
</g>
<!-- Node83 -->
<g id="Node000083" class="node">
<title>Node83</title>
<g id="a_Node000083"><a xlink:href="proxyp_2Elements_8h.html" target="_top" xlink:title=" ">
<polygon fill="white" stroke="#666666" points="3509.5,-239 3401.5,-239 3401.5,-220 3509.5,-220 3509.5,-239"/>
<text text-anchor="middle" x="3455.5" y="-227" font-family="Helvetica,sans-Serif" font-size="10.00">proxyp/Elements.h</text>
</a>
</g>
</g>
<!-- Node1&#45;&gt;Node83 -->
<g id="edge49_Node000001_Node000083" class="edge">
<title>Node1&#45;&gt;Node83</title>
<g id="a_edge49_Node000001_Node000083"><a xlink:title=" ">
<path fill="none" stroke="#63b8ff" d="M3455.5,-274.75C3455.5,-267.8 3455.5,-257.85 3455.5,-249.13"/>
<polygon fill="#63b8ff" stroke="#63b8ff" points="3459,-249.09 3455.5,-239.09 3452,-249.09 3459,-249.09"/>
</a>
</g>
</g>
<!-- Node84 -->
<g id="Node000084" class="node">
<title>Node84</title>
<g id="a_Node000084"><a xlink:href="sbuf_2Stream_8h.html" target="_top" xlink:title=" ">
<polygon fill="white" stroke="#666666" points="3613,-239 3528,-239 3528,-220 3613,-220 3613,-239"/>
<text text-anchor="middle" x="3570.5" y="-227" font-family="Helvetica,sans-Serif" font-size="10.00">sbuf/Stream.h</text>
</a>
</g>
</g>
<!-- Node1&#45;&gt;Node84 -->
<g id="edge51_Node000001_Node000084" class="edge">
<title>Node1&#45;&gt;Node84</title>
<g id="a_edge51_Node000001_Node000084"><a xlink:title=" ">
<path fill="none" stroke="#63b8ff" d="M3473.98,-274.98C3492.48,-266.46 3521.18,-253.23 3542.48,-243.41"/>
<polygon fill="#63b8ff" stroke="#63b8ff" points="3544.07,-246.53 3551.69,-239.17 3541.14,-240.18 3544.07,-246.53"/>
</a>
</g>
</g>
<!-- Node88 -->
<g id="Node000088" class="node">
<title>Node88</title>
<g id="a_Node000088"><a xlink:title=" ">
<polygon fill="#e0e0e0" stroke="#999999" points="3695.5,-239 3631.5,-239 3631.5,-220 3695.5,-220 3695.5,-239"/>
<text text-anchor="middle" x="3663.5" y="-227" font-family="Helvetica,sans-Serif" font-size="10.00">algorithm</text>
</a>
</g>
</g>
<!-- Node1&#45;&gt;Node88 -->
<g id="edge54_Node000001_Node000088" class="edge">
<title>Node1&#45;&gt;Node88</title>
<g id="a_edge54_Node000001_Node000088"><a xlink:title=" ">
<path fill="none" stroke="#63b8ff" d="M3488.92,-274.98C3524.87,-265.82 3582.11,-251.24 3621.18,-241.28"/>
<polygon fill="#63b8ff" stroke="#63b8ff" points="3622.36,-244.59 3631.19,-238.73 3620.64,-237.81 3622.36,-244.59"/>
</a>
</g>
</g>
<!-- Node89 -->
<g id="Node000089" class="node">
<title>Node89</title>
<g id="a_Node000089"><a xlink:title=" ">
<polygon fill="#e0e0e0" stroke="#999999" points="3757.5,-239 3713.5,-239 3713.5,-220 3757.5,-220 3757.5,-239"/>
<text text-anchor="middle" x="3735.5" y="-227" font-family="Helvetica,sans-Serif" font-size="10.00">limits</text>
</a>
</g>
</g>
<!-- Node1&#45;&gt;Node89 -->
<g id="edge55_Node000001_Node000089" class="edge">
<title>Node1&#45;&gt;Node89</title>
<g id="a_edge55_Node000001_Node000089"><a xlink:title=" ">
<path fill="none" stroke="#63b8ff" d="M3511.67,-274.96C3560.05,-267.26 3631.94,-255.02 3703.17,-239.14"/>
<polygon fill="#63b8ff" stroke="#63b8ff" points="3704.22,-242.49 3713.21,-236.87 3702.68,-235.66 3704.22,-242.49"/>
</a>
</g>
</g>
<!-- Node3 -->
<g id="Node000003" class="node">
<title>Node3</title>
<g id="a_Node000003"><a xlink:href="autoconf_8h.html" target="_top" xlink:title=" ">
<polygon fill="white" stroke="#666666" points="1748.5,-184 1680.5,-184 1680.5,-165 1748.5,-165 1748.5,-184"/>
<text text-anchor="middle" x="1714.5" y="-172" font-family="Helvetica,sans-Serif" font-size="10.00">autoconf.h</text>
</a>
</g>
</g>
<!-- Node2&#45;&gt;Node3 -->
<g id="edge2_Node000002_Node000003" class="edge">
<title>Node2&#45;&gt;Node3</title>
<g id="a_edge2_Node000002_Node000003"><a xlink:title=" ">
<path fill="none" stroke="#63b8ff" d="M1671.92,-219.75C1679.27,-212.11 1690.13,-200.82 1699.04,-191.56"/>
<polygon fill="#63b8ff" stroke="#63b8ff" points="1701.82,-193.72 1706.24,-184.09 1696.78,-188.87 1701.82,-193.72"/>
</a>
</g>
</g>
<!-- Node4 -->
<g id="Node000004" class="node">
<title>Node4</title>
<g id="a_Node000004"><a xlink:href="version_8h.html" target="_top" xlink:title=" ">
<polygon fill="white" stroke="#666666" points="1542.5,-184 1480.5,-184 1480.5,-165 1542.5,-165 1542.5,-184"/>
<text text-anchor="middle" x="1511.5" y="-172" font-family="Helvetica,sans-Serif" font-size="10.00">version.h</text>
</a>
</g>
</g>
<!-- Node2&#45;&gt;Node4 -->
<g id="edge3_Node000002_Node000004" class="edge">
<title>Node2&#45;&gt;Node4</title>
<g id="a_edge3_Node000002_Node000004"><a xlink:title=" ">
<path fill="none" stroke="#63b8ff" d="M1639.08,-219.98C1613.78,-211.16 1574.05,-197.31 1545.64,-187.41"/>
<polygon fill="#63b8ff" stroke="#63b8ff" points="1546.71,-184.07 1536.11,-184.08 1544.4,-190.68 1546.71,-184.07"/>
</a>
</g>
</g>
<!-- Node5 -->
<g id="Node000005" class="node">
<title>Node5</title>
<g id="a_Node000005"><a xlink:href="compat_8h.html" target="_top" xlink:title=" ">
<polygon fill="white" stroke="#666666" points="1662.5,-184 1560.5,-184 1560.5,-165 1662.5,-165 1662.5,-184"/>
<text text-anchor="middle" x="1611.5" y="-172" font-family="Helvetica,sans-Serif" font-size="10.00">compat/compat.h</text>
</a>
</g>
</g>
<!-- Node2&#45;&gt;Node5 -->
<g id="edge4_Node000002_Node000005" class="edge">
<title>Node2&#45;&gt;Node5</title>
<g id="a_edge4_Node000002_Node000005"><a xlink:title=" ">
<path fill="none" stroke="#63b8ff" d="M1654.91,-219.75C1647.34,-212.03 1636.12,-200.6 1626.99,-191.28"/>
<polygon fill="#63b8ff" stroke="#63b8ff" points="1629.43,-188.78 1619.93,-184.09 1624.43,-193.68 1629.43,-188.78"/>
</a>
</g>
</g>
<!-- Node6 -->
<g id="Node000006" class="node">
<title>Node6</title>
<g id="a_Node000006"><a xlink:href="osdetect_8h.html" target="_top" xlink:title=" ">
<polygon fill="white" stroke="#666666" points="1601,-129 1494,-129 1494,-110 1601,-110 1601,-129"/>
<text text-anchor="middle" x="1547.5" y="-117" font-family="Helvetica,sans-Serif" font-size="10.00">compat/osdetect.h</text>
</a>
</g>
</g>
<!-- Node5&#45;&gt;Node6 -->
<g id="edge5_Node000005_Node000006" class="edge">
<title>Node5&#45;&gt;Node6</title>
<g id="a_edge5_Node000005_Node000006"><a xlink:title=" ">
<path fill="none" stroke="#63b8ff" d="M1601.22,-164.98C1591.66,-157.07 1577.22,-145.11 1565.72,-135.58"/>
<polygon fill="#63b8ff" stroke="#63b8ff" points="1567.9,-132.85 1557.97,-129.17 1563.44,-138.24 1567.9,-132.85"/>
</a>
</g>
</g>
<!-- Node7 -->
<g id="Node000007" class="node">
<title>Node7</title>
<g id="a_Node000007"><a xlink:href="fdsetsize_8h.html" target="_top" xlink:title=" ">
<polygon fill="white" stroke="#666666" points="1729.5,-129 1619.5,-129 1619.5,-110 1729.5,-110 1729.5,-129"/>
<text text-anchor="middle" x="1674.5" y="-117" font-family="Helvetica,sans-Serif" font-size="10.00">compat/fdsetsize.h</text>
</a>
</g>
</g>
<!-- Node5&#45;&gt;Node7 -->
<g id="edge6_Node000005_Node000007" class="edge">
<title>Node5&#45;&gt;Node7</title>
<g id="a_edge6_Node000005_Node000007"><a xlink:title=" ">
<path fill="none" stroke="#63b8ff" d="M1621.62,-164.98C1630.94,-157.15 1644.97,-145.34 1656.24,-135.86"/>
<polygon fill="#63b8ff" stroke="#63b8ff" points="1658.79,-138.29 1664.19,-129.17 1654.29,-132.93 1658.79,-138.29"/>
</a>
</g>
</g>
<!-- Node8 -->
<g id="Node000008" class="node">
<title>Node8</title>
<g id="a_Node000008"><a xlink:href="types_8h.html" target="_top" xlink:title=" ">
<polygon fill="#fff0f0" stroke="red" points="1839.5,-129 1747.5,-129 1747.5,-110 1839.5,-110 1839.5,-129"/>
<text text-anchor="middle" x="1793.5" y="-117" font-family="Helvetica,sans-Serif" font-size="10.00">compat/types.h</text>
</a>
</g>
</g>
<!-- Node5&#45;&gt;Node8 -->
<g id="edge7_Node000005_Node000008" class="edge">
<title>Node5&#45;&gt;Node8</title>
<g id="a_edge7_Node000005_Node000008"><a xlink:title=" ">
<path fill="none" stroke="#63b8ff" d="M1640.74,-164.98C1671.56,-156.01 1720.28,-141.82 1754.39,-131.89"/>
<polygon fill="#63b8ff" stroke="#63b8ff" points="1755.41,-135.24 1764.03,-129.08 1753.45,-128.52 1755.41,-135.24"/>
</a>
</g>
</g>
<!-- Node10 -->
<g id="Node000010" class="node">
<title>Node10</title>
<g id="a_Node000010"><a xlink:href="aix_8h.html" target="_top" xlink:title=" ">
<polygon fill="white" stroke="#666666" points="1953,-129 1858,-129 1858,-110 1953,-110 1953,-129"/>
<text text-anchor="middle" x="1905.5" y="-117" font-family="Helvetica,sans-Serif" font-size="10.00">compat/os/aix.h</text>
</a>
</g>
</g>
<!-- Node5&#45;&gt;Node10 -->
<g id="edge8_Node000005_Node000010" class="edge">
<title>Node5&#45;&gt;Node10</title>
<g id="a_edge8_Node000005_Node000010"><a xlink:title=" ">
<path fill="none" stroke="#63b8ff" d="M1658.74,-164.98C1710.23,-155.7 1792.66,-140.84 1847.91,-130.88"/>
<polygon fill="#63b8ff" stroke="#63b8ff" points="1848.67,-134.3 1857.89,-129.08 1847.43,-127.41 1848.67,-134.3"/>
</a>
</g>
</g>
<!-- Node11 -->
<g id="Node000011" class="node">
<title>Node11</title>
<g id="a_Node000011"><a xlink:href="android_8h.html" target="_top" xlink:title=" ">
<polygon fill="white" stroke="#666666" points="2087.5,-129 1971.5,-129 1971.5,-110 2087.5,-110 2087.5,-129"/>
<text text-anchor="middle" x="2029.5" y="-117" font-family="Helvetica,sans-Serif" font-size="10.00">compat/os/android.h</text>
</a>
</g>
</g>
<!-- Node5&#45;&gt;Node11 -->
<g id="edge9_Node000005_Node000011" class="edge">
<title>Node5&#45;&gt;Node11</title>
<g id="a_edge9_Node000005_Node000011"><a xlink:title=" ">
<path fill="none" stroke="#63b8ff" d="M1662.55,-166.21C1665.58,-165.79 1668.58,-165.39 1671.5,-165 1797.1,-148.31 1830.98,-145.2 1961.29,-129.02"/>
<polygon fill="#63b8ff" stroke="#63b8ff" points="1961.77,-132.49 1971.26,-127.78 1960.91,-125.54 1961.77,-132.49"/>
</a>
</g>
</g>
<!-- Node12 -->
<g id="Node000012" class="node">
<title>Node12</title>
<g id="a_Node000012"><a xlink:href="dragonfly_8h.html" target="_top" xlink:title=" ">
<polygon fill="white" stroke="#666666" points="2229.5,-129 2105.5,-129 2105.5,-110 2229.5,-110 2229.5,-129"/>
<text text-anchor="middle" x="2167.5" y="-117" font-family="Helvetica,sans-Serif" font-size="10.00">compat/os/dragonfly.h</text>
</a>
</g>
</g>
<!-- Node5&#45;&gt;Node12 -->
<g id="edge10_Node000005_Node000012" class="edge">
<title>Node5&#45;&gt;Node12</title>
<g id="a_edge10_Node000005_Node000012"><a xlink:title=" ">
<path fill="none" stroke="#63b8ff" d="M1662.54,-166.07C1665.57,-165.69 1668.57,-165.33 1671.5,-165 1856.65,-144.06 1906.23,-148.12 2095.19,-129.1"/>
<polygon fill="#63b8ff" stroke="#63b8ff" points="2095.58,-132.58 2105.18,-128.09 2094.87,-125.61 2095.58,-132.58"/>
</a>
</g>
</g>
<!-- Node13 -->
<g id="Node000013" class="node">
<title>Node13</title>
<g id="a_Node000013"><a xlink:href="freebsd_8h.html" target="_top" xlink:title=" ">
<polygon fill="white" stroke="#666666" points="2363.5,-129 2247.5,-129 2247.5,-110 2363.5,-110 2363.5,-129"/>
<text text-anchor="middle" x="2305.5" y="-117" font-family="Helvetica,sans-Serif" font-size="10.00">compat/os/freebsd.h</text>
</a>
</g>
</g>
<!-- Node5&#45;&gt;Node13 -->
<g id="edge11_Node000005_Node000013" class="edge">
<title>Node5&#45;&gt;Node13</title>
<g id="a_edge11_Node000005_Node000013"><a xlink:title=" ">
<path fill="none" stroke="#63b8ff" d="M1662.53,-166C1665.56,-165.64 1668.57,-165.3 1671.5,-165 1919.38,-139.61 1985.39,-152.55 2237.23,-129.06"/>
<polygon fill="#63b8ff" stroke="#63b8ff" points="2237.79,-132.52 2247.42,-128.09 2237.14,-125.55 2237.79,-132.52"/>
</a>
</g>
</g>
<!-- Node14 -->
<g id="Node000014" class="node">
<title>Node14</title>
<g id="a_Node000014"><a xlink:href="hpux_8h.html" target="_top" xlink:title=" ">
<polygon fill="white" stroke="#666666" points="2485.5,-129 2381.5,-129 2381.5,-110 2485.5,-110 2485.5,-129"/>
<text text-anchor="middle" x="2433.5" y="-117" font-family="Helvetica,sans-Serif" font-size="10.00">compat/os/hpux.h</text>
</a>
</g>
</g>
<!-- Node5&#45;&gt;Node14 -->
<g id="edge12_Node000005_Node000014" class="edge">
<title>Node5&#45;&gt;Node14</title>
<g id="a_edge12_Node000005_Node000014"><a xlink:title=" ">
<path fill="none" stroke="#63b8ff" d="M1662.53,-165.95C1665.56,-165.6 1668.57,-165.28 1671.5,-165 1978.69,-135.41 2060.19,-158.06 2371.08,-129.04"/>
<polygon fill="#63b8ff" stroke="#63b8ff" points="2371.66,-132.5 2381.29,-128.08 2371.01,-125.53 2371.66,-132.5"/>
</a>
</g>
</g>
<!-- Node15 -->
<g id="Node000015" class="node">
<title>Node15</title>
<g id="a_Node000015"><a xlink:href="linux_8h.html" target="_top" xlink:title=" ">
<polygon fill="white" stroke="#666666" points="2607.5,-129 2503.5,-129 2503.5,-110 2607.5,-110 2607.5,-129"/>
<text text-anchor="middle" x="2555.5" y="-117" font-family="Helvetica,sans-Serif" font-size="10.00">compat/os/linux.h</text>
</a>
</g>
</g>
<!-- Node5&#45;&gt;Node15 -->
<g id="edge13_Node000005_Node000015" class="edge">
<title>Node5&#45;&gt;Node15</title>
<g id="a_edge13_Node000005_Node000015"><a xlink:title=" ">
<path fill="none" stroke="#63b8ff" d="M1662.52,-165.93C1665.56,-165.58 1668.57,-165.27 1671.5,-165 2032.78,-131.59 2128.17,-161.75 2493.24,-129.02"/>
<polygon fill="#63b8ff" stroke="#63b8ff" points="2493.65,-132.49 2503.29,-128.11 2493.02,-125.52 2493.65,-132.49"/>
</a>
</g>
</g>
<!-- Node16 -->
<g id="Node000016" class="node">
<title>Node16</title>
<g id="a_Node000016"><a xlink:href="macosx_8h.html" target="_top" xlink:title=" ">
<polygon fill="white" stroke="#666666" points="2743.5,-129 2625.5,-129 2625.5,-110 2743.5,-110 2743.5,-129"/>
<text text-anchor="middle" x="2684.5" y="-117" font-family="Helvetica,sans-Serif" font-size="10.00">compat/os/macosx.h</text>
</a>
</g>
</g>
<!-- Node5&#45;&gt;Node16 -->
<g id="edge14_Node000005_Node000016" class="edge">
<title>Node5&#45;&gt;Node16</title>
<g id="a_edge14_Node000005_Node000016"><a xlink:title=" ">
<path fill="none" stroke="#63b8ff" d="M1662.52,-165.91C1665.56,-165.57 1668.57,-165.26 1671.5,-165 2086.75,-127.78 2195.83,-162.53 2614.92,-129.05"/>
<polygon fill="#63b8ff" stroke="#63b8ff" points="2615.51,-132.51 2625.19,-128.22 2614.94,-125.54 2615.51,-132.51"/>
</a>
</g>
</g>
<!-- Node17 -->
<g id="Node000017" class="node">
<title>Node17</title>
<g id="a_Node000017"><a xlink:href="mingw_8h.html" target="_top" xlink:title=" ">
<polygon fill="white" stroke="#666666" points="2873.5,-129 2761.5,-129 2761.5,-110 2873.5,-110 2873.5,-129"/>
<text text-anchor="middle" x="2817.5" y="-117" font-family="Helvetica,sans-Serif" font-size="10.00">compat/os/mingw.h</text>
</a>
</g>
</g>
<!-- Node5&#45;&gt;Node17 -->
<g id="edge15_Node000005_Node000017" class="edge">
<title>Node5&#45;&gt;Node17</title>
<g id="a_edge15_Node000005_Node000017"><a xlink:title=" ">
<path fill="none" stroke="#63b8ff" d="M1662.52,-165.89C1665.55,-165.56 1668.57,-165.26 1671.5,-165 2147,-123.52 2271.63,-167.58 2750.86,-129.04"/>
<polygon fill="#63b8ff" stroke="#63b8ff" points="2751.48,-132.5 2761.17,-128.21 2750.91,-125.53 2751.48,-132.5"/>
</a>
</g>
</g>
<!-- Node18 -->
<g id="Node000018" class="node">
<title>Node18</title>
<g id="a_Node000018"><a xlink:href="mswindows_8h.html" target="_top" xlink:title=" ">
<polygon fill="white" stroke="#666666" points="3029,-129 2892,-129 2892,-110 3029,-110 3029,-129"/>
<text text-anchor="middle" x="2960.5" y="-117" font-family="Helvetica,sans-Serif" font-size="10.00">compat/os/mswindows.h</text>
</a>
</g>
</g>
<!-- Node5&#45;&gt;Node18 -->
<g id="edge16_Node000005_Node000018" class="edge">
<title>Node5&#45;&gt;Node18</title>
<g id="a_edge16_Node000005_Node000018"><a xlink:title=" ">
<path fill="none" stroke="#63b8ff" d="M1662.52,-165.88C1665.55,-165.55 1668.56,-165.25 1671.5,-165 2204.6,-119.46 2343.57,-165.6 2881.27,-129.01"/>
<polygon fill="#63b8ff" stroke="#63b8ff" points="2881.89,-132.48 2891.62,-128.3 2881.41,-125.5 2881.89,-132.48"/>
</a>
</g>
</g>
<!-- Node19 -->
<g id="Node000019" class="node">
<title>Node19</title>
<g id="a_Node000019"><a xlink:href="netbsd_8h.html" target="_top" xlink:title=" ">
<polygon fill="white" stroke="#666666" points="3160,-129 3047,-129 3047,-110 3160,-110 3160,-129"/>
<text text-anchor="middle" x="3103.5" y="-117" font-family="Helvetica,sans-Serif" font-size="10.00">compat/os/netbsd.h</text>
</a>
</g>
</g>
<!-- Node5&#45;&gt;Node19 -->
<g id="edge17_Node000005_Node000019" class="edge">
<title>Node5&#45;&gt;Node19</title>
<g id="a_edge17_Node000005_Node000019"><a xlink:title=" ">
<path fill="none" stroke="#63b8ff" d="M1662.52,-165.87C1665.55,-165.54 1668.56,-165.25 1671.5,-165 2273.31,-114.61 2430.23,-175.16 3036.35,-128.99"/>
<polygon fill="#63b8ff" stroke="#63b8ff" points="3036.95,-132.45 3046.66,-128.19 3036.42,-125.47 3036.95,-132.45"/>
</a>
</g>
</g>
<!-- Node20 -->
<g id="Node000020" class="node">
<title>Node20</title>
<g id="a_Node000020"><a xlink:href="openbsd_8h.html" target="_top" xlink:title=" ">
<polygon fill="white" stroke="#666666" points="121,-129 0,-129 0,-110 121,-110 121,-129"/>
<text text-anchor="middle" x="60.5" y="-117" font-family="Helvetica,sans-Serif" font-size="10.00">compat/os/openbsd.h</text>
</a>
</g>
</g>
<!-- Node5&#45;&gt;Node20 -->
<g id="edge18_Node000005_Node000020" class="edge">
<title>Node5&#45;&gt;Node20</title>
<g id="a_edge18_Node000005_Node000020"><a xlink:title=" ">
<path fill="none" stroke="#63b8ff" d="M1560.48,-165.86C1557.45,-165.54 1554.44,-165.24 1551.5,-165 924.86,-112.86 761.72,-175.03 131.3,-129.05"/>
<polygon fill="#63b8ff" stroke="#63b8ff" points="131.28,-125.54 121.05,-128.3 130.77,-132.52 131.28,-125.54"/>
</a>
</g>
</g>
<!-- Node21 -->
<g id="Node000021" class="node">
<title>Node21</title>
<g id="a_Node000021"><a xlink:href="os2_8h.html" target="_top" xlink:title=" ">
<polygon fill="white" stroke="#666666" points="236,-129 139,-129 139,-110 236,-110 236,-129"/>
<text text-anchor="middle" x="187.5" y="-117" font-family="Helvetica,sans-Serif" font-size="10.00">compat/os/os2.h</text>
</a>
</g>
</g>
<!-- Node5&#45;&gt;Node21 -->
<g id="edge19_Node000005_Node000021" class="edge">
<title>Node5&#45;&gt;Node21</title>
<g id="a_edge19_Node000005_Node000021"><a xlink:title=" ">
<path fill="none" stroke="#63b8ff" d="M1560.48,-165.87C1557.45,-165.54 1554.44,-165.25 1551.5,-165 976.28,-116.48 825.75,-178.45 246.47,-128.95"/>
<polygon fill="#63b8ff" stroke="#63b8ff" points="246.45,-125.43 236.19,-128.06 245.85,-132.41 246.45,-125.43"/>
</a>
</g>
</g>
<!-- Node22 -->
<g id="Node000022" class="node">
<title>Node22</title>
<g id="a_Node000022"><a xlink:href="qnx_8h.html" target="_top" xlink:title=" ">
<polygon fill="white" stroke="#666666" points="352.5,-129 254.5,-129 254.5,-110 352.5,-110 352.5,-129"/>
<text text-anchor="middle" x="303.5" y="-117" font-family="Helvetica,sans-Serif" font-size="10.00">compat/os/qnx.h</text>
</a>
</g>
</g>
<!-- Node5&#45;&gt;Node22 -->
<g id="edge20_Node000005_Node000022" class="edge">
<title>Node5&#45;&gt;Node22</title>
<g id="a_edge20_Node000005_Node000022"><a xlink:title=" ">
<path fill="none" stroke="#63b8ff" d="M1560.48,-165.88C1557.45,-165.55 1554.44,-165.25 1551.5,-165 1027.65,-120.11 890.33,-174.74 362.66,-128.98"/>
<polygon fill="#63b8ff" stroke="#63b8ff" points="362.77,-125.47 352.5,-128.09 362.16,-132.45 362.77,-125.47"/>
</a>
</g>
</g>
<!-- Node23 -->
<g id="Node000023" class="node">
<title>Node23</title>
<g id="a_Node000023"><a xlink:href="solaris_8h.html" target="_top" xlink:title=" ">
<polygon fill="white" stroke="#666666" points="482.5,-129 370.5,-129 370.5,-110 482.5,-110 482.5,-129"/>
<text text-anchor="middle" x="426.5" y="-117" font-family="Helvetica,sans-Serif" font-size="10.00">compat/os/solaris.h</text>
</a>
</g>
</g>
<!-- Node5&#45;&gt;Node23 -->
<g id="edge21_Node000005_Node000023" class="edge">
<title>Node5&#45;&gt;Node23</title>
<g id="a_edge21_Node000005_Node000023"><a xlink:title=" ">
<path fill="none" stroke="#63b8ff" d="M1560.48,-165.89C1557.44,-165.56 1554.43,-165.26 1551.5,-165 1085.24,-124.17 963.02,-166.99 492.94,-129.03"/>
<polygon fill="#63b8ff" stroke="#63b8ff" points="493.09,-125.53 482.83,-128.2 492.52,-132.5 493.09,-125.53"/>
</a>
</g>
</g>
<!-- Node24 -->
<g id="Node000024" class="node">
<title>Node24</title>
<g id="a_Node000024"><a xlink:href="sunos_8h.html" target="_top" xlink:title=" ">
<polygon fill="white" stroke="#666666" points="608.5,-129 500.5,-129 500.5,-110 608.5,-110 608.5,-129"/>
<text text-anchor="middle" x="554.5" y="-117" font-family="Helvetica,sans-Serif" font-size="10.00">compat/os/sunos.h</text>
</a>
</g>
</g>
<!-- Node5&#45;&gt;Node24 -->
<g id="edge22_Node000005_Node000024" class="edge">
<title>Node5&#45;&gt;Node24</title>
<g id="a_edge22_Node000005_Node000024"><a xlink:title=" ">
<path fill="none" stroke="#63b8ff" d="M1560.48,-165.91C1557.44,-165.57 1554.43,-165.26 1551.5,-165 1141.08,-128.12 1033.11,-164.22 618.91,-129.03"/>
<polygon fill="#63b8ff" stroke="#63b8ff" points="619.02,-125.52 608.76,-128.16 618.42,-132.5 619.02,-125.52"/>
</a>
</g>
</g>
<!-- Node25 -->
<g id="Node000025" class="node">
<title>Node25</title>
<g id="a_Node000025"><a xlink:href="assert_8h.html" target="_top" xlink:title=" ">
<polygon fill="white" stroke="#666666" points="722,-129 627,-129 627,-110 722,-110 722,-129"/>
<text text-anchor="middle" x="674.5" y="-117" font-family="Helvetica,sans-Serif" font-size="10.00">compat/assert.h</text>
</a>
</g>
</g>
<!-- Node5&#45;&gt;Node25 -->
<g id="edge23_Node000005_Node000025" class="edge">
<title>Node5&#45;&gt;Node25</title>
<g id="a_edge23_Node000005_Node000025"><a xlink:title=" ">
<path fill="none" stroke="#63b8ff" d="M1560.48,-165.93C1557.44,-165.59 1554.43,-165.27 1551.5,-165 1191.54,-131.68 1096.33,-163.37 732.07,-128.93"/>
<polygon fill="#63b8ff" stroke="#63b8ff" points="732.33,-125.43 722.04,-127.97 731.66,-132.4 732.33,-125.43"/>
</a>
</g>
</g>
<!-- Node26 -->
<g id="Node000026" class="node">
<title>Node26</title>
<g id="a_Node000026"><a xlink:href="compat__shared_8h.html" target="_top" xlink:title=" ">
<polygon fill="#fff0f0" stroke="red" points="880.5,-129 740.5,-129 740.5,-110 880.5,-110 880.5,-129"/>
<text text-anchor="middle" x="810.5" y="-117" font-family="Helvetica,sans-Serif" font-size="10.00">compat/compat_shared.h</text>
</a>
</g>
</g>
<!-- Node5&#45;&gt;Node26 -->
<g id="edge24_Node000005_Node000026" class="edge">
<title>Node5&#45;&gt;Node26</title>
<g id="a_edge24_Node000005_Node000026"><a xlink:title=" ">
<path fill="none" stroke="#63b8ff" d="M1560.47,-165.97C1557.44,-165.61 1554.43,-165.29 1551.5,-165 1261.54,-136.63 1184.91,-152.41 890.8,-129.06"/>
<polygon fill="#63b8ff" stroke="#63b8ff" points="890.94,-125.56 880.69,-128.25 890.38,-132.54 890.94,-125.56"/>
</a>
</g>
</g>
<!-- Node36 -->
<g id="Node000036" class="node">
<title>Node36</title>
<g id="a_Node000036"><a xlink:href="stdvarargs_8h.html" target="_top" xlink:title=" ">
<polygon fill="#fff0f0" stroke="red" points="1016,-129 899,-129 899,-110 1016,-110 1016,-129"/>
<text text-anchor="middle" x="957.5" y="-117" font-family="Helvetica,sans-Serif" font-size="10.00">compat/stdvarargs.h</text>
</a>
</g>
</g>
<!-- Node5&#45;&gt;Node36 -->
<g id="edge25_Node000005_Node000036" class="edge">
<title>Node5&#45;&gt;Node36</title>
<g id="a_edge25_Node000005_Node000036"><a xlink:title=" ">
<path fill="none" stroke="#63b8ff" d="M1560.47,-166.01C1557.44,-165.65 1554.43,-165.31 1551.5,-165 1321.32,-140.87 1259.89,-151.47 1026.47,-129.14"/>
<polygon fill="#63b8ff" stroke="#63b8ff" points="1026.59,-125.63 1016.3,-128.16 1025.92,-132.6 1026.59,-125.63"/>
</a>
</g>
</g>
<!-- Node38 -->
<g id="Node000038" class="node">
<title>Node38</title>
<g id="a_Node000038"><a xlink:href="stdio_8h.html" target="_top" xlink:title=" ">
<polygon fill="#fff0f0" stroke="red" points="1123,-129 1034,-129 1034,-110 1123,-110 1123,-129"/>
<text text-anchor="middle" x="1078.5" y="-117" font-family="Helvetica,sans-Serif" font-size="10.00">compat/stdio.h</text>
</a>
</g>
</g>
<!-- Node5&#45;&gt;Node38 -->
<g id="edge26_Node000005_Node000038" class="edge">
<title>Node5&#45;&gt;Node38</title>
<g id="a_edge26_Node000005_Node000038"><a xlink:title=" ">
<path fill="none" stroke="#63b8ff" d="M1560.46,-166.07C1557.43,-165.69 1554.43,-165.33 1551.5,-165 1368.62,-144.22 1319.18,-151.58 1133.39,-129.15"/>
<polygon fill="#63b8ff" stroke="#63b8ff" points="1133.64,-125.66 1123.29,-127.92 1132.79,-132.61 1133.64,-125.66"/>
</a>
</g>
</g>
<!-- Node40 -->
<g id="Node000040" class="node">
<title>Node40</title>
<g id="a_Node000040"><a xlink:href="statvfs_8h.html" target="_top" xlink:title=" ">
<polygon fill="white" stroke="#666666" points="1240,-129 1141,-129 1141,-110 1240,-110 1240,-129"/>
<text text-anchor="middle" x="1190.5" y="-117" font-family="Helvetica,sans-Serif" font-size="10.00">compat/statvfs.h</text>
</a>
</g>
</g>
<!-- Node5&#45;&gt;Node40 -->
<g id="edge27_Node000005_Node000040" class="edge">
<title>Node5&#45;&gt;Node40</title>
<g id="a_edge27_Node000005_Node000040"><a xlink:title=" ">
<path fill="none" stroke="#63b8ff" d="M1560.45,-166.19C1557.42,-165.78 1554.42,-165.38 1551.5,-165 1420.3,-147.92 1384.66,-146.88 1250.43,-129.23"/>
<polygon fill="#63b8ff" stroke="#63b8ff" points="1250.53,-125.71 1240.16,-127.87 1249.62,-132.65 1250.53,-125.71"/>
</a>
</g>
</g>
<!-- Node41 -->
<g id="Node000041" class="node">
<title>Node41</title>
<g id="a_Node000041"><a xlink:href="debug_8h.html" target="_top" xlink:title=" ">
<polygon fill="white" stroke="#666666" points="1353,-129 1258,-129 1258,-110 1353,-110 1353,-129"/>
<text text-anchor="middle" x="1305.5" y="-117" font-family="Helvetica,sans-Serif" font-size="10.00">compat/debug.h</text>
</a>
</g>
</g>
<!-- Node5&#45;&gt;Node41 -->
<g id="edge28_Node000005_Node000041" class="edge">
<title>Node5&#45;&gt;Node41</title>
<g id="a_edge28_Node000005_Node000041"><a xlink:title=" ">
<path fill="none" stroke="#63b8ff" d="M1562.34,-164.98C1507.99,-155.57 1420.55,-140.43 1363.05,-130.47"/>
<polygon fill="#63b8ff" stroke="#63b8ff" points="1363.48,-126.99 1353.03,-128.73 1362.29,-133.89 1363.48,-126.99"/>
</a>
</g>
</g>
<!-- Node42 -->
<g id="Node000042" class="node">
<title>Node42</title>
<g id="a_Node000042"><a xlink:href="valgrind_8h.html" target="_top" xlink:title=" ">
<polygon fill="#fff0f0" stroke="red" points="1476,-129 1371,-129 1371,-110 1476,-110 1476,-129"/>
<text text-anchor="middle" x="1423.5" y="-117" font-family="Helvetica,sans-Serif" font-size="10.00">compat/valgrind.h</text>
</a>
</g>
</g>
<!-- Node5&#45;&gt;Node42 -->
<g id="edge29_Node000005_Node000042" class="edge">
<title>Node5&#45;&gt;Node42</title>
<g id="a_edge29_Node000005_Node000042"><a xlink:title=" ">
<path fill="none" stroke="#63b8ff" d="M1581.29,-164.98C1549.46,-156.01 1499.14,-141.82 1463.9,-131.89"/>
<polygon fill="#63b8ff" stroke="#63b8ff" points="1464.52,-128.43 1453.94,-129.08 1462.62,-135.16 1464.52,-128.43"/>
</a>
</g>
</g>
<!-- Node45 -->
<g id="Node000045" class="node">
<title>Node45</title>
<g id="a_Node000045"><a xlink:href="CharacterSet_8h.html" target="_top" xlink:title=" ">
<polygon fill="white" stroke="#666666" points="3378,-184 3263,-184 3263,-165 3378,-165 3378,-184"/>
<text text-anchor="middle" x="3320.5" y="-172" font-family="Helvetica,sans-Serif" font-size="10.00">base/CharacterSet.h</text>
</a>
</g>
</g>
<!-- Node44&#45;&gt;Node45 -->
<g id="edge31_Node000044_Node000045" class="edge">
<title>Node44&#45;&gt;Node45</title>
<g id="a_edge31_Node000044_Node000045"><a xlink:title=" ">
<path fill="none" stroke="#63b8ff" d="M3329.68,-219.75C3328.24,-212.8 3326.18,-202.85 3324.37,-194.13"/>
<polygon fill="#63b8ff" stroke="#63b8ff" points="3327.74,-193.17 3322.28,-184.09 3320.89,-194.59 3327.74,-193.17"/>
</a>
</g>
</g>
<!-- Node49 -->
<g id="Node000049" class="node">
<title>Node49</title>
<g id="a_Node000049"><a xlink:href="SBuf_8h.html" target="_top" xlink:title=" ">
<polygon fill="white" stroke="#666666" points="3606,-184 3535,-184 3535,-165 3606,-165 3606,-184"/>
<text text-anchor="middle" x="3570.5" y="-172" font-family="Helvetica,sans-Serif" font-size="10.00">sbuf/SBuf.h</text>
</a>
</g>
</g>
<!-- Node44&#45;&gt;Node49 -->
<g id="edge35_Node000044_Node000049" class="edge">
<title>Node44&#45;&gt;Node49</title>
<g id="a_edge35_Node000044_Node000049"><a xlink:title=" ">
<path fill="none" stroke="#63b8ff" d="M3369.9,-219.98C3412.22,-210.6 3480.24,-195.52 3525.15,-185.56"/>
<polygon fill="#63b8ff" stroke="#63b8ff" points="3525.92,-188.97 3534.93,-183.39 3524.41,-182.14 3525.92,-188.97"/>
</a>
</g>
</g>
<!-- Node46 -->
<g id="Node000046" class="node">
<title>Node46</title>
<g id="a_Node000046"><a xlink:title=" ">
<polygon fill="#e0e0e0" stroke="#999999" points="3326,-129 3243,-129 3243,-110 3326,-110 3326,-129"/>
<text text-anchor="middle" x="3284.5" y="-117" font-family="Helvetica,sans-Serif" font-size="10.00">initializer_list</text>
</a>
</g>
</g>
<!-- Node45&#45;&gt;Node46 -->
<g id="edge32_Node000045_Node000046" class="edge">
<title>Node45&#45;&gt;Node46</title>
<g id="a_edge32_Node000045_Node000046"><a xlink:title=" ">
<path fill="none" stroke="#63b8ff" d="M3314.56,-164.75C3309.52,-157.34 3302.16,-146.5 3295.99,-137.41"/>
<polygon fill="#63b8ff" stroke="#63b8ff" points="3298.85,-135.39 3290.33,-129.09 3293.06,-139.33 3298.85,-135.39"/>
</a>
</g>
</g>
<!-- Node47 -->
<g id="Node000047" class="node">
<title>Node47</title>
<g id="a_Node000047"><a xlink:title=" ">
<polygon fill="#e0e0e0" stroke="#999999" points="3595.5,-19 3547.5,-19 3547.5,0 3595.5,0 3595.5,-19"/>
<text text-anchor="middle" x="3571.5" y="-7" font-family="Helvetica,sans-Serif" font-size="10.00">iosfwd</text>
</a>
</g>
</g>
<!-- Node45&#45;&gt;Node47 -->
<g id="edge33_Node000045_Node000047" class="edge">
<title>Node45&#45;&gt;Node47</title>
<g id="a_edge33_Node000045_Node000047"><a xlink:title=" ">
<path fill="none" stroke="#63b8ff" d="M3326.09,-164.72C3334.87,-151.48 3353.02,-126.24 3373.5,-110 3425.16,-69.03 3496.38,-38.33 3537.83,-22.5"/>
<polygon fill="#63b8ff" stroke="#63b8ff" points="3539.31,-25.68 3547.44,-18.89 3536.85,-19.13 3539.31,-25.68"/>
</a>
</g>
</g>
<!-- Node45&#45;&gt;Node48 -->
<g id="edge34_Node000045_Node000048" class="edge">
<title>Node45&#45;&gt;Node48</title>
<g id="a_edge34_Node000045_Node000048"><a xlink:title=" ">
<path fill="none" stroke="#63b8ff" d="M3301.38,-164.98C3282.15,-156.42 3252.27,-143.11 3230.19,-133.28"/>
<polygon fill="#63b8ff" stroke="#63b8ff" points="3231.53,-130.04 3220.97,-129.17 3228.68,-136.44 3231.53,-130.04"/>
</a>
</g>
</g>
<!-- Node49&#45;&gt;Node47 -->
<g id="edge47_Node000049_Node000047" class="edge">
<title>Node49&#45;&gt;Node47</title>
<g id="a_edge47_Node000049_Node000047"><a xlink:title=" ">
<path fill="none" stroke="#63b8ff" d="M3566.92,-164.82C3559.27,-145.15 3542.76,-95.75 3551.5,-55 3553.47,-45.8 3557.5,-36.2 3561.43,-28.29"/>
<polygon fill="#63b8ff" stroke="#63b8ff" points="3564.59,-29.79 3566.18,-19.32 3558.41,-26.51 3564.59,-29.79"/>
</a>
</g>
</g>
<!-- Node50 -->
<g id="Node000050" class="node">
<title>Node50</title>
<g id="a_Node000050"><a xlink:href="InstanceId_8h.html" target="_top" xlink:title=" ">
<polygon fill="white" stroke="#666666" points="3662.5,-74 3560.5,-74 3560.5,-55 3662.5,-55 3662.5,-74"/>
<text text-anchor="middle" x="3611.5" y="-62" font-family="Helvetica,sans-Serif" font-size="10.00">base/InstanceId.h</text>
</a>
</g>
</g>
<!-- Node49&#45;&gt;Node50 -->
<g id="edge36_Node000049_Node000050" class="edge">
<title>Node49&#45;&gt;Node50</title>
<g id="a_edge36_Node000049_Node000050"><a xlink:title=" ">
<path fill="none" stroke="#63b8ff" d="M3572.63,-164.72C3575.74,-152.31 3582,-129.06 3589.5,-110 3593.05,-100.98 3597.73,-91.29 3601.86,-83.27"/>
<polygon fill="#63b8ff" stroke="#63b8ff" points="3605.09,-84.64 3606.67,-74.17 3598.9,-81.37 3605.09,-84.64"/>
</a>
</g>
</g>
<!-- Node51 -->
<g id="Node000051" class="node">
<title>Node51</title>
<g id="a_Node000051"><a xlink:href="TextException_8h.html" target="_top" xlink:title=" ">
<polygon fill="#fff0f0" stroke="red" points="3718.5,-129 3598.5,-129 3598.5,-110 3718.5,-110 3718.5,-129"/>
<text text-anchor="middle" x="3658.5" y="-117" font-family="Helvetica,sans-Serif" font-size="10.00">base/TextException.h</text>
</a>
</g>
</g>
<!-- Node49&#45;&gt;Node51 -->
<g id="edge38_Node000049_Node000051" class="edge">
<title>Node49&#45;&gt;Node51</title>
<g id="a_edge38_Node000049_Node000051"><a xlink:title=" ">
<path fill="none" stroke="#63b8ff" d="M3584.64,-164.98C3598.29,-156.77 3619.19,-144.18 3635.28,-134.49"/>
<polygon fill="#63b8ff" stroke="#63b8ff" points="3637.34,-137.33 3644.1,-129.17 3633.73,-131.33 3637.34,-137.33"/>
</a>
</g>
</g>
<!-- Node55 -->
<g id="Node000055" class="node">
<title>Node55</title>
<g id="a_Node000055"><a xlink:href="debug_2Stream_8h.html" target="_top" xlink:title=" ">
<polygon fill="#fff0f0" stroke="red" points="3830.5,-129 3736.5,-129 3736.5,-110 3830.5,-110 3830.5,-129"/>
<text text-anchor="middle" x="3783.5" y="-117" font-family="Helvetica,sans-Serif" font-size="10.00">debug/Stream.h</text>
</a>
</g>
</g>
<!-- Node49&#45;&gt;Node55 -->
<g id="edge39_Node000049_Node000055" class="edge">
<title>Node49&#45;&gt;Node55</title>
<g id="a_edge39_Node000049_Node000055"><a xlink:title=" ">
<path fill="none" stroke="#63b8ff" d="M3604.72,-164.98C3641.26,-155.89 3699.28,-141.46 3739.26,-131.51"/>
<polygon fill="#63b8ff" stroke="#63b8ff" points="3740.15,-134.89 3749.01,-129.08 3738.46,-128.1 3740.15,-134.89"/>
</a>
</g>
</g>
<!-- Node60 -->
<g id="Node000060" class="node">
<title>Node60</title>
<g id="a_Node000060"><a xlink:href="globals_8h.html" target="_top" xlink:title=" ">
<polygon fill="#fff0f0" stroke="red" points="3910,-129 3849,-129 3849,-110 3910,-110 3910,-129"/>
<text text-anchor="middle" x="3879.5" y="-117" font-family="Helvetica,sans-Serif" font-size="10.00">globals.h</text>
</a>
</g>
</g>
<!-- Node49&#45;&gt;Node60 -->
<g id="edge40_Node000049_Node000060" class="edge">
<title>Node49&#45;&gt;Node60</title>
<g id="a_edge40_Node000049_Node000060"><a xlink:title=" ">
<path fill="none" stroke="#63b8ff" d="M3606.35,-166.64C3609.44,-166.07 3612.52,-165.52 3615.5,-165 3711.72,-148.18 3738.71,-147.51 3839.02,-129"/>
<polygon fill="#63b8ff" stroke="#63b8ff" points="3839.76,-132.42 3848.96,-127.15 3838.49,-125.54 3839.76,-132.42"/>
</a>
</g>
</g>
<!-- Node71 -->
<g id="Node000071" class="node">
<title>Node71</title>
<g id="a_Node000071"><a xlink:href="sbuf_2forward_8h.html" target="_top" xlink:title=" ">
<polygon fill="#fff0f0" stroke="red" points="4015,-129 3928,-129 3928,-110 4015,-110 4015,-129"/>
<text text-anchor="middle" x="3971.5" y="-117" font-family="Helvetica,sans-Serif" font-size="10.00">sbuf/forward.h</text>
</a>
</g>
</g>
<!-- Node49&#45;&gt;Node71 -->
<g id="edge41_Node000049_Node000071" class="edge">
<title>Node49&#45;&gt;Node71</title>
<g id="a_edge41_Node000049_Node000071"><a xlink:title=" ">
<path fill="none" stroke="#63b8ff" d="M3606.32,-166.5C3609.42,-165.97 3612.51,-165.46 3615.5,-165 3746.7,-144.87 3783.02,-147.82 3917.54,-129.22"/>
<polygon fill="#63b8ff" stroke="#63b8ff" points="3918.41,-132.63 3927.83,-127.78 3917.44,-125.7 3918.41,-132.63"/>
</a>
</g>
</g>
<!-- Node78 -->
<g id="Node000078" class="node">
<title>Node78</title>
<g id="a_Node000078"><a xlink:href="MemBlob_8h.html" target="_top" xlink:title=" ">
<polygon fill="#fff0f0" stroke="red" points="4129.5,-129 4033.5,-129 4033.5,-110 4129.5,-110 4129.5,-129"/>
<text text-anchor="middle" x="4081.5" y="-117" font-family="Helvetica,sans-Serif" font-size="10.00">sbuf/MemBlob.h</text>
</a>
</g>
</g>
<!-- Node49&#45;&gt;Node78 -->
<g id="edge42_Node000049_Node000078" class="edge">
<title>Node49&#45;&gt;Node78</title>
<g id="a_edge42_Node000049_Node000078"><a xlink:title=" ">
<path fill="none" stroke="#63b8ff" d="M3606.31,-166.41C3609.41,-165.89 3612.51,-165.41 3615.5,-165 3793,-140.49 3841.54,-150.1 4023.16,-129.08"/>
<polygon fill="#63b8ff" stroke="#63b8ff" points="4023.8,-132.53 4033.33,-127.89 4022.99,-125.58 4023.8,-132.53"/>
</a>
</g>
</g>
<!-- Node80 -->
<g id="Node000080" class="node">
<title>Node80</title>
<g id="a_Node000080"><a xlink:href="sbuf_2Stats_8h.html" target="_top" xlink:title=" ">
<polygon fill="white" stroke="#666666" points="3974.5,-74 3900.5,-74 3900.5,-55 3974.5,-55 3974.5,-74"/>
<text text-anchor="middle" x="3937.5" y="-62" font-family="Helvetica,sans-Serif" font-size="10.00">sbuf/Stats.h</text>
</a>
</g>
</g>
<!-- Node49&#45;&gt;Node80 -->
<g id="edge44_Node000049_Node000080" class="edge">
<title>Node49&#45;&gt;Node80</title>
<g id="a_edge44_Node000049_Node000080"><a xlink:title=" ">
<path fill="none" stroke="#63b8ff" d="M3606.3,-166.34C3609.4,-165.84 3612.5,-165.38 3615.5,-165 3673.27,-157.58 4098.75,-171.58 4138.5,-129 4184.91,-79.28 4057.99,-68.28 3984.95,-65.99"/>
<polygon fill="#63b8ff" stroke="#63b8ff" points="3984.68,-62.48 3974.59,-65.71 3984.5,-69.48 3984.68,-62.48"/>
</a>
</g>
</g>
<!-- Node81 -->
<g id="Node000081" class="node">
<title>Node81</title>
<g id="a_Node000081"><a xlink:title=" ">
<polygon fill="#e0e0e0" stroke="#999999" points="3432.5,-129 3382.5,-129 3382.5,-110 3432.5,-110 3432.5,-129"/>
<text text-anchor="middle" x="3407.5" y="-117" font-family="Helvetica,sans-Serif" font-size="10.00">climits</text>
</a>
</g>
</g>
<!-- Node49&#45;&gt;Node81 -->
<g id="edge46_Node000049_Node000081" class="edge">
<title>Node49&#45;&gt;Node81</title>
<g id="a_edge46_Node000049_Node000081"><a xlink:title=" ">
<path fill="none" stroke="#63b8ff" d="M3544.31,-164.98C3516.66,-155.99 3472.92,-141.77 3442.37,-131.84"/>
<polygon fill="#63b8ff" stroke="#63b8ff" points="3443.15,-128.41 3432.55,-128.65 3440.98,-135.07 3443.15,-128.41"/>
</a>
</g>
</g>
<!-- Node82 -->
<g id="Node000082" class="node">
<title>Node82</title>
<g id="a_Node000082"><a xlink:title=" ">
<polygon fill="#e0e0e0" stroke="#999999" points="3504,-129 3451,-129 3451,-110 3504,-110 3504,-129"/>
<text text-anchor="middle" x="3477.5" y="-117" font-family="Helvetica,sans-Serif" font-size="10.00">iterator</text>
</a>
</g>
</g>
<!-- Node49&#45;&gt;Node82 -->
<g id="edge48_Node000049_Node000082" class="edge">
<title>Node49&#45;&gt;Node82</title>
<g id="a_edge48_Node000049_Node000082"><a xlink:title=" ">
<path fill="none" stroke="#63b8ff" d="M3555.56,-164.98C3541,-156.69 3518.63,-143.94 3501.57,-134.22"/>
<polygon fill="#63b8ff" stroke="#63b8ff" points="3503.14,-131.08 3492.71,-129.17 3499.67,-137.16 3503.14,-131.08"/>
</a>
</g>
</g>
<!-- Node50&#45;&gt;Node47 -->
<g id="edge37_Node000050_Node000047" class="edge">
<title>Node50&#45;&gt;Node47</title>
<g id="a_edge37_Node000050_Node000047"><a xlink:title=" ">
<path fill="none" stroke="#63b8ff" d="M3604.89,-54.75C3599.24,-47.26 3590.96,-36.28 3584.05,-27.13"/>
<polygon fill="#63b8ff" stroke="#63b8ff" points="3586.8,-24.96 3577.98,-19.09 3581.21,-29.18 3586.8,-24.96"/>
</a>
</g>
</g>
<!-- Node78&#45;&gt;Node50 -->
<g id="edge43_Node000078_Node000050" class="edge">
<title>Node78&#45;&gt;Node50</title>
<g id="a_edge43_Node000078_Node000050"><a xlink:title=" ">
<path fill="none" stroke="#63b8ff" d="M4033.32,-111.17C4030.34,-110.76 4027.38,-110.37 4024.5,-110 3899.83,-93.99 3753.48,-79.16 3672.76,-71.31"/>
<polygon fill="#63b8ff" stroke="#63b8ff" points="3673.06,-67.83 3662.77,-70.35 3672.38,-74.79 3673.06,-67.83"/>
</a>
</g>
</g>
<!-- Node80&#45;&gt;Node47 -->
<g id="edge45_Node000080_Node000047" class="edge">
<title>Node80&#45;&gt;Node47</title>
<g id="a_edge45_Node000080_Node000047"><a xlink:title=" ">
<path fill="none" stroke="#63b8ff" d="M3900.39,-58.13C3829.32,-47.83 3674.94,-25.48 3605.98,-15.49"/>
<polygon fill="#63b8ff" stroke="#63b8ff" points="3606.07,-11.97 3595.67,-14 3605.06,-18.9 3606.07,-11.97"/>
</a>
</g>
</g>
<!-- Node83&#45;&gt;Node49 -->
<g id="edge50_Node000083_Node000049" class="edge">
<title>Node83&#45;&gt;Node49</title>
<g id="a_edge50_Node000083_Node000049"><a xlink:title=" ">
<path fill="none" stroke="#63b8ff" d="M3473.98,-219.98C3492.48,-211.46 3521.18,-198.23 3542.48,-188.41"/>
<polygon fill="#63b8ff" stroke="#63b8ff" points="3544.07,-191.53 3551.69,-184.17 3541.14,-185.18 3544.07,-191.53"/>
</a>
</g>
</g>
<!-- Node84&#45;&gt;Node49 -->
<g id="edge53_Node000084_Node000049" class="edge">
<title>Node84&#45;&gt;Node49</title>
<g id="a_edge53_Node000084_Node000049"><a xlink:title=" ">
<path fill="none" stroke="#63b8ff" d="M3570.5,-219.75C3570.5,-212.8 3570.5,-202.85 3570.5,-194.13"/>
<polygon fill="#63b8ff" stroke="#63b8ff" points="3574,-194.09 3570.5,-184.09 3567,-194.09 3574,-194.09"/>
</a>
</g>
</g>
<!-- Node85 -->
<g id="Node000085" class="node">
<title>Node85</title>
<g id="a_Node000085"><a xlink:href="PackableStream_8h.html" target="_top" xlink:title=" ">
<polygon fill="#fff0f0" stroke="red" points="3754.5,-184 3624.5,-184 3624.5,-165 3754.5,-165 3754.5,-184"/>
<text text-anchor="middle" x="3689.5" y="-172" font-family="Helvetica,sans-Serif" font-size="10.00">base/PackableStream.h</text>
</a>
</g>
</g>
<!-- Node84&#45;&gt;Node85 -->
<g id="edge52_Node000084_Node000085" class="edge">
<title>Node84&#45;&gt;Node85</title>
<g id="a_edge52_Node000084_Node000085"><a xlink:title=" ">
<path fill="none" stroke="#63b8ff" d="M3589.62,-219.98C3608.85,-211.42 3638.73,-198.11 3660.81,-188.28"/>
<polygon fill="#63b8ff" stroke="#63b8ff" points="3662.32,-191.44 3670.03,-184.17 3659.47,-185.04 3662.32,-191.44"/>
</a>
</g>
</g>
</g>
</svg>
