<?xml version="1.0" encoding="UTF-8" standalone="no"?>
<!DOCTYPE svg PUBLIC "-//W3C//DTD SVG 1.1//EN"
 "http://www.w3.org/Graphics/SVG/1.1/DTD/svg11.dtd">
<!-- Generated by graphviz version 2.43.0 (0)
 -->
<!-- Title: squid/src/ipc/Queue.cc Pages: 1 -->
<svg width="3850pt" height="302pt"
 viewBox="0.00 0.00 3850.00 302.00" xmlns="http://www.w3.org/2000/svg" xmlns:xlink="http://www.w3.org/1999/xlink">
<g id="graph0" class="graph" transform="scale(1 1) rotate(0) translate(4 298)">
<title>squid/src/ipc/Queue.cc</title>
<!-- Node1 -->
<g id="Node000001" class="node">
<title>Node1</title>
<g id="a_Node000001"><a xlink:title=" ">
<polygon fill="#999999" stroke="#666666" points="3341,-294 3216,-294 3216,-275 3341,-275 3341,-294"/>
<text text-anchor="middle" x="3278.5" y="-282" font-family="Helvetica,sans-Serif" font-size="10.00">squid/src/ipc/Queue.cc</text>
</a>
</g>
</g>
<!-- Node2 -->
<g id="Node000002" class="node">
<title>Node2</title>
<g id="a_Node000002"><a xlink:href="squid_8h.html" target="_top" xlink:title=" ">
<polygon fill="white" stroke="#666666" points="2145.5,-239 2093.5,-239 2093.5,-220 2145.5,-220 2145.5,-239"/>
<text text-anchor="middle" x="2119.5" y="-227" font-family="Helvetica,sans-Serif" font-size="10.00">squid.h</text>
</a>
</g>
</g>
<!-- Node1&#45;&gt;Node2 -->
<g id="edge1_Node000001_Node000002" class="edge">
<title>Node1&#45;&gt;Node2</title>
<g id="a_edge1_Node000001_Node000002"><a xlink:title=" ">
<path fill="none" stroke="#63b8ff" d="M3215.78,-280.63C3004.33,-270.96 2321.68,-239.75 2155.99,-232.17"/>
<polygon fill="#63b8ff" stroke="#63b8ff" points="2155.98,-228.66 2145.83,-231.7 2155.66,-235.66 2155.98,-228.66"/>
</a>
</g>
</g>
<!-- Node44 -->
<g id="Node000044" class="node">
<title>Node44</title>
<g id="a_Node000044"><a xlink:href="TextException_8h.html" target="_top" xlink:title=" ">
<polygon fill="white" stroke="#666666" points="2945.5,-129 2825.5,-129 2825.5,-110 2945.5,-110 2945.5,-129"/>
<text text-anchor="middle" x="2885.5" y="-117" font-family="Helvetica,sans-Serif" font-size="10.00">base/TextException.h</text>
</a>
</g>
</g>
<!-- Node1&#45;&gt;Node44 -->
<g id="edge27_Node000001_Node000044" class="edge">
<title>Node1&#45;&gt;Node44</title>
<g id="a_edge27_Node000001_Node000044"><a xlink:title=" ">
<path fill="none" stroke="#63b8ff" d="M3215.52,-281.94C3083.68,-277.2 2785.69,-258.33 2723.5,-184 2718.08,-177.52 2718.38,-171.72 2723.5,-165 2735.19,-149.67 2778,-138.31 2816.67,-130.9"/>
<polygon fill="#63b8ff" stroke="#63b8ff" points="2817.72,-134.27 2826.92,-129.01 2816.45,-127.38 2817.72,-134.27"/>
</a>
</g>
</g>
<!-- Node49 -->
<g id="Node000049" class="node">
<title>Node49</title>
<g id="a_Node000049"><a xlink:href="debug_2Stream_8h.html" target="_top" xlink:title=" ">
<polygon fill="white" stroke="#666666" points="3432.5,-184 3338.5,-184 3338.5,-165 3432.5,-165 3432.5,-184"/>
<text text-anchor="middle" x="3385.5" y="-172" font-family="Helvetica,sans-Serif" font-size="10.00">debug/Stream.h</text>
</a>
</g>
</g>
<!-- Node1&#45;&gt;Node49 -->
<g id="edge32_Node000001_Node000049" class="edge">
<title>Node1&#45;&gt;Node49</title>
<g id="a_edge32_Node000001_Node000049"><a xlink:title=" ">
<path fill="none" stroke="#63b8ff" d="M3287.26,-274.66C3305.29,-256.46 3346.81,-214.55 3369.68,-191.47"/>
<polygon fill="#63b8ff" stroke="#63b8ff" points="3372.37,-193.73 3376.92,-184.16 3367.4,-188.8 3372.37,-193.73"/>
</a>
</g>
</g>
<!-- Node54 -->
<g id="Node000054" class="node">
<title>Node54</title>
<g id="a_Node000054"><a xlink:href="globals_8h.html" target="_top" xlink:title=" ">
<polygon fill="white" stroke="#666666" points="3578,-239 3517,-239 3517,-220 3578,-220 3578,-239"/>
<text text-anchor="middle" x="3547.5" y="-227" font-family="Helvetica,sans-Serif" font-size="10.00">globals.h</text>
</a>
</g>
</g>
<!-- Node1&#45;&gt;Node54 -->
<g id="edge38_Node000001_Node000054" class="edge">
<title>Node1&#45;&gt;Node54</title>
<g id="a_edge38_Node000001_Node000054"><a xlink:title=" ">
<path fill="none" stroke="#63b8ff" d="M3321.72,-274.98C3372.74,-264.93 3456.95,-248.34 3506.84,-238.51"/>
<polygon fill="#63b8ff" stroke="#63b8ff" points="3507.8,-241.89 3516.94,-236.52 3506.45,-235.02 3507.8,-241.89"/>
</a>
</g>
</g>
<!-- Node72 -->
<g id="Node000072" class="node">
<title>Node72</title>
<g id="a_Node000072"><a xlink:href="Queue_8h.html" target="_top" xlink:title=" ">
<polygon fill="white" stroke="#666666" points="3173.5,-239 3099.5,-239 3099.5,-220 3173.5,-220 3173.5,-239"/>
<text text-anchor="middle" x="3136.5" y="-227" font-family="Helvetica,sans-Serif" font-size="10.00">ipc/Queue.h</text>
</a>
</g>
</g>
<!-- Node1&#45;&gt;Node72 -->
<g id="edge44_Node000001_Node000072" class="edge">
<title>Node1&#45;&gt;Node72</title>
<g id="a_edge44_Node000001_Node000072"><a xlink:title=" ">
<path fill="none" stroke="#63b8ff" d="M3255.69,-274.98C3232.33,-266.27 3195.8,-252.63 3169.33,-242.75"/>
<polygon fill="#63b8ff" stroke="#63b8ff" points="3170.32,-239.39 3159.73,-239.17 3167.87,-245.95 3170.32,-239.39"/>
</a>
</g>
</g>
<!-- Node85 -->
<g id="Node000085" class="node">
<title>Node85</title>
<g id="a_Node000085"><a xlink:title=" ">
<polygon fill="#e0e0e0" stroke="#999999" points="3640.5,-239 3596.5,-239 3596.5,-220 3640.5,-220 3640.5,-239"/>
<text text-anchor="middle" x="3618.5" y="-227" font-family="Helvetica,sans-Serif" font-size="10.00">limits</text>
</a>
</g>
</g>
<!-- Node1&#45;&gt;Node85 -->
<g id="edge53_Node000001_Node000085" class="edge">
<title>Node1&#45;&gt;Node85</title>
<g id="a_edge53_Node000001_Node000085"><a xlink:title=" ">
<path fill="none" stroke="#63b8ff" d="M3341.04,-276.81C3401.54,-269.82 3495.94,-257.53 3586.36,-239.01"/>
<polygon fill="#63b8ff" stroke="#63b8ff" points="3587.15,-242.42 3596.23,-236.96 3585.73,-235.57 3587.15,-242.42"/>
</a>
</g>
</g>
<!-- Node3 -->
<g id="Node000003" class="node">
<title>Node3</title>
<g id="a_Node000003"><a xlink:href="autoconf_8h.html" target="_top" xlink:title=" ">
<polygon fill="white" stroke="#666666" points="2111.5,-184 2043.5,-184 2043.5,-165 2111.5,-165 2111.5,-184"/>
<text text-anchor="middle" x="2077.5" y="-172" font-family="Helvetica,sans-Serif" font-size="10.00">autoconf.h</text>
</a>
</g>
</g>
<!-- Node2&#45;&gt;Node3 -->
<g id="edge2_Node000002_Node000003" class="edge">
<title>Node2&#45;&gt;Node3</title>
<g id="a_edge2_Node000002_Node000003"><a xlink:title=" ">
<path fill="none" stroke="#63b8ff" d="M2112.56,-219.75C2106.63,-212.26 2097.93,-201.28 2090.68,-192.13"/>
<polygon fill="#63b8ff" stroke="#63b8ff" points="2093.26,-189.75 2084.31,-184.09 2087.77,-194.1 2093.26,-189.75"/>
</a>
</g>
</g>
<!-- Node4 -->
<g id="Node000004" class="node">
<title>Node4</title>
<g id="a_Node000004"><a xlink:href="version_8h.html" target="_top" xlink:title=" ">
<polygon fill="white" stroke="#666666" points="2191.5,-184 2129.5,-184 2129.5,-165 2191.5,-165 2191.5,-184"/>
<text text-anchor="middle" x="2160.5" y="-172" font-family="Helvetica,sans-Serif" font-size="10.00">version.h</text>
</a>
</g>
</g>
<!-- Node2&#45;&gt;Node4 -->
<g id="edge3_Node000002_Node000004" class="edge">
<title>Node2&#45;&gt;Node4</title>
<g id="a_edge3_Node000002_Node000004"><a xlink:title=" ">
<path fill="none" stroke="#63b8ff" d="M2126.27,-219.75C2132.06,-212.26 2140.56,-201.28 2147.64,-192.13"/>
<polygon fill="#63b8ff" stroke="#63b8ff" points="2150.51,-194.14 2153.86,-184.09 2144.97,-189.86 2150.51,-194.14"/>
</a>
</g>
</g>
<!-- Node5 -->
<g id="Node000005" class="node">
<title>Node5</title>
<g id="a_Node000005"><a xlink:href="compat_8h.html" target="_top" xlink:title=" ">
<polygon fill="#fff0f0" stroke="red" points="1503.5,-184 1401.5,-184 1401.5,-165 1503.5,-165 1503.5,-184"/>
<text text-anchor="middle" x="1452.5" y="-172" font-family="Helvetica,sans-Serif" font-size="10.00">compat/compat.h</text>
</a>
</g>
</g>
<!-- Node2&#45;&gt;Node5 -->
<g id="edge4_Node000002_Node000005" class="edge">
<title>Node2&#45;&gt;Node5</title>
<g id="a_edge4_Node000002_Node000005"><a xlink:title=" ">
<path fill="none" stroke="#63b8ff" d="M2093.35,-226.42C1996.31,-218.71 1655.13,-191.6 1514.16,-180.4"/>
<polygon fill="#63b8ff" stroke="#63b8ff" points="1514.2,-176.89 1503.96,-179.59 1513.65,-183.87 1514.2,-176.89"/>
</a>
</g>
</g>
<!-- Node6 -->
<g id="Node000006" class="node">
<title>Node6</title>
<g id="a_Node000006"><a xlink:href="osdetect_8h.html" target="_top" xlink:title=" ">
<polygon fill="white" stroke="#666666" points="1379,-129 1272,-129 1272,-110 1379,-110 1379,-129"/>
<text text-anchor="middle" x="1325.5" y="-117" font-family="Helvetica,sans-Serif" font-size="10.00">compat/osdetect.h</text>
</a>
</g>
</g>
<!-- Node5&#45;&gt;Node6 -->
<g id="edge5_Node000005_Node000006" class="edge">
<title>Node5&#45;&gt;Node6</title>
<g id="a_edge5_Node000005_Node000006"><a xlink:title=" ">
<path fill="none" stroke="#63b8ff" d="M1432.1,-164.98C1411.48,-156.38 1379.39,-142.99 1355.81,-133.15"/>
<polygon fill="#63b8ff" stroke="#63b8ff" points="1356.85,-129.79 1346.28,-129.17 1354.16,-136.25 1356.85,-129.79"/>
</a>
</g>
</g>
<!-- Node7 -->
<g id="Node000007" class="node">
<title>Node7</title>
<g id="a_Node000007"><a xlink:href="fdsetsize_8h.html" target="_top" xlink:title=" ">
<polygon fill="white" stroke="#666666" points="1507.5,-129 1397.5,-129 1397.5,-110 1507.5,-110 1507.5,-129"/>
<text text-anchor="middle" x="1452.5" y="-117" font-family="Helvetica,sans-Serif" font-size="10.00">compat/fdsetsize.h</text>
</a>
</g>
</g>
<!-- Node5&#45;&gt;Node7 -->
<g id="edge6_Node000005_Node000007" class="edge">
<title>Node5&#45;&gt;Node7</title>
<g id="a_edge6_Node000005_Node000007"><a xlink:title=" ">
<path fill="none" stroke="#63b8ff" d="M1452.5,-164.75C1452.5,-157.8 1452.5,-147.85 1452.5,-139.13"/>
<polygon fill="#63b8ff" stroke="#63b8ff" points="1456,-139.09 1452.5,-129.09 1449,-139.09 1456,-139.09"/>
</a>
</g>
</g>
<!-- Node8 -->
<g id="Node000008" class="node">
<title>Node8</title>
<g id="a_Node000008"><a xlink:href="types_8h.html" target="_top" xlink:title=" ">
<polygon fill="#fff0f0" stroke="red" points="1617.5,-129 1525.5,-129 1525.5,-110 1617.5,-110 1617.5,-129"/>
<text text-anchor="middle" x="1571.5" y="-117" font-family="Helvetica,sans-Serif" font-size="10.00">compat/types.h</text>
</a>
</g>
</g>
<!-- Node5&#45;&gt;Node8 -->
<g id="edge7_Node000005_Node000008" class="edge">
<title>Node5&#45;&gt;Node8</title>
<g id="a_edge7_Node000005_Node000008"><a xlink:title=" ">
<path fill="none" stroke="#63b8ff" d="M1471.62,-164.98C1490.85,-156.42 1520.73,-143.11 1542.81,-133.28"/>
<polygon fill="#63b8ff" stroke="#63b8ff" points="1544.32,-136.44 1552.03,-129.17 1541.47,-130.04 1544.32,-136.44"/>
</a>
</g>
</g>
<!-- Node10 -->
<g id="Node000010" class="node">
<title>Node10</title>
<g id="a_Node000010"><a xlink:href="aix_8h.html" target="_top" xlink:title=" ">
<polygon fill="white" stroke="#666666" points="1731,-129 1636,-129 1636,-110 1731,-110 1731,-129"/>
<text text-anchor="middle" x="1683.5" y="-117" font-family="Helvetica,sans-Serif" font-size="10.00">compat/os/aix.h</text>
</a>
</g>
</g>
<!-- Node5&#45;&gt;Node10 -->
<g id="edge8_Node000005_Node000010" class="edge">
<title>Node5&#45;&gt;Node10</title>
<g id="a_edge8_Node000005_Node000010"><a xlink:title=" ">
<path fill="none" stroke="#63b8ff" d="M1489.61,-164.98C1529.49,-155.84 1592.96,-141.27 1636.34,-131.32"/>
<polygon fill="#63b8ff" stroke="#63b8ff" points="1637.13,-134.73 1646.09,-129.08 1635.57,-127.91 1637.13,-134.73"/>
</a>
</g>
</g>
<!-- Node11 -->
<g id="Node000011" class="node">
<title>Node11</title>
<g id="a_Node000011"><a xlink:href="android_8h.html" target="_top" xlink:title=" ">
<polygon fill="white" stroke="#666666" points="1865.5,-129 1749.5,-129 1749.5,-110 1865.5,-110 1865.5,-129"/>
<text text-anchor="middle" x="1807.5" y="-117" font-family="Helvetica,sans-Serif" font-size="10.00">compat/os/android.h</text>
</a>
</g>
</g>
<!-- Node5&#45;&gt;Node11 -->
<g id="edge9_Node000005_Node000011" class="edge">
<title>Node5&#45;&gt;Node11</title>
<g id="a_edge9_Node000005_Node000011"><a xlink:title=" ">
<path fill="none" stroke="#63b8ff" d="M1503.74,-165.85C1566.02,-156.55 1671.3,-140.83 1740.1,-130.56"/>
<polygon fill="#63b8ff" stroke="#63b8ff" points="1741.02,-133.96 1750.39,-129.03 1739.99,-127.04 1741.02,-133.96"/>
</a>
</g>
</g>
<!-- Node12 -->
<g id="Node000012" class="node">
<title>Node12</title>
<g id="a_Node000012"><a xlink:href="dragonfly_8h.html" target="_top" xlink:title=" ">
<polygon fill="white" stroke="#666666" points="2007.5,-129 1883.5,-129 1883.5,-110 2007.5,-110 2007.5,-129"/>
<text text-anchor="middle" x="1945.5" y="-117" font-family="Helvetica,sans-Serif" font-size="10.00">compat/os/dragonfly.h</text>
</a>
</g>
</g>
<!-- Node5&#45;&gt;Node12 -->
<g id="edge10_Node000005_Node000012" class="edge">
<title>Node5&#45;&gt;Node12</title>
<g id="a_edge10_Node000005_Node000012"><a xlink:title=" ">
<path fill="none" stroke="#63b8ff" d="M1503.52,-168.35C1581.02,-160.49 1733.36,-144.82 1873.13,-129.14"/>
<polygon fill="#63b8ff" stroke="#63b8ff" points="1873.62,-132.61 1883.17,-128.01 1872.84,-125.65 1873.62,-132.61"/>
</a>
</g>
</g>
<!-- Node13 -->
<g id="Node000013" class="node">
<title>Node13</title>
<g id="a_Node000013"><a xlink:href="freebsd_8h.html" target="_top" xlink:title=" ">
<polygon fill="white" stroke="#666666" points="2141.5,-129 2025.5,-129 2025.5,-110 2141.5,-110 2141.5,-129"/>
<text text-anchor="middle" x="2083.5" y="-117" font-family="Helvetica,sans-Serif" font-size="10.00">compat/os/freebsd.h</text>
</a>
</g>
</g>
<!-- Node5&#45;&gt;Node13 -->
<g id="edge11_Node000005_Node000013" class="edge">
<title>Node5&#45;&gt;Node13</title>
<g id="a_edge11_Node000005_Node000013"><a xlink:title=" ">
<path fill="none" stroke="#63b8ff" d="M1503.51,-170.29C1600.85,-163.99 1820.03,-148.94 2015.25,-129.08"/>
<polygon fill="#63b8ff" stroke="#63b8ff" points="2015.82,-132.54 2025.41,-128.04 2015.11,-125.58 2015.82,-132.54"/>
</a>
</g>
</g>
<!-- Node14 -->
<g id="Node000014" class="node">
<title>Node14</title>
<g id="a_Node000014"><a xlink:href="hpux_8h.html" target="_top" xlink:title=" ">
<polygon fill="white" stroke="#666666" points="2263.5,-129 2159.5,-129 2159.5,-110 2263.5,-110 2263.5,-129"/>
<text text-anchor="middle" x="2211.5" y="-117" font-family="Helvetica,sans-Serif" font-size="10.00">compat/os/hpux.h</text>
</a>
</g>
</g>
<!-- Node5&#45;&gt;Node14 -->
<g id="edge12_Node000005_Node000014" class="edge">
<title>Node5&#45;&gt;Node14</title>
<g id="a_edge12_Node000005_Node000014"><a xlink:title=" ">
<path fill="none" stroke="#63b8ff" d="M1503.84,-171.54C1617.91,-166.91 1901.3,-153.83 2149.01,-129.07"/>
<polygon fill="#63b8ff" stroke="#63b8ff" points="2149.69,-132.52 2159.29,-128.04 2148.99,-125.56 2149.69,-132.52"/>
</a>
</g>
</g>
<!-- Node15 -->
<g id="Node000015" class="node">
<title>Node15</title>
<g id="a_Node000015"><a xlink:href="linux_8h.html" target="_top" xlink:title=" ">
<polygon fill="white" stroke="#666666" points="2385.5,-129 2281.5,-129 2281.5,-110 2385.5,-110 2385.5,-129"/>
<text text-anchor="middle" x="2333.5" y="-117" font-family="Helvetica,sans-Serif" font-size="10.00">compat/os/linux.h</text>
</a>
</g>
</g>
<!-- Node5&#45;&gt;Node15 -->
<g id="edge13_Node000005_Node000015" class="edge">
<title>Node5&#45;&gt;Node15</title>
<g id="a_edge13_Node000005_Node000015"><a xlink:title=" ">
<path fill="none" stroke="#63b8ff" d="M1503.94,-172.21C1631.88,-168.69 1974.83,-157.27 2271.21,-129.04"/>
<polygon fill="#63b8ff" stroke="#63b8ff" points="2271.67,-132.51 2281.29,-128.07 2271,-125.54 2271.67,-132.51"/>
</a>
</g>
</g>
<!-- Node16 -->
<g id="Node000016" class="node">
<title>Node16</title>
<g id="a_Node000016"><a xlink:href="macosx_8h.html" target="_top" xlink:title=" ">
<polygon fill="white" stroke="#666666" points="2521.5,-129 2403.5,-129 2403.5,-110 2521.5,-110 2521.5,-129"/>
<text text-anchor="middle" x="2462.5" y="-117" font-family="Helvetica,sans-Serif" font-size="10.00">compat/os/macosx.h</text>
</a>
</g>
</g>
<!-- Node5&#45;&gt;Node16 -->
<g id="edge14_Node000005_Node000016" class="edge">
<title>Node5&#45;&gt;Node16</title>
<g id="a_edge14_Node000005_Node000016"><a xlink:title=" ">
<path fill="none" stroke="#63b8ff" d="M1503.65,-172.47C1644.01,-169.35 2047.23,-158.39 2392.98,-129.06"/>
<polygon fill="#63b8ff" stroke="#63b8ff" points="2393.52,-132.53 2403.19,-128.19 2392.93,-125.55 2393.52,-132.53"/>
</a>
</g>
</g>
<!-- Node17 -->
<g id="Node000017" class="node">
<title>Node17</title>
<g id="a_Node000017"><a xlink:href="mingw_8h.html" target="_top" xlink:title=" ">
<polygon fill="white" stroke="#666666" points="2651.5,-129 2539.5,-129 2539.5,-110 2651.5,-110 2651.5,-129"/>
<text text-anchor="middle" x="2595.5" y="-117" font-family="Helvetica,sans-Serif" font-size="10.00">compat/os/mingw.h</text>
</a>
</g>
</g>
<!-- Node5&#45;&gt;Node17 -->
<g id="edge15_Node000005_Node000017" class="edge">
<title>Node5&#45;&gt;Node17</title>
<g id="a_edge15_Node000005_Node000017"><a xlink:title=" ">
<path fill="none" stroke="#63b8ff" d="M1503.66,-173C1657.32,-171.15 2128.35,-162.98 2529.11,-129.04"/>
<polygon fill="#63b8ff" stroke="#63b8ff" points="2529.5,-132.52 2539.16,-128.18 2528.9,-125.54 2529.5,-132.52"/>
</a>
</g>
</g>
<!-- Node18 -->
<g id="Node000018" class="node">
<title>Node18</title>
<g id="a_Node000018"><a xlink:href="mswindows_8h.html" target="_top" xlink:title=" ">
<polygon fill="white" stroke="#666666" points="2807,-129 2670,-129 2670,-110 2807,-110 2807,-129"/>
<text text-anchor="middle" x="2738.5" y="-117" font-family="Helvetica,sans-Serif" font-size="10.00">compat/os/mswindows.h</text>
</a>
</g>
</g>
<!-- Node5&#45;&gt;Node18 -->
<g id="edge16_Node000005_Node000018" class="edge">
<title>Node5&#45;&gt;Node18</title>
<g id="a_edge16_Node000005_Node000018"><a xlink:title=" ">
<path fill="none" stroke="#63b8ff" d="M1503.79,-172.93C1669.43,-170.79 2205.17,-161.71 2659.58,-129"/>
<polygon fill="#63b8ff" stroke="#63b8ff" points="2659.9,-132.49 2669.62,-128.28 2659.39,-125.51 2659.9,-132.49"/>
</a>
</g>
</g>
<!-- Node19 -->
<g id="Node000019" class="node">
<title>Node19</title>
<g id="a_Node000019"><a xlink:href="netbsd_8h.html" target="_top" xlink:title=" ">
<polygon fill="white" stroke="#666666" points="113,-129 0,-129 0,-110 113,-110 113,-129"/>
<text text-anchor="middle" x="56.5" y="-117" font-family="Helvetica,sans-Serif" font-size="10.00">compat/os/netbsd.h</text>
</a>
</g>
</g>
<!-- Node5&#45;&gt;Node19 -->
<g id="edge17_Node000005_Node000019" class="edge">
<title>Node5&#45;&gt;Node19</title>
<g id="a_edge17_Node000005_Node000019"><a xlink:title=" ">
<path fill="none" stroke="#63b8ff" d="M1401.32,-173.57C1225.07,-173.42 626.91,-169.79 123.2,-129.06"/>
<polygon fill="#63b8ff" stroke="#63b8ff" points="123.44,-125.56 113.19,-128.24 122.87,-132.54 123.44,-125.56"/>
</a>
</g>
</g>
<!-- Node20 -->
<g id="Node000020" class="node">
<title>Node20</title>
<g id="a_Node000020"><a xlink:href="openbsd_8h.html" target="_top" xlink:title=" ">
<polygon fill="white" stroke="#666666" points="252,-129 131,-129 131,-110 252,-110 252,-129"/>
<text text-anchor="middle" x="191.5" y="-117" font-family="Helvetica,sans-Serif" font-size="10.00">compat/os/openbsd.h</text>
</a>
</g>
</g>
<!-- Node5&#45;&gt;Node20 -->
<g id="edge18_Node000005_Node000020" class="edge">
<title>Node5&#45;&gt;Node20</title>
<g id="a_edge18_Node000005_Node000020"><a xlink:title=" ">
<path fill="none" stroke="#63b8ff" d="M1401.29,-173.15C1237.16,-171.69 709.29,-164.42 262.27,-129.07"/>
<polygon fill="#63b8ff" stroke="#63b8ff" points="262.3,-125.56 252.05,-128.26 261.74,-132.54 262.3,-125.56"/>
</a>
</g>
</g>
<!-- Node21 -->
<g id="Node000021" class="node">
<title>Node21</title>
<g id="a_Node000021"><a xlink:href="os2_8h.html" target="_top" xlink:title=" ">
<polygon fill="white" stroke="#666666" points="367,-129 270,-129 270,-110 367,-110 367,-129"/>
<text text-anchor="middle" x="318.5" y="-117" font-family="Helvetica,sans-Serif" font-size="10.00">compat/os/os2.h</text>
</a>
</g>
</g>
<!-- Node5&#45;&gt;Node21 -->
<g id="edge19_Node000005_Node000021" class="edge">
<title>Node5&#45;&gt;Node21</title>
<g id="a_edge19_Node000005_Node000021"><a xlink:title=" ">
<path fill="none" stroke="#63b8ff" d="M1401.41,-173.27C1247.96,-172.19 777.64,-165.95 377.23,-128.95"/>
<polygon fill="#63b8ff" stroke="#63b8ff" points="377.47,-125.45 367.19,-128.01 376.82,-132.42 377.47,-125.45"/>
</a>
</g>
</g>
<!-- Node22 -->
<g id="Node000022" class="node">
<title>Node22</title>
<g id="a_Node000022"><a xlink:href="qnx_8h.html" target="_top" xlink:title=" ">
<polygon fill="white" stroke="#666666" points="483.5,-129 385.5,-129 385.5,-110 483.5,-110 483.5,-129"/>
<text text-anchor="middle" x="434.5" y="-117" font-family="Helvetica,sans-Serif" font-size="10.00">compat/os/qnx.h</text>
</a>
</g>
</g>
<!-- Node5&#45;&gt;Node22 -->
<g id="edge20_Node000005_Node000022" class="edge">
<title>Node5&#45;&gt;Node22</title>
<g id="a_edge20_Node000005_Node000022"><a xlink:title=" ">
<path fill="none" stroke="#63b8ff" d="M1401.38,-172.91C1259.17,-170.9 846.73,-162.48 493.67,-129"/>
<polygon fill="#63b8ff" stroke="#63b8ff" points="493.79,-125.5 483.51,-128.03 493.13,-132.47 493.79,-125.5"/>
</a>
</g>
</g>
<!-- Node23 -->
<g id="Node000023" class="node">
<title>Node23</title>
<g id="a_Node000023"><a xlink:href="solaris_8h.html" target="_top" xlink:title=" ">
<polygon fill="white" stroke="#666666" points="613.5,-129 501.5,-129 501.5,-110 613.5,-110 613.5,-129"/>
<text text-anchor="middle" x="557.5" y="-117" font-family="Helvetica,sans-Serif" font-size="10.00">compat/os/solaris.h</text>
</a>
</g>
</g>
<!-- Node5&#45;&gt;Node23 -->
<g id="edge21_Node000005_Node000023" class="edge">
<title>Node5&#45;&gt;Node23</title>
<g id="a_edge21_Node000005_Node000023"><a xlink:title=" ">
<path fill="none" stroke="#63b8ff" d="M1401.4,-172.12C1272.7,-168.35 924.65,-156.36 624.06,-129.07"/>
<polygon fill="#63b8ff" stroke="#63b8ff" points="624.12,-125.56 613.84,-128.14 623.48,-132.53 624.12,-125.56"/>
</a>
</g>
</g>
<!-- Node24 -->
<g id="Node000024" class="node">
<title>Node24</title>
<g id="a_Node000024"><a xlink:href="sunos_8h.html" target="_top" xlink:title=" ">
<polygon fill="white" stroke="#666666" points="739.5,-129 631.5,-129 631.5,-110 739.5,-110 739.5,-129"/>
<text text-anchor="middle" x="685.5" y="-117" font-family="Helvetica,sans-Serif" font-size="10.00">compat/os/sunos.h</text>
</a>
</g>
</g>
<!-- Node5&#45;&gt;Node24 -->
<g id="edge22_Node000005_Node000024" class="edge">
<title>Node5&#45;&gt;Node24</title>
<g id="a_edge22_Node000005_Node000024"><a xlink:title=" ">
<path fill="none" stroke="#63b8ff" d="M1401.17,-171.51C1286.36,-166.77 999.93,-153.47 749.77,-129.06"/>
<polygon fill="#63b8ff" stroke="#63b8ff" points="750.06,-125.57 739.77,-128.07 749.38,-132.53 750.06,-125.57"/>
</a>
</g>
</g>
<!-- Node25 -->
<g id="Node000025" class="node">
<title>Node25</title>
<g id="a_Node000025"><a xlink:href="assert_8h.html" target="_top" xlink:title=" ">
<polygon fill="white" stroke="#666666" points="853,-129 758,-129 758,-110 853,-110 853,-129"/>
<text text-anchor="middle" x="805.5" y="-117" font-family="Helvetica,sans-Serif" font-size="10.00">compat/assert.h</text>
</a>
</g>
</g>
<!-- Node5&#45;&gt;Node25 -->
<g id="edge23_Node000005_Node000025" class="edge">
<title>Node5&#45;&gt;Node25</title>
<g id="a_edge23_Node000005_Node000025"><a xlink:title=" ">
<path fill="none" stroke="#63b8ff" d="M1401.48,-170.9C1300.73,-165.51 1068.93,-151.74 863.14,-128.98"/>
<polygon fill="#63b8ff" stroke="#63b8ff" points="863.38,-125.49 853.05,-127.86 862.6,-132.44 863.38,-125.49"/>
</a>
</g>
</g>
<!-- Node26 -->
<g id="Node000026" class="node">
<title>Node26</title>
<g id="a_Node000026"><a xlink:href="compat__shared_8h.html" target="_top" xlink:title=" ">
<polygon fill="#fff0f0" stroke="red" points="1011.5,-129 871.5,-129 871.5,-110 1011.5,-110 1011.5,-129"/>
<text text-anchor="middle" x="941.5" y="-117" font-family="Helvetica,sans-Serif" font-size="10.00">compat/compat_shared.h</text>
</a>
</g>
</g>
<!-- Node5&#45;&gt;Node26 -->
<g id="edge24_Node000005_Node000026" class="edge">
<title>Node5&#45;&gt;Node26</title>
<g id="a_edge24_Node000005_Node000026"><a xlink:title=" ">
<path fill="none" stroke="#63b8ff" d="M1401.29,-168.3C1322.29,-160.26 1165.66,-144.26 1022.03,-129.16"/>
<polygon fill="#63b8ff" stroke="#63b8ff" points="1022.02,-125.64 1011.71,-128.07 1021.29,-132.6 1022.02,-125.64"/>
</a>
</g>
</g>
<!-- Node36 -->
<g id="Node000036" class="node">
<title>Node36</title>
<g id="a_Node000036"><a xlink:href="stdvarargs_8h.html" target="_top" xlink:title=" ">
<polygon fill="#fff0f0" stroke="red" points="1147,-129 1030,-129 1030,-110 1147,-110 1147,-129"/>
<text text-anchor="middle" x="1088.5" y="-117" font-family="Helvetica,sans-Serif" font-size="10.00">compat/stdvarargs.h</text>
</a>
</g>
</g>
<!-- Node5&#45;&gt;Node36 -->
<g id="edge25_Node000005_Node000036" class="edge">
<title>Node5&#45;&gt;Node36</title>
<g id="a_edge25_Node000005_Node000036"><a xlink:title=" ">
<path fill="none" stroke="#63b8ff" d="M1401.12,-166.02C1337.33,-156.73 1228.3,-140.86 1157.33,-130.52"/>
<polygon fill="#63b8ff" stroke="#63b8ff" points="1157.55,-127.02 1147.15,-129.04 1156.54,-133.94 1157.55,-127.02"/>
</a>
</g>
</g>
<!-- Node38 -->
<g id="Node000038" class="node">
<title>Node38</title>
<g id="a_Node000038"><a xlink:href="stdio_8h.html" target="_top" xlink:title=" ">
<polygon fill="#fff0f0" stroke="red" points="1254,-129 1165,-129 1165,-110 1254,-110 1254,-129"/>
<text text-anchor="middle" x="1209.5" y="-117" font-family="Helvetica,sans-Serif" font-size="10.00">compat/stdio.h</text>
</a>
</g>
</g>
<!-- Node5&#45;&gt;Node38 -->
<g id="edge26_Node000005_Node000038" class="edge">
<title>Node5&#45;&gt;Node38</title>
<g id="a_edge26_Node000005_Node000038"><a xlink:title=" ">
<path fill="none" stroke="#63b8ff" d="M1413.46,-164.98C1371.42,-155.82 1304.46,-141.21 1258.82,-131.26"/>
<polygon fill="#63b8ff" stroke="#63b8ff" points="1259.36,-127.79 1248.85,-129.08 1257.87,-134.63 1259.36,-127.79"/>
</a>
</g>
</g>
<!-- Node45 -->
<g id="Node000045" class="node">
<title>Node45</title>
<g id="a_Node000045"><a xlink:href="Assure_8h.html" target="_top" xlink:title=" ">
<polygon fill="white" stroke="#666666" points="2963,-74 2878,-74 2878,-55 2963,-55 2963,-74"/>
<text text-anchor="middle" x="2920.5" y="-62" font-family="Helvetica,sans-Serif" font-size="10.00">base/Assure.h</text>
</a>
</g>
</g>
<!-- Node44&#45;&gt;Node45 -->
<g id="edge28_Node000044_Node000045" class="edge">
<title>Node44&#45;&gt;Node45</title>
<g id="a_edge28_Node000044_Node000045"><a xlink:title=" ">
<path fill="none" stroke="#63b8ff" d="M2891.28,-109.75C2896.12,-102.42 2903.18,-91.73 2909.14,-82.7"/>
<polygon fill="#63b8ff" stroke="#63b8ff" points="2912.24,-84.36 2914.83,-74.09 2906.4,-80.5 2912.24,-84.36"/>
</a>
</g>
</g>
<!-- Node46 -->
<g id="Node000046" class="node">
<title>Node46</title>
<g id="a_Node000046"><a xlink:href="Here_8h.html" target="_top" xlink:title=" ">
<polygon fill="#fff0f0" stroke="red" points="2958,-19 2883,-19 2883,0 2958,0 2958,-19"/>
<text text-anchor="middle" x="2920.5" y="-7" font-family="Helvetica,sans-Serif" font-size="10.00">base/Here.h</text>
</a>
</g>
</g>
<!-- Node44&#45;&gt;Node46 -->
<g id="edge30_Node000044_Node000046" class="edge">
<title>Node44&#45;&gt;Node46</title>
<g id="a_edge30_Node000044_Node000046"><a xlink:title=" ">
<path fill="none" stroke="#63b8ff" d="M2879.62,-109.97C2871.8,-97.47 2859.91,-73.66 2868.5,-55 2874.25,-42.52 2885.41,-32.24 2895.92,-24.71"/>
<polygon fill="#63b8ff" stroke="#63b8ff" points="2898.07,-27.49 2904.47,-19.05 2894.2,-21.65 2898.07,-27.49"/>
</a>
</g>
</g>
<!-- Node48 -->
<g id="Node000048" class="node">
<title>Node48</title>
<g id="a_Node000048"><a xlink:title=" ">
<polygon fill="#e0e0e0" stroke="#999999" points="3046,-74 2981,-74 2981,-55 3046,-55 3046,-74"/>
<text text-anchor="middle" x="3013.5" y="-62" font-family="Helvetica,sans-Serif" font-size="10.00">stdexcept</text>
</a>
</g>
</g>
<!-- Node44&#45;&gt;Node48 -->
<g id="edge31_Node000044_Node000048" class="edge">
<title>Node44&#45;&gt;Node48</title>
<g id="a_edge31_Node000044_Node000048"><a xlink:title=" ">
<path fill="none" stroke="#63b8ff" d="M2906.07,-109.98C2926.93,-101.34 2959.47,-87.87 2983.27,-78.02"/>
<polygon fill="#63b8ff" stroke="#63b8ff" points="2984.66,-81.23 2992.56,-74.17 2981.98,-74.76 2984.66,-81.23"/>
</a>
</g>
</g>
<!-- Node45&#45;&gt;Node46 -->
<g id="edge29_Node000045_Node000046" class="edge">
<title>Node45&#45;&gt;Node46</title>
<g id="a_edge29_Node000045_Node000046"><a xlink:title=" ">
<path fill="none" stroke="#63b8ff" d="M2920.5,-54.75C2920.5,-47.8 2920.5,-37.85 2920.5,-29.13"/>
<polygon fill="#63b8ff" stroke="#63b8ff" points="2924,-29.09 2920.5,-19.09 2917,-29.09 2924,-29.09"/>
</a>
</g>
</g>
<!-- Node49&#45;&gt;Node46 -->
<g id="edge33_Node000049_Node000046" class="edge">
<title>Node49&#45;&gt;Node46</title>
<g id="a_edge33_Node000049_Node000046"><a xlink:title=" ">
<path fill="none" stroke="#63b8ff" d="M3409.7,-164.9C3437.85,-153.6 3478.24,-132.51 3459.5,-110 3397.02,-34.93 3088.2,-16.28 2968.25,-11.83"/>
<polygon fill="#63b8ff" stroke="#63b8ff" points="2968.38,-8.33 2958.26,-11.48 2968.13,-15.33 2968.38,-8.33"/>
</a>
</g>
</g>
<!-- Node50 -->
<g id="Node000050" class="node">
<title>Node50</title>
<g id="a_Node000050"><a xlink:href="AllocatorProxy_8h.html" target="_top" xlink:title=" ">
<polygon fill="white" stroke="#666666" points="3224.5,-129 3100.5,-129 3100.5,-110 3224.5,-110 3224.5,-129"/>
<text text-anchor="middle" x="3162.5" y="-117" font-family="Helvetica,sans-Serif" font-size="10.00">mem/AllocatorProxy.h</text>
</a>
</g>
</g>
<!-- Node49&#45;&gt;Node50 -->
<g id="edge34_Node000049_Node000050" class="edge">
<title>Node49&#45;&gt;Node50</title>
<g id="a_edge34_Node000049_Node000050"><a xlink:title=" ">
<path fill="none" stroke="#63b8ff" d="M3349.67,-164.98C3311.34,-155.87 3250.42,-141.4 3208.55,-131.45"/>
<polygon fill="#63b8ff" stroke="#63b8ff" points="3209.15,-127.99 3198.61,-129.08 3207.53,-134.8 3209.15,-127.99"/>
</a>
</g>
</g>
<!-- Node51 -->
<g id="Node000051" class="node">
<title>Node51</title>
<g id="a_Node000051"><a xlink:title=" ">
<polygon fill="#e0e0e0" stroke="#999999" points="3302.5,-129 3242.5,-129 3242.5,-110 3302.5,-110 3302.5,-129"/>
<text text-anchor="middle" x="3272.5" y="-117" font-family="Helvetica,sans-Serif" font-size="10.00">iostream</text>
</a>
</g>
</g>
<!-- Node49&#45;&gt;Node51 -->
<g id="edge35_Node000049_Node000051" class="edge">
<title>Node49&#45;&gt;Node51</title>
<g id="a_edge35_Node000049_Node000051"><a xlink:title=" ">
<path fill="none" stroke="#63b8ff" d="M3367.34,-164.98C3349.25,-156.5 3321.22,-143.35 3300.31,-133.54"/>
<polygon fill="#63b8ff" stroke="#63b8ff" points="3301.53,-130.25 3290.99,-129.17 3298.55,-136.59 3301.53,-130.25"/>
</a>
</g>
</g>
<!-- Node52 -->
<g id="Node000052" class="node">
<title>Node52</title>
<g id="a_Node000052"><a xlink:title=" ">
<polygon fill="#e0e0e0" stroke="#999999" points="3376.5,-129 3320.5,-129 3320.5,-110 3376.5,-110 3376.5,-129"/>
<text text-anchor="middle" x="3348.5" y="-117" font-family="Helvetica,sans-Serif" font-size="10.00">sstream</text>
</a>
</g>
</g>
<!-- Node49&#45;&gt;Node52 -->
<g id="edge36_Node000049_Node000052" class="edge">
<title>Node49&#45;&gt;Node52</title>
<g id="a_edge36_Node000049_Node000052"><a xlink:title=" ">
<path fill="none" stroke="#63b8ff" d="M3379.39,-164.75C3374.22,-157.34 3366.65,-146.5 3360.31,-137.41"/>
<polygon fill="#63b8ff" stroke="#63b8ff" points="3363.09,-135.29 3354.5,-129.09 3357.35,-139.29 3363.09,-135.29"/>
</a>
</g>
</g>
<!-- Node53 -->
<g id="Node000053" class="node">
<title>Node53</title>
<g id="a_Node000053"><a xlink:title=" ">
<polygon fill="#e0e0e0" stroke="#999999" points="3450.5,-129 3394.5,-129 3394.5,-110 3450.5,-110 3450.5,-129"/>
<text text-anchor="middle" x="3422.5" y="-117" font-family="Helvetica,sans-Serif" font-size="10.00">iomanip</text>
</a>
</g>
</g>
<!-- Node49&#45;&gt;Node53 -->
<g id="edge37_Node000049_Node000053" class="edge">
<title>Node49&#45;&gt;Node53</title>
<g id="a_edge37_Node000049_Node000053"><a xlink:title=" ">
<path fill="none" stroke="#63b8ff" d="M3391.61,-164.75C3396.78,-157.34 3404.35,-146.5 3410.69,-137.41"/>
<polygon fill="#63b8ff" stroke="#63b8ff" points="3413.65,-139.29 3416.5,-129.09 3407.91,-135.29 3413.65,-139.29"/>
</a>
</g>
</g>
<!-- Node55 -->
<g id="Node000055" class="node">
<title>Node55</title>
<g id="a_Node000055"><a xlink:href="CacheDigest_8h.html" target="_top" xlink:title=" ">
<polygon fill="#fff0f0" stroke="red" points="3763,-184 3676,-184 3676,-165 3763,-165 3763,-184"/>
<text text-anchor="middle" x="3719.5" y="-172" font-family="Helvetica,sans-Serif" font-size="10.00">CacheDigest.h</text>
</a>
</g>
</g>
<!-- Node54&#45;&gt;Node55 -->
<g id="edge39_Node000054_Node000055" class="edge">
<title>Node54&#45;&gt;Node55</title>
<g id="a_edge39_Node000054_Node000055"><a xlink:title=" ">
<path fill="none" stroke="#63b8ff" d="M3575.13,-219.98C3604.01,-211.09 3649.51,-197.07 3681.7,-187.15"/>
<polygon fill="#63b8ff" stroke="#63b8ff" points="3683.12,-190.37 3691.65,-184.08 3681.06,-183.68 3683.12,-190.37"/>
</a>
</g>
</g>
<!-- Node69 -->
<g id="Node000069" class="node">
<title>Node69</title>
<g id="a_Node000069"><a xlink:href="defines_8h.html" target="_top" xlink:title=" ">
<polygon fill="white" stroke="#666666" points="3842,-184 3781,-184 3781,-165 3842,-165 3842,-184"/>
<text text-anchor="middle" x="3811.5" y="-172" font-family="Helvetica,sans-Serif" font-size="10.00">defines.h</text>
</a>
</g>
</g>
<!-- Node54&#45;&gt;Node69 -->
<g id="edge40_Node000054_Node000069" class="edge">
<title>Node54&#45;&gt;Node69</title>
<g id="a_edge40_Node000054_Node000069"><a xlink:title=" ">
<path fill="none" stroke="#63b8ff" d="M3578.06,-221.95C3581.25,-221.28 3584.44,-220.62 3587.5,-220 3666.46,-203.93 3688.78,-201.12 3770.82,-184.31"/>
<polygon fill="#63b8ff" stroke="#63b8ff" points="3771.77,-187.69 3780.86,-182.25 3770.36,-180.83 3771.77,-187.69"/>
</a>
</g>
</g>
<!-- Node58 -->
<g id="Node000058" class="node">
<title>Node58</title>
<g id="a_Node000058"><a xlink:href="hash_8h.html" target="_top" xlink:title=" ">
<polygon fill="white" stroke="#666666" points="3500,-184 3451,-184 3451,-165 3500,-165 3500,-184"/>
<text text-anchor="middle" x="3475.5" y="-172" font-family="Helvetica,sans-Serif" font-size="10.00">hash.h</text>
</a>
</g>
</g>
<!-- Node54&#45;&gt;Node58 -->
<g id="edge41_Node000054_Node000058" class="edge">
<title>Node54&#45;&gt;Node58</title>
<g id="a_edge41_Node000054_Node000058"><a xlink:title=" ">
<path fill="none" stroke="#63b8ff" d="M3535.93,-219.98C3525.08,-212 3508.62,-199.88 3495.62,-190.31"/>
<polygon fill="#63b8ff" stroke="#63b8ff" points="3497.41,-187.28 3487.28,-184.17 3493.26,-192.92 3497.41,-187.28"/>
</a>
</g>
</g>
<!-- Node70 -->
<g id="Node000070" class="node">
<title>Node70</title>
<g id="a_Node000070"><a xlink:href="IoStats_8h.html" target="_top" xlink:title=" ">
<polygon fill="white" stroke="#666666" points="3577,-184 3518,-184 3518,-165 3577,-165 3577,-184"/>
<text text-anchor="middle" x="3547.5" y="-172" font-family="Helvetica,sans-Serif" font-size="10.00">IoStats.h</text>
</a>
</g>
</g>
<!-- Node54&#45;&gt;Node70 -->
<g id="edge42_Node000054_Node000070" class="edge">
<title>Node54&#45;&gt;Node70</title>
<g id="a_edge42_Node000054_Node000070"><a xlink:title=" ">
<path fill="none" stroke="#63b8ff" d="M3547.5,-219.75C3547.5,-212.8 3547.5,-202.85 3547.5,-194.13"/>
<polygon fill="#63b8ff" stroke="#63b8ff" points="3551,-194.09 3547.5,-184.09 3544,-194.09 3551,-194.09"/>
</a>
</g>
</g>
<!-- Node71 -->
<g id="Node000071" class="node">
<title>Node71</title>
<g id="a_Node000071"><a xlink:href="rfc2181_8h.html" target="_top" xlink:title=" ">
<polygon fill="white" stroke="#666666" points="3657.5,-184 3595.5,-184 3595.5,-165 3657.5,-165 3657.5,-184"/>
<text text-anchor="middle" x="3626.5" y="-172" font-family="Helvetica,sans-Serif" font-size="10.00">rfc2181.h</text>
</a>
</g>
</g>
<!-- Node54&#45;&gt;Node71 -->
<g id="edge43_Node000054_Node000071" class="edge">
<title>Node54&#45;&gt;Node71</title>
<g id="a_edge43_Node000054_Node000071"><a xlink:title=" ">
<path fill="none" stroke="#63b8ff" d="M3560.19,-219.98C3572.33,-211.84 3590.86,-199.41 3605.25,-189.76"/>
<polygon fill="#63b8ff" stroke="#63b8ff" points="3607.22,-192.65 3613.58,-184.17 3603.32,-186.84 3607.22,-192.65"/>
</a>
</g>
</g>
<!-- Node72&#45;&gt;Node49 -->
<g id="edge46_Node000072_Node000049" class="edge">
<title>Node72&#45;&gt;Node49</title>
<g id="a_edge46_Node000072_Node000049"><a xlink:title=" ">
<path fill="none" stroke="#63b8ff" d="M3173.51,-220.62C3216.51,-211.47 3287.67,-196.32 3335.55,-186.13"/>
<polygon fill="#63b8ff" stroke="#63b8ff" points="3336.34,-189.54 3345.4,-184.04 3334.89,-182.69 3336.34,-189.54"/>
</a>
</g>
</g>
<!-- Node73 -->
<g id="Node000073" class="node">
<title>Node73</title>
<g id="a_Node000073"><a xlink:href="InstanceId_8h.html" target="_top" xlink:title=" ">
<polygon fill="#fff0f0" stroke="red" points="3320.5,-184 3218.5,-184 3218.5,-165 3320.5,-165 3320.5,-184"/>
<text text-anchor="middle" x="3269.5" y="-172" font-family="Helvetica,sans-Serif" font-size="10.00">base/InstanceId.h</text>
</a>
</g>
</g>
<!-- Node72&#45;&gt;Node73 -->
<g id="edge45_Node000072_Node000073" class="edge">
<title>Node72&#45;&gt;Node73</title>
<g id="a_edge45_Node000072_Node000073"><a xlink:title=" ">
<path fill="none" stroke="#63b8ff" d="M3157.87,-219.98C3179.65,-211.3 3213.66,-197.75 3238.42,-187.88"/>
<polygon fill="#63b8ff" stroke="#63b8ff" points="3239.75,-191.12 3247.74,-184.17 3237.16,-184.62 3239.75,-191.12"/>
</a>
</g>
</g>
<!-- Node74 -->
<g id="Node000074" class="node">
<title>Node74</title>
<g id="a_Node000074"><a xlink:href="FlexibleArray_8h.html" target="_top" xlink:title=" ">
<polygon fill="#fff0f0" stroke="red" points="2991,-184 2856,-184 2856,-165 2991,-165 2991,-184"/>
<text text-anchor="middle" x="2923.5" y="-172" font-family="Helvetica,sans-Serif" font-size="10.00">ipc/mem/FlexibleArray.h</text>
</a>
</g>
</g>
<!-- Node72&#45;&gt;Node74 -->
<g id="edge47_Node000072_Node000074" class="edge">
<title>Node72&#45;&gt;Node74</title>
<g id="a_edge47_Node000072_Node000074"><a xlink:title=" ">
<path fill="none" stroke="#63b8ff" d="M3102.28,-219.98C3065.74,-210.89 3007.72,-196.46 2967.74,-186.51"/>
<polygon fill="#63b8ff" stroke="#63b8ff" points="2968.54,-183.1 2957.99,-184.08 2966.85,-189.89 2968.54,-183.1"/>
</a>
</g>
</g>
<!-- Node77 -->
<g id="Node000077" class="node">
<title>Node77</title>
<g id="a_Node000077"><a xlink:href="Pointer_8h.html" target="_top" xlink:title=" ">
<polygon fill="#fff0f0" stroke="red" points="2838,-184 2733,-184 2733,-165 2838,-165 2838,-184"/>
<text text-anchor="middle" x="2785.5" y="-172" font-family="Helvetica,sans-Serif" font-size="10.00">ipc/mem/Pointer.h</text>
</a>
</g>
</g>
<!-- Node72&#45;&gt;Node77 -->
<g id="edge48_Node000072_Node000077" class="edge">
<title>Node72&#45;&gt;Node77</title>
<g id="a_edge48_Node000072_Node000077"><a xlink:title=" ">
<path fill="none" stroke="#63b8ff" d="M3099.27,-222.88C3039.45,-213.85 2921.26,-196 2848.24,-184.97"/>
<polygon fill="#63b8ff" stroke="#63b8ff" points="2848.66,-181.5 2838.25,-183.46 2847.61,-188.42 2848.66,-181.5"/>
</a>
</g>
</g>
<!-- Node82 -->
<g id="Node000082" class="node">
<title>Node82</title>
<g id="a_Node000082"><a xlink:href="util_8h.html" target="_top" xlink:title=" ">
<polygon fill="white" stroke="#666666" points="3050,-184 3009,-184 3009,-165 3050,-165 3050,-184"/>
<text text-anchor="middle" x="3029.5" y="-172" font-family="Helvetica,sans-Serif" font-size="10.00">util.h</text>
</a>
</g>
</g>
<!-- Node72&#45;&gt;Node82 -->
<g id="edge50_Node000072_Node000082" class="edge">
<title>Node72&#45;&gt;Node82</title>
<g id="a_edge50_Node000072_Node000082"><a xlink:title=" ">
<path fill="none" stroke="#63b8ff" d="M3119.31,-219.98C3102.25,-211.54 3075.87,-198.47 3056.1,-188.68"/>
<polygon fill="#63b8ff" stroke="#63b8ff" points="3057.52,-185.47 3047,-184.17 3054.41,-191.75 3057.52,-185.47"/>
</a>
</g>
</g>
<!-- Node83 -->
<g id="Node000083" class="node">
<title>Node83</title>
<g id="a_Node000083"><a xlink:title=" ">
<polygon fill="#e0e0e0" stroke="#999999" points="3132.5,-184 3068.5,-184 3068.5,-165 3132.5,-165 3132.5,-184"/>
<text text-anchor="middle" x="3100.5" y="-172" font-family="Helvetica,sans-Serif" font-size="10.00">algorithm</text>
</a>
</g>
</g>
<!-- Node72&#45;&gt;Node83 -->
<g id="edge51_Node000072_Node000083" class="edge">
<title>Node72&#45;&gt;Node83</title>
<g id="a_edge51_Node000072_Node000083"><a xlink:title=" ">
<path fill="none" stroke="#63b8ff" d="M3130.56,-219.75C3125.52,-212.34 3118.16,-201.5 3111.99,-192.41"/>
<polygon fill="#63b8ff" stroke="#63b8ff" points="3114.85,-190.39 3106.33,-184.09 3109.06,-194.33 3114.85,-190.39"/>
</a>
</g>
</g>
<!-- Node84 -->
<g id="Node000084" class="node">
<title>Node84</title>
<g id="a_Node000084"><a xlink:title=" ">
<polygon fill="#e0e0e0" stroke="#999999" points="3200.5,-184 3150.5,-184 3150.5,-165 3200.5,-165 3200.5,-184"/>
<text text-anchor="middle" x="3175.5" y="-172" font-family="Helvetica,sans-Serif" font-size="10.00">atomic</text>
</a>
</g>
</g>
<!-- Node72&#45;&gt;Node84 -->
<g id="edge52_Node000072_Node000084" class="edge">
<title>Node72&#45;&gt;Node84</title>
<g id="a_edge52_Node000072_Node000084"><a xlink:title=" ">
<path fill="none" stroke="#63b8ff" d="M3142.94,-219.75C3148.39,-212.34 3156.36,-201.5 3163.06,-192.41"/>
<polygon fill="#63b8ff" stroke="#63b8ff" points="3166.07,-194.22 3169.18,-184.09 3160.43,-190.07 3166.07,-194.22"/>
</a>
</g>
</g>
<!-- Node77&#45;&gt;Node44 -->
<g id="edge49_Node000077_Node000044" class="edge">
<title>Node77&#45;&gt;Node44</title>
<g id="a_edge49_Node000077_Node000044"><a xlink:title=" ">
<path fill="none" stroke="#63b8ff" d="M2801.57,-164.98C2817.36,-156.61 2841.72,-143.7 2860.13,-133.95"/>
<polygon fill="#63b8ff" stroke="#63b8ff" points="2861.94,-136.95 2869.14,-129.17 2858.67,-130.76 2861.94,-136.95"/>
</a>
</g>
</g>
</g>
</svg>
