<?xml version="1.0" encoding="UTF-8" standalone="no"?>
<!DOCTYPE svg PUBLIC "-//W3C//DTD SVG 1.1//EN"
 "http://www.w3.org/Graphics/SVG/1.1/DTD/svg11.dtd">
<!-- Generated by graphviz version 2.43.0 (0)
 -->
<!-- Title: squid/src/base/Raw.cc Pages: 1 -->
<!--zoomable 247 -->

<svg id="main" version="1.1" xmlns="http://www.w3.org/2000/svg" xmlns:xlink="http://www.w3.org/1999/xlink" xml:space="preserve" onload="init(evt)">
<style type="text/css"><![CDATA[
.node, .edge {opacity: 0.7;}
.node.selected, .edge.selected {opacity: 1;}
.edge:hover path { stroke: red; }
.edge:hover polygon { stroke: red; fill: red; }
]]></style>

<defs>
  <circle id="rim" cx="0" cy="0" r="7"/>
  <circle id="rim2" cx="0" cy="0" r="3.5"/>
  <g id="zoomPlus">
    <use xlink:href="#rim" fill="#404040"><set attributeName="fill" to="#808080" begin="zoomplus.mouseover" end="zoomplus.mouseout"/></use>
    <path d="M-4,0h8M0,-4v8" fill="none" stroke="white" stroke-width="1.5" pointer-events="none"/>
  </g>
  <g id="zoomMin">
    <use xlink:href="#rim" fill="#404040"><set attributeName="fill" to="#808080" begin="zoomminus.mouseover" end="zoomminus.mouseout"/></use>
    <path d="M-4,0h8" fill="none" stroke="white" stroke-width="1.5" pointer-events="none"/>
  </g>
  <g id="arrowUp" transform="translate(30 24)">
    <use xlink:href="#rim"/>
    <path pointer-events="none" fill="none" stroke="white" stroke-width="1.5" d="M0,-3.0v7 M-2.5,-0.5L0,-3.0L2.5,-0.5"/>
  </g>
  <g id="arrowRight" transform="rotate(90) translate(36 -43)">
    <use xlink:href="#rim"/>
    <path pointer-events="none" fill="none" stroke="white" stroke-width="1.5" d="M0,-3.0v7 M-2.5,-0.5L0,-3.0L2.5,-0.5"/>
  </g>
  <g id="arrowDown" transform="rotate(180) translate(-30 -48)">
    <use xlink:href="#rim"/>
    <path pointer-events="none" fill="none" stroke="white" stroke-width="1.5" d="M0,-3.0v7 M-2.5,-0.5L0,-3.0L2.5,-0.5"/>
  </g>
  <g id="arrowLeft" transform="rotate(270) translate(-36 17)">
    <use xlink:href="#rim"/>
    <path pointer-events="none" fill="none" stroke="white" stroke-width="1.5" d="M0,-3.0v7 M-2.5,-0.5L0,-3.0L2.5,-0.5"/>
  </g>
  <g id="resetDef">
    <use xlink:href="#rim2" fill="#404040"><set attributeName="fill" to="#808080" begin="reset.mouseover" end="reset.mouseout"/></use>
  </g>
</defs>
<script type="application/ecmascript">
var viewWidth = 3939;
var viewHeight = 247;
var sectionId = 'dynsection-0';
</script>
<script type="application/ecmascript" xlink:href="svg.min.js"/>
<svg id="graph" class="graph">
<g id="viewport">
<title>squid/src/base/Raw.cc</title>
<!-- Node1 -->
<g id="Node000001" class="node">
<title>Node1</title>
<g id="a_Node000001"><a xlink:title=" ">
<polygon fill="#999999" stroke="#666666" points="3582,-239 3459,-239 3459,-220 3582,-220 3582,-239"/>
<text text-anchor="middle" x="3520.5" y="-227" font-family="Helvetica,sans-Serif" font-size="10.00">squid/src/base/Raw.cc</text>
</a>
</g>
</g>
<!-- Node2 -->
<g id="Node000002" class="node">
<title>Node2</title>
<g id="a_Node000002"><a xlink:href="squid_8h.html" target="_top" xlink:title=" ">
<polygon fill="white" stroke="#666666" points="1857.5,-184 1805.5,-184 1805.5,-165 1857.5,-165 1857.5,-184"/>
<text text-anchor="middle" x="1831.5" y="-172" font-family="Helvetica,sans-Serif" font-size="10.00">squid.h</text>
</a>
</g>
</g>
<!-- Node1&#45;&gt;Node2 -->
<g id="edge1_Node000001_Node000002" class="edge">
<title>Node1&#45;&gt;Node2</title>
<g id="a_edge1_Node000001_Node000002"><a xlink:title=" ">
<path fill="none" stroke="#63b8ff" d="M3458.89,-226.57C3184.97,-217.97 2081.7,-183.35 1867.6,-176.63"/>
<polygon fill="#63b8ff" stroke="#63b8ff" points="1867.63,-173.13 1857.52,-176.32 1867.41,-180.13 1867.63,-173.13"/>
</a>
</g>
</g>
<!-- Node44 -->
<g id="Node000044" class="node">
<title>Node44</title>
<g id="a_Node000044"><a xlink:href="IoManip_8h.html" target="_top" xlink:title=" ">
<polygon fill="white" stroke="#666666" points="3679,-184 3588,-184 3588,-165 3679,-165 3679,-184"/>
<text text-anchor="middle" x="3633.5" y="-172" font-family="Helvetica,sans-Serif" font-size="10.00">base/IoManip.h</text>
</a>
</g>
</g>
<!-- Node1&#45;&gt;Node44 -->
<g id="edge40_Node000001_Node000044" class="edge">
<title>Node1&#45;&gt;Node44</title>
<g id="a_edge40_Node000001_Node000044"><a xlink:title=" ">
<path fill="none" stroke="#63b8ff" d="M3538.66,-219.98C3556.75,-211.5 3584.78,-198.35 3605.69,-188.54"/>
<polygon fill="#63b8ff" stroke="#63b8ff" points="3607.45,-191.59 3615.01,-184.17 3604.47,-185.25 3607.45,-191.59"/>
</a>
</g>
</g>
<!-- Node45 -->
<g id="Node000045" class="node">
<title>Node45</title>
<g id="a_Node000045"><a xlink:href="debug_2Stream_8h.html" target="_top" xlink:title=" ">
<polygon fill="white" stroke="#666666" points="3680.5,-129 3586.5,-129 3586.5,-110 3680.5,-110 3680.5,-129"/>
<text text-anchor="middle" x="3633.5" y="-117" font-family="Helvetica,sans-Serif" font-size="10.00">debug/Stream.h</text>
</a>
</g>
</g>
<!-- Node1&#45;&gt;Node45 -->
<g id="edge53_Node000001_Node000045" class="edge">
<title>Node1&#45;&gt;Node45</title>
<g id="a_edge53_Node000001_Node000045"><a xlink:title=" ">
<path fill="none" stroke="#63b8ff" d="M3527.63,-219.91C3538.21,-207.33 3558.94,-183.43 3578.5,-165 3589.65,-154.5 3602.98,-143.67 3613.73,-135.33"/>
<polygon fill="#63b8ff" stroke="#63b8ff" points="3615.89,-138.08 3621.7,-129.22 3611.63,-132.52 3615.89,-138.08"/>
</a>
</g>
</g>
<!-- Node49 -->
<g id="Node000049" class="node">
<title>Node49</title>
<g id="a_Node000049"><a xlink:title=" ">
<polygon fill="#e0e0e0" stroke="#999999" points="3547.5,-74 3487.5,-74 3487.5,-55 3547.5,-55 3547.5,-74"/>
<text text-anchor="middle" x="3517.5" y="-62" font-family="Helvetica,sans-Serif" font-size="10.00">iostream</text>
</a>
</g>
</g>
<!-- Node1&#45;&gt;Node49 -->
<g id="edge54_Node000001_Node000049" class="edge">
<title>Node1&#45;&gt;Node49</title>
<g id="a_edge54_Node000001_Node000049"><a xlink:title=" ">
<path fill="none" stroke="#63b8ff" d="M3520.34,-219.74C3519.87,-194.31 3518.5,-120.08 3517.85,-84.69"/>
<polygon fill="#63b8ff" stroke="#63b8ff" points="3521.35,-84.24 3517.66,-74.31 3514.35,-84.37 3521.35,-84.24"/>
</a>
</g>
</g>
<!-- Node53 -->
<g id="Node000053" class="node">
<title>Node53</title>
<g id="a_Node000053"><a xlink:href="Raw_8h.html" target="_top" xlink:title=" ">
<polygon fill="white" stroke="#666666" points="3492.5,-184 3420.5,-184 3420.5,-165 3492.5,-165 3492.5,-184"/>
<text text-anchor="middle" x="3456.5" y="-172" font-family="Helvetica,sans-Serif" font-size="10.00">base/Raw.h</text>
</a>
</g>
</g>
<!-- Node1&#45;&gt;Node53 -->
<g id="edge51_Node000001_Node000053" class="edge">
<title>Node1&#45;&gt;Node53</title>
<g id="a_edge51_Node000001_Node000053"><a xlink:title=" ">
<path fill="none" stroke="#63b8ff" d="M3510.22,-219.98C3500.66,-212.07 3486.22,-200.11 3474.72,-190.58"/>
<polygon fill="#63b8ff" stroke="#63b8ff" points="3476.9,-187.85 3466.97,-184.17 3472.44,-193.24 3476.9,-187.85"/>
</a>
</g>
</g>
<!-- Node3 -->
<g id="Node000003" class="node">
<title>Node3</title>
<g id="a_Node000003"><a xlink:href="autoconf_8h.html" target="_top" xlink:title=" ">
<polygon fill="white" stroke="#666666" points="1732.5,-129 1664.5,-129 1664.5,-110 1732.5,-110 1732.5,-129"/>
<text text-anchor="middle" x="1698.5" y="-117" font-family="Helvetica,sans-Serif" font-size="10.00">autoconf.h</text>
</a>
</g>
</g>
<!-- Node2&#45;&gt;Node3 -->
<g id="edge2_Node000002_Node000003" class="edge">
<title>Node2&#45;&gt;Node3</title>
<g id="a_edge2_Node000002_Node000003"><a xlink:title=" ">
<path fill="none" stroke="#63b8ff" d="M1810.13,-164.98C1788.35,-156.3 1754.34,-142.75 1729.58,-132.88"/>
<polygon fill="#63b8ff" stroke="#63b8ff" points="1730.84,-129.62 1720.26,-129.17 1728.25,-136.12 1730.84,-129.62"/>
</a>
</g>
</g>
<!-- Node4 -->
<g id="Node000004" class="node">
<title>Node4</title>
<g id="a_Node000004"><a xlink:href="version_8h.html" target="_top" xlink:title=" ">
<polygon fill="white" stroke="#666666" points="1812.5,-129 1750.5,-129 1750.5,-110 1812.5,-110 1812.5,-129"/>
<text text-anchor="middle" x="1781.5" y="-117" font-family="Helvetica,sans-Serif" font-size="10.00">version.h</text>
</a>
</g>
</g>
<!-- Node2&#45;&gt;Node4 -->
<g id="edge3_Node000002_Node000004" class="edge">
<title>Node2&#45;&gt;Node4</title>
<g id="a_edge3_Node000002_Node000004"><a xlink:title=" ">
<path fill="none" stroke="#63b8ff" d="M1823.24,-164.75C1816.04,-157.11 1805.39,-145.82 1796.65,-136.56"/>
<polygon fill="#63b8ff" stroke="#63b8ff" points="1799.01,-133.96 1789.6,-129.09 1793.92,-138.76 1799.01,-133.96"/>
</a>
</g>
</g>
<!-- Node5 -->
<g id="Node000005" class="node">
<title>Node5</title>
<g id="a_Node000005"><a xlink:href="compat_8h.html" target="_top" xlink:title=" ">
<polygon fill="white" stroke="#666666" points="1932.5,-129 1830.5,-129 1830.5,-110 1932.5,-110 1932.5,-129"/>
<text text-anchor="middle" x="1881.5" y="-117" font-family="Helvetica,sans-Serif" font-size="10.00">compat/compat.h</text>
</a>
</g>
</g>
<!-- Node2&#45;&gt;Node5 -->
<g id="edge4_Node000002_Node000005" class="edge">
<title>Node2&#45;&gt;Node5</title>
<g id="a_edge4_Node000002_Node000005"><a xlink:title=" ">
<path fill="none" stroke="#63b8ff" d="M1839.76,-164.75C1846.96,-157.11 1857.61,-145.82 1866.35,-136.56"/>
<polygon fill="#63b8ff" stroke="#63b8ff" points="1869.08,-138.76 1873.4,-129.09 1863.99,-133.96 1869.08,-138.76"/>
</a>
</g>
</g>
<!-- Node6 -->
<g id="Node000006" class="node">
<title>Node6</title>
<g id="a_Node000006"><a xlink:href="osdetect_8h.html" target="_top" xlink:title=" ">
<polygon fill="white" stroke="#666666" points="1246,-74 1139,-74 1139,-55 1246,-55 1246,-74"/>
<text text-anchor="middle" x="1192.5" y="-62" font-family="Helvetica,sans-Serif" font-size="10.00">compat/osdetect.h</text>
</a>
</g>
</g>
<!-- Node5&#45;&gt;Node6 -->
<g id="edge5_Node000005_Node000006" class="edge">
<title>Node5&#45;&gt;Node6</title>
<g id="a_edge5_Node000005_Node000006"><a xlink:title=" ">
<path fill="none" stroke="#63b8ff" d="M1830.47,-111C1827.44,-110.64 1824.43,-110.3 1821.5,-110 1574.06,-84.64 1508.07,-98.49 1256.28,-73.99"/>
<polygon fill="#63b8ff" stroke="#63b8ff" points="1256.38,-70.49 1246.09,-72.99 1255.7,-77.45 1256.38,-70.49"/>
</a>
</g>
</g>
<!-- Node7 -->
<g id="Node000007" class="node">
<title>Node7</title>
<g id="a_Node000007"><a xlink:href="fdsetsize_8h.html" target="_top" xlink:title=" ">
<polygon fill="white" stroke="#666666" points="1374.5,-74 1264.5,-74 1264.5,-55 1374.5,-55 1374.5,-74"/>
<text text-anchor="middle" x="1319.5" y="-62" font-family="Helvetica,sans-Serif" font-size="10.00">compat/fdsetsize.h</text>
</a>
</g>
</g>
<!-- Node5&#45;&gt;Node7 -->
<g id="edge6_Node000005_Node000007" class="edge">
<title>Node5&#45;&gt;Node7</title>
<g id="a_edge6_Node000005_Node000007"><a xlink:title=" ">
<path fill="none" stroke="#63b8ff" d="M1830.46,-111.06C1827.43,-110.68 1824.43,-110.33 1821.5,-110 1630.61,-88.65 1579.39,-94.65 1384.63,-74.07"/>
<polygon fill="#63b8ff" stroke="#63b8ff" points="1384.95,-70.58 1374.64,-73 1384.21,-77.54 1384.95,-70.58"/>
</a>
</g>
</g>
<!-- Node8 -->
<g id="Node000008" class="node">
<title>Node8</title>
<g id="a_Node000008"><a xlink:href="types_8h.html" target="_top" xlink:title=" ">
<polygon fill="white" stroke="#666666" points="1484.5,-74 1392.5,-74 1392.5,-55 1484.5,-55 1484.5,-74"/>
<text text-anchor="middle" x="1438.5" y="-62" font-family="Helvetica,sans-Serif" font-size="10.00">compat/types.h</text>
</a>
</g>
</g>
<!-- Node5&#45;&gt;Node8 -->
<g id="edge7_Node000005_Node000008" class="edge">
<title>Node5&#45;&gt;Node8</title>
<g id="a_edge7_Node000005_Node000008"><a xlink:title=" ">
<path fill="none" stroke="#63b8ff" d="M1830.45,-111.16C1827.42,-110.76 1824.42,-110.37 1821.5,-110 1679.26,-92.12 1640.61,-93.15 1494.91,-74.13"/>
<polygon fill="#63b8ff" stroke="#63b8ff" points="1495.06,-70.62 1484.69,-72.79 1494.15,-77.56 1495.06,-70.62"/>
</a>
</g>
</g>
<!-- Node10 -->
<g id="Node000010" class="node">
<title>Node10</title>
<g id="a_Node000010"><a xlink:href="aix_8h.html" target="_top" xlink:title=" ">
<polygon fill="white" stroke="#666666" points="1598,-74 1503,-74 1503,-55 1598,-55 1598,-74"/>
<text text-anchor="middle" x="1550.5" y="-62" font-family="Helvetica,sans-Serif" font-size="10.00">compat/os/aix.h</text>
</a>
</g>
</g>
<!-- Node5&#45;&gt;Node10 -->
<g id="edge9_Node000005_Node000010" class="edge">
<title>Node5&#45;&gt;Node10</title>
<g id="a_edge9_Node000005_Node000010"><a xlink:title=" ">
<path fill="none" stroke="#63b8ff" d="M1830.14,-110.28C1770.11,-100.66 1671.02,-84.8 1608.33,-74.76"/>
<polygon fill="#63b8ff" stroke="#63b8ff" points="1608.64,-71.26 1598.21,-73.14 1607.53,-78.18 1608.64,-71.26"/>
</a>
</g>
</g>
<!-- Node11 -->
<g id="Node000011" class="node">
<title>Node11</title>
<g id="a_Node000011"><a xlink:href="android_8h.html" target="_top" xlink:title=" ">
<polygon fill="white" stroke="#666666" points="1732.5,-74 1616.5,-74 1616.5,-55 1732.5,-55 1732.5,-74"/>
<text text-anchor="middle" x="1674.5" y="-62" font-family="Helvetica,sans-Serif" font-size="10.00">compat/os/android.h</text>
</a>
</g>
</g>
<!-- Node5&#45;&gt;Node11 -->
<g id="edge10_Node000005_Node000011" class="edge">
<title>Node5&#45;&gt;Node11</title>
<g id="a_edge10_Node000005_Node000011"><a xlink:title=" ">
<path fill="none" stroke="#63b8ff" d="M1848.24,-109.98C1812.89,-100.93 1756.83,-86.58 1717.99,-76.64"/>
<polygon fill="#63b8ff" stroke="#63b8ff" points="1718.57,-73.17 1708.02,-74.08 1716.84,-79.95 1718.57,-73.17"/>
</a>
</g>
</g>
<!-- Node12 -->
<g id="Node000012" class="node">
<title>Node12</title>
<g id="a_Node000012"><a xlink:href="dragonfly_8h.html" target="_top" xlink:title=" ">
<polygon fill="white" stroke="#666666" points="1874.5,-74 1750.5,-74 1750.5,-55 1874.5,-55 1874.5,-74"/>
<text text-anchor="middle" x="1812.5" y="-62" font-family="Helvetica,sans-Serif" font-size="10.00">compat/os/dragonfly.h</text>
</a>
</g>
</g>
<!-- Node5&#45;&gt;Node12 -->
<g id="edge11_Node000005_Node000012" class="edge">
<title>Node5&#45;&gt;Node12</title>
<g id="a_edge11_Node000005_Node000012"><a xlink:title=" ">
<path fill="none" stroke="#63b8ff" d="M1870.41,-109.98C1860.01,-102 1844.24,-89.88 1831.78,-80.31"/>
<polygon fill="#63b8ff" stroke="#63b8ff" points="1833.85,-77.49 1823.79,-74.17 1829.59,-83.04 1833.85,-77.49"/>
</a>
</g>
</g>
<!-- Node13 -->
<g id="Node000013" class="node">
<title>Node13</title>
<g id="a_Node000013"><a xlink:href="freebsd_8h.html" target="_top" xlink:title=" ">
<polygon fill="white" stroke="#666666" points="2008.5,-74 1892.5,-74 1892.5,-55 2008.5,-55 2008.5,-74"/>
<text text-anchor="middle" x="1950.5" y="-62" font-family="Helvetica,sans-Serif" font-size="10.00">compat/os/freebsd.h</text>
</a>
</g>
</g>
<!-- Node5&#45;&gt;Node13 -->
<g id="edge12_Node000005_Node000013" class="edge">
<title>Node5&#45;&gt;Node13</title>
<g id="a_edge12_Node000005_Node000013"><a xlink:title=" ">
<path fill="none" stroke="#63b8ff" d="M1892.59,-109.98C1902.99,-102 1918.76,-89.88 1931.22,-80.31"/>
<polygon fill="#63b8ff" stroke="#63b8ff" points="1933.41,-83.04 1939.21,-74.17 1929.15,-77.49 1933.41,-83.04"/>
</a>
</g>
</g>
<!-- Node14 -->
<g id="Node000014" class="node">
<title>Node14</title>
<g id="a_Node000014"><a xlink:href="hpux_8h.html" target="_top" xlink:title=" ">
<polygon fill="white" stroke="#666666" points="2130.5,-74 2026.5,-74 2026.5,-55 2130.5,-55 2130.5,-74"/>
<text text-anchor="middle" x="2078.5" y="-62" font-family="Helvetica,sans-Serif" font-size="10.00">compat/os/hpux.h</text>
</a>
</g>
</g>
<!-- Node5&#45;&gt;Node14 -->
<g id="edge13_Node000005_Node000014" class="edge">
<title>Node5&#45;&gt;Node14</title>
<g id="a_edge13_Node000005_Node000014"><a xlink:title=" ">
<path fill="none" stroke="#63b8ff" d="M1913.15,-109.98C1946.66,-100.97 1999.7,-86.7 2036.64,-76.76"/>
<polygon fill="#63b8ff" stroke="#63b8ff" points="2037.85,-80.06 2046.6,-74.08 2036.03,-73.3 2037.85,-80.06"/>
</a>
</g>
</g>
<!-- Node15 -->
<g id="Node000015" class="node">
<title>Node15</title>
<g id="a_Node000015"><a xlink:href="linux_8h.html" target="_top" xlink:title=" ">
<polygon fill="white" stroke="#666666" points="2252.5,-74 2148.5,-74 2148.5,-55 2252.5,-55 2252.5,-74"/>
<text text-anchor="middle" x="2200.5" y="-62" font-family="Helvetica,sans-Serif" font-size="10.00">compat/os/linux.h</text>
</a>
</g>
</g>
<!-- Node5&#45;&gt;Node15 -->
<g id="edge14_Node000005_Node000015" class="edge">
<title>Node5&#45;&gt;Node15</title>
<g id="a_edge14_Node000005_Node000015"><a xlink:title=" ">
<path fill="none" stroke="#63b8ff" d="M1932.75,-109.98C1988.94,-100.65 2079.07,-85.67 2139.02,-75.71"/>
<polygon fill="#63b8ff" stroke="#63b8ff" points="2139.82,-79.13 2149.11,-74.04 2138.67,-72.22 2139.82,-79.13"/>
</a>
</g>
</g>
<!-- Node16 -->
<g id="Node000016" class="node">
<title>Node16</title>
<g id="a_Node000016"><a xlink:href="macosx_8h.html" target="_top" xlink:title=" ">
<polygon fill="white" stroke="#666666" points="2388.5,-74 2270.5,-74 2270.5,-55 2388.5,-55 2388.5,-74"/>
<text text-anchor="middle" x="2329.5" y="-62" font-family="Helvetica,sans-Serif" font-size="10.00">compat/os/macosx.h</text>
</a>
</g>
</g>
<!-- Node5&#45;&gt;Node16 -->
<g id="edge15_Node000005_Node000016" class="edge">
<title>Node5&#45;&gt;Node16</title>
<g id="a_edge15_Node000005_Node000016"><a xlink:title=" ">
<path fill="none" stroke="#63b8ff" d="M1932.53,-112.65C2003.56,-104.48 2136.55,-89.09 2260.15,-74.16"/>
<polygon fill="#63b8ff" stroke="#63b8ff" points="2260.66,-77.62 2270.17,-72.94 2259.82,-70.67 2260.66,-77.62"/>
</a>
</g>
</g>
<!-- Node17 -->
<g id="Node000017" class="node">
<title>Node17</title>
<g id="a_Node000017"><a xlink:href="mingw_8h.html" target="_top" xlink:title=" ">
<polygon fill="white" stroke="#666666" points="2518.5,-74 2406.5,-74 2406.5,-55 2518.5,-55 2518.5,-74"/>
<text text-anchor="middle" x="2462.5" y="-62" font-family="Helvetica,sans-Serif" font-size="10.00">compat/os/mingw.h</text>
</a>
</g>
</g>
<!-- Node5&#45;&gt;Node17 -->
<g id="edge16_Node000005_Node000017" class="edge">
<title>Node5&#45;&gt;Node17</title>
<g id="a_edge16_Node000005_Node000017"><a xlink:title=" ">
<path fill="none" stroke="#63b8ff" d="M1932.84,-114.82C2023.97,-108.14 2220.2,-93 2396.52,-74.06"/>
<polygon fill="#63b8ff" stroke="#63b8ff" points="2396.93,-77.54 2406.5,-72.98 2396.18,-70.58 2396.93,-77.54"/>
</a>
</g>
</g>
<!-- Node18 -->
<g id="Node000018" class="node">
<title>Node18</title>
<g id="a_Node000018"><a xlink:href="mswindows_8h.html" target="_top" xlink:title=" ">
<polygon fill="white" stroke="#666666" points="2674,-74 2537,-74 2537,-55 2674,-55 2674,-74"/>
<text text-anchor="middle" x="2605.5" y="-62" font-family="Helvetica,sans-Serif" font-size="10.00">compat/os/mswindows.h</text>
</a>
</g>
</g>
<!-- Node5&#45;&gt;Node18 -->
<g id="edge17_Node000005_Node000018" class="edge">
<title>Node5&#45;&gt;Node18</title>
<g id="a_edge17_Node000005_Node000018"><a xlink:title=" ">
<path fill="none" stroke="#63b8ff" d="M1932.64,-115.67C2040.33,-109.56 2298.63,-94.12 2526.47,-74.06"/>
<polygon fill="#63b8ff" stroke="#63b8ff" points="2526.96,-77.53 2536.61,-73.16 2526.34,-70.55 2526.96,-77.53"/>
</a>
</g>
</g>
<!-- Node19 -->
<g id="Node000019" class="node">
<title>Node19</title>
<g id="a_Node000019"><a xlink:href="netbsd_8h.html" target="_top" xlink:title=" ">
<polygon fill="white" stroke="#666666" points="2805,-74 2692,-74 2692,-55 2805,-55 2805,-74"/>
<text text-anchor="middle" x="2748.5" y="-62" font-family="Helvetica,sans-Serif" font-size="10.00">compat/os/netbsd.h</text>
</a>
</g>
</g>
<!-- Node5&#45;&gt;Node19 -->
<g id="edge18_Node000005_Node000019" class="edge">
<title>Node5&#45;&gt;Node19</title>
<g id="a_edge18_Node000005_Node000019"><a xlink:title=" ">
<path fill="none" stroke="#63b8ff" d="M1932.67,-116.95C2058.26,-112.86 2391.97,-100.31 2681.37,-74.03"/>
<polygon fill="#63b8ff" stroke="#63b8ff" points="2682.01,-77.49 2691.65,-73.09 2681.37,-70.51 2682.01,-77.49"/>
</a>
</g>
</g>
<!-- Node20 -->
<g id="Node000020" class="node">
<title>Node20</title>
<g id="a_Node000020"><a xlink:href="openbsd_8h.html" target="_top" xlink:title=" ">
<polygon fill="white" stroke="#666666" points="2944,-74 2823,-74 2823,-55 2944,-55 2944,-74"/>
<text text-anchor="middle" x="2883.5" y="-62" font-family="Helvetica,sans-Serif" font-size="10.00">compat/os/openbsd.h</text>
</a>
</g>
</g>
<!-- Node5&#45;&gt;Node20 -->
<g id="edge19_Node000005_Node000020" class="edge">
<title>Node5&#45;&gt;Node20</title>
<g id="a_edge19_Node000005_Node000020"><a xlink:title=" ">
<path fill="none" stroke="#63b8ff" d="M1932.61,-117.37C2071.93,-114.02 2470.28,-102.55 2812.71,-73.99"/>
<polygon fill="#63b8ff" stroke="#63b8ff" points="2813.15,-77.47 2822.82,-73.14 2812.56,-70.49 2813.15,-77.47"/>
</a>
</g>
</g>
<!-- Node21 -->
<g id="Node000021" class="node">
<title>Node21</title>
<g id="a_Node000021"><a xlink:href="os2_8h.html" target="_top" xlink:title=" ">
<polygon fill="white" stroke="#666666" points="3059,-74 2962,-74 2962,-55 3059,-55 3059,-74"/>
<text text-anchor="middle" x="3010.5" y="-62" font-family="Helvetica,sans-Serif" font-size="10.00">compat/os/os2.h</text>
</a>
</g>
</g>
<!-- Node5&#45;&gt;Node21 -->
<g id="edge20_Node000005_Node000021" class="edge">
<title>Node5&#45;&gt;Node21</title>
<g id="a_edge20_Node000005_Node000021"><a xlink:title=" ">
<path fill="none" stroke="#63b8ff" d="M1932.63,-118.26C2085.64,-117.14 2553.46,-110.8 2951.82,-73.94"/>
<polygon fill="#63b8ff" stroke="#63b8ff" points="2952.18,-77.42 2961.81,-73.01 2951.53,-70.45 2952.18,-77.42"/>
</a>
</g>
</g>
<!-- Node22 -->
<g id="Node000022" class="node">
<title>Node22</title>
<g id="a_Node000022"><a xlink:href="qnx_8h.html" target="_top" xlink:title=" ">
<polygon fill="white" stroke="#666666" points="3175.5,-74 3077.5,-74 3077.5,-55 3175.5,-55 3175.5,-74"/>
<text text-anchor="middle" x="3126.5" y="-62" font-family="Helvetica,sans-Serif" font-size="10.00">compat/os/qnx.h</text>
</a>
</g>
</g>
<!-- Node5&#45;&gt;Node22 -->
<g id="edge21_Node000005_Node000022" class="edge">
<title>Node5&#45;&gt;Node22</title>
<g id="a_edge21_Node000005_Node000022"><a xlink:title=" ">
<path fill="none" stroke="#63b8ff" d="M1932.77,-118.51C2096.51,-118.12 2621.61,-113.71 3067.11,-73.9"/>
<polygon fill="#63b8ff" stroke="#63b8ff" points="3067.64,-77.37 3077.29,-72.99 3067.02,-70.4 3067.64,-77.37"/>
</a>
</g>
</g>
<!-- Node23 -->
<g id="Node000023" class="node">
<title>Node23</title>
<g id="a_Node000023"><a xlink:href="solaris_8h.html" target="_top" xlink:title=" ">
<polygon fill="white" stroke="#666666" points="3305.5,-74 3193.5,-74 3193.5,-55 3305.5,-55 3305.5,-74"/>
<text text-anchor="middle" x="3249.5" y="-62" font-family="Helvetica,sans-Serif" font-size="10.00">compat/os/solaris.h</text>
</a>
</g>
</g>
<!-- Node5&#45;&gt;Node23 -->
<g id="edge22_Node000005_Node000023" class="edge">
<title>Node5&#45;&gt;Node23</title>
<g id="a_edge22_Node000005_Node000023"><a xlink:title=" ">
<path fill="none" stroke="#63b8ff" d="M1932.52,-118.51C2106.15,-118.19 2690.3,-114.05 3183,-74.03"/>
<polygon fill="#63b8ff" stroke="#63b8ff" points="3183.48,-77.51 3193.17,-73.2 3182.91,-70.53 3183.48,-77.51"/>
</a>
</g>
</g>
<!-- Node24 -->
<g id="Node000024" class="node">
<title>Node24</title>
<g id="a_Node000024"><a xlink:href="sunos_8h.html" target="_top" xlink:title=" ">
<polygon fill="white" stroke="#666666" points="3431.5,-74 3323.5,-74 3323.5,-55 3431.5,-55 3431.5,-74"/>
<text text-anchor="middle" x="3377.5" y="-62" font-family="Helvetica,sans-Serif" font-size="10.00">compat/os/sunos.h</text>
</a>
</g>
</g>
<!-- Node5&#45;&gt;Node24 -->
<g id="edge23_Node000005_Node000024" class="edge">
<title>Node5&#45;&gt;Node24</title>
<g id="a_edge23_Node000005_Node000024"><a xlink:title=" ">
<path fill="none" stroke="#63b8ff" d="M1932.7,-118.81C2117.45,-119.55 2767.29,-118.64 3313.2,-74.01"/>
<polygon fill="#63b8ff" stroke="#63b8ff" points="3313.56,-77.49 3323.24,-73.18 3312.99,-70.51 3313.56,-77.49"/>
</a>
</g>
</g>
<!-- Node25 -->
<g id="Node000025" class="node">
<title>Node25</title>
<g id="a_Node000025"><a xlink:href="assert_8h.html" target="_top" xlink:title=" ">
<polygon fill="white" stroke="#666666" points="367,-74 272,-74 272,-55 367,-55 367,-74"/>
<text text-anchor="middle" x="319.5" y="-62" font-family="Helvetica,sans-Serif" font-size="10.00">compat/assert.h</text>
</a>
</g>
</g>
<!-- Node5&#45;&gt;Node25 -->
<g id="edge24_Node000005_Node000025" class="edge">
<title>Node5&#45;&gt;Node25</title>
<g id="a_edge24_Node000005_Node000025"><a xlink:title=" ">
<path fill="none" stroke="#63b8ff" d="M1830.48,-110.86C1827.45,-110.54 1824.44,-110.24 1821.5,-110 1184.72,-57.14 1018.3,-128.7 377.46,-73.93"/>
<polygon fill="#63b8ff" stroke="#63b8ff" points="377.3,-70.41 367.03,-73.04 376.7,-77.38 377.3,-70.41"/>
</a>
</g>
</g>
<!-- Node26 -->
<g id="Node000026" class="node">
<title>Node26</title>
<g id="a_Node000026"><a xlink:href="compat__shared_8h.html" target="_top" xlink:title=" ">
<polygon fill="white" stroke="#666666" points="525.5,-74 385.5,-74 385.5,-55 525.5,-55 525.5,-74"/>
<text text-anchor="middle" x="455.5" y="-62" font-family="Helvetica,sans-Serif" font-size="10.00">compat/compat_shared.h</text>
</a>
</g>
</g>
<!-- Node5&#45;&gt;Node26 -->
<g id="edge25_Node000005_Node000026" class="edge">
<title>Node5&#45;&gt;Node26</title>
<g id="a_edge25_Node000005_Node000026"><a xlink:title=" ">
<path fill="none" stroke="#63b8ff" d="M1830.48,-110.87C1827.45,-110.54 1824.44,-110.25 1821.5,-110 1254.65,-62.07 1107.14,-112.05 535.83,-74.02"/>
<polygon fill="#63b8ff" stroke="#63b8ff" points="535.9,-70.52 525.69,-73.34 535.43,-77.51 535.9,-70.52"/>
</a>
</g>
</g>
<!-- Node36 -->
<g id="Node000036" class="node">
<title>Node36</title>
<g id="a_Node000036"><a xlink:href="stdvarargs_8h.html" target="_top" xlink:title=" ">
<polygon fill="white" stroke="#666666" points="661,-74 544,-74 544,-55 661,-55 661,-74"/>
<text text-anchor="middle" x="602.5" y="-62" font-family="Helvetica,sans-Serif" font-size="10.00">compat/stdvarargs.h</text>
</a>
</g>
</g>
<!-- Node5&#45;&gt;Node36 -->
<g id="edge34_Node000005_Node000036" class="edge">
<title>Node5&#45;&gt;Node36</title>
<g id="a_edge34_Node000005_Node000036"><a xlink:title=" ">
<path fill="none" stroke="#63b8ff" d="M1830.48,-110.88C1827.45,-110.55 1824.43,-110.25 1821.5,-110 1314.51,-66.3 1181.91,-113.65 671.5,-74.08"/>
<polygon fill="#63b8ff" stroke="#63b8ff" points="671.54,-70.57 661.29,-73.28 670.99,-77.55 671.54,-70.57"/>
</a>
</g>
</g>
<!-- Node38 -->
<g id="Node000038" class="node">
<title>Node38</title>
<g id="a_Node000038"><a xlink:href="stdio_8h.html" target="_top" xlink:title=" ">
<polygon fill="#fff0f0" stroke="red" points="768,-74 679,-74 679,-55 768,-55 768,-74"/>
<text text-anchor="middle" x="723.5" y="-62" font-family="Helvetica,sans-Serif" font-size="10.00">compat/stdio.h</text>
</a>
</g>
</g>
<!-- Node5&#45;&gt;Node38 -->
<g id="edge36_Node000005_Node000038" class="edge">
<title>Node5&#45;&gt;Node38</title>
<g id="a_edge36_Node000005_Node000038"><a xlink:title=" ">
<path fill="none" stroke="#63b8ff" d="M1830.48,-110.9C1827.44,-110.56 1824.43,-110.26 1821.5,-110 1361.95,-69.65 1240.82,-118.16 778.56,-74.07"/>
<polygon fill="#63b8ff" stroke="#63b8ff" points="778.56,-70.56 768.27,-73.08 777.89,-77.52 778.56,-70.56"/>
</a>
</g>
</g>
<!-- Node40 -->
<g id="Node000040" class="node">
<title>Node40</title>
<g id="a_Node000040"><a xlink:href="statvfs_8h.html" target="_top" xlink:title=" ">
<polygon fill="white" stroke="#666666" points="885,-74 786,-74 786,-55 885,-55 885,-74"/>
<text text-anchor="middle" x="835.5" y="-62" font-family="Helvetica,sans-Serif" font-size="10.00">compat/statvfs.h</text>
</a>
</g>
</g>
<!-- Node5&#45;&gt;Node40 -->
<g id="edge37_Node000005_Node000040" class="edge">
<title>Node5&#45;&gt;Node40</title>
<g id="a_edge37_Node000005_Node000040"><a xlink:title=" ">
<path fill="none" stroke="#63b8ff" d="M1830.48,-110.91C1827.44,-110.57 1824.43,-110.26 1821.5,-110 1413.72,-73.3 1306.23,-111.36 895.21,-74.05"/>
<polygon fill="#63b8ff" stroke="#63b8ff" points="895.41,-70.56 885.13,-73.13 894.77,-77.53 895.41,-70.56"/>
</a>
</g>
</g>
<!-- Node41 -->
<g id="Node000041" class="node">
<title>Node41</title>
<g id="a_Node000041"><a xlink:href="debug_8h.html" target="_top" xlink:title=" ">
<polygon fill="white" stroke="#666666" points="998,-74 903,-74 903,-55 998,-55 998,-74"/>
<text text-anchor="middle" x="950.5" y="-62" font-family="Helvetica,sans-Serif" font-size="10.00">compat/debug.h</text>
</a>
</g>
</g>
<!-- Node5&#45;&gt;Node41 -->
<g id="edge38_Node000005_Node000041" class="edge">
<title>Node5&#45;&gt;Node41</title>
<g id="a_edge38_Node000005_Node000041"><a xlink:title=" ">
<path fill="none" stroke="#63b8ff" d="M1830.48,-110.93C1827.44,-110.59 1824.43,-110.27 1821.5,-110 1463.82,-76.84 1369.11,-108.65 1008.32,-74.07"/>
<polygon fill="#63b8ff" stroke="#63b8ff" points="1008.41,-70.56 998.12,-73.08 1007.73,-77.53 1008.41,-70.56"/>
</a>
</g>
</g>
<!-- Node42 -->
<g id="Node000042" class="node">
<title>Node42</title>
<g id="a_Node000042"><a xlink:href="valgrind_8h.html" target="_top" xlink:title=" ">
<polygon fill="#fff0f0" stroke="red" points="1121,-74 1016,-74 1016,-55 1121,-55 1121,-74"/>
<text text-anchor="middle" x="1068.5" y="-62" font-family="Helvetica,sans-Serif" font-size="10.00">compat/valgrind.h</text>
</a>
</g>
</g>
<!-- Node5&#45;&gt;Node42 -->
<g id="edge39_Node000005_Node000042" class="edge">
<title>Node5&#45;&gt;Node42</title>
<g id="a_edge39_Node000005_Node000042"><a xlink:title=" ">
<path fill="none" stroke="#63b8ff" d="M1830.47,-110.96C1827.44,-110.61 1824.43,-110.28 1821.5,-110 1518.25,-80.69 1437.8,-102.79 1131.11,-74.07"/>
<polygon fill="#63b8ff" stroke="#63b8ff" points="1131.32,-70.57 1121.04,-73.11 1130.66,-77.54 1131.32,-70.57"/>
</a>
</g>
</g>
<!-- Node9 -->
<g id="Node000009" class="node">
<title>Node9</title>
<g id="a_Node000009"><a xlink:title=" ">
<polygon fill="#e0e0e0" stroke="#999999" points="1463.5,-19 1413.5,-19 1413.5,0 1463.5,0 1463.5,-19"/>
<text text-anchor="middle" x="1438.5" y="-7" font-family="Helvetica,sans-Serif" font-size="10.00">cstdint</text>
</a>
</g>
</g>
<!-- Node8&#45;&gt;Node9 -->
<g id="edge8_Node000008_Node000009" class="edge">
<title>Node8&#45;&gt;Node9</title>
<g id="a_edge8_Node000008_Node000009"><a xlink:title=" ">
<path fill="none" stroke="#63b8ff" d="M1438.5,-54.75C1438.5,-47.8 1438.5,-37.85 1438.5,-29.13"/>
<polygon fill="#63b8ff" stroke="#63b8ff" points="1442,-29.09 1438.5,-19.09 1435,-29.09 1442,-29.09"/>
</a>
</g>
</g>
<!-- Node27 -->
<g id="Node000027" class="node">
<title>Node27</title>
<g id="a_Node000027"><a xlink:title=" ">
<polygon fill="#e0e0e0" stroke="#999999" points="51,-19 0,-19 0,0 51,0 51,-19"/>
<text text-anchor="middle" x="25.5" y="-7" font-family="Helvetica,sans-Serif" font-size="10.00">csignal</text>
</a>
</g>
</g>
<!-- Node26&#45;&gt;Node27 -->
<g id="edge26_Node000026_Node000027" class="edge">
<title>Node26&#45;&gt;Node27</title>
<g id="a_edge26_Node000026_Node000027"><a xlink:title=" ">
<path fill="none" stroke="#63b8ff" d="M385.09,-55.83C284.99,-44.9 109.02,-25.56 61.02,-18.82"/>
<polygon fill="#63b8ff" stroke="#63b8ff" points="61.46,-15.35 51.04,-17.27 60.39,-22.26 61.46,-15.35"/>
</a>
</g>
</g>
<!-- Node28 -->
<g id="Node000028" class="node">
<title>Node28</title>
<g id="a_Node000028"><a xlink:href="xalloc_8h.html" target="_top" xlink:title=" ">
<polygon fill="white" stroke="#666666" points="164,-19 69,-19 69,0 164,0 164,-19"/>
<text text-anchor="middle" x="116.5" y="-7" font-family="Helvetica,sans-Serif" font-size="10.00">compat/xalloc.h</text>
</a>
</g>
</g>
<!-- Node26&#45;&gt;Node28 -->
<g id="edge27_Node000026_Node000028" class="edge">
<title>Node26&#45;&gt;Node28</title>
<g id="a_edge27_Node000026_Node000028"><a xlink:title=" ">
<path fill="none" stroke="#63b8ff" d="M401.03,-54.98C338.98,-45.28 237.98,-29.49 174.5,-19.57"/>
<polygon fill="#63b8ff" stroke="#63b8ff" points="174.68,-16.05 164.26,-17.97 173.6,-22.97 174.68,-16.05"/>
</a>
</g>
</g>
<!-- Node29 -->
<g id="Node000029" class="node">
<title>Node29</title>
<g id="a_Node000029"><a xlink:href="xis_8h.html" target="_top" xlink:title=" ">
<polygon fill="#fff0f0" stroke="red" points="262.5,-19 182.5,-19 182.5,0 262.5,0 262.5,-19"/>
<text text-anchor="middle" x="222.5" y="-7" font-family="Helvetica,sans-Serif" font-size="10.00">compat/xis.h</text>
</a>
</g>
</g>
<!-- Node26&#45;&gt;Node29 -->
<g id="edge28_Node000026_Node000029" class="edge">
<title>Node26&#45;&gt;Node29</title>
<g id="a_edge28_Node000026_Node000029"><a xlink:title=" ">
<path fill="none" stroke="#63b8ff" d="M418.06,-54.98C377.85,-45.84 313.82,-31.27 270.06,-21.32"/>
<polygon fill="#63b8ff" stroke="#63b8ff" points="270.76,-17.89 260.23,-19.08 269.2,-24.71 270.76,-17.89"/>
</a>
</g>
</g>
<!-- Node31 -->
<g id="Node000031" class="node">
<title>Node31</title>
<g id="a_Node000031"><a xlink:href="xstrerror_8h.html" target="_top" xlink:title=" ">
<polygon fill="white" stroke="#666666" points="388,-19 281,-19 281,0 388,0 388,-19"/>
<text text-anchor="middle" x="334.5" y="-7" font-family="Helvetica,sans-Serif" font-size="10.00">compat/xstrerror.h</text>
</a>
</g>
</g>
<!-- Node26&#45;&gt;Node31 -->
<g id="edge29_Node000026_Node000031" class="edge">
<title>Node26&#45;&gt;Node31</title>
<g id="a_edge29_Node000026_Node000031"><a xlink:title=" ">
<path fill="none" stroke="#63b8ff" d="M436.06,-54.98C416.51,-46.42 386.12,-33.11 363.68,-23.28"/>
<polygon fill="#63b8ff" stroke="#63b8ff" points="364.86,-19.98 354.29,-19.17 362.05,-26.39 364.86,-19.98"/>
</a>
</g>
</g>
<!-- Node32 -->
<g id="Node000032" class="node">
<title>Node32</title>
<g id="a_Node000032"><a xlink:href="xstring_8h.html" target="_top" xlink:title=" ">
<polygon fill="white" stroke="#666666" points="505,-19 406,-19 406,0 505,0 505,-19"/>
<text text-anchor="middle" x="455.5" y="-7" font-family="Helvetica,sans-Serif" font-size="10.00">compat/xstring.h</text>
</a>
</g>
</g>
<!-- Node26&#45;&gt;Node32 -->
<g id="edge30_Node000026_Node000032" class="edge">
<title>Node26&#45;&gt;Node32</title>
<g id="a_edge30_Node000026_Node000032"><a xlink:title=" ">
<path fill="none" stroke="#63b8ff" d="M455.5,-54.75C455.5,-47.8 455.5,-37.85 455.5,-29.13"/>
<polygon fill="#63b8ff" stroke="#63b8ff" points="459,-29.09 455.5,-19.09 452,-29.09 459,-29.09"/>
</a>
</g>
</g>
<!-- Node33 -->
<g id="Node000033" class="node">
<title>Node33</title>
<g id="a_Node000033"><a xlink:href="xstrto_8h.html" target="_top" xlink:title=" ">
<polygon fill="white" stroke="#666666" points="617.5,-19 523.5,-19 523.5,0 617.5,0 617.5,-19"/>
<text text-anchor="middle" x="570.5" y="-7" font-family="Helvetica,sans-Serif" font-size="10.00">compat/xstrto.h</text>
</a>
</g>
</g>
<!-- Node26&#45;&gt;Node33 -->
<g id="edge31_Node000026_Node000033" class="edge">
<title>Node26&#45;&gt;Node33</title>
<g id="a_edge31_Node000026_Node000033"><a xlink:title=" ">
<path fill="none" stroke="#63b8ff" d="M473.98,-54.98C492.48,-46.46 521.18,-33.23 542.48,-23.41"/>
<polygon fill="#63b8ff" stroke="#63b8ff" points="544.07,-26.53 551.69,-19.17 541.14,-20.18 544.07,-26.53"/>
</a>
</g>
</g>
<!-- Node34 -->
<g id="Node000034" class="node">
<title>Node34</title>
<g id="a_Node000034"><a xlink:href="strtoll_8h.html" target="_top" xlink:title=" ">
<polygon fill="white" stroke="#666666" points="729.5,-19 635.5,-19 635.5,0 729.5,0 729.5,-19"/>
<text text-anchor="middle" x="682.5" y="-7" font-family="Helvetica,sans-Serif" font-size="10.00">compat/strtoll.h</text>
</a>
</g>
</g>
<!-- Node26&#45;&gt;Node34 -->
<g id="edge32_Node000026_Node000034" class="edge">
<title>Node26&#45;&gt;Node34</title>
<g id="a_edge32_Node000026_Node000034"><a xlink:title=" ">
<path fill="none" stroke="#63b8ff" d="M491.97,-54.98C531.07,-45.86 593.27,-31.33 635.89,-21.38"/>
<polygon fill="#63b8ff" stroke="#63b8ff" points="636.8,-24.76 645.74,-19.08 635.21,-17.95 636.8,-24.76"/>
</a>
</g>
</g>
<!-- Node35 -->
<g id="Node000035" class="node">
<title>Node35</title>
<g id="a_Node000035"><a xlink:href="memrchr_8h.html" target="_top" xlink:title=" ">
<polygon fill="white" stroke="#666666" points="857,-19 748,-19 748,0 857,0 857,-19"/>
<text text-anchor="middle" x="802.5" y="-7" font-family="Helvetica,sans-Serif" font-size="10.00">compat/memrchr.h</text>
</a>
</g>
</g>
<!-- Node26&#45;&gt;Node35 -->
<g id="edge33_Node000026_Node000035" class="edge">
<title>Node26&#45;&gt;Node35</title>
<g id="a_edge33_Node000026_Node000035"><a xlink:title=" ">
<path fill="none" stroke="#63b8ff" d="M511.25,-54.98C572.99,-45.55 672.39,-30.37 737.59,-20.41"/>
<polygon fill="#63b8ff" stroke="#63b8ff" points="738.39,-23.83 747.75,-18.86 737.33,-16.91 738.39,-23.83"/>
</a>
</g>
</g>
<!-- Node37 -->
<g id="Node000037" class="node">
<title>Node37</title>
<g id="a_Node000037"><a xlink:title=" ">
<polygon fill="#e0e0e0" stroke="#999999" points="928,-19 875,-19 875,0 928,0 928,-19"/>
<text text-anchor="middle" x="901.5" y="-7" font-family="Helvetica,sans-Serif" font-size="10.00">cstdarg</text>
</a>
</g>
</g>
<!-- Node36&#45;&gt;Node37 -->
<g id="edge35_Node000036_Node000037" class="edge">
<title>Node36&#45;&gt;Node37</title>
<g id="a_edge35_Node000036_Node000037"><a xlink:title=" ">
<path fill="none" stroke="#63b8ff" d="M659.13,-55C710.33,-47.06 788,-34.42 864.94,-19"/>
<polygon fill="#63b8ff" stroke="#63b8ff" points="865.7,-22.42 874.81,-17 864.31,-15.56 865.7,-22.42"/>
</a>
</g>
</g>
<!-- Node44&#45;&gt;Node45 -->
<g id="edge41_Node000044_Node000045" class="edge">
<title>Node44&#45;&gt;Node45</title>
<g id="a_edge41_Node000044_Node000045"><a xlink:title=" ">
<path fill="none" stroke="#63b8ff" d="M3633.5,-164.75C3633.5,-157.8 3633.5,-147.85 3633.5,-139.13"/>
<polygon fill="#63b8ff" stroke="#63b8ff" points="3637,-139.09 3633.5,-129.09 3630,-139.09 3637,-139.09"/>
</a>
</g>
</g>
<!-- Node44&#45;&gt;Node49 -->
<g id="edge48_Node000044_Node000049" class="edge">
<title>Node44&#45;&gt;Node49</title>
<g id="a_edge48_Node000044_Node000049"><a xlink:title=" ">
<path fill="none" stroke="#63b8ff" d="M3621.52,-164.76C3609.9,-156.11 3591.95,-142.27 3577.5,-129 3561,-113.86 3543.57,-95.06 3531.78,-81.86"/>
<polygon fill="#63b8ff" stroke="#63b8ff" points="3534.15,-79.26 3524.91,-74.09 3528.91,-83.9 3534.15,-79.26"/>
</a>
</g>
</g>
<!-- Node51 -->
<g id="Node000051" class="node">
<title>Node51</title>
<g id="a_Node000051"><a xlink:title=" ">
<polygon fill="#e0e0e0" stroke="#999999" points="3930.5,-74 3874.5,-74 3874.5,-55 3930.5,-55 3930.5,-74"/>
<text text-anchor="middle" x="3902.5" y="-62" font-family="Helvetica,sans-Serif" font-size="10.00">iomanip</text>
</a>
</g>
</g>
<!-- Node44&#45;&gt;Node51 -->
<g id="edge49_Node000044_Node000051" class="edge">
<title>Node44&#45;&gt;Node51</title>
<g id="a_edge49_Node000044_Node000051"><a xlink:title=" ">
<path fill="none" stroke="#63b8ff" d="M3660.93,-164.98C3687.43,-156.55 3728.6,-142.91 3763.5,-129 3803.41,-113.1 3848.43,-91.91 3876.14,-78.48"/>
<polygon fill="#63b8ff" stroke="#63b8ff" points="3877.73,-81.61 3885.19,-74.08 3874.66,-75.31 3877.73,-81.61"/>
</a>
</g>
</g>
<!-- Node52 -->
<g id="Node000052" class="node">
<title>Node52</title>
<g id="a_Node000052"><a xlink:title=" ">
<polygon fill="#e0e0e0" stroke="#999999" points="3754.5,-129 3698.5,-129 3698.5,-110 3754.5,-110 3754.5,-129"/>
<text text-anchor="middle" x="3726.5" y="-117" font-family="Helvetica,sans-Serif" font-size="10.00">optional</text>
</a>
</g>
</g>
<!-- Node44&#45;&gt;Node52 -->
<g id="edge50_Node000044_Node000052" class="edge">
<title>Node44&#45;&gt;Node52</title>
<g id="a_edge50_Node000044_Node000052"><a xlink:title=" ">
<path fill="none" stroke="#63b8ff" d="M3648.44,-164.98C3663,-156.69 3685.37,-143.94 3702.43,-134.22"/>
<polygon fill="#63b8ff" stroke="#63b8ff" points="3704.33,-137.16 3711.29,-129.17 3700.86,-131.08 3704.33,-137.16"/>
</a>
</g>
</g>
<!-- Node46 -->
<g id="Node000046" class="node">
<title>Node46</title>
<g id="a_Node000046"><a xlink:href="Here_8h.html" target="_top" xlink:title=" ">
<polygon fill="white" stroke="#666666" points="3857,-74 3782,-74 3782,-55 3857,-55 3857,-74"/>
<text text-anchor="middle" x="3819.5" y="-62" font-family="Helvetica,sans-Serif" font-size="10.00">base/Here.h</text>
</a>
</g>
</g>
<!-- Node45&#45;&gt;Node46 -->
<g id="edge42_Node000045_Node000046" class="edge">
<title>Node45&#45;&gt;Node46</title>
<g id="a_edge42_Node000045_Node000046"><a xlink:title=" ">
<path fill="none" stroke="#63b8ff" d="M3663.38,-109.98C3694.88,-101.01 3744.67,-86.82 3779.53,-76.89"/>
<polygon fill="#63b8ff" stroke="#63b8ff" points="3780.72,-80.19 3789.38,-74.08 3778.81,-73.46 3780.72,-80.19"/>
</a>
</g>
</g>
<!-- Node48 -->
<g id="Node000048" class="node">
<title>Node48</title>
<g id="a_Node000048"><a xlink:href="AllocatorProxy_8h.html" target="_top" xlink:title=" ">
<polygon fill="white" stroke="#666666" points="3689.5,-74 3565.5,-74 3565.5,-55 3689.5,-55 3689.5,-74"/>
<text text-anchor="middle" x="3627.5" y="-62" font-family="Helvetica,sans-Serif" font-size="10.00">mem/AllocatorProxy.h</text>
</a>
</g>
</g>
<!-- Node45&#45;&gt;Node48 -->
<g id="edge44_Node000045_Node000048" class="edge">
<title>Node45&#45;&gt;Node48</title>
<g id="a_edge44_Node000045_Node000048"><a xlink:title=" ">
<path fill="none" stroke="#63b8ff" d="M3632.51,-109.75C3631.72,-102.8 3630.6,-92.85 3629.61,-84.13"/>
<polygon fill="#63b8ff" stroke="#63b8ff" points="3633.08,-83.63 3628.47,-74.09 3626.12,-84.42 3633.08,-83.63"/>
</a>
</g>
</g>
<!-- Node45&#45;&gt;Node49 -->
<g id="edge45_Node000045_Node000049" class="edge">
<title>Node45&#45;&gt;Node49</title>
<g id="a_edge45_Node000045_Node000049"><a xlink:title=" ">
<path fill="none" stroke="#63b8ff" d="M3614.86,-109.98C3596.2,-101.46 3567.25,-88.23 3545.76,-78.41"/>
<polygon fill="#63b8ff" stroke="#63b8ff" points="3547.03,-75.14 3536.48,-74.17 3544.12,-81.51 3547.03,-75.14"/>
</a>
</g>
</g>
<!-- Node50 -->
<g id="Node000050" class="node">
<title>Node50</title>
<g id="a_Node000050"><a xlink:title=" ">
<polygon fill="#e0e0e0" stroke="#999999" points="3763.5,-74 3707.5,-74 3707.5,-55 3763.5,-55 3763.5,-74"/>
<text text-anchor="middle" x="3735.5" y="-62" font-family="Helvetica,sans-Serif" font-size="10.00">sstream</text>
</a>
</g>
</g>
<!-- Node45&#45;&gt;Node50 -->
<g id="edge46_Node000045_Node000050" class="edge">
<title>Node45&#45;&gt;Node50</title>
<g id="a_edge46_Node000045_Node000050"><a xlink:title=" ">
<path fill="none" stroke="#63b8ff" d="M3649.89,-109.98C3666.07,-101.57 3691.07,-88.59 3709.88,-78.81"/>
<polygon fill="#63b8ff" stroke="#63b8ff" points="3711.55,-81.89 3718.81,-74.17 3708.33,-75.68 3711.55,-81.89"/>
</a>
</g>
</g>
<!-- Node45&#45;&gt;Node51 -->
<g id="edge47_Node000045_Node000051" class="edge">
<title>Node45&#45;&gt;Node51</title>
<g id="a_edge47_Node000045_Node000051"><a xlink:title=" ">
<path fill="none" stroke="#63b8ff" d="M3680.7,-109.97C3725.45,-101.76 3794.81,-88.74 3864.03,-74.25"/>
<polygon fill="#63b8ff" stroke="#63b8ff" points="3865.18,-77.59 3874.24,-72.1 3863.74,-70.74 3865.18,-77.59"/>
</a>
</g>
</g>
<!-- Node47 -->
<g id="Node000047" class="node">
<title>Node47</title>
<g id="a_Node000047"><a xlink:title=" ">
<polygon fill="#e0e0e0" stroke="#999999" points="3663.5,-19 3615.5,-19 3615.5,0 3663.5,0 3663.5,-19"/>
<text text-anchor="middle" x="3639.5" y="-7" font-family="Helvetica,sans-Serif" font-size="10.00">iosfwd</text>
</a>
</g>
</g>
<!-- Node46&#45;&gt;Node47 -->
<g id="edge43_Node000046_Node000047" class="edge">
<title>Node46&#45;&gt;Node47</title>
<g id="a_edge43_Node000046_Node000047"><a xlink:title=" ">
<path fill="none" stroke="#63b8ff" d="M3790.58,-54.98C3758.7,-45.6 3707.45,-30.51 3673.63,-20.55"/>
<polygon fill="#63b8ff" stroke="#63b8ff" points="3674.31,-17.1 3663.73,-17.63 3672.34,-23.82 3674.31,-17.1"/>
</a>
</g>
</g>
<!-- Node53&#45;&gt;Node47 -->
<g id="edge52_Node000053_Node000047" class="edge">
<title>Node53&#45;&gt;Node47</title>
<g id="a_edge52_Node000053_Node000047"><a xlink:title=" ">
<path fill="none" stroke="#63b8ff" d="M3455.28,-164.71C3452.81,-143.03 3449.64,-86.45 3478.5,-55 3510.8,-19.8 3568.2,-11.47 3605.02,-10.01"/>
<polygon fill="#63b8ff" stroke="#63b8ff" points="3605.37,-13.5 3615.28,-9.76 3605.19,-6.51 3605.37,-13.5"/>
</a>
</g>
</g>
</g>
</svg>

<g id="navigator" transform="translate(0 0)" fill="#404254">
  <rect fill="#f2f5e9" fill-opacity="0.5" stroke="#606060" stroke-width=".5" x="0" y="0" width="60" height="60"/>
  <use id="zoomplus" xlink:href="#zoomPlus" x="17" y="9" onmousedown="handleZoom(evt,'in')"/>
  <use id="zoomminus" xlink:href="#zoomMin" x="42" y="9" onmousedown="handleZoom(evt,'out')"/>
  <use id="reset" xlink:href="#resetDef" x="30" y="36" onmousedown="handleReset()"/>
   <use id="arrowup" xlink:href="#arrowUp" x="0" y="0" onmousedown="handlePan(0,-1)"/>
  <use id="arrowright" xlink:href="#arrowRight" x="0" y="0" onmousedown="handlePan(1,0)"/>
  <use id="arrowdown" xlink:href="#arrowDown" x="0" y="0" onmousedown="handlePan(0,1)"/>
  <use id="arrowleft" xlink:href="#arrowLeft" x="0" y="0" onmousedown="handlePan(-1,0)"/>
</g>
<svg viewBox="0 0 15 15" width="100%" height="30px" preserveAspectRatio="xMaxYMin meet">
 <g id="arrow_out" transform="scale(0.3 0.3)">
  <a xlink:href="Raw_8cc__incl_org.svg" target="_base">
   <rect id="button" ry="5" rx="5" y="6" x="6" height="38" width="38"
        fill="#f2f5e9" fill-opacity="0.5" stroke="#606060" stroke-width="1.0"/>
   <path id="arrow"
     d="M 11.500037,31.436501 C 11.940474,20.09759 22.043105,11.32322 32.158766,21.979434 L 37.068811,17.246167 C 37.068811,17.246167 37.088388,32 37.088388,32 L 22.160133,31.978069 C 22.160133,31.978069 26.997745,27.140456 26.997745,27.140456 C 18.528582,18.264221 13.291696,25.230495 11.500037,31.436501 z"
     style="fill:#404040;"/>
  </a>
 </g>
</svg>

<style type='text/css'>
<![CDATA[
[data-mouse-over-selected='false'] { opacity: 0.7; }
[data-mouse-over-selected='true']  { opacity: 1.0; }
]]>
</style>
<script type="application/ecmascript"><![CDATA[
document.addEventListener('DOMContentLoaded', (event) => {
  highlightEdges();
  highlightAdjacentNodes();
});
]]></script>
</svg>
