<?xml version="1.0" encoding="UTF-8" standalone="no"?>
<!DOCTYPE svg PUBLIC "-//W3C//DTD SVG 1.1//EN"
 "http://www.w3.org/Graphics/SVG/1.1/DTD/svg11.dtd">
<!-- Generated by graphviz version 2.43.0 (0)
 -->
<!-- Title: squid/src/DiskIO/ReadRequest.h Pages: 1 -->
<!--zoomable 159 -->

<svg id="main" version="1.1" xmlns="http://www.w3.org/2000/svg" xmlns:xlink="http://www.w3.org/1999/xlink" xml:space="preserve" onload="init(evt)">
<style type="text/css"><![CDATA[
.node, .edge {opacity: 0.7;}
.node.selected, .edge.selected {opacity: 1;}
.edge:hover path { stroke: red; }
.edge:hover polygon { stroke: red; fill: red; }
]]></style>

<defs>
  <circle id="rim" cx="0" cy="0" r="7"/>
  <circle id="rim2" cx="0" cy="0" r="3.5"/>
  <g id="zoomPlus">
    <use xlink:href="#rim" fill="#404040"><set attributeName="fill" to="#808080" begin="zoomplus.mouseover" end="zoomplus.mouseout"/></use>
    <path d="M-4,0h8M0,-4v8" fill="none" stroke="white" stroke-width="1.5" pointer-events="none"/>
  </g>
  <g id="zoomMin">
    <use xlink:href="#rim" fill="#404040"><set attributeName="fill" to="#808080" begin="zoomminus.mouseover" end="zoomminus.mouseout"/></use>
    <path d="M-4,0h8" fill="none" stroke="white" stroke-width="1.5" pointer-events="none"/>
  </g>
  <g id="arrowUp" transform="translate(30 24)">
    <use xlink:href="#rim"/>
    <path pointer-events="none" fill="none" stroke="white" stroke-width="1.5" d="M0,-3.0v7 M-2.5,-0.5L0,-3.0L2.5,-0.5"/>
  </g>
  <g id="arrowRight" transform="rotate(90) translate(36 -43)">
    <use xlink:href="#rim"/>
    <path pointer-events="none" fill="none" stroke="white" stroke-width="1.5" d="M0,-3.0v7 M-2.5,-0.5L0,-3.0L2.5,-0.5"/>
  </g>
  <g id="arrowDown" transform="rotate(180) translate(-30 -48)">
    <use xlink:href="#rim"/>
    <path pointer-events="none" fill="none" stroke="white" stroke-width="1.5" d="M0,-3.0v7 M-2.5,-0.5L0,-3.0L2.5,-0.5"/>
  </g>
  <g id="arrowLeft" transform="rotate(270) translate(-36 17)">
    <use xlink:href="#rim"/>
    <path pointer-events="none" fill="none" stroke="white" stroke-width="1.5" d="M0,-3.0v7 M-2.5,-0.5L0,-3.0L2.5,-0.5"/>
  </g>
  <g id="resetDef">
    <use xlink:href="#rim2" fill="#404040"><set attributeName="fill" to="#808080" begin="reset.mouseover" end="reset.mouseout"/></use>
  </g>
</defs>
<script type="application/ecmascript">
var viewWidth = 1790;
var viewHeight = 159;
var sectionId = 'dynsection-1';
</script>
<script type="application/ecmascript" xlink:href="svg.min.js"/>
<svg id="graph" class="graph">
<g id="viewport">
<title>squid/src/DiskIO/ReadRequest.h</title>
<!-- Node1 -->
<g id="Node000001" class="node">
<title>Node1</title>
<g id="a_Node000001"><a xlink:title=" ">
<polygon fill="#999999" stroke="#666666" points="974,-151 802,-151 802,-132 974,-132 974,-151"/>
<text text-anchor="middle" x="888" y="-139" font-family="Helvetica,sans-Serif" font-size="10.00">squid/src/DiskIO/ReadRequest.h</text>
</a>
</g>
</g>
<!-- Node2 -->
<g id="Node000002" class="node">
<title>Node2</title>
<g id="a_Node000002"><a xlink:href="AIODiskFile_8cc.html" target="_top" xlink:title=" ">
<polygon fill="white" stroke="#666666" points="116,-96 0,-96 0,-66 116,-66 116,-96"/>
<text text-anchor="start" x="8" y="-84" font-family="Helvetica,sans-Serif" font-size="10.00">squid/src/DiskIO/AIO</text>
<text text-anchor="middle" x="58" y="-73" font-family="Helvetica,sans-Serif" font-size="10.00">/AIODiskFile.cc</text>
</a>
</g>
</g>
<!-- Node1&#45;&gt;Node2 -->
<g id="edge1_Node000001_Node000002" class="edge">
<title>Node1&#45;&gt;Node2</title>
<g id="a_edge1_Node000001_Node000002"><a xlink:title=" ">
<path fill="none" stroke="#63b8ff" d="M791.58,-139.43C646.39,-136.8 363.28,-127.67 125,-96 122.06,-95.61 119.05,-95.16 116.01,-94.67"/>
<polygon fill="#63b8ff" stroke="#63b8ff" points="791.73,-142.94 801.79,-139.61 791.85,-135.94 791.73,-142.94"/>
</a>
</g>
</g>
<!-- Node3 -->
<g id="Node000003" class="node">
<title>Node3</title>
<g id="a_Node000003"><a xlink:href="AIODiskIOStrategy_8cc.html" target="_top" xlink:title=" ">
<polygon fill="white" stroke="#666666" points="256,-96 134,-96 134,-66 256,-66 256,-96"/>
<text text-anchor="start" x="142" y="-84" font-family="Helvetica,sans-Serif" font-size="10.00">squid/src/DiskIO/AIO</text>
<text text-anchor="middle" x="195" y="-73" font-family="Helvetica,sans-Serif" font-size="10.00">/AIODiskIOStrategy.cc</text>
</a>
</g>
</g>
<!-- Node1&#45;&gt;Node3 -->
<g id="edge2_Node000001_Node000003" class="edge">
<title>Node1&#45;&gt;Node3</title>
<g id="a_edge2_Node000001_Node000003"><a xlink:title=" ">
<path fill="none" stroke="#63b8ff" d="M791.87,-137.39C669.16,-132.57 450.52,-121.08 265,-96 262.05,-95.6 259.04,-95.15 256.01,-94.67"/>
<polygon fill="#63b8ff" stroke="#63b8ff" points="791.86,-140.9 801.99,-137.79 792.13,-133.9 791.86,-140.9"/>
</a>
</g>
</g>
<!-- Node4 -->
<g id="Node000004" class="node">
<title>Node4</title>
<g id="a_Node000004"><a xlink:href="BlockingFile_8cc.html" target="_top" xlink:title=" ">
<polygon fill="white" stroke="#666666" points="414,-96 274,-96 274,-66 414,-66 414,-96"/>
<text text-anchor="start" x="282" y="-84" font-family="Helvetica,sans-Serif" font-size="10.00">squid/src/DiskIO/Blocking</text>
<text text-anchor="middle" x="344" y="-73" font-family="Helvetica,sans-Serif" font-size="10.00">/BlockingFile.cc</text>
</a>
</g>
</g>
<!-- Node1&#45;&gt;Node4 -->
<g id="edge3_Node000001_Node000004" class="edge">
<title>Node1&#45;&gt;Node4</title>
<g id="a_edge3_Node000001_Node000004"><a xlink:title=" ">
<path fill="none" stroke="#63b8ff" d="M791.55,-133.53C697.32,-126.19 549.96,-113.3 423,-96 420.1,-95.61 417.15,-95.18 414.17,-94.73"/>
<polygon fill="#63b8ff" stroke="#63b8ff" points="791.39,-137.03 801.63,-134.31 791.93,-130.05 791.39,-137.03"/>
</a>
</g>
</g>
<!-- Node5 -->
<g id="Node000005" class="node">
<title>Node5</title>
<g id="a_Node000005"><a xlink:href="DiskdFile_8cc.html" target="_top" xlink:title=" ">
<polygon fill="white" stroke="#666666" points="593.5,-96 432.5,-96 432.5,-66 593.5,-66 593.5,-96"/>
<text text-anchor="start" x="440.5" y="-84" font-family="Helvetica,sans-Serif" font-size="10.00">squid/src/DiskIO/DiskDaemon</text>
<text text-anchor="middle" x="513" y="-73" font-family="Helvetica,sans-Serif" font-size="10.00">/DiskdFile.cc</text>
</a>
</g>
</g>
<!-- Node1&#45;&gt;Node5 -->
<g id="edge4_Node000001_Node000005" class="edge">
<title>Node1&#45;&gt;Node5</title>
<g id="a_edge4_Node000001_Node000005"><a xlink:title=" ">
<path fill="none" stroke="#63b8ff" d="M823.55,-130.45C759.87,-120.51 662.29,-105.29 593.53,-94.56"/>
<polygon fill="#63b8ff" stroke="#63b8ff" points="823.05,-133.91 833.47,-131.99 824.13,-126.99 823.05,-133.91"/>
</a>
</g>
</g>
<!-- Node6 -->
<g id="Node000006" class="node">
<title>Node6</title>
<g id="a_Node000006"><a xlink:href="DiskThreadsDiskFile_8cc.html" target="_top" xlink:title=" ">
<polygon fill="white" stroke="#666666" points="701.5,-30 542.5,-30 542.5,0 701.5,0 701.5,-30"/>
<text text-anchor="start" x="550.5" y="-18" font-family="Helvetica,sans-Serif" font-size="10.00">squid/src/DiskIO/DiskThreads</text>
<text text-anchor="middle" x="622" y="-7" font-family="Helvetica,sans-Serif" font-size="10.00">/DiskThreadsDiskFile.cc</text>
</a>
</g>
</g>
<!-- Node1&#45;&gt;Node6 -->
<g id="edge5_Node000001_Node000006" class="edge">
<title>Node1&#45;&gt;Node6</title>
<g id="a_edge5_Node000001_Node000006"><a xlink:title=" ">
<path fill="none" stroke="#63b8ff" d="M791.49,-134.06C731.46,-128.06 661.69,-116.77 640,-96 622.11,-78.87 620.22,-48.07 620.85,-30.09"/>
<polygon fill="#63b8ff" stroke="#63b8ff" points="791.51,-137.58 801.8,-135.05 792.18,-130.61 791.51,-137.58"/>
</a>
</g>
</g>
<!-- Node7 -->
<g id="Node000007" class="node">
<title>Node7</title>
<g id="a_Node000007"><a xlink:href="DiskThreadsDiskFile_8h.html" target="_top" xlink:title=" ">
<polygon fill="white" stroke="#666666" points="808.5,-96 649.5,-96 649.5,-66 808.5,-66 808.5,-96"/>
<text text-anchor="start" x="657.5" y="-84" font-family="Helvetica,sans-Serif" font-size="10.00">squid/src/DiskIO/DiskThreads</text>
<text text-anchor="middle" x="729" y="-73" font-family="Helvetica,sans-Serif" font-size="10.00">/DiskThreadsDiskFile.h</text>
</a>
</g>
</g>
<!-- Node1&#45;&gt;Node7 -->
<g id="edge6_Node000001_Node000007" class="edge">
<title>Node1&#45;&gt;Node7</title>
<g id="a_edge6_Node000001_Node000007"><a xlink:title=" ">
<path fill="none" stroke="#63b8ff" d="M855.27,-128.46C829.7,-119.05 794.11,-105.95 767.23,-96.06"/>
<polygon fill="#63b8ff" stroke="#63b8ff" points="854.29,-131.83 864.88,-131.99 856.7,-125.26 854.29,-131.83"/>
</a>
</g>
</g>
<!-- Node9 -->
<g id="Node000009" class="node">
<title>Node9</title>
<g id="a_Node000009"><a xlink:href="IpcIoFile_8cc.html" target="_top" xlink:title=" ">
<polygon fill="white" stroke="#666666" points="949,-96 827,-96 827,-66 949,-66 949,-96"/>
<text text-anchor="start" x="835" y="-84" font-family="Helvetica,sans-Serif" font-size="10.00">squid/src/DiskIO/IpcIo</text>
<text text-anchor="middle" x="888" y="-73" font-family="Helvetica,sans-Serif" font-size="10.00">/IpcIoFile.cc</text>
</a>
</g>
</g>
<!-- Node1&#45;&gt;Node9 -->
<g id="edge9_Node000001_Node000009" class="edge">
<title>Node1&#45;&gt;Node9</title>
<g id="a_edge9_Node000001_Node000009"><a xlink:title=" ">
<path fill="none" stroke="#63b8ff" d="M888,-121.65C888,-113.36 888,-103.78 888,-96.11"/>
<polygon fill="#63b8ff" stroke="#63b8ff" points="884.5,-121.87 888,-131.87 891.5,-121.87 884.5,-121.87"/>
</a>
</g>
</g>
<!-- Node10 -->
<g id="Node000010" class="node">
<title>Node10</title>
<g id="a_Node000010"><a xlink:href="MmappedFile_8cc.html" target="_top" xlink:title=" ">
<polygon fill="white" stroke="#666666" points="1114.5,-96 967.5,-96 967.5,-66 1114.5,-66 1114.5,-96"/>
<text text-anchor="start" x="975.5" y="-84" font-family="Helvetica,sans-Serif" font-size="10.00">squid/src/DiskIO/Mmapped</text>
<text text-anchor="middle" x="1041" y="-73" font-family="Helvetica,sans-Serif" font-size="10.00">/MmappedFile.cc</text>
</a>
</g>
</g>
<!-- Node1&#45;&gt;Node10 -->
<g id="edge10_Node000001_Node000010" class="edge">
<title>Node1&#45;&gt;Node10</title>
<g id="a_edge10_Node000001_Node000010"><a xlink:title=" ">
<path fill="none" stroke="#63b8ff" d="M919.82,-128.33C944.41,-118.93 978.47,-105.91 1004.22,-96.06"/>
<polygon fill="#63b8ff" stroke="#63b8ff" points="918.34,-125.15 910.25,-131.99 920.84,-131.69 918.34,-125.15"/>
</a>
</g>
</g>
<!-- Node11 -->
<g id="Node000011" class="node">
<title>Node11</title>
<g id="a_Node000011"><a xlink:href="ReadRequest_8cc.html" target="_top" xlink:title=" ">
<polygon fill="white" stroke="#666666" points="1309,-90.5 1133,-90.5 1133,-71.5 1309,-71.5 1309,-90.5"/>
<text text-anchor="middle" x="1221" y="-78.5" font-family="Helvetica,sans-Serif" font-size="10.00">squid/src/DiskIO/ReadRequest.cc</text>
</a>
</g>
</g>
<!-- Node1&#45;&gt;Node11 -->
<g id="edge11_Node000001_Node000011" class="edge">
<title>Node1&#45;&gt;Node11</title>
<g id="a_edge11_Node000001_Node000011"><a xlink:title=" ">
<path fill="none" stroke="#63b8ff" d="M946.39,-130.24C1010.59,-118.96 1112.56,-101.05 1172.52,-90.52"/>
<polygon fill="#63b8ff" stroke="#63b8ff" points="945.66,-126.82 936.42,-131.99 946.88,-133.71 945.66,-126.82"/>
</a>
</g>
</g>
<!-- Node12 -->
<g id="Node000012" class="node">
<title>Node12</title>
<g id="a_Node000012"><a xlink:href="RockIoRequests_8h.html" target="_top" xlink:title=" ">
<polygon fill="white" stroke="#666666" points="1459,-96 1327,-96 1327,-66 1459,-66 1459,-96"/>
<text text-anchor="start" x="1335" y="-84" font-family="Helvetica,sans-Serif" font-size="10.00">squid/src/fs/rock/RockIo</text>
<text text-anchor="middle" x="1393" y="-73" font-family="Helvetica,sans-Serif" font-size="10.00">Requests.h</text>
</a>
</g>
</g>
<!-- Node1&#45;&gt;Node12 -->
<g id="edge12_Node000001_Node000012" class="edge">
<title>Node1&#45;&gt;Node12</title>
<g id="a_edge12_Node000001_Node000012"><a xlink:title=" ">
<path fill="none" stroke="#63b8ff" d="M984.49,-132.78C1071.82,-125.25 1203.86,-112.53 1318,-96 1320.88,-95.58 1323.83,-95.13 1326.8,-94.66"/>
<polygon fill="#63b8ff" stroke="#63b8ff" points="983.99,-129.31 974.33,-133.65 984.59,-136.28 983.99,-129.31"/>
</a>
</g>
</g>
<!-- Node15 -->
<g id="Node000015" class="node">
<title>Node15</title>
<g id="a_Node000015"><a xlink:href="RockSwapDir_8cc.html" target="_top" xlink:title=" ">
<polygon fill="white" stroke="#666666" points="1593.5,-30 1444.5,-30 1444.5,0 1593.5,0 1593.5,-30"/>
<text text-anchor="start" x="1452.5" y="-18" font-family="Helvetica,sans-Serif" font-size="10.00">squid/src/fs/rock/RockSwap</text>
<text text-anchor="middle" x="1519" y="-7" font-family="Helvetica,sans-Serif" font-size="10.00">Dir.cc</text>
</a>
</g>
</g>
<!-- Node1&#45;&gt;Node15 -->
<g id="edge16_Node000001_Node000015" class="edge">
<title>Node1&#45;&gt;Node15</title>
<g id="a_edge16_Node000001_Node000015"><a xlink:title=" ">
<path fill="none" stroke="#63b8ff" d="M984.49,-137.78C1138.73,-132.74 1427.65,-120.19 1468,-96 1492.87,-81.1 1507.65,-48.87 1514.46,-30.19"/>
<polygon fill="#63b8ff" stroke="#63b8ff" points="983.96,-134.3 974.08,-138.12 984.19,-141.29 983.96,-134.3"/>
</a>
</g>
</g>
<!-- Node16 -->
<g id="Node000016" class="node">
<title>Node16</title>
<g id="a_Node000016"><a xlink:href="UFSStoreState_8cc.html" target="_top" xlink:title=" ">
<polygon fill="white" stroke="#666666" points="1652.5,-96 1515.5,-96 1515.5,-66 1652.5,-66 1652.5,-96"/>
<text text-anchor="start" x="1523.5" y="-84" font-family="Helvetica,sans-Serif" font-size="10.00">squid/src/fs/ufs/UFSStore</text>
<text text-anchor="middle" x="1584" y="-73" font-family="Helvetica,sans-Serif" font-size="10.00">State.cc</text>
</a>
</g>
</g>
<!-- Node1&#45;&gt;Node16 -->
<g id="edge17_Node000001_Node000016" class="edge">
<title>Node1&#45;&gt;Node16</title>
<g id="a_edge17_Node000001_Node000016"><a xlink:title=" ">
<path fill="none" stroke="#63b8ff" d="M984.37,-136.33C1105.34,-130.44 1319.06,-117.9 1501,-96 1505.64,-95.44 1510.42,-94.8 1515.23,-94.11"/>
<polygon fill="#63b8ff" stroke="#63b8ff" points="983.85,-132.85 974.03,-136.83 984.19,-139.84 983.85,-132.85"/>
</a>
</g>
</g>
<!-- Node17 -->
<g id="Node000017" class="node">
<title>Node17</title>
<g id="a_Node000017"><a xlink:href="stub__libdiskio_8cc.html" target="_top" xlink:title=" ">
<polygon fill="white" stroke="#666666" points="1781.5,-96 1670.5,-96 1670.5,-66 1781.5,-66 1781.5,-96"/>
<text text-anchor="start" x="1678.5" y="-84" font-family="Helvetica,sans-Serif" font-size="10.00">squid/src/tests/stub</text>
<text text-anchor="middle" x="1726" y="-73" font-family="Helvetica,sans-Serif" font-size="10.00">_libdiskio.cc</text>
</a>
</g>
</g>
<!-- Node1&#45;&gt;Node17 -->
<g id="edge18_Node000001_Node000017" class="edge">
<title>Node1&#45;&gt;Node17</title>
<g id="a_edge18_Node000001_Node000017"><a xlink:title=" ">
<path fill="none" stroke="#63b8ff" d="M984.37,-139.84C1131.24,-137.73 1419.63,-129.27 1662,-96 1664.7,-95.63 1667.46,-95.2 1670.25,-94.74"/>
<polygon fill="#63b8ff" stroke="#63b8ff" points="983.99,-136.34 974.04,-139.98 984.09,-143.34 983.99,-136.34"/>
</a>
</g>
</g>
<!-- Node7&#45;&gt;Node6 -->
<g id="edge7_Node000007_Node000006" class="edge">
<title>Node7&#45;&gt;Node6</title>
<g id="a_edge7_Node000007_Node000006"><a xlink:title=" ">
<path fill="none" stroke="#63b8ff" d="M696.72,-60.69C680.21,-50.82 660.47,-39.01 645.43,-30.01"/>
<polygon fill="#63b8ff" stroke="#63b8ff" points="695.14,-63.83 705.52,-65.95 698.73,-57.82 695.14,-63.83"/>
</a>
</g>
</g>
<!-- Node8 -->
<g id="Node000008" class="node">
<title>Node8</title>
<g id="a_Node000008"><a xlink:href="DiskThreadsIOStrategy_8cc.html" target="_top" xlink:title=" ">
<polygon fill="white" stroke="#666666" points="878.5,-30 719.5,-30 719.5,0 878.5,0 878.5,-30"/>
<text text-anchor="start" x="727.5" y="-18" font-family="Helvetica,sans-Serif" font-size="10.00">squid/src/DiskIO/DiskThreads</text>
<text text-anchor="middle" x="799" y="-7" font-family="Helvetica,sans-Serif" font-size="10.00">/DiskThreadsIOStrategy.cc</text>
</a>
</g>
</g>
<!-- Node7&#45;&gt;Node8 -->
<g id="edge8_Node000007_Node000008" class="edge">
<title>Node7&#45;&gt;Node8</title>
<g id="a_edge8_Node000007_Node000008"><a xlink:title=" ">
<path fill="none" stroke="#63b8ff" d="M752.05,-58.92C762.37,-49.49 774.27,-38.61 783.51,-30.16"/>
<polygon fill="#63b8ff" stroke="#63b8ff" points="749.55,-56.47 744.54,-65.8 754.28,-61.63 749.55,-56.47"/>
</a>
</g>
</g>
<!-- Node13 -->
<g id="Node000013" class="node">
<title>Node13</title>
<g id="a_Node000013"><a xlink:href="RockIoRequests_8cc.html" target="_top" xlink:title=" ">
<polygon fill="white" stroke="#666666" points="1276,-30 1144,-30 1144,0 1276,0 1276,-30"/>
<text text-anchor="start" x="1152" y="-18" font-family="Helvetica,sans-Serif" font-size="10.00">squid/src/fs/rock/RockIo</text>
<text text-anchor="middle" x="1210" y="-7" font-family="Helvetica,sans-Serif" font-size="10.00">Requests.cc</text>
</a>
</g>
</g>
<!-- Node12&#45;&gt;Node13 -->
<g id="edge13_Node000012_Node000013" class="edge">
<title>Node12&#45;&gt;Node13</title>
<g id="a_edge13_Node000012_Node000013"><a xlink:title=" ">
<path fill="none" stroke="#63b8ff" d="M1343.22,-62.59C1313.96,-52.36 1277.46,-39.59 1250.07,-30.01"/>
<polygon fill="#63b8ff" stroke="#63b8ff" points="1342.25,-65.96 1352.84,-65.95 1344.56,-59.35 1342.25,-65.96"/>
</a>
</g>
</g>
<!-- Node14 -->
<g id="Node000014" class="node">
<title>Node14</title>
<g id="a_Node000014"><a xlink:href="RockIoState_8cc.html" target="_top" xlink:title=" ">
<polygon fill="white" stroke="#666666" points="1426,-30 1294,-30 1294,0 1426,0 1426,-30"/>
<text text-anchor="start" x="1302" y="-18" font-family="Helvetica,sans-Serif" font-size="10.00">squid/src/fs/rock/RockIo</text>
<text text-anchor="middle" x="1360" y="-7" font-family="Helvetica,sans-Serif" font-size="10.00">State.cc</text>
</a>
</g>
</g>
<!-- Node12&#45;&gt;Node14 -->
<g id="edge14_Node000012_Node000014" class="edge">
<title>Node12&#45;&gt;Node14</title>
<g id="a_edge14_Node000012_Node000014"><a xlink:title=" ">
<path fill="none" stroke="#63b8ff" d="M1380.98,-56.68C1376.39,-47.79 1371.32,-37.95 1367.3,-30.16"/>
<polygon fill="#63b8ff" stroke="#63b8ff" points="1377.98,-58.51 1385.68,-65.8 1384.2,-55.3 1377.98,-58.51"/>
</a>
</g>
</g>
<!-- Node12&#45;&gt;Node15 -->
<g id="edge15_Node000012_Node000015" class="edge">
<title>Node12&#45;&gt;Node15</title>
<g id="a_edge15_Node000012_Node000015"><a xlink:title=" ">
<path fill="none" stroke="#63b8ff" d="M1429.66,-61.38C1449.38,-51.36 1473.29,-39.22 1491.41,-30.01"/>
<polygon fill="#63b8ff" stroke="#63b8ff" points="1427.98,-58.31 1420.65,-65.95 1431.15,-64.55 1427.98,-58.31"/>
</a>
</g>
</g>
</g>
</svg>

<g id="navigator" transform="translate(0 0)" fill="#404254">
  <rect fill="#f2f5e9" fill-opacity="0.5" stroke="#606060" stroke-width=".5" x="0" y="0" width="60" height="60"/>
  <use id="zoomplus" xlink:href="#zoomPlus" x="17" y="9" onmousedown="handleZoom(evt,'in')"/>
  <use id="zoomminus" xlink:href="#zoomMin" x="42" y="9" onmousedown="handleZoom(evt,'out')"/>
  <use id="reset" xlink:href="#resetDef" x="30" y="36" onmousedown="handleReset()"/>
   <use id="arrowup" xlink:href="#arrowUp" x="0" y="0" onmousedown="handlePan(0,-1)"/>
  <use id="arrowright" xlink:href="#arrowRight" x="0" y="0" onmousedown="handlePan(1,0)"/>
  <use id="arrowdown" xlink:href="#arrowDown" x="0" y="0" onmousedown="handlePan(0,1)"/>
  <use id="arrowleft" xlink:href="#arrowLeft" x="0" y="0" onmousedown="handlePan(-1,0)"/>
</g>
<svg viewBox="0 0 15 15" width="100%" height="30px" preserveAspectRatio="xMaxYMin meet">
 <g id="arrow_out" transform="scale(0.3 0.3)">
  <a xlink:href="ReadRequest_8h__dep__incl_org.svg" target="_base">
   <rect id="button" ry="5" rx="5" y="6" x="6" height="38" width="38"
        fill="#f2f5e9" fill-opacity="0.5" stroke="#606060" stroke-width="1.0"/>
   <path id="arrow"
     d="M 11.500037,31.436501 C 11.940474,20.09759 22.043105,11.32322 32.158766,21.979434 L 37.068811,17.246167 C 37.068811,17.246167 37.088388,32 37.088388,32 L 22.160133,31.978069 C 22.160133,31.978069 26.997745,27.140456 26.997745,27.140456 C 18.528582,18.264221 13.291696,25.230495 11.500037,31.436501 z"
     style="fill:#404040;"/>
  </a>
 </g>
</svg>

<style type='text/css'>
<![CDATA[
[data-mouse-over-selected='false'] { opacity: 0.7; }
[data-mouse-over-selected='true']  { opacity: 1.0; }
]]>
</style>
<script type="application/ecmascript"><![CDATA[
document.addEventListener('DOMContentLoaded', (event) => {
  highlightEdges();
  highlightAdjacentNodes();
});
]]></script>
</svg>
