<?xml version="1.0" encoding="UTF-8" standalone="no"?>
<!DOCTYPE svg PUBLIC "-//W3C//DTD SVG 1.1//EN"
 "http://www.w3.org/Graphics/SVG/1.1/DTD/svg11.dtd">
<!-- Generated by graphviz version 2.43.0 (0)
 -->
<!-- Title: squid/src/base/RegexPattern.cc Pages: 1 -->
<svg width="4129pt" height="302pt"
 viewBox="0.00 0.00 4129.00 302.00" xmlns="http://www.w3.org/2000/svg" xmlns:xlink="http://www.w3.org/1999/xlink">
<g id="graph0" class="graph" transform="scale(1 1) rotate(0) translate(4 298)">
<title>squid/src/base/RegexPattern.cc</title>
<!-- Node1 -->
<g id="Node000001" class="node">
<title>Node1</title>
<g id="a_Node000001"><a xlink:title=" ">
<polygon fill="#999999" stroke="#666666" points="3837,-294 3669,-294 3669,-275 3837,-275 3837,-294"/>
<text text-anchor="middle" x="3753" y="-282" font-family="Helvetica,sans-Serif" font-size="10.00">squid/src/base/RegexPattern.cc</text>
</a>
</g>
</g>
<!-- Node2 -->
<g id="Node000002" class="node">
<title>Node2</title>
<g id="a_Node000002"><a xlink:href="squid_8h.html" target="_top" xlink:title=" ">
<polygon fill="white" stroke="#666666" points="1652,-239 1600,-239 1600,-220 1652,-220 1652,-239"/>
<text text-anchor="middle" x="1626" y="-227" font-family="Helvetica,sans-Serif" font-size="10.00">squid.h</text>
</a>
</g>
</g>
<!-- Node1&#45;&gt;Node2 -->
<g id="edge1_Node000001_Node000002" class="edge">
<title>Node1&#45;&gt;Node2</title>
<g id="a_edge1_Node000001_Node000002"><a xlink:title=" ">
<path fill="none" stroke="#63b8ff" d="M3668.96,-281.41C3309.16,-272.44 1905.75,-237.47 1662.14,-231.4"/>
<polygon fill="#63b8ff" stroke="#63b8ff" points="1662.14,-227.9 1652.06,-231.15 1661.97,-234.9 1662.14,-227.9"/>
</a>
</g>
</g>
<!-- Node44 -->
<g id="Node000044" class="node">
<title>Node44</title>
<g id="a_Node000044"><a xlink:href="RegexPattern_8h.html" target="_top" xlink:title=" ">
<polygon fill="white" stroke="#666666" points="3599.5,-239 3482.5,-239 3482.5,-220 3599.5,-220 3599.5,-239"/>
<text text-anchor="middle" x="3541" y="-227" font-family="Helvetica,sans-Serif" font-size="10.00">base/RegexPattern.h</text>
</a>
</g>
</g>
<!-- Node1&#45;&gt;Node44 -->
<g id="edge30_Node000001_Node000044" class="edge">
<title>Node1&#45;&gt;Node44</title>
<g id="a_edge30_Node000001_Node000044"><a xlink:title=" ">
<path fill="none" stroke="#63b8ff" d="M3718.94,-274.98C3682.58,-265.89 3624.83,-251.46 3585.03,-241.51"/>
<polygon fill="#63b8ff" stroke="#63b8ff" points="3585.88,-238.11 3575.33,-239.08 3584.18,-244.9 3585.88,-238.11"/>
</a>
</g>
</g>
<!-- Node49 -->
<g id="Node000049" class="node">
<title>Node49</title>
<g id="a_Node000049"><a xlink:href="TextException_8h.html" target="_top" xlink:title=" ">
<polygon fill="white" stroke="#666666" points="3765,-129 3645,-129 3645,-110 3765,-110 3765,-129"/>
<text text-anchor="middle" x="3705" y="-117" font-family="Helvetica,sans-Serif" font-size="10.00">base/TextException.h</text>
</a>
</g>
</g>
<!-- Node1&#45;&gt;Node49 -->
<g id="edge51_Node000001_Node000049" class="edge">
<title>Node1&#45;&gt;Node49</title>
<g id="a_edge51_Node000001_Node000049"><a xlink:title=" ">
<path fill="none" stroke="#63b8ff" d="M3752.83,-274.85C3752.19,-254.84 3749.08,-204.07 3734,-165 3730.19,-155.12 3723.96,-145.16 3718.26,-137.17"/>
<polygon fill="#63b8ff" stroke="#63b8ff" points="3721,-134.99 3712.19,-129.1 3715.4,-139.19 3721,-134.99"/>
</a>
</g>
</g>
<!-- Node53 -->
<g id="Node000053" class="node">
<title>Node53</title>
<g id="a_Node000053"><a xlink:href="debug_2Stream_8h.html" target="_top" xlink:title=" ">
<polygon fill="white" stroke="#666666" points="3879,-129 3785,-129 3785,-110 3879,-110 3879,-129"/>
<text text-anchor="middle" x="3832" y="-117" font-family="Helvetica,sans-Serif" font-size="10.00">debug/Stream.h</text>
</a>
</g>
</g>
<!-- Node1&#45;&gt;Node53 -->
<g id="edge52_Node000001_Node000053" class="edge">
<title>Node1&#45;&gt;Node53</title>
<g id="a_edge52_Node000001_Node000053"><a xlink:title=" ">
<path fill="none" stroke="#63b8ff" d="M3757.25,-274.74C3769.73,-248.98 3806.49,-173.13 3823.36,-138.33"/>
<polygon fill="#63b8ff" stroke="#63b8ff" points="3826.52,-139.83 3827.73,-129.31 3820.22,-136.78 3826.52,-139.83"/>
</a>
</g>
</g>
<!-- Node55 -->
<g id="Node000055" class="node">
<title>Node55</title>
<g id="a_Node000055"><a xlink:title=" ">
<polygon fill="#e0e0e0" stroke="#999999" points="4121,-74 4061,-74 4061,-55 4121,-55 4121,-74"/>
<text text-anchor="middle" x="4091" y="-62" font-family="Helvetica,sans-Serif" font-size="10.00">iostream</text>
</a>
</g>
</g>
<!-- Node1&#45;&gt;Node55 -->
<g id="edge56_Node000001_Node000055" class="edge">
<title>Node1&#45;&gt;Node55</title>
<g id="a_edge56_Node000001_Node000055"><a xlink:title=" ">
<path fill="none" stroke="#63b8ff" d="M3766.25,-274.95C3817.67,-241.79 4004.33,-121.4 4068.87,-79.77"/>
<polygon fill="#63b8ff" stroke="#63b8ff" points="4070.97,-82.59 4077.47,-74.22 4067.17,-76.7 4070.97,-82.59"/>
</a>
</g>
</g>
<!-- Node80 -->
<g id="Node000080" class="node">
<title>Node80</title>
<g id="a_Node000080"><a xlink:href="sbuf_2Stream_8h.html" target="_top" xlink:title=" ">
<polygon fill="white" stroke="#666666" points="3702.5,-239 3617.5,-239 3617.5,-220 3702.5,-220 3702.5,-239"/>
<text text-anchor="middle" x="3660" y="-227" font-family="Helvetica,sans-Serif" font-size="10.00">sbuf/Stream.h</text>
</a>
</g>
</g>
<!-- Node1&#45;&gt;Node80 -->
<g id="edge53_Node000001_Node000080" class="edge">
<title>Node1&#45;&gt;Node80</title>
<g id="a_edge53_Node000001_Node000080"><a xlink:title=" ">
<path fill="none" stroke="#63b8ff" d="M3738.06,-274.98C3723.5,-266.69 3701.13,-253.94 3684.07,-244.22"/>
<polygon fill="#63b8ff" stroke="#63b8ff" points="3685.64,-241.08 3675.21,-239.17 3682.17,-247.16 3685.64,-241.08"/>
</a>
</g>
</g>
<!-- Node67 -->
<g id="Node000067" class="node">
<title>Node67</title>
<g id="a_Node000067"><a xlink:title=" ">
<polygon fill="#e0e0e0" stroke="#999999" points="3980.5,-239 3935.5,-239 3935.5,-220 3980.5,-220 3980.5,-239"/>
<text text-anchor="middle" x="3958" y="-227" font-family="Helvetica,sans-Serif" font-size="10.00">utility</text>
</a>
</g>
</g>
<!-- Node1&#45;&gt;Node67 -->
<g id="edge57_Node000001_Node000067" class="edge">
<title>Node1&#45;&gt;Node67</title>
<g id="a_edge57_Node000001_Node000067"><a xlink:title=" ">
<path fill="none" stroke="#63b8ff" d="M3785.94,-274.98C3824.22,-265.09 3887,-248.86 3925.21,-238.98"/>
<polygon fill="#63b8ff" stroke="#63b8ff" points="3926.49,-242.26 3935.3,-236.37 3924.74,-235.48 3926.49,-242.26"/>
</a>
</g>
</g>
<!-- Node3 -->
<g id="Node000003" class="node">
<title>Node3</title>
<g id="a_Node000003"><a xlink:href="autoconf_8h.html" target="_top" xlink:title=" ">
<polygon fill="white" stroke="#666666" points="1527,-184 1459,-184 1459,-165 1527,-165 1527,-184"/>
<text text-anchor="middle" x="1493" y="-172" font-family="Helvetica,sans-Serif" font-size="10.00">autoconf.h</text>
</a>
</g>
</g>
<!-- Node2&#45;&gt;Node3 -->
<g id="edge2_Node000002_Node000003" class="edge">
<title>Node2&#45;&gt;Node3</title>
<g id="a_edge2_Node000002_Node000003"><a xlink:title=" ">
<path fill="none" stroke="#63b8ff" d="M1604.63,-219.98C1582.85,-211.3 1548.84,-197.75 1524.08,-187.88"/>
<polygon fill="#63b8ff" stroke="#63b8ff" points="1525.34,-184.62 1514.76,-184.17 1522.75,-191.12 1525.34,-184.62"/>
</a>
</g>
</g>
<!-- Node4 -->
<g id="Node000004" class="node">
<title>Node4</title>
<g id="a_Node000004"><a xlink:href="version_8h.html" target="_top" xlink:title=" ">
<polygon fill="white" stroke="#666666" points="1607,-184 1545,-184 1545,-165 1607,-165 1607,-184"/>
<text text-anchor="middle" x="1576" y="-172" font-family="Helvetica,sans-Serif" font-size="10.00">version.h</text>
</a>
</g>
</g>
<!-- Node2&#45;&gt;Node4 -->
<g id="edge3_Node000002_Node000004" class="edge">
<title>Node2&#45;&gt;Node4</title>
<g id="a_edge3_Node000002_Node000004"><a xlink:title=" ">
<path fill="none" stroke="#63b8ff" d="M1617.74,-219.75C1610.54,-212.11 1599.89,-200.82 1591.15,-191.56"/>
<polygon fill="#63b8ff" stroke="#63b8ff" points="1593.51,-188.96 1584.1,-184.09 1588.42,-193.76 1593.51,-188.96"/>
</a>
</g>
</g>
<!-- Node5 -->
<g id="Node000005" class="node">
<title>Node5</title>
<g id="a_Node000005"><a xlink:href="compat_8h.html" target="_top" xlink:title=" ">
<polygon fill="white" stroke="#666666" points="1727,-184 1625,-184 1625,-165 1727,-165 1727,-184"/>
<text text-anchor="middle" x="1676" y="-172" font-family="Helvetica,sans-Serif" font-size="10.00">compat/compat.h</text>
</a>
</g>
</g>
<!-- Node2&#45;&gt;Node5 -->
<g id="edge4_Node000002_Node000005" class="edge">
<title>Node2&#45;&gt;Node5</title>
<g id="a_edge4_Node000002_Node000005"><a xlink:title=" ">
<path fill="none" stroke="#63b8ff" d="M1634.26,-219.75C1641.46,-212.11 1652.11,-200.82 1660.85,-191.56"/>
<polygon fill="#63b8ff" stroke="#63b8ff" points="1663.58,-193.76 1667.9,-184.09 1658.49,-188.96 1663.58,-193.76"/>
</a>
</g>
</g>
<!-- Node6 -->
<g id="Node000006" class="node">
<title>Node6</title>
<g id="a_Node000006"><a xlink:href="osdetect_8h.html" target="_top" xlink:title=" ">
<polygon fill="white" stroke="#666666" points="3031.5,-129 2924.5,-129 2924.5,-110 3031.5,-110 3031.5,-129"/>
<text text-anchor="middle" x="2978" y="-117" font-family="Helvetica,sans-Serif" font-size="10.00">compat/osdetect.h</text>
</a>
</g>
</g>
<!-- Node5&#45;&gt;Node6 -->
<g id="edge5_Node000005_Node000006" class="edge">
<title>Node5&#45;&gt;Node6</title>
<g id="a_edge5_Node000005_Node000006"><a xlink:title=" ">
<path fill="none" stroke="#63b8ff" d="M1727.15,-173.46C1895.45,-172.95 2447.35,-168.24 2914.44,-128.94"/>
<polygon fill="#63b8ff" stroke="#63b8ff" points="2914.75,-132.43 2924.42,-128.09 2914.16,-125.45 2914.75,-132.43"/>
</a>
</g>
</g>
<!-- Node7 -->
<g id="Node000007" class="node">
<title>Node7</title>
<g id="a_Node000007"><a xlink:href="fdsetsize_8h.html" target="_top" xlink:title=" ">
<polygon fill="white" stroke="#666666" points="3160,-129 3050,-129 3050,-110 3160,-110 3160,-129"/>
<text text-anchor="middle" x="3105" y="-117" font-family="Helvetica,sans-Serif" font-size="10.00">compat/fdsetsize.h</text>
</a>
</g>
</g>
<!-- Node5&#45;&gt;Node7 -->
<g id="edge6_Node000005_Node000007" class="edge">
<title>Node5&#45;&gt;Node7</title>
<g id="a_edge6_Node000005_Node000007"><a xlink:title=" ">
<path fill="none" stroke="#63b8ff" d="M1727.2,-173.62C1906.21,-173.68 2520.86,-170.68 3039.41,-128.94"/>
<polygon fill="#63b8ff" stroke="#63b8ff" points="3040.04,-132.4 3049.72,-128.1 3039.47,-125.42 3040.04,-132.4"/>
</a>
</g>
</g>
<!-- Node8 -->
<g id="Node000008" class="node">
<title>Node8</title>
<g id="a_Node000008"><a xlink:href="types_8h.html" target="_top" xlink:title=" ">
<polygon fill="#fff0f0" stroke="red" points="92,-129 0,-129 0,-110 92,-110 92,-129"/>
<text text-anchor="middle" x="46" y="-117" font-family="Helvetica,sans-Serif" font-size="10.00">compat/types.h</text>
</a>
</g>
</g>
<!-- Node5&#45;&gt;Node8 -->
<g id="edge7_Node000005_Node000008" class="edge">
<title>Node5&#45;&gt;Node8</title>
<g id="a_edge7_Node000005_Node000008"><a xlink:title=" ">
<path fill="none" stroke="#63b8ff" d="M1624.98,-165.86C1621.95,-165.53 1618.94,-165.24 1616,-165 948.19,-109.95 773.67,-187.75 102.58,-129"/>
<polygon fill="#63b8ff" stroke="#63b8ff" points="102.43,-125.47 92.16,-128.08 101.81,-132.44 102.43,-125.47"/>
</a>
</g>
</g>
<!-- Node10 -->
<g id="Node000010" class="node">
<title>Node10</title>
<g id="a_Node000010"><a xlink:href="aix_8h.html" target="_top" xlink:title=" ">
<polygon fill="white" stroke="#666666" points="205.5,-129 110.5,-129 110.5,-110 205.5,-110 205.5,-129"/>
<text text-anchor="middle" x="158" y="-117" font-family="Helvetica,sans-Serif" font-size="10.00">compat/os/aix.h</text>
</a>
</g>
</g>
<!-- Node5&#45;&gt;Node10 -->
<g id="edge8_Node000005_Node000010" class="edge">
<title>Node5&#45;&gt;Node10</title>
<g id="a_edge8_Node000005_Node000010"><a xlink:title=" ">
<path fill="none" stroke="#63b8ff" d="M1624.98,-165.87C1621.95,-165.54 1618.94,-165.24 1616,-165 998.62,-113.51 837.25,-182.29 215.64,-128.91"/>
<polygon fill="#63b8ff" stroke="#63b8ff" points="215.8,-125.41 205.53,-128.03 215.19,-132.38 215.8,-125.41"/>
</a>
</g>
</g>
<!-- Node11 -->
<g id="Node000011" class="node">
<title>Node11</title>
<g id="a_Node000011"><a xlink:href="android_8h.html" target="_top" xlink:title=" ">
<polygon fill="white" stroke="#666666" points="340,-129 224,-129 224,-110 340,-110 340,-129"/>
<text text-anchor="middle" x="282" y="-117" font-family="Helvetica,sans-Serif" font-size="10.00">compat/os/android.h</text>
</a>
</g>
</g>
<!-- Node5&#45;&gt;Node11 -->
<g id="edge9_Node000005_Node000011" class="edge">
<title>Node5&#45;&gt;Node11</title>
<g id="a_edge9_Node000005_Node000011"><a xlink:title=" ">
<path fill="none" stroke="#63b8ff" d="M1624.98,-165.87C1621.95,-165.54 1618.94,-165.25 1616,-165 1057.96,-117.7 912.36,-171.86 350.06,-128.99"/>
<polygon fill="#63b8ff" stroke="#63b8ff" points="350.31,-125.5 340.07,-128.22 349.77,-132.48 350.31,-125.5"/>
</a>
</g>
</g>
<!-- Node12 -->
<g id="Node000012" class="node">
<title>Node12</title>
<g id="a_Node000012"><a xlink:href="dragonfly_8h.html" target="_top" xlink:title=" ">
<polygon fill="white" stroke="#666666" points="482,-129 358,-129 358,-110 482,-110 482,-129"/>
<text text-anchor="middle" x="420" y="-117" font-family="Helvetica,sans-Serif" font-size="10.00">compat/os/dragonfly.h</text>
</a>
</g>
</g>
<!-- Node5&#45;&gt;Node12 -->
<g id="edge10_Node000005_Node000012" class="edge">
<title>Node5&#45;&gt;Node12</title>
<g id="a_edge10_Node000005_Node000012"><a xlink:title=" ">
<path fill="none" stroke="#63b8ff" d="M1624.98,-165.89C1621.95,-165.55 1618.93,-165.25 1616,-165 1120.89,-122.14 991.53,-166.18 492.3,-129.02"/>
<polygon fill="#63b8ff" stroke="#63b8ff" points="492.54,-125.53 482.31,-128.27 492.02,-132.51 492.54,-125.53"/>
</a>
</g>
</g>
<!-- Node13 -->
<g id="Node000013" class="node">
<title>Node13</title>
<g id="a_Node000013"><a xlink:href="freebsd_8h.html" target="_top" xlink:title=" ">
<polygon fill="white" stroke="#666666" points="616,-129 500,-129 500,-110 616,-110 616,-129"/>
<text text-anchor="middle" x="558" y="-117" font-family="Helvetica,sans-Serif" font-size="10.00">compat/os/freebsd.h</text>
</a>
</g>
</g>
<!-- Node5&#45;&gt;Node13 -->
<g id="edge11_Node000005_Node000013" class="edge">
<title>Node5&#45;&gt;Node13</title>
<g id="a_edge11_Node000005_Node000013"><a xlink:title=" ">
<path fill="none" stroke="#63b8ff" d="M1624.98,-165.9C1621.94,-165.57 1618.93,-165.26 1616,-165 1180.31,-126.33 1066.01,-164.19 626.19,-129.01"/>
<polygon fill="#63b8ff" stroke="#63b8ff" points="626.32,-125.51 616.07,-128.19 625.76,-132.49 626.32,-125.51"/>
</a>
</g>
</g>
<!-- Node14 -->
<g id="Node000014" class="node">
<title>Node14</title>
<g id="a_Node000014"><a xlink:href="hpux_8h.html" target="_top" xlink:title=" ">
<polygon fill="white" stroke="#666666" points="738,-129 634,-129 634,-110 738,-110 738,-129"/>
<text text-anchor="middle" x="686" y="-117" font-family="Helvetica,sans-Serif" font-size="10.00">compat/os/hpux.h</text>
</a>
</g>
</g>
<!-- Node5&#45;&gt;Node14 -->
<g id="edge12_Node000005_Node000014" class="edge">
<title>Node5&#45;&gt;Node14</title>
<g id="a_edge12_Node000005_Node000014"><a xlink:title=" ">
<path fill="none" stroke="#63b8ff" d="M1624.98,-165.92C1621.94,-165.58 1618.93,-165.27 1616,-165 1234.34,-130.15 1133.71,-163.14 748.24,-129.01"/>
<polygon fill="#63b8ff" stroke="#63b8ff" points="748.48,-125.52 738.21,-128.11 747.85,-132.49 748.48,-125.52"/>
</a>
</g>
</g>
<!-- Node15 -->
<g id="Node000015" class="node">
<title>Node15</title>
<g id="a_Node000015"><a xlink:href="linux_8h.html" target="_top" xlink:title=" ">
<polygon fill="white" stroke="#666666" points="860,-129 756,-129 756,-110 860,-110 860,-129"/>
<text text-anchor="middle" x="808" y="-117" font-family="Helvetica,sans-Serif" font-size="10.00">compat/os/linux.h</text>
</a>
</g>
</g>
<!-- Node5&#45;&gt;Node15 -->
<g id="edge13_Node000005_Node000015" class="edge">
<title>Node5&#45;&gt;Node15</title>
<g id="a_edge13_Node000005_Node000015"><a xlink:title=" ">
<path fill="none" stroke="#63b8ff" d="M1624.97,-165.94C1621.94,-165.6 1618.93,-165.28 1616,-165 1288.49,-133.98 1201.71,-159.43 870.58,-129.05"/>
<polygon fill="#63b8ff" stroke="#63b8ff" points="870.49,-125.53 860.21,-128.09 869.84,-132.5 870.49,-125.53"/>
</a>
</g>
</g>
<!-- Node16 -->
<g id="Node000016" class="node">
<title>Node16</title>
<g id="a_Node000016"><a xlink:href="macosx_8h.html" target="_top" xlink:title=" ">
<polygon fill="white" stroke="#666666" points="996,-129 878,-129 878,-110 996,-110 996,-129"/>
<text text-anchor="middle" x="937" y="-117" font-family="Helvetica,sans-Serif" font-size="10.00">compat/os/macosx.h</text>
</a>
</g>
</g>
<!-- Node5&#45;&gt;Node16 -->
<g id="edge14_Node000005_Node000016" class="edge">
<title>Node5&#45;&gt;Node16</title>
<g id="a_edge14_Node000005_Node000016"><a xlink:title=" ">
<path fill="none" stroke="#63b8ff" d="M1624.97,-165.98C1621.94,-165.62 1618.93,-165.29 1616,-165 1348.63,-138.23 1277.61,-153.5 1006.46,-129.07"/>
<polygon fill="#63b8ff" stroke="#63b8ff" points="1006.59,-125.57 996.31,-128.15 1005.95,-132.54 1006.59,-125.57"/>
</a>
</g>
</g>
<!-- Node17 -->
<g id="Node000017" class="node">
<title>Node17</title>
<g id="a_Node000017"><a xlink:href="mingw_8h.html" target="_top" xlink:title=" ">
<polygon fill="white" stroke="#666666" points="1126,-129 1014,-129 1014,-110 1126,-110 1126,-129"/>
<text text-anchor="middle" x="1070" y="-117" font-family="Helvetica,sans-Serif" font-size="10.00">compat/os/mingw.h</text>
</a>
</g>
</g>
<!-- Node5&#45;&gt;Node17 -->
<g id="edge15_Node000005_Node000017" class="edge">
<title>Node5&#45;&gt;Node17</title>
<g id="a_edge15_Node000005_Node000017"><a xlink:title=" ">
<path fill="none" stroke="#63b8ff" d="M1624.97,-166.04C1621.93,-165.67 1618.93,-165.32 1616,-165 1406.09,-142.3 1349.94,-150.64 1136.31,-129.08"/>
<polygon fill="#63b8ff" stroke="#63b8ff" points="1136.65,-125.59 1126.35,-128.06 1135.94,-132.56 1136.65,-125.59"/>
</a>
</g>
</g>
<!-- Node18 -->
<g id="Node000018" class="node">
<title>Node18</title>
<g id="a_Node000018"><a xlink:href="mswindows_8h.html" target="_top" xlink:title=" ">
<polygon fill="white" stroke="#666666" points="1281.5,-129 1144.5,-129 1144.5,-110 1281.5,-110 1281.5,-129"/>
<text text-anchor="middle" x="1213" y="-117" font-family="Helvetica,sans-Serif" font-size="10.00">compat/os/mswindows.h</text>
</a>
</g>
</g>
<!-- Node5&#45;&gt;Node18 -->
<g id="edge16_Node000005_Node000018" class="edge">
<title>Node5&#45;&gt;Node18</title>
<g id="a_edge16_Node000005_Node000018"><a xlink:title=" ">
<path fill="none" stroke="#63b8ff" d="M1624.95,-166.16C1621.92,-165.76 1618.92,-165.37 1616,-165 1615,-164.87 1408.59,-142.09 1291.6,-129.18"/>
<polygon fill="#63b8ff" stroke="#63b8ff" points="1291.93,-125.69 1281.61,-128.07 1291.16,-132.65 1291.93,-125.69"/>
</a>
</g>
</g>
<!-- Node19 -->
<g id="Node000019" class="node">
<title>Node19</title>
<g id="a_Node000019"><a xlink:href="netbsd_8h.html" target="_top" xlink:title=" ">
<polygon fill="white" stroke="#666666" points="1412.5,-129 1299.5,-129 1299.5,-110 1412.5,-110 1412.5,-129"/>
<text text-anchor="middle" x="1356" y="-117" font-family="Helvetica,sans-Serif" font-size="10.00">compat/os/netbsd.h</text>
</a>
</g>
</g>
<!-- Node5&#45;&gt;Node19 -->
<g id="edge17_Node000005_Node000019" class="edge">
<title>Node5&#45;&gt;Node19</title>
<g id="a_edge17_Node000005_Node000019"><a xlink:title=" ">
<path fill="none" stroke="#63b8ff" d="M1624.94,-165.04C1568.56,-155.71 1477.81,-140.68 1417.55,-130.69"/>
<polygon fill="#63b8ff" stroke="#63b8ff" points="1417.84,-127.2 1407.41,-129.01 1416.7,-134.1 1417.84,-127.2"/>
</a>
</g>
</g>
<!-- Node20 -->
<g id="Node000020" class="node">
<title>Node20</title>
<g id="a_Node000020"><a xlink:href="openbsd_8h.html" target="_top" xlink:title=" ">
<polygon fill="white" stroke="#666666" points="1551.5,-129 1430.5,-129 1430.5,-110 1551.5,-110 1551.5,-129"/>
<text text-anchor="middle" x="1491" y="-117" font-family="Helvetica,sans-Serif" font-size="10.00">compat/os/openbsd.h</text>
</a>
</g>
</g>
<!-- Node5&#45;&gt;Node20 -->
<g id="edge18_Node000005_Node000020" class="edge">
<title>Node5&#45;&gt;Node20</title>
<g id="a_edge18_Node000005_Node000020"><a xlink:title=" ">
<path fill="none" stroke="#63b8ff" d="M1646.28,-164.98C1614.95,-156.01 1565.43,-141.82 1530.76,-131.89"/>
<polygon fill="#63b8ff" stroke="#63b8ff" points="1531.53,-128.47 1520.96,-129.08 1529.61,-135.2 1531.53,-128.47"/>
</a>
</g>
</g>
<!-- Node21 -->
<g id="Node000021" class="node">
<title>Node21</title>
<g id="a_Node000021"><a xlink:href="os2_8h.html" target="_top" xlink:title=" ">
<polygon fill="white" stroke="#666666" points="1666.5,-129 1569.5,-129 1569.5,-110 1666.5,-110 1666.5,-129"/>
<text text-anchor="middle" x="1618" y="-117" font-family="Helvetica,sans-Serif" font-size="10.00">compat/os/os2.h</text>
</a>
</g>
</g>
<!-- Node5&#45;&gt;Node21 -->
<g id="edge19_Node000005_Node000021" class="edge">
<title>Node5&#45;&gt;Node21</title>
<g id="a_edge19_Node000005_Node000021"><a xlink:title=" ">
<path fill="none" stroke="#63b8ff" d="M1666.68,-164.98C1658.19,-157.23 1645.44,-145.58 1635.12,-136.14"/>
<polygon fill="#63b8ff" stroke="#63b8ff" points="1637.23,-133.33 1627.49,-129.17 1632.51,-138.5 1637.23,-133.33"/>
</a>
</g>
</g>
<!-- Node22 -->
<g id="Node000022" class="node">
<title>Node22</title>
<g id="a_Node000022"><a xlink:href="qnx_8h.html" target="_top" xlink:title=" ">
<polygon fill="white" stroke="#666666" points="1783,-129 1685,-129 1685,-110 1783,-110 1783,-129"/>
<text text-anchor="middle" x="1734" y="-117" font-family="Helvetica,sans-Serif" font-size="10.00">compat/os/qnx.h</text>
</a>
</g>
</g>
<!-- Node5&#45;&gt;Node22 -->
<g id="edge20_Node000005_Node000022" class="edge">
<title>Node5&#45;&gt;Node22</title>
<g id="a_edge20_Node000005_Node000022"><a xlink:title=" ">
<path fill="none" stroke="#63b8ff" d="M1685.32,-164.98C1693.81,-157.23 1706.56,-145.58 1716.88,-136.14"/>
<polygon fill="#63b8ff" stroke="#63b8ff" points="1719.49,-138.5 1724.51,-129.17 1714.77,-133.33 1719.49,-138.5"/>
</a>
</g>
</g>
<!-- Node23 -->
<g id="Node000023" class="node">
<title>Node23</title>
<g id="a_Node000023"><a xlink:href="solaris_8h.html" target="_top" xlink:title=" ">
<polygon fill="white" stroke="#666666" points="1913,-129 1801,-129 1801,-110 1913,-110 1913,-129"/>
<text text-anchor="middle" x="1857" y="-117" font-family="Helvetica,sans-Serif" font-size="10.00">compat/os/solaris.h</text>
</a>
</g>
</g>
<!-- Node5&#45;&gt;Node23 -->
<g id="edge21_Node000005_Node000023" class="edge">
<title>Node5&#45;&gt;Node23</title>
<g id="a_edge21_Node000005_Node000023"><a xlink:title=" ">
<path fill="none" stroke="#63b8ff" d="M1705.08,-164.98C1735.6,-156.05 1783.76,-141.94 1817.66,-132.02"/>
<polygon fill="#63b8ff" stroke="#63b8ff" points="1819.08,-135.25 1827.69,-129.08 1817.11,-128.53 1819.08,-135.25"/>
</a>
</g>
</g>
<!-- Node24 -->
<g id="Node000024" class="node">
<title>Node24</title>
<g id="a_Node000024"><a xlink:href="sunos_8h.html" target="_top" xlink:title=" ">
<polygon fill="white" stroke="#666666" points="2039,-129 1931,-129 1931,-110 2039,-110 2039,-129"/>
<text text-anchor="middle" x="1985" y="-117" font-family="Helvetica,sans-Serif" font-size="10.00">compat/os/sunos.h</text>
</a>
</g>
</g>
<!-- Node5&#45;&gt;Node24 -->
<g id="edge22_Node000005_Node000024" class="edge">
<title>Node5&#45;&gt;Node24</title>
<g id="a_edge22_Node000005_Node000024"><a xlink:title=" ">
<path fill="none" stroke="#63b8ff" d="M1725.65,-164.98C1779.96,-155.67 1867.02,-140.74 1925.09,-130.78"/>
<polygon fill="#63b8ff" stroke="#63b8ff" points="1925.96,-134.18 1935.22,-129.04 1924.77,-127.28 1925.96,-134.18"/>
</a>
</g>
</g>
<!-- Node25 -->
<g id="Node000025" class="node">
<title>Node25</title>
<g id="a_Node000025"><a xlink:href="assert_8h.html" target="_top" xlink:title=" ">
<polygon fill="white" stroke="#666666" points="2152.5,-129 2057.5,-129 2057.5,-110 2152.5,-110 2152.5,-129"/>
<text text-anchor="middle" x="2105" y="-117" font-family="Helvetica,sans-Serif" font-size="10.00">compat/assert.h</text>
</a>
</g>
</g>
<!-- Node5&#45;&gt;Node25 -->
<g id="edge23_Node000005_Node000025" class="edge">
<title>Node5&#45;&gt;Node25</title>
<g id="a_edge23_Node000005_Node000025"><a xlink:title=" ">
<path fill="none" stroke="#63b8ff" d="M1727.21,-167.85C1797.02,-160.04 1926.26,-145.21 2047.25,-129.06"/>
<polygon fill="#63b8ff" stroke="#63b8ff" points="2047.98,-132.5 2057.43,-127.7 2047.05,-125.56 2047.98,-132.5"/>
</a>
</g>
</g>
<!-- Node26 -->
<g id="Node000026" class="node">
<title>Node26</title>
<g id="a_Node000026"><a xlink:href="compat__shared_8h.html" target="_top" xlink:title=" ">
<polygon fill="#fff0f0" stroke="red" points="2311,-129 2171,-129 2171,-110 2311,-110 2311,-129"/>
<text text-anchor="middle" x="2241" y="-117" font-family="Helvetica,sans-Serif" font-size="10.00">compat/compat_shared.h</text>
</a>
</g>
</g>
<!-- Node5&#45;&gt;Node26 -->
<g id="edge24_Node000005_Node000026" class="edge">
<title>Node5&#45;&gt;Node26</title>
<g id="a_edge24_Node000005_Node000026"><a xlink:title=" ">
<path fill="none" stroke="#63b8ff" d="M1727.35,-169.03C1814.08,-161.43 1995.39,-145.32 2160.42,-129.04"/>
<polygon fill="#63b8ff" stroke="#63b8ff" points="2161.16,-132.49 2170.77,-128.02 2160.47,-125.52 2161.16,-132.49"/>
</a>
</g>
</g>
<!-- Node36 -->
<g id="Node000036" class="node">
<title>Node36</title>
<g id="a_Node000036"><a xlink:href="stdvarargs_8h.html" target="_top" xlink:title=" ">
<polygon fill="#fff0f0" stroke="red" points="2446.5,-129 2329.5,-129 2329.5,-110 2446.5,-110 2446.5,-129"/>
<text text-anchor="middle" x="2388" y="-117" font-family="Helvetica,sans-Serif" font-size="10.00">compat/stdvarargs.h</text>
</a>
</g>
</g>
<!-- Node5&#45;&gt;Node36 -->
<g id="edge25_Node000005_Node000036" class="edge">
<title>Node5&#45;&gt;Node36</title>
<g id="a_edge25_Node000005_Node000036"><a xlink:title=" ">
<path fill="none" stroke="#63b8ff" d="M1727.01,-170.94C1834.41,-165.33 2092,-150.8 2319.3,-129.01"/>
<polygon fill="#63b8ff" stroke="#63b8ff" points="2319.8,-132.48 2329.42,-128.03 2319.13,-125.51 2319.8,-132.48"/>
</a>
</g>
</g>
<!-- Node38 -->
<g id="Node000038" class="node">
<title>Node38</title>
<g id="a_Node000038"><a xlink:href="stdio_8h.html" target="_top" xlink:title=" ">
<polygon fill="#fff0f0" stroke="red" points="2553.5,-129 2464.5,-129 2464.5,-110 2553.5,-110 2553.5,-129"/>
<text text-anchor="middle" x="2509" y="-117" font-family="Helvetica,sans-Serif" font-size="10.00">compat/stdio.h</text>
</a>
</g>
</g>
<!-- Node5&#45;&gt;Node38 -->
<g id="edge26_Node000005_Node000038" class="edge">
<title>Node5&#45;&gt;Node38</title>
<g id="a_edge26_Node000005_Node000038"><a xlink:title=" ">
<path fill="none" stroke="#63b8ff" d="M1727.18,-172.33C1850.49,-169.13 2173.87,-158.51 2454.3,-128.95"/>
<polygon fill="#63b8ff" stroke="#63b8ff" points="2454.68,-132.43 2464.26,-127.89 2453.94,-125.47 2454.68,-132.43"/>
</a>
</g>
</g>
<!-- Node40 -->
<g id="Node000040" class="node">
<title>Node40</title>
<g id="a_Node000040"><a xlink:href="statvfs_8h.html" target="_top" xlink:title=" ">
<polygon fill="white" stroke="#666666" points="2670.5,-129 2571.5,-129 2571.5,-110 2670.5,-110 2670.5,-129"/>
<text text-anchor="middle" x="2621" y="-117" font-family="Helvetica,sans-Serif" font-size="10.00">compat/statvfs.h</text>
</a>
</g>
</g>
<!-- Node5&#45;&gt;Node40 -->
<g id="edge27_Node000005_Node000040" class="edge">
<title>Node5&#45;&gt;Node40</title>
<g id="a_edge27_Node000005_Node000040"><a xlink:title=" ">
<path fill="none" stroke="#63b8ff" d="M1727.06,-172.59C1861.7,-169.85 2237.63,-159.89 2561.42,-128.95"/>
<polygon fill="#63b8ff" stroke="#63b8ff" points="2561.85,-132.42 2571.47,-127.98 2561.18,-125.45 2561.85,-132.42"/>
</a>
</g>
</g>
<!-- Node41 -->
<g id="Node000041" class="node">
<title>Node41</title>
<g id="a_Node000041"><a xlink:href="debug_8h.html" target="_top" xlink:title=" ">
<polygon fill="white" stroke="#666666" points="2783.5,-129 2688.5,-129 2688.5,-110 2783.5,-110 2783.5,-129"/>
<text text-anchor="middle" x="2736" y="-117" font-family="Helvetica,sans-Serif" font-size="10.00">compat/debug.h</text>
</a>
</g>
</g>
<!-- Node5&#45;&gt;Node41 -->
<g id="edge28_Node000005_Node000041" class="edge">
<title>Node5&#45;&gt;Node41</title>
<g id="a_edge28_Node000005_Node000041"><a xlink:title=" ">
<path fill="none" stroke="#63b8ff" d="M1727.01,-173.1C1873.37,-171.57 2307.37,-164.22 2678.33,-128.94"/>
<polygon fill="#63b8ff" stroke="#63b8ff" points="2678.84,-132.41 2688.46,-127.97 2678.17,-125.44 2678.84,-132.41"/>
</a>
</g>
</g>
<!-- Node42 -->
<g id="Node000042" class="node">
<title>Node42</title>
<g id="a_Node000042"><a xlink:href="valgrind_8h.html" target="_top" xlink:title=" ">
<polygon fill="#fff0f0" stroke="red" points="2906.5,-129 2801.5,-129 2801.5,-110 2906.5,-110 2906.5,-129"/>
<text text-anchor="middle" x="2854" y="-117" font-family="Helvetica,sans-Serif" font-size="10.00">compat/valgrind.h</text>
</a>
</g>
</g>
<!-- Node5&#45;&gt;Node42 -->
<g id="edge29_Node000005_Node000042" class="edge">
<title>Node5&#45;&gt;Node42</title>
<g id="a_edge29_Node000005_Node000042"><a xlink:title=" ">
<path fill="none" stroke="#63b8ff" d="M1727,-173.21C1884.04,-171.96 2374.29,-165.28 2791.13,-128.97"/>
<polygon fill="#63b8ff" stroke="#63b8ff" points="2791.62,-132.44 2801.27,-128.08 2791.01,-125.47 2791.62,-132.44"/>
</a>
</g>
</g>
<!-- Node45 -->
<g id="Node000045" class="node">
<title>Node45</title>
<g id="a_Node000045"><a xlink:title=" ">
<polygon fill="#e0e0e0" stroke="#999999" points="3302,-74 3210,-74 3210,-55 3302,-55 3302,-74"/>
<text text-anchor="middle" x="3256" y="-62" font-family="Helvetica,sans-Serif" font-size="10.00">mem/forward.h</text>
</a>
</g>
</g>
<!-- Node44&#45;&gt;Node45 -->
<g id="edge31_Node000044_Node000045" class="edge">
<title>Node44&#45;&gt;Node45</title>
<g id="a_edge31_Node000044_Node000045"><a xlink:title=" ">
<path fill="none" stroke="#63b8ff" d="M3484.85,-219.96C3398.69,-205.59 3240.32,-173.69 3207,-129 3194.27,-111.92 3214.25,-92.58 3232.39,-79.78"/>
<polygon fill="#63b8ff" stroke="#63b8ff" points="3234.61,-82.51 3241,-74.06 3230.73,-76.68 3234.61,-82.51"/>
</a>
</g>
</g>
<!-- Node46 -->
<g id="Node000046" class="node">
<title>Node46</title>
<g id="a_Node000046"><a xlink:href="SBuf_8h.html" target="_top" xlink:title=" ">
<polygon fill="#fff0f0" stroke="red" points="3576.5,-184 3505.5,-184 3505.5,-165 3576.5,-165 3576.5,-184"/>
<text text-anchor="middle" x="3541" y="-172" font-family="Helvetica,sans-Serif" font-size="10.00">sbuf/SBuf.h</text>
</a>
</g>
</g>
<!-- Node44&#45;&gt;Node46 -->
<g id="edge32_Node000044_Node000046" class="edge">
<title>Node44&#45;&gt;Node46</title>
<g id="a_edge32_Node000044_Node000046"><a xlink:title=" ">
<path fill="none" stroke="#63b8ff" d="M3541,-219.75C3541,-212.8 3541,-202.85 3541,-194.13"/>
<polygon fill="#63b8ff" stroke="#63b8ff" points="3544.5,-194.09 3541,-184.09 3537.5,-194.09 3544.5,-194.09"/>
</a>
</g>
</g>
<!-- Node47 -->
<g id="Node000047" class="node">
<title>Node47</title>
<g id="a_Node000047"><a xlink:href="InstanceId_8h.html" target="_top" xlink:title=" ">
<polygon fill="#fff0f0" stroke="red" points="3490,-74 3388,-74 3388,-55 3490,-55 3490,-74"/>
<text text-anchor="middle" x="3439" y="-62" font-family="Helvetica,sans-Serif" font-size="10.00">base/InstanceId.h</text>
</a>
</g>
</g>
<!-- Node46&#45;&gt;Node47 -->
<g id="edge33_Node000046_Node000047" class="edge">
<title>Node46&#45;&gt;Node47</title>
<g id="a_edge33_Node000046_Node000047"><a xlink:title=" ">
<path fill="none" stroke="#63b8ff" d="M3558.84,-164.86C3580.91,-153 3613.76,-130.77 3598,-110 3585.9,-94.05 3539.68,-82.26 3500.17,-74.84"/>
<polygon fill="#63b8ff" stroke="#63b8ff" points="3500.76,-71.39 3490.29,-73.04 3499.51,-78.27 3500.76,-71.39"/>
</a>
</g>
</g>
<!-- Node46&#45;&gt;Node49 -->
<g id="edge34_Node000046_Node000049" class="edge">
<title>Node46&#45;&gt;Node49</title>
<g id="a_edge34_Node000046_Node000049"><a xlink:title=" ">
<path fill="none" stroke="#63b8ff" d="M3567.35,-164.98C3594.76,-156.13 3637.89,-142.19 3668.56,-132.28"/>
<polygon fill="#63b8ff" stroke="#63b8ff" points="3670,-135.49 3678.44,-129.08 3667.85,-128.83 3670,-135.49"/>
</a>
</g>
</g>
<!-- Node46&#45;&gt;Node53 -->
<g id="edge39_Node000046_Node000053" class="edge">
<title>Node46&#45;&gt;Node53</title>
<g id="a_edge39_Node000046_Node000053"><a xlink:title=" ">
<path fill="none" stroke="#63b8ff" d="M3576.86,-166.7C3579.95,-166.12 3583.03,-165.55 3586,-165 3650.68,-153.04 3725,-139.65 3774.87,-130.71"/>
<polygon fill="#63b8ff" stroke="#63b8ff" points="3775.59,-134.13 3784.82,-128.92 3774.36,-127.24 3775.59,-134.13"/>
</a>
</g>
</g>
<!-- Node58 -->
<g id="Node000058" class="node">
<title>Node58</title>
<g id="a_Node000058"><a xlink:href="globals_8h.html" target="_top" xlink:title=" ">
<polygon fill="#fff0f0" stroke="red" points="3277.5,-129 3216.5,-129 3216.5,-110 3277.5,-110 3277.5,-129"/>
<text text-anchor="middle" x="3247" y="-117" font-family="Helvetica,sans-Serif" font-size="10.00">globals.h</text>
</a>
</g>
</g>
<!-- Node46&#45;&gt;Node58 -->
<g id="edge45_Node000046_Node000058" class="edge">
<title>Node46&#45;&gt;Node58</title>
<g id="a_edge45_Node000046_Node000058"><a xlink:title=" ">
<path fill="none" stroke="#63b8ff" d="M3505.44,-167.78C3457.96,-160.03 3371,-145.47 3287.53,-129.24"/>
<polygon fill="#63b8ff" stroke="#63b8ff" points="3288.12,-125.79 3277.63,-127.3 3286.77,-132.66 3288.12,-125.79"/>
</a>
</g>
</g>
<!-- Node69 -->
<g id="Node000069" class="node">
<title>Node69</title>
<g id="a_Node000069"><a xlink:href="sbuf_2forward_8h.html" target="_top" xlink:title=" ">
<polygon fill="#fff0f0" stroke="red" points="3382.5,-129 3295.5,-129 3295.5,-110 3382.5,-110 3382.5,-129"/>
<text text-anchor="middle" x="3339" y="-117" font-family="Helvetica,sans-Serif" font-size="10.00">sbuf/forward.h</text>
</a>
</g>
</g>
<!-- Node46&#45;&gt;Node69 -->
<g id="edge46_Node000046_Node000069" class="edge">
<title>Node46&#45;&gt;Node69</title>
<g id="a_edge46_Node000046_Node000069"><a xlink:title=" ">
<path fill="none" stroke="#63b8ff" d="M3508.55,-164.98C3474.04,-155.93 3419.34,-141.58 3381.44,-131.64"/>
<polygon fill="#63b8ff" stroke="#63b8ff" points="3382.27,-128.23 3371.71,-129.08 3380.49,-135.01 3382.27,-128.23"/>
</a>
</g>
</g>
<!-- Node76 -->
<g id="Node000076" class="node">
<title>Node76</title>
<g id="a_Node000076"><a xlink:href="MemBlob_8h.html" target="_top" xlink:title=" ">
<polygon fill="#fff0f0" stroke="red" points="3589,-129 3493,-129 3493,-110 3589,-110 3589,-129"/>
<text text-anchor="middle" x="3541" y="-117" font-family="Helvetica,sans-Serif" font-size="10.00">sbuf/MemBlob.h</text>
</a>
</g>
</g>
<!-- Node46&#45;&gt;Node76 -->
<g id="edge47_Node000046_Node000076" class="edge">
<title>Node46&#45;&gt;Node76</title>
<g id="a_edge47_Node000046_Node000076"><a xlink:title=" ">
<path fill="none" stroke="#63b8ff" d="M3541,-164.75C3541,-157.8 3541,-147.85 3541,-139.13"/>
<polygon fill="#63b8ff" stroke="#63b8ff" points="3544.5,-139.09 3541,-129.09 3537.5,-139.09 3544.5,-139.09"/>
</a>
</g>
</g>
<!-- Node77 -->
<g id="Node000077" class="node">
<title>Node77</title>
<g id="a_Node000077"><a xlink:href="sbuf_2Stats_8h.html" target="_top" xlink:title=" ">
<polygon fill="#fff0f0" stroke="red" points="3475,-129 3401,-129 3401,-110 3475,-110 3475,-129"/>
<text text-anchor="middle" x="3438" y="-117" font-family="Helvetica,sans-Serif" font-size="10.00">sbuf/Stats.h</text>
</a>
</g>
</g>
<!-- Node46&#45;&gt;Node77 -->
<g id="edge50_Node000046_Node000077" class="edge">
<title>Node46&#45;&gt;Node77</title>
<g id="a_edge50_Node000046_Node000077"><a xlink:title=" ">
<path fill="none" stroke="#63b8ff" d="M3524.45,-164.98C3508.11,-156.57 3482.87,-143.59 3463.87,-133.81"/>
<polygon fill="#63b8ff" stroke="#63b8ff" points="3465.34,-130.63 3454.85,-129.17 3462.14,-136.86 3465.34,-130.63"/>
</a>
</g>
</g>
<!-- Node50 -->
<g id="Node000050" class="node">
<title>Node50</title>
<g id="a_Node000050"><a xlink:href="Assure_8h.html" target="_top" xlink:title=" ">
<polygon fill="white" stroke="#666666" points="3593.5,-74 3508.5,-74 3508.5,-55 3593.5,-55 3593.5,-74"/>
<text text-anchor="middle" x="3551" y="-62" font-family="Helvetica,sans-Serif" font-size="10.00">base/Assure.h</text>
</a>
</g>
</g>
<!-- Node49&#45;&gt;Node50 -->
<g id="edge35_Node000049_Node000050" class="edge">
<title>Node49&#45;&gt;Node50</title>
<g id="a_edge35_Node000049_Node000050"><a xlink:title=" ">
<path fill="none" stroke="#63b8ff" d="M3680.26,-109.98C3654.63,-101.16 3614.37,-87.31 3585.59,-77.41"/>
<polygon fill="#63b8ff" stroke="#63b8ff" points="3586.53,-74.03 3575.94,-74.08 3584.25,-80.65 3586.53,-74.03"/>
</a>
</g>
</g>
<!-- Node51 -->
<g id="Node000051" class="node">
<title>Node51</title>
<g id="a_Node000051"><a xlink:href="Here_8h.html" target="_top" xlink:title=" ">
<polygon fill="#fff0f0" stroke="red" points="3742.5,-19 3667.5,-19 3667.5,0 3742.5,0 3742.5,-19"/>
<text text-anchor="middle" x="3705" y="-7" font-family="Helvetica,sans-Serif" font-size="10.00">base/Here.h</text>
</a>
</g>
</g>
<!-- Node49&#45;&gt;Node51 -->
<g id="edge37_Node000049_Node000051" class="edge">
<title>Node49&#45;&gt;Node51</title>
<g id="a_edge37_Node000049_Node000051"><a xlink:title=" ">
<path fill="none" stroke="#63b8ff" d="M3705,-109.66C3705,-92.17 3705,-52.8 3705,-29.27"/>
<polygon fill="#63b8ff" stroke="#63b8ff" points="3708.5,-29.16 3705,-19.16 3701.5,-29.16 3708.5,-29.16"/>
</a>
</g>
</g>
<!-- Node52 -->
<g id="Node000052" class="node">
<title>Node52</title>
<g id="a_Node000052"><a xlink:title=" ">
<polygon fill="#e0e0e0" stroke="#999999" points="3676.5,-74 3611.5,-74 3611.5,-55 3676.5,-55 3676.5,-74"/>
<text text-anchor="middle" x="3644" y="-62" font-family="Helvetica,sans-Serif" font-size="10.00">stdexcept</text>
</a>
</g>
</g>
<!-- Node49&#45;&gt;Node52 -->
<g id="edge38_Node000049_Node000052" class="edge">
<title>Node49&#45;&gt;Node52</title>
<g id="a_edge38_Node000049_Node000052"><a xlink:title=" ">
<path fill="none" stroke="#63b8ff" d="M3695.2,-109.98C3686.18,-102.15 3672.59,-90.34 3661.68,-80.86"/>
<polygon fill="#63b8ff" stroke="#63b8ff" points="3663.82,-78.09 3653.98,-74.17 3659.23,-83.37 3663.82,-78.09"/>
</a>
</g>
</g>
<!-- Node50&#45;&gt;Node51 -->
<g id="edge36_Node000050_Node000051" class="edge">
<title>Node50&#45;&gt;Node51</title>
<g id="a_edge36_Node000050_Node000051"><a xlink:title=" ">
<path fill="none" stroke="#63b8ff" d="M3575.74,-54.98C3601.37,-46.16 3641.63,-32.31 3670.41,-22.41"/>
<polygon fill="#63b8ff" stroke="#63b8ff" points="3671.75,-25.65 3680.06,-19.08 3669.47,-19.03 3671.75,-25.65"/>
</a>
</g>
</g>
<!-- Node53&#45;&gt;Node51 -->
<g id="edge40_Node000053_Node000051" class="edge">
<title>Node53&#45;&gt;Node51</title>
<g id="a_edge40_Node000053_Node000051"><a xlink:title=" ">
<path fill="none" stroke="#63b8ff" d="M3815.86,-109.92C3801.1,-101.7 3779.03,-88.43 3762,-74 3745.31,-59.86 3728.91,-40.91 3718.02,-27.4"/>
<polygon fill="#63b8ff" stroke="#63b8ff" points="3720.65,-25.09 3711.71,-19.41 3715.16,-29.43 3720.65,-25.09"/>
</a>
</g>
</g>
<!-- Node54 -->
<g id="Node000054" class="node">
<title>Node54</title>
<g id="a_Node000054"><a xlink:href="AllocatorProxy_8h.html" target="_top" xlink:title=" ">
<polygon fill="white" stroke="#666666" points="3895,-74 3771,-74 3771,-55 3895,-55 3895,-74"/>
<text text-anchor="middle" x="3833" y="-62" font-family="Helvetica,sans-Serif" font-size="10.00">mem/AllocatorProxy.h</text>
</a>
</g>
</g>
<!-- Node53&#45;&gt;Node54 -->
<g id="edge41_Node000053_Node000054" class="edge">
<title>Node53&#45;&gt;Node54</title>
<g id="a_edge41_Node000053_Node000054"><a xlink:title=" ">
<path fill="none" stroke="#63b8ff" d="M3832.17,-109.75C3832.3,-102.8 3832.48,-92.85 3832.65,-84.13"/>
<polygon fill="#63b8ff" stroke="#63b8ff" points="3836.15,-84.15 3832.84,-74.09 3829.15,-84.02 3836.15,-84.15"/>
</a>
</g>
</g>
<!-- Node53&#45;&gt;Node55 -->
<g id="edge42_Node000053_Node000055" class="edge">
<title>Node53&#45;&gt;Node55</title>
<g id="a_edge42_Node000053_Node000055"><a xlink:title=" ">
<path fill="none" stroke="#63b8ff" d="M3875.04,-109.99C3917.34,-101.59 3983.99,-88.23 4050.9,-74.21"/>
<polygon fill="#63b8ff" stroke="#63b8ff" points="4051.71,-77.61 4060.78,-72.13 4050.27,-70.76 4051.71,-77.61"/>
</a>
</g>
</g>
<!-- Node56 -->
<g id="Node000056" class="node">
<title>Node56</title>
<g id="a_Node000056"><a xlink:title=" ">
<polygon fill="#e0e0e0" stroke="#999999" points="3969,-74 3913,-74 3913,-55 3969,-55 3969,-74"/>
<text text-anchor="middle" x="3941" y="-62" font-family="Helvetica,sans-Serif" font-size="10.00">sstream</text>
</a>
</g>
</g>
<!-- Node53&#45;&gt;Node56 -->
<g id="edge43_Node000053_Node000056" class="edge">
<title>Node53&#45;&gt;Node56</title>
<g id="a_edge43_Node000053_Node000056"><a xlink:title=" ">
<path fill="none" stroke="#63b8ff" d="M3849.51,-109.98C3866.97,-101.5 3894.01,-88.35 3914.17,-78.54"/>
<polygon fill="#63b8ff" stroke="#63b8ff" points="3915.71,-81.69 3923.17,-74.17 3912.64,-75.4 3915.71,-81.69"/>
</a>
</g>
</g>
<!-- Node57 -->
<g id="Node000057" class="node">
<title>Node57</title>
<g id="a_Node000057"><a xlink:title=" ">
<polygon fill="#e0e0e0" stroke="#999999" points="4043,-74 3987,-74 3987,-55 4043,-55 4043,-74"/>
<text text-anchor="middle" x="4015" y="-62" font-family="Helvetica,sans-Serif" font-size="10.00">iomanip</text>
</a>
</g>
</g>
<!-- Node53&#45;&gt;Node57 -->
<g id="edge44_Node000053_Node000057" class="edge">
<title>Node53&#45;&gt;Node57</title>
<g id="a_edge44_Node000053_Node000057"><a xlink:title=" ">
<path fill="none" stroke="#63b8ff" d="M3861.4,-109.98C3892.85,-100.88 3942.83,-86.4 3977.19,-76.45"/>
<polygon fill="#63b8ff" stroke="#63b8ff" points="3978.24,-79.79 3986.87,-73.65 3976.29,-73.07 3978.24,-79.79"/>
</a>
</g>
</g>
<!-- Node76&#45;&gt;Node45 -->
<g id="edge49_Node000076_Node000045" class="edge">
<title>Node76&#45;&gt;Node45</title>
<g id="a_edge49_Node000076_Node000045"><a xlink:title=" ">
<path fill="none" stroke="#63b8ff" d="M3495.21,-109.98C3445.39,-100.72 3365.72,-85.9 3312.16,-75.94"/>
<polygon fill="#63b8ff" stroke="#63b8ff" points="3312.62,-72.47 3302.15,-74.08 3311.34,-79.35 3312.62,-72.47"/>
</a>
</g>
</g>
<!-- Node76&#45;&gt;Node47 -->
<g id="edge48_Node000076_Node000047" class="edge">
<title>Node76&#45;&gt;Node47</title>
<g id="a_edge48_Node000076_Node000047"><a xlink:title=" ">
<path fill="none" stroke="#63b8ff" d="M3524.61,-109.98C3508.43,-101.57 3483.43,-88.59 3464.62,-78.81"/>
<polygon fill="#63b8ff" stroke="#63b8ff" points="3466.17,-75.68 3455.69,-74.17 3462.95,-81.89 3466.17,-75.68"/>
</a>
</g>
</g>
<!-- Node80&#45;&gt;Node46 -->
<g id="edge55_Node000080_Node000046" class="edge">
<title>Node80&#45;&gt;Node46</title>
<g id="a_edge55_Node000080_Node000046"><a xlink:title=" ">
<path fill="none" stroke="#63b8ff" d="M3640.88,-219.98C3621.65,-211.42 3591.77,-198.11 3569.69,-188.28"/>
<polygon fill="#63b8ff" stroke="#63b8ff" points="3571.03,-185.04 3560.47,-184.17 3568.18,-191.44 3571.03,-185.04"/>
</a>
</g>
</g>
<!-- Node81 -->
<g id="Node000081" class="node">
<title>Node81</title>
<g id="a_Node000081"><a xlink:href="PackableStream_8h.html" target="_top" xlink:title=" ">
<polygon fill="#fff0f0" stroke="red" points="3725,-184 3595,-184 3595,-165 3725,-165 3725,-184"/>
<text text-anchor="middle" x="3660" y="-172" font-family="Helvetica,sans-Serif" font-size="10.00">base/PackableStream.h</text>
</a>
</g>
</g>
<!-- Node80&#45;&gt;Node81 -->
<g id="edge54_Node000080_Node000081" class="edge">
<title>Node80&#45;&gt;Node81</title>
<g id="a_edge54_Node000080_Node000081"><a xlink:title=" ">
<path fill="none" stroke="#63b8ff" d="M3660,-219.75C3660,-212.8 3660,-202.85 3660,-194.13"/>
<polygon fill="#63b8ff" stroke="#63b8ff" points="3663.5,-194.09 3660,-184.09 3656.5,-194.09 3663.5,-194.09"/>
</a>
</g>
</g>
</g>
</svg>
