<?xml version="1.0" encoding="UTF-8" standalone="no"?>
<!DOCTYPE svg PUBLIC "-//W3C//DTD SVG 1.1//EN"
 "http://www.w3.org/Graphics/SVG/1.1/DTD/svg11.dtd">
<!-- Generated by graphviz version 2.43.0 (0)
 -->
<!-- Title: squid/src/acl/RegexData.cc Pages: 1 -->
<svg width="2435pt" height="357pt"
 viewBox="0.00 0.00 2435.00 357.00" xmlns="http://www.w3.org/2000/svg" xmlns:xlink="http://www.w3.org/1999/xlink">
<g id="graph0" class="graph" transform="scale(1 1) rotate(0) translate(4 353)">
<title>squid/src/acl/RegexData.cc</title>
<!-- Node1 -->
<g id="Node000001" class="node">
<title>Node1</title>
<g id="a_Node000001"><a xlink:title=" ">
<polygon fill="#999999" stroke="#666666" points="2034,-349 1886,-349 1886,-330 2034,-330 2034,-349"/>
<text text-anchor="middle" x="1960" y="-337" font-family="Helvetica,sans-Serif" font-size="10.00">squid/src/acl/RegexData.cc</text>
</a>
</g>
</g>
<!-- Node2 -->
<g id="Node000002" class="node">
<title>Node2</title>
<g id="a_Node000002"><a xlink:href="squid_8h.html" target="_top" xlink:title=" ">
<polygon fill="white" stroke="#666666" points="636,-294 584,-294 584,-275 636,-275 636,-294"/>
<text text-anchor="middle" x="610" y="-282" font-family="Helvetica,sans-Serif" font-size="10.00">squid.h</text>
</a>
</g>
</g>
<!-- Node1&#45;&gt;Node2 -->
<g id="edge1_Node000001_Node000002" class="edge">
<title>Node1&#45;&gt;Node2</title>
<g id="a_edge1_Node000001_Node000002"><a xlink:title=" ">
<path fill="none" stroke="#63b8ff" d="M1885.98,-335.59C1635.76,-325.77 827.02,-294.02 646.12,-286.92"/>
<polygon fill="#63b8ff" stroke="#63b8ff" points="646.19,-283.42 636.06,-286.52 645.92,-290.41 646.19,-283.42"/>
</a>
</g>
</g>
<!-- Node45 -->
<g id="Node000045" class="node">
<title>Node45</title>
<g id="a_Node000045"><a xlink:href="acl_2Acl_8h.html" target="_top" xlink:title=" ">
<polygon fill="white" stroke="#666666" points="1693,-184 1635,-184 1635,-165 1693,-165 1693,-184"/>
<text text-anchor="middle" x="1664" y="-172" font-family="Helvetica,sans-Serif" font-size="10.00">acl/Acl.h</text>
</a>
</g>
</g>
<!-- Node1&#45;&gt;Node45 -->
<g id="edge13_Node000001_Node000045" class="edge">
<title>Node1&#45;&gt;Node45</title>
<g id="a_edge13_Node000001_Node000045"><a xlink:title=" ">
<path fill="none" stroke="#63b8ff" d="M1944.5,-329.97C1896.16,-303.35 1747.85,-221.67 1688.72,-189.11"/>
<polygon fill="#63b8ff" stroke="#63b8ff" points="1690.15,-185.9 1679.7,-184.15 1686.77,-192.04 1690.15,-185.9"/>
</a>
</g>
</g>
<!-- Node62 -->
<g id="Node000062" class="node">
<title>Node62</title>
<g id="a_Node000062"><a xlink:href="debug_2Stream_8h.html" target="_top" xlink:title=" ">
<polygon fill="white" stroke="#666666" points="1447,-74 1353,-74 1353,-55 1447,-55 1447,-74"/>
<text text-anchor="middle" x="1400" y="-62" font-family="Helvetica,sans-Serif" font-size="10.00">debug/Stream.h</text>
</a>
</g>
</g>
<!-- Node1&#45;&gt;Node62 -->
<g id="edge59_Node000001_Node000062" class="edge">
<title>Node1&#45;&gt;Node62</title>
<g id="a_edge59_Node000001_Node000062"><a xlink:title=" ">
<path fill="none" stroke="#63b8ff" d="M1885.85,-337.74C1663.88,-334.47 1020,-317.51 1020,-230.5 1020,-230.5 1020,-230.5 1020,-173.5 1020,-144.04 1016.49,-129.01 1039,-110 1083.71,-72.24 1252.93,-65.83 1342.92,-65.17"/>
<polygon fill="#63b8ff" stroke="#63b8ff" points="1342.97,-68.67 1352.96,-65.12 1342.94,-61.67 1342.97,-68.67"/>
</a>
</g>
</g>
<!-- Node86 -->
<g id="Node000086" class="node">
<title>Node86</title>
<g id="a_Node000086"><a xlink:href="Checklist_8h.html" target="_top" xlink:title=" ">
<polygon fill="white" stroke="#666666" points="1932,-239 1844,-239 1844,-220 1932,-220 1932,-239"/>
<text text-anchor="middle" x="1888" y="-227" font-family="Helvetica,sans-Serif" font-size="10.00">acl/Checklist.h</text>
</a>
</g>
</g>
<!-- Node1&#45;&gt;Node86 -->
<g id="edge29_Node000001_Node000086" class="edge">
<title>Node1&#45;&gt;Node86</title>
<g id="a_edge29_Node000001_Node000086"><a xlink:title=" ">
<path fill="none" stroke="#63b8ff" d="M1954.11,-329.66C1942.18,-311.77 1915,-271 1899.46,-247.69"/>
<polygon fill="#63b8ff" stroke="#63b8ff" points="1902.23,-245.54 1893.77,-239.16 1896.41,-249.42 1902.23,-245.54"/>
</a>
</g>
</g>
<!-- Node93 -->
<g id="Node000093" class="node">
<title>Node93</title>
<g id="a_Node000093"><a xlink:href="RegexData_8h.html" target="_top" xlink:title=" ">
<polygon fill="white" stroke="#666666" points="2340.5,-294 2243.5,-294 2243.5,-275 2340.5,-275 2340.5,-294"/>
<text text-anchor="middle" x="2292" y="-282" font-family="Helvetica,sans-Serif" font-size="10.00">acl/RegexData.h</text>
</a>
</g>
</g>
<!-- Node1&#45;&gt;Node93 -->
<g id="edge37_Node000001_Node000093" class="edge">
<title>Node1&#45;&gt;Node93</title>
<g id="a_edge37_Node000001_Node000093"><a xlink:title=" ">
<path fill="none" stroke="#63b8ff" d="M2013.34,-329.98C2073.51,-320.38 2171.05,-304.81 2233.32,-294.87"/>
<polygon fill="#63b8ff" stroke="#63b8ff" points="2234.06,-298.29 2243.38,-293.26 2232.96,-291.38 2234.06,-298.29"/>
</a>
</g>
</g>
<!-- Node95 -->
<g id="Node000095" class="node">
<title>Node95</title>
<g id="a_Node000095"><a xlink:href="List_8h.html" target="_top" xlink:title=" ">
<polygon fill="white" stroke="#666666" points="2344.5,-184 2277.5,-184 2277.5,-165 2344.5,-165 2344.5,-184"/>
<text text-anchor="middle" x="2311" y="-172" font-family="Helvetica,sans-Serif" font-size="10.00">sbuf/List.h</text>
</a>
</g>
</g>
<!-- Node1&#45;&gt;Node95 -->
<g id="edge64_Node000001_Node000095" class="edge">
<title>Node1&#45;&gt;Node95</title>
<g id="a_edge64_Node000001_Node000095"><a xlink:title=" ">
<path fill="none" stroke="#63b8ff" d="M2027.91,-329.93C2065.97,-323.41 2113.55,-312.33 2153,-294 2183.1,-280.01 2258.03,-219.41 2292.78,-190.7"/>
<polygon fill="#63b8ff" stroke="#63b8ff" points="2295.23,-193.21 2300.69,-184.13 2290.76,-187.82 2295.23,-193.21"/>
</a>
</g>
</g>
<!-- Node96 -->
<g id="Node000096" class="node">
<title>Node96</title>
<g id="a_Node000096"><a xlink:href="RegexPattern_8h.html" target="_top" xlink:title=" ">
<polygon fill="white" stroke="#666666" points="2143.5,-294 2026.5,-294 2026.5,-275 2143.5,-275 2143.5,-294"/>
<text text-anchor="middle" x="2085" y="-282" font-family="Helvetica,sans-Serif" font-size="10.00">base/RegexPattern.h</text>
</a>
</g>
</g>
<!-- Node1&#45;&gt;Node96 -->
<g id="edge43_Node000001_Node000096" class="edge">
<title>Node1&#45;&gt;Node96</title>
<g id="a_edge43_Node000001_Node000096"><a xlink:title=" ">
<path fill="none" stroke="#63b8ff" d="M1980.08,-329.98C2000.37,-321.38 2031.96,-307.99 2055.17,-298.15"/>
<polygon fill="#63b8ff" stroke="#63b8ff" points="2056.71,-301.3 2064.55,-294.17 2053.98,-294.85 2056.71,-301.3"/>
</a>
</g>
</g>
<!-- Node97 -->
<g id="Node000097" class="node">
<title>Node97</title>
<g id="a_Node000097"><a xlink:href="cache__cf_8h.html" target="_top" xlink:title=" ">
<polygon fill="white" stroke="#666666" points="2427,-294 2359,-294 2359,-275 2427,-275 2427,-294"/>
<text text-anchor="middle" x="2393" y="-282" font-family="Helvetica,sans-Serif" font-size="10.00">cache_cf.h</text>
</a>
</g>
</g>
<!-- Node1&#45;&gt;Node97 -->
<g id="edge46_Node000001_Node000097" class="edge">
<title>Node1&#45;&gt;Node97</title>
<g id="a_edge46_Node000001_Node000097"><a xlink:title=" ">
<path fill="none" stroke="#63b8ff" d="M2034.28,-331.84C2110.7,-324.58 2233.39,-311.78 2348.71,-294.09"/>
<polygon fill="#63b8ff" stroke="#63b8ff" points="2349.43,-297.52 2358.78,-292.53 2348.36,-290.6 2349.43,-297.52"/>
</a>
</g>
</g>
<!-- Node98 -->
<g id="Node000098" class="node">
<title>Node98</title>
<g id="a_Node000098"><a xlink:href="ConfigParser_8h.html" target="_top" xlink:title=" ">
<polygon fill="white" stroke="#666666" points="1443,-184 1357,-184 1357,-165 1443,-165 1443,-184"/>
<text text-anchor="middle" x="1400" y="-172" font-family="Helvetica,sans-Serif" font-size="10.00">ConfigParser.h</text>
</a>
</g>
</g>
<!-- Node1&#45;&gt;Node98 -->
<g id="edge47_Node000001_Node000098" class="edge">
<title>Node1&#45;&gt;Node98</title>
<g id="a_edge47_Node000001_Node000098"><a xlink:title=" ">
<path fill="none" stroke="#63b8ff" d="M1930.68,-329.97C1837.04,-302.71 1545.13,-217.74 1439.04,-186.86"/>
<polygon fill="#63b8ff" stroke="#63b8ff" points="1439.95,-183.48 1429.37,-184.05 1437.99,-190.2 1439.95,-183.48"/>
</a>
</g>
</g>
<!-- Node104 -->
<g id="Node000104" class="node">
<title>Node104</title>
<g id="a_Node000104"><a xlink:href="Algorithms_8h.html" target="_top" xlink:title=" ">
<polygon fill="white" stroke="#666666" points="2117.5,-184 2014.5,-184 2014.5,-165 2117.5,-165 2117.5,-184"/>
<text text-anchor="middle" x="2066" y="-172" font-family="Helvetica,sans-Serif" font-size="10.00">sbuf/Algorithms.h</text>
</a>
</g>
</g>
<!-- Node1&#45;&gt;Node104 -->
<g id="edge60_Node000001_Node000104" class="edge">
<title>Node1&#45;&gt;Node104</title>
<g id="a_edge60_Node000001_Node000104"><a xlink:title=" ">
<path fill="none" stroke="#63b8ff" d="M1959.4,-329.77C1958.42,-308.7 1958.67,-254.26 1984,-220 1994.77,-205.44 2011.77,-195.11 2027.5,-188.09"/>
<polygon fill="#63b8ff" stroke="#63b8ff" points="2029.17,-191.19 2037.07,-184.14 2026.49,-184.72 2029.17,-191.19"/>
</a>
</g>
</g>
<!-- Node106 -->
<g id="Node000106" class="node">
<title>Node106</title>
<g id="a_Node000106"><a xlink:href="sbuf_2Stream_8h.html" target="_top" xlink:title=" ">
<polygon fill="white" stroke="#666666" points="2259.5,-184 2174.5,-184 2174.5,-165 2259.5,-165 2259.5,-184"/>
<text text-anchor="middle" x="2217" y="-172" font-family="Helvetica,sans-Serif" font-size="10.00">sbuf/Stream.h</text>
</a>
</g>
</g>
<!-- Node1&#45;&gt;Node106 -->
<g id="edge65_Node000001_Node000106" class="edge">
<title>Node1&#45;&gt;Node106</title>
<g id="a_edge65_Node000001_Node000106"><a xlink:title=" ">
<path fill="none" stroke="#63b8ff" d="M1963.04,-329.84C1971.9,-305.09 1998.22,-234.9 2017,-220 2039.47,-202.17 2112.98,-189.15 2164.32,-181.95"/>
<polygon fill="#63b8ff" stroke="#63b8ff" points="2164.84,-185.41 2174.27,-180.59 2163.89,-178.48 2164.84,-185.41"/>
</a>
</g>
</g>
<!-- Node3 -->
<g id="Node000003" class="node">
<title>Node3</title>
<g id="a_Node000003"><a xlink:href="autoconf_8h.html" target="_top" xlink:title=" ">
<polygon fill="white" stroke="#666666" points="695,-239 627,-239 627,-220 695,-220 695,-239"/>
<text text-anchor="middle" x="661" y="-227" font-family="Helvetica,sans-Serif" font-size="10.00">autoconf.h</text>
</a>
</g>
</g>
<!-- Node2&#45;&gt;Node3 -->
<g id="edge2_Node000002_Node000003" class="edge">
<title>Node2&#45;&gt;Node3</title>
<g id="a_edge2_Node000002_Node000003"><a xlink:title=" ">
<path fill="none" stroke="#63b8ff" d="M618.42,-274.75C625.77,-267.11 636.63,-255.82 645.54,-246.56"/>
<polygon fill="#63b8ff" stroke="#63b8ff" points="648.32,-248.72 652.74,-239.09 643.28,-243.87 648.32,-248.72"/>
</a>
</g>
</g>
<!-- Node4 -->
<g id="Node000004" class="node">
<title>Node4</title>
<g id="a_Node000004"><a xlink:href="version_8h.html" target="_top" xlink:title=" ">
<polygon fill="white" stroke="#666666" points="489,-239 427,-239 427,-220 489,-220 489,-239"/>
<text text-anchor="middle" x="458" y="-227" font-family="Helvetica,sans-Serif" font-size="10.00">version.h</text>
</a>
</g>
</g>
<!-- Node2&#45;&gt;Node4 -->
<g id="edge3_Node000002_Node000004" class="edge">
<title>Node2&#45;&gt;Node4</title>
<g id="a_edge3_Node000002_Node000004"><a xlink:title=" ">
<path fill="none" stroke="#63b8ff" d="M585.58,-274.98C560.28,-266.16 520.55,-252.31 492.14,-242.41"/>
<polygon fill="#63b8ff" stroke="#63b8ff" points="493.21,-239.07 482.61,-239.08 490.9,-245.68 493.21,-239.07"/>
</a>
</g>
</g>
<!-- Node5 -->
<g id="Node000005" class="node">
<title>Node5</title>
<g id="a_Node000005"><a xlink:href="compat_8h.html" target="_top" xlink:title=" ">
<polygon fill="#fff0f0" stroke="red" points="609,-239 507,-239 507,-220 609,-220 609,-239"/>
<text text-anchor="middle" x="558" y="-227" font-family="Helvetica,sans-Serif" font-size="10.00">compat/compat.h</text>
</a>
</g>
</g>
<!-- Node2&#45;&gt;Node5 -->
<g id="edge4_Node000002_Node000005" class="edge">
<title>Node2&#45;&gt;Node5</title>
<g id="a_edge4_Node000002_Node000005"><a xlink:title=" ">
<path fill="none" stroke="#63b8ff" d="M601.41,-274.75C593.84,-267.03 582.62,-255.6 573.49,-246.28"/>
<polygon fill="#63b8ff" stroke="#63b8ff" points="575.93,-243.78 566.43,-239.09 570.93,-248.68 575.93,-243.78"/>
</a>
</g>
</g>
<!-- Node6 -->
<g id="Node000006" class="node">
<title>Node6</title>
<g id="a_Node000006"><a xlink:href="osdetect_8h.html" target="_top" xlink:title=" ">
<polygon fill="white" stroke="#666666" points="863.5,-184 756.5,-184 756.5,-165 863.5,-165 863.5,-184"/>
<text text-anchor="middle" x="810" y="-172" font-family="Helvetica,sans-Serif" font-size="10.00">compat/osdetect.h</text>
</a>
</g>
</g>
<!-- Node5&#45;&gt;Node6 -->
<g id="edge5_Node000005_Node000006" class="edge">
<title>Node5&#45;&gt;Node6</title>
<g id="a_edge5_Node000005_Node000006"><a xlink:title=" ">
<path fill="none" stroke="#63b8ff" d="M598.49,-219.98C642.17,-210.8 711.81,-196.15 759.15,-186.19"/>
<polygon fill="#63b8ff" stroke="#63b8ff" points="760.13,-189.57 769.19,-184.08 758.69,-182.72 760.13,-189.57"/>
</a>
</g>
</g>
<!-- Node7 -->
<g id="Node000007" class="node">
<title>Node7</title>
<g id="a_Node000007"><a xlink:href="fdsetsize_8h.html" target="_top" xlink:title=" ">
<polygon fill="white" stroke="#666666" points="992,-184 882,-184 882,-165 992,-165 992,-184"/>
<text text-anchor="middle" x="937" y="-172" font-family="Helvetica,sans-Serif" font-size="10.00">compat/fdsetsize.h</text>
</a>
</g>
</g>
<!-- Node5&#45;&gt;Node7 -->
<g id="edge6_Node000005_Node000007" class="edge">
<title>Node5&#45;&gt;Node7</title>
<g id="a_edge6_Node000005_Node000007"><a xlink:title=" ">
<path fill="none" stroke="#63b8ff" d="M609.06,-221.26C612.09,-220.83 615.08,-220.41 618,-220 705.91,-207.64 807.47,-193.5 871.94,-184.54"/>
<polygon fill="#63b8ff" stroke="#63b8ff" points="872.53,-187.99 881.96,-183.14 871.57,-181.05 872.53,-187.99"/>
</a>
</g>
</g>
<!-- Node8 -->
<g id="Node000008" class="node">
<title>Node8</title>
<g id="a_Node000008"><a xlink:href="types_8h.html" target="_top" xlink:title=" ">
<polygon fill="#fff0f0" stroke="red" points="92,-184 0,-184 0,-165 92,-165 92,-184"/>
<text text-anchor="middle" x="46" y="-172" font-family="Helvetica,sans-Serif" font-size="10.00">compat/types.h</text>
</a>
</g>
</g>
<!-- Node5&#45;&gt;Node8 -->
<g id="edge7_Node000005_Node000008" class="edge">
<title>Node5&#45;&gt;Node8</title>
<g id="a_edge7_Node000005_Node000008"><a xlink:title=" ">
<path fill="none" stroke="#63b8ff" d="M506.96,-221.09C503.93,-220.71 500.93,-220.34 498,-220 325.28,-199.95 278.57,-205.33 102.32,-184.09"/>
<polygon fill="#63b8ff" stroke="#63b8ff" points="102.53,-180.59 92.18,-182.85 101.69,-187.54 102.53,-180.59"/>
</a>
</g>
</g>
<!-- Node10 -->
<g id="Node000010" class="node">
<title>Node10</title>
<g id="a_Node000010"><a xlink:href="aix_8h.html" target="_top" xlink:title=" ">
<polygon fill="white" stroke="#666666" points="205.5,-184 110.5,-184 110.5,-165 205.5,-165 205.5,-184"/>
<text text-anchor="middle" x="158" y="-172" font-family="Helvetica,sans-Serif" font-size="10.00">compat/os/aix.h</text>
</a>
</g>
</g>
<!-- Node5&#45;&gt;Node10 -->
<g id="edge8_Node000005_Node000010" class="edge">
<title>Node5&#45;&gt;Node10</title>
<g id="a_edge8_Node000005_Node000010"><a xlink:title=" ">
<path fill="none" stroke="#63b8ff" d="M506.94,-221.22C503.92,-220.8 500.92,-220.39 498,-220 375.53,-203.54 342.27,-201.45 215.66,-184.06"/>
<polygon fill="#63b8ff" stroke="#63b8ff" points="215.96,-180.57 205.57,-182.67 215,-187.51 215.96,-180.57"/>
</a>
</g>
</g>
<!-- Node11 -->
<g id="Node000011" class="node">
<title>Node11</title>
<g id="a_Node000011"><a xlink:href="android_8h.html" target="_top" xlink:title=" ">
<polygon fill="white" stroke="#666666" points="340,-184 224,-184 224,-165 340,-165 340,-184"/>
<text text-anchor="middle" x="282" y="-172" font-family="Helvetica,sans-Serif" font-size="10.00">compat/os/android.h</text>
</a>
</g>
</g>
<!-- Node5&#45;&gt;Node11 -->
<g id="edge9_Node000005_Node000011" class="edge">
<title>Node5&#45;&gt;Node11</title>
<g id="a_edge9_Node000005_Node000011"><a xlink:title=" ">
<path fill="none" stroke="#63b8ff" d="M513.66,-219.98C465.51,-210.74 388.58,-195.97 336.71,-186.01"/>
<polygon fill="#63b8ff" stroke="#63b8ff" points="337.17,-182.53 326.69,-184.08 335.85,-189.41 337.17,-182.53"/>
</a>
</g>
</g>
<!-- Node12 -->
<g id="Node000012" class="node">
<title>Node12</title>
<g id="a_Node000012"><a xlink:href="dragonfly_8h.html" target="_top" xlink:title=" ">
<polygon fill="white" stroke="#666666" points="482,-184 358,-184 358,-165 482,-165 482,-184"/>
<text text-anchor="middle" x="420" y="-172" font-family="Helvetica,sans-Serif" font-size="10.00">compat/os/dragonfly.h</text>
</a>
</g>
</g>
<!-- Node5&#45;&gt;Node12 -->
<g id="edge10_Node000005_Node000012" class="edge">
<title>Node5&#45;&gt;Node12</title>
<g id="a_edge10_Node000005_Node000012"><a xlink:title=" ">
<path fill="none" stroke="#63b8ff" d="M535.83,-219.98C513.23,-211.3 477.94,-197.75 452.25,-187.88"/>
<polygon fill="#63b8ff" stroke="#63b8ff" points="453.17,-184.49 442.58,-184.17 450.66,-191.02 453.17,-184.49"/>
</a>
</g>
</g>
<!-- Node13 -->
<g id="Node000013" class="node">
<title>Node13</title>
<g id="a_Node000013"><a xlink:href="freebsd_8h.html" target="_top" xlink:title=" ">
<polygon fill="white" stroke="#666666" points="616,-184 500,-184 500,-165 616,-165 616,-184"/>
<text text-anchor="middle" x="558" y="-172" font-family="Helvetica,sans-Serif" font-size="10.00">compat/os/freebsd.h</text>
</a>
</g>
</g>
<!-- Node5&#45;&gt;Node13 -->
<g id="edge11_Node000005_Node000013" class="edge">
<title>Node5&#45;&gt;Node13</title>
<g id="a_edge11_Node000005_Node000013"><a xlink:title=" ">
<path fill="none" stroke="#63b8ff" d="M558,-219.75C558,-212.8 558,-202.85 558,-194.13"/>
<polygon fill="#63b8ff" stroke="#63b8ff" points="561.5,-194.09 558,-184.09 554.5,-194.09 561.5,-194.09"/>
</a>
</g>
</g>
<!-- Node14 -->
<g id="Node000014" class="node">
<title>Node14</title>
<g id="a_Node000014"><a xlink:href="hpux_8h.html" target="_top" xlink:title=" ">
<polygon fill="white" stroke="#666666" points="738,-184 634,-184 634,-165 738,-165 738,-184"/>
<text text-anchor="middle" x="686" y="-172" font-family="Helvetica,sans-Serif" font-size="10.00">compat/os/hpux.h</text>
</a>
</g>
</g>
<!-- Node5&#45;&gt;Node14 -->
<g id="edge12_Node000005_Node000014" class="edge">
<title>Node5&#45;&gt;Node14</title>
<g id="a_edge12_Node000005_Node000014"><a xlink:title=" ">
<path fill="none" stroke="#63b8ff" d="M578.57,-219.98C599.43,-211.34 631.97,-197.87 655.77,-188.02"/>
<polygon fill="#63b8ff" stroke="#63b8ff" points="657.16,-191.23 665.06,-184.17 654.48,-184.76 657.16,-191.23"/>
</a>
</g>
</g>
<!-- Node46 -->
<g id="Node000046" class="node">
<title>Node46</title>
<g id="a_Node000046"><a xlink:href="acl_2forward_8h.html" target="_top" xlink:title=" ">
<polygon fill="#fff0f0" stroke="red" points="1577,-129 1497,-129 1497,-110 1577,-110 1577,-129"/>
<text text-anchor="middle" x="1537" y="-117" font-family="Helvetica,sans-Serif" font-size="10.00">acl/forward.h</text>
</a>
</g>
</g>
<!-- Node45&#45;&gt;Node46 -->
<g id="edge14_Node000045_Node000046" class="edge">
<title>Node45&#45;&gt;Node46</title>
<g id="a_edge14_Node000045_Node000046"><a xlink:title=" ">
<path fill="none" stroke="#63b8ff" d="M1643.6,-164.98C1622.98,-156.38 1590.89,-142.99 1567.31,-133.15"/>
<polygon fill="#63b8ff" stroke="#63b8ff" points="1568.35,-129.79 1557.78,-129.17 1565.66,-136.25 1568.35,-129.79"/>
</a>
</g>
</g>
<!-- Node51 -->
<g id="Node000051" class="node">
<title>Node51</title>
<g id="a_Node000051"><a xlink:href="defines_8h.html" target="_top" xlink:title=" ">
<polygon fill="white" stroke="#666666" points="1694.5,-129 1633.5,-129 1633.5,-110 1694.5,-110 1694.5,-129"/>
<text text-anchor="middle" x="1664" y="-117" font-family="Helvetica,sans-Serif" font-size="10.00">defines.h</text>
</a>
</g>
</g>
<!-- Node45&#45;&gt;Node51 -->
<g id="edge15_Node000045_Node000051" class="edge">
<title>Node45&#45;&gt;Node51</title>
<g id="a_edge15_Node000045_Node000051"><a xlink:title=" ">
<path fill="none" stroke="#63b8ff" d="M1664,-164.75C1664,-157.8 1664,-147.85 1664,-139.13"/>
<polygon fill="#63b8ff" stroke="#63b8ff" points="1667.5,-139.09 1664,-129.09 1660.5,-139.09 1667.5,-139.09"/>
</a>
</g>
</g>
<!-- Node52 -->
<g id="Node000052" class="node">
<title>Node52</title>
<g id="a_Node000052"><a xlink:href="dlink_8h.html" target="_top" xlink:title=" ">
<polygon fill="#fff0f0" stroke="red" points="1763,-129 1713,-129 1713,-110 1763,-110 1763,-129"/>
<text text-anchor="middle" x="1738" y="-117" font-family="Helvetica,sans-Serif" font-size="10.00">dlink.h</text>
</a>
</g>
</g>
<!-- Node45&#45;&gt;Node52 -->
<g id="edge16_Node000045_Node000052" class="edge">
<title>Node45&#45;&gt;Node52</title>
<g id="a_edge16_Node000045_Node000052"><a xlink:title=" ">
<path fill="none" stroke="#63b8ff" d="M1675.89,-164.98C1687.15,-156.92 1704.29,-144.65 1717.71,-135.03"/>
<polygon fill="#63b8ff" stroke="#63b8ff" points="1719.8,-137.84 1725.89,-129.17 1715.73,-132.15 1719.8,-137.84"/>
</a>
</g>
</g>
<!-- Node56 -->
<g id="Node000056" class="node">
<title>Node56</title>
<g id="a_Node000056"><a xlink:href="SBuf_8h.html" target="_top" xlink:title=" ">
<polygon fill="#fff0f0" stroke="red" points="2210.5,-129 2139.5,-129 2139.5,-110 2210.5,-110 2210.5,-129"/>
<text text-anchor="middle" x="2175" y="-117" font-family="Helvetica,sans-Serif" font-size="10.00">sbuf/SBuf.h</text>
</a>
</g>
</g>
<!-- Node45&#45;&gt;Node56 -->
<g id="edge17_Node000045_Node000056" class="edge">
<title>Node45&#45;&gt;Node56</title>
<g id="a_edge17_Node000045_Node000056"><a xlink:title=" ">
<path fill="none" stroke="#63b8ff" d="M1693.38,-166.51C1696.28,-165.95 1699.19,-165.43 1702,-165 1887.47,-136.59 1939.1,-154.13 2129.15,-128.96"/>
<polygon fill="#63b8ff" stroke="#63b8ff" points="2129.75,-132.41 2139.19,-127.61 2128.82,-125.47 2129.75,-132.41"/>
</a>
</g>
</g>
<!-- Node83 -->
<g id="Node000083" class="node">
<title>Node83</title>
<g id="a_Node000083"><a xlink:title=" ">
<polygon fill="#e0e0e0" stroke="#999999" points="2047,-129 1983,-129 1983,-110 2047,-110 2047,-129"/>
<text text-anchor="middle" x="2015" y="-117" font-family="Helvetica,sans-Serif" font-size="10.00">algorithm</text>
</a>
</g>
</g>
<!-- Node45&#45;&gt;Node83 -->
<g id="edge26_Node000045_Node000083" class="edge">
<title>Node45&#45;&gt;Node83</title>
<g id="a_edge26_Node000045_Node000083"><a xlink:title=" ">
<path fill="none" stroke="#63b8ff" d="M1693.41,-166.65C1696.3,-166.06 1699.2,-165.5 1702,-165 1818.9,-144.23 1852.04,-149.11 1972.81,-129.09"/>
<polygon fill="#63b8ff" stroke="#63b8ff" points="1973.53,-132.51 1982.81,-127.4 1972.37,-125.61 1973.53,-132.51"/>
</a>
</g>
</g>
<!-- Node84 -->
<g id="Node000084" class="node">
<title>Node84</title>
<g id="a_Node000084"><a xlink:title=" ">
<polygon fill="#e0e0e0" stroke="#999999" points="1899,-129 1843,-129 1843,-110 1899,-110 1899,-129"/>
<text text-anchor="middle" x="1871" y="-117" font-family="Helvetica,sans-Serif" font-size="10.00">optional</text>
</a>
</g>
</g>
<!-- Node45&#45;&gt;Node84 -->
<g id="edge27_Node000045_Node000084" class="edge">
<title>Node45&#45;&gt;Node84</title>
<g id="a_edge27_Node000045_Node000084"><a xlink:title=" ">
<path fill="none" stroke="#63b8ff" d="M1693.22,-166.02C1729.9,-156.63 1792.88,-140.5 1833.19,-130.18"/>
<polygon fill="#63b8ff" stroke="#63b8ff" points="1834.1,-133.56 1842.92,-127.69 1832.37,-126.78 1834.1,-133.56"/>
</a>
</g>
</g>
<!-- Node85 -->
<g id="Node000085" class="node">
<title>Node85</title>
<g id="a_Node000085"><a xlink:title=" ">
<polygon fill="#e0e0e0" stroke="#999999" points="1633.5,-74 1576.5,-74 1576.5,-55 1633.5,-55 1633.5,-74"/>
<text text-anchor="middle" x="1605" y="-62" font-family="Helvetica,sans-Serif" font-size="10.00">ostream</text>
</a>
</g>
</g>
<!-- Node45&#45;&gt;Node85 -->
<g id="edge28_Node000045_Node000085" class="edge">
<title>Node45&#45;&gt;Node85</title>
<g id="a_edge28_Node000045_Node000085"><a xlink:title=" ">
<path fill="none" stroke="#63b8ff" d="M1654.09,-164.9C1645.05,-156.56 1631.93,-143.13 1624,-129 1616.16,-115.03 1611.23,-97.47 1608.36,-84.37"/>
<polygon fill="#63b8ff" stroke="#63b8ff" points="1611.72,-83.32 1606.35,-74.19 1604.85,-84.68 1611.72,-83.32"/>
</a>
</g>
</g>
<!-- Node56&#45;&gt;Node62 -->
<g id="edge18_Node000056_Node000062" class="edge">
<title>Node56&#45;&gt;Node62</title>
<g id="a_edge18_Node000056_Node000062"><a xlink:title=" ">
<path fill="none" stroke="#63b8ff" d="M2139.21,-111.29C2136.1,-110.8 2133,-110.36 2130,-110 1833.5,-74.2 1756.21,-103.32 1459,-74 1458.52,-73.95 1458.05,-73.9 1457.57,-73.86"/>
<polygon fill="#63b8ff" stroke="#63b8ff" points="1457.62,-70.34 1447.29,-72.69 1456.84,-77.3 1457.62,-70.34"/>
</a>
</g>
</g>
<!-- Node72 -->
<g id="Node000072" class="node">
<title>Node72</title>
<g id="a_Node000072"><a xlink:href="sbuf_2forward_8h.html" target="_top" xlink:title=" ">
<polygon fill="#fff0f0" stroke="red" points="1555.5,-74 1468.5,-74 1468.5,-55 1555.5,-55 1555.5,-74"/>
<text text-anchor="middle" x="1512" y="-62" font-family="Helvetica,sans-Serif" font-size="10.00">sbuf/forward.h</text>
</a>
</g>
</g>
<!-- Node56&#45;&gt;Node72 -->
<g id="edge24_Node000056_Node000072" class="edge">
<title>Node56&#45;&gt;Node72</title>
<g id="a_edge24_Node000056_Node000072"><a xlink:title=" ">
<path fill="none" stroke="#63b8ff" d="M2139.2,-111.33C2136.1,-110.83 2133,-110.38 2130,-110 1881.23,-78.67 1816.26,-101.17 1567,-74 1566.66,-73.96 1566.31,-73.92 1565.97,-73.89"/>
<polygon fill="#63b8ff" stroke="#63b8ff" points="1566.14,-70.38 1555.78,-72.63 1565.28,-77.33 1566.14,-70.38"/>
</a>
</g>
</g>
<!-- Node60 -->
<g id="Node000060" class="node">
<title>Node60</title>
<g id="a_Node000060"><a xlink:href="Here_8h.html" target="_top" xlink:title=" ">
<polygon fill="#fff0f0" stroke="red" points="1595.5,-19 1520.5,-19 1520.5,0 1595.5,0 1595.5,-19"/>
<text text-anchor="middle" x="1558" y="-7" font-family="Helvetica,sans-Serif" font-size="10.00">base/Here.h</text>
</a>
</g>
</g>
<!-- Node62&#45;&gt;Node60 -->
<g id="edge19_Node000062_Node000060" class="edge">
<title>Node62&#45;&gt;Node60</title>
<g id="a_edge19_Node000062_Node000060"><a xlink:title=" ">
<path fill="none" stroke="#63b8ff" d="M1425.39,-54.98C1451.8,-46.13 1493.35,-32.19 1522.89,-22.28"/>
<polygon fill="#63b8ff" stroke="#63b8ff" points="1524.05,-25.58 1532.42,-19.08 1521.82,-18.94 1524.05,-25.58"/>
</a>
</g>
</g>
<!-- Node54 -->
<g id="Node000054" class="node">
<title>Node54</title>
<g id="a_Node000054"><a xlink:href="AllocatorProxy_8h.html" target="_top" xlink:title=" ">
<polygon fill="white" stroke="#666666" points="1276,-19 1152,-19 1152,0 1276,0 1276,-19"/>
<text text-anchor="middle" x="1214" y="-7" font-family="Helvetica,sans-Serif" font-size="10.00">mem/AllocatorProxy.h</text>
</a>
</g>
</g>
<!-- Node62&#45;&gt;Node54 -->
<g id="edge20_Node000062_Node000054" class="edge">
<title>Node62&#45;&gt;Node54</title>
<g id="a_edge20_Node000062_Node000054"><a xlink:title=" ">
<path fill="none" stroke="#63b8ff" d="M1370.12,-54.98C1338.62,-46.01 1288.83,-31.82 1253.97,-21.89"/>
<polygon fill="#63b8ff" stroke="#63b8ff" points="1254.69,-18.46 1244.12,-19.08 1252.78,-25.19 1254.69,-18.46"/>
</a>
</g>
</g>
<!-- Node49 -->
<g id="Node000049" class="node">
<title>Node49</title>
<g id="a_Node000049"><a xlink:title=" ">
<polygon fill="#e0e0e0" stroke="#999999" points="1354,-19 1294,-19 1294,0 1354,0 1354,-19"/>
<text text-anchor="middle" x="1324" y="-7" font-family="Helvetica,sans-Serif" font-size="10.00">iostream</text>
</a>
</g>
</g>
<!-- Node62&#45;&gt;Node49 -->
<g id="edge21_Node000062_Node000049" class="edge">
<title>Node62&#45;&gt;Node49</title>
<g id="a_edge21_Node000062_Node000049"><a xlink:title=" ">
<path fill="none" stroke="#63b8ff" d="M1387.79,-54.98C1376.22,-46.92 1358.62,-34.65 1344.84,-25.03"/>
<polygon fill="#63b8ff" stroke="#63b8ff" points="1346.64,-22.02 1336.43,-19.17 1342.63,-27.76 1346.64,-22.02"/>
</a>
</g>
</g>
<!-- Node63 -->
<g id="Node000063" class="node">
<title>Node63</title>
<g id="a_Node000063"><a xlink:title=" ">
<polygon fill="#e0e0e0" stroke="#999999" points="1428,-19 1372,-19 1372,0 1428,0 1428,-19"/>
<text text-anchor="middle" x="1400" y="-7" font-family="Helvetica,sans-Serif" font-size="10.00">sstream</text>
</a>
</g>
</g>
<!-- Node62&#45;&gt;Node63 -->
<g id="edge22_Node000062_Node000063" class="edge">
<title>Node62&#45;&gt;Node63</title>
<g id="a_edge22_Node000062_Node000063"><a xlink:title=" ">
<path fill="none" stroke="#63b8ff" d="M1400,-54.75C1400,-47.8 1400,-37.85 1400,-29.13"/>
<polygon fill="#63b8ff" stroke="#63b8ff" points="1403.5,-29.09 1400,-19.09 1396.5,-29.09 1403.5,-29.09"/>
</a>
</g>
</g>
<!-- Node64 -->
<g id="Node000064" class="node">
<title>Node64</title>
<g id="a_Node000064"><a xlink:title=" ">
<polygon fill="#e0e0e0" stroke="#999999" points="1502,-19 1446,-19 1446,0 1502,0 1502,-19"/>
<text text-anchor="middle" x="1474" y="-7" font-family="Helvetica,sans-Serif" font-size="10.00">iomanip</text>
</a>
</g>
</g>
<!-- Node62&#45;&gt;Node64 -->
<g id="edge23_Node000062_Node000064" class="edge">
<title>Node62&#45;&gt;Node64</title>
<g id="a_edge23_Node000062_Node000064"><a xlink:title=" ">
<path fill="none" stroke="#63b8ff" d="M1411.89,-54.98C1423.15,-46.92 1440.29,-34.65 1453.71,-25.03"/>
<polygon fill="#63b8ff" stroke="#63b8ff" points="1455.8,-27.84 1461.89,-19.17 1451.73,-22.15 1455.8,-27.84"/>
</a>
</g>
</g>
<!-- Node74 -->
<g id="Node000074" class="node">
<title>Node74</title>
<g id="a_Node000074"><a xlink:title=" ">
<polygon fill="#e0e0e0" stroke="#999999" points="2403,-19 2371,-19 2371,0 2403,0 2403,-19"/>
<text text-anchor="middle" x="2387" y="-7" font-family="Helvetica,sans-Serif" font-size="10.00">list</text>
</a>
</g>
</g>
<!-- Node72&#45;&gt;Node74 -->
<g id="edge25_Node000072_Node000074" class="edge">
<title>Node72&#45;&gt;Node74</title>
<g id="a_edge25_Node000072_Node000074"><a xlink:title=" ">
<path fill="none" stroke="#63b8ff" d="M1555.78,-56.33C1559.57,-55.84 1563.35,-55.38 1567,-55 1878.26,-22.58 2258.61,-13.04 2360.73,-10.98"/>
<polygon fill="#63b8ff" stroke="#63b8ff" points="2360.84,-14.48 2370.77,-10.78 2360.7,-7.48 2360.84,-14.48"/>
</a>
</g>
</g>
<!-- Node86&#45;&gt;Node45 -->
<g id="edge30_Node000086_Node000045" class="edge">
<title>Node86&#45;&gt;Node45</title>
<g id="a_edge30_Node000086_Node000045"><a xlink:title=" ">
<path fill="none" stroke="#63b8ff" d="M1852.01,-219.98C1811.22,-210.33 1744.97,-194.66 1702.98,-184.72"/>
<polygon fill="#63b8ff" stroke="#63b8ff" points="1703.66,-181.29 1693.12,-182.39 1702.05,-188.1 1703.66,-181.29"/>
</a>
</g>
</g>
<!-- Node86&#45;&gt;Node84 -->
<g id="edge34_Node000086_Node000084" class="edge">
<title>Node86&#45;&gt;Node84</title>
<g id="a_edge34_Node000086_Node000084"><a xlink:title=" ">
<path fill="none" stroke="#63b8ff" d="M1899.11,-219.69C1912.87,-207.65 1933.42,-185.22 1924,-165 1918.17,-152.49 1906.91,-142.25 1896.25,-134.76"/>
<polygon fill="#63b8ff" stroke="#63b8ff" points="1897.88,-131.64 1887.58,-129.13 1894.06,-137.51 1897.88,-131.64"/>
</a>
</g>
</g>
<!-- Node87 -->
<g id="Node000087" class="node">
<title>Node87</title>
<g id="a_Node000087"><a xlink:href="InnerNode_8h.html" target="_top" xlink:title=" ">
<polygon fill="#fff0f0" stroke="red" points="1804.5,-184 1711.5,-184 1711.5,-165 1804.5,-165 1804.5,-184"/>
<text text-anchor="middle" x="1758" y="-172" font-family="Helvetica,sans-Serif" font-size="10.00">acl/InnerNode.h</text>
</a>
</g>
</g>
<!-- Node86&#45;&gt;Node87 -->
<g id="edge31_Node000086_Node000087" class="edge">
<title>Node86&#45;&gt;Node87</title>
<g id="a_edge31_Node000086_Node000087"><a xlink:title=" ">
<path fill="none" stroke="#63b8ff" d="M1867.11,-219.98C1845.92,-211.34 1812.87,-197.87 1788.7,-188.02"/>
<polygon fill="#63b8ff" stroke="#63b8ff" points="1789.85,-184.7 1779.27,-184.17 1787.21,-191.19 1789.85,-184.7"/>
</a>
</g>
</g>
<!-- Node90 -->
<g id="Node000090" class="node">
<title>Node90</title>
<g id="a_Node000090"><a xlink:title=" ">
<polygon fill="#e0e0e0" stroke="#999999" points="1964.5,-129 1917.5,-129 1917.5,-110 1964.5,-110 1964.5,-129"/>
<text text-anchor="middle" x="1941" y="-117" font-family="Helvetica,sans-Serif" font-size="10.00">vector</text>
</a>
</g>
</g>
<!-- Node86&#45;&gt;Node90 -->
<g id="edge36_Node000086_Node000090" class="edge">
<title>Node86&#45;&gt;Node90</title>
<g id="a_edge36_Node000086_Node000090"><a xlink:title=" ">
<path fill="none" stroke="#63b8ff" d="M1903.6,-219.81C1915.67,-212.13 1931.55,-199.72 1939,-184 1945.57,-170.12 1945.59,-152.56 1944.24,-139.42"/>
<polygon fill="#63b8ff" stroke="#63b8ff" points="1947.66,-138.65 1942.82,-129.22 1940.73,-139.61 1947.66,-138.65"/>
</a>
</g>
</g>
<!-- Node91 -->
<g id="Node000091" class="node">
<title>Node91</title>
<g id="a_Node000091"><a xlink:href="cbdata_8h.html" target="_top" xlink:title=" ">
<polygon fill="white" stroke="#666666" points="1881.5,-184 1822.5,-184 1822.5,-165 1881.5,-165 1881.5,-184"/>
<text text-anchor="middle" x="1852" y="-172" font-family="Helvetica,sans-Serif" font-size="10.00">cbdata.h</text>
</a>
</g>
</g>
<!-- Node86&#45;&gt;Node91 -->
<g id="edge33_Node000086_Node000091" class="edge">
<title>Node86&#45;&gt;Node91</title>
<g id="a_edge33_Node000086_Node000091"><a xlink:title=" ">
<path fill="none" stroke="#63b8ff" d="M1882.06,-219.75C1877.02,-212.34 1869.66,-201.5 1863.49,-192.41"/>
<polygon fill="#63b8ff" stroke="#63b8ff" points="1866.35,-190.39 1857.83,-184.09 1860.56,-194.33 1866.35,-190.39"/>
</a>
</g>
</g>
<!-- Node92 -->
<g id="Node000092" class="node">
<title>Node92</title>
<g id="a_Node000092"><a xlink:title=" ">
<polygon fill="#e0e0e0" stroke="#999999" points="1824.5,-129 1781.5,-129 1781.5,-110 1824.5,-110 1824.5,-129"/>
<text text-anchor="middle" x="1803" y="-117" font-family="Helvetica,sans-Serif" font-size="10.00">stack</text>
</a>
</g>
</g>
<!-- Node86&#45;&gt;Node92 -->
<g id="edge35_Node000086_Node000092" class="edge">
<title>Node86&#45;&gt;Node92</title>
<g id="a_edge35_Node000086_Node000092"><a xlink:title=" ">
<path fill="none" stroke="#63b8ff" d="M1891.24,-219.94C1895.57,-206.99 1901.52,-182.11 1891,-165 1884.45,-154.34 1856.7,-141.35 1834.1,-132.17"/>
<polygon fill="#63b8ff" stroke="#63b8ff" points="1835.38,-128.91 1824.8,-128.48 1832.8,-135.42 1835.38,-128.91"/>
</a>
</g>
</g>
<!-- Node87&#45;&gt;Node90 -->
<g id="edge32_Node000087_Node000090" class="edge">
<title>Node87&#45;&gt;Node90</title>
<g id="a_edge32_Node000087_Node000090"><a xlink:title=" ">
<path fill="none" stroke="#63b8ff" d="M1787.4,-164.98C1820.18,-155.49 1873.09,-140.17 1907.46,-130.21"/>
<polygon fill="#63b8ff" stroke="#63b8ff" points="1908.86,-133.45 1917.49,-127.31 1906.91,-126.73 1908.86,-133.45"/>
</a>
</g>
</g>
<!-- Node93&#45;&gt;Node74 -->
<g id="edge42_Node000093_Node000074" class="edge">
<title>Node93&#45;&gt;Node74</title>
<g id="a_edge42_Node000093_Node000074"><a xlink:title=" ">
<path fill="none" stroke="#63b8ff" d="M2319.56,-274.98C2358.51,-261.03 2425,-229.34 2425,-175.5 2425,-175.5 2425,-175.5 2425,-118.5 2425,-85.02 2408.55,-48.84 2397.3,-28.01"/>
<polygon fill="#63b8ff" stroke="#63b8ff" points="2400.24,-26.1 2392.28,-19.1 2394.13,-29.53 2400.24,-26.1"/>
</a>
</g>
</g>
<!-- Node94 -->
<g id="Node000094" class="node">
<title>Node94</title>
<g id="a_Node000094"><a xlink:href="Data_8h.html" target="_top" xlink:title=" ">
<polygon fill="#fff0f0" stroke="red" points="2332,-239 2266,-239 2266,-220 2332,-220 2332,-239"/>
<text text-anchor="middle" x="2299" y="-227" font-family="Helvetica,sans-Serif" font-size="10.00">acl/Data.h</text>
</a>
</g>
</g>
<!-- Node93&#45;&gt;Node94 -->
<g id="edge38_Node000093_Node000094" class="edge">
<title>Node93&#45;&gt;Node94</title>
<g id="a_edge38_Node000093_Node000094"><a xlink:title=" ">
<path fill="none" stroke="#63b8ff" d="M2293.16,-274.75C2294.07,-267.8 2295.39,-257.85 2296.54,-249.13"/>
<polygon fill="#63b8ff" stroke="#63b8ff" points="2300.03,-249.46 2297.87,-239.09 2293.09,-248.54 2300.03,-249.46"/>
</a>
</g>
</g>
<!-- Node94&#45;&gt;Node95 -->
<g id="edge39_Node000094_Node000095" class="edge">
<title>Node94&#45;&gt;Node95</title>
<g id="a_edge39_Node000094_Node000095"><a xlink:title=" ">
<path fill="none" stroke="#63b8ff" d="M2300.98,-219.75C2302.57,-212.72 2304.86,-202.62 2306.85,-193.84"/>
<polygon fill="#63b8ff" stroke="#63b8ff" points="2310.26,-194.62 2309.06,-184.09 2303.43,-193.07 2310.26,-194.62"/>
</a>
</g>
</g>
<!-- Node95&#45;&gt;Node56 -->
<g id="edge40_Node000095_Node000056" class="edge">
<title>Node95&#45;&gt;Node56</title>
<g id="a_edge40_Node000095_Node000056"><a xlink:title=" ">
<path fill="none" stroke="#63b8ff" d="M2289.15,-164.98C2266.88,-156.3 2232.1,-142.75 2206.78,-132.88"/>
<polygon fill="#63b8ff" stroke="#63b8ff" points="2207.84,-129.54 2197.25,-129.17 2205.29,-136.06 2207.84,-129.54"/>
</a>
</g>
</g>
<!-- Node95&#45;&gt;Node74 -->
<g id="edge41_Node000095_Node000074" class="edge">
<title>Node95&#45;&gt;Node74</title>
<g id="a_edge41_Node000095_Node000074"><a xlink:title=" ">
<path fill="none" stroke="#63b8ff" d="M2327.83,-164.96C2340.98,-157.37 2358.55,-145 2368,-129 2386.48,-97.71 2388.6,-54.07 2388.07,-29.41"/>
<polygon fill="#63b8ff" stroke="#63b8ff" points="2391.56,-29.11 2387.68,-19.26 2384.57,-29.38 2391.56,-29.11"/>
</a>
</g>
</g>
<!-- Node96&#45;&gt;Node56 -->
<g id="edge45_Node000096_Node000056" class="edge">
<title>Node96&#45;&gt;Node56</title>
<g id="a_edge45_Node000096_Node000056"><a xlink:title=" ">
<path fill="none" stroke="#63b8ff" d="M2095.12,-274.82C2104.41,-266.42 2118.05,-252.95 2127,-239 2148,-206.28 2162.74,-162.85 2169.95,-138.69"/>
<polygon fill="#63b8ff" stroke="#63b8ff" points="2173.32,-139.64 2172.73,-129.06 2166.59,-137.7 2173.32,-139.64"/>
</a>
</g>
</g>
<!-- Node79 -->
<g id="Node000079" class="node">
<title>Node79</title>
<g id="a_Node000079"><a xlink:title=" ">
<polygon fill="#e0e0e0" stroke="#999999" points="2118,-239 2026,-239 2026,-220 2118,-220 2118,-239"/>
<text text-anchor="middle" x="2072" y="-227" font-family="Helvetica,sans-Serif" font-size="10.00">mem/forward.h</text>
</a>
</g>
</g>
<!-- Node96&#45;&gt;Node79 -->
<g id="edge44_Node000096_Node000079" class="edge">
<title>Node96&#45;&gt;Node79</title>
<g id="a_edge44_Node000096_Node000079"><a xlink:title=" ">
<path fill="none" stroke="#63b8ff" d="M2082.85,-274.75C2081.13,-267.72 2078.65,-257.62 2076.5,-248.84"/>
<polygon fill="#63b8ff" stroke="#63b8ff" points="2079.89,-247.97 2074.11,-239.09 2073.09,-249.63 2079.89,-247.97"/>
</a>
</g>
</g>
<!-- Node98&#45;&gt;Node46 -->
<g id="edge48_Node000098_Node000046" class="edge">
<title>Node98&#45;&gt;Node46</title>
<g id="a_edge48_Node000098_Node000046"><a xlink:title=" ">
<path fill="none" stroke="#63b8ff" d="M1422.01,-164.98C1444.45,-156.3 1479.48,-142.75 1504.99,-132.88"/>
<polygon fill="#63b8ff" stroke="#63b8ff" points="1506.52,-136.04 1514.59,-129.17 1504,-129.51 1506.52,-136.04"/>
</a>
</g>
</g>
<!-- Node98&#45;&gt;Node72 -->
<g id="edge50_Node000098_Node000072" class="edge">
<title>Node98&#45;&gt;Node72</title>
<g id="a_edge50_Node000098_Node000072"><a xlink:title=" ">
<path fill="none" stroke="#63b8ff" d="M1409.9,-164.78C1419.9,-155.92 1435.72,-141.71 1449,-129 1465.54,-113.17 1483.92,-94.52 1496.54,-81.54"/>
<polygon fill="#63b8ff" stroke="#63b8ff" points="1499.14,-83.89 1503.58,-74.27 1494.11,-79.02 1499.14,-83.89"/>
</a>
</g>
</g>
<!-- Node98&#45;&gt;Node92 -->
<g id="edge57_Node000098_Node000092" class="edge">
<title>Node98&#45;&gt;Node92</title>
<g id="a_edge57_Node000098_Node000092"><a xlink:title=" ">
<path fill="none" stroke="#63b8ff" d="M1443,-170.44C1510.77,-165.17 1646.66,-152.77 1771.32,-128.83"/>
<polygon fill="#63b8ff" stroke="#63b8ff" points="1772.27,-132.21 1781.42,-126.86 1770.93,-125.34 1772.27,-132.21"/>
</a>
</g>
</g>
<!-- Node99 -->
<g id="Node000099" class="node">
<title>Node99</title>
<g id="a_Node000099"><a xlink:href="base_2forward_8h.html" target="_top" xlink:title=" ">
<polygon fill="white" stroke="#666666" points="1265.5,-129 1176.5,-129 1176.5,-110 1265.5,-110 1265.5,-129"/>
<text text-anchor="middle" x="1221" y="-117" font-family="Helvetica,sans-Serif" font-size="10.00">base/forward.h</text>
</a>
</g>
</g>
<!-- Node98&#45;&gt;Node99 -->
<g id="edge49_Node000098_Node000099" class="edge">
<title>Node98&#45;&gt;Node99</title>
<g id="a_edge49_Node000098_Node000099"><a xlink:title=" ">
<path fill="none" stroke="#63b8ff" d="M1371.24,-164.98C1341.06,-156.05 1293.43,-141.94 1259.9,-132.02"/>
<polygon fill="#63b8ff" stroke="#63b8ff" points="1260.57,-128.57 1249.98,-129.08 1258.58,-135.28 1260.57,-128.57"/>
</a>
</g>
</g>
<!-- Node100 -->
<g id="Node000100" class="node">
<title>Node100</title>
<g id="a_Node000100"><a xlink:href="SquidString_8h.html" target="_top" xlink:title=" ">
<polygon fill="#fff0f0" stroke="red" points="1440.5,-129 1359.5,-129 1359.5,-110 1440.5,-110 1440.5,-129"/>
<text text-anchor="middle" x="1400" y="-117" font-family="Helvetica,sans-Serif" font-size="10.00">SquidString.h</text>
</a>
</g>
</g>
<!-- Node98&#45;&gt;Node100 -->
<g id="edge51_Node000098_Node000100" class="edge">
<title>Node98&#45;&gt;Node100</title>
<g id="a_edge51_Node000098_Node000100"><a xlink:title=" ">
<path fill="none" stroke="#63b8ff" d="M1400,-164.75C1400,-157.8 1400,-147.85 1400,-139.13"/>
<polygon fill="#63b8ff" stroke="#63b8ff" points="1403.5,-139.09 1400,-129.09 1396.5,-139.09 1403.5,-139.09"/>
</a>
</g>
</g>
<!-- Node101 -->
<g id="Node000101" class="node">
<title>Node101</title>
<g id="a_Node000101"><a xlink:title=" ">
<polygon fill="#e0e0e0" stroke="#999999" points="1341,-129 1283,-129 1283,-110 1341,-110 1341,-129"/>
<text text-anchor="middle" x="1312" y="-117" font-family="Helvetica,sans-Serif" font-size="10.00">memory</text>
</a>
</g>
</g>
<!-- Node98&#45;&gt;Node101 -->
<g id="edge55_Node000098_Node000101" class="edge">
<title>Node98&#45;&gt;Node101</title>
<g id="a_edge55_Node000098_Node000101"><a xlink:title=" ">
<path fill="none" stroke="#63b8ff" d="M1385.86,-164.98C1372.21,-156.77 1351.31,-144.18 1335.22,-134.49"/>
<polygon fill="#63b8ff" stroke="#63b8ff" points="1336.77,-131.33 1326.4,-129.17 1333.16,-137.33 1336.77,-131.33"/>
</a>
</g>
</g>
<!-- Node102 -->
<g id="Node000102" class="node">
<title>Node102</title>
<g id="a_Node000102"><a xlink:title=" ">
<polygon fill="#e0e0e0" stroke="#999999" points="1095.5,-129 1048.5,-129 1048.5,-110 1095.5,-110 1095.5,-129"/>
<text text-anchor="middle" x="1072" y="-117" font-family="Helvetica,sans-Serif" font-size="10.00">queue</text>
</a>
</g>
</g>
<!-- Node98&#45;&gt;Node102 -->
<g id="edge56_Node000098_Node000102" class="edge">
<title>Node98&#45;&gt;Node102</title>
<g id="a_edge56_Node000098_Node000102"><a xlink:title=" ">
<path fill="none" stroke="#63b8ff" d="M1356.76,-168.39C1301.03,-161.49 1200.96,-148.05 1105.81,-128.97"/>
<polygon fill="#63b8ff" stroke="#63b8ff" points="1106.22,-125.48 1095.73,-126.92 1104.83,-132.34 1106.22,-125.48"/>
</a>
</g>
</g>
<!-- Node103 -->
<g id="Node000103" class="node">
<title>Node103</title>
<g id="a_Node000103"><a xlink:title=" ">
<polygon fill="#e0e0e0" stroke="#999999" points="1158,-129 1114,-129 1114,-110 1158,-110 1158,-129"/>
<text text-anchor="middle" x="1136" y="-117" font-family="Helvetica,sans-Serif" font-size="10.00">string</text>
</a>
</g>
</g>
<!-- Node98&#45;&gt;Node103 -->
<g id="edge58_Node000098_Node000103" class="edge">
<title>Node98&#45;&gt;Node103</title>
<g id="a_edge58_Node000098_Node000103"><a xlink:title=" ">
<path fill="none" stroke="#63b8ff" d="M1356.84,-166.31C1312.02,-158.61 1239.66,-145.52 1168.35,-129.17"/>
<polygon fill="#63b8ff" stroke="#63b8ff" points="1168.83,-125.69 1158.3,-126.84 1167.25,-132.51 1168.83,-125.69"/>
</a>
</g>
</g>
<!-- Node100&#45;&gt;Node62 -->
<g id="edge52_Node000100_Node000062" class="edge">
<title>Node100&#45;&gt;Node62</title>
<g id="a_edge52_Node000100_Node000062"><a xlink:title=" ">
<path fill="none" stroke="#63b8ff" d="M1400,-109.75C1400,-102.8 1400,-92.85 1400,-84.13"/>
<polygon fill="#63b8ff" stroke="#63b8ff" points="1403.5,-84.09 1400,-74.09 1396.5,-84.09 1403.5,-84.09"/>
</a>
</g>
</g>
<!-- Node100&#45;&gt;Node72 -->
<g id="edge53_Node000100_Node000072" class="edge">
<title>Node100&#45;&gt;Node72</title>
<g id="a_edge53_Node000100_Node000072"><a xlink:title=" ">
<path fill="none" stroke="#63b8ff" d="M1417.99,-109.98C1435.93,-101.5 1463.72,-88.35 1484.43,-78.54"/>
<polygon fill="#63b8ff" stroke="#63b8ff" points="1486.14,-81.61 1493.68,-74.17 1483.14,-75.28 1486.14,-81.61"/>
</a>
</g>
</g>
<!-- Node100&#45;&gt;Node85 -->
<g id="edge54_Node000100_Node000085" class="edge">
<title>Node100&#45;&gt;Node85</title>
<g id="a_edge54_Node000100_Node000085"><a xlink:title=" ">
<path fill="none" stroke="#63b8ff" d="M1432.94,-109.98C1469.4,-100.56 1528.12,-85.38 1566.63,-75.42"/>
<polygon fill="#63b8ff" stroke="#63b8ff" points="1567.64,-78.77 1576.44,-72.88 1565.89,-72 1567.64,-78.77"/>
</a>
</g>
</g>
<!-- Node104&#45;&gt;Node56 -->
<g id="edge61_Node000104_Node000056" class="edge">
<title>Node104&#45;&gt;Node56</title>
<g id="a_edge61_Node000104_Node000056"><a xlink:title=" ">
<path fill="none" stroke="#63b8ff" d="M2083.51,-164.98C2100.97,-156.5 2128.01,-143.35 2148.17,-133.54"/>
<polygon fill="#63b8ff" stroke="#63b8ff" points="2149.71,-136.69 2157.17,-129.17 2146.64,-130.4 2149.71,-136.69"/>
</a>
</g>
</g>
<!-- Node104&#45;&gt;Node83 -->
<g id="edge62_Node000104_Node000083" class="edge">
<title>Node104&#45;&gt;Node83</title>
<g id="a_edge62_Node000104_Node000083"><a xlink:title=" ">
<path fill="none" stroke="#63b8ff" d="M2057.58,-164.75C2050.23,-157.11 2039.37,-145.82 2030.46,-136.56"/>
<polygon fill="#63b8ff" stroke="#63b8ff" points="2032.72,-133.87 2023.26,-129.09 2027.68,-138.72 2032.72,-133.87"/>
</a>
</g>
</g>
<!-- Node105 -->
<g id="Node000105" class="node">
<title>Node105</title>
<g id="a_Node000105"><a xlink:title=" ">
<polygon fill="#e0e0e0" stroke="#999999" points="2121,-129 2065,-129 2065,-110 2121,-110 2121,-129"/>
<text text-anchor="middle" x="2093" y="-117" font-family="Helvetica,sans-Serif" font-size="10.00">numeric</text>
</a>
</g>
</g>
<!-- Node104&#45;&gt;Node105 -->
<g id="edge63_Node000104_Node000105" class="edge">
<title>Node104&#45;&gt;Node105</title>
<g id="a_edge63_Node000104_Node000105"><a xlink:title=" ">
<path fill="none" stroke="#63b8ff" d="M2070.46,-164.75C2074.12,-157.57 2079.41,-147.18 2083.95,-138.27"/>
<polygon fill="#63b8ff" stroke="#63b8ff" points="2087.2,-139.59 2088.62,-129.09 2080.97,-136.41 2087.2,-139.59"/>
</a>
</g>
</g>
<!-- Node106&#45;&gt;Node56 -->
<g id="edge68_Node000106_Node000056" class="edge">
<title>Node106&#45;&gt;Node56</title>
<g id="a_edge68_Node000106_Node000056"><a xlink:title=" ">
<path fill="none" stroke="#63b8ff" d="M2210.06,-164.75C2204.13,-157.26 2195.43,-146.28 2188.18,-137.13"/>
<polygon fill="#63b8ff" stroke="#63b8ff" points="2190.76,-134.75 2181.81,-129.09 2185.27,-139.1 2190.76,-134.75"/>
</a>
</g>
</g>
<!-- Node107 -->
<g id="Node000107" class="node">
<title>Node107</title>
<g id="a_Node000107"><a xlink:href="PackableStream_8h.html" target="_top" xlink:title=" ">
<polygon fill="#fff0f0" stroke="red" points="2359,-129 2229,-129 2229,-110 2359,-110 2359,-129"/>
<text text-anchor="middle" x="2294" y="-117" font-family="Helvetica,sans-Serif" font-size="10.00">base/PackableStream.h</text>
</a>
</g>
</g>
<!-- Node106&#45;&gt;Node107 -->
<g id="edge66_Node000106_Node000107" class="edge">
<title>Node106&#45;&gt;Node107</title>
<g id="a_edge66_Node000106_Node000107"><a xlink:title=" ">
<path fill="none" stroke="#63b8ff" d="M2229.37,-164.98C2241.09,-156.92 2258.92,-144.65 2272.89,-135.03"/>
<polygon fill="#63b8ff" stroke="#63b8ff" points="2275.15,-137.72 2281.4,-129.17 2271.18,-131.96 2275.15,-137.72"/>
</a>
</g>
</g>
<!-- Node107&#45;&gt;Node85 -->
<g id="edge67_Node000107_Node000085" class="edge">
<title>Node107&#45;&gt;Node85</title>
<g id="a_edge67_Node000107_Node000085"><a xlink:title=" ">
<path fill="none" stroke="#63b8ff" d="M2228.65,-110.84C2225.72,-110.55 2222.83,-110.27 2220,-110 2002.46,-89.65 1740.88,-73.46 1643.76,-67.74"/>
<polygon fill="#63b8ff" stroke="#63b8ff" points="1643.73,-64.23 1633.54,-67.14 1643.32,-71.22 1643.73,-64.23"/>
</a>
</g>
</g>
</g>
</svg>
