<?xml version="1.0" encoding="UTF-8" standalone="no"?>
<!DOCTYPE svg PUBLIC "-//W3C//DTD SVG 1.1//EN"
 "http://www.w3.org/Graphics/SVG/1.1/DTD/svg11.dtd">
<!-- Generated by graphviz version 2.43.0 (0)
 -->
<!-- Title: squid/src/acl/RegexData.h Pages: 1 -->
<svg width="1119pt" height="93pt"
 viewBox="0.00 0.00 1118.50 93.00" xmlns="http://www.w3.org/2000/svg" xmlns:xlink="http://www.w3.org/1999/xlink">
<g id="graph0" class="graph" transform="scale(1 1) rotate(0) translate(4 89)">
<title>squid/src/acl/RegexData.h</title>
<!-- Node1 -->
<g id="Node000001" class="node">
<title>Node1</title>
<g id="a_Node000001"><a xlink:title=" ">
<polygon fill="#999999" stroke="#666666" points="578.5,-85 435.5,-85 435.5,-66 578.5,-66 578.5,-85"/>
<text text-anchor="middle" x="507" y="-73" font-family="Helvetica,sans-Serif" font-size="10.00">squid/src/acl/RegexData.h</text>
</a>
</g>
</g>
<!-- Node2 -->
<g id="Node000002" class="node">
<title>Node2</title>
<g id="a_Node000002"><a xlink:href="AclRegs_8cc.html" target="_top" xlink:title=" ">
<polygon fill="white" stroke="#666666" points="116,-24.5 0,-24.5 0,-5.5 116,-5.5 116,-24.5"/>
<text text-anchor="middle" x="58" y="-12.5" font-family="Helvetica,sans-Serif" font-size="10.00">squid/src/AclRegs.cc</text>
</a>
</g>
</g>
<!-- Node1&#45;&gt;Node2 -->
<g id="edge1_Node000001_Node000002" class="edge">
<title>Node1&#45;&gt;Node2</title>
<g id="a_edge1_Node000001_Node000002"><a xlink:title=" ">
<path fill="none" stroke="#63b8ff" d="M425.09,-67.11C347.53,-59.61 227.97,-46.72 125,-30 115.5,-28.46 105.3,-26.49 95.8,-24.52"/>
<polygon fill="#63b8ff" stroke="#63b8ff" points="424.98,-70.62 435.27,-68.09 425.65,-63.65 424.98,-70.62"/>
</a>
</g>
</g>
<!-- Node3 -->
<g id="Node000003" class="node">
<title>Node3</title>
<g id="a_Node000003"><a xlink:href="DestinationDomain_8cc.html" target="_top" xlink:title=" ">
<polygon fill="white" stroke="#666666" points="271.5,-30 134.5,-30 134.5,0 271.5,0 271.5,-30"/>
<text text-anchor="start" x="142.5" y="-18" font-family="Helvetica,sans-Serif" font-size="10.00">squid/src/acl/Destination</text>
<text text-anchor="middle" x="203" y="-7" font-family="Helvetica,sans-Serif" font-size="10.00">Domain.cc</text>
</a>
</g>
</g>
<!-- Node1&#45;&gt;Node3 -->
<g id="edge2_Node000001_Node000003" class="edge">
<title>Node1&#45;&gt;Node3</title>
<g id="a_edge2_Node000001_Node000003"><a xlink:title=" ">
<path fill="none" stroke="#63b8ff" d="M452.71,-64.05C402.13,-54.32 326.49,-39.76 271.72,-29.22"/>
<polygon fill="#63b8ff" stroke="#63b8ff" points="452.31,-67.54 462.8,-65.99 453.64,-60.67 452.31,-67.54"/>
</a>
</g>
</g>
<!-- Node4 -->
<g id="Node000004" class="node">
<title>Node4</title>
<g id="a_Node000004"><a xlink:href="ExtUser_8cc.html" target="_top" xlink:title=" ">
<polygon fill="white" stroke="#666666" points="420.5,-24.5 289.5,-24.5 289.5,-5.5 420.5,-5.5 420.5,-24.5"/>
<text text-anchor="middle" x="355" y="-12.5" font-family="Helvetica,sans-Serif" font-size="10.00">squid/src/acl/ExtUser.cc</text>
</a>
</g>
</g>
<!-- Node1&#45;&gt;Node4 -->
<g id="edge3_Node000001_Node000004" class="edge">
<title>Node1&#45;&gt;Node4</title>
<g id="a_edge3_Node000001_Node000004"><a xlink:title=" ">
<path fill="none" stroke="#63b8ff" d="M475.5,-62.38C446.12,-51.07 403.03,-34.49 377.13,-24.52"/>
<polygon fill="#63b8ff" stroke="#63b8ff" points="474.31,-65.67 484.9,-65.99 476.82,-59.14 474.31,-65.67"/>
</a>
</g>
</g>
<!-- Node5 -->
<g id="Node000005" class="node">
<title>Node5</title>
<g id="a_Node000005"><a xlink:href="HttpHeaderData_8cc.html" target="_top" xlink:title=" ">
<polygon fill="white" stroke="#666666" points="575.5,-30 438.5,-30 438.5,0 575.5,0 575.5,-30"/>
<text text-anchor="start" x="446.5" y="-18" font-family="Helvetica,sans-Serif" font-size="10.00">squid/src/acl/HttpHeader</text>
<text text-anchor="middle" x="507" y="-7" font-family="Helvetica,sans-Serif" font-size="10.00">Data.cc</text>
</a>
</g>
</g>
<!-- Node1&#45;&gt;Node5 -->
<g id="edge4_Node000001_Node000005" class="edge">
<title>Node1&#45;&gt;Node5</title>
<g id="a_edge4_Node000001_Node000005"><a xlink:title=" ">
<path fill="none" stroke="#63b8ff" d="M507,-55.65C507,-47.36 507,-37.78 507,-30.11"/>
<polygon fill="#63b8ff" stroke="#63b8ff" points="503.5,-55.87 507,-65.87 510.5,-55.87 503.5,-55.87"/>
</a>
</g>
</g>
<!-- Node6 -->
<g id="Node000006" class="node">
<title>Node6</title>
<g id="a_Node000006"><a xlink:href="RegexData_8cc.html" target="_top" xlink:title=" ">
<polygon fill="white" stroke="#666666" points="742,-24.5 594,-24.5 594,-5.5 742,-5.5 742,-24.5"/>
<text text-anchor="middle" x="668" y="-12.5" font-family="Helvetica,sans-Serif" font-size="10.00">squid/src/acl/RegexData.cc</text>
</a>
</g>
</g>
<!-- Node1&#45;&gt;Node6 -->
<g id="edge5_Node000001_Node000006" class="edge">
<title>Node1&#45;&gt;Node6</title>
<g id="a_edge5_Node000001_Node000006"><a xlink:title=" ">
<path fill="none" stroke="#63b8ff" d="M539.96,-62.52C571.09,-51.21 617,-34.53 644.56,-24.52"/>
<polygon fill="#63b8ff" stroke="#63b8ff" points="538.61,-59.29 530.41,-65.99 541,-65.87 538.61,-59.29"/>
</a>
</g>
</g>
<!-- Node7 -->
<g id="Node000007" class="node">
<title>Node7</title>
<g id="a_Node000007"><a xlink:href="SourceDomain_8cc.html" target="_top" xlink:title=" ">
<polygon fill="white" stroke="#666666" points="925.5,-24.5 760.5,-24.5 760.5,-5.5 925.5,-5.5 925.5,-24.5"/>
<text text-anchor="middle" x="843" y="-12.5" font-family="Helvetica,sans-Serif" font-size="10.00">squid/src/acl/SourceDomain.cc</text>
</a>
</g>
</g>
<!-- Node1&#45;&gt;Node7 -->
<g id="edge6_Node000001_Node000007" class="edge">
<title>Node1&#45;&gt;Node7</title>
<g id="a_edge6_Node000001_Node000007"><a xlink:title=" ">
<path fill="none" stroke="#63b8ff" d="M565.91,-64.24C630.69,-52.96 733.59,-35.05 794.08,-24.52"/>
<polygon fill="#63b8ff" stroke="#63b8ff" points="565.11,-60.83 555.86,-65.99 566.31,-67.73 565.11,-60.83"/>
</a>
</g>
</g>
<!-- Node8 -->
<g id="Node000008" class="node">
<title>Node8</title>
<g id="a_Node000008"><a xlink:href="AclProxyAuth_8cc.html" target="_top" xlink:title=" ">
<polygon fill="white" stroke="#666666" points="1110.5,-24.5 943.5,-24.5 943.5,-5.5 1110.5,-5.5 1110.5,-24.5"/>
<text text-anchor="middle" x="1027" y="-12.5" font-family="Helvetica,sans-Serif" font-size="10.00">squid/src/auth/AclProxyAuth.cc</text>
</a>
</g>
</g>
<!-- Node1&#45;&gt;Node8 -->
<g id="edge7_Node000001_Node000008" class="edge">
<title>Node1&#45;&gt;Node8</title>
<g id="a_edge7_Node000001_Node000008"><a xlink:title=" ">
<path fill="none" stroke="#63b8ff" d="M588.67,-67.17C674.89,-59.16 814.72,-45.4 935,-30 947.5,-28.4 960.92,-26.48 973.55,-24.57"/>
<polygon fill="#63b8ff" stroke="#63b8ff" points="588.32,-63.69 578.68,-68.09 588.96,-70.66 588.32,-63.69"/>
</a>
</g>
</g>
</g>
</svg>
