<?xml version="1.0" encoding="UTF-8" standalone="no"?>
<!DOCTYPE svg PUBLIC "-//W3C//DTD SVG 1.1//EN"
 "http://www.w3.org/Graphics/SVG/1.1/DTD/svg11.dtd">
<!-- Generated by graphviz version 2.43.0 (0)
 -->
<!-- Title: squid/src/mgr/Registration.h Pages: 1 -->
<!--zoomable 93 -->

<svg id="main" version="1.1" xmlns="http://www.w3.org/2000/svg" xmlns:xlink="http://www.w3.org/1999/xlink" xml:space="preserve" onload="init(evt)">
<style type="text/css"><![CDATA[
.node, .edge {opacity: 0.7;}
.node.selected, .edge.selected {opacity: 1;}
.edge:hover path { stroke: red; }
.edge:hover polygon { stroke: red; fill: red; }
]]></style>

<defs>
  <circle id="rim" cx="0" cy="0" r="7"/>
  <circle id="rim2" cx="0" cy="0" r="3.5"/>
  <g id="zoomPlus">
    <use xlink:href="#rim" fill="#404040"><set attributeName="fill" to="#808080" begin="zoomplus.mouseover" end="zoomplus.mouseout"/></use>
    <path d="M-4,0h8M0,-4v8" fill="none" stroke="white" stroke-width="1.5" pointer-events="none"/>
  </g>
  <g id="zoomMin">
    <use xlink:href="#rim" fill="#404040"><set attributeName="fill" to="#808080" begin="zoomminus.mouseover" end="zoomminus.mouseout"/></use>
    <path d="M-4,0h8" fill="none" stroke="white" stroke-width="1.5" pointer-events="none"/>
  </g>
  <g id="arrowUp" transform="translate(30 24)">
    <use xlink:href="#rim"/>
    <path pointer-events="none" fill="none" stroke="white" stroke-width="1.5" d="M0,-3.0v7 M-2.5,-0.5L0,-3.0L2.5,-0.5"/>
  </g>
  <g id="arrowRight" transform="rotate(90) translate(36 -43)">
    <use xlink:href="#rim"/>
    <path pointer-events="none" fill="none" stroke="white" stroke-width="1.5" d="M0,-3.0v7 M-2.5,-0.5L0,-3.0L2.5,-0.5"/>
  </g>
  <g id="arrowDown" transform="rotate(180) translate(-30 -48)">
    <use xlink:href="#rim"/>
    <path pointer-events="none" fill="none" stroke="white" stroke-width="1.5" d="M0,-3.0v7 M-2.5,-0.5L0,-3.0L2.5,-0.5"/>
  </g>
  <g id="arrowLeft" transform="rotate(270) translate(-36 17)">
    <use xlink:href="#rim"/>
    <path pointer-events="none" fill="none" stroke="white" stroke-width="1.5" d="M0,-3.0v7 M-2.5,-0.5L0,-3.0L2.5,-0.5"/>
  </g>
  <g id="resetDef">
    <use xlink:href="#rim2" fill="#404040"><set attributeName="fill" to="#808080" begin="reset.mouseover" end="reset.mouseout"/></use>
  </g>
</defs>
<script type="application/ecmascript">
var viewWidth = 6306;
var viewHeight = 93;
var sectionId = 'dynsection-1';
</script>
<script type="application/ecmascript" xlink:href="svg.min.js"/>
<svg id="graph" class="graph">
<g id="viewport">
<title>squid/src/mgr/Registration.h</title>
<!-- Node1 -->
<g id="Node000001" class="node">
<title>Node1</title>
<g id="a_Node000001"><a xlink:title=" ">
<polygon fill="#999999" stroke="#666666" points="3323,-85 3169,-85 3169,-66 3323,-66 3323,-85"/>
<text text-anchor="middle" x="3246" y="-73" font-family="Helvetica,sans-Serif" font-size="10.00">squid/src/mgr/Registration.h</text>
</a>
</g>
</g>
<!-- Node2 -->
<g id="Node000002" class="node">
<title>Node2</title>
<g id="a_Node000002"><a xlink:href="DiskDaemonDiskIOModule_8cc.html" target="_top" xlink:title=" ">
<polygon fill="white" stroke="#666666" points="164,-30 0,-30 0,0 164,0 164,-30"/>
<text text-anchor="start" x="8" y="-18" font-family="Helvetica,sans-Serif" font-size="10.00">squid/src/DiskIO/DiskDaemon</text>
<text text-anchor="middle" x="82" y="-7" font-family="Helvetica,sans-Serif" font-size="10.00">/DiskDaemonDiskIOModule.cc</text>
</a>
</g>
</g>
<!-- Node1&#45;&gt;Node2 -->
<g id="edge1_Node000001_Node000002" class="edge">
<title>Node1&#45;&gt;Node2</title>
<g id="a_edge1_Node000001_Node000002"><a xlink:title=" ">
<path fill="none" stroke="#63b8ff" d="M3158.91,-73.96C2690.13,-70.94 476.98,-55.46 173,-30 170.13,-29.76 167.22,-29.48 164.28,-29.18"/>
<polygon fill="#63b8ff" stroke="#63b8ff" points="3158.98,-77.46 3169,-74.02 3159.02,-70.46 3158.98,-77.46"/>
</a>
</g>
</g>
<!-- Node3 -->
<g id="Node000003" class="node">
<title>Node3</title>
<g id="a_Node000003"><a xlink:href="DiskThreadsIOStrategy_8cc.html" target="_top" xlink:title=" ">
<polygon fill="white" stroke="#666666" points="341.5,-30 182.5,-30 182.5,0 341.5,0 341.5,-30"/>
<text text-anchor="start" x="190.5" y="-18" font-family="Helvetica,sans-Serif" font-size="10.00">squid/src/DiskIO/DiskThreads</text>
<text text-anchor="middle" x="262" y="-7" font-family="Helvetica,sans-Serif" font-size="10.00">/DiskThreadsIOStrategy.cc</text>
</a>
</g>
</g>
<!-- Node1&#45;&gt;Node3 -->
<g id="edge2_Node000001_Node000003" class="edge">
<title>Node1&#45;&gt;Node3</title>
<g id="a_edge2_Node000001_Node000003"><a xlink:title=" ">
<path fill="none" stroke="#63b8ff" d="M3158.58,-74.82C2737.61,-76.08 916.57,-78.59 351,-30 347.88,-29.73 344.71,-29.42 341.51,-29.07"/>
<polygon fill="#63b8ff" stroke="#63b8ff" points="3158.86,-78.31 3168.85,-74.78 3158.84,-71.31 3158.86,-78.31"/>
</a>
</g>
</g>
<!-- Node4 -->
<g id="Node000004" class="node">
<title>Node4</title>
<g id="a_Node000004"><a xlink:href="FwdState_8cc.html" target="_top" xlink:title=" ">
<polygon fill="white" stroke="#666666" points="482,-24.5 360,-24.5 360,-5.5 482,-5.5 482,-24.5"/>
<text text-anchor="middle" x="421" y="-12.5" font-family="Helvetica,sans-Serif" font-size="10.00">squid/src/FwdState.cc</text>
</a>
</g>
</g>
<!-- Node1&#45;&gt;Node4 -->
<g id="edge3_Node000001_Node000004" class="edge">
<title>Node1&#45;&gt;Node4</title>
<g id="a_edge3_Node000001_Node000004"><a xlink:title=" ">
<path fill="none" stroke="#63b8ff" d="M3158.84,-74.03C2719.83,-71.55 761.03,-58.94 491,-30 479.91,-28.81 467.97,-26.73 457.14,-24.53"/>
<polygon fill="#63b8ff" stroke="#63b8ff" points="3158.91,-77.53 3168.93,-74.09 3158.95,-70.53 3158.91,-77.53"/>
</a>
</g>
</g>
<!-- Node5 -->
<g id="Node000005" class="node">
<title>Node5</title>
<g id="a_Node000005"><a xlink:href="HttpHeader_8cc.html" target="_top" xlink:title=" ">
<polygon fill="white" stroke="#666666" points="632,-24.5 500,-24.5 500,-5.5 632,-5.5 632,-24.5"/>
<text text-anchor="middle" x="566" y="-12.5" font-family="Helvetica,sans-Serif" font-size="10.00">squid/src/HttpHeader.cc</text>
</a>
</g>
</g>
<!-- Node1&#45;&gt;Node5 -->
<g id="edge4_Node000001_Node000005" class="edge">
<title>Node1&#45;&gt;Node5</title>
<g id="a_edge4_Node000001_Node000005"><a xlink:title=" ">
<path fill="none" stroke="#63b8ff" d="M3158.81,-73.88C2734.48,-70.74 895.52,-55.75 641,-30 629.14,-28.8 616.35,-26.71 604.75,-24.51"/>
<polygon fill="#63b8ff" stroke="#63b8ff" points="3158.84,-77.38 3168.87,-73.95 3158.89,-70.38 3158.84,-77.38"/>
</a>
</g>
</g>
<!-- Node6 -->
<g id="Node000006" class="node">
<title>Node6</title>
<g id="a_Node000006"><a xlink:href="SBufStatsAction_8cc.html" target="_top" xlink:title=" ">
<polygon fill="white" stroke="#666666" points="805.5,-24.5 650.5,-24.5 650.5,-5.5 805.5,-5.5 805.5,-24.5"/>
<text text-anchor="middle" x="728" y="-12.5" font-family="Helvetica,sans-Serif" font-size="10.00">squid/src/SBufStatsAction.cc</text>
</a>
</g>
</g>
<!-- Node1&#45;&gt;Node6 -->
<g id="edge5_Node000001_Node000006" class="edge">
<title>Node1&#45;&gt;Node6</title>
<g id="a_edge5_Node000001_Node000006"><a xlink:title=" ">
<path fill="none" stroke="#63b8ff" d="M3158.71,-74.58C2780.71,-74.66 1283.02,-72.25 814,-30 800.59,-28.79 786.11,-26.73 772.93,-24.56"/>
<polygon fill="#63b8ff" stroke="#63b8ff" points="3158.77,-78.08 3168.77,-74.58 3158.77,-71.08 3158.77,-78.08"/>
</a>
</g>
</g>
<!-- Node7 -->
<g id="Node000007" class="node">
<title>Node7</title>
<g id="a_Node000007"><a xlink:href="auth_2basic_2Config_8cc.html" target="_top" xlink:title=" ">
<polygon fill="white" stroke="#666666" points="936.5,-30 823.5,-30 823.5,0 936.5,0 936.5,-30"/>
<text text-anchor="start" x="831.5" y="-18" font-family="Helvetica,sans-Serif" font-size="10.00">squid/src/auth/basic</text>
<text text-anchor="middle" x="880" y="-7" font-family="Helvetica,sans-Serif" font-size="10.00">/Config.cc</text>
</a>
</g>
</g>
<!-- Node1&#45;&gt;Node7 -->
<g id="edge6_Node000001_Node000007" class="edge">
<title>Node1&#45;&gt;Node7</title>
<g id="a_edge6_Node000001_Node000007"><a xlink:title=" ">
<path fill="none" stroke="#63b8ff" d="M3158.64,-73.79C2765.33,-70.47 1168.39,-55.5 946,-30 942.97,-29.65 939.88,-29.23 936.77,-28.76"/>
<polygon fill="#63b8ff" stroke="#63b8ff" points="3158.79,-77.29 3168.82,-73.88 3158.85,-70.29 3158.79,-77.29"/>
</a>
</g>
</g>
<!-- Node8 -->
<g id="Node000008" class="node">
<title>Node8</title>
<g id="a_Node000008"><a xlink:href="auth_2digest_2Config_8cc.html" target="_top" xlink:title=" ">
<polygon fill="white" stroke="#666666" points="1073,-30 955,-30 955,0 1073,0 1073,-30"/>
<text text-anchor="start" x="963" y="-18" font-family="Helvetica,sans-Serif" font-size="10.00">squid/src/auth/digest</text>
<text text-anchor="middle" x="1014" y="-7" font-family="Helvetica,sans-Serif" font-size="10.00">/Config.cc</text>
</a>
</g>
</g>
<!-- Node1&#45;&gt;Node8 -->
<g id="edge7_Node000001_Node000008" class="edge">
<title>Node1&#45;&gt;Node8</title>
<g id="a_edge7_Node000001_Node000008"><a xlink:title=" ">
<path fill="none" stroke="#63b8ff" d="M3158.89,-74.83C2807.66,-75.83 1494.65,-76.33 1082,-30 1079.13,-29.68 1076.19,-29.29 1073.24,-28.86"/>
<polygon fill="#63b8ff" stroke="#63b8ff" points="3159.01,-78.33 3169,-74.8 3158.99,-71.33 3159.01,-78.33"/>
</a>
</g>
</g>
<!-- Node9 -->
<g id="Node000009" class="node">
<title>Node9</title>
<g id="a_Node000009"><a xlink:href="auth_2negotiate_2Config_8cc.html" target="_top" xlink:title=" ">
<polygon fill="white" stroke="#666666" points="1225,-30 1091,-30 1091,0 1225,0 1225,-30"/>
<text text-anchor="start" x="1099" y="-18" font-family="Helvetica,sans-Serif" font-size="10.00">squid/src/auth/negotiate</text>
<text text-anchor="middle" x="1158" y="-7" font-family="Helvetica,sans-Serif" font-size="10.00">/Config.cc</text>
</a>
</g>
</g>
<!-- Node1&#45;&gt;Node9 -->
<g id="edge8_Node000001_Node000009" class="edge">
<title>Node1&#45;&gt;Node9</title>
<g id="a_edge8_Node000001_Node000009"><a xlink:title=" ">
<path fill="none" stroke="#63b8ff" d="M3158.68,-74.43C2823.04,-73.87 1615.63,-69.12 1234,-30 1231.06,-29.7 1228.07,-29.35 1225.05,-28.95"/>
<polygon fill="#63b8ff" stroke="#63b8ff" points="3158.83,-77.93 3168.83,-74.45 3158.84,-70.93 3158.83,-77.93"/>
</a>
</g>
</g>
<!-- Node10 -->
<g id="Node000010" class="node">
<title>Node10</title>
<g id="a_Node000010"><a xlink:href="auth_2ntlm_2Config_8cc.html" target="_top" xlink:title=" ">
<polygon fill="white" stroke="#666666" points="1353,-30 1243,-30 1243,0 1353,0 1353,-30"/>
<text text-anchor="start" x="1251" y="-18" font-family="Helvetica,sans-Serif" font-size="10.00">squid/src/auth/ntlm</text>
<text text-anchor="middle" x="1298" y="-7" font-family="Helvetica,sans-Serif" font-size="10.00">/Config.cc</text>
</a>
</g>
</g>
<!-- Node1&#45;&gt;Node10 -->
<g id="edge9_Node000001_Node000010" class="edge">
<title>Node1&#45;&gt;Node10</title>
<g id="a_edge9_Node000001_Node000010"><a xlink:title=" ">
<path fill="none" stroke="#63b8ff" d="M3158.6,-74.66C2836.56,-74.9 1716.59,-72.57 1362,-30 1359.06,-29.65 1356.06,-29.22 1353.04,-28.74"/>
<polygon fill="#63b8ff" stroke="#63b8ff" points="3158.81,-78.16 3168.81,-74.65 3158.8,-71.16 3158.81,-78.16"/>
</a>
</g>
</g>
<!-- Node11 -->
<g id="Node000011" class="node">
<title>Node11</title>
<g id="a_Node000011"><a xlink:href="AsyncJob_8cc.html" target="_top" xlink:title=" ">
<polygon fill="white" stroke="#666666" points="1518.5,-24.5 1371.5,-24.5 1371.5,-5.5 1518.5,-5.5 1518.5,-24.5"/>
<text text-anchor="middle" x="1445" y="-12.5" font-family="Helvetica,sans-Serif" font-size="10.00">squid/src/base/AsyncJob.cc</text>
</a>
</g>
</g>
<!-- Node1&#45;&gt;Node11 -->
<g id="edge10_Node000001_Node000011" class="edge">
<title>Node1&#45;&gt;Node11</title>
<g id="a_edge10_Node000001_Node000011"><a xlink:title=" ">
<path fill="none" stroke="#63b8ff" d="M3158.48,-73.89C2854.93,-71.53 1848.51,-61.44 1527,-30 1514.21,-28.75 1500.4,-26.68 1487.83,-24.5"/>
<polygon fill="#63b8ff" stroke="#63b8ff" points="3158.52,-77.39 3168.55,-73.97 3158.57,-70.39 3158.52,-77.39"/>
</a>
</g>
</g>
<!-- Node12 -->
<g id="Node000012" class="node">
<title>Node12</title>
<g id="a_Node000012"><a xlink:href="cache__cf_8cc.html" target="_top" xlink:title=" ">
<polygon fill="white" stroke="#666666" points="1655.5,-24.5 1536.5,-24.5 1536.5,-5.5 1655.5,-5.5 1655.5,-24.5"/>
<text text-anchor="middle" x="1596" y="-12.5" font-family="Helvetica,sans-Serif" font-size="10.00">squid/src/cache_cf.cc</text>
</a>
</g>
</g>
<!-- Node1&#45;&gt;Node12 -->
<g id="edge11_Node000001_Node000012" class="edge">
<title>Node1&#45;&gt;Node12</title>
<g id="a_edge11_Node000001_Node000012"><a xlink:title=" ">
<path fill="none" stroke="#63b8ff" d="M3158.29,-74.02C2870.65,-72.13 1957.71,-63.56 1665,-30 1654.19,-28.76 1642.56,-26.69 1631.98,-24.52"/>
<polygon fill="#63b8ff" stroke="#63b8ff" points="3158.64,-77.52 3168.66,-74.09 3158.69,-70.52 3158.64,-77.52"/>
</a>
</g>
</g>
<!-- Node13 -->
<g id="Node000013" class="node">
<title>Node13</title>
<g id="a_Node000013"><a xlink:href="carp_8cc.html" target="_top" xlink:title=" ">
<polygon fill="white" stroke="#666666" points="1772,-24.5 1674,-24.5 1674,-5.5 1772,-5.5 1772,-24.5"/>
<text text-anchor="middle" x="1723" y="-12.5" font-family="Helvetica,sans-Serif" font-size="10.00">squid/src/carp.cc</text>
</a>
</g>
</g>
<!-- Node1&#45;&gt;Node13 -->
<g id="edge12_Node000001_Node000013" class="edge">
<title>Node1&#45;&gt;Node13</title>
<g id="a_edge12_Node000001_Node000013"><a xlink:title=" ">
<path fill="none" stroke="#63b8ff" d="M3158.66,-74.21C2885.5,-72.93 2049.6,-66.1 1781,-30 1771.86,-28.77 1762.07,-26.71 1753.18,-24.53"/>
<polygon fill="#63b8ff" stroke="#63b8ff" points="3158.9,-77.71 3168.92,-74.26 3158.93,-70.71 3158.9,-77.71"/>
</a>
</g>
</g>
<!-- Node14 -->
<g id="Node000014" class="node">
<title>Node14</title>
<g id="a_Node000014"><a xlink:href="cbdata_8cc.html" target="_top" xlink:title=" ">
<polygon fill="white" stroke="#666666" points="1900,-24.5 1790,-24.5 1790,-5.5 1900,-5.5 1900,-24.5"/>
<text text-anchor="middle" x="1845" y="-12.5" font-family="Helvetica,sans-Serif" font-size="10.00">squid/src/cbdata.cc</text>
</a>
</g>
</g>
<!-- Node1&#45;&gt;Node14 -->
<g id="edge13_Node000001_Node000014" class="edge">
<title>Node1&#45;&gt;Node14</title>
<g id="a_edge13_Node000001_Node000014"><a xlink:title=" ">
<path fill="none" stroke="#63b8ff" d="M3158.88,-73.67C2902.26,-70.9 2152.05,-60.37 1909,-30 1899.07,-28.76 1888.4,-26.72 1878.68,-24.57"/>
<polygon fill="#63b8ff" stroke="#63b8ff" points="3158.86,-77.17 3168.9,-73.78 3158.93,-70.17 3158.86,-77.17"/>
</a>
</g>
</g>
<!-- Node15 -->
<g id="Node000015" class="node">
<title>Node15</title>
<g id="a_Node000015"><a xlink:href="client__db_8cc.html" target="_top" xlink:title=" ">
<polygon fill="white" stroke="#666666" points="2039.5,-24.5 1918.5,-24.5 1918.5,-5.5 2039.5,-5.5 2039.5,-24.5"/>
<text text-anchor="middle" x="1979" y="-12.5" font-family="Helvetica,sans-Serif" font-size="10.00">squid/src/client_db.cc</text>
</a>
</g>
</g>
<!-- Node1&#45;&gt;Node15 -->
<g id="edge14_Node000001_Node000015" class="edge">
<title>Node1&#45;&gt;Node15</title>
<g id="a_edge14_Node000001_Node000015"><a xlink:title=" ">
<path fill="none" stroke="#63b8ff" d="M3158.65,-73.1C2920.45,-69.01 2263.09,-55.64 2048,-30 2037.32,-28.73 2025.83,-26.67 2015.35,-24.53"/>
<polygon fill="#63b8ff" stroke="#63b8ff" points="3158.93,-76.61 3168.99,-73.28 3159.05,-69.61 3158.93,-76.61"/>
</a>
</g>
</g>
<!-- Node16 -->
<g id="Node000016" class="node">
<title>Node16</title>
<g id="a_Node000016"><a xlink:href="ModDevPoll_8cc.html" target="_top" xlink:title=" ">
<polygon fill="white" stroke="#666666" points="2226.5,-24.5 2057.5,-24.5 2057.5,-5.5 2226.5,-5.5 2226.5,-24.5"/>
<text text-anchor="middle" x="2142" y="-12.5" font-family="Helvetica,sans-Serif" font-size="10.00">squid/src/comm/ModDevPoll.cc</text>
</a>
</g>
</g>
<!-- Node1&#45;&gt;Node16 -->
<g id="edge15_Node000001_Node000016" class="edge">
<title>Node1&#45;&gt;Node16</title>
<g id="a_edge15_Node000001_Node000016"><a xlink:title=" ">
<path fill="none" stroke="#63b8ff" d="M3158.54,-73.75C2983.04,-71.56 2575.55,-63.03 2235,-30 2221.02,-28.64 2205.94,-26.62 2192.08,-24.53"/>
<polygon fill="#63b8ff" stroke="#63b8ff" points="3158.71,-77.25 3168.75,-73.87 3158.8,-70.25 3158.71,-77.25"/>
</a>
</g>
</g>
<!-- Node17 -->
<g id="Node000017" class="node">
<title>Node17</title>
<g id="a_Node000017"><a xlink:href="ModEpoll_8cc.html" target="_top" xlink:title=" ">
<polygon fill="white" stroke="#666666" points="2399.5,-24.5 2244.5,-24.5 2244.5,-5.5 2399.5,-5.5 2399.5,-24.5"/>
<text text-anchor="middle" x="2322" y="-12.5" font-family="Helvetica,sans-Serif" font-size="10.00">squid/src/comm/ModEpoll.cc</text>
</a>
</g>
</g>
<!-- Node1&#45;&gt;Node17 -->
<g id="edge16_Node000001_Node000017" class="edge">
<title>Node1&#45;&gt;Node17</title>
<g id="a_edge16_Node000001_Node000017"><a xlink:title=" ">
<path fill="none" stroke="#63b8ff" d="M3158.7,-72.98C3006.06,-69.62 2680.94,-59.38 2408,-30 2395.22,-28.62 2381.44,-26.62 2368.74,-24.55"/>
<polygon fill="#63b8ff" stroke="#63b8ff" points="3158.87,-76.48 3168.95,-73.2 3159.02,-69.48 3158.87,-76.48"/>
</a>
</g>
</g>
<!-- Node18 -->
<g id="Node000018" class="node">
<title>Node18</title>
<g id="a_Node000018"><a xlink:href="ModPoll_8cc.html" target="_top" xlink:title=" ">
<polygon fill="white" stroke="#666666" points="2566.5,-24.5 2417.5,-24.5 2417.5,-5.5 2566.5,-5.5 2566.5,-24.5"/>
<text text-anchor="middle" x="2492" y="-12.5" font-family="Helvetica,sans-Serif" font-size="10.00">squid/src/comm/ModPoll.cc</text>
</a>
</g>
</g>
<!-- Node1&#45;&gt;Node18 -->
<g id="edge17_Node000001_Node000018" class="edge">
<title>Node1&#45;&gt;Node18</title>
<g id="a_edge17_Node000001_Node000018"><a xlink:title=" ">
<path fill="none" stroke="#63b8ff" d="M3158.63,-71.52C3030.33,-66.51 2783.58,-54.44 2575,-30 2562.81,-28.57 2549.68,-26.57 2537.54,-24.53"/>
<polygon fill="#63b8ff" stroke="#63b8ff" points="3158.66,-75.02 3168.78,-71.91 3158.93,-68.03 3158.66,-75.02"/>
</a>
</g>
</g>
<!-- Node19 -->
<g id="Node000019" class="node">
<title>Node19</title>
<g id="a_Node000019"><a xlink:href="ModSelect_8cc.html" target="_top" xlink:title=" ">
<polygon fill="white" stroke="#666666" points="2745.5,-24.5 2584.5,-24.5 2584.5,-5.5 2745.5,-5.5 2745.5,-24.5"/>
<text text-anchor="middle" x="2665" y="-12.5" font-family="Helvetica,sans-Serif" font-size="10.00">squid/src/comm/ModSelect.cc</text>
</a>
</g>
</g>
<!-- Node1&#45;&gt;Node19 -->
<g id="edge18_Node000001_Node000019" class="edge">
<title>Node1&#45;&gt;Node19</title>
<g id="a_edge18_Node000001_Node000019"><a xlink:title=" ">
<path fill="none" stroke="#63b8ff" d="M3158.5,-68.33C3059.98,-60.98 2895.19,-47.47 2754,-30 2741.43,-28.44 2727.9,-26.47 2715.28,-24.5"/>
<polygon fill="#63b8ff" stroke="#63b8ff" points="3158.48,-71.84 3168.71,-69.09 3159,-64.86 3158.48,-71.84"/>
</a>
</g>
</g>
<!-- Node20 -->
<g id="Node000020" class="node">
<title>Node20</title>
<g id="a_Node000020"><a xlink:href="delay__pools_8cc.html" target="_top" xlink:title=" ">
<polygon fill="white" stroke="#666666" points="2898.5,-24.5 2763.5,-24.5 2763.5,-5.5 2898.5,-5.5 2898.5,-24.5"/>
<text text-anchor="middle" x="2831" y="-12.5" font-family="Helvetica,sans-Serif" font-size="10.00">squid/src/delay_pools.cc</text>
</a>
</g>
</g>
<!-- Node1&#45;&gt;Node20 -->
<g id="edge19_Node000001_Node000020" class="edge">
<title>Node1&#45;&gt;Node20</title>
<g id="a_edge19_Node000001_Node000020"><a xlink:title=" ">
<path fill="none" stroke="#63b8ff" d="M3162.44,-64.75C3093.72,-56.44 2993.86,-43.69 2907,-30 2896.66,-28.37 2885.57,-26.43 2875.14,-24.53"/>
<polygon fill="#63b8ff" stroke="#63b8ff" points="3162.42,-68.27 3172.77,-65.99 3163.26,-61.32 3162.42,-68.27"/>
</a>
</g>
</g>
<!-- Node21 -->
<g id="Node000021" class="node">
<title>Node21</title>
<g id="a_Node000021"><a xlink:href="dns__internal_8cc.html" target="_top" xlink:title=" ">
<polygon fill="white" stroke="#666666" points="3053.5,-24.5 2916.5,-24.5 2916.5,-5.5 3053.5,-5.5 3053.5,-24.5"/>
<text text-anchor="middle" x="2985" y="-12.5" font-family="Helvetica,sans-Serif" font-size="10.00">squid/src/dns_internal.cc</text>
</a>
</g>
</g>
<!-- Node1&#45;&gt;Node21 -->
<g id="edge20_Node000001_Node000021" class="edge">
<title>Node1&#45;&gt;Node21</title>
<g id="a_edge20_Node000001_Node000021"><a xlink:title=" ">
<path fill="none" stroke="#63b8ff" d="M3198.04,-63.75C3147.62,-52.45 3069.31,-34.9 3023,-24.52"/>
<polygon fill="#63b8ff" stroke="#63b8ff" points="3197.52,-67.22 3208.05,-65.99 3199.06,-60.39 3197.52,-67.22"/>
</a>
</g>
</g>
<!-- Node22 -->
<g id="Node000022" class="node">
<title>Node22</title>
<g id="a_Node000022"><a xlink:href="event_8cc.html" target="_top" xlink:title=" ">
<polygon fill="white" stroke="#666666" points="3176,-24.5 3072,-24.5 3072,-5.5 3176,-5.5 3176,-24.5"/>
<text text-anchor="middle" x="3124" y="-12.5" font-family="Helvetica,sans-Serif" font-size="10.00">squid/src/event.cc</text>
</a>
</g>
</g>
<!-- Node1&#45;&gt;Node22 -->
<g id="edge21_Node000001_Node000022" class="edge">
<title>Node1&#45;&gt;Node22</title>
<g id="a_edge21_Node000001_Node000022"><a xlink:title=" ">
<path fill="none" stroke="#63b8ff" d="M3219.17,-61.63C3195.64,-50.35 3162.1,-34.27 3141.76,-24.52"/>
<polygon fill="#63b8ff" stroke="#63b8ff" points="3217.73,-64.83 3228.26,-65.99 3220.76,-58.51 3217.73,-64.83"/>
</a>
</g>
</g>
<!-- Node23 -->
<g id="Node000023" class="node">
<title>Node23</title>
<g id="a_Node000023"><a xlink:href="external__acl_8cc.html" target="_top" xlink:title=" ">
<polygon fill="white" stroke="#666666" points="3298,-30 3194,-30 3194,0 3298,0 3298,-30"/>
<text text-anchor="start" x="3202" y="-18" font-family="Helvetica,sans-Serif" font-size="10.00">squid/src/external</text>
<text text-anchor="middle" x="3246" y="-7" font-family="Helvetica,sans-Serif" font-size="10.00">_acl.cc</text>
</a>
</g>
</g>
<!-- Node1&#45;&gt;Node23 -->
<g id="edge22_Node000001_Node000023" class="edge">
<title>Node1&#45;&gt;Node23</title>
<g id="a_edge22_Node000001_Node000023"><a xlink:title=" ">
<path fill="none" stroke="#63b8ff" d="M3246,-55.65C3246,-47.36 3246,-37.78 3246,-30.11"/>
<polygon fill="#63b8ff" stroke="#63b8ff" points="3242.5,-55.87 3246,-65.87 3249.5,-55.87 3242.5,-55.87"/>
</a>
</g>
</g>
<!-- Node24 -->
<g id="Node000024" class="node">
<title>Node24</title>
<g id="a_Node000024"><a xlink:href="fqdncache_8cc.html" target="_top" xlink:title=" ">
<polygon fill="white" stroke="#666666" points="3443.5,-24.5 3316.5,-24.5 3316.5,-5.5 3443.5,-5.5 3443.5,-24.5"/>
<text text-anchor="middle" x="3380" y="-12.5" font-family="Helvetica,sans-Serif" font-size="10.00">squid/src/fqdncache.cc</text>
</a>
</g>
</g>
<!-- Node1&#45;&gt;Node24 -->
<g id="edge23_Node000001_Node000024" class="edge">
<title>Node1&#45;&gt;Node24</title>
<g id="a_edge23_Node000001_Node000024"><a xlink:title=" ">
<path fill="none" stroke="#63b8ff" d="M3274.79,-61.93C3300.66,-50.64 3337.95,-34.36 3360.49,-24.52"/>
<polygon fill="#63b8ff" stroke="#63b8ff" points="3273.25,-58.78 3265.48,-65.99 3276.05,-65.2 3273.25,-58.78"/>
</a>
</g>
</g>
<!-- Node25 -->
<g id="Node000025" class="node">
<title>Node25</title>
<g id="a_Node000025"><a xlink:href="net__db_8cc.html" target="_top" xlink:title=" ">
<polygon fill="white" stroke="#666666" points="3568,-30 3462,-30 3462,0 3568,0 3568,-30"/>
<text text-anchor="start" x="3470" y="-18" font-family="Helvetica,sans-Serif" font-size="10.00">squid/src/icmp/net</text>
<text text-anchor="middle" x="3515" y="-7" font-family="Helvetica,sans-Serif" font-size="10.00">_db.cc</text>
</a>
</g>
</g>
<!-- Node1&#45;&gt;Node25 -->
<g id="edge24_Node000001_Node000025" class="edge">
<title>Node1&#45;&gt;Node25</title>
<g id="a_edge24_Node000001_Node000025"><a xlink:title=" ">
<path fill="none" stroke="#63b8ff" d="M3296.45,-63.81C3338.38,-54.88 3399.61,-41.77 3453,-30 3455.91,-29.36 3458.9,-28.7 3461.91,-28.03"/>
<polygon fill="#63b8ff" stroke="#63b8ff" points="3295.54,-60.42 3286.48,-65.93 3296.99,-67.27 3295.54,-60.42"/>
</a>
</g>
</g>
<!-- Node26 -->
<g id="Node000026" class="node">
<title>Node26</title>
<g id="a_Node000026"><a xlink:href="ipcache_8cc.html" target="_top" xlink:title=" ">
<polygon fill="white" stroke="#666666" points="3700,-24.5 3586,-24.5 3586,-5.5 3700,-5.5 3700,-24.5"/>
<text text-anchor="middle" x="3643" y="-12.5" font-family="Helvetica,sans-Serif" font-size="10.00">squid/src/ipcache.cc</text>
</a>
</g>
</g>
<!-- Node1&#45;&gt;Node26 -->
<g id="edge25_Node000001_Node000026" class="edge">
<title>Node1&#45;&gt;Node26</title>
<g id="a_edge25_Node000001_Node000026"><a xlink:title=" ">
<path fill="none" stroke="#63b8ff" d="M3331.6,-64.79C3398.59,-56.76 3493.99,-44.36 3577,-30 3586.12,-28.42 3595.89,-26.49 3605.05,-24.56"/>
<polygon fill="#63b8ff" stroke="#63b8ff" points="3331.02,-61.33 3321.51,-65.99 3331.85,-68.28 3331.02,-61.33"/>
</a>
</g>
</g>
<!-- Node27 -->
<g id="Node000027" class="node">
<title>Node27</title>
<g id="a_Node000027"><a xlink:href="access__log_8cc.html" target="_top" xlink:title=" ">
<polygon fill="white" stroke="#666666" points="3832,-30 3718,-30 3718,0 3832,0 3832,-30"/>
<text text-anchor="start" x="3726" y="-18" font-family="Helvetica,sans-Serif" font-size="10.00">squid/src/log/access</text>
<text text-anchor="middle" x="3775" y="-7" font-family="Helvetica,sans-Serif" font-size="10.00">_log.cc</text>
</a>
</g>
</g>
<!-- Node1&#45;&gt;Node27 -->
<g id="edge26_Node000001_Node000027" class="edge">
<title>Node1&#45;&gt;Node27</title>
<g id="a_edge26_Node000001_Node000027"><a xlink:title=" ">
<path fill="none" stroke="#63b8ff" d="M3333.59,-69.05C3426.97,-62.54 3578.98,-49.97 3709,-30 3711.89,-29.56 3714.85,-29.06 3717.84,-28.54"/>
<polygon fill="#63b8ff" stroke="#63b8ff" points="3333.07,-65.58 3323.34,-69.75 3333.56,-72.56 3333.07,-65.58"/>
</a>
</g>
</g>
<!-- Node28 -->
<g id="Node000028" class="node">
<title>Node28</title>
<g id="a_Node000028"><a xlink:href="old__api_8cc.html" target="_top" xlink:title=" ">
<polygon fill="white" stroke="#666666" points="3990,-24.5 3850,-24.5 3850,-5.5 3990,-5.5 3990,-24.5"/>
<text text-anchor="middle" x="3920" y="-12.5" font-family="Helvetica,sans-Serif" font-size="10.00">squid/src/mem/old_api.cc</text>
</a>
</g>
</g>
<!-- Node1&#45;&gt;Node28 -->
<g id="edge27_Node000001_Node000028" class="edge">
<title>Node1&#45;&gt;Node28</title>
<g id="a_edge27_Node000001_Node000028"><a xlink:title=" ">
<path fill="none" stroke="#63b8ff" d="M3333.53,-70.72C3449.8,-65.06 3661.42,-52.57 3841,-30 3852.47,-28.56 3864.81,-26.58 3876.24,-24.56"/>
<polygon fill="#63b8ff" stroke="#63b8ff" points="3333.09,-67.23 3323.27,-71.21 3333.43,-74.23 3333.09,-67.23"/>
</a>
</g>
</g>
<!-- Node29 -->
<g id="Node000029" class="node">
<title>Node29</title>
<g id="a_Node000029"><a xlink:href="BasicActions_8cc.html" target="_top" xlink:title=" ">
<polygon fill="white" stroke="#666666" points="4169.5,-24.5 4008.5,-24.5 4008.5,-5.5 4169.5,-5.5 4169.5,-24.5"/>
<text text-anchor="middle" x="4089" y="-12.5" font-family="Helvetica,sans-Serif" font-size="10.00">squid/src/mgr/BasicActions.cc</text>
</a>
</g>
</g>
<!-- Node1&#45;&gt;Node29 -->
<g id="edge28_Node000001_Node000029" class="edge">
<title>Node1&#45;&gt;Node29</title>
<g id="a_edge28_Node000001_Node000029"><a xlink:title=" ">
<path fill="none" stroke="#63b8ff" d="M3333.45,-72.04C3474.04,-67.47 3758.91,-55.71 3999,-30 4012.21,-28.59 4026.44,-26.59 4039.6,-24.55"/>
<polygon fill="#63b8ff" stroke="#63b8ff" points="3333.05,-68.55 3323.16,-72.37 3333.27,-75.54 3333.05,-68.55"/>
</a>
</g>
</g>
<!-- Node30 -->
<g id="Node000030" class="node">
<title>Node30</title>
<g id="a_Node000030"><a xlink:href="Registration_8cc.html" target="_top" xlink:title=" ">
<polygon fill="white" stroke="#666666" points="4346,-24.5 4188,-24.5 4188,-5.5 4346,-5.5 4346,-24.5"/>
<text text-anchor="middle" x="4267" y="-12.5" font-family="Helvetica,sans-Serif" font-size="10.00">squid/src/mgr/Registration.cc</text>
</a>
</g>
</g>
<!-- Node1&#45;&gt;Node30 -->
<g id="edge29_Node000001_Node000030" class="edge">
<title>Node1&#45;&gt;Node30</title>
<g id="a_edge29_Node000001_Node000030"><a xlink:title=" ">
<path fill="none" stroke="#63b8ff" d="M3333.13,-73.54C3498.46,-71.01 3868.92,-61.96 4179,-30 4192.23,-28.64 4206.51,-26.61 4219.63,-24.52"/>
<polygon fill="#63b8ff" stroke="#63b8ff" points="3332.96,-70.04 3323.02,-73.69 3333.07,-77.04 3332.96,-70.04"/>
</a>
</g>
</g>
<!-- Node31 -->
<g id="Node000031" class="node">
<title>Node31</title>
<g id="a_Node000031"><a xlink:href="neighbors_8cc.html" target="_top" xlink:title=" ">
<polygon fill="white" stroke="#666666" points="4488.5,-24.5 4363.5,-24.5 4363.5,-5.5 4488.5,-5.5 4488.5,-24.5"/>
<text text-anchor="middle" x="4426" y="-12.5" font-family="Helvetica,sans-Serif" font-size="10.00">squid/src/neighbors.cc</text>
</a>
</g>
</g>
<!-- Node1&#45;&gt;Node31 -->
<g id="edge30_Node000001_Node000031" class="edge">
<title>Node1&#45;&gt;Node31</title>
<g id="a_edge30_Node000001_Node000031"><a xlink:title=" ">
<path fill="none" stroke="#63b8ff" d="M3333.16,-72.75C3558.71,-67.92 4157.7,-53.27 4355,-30 4365.98,-28.71 4377.8,-26.65 4388.59,-24.5"/>
<polygon fill="#63b8ff" stroke="#63b8ff" points="3332.95,-69.25 3323.02,-72.96 3333.1,-76.25 3332.95,-69.25"/>
</a>
</g>
</g>
<!-- Node32 -->
<g id="Node000032" class="node">
<title>Node32</title>
<g id="a_Node000032"><a xlink:href="pconn_8cc.html" target="_top" xlink:title=" ">
<polygon fill="white" stroke="#666666" points="4613,-24.5 4507,-24.5 4507,-5.5 4613,-5.5 4613,-24.5"/>
<text text-anchor="middle" x="4560" y="-12.5" font-family="Helvetica,sans-Serif" font-size="10.00">squid/src/pconn.cc</text>
</a>
</g>
</g>
<!-- Node1&#45;&gt;Node32 -->
<g id="edge31_Node000001_Node000032" class="edge">
<title>Node1&#45;&gt;Node32</title>
<g id="a_edge31_Node000001_Node000032"><a xlink:title=" ">
<path fill="none" stroke="#63b8ff" d="M3333.45,-73.51C3579.13,-70.41 4272.33,-59.23 4498,-30 4507.63,-28.75 4517.97,-26.71 4527.38,-24.56"/>
<polygon fill="#63b8ff" stroke="#63b8ff" points="3333.1,-70.02 3323.14,-73.64 3333.19,-77.02 3333.1,-70.02"/>
</a>
</g>
</g>
<!-- Node33 -->
<g id="Node000033" class="node">
<title>Node33</title>
<g id="a_Node000033"><a xlink:href="peer__sourcehash_8cc.html" target="_top" xlink:title=" ">
<polygon fill="white" stroke="#666666" points="4790.5,-24.5 4631.5,-24.5 4631.5,-5.5 4790.5,-5.5 4790.5,-24.5"/>
<text text-anchor="middle" x="4711" y="-12.5" font-family="Helvetica,sans-Serif" font-size="10.00">squid/src/peer_sourcehash.cc</text>
</a>
</g>
</g>
<!-- Node1&#45;&gt;Node33 -->
<g id="edge32_Node000001_Node000033" class="edge">
<title>Node1&#45;&gt;Node33</title>
<g id="a_edge32_Node000001_Node000033"><a xlink:title=" ">
<path fill="none" stroke="#63b8ff" d="M3333.29,-73.09C3594.96,-68.64 4370.3,-53.77 4622,-30 4635.7,-28.71 4650.5,-26.65 4664.02,-24.5"/>
<polygon fill="#63b8ff" stroke="#63b8ff" points="3333.02,-69.6 3323.08,-73.26 3333.13,-76.59 3333.02,-69.6"/>
</a>
</g>
</g>
<!-- Node34 -->
<g id="Node000034" class="node">
<title>Node34</title>
<g id="a_Node000034"><a xlink:href="peer__userhash_8cc.html" target="_top" xlink:title=" ">
<polygon fill="white" stroke="#666666" points="4957,-24.5 4809,-24.5 4809,-5.5 4957,-5.5 4957,-24.5"/>
<text text-anchor="middle" x="4883" y="-12.5" font-family="Helvetica,sans-Serif" font-size="10.00">squid/src/peer_userhash.cc</text>
</a>
</g>
</g>
<!-- Node1&#45;&gt;Node34 -->
<g id="edge33_Node000001_Node000034" class="edge">
<title>Node1&#45;&gt;Node34</title>
<g id="a_edge33_Node000001_Node000034"><a xlink:title=" ">
<path fill="none" stroke="#63b8ff" d="M3333.64,-73.59C3617.87,-70.38 4512.28,-58.25 4800,-30 4812.8,-28.74 4826.61,-26.7 4839.22,-24.55"/>
<polygon fill="#63b8ff" stroke="#63b8ff" points="3333.35,-70.09 3323.39,-73.7 3333.43,-77.09 3333.35,-70.09"/>
</a>
</g>
</g>
<!-- Node35 -->
<g id="Node000035" class="node">
<title>Node35</title>
<g id="a_Node000035"><a xlink:href="redirect_8cc.html" target="_top" xlink:title=" ">
<polygon fill="white" stroke="#666666" points="5089,-24.5 4975,-24.5 4975,-5.5 5089,-5.5 5089,-24.5"/>
<text text-anchor="middle" x="5032" y="-12.5" font-family="Helvetica,sans-Serif" font-size="10.00">squid/src/redirect.cc</text>
</a>
</g>
</g>
<!-- Node1&#45;&gt;Node35 -->
<g id="edge34_Node000001_Node000035" class="edge">
<title>Node1&#45;&gt;Node35</title>
<g id="a_edge34_Node000001_Node000035"><a xlink:title=" ">
<path fill="none" stroke="#63b8ff" d="M3333.1,-74.36C3636.36,-73.52 4644.81,-67.9 4966,-30 4976.35,-28.78 4987.48,-26.71 4997.6,-24.54"/>
<polygon fill="#63b8ff" stroke="#63b8ff" points="3333.04,-70.86 3323.05,-74.38 3333.06,-77.86 3333.04,-70.86"/>
</a>
</g>
</g>
<!-- Node36 -->
<g id="Node000036" class="node">
<title>Node36</title>
<g id="a_Node000036"><a xlink:href="refresh_8cc.html" target="_top" xlink:title=" ">
<polygon fill="white" stroke="#666666" points="5218.5,-24.5 5107.5,-24.5 5107.5,-5.5 5218.5,-5.5 5218.5,-24.5"/>
<text text-anchor="middle" x="5163" y="-12.5" font-family="Helvetica,sans-Serif" font-size="10.00">squid/src/refresh.cc</text>
</a>
</g>
</g>
<!-- Node1&#45;&gt;Node36 -->
<g id="edge35_Node000001_Node000036" class="edge">
<title>Node1&#45;&gt;Node36</title>
<g id="a_edge35_Node000001_Node000036"><a xlink:title=" ">
<path fill="none" stroke="#63b8ff" d="M3333.26,-74.58C3651.58,-74.53 4749.86,-71.3 5098,-30 5108.2,-28.79 5119.17,-26.73 5129.13,-24.56"/>
<polygon fill="#63b8ff" stroke="#63b8ff" points="3333.17,-71.08 3323.17,-74.58 3333.17,-78.08 3333.17,-71.08"/>
</a>
</g>
</g>
<!-- Node37 -->
<g id="Node000037" class="node">
<title>Node37</title>
<g id="a_Node000037"><a xlink:href="context__storage_8cc.html" target="_top" xlink:title=" ">
<polygon fill="white" stroke="#666666" points="5353,-30 5237,-30 5237,0 5353,0 5353,-30"/>
<text text-anchor="start" x="5245" y="-18" font-family="Helvetica,sans-Serif" font-size="10.00">squid/src/ssl/context</text>
<text text-anchor="middle" x="5295" y="-7" font-family="Helvetica,sans-Serif" font-size="10.00">_storage.cc</text>
</a>
</g>
</g>
<!-- Node1&#45;&gt;Node37 -->
<g id="edge36_Node000001_Node000037" class="edge">
<title>Node1&#45;&gt;Node37</title>
<g id="a_edge36_Node000001_Node000037"><a xlink:title=" ">
<path fill="none" stroke="#63b8ff" d="M3333.17,-74.67C3665.47,-74.99 4852.97,-73.02 5228,-30 5230.83,-29.67 5233.72,-29.29 5236.64,-28.85"/>
<polygon fill="#63b8ff" stroke="#63b8ff" points="3333.12,-71.17 3323.12,-74.66 3333.11,-78.17 3333.12,-71.17"/>
</a>
</g>
</g>
<!-- Node38 -->
<g id="Node000038" class="node">
<title>Node38</title>
<g id="a_Node000038"><a xlink:href="stat_8cc.html" target="_top" xlink:title=" ">
<polygon fill="white" stroke="#666666" points="5466.5,-24.5 5371.5,-24.5 5371.5,-5.5 5466.5,-5.5 5466.5,-24.5"/>
<text text-anchor="middle" x="5419" y="-12.5" font-family="Helvetica,sans-Serif" font-size="10.00">squid/src/stat.cc</text>
</a>
</g>
</g>
<!-- Node1&#45;&gt;Node38 -->
<g id="edge37_Node000001_Node000038" class="edge">
<title>Node1&#45;&gt;Node38</title>
<g id="a_edge37_Node000001_Node000038"><a xlink:title=" ">
<path fill="none" stroke="#63b8ff" d="M3333.35,-73.8C3706.76,-70.64 5159.1,-56.72 5362,-30 5371.09,-28.8 5380.84,-26.72 5389.65,-24.52"/>
<polygon fill="#63b8ff" stroke="#63b8ff" points="3333.12,-70.3 3323.15,-73.88 3333.18,-77.3 3333.12,-70.3"/>
</a>
</g>
</g>
<!-- Node39 -->
<g id="Node000039" class="node">
<title>Node39</title>
<g id="a_Node000039"><a xlink:href="store_8cc.html" target="_top" xlink:title=" ">
<polygon fill="white" stroke="#666666" points="5585.5,-24.5 5484.5,-24.5 5484.5,-5.5 5585.5,-5.5 5585.5,-24.5"/>
<text text-anchor="middle" x="5535" y="-12.5" font-family="Helvetica,sans-Serif" font-size="10.00">squid/src/store.cc</text>
</a>
</g>
</g>
<!-- Node1&#45;&gt;Node39 -->
<g id="edge38_Node000001_Node000039" class="edge">
<title>Node1&#45;&gt;Node39</title>
<g id="a_edge38_Node000001_Node000039"><a xlink:title=" ">
<path fill="none" stroke="#63b8ff" d="M3333.55,-73.86C3719.72,-70.87 5261.22,-57.31 5476,-30 5485.4,-28.8 5495.48,-26.72 5504.61,-24.52"/>
<polygon fill="#63b8ff" stroke="#63b8ff" points="3333.25,-70.36 3323.28,-73.94 3333.3,-77.36 3333.25,-70.36"/>
</a>
</g>
</g>
<!-- Node40 -->
<g id="Node000040" class="node">
<title>Node40</title>
<g id="a_Node000040"><a xlink:href="store__digest_8cc.html" target="_top" xlink:title=" ">
<polygon fill="white" stroke="#666666" points="5740.5,-24.5 5603.5,-24.5 5603.5,-5.5 5740.5,-5.5 5740.5,-24.5"/>
<text text-anchor="middle" x="5672" y="-12.5" font-family="Helvetica,sans-Serif" font-size="10.00">squid/src/store_digest.cc</text>
</a>
</g>
</g>
<!-- Node1&#45;&gt;Node40 -->
<g id="edge39_Node000001_Node000040" class="edge">
<title>Node1&#45;&gt;Node40</title>
<g id="a_edge39_Node000001_Node000040"><a xlink:title=" ">
<path fill="none" stroke="#63b8ff" d="M3333.36,-74.73C3703.45,-75.4 5143.63,-75.01 5595,-30 5607.03,-28.8 5620.01,-26.74 5631.81,-24.57"/>
<polygon fill="#63b8ff" stroke="#63b8ff" points="3333.26,-71.23 3323.25,-74.71 3333.24,-78.23 3333.26,-71.23"/>
</a>
</g>
</g>
<!-- Node41 -->
<g id="Node000041" class="node">
<title>Node41</title>
<g id="a_Node000041"><a xlink:href="store__log_8cc.html" target="_top" xlink:title=" ">
<polygon fill="white" stroke="#666666" points="5881,-24.5 5759,-24.5 5759,-5.5 5881,-5.5 5881,-24.5"/>
<text text-anchor="middle" x="5820" y="-12.5" font-family="Helvetica,sans-Serif" font-size="10.00">squid/src/store_log.cc</text>
</a>
</g>
</g>
<!-- Node1&#45;&gt;Node41 -->
<g id="edge40_Node000001_Node000041" class="edge">
<title>Node1&#45;&gt;Node41</title>
<g id="a_edge40_Node000001_Node000041"><a xlink:title=" ">
<path fill="none" stroke="#63b8ff" d="M3333.17,-73.88C3747.31,-70.81 5506.18,-56.33 5750,-30 5761.09,-28.8 5773.03,-26.72 5783.86,-24.51"/>
<polygon fill="#63b8ff" stroke="#63b8ff" points="3333.03,-70.38 3323.05,-73.96 3333.08,-77.38 3333.03,-70.38"/>
</a>
</g>
</g>
<!-- Node42 -->
<g id="Node000042" class="node">
<title>Node42</title>
<g id="a_Node000042"><a xlink:href="stub__cache__manager_8cc.html" target="_top" xlink:title=" ">
<polygon fill="white" stroke="#666666" points="6011,-30 5899,-30 5899,0 6011,0 6011,-30"/>
<text text-anchor="start" x="5907" y="-18" font-family="Helvetica,sans-Serif" font-size="10.00">squid/src/tests/stub</text>
<text text-anchor="middle" x="5955" y="-7" font-family="Helvetica,sans-Serif" font-size="10.00">_cache_manager.cc</text>
</a>
</g>
</g>
<!-- Node1&#45;&gt;Node42 -->
<g id="edge41_Node000001_Node000042" class="edge">
<title>Node1&#45;&gt;Node42</title>
<g id="a_edge41_Node000001_Node000042"><a xlink:title=" ">
<path fill="none" stroke="#63b8ff" d="M3333.45,-74.04C3762.2,-71.67 5631.84,-59.69 5890,-30 5892.87,-29.67 5895.79,-29.27 5898.74,-28.82"/>
<polygon fill="#63b8ff" stroke="#63b8ff" points="3333.27,-70.54 3323.29,-74.1 3333.31,-77.54 3333.27,-70.54"/>
</a>
</g>
</g>
<!-- Node43 -->
<g id="Node000043" class="node">
<title>Node43</title>
<g id="a_Node000043"><a xlink:href="stub__libmgr_8cc.html" target="_top" xlink:title=" ">
<polygon fill="white" stroke="#666666" points="6140.5,-30 6029.5,-30 6029.5,0 6140.5,0 6140.5,-30"/>
<text text-anchor="start" x="6037.5" y="-18" font-family="Helvetica,sans-Serif" font-size="10.00">squid/src/tests/stub</text>
<text text-anchor="middle" x="6085" y="-7" font-family="Helvetica,sans-Serif" font-size="10.00">_libmgr.cc</text>
</a>
</g>
</g>
<!-- Node1&#45;&gt;Node43 -->
<g id="edge42_Node000001_Node000043" class="edge">
<title>Node1&#45;&gt;Node43</title>
<g id="a_edge42_Node000001_Node000043"><a xlink:title=" ">
<path fill="none" stroke="#63b8ff" d="M3333.4,-74.12C3774.77,-72.05 5748.26,-61.14 6020,-30 6023.1,-29.65 6026.26,-29.21 6029.45,-28.71"/>
<polygon fill="#63b8ff" stroke="#63b8ff" points="3333.25,-70.62 3323.26,-74.17 3333.28,-77.62 3333.25,-70.62"/>
</a>
</g>
</g>
<!-- Node44 -->
<g id="Node000044" class="node">
<title>Node44</title>
<g id="a_Node000044"><a xlink:href="testCacheManager_8cc.html" target="_top" xlink:title=" ">
<polygon fill="white" stroke="#666666" points="6297.5,-30 6158.5,-30 6158.5,0 6297.5,0 6297.5,-30"/>
<text text-anchor="start" x="6166.5" y="-18" font-family="Helvetica,sans-Serif" font-size="10.00">squid/src/tests/testCache</text>
<text text-anchor="middle" x="6228" y="-7" font-family="Helvetica,sans-Serif" font-size="10.00">Manager.cc</text>
</a>
</g>
</g>
<!-- Node1&#45;&gt;Node44 -->
<g id="edge43_Node000001_Node000044" class="edge">
<title>Node1&#45;&gt;Node44</title>
<g id="a_edge43_Node000001_Node000044"><a xlink:title=" ">
<path fill="none" stroke="#63b8ff" d="M3333.4,-74.01C3787.12,-71.33 5864.15,-57.66 6150,-30 6152.74,-29.73 6155.53,-29.43 6158.34,-29.08"/>
<polygon fill="#63b8ff" stroke="#63b8ff" points="3333.28,-70.51 3323.3,-74.07 3333.32,-77.51 3333.28,-70.51"/>
</a>
</g>
</g>
</g>
</svg>

<g id="navigator" transform="translate(0 0)" fill="#404254">
  <rect fill="#f2f5e9" fill-opacity="0.5" stroke="#606060" stroke-width=".5" x="0" y="0" width="60" height="60"/>
  <use id="zoomplus" xlink:href="#zoomPlus" x="17" y="9" onmousedown="handleZoom(evt,'in')"/>
  <use id="zoomminus" xlink:href="#zoomMin" x="42" y="9" onmousedown="handleZoom(evt,'out')"/>
  <use id="reset" xlink:href="#resetDef" x="30" y="36" onmousedown="handleReset()"/>
   <use id="arrowup" xlink:href="#arrowUp" x="0" y="0" onmousedown="handlePan(0,-1)"/>
  <use id="arrowright" xlink:href="#arrowRight" x="0" y="0" onmousedown="handlePan(1,0)"/>
  <use id="arrowdown" xlink:href="#arrowDown" x="0" y="0" onmousedown="handlePan(0,1)"/>
  <use id="arrowleft" xlink:href="#arrowLeft" x="0" y="0" onmousedown="handlePan(-1,0)"/>
</g>
<svg viewBox="0 0 15 15" width="100%" height="30px" preserveAspectRatio="xMaxYMin meet">
 <g id="arrow_out" transform="scale(0.3 0.3)">
  <a xlink:href="Registration_8h__dep__incl_org.svg" target="_base">
   <rect id="button" ry="5" rx="5" y="6" x="6" height="38" width="38"
        fill="#f2f5e9" fill-opacity="0.5" stroke="#606060" stroke-width="1.0"/>
   <path id="arrow"
     d="M 11.500037,31.436501 C 11.940474,20.09759 22.043105,11.32322 32.158766,21.979434 L 37.068811,17.246167 C 37.068811,17.246167 37.088388,32 37.088388,32 L 22.160133,31.978069 C 22.160133,31.978069 26.997745,27.140456 26.997745,27.140456 C 18.528582,18.264221 13.291696,25.230495 11.500037,31.436501 z"
     style="fill:#404040;"/>
  </a>
 </g>
</svg>

<style type='text/css'>
<![CDATA[
[data-mouse-over-selected='false'] { opacity: 0.7; }
[data-mouse-over-selected='true']  { opacity: 1.0; }
]]>
</style>
<script type="application/ecmascript"><![CDATA[
document.addEventListener('DOMContentLoaded', (event) => {
  highlightEdges();
  highlightAdjacentNodes();
});
]]></script>
</svg>
