<?xml version="1.0" encoding="UTF-8" standalone="no"?>
<!DOCTYPE svg PUBLIC "-//W3C//DTD SVG 1.1//EN"
 "http://www.w3.org/Graphics/SVG/1.1/DTD/svg11.dtd">
<!-- Generated by graphviz version 2.43.0 (0)
 -->
<!-- Title: squid/src/helper/Reply.h Pages: 1 -->
<!--zoomable 225 -->

<svg id="main" version="1.1" xmlns="http://www.w3.org/2000/svg" xmlns:xlink="http://www.w3.org/1999/xlink" xml:space="preserve" onload="init(evt)">
<style type="text/css"><![CDATA[
.node, .edge {opacity: 0.7;}
.node.selected, .edge.selected {opacity: 1;}
.edge:hover path { stroke: red; }
.edge:hover polygon { stroke: red; fill: red; }
]]></style>

<defs>
  <circle id="rim" cx="0" cy="0" r="7"/>
  <circle id="rim2" cx="0" cy="0" r="3.5"/>
  <g id="zoomPlus">
    <use xlink:href="#rim" fill="#404040"><set attributeName="fill" to="#808080" begin="zoomplus.mouseover" end="zoomplus.mouseout"/></use>
    <path d="M-4,0h8M0,-4v8" fill="none" stroke="white" stroke-width="1.5" pointer-events="none"/>
  </g>
  <g id="zoomMin">
    <use xlink:href="#rim" fill="#404040"><set attributeName="fill" to="#808080" begin="zoomminus.mouseover" end="zoomminus.mouseout"/></use>
    <path d="M-4,0h8" fill="none" stroke="white" stroke-width="1.5" pointer-events="none"/>
  </g>
  <g id="arrowUp" transform="translate(30 24)">
    <use xlink:href="#rim"/>
    <path pointer-events="none" fill="none" stroke="white" stroke-width="1.5" d="M0,-3.0v7 M-2.5,-0.5L0,-3.0L2.5,-0.5"/>
  </g>
  <g id="arrowRight" transform="rotate(90) translate(36 -43)">
    <use xlink:href="#rim"/>
    <path pointer-events="none" fill="none" stroke="white" stroke-width="1.5" d="M0,-3.0v7 M-2.5,-0.5L0,-3.0L2.5,-0.5"/>
  </g>
  <g id="arrowDown" transform="rotate(180) translate(-30 -48)">
    <use xlink:href="#rim"/>
    <path pointer-events="none" fill="none" stroke="white" stroke-width="1.5" d="M0,-3.0v7 M-2.5,-0.5L0,-3.0L2.5,-0.5"/>
  </g>
  <g id="arrowLeft" transform="rotate(270) translate(-36 17)">
    <use xlink:href="#rim"/>
    <path pointer-events="none" fill="none" stroke="white" stroke-width="1.5" d="M0,-3.0v7 M-2.5,-0.5L0,-3.0L2.5,-0.5"/>
  </g>
  <g id="resetDef">
    <use xlink:href="#rim2" fill="#404040"><set attributeName="fill" to="#808080" begin="reset.mouseover" end="reset.mouseout"/></use>
  </g>
</defs>
<script type="application/ecmascript">
var viewWidth = 1683;
var viewHeight = 225;
var sectionId = 'dynsection-1';
</script>
<script type="application/ecmascript" xlink:href="svg.min.js"/>
<svg id="graph" class="graph">
<g id="viewport">
<title>squid/src/helper/Reply.h</title>
<!-- Node1 -->
<g id="Node000001" class="node">
<title>Node1</title>
<g id="a_Node000001"><a xlink:title=" ">
<polygon fill="#999999" stroke="#666666" points="844,-217 712,-217 712,-198 844,-198 844,-217"/>
<text text-anchor="middle" x="778" y="-205" font-family="Helvetica,sans-Serif" font-size="10.00">squid/src/helper/Reply.h</text>
</a>
</g>
</g>
<!-- Node2 -->
<g id="Node000002" class="node">
<title>Node2</title>
<g id="a_Node000002"><a xlink:href="UserRequest_8cc.html" target="_top" xlink:title=" ">
<polygon fill="white" stroke="#666666" points="164,-156.5 0,-156.5 0,-137.5 164,-137.5 164,-156.5"/>
<text text-anchor="middle" x="82" y="-144.5" font-family="Helvetica,sans-Serif" font-size="10.00">squid/src/auth/UserRequest.cc</text>
</a>
</g>
</g>
<!-- Node1&#45;&gt;Node2 -->
<g id="edge1_Node000001_Node000002" class="edge">
<title>Node1&#45;&gt;Node2</title>
<g id="a_edge1_Node000001_Node000002"><a xlink:title=" ">
<path fill="none" stroke="#63b8ff" d="M701.48,-202.82C586.51,-196.85 362.45,-183.51 173,-162 159.98,-160.52 145.96,-158.55 132.92,-156.56"/>
<polygon fill="#63b8ff" stroke="#63b8ff" points="701.43,-206.32 711.59,-203.34 701.79,-199.33 701.43,-206.32"/>
</a>
</g>
</g>
<!-- Node3 -->
<g id="Node000003" class="node">
<title>Node3</title>
<g id="a_Node000003"><a xlink:href="basic_2UserRequest_8cc.html" target="_top" xlink:title=" ">
<polygon fill="white" stroke="#666666" points="295.5,-162 182.5,-162 182.5,-132 295.5,-132 295.5,-162"/>
<text text-anchor="start" x="190.5" y="-150" font-family="Helvetica,sans-Serif" font-size="10.00">squid/src/auth/basic</text>
<text text-anchor="middle" x="239" y="-139" font-family="Helvetica,sans-Serif" font-size="10.00">/UserRequest.cc</text>
</a>
</g>
</g>
<!-- Node1&#45;&gt;Node3 -->
<g id="edge2_Node000001_Node000003" class="edge">
<title>Node1&#45;&gt;Node3</title>
<g id="a_edge2_Node000001_Node000003"><a xlink:title=" ">
<path fill="none" stroke="#63b8ff" d="M701.65,-202.03C607.87,-195.92 444.11,-183.22 305,-162 301.99,-161.54 298.91,-161.03 295.81,-160.48"/>
<polygon fill="#63b8ff" stroke="#63b8ff" points="701.7,-205.54 711.9,-202.69 702.15,-198.56 701.7,-205.54"/>
</a>
</g>
</g>
<!-- Node4 -->
<g id="Node000004" class="node">
<title>Node4</title>
<g id="a_Node000004"><a xlink:href="digest_2UserRequest_8cc.html" target="_top" xlink:title=" ">
<polygon fill="white" stroke="#666666" points="432,-162 314,-162 314,-132 432,-132 432,-162"/>
<text text-anchor="start" x="322" y="-150" font-family="Helvetica,sans-Serif" font-size="10.00">squid/src/auth/digest</text>
<text text-anchor="middle" x="373" y="-139" font-family="Helvetica,sans-Serif" font-size="10.00">/UserRequest.cc</text>
</a>
</g>
</g>
<!-- Node1&#45;&gt;Node4 -->
<g id="edge3_Node000001_Node000004" class="edge">
<title>Node1&#45;&gt;Node4</title>
<g id="a_edge3_Node000001_Node000004"><a xlink:title=" ">
<path fill="none" stroke="#63b8ff" d="M701.66,-198C633.21,-190.01 530.11,-177.04 441,-162 438.15,-161.52 435.23,-161 432.29,-160.47"/>
<polygon fill="#63b8ff" stroke="#63b8ff" points="701.59,-201.52 711.92,-199.2 702.39,-194.57 701.59,-201.52"/>
</a>
</g>
</g>
<!-- Node5 -->
<g id="Node000005" class="node">
<title>Node5</title>
<g id="a_Node000005"><a xlink:href="negotiate_2UserRequest_8cc.html" target="_top" xlink:title=" ">
<polygon fill="white" stroke="#666666" points="584,-162 450,-162 450,-132 584,-132 584,-162"/>
<text text-anchor="start" x="458" y="-150" font-family="Helvetica,sans-Serif" font-size="10.00">squid/src/auth/negotiate</text>
<text text-anchor="middle" x="517" y="-139" font-family="Helvetica,sans-Serif" font-size="10.00">/UserRequest.cc</text>
</a>
</g>
</g>
<!-- Node1&#45;&gt;Node5 -->
<g id="edge4_Node000001_Node000005" class="edge">
<title>Node1&#45;&gt;Node5</title>
<g id="a_edge4_Node000001_Node000005"><a xlink:title=" ">
<path fill="none" stroke="#63b8ff" d="M730.26,-195.8C687.92,-186.31 625.79,-172.38 579.5,-162.01"/>
<polygon fill="#63b8ff" stroke="#63b8ff" points="729.52,-199.22 740.05,-197.99 731.06,-192.39 729.52,-199.22"/>
</a>
</g>
</g>
<!-- Node6 -->
<g id="Node000006" class="node">
<title>Node6</title>
<g id="a_Node000006"><a xlink:href="ntlm_2UserRequest_8cc.html" target="_top" xlink:title=" ">
<polygon fill="white" stroke="#666666" points="712,-162 602,-162 602,-132 712,-132 712,-162"/>
<text text-anchor="start" x="610" y="-150" font-family="Helvetica,sans-Serif" font-size="10.00">squid/src/auth/ntlm</text>
<text text-anchor="middle" x="657" y="-139" font-family="Helvetica,sans-Serif" font-size="10.00">/UserRequest.cc</text>
</a>
</g>
</g>
<!-- Node1&#45;&gt;Node6 -->
<g id="edge5_Node000001_Node000006" class="edge">
<title>Node1&#45;&gt;Node6</title>
<g id="a_edge5_Node000001_Node000006"><a xlink:title=" ">
<path fill="none" stroke="#63b8ff" d="M751.3,-193.59C732.07,-184.29 706.13,-171.75 686.32,-162.18"/>
<polygon fill="#63b8ff" stroke="#63b8ff" points="749.88,-196.79 760.41,-197.99 752.93,-190.49 749.88,-196.79"/>
</a>
</g>
</g>
<!-- Node7 -->
<g id="Node000007" class="node">
<title>Node7</title>
<g id="a_Node000007"><a xlink:href="client__side_8cc.html" target="_top" xlink:title=" ">
<polygon fill="white" stroke="#666666" points="935.5,-90.5 806.5,-90.5 806.5,-71.5 935.5,-71.5 935.5,-90.5"/>
<text text-anchor="middle" x="871" y="-78.5" font-family="Helvetica,sans-Serif" font-size="10.00">squid/src/client_side.cc</text>
</a>
</g>
</g>
<!-- Node1&#45;&gt;Node7 -->
<g id="edge6_Node000001_Node000007" class="edge">
<title>Node1&#45;&gt;Node7</title>
<g id="a_edge6_Node000001_Node000007"><a xlink:title=" ">
<path fill="none" stroke="#63b8ff" d="M790.41,-189.89C810.45,-163.05 849.25,-111.11 864.56,-90.62"/>
<polygon fill="#63b8ff" stroke="#63b8ff" points="787.57,-187.84 784.39,-197.94 793.18,-192.03 787.57,-187.84"/>
</a>
</g>
</g>
<!-- Node8 -->
<g id="Node000008" class="node">
<title>Node8</title>
<g id="a_Node000008"><a xlink:href="client__side__request_8cc.html" target="_top" xlink:title=" ">
<polygon fill="white" stroke="#666666" points="1022,-30 906,-30 906,0 1022,0 1022,-30"/>
<text text-anchor="start" x="914" y="-18" font-family="Helvetica,sans-Serif" font-size="10.00">squid/src/client_side</text>
<text text-anchor="middle" x="964" y="-7" font-family="Helvetica,sans-Serif" font-size="10.00">_request.cc</text>
</a>
</g>
</g>
<!-- Node1&#45;&gt;Node8 -->
<g id="edge7_Node000001_Node000008" class="edge">
<title>Node1&#45;&gt;Node8</title>
<g id="a_edge7_Node000001_Node000008"><a xlink:title=" ">
<path fill="none" stroke="#63b8ff" d="M768.98,-188.44C755.88,-159.36 736.05,-101.79 764,-66 781.37,-43.75 853.28,-29.93 905.91,-22.61"/>
<polygon fill="#63b8ff" stroke="#63b8ff" points="765.96,-190.23 773.4,-197.77 772.28,-187.24 765.96,-190.23"/>
</a>
</g>
</g>
<!-- Node9 -->
<g id="Node000009" class="node">
<title>Node9</title>
<g id="a_Node000009"><a xlink:href="external__acl_8cc.html" target="_top" xlink:title=" ">
<polygon fill="white" stroke="#666666" points="1408,-96 1304,-96 1304,-66 1408,-66 1408,-96"/>
<text text-anchor="start" x="1312" y="-84" font-family="Helvetica,sans-Serif" font-size="10.00">squid/src/external</text>
<text text-anchor="middle" x="1356" y="-73" font-family="Helvetica,sans-Serif" font-size="10.00">_acl.cc</text>
</a>
</g>
</g>
<!-- Node1&#45;&gt;Node9 -->
<g id="edge8_Node000001_Node000009" class="edge">
<title>Node1&#45;&gt;Node9</title>
<g id="a_edge8_Node000001_Node000009"><a xlink:title=" ">
<path fill="none" stroke="#63b8ff" d="M854.29,-202.09C949.78,-195.8 1107.43,-182.68 1162,-162 1183.79,-153.74 1184.17,-142.44 1205,-132 1236.48,-116.23 1274.06,-103.76 1303.85,-95.23"/>
<polygon fill="#63b8ff" stroke="#63b8ff" points="853.86,-198.61 844.11,-202.75 854.32,-205.59 853.86,-198.61"/>
</a>
</g>
</g>
<!-- Node10 -->
<g id="Node000010" class="node">
<title>Node10</title>
<g id="a_Node000010"><a xlink:href="helper_8cc.html" target="_top" xlink:title=" ">
<polygon fill="white" stroke="#666666" points="1533.5,-90.5 1426.5,-90.5 1426.5,-71.5 1533.5,-71.5 1533.5,-90.5"/>
<text text-anchor="middle" x="1480" y="-78.5" font-family="Helvetica,sans-Serif" font-size="10.00">squid/src/helper.cc</text>
</a>
</g>
</g>
<!-- Node1&#45;&gt;Node10 -->
<g id="edge9_Node000001_Node000010" class="edge">
<title>Node1&#45;&gt;Node10</title>
<g id="a_edge9_Node000001_Node000010"><a xlink:title=" ">
<path fill="none" stroke="#63b8ff" d="M854.21,-202.69C957.4,-196.79 1135.72,-183.8 1197,-162 1220,-153.82 1220.43,-141.3 1243,-132 1316.01,-101.91 1339.79,-112.57 1417,-96 1425.11,-94.26 1433.79,-92.36 1442.04,-90.53"/>
<polygon fill="#63b8ff" stroke="#63b8ff" points="853.94,-199.19 844.15,-203.25 854.33,-206.18 853.94,-199.19"/>
</a>
</g>
</g>
<!-- Node11 -->
<g id="Node000011" class="node">
<title>Node11</title>
<g id="a_Node000011"><a xlink:href="helper_8h.html" target="_top" xlink:title=" ">
<polygon fill="white" stroke="#666666" points="1153,-156.5 1051,-156.5 1051,-137.5 1153,-137.5 1153,-156.5"/>
<text text-anchor="middle" x="1102" y="-144.5" font-family="Helvetica,sans-Serif" font-size="10.00">squid/src/helper.h</text>
</a>
</g>
</g>
<!-- Node1&#45;&gt;Node11 -->
<g id="edge10_Node000001_Node000011" class="edge">
<title>Node1&#45;&gt;Node11</title>
<g id="a_edge10_Node000001_Node000011"><a xlink:title=" ">
<path fill="none" stroke="#63b8ff" d="M835.2,-196.17C897.68,-184.89 996.62,-167.03 1054.83,-156.52"/>
<polygon fill="#63b8ff" stroke="#63b8ff" points="834.33,-192.77 825.11,-197.99 835.58,-199.66 834.33,-192.77"/>
</a>
</g>
</g>
<!-- Node13 -->
<g id="Node000013" class="node">
<title>Node13</title>
<g id="a_Node000013"><a xlink:href="redirect_8cc.html" target="_top" xlink:title=" ">
<polygon fill="white" stroke="#666666" points="1155,-24.5 1041,-24.5 1041,-5.5 1155,-5.5 1155,-24.5"/>
<text text-anchor="middle" x="1098" y="-12.5" font-family="Helvetica,sans-Serif" font-size="10.00">squid/src/redirect.cc</text>
</a>
</g>
</g>
<!-- Node1&#45;&gt;Node13 -->
<g id="edge25_Node000001_Node000013" class="edge">
<title>Node1&#45;&gt;Node13</title>
<g id="a_edge25_Node000001_Node000013"><a xlink:title=" ">
<path fill="none" stroke="#63b8ff" d="M774.24,-187.73C769.4,-157.6 765.04,-98.55 797,-66 833.86,-28.46 979.23,-39.38 1031,-30 1040,-28.37 1049.65,-26.45 1058.74,-24.57"/>
<polygon fill="#63b8ff" stroke="#63b8ff" points="770.82,-188.52 776.04,-197.74 777.71,-187.28 770.82,-188.52"/>
</a>
</g>
</g>
<!-- Node18 -->
<g id="Node000018" class="node">
<title>Node18</title>
<g id="a_Node000018"><a xlink:href="ssl_2helper_8cc.html" target="_top" xlink:title=" ">
<polygon fill="white" stroke="#666666" points="1674.5,-90.5 1551.5,-90.5 1551.5,-71.5 1674.5,-71.5 1674.5,-90.5"/>
<text text-anchor="middle" x="1613" y="-78.5" font-family="Helvetica,sans-Serif" font-size="10.00">squid/src/ssl/helper.cc</text>
</a>
</g>
</g>
<!-- Node1&#45;&gt;Node18 -->
<g id="edge26_Node000001_Node000018" class="edge">
<title>Node1&#45;&gt;Node18</title>
<g id="a_edge26_Node000001_Node000018"><a xlink:title=" ">
<path fill="none" stroke="#63b8ff" d="M854.47,-203.72C965.72,-198.88 1166.33,-186.95 1234,-162 1255.86,-153.94 1255.29,-140.47 1277,-132 1388.15,-88.65 1425.34,-115.71 1543,-96 1552.66,-94.38 1563.02,-92.43 1572.73,-90.5"/>
<polygon fill="#63b8ff" stroke="#63b8ff" points="854.16,-200.23 844.32,-204.15 854.46,-207.22 854.16,-200.23"/>
</a>
</g>
</g>
<!-- Node19 -->
<g id="Node000019" class="node">
<title>Node19</title>
<g id="a_Node000019"><a xlink:href="Reply_8cc.html" target="_top" xlink:title=" ">
<polygon fill="white" stroke="#666666" points="1422.5,-156.5 1285.5,-156.5 1285.5,-137.5 1422.5,-137.5 1422.5,-156.5"/>
<text text-anchor="middle" x="1354" y="-144.5" font-family="Helvetica,sans-Serif" font-size="10.00">squid/src/helper/Reply.cc</text>
</a>
</g>
</g>
<!-- Node1&#45;&gt;Node19 -->
<g id="edge24_Node000001_Node000019" class="edge">
<title>Node1&#45;&gt;Node19</title>
<g id="a_edge24_Node000001_Node000019"><a xlink:title=" ">
<path fill="none" stroke="#63b8ff" d="M854.38,-201.44C951.45,-194.59 1124.07,-180.99 1271,-162 1282.74,-160.48 1295.36,-158.52 1307.13,-156.55"/>
<polygon fill="#63b8ff" stroke="#63b8ff" points="854.09,-197.95 844.36,-202.14 854.58,-204.93 854.09,-197.95"/>
</a>
</g>
</g>
<!-- Node11&#45;&gt;Node7 -->
<g id="edge11_Node000011_Node000007" class="edge">
<title>Node11&#45;&gt;Node7</title>
<g id="a_edge11_Node000011_Node000007"><a xlink:title=" ">
<path fill="none" stroke="#63b8ff" d="M1061.01,-134.64C1015.5,-122.03 943.07,-101.97 902.03,-90.6"/>
<polygon fill="#63b8ff" stroke="#63b8ff" points="1060.27,-138.07 1070.85,-137.37 1062.14,-131.33 1060.27,-138.07"/>
</a>
</g>
</g>
<!-- Node11&#45;&gt;Node8 -->
<g id="edge12_Node000011_Node000008" class="edge">
<title>Node11&#45;&gt;Node8</title>
<g id="a_edge12_Node000011_Node000008"><a xlink:title=" ">
<path fill="none" stroke="#63b8ff" d="M1047.07,-134.6C1024.23,-127.2 999.29,-115.22 983,-96 967.12,-77.27 964,-47.59 963.67,-30.14"/>
<polygon fill="#63b8ff" stroke="#63b8ff" points="1046.12,-137.97 1056.7,-137.49 1048.14,-131.26 1046.12,-137.97"/>
</a>
</g>
</g>
<!-- Node11&#45;&gt;Node9 -->
<g id="edge13_Node000011_Node000009" class="edge">
<title>Node11&#45;&gt;Node9</title>
<g id="a_edge13_Node000011_Node000009"><a xlink:title=" ">
<path fill="none" stroke="#63b8ff" d="M1145.78,-134.97C1189.61,-123.92 1257.07,-106.93 1303.69,-95.18"/>
<polygon fill="#63b8ff" stroke="#63b8ff" points="1144.83,-131.6 1135.99,-137.44 1146.54,-138.39 1144.83,-131.6"/>
</a>
</g>
</g>
<!-- Node11&#45;&gt;Node10 -->
<g id="edge15_Node000011_Node000010" class="edge">
<title>Node11&#45;&gt;Node10</title>
<g id="a_edge15_Node000011_Node000010"><a xlink:title=" ">
<path fill="none" stroke="#63b8ff" d="M1163.44,-137.39C1227.07,-128.2 1329.27,-112.69 1417,-96 1425.59,-94.37 1434.79,-92.43 1443.43,-90.52"/>
<polygon fill="#63b8ff" stroke="#63b8ff" points="1162.58,-133.97 1153.18,-138.86 1163.58,-140.9 1162.58,-133.97"/>
</a>
</g>
</g>
<!-- Node12 -->
<g id="Node000012" class="node">
<title>Node12</title>
<g id="a_Node000012"><a xlink:href="fqdncache_8cc.html" target="_top" xlink:title=" ">
<polygon fill="white" stroke="#666666" points="1119.5,-90.5 992.5,-90.5 992.5,-71.5 1119.5,-71.5 1119.5,-90.5"/>
<text text-anchor="middle" x="1056" y="-78.5" font-family="Helvetica,sans-Serif" font-size="10.00">squid/src/fqdncache.cc</text>
</a>
</g>
</g>
<!-- Node11&#45;&gt;Node12 -->
<g id="edge14_Node000011_Node000012" class="edge">
<title>Node11&#45;&gt;Node12</title>
<g id="a_edge14_Node000011_Node000012"><a xlink:title=" ">
<path fill="none" stroke="#63b8ff" d="M1089.72,-128.91C1080.92,-116.68 1069.44,-100.7 1062.4,-90.91"/>
<polygon fill="#63b8ff" stroke="#63b8ff" points="1087.12,-131.29 1095.8,-137.37 1092.8,-127.21 1087.12,-131.29"/>
</a>
</g>
</g>
<!-- Node11&#45;&gt;Node13 -->
<g id="edge16_Node000011_Node000013" class="edge">
<title>Node11&#45;&gt;Node13</title>
<g id="a_edge16_Node000011_Node000013"><a xlink:title=" ">
<path fill="none" stroke="#63b8ff" d="M1114.06,-128.77C1119.81,-119.52 1126.06,-107.64 1129,-96 1132.27,-83.07 1132.65,-78.82 1129,-66 1124.47,-50.09 1113.26,-34.29 1105.64,-24.84"/>
<polygon fill="#63b8ff" stroke="#63b8ff" points="1110.99,-127.07 1108.42,-137.35 1116.84,-130.92 1110.99,-127.07"/>
</a>
</g>
</g>
<!-- Node14 -->
<g id="Node000014" class="node">
<title>Node14</title>
<g id="a_Node000014"><a xlink:href="redirect_8h.html" target="_top" xlink:title=" ">
<polygon fill="white" stroke="#666666" points="1286,-90.5 1176,-90.5 1176,-71.5 1286,-71.5 1286,-90.5"/>
<text text-anchor="middle" x="1231" y="-78.5" font-family="Helvetica,sans-Serif" font-size="10.00">squid/src/redirect.h</text>
</a>
</g>
</g>
<!-- Node11&#45;&gt;Node14 -->
<g id="edge17_Node000011_Node000014" class="edge">
<title>Node11&#45;&gt;Node14</title>
<g id="a_edge17_Node000011_Node000014"><a xlink:title=" ">
<path fill="none" stroke="#63b8ff" d="M1128.48,-132.86C1153.9,-120.25 1191.57,-101.56 1213.47,-90.7"/>
<polygon fill="#63b8ff" stroke="#63b8ff" points="1126.8,-129.79 1119.4,-137.37 1129.91,-136.06 1126.8,-129.79"/>
</a>
</g>
</g>
<!-- Node11&#45;&gt;Node18 -->
<g id="edge23_Node000011_Node000018" class="edge">
<title>Node11&#45;&gt;Node18</title>
<g id="a_edge23_Node000011_Node000018"><a xlink:title=" ">
<path fill="none" stroke="#63b8ff" d="M1163.29,-139.7C1266.65,-128.96 1471.35,-107.21 1543,-96 1552.92,-94.45 1563.57,-92.48 1573.49,-90.51"/>
<polygon fill="#63b8ff" stroke="#63b8ff" points="1162.89,-136.22 1153.31,-140.73 1163.61,-143.18 1162.89,-136.22"/>
</a>
</g>
</g>
<!-- Node14&#45;&gt;Node8 -->
<g id="edge19_Node000014_Node000008" class="edge">
<title>Node14&#45;&gt;Node8</title>
<g id="a_edge19_Node000014_Node000008"><a xlink:title=" ">
<path fill="none" stroke="#63b8ff" d="M1185.46,-69.08C1140.34,-58.27 1071.04,-41.66 1022,-29.9"/>
<polygon fill="#63b8ff" stroke="#63b8ff" points="1184.73,-72.51 1195.27,-71.44 1186.36,-65.7 1184.73,-72.51"/>
</a>
</g>
</g>
<!-- Node14&#45;&gt;Node13 -->
<g id="edge21_Node000014_Node000013" class="edge">
<title>Node14&#45;&gt;Node13</title>
<g id="a_edge21_Node000014_Node000013"><a xlink:title=" ">
<path fill="none" stroke="#63b8ff" d="M1204.04,-67.03C1177.83,-54.42 1138.75,-35.61 1116.08,-24.7"/>
<polygon fill="#63b8ff" stroke="#63b8ff" points="1202.53,-70.19 1213.06,-71.37 1205.57,-63.88 1202.53,-70.19"/>
</a>
</g>
</g>
<!-- Node15 -->
<g id="Node000015" class="node">
<title>Node15</title>
<g id="a_Node000015"><a xlink:href="cache__cf_8cc.html" target="_top" xlink:title=" ">
<polygon fill="white" stroke="#666666" points="1421.5,-24.5 1302.5,-24.5 1302.5,-5.5 1421.5,-5.5 1421.5,-24.5"/>
<text text-anchor="middle" x="1362" y="-12.5" font-family="Helvetica,sans-Serif" font-size="10.00">squid/src/cache_cf.cc</text>
</a>
</g>
</g>
<!-- Node14&#45;&gt;Node15 -->
<g id="edge18_Node000014_Node000015" class="edge">
<title>Node14&#45;&gt;Node15</title>
<g id="a_edge18_Node000014_Node000015"><a xlink:title=" ">
<path fill="none" stroke="#63b8ff" d="M1257.89,-66.86C1283.7,-54.25 1321.96,-35.56 1344.19,-24.7"/>
<polygon fill="#63b8ff" stroke="#63b8ff" points="1256.12,-63.83 1248.67,-71.37 1259.19,-70.12 1256.12,-63.83"/>
</a>
</g>
</g>
<!-- Node16 -->
<g id="Node000016" class="node">
<title>Node16</title>
<g id="a_Node000016"><a xlink:href="main_8cc.html" target="_top" xlink:title=" ">
<polygon fill="white" stroke="#666666" points="1540.5,-24.5 1439.5,-24.5 1439.5,-5.5 1540.5,-5.5 1540.5,-24.5"/>
<text text-anchor="middle" x="1490" y="-12.5" font-family="Helvetica,sans-Serif" font-size="10.00">squid/src/main.cc</text>
</a>
</g>
</g>
<!-- Node14&#45;&gt;Node16 -->
<g id="edge20_Node000014_Node000016" class="edge">
<title>Node14&#45;&gt;Node16</title>
<g id="a_edge20_Node000014_Node000016"><a xlink:title=" ">
<path fill="none" stroke="#63b8ff" d="M1275.43,-69.02C1326.47,-56.41 1409.13,-35.98 1455.54,-24.51"/>
<polygon fill="#63b8ff" stroke="#63b8ff" points="1274.53,-65.64 1265.66,-71.44 1276.21,-72.43 1274.53,-65.64"/>
</a>
</g>
</g>
<!-- Node17 -->
<g id="Node000017" class="node">
<title>Node17</title>
<g id="a_Node000017"><a xlink:href="stub__redirect_8cc.html" target="_top" xlink:title=" ">
<polygon fill="white" stroke="#666666" points="1284.5,-30 1173.5,-30 1173.5,0 1284.5,0 1284.5,-30"/>
<text text-anchor="start" x="1181.5" y="-18" font-family="Helvetica,sans-Serif" font-size="10.00">squid/src/tests/stub</text>
<text text-anchor="middle" x="1229" y="-7" font-family="Helvetica,sans-Serif" font-size="10.00">_redirect.cc</text>
</a>
</g>
</g>
<!-- Node14&#45;&gt;Node17 -->
<g id="edge22_Node000014_Node000017" class="edge">
<title>Node14&#45;&gt;Node17</title>
<g id="a_edge22_Node000014_Node000017"><a xlink:title=" ">
<path fill="none" stroke="#63b8ff" d="M1230.42,-61.35C1230.11,-51.47 1229.73,-39.51 1229.45,-30.36"/>
<polygon fill="#63b8ff" stroke="#63b8ff" points="1226.92,-61.48 1230.73,-71.37 1233.92,-61.26 1226.92,-61.48"/>
</a>
</g>
</g>
</g>
</svg>

<g id="navigator" transform="translate(0 0)" fill="#404254">
  <rect fill="#f2f5e9" fill-opacity="0.5" stroke="#606060" stroke-width=".5" x="0" y="0" width="60" height="60"/>
  <use id="zoomplus" xlink:href="#zoomPlus" x="17" y="9" onmousedown="handleZoom(evt,'in')"/>
  <use id="zoomminus" xlink:href="#zoomMin" x="42" y="9" onmousedown="handleZoom(evt,'out')"/>
  <use id="reset" xlink:href="#resetDef" x="30" y="36" onmousedown="handleReset()"/>
   <use id="arrowup" xlink:href="#arrowUp" x="0" y="0" onmousedown="handlePan(0,-1)"/>
  <use id="arrowright" xlink:href="#arrowRight" x="0" y="0" onmousedown="handlePan(1,0)"/>
  <use id="arrowdown" xlink:href="#arrowDown" x="0" y="0" onmousedown="handlePan(0,1)"/>
  <use id="arrowleft" xlink:href="#arrowLeft" x="0" y="0" onmousedown="handlePan(-1,0)"/>
</g>
<svg viewBox="0 0 15 15" width="100%" height="30px" preserveAspectRatio="xMaxYMin meet">
 <g id="arrow_out" transform="scale(0.3 0.3)">
  <a xlink:href="Reply_8h__dep__incl_org.svg" target="_base">
   <rect id="button" ry="5" rx="5" y="6" x="6" height="38" width="38"
        fill="#f2f5e9" fill-opacity="0.5" stroke="#606060" stroke-width="1.0"/>
   <path id="arrow"
     d="M 11.500037,31.436501 C 11.940474,20.09759 22.043105,11.32322 32.158766,21.979434 L 37.068811,17.246167 C 37.068811,17.246167 37.088388,32 37.088388,32 L 22.160133,31.978069 C 22.160133,31.978069 26.997745,27.140456 26.997745,27.140456 C 18.528582,18.264221 13.291696,25.230495 11.500037,31.436501 z"
     style="fill:#404040;"/>
  </a>
 </g>
</svg>

<style type='text/css'>
<![CDATA[
[data-mouse-over-selected='false'] { opacity: 0.7; }
[data-mouse-over-selected='true']  { opacity: 1.0; }
]]>
</style>
<script type="application/ecmascript"><![CDATA[
document.addEventListener('DOMContentLoaded', (event) => {
  highlightEdges();
  highlightAdjacentNodes();
});
]]></script>
</svg>
