<?xml version="1.0" encoding="UTF-8" standalone="no"?>
<!DOCTYPE svg PUBLIC "-//W3C//DTD SVG 1.1//EN"
 "http://www.w3.org/Graphics/SVG/1.1/DTD/svg11.dtd">
<!-- Generated by graphviz version 2.43.0 (0)
 -->
<!-- Title: squid/src/ResolvedPeers.h Pages: 1 -->
<svg width="1434pt" height="247pt"
 viewBox="0.00 0.00 1433.57 247.00" xmlns="http://www.w3.org/2000/svg" xmlns:xlink="http://www.w3.org/1999/xlink">
<g id="graph0" class="graph" transform="scale(1 1) rotate(0) translate(4 243)">
<title>squid/src/ResolvedPeers.h</title>
<!-- Node1 -->
<g id="Node000001" class="node">
<title>Node1</title>
<g id="a_Node000001"><a xlink:title=" ">
<polygon fill="#999999" stroke="#666666" points="1206.57,-239 1062.57,-239 1062.57,-220 1206.57,-220 1206.57,-239"/>
<text text-anchor="middle" x="1134.57" y="-227" font-family="Helvetica,sans-Serif" font-size="10.00">squid/src/ResolvedPeers.h</text>
</a>
</g>
</g>
<!-- Node2 -->
<g id="Node000002" class="node">
<title>Node2</title>
<g id="a_Node000002"><a xlink:href="RefCount_8h.html" target="_top" xlink:title=" ">
<polygon fill="white" stroke="#666666" points="1118.07,-74 1021.07,-74 1021.07,-55 1118.07,-55 1118.07,-74"/>
<text text-anchor="middle" x="1069.57" y="-62" font-family="Helvetica,sans-Serif" font-size="10.00">base/RefCount.h</text>
</a>
</g>
</g>
<!-- Node1&#45;&gt;Node2 -->
<g id="edge1_Node000001_Node000002" class="edge">
<title>Node1&#45;&gt;Node2</title>
<g id="a_edge1_Node000001_Node000002"><a xlink:title=" ">
<path fill="none" stroke="#63b8ff" d="M1127.94,-219.75C1115.69,-203.09 1089.69,-165.25 1077.57,-129 1072.77,-114.64 1070.81,-97.57 1070.03,-84.75"/>
<polygon fill="#63b8ff" stroke="#63b8ff" points="1073.51,-84.21 1069.6,-74.37 1066.52,-84.51 1073.51,-84.21"/>
</a>
</g>
</g>
<!-- Node5 -->
<g id="Node000005" class="node">
<title>Node5</title>
<g id="a_Node000005"><a xlink:title=" ">
<polygon fill="#e0e0e0" stroke="#999999" points="1231.07,-19 1186.07,-19 1186.07,0 1231.07,0 1231.07,-19"/>
<text text-anchor="middle" x="1208.57" y="-7" font-family="Helvetica,sans-Serif" font-size="10.00">utility</text>
</a>
</g>
</g>
<!-- Node1&#45;&gt;Node5 -->
<g id="edge39_Node000001_Node000005" class="edge">
<title>Node1&#45;&gt;Node5</title>
<g id="a_edge39_Node000001_Node000005"><a xlink:title=" ">
<path fill="none" stroke="#63b8ff" d="M1141.29,-219.76C1153.71,-203.12 1180.09,-165.31 1192.57,-129 1204.22,-95.09 1207.43,-52.99 1208.29,-29.19"/>
<polygon fill="#63b8ff" stroke="#63b8ff" points="1211.79,-29.18 1208.55,-19.09 1204.79,-29 1211.79,-29.18"/>
</a>
</g>
</g>
<!-- Node6 -->
<g id="Node000006" class="node">
<title>Node6</title>
<g id="a_Node000006"><a xlink:href="Connection_8h.html" target="_top" xlink:title=" ">
<polygon fill="white" stroke="#666666" points="603.57,-184 489.57,-184 489.57,-165 603.57,-165 603.57,-184"/>
<text text-anchor="middle" x="546.57" y="-172" font-family="Helvetica,sans-Serif" font-size="10.00">comm/Connection.h</text>
</a>
</g>
</g>
<!-- Node1&#45;&gt;Node6 -->
<g id="edge5_Node000001_Node000006" class="edge">
<title>Node1&#45;&gt;Node6</title>
<g id="a_edge5_Node000001_Node000006"><a xlink:title=" ">
<path fill="none" stroke="#63b8ff" d="M1062.47,-222C947.83,-211.67 725.57,-191.63 613.96,-181.57"/>
<polygon fill="#63b8ff" stroke="#63b8ff" points="614.11,-178.07 603.83,-180.66 613.48,-185.05 614.11,-178.07"/>
</a>
</g>
</g>
<!-- Node9 -->
<g id="Node000009" class="node">
<title>Node9</title>
<g id="a_Node000009"><a xlink:title=" ">
<polygon fill="#e0e0e0" stroke="#999999" points="551.57,-19 503.57,-19 503.57,0 551.57,0 551.57,-19"/>
<text text-anchor="middle" x="527.57" y="-7" font-family="Helvetica,sans-Serif" font-size="10.00">iosfwd</text>
</a>
</g>
</g>
<!-- Node1&#45;&gt;Node9 -->
<g id="edge37_Node000001_Node000009" class="edge">
<title>Node1&#45;&gt;Node9</title>
<g id="a_edge37_Node000001_Node000009"><a xlink:title=" ">
<path fill="none" stroke="#63b8ff" d="M1062.35,-227.7C825.19,-224.34 81.45,-207.56 11.57,-129 -19.96,-93.56 18.02,-78.11 67.57,-55 143.27,-19.69 400.15,-12.38 493.4,-10.88"/>
<polygon fill="#63b8ff" stroke="#63b8ff" points="493.48,-14.38 503.43,-10.73 493.38,-7.38 493.48,-14.38"/>
</a>
</g>
</g>
<!-- Node27 -->
<g id="Node000027" class="node">
<title>Node27</title>
<g id="a_Node000027"><a xlink:href="AllocatorProxy_8h.html" target="_top" xlink:title=" ">
<polygon fill="white" stroke="#666666" points="1363.57,-184 1239.57,-184 1239.57,-165 1363.57,-165 1363.57,-184"/>
<text text-anchor="middle" x="1301.57" y="-172" font-family="Helvetica,sans-Serif" font-size="10.00">mem/AllocatorProxy.h</text>
</a>
</g>
</g>
<!-- Node1&#45;&gt;Node27 -->
<g id="edge36_Node000001_Node000027" class="edge">
<title>Node1&#45;&gt;Node27</title>
<g id="a_edge36_Node000001_Node000027"><a xlink:title=" ">
<path fill="none" stroke="#63b8ff" d="M1161.4,-219.98C1189.44,-211.09 1233.61,-197.07 1264.87,-187.15"/>
<polygon fill="#63b8ff" stroke="#63b8ff" points="1266.05,-190.44 1274.53,-184.08 1263.94,-183.77 1266.05,-190.44"/>
</a>
</g>
</g>
<!-- Node28 -->
<g id="Node000028" class="node">
<title>Node28</title>
<g id="a_Node000028"><a xlink:title=" ">
<polygon fill="#e0e0e0" stroke="#999999" points="1425.57,-184 1381.57,-184 1381.57,-165 1425.57,-165 1425.57,-184"/>
<text text-anchor="middle" x="1403.57" y="-172" font-family="Helvetica,sans-Serif" font-size="10.00">limits</text>
</a>
</g>
</g>
<!-- Node1&#45;&gt;Node28 -->
<g id="edge38_Node000001_Node000028" class="edge">
<title>Node1&#45;&gt;Node28</title>
<g id="a_edge38_Node000001_Node000028"><a xlink:title=" ">
<path fill="none" stroke="#63b8ff" d="M1187.29,-219.93C1233.43,-212.14 1302.44,-199.79 1371.14,-184.18"/>
<polygon fill="#63b8ff" stroke="#63b8ff" points="1372.31,-187.5 1381.27,-181.85 1370.74,-180.68 1372.31,-187.5"/>
</a>
</g>
</g>
<!-- Node3 -->
<g id="Node000003" class="node">
<title>Node3</title>
<g id="a_Node000003"><a xlink:href="Lock_8h.html" target="_top" xlink:title=" ">
<polygon fill="white" stroke="#666666" points="1161.57,-19 1087.57,-19 1087.57,0 1161.57,0 1161.57,-19"/>
<text text-anchor="middle" x="1124.57" y="-7" font-family="Helvetica,sans-Serif" font-size="10.00">base/Lock.h</text>
</a>
</g>
</g>
<!-- Node2&#45;&gt;Node3 -->
<g id="edge2_Node000002_Node000003" class="edge">
<title>Node2&#45;&gt;Node3</title>
<g id="a_edge2_Node000002_Node000003"><a xlink:title=" ">
<path fill="none" stroke="#63b8ff" d="M1078.65,-54.75C1086.66,-47.03 1098.53,-35.6 1108.19,-26.28"/>
<polygon fill="#63b8ff" stroke="#63b8ff" points="1110.88,-28.55 1115.66,-19.09 1106.03,-23.51 1110.88,-28.55"/>
</a>
</g>
</g>
<!-- Node4 -->
<g id="Node000004" class="node">
<title>Node4</title>
<g id="a_Node000004"><a xlink:title=" ">
<polygon fill="#e0e0e0" stroke="#999999" points="1069.57,-19 1009.57,-19 1009.57,0 1069.57,0 1069.57,-19"/>
<text text-anchor="middle" x="1039.57" y="-7" font-family="Helvetica,sans-Serif" font-size="10.00">iostream</text>
</a>
</g>
</g>
<!-- Node2&#45;&gt;Node4 -->
<g id="edge3_Node000002_Node000004" class="edge">
<title>Node2&#45;&gt;Node4</title>
<g id="a_edge3_Node000002_Node000004"><a xlink:title=" ">
<path fill="none" stroke="#63b8ff" d="M1064.61,-54.75C1060.51,-47.49 1054.54,-36.95 1049.46,-27.98"/>
<polygon fill="#63b8ff" stroke="#63b8ff" points="1052.4,-26.07 1044.43,-19.09 1046.31,-29.52 1052.4,-26.07"/>
</a>
</g>
</g>
<!-- Node2&#45;&gt;Node5 -->
<g id="edge4_Node000002_Node000005" class="edge">
<title>Node2&#45;&gt;Node5</title>
<g id="a_edge4_Node000002_Node000005"><a xlink:title=" ">
<path fill="none" stroke="#63b8ff" d="M1091.9,-54.98C1114.77,-46.27 1150.53,-32.63 1176.43,-22.75"/>
<polygon fill="#63b8ff" stroke="#63b8ff" points="1177.73,-26 1185.83,-19.17 1175.24,-19.46 1177.73,-26"/>
</a>
</g>
</g>
<!-- Node7 -->
<g id="Node000007" class="node">
<title>Node7</title>
<g id="a_Node000007"><a xlink:href="CodeContext_8h.html" target="_top" xlink:title=" ">
<polygon fill="white" stroke="#666666" points="953.07,-129 838.07,-129 838.07,-110 953.07,-110 953.07,-129"/>
<text text-anchor="middle" x="895.57" y="-117" font-family="Helvetica,sans-Serif" font-size="10.00">base/CodeContext.h</text>
</a>
</g>
</g>
<!-- Node6&#45;&gt;Node7 -->
<g id="edge6_Node000006_Node000007" class="edge">
<title>Node6&#45;&gt;Node7</title>
<g id="a_edge6_Node000006_Node000007"><a xlink:title=" ">
<path fill="none" stroke="#63b8ff" d="M602.64,-164.98C664.37,-155.61 763.53,-140.55 829.12,-130.59"/>
<polygon fill="#63b8ff" stroke="#63b8ff" points="829.98,-134 839.35,-129.04 828.93,-127.08 829.98,-134"/>
</a>
</g>
</g>
<!-- Node8 -->
<g id="Node000008" class="node">
<title>Node8</title>
<g id="a_Node000008"><a xlink:href="InstanceId_8h.html" target="_top" xlink:title=" ">
<polygon fill="white" stroke="#666666" points="843.57,-74 741.57,-74 741.57,-55 843.57,-55 843.57,-74"/>
<text text-anchor="middle" x="792.57" y="-62" font-family="Helvetica,sans-Serif" font-size="10.00">base/InstanceId.h</text>
</a>
</g>
</g>
<!-- Node6&#45;&gt;Node8 -->
<g id="edge14_Node000006_Node000008" class="edge">
<title>Node6&#45;&gt;Node8</title>
<g id="a_edge14_Node000006_Node000008"><a xlink:title=" ">
<path fill="none" stroke="#63b8ff" d="M603.77,-168.33C661.07,-162.06 744.18,-149.7 768.57,-129 781.62,-117.93 787.58,-98.99 790.3,-84.67"/>
<polygon fill="#63b8ff" stroke="#63b8ff" points="793.82,-84.83 791.86,-74.41 786.9,-83.77 793.82,-84.83"/>
</a>
</g>
</g>
<!-- Node6&#45;&gt;Node9 -->
<g id="edge34_Node000006_Node000009" class="edge">
<title>Node6&#45;&gt;Node9</title>
<g id="a_edge34_Node000006_Node000009"><a xlink:title=" ">
<path fill="none" stroke="#63b8ff" d="M489.54,-174.08C407.34,-173.57 261.72,-167.12 228.57,-129 152,-40.97 399.61,-17.7 493.22,-12.12"/>
<polygon fill="#63b8ff" stroke="#63b8ff" points="493.54,-15.6 503.33,-11.55 493.15,-8.61 493.54,-15.6"/>
</a>
</g>
</g>
<!-- Node13 -->
<g id="Node000013" class="node">
<title>Node13</title>
<g id="a_Node000013"><a xlink:href="comm_2forward_8h.html" target="_top" xlink:title=" ">
<polygon fill="white" stroke="#666666" points="1183.07,-129 1086.07,-129 1086.07,-110 1183.07,-110 1183.07,-129"/>
<text text-anchor="middle" x="1134.57" y="-117" font-family="Helvetica,sans-Serif" font-size="10.00">comm/forward.h</text>
</a>
</g>
</g>
<!-- Node6&#45;&gt;Node13 -->
<g id="edge15_Node000006_Node000013" class="edge">
<title>Node6&#45;&gt;Node13</title>
<g id="a_edge15_Node000006_Node000013"><a xlink:title=" ">
<path fill="none" stroke="#63b8ff" d="M603.75,-168.35C715.69,-158.26 962.69,-135.99 1075.85,-125.79"/>
<polygon fill="#63b8ff" stroke="#63b8ff" points="1076.41,-129.26 1086.05,-124.87 1075.78,-122.29 1076.41,-129.26"/>
</a>
</g>
</g>
<!-- Node15 -->
<g id="Node000015" class="node">
<title>Node15</title>
<g id="a_Node000015"><a xlink:href="defines_8h.html" target="_top" xlink:title=" ">
<polygon fill="white" stroke="#666666" points="299.07,-129 238.07,-129 238.07,-110 299.07,-110 299.07,-129"/>
<text text-anchor="middle" x="268.57" y="-117" font-family="Helvetica,sans-Serif" font-size="10.00">defines.h</text>
</a>
</g>
</g>
<!-- Node6&#45;&gt;Node15 -->
<g id="edge18_Node000006_Node000015" class="edge">
<title>Node6&#45;&gt;Node15</title>
<g id="a_edge18_Node000006_Node000015"><a xlink:title=" ">
<path fill="none" stroke="#63b8ff" d="M501.9,-164.98C448.77,-154.86 360.83,-138.09 309.43,-128.29"/>
<polygon fill="#63b8ff" stroke="#63b8ff" points="309.83,-124.8 299.35,-126.37 308.52,-131.68 309.83,-124.8"/>
</a>
</g>
</g>
<!-- Node16 -->
<g id="Node000016" class="node">
<title>Node16</title>
<g id="a_Node000016"><a xlink:href="Eui48_8h.html" target="_top" xlink:title=" ">
<polygon fill="white" stroke="#666666" points="181.07,-129 110.07,-129 110.07,-110 181.07,-110 181.07,-129"/>
<text text-anchor="middle" x="145.57" y="-117" font-family="Helvetica,sans-Serif" font-size="10.00">eui/Eui48.h</text>
</a>
</g>
</g>
<!-- Node6&#45;&gt;Node16 -->
<g id="edge19_Node000006_Node000016" class="edge">
<title>Node6&#45;&gt;Node16</title>
<g id="a_edge19_Node000006_Node000016"><a xlink:title=" ">
<path fill="none" stroke="#63b8ff" d="M489.32,-167C419.75,-158.92 298.86,-144.32 195.57,-129 194.27,-128.81 192.95,-128.61 191.63,-128.4"/>
<polygon fill="#63b8ff" stroke="#63b8ff" points="191.74,-124.88 181.32,-126.77 190.65,-131.79 191.74,-124.88"/>
</a>
</g>
</g>
<!-- Node18 -->
<g id="Node000018" class="node">
<title>Node18</title>
<g id="a_Node000018"><a xlink:href="eui_2Eui64_8h.html" target="_top" xlink:title=" ">
<polygon fill="white" stroke="#666666" points="92.07,-129 21.07,-129 21.07,-110 92.07,-110 92.07,-129"/>
<text text-anchor="middle" x="56.57" y="-117" font-family="Helvetica,sans-Serif" font-size="10.00">eui/Eui64.h</text>
</a>
</g>
</g>
<!-- Node6&#45;&gt;Node18 -->
<g id="edge21_Node000006_Node000018" class="edge">
<title>Node6&#45;&gt;Node18</title>
<g id="a_edge21_Node000006_Node000018"><a xlink:title=" ">
<path fill="none" stroke="#63b8ff" d="M489.34,-169.47C406.18,-163.25 246.91,-149.93 102.47,-129.17"/>
<polygon fill="#63b8ff" stroke="#63b8ff" points="102.94,-125.7 92.54,-127.73 101.93,-132.63 102.94,-125.7"/>
</a>
</g>
</g>
<!-- Node19 -->
<g id="Node000019" class="node">
<title>Node19</title>
<g id="a_Node000019"><a xlink:href="hier__code_8h.html" target="_top" xlink:title=" ">
<polygon fill="white" stroke="#666666" points="429.07,-129 356.07,-129 356.07,-110 429.07,-110 429.07,-129"/>
<text text-anchor="middle" x="392.57" y="-117" font-family="Helvetica,sans-Serif" font-size="10.00">hier_code.h</text>
</a>
</g>
</g>
<!-- Node6&#45;&gt;Node19 -->
<g id="edge23_Node000006_Node000019" class="edge">
<title>Node6&#45;&gt;Node19</title>
<g id="a_edge23_Node000006_Node000019"><a xlink:title=" ">
<path fill="none" stroke="#63b8ff" d="M521.83,-164.98C496.19,-156.16 455.94,-142.31 427.16,-132.41"/>
<polygon fill="#63b8ff" stroke="#63b8ff" points="428.1,-129.03 417.51,-129.08 425.82,-135.65 428.1,-129.03"/>
</a>
</g>
</g>
<!-- Node20 -->
<g id="Node000020" class="node">
<title>Node20</title>
<g id="a_Node000020"><a xlink:href="ip_2Address_8h.html" target="_top" xlink:title=" ">
<polygon fill="white" stroke="#666666" points="743.07,-129 666.07,-129 666.07,-110 743.07,-110 743.07,-129"/>
<text text-anchor="middle" x="704.57" y="-117" font-family="Helvetica,sans-Serif" font-size="10.00">ip/Address.h</text>
</a>
</g>
</g>
<!-- Node6&#45;&gt;Node20 -->
<g id="edge24_Node000006_Node000020" class="edge">
<title>Node6&#45;&gt;Node20</title>
<g id="a_edge24_Node000006_Node000020"><a xlink:title=" ">
<path fill="none" stroke="#63b8ff" d="M571.95,-164.98C598.37,-156.13 639.92,-142.19 669.46,-132.28"/>
<polygon fill="#63b8ff" stroke="#63b8ff" points="670.62,-135.58 678.98,-129.08 668.39,-128.94 670.62,-135.58"/>
</a>
</g>
</g>
<!-- Node21 -->
<g id="Node000021" class="node">
<title>Node21</title>
<g id="a_Node000021"><a xlink:href="ip_2forward_8h.html" target="_top" xlink:title=" ">
<polygon fill="white" stroke="#666666" points="724.07,-74 649.07,-74 649.07,-55 724.07,-55 724.07,-74"/>
<text text-anchor="middle" x="686.57" y="-62" font-family="Helvetica,sans-Serif" font-size="10.00">ip/forward.h</text>
</a>
</g>
</g>
<!-- Node6&#45;&gt;Node21 -->
<g id="edge29_Node000006_Node000021" class="edge">
<title>Node6&#45;&gt;Node21</title>
<g id="a_edge29_Node000006_Node000021"><a xlink:title=" ">
<path fill="none" stroke="#63b8ff" d="M603.72,-168.99C657.78,-163.39 733.28,-151.68 751.57,-129 766.87,-110.03 740.03,-90.83 716.34,-78.58"/>
<polygon fill="#63b8ff" stroke="#63b8ff" points="717.7,-75.35 707.18,-74.09 714.62,-81.64 717.7,-75.35"/>
</a>
</g>
</g>
<!-- Node22 -->
<g id="Node000022" class="node">
<title>Node22</title>
<g id="a_Node000022"><a xlink:title=" ">
<polygon fill="#e0e0e0" stroke="#999999" points="379.07,-74 322.07,-74 322.07,-55 379.07,-55 379.07,-74"/>
<text text-anchor="middle" x="350.57" y="-62" font-family="Helvetica,sans-Serif" font-size="10.00">ostream</text>
</a>
</g>
</g>
<!-- Node6&#45;&gt;Node22 -->
<g id="edge35_Node000006_Node000022" class="edge">
<title>Node6&#45;&gt;Node22</title>
<g id="a_edge35_Node000006_Node000022"><a xlink:title=" ">
<path fill="none" stroke="#63b8ff" d="M489.31,-168.62C436.67,-162.81 364.21,-150.99 346.57,-129 336.55,-116.5 339.16,-97.78 343.32,-83.91"/>
<polygon fill="#63b8ff" stroke="#63b8ff" points="346.64,-85.01 346.61,-74.42 340.02,-82.72 346.64,-85.01"/>
</a>
</g>
</g>
<!-- Node24 -->
<g id="Node000024" class="node">
<title>Node24</title>
<g id="a_Node000024"><a xlink:title=" ">
<polygon fill="#e0e0e0" stroke="#999999" points="647.57,-129 555.57,-129 555.57,-110 647.57,-110 647.57,-129"/>
<text text-anchor="middle" x="601.57" y="-117" font-family="Helvetica,sans-Serif" font-size="10.00">mem/forward.h</text>
</a>
</g>
</g>
<!-- Node6&#45;&gt;Node24 -->
<g id="edge30_Node000006_Node000024" class="edge">
<title>Node6&#45;&gt;Node24</title>
<g id="a_edge30_Node000006_Node000024"><a xlink:title=" ">
<path fill="none" stroke="#63b8ff" d="M555.65,-164.75C563.66,-157.03 575.53,-145.6 585.19,-136.28"/>
<polygon fill="#63b8ff" stroke="#63b8ff" points="587.88,-138.55 592.66,-129.09 583.03,-133.51 587.88,-138.55"/>
</a>
</g>
</g>
<!-- Node25 -->
<g id="Node000025" class="node">
<title>Node25</title>
<g id="a_Node000025"><a xlink:href="time_2gadgets_8h.html" target="_top" xlink:title=" ">
<polygon fill="white" stroke="#666666" points="537.57,-129 447.57,-129 447.57,-110 537.57,-110 537.57,-129"/>
<text text-anchor="middle" x="492.57" y="-117" font-family="Helvetica,sans-Serif" font-size="10.00">time/gadgets.h</text>
</a>
</g>
</g>
<!-- Node6&#45;&gt;Node25 -->
<g id="edge31_Node000006_Node000025" class="edge">
<title>Node6&#45;&gt;Node25</title>
<g id="a_edge31_Node000006_Node000025"><a xlink:title=" ">
<path fill="none" stroke="#63b8ff" d="M537.65,-164.75C529.79,-157.03 518.14,-145.6 508.65,-136.28"/>
<polygon fill="#63b8ff" stroke="#63b8ff" points="510.91,-133.6 501.32,-129.09 506,-138.59 510.91,-133.6"/>
</a>
</g>
</g>
<!-- Node7&#45;&gt;Node2 -->
<g id="edge9_Node000007_Node000002" class="edge">
<title>Node7&#45;&gt;Node2</title>
<g id="a_edge9_Node000007_Node000002"><a xlink:title=" ">
<path fill="none" stroke="#63b8ff" d="M923.52,-109.98C952.86,-101.05 999.17,-86.94 1031.75,-77.02"/>
<polygon fill="#63b8ff" stroke="#63b8ff" points="1032.85,-80.34 1041.39,-74.08 1030.81,-73.65 1032.85,-80.34"/>
</a>
</g>
</g>
<!-- Node7&#45;&gt;Node8 -->
<g id="edge7_Node000007_Node000008" class="edge">
<title>Node7&#45;&gt;Node8</title>
<g id="a_edge7_Node000007_Node000008"><a xlink:title=" ">
<path fill="none" stroke="#63b8ff" d="M879.02,-109.98C862.67,-101.57 837.43,-88.59 818.44,-78.81"/>
<polygon fill="#63b8ff" stroke="#63b8ff" points="819.91,-75.63 809.42,-74.17 816.71,-81.86 819.91,-75.63"/>
</a>
</g>
</g>
<!-- Node7&#45;&gt;Node9 -->
<g id="edge13_Node000007_Node000009" class="edge">
<title>Node7&#45;&gt;Node9</title>
<g id="a_edge13_Node000007_Node000009"><a xlink:title=" ">
<path fill="none" stroke="#63b8ff" d="M892.4,-109.78C886.77,-95.67 873.61,-68.07 852.57,-55 804.5,-25.14 635.21,-14.82 561.87,-11.7"/>
<polygon fill="#63b8ff" stroke="#63b8ff" points="561.91,-8.2 551.77,-11.29 561.62,-15.19 561.91,-8.2"/>
</a>
</g>
</g>
<!-- Node10 -->
<g id="Node000010" class="node">
<title>Node10</title>
<g id="a_Node000010"><a xlink:href="Stopwatch_8h.html" target="_top" xlink:title=" ">
<polygon fill="white" stroke="#666666" points="1003.07,-74 900.07,-74 900.07,-55 1003.07,-55 1003.07,-74"/>
<text text-anchor="middle" x="951.57" y="-62" font-family="Helvetica,sans-Serif" font-size="10.00">base/Stopwatch.h</text>
</a>
</g>
</g>
<!-- Node7&#45;&gt;Node10 -->
<g id="edge10_Node000007_Node000010" class="edge">
<title>Node7&#45;&gt;Node10</title>
<g id="a_edge10_Node000007_Node000010"><a xlink:title=" ">
<path fill="none" stroke="#63b8ff" d="M904.57,-109.98C912.76,-102.23 925.07,-90.58 935.04,-81.14"/>
<polygon fill="#63b8ff" stroke="#63b8ff" points="937.55,-83.59 942.41,-74.17 932.74,-78.5 937.55,-83.59"/>
</a>
</g>
</g>
<!-- Node8&#45;&gt;Node9 -->
<g id="edge8_Node000008_Node000009" class="edge">
<title>Node8&#45;&gt;Node9</title>
<g id="a_edge8_Node000008_Node000009"><a xlink:title=" ">
<path fill="none" stroke="#63b8ff" d="M749.99,-54.98C697.65,-44.52 609.86,-26.96 561.72,-17.33"/>
<polygon fill="#63b8ff" stroke="#63b8ff" points="562.28,-13.87 551.79,-15.34 560.91,-20.74 562.28,-13.87"/>
</a>
</g>
</g>
<!-- Node11 -->
<g id="Node000011" class="node">
<title>Node11</title>
<g id="a_Node000011"><a xlink:title=" ">
<polygon fill="#e0e0e0" stroke="#999999" points="911.57,-19 861.57,-19 861.57,0 911.57,0 911.57,-19"/>
<text text-anchor="middle" x="886.57" y="-7" font-family="Helvetica,sans-Serif" font-size="10.00">chrono</text>
</a>
</g>
</g>
<!-- Node10&#45;&gt;Node11 -->
<g id="edge11_Node000010_Node000011" class="edge">
<title>Node10&#45;&gt;Node11</title>
<g id="a_edge11_Node000010_Node000011"><a xlink:title=" ">
<path fill="none" stroke="#63b8ff" d="M941.13,-54.98C931.42,-47.07 916.75,-35.11 905.07,-25.58"/>
<polygon fill="#63b8ff" stroke="#63b8ff" points="907.16,-22.78 897.2,-19.17 902.74,-28.2 907.16,-22.78"/>
</a>
</g>
</g>
<!-- Node12 -->
<g id="Node000012" class="node">
<title>Node12</title>
<g id="a_Node000012"><a xlink:title=" ">
<polygon fill="#e0e0e0" stroke="#999999" points="979.57,-19 929.57,-19 929.57,0 979.57,0 979.57,-19"/>
<text text-anchor="middle" x="954.57" y="-7" font-family="Helvetica,sans-Serif" font-size="10.00">cstdint</text>
</a>
</g>
</g>
<!-- Node10&#45;&gt;Node12 -->
<g id="edge12_Node000010_Node000012" class="edge">
<title>Node10&#45;&gt;Node12</title>
<g id="a_edge12_Node000010_Node000012"><a xlink:title=" ">
<path fill="none" stroke="#63b8ff" d="M952.06,-54.75C952.46,-47.8 953.02,-37.85 953.51,-29.13"/>
<polygon fill="#63b8ff" stroke="#63b8ff" points="957.01,-29.27 954.08,-19.09 950.02,-28.88 957.01,-29.27"/>
</a>
</g>
</g>
<!-- Node13&#45;&gt;Node2 -->
<g id="edge16_Node000013_Node000002" class="edge">
<title>Node13&#45;&gt;Node2</title>
<g id="a_edge16_Node000013_Node000002"><a xlink:title=" ">
<path fill="none" stroke="#63b8ff" d="M1124.13,-109.98C1114.42,-102.07 1099.75,-90.11 1088.07,-80.58"/>
<polygon fill="#63b8ff" stroke="#63b8ff" points="1090.16,-77.78 1080.2,-74.17 1085.74,-83.2 1090.16,-77.78"/>
</a>
</g>
</g>
<!-- Node14 -->
<g id="Node000014" class="node">
<title>Node14</title>
<g id="a_Node000014"><a xlink:title=" ">
<polygon fill="#e0e0e0" stroke="#999999" points="1183.07,-74 1136.07,-74 1136.07,-55 1183.07,-55 1183.07,-74"/>
<text text-anchor="middle" x="1159.57" y="-62" font-family="Helvetica,sans-Serif" font-size="10.00">vector</text>
</a>
</g>
</g>
<!-- Node13&#45;&gt;Node14 -->
<g id="edge17_Node000013_Node000014" class="edge">
<title>Node13&#45;&gt;Node14</title>
<g id="a_edge17_Node000013_Node000014"><a xlink:title=" ">
<path fill="none" stroke="#63b8ff" d="M1138.7,-109.75C1142.08,-102.57 1146.98,-92.18 1151.19,-83.27"/>
<polygon fill="#63b8ff" stroke="#63b8ff" points="1154.42,-84.63 1155.52,-74.09 1148.09,-81.64 1154.42,-84.63"/>
</a>
</g>
</g>
<!-- Node17 -->
<g id="Node000017" class="node">
<title>Node17</title>
<g id="a_Node000017"><a xlink:title=" ">
<polygon fill="#e0e0e0" stroke="#999999" points="126.57,-74 76.57,-74 76.57,-55 126.57,-55 126.57,-74"/>
<text text-anchor="middle" x="101.57" y="-62" font-family="Helvetica,sans-Serif" font-size="10.00">cstring</text>
</a>
</g>
</g>
<!-- Node16&#45;&gt;Node17 -->
<g id="edge20_Node000016_Node000017" class="edge">
<title>Node16&#45;&gt;Node17</title>
<g id="a_edge20_Node000016_Node000017"><a xlink:title=" ">
<path fill="none" stroke="#63b8ff" d="M138.3,-109.75C132.02,-102.18 122.78,-91.05 115.14,-81.84"/>
<polygon fill="#63b8ff" stroke="#63b8ff" points="117.78,-79.55 108.7,-74.09 112.39,-84.02 117.78,-79.55"/>
</a>
</g>
</g>
<!-- Node18&#45;&gt;Node17 -->
<g id="edge22_Node000018_Node000017" class="edge">
<title>Node18&#45;&gt;Node17</title>
<g id="a_edge22_Node000018_Node000017"><a xlink:title=" ">
<path fill="none" stroke="#63b8ff" d="M64,-109.75C70.42,-102.18 79.87,-91.05 87.69,-81.84"/>
<polygon fill="#63b8ff" stroke="#63b8ff" points="90.47,-83.98 94.28,-74.09 85.14,-79.45 90.47,-83.98"/>
</a>
</g>
</g>
<!-- Node20&#45;&gt;Node9 -->
<g id="edge26_Node000020_Node000009" class="edge">
<title>Node20&#45;&gt;Node9</title>
<g id="a_edge26_Node000020_Node000009"><a xlink:title=" ">
<path fill="none" stroke="#63b8ff" d="M668.28,-109.98C632.72,-101.1 581.6,-86.72 565.57,-74 550.81,-62.29 540.49,-43.16 534.37,-28.96"/>
<polygon fill="#63b8ff" stroke="#63b8ff" points="537.46,-27.25 530.5,-19.26 530.95,-29.84 537.46,-27.25"/>
</a>
</g>
</g>
<!-- Node20&#45;&gt;Node21 -->
<g id="edge25_Node000020_Node000021" class="edge">
<title>Node20&#45;&gt;Node21</title>
<g id="a_edge25_Node000020_Node000021"><a xlink:title=" ">
<path fill="none" stroke="#63b8ff" d="M701.6,-109.75C699.21,-102.72 695.78,-92.62 692.8,-83.84"/>
<polygon fill="#63b8ff" stroke="#63b8ff" points="696.02,-82.43 689.49,-74.09 689.39,-84.68 696.02,-82.43"/>
</a>
</g>
</g>
<!-- Node20&#45;&gt;Node22 -->
<g id="edge27_Node000020_Node000022" class="edge">
<title>Node20&#45;&gt;Node22</title>
<g id="a_edge27_Node000020_Node000022"><a xlink:title=" ">
<path fill="none" stroke="#63b8ff" d="M665.81,-111.53C662.69,-111 659.58,-110.48 656.57,-110 560.77,-94.56 447.71,-78.74 389.51,-70.77"/>
<polygon fill="#63b8ff" stroke="#63b8ff" points="389.68,-67.26 379.3,-69.38 388.74,-74.2 389.68,-67.26"/>
</a>
</g>
</g>
<!-- Node23 -->
<g id="Node000023" class="node">
<title>Node23</title>
<g id="a_Node000023"><a xlink:title=" ">
<polygon fill="#e0e0e0" stroke="#999999" points="630.57,-74 574.57,-74 574.57,-55 630.57,-55 630.57,-74"/>
<text text-anchor="middle" x="602.57" y="-62" font-family="Helvetica,sans-Serif" font-size="10.00">optional</text>
</a>
</g>
</g>
<!-- Node20&#45;&gt;Node23 -->
<g id="edge28_Node000020_Node000023" class="edge">
<title>Node20&#45;&gt;Node23</title>
<g id="a_edge28_Node000020_Node000023"><a xlink:title=" ">
<path fill="none" stroke="#63b8ff" d="M688.18,-109.98C671.99,-101.57 647,-88.59 628.19,-78.81"/>
<polygon fill="#63b8ff" stroke="#63b8ff" points="629.74,-75.68 619.25,-74.17 626.51,-81.89 629.74,-75.68"/>
</a>
</g>
</g>
<!-- Node25&#45;&gt;Node9 -->
<g id="edge33_Node000025_Node000009" class="edge">
<title>Node25&#45;&gt;Node9</title>
<g id="a_edge33_Node000025_Node000009"><a xlink:title=" ">
<path fill="none" stroke="#63b8ff" d="M495.43,-109.66C501.13,-92.09 513.97,-52.45 521.59,-28.95"/>
<polygon fill="#63b8ff" stroke="#63b8ff" points="525.01,-29.75 524.76,-19.16 518.35,-27.59 525.01,-29.75"/>
</a>
</g>
</g>
<!-- Node26 -->
<g id="Node000026" class="node">
<title>Node26</title>
<g id="a_Node000026"><a xlink:title=" ">
<polygon fill="#e0e0e0" stroke="#999999" points="480.57,-74 436.57,-74 436.57,-55 480.57,-55 480.57,-74"/>
<text text-anchor="middle" x="458.57" y="-62" font-family="Helvetica,sans-Serif" font-size="10.00">ctime</text>
</a>
</g>
</g>
<!-- Node25&#45;&gt;Node26 -->
<g id="edge32_Node000025_Node000026" class="edge">
<title>Node25&#45;&gt;Node26</title>
<g id="a_edge32_Node000025_Node000026"><a xlink:title=" ">
<path fill="none" stroke="#63b8ff" d="M486.95,-109.75C482.25,-102.42 475.4,-91.73 469.6,-82.7"/>
<polygon fill="#63b8ff" stroke="#63b8ff" points="472.42,-80.62 464.08,-74.09 466.53,-84.4 472.42,-80.62"/>
</a>
</g>
</g>
</g>
</svg>
