<?xml version="1.0" encoding="UTF-8" standalone="no"?>
<!DOCTYPE svg PUBLIC "-//W3C//DTD SVG 1.1//EN"
 "http://www.w3.org/Graphics/SVG/1.1/DTD/svg11.dtd">
<!-- Generated by graphviz version 2.43.0 (0)
 -->
<!-- Title: squid/src/dns/rfc1035.h Pages: 1 -->
<svg width="771pt" height="137pt"
 viewBox="0.00 0.00 771.00 137.00" xmlns="http://www.w3.org/2000/svg" xmlns:xlink="http://www.w3.org/1999/xlink">
<g id="graph0" class="graph" transform="scale(1 1) rotate(0) translate(4 133)">
<title>squid/src/dns/rfc1035.h</title>
<!-- Node1 -->
<g id="Node000001" class="node">
<title>Node1</title>
<g id="a_Node000001"><a xlink:title=" ">
<polygon fill="#999999" stroke="#666666" points="433.5,-129 304.5,-129 304.5,-110 433.5,-110 433.5,-129"/>
<text text-anchor="middle" x="369" y="-117" font-family="Helvetica,sans-Serif" font-size="10.00">squid/src/dns/rfc1035.h</text>
</a>
</g>
</g>
<!-- Node2 -->
<g id="Node000002" class="node">
<title>Node2</title>
<g id="a_Node000002"><a xlink:href="rfc1035_8cc.html" target="_top" xlink:title=" ">
<polygon fill="white" stroke="#666666" points="134,-74 0,-74 0,-55 134,-55 134,-74"/>
<text text-anchor="middle" x="67" y="-62" font-family="Helvetica,sans-Serif" font-size="10.00">squid/src/dns/rfc1035.cc</text>
</a>
</g>
</g>
<!-- Node1&#45;&gt;Node2 -->
<g id="edge1_Node000001_Node000002" class="edge">
<title>Node1&#45;&gt;Node2</title>
<g id="a_edge1_Node000001_Node000002"><a xlink:title=" ">
<path fill="none" stroke="#63b8ff" d="M310.58,-108.25C253.87,-98.3 168.79,-83.36 115.65,-74.04"/>
<polygon fill="#63b8ff" stroke="#63b8ff" points="310.02,-111.7 320.48,-109.98 311.23,-104.81 310.02,-111.7"/>
</a>
</g>
</g>
<!-- Node3 -->
<g id="Node000003" class="node">
<title>Node3</title>
<g id="a_Node000003"><a xlink:href="rfc2671_8cc.html" target="_top" xlink:title=" ">
<polygon fill="white" stroke="#666666" points="286,-74 152,-74 152,-55 286,-55 286,-74"/>
<text text-anchor="middle" x="219" y="-62" font-family="Helvetica,sans-Serif" font-size="10.00">squid/src/dns/rfc2671.cc</text>
</a>
</g>
</g>
<!-- Node1&#45;&gt;Node3 -->
<g id="edge2_Node000001_Node000003" class="edge">
<title>Node1&#45;&gt;Node3</title>
<g id="a_edge2_Node000001_Node000003"><a xlink:title=" ">
<path fill="none" stroke="#63b8ff" d="M335.18,-106.55C307.32,-96.71 268.49,-82.98 243.54,-74.17"/>
<polygon fill="#63b8ff" stroke="#63b8ff" points="334.31,-109.95 344.9,-109.98 336.64,-103.35 334.31,-109.95"/>
</a>
</g>
</g>
<!-- Node4 -->
<g id="Node000004" class="node">
<title>Node4</title>
<g id="a_Node000004"><a xlink:href="rfc3596_8h.html" target="_top" xlink:title=" ">
<polygon fill="white" stroke="#666666" points="433.5,-74 304.5,-74 304.5,-55 433.5,-55 433.5,-74"/>
<text text-anchor="middle" x="369" y="-62" font-family="Helvetica,sans-Serif" font-size="10.00">squid/src/dns/rfc3596.h</text>
</a>
</g>
</g>
<!-- Node1&#45;&gt;Node4 -->
<g id="edge3_Node000001_Node000004" class="edge">
<title>Node1&#45;&gt;Node4</title>
<g id="a_edge3_Node000001_Node000004"><a xlink:title=" ">
<path fill="none" stroke="#63b8ff" d="M369,-99.66C369,-90.93 369,-80.99 369,-74.09"/>
<polygon fill="#63b8ff" stroke="#63b8ff" points="365.5,-99.75 369,-109.75 372.5,-99.75 365.5,-99.75"/>
</a>
</g>
</g>
<!-- Node8 -->
<g id="Node000008" class="node">
<title>Node8</title>
<g id="a_Node000008"><a xlink:href="fqdncache_8cc.html" target="_top" xlink:title=" ">
<polygon fill="white" stroke="#666666" points="578.5,-74 451.5,-74 451.5,-55 578.5,-55 578.5,-74"/>
<text text-anchor="middle" x="515" y="-62" font-family="Helvetica,sans-Serif" font-size="10.00">squid/src/fqdncache.cc</text>
</a>
</g>
</g>
<!-- Node1&#45;&gt;Node8 -->
<g id="edge7_Node000001_Node000008" class="edge">
<title>Node1&#45;&gt;Node8</title>
<g id="a_edge7_Node000001_Node000008"><a xlink:title=" ">
<path fill="none" stroke="#63b8ff" d="M401.92,-106.55C429.03,-96.71 466.83,-82.98 491.12,-74.17"/>
<polygon fill="#63b8ff" stroke="#63b8ff" points="400.66,-103.28 392.46,-109.98 403.05,-109.86 400.66,-103.28"/>
</a>
</g>
</g>
<!-- Node9 -->
<g id="Node000009" class="node">
<title>Node9</title>
<g id="a_Node000009"><a xlink:href="testRFC1035_8cc.html" target="_top" xlink:title=" ">
<polygon fill="white" stroke="#666666" points="763,-74 597,-74 597,-55 763,-55 763,-74"/>
<text text-anchor="middle" x="680" y="-62" font-family="Helvetica,sans-Serif" font-size="10.00">squid/src/tests/testRFC1035.cc</text>
</a>
</g>
</g>
<!-- Node1&#45;&gt;Node9 -->
<g id="edge8_Node000001_Node000009" class="edge">
<title>Node1&#45;&gt;Node9</title>
<g id="a_edge8_Node000001_Node000009"><a xlink:title=" ">
<path fill="none" stroke="#63b8ff" d="M429.16,-108.25C487.56,-98.3 575.18,-83.36 629.9,-74.04"/>
<polygon fill="#63b8ff" stroke="#63b8ff" points="428.24,-104.85 418.97,-109.98 429.41,-111.75 428.24,-104.85"/>
</a>
</g>
</g>
<!-- Node5 -->
<g id="Node000005" class="node">
<title>Node5</title>
<g id="a_Node000005"><a xlink:href="rfc3596_8cc.html" target="_top" xlink:title=" ">
<polygon fill="white" stroke="#666666" points="282,-19 148,-19 148,0 282,0 282,-19"/>
<text text-anchor="middle" x="215" y="-7" font-family="Helvetica,sans-Serif" font-size="10.00">squid/src/dns/rfc3596.cc</text>
</a>
</g>
</g>
<!-- Node4&#45;&gt;Node5 -->
<g id="edge4_Node000004_Node000005" class="edge">
<title>Node4&#45;&gt;Node5</title>
<g id="a_edge4_Node000004_Node000005"><a xlink:title=" ">
<path fill="none" stroke="#63b8ff" d="M334.62,-51.67C305.91,-41.79 265.64,-27.93 239.94,-19.08"/>
<polygon fill="#63b8ff" stroke="#63b8ff" points="333.66,-55.04 344.26,-54.98 335.94,-48.42 333.66,-55.04"/>
</a>
</g>
</g>
<!-- Node6 -->
<g id="Node000006" class="node">
<title>Node6</title>
<g id="a_Node000006"><a xlink:href="dns__internal_8cc.html" target="_top" xlink:title=" ">
<polygon fill="white" stroke="#666666" points="437.5,-19 300.5,-19 300.5,0 437.5,0 437.5,-19"/>
<text text-anchor="middle" x="369" y="-7" font-family="Helvetica,sans-Serif" font-size="10.00">squid/src/dns_internal.cc</text>
</a>
</g>
</g>
<!-- Node4&#45;&gt;Node6 -->
<g id="edge5_Node000004_Node000006" class="edge">
<title>Node4&#45;&gt;Node6</title>
<g id="a_edge5_Node000004_Node000006"><a xlink:title=" ">
<path fill="none" stroke="#63b8ff" d="M369,-44.66C369,-35.93 369,-25.99 369,-19.09"/>
<polygon fill="#63b8ff" stroke="#63b8ff" points="365.5,-44.75 369,-54.75 372.5,-44.75 365.5,-44.75"/>
</a>
</g>
</g>
<!-- Node7 -->
<g id="Node000007" class="node">
<title>Node7</title>
<g id="a_Node000007"><a xlink:href="ipcache_8cc.html" target="_top" xlink:title=" ">
<polygon fill="white" stroke="#666666" points="570,-19 456,-19 456,0 570,0 570,-19"/>
<text text-anchor="middle" x="513" y="-7" font-family="Helvetica,sans-Serif" font-size="10.00">squid/src/ipcache.cc</text>
</a>
</g>
</g>
<!-- Node4&#45;&gt;Node7 -->
<g id="edge6_Node000004_Node000007" class="edge">
<title>Node4&#45;&gt;Node7</title>
<g id="a_edge6_Node000004_Node000007"><a xlink:title=" ">
<path fill="none" stroke="#63b8ff" d="M401.82,-51.42C428.53,-41.59 465.6,-27.95 489.44,-19.17"/>
<polygon fill="#63b8ff" stroke="#63b8ff" points="400.31,-48.25 392.14,-54.98 402.73,-54.82 400.31,-48.25"/>
</a>
</g>
</g>
</g>
</svg>
