<?xml version="1.0" encoding="UTF-8" standalone="no"?>
<!DOCTYPE svg PUBLIC "-//W3C//DTD SVG 1.1//EN"
 "http://www.w3.org/Graphics/SVG/1.1/DTD/svg11.dtd">
<!-- Generated by graphviz version 2.43.0 (0)
 -->
<!-- Title: squid/src/fs/rock/RockStoreFileSystem.cc Pages: 1 -->
<svg width="4616pt" height="258pt"
 viewBox="0.00 0.00 4616.00 258.00" xmlns="http://www.w3.org/2000/svg" xmlns:xlink="http://www.w3.org/1999/xlink">
<g id="graph0" class="graph" transform="scale(1 1) rotate(0) translate(4 254)">
<title>squid/src/fs/rock/RockStoreFileSystem.cc</title>
<!-- Node1 -->
<g id="Node000001" class="node">
<title>Node1</title>
<g id="a_Node000001"><a xlink:title=" ">
<polygon fill="#999999" stroke="#666666" points="3382.5,-250 3233.5,-250 3233.5,-220 3382.5,-220 3382.5,-250"/>
<text text-anchor="start" x="3241.5" y="-238" font-family="Helvetica,sans-Serif" font-size="10.00">squid/src/fs/rock/RockStore</text>
<text text-anchor="middle" x="3308" y="-227" font-family="Helvetica,sans-Serif" font-size="10.00">FileSystem.cc</text>
</a>
</g>
</g>
<!-- Node2 -->
<g id="Node000002" class="node">
<title>Node2</title>
<g id="a_Node000002"><a xlink:href="squid_8h.html" target="_top" xlink:title=" ">
<polygon fill="white" stroke="#666666" points="1669,-184 1617,-184 1617,-165 1669,-165 1669,-184"/>
<text text-anchor="middle" x="1643" y="-172" font-family="Helvetica,sans-Serif" font-size="10.00">squid.h</text>
</a>
</g>
</g>
<!-- Node1&#45;&gt;Node2 -->
<g id="edge1_Node000001_Node000002" class="edge">
<title>Node1&#45;&gt;Node2</title>
<g id="a_edge1_Node000001_Node000002"><a xlink:title=" ">
<path fill="none" stroke="#63b8ff" d="M3233.5,-231.38C2942.5,-221.16 1888.36,-184.12 1679.21,-176.77"/>
<polygon fill="#63b8ff" stroke="#63b8ff" points="1679.2,-173.27 1669.08,-176.42 1678.95,-180.27 1679.2,-173.27"/>
</a>
</g>
</g>
<!-- Node44 -->
<g id="Node000044" class="node">
<title>Node44</title>
<g id="a_Node000044"><a xlink:href="RockStoreFileSystem_8h.html" target="_top" xlink:title=" ">
<polygon fill="white" stroke="#666666" points="3390.5,-184 3225.5,-184 3225.5,-165 3390.5,-165 3390.5,-184"/>
<text text-anchor="middle" x="3308" y="-172" font-family="Helvetica,sans-Serif" font-size="10.00">fs/rock/RockStoreFileSystem.h</text>
</a>
</g>
</g>
<!-- Node1&#45;&gt;Node44 -->
<g id="edge30_Node000001_Node000044" class="edge">
<title>Node1&#45;&gt;Node44</title>
<g id="a_edge30_Node000001_Node000044"><a xlink:title=" ">
<path fill="none" stroke="#63b8ff" d="M3308,-219.84C3308,-212.21 3308,-202.7 3308,-194.45"/>
<polygon fill="#63b8ff" stroke="#63b8ff" points="3311.5,-194.27 3308,-184.27 3304.5,-194.27 3311.5,-194.27"/>
</a>
</g>
</g>
<!-- Node50 -->
<g id="Node000050" class="node">
<title>Node50</title>
<g id="a_Node000050"><a xlink:href="RockSwapDir_8h.html" target="_top" xlink:title=" ">
<polygon fill="white" stroke="#666666" points="3964.5,-184 3839.5,-184 3839.5,-165 3964.5,-165 3964.5,-184"/>
<text text-anchor="middle" x="3902" y="-172" font-family="Helvetica,sans-Serif" font-size="10.00">fs/rock/RockSwapDir.h</text>
</a>
</g>
</g>
<!-- Node1&#45;&gt;Node50 -->
<g id="edge35_Node000001_Node000050" class="edge">
<title>Node1&#45;&gt;Node50</title>
<g id="a_edge35_Node000001_Node000050"><a xlink:title=" ">
<path fill="none" stroke="#63b8ff" d="M3382.63,-226.65C3497.41,-215.35 3715.89,-193.83 3829.42,-182.65"/>
<polygon fill="#63b8ff" stroke="#63b8ff" points="3829.8,-186.13 3839.41,-181.66 3829.12,-179.16 3829.8,-186.13"/>
</a>
</g>
</g>
<!-- Node3 -->
<g id="Node000003" class="node">
<title>Node3</title>
<g id="a_Node000003"><a xlink:href="autoconf_8h.html" target="_top" xlink:title=" ">
<polygon fill="white" stroke="#666666" points="1544,-129 1476,-129 1476,-110 1544,-110 1544,-129"/>
<text text-anchor="middle" x="1510" y="-117" font-family="Helvetica,sans-Serif" font-size="10.00">autoconf.h</text>
</a>
</g>
</g>
<!-- Node2&#45;&gt;Node3 -->
<g id="edge2_Node000002_Node000003" class="edge">
<title>Node2&#45;&gt;Node3</title>
<g id="a_edge2_Node000002_Node000003"><a xlink:title=" ">
<path fill="none" stroke="#63b8ff" d="M1621.63,-164.98C1599.85,-156.3 1565.84,-142.75 1541.08,-132.88"/>
<polygon fill="#63b8ff" stroke="#63b8ff" points="1542.34,-129.62 1531.76,-129.17 1539.75,-136.12 1542.34,-129.62"/>
</a>
</g>
</g>
<!-- Node4 -->
<g id="Node000004" class="node">
<title>Node4</title>
<g id="a_Node000004"><a xlink:href="version_8h.html" target="_top" xlink:title=" ">
<polygon fill="white" stroke="#666666" points="1624,-129 1562,-129 1562,-110 1624,-110 1624,-129"/>
<text text-anchor="middle" x="1593" y="-117" font-family="Helvetica,sans-Serif" font-size="10.00">version.h</text>
</a>
</g>
</g>
<!-- Node2&#45;&gt;Node4 -->
<g id="edge3_Node000002_Node000004" class="edge">
<title>Node2&#45;&gt;Node4</title>
<g id="a_edge3_Node000002_Node000004"><a xlink:title=" ">
<path fill="none" stroke="#63b8ff" d="M1634.74,-164.75C1627.54,-157.11 1616.89,-145.82 1608.15,-136.56"/>
<polygon fill="#63b8ff" stroke="#63b8ff" points="1610.51,-133.96 1601.1,-129.09 1605.42,-138.76 1610.51,-133.96"/>
</a>
</g>
</g>
<!-- Node5 -->
<g id="Node000005" class="node">
<title>Node5</title>
<g id="a_Node000005"><a xlink:href="compat_8h.html" target="_top" xlink:title=" ">
<polygon fill="white" stroke="#666666" points="1744,-129 1642,-129 1642,-110 1744,-110 1744,-129"/>
<text text-anchor="middle" x="1693" y="-117" font-family="Helvetica,sans-Serif" font-size="10.00">compat/compat.h</text>
</a>
</g>
</g>
<!-- Node2&#45;&gt;Node5 -->
<g id="edge4_Node000002_Node000005" class="edge">
<title>Node2&#45;&gt;Node5</title>
<g id="a_edge4_Node000002_Node000005"><a xlink:title=" ">
<path fill="none" stroke="#63b8ff" d="M1651.26,-164.75C1658.46,-157.11 1669.11,-145.82 1677.85,-136.56"/>
<polygon fill="#63b8ff" stroke="#63b8ff" points="1680.58,-138.76 1684.9,-129.09 1675.49,-133.96 1680.58,-138.76"/>
</a>
</g>
</g>
<!-- Node6 -->
<g id="Node000006" class="node">
<title>Node6</title>
<g id="a_Node000006"><a xlink:href="osdetect_8h.html" target="_top" xlink:title=" ">
<polygon fill="white" stroke="#666666" points="2275.5,-74 2168.5,-74 2168.5,-55 2275.5,-55 2275.5,-74"/>
<text text-anchor="middle" x="2222" y="-62" font-family="Helvetica,sans-Serif" font-size="10.00">compat/osdetect.h</text>
</a>
</g>
</g>
<!-- Node5&#45;&gt;Node6 -->
<g id="edge5_Node000005_Node000006" class="edge">
<title>Node5&#45;&gt;Node6</title>
<g id="a_edge5_Node000005_Node000006"><a xlink:title=" ">
<path fill="none" stroke="#63b8ff" d="M1744.1,-114.28C1828.08,-107.19 2000.8,-92.01 2158.07,-74.06"/>
<polygon fill="#63b8ff" stroke="#63b8ff" points="2158.87,-77.49 2168.4,-72.88 2158.07,-70.54 2158.87,-77.49"/>
</a>
</g>
</g>
<!-- Node7 -->
<g id="Node000007" class="node">
<title>Node7</title>
<g id="a_Node000007"><a xlink:href="fdsetsize_8h.html" target="_top" xlink:title=" ">
<polygon fill="white" stroke="#666666" points="2404,-74 2294,-74 2294,-55 2404,-55 2404,-74"/>
<text text-anchor="middle" x="2349" y="-62" font-family="Helvetica,sans-Serif" font-size="10.00">compat/fdsetsize.h</text>
</a>
</g>
</g>
<!-- Node5&#45;&gt;Node7 -->
<g id="edge6_Node000005_Node000007" class="edge">
<title>Node5&#45;&gt;Node7</title>
<g id="a_edge6_Node000005_Node000007"><a xlink:title=" ">
<path fill="none" stroke="#63b8ff" d="M1744.07,-115.6C1844.94,-109.67 2077.03,-95 2283.58,-73.98"/>
<polygon fill="#63b8ff" stroke="#63b8ff" points="2284.11,-77.44 2293.71,-72.94 2283.4,-70.48 2284.11,-77.44"/>
</a>
</g>
</g>
<!-- Node8 -->
<g id="Node000008" class="node">
<title>Node8</title>
<g id="a_Node000008"><a xlink:href="types_8h.html" target="_top" xlink:title=" ">
<polygon fill="#fff0f0" stroke="red" points="2514,-74 2422,-74 2422,-55 2514,-55 2514,-74"/>
<text text-anchor="middle" x="2468" y="-62" font-family="Helvetica,sans-Serif" font-size="10.00">compat/types.h</text>
</a>
</g>
</g>
<!-- Node5&#45;&gt;Node8 -->
<g id="edge7_Node000005_Node000008" class="edge">
<title>Node5&#45;&gt;Node8</title>
<g id="a_edge7_Node000005_Node000008"><a xlink:title=" ">
<path fill="none" stroke="#63b8ff" d="M1744.2,-116.95C1860.79,-113.06 2155.14,-101.3 2411.57,-74.05"/>
<polygon fill="#63b8ff" stroke="#63b8ff" points="2412.26,-77.5 2421.83,-72.95 2411.51,-70.54 2412.26,-77.5"/>
</a>
</g>
</g>
<!-- Node10 -->
<g id="Node000010" class="node">
<title>Node10</title>
<g id="a_Node000010"><a xlink:href="aix_8h.html" target="_top" xlink:title=" ">
<polygon fill="white" stroke="#666666" points="2627.5,-74 2532.5,-74 2532.5,-55 2627.5,-55 2627.5,-74"/>
<text text-anchor="middle" x="2580" y="-62" font-family="Helvetica,sans-Serif" font-size="10.00">compat/os/aix.h</text>
</a>
</g>
</g>
<!-- Node5&#45;&gt;Node10 -->
<g id="edge8_Node000005_Node000010" class="edge">
<title>Node5&#45;&gt;Node10</title>
<g id="a_edge8_Node000005_Node000010"><a xlink:title=" ">
<path fill="none" stroke="#63b8ff" d="M1744.13,-117.44C1872.9,-114.4 2221.1,-103.97 2522.21,-73.96"/>
<polygon fill="#63b8ff" stroke="#63b8ff" points="2522.86,-77.42 2532.46,-72.93 2522.16,-70.45 2522.86,-77.42"/>
</a>
</g>
</g>
<!-- Node11 -->
<g id="Node000011" class="node">
<title>Node11</title>
<g id="a_Node000011"><a xlink:href="android_8h.html" target="_top" xlink:title=" ">
<polygon fill="white" stroke="#666666" points="2762,-74 2646,-74 2646,-55 2762,-55 2762,-74"/>
<text text-anchor="middle" x="2704" y="-62" font-family="Helvetica,sans-Serif" font-size="10.00">compat/os/android.h</text>
</a>
</g>
</g>
<!-- Node5&#45;&gt;Node11 -->
<g id="edge9_Node000005_Node000011" class="edge">
<title>Node5&#45;&gt;Node11</title>
<g id="a_edge9_Node000005_Node000011"><a xlink:title=" ">
<path fill="none" stroke="#63b8ff" d="M1744.2,-117.47C1884.75,-114.36 2288.56,-103.41 2635.79,-73.93"/>
<polygon fill="#63b8ff" stroke="#63b8ff" points="2636.13,-77.42 2645.79,-73.08 2635.53,-70.44 2636.13,-77.42"/>
</a>
</g>
</g>
<!-- Node12 -->
<g id="Node000012" class="node">
<title>Node12</title>
<g id="a_Node000012"><a xlink:href="dragonfly_8h.html" target="_top" xlink:title=" ">
<polygon fill="white" stroke="#666666" points="2904,-74 2780,-74 2780,-55 2904,-55 2904,-74"/>
<text text-anchor="middle" x="2842" y="-62" font-family="Helvetica,sans-Serif" font-size="10.00">compat/os/dragonfly.h</text>
</a>
</g>
</g>
<!-- Node5&#45;&gt;Node12 -->
<g id="edge10_Node000005_Node000012" class="edge">
<title>Node5&#45;&gt;Node12</title>
<g id="a_edge10_Node000005_Node000012"><a xlink:title=" ">
<path fill="none" stroke="#63b8ff" d="M1744.15,-117.8C1897.76,-115.41 2368.67,-105.86 2769.64,-74.04"/>
<polygon fill="#63b8ff" stroke="#63b8ff" points="2770,-77.52 2779.69,-73.24 2769.44,-70.55 2770,-77.52"/>
</a>
</g>
</g>
<!-- Node13 -->
<g id="Node000013" class="node">
<title>Node13</title>
<g id="a_Node000013"><a xlink:href="freebsd_8h.html" target="_top" xlink:title=" ">
<polygon fill="white" stroke="#666666" points="3038,-74 2922,-74 2922,-55 3038,-55 3038,-74"/>
<text text-anchor="middle" x="2980" y="-62" font-family="Helvetica,sans-Serif" font-size="10.00">compat/os/freebsd.h</text>
</a>
</g>
</g>
<!-- Node5&#45;&gt;Node13 -->
<g id="edge11_Node000005_Node000013" class="edge">
<title>Node5&#45;&gt;Node13</title>
<g id="a_edge11_Node000005_Node000013"><a xlink:title=" ">
<path fill="none" stroke="#63b8ff" d="M1744.24,-118.27C1910.91,-117.19 2452.92,-110.94 2911.79,-74.01"/>
<polygon fill="#63b8ff" stroke="#63b8ff" points="2912.24,-77.49 2921.93,-73.19 2911.68,-70.51 2912.24,-77.49"/>
</a>
</g>
</g>
<!-- Node14 -->
<g id="Node000014" class="node">
<title>Node14</title>
<g id="a_Node000014"><a xlink:href="hpux_8h.html" target="_top" xlink:title=" ">
<polygon fill="white" stroke="#666666" points="3160,-74 3056,-74 3056,-55 3160,-55 3160,-74"/>
<text text-anchor="middle" x="3108" y="-62" font-family="Helvetica,sans-Serif" font-size="10.00">compat/os/hpux.h</text>
</a>
</g>
</g>
<!-- Node5&#45;&gt;Node14 -->
<g id="edge12_Node000005_Node000014" class="edge">
<title>Node5&#45;&gt;Node14</title>
<g id="a_edge12_Node000005_Node000014"><a xlink:title=" ">
<path fill="none" stroke="#63b8ff" d="M1744.14,-118.76C1922.28,-119.26 2532.14,-117.53 3045.59,-74.02"/>
<polygon fill="#63b8ff" stroke="#63b8ff" points="3046.13,-77.48 3055.8,-73.14 3045.54,-70.51 3046.13,-77.48"/>
</a>
</g>
</g>
<!-- Node15 -->
<g id="Node000015" class="node">
<title>Node15</title>
<g id="a_Node000015"><a xlink:href="linux_8h.html" target="_top" xlink:title=" ">
<polygon fill="white" stroke="#666666" points="104,-74 0,-74 0,-55 104,-55 104,-74"/>
<text text-anchor="middle" x="52" y="-62" font-family="Helvetica,sans-Serif" font-size="10.00">compat/os/linux.h</text>
</a>
</g>
</g>
<!-- Node5&#45;&gt;Node15 -->
<g id="edge13_Node000005_Node000015" class="edge">
<title>Node5&#45;&gt;Node15</title>
<g id="a_edge13_Node000005_Node000015"><a xlink:title=" ">
<path fill="none" stroke="#63b8ff" d="M1641.98,-110.86C1638.95,-110.53 1635.94,-110.24 1633,-110 962.99,-54.8 788.31,-127.96 114.65,-74.02"/>
<polygon fill="#63b8ff" stroke="#63b8ff" points="114.45,-70.49 104.2,-73.18 113.89,-77.47 114.45,-70.49"/>
</a>
</g>
</g>
<!-- Node16 -->
<g id="Node000016" class="node">
<title>Node16</title>
<g id="a_Node000016"><a xlink:href="macosx_8h.html" target="_top" xlink:title=" ">
<polygon fill="white" stroke="#666666" points="240,-74 122,-74 122,-55 240,-55 240,-74"/>
<text text-anchor="middle" x="181" y="-62" font-family="Helvetica,sans-Serif" font-size="10.00">compat/os/macosx.h</text>
</a>
</g>
</g>
<!-- Node5&#45;&gt;Node16 -->
<g id="edge14_Node000005_Node000016" class="edge">
<title>Node5&#45;&gt;Node16</title>
<g id="a_edge14_Node000005_Node000016"><a xlink:title=" ">
<path fill="none" stroke="#63b8ff" d="M1641.98,-110.87C1638.95,-110.54 1635.94,-110.25 1633,-110 1023.11,-59.04 864.28,-119.56 250.29,-74.01"/>
<polygon fill="#63b8ff" stroke="#63b8ff" points="250.54,-70.52 240.3,-73.26 250.01,-77.5 250.54,-70.52"/>
</a>
</g>
</g>
<!-- Node17 -->
<g id="Node000017" class="node">
<title>Node17</title>
<g id="a_Node000017"><a xlink:href="mingw_8h.html" target="_top" xlink:title=" ">
<polygon fill="white" stroke="#666666" points="370,-74 258,-74 258,-55 370,-55 370,-74"/>
<text text-anchor="middle" x="314" y="-62" font-family="Helvetica,sans-Serif" font-size="10.00">compat/os/mingw.h</text>
</a>
</g>
</g>
<!-- Node5&#45;&gt;Node17 -->
<g id="edge15_Node000005_Node000017" class="edge">
<title>Node5&#45;&gt;Node17</title>
<g id="a_edge15_Node000005_Node000017"><a xlink:title=" ">
<path fill="none" stroke="#63b8ff" d="M1641.98,-110.88C1638.95,-110.55 1635.94,-110.25 1633,-110 1080.83,-63.11 936.56,-117.53 380.62,-74.03"/>
<polygon fill="#63b8ff" stroke="#63b8ff" points="380.58,-70.52 370.33,-73.22 380.03,-77.5 380.58,-70.52"/>
</a>
</g>
</g>
<!-- Node18 -->
<g id="Node000018" class="node">
<title>Node18</title>
<g id="a_Node000018"><a xlink:href="mswindows_8h.html" target="_top" xlink:title=" ">
<polygon fill="white" stroke="#666666" points="525.5,-74 388.5,-74 388.5,-55 525.5,-55 525.5,-74"/>
<text text-anchor="middle" x="457" y="-62" font-family="Helvetica,sans-Serif" font-size="10.00">compat/os/mswindows.h</text>
</a>
</g>
</g>
<!-- Node5&#45;&gt;Node18 -->
<g id="edge16_Node000005_Node000018" class="edge">
<title>Node5&#45;&gt;Node18</title>
<g id="a_edge16_Node000005_Node000018"><a xlink:title=" ">
<path fill="none" stroke="#63b8ff" d="M1641.98,-110.89C1638.95,-110.56 1635.93,-110.26 1633,-110 1149.46,-67.95 1023.18,-108.28 535.94,-74.08"/>
<polygon fill="#63b8ff" stroke="#63b8ff" points="536.05,-70.58 525.82,-73.36 535.55,-77.56 536.05,-70.58"/>
</a>
</g>
</g>
<!-- Node19 -->
<g id="Node000019" class="node">
<title>Node19</title>
<g id="a_Node000019"><a xlink:href="netbsd_8h.html" target="_top" xlink:title=" ">
<polygon fill="white" stroke="#666666" points="656.5,-74 543.5,-74 543.5,-55 656.5,-55 656.5,-74"/>
<text text-anchor="middle" x="600" y="-62" font-family="Helvetica,sans-Serif" font-size="10.00">compat/os/netbsd.h</text>
</a>
</g>
</g>
<!-- Node5&#45;&gt;Node19 -->
<g id="edge17_Node000005_Node000019" class="edge">
<title>Node5&#45;&gt;Node19</title>
<g id="a_edge17_Node000005_Node000019"><a xlink:title=" ">
<path fill="none" stroke="#63b8ff" d="M1641.98,-110.91C1638.94,-110.57 1635.93,-110.26 1633,-110 1207.53,-72.05 1095.76,-109.36 666.88,-74.07"/>
<polygon fill="#63b8ff" stroke="#63b8ff" points="666.94,-70.57 656.69,-73.23 666.36,-77.54 666.94,-70.57"/>
</a>
</g>
</g>
<!-- Node20 -->
<g id="Node000020" class="node">
<title>Node20</title>
<g id="a_Node000020"><a xlink:href="openbsd_8h.html" target="_top" xlink:title=" ">
<polygon fill="white" stroke="#666666" points="795.5,-74 674.5,-74 674.5,-55 795.5,-55 795.5,-74"/>
<text text-anchor="middle" x="735" y="-62" font-family="Helvetica,sans-Serif" font-size="10.00">compat/os/openbsd.h</text>
</a>
</g>
</g>
<!-- Node5&#45;&gt;Node20 -->
<g id="edge18_Node000005_Node000020" class="edge">
<title>Node5&#45;&gt;Node20</title>
<g id="a_edge18_Node000005_Node000020"><a xlink:title=" ">
<path fill="none" stroke="#63b8ff" d="M1641.98,-110.93C1638.94,-110.58 1635.93,-110.27 1633,-110 1269.09,-76.4 1173.25,-104.06 805.67,-74.07"/>
<polygon fill="#63b8ff" stroke="#63b8ff" points="805.81,-70.57 795.55,-73.23 805.23,-77.54 805.81,-70.57"/>
</a>
</g>
</g>
<!-- Node21 -->
<g id="Node000021" class="node">
<title>Node21</title>
<g id="a_Node000021"><a xlink:href="os2_8h.html" target="_top" xlink:title=" ">
<polygon fill="white" stroke="#666666" points="910.5,-74 813.5,-74 813.5,-55 910.5,-55 910.5,-74"/>
<text text-anchor="middle" x="862" y="-62" font-family="Helvetica,sans-Serif" font-size="10.00">compat/os/os2.h</text>
</a>
</g>
</g>
<!-- Node5&#45;&gt;Node21 -->
<g id="edge19_Node000005_Node000021" class="edge">
<title>Node5&#45;&gt;Node21</title>
<g id="a_edge19_Node000005_Node000021"><a xlink:title=" ">
<path fill="none" stroke="#63b8ff" d="M1641.97,-110.95C1638.94,-110.6 1635.93,-110.28 1633,-110 1320.55,-80.04 1237.55,-104.5 921.09,-73.99"/>
<polygon fill="#63b8ff" stroke="#63b8ff" points="920.99,-70.47 910.69,-72.98 920.31,-77.43 920.99,-70.47"/>
</a>
</g>
</g>
<!-- Node22 -->
<g id="Node000022" class="node">
<title>Node22</title>
<g id="a_Node000022"><a xlink:href="qnx_8h.html" target="_top" xlink:title=" ">
<polygon fill="white" stroke="#666666" points="1027,-74 929,-74 929,-55 1027,-55 1027,-74"/>
<text text-anchor="middle" x="978" y="-62" font-family="Helvetica,sans-Serif" font-size="10.00">compat/os/qnx.h</text>
</a>
</g>
</g>
<!-- Node5&#45;&gt;Node22 -->
<g id="edge20_Node000005_Node000022" class="edge">
<title>Node5&#45;&gt;Node22</title>
<g id="a_edge20_Node000005_Node000022"><a xlink:title=" ">
<path fill="none" stroke="#63b8ff" d="M1641.97,-110.99C1638.94,-110.63 1635.93,-110.3 1633,-110 1371.88,-83.67 1302.17,-100.85 1037.33,-74.04"/>
<polygon fill="#63b8ff" stroke="#63b8ff" points="1037.32,-70.52 1027.01,-72.98 1036.6,-77.48 1037.32,-70.52"/>
</a>
</g>
</g>
<!-- Node23 -->
<g id="Node000023" class="node">
<title>Node23</title>
<g id="a_Node000023"><a xlink:href="solaris_8h.html" target="_top" xlink:title=" ">
<polygon fill="white" stroke="#666666" points="1157,-74 1045,-74 1045,-55 1157,-55 1157,-74"/>
<text text-anchor="middle" x="1101" y="-62" font-family="Helvetica,sans-Serif" font-size="10.00">compat/os/solaris.h</text>
</a>
</g>
</g>
<!-- Node5&#45;&gt;Node23 -->
<g id="edge21_Node000005_Node000023" class="edge">
<title>Node5&#45;&gt;Node23</title>
<g id="a_edge21_Node000005_Node000023"><a xlink:title=" ">
<path fill="none" stroke="#63b8ff" d="M1641.96,-111.04C1638.93,-110.67 1635.93,-110.32 1633,-110 1429.29,-87.74 1374.75,-95.26 1167.34,-74.08"/>
<polygon fill="#63b8ff" stroke="#63b8ff" points="1167.65,-70.6 1157.35,-73.05 1166.94,-77.56 1167.65,-70.6"/>
</a>
</g>
</g>
<!-- Node24 -->
<g id="Node000024" class="node">
<title>Node24</title>
<g id="a_Node000024"><a xlink:href="sunos_8h.html" target="_top" xlink:title=" ">
<polygon fill="white" stroke="#666666" points="1283,-74 1175,-74 1175,-55 1283,-55 1283,-74"/>
<text text-anchor="middle" x="1229" y="-62" font-family="Helvetica,sans-Serif" font-size="10.00">compat/os/sunos.h</text>
</a>
</g>
</g>
<!-- Node5&#45;&gt;Node24 -->
<g id="edge22_Node000005_Node000024" class="edge">
<title>Node5&#45;&gt;Node24</title>
<g id="a_edge22_Node000005_Node000024"><a xlink:title=" ">
<path fill="none" stroke="#63b8ff" d="M1641.95,-111.14C1638.93,-110.75 1635.92,-110.36 1633,-110 1485,-91.71 1445.01,-92.16 1293.43,-74.14"/>
<polygon fill="#63b8ff" stroke="#63b8ff" points="1293.63,-70.64 1283.28,-72.93 1292.8,-77.59 1293.63,-70.64"/>
</a>
</g>
</g>
<!-- Node25 -->
<g id="Node000025" class="node">
<title>Node25</title>
<g id="a_Node000025"><a xlink:href="assert_8h.html" target="_top" xlink:title=" ">
<polygon fill="white" stroke="#666666" points="1396.5,-74 1301.5,-74 1301.5,-55 1396.5,-55 1396.5,-74"/>
<text text-anchor="middle" x="1349" y="-62" font-family="Helvetica,sans-Serif" font-size="10.00">compat/assert.h</text>
</a>
</g>
</g>
<!-- Node5&#45;&gt;Node25 -->
<g id="edge23_Node000005_Node000025" class="edge">
<title>Node5&#45;&gt;Node25</title>
<g id="a_edge23_Node000005_Node000025"><a xlink:title=" ">
<path fill="none" stroke="#63b8ff" d="M1641.87,-110.62C1578.98,-100.93 1472.49,-84.53 1406.72,-74.39"/>
<polygon fill="#63b8ff" stroke="#63b8ff" points="1406.94,-70.89 1396.53,-72.82 1405.88,-77.8 1406.94,-70.89"/>
</a>
</g>
</g>
<!-- Node26 -->
<g id="Node000026" class="node">
<title>Node26</title>
<g id="a_Node000026"><a xlink:href="compat__shared_8h.html" target="_top" xlink:title=" ">
<polygon fill="#fff0f0" stroke="red" points="1555,-74 1415,-74 1415,-55 1555,-55 1555,-74"/>
<text text-anchor="middle" x="1485" y="-62" font-family="Helvetica,sans-Serif" font-size="10.00">compat/compat_shared.h</text>
</a>
</g>
</g>
<!-- Node5&#45;&gt;Node26 -->
<g id="edge24_Node000005_Node000026" class="edge">
<title>Node5&#45;&gt;Node26</title>
<g id="a_edge24_Node000005_Node000026"><a xlink:title=" ">
<path fill="none" stroke="#63b8ff" d="M1659.58,-109.98C1624.06,-100.93 1567.73,-86.58 1528.7,-76.64"/>
<polygon fill="#63b8ff" stroke="#63b8ff" points="1529.24,-73.16 1518.68,-74.08 1527.51,-79.94 1529.24,-73.16"/>
</a>
</g>
</g>
<!-- Node36 -->
<g id="Node000036" class="node">
<title>Node36</title>
<g id="a_Node000036"><a xlink:href="stdvarargs_8h.html" target="_top" xlink:title=" ">
<polygon fill="#fff0f0" stroke="red" points="1690.5,-74 1573.5,-74 1573.5,-55 1690.5,-55 1690.5,-74"/>
<text text-anchor="middle" x="1632" y="-62" font-family="Helvetica,sans-Serif" font-size="10.00">compat/stdvarargs.h</text>
</a>
</g>
</g>
<!-- Node5&#45;&gt;Node36 -->
<g id="edge25_Node000005_Node000036" class="edge">
<title>Node5&#45;&gt;Node36</title>
<g id="a_edge25_Node000005_Node000036"><a xlink:title=" ">
<path fill="none" stroke="#63b8ff" d="M1683.2,-109.98C1674.18,-102.15 1660.59,-90.34 1649.68,-80.86"/>
<polygon fill="#63b8ff" stroke="#63b8ff" points="1651.82,-78.09 1641.98,-74.17 1647.23,-83.37 1651.82,-78.09"/>
</a>
</g>
</g>
<!-- Node38 -->
<g id="Node000038" class="node">
<title>Node38</title>
<g id="a_Node000038"><a xlink:href="stdio_8h.html" target="_top" xlink:title=" ">
<polygon fill="#fff0f0" stroke="red" points="1797.5,-74 1708.5,-74 1708.5,-55 1797.5,-55 1797.5,-74"/>
<text text-anchor="middle" x="1753" y="-62" font-family="Helvetica,sans-Serif" font-size="10.00">compat/stdio.h</text>
</a>
</g>
</g>
<!-- Node5&#45;&gt;Node38 -->
<g id="edge26_Node000005_Node000038" class="edge">
<title>Node5&#45;&gt;Node38</title>
<g id="a_edge26_Node000005_Node000038"><a xlink:title=" ">
<path fill="none" stroke="#63b8ff" d="M1702.64,-109.98C1711.51,-102.15 1724.87,-90.34 1735.61,-80.86"/>
<polygon fill="#63b8ff" stroke="#63b8ff" points="1738.01,-83.41 1743.18,-74.17 1733.37,-78.17 1738.01,-83.41"/>
</a>
</g>
</g>
<!-- Node40 -->
<g id="Node000040" class="node">
<title>Node40</title>
<g id="a_Node000040"><a xlink:href="statvfs_8h.html" target="_top" xlink:title=" ">
<polygon fill="white" stroke="#666666" points="1914.5,-74 1815.5,-74 1815.5,-55 1914.5,-55 1914.5,-74"/>
<text text-anchor="middle" x="1865" y="-62" font-family="Helvetica,sans-Serif" font-size="10.00">compat/statvfs.h</text>
</a>
</g>
</g>
<!-- Node5&#45;&gt;Node40 -->
<g id="edge27_Node000005_Node000040" class="edge">
<title>Node5&#45;&gt;Node40</title>
<g id="a_edge27_Node000005_Node000040"><a xlink:title=" ">
<path fill="none" stroke="#63b8ff" d="M1720.63,-109.98C1749.51,-101.09 1795.01,-87.07 1827.2,-77.15"/>
<polygon fill="#63b8ff" stroke="#63b8ff" points="1828.62,-80.37 1837.15,-74.08 1826.56,-73.68 1828.62,-80.37"/>
</a>
</g>
</g>
<!-- Node41 -->
<g id="Node000041" class="node">
<title>Node41</title>
<g id="a_Node000041"><a xlink:href="debug_8h.html" target="_top" xlink:title=" ">
<polygon fill="white" stroke="#666666" points="2027.5,-74 1932.5,-74 1932.5,-55 2027.5,-55 2027.5,-74"/>
<text text-anchor="middle" x="1980" y="-62" font-family="Helvetica,sans-Serif" font-size="10.00">compat/debug.h</text>
</a>
</g>
</g>
<!-- Node5&#45;&gt;Node41 -->
<g id="edge28_Node000005_Node000041" class="edge">
<title>Node5&#45;&gt;Node41</title>
<g id="a_edge28_Node000005_Node000041"><a xlink:title=" ">
<path fill="none" stroke="#63b8ff" d="M1739.11,-109.98C1789.28,-100.72 1869.51,-85.9 1923.44,-75.94"/>
<polygon fill="#63b8ff" stroke="#63b8ff" points="1924.33,-79.34 1933.53,-74.08 1923.06,-72.46 1924.33,-79.34"/>
</a>
</g>
</g>
<!-- Node42 -->
<g id="Node000042" class="node">
<title>Node42</title>
<g id="a_Node000042"><a xlink:href="valgrind_8h.html" target="_top" xlink:title=" ">
<polygon fill="#fff0f0" stroke="red" points="2150.5,-74 2045.5,-74 2045.5,-55 2150.5,-55 2150.5,-74"/>
<text text-anchor="middle" x="2098" y="-62" font-family="Helvetica,sans-Serif" font-size="10.00">compat/valgrind.h</text>
</a>
</g>
</g>
<!-- Node5&#45;&gt;Node42 -->
<g id="edge29_Node000005_Node000042" class="edge">
<title>Node5&#45;&gt;Node42</title>
<g id="a_edge29_Node000005_Node000042"><a xlink:title=" ">
<path fill="none" stroke="#63b8ff" d="M1744.15,-111.98C1809.23,-103.66 1925.38,-88.72 2035.3,-74.08"/>
<polygon fill="#63b8ff" stroke="#63b8ff" points="2035.79,-77.55 2045.24,-72.76 2034.86,-70.61 2035.79,-77.55"/>
</a>
</g>
</g>
<!-- Node45 -->
<g id="Node000045" class="node">
<title>Node45</title>
<g id="a_Node000045"><a xlink:href="StoreFileSystem_8h.html" target="_top" xlink:title=" ">
<polygon fill="white" stroke="#666666" points="3360.5,-129 3255.5,-129 3255.5,-110 3360.5,-110 3360.5,-129"/>
<text text-anchor="middle" x="3308" y="-117" font-family="Helvetica,sans-Serif" font-size="10.00">StoreFileSystem.h</text>
</a>
</g>
</g>
<!-- Node44&#45;&gt;Node45 -->
<g id="edge31_Node000044_Node000045" class="edge">
<title>Node44&#45;&gt;Node45</title>
<g id="a_edge31_Node000044_Node000045"><a xlink:title=" ">
<path fill="none" stroke="#63b8ff" d="M3308,-164.75C3308,-157.8 3308,-147.85 3308,-139.13"/>
<polygon fill="#63b8ff" stroke="#63b8ff" points="3311.5,-139.09 3308,-129.09 3304.5,-139.09 3311.5,-139.09"/>
</a>
</g>
</g>
<!-- Node46 -->
<g id="Node000046" class="node">
<title>Node46</title>
<g id="a_Node000046"><a xlink:href="TypeTraits_8h.html" target="_top" xlink:title=" ">
<polygon fill="#fff0f0" stroke="red" points="3279.5,-74 3178.5,-74 3178.5,-55 3279.5,-55 3279.5,-74"/>
<text text-anchor="middle" x="3229" y="-62" font-family="Helvetica,sans-Serif" font-size="10.00">base/TypeTraits.h</text>
</a>
</g>
</g>
<!-- Node45&#45;&gt;Node46 -->
<g id="edge32_Node000045_Node000046" class="edge">
<title>Node45&#45;&gt;Node46</title>
<g id="a_edge32_Node000045_Node000046"><a xlink:title=" ">
<path fill="none" stroke="#63b8ff" d="M3295.31,-109.98C3283.17,-101.84 3264.64,-89.41 3250.25,-79.76"/>
<polygon fill="#63b8ff" stroke="#63b8ff" points="3252.18,-76.84 3241.92,-74.17 3248.28,-82.65 3252.18,-76.84"/>
</a>
</g>
</g>
<!-- Node48 -->
<g id="Node000048" class="node">
<title>Node48</title>
<g id="a_Node000048"><a xlink:href="store_2forward_8h.html" target="_top" xlink:title=" ">
<polygon fill="white" stroke="#666666" points="3684.5,-19 3593.5,-19 3593.5,0 3684.5,0 3684.5,-19"/>
<text text-anchor="middle" x="3639" y="-7" font-family="Helvetica,sans-Serif" font-size="10.00">store/forward.h</text>
</a>
</g>
</g>
<!-- Node45&#45;&gt;Node48 -->
<g id="edge33_Node000045_Node000048" class="edge">
<title>Node45&#45;&gt;Node48</title>
<g id="a_edge33_Node000045_Node000048"><a xlink:title=" ">
<path fill="none" stroke="#63b8ff" d="M3307.85,-109.99C3308.1,-96.16 3310.78,-68.97 3327,-55 3364.35,-22.84 3503.65,-13.91 3582.91,-11.44"/>
<polygon fill="#63b8ff" stroke="#63b8ff" points="3583.31,-14.93 3593.21,-11.14 3583.11,-7.93 3583.31,-14.93"/>
</a>
</g>
</g>
<!-- Node49 -->
<g id="Node000049" class="node">
<title>Node49</title>
<g id="a_Node000049"><a xlink:title=" ">
<polygon fill="#e0e0e0" stroke="#999999" points="3383.5,-74 3336.5,-74 3336.5,-55 3383.5,-55 3383.5,-74"/>
<text text-anchor="middle" x="3360" y="-62" font-family="Helvetica,sans-Serif" font-size="10.00">vector</text>
</a>
</g>
</g>
<!-- Node45&#45;&gt;Node49 -->
<g id="edge34_Node000045_Node000049" class="edge">
<title>Node45&#45;&gt;Node49</title>
<g id="a_edge34_Node000045_Node000049"><a xlink:title=" ">
<path fill="none" stroke="#63b8ff" d="M3316.59,-109.75C3324.16,-102.03 3335.38,-90.6 3344.51,-81.28"/>
<polygon fill="#63b8ff" stroke="#63b8ff" points="3347.07,-83.68 3351.57,-74.09 3342.07,-78.78 3347.07,-83.68"/>
</a>
</g>
</g>
<!-- Node50&#45;&gt;Node49 -->
<g id="edge57_Node000050_Node000049" class="edge">
<title>Node50&#45;&gt;Node49</title>
<g id="a_edge57_Node000050_Node000049"><a xlink:title=" ">
<path fill="none" stroke="#63b8ff" d="M3839.41,-167.48C3774.38,-160.61 3669.89,-147.83 3581,-129 3513.39,-114.68 3436.16,-90.69 3393.23,-76.65"/>
<polygon fill="#63b8ff" stroke="#63b8ff" points="3394.19,-73.28 3383.59,-73.48 3392,-79.93 3394.19,-73.28"/>
</a>
</g>
</g>
<!-- Node51 -->
<g id="Node000051" class="node">
<title>Node51</title>
<g id="a_Node000051"><a xlink:href="DiskFile_8h.html" target="_top" xlink:title=" ">
<polygon fill="white" stroke="#666666" points="4123,-129 4023,-129 4023,-110 4123,-110 4123,-129"/>
<text text-anchor="middle" x="4073" y="-117" font-family="Helvetica,sans-Serif" font-size="10.00">DiskIO/DiskFile.h</text>
</a>
</g>
</g>
<!-- Node50&#45;&gt;Node51 -->
<g id="edge36_Node000050_Node000051" class="edge">
<title>Node50&#45;&gt;Node51</title>
<g id="a_edge36_Node000050_Node000051"><a xlink:title=" ">
<path fill="none" stroke="#63b8ff" d="M3929.47,-164.98C3958.18,-156.09 4003.42,-142.07 4035.42,-132.15"/>
<polygon fill="#63b8ff" stroke="#63b8ff" points="4036.8,-135.39 4045.31,-129.08 4034.72,-128.7 4036.8,-135.39"/>
</a>
</g>
</g>
<!-- Node59 -->
<g id="Node000059" class="node">
<title>Node59</title>
<g id="a_Node000059"><a xlink:href="IORequestor_8h.html" target="_top" xlink:title=" ">
<polygon fill="white" stroke="#666666" points="4608,-129 4488,-129 4488,-110 4608,-110 4608,-129"/>
<text text-anchor="middle" x="4548" y="-117" font-family="Helvetica,sans-Serif" font-size="10.00">DiskIO/IORequestor.h</text>
</a>
</g>
</g>
<!-- Node50&#45;&gt;Node59 -->
<g id="edge39_Node000050_Node000059" class="edge">
<title>Node50&#45;&gt;Node59</title>
<g id="a_edge39_Node000050_Node000059"><a xlink:title=" ">
<path fill="none" stroke="#63b8ff" d="M3964.52,-169.66C4068.83,-163.05 4285.19,-148.41 4477.92,-129.17"/>
<polygon fill="#63b8ff" stroke="#63b8ff" points="4478.35,-132.65 4487.95,-128.16 4477.65,-125.68 4478.35,-132.65"/>
</a>
</g>
</g>
<!-- Node60 -->
<g id="Node000060" class="node">
<title>Node60</title>
<g id="a_Node000060"><a xlink:href="fs_2rock_2forward_8h.html" target="_top" xlink:title=" ">
<polygon fill="white" stroke="#666666" points="3500.5,-74 3401.5,-74 3401.5,-55 3500.5,-55 3500.5,-74"/>
<text text-anchor="middle" x="3451" y="-62" font-family="Helvetica,sans-Serif" font-size="10.00">fs/rock/forward.h</text>
</a>
</g>
</g>
<!-- Node50&#45;&gt;Node60 -->
<g id="edge41_Node000050_Node000060" class="edge">
<title>Node50&#45;&gt;Node60</title>
<g id="a_edge41_Node000050_Node000060"><a xlink:title=" ">
<path fill="none" stroke="#63b8ff" d="M3840.92,-164.98C3789.8,-157.3 3715.14,-144.79 3651,-129 3591.29,-114.3 3523.36,-91.37 3484.02,-77.46"/>
<polygon fill="#63b8ff" stroke="#63b8ff" points="3485.01,-74.1 3474.42,-74.05 3482.67,-80.7 3485.01,-74.1"/>
</a>
</g>
</g>
<!-- Node61 -->
<g id="Node000061" class="node">
<title>Node61</title>
<g id="a_Node000061"><a xlink:href="RockDbCell_8h.html" target="_top" xlink:title=" ">
<polygon fill="white" stroke="#666666" points="4005,-129 3887,-129 3887,-110 4005,-110 4005,-129"/>
<text text-anchor="middle" x="3946" y="-117" font-family="Helvetica,sans-Serif" font-size="10.00">fs/rock/RockDbCell.h</text>
</a>
</g>
</g>
<!-- Node50&#45;&gt;Node61 -->
<g id="edge43_Node000050_Node000061" class="edge">
<title>Node50&#45;&gt;Node61</title>
<g id="a_edge43_Node000050_Node000061"><a xlink:title=" ">
<path fill="none" stroke="#63b8ff" d="M3909.27,-164.75C3915.54,-157.18 3924.79,-146.05 3932.43,-136.84"/>
<polygon fill="#63b8ff" stroke="#63b8ff" points="3935.17,-139.02 3938.87,-129.09 3929.79,-134.55 3935.17,-139.02"/>
</a>
</g>
</g>
<!-- Node62 -->
<g id="Node000062" class="node">
<title>Node62</title>
<g id="a_Node000062"><a xlink:href="RockRebuild_8h.html" target="_top" xlink:title=" ">
<polygon fill="#fff0f0" stroke="red" points="3782,-129 3660,-129 3660,-110 3782,-110 3782,-129"/>
<text text-anchor="middle" x="3721" y="-117" font-family="Helvetica,sans-Serif" font-size="10.00">fs/rock/RockRebuild.h</text>
</a>
</g>
</g>
<!-- Node50&#45;&gt;Node62 -->
<g id="edge45_Node000050_Node000062" class="edge">
<title>Node50&#45;&gt;Node62</title>
<g id="a_edge45_Node000050_Node000062"><a xlink:title=" ">
<path fill="none" stroke="#63b8ff" d="M3872.92,-164.98C3842.4,-156.05 3794.24,-141.94 3760.34,-132.02"/>
<polygon fill="#63b8ff" stroke="#63b8ff" points="3760.89,-128.53 3750.31,-129.08 3758.92,-135.25 3760.89,-128.53"/>
</a>
</g>
</g>
<!-- Node91 -->
<g id="Node000091" class="node">
<title>Node91</title>
<g id="a_Node000091"><a xlink:href="StoreMap_8h.html" target="_top" xlink:title=" ">
<polygon fill="#fff0f0" stroke="red" points="3871.5,-74 3782.5,-74 3782.5,-55 3871.5,-55 3871.5,-74"/>
<text text-anchor="middle" x="3827" y="-62" font-family="Helvetica,sans-Serif" font-size="10.00">ipc/StoreMap.h</text>
</a>
</g>
</g>
<!-- Node50&#45;&gt;Node91 -->
<g id="edge54_Node000050_Node000091" class="edge">
<title>Node50&#45;&gt;Node91</title>
<g id="a_edge54_Node000050_Node000091"><a xlink:title=" ">
<path fill="none" stroke="#63b8ff" d="M3896.05,-164.97C3889.81,-156.02 3879.7,-141.53 3871,-129 3860.04,-113.22 3847.57,-95.22 3838.71,-82.42"/>
<polygon fill="#63b8ff" stroke="#63b8ff" points="3841.54,-80.36 3832.97,-74.13 3835.78,-84.35 3841.54,-80.36"/>
</a>
</g>
</g>
<!-- Node114 -->
<g id="Node000114" class="node">
<title>Node114</title>
<g id="a_Node000114"><a xlink:href="store__rebuild_8h.html" target="_top" xlink:title=" ">
<polygon fill="#fff0f0" stroke="red" points="3978.5,-74 3889.5,-74 3889.5,-55 3978.5,-55 3978.5,-74"/>
<text text-anchor="middle" x="3934" y="-62" font-family="Helvetica,sans-Serif" font-size="10.00">store_rebuild.h</text>
</a>
</g>
</g>
<!-- Node50&#45;&gt;Node114 -->
<g id="edge56_Node000050_Node000114" class="edge">
<title>Node50&#45;&gt;Node114</title>
<g id="a_edge56_Node000050_Node000114"><a xlink:title=" ">
<path fill="none" stroke="#63b8ff" d="M3894.13,-164.67C3884.05,-152.21 3868.88,-128.89 3878,-110 3884.22,-97.12 3896.18,-86.82 3907.46,-79.38"/>
<polygon fill="#63b8ff" stroke="#63b8ff" points="3909.51,-82.23 3916.23,-74.04 3905.87,-76.25 3909.51,-82.23"/>
</a>
</g>
</g>
<!-- Node115 -->
<g id="Node000115" class="node">
<title>Node115</title>
<g id="a_Node000115"><a xlink:href="Page_8h.html" target="_top" xlink:title=" ">
<polygon fill="#fff0f0" stroke="red" points="4236.5,-129 4141.5,-129 4141.5,-110 4236.5,-110 4236.5,-129"/>
<text text-anchor="middle" x="4189" y="-117" font-family="Helvetica,sans-Serif" font-size="10.00">ipc/mem/Page.h</text>
</a>
</g>
</g>
<!-- Node50&#45;&gt;Node115 -->
<g id="edge52_Node000050_Node000115" class="edge">
<title>Node50&#45;&gt;Node115</title>
<g id="a_edge52_Node000050_Node000115"><a xlink:title=" ">
<path fill="none" stroke="#63b8ff" d="M3948.11,-164.98C3998.28,-155.72 4078.51,-140.9 4132.44,-130.94"/>
<polygon fill="#63b8ff" stroke="#63b8ff" points="4133.33,-134.34 4142.53,-129.08 4132.06,-127.46 4133.33,-134.34"/>
</a>
</g>
</g>
<!-- Node117 -->
<g id="Node000117" class="node">
<title>Node117</title>
<g id="a_Node000117"><a xlink:href="PageStack_8h.html" target="_top" xlink:title=" ">
<polygon fill="#fff0f0" stroke="red" points="4377,-129 4255,-129 4255,-110 4377,-110 4377,-129"/>
<text text-anchor="middle" x="4316" y="-117" font-family="Helvetica,sans-Serif" font-size="10.00">ipc/mem/PageStack.h</text>
</a>
</g>
</g>
<!-- Node50&#45;&gt;Node117 -->
<g id="edge53_Node000050_Node000117" class="edge">
<title>Node50&#45;&gt;Node117</title>
<g id="a_edge53_Node000050_Node000117"><a xlink:title=" ">
<path fill="none" stroke="#63b8ff" d="M3964.88,-165.45C4040.11,-155.82 4165.75,-139.74 4244.57,-129.64"/>
<polygon fill="#63b8ff" stroke="#63b8ff" points="4245.42,-133.06 4254.9,-128.32 4244.53,-126.12 4245.42,-133.06"/>
</a>
</g>
</g>
<!-- Node119 -->
<g id="Node000119" class="node">
<title>Node119</title>
<g id="a_Node000119"><a xlink:href="Disk_8h.html" target="_top" xlink:title=" ">
<polygon fill="#fff0f0" stroke="red" points="4470.5,-129 4395.5,-129 4395.5,-110 4470.5,-110 4470.5,-129"/>
<text text-anchor="middle" x="4433" y="-117" font-family="Helvetica,sans-Serif" font-size="10.00">store/Disk.h</text>
</a>
</g>
</g>
<!-- Node50&#45;&gt;Node119 -->
<g id="edge55_Node000050_Node000119" class="edge">
<title>Node50&#45;&gt;Node119</title>
<g id="a_edge55_Node000050_Node000119"><a xlink:title=" ">
<path fill="none" stroke="#63b8ff" d="M3964.85,-169.48C4055.37,-163.3 4227.89,-150.07 4385.01,-129.01"/>
<polygon fill="#63b8ff" stroke="#63b8ff" points="4385.9,-132.42 4395.34,-127.61 4384.96,-125.48 4385.9,-132.42"/>
</a>
</g>
</g>
<!-- Node52 -->
<g id="Node000052" class="node">
<title>Node52</title>
<g id="a_Node000052"><a xlink:href="RefCount_8h.html" target="_top" xlink:title=" ">
<polygon fill="#fff0f0" stroke="red" points="4421.5,-74 4324.5,-74 4324.5,-55 4421.5,-55 4421.5,-74"/>
<text text-anchor="middle" x="4373" y="-62" font-family="Helvetica,sans-Serif" font-size="10.00">base/RefCount.h</text>
</a>
</g>
</g>
<!-- Node51&#45;&gt;Node52 -->
<g id="edge37_Node000051_Node000052" class="edge">
<title>Node51&#45;&gt;Node52</title>
<g id="a_edge37_Node000051_Node000052"><a xlink:title=" ">
<path fill="none" stroke="#63b8ff" d="M4121.2,-109.98C4173.75,-100.7 4257.85,-85.84 4314.23,-75.88"/>
<polygon fill="#63b8ff" stroke="#63b8ff" points="4315.18,-79.27 4324.42,-74.08 4313.97,-72.38 4315.18,-79.27"/>
</a>
</g>
</g>
<!-- Node56 -->
<g id="Node000056" class="node">
<title>Node56</title>
<g id="a_Node000056"><a xlink:href="time_2gadgets_8h.html" target="_top" xlink:title=" ">
<polygon fill="#fff0f0" stroke="red" points="4125,-74 4035,-74 4035,-55 4125,-55 4125,-74"/>
<text text-anchor="middle" x="4080" y="-62" font-family="Helvetica,sans-Serif" font-size="10.00">time/gadgets.h</text>
</a>
</g>
</g>
<!-- Node51&#45;&gt;Node56 -->
<g id="edge38_Node000051_Node000056" class="edge">
<title>Node51&#45;&gt;Node56</title>
<g id="a_edge38_Node000051_Node000056"><a xlink:title=" ">
<path fill="none" stroke="#63b8ff" d="M4074.16,-109.75C4075.07,-102.8 4076.39,-92.85 4077.54,-84.13"/>
<polygon fill="#63b8ff" stroke="#63b8ff" points="4081.03,-84.46 4078.87,-74.09 4074.09,-83.54 4081.03,-84.46"/>
</a>
</g>
</g>
<!-- Node59&#45;&gt;Node52 -->
<g id="edge40_Node000059_Node000052" class="edge">
<title>Node59&#45;&gt;Node52</title>
<g id="a_edge40_Node000059_Node000052"><a xlink:title=" ">
<path fill="none" stroke="#63b8ff" d="M4519.88,-109.98C4490.38,-101.05 4443.81,-86.94 4411.03,-77.02"/>
<polygon fill="#63b8ff" stroke="#63b8ff" points="4411.92,-73.63 4401.34,-74.08 4409.89,-80.33 4411.92,-73.63"/>
</a>
</g>
</g>
<!-- Node60&#45;&gt;Node48 -->
<g id="edge42_Node000060_Node000048" class="edge">
<title>Node60&#45;&gt;Node48</title>
<g id="a_edge42_Node000060_Node000048"><a xlink:title=" ">
<path fill="none" stroke="#63b8ff" d="M3481.21,-54.98C3513.04,-46.01 3563.36,-31.82 3598.6,-21.89"/>
<polygon fill="#63b8ff" stroke="#63b8ff" points="3599.88,-25.16 3608.56,-19.08 3597.98,-18.43 3599.88,-25.16"/>
</a>
</g>
</g>
<!-- Node61&#45;&gt;Node48 -->
<g id="edge44_Node000061_Node000048" class="edge">
<title>Node61&#45;&gt;Node48</title>
<g id="a_edge44_Node000061_Node000048"><a xlink:title=" ">
<path fill="none" stroke="#63b8ff" d="M3958.77,-109.97C3976.27,-97.26 4003.81,-72.95 3988,-55 3968.96,-33.38 3788.41,-19.45 3694.76,-13.63"/>
<polygon fill="#63b8ff" stroke="#63b8ff" points="3694.81,-10.12 3684.61,-13.01 3694.38,-17.11 3694.81,-10.12"/>
</a>
</g>
</g>
<!-- Node62&#45;&gt;Node60 -->
<g id="edge48_Node000062_Node000060" class="edge">
<title>Node62&#45;&gt;Node60</title>
<g id="a_edge48_Node000062_Node000060"><a xlink:title=" ">
<path fill="none" stroke="#63b8ff" d="M3677.62,-109.98C3630.62,-100.76 3555.57,-86.03 3504.84,-76.07"/>
<polygon fill="#63b8ff" stroke="#63b8ff" points="3505.21,-72.57 3494.72,-74.08 3503.86,-79.44 3505.21,-72.57"/>
</a>
</g>
</g>
<!-- Node63 -->
<g id="Node000063" class="node">
<title>Node63</title>
<g id="a_Node000063"><a xlink:href="AsyncJob_8h.html" target="_top" xlink:title=" ">
<polygon fill="#fff0f0" stroke="red" points="3764,-74 3668,-74 3668,-55 3764,-55 3764,-74"/>
<text text-anchor="middle" x="3716" y="-62" font-family="Helvetica,sans-Serif" font-size="10.00">base/AsyncJob.h</text>
</a>
</g>
</g>
<!-- Node62&#45;&gt;Node63 -->
<g id="edge46_Node000062_Node000063" class="edge">
<title>Node62&#45;&gt;Node63</title>
<g id="a_edge46_Node000062_Node000063"><a xlink:title=" ">
<path fill="none" stroke="#63b8ff" d="M3720.17,-109.75C3719.52,-102.8 3718.58,-92.85 3717.76,-84.13"/>
<polygon fill="#63b8ff" stroke="#63b8ff" points="3721.23,-83.72 3716.81,-74.09 3714.27,-84.37 3721.23,-83.72"/>
</a>
</g>
</g>
<!-- Node76 -->
<g id="Node000076" class="node">
<title>Node76</title>
<g id="a_Node000076"><a xlink:href="RunnersRegistry_8h.html" target="_top" xlink:title=" ">
<polygon fill="white" stroke="#666666" points="3649.5,-74 3518.5,-74 3518.5,-55 3649.5,-55 3649.5,-74"/>
<text text-anchor="middle" x="3584" y="-62" font-family="Helvetica,sans-Serif" font-size="10.00">base/RunnersRegistry.h</text>
</a>
</g>
</g>
<!-- Node62&#45;&gt;Node76 -->
<g id="edge47_Node000062_Node000076" class="edge">
<title>Node62&#45;&gt;Node76</title>
<g id="a_edge47_Node000062_Node000076"><a xlink:title=" ">
<path fill="none" stroke="#63b8ff" d="M3698.99,-109.98C3676.55,-101.3 3641.52,-87.75 3616.01,-77.88"/>
<polygon fill="#63b8ff" stroke="#63b8ff" points="3617,-74.51 3606.41,-74.17 3614.48,-81.04 3617,-74.51"/>
</a>
</g>
</g>
<!-- Node62&#45;&gt;Node91 -->
<g id="edge49_Node000062_Node000091" class="edge">
<title>Node62&#45;&gt;Node91</title>
<g id="a_edge49_Node000062_Node000091"><a xlink:title=" ">
<path fill="none" stroke="#63b8ff" d="M3738.03,-109.98C3754.93,-101.54 3781.06,-88.47 3800.64,-78.68"/>
<polygon fill="#63b8ff" stroke="#63b8ff" points="3802.28,-81.77 3809.66,-74.17 3799.15,-75.51 3802.28,-81.77"/>
</a>
</g>
</g>
<!-- Node62&#45;&gt;Node114 -->
<g id="edge51_Node000062_Node000114" class="edge">
<title>Node62&#45;&gt;Node114</title>
<g id="a_edge51_Node000062_Node000114"><a xlink:title=" ">
<path fill="none" stroke="#63b8ff" d="M3755.22,-109.98C3791.76,-100.89 3849.78,-86.46 3889.76,-76.51"/>
<polygon fill="#63b8ff" stroke="#63b8ff" points="3890.65,-79.89 3899.51,-74.08 3888.96,-73.1 3890.65,-79.89"/>
</a>
</g>
</g>
<!-- Node91&#45;&gt;Node48 -->
<g id="edge50_Node000091_Node000048" class="edge">
<title>Node91&#45;&gt;Node48</title>
<g id="a_edge50_Node000091_Node000048"><a xlink:title=" ">
<path fill="none" stroke="#63b8ff" d="M3796.79,-54.98C3764.96,-46.01 3714.64,-31.82 3679.4,-21.89"/>
<polygon fill="#63b8ff" stroke="#63b8ff" points="3680.02,-18.43 3669.44,-19.08 3678.12,-25.16 3680.02,-18.43"/>
</a>
</g>
</g>
</g>
</svg>
