<?xml version="1.0" encoding="UTF-8" standalone="no"?>
<!DOCTYPE svg PUBLIC "-//W3C//DTD SVG 1.1//EN"
 "http://www.w3.org/Graphics/SVG/1.1/DTD/svg11.dtd">
<!-- Generated by graphviz version 2.43.0 (0)
 -->
<!-- Title: squid/src/fs/rock/RockSwapDir.h Pages: 1 -->
<!--zoomable 236 -->

<svg id="main" version="1.1" xmlns="http://www.w3.org/2000/svg" xmlns:xlink="http://www.w3.org/1999/xlink" xml:space="preserve" onload="init(evt)">
<style type="text/css"><![CDATA[
.node, .edge {opacity: 0.7;}
.node.selected, .edge.selected {opacity: 1;}
.edge:hover path { stroke: red; }
.edge:hover polygon { stroke: red; fill: red; }
]]></style>

<defs>
  <circle id="rim" cx="0" cy="0" r="7"/>
  <circle id="rim2" cx="0" cy="0" r="3.5"/>
  <g id="zoomPlus">
    <use xlink:href="#rim" fill="#404040"><set attributeName="fill" to="#808080" begin="zoomplus.mouseover" end="zoomplus.mouseout"/></use>
    <path d="M-4,0h8M0,-4v8" fill="none" stroke="white" stroke-width="1.5" pointer-events="none"/>
  </g>
  <g id="zoomMin">
    <use xlink:href="#rim" fill="#404040"><set attributeName="fill" to="#808080" begin="zoomminus.mouseover" end="zoomminus.mouseout"/></use>
    <path d="M-4,0h8" fill="none" stroke="white" stroke-width="1.5" pointer-events="none"/>
  </g>
  <g id="arrowUp" transform="translate(30 24)">
    <use xlink:href="#rim"/>
    <path pointer-events="none" fill="none" stroke="white" stroke-width="1.5" d="M0,-3.0v7 M-2.5,-0.5L0,-3.0L2.5,-0.5"/>
  </g>
  <g id="arrowRight" transform="rotate(90) translate(36 -43)">
    <use xlink:href="#rim"/>
    <path pointer-events="none" fill="none" stroke="white" stroke-width="1.5" d="M0,-3.0v7 M-2.5,-0.5L0,-3.0L2.5,-0.5"/>
  </g>
  <g id="arrowDown" transform="rotate(180) translate(-30 -48)">
    <use xlink:href="#rim"/>
    <path pointer-events="none" fill="none" stroke="white" stroke-width="1.5" d="M0,-3.0v7 M-2.5,-0.5L0,-3.0L2.5,-0.5"/>
  </g>
  <g id="arrowLeft" transform="rotate(270) translate(-36 17)">
    <use xlink:href="#rim"/>
    <path pointer-events="none" fill="none" stroke="white" stroke-width="1.5" d="M0,-3.0v7 M-2.5,-0.5L0,-3.0L2.5,-0.5"/>
  </g>
  <g id="resetDef">
    <use xlink:href="#rim2" fill="#404040"><set attributeName="fill" to="#808080" begin="reset.mouseover" end="reset.mouseout"/></use>
  </g>
</defs>
<script type="application/ecmascript">
var viewWidth = 990;
var viewHeight = 236;
var sectionId = 'dynsection-1';
</script>
<script type="application/ecmascript" xlink:href="svg.min.js"/>
<svg id="graph" class="graph">
<g id="viewport">
<title>squid/src/fs/rock/RockSwapDir.h</title>
<!-- Node1 -->
<g id="Node000001" class="node">
<title>Node1</title>
<g id="a_Node000001"><a xlink:title=" ">
<polygon fill="#999999" stroke="#666666" points="523,-228 374,-228 374,-198 523,-198 523,-228"/>
<text text-anchor="start" x="382" y="-216" font-family="Helvetica,sans-Serif" font-size="10.00">squid/src/fs/rock/RockSwap</text>
<text text-anchor="middle" x="448.5" y="-205" font-family="Helvetica,sans-Serif" font-size="10.00">Dir.h</text>
</a>
</g>
</g>
<!-- Node2 -->
<g id="Node000002" class="node">
<title>Node2</title>
<g id="a_Node000002"><a xlink:href="RockHeaderUpdater_8h.html" target="_top" xlink:title=" ">
<polygon fill="white" stroke="#666666" points="194.5,-162 36.5,-162 36.5,-132 194.5,-132 194.5,-162"/>
<text text-anchor="start" x="44.5" y="-150" font-family="Helvetica,sans-Serif" font-size="10.00">squid/src/fs/rock/RockHeader</text>
<text text-anchor="middle" x="115.5" y="-139" font-family="Helvetica,sans-Serif" font-size="10.00">Updater.h</text>
</a>
</g>
</g>
<!-- Node1&#45;&gt;Node2 -->
<g id="edge1_Node000001_Node000002" class="edge">
<title>Node1&#45;&gt;Node2</title>
<g id="a_edge1_Node000001_Node000002"><a xlink:title=" ">
<path fill="none" stroke="#63b8ff" d="M365.46,-196.04C311.06,-185.59 240.64,-172.05 188.41,-162.01"/>
<polygon fill="#63b8ff" stroke="#63b8ff" points="364.94,-199.5 375.42,-197.95 366.26,-192.63 364.94,-199.5"/>
</a>
</g>
</g>
<!-- Node4 -->
<g id="Node000004" class="node">
<title>Node4</title>
<g id="a_Node000004"><a xlink:href="RockSwapDir_8cc.html" target="_top" xlink:title=" ">
<polygon fill="white" stroke="#666666" points="149,-30 0,-30 0,0 149,0 149,-30"/>
<text text-anchor="start" x="8" y="-18" font-family="Helvetica,sans-Serif" font-size="10.00">squid/src/fs/rock/RockSwap</text>
<text text-anchor="middle" x="74.5" y="-7" font-family="Helvetica,sans-Serif" font-size="10.00">Dir.cc</text>
</a>
</g>
</g>
<!-- Node1&#45;&gt;Node4 -->
<g id="edge15_Node000001_Node000004" class="edge">
<title>Node1&#45;&gt;Node4</title>
<g id="a_edge15_Node000001_Node000004"><a xlink:title=" ">
<path fill="none" stroke="#63b8ff" d="M363.62,-207.52C247.46,-200.56 50.66,-185.45 27.5,-162 -2.56,-131.56 3.37,-105.2 20.5,-66 26.95,-51.25 40.13,-38.91 51.85,-30.17"/>
<polygon fill="#63b8ff" stroke="#63b8ff" points="363.72,-211.03 373.9,-208.13 364.13,-204.05 363.72,-211.03"/>
</a>
</g>
</g>
<!-- Node5 -->
<g id="Node000005" class="node">
<title>Node5</title>
<g id="a_Node000005"><a xlink:href="RockIoState_8cc.html" target="_top" xlink:title=" ">
<polygon fill="white" stroke="#666666" points="495.5,-30 363.5,-30 363.5,0 495.5,0 495.5,-30"/>
<text text-anchor="start" x="371.5" y="-18" font-family="Helvetica,sans-Serif" font-size="10.00">squid/src/fs/rock/RockIo</text>
<text text-anchor="middle" x="429.5" y="-7" font-family="Helvetica,sans-Serif" font-size="10.00">State.cc</text>
</a>
</g>
</g>
<!-- Node1&#45;&gt;Node5 -->
<g id="edge4_Node000001_Node000005" class="edge">
<title>Node1&#45;&gt;Node5</title>
<g id="a_edge4_Node000001_Node000005"><a xlink:title=" ">
<path fill="none" stroke="#63b8ff" d="M446.16,-187.89C442.16,-146.58 434.1,-63.48 430.88,-30.23"/>
<polygon fill="#63b8ff" stroke="#63b8ff" points="442.68,-188.29 447.13,-197.9 449.65,-187.61 442.68,-188.29"/>
</a>
</g>
</g>
<!-- Node6 -->
<g id="Node000006" class="node">
<title>Node6</title>
<g id="a_Node000006"><a xlink:href="RockIoState_8h.html" target="_top" xlink:title=" ">
<polygon fill="white" stroke="#666666" points="382.5,-162 250.5,-162 250.5,-132 382.5,-132 382.5,-162"/>
<text text-anchor="start" x="258.5" y="-150" font-family="Helvetica,sans-Serif" font-size="10.00">squid/src/fs/rock/RockIo</text>
<text text-anchor="middle" x="316.5" y="-139" font-family="Helvetica,sans-Serif" font-size="10.00">State.h</text>
</a>
</g>
</g>
<!-- Node1&#45;&gt;Node6 -->
<g id="edge5_Node000001_Node000006" class="edge">
<title>Node1&#45;&gt;Node6</title>
<g id="a_edge5_Node000001_Node000006"><a xlink:title=" ">
<path fill="none" stroke="#63b8ff" d="M410.37,-193.51C389.66,-183.47 364.47,-171.26 345.4,-162.01"/>
<polygon fill="#63b8ff" stroke="#63b8ff" points="409.01,-196.74 419.53,-197.95 412.06,-190.44 409.01,-196.74"/>
</a>
</g>
</g>
<!-- Node9 -->
<g id="Node000009" class="node">
<title>Node9</title>
<g id="a_Node000009"><a xlink:href="RockRebuild_8cc.html" target="_top" xlink:title=" ">
<polygon fill="white" stroke="#666666" points="650,-156.5 477,-156.5 477,-137.5 650,-137.5 650,-156.5"/>
<text text-anchor="middle" x="563.5" y="-144.5" font-family="Helvetica,sans-Serif" font-size="10.00">squid/src/fs/rock/RockRebuild.cc</text>
</a>
</g>
</g>
<!-- Node1&#45;&gt;Node9 -->
<g id="edge13_Node000001_Node000009" class="edge">
<title>Node1&#45;&gt;Node9</title>
<g id="a_edge13_Node000001_Node000009"><a xlink:title=" ">
<path fill="none" stroke="#63b8ff" d="M482.69,-192.97C504.44,-180.87 531.56,-165.78 548.2,-156.52"/>
<polygon fill="#63b8ff" stroke="#63b8ff" points="480.77,-190.03 473.74,-197.95 484.18,-196.15 480.77,-190.03"/>
</a>
</g>
</g>
<!-- Node10 -->
<g id="Node000010" class="node">
<title>Node10</title>
<g id="a_Node000010"><a xlink:href="RockStoreFileSystem_8cc.html" target="_top" xlink:title=" ">
<polygon fill="white" stroke="#666666" points="817,-162 668,-162 668,-132 817,-132 817,-162"/>
<text text-anchor="start" x="676" y="-150" font-family="Helvetica,sans-Serif" font-size="10.00">squid/src/fs/rock/RockStore</text>
<text text-anchor="middle" x="742.5" y="-139" font-family="Helvetica,sans-Serif" font-size="10.00">FileSystem.cc</text>
</a>
</g>
</g>
<!-- Node1&#45;&gt;Node10 -->
<g id="edge14_Node000001_Node000010" class="edge">
<title>Node1&#45;&gt;Node10</title>
<g id="a_edge14_Node000001_Node000010"><a xlink:title=" ">
<path fill="none" stroke="#63b8ff" d="M523.01,-195.78C570.87,-185.36 632.4,-171.97 678.13,-162.01"/>
<polygon fill="#63b8ff" stroke="#63b8ff" points="522.05,-192.41 513.02,-197.95 523.54,-199.25 522.05,-192.41"/>
</a>
</g>
</g>
<!-- Node11 -->
<g id="Node000011" class="node">
<title>Node11</title>
<g id="a_Node000011"><a xlink:href="testRock_8cc.html" target="_top" xlink:title=" ">
<polygon fill="white" stroke="#666666" points="981.5,-156.5 835.5,-156.5 835.5,-137.5 981.5,-137.5 981.5,-156.5"/>
<text text-anchor="middle" x="908.5" y="-144.5" font-family="Helvetica,sans-Serif" font-size="10.00">squid/src/tests/testRock.cc</text>
</a>
</g>
</g>
<!-- Node1&#45;&gt;Node11 -->
<g id="edge16_Node000001_Node000011" class="edge">
<title>Node1&#45;&gt;Node11</title>
<g id="a_edge16_Node000001_Node000011"><a xlink:title=" ">
<path fill="none" stroke="#63b8ff" d="M533.3,-201.71C609.99,-192.18 725.97,-177.23 826.5,-162 837.5,-160.33 849.29,-158.4 860.42,-156.52"/>
<polygon fill="#63b8ff" stroke="#63b8ff" points="532.7,-198.26 523.21,-202.96 533.56,-205.2 532.7,-198.26"/>
</a>
</g>
</g>
<!-- Node3 -->
<g id="Node000003" class="node">
<title>Node3</title>
<g id="a_Node000003"><a xlink:href="RockHeaderUpdater_8cc.html" target="_top" xlink:title=" ">
<polygon fill="white" stroke="#666666" points="194.5,-96 36.5,-96 36.5,-66 194.5,-66 194.5,-96"/>
<text text-anchor="start" x="44.5" y="-84" font-family="Helvetica,sans-Serif" font-size="10.00">squid/src/fs/rock/RockHeader</text>
<text text-anchor="middle" x="115.5" y="-73" font-family="Helvetica,sans-Serif" font-size="10.00">Updater.cc</text>
</a>
</g>
</g>
<!-- Node2&#45;&gt;Node3 -->
<g id="edge2_Node000002_Node000003" class="edge">
<title>Node2&#45;&gt;Node3</title>
<g id="a_edge2_Node000002_Node000003"><a xlink:title=" ">
<path fill="none" stroke="#63b8ff" d="M115.5,-121.54C115.5,-112.96 115.5,-103.61 115.5,-96.16"/>
<polygon fill="#63b8ff" stroke="#63b8ff" points="112,-121.8 115.5,-131.8 119,-121.8 112,-121.8"/>
</a>
</g>
</g>
<!-- Node2&#45;&gt;Node4 -->
<g id="edge3_Node000002_Node000004" class="edge">
<title>Node2&#45;&gt;Node4</title>
<g id="a_edge3_Node000002_Node000004"><a xlink:title=" ">
<path fill="none" stroke="#63b8ff" d="M62.25,-127.29C48.52,-119.77 35.4,-109.58 27.5,-96 14.05,-72.89 37.81,-46.11 56.17,-30.14"/>
<polygon fill="#63b8ff" stroke="#63b8ff" points="60.8,-130.48 71.3,-131.85 63.95,-124.23 60.8,-130.48"/>
</a>
</g>
</g>
<!-- Node6&#45;&gt;Node3 -->
<g id="edge6_Node000006_Node000003" class="edge">
<title>Node6&#45;&gt;Node3</title>
<g id="a_edge6_Node000006_Node000003"><a xlink:title=" ">
<path fill="none" stroke="#63b8ff" d="M262.66,-128.86C230.38,-118.58 189.86,-105.68 159.51,-96.01"/>
<polygon fill="#63b8ff" stroke="#63b8ff" points="261.8,-132.26 272.39,-131.95 263.92,-125.59 261.8,-132.26"/>
</a>
</g>
</g>
<!-- Node6&#45;&gt;Node4 -->
<g id="edge12_Node000006_Node000004" class="edge">
<title>Node6&#45;&gt;Node4</title>
<g id="a_edge12_Node000006_Node000004"><a xlink:title=" ">
<path fill="none" stroke="#63b8ff" d="M285.61,-126.21C271.92,-117.23 255.73,-106.33 241.5,-96 224.09,-83.36 222.18,-76.67 203.5,-66 177.33,-51.05 145.81,-38.74 120.48,-30.08"/>
<polygon fill="#63b8ff" stroke="#63b8ff" points="283.9,-129.27 294.19,-131.8 287.73,-123.41 283.9,-129.27"/>
</a>
</g>
</g>
<!-- Node6&#45;&gt;Node5 -->
<g id="edge11_Node000006_Node000005" class="edge">
<title>Node6&#45;&gt;Node5</title>
<g id="a_edge11_Node000006_Node000005"><a xlink:title=" ">
<path fill="none" stroke="#63b8ff" d="M353.79,-126.68C366.93,-118.54 381.02,-108.12 391.5,-96 408.7,-76.11 419.88,-47.1 425.4,-30.02"/>
<polygon fill="#63b8ff" stroke="#63b8ff" points="351.72,-123.84 344.9,-131.95 355.29,-129.86 351.72,-123.84"/>
</a>
</g>
</g>
<!-- Node7 -->
<g id="Node000007" class="node">
<title>Node7</title>
<g id="a_Node000007"><a xlink:href="RockIoRequests_8h.html" target="_top" xlink:title=" ">
<polygon fill="white" stroke="#666666" points="382.5,-96 250.5,-96 250.5,-66 382.5,-66 382.5,-96"/>
<text text-anchor="start" x="258.5" y="-84" font-family="Helvetica,sans-Serif" font-size="10.00">squid/src/fs/rock/RockIo</text>
<text text-anchor="middle" x="316.5" y="-73" font-family="Helvetica,sans-Serif" font-size="10.00">Requests.h</text>
</a>
</g>
</g>
<!-- Node6&#45;&gt;Node7 -->
<g id="edge7_Node000006_Node000007" class="edge">
<title>Node6&#45;&gt;Node7</title>
<g id="a_edge7_Node000006_Node000007"><a xlink:title=" ">
<path fill="none" stroke="#63b8ff" d="M316.5,-121.54C316.5,-112.96 316.5,-103.61 316.5,-96.16"/>
<polygon fill="#63b8ff" stroke="#63b8ff" points="313,-121.8 316.5,-131.8 320,-121.8 313,-121.8"/>
</a>
</g>
</g>
<!-- Node7&#45;&gt;Node4 -->
<g id="edge10_Node000007_Node000004" class="edge">
<title>Node7&#45;&gt;Node4</title>
<g id="a_edge10_Node000007_Node000004"><a xlink:title=" ">
<path fill="none" stroke="#63b8ff" d="M253.68,-63.39C214.5,-53.03 164.65,-39.84 127.48,-30.01"/>
<polygon fill="#63b8ff" stroke="#63b8ff" points="252.83,-66.78 263.39,-65.95 254.62,-60.01 252.83,-66.78"/>
</a>
</g>
</g>
<!-- Node7&#45;&gt;Node5 -->
<g id="edge9_Node000007_Node000005" class="edge">
<title>Node7&#45;&gt;Node5</title>
<g id="a_edge9_Node000007_Node000005"><a xlink:title=" ">
<path fill="none" stroke="#63b8ff" d="M350.1,-60.97C367.64,-51.03 388.73,-39.09 404.76,-30.01"/>
<polygon fill="#63b8ff" stroke="#63b8ff" points="348.27,-57.98 341.3,-65.95 351.72,-64.07 348.27,-57.98"/>
</a>
</g>
</g>
<!-- Node8 -->
<g id="Node000008" class="node">
<title>Node8</title>
<g id="a_Node000008"><a xlink:href="RockIoRequests_8cc.html" target="_top" xlink:title=" ">
<polygon fill="white" stroke="#666666" points="345.5,-30 213.5,-30 213.5,0 345.5,0 345.5,-30"/>
<text text-anchor="start" x="221.5" y="-18" font-family="Helvetica,sans-Serif" font-size="10.00">squid/src/fs/rock/RockIo</text>
<text text-anchor="middle" x="279.5" y="-7" font-family="Helvetica,sans-Serif" font-size="10.00">Requests.cc</text>
</a>
</g>
</g>
<!-- Node7&#45;&gt;Node8 -->
<g id="edge8_Node000007_Node000008" class="edge">
<title>Node7&#45;&gt;Node8</title>
<g id="a_edge8_Node000007_Node000008"><a xlink:title=" ">
<path fill="none" stroke="#63b8ff" d="M303.18,-56.96C298,-48 292.24,-38.03 287.69,-30.16"/>
<polygon fill="#63b8ff" stroke="#63b8ff" points="300.25,-58.89 308.29,-65.8 306.31,-55.39 300.25,-58.89"/>
</a>
</g>
</g>
</g>
</svg>

<g id="navigator" transform="translate(0 0)" fill="#404254">
  <rect fill="#f2f5e9" fill-opacity="0.5" stroke="#606060" stroke-width=".5" x="0" y="0" width="60" height="60"/>
  <use id="zoomplus" xlink:href="#zoomPlus" x="17" y="9" onmousedown="handleZoom(evt,'in')"/>
  <use id="zoomminus" xlink:href="#zoomMin" x="42" y="9" onmousedown="handleZoom(evt,'out')"/>
  <use id="reset" xlink:href="#resetDef" x="30" y="36" onmousedown="handleReset()"/>
   <use id="arrowup" xlink:href="#arrowUp" x="0" y="0" onmousedown="handlePan(0,-1)"/>
  <use id="arrowright" xlink:href="#arrowRight" x="0" y="0" onmousedown="handlePan(1,0)"/>
  <use id="arrowdown" xlink:href="#arrowDown" x="0" y="0" onmousedown="handlePan(0,1)"/>
  <use id="arrowleft" xlink:href="#arrowLeft" x="0" y="0" onmousedown="handlePan(-1,0)"/>
</g>
<svg viewBox="0 0 15 15" width="100%" height="30px" preserveAspectRatio="xMaxYMin meet">
 <g id="arrow_out" transform="scale(0.3 0.3)">
  <a xlink:href="RockSwapDir_8h__dep__incl_org.svg" target="_base">
   <rect id="button" ry="5" rx="5" y="6" x="6" height="38" width="38"
        fill="#f2f5e9" fill-opacity="0.5" stroke="#606060" stroke-width="1.0"/>
   <path id="arrow"
     d="M 11.500037,31.436501 C 11.940474,20.09759 22.043105,11.32322 32.158766,21.979434 L 37.068811,17.246167 C 37.068811,17.246167 37.088388,32 37.088388,32 L 22.160133,31.978069 C 22.160133,31.978069 26.997745,27.140456 26.997745,27.140456 C 18.528582,18.264221 13.291696,25.230495 11.500037,31.436501 z"
     style="fill:#404040;"/>
  </a>
 </g>
</svg>

<style type='text/css'>
<![CDATA[
[data-mouse-over-selected='false'] { opacity: 0.7; }
[data-mouse-over-selected='true']  { opacity: 1.0; }
]]>
</style>
<script type="application/ecmascript"><![CDATA[
document.addEventListener('DOMContentLoaded', (event) => {
  highlightEdges();
  highlightAdjacentNodes();
});
]]></script>
</svg>
