<?xml version="1.0" encoding="UTF-8" standalone="no"?>
<!DOCTYPE svg PUBLIC "-//W3C//DTD SVG 1.1//EN"
 "http://www.w3.org/Graphics/SVG/1.1/DTD/svg11.dtd">
<!-- Generated by graphviz version 2.43.0 (0)
 -->
<!-- Title: squid/src/sbuf/SBuf.cc Pages: 1 -->
<svg width="3853pt" height="247pt"
 viewBox="0.00 0.00 3852.50 247.00" xmlns="http://www.w3.org/2000/svg" xmlns:xlink="http://www.w3.org/1999/xlink">
<g id="graph0" class="graph" transform="scale(1 1) rotate(0) translate(4 243)">
<title>squid/src/sbuf/SBuf.cc</title>
<!-- Node1 -->
<g id="Node000001" class="node">
<title>Node1</title>
<g id="a_Node000001"><a xlink:title=" ">
<polygon fill="#999999" stroke="#666666" points="2920.5,-239 2798.5,-239 2798.5,-220 2920.5,-220 2920.5,-239"/>
<text text-anchor="middle" x="2859.5" y="-227" font-family="Helvetica,sans-Serif" font-size="10.00">squid/src/sbuf/SBuf.cc</text>
</a>
</g>
</g>
<!-- Node2 -->
<g id="Node000002" class="node">
<title>Node2</title>
<g id="a_Node000002"><a xlink:href="squid_8h.html" target="_top" xlink:title=" ">
<polygon fill="white" stroke="#666666" points="1188.5,-184 1136.5,-184 1136.5,-165 1188.5,-165 1188.5,-184"/>
<text text-anchor="middle" x="1162.5" y="-172" font-family="Helvetica,sans-Serif" font-size="10.00">squid.h</text>
</a>
</g>
</g>
<!-- Node1&#45;&gt;Node2 -->
<g id="edge1_Node000001_Node000002" class="edge">
<title>Node1&#45;&gt;Node2</title>
<g id="a_edge1_Node000001_Node000002"><a xlink:title=" ">
<path fill="none" stroke="#63b8ff" d="M2798.35,-226.59C2524.44,-218.04 1414.28,-183.36 1198.82,-176.63"/>
<polygon fill="#63b8ff" stroke="#63b8ff" points="1198.79,-173.13 1188.69,-176.32 1198.57,-180.13 1198.79,-173.13"/>
</a>
</g>
</g>
<!-- Node45 -->
<g id="Node000045" class="node">
<title>Node45</title>
<g id="a_Node000045"><a xlink:href="CharacterSet_8h.html" target="_top" xlink:title=" ">
<polygon fill="white" stroke="#666666" points="2657,-184 2542,-184 2542,-165 2657,-165 2657,-184"/>
<text text-anchor="middle" x="2599.5" y="-172" font-family="Helvetica,sans-Serif" font-size="10.00">base/CharacterSet.h</text>
</a>
</g>
</g>
<!-- Node1&#45;&gt;Node45 -->
<g id="edge24_Node000001_Node000045" class="edge">
<title>Node1&#45;&gt;Node45</title>
<g id="a_edge24_Node000001_Node000045"><a xlink:title=" ">
<path fill="none" stroke="#63b8ff" d="M2817.73,-219.98C2772.56,-210.78 2700.5,-196.09 2651.65,-186.13"/>
<polygon fill="#63b8ff" stroke="#63b8ff" points="2652.1,-182.65 2641.6,-184.08 2650.7,-189.51 2652.1,-182.65"/>
</a>
</g>
</g>
<!-- Node49 -->
<g id="Node000049" class="node">
<title>Node49</title>
<g id="a_Node000049"><a xlink:href="Raw_8h.html" target="_top" xlink:title=" ">
<polygon fill="white" stroke="#666666" points="3716.5,-184 3644.5,-184 3644.5,-165 3716.5,-165 3716.5,-184"/>
<text text-anchor="middle" x="3680.5" y="-172" font-family="Helvetica,sans-Serif" font-size="10.00">base/Raw.h</text>
</a>
</g>
</g>
<!-- Node1&#45;&gt;Node49 -->
<g id="edge28_Node000001_Node000049" class="edge">
<title>Node1&#45;&gt;Node49</title>
<g id="a_edge28_Node000001_Node000049"><a xlink:title=" ">
<path fill="none" stroke="#63b8ff" d="M2920.66,-227.27C3051.36,-224.13 3367.39,-213.86 3630.5,-184 3631.75,-183.86 3633.03,-183.7 3634.31,-183.54"/>
<polygon fill="#63b8ff" stroke="#63b8ff" points="3634.83,-187 3644.25,-182.15 3633.86,-180.07 3634.83,-187"/>
</a>
</g>
</g>
<!-- Node50 -->
<g id="Node000050" class="node">
<title>Node50</title>
<g id="a_Node000050"><a xlink:href="RefCount_8h.html" target="_top" xlink:title=" ">
<polygon fill="white" stroke="#666666" points="3081,-74 2984,-74 2984,-55 3081,-55 3081,-74"/>
<text text-anchor="middle" x="3032.5" y="-62" font-family="Helvetica,sans-Serif" font-size="10.00">base/RefCount.h</text>
</a>
</g>
</g>
<!-- Node1&#45;&gt;Node50 -->
<g id="edge30_Node000001_Node000050" class="edge">
<title>Node1&#45;&gt;Node50</title>
<g id="a_edge30_Node000001_Node000050"><a xlink:title=" ">
<path fill="none" stroke="#63b8ff" d="M2858.05,-219.76C2854.99,-198.18 2850.34,-141.84 2878.5,-110 2891.36,-95.46 2935.95,-83.55 2973.87,-75.72"/>
<polygon fill="#63b8ff" stroke="#63b8ff" points="2974.72,-79.12 2983.84,-73.72 2973.35,-72.26 2974.72,-79.12"/>
</a>
</g>
</g>
<!-- Node52 -->
<g id="Node000052" class="node">
<title>Node52</title>
<g id="a_Node000052"><a xlink:title=" ">
<polygon fill="#e0e0e0" stroke="#999999" points="2769.5,-19 2709.5,-19 2709.5,0 2769.5,0 2769.5,-19"/>
<text text-anchor="middle" x="2739.5" y="-7" font-family="Helvetica,sans-Serif" font-size="10.00">iostream</text>
</a>
</g>
</g>
<!-- Node1&#45;&gt;Node52 -->
<g id="edge61_Node000001_Node000052" class="edge">
<title>Node1&#45;&gt;Node52</title>
<g id="a_edge61_Node000001_Node000052"><a xlink:title=" ">
<path fill="none" stroke="#63b8ff" d="M2798.34,-228.55C2731.03,-226.71 2620.68,-218.08 2532.5,-184 2492.25,-168.45 2472.59,-167.19 2452.5,-129 2401.93,-32.86 2608.82,-14.65 2699.17,-11.25"/>
<polygon fill="#63b8ff" stroke="#63b8ff" points="2699.45,-14.75 2709.33,-10.92 2699.22,-7.75 2699.45,-14.75"/>
</a>
</g>
</g>
<!-- Node54 -->
<g id="Node000054" class="node">
<title>Node54</title>
<g id="a_Node000054"><a xlink:href="debug_2Stream_8h.html" target="_top" xlink:title=" ">
<polygon fill="white" stroke="#666666" points="2831.5,-129 2737.5,-129 2737.5,-110 2831.5,-110 2831.5,-129"/>
<text text-anchor="middle" x="2784.5" y="-117" font-family="Helvetica,sans-Serif" font-size="10.00">debug/Stream.h</text>
</a>
</g>
</g>
<!-- Node1&#45;&gt;Node54 -->
<g id="edge34_Node000001_Node000054" class="edge">
<title>Node1&#45;&gt;Node54</title>
<g id="a_edge34_Node000001_Node000054"><a xlink:title=" ">
<path fill="none" stroke="#63b8ff" d="M2853.36,-219.66C2840.88,-201.69 2812.38,-160.64 2796.22,-137.38"/>
<polygon fill="#63b8ff" stroke="#63b8ff" points="2799.09,-135.38 2790.51,-129.16 2793.34,-139.37 2799.09,-135.38"/>
</a>
</g>
</g>
<!-- Node57 -->
<g id="Node000057" class="node">
<title>Node57</title>
<g id="a_Node000057"><a xlink:title=" ">
<polygon fill="#e0e0e0" stroke="#999999" points="2711.5,-74 2655.5,-74 2655.5,-55 2711.5,-55 2711.5,-74"/>
<text text-anchor="middle" x="2683.5" y="-62" font-family="Helvetica,sans-Serif" font-size="10.00">sstream</text>
</a>
</g>
</g>
<!-- Node1&#45;&gt;Node57 -->
<g id="edge62_Node000001_Node000057" class="edge">
<title>Node1&#45;&gt;Node57</title>
<g id="a_edge62_Node000001_Node000057"><a xlink:title=" ">
<path fill="none" stroke="#63b8ff" d="M2845.39,-219.85C2820.12,-203.92 2766.23,-168 2728.5,-129 2714.89,-114.93 2702.28,-96.46 2693.89,-83.06"/>
<polygon fill="#63b8ff" stroke="#63b8ff" points="2696.77,-81.06 2688.57,-74.34 2690.79,-84.71 2696.77,-81.06"/>
</a>
</g>
</g>
<!-- Node59 -->
<g id="Node000059" class="node">
<title>Node59</title>
<g id="a_Node000059"><a xlink:href="SBuf_8h.html" target="_top" xlink:title=" ">
<polygon fill="white" stroke="#666666" points="3265,-184 3194,-184 3194,-165 3265,-165 3265,-184"/>
<text text-anchor="middle" x="3229.5" y="-172" font-family="Helvetica,sans-Serif" font-size="10.00">sbuf/SBuf.h</text>
</a>
</g>
</g>
<!-- Node1&#45;&gt;Node59 -->
<g id="edge41_Node000001_Node000059" class="edge">
<title>Node1&#45;&gt;Node59</title>
<g id="a_edge41_Node000001_Node000059"><a xlink:title=" ">
<path fill="none" stroke="#63b8ff" d="M2918.95,-219.98C2992.63,-209.43 3116.63,-191.67 3183.48,-182.09"/>
<polygon fill="#63b8ff" stroke="#63b8ff" points="3184.29,-185.51 3193.7,-180.63 3183.3,-178.58 3184.29,-185.51"/>
</a>
</g>
</g>
<!-- Node73 -->
<g id="Node000073" class="node">
<title>Node73</title>
<g id="a_Node000073"><a xlink:title=" ">
<polygon fill="#e0e0e0" stroke="#999999" points="3628,-74 3563,-74 3563,-55 3628,-55 3628,-74"/>
<text text-anchor="middle" x="3595.5" y="-62" font-family="Helvetica,sans-Serif" font-size="10.00">functional</text>
</a>
</g>
</g>
<!-- Node1&#45;&gt;Node73 -->
<g id="edge60_Node000001_Node000073" class="edge">
<title>Node1&#45;&gt;Node73</title>
<g id="a_edge60_Node000001_Node000073"><a xlink:title=" ">
<path fill="none" stroke="#63b8ff" d="M2920.53,-225.17C3093.57,-215.1 3577.9,-182.35 3623.5,-129 3635.3,-115.2 3623.5,-95.64 3611.8,-81.88"/>
<polygon fill="#63b8ff" stroke="#63b8ff" points="3614.07,-79.18 3604.74,-74.17 3608.91,-83.91 3614.07,-79.18"/>
</a>
</g>
</g>
<!-- Node84 -->
<g id="Node000084" class="node">
<title>Node84</title>
<g id="a_Node000084"><a xlink:href="util_8h.html" target="_top" xlink:title=" ">
<polygon fill="white" stroke="#666666" points="3776,-184 3735,-184 3735,-165 3776,-165 3776,-184"/>
<text text-anchor="middle" x="3755.5" y="-172" font-family="Helvetica,sans-Serif" font-size="10.00">util.h</text>
</a>
</g>
</g>
<!-- Node1&#45;&gt;Node84 -->
<g id="edge58_Node000001_Node000084" class="edge">
<title>Node1&#45;&gt;Node84</title>
<g id="a_edge58_Node000001_Node000084"><a xlink:title=" ">
<path fill="none" stroke="#63b8ff" d="M2920.66,-227.14C3087.97,-223.15 3551.69,-210.16 3724.98,-183.58"/>
<polygon fill="#63b8ff" stroke="#63b8ff" points="3725.66,-187.01 3734.98,-181.97 3724.55,-180.1 3725.66,-187.01"/>
</a>
</g>
</g>
<!-- Node85 -->
<g id="Node000085" class="node">
<title>Node85</title>
<g id="a_Node000085"><a xlink:title=" ">
<polygon fill="#e0e0e0" stroke="#999999" points="3844.5,-184 3794.5,-184 3794.5,-165 3844.5,-165 3844.5,-184"/>
<text text-anchor="middle" x="3819.5" y="-172" font-family="Helvetica,sans-Serif" font-size="10.00">cstring</text>
</a>
</g>
</g>
<!-- Node1&#45;&gt;Node85 -->
<g id="edge59_Node000001_Node000085" class="edge">
<title>Node1&#45;&gt;Node85</title>
<g id="a_edge59_Node000001_Node000085"><a xlink:title=" ">
<path fill="none" stroke="#63b8ff" d="M2920.66,-227.13C3096,-222.97 3599.19,-209.25 3784.46,-183.79"/>
<polygon fill="#63b8ff" stroke="#63b8ff" points="3784.96,-187.25 3794.36,-182.37 3783.96,-180.32 3784.96,-187.25"/>
</a>
</g>
</g>
<!-- Node3 -->
<g id="Node000003" class="node">
<title>Node3</title>
<g id="a_Node000003"><a xlink:href="autoconf_8h.html" target="_top" xlink:title=" ">
<polygon fill="white" stroke="#666666" points="1063.5,-129 995.5,-129 995.5,-110 1063.5,-110 1063.5,-129"/>
<text text-anchor="middle" x="1029.5" y="-117" font-family="Helvetica,sans-Serif" font-size="10.00">autoconf.h</text>
</a>
</g>
</g>
<!-- Node2&#45;&gt;Node3 -->
<g id="edge2_Node000002_Node000003" class="edge">
<title>Node2&#45;&gt;Node3</title>
<g id="a_edge2_Node000002_Node000003"><a xlink:title=" ">
<path fill="none" stroke="#63b8ff" d="M1141.13,-164.98C1119.35,-156.3 1085.34,-142.75 1060.58,-132.88"/>
<polygon fill="#63b8ff" stroke="#63b8ff" points="1061.84,-129.62 1051.26,-129.17 1059.25,-136.12 1061.84,-129.62"/>
</a>
</g>
</g>
<!-- Node4 -->
<g id="Node000004" class="node">
<title>Node4</title>
<g id="a_Node000004"><a xlink:href="version_8h.html" target="_top" xlink:title=" ">
<polygon fill="white" stroke="#666666" points="1143.5,-129 1081.5,-129 1081.5,-110 1143.5,-110 1143.5,-129"/>
<text text-anchor="middle" x="1112.5" y="-117" font-family="Helvetica,sans-Serif" font-size="10.00">version.h</text>
</a>
</g>
</g>
<!-- Node2&#45;&gt;Node4 -->
<g id="edge3_Node000002_Node000004" class="edge">
<title>Node2&#45;&gt;Node4</title>
<g id="a_edge3_Node000002_Node000004"><a xlink:title=" ">
<path fill="none" stroke="#63b8ff" d="M1154.24,-164.75C1147.04,-157.11 1136.39,-145.82 1127.65,-136.56"/>
<polygon fill="#63b8ff" stroke="#63b8ff" points="1130.01,-133.96 1120.6,-129.09 1124.92,-138.76 1130.01,-133.96"/>
</a>
</g>
</g>
<!-- Node5 -->
<g id="Node000005" class="node">
<title>Node5</title>
<g id="a_Node000005"><a xlink:href="compat_8h.html" target="_top" xlink:title=" ">
<polygon fill="#fff0f0" stroke="red" points="1263.5,-129 1161.5,-129 1161.5,-110 1263.5,-110 1263.5,-129"/>
<text text-anchor="middle" x="1212.5" y="-117" font-family="Helvetica,sans-Serif" font-size="10.00">compat/compat.h</text>
</a>
</g>
</g>
<!-- Node2&#45;&gt;Node5 -->
<g id="edge4_Node000002_Node000005" class="edge">
<title>Node2&#45;&gt;Node5</title>
<g id="a_edge4_Node000002_Node000005"><a xlink:title=" ">
<path fill="none" stroke="#63b8ff" d="M1170.76,-164.75C1177.96,-157.11 1188.61,-145.82 1197.35,-136.56"/>
<polygon fill="#63b8ff" stroke="#63b8ff" points="1200.08,-138.76 1204.4,-129.09 1194.99,-133.96 1200.08,-138.76"/>
</a>
</g>
</g>
<!-- Node6 -->
<g id="Node000006" class="node">
<title>Node6</title>
<g id="a_Node000006"><a xlink:href="osdetect_8h.html" target="_top" xlink:title=" ">
<polygon fill="white" stroke="#666666" points="846,-74 739,-74 739,-55 846,-55 846,-74"/>
<text text-anchor="middle" x="792.5" y="-62" font-family="Helvetica,sans-Serif" font-size="10.00">compat/osdetect.h</text>
</a>
</g>
</g>
<!-- Node5&#45;&gt;Node6 -->
<g id="edge5_Node000005_Node000006" class="edge">
<title>Node5&#45;&gt;Node6</title>
<g id="a_edge5_Node000005_Node000006"><a xlink:title=" ">
<path fill="none" stroke="#63b8ff" d="M1161.45,-111.2C1158.42,-110.79 1155.42,-110.38 1152.5,-110 1023.89,-93.1 989.07,-90.99 856.27,-74.08"/>
<polygon fill="#63b8ff" stroke="#63b8ff" points="856.47,-70.58 846.11,-72.78 855.59,-77.52 856.47,-70.58"/>
</a>
</g>
</g>
<!-- Node7 -->
<g id="Node000007" class="node">
<title>Node7</title>
<g id="a_Node000007"><a xlink:href="fdsetsize_8h.html" target="_top" xlink:title=" ">
<polygon fill="white" stroke="#666666" points="974.5,-74 864.5,-74 864.5,-55 974.5,-55 974.5,-74"/>
<text text-anchor="middle" x="919.5" y="-62" font-family="Helvetica,sans-Serif" font-size="10.00">compat/fdsetsize.h</text>
</a>
</g>
</g>
<!-- Node5&#45;&gt;Node7 -->
<g id="edge6_Node000005_Node000007" class="edge">
<title>Node5&#45;&gt;Node7</title>
<g id="a_edge6_Node000005_Node000007"><a xlink:title=" ">
<path fill="none" stroke="#63b8ff" d="M1165.42,-109.98C1114.1,-100.7 1031.96,-85.84 976.9,-75.88"/>
<polygon fill="#63b8ff" stroke="#63b8ff" points="977.41,-72.42 966.94,-74.08 976.16,-79.31 977.41,-72.42"/>
</a>
</g>
</g>
<!-- Node8 -->
<g id="Node000008" class="node">
<title>Node8</title>
<g id="a_Node000008"><a xlink:href="types_8h.html" target="_top" xlink:title=" ">
<polygon fill="#fff0f0" stroke="red" points="1084.5,-74 992.5,-74 992.5,-55 1084.5,-55 1084.5,-74"/>
<text text-anchor="middle" x="1038.5" y="-62" font-family="Helvetica,sans-Serif" font-size="10.00">compat/types.h</text>
</a>
</g>
</g>
<!-- Node5&#45;&gt;Node8 -->
<g id="edge7_Node000005_Node000008" class="edge">
<title>Node5&#45;&gt;Node8</title>
<g id="a_edge7_Node000005_Node000008"><a xlink:title=" ">
<path fill="none" stroke="#63b8ff" d="M1184.54,-109.98C1155.2,-101.05 1108.9,-86.94 1076.31,-77.02"/>
<polygon fill="#63b8ff" stroke="#63b8ff" points="1077.26,-73.65 1066.68,-74.08 1075.22,-80.34 1077.26,-73.65"/>
</a>
</g>
</g>
<!-- Node10 -->
<g id="Node000010" class="node">
<title>Node10</title>
<g id="a_Node000010"><a xlink:href="aix_8h.html" target="_top" xlink:title=" ">
<polygon fill="white" stroke="#666666" points="1198,-74 1103,-74 1103,-55 1198,-55 1198,-74"/>
<text text-anchor="middle" x="1150.5" y="-62" font-family="Helvetica,sans-Serif" font-size="10.00">compat/os/aix.h</text>
</a>
</g>
</g>
<!-- Node5&#45;&gt;Node10 -->
<g id="edge8_Node000005_Node000010" class="edge">
<title>Node5&#45;&gt;Node10</title>
<g id="a_edge8_Node000005_Node000010"><a xlink:title=" ">
<path fill="none" stroke="#63b8ff" d="M1202.54,-109.98C1193.37,-102.15 1179.56,-90.34 1168.47,-80.86"/>
<polygon fill="#63b8ff" stroke="#63b8ff" points="1170.52,-78.01 1160.64,-74.17 1165.97,-83.33 1170.52,-78.01"/>
</a>
</g>
</g>
<!-- Node11 -->
<g id="Node000011" class="node">
<title>Node11</title>
<g id="a_Node000011"><a xlink:href="android_8h.html" target="_top" xlink:title=" ">
<polygon fill="white" stroke="#666666" points="1332.5,-74 1216.5,-74 1216.5,-55 1332.5,-55 1332.5,-74"/>
<text text-anchor="middle" x="1274.5" y="-62" font-family="Helvetica,sans-Serif" font-size="10.00">compat/os/android.h</text>
</a>
</g>
</g>
<!-- Node5&#45;&gt;Node11 -->
<g id="edge9_Node000005_Node000011" class="edge">
<title>Node5&#45;&gt;Node11</title>
<g id="a_edge9_Node000005_Node000011"><a xlink:title=" ">
<path fill="none" stroke="#63b8ff" d="M1222.46,-109.98C1231.63,-102.15 1245.44,-90.34 1256.53,-80.86"/>
<polygon fill="#63b8ff" stroke="#63b8ff" points="1259.03,-83.33 1264.36,-74.17 1254.48,-78.01 1259.03,-83.33"/>
</a>
</g>
</g>
<!-- Node12 -->
<g id="Node000012" class="node">
<title>Node12</title>
<g id="a_Node000012"><a xlink:href="dragonfly_8h.html" target="_top" xlink:title=" ">
<polygon fill="white" stroke="#666666" points="1474.5,-74 1350.5,-74 1350.5,-55 1474.5,-55 1474.5,-74"/>
<text text-anchor="middle" x="1412.5" y="-62" font-family="Helvetica,sans-Serif" font-size="10.00">compat/os/dragonfly.h</text>
</a>
</g>
</g>
<!-- Node5&#45;&gt;Node12 -->
<g id="edge10_Node000005_Node000012" class="edge">
<title>Node5&#45;&gt;Node12</title>
<g id="a_edge10_Node000005_Node000012"><a xlink:title=" ">
<path fill="none" stroke="#63b8ff" d="M1244.63,-109.98C1278.65,-100.97 1332.5,-86.7 1370,-76.76"/>
<polygon fill="#63b8ff" stroke="#63b8ff" points="1371.34,-80.03 1380.11,-74.08 1369.55,-73.26 1371.34,-80.03"/>
</a>
</g>
</g>
<!-- Node13 -->
<g id="Node000013" class="node">
<title>Node13</title>
<g id="a_Node000013"><a xlink:href="freebsd_8h.html" target="_top" xlink:title=" ">
<polygon fill="white" stroke="#666666" points="1608.5,-74 1492.5,-74 1492.5,-55 1608.5,-55 1608.5,-74"/>
<text text-anchor="middle" x="1550.5" y="-62" font-family="Helvetica,sans-Serif" font-size="10.00">compat/os/freebsd.h</text>
</a>
</g>
</g>
<!-- Node5&#45;&gt;Node13 -->
<g id="edge11_Node000005_Node000013" class="edge">
<title>Node5&#45;&gt;Node13</title>
<g id="a_edge11_Node000005_Node000013"><a xlink:title=" ">
<path fill="none" stroke="#63b8ff" d="M1263.83,-110.45C1323.35,-101.12 1421.51,-85.73 1486.09,-75.6"/>
<polygon fill="#63b8ff" stroke="#63b8ff" points="1486.82,-79.03 1496.16,-74.02 1485.74,-72.11 1486.82,-79.03"/>
</a>
</g>
</g>
<!-- Node14 -->
<g id="Node000014" class="node">
<title>Node14</title>
<g id="a_Node000014"><a xlink:href="hpux_8h.html" target="_top" xlink:title=" ">
<polygon fill="white" stroke="#666666" points="1730.5,-74 1626.5,-74 1626.5,-55 1730.5,-55 1730.5,-74"/>
<text text-anchor="middle" x="1678.5" y="-62" font-family="Helvetica,sans-Serif" font-size="10.00">compat/os/hpux.h</text>
</a>
</g>
</g>
<!-- Node5&#45;&gt;Node14 -->
<g id="edge12_Node000005_Node000014" class="edge">
<title>Node5&#45;&gt;Node14</title>
<g id="a_edge12_Node000005_Node000014"><a xlink:title=" ">
<path fill="none" stroke="#63b8ff" d="M1263.7,-113.36C1338.72,-105.71 1483.18,-90.59 1616.3,-74.12"/>
<polygon fill="#63b8ff" stroke="#63b8ff" points="1616.78,-77.59 1626.27,-72.88 1615.91,-70.64 1616.78,-77.59"/>
</a>
</g>
</g>
<!-- Node15 -->
<g id="Node000015" class="node">
<title>Node15</title>
<g id="a_Node000015"><a xlink:href="linux_8h.html" target="_top" xlink:title=" ">
<polygon fill="white" stroke="#666666" points="1852.5,-74 1748.5,-74 1748.5,-55 1852.5,-55 1852.5,-74"/>
<text text-anchor="middle" x="1800.5" y="-62" font-family="Helvetica,sans-Serif" font-size="10.00">compat/os/linux.h</text>
</a>
</g>
</g>
<!-- Node5&#45;&gt;Node15 -->
<g id="edge13_Node000005_Node000015" class="edge">
<title>Node5&#45;&gt;Node15</title>
<g id="a_edge13_Node000005_Node000015"><a xlink:title=" ">
<path fill="none" stroke="#63b8ff" d="M1263.83,-115.09C1356.43,-108.75 1557.79,-94.02 1738.08,-74.1"/>
<polygon fill="#63b8ff" stroke="#63b8ff" points="1738.73,-77.55 1748.28,-72.97 1737.95,-70.59 1738.73,-77.55"/>
</a>
</g>
</g>
<!-- Node16 -->
<g id="Node000016" class="node">
<title>Node16</title>
<g id="a_Node000016"><a xlink:href="macosx_8h.html" target="_top" xlink:title=" ">
<polygon fill="white" stroke="#666666" points="1988.5,-74 1870.5,-74 1870.5,-55 1988.5,-55 1988.5,-74"/>
<text text-anchor="middle" x="1929.5" y="-62" font-family="Helvetica,sans-Serif" font-size="10.00">compat/os/macosx.h</text>
</a>
</g>
</g>
<!-- Node5&#45;&gt;Node16 -->
<g id="edge14_Node000005_Node000016" class="edge">
<title>Node5&#45;&gt;Node16</title>
<g id="a_edge14_Node000005_Node000016"><a xlink:title=" ">
<path fill="none" stroke="#63b8ff" d="M1263.9,-115.95C1372.14,-110.38 1631.73,-95.9 1860.02,-74.09"/>
<polygon fill="#63b8ff" stroke="#63b8ff" points="1860.56,-77.55 1870.18,-73.11 1859.89,-70.59 1860.56,-77.55"/>
</a>
</g>
</g>
<!-- Node17 -->
<g id="Node000017" class="node">
<title>Node17</title>
<g id="a_Node000017"><a xlink:href="mingw_8h.html" target="_top" xlink:title=" ">
<polygon fill="white" stroke="#666666" points="2118.5,-74 2006.5,-74 2006.5,-55 2118.5,-55 2118.5,-74"/>
<text text-anchor="middle" x="2062.5" y="-62" font-family="Helvetica,sans-Serif" font-size="10.00">compat/os/mingw.h</text>
</a>
</g>
</g>
<!-- Node5&#45;&gt;Node17 -->
<g id="edge15_Node000005_Node000017" class="edge">
<title>Node5&#45;&gt;Node17</title>
<g id="a_edge15_Node000005_Node000017"><a xlink:title=" ">
<path fill="none" stroke="#63b8ff" d="M1263.57,-116.9C1387.37,-112.76 1713.5,-100.16 1996.12,-74.06"/>
<polygon fill="#63b8ff" stroke="#63b8ff" points="1996.53,-77.54 2006.16,-73.12 1995.88,-70.57 1996.53,-77.54"/>
</a>
</g>
</g>
<!-- Node18 -->
<g id="Node000018" class="node">
<title>Node18</title>
<g id="a_Node000018"><a xlink:href="mswindows_8h.html" target="_top" xlink:title=" ">
<polygon fill="white" stroke="#666666" points="2274,-74 2137,-74 2137,-55 2274,-55 2274,-74"/>
<text text-anchor="middle" x="2205.5" y="-62" font-family="Helvetica,sans-Serif" font-size="10.00">compat/os/mswindows.h</text>
</a>
</g>
</g>
<!-- Node5&#45;&gt;Node18 -->
<g id="edge16_Node000005_Node000018" class="edge">
<title>Node5&#45;&gt;Node18</title>
<g id="a_edge16_Node000005_Node000018"><a xlink:title=" ">
<path fill="none" stroke="#63b8ff" d="M1263.66,-117.09C1401.23,-113.06 1790.8,-100.14 2126.21,-74.05"/>
<polygon fill="#63b8ff" stroke="#63b8ff" points="2126.92,-77.5 2136.62,-73.23 2126.37,-70.52 2126.92,-77.5"/>
</a>
</g>
</g>
<!-- Node19 -->
<g id="Node000019" class="node">
<title>Node19</title>
<g id="a_Node000019"><a xlink:href="netbsd_8h.html" target="_top" xlink:title=" ">
<polygon fill="white" stroke="#666666" points="2405,-74 2292,-74 2292,-55 2405,-55 2405,-74"/>
<text text-anchor="middle" x="2348.5" y="-62" font-family="Helvetica,sans-Serif" font-size="10.00">compat/os/netbsd.h</text>
</a>
</g>
</g>
<!-- Node5&#45;&gt;Node19 -->
<g id="edge17_Node000005_Node000019" class="edge">
<title>Node5&#45;&gt;Node19</title>
<g id="a_edge17_Node000005_Node000019"><a xlink:title=" ">
<path fill="none" stroke="#63b8ff" d="M1263.55,-117.94C1416.35,-115.94 1883.54,-107.4 2281.67,-73.98"/>
<polygon fill="#63b8ff" stroke="#63b8ff" points="2281.98,-77.47 2291.65,-73.14 2281.39,-70.49 2281.98,-77.47"/>
</a>
</g>
</g>
<!-- Node20 -->
<g id="Node000020" class="node">
<title>Node20</title>
<g id="a_Node000020"><a xlink:href="openbsd_8h.html" target="_top" xlink:title=" ">
<polygon fill="white" stroke="#666666" points="121,-74 0,-74 0,-55 121,-55 121,-74"/>
<text text-anchor="middle" x="60.5" y="-62" font-family="Helvetica,sans-Serif" font-size="10.00">compat/os/openbsd.h</text>
</a>
</g>
</g>
<!-- Node5&#45;&gt;Node20 -->
<g id="edge18_Node000005_Node000020" class="edge">
<title>Node5&#45;&gt;Node20</title>
<g id="a_edge18_Node000005_Node000020"><a xlink:title=" ">
<path fill="none" stroke="#63b8ff" d="M1161.48,-110.9C1158.44,-110.56 1155.43,-110.26 1152.5,-110 702.63,-70.33 584.76,-109.27 131.15,-74.05"/>
<polygon fill="#63b8ff" stroke="#63b8ff" points="131.29,-70.56 121.05,-73.26 130.75,-77.53 131.29,-70.56"/>
</a>
</g>
</g>
<!-- Node21 -->
<g id="Node000021" class="node">
<title>Node21</title>
<g id="a_Node000021"><a xlink:href="os2_8h.html" target="_top" xlink:title=" ">
<polygon fill="white" stroke="#666666" points="236,-74 139,-74 139,-55 236,-55 236,-74"/>
<text text-anchor="middle" x="187.5" y="-62" font-family="Helvetica,sans-Serif" font-size="10.00">compat/os/os2.h</text>
</a>
</g>
</g>
<!-- Node5&#45;&gt;Node21 -->
<g id="edge19_Node000005_Node000021" class="edge">
<title>Node5&#45;&gt;Node21</title>
<g id="a_edge19_Node000005_Node000021"><a xlink:title=" ">
<path fill="none" stroke="#63b8ff" d="M1161.48,-110.91C1158.44,-110.57 1155.43,-110.27 1152.5,-110 754.05,-73.96 648.94,-110.68 246.36,-73.95"/>
<polygon fill="#63b8ff" stroke="#63b8ff" points="246.47,-70.45 236.19,-73.02 245.83,-77.42 246.47,-70.45"/>
</a>
</g>
</g>
<!-- Node22 -->
<g id="Node000022" class="node">
<title>Node22</title>
<g id="a_Node000022"><a xlink:href="qnx_8h.html" target="_top" xlink:title=" ">
<polygon fill="white" stroke="#666666" points="352.5,-74 254.5,-74 254.5,-55 352.5,-55 352.5,-74"/>
<text text-anchor="middle" x="303.5" y="-62" font-family="Helvetica,sans-Serif" font-size="10.00">compat/os/qnx.h</text>
</a>
</g>
</g>
<!-- Node5&#45;&gt;Node22 -->
<g id="edge20_Node000005_Node000022" class="edge">
<title>Node5&#45;&gt;Node22</title>
<g id="a_edge20_Node000005_Node000022"><a xlink:title=" ">
<path fill="none" stroke="#63b8ff" d="M1161.48,-110.93C1158.44,-110.59 1155.43,-110.27 1152.5,-110 805.44,-77.59 713.56,-106.99 362.7,-74"/>
<polygon fill="#63b8ff" stroke="#63b8ff" points="362.79,-70.5 352.51,-73.03 362.13,-77.46 362.79,-70.5"/>
</a>
</g>
</g>
<!-- Node23 -->
<g id="Node000023" class="node">
<title>Node23</title>
<g id="a_Node000023"><a xlink:href="sgi_8h.html" target="_top" xlink:title=" ">
<polygon fill="white" stroke="#666666" points="464.5,-74 370.5,-74 370.5,-55 464.5,-55 464.5,-74"/>
<text text-anchor="middle" x="417.5" y="-62" font-family="Helvetica,sans-Serif" font-size="10.00">compat/os/sgi.h</text>
</a>
</g>
</g>
<!-- Node5&#45;&gt;Node23 -->
<g id="edge21_Node000005_Node000023" class="edge">
<title>Node5&#45;&gt;Node23</title>
<g id="a_edge21_Node000005_Node000023"><a xlink:title=" ">
<path fill="none" stroke="#63b8ff" d="M1161.47,-110.96C1158.44,-110.61 1155.43,-110.28 1152.5,-110 855.09,-81.11 775.91,-104.18 474.86,-74.02"/>
<polygon fill="#63b8ff" stroke="#63b8ff" points="474.81,-70.5 464.51,-72.98 474.11,-77.47 474.81,-70.5"/>
</a>
</g>
</g>
<!-- Node24 -->
<g id="Node000024" class="node">
<title>Node24</title>
<g id="a_Node000024"><a xlink:href="solaris_8h.html" target="_top" xlink:title=" ">
<polygon fill="white" stroke="#666666" points="594.5,-74 482.5,-74 482.5,-55 594.5,-55 594.5,-74"/>
<text text-anchor="middle" x="538.5" y="-62" font-family="Helvetica,sans-Serif" font-size="10.00">compat/os/solaris.h</text>
</a>
</g>
</g>
<!-- Node5&#45;&gt;Node24 -->
<g id="edge22_Node000005_Node000024" class="edge">
<title>Node5&#45;&gt;Node24</title>
<g id="a_edge22_Node000005_Node000024"><a xlink:title=" ">
<path fill="none" stroke="#63b8ff" d="M1161.47,-111C1158.44,-110.64 1155.43,-110.3 1152.5,-110 912.6,-85.18 848.6,-97.52 605.08,-74.09"/>
<polygon fill="#63b8ff" stroke="#63b8ff" points="605.14,-70.58 594.84,-73.09 604.46,-77.55 605.14,-70.58"/>
</a>
</g>
</g>
<!-- Node25 -->
<g id="Node000025" class="node">
<title>Node25</title>
<g id="a_Node000025"><a xlink:href="sunos_8h.html" target="_top" xlink:title=" ">
<polygon fill="white" stroke="#666666" points="720.5,-74 612.5,-74 612.5,-55 720.5,-55 720.5,-74"/>
<text text-anchor="middle" x="666.5" y="-62" font-family="Helvetica,sans-Serif" font-size="10.00">compat/os/sunos.h</text>
</a>
</g>
</g>
<!-- Node5&#45;&gt;Node25 -->
<g id="edge23_Node000005_Node000025" class="edge">
<title>Node5&#45;&gt;Node25</title>
<g id="a_edge23_Node000005_Node000025"><a xlink:title=" ">
<path fill="none" stroke="#63b8ff" d="M1161.46,-111.07C1158.43,-110.69 1155.43,-110.33 1152.5,-110 968.32,-89.13 918.78,-94.42 730.99,-74.11"/>
<polygon fill="#63b8ff" stroke="#63b8ff" points="731.1,-70.6 720.78,-73 730.34,-77.56 731.1,-70.6"/>
</a>
</g>
</g>
<!-- Node46 -->
<g id="Node000046" class="node">
<title>Node46</title>
<g id="a_Node000046"><a xlink:title=" ">
<polygon fill="#e0e0e0" stroke="#999999" points="2545,-129 2462,-129 2462,-110 2545,-110 2545,-129"/>
<text text-anchor="middle" x="2503.5" y="-117" font-family="Helvetica,sans-Serif" font-size="10.00">initializer_list</text>
</a>
</g>
</g>
<!-- Node45&#45;&gt;Node46 -->
<g id="edge25_Node000045_Node000046" class="edge">
<title>Node45&#45;&gt;Node46</title>
<g id="a_edge25_Node000045_Node000046"><a xlink:title=" ">
<path fill="none" stroke="#63b8ff" d="M2584.08,-164.98C2569.05,-156.69 2545.96,-143.94 2528.34,-134.22"/>
<polygon fill="#63b8ff" stroke="#63b8ff" points="2529.65,-130.94 2519.2,-129.17 2526.27,-137.07 2529.65,-130.94"/>
</a>
</g>
</g>
<!-- Node47 -->
<g id="Node000047" class="node">
<title>Node47</title>
<g id="a_Node000047"><a xlink:title=" ">
<polygon fill="#e0e0e0" stroke="#999999" points="3305.5,-19 3257.5,-19 3257.5,0 3305.5,0 3305.5,-19"/>
<text text-anchor="middle" x="3281.5" y="-7" font-family="Helvetica,sans-Serif" font-size="10.00">iosfwd</text>
</a>
</g>
</g>
<!-- Node45&#45;&gt;Node47 -->
<g id="edge26_Node000045_Node000047" class="edge">
<title>Node45&#45;&gt;Node47</title>
<g id="a_edge26_Node000045_Node000047"><a xlink:title=" ">
<path fill="none" stroke="#63b8ff" d="M2603.39,-164.68C2607.31,-155.73 2613.48,-141.47 2618.5,-129 2631.63,-96.38 2618.28,-75.99 2646.5,-55 2658.66,-45.96 3116.11,-19.74 3246.9,-12.42"/>
<polygon fill="#63b8ff" stroke="#63b8ff" points="3247.35,-15.9 3257.14,-11.85 3246.96,-8.91 3247.35,-15.9"/>
</a>
</g>
</g>
<!-- Node48 -->
<g id="Node000048" class="node">
<title>Node48</title>
<g id="a_Node000048"><a xlink:title=" ">
<polygon fill="#e0e0e0" stroke="#999999" points="2610,-129 2563,-129 2563,-110 2610,-110 2610,-129"/>
<text text-anchor="middle" x="2586.5" y="-117" font-family="Helvetica,sans-Serif" font-size="10.00">vector</text>
</a>
</g>
</g>
<!-- Node45&#45;&gt;Node48 -->
<g id="edge27_Node000045_Node000048" class="edge">
<title>Node45&#45;&gt;Node48</title>
<g id="a_edge27_Node000045_Node000048"><a xlink:title=" ">
<path fill="none" stroke="#63b8ff" d="M2597.35,-164.75C2595.63,-157.72 2593.15,-147.62 2591,-138.84"/>
<polygon fill="#63b8ff" stroke="#63b8ff" points="2594.39,-137.97 2588.61,-129.09 2587.59,-139.63 2594.39,-137.97"/>
</a>
</g>
</g>
<!-- Node49&#45;&gt;Node47 -->
<g id="edge29_Node000049_Node000047" class="edge">
<title>Node49&#45;&gt;Node47</title>
<g id="a_edge29_Node000049_Node000047"><a xlink:title=" ">
<path fill="none" stroke="#63b8ff" d="M3680.25,-164.92C3679.11,-142.72 3672.74,-83.12 3637.5,-55 3588.39,-15.81 3395.56,-10.75 3316.06,-10.37"/>
<polygon fill="#63b8ff" stroke="#63b8ff" points="3315.63,-6.87 3305.62,-10.34 3315.61,-13.87 3315.63,-6.87"/>
</a>
</g>
</g>
<!-- Node51 -->
<g id="Node000051" class="node">
<title>Node51</title>
<g id="a_Node000051"><a xlink:href="Lock_8h.html" target="_top" xlink:title=" ">
<polygon fill="white" stroke="#666666" points="3108.5,-19 3034.5,-19 3034.5,0 3108.5,0 3108.5,-19"/>
<text text-anchor="middle" x="3071.5" y="-7" font-family="Helvetica,sans-Serif" font-size="10.00">base/Lock.h</text>
</a>
</g>
</g>
<!-- Node50&#45;&gt;Node51 -->
<g id="edge31_Node000050_Node000051" class="edge">
<title>Node50&#45;&gt;Node51</title>
<g id="a_edge31_Node000050_Node000051"><a xlink:title=" ">
<path fill="none" stroke="#63b8ff" d="M3038.94,-54.75C3044.39,-47.34 3052.36,-36.5 3059.06,-27.41"/>
<polygon fill="#63b8ff" stroke="#63b8ff" points="3062.07,-29.22 3065.18,-19.09 3056.43,-25.07 3062.07,-29.22"/>
</a>
</g>
</g>
<!-- Node50&#45;&gt;Node52 -->
<g id="edge32_Node000050_Node000052" class="edge">
<title>Node50&#45;&gt;Node52</title>
<g id="a_edge32_Node000050_Node000052"><a xlink:title=" ">
<path fill="none" stroke="#63b8ff" d="M2985.42,-54.98C2928.44,-44.68 2833.44,-27.49 2779.72,-17.78"/>
<polygon fill="#63b8ff" stroke="#63b8ff" points="2780.33,-14.33 2769.87,-15.99 2779.09,-21.22 2780.33,-14.33"/>
</a>
</g>
</g>
<!-- Node53 -->
<g id="Node000053" class="node">
<title>Node53</title>
<g id="a_Node000053"><a xlink:title=" ">
<polygon fill="#e0e0e0" stroke="#999999" points="3016,-19 2971,-19 2971,0 3016,0 3016,-19"/>
<text text-anchor="middle" x="2993.5" y="-7" font-family="Helvetica,sans-Serif" font-size="10.00">utility</text>
</a>
</g>
</g>
<!-- Node50&#45;&gt;Node53 -->
<g id="edge33_Node000050_Node000053" class="edge">
<title>Node50&#45;&gt;Node53</title>
<g id="a_edge33_Node000050_Node000053"><a xlink:title=" ">
<path fill="none" stroke="#63b8ff" d="M3026.06,-54.75C3020.61,-47.34 3012.64,-36.5 3005.94,-27.41"/>
<polygon fill="#63b8ff" stroke="#63b8ff" points="3008.57,-25.07 2999.82,-19.09 3002.93,-29.22 3008.57,-25.07"/>
</a>
</g>
</g>
<!-- Node54&#45;&gt;Node52 -->
<g id="edge38_Node000054_Node000052" class="edge">
<title>Node54&#45;&gt;Node52</title>
<g id="a_edge38_Node000054_Node000052"><a xlink:title=" ">
<path fill="none" stroke="#63b8ff" d="M2778.68,-109.96C2772.93,-101.23 2764.2,-87.13 2758.5,-74 2752.19,-59.47 2747.17,-42.2 2743.88,-29.34"/>
<polygon fill="#63b8ff" stroke="#63b8ff" points="2747.21,-28.25 2741.44,-19.36 2740.41,-29.91 2747.21,-28.25"/>
</a>
</g>
</g>
<!-- Node55 -->
<g id="Node000055" class="node">
<title>Node55</title>
<g id="a_Node000055"><a xlink:href="Here_8h.html" target="_top" xlink:title=" ">
<polygon fill="white" stroke="#666666" points="3174,-74 3099,-74 3099,-55 3174,-55 3174,-74"/>
<text text-anchor="middle" x="3136.5" y="-62" font-family="Helvetica,sans-Serif" font-size="10.00">base/Here.h</text>
</a>
</g>
</g>
<!-- Node54&#45;&gt;Node55 -->
<g id="edge35_Node000054_Node000055" class="edge">
<title>Node54&#45;&gt;Node55</title>
<g id="a_edge35_Node000054_Node000055"><a xlink:title=" ">
<path fill="none" stroke="#63b8ff" d="M2831.5,-112.23C2889.65,-104.36 2991.92,-90.09 3088.89,-74.22"/>
<polygon fill="#63b8ff" stroke="#63b8ff" points="3089.57,-77.65 3098.87,-72.58 3088.43,-70.75 3089.57,-77.65"/>
</a>
</g>
</g>
<!-- Node56 -->
<g id="Node000056" class="node">
<title>Node56</title>
<g id="a_Node000056"><a xlink:href="AllocatorProxy_8h.html" target="_top" xlink:title=" ">
<polygon fill="white" stroke="#666666" points="2965.5,-74 2841.5,-74 2841.5,-55 2965.5,-55 2965.5,-74"/>
<text text-anchor="middle" x="2903.5" y="-62" font-family="Helvetica,sans-Serif" font-size="10.00">mem/AllocatorProxy.h</text>
</a>
</g>
</g>
<!-- Node54&#45;&gt;Node56 -->
<g id="edge37_Node000054_Node000056" class="edge">
<title>Node54&#45;&gt;Node56</title>
<g id="a_edge37_Node000054_Node000056"><a xlink:title=" ">
<path fill="none" stroke="#63b8ff" d="M2803.62,-109.98C2822.85,-101.42 2852.73,-88.11 2874.81,-78.28"/>
<polygon fill="#63b8ff" stroke="#63b8ff" points="2876.32,-81.44 2884.03,-74.17 2873.47,-75.04 2876.32,-81.44"/>
</a>
</g>
</g>
<!-- Node54&#45;&gt;Node57 -->
<g id="edge39_Node000054_Node000057" class="edge">
<title>Node54&#45;&gt;Node57</title>
<g id="a_edge39_Node000054_Node000057"><a xlink:title=" ">
<path fill="none" stroke="#63b8ff" d="M2768.27,-109.98C2752.32,-101.61 2727.72,-88.7 2709.12,-78.95"/>
<polygon fill="#63b8ff" stroke="#63b8ff" points="2710.5,-75.72 2700.02,-74.17 2707.25,-81.92 2710.5,-75.72"/>
</a>
</g>
</g>
<!-- Node58 -->
<g id="Node000058" class="node">
<title>Node58</title>
<g id="a_Node000058"><a xlink:title=" ">
<polygon fill="#e0e0e0" stroke="#999999" points="2823.5,-74 2767.5,-74 2767.5,-55 2823.5,-55 2823.5,-74"/>
<text text-anchor="middle" x="2795.5" y="-62" font-family="Helvetica,sans-Serif" font-size="10.00">iomanip</text>
</a>
</g>
</g>
<!-- Node54&#45;&gt;Node58 -->
<g id="edge40_Node000054_Node000058" class="edge">
<title>Node54&#45;&gt;Node58</title>
<g id="a_edge40_Node000054_Node000058"><a xlink:title=" ">
<path fill="none" stroke="#63b8ff" d="M2786.32,-109.75C2787.76,-102.8 2789.82,-92.85 2791.63,-84.13"/>
<polygon fill="#63b8ff" stroke="#63b8ff" points="2795.11,-84.59 2793.72,-74.09 2788.26,-83.17 2795.11,-84.59"/>
</a>
</g>
</g>
<!-- Node55&#45;&gt;Node47 -->
<g id="edge36_Node000055_Node000047" class="edge">
<title>Node55&#45;&gt;Node47</title>
<g id="a_edge36_Node000055_Node000047"><a xlink:title=" ">
<path fill="none" stroke="#63b8ff" d="M3159.8,-54.98C3183.75,-46.23 3221.28,-32.51 3248.33,-22.62"/>
<polygon fill="#63b8ff" stroke="#63b8ff" points="3249.59,-25.89 3257.78,-19.17 3247.19,-19.32 3249.59,-25.89"/>
</a>
</g>
</g>
<!-- Node59&#45;&gt;Node47 -->
<g id="edge56_Node000059_Node000047" class="edge">
<title>Node59&#45;&gt;Node47</title>
<g id="a_edge56_Node000059_Node000047"><a xlink:title=" ">
<path fill="none" stroke="#63b8ff" d="M3265.03,-169.62C3290.72,-164.75 3323.75,-153.76 3340.5,-129 3363.85,-94.48 3324.5,-49.39 3299.57,-26.04"/>
<polygon fill="#63b8ff" stroke="#63b8ff" points="3301.85,-23.38 3292.08,-19.26 3297.15,-28.57 3301.85,-23.38"/>
</a>
</g>
</g>
<!-- Node59&#45;&gt;Node54 -->
<g id="edge46_Node000059_Node000054" class="edge">
<title>Node59&#45;&gt;Node54</title>
<g id="a_edge46_Node000059_Node000054"><a xlink:title=" ">
<path fill="none" stroke="#63b8ff" d="M3193.84,-169.25C3116.9,-160.09 2934.8,-138.4 2841.61,-127.3"/>
<polygon fill="#63b8ff" stroke="#63b8ff" points="2841.85,-123.81 2831.51,-126.1 2841.03,-130.76 2841.85,-123.81"/>
</a>
</g>
</g>
<!-- Node60 -->
<g id="Node000060" class="node">
<title>Node60</title>
<g id="a_Node000060"><a xlink:href="InstanceId_8h.html" target="_top" xlink:title=" ">
<polygon fill="white" stroke="#666666" points="3293.5,-74 3191.5,-74 3191.5,-55 3293.5,-55 3293.5,-74"/>
<text text-anchor="middle" x="3242.5" y="-62" font-family="Helvetica,sans-Serif" font-size="10.00">base/InstanceId.h</text>
</a>
</g>
</g>
<!-- Node59&#45;&gt;Node60 -->
<g id="edge42_Node000059_Node000060" class="edge">
<title>Node59&#45;&gt;Node60</title>
<g id="a_edge42_Node000059_Node000060"><a xlink:title=" ">
<path fill="none" stroke="#63b8ff" d="M3230.56,-164.66C3232.67,-147.17 3237.41,-107.8 3240.24,-84.27"/>
<polygon fill="#63b8ff" stroke="#63b8ff" points="3243.74,-84.51 3241.46,-74.16 3236.79,-83.67 3243.74,-84.51"/>
</a>
</g>
</g>
<!-- Node61 -->
<g id="Node000061" class="node">
<title>Node61</title>
<g id="a_Node000061"><a xlink:href="TextException_8h.html" target="_top" xlink:title=" ">
<polygon fill="#fff0f0" stroke="red" points="3007.5,-129 2887.5,-129 2887.5,-110 3007.5,-110 3007.5,-129"/>
<text text-anchor="middle" x="2947.5" y="-117" font-family="Helvetica,sans-Serif" font-size="10.00">base/TextException.h</text>
</a>
</g>
</g>
<!-- Node59&#45;&gt;Node61 -->
<g id="edge44_Node000059_Node000061" class="edge">
<title>Node59&#45;&gt;Node61</title>
<g id="a_edge44_Node000059_Node000061"><a xlink:title=" ">
<path fill="none" stroke="#63b8ff" d="M3193.78,-166.79C3145.69,-157.75 3059.62,-141.57 3003.04,-130.94"/>
<polygon fill="#63b8ff" stroke="#63b8ff" points="3003.65,-127.49 2993.18,-129.09 3002.36,-134.37 3003.65,-127.49"/>
</a>
</g>
</g>
<!-- Node64 -->
<g id="Node000064" class="node">
<title>Node64</title>
<g id="a_Node000064"><a xlink:href="globals_8h.html" target="_top" xlink:title=" ">
<polygon fill="#fff0f0" stroke="red" points="3201,-129 3140,-129 3140,-110 3201,-110 3201,-129"/>
<text text-anchor="middle" x="3170.5" y="-117" font-family="Helvetica,sans-Serif" font-size="10.00">globals.h</text>
</a>
</g>
</g>
<!-- Node59&#45;&gt;Node64 -->
<g id="edge47_Node000059_Node000064" class="edge">
<title>Node59&#45;&gt;Node64</title>
<g id="a_edge47_Node000059_Node000064"><a xlink:title=" ">
<path fill="none" stroke="#63b8ff" d="M3220.02,-164.98C3211.3,-157.15 3198.16,-145.34 3187.6,-135.86"/>
<polygon fill="#63b8ff" stroke="#63b8ff" points="3189.93,-133.25 3180.15,-129.17 3185.25,-138.46 3189.93,-133.25"/>
</a>
</g>
</g>
<!-- Node72 -->
<g id="Node000072" class="node">
<title>Node72</title>
<g id="a_Node000072"><a xlink:href="sbuf_2forward_8h.html" target="_top" xlink:title=" ">
<polygon fill="#fff0f0" stroke="red" points="3614,-129 3527,-129 3527,-110 3614,-110 3614,-129"/>
<text text-anchor="middle" x="3570.5" y="-117" font-family="Helvetica,sans-Serif" font-size="10.00">sbuf/forward.h</text>
</a>
</g>
</g>
<!-- Node59&#45;&gt;Node72 -->
<g id="edge48_Node000059_Node000072" class="edge">
<title>Node59&#45;&gt;Node72</title>
<g id="a_edge48_Node000059_Node000072"><a xlink:title=" ">
<path fill="none" stroke="#63b8ff" d="M3265.11,-168.13C3317.86,-160.14 3420.16,-144.56 3516.87,-129.25"/>
<polygon fill="#63b8ff" stroke="#63b8ff" points="3517.48,-132.69 3526.81,-127.67 3516.39,-125.78 3517.48,-132.69"/>
</a>
</g>
</g>
<!-- Node79 -->
<g id="Node000079" class="node">
<title>Node79</title>
<g id="a_Node000079"><a xlink:href="MemBlob_8h.html" target="_top" xlink:title=" ">
<polygon fill="#fff0f0" stroke="red" points="3121.5,-129 3025.5,-129 3025.5,-110 3121.5,-110 3121.5,-129"/>
<text text-anchor="middle" x="3073.5" y="-117" font-family="Helvetica,sans-Serif" font-size="10.00">sbuf/MemBlob.h</text>
</a>
</g>
</g>
<!-- Node59&#45;&gt;Node79 -->
<g id="edge50_Node000059_Node000079" class="edge">
<title>Node59&#45;&gt;Node79</title>
<g id="a_edge50_Node000059_Node000079"><a xlink:title=" ">
<path fill="none" stroke="#63b8ff" d="M3204.44,-164.98C3178.47,-156.16 3137.69,-142.31 3108.54,-132.41"/>
<polygon fill="#63b8ff" stroke="#63b8ff" points="3109.35,-128.99 3098.76,-129.08 3107.1,-135.61 3109.35,-128.99"/>
</a>
</g>
</g>
<!-- Node81 -->
<g id="Node000081" class="node">
<title>Node81</title>
<g id="a_Node000081"><a xlink:href="sbuf_2Stats_8h.html" target="_top" xlink:title=" ">
<polygon fill="white" stroke="#666666" points="3331.5,-129 3257.5,-129 3257.5,-110 3331.5,-110 3331.5,-129"/>
<text text-anchor="middle" x="3294.5" y="-117" font-family="Helvetica,sans-Serif" font-size="10.00">sbuf/Stats.h</text>
</a>
</g>
</g>
<!-- Node59&#45;&gt;Node81 -->
<g id="edge53_Node000059_Node000081" class="edge">
<title>Node59&#45;&gt;Node81</title>
<g id="a_edge53_Node000059_Node000081"><a xlink:title=" ">
<path fill="none" stroke="#63b8ff" d="M3239.94,-164.98C3249.65,-157.07 3264.32,-145.11 3276,-135.58"/>
<polygon fill="#63b8ff" stroke="#63b8ff" points="3278.33,-138.2 3283.87,-129.17 3273.9,-132.78 3278.33,-138.2"/>
</a>
</g>
</g>
<!-- Node82 -->
<g id="Node000082" class="node">
<title>Node82</title>
<g id="a_Node000082"><a xlink:title=" ">
<polygon fill="#e0e0e0" stroke="#999999" points="3437.5,-129 3387.5,-129 3387.5,-110 3437.5,-110 3437.5,-129"/>
<text text-anchor="middle" x="3412.5" y="-117" font-family="Helvetica,sans-Serif" font-size="10.00">climits</text>
</a>
</g>
</g>
<!-- Node59&#45;&gt;Node82 -->
<g id="edge55_Node000059_Node000082" class="edge">
<title>Node59&#45;&gt;Node82</title>
<g id="a_edge55_Node000059_Node000082"><a xlink:title=" ">
<path fill="none" stroke="#63b8ff" d="M3258.9,-164.98C3291.27,-155.61 3343.27,-140.55 3377.66,-130.59"/>
<polygon fill="#63b8ff" stroke="#63b8ff" points="3378.66,-133.94 3387.29,-127.8 3376.72,-127.22 3378.66,-133.94"/>
</a>
</g>
</g>
<!-- Node83 -->
<g id="Node000083" class="node">
<title>Node83</title>
<g id="a_Node000083"><a xlink:title=" ">
<polygon fill="#e0e0e0" stroke="#999999" points="3509,-129 3456,-129 3456,-110 3509,-110 3509,-129"/>
<text text-anchor="middle" x="3482.5" y="-117" font-family="Helvetica,sans-Serif" font-size="10.00">iterator</text>
</a>
</g>
</g>
<!-- Node59&#45;&gt;Node83 -->
<g id="edge57_Node000059_Node000083" class="edge">
<title>Node59&#45;&gt;Node83</title>
<g id="a_edge57_Node000059_Node000083"><a xlink:title=" ">
<path fill="none" stroke="#63b8ff" d="M3265.28,-166.5C3306.42,-158.38 3376.21,-144.37 3445.95,-129.07"/>
<polygon fill="#63b8ff" stroke="#63b8ff" points="3446.77,-132.47 3455.78,-126.9 3445.26,-125.63 3446.77,-132.47"/>
</a>
</g>
</g>
<!-- Node60&#45;&gt;Node47 -->
<g id="edge43_Node000060_Node000047" class="edge">
<title>Node60&#45;&gt;Node47</title>
<g id="a_edge43_Node000060_Node000047"><a xlink:title=" ">
<path fill="none" stroke="#63b8ff" d="M3248.94,-54.75C3254.39,-47.34 3262.36,-36.5 3269.06,-27.41"/>
<polygon fill="#63b8ff" stroke="#63b8ff" points="3272.07,-29.22 3275.18,-19.09 3266.43,-25.07 3272.07,-29.22"/>
</a>
</g>
</g>
<!-- Node61&#45;&gt;Node55 -->
<g id="edge45_Node000061_Node000055" class="edge">
<title>Node61&#45;&gt;Node55</title>
<g id="a_edge45_Node000061_Node000055"><a xlink:title=" ">
<path fill="none" stroke="#63b8ff" d="M2977.87,-109.98C3009.87,-101.01 3060.46,-86.82 3095.88,-76.89"/>
<polygon fill="#63b8ff" stroke="#63b8ff" points="3097.21,-80.15 3105.9,-74.08 3095.32,-73.41 3097.21,-80.15"/>
</a>
</g>
</g>
<!-- Node72&#45;&gt;Node73 -->
<g id="edge49_Node000072_Node000073" class="edge">
<title>Node72&#45;&gt;Node73</title>
<g id="a_edge49_Node000072_Node000073"><a xlink:title=" ">
<path fill="none" stroke="#63b8ff" d="M3574.63,-109.75C3578.01,-102.57 3582.92,-92.18 3587.12,-83.27"/>
<polygon fill="#63b8ff" stroke="#63b8ff" points="3590.35,-84.63 3591.45,-74.09 3584.02,-81.64 3590.35,-84.63"/>
</a>
</g>
</g>
<!-- Node79&#45;&gt;Node50 -->
<g id="edge52_Node000079_Node000050" class="edge">
<title>Node79&#45;&gt;Node50</title>
<g id="a_edge52_Node000079_Node000050"><a xlink:title=" ">
<path fill="none" stroke="#63b8ff" d="M3066.73,-109.75C3060.94,-102.26 3052.44,-91.28 3045.36,-82.13"/>
<polygon fill="#63b8ff" stroke="#63b8ff" points="3048.03,-79.86 3039.14,-74.09 3042.49,-84.14 3048.03,-79.86"/>
</a>
</g>
</g>
<!-- Node79&#45;&gt;Node60 -->
<g id="edge51_Node000079_Node000060" class="edge">
<title>Node79&#45;&gt;Node60</title>
<g id="a_edge51_Node000079_Node000060"><a xlink:title=" ">
<path fill="none" stroke="#63b8ff" d="M3100.65,-109.98C3129.03,-101.09 3173.73,-87.07 3205.36,-77.15"/>
<polygon fill="#63b8ff" stroke="#63b8ff" points="3206.64,-80.41 3215.13,-74.08 3204.55,-73.73 3206.64,-80.41"/>
</a>
</g>
</g>
<!-- Node81&#45;&gt;Node47 -->
<g id="edge54_Node000081_Node000047" class="edge">
<title>Node81&#45;&gt;Node47</title>
<g id="a_edge54_Node000081_Node000047"><a xlink:title=" ">
<path fill="none" stroke="#63b8ff" d="M3297.48,-109.78C3301.27,-97.46 3306.83,-74.3 3302.5,-55 3300.42,-45.74 3296.2,-36.14 3292.07,-28.23"/>
<polygon fill="#63b8ff" stroke="#63b8ff" points="3295.01,-26.31 3287.08,-19.28 3288.9,-29.72 3295.01,-26.31"/>
</a>
</g>
</g>
</g>
</svg>
