<?xml version="1.0" encoding="UTF-8" standalone="no"?>
<!DOCTYPE svg PUBLIC "-//W3C//DTD SVG 1.1//EN"
 "http://www.w3.org/Graphics/SVG/1.1/DTD/svg11.dtd">
<!-- Generated by graphviz version 2.43.0 (0)
 -->
<!-- Title: squid/src/sbuf/Stream.h Pages: 1 -->
<svg width="1301pt" height="467pt"
 viewBox="0.00 0.00 1301.00 467.00" xmlns="http://www.w3.org/2000/svg" xmlns:xlink="http://www.w3.org/1999/xlink">
<g id="graph0" class="graph" transform="scale(1 1) rotate(0) translate(4 463)">
<title>squid/src/sbuf/Stream.h</title>
<!-- Node1 -->
<g id="Node000001" class="node">
<title>Node1</title>
<g id="a_Node000001"><a xlink:title=" ">
<polygon fill="#999999" stroke="#666666" points="533,-459 402,-459 402,-440 533,-440 533,-459"/>
<text text-anchor="middle" x="467.5" y="-447" font-family="Helvetica,sans-Serif" font-size="10.00">squid/src/sbuf/Stream.h</text>
</a>
</g>
</g>
<!-- Node2 -->
<g id="Node000002" class="node">
<title>Node2</title>
<g id="a_Node000002"><a xlink:href="PackableStream_8h.html" target="_top" xlink:title=" ">
<polygon fill="white" stroke="#666666" points="206.5,-404 76.5,-404 76.5,-385 206.5,-385 206.5,-404"/>
<text text-anchor="middle" x="141.5" y="-392" font-family="Helvetica,sans-Serif" font-size="10.00">base/PackableStream.h</text>
</a>
</g>
</g>
<!-- Node1&#45;&gt;Node2 -->
<g id="edge1_Node000001_Node000002" class="edge">
<title>Node1&#45;&gt;Node2</title>
<g id="a_edge1_Node000001_Node000002"><a xlink:title=" ">
<path fill="none" stroke="#63b8ff" d="M415.12,-439.98C357.58,-430.63 265.21,-415.61 203.95,-405.65"/>
<polygon fill="#63b8ff" stroke="#63b8ff" points="204.45,-402.19 194.02,-404.04 203.33,-409.1 204.45,-402.19"/>
</a>
</g>
</g>
<!-- Node5 -->
<g id="Node000005" class="node">
<title>Node5</title>
<g id="a_Node000005"><a xlink:href="SBuf_8h.html" target="_top" xlink:title=" ">
<polygon fill="white" stroke="#666666" points="830,-404 759,-404 759,-385 830,-385 830,-404"/>
<text text-anchor="middle" x="794.5" y="-392" font-family="Helvetica,sans-Serif" font-size="10.00">sbuf/SBuf.h</text>
</a>
</g>
</g>
<!-- Node1&#45;&gt;Node5 -->
<g id="edge4_Node000001_Node000005" class="edge">
<title>Node1&#45;&gt;Node5</title>
<g id="a_edge4_Node000001_Node000005"><a xlink:title=" ">
<path fill="none" stroke="#63b8ff" d="M520.04,-439.98C583.35,-429.72 688.71,-412.65 748.8,-402.91"/>
<polygon fill="#63b8ff" stroke="#63b8ff" points="749.45,-406.35 758.76,-401.29 748.33,-399.44 749.45,-406.35"/>
</a>
</g>
</g>
<!-- Node3 -->
<g id="Node000003" class="node">
<title>Node3</title>
<g id="a_Node000003"><a xlink:href="Packable_8h.html" target="_top" xlink:title=" ">
<polygon fill="white" stroke="#666666" points="95,-349 0,-349 0,-330 95,-330 95,-349"/>
<text text-anchor="middle" x="47.5" y="-337" font-family="Helvetica,sans-Serif" font-size="10.00">base/Packable.h</text>
</a>
</g>
</g>
<!-- Node2&#45;&gt;Node3 -->
<g id="edge2_Node000002_Node000003" class="edge">
<title>Node2&#45;&gt;Node3</title>
<g id="a_edge2_Node000002_Node000003"><a xlink:title=" ">
<path fill="none" stroke="#63b8ff" d="M126.4,-384.98C111.68,-376.69 89.08,-363.94 71.83,-354.22"/>
<polygon fill="#63b8ff" stroke="#63b8ff" points="73.31,-351.03 62.88,-349.17 69.87,-357.13 73.31,-351.03"/>
</a>
</g>
</g>
<!-- Node4 -->
<g id="Node000004" class="node">
<title>Node4</title>
<g id="a_Node000004"><a xlink:title=" ">
<polygon fill="#e0e0e0" stroke="#999999" points="170,-349 113,-349 113,-330 170,-330 170,-349"/>
<text text-anchor="middle" x="141.5" y="-337" font-family="Helvetica,sans-Serif" font-size="10.00">ostream</text>
</a>
</g>
</g>
<!-- Node2&#45;&gt;Node4 -->
<g id="edge3_Node000002_Node000004" class="edge">
<title>Node2&#45;&gt;Node4</title>
<g id="a_edge3_Node000002_Node000004"><a xlink:title=" ">
<path fill="none" stroke="#63b8ff" d="M141.5,-384.75C141.5,-377.8 141.5,-367.85 141.5,-359.13"/>
<polygon fill="#63b8ff" stroke="#63b8ff" points="145,-359.09 141.5,-349.09 138,-359.09 145,-359.09"/>
</a>
</g>
</g>
<!-- Node6 -->
<g id="Node000006" class="node">
<title>Node6</title>
<g id="a_Node000006"><a xlink:href="InstanceId_8h.html" target="_top" xlink:title=" ">
<polygon fill="white" stroke="#666666" points="287.5,-294 185.5,-294 185.5,-275 287.5,-275 287.5,-294"/>
<text text-anchor="middle" x="236.5" y="-282" font-family="Helvetica,sans-Serif" font-size="10.00">base/InstanceId.h</text>
</a>
</g>
</g>
<!-- Node5&#45;&gt;Node6 -->
<g id="edge5_Node000005_Node000006" class="edge">
<title>Node5&#45;&gt;Node6</title>
<g id="a_edge5_Node000005_Node000006"><a xlink:title=" ">
<path fill="none" stroke="#63b8ff" d="M758.85,-390.68C696.46,-385.34 563.63,-372.15 453.5,-349 387.89,-335.21 313.23,-311.55 270.8,-297.33"/>
<polygon fill="#63b8ff" stroke="#63b8ff" points="271.84,-293.99 261.24,-294.11 269.6,-300.62 271.84,-293.99"/>
</a>
</g>
</g>
<!-- Node7 -->
<g id="Node000007" class="node">
<title>Node7</title>
<g id="a_Node000007"><a xlink:title=" ">
<polygon fill="#e0e0e0" stroke="#999999" points="719.5,-184 671.5,-184 671.5,-165 719.5,-165 719.5,-184"/>
<text text-anchor="middle" x="695.5" y="-172" font-family="Helvetica,sans-Serif" font-size="10.00">iosfwd</text>
</a>
</g>
</g>
<!-- Node5&#45;&gt;Node7 -->
<g id="edge49_Node000005_Node000007" class="edge">
<title>Node5&#45;&gt;Node7</title>
<g id="a_edge49_Node000005_Node000007"><a xlink:title=" ">
<path fill="none" stroke="#63b8ff" d="M772.28,-384.93C756.68,-377.73 736.67,-365.88 725.5,-349 693.51,-300.66 692.45,-228.73 694.05,-194.69"/>
<polygon fill="#63b8ff" stroke="#63b8ff" points="697.57,-194.52 694.68,-184.32 690.58,-194.09 697.57,-194.52"/>
</a>
</g>
</g>
<!-- Node8 -->
<g id="Node000008" class="node">
<title>Node8</title>
<g id="a_Node000008"><a xlink:href="TextException_8h.html" target="_top" xlink:title=" ">
<polygon fill="white" stroke="#666666" points="854.5,-349 734.5,-349 734.5,-330 854.5,-330 854.5,-349"/>
<text text-anchor="middle" x="794.5" y="-337" font-family="Helvetica,sans-Serif" font-size="10.00">base/TextException.h</text>
</a>
</g>
</g>
<!-- Node5&#45;&gt;Node8 -->
<g id="edge7_Node000005_Node000008" class="edge">
<title>Node5&#45;&gt;Node8</title>
<g id="a_edge7_Node000005_Node000008"><a xlink:title=" ">
<path fill="none" stroke="#63b8ff" d="M794.5,-384.75C794.5,-377.8 794.5,-367.85 794.5,-359.13"/>
<polygon fill="#63b8ff" stroke="#63b8ff" points="798,-359.09 794.5,-349.09 791,-359.09 798,-359.09"/>
</a>
</g>
</g>
<!-- Node12 -->
<g id="Node000012" class="node">
<title>Node12</title>
<g id="a_Node000012"><a xlink:href="debug_2Stream_8h.html" target="_top" xlink:title=" ">
<polygon fill="white" stroke="#666666" points="1080.5,-294 986.5,-294 986.5,-275 1080.5,-275 1080.5,-294"/>
<text text-anchor="middle" x="1033.5" y="-282" font-family="Helvetica,sans-Serif" font-size="10.00">debug/Stream.h</text>
</a>
</g>
</g>
<!-- Node5&#45;&gt;Node12 -->
<g id="edge13_Node000005_Node000012" class="edge">
<title>Node5&#45;&gt;Node12</title>
<g id="a_edge13_Node000005_Node000012"><a xlink:title=" ">
<path fill="none" stroke="#63b8ff" d="M830.12,-390.46C867.7,-385.96 927.58,-375.03 972.5,-349 992.65,-337.32 1010.43,-317.05 1021.51,-302.55"/>
<polygon fill="#63b8ff" stroke="#63b8ff" points="1024.41,-304.53 1027.51,-294.4 1018.77,-300.38 1024.41,-304.53"/>
</a>
</g>
</g>
<!-- Node17 -->
<g id="Node000017" class="node">
<title>Node17</title>
<g id="a_Node000017"><a xlink:href="globals_8h.html" target="_top" xlink:title=" ">
<polygon fill="white" stroke="#666666" points="524,-349 463,-349 463,-330 524,-330 524,-349"/>
<text text-anchor="middle" x="493.5" y="-337" font-family="Helvetica,sans-Serif" font-size="10.00">globals.h</text>
</a>
</g>
</g>
<!-- Node5&#45;&gt;Node17 -->
<g id="edge19_Node000005_Node000017" class="edge">
<title>Node5&#45;&gt;Node17</title>
<g id="a_edge19_Node000005_Node000017"><a xlink:title=" ">
<path fill="none" stroke="#63b8ff" d="M758.79,-387.21C702.52,-377.3 593.56,-358.12 534.29,-347.68"/>
<polygon fill="#63b8ff" stroke="#63b8ff" points="534.63,-344.19 524.18,-345.9 533.42,-351.08 534.63,-344.19"/>
</a>
</g>
</g>
<!-- Node28 -->
<g id="Node000028" class="node">
<title>Node28</title>
<g id="a_Node000028"><a xlink:href="sbuf_2forward_8h.html" target="_top" xlink:title=" ">
<polygon fill="white" stroke="#666666" points="1221,-74 1134,-74 1134,-55 1221,-55 1221,-74"/>
<text text-anchor="middle" x="1177.5" y="-62" font-family="Helvetica,sans-Serif" font-size="10.00">sbuf/forward.h</text>
</a>
</g>
</g>
<!-- Node5&#45;&gt;Node28 -->
<g id="edge41_Node000005_Node000028" class="edge">
<title>Node5&#45;&gt;Node28</title>
<g id="a_edge41_Node000005_Node000028"><a xlink:title=" ">
<path fill="none" stroke="#63b8ff" d="M830.21,-390.12C919.16,-380.73 1143.5,-350.59 1143.5,-285.5 1143.5,-285.5 1143.5,-285.5 1143.5,-173.5 1143.5,-140.39 1158.22,-104.1 1168.29,-83.14"/>
<polygon fill="#63b8ff" stroke="#63b8ff" points="1171.43,-84.68 1172.77,-74.17 1165.17,-81.55 1171.43,-84.68"/>
</a>
</g>
</g>
<!-- Node35 -->
<g id="Node000035" class="node">
<title>Node35</title>
<g id="a_Node000035"><a xlink:href="MemBlob_8h.html" target="_top" xlink:title=" ">
<polygon fill="white" stroke="#666666" points="284.5,-349 188.5,-349 188.5,-330 284.5,-330 284.5,-349"/>
<text text-anchor="middle" x="236.5" y="-337" font-family="Helvetica,sans-Serif" font-size="10.00">sbuf/MemBlob.h</text>
</a>
</g>
</g>
<!-- Node5&#45;&gt;Node35 -->
<g id="edge42_Node000005_Node000035" class="edge">
<title>Node5&#45;&gt;Node35</title>
<g id="a_edge42_Node000005_Node000035"><a xlink:title=" ">
<path fill="none" stroke="#63b8ff" d="M758.75,-390.1C664.76,-381.18 410.1,-356.99 294.72,-346.03"/>
<polygon fill="#63b8ff" stroke="#63b8ff" points="294.95,-342.54 284.66,-345.07 294.28,-349.5 294.95,-342.54"/>
</a>
</g>
</g>
<!-- Node37 -->
<g id="Node000037" class="node">
<title>Node37</title>
<g id="a_Node000037"><a xlink:href="sbuf_2Stats_8h.html" target="_top" xlink:title=" ">
<polygon fill="white" stroke="#666666" points="891.5,-239 817.5,-239 817.5,-220 891.5,-220 891.5,-239"/>
<text text-anchor="middle" x="854.5" y="-227" font-family="Helvetica,sans-Serif" font-size="10.00">sbuf/Stats.h</text>
</a>
</g>
</g>
<!-- Node5&#45;&gt;Node37 -->
<g id="edge46_Node000005_Node000037" class="edge">
<title>Node5&#45;&gt;Node37</title>
<g id="a_edge46_Node000005_Node000037"><a xlink:title=" ">
<path fill="none" stroke="#63b8ff" d="M819.36,-384.97C853.65,-371.67 913.98,-342.38 938.5,-294 950.55,-270.22 921.62,-252.93 894.49,-242.45"/>
<polygon fill="#63b8ff" stroke="#63b8ff" points="895.63,-239.14 885.04,-239.03 893.25,-245.72 895.63,-239.14"/>
</a>
</g>
</g>
<!-- Node38 -->
<g id="Node000038" class="node">
<title>Node38</title>
<g id="a_Node000038"><a xlink:title=" ">
<polygon fill="#e0e0e0" stroke="#999999" points="1221.5,-349 1171.5,-349 1171.5,-330 1221.5,-330 1221.5,-349"/>
<text text-anchor="middle" x="1196.5" y="-337" font-family="Helvetica,sans-Serif" font-size="10.00">climits</text>
</a>
</g>
</g>
<!-- Node5&#45;&gt;Node38 -->
<g id="edge48_Node000005_Node000038" class="edge">
<title>Node5&#45;&gt;Node38</title>
<g id="a_edge48_Node000005_Node000038"><a xlink:title=" ">
<path fill="none" stroke="#63b8ff" d="M830.21,-390.23C895.47,-384.01 1038.26,-369.26 1157.5,-349 1158.77,-348.78 1160.06,-348.56 1161.36,-348.32"/>
<polygon fill="#63b8ff" stroke="#63b8ff" points="1162.26,-351.71 1171.39,-346.33 1160.9,-344.84 1162.26,-351.71"/>
</a>
</g>
</g>
<!-- Node39 -->
<g id="Node000039" class="node">
<title>Node39</title>
<g id="a_Node000039"><a xlink:title=" ">
<polygon fill="#e0e0e0" stroke="#999999" points="1293,-349 1240,-349 1240,-330 1293,-330 1293,-349"/>
<text text-anchor="middle" x="1266.5" y="-337" font-family="Helvetica,sans-Serif" font-size="10.00">iterator</text>
</a>
</g>
</g>
<!-- Node5&#45;&gt;Node39 -->
<g id="edge50_Node000005_Node000039" class="edge">
<title>Node5&#45;&gt;Node39</title>
<g id="a_edge50_Node000005_Node000039"><a xlink:title=" ">
<path fill="none" stroke="#63b8ff" d="M830.03,-391.45C903.03,-386.89 1075.26,-374.41 1229.7,-348.9"/>
<polygon fill="#63b8ff" stroke="#63b8ff" points="1230.56,-352.31 1239.84,-347.2 1229.4,-345.4 1230.56,-352.31"/>
</a>
</g>
</g>
<!-- Node6&#45;&gt;Node7 -->
<g id="edge6_Node000006_Node000007" class="edge">
<title>Node6&#45;&gt;Node7</title>
<g id="a_edge6_Node000006_Node000007"><a xlink:title=" ">
<path fill="none" stroke="#63b8ff" d="M287.69,-277.65C359.07,-269.16 484.7,-252.91 528.5,-239 546.5,-233.29 549.09,-227.32 566.5,-220 598.12,-206.71 635.24,-194.22 661.52,-185.87"/>
<polygon fill="#63b8ff" stroke="#63b8ff" points="662.88,-189.11 671.37,-182.78 660.78,-182.44 662.88,-189.11"/>
</a>
</g>
</g>
<!-- Node9 -->
<g id="Node000009" class="node">
<title>Node9</title>
<g id="a_Node000009"><a xlink:href="Assure_8h.html" target="_top" xlink:title=" ">
<polygon fill="white" stroke="#666666" points="930,-294 845,-294 845,-275 930,-275 930,-294"/>
<text text-anchor="middle" x="887.5" y="-282" font-family="Helvetica,sans-Serif" font-size="10.00">base/Assure.h</text>
</a>
</g>
</g>
<!-- Node8&#45;&gt;Node9 -->
<g id="edge8_Node000008_Node000009" class="edge">
<title>Node8&#45;&gt;Node9</title>
<g id="a_edge8_Node000008_Node000009"><a xlink:title=" ">
<path fill="none" stroke="#63b8ff" d="M809.44,-329.98C824,-321.69 846.37,-308.94 863.43,-299.22"/>
<polygon fill="#63b8ff" stroke="#63b8ff" points="865.33,-302.16 872.29,-294.17 861.86,-296.08 865.33,-302.16"/>
</a>
</g>
</g>
<!-- Node10 -->
<g id="Node000010" class="node">
<title>Node10</title>
<g id="a_Node000010"><a xlink:href="Here_8h.html" target="_top" xlink:title=" ">
<polygon fill="white" stroke="#666666" points="799,-239 724,-239 724,-220 799,-220 799,-239"/>
<text text-anchor="middle" x="761.5" y="-227" font-family="Helvetica,sans-Serif" font-size="10.00">base/Here.h</text>
</a>
</g>
</g>
<!-- Node8&#45;&gt;Node10 -->
<g id="edge11_Node000008_Node000010" class="edge">
<title>Node8&#45;&gt;Node10</title>
<g id="a_edge11_Node000008_Node000010"><a xlink:title=" ">
<path fill="none" stroke="#63b8ff" d="M782.29,-329.86C772.15,-321.88 758.46,-309.01 752.5,-294 746.72,-279.45 750,-261.72 754.14,-248.7"/>
<polygon fill="#63b8ff" stroke="#63b8ff" points="757.52,-249.64 757.63,-239.04 750.94,-247.26 757.52,-249.64"/>
</a>
</g>
</g>
<!-- Node11 -->
<g id="Node000011" class="node">
<title>Node11</title>
<g id="a_Node000011"><a xlink:title=" ">
<polygon fill="#e0e0e0" stroke="#999999" points="827,-294 762,-294 762,-275 827,-275 827,-294"/>
<text text-anchor="middle" x="794.5" y="-282" font-family="Helvetica,sans-Serif" font-size="10.00">stdexcept</text>
</a>
</g>
</g>
<!-- Node8&#45;&gt;Node11 -->
<g id="edge12_Node000008_Node000011" class="edge">
<title>Node8&#45;&gt;Node11</title>
<g id="a_edge12_Node000008_Node000011"><a xlink:title=" ">
<path fill="none" stroke="#63b8ff" d="M794.5,-329.75C794.5,-322.8 794.5,-312.85 794.5,-304.13"/>
<polygon fill="#63b8ff" stroke="#63b8ff" points="798,-304.09 794.5,-294.09 791,-304.09 798,-304.09"/>
</a>
</g>
</g>
<!-- Node9&#45;&gt;Node10 -->
<g id="edge9_Node000009_Node000010" class="edge">
<title>Node9&#45;&gt;Node10</title>
<g id="a_edge9_Node000009_Node000010"><a xlink:title=" ">
<path fill="none" stroke="#63b8ff" d="M867.26,-274.98C846.8,-266.38 814.97,-252.99 791.57,-243.15"/>
<polygon fill="#63b8ff" stroke="#63b8ff" points="792.69,-239.82 782.11,-239.17 789.97,-246.27 792.69,-239.82"/>
</a>
</g>
</g>
<!-- Node10&#45;&gt;Node7 -->
<g id="edge10_Node000010_Node000007" class="edge">
<title>Node10&#45;&gt;Node7</title>
<g id="a_edge10_Node000010_Node000007"><a xlink:title=" ">
<path fill="none" stroke="#63b8ff" d="M750.9,-219.98C741.04,-212.07 726.15,-200.11 714.28,-190.58"/>
<polygon fill="#63b8ff" stroke="#63b8ff" points="716.29,-187.7 706.3,-184.17 711.9,-193.16 716.29,-187.7"/>
</a>
</g>
</g>
<!-- Node12&#45;&gt;Node10 -->
<g id="edge14_Node000012_Node000010" class="edge">
<title>Node12&#45;&gt;Node10</title>
<g id="a_edge14_Node000012_Node000010"><a xlink:title=" ">
<path fill="none" stroke="#63b8ff" d="M989.8,-274.98C940.49,-265.38 860.52,-249.79 809.5,-239.85"/>
<polygon fill="#63b8ff" stroke="#63b8ff" points="809.87,-236.36 799.39,-237.88 808.54,-243.23 809.87,-236.36"/>
</a>
</g>
</g>
<!-- Node13 -->
<g id="Node000013" class="node">
<title>Node13</title>
<g id="a_Node000013"><a xlink:href="AllocatorProxy_8h.html" target="_top" xlink:title=" ">
<polygon fill="white" stroke="#666666" points="969.5,-184 845.5,-184 845.5,-165 969.5,-165 969.5,-184"/>
<text text-anchor="middle" x="907.5" y="-172" font-family="Helvetica,sans-Serif" font-size="10.00">mem/AllocatorProxy.h</text>
</a>
</g>
</g>
<!-- Node12&#45;&gt;Node13 -->
<g id="edge15_Node000012_Node000013" class="edge">
<title>Node12&#45;&gt;Node13</title>
<g id="a_edge15_Node000012_Node000013"><a xlink:title=" ">
<path fill="none" stroke="#63b8ff" d="M1039.59,-274.82C1047.96,-261.71 1060.69,-236.63 1048.5,-220 1032.42,-198.06 1005.49,-186.66 979.46,-180.83"/>
<polygon fill="#63b8ff" stroke="#63b8ff" points="980.04,-177.38 969.54,-178.86 978.67,-184.25 980.04,-177.38"/>
</a>
</g>
</g>
<!-- Node14 -->
<g id="Node000014" class="node">
<title>Node14</title>
<g id="a_Node000014"><a xlink:title=" ">
<polygon fill="#e0e0e0" stroke="#999999" points="953.5,-19 893.5,-19 893.5,0 953.5,0 953.5,-19"/>
<text text-anchor="middle" x="923.5" y="-7" font-family="Helvetica,sans-Serif" font-size="10.00">iostream</text>
</a>
</g>
</g>
<!-- Node12&#45;&gt;Node14 -->
<g id="edge16_Node000012_Node000014" class="edge">
<title>Node12&#45;&gt;Node14</title>
<g id="a_edge16_Node000012_Node000014"><a xlink:title=" ">
<path fill="none" stroke="#63b8ff" d="M1044.44,-275C1064.58,-258.29 1105.5,-218.99 1105.5,-175.5 1105.5,-175.5 1105.5,-175.5 1105.5,-118.5 1105.5,-52.92 1017.02,-26.28 963.44,-16.17"/>
<polygon fill="#63b8ff" stroke="#63b8ff" points="964.01,-12.72 953.55,-14.41 962.79,-19.61 964.01,-12.72"/>
</a>
</g>
</g>
<!-- Node15 -->
<g id="Node000015" class="node">
<title>Node15</title>
<g id="a_Node000015"><a xlink:title=" ">
<polygon fill="#e0e0e0" stroke="#999999" points="965.5,-239 909.5,-239 909.5,-220 965.5,-220 965.5,-239"/>
<text text-anchor="middle" x="937.5" y="-227" font-family="Helvetica,sans-Serif" font-size="10.00">sstream</text>
</a>
</g>
</g>
<!-- Node12&#45;&gt;Node15 -->
<g id="edge17_Node000012_Node000015" class="edge">
<title>Node12&#45;&gt;Node15</title>
<g id="a_edge17_Node000012_Node000015"><a xlink:title=" ">
<path fill="none" stroke="#63b8ff" d="M1018.08,-274.98C1003.05,-266.69 979.96,-253.94 962.34,-244.22"/>
<polygon fill="#63b8ff" stroke="#63b8ff" points="963.65,-240.94 953.2,-239.17 960.27,-247.07 963.65,-240.94"/>
</a>
</g>
</g>
<!-- Node16 -->
<g id="Node000016" class="node">
<title>Node16</title>
<g id="a_Node000016"><a xlink:title=" ">
<polygon fill="#e0e0e0" stroke="#999999" points="1039.5,-239 983.5,-239 983.5,-220 1039.5,-220 1039.5,-239"/>
<text text-anchor="middle" x="1011.5" y="-227" font-family="Helvetica,sans-Serif" font-size="10.00">iomanip</text>
</a>
</g>
</g>
<!-- Node12&#45;&gt;Node16 -->
<g id="edge18_Node000012_Node000016" class="edge">
<title>Node12&#45;&gt;Node16</title>
<g id="a_edge18_Node000012_Node000016"><a xlink:title=" ">
<path fill="none" stroke="#63b8ff" d="M1029.87,-274.75C1026.92,-267.65 1022.67,-257.4 1018.99,-248.56"/>
<polygon fill="#63b8ff" stroke="#63b8ff" points="1022.13,-246.98 1015.07,-239.09 1015.67,-249.67 1022.13,-246.98"/>
</a>
</g>
</g>
<!-- Node18 -->
<g id="Node000018" class="node">
<title>Node18</title>
<g id="a_Node000018"><a xlink:href="CacheDigest_8h.html" target="_top" xlink:title=" ">
<polygon fill="white" stroke="#666666" points="667,-294 580,-294 580,-275 667,-275 667,-294"/>
<text text-anchor="middle" x="623.5" y="-282" font-family="Helvetica,sans-Serif" font-size="10.00">CacheDigest.h</text>
</a>
</g>
</g>
<!-- Node17&#45;&gt;Node18 -->
<g id="edge20_Node000017_Node000018" class="edge">
<title>Node17&#45;&gt;Node18</title>
<g id="a_edge20_Node000017_Node000018"><a xlink:title=" ">
<path fill="none" stroke="#63b8ff" d="M514.39,-329.98C535.58,-321.34 568.63,-307.87 592.8,-298.02"/>
<polygon fill="#63b8ff" stroke="#63b8ff" points="594.29,-301.19 602.23,-294.17 591.65,-294.7 594.29,-301.19"/>
</a>
</g>
</g>
<!-- Node21 -->
<g id="Node000021" class="node">
<title>Node21</title>
<g id="a_Node000021"><a xlink:href="hash_8h.html" target="_top" xlink:title=" ">
<polygon fill="white" stroke="#666666" points="373,-184 324,-184 324,-165 373,-165 373,-184"/>
<text text-anchor="middle" x="348.5" y="-172" font-family="Helvetica,sans-Serif" font-size="10.00">hash.h</text>
</a>
</g>
</g>
<!-- Node17&#45;&gt;Node21 -->
<g id="edge38_Node000017_Node000021" class="edge">
<title>Node17&#45;&gt;Node21</title>
<g id="a_edge38_Node000017_Node000021"><a xlink:title=" ">
<path fill="none" stroke="#63b8ff" d="M462.86,-334.34C421.16,-327.98 349.96,-314.38 334.5,-294 312.05,-264.41 327.92,-218.14 339.44,-193.07"/>
<polygon fill="#63b8ff" stroke="#63b8ff" points="342.62,-194.54 343.84,-184.01 336.32,-191.48 342.62,-194.54"/>
</a>
</g>
</g>
<!-- Node32 -->
<g id="Node000032" class="node">
<title>Node32</title>
<g id="a_Node000032"><a xlink:href="defines_8h.html" target="_top" xlink:title=" ">
<polygon fill="white" stroke="#666666" points="485,-294 424,-294 424,-275 485,-275 485,-294"/>
<text text-anchor="middle" x="454.5" y="-282" font-family="Helvetica,sans-Serif" font-size="10.00">defines.h</text>
</a>
</g>
</g>
<!-- Node17&#45;&gt;Node32 -->
<g id="edge37_Node000017_Node000032" class="edge">
<title>Node17&#45;&gt;Node32</title>
<g id="a_edge37_Node000017_Node000032"><a xlink:title=" ">
<path fill="none" stroke="#63b8ff" d="M487.06,-329.75C481.61,-322.34 473.64,-311.5 466.94,-302.41"/>
<polygon fill="#63b8ff" stroke="#63b8ff" points="469.57,-300.07 460.82,-294.09 463.93,-304.22 469.57,-300.07"/>
</a>
</g>
</g>
<!-- Node33 -->
<g id="Node000033" class="node">
<title>Node33</title>
<g id="a_Node000033"><a xlink:href="IoStats_8h.html" target="_top" xlink:title=" ">
<polygon fill="white" stroke="#666666" points="562,-294 503,-294 503,-275 562,-275 562,-294"/>
<text text-anchor="middle" x="532.5" y="-282" font-family="Helvetica,sans-Serif" font-size="10.00">IoStats.h</text>
</a>
</g>
</g>
<!-- Node17&#45;&gt;Node33 -->
<g id="edge39_Node000017_Node000033" class="edge">
<title>Node17&#45;&gt;Node33</title>
<g id="a_edge39_Node000017_Node000033"><a xlink:title=" ">
<path fill="none" stroke="#63b8ff" d="M499.94,-329.75C505.39,-322.34 513.36,-311.5 520.06,-302.41"/>
<polygon fill="#63b8ff" stroke="#63b8ff" points="523.07,-304.22 526.18,-294.09 517.43,-300.07 523.07,-304.22"/>
</a>
</g>
</g>
<!-- Node34 -->
<g id="Node000034" class="node">
<title>Node34</title>
<g id="a_Node000034"><a xlink:href="rfc2181_8h.html" target="_top" xlink:title=" ">
<polygon fill="white" stroke="#666666" points="405.5,-294 343.5,-294 343.5,-275 405.5,-275 405.5,-294"/>
<text text-anchor="middle" x="374.5" y="-282" font-family="Helvetica,sans-Serif" font-size="10.00">rfc2181.h</text>
</a>
</g>
</g>
<!-- Node17&#45;&gt;Node34 -->
<g id="edge40_Node000017_Node000034" class="edge">
<title>Node17&#45;&gt;Node34</title>
<g id="a_edge40_Node000017_Node000034"><a xlink:title=" ">
<path fill="none" stroke="#63b8ff" d="M474.38,-329.98C455.15,-321.42 425.27,-308.11 403.19,-298.28"/>
<polygon fill="#63b8ff" stroke="#63b8ff" points="404.53,-295.04 393.97,-294.17 401.68,-301.44 404.53,-295.04"/>
</a>
</g>
</g>
<!-- Node19 -->
<g id="Node000019" class="node">
<title>Node19</title>
<g id="a_Node000019"><a xlink:href="mem_2forward_8h.html" target="_top" xlink:title=" ">
<polygon fill="white" stroke="#666666" points="667.5,-239 575.5,-239 575.5,-220 667.5,-220 667.5,-239"/>
<text text-anchor="middle" x="621.5" y="-227" font-family="Helvetica,sans-Serif" font-size="10.00">mem/forward.h</text>
</a>
</g>
</g>
<!-- Node18&#45;&gt;Node19 -->
<g id="edge21_Node000018_Node000019" class="edge">
<title>Node18&#45;&gt;Node19</title>
<g id="a_edge21_Node000018_Node000019"><a xlink:title=" ">
<path fill="none" stroke="#63b8ff" d="M623.17,-274.75C622.91,-267.8 622.53,-257.85 622.2,-249.13"/>
<polygon fill="#63b8ff" stroke="#63b8ff" points="625.7,-248.95 621.82,-239.09 618.7,-249.21 625.7,-248.95"/>
</a>
</g>
</g>
<!-- Node20 -->
<g id="Node000020" class="node">
<title>Node20</title>
<g id="a_Node000020"><a xlink:href="store__key__md5_8h.html" target="_top" xlink:title=" ">
<polygon fill="white" stroke="#666666" points="519.5,-239 419.5,-239 419.5,-220 519.5,-220 519.5,-239"/>
<text text-anchor="middle" x="469.5" y="-227" font-family="Helvetica,sans-Serif" font-size="10.00">store_key_md5.h</text>
</a>
</g>
</g>
<!-- Node18&#45;&gt;Node20 -->
<g id="edge24_Node000018_Node000020" class="edge">
<title>Node18&#45;&gt;Node20</title>
<g id="a_edge24_Node000018_Node000020"><a xlink:title=" ">
<path fill="none" stroke="#63b8ff" d="M598.76,-274.98C573.13,-266.16 532.87,-252.31 504.09,-242.41"/>
<polygon fill="#63b8ff" stroke="#63b8ff" points="505.03,-239.03 494.44,-239.08 502.75,-245.65 505.03,-239.03"/>
</a>
</g>
</g>
<!-- Node19&#45;&gt;Node7 -->
<g id="edge23_Node000019_Node000007" class="edge">
<title>Node19&#45;&gt;Node7</title>
<g id="a_edge23_Node000019_Node000007"><a xlink:title=" ">
<path fill="none" stroke="#63b8ff" d="M633.39,-219.98C644.65,-211.92 661.79,-199.65 675.21,-190.03"/>
<polygon fill="#63b8ff" stroke="#63b8ff" points="677.3,-192.84 683.39,-184.17 673.23,-187.15 677.3,-192.84"/>
</a>
</g>
</g>
<!-- Node19&#45;&gt;Node13 -->
<g id="edge22_Node000019_Node000013" class="edge">
<title>Node19&#45;&gt;Node13</title>
<g id="a_edge22_Node000019_Node000013"><a xlink:title=" ">
<path fill="none" stroke="#63b8ff" d="M667.45,-219.98C717.44,-210.72 797.39,-195.9 851.14,-185.94"/>
<polygon fill="#63b8ff" stroke="#63b8ff" points="851.99,-189.35 861.19,-184.08 850.72,-182.46 851.99,-189.35"/>
</a>
</g>
</g>
<!-- Node20&#45;&gt;Node21 -->
<g id="edge25_Node000020_Node000021" class="edge">
<title>Node20&#45;&gt;Node21</title>
<g id="a_edge25_Node000020_Node000021"><a xlink:title=" ">
<path fill="none" stroke="#63b8ff" d="M450.06,-219.98C430.51,-211.42 400.12,-198.11 377.68,-188.28"/>
<polygon fill="#63b8ff" stroke="#63b8ff" points="378.86,-184.98 368.29,-184.17 376.05,-191.39 378.86,-184.98"/>
</a>
</g>
</g>
<!-- Node22 -->
<g id="Node000022" class="node">
<title>Node22</title>
<g id="a_Node000022"><a xlink:href="http_2forward_8h.html" target="_top" xlink:title=" ">
<polygon fill="white" stroke="#666666" points="636.5,-184 550.5,-184 550.5,-165 636.5,-165 636.5,-184"/>
<text text-anchor="middle" x="593.5" y="-172" font-family="Helvetica,sans-Serif" font-size="10.00">http/forward.h</text>
</a>
</g>
</g>
<!-- Node20&#45;&gt;Node22 -->
<g id="edge26_Node000020_Node000022" class="edge">
<title>Node20&#45;&gt;Node22</title>
<g id="a_edge26_Node000020_Node000022"><a xlink:title=" ">
<path fill="none" stroke="#63b8ff" d="M489.42,-219.98C509.55,-211.38 540.88,-197.99 563.91,-188.15"/>
<polygon fill="#63b8ff" stroke="#63b8ff" points="565.4,-191.32 573.21,-184.17 562.64,-184.88 565.4,-191.32"/>
</a>
</g>
</g>
<!-- Node31 -->
<g id="Node000031" class="node">
<title>Node31</title>
<g id="a_Node000031"><a xlink:href="store_2forward_8h.html" target="_top" xlink:title=" ">
<polygon fill="white" stroke="#666666" points="515,-184 424,-184 424,-165 515,-165 515,-184"/>
<text text-anchor="middle" x="469.5" y="-172" font-family="Helvetica,sans-Serif" font-size="10.00">store/forward.h</text>
</a>
</g>
</g>
<!-- Node20&#45;&gt;Node31 -->
<g id="edge36_Node000020_Node000031" class="edge">
<title>Node20&#45;&gt;Node31</title>
<g id="a_edge36_Node000020_Node000031"><a xlink:title=" ">
<path fill="none" stroke="#63b8ff" d="M469.5,-219.75C469.5,-212.8 469.5,-202.85 469.5,-194.13"/>
<polygon fill="#63b8ff" stroke="#63b8ff" points="473,-194.09 469.5,-184.09 466,-194.09 473,-194.09"/>
</a>
</g>
</g>
<!-- Node23 -->
<g id="Node000023" class="node">
<title>Node23</title>
<g id="a_Node000023"><a xlink:href="http_2one_2forward_8h.html" target="_top" xlink:title=" ">
<polygon fill="white" stroke="#666666" points="778,-129 671,-129 671,-110 778,-110 778,-129"/>
<text text-anchor="middle" x="724.5" y="-117" font-family="Helvetica,sans-Serif" font-size="10.00">http/one/forward.h</text>
</a>
</g>
</g>
<!-- Node22&#45;&gt;Node23 -->
<g id="edge27_Node000022_Node000023" class="edge">
<title>Node22&#45;&gt;Node23</title>
<g id="a_edge27_Node000022_Node000023"><a xlink:title=" ">
<path fill="none" stroke="#63b8ff" d="M614.55,-164.98C635.91,-156.34 669.2,-142.87 693.56,-133.02"/>
<polygon fill="#63b8ff" stroke="#63b8ff" points="695.11,-136.17 703.07,-129.17 692.49,-129.68 695.11,-136.17"/>
</a>
</g>
</g>
<!-- Node24 -->
<g id="Node000024" class="node">
<title>Node24</title>
<g id="a_Node000024"><a xlink:href="RefCount_8h.html" target="_top" xlink:title=" ">
<polygon fill="white" stroke="#666666" points="716,-74 619,-74 619,-55 716,-55 716,-74"/>
<text text-anchor="middle" x="667.5" y="-62" font-family="Helvetica,sans-Serif" font-size="10.00">base/RefCount.h</text>
</a>
</g>
</g>
<!-- Node23&#45;&gt;Node24 -->
<g id="edge28_Node000023_Node000024" class="edge">
<title>Node23&#45;&gt;Node24</title>
<g id="a_edge28_Node000023_Node000024"><a xlink:title=" ">
<path fill="none" stroke="#63b8ff" d="M715.34,-109.98C707,-102.23 694.47,-90.58 684.32,-81.14"/>
<polygon fill="#63b8ff" stroke="#63b8ff" points="686.53,-78.42 676.82,-74.17 681.76,-83.54 686.53,-78.42"/>
</a>
</g>
</g>
<!-- Node27 -->
<g id="Node000027" class="node">
<title>Node27</title>
<g id="a_Node000027"><a xlink:href="parser_2forward_8h.html" target="_top" xlink:title=" ">
<polygon fill="white" stroke="#666666" points="831,-74 734,-74 734,-55 831,-55 831,-74"/>
<text text-anchor="middle" x="782.5" y="-62" font-family="Helvetica,sans-Serif" font-size="10.00">parser/forward.h</text>
</a>
</g>
</g>
<!-- Node23&#45;&gt;Node27 -->
<g id="edge32_Node000023_Node000027" class="edge">
<title>Node23&#45;&gt;Node27</title>
<g id="a_edge32_Node000023_Node000027"><a xlink:title=" ">
<path fill="none" stroke="#63b8ff" d="M733.82,-109.98C742.31,-102.23 755.06,-90.58 765.38,-81.14"/>
<polygon fill="#63b8ff" stroke="#63b8ff" points="767.99,-83.5 773.01,-74.17 763.27,-78.33 767.99,-83.5"/>
</a>
</g>
</g>
<!-- Node23&#45;&gt;Node28 -->
<g id="edge33_Node000023_Node000028" class="edge">
<title>Node23&#45;&gt;Node28</title>
<g id="a_edge33_Node000023_Node000028"><a xlink:title=" ">
<path fill="none" stroke="#63b8ff" d="M778.24,-112.21C865.49,-102 1036.93,-81.95 1124.01,-71.76"/>
<polygon fill="#63b8ff" stroke="#63b8ff" points="1124.42,-75.23 1133.95,-70.6 1123.61,-68.28 1124.42,-75.23"/>
</a>
</g>
</g>
<!-- Node24&#45;&gt;Node14 -->
<g id="edge30_Node000024_Node000014" class="edge">
<title>Node24&#45;&gt;Node14</title>
<g id="a_edge30_Node000024_Node000014"><a xlink:title=" ">
<path fill="none" stroke="#63b8ff" d="M708.63,-54.98C756.69,-45.03 835.69,-28.68 883.34,-18.82"/>
<polygon fill="#63b8ff" stroke="#63b8ff" points="884.21,-22.21 893.29,-16.75 882.79,-15.35 884.21,-22.21"/>
</a>
</g>
</g>
<!-- Node25 -->
<g id="Node000025" class="node">
<title>Node25</title>
<g id="a_Node000025"><a xlink:href="Lock_8h.html" target="_top" xlink:title=" ">
<polygon fill="white" stroke="#666666" points="743.5,-19 669.5,-19 669.5,0 743.5,0 743.5,-19"/>
<text text-anchor="middle" x="706.5" y="-7" font-family="Helvetica,sans-Serif" font-size="10.00">base/Lock.h</text>
</a>
</g>
</g>
<!-- Node24&#45;&gt;Node25 -->
<g id="edge29_Node000024_Node000025" class="edge">
<title>Node24&#45;&gt;Node25</title>
<g id="a_edge29_Node000024_Node000025"><a xlink:title=" ">
<path fill="none" stroke="#63b8ff" d="M673.94,-54.75C679.39,-47.34 687.36,-36.5 694.06,-27.41"/>
<polygon fill="#63b8ff" stroke="#63b8ff" points="697.07,-29.22 700.18,-19.09 691.43,-25.07 697.07,-29.22"/>
</a>
</g>
</g>
<!-- Node26 -->
<g id="Node000026" class="node">
<title>Node26</title>
<g id="a_Node000026"><a xlink:title=" ">
<polygon fill="#e0e0e0" stroke="#999999" points="651,-19 606,-19 606,0 651,0 651,-19"/>
<text text-anchor="middle" x="628.5" y="-7" font-family="Helvetica,sans-Serif" font-size="10.00">utility</text>
</a>
</g>
</g>
<!-- Node24&#45;&gt;Node26 -->
<g id="edge31_Node000024_Node000026" class="edge">
<title>Node24&#45;&gt;Node26</title>
<g id="a_edge31_Node000024_Node000026"><a xlink:title=" ">
<path fill="none" stroke="#63b8ff" d="M661.06,-54.75C655.61,-47.34 647.64,-36.5 640.94,-27.41"/>
<polygon fill="#63b8ff" stroke="#63b8ff" points="643.57,-25.07 634.82,-19.09 637.93,-29.22 643.57,-25.07"/>
</a>
</g>
</g>
<!-- Node29 -->
<g id="Node000029" class="node">
<title>Node29</title>
<g id="a_Node000029"><a xlink:title=" ">
<polygon fill="#e0e0e0" stroke="#999999" points="1243,-19 1178,-19 1178,0 1243,0 1243,-19"/>
<text text-anchor="middle" x="1210.5" y="-7" font-family="Helvetica,sans-Serif" font-size="10.00">functional</text>
</a>
</g>
</g>
<!-- Node28&#45;&gt;Node29 -->
<g id="edge34_Node000028_Node000029" class="edge">
<title>Node28&#45;&gt;Node29</title>
<g id="a_edge34_Node000028_Node000029"><a xlink:title=" ">
<path fill="none" stroke="#63b8ff" d="M1182.95,-54.75C1187.51,-47.42 1194.17,-36.73 1199.79,-27.7"/>
<polygon fill="#63b8ff" stroke="#63b8ff" points="1202.84,-29.43 1205.15,-19.09 1196.9,-25.73 1202.84,-29.43"/>
</a>
</g>
</g>
<!-- Node30 -->
<g id="Node000030" class="node">
<title>Node30</title>
<g id="a_Node000030"><a xlink:title=" ">
<polygon fill="#e0e0e0" stroke="#999999" points="1159.5,-19 1127.5,-19 1127.5,0 1159.5,0 1159.5,-19"/>
<text text-anchor="middle" x="1143.5" y="-7" font-family="Helvetica,sans-Serif" font-size="10.00">list</text>
</a>
</g>
</g>
<!-- Node28&#45;&gt;Node30 -->
<g id="edge35_Node000028_Node000030" class="edge">
<title>Node28&#45;&gt;Node30</title>
<g id="a_edge35_Node000028_Node000030"><a xlink:title=" ">
<path fill="none" stroke="#63b8ff" d="M1171.89,-54.75C1167.18,-47.42 1160.33,-36.73 1154.53,-27.7"/>
<polygon fill="#63b8ff" stroke="#63b8ff" points="1157.36,-25.62 1149.01,-19.09 1151.46,-29.4 1157.36,-25.62"/>
</a>
</g>
</g>
<!-- Node35&#45;&gt;Node6 -->
<g id="edge43_Node000035_Node000006" class="edge">
<title>Node35&#45;&gt;Node6</title>
<g id="a_edge43_Node000035_Node000006"><a xlink:title=" ">
<path fill="none" stroke="#63b8ff" d="M236.5,-329.75C236.5,-322.8 236.5,-312.85 236.5,-304.13"/>
<polygon fill="#63b8ff" stroke="#63b8ff" points="240,-304.09 236.5,-294.09 233,-304.09 240,-304.09"/>
</a>
</g>
</g>
<!-- Node35&#45;&gt;Node24 -->
<g id="edge44_Node000035_Node000024" class="edge">
<title>Node35&#45;&gt;Node24</title>
<g id="a_edge44_Node000035_Node000024"><a xlink:title=" ">
<path fill="none" stroke="#63b8ff" d="M188.46,-331.29C144.53,-323.77 83.84,-310.74 66.5,-294 45.31,-273.53 47.5,-259.96 47.5,-230.5 47.5,-230.5 47.5,-230.5 47.5,-173.5 47.5,-116.89 453.8,-81.16 608.59,-69.6"/>
<polygon fill="#63b8ff" stroke="#63b8ff" points="609.13,-73.07 618.85,-68.84 608.62,-66.09 609.13,-73.07"/>
</a>
</g>
</g>
<!-- Node36 -->
<g id="Node000036" class="node">
<title>Node36</title>
<g id="a_Node000036"><a xlink:title=" ">
<polygon fill="#e0e0e0" stroke="#999999" points="167.5,-294 75.5,-294 75.5,-275 167.5,-275 167.5,-294"/>
<text text-anchor="middle" x="121.5" y="-282" font-family="Helvetica,sans-Serif" font-size="10.00">mem/forward.h</text>
</a>
</g>
</g>
<!-- Node35&#45;&gt;Node36 -->
<g id="edge45_Node000035_Node000036" class="edge">
<title>Node35&#45;&gt;Node36</title>
<g id="a_edge45_Node000035_Node000036"><a xlink:title=" ">
<path fill="none" stroke="#63b8ff" d="M218.02,-329.98C199.52,-321.46 170.82,-308.23 149.52,-298.41"/>
<polygon fill="#63b8ff" stroke="#63b8ff" points="150.86,-295.18 140.31,-294.17 147.93,-301.53 150.86,-295.18"/>
</a>
</g>
</g>
<!-- Node37&#45;&gt;Node7 -->
<g id="edge47_Node000037_Node000007" class="edge">
<title>Node37&#45;&gt;Node7</title>
<g id="a_edge47_Node000037_Node000007"><a xlink:title=" ">
<path fill="none" stroke="#63b8ff" d="M828.95,-219.98C801.9,-210.97 759.07,-196.69 729.25,-186.75"/>
<polygon fill="#63b8ff" stroke="#63b8ff" points="730.27,-183.4 719.68,-183.56 728.06,-190.04 730.27,-183.4"/>
</a>
</g>
</g>
</g>
</svg>
