<?xml version="1.0" encoding="UTF-8" standalone="no"?>
<!DOCTYPE svg PUBLIC "-//W3C//DTD SVG 1.1//EN"
 "http://www.w3.org/Graphics/SVG/1.1/DTD/svg11.dtd">
<!-- Generated by graphviz version 2.43.0 (0)
 -->
<!-- Title: squid/src/auth/SchemesConfig.h Pages: 1 -->
<svg width="1858pt" height="159pt"
 viewBox="0.00 0.00 1857.50 159.00" xmlns="http://www.w3.org/2000/svg" xmlns:xlink="http://www.w3.org/1999/xlink">
<g id="graph0" class="graph" transform="scale(1 1) rotate(0) translate(4 155)">
<title>squid/src/auth/SchemesConfig.h</title>
<!-- Node1 -->
<g id="Node000001" class="node">
<title>Node1</title>
<g id="a_Node000001"><a xlink:title=" ">
<polygon fill="#999999" stroke="#666666" points="1154,-151 982,-151 982,-132 1154,-132 1154,-151"/>
<text text-anchor="middle" x="1068" y="-139" font-family="Helvetica,sans-Serif" font-size="10.00">squid/src/auth/SchemesConfig.h</text>
</a>
</g>
</g>
<!-- Node2 -->
<g id="Node000002" class="node">
<title>Node2</title>
<g id="a_Node000002"><a xlink:href="auth_2Config_8h.html" target="_top" xlink:title=" ">
<polygon fill="white" stroke="#666666" points="1063,-90.5 935,-90.5 935,-71.5 1063,-71.5 1063,-90.5"/>
<text text-anchor="middle" x="999" y="-78.5" font-family="Helvetica,sans-Serif" font-size="10.00">squid/src/auth/Config.h</text>
</a>
</g>
</g>
<!-- Node1&#45;&gt;Node2 -->
<g id="edge1_Node000001_Node000002" class="edge">
<title>Node1&#45;&gt;Node2</title>
<g id="a_edge1_Node000001_Node000002"><a xlink:title=" ">
<path fill="none" stroke="#63b8ff" d="M1049.98,-125.22C1037,-114.21 1019.94,-99.75 1009.22,-90.67"/>
<polygon fill="#63b8ff" stroke="#63b8ff" points="1047.93,-128.07 1057.82,-131.87 1052.45,-122.73 1047.93,-128.07"/>
</a>
</g>
</g>
<!-- Node15 -->
<g id="Node000015" class="node">
<title>Node15</title>
<g id="a_Node000015"><a xlink:href="stub__libauth_8cc.html" target="_top" xlink:title=" ">
<polygon fill="white" stroke="#666666" points="1192.5,-96 1081.5,-96 1081.5,-66 1192.5,-66 1192.5,-96"/>
<text text-anchor="start" x="1089.5" y="-84" font-family="Helvetica,sans-Serif" font-size="10.00">squid/src/tests/stub</text>
<text text-anchor="middle" x="1137" y="-73" font-family="Helvetica,sans-Serif" font-size="10.00">_libauth.cc</text>
</a>
</g>
</g>
<!-- Node1&#45;&gt;Node15 -->
<g id="edge14_Node000001_Node000015" class="edge">
<title>Node1&#45;&gt;Node15</title>
<g id="a_edge14_Node000001_Node000015"><a xlink:title=" ">
<path fill="none" stroke="#63b8ff" d="M1086.01,-125.23C1096.63,-116.23 1109.98,-104.91 1120.35,-96.11"/>
<polygon fill="#63b8ff" stroke="#63b8ff" points="1083.55,-122.73 1078.18,-131.87 1088.07,-128.07 1083.55,-122.73"/>
</a>
</g>
</g>
<!-- Node3 -->
<g id="Node000003" class="node">
<title>Node3</title>
<g id="a_Node000003"><a xlink:href="auth_2Config_8cc.html" target="_top" xlink:title=" ">
<polygon fill="white" stroke="#666666" points="132,-24.5 0,-24.5 0,-5.5 132,-5.5 132,-24.5"/>
<text text-anchor="middle" x="66" y="-12.5" font-family="Helvetica,sans-Serif" font-size="10.00">squid/src/auth/Config.cc</text>
</a>
</g>
</g>
<!-- Node2&#45;&gt;Node3 -->
<g id="edge2_Node000002_Node000003" class="edge">
<title>Node2&#45;&gt;Node3</title>
<g id="a_edge2_Node000002_Node000003"><a xlink:title=" ">
<path fill="none" stroke="#63b8ff" d="M924.58,-78.82C775.41,-75.77 429.38,-65.18 141,-30 129.82,-28.64 117.8,-26.64 106.73,-24.57"/>
<polygon fill="#63b8ff" stroke="#63b8ff" points="924.91,-82.33 934.98,-79.03 925.05,-75.33 924.91,-82.33"/>
</a>
</g>
</g>
<!-- Node4 -->
<g id="Node000004" class="node">
<title>Node4</title>
<g id="a_Node000004"><a xlink:href="CredentialsCache_8cc.html" target="_top" xlink:title=" ">
<polygon fill="white" stroke="#666666" points="293.5,-30 150.5,-30 150.5,0 293.5,0 293.5,-30"/>
<text text-anchor="start" x="158.5" y="-18" font-family="Helvetica,sans-Serif" font-size="10.00">squid/src/auth/Credentials</text>
<text text-anchor="middle" x="222" y="-7" font-family="Helvetica,sans-Serif" font-size="10.00">Cache.cc</text>
</a>
</g>
</g>
<!-- Node2&#45;&gt;Node4 -->
<g id="edge3_Node000002_Node000004" class="edge">
<title>Node2&#45;&gt;Node4</title>
<g id="a_edge3_Node000002_Node000004"><a xlink:title=" ">
<path fill="none" stroke="#63b8ff" d="M924.94,-77.1C797.51,-71.57 528.68,-57.54 303,-30 300.03,-29.64 296.99,-29.24 293.93,-28.82"/>
<polygon fill="#63b8ff" stroke="#63b8ff" points="924.84,-80.6 934.98,-77.53 925.14,-73.61 924.84,-80.6"/>
</a>
</g>
</g>
<!-- Node5 -->
<g id="Node000005" class="node">
<title>Node5</title>
<g id="a_Node000005"><a xlink:href="auth_2Gadgets_8cc.html" target="_top" xlink:title=" ">
<polygon fill="white" stroke="#666666" points="454,-24.5 312,-24.5 312,-5.5 454,-5.5 454,-24.5"/>
<text text-anchor="middle" x="383" y="-12.5" font-family="Helvetica,sans-Serif" font-size="10.00">squid/src/auth/Gadgets.cc</text>
</a>
</g>
</g>
<!-- Node2&#45;&gt;Node5 -->
<g id="edge4_Node000002_Node000005" class="edge">
<title>Node2&#45;&gt;Node5</title>
<g id="a_edge4_Node000002_Node000005"><a xlink:title=" ">
<path fill="none" stroke="#63b8ff" d="M924.82,-74.97C821.18,-67.51 627.28,-52 463,-30 451.68,-28.48 439.51,-26.53 428.17,-24.56"/>
<polygon fill="#63b8ff" stroke="#63b8ff" points="924.64,-78.47 934.87,-75.69 925.14,-71.49 924.64,-78.47"/>
</a>
</g>
</g>
<!-- Node6 -->
<g id="Node000006" class="node">
<title>Node6</title>
<g id="a_Node000006"><a xlink:href="SchemeConfig_8cc.html" target="_top" xlink:title=" ">
<polygon fill="white" stroke="#666666" points="643.5,-24.5 472.5,-24.5 472.5,-5.5 643.5,-5.5 643.5,-24.5"/>
<text text-anchor="middle" x="558" y="-12.5" font-family="Helvetica,sans-Serif" font-size="10.00">squid/src/auth/SchemeConfig.cc</text>
</a>
</g>
</g>
<!-- Node2&#45;&gt;Node6 -->
<g id="edge5_Node000002_Node000006" class="edge">
<title>Node2&#45;&gt;Node6</title>
<g id="a_edge5_Node000002_Node000006"><a xlink:title=" ">
<path fill="none" stroke="#63b8ff" d="M929.6,-70.03C859.74,-59.98 748.88,-43.99 653,-30 640.88,-28.23 627.88,-26.32 615.52,-24.5"/>
<polygon fill="#63b8ff" stroke="#63b8ff" points="929.21,-73.51 939.6,-71.47 930.21,-66.58 929.21,-73.51"/>
</a>
</g>
</g>
<!-- Node7 -->
<g id="Node000007" class="node">
<title>Node7</title>
<g id="a_Node000007"><a xlink:href="SchemesConfig_8cc.html" target="_top" xlink:title=" ">
<polygon fill="white" stroke="#666666" points="838,-24.5 662,-24.5 662,-5.5 838,-5.5 838,-24.5"/>
<text text-anchor="middle" x="750" y="-12.5" font-family="Helvetica,sans-Serif" font-size="10.00">squid/src/auth/SchemesConfig.cc</text>
</a>
</g>
</g>
<!-- Node2&#45;&gt;Node7 -->
<g id="edge6_Node000002_Node000007" class="edge">
<title>Node2&#45;&gt;Node7</title>
<g id="a_edge6_Node000002_Node000007"><a xlink:title=" ">
<path fill="none" stroke="#63b8ff" d="M955.98,-68.94C906.89,-56.32 827.66,-35.96 783.13,-24.51"/>
<polygon fill="#63b8ff" stroke="#63b8ff" points="955.12,-72.34 965.68,-71.44 956.86,-65.56 955.12,-72.34"/>
</a>
</g>
</g>
<!-- Node8 -->
<g id="Node000008" class="node">
<title>Node8</title>
<g id="a_Node000008"><a xlink:href="User_8cc.html" target="_top" xlink:title=" ">
<polygon fill="white" stroke="#666666" points="979.5,-24.5 856.5,-24.5 856.5,-5.5 979.5,-5.5 979.5,-24.5"/>
<text text-anchor="middle" x="918" y="-12.5" font-family="Helvetica,sans-Serif" font-size="10.00">squid/src/auth/User.cc</text>
</a>
</g>
</g>
<!-- Node2&#45;&gt;Node8 -->
<g id="edge7_Node000002_Node000008" class="edge">
<title>Node2&#45;&gt;Node8</title>
<g id="a_edge7_Node000002_Node000008"><a xlink:title=" ">
<path fill="none" stroke="#63b8ff" d="M980,-64.99C964.14,-52.46 942.09,-35.04 929.01,-24.7"/>
<polygon fill="#63b8ff" stroke="#63b8ff" points="978.06,-67.92 988.08,-71.37 982.4,-62.42 978.06,-67.92"/>
</a>
</g>
</g>
<!-- Node9 -->
<g id="Node000009" class="node">
<title>Node9</title>
<g id="a_Node000009"><a xlink:href="UserRequest_8cc.html" target="_top" xlink:title=" ">
<polygon fill="white" stroke="#666666" points="1162,-24.5 998,-24.5 998,-5.5 1162,-5.5 1162,-24.5"/>
<text text-anchor="middle" x="1080" y="-12.5" font-family="Helvetica,sans-Serif" font-size="10.00">squid/src/auth/UserRequest.cc</text>
</a>
</g>
</g>
<!-- Node2&#45;&gt;Node9 -->
<g id="edge8_Node000002_Node000009" class="edge">
<title>Node2&#45;&gt;Node9</title>
<g id="a_edge8_Node000002_Node000009"><a xlink:title=" ">
<path fill="none" stroke="#63b8ff" d="M1018,-64.99C1033.86,-52.46 1055.91,-35.04 1068.99,-24.7"/>
<polygon fill="#63b8ff" stroke="#63b8ff" points="1015.6,-62.42 1009.92,-71.37 1019.94,-67.92 1015.6,-62.42"/>
</a>
</g>
</g>
<!-- Node10 -->
<g id="Node000010" class="node">
<title>Node10</title>
<g id="a_Node000010"><a xlink:href="basic_2User_8cc.html" target="_top" xlink:title=" ">
<polygon fill="white" stroke="#666666" points="1293.5,-30 1180.5,-30 1180.5,0 1293.5,0 1293.5,-30"/>
<text text-anchor="start" x="1188.5" y="-18" font-family="Helvetica,sans-Serif" font-size="10.00">squid/src/auth/basic</text>
<text text-anchor="middle" x="1237" y="-7" font-family="Helvetica,sans-Serif" font-size="10.00">/User.cc</text>
</a>
</g>
</g>
<!-- Node2&#45;&gt;Node10 -->
<g id="edge9_Node000002_Node000010" class="edge">
<title>Node2&#45;&gt;Node10</title>
<g id="a_edge9_Node000002_Node000010"><a xlink:title=" ">
<path fill="none" stroke="#63b8ff" d="M1040.8,-68.76C1080.81,-58 1141.28,-41.74 1184.51,-30.12"/>
<polygon fill="#63b8ff" stroke="#63b8ff" points="1039.85,-65.39 1031.1,-71.37 1041.66,-72.15 1039.85,-65.39"/>
</a>
</g>
</g>
<!-- Node11 -->
<g id="Node000011" class="node">
<title>Node11</title>
<g id="a_Node000011"><a xlink:href="digest_2User_8cc.html" target="_top" xlink:title=" ">
<polygon fill="white" stroke="#666666" points="1430,-30 1312,-30 1312,0 1430,0 1430,-30"/>
<text text-anchor="start" x="1320" y="-18" font-family="Helvetica,sans-Serif" font-size="10.00">squid/src/auth/digest</text>
<text text-anchor="middle" x="1371" y="-7" font-family="Helvetica,sans-Serif" font-size="10.00">/User.cc</text>
</a>
</g>
</g>
<!-- Node2&#45;&gt;Node11 -->
<g id="edge10_Node000002_Node000011" class="edge">
<title>Node2&#45;&gt;Node11</title>
<g id="a_edge10_Node000002_Node000011"><a xlink:title=" ">
<path fill="none" stroke="#63b8ff" d="M1052.69,-69.63C1059.52,-68.38 1066.42,-67.14 1073,-66 1174.96,-48.38 1201.19,-48.44 1303,-30 1305.85,-29.48 1308.76,-28.94 1311.69,-28.38"/>
<polygon fill="#63b8ff" stroke="#63b8ff" points="1051.97,-66.21 1042.78,-71.48 1053.26,-73.09 1051.97,-66.21"/>
</a>
</g>
</g>
<!-- Node12 -->
<g id="Node000012" class="node">
<title>Node12</title>
<g id="a_Node000012"><a xlink:href="cache__cf_8cc.html" target="_top" xlink:title=" ">
<polygon fill="white" stroke="#666666" points="1567.5,-24.5 1448.5,-24.5 1448.5,-5.5 1567.5,-5.5 1567.5,-24.5"/>
<text text-anchor="middle" x="1508" y="-12.5" font-family="Helvetica,sans-Serif" font-size="10.00">squid/src/cache_cf.cc</text>
</a>
</g>
</g>
<!-- Node2&#45;&gt;Node12 -->
<g id="edge11_Node000002_Node000012" class="edge">
<title>Node2&#45;&gt;Node12</title>
<g id="a_edge11_Node000002_Node000012"><a xlink:title=" ">
<path fill="none" stroke="#63b8ff" d="M1050.25,-69.69C1057.86,-68.34 1065.62,-67.06 1073,-66 1234.79,-42.78 1277.36,-54.28 1439,-30 1448.91,-28.51 1459.55,-26.54 1469.44,-24.55"/>
<polygon fill="#63b8ff" stroke="#63b8ff" points="1049.58,-66.26 1040.38,-71.5 1050.84,-73.14 1049.58,-66.26"/>
</a>
</g>
</g>
<!-- Node13 -->
<g id="Node000013" class="node">
<title>Node13</title>
<g id="a_Node000013"><a xlink:href="main_8cc.html" target="_top" xlink:title=" ">
<polygon fill="white" stroke="#666666" points="1686.5,-24.5 1585.5,-24.5 1585.5,-5.5 1686.5,-5.5 1686.5,-24.5"/>
<text text-anchor="middle" x="1636" y="-12.5" font-family="Helvetica,sans-Serif" font-size="10.00">squid/src/main.cc</text>
</a>
</g>
</g>
<!-- Node2&#45;&gt;Node13 -->
<g id="edge12_Node000002_Node000013" class="edge">
<title>Node2&#45;&gt;Node13</title>
<g id="a_edge12_Node000002_Node000013"><a xlink:title=" ">
<path fill="none" stroke="#63b8ff" d="M1049.67,-69.61C1057.46,-68.25 1065.43,-66.98 1073,-66 1295.7,-37.08 1355.02,-64.04 1577,-30 1585.95,-28.63 1595.54,-26.6 1604.34,-24.51"/>
<polygon fill="#63b8ff" stroke="#63b8ff" points="1048.79,-66.21 1039.58,-71.45 1050.04,-73.1 1048.79,-66.21"/>
</a>
</g>
</g>
<!-- Node14 -->
<g id="Node000014" class="node">
<title>Node14</title>
<g id="a_Node000014"><a xlink:href="testAuth_8cc.html" target="_top" xlink:title=" ">
<polygon fill="white" stroke="#666666" points="1849.5,-24.5 1704.5,-24.5 1704.5,-5.5 1849.5,-5.5 1849.5,-24.5"/>
<text text-anchor="middle" x="1777" y="-12.5" font-family="Helvetica,sans-Serif" font-size="10.00">squid/src/tests/testAuth.cc</text>
</a>
</g>
</g>
<!-- Node2&#45;&gt;Node14 -->
<g id="edge13_Node000002_Node000014" class="edge">
<title>Node2&#45;&gt;Node14</title>
<g id="a_edge13_Node000002_Node000014"><a xlink:title=" ">
<path fill="none" stroke="#63b8ff" d="M1048.83,-69.66C1056.88,-68.26 1065.15,-66.96 1073,-66 1348.28,-32.15 1420.46,-61.67 1696,-30 1708.05,-28.61 1721.03,-26.61 1732.99,-24.54"/>
<polygon fill="#63b8ff" stroke="#63b8ff" points="1048,-66.26 1038.79,-71.49 1049.26,-73.14 1048,-66.26"/>
</a>
</g>
</g>
</g>
</svg>
