<?xml version="1.0" encoding="UTF-8" standalone="no"?>
<!DOCTYPE svg PUBLIC "-//W3C//DTD SVG 1.1//EN"
 "http://www.w3.org/Graphics/SVG/1.1/DTD/svg11.dtd">
<!-- Generated by graphviz version 2.43.0 (0)
 -->
<!-- Title: squid/src/adaptation/ServiceConfig.cc Pages: 1 -->
<!--zoomable 368 -->

<svg id="main" version="1.1" xmlns="http://www.w3.org/2000/svg" xmlns:xlink="http://www.w3.org/1999/xlink" xml:space="preserve" onload="init(evt)">
<style type="text/css"><![CDATA[
.node, .edge {opacity: 0.7;}
.node.selected, .edge.selected {opacity: 1;}
.edge:hover path { stroke: red; }
.edge:hover polygon { stroke: red; fill: red; }
]]></style>

<defs>
  <circle id="rim" cx="0" cy="0" r="7"/>
  <circle id="rim2" cx="0" cy="0" r="3.5"/>
  <g id="zoomPlus">
    <use xlink:href="#rim" fill="#404040"><set attributeName="fill" to="#808080" begin="zoomplus.mouseover" end="zoomplus.mouseout"/></use>
    <path d="M-4,0h8M0,-4v8" fill="none" stroke="white" stroke-width="1.5" pointer-events="none"/>
  </g>
  <g id="zoomMin">
    <use xlink:href="#rim" fill="#404040"><set attributeName="fill" to="#808080" begin="zoomminus.mouseover" end="zoomminus.mouseout"/></use>
    <path d="M-4,0h8" fill="none" stroke="white" stroke-width="1.5" pointer-events="none"/>
  </g>
  <g id="arrowUp" transform="translate(30 24)">
    <use xlink:href="#rim"/>
    <path pointer-events="none" fill="none" stroke="white" stroke-width="1.5" d="M0,-3.0v7 M-2.5,-0.5L0,-3.0L2.5,-0.5"/>
  </g>
  <g id="arrowRight" transform="rotate(90) translate(36 -43)">
    <use xlink:href="#rim"/>
    <path pointer-events="none" fill="none" stroke="white" stroke-width="1.5" d="M0,-3.0v7 M-2.5,-0.5L0,-3.0L2.5,-0.5"/>
  </g>
  <g id="arrowDown" transform="rotate(180) translate(-30 -48)">
    <use xlink:href="#rim"/>
    <path pointer-events="none" fill="none" stroke="white" stroke-width="1.5" d="M0,-3.0v7 M-2.5,-0.5L0,-3.0L2.5,-0.5"/>
  </g>
  <g id="arrowLeft" transform="rotate(270) translate(-36 17)">
    <use xlink:href="#rim"/>
    <path pointer-events="none" fill="none" stroke="white" stroke-width="1.5" d="M0,-3.0v7 M-2.5,-0.5L0,-3.0L2.5,-0.5"/>
  </g>
  <g id="resetDef">
    <use xlink:href="#rim2" fill="#404040"><set attributeName="fill" to="#808080" begin="reset.mouseover" end="reset.mouseout"/></use>
  </g>
</defs>
<script type="application/ecmascript">
var viewWidth = 3080;
var viewHeight = 368;
var sectionId = 'dynsection-0';
</script>
<script type="application/ecmascript" xlink:href="svg.min.js"/>
<svg id="graph" class="graph">
<g id="viewport">
<title>squid/src/adaptation/ServiceConfig.cc</title>
<!-- Node1 -->
<g id="Node000001" class="node">
<title>Node1</title>
<g id="a_Node000001"><a xlink:title=" ">
<polygon fill="#999999" stroke="#666666" points="2742,-360 2626,-360 2626,-330 2742,-330 2742,-360"/>
<text text-anchor="start" x="2634" y="-348" font-family="Helvetica,sans-Serif" font-size="10.00">squid/src/adaptation</text>
<text text-anchor="middle" x="2684" y="-337" font-family="Helvetica,sans-Serif" font-size="10.00">/ServiceConfig.cc</text>
</a>
</g>
</g>
<!-- Node2 -->
<g id="Node000002" class="node">
<title>Node2</title>
<g id="a_Node000002"><a xlink:href="squid_8h.html" target="_top" xlink:title=" ">
<polygon fill="white" stroke="#666666" points="1032,-294 980,-294 980,-275 1032,-275 1032,-294"/>
<text text-anchor="middle" x="1006" y="-282" font-family="Helvetica,sans-Serif" font-size="10.00">squid.h</text>
</a>
</g>
</g>
<!-- Node1&#45;&gt;Node2 -->
<g id="edge1_Node000001_Node000002" class="edge">
<title>Node1&#45;&gt;Node2</title>
<g id="a_edge1_Node000001_Node000002"><a xlink:title=" ">
<path fill="none" stroke="#63b8ff" d="M2625.75,-341.97C2358.8,-332.66 1256.15,-294.22 1042.09,-286.76"/>
<polygon fill="#63b8ff" stroke="#63b8ff" points="1042.13,-283.26 1032.02,-286.41 1041.89,-290.25 1042.13,-283.26"/>
</a>
</g>
</g>
<!-- Node45 -->
<g id="Node000045" class="node">
<title>Node45</title>
<g id="a_Node000045"><a xlink:href="ServiceConfig_8h.html" target="_top" xlink:title=" ">
<polygon fill="white" stroke="#666666" points="2517,-294 2369,-294 2369,-275 2517,-275 2517,-294"/>
<text text-anchor="middle" x="2443" y="-282" font-family="Helvetica,sans-Serif" font-size="10.00">adaptation/ServiceConfig.h</text>
</a>
</g>
</g>
<!-- Node1&#45;&gt;Node45 -->
<g id="edge21_Node000001_Node000045" class="edge">
<title>Node1&#45;&gt;Node45</title>
<g id="a_edge21_Node000001_Node000045"><a xlink:title=" ">
<path fill="none" stroke="#63b8ff" d="M2626.27,-329.99C2583.96,-319.72 2527.32,-305.97 2488.27,-296.49"/>
<polygon fill="#63b8ff" stroke="#63b8ff" points="2488.78,-293.01 2478.24,-294.05 2487.13,-299.81 2488.78,-293.01"/>
</a>
</g>
</g>
<!-- Node57 -->
<g id="Node000057" class="node">
<title>Node57</title>
<g id="a_Node000057"><a xlink:href="debug_2Stream_8h.html" target="_top" xlink:title=" ">
<polygon fill="white" stroke="#666666" points="2654,-74 2560,-74 2560,-55 2654,-55 2654,-74"/>
<text text-anchor="middle" x="2607" y="-62" font-family="Helvetica,sans-Serif" font-size="10.00">debug/Stream.h</text>
</a>
</g>
</g>
<!-- Node1&#45;&gt;Node57 -->
<g id="edge49_Node000001_Node000057" class="edge">
<title>Node1&#45;&gt;Node57</title>
<g id="a_edge49_Node000001_Node000057"><a xlink:title=" ">
<path fill="none" stroke="#63b8ff" d="M2677.43,-329.65C2668.33,-308.44 2653,-267.27 2653,-230.5 2653,-230.5 2653,-230.5 2653,-173.5 2653,-139.04 2632.93,-102.98 2619.3,-82.47"/>
<polygon fill="#63b8ff" stroke="#63b8ff" points="2622.15,-80.44 2613.59,-74.2 2616.4,-84.42 2622.15,-80.44"/>
</a>
</g>
</g>
<!-- Node62 -->
<g id="Node000062" class="node">
<title>Node62</title>
<g id="a_Node000062"><a xlink:href="ConfigParser_8h.html" target="_top" xlink:title=" ">
<polygon fill="white" stroke="#666666" points="2377,-184 2291,-184 2291,-165 2377,-165 2377,-184"/>
<text text-anchor="middle" x="2334" y="-172" font-family="Helvetica,sans-Serif" font-size="10.00">ConfigParser.h</text>
</a>
</g>
</g>
<!-- Node1&#45;&gt;Node62 -->
<g id="edge48_Node000001_Node000062" class="edge">
<title>Node1&#45;&gt;Node62</title>
<g id="a_edge48_Node000001_Node000062"><a xlink:title=" ">
<path fill="none" stroke="#63b8ff" d="M2625.65,-341.21C2504.33,-334.02 2231.73,-310.13 2179,-239 2150.06,-199.96 2224.94,-184.83 2280.44,-179.03"/>
<polygon fill="#63b8ff" stroke="#63b8ff" points="2280.93,-182.5 2290.54,-178.05 2280.25,-175.53 2280.93,-182.5"/>
</a>
</g>
</g>
<!-- Node110 -->
<g id="Node000110" class="node">
<title>Node110</title>
<g id="a_Node000110"><a xlink:href="cache__cf_8h.html" target="_top" xlink:title=" ">
<polygon fill="white" stroke="#666666" points="2749,-294 2681,-294 2681,-275 2749,-275 2749,-294"/>
<text text-anchor="middle" x="2715" y="-282" font-family="Helvetica,sans-Serif" font-size="10.00">cache_cf.h</text>
</a>
</g>
</g>
<!-- Node1&#45;&gt;Node110 -->
<g id="edge47_Node000001_Node000110" class="edge">
<title>Node1&#45;&gt;Node110</title>
<g id="a_edge47_Node000001_Node000110"><a xlink:title=" ">
<path fill="none" stroke="#63b8ff" d="M2691.5,-329.84C2695.73,-321.87 2701.04,-311.84 2705.55,-303.33"/>
<polygon fill="#63b8ff" stroke="#63b8ff" points="2708.77,-304.74 2710.35,-294.27 2702.58,-301.46 2708.77,-304.74"/>
</a>
</g>
</g>
<!-- Node90 -->
<g id="Node000090" class="node">
<title>Node90</title>
<g id="a_Node000090"><a xlink:href="globals_8h.html" target="_top" xlink:title=" ">
<polygon fill="white" stroke="#666666" points="2837.5,-294 2776.5,-294 2776.5,-275 2837.5,-275 2837.5,-294"/>
<text text-anchor="middle" x="2807" y="-282" font-family="Helvetica,sans-Serif" font-size="10.00">globals.h</text>
</a>
</g>
</g>
<!-- Node1&#45;&gt;Node90 -->
<g id="edge50_Node000001_Node000090" class="edge">
<title>Node1&#45;&gt;Node90</title>
<g id="a_edge50_Node000001_Node000090"><a xlink:title=" ">
<path fill="none" stroke="#63b8ff" d="M2713.46,-329.99C2733.62,-320.4 2760.14,-307.79 2779.8,-298.44"/>
<polygon fill="#63b8ff" stroke="#63b8ff" points="2781.31,-301.6 2788.84,-294.14 2778.3,-295.27 2781.31,-301.6"/>
</a>
</g>
</g>
<!-- Node111 -->
<g id="Node000111" class="node">
<title>Node111</title>
<g id="a_Node000111"><a xlink:href="ip_2tools_8h.html" target="_top" xlink:title=" ">
<polygon fill="white" stroke="#666666" points="2918,-294 2856,-294 2856,-275 2918,-275 2918,-294"/>
<text text-anchor="middle" x="2887" y="-282" font-family="Helvetica,sans-Serif" font-size="10.00">ip/tools.h</text>
</a>
</g>
</g>
<!-- Node1&#45;&gt;Node111 -->
<g id="edge56_Node000001_Node000111" class="edge">
<title>Node1&#45;&gt;Node111</title>
<g id="a_edge56_Node000001_Node000111"><a xlink:title=" ">
<path fill="none" stroke="#63b8ff" d="M2732.62,-329.99C2767.81,-319.85 2814.76,-306.32 2847.6,-296.85"/>
<polygon fill="#63b8ff" stroke="#63b8ff" points="2848.68,-300.19 2857.32,-294.05 2846.74,-293.46 2848.68,-300.19"/>
</a>
</g>
</g>
<!-- Node112 -->
<g id="Node000112" class="node">
<title>Node112</title>
<g id="a_Node000112"><a xlink:title=" ">
<polygon fill="#e0e0e0" stroke="#999999" points="2968,-294 2936,-294 2936,-275 2968,-275 2968,-294"/>
<text text-anchor="middle" x="2952" y="-282" font-family="Helvetica,sans-Serif" font-size="10.00">set</text>
</a>
</g>
</g>
<!-- Node1&#45;&gt;Node112 -->
<g id="edge57_Node000001_Node000112" class="edge">
<title>Node1&#45;&gt;Node112</title>
<g id="a_edge57_Node000001_Node000112"><a xlink:title=" ">
<path fill="none" stroke="#63b8ff" d="M2742.42,-334.1C2789.62,-325.61 2857.89,-312.27 2925.92,-294.01"/>
<polygon fill="#63b8ff" stroke="#63b8ff" points="2927.22,-297.29 2935.95,-291.29 2925.39,-290.53 2927.22,-297.29"/>
</a>
</g>
</g>
<!-- Node3 -->
<g id="Node000003" class="node">
<title>Node3</title>
<g id="a_Node000003"><a xlink:href="autoconf_8h.html" target="_top" xlink:title=" ">
<polygon fill="white" stroke="#666666" points="907,-239 839,-239 839,-220 907,-220 907,-239"/>
<text text-anchor="middle" x="873" y="-227" font-family="Helvetica,sans-Serif" font-size="10.00">autoconf.h</text>
</a>
</g>
</g>
<!-- Node2&#45;&gt;Node3 -->
<g id="edge2_Node000002_Node000003" class="edge">
<title>Node2&#45;&gt;Node3</title>
<g id="a_edge2_Node000002_Node000003"><a xlink:title=" ">
<path fill="none" stroke="#63b8ff" d="M984.63,-274.98C962.85,-266.3 928.84,-252.75 904.08,-242.88"/>
<polygon fill="#63b8ff" stroke="#63b8ff" points="905.34,-239.62 894.76,-239.17 902.75,-246.12 905.34,-239.62"/>
</a>
</g>
</g>
<!-- Node4 -->
<g id="Node000004" class="node">
<title>Node4</title>
<g id="a_Node000004"><a xlink:href="version_8h.html" target="_top" xlink:title=" ">
<polygon fill="white" stroke="#666666" points="987,-239 925,-239 925,-220 987,-220 987,-239"/>
<text text-anchor="middle" x="956" y="-227" font-family="Helvetica,sans-Serif" font-size="10.00">version.h</text>
</a>
</g>
</g>
<!-- Node2&#45;&gt;Node4 -->
<g id="edge3_Node000002_Node000004" class="edge">
<title>Node2&#45;&gt;Node4</title>
<g id="a_edge3_Node000002_Node000004"><a xlink:title=" ">
<path fill="none" stroke="#63b8ff" d="M997.74,-274.75C990.54,-267.11 979.89,-255.82 971.15,-246.56"/>
<polygon fill="#63b8ff" stroke="#63b8ff" points="973.51,-243.96 964.1,-239.09 968.42,-248.76 973.51,-243.96"/>
</a>
</g>
</g>
<!-- Node5 -->
<g id="Node000005" class="node">
<title>Node5</title>
<g id="a_Node000005"><a xlink:href="compat_8h.html" target="_top" xlink:title=" ">
<polygon fill="#fff0f0" stroke="red" points="1107,-239 1005,-239 1005,-220 1107,-220 1107,-239"/>
<text text-anchor="middle" x="1056" y="-227" font-family="Helvetica,sans-Serif" font-size="10.00">compat/compat.h</text>
</a>
</g>
</g>
<!-- Node2&#45;&gt;Node5 -->
<g id="edge4_Node000002_Node000005" class="edge">
<title>Node2&#45;&gt;Node5</title>
<g id="a_edge4_Node000002_Node000005"><a xlink:title=" ">
<path fill="none" stroke="#63b8ff" d="M1014.26,-274.75C1021.46,-267.11 1032.11,-255.82 1040.85,-246.56"/>
<polygon fill="#63b8ff" stroke="#63b8ff" points="1043.58,-248.76 1047.9,-239.09 1038.49,-243.96 1043.58,-248.76"/>
</a>
</g>
</g>
<!-- Node6 -->
<g id="Node000006" class="node">
<title>Node6</title>
<g id="a_Node000006"><a xlink:href="osdetect_8h.html" target="_top" xlink:title=" ">
<polygon fill="white" stroke="#666666" points="223.5,-184 116.5,-184 116.5,-165 223.5,-165 223.5,-184"/>
<text text-anchor="middle" x="170" y="-172" font-family="Helvetica,sans-Serif" font-size="10.00">compat/osdetect.h</text>
</a>
</g>
</g>
<!-- Node5&#45;&gt;Node6 -->
<g id="edge5_Node000005_Node000006" class="edge">
<title>Node5&#45;&gt;Node6</title>
<g id="a_edge5_Node000005_Node000006"><a xlink:title=" ">
<path fill="none" stroke="#63b8ff" d="M1004.98,-220.94C1001.94,-220.59 998.93,-220.28 996,-220 661.31,-188.47 572.82,-214.21 233.69,-183.96"/>
<polygon fill="#63b8ff" stroke="#63b8ff" points="233.85,-180.46 223.58,-183.05 233.23,-187.44 233.85,-180.46"/>
</a>
</g>
</g>
<!-- Node7 -->
<g id="Node000007" class="node">
<title>Node7</title>
<g id="a_Node000007"><a xlink:href="fdsetsize_8h.html" target="_top" xlink:title=" ">
<polygon fill="white" stroke="#666666" points="352,-184 242,-184 242,-165 352,-165 352,-184"/>
<text text-anchor="middle" x="297" y="-172" font-family="Helvetica,sans-Serif" font-size="10.00">compat/fdsetsize.h</text>
</a>
</g>
</g>
<!-- Node5&#45;&gt;Node7 -->
<g id="edge6_Node000005_Node000007" class="edge">
<title>Node5&#45;&gt;Node7</title>
<g id="a_edge6_Node000005_Node000007"><a xlink:title=" ">
<path fill="none" stroke="#63b8ff" d="M1004.97,-220.97C1001.94,-220.62 998.93,-220.29 996,-220 718,-192.48 644.14,-210.2 362.24,-184.04"/>
<polygon fill="#63b8ff" stroke="#63b8ff" points="362.41,-180.54 352.13,-183.09 361.76,-187.51 362.41,-180.54"/>
</a>
</g>
</g>
<!-- Node8 -->
<g id="Node000008" class="node">
<title>Node8</title>
<g id="a_Node000008"><a xlink:href="types_8h.html" target="_top" xlink:title=" ">
<polygon fill="#fff0f0" stroke="red" points="462,-184 370,-184 370,-165 462,-165 462,-184"/>
<text text-anchor="middle" x="416" y="-172" font-family="Helvetica,sans-Serif" font-size="10.00">compat/types.h</text>
</a>
</g>
</g>
<!-- Node5&#45;&gt;Node8 -->
<g id="edge7_Node000005_Node000008" class="edge">
<title>Node5&#45;&gt;Node8</title>
<g id="a_edge7_Node000005_Node000008"><a xlink:title=" ">
<path fill="none" stroke="#63b8ff" d="M1004.97,-221.01C1001.94,-220.65 998.93,-220.31 996,-220 766.69,-195.93 705.18,-209.49 472.32,-184.05"/>
<polygon fill="#63b8ff" stroke="#63b8ff" points="472.5,-180.55 462.18,-182.93 471.73,-187.5 472.5,-180.55"/>
</a>
</g>
</g>
<!-- Node10 -->
<g id="Node000010" class="node">
<title>Node10</title>
<g id="a_Node000010"><a xlink:href="aix_8h.html" target="_top" xlink:title=" ">
<polygon fill="white" stroke="#666666" points="575.5,-184 480.5,-184 480.5,-165 575.5,-165 575.5,-184"/>
<text text-anchor="middle" x="528" y="-172" font-family="Helvetica,sans-Serif" font-size="10.00">compat/os/aix.h</text>
</a>
</g>
</g>
<!-- Node5&#45;&gt;Node10 -->
<g id="edge8_Node000005_Node000010" class="edge">
<title>Node5&#45;&gt;Node10</title>
<g id="a_edge8_Node000005_Node000010"><a xlink:title=" ">
<path fill="none" stroke="#63b8ff" d="M1004.96,-221.08C1001.93,-220.7 998.93,-220.34 996,-220 817.03,-199.5 768.78,-205.32 585.52,-183.98"/>
<polygon fill="#63b8ff" stroke="#63b8ff" points="585.9,-180.5 575.56,-182.81 585.08,-187.46 585.9,-180.5"/>
</a>
</g>
</g>
<!-- Node11 -->
<g id="Node000011" class="node">
<title>Node11</title>
<g id="a_Node000011"><a xlink:href="android_8h.html" target="_top" xlink:title=" ">
<polygon fill="white" stroke="#666666" points="710,-184 594,-184 594,-165 710,-165 710,-184"/>
<text text-anchor="middle" x="652" y="-172" font-family="Helvetica,sans-Serif" font-size="10.00">compat/os/android.h</text>
</a>
</g>
</g>
<!-- Node5&#45;&gt;Node11 -->
<g id="edge9_Node000005_Node000011" class="edge">
<title>Node5&#45;&gt;Node11</title>
<g id="a_edge9_Node000005_Node000011"><a xlink:title=" ">
<path fill="none" stroke="#63b8ff" d="M1004.94,-221.22C1001.92,-220.81 998.92,-220.4 996,-220 944.25,-212.99 804.71,-195.05 720.1,-184.21"/>
<polygon fill="#63b8ff" stroke="#63b8ff" points="720.42,-180.72 710.06,-182.92 719.53,-187.67 720.42,-180.72"/>
</a>
</g>
</g>
<!-- Node12 -->
<g id="Node000012" class="node">
<title>Node12</title>
<g id="a_Node000012"><a xlink:href="dragonfly_8h.html" target="_top" xlink:title=" ">
<polygon fill="white" stroke="#666666" points="852,-184 728,-184 728,-165 852,-165 852,-184"/>
<text text-anchor="middle" x="790" y="-172" font-family="Helvetica,sans-Serif" font-size="10.00">compat/os/dragonfly.h</text>
</a>
</g>
</g>
<!-- Node5&#45;&gt;Node12 -->
<g id="edge10_Node000005_Node000012" class="edge">
<title>Node5&#45;&gt;Node12</title>
<g id="a_edge10_Node000005_Node000012"><a xlink:title=" ">
<path fill="none" stroke="#63b8ff" d="M1013.26,-219.98C966.96,-210.76 893.02,-196.03 843.04,-186.07"/>
<polygon fill="#63b8ff" stroke="#63b8ff" points="843.56,-182.6 833.07,-184.08 842.2,-189.47 843.56,-182.6"/>
</a>
</g>
</g>
<!-- Node13 -->
<g id="Node000013" class="node">
<title>Node13</title>
<g id="a_Node000013"><a xlink:href="freebsd_8h.html" target="_top" xlink:title=" ">
<polygon fill="white" stroke="#666666" points="986,-184 870,-184 870,-165 986,-165 986,-184"/>
<text text-anchor="middle" x="928" y="-172" font-family="Helvetica,sans-Serif" font-size="10.00">compat/os/freebsd.h</text>
</a>
</g>
</g>
<!-- Node5&#45;&gt;Node13 -->
<g id="edge11_Node000005_Node000013" class="edge">
<title>Node5&#45;&gt;Node13</title>
<g id="a_edge11_Node000005_Node000013"><a xlink:title=" ">
<path fill="none" stroke="#63b8ff" d="M1035.43,-219.98C1014.57,-211.34 982.03,-197.87 958.23,-188.02"/>
<polygon fill="#63b8ff" stroke="#63b8ff" points="959.52,-184.76 948.94,-184.17 956.84,-191.23 959.52,-184.76"/>
</a>
</g>
</g>
<!-- Node14 -->
<g id="Node000014" class="node">
<title>Node14</title>
<g id="a_Node000014"><a xlink:href="hpux_8h.html" target="_top" xlink:title=" ">
<polygon fill="white" stroke="#666666" points="1108,-184 1004,-184 1004,-165 1108,-165 1108,-184"/>
<text text-anchor="middle" x="1056" y="-172" font-family="Helvetica,sans-Serif" font-size="10.00">compat/os/hpux.h</text>
</a>
</g>
</g>
<!-- Node5&#45;&gt;Node14 -->
<g id="edge12_Node000005_Node000014" class="edge">
<title>Node5&#45;&gt;Node14</title>
<g id="a_edge12_Node000005_Node000014"><a xlink:title=" ">
<path fill="none" stroke="#63b8ff" d="M1056,-219.75C1056,-212.8 1056,-202.85 1056,-194.13"/>
<polygon fill="#63b8ff" stroke="#63b8ff" points="1059.5,-194.09 1056,-184.09 1052.5,-194.09 1059.5,-194.09"/>
</a>
</g>
</g>
<!-- Node15 -->
<g id="Node000015" class="node">
<title>Node15</title>
<g id="a_Node000015"><a xlink:href="linux_8h.html" target="_top" xlink:title=" ">
<polygon fill="white" stroke="#666666" points="1230,-184 1126,-184 1126,-165 1230,-165 1230,-184"/>
<text text-anchor="middle" x="1178" y="-172" font-family="Helvetica,sans-Serif" font-size="10.00">compat/os/linux.h</text>
</a>
</g>
</g>
<!-- Node5&#45;&gt;Node15 -->
<g id="edge13_Node000005_Node000015" class="edge">
<title>Node5&#45;&gt;Node15</title>
<g id="a_edge13_Node000005_Node000015"><a xlink:title=" ">
<path fill="none" stroke="#63b8ff" d="M1075.6,-219.98C1095.32,-211.42 1125.95,-198.11 1148.58,-188.28"/>
<polygon fill="#63b8ff" stroke="#63b8ff" points="1150.26,-191.37 1158.04,-184.17 1147.48,-184.94 1150.26,-191.37"/>
</a>
</g>
</g>
<!-- Node16 -->
<g id="Node000016" class="node">
<title>Node16</title>
<g id="a_Node000016"><a xlink:href="macosx_8h.html" target="_top" xlink:title=" ">
<polygon fill="white" stroke="#666666" points="1366,-184 1248,-184 1248,-165 1366,-165 1366,-184"/>
<text text-anchor="middle" x="1307" y="-172" font-family="Helvetica,sans-Serif" font-size="10.00">compat/os/macosx.h</text>
</a>
</g>
</g>
<!-- Node5&#45;&gt;Node16 -->
<g id="edge14_Node000005_Node000016" class="edge">
<title>Node5&#45;&gt;Node16</title>
<g id="a_edge14_Node000005_Node000016"><a xlink:title=" ">
<path fill="none" stroke="#63b8ff" d="M1096.33,-219.98C1139.84,-210.8 1209.2,-196.15 1256.35,-186.19"/>
<polygon fill="#63b8ff" stroke="#63b8ff" points="1257.3,-189.57 1266.36,-184.08 1255.85,-182.72 1257.3,-189.57"/>
</a>
</g>
</g>
<!-- Node17 -->
<g id="Node000017" class="node">
<title>Node17</title>
<g id="a_Node000017"><a xlink:href="mingw_8h.html" target="_top" xlink:title=" ">
<polygon fill="white" stroke="#666666" points="1496,-184 1384,-184 1384,-165 1496,-165 1496,-184"/>
<text text-anchor="middle" x="1440" y="-172" font-family="Helvetica,sans-Serif" font-size="10.00">compat/os/mingw.h</text>
</a>
</g>
</g>
<!-- Node5&#45;&gt;Node17 -->
<g id="edge15_Node000005_Node000017" class="edge">
<title>Node5&#45;&gt;Node17</title>
<g id="a_edge15_Node000005_Node000017"><a xlink:title=" ">
<path fill="none" stroke="#63b8ff" d="M1107.39,-221.41C1176.1,-211.92 1297.98,-195.1 1373.58,-184.67"/>
<polygon fill="#63b8ff" stroke="#63b8ff" points="1374.5,-188.07 1383.93,-183.24 1373.55,-181.14 1374.5,-188.07"/>
</a>
</g>
</g>
<!-- Node18 -->
<g id="Node000018" class="node">
<title>Node18</title>
<g id="a_Node000018"><a xlink:href="mswindows_8h.html" target="_top" xlink:title=" ">
<polygon fill="white" stroke="#666666" points="1651.5,-184 1514.5,-184 1514.5,-165 1651.5,-165 1651.5,-184"/>
<text text-anchor="middle" x="1583" y="-172" font-family="Helvetica,sans-Serif" font-size="10.00">compat/os/mswindows.h</text>
</a>
</g>
</g>
<!-- Node5&#45;&gt;Node18 -->
<g id="edge16_Node000005_Node000018" class="edge">
<title>Node5&#45;&gt;Node18</title>
<g id="a_edge16_Node000005_Node000018"><a xlink:title=" ">
<path fill="none" stroke="#63b8ff" d="M1107.19,-223.59C1188.69,-215.74 1353.26,-199.74 1503.75,-184.12"/>
<polygon fill="#63b8ff" stroke="#63b8ff" points="1504.52,-187.56 1514.1,-183.05 1503.79,-180.6 1504.52,-187.56"/>
</a>
</g>
</g>
<!-- Node19 -->
<g id="Node000019" class="node">
<title>Node19</title>
<g id="a_Node000019"><a xlink:href="netbsd_8h.html" target="_top" xlink:title=" ">
<polygon fill="white" stroke="#666666" points="1782.5,-184 1669.5,-184 1669.5,-165 1782.5,-165 1782.5,-184"/>
<text text-anchor="middle" x="1726" y="-172" font-family="Helvetica,sans-Serif" font-size="10.00">compat/os/netbsd.h</text>
</a>
</g>
</g>
<!-- Node5&#45;&gt;Node19 -->
<g id="edge17_Node000005_Node000019" class="edge">
<title>Node5&#45;&gt;Node19</title>
<g id="a_edge17_Node000005_Node000019"><a xlink:title=" ">
<path fill="none" stroke="#63b8ff" d="M1107.39,-225.66C1210.08,-219.79 1448.15,-205.13 1659.46,-183.99"/>
<polygon fill="#63b8ff" stroke="#63b8ff" points="1659.9,-187.47 1669.5,-182.98 1659.2,-180.5 1659.9,-187.47"/>
</a>
</g>
</g>
<!-- Node20 -->
<g id="Node000020" class="node">
<title>Node20</title>
<g id="a_Node000020"><a xlink:href="openbsd_8h.html" target="_top" xlink:title=" ">
<polygon fill="white" stroke="#666666" points="1921.5,-184 1800.5,-184 1800.5,-165 1921.5,-165 1921.5,-184"/>
<text text-anchor="middle" x="1861" y="-172" font-family="Helvetica,sans-Serif" font-size="10.00">compat/os/openbsd.h</text>
</a>
</g>
</g>
<!-- Node5&#45;&gt;Node20 -->
<g id="edge18_Node000005_Node000020" class="edge">
<title>Node5&#45;&gt;Node20</title>
<g id="a_edge18_Node000005_Node000020"><a xlink:title=" ">
<path fill="none" stroke="#63b8ff" d="M1107.32,-226.46C1225.65,-221.53 1527,-207.65 1790.18,-184.01"/>
<polygon fill="#63b8ff" stroke="#63b8ff" points="1790.67,-187.48 1800.32,-183.1 1790.04,-180.51 1790.67,-187.48"/>
</a>
</g>
</g>
<!-- Node21 -->
<g id="Node000021" class="node">
<title>Node21</title>
<g id="a_Node000021"><a xlink:href="os2_8h.html" target="_top" xlink:title=" ">
<polygon fill="white" stroke="#666666" points="2036.5,-184 1939.5,-184 1939.5,-165 2036.5,-165 2036.5,-184"/>
<text text-anchor="middle" x="1988" y="-172" font-family="Helvetica,sans-Serif" font-size="10.00">compat/os/os2.h</text>
</a>
</g>
</g>
<!-- Node5&#45;&gt;Node21 -->
<g id="edge19_Node000005_Node000021" class="edge">
<title>Node5&#45;&gt;Node21</title>
<g id="a_edge19_Node000005_Node000021"><a xlink:title=" ">
<path fill="none" stroke="#63b8ff" d="M1107.35,-227.58C1240.95,-224.83 1610.47,-214.9 1928.95,-183.99"/>
<polygon fill="#63b8ff" stroke="#63b8ff" points="1929.7,-187.44 1939.31,-182.98 1929.01,-180.47 1929.7,-187.44"/>
</a>
</g>
</g>
<!-- Node22 -->
<g id="Node000022" class="node">
<title>Node22</title>
<g id="a_Node000022"><a xlink:href="qnx_8h.html" target="_top" xlink:title=" ">
<polygon fill="white" stroke="#666666" points="98,-184 0,-184 0,-165 98,-165 98,-184"/>
<text text-anchor="middle" x="49" y="-172" font-family="Helvetica,sans-Serif" font-size="10.00">compat/os/qnx.h</text>
</a>
</g>
</g>
<!-- Node5&#45;&gt;Node22 -->
<g id="edge20_Node000005_Node000022" class="edge">
<title>Node5&#45;&gt;Node22</title>
<g id="a_edge20_Node000005_Node000022"><a xlink:title=" ">
<path fill="none" stroke="#63b8ff" d="M1004.98,-220.92C1001.94,-220.58 998.93,-220.27 996,-220 605.46,-184.52 502.43,-220.12 107.97,-183.97"/>
<polygon fill="#63b8ff" stroke="#63b8ff" points="108.28,-180.49 98,-183.05 107.64,-187.46 108.28,-180.49"/>
</a>
</g>
</g>
<!-- Node46 -->
<g id="Node000046" class="node">
<title>Node46</title>
<g id="a_Node000046"><a xlink:href="adaptation_2Elements_8h.html" target="_top" xlink:title=" ">
<polygon fill="white" stroke="#666666" points="2315.5,-239 2188.5,-239 2188.5,-220 2315.5,-220 2315.5,-239"/>
<text text-anchor="middle" x="2252" y="-227" font-family="Helvetica,sans-Serif" font-size="10.00">adaptation/Elements.h</text>
</a>
</g>
</g>
<!-- Node45&#45;&gt;Node46 -->
<g id="edge22_Node000045_Node000046" class="edge">
<title>Node45&#45;&gt;Node46</title>
<g id="a_edge22_Node000045_Node000046"><a xlink:title=" ">
<path fill="none" stroke="#63b8ff" d="M2412.31,-274.98C2379.83,-265.97 2328.4,-251.7 2292.59,-241.76"/>
<polygon fill="#63b8ff" stroke="#63b8ff" points="2293.5,-238.38 2282.93,-239.08 2291.63,-245.13 2293.5,-238.38"/>
</a>
</g>
</g>
<!-- Node47 -->
<g id="Node000047" class="node">
<title>Node47</title>
<g id="a_Node000047"><a xlink:href="RefCount_8h.html" target="_top" xlink:title=" ">
<polygon fill="#fff0f0" stroke="red" points="2085.5,-74 1988.5,-74 1988.5,-55 2085.5,-55 2085.5,-74"/>
<text text-anchor="middle" x="2037" y="-62" font-family="Helvetica,sans-Serif" font-size="10.00">base/RefCount.h</text>
</a>
</g>
</g>
<!-- Node45&#45;&gt;Node47 -->
<g id="edge23_Node000045_Node000047" class="edge">
<title>Node45&#45;&gt;Node47</title>
<g id="a_edge23_Node000045_Node000047"><a xlink:title=" ">
<path fill="none" stroke="#63b8ff" d="M2368.95,-278.1C2315.03,-272.48 2240.9,-261.23 2179,-239 2173.24,-236.93 1991.06,-134.3 1988,-129 1977.56,-110.93 1996.14,-92.25 2013.33,-79.87"/>
<polygon fill="#63b8ff" stroke="#63b8ff" points="2015.7,-82.5 2022.04,-74.01 2011.79,-76.69 2015.7,-82.5"/>
</a>
</g>
</g>
<!-- Node51 -->
<g id="Node000051" class="node">
<title>Node51</title>
<g id="a_Node000051"><a xlink:href="YesNoNone_8h.html" target="_top" xlink:title=" ">
<polygon fill="#fff0f0" stroke="red" points="2624.5,-184 2517.5,-184 2517.5,-165 2624.5,-165 2624.5,-184"/>
<text text-anchor="middle" x="2571" y="-172" font-family="Helvetica,sans-Serif" font-size="10.00">base/YesNoNone.h</text>
</a>
</g>
</g>
<!-- Node45&#45;&gt;Node51 -->
<g id="edge25_Node000045_Node000051" class="edge">
<title>Node45&#45;&gt;Node51</title>
<g id="a_edge25_Node000045_Node000051"><a xlink:title=" ">
<path fill="none" stroke="#63b8ff" d="M2455.73,-274.7C2468.09,-265.99 2487.26,-252.12 2503,-239 2521.5,-223.59 2541.51,-204.59 2555,-191.42"/>
<polygon fill="#63b8ff" stroke="#63b8ff" points="2557.81,-193.56 2562.48,-184.05 2552.9,-188.57 2557.81,-193.56"/>
</a>
</g>
</g>
<!-- Node61 -->
<g id="Node000061" class="node">
<title>Node61</title>
<g id="a_Node000061"><a xlink:href="PeerOptions_8h.html" target="_top" xlink:title=" ">
<polygon fill="#fff0f0" stroke="red" points="2460.5,-239 2333.5,-239 2333.5,-220 2460.5,-220 2460.5,-239"/>
<text text-anchor="middle" x="2397" y="-227" font-family="Helvetica,sans-Serif" font-size="10.00">security/PeerOptions.h</text>
</a>
</g>
</g>
<!-- Node45&#45;&gt;Node61 -->
<g id="edge32_Node000045_Node000061" class="edge">
<title>Node45&#45;&gt;Node61</title>
<g id="a_edge32_Node000045_Node000061"><a xlink:title=" ">
<path fill="none" stroke="#63b8ff" d="M2435.4,-274.75C2428.84,-267.18 2419.18,-256.05 2411.19,-246.84"/>
<polygon fill="#63b8ff" stroke="#63b8ff" points="2413.65,-244.35 2404.45,-239.09 2408.37,-248.94 2413.65,-244.35"/>
</a>
</g>
</g>
<!-- Node68 -->
<g id="Node000068" class="node">
<title>Node68</title>
<g id="a_Node000068"><a xlink:href="SquidString_8h.html" target="_top" xlink:title=" ">
<polygon fill="#fff0f0" stroke="red" points="2586.5,-129 2505.5,-129 2505.5,-110 2586.5,-110 2586.5,-129"/>
<text text-anchor="middle" x="2546" y="-117" font-family="Helvetica,sans-Serif" font-size="10.00">SquidString.h</text>
</a>
</g>
</g>
<!-- Node45&#45;&gt;Node68 -->
<g id="edge46_Node000045_Node000068" class="edge">
<title>Node45&#45;&gt;Node68</title>
<g id="a_edge46_Node000045_Node000068"><a xlink:title=" ">
<path fill="none" stroke="#63b8ff" d="M2448.29,-274.7C2453.63,-265.77 2462.05,-251.52 2469,-239 2487.05,-206.5 2487.13,-195.77 2508,-165 2514.76,-155.04 2523.4,-144.76 2530.74,-136.6"/>
<polygon fill="#63b8ff" stroke="#63b8ff" points="2533.32,-138.96 2537.52,-129.23 2528.17,-134.22 2533.32,-138.96"/>
</a>
</g>
</g>
<!-- Node49 -->
<g id="Node000049" class="node">
<title>Node49</title>
<g id="a_Node000049"><a xlink:title=" ">
<polygon fill="#e0e0e0" stroke="#999999" points="2282,-19 2222,-19 2222,0 2282,0 2282,-19"/>
<text text-anchor="middle" x="2252" y="-7" font-family="Helvetica,sans-Serif" font-size="10.00">iostream</text>
</a>
</g>
</g>
<!-- Node47&#45;&gt;Node49 -->
<g id="edge24_Node000047_Node000049" class="edge">
<title>Node47&#45;&gt;Node49</title>
<g id="a_edge24_Node000047_Node000049"><a xlink:title=" ">
<path fill="none" stroke="#63b8ff" d="M2071.54,-54.98C2109.84,-45.54 2171.54,-30.34 2211.93,-20.38"/>
<polygon fill="#63b8ff" stroke="#63b8ff" points="2212.84,-23.76 2221.71,-17.97 2211.17,-16.96 2212.84,-23.76"/>
</a>
</g>
</g>
<!-- Node51&#45;&gt;Node57 -->
<g id="edge26_Node000051_Node000057" class="edge">
<title>Node51&#45;&gt;Node57</title>
<g id="a_edge26_Node000051_Node000057"><a xlink:title=" ">
<path fill="none" stroke="#63b8ff" d="M2576.82,-164.68C2582.31,-155.96 2590.37,-142.07 2595,-129 2600.16,-114.44 2603.24,-97.18 2604.99,-84.33"/>
<polygon fill="#63b8ff" stroke="#63b8ff" points="2608.47,-84.7 2606.2,-74.35 2601.52,-83.86 2608.47,-84.7"/>
</a>
</g>
</g>
<!-- Node57&#45;&gt;Node49 -->
<g id="edge29_Node000057_Node000049" class="edge">
<title>Node57&#45;&gt;Node49</title>
<g id="a_edge29_Node000057_Node000049"><a xlink:title=" ">
<path fill="none" stroke="#63b8ff" d="M2559.86,-56.46C2489.5,-45.96 2358.24,-26.36 2292.17,-16.5"/>
<polygon fill="#63b8ff" stroke="#63b8ff" points="2292.56,-13.02 2282.15,-15 2291.52,-19.94 2292.56,-13.02"/>
</a>
</g>
</g>
<!-- Node54 -->
<g id="Node000054" class="node">
<title>Node54</title>
<g id="a_Node000054"><a xlink:href="Here_8h.html" target="_top" xlink:title=" ">
<polygon fill="#fff0f0" stroke="red" points="2585.5,-19 2510.5,-19 2510.5,0 2585.5,0 2585.5,-19"/>
<text text-anchor="middle" x="2548" y="-7" font-family="Helvetica,sans-Serif" font-size="10.00">base/Here.h</text>
</a>
</g>
</g>
<!-- Node57&#45;&gt;Node54 -->
<g id="edge27_Node000057_Node000054" class="edge">
<title>Node57&#45;&gt;Node54</title>
<g id="a_edge27_Node000057_Node000054"><a xlink:title=" ">
<path fill="none" stroke="#63b8ff" d="M2597.52,-54.98C2588.8,-47.15 2575.66,-35.34 2565.1,-25.86"/>
<polygon fill="#63b8ff" stroke="#63b8ff" points="2567.43,-23.25 2557.65,-19.17 2562.75,-28.46 2567.43,-23.25"/>
</a>
</g>
</g>
<!-- Node58 -->
<g id="Node000058" class="node">
<title>Node58</title>
<g id="a_Node000058"><a xlink:href="AllocatorProxy_8h.html" target="_top" xlink:title=" ">
<polygon fill="white" stroke="#666666" points="2727,-19 2603,-19 2603,0 2727,0 2727,-19"/>
<text text-anchor="middle" x="2665" y="-7" font-family="Helvetica,sans-Serif" font-size="10.00">mem/AllocatorProxy.h</text>
</a>
</g>
</g>
<!-- Node57&#45;&gt;Node58 -->
<g id="edge28_Node000057_Node000058" class="edge">
<title>Node57&#45;&gt;Node58</title>
<g id="a_edge28_Node000057_Node000058"><a xlink:title=" ">
<path fill="none" stroke="#63b8ff" d="M2616.32,-54.98C2624.81,-47.23 2637.56,-35.58 2647.88,-26.14"/>
<polygon fill="#63b8ff" stroke="#63b8ff" points="2650.49,-28.5 2655.51,-19.17 2645.77,-23.33 2650.49,-28.5"/>
</a>
</g>
</g>
<!-- Node59 -->
<g id="Node000059" class="node">
<title>Node59</title>
<g id="a_Node000059"><a xlink:title=" ">
<polygon fill="#e0e0e0" stroke="#999999" points="2801,-19 2745,-19 2745,0 2801,0 2801,-19"/>
<text text-anchor="middle" x="2773" y="-7" font-family="Helvetica,sans-Serif" font-size="10.00">sstream</text>
</a>
</g>
</g>
<!-- Node57&#45;&gt;Node59 -->
<g id="edge30_Node000057_Node000059" class="edge">
<title>Node57&#45;&gt;Node59</title>
<g id="a_edge30_Node000057_Node000059"><a xlink:title=" ">
<path fill="none" stroke="#63b8ff" d="M2633.67,-54.98C2661.54,-46.09 2705.45,-32.07 2736.52,-22.15"/>
<polygon fill="#63b8ff" stroke="#63b8ff" points="2737.66,-25.46 2746.12,-19.08 2735.53,-18.79 2737.66,-25.46"/>
</a>
</g>
</g>
<!-- Node60 -->
<g id="Node000060" class="node">
<title>Node60</title>
<g id="a_Node000060"><a xlink:title=" ">
<polygon fill="#e0e0e0" stroke="#999999" points="2492,-19 2436,-19 2436,0 2492,0 2492,-19"/>
<text text-anchor="middle" x="2464" y="-7" font-family="Helvetica,sans-Serif" font-size="10.00">iomanip</text>
</a>
</g>
</g>
<!-- Node57&#45;&gt;Node60 -->
<g id="edge31_Node000057_Node000060" class="edge">
<title>Node57&#45;&gt;Node60</title>
<g id="a_edge31_Node000057_Node000060"><a xlink:title=" ">
<path fill="none" stroke="#63b8ff" d="M2584.02,-54.98C2560.5,-46.27 2523.71,-32.63 2497.06,-22.75"/>
<polygon fill="#63b8ff" stroke="#63b8ff" points="2497.99,-19.36 2487.39,-19.17 2495.55,-25.93 2497.99,-19.36"/>
</a>
</g>
</g>
<!-- Node61&#45;&gt;Node51 -->
<g id="edge33_Node000061_Node000051" class="edge">
<title>Node61&#45;&gt;Node51</title>
<g id="a_edge33_Node000061_Node000051"><a xlink:title=" ">
<path fill="none" stroke="#63b8ff" d="M2424.96,-219.98C2454.3,-211.05 2500.6,-196.94 2533.19,-187.02"/>
<polygon fill="#63b8ff" stroke="#63b8ff" points="2534.28,-190.34 2542.82,-184.08 2532.24,-183.65 2534.28,-190.34"/>
</a>
</g>
</g>
<!-- Node61&#45;&gt;Node62 -->
<g id="edge34_Node000061_Node000062" class="edge">
<title>Node61&#45;&gt;Node62</title>
<g id="a_edge34_Node000061_Node000062"><a xlink:title=" ">
<path fill="none" stroke="#63b8ff" d="M2386.88,-219.98C2377.56,-212.15 2363.53,-200.34 2352.26,-190.86"/>
<polygon fill="#63b8ff" stroke="#63b8ff" points="2354.21,-187.93 2344.31,-184.17 2349.71,-193.29 2354.21,-187.93"/>
</a>
</g>
</g>
<!-- Node63 -->
<g id="Node000063" class="node">
<title>Node63</title>
<g id="a_Node000063"><a xlink:href="acl_2forward_8h.html" target="_top" xlink:title=" ">
<polygon fill="white" stroke="#666666" points="2077,-129 1997,-129 1997,-110 2077,-110 2077,-129"/>
<text text-anchor="middle" x="2037" y="-117" font-family="Helvetica,sans-Serif" font-size="10.00">acl/forward.h</text>
</a>
</g>
</g>
<!-- Node62&#45;&gt;Node63 -->
<g id="edge35_Node000062_Node000063" class="edge">
<title>Node62&#45;&gt;Node63</title>
<g id="a_edge35_Node000062_Node000063"><a xlink:title=" ">
<path fill="none" stroke="#63b8ff" d="M2290.81,-165.79C2236.78,-156.15 2144.43,-139.67 2087.28,-129.47"/>
<polygon fill="#63b8ff" stroke="#63b8ff" points="2087.84,-126.02 2077.38,-127.71 2086.61,-132.91 2087.84,-126.02"/>
</a>
</g>
</g>
<!-- Node64 -->
<g id="Node000064" class="node">
<title>Node64</title>
<g id="a_Node000064"><a xlink:href="base_2forward_8h.html" target="_top" xlink:title=" ">
<polygon fill="white" stroke="#666666" points="2184.5,-129 2095.5,-129 2095.5,-110 2184.5,-110 2184.5,-129"/>
<text text-anchor="middle" x="2140" y="-117" font-family="Helvetica,sans-Serif" font-size="10.00">base/forward.h</text>
</a>
</g>
</g>
<!-- Node62&#45;&gt;Node64 -->
<g id="edge37_Node000062_Node000064" class="edge">
<title>Node62&#45;&gt;Node64</title>
<g id="a_edge37_Node000062_Node000064"><a xlink:title=" ">
<path fill="none" stroke="#63b8ff" d="M2302.83,-164.98C2269.84,-155.97 2217.6,-141.7 2181.23,-131.76"/>
<polygon fill="#63b8ff" stroke="#63b8ff" points="2181.98,-128.34 2171.41,-129.08 2180.14,-135.09 2181.98,-128.34"/>
</a>
</g>
</g>
<!-- Node65 -->
<g id="Node000065" class="node">
<title>Node65</title>
<g id="a_Node000065"><a xlink:href="sbuf_2forward_8h.html" target="_top" xlink:title=" ">
<polygon fill="#fff0f0" stroke="red" points="2527.5,-74 2440.5,-74 2440.5,-55 2527.5,-55 2527.5,-74"/>
<text text-anchor="middle" x="2484" y="-62" font-family="Helvetica,sans-Serif" font-size="10.00">sbuf/forward.h</text>
</a>
</g>
</g>
<!-- Node62&#45;&gt;Node65 -->
<g id="edge38_Node000062_Node000065" class="edge">
<title>Node62&#45;&gt;Node65</title>
<g id="a_edge38_Node000062_Node000065"><a xlink:title=" ">
<path fill="none" stroke="#63b8ff" d="M2377.15,-167.12C2403.41,-161.22 2436.02,-150.03 2458,-129 2470.5,-117.04 2477.18,-98.22 2480.63,-84.17"/>
<polygon fill="#63b8ff" stroke="#63b8ff" points="2484.1,-84.65 2482.75,-74.15 2477.25,-83.21 2484.1,-84.65"/>
</a>
</g>
</g>
<!-- Node62&#45;&gt;Node68 -->
<g id="edge39_Node000062_Node000068" class="edge">
<title>Node62&#45;&gt;Node68</title>
<g id="a_edge39_Node000062_Node000068"><a xlink:title=" ">
<path fill="none" stroke="#63b8ff" d="M2368.06,-164.98C2404.42,-155.89 2462.17,-141.46 2501.97,-131.51"/>
<polygon fill="#63b8ff" stroke="#63b8ff" points="2502.82,-134.9 2511.67,-129.08 2501.12,-128.11 2502.82,-134.9"/>
</a>
</g>
</g>
<!-- Node70 -->
<g id="Node000070" class="node">
<title>Node70</title>
<g id="a_Node000070"><a xlink:title=" ">
<polygon fill="#e0e0e0" stroke="#999999" points="2260,-129 2202,-129 2202,-110 2260,-110 2260,-129"/>
<text text-anchor="middle" x="2231" y="-117" font-family="Helvetica,sans-Serif" font-size="10.00">memory</text>
</a>
</g>
</g>
<!-- Node62&#45;&gt;Node70 -->
<g id="edge42_Node000062_Node000070" class="edge">
<title>Node62&#45;&gt;Node70</title>
<g id="a_edge42_Node000062_Node000070"><a xlink:title=" ">
<path fill="none" stroke="#63b8ff" d="M2317.45,-164.98C2301.11,-156.57 2275.87,-143.59 2256.87,-133.81"/>
<polygon fill="#63b8ff" stroke="#63b8ff" points="2258.34,-130.63 2247.85,-129.17 2255.14,-136.86 2258.34,-130.63"/>
</a>
</g>
</g>
<!-- Node71 -->
<g id="Node000071" class="node">
<title>Node71</title>
<g id="a_Node000071"><a xlink:title=" ">
<polygon fill="#e0e0e0" stroke="#999999" points="2325.5,-129 2278.5,-129 2278.5,-110 2325.5,-110 2325.5,-129"/>
<text text-anchor="middle" x="2302" y="-117" font-family="Helvetica,sans-Serif" font-size="10.00">queue</text>
</a>
</g>
</g>
<!-- Node62&#45;&gt;Node71 -->
<g id="edge43_Node000062_Node000071" class="edge">
<title>Node62&#45;&gt;Node71</title>
<g id="a_edge43_Node000062_Node000071"><a xlink:title=" ">
<path fill="none" stroke="#63b8ff" d="M2328.72,-164.75C2324.29,-157.42 2317.84,-146.73 2312.38,-137.7"/>
<polygon fill="#63b8ff" stroke="#63b8ff" points="2315.35,-135.84 2307.19,-129.09 2309.36,-139.46 2315.35,-135.84"/>
</a>
</g>
</g>
<!-- Node72 -->
<g id="Node000072" class="node">
<title>Node72</title>
<g id="a_Node000072"><a xlink:title=" ">
<polygon fill="#e0e0e0" stroke="#999999" points="2386.5,-129 2343.5,-129 2343.5,-110 2386.5,-110 2386.5,-129"/>
<text text-anchor="middle" x="2365" y="-117" font-family="Helvetica,sans-Serif" font-size="10.00">stack</text>
</a>
</g>
</g>
<!-- Node62&#45;&gt;Node72 -->
<g id="edge44_Node000062_Node000072" class="edge">
<title>Node62&#45;&gt;Node72</title>
<g id="a_edge44_Node000062_Node000072"><a xlink:title=" ">
<path fill="none" stroke="#63b8ff" d="M2339.12,-164.75C2343.36,-157.49 2349.53,-146.95 2354.78,-137.98"/>
<polygon fill="#63b8ff" stroke="#63b8ff" points="2357.95,-139.49 2359.98,-129.09 2351.91,-135.95 2357.95,-139.49"/>
</a>
</g>
</g>
<!-- Node73 -->
<g id="Node000073" class="node">
<title>Node73</title>
<g id="a_Node000073"><a xlink:title=" ">
<polygon fill="#e0e0e0" stroke="#999999" points="2449,-129 2405,-129 2405,-110 2449,-110 2449,-129"/>
<text text-anchor="middle" x="2427" y="-117" font-family="Helvetica,sans-Serif" font-size="10.00">string</text>
</a>
</g>
</g>
<!-- Node62&#45;&gt;Node73 -->
<g id="edge45_Node000062_Node000073" class="edge">
<title>Node62&#45;&gt;Node73</title>
<g id="a_edge45_Node000062_Node000073"><a xlink:title=" ">
<path fill="none" stroke="#63b8ff" d="M2348.94,-164.98C2363.5,-156.69 2385.87,-143.94 2402.93,-134.22"/>
<polygon fill="#63b8ff" stroke="#63b8ff" points="2404.83,-137.16 2411.79,-129.17 2401.36,-131.08 2404.83,-137.16"/>
</a>
</g>
</g>
<!-- Node63&#45;&gt;Node47 -->
<g id="edge36_Node000063_Node000047" class="edge">
<title>Node63&#45;&gt;Node47</title>
<g id="a_edge36_Node000063_Node000047"><a xlink:title=" ">
<path fill="none" stroke="#63b8ff" d="M2037,-109.75C2037,-102.8 2037,-92.85 2037,-84.13"/>
<polygon fill="#63b8ff" stroke="#63b8ff" points="2040.5,-84.09 2037,-74.09 2033.5,-84.09 2040.5,-84.09"/>
</a>
</g>
</g>
<!-- Node68&#45;&gt;Node57 -->
<g id="edge40_Node000068_Node000057" class="edge">
<title>Node68&#45;&gt;Node57</title>
<g id="a_edge40_Node000068_Node000057"><a xlink:title=" ">
<path fill="none" stroke="#63b8ff" d="M2555.8,-109.98C2564.82,-102.15 2578.41,-90.34 2589.32,-80.86"/>
<polygon fill="#63b8ff" stroke="#63b8ff" points="2591.77,-83.37 2597.02,-74.17 2587.18,-78.09 2591.77,-83.37"/>
</a>
</g>
</g>
<!-- Node68&#45;&gt;Node65 -->
<g id="edge41_Node000068_Node000065" class="edge">
<title>Node68&#45;&gt;Node65</title>
<g id="a_edge41_Node000068_Node000065"><a xlink:title=" ">
<path fill="none" stroke="#63b8ff" d="M2536.04,-109.98C2526.87,-102.15 2513.06,-90.34 2501.97,-80.86"/>
<polygon fill="#63b8ff" stroke="#63b8ff" points="2504.02,-78.01 2494.14,-74.17 2499.47,-83.33 2504.02,-78.01"/>
</a>
</g>
</g>
<!-- Node91 -->
<g id="Node000091" class="node">
<title>Node91</title>
<g id="a_Node000091"><a xlink:href="CacheDigest_8h.html" target="_top" xlink:title=" ">
<polygon fill="#fff0f0" stroke="red" points="2768.5,-239 2681.5,-239 2681.5,-220 2768.5,-220 2768.5,-239"/>
<text text-anchor="middle" x="2725" y="-227" font-family="Helvetica,sans-Serif" font-size="10.00">CacheDigest.h</text>
</a>
</g>
</g>
<!-- Node90&#45;&gt;Node91 -->
<g id="edge51_Node000090_Node000091" class="edge">
<title>Node90&#45;&gt;Node91</title>
<g id="a_edge51_Node000090_Node000091"><a xlink:title=" ">
<path fill="none" stroke="#63b8ff" d="M2793.83,-274.98C2781.23,-266.84 2762,-254.41 2747.06,-244.76"/>
<polygon fill="#63b8ff" stroke="#63b8ff" points="2748.71,-241.66 2738.41,-239.17 2744.91,-247.54 2748.71,-241.66"/>
</a>
</g>
</g>
<!-- Node99 -->
<g id="Node000099" class="node">
<title>Node99</title>
<g id="a_Node000099"><a xlink:href="defines_8h.html" target="_top" xlink:title=" ">
<polygon fill="white" stroke="#666666" points="2847.5,-239 2786.5,-239 2786.5,-220 2847.5,-220 2847.5,-239"/>
<text text-anchor="middle" x="2817" y="-227" font-family="Helvetica,sans-Serif" font-size="10.00">defines.h</text>
</a>
</g>
</g>
<!-- Node90&#45;&gt;Node99 -->
<g id="edge52_Node000090_Node000099" class="edge">
<title>Node90&#45;&gt;Node99</title>
<g id="a_edge52_Node000090_Node000099"><a xlink:title=" ">
<path fill="none" stroke="#63b8ff" d="M2808.65,-274.75C2809.96,-267.8 2811.84,-257.85 2813.48,-249.13"/>
<polygon fill="#63b8ff" stroke="#63b8ff" points="2816.96,-249.56 2815.38,-239.09 2810.09,-248.27 2816.96,-249.56"/>
</a>
</g>
</g>
<!-- Node94 -->
<g id="Node000094" class="node">
<title>Node94</title>
<g id="a_Node000094"><a xlink:href="hash_8h.html" target="_top" xlink:title=" ">
<polygon fill="white" stroke="#666666" points="2914.5,-239 2865.5,-239 2865.5,-220 2914.5,-220 2914.5,-239"/>
<text text-anchor="middle" x="2890" y="-227" font-family="Helvetica,sans-Serif" font-size="10.00">hash.h</text>
</a>
</g>
</g>
<!-- Node90&#45;&gt;Node94 -->
<g id="edge53_Node000090_Node000094" class="edge">
<title>Node90&#45;&gt;Node94</title>
<g id="a_edge53_Node000090_Node000094"><a xlink:title=" ">
<path fill="none" stroke="#63b8ff" d="M2820.34,-274.98C2833.09,-266.84 2852.55,-254.41 2867.67,-244.76"/>
<polygon fill="#63b8ff" stroke="#63b8ff" points="2869.88,-247.5 2876.42,-239.17 2866.11,-241.6 2869.88,-247.5"/>
</a>
</g>
</g>
<!-- Node100 -->
<g id="Node000100" class="node">
<title>Node100</title>
<g id="a_Node000100"><a xlink:href="IoStats_8h.html" target="_top" xlink:title=" ">
<polygon fill="white" stroke="#666666" points="2991.5,-239 2932.5,-239 2932.5,-220 2991.5,-220 2991.5,-239"/>
<text text-anchor="middle" x="2962" y="-227" font-family="Helvetica,sans-Serif" font-size="10.00">IoStats.h</text>
</a>
</g>
</g>
<!-- Node90&#45;&gt;Node100 -->
<g id="edge54_Node000090_Node000100" class="edge">
<title>Node90&#45;&gt;Node100</title>
<g id="a_edge54_Node000090_Node000100"><a xlink:title=" ">
<path fill="none" stroke="#63b8ff" d="M2831.9,-274.98C2857.7,-266.16 2898.22,-252.31 2927.18,-242.41"/>
<polygon fill="#63b8ff" stroke="#63b8ff" points="2928.57,-245.63 2936.9,-239.08 2926.31,-239.01 2928.57,-245.63"/>
</a>
</g>
</g>
<!-- Node101 -->
<g id="Node000101" class="node">
<title>Node101</title>
<g id="a_Node000101"><a xlink:href="rfc2181_8h.html" target="_top" xlink:title=" ">
<polygon fill="white" stroke="#666666" points="3072,-239 3010,-239 3010,-220 3072,-220 3072,-239"/>
<text text-anchor="middle" x="3041" y="-227" font-family="Helvetica,sans-Serif" font-size="10.00">rfc2181.h</text>
</a>
</g>
</g>
<!-- Node90&#45;&gt;Node101 -->
<g id="edge55_Node000090_Node000101" class="edge">
<title>Node90&#45;&gt;Node101</title>
<g id="a_edge55_Node000090_Node000101"><a xlink:title=" ">
<path fill="none" stroke="#63b8ff" d="M2837.59,-276.57C2879.05,-267.18 2953.23,-250.38 2999.63,-239.87"/>
<polygon fill="#63b8ff" stroke="#63b8ff" points="3000.67,-243.22 3009.65,-237.6 2999.13,-236.4 3000.67,-243.22"/>
</a>
</g>
</g>
</g>
</svg>

<g id="navigator" transform="translate(0 0)" fill="#404254">
  <rect fill="#f2f5e9" fill-opacity="0.5" stroke="#606060" stroke-width=".5" x="0" y="0" width="60" height="60"/>
  <use id="zoomplus" xlink:href="#zoomPlus" x="17" y="9" onmousedown="handleZoom(evt,'in')"/>
  <use id="zoomminus" xlink:href="#zoomMin" x="42" y="9" onmousedown="handleZoom(evt,'out')"/>
  <use id="reset" xlink:href="#resetDef" x="30" y="36" onmousedown="handleReset()"/>
   <use id="arrowup" xlink:href="#arrowUp" x="0" y="0" onmousedown="handlePan(0,-1)"/>
  <use id="arrowright" xlink:href="#arrowRight" x="0" y="0" onmousedown="handlePan(1,0)"/>
  <use id="arrowdown" xlink:href="#arrowDown" x="0" y="0" onmousedown="handlePan(0,1)"/>
  <use id="arrowleft" xlink:href="#arrowLeft" x="0" y="0" onmousedown="handlePan(-1,0)"/>
</g>
<svg viewBox="0 0 15 15" width="100%" height="30px" preserveAspectRatio="xMaxYMin meet">
 <g id="arrow_out" transform="scale(0.3 0.3)">
  <a xlink:href="ServiceConfig_8cc__incl_org.svg" target="_base">
   <rect id="button" ry="5" rx="5" y="6" x="6" height="38" width="38"
        fill="#f2f5e9" fill-opacity="0.5" stroke="#606060" stroke-width="1.0"/>
   <path id="arrow"
     d="M 11.500037,31.436501 C 11.940474,20.09759 22.043105,11.32322 32.158766,21.979434 L 37.068811,17.246167 C 37.068811,17.246167 37.088388,32 37.088388,32 L 22.160133,31.978069 C 22.160133,31.978069 26.997745,27.140456 26.997745,27.140456 C 18.528582,18.264221 13.291696,25.230495 11.500037,31.436501 z"
     style="fill:#404040;"/>
  </a>
 </g>
</svg>

<style type='text/css'>
<![CDATA[
[data-mouse-over-selected='false'] { opacity: 0.7; }
[data-mouse-over-selected='true']  { opacity: 1.0; }
]]>
</style>
<script type="application/ecmascript"><![CDATA[
document.addEventListener('DOMContentLoaded', (event) => {
  highlightEdges();
  highlightAdjacentNodes();
});
]]></script>
</svg>
