<?xml version="1.0" encoding="UTF-8" standalone="no"?>
<!DOCTYPE svg PUBLIC "-//W3C//DTD SVG 1.1//EN"
 "http://www.w3.org/Graphics/SVG/1.1/DTD/svg11.dtd">
<!-- Generated by graphviz version 2.43.0 (0)
 -->
<!-- Title: squid/src/snmp/Request.cc Pages: 1 -->
<!--zoomable 247 -->

<svg id="main" version="1.1" xmlns="http://www.w3.org/2000/svg" xmlns:xlink="http://www.w3.org/1999/xlink" xml:space="preserve" onload="init(evt)">
<style type="text/css"><![CDATA[
.node, .edge {opacity: 0.7;}
.node.selected, .edge.selected {opacity: 1;}
.edge:hover path { stroke: red; }
.edge:hover polygon { stroke: red; fill: red; }
]]></style>

<defs>
  <circle id="rim" cx="0" cy="0" r="7"/>
  <circle id="rim2" cx="0" cy="0" r="3.5"/>
  <g id="zoomPlus">
    <use xlink:href="#rim" fill="#404040"><set attributeName="fill" to="#808080" begin="zoomplus.mouseover" end="zoomplus.mouseout"/></use>
    <path d="M-4,0h8M0,-4v8" fill="none" stroke="white" stroke-width="1.5" pointer-events="none"/>
  </g>
  <g id="zoomMin">
    <use xlink:href="#rim" fill="#404040"><set attributeName="fill" to="#808080" begin="zoomminus.mouseover" end="zoomminus.mouseout"/></use>
    <path d="M-4,0h8" fill="none" stroke="white" stroke-width="1.5" pointer-events="none"/>
  </g>
  <g id="arrowUp" transform="translate(30 24)">
    <use xlink:href="#rim"/>
    <path pointer-events="none" fill="none" stroke="white" stroke-width="1.5" d="M0,-3.0v7 M-2.5,-0.5L0,-3.0L2.5,-0.5"/>
  </g>
  <g id="arrowRight" transform="rotate(90) translate(36 -43)">
    <use xlink:href="#rim"/>
    <path pointer-events="none" fill="none" stroke="white" stroke-width="1.5" d="M0,-3.0v7 M-2.5,-0.5L0,-3.0L2.5,-0.5"/>
  </g>
  <g id="arrowDown" transform="rotate(180) translate(-30 -48)">
    <use xlink:href="#rim"/>
    <path pointer-events="none" fill="none" stroke="white" stroke-width="1.5" d="M0,-3.0v7 M-2.5,-0.5L0,-3.0L2.5,-0.5"/>
  </g>
  <g id="arrowLeft" transform="rotate(270) translate(-36 17)">
    <use xlink:href="#rim"/>
    <path pointer-events="none" fill="none" stroke="white" stroke-width="1.5" d="M0,-3.0v7 M-2.5,-0.5L0,-3.0L2.5,-0.5"/>
  </g>
  <g id="resetDef">
    <use xlink:href="#rim2" fill="#404040"><set attributeName="fill" to="#808080" begin="reset.mouseover" end="reset.mouseout"/></use>
  </g>
</defs>
<script type="application/ecmascript">
var viewWidth = 4229;
var viewHeight = 247;
var sectionId = 'dynsection-0';
</script>
<script type="application/ecmascript" xlink:href="svg.min.js"/>
<svg id="graph" class="graph">
<g id="viewport">
<title>squid/src/snmp/Request.cc</title>
<!-- Node1 -->
<g id="Node000001" class="node">
<title>Node1</title>
<g id="a_Node000001"><a xlink:title=" ">
<polygon fill="#999999" stroke="#666666" points="3871,-239 3725,-239 3725,-220 3871,-220 3871,-239"/>
<text text-anchor="middle" x="3798" y="-227" font-family="Helvetica,sans-Serif" font-size="10.00">squid/src/snmp/Request.cc</text>
</a>
</g>
</g>
<!-- Node2 -->
<g id="Node000002" class="node">
<title>Node2</title>
<g id="a_Node000002"><a xlink:href="squid_8h.html" target="_top" xlink:title=" ">
<polygon fill="white" stroke="#666666" points="3183,-184 3131,-184 3131,-165 3183,-165 3183,-184"/>
<text text-anchor="middle" x="3157" y="-172" font-family="Helvetica,sans-Serif" font-size="10.00">squid.h</text>
</a>
</g>
</g>
<!-- Node1&#45;&gt;Node2 -->
<g id="edge1_Node000001_Node000002" class="edge">
<title>Node1&#45;&gt;Node2</title>
<g id="a_edge1_Node000001_Node000002"><a xlink:title=" ">
<path fill="none" stroke="#63b8ff" d="M3724.78,-222.45C3587.41,-211.09 3295.65,-186.96 3193.36,-178.51"/>
<polygon fill="#63b8ff" stroke="#63b8ff" points="3193.48,-175 3183.22,-177.67 3192.9,-181.98 3193.48,-175"/>
</a>
</g>
</g>
<!-- Node44 -->
<g id="Node000044" class="node">
<title>Node44</title>
<g id="a_Node000044"><a xlink:href="ipc_2Messages_8h.html" target="_top" xlink:title=" ">
<polygon fill="white" stroke="#666666" points="4221,-129 4129,-129 4129,-110 4221,-110 4221,-129"/>
<text text-anchor="middle" x="4175" y="-117" font-family="Helvetica,sans-Serif" font-size="10.00">ipc/Messages.h</text>
</a>
</g>
</g>
<!-- Node1&#45;&gt;Node44 -->
<g id="edge30_Node000001_Node000044" class="edge">
<title>Node1&#45;&gt;Node44</title>
<g id="a_edge30_Node000001_Node000044"><a xlink:title=" ">
<path fill="none" stroke="#63b8ff" d="M3871.23,-225.43C3929.28,-221 4011.56,-210.22 4079,-184 4108.77,-172.43 4138.79,-150.55 4157.14,-135.75"/>
<polygon fill="#63b8ff" stroke="#63b8ff" points="4159.68,-138.19 4165.16,-129.13 4155.22,-132.79 4159.68,-138.19"/>
</a>
</g>
</g>
<!-- Node45 -->
<g id="Node000045" class="node">
<title>Node45</title>
<g id="a_Node000045"><a xlink:href="TypedMsgHdr_8h.html" target="_top" xlink:title=" ">
<polygon fill="white" stroke="#666666" points="4070,-184 3962,-184 3962,-165 4070,-165 4070,-184"/>
<text text-anchor="middle" x="4016" y="-172" font-family="Helvetica,sans-Serif" font-size="10.00">ipc/TypedMsgHdr.h</text>
</a>
</g>
</g>
<!-- Node1&#45;&gt;Node45 -->
<g id="edge31_Node000001_Node000045" class="edge">
<title>Node1&#45;&gt;Node45</title>
<g id="a_edge31_Node000001_Node000045"><a xlink:title=" ">
<path fill="none" stroke="#63b8ff" d="M3833.03,-219.98C3870.5,-210.87 3930.05,-196.4 3970.98,-186.45"/>
<polygon fill="#63b8ff" stroke="#63b8ff" points="3971.81,-189.85 3980.7,-184.08 3970.16,-183.04 3971.81,-189.85"/>
</a>
</g>
</g>
<!-- Node48 -->
<g id="Node000048" class="node">
<title>Node48</title>
<g id="a_Node000048"><a xlink:href="snmp_2Request_8h.html" target="_top" xlink:title=" ">
<polygon fill="white" stroke="#666666" points="3569.5,-184 3474.5,-184 3474.5,-165 3569.5,-165 3569.5,-184"/>
<text text-anchor="middle" x="3522" y="-172" font-family="Helvetica,sans-Serif" font-size="10.00">snmp/Request.h</text>
</a>
</g>
</g>
<!-- Node1&#45;&gt;Node48 -->
<g id="edge35_Node000001_Node000048" class="edge">
<title>Node1&#45;&gt;Node48</title>
<g id="a_edge35_Node000001_Node000048"><a xlink:title=" ">
<path fill="none" stroke="#63b8ff" d="M3753.66,-219.98C3705.51,-210.74 3628.58,-195.97 3576.71,-186.01"/>
<polygon fill="#63b8ff" stroke="#63b8ff" points="3577.17,-182.53 3566.69,-184.08 3575.85,-189.41 3577.17,-182.53"/>
</a>
</g>
</g>
<!-- Node3 -->
<g id="Node000003" class="node">
<title>Node3</title>
<g id="a_Node000003"><a xlink:href="autoconf_8h.html" target="_top" xlink:title=" ">
<polygon fill="white" stroke="#666666" points="3160,-129 3092,-129 3092,-110 3160,-110 3160,-129"/>
<text text-anchor="middle" x="3126" y="-117" font-family="Helvetica,sans-Serif" font-size="10.00">autoconf.h</text>
</a>
</g>
</g>
<!-- Node2&#45;&gt;Node3 -->
<g id="edge2_Node000002_Node000003" class="edge">
<title>Node2&#45;&gt;Node3</title>
<g id="a_edge2_Node000002_Node000003"><a xlink:title=" ">
<path fill="none" stroke="#63b8ff" d="M3151.88,-164.75C3147.64,-157.49 3141.47,-146.95 3136.22,-137.98"/>
<polygon fill="#63b8ff" stroke="#63b8ff" points="3139.09,-135.95 3131.02,-129.09 3133.05,-139.49 3139.09,-135.95"/>
</a>
</g>
</g>
<!-- Node4 -->
<g id="Node000004" class="node">
<title>Node4</title>
<g id="a_Node000004"><a xlink:href="version_8h.html" target="_top" xlink:title=" ">
<polygon fill="white" stroke="#666666" points="3223,-19 3161,-19 3161,0 3223,0 3223,-19"/>
<text text-anchor="middle" x="3192" y="-7" font-family="Helvetica,sans-Serif" font-size="10.00">version.h</text>
</a>
</g>
</g>
<!-- Node2&#45;&gt;Node4 -->
<g id="edge3_Node000002_Node000004" class="edge">
<title>Node2&#45;&gt;Node4</title>
<g id="a_edge3_Node000002_Node000004"><a xlink:title=" ">
<path fill="none" stroke="#63b8ff" d="M3159.58,-164.68C3162.15,-155.74 3166.11,-141.47 3169,-129 3177.13,-93.91 3184.71,-52.52 3188.81,-29.11"/>
<polygon fill="#63b8ff" stroke="#63b8ff" points="3192.28,-29.62 3190.54,-19.17 3185.38,-28.42 3192.28,-29.62"/>
</a>
</g>
</g>
<!-- Node5 -->
<g id="Node000005" class="node">
<title>Node5</title>
<g id="a_Node000005"><a xlink:href="compat_8h.html" target="_top" xlink:title=" ">
<polygon fill="white" stroke="#666666" points="1716,-129 1614,-129 1614,-110 1716,-110 1716,-129"/>
<text text-anchor="middle" x="1665" y="-117" font-family="Helvetica,sans-Serif" font-size="10.00">compat/compat.h</text>
</a>
</g>
</g>
<!-- Node2&#45;&gt;Node5 -->
<g id="edge4_Node000002_Node000005" class="edge">
<title>Node2&#45;&gt;Node5</title>
<g id="a_edge4_Node000002_Node000005"><a xlink:title=" ">
<path fill="none" stroke="#63b8ff" d="M3130.79,-172.57C2958.05,-166.43 1982.21,-131.77 1726.4,-122.68"/>
<polygon fill="#63b8ff" stroke="#63b8ff" points="1726.3,-119.18 1716.18,-122.32 1726.05,-126.17 1726.3,-119.18"/>
</a>
</g>
</g>
<!-- Node6 -->
<g id="Node000006" class="node">
<title>Node6</title>
<g id="a_Node000006"><a xlink:href="osdetect_8h.html" target="_top" xlink:title=" ">
<polygon fill="white" stroke="#666666" points="2017.5,-74 1910.5,-74 1910.5,-55 2017.5,-55 2017.5,-74"/>
<text text-anchor="middle" x="1964" y="-62" font-family="Helvetica,sans-Serif" font-size="10.00">compat/osdetect.h</text>
</a>
</g>
</g>
<!-- Node5&#45;&gt;Node6 -->
<g id="edge5_Node000005_Node000006" class="edge">
<title>Node5&#45;&gt;Node6</title>
<g id="a_edge5_Node000005_Node000006"><a xlink:title=" ">
<path fill="none" stroke="#63b8ff" d="M1713.04,-109.98C1765.41,-100.7 1849.24,-85.84 1905.43,-75.88"/>
<polygon fill="#63b8ff" stroke="#63b8ff" points="1906.35,-79.27 1915.58,-74.08 1905.13,-72.38 1906.35,-79.27"/>
</a>
</g>
</g>
<!-- Node7 -->
<g id="Node000007" class="node">
<title>Node7</title>
<g id="a_Node000007"><a xlink:href="fdsetsize_8h.html" target="_top" xlink:title=" ">
<polygon fill="white" stroke="#666666" points="2146,-74 2036,-74 2036,-55 2146,-55 2146,-74"/>
<text text-anchor="middle" x="2091" y="-62" font-family="Helvetica,sans-Serif" font-size="10.00">compat/fdsetsize.h</text>
</a>
</g>
</g>
<!-- Node5&#45;&gt;Node7 -->
<g id="edge6_Node000005_Node000007" class="edge">
<title>Node5&#45;&gt;Node7</title>
<g id="a_edge6_Node000005_Node000007"><a xlink:title=" ">
<path fill="none" stroke="#63b8ff" d="M1716.13,-112.32C1784.11,-104.07 1908.3,-88.91 2025.46,-74.06"/>
<polygon fill="#63b8ff" stroke="#63b8ff" points="2026.21,-77.49 2035.69,-72.76 2025.32,-70.55 2026.21,-77.49"/>
</a>
</g>
</g>
<!-- Node8 -->
<g id="Node000008" class="node">
<title>Node8</title>
<g id="a_Node000008"><a xlink:href="types_8h.html" target="_top" xlink:title=" ">
<polygon fill="#fff0f0" stroke="red" points="2256,-74 2164,-74 2164,-55 2256,-55 2256,-74"/>
<text text-anchor="middle" x="2210" y="-62" font-family="Helvetica,sans-Serif" font-size="10.00">compat/types.h</text>
</a>
</g>
</g>
<!-- Node5&#45;&gt;Node8 -->
<g id="edge7_Node000005_Node000008" class="edge">
<title>Node5&#45;&gt;Node8</title>
<g id="a_edge7_Node000005_Node000008"><a xlink:title=" ">
<path fill="none" stroke="#63b8ff" d="M1716.26,-114.91C1803.73,-108.55 1987.65,-94.17 2153.43,-74.12"/>
<polygon fill="#63b8ff" stroke="#63b8ff" points="2154.31,-77.54 2163.82,-72.85 2153.47,-70.59 2154.31,-77.54"/>
</a>
</g>
</g>
<!-- Node10 -->
<g id="Node000010" class="node">
<title>Node10</title>
<g id="a_Node000010"><a xlink:href="aix_8h.html" target="_top" xlink:title=" ">
<polygon fill="white" stroke="#666666" points="2369.5,-74 2274.5,-74 2274.5,-55 2369.5,-55 2369.5,-74"/>
<text text-anchor="middle" x="2322" y="-62" font-family="Helvetica,sans-Serif" font-size="10.00">compat/os/aix.h</text>
</a>
</g>
</g>
<!-- Node5&#45;&gt;Node10 -->
<g id="edge8_Node000005_Node000010" class="edge">
<title>Node5&#45;&gt;Node10</title>
<g id="a_edge8_Node000005_Node000010"><a xlink:title=" ">
<path fill="none" stroke="#63b8ff" d="M1716.09,-115.99C1818.16,-110.69 2054.77,-97.03 2264.48,-73.97"/>
<polygon fill="#63b8ff" stroke="#63b8ff" points="2264.9,-77.44 2274.45,-72.86 2264.12,-70.48 2264.9,-77.44"/>
</a>
</g>
</g>
<!-- Node11 -->
<g id="Node000011" class="node">
<title>Node11</title>
<g id="a_Node000011"><a xlink:href="android_8h.html" target="_top" xlink:title=" ">
<polygon fill="white" stroke="#666666" points="2504,-74 2388,-74 2388,-55 2504,-55 2504,-74"/>
<text text-anchor="middle" x="2446" y="-62" font-family="Helvetica,sans-Serif" font-size="10.00">compat/os/android.h</text>
</a>
</g>
</g>
<!-- Node5&#45;&gt;Node11 -->
<g id="edge9_Node000005_Node000011" class="edge">
<title>Node5&#45;&gt;Node11</title>
<g id="a_edge9_Node000005_Node000011"><a xlink:title=" ">
<path fill="none" stroke="#63b8ff" d="M1716.09,-116.4C1831.74,-111.41 2122.61,-97.55 2377.59,-73.97"/>
<polygon fill="#63b8ff" stroke="#63b8ff" points="2378.16,-77.43 2387.79,-73.02 2377.51,-70.46 2378.16,-77.43"/>
</a>
</g>
</g>
<!-- Node12 -->
<g id="Node000012" class="node">
<title>Node12</title>
<g id="a_Node000012"><a xlink:href="dragonfly_8h.html" target="_top" xlink:title=" ">
<polygon fill="white" stroke="#666666" points="2646,-74 2522,-74 2522,-55 2646,-55 2646,-74"/>
<text text-anchor="middle" x="2584" y="-62" font-family="Helvetica,sans-Serif" font-size="10.00">compat/os/dragonfly.h</text>
</a>
</g>
</g>
<!-- Node5&#45;&gt;Node12 -->
<g id="edge10_Node000005_Node000012" class="edge">
<title>Node5&#45;&gt;Node12</title>
<g id="a_edge10_Node000005_Node000012"><a xlink:title=" ">
<path fill="none" stroke="#63b8ff" d="M1716.22,-117C1846.94,-112.93 2203.75,-100.2 2511.67,-74.06"/>
<polygon fill="#63b8ff" stroke="#63b8ff" points="2512.02,-77.54 2521.69,-73.2 2511.42,-70.56 2512.02,-77.54"/>
</a>
</g>
</g>
<!-- Node13 -->
<g id="Node000013" class="node">
<title>Node13</title>
<g id="a_Node000013"><a xlink:href="freebsd_8h.html" target="_top" xlink:title=" ">
<polygon fill="white" stroke="#666666" points="2780,-74 2664,-74 2664,-55 2780,-55 2780,-74"/>
<text text-anchor="middle" x="2722" y="-62" font-family="Helvetica,sans-Serif" font-size="10.00">compat/os/freebsd.h</text>
</a>
</g>
</g>
<!-- Node5&#45;&gt;Node13 -->
<g id="edge11_Node000005_Node000013" class="edge">
<title>Node5&#45;&gt;Node13</title>
<g id="a_edge11_Node000005_Node000013"><a xlink:title=" ">
<path fill="none" stroke="#63b8ff" d="M1716.1,-117.67C1861.24,-114.99 2288.49,-104.95 2653.95,-74.01"/>
<polygon fill="#63b8ff" stroke="#63b8ff" points="2654.26,-77.5 2663.93,-73.16 2653.66,-70.52 2654.26,-77.5"/>
</a>
</g>
</g>
<!-- Node14 -->
<g id="Node000014" class="node">
<title>Node14</title>
<g id="a_Node000014"><a xlink:href="hpux_8h.html" target="_top" xlink:title=" ">
<polygon fill="white" stroke="#666666" points="2902,-74 2798,-74 2798,-55 2902,-55 2902,-74"/>
<text text-anchor="middle" x="2850" y="-62" font-family="Helvetica,sans-Serif" font-size="10.00">compat/os/hpux.h</text>
</a>
</g>
</g>
<!-- Node5&#45;&gt;Node14 -->
<g id="edge12_Node000005_Node000014" class="edge">
<title>Node5&#45;&gt;Node14</title>
<g id="a_edge12_Node000005_Node000014"><a xlink:title=" ">
<path fill="none" stroke="#63b8ff" d="M1716.09,-118.27C1873.95,-117.19 2368.09,-110.95 2787.59,-74.03"/>
<polygon fill="#63b8ff" stroke="#63b8ff" points="2788.14,-77.49 2797.8,-73.12 2787.53,-70.52 2788.14,-77.49"/>
</a>
</g>
</g>
<!-- Node15 -->
<g id="Node000015" class="node">
<title>Node15</title>
<g id="a_Node000015"><a xlink:href="linux_8h.html" target="_top" xlink:title=" ">
<polygon fill="white" stroke="#666666" points="3024,-74 2920,-74 2920,-55 3024,-55 3024,-74"/>
<text text-anchor="middle" x="2972" y="-62" font-family="Helvetica,sans-Serif" font-size="10.00">compat/os/linux.h</text>
</a>
</g>
</g>
<!-- Node5&#45;&gt;Node15 -->
<g id="edge13_Node000005_Node000015" class="edge">
<title>Node5&#45;&gt;Node15</title>
<g id="a_edge13_Node000005_Node000015"><a xlink:title=" ">
<path fill="none" stroke="#63b8ff" d="M1716.15,-118.55C1885.06,-118.33 2440.52,-114.43 2909.77,-74"/>
<polygon fill="#63b8ff" stroke="#63b8ff" points="2910.14,-77.49 2919.8,-73.13 2909.53,-70.51 2910.14,-77.49"/>
</a>
</g>
</g>
<!-- Node16 -->
<g id="Node000016" class="node">
<title>Node16</title>
<g id="a_Node000016"><a xlink:href="macosx_8h.html" target="_top" xlink:title=" ">
<polygon fill="white" stroke="#666666" points="3160,-74 3042,-74 3042,-55 3160,-55 3160,-74"/>
<text text-anchor="middle" x="3101" y="-62" font-family="Helvetica,sans-Serif" font-size="10.00">compat/os/macosx.h</text>
</a>
</g>
</g>
<!-- Node5&#45;&gt;Node16 -->
<g id="edge14_Node000005_Node000016" class="edge">
<title>Node5&#45;&gt;Node16</title>
<g id="a_edge14_Node000005_Node000016"><a xlink:title=" ">
<path fill="none" stroke="#63b8ff" d="M1716.02,-118.53C1895.13,-118.27 2511.92,-114.36 3031.37,-74.05"/>
<polygon fill="#63b8ff" stroke="#63b8ff" points="3032,-77.51 3041.69,-73.24 3031.45,-70.53 3032,-77.51"/>
</a>
</g>
</g>
<!-- Node17 -->
<g id="Node000017" class="node">
<title>Node17</title>
<g id="a_Node000017"><a xlink:href="mingw_8h.html" target="_top" xlink:title=" ">
<polygon fill="white" stroke="#666666" points="112,-74 0,-74 0,-55 112,-55 112,-74"/>
<text text-anchor="middle" x="56" y="-62" font-family="Helvetica,sans-Serif" font-size="10.00">compat/os/mingw.h</text>
</a>
</g>
</g>
<!-- Node5&#45;&gt;Node17 -->
<g id="edge15_Node000005_Node000017" class="edge">
<title>Node5&#45;&gt;Node17</title>
<g id="a_edge15_Node000005_Node000017"><a xlink:title=" ">
<path fill="none" stroke="#63b8ff" d="M1613.92,-118.9C1420.45,-120.03 714.09,-120.56 122.35,-74.01"/>
<polygon fill="#63b8ff" stroke="#63b8ff" points="122.58,-70.52 112.33,-73.22 122.03,-77.5 122.58,-70.52"/>
</a>
</g>
</g>
<!-- Node18 -->
<g id="Node000018" class="node">
<title>Node18</title>
<g id="a_Node000018"><a xlink:href="mswindows_8h.html" target="_top" xlink:title=" ">
<polygon fill="white" stroke="#666666" points="267.5,-74 130.5,-74 130.5,-55 267.5,-55 267.5,-74"/>
<text text-anchor="middle" x="199" y="-62" font-family="Helvetica,sans-Serif" font-size="10.00">compat/os/mswindows.h</text>
</a>
</g>
</g>
<!-- Node5&#45;&gt;Node18 -->
<g id="edge16_Node000005_Node000018" class="edge">
<title>Node5&#45;&gt;Node18</title>
<g id="a_edge16_Node000005_Node000018"><a xlink:title=" ">
<path fill="none" stroke="#63b8ff" d="M1613.84,-118.3C1432.84,-117.28 805.67,-111.17 277.92,-74.08"/>
<polygon fill="#63b8ff" stroke="#63b8ff" points="278.04,-70.58 267.82,-73.37 277.55,-77.56 278.04,-70.58"/>
</a>
</g>
</g>
<!-- Node19 -->
<g id="Node000019" class="node">
<title>Node19</title>
<g id="a_Node000019"><a xlink:href="netbsd_8h.html" target="_top" xlink:title=" ">
<polygon fill="white" stroke="#666666" points="398.5,-74 285.5,-74 285.5,-55 398.5,-55 398.5,-74"/>
<text text-anchor="middle" x="342" y="-62" font-family="Helvetica,sans-Serif" font-size="10.00">compat/os/netbsd.h</text>
</a>
</g>
</g>
<!-- Node5&#45;&gt;Node19 -->
<g id="edge17_Node000005_Node000019" class="edge">
<title>Node5&#45;&gt;Node19</title>
<g id="a_edge17_Node000005_Node000019"><a xlink:title=" ">
<path fill="none" stroke="#63b8ff" d="M1613.97,-118.43C1444.19,-117.81 882.74,-112.84 408.81,-74.07"/>
<polygon fill="#63b8ff" stroke="#63b8ff" points="408.94,-70.57 398.69,-73.23 408.37,-77.54 408.94,-70.57"/>
</a>
</g>
</g>
<!-- Node20 -->
<g id="Node000020" class="node">
<title>Node20</title>
<g id="a_Node000020"><a xlink:href="openbsd_8h.html" target="_top" xlink:title=" ">
<polygon fill="white" stroke="#666666" points="537.5,-74 416.5,-74 416.5,-55 537.5,-55 537.5,-74"/>
<text text-anchor="middle" x="477" y="-62" font-family="Helvetica,sans-Serif" font-size="10.00">compat/os/openbsd.h</text>
</a>
</g>
</g>
<!-- Node5&#45;&gt;Node20 -->
<g id="edge18_Node000005_Node000020" class="edge">
<title>Node5&#45;&gt;Node20</title>
<g id="a_edge18_Node000005_Node000020"><a xlink:title=" ">
<path fill="none" stroke="#63b8ff" d="M1613.88,-117.97C1456.49,-116.03 965.07,-107.57 547.71,-74.07"/>
<polygon fill="#63b8ff" stroke="#63b8ff" points="547.8,-70.56 537.55,-73.25 547.24,-77.54 547.8,-70.56"/>
</a>
</g>
</g>
<!-- Node21 -->
<g id="Node000021" class="node">
<title>Node21</title>
<g id="a_Node000021"><a xlink:href="os2_8h.html" target="_top" xlink:title=" ">
<polygon fill="white" stroke="#666666" points="652.5,-74 555.5,-74 555.5,-55 652.5,-55 652.5,-74"/>
<text text-anchor="middle" x="604" y="-62" font-family="Helvetica,sans-Serif" font-size="10.00">compat/os/os2.h</text>
</a>
</g>
</g>
<!-- Node5&#45;&gt;Node21 -->
<g id="edge19_Node000005_Node000021" class="edge">
<title>Node5&#45;&gt;Node21</title>
<g id="a_edge19_Node000005_Node000021"><a xlink:title=" ">
<path fill="none" stroke="#63b8ff" d="M1613.99,-118.06C1467.64,-116.4 1033.67,-108.77 662.82,-73.96"/>
<polygon fill="#63b8ff" stroke="#63b8ff" points="662.98,-70.46 652.69,-73 662.32,-77.43 662.98,-70.46"/>
</a>
</g>
</g>
<!-- Node22 -->
<g id="Node000022" class="node">
<title>Node22</title>
<g id="a_Node000022"><a xlink:href="qnx_8h.html" target="_top" xlink:title=" ">
<polygon fill="white" stroke="#666666" points="769,-74 671,-74 671,-55 769,-55 769,-74"/>
<text text-anchor="middle" x="720" y="-62" font-family="Helvetica,sans-Serif" font-size="10.00">compat/os/qnx.h</text>
</a>
</g>
</g>
<!-- Node5&#45;&gt;Node22 -->
<g id="edge20_Node000005_Node000022" class="edge">
<title>Node5&#45;&gt;Node22</title>
<g id="a_edge20_Node000005_Node000022"><a xlink:title=" ">
<path fill="none" stroke="#63b8ff" d="M1613.88,-117.64C1479.08,-115.01 1102.7,-105.3 779.05,-74"/>
<polygon fill="#63b8ff" stroke="#63b8ff" points="779.3,-70.51 769.01,-73.02 778.62,-77.47 779.3,-70.51"/>
</a>
</g>
</g>
<!-- Node23 -->
<g id="Node000023" class="node">
<title>Node23</title>
<g id="a_Node000023"><a xlink:href="solaris_8h.html" target="_top" xlink:title=" ">
<polygon fill="white" stroke="#666666" points="899,-74 787,-74 787,-55 899,-55 899,-74"/>
<text text-anchor="middle" x="843" y="-62" font-family="Helvetica,sans-Serif" font-size="10.00">compat/os/solaris.h</text>
</a>
</g>
</g>
<!-- Node5&#45;&gt;Node23 -->
<g id="edge21_Node000005_Node000023" class="edge">
<title>Node5&#45;&gt;Node23</title>
<g id="a_edge21_Node000005_Node000023"><a xlink:title=" ">
<path fill="none" stroke="#63b8ff" d="M1613.96,-116.76C1493.29,-112.37 1180.83,-99.41 909.39,-74.06"/>
<polygon fill="#63b8ff" stroke="#63b8ff" points="909.63,-70.57 899.34,-73.12 908.97,-77.54 909.63,-70.57"/>
</a>
</g>
</g>
<!-- Node24 -->
<g id="Node000024" class="node">
<title>Node24</title>
<g id="a_Node000024"><a xlink:href="sunos_8h.html" target="_top" xlink:title=" ">
<polygon fill="white" stroke="#666666" points="1025,-74 917,-74 917,-55 1025,-55 1025,-74"/>
<text text-anchor="middle" x="971" y="-62" font-family="Helvetica,sans-Serif" font-size="10.00">compat/os/sunos.h</text>
</a>
</g>
</g>
<!-- Node5&#45;&gt;Node24 -->
<g id="edge22_Node000005_Node000024" class="edge">
<title>Node5&#45;&gt;Node24</title>
<g id="a_edge22_Node000005_Node000024"><a xlink:title=" ">
<path fill="none" stroke="#63b8ff" d="M1613.79,-116C1507.84,-110.58 1256.7,-96.49 1035.45,-74.08"/>
<polygon fill="#63b8ff" stroke="#63b8ff" points="1035.57,-70.58 1025.27,-73.05 1034.86,-77.54 1035.57,-70.58"/>
</a>
</g>
</g>
<!-- Node25 -->
<g id="Node000025" class="node">
<title>Node25</title>
<g id="a_Node000025"><a xlink:href="assert_8h.html" target="_top" xlink:title=" ">
<polygon fill="white" stroke="#666666" points="1138.5,-74 1043.5,-74 1043.5,-55 1138.5,-55 1138.5,-74"/>
<text text-anchor="middle" x="1091" y="-62" font-family="Helvetica,sans-Serif" font-size="10.00">compat/assert.h</text>
</a>
</g>
</g>
<!-- Node5&#45;&gt;Node25 -->
<g id="edge23_Node000005_Node000025" class="edge">
<title>Node5&#45;&gt;Node25</title>
<g id="a_edge23_Node000005_Node000025"><a xlink:title=" ">
<path fill="none" stroke="#63b8ff" d="M1613.89,-115.16C1522.7,-108.97 1325.71,-94.55 1148.58,-73.99"/>
<polygon fill="#63b8ff" stroke="#63b8ff" points="1148.9,-70.5 1138.56,-72.82 1148.08,-77.46 1148.9,-70.5"/>
</a>
</g>
</g>
<!-- Node26 -->
<g id="Node000026" class="node">
<title>Node26</title>
<g id="a_Node000026"><a xlink:href="compat__shared_8h.html" target="_top" xlink:title=" ">
<polygon fill="#fff0f0" stroke="red" points="1297,-74 1157,-74 1157,-55 1297,-55 1297,-74"/>
<text text-anchor="middle" x="1227" y="-62" font-family="Helvetica,sans-Serif" font-size="10.00">compat/compat_shared.h</text>
</a>
</g>
</g>
<!-- Node5&#45;&gt;Node26 -->
<g id="edge24_Node000005_Node000026" class="edge">
<title>Node5&#45;&gt;Node26</title>
<g id="a_edge24_Node000005_Node000026"><a xlink:title=" ">
<path fill="none" stroke="#63b8ff" d="M1613.9,-112.32C1538.5,-103.19 1396.74,-86.04 1307.34,-75.22"/>
<polygon fill="#63b8ff" stroke="#63b8ff" points="1307.6,-71.73 1297.25,-74 1306.76,-78.68 1307.6,-71.73"/>
</a>
</g>
</g>
<!-- Node36 -->
<g id="Node000036" class="node">
<title>Node36</title>
<g id="a_Node000036"><a xlink:href="stdvarargs_8h.html" target="_top" xlink:title=" ">
<polygon fill="#fff0f0" stroke="red" points="1432.5,-74 1315.5,-74 1315.5,-55 1432.5,-55 1432.5,-74"/>
<text text-anchor="middle" x="1374" y="-62" font-family="Helvetica,sans-Serif" font-size="10.00">compat/stdvarargs.h</text>
</a>
</g>
</g>
<!-- Node5&#45;&gt;Node36 -->
<g id="edge25_Node000005_Node000036" class="edge">
<title>Node5&#45;&gt;Node36</title>
<g id="a_edge25_Node000005_Node000036"><a xlink:title=" ">
<path fill="none" stroke="#63b8ff" d="M1618.25,-109.98C1567.28,-100.7 1485.69,-85.84 1431.01,-75.88"/>
<polygon fill="#63b8ff" stroke="#63b8ff" points="1431.59,-72.43 1421.12,-74.08 1430.33,-79.32 1431.59,-72.43"/>
</a>
</g>
</g>
<!-- Node38 -->
<g id="Node000038" class="node">
<title>Node38</title>
<g id="a_Node000038"><a xlink:href="stdio_8h.html" target="_top" xlink:title=" ">
<polygon fill="#fff0f0" stroke="red" points="1539.5,-74 1450.5,-74 1450.5,-55 1539.5,-55 1539.5,-74"/>
<text text-anchor="middle" x="1495" y="-62" font-family="Helvetica,sans-Serif" font-size="10.00">compat/stdio.h</text>
</a>
</g>
</g>
<!-- Node5&#45;&gt;Node38 -->
<g id="edge26_Node000005_Node000038" class="edge">
<title>Node5&#45;&gt;Node38</title>
<g id="a_edge26_Node000005_Node000038"><a xlink:title=" ">
<path fill="none" stroke="#63b8ff" d="M1637.69,-109.98C1609.15,-101.09 1564.17,-87.07 1532.36,-77.15"/>
<polygon fill="#63b8ff" stroke="#63b8ff" points="1533.12,-73.72 1522.53,-74.08 1531.03,-80.4 1533.12,-73.72"/>
</a>
</g>
</g>
<!-- Node40 -->
<g id="Node000040" class="node">
<title>Node40</title>
<g id="a_Node000040"><a xlink:href="statvfs_8h.html" target="_top" xlink:title=" ">
<polygon fill="white" stroke="#666666" points="1656.5,-74 1557.5,-74 1557.5,-55 1656.5,-55 1656.5,-74"/>
<text text-anchor="middle" x="1607" y="-62" font-family="Helvetica,sans-Serif" font-size="10.00">compat/statvfs.h</text>
</a>
</g>
</g>
<!-- Node5&#45;&gt;Node40 -->
<g id="edge27_Node000005_Node000040" class="edge">
<title>Node5&#45;&gt;Node40</title>
<g id="a_edge27_Node000005_Node000040"><a xlink:title=" ">
<path fill="none" stroke="#63b8ff" d="M1655.68,-109.98C1647.19,-102.23 1634.44,-90.58 1624.12,-81.14"/>
<polygon fill="#63b8ff" stroke="#63b8ff" points="1626.23,-78.33 1616.49,-74.17 1621.51,-83.5 1626.23,-78.33"/>
</a>
</g>
</g>
<!-- Node41 -->
<g id="Node000041" class="node">
<title>Node41</title>
<g id="a_Node000041"><a xlink:href="debug_8h.html" target="_top" xlink:title=" ">
<polygon fill="white" stroke="#666666" points="1769.5,-74 1674.5,-74 1674.5,-55 1769.5,-55 1769.5,-74"/>
<text text-anchor="middle" x="1722" y="-62" font-family="Helvetica,sans-Serif" font-size="10.00">compat/debug.h</text>
</a>
</g>
</g>
<!-- Node5&#45;&gt;Node41 -->
<g id="edge28_Node000005_Node000041" class="edge">
<title>Node5&#45;&gt;Node41</title>
<g id="a_edge28_Node000005_Node000041"><a xlink:title=" ">
<path fill="none" stroke="#63b8ff" d="M1674.16,-109.98C1682.5,-102.23 1695.03,-90.58 1705.18,-81.14"/>
<polygon fill="#63b8ff" stroke="#63b8ff" points="1707.74,-83.54 1712.68,-74.17 1702.97,-78.42 1707.74,-83.54"/>
</a>
</g>
</g>
<!-- Node42 -->
<g id="Node000042" class="node">
<title>Node42</title>
<g id="a_Node000042"><a xlink:href="valgrind_8h.html" target="_top" xlink:title=" ">
<polygon fill="#fff0f0" stroke="red" points="1892.5,-74 1787.5,-74 1787.5,-55 1892.5,-55 1892.5,-74"/>
<text text-anchor="middle" x="1840" y="-62" font-family="Helvetica,sans-Serif" font-size="10.00">compat/valgrind.h</text>
</a>
</g>
</g>
<!-- Node5&#45;&gt;Node42 -->
<g id="edge29_Node000005_Node000042" class="edge">
<title>Node5&#45;&gt;Node42</title>
<g id="a_edge29_Node000005_Node000042"><a xlink:title=" ">
<path fill="none" stroke="#63b8ff" d="M1693.12,-109.98C1722.62,-101.05 1769.19,-86.94 1801.97,-77.02"/>
<polygon fill="#63b8ff" stroke="#63b8ff" points="1803.11,-80.33 1811.66,-74.08 1801.08,-73.63 1803.11,-80.33"/>
</a>
</g>
</g>
<!-- Node45&#45;&gt;Node44 -->
<g id="edge33_Node000045_Node000044" class="edge">
<title>Node45&#45;&gt;Node44</title>
<g id="a_edge33_Node000045_Node000044"><a xlink:title=" ">
<path fill="none" stroke="#63b8ff" d="M4041.55,-164.98C4068.12,-156.13 4109.94,-142.19 4139.67,-132.28"/>
<polygon fill="#63b8ff" stroke="#63b8ff" points="4140.87,-135.56 4149.25,-129.08 4138.66,-128.92 4140.87,-135.56"/>
</a>
</g>
</g>
<!-- Node46 -->
<g id="Node000046" class="node">
<title>Node46</title>
<g id="a_Node000046"><a xlink:href="cmsg_8h.html" target="_top" xlink:title=" ">
<polygon fill="white" stroke="#666666" points="4111,-129 4019,-129 4019,-110 4111,-110 4111,-129"/>
<text text-anchor="middle" x="4065" y="-117" font-family="Helvetica,sans-Serif" font-size="10.00">compat/cmsg.h</text>
</a>
</g>
</g>
<!-- Node45&#45;&gt;Node46 -->
<g id="edge32_Node000045_Node000046" class="edge">
<title>Node45&#45;&gt;Node46</title>
<g id="a_edge32_Node000045_Node000046"><a xlink:title=" ">
<path fill="none" stroke="#63b8ff" d="M4024.09,-164.75C4031.16,-157.11 4041.59,-145.82 4050.15,-136.56"/>
<polygon fill="#63b8ff" stroke="#63b8ff" points="4052.84,-138.81 4057.06,-129.09 4047.7,-134.06 4052.84,-138.81"/>
</a>
</g>
</g>
<!-- Node47 -->
<g id="Node000047" class="node">
<title>Node47</title>
<g id="a_Node000047"><a xlink:title=" ">
<polygon fill="#e0e0e0" stroke="#999999" points="3974.5,-19 3905.5,-19 3905.5,0 3974.5,0 3974.5,-19"/>
<text text-anchor="middle" x="3940" y="-7" font-family="Helvetica,sans-Serif" font-size="10.00">type_traits</text>
</a>
</g>
</g>
<!-- Node45&#45;&gt;Node47 -->
<g id="edge34_Node000045_Node000047" class="edge">
<title>Node45&#45;&gt;Node47</title>
<g id="a_edge34_Node000045_Node000047"><a xlink:title=" ">
<path fill="none" stroke="#63b8ff" d="M4013.52,-164.86C4007.61,-144.86 3991.65,-94.12 3971,-55 3965.95,-45.44 3959.2,-35.51 3953.28,-27.46"/>
<polygon fill="#63b8ff" stroke="#63b8ff" points="3955.93,-25.15 3947.1,-19.29 3950.34,-29.37 3955.93,-25.15"/>
</a>
</g>
</g>
<!-- Node49 -->
<g id="Node000049" class="node">
<title>Node49</title>
<g id="a_Node000049"><a xlink:href="ip_2Address_8h.html" target="_top" xlink:title=" ">
<polygon fill="white" stroke="#666666" points="3843.5,-74 3766.5,-74 3766.5,-55 3843.5,-55 3843.5,-74"/>
<text text-anchor="middle" x="3805" y="-62" font-family="Helvetica,sans-Serif" font-size="10.00">ip/Address.h</text>
</a>
</g>
</g>
<!-- Node48&#45;&gt;Node49 -->
<g id="edge36_Node000048_Node000049" class="edge">
<title>Node48&#45;&gt;Node49</title>
<g id="a_edge36_Node000048_Node000049"><a xlink:title=" ">
<path fill="none" stroke="#63b8ff" d="M3549.47,-164.99C3576.52,-156.46 3618.9,-142.66 3655,-129 3697.77,-112.82 3746.37,-91.74 3776.36,-78.41"/>
<polygon fill="#63b8ff" stroke="#63b8ff" points="3778.07,-81.48 3785.78,-74.2 3775.22,-75.08 3778.07,-81.48"/>
</a>
</g>
</g>
<!-- Node54 -->
<g id="Node000054" class="node">
<title>Node54</title>
<g id="a_Node000054"><a xlink:href="ipc_2forward_8h.html" target="_top" xlink:title=" ">
<polygon fill="white" stroke="#666666" points="3448,-19 3368,-19 3368,0 3448,0 3448,-19"/>
<text text-anchor="middle" x="3408" y="-7" font-family="Helvetica,sans-Serif" font-size="10.00">ipc/forward.h</text>
</a>
</g>
</g>
<!-- Node48&#45;&gt;Node54 -->
<g id="edge41_Node000048_Node000054" class="edge">
<title>Node48&#45;&gt;Node54</title>
<g id="a_edge41_Node000048_Node000054"><a xlink:title=" ">
<path fill="none" stroke="#63b8ff" d="M3511.86,-164.91C3493.41,-148.81 3454.15,-112.25 3431,-74 3422.46,-59.89 3416.37,-42.12 3412.6,-28.97"/>
<polygon fill="#63b8ff" stroke="#63b8ff" points="3415.95,-27.95 3409.99,-19.19 3409.19,-29.76 3415.95,-27.95"/>
</a>
</g>
</g>
<!-- Node55 -->
<g id="Node000055" class="node">
<title>Node55</title>
<g id="a_Node000055"><a xlink:href="ipc_2Request_8h.html" target="_top" xlink:title=" ">
<polygon fill="white" stroke="#666666" points="3646.5,-129 3563.5,-129 3563.5,-110 3646.5,-110 3646.5,-129"/>
<text text-anchor="middle" x="3605" y="-117" font-family="Helvetica,sans-Serif" font-size="10.00">ipc/Request.h</text>
</a>
</g>
</g>
<!-- Node48&#45;&gt;Node55 -->
<g id="edge42_Node000048_Node000055" class="edge">
<title>Node48&#45;&gt;Node55</title>
<g id="a_edge42_Node000048_Node000055"><a xlink:title=" ">
<path fill="none" stroke="#63b8ff" d="M3535.34,-164.98C3548.09,-156.84 3567.55,-144.41 3582.67,-134.76"/>
<polygon fill="#63b8ff" stroke="#63b8ff" points="3584.88,-137.5 3591.42,-129.17 3581.11,-131.6 3584.88,-137.5"/>
</a>
</g>
</g>
<!-- Node63 -->
<g id="Node000063" class="node">
<title>Node63</title>
<g id="a_Node000063"><a xlink:href="Pdu_8h.html" target="_top" xlink:title=" ">
<polygon fill="white" stroke="#666666" points="3411,-129 3337,-129 3337,-110 3411,-110 3411,-129"/>
<text text-anchor="middle" x="3374" y="-117" font-family="Helvetica,sans-Serif" font-size="10.00">snmp/Pdu.h</text>
</a>
</g>
</g>
<!-- Node48&#45;&gt;Node63 -->
<g id="edge49_Node000048_Node000063" class="edge">
<title>Node48&#45;&gt;Node63</title>
<g id="a_edge49_Node000048_Node000063"><a xlink:title=" ">
<path fill="none" stroke="#63b8ff" d="M3498.22,-164.98C3473.77,-156.23 3435.47,-142.51 3407.85,-132.62"/>
<polygon fill="#63b8ff" stroke="#63b8ff" points="3408.81,-129.25 3398.21,-129.17 3406.45,-135.84 3408.81,-129.25"/>
</a>
</g>
</g>
<!-- Node79 -->
<g id="Node000079" class="node">
<title>Node79</title>
<g id="a_Node000079"><a xlink:href="snmp_2Session_8h.html" target="_top" xlink:title=" ">
<polygon fill="white" stroke="#666666" points="3318.5,-129 3225.5,-129 3225.5,-110 3318.5,-110 3318.5,-129"/>
<text text-anchor="middle" x="3272" y="-117" font-family="Helvetica,sans-Serif" font-size="10.00">snmp/Session.h</text>
</a>
</g>
</g>
<!-- Node48&#45;&gt;Node79 -->
<g id="edge57_Node000048_Node000079" class="edge">
<title>Node48&#45;&gt;Node79</title>
<g id="a_edge57_Node000048_Node000079"><a xlink:title=" ">
<path fill="none" stroke="#63b8ff" d="M3481.83,-164.98C3438.5,-155.8 3369.41,-141.15 3322.44,-131.19"/>
<polygon fill="#63b8ff" stroke="#63b8ff" points="3322.99,-127.73 3312.48,-129.08 3321.54,-134.58 3322.99,-127.73"/>
</a>
</g>
</g>
<!-- Node50 -->
<g id="Node000050" class="node">
<title>Node50</title>
<g id="a_Node000050"><a xlink:href="ip_2forward_8h.html" target="_top" xlink:title=" ">
<polygon fill="white" stroke="#666666" points="3813.5,-19 3738.5,-19 3738.5,0 3813.5,0 3813.5,-19"/>
<text text-anchor="middle" x="3776" y="-7" font-family="Helvetica,sans-Serif" font-size="10.00">ip/forward.h</text>
</a>
</g>
</g>
<!-- Node49&#45;&gt;Node50 -->
<g id="edge37_Node000049_Node000050" class="edge">
<title>Node49&#45;&gt;Node50</title>
<g id="a_edge37_Node000049_Node000050"><a xlink:title=" ">
<path fill="none" stroke="#63b8ff" d="M3800.21,-54.75C3796.24,-47.49 3790.47,-36.95 3785.57,-27.98"/>
<polygon fill="#63b8ff" stroke="#63b8ff" points="3788.57,-26.18 3780.7,-19.09 3782.43,-29.54 3788.57,-26.18"/>
</a>
</g>
</g>
<!-- Node51 -->
<g id="Node000051" class="node">
<title>Node51</title>
<g id="a_Node000051"><a xlink:title=" ">
<polygon fill="#e0e0e0" stroke="#999999" points="3616,-19 3568,-19 3568,0 3616,0 3616,-19"/>
<text text-anchor="middle" x="3592" y="-7" font-family="Helvetica,sans-Serif" font-size="10.00">iosfwd</text>
</a>
</g>
</g>
<!-- Node49&#45;&gt;Node51 -->
<g id="edge38_Node000049_Node000051" class="edge">
<title>Node49&#45;&gt;Node51</title>
<g id="a_edge38_Node000049_Node000051"><a xlink:title=" ">
<path fill="none" stroke="#63b8ff" d="M3770.78,-54.98C3730.97,-45.08 3665.64,-28.82 3625.95,-18.95"/>
<polygon fill="#63b8ff" stroke="#63b8ff" points="3626.75,-15.54 3616.2,-16.52 3625.06,-22.33 3626.75,-15.54"/>
</a>
</g>
</g>
<!-- Node52 -->
<g id="Node000052" class="node">
<title>Node52</title>
<g id="a_Node000052"><a xlink:title=" ">
<polygon fill="#e0e0e0" stroke="#999999" points="3720.5,-19 3663.5,-19 3663.5,0 3720.5,0 3720.5,-19"/>
<text text-anchor="middle" x="3692" y="-7" font-family="Helvetica,sans-Serif" font-size="10.00">ostream</text>
</a>
</g>
</g>
<!-- Node49&#45;&gt;Node52 -->
<g id="edge39_Node000049_Node000052" class="edge">
<title>Node49&#45;&gt;Node52</title>
<g id="a_edge39_Node000049_Node000052"><a xlink:title=" ">
<path fill="none" stroke="#63b8ff" d="M3786.84,-54.98C3768.75,-46.5 3740.72,-33.35 3719.81,-23.54"/>
<polygon fill="#63b8ff" stroke="#63b8ff" points="3721.03,-20.25 3710.49,-19.17 3718.05,-26.59 3721.03,-20.25"/>
</a>
</g>
</g>
<!-- Node53 -->
<g id="Node000053" class="node">
<title>Node53</title>
<g id="a_Node000053"><a xlink:title=" ">
<polygon fill="#e0e0e0" stroke="#999999" points="3887,-19 3831,-19 3831,0 3887,0 3887,-19"/>
<text text-anchor="middle" x="3859" y="-7" font-family="Helvetica,sans-Serif" font-size="10.00">optional</text>
</a>
</g>
</g>
<!-- Node49&#45;&gt;Node53 -->
<g id="edge40_Node000049_Node000053" class="edge">
<title>Node49&#45;&gt;Node53</title>
<g id="a_edge40_Node000049_Node000053"><a xlink:title=" ">
<path fill="none" stroke="#63b8ff" d="M3813.92,-54.75C3821.78,-47.03 3833.43,-35.6 3842.92,-26.28"/>
<polygon fill="#63b8ff" stroke="#63b8ff" points="3845.56,-28.59 3850.25,-19.09 3840.66,-23.6 3845.56,-28.59"/>
</a>
</g>
</g>
<!-- Node56 -->
<g id="Node000056" class="node">
<title>Node56</title>
<g id="a_Node000056"><a xlink:href="RefCount_8h.html" target="_top" xlink:title=" ">
<polygon fill="#fff0f0" stroke="red" points="3748.5,-74 3651.5,-74 3651.5,-55 3748.5,-55 3748.5,-74"/>
<text text-anchor="middle" x="3700" y="-62" font-family="Helvetica,sans-Serif" font-size="10.00">base/RefCount.h</text>
</a>
</g>
</g>
<!-- Node55&#45;&gt;Node56 -->
<g id="edge43_Node000055_Node000056" class="edge">
<title>Node55&#45;&gt;Node56</title>
<g id="a_edge43_Node000055_Node000056"><a xlink:title=" ">
<path fill="none" stroke="#63b8ff" d="M3620.26,-109.98C3635.13,-101.69 3657.98,-88.94 3675.42,-79.22"/>
<polygon fill="#63b8ff" stroke="#63b8ff" points="3677.43,-82.1 3684.46,-74.17 3674.02,-75.99 3677.43,-82.1"/>
</a>
</g>
</g>
<!-- Node60 -->
<g id="Node000060" class="node">
<title>Node60</title>
<g id="a_Node000060"><a xlink:href="TypeTraits_8h.html" target="_top" xlink:title=" ">
<polygon fill="white" stroke="#666666" points="3962.5,-74 3861.5,-74 3861.5,-55 3962.5,-55 3962.5,-74"/>
<text text-anchor="middle" x="3912" y="-62" font-family="Helvetica,sans-Serif" font-size="10.00">base/TypeTraits.h</text>
</a>
</g>
</g>
<!-- Node55&#45;&gt;Node60 -->
<g id="edge44_Node000055_Node000060" class="edge">
<title>Node55&#45;&gt;Node60</title>
<g id="a_edge44_Node000055_Node000060"><a xlink:title=" ">
<path fill="none" stroke="#63b8ff" d="M3646.72,-111.3C3699.88,-102.12 3792.1,-86.2 3852.59,-75.76"/>
<polygon fill="#63b8ff" stroke="#63b8ff" points="3853.49,-79.15 3862.75,-74 3852.3,-72.25 3853.49,-79.15"/>
</a>
</g>
</g>
<!-- Node61 -->
<g id="Node000061" class="node">
<title>Node61</title>
<g id="a_Node000061"><a xlink:href="RequestId_8h.html" target="_top" xlink:title=" ">
<polygon fill="#fff0f0" stroke="red" points="3532,-74 3440,-74 3440,-55 3532,-55 3532,-74"/>
<text text-anchor="middle" x="3486" y="-62" font-family="Helvetica,sans-Serif" font-size="10.00">ipc/RequestId.h</text>
</a>
</g>
</g>
<!-- Node55&#45;&gt;Node61 -->
<g id="edge46_Node000055_Node000061" class="edge">
<title>Node55&#45;&gt;Node61</title>
<g id="a_edge46_Node000055_Node000061"><a xlink:title=" ">
<path fill="none" stroke="#63b8ff" d="M3585.88,-109.98C3566.65,-101.42 3536.77,-88.11 3514.69,-78.28"/>
<polygon fill="#63b8ff" stroke="#63b8ff" points="3516.03,-75.04 3505.47,-74.17 3513.18,-81.44 3516.03,-75.04"/>
</a>
</g>
</g>
<!-- Node60&#45;&gt;Node47 -->
<g id="edge45_Node000060_Node000047" class="edge">
<title>Node60&#45;&gt;Node47</title>
<g id="a_edge45_Node000060_Node000047"><a xlink:title=" ">
<path fill="none" stroke="#63b8ff" d="M3916.62,-54.75C3920.46,-47.49 3926.02,-36.95 3930.76,-27.98"/>
<polygon fill="#63b8ff" stroke="#63b8ff" points="3933.89,-29.57 3935.46,-19.09 3927.7,-26.3 3933.89,-29.57"/>
</a>
</g>
</g>
<!-- Node61&#45;&gt;Node51 -->
<g id="edge48_Node000061_Node000051" class="edge">
<title>Node61&#45;&gt;Node51</title>
<g id="a_edge48_Node000061_Node000051"><a xlink:title=" ">
<path fill="none" stroke="#63b8ff" d="M3503.03,-54.98C3519.93,-46.54 3546.06,-33.47 3565.64,-23.68"/>
<polygon fill="#63b8ff" stroke="#63b8ff" points="3567.28,-26.77 3574.66,-19.17 3564.15,-20.51 3567.28,-26.77"/>
</a>
</g>
</g>
<!-- Node61&#45;&gt;Node54 -->
<g id="edge47_Node000061_Node000054" class="edge">
<title>Node61&#45;&gt;Node54</title>
<g id="a_edge47_Node000061_Node000054"><a xlink:title=" ">
<path fill="none" stroke="#63b8ff" d="M3473.47,-54.98C3461.6,-46.92 3443.54,-34.65 3429.39,-25.03"/>
<polygon fill="#63b8ff" stroke="#63b8ff" points="3431,-21.9 3420.76,-19.17 3427.06,-27.69 3431,-21.9"/>
</a>
</g>
</g>
<!-- Node63&#45;&gt;Node54 -->
<g id="edge53_Node000063_Node000054" class="edge">
<title>Node63&#45;&gt;Node54</title>
<g id="a_edge53_Node000063_Node000054"><a xlink:title=" ">
<path fill="none" stroke="#63b8ff" d="M3376.78,-109.66C3382.31,-92.09 3394.79,-52.45 3402.19,-28.95"/>
<polygon fill="#63b8ff" stroke="#63b8ff" points="3405.61,-29.75 3405.27,-19.16 3398.93,-27.65 3405.61,-29.75"/>
</a>
</g>
</g>
<!-- Node64 -->
<g id="Node000064" class="node">
<title>Node64</title>
<g id="a_Node000064"><a xlink:href="Range_8h.html" target="_top" xlink:title=" ">
<polygon fill="white" stroke="#666666" points="3633.5,-74 3550.5,-74 3550.5,-55 3633.5,-55 3633.5,-74"/>
<text text-anchor="middle" x="3592" y="-62" font-family="Helvetica,sans-Serif" font-size="10.00">base/Range.h</text>
</a>
</g>
</g>
<!-- Node63&#45;&gt;Node64 -->
<g id="edge50_Node000063_Node000064" class="edge">
<title>Node63&#45;&gt;Node64</title>
<g id="a_edge50_Node000063_Node000064"><a xlink:title=" ">
<path fill="none" stroke="#63b8ff" d="M3409.03,-109.98C3446.5,-100.87 3506.05,-86.4 3546.98,-76.45"/>
<polygon fill="#63b8ff" stroke="#63b8ff" points="3547.81,-79.85 3556.7,-74.08 3546.16,-73.04 3547.81,-79.85"/>
</a>
</g>
</g>
<!-- Node65 -->
<g id="Node000065" class="node">
<title>Node65</title>
<g id="a_Node000065"><a xlink:href="snmp_8h.html" target="_top" xlink:title=" ">
<polygon fill="#fff0f0" stroke="red" points="3269.5,-74 3216.5,-74 3216.5,-55 3269.5,-55 3269.5,-74"/>
<text text-anchor="middle" x="3243" y="-62" font-family="Helvetica,sans-Serif" font-size="10.00">snmp.h</text>
</a>
</g>
</g>
<!-- Node63&#45;&gt;Node65 -->
<g id="edge54_Node000063_Node000065" class="edge">
<title>Node63&#45;&gt;Node65</title>
<g id="a_edge54_Node000063_Node000065"><a xlink:title=" ">
<path fill="none" stroke="#63b8ff" d="M3352.95,-109.98C3331.59,-101.34 3298.3,-87.87 3273.94,-78.02"/>
<polygon fill="#63b8ff" stroke="#63b8ff" points="3275.01,-74.68 3264.43,-74.17 3272.39,-81.17 3275.01,-74.68"/>
</a>
</g>
</g>
<!-- Node64&#45;&gt;Node51 -->
<g id="edge51_Node000064_Node000051" class="edge">
<title>Node64&#45;&gt;Node51</title>
<g id="a_edge51_Node000064_Node000051"><a xlink:title=" ">
<path fill="none" stroke="#63b8ff" d="M3592,-54.75C3592,-47.8 3592,-37.85 3592,-29.13"/>
<polygon fill="#63b8ff" stroke="#63b8ff" points="3595.5,-29.09 3592,-19.09 3588.5,-29.09 3595.5,-29.09"/>
</a>
</g>
</g>
<!-- Node64&#45;&gt;Node52 -->
<g id="edge52_Node000064_Node000052" class="edge">
<title>Node64&#45;&gt;Node52</title>
<g id="a_edge52_Node000064_Node000052"><a xlink:title=" ">
<path fill="none" stroke="#63b8ff" d="M3608.07,-54.98C3623.86,-46.61 3648.22,-33.7 3666.63,-23.95"/>
<polygon fill="#63b8ff" stroke="#63b8ff" points="3668.44,-26.95 3675.64,-19.17 3665.17,-20.76 3668.44,-26.95"/>
</a>
</g>
</g>
<!-- Node65&#45;&gt;Node4 -->
<g id="edge56_Node000065_Node000004" class="edge">
<title>Node65&#45;&gt;Node4</title>
<g id="a_edge56_Node000065_Node000004"><a xlink:title=" ">
<path fill="none" stroke="#63b8ff" d="M3234.58,-54.75C3227.23,-47.11 3216.37,-35.82 3207.46,-26.56"/>
<polygon fill="#63b8ff" stroke="#63b8ff" points="3209.72,-23.87 3200.26,-19.09 3204.68,-28.72 3209.72,-23.87"/>
</a>
</g>
</g>
<!-- Node67 -->
<g id="Node000067" class="node">
<title>Node67</title>
<g id="a_Node000067"><a xlink:href="snmp__session_8h.html" target="_top" xlink:title=" ">
<polygon fill="white" stroke="#666666" points="3342.5,-19 3247.5,-19 3247.5,0 3342.5,0 3342.5,-19"/>
<text text-anchor="middle" x="3295" y="-7" font-family="Helvetica,sans-Serif" font-size="10.00">snmp_session.h</text>
</a>
</g>
</g>
<!-- Node65&#45;&gt;Node67 -->
<g id="edge55_Node000065_Node000067" class="edge">
<title>Node65&#45;&gt;Node67</title>
<g id="a_edge55_Node000065_Node000067"><a xlink:title=" ">
<path fill="none" stroke="#63b8ff" d="M3251.59,-54.75C3259.16,-47.03 3270.38,-35.6 3279.51,-26.28"/>
<polygon fill="#63b8ff" stroke="#63b8ff" points="3282.07,-28.68 3286.57,-19.09 3277.07,-23.78 3282.07,-28.68"/>
</a>
</g>
</g>
<!-- Node79&#45;&gt;Node54 -->
<g id="edge58_Node000079_Node000054" class="edge">
<title>Node79&#45;&gt;Node54</title>
<g id="a_edge58_Node000079_Node000054"><a xlink:title=" ">
<path fill="none" stroke="#63b8ff" d="M3283.13,-109.66C3306.36,-91.22 3360.22,-48.45 3389.02,-25.57"/>
<polygon fill="#63b8ff" stroke="#63b8ff" points="3391.44,-28.12 3397.1,-19.16 3387.09,-22.64 3391.44,-28.12"/>
</a>
</g>
</g>
<!-- Node79&#45;&gt;Node65 -->
<g id="edge59_Node000079_Node000065" class="edge">
<title>Node79&#45;&gt;Node65</title>
<g id="a_edge59_Node000079_Node000065"><a xlink:title=" ">
<path fill="none" stroke="#63b8ff" d="M3267.21,-109.75C3263.24,-102.49 3257.47,-91.95 3252.57,-82.98"/>
<polygon fill="#63b8ff" stroke="#63b8ff" points="3255.57,-81.18 3247.7,-74.09 3249.43,-84.54 3255.57,-81.18"/>
</a>
</g>
</g>
<!-- Node79&#45;&gt;Node67 -->
<g id="edge60_Node000079_Node000067" class="edge">
<title>Node79&#45;&gt;Node67</title>
<g id="a_edge60_Node000079_Node000067"><a xlink:title=" ">
<path fill="none" stroke="#63b8ff" d="M3273.88,-109.66C3277.62,-92.09 3286.07,-52.45 3291.07,-28.95"/>
<polygon fill="#63b8ff" stroke="#63b8ff" points="3294.5,-29.67 3293.16,-19.16 3287.65,-28.21 3294.5,-29.67"/>
</a>
</g>
</g>
</g>
</svg>

<g id="navigator" transform="translate(0 0)" fill="#404254">
  <rect fill="#f2f5e9" fill-opacity="0.5" stroke="#606060" stroke-width=".5" x="0" y="0" width="60" height="60"/>
  <use id="zoomplus" xlink:href="#zoomPlus" x="17" y="9" onmousedown="handleZoom(evt,'in')"/>
  <use id="zoomminus" xlink:href="#zoomMin" x="42" y="9" onmousedown="handleZoom(evt,'out')"/>
  <use id="reset" xlink:href="#resetDef" x="30" y="36" onmousedown="handleReset()"/>
   <use id="arrowup" xlink:href="#arrowUp" x="0" y="0" onmousedown="handlePan(0,-1)"/>
  <use id="arrowright" xlink:href="#arrowRight" x="0" y="0" onmousedown="handlePan(1,0)"/>
  <use id="arrowdown" xlink:href="#arrowDown" x="0" y="0" onmousedown="handlePan(0,1)"/>
  <use id="arrowleft" xlink:href="#arrowLeft" x="0" y="0" onmousedown="handlePan(-1,0)"/>
</g>
<svg viewBox="0 0 15 15" width="100%" height="30px" preserveAspectRatio="xMaxYMin meet">
 <g id="arrow_out" transform="scale(0.3 0.3)">
  <a xlink:href="snmp_2Request_8cc__incl_org.svg" target="_base">
   <rect id="button" ry="5" rx="5" y="6" x="6" height="38" width="38"
        fill="#f2f5e9" fill-opacity="0.5" stroke="#606060" stroke-width="1.0"/>
   <path id="arrow"
     d="M 11.500037,31.436501 C 11.940474,20.09759 22.043105,11.32322 32.158766,21.979434 L 37.068811,17.246167 C 37.068811,17.246167 37.088388,32 37.088388,32 L 22.160133,31.978069 C 22.160133,31.978069 26.997745,27.140456 26.997745,27.140456 C 18.528582,18.264221 13.291696,25.230495 11.500037,31.436501 z"
     style="fill:#404040;"/>
  </a>
 </g>
</svg>

<style type='text/css'>
<![CDATA[
[data-mouse-over-selected='false'] { opacity: 0.7; }
[data-mouse-over-selected='true']  { opacity: 1.0; }
]]>
</style>
<script type="application/ecmascript"><![CDATA[
document.addEventListener('DOMContentLoaded', (event) => {
  highlightEdges();
  highlightAdjacentNodes();
});
]]></script>
</svg>
