<?xml version="1.0" encoding="UTF-8" standalone="no"?>
<!DOCTYPE svg PUBLIC "-//W3C//DTD SVG 1.1//EN"
 "http://www.w3.org/Graphics/SVG/1.1/DTD/svg11.dtd">
<!-- Generated by graphviz version 2.43.0 (0)
 -->
<!-- Title: squid/src/snmp/Session.cc Pages: 1 -->
<!--zoomable 247 -->

<svg id="main" version="1.1" xmlns="http://www.w3.org/2000/svg" xmlns:xlink="http://www.w3.org/1999/xlink" xml:space="preserve" onload="init(evt)">
<style type="text/css"><![CDATA[
.node, .edge {opacity: 0.7;}
.node.selected, .edge.selected {opacity: 1;}
.edge:hover path { stroke: red; }
.edge:hover polygon { stroke: red; fill: red; }
]]></style>

<defs>
  <circle id="rim" cx="0" cy="0" r="7"/>
  <circle id="rim2" cx="0" cy="0" r="3.5"/>
  <g id="zoomPlus">
    <use xlink:href="#rim" fill="#404040"><set attributeName="fill" to="#808080" begin="zoomplus.mouseover" end="zoomplus.mouseout"/></use>
    <path d="M-4,0h8M0,-4v8" fill="none" stroke="white" stroke-width="1.5" pointer-events="none"/>
  </g>
  <g id="zoomMin">
    <use xlink:href="#rim" fill="#404040"><set attributeName="fill" to="#808080" begin="zoomminus.mouseover" end="zoomminus.mouseout"/></use>
    <path d="M-4,0h8" fill="none" stroke="white" stroke-width="1.5" pointer-events="none"/>
  </g>
  <g id="arrowUp" transform="translate(30 24)">
    <use xlink:href="#rim"/>
    <path pointer-events="none" fill="none" stroke="white" stroke-width="1.5" d="M0,-3.0v7 M-2.5,-0.5L0,-3.0L2.5,-0.5"/>
  </g>
  <g id="arrowRight" transform="rotate(90) translate(36 -43)">
    <use xlink:href="#rim"/>
    <path pointer-events="none" fill="none" stroke="white" stroke-width="1.5" d="M0,-3.0v7 M-2.5,-0.5L0,-3.0L2.5,-0.5"/>
  </g>
  <g id="arrowDown" transform="rotate(180) translate(-30 -48)">
    <use xlink:href="#rim"/>
    <path pointer-events="none" fill="none" stroke="white" stroke-width="1.5" d="M0,-3.0v7 M-2.5,-0.5L0,-3.0L2.5,-0.5"/>
  </g>
  <g id="arrowLeft" transform="rotate(270) translate(-36 17)">
    <use xlink:href="#rim"/>
    <path pointer-events="none" fill="none" stroke="white" stroke-width="1.5" d="M0,-3.0v7 M-2.5,-0.5L0,-3.0L2.5,-0.5"/>
  </g>
  <g id="resetDef">
    <use xlink:href="#rim2" fill="#404040"><set attributeName="fill" to="#808080" begin="reset.mouseover" end="reset.mouseout"/></use>
  </g>
</defs>
<script type="application/ecmascript">
var viewWidth = 4313;
var viewHeight = 247;
var sectionId = 'dynsection-0';
</script>
<script type="application/ecmascript" xlink:href="svg.min.js"/>
<svg id="graph" class="graph">
<g id="viewport">
<title>squid/src/snmp/Session.cc</title>
<!-- Node1 -->
<g id="Node000001" class="node">
<title>Node1</title>
<g id="a_Node000001"><a xlink:title=" ">
<polygon fill="#999999" stroke="#666666" points="3943,-239 3799,-239 3799,-220 3943,-220 3943,-239"/>
<text text-anchor="middle" x="3871" y="-227" font-family="Helvetica,sans-Serif" font-size="10.00">squid/src/snmp/Session.cc</text>
</a>
</g>
</g>
<!-- Node2 -->
<g id="Node000002" class="node">
<title>Node2</title>
<g id="a_Node000002"><a xlink:href="squid_8h.html" target="_top" xlink:title=" ">
<polygon fill="white" stroke="#666666" points="3266,-184 3214,-184 3214,-165 3266,-165 3266,-184"/>
<text text-anchor="middle" x="3240" y="-172" font-family="Helvetica,sans-Serif" font-size="10.00">squid.h</text>
</a>
</g>
</g>
<!-- Node1&#45;&gt;Node2 -->
<g id="edge1_Node000001_Node000002" class="edge">
<title>Node1&#45;&gt;Node2</title>
<g id="a_edge1_Node000001_Node000002"><a xlink:title=" ">
<path fill="none" stroke="#63b8ff" d="M3798.92,-222.45C3663.85,-211.1 3377.15,-187.02 3276.14,-178.54"/>
<polygon fill="#63b8ff" stroke="#63b8ff" points="3276.38,-175.04 3266.13,-177.69 3275.8,-182.02 3276.38,-175.04"/>
</a>
</g>
</g>
<!-- Node44 -->
<g id="Node000044" class="node">
<title>Node44</title>
<g id="a_Node000044"><a xlink:href="TextException_8h.html" target="_top" xlink:title=" ">
<polygon fill="white" stroke="#666666" points="3931,-184 3811,-184 3811,-165 3931,-165 3931,-184"/>
<text text-anchor="middle" x="3871" y="-172" font-family="Helvetica,sans-Serif" font-size="10.00">base/TextException.h</text>
</a>
</g>
</g>
<!-- Node1&#45;&gt;Node44 -->
<g id="edge30_Node000001_Node000044" class="edge">
<title>Node1&#45;&gt;Node44</title>
<g id="a_edge30_Node000001_Node000044"><a xlink:title=" ">
<path fill="none" stroke="#63b8ff" d="M3871,-219.75C3871,-212.8 3871,-202.85 3871,-194.13"/>
<polygon fill="#63b8ff" stroke="#63b8ff" points="3874.5,-194.09 3871,-184.09 3867.5,-194.09 3874.5,-194.09"/>
</a>
</g>
</g>
<!-- Node49 -->
<g id="Node000049" class="node">
<title>Node49</title>
<g id="a_Node000049"><a xlink:href="TypedMsgHdr_8h.html" target="_top" xlink:title=" ">
<polygon fill="white" stroke="#666666" points="4115,-184 4007,-184 4007,-165 4115,-165 4115,-184"/>
<text text-anchor="middle" x="4061" y="-172" font-family="Helvetica,sans-Serif" font-size="10.00">ipc/TypedMsgHdr.h</text>
</a>
</g>
</g>
<!-- Node1&#45;&gt;Node49 -->
<g id="edge36_Node000001_Node000049" class="edge">
<title>Node1&#45;&gt;Node49</title>
<g id="a_edge36_Node000001_Node000049"><a xlink:title=" ">
<path fill="none" stroke="#63b8ff" d="M3901.53,-219.98C3933.7,-211.01 3984.56,-196.82 4020.17,-186.89"/>
<polygon fill="#63b8ff" stroke="#63b8ff" points="4021.54,-190.14 4030.23,-184.08 4019.66,-183.4 4021.54,-190.14"/>
</a>
</g>
</g>
<!-- Node53 -->
<g id="Node000053" class="node">
<title>Node53</title>
<g id="a_Node000053"><a xlink:href="snmp_2Session_8h.html" target="_top" xlink:title=" ">
<polygon fill="white" stroke="#666666" points="3602.5,-184 3509.5,-184 3509.5,-165 3602.5,-165 3602.5,-184"/>
<text text-anchor="middle" x="3556" y="-172" font-family="Helvetica,sans-Serif" font-size="10.00">snmp/Session.h</text>
</a>
</g>
</g>
<!-- Node1&#45;&gt;Node53 -->
<g id="edge40_Node000001_Node000053" class="edge">
<title>Node1&#45;&gt;Node53</title>
<g id="a_edge40_Node000001_Node000053"><a xlink:title=" ">
<path fill="none" stroke="#63b8ff" d="M3820.39,-219.98C3763.59,-210.43 3671.67,-194.96 3612.55,-185.01"/>
<polygon fill="#63b8ff" stroke="#63b8ff" points="3613.07,-181.55 3602.63,-183.35 3611.91,-188.46 3613.07,-181.55"/>
</a>
</g>
</g>
<!-- Node69 -->
<g id="Node000069" class="node">
<title>Node69</title>
<g id="a_Node000069"><a xlink:title=" ">
<polygon fill="#e0e0e0" stroke="#999999" points="4183,-184 4133,-184 4133,-165 4183,-165 4183,-184"/>
<text text-anchor="middle" x="4158" y="-172" font-family="Helvetica,sans-Serif" font-size="10.00">tools.h</text>
</a>
</g>
</g>
<!-- Node1&#45;&gt;Node69 -->
<g id="edge53_Node000001_Node000069" class="edge">
<title>Node1&#45;&gt;Node69</title>
<g id="a_edge53_Node000001_Node000069"><a xlink:title=" ">
<path fill="none" stroke="#63b8ff" d="M3926,-219.98C3975.19,-212.1 4049.45,-199.56 4122.91,-184.11"/>
<polygon fill="#63b8ff" stroke="#63b8ff" points="4123.74,-187.51 4132.8,-182.01 4122.29,-180.66 4123.74,-187.51"/>
</a>
</g>
</g>
<!-- Node3 -->
<g id="Node000003" class="node">
<title>Node3</title>
<g id="a_Node000003"><a xlink:href="autoconf_8h.html" target="_top" xlink:title=" ">
<polygon fill="white" stroke="#666666" points="3305,-129 3237,-129 3237,-110 3305,-110 3305,-129"/>
<text text-anchor="middle" x="3271" y="-117" font-family="Helvetica,sans-Serif" font-size="10.00">autoconf.h</text>
</a>
</g>
</g>
<!-- Node2&#45;&gt;Node3 -->
<g id="edge2_Node000002_Node000003" class="edge">
<title>Node2&#45;&gt;Node3</title>
<g id="a_edge2_Node000002_Node000003"><a xlink:title=" ">
<path fill="none" stroke="#63b8ff" d="M3245.12,-164.75C3249.36,-157.49 3255.53,-146.95 3260.78,-137.98"/>
<polygon fill="#63b8ff" stroke="#63b8ff" points="3263.95,-139.49 3265.98,-129.09 3257.91,-135.95 3263.95,-139.49"/>
</a>
</g>
</g>
<!-- Node4 -->
<g id="Node000004" class="node">
<title>Node4</title>
<g id="a_Node000004"><a xlink:href="version_8h.html" target="_top" xlink:title=" ">
<polygon fill="white" stroke="#666666" points="3240,-74 3178,-74 3178,-55 3240,-55 3240,-74"/>
<text text-anchor="middle" x="3209" y="-62" font-family="Helvetica,sans-Serif" font-size="10.00">version.h</text>
</a>
</g>
</g>
<!-- Node2&#45;&gt;Node4 -->
<g id="edge3_Node000002_Node000004" class="edge">
<title>Node2&#45;&gt;Node4</title>
<g id="a_edge3_Node000002_Node000004"><a xlink:title=" ">
<path fill="none" stroke="#63b8ff" d="M3237.46,-164.66C3232.42,-147.09 3221.04,-107.45 3214.3,-83.95"/>
<polygon fill="#63b8ff" stroke="#63b8ff" points="3217.61,-82.8 3211.49,-74.16 3210.88,-84.74 3217.61,-82.8"/>
</a>
</g>
</g>
<!-- Node5 -->
<g id="Node000005" class="node">
<title>Node5</title>
<g id="a_Node000005"><a xlink:href="compat_8h.html" target="_top" xlink:title=" ">
<polygon fill="white" stroke="#666666" points="1680,-129 1578,-129 1578,-110 1680,-110 1680,-129"/>
<text text-anchor="middle" x="1629" y="-117" font-family="Helvetica,sans-Serif" font-size="10.00">compat/compat.h</text>
</a>
</g>
</g>
<!-- Node2&#45;&gt;Node5 -->
<g id="edge4_Node000002_Node000005" class="edge">
<title>Node2&#45;&gt;Node5</title>
<g id="a_edge4_Node000002_Node000005"><a xlink:title=" ">
<path fill="none" stroke="#63b8ff" d="M3213.71,-172.64C3031.91,-166.65 1960.69,-131.41 1690.74,-122.53"/>
<polygon fill="#63b8ff" stroke="#63b8ff" points="1690.46,-119.02 1680.35,-122.19 1690.23,-126.02 1690.46,-119.02"/>
</a>
</g>
</g>
<!-- Node6 -->
<g id="Node000006" class="node">
<title>Node6</title>
<g id="a_Node000006"><a xlink:href="osdetect_8h.html" target="_top" xlink:title=" ">
<polygon fill="white" stroke="#666666" points="860.5,-74 753.5,-74 753.5,-55 860.5,-55 860.5,-74"/>
<text text-anchor="middle" x="807" y="-62" font-family="Helvetica,sans-Serif" font-size="10.00">compat/osdetect.h</text>
</a>
</g>
</g>
<!-- Node5&#45;&gt;Node6 -->
<g id="edge5_Node000005_Node000006" class="edge">
<title>Node5&#45;&gt;Node6</title>
<g id="a_edge5_Node000005_Node000006"><a xlink:title=" ">
<path fill="none" stroke="#63b8ff" d="M1577.81,-116.83C1456.82,-112.61 1143.5,-99.99 870.68,-73.98"/>
<polygon fill="#63b8ff" stroke="#63b8ff" points="870.87,-70.48 860.58,-73.01 870.2,-77.45 870.87,-70.48"/>
</a>
</g>
</g>
<!-- Node7 -->
<g id="Node000007" class="node">
<title>Node7</title>
<g id="a_Node000007"><a xlink:href="fdsetsize_8h.html" target="_top" xlink:title=" ">
<polygon fill="white" stroke="#666666" points="989,-74 879,-74 879,-55 989,-55 989,-74"/>
<text text-anchor="middle" x="934" y="-62" font-family="Helvetica,sans-Serif" font-size="10.00">compat/fdsetsize.h</text>
</a>
</g>
</g>
<!-- Node5&#45;&gt;Node7 -->
<g id="edge6_Node000005_Node000007" class="edge">
<title>Node5&#45;&gt;Node7</title>
<g id="a_edge6_Node000005_Node000007"><a xlink:title=" ">
<path fill="none" stroke="#63b8ff" d="M1577.79,-115.96C1471.85,-110.48 1220.72,-96.27 999.32,-74.07"/>
<polygon fill="#63b8ff" stroke="#63b8ff" points="999.43,-70.56 989.13,-73.04 998.73,-77.53 999.43,-70.56"/>
</a>
</g>
</g>
<!-- Node8 -->
<g id="Node000008" class="node">
<title>Node8</title>
<g id="a_Node000008"><a xlink:href="types_8h.html" target="_top" xlink:title=" ">
<polygon fill="#fff0f0" stroke="red" points="1099,-74 1007,-74 1007,-55 1099,-55 1099,-74"/>
<text text-anchor="middle" x="1053" y="-62" font-family="Helvetica,sans-Serif" font-size="10.00">compat/types.h</text>
</a>
</g>
</g>
<!-- Node5&#45;&gt;Node8 -->
<g id="edge7_Node000005_Node000008" class="edge">
<title>Node5&#45;&gt;Node8</title>
<g id="a_edge7_Node000005_Node000008"><a xlink:title=" ">
<path fill="none" stroke="#63b8ff" d="M1577.86,-115.29C1486.1,-109.28 1287.27,-95.12 1109.26,-74.07"/>
<polygon fill="#63b8ff" stroke="#63b8ff" points="1109.53,-70.58 1099.18,-72.87 1108.7,-77.53 1109.53,-70.58"/>
</a>
</g>
</g>
<!-- Node10 -->
<g id="Node000010" class="node">
<title>Node10</title>
<g id="a_Node000010"><a xlink:href="aix_8h.html" target="_top" xlink:title=" ">
<polygon fill="white" stroke="#666666" points="1212.5,-74 1117.5,-74 1117.5,-55 1212.5,-55 1212.5,-74"/>
<text text-anchor="middle" x="1165" y="-62" font-family="Helvetica,sans-Serif" font-size="10.00">compat/os/aix.h</text>
</a>
</g>
</g>
<!-- Node5&#45;&gt;Node10 -->
<g id="edge8_Node000005_Node000010" class="edge">
<title>Node5&#45;&gt;Node10</title>
<g id="a_edge8_Node000005_Node000010"><a xlink:title=" ">
<path fill="none" stroke="#63b8ff" d="M1577.84,-113.56C1502.52,-106.13 1357.09,-91.25 1222.64,-74.03"/>
<polygon fill="#63b8ff" stroke="#63b8ff" points="1222.93,-70.54 1212.57,-72.74 1222.04,-77.48 1222.93,-70.54"/>
</a>
</g>
</g>
<!-- Node11 -->
<g id="Node000011" class="node">
<title>Node11</title>
<g id="a_Node000011"><a xlink:href="android_8h.html" target="_top" xlink:title=" ">
<polygon fill="white" stroke="#666666" points="1347,-74 1231,-74 1231,-55 1347,-55 1347,-74"/>
<text text-anchor="middle" x="1289" y="-62" font-family="Helvetica,sans-Serif" font-size="10.00">compat/os/android.h</text>
</a>
</g>
</g>
<!-- Node5&#45;&gt;Node11 -->
<g id="edge9_Node000005_Node000011" class="edge">
<title>Node5&#45;&gt;Node11</title>
<g id="a_edge9_Node000005_Node000011"><a xlink:title=" ">
<path fill="none" stroke="#63b8ff" d="M1577.73,-110.51C1517.95,-101.19 1419.04,-85.77 1353.94,-75.62"/>
<polygon fill="#63b8ff" stroke="#63b8ff" points="1354.21,-72.12 1343.79,-74.04 1353.13,-79.04 1354.21,-72.12"/>
</a>
</g>
</g>
<!-- Node12 -->
<g id="Node000012" class="node">
<title>Node12</title>
<g id="a_Node000012"><a xlink:href="dragonfly_8h.html" target="_top" xlink:title=" ">
<polygon fill="white" stroke="#666666" points="1489,-74 1365,-74 1365,-55 1489,-55 1489,-74"/>
<text text-anchor="middle" x="1427" y="-62" font-family="Helvetica,sans-Serif" font-size="10.00">compat/os/dragonfly.h</text>
</a>
</g>
</g>
<!-- Node5&#45;&gt;Node12 -->
<g id="edge10_Node000005_Node000012" class="edge">
<title>Node5&#45;&gt;Node12</title>
<g id="a_edge10_Node000005_Node000012"><a xlink:title=" ">
<path fill="none" stroke="#63b8ff" d="M1596.55,-109.98C1562.04,-100.93 1507.34,-86.58 1469.44,-76.64"/>
<polygon fill="#63b8ff" stroke="#63b8ff" points="1470.27,-73.23 1459.71,-74.08 1468.49,-80.01 1470.27,-73.23"/>
</a>
</g>
</g>
<!-- Node13 -->
<g id="Node000013" class="node">
<title>Node13</title>
<g id="a_Node000013"><a xlink:href="freebsd_8h.html" target="_top" xlink:title=" ">
<polygon fill="white" stroke="#666666" points="1623,-74 1507,-74 1507,-55 1623,-55 1623,-74"/>
<text text-anchor="middle" x="1565" y="-62" font-family="Helvetica,sans-Serif" font-size="10.00">compat/os/freebsd.h</text>
</a>
</g>
</g>
<!-- Node5&#45;&gt;Node13 -->
<g id="edge11_Node000005_Node000013" class="edge">
<title>Node5&#45;&gt;Node13</title>
<g id="a_edge11_Node000005_Node000013"><a xlink:title=" ">
<path fill="none" stroke="#63b8ff" d="M1618.72,-109.98C1609.16,-102.07 1594.72,-90.11 1583.22,-80.58"/>
<polygon fill="#63b8ff" stroke="#63b8ff" points="1585.4,-77.85 1575.47,-74.17 1580.94,-83.24 1585.4,-77.85"/>
</a>
</g>
</g>
<!-- Node14 -->
<g id="Node000014" class="node">
<title>Node14</title>
<g id="a_Node000014"><a xlink:href="hpux_8h.html" target="_top" xlink:title=" ">
<polygon fill="white" stroke="#666666" points="1745,-74 1641,-74 1641,-55 1745,-55 1745,-74"/>
<text text-anchor="middle" x="1693" y="-62" font-family="Helvetica,sans-Serif" font-size="10.00">compat/os/hpux.h</text>
</a>
</g>
</g>
<!-- Node5&#45;&gt;Node14 -->
<g id="edge12_Node000005_Node000014" class="edge">
<title>Node5&#45;&gt;Node14</title>
<g id="a_edge12_Node000005_Node000014"><a xlink:title=" ">
<path fill="none" stroke="#63b8ff" d="M1639.28,-109.98C1648.84,-102.07 1663.28,-90.11 1674.78,-80.58"/>
<polygon fill="#63b8ff" stroke="#63b8ff" points="1677.06,-83.24 1682.53,-74.17 1672.6,-77.85 1677.06,-83.24"/>
</a>
</g>
</g>
<!-- Node15 -->
<g id="Node000015" class="node">
<title>Node15</title>
<g id="a_Node000015"><a xlink:href="linux_8h.html" target="_top" xlink:title=" ">
<polygon fill="white" stroke="#666666" points="1867,-74 1763,-74 1763,-55 1867,-55 1867,-74"/>
<text text-anchor="middle" x="1815" y="-62" font-family="Helvetica,sans-Serif" font-size="10.00">compat/os/linux.h</text>
</a>
</g>
</g>
<!-- Node5&#45;&gt;Node15 -->
<g id="edge13_Node000005_Node000015" class="edge">
<title>Node5&#45;&gt;Node15</title>
<g id="a_edge13_Node000005_Node000015"><a xlink:title=" ">
<path fill="none" stroke="#63b8ff" d="M1658.88,-109.98C1690.38,-101.01 1740.17,-86.82 1775.03,-76.89"/>
<polygon fill="#63b8ff" stroke="#63b8ff" points="1776.22,-80.19 1784.88,-74.08 1774.31,-73.46 1776.22,-80.19"/>
</a>
</g>
</g>
<!-- Node16 -->
<g id="Node000016" class="node">
<title>Node16</title>
<g id="a_Node000016"><a xlink:href="macosx_8h.html" target="_top" xlink:title=" ">
<polygon fill="white" stroke="#666666" points="2003,-74 1885,-74 1885,-55 2003,-55 2003,-74"/>
<text text-anchor="middle" x="1944" y="-62" font-family="Helvetica,sans-Serif" font-size="10.00">compat/os/macosx.h</text>
</a>
</g>
</g>
<!-- Node5&#45;&gt;Node16 -->
<g id="edge14_Node000005_Node000016" class="edge">
<title>Node5&#45;&gt;Node16</title>
<g id="a_edge14_Node000005_Node000016"><a xlink:title=" ">
<path fill="none" stroke="#63b8ff" d="M1679.61,-109.98C1735.1,-100.65 1824.09,-85.67 1883.29,-75.71"/>
<polygon fill="#63b8ff" stroke="#63b8ff" points="1883.97,-79.15 1893.25,-74.04 1882.81,-72.25 1883.97,-79.15"/>
</a>
</g>
</g>
<!-- Node17 -->
<g id="Node000017" class="node">
<title>Node17</title>
<g id="a_Node000017"><a xlink:href="mingw_8h.html" target="_top" xlink:title=" ">
<polygon fill="white" stroke="#666666" points="2133,-74 2021,-74 2021,-55 2133,-55 2133,-74"/>
<text text-anchor="middle" x="2077" y="-62" font-family="Helvetica,sans-Serif" font-size="10.00">compat/os/mingw.h</text>
</a>
</g>
</g>
<!-- Node5&#45;&gt;Node17 -->
<g id="edge15_Node000005_Node000017" class="edge">
<title>Node5&#45;&gt;Node17</title>
<g id="a_edge15_Node000005_Node000017"><a xlink:title=" ">
<path fill="none" stroke="#63b8ff" d="M1680.14,-112.79C1751.66,-104.76 1885.93,-89.5 2010.86,-74.13"/>
<polygon fill="#63b8ff" stroke="#63b8ff" points="2011.49,-77.57 2020.99,-72.88 2010.63,-70.63 2011.49,-77.57"/>
</a>
</g>
</g>
<!-- Node18 -->
<g id="Node000018" class="node">
<title>Node18</title>
<g id="a_Node000018"><a xlink:href="mswindows_8h.html" target="_top" xlink:title=" ">
<polygon fill="white" stroke="#666666" points="2288.5,-74 2151.5,-74 2151.5,-55 2288.5,-55 2288.5,-74"/>
<text text-anchor="middle" x="2220" y="-62" font-family="Helvetica,sans-Serif" font-size="10.00">compat/os/mswindows.h</text>
</a>
</g>
</g>
<!-- Node5&#45;&gt;Node18 -->
<g id="edge16_Node000005_Node000018" class="edge">
<title>Node5&#45;&gt;Node18</title>
<g id="a_edge16_Node000005_Node000018"><a xlink:title=" ">
<path fill="none" stroke="#63b8ff" d="M1680,-114.45C1770.5,-107.18 1965.35,-91.17 2140.9,-74.09"/>
<polygon fill="#63b8ff" stroke="#63b8ff" points="2141.49,-77.55 2151.11,-73.09 2140.81,-70.58 2141.49,-77.55"/>
</a>
</g>
</g>
<!-- Node19 -->
<g id="Node000019" class="node">
<title>Node19</title>
<g id="a_Node000019"><a xlink:href="netbsd_8h.html" target="_top" xlink:title=" ">
<polygon fill="white" stroke="#666666" points="2419.5,-74 2306.5,-74 2306.5,-55 2419.5,-55 2419.5,-74"/>
<text text-anchor="middle" x="2363" y="-62" font-family="Helvetica,sans-Serif" font-size="10.00">compat/os/netbsd.h</text>
</a>
</g>
</g>
<!-- Node5&#45;&gt;Node19 -->
<g id="edge17_Node000005_Node000019" class="edge">
<title>Node5&#45;&gt;Node19</title>
<g id="a_edge17_Node000005_Node000019"><a xlink:title=" ">
<path fill="none" stroke="#63b8ff" d="M1680.21,-116.17C1790.64,-110.9 2059.62,-96.82 2295.98,-74.04"/>
<polygon fill="#63b8ff" stroke="#63b8ff" points="2296.53,-77.5 2306.14,-73.05 2295.85,-70.53 2296.53,-77.5"/>
</a>
</g>
</g>
<!-- Node20 -->
<g id="Node000020" class="node">
<title>Node20</title>
<g id="a_Node000020"><a xlink:href="openbsd_8h.html" target="_top" xlink:title=" ">
<polygon fill="white" stroke="#666666" points="2558.5,-74 2437.5,-74 2437.5,-55 2558.5,-55 2558.5,-74"/>
<text text-anchor="middle" x="2498" y="-62" font-family="Helvetica,sans-Serif" font-size="10.00">compat/os/openbsd.h</text>
</a>
</g>
</g>
<!-- Node5&#45;&gt;Node20 -->
<g id="edge18_Node000005_Node000020" class="edge">
<title>Node5&#45;&gt;Node20</title>
<g id="a_edge18_Node000005_Node000020"><a xlink:title=" ">
<path fill="none" stroke="#63b8ff" d="M1680.03,-116.81C1805.28,-112.42 2138.11,-99.26 2427.06,-74.02"/>
<polygon fill="#63b8ff" stroke="#63b8ff" points="2427.66,-77.48 2437.32,-73.11 2427.05,-70.5 2427.66,-77.48"/>
</a>
</g>
</g>
<!-- Node21 -->
<g id="Node000021" class="node">
<title>Node21</title>
<g id="a_Node000021"><a xlink:href="os2_8h.html" target="_top" xlink:title=" ">
<polygon fill="white" stroke="#666666" points="2673.5,-74 2576.5,-74 2576.5,-55 2673.5,-55 2673.5,-74"/>
<text text-anchor="middle" x="2625" y="-62" font-family="Helvetica,sans-Serif" font-size="10.00">compat/os/os2.h</text>
</a>
</g>
</g>
<!-- Node5&#45;&gt;Node21 -->
<g id="edge19_Node000005_Node000021" class="edge">
<title>Node5&#45;&gt;Node21</title>
<g id="a_edge19_Node000005_Node000021"><a xlink:title=" ">
<path fill="none" stroke="#63b8ff" d="M1680.22,-117.83C1820.31,-115.64 2221.73,-106.81 2566.14,-73.97"/>
<polygon fill="#63b8ff" stroke="#63b8ff" points="2566.69,-77.43 2576.31,-72.99 2566.02,-70.46 2566.69,-77.43"/>
</a>
</g>
</g>
<!-- Node22 -->
<g id="Node000022" class="node">
<title>Node22</title>
<g id="a_Node000022"><a xlink:href="qnx_8h.html" target="_top" xlink:title=" ">
<polygon fill="white" stroke="#666666" points="2790,-74 2692,-74 2692,-55 2790,-55 2790,-74"/>
<text text-anchor="middle" x="2741" y="-62" font-family="Helvetica,sans-Serif" font-size="10.00">compat/os/qnx.h</text>
</a>
</g>
</g>
<!-- Node5&#45;&gt;Node22 -->
<g id="edge20_Node000005_Node000022" class="edge">
<title>Node5&#45;&gt;Node22</title>
<g id="a_edge20_Node000005_Node000022"><a xlink:title=" ">
<path fill="none" stroke="#63b8ff" d="M1680.08,-118.16C1831.31,-116.78 2290.1,-109.8 2681.68,-73.9"/>
<polygon fill="#63b8ff" stroke="#63b8ff" points="2682.15,-77.37 2691.79,-72.97 2681.51,-70.4 2682.15,-77.37"/>
</a>
</g>
</g>
<!-- Node23 -->
<g id="Node000023" class="node">
<title>Node23</title>
<g id="a_Node000023"><a xlink:href="solaris_8h.html" target="_top" xlink:title=" ">
<polygon fill="white" stroke="#666666" points="2920,-74 2808,-74 2808,-55 2920,-55 2920,-74"/>
<text text-anchor="middle" x="2864" y="-62" font-family="Helvetica,sans-Serif" font-size="10.00">compat/os/solaris.h</text>
</a>
</g>
</g>
<!-- Node5&#45;&gt;Node23 -->
<g id="edge21_Node000005_Node000023" class="edge">
<title>Node5&#45;&gt;Node23</title>
<g id="a_edge21_Node000005_Node000023"><a xlink:title=" ">
<path fill="none" stroke="#63b8ff" d="M1680.13,-118.23C1842.25,-117.03 2359.4,-110.46 2797.65,-74.03"/>
<polygon fill="#63b8ff" stroke="#63b8ff" points="2797.99,-77.51 2807.66,-73.19 2797.41,-70.54 2797.99,-77.51"/>
</a>
</g>
</g>
<!-- Node24 -->
<g id="Node000024" class="node">
<title>Node24</title>
<g id="a_Node000024"><a xlink:href="sunos_8h.html" target="_top" xlink:title=" ">
<polygon fill="white" stroke="#666666" points="3046,-74 2938,-74 2938,-55 3046,-55 3046,-74"/>
<text text-anchor="middle" x="2992" y="-62" font-family="Helvetica,sans-Serif" font-size="10.00">compat/os/sunos.h</text>
</a>
</g>
</g>
<!-- Node5&#45;&gt;Node24 -->
<g id="edge22_Node000005_Node000024" class="edge">
<title>Node5&#45;&gt;Node24</title>
<g id="a_edge22_Node000005_Node000024"><a xlink:title=" ">
<path fill="none" stroke="#63b8ff" d="M1680.21,-118.58C1853.84,-118.47 2436.31,-114.94 2927.61,-74.02"/>
<polygon fill="#63b8ff" stroke="#63b8ff" points="2928.07,-77.49 2937.74,-73.17 2927.48,-70.52 2928.07,-77.49"/>
</a>
</g>
</g>
<!-- Node25 -->
<g id="Node000025" class="node">
<title>Node25</title>
<g id="a_Node000025"><a xlink:href="assert_8h.html" target="_top" xlink:title=" ">
<polygon fill="white" stroke="#666666" points="3159.5,-74 3064.5,-74 3064.5,-55 3159.5,-55 3159.5,-74"/>
<text text-anchor="middle" x="3112" y="-62" font-family="Helvetica,sans-Serif" font-size="10.00">compat/assert.h</text>
</a>
</g>
</g>
<!-- Node5&#45;&gt;Node25 -->
<g id="edge23_Node000005_Node000025" class="edge">
<title>Node5&#45;&gt;Node25</title>
<g id="a_edge23_Node000005_Node000025"><a xlink:title=" ">
<path fill="none" stroke="#63b8ff" d="M1680.27,-117.7C1899.43,-114.18 2759.45,-99.08 3054.22,-73.91"/>
<polygon fill="#63b8ff" stroke="#63b8ff" points="3054.81,-77.37 3064.46,-73.01 3054.2,-70.4 3054.81,-77.37"/>
</a>
</g>
</g>
<!-- Node26 -->
<g id="Node000026" class="node">
<title>Node26</title>
<g id="a_Node000026"><a xlink:href="compat__shared_8h.html" target="_top" xlink:title=" ">
<polygon fill="#fff0f0" stroke="red" points="140,-74 0,-74 0,-55 140,-55 140,-74"/>
<text text-anchor="middle" x="70" y="-62" font-family="Helvetica,sans-Serif" font-size="10.00">compat/compat_shared.h</text>
</a>
</g>
</g>
<!-- Node5&#45;&gt;Node26 -->
<g id="edge24_Node000005_Node000026" class="edge">
<title>Node5&#45;&gt;Node26</title>
<g id="a_edge24_Node000005_Node000026"><a xlink:title=" ">
<path fill="none" stroke="#63b8ff" d="M1577.81,-118.39C1389.32,-117.68 716.03,-112.49 150.18,-74.02"/>
<polygon fill="#63b8ff" stroke="#63b8ff" points="150.4,-70.53 140.19,-73.34 149.92,-77.51 150.4,-70.53"/>
</a>
</g>
</g>
<!-- Node36 -->
<g id="Node000036" class="node">
<title>Node36</title>
<g id="a_Node000036"><a xlink:href="stdvarargs_8h.html" target="_top" xlink:title=" ">
<polygon fill="#fff0f0" stroke="red" points="275.5,-74 158.5,-74 158.5,-55 275.5,-55 275.5,-74"/>
<text text-anchor="middle" x="217" y="-62" font-family="Helvetica,sans-Serif" font-size="10.00">compat/stdvarargs.h</text>
</a>
</g>
</g>
<!-- Node5&#45;&gt;Node36 -->
<g id="edge25_Node000005_Node000036" class="edge">
<title>Node5&#45;&gt;Node36</title>
<g id="a_edge25_Node000005_Node000036"><a xlink:title=" ">
<path fill="none" stroke="#63b8ff" d="M1577.91,-118.52C1400.61,-118.23 795.39,-114.22 285.92,-74.08"/>
<polygon fill="#63b8ff" stroke="#63b8ff" points="286.04,-70.58 275.79,-73.27 285.49,-77.55 286.04,-70.58"/>
</a>
</g>
</g>
<!-- Node38 -->
<g id="Node000038" class="node">
<title>Node38</title>
<g id="a_Node000038"><a xlink:href="stdio_8h.html" target="_top" xlink:title=" ">
<polygon fill="#fff0f0" stroke="red" points="382.5,-74 293.5,-74 293.5,-55 382.5,-55 382.5,-74"/>
<text text-anchor="middle" x="338" y="-62" font-family="Helvetica,sans-Serif" font-size="10.00">compat/stdio.h</text>
</a>
</g>
</g>
<!-- Node5&#45;&gt;Node38 -->
<g id="edge26_Node000005_Node000038" class="edge">
<title>Node5&#45;&gt;Node38</title>
<g id="a_edge26_Node000005_Node000038"><a xlink:title=" ">
<path fill="none" stroke="#63b8ff" d="M1577.85,-118.91C1409.6,-119.79 858.03,-118.88 393.05,-74.08"/>
<polygon fill="#63b8ff" stroke="#63b8ff" points="393.06,-70.56 382.77,-73.08 392.38,-77.53 393.06,-70.56"/>
</a>
</g>
</g>
<!-- Node40 -->
<g id="Node000040" class="node">
<title>Node40</title>
<g id="a_Node000040"><a xlink:href="statvfs_8h.html" target="_top" xlink:title=" ">
<polygon fill="white" stroke="#666666" points="499.5,-74 400.5,-74 400.5,-55 499.5,-55 499.5,-74"/>
<text text-anchor="middle" x="450" y="-62" font-family="Helvetica,sans-Serif" font-size="10.00">compat/statvfs.h</text>
</a>
</g>
</g>
<!-- Node5&#45;&gt;Node40 -->
<g id="edge27_Node000005_Node000040" class="edge">
<title>Node5&#45;&gt;Node40</title>
<g id="a_edge27_Node000005_Node000040"><a xlink:title=" ">
<path fill="none" stroke="#63b8ff" d="M1577.76,-118.39C1419.97,-117.65 927.41,-112.29 509.79,-74.06"/>
<polygon fill="#63b8ff" stroke="#63b8ff" points="509.91,-70.56 499.63,-73.13 509.27,-77.53 509.91,-70.56"/>
</a>
</g>
</g>
<!-- Node41 -->
<g id="Node000041" class="node">
<title>Node41</title>
<g id="a_Node000041"><a xlink:href="debug_8h.html" target="_top" xlink:title=" ">
<polygon fill="white" stroke="#666666" points="612.5,-74 517.5,-74 517.5,-55 612.5,-55 612.5,-74"/>
<text text-anchor="middle" x="565" y="-62" font-family="Helvetica,sans-Serif" font-size="10.00">compat/debug.h</text>
</a>
</g>
</g>
<!-- Node5&#45;&gt;Node41 -->
<g id="edge28_Node000005_Node000041" class="edge">
<title>Node5&#45;&gt;Node41</title>
<g id="a_edge28_Node000005_Node000041"><a xlink:title=" ">
<path fill="none" stroke="#63b8ff" d="M1577.99,-118.17C1431.15,-116.79 994.66,-109.85 622.77,-74.07"/>
<polygon fill="#63b8ff" stroke="#63b8ff" points="622.91,-70.56 612.62,-73.08 622.23,-77.53 622.91,-70.56"/>
</a>
</g>
</g>
<!-- Node42 -->
<g id="Node000042" class="node">
<title>Node42</title>
<g id="a_Node000042"><a xlink:href="valgrind_8h.html" target="_top" xlink:title=" ">
<polygon fill="#fff0f0" stroke="red" points="735.5,-74 630.5,-74 630.5,-55 735.5,-55 735.5,-74"/>
<text text-anchor="middle" x="683" y="-62" font-family="Helvetica,sans-Serif" font-size="10.00">compat/valgrind.h</text>
</a>
</g>
</g>
<!-- Node5&#45;&gt;Node42 -->
<g id="edge29_Node000005_Node000042" class="edge">
<title>Node5&#45;&gt;Node42</title>
<g id="a_edge29_Node000005_Node000042"><a xlink:title=" ">
<path fill="none" stroke="#63b8ff" d="M1577.51,-117.5C1442.62,-114.53 1067.68,-104.11 745.53,-74.06"/>
<polygon fill="#63b8ff" stroke="#63b8ff" points="745.82,-70.57 735.54,-73.12 745.17,-77.54 745.82,-70.57"/>
</a>
</g>
</g>
<!-- Node45 -->
<g id="Node000045" class="node">
<title>Node45</title>
<g id="a_Node000045"><a xlink:href="Assure_8h.html" target="_top" xlink:title=" ">
<polygon fill="white" stroke="#666666" points="3913.5,-129 3828.5,-129 3828.5,-110 3913.5,-110 3913.5,-129"/>
<text text-anchor="middle" x="3871" y="-117" font-family="Helvetica,sans-Serif" font-size="10.00">base/Assure.h</text>
</a>
</g>
</g>
<!-- Node44&#45;&gt;Node45 -->
<g id="edge31_Node000044_Node000045" class="edge">
<title>Node44&#45;&gt;Node45</title>
<g id="a_edge31_Node000044_Node000045"><a xlink:title=" ">
<path fill="none" stroke="#63b8ff" d="M3871,-164.75C3871,-157.8 3871,-147.85 3871,-139.13"/>
<polygon fill="#63b8ff" stroke="#63b8ff" points="3874.5,-139.09 3871,-129.09 3867.5,-139.09 3874.5,-139.09"/>
</a>
</g>
</g>
<!-- Node46 -->
<g id="Node000046" class="node">
<title>Node46</title>
<g id="a_Node000046"><a xlink:href="Here_8h.html" target="_top" xlink:title=" ">
<polygon fill="white" stroke="#666666" points="4007.5,-74 3932.5,-74 3932.5,-55 4007.5,-55 4007.5,-74"/>
<text text-anchor="middle" x="3970" y="-62" font-family="Helvetica,sans-Serif" font-size="10.00">base/Here.h</text>
</a>
</g>
</g>
<!-- Node44&#45;&gt;Node46 -->
<g id="edge34_Node000044_Node000046" class="edge">
<title>Node44&#45;&gt;Node46</title>
<g id="a_edge34_Node000044_Node000046"><a xlink:title=" ">
<path fill="none" stroke="#63b8ff" d="M3854.89,-164.86C3834.54,-152.82 3803.9,-130.2 3819,-110 3825.44,-101.39 3881.03,-86.55 3922.91,-76.39"/>
<polygon fill="#63b8ff" stroke="#63b8ff" points="3923.78,-79.78 3932.68,-74.04 3922.14,-72.97 3923.78,-79.78"/>
</a>
</g>
</g>
<!-- Node48 -->
<g id="Node000048" class="node">
<title>Node48</title>
<g id="a_Node000048"><a xlink:title=" ">
<polygon fill="#e0e0e0" stroke="#999999" points="3996.5,-129 3931.5,-129 3931.5,-110 3996.5,-110 3996.5,-129"/>
<text text-anchor="middle" x="3964" y="-117" font-family="Helvetica,sans-Serif" font-size="10.00">stdexcept</text>
</a>
</g>
</g>
<!-- Node44&#45;&gt;Node48 -->
<g id="edge35_Node000044_Node000048" class="edge">
<title>Node44&#45;&gt;Node48</title>
<g id="a_edge35_Node000044_Node000048"><a xlink:title=" ">
<path fill="none" stroke="#63b8ff" d="M3885.94,-164.98C3900.5,-156.69 3922.87,-143.94 3939.93,-134.22"/>
<polygon fill="#63b8ff" stroke="#63b8ff" points="3941.83,-137.16 3948.79,-129.17 3938.36,-131.08 3941.83,-137.16"/>
</a>
</g>
</g>
<!-- Node45&#45;&gt;Node46 -->
<g id="edge32_Node000045_Node000046" class="edge">
<title>Node45&#45;&gt;Node46</title>
<g id="a_edge32_Node000045_Node000046"><a xlink:title=" ">
<path fill="none" stroke="#63b8ff" d="M3886.91,-109.98C3902.55,-101.61 3926.66,-88.7 3944.88,-78.95"/>
<polygon fill="#63b8ff" stroke="#63b8ff" points="3946.64,-81.98 3953.8,-74.17 3943.34,-75.8 3946.64,-81.98"/>
</a>
</g>
</g>
<!-- Node47 -->
<g id="Node000047" class="node">
<title>Node47</title>
<g id="a_Node000047"><a xlink:title=" ">
<polygon fill="#e0e0e0" stroke="#999999" points="3994,-19 3946,-19 3946,0 3994,0 3994,-19"/>
<text text-anchor="middle" x="3970" y="-7" font-family="Helvetica,sans-Serif" font-size="10.00">iosfwd</text>
</a>
</g>
</g>
<!-- Node46&#45;&gt;Node47 -->
<g id="edge33_Node000046_Node000047" class="edge">
<title>Node46&#45;&gt;Node47</title>
<g id="a_edge33_Node000046_Node000047"><a xlink:title=" ">
<path fill="none" stroke="#63b8ff" d="M3970,-54.75C3970,-47.8 3970,-37.85 3970,-29.13"/>
<polygon fill="#63b8ff" stroke="#63b8ff" points="3973.5,-29.09 3970,-19.09 3966.5,-29.09 3973.5,-29.09"/>
</a>
</g>
</g>
<!-- Node50 -->
<g id="Node000050" class="node">
<title>Node50</title>
<g id="a_Node000050"><a xlink:href="cmsg_8h.html" target="_top" xlink:title=" ">
<polygon fill="white" stroke="#666666" points="4107,-129 4015,-129 4015,-110 4107,-110 4107,-129"/>
<text text-anchor="middle" x="4061" y="-117" font-family="Helvetica,sans-Serif" font-size="10.00">compat/cmsg.h</text>
</a>
</g>
</g>
<!-- Node49&#45;&gt;Node50 -->
<g id="edge37_Node000049_Node000050" class="edge">
<title>Node49&#45;&gt;Node50</title>
<g id="a_edge37_Node000049_Node000050"><a xlink:title=" ">
<path fill="none" stroke="#63b8ff" d="M4061,-164.75C4061,-157.8 4061,-147.85 4061,-139.13"/>
<polygon fill="#63b8ff" stroke="#63b8ff" points="4064.5,-139.09 4061,-129.09 4057.5,-139.09 4064.5,-139.09"/>
</a>
</g>
</g>
<!-- Node51 -->
<g id="Node000051" class="node">
<title>Node51</title>
<g id="a_Node000051"><a xlink:href="ipc_2Messages_8h.html" target="_top" xlink:title=" ">
<polygon fill="white" stroke="#666666" points="4217,-129 4125,-129 4125,-110 4217,-110 4217,-129"/>
<text text-anchor="middle" x="4171" y="-117" font-family="Helvetica,sans-Serif" font-size="10.00">ipc/Messages.h</text>
</a>
</g>
</g>
<!-- Node49&#45;&gt;Node51 -->
<g id="edge38_Node000049_Node000051" class="edge">
<title>Node49&#45;&gt;Node51</title>
<g id="a_edge38_Node000049_Node000051"><a xlink:title=" ">
<path fill="none" stroke="#63b8ff" d="M4078.67,-164.98C4096.29,-156.5 4123.58,-143.35 4143.93,-133.54"/>
<polygon fill="#63b8ff" stroke="#63b8ff" points="4145.52,-136.66 4153.01,-129.17 4142.48,-130.36 4145.52,-136.66"/>
</a>
</g>
</g>
<!-- Node52 -->
<g id="Node000052" class="node">
<title>Node52</title>
<g id="a_Node000052"><a xlink:title=" ">
<polygon fill="#e0e0e0" stroke="#999999" points="4304.5,-129 4235.5,-129 4235.5,-110 4304.5,-110 4304.5,-129"/>
<text text-anchor="middle" x="4270" y="-117" font-family="Helvetica,sans-Serif" font-size="10.00">type_traits</text>
</a>
</g>
</g>
<!-- Node49&#45;&gt;Node52 -->
<g id="edge39_Node000049_Node000052" class="edge">
<title>Node49&#45;&gt;Node52</title>
<g id="a_edge39_Node000049_Node000052"><a xlink:title=" ">
<path fill="none" stroke="#63b8ff" d="M4094.58,-164.98C4130.35,-155.91 4187.12,-141.52 4226.34,-131.57"/>
<polygon fill="#63b8ff" stroke="#63b8ff" points="4227.32,-134.93 4236.16,-129.08 4225.6,-128.15 4227.32,-134.93"/>
</a>
</g>
</g>
<!-- Node54 -->
<g id="Node000054" class="node">
<title>Node54</title>
<g id="a_Node000054"><a xlink:href="ipc_2forward_8h.html" target="_top" xlink:title=" ">
<polygon fill="white" stroke="#666666" points="3639,-129 3559,-129 3559,-110 3639,-110 3639,-129"/>
<text text-anchor="middle" x="3599" y="-117" font-family="Helvetica,sans-Serif" font-size="10.00">ipc/forward.h</text>
</a>
</g>
</g>
<!-- Node53&#45;&gt;Node54 -->
<g id="edge41_Node000053_Node000054" class="edge">
<title>Node53&#45;&gt;Node54</title>
<g id="a_edge41_Node000053_Node000054"><a xlink:title=" ">
<path fill="none" stroke="#63b8ff" d="M3563.1,-164.75C3569.17,-157.26 3578.09,-146.28 3585.51,-137.13"/>
<polygon fill="#63b8ff" stroke="#63b8ff" points="3588.45,-139.06 3592.03,-129.09 3583.01,-134.65 3588.45,-139.06"/>
</a>
</g>
</g>
<!-- Node55 -->
<g id="Node000055" class="node">
<title>Node55</title>
<g id="a_Node000055"><a xlink:href="snmp_8h.html" target="_top" xlink:title=" ">
<polygon fill="#fff0f0" stroke="red" points="3540.5,-129 3487.5,-129 3487.5,-110 3540.5,-110 3540.5,-129"/>
<text text-anchor="middle" x="3514" y="-117" font-family="Helvetica,sans-Serif" font-size="10.00">snmp.h</text>
</a>
</g>
</g>
<!-- Node53&#45;&gt;Node55 -->
<g id="edge42_Node000053_Node000055" class="edge">
<title>Node53&#45;&gt;Node55</title>
<g id="a_edge42_Node000053_Node000055"><a xlink:title=" ">
<path fill="none" stroke="#63b8ff" d="M3549.06,-164.75C3543.13,-157.26 3534.43,-146.28 3527.18,-137.13"/>
<polygon fill="#63b8ff" stroke="#63b8ff" points="3529.76,-134.75 3520.81,-129.09 3524.27,-139.1 3529.76,-134.75"/>
</a>
</g>
</g>
<!-- Node57 -->
<g id="Node000057" class="node">
<title>Node57</title>
<g id="a_Node000057"><a xlink:href="snmp__session_8h.html" target="_top" xlink:title=" ">
<polygon fill="white" stroke="#666666" points="3353.5,-74 3258.5,-74 3258.5,-55 3353.5,-55 3353.5,-74"/>
<text text-anchor="middle" x="3306" y="-62" font-family="Helvetica,sans-Serif" font-size="10.00">snmp_session.h</text>
</a>
</g>
</g>
<!-- Node53&#45;&gt;Node57 -->
<g id="edge52_Node000053_Node000057" class="edge">
<title>Node53&#45;&gt;Node57</title>
<g id="a_edge52_Node000053_Node000057"><a xlink:title=" ">
<path fill="none" stroke="#63b8ff" d="M3535.96,-164.84C3491.88,-145.8 3386.32,-100.2 3335,-78.03"/>
<polygon fill="#63b8ff" stroke="#63b8ff" points="3336.35,-74.8 3325.78,-74.05 3333.58,-81.23 3336.35,-74.8"/>
</a>
</g>
</g>
<!-- Node55&#45;&gt;Node4 -->
<g id="edge51_Node000055_Node000004" class="edge">
<title>Node55&#45;&gt;Node4</title>
<g id="a_edge51_Node000055_Node000004"><a xlink:title=" ">
<path fill="none" stroke="#63b8ff" d="M3487.23,-114.39C3441.01,-107.22 3343.06,-91.66 3250.51,-74.22"/>
<polygon fill="#63b8ff" stroke="#63b8ff" points="3250.89,-70.73 3240.42,-72.31 3249.59,-77.61 3250.89,-70.73"/>
</a>
</g>
</g>
<!-- Node56 -->
<g id="Node000056" class="node">
<title>Node56</title>
<g id="a_Node000056"><a xlink:href="snmp__error_8h.html" target="_top" xlink:title=" ">
<polygon fill="white" stroke="#666666" points="3452,-74 3372,-74 3372,-55 3452,-55 3452,-74"/>
<text text-anchor="middle" x="3412" y="-62" font-family="Helvetica,sans-Serif" font-size="10.00">snmp_error.h</text>
</a>
</g>
</g>
<!-- Node55&#45;&gt;Node56 -->
<g id="edge43_Node000055_Node000056" class="edge">
<title>Node55&#45;&gt;Node56</title>
<g id="a_edge43_Node000055_Node000056"><a xlink:title=" ">
<path fill="none" stroke="#63b8ff" d="M3497.61,-109.98C3481.43,-101.57 3456.43,-88.59 3437.62,-78.81"/>
<polygon fill="#63b8ff" stroke="#63b8ff" points="3439.17,-75.68 3428.69,-74.17 3435.95,-81.89 3439.17,-75.68"/>
</a>
</g>
</g>
<!-- Node55&#45;&gt;Node57 -->
<g id="edge44_Node000055_Node000057" class="edge">
<title>Node55&#45;&gt;Node57</title>
<g id="a_edge44_Node000055_Node000057"><a xlink:title=" ">
<path fill="none" stroke="#63b8ff" d="M3487.23,-111.68C3452.36,-102.79 3390.96,-87.15 3349.39,-76.56"/>
<polygon fill="#63b8ff" stroke="#63b8ff" points="3350.1,-73.12 3339.54,-74.05 3348.37,-79.91 3350.1,-73.12"/>
</a>
</g>
</g>
<!-- Node58 -->
<g id="Node000058" class="node">
<title>Node58</title>
<g id="a_Node000058"><a xlink:href="snmp__msg_8h.html" target="_top" xlink:title=" ">
<polygon fill="white" stroke="#666666" points="3587.5,-74 3508.5,-74 3508.5,-55 3587.5,-55 3587.5,-74"/>
<text text-anchor="middle" x="3548" y="-62" font-family="Helvetica,sans-Serif" font-size="10.00">snmp_msg.h</text>
</a>
</g>
</g>
<!-- Node55&#45;&gt;Node58 -->
<g id="edge45_Node000055_Node000058" class="edge">
<title>Node55&#45;&gt;Node58</title>
<g id="a_edge45_Node000055_Node000058"><a xlink:title=" ">
<path fill="none" stroke="#63b8ff" d="M3519.61,-109.75C3524.32,-102.42 3531.17,-91.73 3536.97,-82.7"/>
<polygon fill="#63b8ff" stroke="#63b8ff" points="3540.04,-84.4 3542.49,-74.09 3534.14,-80.62 3540.04,-84.4"/>
</a>
</g>
</g>
<!-- Node59 -->
<g id="Node000059" class="node">
<title>Node59</title>
<g id="a_Node000059"><a xlink:href="snmp__pdu_8h.html" target="_top" xlink:title=" ">
<polygon fill="#fff0f0" stroke="red" points="3552,-19 3476,-19 3476,0 3552,0 3552,-19"/>
<text text-anchor="middle" x="3514" y="-7" font-family="Helvetica,sans-Serif" font-size="10.00">snmp_pdu.h</text>
</a>
</g>
</g>
<!-- Node55&#45;&gt;Node59 -->
<g id="edge47_Node000055_Node000059" class="edge">
<title>Node55&#45;&gt;Node59</title>
<g id="a_edge47_Node000055_Node000059"><a xlink:title=" ">
<path fill="none" stroke="#63b8ff" d="M3509.76,-109.95C3504.26,-97.82 3495.74,-74.9 3499,-55 3500.47,-46.05 3503.49,-36.47 3506.44,-28.51"/>
<polygon fill="#63b8ff" stroke="#63b8ff" points="3509.72,-29.74 3510.14,-19.15 3503.21,-27.16 3509.72,-29.74"/>
</a>
</g>
</g>
<!-- Node61 -->
<g id="Node000061" class="node">
<title>Node61</title>
<g id="a_Node000061"><a xlink:href="snmp__vars_8h.html" target="_top" xlink:title=" ">
<polygon fill="#fff0f0" stroke="red" points="3684.5,-74 3605.5,-74 3605.5,-55 3684.5,-55 3684.5,-74"/>
<text text-anchor="middle" x="3645" y="-62" font-family="Helvetica,sans-Serif" font-size="10.00">snmp_vars.h</text>
</a>
</g>
</g>
<!-- Node55&#45;&gt;Node61 -->
<g id="edge48_Node000055_Node000061" class="edge">
<title>Node55&#45;&gt;Node61</title>
<g id="a_edge48_Node000055_Node000061"><a xlink:title=" ">
<path fill="none" stroke="#63b8ff" d="M3535.05,-109.98C3556.41,-101.34 3589.7,-87.87 3614.06,-78.02"/>
<polygon fill="#63b8ff" stroke="#63b8ff" points="3615.61,-81.17 3623.57,-74.17 3612.99,-74.68 3615.61,-81.17"/>
</a>
</g>
</g>
<!-- Node62 -->
<g id="Node000062" class="node">
<title>Node62</title>
<g id="a_Node000062"><a xlink:href="snmp__api__error_8h.html" target="_top" xlink:title=" ">
<polygon fill="white" stroke="#666666" points="3803.5,-74 3702.5,-74 3702.5,-55 3803.5,-55 3803.5,-74"/>
<text text-anchor="middle" x="3753" y="-62" font-family="Helvetica,sans-Serif" font-size="10.00">snmp_api_error.h</text>
</a>
</g>
</g>
<!-- Node55&#45;&gt;Node62 -->
<g id="edge49_Node000055_Node000062" class="edge">
<title>Node55&#45;&gt;Node62</title>
<g id="a_edge49_Node000055_Node000062"><a xlink:title=" ">
<path fill="none" stroke="#63b8ff" d="M3540.73,-112.14C3543.85,-111.41 3546.99,-110.68 3550,-110 3602.21,-98.11 3662.12,-85.05 3703.25,-76.17"/>
<polygon fill="#63b8ff" stroke="#63b8ff" points="3704.24,-79.54 3713.28,-74.01 3702.77,-72.7 3704.24,-79.54"/>
</a>
</g>
</g>
<!-- Node63 -->
<g id="Node000063" class="node">
<title>Node63</title>
<g id="a_Node000063"><a xlink:href="snmp__coexist_8h.html" target="_top" xlink:title=" ">
<polygon fill="white" stroke="#666666" points="3914.5,-74 3821.5,-74 3821.5,-55 3914.5,-55 3914.5,-74"/>
<text text-anchor="middle" x="3868" y="-62" font-family="Helvetica,sans-Serif" font-size="10.00">snmp_coexist.h</text>
</a>
</g>
</g>
<!-- Node55&#45;&gt;Node63 -->
<g id="edge50_Node000055_Node000063" class="edge">
<title>Node55&#45;&gt;Node63</title>
<g id="a_edge50_Node000055_Node000063"><a xlink:title=" ">
<path fill="none" stroke="#63b8ff" d="M3540.68,-111.9C3543.81,-111.22 3546.97,-110.56 3550,-110 3662.39,-89.06 3693.96,-90.71 3811.16,-74.09"/>
<polygon fill="#63b8ff" stroke="#63b8ff" points="3811.85,-77.53 3821.26,-72.65 3810.86,-70.6 3811.85,-77.53"/>
</a>
</g>
</g>
<!-- Node58&#45;&gt;Node59 -->
<g id="edge46_Node000058_Node000059" class="edge">
<title>Node58&#45;&gt;Node59</title>
<g id="a_edge46_Node000058_Node000059"><a xlink:title=" ">
<path fill="none" stroke="#63b8ff" d="M3542.39,-54.75C3537.68,-47.42 3530.83,-36.73 3525.03,-27.7"/>
<polygon fill="#63b8ff" stroke="#63b8ff" points="3527.86,-25.62 3519.51,-19.09 3521.96,-29.4 3527.86,-25.62"/>
</a>
</g>
</g>
</g>
</svg>

<g id="navigator" transform="translate(0 0)" fill="#404254">
  <rect fill="#f2f5e9" fill-opacity="0.5" stroke="#606060" stroke-width=".5" x="0" y="0" width="60" height="60"/>
  <use id="zoomplus" xlink:href="#zoomPlus" x="17" y="9" onmousedown="handleZoom(evt,'in')"/>
  <use id="zoomminus" xlink:href="#zoomMin" x="42" y="9" onmousedown="handleZoom(evt,'out')"/>
  <use id="reset" xlink:href="#resetDef" x="30" y="36" onmousedown="handleReset()"/>
   <use id="arrowup" xlink:href="#arrowUp" x="0" y="0" onmousedown="handlePan(0,-1)"/>
  <use id="arrowright" xlink:href="#arrowRight" x="0" y="0" onmousedown="handlePan(1,0)"/>
  <use id="arrowdown" xlink:href="#arrowDown" x="0" y="0" onmousedown="handlePan(0,1)"/>
  <use id="arrowleft" xlink:href="#arrowLeft" x="0" y="0" onmousedown="handlePan(-1,0)"/>
</g>
<svg viewBox="0 0 15 15" width="100%" height="30px" preserveAspectRatio="xMaxYMin meet">
 <g id="arrow_out" transform="scale(0.3 0.3)">
  <a xlink:href="snmp_2Session_8cc__incl_org.svg" target="_base">
   <rect id="button" ry="5" rx="5" y="6" x="6" height="38" width="38"
        fill="#f2f5e9" fill-opacity="0.5" stroke="#606060" stroke-width="1.0"/>
   <path id="arrow"
     d="M 11.500037,31.436501 C 11.940474,20.09759 22.043105,11.32322 32.158766,21.979434 L 37.068811,17.246167 C 37.068811,17.246167 37.088388,32 37.088388,32 L 22.160133,31.978069 C 22.160133,31.978069 26.997745,27.140456 26.997745,27.140456 C 18.528582,18.264221 13.291696,25.230495 11.500037,31.436501 z"
     style="fill:#404040;"/>
  </a>
 </g>
</svg>

<style type='text/css'>
<![CDATA[
[data-mouse-over-selected='false'] { opacity: 0.7; }
[data-mouse-over-selected='true']  { opacity: 1.0; }
]]>
</style>
<script type="application/ecmascript"><![CDATA[
document.addEventListener('DOMContentLoaded', (event) => {
  highlightEdges();
  highlightAdjacentNodes();
});
]]></script>
</svg>
