<?xml version="1.0" encoding="UTF-8" standalone="no"?>
<!DOCTYPE svg PUBLIC "-//W3C//DTD SVG 1.1//EN"
 "http://www.w3.org/Graphics/SVG/1.1/DTD/svg11.dtd">
<!-- Generated by graphviz version 2.43.0 (0)
 -->
<!-- Title: squid/src/snmp/Request.cc Pages: 1 -->
<!--zoomable 247 -->

<svg id="main" version="1.1" xmlns="http://www.w3.org/2000/svg" xmlns:xlink="http://www.w3.org/1999/xlink" xml:space="preserve" onload="init(evt)">
<style type="text/css"><![CDATA[
.node, .edge {opacity: 0.7;}
.node.selected, .edge.selected {opacity: 1;}
.edge:hover path { stroke: red; }
.edge:hover polygon { stroke: red; fill: red; }
]]></style>

<defs>
  <circle id="rim" cx="0" cy="0" r="7"/>
  <circle id="rim2" cx="0" cy="0" r="3.5"/>
  <g id="zoomPlus">
    <use xlink:href="#rim" fill="#404040"><set attributeName="fill" to="#808080" begin="zoomplus.mouseover" end="zoomplus.mouseout"/></use>
    <path d="M-4,0h8M0,-4v8" fill="none" stroke="white" stroke-width="1.5" pointer-events="none"/>
  </g>
  <g id="zoomMin">
    <use xlink:href="#rim" fill="#404040"><set attributeName="fill" to="#808080" begin="zoomminus.mouseover" end="zoomminus.mouseout"/></use>
    <path d="M-4,0h8" fill="none" stroke="white" stroke-width="1.5" pointer-events="none"/>
  </g>
  <g id="arrowUp" transform="translate(30 24)">
    <use xlink:href="#rim"/>
    <path pointer-events="none" fill="none" stroke="white" stroke-width="1.5" d="M0,-3.0v7 M-2.5,-0.5L0,-3.0L2.5,-0.5"/>
  </g>
  <g id="arrowRight" transform="rotate(90) translate(36 -43)">
    <use xlink:href="#rim"/>
    <path pointer-events="none" fill="none" stroke="white" stroke-width="1.5" d="M0,-3.0v7 M-2.5,-0.5L0,-3.0L2.5,-0.5"/>
  </g>
  <g id="arrowDown" transform="rotate(180) translate(-30 -48)">
    <use xlink:href="#rim"/>
    <path pointer-events="none" fill="none" stroke="white" stroke-width="1.5" d="M0,-3.0v7 M-2.5,-0.5L0,-3.0L2.5,-0.5"/>
  </g>
  <g id="arrowLeft" transform="rotate(270) translate(-36 17)">
    <use xlink:href="#rim"/>
    <path pointer-events="none" fill="none" stroke="white" stroke-width="1.5" d="M0,-3.0v7 M-2.5,-0.5L0,-3.0L2.5,-0.5"/>
  </g>
  <g id="resetDef">
    <use xlink:href="#rim2" fill="#404040"><set attributeName="fill" to="#808080" begin="reset.mouseover" end="reset.mouseout"/></use>
  </g>
</defs>
<script type="application/ecmascript">
var viewWidth = 4195;
var viewHeight = 247;
var sectionId = 'dynsection-0';
</script>
<script type="application/ecmascript" xlink:href="svg.min.js"/>
<svg id="graph" class="graph">
<g id="viewport">
<title>squid/src/snmp/Request.cc</title>
<!-- Node1 -->
<g id="Node000001" class="node">
<title>Node1</title>
<g id="a_Node000001"><a xlink:title=" ">
<polygon fill="#999999" stroke="#666666" points="3886.5,-239 3740.5,-239 3740.5,-220 3886.5,-220 3886.5,-239"/>
<text text-anchor="middle" x="3813.5" y="-227" font-family="Helvetica,sans-Serif" font-size="10.00">squid/src/snmp/Request.cc</text>
</a>
</g>
</g>
<!-- Node2 -->
<g id="Node000002" class="node">
<title>Node2</title>
<g id="a_Node000002"><a xlink:href="squid_8h.html" target="_top" xlink:title=" ">
<polygon fill="white" stroke="#666666" points="3295.5,-184 3243.5,-184 3243.5,-165 3295.5,-165 3295.5,-184"/>
<text text-anchor="middle" x="3269.5" y="-172" font-family="Helvetica,sans-Serif" font-size="10.00">squid.h</text>
</a>
</g>
</g>
<!-- Node1&#45;&gt;Node2 -->
<g id="edge1_Node000001_Node000002" class="edge">
<title>Node1&#45;&gt;Node2</title>
<g id="a_edge1_Node000001_Node000002"><a xlink:title=" ">
<path fill="none" stroke="#63b8ff" d="M3740.42,-221.38C3622.35,-209.88 3393.98,-187.63 3305.63,-179.02"/>
<polygon fill="#63b8ff" stroke="#63b8ff" points="3305.86,-175.53 3295.56,-178.04 3305.18,-182.49 3305.86,-175.53"/>
</a>
</g>
</g>
<!-- Node45 -->
<g id="Node000045" class="node">
<title>Node45</title>
<g id="a_Node000045"><a xlink:href="ipc_2Messages_8h.html" target="_top" xlink:title=" ">
<polygon fill="white" stroke="#666666" points="4186.5,-129 4094.5,-129 4094.5,-110 4186.5,-110 4186.5,-129"/>
<text text-anchor="middle" x="4140.5" y="-117" font-family="Helvetica,sans-Serif" font-size="10.00">ipc/Messages.h</text>
</a>
</g>
</g>
<!-- Node1&#45;&gt;Node45 -->
<g id="edge31_Node000001_Node000045" class="edge">
<title>Node1&#45;&gt;Node45</title>
<g id="a_edge31_Node000001_Node000045"><a xlink:title=" ">
<path fill="none" stroke="#63b8ff" d="M3886.69,-226.86C3940.29,-223.11 4013.49,-212.55 4071.5,-184 4094.21,-172.82 4114.79,-151.8 4127.44,-137.01"/>
<polygon fill="#63b8ff" stroke="#63b8ff" points="4130.27,-139.09 4133.94,-129.15 4124.87,-134.63 4130.27,-139.09"/>
</a>
</g>
</g>
<!-- Node46 -->
<g id="Node000046" class="node">
<title>Node46</title>
<g id="a_Node000046"><a xlink:href="TypedMsgHdr_8h.html" target="_top" xlink:title=" ">
<polygon fill="white" stroke="#666666" points="4062.5,-184 3954.5,-184 3954.5,-165 4062.5,-165 4062.5,-184"/>
<text text-anchor="middle" x="4008.5" y="-172" font-family="Helvetica,sans-Serif" font-size="10.00">ipc/TypedMsgHdr.h</text>
</a>
</g>
</g>
<!-- Node1&#45;&gt;Node46 -->
<g id="edge32_Node000001_Node000046" class="edge">
<title>Node1&#45;&gt;Node46</title>
<g id="a_edge32_Node000001_Node000046"><a xlink:title=" ">
<path fill="none" stroke="#63b8ff" d="M3844.83,-219.98C3877.99,-210.97 3930.5,-196.7 3967.06,-186.76"/>
<polygon fill="#63b8ff" stroke="#63b8ff" points="3968.19,-190.08 3976.92,-184.08 3966.36,-183.33 3968.19,-190.08"/>
</a>
</g>
</g>
<!-- Node49 -->
<g id="Node000049" class="node">
<title>Node49</title>
<g id="a_Node000049"><a xlink:href="snmp_2Request_8h.html" target="_top" xlink:title=" ">
<polygon fill="white" stroke="#666666" points="3699,-184 3604,-184 3604,-165 3699,-165 3699,-184"/>
<text text-anchor="middle" x="3651.5" y="-172" font-family="Helvetica,sans-Serif" font-size="10.00">snmp/Request.h</text>
</a>
</g>
</g>
<!-- Node1&#45;&gt;Node49 -->
<g id="edge36_Node000001_Node000049" class="edge">
<title>Node1&#45;&gt;Node49</title>
<g id="a_edge36_Node000001_Node000049"><a xlink:title=" ">
<path fill="none" stroke="#63b8ff" d="M3787.47,-219.98C3760.39,-211.13 3717.79,-197.19 3687.49,-187.28"/>
<polygon fill="#63b8ff" stroke="#63b8ff" points="3688.32,-183.87 3677.73,-184.08 3686.15,-190.52 3688.32,-183.87"/>
</a>
</g>
</g>
<!-- Node3 -->
<g id="Node000003" class="node">
<title>Node3</title>
<g id="a_Node000003"><a xlink:href="autoconf_8h.html" target="_top" xlink:title=" ">
<polygon fill="white" stroke="#666666" points="3272.5,-129 3204.5,-129 3204.5,-110 3272.5,-110 3272.5,-129"/>
<text text-anchor="middle" x="3238.5" y="-117" font-family="Helvetica,sans-Serif" font-size="10.00">autoconf.h</text>
</a>
</g>
</g>
<!-- Node2&#45;&gt;Node3 -->
<g id="edge2_Node000002_Node000003" class="edge">
<title>Node2&#45;&gt;Node3</title>
<g id="a_edge2_Node000002_Node000003"><a xlink:title=" ">
<path fill="none" stroke="#63b8ff" d="M3264.38,-164.75C3260.14,-157.49 3253.97,-146.95 3248.72,-137.98"/>
<polygon fill="#63b8ff" stroke="#63b8ff" points="3251.59,-135.95 3243.52,-129.09 3245.55,-139.49 3251.59,-135.95"/>
</a>
</g>
</g>
<!-- Node4 -->
<g id="Node000004" class="node">
<title>Node4</title>
<g id="a_Node000004"><a xlink:href="version_8h.html" target="_top" xlink:title=" ">
<polygon fill="white" stroke="#666666" points="3380.5,-19 3318.5,-19 3318.5,0 3380.5,0 3380.5,-19"/>
<text text-anchor="middle" x="3349.5" y="-7" font-family="Helvetica,sans-Serif" font-size="10.00">version.h</text>
</a>
</g>
</g>
<!-- Node2&#45;&gt;Node4 -->
<g id="edge3_Node000002_Node000004" class="edge">
<title>Node2&#45;&gt;Node4</title>
<g id="a_edge3_Node000002_Node000004"><a xlink:title=" ">
<path fill="none" stroke="#63b8ff" d="M3273.8,-164.74C3286.44,-138.98 3323.67,-63.13 3340.75,-28.33"/>
<polygon fill="#63b8ff" stroke="#63b8ff" points="3343.91,-29.83 3345.18,-19.31 3337.63,-26.74 3343.91,-29.83"/>
</a>
</g>
</g>
<!-- Node5 -->
<g id="Node000005" class="node">
<title>Node5</title>
<g id="a_Node000005"><a xlink:href="compat_8h.html" target="_top" xlink:title=" ">
<polygon fill="white" stroke="#666666" points="1701.5,-129 1599.5,-129 1599.5,-110 1701.5,-110 1701.5,-129"/>
<text text-anchor="middle" x="1650.5" y="-117" font-family="Helvetica,sans-Serif" font-size="10.00">compat/compat.h</text>
</a>
</g>
</g>
<!-- Node2&#45;&gt;Node5 -->
<g id="edge4_Node000002_Node000005" class="edge">
<title>Node2&#45;&gt;Node5</title>
<g id="a_edge4_Node000002_Node000005"><a xlink:title=" ">
<path fill="none" stroke="#63b8ff" d="M3243.41,-172.65C3061.51,-166.69 1981.91,-131.35 1711.76,-122.51"/>
<polygon fill="#63b8ff" stroke="#63b8ff" points="1711.85,-119.01 1701.74,-122.18 1711.62,-126 1711.85,-119.01"/>
</a>
</g>
</g>
<!-- Node6 -->
<g id="Node000006" class="node">
<title>Node6</title>
<g id="a_Node000006"><a xlink:href="osdetect_8h.html" target="_top" xlink:title=" ">
<polygon fill="white" stroke="#666666" points="567,-74 460,-74 460,-55 567,-55 567,-74"/>
<text text-anchor="middle" x="513.5" y="-62" font-family="Helvetica,sans-Serif" font-size="10.00">compat/osdetect.h</text>
</a>
</g>
</g>
<!-- Node5&#45;&gt;Node6 -->
<g id="edge5_Node000005_Node000006" class="edge">
<title>Node5&#45;&gt;Node6</title>
<g id="a_edge5_Node000005_Node000006"><a xlink:title=" ">
<path fill="none" stroke="#63b8ff" d="M1599.25,-118.06C1445.85,-116.39 976.86,-108.66 577.1,-73.95"/>
<polygon fill="#63b8ff" stroke="#63b8ff" points="577.35,-70.46 567.08,-73.07 576.74,-77.43 577.35,-70.46"/>
</a>
</g>
</g>
<!-- Node7 -->
<g id="Node000007" class="node">
<title>Node7</title>
<g id="a_Node000007"><a xlink:href="fdsetsize_8h.html" target="_top" xlink:title=" ">
<polygon fill="white" stroke="#666666" points="695.5,-74 585.5,-74 585.5,-55 695.5,-55 695.5,-74"/>
<text text-anchor="middle" x="640.5" y="-62" font-family="Helvetica,sans-Serif" font-size="10.00">compat/fdsetsize.h</text>
</a>
</g>
</g>
<!-- Node5&#45;&gt;Node7 -->
<g id="edge6_Node000005_Node000007" class="edge">
<title>Node5&#45;&gt;Node7</title>
<g id="a_edge6_Node000005_Node000007"><a xlink:title=" ">
<path fill="none" stroke="#63b8ff" d="M1599.38,-117.62C1458.59,-114.88 1053.14,-104.79 705.63,-74.02"/>
<polygon fill="#63b8ff" stroke="#63b8ff" points="705.9,-70.53 695.62,-73.12 705.27,-77.5 705.9,-70.53"/>
</a>
</g>
</g>
<!-- Node8 -->
<g id="Node000008" class="node">
<title>Node8</title>
<g id="a_Node000008"><a xlink:href="types_8h.html" target="_top" xlink:title=" ">
<polygon fill="#fff0f0" stroke="red" points="805.5,-74 713.5,-74 713.5,-55 805.5,-55 805.5,-74"/>
<text text-anchor="middle" x="759.5" y="-62" font-family="Helvetica,sans-Serif" font-size="10.00">compat/types.h</text>
</a>
</g>
</g>
<!-- Node5&#45;&gt;Node8 -->
<g id="edge7_Node000005_Node000008" class="edge">
<title>Node5&#45;&gt;Node8</title>
<g id="a_edge7_Node000005_Node000008"><a xlink:title=" ">
<path fill="none" stroke="#63b8ff" d="M1599.47,-117.56C1470.14,-114.8 1118.88,-104.94 815.97,-74.04"/>
<polygon fill="#63b8ff" stroke="#63b8ff" points="815.98,-70.52 805.67,-72.98 815.26,-77.48 815.98,-70.52"/>
</a>
</g>
</g>
<!-- Node10 -->
<g id="Node000010" class="node">
<title>Node10</title>
<g id="a_Node000010"><a xlink:href="aix_8h.html" target="_top" xlink:title=" ">
<polygon fill="white" stroke="#666666" points="919,-74 824,-74 824,-55 919,-55 919,-74"/>
<text text-anchor="middle" x="871.5" y="-62" font-family="Helvetica,sans-Serif" font-size="10.00">compat/os/aix.h</text>
</a>
</g>
</g>
<!-- Node5&#45;&gt;Node10 -->
<g id="edge8_Node000005_Node000010" class="edge">
<title>Node5&#45;&gt;Node10</title>
<g id="a_edge8_Node000005_Node000010"><a xlink:title=" ">
<path fill="none" stroke="#63b8ff" d="M1599.16,-116.86C1482.27,-112.8 1187.15,-100.7 929.36,-73.98"/>
<polygon fill="#63b8ff" stroke="#63b8ff" points="929.36,-70.46 919.05,-72.9 928.63,-77.43 929.36,-70.46"/>
</a>
</g>
</g>
<!-- Node11 -->
<g id="Node000011" class="node">
<title>Node11</title>
<g id="a_Node000011"><a xlink:href="android_8h.html" target="_top" xlink:title=" ">
<polygon fill="white" stroke="#666666" points="1053.5,-74 937.5,-74 937.5,-55 1053.5,-55 1053.5,-74"/>
<text text-anchor="middle" x="995.5" y="-62" font-family="Helvetica,sans-Serif" font-size="10.00">compat/os/android.h</text>
</a>
</g>
</g>
<!-- Node5&#45;&gt;Node11 -->
<g id="edge9_Node000005_Node000011" class="edge">
<title>Node5&#45;&gt;Node11</title>
<g id="a_edge9_Node000005_Node000011"><a xlink:title=" ">
<path fill="none" stroke="#63b8ff" d="M1599.3,-115.5C1498.75,-109.42 1268.19,-94.54 1063.61,-74.06"/>
<polygon fill="#63b8ff" stroke="#63b8ff" points="1063.88,-70.57 1053.58,-73.05 1063.18,-77.54 1063.88,-70.57"/>
</a>
</g>
</g>
<!-- Node12 -->
<g id="Node000012" class="node">
<title>Node12</title>
<g id="a_Node000012"><a xlink:href="dragonfly_8h.html" target="_top" xlink:title=" ">
<polygon fill="white" stroke="#666666" points="1195.5,-74 1071.5,-74 1071.5,-55 1195.5,-55 1195.5,-74"/>
<text text-anchor="middle" x="1133.5" y="-62" font-family="Helvetica,sans-Serif" font-size="10.00">compat/os/dragonfly.h</text>
</a>
</g>
</g>
<!-- Node5&#45;&gt;Node12 -->
<g id="edge10_Node000005_Node000012" class="edge">
<title>Node5&#45;&gt;Node12</title>
<g id="a_edge10_Node000005_Node000012"><a xlink:title=" ">
<path fill="none" stroke="#63b8ff" d="M1599.3,-113.72C1518.2,-106.08 1354.95,-90.41 1206.07,-74.15"/>
<polygon fill="#63b8ff" stroke="#63b8ff" points="1206.15,-70.64 1195.83,-73.03 1205.39,-77.6 1206.15,-70.64"/>
</a>
</g>
</g>
<!-- Node13 -->
<g id="Node000013" class="node">
<title>Node13</title>
<g id="a_Node000013"><a xlink:href="freebsd_8h.html" target="_top" xlink:title=" ">
<polygon fill="white" stroke="#666666" points="1329.5,-74 1213.5,-74 1213.5,-55 1329.5,-55 1329.5,-74"/>
<text text-anchor="middle" x="1271.5" y="-62" font-family="Helvetica,sans-Serif" font-size="10.00">compat/os/freebsd.h</text>
</a>
</g>
</g>
<!-- Node5&#45;&gt;Node13 -->
<g id="edge11_Node000005_Node000013" class="edge">
<title>Node5&#45;&gt;Node13</title>
<g id="a_edge11_Node000005_Node000013"><a xlink:title=" ">
<path fill="none" stroke="#63b8ff" d="M1599.39,-111.35C1532.33,-101.97 1414.43,-85.49 1339.78,-75.05"/>
<polygon fill="#63b8ff" stroke="#63b8ff" points="1339.94,-71.54 1329.55,-73.62 1338.97,-78.47 1339.94,-71.54"/>
</a>
</g>
</g>
<!-- Node14 -->
<g id="Node000014" class="node">
<title>Node14</title>
<g id="a_Node000014"><a xlink:href="hpux_8h.html" target="_top" xlink:title=" ">
<polygon fill="white" stroke="#666666" points="1451.5,-74 1347.5,-74 1347.5,-55 1451.5,-55 1451.5,-74"/>
<text text-anchor="middle" x="1399.5" y="-62" font-family="Helvetica,sans-Serif" font-size="10.00">compat/os/hpux.h</text>
</a>
</g>
</g>
<!-- Node5&#45;&gt;Node14 -->
<g id="edge12_Node000005_Node000014" class="edge">
<title>Node5&#45;&gt;Node14</title>
<g id="a_edge12_Node000005_Node000014"><a xlink:title=" ">
<path fill="none" stroke="#63b8ff" d="M1610.17,-109.98C1566.66,-100.8 1497.3,-86.15 1450.15,-76.19"/>
<polygon fill="#63b8ff" stroke="#63b8ff" points="1450.65,-72.72 1440.14,-74.08 1449.2,-79.57 1450.65,-72.72"/>
</a>
</g>
</g>
<!-- Node15 -->
<g id="Node000015" class="node">
<title>Node15</title>
<g id="a_Node000015"><a xlink:href="linux_8h.html" target="_top" xlink:title=" ">
<polygon fill="white" stroke="#666666" points="1573.5,-74 1469.5,-74 1469.5,-55 1573.5,-55 1573.5,-74"/>
<text text-anchor="middle" x="1521.5" y="-62" font-family="Helvetica,sans-Serif" font-size="10.00">compat/os/linux.h</text>
</a>
</g>
</g>
<!-- Node5&#45;&gt;Node15 -->
<g id="edge13_Node000005_Node000015" class="edge">
<title>Node5&#45;&gt;Node15</title>
<g id="a_edge13_Node000005_Node000015"><a xlink:title=" ">
<path fill="none" stroke="#63b8ff" d="M1629.77,-109.98C1608.74,-101.34 1575.95,-87.87 1551.96,-78.02"/>
<polygon fill="#63b8ff" stroke="#63b8ff" points="1553.18,-74.73 1542.6,-74.17 1550.52,-81.21 1553.18,-74.73"/>
</a>
</g>
</g>
<!-- Node16 -->
<g id="Node000016" class="node">
<title>Node16</title>
<g id="a_Node000016"><a xlink:href="macosx_8h.html" target="_top" xlink:title=" ">
<polygon fill="white" stroke="#666666" points="1709.5,-74 1591.5,-74 1591.5,-55 1709.5,-55 1709.5,-74"/>
<text text-anchor="middle" x="1650.5" y="-62" font-family="Helvetica,sans-Serif" font-size="10.00">compat/os/macosx.h</text>
</a>
</g>
</g>
<!-- Node5&#45;&gt;Node16 -->
<g id="edge14_Node000005_Node000016" class="edge">
<title>Node5&#45;&gt;Node16</title>
<g id="a_edge14_Node000005_Node000016"><a xlink:title=" ">
<path fill="none" stroke="#63b8ff" d="M1650.5,-109.75C1650.5,-102.8 1650.5,-92.85 1650.5,-84.13"/>
<polygon fill="#63b8ff" stroke="#63b8ff" points="1654,-84.09 1650.5,-74.09 1647,-84.09 1654,-84.09"/>
</a>
</g>
</g>
<!-- Node17 -->
<g id="Node000017" class="node">
<title>Node17</title>
<g id="a_Node000017"><a xlink:href="mingw_8h.html" target="_top" xlink:title=" ">
<polygon fill="white" stroke="#666666" points="1839.5,-74 1727.5,-74 1727.5,-55 1839.5,-55 1839.5,-74"/>
<text text-anchor="middle" x="1783.5" y="-62" font-family="Helvetica,sans-Serif" font-size="10.00">compat/os/mingw.h</text>
</a>
</g>
</g>
<!-- Node5&#45;&gt;Node17 -->
<g id="edge15_Node000005_Node000017" class="edge">
<title>Node5&#45;&gt;Node17</title>
<g id="a_edge15_Node000005_Node000017"><a xlink:title=" ">
<path fill="none" stroke="#63b8ff" d="M1671.87,-109.98C1693.65,-101.3 1727.66,-87.75 1752.42,-77.88"/>
<polygon fill="#63b8ff" stroke="#63b8ff" points="1753.75,-81.12 1761.74,-74.17 1751.16,-74.62 1753.75,-81.12"/>
</a>
</g>
</g>
<!-- Node18 -->
<g id="Node000018" class="node">
<title>Node18</title>
<g id="a_Node000018"><a xlink:href="mswindows_8h.html" target="_top" xlink:title=" ">
<polygon fill="white" stroke="#666666" points="1995,-74 1858,-74 1858,-55 1995,-55 1995,-74"/>
<text text-anchor="middle" x="1926.5" y="-62" font-family="Helvetica,sans-Serif" font-size="10.00">compat/os/mswindows.h</text>
</a>
</g>
</g>
<!-- Node5&#45;&gt;Node18 -->
<g id="edge16_Node000005_Node000018" class="edge">
<title>Node5&#45;&gt;Node18</title>
<g id="a_edge16_Node000005_Node000018"><a xlink:title=" ">
<path fill="none" stroke="#63b8ff" d="M1694.84,-109.98C1742.99,-100.74 1819.92,-85.97 1871.79,-76.01"/>
<polygon fill="#63b8ff" stroke="#63b8ff" points="1872.65,-79.41 1881.81,-74.08 1871.33,-72.53 1872.65,-79.41"/>
</a>
</g>
</g>
<!-- Node19 -->
<g id="Node000019" class="node">
<title>Node19</title>
<g id="a_Node000019"><a xlink:href="netbsd_8h.html" target="_top" xlink:title=" ">
<polygon fill="white" stroke="#666666" points="2126,-74 2013,-74 2013,-55 2126,-55 2126,-74"/>
<text text-anchor="middle" x="2069.5" y="-62" font-family="Helvetica,sans-Serif" font-size="10.00">compat/os/netbsd.h</text>
</a>
</g>
</g>
<!-- Node5&#45;&gt;Node19 -->
<g id="edge17_Node000005_Node000019" class="edge">
<title>Node5&#45;&gt;Node19</title>
<g id="a_edge17_Node000005_Node000019"><a xlink:title=" ">
<path fill="none" stroke="#63b8ff" d="M1701.66,-112.09C1768.38,-103.73 1889.04,-88.57 2003.03,-74.06"/>
<polygon fill="#63b8ff" stroke="#63b8ff" points="2003.5,-77.53 2012.98,-72.79 2002.61,-70.58 2003.5,-77.53"/>
</a>
</g>
</g>
<!-- Node20 -->
<g id="Node000020" class="node">
<title>Node20</title>
<g id="a_Node000020"><a xlink:href="openbsd_8h.html" target="_top" xlink:title=" ">
<polygon fill="white" stroke="#666666" points="2265,-74 2144,-74 2144,-55 2265,-55 2265,-74"/>
<text text-anchor="middle" x="2204.5" y="-62" font-family="Helvetica,sans-Serif" font-size="10.00">compat/os/openbsd.h</text>
</a>
</g>
</g>
<!-- Node5&#45;&gt;Node20 -->
<g id="edge18_Node000005_Node000020" class="edge">
<title>Node5&#45;&gt;Node20</title>
<g id="a_edge18_Node000005_Node000020"><a xlink:title=" ">
<path fill="none" stroke="#63b8ff" d="M1701.77,-114.28C1788.36,-107.05 1969.35,-91.46 2133.52,-74.07"/>
<polygon fill="#63b8ff" stroke="#63b8ff" points="2134.23,-77.52 2143.81,-72.98 2133.49,-70.56 2134.23,-77.52"/>
</a>
</g>
</g>
<!-- Node21 -->
<g id="Node000021" class="node">
<title>Node21</title>
<g id="a_Node000021"><a xlink:href="os2_8h.html" target="_top" xlink:title=" ">
<polygon fill="white" stroke="#666666" points="2380,-74 2283,-74 2283,-55 2380,-55 2380,-74"/>
<text text-anchor="middle" x="2331.5" y="-62" font-family="Helvetica,sans-Serif" font-size="10.00">compat/os/os2.h</text>
</a>
</g>
</g>
<!-- Node5&#45;&gt;Node21 -->
<g id="edge19_Node000005_Node000021" class="edge">
<title>Node5&#45;&gt;Node21</title>
<g id="a_edge19_Node000005_Node000021"><a xlink:title=" ">
<path fill="none" stroke="#63b8ff" d="M1701.9,-116.12C1807.01,-110.98 2054.31,-97.44 2272.75,-73.99"/>
<polygon fill="#63b8ff" stroke="#63b8ff" points="2273.23,-77.46 2282.8,-72.9 2272.48,-70.5 2273.23,-77.46"/>
</a>
</g>
</g>
<!-- Node22 -->
<g id="Node000022" class="node">
<title>Node22</title>
<g id="a_Node000022"><a xlink:href="qnx_8h.html" target="_top" xlink:title=" ">
<polygon fill="white" stroke="#666666" points="2496.5,-74 2398.5,-74 2398.5,-55 2496.5,-55 2496.5,-74"/>
<text text-anchor="middle" x="2447.5" y="-62" font-family="Helvetica,sans-Serif" font-size="10.00">compat/os/qnx.h</text>
</a>
</g>
</g>
<!-- Node5&#45;&gt;Node22 -->
<g id="edge20_Node000005_Node000022" class="edge">
<title>Node5&#45;&gt;Node22</title>
<g id="a_edge20_Node000005_Node000022"><a xlink:title=" ">
<path fill="none" stroke="#63b8ff" d="M1701.62,-116.88C1820.2,-112.8 2123.37,-100.56 2388.09,-73.94"/>
<polygon fill="#63b8ff" stroke="#63b8ff" points="2388.69,-77.39 2398.28,-72.9 2387.98,-70.43 2388.69,-77.39"/>
</a>
</g>
</g>
<!-- Node23 -->
<g id="Node000023" class="node">
<title>Node23</title>
<g id="a_Node000023"><a xlink:href="sgi_8h.html" target="_top" xlink:title=" ">
<polygon fill="white" stroke="#666666" points="2608.5,-74 2514.5,-74 2514.5,-55 2608.5,-55 2608.5,-74"/>
<text text-anchor="middle" x="2561.5" y="-62" font-family="Helvetica,sans-Serif" font-size="10.00">compat/os/sgi.h</text>
</a>
</g>
</g>
<!-- Node5&#45;&gt;Node23 -->
<g id="edge21_Node000005_Node000023" class="edge">
<title>Node5&#45;&gt;Node23</title>
<g id="a_edge21_Node000005_Node000023"><a xlink:title=" ">
<path fill="none" stroke="#63b8ff" d="M1701.71,-117.59C1833.23,-114.89 2193.76,-105.11 2504.39,-74"/>
<polygon fill="#63b8ff" stroke="#63b8ff" points="2504.89,-77.47 2514.49,-72.98 2504.19,-70.5 2504.89,-77.47"/>
</a>
</g>
</g>
<!-- Node24 -->
<g id="Node000024" class="node">
<title>Node24</title>
<g id="a_Node000024"><a xlink:href="solaris_8h.html" target="_top" xlink:title=" ">
<polygon fill="white" stroke="#666666" points="2738.5,-74 2626.5,-74 2626.5,-55 2738.5,-55 2738.5,-74"/>
<text text-anchor="middle" x="2682.5" y="-62" font-family="Helvetica,sans-Serif" font-size="10.00">compat/os/solaris.h</text>
</a>
</g>
</g>
<!-- Node5&#45;&gt;Node24 -->
<g id="edge22_Node000005_Node000024" class="edge">
<title>Node5&#45;&gt;Node24</title>
<g id="a_edge22_Node000005_Node000024"><a xlink:title=" ">
<path fill="none" stroke="#63b8ff" d="M1701.71,-117.66C1844.68,-114.98 2260.43,-105 2616.18,-74.04"/>
<polygon fill="#63b8ff" stroke="#63b8ff" points="2616.51,-77.52 2626.16,-73.16 2615.89,-70.55 2616.51,-77.52"/>
</a>
</g>
</g>
<!-- Node25 -->
<g id="Node000025" class="node">
<title>Node25</title>
<g id="a_Node000025"><a xlink:href="sunos_8h.html" target="_top" xlink:title=" ">
<polygon fill="white" stroke="#666666" points="2864.5,-74 2756.5,-74 2756.5,-55 2864.5,-55 2864.5,-74"/>
<text text-anchor="middle" x="2810.5" y="-62" font-family="Helvetica,sans-Serif" font-size="10.00">compat/os/sunos.h</text>
</a>
</g>
</g>
<!-- Node5&#45;&gt;Node25 -->
<g id="edge23_Node000005_Node000025" class="edge">
<title>Node5&#45;&gt;Node25</title>
<g id="a_edge23_Node000005_Node000025"><a xlink:title=" ">
<path fill="none" stroke="#63b8ff" d="M1701.74,-118.12C1857.24,-116.62 2337.6,-109.3 2746,-74.04"/>
<polygon fill="#63b8ff" stroke="#63b8ff" points="2746.58,-77.5 2756.24,-73.15 2745.97,-70.53 2746.58,-77.5"/>
</a>
</g>
</g>
<!-- Node26 -->
<g id="Node000026" class="node">
<title>Node26</title>
<g id="a_Node000026"><a xlink:href="assert_8h.html" target="_top" xlink:title=" ">
<polygon fill="white" stroke="#666666" points="2978,-74 2883,-74 2883,-55 2978,-55 2978,-74"/>
<text text-anchor="middle" x="2930.5" y="-62" font-family="Helvetica,sans-Serif" font-size="10.00">compat/assert.h</text>
</a>
</g>
</g>
<!-- Node5&#45;&gt;Node26 -->
<g id="edge24_Node000005_Node000026" class="edge">
<title>Node5&#45;&gt;Node26</title>
<g id="a_edge24_Node000005_Node000026"><a xlink:title=" ">
<path fill="none" stroke="#63b8ff" d="M1701.6,-118.68C1868.45,-118.83 2412.44,-115.93 2872.79,-73.93"/>
<polygon fill="#63b8ff" stroke="#63b8ff" points="2873.33,-77.4 2882.96,-72.99 2872.68,-70.43 2873.33,-77.4"/>
</a>
</g>
</g>
<!-- Node27 -->
<g id="Node000027" class="node">
<title>Node27</title>
<g id="a_Node000027"><a xlink:href="compat__shared_8h.html" target="_top" xlink:title=" ">
<polygon fill="#fff0f0" stroke="red" points="3136.5,-74 2996.5,-74 2996.5,-55 3136.5,-55 3136.5,-74"/>
<text text-anchor="middle" x="3066.5" y="-62" font-family="Helvetica,sans-Serif" font-size="10.00">compat/compat_shared.h</text>
</a>
</g>
</g>
<!-- Node5&#45;&gt;Node27 -->
<g id="edge25_Node000005_Node000027" class="edge">
<title>Node5&#45;&gt;Node27</title>
<g id="a_edge25_Node000005_Node000027"><a xlink:title=" ">
<path fill="none" stroke="#63b8ff" d="M1701.53,-118.13C1877.94,-116.58 2478.45,-108.95 2986.19,-73.95"/>
<polygon fill="#63b8ff" stroke="#63b8ff" points="2986.55,-77.44 2996.29,-73.25 2986.07,-70.45 2986.55,-77.44"/>
</a>
</g>
</g>
<!-- Node37 -->
<g id="Node000037" class="node">
<title>Node37</title>
<g id="a_Node000037"><a xlink:href="stdvarargs_8h.html" target="_top" xlink:title=" ">
<polygon fill="#fff0f0" stroke="red" points="3272,-74 3155,-74 3155,-55 3272,-55 3272,-74"/>
<text text-anchor="middle" x="3213.5" y="-62" font-family="Helvetica,sans-Serif" font-size="10.00">compat/stdvarargs.h</text>
</a>
</g>
</g>
<!-- Node5&#45;&gt;Node37 -->
<g id="edge26_Node000005_Node000037" class="edge">
<title>Node5&#45;&gt;Node37</title>
<g id="a_edge26_Node000005_Node000037"><a xlink:title=" ">
<path fill="none" stroke="#63b8ff" d="M1701.58,-118.73C1891.14,-119.21 2572.42,-117.64 3144.82,-73.96"/>
<polygon fill="#63b8ff" stroke="#63b8ff" points="3145.23,-77.43 3154.93,-73.18 3144.69,-70.45 3145.23,-77.43"/>
</a>
</g>
</g>
<!-- Node39 -->
<g id="Node000039" class="node">
<title>Node39</title>
<g id="a_Node000039"><a xlink:href="stdio_8h.html" target="_top" xlink:title=" ">
<polygon fill="#fff0f0" stroke="red" points="89,-74 0,-74 0,-55 89,-55 89,-74"/>
<text text-anchor="middle" x="44.5" y="-62" font-family="Helvetica,sans-Serif" font-size="10.00">compat/stdio.h</text>
</a>
</g>
</g>
<!-- Node5&#45;&gt;Node39 -->
<g id="edge27_Node000005_Node000039" class="edge">
<title>Node5&#45;&gt;Node39</title>
<g id="a_edge27_Node000005_Node000039"><a xlink:title=" ">
<path fill="none" stroke="#63b8ff" d="M1599.44,-117.93C1368.52,-115.23 419.63,-102.64 99.47,-74.04"/>
<polygon fill="#63b8ff" stroke="#63b8ff" points="99.55,-70.53 89.27,-73.1 98.9,-77.5 99.55,-70.53"/>
</a>
</g>
</g>
<!-- Node41 -->
<g id="Node000041" class="node">
<title>Node41</title>
<g id="a_Node000041"><a xlink:href="statvfs_8h.html" target="_top" xlink:title=" ">
<polygon fill="white" stroke="#666666" points="206,-74 107,-74 107,-55 206,-55 206,-74"/>
<text text-anchor="middle" x="156.5" y="-62" font-family="Helvetica,sans-Serif" font-size="10.00">compat/statvfs.h</text>
</a>
</g>
</g>
<!-- Node5&#45;&gt;Node41 -->
<g id="edge28_Node000005_Node000041" class="edge">
<title>Node5&#45;&gt;Node41</title>
<g id="a_edge28_Node000005_Node000041"><a xlink:title=" ">
<path fill="none" stroke="#63b8ff" d="M1599.25,-117.7C1379.16,-114.15 512.33,-98.89 216.41,-74.04"/>
<polygon fill="#63b8ff" stroke="#63b8ff" points="216.39,-70.53 206.13,-73.15 215.79,-77.5 216.39,-70.53"/>
</a>
</g>
</g>
<!-- Node42 -->
<g id="Node000042" class="node">
<title>Node42</title>
<g id="a_Node000042"><a xlink:href="debug_8h.html" target="_top" xlink:title=" ">
<polygon fill="white" stroke="#666666" points="319,-74 224,-74 224,-55 319,-55 319,-74"/>
<text text-anchor="middle" x="271.5" y="-62" font-family="Helvetica,sans-Serif" font-size="10.00">compat/debug.h</text>
</a>
</g>
</g>
<!-- Node5&#45;&gt;Node42 -->
<g id="edge29_Node000005_Node000042" class="edge">
<title>Node5&#45;&gt;Node42</title>
<g id="a_edge29_Node000005_Node000042"><a xlink:title=" ">
<path fill="none" stroke="#63b8ff" d="M1599.28,-118.93C1423.65,-119.94 829.43,-119.62 329.42,-74.06"/>
<polygon fill="#63b8ff" stroke="#63b8ff" points="329.39,-70.54 319.11,-73.11 328.75,-77.51 329.39,-70.54"/>
</a>
</g>
</g>
<!-- Node43 -->
<g id="Node000043" class="node">
<title>Node43</title>
<g id="a_Node000043"><a xlink:href="valgrind_8h.html" target="_top" xlink:title=" ">
<polygon fill="#fff0f0" stroke="red" points="442,-74 337,-74 337,-55 442,-55 442,-74"/>
<text text-anchor="middle" x="389.5" y="-62" font-family="Helvetica,sans-Serif" font-size="10.00">compat/valgrind.h</text>
</a>
</g>
</g>
<!-- Node5&#45;&gt;Node43 -->
<g id="edge30_Node000005_Node000043" class="edge">
<title>Node5&#45;&gt;Node43</title>
<g id="a_edge30_Node000005_Node000043"><a xlink:title=" ">
<path fill="none" stroke="#63b8ff" d="M1599.21,-118.45C1434.24,-117.91 902.28,-113.11 452.31,-74.06"/>
<polygon fill="#63b8ff" stroke="#63b8ff" points="452.3,-70.55 442.03,-73.16 451.69,-77.52 452.3,-70.55"/>
</a>
</g>
</g>
<!-- Node46&#45;&gt;Node45 -->
<g id="edge34_Node000046_Node000045" class="edge">
<title>Node46&#45;&gt;Node45</title>
<g id="a_edge34_Node000046_Node000045"><a xlink:title=" ">
<path fill="none" stroke="#63b8ff" d="M4029.71,-164.98C4051.23,-156.34 4084.78,-142.87 4109.33,-133.02"/>
<polygon fill="#63b8ff" stroke="#63b8ff" points="4110.93,-136.14 4118.91,-129.17 4108.32,-129.65 4110.93,-136.14"/>
</a>
</g>
</g>
<!-- Node47 -->
<g id="Node000047" class="node">
<title>Node47</title>
<g id="a_Node000047"><a xlink:href="cmsg_8h.html" target="_top" xlink:title=" ">
<polygon fill="white" stroke="#666666" points="4038.5,-129 3946.5,-129 3946.5,-110 4038.5,-110 4038.5,-129"/>
<text text-anchor="middle" x="3992.5" y="-117" font-family="Helvetica,sans-Serif" font-size="10.00">compat/cmsg.h</text>
</a>
</g>
</g>
<!-- Node46&#45;&gt;Node47 -->
<g id="edge33_Node000046_Node000047" class="edge">
<title>Node46&#45;&gt;Node47</title>
<g id="a_edge33_Node000046_Node000047"><a xlink:title=" ">
<path fill="none" stroke="#63b8ff" d="M4005.86,-164.75C4003.74,-157.72 4000.69,-147.62 3998.04,-138.84"/>
<polygon fill="#63b8ff" stroke="#63b8ff" points="4001.33,-137.65 3995.09,-129.09 3994.63,-139.67 4001.33,-137.65"/>
</a>
</g>
</g>
<!-- Node48 -->
<g id="Node000048" class="node">
<title>Node48</title>
<g id="a_Node000048"><a xlink:title=" ">
<polygon fill="#e0e0e0" stroke="#999999" points="4061,-19 3992,-19 3992,0 4061,0 4061,-19"/>
<text text-anchor="middle" x="4026.5" y="-7" font-family="Helvetica,sans-Serif" font-size="10.00">type_traits</text>
</a>
</g>
</g>
<!-- Node46&#45;&gt;Node48 -->
<g id="edge35_Node000046_Node000048" class="edge">
<title>Node46&#45;&gt;Node48</title>
<g id="a_edge35_Node000046_Node000048"><a xlink:title=" ">
<path fill="none" stroke="#63b8ff" d="M4019.49,-164.99C4028.95,-156.9 4041.93,-143.81 4047.5,-129 4059.08,-98.22 4054.69,-87.09 4047.5,-55 4045.42,-45.74 4041.2,-36.14 4037.07,-28.23"/>
<polygon fill="#63b8ff" stroke="#63b8ff" points="4040.01,-26.31 4032.08,-19.28 4033.9,-29.72 4040.01,-26.31"/>
</a>
</g>
</g>
<!-- Node50 -->
<g id="Node000050" class="node">
<title>Node50</title>
<g id="a_Node000050"><a xlink:href="ip_2Address_8h.html" target="_top" xlink:title=" ">
<polygon fill="white" stroke="#666666" points="3804,-74 3727,-74 3727,-55 3804,-55 3804,-74"/>
<text text-anchor="middle" x="3765.5" y="-62" font-family="Helvetica,sans-Serif" font-size="10.00">ip/Address.h</text>
</a>
</g>
</g>
<!-- Node49&#45;&gt;Node50 -->
<g id="edge37_Node000049_Node000050" class="edge">
<title>Node49&#45;&gt;Node50</title>
<g id="a_edge37_Node000049_Node000050"><a xlink:title=" ">
<path fill="none" stroke="#63b8ff" d="M3660.83,-164.66C3680.13,-146.38 3724.67,-104.18 3748.96,-81.17"/>
<polygon fill="#63b8ff" stroke="#63b8ff" points="3751.51,-83.58 3756.36,-74.16 3746.69,-78.5 3751.51,-83.58"/>
</a>
</g>
</g>
<!-- Node55 -->
<g id="Node000055" class="node">
<title>Node55</title>
<g id="a_Node000055"><a xlink:href="ipc_2forward_8h.html" target="_top" xlink:title=" ">
<polygon fill="white" stroke="#666666" points="3508.5,-19 3428.5,-19 3428.5,0 3508.5,0 3508.5,-19"/>
<text text-anchor="middle" x="3468.5" y="-7" font-family="Helvetica,sans-Serif" font-size="10.00">ipc/forward.h</text>
</a>
</g>
</g>
<!-- Node49&#45;&gt;Node55 -->
<g id="edge42_Node000049_Node000055" class="edge">
<title>Node49&#45;&gt;Node55</title>
<g id="a_edge42_Node000049_Node000055"><a xlink:title=" ">
<path fill="none" stroke="#63b8ff" d="M3622.13,-164.94C3583.83,-152.07 3518.12,-123.79 3487.5,-74 3479.02,-60.22 3474.13,-42.41 3471.43,-29.17"/>
<polygon fill="#63b8ff" stroke="#63b8ff" points="3474.87,-28.52 3469.66,-19.3 3467.98,-29.76 3474.87,-28.52"/>
</a>
</g>
</g>
<!-- Node56 -->
<g id="Node000056" class="node">
<title>Node56</title>
<g id="a_Node000056"><a xlink:href="ipc_2Request_8h.html" target="_top" xlink:title=" ">
<polygon fill="white" stroke="#666666" points="3868,-129 3785,-129 3785,-110 3868,-110 3868,-129"/>
<text text-anchor="middle" x="3826.5" y="-117" font-family="Helvetica,sans-Serif" font-size="10.00">ipc/Request.h</text>
</a>
</g>
</g>
<!-- Node49&#45;&gt;Node56 -->
<g id="edge43_Node000049_Node000056" class="edge">
<title>Node49&#45;&gt;Node56</title>
<g id="a_edge43_Node000049_Node000056"><a xlink:title=" ">
<path fill="none" stroke="#63b8ff" d="M3679.62,-164.98C3709.12,-156.05 3755.69,-141.94 3788.47,-132.02"/>
<polygon fill="#63b8ff" stroke="#63b8ff" points="3789.61,-135.33 3798.16,-129.08 3787.58,-128.63 3789.61,-135.33"/>
</a>
</g>
</g>
<!-- Node64 -->
<g id="Node000064" class="node">
<title>Node64</title>
<g id="a_Node000064"><a xlink:href="Pdu_8h.html" target="_top" xlink:title=" ">
<polygon fill="white" stroke="#666666" points="3628.5,-129 3554.5,-129 3554.5,-110 3628.5,-110 3628.5,-129"/>
<text text-anchor="middle" x="3591.5" y="-117" font-family="Helvetica,sans-Serif" font-size="10.00">snmp/Pdu.h</text>
</a>
</g>
</g>
<!-- Node49&#45;&gt;Node64 -->
<g id="edge50_Node000049_Node000064" class="edge">
<title>Node49&#45;&gt;Node64</title>
<g id="a_edge50_Node000049_Node000064"><a xlink:title=" ">
<path fill="none" stroke="#63b8ff" d="M3641.86,-164.98C3632.99,-157.15 3619.63,-145.34 3608.89,-135.86"/>
<polygon fill="#63b8ff" stroke="#63b8ff" points="3611.13,-133.17 3601.32,-129.17 3606.49,-138.41 3611.13,-133.17"/>
</a>
</g>
</g>
<!-- Node80 -->
<g id="Node000080" class="node">
<title>Node80</title>
<g id="a_Node000080"><a xlink:href="snmp_2Session_8h.html" target="_top" xlink:title=" ">
<polygon fill="#fff0f0" stroke="red" points="3422,-129 3329,-129 3329,-110 3422,-110 3422,-129"/>
<text text-anchor="middle" x="3375.5" y="-117" font-family="Helvetica,sans-Serif" font-size="10.00">snmp/Session.h</text>
</a>
</g>
</g>
<!-- Node49&#45;&gt;Node80 -->
<g id="edge57_Node000049_Node000080" class="edge">
<title>Node49&#45;&gt;Node80</title>
<g id="a_edge57_Node000049_Node000080"><a xlink:title=" ">
<path fill="none" stroke="#63b8ff" d="M3607.16,-164.98C3559.01,-155.74 3482.08,-140.97 3430.21,-131.01"/>
<polygon fill="#63b8ff" stroke="#63b8ff" points="3430.67,-127.53 3420.19,-129.08 3429.35,-134.41 3430.67,-127.53"/>
</a>
</g>
</g>
<!-- Node51 -->
<g id="Node000051" class="node">
<title>Node51</title>
<g id="a_Node000051"><a xlink:href="ip_2forward_8h.html" target="_top" xlink:title=" ">
<polygon fill="white" stroke="#666666" points="3803,-19 3728,-19 3728,0 3803,0 3803,-19"/>
<text text-anchor="middle" x="3765.5" y="-7" font-family="Helvetica,sans-Serif" font-size="10.00">ip/forward.h</text>
</a>
</g>
</g>
<!-- Node50&#45;&gt;Node51 -->
<g id="edge38_Node000050_Node000051" class="edge">
<title>Node50&#45;&gt;Node51</title>
<g id="a_edge38_Node000050_Node000051"><a xlink:title=" ">
<path fill="none" stroke="#63b8ff" d="M3765.5,-54.75C3765.5,-47.8 3765.5,-37.85 3765.5,-29.13"/>
<polygon fill="#63b8ff" stroke="#63b8ff" points="3769,-29.09 3765.5,-19.09 3762,-29.09 3769,-29.09"/>
</a>
</g>
</g>
<!-- Node52 -->
<g id="Node000052" class="node">
<title>Node52</title>
<g id="a_Node000052"><a xlink:title=" ">
<polygon fill="#e0e0e0" stroke="#999999" points="3634.5,-19 3586.5,-19 3586.5,0 3634.5,0 3634.5,-19"/>
<text text-anchor="middle" x="3610.5" y="-7" font-family="Helvetica,sans-Serif" font-size="10.00">iosfwd</text>
</a>
</g>
</g>
<!-- Node50&#45;&gt;Node52 -->
<g id="edge39_Node000050_Node000052" class="edge">
<title>Node50&#45;&gt;Node52</title>
<g id="a_edge39_Node000050_Node000052"><a xlink:title=" ">
<path fill="none" stroke="#63b8ff" d="M3740.6,-54.98C3714.49,-46.06 3673.32,-31.98 3644.29,-22.05"/>
<polygon fill="#63b8ff" stroke="#63b8ff" points="3645.17,-18.66 3634.58,-18.73 3642.91,-25.28 3645.17,-18.66"/>
</a>
</g>
</g>
<!-- Node53 -->
<g id="Node000053" class="node">
<title>Node53</title>
<g id="a_Node000053"><a xlink:title=" ">
<polygon fill="#e0e0e0" stroke="#999999" points="3710,-19 3653,-19 3653,0 3710,0 3710,-19"/>
<text text-anchor="middle" x="3681.5" y="-7" font-family="Helvetica,sans-Serif" font-size="10.00">ostream</text>
</a>
</g>
</g>
<!-- Node50&#45;&gt;Node53 -->
<g id="edge40_Node000050_Node000053" class="edge">
<title>Node50&#45;&gt;Node53</title>
<g id="a_edge40_Node000050_Node000053"><a xlink:title=" ">
<path fill="none" stroke="#63b8ff" d="M3752,-54.98C3739.1,-46.84 3719.4,-34.41 3704.1,-24.76"/>
<polygon fill="#63b8ff" stroke="#63b8ff" points="3705.57,-21.55 3695.24,-19.17 3701.83,-27.47 3705.57,-21.55"/>
</a>
</g>
</g>
<!-- Node54 -->
<g id="Node000054" class="node">
<title>Node54</title>
<g id="a_Node000054"><a xlink:title=" ">
<polygon fill="#e0e0e0" stroke="#999999" points="3876.5,-19 3820.5,-19 3820.5,0 3876.5,0 3876.5,-19"/>
<text text-anchor="middle" x="3848.5" y="-7" font-family="Helvetica,sans-Serif" font-size="10.00">optional</text>
</a>
</g>
</g>
<!-- Node50&#45;&gt;Node54 -->
<g id="edge41_Node000050_Node000054" class="edge">
<title>Node50&#45;&gt;Node54</title>
<g id="a_edge41_Node000050_Node000054"><a xlink:title=" ">
<path fill="none" stroke="#63b8ff" d="M3778.84,-54.98C3791.59,-46.84 3811.05,-34.41 3826.17,-24.76"/>
<polygon fill="#63b8ff" stroke="#63b8ff" points="3828.38,-27.5 3834.92,-19.17 3824.61,-21.6 3828.38,-27.5"/>
</a>
</g>
</g>
<!-- Node57 -->
<g id="Node000057" class="node">
<title>Node57</title>
<g id="a_Node000057"><a xlink:href="RefCount_8h.html" target="_top" xlink:title=" ">
<polygon fill="#fff0f0" stroke="red" points="3919,-74 3822,-74 3822,-55 3919,-55 3919,-74"/>
<text text-anchor="middle" x="3870.5" y="-62" font-family="Helvetica,sans-Serif" font-size="10.00">base/RefCount.h</text>
</a>
</g>
</g>
<!-- Node56&#45;&gt;Node57 -->
<g id="edge44_Node000056_Node000057" class="edge">
<title>Node56&#45;&gt;Node57</title>
<g id="a_edge44_Node000056_Node000057"><a xlink:title=" ">
<path fill="none" stroke="#63b8ff" d="M3833.77,-109.75C3840.04,-102.18 3849.29,-91.05 3856.93,-81.84"/>
<polygon fill="#63b8ff" stroke="#63b8ff" points="3859.67,-84.02 3863.37,-74.09 3854.29,-79.55 3859.67,-84.02"/>
</a>
</g>
</g>
<!-- Node61 -->
<g id="Node000061" class="node">
<title>Node61</title>
<g id="a_Node000061"><a xlink:href="TypeTraits_8h.html" target="_top" xlink:title=" ">
<polygon fill="white" stroke="#666666" points="4038,-74 3937,-74 3937,-55 4038,-55 4038,-74"/>
<text text-anchor="middle" x="3987.5" y="-62" font-family="Helvetica,sans-Serif" font-size="10.00">base/TypeTraits.h</text>
</a>
</g>
</g>
<!-- Node56&#45;&gt;Node61 -->
<g id="edge45_Node000056_Node000061" class="edge">
<title>Node56&#45;&gt;Node61</title>
<g id="a_edge45_Node000056_Node000061"><a xlink:title=" ">
<path fill="none" stroke="#63b8ff" d="M3852.37,-109.98C3879.28,-101.13 3921.62,-87.19 3951.73,-77.28"/>
<polygon fill="#63b8ff" stroke="#63b8ff" points="3953.03,-80.53 3961.43,-74.08 3950.84,-73.88 3953.03,-80.53"/>
</a>
</g>
</g>
<!-- Node62 -->
<g id="Node000062" class="node">
<title>Node62</title>
<g id="a_Node000062"><a xlink:href="RequestId_8h.html" target="_top" xlink:title=" ">
<polygon fill="#fff0f0" stroke="red" points="3607.5,-74 3515.5,-74 3515.5,-55 3607.5,-55 3607.5,-74"/>
<text text-anchor="middle" x="3561.5" y="-62" font-family="Helvetica,sans-Serif" font-size="10.00">ipc/RequestId.h</text>
</a>
</g>
</g>
<!-- Node56&#45;&gt;Node62 -->
<g id="edge47_Node000056_Node000062" class="edge">
<title>Node56&#45;&gt;Node62</title>
<g id="a_edge47_Node000056_Node000062"><a xlink:title=" ">
<path fill="none" stroke="#63b8ff" d="M3784.8,-110.16C3738.71,-100.94 3664.38,-86.08 3614.27,-76.05"/>
<polygon fill="#63b8ff" stroke="#63b8ff" points="3614.76,-72.58 3604.27,-74.05 3613.39,-79.45 3614.76,-72.58"/>
</a>
</g>
</g>
<!-- Node61&#45;&gt;Node48 -->
<g id="edge46_Node000061_Node000048" class="edge">
<title>Node61&#45;&gt;Node48</title>
<g id="a_edge46_Node000061_Node000048"><a xlink:title=" ">
<path fill="none" stroke="#63b8ff" d="M3993.94,-54.75C3999.39,-47.34 4007.36,-36.5 4014.06,-27.41"/>
<polygon fill="#63b8ff" stroke="#63b8ff" points="4017.07,-29.22 4020.18,-19.09 4011.43,-25.07 4017.07,-29.22"/>
</a>
</g>
</g>
<!-- Node62&#45;&gt;Node52 -->
<g id="edge49_Node000062_Node000052" class="edge">
<title>Node62&#45;&gt;Node52</title>
<g id="a_edge49_Node000062_Node000052"><a xlink:title=" ">
<path fill="none" stroke="#63b8ff" d="M3569.59,-54.75C3576.66,-47.11 3587.09,-35.82 3595.65,-26.56"/>
<polygon fill="#63b8ff" stroke="#63b8ff" points="3598.34,-28.81 3602.56,-19.09 3593.2,-24.06 3598.34,-28.81"/>
</a>
</g>
</g>
<!-- Node62&#45;&gt;Node55 -->
<g id="edge48_Node000062_Node000055" class="edge">
<title>Node62&#45;&gt;Node55</title>
<g id="a_edge48_Node000062_Node000055"><a xlink:title=" ">
<path fill="none" stroke="#63b8ff" d="M3546.56,-54.98C3532,-46.69 3509.63,-33.94 3492.57,-24.22"/>
<polygon fill="#63b8ff" stroke="#63b8ff" points="3494.14,-21.08 3483.71,-19.17 3490.67,-27.16 3494.14,-21.08"/>
</a>
</g>
</g>
<!-- Node64&#45;&gt;Node55 -->
<g id="edge54_Node000064_Node000055" class="edge">
<title>Node64&#45;&gt;Node55</title>
<g id="a_edge54_Node000064_Node000055"><a xlink:title=" ">
<path fill="none" stroke="#63b8ff" d="M3566.94,-109.86C3548.65,-102.49 3523.94,-90.47 3506.5,-74 3492.95,-61.21 3482.56,-42.53 3476.09,-28.74"/>
<polygon fill="#63b8ff" stroke="#63b8ff" points="3479.18,-27.05 3471.93,-19.33 3472.78,-29.89 3479.18,-27.05"/>
</a>
</g>
</g>
<!-- Node65 -->
<g id="Node000065" class="node">
<title>Node65</title>
<g id="a_Node000065"><a xlink:href="Range_8h.html" target="_top" xlink:title=" ">
<polygon fill="white" stroke="#666666" points="3709,-74 3626,-74 3626,-55 3709,-55 3709,-74"/>
<text text-anchor="middle" x="3667.5" y="-62" font-family="Helvetica,sans-Serif" font-size="10.00">base/Range.h</text>
</a>
</g>
</g>
<!-- Node64&#45;&gt;Node65 -->
<g id="edge51_Node000064_Node000065" class="edge">
<title>Node64&#45;&gt;Node65</title>
<g id="a_edge51_Node000064_Node000065"><a xlink:title=" ">
<path fill="none" stroke="#63b8ff" d="M3603.71,-109.98C3615.28,-101.92 3632.88,-89.65 3646.66,-80.03"/>
<polygon fill="#63b8ff" stroke="#63b8ff" points="3648.87,-82.76 3655.07,-74.17 3644.86,-77.02 3648.87,-82.76"/>
</a>
</g>
</g>
<!-- Node66 -->
<g id="Node000066" class="node">
<title>Node66</title>
<g id="a_Node000066"><a xlink:href="snmp_8h.html" target="_top" xlink:title=" ">
<polygon fill="#fff0f0" stroke="red" points="3421,-74 3368,-74 3368,-55 3421,-55 3421,-74"/>
<text text-anchor="middle" x="3394.5" y="-62" font-family="Helvetica,sans-Serif" font-size="10.00">snmp.h</text>
</a>
</g>
</g>
<!-- Node64&#45;&gt;Node66 -->
<g id="edge55_Node000064_Node000066" class="edge">
<title>Node64&#45;&gt;Node66</title>
<g id="a_edge55_Node000064_Node000066"><a xlink:title=" ">
<path fill="none" stroke="#63b8ff" d="M3559.85,-109.98C3524.65,-100.52 3467.9,-85.25 3430.9,-75.29"/>
<polygon fill="#63b8ff" stroke="#63b8ff" points="3431.59,-71.85 3421.02,-72.63 3429.77,-78.61 3431.59,-71.85"/>
</a>
</g>
</g>
<!-- Node65&#45;&gt;Node52 -->
<g id="edge52_Node000065_Node000052" class="edge">
<title>Node65&#45;&gt;Node52</title>
<g id="a_edge52_Node000065_Node000052"><a xlink:title=" ">
<path fill="none" stroke="#63b8ff" d="M3658.34,-54.98C3650,-47.23 3637.47,-35.58 3627.32,-26.14"/>
<polygon fill="#63b8ff" stroke="#63b8ff" points="3629.53,-23.42 3619.82,-19.17 3624.76,-28.54 3629.53,-23.42"/>
</a>
</g>
</g>
<!-- Node65&#45;&gt;Node53 -->
<g id="edge53_Node000065_Node000053" class="edge">
<title>Node65&#45;&gt;Node53</title>
<g id="a_edge53_Node000065_Node000053"><a xlink:title=" ">
<path fill="none" stroke="#63b8ff" d="M3669.81,-54.75C3671.67,-47.72 3674.34,-37.62 3676.65,-28.84"/>
<polygon fill="#63b8ff" stroke="#63b8ff" points="3680.06,-29.65 3679.23,-19.09 3673.29,-27.86 3680.06,-29.65"/>
</a>
</g>
</g>
<!-- Node66&#45;&gt;Node4 -->
<g id="edge56_Node000066_Node000004" class="edge">
<title>Node66&#45;&gt;Node4</title>
<g id="a_edge56_Node000066_Node000004"><a xlink:title=" ">
<path fill="none" stroke="#63b8ff" d="M3387.07,-54.75C3380.65,-47.18 3371.19,-36.05 3363.38,-26.84"/>
<polygon fill="#63b8ff" stroke="#63b8ff" points="3365.93,-24.45 3356.79,-19.09 3360.6,-28.98 3365.93,-24.45"/>
</a>
</g>
</g>
<!-- Node80&#45;&gt;Node55 -->
<g id="edge58_Node000080_Node000055" class="edge">
<title>Node80&#45;&gt;Node55</title>
<g id="a_edge58_Node000080_Node000055"><a xlink:title=" ">
<path fill="none" stroke="#63b8ff" d="M3369.15,-109.97C3360.38,-97.05 3346.89,-72.22 3358.5,-55 3372.04,-34.91 3396.35,-23.89 3418.68,-17.84"/>
<polygon fill="#63b8ff" stroke="#63b8ff" points="3419.54,-21.24 3428.43,-15.47 3417.88,-14.44 3419.54,-21.24"/>
</a>
</g>
</g>
<!-- Node80&#45;&gt;Node66 -->
<g id="edge59_Node000080_Node000066" class="edge">
<title>Node80&#45;&gt;Node66</title>
<g id="a_edge59_Node000080_Node000066"><a xlink:title=" ">
<path fill="none" stroke="#63b8ff" d="M3378.64,-109.75C3381.18,-102.65 3384.86,-92.4 3388.03,-83.56"/>
<polygon fill="#63b8ff" stroke="#63b8ff" points="3391.34,-84.68 3391.42,-74.09 3384.75,-82.32 3391.34,-84.68"/>
</a>
</g>
</g>
</g>
</svg>

<g id="navigator" transform="translate(0 0)" fill="#404254">
  <rect fill="#f2f5e9" fill-opacity="0.5" stroke="#606060" stroke-width=".5" x="0" y="0" width="60" height="60"/>
  <use id="zoomplus" xlink:href="#zoomPlus" x="17" y="9" onmousedown="handleZoom(evt,'in')"/>
  <use id="zoomminus" xlink:href="#zoomMin" x="42" y="9" onmousedown="handleZoom(evt,'out')"/>
  <use id="reset" xlink:href="#resetDef" x="30" y="36" onmousedown="handleReset()"/>
   <use id="arrowup" xlink:href="#arrowUp" x="0" y="0" onmousedown="handlePan(0,-1)"/>
  <use id="arrowright" xlink:href="#arrowRight" x="0" y="0" onmousedown="handlePan(1,0)"/>
  <use id="arrowdown" xlink:href="#arrowDown" x="0" y="0" onmousedown="handlePan(0,1)"/>
  <use id="arrowleft" xlink:href="#arrowLeft" x="0" y="0" onmousedown="handlePan(-1,0)"/>
</g>
<svg viewBox="0 0 15 15" width="100%" height="30px" preserveAspectRatio="xMaxYMin meet">
 <g id="arrow_out" transform="scale(0.3 0.3)">
  <a xlink:href="snmp_2Request_8cc__incl_org.svg" target="_base">
   <rect id="button" ry="5" rx="5" y="6" x="6" height="38" width="38"
        fill="#f2f5e9" fill-opacity="0.5" stroke="#606060" stroke-width="1.0"/>
   <path id="arrow"
     d="M 11.500037,31.436501 C 11.940474,20.09759 22.043105,11.32322 32.158766,21.979434 L 37.068811,17.246167 C 37.068811,17.246167 37.088388,32 37.088388,32 L 22.160133,31.978069 C 22.160133,31.978069 26.997745,27.140456 26.997745,27.140456 C 18.528582,18.264221 13.291696,25.230495 11.500037,31.436501 z"
     style="fill:#404040;"/>
  </a>
 </g>
</svg>

<style type='text/css'>
<![CDATA[
[data-mouse-over-selected='false'] { opacity: 0.7; }
[data-mouse-over-selected='true']  { opacity: 1.0; }
]]>
</style>
<script type="application/ecmascript"><![CDATA[
document.addEventListener('DOMContentLoaded', (event) => {
  highlightEdges();
  highlightAdjacentNodes();
});
]]></script>
</svg>
