<?xml version="1.0" encoding="UTF-8" standalone="no"?>
<!DOCTYPE svg PUBLIC "-//W3C//DTD SVG 1.1//EN"
 "http://www.w3.org/Graphics/SVG/1.1/DTD/svg11.dtd">
<!-- Generated by graphviz version 2.43.0 (0)
 -->
<!-- Title: squid/src/SquidMath.cc Pages: 1 -->
<!--zoomable 302 -->

<svg id="main" version="1.1" xmlns="http://www.w3.org/2000/svg" xmlns:xlink="http://www.w3.org/1999/xlink" xml:space="preserve" onload="init(evt)">
<style type="text/css"><![CDATA[
.node, .edge {opacity: 0.7;}
.node.selected, .edge.selected {opacity: 1;}
.edge:hover path { stroke: red; }
.edge:hover polygon { stroke: red; fill: red; }
]]></style>

<defs>
  <circle id="rim" cx="0" cy="0" r="7"/>
  <circle id="rim2" cx="0" cy="0" r="3.5"/>
  <g id="zoomPlus">
    <use xlink:href="#rim" fill="#404040"><set attributeName="fill" to="#808080" begin="zoomplus.mouseover" end="zoomplus.mouseout"/></use>
    <path d="M-4,0h8M0,-4v8" fill="none" stroke="white" stroke-width="1.5" pointer-events="none"/>
  </g>
  <g id="zoomMin">
    <use xlink:href="#rim" fill="#404040"><set attributeName="fill" to="#808080" begin="zoomminus.mouseover" end="zoomminus.mouseout"/></use>
    <path d="M-4,0h8" fill="none" stroke="white" stroke-width="1.5" pointer-events="none"/>
  </g>
  <g id="arrowUp" transform="translate(30 24)">
    <use xlink:href="#rim"/>
    <path pointer-events="none" fill="none" stroke="white" stroke-width="1.5" d="M0,-3.0v7 M-2.5,-0.5L0,-3.0L2.5,-0.5"/>
  </g>
  <g id="arrowRight" transform="rotate(90) translate(36 -43)">
    <use xlink:href="#rim"/>
    <path pointer-events="none" fill="none" stroke="white" stroke-width="1.5" d="M0,-3.0v7 M-2.5,-0.5L0,-3.0L2.5,-0.5"/>
  </g>
  <g id="arrowDown" transform="rotate(180) translate(-30 -48)">
    <use xlink:href="#rim"/>
    <path pointer-events="none" fill="none" stroke="white" stroke-width="1.5" d="M0,-3.0v7 M-2.5,-0.5L0,-3.0L2.5,-0.5"/>
  </g>
  <g id="arrowLeft" transform="rotate(270) translate(-36 17)">
    <use xlink:href="#rim"/>
    <path pointer-events="none" fill="none" stroke="white" stroke-width="1.5" d="M0,-3.0v7 M-2.5,-0.5L0,-3.0L2.5,-0.5"/>
  </g>
  <g id="resetDef">
    <use xlink:href="#rim2" fill="#404040"><set attributeName="fill" to="#808080" begin="reset.mouseover" end="reset.mouseout"/></use>
  </g>
</defs>
<script type="application/ecmascript">
var viewWidth = 3255;
var viewHeight = 302;
var sectionId = 'dynsection-0';
</script>
<script type="application/ecmascript" xlink:href="svg.min.js"/>
<svg id="graph" class="graph">
<g id="viewport">
<title>squid/src/SquidMath.cc</title>
<!-- Node1 -->
<g id="Node000001" class="node">
<title>Node1</title>
<g id="a_Node000001"><a xlink:title=" ">
<polygon fill="#999999" stroke="#666666" points="1803.5,-294 1675.5,-294 1675.5,-275 1803.5,-275 1803.5,-294"/>
<text text-anchor="middle" x="1739.5" y="-282" font-family="Helvetica,sans-Serif" font-size="10.00">squid/src/SquidMath.cc</text>
</a>
</g>
</g>
<!-- Node2 -->
<g id="Node000002" class="node">
<title>Node2</title>
<g id="a_Node000002"><a xlink:href="squid_8h.html" target="_top" xlink:title=" ">
<polygon fill="white" stroke="#666666" points="1652.5,-239 1600.5,-239 1600.5,-220 1652.5,-220 1652.5,-239"/>
<text text-anchor="middle" x="1626.5" y="-227" font-family="Helvetica,sans-Serif" font-size="10.00">squid.h</text>
</a>
</g>
</g>
<!-- Node1&#45;&gt;Node2 -->
<g id="edge1_Node000001_Node000002" class="edge">
<title>Node1&#45;&gt;Node2</title>
<g id="a_edge1_Node000001_Node000002"><a xlink:title=" ">
<path fill="none" stroke="#63b8ff" d="M1721.34,-274.98C1703.25,-266.5 1675.22,-253.35 1654.31,-243.54"/>
<polygon fill="#63b8ff" stroke="#63b8ff" points="1655.53,-240.25 1644.99,-239.17 1652.55,-246.59 1655.53,-240.25"/>
</a>
</g>
</g>
<!-- Node44 -->
<g id="Node000044" class="node">
<title>Node44</title>
<g id="a_Node000044"><a xlink:href="SquidMath_8h.html" target="_top" xlink:title=" ">
<polygon fill="white" stroke="#666666" points="2630,-239 2553,-239 2553,-220 2630,-220 2630,-239"/>
<text text-anchor="middle" x="2591.5" y="-227" font-family="Helvetica,sans-Serif" font-size="10.00">SquidMath.h</text>
</a>
</g>
</g>
<!-- Node1&#45;&gt;Node44 -->
<g id="edge43_Node000001_Node000044" class="edge">
<title>Node1&#45;&gt;Node44</title>
<g id="a_edge43_Node000001_Node000044"><a xlink:title=" ">
<path fill="none" stroke="#63b8ff" d="M1803.54,-279.52C1967.02,-269.35 2397.12,-242.59 2542.6,-233.54"/>
<polygon fill="#63b8ff" stroke="#63b8ff" points="2543.22,-237.01 2552.98,-232.9 2542.78,-230.02 2543.22,-237.01"/>
</a>
</g>
</g>
<!-- Node3 -->
<g id="Node000003" class="node">
<title>Node3</title>
<g id="a_Node000003"><a xlink:href="autoconf_8h.html" target="_top" xlink:title=" ">
<polygon fill="white" stroke="#666666" points="1527.5,-184 1459.5,-184 1459.5,-165 1527.5,-165 1527.5,-184"/>
<text text-anchor="middle" x="1493.5" y="-172" font-family="Helvetica,sans-Serif" font-size="10.00">autoconf.h</text>
</a>
</g>
</g>
<!-- Node2&#45;&gt;Node3 -->
<g id="edge2_Node000002_Node000003" class="edge">
<title>Node2&#45;&gt;Node3</title>
<g id="a_edge2_Node000002_Node000003"><a xlink:title=" ">
<path fill="none" stroke="#63b8ff" d="M1605.13,-219.98C1583.35,-211.3 1549.34,-197.75 1524.58,-187.88"/>
<polygon fill="#63b8ff" stroke="#63b8ff" points="1525.84,-184.62 1515.26,-184.17 1523.25,-191.12 1525.84,-184.62"/>
</a>
</g>
</g>
<!-- Node4 -->
<g id="Node000004" class="node">
<title>Node4</title>
<g id="a_Node000004"><a xlink:href="version_8h.html" target="_top" xlink:title=" ">
<polygon fill="white" stroke="#666666" points="1607.5,-184 1545.5,-184 1545.5,-165 1607.5,-165 1607.5,-184"/>
<text text-anchor="middle" x="1576.5" y="-172" font-family="Helvetica,sans-Serif" font-size="10.00">version.h</text>
</a>
</g>
</g>
<!-- Node2&#45;&gt;Node4 -->
<g id="edge3_Node000002_Node000004" class="edge">
<title>Node2&#45;&gt;Node4</title>
<g id="a_edge3_Node000002_Node000004"><a xlink:title=" ">
<path fill="none" stroke="#63b8ff" d="M1618.24,-219.75C1611.04,-212.11 1600.39,-200.82 1591.65,-191.56"/>
<polygon fill="#63b8ff" stroke="#63b8ff" points="1594.01,-188.96 1584.6,-184.09 1588.92,-193.76 1594.01,-188.96"/>
</a>
</g>
</g>
<!-- Node5 -->
<g id="Node000005" class="node">
<title>Node5</title>
<g id="a_Node000005"><a xlink:href="compat_8h.html" target="_top" xlink:title=" ">
<polygon fill="white" stroke="#666666" points="1727.5,-184 1625.5,-184 1625.5,-165 1727.5,-165 1727.5,-184"/>
<text text-anchor="middle" x="1676.5" y="-172" font-family="Helvetica,sans-Serif" font-size="10.00">compat/compat.h</text>
</a>
</g>
</g>
<!-- Node2&#45;&gt;Node5 -->
<g id="edge4_Node000002_Node000005" class="edge">
<title>Node2&#45;&gt;Node5</title>
<g id="a_edge4_Node000002_Node000005"><a xlink:title=" ">
<path fill="none" stroke="#63b8ff" d="M1634.76,-219.75C1641.96,-212.11 1652.61,-200.82 1661.35,-191.56"/>
<polygon fill="#63b8ff" stroke="#63b8ff" points="1664.08,-193.76 1668.4,-184.09 1658.99,-188.96 1664.08,-193.76"/>
</a>
</g>
</g>
<!-- Node6 -->
<g id="Node000006" class="node">
<title>Node6</title>
<g id="a_Node000006"><a xlink:href="osdetect_8h.html" target="_top" xlink:title=" ">
<polygon fill="white" stroke="#666666" points="107,-129 0,-129 0,-110 107,-110 107,-129"/>
<text text-anchor="middle" x="53.5" y="-117" font-family="Helvetica,sans-Serif" font-size="10.00">compat/osdetect.h</text>
</a>
</g>
</g>
<!-- Node5&#45;&gt;Node6 -->
<g id="edge5_Node000005_Node000006" class="edge">
<title>Node5&#45;&gt;Node6</title>
<g id="a_edge5_Node000005_Node000006"><a xlink:title=" ">
<path fill="none" stroke="#63b8ff" d="M1625.48,-165.86C1622.45,-165.53 1619.44,-165.24 1616.5,-165 955.31,-110.42 783.04,-180.93 117.4,-128.95"/>
<polygon fill="#63b8ff" stroke="#63b8ff" points="117.32,-125.43 107.07,-128.14 116.77,-132.41 117.32,-125.43"/>
</a>
</g>
</g>
<!-- Node7 -->
<g id="Node000007" class="node">
<title>Node7</title>
<g id="a_Node000007"><a xlink:href="fdsetsize_8h.html" target="_top" xlink:title=" ">
<polygon fill="white" stroke="#666666" points="235.5,-129 125.5,-129 125.5,-110 235.5,-110 235.5,-129"/>
<text text-anchor="middle" x="180.5" y="-117" font-family="Helvetica,sans-Serif" font-size="10.00">compat/fdsetsize.h</text>
</a>
</g>
</g>
<!-- Node5&#45;&gt;Node7 -->
<g id="edge6_Node000005_Node000007" class="edge">
<title>Node5&#45;&gt;Node7</title>
<g id="a_edge6_Node000005_Node000007"><a xlink:title=" ">
<path fill="none" stroke="#63b8ff" d="M1625.48,-165.87C1622.45,-165.54 1619.44,-165.25 1616.5,-165 1012.05,-114.42 854.35,-176.52 245.97,-129.01"/>
<polygon fill="#63b8ff" stroke="#63b8ff" points="245.86,-125.49 235.62,-128.2 245.31,-132.47 245.86,-125.49"/>
</a>
</g>
</g>
<!-- Node8 -->
<g id="Node000008" class="node">
<title>Node8</title>
<g id="a_Node000008"><a xlink:href="types_8h.html" target="_top" xlink:title=" ">
<polygon fill="white" stroke="#666666" points="345.5,-129 253.5,-129 253.5,-110 345.5,-110 345.5,-129"/>
<text text-anchor="middle" x="299.5" y="-117" font-family="Helvetica,sans-Serif" font-size="10.00">compat/types.h</text>
</a>
</g>
</g>
<!-- Node5&#45;&gt;Node8 -->
<g id="edge7_Node000005_Node000008" class="edge">
<title>Node5&#45;&gt;Node8</title>
<g id="a_edge7_Node000005_Node000008"><a xlink:title=" ">
<path fill="none" stroke="#63b8ff" d="M1625.48,-165.88C1622.45,-165.55 1619.44,-165.25 1616.5,-165 1060.8,-117.86 915.07,-179.19 356.01,-129"/>
<polygon fill="#63b8ff" stroke="#63b8ff" points="355.94,-125.48 345.66,-128.06 355.31,-132.45 355.94,-125.48"/>
</a>
</g>
</g>
<!-- Node10 -->
<g id="Node000010" class="node">
<title>Node10</title>
<g id="a_Node000010"><a xlink:href="aix_8h.html" target="_top" xlink:title=" ">
<polygon fill="white" stroke="#666666" points="459,-129 364,-129 364,-110 459,-110 459,-129"/>
<text text-anchor="middle" x="411.5" y="-117" font-family="Helvetica,sans-Serif" font-size="10.00">compat/os/aix.h</text>
</a>
</g>
</g>
<!-- Node5&#45;&gt;Node10 -->
<g id="edge9_Node000005_Node000010" class="edge">
<title>Node5&#45;&gt;Node10</title>
<g id="a_edge9_Node000005_Node000010"><a xlink:title=" ">
<path fill="none" stroke="#63b8ff" d="M1625.48,-165.89C1622.45,-165.55 1619.43,-165.25 1616.5,-165 1111.27,-121.42 978.66,-174.02 469.23,-128.92"/>
<polygon fill="#63b8ff" stroke="#63b8ff" points="469.31,-125.42 459.04,-128.01 468.68,-132.39 469.31,-125.42"/>
</a>
</g>
</g>
<!-- Node11 -->
<g id="Node000011" class="node">
<title>Node11</title>
<g id="a_Node000011"><a xlink:href="android_8h.html" target="_top" xlink:title=" ">
<polygon fill="white" stroke="#666666" points="593.5,-129 477.5,-129 477.5,-110 593.5,-110 593.5,-129"/>
<text text-anchor="middle" x="535.5" y="-117" font-family="Helvetica,sans-Serif" font-size="10.00">compat/os/android.h</text>
</a>
</g>
</g>
<!-- Node5&#45;&gt;Node11 -->
<g id="edge10_Node000005_Node000011" class="edge">
<title>Node5&#45;&gt;Node11</title>
<g id="a_edge10_Node000005_Node000011"><a xlink:title=" ">
<path fill="none" stroke="#63b8ff" d="M1625.48,-165.9C1622.44,-165.56 1619.43,-165.26 1616.5,-165 1170.59,-125.61 1053.69,-164.83 603.59,-129"/>
<polygon fill="#63b8ff" stroke="#63b8ff" points="603.82,-125.51 593.57,-128.19 603.26,-132.48 603.82,-125.51"/>
</a>
</g>
</g>
<!-- Node12 -->
<g id="Node000012" class="node">
<title>Node12</title>
<g id="a_Node000012"><a xlink:href="dragonfly_8h.html" target="_top" xlink:title=" ">
<polygon fill="white" stroke="#666666" points="735.5,-129 611.5,-129 611.5,-110 735.5,-110 735.5,-129"/>
<text text-anchor="middle" x="673.5" y="-117" font-family="Helvetica,sans-Serif" font-size="10.00">compat/os/dragonfly.h</text>
</a>
</g>
</g>
<!-- Node5&#45;&gt;Node12 -->
<g id="edge11_Node000005_Node000012" class="edge">
<title>Node5&#45;&gt;Node12</title>
<g id="a_edge11_Node000005_Node000012"><a xlink:title=" ">
<path fill="none" stroke="#63b8ff" d="M1625.48,-165.92C1622.44,-165.58 1619.43,-165.27 1616.5,-165 1233.52,-130.05 1132.85,-159.56 745.88,-129.04"/>
<polygon fill="#63b8ff" stroke="#63b8ff" points="746.06,-125.54 735.81,-128.24 745.5,-132.52 746.06,-125.54"/>
</a>
</g>
</g>
<!-- Node13 -->
<g id="Node000013" class="node">
<title>Node13</title>
<g id="a_Node000013"><a xlink:href="freebsd_8h.html" target="_top" xlink:title=" ">
<polygon fill="white" stroke="#666666" points="869.5,-129 753.5,-129 753.5,-110 869.5,-110 869.5,-129"/>
<text text-anchor="middle" x="811.5" y="-117" font-family="Helvetica,sans-Serif" font-size="10.00">compat/os/freebsd.h</text>
</a>
</g>
</g>
<!-- Node5&#45;&gt;Node13 -->
<g id="edge12_Node000005_Node000013" class="edge">
<title>Node5&#45;&gt;Node13</title>
<g id="a_edge12_Node000005_Node000013"><a xlink:title=" ">
<path fill="none" stroke="#63b8ff" d="M1625.47,-165.95C1622.44,-165.6 1619.43,-165.28 1616.5,-165 1292.93,-134.25 1207.38,-157.21 879.83,-129.04"/>
<polygon fill="#63b8ff" stroke="#63b8ff" points="879.84,-125.53 869.58,-128.15 879.23,-132.5 879.84,-125.53"/>
</a>
</g>
</g>
<!-- Node14 -->
<g id="Node000014" class="node">
<title>Node14</title>
<g id="a_Node000014"><a xlink:href="hpux_8h.html" target="_top" xlink:title=" ">
<polygon fill="white" stroke="#666666" points="991.5,-129 887.5,-129 887.5,-110 991.5,-110 991.5,-129"/>
<text text-anchor="middle" x="939.5" y="-117" font-family="Helvetica,sans-Serif" font-size="10.00">compat/os/hpux.h</text>
</a>
</g>
</g>
<!-- Node5&#45;&gt;Node14 -->
<g id="edge13_Node000005_Node000014" class="edge">
<title>Node5&#45;&gt;Node14</title>
<g id="a_edge13_Node000005_Node000014"><a xlink:title=" ">
<path fill="none" stroke="#63b8ff" d="M1625.47,-165.98C1622.44,-165.62 1619.43,-165.29 1616.5,-165 1346.94,-138.08 1275.16,-155.51 1001.93,-129.06"/>
<polygon fill="#63b8ff" stroke="#63b8ff" points="1002,-125.55 991.71,-128.06 1001.32,-132.51 1002,-125.55"/>
</a>
</g>
</g>
<!-- Node15 -->
<g id="Node000015" class="node">
<title>Node15</title>
<g id="a_Node000015"><a xlink:href="linux_8h.html" target="_top" xlink:title=" ">
<polygon fill="white" stroke="#666666" points="1113.5,-129 1009.5,-129 1009.5,-110 1113.5,-110 1113.5,-129"/>
<text text-anchor="middle" x="1061.5" y="-117" font-family="Helvetica,sans-Serif" font-size="10.00">compat/os/linux.h</text>
</a>
</g>
</g>
<!-- Node5&#45;&gt;Node15 -->
<g id="edge14_Node000005_Node000015" class="edge">
<title>Node5&#45;&gt;Node15</title>
<g id="a_edge14_Node000005_Node000015"><a xlink:title=" ">
<path fill="none" stroke="#63b8ff" d="M1625.47,-166.03C1622.44,-165.66 1619.43,-165.31 1616.5,-165 1400.93,-141.9 1343.15,-151.89 1123.94,-129.08"/>
<polygon fill="#63b8ff" stroke="#63b8ff" points="1124.03,-125.57 1113.72,-128.01 1123.29,-132.53 1124.03,-125.57"/>
</a>
</g>
</g>
<!-- Node16 -->
<g id="Node000016" class="node">
<title>Node16</title>
<g id="a_Node000016"><a xlink:href="macosx_8h.html" target="_top" xlink:title=" ">
<polygon fill="white" stroke="#666666" points="1249.5,-129 1131.5,-129 1131.5,-110 1249.5,-110 1249.5,-129"/>
<text text-anchor="middle" x="1190.5" y="-117" font-family="Helvetica,sans-Serif" font-size="10.00">compat/os/macosx.h</text>
</a>
</g>
</g>
<!-- Node5&#45;&gt;Node16 -->
<g id="edge15_Node000005_Node000016" class="edge">
<title>Node5&#45;&gt;Node16</title>
<g id="a_edge15_Node000005_Node000016"><a xlink:title=" ">
<path fill="none" stroke="#63b8ff" d="M1625.46,-166.13C1622.43,-165.73 1619.42,-165.35 1616.5,-165 1461,-146.17 1419.11,-146.88 1259.98,-129.14"/>
<polygon fill="#63b8ff" stroke="#63b8ff" points="1260.16,-125.64 1249.83,-128 1259.38,-132.59 1260.16,-125.64"/>
</a>
</g>
</g>
<!-- Node17 -->
<g id="Node000017" class="node">
<title>Node17</title>
<g id="a_Node000017"><a xlink:href="mingw_8h.html" target="_top" xlink:title=" ">
<polygon fill="white" stroke="#666666" points="1379.5,-129 1267.5,-129 1267.5,-110 1379.5,-110 1379.5,-129"/>
<text text-anchor="middle" x="1323.5" y="-117" font-family="Helvetica,sans-Serif" font-size="10.00">compat/os/mingw.h</text>
</a>
</g>
</g>
<!-- Node5&#45;&gt;Node17 -->
<g id="edge16_Node000005_Node000017" class="edge">
<title>Node5&#45;&gt;Node17</title>
<g id="a_edge16_Node000005_Node000017"><a xlink:title=" ">
<path fill="none" stroke="#63b8ff" d="M1625.17,-165.79C1562.97,-156.45 1458.03,-140.7 1389.77,-130.45"/>
<polygon fill="#63b8ff" stroke="#63b8ff" points="1389.97,-126.94 1379.56,-128.92 1388.93,-133.86 1389.97,-126.94"/>
</a>
</g>
</g>
<!-- Node18 -->
<g id="Node000018" class="node">
<title>Node18</title>
<g id="a_Node000018"><a xlink:href="mswindows_8h.html" target="_top" xlink:title=" ">
<polygon fill="white" stroke="#666666" points="1535,-129 1398,-129 1398,-110 1535,-110 1535,-129"/>
<text text-anchor="middle" x="1466.5" y="-117" font-family="Helvetica,sans-Serif" font-size="10.00">compat/os/mswindows.h</text>
</a>
</g>
</g>
<!-- Node5&#45;&gt;Node18 -->
<g id="edge17_Node000005_Node000018" class="edge">
<title>Node5&#45;&gt;Node18</title>
<g id="a_edge17_Node000005_Node000018"><a xlink:title=" ">
<path fill="none" stroke="#63b8ff" d="M1642.76,-164.98C1606.82,-155.91 1549.78,-141.52 1510.37,-131.57"/>
<polygon fill="#63b8ff" stroke="#63b8ff" points="1511.06,-128.14 1500.5,-129.08 1509.34,-134.92 1511.06,-128.14"/>
</a>
</g>
</g>
<!-- Node19 -->
<g id="Node000019" class="node">
<title>Node19</title>
<g id="a_Node000019"><a xlink:href="netbsd_8h.html" target="_top" xlink:title=" ">
<polygon fill="white" stroke="#666666" points="1666,-129 1553,-129 1553,-110 1666,-110 1666,-129"/>
<text text-anchor="middle" x="1609.5" y="-117" font-family="Helvetica,sans-Serif" font-size="10.00">compat/os/netbsd.h</text>
</a>
</g>
</g>
<!-- Node5&#45;&gt;Node19 -->
<g id="edge18_Node000005_Node000019" class="edge">
<title>Node5&#45;&gt;Node19</title>
<g id="a_edge18_Node000005_Node000019"><a xlink:title=" ">
<path fill="none" stroke="#63b8ff" d="M1665.74,-164.98C1655.73,-157.07 1640.61,-145.11 1628.57,-135.58"/>
<polygon fill="#63b8ff" stroke="#63b8ff" points="1630.47,-132.63 1620.46,-129.17 1626.13,-138.12 1630.47,-132.63"/>
</a>
</g>
</g>
<!-- Node20 -->
<g id="Node000020" class="node">
<title>Node20</title>
<g id="a_Node000020"><a xlink:href="openbsd_8h.html" target="_top" xlink:title=" ">
<polygon fill="white" stroke="#666666" points="1805,-129 1684,-129 1684,-110 1805,-110 1805,-129"/>
<text text-anchor="middle" x="1744.5" y="-117" font-family="Helvetica,sans-Serif" font-size="10.00">compat/os/openbsd.h</text>
</a>
</g>
</g>
<!-- Node5&#45;&gt;Node20 -->
<g id="edge19_Node000005_Node000020" class="edge">
<title>Node5&#45;&gt;Node20</title>
<g id="a_edge19_Node000005_Node000020"><a xlink:title=" ">
<path fill="none" stroke="#63b8ff" d="M1687.43,-164.98C1697.58,-157.07 1712.92,-145.11 1725.15,-135.58"/>
<polygon fill="#63b8ff" stroke="#63b8ff" points="1727.64,-138.08 1733.38,-129.17 1723.34,-132.56 1727.64,-138.08"/>
</a>
</g>
</g>
<!-- Node21 -->
<g id="Node000021" class="node">
<title>Node21</title>
<g id="a_Node000021"><a xlink:href="os2_8h.html" target="_top" xlink:title=" ">
<polygon fill="white" stroke="#666666" points="1920,-129 1823,-129 1823,-110 1920,-110 1920,-129"/>
<text text-anchor="middle" x="1871.5" y="-117" font-family="Helvetica,sans-Serif" font-size="10.00">compat/os/os2.h</text>
</a>
</g>
</g>
<!-- Node5&#45;&gt;Node21 -->
<g id="edge20_Node000005_Node000021" class="edge">
<title>Node5&#45;&gt;Node21</title>
<g id="a_edge20_Node000005_Node000021"><a xlink:title=" ">
<path fill="none" stroke="#63b8ff" d="M1707.83,-164.98C1740.99,-155.97 1793.5,-141.7 1830.06,-131.76"/>
<polygon fill="#63b8ff" stroke="#63b8ff" points="1831.19,-135.08 1839.92,-129.08 1829.36,-128.33 1831.19,-135.08"/>
</a>
</g>
</g>
<!-- Node22 -->
<g id="Node000022" class="node">
<title>Node22</title>
<g id="a_Node000022"><a xlink:href="qnx_8h.html" target="_top" xlink:title=" ">
<polygon fill="white" stroke="#666666" points="2036.5,-129 1938.5,-129 1938.5,-110 2036.5,-110 2036.5,-129"/>
<text text-anchor="middle" x="1987.5" y="-117" font-family="Helvetica,sans-Serif" font-size="10.00">compat/os/qnx.h</text>
</a>
</g>
</g>
<!-- Node5&#45;&gt;Node22 -->
<g id="edge21_Node000005_Node000022" class="edge">
<title>Node5&#45;&gt;Node22</title>
<g id="a_edge21_Node000005_Node000022"><a xlink:title=" ">
<path fill="none" stroke="#63b8ff" d="M1726.47,-164.98C1781.46,-155.61 1869.79,-140.56 1928.24,-130.6"/>
<polygon fill="#63b8ff" stroke="#63b8ff" points="1929.16,-133.99 1938.43,-128.86 1927.98,-127.09 1929.16,-133.99"/>
</a>
</g>
</g>
<!-- Node23 -->
<g id="Node000023" class="node">
<title>Node23</title>
<g id="a_Node000023"><a xlink:href="solaris_8h.html" target="_top" xlink:title=" ">
<polygon fill="white" stroke="#666666" points="2166.5,-129 2054.5,-129 2054.5,-110 2166.5,-110 2166.5,-129"/>
<text text-anchor="middle" x="2110.5" y="-117" font-family="Helvetica,sans-Serif" font-size="10.00">compat/os/solaris.h</text>
</a>
</g>
</g>
<!-- Node5&#45;&gt;Node23 -->
<g id="edge22_Node000005_Node000023" class="edge">
<title>Node5&#45;&gt;Node23</title>
<g id="a_edge22_Node000005_Node000023"><a xlink:title=" ">
<path fill="none" stroke="#63b8ff" d="M1727.56,-167.51C1796.84,-159.34 1924.78,-144.12 2044.42,-129.13"/>
<polygon fill="#63b8ff" stroke="#63b8ff" points="2045,-132.58 2054.48,-127.86 2044.13,-125.63 2045,-132.58"/>
</a>
</g>
</g>
<!-- Node24 -->
<g id="Node000024" class="node">
<title>Node24</title>
<g id="a_Node000024"><a xlink:href="sunos_8h.html" target="_top" xlink:title=" ">
<polygon fill="white" stroke="#666666" points="2292.5,-129 2184.5,-129 2184.5,-110 2292.5,-110 2292.5,-129"/>
<text text-anchor="middle" x="2238.5" y="-117" font-family="Helvetica,sans-Serif" font-size="10.00">compat/os/sunos.h</text>
</a>
</g>
</g>
<!-- Node5&#45;&gt;Node24 -->
<g id="edge23_Node000005_Node000024" class="edge">
<title>Node5&#45;&gt;Node24</title>
<g id="a_edge23_Node000005_Node000024"><a xlink:title=" ">
<path fill="none" stroke="#63b8ff" d="M1727.58,-169.71C1816.24,-162.97 2004.59,-147.9 2174.12,-129.11"/>
<polygon fill="#63b8ff" stroke="#63b8ff" points="2174.67,-132.57 2184.22,-127.98 2173.9,-125.61 2174.67,-132.57"/>
</a>
</g>
</g>
<!-- Node25 -->
<g id="Node000025" class="node">
<title>Node25</title>
<g id="a_Node000025"><a xlink:href="assert_8h.html" target="_top" xlink:title=" ">
<polygon fill="white" stroke="#666666" points="2406,-129 2311,-129 2311,-110 2406,-110 2406,-129"/>
<text text-anchor="middle" x="2358.5" y="-117" font-family="Helvetica,sans-Serif" font-size="10.00">compat/assert.h</text>
</a>
</g>
</g>
<!-- Node5&#45;&gt;Node25 -->
<g id="edge24_Node000005_Node000025" class="edge">
<title>Node5&#45;&gt;Node25</title>
<g id="a_edge24_Node000005_Node000025"><a xlink:title=" ">
<path fill="none" stroke="#63b8ff" d="M1727.66,-171.19C1832.88,-166.16 2081.35,-152.78 2300.85,-128.98"/>
<polygon fill="#63b8ff" stroke="#63b8ff" points="2301.39,-132.44 2310.95,-127.87 2300.63,-125.48 2301.39,-132.44"/>
</a>
</g>
</g>
<!-- Node26 -->
<g id="Node000026" class="node">
<title>Node26</title>
<g id="a_Node000026"><a xlink:href="compat__shared_8h.html" target="_top" xlink:title=" ">
<polygon fill="white" stroke="#666666" points="2564.5,-129 2424.5,-129 2424.5,-110 2564.5,-110 2564.5,-129"/>
<text text-anchor="middle" x="2494.5" y="-117" font-family="Helvetica,sans-Serif" font-size="10.00">compat/compat_shared.h</text>
</a>
</g>
</g>
<!-- Node5&#45;&gt;Node26 -->
<g id="edge25_Node000005_Node000026" class="edge">
<title>Node5&#45;&gt;Node26</title>
<g id="a_edge25_Node000005_Node000026"><a xlink:title=" ">
<path fill="none" stroke="#63b8ff" d="M1727.63,-171.25C1846.25,-165.85 2149.58,-151.03 2414.12,-129.08"/>
<polygon fill="#63b8ff" stroke="#63b8ff" points="2414.63,-132.55 2424.31,-128.23 2414.05,-125.57 2414.63,-132.55"/>
</a>
</g>
</g>
<!-- Node36 -->
<g id="Node000036" class="node">
<title>Node36</title>
<g id="a_Node000036"><a xlink:href="stdvarargs_8h.html" target="_top" xlink:title=" ">
<polygon fill="white" stroke="#666666" points="2700,-129 2583,-129 2583,-110 2700,-110 2700,-129"/>
<text text-anchor="middle" x="2641.5" y="-117" font-family="Helvetica,sans-Serif" font-size="10.00">compat/stdvarargs.h</text>
</a>
</g>
</g>
<!-- Node5&#45;&gt;Node36 -->
<g id="edge35_Node000005_Node000036" class="edge">
<title>Node5&#45;&gt;Node36</title>
<g id="a_edge35_Node000005_Node000036"><a xlink:title=" ">
<path fill="none" stroke="#63b8ff" d="M1727.67,-172.3C1863.46,-168.83 2244.43,-157.24 2572.74,-128.99"/>
<polygon fill="#63b8ff" stroke="#63b8ff" points="2573.26,-132.46 2582.92,-128.1 2572.66,-125.48 2573.26,-132.46"/>
</a>
</g>
</g>
<!-- Node38 -->
<g id="Node000038" class="node">
<title>Node38</title>
<g id="a_Node000038"><a xlink:href="stdio_8h.html" target="_top" xlink:title=" ">
<polygon fill="white" stroke="#666666" points="2807,-129 2718,-129 2718,-110 2807,-110 2807,-129"/>
<text text-anchor="middle" x="2762.5" y="-117" font-family="Helvetica,sans-Serif" font-size="10.00">compat/stdio.h</text>
</a>
</g>
</g>
<!-- Node5&#45;&gt;Node38 -->
<g id="edge37_Node000005_Node000038" class="edge">
<title>Node5&#45;&gt;Node38</title>
<g id="a_edge37_Node000005_Node000038"><a xlink:title=" ">
<path fill="none" stroke="#63b8ff" d="M1727.71,-173.39C1877.19,-172.63 2326.03,-167.17 2707.59,-129.08"/>
<polygon fill="#63b8ff" stroke="#63b8ff" points="2708.13,-132.54 2717.73,-128.05 2707.43,-125.57 2708.13,-132.54"/>
</a>
</g>
</g>
<!-- Node40 -->
<g id="Node000040" class="node">
<title>Node40</title>
<g id="a_Node000040"><a xlink:href="statvfs_8h.html" target="_top" xlink:title=" ">
<polygon fill="white" stroke="#666666" points="2924,-129 2825,-129 2825,-110 2924,-110 2924,-129"/>
<text text-anchor="middle" x="2874.5" y="-117" font-family="Helvetica,sans-Serif" font-size="10.00">compat/statvfs.h</text>
</a>
</g>
</g>
<!-- Node5&#45;&gt;Node40 -->
<g id="edge39_Node000005_Node000040" class="edge">
<title>Node5&#45;&gt;Node40</title>
<g id="a_edge39_Node000005_Node000040"><a xlink:title=" ">
<path fill="none" stroke="#63b8ff" d="M1727.76,-173.44C1887.32,-172.85 2389.47,-167.86 2814.83,-129.05"/>
<polygon fill="#63b8ff" stroke="#63b8ff" points="2815.23,-132.53 2824.87,-128.13 2814.59,-125.56 2815.23,-132.53"/>
</a>
</g>
</g>
<!-- Node41 -->
<g id="Node000041" class="node">
<title>Node41</title>
<g id="a_Node000041"><a xlink:href="debug_8h.html" target="_top" xlink:title=" ">
<polygon fill="white" stroke="#666666" points="3037,-129 2942,-129 2942,-110 3037,-110 3037,-129"/>
<text text-anchor="middle" x="2989.5" y="-117" font-family="Helvetica,sans-Serif" font-size="10.00">compat/debug.h</text>
</a>
</g>
</g>
<!-- Node5&#45;&gt;Node41 -->
<g id="edge40_Node000005_Node000041" class="edge">
<title>Node5&#45;&gt;Node41</title>
<g id="a_edge40_Node000005_Node000041"><a xlink:title=" ">
<path fill="none" stroke="#63b8ff" d="M1727.52,-173.8C1897.27,-174.35 2458.56,-172.58 2931.78,-129.05"/>
<polygon fill="#63b8ff" stroke="#63b8ff" points="2932.25,-132.52 2941.89,-128.11 2931.61,-125.55 2932.25,-132.52"/>
</a>
</g>
</g>
<!-- Node42 -->
<g id="Node000042" class="node">
<title>Node42</title>
<g id="a_Node000042"><a xlink:href="valgrind_8h.html" target="_top" xlink:title=" ">
<polygon fill="white" stroke="#666666" points="3160,-129 3055,-129 3055,-110 3160,-110 3160,-129"/>
<text text-anchor="middle" x="3107.5" y="-117" font-family="Helvetica,sans-Serif" font-size="10.00">compat/valgrind.h</text>
</a>
</g>
</g>
<!-- Node5&#45;&gt;Node42 -->
<g id="edge41_Node000005_Node000042" class="edge">
<title>Node5&#45;&gt;Node42</title>
<g id="a_edge41_Node000005_Node000042"><a xlink:title=" ">
<path fill="none" stroke="#63b8ff" d="M1727.62,-173.79C1907.06,-174.39 2524.95,-173 3044.64,-129.06"/>
<polygon fill="#63b8ff" stroke="#63b8ff" points="3045.3,-132.52 3054.97,-128.18 3044.71,-125.54 3045.3,-132.52"/>
</a>
</g>
</g>
<!-- Node9 -->
<g id="Node000009" class="node">
<title>Node9</title>
<g id="a_Node000009"><a xlink:title=" ">
<polygon fill="#e0e0e0" stroke="#999999" points="324.5,-74 274.5,-74 274.5,-55 324.5,-55 324.5,-74"/>
<text text-anchor="middle" x="299.5" y="-62" font-family="Helvetica,sans-Serif" font-size="10.00">cstdint</text>
</a>
</g>
</g>
<!-- Node8&#45;&gt;Node9 -->
<g id="edge8_Node000008_Node000009" class="edge">
<title>Node8&#45;&gt;Node9</title>
<g id="a_edge8_Node000008_Node000009"><a xlink:title=" ">
<path fill="none" stroke="#63b8ff" d="M299.5,-109.75C299.5,-102.8 299.5,-92.85 299.5,-84.13"/>
<polygon fill="#63b8ff" stroke="#63b8ff" points="303,-84.09 299.5,-74.09 296,-84.09 303,-84.09"/>
</a>
</g>
</g>
<!-- Node27 -->
<g id="Node000027" class="node">
<title>Node27</title>
<g id="a_Node000027"><a xlink:title=" ">
<polygon fill="#e0e0e0" stroke="#999999" points="2031,-74 1980,-74 1980,-55 2031,-55 2031,-74"/>
<text text-anchor="middle" x="2005.5" y="-62" font-family="Helvetica,sans-Serif" font-size="10.00">csignal</text>
</a>
</g>
</g>
<!-- Node26&#45;&gt;Node27 -->
<g id="edge26_Node000026_Node000027" class="edge">
<title>Node26&#45;&gt;Node27</title>
<g id="a_edge26_Node000026_Node000027"><a xlink:title=" ">
<path fill="none" stroke="#63b8ff" d="M2424.29,-110.9C2421.32,-110.6 2418.38,-110.29 2415.5,-110 2251.75,-93.35 2206.7,-102.08 2041.08,-74.04"/>
<polygon fill="#63b8ff" stroke="#63b8ff" points="2041.48,-70.56 2031.03,-72.32 2040.3,-77.46 2041.48,-70.56"/>
</a>
</g>
</g>
<!-- Node28 -->
<g id="Node000028" class="node">
<title>Node28</title>
<g id="a_Node000028"><a xlink:href="xalloc_8h.html" target="_top" xlink:title=" ">
<polygon fill="white" stroke="#666666" points="2144,-74 2049,-74 2049,-55 2144,-55 2144,-74"/>
<text text-anchor="middle" x="2096.5" y="-62" font-family="Helvetica,sans-Serif" font-size="10.00">compat/xalloc.h</text>
</a>
</g>
</g>
<!-- Node26&#45;&gt;Node28 -->
<g id="edge27_Node000026_Node000028" class="edge">
<title>Node26&#45;&gt;Node28</title>
<g id="a_edge27_Node000026_Node000028"><a xlink:title=" ">
<path fill="none" stroke="#63b8ff" d="M2426.52,-110C2359.88,-101.58 2255.12,-88.13 2154.15,-74.07"/>
<polygon fill="#63b8ff" stroke="#63b8ff" points="2154.46,-70.58 2144.08,-72.66 2153.5,-77.51 2154.46,-70.58"/>
</a>
</g>
</g>
<!-- Node29 -->
<g id="Node000029" class="node">
<title>Node29</title>
<g id="a_Node000029"><a xlink:href="xis_8h.html" target="_top" xlink:title=" ">
<polygon fill="white" stroke="#666666" points="2242.5,-74 2162.5,-74 2162.5,-55 2242.5,-55 2242.5,-74"/>
<text text-anchor="middle" x="2202.5" y="-62" font-family="Helvetica,sans-Serif" font-size="10.00">compat/xis.h</text>
</a>
</g>
</g>
<!-- Node26&#45;&gt;Node29 -->
<g id="edge28_Node000026_Node000029" class="edge">
<title>Node26&#45;&gt;Node29</title>
<g id="a_edge28_Node000026_Node000029"><a xlink:title=" ">
<path fill="none" stroke="#63b8ff" d="M2447.59,-109.98C2394.27,-100.31 2307.59,-84.57 2252.88,-74.64"/>
<polygon fill="#63b8ff" stroke="#63b8ff" points="2253.18,-71.14 2242.72,-72.8 2251.93,-78.03 2253.18,-71.14"/>
</a>
</g>
</g>
<!-- Node31 -->
<g id="Node000031" class="node">
<title>Node31</title>
<g id="a_Node000031"><a xlink:href="xstrerror_8h.html" target="_top" xlink:title=" ">
<polygon fill="white" stroke="#666666" points="2368,-74 2261,-74 2261,-55 2368,-55 2368,-74"/>
<text text-anchor="middle" x="2314.5" y="-62" font-family="Helvetica,sans-Serif" font-size="10.00">compat/xstrerror.h</text>
</a>
</g>
</g>
<!-- Node26&#45;&gt;Node31 -->
<g id="edge30_Node000026_Node000031" class="edge">
<title>Node26&#45;&gt;Node31</title>
<g id="a_edge30_Node000026_Node000031"><a xlink:title=" ">
<path fill="none" stroke="#63b8ff" d="M2465.58,-109.98C2435.23,-101.05 2387.33,-86.94 2353.62,-77.02"/>
<polygon fill="#63b8ff" stroke="#63b8ff" points="2354.23,-73.55 2343.65,-74.08 2352.25,-80.26 2354.23,-73.55"/>
</a>
</g>
</g>
<!-- Node32 -->
<g id="Node000032" class="node">
<title>Node32</title>
<g id="a_Node000032"><a xlink:href="xstring_8h.html" target="_top" xlink:title=" ">
<polygon fill="white" stroke="#666666" points="2485,-74 2386,-74 2386,-55 2485,-55 2485,-74"/>
<text text-anchor="middle" x="2435.5" y="-62" font-family="Helvetica,sans-Serif" font-size="10.00">compat/xstring.h</text>
</a>
</g>
</g>
<!-- Node26&#45;&gt;Node32 -->
<g id="edge31_Node000026_Node000032" class="edge">
<title>Node26&#45;&gt;Node32</title>
<g id="a_edge31_Node000026_Node000032"><a xlink:title=" ">
<path fill="none" stroke="#63b8ff" d="M2485.02,-109.98C2476.3,-102.15 2463.16,-90.34 2452.6,-80.86"/>
<polygon fill="#63b8ff" stroke="#63b8ff" points="2454.93,-78.25 2445.15,-74.17 2450.25,-83.46 2454.93,-78.25"/>
</a>
</g>
</g>
<!-- Node33 -->
<g id="Node000033" class="node">
<title>Node33</title>
<g id="a_Node000033"><a xlink:href="xstrto_8h.html" target="_top" xlink:title=" ">
<polygon fill="white" stroke="#666666" points="2597.5,-74 2503.5,-74 2503.5,-55 2597.5,-55 2597.5,-74"/>
<text text-anchor="middle" x="2550.5" y="-62" font-family="Helvetica,sans-Serif" font-size="10.00">compat/xstrto.h</text>
</a>
</g>
</g>
<!-- Node26&#45;&gt;Node33 -->
<g id="edge32_Node000026_Node000033" class="edge">
<title>Node26&#45;&gt;Node33</title>
<g id="a_edge32_Node000026_Node000033"><a xlink:title=" ">
<path fill="none" stroke="#63b8ff" d="M2503.5,-109.98C2511.69,-102.23 2524.01,-90.58 2533.97,-81.14"/>
<polygon fill="#63b8ff" stroke="#63b8ff" points="2536.48,-83.59 2541.34,-74.17 2531.67,-78.5 2536.48,-83.59"/>
</a>
</g>
</g>
<!-- Node34 -->
<g id="Node000034" class="node">
<title>Node34</title>
<g id="a_Node000034"><a xlink:href="strtoll_8h.html" target="_top" xlink:title=" ">
<polygon fill="white" stroke="#666666" points="2709.5,-74 2615.5,-74 2615.5,-55 2709.5,-55 2709.5,-74"/>
<text text-anchor="middle" x="2662.5" y="-62" font-family="Helvetica,sans-Serif" font-size="10.00">compat/strtoll.h</text>
</a>
</g>
</g>
<!-- Node26&#45;&gt;Node34 -->
<g id="edge33_Node000026_Node000034" class="edge">
<title>Node26&#45;&gt;Node34</title>
<g id="a_edge33_Node000026_Node000034"><a xlink:title=" ">
<path fill="none" stroke="#63b8ff" d="M2521.49,-109.98C2549.7,-101.09 2594.14,-87.07 2625.58,-77.15"/>
<polygon fill="#63b8ff" stroke="#63b8ff" points="2626.81,-80.43 2635.3,-74.08 2624.71,-73.75 2626.81,-80.43"/>
</a>
</g>
</g>
<!-- Node35 -->
<g id="Node000035" class="node">
<title>Node35</title>
<g id="a_Node000035"><a xlink:href="memrchr_8h.html" target="_top" xlink:title=" ">
<polygon fill="white" stroke="#666666" points="2837,-74 2728,-74 2728,-55 2837,-55 2837,-74"/>
<text text-anchor="middle" x="2782.5" y="-62" font-family="Helvetica,sans-Serif" font-size="10.00">compat/memrchr.h</text>
</a>
</g>
</g>
<!-- Node26&#45;&gt;Node35 -->
<g id="edge34_Node000026_Node000035" class="edge">
<title>Node26&#45;&gt;Node35</title>
<g id="a_edge34_Node000026_Node000035"><a xlink:title=" ">
<path fill="none" stroke="#63b8ff" d="M2540.77,-109.98C2591.11,-100.72 2671.62,-85.9 2725.74,-75.94"/>
<polygon fill="#63b8ff" stroke="#63b8ff" points="2726.66,-79.33 2735.87,-74.08 2725.4,-72.45 2726.66,-79.33"/>
</a>
</g>
</g>
<!-- Node30 -->
<g id="Node000030" class="node">
<title>Node30</title>
<g id="a_Node000030"><a xlink:title=" ">
<polygon fill="#e0e0e0" stroke="#999999" points="2227,-19 2178,-19 2178,0 2227,0 2227,-19"/>
<text text-anchor="middle" x="2202.5" y="-7" font-family="Helvetica,sans-Serif" font-size="10.00">cctype</text>
</a>
</g>
</g>
<!-- Node29&#45;&gt;Node30 -->
<g id="edge29_Node000029_Node000030" class="edge">
<title>Node29&#45;&gt;Node30</title>
<g id="a_edge29_Node000029_Node000030"><a xlink:title=" ">
<path fill="none" stroke="#63b8ff" d="M2202.5,-54.75C2202.5,-47.8 2202.5,-37.85 2202.5,-29.13"/>
<polygon fill="#63b8ff" stroke="#63b8ff" points="2206,-29.09 2202.5,-19.09 2199,-29.09 2206,-29.09"/>
</a>
</g>
</g>
<!-- Node37 -->
<g id="Node000037" class="node">
<title>Node37</title>
<g id="a_Node000037"><a xlink:title=" ">
<polygon fill="#e0e0e0" stroke="#999999" points="2908,-74 2855,-74 2855,-55 2908,-55 2908,-74"/>
<text text-anchor="middle" x="2881.5" y="-62" font-family="Helvetica,sans-Serif" font-size="10.00">cstdarg</text>
</a>
</g>
</g>
<!-- Node36&#45;&gt;Node37 -->
<g id="edge36_Node000036_Node000037" class="edge">
<title>Node36&#45;&gt;Node37</title>
<g id="a_edge36_Node000036_Node000037"><a xlink:title=" ">
<path fill="none" stroke="#63b8ff" d="M2682.41,-109.93C2721.73,-101.62 2783.08,-88.48 2844.85,-74.34"/>
<polygon fill="#63b8ff" stroke="#63b8ff" points="2845.8,-77.71 2854.76,-72.06 2844.23,-70.89 2845.8,-77.71"/>
</a>
</g>
</g>
<!-- Node39 -->
<g id="Node000039" class="node">
<title>Node39</title>
<g id="a_Node000039"><a xlink:title=" ">
<polygon fill="#e0e0e0" stroke="#999999" points="2972.5,-74 2926.5,-74 2926.5,-55 2972.5,-55 2972.5,-74"/>
<text text-anchor="middle" x="2949.5" y="-62" font-family="Helvetica,sans-Serif" font-size="10.00">cstdio</text>
</a>
</g>
</g>
<!-- Node38&#45;&gt;Node39 -->
<g id="edge38_Node000038_Node000039" class="edge">
<title>Node38&#45;&gt;Node39</title>
<g id="a_edge38_Node000038_Node000039"><a xlink:title=" ">
<path fill="none" stroke="#63b8ff" d="M2792.54,-109.98C2826.47,-100.37 2881.49,-84.78 2916.56,-74.84"/>
<polygon fill="#63b8ff" stroke="#63b8ff" points="2917.66,-78.16 2926.32,-72.07 2915.75,-71.43 2917.66,-78.16"/>
</a>
</g>
</g>
<!-- Node43 -->
<g id="Node000043" class="node">
<title>Node43</title>
<g id="a_Node000043"><a xlink:title=" ">
<polygon fill="#e0e0e0" stroke="#999999" points="3168.5,-74 3046.5,-74 3046.5,-55 3168.5,-55 3168.5,-74"/>
<text text-anchor="middle" x="3107.5" y="-62" font-family="Helvetica,sans-Serif" font-size="10.00">valgrind/memcheck.h</text>
</a>
</g>
</g>
<!-- Node42&#45;&gt;Node43 -->
<g id="edge42_Node000042_Node000043" class="edge">
<title>Node42&#45;&gt;Node43</title>
<g id="a_edge42_Node000042_Node000043"><a xlink:title=" ">
<path fill="none" stroke="#63b8ff" d="M3107.5,-109.75C3107.5,-102.8 3107.5,-92.85 3107.5,-84.13"/>
<polygon fill="#63b8ff" stroke="#63b8ff" points="3111,-84.09 3107.5,-74.09 3104,-84.09 3111,-84.09"/>
</a>
</g>
</g>
<!-- Node45 -->
<g id="Node000045" class="node">
<title>Node45</title>
<g id="a_Node000045"><a xlink:href="base_2forward_8h.html" target="_top" xlink:title=" ">
<polygon fill="white" stroke="#666666" points="2523,-184 2434,-184 2434,-165 2523,-165 2523,-184"/>
<text text-anchor="middle" x="2478.5" y="-172" font-family="Helvetica,sans-Serif" font-size="10.00">base/forward.h</text>
</a>
</g>
</g>
<!-- Node44&#45;&gt;Node45 -->
<g id="edge44_Node000044_Node000045" class="edge">
<title>Node44&#45;&gt;Node45</title>
<g id="a_edge44_Node000044_Node000045"><a xlink:title=" ">
<path fill="none" stroke="#63b8ff" d="M2573.34,-219.98C2555.25,-211.5 2527.22,-198.35 2506.31,-188.54"/>
<polygon fill="#63b8ff" stroke="#63b8ff" points="2507.53,-185.25 2496.99,-184.17 2504.55,-191.59 2507.53,-185.25"/>
</a>
</g>
</g>
<!-- Node46 -->
<g id="Node000046" class="node">
<title>Node46</title>
<g id="a_Node000046"><a xlink:href="TypeTraits_8h.html" target="_top" xlink:title=" ">
<polygon fill="white" stroke="#666666" points="2642,-184 2541,-184 2541,-165 2642,-165 2642,-184"/>
<text text-anchor="middle" x="2591.5" y="-172" font-family="Helvetica,sans-Serif" font-size="10.00">base/TypeTraits.h</text>
</a>
</g>
</g>
<!-- Node44&#45;&gt;Node46 -->
<g id="edge45_Node000044_Node000046" class="edge">
<title>Node44&#45;&gt;Node46</title>
<g id="a_edge45_Node000044_Node000046"><a xlink:title=" ">
<path fill="none" stroke="#63b8ff" d="M2591.5,-219.75C2591.5,-212.8 2591.5,-202.85 2591.5,-194.13"/>
<polygon fill="#63b8ff" stroke="#63b8ff" points="2595,-194.09 2591.5,-184.09 2588,-194.09 2595,-194.09"/>
</a>
</g>
</g>
<!-- Node48 -->
<g id="Node000048" class="node">
<title>Node48</title>
<g id="a_Node000048"><a xlink:title=" ">
<polygon fill="#e0e0e0" stroke="#999999" points="2704.5,-184 2660.5,-184 2660.5,-165 2704.5,-165 2704.5,-184"/>
<text text-anchor="middle" x="2682.5" y="-172" font-family="Helvetica,sans-Serif" font-size="10.00">limits</text>
</a>
</g>
</g>
<!-- Node44&#45;&gt;Node48 -->
<g id="edge47_Node000044_Node000048" class="edge">
<title>Node44&#45;&gt;Node48</title>
<g id="a_edge47_Node000044_Node000048"><a xlink:title=" ">
<path fill="none" stroke="#63b8ff" d="M2606.12,-219.98C2620.36,-211.69 2642.25,-198.94 2658.95,-189.22"/>
<polygon fill="#63b8ff" stroke="#63b8ff" points="2660.73,-192.23 2667.61,-184.17 2657.21,-186.18 2660.73,-192.23"/>
</a>
</g>
</g>
<!-- Node49 -->
<g id="Node000049" class="node">
<title>Node49</title>
<g id="a_Node000049"><a xlink:title=" ">
<polygon fill="#e0e0e0" stroke="#999999" points="2778.5,-184 2722.5,-184 2722.5,-165 2778.5,-165 2778.5,-184"/>
<text text-anchor="middle" x="2750.5" y="-172" font-family="Helvetica,sans-Serif" font-size="10.00">optional</text>
</a>
</g>
</g>
<!-- Node44&#45;&gt;Node49 -->
<g id="edge48_Node000044_Node000049" class="edge">
<title>Node44&#45;&gt;Node49</title>
<g id="a_edge48_Node000044_Node000049"><a xlink:title=" ">
<path fill="none" stroke="#63b8ff" d="M2617.05,-219.98C2643.62,-211.13 2685.44,-197.19 2715.17,-187.28"/>
<polygon fill="#63b8ff" stroke="#63b8ff" points="2716.37,-190.56 2724.75,-184.08 2714.16,-183.92 2716.37,-190.56"/>
</a>
</g>
</g>
<!-- Node47 -->
<g id="Node000047" class="node">
<title>Node47</title>
<g id="a_Node000047"><a xlink:title=" ">
<polygon fill="#e0e0e0" stroke="#999999" points="3247,-129 3178,-129 3178,-110 3247,-110 3247,-129"/>
<text text-anchor="middle" x="3212.5" y="-117" font-family="Helvetica,sans-Serif" font-size="10.00">type_traits</text>
</a>
</g>
</g>
<!-- Node46&#45;&gt;Node47 -->
<g id="edge46_Node000046_Node000047" class="edge">
<title>Node46&#45;&gt;Node47</title>
<g id="a_edge46_Node000046_Node000047"><a xlink:title=" ">
<path fill="none" stroke="#63b8ff" d="M2642.21,-166.06C2645.35,-165.68 2648.47,-165.32 2651.5,-165 2877.76,-141.14 2939.01,-158.92 3167.86,-129.06"/>
<polygon fill="#63b8ff" stroke="#63b8ff" points="3168.37,-132.52 3177.83,-127.74 3167.46,-125.58 3168.37,-132.52"/>
</a>
</g>
</g>
</g>
</svg>

<g id="navigator" transform="translate(0 0)" fill="#404254">
  <rect fill="#f2f5e9" fill-opacity="0.5" stroke="#606060" stroke-width=".5" x="0" y="0" width="60" height="60"/>
  <use id="zoomplus" xlink:href="#zoomPlus" x="17" y="9" onmousedown="handleZoom(evt,'in')"/>
  <use id="zoomminus" xlink:href="#zoomMin" x="42" y="9" onmousedown="handleZoom(evt,'out')"/>
  <use id="reset" xlink:href="#resetDef" x="30" y="36" onmousedown="handleReset()"/>
   <use id="arrowup" xlink:href="#arrowUp" x="0" y="0" onmousedown="handlePan(0,-1)"/>
  <use id="arrowright" xlink:href="#arrowRight" x="0" y="0" onmousedown="handlePan(1,0)"/>
  <use id="arrowdown" xlink:href="#arrowDown" x="0" y="0" onmousedown="handlePan(0,1)"/>
  <use id="arrowleft" xlink:href="#arrowLeft" x="0" y="0" onmousedown="handlePan(-1,0)"/>
</g>
<svg viewBox="0 0 15 15" width="100%" height="30px" preserveAspectRatio="xMaxYMin meet">
 <g id="arrow_out" transform="scale(0.3 0.3)">
  <a xlink:href="SquidMath_8cc__incl_org.svg" target="_base">
   <rect id="button" ry="5" rx="5" y="6" x="6" height="38" width="38"
        fill="#f2f5e9" fill-opacity="0.5" stroke="#606060" stroke-width="1.0"/>
   <path id="arrow"
     d="M 11.500037,31.436501 C 11.940474,20.09759 22.043105,11.32322 32.158766,21.979434 L 37.068811,17.246167 C 37.068811,17.246167 37.088388,32 37.088388,32 L 22.160133,31.978069 C 22.160133,31.978069 26.997745,27.140456 26.997745,27.140456 C 18.528582,18.264221 13.291696,25.230495 11.500037,31.436501 z"
     style="fill:#404040;"/>
  </a>
 </g>
</svg>

<style type='text/css'>
<![CDATA[
[data-mouse-over-selected='false'] { opacity: 0.7; }
[data-mouse-over-selected='true']  { opacity: 1.0; }
]]>
</style>
<script type="application/ecmascript"><![CDATA[
document.addEventListener('DOMContentLoaded', (event) => {
  highlightEdges();
  highlightAdjacentNodes();
});
]]></script>
</svg>
