<?xml version="1.0" encoding="UTF-8" standalone="no"?>
<!DOCTYPE svg PUBLIC "-//W3C//DTD SVG 1.1//EN"
 "http://www.w3.org/Graphics/SVG/1.1/DTD/svg11.dtd">
<!-- Generated by graphviz version 2.43.0 (0)
 -->
<!-- Title: squid/src/ssl/Config.h Pages: 1 -->
<!--zoomable 93 -->

<svg id="main" version="1.1" xmlns="http://www.w3.org/2000/svg" xmlns:xlink="http://www.w3.org/1999/xlink" xml:space="preserve" onload="init(evt)">
<style type="text/css"><![CDATA[
.node, .edge {opacity: 0.7;}
.node.selected, .edge.selected {opacity: 1;}
.edge:hover path { stroke: red; }
.edge:hover polygon { stroke: red; fill: red; }
]]></style>

<defs>
  <circle id="rim" cx="0" cy="0" r="7"/>
  <circle id="rim2" cx="0" cy="0" r="3.5"/>
  <g id="zoomPlus">
    <use xlink:href="#rim" fill="#404040"><set attributeName="fill" to="#808080" begin="zoomplus.mouseover" end="zoomplus.mouseout"/></use>
    <path d="M-4,0h8M0,-4v8" fill="none" stroke="white" stroke-width="1.5" pointer-events="none"/>
  </g>
  <g id="zoomMin">
    <use xlink:href="#rim" fill="#404040"><set attributeName="fill" to="#808080" begin="zoomminus.mouseover" end="zoomminus.mouseout"/></use>
    <path d="M-4,0h8" fill="none" stroke="white" stroke-width="1.5" pointer-events="none"/>
  </g>
  <g id="arrowUp" transform="translate(30 24)">
    <use xlink:href="#rim"/>
    <path pointer-events="none" fill="none" stroke="white" stroke-width="1.5" d="M0,-3.0v7 M-2.5,-0.5L0,-3.0L2.5,-0.5"/>
  </g>
  <g id="arrowRight" transform="rotate(90) translate(36 -43)">
    <use xlink:href="#rim"/>
    <path pointer-events="none" fill="none" stroke="white" stroke-width="1.5" d="M0,-3.0v7 M-2.5,-0.5L0,-3.0L2.5,-0.5"/>
  </g>
  <g id="arrowDown" transform="rotate(180) translate(-30 -48)">
    <use xlink:href="#rim"/>
    <path pointer-events="none" fill="none" stroke="white" stroke-width="1.5" d="M0,-3.0v7 M-2.5,-0.5L0,-3.0L2.5,-0.5"/>
  </g>
  <g id="arrowLeft" transform="rotate(270) translate(-36 17)">
    <use xlink:href="#rim"/>
    <path pointer-events="none" fill="none" stroke="white" stroke-width="1.5" d="M0,-3.0v7 M-2.5,-0.5L0,-3.0L2.5,-0.5"/>
  </g>
  <g id="resetDef">
    <use xlink:href="#rim2" fill="#404040"><set attributeName="fill" to="#808080" begin="reset.mouseover" end="reset.mouseout"/></use>
  </g>
</defs>
<script type="application/ecmascript">
var viewWidth = 952;
var viewHeight = 93;
var sectionId = 'dynsection-1';
</script>
<script type="application/ecmascript" xlink:href="svg.min.js"/>
<svg id="graph" class="graph">
<g id="viewport">
<title>squid/src/ssl/Config.h</title>
<!-- Node1 -->
<g id="Node000001" class="node">
<title>Node1</title>
<g id="a_Node000001"><a xlink:title=" ">
<polygon fill="#999999" stroke="#666666" points="521.5,-85 402.5,-85 402.5,-66 521.5,-66 521.5,-85"/>
<text text-anchor="middle" x="462" y="-73" font-family="Helvetica,sans-Serif" font-size="10.00">squid/src/ssl/Config.h</text>
</a>
</g>
</g>
<!-- Node2 -->
<g id="Node000002" class="node">
<title>Node2</title>
<g id="a_Node000002"><a xlink:href="FwdState_8cc.html" target="_top" xlink:title=" ">
<polygon fill="white" stroke="#666666" points="122,-24.5 0,-24.5 0,-5.5 122,-5.5 122,-24.5"/>
<text text-anchor="middle" x="61" y="-12.5" font-family="Helvetica,sans-Serif" font-size="10.00">squid/src/FwdState.cc</text>
</a>
</g>
</g>
<!-- Node1&#45;&gt;Node2 -->
<g id="edge1_Node000001_Node000002" class="edge">
<title>Node1&#45;&gt;Node2</title>
<g id="a_edge1_Node000001_Node000002"><a xlink:title=" ">
<path fill="none" stroke="#63b8ff" d="M392.3,-66.44C325.18,-58.37 220.89,-45.02 131,-30 121.34,-28.39 110.98,-26.44 101.27,-24.51"/>
<polygon fill="#63b8ff" stroke="#63b8ff" points="391.99,-69.93 402.33,-67.64 392.82,-62.98 391.99,-69.93"/>
</a>
</g>
</g>
<!-- Node3 -->
<g id="Node000003" class="node">
<title>Node3</title>
<g id="a_Node000003"><a xlink:href="cache__cf_8cc.html" target="_top" xlink:title=" ">
<polygon fill="white" stroke="#666666" points="259.5,-24.5 140.5,-24.5 140.5,-5.5 259.5,-5.5 259.5,-24.5"/>
<text text-anchor="middle" x="200" y="-12.5" font-family="Helvetica,sans-Serif" font-size="10.00">squid/src/cache_cf.cc</text>
</a>
</g>
</g>
<!-- Node1&#45;&gt;Node3 -->
<g id="edge2_Node000001_Node000003" class="edge">
<title>Node1&#45;&gt;Node3</title>
<g id="a_edge2_Node000001_Node000003"><a xlink:title=" ">
<path fill="none" stroke="#63b8ff" d="M413.86,-63.75C363.25,-52.45 284.64,-34.9 238.14,-24.52"/>
<polygon fill="#63b8ff" stroke="#63b8ff" points="413.38,-67.23 423.9,-65.99 414.91,-60.4 413.38,-67.23"/>
</a>
</g>
</g>
<!-- Node4 -->
<g id="Node000004" class="node">
<title>Node4</title>
<g id="a_Node000004"><a xlink:href="PeerConnector_8cc.html" target="_top" xlink:title=" ">
<polygon fill="white" stroke="#666666" points="382,-30 278,-30 278,0 382,0 382,-30"/>
<text text-anchor="start" x="286" y="-18" font-family="Helvetica,sans-Serif" font-size="10.00">squid/src/security</text>
<text text-anchor="middle" x="330" y="-7" font-family="Helvetica,sans-Serif" font-size="10.00">/PeerConnector.cc</text>
</a>
</g>
</g>
<!-- Node1&#45;&gt;Node4 -->
<g id="edge3_Node000001_Node000004" class="edge">
<title>Node1&#45;&gt;Node4</title>
<g id="a_edge3_Node000001_Node000004"><a xlink:title=" ">
<path fill="none" stroke="#63b8ff" d="M433.41,-61.83C412.29,-52.47 383.56,-39.74 361.73,-30.06"/>
<polygon fill="#63b8ff" stroke="#63b8ff" points="432.25,-65.14 442.81,-65.99 435.08,-58.74 432.25,-65.14"/>
</a>
</g>
</g>
<!-- Node5 -->
<g id="Node000005" class="node">
<title>Node5</title>
<g id="a_Node000005"><a xlink:href="ssl_2Config_8cc.html" target="_top" xlink:title=" ">
<polygon fill="white" stroke="#666666" points="524,-24.5 400,-24.5 400,-5.5 524,-5.5 524,-24.5"/>
<text text-anchor="middle" x="462" y="-12.5" font-family="Helvetica,sans-Serif" font-size="10.00">squid/src/ssl/Config.cc</text>
</a>
</g>
</g>
<!-- Node1&#45;&gt;Node5 -->
<g id="edge4_Node000001_Node000005" class="edge">
<title>Node1&#45;&gt;Node5</title>
<g id="a_edge4_Node000001_Node000005"><a xlink:title=" ">
<path fill="none" stroke="#63b8ff" d="M462,-55.66C462,-45.24 462,-32.8 462,-24.67"/>
<polygon fill="#63b8ff" stroke="#63b8ff" points="458.5,-55.87 462,-65.87 465.5,-55.87 458.5,-55.87"/>
</a>
</g>
</g>
<!-- Node6 -->
<g id="Node000006" class="node">
<title>Node6</title>
<g id="a_Node000006"><a xlink:href="ssl_2helper_8cc.html" target="_top" xlink:title=" ">
<polygon fill="white" stroke="#666666" points="665.5,-24.5 542.5,-24.5 542.5,-5.5 665.5,-5.5 665.5,-24.5"/>
<text text-anchor="middle" x="604" y="-12.5" font-family="Helvetica,sans-Serif" font-size="10.00">squid/src/ssl/helper.cc</text>
</a>
</g>
</g>
<!-- Node1&#45;&gt;Node6 -->
<g id="edge5_Node000001_Node000006" class="edge">
<title>Node1&#45;&gt;Node6</title>
<g id="a_edge5_Node000001_Node000006"><a xlink:title=" ">
<path fill="none" stroke="#63b8ff" d="M492.14,-62.08C519.57,-50.78 559.34,-34.4 583.33,-24.52"/>
<polygon fill="#63b8ff" stroke="#63b8ff" points="490.56,-58.95 482.65,-65.99 493.23,-65.42 490.56,-58.95"/>
</a>
</g>
</g>
<!-- Node7 -->
<g id="Node000007" class="node">
<title>Node7</title>
<g id="a_Node000007"><a xlink:href="support_8cc.html" target="_top" xlink:title=" ">
<polygon fill="white" stroke="#666666" points="814,-24.5 684,-24.5 684,-5.5 814,-5.5 814,-24.5"/>
<text text-anchor="middle" x="749" y="-12.5" font-family="Helvetica,sans-Serif" font-size="10.00">squid/src/ssl/support.cc</text>
</a>
</g>
</g>
<!-- Node1&#45;&gt;Node7 -->
<g id="edge6_Node000001_Node000007" class="edge">
<title>Node1&#45;&gt;Node7</title>
<g id="a_edge6_Node000001_Node000007"><a xlink:title=" ">
<path fill="none" stroke="#63b8ff" d="M513.7,-63.96C569.1,-52.67 655.97,-34.96 707.22,-24.52"/>
<polygon fill="#63b8ff" stroke="#63b8ff" points="512.83,-60.57 503.73,-65.99 514.23,-67.43 512.83,-60.57"/>
</a>
</g>
</g>
<!-- Node8 -->
<g id="Node000008" class="node">
<title>Node8</title>
<g id="a_Node000008"><a xlink:href="stub__libsslsquid_8cc.html" target="_top" xlink:title=" ">
<polygon fill="white" stroke="#666666" points="943.5,-30 832.5,-30 832.5,0 943.5,0 943.5,-30"/>
<text text-anchor="start" x="840.5" y="-18" font-family="Helvetica,sans-Serif" font-size="10.00">squid/src/tests/stub</text>
<text text-anchor="middle" x="888" y="-7" font-family="Helvetica,sans-Serif" font-size="10.00">_libsslsquid.cc</text>
</a>
</g>
</g>
<!-- Node1&#45;&gt;Node8 -->
<g id="edge7_Node000001_Node000008" class="edge">
<title>Node1&#45;&gt;Node8</title>
<g id="a_edge7_Node000001_Node000008"><a xlink:title=" ">
<path fill="none" stroke="#63b8ff" d="M531.63,-67.79C604.53,-60.32 722.2,-47.03 823,-30 826.07,-29.48 829.22,-28.92 832.39,-28.32"/>
<polygon fill="#63b8ff" stroke="#63b8ff" points="531.24,-64.31 521.65,-68.8 531.95,-71.27 531.24,-64.31"/>
</a>
</g>
</g>
</g>
</svg>

<g id="navigator" transform="translate(0 0)" fill="#404254">
  <rect fill="#f2f5e9" fill-opacity="0.5" stroke="#606060" stroke-width=".5" x="0" y="0" width="60" height="60"/>
  <use id="zoomplus" xlink:href="#zoomPlus" x="17" y="9" onmousedown="handleZoom(evt,'in')"/>
  <use id="zoomminus" xlink:href="#zoomMin" x="42" y="9" onmousedown="handleZoom(evt,'out')"/>
  <use id="reset" xlink:href="#resetDef" x="30" y="36" onmousedown="handleReset()"/>
   <use id="arrowup" xlink:href="#arrowUp" x="0" y="0" onmousedown="handlePan(0,-1)"/>
  <use id="arrowright" xlink:href="#arrowRight" x="0" y="0" onmousedown="handlePan(1,0)"/>
  <use id="arrowdown" xlink:href="#arrowDown" x="0" y="0" onmousedown="handlePan(0,1)"/>
  <use id="arrowleft" xlink:href="#arrowLeft" x="0" y="0" onmousedown="handlePan(-1,0)"/>
</g>
<svg viewBox="0 0 15 15" width="100%" height="30px" preserveAspectRatio="xMaxYMin meet">
 <g id="arrow_out" transform="scale(0.3 0.3)">
  <a xlink:href="ssl_2Config_8h__dep__incl_org.svg" target="_base">
   <rect id="button" ry="5" rx="5" y="6" x="6" height="38" width="38"
        fill="#f2f5e9" fill-opacity="0.5" stroke="#606060" stroke-width="1.0"/>
   <path id="arrow"
     d="M 11.500037,31.436501 C 11.940474,20.09759 22.043105,11.32322 32.158766,21.979434 L 37.068811,17.246167 C 37.068811,17.246167 37.088388,32 37.088388,32 L 22.160133,31.978069 C 22.160133,31.978069 26.997745,27.140456 26.997745,27.140456 C 18.528582,18.264221 13.291696,25.230495 11.500037,31.436501 z"
     style="fill:#404040;"/>
  </a>
 </g>
</svg>

<style type='text/css'>
<![CDATA[
[data-mouse-over-selected='false'] { opacity: 0.7; }
[data-mouse-over-selected='true']  { opacity: 1.0; }
]]>
</style>
<script type="application/ecmascript"><![CDATA[
document.addEventListener('DOMContentLoaded', (event) => {
  highlightEdges();
  highlightAdjacentNodes();
});
]]></script>
</svg>
