<?xml version="1.0" encoding="UTF-8" standalone="no"?>
<!DOCTYPE svg PUBLIC "-//W3C//DTD SVG 1.1//EN"
 "http://www.w3.org/Graphics/SVG/1.1/DTD/svg11.dtd">
<!-- Generated by graphviz version 2.43.0 (0)
 -->
<!-- Title: squid/src/acl/SslError.cc Pages: 1 -->
<svg width="4079pt" height="467pt"
 viewBox="0.00 0.00 4079.00 467.00" xmlns="http://www.w3.org/2000/svg" xmlns:xlink="http://www.w3.org/1999/xlink">
<g id="graph0" class="graph" transform="scale(1 1) rotate(0) translate(4 463)">
<title>squid/src/acl/SslError.cc</title>
<!-- Node1 -->
<g id="Node000001" class="node">
<title>Node1</title>
<g id="a_Node000001"><a xlink:title=" ">
<polygon fill="#999999" stroke="#666666" points="3538,-459 3407,-459 3407,-440 3538,-440 3538,-459"/>
<text text-anchor="middle" x="3472.5" y="-447" font-family="Helvetica,sans-Serif" font-size="10.00">squid/src/acl/SslError.cc</text>
</a>
</g>
</g>
<!-- Node2 -->
<g id="Node000002" class="node">
<title>Node2</title>
<g id="a_Node000002"><a xlink:href="squid_8h.html" target="_top" xlink:title=" ">
<polygon fill="white" stroke="#666666" points="2467.5,-404 2415.5,-404 2415.5,-385 2467.5,-385 2467.5,-404"/>
<text text-anchor="middle" x="2441.5" y="-392" font-family="Helvetica,sans-Serif" font-size="10.00">squid.h</text>
</a>
</g>
</g>
<!-- Node1&#45;&gt;Node2 -->
<g id="edge1_Node000001_Node000002" class="edge">
<title>Node1&#45;&gt;Node2</title>
<g id="a_edge1_Node000001_Node000002"><a xlink:title=" ">
<path fill="none" stroke="#63b8ff" d="M3406.83,-445.12C3209.97,-435 2628.98,-405.14 2477.79,-397.37"/>
<polygon fill="#63b8ff" stroke="#63b8ff" points="2477.83,-393.86 2467.66,-396.84 2477.47,-400.85 2477.83,-393.86"/>
</a>
</g>
</g>
<!-- Node44 -->
<g id="Node000044" class="node">
<title>Node44</title>
<g id="a_Node000044"><a xlink:href="FilledChecklist_8h.html" target="_top" xlink:title=" ">
<polygon fill="white" stroke="#666666" points="3529.5,-404 3415.5,-404 3415.5,-385 3529.5,-385 3529.5,-404"/>
<text text-anchor="middle" x="3472.5" y="-392" font-family="Helvetica,sans-Serif" font-size="10.00">acl/FilledChecklist.h</text>
</a>
</g>
</g>
<!-- Node1&#45;&gt;Node44 -->
<g id="edge30_Node000001_Node000044" class="edge">
<title>Node1&#45;&gt;Node44</title>
<g id="a_edge30_Node000001_Node000044"><a xlink:title=" ">
<path fill="none" stroke="#63b8ff" d="M3472.5,-439.75C3472.5,-432.8 3472.5,-422.85 3472.5,-414.13"/>
<polygon fill="#63b8ff" stroke="#63b8ff" points="3476,-414.09 3472.5,-404.09 3469,-414.09 3476,-414.09"/>
</a>
</g>
</g>
<!-- Node202 -->
<g id="Node000202" class="node">
<title>Node202</title>
<g id="a_Node000202"><a xlink:href="SslError_8h.html" target="_top" xlink:title=" ">
<polygon fill="white" stroke="#666666" points="3889.5,-404 3809.5,-404 3809.5,-385 3889.5,-385 3889.5,-404"/>
<text text-anchor="middle" x="3849.5" y="-392" font-family="Helvetica,sans-Serif" font-size="10.00">acl/SslError.h</text>
</a>
</g>
</g>
<!-- Node1&#45;&gt;Node202 -->
<g id="edge61_Node000001_Node000202" class="edge">
<title>Node1&#45;&gt;Node202</title>
<g id="a_edge61_Node000001_Node000202"><a xlink:title=" ">
<path fill="none" stroke="#63b8ff" d="M3533.07,-439.98C3606.92,-429.6 3730.36,-412.25 3799.21,-402.57"/>
<polygon fill="#63b8ff" stroke="#63b8ff" points="3799.95,-406 3809.36,-401.14 3798.97,-399.07 3799.95,-406"/>
</a>
</g>
</g>
<!-- Node3 -->
<g id="Node000003" class="node">
<title>Node3</title>
<g id="a_Node000003"><a xlink:href="autoconf_8h.html" target="_top" xlink:title=" ">
<polygon fill="white" stroke="#666666" points="2433.5,-349 2365.5,-349 2365.5,-330 2433.5,-330 2433.5,-349"/>
<text text-anchor="middle" x="2399.5" y="-337" font-family="Helvetica,sans-Serif" font-size="10.00">autoconf.h</text>
</a>
</g>
</g>
<!-- Node2&#45;&gt;Node3 -->
<g id="edge2_Node000002_Node000003" class="edge">
<title>Node2&#45;&gt;Node3</title>
<g id="a_edge2_Node000002_Node000003"><a xlink:title=" ">
<path fill="none" stroke="#63b8ff" d="M2434.56,-384.75C2428.63,-377.26 2419.93,-366.28 2412.68,-357.13"/>
<polygon fill="#63b8ff" stroke="#63b8ff" points="2415.26,-354.75 2406.31,-349.09 2409.77,-359.1 2415.26,-354.75"/>
</a>
</g>
</g>
<!-- Node4 -->
<g id="Node000004" class="node">
<title>Node4</title>
<g id="a_Node000004"><a xlink:href="version_8h.html" target="_top" xlink:title=" ">
<polygon fill="white" stroke="#666666" points="2513.5,-349 2451.5,-349 2451.5,-330 2513.5,-330 2513.5,-349"/>
<text text-anchor="middle" x="2482.5" y="-337" font-family="Helvetica,sans-Serif" font-size="10.00">version.h</text>
</a>
</g>
</g>
<!-- Node2&#45;&gt;Node4 -->
<g id="edge3_Node000002_Node000004" class="edge">
<title>Node2&#45;&gt;Node4</title>
<g id="a_edge3_Node000002_Node000004"><a xlink:title=" ">
<path fill="none" stroke="#63b8ff" d="M2448.27,-384.75C2454.06,-377.26 2462.56,-366.28 2469.64,-357.13"/>
<polygon fill="#63b8ff" stroke="#63b8ff" points="2472.51,-359.14 2475.86,-349.09 2466.97,-354.86 2472.51,-359.14"/>
</a>
</g>
</g>
<!-- Node5 -->
<g id="Node000005" class="node">
<title>Node5</title>
<g id="a_Node000005"><a xlink:href="compat_8h.html" target="_top" xlink:title=" ">
<polygon fill="white" stroke="#666666" points="1701.5,-349 1599.5,-349 1599.5,-330 1701.5,-330 1701.5,-349"/>
<text text-anchor="middle" x="1650.5" y="-337" font-family="Helvetica,sans-Serif" font-size="10.00">compat/compat.h</text>
</a>
</g>
</g>
<!-- Node2&#45;&gt;Node5 -->
<g id="edge4_Node000002_Node000005" class="edge">
<title>Node2&#45;&gt;Node5</title>
<g id="a_edge4_Node000002_Node000005"><a xlink:title=" ">
<path fill="none" stroke="#63b8ff" d="M2415.18,-391.74C2304.23,-384.3 1872.91,-355.4 1711.73,-344.6"/>
<polygon fill="#63b8ff" stroke="#63b8ff" points="1711.72,-341.09 1701.51,-343.92 1711.25,-348.08 1711.72,-341.09"/>
</a>
</g>
</g>
<!-- Node6 -->
<g id="Node000006" class="node">
<title>Node6</title>
<g id="a_Node000006"><a xlink:href="osdetect_8h.html" target="_top" xlink:title=" ">
<polygon fill="white" stroke="#666666" points="1887,-294 1780,-294 1780,-275 1887,-275 1887,-294"/>
<text text-anchor="middle" x="1833.5" y="-282" font-family="Helvetica,sans-Serif" font-size="10.00">compat/osdetect.h</text>
</a>
</g>
</g>
<!-- Node5&#45;&gt;Node6 -->
<g id="edge5_Node000005_Node000006" class="edge">
<title>Node5&#45;&gt;Node6</title>
<g id="a_edge5_Node000005_Node000006"><a xlink:title=" ">
<path fill="none" stroke="#63b8ff" d="M1679.9,-329.98C1710.89,-321.01 1759.88,-306.82 1794.17,-296.89"/>
<polygon fill="#63b8ff" stroke="#63b8ff" points="1795.24,-300.23 1803.87,-294.08 1793.29,-293.5 1795.24,-300.23"/>
</a>
</g>
</g>
<!-- Node7 -->
<g id="Node000007" class="node">
<title>Node7</title>
<g id="a_Node000007"><a xlink:href="fdsetsize_8h.html" target="_top" xlink:title=" ">
<polygon fill="white" stroke="#666666" points="2015.5,-294 1905.5,-294 1905.5,-275 2015.5,-275 2015.5,-294"/>
<text text-anchor="middle" x="1960.5" y="-282" font-family="Helvetica,sans-Serif" font-size="10.00">compat/fdsetsize.h</text>
</a>
</g>
</g>
<!-- Node5&#45;&gt;Node7 -->
<g id="edge6_Node000005_Node000007" class="edge">
<title>Node5&#45;&gt;Node7</title>
<g id="a_edge6_Node000005_Node000007"><a xlink:title=" ">
<path fill="none" stroke="#63b8ff" d="M1700.31,-329.98C1754.8,-320.67 1842.13,-305.74 1900.39,-295.78"/>
<polygon fill="#63b8ff" stroke="#63b8ff" points="1901.29,-299.17 1910.56,-294.04 1900.11,-292.27 1901.29,-299.17"/>
</a>
</g>
</g>
<!-- Node8 -->
<g id="Node000008" class="node">
<title>Node8</title>
<g id="a_Node000008"><a xlink:href="types_8h.html" target="_top" xlink:title=" ">
<polygon fill="#fff0f0" stroke="red" points="2125.5,-294 2033.5,-294 2033.5,-275 2125.5,-275 2125.5,-294"/>
<text text-anchor="middle" x="2079.5" y="-282" font-family="Helvetica,sans-Serif" font-size="10.00">compat/types.h</text>
</a>
</g>
</g>
<!-- Node5&#45;&gt;Node8 -->
<g id="edge7_Node000005_Node000008" class="edge">
<title>Node5&#45;&gt;Node8</title>
<g id="a_edge7_Node000005_Node000008"><a xlink:title=" ">
<path fill="none" stroke="#63b8ff" d="M1701.69,-332.98C1771.82,-325.29 1901.98,-310.58 2023.11,-294.15"/>
<polygon fill="#63b8ff" stroke="#63b8ff" points="2023.87,-297.58 2033.3,-292.76 2022.92,-290.64 2023.87,-297.58"/>
</a>
</g>
</g>
<!-- Node10 -->
<g id="Node000010" class="node">
<title>Node10</title>
<g id="a_Node000010"><a xlink:href="aix_8h.html" target="_top" xlink:title=" ">
<polygon fill="white" stroke="#666666" points="2239,-294 2144,-294 2144,-275 2239,-275 2239,-294"/>
<text text-anchor="middle" x="2191.5" y="-282" font-family="Helvetica,sans-Serif" font-size="10.00">compat/os/aix.h</text>
</a>
</g>
</g>
<!-- Node5&#45;&gt;Node10 -->
<g id="edge8_Node000005_Node000010" class="edge">
<title>Node5&#45;&gt;Node10</title>
<g id="a_edge8_Node000005_Node000010"><a xlink:title=" ">
<path fill="none" stroke="#63b8ff" d="M1701.82,-334.74C1788.49,-328.17 1969.58,-313.56 2133.66,-294.03"/>
<polygon fill="#63b8ff" stroke="#63b8ff" points="2134.43,-297.46 2143.94,-292.8 2133.6,-290.51 2134.43,-297.46"/>
</a>
</g>
</g>
<!-- Node11 -->
<g id="Node000011" class="node">
<title>Node11</title>
<g id="a_Node000011"><a xlink:href="android_8h.html" target="_top" xlink:title=" ">
<polygon fill="white" stroke="#666666" points="2373.5,-294 2257.5,-294 2257.5,-275 2373.5,-275 2373.5,-294"/>
<text text-anchor="middle" x="2315.5" y="-282" font-family="Helvetica,sans-Serif" font-size="10.00">compat/os/android.h</text>
</a>
</g>
</g>
<!-- Node5&#45;&gt;Node11 -->
<g id="edge9_Node000005_Node000011" class="edge">
<title>Node5&#45;&gt;Node11</title>
<g id="a_edge9_Node000005_Node000011"><a xlink:title=" ">
<path fill="none" stroke="#63b8ff" d="M1701.68,-335.55C1803.34,-329.5 2038.1,-314.6 2247.04,-293.99"/>
<polygon fill="#63b8ff" stroke="#63b8ff" points="2247.68,-297.44 2257.28,-292.97 2246.99,-290.48 2247.68,-297.44"/>
</a>
</g>
</g>
<!-- Node12 -->
<g id="Node000012" class="node">
<title>Node12</title>
<g id="a_Node000012"><a xlink:href="dragonfly_8h.html" target="_top" xlink:title=" ">
<polygon fill="white" stroke="#666666" points="2515.5,-294 2391.5,-294 2391.5,-275 2515.5,-275 2515.5,-294"/>
<text text-anchor="middle" x="2453.5" y="-282" font-family="Helvetica,sans-Serif" font-size="10.00">compat/os/dragonfly.h</text>
</a>
</g>
</g>
<!-- Node5&#45;&gt;Node12 -->
<g id="edge10_Node000005_Node000012" class="edge">
<title>Node5&#45;&gt;Node12</title>
<g id="a_edge10_Node000005_Node000012"><a xlink:title=" ">
<path fill="none" stroke="#63b8ff" d="M1701.61,-336.42C1819.45,-331.41 2119.56,-317.38 2381.11,-294.07"/>
<polygon fill="#63b8ff" stroke="#63b8ff" points="2381.54,-297.55 2391.18,-293.17 2380.91,-290.58 2381.54,-297.55"/>
</a>
</g>
</g>
<!-- Node13 -->
<g id="Node000013" class="node">
<title>Node13</title>
<g id="a_Node000013"><a xlink:href="freebsd_8h.html" target="_top" xlink:title=" ">
<polygon fill="white" stroke="#666666" points="2649.5,-294 2533.5,-294 2533.5,-275 2649.5,-275 2649.5,-294"/>
<text text-anchor="middle" x="2591.5" y="-282" font-family="Helvetica,sans-Serif" font-size="10.00">compat/os/freebsd.h</text>
</a>
</g>
</g>
<!-- Node5&#45;&gt;Node13 -->
<g id="edge11_Node000005_Node000013" class="edge">
<title>Node5&#45;&gt;Node13</title>
<g id="a_edge11_Node000005_Node000013"><a xlink:title=" ">
<path fill="none" stroke="#63b8ff" d="M1701.82,-337.24C1835.34,-333.66 2204.7,-321.93 2523.07,-294.05"/>
<polygon fill="#63b8ff" stroke="#63b8ff" points="2523.77,-297.51 2533.42,-293.14 2523.16,-290.53 2523.77,-297.51"/>
</a>
</g>
</g>
<!-- Node14 -->
<g id="Node000014" class="node">
<title>Node14</title>
<g id="a_Node000014"><a xlink:href="hpux_8h.html" target="_top" xlink:title=" ">
<polygon fill="white" stroke="#666666" points="2771.5,-294 2667.5,-294 2667.5,-275 2771.5,-275 2771.5,-294"/>
<text text-anchor="middle" x="2719.5" y="-282" font-family="Helvetica,sans-Serif" font-size="10.00">compat/os/hpux.h</text>
</a>
</g>
</g>
<!-- Node5&#45;&gt;Node14 -->
<g id="edge12_Node000005_Node000014" class="edge">
<title>Node5&#45;&gt;Node14</title>
<g id="a_edge12_Node000005_Node000014"><a xlink:title=" ">
<path fill="none" stroke="#63b8ff" d="M1701.75,-337.94C1848.8,-335.98 2284.85,-327.63 2657.13,-294.03"/>
<polygon fill="#63b8ff" stroke="#63b8ff" points="2657.65,-297.5 2667.29,-293.1 2657.02,-290.53 2657.65,-297.5"/>
</a>
</g>
</g>
<!-- Node15 -->
<g id="Node000015" class="node">
<title>Node15</title>
<g id="a_Node000015"><a xlink:href="linux_8h.html" target="_top" xlink:title=" ">
<polygon fill="white" stroke="#666666" points="2893.5,-294 2789.5,-294 2789.5,-275 2893.5,-275 2893.5,-294"/>
<text text-anchor="middle" x="2841.5" y="-282" font-family="Helvetica,sans-Serif" font-size="10.00">compat/os/linux.h</text>
</a>
</g>
</g>
<!-- Node5&#45;&gt;Node15 -->
<g id="edge13_Node000005_Node000015" class="edge">
<title>Node5&#45;&gt;Node15</title>
<g id="a_edge13_Node000005_Node000015"><a xlink:title=" ">
<path fill="none" stroke="#63b8ff" d="M1701.58,-338.29C1859.98,-337.25 2357.09,-331.12 2779.03,-294.03"/>
<polygon fill="#63b8ff" stroke="#63b8ff" points="2779.64,-297.49 2789.3,-293.12 2779.03,-290.52 2779.64,-297.49"/>
</a>
</g>
</g>
<!-- Node16 -->
<g id="Node000016" class="node">
<title>Node16</title>
<g id="a_Node000016"><a xlink:href="macosx_8h.html" target="_top" xlink:title=" ">
<polygon fill="white" stroke="#666666" points="3029.5,-294 2911.5,-294 2911.5,-275 3029.5,-275 3029.5,-294"/>
<text text-anchor="middle" x="2970.5" y="-282" font-family="Helvetica,sans-Serif" font-size="10.00">compat/os/macosx.h</text>
</a>
</g>
</g>
<!-- Node5&#45;&gt;Node16 -->
<g id="edge14_Node000005_Node000016" class="edge">
<title>Node5&#45;&gt;Node16</title>
<g id="a_edge14_Node000005_Node000016"><a xlink:title=" ">
<path fill="none" stroke="#63b8ff" d="M1701.58,-338.31C1870.88,-337.33 2429.2,-331.36 2901.11,-294.03"/>
<polygon fill="#63b8ff" stroke="#63b8ff" points="2901.5,-297.51 2911.19,-293.23 2900.95,-290.53 2901.5,-297.51"/>
</a>
</g>
</g>
<!-- Node17 -->
<g id="Node000017" class="node">
<title>Node17</title>
<g id="a_Node000017"><a xlink:href="mingw_8h.html" target="_top" xlink:title=" ">
<polygon fill="white" stroke="#666666" points="3159.5,-294 3047.5,-294 3047.5,-275 3159.5,-275 3159.5,-294"/>
<text text-anchor="middle" x="3103.5" y="-282" font-family="Helvetica,sans-Serif" font-size="10.00">compat/os/mingw.h</text>
</a>
</g>
</g>
<!-- Node5&#45;&gt;Node17 -->
<g id="edge15_Node000005_Node000017" class="edge">
<title>Node5&#45;&gt;Node17</title>
<g id="a_edge15_Node000005_Node000017"><a xlink:title=" ">
<path fill="none" stroke="#63b8ff" d="M1701.65,-338.67C1882.62,-338.87 2509.61,-336.34 3037.07,-294.03"/>
<polygon fill="#63b8ff" stroke="#63b8ff" points="3037.48,-297.5 3047.17,-293.21 3036.92,-290.53 3037.48,-297.5"/>
</a>
</g>
</g>
<!-- Node18 -->
<g id="Node000018" class="node">
<title>Node18</title>
<g id="a_Node000018"><a xlink:href="mswindows_8h.html" target="_top" xlink:title=" ">
<polygon fill="white" stroke="#666666" points="137,-294 0,-294 0,-275 137,-275 137,-294"/>
<text text-anchor="middle" x="68.5" y="-282" font-family="Helvetica,sans-Serif" font-size="10.00">compat/os/mswindows.h</text>
</a>
</g>
</g>
<!-- Node5&#45;&gt;Node18 -->
<g id="edge16_Node000005_Node000018" class="edge">
<title>Node5&#45;&gt;Node18</title>
<g id="a_edge16_Node000005_Node000018"><a xlink:title=" ">
<path fill="none" stroke="#63b8ff" d="M1599.43,-338.48C1409.13,-338.08 723.05,-333.83 147.49,-294.08"/>
<polygon fill="#63b8ff" stroke="#63b8ff" points="147.54,-290.58 137.32,-293.37 147.06,-297.56 147.54,-290.58"/>
</a>
</g>
</g>
<!-- Node19 -->
<g id="Node000019" class="node">
<title>Node19</title>
<g id="a_Node000019"><a xlink:href="netbsd_8h.html" target="_top" xlink:title=" ">
<polygon fill="white" stroke="#666666" points="268,-294 155,-294 155,-275 268,-275 268,-294"/>
<text text-anchor="middle" x="211.5" y="-282" font-family="Helvetica,sans-Serif" font-size="10.00">compat/os/netbsd.h</text>
</a>
</g>
</g>
<!-- Node5&#45;&gt;Node19 -->
<g id="edge17_Node000005_Node000019" class="edge">
<title>Node5&#45;&gt;Node19</title>
<g id="a_edge17_Node000005_Node000019"><a xlink:title=" ">
<path fill="none" stroke="#63b8ff" d="M1599.24,-338.64C1419.28,-338.76 799.45,-335.95 278.16,-294.05"/>
<polygon fill="#63b8ff" stroke="#63b8ff" points="278.44,-290.56 268.19,-293.24 277.87,-297.54 278.44,-290.56"/>
</a>
</g>
</g>
<!-- Node20 -->
<g id="Node000020" class="node">
<title>Node20</title>
<g id="a_Node000020"><a xlink:href="openbsd_8h.html" target="_top" xlink:title=" ">
<polygon fill="white" stroke="#666666" points="407,-294 286,-294 286,-275 407,-275 407,-294"/>
<text text-anchor="middle" x="346.5" y="-282" font-family="Helvetica,sans-Serif" font-size="10.00">compat/os/openbsd.h</text>
</a>
</g>
</g>
<!-- Node5&#45;&gt;Node20 -->
<g id="edge18_Node000005_Node000020" class="edge">
<title>Node5&#45;&gt;Node20</title>
<g id="a_edge18_Node000005_Node000020"><a xlink:title=" ">
<path fill="none" stroke="#63b8ff" d="M1599.23,-338.24C1431.23,-337.05 881.85,-330.51 417.32,-294.07"/>
<polygon fill="#63b8ff" stroke="#63b8ff" points="417.3,-290.56 407.05,-293.26 416.75,-297.54 417.3,-290.56"/>
</a>
</g>
</g>
<!-- Node21 -->
<g id="Node000021" class="node">
<title>Node21</title>
<g id="a_Node000021"><a xlink:href="os2_8h.html" target="_top" xlink:title=" ">
<polygon fill="white" stroke="#666666" points="522,-294 425,-294 425,-275 522,-275 522,-294"/>
<text text-anchor="middle" x="473.5" y="-282" font-family="Helvetica,sans-Serif" font-size="10.00">compat/os/os2.h</text>
</a>
</g>
</g>
<!-- Node5&#45;&gt;Node21 -->
<g id="edge19_Node000005_Node000021" class="edge">
<title>Node5&#45;&gt;Node21</title>
<g id="a_edge19_Node000005_Node000021"><a xlink:title=" ">
<path fill="none" stroke="#63b8ff" d="M1599.35,-338.39C1441.85,-337.64 950.16,-332.24 532.35,-293.96"/>
<polygon fill="#63b8ff" stroke="#63b8ff" points="532.47,-290.45 522.19,-293.02 531.82,-297.42 532.47,-290.45"/>
</a>
</g>
</g>
<!-- Node22 -->
<g id="Node000022" class="node">
<title>Node22</title>
<g id="a_Node000022"><a xlink:href="qnx_8h.html" target="_top" xlink:title=" ">
<polygon fill="white" stroke="#666666" points="638.5,-294 540.5,-294 540.5,-275 638.5,-275 638.5,-294"/>
<text text-anchor="middle" x="589.5" y="-282" font-family="Helvetica,sans-Serif" font-size="10.00">compat/os/qnx.h</text>
</a>
</g>
</g>
<!-- Node5&#45;&gt;Node22 -->
<g id="edge20_Node000005_Node000022" class="edge">
<title>Node5&#45;&gt;Node22</title>
<g id="a_edge20_Node000005_Node000022"><a xlink:title=" ">
<path fill="none" stroke="#63b8ff" d="M1599.49,-338.06C1453.14,-336.4 1019.17,-328.77 648.62,-294"/>
<polygon fill="#63b8ff" stroke="#63b8ff" points="648.79,-290.5 638.51,-293.04 648.13,-297.46 648.79,-290.5"/>
</a>
</g>
</g>
<!-- Node23 -->
<g id="Node000023" class="node">
<title>Node23</title>
<g id="a_Node000023"><a xlink:href="solaris_8h.html" target="_top" xlink:title=" ">
<polygon fill="white" stroke="#666666" points="768.5,-294 656.5,-294 656.5,-275 768.5,-275 768.5,-294"/>
<text text-anchor="middle" x="712.5" y="-282" font-family="Helvetica,sans-Serif" font-size="10.00">compat/os/solaris.h</text>
</a>
</g>
</g>
<!-- Node5&#45;&gt;Node23 -->
<g id="edge21_Node000005_Node000023" class="edge">
<title>Node5&#45;&gt;Node23</title>
<g id="a_edge21_Node000005_Node000023"><a xlink:title=" ">
<path fill="none" stroke="#63b8ff" d="M1599.23,-337.3C1465.85,-333.89 1096.89,-322.5 779.17,-294.08"/>
<polygon fill="#63b8ff" stroke="#63b8ff" points="779.11,-290.56 768.84,-293.14 778.49,-297.53 779.11,-290.56"/>
</a>
</g>
</g>
<!-- Node24 -->
<g id="Node000024" class="node">
<title>Node24</title>
<g id="a_Node000024"><a xlink:href="sunos_8h.html" target="_top" xlink:title=" ">
<polygon fill="white" stroke="#666666" points="894.5,-294 786.5,-294 786.5,-275 894.5,-275 894.5,-294"/>
<text text-anchor="middle" x="840.5" y="-282" font-family="Helvetica,sans-Serif" font-size="10.00">compat/os/sunos.h</text>
</a>
</g>
</g>
<!-- Node5&#45;&gt;Node24 -->
<g id="edge22_Node000005_Node000024" class="edge">
<title>Node5&#45;&gt;Node24</title>
<g id="a_edge22_Node000005_Node000024"><a xlink:title=" ">
<path fill="none" stroke="#63b8ff" d="M1599.23,-336.76C1479.55,-332.43 1172.31,-319.66 905.06,-294.08"/>
<polygon fill="#63b8ff" stroke="#63b8ff" points="905.06,-290.56 894.77,-293.08 904.38,-297.53 905.06,-290.56"/>
</a>
</g>
</g>
<!-- Node25 -->
<g id="Node000025" class="node">
<title>Node25</title>
<g id="a_Node000025"><a xlink:href="assert_8h.html" target="_top" xlink:title=" ">
<polygon fill="white" stroke="#666666" points="1008,-294 913,-294 913,-275 1008,-275 1008,-294"/>
<text text-anchor="middle" x="960.5" y="-282" font-family="Helvetica,sans-Serif" font-size="10.00">compat/assert.h</text>
</a>
</g>
</g>
<!-- Node5&#45;&gt;Node25 -->
<g id="edge23_Node000005_Node000025" class="edge">
<title>Node5&#45;&gt;Node25</title>
<g id="a_edge23_Node000005_Node000025"><a xlink:title=" ">
<path fill="none" stroke="#63b8ff" d="M1599.1,-336.25C1492.77,-331.29 1240.75,-318.01 1018.29,-293.99"/>
<polygon fill="#63b8ff" stroke="#63b8ff" points="1018.37,-290.48 1008.05,-292.87 1017.61,-297.44 1018.37,-290.48"/>
</a>
</g>
</g>
<!-- Node26 -->
<g id="Node000026" class="node">
<title>Node26</title>
<g id="a_Node000026"><a xlink:href="compat__shared_8h.html" target="_top" xlink:title=" ">
<polygon fill="#fff0f0" stroke="red" points="1166.5,-294 1026.5,-294 1026.5,-275 1166.5,-275 1166.5,-294"/>
<text text-anchor="middle" x="1096.5" y="-282" font-family="Helvetica,sans-Serif" font-size="10.00">compat/compat_shared.h</text>
</a>
</g>
</g>
<!-- Node5&#45;&gt;Node26 -->
<g id="edge24_Node000005_Node000026" class="edge">
<title>Node5&#45;&gt;Node26</title>
<g id="a_edge24_Node000005_Node000026"><a xlink:title=" ">
<path fill="none" stroke="#63b8ff" d="M1599.17,-333.92C1513.81,-326.26 1337.05,-310.19 1176.75,-294.11"/>
<polygon fill="#63b8ff" stroke="#63b8ff" points="1177.01,-290.62 1166.71,-293.1 1176.31,-297.59 1177.01,-290.62"/>
</a>
</g>
</g>
<!-- Node36 -->
<g id="Node000036" class="node">
<title>Node36</title>
<g id="a_Node000036"><a xlink:href="stdvarargs_8h.html" target="_top" xlink:title=" ">
<polygon fill="#fff0f0" stroke="red" points="1302,-294 1185,-294 1185,-275 1302,-275 1302,-294"/>
<text text-anchor="middle" x="1243.5" y="-282" font-family="Helvetica,sans-Serif" font-size="10.00">compat/stdvarargs.h</text>
</a>
</g>
</g>
<!-- Node5&#45;&gt;Node36 -->
<g id="edge25_Node000005_Node000036" class="edge">
<title>Node5&#45;&gt;Node36</title>
<g id="a_edge25_Node000005_Node000036"><a xlink:title=" ">
<path fill="none" stroke="#63b8ff" d="M1599.37,-331.84C1526.78,-322.39 1393.7,-305.06 1312.45,-294.48"/>
<polygon fill="#63b8ff" stroke="#63b8ff" points="1312.69,-290.98 1302.32,-293.16 1311.79,-297.92 1312.69,-290.98"/>
</a>
</g>
</g>
<!-- Node38 -->
<g id="Node000038" class="node">
<title>Node38</title>
<g id="a_Node000038"><a xlink:href="stdio_8h.html" target="_top" xlink:title=" ">
<polygon fill="#fff0f0" stroke="red" points="1409,-294 1320,-294 1320,-275 1409,-275 1409,-294"/>
<text text-anchor="middle" x="1364.5" y="-282" font-family="Helvetica,sans-Serif" font-size="10.00">compat/stdio.h</text>
</a>
</g>
</g>
<!-- Node5&#45;&gt;Node38 -->
<g id="edge26_Node000005_Node000038" class="edge">
<title>Node5&#45;&gt;Node38</title>
<g id="a_edge26_Node000005_Node000038"><a xlink:title=" ">
<path fill="none" stroke="#63b8ff" d="M1604.55,-329.98C1554.11,-320.64 1473.18,-305.64 1419.43,-295.68"/>
<polygon fill="#63b8ff" stroke="#63b8ff" points="1419.86,-292.2 1409.39,-293.82 1418.59,-299.08 1419.86,-292.2"/>
</a>
</g>
</g>
<!-- Node40 -->
<g id="Node000040" class="node">
<title>Node40</title>
<g id="a_Node000040"><a xlink:href="statvfs_8h.html" target="_top" xlink:title=" ">
<polygon fill="white" stroke="#666666" points="1526,-294 1427,-294 1427,-275 1526,-275 1526,-294"/>
<text text-anchor="middle" x="1476.5" y="-282" font-family="Helvetica,sans-Serif" font-size="10.00">compat/statvfs.h</text>
</a>
</g>
</g>
<!-- Node5&#45;&gt;Node40 -->
<g id="edge27_Node000005_Node000040" class="edge">
<title>Node5&#45;&gt;Node40</title>
<g id="a_edge27_Node000005_Node000040"><a xlink:title=" ">
<path fill="none" stroke="#63b8ff" d="M1622.54,-329.98C1593.2,-321.05 1546.9,-306.94 1514.31,-297.02"/>
<polygon fill="#63b8ff" stroke="#63b8ff" points="1515.26,-293.65 1504.68,-294.08 1513.22,-300.34 1515.26,-293.65"/>
</a>
</g>
</g>
<!-- Node41 -->
<g id="Node000041" class="node">
<title>Node41</title>
<g id="a_Node000041"><a xlink:href="debug_8h.html" target="_top" xlink:title=" ">
<polygon fill="white" stroke="#666666" points="1639,-294 1544,-294 1544,-275 1639,-275 1639,-294"/>
<text text-anchor="middle" x="1591.5" y="-282" font-family="Helvetica,sans-Serif" font-size="10.00">compat/debug.h</text>
</a>
</g>
</g>
<!-- Node5&#45;&gt;Node41 -->
<g id="edge28_Node000005_Node000041" class="edge">
<title>Node5&#45;&gt;Node41</title>
<g id="a_edge28_Node000005_Node000041"><a xlink:title=" ">
<path fill="none" stroke="#63b8ff" d="M1641.02,-329.98C1632.3,-322.15 1619.16,-310.34 1608.6,-300.86"/>
<polygon fill="#63b8ff" stroke="#63b8ff" points="1610.93,-298.25 1601.15,-294.17 1606.25,-303.46 1610.93,-298.25"/>
</a>
</g>
</g>
<!-- Node42 -->
<g id="Node000042" class="node">
<title>Node42</title>
<g id="a_Node000042"><a xlink:href="valgrind_8h.html" target="_top" xlink:title=" ">
<polygon fill="#fff0f0" stroke="red" points="1762,-294 1657,-294 1657,-275 1762,-275 1762,-294"/>
<text text-anchor="middle" x="1709.5" y="-282" font-family="Helvetica,sans-Serif" font-size="10.00">compat/valgrind.h</text>
</a>
</g>
</g>
<!-- Node5&#45;&gt;Node42 -->
<g id="edge29_Node000005_Node000042" class="edge">
<title>Node5&#45;&gt;Node42</title>
<g id="a_edge29_Node000005_Node000042"><a xlink:title=" ">
<path fill="none" stroke="#63b8ff" d="M1659.98,-329.98C1668.7,-322.15 1681.84,-310.34 1692.4,-300.86"/>
<polygon fill="#63b8ff" stroke="#63b8ff" points="1694.75,-303.46 1699.85,-294.17 1690.07,-298.25 1694.75,-303.46"/>
</a>
</g>
</g>
<!-- Node45 -->
<g id="Node000045" class="node">
<title>Node45</title>
<g id="a_Node000045"><a xlink:href="AccessLogEntry_8h.html" target="_top" xlink:title=" ">
<polygon fill="#fff0f0" stroke="red" points="3365,-184 3264,-184 3264,-165 3365,-165 3365,-184"/>
<text text-anchor="middle" x="3314.5" y="-172" font-family="Helvetica,sans-Serif" font-size="10.00">AccessLogEntry.h</text>
</a>
</g>
</g>
<!-- Node44&#45;&gt;Node45 -->
<g id="edge31_Node000044_Node000045" class="edge">
<title>Node44&#45;&gt;Node45</title>
<g id="a_edge31_Node000044_Node000045"><a xlink:title=" ">
<path fill="none" stroke="#63b8ff" d="M3415.46,-389.41C3354.07,-383.89 3261.7,-371.98 3235.5,-349 3191.32,-310.25 3173.81,-268.83 3206.5,-220 3217.5,-203.57 3235.79,-193.2 3254.22,-186.66"/>
<polygon fill="#63b8ff" stroke="#63b8ff" points="3255.38,-189.96 3263.83,-183.57 3253.24,-183.3 3255.38,-189.96"/>
</a>
</g>
</g>
<!-- Node69 -->
<g id="Node000069" class="node">
<title>Node69</title>
<g id="a_Node000069"><a xlink:href="ip_2Address_8h.html" target="_top" xlink:title=" ">
<polygon fill="#fff0f0" stroke="red" points="3424,-19 3347,-19 3347,0 3424,0 3424,-19"/>
<text text-anchor="middle" x="3385.5" y="-7" font-family="Helvetica,sans-Serif" font-size="10.00">ip/Address.h</text>
</a>
</g>
</g>
<!-- Node44&#45;&gt;Node69 -->
<g id="edge57_Node000044_Node000069" class="edge">
<title>Node44&#45;&gt;Node69</title>
<g id="a_edge57_Node000044_Node000069"><a xlink:title=" ">
<path fill="none" stroke="#63b8ff" d="M3525.83,-384.93C3579.22,-372.96 3653.5,-345.51 3653.5,-285.5 3653.5,-285.5 3653.5,-285.5 3653.5,-118.5 3653.5,-76.17 3620.13,-74.4 3582.5,-55 3535.52,-30.79 3475.57,-19.66 3434.21,-14.6"/>
<polygon fill="#63b8ff" stroke="#63b8ff" points="3434.45,-11.11 3424.11,-13.44 3433.65,-18.06 3434.45,-11.11"/>
</a>
</g>
</g>
<!-- Node130 -->
<g id="Node000130" class="node">
<title>Node130</title>
<g id="a_Node000130"><a xlink:href="error_2forward_8h.html" target="_top" xlink:title=" ">
<polygon fill="#fff0f0" stroke="red" points="3574,-74 3485,-74 3485,-55 3574,-55 3574,-74"/>
<text text-anchor="middle" x="3529.5" y="-62" font-family="Helvetica,sans-Serif" font-size="10.00">error/forward.h</text>
</a>
</g>
</g>
<!-- Node44&#45;&gt;Node130 -->
<g id="edge48_Node000044_Node000130" class="edge">
<title>Node44&#45;&gt;Node130</title>
<g id="a_edge48_Node000044_Node000130"><a xlink:title=" ">
<path fill="none" stroke="#63b8ff" d="M3504.24,-384.95C3546.37,-371.46 3615.5,-340.88 3615.5,-285.5 3615.5,-285.5 3615.5,-285.5 3615.5,-173.5 3615.5,-132.76 3577.59,-98.51 3552.11,-80.09"/>
<polygon fill="#63b8ff" stroke="#63b8ff" points="3553.91,-77.08 3543.7,-74.25 3549.92,-82.83 3553.91,-77.08"/>
</a>
</g>
</g>
<!-- Node164 -->
<g id="Node000164" class="node">
<title>Node164</title>
<g id="a_Node000164"><a xlink:href="acl_2Acl_8h.html" target="_top" xlink:title=" ">
<polygon fill="#fff0f0" stroke="red" points="3284.5,-294 3226.5,-294 3226.5,-275 3284.5,-275 3284.5,-294"/>
<text text-anchor="middle" x="3255.5" y="-282" font-family="Helvetica,sans-Serif" font-size="10.00">acl/Acl.h</text>
</a>
</g>
</g>
<!-- Node44&#45;&gt;Node164 -->
<g id="edge42_Node000044_Node000164" class="edge">
<title>Node44&#45;&gt;Node164</title>
<g id="a_edge42_Node000044_Node000164"><a xlink:title=" ">
<path fill="none" stroke="#63b8ff" d="M3415.39,-390.43C3355.06,-385.84 3265.75,-374.8 3244.5,-349 3234.08,-336.35 3239.18,-317.39 3245.46,-303.48"/>
<polygon fill="#63b8ff" stroke="#63b8ff" points="3248.66,-304.92 3250.03,-294.41 3242.4,-301.77 3248.66,-304.92"/>
</a>
</g>
</g>
<!-- Node88 -->
<g id="Node000088" class="node">
<title>Node88</title>
<g id="a_Node000088"><a xlink:href="acl_2forward_8h.html" target="_top" xlink:title=" ">
<polygon fill="#fff0f0" stroke="red" points="3295.5,-239 3215.5,-239 3215.5,-220 3295.5,-220 3295.5,-239"/>
<text text-anchor="middle" x="3255.5" y="-227" font-family="Helvetica,sans-Serif" font-size="10.00">acl/forward.h</text>
</a>
</g>
</g>
<!-- Node44&#45;&gt;Node88 -->
<g id="edge46_Node000044_Node000088" class="edge">
<title>Node44&#45;&gt;Node88</title>
<g id="a_edge46_Node000044_Node000088"><a xlink:title=" ">
<path fill="none" stroke="#63b8ff" d="M3460.3,-384.7C3447.95,-375.78 3428.32,-361.52 3411.5,-349 3362.05,-312.19 3304.42,-268.1 3274.99,-245.49"/>
<polygon fill="#63b8ff" stroke="#63b8ff" points="3276.86,-242.52 3266.8,-239.2 3272.59,-248.07 3276.86,-242.52"/>
</a>
</g>
</g>
<!-- Node166 -->
<g id="Node000166" class="node">
<title>Node166</title>
<g id="a_Node000166"><a xlink:href="Checklist_8h.html" target="_top" xlink:title=" ">
<polygon fill="#fff0f0" stroke="red" points="3341.5,-349 3253.5,-349 3253.5,-330 3341.5,-330 3341.5,-349"/>
<text text-anchor="middle" x="3297.5" y="-337" font-family="Helvetica,sans-Serif" font-size="10.00">acl/Checklist.h</text>
</a>
</g>
</g>
<!-- Node44&#45;&gt;Node166 -->
<g id="edge44_Node000044_Node000166" class="edge">
<title>Node44&#45;&gt;Node166</title>
<g id="a_edge44_Node000044_Node000166"><a xlink:title=" ">
<path fill="none" stroke="#63b8ff" d="M3444.38,-384.98C3414.88,-376.05 3368.31,-361.94 3335.53,-352.02"/>
<polygon fill="#63b8ff" stroke="#63b8ff" points="3336.42,-348.63 3325.84,-349.08 3334.39,-355.33 3336.42,-348.63"/>
</a>
</g>
</g>
<!-- Node170 -->
<g id="Node000170" class="node">
<title>Node170</title>
<g id="a_Node000170"><a xlink:href="CbcPointer_8h.html" target="_top" xlink:title=" ">
<polygon fill="#fff0f0" stroke="red" points="3587.5,-239 3483.5,-239 3483.5,-220 3587.5,-220 3587.5,-239"/>
<text text-anchor="middle" x="3535.5" y="-227" font-family="Helvetica,sans-Serif" font-size="10.00">base/CbcPointer.h</text>
</a>
</g>
</g>
<!-- Node44&#45;&gt;Node170 -->
<g id="edge47_Node000044_Node000170" class="edge">
<title>Node44&#45;&gt;Node170</title>
<g id="a_edge47_Node000044_Node000170"><a xlink:title=" ">
<path fill="none" stroke="#63b8ff" d="M3492.62,-384.87C3506.84,-377.57 3524.87,-365.64 3533.5,-349 3550.03,-317.15 3544.97,-273.71 3540.06,-249.24"/>
<polygon fill="#63b8ff" stroke="#63b8ff" points="3543.41,-248.17 3537.83,-239.17 3536.57,-249.69 3543.41,-248.17"/>
</a>
</g>
</g>
<!-- Node171 -->
<g id="Node000171" class="node">
<title>Node171</title>
<g id="a_Node000171"><a xlink:href="HttpReply_8h.html" target="_top" xlink:title=" ">
<polygon fill="#fff0f0" stroke="red" points="3509,-349 3436,-349 3436,-330 3509,-330 3509,-349"/>
<text text-anchor="middle" x="3472.5" y="-337" font-family="Helvetica,sans-Serif" font-size="10.00">HttpReply.h</text>
</a>
</g>
</g>
<!-- Node44&#45;&gt;Node171 -->
<g id="edge49_Node000044_Node000171" class="edge">
<title>Node44&#45;&gt;Node171</title>
<g id="a_edge49_Node000044_Node000171"><a xlink:title=" ">
<path fill="none" stroke="#63b8ff" d="M3472.5,-384.75C3472.5,-377.8 3472.5,-367.85 3472.5,-359.13"/>
<polygon fill="#63b8ff" stroke="#63b8ff" points="3476,-359.09 3472.5,-349.09 3469,-359.09 3476,-359.09"/>
</a>
</g>
</g>
<!-- Node174 -->
<g id="Node000174" class="node">
<title>Node174</title>
<g id="a_Node000174"><a xlink:href="HttpRequest_8h.html" target="_top" xlink:title=" ">
<polygon fill="#fff0f0" stroke="red" points="3521.5,-294 3435.5,-294 3435.5,-275 3521.5,-275 3521.5,-294"/>
<text text-anchor="middle" x="3478.5" y="-282" font-family="Helvetica,sans-Serif" font-size="10.00">HttpRequest.h</text>
</a>
</g>
</g>
<!-- Node44&#45;&gt;Node174 -->
<g id="edge56_Node000044_Node000174" class="edge">
<title>Node44&#45;&gt;Node174</title>
<g id="a_edge56_Node000044_Node000174"><a xlink:title=" ">
<path fill="none" stroke="#63b8ff" d="M3485.99,-384.75C3496.79,-376.87 3511.15,-364.21 3517.5,-349 3524.76,-331.6 3511.12,-313.43 3498.01,-301.01"/>
<polygon fill="#63b8ff" stroke="#63b8ff" points="3499.94,-298.04 3490.12,-294.07 3495.32,-303.3 3499.94,-298.04"/>
</a>
</g>
</g>
<!-- Node189 -->
<g id="Node000189" class="node">
<title>Node189</title>
<g id="a_Node000189"><a xlink:href="UserRequest_8h.html" target="_top" xlink:title=" ">
<polygon fill="#fff0f0" stroke="red" points="3427,-239 3314,-239 3314,-220 3427,-220 3427,-239"/>
<text text-anchor="middle" x="3370.5" y="-227" font-family="Helvetica,sans-Serif" font-size="10.00">auth/UserRequest.h</text>
</a>
</g>
</g>
<!-- Node44&#45;&gt;Node189 -->
<g id="edge58_Node000044_Node000189" class="edge">
<title>Node44&#45;&gt;Node189</title>
<g id="a_edge58_Node000044_Node000189"><a xlink:title=" ">
<path fill="none" stroke="#63b8ff" d="M3461.55,-384.88C3451.47,-376.53 3436.6,-363.09 3426.5,-349 3403.28,-316.6 3385.62,-273.06 3376.78,-248.79"/>
<polygon fill="#63b8ff" stroke="#63b8ff" points="3379.99,-247.36 3373.35,-239.11 3373.39,-249.7 3379.99,-247.36"/>
</a>
</g>
</g>
<!-- Node201 -->
<g id="Node000201" class="node">
<title>Node201</title>
<g id="a_Node000201"><a xlink:href="CertError_8h.html" target="_top" xlink:title=" ">
<polygon fill="white" stroke="#666666" points="3791.5,-349 3681.5,-349 3681.5,-330 3791.5,-330 3791.5,-349"/>
<text text-anchor="middle" x="3736.5" y="-337" font-family="Helvetica,sans-Serif" font-size="10.00">security/CertError.h</text>
</a>
</g>
</g>
<!-- Node44&#45;&gt;Node201 -->
<g id="edge59_Node000044_Node000201" class="edge">
<title>Node44&#45;&gt;Node201</title>
<g id="a_edge59_Node000044_Node000201"><a xlink:title=" ">
<path fill="none" stroke="#63b8ff" d="M3514.92,-384.98C3560.87,-375.76 3634.25,-361.03 3683.85,-351.07"/>
<polygon fill="#63b8ff" stroke="#63b8ff" points="3684.64,-354.48 3693.75,-349.08 3683.26,-347.62 3684.64,-354.48"/>
</a>
</g>
</g>
<!-- Node46 -->
<g id="Node000046" class="node">
<title>Node46</title>
<g id="a_Node000046"><a xlink:href="PortCfg_8h.html" target="_top" xlink:title=" ">
<polygon fill="#fff0f0" stroke="red" points="3286,-129 3197,-129 3197,-110 3286,-110 3286,-129"/>
<text text-anchor="middle" x="3241.5" y="-117" font-family="Helvetica,sans-Serif" font-size="10.00">anyp/PortCfg.h</text>
</a>
</g>
</g>
<!-- Node45&#45;&gt;Node46 -->
<g id="edge32_Node000045_Node000046" class="edge">
<title>Node45&#45;&gt;Node46</title>
<g id="a_edge32_Node000045_Node000046"><a xlink:title=" ">
<path fill="none" stroke="#63b8ff" d="M3302.77,-164.98C3291.77,-157 3275.08,-144.88 3261.9,-135.31"/>
<polygon fill="#63b8ff" stroke="#63b8ff" points="3263.59,-132.21 3253.44,-129.17 3259.48,-137.88 3263.59,-132.21"/>
</a>
</g>
</g>
<!-- Node56 -->
<g id="Node000056" class="node">
<title>Node56</title>
<g id="a_Node000056"><a xlink:href="CodeContext_8h.html" target="_top" xlink:title=" ">
<polygon fill="#fff0f0" stroke="red" points="3254,-19 3139,-19 3139,0 3254,0 3254,-19"/>
<text text-anchor="middle" x="3196.5" y="-7" font-family="Helvetica,sans-Serif" font-size="10.00">base/CodeContext.h</text>
</a>
</g>
</g>
<!-- Node45&#45;&gt;Node56 -->
<g id="edge37_Node000045_Node000056" class="edge">
<title>Node45&#45;&gt;Node56</title>
<g id="a_edge37_Node000045_Node000056"><a xlink:title=" ">
<path fill="none" stroke="#63b8ff" d="M3263.97,-169.54C3236.55,-164.52 3204.8,-153.39 3187.5,-129 3166.3,-99.11 3178.85,-53.65 3188.52,-28.61"/>
<polygon fill="#63b8ff" stroke="#63b8ff" points="3191.81,-29.82 3192.39,-19.24 3185.34,-27.15 3191.81,-29.82"/>
</a>
</g>
</g>
<!-- Node61 -->
<g id="Node000061" class="node">
<title>Node61</title>
<g id="a_Node000061"><a xlink:href="Connection_8h.html" target="_top" xlink:title=" ">
<polygon fill="#fff0f0" stroke="red" points="3338.5,-74 3224.5,-74 3224.5,-55 3338.5,-55 3338.5,-74"/>
<text text-anchor="middle" x="3281.5" y="-62" font-family="Helvetica,sans-Serif" font-size="10.00">comm/Connection.h</text>
</a>
</g>
</g>
<!-- Node45&#45;&gt;Node61 -->
<g id="edge38_Node000045_Node000061" class="edge">
<title>Node45&#45;&gt;Node61</title>
<g id="a_edge38_Node000045_Node000061"><a xlink:title=" ">
<path fill="none" stroke="#63b8ff" d="M3311.8,-164.66C3306.43,-147.09 3294.32,-107.45 3287.14,-83.95"/>
<polygon fill="#63b8ff" stroke="#63b8ff" points="3290.42,-82.7 3284.15,-74.16 3283.72,-84.74 3290.42,-82.7"/>
</a>
</g>
</g>
<!-- Node45&#45;&gt;Node69 -->
<g id="edge41_Node000045_Node000069" class="edge">
<title>Node45&#45;&gt;Node69</title>
<g id="a_edge41_Node000045_Node000069"><a xlink:title=" ">
<path fill="none" stroke="#63b8ff" d="M3318.32,-164.74C3329.49,-139.09 3362.29,-63.78 3377.54,-28.78"/>
<polygon fill="#63b8ff" stroke="#63b8ff" points="3380.88,-29.87 3381.66,-19.31 3374.46,-27.08 3380.88,-29.87"/>
</a>
</g>
</g>
<!-- Node128 -->
<g id="Node000128" class="node">
<title>Node128</title>
<g id="a_Node000128"><a xlink:href="Error_8h.html" target="_top" xlink:title=" ">
<polygon fill="#fff0f0" stroke="red" points="3506.5,-129 3432.5,-129 3432.5,-110 3506.5,-110 3506.5,-129"/>
<text text-anchor="middle" x="3469.5" y="-117" font-family="Helvetica,sans-Serif" font-size="10.00">error/Error.h</text>
</a>
</g>
</g>
<!-- Node45&#45;&gt;Node128 -->
<g id="edge39_Node000045_Node000128" class="edge">
<title>Node45&#45;&gt;Node128</title>
<g id="a_edge39_Node000045_Node000128"><a xlink:title=" ">
<path fill="none" stroke="#63b8ff" d="M3339.4,-164.98C3365.2,-156.16 3405.72,-142.31 3434.68,-132.41"/>
<polygon fill="#63b8ff" stroke="#63b8ff" points="3436.07,-135.63 3444.4,-129.08 3433.81,-129.01 3436.07,-135.63"/>
</a>
</g>
</g>
<!-- Node46&#45;&gt;Node56 -->
<g id="edge33_Node000046_Node000056" class="edge">
<title>Node46&#45;&gt;Node56</title>
<g id="a_edge33_Node000046_Node000056"><a xlink:title=" ">
<path fill="none" stroke="#63b8ff" d="M3235.68,-109.96C3229.93,-101.23 3221.2,-87.13 3215.5,-74 3209.19,-59.47 3204.17,-42.2 3200.88,-29.34"/>
<polygon fill="#63b8ff" stroke="#63b8ff" points="3204.21,-28.25 3198.44,-19.36 3197.41,-29.91 3204.21,-28.25"/>
</a>
</g>
</g>
<!-- Node46&#45;&gt;Node61 -->
<g id="edge34_Node000046_Node000061" class="edge">
<title>Node46&#45;&gt;Node61</title>
<g id="a_edge34_Node000046_Node000061"><a xlink:title=" ">
<path fill="none" stroke="#63b8ff" d="M3248.11,-109.75C3253.76,-102.26 3262.04,-91.28 3268.95,-82.13"/>
<polygon fill="#63b8ff" stroke="#63b8ff" points="3271.79,-84.18 3275.02,-74.09 3266.2,-79.96 3271.79,-84.18"/>
</a>
</g>
</g>
<!-- Node61&#45;&gt;Node56 -->
<g id="edge35_Node000061_Node000056" class="edge">
<title>Node61&#45;&gt;Node56</title>
<g id="a_edge35_Node000061_Node000056"><a xlink:title=" ">
<path fill="none" stroke="#63b8ff" d="M3267.84,-54.98C3254.66,-46.77 3234.47,-34.18 3218.93,-24.49"/>
<polygon fill="#63b8ff" stroke="#63b8ff" points="3220.74,-21.49 3210.41,-19.17 3217.04,-27.43 3220.74,-21.49"/>
</a>
</g>
</g>
<!-- Node61&#45;&gt;Node69 -->
<g id="edge36_Node000061_Node000069" class="edge">
<title>Node61&#45;&gt;Node69</title>
<g id="a_edge36_Node000061_Node000069"><a xlink:title=" ">
<path fill="none" stroke="#63b8ff" d="M3298.21,-54.98C3314.71,-46.57 3340.2,-33.59 3359.38,-23.81"/>
<polygon fill="#63b8ff" stroke="#63b8ff" points="3361.17,-26.83 3368.49,-19.17 3357.99,-20.59 3361.17,-26.83"/>
</a>
</g>
</g>
<!-- Node128&#45;&gt;Node130 -->
<g id="edge40_Node000128_Node000130" class="edge">
<title>Node128&#45;&gt;Node130</title>
<g id="a_edge40_Node000128_Node000130"><a xlink:title=" ">
<path fill="none" stroke="#63b8ff" d="M3479.14,-109.98C3488.01,-102.15 3501.37,-90.34 3512.11,-80.86"/>
<polygon fill="#63b8ff" stroke="#63b8ff" points="3514.51,-83.41 3519.68,-74.17 3509.87,-78.17 3514.51,-83.41"/>
</a>
</g>
</g>
<!-- Node164&#45;&gt;Node88 -->
<g id="edge43_Node000164_Node000088" class="edge">
<title>Node164&#45;&gt;Node88</title>
<g id="a_edge43_Node000164_Node000088"><a xlink:title=" ">
<path fill="none" stroke="#63b8ff" d="M3255.5,-274.75C3255.5,-267.8 3255.5,-257.85 3255.5,-249.13"/>
<polygon fill="#63b8ff" stroke="#63b8ff" points="3259,-249.09 3255.5,-239.09 3252,-249.09 3259,-249.09"/>
</a>
</g>
</g>
<!-- Node166&#45;&gt;Node164 -->
<g id="edge45_Node000166_Node000164" class="edge">
<title>Node166&#45;&gt;Node164</title>
<g id="a_edge45_Node000166_Node000164"><a xlink:title=" ">
<path fill="none" stroke="#63b8ff" d="M3290.56,-329.75C3284.63,-322.26 3275.93,-311.28 3268.68,-302.13"/>
<polygon fill="#63b8ff" stroke="#63b8ff" points="3271.26,-299.75 3262.31,-294.09 3265.77,-304.1 3271.26,-299.75"/>
</a>
</g>
</g>
<!-- Node171&#45;&gt;Node174 -->
<g id="edge50_Node000171_Node000174" class="edge">
<title>Node171&#45;&gt;Node174</title>
<g id="a_edge50_Node000171_Node000174"><a xlink:title=" ">
<path fill="none" stroke="#63b8ff" d="M3473.49,-329.75C3474.28,-322.8 3475.4,-312.85 3476.39,-304.13"/>
<polygon fill="#63b8ff" stroke="#63b8ff" points="3479.88,-304.42 3477.53,-294.09 3472.92,-303.63 3479.88,-304.42"/>
</a>
</g>
</g>
<!-- Node174&#45;&gt;Node128 -->
<g id="edge52_Node000174_Node000128" class="edge">
<title>Node174&#45;&gt;Node128</title>
<g id="a_edge52_Node000174_Node000128"><a xlink:title=" ">
<path fill="none" stroke="#63b8ff" d="M3477.61,-274.98C3476.71,-266.03 3475.33,-251.54 3474.5,-239 3472.18,-203.85 3470.73,-162.75 3470.02,-139.36"/>
<polygon fill="#63b8ff" stroke="#63b8ff" points="3473.51,-139.03 3469.72,-129.13 3466.51,-139.23 3473.51,-139.03"/>
</a>
</g>
</g>
<!-- Node174&#45;&gt;Node170 -->
<g id="edge51_Node000174_Node000170" class="edge">
<title>Node174&#45;&gt;Node170</title>
<g id="a_edge51_Node000174_Node000170"><a xlink:title=" ">
<path fill="none" stroke="#63b8ff" d="M3487.66,-274.98C3496,-267.23 3508.53,-255.58 3518.68,-246.14"/>
<polygon fill="#63b8ff" stroke="#63b8ff" points="3521.24,-248.54 3526.18,-239.17 3516.47,-243.42 3521.24,-248.54"/>
</a>
</g>
</g>
<!-- Node174&#45;&gt;Node189 -->
<g id="edge53_Node000174_Node000189" class="edge">
<title>Node174&#45;&gt;Node189</title>
<g id="a_edge53_Node000174_Node000189"><a xlink:title=" ">
<path fill="none" stroke="#63b8ff" d="M3461.15,-274.98C3443.93,-266.54 3417.3,-253.47 3397.35,-243.68"/>
<polygon fill="#63b8ff" stroke="#63b8ff" points="3398.69,-240.43 3388.17,-239.17 3395.6,-246.72 3398.69,-240.43"/>
</a>
</g>
</g>
<!-- Node189&#45;&gt;Node45 -->
<g id="edge54_Node000189_Node000045" class="edge">
<title>Node189&#45;&gt;Node45</title>
<g id="a_edge54_Node000189_Node000045"><a xlink:title=" ">
<path fill="none" stroke="#63b8ff" d="M3361.5,-219.98C3353.31,-212.23 3340.99,-200.58 3331.03,-191.14"/>
<polygon fill="#63b8ff" stroke="#63b8ff" points="3333.33,-188.5 3323.66,-184.17 3328.52,-193.59 3333.33,-188.5"/>
</a>
</g>
</g>
<!-- Node189&#45;&gt;Node69 -->
<g id="edge55_Node000189_Node000069" class="edge">
<title>Node189&#45;&gt;Node69</title>
<g id="a_edge55_Node000189_Node000069"><a xlink:title=" ">
<path fill="none" stroke="#63b8ff" d="M3371.09,-219.95C3373.29,-187.95 3381.08,-74.68 3384.2,-29.4"/>
<polygon fill="#63b8ff" stroke="#63b8ff" points="3387.7,-29.44 3384.9,-19.22 3380.72,-28.96 3387.7,-29.44"/>
</a>
</g>
</g>
<!-- Node101 -->
<g id="Node000101" class="node">
<title>Node101</title>
<g id="a_Node000101"><a xlink:href="security_2forward_8h.html" target="_top" xlink:title=" ">
<polygon fill="#fff0f0" stroke="red" points="3830,-294 3725,-294 3725,-275 3830,-275 3830,-294"/>
<text text-anchor="middle" x="3777.5" y="-282" font-family="Helvetica,sans-Serif" font-size="10.00">security/forward.h</text>
</a>
</g>
</g>
<!-- Node201&#45;&gt;Node101 -->
<g id="edge60_Node000201_Node000101" class="edge">
<title>Node201&#45;&gt;Node101</title>
<g id="a_edge60_Node000201_Node000101"><a xlink:title=" ">
<path fill="none" stroke="#63b8ff" d="M3743.27,-329.75C3749.06,-322.26 3757.56,-311.28 3764.64,-302.13"/>
<polygon fill="#63b8ff" stroke="#63b8ff" points="3767.51,-304.14 3770.86,-294.09 3761.97,-299.86 3767.51,-304.14"/>
</a>
</g>
</g>
<!-- Node202&#45;&gt;Node101 -->
<g id="edge64_Node000202_Node000101" class="edge">
<title>Node202&#45;&gt;Node101</title>
<g id="a_edge64_Node000202_Node000101"><a xlink:title=" ">
<path fill="none" stroke="#63b8ff" d="M3843.61,-384.66C3831.68,-366.77 3804.5,-326 3788.96,-302.69"/>
<polygon fill="#63b8ff" stroke="#63b8ff" points="3791.73,-300.54 3783.27,-294.16 3785.91,-304.42 3791.73,-300.54"/>
</a>
</g>
</g>
<!-- Node203 -->
<g id="Node000203" class="node">
<title>Node203</title>
<g id="a_Node000203"><a xlink:href="Data_8h.html" target="_top" xlink:title=" ">
<polygon fill="#fff0f0" stroke="red" points="3913.5,-349 3847.5,-349 3847.5,-330 3913.5,-330 3913.5,-349"/>
<text text-anchor="middle" x="3880.5" y="-337" font-family="Helvetica,sans-Serif" font-size="10.00">acl/Data.h</text>
</a>
</g>
</g>
<!-- Node202&#45;&gt;Node203 -->
<g id="edge62_Node000202_Node000203" class="edge">
<title>Node202&#45;&gt;Node203</title>
<g id="a_edge62_Node000202_Node000203"><a xlink:title=" ">
<path fill="none" stroke="#63b8ff" d="M3854.62,-384.75C3858.86,-377.49 3865.03,-366.95 3870.28,-357.98"/>
<polygon fill="#63b8ff" stroke="#63b8ff" points="3873.45,-359.49 3875.48,-349.09 3867.41,-355.95 3873.45,-359.49"/>
</a>
</g>
</g>
<!-- Node205 -->
<g id="Node000205" class="node">
<title>Node205</title>
<g id="a_Node000205"><a xlink:href="ParameterizedNode_8h.html" target="_top" xlink:title=" ">
<polygon fill="#fff0f0" stroke="red" points="4071,-349 3932,-349 3932,-330 4071,-330 4071,-349"/>
<text text-anchor="middle" x="4001.5" y="-337" font-family="Helvetica,sans-Serif" font-size="10.00">acl/ParameterizedNode.h</text>
</a>
</g>
</g>
<!-- Node202&#45;&gt;Node205 -->
<g id="edge63_Node000202_Node000205" class="edge">
<title>Node202&#45;&gt;Node205</title>
<g id="a_edge63_Node000202_Node000205"><a xlink:title=" ">
<path fill="none" stroke="#63b8ff" d="M3873.92,-384.98C3899.22,-376.16 3938.95,-362.31 3967.36,-352.41"/>
<polygon fill="#63b8ff" stroke="#63b8ff" points="3968.6,-355.68 3976.89,-349.08 3966.29,-349.07 3968.6,-355.68"/>
</a>
</g>
</g>
</g>
</svg>
