<?xml version="1.0" encoding="UTF-8" standalone="no"?>
<!DOCTYPE svg PUBLIC "-//W3C//DTD SVG 1.1//EN"
 "http://www.w3.org/Graphics/SVG/1.1/DTD/svg11.dtd">
<!-- Generated by graphviz version 2.43.0 (0)
 -->
<!-- Title: squid/src/StatCounters.cc Pages: 1 -->
<!--zoomable 247 -->

<svg id="main" version="1.1" xmlns="http://www.w3.org/2000/svg" xmlns:xlink="http://www.w3.org/1999/xlink" xml:space="preserve" onload="init(evt)">
<style type="text/css"><![CDATA[
.node, .edge {opacity: 0.7;}
.node.selected, .edge.selected {opacity: 1;}
.edge:hover path { stroke: red; }
.edge:hover polygon { stroke: red; fill: red; }
]]></style>

<defs>
  <circle id="rim" cx="0" cy="0" r="7"/>
  <circle id="rim2" cx="0" cy="0" r="3.5"/>
  <g id="zoomPlus">
    <use xlink:href="#rim" fill="#404040"><set attributeName="fill" to="#808080" begin="zoomplus.mouseover" end="zoomplus.mouseout"/></use>
    <path d="M-4,0h8M0,-4v8" fill="none" stroke="white" stroke-width="1.5" pointer-events="none"/>
  </g>
  <g id="zoomMin">
    <use xlink:href="#rim" fill="#404040"><set attributeName="fill" to="#808080" begin="zoomminus.mouseover" end="zoomminus.mouseout"/></use>
    <path d="M-4,0h8" fill="none" stroke="white" stroke-width="1.5" pointer-events="none"/>
  </g>
  <g id="arrowUp" transform="translate(30 24)">
    <use xlink:href="#rim"/>
    <path pointer-events="none" fill="none" stroke="white" stroke-width="1.5" d="M0,-3.0v7 M-2.5,-0.5L0,-3.0L2.5,-0.5"/>
  </g>
  <g id="arrowRight" transform="rotate(90) translate(36 -43)">
    <use xlink:href="#rim"/>
    <path pointer-events="none" fill="none" stroke="white" stroke-width="1.5" d="M0,-3.0v7 M-2.5,-0.5L0,-3.0L2.5,-0.5"/>
  </g>
  <g id="arrowDown" transform="rotate(180) translate(-30 -48)">
    <use xlink:href="#rim"/>
    <path pointer-events="none" fill="none" stroke="white" stroke-width="1.5" d="M0,-3.0v7 M-2.5,-0.5L0,-3.0L2.5,-0.5"/>
  </g>
  <g id="arrowLeft" transform="rotate(270) translate(-36 17)">
    <use xlink:href="#rim"/>
    <path pointer-events="none" fill="none" stroke="white" stroke-width="1.5" d="M0,-3.0v7 M-2.5,-0.5L0,-3.0L2.5,-0.5"/>
  </g>
  <g id="resetDef">
    <use xlink:href="#rim2" fill="#404040"><set attributeName="fill" to="#808080" begin="reset.mouseover" end="reset.mouseout"/></use>
  </g>
</defs>
<script type="application/ecmascript">
var viewWidth = 3467;
var viewHeight = 247;
var sectionId = 'dynsection-0';
</script>
<script type="application/ecmascript" xlink:href="svg.min.js"/>
<svg id="graph" class="graph">
<g id="viewport">
<title>squid/src/StatCounters.cc</title>
<!-- Node1 -->
<g id="Node000001" class="node">
<title>Node1</title>
<g id="a_Node000001"><a xlink:title=" ">
<polygon fill="#999999" stroke="#666666" points="2496.5,-239 2356.5,-239 2356.5,-220 2496.5,-220 2496.5,-239"/>
<text text-anchor="middle" x="2426.5" y="-227" font-family="Helvetica,sans-Serif" font-size="10.00">squid/src/StatCounters.cc</text>
</a>
</g>
</g>
<!-- Node2 -->
<g id="Node000002" class="node">
<title>Node2</title>
<g id="a_Node000002"><a xlink:href="squid_8h.html" target="_top" xlink:title=" ">
<polygon fill="white" stroke="#666666" points="1720.5,-184 1668.5,-184 1668.5,-165 1720.5,-165 1720.5,-184"/>
<text text-anchor="middle" x="1694.5" y="-172" font-family="Helvetica,sans-Serif" font-size="10.00">squid.h</text>
</a>
</g>
</g>
<!-- Node1&#45;&gt;Node2 -->
<g id="edge1_Node000001_Node000002" class="edge">
<title>Node1&#45;&gt;Node2</title>
<g id="a_edge1_Node000001_Node000002"><a xlink:title=" ">
<path fill="none" stroke="#63b8ff" d="M2356.31,-223.42C2203.63,-212.36 1845.81,-186.46 1730.79,-178.13"/>
<polygon fill="#63b8ff" stroke="#63b8ff" points="1730.97,-174.63 1720.74,-177.4 1730.46,-181.61 1730.97,-174.63"/>
</a>
</g>
</g>
<!-- Node45 -->
<g id="Node000045" class="node">
<title>Node45</title>
<g id="a_Node000045"><a xlink:href="StatCounters_8h.html" target="_top" xlink:title=" ">
<polygon fill="white" stroke="#666666" points="3319,-184 3230,-184 3230,-165 3319,-165 3319,-184"/>
<text text-anchor="middle" x="3274.5" y="-172" font-family="Helvetica,sans-Serif" font-size="10.00">StatCounters.h</text>
</a>
</g>
</g>
<!-- Node1&#45;&gt;Node45 -->
<g id="edge43_Node000001_Node000045" class="edge">
<title>Node1&#45;&gt;Node45</title>
<g id="a_edge43_Node000001_Node000045"><a xlink:title=" ">
<path fill="none" stroke="#63b8ff" d="M2496.62,-224.12C2661.5,-213.81 3071.11,-188.21 3219.62,-178.93"/>
<polygon fill="#63b8ff" stroke="#63b8ff" points="3220.09,-182.41 3229.85,-178.29 3219.65,-175.42 3220.09,-182.41"/>
</a>
</g>
</g>
<!-- Node3 -->
<g id="Node000003" class="node">
<title>Node3</title>
<g id="a_Node000003"><a xlink:href="autoconf_8h.html" target="_top" xlink:title=" ">
<polygon fill="white" stroke="#666666" points="1595.5,-129 1527.5,-129 1527.5,-110 1595.5,-110 1595.5,-129"/>
<text text-anchor="middle" x="1561.5" y="-117" font-family="Helvetica,sans-Serif" font-size="10.00">autoconf.h</text>
</a>
</g>
</g>
<!-- Node2&#45;&gt;Node3 -->
<g id="edge2_Node000002_Node000003" class="edge">
<title>Node2&#45;&gt;Node3</title>
<g id="a_edge2_Node000002_Node000003"><a xlink:title=" ">
<path fill="none" stroke="#63b8ff" d="M1673.13,-164.98C1651.35,-156.3 1617.34,-142.75 1592.58,-132.88"/>
<polygon fill="#63b8ff" stroke="#63b8ff" points="1593.84,-129.62 1583.26,-129.17 1591.25,-136.12 1593.84,-129.62"/>
</a>
</g>
</g>
<!-- Node4 -->
<g id="Node000004" class="node">
<title>Node4</title>
<g id="a_Node000004"><a xlink:href="version_8h.html" target="_top" xlink:title=" ">
<polygon fill="white" stroke="#666666" points="1675.5,-129 1613.5,-129 1613.5,-110 1675.5,-110 1675.5,-129"/>
<text text-anchor="middle" x="1644.5" y="-117" font-family="Helvetica,sans-Serif" font-size="10.00">version.h</text>
</a>
</g>
</g>
<!-- Node2&#45;&gt;Node4 -->
<g id="edge3_Node000002_Node000004" class="edge">
<title>Node2&#45;&gt;Node4</title>
<g id="a_edge3_Node000002_Node000004"><a xlink:title=" ">
<path fill="none" stroke="#63b8ff" d="M1686.24,-164.75C1679.04,-157.11 1668.39,-145.82 1659.65,-136.56"/>
<polygon fill="#63b8ff" stroke="#63b8ff" points="1662.01,-133.96 1652.6,-129.09 1656.92,-138.76 1662.01,-133.96"/>
</a>
</g>
</g>
<!-- Node5 -->
<g id="Node000005" class="node">
<title>Node5</title>
<g id="a_Node000005"><a xlink:href="compat_8h.html" target="_top" xlink:title=" ">
<polygon fill="white" stroke="#666666" points="1795.5,-129 1693.5,-129 1693.5,-110 1795.5,-110 1795.5,-129"/>
<text text-anchor="middle" x="1744.5" y="-117" font-family="Helvetica,sans-Serif" font-size="10.00">compat/compat.h</text>
</a>
</g>
</g>
<!-- Node2&#45;&gt;Node5 -->
<g id="edge4_Node000002_Node000005" class="edge">
<title>Node2&#45;&gt;Node5</title>
<g id="a_edge4_Node000002_Node000005"><a xlink:title=" ">
<path fill="none" stroke="#63b8ff" d="M1702.76,-164.75C1709.96,-157.11 1720.61,-145.82 1729.35,-136.56"/>
<polygon fill="#63b8ff" stroke="#63b8ff" points="1732.08,-138.76 1736.4,-129.09 1726.99,-133.96 1732.08,-138.76"/>
</a>
</g>
</g>
<!-- Node6 -->
<g id="Node000006" class="node">
<title>Node6</title>
<g id="a_Node000006"><a xlink:href="osdetect_8h.html" target="_top" xlink:title=" ">
<polygon fill="white" stroke="#666666" points="107,-74 0,-74 0,-55 107,-55 107,-74"/>
<text text-anchor="middle" x="53.5" y="-62" font-family="Helvetica,sans-Serif" font-size="10.00">compat/osdetect.h</text>
</a>
</g>
</g>
<!-- Node5&#45;&gt;Node6 -->
<g id="edge5_Node000005_Node000006" class="edge">
<title>Node5&#45;&gt;Node6</title>
<g id="a_edge5_Node000005_Node000006"><a xlink:title=" ">
<path fill="none" stroke="#63b8ff" d="M1693.48,-110.86C1690.45,-110.53 1687.44,-110.24 1684.5,-110 993.07,-53.28 813.13,-127.97 117.1,-73.92"/>
<polygon fill="#63b8ff" stroke="#63b8ff" points="117.32,-70.43 107.07,-73.14 116.77,-77.41 117.32,-70.43"/>
</a>
</g>
</g>
<!-- Node7 -->
<g id="Node000007" class="node">
<title>Node7</title>
<g id="a_Node000007"><a xlink:href="fdsetsize_8h.html" target="_top" xlink:title=" ">
<polygon fill="white" stroke="#666666" points="235.5,-74 125.5,-74 125.5,-55 235.5,-55 235.5,-74"/>
<text text-anchor="middle" x="180.5" y="-62" font-family="Helvetica,sans-Serif" font-size="10.00">compat/fdsetsize.h</text>
</a>
</g>
</g>
<!-- Node5&#45;&gt;Node7 -->
<g id="edge6_Node000005_Node000007" class="edge">
<title>Node5&#45;&gt;Node7</title>
<g id="a_edge6_Node000005_Node000007"><a xlink:title=" ">
<path fill="none" stroke="#63b8ff" d="M1693.48,-110.86C1690.45,-110.54 1687.44,-110.24 1684.5,-110 1049.92,-57.3 884.5,-123.5 246,-74.01"/>
<polygon fill="#63b8ff" stroke="#63b8ff" points="245.86,-70.49 235.62,-73.2 245.32,-77.47 245.86,-70.49"/>
</a>
</g>
</g>
<!-- Node8 -->
<g id="Node000008" class="node">
<title>Node8</title>
<g id="a_Node000008"><a xlink:href="types_8h.html" target="_top" xlink:title=" ">
<polygon fill="white" stroke="#666666" points="345.5,-74 253.5,-74 253.5,-55 345.5,-55 345.5,-74"/>
<text text-anchor="middle" x="299.5" y="-62" font-family="Helvetica,sans-Serif" font-size="10.00">compat/types.h</text>
</a>
</g>
</g>
<!-- Node5&#45;&gt;Node8 -->
<g id="edge7_Node000005_Node000008" class="edge">
<title>Node5&#45;&gt;Node8</title>
<g id="a_edge7_Node000005_Node000008"><a xlink:title=" ">
<path fill="none" stroke="#63b8ff" d="M1693.48,-110.87C1690.45,-110.54 1687.44,-110.25 1684.5,-110 1098.56,-60.73 945.14,-126.52 355.69,-73.97"/>
<polygon fill="#63b8ff" stroke="#63b8ff" points="355.93,-70.48 345.66,-73.07 355.31,-77.45 355.93,-70.48"/>
</a>
</g>
</g>
<!-- Node10 -->
<g id="Node000010" class="node">
<title>Node10</title>
<g id="a_Node000010"><a xlink:href="aix_8h.html" target="_top" xlink:title=" ">
<polygon fill="white" stroke="#666666" points="459,-74 364,-74 364,-55 459,-55 459,-74"/>
<text text-anchor="middle" x="411.5" y="-62" font-family="Helvetica,sans-Serif" font-size="10.00">compat/os/aix.h</text>
</a>
</g>
</g>
<!-- Node5&#45;&gt;Node10 -->
<g id="edge9_Node000005_Node000010" class="edge">
<title>Node5&#45;&gt;Node10</title>
<g id="a_edge9_Node000005_Node000010"><a xlink:title=" ">
<path fill="none" stroke="#63b8ff" d="M1693.48,-110.88C1690.45,-110.55 1687.44,-110.25 1684.5,-110 1149.07,-64.29 1008.76,-121.25 469.02,-73.9"/>
<polygon fill="#63b8ff" stroke="#63b8ff" points="469.31,-70.41 459.04,-73.02 468.69,-77.39 469.31,-70.41"/>
</a>
</g>
</g>
<!-- Node11 -->
<g id="Node000011" class="node">
<title>Node11</title>
<g id="a_Node000011"><a xlink:href="android_8h.html" target="_top" xlink:title=" ">
<polygon fill="white" stroke="#666666" points="593.5,-74 477.5,-74 477.5,-55 593.5,-55 593.5,-74"/>
<text text-anchor="middle" x="535.5" y="-62" font-family="Helvetica,sans-Serif" font-size="10.00">compat/os/android.h</text>
</a>
</g>
</g>
<!-- Node5&#45;&gt;Node11 -->
<g id="edge10_Node000005_Node000011" class="edge">
<title>Node5&#45;&gt;Node11</title>
<g id="a_edge10_Node000005_Node000011"><a xlink:title=" ">
<path fill="none" stroke="#63b8ff" d="M1693.48,-110.89C1690.45,-110.56 1687.43,-110.26 1684.5,-110 1208.56,-68.49 1083.89,-111.7 603.89,-74.02"/>
<polygon fill="#63b8ff" stroke="#63b8ff" points="603.82,-70.5 593.57,-73.2 603.26,-77.48 603.82,-70.5"/>
</a>
</g>
</g>
<!-- Node12 -->
<g id="Node000012" class="node">
<title>Node12</title>
<g id="a_Node000012"><a xlink:href="dragonfly_8h.html" target="_top" xlink:title=" ">
<polygon fill="white" stroke="#666666" points="735.5,-74 611.5,-74 611.5,-55 735.5,-55 735.5,-74"/>
<text text-anchor="middle" x="673.5" y="-62" font-family="Helvetica,sans-Serif" font-size="10.00">compat/os/dragonfly.h</text>
</a>
</g>
</g>
<!-- Node5&#45;&gt;Node12 -->
<g id="edge11_Node000005_Node000012" class="edge">
<title>Node5&#45;&gt;Node12</title>
<g id="a_edge11_Node000005_Node000012"><a xlink:title=" ">
<path fill="none" stroke="#63b8ff" d="M1693.48,-110.91C1690.44,-110.57 1687.43,-110.26 1684.5,-110 1271.44,-72.93 1163.03,-106.33 746.03,-74.05"/>
<polygon fill="#63b8ff" stroke="#63b8ff" points="746.05,-70.54 735.81,-73.25 745.51,-77.52 746.05,-70.54"/>
</a>
</g>
</g>
<!-- Node13 -->
<g id="Node000013" class="node">
<title>Node13</title>
<g id="a_Node000013"><a xlink:href="freebsd_8h.html" target="_top" xlink:title=" ">
<polygon fill="white" stroke="#666666" points="869.5,-74 753.5,-74 753.5,-55 869.5,-55 869.5,-74"/>
<text text-anchor="middle" x="811.5" y="-62" font-family="Helvetica,sans-Serif" font-size="10.00">compat/os/freebsd.h</text>
</a>
</g>
</g>
<!-- Node5&#45;&gt;Node13 -->
<g id="edge12_Node000005_Node000013" class="edge">
<title>Node5&#45;&gt;Node13</title>
<g id="a_edge12_Node000005_Node000013"><a xlink:title=" ">
<path fill="none" stroke="#63b8ff" d="M1693.48,-110.93C1690.44,-110.59 1687.43,-110.27 1684.5,-110 1330.77,-77.12 1237.5,-104.08 879.7,-74.02"/>
<polygon fill="#63b8ff" stroke="#63b8ff" points="879.83,-70.52 869.57,-73.16 879.24,-77.5 879.83,-70.52"/>
</a>
</g>
</g>
<!-- Node14 -->
<g id="Node000014" class="node">
<title>Node14</title>
<g id="a_Node000014"><a xlink:href="hpux_8h.html" target="_top" xlink:title=" ">
<polygon fill="white" stroke="#666666" points="991.5,-74 887.5,-74 887.5,-55 991.5,-55 991.5,-74"/>
<text text-anchor="middle" x="939.5" y="-62" font-family="Helvetica,sans-Serif" font-size="10.00">compat/os/hpux.h</text>
</a>
</g>
</g>
<!-- Node5&#45;&gt;Node14 -->
<g id="edge13_Node000005_Node000014" class="edge">
<title>Node5&#45;&gt;Node14</title>
<g id="a_edge13_Node000005_Node000014"><a xlink:title=" ">
<path fill="none" stroke="#63b8ff" d="M1693.47,-110.96C1690.44,-110.61 1687.43,-110.28 1684.5,-110 1384.76,-80.94 1305.23,-102.56 1001.68,-74.02"/>
<polygon fill="#63b8ff" stroke="#63b8ff" points="1002,-70.54 991.71,-73.08 1001.33,-77.51 1002,-70.54"/>
</a>
</g>
</g>
<!-- Node15 -->
<g id="Node000015" class="node">
<title>Node15</title>
<g id="a_Node000015"><a xlink:href="linux_8h.html" target="_top" xlink:title=" ">
<polygon fill="white" stroke="#666666" points="1113.5,-74 1009.5,-74 1009.5,-55 1113.5,-55 1113.5,-74"/>
<text text-anchor="middle" x="1061.5" y="-62" font-family="Helvetica,sans-Serif" font-size="10.00">compat/os/linux.h</text>
</a>
</g>
</g>
<!-- Node5&#45;&gt;Node15 -->
<g id="edge14_Node000005_Node000015" class="edge">
<title>Node5&#45;&gt;Node15</title>
<g id="a_edge14_Node000005_Node000015"><a xlink:title=" ">
<path fill="none" stroke="#63b8ff" d="M1693.47,-111C1690.44,-110.64 1687.43,-110.3 1684.5,-110 1438.8,-84.76 1373.23,-98.9 1123.81,-74.05"/>
<polygon fill="#63b8ff" stroke="#63b8ff" points="1124.01,-70.56 1113.71,-73.04 1123.31,-77.52 1124.01,-70.56"/>
</a>
</g>
</g>
<!-- Node16 -->
<g id="Node000016" class="node">
<title>Node16</title>
<g id="a_Node000016"><a xlink:href="macosx_8h.html" target="_top" xlink:title=" ">
<polygon fill="white" stroke="#666666" points="1249.5,-74 1131.5,-74 1131.5,-55 1249.5,-55 1249.5,-74"/>
<text text-anchor="middle" x="1190.5" y="-62" font-family="Helvetica,sans-Serif" font-size="10.00">compat/os/macosx.h</text>
</a>
</g>
</g>
<!-- Node5&#45;&gt;Node16 -->
<g id="edge15_Node000005_Node000016" class="edge">
<title>Node5&#45;&gt;Node16</title>
<g id="a_edge15_Node000005_Node000016"><a xlink:title=" ">
<path fill="none" stroke="#63b8ff" d="M1693.46,-111.07C1690.43,-110.69 1687.43,-110.33 1684.5,-110 1498.92,-89.03 1449.16,-93.62 1259.83,-74.1"/>
<polygon fill="#63b8ff" stroke="#63b8ff" points="1260.13,-70.61 1249.82,-73.06 1259.41,-77.57 1260.13,-70.61"/>
</a>
</g>
</g>
<!-- Node17 -->
<g id="Node000017" class="node">
<title>Node17</title>
<g id="a_Node000017"><a xlink:href="mingw_8h.html" target="_top" xlink:title=" ">
<polygon fill="white" stroke="#666666" points="1379.5,-74 1267.5,-74 1267.5,-55 1379.5,-55 1379.5,-74"/>
<text text-anchor="middle" x="1323.5" y="-62" font-family="Helvetica,sans-Serif" font-size="10.00">compat/os/mingw.h</text>
</a>
</g>
</g>
<!-- Node5&#45;&gt;Node17 -->
<g id="edge16_Node000005_Node000017" class="edge">
<title>Node5&#45;&gt;Node17</title>
<g id="a_edge16_Node000005_Node000017"><a xlink:title=" ">
<path fill="none" stroke="#63b8ff" d="M1693.45,-111.2C1690.42,-110.79 1687.42,-110.38 1684.5,-110 1556.32,-93.13 1521.66,-90.7 1389.61,-74.13"/>
<polygon fill="#63b8ff" stroke="#63b8ff" points="1389.87,-70.63 1379.52,-72.86 1389,-77.58 1389.87,-70.63"/>
</a>
</g>
</g>
<!-- Node18 -->
<g id="Node000018" class="node">
<title>Node18</title>
<g id="a_Node000018"><a xlink:href="mswindows_8h.html" target="_top" xlink:title=" ">
<polygon fill="white" stroke="#666666" points="1535,-74 1398,-74 1398,-55 1535,-55 1535,-74"/>
<text text-anchor="middle" x="1466.5" y="-62" font-family="Helvetica,sans-Serif" font-size="10.00">compat/os/mswindows.h</text>
</a>
</g>
</g>
<!-- Node5&#45;&gt;Node18 -->
<g id="edge17_Node000005_Node000018" class="edge">
<title>Node5&#45;&gt;Node18</title>
<g id="a_edge17_Node000005_Node000018"><a xlink:title=" ">
<path fill="none" stroke="#63b8ff" d="M1699.83,-109.98C1651.34,-100.74 1573.85,-85.97 1521.61,-76.01"/>
<polygon fill="#63b8ff" stroke="#63b8ff" points="1521.99,-72.52 1511.52,-74.08 1520.68,-79.39 1521.99,-72.52"/>
</a>
</g>
</g>
<!-- Node19 -->
<g id="Node000019" class="node">
<title>Node19</title>
<g id="a_Node000019"><a xlink:href="netbsd_8h.html" target="_top" xlink:title=" ">
<polygon fill="white" stroke="#666666" points="1666,-74 1553,-74 1553,-55 1666,-55 1666,-74"/>
<text text-anchor="middle" x="1609.5" y="-62" font-family="Helvetica,sans-Serif" font-size="10.00">compat/os/netbsd.h</text>
</a>
</g>
</g>
<!-- Node5&#45;&gt;Node19 -->
<g id="edge18_Node000005_Node000019" class="edge">
<title>Node5&#45;&gt;Node19</title>
<g id="a_edge18_Node000005_Node000019"><a xlink:title=" ">
<path fill="none" stroke="#63b8ff" d="M1722.81,-109.98C1700.7,-101.3 1666.18,-87.75 1641.05,-77.88"/>
<polygon fill="#63b8ff" stroke="#63b8ff" points="1642.17,-74.57 1631.58,-74.17 1639.61,-81.08 1642.17,-74.57"/>
</a>
</g>
</g>
<!-- Node20 -->
<g id="Node000020" class="node">
<title>Node20</title>
<g id="a_Node000020"><a xlink:href="openbsd_8h.html" target="_top" xlink:title=" ">
<polygon fill="white" stroke="#666666" points="1805,-74 1684,-74 1684,-55 1805,-55 1805,-74"/>
<text text-anchor="middle" x="1744.5" y="-62" font-family="Helvetica,sans-Serif" font-size="10.00">compat/os/openbsd.h</text>
</a>
</g>
</g>
<!-- Node5&#45;&gt;Node20 -->
<g id="edge19_Node000005_Node000020" class="edge">
<title>Node5&#45;&gt;Node20</title>
<g id="a_edge19_Node000005_Node000020"><a xlink:title=" ">
<path fill="none" stroke="#63b8ff" d="M1744.5,-109.75C1744.5,-102.8 1744.5,-92.85 1744.5,-84.13"/>
<polygon fill="#63b8ff" stroke="#63b8ff" points="1748,-84.09 1744.5,-74.09 1741,-84.09 1748,-84.09"/>
</a>
</g>
</g>
<!-- Node21 -->
<g id="Node000021" class="node">
<title>Node21</title>
<g id="a_Node000021"><a xlink:href="os2_8h.html" target="_top" xlink:title=" ">
<polygon fill="white" stroke="#666666" points="1920,-74 1823,-74 1823,-55 1920,-55 1920,-74"/>
<text text-anchor="middle" x="1871.5" y="-62" font-family="Helvetica,sans-Serif" font-size="10.00">compat/os/os2.h</text>
</a>
</g>
</g>
<!-- Node5&#45;&gt;Node21 -->
<g id="edge20_Node000005_Node000021" class="edge">
<title>Node5&#45;&gt;Node21</title>
<g id="a_edge20_Node000005_Node000021"><a xlink:title=" ">
<path fill="none" stroke="#63b8ff" d="M1764.9,-109.98C1785.52,-101.38 1817.61,-87.99 1841.19,-78.15"/>
<polygon fill="#63b8ff" stroke="#63b8ff" points="1842.84,-81.25 1850.72,-74.17 1840.15,-74.79 1842.84,-81.25"/>
</a>
</g>
</g>
<!-- Node22 -->
<g id="Node000022" class="node">
<title>Node22</title>
<g id="a_Node000022"><a xlink:href="qnx_8h.html" target="_top" xlink:title=" ">
<polygon fill="white" stroke="#666666" points="2036.5,-74 1938.5,-74 1938.5,-55 2036.5,-55 2036.5,-74"/>
<text text-anchor="middle" x="1987.5" y="-62" font-family="Helvetica,sans-Serif" font-size="10.00">compat/os/qnx.h</text>
</a>
</g>
</g>
<!-- Node5&#45;&gt;Node22 -->
<g id="edge21_Node000005_Node000022" class="edge">
<title>Node5&#45;&gt;Node22</title>
<g id="a_edge21_Node000005_Node000022"><a xlink:title=" ">
<path fill="none" stroke="#63b8ff" d="M1783.54,-109.98C1825.58,-100.82 1892.54,-86.21 1938.18,-76.26"/>
<polygon fill="#63b8ff" stroke="#63b8ff" points="1939.13,-79.63 1948.15,-74.08 1937.64,-72.79 1939.13,-79.63"/>
</a>
</g>
</g>
<!-- Node23 -->
<g id="Node000023" class="node">
<title>Node23</title>
<g id="a_Node000023"><a xlink:href="sgi_8h.html" target="_top" xlink:title=" ">
<polygon fill="white" stroke="#666666" points="2148.5,-74 2054.5,-74 2054.5,-55 2148.5,-55 2148.5,-74"/>
<text text-anchor="middle" x="2101.5" y="-62" font-family="Helvetica,sans-Serif" font-size="10.00">compat/os/sgi.h</text>
</a>
</g>
</g>
<!-- Node5&#45;&gt;Node23 -->
<g id="edge22_Node000005_Node000023" class="edge">
<title>Node5&#45;&gt;Node23</title>
<g id="a_edge22_Node000005_Node000023"><a xlink:title=" ">
<path fill="none" stroke="#63b8ff" d="M1795.64,-111C1853.48,-102.5 1950.8,-88.17 2044.51,-74.14"/>
<polygon fill="#63b8ff" stroke="#63b8ff" points="2045.08,-77.6 2054.45,-72.66 2044.04,-70.68 2045.08,-77.6"/>
</a>
</g>
</g>
<!-- Node24 -->
<g id="Node000024" class="node">
<title>Node24</title>
<g id="a_Node000024"><a xlink:href="solaris_8h.html" target="_top" xlink:title=" ">
<polygon fill="white" stroke="#666666" points="2278.5,-74 2166.5,-74 2166.5,-55 2278.5,-55 2278.5,-74"/>
<text text-anchor="middle" x="2222.5" y="-62" font-family="Helvetica,sans-Serif" font-size="10.00">compat/os/solaris.h</text>
</a>
</g>
</g>
<!-- Node5&#45;&gt;Node24 -->
<g id="edge23_Node000005_Node000024" class="edge">
<title>Node5&#45;&gt;Node24</title>
<g id="a_edge23_Node000005_Node000024"><a xlink:title=" ">
<path fill="none" stroke="#63b8ff" d="M1795.73,-113.36C1871.93,-105.63 2019.9,-90.29 2156.27,-74.12"/>
<polygon fill="#63b8ff" stroke="#63b8ff" points="2156.97,-77.56 2166.49,-72.91 2156.15,-70.61 2156.97,-77.56"/>
</a>
</g>
</g>
<!-- Node25 -->
<g id="Node000025" class="node">
<title>Node25</title>
<g id="a_Node000025"><a xlink:href="sunos_8h.html" target="_top" xlink:title=" ">
<polygon fill="white" stroke="#666666" points="2404.5,-74 2296.5,-74 2296.5,-55 2404.5,-55 2404.5,-74"/>
<text text-anchor="middle" x="2350.5" y="-62" font-family="Helvetica,sans-Serif" font-size="10.00">compat/os/sunos.h</text>
</a>
</g>
</g>
<!-- Node5&#45;&gt;Node25 -->
<g id="edge24_Node000005_Node000025" class="edge">
<title>Node5&#45;&gt;Node25</title>
<g id="a_edge24_Node000005_Node000025"><a xlink:title=" ">
<path fill="none" stroke="#63b8ff" d="M1795.87,-115.19C1890.65,-108.89 2099.67,-94.07 2286.23,-74.08"/>
<polygon fill="#63b8ff" stroke="#63b8ff" points="2286.66,-77.56 2296.23,-73.01 2285.91,-70.6 2286.66,-77.56"/>
</a>
</g>
</g>
<!-- Node26 -->
<g id="Node000026" class="node">
<title>Node26</title>
<g id="a_Node000026"><a xlink:href="assert_8h.html" target="_top" xlink:title=" ">
<polygon fill="white" stroke="#666666" points="2518,-74 2423,-74 2423,-55 2518,-55 2518,-74"/>
<text text-anchor="middle" x="2470.5" y="-62" font-family="Helvetica,sans-Serif" font-size="10.00">compat/assert.h</text>
</a>
</g>
</g>
<!-- Node5&#45;&gt;Node26 -->
<g id="edge25_Node000005_Node000026" class="edge">
<title>Node5&#45;&gt;Node26</title>
<g id="a_edge25_Node000005_Node000026"><a xlink:title=" ">
<path fill="none" stroke="#63b8ff" d="M1795.82,-116.52C1906.49,-111.93 2175.99,-99.1 2412.77,-73.98"/>
<polygon fill="#63b8ff" stroke="#63b8ff" points="2413.38,-77.43 2422.95,-72.89 2412.64,-70.47 2413.38,-77.43"/>
</a>
</g>
</g>
<!-- Node27 -->
<g id="Node000027" class="node">
<title>Node27</title>
<g id="a_Node000027"><a xlink:href="compat__shared_8h.html" target="_top" xlink:title=" ">
<polygon fill="white" stroke="#666666" points="2676.5,-74 2536.5,-74 2536.5,-55 2676.5,-55 2676.5,-74"/>
<text text-anchor="middle" x="2606.5" y="-62" font-family="Helvetica,sans-Serif" font-size="10.00">compat/compat_shared.h</text>
</a>
</g>
</g>
<!-- Node5&#45;&gt;Node27 -->
<g id="edge26_Node000005_Node000027" class="edge">
<title>Node5&#45;&gt;Node27</title>
<g id="a_edge26_Node000005_Node000027"><a xlink:title=" ">
<path fill="none" stroke="#63b8ff" d="M1795.8,-116.45C1919.39,-111.33 2243.65,-96.78 2526.24,-73.97"/>
<polygon fill="#63b8ff" stroke="#63b8ff" points="2526.59,-77.46 2536.28,-73.16 2526.03,-70.48 2526.59,-77.46"/>
</a>
</g>
</g>
<!-- Node37 -->
<g id="Node000037" class="node">
<title>Node37</title>
<g id="a_Node000037"><a xlink:href="stdvarargs_8h.html" target="_top" xlink:title=" ">
<polygon fill="white" stroke="#666666" points="2812,-74 2695,-74 2695,-55 2812,-55 2812,-74"/>
<text text-anchor="middle" x="2753.5" y="-62" font-family="Helvetica,sans-Serif" font-size="10.00">compat/stdvarargs.h</text>
</a>
</g>
</g>
<!-- Node5&#45;&gt;Node37 -->
<g id="edge35_Node000005_Node000037" class="edge">
<title>Node5&#45;&gt;Node37</title>
<g id="a_edge35_Node000005_Node000037"><a xlink:title=" ">
<path fill="none" stroke="#63b8ff" d="M1795.59,-117.47C1935.84,-114.34 2338.79,-103.37 2684.96,-73.97"/>
<polygon fill="#63b8ff" stroke="#63b8ff" points="2685.26,-77.45 2694.92,-73.11 2684.66,-70.48 2685.26,-77.45"/>
</a>
</g>
</g>
<!-- Node39 -->
<g id="Node000039" class="node">
<title>Node39</title>
<g id="a_Node000039"><a xlink:href="stdio_8h.html" target="_top" xlink:title=" ">
<polygon fill="white" stroke="#666666" points="2919,-74 2830,-74 2830,-55 2919,-55 2919,-74"/>
<text text-anchor="middle" x="2874.5" y="-62" font-family="Helvetica,sans-Serif" font-size="10.00">compat/stdio.h</text>
</a>
</g>
</g>
<!-- Node5&#45;&gt;Node39 -->
<g id="edge37_Node000005_Node000039" class="edge">
<title>Node5&#45;&gt;Node39</title>
<g id="a_edge37_Node000005_Node000039"><a xlink:title=" ">
<path fill="none" stroke="#63b8ff" d="M1795.61,-118.46C1949.11,-117.92 2419.56,-113.01 2819.73,-73.94"/>
<polygon fill="#63b8ff" stroke="#63b8ff" points="2820.15,-77.41 2829.76,-72.95 2819.47,-70.44 2820.15,-77.41"/>
</a>
</g>
</g>
<!-- Node41 -->
<g id="Node000041" class="node">
<title>Node41</title>
<g id="a_Node000041"><a xlink:href="statvfs_8h.html" target="_top" xlink:title=" ">
<polygon fill="white" stroke="#666666" points="3036,-74 2937,-74 2937,-55 3036,-55 3036,-74"/>
<text text-anchor="middle" x="2986.5" y="-62" font-family="Helvetica,sans-Serif" font-size="10.00">compat/statvfs.h</text>
</a>
</g>
</g>
<!-- Node5&#45;&gt;Node41 -->
<g id="edge39_Node000005_Node000041" class="edge">
<title>Node5&#45;&gt;Node41</title>
<g id="a_edge39_Node000005_Node000041"><a xlink:title=" ">
<path fill="none" stroke="#63b8ff" d="M1795.64,-118.5C1958.96,-118.09 2482.74,-113.63 2926.82,-73.94"/>
<polygon fill="#63b8ff" stroke="#63b8ff" points="2927.32,-77.41 2936.97,-73.02 2926.7,-70.43 2927.32,-77.41"/>
</a>
</g>
</g>
<!-- Node42 -->
<g id="Node000042" class="node">
<title>Node42</title>
<g id="a_Node000042"><a xlink:href="debug_8h.html" target="_top" xlink:title=" ">
<polygon fill="white" stroke="#666666" points="3149,-74 3054,-74 3054,-55 3149,-55 3149,-74"/>
<text text-anchor="middle" x="3101.5" y="-62" font-family="Helvetica,sans-Serif" font-size="10.00">compat/debug.h</text>
</a>
</g>
</g>
<!-- Node5&#45;&gt;Node42 -->
<g id="edge40_Node000005_Node000042" class="edge">
<title>Node5&#45;&gt;Node42</title>
<g id="a_edge40_Node000005_Node000042"><a xlink:title=" ">
<path fill="none" stroke="#63b8ff" d="M1795.73,-118.84C1969.44,-119.54 2552.1,-118.28 3043.82,-73.92"/>
<polygon fill="#63b8ff" stroke="#63b8ff" points="3044.32,-77.39 3053.96,-73 3043.69,-70.42 3044.32,-77.39"/>
</a>
</g>
</g>
<!-- Node43 -->
<g id="Node000043" class="node">
<title>Node43</title>
<g id="a_Node000043"><a xlink:href="valgrind_8h.html" target="_top" xlink:title=" ">
<polygon fill="white" stroke="#666666" points="3272,-74 3167,-74 3167,-55 3272,-55 3272,-74"/>
<text text-anchor="middle" x="3219.5" y="-62" font-family="Helvetica,sans-Serif" font-size="10.00">compat/valgrind.h</text>
</a>
</g>
</g>
<!-- Node5&#45;&gt;Node43 -->
<g id="edge41_Node000005_Node000043" class="edge">
<title>Node5&#45;&gt;Node43</title>
<g id="a_edge41_Node000005_Node000043"><a xlink:title=" ">
<path fill="none" stroke="#63b8ff" d="M1795.62,-118.82C1978.61,-119.56 2618.28,-118.65 3156.47,-73.97"/>
<polygon fill="#63b8ff" stroke="#63b8ff" points="3157.1,-77.43 3166.78,-73.11 3156.52,-70.46 3157.1,-77.43"/>
</a>
</g>
</g>
<!-- Node9 -->
<g id="Node000009" class="node">
<title>Node9</title>
<g id="a_Node000009"><a xlink:title=" ">
<polygon fill="#e0e0e0" stroke="#999999" points="324.5,-19 274.5,-19 274.5,0 324.5,0 324.5,-19"/>
<text text-anchor="middle" x="299.5" y="-7" font-family="Helvetica,sans-Serif" font-size="10.00">cstdint</text>
</a>
</g>
</g>
<!-- Node8&#45;&gt;Node9 -->
<g id="edge8_Node000008_Node000009" class="edge">
<title>Node8&#45;&gt;Node9</title>
<g id="a_edge8_Node000008_Node000009"><a xlink:title=" ">
<path fill="none" stroke="#63b8ff" d="M299.5,-54.75C299.5,-47.8 299.5,-37.85 299.5,-29.13"/>
<polygon fill="#63b8ff" stroke="#63b8ff" points="303,-29.09 299.5,-19.09 296,-29.09 303,-29.09"/>
</a>
</g>
</g>
<!-- Node28 -->
<g id="Node000028" class="node">
<title>Node28</title>
<g id="a_Node000028"><a xlink:title=" ">
<polygon fill="#e0e0e0" stroke="#999999" points="2141,-19 2090,-19 2090,0 2141,0 2141,-19"/>
<text text-anchor="middle" x="2115.5" y="-7" font-family="Helvetica,sans-Serif" font-size="10.00">csignal</text>
</a>
</g>
</g>
<!-- Node27&#45;&gt;Node28 -->
<g id="edge27_Node000027_Node000028" class="edge">
<title>Node27&#45;&gt;Node28</title>
<g id="a_edge27_Node000027_Node000028"><a xlink:title=" ">
<path fill="none" stroke="#63b8ff" d="M2536.26,-55.99C2532.96,-55.66 2529.7,-55.32 2526.5,-55 2362.3,-38.44 2317.14,-47.13 2151.1,-19.04"/>
<polygon fill="#63b8ff" stroke="#63b8ff" points="2151.48,-15.56 2141.03,-17.32 2150.3,-22.46 2151.48,-15.56"/>
</a>
</g>
</g>
<!-- Node29 -->
<g id="Node000029" class="node">
<title>Node29</title>
<g id="a_Node000029"><a xlink:href="xalloc_8h.html" target="_top" xlink:title=" ">
<polygon fill="white" stroke="#666666" points="2254,-19 2159,-19 2159,0 2254,0 2254,-19"/>
<text text-anchor="middle" x="2206.5" y="-7" font-family="Helvetica,sans-Serif" font-size="10.00">compat/xalloc.h</text>
</a>
</g>
</g>
<!-- Node27&#45;&gt;Node29 -->
<g id="edge28_Node000027_Node000029" class="edge">
<title>Node27&#45;&gt;Node29</title>
<g id="a_edge28_Node000027_Node000029"><a xlink:title=" ">
<path fill="none" stroke="#63b8ff" d="M2537.79,-54.98C2470.74,-46.57 2365.55,-33.15 2264.19,-19.07"/>
<polygon fill="#63b8ff" stroke="#63b8ff" points="2264.46,-15.58 2254.08,-17.66 2263.5,-22.51 2264.46,-15.58"/>
</a>
</g>
</g>
<!-- Node30 -->
<g id="Node000030" class="node">
<title>Node30</title>
<g id="a_Node000030"><a xlink:href="xis_8h.html" target="_top" xlink:title=" ">
<polygon fill="#fff0f0" stroke="red" points="2352.5,-19 2272.5,-19 2272.5,0 2352.5,0 2352.5,-19"/>
<text text-anchor="middle" x="2312.5" y="-7" font-family="Helvetica,sans-Serif" font-size="10.00">compat/xis.h</text>
</a>
</g>
</g>
<!-- Node27&#45;&gt;Node30 -->
<g id="edge29_Node000027_Node000030" class="edge">
<title>Node27&#45;&gt;Node30</title>
<g id="a_edge29_Node000027_Node000030"><a xlink:title=" ">
<path fill="none" stroke="#63b8ff" d="M2559.26,-54.98C2505.32,-45.26 2417.45,-29.42 2362.41,-19.5"/>
<polygon fill="#63b8ff" stroke="#63b8ff" points="2363,-16.05 2352.54,-17.72 2361.76,-22.94 2363,-16.05"/>
</a>
</g>
</g>
<!-- Node32 -->
<g id="Node000032" class="node">
<title>Node32</title>
<g id="a_Node000032"><a xlink:href="xstrerror_8h.html" target="_top" xlink:title=" ">
<polygon fill="white" stroke="#666666" points="2478,-19 2371,-19 2371,0 2478,0 2478,-19"/>
<text text-anchor="middle" x="2424.5" y="-7" font-family="Helvetica,sans-Serif" font-size="10.00">compat/xstrerror.h</text>
</a>
</g>
</g>
<!-- Node27&#45;&gt;Node32 -->
<g id="edge30_Node000027_Node000032" class="edge">
<title>Node27&#45;&gt;Node32</title>
<g id="a_edge30_Node000027_Node000032"><a xlink:title=" ">
<path fill="none" stroke="#63b8ff" d="M2577.26,-54.98C2546.44,-46.01 2497.72,-31.82 2463.61,-21.89"/>
<polygon fill="#63b8ff" stroke="#63b8ff" points="2464.55,-18.52 2453.97,-19.08 2462.59,-25.24 2464.55,-18.52"/>
</a>
</g>
</g>
<!-- Node33 -->
<g id="Node000033" class="node">
<title>Node33</title>
<g id="a_Node000033"><a xlink:href="xstring_8h.html" target="_top" xlink:title=" ">
<polygon fill="white" stroke="#666666" points="2595,-19 2496,-19 2496,0 2595,0 2595,-19"/>
<text text-anchor="middle" x="2545.5" y="-7" font-family="Helvetica,sans-Serif" font-size="10.00">compat/xstring.h</text>
</a>
</g>
</g>
<!-- Node27&#45;&gt;Node33 -->
<g id="edge31_Node000027_Node000033" class="edge">
<title>Node27&#45;&gt;Node33</title>
<g id="a_edge31_Node000027_Node000033"><a xlink:title=" ">
<path fill="none" stroke="#63b8ff" d="M2596.7,-54.98C2587.68,-47.15 2574.09,-35.34 2563.18,-25.86"/>
<polygon fill="#63b8ff" stroke="#63b8ff" points="2565.32,-23.09 2555.48,-19.17 2560.73,-28.37 2565.32,-23.09"/>
</a>
</g>
</g>
<!-- Node34 -->
<g id="Node000034" class="node">
<title>Node34</title>
<g id="a_Node000034"><a xlink:href="xstrto_8h.html" target="_top" xlink:title=" ">
<polygon fill="white" stroke="#666666" points="2707.5,-19 2613.5,-19 2613.5,0 2707.5,0 2707.5,-19"/>
<text text-anchor="middle" x="2660.5" y="-7" font-family="Helvetica,sans-Serif" font-size="10.00">compat/xstrto.h</text>
</a>
</g>
</g>
<!-- Node27&#45;&gt;Node34 -->
<g id="edge32_Node000027_Node000034" class="edge">
<title>Node27&#45;&gt;Node34</title>
<g id="a_edge32_Node000027_Node000034"><a xlink:title=" ">
<path fill="none" stroke="#63b8ff" d="M2615.42,-54.75C2623.28,-47.03 2634.93,-35.6 2644.42,-26.28"/>
<polygon fill="#63b8ff" stroke="#63b8ff" points="2647.06,-28.59 2651.75,-19.09 2642.16,-23.6 2647.06,-28.59"/>
</a>
</g>
</g>
<!-- Node35 -->
<g id="Node000035" class="node">
<title>Node35</title>
<g id="a_Node000035"><a xlink:href="strtoll_8h.html" target="_top" xlink:title=" ">
<polygon fill="white" stroke="#666666" points="2819.5,-19 2725.5,-19 2725.5,0 2819.5,0 2819.5,-19"/>
<text text-anchor="middle" x="2772.5" y="-7" font-family="Helvetica,sans-Serif" font-size="10.00">compat/strtoll.h</text>
</a>
</g>
</g>
<!-- Node27&#45;&gt;Node35 -->
<g id="edge33_Node000027_Node000035" class="edge">
<title>Node27&#45;&gt;Node35</title>
<g id="a_edge33_Node000027_Node000035"><a xlink:title=" ">
<path fill="none" stroke="#63b8ff" d="M2633.17,-54.98C2661.04,-46.09 2704.95,-32.07 2736.02,-22.15"/>
<polygon fill="#63b8ff" stroke="#63b8ff" points="2737.16,-25.46 2745.62,-19.08 2735.03,-18.79 2737.16,-25.46"/>
</a>
</g>
</g>
<!-- Node36 -->
<g id="Node000036" class="node">
<title>Node36</title>
<g id="a_Node000036"><a xlink:href="memrchr_8h.html" target="_top" xlink:title=" ">
<polygon fill="white" stroke="#666666" points="2947,-19 2838,-19 2838,0 2947,0 2947,-19"/>
<text text-anchor="middle" x="2892.5" y="-7" font-family="Helvetica,sans-Serif" font-size="10.00">compat/memrchr.h</text>
</a>
</g>
</g>
<!-- Node27&#45;&gt;Node36 -->
<g id="edge34_Node000027_Node000036" class="edge">
<title>Node27&#45;&gt;Node36</title>
<g id="a_edge34_Node000027_Node000036"><a xlink:title=" ">
<path fill="none" stroke="#63b8ff" d="M2652.45,-54.98C2702.44,-45.72 2782.39,-30.9 2836.14,-20.94"/>
<polygon fill="#63b8ff" stroke="#63b8ff" points="2836.99,-24.35 2846.19,-19.08 2835.72,-17.46 2836.99,-24.35"/>
</a>
</g>
</g>
<!-- Node38 -->
<g id="Node000038" class="node">
<title>Node38</title>
<g id="a_Node000038"><a xlink:title=" ">
<polygon fill="#e0e0e0" stroke="#999999" points="3018,-19 2965,-19 2965,0 3018,0 3018,-19"/>
<text text-anchor="middle" x="2991.5" y="-7" font-family="Helvetica,sans-Serif" font-size="10.00">cstdarg</text>
</a>
</g>
</g>
<!-- Node37&#45;&gt;Node38 -->
<g id="edge36_Node000037_Node000038" class="edge">
<title>Node37&#45;&gt;Node38</title>
<g id="a_edge36_Node000037_Node000038"><a xlink:title=" ">
<path fill="none" stroke="#63b8ff" d="M2793.02,-54.98C2831.7,-46.6 2892.56,-33.3 2954.78,-19.14"/>
<polygon fill="#63b8ff" stroke="#63b8ff" points="2955.8,-22.49 2964.77,-16.86 2954.25,-15.67 2955.8,-22.49"/>
</a>
</g>
</g>
<!-- Node40 -->
<g id="Node000040" class="node">
<title>Node40</title>
<g id="a_Node000040"><a xlink:title=" ">
<polygon fill="#e0e0e0" stroke="#999999" points="3082.5,-19 3036.5,-19 3036.5,0 3082.5,0 3082.5,-19"/>
<text text-anchor="middle" x="3059.5" y="-7" font-family="Helvetica,sans-Serif" font-size="10.00">cstdio</text>
</a>
</g>
</g>
<!-- Node39&#45;&gt;Node40 -->
<g id="edge38_Node000039_Node000040" class="edge">
<title>Node39&#45;&gt;Node40</title>
<g id="a_edge38_Node000039_Node000040"><a xlink:title=" ">
<path fill="none" stroke="#63b8ff" d="M2904.22,-54.98C2937.69,-45.4 2991.91,-29.86 3026.62,-19.92"/>
<polygon fill="#63b8ff" stroke="#63b8ff" points="3027.64,-23.27 3036.29,-17.15 3025.71,-16.54 3027.64,-23.27"/>
</a>
</g>
</g>
<!-- Node44 -->
<g id="Node000044" class="node">
<title>Node44</title>
<g id="a_Node000044"><a xlink:title=" ">
<polygon fill="#e0e0e0" stroke="#999999" points="3278.5,-19 3156.5,-19 3156.5,0 3278.5,0 3278.5,-19"/>
<text text-anchor="middle" x="3217.5" y="-7" font-family="Helvetica,sans-Serif" font-size="10.00">valgrind/memcheck.h</text>
</a>
</g>
</g>
<!-- Node43&#45;&gt;Node44 -->
<g id="edge42_Node000043_Node000044" class="edge">
<title>Node43&#45;&gt;Node44</title>
<g id="a_edge42_Node000043_Node000044"><a xlink:title=" ">
<path fill="none" stroke="#63b8ff" d="M3219.17,-54.75C3218.91,-47.8 3218.53,-37.85 3218.2,-29.13"/>
<polygon fill="#63b8ff" stroke="#63b8ff" points="3221.7,-28.95 3217.82,-19.09 3214.7,-29.21 3221.7,-28.95"/>
</a>
</g>
</g>
<!-- Node46 -->
<g id="Node000046" class="node">
<title>Node46</title>
<g id="a_Node000046"><a xlink:href="ByteCounter_8h.html" target="_top" xlink:title=" ">
<polygon fill="white" stroke="#666666" points="3267.5,-129 3155.5,-129 3155.5,-110 3267.5,-110 3267.5,-129"/>
<text text-anchor="middle" x="3211.5" y="-117" font-family="Helvetica,sans-Serif" font-size="10.00">base/ByteCounter.h</text>
</a>
</g>
</g>
<!-- Node45&#45;&gt;Node46 -->
<g id="edge44_Node000045_Node000046" class="edge">
<title>Node45&#45;&gt;Node46</title>
<g id="a_edge44_Node000045_Node000046"><a xlink:title=" ">
<path fill="none" stroke="#63b8ff" d="M3264.38,-164.98C3255.06,-157.15 3241.03,-145.34 3229.76,-135.86"/>
<polygon fill="#63b8ff" stroke="#63b8ff" points="3231.71,-132.93 3221.81,-129.17 3227.21,-138.29 3231.71,-132.93"/>
</a>
</g>
</g>
<!-- Node47 -->
<g id="Node000047" class="node">
<title>Node47</title>
<g id="a_Node000047"><a xlink:href="Incoming_8h.html" target="_top" xlink:title=" ">
<polygon fill="white" stroke="#666666" points="3389.5,-129 3285.5,-129 3285.5,-110 3389.5,-110 3389.5,-129"/>
<text text-anchor="middle" x="3337.5" y="-117" font-family="Helvetica,sans-Serif" font-size="10.00">comm/Incoming.h</text>
</a>
</g>
</g>
<!-- Node45&#45;&gt;Node47 -->
<g id="edge45_Node000045_Node000047" class="edge">
<title>Node45&#45;&gt;Node47</title>
<g id="a_edge45_Node000045_Node000047"><a xlink:title=" ">
<path fill="none" stroke="#63b8ff" d="M3284.62,-164.98C3293.94,-157.15 3307.97,-145.34 3319.24,-135.86"/>
<polygon fill="#63b8ff" stroke="#63b8ff" points="3321.79,-138.29 3327.19,-129.17 3317.29,-132.93 3321.79,-138.29"/>
</a>
</g>
</g>
<!-- Node146 -->
<g id="Node000146" class="node">
<title>Node146</title>
<g id="a_Node000146"><a xlink:href="StatHist_8h.html" target="_top" xlink:title=" ">
<polygon fill="white" stroke="#666666" points="3459,-74 3394,-74 3394,-55 3459,-55 3459,-74"/>
<text text-anchor="middle" x="3426.5" y="-62" font-family="Helvetica,sans-Serif" font-size="10.00">StatHist.h</text>
</a>
</g>
</g>
<!-- Node45&#45;&gt;Node146 -->
<g id="edge50_Node000045_Node000146" class="edge">
<title>Node45&#45;&gt;Node146</title>
<g id="a_edge50_Node000045_Node000146"><a xlink:title=" ">
<path fill="none" stroke="#63b8ff" d="M3319.24,-166.5C3345.11,-160.43 3376.74,-149.27 3398.5,-129 3411.3,-117.08 3418.59,-98.25 3422.5,-84.19"/>
<polygon fill="#63b8ff" stroke="#63b8ff" points="3425.98,-84.7 3424.95,-74.16 3419.18,-83.04 3425.98,-84.7"/>
</a>
</g>
</g>
<!-- Node48 -->
<g id="Node000048" class="node">
<title>Node48</title>
<g id="a_Node000048"><a xlink:href="SquidConfig_8h.html" target="_top" xlink:title=" ">
<polygon fill="#fff0f0" stroke="red" points="3376,-74 3293,-74 3293,-55 3376,-55 3376,-74"/>
<text text-anchor="middle" x="3334.5" y="-62" font-family="Helvetica,sans-Serif" font-size="10.00">SquidConfig.h</text>
</a>
</g>
</g>
<!-- Node47&#45;&gt;Node48 -->
<g id="edge46_Node000047_Node000048" class="edge">
<title>Node47&#45;&gt;Node48</title>
<g id="a_edge46_Node000047_Node000048"><a xlink:title=" ">
<path fill="none" stroke="#63b8ff" d="M3337,-109.75C3336.61,-102.8 3336.05,-92.85 3335.55,-84.13"/>
<polygon fill="#63b8ff" stroke="#63b8ff" points="3339.05,-83.88 3334.99,-74.09 3332.06,-84.27 3339.05,-83.88"/>
</a>
</g>
</g>
<!-- Node47&#45;&gt;Node146 -->
<g id="edge48_Node000047_Node000146" class="edge">
<title>Node47&#45;&gt;Node146</title>
<g id="a_edge48_Node000047_Node000146"><a xlink:title=" ">
<path fill="none" stroke="#63b8ff" d="M3351.8,-109.98C3365.6,-101.77 3386.74,-89.18 3403.01,-79.49"/>
<polygon fill="#63b8ff" stroke="#63b8ff" points="3405.14,-82.29 3411.94,-74.17 3401.56,-76.28 3405.14,-82.29"/>
</a>
</g>
</g>
<!-- Node49 -->
<g id="Node000049" class="node">
<title>Node49</title>
<g id="a_Node000049"><a xlink:href="acl_2forward_8h.html" target="_top" xlink:title=" ">
<polygon fill="#fff0f0" stroke="red" points="3376.5,-19 3296.5,-19 3296.5,0 3376.5,0 3376.5,-19"/>
<text text-anchor="middle" x="3336.5" y="-7" font-family="Helvetica,sans-Serif" font-size="10.00">acl/forward.h</text>
</a>
</g>
</g>
<!-- Node48&#45;&gt;Node49 -->
<g id="edge47_Node000048_Node000049" class="edge">
<title>Node48&#45;&gt;Node49</title>
<g id="a_edge47_Node000048_Node000049"><a xlink:title=" ">
<path fill="none" stroke="#63b8ff" d="M3334.83,-54.75C3335.09,-47.8 3335.47,-37.85 3335.8,-29.13"/>
<polygon fill="#63b8ff" stroke="#63b8ff" points="3339.3,-29.21 3336.18,-19.09 3332.3,-28.95 3339.3,-29.21"/>
</a>
</g>
</g>
<!-- Node147 -->
<g id="Node000147" class="node">
<title>Node147</title>
<g id="a_Node000147"><a xlink:href="Store_8h.html" target="_top" xlink:title=" ">
<polygon fill="#fff0f0" stroke="red" points="3452,-19 3401,-19 3401,0 3452,0 3452,-19"/>
<text text-anchor="middle" x="3426.5" y="-7" font-family="Helvetica,sans-Serif" font-size="10.00">Store.h</text>
</a>
</g>
</g>
<!-- Node146&#45;&gt;Node147 -->
<g id="edge49_Node000146_Node000147" class="edge">
<title>Node146&#45;&gt;Node147</title>
<g id="a_edge49_Node000146_Node000147"><a xlink:title=" ">
<path fill="none" stroke="#63b8ff" d="M3426.5,-54.75C3426.5,-47.8 3426.5,-37.85 3426.5,-29.13"/>
<polygon fill="#63b8ff" stroke="#63b8ff" points="3430,-29.09 3426.5,-19.09 3423,-29.09 3430,-29.09"/>
</a>
</g>
</g>
</g>
</svg>

<g id="navigator" transform="translate(0 0)" fill="#404254">
  <rect fill="#f2f5e9" fill-opacity="0.5" stroke="#606060" stroke-width=".5" x="0" y="0" width="60" height="60"/>
  <use id="zoomplus" xlink:href="#zoomPlus" x="17" y="9" onmousedown="handleZoom(evt,'in')"/>
  <use id="zoomminus" xlink:href="#zoomMin" x="42" y="9" onmousedown="handleZoom(evt,'out')"/>
  <use id="reset" xlink:href="#resetDef" x="30" y="36" onmousedown="handleReset()"/>
   <use id="arrowup" xlink:href="#arrowUp" x="0" y="0" onmousedown="handlePan(0,-1)"/>
  <use id="arrowright" xlink:href="#arrowRight" x="0" y="0" onmousedown="handlePan(1,0)"/>
  <use id="arrowdown" xlink:href="#arrowDown" x="0" y="0" onmousedown="handlePan(0,1)"/>
  <use id="arrowleft" xlink:href="#arrowLeft" x="0" y="0" onmousedown="handlePan(-1,0)"/>
</g>
<svg viewBox="0 0 15 15" width="100%" height="30px" preserveAspectRatio="xMaxYMin meet">
 <g id="arrow_out" transform="scale(0.3 0.3)">
  <a xlink:href="StatCounters_8cc__incl_org.svg" target="_base">
   <rect id="button" ry="5" rx="5" y="6" x="6" height="38" width="38"
        fill="#f2f5e9" fill-opacity="0.5" stroke="#606060" stroke-width="1.0"/>
   <path id="arrow"
     d="M 11.500037,31.436501 C 11.940474,20.09759 22.043105,11.32322 32.158766,21.979434 L 37.068811,17.246167 C 37.068811,17.246167 37.088388,32 37.088388,32 L 22.160133,31.978069 C 22.160133,31.978069 26.997745,27.140456 26.997745,27.140456 C 18.528582,18.264221 13.291696,25.230495 11.500037,31.436501 z"
     style="fill:#404040;"/>
  </a>
 </g>
</svg>

<style type='text/css'>
<![CDATA[
[data-mouse-over-selected='false'] { opacity: 0.7; }
[data-mouse-over-selected='true']  { opacity: 1.0; }
]]>
</style>
<script type="application/ecmascript"><![CDATA[
document.addEventListener('DOMContentLoaded', (event) => {
  highlightEdges();
  highlightAdjacentNodes();
});
]]></script>
</svg>
