<?xml version="1.0" encoding="UTF-8" standalone="no"?>
<!DOCTYPE svg PUBLIC "-//W3C//DTD SVG 1.1//EN"
 "http://www.w3.org/Graphics/SVG/1.1/DTD/svg11.dtd">
<!-- Generated by graphviz version 2.43.0 (0)
 -->
<!-- Title: squid/src/base/Stopwatch.cc Pages: 1 -->
<svg width="3699pt" height="247pt"
 viewBox="0.00 0.00 3698.50 247.00" xmlns="http://www.w3.org/2000/svg" xmlns:xlink="http://www.w3.org/1999/xlink">
<g id="graph0" class="graph" transform="scale(1 1) rotate(0) translate(4 243)">
<title>squid/src/base/Stopwatch.cc</title>
<!-- Node1 -->
<g id="Node000001" class="node">
<title>Node1</title>
<g id="a_Node000001"><a xlink:title=" ">
<polygon fill="#999999" stroke="#666666" points="3120,-239 2966,-239 2966,-220 3120,-220 3120,-239"/>
<text text-anchor="middle" x="3043" y="-227" font-family="Helvetica,sans-Serif" font-size="10.00">squid/src/base/Stopwatch.cc</text>
</a>
</g>
</g>
<!-- Node2 -->
<g id="Node000002" class="node">
<title>Node2</title>
<g id="a_Node000002"><a xlink:href="squid_8h.html" target="_top" xlink:title=" ">
<polygon fill="white" stroke="#666666" points="2949,-184 2897,-184 2897,-165 2949,-165 2949,-184"/>
<text text-anchor="middle" x="2923" y="-172" font-family="Helvetica,sans-Serif" font-size="10.00">squid.h</text>
</a>
</g>
</g>
<!-- Node1&#45;&gt;Node2 -->
<g id="edge1_Node000001_Node000002" class="edge">
<title>Node1&#45;&gt;Node2</title>
<g id="a_edge1_Node000001_Node000002"><a xlink:title=" ">
<path fill="none" stroke="#63b8ff" d="M3023.72,-219.98C3004.33,-211.42 2974.19,-198.11 2951.93,-188.28"/>
<polygon fill="#63b8ff" stroke="#63b8ff" points="2953.19,-185.01 2942.63,-184.17 2950.36,-191.41 2953.19,-185.01"/>
</a>
</g>
</g>
<!-- Node44 -->
<g id="Node000044" class="node">
<title>Node44</title>
<g id="a_Node000044"><a xlink:href="Stopwatch_8h.html" target="_top" xlink:title=" ">
<polygon fill="white" stroke="#666666" points="3094.5,-184 2991.5,-184 2991.5,-165 3094.5,-165 3094.5,-184"/>
<text text-anchor="middle" x="3043" y="-172" font-family="Helvetica,sans-Serif" font-size="10.00">base/Stopwatch.h</text>
</a>
</g>
</g>
<!-- Node1&#45;&gt;Node44 -->
<g id="edge41_Node000001_Node000044" class="edge">
<title>Node1&#45;&gt;Node44</title>
<g id="a_edge41_Node000001_Node000044"><a xlink:title=" ">
<path fill="none" stroke="#63b8ff" d="M3043,-219.75C3043,-212.8 3043,-202.85 3043,-194.13"/>
<polygon fill="#63b8ff" stroke="#63b8ff" points="3046.5,-194.09 3043,-184.09 3039.5,-194.09 3046.5,-194.09"/>
</a>
</g>
</g>
<!-- Node46 -->
<g id="Node000046" class="node">
<title>Node46</title>
<g id="a_Node000046"><a xlink:href="debug_2Stream_8h.html" target="_top" xlink:title=" ">
<polygon fill="white" stroke="#666666" points="3451,-184 3357,-184 3357,-165 3451,-165 3451,-184"/>
<text text-anchor="middle" x="3404" y="-172" font-family="Helvetica,sans-Serif" font-size="10.00">debug/Stream.h</text>
</a>
</g>
</g>
<!-- Node1&#45;&gt;Node46 -->
<g id="edge44_Node000001_Node000046" class="edge">
<title>Node1&#45;&gt;Node46</title>
<g id="a_edge44_Node000001_Node000046"><a xlink:title=" ">
<path fill="none" stroke="#63b8ff" d="M3101,-219.98C3168.59,-210.06 3279.55,-193.77 3346.79,-183.9"/>
<polygon fill="#63b8ff" stroke="#63b8ff" points="3347.41,-187.35 3356.79,-182.43 3346.39,-180.42 3347.41,-187.35"/>
</a>
</g>
</g>
<!-- Node3 -->
<g id="Node000003" class="node">
<title>Node3</title>
<g id="a_Node000003"><a xlink:href="autoconf_8h.html" target="_top" xlink:title=" ">
<polygon fill="white" stroke="#666666" points="2972,-129 2904,-129 2904,-110 2972,-110 2972,-129"/>
<text text-anchor="middle" x="2938" y="-117" font-family="Helvetica,sans-Serif" font-size="10.00">autoconf.h</text>
</a>
</g>
</g>
<!-- Node2&#45;&gt;Node3 -->
<g id="edge2_Node000002_Node000003" class="edge">
<title>Node2&#45;&gt;Node3</title>
<g id="a_edge2_Node000002_Node000003"><a xlink:title=" ">
<path fill="none" stroke="#63b8ff" d="M2925.48,-164.75C2927.46,-157.72 2930.32,-147.62 2932.81,-138.84"/>
<polygon fill="#63b8ff" stroke="#63b8ff" points="2936.21,-139.66 2935.57,-129.09 2929.48,-137.76 2936.21,-139.66"/>
</a>
</g>
</g>
<!-- Node4 -->
<g id="Node000004" class="node">
<title>Node4</title>
<g id="a_Node000004"><a xlink:href="version_8h.html" target="_top" xlink:title=" ">
<polygon fill="white" stroke="#666666" points="2886,-129 2824,-129 2824,-110 2886,-110 2886,-129"/>
<text text-anchor="middle" x="2855" y="-117" font-family="Helvetica,sans-Serif" font-size="10.00">version.h</text>
</a>
</g>
</g>
<!-- Node2&#45;&gt;Node4 -->
<g id="edge3_Node000002_Node000004" class="edge">
<title>Node2&#45;&gt;Node4</title>
<g id="a_edge3_Node000002_Node000004"><a xlink:title=" ">
<path fill="none" stroke="#63b8ff" d="M2912.07,-164.98C2901.92,-157.07 2886.58,-145.11 2874.35,-135.58"/>
<polygon fill="#63b8ff" stroke="#63b8ff" points="2876.16,-132.56 2866.12,-129.17 2871.86,-138.08 2876.16,-132.56"/>
</a>
</g>
</g>
<!-- Node5 -->
<g id="Node000005" class="node">
<title>Node5</title>
<g id="a_Node000005"><a xlink:href="compat_8h.html" target="_top" xlink:title=" ">
<polygon fill="white" stroke="#666666" points="1738,-129 1636,-129 1636,-110 1738,-110 1738,-129"/>
<text text-anchor="middle" x="1687" y="-117" font-family="Helvetica,sans-Serif" font-size="10.00">compat/compat.h</text>
</a>
</g>
</g>
<!-- Node2&#45;&gt;Node5 -->
<g id="edge4_Node000002_Node000005" class="edge">
<title>Node2&#45;&gt;Node5</title>
<g id="a_edge4_Node000002_Node000005"><a xlink:title=" ">
<path fill="none" stroke="#63b8ff" d="M2896.9,-172.38C2744.94,-165.86 1973.31,-132.78 1748.52,-123.14"/>
<polygon fill="#63b8ff" stroke="#63b8ff" points="1748.38,-119.63 1738.24,-122.7 1748.08,-126.62 1748.38,-119.63"/>
</a>
</g>
</g>
<!-- Node6 -->
<g id="Node000006" class="node">
<title>Node6</title>
<g id="a_Node000006"><a xlink:href="osdetect_8h.html" target="_top" xlink:title=" ">
<polygon fill="white" stroke="#666666" points="2407.5,-74 2300.5,-74 2300.5,-55 2407.5,-55 2407.5,-74"/>
<text text-anchor="middle" x="2354" y="-62" font-family="Helvetica,sans-Serif" font-size="10.00">compat/osdetect.h</text>
</a>
</g>
</g>
<!-- Node5&#45;&gt;Node6 -->
<g id="edge5_Node000005_Node000006" class="edge">
<title>Node5&#45;&gt;Node6</title>
<g id="a_edge5_Node000005_Node000006"><a xlink:title=" ">
<path fill="none" stroke="#63b8ff" d="M1738,-115.79C1840.49,-110.11 2078.94,-95.76 2290.36,-74"/>
<polygon fill="#63b8ff" stroke="#63b8ff" points="2290.82,-77.47 2300.41,-72.96 2290.1,-70.51 2290.82,-77.47"/>
</a>
</g>
</g>
<!-- Node7 -->
<g id="Node000007" class="node">
<title>Node7</title>
<g id="a_Node000007"><a xlink:href="fdsetsize_8h.html" target="_top" xlink:title=" ">
<polygon fill="white" stroke="#666666" points="2536,-74 2426,-74 2426,-55 2536,-55 2536,-74"/>
<text text-anchor="middle" x="2481" y="-62" font-family="Helvetica,sans-Serif" font-size="10.00">compat/fdsetsize.h</text>
</a>
</g>
</g>
<!-- Node5&#45;&gt;Node7 -->
<g id="edge6_Node000005_Node000007" class="edge">
<title>Node5&#45;&gt;Node7</title>
<g id="a_edge6_Node000005_Node000007"><a xlink:title=" ">
<path fill="none" stroke="#63b8ff" d="M1738.36,-116.59C1856.07,-111.94 2154.59,-98.65 2415.66,-73.95"/>
<polygon fill="#63b8ff" stroke="#63b8ff" points="2416.09,-77.43 2425.71,-72.99 2415.42,-70.46 2416.09,-77.43"/>
</a>
</g>
</g>
<!-- Node8 -->
<g id="Node000008" class="node">
<title>Node8</title>
<g id="a_Node000008"><a xlink:href="types_8h.html" target="_top" xlink:title=" ">
<polygon fill="white" stroke="#666666" points="2867,-74 2775,-74 2775,-55 2867,-55 2867,-74"/>
<text text-anchor="middle" x="2821" y="-62" font-family="Helvetica,sans-Serif" font-size="10.00">compat/types.h</text>
</a>
</g>
</g>
<!-- Node5&#45;&gt;Node8 -->
<g id="edge7_Node000005_Node000008" class="edge">
<title>Node5&#45;&gt;Node8</title>
<g id="a_edge7_Node000005_Node000008"><a xlink:title=" ">
<path fill="none" stroke="#63b8ff" d="M1738.2,-118.37C1891.95,-117.56 2363.21,-112 2764.83,-73.87"/>
<polygon fill="#63b8ff" stroke="#63b8ff" points="2765.28,-77.34 2774.9,-72.91 2764.62,-70.37 2765.28,-77.34"/>
</a>
</g>
</g>
<!-- Node10 -->
<g id="Node000010" class="node">
<title>Node10</title>
<g id="a_Node000010"><a xlink:href="aix_8h.html" target="_top" xlink:title=" ">
<polygon fill="white" stroke="#666666" points="2756.5,-74 2661.5,-74 2661.5,-55 2756.5,-55 2756.5,-74"/>
<text text-anchor="middle" x="2709" y="-62" font-family="Helvetica,sans-Serif" font-size="10.00">compat/os/aix.h</text>
</a>
</g>
</g>
<!-- Node5&#45;&gt;Node10 -->
<g id="edge9_Node000005_Node000010" class="edge">
<title>Node5&#45;&gt;Node10</title>
<g id="a_edge9_Node000005_Node000010"><a xlink:title=" ">
<path fill="none" stroke="#63b8ff" d="M1738.13,-117.98C1880.89,-116.12 2295.96,-108.06 2651.49,-73.93"/>
<polygon fill="#63b8ff" stroke="#63b8ff" points="2651.84,-77.41 2661.46,-72.96 2651.17,-70.44 2651.84,-77.41"/>
</a>
</g>
</g>
<!-- Node11 -->
<g id="Node000011" class="node">
<title>Node11</title>
<g id="a_Node000011"><a xlink:href="android_8h.html" target="_top" xlink:title=" ">
<polygon fill="white" stroke="#666666" points="3001,-74 2885,-74 2885,-55 3001,-55 3001,-74"/>
<text text-anchor="middle" x="2943" y="-62" font-family="Helvetica,sans-Serif" font-size="10.00">compat/os/android.h</text>
</a>
</g>
</g>
<!-- Node5&#45;&gt;Node11 -->
<g id="edge10_Node000005_Node000011" class="edge">
<title>Node5&#45;&gt;Node11</title>
<g id="a_edge10_Node000005_Node000011"><a xlink:title=" ">
<path fill="none" stroke="#63b8ff" d="M1738.09,-118.21C1901.82,-116.93 2428.4,-110.14 2874.73,-74.02"/>
<polygon fill="#63b8ff" stroke="#63b8ff" points="2875.25,-77.49 2884.93,-73.19 2874.68,-70.51 2875.25,-77.49"/>
</a>
</g>
</g>
<!-- Node12 -->
<g id="Node000012" class="node">
<title>Node12</title>
<g id="a_Node000012"><a xlink:href="dragonfly_8h.html" target="_top" xlink:title=" ">
<polygon fill="white" stroke="#666666" points="124,-74 0,-74 0,-55 124,-55 124,-74"/>
<text text-anchor="middle" x="62" y="-62" font-family="Helvetica,sans-Serif" font-size="10.00">compat/os/dragonfly.h</text>
</a>
</g>
</g>
<!-- Node5&#45;&gt;Node12 -->
<g id="edge11_Node000005_Node000012" class="edge">
<title>Node5&#45;&gt;Node12</title>
<g id="a_edge11_Node000005_Node000012"><a xlink:title=" ">
<path fill="none" stroke="#63b8ff" d="M1635.94,-118.71C1441.75,-119.18 730.52,-117.65 134.39,-74.03"/>
<polygon fill="#63b8ff" stroke="#63b8ff" points="134.54,-70.53 124.31,-73.28 134.02,-77.51 134.54,-70.53"/>
</a>
</g>
</g>
<!-- Node13 -->
<g id="Node000013" class="node">
<title>Node13</title>
<g id="a_Node000013"><a xlink:href="freebsd_8h.html" target="_top" xlink:title=" ">
<polygon fill="white" stroke="#666666" points="258,-74 142,-74 142,-55 258,-55 258,-74"/>
<text text-anchor="middle" x="200" y="-62" font-family="Helvetica,sans-Serif" font-size="10.00">compat/os/freebsd.h</text>
</a>
</g>
</g>
<!-- Node5&#45;&gt;Node13 -->
<g id="edge12_Node000005_Node000013" class="edge">
<title>Node5&#45;&gt;Node13</title>
<g id="a_edge12_Node000005_Node000013"><a xlink:title=" ">
<path fill="none" stroke="#63b8ff" d="M1635.96,-118.65C1452.54,-118.81 809.42,-116.19 268.43,-74.02"/>
<polygon fill="#63b8ff" stroke="#63b8ff" points="268.31,-70.5 258.07,-73.21 267.77,-77.48 268.31,-70.5"/>
</a>
</g>
</g>
<!-- Node14 -->
<g id="Node000014" class="node">
<title>Node14</title>
<g id="a_Node000014"><a xlink:href="hpux_8h.html" target="_top" xlink:title=" ">
<polygon fill="white" stroke="#666666" points="380,-74 276,-74 276,-55 380,-55 380,-74"/>
<text text-anchor="middle" x="328" y="-62" font-family="Helvetica,sans-Serif" font-size="10.00">compat/os/hpux.h</text>
</a>
</g>
</g>
<!-- Node5&#45;&gt;Node14 -->
<g id="edge13_Node000005_Node000014" class="edge">
<title>Node5&#45;&gt;Node14</title>
<g id="a_edge13_Node000005_Node000014"><a xlink:title=" ">
<path fill="none" stroke="#63b8ff" d="M1635.86,-118.66C1462.47,-118.79 880.84,-115.93 390.32,-74.01"/>
<polygon fill="#63b8ff" stroke="#63b8ff" points="390.47,-70.51 380.2,-73.14 389.87,-77.48 390.47,-70.51"/>
</a>
</g>
</g>
<!-- Node15 -->
<g id="Node000015" class="node">
<title>Node15</title>
<g id="a_Node000015"><a xlink:href="linux_8h.html" target="_top" xlink:title=" ">
<polygon fill="white" stroke="#666666" points="502,-74 398,-74 398,-55 502,-55 502,-74"/>
<text text-anchor="middle" x="450" y="-62" font-family="Helvetica,sans-Serif" font-size="10.00">compat/os/linux.h</text>
</a>
</g>
</g>
<!-- Node5&#45;&gt;Node15 -->
<g id="edge14_Node000005_Node000015" class="edge">
<title>Node5&#45;&gt;Node15</title>
<g id="a_edge14_Node000005_Node000015"><a xlink:title=" ">
<path fill="none" stroke="#63b8ff" d="M1635.88,-118.4C1473.22,-117.69 952.96,-112.43 512.27,-74.01"/>
<polygon fill="#63b8ff" stroke="#63b8ff" points="512.47,-70.52 502.2,-73.13 511.86,-77.49 512.47,-70.52"/>
</a>
</g>
</g>
<!-- Node16 -->
<g id="Node000016" class="node">
<title>Node16</title>
<g id="a_Node000016"><a xlink:href="macosx_8h.html" target="_top" xlink:title=" ">
<polygon fill="white" stroke="#666666" points="638,-74 520,-74 520,-55 638,-55 638,-74"/>
<text text-anchor="middle" x="579" y="-62" font-family="Helvetica,sans-Serif" font-size="10.00">compat/os/macosx.h</text>
</a>
</g>
</g>
<!-- Node5&#45;&gt;Node16 -->
<g id="edge15_Node000005_Node000016" class="edge">
<title>Node5&#45;&gt;Node16</title>
<g id="a_edge15_Node000005_Node000016"><a xlink:title=" ">
<path fill="none" stroke="#63b8ff" d="M1635.78,-117.79C1485.71,-115.38 1033.9,-105.9 648.54,-74.06"/>
<polygon fill="#63b8ff" stroke="#63b8ff" points="648.56,-70.54 638.31,-73.2 647.98,-77.52 648.56,-70.54"/>
</a>
</g>
</g>
<!-- Node17 -->
<g id="Node000017" class="node">
<title>Node17</title>
<g id="a_Node000017"><a xlink:href="mingw_8h.html" target="_top" xlink:title=" ">
<polygon fill="white" stroke="#666666" points="768,-74 656,-74 656,-55 768,-55 768,-74"/>
<text text-anchor="middle" x="712" y="-62" font-family="Helvetica,sans-Serif" font-size="10.00">compat/os/mingw.h</text>
</a>
</g>
</g>
<!-- Node5&#45;&gt;Node17 -->
<g id="edge16_Node000005_Node000017" class="edge">
<title>Node5&#45;&gt;Node17</title>
<g id="a_edge16_Node000005_Node000017"><a xlink:title=" ">
<path fill="none" stroke="#63b8ff" d="M1635.59,-117.45C1498.24,-114.32 1111.16,-103.47 778.66,-74.07"/>
<polygon fill="#63b8ff" stroke="#63b8ff" points="778.61,-70.55 768.34,-73.15 777.99,-77.53 778.61,-70.55"/>
</a>
</g>
</g>
<!-- Node18 -->
<g id="Node000018" class="node">
<title>Node18</title>
<g id="a_Node000018"><a xlink:href="mswindows_8h.html" target="_top" xlink:title=" ">
<polygon fill="white" stroke="#666666" points="923.5,-74 786.5,-74 786.5,-55 923.5,-55 923.5,-74"/>
<text text-anchor="middle" x="855" y="-62" font-family="Helvetica,sans-Serif" font-size="10.00">compat/os/mswindows.h</text>
</a>
</g>
</g>
<!-- Node5&#45;&gt;Node18 -->
<g id="edge17_Node000005_Node000018" class="edge">
<title>Node5&#45;&gt;Node18</title>
<g id="a_edge17_Node000005_Node000018"><a xlink:title=" ">
<path fill="none" stroke="#63b8ff" d="M1635.67,-116.38C1515.07,-111.2 1204.01,-96.72 933.83,-74.12"/>
<polygon fill="#63b8ff" stroke="#63b8ff" points="934.09,-70.63 923.83,-73.27 933.5,-77.6 934.09,-70.63"/>
</a>
</g>
</g>
<!-- Node19 -->
<g id="Node000019" class="node">
<title>Node19</title>
<g id="a_Node000019"><a xlink:href="netbsd_8h.html" target="_top" xlink:title=" ">
<polygon fill="white" stroke="#666666" points="1054.5,-74 941.5,-74 941.5,-55 1054.5,-55 1054.5,-74"/>
<text text-anchor="middle" x="998" y="-62" font-family="Helvetica,sans-Serif" font-size="10.00">compat/os/netbsd.h</text>
</a>
</g>
</g>
<!-- Node5&#45;&gt;Node19 -->
<g id="edge18_Node000005_Node000019" class="edge">
<title>Node5&#45;&gt;Node19</title>
<g id="a_edge18_Node000005_Node000019"><a xlink:title=" ">
<path fill="none" stroke="#63b8ff" d="M1635.96,-115.88C1530.96,-110.27 1282.99,-95.88 1064.74,-74.12"/>
<polygon fill="#63b8ff" stroke="#63b8ff" points="1065,-70.63 1054.7,-73.11 1064.3,-77.6 1065,-70.63"/>
</a>
</g>
</g>
<!-- Node20 -->
<g id="Node000020" class="node">
<title>Node20</title>
<g id="a_Node000020"><a xlink:href="openbsd_8h.html" target="_top" xlink:title=" ">
<polygon fill="white" stroke="#666666" points="1193.5,-74 1072.5,-74 1072.5,-55 1193.5,-55 1193.5,-74"/>
<text text-anchor="middle" x="1133" y="-62" font-family="Helvetica,sans-Serif" font-size="10.00">compat/os/openbsd.h</text>
</a>
</g>
</g>
<!-- Node5&#45;&gt;Node20 -->
<g id="edge19_Node000005_Node000020" class="edge">
<title>Node5&#45;&gt;Node20</title>
<g id="a_edge19_Node000005_Node000020"><a xlink:title=" ">
<path fill="none" stroke="#63b8ff" d="M1635.97,-114.34C1549.34,-107.17 1367.7,-91.64 1203.84,-74.17"/>
<polygon fill="#63b8ff" stroke="#63b8ff" points="1203.89,-70.65 1193.57,-73.07 1203.14,-77.61 1203.89,-70.65"/>
</a>
</g>
</g>
<!-- Node21 -->
<g id="Node000021" class="node">
<title>Node21</title>
<g id="a_Node000021"><a xlink:href="os2_8h.html" target="_top" xlink:title=" ">
<polygon fill="white" stroke="#666666" points="1308.5,-74 1211.5,-74 1211.5,-55 1308.5,-55 1308.5,-74"/>
<text text-anchor="middle" x="1260" y="-62" font-family="Helvetica,sans-Serif" font-size="10.00">compat/os/os2.h</text>
</a>
</g>
</g>
<!-- Node5&#45;&gt;Node21 -->
<g id="edge20_Node000005_Node000021" class="edge">
<title>Node5&#45;&gt;Node21</title>
<g id="a_edge20_Node000005_Node000021"><a xlink:title=" ">
<path fill="none" stroke="#63b8ff" d="M1635.91,-112.76C1566.59,-104.87 1438.61,-89.98 1318.8,-74.08"/>
<polygon fill="#63b8ff" stroke="#63b8ff" points="1319.1,-70.58 1308.72,-72.73 1318.17,-77.52 1319.1,-70.58"/>
</a>
</g>
</g>
<!-- Node22 -->
<g id="Node000022" class="node">
<title>Node22</title>
<g id="a_Node000022"><a xlink:href="qnx_8h.html" target="_top" xlink:title=" ">
<polygon fill="white" stroke="#666666" points="1425,-74 1327,-74 1327,-55 1425,-55 1425,-74"/>
<text text-anchor="middle" x="1376" y="-62" font-family="Helvetica,sans-Serif" font-size="10.00">compat/os/qnx.h</text>
</a>
</g>
</g>
<!-- Node5&#45;&gt;Node22 -->
<g id="edge21_Node000005_Node000022" class="edge">
<title>Node5&#45;&gt;Node22</title>
<g id="a_edge21_Node000005_Node000022"><a xlink:title=" ">
<path fill="none" stroke="#63b8ff" d="M1637.03,-109.98C1582.04,-100.61 1493.71,-85.56 1435.26,-75.6"/>
<polygon fill="#63b8ff" stroke="#63b8ff" points="1435.52,-72.09 1425.07,-73.86 1434.34,-78.99 1435.52,-72.09"/>
</a>
</g>
</g>
<!-- Node23 -->
<g id="Node000023" class="node">
<title>Node23</title>
<g id="a_Node000023"><a xlink:href="solaris_8h.html" target="_top" xlink:title=" ">
<polygon fill="white" stroke="#666666" points="1555,-74 1443,-74 1443,-55 1555,-55 1555,-74"/>
<text text-anchor="middle" x="1499" y="-62" font-family="Helvetica,sans-Serif" font-size="10.00">compat/os/solaris.h</text>
</a>
</g>
</g>
<!-- Node5&#45;&gt;Node23 -->
<g id="edge22_Node000005_Node000023" class="edge">
<title>Node5&#45;&gt;Node23</title>
<g id="a_edge22_Node000005_Node000023"><a xlink:title=" ">
<path fill="none" stroke="#63b8ff" d="M1656.79,-109.98C1624.96,-101.01 1574.64,-86.82 1539.4,-76.89"/>
<polygon fill="#63b8ff" stroke="#63b8ff" points="1540.02,-73.43 1529.44,-74.08 1538.12,-80.16 1540.02,-73.43"/>
</a>
</g>
</g>
<!-- Node24 -->
<g id="Node000024" class="node">
<title>Node24</title>
<g id="a_Node000024"><a xlink:href="sunos_8h.html" target="_top" xlink:title=" ">
<polygon fill="white" stroke="#666666" points="1681,-74 1573,-74 1573,-55 1681,-55 1681,-74"/>
<text text-anchor="middle" x="1627" y="-62" font-family="Helvetica,sans-Serif" font-size="10.00">compat/os/sunos.h</text>
</a>
</g>
</g>
<!-- Node5&#45;&gt;Node24 -->
<g id="edge23_Node000005_Node000024" class="edge">
<title>Node5&#45;&gt;Node24</title>
<g id="a_edge23_Node000005_Node000024"><a xlink:title=" ">
<path fill="none" stroke="#63b8ff" d="M1677.36,-109.98C1668.49,-102.15 1655.13,-90.34 1644.39,-80.86"/>
<polygon fill="#63b8ff" stroke="#63b8ff" points="1646.63,-78.17 1636.82,-74.17 1641.99,-83.41 1646.63,-78.17"/>
</a>
</g>
</g>
<!-- Node25 -->
<g id="Node000025" class="node">
<title>Node25</title>
<g id="a_Node000025"><a xlink:href="assert_8h.html" target="_top" xlink:title=" ">
<polygon fill="white" stroke="#666666" points="1794.5,-74 1699.5,-74 1699.5,-55 1794.5,-55 1794.5,-74"/>
<text text-anchor="middle" x="1747" y="-62" font-family="Helvetica,sans-Serif" font-size="10.00">compat/assert.h</text>
</a>
</g>
</g>
<!-- Node5&#45;&gt;Node25 -->
<g id="edge24_Node000005_Node000025" class="edge">
<title>Node5&#45;&gt;Node25</title>
<g id="a_edge24_Node000005_Node000025"><a xlink:title=" ">
<path fill="none" stroke="#63b8ff" d="M1696.64,-109.98C1705.51,-102.15 1718.87,-90.34 1729.61,-80.86"/>
<polygon fill="#63b8ff" stroke="#63b8ff" points="1732.01,-83.41 1737.18,-74.17 1727.37,-78.17 1732.01,-83.41"/>
</a>
</g>
</g>
<!-- Node26 -->
<g id="Node000026" class="node">
<title>Node26</title>
<g id="a_Node000026"><a xlink:href="compat__shared_8h.html" target="_top" xlink:title=" ">
<polygon fill="white" stroke="#666666" points="3259,-74 3119,-74 3119,-55 3259,-55 3259,-74"/>
<text text-anchor="middle" x="3189" y="-62" font-family="Helvetica,sans-Serif" font-size="10.00">compat/compat_shared.h</text>
</a>
</g>
</g>
<!-- Node5&#45;&gt;Node26 -->
<g id="edge25_Node000005_Node000026" class="edge">
<title>Node5&#45;&gt;Node26</title>
<g id="a_edge25_Node000005_Node000026"><a xlink:title=" ">
<path fill="none" stroke="#63b8ff" d="M1738.09,-117.04C1914.53,-111.93 2514.58,-94.09 3010,-74 3042.26,-72.69 3077.78,-71.05 3108.61,-69.55"/>
<polygon fill="#63b8ff" stroke="#63b8ff" points="3109.06,-73.04 3118.88,-69.05 3108.72,-66.05 3109.06,-73.04"/>
</a>
</g>
</g>
<!-- Node36 -->
<g id="Node000036" class="node">
<title>Node36</title>
<g id="a_Node000036"><a xlink:href="stdvarargs_8h.html" target="_top" xlink:title=" ">
<polygon fill="white" stroke="#666666" points="1929.5,-74 1812.5,-74 1812.5,-55 1929.5,-55 1929.5,-74"/>
<text text-anchor="middle" x="1871" y="-62" font-family="Helvetica,sans-Serif" font-size="10.00">compat/stdvarargs.h</text>
</a>
</g>
</g>
<!-- Node5&#45;&gt;Node36 -->
<g id="edge34_Node000005_Node000036" class="edge">
<title>Node5&#45;&gt;Node36</title>
<g id="a_edge34_Node000005_Node000036"><a xlink:title=" ">
<path fill="none" stroke="#63b8ff" d="M1716.56,-109.98C1747.72,-101.01 1796.97,-86.82 1831.46,-76.89"/>
<polygon fill="#63b8ff" stroke="#63b8ff" points="1832.57,-80.21 1841.21,-74.08 1830.63,-73.49 1832.57,-80.21"/>
</a>
</g>
</g>
<!-- Node38 -->
<g id="Node000038" class="node">
<title>Node38</title>
<g id="a_Node000038"><a xlink:href="stdio_8h.html" target="_top" xlink:title=" ">
<polygon fill="white" stroke="#666666" points="2643.5,-74 2554.5,-74 2554.5,-55 2643.5,-55 2643.5,-74"/>
<text text-anchor="middle" x="2599" y="-62" font-family="Helvetica,sans-Serif" font-size="10.00">compat/stdio.h</text>
</a>
</g>
</g>
<!-- Node5&#45;&gt;Node38 -->
<g id="edge36_Node000005_Node000038" class="edge">
<title>Node5&#45;&gt;Node38</title>
<g id="a_edge36_Node000005_Node000038"><a xlink:title=" ">
<path fill="none" stroke="#63b8ff" d="M1738.4,-117.7C1870.41,-115.25 2232.25,-106.01 2544.12,-73.96"/>
<polygon fill="#63b8ff" stroke="#63b8ff" points="2544.67,-77.42 2554.26,-72.91 2543.95,-70.46 2544.67,-77.42"/>
</a>
</g>
</g>
<!-- Node40 -->
<g id="Node000040" class="node">
<title>Node40</title>
<g id="a_Node000040"><a xlink:href="statvfs_8h.html" target="_top" xlink:title=" ">
<polygon fill="white" stroke="#666666" points="2046.5,-74 1947.5,-74 1947.5,-55 2046.5,-55 2046.5,-74"/>
<text text-anchor="middle" x="1997" y="-62" font-family="Helvetica,sans-Serif" font-size="10.00">compat/statvfs.h</text>
</a>
</g>
</g>
<!-- Node5&#45;&gt;Node40 -->
<g id="edge38_Node000005_Node000040" class="edge">
<title>Node5&#45;&gt;Node40</title>
<g id="a_edge38_Node000005_Node000040"><a xlink:title=" ">
<path fill="none" stroke="#63b8ff" d="M1736.81,-109.98C1791.38,-100.65 1878.89,-85.69 1937.15,-75.73"/>
<polygon fill="#63b8ff" stroke="#63b8ff" points="1938.05,-79.13 1947.32,-73.99 1936.87,-72.23 1938.05,-79.13"/>
</a>
</g>
</g>
<!-- Node41 -->
<g id="Node000041" class="node">
<title>Node41</title>
<g id="a_Node000041"><a xlink:href="debug_8h.html" target="_top" xlink:title=" ">
<polygon fill="white" stroke="#666666" points="2159.5,-74 2064.5,-74 2064.5,-55 2159.5,-55 2159.5,-74"/>
<text text-anchor="middle" x="2112" y="-62" font-family="Helvetica,sans-Serif" font-size="10.00">compat/debug.h</text>
</a>
</g>
</g>
<!-- Node5&#45;&gt;Node41 -->
<g id="edge39_Node000005_Node000041" class="edge">
<title>Node5&#45;&gt;Node41</title>
<g id="a_edge39_Node000005_Node000041"><a xlink:title=" ">
<path fill="none" stroke="#63b8ff" d="M1738.26,-112.76C1807.46,-104.9 1934.91,-90.08 2054.37,-74.05"/>
<polygon fill="#63b8ff" stroke="#63b8ff" points="2054.99,-77.5 2064.43,-72.69 2054.05,-70.56 2054.99,-77.5"/>
</a>
</g>
</g>
<!-- Node42 -->
<g id="Node000042" class="node">
<title>Node42</title>
<g id="a_Node000042"><a xlink:href="valgrind_8h.html" target="_top" xlink:title=" ">
<polygon fill="#fff0f0" stroke="red" points="2282.5,-74 2177.5,-74 2177.5,-55 2282.5,-55 2282.5,-74"/>
<text text-anchor="middle" x="2230" y="-62" font-family="Helvetica,sans-Serif" font-size="10.00">compat/valgrind.h</text>
</a>
</g>
</g>
<!-- Node5&#45;&gt;Node42 -->
<g id="edge40_Node000005_Node000042" class="edge">
<title>Node5&#45;&gt;Node42</title>
<g id="a_edge40_Node000005_Node000042"><a xlink:title=" ">
<path fill="none" stroke="#63b8ff" d="M1738.33,-114.5C1824.56,-107.61 2004.22,-92.56 2167.05,-74.06"/>
<polygon fill="#63b8ff" stroke="#63b8ff" points="2167.72,-77.51 2177.25,-72.89 2166.92,-70.55 2167.72,-77.51"/>
</a>
</g>
</g>
<!-- Node9 -->
<g id="Node000009" class="node">
<title>Node9</title>
<g id="a_Node000009"><a xlink:title=" ">
<polygon fill="#e0e0e0" stroke="#999999" points="2815,-19 2765,-19 2765,0 2815,0 2815,-19"/>
<text text-anchor="middle" x="2790" y="-7" font-family="Helvetica,sans-Serif" font-size="10.00">cstdint</text>
</a>
</g>
</g>
<!-- Node8&#45;&gt;Node9 -->
<g id="edge8_Node000008_Node000009" class="edge">
<title>Node8&#45;&gt;Node9</title>
<g id="a_edge8_Node000008_Node000009"><a xlink:title=" ">
<path fill="none" stroke="#63b8ff" d="M2815.88,-54.75C2811.64,-47.49 2805.47,-36.95 2800.22,-27.98"/>
<polygon fill="#63b8ff" stroke="#63b8ff" points="2803.09,-25.95 2795.02,-19.09 2797.05,-29.49 2803.09,-25.95"/>
</a>
</g>
</g>
<!-- Node27 -->
<g id="Node000027" class="node">
<title>Node27</title>
<g id="a_Node000027"><a xlink:title=" ">
<polygon fill="#e0e0e0" stroke="#999999" points="3690.5,-19 3639.5,-19 3639.5,0 3690.5,0 3690.5,-19"/>
<text text-anchor="middle" x="3665" y="-7" font-family="Helvetica,sans-Serif" font-size="10.00">csignal</text>
</a>
</g>
</g>
<!-- Node26&#45;&gt;Node27 -->
<g id="edge26_Node000026_Node000027" class="edge">
<title>Node26&#45;&gt;Node27</title>
<g id="a_edge26_Node000026_Node000027"><a xlink:title=" ">
<path fill="none" stroke="#63b8ff" d="M3259.21,-55.92C3262.18,-55.6 3265.12,-55.3 3268,-55 3425.96,-38.67 3469.49,-46.4 3629.27,-19.07"/>
<polygon fill="#63b8ff" stroke="#63b8ff" points="3630.21,-22.46 3639.47,-17.31 3629.02,-15.56 3630.21,-22.46"/>
</a>
</g>
</g>
<!-- Node28 -->
<g id="Node000028" class="node">
<title>Node28</title>
<g id="a_Node000028"><a xlink:href="xalloc_8h.html" target="_top" xlink:title=" ">
<polygon fill="white" stroke="#666666" points="2928.5,-19 2833.5,-19 2833.5,0 2928.5,0 2928.5,-19"/>
<text text-anchor="middle" x="2881" y="-7" font-family="Helvetica,sans-Serif" font-size="10.00">compat/xalloc.h</text>
</a>
</g>
</g>
<!-- Node26&#45;&gt;Node28 -->
<g id="edge27_Node000026_Node000028" class="edge">
<title>Node26&#45;&gt;Node28</title>
<g id="a_edge27_Node000026_Node000028"><a xlink:title=" ">
<path fill="none" stroke="#63b8ff" d="M3139.51,-54.98C3084.73,-45.56 2996.54,-30.38 2938.67,-20.42"/>
<polygon fill="#63b8ff" stroke="#63b8ff" points="2939.04,-16.94 2928.59,-18.69 2937.85,-23.83 2939.04,-16.94"/>
</a>
</g>
</g>
<!-- Node29 -->
<g id="Node000029" class="node">
<title>Node29</title>
<g id="a_Node000029"><a xlink:href="xis_8h.html" target="_top" xlink:title=" ">
<polygon fill="#fff0f0" stroke="red" points="3027,-19 2947,-19 2947,0 3027,0 3027,-19"/>
<text text-anchor="middle" x="2987" y="-7" font-family="Helvetica,sans-Serif" font-size="10.00">compat/xis.h</text>
</a>
</g>
</g>
<!-- Node26&#45;&gt;Node29 -->
<g id="edge28_Node000026_Node000029" class="edge">
<title>Node26&#45;&gt;Node29</title>
<g id="a_edge28_Node000026_Node000029"><a xlink:title=" ">
<path fill="none" stroke="#63b8ff" d="M3156.55,-54.98C3122.04,-45.93 3067.34,-31.58 3029.44,-21.64"/>
<polygon fill="#63b8ff" stroke="#63b8ff" points="3030.27,-18.23 3019.71,-19.08 3028.49,-25.01 3030.27,-18.23"/>
</a>
</g>
</g>
<!-- Node31 -->
<g id="Node000031" class="node">
<title>Node31</title>
<g id="a_Node000031"><a xlink:href="xstrerror_8h.html" target="_top" xlink:title=" ">
<polygon fill="white" stroke="#666666" points="3152.5,-19 3045.5,-19 3045.5,0 3152.5,0 3152.5,-19"/>
<text text-anchor="middle" x="3099" y="-7" font-family="Helvetica,sans-Serif" font-size="10.00">compat/xstrerror.h</text>
</a>
</g>
</g>
<!-- Node26&#45;&gt;Node31 -->
<g id="edge29_Node000026_Node000031" class="edge">
<title>Node26&#45;&gt;Node31</title>
<g id="a_edge29_Node000026_Node000031"><a xlink:title=" ">
<path fill="none" stroke="#63b8ff" d="M3174.54,-54.98C3160.58,-46.77 3139.21,-34.18 3122.75,-24.49"/>
<polygon fill="#63b8ff" stroke="#63b8ff" points="3124.12,-21.23 3113.72,-19.17 3120.56,-27.26 3124.12,-21.23"/>
</a>
</g>
</g>
<!-- Node32 -->
<g id="Node000032" class="node">
<title>Node32</title>
<g id="a_Node000032"><a xlink:href="xstring_8h.html" target="_top" xlink:title=" ">
<polygon fill="white" stroke="#666666" points="3269.5,-19 3170.5,-19 3170.5,0 3269.5,0 3269.5,-19"/>
<text text-anchor="middle" x="3220" y="-7" font-family="Helvetica,sans-Serif" font-size="10.00">compat/xstring.h</text>
</a>
</g>
</g>
<!-- Node26&#45;&gt;Node32 -->
<g id="edge30_Node000026_Node000032" class="edge">
<title>Node26&#45;&gt;Node32</title>
<g id="a_edge30_Node000026_Node000032"><a xlink:title=" ">
<path fill="none" stroke="#63b8ff" d="M3194.12,-54.75C3198.36,-47.49 3204.53,-36.95 3209.78,-27.98"/>
<polygon fill="#63b8ff" stroke="#63b8ff" points="3212.95,-29.49 3214.98,-19.09 3206.91,-25.95 3212.95,-29.49"/>
</a>
</g>
</g>
<!-- Node33 -->
<g id="Node000033" class="node">
<title>Node33</title>
<g id="a_Node000033"><a xlink:href="xstrto_8h.html" target="_top" xlink:title=" ">
<polygon fill="white" stroke="#666666" points="3382,-19 3288,-19 3288,0 3382,0 3382,-19"/>
<text text-anchor="middle" x="3335" y="-7" font-family="Helvetica,sans-Serif" font-size="10.00">compat/xstrto.h</text>
</a>
</g>
</g>
<!-- Node26&#45;&gt;Node33 -->
<g id="edge31_Node000026_Node000033" class="edge">
<title>Node26&#45;&gt;Node33</title>
<g id="a_edge31_Node000026_Node000033"><a xlink:title=" ">
<path fill="none" stroke="#63b8ff" d="M3212.46,-54.98C3236.58,-46.23 3274.37,-32.51 3301.6,-22.62"/>
<polygon fill="#63b8ff" stroke="#63b8ff" points="3302.91,-25.87 3311.12,-19.17 3300.52,-19.29 3302.91,-25.87"/>
</a>
</g>
</g>
<!-- Node34 -->
<g id="Node000034" class="node">
<title>Node34</title>
<g id="a_Node000034"><a xlink:href="strtoll_8h.html" target="_top" xlink:title=" ">
<polygon fill="white" stroke="#666666" points="3494,-19 3400,-19 3400,0 3494,0 3494,-19"/>
<text text-anchor="middle" x="3447" y="-7" font-family="Helvetica,sans-Serif" font-size="10.00">compat/strtoll.h</text>
</a>
</g>
</g>
<!-- Node26&#45;&gt;Node34 -->
<g id="edge32_Node000026_Node000034" class="edge">
<title>Node26&#45;&gt;Node34</title>
<g id="a_edge32_Node000026_Node000034"><a xlink:title=" ">
<path fill="none" stroke="#63b8ff" d="M3230.45,-54.98C3275.27,-45.78 3346.77,-31.09 3395.25,-21.13"/>
<polygon fill="#63b8ff" stroke="#63b8ff" points="3396.13,-24.52 3405.22,-19.08 3394.72,-17.67 3396.13,-24.52"/>
</a>
</g>
</g>
<!-- Node35 -->
<g id="Node000035" class="node">
<title>Node35</title>
<g id="a_Node000035"><a xlink:href="memrchr_8h.html" target="_top" xlink:title=" ">
<polygon fill="white" stroke="#666666" points="3621.5,-19 3512.5,-19 3512.5,0 3621.5,0 3621.5,-19"/>
<text text-anchor="middle" x="3567" y="-7" font-family="Helvetica,sans-Serif" font-size="10.00">compat/memrchr.h</text>
</a>
</g>
</g>
<!-- Node26&#45;&gt;Node35 -->
<g id="edge33_Node000026_Node000035" class="edge">
<title>Node26&#45;&gt;Node35</title>
<g id="a_edge33_Node000026_Node000035"><a xlink:title=" ">
<path fill="none" stroke="#63b8ff" d="M3249.73,-54.98C3318.85,-45.29 3431.32,-29.52 3502.12,-19.6"/>
<polygon fill="#63b8ff" stroke="#63b8ff" points="3502.83,-23.03 3512.25,-18.18 3501.86,-16.1 3502.83,-23.03"/>
</a>
</g>
</g>
<!-- Node37 -->
<g id="Node000037" class="node">
<title>Node37</title>
<g id="a_Node000037"><a xlink:title=" ">
<polygon fill="#e0e0e0" stroke="#999999" points="1897.5,-19 1844.5,-19 1844.5,0 1897.5,0 1897.5,-19"/>
<text text-anchor="middle" x="1871" y="-7" font-family="Helvetica,sans-Serif" font-size="10.00">cstdarg</text>
</a>
</g>
</g>
<!-- Node36&#45;&gt;Node37 -->
<g id="edge35_Node000036_Node000037" class="edge">
<title>Node36&#45;&gt;Node37</title>
<g id="a_edge35_Node000036_Node000037"><a xlink:title=" ">
<path fill="none" stroke="#63b8ff" d="M1871,-54.75C1871,-47.8 1871,-37.85 1871,-29.13"/>
<polygon fill="#63b8ff" stroke="#63b8ff" points="1874.5,-29.09 1871,-19.09 1867.5,-29.09 1874.5,-29.09"/>
</a>
</g>
</g>
<!-- Node39 -->
<g id="Node000039" class="node">
<title>Node39</title>
<g id="a_Node000039"><a xlink:title=" ">
<polygon fill="#e0e0e0" stroke="#999999" points="2622,-19 2576,-19 2576,0 2622,0 2622,-19"/>
<text text-anchor="middle" x="2599" y="-7" font-family="Helvetica,sans-Serif" font-size="10.00">cstdio</text>
</a>
</g>
</g>
<!-- Node38&#45;&gt;Node39 -->
<g id="edge37_Node000038_Node000039" class="edge">
<title>Node38&#45;&gt;Node39</title>
<g id="a_edge37_Node000038_Node000039"><a xlink:title=" ">
<path fill="none" stroke="#63b8ff" d="M2599,-54.75C2599,-47.8 2599,-37.85 2599,-29.13"/>
<polygon fill="#63b8ff" stroke="#63b8ff" points="2602.5,-29.09 2599,-19.09 2595.5,-29.09 2602.5,-29.09"/>
</a>
</g>
</g>
<!-- Node44&#45;&gt;Node9 -->
<g id="edge43_Node000044_Node000009" class="edge">
<title>Node44&#45;&gt;Node9</title>
<g id="a_edge43_Node000044_Node000009"><a xlink:title=" ">
<path fill="none" stroke="#63b8ff" d="M3043.42,-164.8C3043.98,-142.82 3042.18,-84.69 3010,-55 2950.41,-0.02 2909.34,-34.43 2825.15,-18.98"/>
<polygon fill="#63b8ff" stroke="#63b8ff" points="2825.71,-15.52 2815.22,-16.96 2824.32,-22.38 2825.71,-15.52"/>
</a>
</g>
</g>
<!-- Node45 -->
<g id="Node000045" class="node">
<title>Node45</title>
<g id="a_Node000045"><a xlink:title=" ">
<polygon fill="#e0e0e0" stroke="#999999" points="3107,-129 3057,-129 3057,-110 3107,-110 3107,-129"/>
<text text-anchor="middle" x="3082" y="-117" font-family="Helvetica,sans-Serif" font-size="10.00">chrono</text>
</a>
</g>
</g>
<!-- Node44&#45;&gt;Node45 -->
<g id="edge42_Node000044_Node000045" class="edge">
<title>Node44&#45;&gt;Node45</title>
<g id="a_edge42_Node000044_Node000045"><a xlink:title=" ">
<path fill="none" stroke="#63b8ff" d="M3049.44,-164.75C3054.89,-157.34 3062.86,-146.5 3069.56,-137.41"/>
<polygon fill="#63b8ff" stroke="#63b8ff" points="3072.57,-139.22 3075.68,-129.09 3066.93,-135.07 3072.57,-139.22"/>
</a>
</g>
</g>
<!-- Node47 -->
<g id="Node000047" class="node">
<title>Node47</title>
<g id="a_Node000047"><a xlink:href="Here_8h.html" target="_top" xlink:title=" ">
<polygon fill="white" stroke="#666666" points="3269.5,-129 3194.5,-129 3194.5,-110 3269.5,-110 3269.5,-129"/>
<text text-anchor="middle" x="3232" y="-117" font-family="Helvetica,sans-Serif" font-size="10.00">base/Here.h</text>
</a>
</g>
</g>
<!-- Node46&#45;&gt;Node47 -->
<g id="edge45_Node000046_Node000047" class="edge">
<title>Node46&#45;&gt;Node47</title>
<g id="a_edge45_Node000046_Node000047"><a xlink:title=" ">
<path fill="none" stroke="#63b8ff" d="M3376.37,-164.98C3347.49,-156.09 3301.99,-142.07 3269.8,-132.15"/>
<polygon fill="#63b8ff" stroke="#63b8ff" points="3270.44,-128.68 3259.85,-129.08 3268.38,-135.37 3270.44,-128.68"/>
</a>
</g>
</g>
<!-- Node49 -->
<g id="Node000049" class="node">
<title>Node49</title>
<g id="a_Node000049"><a xlink:href="AllocatorProxy_8h.html" target="_top" xlink:title=" ">
<polygon fill="white" stroke="#666666" points="3411,-129 3287,-129 3287,-110 3411,-110 3411,-129"/>
<text text-anchor="middle" x="3349" y="-117" font-family="Helvetica,sans-Serif" font-size="10.00">mem/AllocatorProxy.h</text>
</a>
</g>
</g>
<!-- Node46&#45;&gt;Node49 -->
<g id="edge47_Node000046_Node000049" class="edge">
<title>Node46&#45;&gt;Node49</title>
<g id="a_edge47_Node000046_Node000049"><a xlink:title=" ">
<path fill="none" stroke="#63b8ff" d="M3394.92,-164.75C3386.91,-157.03 3375.04,-145.6 3365.38,-136.28"/>
<polygon fill="#63b8ff" stroke="#63b8ff" points="3367.54,-133.51 3357.91,-129.09 3362.69,-138.55 3367.54,-133.51"/>
</a>
</g>
</g>
<!-- Node50 -->
<g id="Node000050" class="node">
<title>Node50</title>
<g id="a_Node000050"><a xlink:title=" ">
<polygon fill="#e0e0e0" stroke="#999999" points="3489,-129 3429,-129 3429,-110 3489,-110 3489,-129"/>
<text text-anchor="middle" x="3459" y="-117" font-family="Helvetica,sans-Serif" font-size="10.00">iostream</text>
</a>
</g>
</g>
<!-- Node46&#45;&gt;Node50 -->
<g id="edge48_Node000046_Node000050" class="edge">
<title>Node46&#45;&gt;Node50</title>
<g id="a_edge48_Node000046_Node000050"><a xlink:title=" ">
<path fill="none" stroke="#63b8ff" d="M3413.08,-164.75C3421.09,-157.03 3432.96,-145.6 3442.62,-136.28"/>
<polygon fill="#63b8ff" stroke="#63b8ff" points="3445.31,-138.55 3450.09,-129.09 3440.46,-133.51 3445.31,-138.55"/>
</a>
</g>
</g>
<!-- Node51 -->
<g id="Node000051" class="node">
<title>Node51</title>
<g id="a_Node000051"><a xlink:title=" ">
<polygon fill="#e0e0e0" stroke="#999999" points="3563,-129 3507,-129 3507,-110 3563,-110 3563,-129"/>
<text text-anchor="middle" x="3535" y="-117" font-family="Helvetica,sans-Serif" font-size="10.00">sstream</text>
</a>
</g>
</g>
<!-- Node46&#45;&gt;Node51 -->
<g id="edge49_Node000046_Node000051" class="edge">
<title>Node46&#45;&gt;Node51</title>
<g id="a_edge49_Node000046_Node000051"><a xlink:title=" ">
<path fill="none" stroke="#63b8ff" d="M3425.05,-164.98C3446.41,-156.34 3479.7,-142.87 3504.06,-133.02"/>
<polygon fill="#63b8ff" stroke="#63b8ff" points="3505.61,-136.17 3513.57,-129.17 3502.99,-129.68 3505.61,-136.17"/>
</a>
</g>
</g>
<!-- Node52 -->
<g id="Node000052" class="node">
<title>Node52</title>
<g id="a_Node000052"><a xlink:title=" ">
<polygon fill="#e0e0e0" stroke="#999999" points="3637,-129 3581,-129 3581,-110 3637,-110 3637,-129"/>
<text text-anchor="middle" x="3609" y="-117" font-family="Helvetica,sans-Serif" font-size="10.00">iomanip</text>
</a>
</g>
</g>
<!-- Node46&#45;&gt;Node52 -->
<g id="edge50_Node000046_Node000052" class="edge">
<title>Node46&#45;&gt;Node52</title>
<g id="a_edge50_Node000046_Node000052"><a xlink:title=" ">
<path fill="none" stroke="#63b8ff" d="M3436.94,-164.98C3473.51,-155.53 3532.45,-140.29 3570.96,-130.33"/>
<polygon fill="#63b8ff" stroke="#63b8ff" points="3571.96,-133.69 3580.76,-127.8 3570.21,-126.91 3571.96,-133.69"/>
</a>
</g>
</g>
<!-- Node48 -->
<g id="Node000048" class="node">
<title>Node48</title>
<g id="a_Node000048"><a xlink:title=" ">
<polygon fill="#e0e0e0" stroke="#999999" points="3325,-74 3277,-74 3277,-55 3325,-55 3325,-74"/>
<text text-anchor="middle" x="3301" y="-62" font-family="Helvetica,sans-Serif" font-size="10.00">iosfwd</text>
</a>
</g>
</g>
<!-- Node47&#45;&gt;Node48 -->
<g id="edge46_Node000047_Node000048" class="edge">
<title>Node47&#45;&gt;Node48</title>
<g id="a_edge46_Node000047_Node000048"><a xlink:title=" ">
<path fill="none" stroke="#63b8ff" d="M3243.09,-109.98C3253.49,-102 3269.26,-89.88 3281.72,-80.31"/>
<polygon fill="#63b8ff" stroke="#63b8ff" points="3283.91,-83.04 3289.71,-74.17 3279.65,-77.49 3283.91,-83.04"/>
</a>
</g>
</g>
</g>
</svg>
