<?xml version="1.0" encoding="UTF-8" standalone="no"?>
<!DOCTYPE svg PUBLIC "-//W3C//DTD SVG 1.1//EN"
 "http://www.w3.org/Graphics/SVG/1.1/DTD/svg11.dtd">
<!-- Generated by graphviz version 2.43.0 (0)
 -->
<!-- Title: squid/src/repl/heap/store_heap_replacement.h Pages: 1 -->
<svg width="292pt" height="104pt"
 viewBox="0.00 0.00 291.50 104.00" xmlns="http://www.w3.org/2000/svg" xmlns:xlink="http://www.w3.org/1999/xlink">
<g id="graph0" class="graph" transform="scale(1 1) rotate(0) translate(4 100)">
<title>squid/src/repl/heap/store_heap_replacement.h</title>
<!-- Node1 -->
<g id="Node000001" class="node">
<title>Node1</title>
<g id="a_Node000001"><a xlink:title=" ">
<polygon fill="#999999" stroke="#666666" points="226.5,-96 77.5,-96 77.5,-66 226.5,-66 226.5,-96"/>
<text text-anchor="start" x="85.5" y="-84" font-family="Helvetica,sans-Serif" font-size="10.00">squid/src/repl/heap</text>
<text text-anchor="middle" x="152" y="-73" font-family="Helvetica,sans-Serif" font-size="10.00">/store_heap_replacement.h</text>
</a>
</g>
</g>
<!-- Node2 -->
<g id="Node000002" class="node">
<title>Node2</title>
<g id="a_Node000002"><a xlink:href="store__heap__replacement_8cc.html" target="_top" xlink:title=" ">
<polygon fill="white" stroke="#666666" points="154,-30 0,-30 0,0 154,0 154,-30"/>
<text text-anchor="start" x="8" y="-18" font-family="Helvetica,sans-Serif" font-size="10.00">squid/src/repl/heap</text>
<text text-anchor="middle" x="77" y="-7" font-family="Helvetica,sans-Serif" font-size="10.00">/store_heap_replacement.cc</text>
</a>
</g>
</g>
<!-- Node1&#45;&gt;Node2 -->
<g id="edge1_Node000001_Node000002" class="edge">
<title>Node1&#45;&gt;Node2</title>
<g id="a_edge1_Node000001_Node000002"><a xlink:title=" ">
<path fill="none" stroke="#63b8ff" d="M127.63,-59.2C116.49,-49.7 103.59,-38.69 93.6,-30.16"/>
<polygon fill="#63b8ff" stroke="#63b8ff" points="125.48,-61.97 135.36,-65.8 130.02,-56.64 125.48,-61.97"/>
</a>
</g>
</g>
<!-- Node3 -->
<g id="Node000003" class="node">
<title>Node3</title>
<g id="a_Node000003"><a xlink:href="store__repl__heap_8cc.html" target="_top" xlink:title=" ">
<polygon fill="white" stroke="#666666" points="283.5,-30 172.5,-30 172.5,0 283.5,0 283.5,-30"/>
<text text-anchor="start" x="180.5" y="-18" font-family="Helvetica,sans-Serif" font-size="10.00">squid/src/repl/heap</text>
<text text-anchor="middle" x="228" y="-7" font-family="Helvetica,sans-Serif" font-size="10.00">/store_repl_heap.cc</text>
</a>
</g>
</g>
<!-- Node1&#45;&gt;Node3 -->
<g id="edge2_Node000001_Node000003" class="edge">
<title>Node1&#45;&gt;Node3</title>
<g id="a_edge2_Node000001_Node000003"><a xlink:title=" ">
<path fill="none" stroke="#63b8ff" d="M176.7,-59.2C187.98,-49.7 201.05,-38.69 211.18,-30.16"/>
<polygon fill="#63b8ff" stroke="#63b8ff" points="174.26,-56.68 168.87,-65.8 178.77,-62.03 174.26,-56.68"/>
</a>
</g>
</g>
</g>
</svg>
