<?xml version="1.0" encoding="UTF-8" standalone="no"?>
<!DOCTYPE svg PUBLIC "-//W3C//DTD SVG 1.1//EN"
 "http://www.w3.org/Graphics/SVG/1.1/DTD/svg11.dtd">
<!-- Generated by graphviz version 2.43.0 (0)
 -->
<!-- Title: squid/src/store_log.h Pages: 1 -->
<svg width="664pt" height="93pt"
 viewBox="0.00 0.00 664.00 93.00" xmlns="http://www.w3.org/2000/svg" xmlns:xlink="http://www.w3.org/1999/xlink">
<g id="graph0" class="graph" transform="scale(1 1) rotate(0) translate(4 89)">
<title>squid/src/store_log.h</title>
<!-- Node1 -->
<g id="Node000001" class="node">
<title>Node1</title>
<g id="a_Node000001"><a xlink:title=" ">
<polygon fill="#999999" stroke="#666666" points="358,-85 241,-85 241,-66 358,-66 358,-85"/>
<text text-anchor="middle" x="299.5" y="-73" font-family="Helvetica,sans-Serif" font-size="10.00">squid/src/store_log.h</text>
</a>
</g>
</g>
<!-- Node2 -->
<g id="Node000002" class="node">
<title>Node2</title>
<g id="a_Node000002"><a xlink:href="main_8cc.html" target="_top" xlink:title=" ">
<polygon fill="white" stroke="#666666" points="101,-24.5 0,-24.5 0,-5.5 101,-5.5 101,-24.5"/>
<text text-anchor="middle" x="50.5" y="-12.5" font-family="Helvetica,sans-Serif" font-size="10.00">squid/src/main.cc</text>
</a>
</g>
</g>
<!-- Node1&#45;&gt;Node2 -->
<g id="edge1_Node000001_Node000002" class="edge">
<title>Node1&#45;&gt;Node2</title>
<g id="a_edge1_Node000001_Node000002"><a xlink:title=" ">
<path fill="none" stroke="#63b8ff" d="M252.84,-63.61C214.37,-54.63 158.39,-41.52 109.5,-30 102.02,-28.24 94.01,-26.34 86.38,-24.53"/>
<polygon fill="#63b8ff" stroke="#63b8ff" points="252.18,-67.05 262.71,-65.92 253.77,-60.23 252.18,-67.05"/>
</a>
</g>
</g>
<!-- Node3 -->
<g id="Node000003" class="node">
<title>Node3</title>
<g id="a_Node000003"><a xlink:href="store_8cc.html" target="_top" xlink:title=" ">
<polygon fill="white" stroke="#666666" points="220,-24.5 119,-24.5 119,-5.5 220,-5.5 220,-24.5"/>
<text text-anchor="middle" x="169.5" y="-12.5" font-family="Helvetica,sans-Serif" font-size="10.00">squid/src/store.cc</text>
</a>
</g>
</g>
<!-- Node1&#45;&gt;Node3 -->
<g id="edge2_Node000001_Node000003" class="edge">
<title>Node1&#45;&gt;Node3</title>
<g id="a_edge2_Node000001_Node000003"><a xlink:title=" ">
<path fill="none" stroke="#63b8ff" d="M271.24,-61.78C246.15,-50.49 210.19,-34.31 188.43,-24.52"/>
<polygon fill="#63b8ff" stroke="#63b8ff" points="270.04,-65.08 280.6,-65.99 272.91,-58.7 270.04,-65.08"/>
</a>
</g>
</g>
<!-- Node4 -->
<g id="Node000004" class="node">
<title>Node4</title>
<g id="a_Node000004"><a xlink:href="store__log_8cc.html" target="_top" xlink:title=" ">
<polygon fill="white" stroke="#666666" points="360.5,-24.5 238.5,-24.5 238.5,-5.5 360.5,-5.5 360.5,-24.5"/>
<text text-anchor="middle" x="299.5" y="-12.5" font-family="Helvetica,sans-Serif" font-size="10.00">squid/src/store_log.cc</text>
</a>
</g>
</g>
<!-- Node1&#45;&gt;Node4 -->
<g id="edge3_Node000001_Node000004" class="edge">
<title>Node1&#45;&gt;Node4</title>
<g id="a_edge3_Node000001_Node000004"><a xlink:title=" ">
<path fill="none" stroke="#63b8ff" d="M299.5,-55.66C299.5,-45.24 299.5,-32.8 299.5,-24.67"/>
<polygon fill="#63b8ff" stroke="#63b8ff" points="296,-55.87 299.5,-65.87 303,-55.87 296,-55.87"/>
</a>
</g>
</g>
<!-- Node5 -->
<g id="Node000005" class="node">
<title>Node5</title>
<g id="a_Node000005"><a xlink:href="store__swapout_8cc.html" target="_top" xlink:title=" ">
<polygon fill="white" stroke="#666666" points="526.5,-24.5 378.5,-24.5 378.5,-5.5 526.5,-5.5 526.5,-24.5"/>
<text text-anchor="middle" x="452.5" y="-12.5" font-family="Helvetica,sans-Serif" font-size="10.00">squid/src/store_swapout.cc</text>
</a>
</g>
</g>
<!-- Node1&#45;&gt;Node5 -->
<g id="edge4_Node000001_Node000005" class="edge">
<title>Node1&#45;&gt;Node5</title>
<g id="a_edge4_Node000001_Node000005"><a xlink:title=" ">
<path fill="none" stroke="#63b8ff" d="M331.2,-62.38C360.78,-51.07 404.15,-34.49 430.23,-24.52"/>
<polygon fill="#63b8ff" stroke="#63b8ff" points="329.84,-59.15 321.75,-65.99 332.34,-65.69 329.84,-59.15"/>
</a>
</g>
</g>
<!-- Node6 -->
<g id="Node000006" class="node">
<title>Node6</title>
<g id="a_Node000006"><a xlink:href="stub__store__client_8cc.html" target="_top" xlink:title=" ">
<polygon fill="white" stroke="#666666" points="656,-30 545,-30 545,0 656,0 656,-30"/>
<text text-anchor="start" x="553" y="-18" font-family="Helvetica,sans-Serif" font-size="10.00">squid/src/tests/stub</text>
<text text-anchor="middle" x="600.5" y="-7" font-family="Helvetica,sans-Serif" font-size="10.00">_store_client.cc</text>
</a>
</g>
</g>
<!-- Node1&#45;&gt;Node6 -->
<g id="edge5_Node000001_Node000006" class="edge">
<title>Node1&#45;&gt;Node6</title>
<g id="a_edge5_Node000001_Node000006"><a xlink:title=" ">
<path fill="none" stroke="#63b8ff" d="M356.45,-64.19C404.3,-55.42 474.45,-42.33 535.5,-30 538.56,-29.38 541.69,-28.74 544.85,-28.08"/>
<polygon fill="#63b8ff" stroke="#63b8ff" points="355.79,-60.75 346.59,-65.99 357.05,-67.63 355.79,-60.75"/>
</a>
</g>
</g>
</g>
</svg>
