<?xml version="1.0" encoding="UTF-8" standalone="no"?>
<!DOCTYPE svg PUBLIC "-//W3C//DTD SVG 1.1//EN"
 "http://www.w3.org/Graphics/SVG/1.1/DTD/svg11.dtd">
<!-- Generated by graphviz version 2.43.0 (0)
 -->
<!-- Title: squid/src/store_digest.h Pages: 1 -->
<svg width="794pt" height="93pt"
 viewBox="0.00 0.00 794.00 93.00" xmlns="http://www.w3.org/2000/svg" xmlns:xlink="http://www.w3.org/1999/xlink">
<g id="graph0" class="graph" transform="scale(1 1) rotate(0) translate(4 89)">
<title>squid/src/store_digest.h</title>
<!-- Node1 -->
<g id="Node000001" class="node">
<title>Node1</title>
<g id="a_Node000001"><a xlink:title=" ">
<polygon fill="#999999" stroke="#666666" points="444.5,-85 312.5,-85 312.5,-66 444.5,-66 444.5,-85"/>
<text text-anchor="middle" x="378.5" y="-73" font-family="Helvetica,sans-Serif" font-size="10.00">squid/src/store_digest.h</text>
</a>
</g>
</g>
<!-- Node2 -->
<g id="Node000002" class="node">
<title>Node2</title>
<g id="a_Node000002"><a xlink:href="stat_8cc.html" target="_top" xlink:title=" ">
<polygon fill="white" stroke="#666666" points="95,-24.5 0,-24.5 0,-5.5 95,-5.5 95,-24.5"/>
<text text-anchor="middle" x="47.5" y="-12.5" font-family="Helvetica,sans-Serif" font-size="10.00">squid/src/stat.cc</text>
</a>
</g>
</g>
<!-- Node1&#45;&gt;Node2 -->
<g id="edge1_Node000001_Node000002" class="edge">
<title>Node1&#45;&gt;Node2</title>
<g id="a_edge1_Node000001_Node000002"><a xlink:title=" ">
<path fill="none" stroke="#63b8ff" d="M306.4,-64.54C250.75,-56.43 171.96,-44.07 103.5,-30 95.75,-28.41 87.44,-26.46 79.67,-24.54"/>
<polygon fill="#63b8ff" stroke="#63b8ff" points="306.12,-68.03 316.52,-66 307.12,-61.1 306.12,-68.03"/>
</a>
</g>
</g>
<!-- Node3 -->
<g id="Node000003" class="node">
<title>Node3</title>
<g id="a_Node000003"><a xlink:href="store_8cc.html" target="_top" xlink:title=" ">
<polygon fill="white" stroke="#666666" points="214,-24.5 113,-24.5 113,-5.5 214,-5.5 214,-24.5"/>
<text text-anchor="middle" x="163.5" y="-12.5" font-family="Helvetica,sans-Serif" font-size="10.00">squid/src/store.cc</text>
</a>
</g>
</g>
<!-- Node1&#45;&gt;Node3 -->
<g id="edge2_Node000001_Node000003" class="edge">
<title>Node1&#45;&gt;Node3</title>
<g id="a_edge2_Node000001_Node000003"><a xlink:title=" ">
<path fill="none" stroke="#63b8ff" d="M337.42,-63.32C295.85,-52.01 232.48,-34.77 194.8,-24.52"/>
<polygon fill="#63b8ff" stroke="#63b8ff" points="336.67,-66.75 347.24,-65.99 338.51,-59.99 336.67,-66.75"/>
</a>
</g>
</g>
<!-- Node4 -->
<g id="Node000004" class="node">
<title>Node4</title>
<g id="a_Node000004"><a xlink:href="store__digest_8cc.html" target="_top" xlink:title=" ">
<polygon fill="white" stroke="#666666" points="369,-24.5 232,-24.5 232,-5.5 369,-5.5 369,-24.5"/>
<text text-anchor="middle" x="300.5" y="-12.5" font-family="Helvetica,sans-Serif" font-size="10.00">squid/src/store_digest.cc</text>
</a>
</g>
</g>
<!-- Node1&#45;&gt;Node4 -->
<g id="edge3_Node000001_Node000004" class="edge">
<title>Node1&#45;&gt;Node4</title>
<g id="a_edge3_Node000001_Node000004"><a xlink:title=" ">
<path fill="none" stroke="#63b8ff" d="M358.96,-59.85C344.19,-48.77 324.4,-33.93 312.06,-24.67"/>
<polygon fill="#63b8ff" stroke="#63b8ff" points="356.89,-62.67 366.99,-65.87 361.09,-57.07 356.89,-62.67"/>
</a>
</g>
</g>
<!-- Node5 -->
<g id="Node000005" class="node">
<title>Node5</title>
<g id="a_Node000005"><a xlink:href="store__rebuild_8cc.html" target="_top" xlink:title=" ">
<polygon fill="white" stroke="#666666" points="527.5,-24.5 387.5,-24.5 387.5,-5.5 527.5,-5.5 527.5,-24.5"/>
<text text-anchor="middle" x="457.5" y="-12.5" font-family="Helvetica,sans-Serif" font-size="10.00">squid/src/store_rebuild.cc</text>
</a>
</g>
</g>
<!-- Node1&#45;&gt;Node5 -->
<g id="edge4_Node000001_Node000005" class="edge">
<title>Node1&#45;&gt;Node5</title>
<g id="a_edge4_Node000001_Node000005"><a xlink:title=" ">
<path fill="none" stroke="#63b8ff" d="M398.29,-59.85C413.25,-48.77 433.29,-33.93 445.8,-24.67"/>
<polygon fill="#63b8ff" stroke="#63b8ff" points="396.11,-57.1 390.16,-65.87 400.28,-62.73 396.11,-57.1"/>
</a>
</g>
</g>
<!-- Node6 -->
<g id="Node000006" class="node">
<title>Node6</title>
<g id="a_Node000006"><a xlink:href="stub__store__client_8cc.html" target="_top" xlink:title=" ">
<polygon fill="white" stroke="#666666" points="657,-30 546,-30 546,0 657,0 657,-30"/>
<text text-anchor="start" x="554" y="-18" font-family="Helvetica,sans-Serif" font-size="10.00">squid/src/tests/stub</text>
<text text-anchor="middle" x="601.5" y="-7" font-family="Helvetica,sans-Serif" font-size="10.00">_store_client.cc</text>
</a>
</g>
</g>
<!-- Node1&#45;&gt;Node6 -->
<g id="edge5_Node000001_Node000006" class="edge">
<title>Node1&#45;&gt;Node6</title>
<g id="a_edge5_Node000001_Node000006"><a xlink:title=" ">
<path fill="none" stroke="#63b8ff" d="M420.65,-63.44C456.72,-53.98 508.85,-40.3 547.89,-30.06"/>
<polygon fill="#63b8ff" stroke="#63b8ff" points="419.71,-60.07 410.93,-65.99 421.49,-66.84 419.71,-60.07"/>
</a>
</g>
</g>
<!-- Node7 -->
<g id="Node000007" class="node">
<title>Node7</title>
<g id="a_Node000007"><a xlink:href="stub__store__digest_8cc.html" target="_top" xlink:title=" ">
<polygon fill="white" stroke="#666666" points="786,-30 675,-30 675,0 786,0 786,-30"/>
<text text-anchor="start" x="683" y="-18" font-family="Helvetica,sans-Serif" font-size="10.00">squid/src/tests/stub</text>
<text text-anchor="middle" x="730.5" y="-7" font-family="Helvetica,sans-Serif" font-size="10.00">_store_digest.cc</text>
</a>
</g>
</g>
<!-- Node1&#45;&gt;Node7 -->
<g id="edge6_Node000001_Node000007" class="edge">
<title>Node1&#45;&gt;Node7</title>
<g id="a_edge6_Node000001_Node000007"><a xlink:title=" ">
<path fill="none" stroke="#63b8ff" d="M451.28,-64.53C509.63,-56.23 593.54,-43.6 666.5,-30 669.18,-29.5 671.93,-28.97 674.69,-28.42"/>
<polygon fill="#63b8ff" stroke="#63b8ff" points="450.46,-61.11 441.05,-65.98 451.44,-68.04 450.46,-61.11"/>
</a>
</g>
</g>
</g>
</svg>
