<?xml version="1.0" encoding="UTF-8" standalone="no"?>
<!DOCTYPE svg PUBLIC "-//W3C//DTD SVG 1.1//EN"
 "http://www.w3.org/Graphics/SVG/1.1/DTD/svg11.dtd">
<!-- Generated by graphviz version 2.43.0 (0)
 -->
<!-- Title: squid/src/acl/StringData.cc Pages: 1 -->
<svg width="3521pt" height="302pt"
 viewBox="0.00 0.00 3520.69 302.00" xmlns="http://www.w3.org/2000/svg" xmlns:xlink="http://www.w3.org/1999/xlink">
<g id="graph0" class="graph" transform="scale(1 1) rotate(0) translate(4 298)">
<title>squid/src/acl/StringData.cc</title>
<!-- Node1 -->
<g id="Node000001" class="node">
<title>Node1</title>
<g id="a_Node000001"><a xlink:title=" ">
<polygon fill="#999999" stroke="#666666" points="2893,-294 2747,-294 2747,-275 2893,-275 2893,-294"/>
<text text-anchor="middle" x="2820" y="-282" font-family="Helvetica,sans-Serif" font-size="10.00">squid/src/acl/StringData.cc</text>
</a>
</g>
</g>
<!-- Node2 -->
<g id="Node000002" class="node">
<title>Node2</title>
<g id="a_Node000002"><a xlink:href="squid_8h.html" target="_top" xlink:title=" ">
<polygon fill="white" stroke="#666666" points="1316,-239 1264,-239 1264,-220 1316,-220 1316,-239"/>
<text text-anchor="middle" x="1290" y="-227" font-family="Helvetica,sans-Serif" font-size="10.00">squid.h</text>
</a>
</g>
</g>
<!-- Node1&#45;&gt;Node2 -->
<g id="edge1_Node000001_Node000002" class="edge">
<title>Node1&#45;&gt;Node2</title>
<g id="a_edge1_Node000001_Node000002"><a xlink:title=" ">
<path fill="none" stroke="#63b8ff" d="M2746.98,-280.97C2474.74,-271.54 1524.4,-238.62 1326.34,-231.76"/>
<polygon fill="#63b8ff" stroke="#63b8ff" points="1326.29,-228.26 1316.18,-231.41 1326.05,-235.25 1326.29,-228.26"/>
</a>
</g>
</g>
<!-- Node44 -->
<g id="Node000044" class="node">
<title>Node44</title>
<g id="a_Node000044"><a xlink:href="Checklist_8h.html" target="_top" xlink:title=" ">
<polygon fill="white" stroke="#666666" points="2864,-239 2776,-239 2776,-220 2864,-220 2864,-239"/>
<text text-anchor="middle" x="2820" y="-227" font-family="Helvetica,sans-Serif" font-size="10.00">acl/Checklist.h</text>
</a>
</g>
</g>
<!-- Node1&#45;&gt;Node44 -->
<g id="edge25_Node000001_Node000044" class="edge">
<title>Node1&#45;&gt;Node44</title>
<g id="a_edge25_Node000001_Node000044"><a xlink:title=" ">
<path fill="none" stroke="#63b8ff" d="M2820,-274.75C2820,-267.8 2820,-257.85 2820,-249.13"/>
<polygon fill="#63b8ff" stroke="#63b8ff" points="2823.5,-249.09 2820,-239.09 2816.5,-249.09 2823.5,-249.09"/>
</a>
</g>
</g>
<!-- Node62 -->
<g id="Node000062" class="node">
<title>Node62</title>
<g id="a_Node000062"><a xlink:href="debug_2Stream_8h.html" target="_top" xlink:title=" ">
<polygon fill="white" stroke="#666666" points="2937,-74 2843,-74 2843,-55 2937,-55 2937,-74"/>
<text text-anchor="middle" x="2890" y="-62" font-family="Helvetica,sans-Serif" font-size="10.00">debug/Stream.h</text>
</a>
</g>
</g>
<!-- Node1&#45;&gt;Node62 -->
<g id="edge59_Node000001_Node000062" class="edge">
<title>Node1&#45;&gt;Node62</title>
<g id="a_edge59_Node000001_Node000062"><a xlink:title=" ">
<path fill="none" stroke="#63b8ff" d="M2775.59,-274.95C2717.86,-261.2 2626.17,-228.97 2642,-165 2648.64,-138.18 2648.88,-126.57 2671,-110 2696.06,-91.22 2776.62,-78.43 2832.7,-71.54"/>
<polygon fill="#63b8ff" stroke="#63b8ff" points="2833.36,-74.99 2842.87,-70.32 2832.53,-68.04 2833.36,-74.99"/>
</a>
</g>
</g>
<!-- Node92 -->
<g id="Node000092" class="node">
<title>Node92</title>
<g id="a_Node000092"><a xlink:href="StringData_8h.html" target="_top" xlink:title=" ">
<polygon fill="white" stroke="#666666" points="3057.5,-239 2962.5,-239 2962.5,-220 3057.5,-220 3057.5,-239"/>
<text text-anchor="middle" x="3010" y="-227" font-family="Helvetica,sans-Serif" font-size="10.00">acl/StringData.h</text>
</a>
</g>
</g>
<!-- Node1&#45;&gt;Node92 -->
<g id="edge43_Node000001_Node000092" class="edge">
<title>Node1&#45;&gt;Node92</title>
<g id="a_edge43_Node000001_Node000092"><a xlink:title=" ">
<path fill="none" stroke="#63b8ff" d="M2850.53,-274.98C2882.7,-266.01 2933.56,-251.82 2969.17,-241.89"/>
<polygon fill="#63b8ff" stroke="#63b8ff" points="2970.54,-245.14 2979.23,-239.08 2968.66,-238.4 2970.54,-245.14"/>
</a>
</g>
</g>
<!-- Node96 -->
<g id="Node000096" class="node">
<title>Node96</title>
<g id="a_Node000096"><a xlink:href="ConfigParser_8h.html" target="_top" xlink:title=" ">
<polygon fill="white" stroke="#666666" points="3282,-184 3196,-184 3196,-165 3282,-165 3282,-184"/>
<text text-anchor="middle" x="3239" y="-172" font-family="Helvetica,sans-Serif" font-size="10.00">ConfigParser.h</text>
</a>
</g>
</g>
<!-- Node1&#45;&gt;Node96 -->
<g id="edge48_Node000001_Node000096" class="edge">
<title>Node1&#45;&gt;Node96</title>
<g id="a_edge48_Node000001_Node000096"><a xlink:title=" ">
<path fill="none" stroke="#63b8ff" d="M2884.92,-274.98C2935.14,-267.63 3006.15,-255.58 3067,-239 3118.43,-224.99 3176.18,-202.13 3209.97,-188"/>
<polygon fill="#63b8ff" stroke="#63b8ff" points="3211.39,-191.2 3219.25,-184.09 3208.67,-184.75 3211.39,-191.2"/>
</a>
</g>
</g>
<!-- Node3 -->
<g id="Node000003" class="node">
<title>Node3</title>
<g id="a_Node000003"><a xlink:href="autoconf_8h.html" target="_top" xlink:title=" ">
<polygon fill="white" stroke="#666666" points="1191,-184 1123,-184 1123,-165 1191,-165 1191,-184"/>
<text text-anchor="middle" x="1157" y="-172" font-family="Helvetica,sans-Serif" font-size="10.00">autoconf.h</text>
</a>
</g>
</g>
<!-- Node2&#45;&gt;Node3 -->
<g id="edge2_Node000002_Node000003" class="edge">
<title>Node2&#45;&gt;Node3</title>
<g id="a_edge2_Node000002_Node000003"><a xlink:title=" ">
<path fill="none" stroke="#63b8ff" d="M1268.63,-219.98C1246.85,-211.3 1212.84,-197.75 1188.08,-187.88"/>
<polygon fill="#63b8ff" stroke="#63b8ff" points="1189.34,-184.62 1178.76,-184.17 1186.75,-191.12 1189.34,-184.62"/>
</a>
</g>
</g>
<!-- Node4 -->
<g id="Node000004" class="node">
<title>Node4</title>
<g id="a_Node000004"><a xlink:href="version_8h.html" target="_top" xlink:title=" ">
<polygon fill="white" stroke="#666666" points="1271,-184 1209,-184 1209,-165 1271,-165 1271,-184"/>
<text text-anchor="middle" x="1240" y="-172" font-family="Helvetica,sans-Serif" font-size="10.00">version.h</text>
</a>
</g>
</g>
<!-- Node2&#45;&gt;Node4 -->
<g id="edge3_Node000002_Node000004" class="edge">
<title>Node2&#45;&gt;Node4</title>
<g id="a_edge3_Node000002_Node000004"><a xlink:title=" ">
<path fill="none" stroke="#63b8ff" d="M1281.74,-219.75C1274.54,-212.11 1263.89,-200.82 1255.15,-191.56"/>
<polygon fill="#63b8ff" stroke="#63b8ff" points="1257.51,-188.96 1248.1,-184.09 1252.42,-193.76 1257.51,-188.96"/>
</a>
</g>
</g>
<!-- Node5 -->
<g id="Node000005" class="node">
<title>Node5</title>
<g id="a_Node000005"><a xlink:href="compat_8h.html" target="_top" xlink:title=" ">
<polygon fill="#fff0f0" stroke="red" points="1391,-184 1289,-184 1289,-165 1391,-165 1391,-184"/>
<text text-anchor="middle" x="1340" y="-172" font-family="Helvetica,sans-Serif" font-size="10.00">compat/compat.h</text>
</a>
</g>
</g>
<!-- Node2&#45;&gt;Node5 -->
<g id="edge4_Node000002_Node000005" class="edge">
<title>Node2&#45;&gt;Node5</title>
<g id="a_edge4_Node000002_Node000005"><a xlink:title=" ">
<path fill="none" stroke="#63b8ff" d="M1298.26,-219.75C1305.46,-212.11 1316.11,-200.82 1324.85,-191.56"/>
<polygon fill="#63b8ff" stroke="#63b8ff" points="1327.58,-193.76 1331.9,-184.09 1322.49,-188.96 1327.58,-193.76"/>
</a>
</g>
</g>
<!-- Node6 -->
<g id="Node000006" class="node">
<title>Node6</title>
<g id="a_Node000006"><a xlink:href="osdetect_8h.html" target="_top" xlink:title=" ">
<polygon fill="white" stroke="#666666" points="635.5,-129 528.5,-129 528.5,-110 635.5,-110 635.5,-129"/>
<text text-anchor="middle" x="582" y="-117" font-family="Helvetica,sans-Serif" font-size="10.00">compat/osdetect.h</text>
</a>
</g>
</g>
<!-- Node5&#45;&gt;Node6 -->
<g id="edge5_Node000005_Node000006" class="edge">
<title>Node5&#45;&gt;Node6</title>
<g id="a_edge5_Node000005_Node000006"><a xlink:title=" ">
<path fill="none" stroke="#63b8ff" d="M1288.97,-165.97C1285.94,-165.62 1282.93,-165.29 1280,-165 1002,-137.48 928.11,-155.48 645.72,-128.98"/>
<polygon fill="#63b8ff" stroke="#63b8ff" points="645.87,-125.48 635.58,-128.02 645.21,-132.45 645.87,-125.48"/>
</a>
</g>
</g>
<!-- Node7 -->
<g id="Node000007" class="node">
<title>Node7</title>
<g id="a_Node000007"><a xlink:href="fdsetsize_8h.html" target="_top" xlink:title=" ">
<polygon fill="white" stroke="#666666" points="764,-129 654,-129 654,-110 764,-110 764,-129"/>
<text text-anchor="middle" x="709" y="-117" font-family="Helvetica,sans-Serif" font-size="10.00">compat/fdsetsize.h</text>
</a>
</g>
</g>
<!-- Node5&#45;&gt;Node7 -->
<g id="edge6_Node000005_Node000007" class="edge">
<title>Node5&#45;&gt;Node7</title>
<g id="a_edge6_Node000005_Node000007"><a xlink:title=" ">
<path fill="none" stroke="#63b8ff" d="M1288.97,-166.02C1285.94,-165.66 1282.93,-165.31 1280,-165 1058.65,-141.49 999.46,-151.57 774.29,-129.07"/>
<polygon fill="#63b8ff" stroke="#63b8ff" points="774.43,-125.56 764.13,-128.04 773.73,-132.53 774.43,-125.56"/>
</a>
</g>
</g>
<!-- Node8 -->
<g id="Node000008" class="node">
<title>Node8</title>
<g id="a_Node000008"><a xlink:href="types_8h.html" target="_top" xlink:title=" ">
<polygon fill="#fff0f0" stroke="red" points="874,-129 782,-129 782,-110 874,-110 874,-129"/>
<text text-anchor="middle" x="828" y="-117" font-family="Helvetica,sans-Serif" font-size="10.00">compat/types.h</text>
</a>
</g>
</g>
<!-- Node5&#45;&gt;Node8 -->
<g id="edge7_Node000005_Node000008" class="edge">
<title>Node5&#45;&gt;Node8</title>
<g id="a_edge7_Node000005_Node000008"><a xlink:title=" ">
<path fill="none" stroke="#63b8ff" d="M1288.96,-166.09C1285.93,-165.71 1282.93,-165.34 1280,-165 1107.28,-144.95 1060.57,-150.33 884.32,-129.09"/>
<polygon fill="#63b8ff" stroke="#63b8ff" points="884.53,-125.59 874.18,-127.85 883.69,-132.54 884.53,-125.59"/>
</a>
</g>
</g>
<!-- Node10 -->
<g id="Node000010" class="node">
<title>Node10</title>
<g id="a_Node000010"><a xlink:href="aix_8h.html" target="_top" xlink:title=" ">
<polygon fill="white" stroke="#666666" points="987.5,-129 892.5,-129 892.5,-110 987.5,-110 987.5,-129"/>
<text text-anchor="middle" x="940" y="-117" font-family="Helvetica,sans-Serif" font-size="10.00">compat/os/aix.h</text>
</a>
</g>
</g>
<!-- Node5&#45;&gt;Node10 -->
<g id="edge8_Node000005_Node000010" class="edge">
<title>Node5&#45;&gt;Node10</title>
<g id="a_edge8_Node000005_Node000010"><a xlink:title=" ">
<path fill="none" stroke="#63b8ff" d="M1288.94,-166.22C1285.92,-165.8 1282.92,-165.39 1280,-165 1157.53,-148.54 1124.27,-146.45 997.66,-129.06"/>
<polygon fill="#63b8ff" stroke="#63b8ff" points="997.96,-125.57 987.57,-127.67 997,-132.51 997.96,-125.57"/>
</a>
</g>
</g>
<!-- Node11 -->
<g id="Node000011" class="node">
<title>Node11</title>
<g id="a_Node000011"><a xlink:href="android_8h.html" target="_top" xlink:title=" ">
<polygon fill="white" stroke="#666666" points="1122,-129 1006,-129 1006,-110 1122,-110 1122,-129"/>
<text text-anchor="middle" x="1064" y="-117" font-family="Helvetica,sans-Serif" font-size="10.00">compat/os/android.h</text>
</a>
</g>
</g>
<!-- Node5&#45;&gt;Node11 -->
<g id="edge9_Node000005_Node000011" class="edge">
<title>Node5&#45;&gt;Node11</title>
<g id="a_edge9_Node000005_Node000011"><a xlink:title=" ">
<path fill="none" stroke="#63b8ff" d="M1295.66,-164.98C1247.51,-155.74 1170.58,-140.97 1118.71,-131.01"/>
<polygon fill="#63b8ff" stroke="#63b8ff" points="1119.17,-127.53 1108.69,-129.08 1117.85,-134.41 1119.17,-127.53"/>
</a>
</g>
</g>
<!-- Node12 -->
<g id="Node000012" class="node">
<title>Node12</title>
<g id="a_Node000012"><a xlink:href="dragonfly_8h.html" target="_top" xlink:title=" ">
<polygon fill="white" stroke="#666666" points="1264,-129 1140,-129 1140,-110 1264,-110 1264,-129"/>
<text text-anchor="middle" x="1202" y="-117" font-family="Helvetica,sans-Serif" font-size="10.00">compat/os/dragonfly.h</text>
</a>
</g>
</g>
<!-- Node5&#45;&gt;Node12 -->
<g id="edge10_Node000005_Node000012" class="edge">
<title>Node5&#45;&gt;Node12</title>
<g id="a_edge10_Node000005_Node000012"><a xlink:title=" ">
<path fill="none" stroke="#63b8ff" d="M1317.83,-164.98C1295.23,-156.3 1259.94,-142.75 1234.25,-132.88"/>
<polygon fill="#63b8ff" stroke="#63b8ff" points="1235.17,-129.49 1224.58,-129.17 1232.66,-136.02 1235.17,-129.49"/>
</a>
</g>
</g>
<!-- Node13 -->
<g id="Node000013" class="node">
<title>Node13</title>
<g id="a_Node000013"><a xlink:href="freebsd_8h.html" target="_top" xlink:title=" ">
<polygon fill="white" stroke="#666666" points="1398,-129 1282,-129 1282,-110 1398,-110 1398,-129"/>
<text text-anchor="middle" x="1340" y="-117" font-family="Helvetica,sans-Serif" font-size="10.00">compat/os/freebsd.h</text>
</a>
</g>
</g>
<!-- Node5&#45;&gt;Node13 -->
<g id="edge11_Node000005_Node000013" class="edge">
<title>Node5&#45;&gt;Node13</title>
<g id="a_edge11_Node000005_Node000013"><a xlink:title=" ">
<path fill="none" stroke="#63b8ff" d="M1340,-164.75C1340,-157.8 1340,-147.85 1340,-139.13"/>
<polygon fill="#63b8ff" stroke="#63b8ff" points="1343.5,-139.09 1340,-129.09 1336.5,-139.09 1343.5,-139.09"/>
</a>
</g>
</g>
<!-- Node14 -->
<g id="Node000014" class="node">
<title>Node14</title>
<g id="a_Node000014"><a xlink:href="hpux_8h.html" target="_top" xlink:title=" ">
<polygon fill="white" stroke="#666666" points="1520,-129 1416,-129 1416,-110 1520,-110 1520,-129"/>
<text text-anchor="middle" x="1468" y="-117" font-family="Helvetica,sans-Serif" font-size="10.00">compat/os/hpux.h</text>
</a>
</g>
</g>
<!-- Node5&#45;&gt;Node14 -->
<g id="edge12_Node000005_Node000014" class="edge">
<title>Node5&#45;&gt;Node14</title>
<g id="a_edge12_Node000005_Node000014"><a xlink:title=" ">
<path fill="none" stroke="#63b8ff" d="M1360.57,-164.98C1381.43,-156.34 1413.97,-142.87 1437.77,-133.02"/>
<polygon fill="#63b8ff" stroke="#63b8ff" points="1439.16,-136.23 1447.06,-129.17 1436.48,-129.76 1439.16,-136.23"/>
</a>
</g>
</g>
<!-- Node15 -->
<g id="Node000015" class="node">
<title>Node15</title>
<g id="a_Node000015"><a xlink:href="linux_8h.html" target="_top" xlink:title=" ">
<polygon fill="white" stroke="#666666" points="1642,-129 1538,-129 1538,-110 1642,-110 1642,-129"/>
<text text-anchor="middle" x="1590" y="-117" font-family="Helvetica,sans-Serif" font-size="10.00">compat/os/linux.h</text>
</a>
</g>
</g>
<!-- Node5&#45;&gt;Node15 -->
<g id="edge13_Node000005_Node000015" class="edge">
<title>Node5&#45;&gt;Node15</title>
<g id="a_edge13_Node000005_Node000015"><a xlink:title=" ">
<path fill="none" stroke="#63b8ff" d="M1380.17,-164.98C1423.5,-155.8 1492.59,-141.15 1539.56,-131.19"/>
<polygon fill="#63b8ff" stroke="#63b8ff" points="1540.46,-134.58 1549.52,-129.08 1539.01,-127.73 1540.46,-134.58"/>
</a>
</g>
</g>
<!-- Node16 -->
<g id="Node000016" class="node">
<title>Node16</title>
<g id="a_Node000016"><a xlink:href="macosx_8h.html" target="_top" xlink:title=" ">
<polygon fill="white" stroke="#666666" points="1778,-129 1660,-129 1660,-110 1778,-110 1778,-129"/>
<text text-anchor="middle" x="1719" y="-117" font-family="Helvetica,sans-Serif" font-size="10.00">compat/os/macosx.h</text>
</a>
</g>
</g>
<!-- Node5&#45;&gt;Node16 -->
<g id="edge14_Node000005_Node000016" class="edge">
<title>Node5&#45;&gt;Node16</title>
<g id="a_edge14_Node000005_Node000016"><a xlink:title=" ">
<path fill="none" stroke="#63b8ff" d="M1391.11,-166.35C1457.88,-157.02 1575.05,-140.63 1649.75,-130.18"/>
<polygon fill="#63b8ff" stroke="#63b8ff" points="1650.58,-133.6 1660,-128.75 1649.61,-126.67 1650.58,-133.6"/>
</a>
</g>
</g>
<!-- Node17 -->
<g id="Node000017" class="node">
<title>Node17</title>
<g id="a_Node000017"><a xlink:href="mingw_8h.html" target="_top" xlink:title=" ">
<polygon fill="white" stroke="#666666" points="1908,-129 1796,-129 1796,-110 1908,-110 1908,-129"/>
<text text-anchor="middle" x="1852" y="-117" font-family="Helvetica,sans-Serif" font-size="10.00">compat/os/mingw.h</text>
</a>
</g>
</g>
<!-- Node5&#45;&gt;Node17 -->
<g id="edge15_Node000005_Node000017" class="edge">
<title>Node5&#45;&gt;Node17</title>
<g id="a_edge15_Node000005_Node000017"><a xlink:title=" ">
<path fill="none" stroke="#63b8ff" d="M1391,-168.94C1472.19,-161.56 1636.09,-146.21 1785.7,-129.12"/>
<polygon fill="#63b8ff" stroke="#63b8ff" points="1786.46,-132.55 1795.99,-127.94 1785.66,-125.6 1786.46,-132.55"/>
</a>
</g>
</g>
<!-- Node18 -->
<g id="Node000018" class="node">
<title>Node18</title>
<g id="a_Node000018"><a xlink:href="mswindows_8h.html" target="_top" xlink:title=" ">
<polygon fill="white" stroke="#666666" points="2063.5,-129 1926.5,-129 1926.5,-110 2063.5,-110 2063.5,-129"/>
<text text-anchor="middle" x="1995" y="-117" font-family="Helvetica,sans-Serif" font-size="10.00">compat/os/mswindows.h</text>
</a>
</g>
</g>
<!-- Node5&#45;&gt;Node18 -->
<g id="edge16_Node000005_Node000018" class="edge">
<title>Node5&#45;&gt;Node18</title>
<g id="a_edge16_Node000005_Node000018"><a xlink:title=" ">
<path fill="none" stroke="#63b8ff" d="M1391.38,-170.08C1490.56,-163.37 1715.54,-147.57 1915.98,-129.07"/>
<polygon fill="#63b8ff" stroke="#63b8ff" points="1916.47,-132.54 1926.11,-128.13 1915.83,-125.57 1916.47,-132.54"/>
</a>
</g>
</g>
<!-- Node19 -->
<g id="Node000019" class="node">
<title>Node19</title>
<g id="a_Node000019"><a xlink:href="netbsd_8h.html" target="_top" xlink:title=" ">
<polygon fill="white" stroke="#666666" points="2194.5,-129 2081.5,-129 2081.5,-110 2194.5,-110 2194.5,-129"/>
<text text-anchor="middle" x="2138" y="-117" font-family="Helvetica,sans-Serif" font-size="10.00">compat/os/netbsd.h</text>
</a>
</g>
</g>
<!-- Node5&#45;&gt;Node19 -->
<g id="edge17_Node000005_Node000019" class="edge">
<title>Node5&#45;&gt;Node19</title>
<g id="a_edge17_Node000005_Node000019"><a xlink:title=" ">
<path fill="none" stroke="#63b8ff" d="M1391.12,-171.58C1509,-166.89 1809.16,-153.5 2071.06,-129.02"/>
<polygon fill="#63b8ff" stroke="#63b8ff" points="2071.52,-132.49 2081.15,-128.07 2070.86,-125.52 2071.52,-132.49"/>
</a>
</g>
</g>
<!-- Node20 -->
<g id="Node000020" class="node">
<title>Node20</title>
<g id="a_Node000020"><a xlink:href="openbsd_8h.html" target="_top" xlink:title=" ">
<polygon fill="white" stroke="#666666" points="2333.5,-129 2212.5,-129 2212.5,-110 2333.5,-110 2333.5,-129"/>
<text text-anchor="middle" x="2273" y="-117" font-family="Helvetica,sans-Serif" font-size="10.00">compat/os/openbsd.h</text>
</a>
</g>
</g>
<!-- Node5&#45;&gt;Node20 -->
<g id="edge18_Node000005_Node000020" class="edge">
<title>Node5&#45;&gt;Node20</title>
<g id="a_edge18_Node000005_Node000020"><a xlink:title=" ">
<path fill="none" stroke="#63b8ff" d="M1391.15,-172.1C1523.38,-168.22 1887.53,-155.84 2202.09,-129.01"/>
<polygon fill="#63b8ff" stroke="#63b8ff" points="2202.66,-132.47 2212.32,-128.13 2202.06,-125.5 2202.66,-132.47"/>
</a>
</g>
</g>
<!-- Node21 -->
<g id="Node000021" class="node">
<title>Node21</title>
<g id="a_Node000021"><a xlink:href="os2_8h.html" target="_top" xlink:title=" ">
<polygon fill="white" stroke="#666666" points="2448.5,-129 2351.5,-129 2351.5,-110 2448.5,-110 2448.5,-129"/>
<text text-anchor="middle" x="2400" y="-117" font-family="Helvetica,sans-Serif" font-size="10.00">compat/os/os2.h</text>
</a>
</g>
</g>
<!-- Node5&#45;&gt;Node21 -->
<g id="edge19_Node000005_Node000021" class="edge">
<title>Node5&#45;&gt;Node21</title>
<g id="a_edge19_Node000005_Node000021"><a xlink:title=" ">
<path fill="none" stroke="#63b8ff" d="M1391.22,-173.05C1537.68,-171.38 1970.92,-163.73 2341.2,-128.96"/>
<polygon fill="#63b8ff" stroke="#63b8ff" points="2341.68,-132.43 2351.31,-128 2341.02,-125.46 2341.68,-132.43"/>
</a>
</g>
</g>
<!-- Node22 -->
<g id="Node000022" class="node">
<title>Node22</title>
<g id="a_Node000022"><a xlink:href="qnx_8h.html" target="_top" xlink:title=" ">
<polygon fill="white" stroke="#666666" points="2565,-129 2467,-129 2467,-110 2565,-110 2565,-129"/>
<text text-anchor="middle" x="2516" y="-117" font-family="Helvetica,sans-Serif" font-size="10.00">compat/os/qnx.h</text>
</a>
</g>
</g>
<!-- Node5&#45;&gt;Node22 -->
<g id="edge20_Node000005_Node000022" class="edge">
<title>Node5&#45;&gt;Node22</title>
<g id="a_edge20_Node000005_Node000022"><a xlink:title=" ">
<path fill="none" stroke="#63b8ff" d="M1391.06,-173.34C1548.27,-172.45 2039.04,-166.69 2456.63,-128.9"/>
<polygon fill="#63b8ff" stroke="#63b8ff" points="2457.15,-132.37 2466.79,-127.98 2456.51,-125.4 2457.15,-132.37"/>
</a>
</g>
</g>
<!-- Node23 -->
<g id="Node000023" class="node">
<title>Node23</title>
<g id="a_Node000023"><a xlink:href="solaris_8h.html" target="_top" xlink:title=" ">
<polygon fill="white" stroke="#666666" points="112,-129 0,-129 0,-110 112,-110 112,-129"/>
<text text-anchor="middle" x="56" y="-117" font-family="Helvetica,sans-Serif" font-size="10.00">compat/os/solaris.h</text>
</a>
</g>
</g>
<!-- Node5&#45;&gt;Node23 -->
<g id="edge21_Node000005_Node000023" class="edge">
<title>Node5&#45;&gt;Node23</title>
<g id="a_edge21_Node000005_Node000023"><a xlink:title=" ">
<path fill="none" stroke="#63b8ff" d="M1288.98,-165.88C1285.95,-165.55 1282.93,-165.25 1280,-165 769.92,-121.08 636.44,-169.81 122.61,-129.04"/>
<polygon fill="#63b8ff" stroke="#63b8ff" points="122.58,-125.52 112.33,-128.21 122.02,-132.5 122.58,-125.52"/>
</a>
</g>
</g>
<!-- Node24 -->
<g id="Node000024" class="node">
<title>Node24</title>
<g id="a_Node000024"><a xlink:href="sunos_8h.html" target="_top" xlink:title=" ">
<polygon fill="white" stroke="#666666" points="238,-129 130,-129 130,-110 238,-110 238,-129"/>
<text text-anchor="middle" x="184" y="-117" font-family="Helvetica,sans-Serif" font-size="10.00">compat/os/sunos.h</text>
</a>
</g>
</g>
<!-- Node5&#45;&gt;Node24 -->
<g id="edge22_Node000005_Node000024" class="edge">
<title>Node5&#45;&gt;Node24</title>
<g id="a_edge22_Node000005_Node000024"><a xlink:title=" ">
<path fill="none" stroke="#63b8ff" d="M1288.98,-165.9C1285.94,-165.56 1282.93,-165.26 1280,-165 825.73,-125.02 706.49,-167.13 248.45,-129.03"/>
<polygon fill="#63b8ff" stroke="#63b8ff" points="248.52,-125.52 238.26,-128.17 247.93,-132.49 248.52,-125.52"/>
</a>
</g>
</g>
<!-- Node25 -->
<g id="Node000025" class="node">
<title>Node25</title>
<g id="a_Node000025"><a xlink:href="assert_8h.html" target="_top" xlink:title=" ">
<polygon fill="white" stroke="#666666" points="351.5,-129 256.5,-129 256.5,-110 351.5,-110 351.5,-129"/>
<text text-anchor="middle" x="304" y="-117" font-family="Helvetica,sans-Serif" font-size="10.00">compat/assert.h</text>
</a>
</g>
</g>
<!-- Node5&#45;&gt;Node25 -->
<g id="edge23_Node000005_Node000025" class="edge">
<title>Node5&#45;&gt;Node25</title>
<g id="a_edge23_Node000005_Node000025"><a xlink:title=" ">
<path fill="none" stroke="#63b8ff" d="M1288.98,-165.91C1285.94,-165.57 1282.93,-165.26 1280,-165 876.17,-128.58 769.68,-166.58 361.54,-128.92"/>
<polygon fill="#63b8ff" stroke="#63b8ff" points="361.82,-125.43 351.54,-127.98 361.17,-132.4 361.82,-125.43"/>
</a>
</g>
</g>
<!-- Node26 -->
<g id="Node000026" class="node">
<title>Node26</title>
<g id="a_Node000026"><a xlink:href="compat__shared_8h.html" target="_top" xlink:title=" ">
<polygon fill="#fff0f0" stroke="red" points="510,-129 370,-129 370,-110 510,-110 510,-129"/>
<text text-anchor="middle" x="440" y="-117" font-family="Helvetica,sans-Serif" font-size="10.00">compat/compat_shared.h</text>
</a>
</g>
</g>
<!-- Node5&#45;&gt;Node26 -->
<g id="edge24_Node000005_Node000026" class="edge">
<title>Node5&#45;&gt;Node26</title>
<g id="a_edge24_Node000005_Node000026"><a xlink:title=" ">
<path fill="none" stroke="#63b8ff" d="M1288.98,-165.94C1285.94,-165.59 1282.93,-165.28 1280,-165 946.19,-133.53 858.3,-154.7 520.27,-129.05"/>
<polygon fill="#63b8ff" stroke="#63b8ff" points="520.43,-125.55 510.19,-128.27 519.89,-132.53 520.43,-125.55"/>
</a>
</g>
</g>
<!-- Node45 -->
<g id="Node000045" class="node">
<title>Node45</title>
<g id="a_Node000045"><a xlink:href="acl_2Acl_8h.html" target="_top" xlink:title=" ">
<polygon fill="#fff0f0" stroke="red" points="2944,-184 2886,-184 2886,-165 2944,-165 2944,-184"/>
<text text-anchor="middle" x="2915" y="-172" font-family="Helvetica,sans-Serif" font-size="10.00">acl/Acl.h</text>
</a>
</g>
</g>
<!-- Node44&#45;&gt;Node45 -->
<g id="edge26_Node000044_Node000045" class="edge">
<title>Node44&#45;&gt;Node45</title>
<g id="a_edge26_Node000044_Node000045"><a xlink:title=" ">
<path fill="none" stroke="#63b8ff" d="M2835.26,-219.98C2850.13,-211.69 2872.98,-198.94 2890.42,-189.22"/>
<polygon fill="#63b8ff" stroke="#63b8ff" points="2892.43,-192.1 2899.46,-184.17 2889.02,-185.99 2892.43,-192.1"/>
</a>
</g>
</g>
<!-- Node84 -->
<g id="Node000084" class="node">
<title>Node84</title>
<g id="a_Node000084"><a xlink:title=" ">
<polygon fill="#e0e0e0" stroke="#999999" points="2836,-129 2780,-129 2780,-110 2836,-110 2836,-129"/>
<text text-anchor="middle" x="2808" y="-117" font-family="Helvetica,sans-Serif" font-size="10.00">optional</text>
</a>
</g>
</g>
<!-- Node44&#45;&gt;Node84 -->
<g id="edge40_Node000044_Node000084" class="edge">
<title>Node44&#45;&gt;Node84</title>
<g id="a_edge40_Node000044_Node000084"><a xlink:title=" ">
<path fill="none" stroke="#63b8ff" d="M2825.65,-219.84C2832.93,-207.59 2843.96,-184.51 2838,-165 2834.91,-154.9 2828.68,-145.02 2822.69,-137.15"/>
<polygon fill="#63b8ff" stroke="#63b8ff" points="2825.24,-134.74 2816.21,-129.2 2819.82,-139.16 2825.24,-134.74"/>
</a>
</g>
</g>
<!-- Node86 -->
<g id="Node000086" class="node">
<title>Node86</title>
<g id="a_Node000086"><a xlink:href="InnerNode_8h.html" target="_top" xlink:title=" ">
<polygon fill="#fff0f0" stroke="red" points="2829.5,-184 2736.5,-184 2736.5,-165 2829.5,-165 2829.5,-184"/>
<text text-anchor="middle" x="2783" y="-172" font-family="Helvetica,sans-Serif" font-size="10.00">acl/InnerNode.h</text>
</a>
</g>
</g>
<!-- Node44&#45;&gt;Node86 -->
<g id="edge37_Node000044_Node000086" class="edge">
<title>Node44&#45;&gt;Node86</title>
<g id="a_edge37_Node000044_Node000086"><a xlink:title=" ">
<path fill="none" stroke="#63b8ff" d="M2813.89,-219.75C2808.72,-212.34 2801.15,-201.5 2794.81,-192.41"/>
<polygon fill="#63b8ff" stroke="#63b8ff" points="2797.59,-190.29 2789,-184.09 2791.85,-194.29 2797.59,-190.29"/>
</a>
</g>
</g>
<!-- Node89 -->
<g id="Node000089" class="node">
<title>Node89</title>
<g id="a_Node000089"><a xlink:title=" ">
<polygon fill="#e0e0e0" stroke="#999999" points="2727.5,-129 2680.5,-129 2680.5,-110 2727.5,-110 2727.5,-129"/>
<text text-anchor="middle" x="2704" y="-117" font-family="Helvetica,sans-Serif" font-size="10.00">vector</text>
</a>
</g>
</g>
<!-- Node44&#45;&gt;Node89 -->
<g id="edge42_Node000044_Node000089" class="edge">
<title>Node44&#45;&gt;Node89</title>
<g id="a_edge42_Node000044_Node000089"><a xlink:title=" ">
<path fill="none" stroke="#63b8ff" d="M2775.84,-223.06C2730.76,-216.5 2665.29,-203.8 2650,-184 2636.37,-166.34 2658.74,-146.92 2678.7,-134.26"/>
<polygon fill="#63b8ff" stroke="#63b8ff" points="2680.5,-137.26 2687.27,-129.12 2676.9,-131.26 2680.5,-137.26"/>
</a>
</g>
</g>
<!-- Node90 -->
<g id="Node000090" class="node">
<title>Node90</title>
<g id="a_Node000090"><a xlink:href="cbdata_8h.html" target="_top" xlink:title=" ">
<polygon fill="white" stroke="#666666" points="2718.5,-184 2659.5,-184 2659.5,-165 2718.5,-165 2718.5,-184"/>
<text text-anchor="middle" x="2689" y="-172" font-family="Helvetica,sans-Serif" font-size="10.00">cbdata.h</text>
</a>
</g>
</g>
<!-- Node44&#45;&gt;Node90 -->
<g id="edge39_Node000044_Node000090" class="edge">
<title>Node44&#45;&gt;Node90</title>
<g id="a_edge39_Node000044_Node000090"><a xlink:title=" ">
<path fill="none" stroke="#63b8ff" d="M2798.95,-219.98C2777.59,-211.34 2744.3,-197.87 2719.94,-188.02"/>
<polygon fill="#63b8ff" stroke="#63b8ff" points="2721.01,-184.68 2710.43,-184.17 2718.39,-191.17 2721.01,-184.68"/>
</a>
</g>
</g>
<!-- Node91 -->
<g id="Node000091" class="node">
<title>Node91</title>
<g id="a_Node000091"><a xlink:title=" ">
<polygon fill="#e0e0e0" stroke="#999999" points="3085.5,-129 3042.5,-129 3042.5,-110 3085.5,-110 3085.5,-129"/>
<text text-anchor="middle" x="3064" y="-117" font-family="Helvetica,sans-Serif" font-size="10.00">stack</text>
</a>
</g>
</g>
<!-- Node44&#45;&gt;Node91 -->
<g id="edge41_Node000044_Node000091" class="edge">
<title>Node44&#45;&gt;Node91</title>
<g id="a_edge41_Node000044_Node000091"><a xlink:title=" ">
<path fill="none" stroke="#63b8ff" d="M2851.29,-219.93C2878.67,-211.98 2919.23,-199.13 2953,-184 2985.26,-169.54 3020.34,-148.5 3042.25,-134.66"/>
<polygon fill="#63b8ff" stroke="#63b8ff" points="3044.24,-137.54 3050.78,-129.21 3040.47,-131.64 3044.24,-137.54"/>
</a>
</g>
</g>
<!-- Node46 -->
<g id="Node000046" class="node">
<title>Node46</title>
<g id="a_Node000046"><a xlink:href="acl_2forward_8h.html" target="_top" xlink:title=" ">
<polygon fill="#fff0f0" stroke="red" points="3024,-129 2944,-129 2944,-110 3024,-110 3024,-129"/>
<text text-anchor="middle" x="2984" y="-117" font-family="Helvetica,sans-Serif" font-size="10.00">acl/forward.h</text>
</a>
</g>
</g>
<!-- Node45&#45;&gt;Node46 -->
<g id="edge27_Node000045_Node000046" class="edge">
<title>Node45&#45;&gt;Node46</title>
<g id="a_edge27_Node000045_Node000046"><a xlink:title=" ">
<path fill="none" stroke="#63b8ff" d="M2926.09,-164.98C2936.49,-157 2952.26,-144.88 2964.72,-135.31"/>
<polygon fill="#63b8ff" stroke="#63b8ff" points="2966.91,-138.04 2972.71,-129.17 2962.65,-132.49 2966.91,-138.04"/>
</a>
</g>
</g>
<!-- Node56 -->
<g id="Node000056" class="node">
<title>Node56</title>
<g id="a_Node000056"><a xlink:href="SBuf_8h.html" target="_top" xlink:title=" ">
<polygon fill="#fff0f0" stroke="red" points="2925.5,-129 2854.5,-129 2854.5,-110 2925.5,-110 2925.5,-129"/>
<text text-anchor="middle" x="2890" y="-117" font-family="Helvetica,sans-Serif" font-size="10.00">sbuf/SBuf.h</text>
</a>
</g>
</g>
<!-- Node45&#45;&gt;Node56 -->
<g id="edge28_Node000045_Node000056" class="edge">
<title>Node45&#45;&gt;Node56</title>
<g id="a_edge28_Node000045_Node000056"><a xlink:title=" ">
<path fill="none" stroke="#63b8ff" d="M2910.87,-164.75C2907.49,-157.57 2902.58,-147.18 2898.38,-138.27"/>
<polygon fill="#63b8ff" stroke="#63b8ff" points="2901.48,-136.64 2894.05,-129.09 2895.15,-139.63 2901.48,-136.64"/>
</a>
</g>
</g>
<!-- Node45&#45;&gt;Node84 -->
<g id="edge36_Node000045_Node000084" class="edge">
<title>Node45&#45;&gt;Node84</title>
<g id="a_edge36_Node000045_Node000084"><a xlink:title=" ">
<path fill="none" stroke="#63b8ff" d="M2897.81,-164.98C2880.75,-156.54 2854.37,-143.47 2834.6,-133.68"/>
<polygon fill="#63b8ff" stroke="#63b8ff" points="2836.02,-130.47 2825.5,-129.17 2832.91,-136.75 2836.02,-130.47"/>
</a>
</g>
</g>
<!-- Node56&#45;&gt;Node62 -->
<g id="edge29_Node000056_Node000062" class="edge">
<title>Node56&#45;&gt;Node62</title>
<g id="a_edge29_Node000056_Node000062"><a xlink:title=" ">
<path fill="none" stroke="#63b8ff" d="M2890,-109.75C2890,-102.8 2890,-92.85 2890,-84.13"/>
<polygon fill="#63b8ff" stroke="#63b8ff" points="2893.5,-84.09 2890,-74.09 2886.5,-84.09 2893.5,-84.09"/>
</a>
</g>
</g>
<!-- Node72 -->
<g id="Node000072" class="node">
<title>Node72</title>
<g id="a_Node000072"><a xlink:href="sbuf_2forward_8h.html" target="_top" xlink:title=" ">
<polygon fill="#fff0f0" stroke="red" points="3370.5,-74 3283.5,-74 3283.5,-55 3370.5,-55 3370.5,-74"/>
<text text-anchor="middle" x="3327" y="-62" font-family="Helvetica,sans-Serif" font-size="10.00">sbuf/forward.h</text>
</a>
</g>
</g>
<!-- Node56&#45;&gt;Node72 -->
<g id="edge35_Node000056_Node000072" class="edge">
<title>Node56&#45;&gt;Node72</title>
<g id="a_edge35_Node000056_Node000072"><a xlink:title=" ">
<path fill="none" stroke="#63b8ff" d="M2925.82,-111.49C2928.92,-110.96 2932.01,-110.45 2935,-110 3055.31,-91.83 3197.41,-77.45 3273.12,-70.35"/>
<polygon fill="#63b8ff" stroke="#63b8ff" points="3273.72,-73.81 3283.36,-69.4 3273.07,-66.84 3273.72,-73.81"/>
</a>
</g>
</g>
<!-- Node60 -->
<g id="Node000060" class="node">
<title>Node60</title>
<g id="a_Node000060"><a xlink:href="Here_8h.html" target="_top" xlink:title=" ">
<polygon fill="#fff0f0" stroke="red" points="2700.5,-19 2625.5,-19 2625.5,0 2700.5,0 2700.5,-19"/>
<text text-anchor="middle" x="2663" y="-7" font-family="Helvetica,sans-Serif" font-size="10.00">base/Here.h</text>
</a>
</g>
</g>
<!-- Node62&#45;&gt;Node60 -->
<g id="edge30_Node000062_Node000060" class="edge">
<title>Node62&#45;&gt;Node60</title>
<g id="a_edge30_Node000062_Node000060"><a xlink:title=" ">
<path fill="none" stroke="#63b8ff" d="M2853.53,-54.98C2814.43,-45.86 2752.23,-31.33 2709.61,-21.38"/>
<polygon fill="#63b8ff" stroke="#63b8ff" points="2710.29,-17.95 2699.76,-19.08 2708.7,-24.76 2710.29,-17.95"/>
</a>
</g>
</g>
<!-- Node54 -->
<g id="Node000054" class="node">
<title>Node54</title>
<g id="a_Node000054"><a xlink:href="AllocatorProxy_8h.html" target="_top" xlink:title=" ">
<polygon fill="white" stroke="#666666" points="2842,-19 2718,-19 2718,0 2842,0 2842,-19"/>
<text text-anchor="middle" x="2780" y="-7" font-family="Helvetica,sans-Serif" font-size="10.00">mem/AllocatorProxy.h</text>
</a>
</g>
</g>
<!-- Node62&#45;&gt;Node54 -->
<g id="edge31_Node000062_Node000054" class="edge">
<title>Node62&#45;&gt;Node54</title>
<g id="a_edge31_Node000062_Node000054"><a xlink:title=" ">
<path fill="none" stroke="#63b8ff" d="M2872.33,-54.98C2854.71,-46.5 2827.42,-33.35 2807.07,-23.54"/>
<polygon fill="#63b8ff" stroke="#63b8ff" points="2808.52,-20.36 2797.99,-19.17 2805.48,-26.66 2808.52,-20.36"/>
</a>
</g>
</g>
<!-- Node49 -->
<g id="Node000049" class="node">
<title>Node49</title>
<g id="a_Node000049"><a xlink:title=" ">
<polygon fill="#e0e0e0" stroke="#999999" points="2920,-19 2860,-19 2860,0 2920,0 2920,-19"/>
<text text-anchor="middle" x="2890" y="-7" font-family="Helvetica,sans-Serif" font-size="10.00">iostream</text>
</a>
</g>
</g>
<!-- Node62&#45;&gt;Node49 -->
<g id="edge32_Node000062_Node000049" class="edge">
<title>Node62&#45;&gt;Node49</title>
<g id="a_edge32_Node000062_Node000049"><a xlink:title=" ">
<path fill="none" stroke="#63b8ff" d="M2890,-54.75C2890,-47.8 2890,-37.85 2890,-29.13"/>
<polygon fill="#63b8ff" stroke="#63b8ff" points="2893.5,-29.09 2890,-19.09 2886.5,-29.09 2893.5,-29.09"/>
</a>
</g>
</g>
<!-- Node63 -->
<g id="Node000063" class="node">
<title>Node63</title>
<g id="a_Node000063"><a xlink:title=" ">
<polygon fill="#e0e0e0" stroke="#999999" points="2994,-19 2938,-19 2938,0 2994,0 2994,-19"/>
<text text-anchor="middle" x="2966" y="-7" font-family="Helvetica,sans-Serif" font-size="10.00">sstream</text>
</a>
</g>
</g>
<!-- Node62&#45;&gt;Node63 -->
<g id="edge33_Node000062_Node000063" class="edge">
<title>Node62&#45;&gt;Node63</title>
<g id="a_edge33_Node000062_Node000063"><a xlink:title=" ">
<path fill="none" stroke="#63b8ff" d="M2902.21,-54.98C2913.78,-46.92 2931.38,-34.65 2945.16,-25.03"/>
<polygon fill="#63b8ff" stroke="#63b8ff" points="2947.37,-27.76 2953.57,-19.17 2943.36,-22.02 2947.37,-27.76"/>
</a>
</g>
</g>
<!-- Node64 -->
<g id="Node000064" class="node">
<title>Node64</title>
<g id="a_Node000064"><a xlink:title=" ">
<polygon fill="#e0e0e0" stroke="#999999" points="3068,-19 3012,-19 3012,0 3068,0 3068,-19"/>
<text text-anchor="middle" x="3040" y="-7" font-family="Helvetica,sans-Serif" font-size="10.00">iomanip</text>
</a>
</g>
</g>
<!-- Node62&#45;&gt;Node64 -->
<g id="edge34_Node000062_Node000064" class="edge">
<title>Node62&#45;&gt;Node64</title>
<g id="a_edge34_Node000062_Node000064"><a xlink:title=" ">
<path fill="none" stroke="#63b8ff" d="M2914.1,-54.98C2938.88,-46.23 2977.7,-32.51 3005.69,-22.62"/>
<polygon fill="#63b8ff" stroke="#63b8ff" points="3007.2,-25.8 3015.46,-19.17 3004.87,-19.2 3007.2,-25.8"/>
</a>
</g>
</g>
<!-- Node86&#45;&gt;Node89 -->
<g id="edge38_Node000086_Node000089" class="edge">
<title>Node86&#45;&gt;Node89</title>
<g id="a_edge38_Node000086_Node000089"><a xlink:title=" ">
<path fill="none" stroke="#63b8ff" d="M2770.31,-164.98C2758.17,-156.84 2739.64,-144.41 2725.25,-134.76"/>
<polygon fill="#63b8ff" stroke="#63b8ff" points="2727.18,-131.84 2716.92,-129.17 2723.28,-137.65 2727.18,-131.84"/>
</a>
</g>
</g>
<!-- Node92&#45;&gt;Node45 -->
<g id="edge44_Node000092_Node000045" class="edge">
<title>Node92&#45;&gt;Node45</title>
<g id="a_edge44_Node000092_Node000045"><a xlink:title=" ">
<path fill="none" stroke="#63b8ff" d="M2994.74,-219.98C2979.87,-211.69 2957.02,-198.94 2939.58,-189.22"/>
<polygon fill="#63b8ff" stroke="#63b8ff" points="2940.98,-185.99 2930.54,-184.17 2937.57,-192.1 2940.98,-185.99"/>
</a>
</g>
</g>
<!-- Node92&#45;&gt;Node56 -->
<g id="edge46_Node000092_Node000056" class="edge">
<title>Node92&#45;&gt;Node56</title>
<g id="a_edge46_Node000092_Node000056"><a xlink:title=" ">
<path fill="none" stroke="#63b8ff" d="M3003.18,-219.72C2993.01,-206.92 2972.92,-182.73 2953,-165 2940.36,-153.75 2924.85,-142.77 2912.39,-134.53"/>
<polygon fill="#63b8ff" stroke="#63b8ff" points="2914.23,-131.55 2903.93,-129.05 2910.42,-137.42 2914.23,-131.55"/>
</a>
</g>
</g>
<!-- Node93 -->
<g id="Node000093" class="node">
<title>Node93</title>
<g id="a_Node000093"><a xlink:href="Data_8h.html" target="_top" xlink:title=" ">
<polygon fill="#fff0f0" stroke="red" points="3104,-184 3038,-184 3038,-165 3104,-165 3104,-184"/>
<text text-anchor="middle" x="3071" y="-172" font-family="Helvetica,sans-Serif" font-size="10.00">acl/Data.h</text>
</a>
</g>
</g>
<!-- Node92&#45;&gt;Node93 -->
<g id="edge45_Node000092_Node000093" class="edge">
<title>Node92&#45;&gt;Node93</title>
<g id="a_edge45_Node000092_Node000093"><a xlink:title=" ">
<path fill="none" stroke="#63b8ff" d="M3019.8,-219.98C3028.82,-212.15 3042.41,-200.34 3053.32,-190.86"/>
<polygon fill="#63b8ff" stroke="#63b8ff" points="3055.77,-193.37 3061.02,-184.17 3051.18,-188.09 3055.77,-193.37"/>
</a>
</g>
</g>
<!-- Node95 -->
<g id="Node000095" class="node">
<title>Node95</title>
<g id="a_Node000095"><a xlink:title=" ">
<polygon fill="#e0e0e0" stroke="#999999" points="3154,-184 3122,-184 3122,-165 3154,-165 3154,-184"/>
<text text-anchor="middle" x="3138" y="-172" font-family="Helvetica,sans-Serif" font-size="10.00">set</text>
</a>
</g>
</g>
<!-- Node92&#45;&gt;Node95 -->
<g id="edge47_Node000092_Node000095" class="edge">
<title>Node92&#45;&gt;Node95</title>
<g id="a_edge47_Node000092_Node000095"><a xlink:title=" ">
<path fill="none" stroke="#63b8ff" d="M3030.57,-219.98C3052.83,-210.77 3088.36,-196.05 3112.41,-186.1"/>
<polygon fill="#63b8ff" stroke="#63b8ff" points="3114.04,-189.21 3121.94,-182.15 3111.36,-182.74 3114.04,-189.21"/>
</a>
</g>
</g>
<!-- Node96&#45;&gt;Node46 -->
<g id="edge49_Node000096_Node000046" class="edge">
<title>Node96&#45;&gt;Node46</title>
<g id="a_edge49_Node000096_Node000046"><a xlink:title=" ">
<path fill="none" stroke="#63b8ff" d="M3198.03,-164.98C3153.34,-155.7 3081.8,-140.83 3033.88,-130.87"/>
<polygon fill="#63b8ff" stroke="#63b8ff" points="3034.53,-127.43 3024.03,-128.82 3033.11,-134.28 3034.53,-127.43"/>
</a>
</g>
</g>
<!-- Node96&#45;&gt;Node72 -->
<g id="edge51_Node000096_Node000072" class="edge">
<title>Node96&#45;&gt;Node72</title>
<g id="a_edge51_Node000096_Node000072"><a xlink:title=" ">
<path fill="none" stroke="#63b8ff" d="M3282.14,-172.74C3349.81,-170.54 3476.09,-161.99 3504,-129 3540.78,-85.53 3445.28,-71.82 3380.67,-67.49"/>
<polygon fill="#63b8ff" stroke="#63b8ff" points="3380.79,-63.99 3370.6,-66.88 3380.36,-70.98 3380.79,-63.99"/>
</a>
</g>
</g>
<!-- Node96&#45;&gt;Node91 -->
<g id="edge57_Node000096_Node000091" class="edge">
<title>Node96&#45;&gt;Node91</title>
<g id="a_edge57_Node000096_Node000091"><a xlink:title=" ">
<path fill="none" stroke="#63b8ff" d="M3210.88,-164.98C3179.41,-155.45 3128.53,-140.04 3095.68,-130.09"/>
<polygon fill="#63b8ff" stroke="#63b8ff" points="3096.28,-126.62 3085.69,-127.07 3094.25,-133.32 3096.28,-126.62"/>
</a>
</g>
</g>
<!-- Node97 -->
<g id="Node000097" class="node">
<title>Node97</title>
<g id="a_Node000097"><a xlink:href="base_2forward_8h.html" target="_top" xlink:title=" ">
<polygon fill="white" stroke="#666666" points="3192.5,-129 3103.5,-129 3103.5,-110 3192.5,-110 3192.5,-129"/>
<text text-anchor="middle" x="3148" y="-117" font-family="Helvetica,sans-Serif" font-size="10.00">base/forward.h</text>
</a>
</g>
</g>
<!-- Node96&#45;&gt;Node97 -->
<g id="edge50_Node000096_Node000097" class="edge">
<title>Node96&#45;&gt;Node97</title>
<g id="a_edge50_Node000096_Node000097"><a xlink:title=" ">
<path fill="none" stroke="#63b8ff" d="M3224.38,-164.98C3210.14,-156.69 3188.25,-143.94 3171.55,-134.22"/>
<polygon fill="#63b8ff" stroke="#63b8ff" points="3173.29,-131.18 3162.89,-129.17 3169.77,-137.23 3173.29,-131.18"/>
</a>
</g>
</g>
<!-- Node98 -->
<g id="Node000098" class="node">
<title>Node98</title>
<g id="a_Node000098"><a xlink:href="SquidString_8h.html" target="_top" xlink:title=" ">
<polygon fill="#fff0f0" stroke="red" points="3367.5,-129 3286.5,-129 3286.5,-110 3367.5,-110 3367.5,-129"/>
<text text-anchor="middle" x="3327" y="-117" font-family="Helvetica,sans-Serif" font-size="10.00">SquidString.h</text>
</a>
</g>
</g>
<!-- Node96&#45;&gt;Node98 -->
<g id="edge52_Node000096_Node000098" class="edge">
<title>Node96&#45;&gt;Node98</title>
<g id="a_edge52_Node000096_Node000098"><a xlink:title=" ">
<path fill="none" stroke="#63b8ff" d="M3253.14,-164.98C3266.79,-156.77 3287.69,-144.18 3303.78,-134.49"/>
<polygon fill="#63b8ff" stroke="#63b8ff" points="3305.84,-137.33 3312.6,-129.17 3302.23,-131.33 3305.84,-137.33"/>
</a>
</g>
</g>
<!-- Node99 -->
<g id="Node000099" class="node">
<title>Node99</title>
<g id="a_Node000099"><a xlink:title=" ">
<polygon fill="#e0e0e0" stroke="#999999" points="3268,-129 3210,-129 3210,-110 3268,-110 3268,-129"/>
<text text-anchor="middle" x="3239" y="-117" font-family="Helvetica,sans-Serif" font-size="10.00">memory</text>
</a>
</g>
</g>
<!-- Node96&#45;&gt;Node99 -->
<g id="edge55_Node000096_Node000099" class="edge">
<title>Node96&#45;&gt;Node99</title>
<g id="a_edge55_Node000096_Node000099"><a xlink:title=" ">
<path fill="none" stroke="#63b8ff" d="M3239,-164.75C3239,-157.8 3239,-147.85 3239,-139.13"/>
<polygon fill="#63b8ff" stroke="#63b8ff" points="3242.5,-139.09 3239,-129.09 3235.5,-139.09 3242.5,-139.09"/>
</a>
</g>
</g>
<!-- Node100 -->
<g id="Node000100" class="node">
<title>Node100</title>
<g id="a_Node000100"><a xlink:title=" ">
<polygon fill="#e0e0e0" stroke="#999999" points="3432.5,-129 3385.5,-129 3385.5,-110 3432.5,-110 3432.5,-129"/>
<text text-anchor="middle" x="3409" y="-117" font-family="Helvetica,sans-Serif" font-size="10.00">queue</text>
</a>
</g>
</g>
<!-- Node96&#45;&gt;Node100 -->
<g id="edge56_Node000096_Node000100" class="edge">
<title>Node96&#45;&gt;Node100</title>
<g id="a_edge56_Node000096_Node000100"><a xlink:title=" ">
<path fill="none" stroke="#63b8ff" d="M3266.31,-164.98C3296.04,-155.72 3343.59,-140.89 3375.54,-130.93"/>
<polygon fill="#63b8ff" stroke="#63b8ff" points="3376.81,-134.2 3385.32,-127.88 3374.73,-127.52 3376.81,-134.2"/>
</a>
</g>
</g>
<!-- Node101 -->
<g id="Node000101" class="node">
<title>Node101</title>
<g id="a_Node000101"><a xlink:title=" ">
<polygon fill="#e0e0e0" stroke="#999999" points="3495,-129 3451,-129 3451,-110 3495,-110 3495,-129"/>
<text text-anchor="middle" x="3473" y="-117" font-family="Helvetica,sans-Serif" font-size="10.00">string</text>
</a>
</g>
</g>
<!-- Node96&#45;&gt;Node101 -->
<g id="edge58_Node000096_Node000101" class="edge">
<title>Node96&#45;&gt;Node101</title>
<g id="a_edge58_Node000096_Node000101"><a xlink:title=" ">
<path fill="none" stroke="#63b8ff" d="M3281.14,-164.93C3320.21,-156.83 3380.17,-144.03 3440.93,-129.17"/>
<polygon fill="#63b8ff" stroke="#63b8ff" points="3441.81,-132.56 3450.69,-126.77 3440.14,-125.76 3441.81,-132.56"/>
</a>
</g>
</g>
<!-- Node98&#45;&gt;Node62 -->
<g id="edge53_Node000098_Node000062" class="edge">
<title>Node98&#45;&gt;Node62</title>
<g id="a_edge53_Node000098_Node000062"><a xlink:title=" ">
<path fill="none" stroke="#63b8ff" d="M3286.37,-111.4C3283.2,-110.91 3280.05,-110.43 3277,-110 3160.3,-93.38 3023.11,-78.76 2947.43,-71.13"/>
<polygon fill="#63b8ff" stroke="#63b8ff" points="2947.47,-67.61 2937.17,-70.1 2946.77,-74.58 2947.47,-67.61"/>
</a>
</g>
</g>
<!-- Node98&#45;&gt;Node72 -->
<g id="edge54_Node000098_Node000072" class="edge">
<title>Node98&#45;&gt;Node72</title>
<g id="a_edge54_Node000098_Node000072"><a xlink:title=" ">
<path fill="none" stroke="#63b8ff" d="M3327,-109.75C3327,-102.8 3327,-92.85 3327,-84.13"/>
<polygon fill="#63b8ff" stroke="#63b8ff" points="3330.5,-84.09 3327,-74.09 3323.5,-84.09 3330.5,-84.09"/>
</a>
</g>
</g>
</g>
</svg>
