<?xml version="1.0" encoding="UTF-8" standalone="no"?>
<!DOCTYPE svg PUBLIC "-//W3C//DTD SVG 1.1//EN"
 "http://www.w3.org/Graphics/SVG/1.1/DTD/svg11.dtd">
<!-- Generated by graphviz version 2.43.0 (0)
 -->
<!-- Title: squid/src/String.cc Pages: 1 -->
<svg width="4210pt" height="302pt"
 viewBox="0.00 0.00 4210.00 302.00" xmlns="http://www.w3.org/2000/svg" xmlns:xlink="http://www.w3.org/1999/xlink">
<g id="graph0" class="graph" transform="scale(1 1) rotate(0) translate(4 298)">
<title>squid/src/String.cc</title>
<!-- Node1 -->
<g id="Node000001" class="node">
<title>Node1</title>
<g id="a_Node000001"><a xlink:title=" ">
<polygon fill="#999999" stroke="#666666" points="3591.5,-294 3486.5,-294 3486.5,-275 3591.5,-275 3591.5,-294"/>
<text text-anchor="middle" x="3539" y="-282" font-family="Helvetica,sans-Serif" font-size="10.00">squid/src/String.cc</text>
</a>
</g>
</g>
<!-- Node2 -->
<g id="Node000002" class="node">
<title>Node2</title>
<g id="a_Node000002"><a xlink:href="squid_8h.html" target="_top" xlink:title=" ">
<polygon fill="white" stroke="#666666" points="1669,-239 1617,-239 1617,-220 1669,-220 1669,-239"/>
<text text-anchor="middle" x="1643" y="-227" font-family="Helvetica,sans-Serif" font-size="10.00">squid.h</text>
</a>
</g>
</g>
<!-- Node1&#45;&gt;Node2 -->
<g id="edge1_Node000001_Node000002" class="edge">
<title>Node1&#45;&gt;Node2</title>
<g id="a_edge1_Node000001_Node000002"><a xlink:title=" ">
<path fill="none" stroke="#63b8ff" d="M3486.31,-282.03C3208,-274.25 1912.89,-238.04 1679.19,-231.51"/>
<polygon fill="#63b8ff" stroke="#63b8ff" points="1679.27,-228.01 1669.17,-231.23 1679.07,-235.01 1679.27,-228.01"/>
</a>
</g>
</g>
<!-- Node44 -->
<g id="Node000044" class="node">
<title>Node44</title>
<g id="a_Node000044"><a xlink:href="mem_2forward_8h.html" target="_top" xlink:title=" ">
<polygon fill="white" stroke="#666666" points="3323,-184 3231,-184 3231,-165 3323,-165 3323,-184"/>
<text text-anchor="middle" x="3277" y="-172" font-family="Helvetica,sans-Serif" font-size="10.00">mem/forward.h</text>
</a>
</g>
</g>
<!-- Node1&#45;&gt;Node44 -->
<g id="edge30_Node000001_Node000044" class="edge">
<title>Node1&#45;&gt;Node44</title>
<g id="a_edge30_Node000001_Node000044"><a xlink:title=" ">
<path fill="none" stroke="#63b8ff" d="M3518,-274.84C3471.71,-255.76 3360.72,-210.01 3307.06,-187.89"/>
<polygon fill="#63b8ff" stroke="#63b8ff" points="3308.31,-184.62 3297.73,-184.05 3305.65,-191.09 3308.31,-184.62"/>
</a>
</g>
</g>
<!-- Node47 -->
<g id="Node000047" class="node">
<title>Node47</title>
<g id="a_Node000047"><a xlink:href="SBuf_8h.html" target="_top" xlink:title=" ">
<polygon fill="white" stroke="#666666" points="3877.5,-239 3806.5,-239 3806.5,-220 3877.5,-220 3877.5,-239"/>
<text text-anchor="middle" x="3842" y="-227" font-family="Helvetica,sans-Serif" font-size="10.00">sbuf/SBuf.h</text>
</a>
</g>
</g>
<!-- Node1&#45;&gt;Node47 -->
<g id="edge33_Node000001_Node000047" class="edge">
<title>Node1&#45;&gt;Node47</title>
<g id="a_edge33_Node000001_Node000047"><a xlink:title=" ">
<path fill="none" stroke="#63b8ff" d="M3587.68,-274.98C3645.16,-264.93 3740.04,-248.34 3796.22,-238.51"/>
<polygon fill="#63b8ff" stroke="#63b8ff" points="3797,-241.92 3806.25,-236.75 3795.79,-235.03 3797,-241.92"/>
</a>
</g>
</g>
<!-- Node77 -->
<g id="Node000077" class="node">
<title>Node77</title>
<g id="a_Node000077"><a xlink:title=" ">
<polygon fill="#e0e0e0" stroke="#999999" points="4202,-184 4152,-184 4152,-165 4202,-165 4202,-184"/>
<text text-anchor="middle" x="4177" y="-172" font-family="Helvetica,sans-Serif" font-size="10.00">climits</text>
</a>
</g>
</g>
<!-- Node1&#45;&gt;Node77 -->
<g id="edge61_Node000001_Node000077" class="edge">
<title>Node1&#45;&gt;Node77</title>
<g id="a_edge61_Node000001_Node000077"><a xlink:title=" ">
<path fill="none" stroke="#63b8ff" d="M3591.53,-278.21C3659.69,-271.01 3782.16,-256.95 3886,-239 3979.1,-222.9 4087.55,-197.43 4142.01,-184.17"/>
<polygon fill="#63b8ff" stroke="#63b8ff" points="4142.96,-187.54 4151.84,-181.77 4141.3,-180.74 4142.96,-187.54"/>
</a>
</g>
</g>
<!-- Node79 -->
<g id="Node000079" class="node">
<title>Node79</title>
<g id="a_Node000079"><a xlink:href="SquidString_8h.html" target="_top" xlink:title=" ">
<polygon fill="white" stroke="#666666" points="3579.5,-239 3498.5,-239 3498.5,-220 3579.5,-220 3579.5,-239"/>
<text text-anchor="middle" x="3539" y="-227" font-family="Helvetica,sans-Serif" font-size="10.00">SquidString.h</text>
</a>
</g>
</g>
<!-- Node1&#45;&gt;Node79 -->
<g id="edge56_Node000001_Node000079" class="edge">
<title>Node1&#45;&gt;Node79</title>
<g id="a_edge56_Node000001_Node000079"><a xlink:title=" ">
<path fill="none" stroke="#63b8ff" d="M3539,-274.75C3539,-267.8 3539,-257.85 3539,-249.13"/>
<polygon fill="#63b8ff" stroke="#63b8ff" points="3542.5,-249.09 3539,-239.09 3535.5,-249.09 3542.5,-249.09"/>
</a>
</g>
</g>
<!-- Node3 -->
<g id="Node000003" class="node">
<title>Node3</title>
<g id="a_Node000003"><a xlink:href="autoconf_8h.html" target="_top" xlink:title=" ">
<polygon fill="white" stroke="#666666" points="1544,-184 1476,-184 1476,-165 1544,-165 1544,-184"/>
<text text-anchor="middle" x="1510" y="-172" font-family="Helvetica,sans-Serif" font-size="10.00">autoconf.h</text>
</a>
</g>
</g>
<!-- Node2&#45;&gt;Node3 -->
<g id="edge2_Node000002_Node000003" class="edge">
<title>Node2&#45;&gt;Node3</title>
<g id="a_edge2_Node000002_Node000003"><a xlink:title=" ">
<path fill="none" stroke="#63b8ff" d="M1621.63,-219.98C1599.85,-211.3 1565.84,-197.75 1541.08,-187.88"/>
<polygon fill="#63b8ff" stroke="#63b8ff" points="1542.34,-184.62 1531.76,-184.17 1539.75,-191.12 1542.34,-184.62"/>
</a>
</g>
</g>
<!-- Node4 -->
<g id="Node000004" class="node">
<title>Node4</title>
<g id="a_Node000004"><a xlink:href="version_8h.html" target="_top" xlink:title=" ">
<polygon fill="white" stroke="#666666" points="1624,-184 1562,-184 1562,-165 1624,-165 1624,-184"/>
<text text-anchor="middle" x="1593" y="-172" font-family="Helvetica,sans-Serif" font-size="10.00">version.h</text>
</a>
</g>
</g>
<!-- Node2&#45;&gt;Node4 -->
<g id="edge3_Node000002_Node000004" class="edge">
<title>Node2&#45;&gt;Node4</title>
<g id="a_edge3_Node000002_Node000004"><a xlink:title=" ">
<path fill="none" stroke="#63b8ff" d="M1634.74,-219.75C1627.54,-212.11 1616.89,-200.82 1608.15,-191.56"/>
<polygon fill="#63b8ff" stroke="#63b8ff" points="1610.51,-188.96 1601.1,-184.09 1605.42,-193.76 1610.51,-188.96"/>
</a>
</g>
</g>
<!-- Node5 -->
<g id="Node000005" class="node">
<title>Node5</title>
<g id="a_Node000005"><a xlink:href="compat_8h.html" target="_top" xlink:title=" ">
<polygon fill="white" stroke="#666666" points="1744,-184 1642,-184 1642,-165 1744,-165 1744,-184"/>
<text text-anchor="middle" x="1693" y="-172" font-family="Helvetica,sans-Serif" font-size="10.00">compat/compat.h</text>
</a>
</g>
</g>
<!-- Node2&#45;&gt;Node5 -->
<g id="edge4_Node000002_Node000005" class="edge">
<title>Node2&#45;&gt;Node5</title>
<g id="a_edge4_Node000002_Node000005"><a xlink:title=" ">
<path fill="none" stroke="#63b8ff" d="M1651.26,-219.75C1658.46,-212.11 1669.11,-200.82 1677.85,-191.56"/>
<polygon fill="#63b8ff" stroke="#63b8ff" points="1680.58,-193.76 1684.9,-184.09 1675.49,-188.96 1680.58,-193.76"/>
</a>
</g>
</g>
<!-- Node6 -->
<g id="Node000006" class="node">
<title>Node6</title>
<g id="a_Node000006"><a xlink:href="osdetect_8h.html" target="_top" xlink:title=" ">
<polygon fill="white" stroke="#666666" points="2275.5,-129 2168.5,-129 2168.5,-110 2275.5,-110 2275.5,-129"/>
<text text-anchor="middle" x="2222" y="-117" font-family="Helvetica,sans-Serif" font-size="10.00">compat/osdetect.h</text>
</a>
</g>
</g>
<!-- Node5&#45;&gt;Node6 -->
<g id="edge5_Node000005_Node000006" class="edge">
<title>Node5&#45;&gt;Node6</title>
<g id="a_edge5_Node000005_Node000006"><a xlink:title=" ">
<path fill="none" stroke="#63b8ff" d="M1744.1,-169.28C1828.08,-162.19 2000.8,-147.01 2158.07,-129.06"/>
<polygon fill="#63b8ff" stroke="#63b8ff" points="2158.87,-132.49 2168.4,-127.88 2158.07,-125.54 2158.87,-132.49"/>
</a>
</g>
</g>
<!-- Node7 -->
<g id="Node000007" class="node">
<title>Node7</title>
<g id="a_Node000007"><a xlink:href="fdsetsize_8h.html" target="_top" xlink:title=" ">
<polygon fill="white" stroke="#666666" points="2404,-129 2294,-129 2294,-110 2404,-110 2404,-129"/>
<text text-anchor="middle" x="2349" y="-117" font-family="Helvetica,sans-Serif" font-size="10.00">compat/fdsetsize.h</text>
</a>
</g>
</g>
<!-- Node5&#45;&gt;Node7 -->
<g id="edge6_Node000005_Node000007" class="edge">
<title>Node5&#45;&gt;Node7</title>
<g id="a_edge6_Node000005_Node000007"><a xlink:title=" ">
<path fill="none" stroke="#63b8ff" d="M1744.07,-170.6C1844.94,-164.67 2077.03,-150 2283.58,-128.98"/>
<polygon fill="#63b8ff" stroke="#63b8ff" points="2284.11,-132.44 2293.71,-127.94 2283.4,-125.48 2284.11,-132.44"/>
</a>
</g>
</g>
<!-- Node8 -->
<g id="Node000008" class="node">
<title>Node8</title>
<g id="a_Node000008"><a xlink:href="types_8h.html" target="_top" xlink:title=" ">
<polygon fill="#fff0f0" stroke="red" points="2514,-129 2422,-129 2422,-110 2514,-110 2514,-129"/>
<text text-anchor="middle" x="2468" y="-117" font-family="Helvetica,sans-Serif" font-size="10.00">compat/types.h</text>
</a>
</g>
</g>
<!-- Node5&#45;&gt;Node8 -->
<g id="edge7_Node000005_Node000008" class="edge">
<title>Node5&#45;&gt;Node8</title>
<g id="a_edge7_Node000005_Node000008"><a xlink:title=" ">
<path fill="none" stroke="#63b8ff" d="M1744.2,-171.95C1860.79,-168.06 2155.14,-156.3 2411.57,-129.05"/>
<polygon fill="#63b8ff" stroke="#63b8ff" points="2412.26,-132.5 2421.83,-127.95 2411.51,-125.54 2412.26,-132.5"/>
</a>
</g>
</g>
<!-- Node10 -->
<g id="Node000010" class="node">
<title>Node10</title>
<g id="a_Node000010"><a xlink:href="aix_8h.html" target="_top" xlink:title=" ">
<polygon fill="white" stroke="#666666" points="2627.5,-129 2532.5,-129 2532.5,-110 2627.5,-110 2627.5,-129"/>
<text text-anchor="middle" x="2580" y="-117" font-family="Helvetica,sans-Serif" font-size="10.00">compat/os/aix.h</text>
</a>
</g>
</g>
<!-- Node5&#45;&gt;Node10 -->
<g id="edge8_Node000005_Node000010" class="edge">
<title>Node5&#45;&gt;Node10</title>
<g id="a_edge8_Node000005_Node000010"><a xlink:title=" ">
<path fill="none" stroke="#63b8ff" d="M1744.13,-172.44C1872.9,-169.4 2221.1,-158.97 2522.21,-128.96"/>
<polygon fill="#63b8ff" stroke="#63b8ff" points="2522.86,-132.42 2532.46,-127.93 2522.16,-125.45 2522.86,-132.42"/>
</a>
</g>
</g>
<!-- Node11 -->
<g id="Node000011" class="node">
<title>Node11</title>
<g id="a_Node000011"><a xlink:href="android_8h.html" target="_top" xlink:title=" ">
<polygon fill="white" stroke="#666666" points="2762,-129 2646,-129 2646,-110 2762,-110 2762,-129"/>
<text text-anchor="middle" x="2704" y="-117" font-family="Helvetica,sans-Serif" font-size="10.00">compat/os/android.h</text>
</a>
</g>
</g>
<!-- Node5&#45;&gt;Node11 -->
<g id="edge9_Node000005_Node000011" class="edge">
<title>Node5&#45;&gt;Node11</title>
<g id="a_edge9_Node000005_Node000011"><a xlink:title=" ">
<path fill="none" stroke="#63b8ff" d="M1744.2,-172.47C1884.75,-169.36 2288.56,-158.41 2635.79,-128.93"/>
<polygon fill="#63b8ff" stroke="#63b8ff" points="2636.13,-132.42 2645.79,-128.08 2635.53,-125.44 2636.13,-132.42"/>
</a>
</g>
</g>
<!-- Node12 -->
<g id="Node000012" class="node">
<title>Node12</title>
<g id="a_Node000012"><a xlink:href="dragonfly_8h.html" target="_top" xlink:title=" ">
<polygon fill="white" stroke="#666666" points="2904,-129 2780,-129 2780,-110 2904,-110 2904,-129"/>
<text text-anchor="middle" x="2842" y="-117" font-family="Helvetica,sans-Serif" font-size="10.00">compat/os/dragonfly.h</text>
</a>
</g>
</g>
<!-- Node5&#45;&gt;Node12 -->
<g id="edge10_Node000005_Node000012" class="edge">
<title>Node5&#45;&gt;Node12</title>
<g id="a_edge10_Node000005_Node000012"><a xlink:title=" ">
<path fill="none" stroke="#63b8ff" d="M1744.15,-172.8C1897.76,-170.41 2368.67,-160.86 2769.64,-129.04"/>
<polygon fill="#63b8ff" stroke="#63b8ff" points="2770,-132.52 2779.69,-128.24 2769.44,-125.55 2770,-132.52"/>
</a>
</g>
</g>
<!-- Node13 -->
<g id="Node000013" class="node">
<title>Node13</title>
<g id="a_Node000013"><a xlink:href="freebsd_8h.html" target="_top" xlink:title=" ">
<polygon fill="white" stroke="#666666" points="3038,-129 2922,-129 2922,-110 3038,-110 3038,-129"/>
<text text-anchor="middle" x="2980" y="-117" font-family="Helvetica,sans-Serif" font-size="10.00">compat/os/freebsd.h</text>
</a>
</g>
</g>
<!-- Node5&#45;&gt;Node13 -->
<g id="edge11_Node000005_Node000013" class="edge">
<title>Node5&#45;&gt;Node13</title>
<g id="a_edge11_Node000005_Node000013"><a xlink:title=" ">
<path fill="none" stroke="#63b8ff" d="M1744.24,-173.27C1910.91,-172.19 2452.92,-165.94 2911.79,-129.01"/>
<polygon fill="#63b8ff" stroke="#63b8ff" points="2912.24,-132.49 2921.93,-128.19 2911.68,-125.51 2912.24,-132.49"/>
</a>
</g>
</g>
<!-- Node14 -->
<g id="Node000014" class="node">
<title>Node14</title>
<g id="a_Node000014"><a xlink:href="hpux_8h.html" target="_top" xlink:title=" ">
<polygon fill="white" stroke="#666666" points="3160,-129 3056,-129 3056,-110 3160,-110 3160,-129"/>
<text text-anchor="middle" x="3108" y="-117" font-family="Helvetica,sans-Serif" font-size="10.00">compat/os/hpux.h</text>
</a>
</g>
</g>
<!-- Node5&#45;&gt;Node14 -->
<g id="edge12_Node000005_Node000014" class="edge">
<title>Node5&#45;&gt;Node14</title>
<g id="a_edge12_Node000005_Node000014"><a xlink:title=" ">
<path fill="none" stroke="#63b8ff" d="M1744.14,-173.76C1922.28,-174.26 2532.14,-172.53 3045.59,-129.02"/>
<polygon fill="#63b8ff" stroke="#63b8ff" points="3046.13,-132.48 3055.8,-128.14 3045.54,-125.51 3046.13,-132.48"/>
</a>
</g>
</g>
<!-- Node15 -->
<g id="Node000015" class="node">
<title>Node15</title>
<g id="a_Node000015"><a xlink:href="linux_8h.html" target="_top" xlink:title=" ">
<polygon fill="white" stroke="#666666" points="104,-129 0,-129 0,-110 104,-110 104,-129"/>
<text text-anchor="middle" x="52" y="-117" font-family="Helvetica,sans-Serif" font-size="10.00">compat/os/linux.h</text>
</a>
</g>
</g>
<!-- Node5&#45;&gt;Node15 -->
<g id="edge13_Node000005_Node000015" class="edge">
<title>Node5&#45;&gt;Node15</title>
<g id="a_edge13_Node000005_Node000015"><a xlink:title=" ">
<path fill="none" stroke="#63b8ff" d="M1641.98,-165.86C1638.95,-165.53 1635.94,-165.24 1633,-165 962.99,-109.8 788.31,-182.96 114.65,-129.02"/>
<polygon fill="#63b8ff" stroke="#63b8ff" points="114.45,-125.49 104.2,-128.18 113.89,-132.47 114.45,-125.49"/>
</a>
</g>
</g>
<!-- Node16 -->
<g id="Node000016" class="node">
<title>Node16</title>
<g id="a_Node000016"><a xlink:href="macosx_8h.html" target="_top" xlink:title=" ">
<polygon fill="white" stroke="#666666" points="240,-129 122,-129 122,-110 240,-110 240,-129"/>
<text text-anchor="middle" x="181" y="-117" font-family="Helvetica,sans-Serif" font-size="10.00">compat/os/macosx.h</text>
</a>
</g>
</g>
<!-- Node5&#45;&gt;Node16 -->
<g id="edge14_Node000005_Node000016" class="edge">
<title>Node5&#45;&gt;Node16</title>
<g id="a_edge14_Node000005_Node000016"><a xlink:title=" ">
<path fill="none" stroke="#63b8ff" d="M1641.98,-165.87C1638.95,-165.54 1635.94,-165.25 1633,-165 1023.11,-114.04 864.28,-174.56 250.29,-129.01"/>
<polygon fill="#63b8ff" stroke="#63b8ff" points="250.54,-125.52 240.3,-128.26 250.01,-132.5 250.54,-125.52"/>
</a>
</g>
</g>
<!-- Node17 -->
<g id="Node000017" class="node">
<title>Node17</title>
<g id="a_Node000017"><a xlink:href="mingw_8h.html" target="_top" xlink:title=" ">
<polygon fill="white" stroke="#666666" points="370,-129 258,-129 258,-110 370,-110 370,-129"/>
<text text-anchor="middle" x="314" y="-117" font-family="Helvetica,sans-Serif" font-size="10.00">compat/os/mingw.h</text>
</a>
</g>
</g>
<!-- Node5&#45;&gt;Node17 -->
<g id="edge15_Node000005_Node000017" class="edge">
<title>Node5&#45;&gt;Node17</title>
<g id="a_edge15_Node000005_Node000017"><a xlink:title=" ">
<path fill="none" stroke="#63b8ff" d="M1641.98,-165.88C1638.95,-165.55 1635.94,-165.25 1633,-165 1080.83,-118.11 936.56,-172.53 380.62,-129.03"/>
<polygon fill="#63b8ff" stroke="#63b8ff" points="380.58,-125.52 370.33,-128.22 380.03,-132.5 380.58,-125.52"/>
</a>
</g>
</g>
<!-- Node18 -->
<g id="Node000018" class="node">
<title>Node18</title>
<g id="a_Node000018"><a xlink:href="mswindows_8h.html" target="_top" xlink:title=" ">
<polygon fill="white" stroke="#666666" points="525.5,-129 388.5,-129 388.5,-110 525.5,-110 525.5,-129"/>
<text text-anchor="middle" x="457" y="-117" font-family="Helvetica,sans-Serif" font-size="10.00">compat/os/mswindows.h</text>
</a>
</g>
</g>
<!-- Node5&#45;&gt;Node18 -->
<g id="edge16_Node000005_Node000018" class="edge">
<title>Node5&#45;&gt;Node18</title>
<g id="a_edge16_Node000005_Node000018"><a xlink:title=" ">
<path fill="none" stroke="#63b8ff" d="M1641.98,-165.89C1638.95,-165.56 1635.93,-165.26 1633,-165 1149.46,-122.95 1023.18,-163.28 535.94,-129.08"/>
<polygon fill="#63b8ff" stroke="#63b8ff" points="536.05,-125.58 525.82,-128.36 535.55,-132.56 536.05,-125.58"/>
</a>
</g>
</g>
<!-- Node19 -->
<g id="Node000019" class="node">
<title>Node19</title>
<g id="a_Node000019"><a xlink:href="netbsd_8h.html" target="_top" xlink:title=" ">
<polygon fill="white" stroke="#666666" points="656.5,-129 543.5,-129 543.5,-110 656.5,-110 656.5,-129"/>
<text text-anchor="middle" x="600" y="-117" font-family="Helvetica,sans-Serif" font-size="10.00">compat/os/netbsd.h</text>
</a>
</g>
</g>
<!-- Node5&#45;&gt;Node19 -->
<g id="edge17_Node000005_Node000019" class="edge">
<title>Node5&#45;&gt;Node19</title>
<g id="a_edge17_Node000005_Node000019"><a xlink:title=" ">
<path fill="none" stroke="#63b8ff" d="M1641.98,-165.91C1638.94,-165.57 1635.93,-165.26 1633,-165 1207.53,-127.05 1095.76,-164.36 666.88,-129.07"/>
<polygon fill="#63b8ff" stroke="#63b8ff" points="666.94,-125.57 656.69,-128.23 666.36,-132.54 666.94,-125.57"/>
</a>
</g>
</g>
<!-- Node20 -->
<g id="Node000020" class="node">
<title>Node20</title>
<g id="a_Node000020"><a xlink:href="openbsd_8h.html" target="_top" xlink:title=" ">
<polygon fill="white" stroke="#666666" points="795.5,-129 674.5,-129 674.5,-110 795.5,-110 795.5,-129"/>
<text text-anchor="middle" x="735" y="-117" font-family="Helvetica,sans-Serif" font-size="10.00">compat/os/openbsd.h</text>
</a>
</g>
</g>
<!-- Node5&#45;&gt;Node20 -->
<g id="edge18_Node000005_Node000020" class="edge">
<title>Node5&#45;&gt;Node20</title>
<g id="a_edge18_Node000005_Node000020"><a xlink:title=" ">
<path fill="none" stroke="#63b8ff" d="M1641.98,-165.93C1638.94,-165.58 1635.93,-165.27 1633,-165 1269.09,-131.4 1173.25,-159.06 805.67,-129.07"/>
<polygon fill="#63b8ff" stroke="#63b8ff" points="805.81,-125.57 795.55,-128.23 805.23,-132.54 805.81,-125.57"/>
</a>
</g>
</g>
<!-- Node21 -->
<g id="Node000021" class="node">
<title>Node21</title>
<g id="a_Node000021"><a xlink:href="os2_8h.html" target="_top" xlink:title=" ">
<polygon fill="white" stroke="#666666" points="910.5,-129 813.5,-129 813.5,-110 910.5,-110 910.5,-129"/>
<text text-anchor="middle" x="862" y="-117" font-family="Helvetica,sans-Serif" font-size="10.00">compat/os/os2.h</text>
</a>
</g>
</g>
<!-- Node5&#45;&gt;Node21 -->
<g id="edge19_Node000005_Node000021" class="edge">
<title>Node5&#45;&gt;Node21</title>
<g id="a_edge19_Node000005_Node000021"><a xlink:title=" ">
<path fill="none" stroke="#63b8ff" d="M1641.97,-165.95C1638.94,-165.6 1635.93,-165.28 1633,-165 1320.55,-135.04 1237.55,-159.5 921.09,-128.99"/>
<polygon fill="#63b8ff" stroke="#63b8ff" points="920.99,-125.47 910.69,-127.98 920.31,-132.43 920.99,-125.47"/>
</a>
</g>
</g>
<!-- Node22 -->
<g id="Node000022" class="node">
<title>Node22</title>
<g id="a_Node000022"><a xlink:href="qnx_8h.html" target="_top" xlink:title=" ">
<polygon fill="white" stroke="#666666" points="1027,-129 929,-129 929,-110 1027,-110 1027,-129"/>
<text text-anchor="middle" x="978" y="-117" font-family="Helvetica,sans-Serif" font-size="10.00">compat/os/qnx.h</text>
</a>
</g>
</g>
<!-- Node5&#45;&gt;Node22 -->
<g id="edge20_Node000005_Node000022" class="edge">
<title>Node5&#45;&gt;Node22</title>
<g id="a_edge20_Node000005_Node000022"><a xlink:title=" ">
<path fill="none" stroke="#63b8ff" d="M1641.97,-165.99C1638.94,-165.63 1635.93,-165.3 1633,-165 1371.88,-138.67 1302.17,-155.85 1037.33,-129.04"/>
<polygon fill="#63b8ff" stroke="#63b8ff" points="1037.32,-125.52 1027.01,-127.98 1036.6,-132.48 1037.32,-125.52"/>
</a>
</g>
</g>
<!-- Node23 -->
<g id="Node000023" class="node">
<title>Node23</title>
<g id="a_Node000023"><a xlink:href="solaris_8h.html" target="_top" xlink:title=" ">
<polygon fill="white" stroke="#666666" points="1157,-129 1045,-129 1045,-110 1157,-110 1157,-129"/>
<text text-anchor="middle" x="1101" y="-117" font-family="Helvetica,sans-Serif" font-size="10.00">compat/os/solaris.h</text>
</a>
</g>
</g>
<!-- Node5&#45;&gt;Node23 -->
<g id="edge21_Node000005_Node000023" class="edge">
<title>Node5&#45;&gt;Node23</title>
<g id="a_edge21_Node000005_Node000023"><a xlink:title=" ">
<path fill="none" stroke="#63b8ff" d="M1641.96,-166.04C1638.93,-165.67 1635.93,-165.32 1633,-165 1429.29,-142.74 1374.75,-150.26 1167.34,-129.08"/>
<polygon fill="#63b8ff" stroke="#63b8ff" points="1167.65,-125.6 1157.35,-128.05 1166.94,-132.56 1167.65,-125.6"/>
</a>
</g>
</g>
<!-- Node24 -->
<g id="Node000024" class="node">
<title>Node24</title>
<g id="a_Node000024"><a xlink:href="sunos_8h.html" target="_top" xlink:title=" ">
<polygon fill="white" stroke="#666666" points="1283,-129 1175,-129 1175,-110 1283,-110 1283,-129"/>
<text text-anchor="middle" x="1229" y="-117" font-family="Helvetica,sans-Serif" font-size="10.00">compat/os/sunos.h</text>
</a>
</g>
</g>
<!-- Node5&#45;&gt;Node24 -->
<g id="edge22_Node000005_Node000024" class="edge">
<title>Node5&#45;&gt;Node24</title>
<g id="a_edge22_Node000005_Node000024"><a xlink:title=" ">
<path fill="none" stroke="#63b8ff" d="M1641.95,-166.14C1638.93,-165.75 1635.92,-165.36 1633,-165 1485,-146.71 1445.01,-147.16 1293.43,-129.14"/>
<polygon fill="#63b8ff" stroke="#63b8ff" points="1293.63,-125.64 1283.28,-127.93 1292.8,-132.59 1293.63,-125.64"/>
</a>
</g>
</g>
<!-- Node25 -->
<g id="Node000025" class="node">
<title>Node25</title>
<g id="a_Node000025"><a xlink:href="assert_8h.html" target="_top" xlink:title=" ">
<polygon fill="white" stroke="#666666" points="1396.5,-129 1301.5,-129 1301.5,-110 1396.5,-110 1396.5,-129"/>
<text text-anchor="middle" x="1349" y="-117" font-family="Helvetica,sans-Serif" font-size="10.00">compat/assert.h</text>
</a>
</g>
</g>
<!-- Node5&#45;&gt;Node25 -->
<g id="edge23_Node000005_Node000025" class="edge">
<title>Node5&#45;&gt;Node25</title>
<g id="a_edge23_Node000005_Node000025"><a xlink:title=" ">
<path fill="none" stroke="#63b8ff" d="M1641.87,-165.62C1578.98,-155.93 1472.49,-139.53 1406.72,-129.39"/>
<polygon fill="#63b8ff" stroke="#63b8ff" points="1406.94,-125.89 1396.53,-127.82 1405.88,-132.8 1406.94,-125.89"/>
</a>
</g>
</g>
<!-- Node26 -->
<g id="Node000026" class="node">
<title>Node26</title>
<g id="a_Node000026"><a xlink:href="compat__shared_8h.html" target="_top" xlink:title=" ">
<polygon fill="#fff0f0" stroke="red" points="1555,-129 1415,-129 1415,-110 1555,-110 1555,-129"/>
<text text-anchor="middle" x="1485" y="-117" font-family="Helvetica,sans-Serif" font-size="10.00">compat/compat_shared.h</text>
</a>
</g>
</g>
<!-- Node5&#45;&gt;Node26 -->
<g id="edge24_Node000005_Node000026" class="edge">
<title>Node5&#45;&gt;Node26</title>
<g id="a_edge24_Node000005_Node000026"><a xlink:title=" ">
<path fill="none" stroke="#63b8ff" d="M1659.58,-164.98C1624.06,-155.93 1567.73,-141.58 1528.7,-131.64"/>
<polygon fill="#63b8ff" stroke="#63b8ff" points="1529.24,-128.16 1518.68,-129.08 1527.51,-134.94 1529.24,-128.16"/>
</a>
</g>
</g>
<!-- Node36 -->
<g id="Node000036" class="node">
<title>Node36</title>
<g id="a_Node000036"><a xlink:href="stdvarargs_8h.html" target="_top" xlink:title=" ">
<polygon fill="#fff0f0" stroke="red" points="1690.5,-129 1573.5,-129 1573.5,-110 1690.5,-110 1690.5,-129"/>
<text text-anchor="middle" x="1632" y="-117" font-family="Helvetica,sans-Serif" font-size="10.00">compat/stdvarargs.h</text>
</a>
</g>
</g>
<!-- Node5&#45;&gt;Node36 -->
<g id="edge25_Node000005_Node000036" class="edge">
<title>Node5&#45;&gt;Node36</title>
<g id="a_edge25_Node000005_Node000036"><a xlink:title=" ">
<path fill="none" stroke="#63b8ff" d="M1683.2,-164.98C1674.18,-157.15 1660.59,-145.34 1649.68,-135.86"/>
<polygon fill="#63b8ff" stroke="#63b8ff" points="1651.82,-133.09 1641.98,-129.17 1647.23,-138.37 1651.82,-133.09"/>
</a>
</g>
</g>
<!-- Node38 -->
<g id="Node000038" class="node">
<title>Node38</title>
<g id="a_Node000038"><a xlink:href="stdio_8h.html" target="_top" xlink:title=" ">
<polygon fill="#fff0f0" stroke="red" points="1797.5,-129 1708.5,-129 1708.5,-110 1797.5,-110 1797.5,-129"/>
<text text-anchor="middle" x="1753" y="-117" font-family="Helvetica,sans-Serif" font-size="10.00">compat/stdio.h</text>
</a>
</g>
</g>
<!-- Node5&#45;&gt;Node38 -->
<g id="edge26_Node000005_Node000038" class="edge">
<title>Node5&#45;&gt;Node38</title>
<g id="a_edge26_Node000005_Node000038"><a xlink:title=" ">
<path fill="none" stroke="#63b8ff" d="M1702.64,-164.98C1711.51,-157.15 1724.87,-145.34 1735.61,-135.86"/>
<polygon fill="#63b8ff" stroke="#63b8ff" points="1738.01,-138.41 1743.18,-129.17 1733.37,-133.17 1738.01,-138.41"/>
</a>
</g>
</g>
<!-- Node40 -->
<g id="Node000040" class="node">
<title>Node40</title>
<g id="a_Node000040"><a xlink:href="statvfs_8h.html" target="_top" xlink:title=" ">
<polygon fill="white" stroke="#666666" points="1914.5,-129 1815.5,-129 1815.5,-110 1914.5,-110 1914.5,-129"/>
<text text-anchor="middle" x="1865" y="-117" font-family="Helvetica,sans-Serif" font-size="10.00">compat/statvfs.h</text>
</a>
</g>
</g>
<!-- Node5&#45;&gt;Node40 -->
<g id="edge27_Node000005_Node000040" class="edge">
<title>Node5&#45;&gt;Node40</title>
<g id="a_edge27_Node000005_Node000040"><a xlink:title=" ">
<path fill="none" stroke="#63b8ff" d="M1720.63,-164.98C1749.51,-156.09 1795.01,-142.07 1827.2,-132.15"/>
<polygon fill="#63b8ff" stroke="#63b8ff" points="1828.62,-135.37 1837.15,-129.08 1826.56,-128.68 1828.62,-135.37"/>
</a>
</g>
</g>
<!-- Node41 -->
<g id="Node000041" class="node">
<title>Node41</title>
<g id="a_Node000041"><a xlink:href="debug_8h.html" target="_top" xlink:title=" ">
<polygon fill="white" stroke="#666666" points="2027.5,-129 1932.5,-129 1932.5,-110 2027.5,-110 2027.5,-129"/>
<text text-anchor="middle" x="1980" y="-117" font-family="Helvetica,sans-Serif" font-size="10.00">compat/debug.h</text>
</a>
</g>
</g>
<!-- Node5&#45;&gt;Node41 -->
<g id="edge28_Node000005_Node000041" class="edge">
<title>Node5&#45;&gt;Node41</title>
<g id="a_edge28_Node000005_Node000041"><a xlink:title=" ">
<path fill="none" stroke="#63b8ff" d="M1739.11,-164.98C1789.28,-155.72 1869.51,-140.9 1923.44,-130.94"/>
<polygon fill="#63b8ff" stroke="#63b8ff" points="1924.33,-134.34 1933.53,-129.08 1923.06,-127.46 1924.33,-134.34"/>
</a>
</g>
</g>
<!-- Node42 -->
<g id="Node000042" class="node">
<title>Node42</title>
<g id="a_Node000042"><a xlink:href="valgrind_8h.html" target="_top" xlink:title=" ">
<polygon fill="#fff0f0" stroke="red" points="2150.5,-129 2045.5,-129 2045.5,-110 2150.5,-110 2150.5,-129"/>
<text text-anchor="middle" x="2098" y="-117" font-family="Helvetica,sans-Serif" font-size="10.00">compat/valgrind.h</text>
</a>
</g>
</g>
<!-- Node5&#45;&gt;Node42 -->
<g id="edge29_Node000005_Node000042" class="edge">
<title>Node5&#45;&gt;Node42</title>
<g id="a_edge29_Node000005_Node000042"><a xlink:title=" ">
<path fill="none" stroke="#63b8ff" d="M1744.15,-166.98C1809.23,-158.66 1925.38,-143.72 2035.3,-129.08"/>
<polygon fill="#63b8ff" stroke="#63b8ff" points="2035.79,-132.55 2045.24,-127.76 2034.86,-125.61 2035.79,-132.55"/>
</a>
</g>
</g>
<!-- Node45 -->
<g id="Node000045" class="node">
<title>Node45</title>
<g id="a_Node000045"><a xlink:href="AllocatorProxy_8h.html" target="_top" xlink:title=" ">
<polygon fill="white" stroke="#666666" points="3340,-129 3216,-129 3216,-110 3340,-110 3340,-129"/>
<text text-anchor="middle" x="3278" y="-117" font-family="Helvetica,sans-Serif" font-size="10.00">mem/AllocatorProxy.h</text>
</a>
</g>
</g>
<!-- Node44&#45;&gt;Node45 -->
<g id="edge31_Node000044_Node000045" class="edge">
<title>Node44&#45;&gt;Node45</title>
<g id="a_edge31_Node000044_Node000045"><a xlink:title=" ">
<path fill="none" stroke="#63b8ff" d="M3277.17,-164.75C3277.3,-157.8 3277.48,-147.85 3277.65,-139.13"/>
<polygon fill="#63b8ff" stroke="#63b8ff" points="3281.15,-139.15 3277.84,-129.09 3274.15,-139.02 3281.15,-139.15"/>
</a>
</g>
</g>
<!-- Node46 -->
<g id="Node000046" class="node">
<title>Node46</title>
<g id="a_Node000046"><a xlink:title=" ">
<polygon fill="#e0e0e0" stroke="#999999" points="3807,-19 3759,-19 3759,0 3807,0 3807,-19"/>
<text text-anchor="middle" x="3783" y="-7" font-family="Helvetica,sans-Serif" font-size="10.00">iosfwd</text>
</a>
</g>
</g>
<!-- Node44&#45;&gt;Node46 -->
<g id="edge32_Node000044_Node000046" class="edge">
<title>Node44&#45;&gt;Node46</title>
<g id="a_edge32_Node000044_Node000046"><a xlink:title=" ">
<path fill="none" stroke="#63b8ff" d="M3254.39,-164.85C3227.56,-153.33 3188.61,-131.84 3207,-110 3277.21,-26.62 3635.18,-13.11 3748.53,-10.92"/>
<polygon fill="#63b8ff" stroke="#63b8ff" points="3748.78,-14.42 3758.72,-10.74 3748.66,-7.42 3748.78,-14.42"/>
</a>
</g>
</g>
<!-- Node47&#45;&gt;Node46 -->
<g id="edge54_Node000047_Node000046" class="edge">
<title>Node47&#45;&gt;Node46</title>
<g id="a_edge54_Node000047_Node000046"><a xlink:title=" ">
<path fill="none" stroke="#63b8ff" d="M3873.74,-219.94C3902.88,-211.37 3942.87,-197.54 3952,-184 3956.72,-177 3955.41,-172.73 3952,-165 3922.32,-97.65 3847.16,-46.9 3807.84,-23.97"/>
<polygon fill="#63b8ff" stroke="#63b8ff" points="3809.54,-20.91 3799.12,-19 3806.07,-26.99 3809.54,-20.91"/>
</a>
</g>
</g>
<!-- Node48 -->
<g id="Node000048" class="node">
<title>Node48</title>
<g id="a_Node000048"><a xlink:href="InstanceId_8h.html" target="_top" xlink:title=" ">
<polygon fill="white" stroke="#666666" points="4102,-129 4000,-129 4000,-110 4102,-110 4102,-129"/>
<text text-anchor="middle" x="4051" y="-117" font-family="Helvetica,sans-Serif" font-size="10.00">base/InstanceId.h</text>
</a>
</g>
</g>
<!-- Node47&#45;&gt;Node48 -->
<g id="edge34_Node000047_Node000048" class="edge">
<title>Node47&#45;&gt;Node48</title>
<g id="a_edge34_Node000047_Node000048"><a xlink:title=" ">
<path fill="none" stroke="#63b8ff" d="M3877.71,-227.91C3942.72,-226.01 4076.31,-217.96 4105,-184 4119.48,-166.86 4096.61,-147.19 4076.32,-134.34"/>
<polygon fill="#63b8ff" stroke="#63b8ff" points="4077.99,-131.26 4067.61,-129.11 4074.39,-137.26 4077.99,-131.26"/>
</a>
</g>
</g>
<!-- Node49 -->
<g id="Node000049" class="node">
<title>Node49</title>
<g id="a_Node000049"><a xlink:href="TextException_8h.html" target="_top" xlink:title=" ">
<polygon fill="white" stroke="#666666" points="3537,-184 3417,-184 3417,-165 3537,-165 3537,-184"/>
<text text-anchor="middle" x="3477" y="-172" font-family="Helvetica,sans-Serif" font-size="10.00">base/TextException.h</text>
</a>
</g>
</g>
<!-- Node47&#45;&gt;Node49 -->
<g id="edge36_Node000047_Node000049" class="edge">
<title>Node47&#45;&gt;Node49</title>
<g id="a_edge36_Node000047_Node000049"><a xlink:title=" ">
<path fill="none" stroke="#63b8ff" d="M3806.34,-223.32C3746.17,-214.58 3623.48,-196.77 3546.01,-185.52"/>
<polygon fill="#63b8ff" stroke="#63b8ff" points="3546.26,-182.02 3535.86,-184.05 3545.26,-188.95 3546.26,-182.02"/>
</a>
</g>
</g>
<!-- Node53 -->
<g id="Node000053" class="node">
<title>Node53</title>
<g id="a_Node000053"><a xlink:href="debug_2Stream_8h.html" target="_top" xlink:title=" ">
<polygon fill="#fff0f0" stroke="red" points="3649,-184 3555,-184 3555,-165 3649,-165 3649,-184"/>
<text text-anchor="middle" x="3602" y="-172" font-family="Helvetica,sans-Serif" font-size="10.00">debug/Stream.h</text>
</a>
</g>
</g>
<!-- Node47&#45;&gt;Node53 -->
<g id="edge42_Node000047_Node000053" class="edge">
<title>Node47&#45;&gt;Node53</title>
<g id="a_edge42_Node000047_Node000053"><a xlink:title=" ">
<path fill="none" stroke="#63b8ff" d="M3806.33,-220.62C3764.97,-211.49 3696.58,-196.39 3650.43,-186.2"/>
<polygon fill="#63b8ff" stroke="#63b8ff" points="3651.17,-182.77 3640.65,-184.04 3649.66,-189.61 3651.17,-182.77"/>
</a>
</g>
</g>
<!-- Node57 -->
<g id="Node000057" class="node">
<title>Node57</title>
<g id="a_Node000057"><a xlink:href="globals_8h.html" target="_top" xlink:title=" ">
<polygon fill="#fff0f0" stroke="red" points="3872.5,-184 3811.5,-184 3811.5,-165 3872.5,-165 3872.5,-184"/>
<text text-anchor="middle" x="3842" y="-172" font-family="Helvetica,sans-Serif" font-size="10.00">globals.h</text>
</a>
</g>
</g>
<!-- Node47&#45;&gt;Node57 -->
<g id="edge47_Node000047_Node000057" class="edge">
<title>Node47&#45;&gt;Node57</title>
<g id="a_edge47_Node000047_Node000057"><a xlink:title=" ">
<path fill="none" stroke="#63b8ff" d="M3842,-219.75C3842,-212.8 3842,-202.85 3842,-194.13"/>
<polygon fill="#63b8ff" stroke="#63b8ff" points="3845.5,-194.09 3842,-184.09 3838.5,-194.09 3845.5,-194.09"/>
</a>
</g>
</g>
<!-- Node67 -->
<g id="Node000067" class="node">
<title>Node67</title>
<g id="a_Node000067"><a xlink:href="sbuf_2forward_8h.html" target="_top" xlink:title=" ">
<polygon fill="#fff0f0" stroke="red" points="3754.5,-184 3667.5,-184 3667.5,-165 3754.5,-165 3754.5,-184"/>
<text text-anchor="middle" x="3711" y="-172" font-family="Helvetica,sans-Serif" font-size="10.00">sbuf/forward.h</text>
</a>
</g>
</g>
<!-- Node47&#45;&gt;Node67 -->
<g id="edge48_Node000047_Node000067" class="edge">
<title>Node47&#45;&gt;Node67</title>
<g id="a_edge48_Node000047_Node000067"><a xlink:title=" ">
<path fill="none" stroke="#63b8ff" d="M3820.95,-219.98C3799.59,-211.34 3766.3,-197.87 3741.94,-188.02"/>
<polygon fill="#63b8ff" stroke="#63b8ff" points="3743.01,-184.68 3732.43,-184.17 3740.39,-191.17 3743.01,-184.68"/>
</a>
</g>
</g>
<!-- Node74 -->
<g id="Node000074" class="node">
<title>Node74</title>
<g id="a_Node000074"><a xlink:href="MemBlob_8h.html" target="_top" xlink:title=" ">
<polygon fill="#fff0f0" stroke="red" points="4096,-184 4000,-184 4000,-165 4096,-165 4096,-184"/>
<text text-anchor="middle" x="4048" y="-172" font-family="Helvetica,sans-Serif" font-size="10.00">sbuf/MemBlob.h</text>
</a>
</g>
</g>
<!-- Node47&#45;&gt;Node74 -->
<g id="edge49_Node000047_Node000074" class="edge">
<title>Node47&#45;&gt;Node74</title>
<g id="a_edge49_Node000047_Node000074"><a xlink:title=" ">
<path fill="none" stroke="#63b8ff" d="M3875.1,-219.98C3910.28,-210.93 3966.07,-196.58 4004.72,-186.64"/>
<polygon fill="#63b8ff" stroke="#63b8ff" points="4005.83,-189.96 4014.64,-184.08 4004.09,-183.18 4005.83,-189.96"/>
</a>
</g>
</g>
<!-- Node76 -->
<g id="Node000076" class="node">
<title>Node76</title>
<g id="a_Node000076"><a xlink:href="sbuf_2Stats_8h.html" target="_top" xlink:title=" ">
<polygon fill="white" stroke="#666666" points="3820,-74 3746,-74 3746,-55 3820,-55 3820,-74"/>
<text text-anchor="middle" x="3783" y="-62" font-family="Helvetica,sans-Serif" font-size="10.00">sbuf/Stats.h</text>
</a>
</g>
</g>
<!-- Node47&#45;&gt;Node76 -->
<g id="edge51_Node000047_Node000076" class="edge">
<title>Node47&#45;&gt;Node76</title>
<g id="a_edge51_Node000047_Node000076"><a xlink:title=" ">
<path fill="none" stroke="#63b8ff" d="M3831.29,-219.81C3821.97,-211.61 3808.89,-198.44 3802,-184 3786.41,-151.36 3783.23,-108.5 3782.79,-84.29"/>
<polygon fill="#63b8ff" stroke="#63b8ff" points="3786.29,-84.01 3782.76,-74.02 3779.29,-84.04 3786.29,-84.01"/>
</a>
</g>
</g>
<!-- Node47&#45;&gt;Node77 -->
<g id="edge53_Node000047_Node000077" class="edge">
<title>Node47&#45;&gt;Node77</title>
<g id="a_edge53_Node000047_Node000077"><a xlink:title=" ">
<path fill="none" stroke="#63b8ff" d="M3877.66,-223.9C3933.4,-216.55 4044.47,-201.2 4138,-184 4139.27,-183.77 4140.55,-183.52 4141.85,-183.27"/>
<polygon fill="#63b8ff" stroke="#63b8ff" points="4142.77,-186.66 4151.87,-181.23 4141.38,-179.8 4142.77,-186.66"/>
</a>
</g>
</g>
<!-- Node78 -->
<g id="Node000078" class="node">
<title>Node78</title>
<g id="a_Node000078"><a xlink:title=" ">
<polygon fill="#e0e0e0" stroke="#999999" points="3943.5,-184 3890.5,-184 3890.5,-165 3943.5,-165 3943.5,-184"/>
<text text-anchor="middle" x="3917" y="-172" font-family="Helvetica,sans-Serif" font-size="10.00">iterator</text>
</a>
</g>
</g>
<!-- Node47&#45;&gt;Node78 -->
<g id="edge55_Node000047_Node000078" class="edge">
<title>Node47&#45;&gt;Node78</title>
<g id="a_edge55_Node000047_Node000078"><a xlink:title=" ">
<path fill="none" stroke="#63b8ff" d="M3854.05,-219.98C3865.46,-211.92 3882.83,-199.65 3896.43,-190.03"/>
<polygon fill="#63b8ff" stroke="#63b8ff" points="3898.58,-192.8 3904.73,-184.17 3894.54,-187.08 3898.58,-192.8"/>
</a>
</g>
</g>
<!-- Node48&#45;&gt;Node46 -->
<g id="edge35_Node000048_Node000046" class="edge">
<title>Node48&#45;&gt;Node46</title>
<g id="a_edge35_Node000048_Node000046"><a xlink:title=" ">
<path fill="none" stroke="#63b8ff" d="M4044.87,-109.98C4034.44,-96.14 4011.82,-68.93 3986,-55 3931.7,-25.7 3859.36,-15.69 3817.31,-12.27"/>
<polygon fill="#63b8ff" stroke="#63b8ff" points="3817.54,-8.78 3807.31,-11.54 3817.02,-15.76 3817.54,-8.78"/>
</a>
</g>
</g>
<!-- Node50 -->
<g id="Node000050" class="node">
<title>Node50</title>
<g id="a_Node000050"><a xlink:href="Assure_8h.html" target="_top" xlink:title=" ">
<polygon fill="white" stroke="#666666" points="3443.5,-129 3358.5,-129 3358.5,-110 3443.5,-110 3443.5,-129"/>
<text text-anchor="middle" x="3401" y="-117" font-family="Helvetica,sans-Serif" font-size="10.00">base/Assure.h</text>
</a>
</g>
</g>
<!-- Node49&#45;&gt;Node50 -->
<g id="edge37_Node000049_Node000050" class="edge">
<title>Node49&#45;&gt;Node50</title>
<g id="a_edge37_Node000049_Node000050"><a xlink:title=" ">
<path fill="none" stroke="#63b8ff" d="M3464.79,-164.98C3453.22,-156.92 3435.62,-144.65 3421.84,-135.03"/>
<polygon fill="#63b8ff" stroke="#63b8ff" points="3423.64,-132.02 3413.43,-129.17 3419.63,-137.76 3423.64,-132.02"/>
</a>
</g>
</g>
<!-- Node51 -->
<g id="Node000051" class="node">
<title>Node51</title>
<g id="a_Node000051"><a xlink:href="Here_8h.html" target="_top" xlink:title=" ">
<polygon fill="white" stroke="#666666" points="3660.5,-74 3585.5,-74 3585.5,-55 3660.5,-55 3660.5,-74"/>
<text text-anchor="middle" x="3623" y="-62" font-family="Helvetica,sans-Serif" font-size="10.00">base/Here.h</text>
</a>
</g>
</g>
<!-- Node49&#45;&gt;Node51 -->
<g id="edge40_Node000049_Node000051" class="edge">
<title>Node49&#45;&gt;Node51</title>
<g id="a_edge40_Node000049_Node000051"><a xlink:title=" ">
<path fill="none" stroke="#63b8ff" d="M3488.7,-164.84C3513.58,-146.44 3571.99,-103.23 3602.94,-80.34"/>
<polygon fill="#63b8ff" stroke="#63b8ff" points="3605.29,-82.96 3611.24,-74.2 3601.12,-77.33 3605.29,-82.96"/>
</a>
</g>
</g>
<!-- Node52 -->
<g id="Node000052" class="node">
<title>Node52</title>
<g id="a_Node000052"><a xlink:title=" ">
<polygon fill="#e0e0e0" stroke="#999999" points="3526.5,-129 3461.5,-129 3461.5,-110 3526.5,-110 3526.5,-129"/>
<text text-anchor="middle" x="3494" y="-117" font-family="Helvetica,sans-Serif" font-size="10.00">stdexcept</text>
</a>
</g>
</g>
<!-- Node49&#45;&gt;Node52 -->
<g id="edge41_Node000049_Node000052" class="edge">
<title>Node49&#45;&gt;Node52</title>
<g id="a_edge41_Node000049_Node000052"><a xlink:title=" ">
<path fill="none" stroke="#63b8ff" d="M3479.81,-164.75C3482.06,-157.72 3485.3,-147.62 3488.12,-138.84"/>
<polygon fill="#63b8ff" stroke="#63b8ff" points="3491.52,-139.68 3491.25,-129.09 3484.86,-137.54 3491.52,-139.68"/>
</a>
</g>
</g>
<!-- Node50&#45;&gt;Node51 -->
<g id="edge38_Node000050_Node000051" class="edge">
<title>Node50&#45;&gt;Node51</title>
<g id="a_edge38_Node000050_Node000051"><a xlink:title=" ">
<path fill="none" stroke="#63b8ff" d="M3436.67,-109.98C3474.83,-100.87 3535.47,-86.4 3577.15,-76.45"/>
<polygon fill="#63b8ff" stroke="#63b8ff" points="3578.14,-79.81 3587.05,-74.08 3576.51,-73 3578.14,-79.81"/>
</a>
</g>
</g>
<!-- Node51&#45;&gt;Node46 -->
<g id="edge39_Node000051_Node000046" class="edge">
<title>Node51&#45;&gt;Node46</title>
<g id="a_edge39_Node000051_Node000046"><a xlink:title=" ">
<path fill="none" stroke="#63b8ff" d="M3648.71,-54.98C3676.01,-45.94 3719.28,-31.61 3749.3,-21.66"/>
<polygon fill="#63b8ff" stroke="#63b8ff" points="3750.54,-24.94 3758.93,-18.47 3748.33,-18.3 3750.54,-24.94"/>
</a>
</g>
</g>
<!-- Node53&#45;&gt;Node45 -->
<g id="edge44_Node000053_Node000045" class="edge">
<title>Node53&#45;&gt;Node45</title>
<g id="a_edge44_Node000053_Node000045"><a xlink:title=" ">
<path fill="none" stroke="#63b8ff" d="M3554.89,-165.79C3498.2,-156.52 3402.83,-140.92 3340.15,-130.67"/>
<polygon fill="#63b8ff" stroke="#63b8ff" points="3340.43,-127.17 3330,-129.01 3339.3,-134.07 3340.43,-127.17"/>
</a>
</g>
</g>
<!-- Node53&#45;&gt;Node51 -->
<g id="edge43_Node000053_Node000051" class="edge">
<title>Node53&#45;&gt;Node51</title>
<g id="a_edge43_Node000053_Node000051"><a xlink:title=" ">
<path fill="none" stroke="#63b8ff" d="M3639.91,-164.96C3672.49,-156.75 3715.8,-143.5 3726,-129 3744.18,-103.17 3705.47,-85.77 3670.43,-75.82"/>
<polygon fill="#63b8ff" stroke="#63b8ff" points="3671.25,-72.42 3660.69,-73.21 3669.44,-79.18 3671.25,-72.42"/>
</a>
</g>
</g>
<!-- Node54 -->
<g id="Node000054" class="node">
<title>Node54</title>
<g id="a_Node000054"><a xlink:title=" ">
<polygon fill="#e0e0e0" stroke="#999999" points="3643,-129 3583,-129 3583,-110 3643,-110 3643,-129"/>
<text text-anchor="middle" x="3613" y="-117" font-family="Helvetica,sans-Serif" font-size="10.00">iostream</text>
</a>
</g>
</g>
<!-- Node53&#45;&gt;Node54 -->
<g id="edge45_Node000053_Node000054" class="edge">
<title>Node53&#45;&gt;Node54</title>
<g id="a_edge45_Node000053_Node000054"><a xlink:title=" ">
<path fill="none" stroke="#63b8ff" d="M3603.82,-164.75C3605.26,-157.8 3607.32,-147.85 3609.13,-139.13"/>
<polygon fill="#63b8ff" stroke="#63b8ff" points="3612.61,-139.59 3611.22,-129.09 3605.76,-138.17 3612.61,-139.59"/>
</a>
</g>
</g>
<!-- Node55 -->
<g id="Node000055" class="node">
<title>Node55</title>
<g id="a_Node000055"><a xlink:title=" ">
<polygon fill="#e0e0e0" stroke="#999999" points="3717,-129 3661,-129 3661,-110 3717,-110 3717,-129"/>
<text text-anchor="middle" x="3689" y="-117" font-family="Helvetica,sans-Serif" font-size="10.00">sstream</text>
</a>
</g>
</g>
<!-- Node53&#45;&gt;Node55 -->
<g id="edge46_Node000053_Node000055" class="edge">
<title>Node53&#45;&gt;Node55</title>
<g id="a_edge46_Node000053_Node000055"><a xlink:title=" ">
<path fill="none" stroke="#63b8ff" d="M3615.98,-164.98C3629.47,-156.77 3650.13,-144.18 3666.04,-134.49"/>
<polygon fill="#63b8ff" stroke="#63b8ff" points="3668.05,-137.36 3674.77,-129.17 3664.41,-131.38 3668.05,-137.36"/>
</a>
</g>
</g>
<!-- Node74&#45;&gt;Node48 -->
<g id="edge50_Node000074_Node000048" class="edge">
<title>Node74&#45;&gt;Node48</title>
<g id="a_edge50_Node000074_Node000048"><a xlink:title=" ">
<path fill="none" stroke="#63b8ff" d="M4048.5,-164.75C4048.89,-157.8 4049.45,-147.85 4049.95,-139.13"/>
<polygon fill="#63b8ff" stroke="#63b8ff" points="4053.44,-139.27 4050.51,-129.09 4046.45,-138.88 4053.44,-139.27"/>
</a>
</g>
</g>
<!-- Node76&#45;&gt;Node46 -->
<g id="edge52_Node000076_Node000046" class="edge">
<title>Node76&#45;&gt;Node46</title>
<g id="a_edge52_Node000076_Node000046"><a xlink:title=" ">
<path fill="none" stroke="#63b8ff" d="M3783,-54.75C3783,-47.8 3783,-37.85 3783,-29.13"/>
<polygon fill="#63b8ff" stroke="#63b8ff" points="3786.5,-29.09 3783,-19.09 3779.5,-29.09 3786.5,-29.09"/>
</a>
</g>
</g>
<!-- Node79&#45;&gt;Node49 -->
<g id="edge57_Node000079_Node000049" class="edge">
<title>Node79&#45;&gt;Node49</title>
<g id="a_edge57_Node000079_Node000049"><a xlink:title=" ">
<path fill="none" stroke="#63b8ff" d="M3529.04,-219.98C3519.87,-212.15 3506.06,-200.34 3494.97,-190.86"/>
<polygon fill="#63b8ff" stroke="#63b8ff" points="3497.02,-188.01 3487.14,-184.17 3492.47,-193.33 3497.02,-188.01"/>
</a>
</g>
</g>
<!-- Node79&#45;&gt;Node53 -->
<g id="edge58_Node000079_Node000053" class="edge">
<title>Node79&#45;&gt;Node53</title>
<g id="a_edge58_Node000079_Node000053"><a xlink:title=" ">
<path fill="none" stroke="#63b8ff" d="M3549.12,-219.98C3558.44,-212.15 3572.47,-200.34 3583.74,-190.86"/>
<polygon fill="#63b8ff" stroke="#63b8ff" points="3586.29,-193.29 3591.69,-184.17 3581.79,-187.93 3586.29,-193.29"/>
</a>
</g>
</g>
<!-- Node79&#45;&gt;Node67 -->
<g id="edge59_Node000079_Node000067" class="edge">
<title>Node79&#45;&gt;Node67</title>
<g id="a_edge59_Node000079_Node000067"><a xlink:title=" ">
<path fill="none" stroke="#63b8ff" d="M3566.63,-219.98C3595.51,-211.09 3641.01,-197.07 3673.2,-187.15"/>
<polygon fill="#63b8ff" stroke="#63b8ff" points="3674.62,-190.37 3683.15,-184.08 3672.56,-183.68 3674.62,-190.37"/>
</a>
</g>
</g>
<!-- Node80 -->
<g id="Node000080" class="node">
<title>Node80</title>
<g id="a_Node000080"><a xlink:title=" ">
<polygon fill="#e0e0e0" stroke="#999999" points="3398.5,-184 3341.5,-184 3341.5,-165 3398.5,-165 3398.5,-184"/>
<text text-anchor="middle" x="3370" y="-172" font-family="Helvetica,sans-Serif" font-size="10.00">ostream</text>
</a>
</g>
</g>
<!-- Node79&#45;&gt;Node80 -->
<g id="edge60_Node000079_Node000080" class="edge">
<title>Node79&#45;&gt;Node80</title>
<g id="a_edge60_Node000079_Node000080"><a xlink:title=" ">
<path fill="none" stroke="#63b8ff" d="M3511.85,-219.98C3483.47,-211.09 3438.77,-197.07 3407.14,-187.15"/>
<polygon fill="#63b8ff" stroke="#63b8ff" points="3407.95,-183.73 3397.37,-184.08 3405.86,-190.41 3407.95,-183.73"/>
</a>
</g>
</g>
</g>
</svg>
