<?xml version="1.0" encoding="UTF-8" standalone="no"?>
<!DOCTYPE svg PUBLIC "-//W3C//DTD SVG 1.1//EN"
 "http://www.w3.org/Graphics/SVG/1.1/DTD/svg11.dtd">
<!-- Generated by graphviz version 2.43.0 (0)
 -->
<!-- Title: squid/src/sbuf/StringConvert.h Pages: 1 -->
<!--zoomable 93 -->

<svg id="main" version="1.1" xmlns="http://www.w3.org/2000/svg" xmlns:xlink="http://www.w3.org/1999/xlink" xml:space="preserve" onload="init(evt)">
<style type="text/css"><![CDATA[
.node, .edge {opacity: 0.7;}
.node.selected, .edge.selected {opacity: 1;}
.edge:hover path { stroke: red; }
.edge:hover polygon { stroke: red; fill: red; }
]]></style>

<defs>
  <circle id="rim" cx="0" cy="0" r="7"/>
  <circle id="rim2" cx="0" cy="0" r="3.5"/>
  <g id="zoomPlus">
    <use xlink:href="#rim" fill="#404040"><set attributeName="fill" to="#808080" begin="zoomplus.mouseover" end="zoomplus.mouseout"/></use>
    <path d="M-4,0h8M0,-4v8" fill="none" stroke="white" stroke-width="1.5" pointer-events="none"/>
  </g>
  <g id="zoomMin">
    <use xlink:href="#rim" fill="#404040"><set attributeName="fill" to="#808080" begin="zoomminus.mouseover" end="zoomminus.mouseout"/></use>
    <path d="M-4,0h8" fill="none" stroke="white" stroke-width="1.5" pointer-events="none"/>
  </g>
  <g id="arrowUp" transform="translate(30 24)">
    <use xlink:href="#rim"/>
    <path pointer-events="none" fill="none" stroke="white" stroke-width="1.5" d="M0,-3.0v7 M-2.5,-0.5L0,-3.0L2.5,-0.5"/>
  </g>
  <g id="arrowRight" transform="rotate(90) translate(36 -43)">
    <use xlink:href="#rim"/>
    <path pointer-events="none" fill="none" stroke="white" stroke-width="1.5" d="M0,-3.0v7 M-2.5,-0.5L0,-3.0L2.5,-0.5"/>
  </g>
  <g id="arrowDown" transform="rotate(180) translate(-30 -48)">
    <use xlink:href="#rim"/>
    <path pointer-events="none" fill="none" stroke="white" stroke-width="1.5" d="M0,-3.0v7 M-2.5,-0.5L0,-3.0L2.5,-0.5"/>
  </g>
  <g id="arrowLeft" transform="rotate(270) translate(-36 17)">
    <use xlink:href="#rim"/>
    <path pointer-events="none" fill="none" stroke="white" stroke-width="1.5" d="M0,-3.0v7 M-2.5,-0.5L0,-3.0L2.5,-0.5"/>
  </g>
  <g id="resetDef">
    <use xlink:href="#rim2" fill="#404040"><set attributeName="fill" to="#808080" begin="reset.mouseover" end="reset.mouseout"/></use>
  </g>
</defs>
<script type="application/ecmascript">
var viewWidth = 2598;
var viewHeight = 93;
var sectionId = 'dynsection-1';
</script>
<script type="application/ecmascript" xlink:href="svg.min.js"/>
<svg id="graph" class="graph">
<g id="viewport">
<title>squid/src/sbuf/StringConvert.h</title>
<!-- Node1 -->
<g id="Node000001" class="node">
<title>Node1</title>
<g id="a_Node000001"><a xlink:title=" ">
<polygon fill="#999999" stroke="#666666" points="1323.5,-85 1160.5,-85 1160.5,-66 1323.5,-66 1323.5,-85"/>
<text text-anchor="middle" x="1242" y="-73" font-family="Helvetica,sans-Serif" font-size="10.00">squid/src/sbuf/StringConvert.h</text>
</a>
</g>
</g>
<!-- Node2 -->
<g id="Node000002" class="node">
<title>Node2</title>
<g id="a_Node000002"><a xlink:href="DelayId_8cc.html" target="_top" xlink:title=" ">
<polygon fill="white" stroke="#666666" points="114,-24.5 0,-24.5 0,-5.5 114,-5.5 114,-24.5"/>
<text text-anchor="middle" x="57" y="-12.5" font-family="Helvetica,sans-Serif" font-size="10.00">squid/src/DelayId.cc</text>
</a>
</g>
</g>
<!-- Node1&#45;&gt;Node2 -->
<g id="edge1_Node000001_Node000002" class="edge">
<title>Node1&#45;&gt;Node2</title>
<g id="a_edge1_Node000001_Node000002"><a xlink:title=" ">
<path fill="none" stroke="#63b8ff" d="M1150.26,-72.85C919.79,-68.4 320.82,-54.73 123,-30 112.77,-28.72 101.78,-26.67 91.75,-24.52"/>
<polygon fill="#63b8ff" stroke="#63b8ff" points="1150.23,-76.35 1160.3,-73.05 1150.36,-69.36 1150.23,-76.35"/>
</a>
</g>
</g>
<!-- Node3 -->
<g id="Node000003" class="node">
<title>Node3</title>
<g id="a_Node000003"><a xlink:href="HeaderMangling_8cc.html" target="_top" xlink:title=" ">
<polygon fill="white" stroke="#666666" points="289.5,-24.5 132.5,-24.5 132.5,-5.5 289.5,-5.5 289.5,-24.5"/>
<text text-anchor="middle" x="211" y="-12.5" font-family="Helvetica,sans-Serif" font-size="10.00">squid/src/HeaderMangling.cc</text>
</a>
</g>
</g>
<!-- Node1&#45;&gt;Node3 -->
<g id="edge2_Node000001_Node000003" class="edge">
<title>Node1&#45;&gt;Node3</title>
<g id="a_edge2_Node000001_Node000003"><a xlink:title=" ">
<path fill="none" stroke="#63b8ff" d="M1150.32,-73.54C981.48,-71.02 610.16,-61.99 299,-30 285.77,-28.64 271.49,-26.61 258.37,-24.52"/>
<polygon fill="#63b8ff" stroke="#63b8ff" points="1150.37,-77.04 1160.41,-73.68 1150.47,-70.04 1150.37,-77.04"/>
</a>
</g>
</g>
<!-- Node4 -->
<g id="Node000004" class="node">
<title>Node4</title>
<g id="a_Node000004"><a xlink:href="HttpHeader_8cc.html" target="_top" xlink:title=" ">
<polygon fill="white" stroke="#666666" points="440,-24.5 308,-24.5 308,-5.5 440,-5.5 440,-24.5"/>
<text text-anchor="middle" x="374" y="-12.5" font-family="Helvetica,sans-Serif" font-size="10.00">squid/src/HttpHeader.cc</text>
</a>
</g>
</g>
<!-- Node1&#45;&gt;Node4 -->
<g id="edge3_Node000001_Node000004" class="edge">
<title>Node1&#45;&gt;Node4</title>
<g id="a_edge3_Node000001_Node000004"><a xlink:title=" ">
<path fill="none" stroke="#63b8ff" d="M1149.96,-73.17C1001.81,-70.16 701.5,-60.52 449,-30 437.69,-28.63 425.52,-26.6 414.33,-24.51"/>
<polygon fill="#63b8ff" stroke="#63b8ff" points="1150.29,-76.67 1160.36,-73.37 1150.43,-69.68 1150.29,-76.67"/>
</a>
</g>
</g>
<!-- Node5 -->
<g id="Node000005" class="node">
<title>Node5</title>
<g id="a_Node000005"><a xlink:href="HttpRequest_8cc.html" target="_top" xlink:title=" ">
<polygon fill="white" stroke="#666666" points="595.5,-24.5 458.5,-24.5 458.5,-5.5 595.5,-5.5 595.5,-24.5"/>
<text text-anchor="middle" x="527" y="-12.5" font-family="Helvetica,sans-Serif" font-size="10.00">squid/src/HttpRequest.cc</text>
</a>
</g>
</g>
<!-- Node1&#45;&gt;Node5 -->
<g id="edge4_Node000001_Node000005" class="edge">
<title>Node1&#45;&gt;Node5</title>
<g id="a_edge4_Node000001_Node000005"><a xlink:title=" ">
<path fill="none" stroke="#63b8ff" d="M1150.17,-71.28C1025.93,-66.19 797.55,-54.27 604,-30 592.68,-28.58 580.49,-26.58 569.23,-24.54"/>
<polygon fill="#63b8ff" stroke="#63b8ff" points="1150.26,-74.78 1160.4,-71.69 1150.55,-67.79 1150.26,-74.78"/>
</a>
</g>
</g>
<!-- Node6 -->
<g id="Node000006" class="node">
<title>Node6</title>
<g id="a_Node000006"><a xlink:href="Notes_8cc.html" target="_top" xlink:title=" ">
<polygon fill="white" stroke="#666666" points="718.5,-24.5 613.5,-24.5 613.5,-5.5 718.5,-5.5 718.5,-24.5"/>
<text text-anchor="middle" x="666" y="-12.5" font-family="Helvetica,sans-Serif" font-size="10.00">squid/src/Notes.cc</text>
</a>
</g>
</g>
<!-- Node1&#45;&gt;Node6 -->
<g id="edge5_Node000001_Node000006" class="edge">
<title>Node1&#45;&gt;Node6</title>
<g id="a_edge5_Node000001_Node000006"><a xlink:title=" ">
<path fill="none" stroke="#63b8ff" d="M1150.32,-70.44C1046.96,-64.97 874.14,-53.13 727,-30 717.98,-28.58 708.32,-26.59 699.4,-24.55"/>
<polygon fill="#63b8ff" stroke="#63b8ff" points="1150.24,-73.94 1160.41,-70.97 1150.6,-66.95 1150.24,-73.94"/>
</a>
</g>
</g>
<!-- Node7 -->
<g id="Node000007" class="node">
<title>Node7</title>
<g id="a_Node000007"><a xlink:href="HttpHeaderData_8cc.html" target="_top" xlink:title=" ">
<polygon fill="white" stroke="#666666" points="873.5,-30 736.5,-30 736.5,0 873.5,0 873.5,-30"/>
<text text-anchor="start" x="744.5" y="-18" font-family="Helvetica,sans-Serif" font-size="10.00">squid/src/acl/HttpHeader</text>
<text text-anchor="middle" x="805" y="-7" font-family="Helvetica,sans-Serif" font-size="10.00">Data.cc</text>
</a>
</g>
</g>
<!-- Node1&#45;&gt;Node7 -->
<g id="edge6_Node000001_Node000007" class="edge">
<title>Node1&#45;&gt;Node7</title>
<g id="a_edge6_Node000001_Node000007"><a xlink:title=" ">
<path fill="none" stroke="#63b8ff" d="M1153.35,-64.87C1080.58,-56.64 974.92,-43.94 883,-30 880.01,-29.55 876.95,-29.07 873.87,-28.57"/>
<polygon fill="#63b8ff" stroke="#63b8ff" points="1153.07,-68.36 1163.4,-66 1153.85,-61.4 1153.07,-68.36"/>
</a>
</g>
</g>
<!-- Node8 -->
<g id="Node000008" class="node">
<title>Node8</title>
<g id="a_Node000008"><a xlink:href="NoteData_8cc.html" target="_top" xlink:title=" ">
<polygon fill="white" stroke="#666666" points="1032,-24.5 892,-24.5 892,-5.5 1032,-5.5 1032,-24.5"/>
<text text-anchor="middle" x="962" y="-12.5" font-family="Helvetica,sans-Serif" font-size="10.00">squid/src/acl/NoteData.cc</text>
</a>
</g>
</g>
<!-- Node1&#45;&gt;Node8 -->
<g id="edge7_Node000001_Node000008" class="edge">
<title>Node1&#45;&gt;Node8</title>
<g id="a_edge7_Node000001_Node000008"><a xlink:title=" ">
<path fill="none" stroke="#63b8ff" d="M1191.23,-63.89C1137.16,-52.6 1052.66,-34.94 1002.76,-24.52"/>
<polygon fill="#63b8ff" stroke="#63b8ff" points="1190.78,-67.37 1201.29,-65.99 1192.21,-60.52 1190.78,-67.37"/>
</a>
</g>
</g>
<!-- Node9 -->
<g id="Node000009" class="node">
<title>Node9</title>
<g id="a_Node000009"><a xlink:href="Iterator_8cc.html" target="_top" xlink:title=" ">
<polygon fill="white" stroke="#666666" points="1166,-30 1050,-30 1050,0 1166,0 1166,-30"/>
<text text-anchor="start" x="1058" y="-18" font-family="Helvetica,sans-Serif" font-size="10.00">squid/src/adaptation</text>
<text text-anchor="middle" x="1108" y="-7" font-family="Helvetica,sans-Serif" font-size="10.00">/Iterator.cc</text>
</a>
</g>
</g>
<!-- Node1&#45;&gt;Node9 -->
<g id="edge8_Node000001_Node000009" class="edge">
<title>Node1&#45;&gt;Node9</title>
<g id="a_edge8_Node000001_Node000009"><a xlink:title=" ">
<path fill="none" stroke="#63b8ff" d="M1213.26,-61.95C1191.8,-52.59 1162.47,-39.78 1140.22,-30.06"/>
<polygon fill="#63b8ff" stroke="#63b8ff" points="1211.95,-65.2 1222.52,-65.99 1214.75,-58.78 1211.95,-65.2"/>
</a>
</g>
</g>
<!-- Node10 -->
<g id="Node000010" class="node">
<title>Node10</title>
<g id="a_Node000010"><a xlink:href="XactionRep_8cc.html" target="_top" xlink:title=" ">
<polygon fill="white" stroke="#666666" points="1300,-30 1184,-30 1184,0 1300,0 1300,-30"/>
<text text-anchor="start" x="1192" y="-18" font-family="Helvetica,sans-Serif" font-size="10.00">squid/src/adaptation</text>
<text text-anchor="middle" x="1242" y="-7" font-family="Helvetica,sans-Serif" font-size="10.00">/ecap/XactionRep.cc</text>
</a>
</g>
</g>
<!-- Node1&#45;&gt;Node10 -->
<g id="edge9_Node000001_Node000010" class="edge">
<title>Node1&#45;&gt;Node10</title>
<g id="a_edge9_Node000001_Node000010"><a xlink:title=" ">
<path fill="none" stroke="#63b8ff" d="M1242,-55.65C1242,-47.36 1242,-37.78 1242,-30.11"/>
<polygon fill="#63b8ff" stroke="#63b8ff" points="1238.5,-55.87 1242,-65.87 1245.5,-55.87 1238.5,-55.87"/>
</a>
</g>
</g>
<!-- Node11 -->
<g id="Node000011" class="node">
<title>Node11</title>
<g id="a_Node000011"><a xlink:href="auth_2digest_2Config_8cc.html" target="_top" xlink:title=" ">
<polygon fill="white" stroke="#666666" points="1436,-30 1318,-30 1318,0 1436,0 1436,-30"/>
<text text-anchor="start" x="1326" y="-18" font-family="Helvetica,sans-Serif" font-size="10.00">squid/src/auth/digest</text>
<text text-anchor="middle" x="1377" y="-7" font-family="Helvetica,sans-Serif" font-size="10.00">/Config.cc</text>
</a>
</g>
</g>
<!-- Node1&#45;&gt;Node11 -->
<g id="edge10_Node000001_Node000011" class="edge">
<title>Node1&#45;&gt;Node11</title>
<g id="a_edge10_Node000001_Node000011"><a xlink:title=" ">
<path fill="none" stroke="#63b8ff" d="M1270.95,-61.95C1292.57,-52.59 1322.13,-39.78 1344.54,-30.06"/>
<polygon fill="#63b8ff" stroke="#63b8ff" points="1269.41,-58.81 1261.63,-65.99 1272.2,-65.23 1269.41,-58.81"/>
</a>
</g>
</g>
<!-- Node12 -->
<g id="Node000012" class="node">
<title>Node12</title>
<g id="a_Node000012"><a xlink:href="cache__manager_8cc.html" target="_top" xlink:title=" ">
<polygon fill="white" stroke="#666666" points="1607.5,-24.5 1454.5,-24.5 1454.5,-5.5 1607.5,-5.5 1607.5,-24.5"/>
<text text-anchor="middle" x="1531" y="-12.5" font-family="Helvetica,sans-Serif" font-size="10.00">squid/src/cache_manager.cc</text>
</a>
</g>
</g>
<!-- Node1&#45;&gt;Node12 -->
<g id="edge11_Node000001_Node000012" class="edge">
<title>Node1&#45;&gt;Node12</title>
<g id="a_edge11_Node000001_Node000012"><a xlink:title=" ">
<path fill="none" stroke="#63b8ff" d="M1294.06,-63.96C1349.84,-52.67 1437.32,-34.96 1488.93,-24.52"/>
<polygon fill="#63b8ff" stroke="#63b8ff" points="1293.13,-60.58 1284.02,-65.99 1294.52,-67.44 1293.13,-60.58"/>
</a>
</g>
</g>
<!-- Node13 -->
<g id="Node000013" class="node">
<title>Node13</title>
<g id="a_Node000013"><a xlink:href="client__side__request_8cc.html" target="_top" xlink:title=" ">
<polygon fill="white" stroke="#666666" points="1742,-30 1626,-30 1626,0 1742,0 1742,-30"/>
<text text-anchor="start" x="1634" y="-18" font-family="Helvetica,sans-Serif" font-size="10.00">squid/src/client_side</text>
<text text-anchor="middle" x="1684" y="-7" font-family="Helvetica,sans-Serif" font-size="10.00">_request.cc</text>
</a>
</g>
</g>
<!-- Node1&#45;&gt;Node13 -->
<g id="edge12_Node000001_Node000013" class="edge">
<title>Node1&#45;&gt;Node13</title>
<g id="a_edge12_Node000001_Node000013"><a xlink:title=" ">
<path fill="none" stroke="#63b8ff" d="M1333.89,-65.87C1410,-58.18 1520.87,-45.72 1617,-30 1619.93,-29.52 1622.93,-29 1625.95,-28.45"/>
<polygon fill="#63b8ff" stroke="#63b8ff" points="1333.46,-62.4 1323.85,-66.88 1334.15,-69.36 1333.46,-62.4"/>
</a>
</g>
</g>
<!-- Node14 -->
<g id="Node000014" class="node">
<title>Node14</title>
<g id="a_Node000014"><a xlink:href="Format_8cc.html" target="_top" xlink:title=" ">
<polygon fill="white" stroke="#666666" points="1907.5,-24.5 1760.5,-24.5 1760.5,-5.5 1907.5,-5.5 1907.5,-24.5"/>
<text text-anchor="middle" x="1834" y="-12.5" font-family="Helvetica,sans-Serif" font-size="10.00">squid/src/format/Format.cc</text>
</a>
</g>
</g>
<!-- Node1&#45;&gt;Node14 -->
<g id="edge13_Node000001_Node000014" class="edge">
<title>Node1&#45;&gt;Node14</title>
<g id="a_edge13_Node000001_Node000014"><a xlink:title=" ">
<path fill="none" stroke="#63b8ff" d="M1334.04,-68.67C1436.17,-61.69 1605.75,-48.57 1751,-30 1762.89,-28.48 1775.67,-26.5 1787.57,-24.5"/>
<polygon fill="#63b8ff" stroke="#63b8ff" points="1333.5,-65.2 1323.76,-69.37 1333.97,-72.19 1333.5,-65.2"/>
</a>
</g>
</g>
<!-- Node15 -->
<g id="Node000015" class="node">
<title>Node15</title>
<g id="a_Node000015"><a xlink:href="ActionParams_8cc.html" target="_top" xlink:title=" ">
<polygon fill="white" stroke="#666666" points="2092,-24.5 1926,-24.5 1926,-5.5 2092,-5.5 2092,-24.5"/>
<text text-anchor="middle" x="2009" y="-12.5" font-family="Helvetica,sans-Serif" font-size="10.00">squid/src/mgr/ActionParams.cc</text>
</a>
</g>
</g>
<!-- Node1&#45;&gt;Node15 -->
<g id="edge14_Node000001_Node000015" class="edge">
<title>Node1&#45;&gt;Node15</title>
<g id="a_edge14_Node000001_Node000015"><a xlink:title=" ">
<path fill="none" stroke="#63b8ff" d="M1334.08,-70.92C1464.21,-65.29 1709.26,-52.61 1917,-30 1930.33,-28.55 1944.69,-26.57 1958.01,-24.55"/>
<polygon fill="#63b8ff" stroke="#63b8ff" points="1333.6,-67.43 1323.76,-71.36 1333.9,-74.43 1333.6,-67.43"/>
</a>
</g>
</g>
<!-- Node16 -->
<g id="Node000016" class="node">
<title>Node16</title>
<g id="a_Node000016"><a xlink:href="QueryParams_8cc.html" target="_top" xlink:title=" ">
<polygon fill="white" stroke="#666666" points="2274,-24.5 2110,-24.5 2110,-5.5 2274,-5.5 2274,-24.5"/>
<text text-anchor="middle" x="2192" y="-12.5" font-family="Helvetica,sans-Serif" font-size="10.00">squid/src/mgr/QueryParams.cc</text>
</a>
</g>
</g>
<!-- Node1&#45;&gt;Node16 -->
<g id="edge15_Node000001_Node000016" class="edge">
<title>Node1&#45;&gt;Node16</title>
<g id="a_edge15_Node000001_Node000016"><a xlink:title=" ">
<path fill="none" stroke="#63b8ff" d="M1333.75,-72.78C1491.11,-69.16 1822.45,-58.57 2101,-30 2114.52,-28.61 2129.09,-26.6 2142.53,-24.54"/>
<polygon fill="#63b8ff" stroke="#63b8ff" points="1333.55,-69.29 1323.64,-73.01 1333.71,-76.28 1333.55,-69.29"/>
</a>
</g>
</g>
<!-- Node17 -->
<g id="Node000017" class="node">
<title>Node17</title>
<g id="a_Node000017"><a xlink:href="Header_8cc.html" target="_top" xlink:title=" ">
<polygon fill="white" stroke="#666666" points="2440,-24.5 2292,-24.5 2292,-5.5 2440,-5.5 2440,-24.5"/>
<text text-anchor="middle" x="2366" y="-12.5" font-family="Helvetica,sans-Serif" font-size="10.00">squid/src/proxyp/Header.cc</text>
</a>
</g>
</g>
<!-- Node1&#45;&gt;Node17 -->
<g id="edge16_Node000001_Node000017" class="edge">
<title>Node1&#45;&gt;Node17</title>
<g id="a_edge16_Node000001_Node000017"><a xlink:title=" ">
<path fill="none" stroke="#63b8ff" d="M1333.62,-74.4C1515.25,-73.37 1933.63,-66.79 2283,-30 2295.64,-28.67 2309.28,-26.63 2321.77,-24.51"/>
<polygon fill="#63b8ff" stroke="#63b8ff" points="1333.55,-70.9 1323.57,-74.46 1333.59,-77.9 1333.55,-70.9"/>
</a>
</g>
</g>
<!-- Node18 -->
<g id="Node000018" class="node">
<title>Node18</title>
<g id="a_Node000018"><a xlink:href="ErrorDetailManager_8cc.html" target="_top" xlink:title=" ">
<polygon fill="white" stroke="#666666" points="2590,-30 2458,-30 2458,0 2590,0 2590,-30"/>
<text text-anchor="start" x="2466" y="-18" font-family="Helvetica,sans-Serif" font-size="10.00">squid/src/ssl/ErrorDetail</text>
<text text-anchor="middle" x="2524" y="-7" font-family="Helvetica,sans-Serif" font-size="10.00">Manager.cc</text>
</a>
</g>
</g>
<!-- Node1&#45;&gt;Node18 -->
<g id="edge17_Node000001_Node000018" class="edge">
<title>Node1&#45;&gt;Node18</title>
<g id="a_edge17_Node000001_Node000018"><a xlink:title=" ">
<path fill="none" stroke="#63b8ff" d="M1333.93,-72.87C1577.09,-68.28 2233.27,-53.98 2449,-30 2451.9,-29.68 2454.85,-29.31 2457.83,-28.9"/>
<polygon fill="#63b8ff" stroke="#63b8ff" points="1333.64,-69.37 1323.71,-73.06 1333.78,-76.37 1333.64,-69.37"/>
</a>
</g>
</g>
</g>
</svg>

<g id="navigator" transform="translate(0 0)" fill="#404254">
  <rect fill="#f2f5e9" fill-opacity="0.5" stroke="#606060" stroke-width=".5" x="0" y="0" width="60" height="60"/>
  <use id="zoomplus" xlink:href="#zoomPlus" x="17" y="9" onmousedown="handleZoom(evt,'in')"/>
  <use id="zoomminus" xlink:href="#zoomMin" x="42" y="9" onmousedown="handleZoom(evt,'out')"/>
  <use id="reset" xlink:href="#resetDef" x="30" y="36" onmousedown="handleReset()"/>
   <use id="arrowup" xlink:href="#arrowUp" x="0" y="0" onmousedown="handlePan(0,-1)"/>
  <use id="arrowright" xlink:href="#arrowRight" x="0" y="0" onmousedown="handlePan(1,0)"/>
  <use id="arrowdown" xlink:href="#arrowDown" x="0" y="0" onmousedown="handlePan(0,1)"/>
  <use id="arrowleft" xlink:href="#arrowLeft" x="0" y="0" onmousedown="handlePan(-1,0)"/>
</g>
<svg viewBox="0 0 15 15" width="100%" height="30px" preserveAspectRatio="xMaxYMin meet">
 <g id="arrow_out" transform="scale(0.3 0.3)">
  <a xlink:href="StringConvert_8h__dep__incl_org.svg" target="_base">
   <rect id="button" ry="5" rx="5" y="6" x="6" height="38" width="38"
        fill="#f2f5e9" fill-opacity="0.5" stroke="#606060" stroke-width="1.0"/>
   <path id="arrow"
     d="M 11.500037,31.436501 C 11.940474,20.09759 22.043105,11.32322 32.158766,21.979434 L 37.068811,17.246167 C 37.068811,17.246167 37.088388,32 37.088388,32 L 22.160133,31.978069 C 22.160133,31.978069 26.997745,27.140456 26.997745,27.140456 C 18.528582,18.264221 13.291696,25.230495 11.500037,31.436501 z"
     style="fill:#404040;"/>
  </a>
 </g>
</svg>

<style type='text/css'>
<![CDATA[
[data-mouse-over-selected='false'] { opacity: 0.7; }
[data-mouse-over-selected='true']  { opacity: 1.0; }
]]>
</style>
<script type="application/ecmascript"><![CDATA[
document.addEventListener('DOMContentLoaded', (event) => {
  highlightEdges();
  highlightAdjacentNodes();
});
]]></script>
</svg>
