<?xml version="1.0" encoding="UTF-8" standalone="no"?>
<!DOCTYPE svg PUBLIC "-//W3C//DTD SVG 1.1//EN"
 "http://www.w3.org/Graphics/SVG/1.1/DTD/svg11.dtd">
<!-- Generated by graphviz version 2.43.0 (0)
 -->
<!-- Title: squid/src/tests/stub_store_rebuild.cc Pages: 1 -->
<svg width="3950pt" height="258pt"
 viewBox="0.00 0.00 3949.50 258.00" xmlns="http://www.w3.org/2000/svg" xmlns:xlink="http://www.w3.org/1999/xlink">
<g id="graph0" class="graph" transform="scale(1 1) rotate(0) translate(4 254)">
<title>squid/src/tests/stub_store_rebuild.cc</title>
<!-- Node1 -->
<g id="Node000001" class="node">
<title>Node1</title>
<g id="a_Node000001"><a xlink:title=" ">
<polygon fill="#999999" stroke="#666666" points="3674,-250 3563,-250 3563,-220 3674,-220 3674,-250"/>
<text text-anchor="start" x="3571" y="-238" font-family="Helvetica,sans-Serif" font-size="10.00">squid/src/tests/stub</text>
<text text-anchor="middle" x="3618.5" y="-227" font-family="Helvetica,sans-Serif" font-size="10.00">_store_rebuild.cc</text>
</a>
</g>
</g>
<!-- Node2 -->
<g id="Node000002" class="node">
<title>Node2</title>
<g id="a_Node000002"><a xlink:href="squid_8h.html" target="_top" xlink:title=" ">
<polygon fill="white" stroke="#666666" points="1678.5,-184 1626.5,-184 1626.5,-165 1678.5,-165 1678.5,-184"/>
<text text-anchor="middle" x="1652.5" y="-172" font-family="Helvetica,sans-Serif" font-size="10.00">squid.h</text>
</a>
</g>
</g>
<!-- Node1&#45;&gt;Node2 -->
<g id="edge1_Node000001_Node000002" class="edge">
<title>Node1&#45;&gt;Node2</title>
<g id="a_edge1_Node000001_Node000002"><a xlink:title=" ">
<path fill="none" stroke="#63b8ff" d="M3562.83,-232.34C3271.58,-223.68 1927.52,-183.68 1688.8,-176.58"/>
<polygon fill="#63b8ff" stroke="#63b8ff" points="1688.69,-173.08 1678.59,-176.28 1688.48,-180.07 1688.69,-173.08"/>
</a>
</g>
</g>
<!-- Node45 -->
<g id="Node000045" class="node">
<title>Node45</title>
<g id="a_Node000045"><a xlink:href="MemBuf_8h.html" target="_top" xlink:title=" ">
<polygon fill="white" stroke="#666666" points="3517.5,-184 3451.5,-184 3451.5,-165 3517.5,-165 3517.5,-184"/>
<text text-anchor="middle" x="3484.5" y="-172" font-family="Helvetica,sans-Serif" font-size="10.00">MemBuf.h</text>
</a>
</g>
</g>
<!-- Node1&#45;&gt;Node45 -->
<g id="edge31_Node000001_Node000045" class="edge">
<title>Node1&#45;&gt;Node45</title>
<g id="a_edge31_Node000001_Node000045"><a xlink:title=" ">
<path fill="none" stroke="#63b8ff" d="M3586.4,-219.99C3564.25,-210.31 3535.02,-197.56 3513.55,-188.18"/>
<polygon fill="#63b8ff" stroke="#63b8ff" points="3514.85,-184.93 3504.29,-184.14 3512.05,-191.35 3514.85,-184.93"/>
</a>
</g>
</g>
<!-- Node51 -->
<g id="Node000051" class="node">
<title>Node51</title>
<g id="a_Node000051"><a xlink:href="Controller_8h.html" target="_top" xlink:title=" ">
<polygon fill="white" stroke="#666666" points="3669,-184 3568,-184 3568,-165 3669,-165 3669,-184"/>
<text text-anchor="middle" x="3618.5" y="-172" font-family="Helvetica,sans-Serif" font-size="10.00">store/Controller.h</text>
</a>
</g>
</g>
<!-- Node1&#45;&gt;Node51 -->
<g id="edge37_Node000001_Node000051" class="edge">
<title>Node1&#45;&gt;Node51</title>
<g id="a_edge37_Node000001_Node000051"><a xlink:title=" ">
<path fill="none" stroke="#63b8ff" d="M3618.5,-219.84C3618.5,-212.21 3618.5,-202.7 3618.5,-194.45"/>
<polygon fill="#63b8ff" stroke="#63b8ff" points="3622,-194.27 3618.5,-184.27 3615,-194.27 3622,-194.27"/>
</a>
</g>
</g>
<!-- Node87 -->
<g id="Node000087" class="node">
<title>Node87</title>
<g id="a_Node000087"><a xlink:href="store__rebuild_8h.html" target="_top" xlink:title=" ">
<polygon fill="white" stroke="#666666" points="3776,-184 3687,-184 3687,-165 3776,-165 3776,-184"/>
<text text-anchor="middle" x="3731.5" y="-172" font-family="Helvetica,sans-Serif" font-size="10.00">store_rebuild.h</text>
</a>
</g>
</g>
<!-- Node1&#45;&gt;Node87 -->
<g id="edge47_Node000001_Node000087" class="edge">
<title>Node1&#45;&gt;Node87</title>
<g id="a_edge47_Node000001_Node000087"><a xlink:title=" ">
<path fill="none" stroke="#63b8ff" d="M3645.57,-219.99C3663.75,-210.58 3687.57,-198.24 3705.52,-188.95"/>
<polygon fill="#63b8ff" stroke="#63b8ff" points="3707.54,-191.84 3714.81,-184.14 3704.32,-185.63 3707.54,-191.84"/>
</a>
</g>
</g>
<!-- Node88 -->
<g id="Node000088" class="node">
<title>Node88</title>
<g id="a_Node000088"><a xlink:href="time_2gadgets_8h.html" target="_top" xlink:title=" ">
<polygon fill="white" stroke="#666666" points="3345.5,-184 3255.5,-184 3255.5,-165 3345.5,-165 3345.5,-184"/>
<text text-anchor="middle" x="3300.5" y="-172" font-family="Helvetica,sans-Serif" font-size="10.00">time/gadgets.h</text>
</a>
</g>
</g>
<!-- Node1&#45;&gt;Node88 -->
<g id="edge49_Node000001_Node000088" class="edge">
<title>Node1&#45;&gt;Node88</title>
<g id="a_edge49_Node000001_Node000088"><a xlink:title=" ">
<path fill="none" stroke="#63b8ff" d="M3562.74,-223.74C3504.6,-213.05 3414.01,-196.38 3355.98,-185.71"/>
<polygon fill="#63b8ff" stroke="#63b8ff" points="3356.36,-182.22 3345.89,-183.85 3355.09,-189.1 3356.36,-182.22"/>
</a>
</g>
</g>
<!-- Node90 -->
<g id="Node000090" class="node">
<title>Node90</title>
<g id="a_Node000090"><a xlink:title=" ">
<polygon fill="#e0e0e0" stroke="#999999" points="3941.5,-184 3891.5,-184 3891.5,-165 3941.5,-165 3941.5,-184"/>
<text text-anchor="middle" x="3916.5" y="-172" font-family="Helvetica,sans-Serif" font-size="10.00">cstring</text>
</a>
</g>
</g>
<!-- Node1&#45;&gt;Node90 -->
<g id="edge52_Node000001_Node000090" class="edge">
<title>Node1&#45;&gt;Node90</title>
<g id="a_edge52_Node000001_Node000090"><a xlink:title=" ">
<path fill="none" stroke="#63b8ff" d="M3674.06,-224.44C3725.42,-215.39 3804.07,-200.97 3881.38,-184.15"/>
<polygon fill="#63b8ff" stroke="#63b8ff" points="3882.27,-187.54 3891.29,-181.98 3880.77,-180.7 3882.27,-187.54"/>
</a>
</g>
</g>
<!-- Node91 -->
<g id="Node000091" class="node">
<title>Node91</title>
<g id="a_Node000091"><a xlink:href="STUB_8h.html" target="_top" xlink:title=" ">
<polygon fill="white" stroke="#666666" points="3873,-184 3794,-184 3794,-165 3873,-165 3873,-184"/>
<text text-anchor="middle" x="3833.5" y="-172" font-family="Helvetica,sans-Serif" font-size="10.00">tests/STUB.h</text>
</a>
</g>
</g>
<!-- Node1&#45;&gt;Node91 -->
<g id="edge53_Node000001_Node000091" class="edge">
<title>Node1&#45;&gt;Node91</title>
<g id="a_edge53_Node000001_Node000091"><a xlink:title=" ">
<path fill="none" stroke="#63b8ff" d="M3670,-219.99C3707.42,-209.8 3757.41,-196.2 3792.23,-186.73"/>
<polygon fill="#63b8ff" stroke="#63b8ff" points="3793.33,-190.06 3802.06,-184.05 3791.5,-183.3 3793.33,-190.06"/>
</a>
</g>
</g>
<!-- Node3 -->
<g id="Node000003" class="node">
<title>Node3</title>
<g id="a_Node000003"><a xlink:href="autoconf_8h.html" target="_top" xlink:title=" ">
<polygon fill="white" stroke="#666666" points="1553.5,-129 1485.5,-129 1485.5,-110 1553.5,-110 1553.5,-129"/>
<text text-anchor="middle" x="1519.5" y="-117" font-family="Helvetica,sans-Serif" font-size="10.00">autoconf.h</text>
</a>
</g>
</g>
<!-- Node2&#45;&gt;Node3 -->
<g id="edge2_Node000002_Node000003" class="edge">
<title>Node2&#45;&gt;Node3</title>
<g id="a_edge2_Node000002_Node000003"><a xlink:title=" ">
<path fill="none" stroke="#63b8ff" d="M1631.13,-164.98C1609.35,-156.3 1575.34,-142.75 1550.58,-132.88"/>
<polygon fill="#63b8ff" stroke="#63b8ff" points="1551.84,-129.62 1541.26,-129.17 1549.25,-136.12 1551.84,-129.62"/>
</a>
</g>
</g>
<!-- Node4 -->
<g id="Node000004" class="node">
<title>Node4</title>
<g id="a_Node000004"><a xlink:href="version_8h.html" target="_top" xlink:title=" ">
<polygon fill="white" stroke="#666666" points="1633.5,-129 1571.5,-129 1571.5,-110 1633.5,-110 1633.5,-129"/>
<text text-anchor="middle" x="1602.5" y="-117" font-family="Helvetica,sans-Serif" font-size="10.00">version.h</text>
</a>
</g>
</g>
<!-- Node2&#45;&gt;Node4 -->
<g id="edge3_Node000002_Node000004" class="edge">
<title>Node2&#45;&gt;Node4</title>
<g id="a_edge3_Node000002_Node000004"><a xlink:title=" ">
<path fill="none" stroke="#63b8ff" d="M1644.24,-164.75C1637.04,-157.11 1626.39,-145.82 1617.65,-136.56"/>
<polygon fill="#63b8ff" stroke="#63b8ff" points="1620.01,-133.96 1610.6,-129.09 1614.92,-138.76 1620.01,-133.96"/>
</a>
</g>
</g>
<!-- Node5 -->
<g id="Node000005" class="node">
<title>Node5</title>
<g id="a_Node000005"><a xlink:href="compat_8h.html" target="_top" xlink:title=" ">
<polygon fill="white" stroke="#666666" points="1753.5,-129 1651.5,-129 1651.5,-110 1753.5,-110 1753.5,-129"/>
<text text-anchor="middle" x="1702.5" y="-117" font-family="Helvetica,sans-Serif" font-size="10.00">compat/compat.h</text>
</a>
</g>
</g>
<!-- Node2&#45;&gt;Node5 -->
<g id="edge4_Node000002_Node000005" class="edge">
<title>Node2&#45;&gt;Node5</title>
<g id="a_edge4_Node000002_Node000005"><a xlink:title=" ">
<path fill="none" stroke="#63b8ff" d="M1660.76,-164.75C1667.96,-157.11 1678.61,-145.82 1687.35,-136.56"/>
<polygon fill="#63b8ff" stroke="#63b8ff" points="1690.08,-138.76 1694.4,-129.09 1684.99,-133.96 1690.08,-138.76"/>
</a>
</g>
</g>
<!-- Node6 -->
<g id="Node000006" class="node">
<title>Node6</title>
<g id="a_Node000006"><a xlink:href="osdetect_8h.html" target="_top" xlink:title=" ">
<polygon fill="white" stroke="#666666" points="343,-74 236,-74 236,-55 343,-55 343,-74"/>
<text text-anchor="middle" x="289.5" y="-62" font-family="Helvetica,sans-Serif" font-size="10.00">compat/osdetect.h</text>
</a>
</g>
</g>
<!-- Node5&#45;&gt;Node6 -->
<g id="edge5_Node000005_Node000006" class="edge">
<title>Node5&#45;&gt;Node6</title>
<g id="a_edge5_Node000005_Node000006"><a xlink:title=" ">
<path fill="none" stroke="#63b8ff" d="M1651.48,-110.87C1648.45,-110.54 1645.44,-110.25 1642.5,-110 1074.33,-61.98 925.91,-119.73 353.24,-73.94"/>
<polygon fill="#63b8ff" stroke="#63b8ff" points="353.32,-70.44 343.07,-73.12 352.76,-77.41 353.32,-70.44"/>
</a>
</g>
</g>
<!-- Node7 -->
<g id="Node000007" class="node">
<title>Node7</title>
<g id="a_Node000007"><a xlink:href="fdsetsize_8h.html" target="_top" xlink:title=" ">
<polygon fill="white" stroke="#666666" points="471.5,-74 361.5,-74 361.5,-55 471.5,-55 471.5,-74"/>
<text text-anchor="middle" x="416.5" y="-62" font-family="Helvetica,sans-Serif" font-size="10.00">compat/fdsetsize.h</text>
</a>
</g>
</g>
<!-- Node5&#45;&gt;Node7 -->
<g id="edge6_Node000005_Node000007" class="edge">
<title>Node5&#45;&gt;Node7</title>
<g id="a_edge6_Node000005_Node000007"><a xlink:title=" ">
<path fill="none" stroke="#63b8ff" d="M1651.48,-110.88C1648.45,-110.55 1645.43,-110.25 1642.5,-110 1131.1,-65.99 997.24,-115.41 481.93,-74.02"/>
<polygon fill="#63b8ff" stroke="#63b8ff" points="481.87,-70.5 471.62,-73.18 481.3,-77.48 481.87,-70.5"/>
</a>
</g>
</g>
<!-- Node8 -->
<g id="Node000008" class="node">
<title>Node8</title>
<g id="a_Node000008"><a xlink:href="types_8h.html" target="_top" xlink:title=" ">
<polygon fill="#fff0f0" stroke="red" points="581.5,-74 489.5,-74 489.5,-55 581.5,-55 581.5,-74"/>
<text text-anchor="middle" x="535.5" y="-62" font-family="Helvetica,sans-Serif" font-size="10.00">compat/types.h</text>
</a>
</g>
</g>
<!-- Node5&#45;&gt;Node8 -->
<g id="edge7_Node000005_Node000008" class="edge">
<title>Node5&#45;&gt;Node8</title>
<g id="a_edge7_Node000005_Node000008"><a xlink:title=" ">
<path fill="none" stroke="#63b8ff" d="M1651.48,-110.9C1648.44,-110.56 1645.43,-110.26 1642.5,-110 1179.76,-69.42 1057.99,-117.12 591.69,-73.98"/>
<polygon fill="#63b8ff" stroke="#63b8ff" points="591.95,-70.49 581.66,-73.04 591.29,-77.46 591.95,-70.49"/>
</a>
</g>
</g>
<!-- Node10 -->
<g id="Node000010" class="node">
<title>Node10</title>
<g id="a_Node000010"><a xlink:href="aix_8h.html" target="_top" xlink:title=" ">
<polygon fill="white" stroke="#666666" points="695,-74 600,-74 600,-55 695,-55 695,-74"/>
<text text-anchor="middle" x="647.5" y="-62" font-family="Helvetica,sans-Serif" font-size="10.00">compat/os/aix.h</text>
</a>
</g>
</g>
<!-- Node5&#45;&gt;Node10 -->
<g id="edge8_Node000005_Node000010" class="edge">
<title>Node5&#45;&gt;Node10</title>
<g id="a_edge8_Node000005_Node000010"><a xlink:title=" ">
<path fill="none" stroke="#63b8ff" d="M1651.48,-110.91C1648.44,-110.57 1645.43,-110.26 1642.5,-110 1230.32,-72.99 1121.63,-112.18 705.25,-73.93"/>
<polygon fill="#63b8ff" stroke="#63b8ff" points="705.32,-70.43 695.04,-72.99 704.67,-77.4 705.32,-70.43"/>
</a>
</g>
</g>
<!-- Node11 -->
<g id="Node000011" class="node">
<title>Node11</title>
<g id="a_Node000011"><a xlink:href="android_8h.html" target="_top" xlink:title=" ">
<polygon fill="white" stroke="#666666" points="829.5,-74 713.5,-74 713.5,-55 829.5,-55 829.5,-74"/>
<text text-anchor="middle" x="771.5" y="-62" font-family="Helvetica,sans-Serif" font-size="10.00">compat/os/android.h</text>
</a>
</g>
</g>
<!-- Node5&#45;&gt;Node11 -->
<g id="edge9_Node000005_Node000011" class="edge">
<title>Node5&#45;&gt;Node11</title>
<g id="a_edge9_Node000005_Node000011"><a xlink:title=" ">
<path fill="none" stroke="#63b8ff" d="M1651.48,-110.93C1648.44,-110.59 1645.43,-110.27 1642.5,-110 1289.65,-77.18 1196.61,-104.03 839.67,-74.02"/>
<polygon fill="#63b8ff" stroke="#63b8ff" points="839.83,-70.52 829.57,-73.16 839.24,-77.5 839.83,-70.52"/>
</a>
</g>
</g>
<!-- Node12 -->
<g id="Node000012" class="node">
<title>Node12</title>
<g id="a_Node000012"><a xlink:href="dragonfly_8h.html" target="_top" xlink:title=" ">
<polygon fill="white" stroke="#666666" points="971.5,-74 847.5,-74 847.5,-55 971.5,-55 971.5,-74"/>
<text text-anchor="middle" x="909.5" y="-62" font-family="Helvetica,sans-Serif" font-size="10.00">compat/os/dragonfly.h</text>
</a>
</g>
</g>
<!-- Node5&#45;&gt;Node12 -->
<g id="edge10_Node000005_Node000012" class="edge">
<title>Node5&#45;&gt;Node12</title>
<g id="a_edge10_Node000005_Node000012"><a xlink:title=" ">
<path fill="none" stroke="#63b8ff" d="M1651.47,-110.97C1648.44,-110.61 1645.43,-110.29 1642.5,-110 1352.54,-81.63 1275.77,-99.12 981.91,-74.06"/>
<polygon fill="#63b8ff" stroke="#63b8ff" points="982.08,-70.56 971.81,-73.19 981.48,-77.54 982.08,-70.56"/>
</a>
</g>
</g>
<!-- Node13 -->
<g id="Node000013" class="node">
<title>Node13</title>
<g id="a_Node000013"><a xlink:href="freebsd_8h.html" target="_top" xlink:title=" ">
<polygon fill="white" stroke="#666666" points="1105.5,-74 989.5,-74 989.5,-55 1105.5,-55 1105.5,-74"/>
<text text-anchor="middle" x="1047.5" y="-62" font-family="Helvetica,sans-Serif" font-size="10.00">compat/os/freebsd.h</text>
</a>
</g>
</g>
<!-- Node5&#45;&gt;Node13 -->
<g id="edge11_Node000005_Node000013" class="edge">
<title>Node5&#45;&gt;Node13</title>
<g id="a_edge11_Node000005_Node000013"><a xlink:title=" ">
<path fill="none" stroke="#63b8ff" d="M1651.47,-111.01C1648.44,-110.65 1645.43,-110.31 1642.5,-110 1411.88,-85.83 1350.34,-96.5 1115.8,-74.07"/>
<polygon fill="#63b8ff" stroke="#63b8ff" points="1115.87,-70.56 1105.58,-73.08 1115.2,-77.52 1115.87,-70.56"/>
</a>
</g>
</g>
<!-- Node14 -->
<g id="Node000014" class="node">
<title>Node14</title>
<g id="a_Node000014"><a xlink:href="hpux_8h.html" target="_top" xlink:title=" ">
<polygon fill="white" stroke="#666666" points="1227.5,-74 1123.5,-74 1123.5,-55 1227.5,-55 1227.5,-74"/>
<text text-anchor="middle" x="1175.5" y="-62" font-family="Helvetica,sans-Serif" font-size="10.00">compat/os/hpux.h</text>
</a>
</g>
</g>
<!-- Node5&#45;&gt;Node14 -->
<g id="edge12_Node000005_Node000014" class="edge">
<title>Node5&#45;&gt;Node14</title>
<g id="a_edge12_Node000005_Node000014"><a xlink:title=" ">
<path fill="none" stroke="#63b8ff" d="M1651.46,-111.08C1648.43,-110.7 1645.43,-110.34 1642.5,-110 1465.79,-89.66 1418.2,-94.33 1237.81,-74.09"/>
<polygon fill="#63b8ff" stroke="#63b8ff" points="1238.05,-70.6 1227.72,-72.95 1237.26,-77.55 1238.05,-70.6"/>
</a>
</g>
</g>
<!-- Node15 -->
<g id="Node000015" class="node">
<title>Node15</title>
<g id="a_Node000015"><a xlink:href="linux_8h.html" target="_top" xlink:title=" ">
<polygon fill="white" stroke="#666666" points="1349.5,-74 1245.5,-74 1245.5,-55 1349.5,-55 1349.5,-74"/>
<text text-anchor="middle" x="1297.5" y="-62" font-family="Helvetica,sans-Serif" font-size="10.00">compat/os/linux.h</text>
</a>
</g>
</g>
<!-- Node5&#45;&gt;Node15 -->
<g id="edge13_Node000005_Node000015" class="edge">
<title>Node5&#45;&gt;Node15</title>
<g id="a_edge13_Node000005_Node000015"><a xlink:title=" ">
<path fill="none" stroke="#63b8ff" d="M1651.44,-111.22C1648.42,-110.8 1645.42,-110.39 1642.5,-110 1519.6,-93.51 1486.3,-90.91 1359.82,-74.16"/>
<polygon fill="#63b8ff" stroke="#63b8ff" points="1360.11,-70.67 1349.74,-72.82 1359.19,-77.61 1360.11,-70.67"/>
</a>
</g>
</g>
<!-- Node16 -->
<g id="Node000016" class="node">
<title>Node16</title>
<g id="a_Node000016"><a xlink:href="macosx_8h.html" target="_top" xlink:title=" ">
<polygon fill="white" stroke="#666666" points="1485.5,-74 1367.5,-74 1367.5,-55 1485.5,-55 1485.5,-74"/>
<text text-anchor="middle" x="1426.5" y="-62" font-family="Helvetica,sans-Serif" font-size="10.00">compat/os/macosx.h</text>
</a>
</g>
</g>
<!-- Node5&#45;&gt;Node16 -->
<g id="edge14_Node000005_Node000016" class="edge">
<title>Node5&#45;&gt;Node16</title>
<g id="a_edge14_Node000005_Node000016"><a xlink:title=" ">
<path fill="none" stroke="#63b8ff" d="M1658.16,-109.98C1610.01,-100.74 1533.08,-85.97 1481.21,-76.01"/>
<polygon fill="#63b8ff" stroke="#63b8ff" points="1481.67,-72.53 1471.19,-74.08 1480.35,-79.41 1481.67,-72.53"/>
</a>
</g>
</g>
<!-- Node17 -->
<g id="Node000017" class="node">
<title>Node17</title>
<g id="a_Node000017"><a xlink:href="mingw_8h.html" target="_top" xlink:title=" ">
<polygon fill="white" stroke="#666666" points="1615.5,-74 1503.5,-74 1503.5,-55 1615.5,-55 1615.5,-74"/>
<text text-anchor="middle" x="1559.5" y="-62" font-family="Helvetica,sans-Serif" font-size="10.00">compat/os/mingw.h</text>
</a>
</g>
</g>
<!-- Node5&#45;&gt;Node17 -->
<g id="edge15_Node000005_Node000017" class="edge">
<title>Node5&#45;&gt;Node17</title>
<g id="a_edge15_Node000005_Node000017"><a xlink:title=" ">
<path fill="none" stroke="#63b8ff" d="M1679.52,-109.98C1656,-101.27 1619.21,-87.63 1592.56,-77.75"/>
<polygon fill="#63b8ff" stroke="#63b8ff" points="1593.49,-74.36 1582.89,-74.17 1591.05,-80.93 1593.49,-74.36"/>
</a>
</g>
</g>
<!-- Node18 -->
<g id="Node000018" class="node">
<title>Node18</title>
<g id="a_Node000018"><a xlink:href="mswindows_8h.html" target="_top" xlink:title=" ">
<polygon fill="white" stroke="#666666" points="1771,-74 1634,-74 1634,-55 1771,-55 1771,-74"/>
<text text-anchor="middle" x="1702.5" y="-62" font-family="Helvetica,sans-Serif" font-size="10.00">compat/os/mswindows.h</text>
</a>
</g>
</g>
<!-- Node5&#45;&gt;Node18 -->
<g id="edge16_Node000005_Node000018" class="edge">
<title>Node5&#45;&gt;Node18</title>
<g id="a_edge16_Node000005_Node000018"><a xlink:title=" ">
<path fill="none" stroke="#63b8ff" d="M1702.5,-109.75C1702.5,-102.8 1702.5,-92.85 1702.5,-84.13"/>
<polygon fill="#63b8ff" stroke="#63b8ff" points="1706,-84.09 1702.5,-74.09 1699,-84.09 1706,-84.09"/>
</a>
</g>
</g>
<!-- Node19 -->
<g id="Node000019" class="node">
<title>Node19</title>
<g id="a_Node000019"><a xlink:href="netbsd_8h.html" target="_top" xlink:title=" ">
<polygon fill="white" stroke="#666666" points="1902,-74 1789,-74 1789,-55 1902,-55 1902,-74"/>
<text text-anchor="middle" x="1845.5" y="-62" font-family="Helvetica,sans-Serif" font-size="10.00">compat/os/netbsd.h</text>
</a>
</g>
</g>
<!-- Node5&#45;&gt;Node19 -->
<g id="edge17_Node000005_Node000019" class="edge">
<title>Node5&#45;&gt;Node19</title>
<g id="a_edge17_Node000005_Node000019"><a xlink:title=" ">
<path fill="none" stroke="#63b8ff" d="M1725.48,-109.98C1749,-101.27 1785.79,-87.63 1812.44,-77.75"/>
<polygon fill="#63b8ff" stroke="#63b8ff" points="1813.95,-80.93 1822.11,-74.17 1811.51,-74.36 1813.95,-80.93"/>
</a>
</g>
</g>
<!-- Node20 -->
<g id="Node000020" class="node">
<title>Node20</title>
<g id="a_Node000020"><a xlink:href="openbsd_8h.html" target="_top" xlink:title=" ">
<polygon fill="white" stroke="#666666" points="2041,-74 1920,-74 1920,-55 2041,-55 2041,-74"/>
<text text-anchor="middle" x="1980.5" y="-62" font-family="Helvetica,sans-Serif" font-size="10.00">compat/os/openbsd.h</text>
</a>
</g>
</g>
<!-- Node5&#45;&gt;Node20 -->
<g id="edge18_Node000005_Node000020" class="edge">
<title>Node5&#45;&gt;Node20</title>
<g id="a_edge18_Node000005_Node000020"><a xlink:title=" ">
<path fill="none" stroke="#63b8ff" d="M1747.17,-109.98C1795.66,-100.74 1873.15,-85.97 1925.39,-76.01"/>
<polygon fill="#63b8ff" stroke="#63b8ff" points="1926.32,-79.39 1935.48,-74.08 1925.01,-72.52 1926.32,-79.39"/>
</a>
</g>
</g>
<!-- Node21 -->
<g id="Node000021" class="node">
<title>Node21</title>
<g id="a_Node000021"><a xlink:href="os2_8h.html" target="_top" xlink:title=" ">
<polygon fill="white" stroke="#666666" points="2156,-74 2059,-74 2059,-55 2156,-55 2156,-74"/>
<text text-anchor="middle" x="2107.5" y="-62" font-family="Helvetica,sans-Serif" font-size="10.00">compat/os/os2.h</text>
</a>
</g>
</g>
<!-- Node5&#45;&gt;Node21 -->
<g id="edge19_Node000005_Node000021" class="edge">
<title>Node5&#45;&gt;Node21</title>
<g id="a_edge19_Node000005_Node000021"><a xlink:title=" ">
<path fill="none" stroke="#63b8ff" d="M1753.69,-112.23C1819.43,-104.11 1937.34,-89.32 2048.71,-74.09"/>
<polygon fill="#63b8ff" stroke="#63b8ff" points="2049.34,-77.53 2058.77,-72.71 2048.39,-70.6 2049.34,-77.53"/>
</a>
</g>
</g>
<!-- Node22 -->
<g id="Node000022" class="node">
<title>Node22</title>
<g id="a_Node000022"><a xlink:href="qnx_8h.html" target="_top" xlink:title=" ">
<polygon fill="white" stroke="#666666" points="2272.5,-74 2174.5,-74 2174.5,-55 2272.5,-55 2272.5,-74"/>
<text text-anchor="middle" x="2223.5" y="-62" font-family="Helvetica,sans-Serif" font-size="10.00">compat/os/qnx.h</text>
</a>
</g>
</g>
<!-- Node5&#45;&gt;Node22 -->
<g id="edge20_Node000005_Node000022" class="edge">
<title>Node5&#45;&gt;Node22</title>
<g id="a_edge20_Node000005_Node000022"><a xlink:title=" ">
<path fill="none" stroke="#63b8ff" d="M1753.52,-114.38C1836.93,-107.46 2007.94,-92.56 2164.01,-74"/>
<polygon fill="#63b8ff" stroke="#63b8ff" points="2164.75,-77.43 2174.27,-72.77 2163.92,-70.48 2164.75,-77.43"/>
</a>
</g>
</g>
<!-- Node23 -->
<g id="Node000023" class="node">
<title>Node23</title>
<g id="a_Node000023"><a xlink:href="sgi_8h.html" target="_top" xlink:title=" ">
<polygon fill="white" stroke="#666666" points="2384.5,-74 2290.5,-74 2290.5,-55 2384.5,-55 2384.5,-74"/>
<text text-anchor="middle" x="2337.5" y="-62" font-family="Helvetica,sans-Serif" font-size="10.00">compat/os/sgi.h</text>
</a>
</g>
</g>
<!-- Node5&#45;&gt;Node23 -->
<g id="edge21_Node000005_Node000023" class="edge">
<title>Node5&#45;&gt;Node23</title>
<g id="a_edge21_Node000005_Node000023"><a xlink:title=" ">
<path fill="none" stroke="#63b8ff" d="M1753.74,-115.84C1853.19,-110.39 2079.5,-96.65 2280.33,-74.05"/>
<polygon fill="#63b8ff" stroke="#63b8ff" points="2280.94,-77.5 2290.48,-72.89 2280.15,-70.55 2280.94,-77.5"/>
</a>
</g>
</g>
<!-- Node24 -->
<g id="Node000024" class="node">
<title>Node24</title>
<g id="a_Node000024"><a xlink:href="solaris_8h.html" target="_top" xlink:title=" ">
<polygon fill="white" stroke="#666666" points="2514.5,-74 2402.5,-74 2402.5,-55 2514.5,-55 2514.5,-74"/>
<text text-anchor="middle" x="2458.5" y="-62" font-family="Helvetica,sans-Serif" font-size="10.00">compat/os/solaris.h</text>
</a>
</g>
</g>
<!-- Node5&#45;&gt;Node24 -->
<g id="edge22_Node000005_Node000024" class="edge">
<title>Node5&#45;&gt;Node24</title>
<g id="a_edge22_Node000005_Node000024"><a xlink:title=" ">
<path fill="none" stroke="#63b8ff" d="M1753.74,-116.35C1866.92,-111.36 2147.01,-97.65 2391.99,-74.08"/>
<polygon fill="#63b8ff" stroke="#63b8ff" points="2392.54,-77.55 2402.16,-73.1 2391.86,-70.58 2392.54,-77.55"/>
</a>
</g>
</g>
<!-- Node25 -->
<g id="Node000025" class="node">
<title>Node25</title>
<g id="a_Node000025"><a xlink:href="sunos_8h.html" target="_top" xlink:title=" ">
<polygon fill="white" stroke="#666666" points="2640.5,-74 2532.5,-74 2532.5,-55 2640.5,-55 2640.5,-74"/>
<text text-anchor="middle" x="2586.5" y="-62" font-family="Helvetica,sans-Serif" font-size="10.00">compat/os/sunos.h</text>
</a>
</g>
</g>
<!-- Node5&#45;&gt;Node25 -->
<g id="edge23_Node000005_Node000025" class="edge">
<title>Node5&#45;&gt;Node25</title>
<g id="a_edge23_Node000005_Node000025"><a xlink:title=" ">
<path fill="none" stroke="#63b8ff" d="M1753.53,-117.15C1881.22,-113.48 2225.04,-101.71 2522.13,-74.05"/>
<polygon fill="#63b8ff" stroke="#63b8ff" points="2522.61,-77.52 2532.24,-73.1 2521.95,-70.55 2522.61,-77.52"/>
</a>
</g>
</g>
<!-- Node26 -->
<g id="Node000026" class="node">
<title>Node26</title>
<g id="a_Node000026"><a xlink:href="assert_8h.html" target="_top" xlink:title=" ">
<polygon fill="white" stroke="#666666" points="2754,-74 2659,-74 2659,-55 2754,-55 2754,-74"/>
<text text-anchor="middle" x="2706.5" y="-62" font-family="Helvetica,sans-Serif" font-size="10.00">compat/assert.h</text>
</a>
</g>
</g>
<!-- Node5&#45;&gt;Node26 -->
<g id="edge24_Node000005_Node000026" class="edge">
<title>Node5&#45;&gt;Node26</title>
<g id="a_edge24_Node000005_Node000026"><a xlink:title=" ">
<path fill="none" stroke="#63b8ff" d="M1753.7,-117.91C1894.71,-115.9 2300.74,-107.51 2648.93,-73.93"/>
<polygon fill="#63b8ff" stroke="#63b8ff" points="2649.34,-77.41 2658.96,-72.96 2648.67,-70.44 2649.34,-77.41"/>
</a>
</g>
</g>
<!-- Node27 -->
<g id="Node000027" class="node">
<title>Node27</title>
<g id="a_Node000027"><a xlink:href="compat__shared_8h.html" target="_top" xlink:title=" ">
<polygon fill="#fff0f0" stroke="red" points="2912.5,-74 2772.5,-74 2772.5,-55 2912.5,-55 2912.5,-74"/>
<text text-anchor="middle" x="2842.5" y="-62" font-family="Helvetica,sans-Serif" font-size="10.00">compat/compat_shared.h</text>
</a>
</g>
</g>
<!-- Node5&#45;&gt;Node27 -->
<g id="edge25_Node000005_Node000027" class="edge">
<title>Node5&#45;&gt;Node27</title>
<g id="a_edge25_Node000005_Node000027"><a xlink:title=" ">
<path fill="none" stroke="#63b8ff" d="M1753.59,-117.51C1905.39,-114.33 2367.17,-102.88 2762.09,-73.97"/>
<polygon fill="#63b8ff" stroke="#63b8ff" points="2762.57,-77.44 2772.28,-73.22 2762.05,-70.46 2762.57,-77.44"/>
</a>
</g>
</g>
<!-- Node37 -->
<g id="Node000037" class="node">
<title>Node37</title>
<g id="a_Node000037"><a xlink:href="stdvarargs_8h.html" target="_top" xlink:title=" ">
<polygon fill="#fff0f0" stroke="red" points="3048,-74 2931,-74 2931,-55 3048,-55 3048,-74"/>
<text text-anchor="middle" x="2989.5" y="-62" font-family="Helvetica,sans-Serif" font-size="10.00">compat/stdvarargs.h</text>
</a>
</g>
</g>
<!-- Node5&#45;&gt;Node37 -->
<g id="edge26_Node000005_Node000037" class="edge">
<title>Node5&#45;&gt;Node37</title>
<g id="a_edge26_Node000005_Node000037"><a xlink:title=" ">
<path fill="none" stroke="#63b8ff" d="M1753.69,-118.24C1920.22,-117.05 2461.76,-110.5 2920.78,-73.97"/>
<polygon fill="#63b8ff" stroke="#63b8ff" points="2921.24,-77.44 2930.93,-73.15 2920.68,-70.46 2921.24,-77.44"/>
</a>
</g>
</g>
<!-- Node39 -->
<g id="Node000039" class="node">
<title>Node39</title>
<g id="a_Node000039"><a xlink:href="stdio_8h.html" target="_top" xlink:title=" ">
<polygon fill="#fff0f0" stroke="red" points="3155,-74 3066,-74 3066,-55 3155,-55 3155,-74"/>
<text text-anchor="middle" x="3110.5" y="-62" font-family="Helvetica,sans-Serif" font-size="10.00">compat/stdio.h</text>
</a>
</g>
</g>
<!-- Node5&#45;&gt;Node39 -->
<g id="edge27_Node000005_Node000039" class="edge">
<title>Node5&#45;&gt;Node39</title>
<g id="a_edge27_Node000005_Node000039"><a xlink:title=" ">
<path fill="none" stroke="#63b8ff" d="M1753.69,-117.66C1965.68,-114.07 2776.32,-99.02 3055.65,-73.91"/>
<polygon fill="#63b8ff" stroke="#63b8ff" points="3056.13,-77.38 3065.76,-72.98 3055.48,-70.41 3056.13,-77.38"/>
</a>
</g>
</g>
<!-- Node41 -->
<g id="Node000041" class="node">
<title>Node41</title>
<g id="a_Node000041"><a xlink:href="statvfs_8h.html" target="_top" xlink:title=" ">
<polygon fill="white" stroke="#666666" points="3272,-74 3173,-74 3173,-55 3272,-55 3272,-74"/>
<text text-anchor="middle" x="3222.5" y="-62" font-family="Helvetica,sans-Serif" font-size="10.00">compat/statvfs.h</text>
</a>
</g>
</g>
<!-- Node5&#45;&gt;Node41 -->
<g id="edge28_Node000005_Node000041" class="edge">
<title>Node5&#45;&gt;Node41</title>
<g id="a_edge28_Node000005_Node000041"><a xlink:title=" ">
<path fill="none" stroke="#63b8ff" d="M1753.5,-117.72C1975.65,-114.2 2860.79,-98.92 3162.91,-73.9"/>
<polygon fill="#63b8ff" stroke="#63b8ff" points="3163.31,-77.38 3172.97,-73.05 3162.71,-70.41 3163.31,-77.38"/>
</a>
</g>
</g>
<!-- Node42 -->
<g id="Node000042" class="node">
<title>Node42</title>
<g id="a_Node000042"><a xlink:href="debug_8h.html" target="_top" xlink:title=" ">
<polygon fill="white" stroke="#666666" points="95,-74 0,-74 0,-55 95,-55 95,-74"/>
<text text-anchor="middle" x="47.5" y="-62" font-family="Helvetica,sans-Serif" font-size="10.00">compat/debug.h</text>
</a>
</g>
</g>
<!-- Node5&#45;&gt;Node42 -->
<g id="edge29_Node000005_Node000042" class="edge">
<title>Node5&#45;&gt;Node42</title>
<g id="a_edge29_Node000005_Node000042"><a xlink:title=" ">
<path fill="none" stroke="#63b8ff" d="M1651.48,-110.86C1648.45,-110.53 1645.44,-110.24 1642.5,-110 963.94,-54.19 786.82,-132.68 105.18,-74.02"/>
<polygon fill="#63b8ff" stroke="#63b8ff" points="105.37,-70.53 95.11,-73.15 104.77,-77.5 105.37,-70.53"/>
</a>
</g>
</g>
<!-- Node43 -->
<g id="Node000043" class="node">
<title>Node43</title>
<g id="a_Node000043"><a xlink:href="valgrind_8h.html" target="_top" xlink:title=" ">
<polygon fill="#fff0f0" stroke="red" points="218,-74 113,-74 113,-55 218,-55 218,-74"/>
<text text-anchor="middle" x="165.5" y="-62" font-family="Helvetica,sans-Serif" font-size="10.00">compat/valgrind.h</text>
</a>
</g>
</g>
<!-- Node5&#45;&gt;Node43 -->
<g id="edge30_Node000005_Node000043" class="edge">
<title>Node5&#45;&gt;Node43</title>
<g id="a_edge30_Node000005_Node000043"><a xlink:title=" ">
<path fill="none" stroke="#63b8ff" d="M1651.48,-110.86C1648.45,-110.54 1645.44,-110.24 1642.5,-110 1018.5,-58.04 855.67,-124.8 228.24,-74.04"/>
<polygon fill="#63b8ff" stroke="#63b8ff" points="228.28,-70.53 218.03,-73.2 227.71,-77.51 228.28,-70.53"/>
</a>
</g>
</g>
<!-- Node46 -->
<g id="Node000046" class="node">
<title>Node46</title>
<g id="a_Node000046"><a xlink:href="Packable_8h.html" target="_top" xlink:title=" ">
<polygon fill="white" stroke="#666666" points="3611,-129 3516,-129 3516,-110 3611,-110 3611,-129"/>
<text text-anchor="middle" x="3563.5" y="-117" font-family="Helvetica,sans-Serif" font-size="10.00">base/Packable.h</text>
</a>
</g>
</g>
<!-- Node45&#45;&gt;Node46 -->
<g id="edge32_Node000045_Node000046" class="edge">
<title>Node45&#45;&gt;Node46</title>
<g id="a_edge32_Node000045_Node000046"><a xlink:title=" ">
<path fill="none" stroke="#63b8ff" d="M3497.19,-164.98C3509.33,-156.84 3527.86,-144.41 3542.25,-134.76"/>
<polygon fill="#63b8ff" stroke="#63b8ff" points="3544.22,-137.65 3550.58,-129.17 3540.32,-131.84 3544.22,-137.65"/>
</a>
</g>
</g>
<!-- Node47 -->
<g id="Node000047" class="node">
<title>Node47</title>
<g id="a_Node000047"><a xlink:href="cbdata_8h.html" target="_top" xlink:title=" ">
<polygon fill="white" stroke="#666666" points="3498,-129 3439,-129 3439,-110 3498,-110 3498,-129"/>
<text text-anchor="middle" x="3468.5" y="-117" font-family="Helvetica,sans-Serif" font-size="10.00">cbdata.h</text>
</a>
</g>
</g>
<!-- Node45&#45;&gt;Node47 -->
<g id="edge33_Node000045_Node000047" class="edge">
<title>Node45&#45;&gt;Node47</title>
<g id="a_edge33_Node000045_Node000047"><a xlink:title=" ">
<path fill="none" stroke="#63b8ff" d="M3481.86,-164.75C3479.74,-157.72 3476.69,-147.62 3474.04,-138.84"/>
<polygon fill="#63b8ff" stroke="#63b8ff" points="3477.33,-137.65 3471.09,-129.09 3470.63,-139.67 3477.33,-137.65"/>
</a>
</g>
</g>
<!-- Node48 -->
<g id="Node000048" class="node">
<title>Node48</title>
<g id="a_Node000048"><a xlink:href="mem_2forward_8h.html" target="_top" xlink:title=" ">
<polygon fill="white" stroke="#666666" points="3420.5,-129 3328.5,-129 3328.5,-110 3420.5,-110 3420.5,-129"/>
<text text-anchor="middle" x="3374.5" y="-117" font-family="Helvetica,sans-Serif" font-size="10.00">mem/forward.h</text>
</a>
</g>
</g>
<!-- Node45&#45;&gt;Node48 -->
<g id="edge34_Node000045_Node000048" class="edge">
<title>Node45&#45;&gt;Node48</title>
<g id="a_edge34_Node000045_Node000048"><a xlink:title=" ">
<path fill="none" stroke="#63b8ff" d="M3466.83,-164.98C3449.21,-156.5 3421.92,-143.35 3401.57,-133.54"/>
<polygon fill="#63b8ff" stroke="#63b8ff" points="3403.02,-130.36 3392.49,-129.17 3399.98,-136.66 3403.02,-130.36"/>
</a>
</g>
</g>
<!-- Node49 -->
<g id="Node000049" class="node">
<title>Node49</title>
<g id="a_Node000049"><a xlink:href="AllocatorProxy_8h.html" target="_top" xlink:title=" ">
<polygon fill="white" stroke="#666666" points="3490.5,-74 3366.5,-74 3366.5,-55 3490.5,-55 3490.5,-74"/>
<text text-anchor="middle" x="3428.5" y="-62" font-family="Helvetica,sans-Serif" font-size="10.00">mem/AllocatorProxy.h</text>
</a>
</g>
</g>
<!-- Node48&#45;&gt;Node49 -->
<g id="edge35_Node000048_Node000049" class="edge">
<title>Node48&#45;&gt;Node49</title>
<g id="a_edge35_Node000048_Node000049"><a xlink:title=" ">
<path fill="none" stroke="#63b8ff" d="M3383.42,-109.75C3391.28,-102.03 3402.93,-90.6 3412.42,-81.28"/>
<polygon fill="#63b8ff" stroke="#63b8ff" points="3415.06,-83.59 3419.75,-74.09 3410.16,-78.6 3415.06,-83.59"/>
</a>
</g>
</g>
<!-- Node50 -->
<g id="Node000050" class="node">
<title>Node50</title>
<g id="a_Node000050"><a xlink:title=" ">
<polygon fill="#e0e0e0" stroke="#999999" points="3362.5,-19 3314.5,-19 3314.5,0 3362.5,0 3362.5,-19"/>
<text text-anchor="middle" x="3338.5" y="-7" font-family="Helvetica,sans-Serif" font-size="10.00">iosfwd</text>
</a>
</g>
</g>
<!-- Node48&#45;&gt;Node50 -->
<g id="edge36_Node000048_Node000050" class="edge">
<title>Node48&#45;&gt;Node50</title>
<g id="a_edge36_Node000048_Node000050"><a xlink:title=" ">
<path fill="none" stroke="#63b8ff" d="M3370.92,-109.71C3367.34,-100.78 3361.76,-86.53 3357.5,-74 3352.4,-59 3347.29,-41.77 3343.66,-29.05"/>
<polygon fill="#63b8ff" stroke="#63b8ff" points="3346.96,-27.87 3340.88,-19.19 3340.22,-29.77 3346.96,-27.87"/>
</a>
</g>
</g>
<!-- Node52 -->
<g id="Node000052" class="node">
<title>Node52</title>
<g id="a_Node000052"><a xlink:href="Storage_8h.html" target="_top" xlink:title=" ">
<polygon fill="white" stroke="#666666" points="3720,-129 3629,-129 3629,-110 3720,-110 3720,-129"/>
<text text-anchor="middle" x="3674.5" y="-117" font-family="Helvetica,sans-Serif" font-size="10.00">store/Storage.h</text>
</a>
</g>
</g>
<!-- Node51&#45;&gt;Node52 -->
<g id="edge38_Node000051_Node000052" class="edge">
<title>Node51&#45;&gt;Node52</title>
<g id="a_edge38_Node000051_Node000052"><a xlink:title=" ">
<path fill="none" stroke="#63b8ff" d="M3627.5,-164.98C3635.69,-157.23 3648.01,-145.58 3657.97,-136.14"/>
<polygon fill="#63b8ff" stroke="#63b8ff" points="3660.48,-138.59 3665.34,-129.17 3655.67,-133.5 3660.48,-138.59"/>
</a>
</g>
</g>
<!-- Node53 -->
<g id="Node000053" class="node">
<title>Node53</title>
<g id="a_Node000053"><a xlink:href="RefCount_8h.html" target="_top" xlink:title=" ">
<polygon fill="#fff0f0" stroke="red" points="3906,-74 3809,-74 3809,-55 3906,-55 3906,-74"/>
<text text-anchor="middle" x="3857.5" y="-62" font-family="Helvetica,sans-Serif" font-size="10.00">base/RefCount.h</text>
</a>
</g>
</g>
<!-- Node52&#45;&gt;Node53 -->
<g id="edge39_Node000052_Node000053" class="edge">
<title>Node52&#45;&gt;Node53</title>
<g id="a_edge39_Node000052_Node000053"><a xlink:title=" ">
<path fill="none" stroke="#63b8ff" d="M3703.9,-109.98C3734.89,-101.01 3783.88,-86.82 3818.17,-76.89"/>
<polygon fill="#63b8ff" stroke="#63b8ff" points="3819.24,-80.23 3827.87,-74.08 3817.29,-73.5 3819.24,-80.23"/>
</a>
</g>
</g>
<!-- Node57 -->
<g id="Node000057" class="node">
<title>Node57</title>
<g id="a_Node000057"><a xlink:href="RequestMethod_8h.html" target="_top" xlink:title=" ">
<polygon fill="#fff0f0" stroke="red" points="3634,-74 3509,-74 3509,-55 3634,-55 3634,-74"/>
<text text-anchor="middle" x="3571.5" y="-62" font-family="Helvetica,sans-Serif" font-size="10.00">http/RequestMethod.h</text>
</a>
</g>
</g>
<!-- Node52&#45;&gt;Node57 -->
<g id="edge41_Node000052_Node000057" class="edge">
<title>Node52&#45;&gt;Node57</title>
<g id="a_edge41_Node000052_Node000057"><a xlink:title=" ">
<path fill="none" stroke="#63b8ff" d="M3657.95,-109.98C3641.61,-101.57 3616.37,-88.59 3597.37,-78.81"/>
<polygon fill="#63b8ff" stroke="#63b8ff" points="3598.84,-75.63 3588.35,-74.17 3595.64,-81.86 3598.84,-75.63"/>
</a>
</g>
</g>
<!-- Node78 -->
<g id="Node000078" class="node">
<title>Node78</title>
<g id="a_Node000078"><a xlink:href="store_2forward_8h.html" target="_top" xlink:title=" ">
<polygon fill="white" stroke="#666666" points="3708,-19 3617,-19 3617,0 3708,0 3708,-19"/>
<text text-anchor="middle" x="3662.5" y="-7" font-family="Helvetica,sans-Serif" font-size="10.00">store/forward.h</text>
</a>
</g>
</g>
<!-- Node52&#45;&gt;Node78 -->
<g id="edge43_Node000052_Node000078" class="edge">
<title>Node52&#45;&gt;Node78</title>
<g id="a_edge43_Node000052_Node000078"><a xlink:title=" ">
<path fill="none" stroke="#63b8ff" d="M3673.52,-109.66C3671.57,-92.17 3667.2,-52.8 3664.59,-29.27"/>
<polygon fill="#63b8ff" stroke="#63b8ff" points="3668.05,-28.71 3663.46,-19.16 3661.09,-29.48 3668.05,-28.71"/>
</a>
</g>
</g>
<!-- Node76 -->
<g id="Node000076" class="node">
<title>Node76</title>
<g id="a_Node000076"><a xlink:href="store__key__md5_8h.html" target="_top" xlink:title=" ">
<polygon fill="#fff0f0" stroke="red" points="3790.5,-74 3690.5,-74 3690.5,-55 3790.5,-55 3790.5,-74"/>
<text text-anchor="middle" x="3740.5" y="-62" font-family="Helvetica,sans-Serif" font-size="10.00">store_key_md5.h</text>
</a>
</g>
</g>
<!-- Node52&#45;&gt;Node76 -->
<g id="edge44_Node000052_Node000076" class="edge">
<title>Node52&#45;&gt;Node76</title>
<g id="a_edge44_Node000052_Node000076"><a xlink:title=" ">
<path fill="none" stroke="#63b8ff" d="M3685.1,-109.98C3694.96,-102.07 3709.85,-90.11 3721.72,-80.58"/>
<polygon fill="#63b8ff" stroke="#63b8ff" points="3724.1,-83.16 3729.7,-74.17 3719.71,-77.7 3724.1,-83.16"/>
</a>
</g>
</g>
<!-- Node55 -->
<g id="Node000055" class="node">
<title>Node55</title>
<g id="a_Node000055"><a xlink:title=" ">
<polygon fill="#e0e0e0" stroke="#999999" points="3925.5,-19 3865.5,-19 3865.5,0 3925.5,0 3925.5,-19"/>
<text text-anchor="middle" x="3895.5" y="-7" font-family="Helvetica,sans-Serif" font-size="10.00">iostream</text>
</a>
</g>
</g>
<!-- Node53&#45;&gt;Node55 -->
<g id="edge40_Node000053_Node000055" class="edge">
<title>Node53&#45;&gt;Node55</title>
<g id="a_edge40_Node000053_Node000055"><a xlink:title=" ">
<path fill="none" stroke="#63b8ff" d="M3863.77,-54.75C3869.09,-47.34 3876.86,-36.5 3883.38,-27.41"/>
<polygon fill="#63b8ff" stroke="#63b8ff" points="3886.36,-29.26 3889.34,-19.09 3880.67,-25.18 3886.36,-29.26"/>
</a>
</g>
</g>
<!-- Node57&#45;&gt;Node50 -->
<g id="edge42_Node000057_Node000050" class="edge">
<title>Node57&#45;&gt;Node50</title>
<g id="a_edge42_Node000057_Node000050"><a xlink:title=" ">
<path fill="none" stroke="#63b8ff" d="M3534.06,-54.98C3489.5,-44.85 3415.71,-28.06 3372.64,-18.27"/>
<polygon fill="#63b8ff" stroke="#63b8ff" points="3373.18,-14.8 3362.65,-15.99 3371.63,-21.62 3373.18,-14.8"/>
</a>
</g>
</g>
<!-- Node76&#45;&gt;Node78 -->
<g id="edge46_Node000076_Node000078" class="edge">
<title>Node76&#45;&gt;Node78</title>
<g id="a_edge46_Node000076_Node000078"><a xlink:title=" ">
<path fill="none" stroke="#63b8ff" d="M3727.97,-54.98C3716.1,-46.92 3698.04,-34.65 3683.89,-25.03"/>
<polygon fill="#63b8ff" stroke="#63b8ff" points="3685.5,-21.9 3675.26,-19.17 3681.56,-27.69 3685.5,-21.9"/>
</a>
</g>
</g>
<!-- Node77 -->
<g id="Node000077" class="node">
<title>Node77</title>
<g id="a_Node000077"><a xlink:href="hash_8h.html" target="_top" xlink:title=" ">
<polygon fill="white" stroke="#666666" points="3775,-19 3726,-19 3726,0 3775,0 3775,-19"/>
<text text-anchor="middle" x="3750.5" y="-7" font-family="Helvetica,sans-Serif" font-size="10.00">hash.h</text>
</a>
</g>
</g>
<!-- Node76&#45;&gt;Node77 -->
<g id="edge45_Node000076_Node000077" class="edge">
<title>Node76&#45;&gt;Node77</title>
<g id="a_edge45_Node000076_Node000077"><a xlink:title=" ">
<path fill="none" stroke="#63b8ff" d="M3742.15,-54.75C3743.46,-47.8 3745.34,-37.85 3746.98,-29.13"/>
<polygon fill="#63b8ff" stroke="#63b8ff" points="3750.46,-29.56 3748.88,-19.09 3743.59,-28.27 3750.46,-29.56"/>
</a>
</g>
</g>
<!-- Node87&#45;&gt;Node76 -->
<g id="edge48_Node000087_Node000076" class="edge">
<title>Node87&#45;&gt;Node76</title>
<g id="a_edge48_Node000087_Node000076"><a xlink:title=" ">
<path fill="none" stroke="#63b8ff" d="M3732.24,-164.66C3733.69,-147.17 3736.97,-107.8 3738.94,-84.27"/>
<polygon fill="#63b8ff" stroke="#63b8ff" points="3742.44,-84.41 3739.78,-74.16 3735.46,-83.83 3742.44,-84.41"/>
</a>
</g>
</g>
<!-- Node88&#45;&gt;Node50 -->
<g id="edge51_Node000088_Node000050" class="edge">
<title>Node88&#45;&gt;Node50</title>
<g id="a_edge51_Node000088_Node000050"><a xlink:title=" ">
<path fill="none" stroke="#63b8ff" d="M3302.54,-164.74C3308.5,-139.2 3325.93,-64.43 3334.13,-29.23"/>
<polygon fill="#63b8ff" stroke="#63b8ff" points="3337.58,-29.84 3336.45,-19.31 3330.77,-28.25 3337.58,-29.84"/>
</a>
</g>
</g>
<!-- Node89 -->
<g id="Node000089" class="node">
<title>Node89</title>
<g id="a_Node000089"><a xlink:title=" ">
<polygon fill="#e0e0e0" stroke="#999999" points="3272.5,-129 3228.5,-129 3228.5,-110 3272.5,-110 3272.5,-129"/>
<text text-anchor="middle" x="3250.5" y="-117" font-family="Helvetica,sans-Serif" font-size="10.00">ctime</text>
</a>
</g>
</g>
<!-- Node88&#45;&gt;Node89 -->
<g id="edge50_Node000088_Node000089" class="edge">
<title>Node88&#45;&gt;Node89</title>
<g id="a_edge50_Node000088_Node000089"><a xlink:title=" ">
<path fill="none" stroke="#63b8ff" d="M3292.24,-164.75C3285.04,-157.11 3274.39,-145.82 3265.65,-136.56"/>
<polygon fill="#63b8ff" stroke="#63b8ff" points="3268.01,-133.96 3258.6,-129.09 3262.92,-138.76 3268.01,-133.96"/>
</a>
</g>
</g>
<!-- Node91&#45;&gt;Node55 -->
<g id="edge54_Node000091_Node000055" class="edge">
<title>Node91&#45;&gt;Node55</title>
<g id="a_edge54_Node000091_Node000055"><a xlink:title=" ">
<path fill="none" stroke="#63b8ff" d="M3844.47,-164.8C3863.32,-149.08 3901.21,-113.82 3915.5,-74 3921.04,-58.57 3914.3,-40.74 3907.19,-27.91"/>
<polygon fill="#63b8ff" stroke="#63b8ff" points="3910.07,-25.92 3901.87,-19.2 3904.09,-29.56 3910.07,-25.92"/>
</a>
</g>
</g>
</g>
</svg>
