<?xml version="1.0" encoding="UTF-8" standalone="no"?>
<!DOCTYPE svg PUBLIC "-//W3C//DTD SVG 1.1//EN"
 "http://www.w3.org/Graphics/SVG/1.1/DTD/svg11.dtd">
<!-- Generated by graphviz version 2.43.0 (0)
 -->
<!-- Title: squid/src/tests/stub_libstore.cc Pages: 1 -->
<!--zoomable 313 -->

<svg id="main" version="1.1" xmlns="http://www.w3.org/2000/svg" xmlns:xlink="http://www.w3.org/1999/xlink" xml:space="preserve" onload="init(evt)">
<style type="text/css"><![CDATA[
.node, .edge {opacity: 0.7;}
.node.selected, .edge.selected {opacity: 1;}
.edge:hover path { stroke: red; }
.edge:hover polygon { stroke: red; fill: red; }
]]></style>

<defs>
  <circle id="rim" cx="0" cy="0" r="7"/>
  <circle id="rim2" cx="0" cy="0" r="3.5"/>
  <g id="zoomPlus">
    <use xlink:href="#rim" fill="#404040"><set attributeName="fill" to="#808080" begin="zoomplus.mouseover" end="zoomplus.mouseout"/></use>
    <path d="M-4,0h8M0,-4v8" fill="none" stroke="white" stroke-width="1.5" pointer-events="none"/>
  </g>
  <g id="zoomMin">
    <use xlink:href="#rim" fill="#404040"><set attributeName="fill" to="#808080" begin="zoomminus.mouseover" end="zoomminus.mouseout"/></use>
    <path d="M-4,0h8" fill="none" stroke="white" stroke-width="1.5" pointer-events="none"/>
  </g>
  <g id="arrowUp" transform="translate(30 24)">
    <use xlink:href="#rim"/>
    <path pointer-events="none" fill="none" stroke="white" stroke-width="1.5" d="M0,-3.0v7 M-2.5,-0.5L0,-3.0L2.5,-0.5"/>
  </g>
  <g id="arrowRight" transform="rotate(90) translate(36 -43)">
    <use xlink:href="#rim"/>
    <path pointer-events="none" fill="none" stroke="white" stroke-width="1.5" d="M0,-3.0v7 M-2.5,-0.5L0,-3.0L2.5,-0.5"/>
  </g>
  <g id="arrowDown" transform="rotate(180) translate(-30 -48)">
    <use xlink:href="#rim"/>
    <path pointer-events="none" fill="none" stroke="white" stroke-width="1.5" d="M0,-3.0v7 M-2.5,-0.5L0,-3.0L2.5,-0.5"/>
  </g>
  <g id="arrowLeft" transform="rotate(270) translate(-36 17)">
    <use xlink:href="#rim"/>
    <path pointer-events="none" fill="none" stroke="white" stroke-width="1.5" d="M0,-3.0v7 M-2.5,-0.5L0,-3.0L2.5,-0.5"/>
  </g>
  <g id="resetDef">
    <use xlink:href="#rim2" fill="#404040"><set attributeName="fill" to="#808080" begin="reset.mouseover" end="reset.mouseout"/></use>
  </g>
</defs>
<script type="application/ecmascript">
var viewWidth = 4101;
var viewHeight = 313;
var sectionId = 'dynsection-0';
</script>
<script type="application/ecmascript" xlink:href="svg.min.js"/>
<svg id="graph" class="graph">
<g id="viewport">
<title>squid/src/tests/stub_libstore.cc</title>
<!-- Node1 -->
<g id="Node000001" class="node">
<title>Node1</title>
<g id="a_Node000001"><a xlink:title=" ">
<polygon fill="#999999" stroke="#666666" points="3485,-305 3374,-305 3374,-275 3485,-275 3485,-305"/>
<text text-anchor="start" x="3382" y="-293" font-family="Helvetica,sans-Serif" font-size="10.00">squid/src/tests/stub</text>
<text text-anchor="middle" x="3429.5" y="-282" font-family="Helvetica,sans-Serif" font-size="10.00">_libstore.cc</text>
</a>
</g>
</g>
<!-- Node2 -->
<g id="Node000002" class="node">
<title>Node2</title>
<g id="a_Node000002"><a xlink:href="squid_8h.html" target="_top" xlink:title=" ">
<polygon fill="white" stroke="#666666" points="1571.5,-239 1519.5,-239 1519.5,-220 1571.5,-220 1571.5,-239"/>
<text text-anchor="middle" x="1545.5" y="-227" font-family="Helvetica,sans-Serif" font-size="10.00">squid.h</text>
</a>
</g>
</g>
<!-- Node1&#45;&gt;Node2 -->
<g id="edge1_Node000001_Node000002" class="edge">
<title>Node1&#45;&gt;Node2</title>
<g id="a_edge1_Node000001_Node000002"><a xlink:title=" ">
<path fill="none" stroke="#63b8ff" d="M3373.88,-287.27C3090.81,-278.48 1814.5,-238.85 1581.93,-231.63"/>
<polygon fill="#63b8ff" stroke="#63b8ff" points="1581.75,-228.12 1571.65,-231.31 1581.54,-235.12 1581.75,-228.12"/>
</a>
</g>
</g>
<!-- Node44 -->
<g id="Node000044" class="node">
<title>Node44</title>
<g id="a_Node000044"><a xlink:href="STUB_8h.html" target="_top" xlink:title=" ">
<polygon fill="white" stroke="#666666" points="2926,-74 2847,-74 2847,-55 2926,-55 2926,-74"/>
<text text-anchor="middle" x="2886.5" y="-62" font-family="Helvetica,sans-Serif" font-size="10.00">tests/STUB.h</text>
</a>
</g>
</g>
<!-- Node1&#45;&gt;Node44 -->
<g id="edge30_Node000001_Node000044" class="edge">
<title>Node1&#45;&gt;Node44</title>
<g id="a_edge30_Node000001_Node000044"><a xlink:title=" ">
<path fill="none" stroke="#63b8ff" d="M3373.89,-282.49C3317.41,-274.82 3235,-260.34 3211.5,-239 3166.76,-198.37 3214.69,-148.97 3168.5,-110 3130.41,-77.86 3001.09,-82.01 2936.24,-74.03"/>
<polygon fill="#63b8ff" stroke="#63b8ff" points="2936.43,-70.52 2926.04,-72.57 2935.45,-77.45 2936.43,-70.52"/>
</a>
</g>
</g>
<!-- Node46 -->
<g id="Node000046" class="node">
<title>Node46</title>
<g id="a_Node000046"><a xlink:href="Controller_8h.html" target="_top" xlink:title=" ">
<polygon fill="white" stroke="#666666" points="3322,-239 3221,-239 3221,-220 3322,-220 3322,-239"/>
<text text-anchor="middle" x="3271.5" y="-227" font-family="Helvetica,sans-Serif" font-size="10.00">store/Controller.h</text>
</a>
</g>
</g>
<!-- Node1&#45;&gt;Node46 -->
<g id="edge32_Node000001_Node000046" class="edge">
<title>Node1&#45;&gt;Node46</title>
<g id="a_edge32_Node000001_Node000046"><a xlink:title=" ">
<path fill="none" stroke="#63b8ff" d="M3391.66,-274.99C3365.06,-265.14 3329.83,-252.1 3304.4,-242.68"/>
<polygon fill="#63b8ff" stroke="#63b8ff" points="3305.43,-239.33 3294.83,-239.14 3303,-245.89 3305.43,-239.33"/>
</a>
</g>
</g>
<!-- Node84 -->
<g id="Node000084" class="node">
<title>Node84</title>
<g id="a_Node000084"><a xlink:href="Disk_8h.html" target="_top" xlink:title=" ">
<polygon fill="white" stroke="#666666" points="3419,-239 3344,-239 3344,-220 3419,-220 3419,-239"/>
<text text-anchor="middle" x="3381.5" y="-227" font-family="Helvetica,sans-Serif" font-size="10.00">store/Disk.h</text>
</a>
</g>
</g>
<!-- Node1&#45;&gt;Node84 -->
<g id="edge40_Node000001_Node000084" class="edge">
<title>Node1&#45;&gt;Node84</title>
<g id="a_edge40_Node000001_Node000084"><a xlink:title=" ">
<path fill="none" stroke="#63b8ff" d="M3417.88,-274.84C3411.06,-266.52 3402.39,-255.96 3395.23,-247.23"/>
<polygon fill="#63b8ff" stroke="#63b8ff" points="3397.74,-244.78 3388.69,-239.27 3392.33,-249.22 3397.74,-244.78"/>
</a>
</g>
</g>
<!-- Node88 -->
<g id="Node000088" class="node">
<title>Node88</title>
<g id="a_Node000088"><a xlink:href="Disks_8h.html" target="_top" xlink:title=" ">
<polygon fill="white" stroke="#666666" points="3517.5,-239 3437.5,-239 3437.5,-220 3517.5,-220 3517.5,-239"/>
<text text-anchor="middle" x="3477.5" y="-227" font-family="Helvetica,sans-Serif" font-size="10.00">store/Disks.h</text>
</a>
</g>
</g>
<!-- Node1&#45;&gt;Node88 -->
<g id="edge47_Node000001_Node000088" class="edge">
<title>Node1&#45;&gt;Node88</title>
<g id="a_edge47_Node000001_Node000088"><a xlink:title=" ">
<path fill="none" stroke="#63b8ff" d="M3441.12,-274.84C3447.94,-266.52 3456.61,-255.96 3463.77,-247.23"/>
<polygon fill="#63b8ff" stroke="#63b8ff" points="3466.67,-249.22 3470.31,-239.27 3461.26,-244.78 3466.67,-249.22"/>
</a>
</g>
</g>
<!-- Node89 -->
<g id="Node000089" class="node">
<title>Node89</title>
<g id="a_Node000089"><a xlink:href="LocalSearch_8h.html" target="_top" xlink:title=" ">
<polygon fill="white" stroke="#666666" points="3625.5,-74 3513.5,-74 3513.5,-55 3625.5,-55 3625.5,-74"/>
<text text-anchor="middle" x="3569.5" y="-62" font-family="Helvetica,sans-Serif" font-size="10.00">store/LocalSearch.h</text>
</a>
</g>
</g>
<!-- Node1&#45;&gt;Node89 -->
<g id="edge50_Node000001_Node000089" class="edge">
<title>Node1&#45;&gt;Node89</title>
<g id="a_edge50_Node000001_Node000089"><a xlink:title=" ">
<path fill="none" stroke="#63b8ff" d="M3475.05,-274.93C3493.49,-267.09 3513.46,-255.5 3526.5,-239 3563.33,-192.41 3569.12,-118.52 3569.7,-84.18"/>
<polygon fill="#63b8ff" stroke="#63b8ff" points="3573.2,-84.16 3569.74,-74.15 3566.2,-84.14 3573.2,-84.16"/>
</a>
</g>
</g>
<!-- Node90 -->
<g id="Node000090" class="node">
<title>Node90</title>
<g id="a_Node000090"><a xlink:href="SwapMetaIn_8h.html" target="_top" xlink:title=" ">
<polygon fill="white" stroke="#666666" points="3710,-239 3597,-239 3597,-220 3710,-220 3710,-239"/>
<text text-anchor="middle" x="3653.5" y="-227" font-family="Helvetica,sans-Serif" font-size="10.00">store/SwapMetaIn.h</text>
</a>
</g>
</g>
<!-- Node1&#45;&gt;Node90 -->
<g id="edge52_Node000001_Node000090" class="edge">
<title>Node1&#45;&gt;Node90</title>
<g id="a_edge52_Node000001_Node000090"><a xlink:title=" ">
<path fill="none" stroke="#63b8ff" d="M3483.15,-274.99C3522.31,-264.76 3574.68,-251.09 3610.96,-241.61"/>
<polygon fill="#63b8ff" stroke="#63b8ff" points="3611.96,-244.97 3620.75,-239.05 3610.19,-238.19 3611.96,-244.97"/>
</a>
</g>
</g>
<!-- Node91 -->
<g id="Node000091" class="node">
<title>Node91</title>
<g id="a_Node000091"><a xlink:href="SwapMetaOut_8h.html" target="_top" xlink:title=" ">
<polygon fill="white" stroke="#666666" points="3976.5,-239 3854.5,-239 3854.5,-220 3976.5,-220 3976.5,-239"/>
<text text-anchor="middle" x="3915.5" y="-227" font-family="Helvetica,sans-Serif" font-size="10.00">store/SwapMetaOut.h</text>
</a>
</g>
</g>
<!-- Node1&#45;&gt;Node91 -->
<g id="edge55_Node000001_Node000091" class="edge">
<title>Node1&#45;&gt;Node91</title>
<g id="a_edge55_Node000001_Node000091"><a xlink:title=" ">
<path fill="none" stroke="#63b8ff" d="M3485.25,-282.29C3573.87,-271.62 3746.78,-250.81 3844.26,-239.08"/>
<polygon fill="#63b8ff" stroke="#63b8ff" points="3844.81,-242.53 3854.32,-237.86 3843.97,-235.58 3844.81,-242.53"/>
</a>
</g>
</g>
<!-- Node3 -->
<g id="Node000003" class="node">
<title>Node3</title>
<g id="a_Node000003"><a xlink:href="autoconf_8h.html" target="_top" xlink:title=" ">
<polygon fill="white" stroke="#666666" points="1446.5,-184 1378.5,-184 1378.5,-165 1446.5,-165 1446.5,-184"/>
<text text-anchor="middle" x="1412.5" y="-172" font-family="Helvetica,sans-Serif" font-size="10.00">autoconf.h</text>
</a>
</g>
</g>
<!-- Node2&#45;&gt;Node3 -->
<g id="edge2_Node000002_Node000003" class="edge">
<title>Node2&#45;&gt;Node3</title>
<g id="a_edge2_Node000002_Node000003"><a xlink:title=" ">
<path fill="none" stroke="#63b8ff" d="M1524.13,-219.98C1502.35,-211.3 1468.34,-197.75 1443.58,-187.88"/>
<polygon fill="#63b8ff" stroke="#63b8ff" points="1444.84,-184.62 1434.26,-184.17 1442.25,-191.12 1444.84,-184.62"/>
</a>
</g>
</g>
<!-- Node4 -->
<g id="Node000004" class="node">
<title>Node4</title>
<g id="a_Node000004"><a xlink:href="version_8h.html" target="_top" xlink:title=" ">
<polygon fill="white" stroke="#666666" points="1526.5,-184 1464.5,-184 1464.5,-165 1526.5,-165 1526.5,-184"/>
<text text-anchor="middle" x="1495.5" y="-172" font-family="Helvetica,sans-Serif" font-size="10.00">version.h</text>
</a>
</g>
</g>
<!-- Node2&#45;&gt;Node4 -->
<g id="edge3_Node000002_Node000004" class="edge">
<title>Node2&#45;&gt;Node4</title>
<g id="a_edge3_Node000002_Node000004"><a xlink:title=" ">
<path fill="none" stroke="#63b8ff" d="M1537.24,-219.75C1530.04,-212.11 1519.39,-200.82 1510.65,-191.56"/>
<polygon fill="#63b8ff" stroke="#63b8ff" points="1513.01,-188.96 1503.6,-184.09 1507.92,-193.76 1513.01,-188.96"/>
</a>
</g>
</g>
<!-- Node5 -->
<g id="Node000005" class="node">
<title>Node5</title>
<g id="a_Node000005"><a xlink:href="compat_8h.html" target="_top" xlink:title=" ">
<polygon fill="white" stroke="#666666" points="1646.5,-184 1544.5,-184 1544.5,-165 1646.5,-165 1646.5,-184"/>
<text text-anchor="middle" x="1595.5" y="-172" font-family="Helvetica,sans-Serif" font-size="10.00">compat/compat.h</text>
</a>
</g>
</g>
<!-- Node2&#45;&gt;Node5 -->
<g id="edge4_Node000002_Node000005" class="edge">
<title>Node2&#45;&gt;Node5</title>
<g id="a_edge4_Node000002_Node000005"><a xlink:title=" ">
<path fill="none" stroke="#63b8ff" d="M1553.76,-219.75C1560.96,-212.11 1571.61,-200.82 1580.35,-191.56"/>
<polygon fill="#63b8ff" stroke="#63b8ff" points="1583.08,-193.76 1587.4,-184.09 1577.99,-188.96 1583.08,-193.76"/>
</a>
</g>
</g>
<!-- Node6 -->
<g id="Node000006" class="node">
<title>Node6</title>
<g id="a_Node000006"><a xlink:href="osdetect_8h.html" target="_top" xlink:title=" ">
<polygon fill="white" stroke="#666666" points="1462,-129 1355,-129 1355,-110 1462,-110 1462,-129"/>
<text text-anchor="middle" x="1408.5" y="-117" font-family="Helvetica,sans-Serif" font-size="10.00">compat/osdetect.h</text>
</a>
</g>
</g>
<!-- Node5&#45;&gt;Node6 -->
<g id="edge5_Node000005_Node000006" class="edge">
<title>Node5&#45;&gt;Node6</title>
<g id="a_edge5_Node000005_Node000006"><a xlink:title=" ">
<path fill="none" stroke="#63b8ff" d="M1565.46,-164.98C1533.79,-156.01 1483.73,-141.82 1448.69,-131.89"/>
<polygon fill="#63b8ff" stroke="#63b8ff" points="1449.36,-128.44 1438.78,-129.08 1447.45,-135.18 1449.36,-128.44"/>
</a>
</g>
</g>
<!-- Node7 -->
<g id="Node000007" class="node">
<title>Node7</title>
<g id="a_Node000007"><a xlink:href="fdsetsize_8h.html" target="_top" xlink:title=" ">
<polygon fill="white" stroke="#666666" points="1590.5,-129 1480.5,-129 1480.5,-110 1590.5,-110 1590.5,-129"/>
<text text-anchor="middle" x="1535.5" y="-117" font-family="Helvetica,sans-Serif" font-size="10.00">compat/fdsetsize.h</text>
</a>
</g>
</g>
<!-- Node5&#45;&gt;Node7 -->
<g id="edge6_Node000005_Node000007" class="edge">
<title>Node5&#45;&gt;Node7</title>
<g id="a_edge6_Node000005_Node000007"><a xlink:title=" ">
<path fill="none" stroke="#63b8ff" d="M1585.86,-164.98C1576.99,-157.15 1563.63,-145.34 1552.89,-135.86"/>
<polygon fill="#63b8ff" stroke="#63b8ff" points="1555.13,-133.17 1545.32,-129.17 1550.49,-138.41 1555.13,-133.17"/>
</a>
</g>
</g>
<!-- Node8 -->
<g id="Node000008" class="node">
<title>Node8</title>
<g id="a_Node000008"><a xlink:href="types_8h.html" target="_top" xlink:title=" ">
<polygon fill="#fff0f0" stroke="red" points="1700.5,-129 1608.5,-129 1608.5,-110 1700.5,-110 1700.5,-129"/>
<text text-anchor="middle" x="1654.5" y="-117" font-family="Helvetica,sans-Serif" font-size="10.00">compat/types.h</text>
</a>
</g>
</g>
<!-- Node5&#45;&gt;Node8 -->
<g id="edge7_Node000005_Node000008" class="edge">
<title>Node5&#45;&gt;Node8</title>
<g id="a_edge7_Node000005_Node000008"><a xlink:title=" ">
<path fill="none" stroke="#63b8ff" d="M1604.98,-164.98C1613.7,-157.15 1626.84,-145.34 1637.4,-135.86"/>
<polygon fill="#63b8ff" stroke="#63b8ff" points="1639.75,-138.46 1644.85,-129.17 1635.07,-133.25 1639.75,-138.46"/>
</a>
</g>
</g>
<!-- Node10 -->
<g id="Node000010" class="node">
<title>Node10</title>
<g id="a_Node000010"><a xlink:href="aix_8h.html" target="_top" xlink:title=" ">
<polygon fill="white" stroke="#666666" points="1814,-129 1719,-129 1719,-110 1814,-110 1814,-129"/>
<text text-anchor="middle" x="1766.5" y="-117" font-family="Helvetica,sans-Serif" font-size="10.00">compat/os/aix.h</text>
</a>
</g>
</g>
<!-- Node5&#45;&gt;Node10 -->
<g id="edge8_Node000005_Node000010" class="edge">
<title>Node5&#45;&gt;Node10</title>
<g id="a_edge8_Node000005_Node000010"><a xlink:title=" ">
<path fill="none" stroke="#63b8ff" d="M1622.97,-164.98C1651.68,-156.09 1696.92,-142.07 1728.92,-132.15"/>
<polygon fill="#63b8ff" stroke="#63b8ff" points="1730.3,-135.39 1738.81,-129.08 1728.22,-128.7 1730.3,-135.39"/>
</a>
</g>
</g>
<!-- Node11 -->
<g id="Node000011" class="node">
<title>Node11</title>
<g id="a_Node000011"><a xlink:href="android_8h.html" target="_top" xlink:title=" ">
<polygon fill="white" stroke="#666666" points="1948.5,-129 1832.5,-129 1832.5,-110 1948.5,-110 1948.5,-129"/>
<text text-anchor="middle" x="1890.5" y="-117" font-family="Helvetica,sans-Serif" font-size="10.00">compat/os/android.h</text>
</a>
</g>
</g>
<!-- Node5&#45;&gt;Node11 -->
<g id="edge9_Node000005_Node000011" class="edge">
<title>Node5&#45;&gt;Node11</title>
<g id="a_edge9_Node000005_Node000011"><a xlink:title=" ">
<path fill="none" stroke="#63b8ff" d="M1642.9,-164.98C1694.57,-155.7 1777.27,-140.84 1832.71,-130.88"/>
<polygon fill="#63b8ff" stroke="#63b8ff" points="1833.51,-134.3 1842.73,-129.08 1832.27,-127.41 1833.51,-134.3"/>
</a>
</g>
</g>
<!-- Node12 -->
<g id="Node000012" class="node">
<title>Node12</title>
<g id="a_Node000012"><a xlink:href="dragonfly_8h.html" target="_top" xlink:title=" ">
<polygon fill="white" stroke="#666666" points="2090.5,-129 1966.5,-129 1966.5,-110 2090.5,-110 2090.5,-129"/>
<text text-anchor="middle" x="2028.5" y="-117" font-family="Helvetica,sans-Serif" font-size="10.00">compat/os/dragonfly.h</text>
</a>
</g>
</g>
<!-- Node5&#45;&gt;Node12 -->
<g id="edge10_Node000005_Node000012" class="edge">
<title>Node5&#45;&gt;Node12</title>
<g id="a_edge10_Node000005_Node000012"><a xlink:title=" ">
<path fill="none" stroke="#63b8ff" d="M1646.87,-167.21C1723.69,-157.81 1868.8,-140.05 1956.27,-129.34"/>
<polygon fill="#63b8ff" stroke="#63b8ff" points="1956.88,-132.79 1966.38,-128.1 1956.03,-125.84 1956.88,-132.79"/>
</a>
</g>
</g>
<!-- Node13 -->
<g id="Node000013" class="node">
<title>Node13</title>
<g id="a_Node000013"><a xlink:href="freebsd_8h.html" target="_top" xlink:title=" ">
<polygon fill="white" stroke="#666666" points="2224.5,-129 2108.5,-129 2108.5,-110 2224.5,-110 2224.5,-129"/>
<text text-anchor="middle" x="2166.5" y="-117" font-family="Helvetica,sans-Serif" font-size="10.00">compat/os/freebsd.h</text>
</a>
</g>
</g>
<!-- Node5&#45;&gt;Node13 -->
<g id="edge11_Node000005_Node000013" class="edge">
<title>Node5&#45;&gt;Node13</title>
<g id="a_edge11_Node000005_Node000013"><a xlink:title=" ">
<path fill="none" stroke="#63b8ff" d="M1646.72,-169.63C1736.13,-162.72 1926.78,-147.37 2098.44,-129.08"/>
<polygon fill="#63b8ff" stroke="#63b8ff" points="2098.84,-132.55 2108.41,-128.01 2098.1,-125.59 2098.84,-132.55"/>
</a>
</g>
</g>
<!-- Node14 -->
<g id="Node000014" class="node">
<title>Node14</title>
<g id="a_Node000014"><a xlink:href="hpux_8h.html" target="_top" xlink:title=" ">
<polygon fill="white" stroke="#666666" points="2346.5,-129 2242.5,-129 2242.5,-110 2346.5,-110 2346.5,-129"/>
<text text-anchor="middle" x="2294.5" y="-117" font-family="Helvetica,sans-Serif" font-size="10.00">compat/os/hpux.h</text>
</a>
</g>
</g>
<!-- Node5&#45;&gt;Node14 -->
<g id="edge12_Node000005_Node000014" class="edge">
<title>Node5&#45;&gt;Node14</title>
<g id="a_edge12_Node000005_Node000014"><a xlink:title=" ">
<path fill="none" stroke="#63b8ff" d="M1646.88,-171.12C1753.82,-165.9 2008.35,-152.13 2232.32,-129.05"/>
<polygon fill="#63b8ff" stroke="#63b8ff" points="2232.7,-132.53 2242.29,-128.02 2231.98,-125.57 2232.7,-132.53"/>
</a>
</g>
</g>
<!-- Node15 -->
<g id="Node000015" class="node">
<title>Node15</title>
<g id="a_Node000015"><a xlink:href="linux_8h.html" target="_top" xlink:title=" ">
<polygon fill="white" stroke="#666666" points="2468.5,-129 2364.5,-129 2364.5,-110 2468.5,-110 2468.5,-129"/>
<text text-anchor="middle" x="2416.5" y="-117" font-family="Helvetica,sans-Serif" font-size="10.00">compat/os/linux.h</text>
</a>
</g>
</g>
<!-- Node5&#45;&gt;Node15 -->
<g id="edge13_Node000005_Node000015" class="edge">
<title>Node5&#45;&gt;Node15</title>
<g id="a_edge13_Node000005_Node000015"><a xlink:title=" ">
<path fill="none" stroke="#63b8ff" d="M1646.76,-171.91C1767.93,-167.86 2081.7,-155.58 2354.21,-129.05"/>
<polygon fill="#63b8ff" stroke="#63b8ff" points="2354.68,-132.52 2364.29,-128.05 2354,-125.55 2354.68,-132.52"/>
</a>
</g>
</g>
<!-- Node16 -->
<g id="Node000016" class="node">
<title>Node16</title>
<g id="a_Node000016"><a xlink:href="macosx_8h.html" target="_top" xlink:title=" ">
<polygon fill="white" stroke="#666666" points="2604.5,-129 2486.5,-129 2486.5,-110 2604.5,-110 2604.5,-129"/>
<text text-anchor="middle" x="2545.5" y="-117" font-family="Helvetica,sans-Serif" font-size="10.00">compat/os/macosx.h</text>
</a>
</g>
</g>
<!-- Node5&#45;&gt;Node16 -->
<g id="edge14_Node000005_Node000016" class="edge">
<title>Node5&#45;&gt;Node16</title>
<g id="a_edge14_Node000005_Node000016"><a xlink:title=" ">
<path fill="none" stroke="#63b8ff" d="M1646.79,-172.24C1781.17,-168.65 2154.72,-156.84 2476.21,-129.05"/>
<polygon fill="#63b8ff" stroke="#63b8ff" points="2476.53,-132.53 2486.19,-128.18 2475.92,-125.56 2476.53,-132.53"/>
</a>
</g>
</g>
<!-- Node17 -->
<g id="Node000017" class="node">
<title>Node17</title>
<g id="a_Node000017"><a xlink:href="mingw_8h.html" target="_top" xlink:title=" ">
<polygon fill="white" stroke="#666666" points="2734.5,-129 2622.5,-129 2622.5,-110 2734.5,-110 2734.5,-129"/>
<text text-anchor="middle" x="2678.5" y="-117" font-family="Helvetica,sans-Serif" font-size="10.00">compat/os/mingw.h</text>
</a>
</g>
</g>
<!-- Node5&#45;&gt;Node17 -->
<g id="edge15_Node000005_Node000017" class="edge">
<title>Node5&#45;&gt;Node17</title>
<g id="a_edge15_Node000005_Node000017"><a xlink:title=" ">
<path fill="none" stroke="#63b8ff" d="M1646.71,-172.82C1794.69,-170.54 2235.78,-161.37 2612.17,-129.04"/>
<polygon fill="#63b8ff" stroke="#63b8ff" points="2612.5,-132.52 2622.16,-128.17 2611.9,-125.55 2612.5,-132.52"/>
</a>
</g>
</g>
<!-- Node18 -->
<g id="Node000018" class="node">
<title>Node18</title>
<g id="a_Node000018"><a xlink:href="mswindows_8h.html" target="_top" xlink:title=" ">
<polygon fill="white" stroke="#666666" points="2890,-129 2753,-129 2753,-110 2890,-110 2890,-129"/>
<text text-anchor="middle" x="2821.5" y="-117" font-family="Helvetica,sans-Serif" font-size="10.00">compat/os/mswindows.h</text>
</a>
</g>
</g>
<!-- Node5&#45;&gt;Node18 -->
<g id="edge16_Node000005_Node000018" class="edge">
<title>Node5&#45;&gt;Node18</title>
<g id="a_edge16_Node000005_Node000018"><a xlink:title=" ">
<path fill="none" stroke="#63b8ff" d="M1646.78,-172.79C1806.98,-170.29 2312.57,-160.36 2742.48,-129.01"/>
<polygon fill="#63b8ff" stroke="#63b8ff" points="2742.9,-132.49 2752.62,-128.27 2742.39,-125.51 2742.9,-132.49"/>
</a>
</g>
</g>
<!-- Node19 -->
<g id="Node000019" class="node">
<title>Node19</title>
<g id="a_Node000019"><a xlink:href="netbsd_8h.html" target="_top" xlink:title=" ">
<polygon fill="white" stroke="#666666" points="3021,-129 2908,-129 2908,-110 3021,-110 3021,-129"/>
<text text-anchor="middle" x="2964.5" y="-117" font-family="Helvetica,sans-Serif" font-size="10.00">compat/os/netbsd.h</text>
</a>
</g>
</g>
<!-- Node5&#45;&gt;Node19 -->
<g id="edge17_Node000005_Node000019" class="edge">
<title>Node5&#45;&gt;Node19</title>
<g id="a_edge17_Node000005_Node000019"><a xlink:title=" ">
<path fill="none" stroke="#63b8ff" d="M1646.51,-173.48C1820.14,-173.04 2404.27,-168.58 2897.48,-128.99"/>
<polygon fill="#63b8ff" stroke="#63b8ff" points="2897.97,-132.46 2907.65,-128.17 2897.4,-125.48 2897.97,-132.46"/>
</a>
</g>
</g>
<!-- Node20 -->
<g id="Node000020" class="node">
<title>Node20</title>
<g id="a_Node000020"><a xlink:href="openbsd_8h.html" target="_top" xlink:title=" ">
<polygon fill="white" stroke="#666666" points="3160,-129 3039,-129 3039,-110 3160,-110 3160,-129"/>
<text text-anchor="middle" x="3099.5" y="-117" font-family="Helvetica,sans-Serif" font-size="10.00">compat/os/openbsd.h</text>
</a>
</g>
</g>
<!-- Node5&#45;&gt;Node20 -->
<g id="edge18_Node000005_Node000020" class="edge">
<title>Node5&#45;&gt;Node20</title>
<g id="a_edge18_Node000005_Node000020"><a xlink:title=" ">
<path fill="none" stroke="#63b8ff" d="M1646.71,-173.57C1831.53,-173.48 2481.62,-170.11 3028.76,-128.97"/>
<polygon fill="#63b8ff" stroke="#63b8ff" points="3029.12,-132.45 3038.83,-128.21 3028.59,-125.47 3029.12,-132.45"/>
</a>
</g>
</g>
<!-- Node21 -->
<g id="Node000021" class="node">
<title>Node21</title>
<g id="a_Node000021"><a xlink:href="os2_8h.html" target="_top" xlink:title=" ">
<polygon fill="white" stroke="#666666" points="97,-129 0,-129 0,-110 97,-110 97,-129"/>
<text text-anchor="middle" x="48.5" y="-117" font-family="Helvetica,sans-Serif" font-size="10.00">compat/os/os2.h</text>
</a>
</g>
</g>
<!-- Node5&#45;&gt;Node21 -->
<g id="edge19_Node000005_Node000021" class="edge">
<title>Node5&#45;&gt;Node21</title>
<g id="a_edge19_Node000005_Node000021"><a xlink:title=" ">
<path fill="none" stroke="#63b8ff" d="M1544.48,-165.86C1541.45,-165.54 1538.44,-165.24 1535.5,-165 905.77,-112.64 741.26,-182.4 107.49,-128.95"/>
<polygon fill="#63b8ff" stroke="#63b8ff" points="107.45,-125.43 97.18,-128.07 106.85,-132.4 107.45,-125.43"/>
</a>
</g>
</g>
<!-- Node22 -->
<g id="Node000022" class="node">
<title>Node22</title>
<g id="a_Node000022"><a xlink:href="qnx_8h.html" target="_top" xlink:title=" ">
<polygon fill="white" stroke="#666666" points="213.5,-129 115.5,-129 115.5,-110 213.5,-110 213.5,-129"/>
<text text-anchor="middle" x="164.5" y="-117" font-family="Helvetica,sans-Serif" font-size="10.00">compat/os/qnx.h</text>
</a>
</g>
</g>
<!-- Node5&#45;&gt;Node22 -->
<g id="edge20_Node000005_Node000022" class="edge">
<title>Node5&#45;&gt;Node22</title>
<g id="a_edge20_Node000005_Node000022"><a xlink:title=" ">
<path fill="none" stroke="#63b8ff" d="M1544.48,-165.87C1541.45,-165.54 1538.44,-165.25 1535.5,-165 957.2,-116.27 805.86,-178.67 223.84,-128.99"/>
<polygon fill="#63b8ff" stroke="#63b8ff" points="223.76,-125.47 213.5,-128.1 223.16,-132.44 223.76,-125.47"/>
</a>
</g>
</g>
<!-- Node23 -->
<g id="Node000023" class="node">
<title>Node23</title>
<g id="a_Node000023"><a xlink:href="solaris_8h.html" target="_top" xlink:title=" ">
<polygon fill="white" stroke="#666666" points="343.5,-129 231.5,-129 231.5,-110 343.5,-110 343.5,-129"/>
<text text-anchor="middle" x="287.5" y="-117" font-family="Helvetica,sans-Serif" font-size="10.00">compat/os/solaris.h</text>
</a>
</g>
</g>
<!-- Node5&#45;&gt;Node23 -->
<g id="edge21_Node000005_Node000023" class="edge">
<title>Node5&#45;&gt;Node23</title>
<g id="a_edge21_Node000005_Node000023"><a xlink:title=" ">
<path fill="none" stroke="#63b8ff" d="M1544.48,-165.88C1541.45,-165.55 1538.44,-165.25 1535.5,-165 1014.73,-120.33 878.55,-170.51 353.94,-129.02"/>
<polygon fill="#63b8ff" stroke="#63b8ff" points="354.08,-125.52 343.83,-128.22 353.52,-132.5 354.08,-125.52"/>
</a>
</g>
</g>
<!-- Node24 -->
<g id="Node000024" class="node">
<title>Node24</title>
<g id="a_Node000024"><a xlink:href="sunos_8h.html" target="_top" xlink:title=" ">
<polygon fill="white" stroke="#666666" points="469.5,-129 361.5,-129 361.5,-110 469.5,-110 469.5,-129"/>
<text text-anchor="middle" x="415.5" y="-117" font-family="Helvetica,sans-Serif" font-size="10.00">compat/os/sunos.h</text>
</a>
</g>
</g>
<!-- Node5&#45;&gt;Node24 -->
<g id="edge22_Node000005_Node000024" class="edge">
<title>Node5&#45;&gt;Node24</title>
<g id="a_edge22_Node000005_Node000024"><a xlink:title=" ">
<path fill="none" stroke="#63b8ff" d="M1544.48,-165.89C1541.44,-165.56 1538.43,-165.26 1535.5,-165 1070.56,-124.27 948.61,-167.85 479.84,-129.01"/>
<polygon fill="#63b8ff" stroke="#63b8ff" points="480.02,-125.52 469.76,-128.17 479.43,-132.49 480.02,-125.52"/>
</a>
</g>
</g>
<!-- Node25 -->
<g id="Node000025" class="node">
<title>Node25</title>
<g id="a_Node000025"><a xlink:href="assert_8h.html" target="_top" xlink:title=" ">
<polygon fill="white" stroke="#666666" points="583,-129 488,-129 488,-110 583,-110 583,-129"/>
<text text-anchor="middle" x="535.5" y="-117" font-family="Helvetica,sans-Serif" font-size="10.00">compat/assert.h</text>
</a>
</g>
</g>
<!-- Node5&#45;&gt;Node25 -->
<g id="edge23_Node000005_Node000025" class="edge">
<title>Node5&#45;&gt;Node25</title>
<g id="a_edge23_Node000005_Node000025"><a xlink:title=" ">
<path fill="none" stroke="#63b8ff" d="M1544.48,-165.91C1541.44,-165.57 1538.43,-165.26 1535.5,-165 1121.13,-127.84 1011.86,-167.34 593.3,-128.94"/>
<polygon fill="#63b8ff" stroke="#63b8ff" points="593.32,-125.43 583.04,-127.99 592.67,-132.4 593.32,-125.43"/>
</a>
</g>
</g>
<!-- Node26 -->
<g id="Node000026" class="node">
<title>Node26</title>
<g id="a_Node000026"><a xlink:href="compat__shared_8h.html" target="_top" xlink:title=" ">
<polygon fill="#fff0f0" stroke="red" points="741.5,-129 601.5,-129 601.5,-110 741.5,-110 741.5,-129"/>
<text text-anchor="middle" x="671.5" y="-117" font-family="Helvetica,sans-Serif" font-size="10.00">compat/compat_shared.h</text>
</a>
</g>
</g>
<!-- Node5&#45;&gt;Node26 -->
<g id="edge24_Node000005_Node000026" class="edge">
<title>Node5&#45;&gt;Node26</title>
<g id="a_edge24_Node000005_Node000026"><a xlink:title=" ">
<path fill="none" stroke="#63b8ff" d="M1544.48,-165.94C1541.44,-165.59 1538.43,-165.27 1535.5,-165 1191.07,-132.78 1100.45,-155.26 751.82,-129.05"/>
<polygon fill="#63b8ff" stroke="#63b8ff" points="751.93,-125.55 741.69,-128.28 751.4,-132.53 751.93,-125.55"/>
</a>
</g>
</g>
<!-- Node36 -->
<g id="Node000036" class="node">
<title>Node36</title>
<g id="a_Node000036"><a xlink:href="stdvarargs_8h.html" target="_top" xlink:title=" ">
<polygon fill="#fff0f0" stroke="red" points="877,-129 760,-129 760,-110 877,-110 877,-129"/>
<text text-anchor="middle" x="818.5" y="-117" font-family="Helvetica,sans-Serif" font-size="10.00">compat/stdvarargs.h</text>
</a>
</g>
</g>
<!-- Node5&#45;&gt;Node36 -->
<g id="edge25_Node000005_Node000036" class="edge">
<title>Node5&#45;&gt;Node36</title>
<g id="a_edge25_Node000005_Node000036"><a xlink:title=" ">
<path fill="none" stroke="#63b8ff" d="M1544.47,-165.97C1541.44,-165.62 1538.43,-165.29 1535.5,-165 1250.93,-137.01 1175.4,-154.8 887.63,-129.13"/>
<polygon fill="#63b8ff" stroke="#63b8ff" points="887.57,-125.61 877.3,-128.2 886.95,-132.58 887.57,-125.61"/>
</a>
</g>
</g>
<!-- Node38 -->
<g id="Node000038" class="node">
<title>Node38</title>
<g id="a_Node000038"><a xlink:href="stdio_8h.html" target="_top" xlink:title=" ">
<polygon fill="#fff0f0" stroke="red" points="984,-129 895,-129 895,-110 984,-110 984,-129"/>
<text text-anchor="middle" x="939.5" y="-117" font-family="Helvetica,sans-Serif" font-size="10.00">compat/stdio.h</text>
</a>
</g>
</g>
<!-- Node5&#45;&gt;Node38 -->
<g id="edge26_Node000005_Node000038" class="edge">
<title>Node5&#45;&gt;Node38</title>
<g id="a_edge26_Node000005_Node000038"><a xlink:title=" ">
<path fill="none" stroke="#63b8ff" d="M1544.47,-166.01C1541.44,-165.64 1538.43,-165.3 1535.5,-165 1298.22,-140.36 1234.56,-155.75 994.37,-129.11"/>
<polygon fill="#63b8ff" stroke="#63b8ff" points="994.61,-125.62 984.28,-127.98 993.83,-132.57 994.61,-125.62"/>
</a>
</g>
</g>
<!-- Node40 -->
<g id="Node000040" class="node">
<title>Node40</title>
<g id="a_Node000040"><a xlink:href="statvfs_8h.html" target="_top" xlink:title=" ">
<polygon fill="white" stroke="#666666" points="1101,-129 1002,-129 1002,-110 1101,-110 1101,-129"/>
<text text-anchor="middle" x="1051.5" y="-117" font-family="Helvetica,sans-Serif" font-size="10.00">compat/statvfs.h</text>
</a>
</g>
</g>
<!-- Node5&#45;&gt;Node40 -->
<g id="edge27_Node000005_Node000040" class="edge">
<title>Node5&#45;&gt;Node40</title>
<g id="a_edge27_Node000005_Node000040"><a xlink:title=" ">
<path fill="none" stroke="#63b8ff" d="M1544.46,-166.07C1541.43,-165.69 1538.43,-165.33 1535.5,-165 1349.92,-144.03 1299.95,-150.55 1111.12,-129.12"/>
<polygon fill="#63b8ff" stroke="#63b8ff" points="1111.48,-125.64 1101.15,-127.98 1110.68,-132.6 1111.48,-125.64"/>
</a>
</g>
</g>
<!-- Node41 -->
<g id="Node000041" class="node">
<title>Node41</title>
<g id="a_Node000041"><a xlink:href="debug_8h.html" target="_top" xlink:title=" ">
<polygon fill="white" stroke="#666666" points="1214,-129 1119,-129 1119,-110 1214,-110 1214,-129"/>
<text text-anchor="middle" x="1166.5" y="-117" font-family="Helvetica,sans-Serif" font-size="10.00">compat/debug.h</text>
</a>
</g>
</g>
<!-- Node5&#45;&gt;Node41 -->
<g id="edge28_Node000005_Node000041" class="edge">
<title>Node5&#45;&gt;Node41</title>
<g id="a_edge28_Node000005_Node000041"><a xlink:title=" ">
<path fill="none" stroke="#63b8ff" d="M1544.45,-166.17C1541.42,-165.77 1538.42,-165.37 1535.5,-165 1399.87,-147.6 1363.01,-147.5 1224.31,-129.2"/>
<polygon fill="#63b8ff" stroke="#63b8ff" points="1224.52,-125.7 1214.14,-127.85 1223.59,-132.64 1224.52,-125.7"/>
</a>
</g>
</g>
<!-- Node42 -->
<g id="Node000042" class="node">
<title>Node42</title>
<g id="a_Node000042"><a xlink:href="valgrind_8h.html" target="_top" xlink:title=" ">
<polygon fill="#fff0f0" stroke="red" points="1337,-129 1232,-129 1232,-110 1337,-110 1337,-129"/>
<text text-anchor="middle" x="1284.5" y="-117" font-family="Helvetica,sans-Serif" font-size="10.00">compat/valgrind.h</text>
</a>
</g>
</g>
<!-- Node5&#45;&gt;Node42 -->
<g id="edge29_Node000005_Node000042" class="edge">
<title>Node5&#45;&gt;Node42</title>
<g id="a_edge29_Node000005_Node000042"><a xlink:title=" ">
<path fill="none" stroke="#63b8ff" d="M1545.53,-164.98C1490.86,-155.67 1403.25,-140.74 1344.8,-130.78"/>
<polygon fill="#63b8ff" stroke="#63b8ff" points="1345.05,-127.27 1334.6,-129.04 1343.87,-134.17 1345.05,-127.27"/>
</a>
</g>
</g>
<!-- Node45 -->
<g id="Node000045" class="node">
<title>Node45</title>
<g id="a_Node000045"><a xlink:title=" ">
<polygon fill="#e0e0e0" stroke="#999999" points="3119.5,-19 3059.5,-19 3059.5,0 3119.5,0 3119.5,-19"/>
<text text-anchor="middle" x="3089.5" y="-7" font-family="Helvetica,sans-Serif" font-size="10.00">iostream</text>
</a>
</g>
</g>
<!-- Node44&#45;&gt;Node45 -->
<g id="edge31_Node000044_Node000045" class="edge">
<title>Node44&#45;&gt;Node45</title>
<g id="a_edge31_Node000044_Node000045"><a xlink:title=" ">
<path fill="none" stroke="#63b8ff" d="M2919.12,-54.98C2954.61,-45.72 3011.38,-30.89 3049.53,-20.93"/>
<polygon fill="#63b8ff" stroke="#63b8ff" points="3050.49,-24.3 3059.29,-18.39 3048.73,-17.53 3050.49,-24.3"/>
</a>
</g>
</g>
<!-- Node47 -->
<g id="Node000047" class="node">
<title>Node47</title>
<g id="a_Node000047"><a xlink:href="Storage_8h.html" target="_top" xlink:title=" ">
<polygon fill="white" stroke="#666666" points="3308,-129 3217,-129 3217,-110 3308,-110 3308,-129"/>
<text text-anchor="middle" x="3262.5" y="-117" font-family="Helvetica,sans-Serif" font-size="10.00">store/Storage.h</text>
</a>
</g>
</g>
<!-- Node46&#45;&gt;Node47 -->
<g id="edge33_Node000046_Node000047" class="edge">
<title>Node46&#45;&gt;Node47</title>
<g id="a_edge33_Node000046_Node000047"><a xlink:title=" ">
<path fill="none" stroke="#63b8ff" d="M3270.76,-219.66C3269.31,-202.17 3266.03,-162.8 3264.06,-139.27"/>
<polygon fill="#63b8ff" stroke="#63b8ff" points="3267.54,-138.83 3263.22,-129.16 3260.56,-139.41 3267.54,-138.83"/>
</a>
</g>
</g>
<!-- Node48 -->
<g id="Node000048" class="node">
<title>Node48</title>
<g id="a_Node000048"><a xlink:href="RefCount_8h.html" target="_top" xlink:title=" ">
<polygon fill="#fff0f0" stroke="red" points="3341,-74 3244,-74 3244,-55 3341,-55 3341,-74"/>
<text text-anchor="middle" x="3292.5" y="-62" font-family="Helvetica,sans-Serif" font-size="10.00">base/RefCount.h</text>
</a>
</g>
</g>
<!-- Node47&#45;&gt;Node48 -->
<g id="edge34_Node000047_Node000048" class="edge">
<title>Node47&#45;&gt;Node48</title>
<g id="a_edge34_Node000047_Node000048"><a xlink:title=" ">
<path fill="none" stroke="#63b8ff" d="M3267.45,-109.75C3271.56,-102.49 3277.53,-91.95 3282.6,-82.98"/>
<polygon fill="#63b8ff" stroke="#63b8ff" points="3285.76,-84.52 3287.64,-74.09 3279.67,-81.07 3285.76,-84.52"/>
</a>
</g>
</g>
<!-- Node51 -->
<g id="Node000051" class="node">
<title>Node51</title>
<g id="a_Node000051"><a xlink:href="RequestMethod_8h.html" target="_top" xlink:title=" ">
<polygon fill="#fff0f0" stroke="red" points="3069,-74 2944,-74 2944,-55 3069,-55 3069,-74"/>
<text text-anchor="middle" x="3006.5" y="-62" font-family="Helvetica,sans-Serif" font-size="10.00">http/RequestMethod.h</text>
</a>
</g>
</g>
<!-- Node47&#45;&gt;Node51 -->
<g id="edge36_Node000047_Node000051" class="edge">
<title>Node47&#45;&gt;Node51</title>
<g id="a_edge36_Node000047_Node000051"><a xlink:title=" ">
<path fill="none" stroke="#63b8ff" d="M3221.37,-109.98C3176.9,-100.78 3105.95,-86.09 3057.85,-76.13"/>
<polygon fill="#63b8ff" stroke="#63b8ff" points="3058.46,-72.68 3047.95,-74.08 3057.04,-79.54 3058.46,-72.68"/>
</a>
</g>
</g>
<!-- Node75 -->
<g id="Node000075" class="node">
<title>Node75</title>
<g id="a_Node000075"><a xlink:href="store_2forward_8h.html" target="_top" xlink:title=" ">
<polygon fill="white" stroke="#666666" points="3531,-19 3440,-19 3440,0 3531,0 3531,-19"/>
<text text-anchor="middle" x="3485.5" y="-7" font-family="Helvetica,sans-Serif" font-size="10.00">store/forward.h</text>
</a>
</g>
</g>
<!-- Node47&#45;&gt;Node75 -->
<g id="edge37_Node000047_Node000075" class="edge">
<title>Node47&#45;&gt;Node75</title>
<g id="a_edge37_Node000047_Node000075"><a xlink:title=" ">
<path fill="none" stroke="#63b8ff" d="M3216.85,-110.67C3178.68,-103.09 3128.6,-90.34 3116.5,-74 3111.47,-67.21 3110.9,-61.32 3116.5,-55 3136.91,-31.98 3331.77,-18.56 3429.78,-13.21"/>
<polygon fill="#63b8ff" stroke="#63b8ff" points="3430.01,-16.7 3439.81,-12.67 3429.64,-9.71 3430.01,-16.7"/>
</a>
</g>
</g>
<!-- Node73 -->
<g id="Node000073" class="node">
<title>Node73</title>
<g id="a_Node000073"><a xlink:href="store__key__md5_8h.html" target="_top" xlink:title=" ">
<polygon fill="#fff0f0" stroke="red" points="3225.5,-74 3125.5,-74 3125.5,-55 3225.5,-55 3225.5,-74"/>
<text text-anchor="middle" x="3175.5" y="-62" font-family="Helvetica,sans-Serif" font-size="10.00">store_key_md5.h</text>
</a>
</g>
</g>
<!-- Node47&#45;&gt;Node73 -->
<g id="edge38_Node000047_Node000073" class="edge">
<title>Node47&#45;&gt;Node73</title>
<g id="a_edge38_Node000047_Node000073"><a xlink:title=" ">
<path fill="none" stroke="#63b8ff" d="M3248.52,-109.98C3235.03,-101.77 3214.37,-89.18 3198.46,-79.49"/>
<polygon fill="#63b8ff" stroke="#63b8ff" points="3200.09,-76.38 3189.73,-74.17 3196.45,-82.36 3200.09,-76.38"/>
</a>
</g>
</g>
<!-- Node48&#45;&gt;Node45 -->
<g id="edge35_Node000048_Node000045" class="edge">
<title>Node48&#45;&gt;Node45</title>
<g id="a_edge35_Node000048_Node000045"><a xlink:title=" ">
<path fill="none" stroke="#63b8ff" d="M3259.88,-54.98C3224.39,-45.72 3167.62,-30.89 3129.47,-20.93"/>
<polygon fill="#63b8ff" stroke="#63b8ff" points="3130.27,-17.53 3119.71,-18.39 3128.51,-24.3 3130.27,-17.53"/>
</a>
</g>
</g>
<!-- Node73&#45;&gt;Node75 -->
<g id="edge39_Node000073_Node000075" class="edge">
<title>Node73&#45;&gt;Node75</title>
<g id="a_edge39_Node000073_Node000075"><a xlink:title=" ">
<path fill="none" stroke="#63b8ff" d="M3225.31,-54.98C3281.17,-45.43 3371.55,-29.98 3429.74,-20.03"/>
<polygon fill="#63b8ff" stroke="#63b8ff" points="3430.59,-23.44 3439.86,-18.3 3429.41,-16.54 3430.59,-23.44"/>
</a>
</g>
</g>
<!-- Node85 -->
<g id="Node000085" class="node">
<title>Node85</title>
<g id="a_Node000085"><a xlink:href="Controlled_8h.html" target="_top" xlink:title=" ">
<polygon fill="white" stroke="#666666" points="3457.5,-184 3353.5,-184 3353.5,-165 3457.5,-165 3457.5,-184"/>
<text text-anchor="middle" x="3405.5" y="-172" font-family="Helvetica,sans-Serif" font-size="10.00">store/Controlled.h</text>
</a>
</g>
</g>
<!-- Node84&#45;&gt;Node85 -->
<g id="edge41_Node000084_Node000085" class="edge">
<title>Node84&#45;&gt;Node85</title>
<g id="a_edge41_Node000084_Node000085"><a xlink:title=" ">
<path fill="none" stroke="#63b8ff" d="M3385.46,-219.75C3388.71,-212.57 3393.42,-202.18 3397.45,-193.27"/>
<polygon fill="#63b8ff" stroke="#63b8ff" points="3400.67,-194.64 3401.61,-184.09 3394.3,-191.75 3400.67,-194.64"/>
</a>
</g>
</g>
<!-- Node86 -->
<g id="Node000086" class="node">
<title>Node86</title>
<g id="a_Node000086"><a xlink:href="StoreIOState_8h.html" target="_top" xlink:title=" ">
<polygon fill="#fff0f0" stroke="red" points="3413,-129 3326,-129 3326,-110 3413,-110 3413,-129"/>
<text text-anchor="middle" x="3369.5" y="-117" font-family="Helvetica,sans-Serif" font-size="10.00">StoreIOState.h</text>
</a>
</g>
</g>
<!-- Node84&#45;&gt;Node86 -->
<g id="edge43_Node000084_Node000086" class="edge">
<title>Node84&#45;&gt;Node86</title>
<g id="a_edge43_Node000084_Node000086"><a xlink:title=" ">
<path fill="none" stroke="#63b8ff" d="M3371.06,-219.87C3362.08,-211.7 3349.76,-198.55 3344.5,-184 3338.73,-168.04 3347.24,-150.06 3355.86,-137.32"/>
<polygon fill="#63b8ff" stroke="#63b8ff" points="3358.83,-139.19 3361.96,-129.07 3353.2,-135.03 3358.83,-139.19"/>
</a>
</g>
</g>
<!-- Node85&#45;&gt;Node47 -->
<g id="edge42_Node000085_Node000047" class="edge">
<title>Node85&#45;&gt;Node47</title>
<g id="a_edge42_Node000085_Node000047"><a xlink:title=" ">
<path fill="none" stroke="#63b8ff" d="M3382.52,-164.98C3359,-156.27 3322.21,-142.63 3295.56,-132.75"/>
<polygon fill="#63b8ff" stroke="#63b8ff" points="3296.49,-129.36 3285.89,-129.17 3294.05,-135.93 3296.49,-129.36"/>
</a>
</g>
</g>
<!-- Node86&#45;&gt;Node48 -->
<g id="edge44_Node000086_Node000048" class="edge">
<title>Node86&#45;&gt;Node48</title>
<g id="a_edge44_Node000086_Node000048"><a xlink:title=" ">
<path fill="none" stroke="#63b8ff" d="M3357.13,-109.98C3345.41,-101.92 3327.58,-89.65 3313.61,-80.03"/>
<polygon fill="#63b8ff" stroke="#63b8ff" points="3315.32,-76.96 3305.1,-74.17 3311.35,-82.72 3315.32,-76.96"/>
</a>
</g>
</g>
<!-- Node86&#45;&gt;Node75 -->
<g id="edge46_Node000086_Node000075" class="edge">
<title>Node86&#45;&gt;Node75</title>
<g id="a_edge46_Node000086_Node000075"><a xlink:title=" ">
<path fill="none" stroke="#63b8ff" d="M3369.9,-109.61C3370.95,-96.23 3374.76,-70.8 3388.5,-55 3401.9,-39.59 3421.73,-29.2 3439.98,-22.37"/>
<polygon fill="#63b8ff" stroke="#63b8ff" points="3441.33,-25.61 3449.62,-19.02 3439.03,-19 3441.33,-25.61"/>
</a>
</g>
</g>
<!-- Node87 -->
<g id="Node000087" class="node">
<title>Node87</title>
<g id="a_Node000087"><a xlink:href="cbdata_8h.html" target="_top" xlink:title=" ">
<polygon fill="white" stroke="#666666" points="3457,-74 3398,-74 3398,-55 3457,-55 3457,-74"/>
<text text-anchor="middle" x="3427.5" y="-62" font-family="Helvetica,sans-Serif" font-size="10.00">cbdata.h</text>
</a>
</g>
</g>
<!-- Node86&#45;&gt;Node87 -->
<g id="edge45_Node000086_Node000087" class="edge">
<title>Node86&#45;&gt;Node87</title>
<g id="a_edge45_Node000086_Node000087"><a xlink:title=" ">
<path fill="none" stroke="#63b8ff" d="M3378.82,-109.98C3387.31,-102.23 3400.06,-90.58 3410.38,-81.14"/>
<polygon fill="#63b8ff" stroke="#63b8ff" points="3412.99,-83.5 3418.01,-74.17 3408.27,-78.33 3412.99,-83.5"/>
</a>
</g>
</g>
<!-- Node88&#45;&gt;Node75 -->
<g id="edge49_Node000088_Node000075" class="edge">
<title>Node88&#45;&gt;Node75</title>
<g id="a_edge49_Node000088_Node000075"><a xlink:title=" ">
<path fill="none" stroke="#63b8ff" d="M3477.81,-219.95C3478.99,-187.95 3483.14,-74.68 3484.81,-29.4"/>
<polygon fill="#63b8ff" stroke="#63b8ff" points="3488.31,-29.35 3485.18,-19.22 3481.32,-29.09 3488.31,-29.35"/>
</a>
</g>
</g>
<!-- Node88&#45;&gt;Node85 -->
<g id="edge48_Node000088_Node000085" class="edge">
<title>Node88&#45;&gt;Node85</title>
<g id="a_edge48_Node000088_Node000085"><a xlink:title=" ">
<path fill="none" stroke="#63b8ff" d="M3465.93,-219.98C3455.08,-212 3438.62,-199.88 3425.62,-190.31"/>
<polygon fill="#63b8ff" stroke="#63b8ff" points="3427.41,-187.28 3417.28,-184.17 3423.26,-192.92 3427.41,-187.28"/>
</a>
</g>
</g>
<!-- Node89&#45;&gt;Node75 -->
<g id="edge51_Node000089_Node000075" class="edge">
<title>Node89&#45;&gt;Node75</title>
<g id="a_edge51_Node000089_Node000075"><a xlink:title=" ">
<path fill="none" stroke="#63b8ff" d="M3556,-54.98C3543.1,-46.84 3523.4,-34.41 3508.1,-24.76"/>
<polygon fill="#63b8ff" stroke="#63b8ff" points="3509.57,-21.55 3499.24,-19.17 3505.83,-27.47 3509.57,-21.55"/>
</a>
</g>
</g>
<!-- Node90&#45;&gt;Node75 -->
<g id="edge54_Node000090_Node000075" class="edge">
<title>Node90&#45;&gt;Node75</title>
<g id="a_edge54_Node000090_Node000075"><a xlink:title=" ">
<path fill="none" stroke="#63b8ff" d="M3655.57,-219.66C3661.54,-191.77 3675.82,-104.58 3634.5,-55 3611.88,-27.87 3573.47,-16.84 3541.3,-12.55"/>
<polygon fill="#63b8ff" stroke="#63b8ff" points="3541.44,-9.05 3531.11,-11.38 3540.65,-16 3541.44,-9.05"/>
</a>
</g>
</g>
<!-- Node55 -->
<g id="Node000055" class="node">
<title>Node55</title>
<g id="a_Node000055"><a xlink:href="sbuf_2forward_8h.html" target="_top" xlink:title=" ">
<polygon fill="#fff0f0" stroke="red" points="3769,-184 3682,-184 3682,-165 3769,-165 3769,-184"/>
<text text-anchor="middle" x="3725.5" y="-172" font-family="Helvetica,sans-Serif" font-size="10.00">sbuf/forward.h</text>
</a>
</g>
</g>
<!-- Node90&#45;&gt;Node55 -->
<g id="edge53_Node000090_Node000055" class="edge">
<title>Node90&#45;&gt;Node55</title>
<g id="a_edge53_Node000090_Node000055"><a xlink:title=" ">
<path fill="none" stroke="#63b8ff" d="M3665.07,-219.98C3675.92,-212 3692.38,-199.88 3705.38,-190.31"/>
<polygon fill="#63b8ff" stroke="#63b8ff" points="3707.74,-192.92 3713.72,-184.17 3703.59,-187.28 3707.74,-192.92"/>
</a>
</g>
</g>
<!-- Node91&#45;&gt;Node75 -->
<g id="edge58_Node000091_Node000075" class="edge">
<title>Node91&#45;&gt;Node75</title>
<g id="a_edge58_Node000091_Node000075"><a xlink:title=" ">
<path fill="none" stroke="#63b8ff" d="M3927.32,-219.84C3942.84,-207.39 3966.67,-183.85 3953.5,-165 3905.29,-95.97 3654.6,-41.76 3541.25,-20.39"/>
<polygon fill="#63b8ff" stroke="#63b8ff" points="3541.85,-16.94 3531.38,-18.54 3540.56,-23.82 3541.85,-16.94"/>
</a>
</g>
</g>
<!-- Node92 -->
<g id="Node000092" class="node">
<title>Node92</title>
<g id="a_Node000092"><a xlink:href="HardFun_8h.html" target="_top" xlink:title=" ">
<polygon fill="white" stroke="#666666" points="4092.5,-184 4000.5,-184 4000.5,-165 4092.5,-165 4092.5,-184"/>
<text text-anchor="middle" x="4046.5" y="-172" font-family="Helvetica,sans-Serif" font-size="10.00">base/HardFun.h</text>
</a>
</g>
</g>
<!-- Node91&#45;&gt;Node92 -->
<g id="edge56_Node000091_Node000092" class="edge">
<title>Node91&#45;&gt;Node92</title>
<g id="a_edge56_Node000091_Node000092"><a xlink:title=" ">
<path fill="none" stroke="#63b8ff" d="M3936.55,-219.98C3957.91,-211.34 3991.2,-197.87 4015.56,-188.02"/>
<polygon fill="#63b8ff" stroke="#63b8ff" points="4017.11,-191.17 4025.07,-184.17 4014.49,-184.68 4017.11,-191.17"/>
</a>
</g>
</g>
<!-- Node93 -->
<g id="Node000093" class="node">
<title>Node93</title>
<g id="a_Node000093"><a xlink:href="ToCpp_8h.html" target="_top" xlink:title=" ">
<polygon fill="white" stroke="#666666" points="3868,-184 3787,-184 3787,-165 3868,-165 3868,-184"/>
<text text-anchor="middle" x="3827.5" y="-172" font-family="Helvetica,sans-Serif" font-size="10.00">base/ToCpp.h</text>
</a>
</g>
</g>
<!-- Node91&#45;&gt;Node93 -->
<g id="edge57_Node000091_Node000093" class="edge">
<title>Node91&#45;&gt;Node93</title>
<g id="a_edge57_Node000091_Node000093"><a xlink:title=" ">
<path fill="none" stroke="#63b8ff" d="M3901.36,-219.98C3887.71,-211.77 3866.81,-199.18 3850.72,-189.49"/>
<polygon fill="#63b8ff" stroke="#63b8ff" points="3852.27,-186.33 3841.9,-184.17 3848.66,-192.33 3852.27,-186.33"/>
</a>
</g>
</g>
<!-- Node94 -->
<g id="Node000094" class="node">
<title>Node94</title>
<g id="a_Node000094"><a xlink:title=" ">
<polygon fill="#e0e0e0" stroke="#999999" points="3944.5,-184 3886.5,-184 3886.5,-165 3944.5,-165 3944.5,-184"/>
<text text-anchor="middle" x="3915.5" y="-172" font-family="Helvetica,sans-Serif" font-size="10.00">memory</text>
</a>
</g>
</g>
<!-- Node91&#45;&gt;Node94 -->
<g id="edge59_Node000091_Node000094" class="edge">
<title>Node91&#45;&gt;Node94</title>
<g id="a_edge59_Node000091_Node000094"><a xlink:title=" ">
<path fill="none" stroke="#63b8ff" d="M3915.5,-219.75C3915.5,-212.8 3915.5,-202.85 3915.5,-194.13"/>
<polygon fill="#63b8ff" stroke="#63b8ff" points="3919,-194.09 3915.5,-184.09 3912,-194.09 3919,-194.09"/>
</a>
</g>
</g>
</g>
</svg>

<g id="navigator" transform="translate(0 0)" fill="#404254">
  <rect fill="#f2f5e9" fill-opacity="0.5" stroke="#606060" stroke-width=".5" x="0" y="0" width="60" height="60"/>
  <use id="zoomplus" xlink:href="#zoomPlus" x="17" y="9" onmousedown="handleZoom(evt,'in')"/>
  <use id="zoomminus" xlink:href="#zoomMin" x="42" y="9" onmousedown="handleZoom(evt,'out')"/>
  <use id="reset" xlink:href="#resetDef" x="30" y="36" onmousedown="handleReset()"/>
   <use id="arrowup" xlink:href="#arrowUp" x="0" y="0" onmousedown="handlePan(0,-1)"/>
  <use id="arrowright" xlink:href="#arrowRight" x="0" y="0" onmousedown="handlePan(1,0)"/>
  <use id="arrowdown" xlink:href="#arrowDown" x="0" y="0" onmousedown="handlePan(0,1)"/>
  <use id="arrowleft" xlink:href="#arrowLeft" x="0" y="0" onmousedown="handlePan(-1,0)"/>
</g>
<svg viewBox="0 0 15 15" width="100%" height="30px" preserveAspectRatio="xMaxYMin meet">
 <g id="arrow_out" transform="scale(0.3 0.3)">
  <a xlink:href="stub__libstore_8cc__incl_org.svg" target="_base">
   <rect id="button" ry="5" rx="5" y="6" x="6" height="38" width="38"
        fill="#f2f5e9" fill-opacity="0.5" stroke="#606060" stroke-width="1.0"/>
   <path id="arrow"
     d="M 11.500037,31.436501 C 11.940474,20.09759 22.043105,11.32322 32.158766,21.979434 L 37.068811,17.246167 C 37.068811,17.246167 37.088388,32 37.088388,32 L 22.160133,31.978069 C 22.160133,31.978069 26.997745,27.140456 26.997745,27.140456 C 18.528582,18.264221 13.291696,25.230495 11.500037,31.436501 z"
     style="fill:#404040;"/>
  </a>
 </g>
</svg>

<style type='text/css'>
<![CDATA[
[data-mouse-over-selected='false'] { opacity: 0.7; }
[data-mouse-over-selected='true']  { opacity: 1.0; }
]]>
</style>
<script type="application/ecmascript"><![CDATA[
document.addEventListener('DOMContentLoaded', (event) => {
  highlightEdges();
  highlightAdjacentNodes();
});
]]></script>
</svg>
