<?xml version="1.0" encoding="UTF-8" standalone="no"?>
<!DOCTYPE svg PUBLIC "-//W3C//DTD SVG 1.1//EN"
 "http://www.w3.org/Graphics/SVG/1.1/DTD/svg11.dtd">
<!-- Generated by graphviz version 2.43.0 (0)
 -->
<!-- Title: squid/src/tests/stub_store_rebuild.cc Pages: 1 -->
<!--zoomable 258 -->

<svg id="main" version="1.1" xmlns="http://www.w3.org/2000/svg" xmlns:xlink="http://www.w3.org/1999/xlink" xml:space="preserve" onload="init(evt)">
<style type="text/css"><![CDATA[
.node, .edge {opacity: 0.7;}
.node.selected, .edge.selected {opacity: 1;}
.edge:hover path { stroke: red; }
.edge:hover polygon { stroke: red; fill: red; }
]]></style>

<defs>
  <circle id="rim" cx="0" cy="0" r="7"/>
  <circle id="rim2" cx="0" cy="0" r="3.5"/>
  <g id="zoomPlus">
    <use xlink:href="#rim" fill="#404040"><set attributeName="fill" to="#808080" begin="zoomplus.mouseover" end="zoomplus.mouseout"/></use>
    <path d="M-4,0h8M0,-4v8" fill="none" stroke="white" stroke-width="1.5" pointer-events="none"/>
  </g>
  <g id="zoomMin">
    <use xlink:href="#rim" fill="#404040"><set attributeName="fill" to="#808080" begin="zoomminus.mouseover" end="zoomminus.mouseout"/></use>
    <path d="M-4,0h8" fill="none" stroke="white" stroke-width="1.5" pointer-events="none"/>
  </g>
  <g id="arrowUp" transform="translate(30 24)">
    <use xlink:href="#rim"/>
    <path pointer-events="none" fill="none" stroke="white" stroke-width="1.5" d="M0,-3.0v7 M-2.5,-0.5L0,-3.0L2.5,-0.5"/>
  </g>
  <g id="arrowRight" transform="rotate(90) translate(36 -43)">
    <use xlink:href="#rim"/>
    <path pointer-events="none" fill="none" stroke="white" stroke-width="1.5" d="M0,-3.0v7 M-2.5,-0.5L0,-3.0L2.5,-0.5"/>
  </g>
  <g id="arrowDown" transform="rotate(180) translate(-30 -48)">
    <use xlink:href="#rim"/>
    <path pointer-events="none" fill="none" stroke="white" stroke-width="1.5" d="M0,-3.0v7 M-2.5,-0.5L0,-3.0L2.5,-0.5"/>
  </g>
  <g id="arrowLeft" transform="rotate(270) translate(-36 17)">
    <use xlink:href="#rim"/>
    <path pointer-events="none" fill="none" stroke="white" stroke-width="1.5" d="M0,-3.0v7 M-2.5,-0.5L0,-3.0L2.5,-0.5"/>
  </g>
  <g id="resetDef">
    <use xlink:href="#rim2" fill="#404040"><set attributeName="fill" to="#808080" begin="reset.mouseover" end="reset.mouseout"/></use>
  </g>
</defs>
<script type="application/ecmascript">
var viewWidth = 3888;
var viewHeight = 258;
var sectionId = 'dynsection-0';
</script>
<script type="application/ecmascript" xlink:href="svg.min.js"/>
<svg id="graph" class="graph">
<g id="viewport">
<title>squid/src/tests/stub_store_rebuild.cc</title>
<!-- Node1 -->
<g id="Node000001" class="node">
<title>Node1</title>
<g id="a_Node000001"><a xlink:title=" ">
<polygon fill="#999999" stroke="#666666" points="3612.5,-250 3501.5,-250 3501.5,-220 3612.5,-220 3612.5,-250"/>
<text text-anchor="start" x="3509.5" y="-238" font-family="Helvetica,sans-Serif" font-size="10.00">squid/src/tests/stub</text>
<text text-anchor="middle" x="3557" y="-227" font-family="Helvetica,sans-Serif" font-size="10.00">_store_rebuild.cc</text>
</a>
</g>
</g>
<!-- Node2 -->
<g id="Node000002" class="node">
<title>Node2</title>
<g id="a_Node000002"><a xlink:href="squid_8h.html" target="_top" xlink:title=" ">
<polygon fill="white" stroke="#666666" points="2450,-184 2398,-184 2398,-165 2450,-165 2450,-184"/>
<text text-anchor="middle" x="2424" y="-172" font-family="Helvetica,sans-Serif" font-size="10.00">squid.h</text>
</a>
</g>
</g>
<!-- Node1&#45;&gt;Node2 -->
<g id="edge1_Node000001_Node000002" class="edge">
<title>Node1&#45;&gt;Node2</title>
<g id="a_edge1_Node000001_Node000002"><a xlink:title=" ">
<path fill="none" stroke="#63b8ff" d="M3501.2,-231.12C3301.37,-220.8 2624.63,-185.86 2460.22,-177.37"/>
<polygon fill="#63b8ff" stroke="#63b8ff" points="2460.3,-173.87 2450.14,-176.85 2459.94,-180.86 2460.3,-173.87"/>
</a>
</g>
</g>
<!-- Node44 -->
<g id="Node000044" class="node">
<title>Node44</title>
<g id="a_Node000044"><a xlink:href="MemBuf_8h.html" target="_top" xlink:title=" ">
<polygon fill="white" stroke="#666666" points="3335,-184 3269,-184 3269,-165 3335,-165 3335,-184"/>
<text text-anchor="middle" x="3302" y="-172" font-family="Helvetica,sans-Serif" font-size="10.00">MemBuf.h</text>
</a>
</g>
</g>
<!-- Node1&#45;&gt;Node44 -->
<g id="edge30_Node000001_Node000044" class="edge">
<title>Node1&#45;&gt;Node44</title>
<g id="a_edge30_Node000001_Node000044"><a xlink:title=" ">
<path fill="none" stroke="#63b8ff" d="M3501.35,-221.23C3454.41,-210.47 3388.18,-195.27 3345.16,-185.4"/>
<polygon fill="#63b8ff" stroke="#63b8ff" points="3345.82,-181.96 3335.29,-183.14 3344.25,-188.78 3345.82,-181.96"/>
</a>
</g>
</g>
<!-- Node50 -->
<g id="Node000050" class="node">
<title>Node50</title>
<g id="a_Node000050"><a xlink:href="Controller_8h.html" target="_top" xlink:title=" ">
<polygon fill="white" stroke="#666666" points="3607.5,-184 3506.5,-184 3506.5,-165 3607.5,-165 3607.5,-184"/>
<text text-anchor="middle" x="3557" y="-172" font-family="Helvetica,sans-Serif" font-size="10.00">store/Controller.h</text>
</a>
</g>
</g>
<!-- Node1&#45;&gt;Node50 -->
<g id="edge36_Node000001_Node000050" class="edge">
<title>Node1&#45;&gt;Node50</title>
<g id="a_edge36_Node000001_Node000050"><a xlink:title=" ">
<path fill="none" stroke="#63b8ff" d="M3557,-219.84C3557,-212.21 3557,-202.7 3557,-194.45"/>
<polygon fill="#63b8ff" stroke="#63b8ff" points="3560.5,-194.27 3557,-184.27 3553.5,-194.27 3560.5,-194.27"/>
</a>
</g>
</g>
<!-- Node86 -->
<g id="Node000086" class="node">
<title>Node86</title>
<g id="a_Node000086"><a xlink:href="store__rebuild_8h.html" target="_top" xlink:title=" ">
<polygon fill="white" stroke="#666666" points="3714.5,-184 3625.5,-184 3625.5,-165 3714.5,-165 3714.5,-184"/>
<text text-anchor="middle" x="3670" y="-172" font-family="Helvetica,sans-Serif" font-size="10.00">store_rebuild.h</text>
</a>
</g>
</g>
<!-- Node1&#45;&gt;Node86 -->
<g id="edge48_Node000001_Node000086" class="edge">
<title>Node1&#45;&gt;Node86</title>
<g id="a_edge48_Node000001_Node000086"><a xlink:title=" ">
<path fill="none" stroke="#63b8ff" d="M3584.07,-219.99C3602.25,-210.58 3626.07,-198.24 3644.02,-188.95"/>
<polygon fill="#63b8ff" stroke="#63b8ff" points="3646.04,-191.84 3653.31,-184.14 3642.82,-185.63 3646.04,-191.84"/>
</a>
</g>
</g>
<!-- Node87 -->
<g id="Node000087" class="node">
<title>Node87</title>
<g id="a_Node000087"><a xlink:href="time_2gadgets_8h.html" target="_top" xlink:title=" ">
<polygon fill="white" stroke="#666666" points="3488,-184 3398,-184 3398,-165 3488,-165 3488,-184"/>
<text text-anchor="middle" x="3443" y="-172" font-family="Helvetica,sans-Serif" font-size="10.00">time/gadgets.h</text>
</a>
</g>
</g>
<!-- Node1&#45;&gt;Node87 -->
<g id="edge50_Node000001_Node000087" class="edge">
<title>Node1&#45;&gt;Node87</title>
<g id="a_edge50_Node000001_Node000087"><a xlink:title=" ">
<path fill="none" stroke="#63b8ff" d="M3529.69,-219.99C3511.35,-210.58 3487.32,-198.24 3469.21,-188.95"/>
<polygon fill="#63b8ff" stroke="#63b8ff" points="3470.33,-185.59 3459.84,-184.14 3467.13,-191.82 3470.33,-185.59"/>
</a>
</g>
</g>
<!-- Node89 -->
<g id="Node000089" class="node">
<title>Node89</title>
<g id="a_Node000089"><a xlink:title=" ">
<polygon fill="#e0e0e0" stroke="#999999" points="3880,-184 3830,-184 3830,-165 3880,-165 3880,-184"/>
<text text-anchor="middle" x="3855" y="-172" font-family="Helvetica,sans-Serif" font-size="10.00">cstring</text>
</a>
</g>
</g>
<!-- Node1&#45;&gt;Node89 -->
<g id="edge53_Node000001_Node000089" class="edge">
<title>Node1&#45;&gt;Node89</title>
<g id="a_edge53_Node000001_Node000089"><a xlink:title=" ">
<path fill="none" stroke="#63b8ff" d="M3612.56,-224.44C3663.92,-215.39 3742.57,-200.97 3819.88,-184.15"/>
<polygon fill="#63b8ff" stroke="#63b8ff" points="3820.77,-187.54 3829.79,-181.98 3819.27,-180.7 3820.77,-187.54"/>
</a>
</g>
</g>
<!-- Node90 -->
<g id="Node000090" class="node">
<title>Node90</title>
<g id="a_Node000090"><a xlink:href="STUB_8h.html" target="_top" xlink:title=" ">
<polygon fill="white" stroke="#666666" points="3811.5,-184 3732.5,-184 3732.5,-165 3811.5,-165 3811.5,-184"/>
<text text-anchor="middle" x="3772" y="-172" font-family="Helvetica,sans-Serif" font-size="10.00">tests/STUB.h</text>
</a>
</g>
</g>
<!-- Node1&#45;&gt;Node90 -->
<g id="edge54_Node000001_Node000090" class="edge">
<title>Node1&#45;&gt;Node90</title>
<g id="a_edge54_Node000001_Node000090"><a xlink:title=" ">
<path fill="none" stroke="#63b8ff" d="M3608.5,-219.99C3645.92,-209.8 3695.91,-196.2 3730.73,-186.73"/>
<polygon fill="#63b8ff" stroke="#63b8ff" points="3731.83,-190.06 3740.56,-184.05 3730,-183.3 3731.83,-190.06"/>
</a>
</g>
</g>
<!-- Node3 -->
<g id="Node000003" class="node">
<title>Node3</title>
<g id="a_Node000003"><a xlink:href="autoconf_8h.html" target="_top" xlink:title=" ">
<polygon fill="white" stroke="#666666" points="2416,-129 2348,-129 2348,-110 2416,-110 2416,-129"/>
<text text-anchor="middle" x="2382" y="-117" font-family="Helvetica,sans-Serif" font-size="10.00">autoconf.h</text>
</a>
</g>
</g>
<!-- Node2&#45;&gt;Node3 -->
<g id="edge2_Node000002_Node000003" class="edge">
<title>Node2&#45;&gt;Node3</title>
<g id="a_edge2_Node000002_Node000003"><a xlink:title=" ">
<path fill="none" stroke="#63b8ff" d="M2417.06,-164.75C2411.13,-157.26 2402.43,-146.28 2395.18,-137.13"/>
<polygon fill="#63b8ff" stroke="#63b8ff" points="2397.76,-134.75 2388.81,-129.09 2392.27,-139.1 2397.76,-134.75"/>
</a>
</g>
</g>
<!-- Node4 -->
<g id="Node000004" class="node">
<title>Node4</title>
<g id="a_Node000004"><a xlink:href="version_8h.html" target="_top" xlink:title=" ">
<polygon fill="white" stroke="#666666" points="2496,-129 2434,-129 2434,-110 2496,-110 2496,-129"/>
<text text-anchor="middle" x="2465" y="-117" font-family="Helvetica,sans-Serif" font-size="10.00">version.h</text>
</a>
</g>
</g>
<!-- Node2&#45;&gt;Node4 -->
<g id="edge3_Node000002_Node000004" class="edge">
<title>Node2&#45;&gt;Node4</title>
<g id="a_edge3_Node000002_Node000004"><a xlink:title=" ">
<path fill="none" stroke="#63b8ff" d="M2430.77,-164.75C2436.56,-157.26 2445.06,-146.28 2452.14,-137.13"/>
<polygon fill="#63b8ff" stroke="#63b8ff" points="2455.01,-139.14 2458.36,-129.09 2449.47,-134.86 2455.01,-139.14"/>
</a>
</g>
</g>
<!-- Node5 -->
<g id="Node000005" class="node">
<title>Node5</title>
<g id="a_Node000005"><a xlink:href="compat_8h.html" target="_top" xlink:title=" ">
<polygon fill="white" stroke="#666666" points="1744,-129 1642,-129 1642,-110 1744,-110 1744,-129"/>
<text text-anchor="middle" x="1693" y="-117" font-family="Helvetica,sans-Serif" font-size="10.00">compat/compat.h</text>
</a>
</g>
</g>
<!-- Node2&#45;&gt;Node5 -->
<g id="edge4_Node000002_Node000005" class="edge">
<title>Node2&#45;&gt;Node5</title>
<g id="a_edge4_Node000002_Node000005"><a xlink:title=" ">
<path fill="none" stroke="#63b8ff" d="M2397.98,-171.61C2293.87,-164.07 1905.61,-135.91 1754.1,-124.93"/>
<polygon fill="#63b8ff" stroke="#63b8ff" points="1754.27,-121.43 1744.04,-124.2 1753.76,-128.41 1754.27,-121.43"/>
</a>
</g>
</g>
<!-- Node6 -->
<g id="Node000006" class="node">
<title>Node6</title>
<g id="a_Node000006"><a xlink:href="osdetect_8h.html" target="_top" xlink:title=" ">
<polygon fill="white" stroke="#666666" points="2275.5,-74 2168.5,-74 2168.5,-55 2275.5,-55 2275.5,-74"/>
<text text-anchor="middle" x="2222" y="-62" font-family="Helvetica,sans-Serif" font-size="10.00">compat/osdetect.h</text>
</a>
</g>
</g>
<!-- Node5&#45;&gt;Node6 -->
<g id="edge5_Node000005_Node000006" class="edge">
<title>Node5&#45;&gt;Node6</title>
<g id="a_edge5_Node000005_Node000006"><a xlink:title=" ">
<path fill="none" stroke="#63b8ff" d="M1744.1,-114.28C1828.08,-107.19 2000.8,-92.01 2158.07,-74.06"/>
<polygon fill="#63b8ff" stroke="#63b8ff" points="2158.87,-77.49 2168.4,-72.88 2158.07,-70.54 2158.87,-77.49"/>
</a>
</g>
</g>
<!-- Node7 -->
<g id="Node000007" class="node">
<title>Node7</title>
<g id="a_Node000007"><a xlink:href="fdsetsize_8h.html" target="_top" xlink:title=" ">
<polygon fill="white" stroke="#666666" points="2404,-74 2294,-74 2294,-55 2404,-55 2404,-74"/>
<text text-anchor="middle" x="2349" y="-62" font-family="Helvetica,sans-Serif" font-size="10.00">compat/fdsetsize.h</text>
</a>
</g>
</g>
<!-- Node5&#45;&gt;Node7 -->
<g id="edge6_Node000005_Node000007" class="edge">
<title>Node5&#45;&gt;Node7</title>
<g id="a_edge6_Node000005_Node000007"><a xlink:title=" ">
<path fill="none" stroke="#63b8ff" d="M1744.07,-115.6C1844.94,-109.67 2077.03,-95 2283.58,-73.98"/>
<polygon fill="#63b8ff" stroke="#63b8ff" points="2284.11,-77.44 2293.71,-72.94 2283.4,-70.48 2284.11,-77.44"/>
</a>
</g>
</g>
<!-- Node8 -->
<g id="Node000008" class="node">
<title>Node8</title>
<g id="a_Node000008"><a xlink:href="types_8h.html" target="_top" xlink:title=" ">
<polygon fill="#fff0f0" stroke="red" points="2514,-74 2422,-74 2422,-55 2514,-55 2514,-74"/>
<text text-anchor="middle" x="2468" y="-62" font-family="Helvetica,sans-Serif" font-size="10.00">compat/types.h</text>
</a>
</g>
</g>
<!-- Node5&#45;&gt;Node8 -->
<g id="edge7_Node000005_Node000008" class="edge">
<title>Node5&#45;&gt;Node8</title>
<g id="a_edge7_Node000005_Node000008"><a xlink:title=" ">
<path fill="none" stroke="#63b8ff" d="M1744.2,-116.95C1860.79,-113.06 2155.14,-101.3 2411.57,-74.05"/>
<polygon fill="#63b8ff" stroke="#63b8ff" points="2412.26,-77.5 2421.83,-72.95 2411.51,-70.54 2412.26,-77.5"/>
</a>
</g>
</g>
<!-- Node10 -->
<g id="Node000010" class="node">
<title>Node10</title>
<g id="a_Node000010"><a xlink:href="aix_8h.html" target="_top" xlink:title=" ">
<polygon fill="white" stroke="#666666" points="2627.5,-74 2532.5,-74 2532.5,-55 2627.5,-55 2627.5,-74"/>
<text text-anchor="middle" x="2580" y="-62" font-family="Helvetica,sans-Serif" font-size="10.00">compat/os/aix.h</text>
</a>
</g>
</g>
<!-- Node5&#45;&gt;Node10 -->
<g id="edge8_Node000005_Node000010" class="edge">
<title>Node5&#45;&gt;Node10</title>
<g id="a_edge8_Node000005_Node000010"><a xlink:title=" ">
<path fill="none" stroke="#63b8ff" d="M1744.13,-117.44C1872.9,-114.4 2221.1,-103.97 2522.21,-73.96"/>
<polygon fill="#63b8ff" stroke="#63b8ff" points="2522.86,-77.42 2532.46,-72.93 2522.16,-70.45 2522.86,-77.42"/>
</a>
</g>
</g>
<!-- Node11 -->
<g id="Node000011" class="node">
<title>Node11</title>
<g id="a_Node000011"><a xlink:href="android_8h.html" target="_top" xlink:title=" ">
<polygon fill="white" stroke="#666666" points="2762,-74 2646,-74 2646,-55 2762,-55 2762,-74"/>
<text text-anchor="middle" x="2704" y="-62" font-family="Helvetica,sans-Serif" font-size="10.00">compat/os/android.h</text>
</a>
</g>
</g>
<!-- Node5&#45;&gt;Node11 -->
<g id="edge9_Node000005_Node000011" class="edge">
<title>Node5&#45;&gt;Node11</title>
<g id="a_edge9_Node000005_Node000011"><a xlink:title=" ">
<path fill="none" stroke="#63b8ff" d="M1744.2,-117.47C1884.75,-114.36 2288.56,-103.41 2635.79,-73.93"/>
<polygon fill="#63b8ff" stroke="#63b8ff" points="2636.13,-77.42 2645.79,-73.08 2635.53,-70.44 2636.13,-77.42"/>
</a>
</g>
</g>
<!-- Node12 -->
<g id="Node000012" class="node">
<title>Node12</title>
<g id="a_Node000012"><a xlink:href="dragonfly_8h.html" target="_top" xlink:title=" ">
<polygon fill="white" stroke="#666666" points="2904,-74 2780,-74 2780,-55 2904,-55 2904,-74"/>
<text text-anchor="middle" x="2842" y="-62" font-family="Helvetica,sans-Serif" font-size="10.00">compat/os/dragonfly.h</text>
</a>
</g>
</g>
<!-- Node5&#45;&gt;Node12 -->
<g id="edge10_Node000005_Node000012" class="edge">
<title>Node5&#45;&gt;Node12</title>
<g id="a_edge10_Node000005_Node000012"><a xlink:title=" ">
<path fill="none" stroke="#63b8ff" d="M1744.15,-117.8C1897.76,-115.41 2368.67,-105.86 2769.64,-74.04"/>
<polygon fill="#63b8ff" stroke="#63b8ff" points="2770,-77.52 2779.69,-73.24 2769.44,-70.55 2770,-77.52"/>
</a>
</g>
</g>
<!-- Node13 -->
<g id="Node000013" class="node">
<title>Node13</title>
<g id="a_Node000013"><a xlink:href="freebsd_8h.html" target="_top" xlink:title=" ">
<polygon fill="white" stroke="#666666" points="3038,-74 2922,-74 2922,-55 3038,-55 3038,-74"/>
<text text-anchor="middle" x="2980" y="-62" font-family="Helvetica,sans-Serif" font-size="10.00">compat/os/freebsd.h</text>
</a>
</g>
</g>
<!-- Node5&#45;&gt;Node13 -->
<g id="edge11_Node000005_Node000013" class="edge">
<title>Node5&#45;&gt;Node13</title>
<g id="a_edge11_Node000005_Node000013"><a xlink:title=" ">
<path fill="none" stroke="#63b8ff" d="M1744.24,-118.27C1910.91,-117.19 2452.92,-110.94 2911.79,-74.01"/>
<polygon fill="#63b8ff" stroke="#63b8ff" points="2912.24,-77.49 2921.93,-73.19 2911.68,-70.51 2912.24,-77.49"/>
</a>
</g>
</g>
<!-- Node14 -->
<g id="Node000014" class="node">
<title>Node14</title>
<g id="a_Node000014"><a xlink:href="hpux_8h.html" target="_top" xlink:title=" ">
<polygon fill="white" stroke="#666666" points="3160,-74 3056,-74 3056,-55 3160,-55 3160,-74"/>
<text text-anchor="middle" x="3108" y="-62" font-family="Helvetica,sans-Serif" font-size="10.00">compat/os/hpux.h</text>
</a>
</g>
</g>
<!-- Node5&#45;&gt;Node14 -->
<g id="edge12_Node000005_Node000014" class="edge">
<title>Node5&#45;&gt;Node14</title>
<g id="a_edge12_Node000005_Node000014"><a xlink:title=" ">
<path fill="none" stroke="#63b8ff" d="M1744.18,-117.54C1956.13,-113.47 2766.62,-96.76 3045.7,-73.99"/>
<polygon fill="#63b8ff" stroke="#63b8ff" points="3046.12,-77.47 3055.8,-73.14 3045.54,-70.49 3046.12,-77.47"/>
</a>
</g>
</g>
<!-- Node15 -->
<g id="Node000015" class="node">
<title>Node15</title>
<g id="a_Node000015"><a xlink:href="linux_8h.html" target="_top" xlink:title=" ">
<polygon fill="white" stroke="#666666" points="104,-74 0,-74 0,-55 104,-55 104,-74"/>
<text text-anchor="middle" x="52" y="-62" font-family="Helvetica,sans-Serif" font-size="10.00">compat/os/linux.h</text>
</a>
</g>
</g>
<!-- Node5&#45;&gt;Node15 -->
<g id="edge13_Node000005_Node000015" class="edge">
<title>Node5&#45;&gt;Node15</title>
<g id="a_edge13_Node000005_Node000015"><a xlink:title=" ">
<path fill="none" stroke="#63b8ff" d="M1641.85,-117.82C1408.36,-114.6 441.39,-99.98 114.62,-74.01"/>
<polygon fill="#63b8ff" stroke="#63b8ff" points="114.45,-70.48 104.2,-73.16 113.88,-77.46 114.45,-70.48"/>
</a>
</g>
</g>
<!-- Node16 -->
<g id="Node000016" class="node">
<title>Node16</title>
<g id="a_Node000016"><a xlink:href="macosx_8h.html" target="_top" xlink:title=" ">
<polygon fill="white" stroke="#666666" points="240,-74 122,-74 122,-55 240,-55 240,-74"/>
<text text-anchor="middle" x="181" y="-62" font-family="Helvetica,sans-Serif" font-size="10.00">compat/os/macosx.h</text>
</a>
</g>
</g>
<!-- Node5&#45;&gt;Node16 -->
<g id="edge14_Node000005_Node000016" class="edge">
<title>Node5&#45;&gt;Node16</title>
<g id="a_edge14_Node000005_Node000016"><a xlink:title=" ">
<path fill="none" stroke="#63b8ff" d="M1641.75,-118.65C1456.06,-118.84 800.94,-116.31 250.43,-74.03"/>
<polygon fill="#63b8ff" stroke="#63b8ff" points="250.55,-70.53 240.3,-73.24 250.01,-77.51 250.55,-70.53"/>
</a>
</g>
</g>
<!-- Node17 -->
<g id="Node000017" class="node">
<title>Node17</title>
<g id="a_Node000017"><a xlink:href="mingw_8h.html" target="_top" xlink:title=" ">
<polygon fill="white" stroke="#666666" points="370,-74 258,-74 258,-55 370,-55 370,-74"/>
<text text-anchor="middle" x="314" y="-62" font-family="Helvetica,sans-Serif" font-size="10.00">compat/os/mingw.h</text>
</a>
</g>
</g>
<!-- Node5&#45;&gt;Node17 -->
<g id="edge15_Node000005_Node000017" class="edge">
<title>Node5&#45;&gt;Node17</title>
<g id="a_edge15_Node000005_Node000017"><a xlink:title=" ">
<path fill="none" stroke="#63b8ff" d="M1641.86,-118.53C1467.14,-118.28 877.66,-114.34 380.59,-74.04"/>
<polygon fill="#63b8ff" stroke="#63b8ff" points="380.59,-70.53 370.33,-73.2 380.02,-77.51 380.59,-70.53"/>
</a>
</g>
</g>
<!-- Node18 -->
<g id="Node000018" class="node">
<title>Node18</title>
<g id="a_Node000018"><a xlink:href="mswindows_8h.html" target="_top" xlink:title=" ">
<polygon fill="white" stroke="#666666" points="525.5,-74 388.5,-74 388.5,-55 525.5,-55 525.5,-74"/>
<text text-anchor="middle" x="457" y="-62" font-family="Helvetica,sans-Serif" font-size="10.00">compat/os/mswindows.h</text>
</a>
</g>
</g>
<!-- Node5&#45;&gt;Node18 -->
<g id="edge16_Node000005_Node000018" class="edge">
<title>Node5&#45;&gt;Node18</title>
<g id="a_edge16_Node000005_Node000018"><a xlink:title=" ">
<path fill="none" stroke="#63b8ff" d="M1641.8,-117.84C1480.7,-115.49 969.55,-105.91 536.05,-74.1"/>
<polygon fill="#63b8ff" stroke="#63b8ff" points="536.06,-70.59 525.82,-73.34 535.54,-77.57 536.06,-70.59"/>
</a>
</g>
</g>
<!-- Node19 -->
<g id="Node000019" class="node">
<title>Node19</title>
<g id="a_Node000019"><a xlink:href="netbsd_8h.html" target="_top" xlink:title=" ">
<polygon fill="white" stroke="#666666" points="656.5,-74 543.5,-74 543.5,-55 656.5,-55 656.5,-74"/>
<text text-anchor="middle" x="600" y="-62" font-family="Helvetica,sans-Serif" font-size="10.00">compat/os/netbsd.h</text>
</a>
</g>
</g>
<!-- Node5&#45;&gt;Node19 -->
<g id="edge17_Node000005_Node000019" class="edge">
<title>Node5&#45;&gt;Node19</title>
<g id="a_edge17_Node000005_Node000019"><a xlink:title=" ">
<path fill="none" stroke="#63b8ff" d="M1641.82,-117.85C1492.92,-115.64 1046.89,-106.64 666.78,-74.08"/>
<polygon fill="#63b8ff" stroke="#63b8ff" points="666.95,-70.58 656.69,-73.21 666.35,-77.55 666.95,-70.58"/>
</a>
</g>
</g>
<!-- Node20 -->
<g id="Node000020" class="node">
<title>Node20</title>
<g id="a_Node000020"><a xlink:href="openbsd_8h.html" target="_top" xlink:title=" ">
<polygon fill="white" stroke="#666666" points="795.5,-74 674.5,-74 674.5,-55 795.5,-55 795.5,-74"/>
<text text-anchor="middle" x="735" y="-62" font-family="Helvetica,sans-Serif" font-size="10.00">compat/os/openbsd.h</text>
</a>
</g>
</g>
<!-- Node5&#45;&gt;Node20 -->
<g id="edge18_Node000005_Node000020" class="edge">
<title>Node5&#45;&gt;Node20</title>
<g id="a_edge18_Node000005_Node000020"><a xlink:title=" ">
<path fill="none" stroke="#63b8ff" d="M1641.8,-117.24C1506.79,-113.63 1129.76,-101.75 805.61,-74.08"/>
<polygon fill="#63b8ff" stroke="#63b8ff" points="805.82,-70.58 795.56,-73.21 805.22,-77.56 805.82,-70.58"/>
</a>
</g>
</g>
<!-- Node21 -->
<g id="Node000021" class="node">
<title>Node21</title>
<g id="a_Node000021"><a xlink:href="os2_8h.html" target="_top" xlink:title=" ">
<polygon fill="white" stroke="#666666" points="910.5,-74 813.5,-74 813.5,-55 910.5,-55 910.5,-74"/>
<text text-anchor="middle" x="862" y="-62" font-family="Helvetica,sans-Serif" font-size="10.00">compat/os/os2.h</text>
</a>
</g>
</g>
<!-- Node5&#45;&gt;Node21 -->
<g id="edge19_Node000005_Node000021" class="edge">
<title>Node5&#45;&gt;Node21</title>
<g id="a_edge19_Node000005_Node000021"><a xlink:title=" ">
<path fill="none" stroke="#63b8ff" d="M1641.77,-117.11C1519.18,-113.45 1199.08,-101.9 920.99,-74"/>
<polygon fill="#63b8ff" stroke="#63b8ff" points="921,-70.48 910.7,-72.95 920.29,-77.44 921,-70.48"/>
</a>
</g>
</g>
<!-- Node22 -->
<g id="Node000022" class="node">
<title>Node22</title>
<g id="a_Node000022"><a xlink:href="qnx_8h.html" target="_top" xlink:title=" ">
<polygon fill="white" stroke="#666666" points="1027,-74 929,-74 929,-55 1027,-55 1027,-74"/>
<text text-anchor="middle" x="978" y="-62" font-family="Helvetica,sans-Serif" font-size="10.00">compat/os/qnx.h</text>
</a>
</g>
</g>
<!-- Node5&#45;&gt;Node22 -->
<g id="edge20_Node000005_Node000022" class="edge">
<title>Node5&#45;&gt;Node22</title>
<g id="a_edge20_Node000005_Node000022"><a xlink:title=" ">
<path fill="none" stroke="#63b8ff" d="M1641.77,-116.39C1532.58,-111.6 1268.69,-98.46 1036.98,-74.02"/>
<polygon fill="#63b8ff" stroke="#63b8ff" points="1037.33,-70.53 1027.01,-72.96 1036.59,-77.5 1037.33,-70.53"/>
</a>
</g>
</g>
<!-- Node23 -->
<g id="Node000023" class="node">
<title>Node23</title>
<g id="a_Node000023"><a xlink:href="solaris_8h.html" target="_top" xlink:title=" ">
<polygon fill="white" stroke="#666666" points="1157,-74 1045,-74 1045,-55 1157,-55 1157,-74"/>
<text text-anchor="middle" x="1101" y="-62" font-family="Helvetica,sans-Serif" font-size="10.00">compat/os/solaris.h</text>
</a>
</g>
</g>
<!-- Node5&#45;&gt;Node23 -->
<g id="edge21_Node000005_Node000023" class="edge">
<title>Node5&#45;&gt;Node23</title>
<g id="a_edge21_Node000005_Node000023"><a xlink:title=" ">
<path fill="none" stroke="#63b8ff" d="M1641.68,-114.95C1549.06,-108.37 1347.59,-93.29 1166.95,-74.05"/>
<polygon fill="#63b8ff" stroke="#63b8ff" points="1167.32,-70.57 1157,-72.99 1166.57,-77.53 1167.32,-70.57"/>
</a>
</g>
</g>
<!-- Node24 -->
<g id="Node000024" class="node">
<title>Node24</title>
<g id="a_Node000024"><a xlink:href="sunos_8h.html" target="_top" xlink:title=" ">
<polygon fill="white" stroke="#666666" points="1283,-74 1175,-74 1175,-55 1283,-55 1283,-74"/>
<text text-anchor="middle" x="1229" y="-62" font-family="Helvetica,sans-Serif" font-size="10.00">compat/os/sunos.h</text>
</a>
</g>
</g>
<!-- Node5&#45;&gt;Node24 -->
<g id="edge22_Node000005_Node000024" class="edge">
<title>Node5&#45;&gt;Node24</title>
<g id="a_edge22_Node000005_Node000024"><a xlink:title=" ">
<path fill="none" stroke="#63b8ff" d="M1642,-113.23C1567.71,-105.47 1425.14,-90.25 1293.55,-74.17"/>
<polygon fill="#63b8ff" stroke="#63b8ff" points="1293.64,-70.65 1283.29,-72.91 1292.79,-77.6 1293.64,-70.65"/>
</a>
</g>
</g>
<!-- Node25 -->
<g id="Node000025" class="node">
<title>Node25</title>
<g id="a_Node000025"><a xlink:href="assert_8h.html" target="_top" xlink:title=" ">
<polygon fill="white" stroke="#666666" points="1396.5,-74 1301.5,-74 1301.5,-55 1396.5,-55 1396.5,-74"/>
<text text-anchor="middle" x="1349" y="-62" font-family="Helvetica,sans-Serif" font-size="10.00">compat/assert.h</text>
</a>
</g>
</g>
<!-- Node5&#45;&gt;Node25 -->
<g id="edge23_Node000005_Node000025" class="edge">
<title>Node5&#45;&gt;Node25</title>
<g id="a_edge23_Node000005_Node000025"><a xlink:title=" ">
<path fill="none" stroke="#63b8ff" d="M1641.87,-110.62C1578.98,-100.93 1472.49,-84.53 1406.72,-74.39"/>
<polygon fill="#63b8ff" stroke="#63b8ff" points="1406.94,-70.89 1396.53,-72.82 1405.88,-77.8 1406.94,-70.89"/>
</a>
</g>
</g>
<!-- Node26 -->
<g id="Node000026" class="node">
<title>Node26</title>
<g id="a_Node000026"><a xlink:href="compat__shared_8h.html" target="_top" xlink:title=" ">
<polygon fill="#fff0f0" stroke="red" points="1555,-74 1415,-74 1415,-55 1555,-55 1555,-74"/>
<text text-anchor="middle" x="1485" y="-62" font-family="Helvetica,sans-Serif" font-size="10.00">compat/compat_shared.h</text>
</a>
</g>
</g>
<!-- Node5&#45;&gt;Node26 -->
<g id="edge24_Node000005_Node000026" class="edge">
<title>Node5&#45;&gt;Node26</title>
<g id="a_edge24_Node000005_Node000026"><a xlink:title=" ">
<path fill="none" stroke="#63b8ff" d="M1659.58,-109.98C1624.06,-100.93 1567.73,-86.58 1528.7,-76.64"/>
<polygon fill="#63b8ff" stroke="#63b8ff" points="1529.24,-73.16 1518.68,-74.08 1527.51,-79.94 1529.24,-73.16"/>
</a>
</g>
</g>
<!-- Node36 -->
<g id="Node000036" class="node">
<title>Node36</title>
<g id="a_Node000036"><a xlink:href="stdvarargs_8h.html" target="_top" xlink:title=" ">
<polygon fill="#fff0f0" stroke="red" points="1690.5,-74 1573.5,-74 1573.5,-55 1690.5,-55 1690.5,-74"/>
<text text-anchor="middle" x="1632" y="-62" font-family="Helvetica,sans-Serif" font-size="10.00">compat/stdvarargs.h</text>
</a>
</g>
</g>
<!-- Node5&#45;&gt;Node36 -->
<g id="edge25_Node000005_Node000036" class="edge">
<title>Node5&#45;&gt;Node36</title>
<g id="a_edge25_Node000005_Node000036"><a xlink:title=" ">
<path fill="none" stroke="#63b8ff" d="M1683.2,-109.98C1674.18,-102.15 1660.59,-90.34 1649.68,-80.86"/>
<polygon fill="#63b8ff" stroke="#63b8ff" points="1651.82,-78.09 1641.98,-74.17 1647.23,-83.37 1651.82,-78.09"/>
</a>
</g>
</g>
<!-- Node38 -->
<g id="Node000038" class="node">
<title>Node38</title>
<g id="a_Node000038"><a xlink:href="stdio_8h.html" target="_top" xlink:title=" ">
<polygon fill="#fff0f0" stroke="red" points="1797.5,-74 1708.5,-74 1708.5,-55 1797.5,-55 1797.5,-74"/>
<text text-anchor="middle" x="1753" y="-62" font-family="Helvetica,sans-Serif" font-size="10.00">compat/stdio.h</text>
</a>
</g>
</g>
<!-- Node5&#45;&gt;Node38 -->
<g id="edge26_Node000005_Node000038" class="edge">
<title>Node5&#45;&gt;Node38</title>
<g id="a_edge26_Node000005_Node000038"><a xlink:title=" ">
<path fill="none" stroke="#63b8ff" d="M1702.64,-109.98C1711.51,-102.15 1724.87,-90.34 1735.61,-80.86"/>
<polygon fill="#63b8ff" stroke="#63b8ff" points="1738.01,-83.41 1743.18,-74.17 1733.37,-78.17 1738.01,-83.41"/>
</a>
</g>
</g>
<!-- Node40 -->
<g id="Node000040" class="node">
<title>Node40</title>
<g id="a_Node000040"><a xlink:href="statvfs_8h.html" target="_top" xlink:title=" ">
<polygon fill="white" stroke="#666666" points="1914.5,-74 1815.5,-74 1815.5,-55 1914.5,-55 1914.5,-74"/>
<text text-anchor="middle" x="1865" y="-62" font-family="Helvetica,sans-Serif" font-size="10.00">compat/statvfs.h</text>
</a>
</g>
</g>
<!-- Node5&#45;&gt;Node40 -->
<g id="edge27_Node000005_Node000040" class="edge">
<title>Node5&#45;&gt;Node40</title>
<g id="a_edge27_Node000005_Node000040"><a xlink:title=" ">
<path fill="none" stroke="#63b8ff" d="M1720.63,-109.98C1749.51,-101.09 1795.01,-87.07 1827.2,-77.15"/>
<polygon fill="#63b8ff" stroke="#63b8ff" points="1828.62,-80.37 1837.15,-74.08 1826.56,-73.68 1828.62,-80.37"/>
</a>
</g>
</g>
<!-- Node41 -->
<g id="Node000041" class="node">
<title>Node41</title>
<g id="a_Node000041"><a xlink:href="debug_8h.html" target="_top" xlink:title=" ">
<polygon fill="white" stroke="#666666" points="2027.5,-74 1932.5,-74 1932.5,-55 2027.5,-55 2027.5,-74"/>
<text text-anchor="middle" x="1980" y="-62" font-family="Helvetica,sans-Serif" font-size="10.00">compat/debug.h</text>
</a>
</g>
</g>
<!-- Node5&#45;&gt;Node41 -->
<g id="edge28_Node000005_Node000041" class="edge">
<title>Node5&#45;&gt;Node41</title>
<g id="a_edge28_Node000005_Node000041"><a xlink:title=" ">
<path fill="none" stroke="#63b8ff" d="M1739.11,-109.98C1789.28,-100.72 1869.51,-85.9 1923.44,-75.94"/>
<polygon fill="#63b8ff" stroke="#63b8ff" points="1924.33,-79.34 1933.53,-74.08 1923.06,-72.46 1924.33,-79.34"/>
</a>
</g>
</g>
<!-- Node42 -->
<g id="Node000042" class="node">
<title>Node42</title>
<g id="a_Node000042"><a xlink:href="valgrind_8h.html" target="_top" xlink:title=" ">
<polygon fill="#fff0f0" stroke="red" points="2150.5,-74 2045.5,-74 2045.5,-55 2150.5,-55 2150.5,-74"/>
<text text-anchor="middle" x="2098" y="-62" font-family="Helvetica,sans-Serif" font-size="10.00">compat/valgrind.h</text>
</a>
</g>
</g>
<!-- Node5&#45;&gt;Node42 -->
<g id="edge29_Node000005_Node000042" class="edge">
<title>Node5&#45;&gt;Node42</title>
<g id="a_edge29_Node000005_Node000042"><a xlink:title=" ">
<path fill="none" stroke="#63b8ff" d="M1744.15,-111.98C1809.23,-103.66 1925.38,-88.72 2035.3,-74.08"/>
<polygon fill="#63b8ff" stroke="#63b8ff" points="2035.79,-77.55 2045.24,-72.76 2034.86,-70.61 2035.79,-77.55"/>
</a>
</g>
</g>
<!-- Node45 -->
<g id="Node000045" class="node">
<title>Node45</title>
<g id="a_Node000045"><a xlink:href="Packable_8h.html" target="_top" xlink:title=" ">
<polygon fill="white" stroke="#666666" points="3304.5,-129 3209.5,-129 3209.5,-110 3304.5,-110 3304.5,-129"/>
<text text-anchor="middle" x="3257" y="-117" font-family="Helvetica,sans-Serif" font-size="10.00">base/Packable.h</text>
</a>
</g>
</g>
<!-- Node44&#45;&gt;Node45 -->
<g id="edge31_Node000044_Node000045" class="edge">
<title>Node44&#45;&gt;Node45</title>
<g id="a_edge31_Node000044_Node000045"><a xlink:title=" ">
<path fill="none" stroke="#63b8ff" d="M3294.57,-164.75C3288.15,-157.18 3278.69,-146.05 3270.88,-136.84"/>
<polygon fill="#63b8ff" stroke="#63b8ff" points="3273.43,-134.45 3264.29,-129.09 3268.1,-138.98 3273.43,-134.45"/>
</a>
</g>
</g>
<!-- Node46 -->
<g id="Node000046" class="node">
<title>Node46</title>
<g id="a_Node000046"><a xlink:href="cbdata_8h.html" target="_top" xlink:title=" ">
<polygon fill="white" stroke="#666666" points="3381.5,-129 3322.5,-129 3322.5,-110 3381.5,-110 3381.5,-129"/>
<text text-anchor="middle" x="3352" y="-117" font-family="Helvetica,sans-Serif" font-size="10.00">cbdata.h</text>
</a>
</g>
</g>
<!-- Node44&#45;&gt;Node46 -->
<g id="edge32_Node000044_Node000046" class="edge">
<title>Node44&#45;&gt;Node46</title>
<g id="a_edge32_Node000044_Node000046"><a xlink:title=" ">
<path fill="none" stroke="#63b8ff" d="M3310.26,-164.75C3317.46,-157.11 3328.11,-145.82 3336.85,-136.56"/>
<polygon fill="#63b8ff" stroke="#63b8ff" points="3339.58,-138.76 3343.9,-129.09 3334.49,-133.96 3339.58,-138.76"/>
</a>
</g>
</g>
<!-- Node47 -->
<g id="Node000047" class="node">
<title>Node47</title>
<g id="a_Node000047"><a xlink:href="mem_2forward_8h.html" target="_top" xlink:title=" ">
<polygon fill="white" stroke="#666666" points="3191,-129 3099,-129 3099,-110 3191,-110 3191,-129"/>
<text text-anchor="middle" x="3145" y="-117" font-family="Helvetica,sans-Serif" font-size="10.00">mem/forward.h</text>
</a>
</g>
</g>
<!-- Node44&#45;&gt;Node47 -->
<g id="edge33_Node000044_Node000047" class="edge">
<title>Node44&#45;&gt;Node47</title>
<g id="a_edge33_Node000044_Node000047"><a xlink:title=" ">
<path fill="none" stroke="#63b8ff" d="M3276.78,-164.98C3250.64,-156.16 3209.6,-142.31 3180.27,-132.41"/>
<polygon fill="#63b8ff" stroke="#63b8ff" points="3181.02,-128.96 3170.42,-129.08 3178.78,-135.6 3181.02,-128.96"/>
</a>
</g>
</g>
<!-- Node48 -->
<g id="Node000048" class="node">
<title>Node48</title>
<g id="a_Node000048"><a xlink:href="AllocatorProxy_8h.html" target="_top" xlink:title=" ">
<polygon fill="white" stroke="#666666" points="3340,-74 3216,-74 3216,-55 3340,-55 3340,-74"/>
<text text-anchor="middle" x="3278" y="-62" font-family="Helvetica,sans-Serif" font-size="10.00">mem/AllocatorProxy.h</text>
</a>
</g>
</g>
<!-- Node47&#45;&gt;Node48 -->
<g id="edge34_Node000047_Node000048" class="edge">
<title>Node47&#45;&gt;Node48</title>
<g id="a_edge34_Node000047_Node000048"><a xlink:title=" ">
<path fill="none" stroke="#63b8ff" d="M3166.37,-109.98C3188.15,-101.3 3222.16,-87.75 3246.92,-77.88"/>
<polygon fill="#63b8ff" stroke="#63b8ff" points="3248.25,-81.12 3256.24,-74.17 3245.66,-74.62 3248.25,-81.12"/>
</a>
</g>
</g>
<!-- Node49 -->
<g id="Node000049" class="node">
<title>Node49</title>
<g id="a_Node000049"><a xlink:title=" ">
<polygon fill="#e0e0e0" stroke="#999999" points="3434,-19 3386,-19 3386,0 3434,0 3434,-19"/>
<text text-anchor="middle" x="3410" y="-7" font-family="Helvetica,sans-Serif" font-size="10.00">iosfwd</text>
</a>
</g>
</g>
<!-- Node47&#45;&gt;Node49 -->
<g id="edge35_Node000047_Node000049" class="edge">
<title>Node47&#45;&gt;Node49</title>
<g id="a_edge35_Node000047_Node000049"><a xlink:title=" ">
<path fill="none" stroke="#63b8ff" d="M3150.75,-109.97C3160.57,-96.13 3181.94,-68.9 3207,-55 3261.1,-24.98 3333.8,-15.21 3375.91,-12.03"/>
<polygon fill="#63b8ff" stroke="#63b8ff" points="3376.19,-15.52 3385.93,-11.36 3375.72,-8.54 3376.19,-15.52"/>
</a>
</g>
</g>
<!-- Node51 -->
<g id="Node000051" class="node">
<title>Node51</title>
<g id="a_Node000051"><a xlink:href="Storage_8h.html" target="_top" xlink:title=" ">
<polygon fill="white" stroke="#666666" points="3637.5,-129 3546.5,-129 3546.5,-110 3637.5,-110 3637.5,-129"/>
<text text-anchor="middle" x="3592" y="-117" font-family="Helvetica,sans-Serif" font-size="10.00">store/Storage.h</text>
</a>
</g>
</g>
<!-- Node50&#45;&gt;Node51 -->
<g id="edge37_Node000050_Node000051" class="edge">
<title>Node50&#45;&gt;Node51</title>
<g id="a_edge37_Node000050_Node000051"><a xlink:title=" ">
<path fill="none" stroke="#63b8ff" d="M3562.78,-164.75C3567.62,-157.42 3574.68,-146.73 3580.64,-137.7"/>
<polygon fill="#63b8ff" stroke="#63b8ff" points="3583.74,-139.36 3586.33,-129.09 3577.9,-135.5 3583.74,-139.36"/>
</a>
</g>
</g>
<!-- Node52 -->
<g id="Node000052" class="node">
<title>Node52</title>
<g id="a_Node000052"><a xlink:href="RefCount_8h.html" target="_top" xlink:title=" ">
<polygon fill="#fff0f0" stroke="red" points="3835.5,-74 3738.5,-74 3738.5,-55 3835.5,-55 3835.5,-74"/>
<text text-anchor="middle" x="3787" y="-62" font-family="Helvetica,sans-Serif" font-size="10.00">base/RefCount.h</text>
</a>
</g>
</g>
<!-- Node51&#45;&gt;Node52 -->
<g id="edge38_Node000051_Node000052" class="edge">
<title>Node51&#45;&gt;Node52</title>
<g id="a_edge38_Node000051_Node000052"><a xlink:title=" ">
<path fill="none" stroke="#63b8ff" d="M3623.33,-109.98C3656.49,-100.97 3709,-86.7 3745.56,-76.76"/>
<polygon fill="#63b8ff" stroke="#63b8ff" points="3746.69,-80.08 3755.42,-74.08 3744.86,-73.33 3746.69,-80.08"/>
</a>
</g>
</g>
<!-- Node56 -->
<g id="Node000056" class="node">
<title>Node56</title>
<g id="a_Node000056"><a xlink:href="RequestMethod_8h.html" target="_top" xlink:title=" ">
<polygon fill="#fff0f0" stroke="red" points="3563.5,-74 3438.5,-74 3438.5,-55 3563.5,-55 3563.5,-74"/>
<text text-anchor="middle" x="3501" y="-62" font-family="Helvetica,sans-Serif" font-size="10.00">http/RequestMethod.h</text>
</a>
</g>
</g>
<!-- Node51&#45;&gt;Node56 -->
<g id="edge40_Node000051_Node000056" class="edge">
<title>Node51&#45;&gt;Node56</title>
<g id="a_edge40_Node000051_Node000056"><a xlink:title=" ">
<path fill="none" stroke="#63b8ff" d="M3577.38,-109.98C3563.14,-101.69 3541.25,-88.94 3524.55,-79.22"/>
<polygon fill="#63b8ff" stroke="#63b8ff" points="3526.29,-76.18 3515.89,-74.17 3522.77,-82.23 3526.29,-76.18"/>
</a>
</g>
</g>
<!-- Node77 -->
<g id="Node000077" class="node">
<title>Node77</title>
<g id="a_Node000077"><a xlink:href="store_2forward_8h.html" target="_top" xlink:title=" ">
<polygon fill="white" stroke="#666666" points="3653.5,-19 3562.5,-19 3562.5,0 3653.5,0 3653.5,-19"/>
<text text-anchor="middle" x="3608" y="-7" font-family="Helvetica,sans-Serif" font-size="10.00">store/forward.h</text>
</a>
</g>
</g>
<!-- Node51&#45;&gt;Node77 -->
<g id="edge43_Node000051_Node000077" class="edge">
<title>Node51&#45;&gt;Node77</title>
<g id="a_edge43_Node000051_Node000077"><a xlink:title=" ">
<path fill="none" stroke="#63b8ff" d="M3593.31,-109.66C3595.9,-92.17 3601.73,-52.8 3605.22,-29.27"/>
<polygon fill="#63b8ff" stroke="#63b8ff" points="3608.71,-29.56 3606.72,-19.16 3601.79,-28.54 3608.71,-29.56"/>
</a>
</g>
</g>
<!-- Node75 -->
<g id="Node000075" class="node">
<title>Node75</title>
<g id="a_Node000075"><a xlink:href="store__key__md5_8h.html" target="_top" xlink:title=" ">
<polygon fill="white" stroke="#666666" points="3720,-74 3620,-74 3620,-55 3720,-55 3720,-74"/>
<text text-anchor="middle" x="3670" y="-62" font-family="Helvetica,sans-Serif" font-size="10.00">store_key_md5.h</text>
</a>
</g>
</g>
<!-- Node51&#45;&gt;Node75 -->
<g id="edge44_Node000051_Node000075" class="edge">
<title>Node51&#45;&gt;Node75</title>
<g id="a_edge44_Node000051_Node000075"><a xlink:title=" ">
<path fill="none" stroke="#63b8ff" d="M3604.53,-109.98C3616.4,-101.92 3634.46,-89.65 3648.61,-80.03"/>
<polygon fill="#63b8ff" stroke="#63b8ff" points="3650.94,-82.69 3657.24,-74.17 3647,-76.9 3650.94,-82.69"/>
</a>
</g>
</g>
<!-- Node54 -->
<g id="Node000054" class="node">
<title>Node54</title>
<g id="a_Node000054"><a xlink:title=" ">
<polygon fill="#e0e0e0" stroke="#999999" points="3855,-19 3795,-19 3795,0 3855,0 3855,-19"/>
<text text-anchor="middle" x="3825" y="-7" font-family="Helvetica,sans-Serif" font-size="10.00">iostream</text>
</a>
</g>
</g>
<!-- Node52&#45;&gt;Node54 -->
<g id="edge39_Node000052_Node000054" class="edge">
<title>Node52&#45;&gt;Node54</title>
<g id="a_edge39_Node000052_Node000054"><a xlink:title=" ">
<path fill="none" stroke="#63b8ff" d="M3793.27,-54.75C3798.59,-47.34 3806.36,-36.5 3812.88,-27.41"/>
<polygon fill="#63b8ff" stroke="#63b8ff" points="3815.86,-29.26 3818.84,-19.09 3810.17,-25.18 3815.86,-29.26"/>
</a>
</g>
</g>
<!-- Node56&#45;&gt;Node49 -->
<g id="edge42_Node000056_Node000049" class="edge">
<title>Node56&#45;&gt;Node49</title>
<g id="a_edge42_Node000056_Node000049"><a xlink:title=" ">
<path fill="none" stroke="#63b8ff" d="M3486.38,-54.98C3472.14,-46.69 3450.25,-33.94 3433.55,-24.22"/>
<polygon fill="#63b8ff" stroke="#63b8ff" points="3435.29,-21.18 3424.89,-19.17 3431.77,-27.23 3435.29,-21.18"/>
</a>
</g>
</g>
<!-- Node57 -->
<g id="Node000057" class="node">
<title>Node57</title>
<g id="a_Node000057"><a xlink:href="http_2forward_8h.html" target="_top" xlink:title=" ">
<polygon fill="#fff0f0" stroke="red" points="3544,-19 3458,-19 3458,0 3544,0 3544,-19"/>
<text text-anchor="middle" x="3501" y="-7" font-family="Helvetica,sans-Serif" font-size="10.00">http/forward.h</text>
</a>
</g>
</g>
<!-- Node56&#45;&gt;Node57 -->
<g id="edge41_Node000056_Node000057" class="edge">
<title>Node56&#45;&gt;Node57</title>
<g id="a_edge41_Node000056_Node000057"><a xlink:title=" ">
<path fill="none" stroke="#63b8ff" d="M3501,-54.75C3501,-47.8 3501,-37.85 3501,-29.13"/>
<polygon fill="#63b8ff" stroke="#63b8ff" points="3504.5,-29.09 3501,-19.09 3497.5,-29.09 3504.5,-29.09"/>
</a>
</g>
</g>
<!-- Node75&#45;&gt;Node57 -->
<g id="edge46_Node000075_Node000057" class="edge">
<title>Node75&#45;&gt;Node57</title>
<g id="a_edge46_Node000075_Node000057"><a xlink:title=" ">
<path fill="none" stroke="#63b8ff" d="M3642.85,-54.98C3614.47,-46.09 3569.77,-32.07 3538.14,-22.15"/>
<polygon fill="#63b8ff" stroke="#63b8ff" points="3538.95,-18.73 3528.37,-19.08 3536.86,-25.41 3538.95,-18.73"/>
</a>
</g>
</g>
<!-- Node75&#45;&gt;Node77 -->
<g id="edge47_Node000075_Node000077" class="edge">
<title>Node75&#45;&gt;Node77</title>
<g id="a_edge47_Node000075_Node000077"><a xlink:title=" ">
<path fill="none" stroke="#63b8ff" d="M3660.04,-54.98C3650.87,-47.15 3637.06,-35.34 3625.97,-25.86"/>
<polygon fill="#63b8ff" stroke="#63b8ff" points="3628.02,-23.01 3618.14,-19.17 3623.47,-28.33 3628.02,-23.01"/>
</a>
</g>
</g>
<!-- Node76 -->
<g id="Node000076" class="node">
<title>Node76</title>
<g id="a_Node000076"><a xlink:href="hash_8h.html" target="_top" xlink:title=" ">
<polygon fill="white" stroke="#666666" points="3720.5,-19 3671.5,-19 3671.5,0 3720.5,0 3720.5,-19"/>
<text text-anchor="middle" x="3696" y="-7" font-family="Helvetica,sans-Serif" font-size="10.00">hash.h</text>
</a>
</g>
</g>
<!-- Node75&#45;&gt;Node76 -->
<g id="edge45_Node000075_Node000076" class="edge">
<title>Node75&#45;&gt;Node76</title>
<g id="a_edge45_Node000075_Node000076"><a xlink:title=" ">
<path fill="none" stroke="#63b8ff" d="M3674.29,-54.75C3677.81,-47.57 3682.91,-37.18 3687.28,-28.27"/>
<polygon fill="#63b8ff" stroke="#63b8ff" points="3690.52,-29.61 3691.79,-19.09 3684.24,-26.53 3690.52,-29.61"/>
</a>
</g>
</g>
<!-- Node86&#45;&gt;Node75 -->
<g id="edge49_Node000086_Node000075" class="edge">
<title>Node86&#45;&gt;Node75</title>
<g id="a_edge49_Node000086_Node000075"><a xlink:title=" ">
<path fill="none" stroke="#63b8ff" d="M3670,-164.66C3670,-147.17 3670,-107.8 3670,-84.27"/>
<polygon fill="#63b8ff" stroke="#63b8ff" points="3673.5,-84.16 3670,-74.16 3666.5,-84.16 3673.5,-84.16"/>
</a>
</g>
</g>
<!-- Node87&#45;&gt;Node49 -->
<g id="edge52_Node000087_Node000049" class="edge">
<title>Node87&#45;&gt;Node49</title>
<g id="a_edge52_Node000087_Node000049"><a xlink:title=" ">
<path fill="none" stroke="#63b8ff" d="M3439.83,-164.74C3436.7,-155.84 3431.98,-141.61 3429,-129 3420.77,-94.15 3415.03,-52.68 3412.14,-29.19"/>
<polygon fill="#63b8ff" stroke="#63b8ff" points="3415.61,-28.73 3410.95,-19.21 3408.66,-29.55 3415.61,-28.73"/>
</a>
</g>
</g>
<!-- Node88 -->
<g id="Node000088" class="node">
<title>Node88</title>
<g id="a_Node000088"><a xlink:title=" ">
<polygon fill="#e0e0e0" stroke="#999999" points="3482,-129 3438,-129 3438,-110 3482,-110 3482,-129"/>
<text text-anchor="middle" x="3460" y="-117" font-family="Helvetica,sans-Serif" font-size="10.00">ctime</text>
</a>
</g>
</g>
<!-- Node87&#45;&gt;Node88 -->
<g id="edge51_Node000087_Node000088" class="edge">
<title>Node87&#45;&gt;Node88</title>
<g id="a_edge51_Node000087_Node000088"><a xlink:title=" ">
<path fill="none" stroke="#63b8ff" d="M3445.81,-164.75C3448.06,-157.72 3451.3,-147.62 3454.12,-138.84"/>
<polygon fill="#63b8ff" stroke="#63b8ff" points="3457.52,-139.68 3457.25,-129.09 3450.86,-137.54 3457.52,-139.68"/>
</a>
</g>
</g>
<!-- Node90&#45;&gt;Node54 -->
<g id="edge55_Node000090_Node000054" class="edge">
<title>Node90&#45;&gt;Node54</title>
<g id="a_edge55_Node000090_Node000054"><a xlink:title=" ">
<path fill="none" stroke="#63b8ff" d="M3781.53,-164.78C3798.26,-148.76 3832.33,-112.69 3845,-74 3850.1,-58.42 3843.41,-40.61 3836.43,-27.82"/>
<polygon fill="#63b8ff" stroke="#63b8ff" points="3839.37,-25.92 3831.22,-19.15 3833.37,-29.52 3839.37,-25.92"/>
</a>
</g>
</g>
</g>
</svg>

<g id="navigator" transform="translate(0 0)" fill="#404254">
  <rect fill="#f2f5e9" fill-opacity="0.5" stroke="#606060" stroke-width=".5" x="0" y="0" width="60" height="60"/>
  <use id="zoomplus" xlink:href="#zoomPlus" x="17" y="9" onmousedown="handleZoom(evt,'in')"/>
  <use id="zoomminus" xlink:href="#zoomMin" x="42" y="9" onmousedown="handleZoom(evt,'out')"/>
  <use id="reset" xlink:href="#resetDef" x="30" y="36" onmousedown="handleReset()"/>
   <use id="arrowup" xlink:href="#arrowUp" x="0" y="0" onmousedown="handlePan(0,-1)"/>
  <use id="arrowright" xlink:href="#arrowRight" x="0" y="0" onmousedown="handlePan(1,0)"/>
  <use id="arrowdown" xlink:href="#arrowDown" x="0" y="0" onmousedown="handlePan(0,1)"/>
  <use id="arrowleft" xlink:href="#arrowLeft" x="0" y="0" onmousedown="handlePan(-1,0)"/>
</g>
<svg viewBox="0 0 15 15" width="100%" height="30px" preserveAspectRatio="xMaxYMin meet">
 <g id="arrow_out" transform="scale(0.3 0.3)">
  <a xlink:href="stub__store__rebuild_8cc__incl_org.svg" target="_base">
   <rect id="button" ry="5" rx="5" y="6" x="6" height="38" width="38"
        fill="#f2f5e9" fill-opacity="0.5" stroke="#606060" stroke-width="1.0"/>
   <path id="arrow"
     d="M 11.500037,31.436501 C 11.940474,20.09759 22.043105,11.32322 32.158766,21.979434 L 37.068811,17.246167 C 37.068811,17.246167 37.088388,32 37.088388,32 L 22.160133,31.978069 C 22.160133,31.978069 26.997745,27.140456 26.997745,27.140456 C 18.528582,18.264221 13.291696,25.230495 11.500037,31.436501 z"
     style="fill:#404040;"/>
  </a>
 </g>
</svg>

<style type='text/css'>
<![CDATA[
[data-mouse-over-selected='false'] { opacity: 0.7; }
[data-mouse-over-selected='true']  { opacity: 1.0; }
]]>
</style>
<script type="application/ecmascript"><![CDATA[
document.addEventListener('DOMContentLoaded', (event) => {
  highlightEdges();
  highlightAdjacentNodes();
});
]]></script>
</svg>
