<?xml version="1.0" encoding="UTF-8" standalone="no"?>
<!DOCTYPE svg PUBLIC "-//W3C//DTD SVG 1.1//EN"
 "http://www.w3.org/Graphics/SVG/1.1/DTD/svg11.dtd">
<!-- Generated by graphviz version 2.43.0 (0)
 -->
<!-- Title: squid/src/tests/stub_ipcache.cc Pages: 1 -->
<svg width="3949pt" height="258pt"
 viewBox="0.00 0.00 3949.00 258.00" xmlns="http://www.w3.org/2000/svg" xmlns:xlink="http://www.w3.org/1999/xlink">
<g id="graph0" class="graph" transform="scale(1 1) rotate(0) translate(4 254)">
<title>squid/src/tests/stub_ipcache.cc</title>
<!-- Node1 -->
<g id="Node000001" class="node">
<title>Node1</title>
<g id="a_Node000001"><a xlink:title=" ">
<polygon fill="#999999" stroke="#666666" points="3243.5,-250 3132.5,-250 3132.5,-220 3243.5,-220 3243.5,-250"/>
<text text-anchor="start" x="3140.5" y="-238" font-family="Helvetica,sans-Serif" font-size="10.00">squid/src/tests/stub</text>
<text text-anchor="middle" x="3188" y="-227" font-family="Helvetica,sans-Serif" font-size="10.00">_ipcache.cc</text>
</a>
</g>
</g>
<!-- Node2 -->
<g id="Node000002" class="node">
<title>Node2</title>
<g id="a_Node000002"><a xlink:href="squid_8h.html" target="_top" xlink:title=" ">
<polygon fill="white" stroke="#666666" points="1652,-184 1600,-184 1600,-165 1652,-165 1652,-184"/>
<text text-anchor="middle" x="1626" y="-172" font-family="Helvetica,sans-Serif" font-size="10.00">squid.h</text>
</a>
</g>
</g>
<!-- Node1&#45;&gt;Node2 -->
<g id="edge1_Node000001_Node000002" class="edge">
<title>Node1&#45;&gt;Node2</title>
<g id="a_edge1_Node000001_Node000002"><a xlink:title=" ">
<path fill="none" stroke="#63b8ff" d="M3132.41,-231.92C2882.67,-222.56 1867.76,-184.55 1662.35,-176.86"/>
<polygon fill="#63b8ff" stroke="#63b8ff" points="1662.24,-173.35 1652.11,-176.48 1661.98,-180.35 1662.24,-173.35"/>
</a>
</g>
</g>
<!-- Node44 -->
<g id="Node000044" class="node">
<title>Node44</title>
<g id="a_Node000044"><a xlink:href="ipcache_8h.html" target="_top" xlink:title=" ">
<polygon fill="white" stroke="#666666" points="3435.5,-184 3372.5,-184 3372.5,-165 3435.5,-165 3435.5,-184"/>
<text text-anchor="middle" x="3404" y="-172" font-family="Helvetica,sans-Serif" font-size="10.00">ipcache.h</text>
</a>
</g>
</g>
<!-- Node1&#45;&gt;Node44 -->
<g id="edge35_Node000001_Node000044" class="edge">
<title>Node1&#45;&gt;Node44</title>
<g id="a_edge35_Node000001_Node000044"><a xlink:title=" ">
<path fill="none" stroke="#63b8ff" d="M3239.74,-219.99C3277.34,-209.8 3327.56,-196.2 3362.53,-186.73"/>
<polygon fill="#63b8ff" stroke="#63b8ff" points="3363.68,-190.05 3372.42,-184.05 3361.85,-183.29 3363.68,-190.05"/>
</a>
</g>
</g>
<!-- Node66 -->
<g id="Node000066" class="node">
<title>Node66</title>
<g id="a_Node000066"><a xlink:href="STUB_8h.html" target="_top" xlink:title=" ">
<polygon fill="white" stroke="#666666" points="3227.5,-184 3148.5,-184 3148.5,-165 3227.5,-165 3227.5,-184"/>
<text text-anchor="middle" x="3188" y="-172" font-family="Helvetica,sans-Serif" font-size="10.00">tests/STUB.h</text>
</a>
</g>
</g>
<!-- Node1&#45;&gt;Node66 -->
<g id="edge51_Node000001_Node000066" class="edge">
<title>Node1&#45;&gt;Node66</title>
<g id="a_edge51_Node000001_Node000066"><a xlink:title=" ">
<path fill="none" stroke="#63b8ff" d="M3188,-219.84C3188,-212.21 3188,-202.7 3188,-194.45"/>
<polygon fill="#63b8ff" stroke="#63b8ff" points="3191.5,-194.27 3188,-184.27 3184.5,-194.27 3191.5,-194.27"/>
</a>
</g>
</g>
<!-- Node3 -->
<g id="Node000003" class="node">
<title>Node3</title>
<g id="a_Node000003"><a xlink:href="autoconf_8h.html" target="_top" xlink:title=" ">
<polygon fill="white" stroke="#666666" points="1527,-129 1459,-129 1459,-110 1527,-110 1527,-129"/>
<text text-anchor="middle" x="1493" y="-117" font-family="Helvetica,sans-Serif" font-size="10.00">autoconf.h</text>
</a>
</g>
</g>
<!-- Node2&#45;&gt;Node3 -->
<g id="edge2_Node000002_Node000003" class="edge">
<title>Node2&#45;&gt;Node3</title>
<g id="a_edge2_Node000002_Node000003"><a xlink:title=" ">
<path fill="none" stroke="#63b8ff" d="M1604.63,-164.98C1582.85,-156.3 1548.84,-142.75 1524.08,-132.88"/>
<polygon fill="#63b8ff" stroke="#63b8ff" points="1525.34,-129.62 1514.76,-129.17 1522.75,-136.12 1525.34,-129.62"/>
</a>
</g>
</g>
<!-- Node4 -->
<g id="Node000004" class="node">
<title>Node4</title>
<g id="a_Node000004"><a xlink:href="version_8h.html" target="_top" xlink:title=" ">
<polygon fill="white" stroke="#666666" points="1607,-129 1545,-129 1545,-110 1607,-110 1607,-129"/>
<text text-anchor="middle" x="1576" y="-117" font-family="Helvetica,sans-Serif" font-size="10.00">version.h</text>
</a>
</g>
</g>
<!-- Node2&#45;&gt;Node4 -->
<g id="edge3_Node000002_Node000004" class="edge">
<title>Node2&#45;&gt;Node4</title>
<g id="a_edge3_Node000002_Node000004"><a xlink:title=" ">
<path fill="none" stroke="#63b8ff" d="M1617.74,-164.75C1610.54,-157.11 1599.89,-145.82 1591.15,-136.56"/>
<polygon fill="#63b8ff" stroke="#63b8ff" points="1593.51,-133.96 1584.1,-129.09 1588.42,-138.76 1593.51,-133.96"/>
</a>
</g>
</g>
<!-- Node5 -->
<g id="Node000005" class="node">
<title>Node5</title>
<g id="a_Node000005"><a xlink:href="compat_8h.html" target="_top" xlink:title=" ">
<polygon fill="white" stroke="#666666" points="1727,-129 1625,-129 1625,-110 1727,-110 1727,-129"/>
<text text-anchor="middle" x="1676" y="-117" font-family="Helvetica,sans-Serif" font-size="10.00">compat/compat.h</text>
</a>
</g>
</g>
<!-- Node2&#45;&gt;Node5 -->
<g id="edge4_Node000002_Node000005" class="edge">
<title>Node2&#45;&gt;Node5</title>
<g id="a_edge4_Node000002_Node000005"><a xlink:title=" ">
<path fill="none" stroke="#63b8ff" d="M1634.26,-164.75C1641.46,-157.11 1652.11,-145.82 1660.85,-136.56"/>
<polygon fill="#63b8ff" stroke="#63b8ff" points="1663.58,-138.76 1667.9,-129.09 1658.49,-133.96 1663.58,-138.76"/>
</a>
</g>
</g>
<!-- Node6 -->
<g id="Node000006" class="node">
<title>Node6</title>
<g id="a_Node000006"><a xlink:href="osdetect_8h.html" target="_top" xlink:title=" ">
<polygon fill="white" stroke="#666666" points="3031.5,-74 2924.5,-74 2924.5,-55 3031.5,-55 3031.5,-74"/>
<text text-anchor="middle" x="2978" y="-62" font-family="Helvetica,sans-Serif" font-size="10.00">compat/osdetect.h</text>
</a>
</g>
</g>
<!-- Node5&#45;&gt;Node6 -->
<g id="edge5_Node000005_Node000006" class="edge">
<title>Node5&#45;&gt;Node6</title>
<g id="a_edge5_Node000005_Node000006"><a xlink:title=" ">
<path fill="none" stroke="#63b8ff" d="M1727.15,-118.46C1895.45,-117.95 2447.35,-113.24 2914.44,-73.94"/>
<polygon fill="#63b8ff" stroke="#63b8ff" points="2914.75,-77.43 2924.42,-73.09 2914.16,-70.45 2914.75,-77.43"/>
</a>
</g>
</g>
<!-- Node7 -->
<g id="Node000007" class="node">
<title>Node7</title>
<g id="a_Node000007"><a xlink:href="fdsetsize_8h.html" target="_top" xlink:title=" ">
<polygon fill="white" stroke="#666666" points="3160,-74 3050,-74 3050,-55 3160,-55 3160,-74"/>
<text text-anchor="middle" x="3105" y="-62" font-family="Helvetica,sans-Serif" font-size="10.00">compat/fdsetsize.h</text>
</a>
</g>
</g>
<!-- Node5&#45;&gt;Node7 -->
<g id="edge6_Node000005_Node000007" class="edge">
<title>Node5&#45;&gt;Node7</title>
<g id="a_edge6_Node000005_Node000007"><a xlink:title=" ">
<path fill="none" stroke="#63b8ff" d="M1727.2,-118.62C1906.21,-118.68 2520.86,-115.68 3039.41,-73.94"/>
<polygon fill="#63b8ff" stroke="#63b8ff" points="3040.04,-77.4 3049.72,-73.1 3039.47,-70.42 3040.04,-77.4"/>
</a>
</g>
</g>
<!-- Node8 -->
<g id="Node000008" class="node">
<title>Node8</title>
<g id="a_Node000008"><a xlink:href="types_8h.html" target="_top" xlink:title=" ">
<polygon fill="white" stroke="#666666" points="92,-74 0,-74 0,-55 92,-55 92,-74"/>
<text text-anchor="middle" x="46" y="-62" font-family="Helvetica,sans-Serif" font-size="10.00">compat/types.h</text>
</a>
</g>
</g>
<!-- Node5&#45;&gt;Node8 -->
<g id="edge7_Node000005_Node000008" class="edge">
<title>Node5&#45;&gt;Node8</title>
<g id="a_edge7_Node000005_Node000008"><a xlink:title=" ">
<path fill="none" stroke="#63b8ff" d="M1624.98,-110.86C1621.95,-110.53 1618.94,-110.24 1616,-110 948.19,-54.95 773.67,-132.75 102.58,-74"/>
<polygon fill="#63b8ff" stroke="#63b8ff" points="102.43,-70.47 92.16,-73.08 101.81,-77.44 102.43,-70.47"/>
</a>
</g>
</g>
<!-- Node10 -->
<g id="Node000010" class="node">
<title>Node10</title>
<g id="a_Node000010"><a xlink:href="aix_8h.html" target="_top" xlink:title=" ">
<polygon fill="white" stroke="#666666" points="205.5,-74 110.5,-74 110.5,-55 205.5,-55 205.5,-74"/>
<text text-anchor="middle" x="158" y="-62" font-family="Helvetica,sans-Serif" font-size="10.00">compat/os/aix.h</text>
</a>
</g>
</g>
<!-- Node5&#45;&gt;Node10 -->
<g id="edge9_Node000005_Node000010" class="edge">
<title>Node5&#45;&gt;Node10</title>
<g id="a_edge9_Node000005_Node000010"><a xlink:title=" ">
<path fill="none" stroke="#63b8ff" d="M1624.98,-110.87C1621.95,-110.54 1618.94,-110.24 1616,-110 998.62,-58.51 837.25,-127.29 215.64,-73.91"/>
<polygon fill="#63b8ff" stroke="#63b8ff" points="215.8,-70.41 205.53,-73.03 215.19,-77.38 215.8,-70.41"/>
</a>
</g>
</g>
<!-- Node11 -->
<g id="Node000011" class="node">
<title>Node11</title>
<g id="a_Node000011"><a xlink:href="android_8h.html" target="_top" xlink:title=" ">
<polygon fill="white" stroke="#666666" points="340,-74 224,-74 224,-55 340,-55 340,-74"/>
<text text-anchor="middle" x="282" y="-62" font-family="Helvetica,sans-Serif" font-size="10.00">compat/os/android.h</text>
</a>
</g>
</g>
<!-- Node5&#45;&gt;Node11 -->
<g id="edge10_Node000005_Node000011" class="edge">
<title>Node5&#45;&gt;Node11</title>
<g id="a_edge10_Node000005_Node000011"><a xlink:title=" ">
<path fill="none" stroke="#63b8ff" d="M1624.98,-110.87C1621.95,-110.54 1618.94,-110.25 1616,-110 1057.96,-62.7 912.36,-116.86 350.06,-73.99"/>
<polygon fill="#63b8ff" stroke="#63b8ff" points="350.31,-70.5 340.07,-73.22 349.77,-77.48 350.31,-70.5"/>
</a>
</g>
</g>
<!-- Node12 -->
<g id="Node000012" class="node">
<title>Node12</title>
<g id="a_Node000012"><a xlink:href="dragonfly_8h.html" target="_top" xlink:title=" ">
<polygon fill="white" stroke="#666666" points="482,-74 358,-74 358,-55 482,-55 482,-74"/>
<text text-anchor="middle" x="420" y="-62" font-family="Helvetica,sans-Serif" font-size="10.00">compat/os/dragonfly.h</text>
</a>
</g>
</g>
<!-- Node5&#45;&gt;Node12 -->
<g id="edge11_Node000005_Node000012" class="edge">
<title>Node5&#45;&gt;Node12</title>
<g id="a_edge11_Node000005_Node000012"><a xlink:title=" ">
<path fill="none" stroke="#63b8ff" d="M1624.98,-110.89C1621.95,-110.55 1618.93,-110.25 1616,-110 1120.89,-67.14 991.53,-111.18 492.3,-74.02"/>
<polygon fill="#63b8ff" stroke="#63b8ff" points="492.54,-70.53 482.31,-73.27 492.02,-77.51 492.54,-70.53"/>
</a>
</g>
</g>
<!-- Node13 -->
<g id="Node000013" class="node">
<title>Node13</title>
<g id="a_Node000013"><a xlink:href="freebsd_8h.html" target="_top" xlink:title=" ">
<polygon fill="white" stroke="#666666" points="616,-74 500,-74 500,-55 616,-55 616,-74"/>
<text text-anchor="middle" x="558" y="-62" font-family="Helvetica,sans-Serif" font-size="10.00">compat/os/freebsd.h</text>
</a>
</g>
</g>
<!-- Node5&#45;&gt;Node13 -->
<g id="edge12_Node000005_Node000013" class="edge">
<title>Node5&#45;&gt;Node13</title>
<g id="a_edge12_Node000005_Node000013"><a xlink:title=" ">
<path fill="none" stroke="#63b8ff" d="M1624.98,-110.9C1621.94,-110.57 1618.93,-110.26 1616,-110 1180.31,-71.33 1066.01,-109.19 626.19,-74.01"/>
<polygon fill="#63b8ff" stroke="#63b8ff" points="626.32,-70.51 616.07,-73.19 625.76,-77.49 626.32,-70.51"/>
</a>
</g>
</g>
<!-- Node14 -->
<g id="Node000014" class="node">
<title>Node14</title>
<g id="a_Node000014"><a xlink:href="hpux_8h.html" target="_top" xlink:title=" ">
<polygon fill="white" stroke="#666666" points="738,-74 634,-74 634,-55 738,-55 738,-74"/>
<text text-anchor="middle" x="686" y="-62" font-family="Helvetica,sans-Serif" font-size="10.00">compat/os/hpux.h</text>
</a>
</g>
</g>
<!-- Node5&#45;&gt;Node14 -->
<g id="edge13_Node000005_Node000014" class="edge">
<title>Node5&#45;&gt;Node14</title>
<g id="a_edge13_Node000005_Node000014"><a xlink:title=" ">
<path fill="none" stroke="#63b8ff" d="M1624.98,-110.92C1621.94,-110.58 1618.93,-110.27 1616,-110 1234.34,-75.15 1133.71,-108.14 748.24,-74.01"/>
<polygon fill="#63b8ff" stroke="#63b8ff" points="748.48,-70.52 738.21,-73.11 747.85,-77.49 748.48,-70.52"/>
</a>
</g>
</g>
<!-- Node15 -->
<g id="Node000015" class="node">
<title>Node15</title>
<g id="a_Node000015"><a xlink:href="linux_8h.html" target="_top" xlink:title=" ">
<polygon fill="white" stroke="#666666" points="860,-74 756,-74 756,-55 860,-55 860,-74"/>
<text text-anchor="middle" x="808" y="-62" font-family="Helvetica,sans-Serif" font-size="10.00">compat/os/linux.h</text>
</a>
</g>
</g>
<!-- Node5&#45;&gt;Node15 -->
<g id="edge14_Node000005_Node000015" class="edge">
<title>Node5&#45;&gt;Node15</title>
<g id="a_edge14_Node000005_Node000015"><a xlink:title=" ">
<path fill="none" stroke="#63b8ff" d="M1624.97,-110.94C1621.94,-110.6 1618.93,-110.28 1616,-110 1288.49,-78.98 1201.71,-104.43 870.58,-74.05"/>
<polygon fill="#63b8ff" stroke="#63b8ff" points="870.49,-70.53 860.21,-73.09 869.84,-77.5 870.49,-70.53"/>
</a>
</g>
</g>
<!-- Node16 -->
<g id="Node000016" class="node">
<title>Node16</title>
<g id="a_Node000016"><a xlink:href="macosx_8h.html" target="_top" xlink:title=" ">
<polygon fill="white" stroke="#666666" points="996,-74 878,-74 878,-55 996,-55 996,-74"/>
<text text-anchor="middle" x="937" y="-62" font-family="Helvetica,sans-Serif" font-size="10.00">compat/os/macosx.h</text>
</a>
</g>
</g>
<!-- Node5&#45;&gt;Node16 -->
<g id="edge15_Node000005_Node000016" class="edge">
<title>Node5&#45;&gt;Node16</title>
<g id="a_edge15_Node000005_Node000016"><a xlink:title=" ">
<path fill="none" stroke="#63b8ff" d="M1624.97,-110.98C1621.94,-110.62 1618.93,-110.29 1616,-110 1348.63,-83.23 1277.61,-98.5 1006.46,-74.07"/>
<polygon fill="#63b8ff" stroke="#63b8ff" points="1006.59,-70.57 996.31,-73.15 1005.95,-77.54 1006.59,-70.57"/>
</a>
</g>
</g>
<!-- Node17 -->
<g id="Node000017" class="node">
<title>Node17</title>
<g id="a_Node000017"><a xlink:href="mingw_8h.html" target="_top" xlink:title=" ">
<polygon fill="white" stroke="#666666" points="1126,-74 1014,-74 1014,-55 1126,-55 1126,-74"/>
<text text-anchor="middle" x="1070" y="-62" font-family="Helvetica,sans-Serif" font-size="10.00">compat/os/mingw.h</text>
</a>
</g>
</g>
<!-- Node5&#45;&gt;Node17 -->
<g id="edge16_Node000005_Node000017" class="edge">
<title>Node5&#45;&gt;Node17</title>
<g id="a_edge16_Node000005_Node000017"><a xlink:title=" ">
<path fill="none" stroke="#63b8ff" d="M1624.97,-111.04C1621.93,-110.67 1618.93,-110.32 1616,-110 1406.09,-87.3 1349.94,-95.64 1136.31,-74.08"/>
<polygon fill="#63b8ff" stroke="#63b8ff" points="1136.65,-70.59 1126.35,-73.06 1135.94,-77.56 1136.65,-70.59"/>
</a>
</g>
</g>
<!-- Node18 -->
<g id="Node000018" class="node">
<title>Node18</title>
<g id="a_Node000018"><a xlink:href="mswindows_8h.html" target="_top" xlink:title=" ">
<polygon fill="white" stroke="#666666" points="1281.5,-74 1144.5,-74 1144.5,-55 1281.5,-55 1281.5,-74"/>
<text text-anchor="middle" x="1213" y="-62" font-family="Helvetica,sans-Serif" font-size="10.00">compat/os/mswindows.h</text>
</a>
</g>
</g>
<!-- Node5&#45;&gt;Node18 -->
<g id="edge17_Node000005_Node000018" class="edge">
<title>Node5&#45;&gt;Node18</title>
<g id="a_edge17_Node000005_Node000018"><a xlink:title=" ">
<path fill="none" stroke="#63b8ff" d="M1624.95,-111.16C1621.92,-110.76 1618.92,-110.37 1616,-110 1615,-109.87 1408.59,-87.09 1291.6,-74.18"/>
<polygon fill="#63b8ff" stroke="#63b8ff" points="1291.93,-70.69 1281.61,-73.07 1291.16,-77.65 1291.93,-70.69"/>
</a>
</g>
</g>
<!-- Node19 -->
<g id="Node000019" class="node">
<title>Node19</title>
<g id="a_Node000019"><a xlink:href="netbsd_8h.html" target="_top" xlink:title=" ">
<polygon fill="white" stroke="#666666" points="1412.5,-74 1299.5,-74 1299.5,-55 1412.5,-55 1412.5,-74"/>
<text text-anchor="middle" x="1356" y="-62" font-family="Helvetica,sans-Serif" font-size="10.00">compat/os/netbsd.h</text>
</a>
</g>
</g>
<!-- Node5&#45;&gt;Node19 -->
<g id="edge18_Node000005_Node000019" class="edge">
<title>Node5&#45;&gt;Node19</title>
<g id="a_edge18_Node000005_Node000019"><a xlink:title=" ">
<path fill="none" stroke="#63b8ff" d="M1624.94,-110.04C1568.56,-100.71 1477.81,-85.68 1417.55,-75.69"/>
<polygon fill="#63b8ff" stroke="#63b8ff" points="1417.84,-72.2 1407.41,-74.01 1416.7,-79.1 1417.84,-72.2"/>
</a>
</g>
</g>
<!-- Node20 -->
<g id="Node000020" class="node">
<title>Node20</title>
<g id="a_Node000020"><a xlink:href="openbsd_8h.html" target="_top" xlink:title=" ">
<polygon fill="white" stroke="#666666" points="1551.5,-74 1430.5,-74 1430.5,-55 1551.5,-55 1551.5,-74"/>
<text text-anchor="middle" x="1491" y="-62" font-family="Helvetica,sans-Serif" font-size="10.00">compat/os/openbsd.h</text>
</a>
</g>
</g>
<!-- Node5&#45;&gt;Node20 -->
<g id="edge19_Node000005_Node000020" class="edge">
<title>Node5&#45;&gt;Node20</title>
<g id="a_edge19_Node000005_Node000020"><a xlink:title=" ">
<path fill="none" stroke="#63b8ff" d="M1646.28,-109.98C1614.95,-101.01 1565.43,-86.82 1530.76,-76.89"/>
<polygon fill="#63b8ff" stroke="#63b8ff" points="1531.53,-73.47 1520.96,-74.08 1529.61,-80.2 1531.53,-73.47"/>
</a>
</g>
</g>
<!-- Node21 -->
<g id="Node000021" class="node">
<title>Node21</title>
<g id="a_Node000021"><a xlink:href="os2_8h.html" target="_top" xlink:title=" ">
<polygon fill="white" stroke="#666666" points="1666.5,-74 1569.5,-74 1569.5,-55 1666.5,-55 1666.5,-74"/>
<text text-anchor="middle" x="1618" y="-62" font-family="Helvetica,sans-Serif" font-size="10.00">compat/os/os2.h</text>
</a>
</g>
</g>
<!-- Node5&#45;&gt;Node21 -->
<g id="edge20_Node000005_Node000021" class="edge">
<title>Node5&#45;&gt;Node21</title>
<g id="a_edge20_Node000005_Node000021"><a xlink:title=" ">
<path fill="none" stroke="#63b8ff" d="M1666.68,-109.98C1658.19,-102.23 1645.44,-90.58 1635.12,-81.14"/>
<polygon fill="#63b8ff" stroke="#63b8ff" points="1637.23,-78.33 1627.49,-74.17 1632.51,-83.5 1637.23,-78.33"/>
</a>
</g>
</g>
<!-- Node22 -->
<g id="Node000022" class="node">
<title>Node22</title>
<g id="a_Node000022"><a xlink:href="qnx_8h.html" target="_top" xlink:title=" ">
<polygon fill="white" stroke="#666666" points="1783,-74 1685,-74 1685,-55 1783,-55 1783,-74"/>
<text text-anchor="middle" x="1734" y="-62" font-family="Helvetica,sans-Serif" font-size="10.00">compat/os/qnx.h</text>
</a>
</g>
</g>
<!-- Node5&#45;&gt;Node22 -->
<g id="edge21_Node000005_Node000022" class="edge">
<title>Node5&#45;&gt;Node22</title>
<g id="a_edge21_Node000005_Node000022"><a xlink:title=" ">
<path fill="none" stroke="#63b8ff" d="M1685.32,-109.98C1693.81,-102.23 1706.56,-90.58 1716.88,-81.14"/>
<polygon fill="#63b8ff" stroke="#63b8ff" points="1719.49,-83.5 1724.51,-74.17 1714.77,-78.33 1719.49,-83.5"/>
</a>
</g>
</g>
<!-- Node23 -->
<g id="Node000023" class="node">
<title>Node23</title>
<g id="a_Node000023"><a xlink:href="solaris_8h.html" target="_top" xlink:title=" ">
<polygon fill="white" stroke="#666666" points="1913,-74 1801,-74 1801,-55 1913,-55 1913,-74"/>
<text text-anchor="middle" x="1857" y="-62" font-family="Helvetica,sans-Serif" font-size="10.00">compat/os/solaris.h</text>
</a>
</g>
</g>
<!-- Node5&#45;&gt;Node23 -->
<g id="edge22_Node000005_Node000023" class="edge">
<title>Node5&#45;&gt;Node23</title>
<g id="a_edge22_Node000005_Node000023"><a xlink:title=" ">
<path fill="none" stroke="#63b8ff" d="M1705.08,-109.98C1735.6,-101.05 1783.76,-86.94 1817.66,-77.02"/>
<polygon fill="#63b8ff" stroke="#63b8ff" points="1819.08,-80.25 1827.69,-74.08 1817.11,-73.53 1819.08,-80.25"/>
</a>
</g>
</g>
<!-- Node24 -->
<g id="Node000024" class="node">
<title>Node24</title>
<g id="a_Node000024"><a xlink:href="sunos_8h.html" target="_top" xlink:title=" ">
<polygon fill="white" stroke="#666666" points="2039,-74 1931,-74 1931,-55 2039,-55 2039,-74"/>
<text text-anchor="middle" x="1985" y="-62" font-family="Helvetica,sans-Serif" font-size="10.00">compat/os/sunos.h</text>
</a>
</g>
</g>
<!-- Node5&#45;&gt;Node24 -->
<g id="edge23_Node000005_Node000024" class="edge">
<title>Node5&#45;&gt;Node24</title>
<g id="a_edge23_Node000005_Node000024"><a xlink:title=" ">
<path fill="none" stroke="#63b8ff" d="M1725.65,-109.98C1779.96,-100.67 1867.02,-85.74 1925.09,-75.78"/>
<polygon fill="#63b8ff" stroke="#63b8ff" points="1925.96,-79.18 1935.22,-74.04 1924.77,-72.28 1925.96,-79.18"/>
</a>
</g>
</g>
<!-- Node25 -->
<g id="Node000025" class="node">
<title>Node25</title>
<g id="a_Node000025"><a xlink:href="assert_8h.html" target="_top" xlink:title=" ">
<polygon fill="white" stroke="#666666" points="2152.5,-74 2057.5,-74 2057.5,-55 2152.5,-55 2152.5,-74"/>
<text text-anchor="middle" x="2105" y="-62" font-family="Helvetica,sans-Serif" font-size="10.00">compat/assert.h</text>
</a>
</g>
</g>
<!-- Node5&#45;&gt;Node25 -->
<g id="edge24_Node000005_Node000025" class="edge">
<title>Node5&#45;&gt;Node25</title>
<g id="a_edge24_Node000005_Node000025"><a xlink:title=" ">
<path fill="none" stroke="#63b8ff" d="M1727.21,-112.85C1797.02,-105.04 1926.26,-90.21 2047.25,-74.06"/>
<polygon fill="#63b8ff" stroke="#63b8ff" points="2047.98,-77.5 2057.43,-72.7 2047.05,-70.56 2047.98,-77.5"/>
</a>
</g>
</g>
<!-- Node26 -->
<g id="Node000026" class="node">
<title>Node26</title>
<g id="a_Node000026"><a xlink:href="compat__shared_8h.html" target="_top" xlink:title=" ">
<polygon fill="#fff0f0" stroke="red" points="2311,-74 2171,-74 2171,-55 2311,-55 2311,-74"/>
<text text-anchor="middle" x="2241" y="-62" font-family="Helvetica,sans-Serif" font-size="10.00">compat/compat_shared.h</text>
</a>
</g>
</g>
<!-- Node5&#45;&gt;Node26 -->
<g id="edge25_Node000005_Node000026" class="edge">
<title>Node5&#45;&gt;Node26</title>
<g id="a_edge25_Node000005_Node000026"><a xlink:title=" ">
<path fill="none" stroke="#63b8ff" d="M1727.35,-114.03C1814.08,-106.43 1995.39,-90.32 2160.42,-74.04"/>
<polygon fill="#63b8ff" stroke="#63b8ff" points="2161.16,-77.49 2170.77,-73.02 2160.47,-70.52 2161.16,-77.49"/>
</a>
</g>
</g>
<!-- Node36 -->
<g id="Node000036" class="node">
<title>Node36</title>
<g id="a_Node000036"><a xlink:href="stdvarargs_8h.html" target="_top" xlink:title=" ">
<polygon fill="#fff0f0" stroke="red" points="2446.5,-74 2329.5,-74 2329.5,-55 2446.5,-55 2446.5,-74"/>
<text text-anchor="middle" x="2388" y="-62" font-family="Helvetica,sans-Serif" font-size="10.00">compat/stdvarargs.h</text>
</a>
</g>
</g>
<!-- Node5&#45;&gt;Node36 -->
<g id="edge30_Node000005_Node000036" class="edge">
<title>Node5&#45;&gt;Node36</title>
<g id="a_edge30_Node000005_Node000036"><a xlink:title=" ">
<path fill="none" stroke="#63b8ff" d="M1727.01,-115.94C1834.41,-110.33 2092,-95.8 2319.3,-74.01"/>
<polygon fill="#63b8ff" stroke="#63b8ff" points="2319.8,-77.48 2329.42,-73.03 2319.13,-70.51 2319.8,-77.48"/>
</a>
</g>
</g>
<!-- Node38 -->
<g id="Node000038" class="node">
<title>Node38</title>
<g id="a_Node000038"><a xlink:href="stdio_8h.html" target="_top" xlink:title=" ">
<polygon fill="#fff0f0" stroke="red" points="2553.5,-74 2464.5,-74 2464.5,-55 2553.5,-55 2553.5,-74"/>
<text text-anchor="middle" x="2509" y="-62" font-family="Helvetica,sans-Serif" font-size="10.00">compat/stdio.h</text>
</a>
</g>
</g>
<!-- Node5&#45;&gt;Node38 -->
<g id="edge31_Node000005_Node000038" class="edge">
<title>Node5&#45;&gt;Node38</title>
<g id="a_edge31_Node000005_Node000038"><a xlink:title=" ">
<path fill="none" stroke="#63b8ff" d="M1727.18,-117.33C1850.49,-114.13 2173.87,-103.51 2454.3,-73.95"/>
<polygon fill="#63b8ff" stroke="#63b8ff" points="2454.68,-77.43 2464.26,-72.89 2453.94,-70.47 2454.68,-77.43"/>
</a>
</g>
</g>
<!-- Node40 -->
<g id="Node000040" class="node">
<title>Node40</title>
<g id="a_Node000040"><a xlink:href="statvfs_8h.html" target="_top" xlink:title=" ">
<polygon fill="white" stroke="#666666" points="2670.5,-74 2571.5,-74 2571.5,-55 2670.5,-55 2670.5,-74"/>
<text text-anchor="middle" x="2621" y="-62" font-family="Helvetica,sans-Serif" font-size="10.00">compat/statvfs.h</text>
</a>
</g>
</g>
<!-- Node5&#45;&gt;Node40 -->
<g id="edge32_Node000005_Node000040" class="edge">
<title>Node5&#45;&gt;Node40</title>
<g id="a_edge32_Node000005_Node000040"><a xlink:title=" ">
<path fill="none" stroke="#63b8ff" d="M1727.06,-117.59C1861.7,-114.85 2237.63,-104.89 2561.42,-73.95"/>
<polygon fill="#63b8ff" stroke="#63b8ff" points="2561.85,-77.42 2571.47,-72.98 2561.18,-70.45 2561.85,-77.42"/>
</a>
</g>
</g>
<!-- Node41 -->
<g id="Node000041" class="node">
<title>Node41</title>
<g id="a_Node000041"><a xlink:href="debug_8h.html" target="_top" xlink:title=" ">
<polygon fill="white" stroke="#666666" points="2783.5,-74 2688.5,-74 2688.5,-55 2783.5,-55 2783.5,-74"/>
<text text-anchor="middle" x="2736" y="-62" font-family="Helvetica,sans-Serif" font-size="10.00">compat/debug.h</text>
</a>
</g>
</g>
<!-- Node5&#45;&gt;Node41 -->
<g id="edge33_Node000005_Node000041" class="edge">
<title>Node5&#45;&gt;Node41</title>
<g id="a_edge33_Node000005_Node000041"><a xlink:title=" ">
<path fill="none" stroke="#63b8ff" d="M1727.01,-118.1C1873.37,-116.57 2307.37,-109.22 2678.33,-73.94"/>
<polygon fill="#63b8ff" stroke="#63b8ff" points="2678.84,-77.41 2688.46,-72.97 2678.17,-70.44 2678.84,-77.41"/>
</a>
</g>
</g>
<!-- Node42 -->
<g id="Node000042" class="node">
<title>Node42</title>
<g id="a_Node000042"><a xlink:href="valgrind_8h.html" target="_top" xlink:title=" ">
<polygon fill="#fff0f0" stroke="red" points="2906.5,-74 2801.5,-74 2801.5,-55 2906.5,-55 2906.5,-74"/>
<text text-anchor="middle" x="2854" y="-62" font-family="Helvetica,sans-Serif" font-size="10.00">compat/valgrind.h</text>
</a>
</g>
</g>
<!-- Node5&#45;&gt;Node42 -->
<g id="edge34_Node000005_Node000042" class="edge">
<title>Node5&#45;&gt;Node42</title>
<g id="a_edge34_Node000005_Node000042"><a xlink:title=" ">
<path fill="none" stroke="#63b8ff" d="M1727,-118.21C1884.04,-116.96 2374.29,-110.28 2791.13,-73.97"/>
<polygon fill="#63b8ff" stroke="#63b8ff" points="2791.62,-77.44 2801.27,-73.08 2791.01,-70.47 2791.62,-77.44"/>
</a>
</g>
</g>
<!-- Node9 -->
<g id="Node000009" class="node">
<title>Node9</title>
<g id="a_Node000009"><a xlink:title=" ">
<polygon fill="#e0e0e0" stroke="#999999" points="71,-19 21,-19 21,0 71,0 71,-19"/>
<text text-anchor="middle" x="46" y="-7" font-family="Helvetica,sans-Serif" font-size="10.00">cstdint</text>
</a>
</g>
</g>
<!-- Node8&#45;&gt;Node9 -->
<g id="edge8_Node000008_Node000009" class="edge">
<title>Node8&#45;&gt;Node9</title>
<g id="a_edge8_Node000008_Node000009"><a xlink:title=" ">
<path fill="none" stroke="#63b8ff" d="M46,-54.75C46,-47.8 46,-37.85 46,-29.13"/>
<polygon fill="#63b8ff" stroke="#63b8ff" points="49.5,-29.09 46,-19.09 42.5,-29.09 49.5,-29.09"/>
</a>
</g>
</g>
<!-- Node27 -->
<g id="Node000027" class="node">
<title>Node27</title>
<g id="a_Node000027"><a xlink:title=" ">
<polygon fill="#e0e0e0" stroke="#999999" points="2419.5,-19 2368.5,-19 2368.5,0 2419.5,0 2419.5,-19"/>
<text text-anchor="middle" x="2394" y="-7" font-family="Helvetica,sans-Serif" font-size="10.00">csignal</text>
</a>
</g>
</g>
<!-- Node26&#45;&gt;Node27 -->
<g id="edge26_Node000026_Node000027" class="edge">
<title>Node26&#45;&gt;Node27</title>
<g id="a_edge26_Node000026_Node000027"><a xlink:title=" ">
<path fill="none" stroke="#63b8ff" d="M2265.58,-54.98C2291.05,-46.16 2331.04,-32.31 2359.63,-22.41"/>
<polygon fill="#63b8ff" stroke="#63b8ff" points="2360.92,-25.66 2369.23,-19.08 2358.63,-19.05 2360.92,-25.66"/>
</a>
</g>
</g>
<!-- Node28 -->
<g id="Node000028" class="node">
<title>Node28</title>
<g id="a_Node000028"><a xlink:href="xalloc_8h.html" target="_top" xlink:title=" ">
<polygon fill="white" stroke="#666666" points="2126.5,-19 2031.5,-19 2031.5,0 2126.5,0 2126.5,-19"/>
<text text-anchor="middle" x="2079" y="-7" font-family="Helvetica,sans-Serif" font-size="10.00">compat/xalloc.h</text>
</a>
</g>
</g>
<!-- Node26&#45;&gt;Node28 -->
<g id="edge27_Node000026_Node000028" class="edge">
<title>Node26&#45;&gt;Node28</title>
<g id="a_edge27_Node000026_Node000028"><a xlink:title=" ">
<path fill="none" stroke="#63b8ff" d="M2214.97,-54.98C2187.89,-46.13 2145.29,-32.19 2114.99,-22.28"/>
<polygon fill="#63b8ff" stroke="#63b8ff" points="2115.82,-18.87 2105.23,-19.08 2113.65,-25.52 2115.82,-18.87"/>
</a>
</g>
</g>
<!-- Node29 -->
<g id="Node000029" class="node">
<title>Node29</title>
<g id="a_Node000029"><a xlink:href="xis_8h.html" target="_top" xlink:title=" ">
<polygon fill="#fff0f0" stroke="red" points="2225,-19 2145,-19 2145,0 2225,0 2225,-19"/>
<text text-anchor="middle" x="2185" y="-7" font-family="Helvetica,sans-Serif" font-size="10.00">compat/xis.h</text>
</a>
</g>
</g>
<!-- Node26&#45;&gt;Node29 -->
<g id="edge28_Node000026_Node000029" class="edge">
<title>Node26&#45;&gt;Node29</title>
<g id="a_edge28_Node000026_Node000029"><a xlink:title=" ">
<path fill="none" stroke="#63b8ff" d="M2232,-54.98C2223.81,-47.23 2211.49,-35.58 2201.53,-26.14"/>
<polygon fill="#63b8ff" stroke="#63b8ff" points="2203.83,-23.5 2194.16,-19.17 2199.02,-28.59 2203.83,-23.5"/>
</a>
</g>
</g>
<!-- Node31 -->
<g id="Node000031" class="node">
<title>Node31</title>
<g id="a_Node000031"><a xlink:href="xstrerror_8h.html" target="_top" xlink:title=" ">
<polygon fill="white" stroke="#666666" points="2350.5,-19 2243.5,-19 2243.5,0 2350.5,0 2350.5,-19"/>
<text text-anchor="middle" x="2297" y="-7" font-family="Helvetica,sans-Serif" font-size="10.00">compat/xstrerror.h</text>
</a>
</g>
</g>
<!-- Node26&#45;&gt;Node31 -->
<g id="edge29_Node000026_Node000031" class="edge">
<title>Node26&#45;&gt;Node31</title>
<g id="a_edge29_Node000026_Node000031"><a xlink:title=" ">
<path fill="none" stroke="#63b8ff" d="M2250,-54.98C2258.19,-47.23 2270.51,-35.58 2280.47,-26.14"/>
<polygon fill="#63b8ff" stroke="#63b8ff" points="2282.98,-28.59 2287.84,-19.17 2278.17,-23.5 2282.98,-28.59"/>
</a>
</g>
</g>
<!-- Node45 -->
<g id="Node000045" class="node">
<title>Node45</title>
<g id="a_Node000045"><a xlink:href="CbcPointer_8h.html" target="_top" xlink:title=" ">
<polygon fill="white" stroke="#666666" points="3797,-129 3693,-129 3693,-110 3797,-110 3797,-129"/>
<text text-anchor="middle" x="3745" y="-117" font-family="Helvetica,sans-Serif" font-size="10.00">base/CbcPointer.h</text>
</a>
</g>
</g>
<!-- Node44&#45;&gt;Node45 -->
<g id="edge36_Node000044_Node000045" class="edge">
<title>Node44&#45;&gt;Node45</title>
<g id="a_edge36_Node000044_Node000045"><a xlink:title=" ">
<path fill="none" stroke="#63b8ff" d="M3435.77,-168.56C3491.99,-159.82 3609.91,-141.5 3682.79,-130.17"/>
<polygon fill="#63b8ff" stroke="#63b8ff" points="3683.42,-133.61 3692.77,-128.62 3682.35,-126.7 3683.42,-133.61"/>
</a>
</g>
</g>
<!-- Node57 -->
<g id="Node000057" class="node">
<title>Node57</title>
<g id="a_Node000057"><a xlink:href="dns_2forward_8h.html" target="_top" xlink:title=" ">
<polygon fill="white" stroke="#666666" points="3349.5,-129 3266.5,-129 3266.5,-110 3349.5,-110 3349.5,-129"/>
<text text-anchor="middle" x="3308" y="-117" font-family="Helvetica,sans-Serif" font-size="10.00">dns/forward.h</text>
</a>
</g>
</g>
<!-- Node44&#45;&gt;Node57 -->
<g id="edge41_Node000044_Node000057" class="edge">
<title>Node44&#45;&gt;Node57</title>
<g id="a_edge41_Node000044_Node000057"><a xlink:title=" ">
<path fill="none" stroke="#63b8ff" d="M3388.58,-164.98C3373.55,-156.69 3350.46,-143.94 3332.84,-134.22"/>
<polygon fill="#63b8ff" stroke="#63b8ff" points="3334.15,-130.94 3323.7,-129.17 3330.77,-137.07 3334.15,-130.94"/>
</a>
</g>
</g>
<!-- Node62 -->
<g id="Node000062" class="node">
<title>Node62</title>
<g id="a_Node000062"><a xlink:href="ip_2Address_8h.html" target="_top" xlink:title=" ">
<polygon fill="white" stroke="#666666" points="3548.5,-129 3471.5,-129 3471.5,-110 3548.5,-110 3548.5,-129"/>
<text text-anchor="middle" x="3510" y="-117" font-family="Helvetica,sans-Serif" font-size="10.00">ip/Address.h</text>
</a>
</g>
</g>
<!-- Node44&#45;&gt;Node62 -->
<g id="edge44_Node000044_Node000062" class="edge">
<title>Node44&#45;&gt;Node62</title>
<g id="a_edge44_Node000044_Node000062"><a xlink:title=" ">
<path fill="none" stroke="#63b8ff" d="M3421.03,-164.98C3437.93,-156.54 3464.06,-143.47 3483.64,-133.68"/>
<polygon fill="#63b8ff" stroke="#63b8ff" points="3485.28,-136.77 3492.66,-129.17 3482.15,-130.51 3485.28,-136.77"/>
</a>
</g>
</g>
<!-- Node49 -->
<g id="Node000049" class="node">
<title>Node49</title>
<g id="a_Node000049"><a xlink:title=" ">
<polygon fill="#e0e0e0" stroke="#999999" points="3463,-74 3415,-74 3415,-55 3463,-55 3463,-74"/>
<text text-anchor="middle" x="3439" y="-62" font-family="Helvetica,sans-Serif" font-size="10.00">iosfwd</text>
</a>
</g>
</g>
<!-- Node44&#45;&gt;Node49 -->
<g id="edge49_Node000044_Node000049" class="edge">
<title>Node44&#45;&gt;Node49</title>
<g id="a_edge49_Node000044_Node000049"><a xlink:title=" ">
<path fill="none" stroke="#63b8ff" d="M3400.57,-164.94C3396.08,-152.41 3389.63,-128.55 3397,-110 3401.52,-98.63 3410.47,-88.48 3418.96,-80.76"/>
<polygon fill="#63b8ff" stroke="#63b8ff" points="3421.41,-83.27 3426.79,-74.14 3416.89,-77.92 3421.41,-83.27"/>
</a>
</g>
</g>
<!-- Node65 -->
<g id="Node000065" class="node">
<title>Node65</title>
<g id="a_Node000065"><a xlink:title=" ">
<polygon fill="#e0e0e0" stroke="#999999" points="3453.5,-129 3406.5,-129 3406.5,-110 3453.5,-110 3453.5,-129"/>
<text text-anchor="middle" x="3430" y="-117" font-family="Helvetica,sans-Serif" font-size="10.00">vector</text>
</a>
</g>
</g>
<!-- Node44&#45;&gt;Node65 -->
<g id="edge50_Node000044_Node000065" class="edge">
<title>Node44&#45;&gt;Node65</title>
<g id="a_edge50_Node000044_Node000065"><a xlink:title=" ">
<path fill="none" stroke="#63b8ff" d="M3408.29,-164.75C3411.81,-157.57 3416.91,-147.18 3421.28,-138.27"/>
<polygon fill="#63b8ff" stroke="#63b8ff" points="3424.52,-139.61 3425.79,-129.09 3418.24,-136.53 3424.52,-139.61"/>
</a>
</g>
</g>
<!-- Node46 -->
<g id="Node000046" class="node">
<title>Node46</title>
<g id="a_Node000046"><a xlink:href="TextException_8h.html" target="_top" xlink:title=" ">
<polygon fill="#fff0f0" stroke="red" points="3751,-74 3631,-74 3631,-55 3751,-55 3751,-74"/>
<text text-anchor="middle" x="3691" y="-62" font-family="Helvetica,sans-Serif" font-size="10.00">base/TextException.h</text>
</a>
</g>
</g>
<!-- Node45&#45;&gt;Node46 -->
<g id="edge37_Node000045_Node000046" class="edge">
<title>Node45&#45;&gt;Node46</title>
<g id="a_edge37_Node000045_Node000046"><a xlink:title=" ">
<path fill="none" stroke="#63b8ff" d="M3736.08,-109.75C3728.22,-102.03 3716.57,-90.6 3707.08,-81.28"/>
<polygon fill="#63b8ff" stroke="#63b8ff" points="3709.34,-78.6 3699.75,-74.09 3704.44,-83.59 3709.34,-78.6"/>
</a>
</g>
</g>
<!-- Node51 -->
<g id="Node000051" class="node">
<title>Node51</title>
<g id="a_Node000051"><a xlink:href="cbdata_8h.html" target="_top" xlink:title=" ">
<polygon fill="white" stroke="#666666" points="3828.5,-74 3769.5,-74 3769.5,-55 3828.5,-55 3828.5,-74"/>
<text text-anchor="middle" x="3799" y="-62" font-family="Helvetica,sans-Serif" font-size="10.00">cbdata.h</text>
</a>
</g>
</g>
<!-- Node45&#45;&gt;Node51 -->
<g id="edge38_Node000045_Node000051" class="edge">
<title>Node45&#45;&gt;Node51</title>
<g id="a_edge38_Node000045_Node000051"><a xlink:title=" ">
<path fill="none" stroke="#63b8ff" d="M3753.92,-109.75C3761.78,-102.03 3773.43,-90.6 3782.92,-81.28"/>
<polygon fill="#63b8ff" stroke="#63b8ff" points="3785.56,-83.59 3790.25,-74.09 3780.66,-78.6 3785.56,-83.59"/>
</a>
</g>
</g>
<!-- Node52 -->
<g id="Node000052" class="node">
<title>Node52</title>
<g id="a_Node000052"><a xlink:href="debug_2Stream_8h.html" target="_top" xlink:title=" ">
<polygon fill="#fff0f0" stroke="red" points="3941,-74 3847,-74 3847,-55 3941,-55 3941,-74"/>
<text text-anchor="middle" x="3894" y="-62" font-family="Helvetica,sans-Serif" font-size="10.00">debug/Stream.h</text>
</a>
</g>
</g>
<!-- Node45&#45;&gt;Node52 -->
<g id="edge39_Node000045_Node000052" class="edge">
<title>Node45&#45;&gt;Node52</title>
<g id="a_edge39_Node000045_Node000052"><a xlink:title=" ">
<path fill="none" stroke="#63b8ff" d="M3768.94,-109.98C3793.56,-101.23 3832.12,-87.51 3859.92,-77.62"/>
<polygon fill="#63b8ff" stroke="#63b8ff" points="3861.38,-80.82 3869.62,-74.17 3859.03,-74.22 3861.38,-80.82"/>
</a>
</g>
</g>
<!-- Node54 -->
<g id="Node000054" class="node">
<title>Node54</title>
<g id="a_Node000054"><a xlink:title=" ">
<polygon fill="#e0e0e0" stroke="#999999" points="3571,-19 3511,-19 3511,0 3571,0 3571,-19"/>
<text text-anchor="middle" x="3541" y="-7" font-family="Helvetica,sans-Serif" font-size="10.00">iostream</text>
</a>
</g>
</g>
<!-- Node52&#45;&gt;Node54 -->
<g id="edge40_Node000052_Node000054" class="edge">
<title>Node52&#45;&gt;Node54</title>
<g id="a_edge40_Node000052_Node000054"><a xlink:title=" ">
<path fill="none" stroke="#63b8ff" d="M3846.95,-56.35C3843.92,-55.89 3840.92,-55.44 3838,-55 3746.27,-41.17 3638.58,-25.07 3581.43,-16.53"/>
<polygon fill="#63b8ff" stroke="#63b8ff" points="3581.77,-13.04 3571.36,-15.03 3580.73,-19.97 3581.77,-13.04"/>
</a>
</g>
</g>
<!-- Node58 -->
<g id="Node000058" class="node">
<title>Node58</title>
<g id="a_Node000058"><a xlink:href="ip_2forward_8h.html" target="_top" xlink:title=" ">
<polygon fill="white" stroke="#666666" points="3396.5,-74 3321.5,-74 3321.5,-55 3396.5,-55 3396.5,-74"/>
<text text-anchor="middle" x="3359" y="-62" font-family="Helvetica,sans-Serif" font-size="10.00">ip/forward.h</text>
</a>
</g>
</g>
<!-- Node57&#45;&gt;Node58 -->
<g id="edge42_Node000057_Node000058" class="edge">
<title>Node57&#45;&gt;Node58</title>
<g id="a_edge42_Node000057_Node000058"><a xlink:title=" ">
<path fill="none" stroke="#63b8ff" d="M3316.42,-109.75C3323.77,-102.11 3334.63,-90.82 3343.54,-81.56"/>
<polygon fill="#63b8ff" stroke="#63b8ff" points="3346.32,-83.72 3350.74,-74.09 3341.28,-78.87 3346.32,-83.72"/>
</a>
</g>
</g>
<!-- Node59 -->
<g id="Node000059" class="node">
<title>Node59</title>
<g id="a_Node000059"><a xlink:href="sbuf_2forward_8h.html" target="_top" xlink:title=" ">
<polygon fill="#fff0f0" stroke="red" points="3303.5,-74 3216.5,-74 3216.5,-55 3303.5,-55 3303.5,-74"/>
<text text-anchor="middle" x="3260" y="-62" font-family="Helvetica,sans-Serif" font-size="10.00">sbuf/forward.h</text>
</a>
</g>
</g>
<!-- Node57&#45;&gt;Node59 -->
<g id="edge43_Node000057_Node000059" class="edge">
<title>Node57&#45;&gt;Node59</title>
<g id="a_edge43_Node000057_Node000059"><a xlink:title=" ">
<path fill="none" stroke="#63b8ff" d="M3300.07,-109.75C3293.15,-102.11 3282.93,-90.82 3274.55,-81.56"/>
<polygon fill="#63b8ff" stroke="#63b8ff" points="3277.09,-79.15 3267.78,-74.09 3271.9,-83.85 3277.09,-79.15"/>
</a>
</g>
</g>
<!-- Node62&#45;&gt;Node58 -->
<g id="edge45_Node000062_Node000058" class="edge">
<title>Node62&#45;&gt;Node58</title>
<g id="a_edge45_Node000062_Node000058"><a xlink:title=" ">
<path fill="none" stroke="#63b8ff" d="M3485.74,-109.98C3460.68,-101.19 3421.37,-87.39 3393.17,-77.49"/>
<polygon fill="#63b8ff" stroke="#63b8ff" points="3394.3,-74.18 3383.7,-74.17 3391.98,-80.78 3394.3,-74.18"/>
</a>
</g>
</g>
<!-- Node62&#45;&gt;Node49 -->
<g id="edge46_Node000062_Node000049" class="edge">
<title>Node62&#45;&gt;Node49</title>
<g id="a_edge46_Node000062_Node000049"><a xlink:title=" ">
<path fill="none" stroke="#63b8ff" d="M3498.59,-109.98C3487.89,-102 3471.66,-89.88 3458.84,-80.31"/>
<polygon fill="#63b8ff" stroke="#63b8ff" points="3460.72,-77.35 3450.61,-74.17 3456.53,-82.96 3460.72,-77.35"/>
</a>
</g>
</g>
<!-- Node63 -->
<g id="Node000063" class="node">
<title>Node63</title>
<g id="a_Node000063"><a xlink:title=" ">
<polygon fill="#e0e0e0" stroke="#999999" points="3538.5,-74 3481.5,-74 3481.5,-55 3538.5,-55 3538.5,-74"/>
<text text-anchor="middle" x="3510" y="-62" font-family="Helvetica,sans-Serif" font-size="10.00">ostream</text>
</a>
</g>
</g>
<!-- Node62&#45;&gt;Node63 -->
<g id="edge47_Node000062_Node000063" class="edge">
<title>Node62&#45;&gt;Node63</title>
<g id="a_edge47_Node000062_Node000063"><a xlink:title=" ">
<path fill="none" stroke="#63b8ff" d="M3510,-109.75C3510,-102.8 3510,-92.85 3510,-84.13"/>
<polygon fill="#63b8ff" stroke="#63b8ff" points="3513.5,-84.09 3510,-74.09 3506.5,-84.09 3513.5,-84.09"/>
</a>
</g>
</g>
<!-- Node64 -->
<g id="Node000064" class="node">
<title>Node64</title>
<g id="a_Node000064"><a xlink:title=" ">
<polygon fill="#e0e0e0" stroke="#999999" points="3613,-74 3557,-74 3557,-55 3613,-55 3613,-74"/>
<text text-anchor="middle" x="3585" y="-62" font-family="Helvetica,sans-Serif" font-size="10.00">optional</text>
</a>
</g>
</g>
<!-- Node62&#45;&gt;Node64 -->
<g id="edge48_Node000062_Node000064" class="edge">
<title>Node62&#45;&gt;Node64</title>
<g id="a_edge48_Node000062_Node000064"><a xlink:title=" ">
<path fill="none" stroke="#63b8ff" d="M3522.05,-109.98C3533.46,-101.92 3550.83,-89.65 3564.43,-80.03"/>
<polygon fill="#63b8ff" stroke="#63b8ff" points="3566.58,-82.8 3572.73,-74.17 3562.54,-77.08 3566.58,-82.8"/>
</a>
</g>
</g>
<!-- Node66&#45;&gt;Node54 -->
<g id="edge52_Node000066_Node000054" class="edge">
<title>Node66&#45;&gt;Node54</title>
<g id="a_edge52_Node000066_Node000054"><a xlink:title=" ">
<path fill="none" stroke="#63b8ff" d="M3186.32,-164.81C3182.62,-142.86 3176.4,-84.8 3207,-55 3247.96,-15.11 3421.1,-10.19 3500.69,-10.1"/>
<polygon fill="#63b8ff" stroke="#63b8ff" points="3500.81,-13.6 3510.82,-10.11 3500.82,-6.6 3500.81,-13.6"/>
</a>
</g>
</g>
</g>
</svg>
