<?xml version="1.0" encoding="UTF-8" standalone="no"?>
<!DOCTYPE svg PUBLIC "-//W3C//DTD SVG 1.1//EN"
 "http://www.w3.org/Graphics/SVG/1.1/DTD/svg11.dtd">
<!-- Generated by graphviz version 2.43.0 (0)
 -->
<!-- Title: squid/src/tests/stub_cache_manager.cc Pages: 1 -->
<!--zoomable 313 -->

<svg id="main" version="1.1" xmlns="http://www.w3.org/2000/svg" xmlns:xlink="http://www.w3.org/1999/xlink" xml:space="preserve" onload="init(evt)">
<style type="text/css"><![CDATA[
.node, .edge {opacity: 0.7;}
.node.selected, .edge.selected {opacity: 1;}
.edge:hover path { stroke: red; }
.edge:hover polygon { stroke: red; fill: red; }
]]></style>

<defs>
  <circle id="rim" cx="0" cy="0" r="7"/>
  <circle id="rim2" cx="0" cy="0" r="3.5"/>
  <g id="zoomPlus">
    <use xlink:href="#rim" fill="#404040"><set attributeName="fill" to="#808080" begin="zoomplus.mouseover" end="zoomplus.mouseout"/></use>
    <path d="M-4,0h8M0,-4v8" fill="none" stroke="white" stroke-width="1.5" pointer-events="none"/>
  </g>
  <g id="zoomMin">
    <use xlink:href="#rim" fill="#404040"><set attributeName="fill" to="#808080" begin="zoomminus.mouseover" end="zoomminus.mouseout"/></use>
    <path d="M-4,0h8" fill="none" stroke="white" stroke-width="1.5" pointer-events="none"/>
  </g>
  <g id="arrowUp" transform="translate(30 24)">
    <use xlink:href="#rim"/>
    <path pointer-events="none" fill="none" stroke="white" stroke-width="1.5" d="M0,-3.0v7 M-2.5,-0.5L0,-3.0L2.5,-0.5"/>
  </g>
  <g id="arrowRight" transform="rotate(90) translate(36 -43)">
    <use xlink:href="#rim"/>
    <path pointer-events="none" fill="none" stroke="white" stroke-width="1.5" d="M0,-3.0v7 M-2.5,-0.5L0,-3.0L2.5,-0.5"/>
  </g>
  <g id="arrowDown" transform="rotate(180) translate(-30 -48)">
    <use xlink:href="#rim"/>
    <path pointer-events="none" fill="none" stroke="white" stroke-width="1.5" d="M0,-3.0v7 M-2.5,-0.5L0,-3.0L2.5,-0.5"/>
  </g>
  <g id="arrowLeft" transform="rotate(270) translate(-36 17)">
    <use xlink:href="#rim"/>
    <path pointer-events="none" fill="none" stroke="white" stroke-width="1.5" d="M0,-3.0v7 M-2.5,-0.5L0,-3.0L2.5,-0.5"/>
  </g>
  <g id="resetDef">
    <use xlink:href="#rim2" fill="#404040"><set attributeName="fill" to="#808080" begin="reset.mouseover" end="reset.mouseout"/></use>
  </g>
</defs>
<script type="application/ecmascript">
var viewWidth = 4501;
var viewHeight = 313;
var sectionId = 'dynsection-0';
</script>
<script type="application/ecmascript" xlink:href="svg.min.js"/>
<svg id="graph" class="graph">
<g id="viewport">
<title>squid/src/tests/stub_cache_manager.cc</title>
<!-- Node1 -->
<g id="Node000001" class="node">
<title>Node1</title>
<g id="a_Node000001"><a xlink:title=" ">
<polygon fill="#999999" stroke="#666666" points="3726,-305 3614,-305 3614,-275 3726,-275 3726,-305"/>
<text text-anchor="start" x="3622" y="-293" font-family="Helvetica,sans-Serif" font-size="10.00">squid/src/tests/stub</text>
<text text-anchor="middle" x="3670" y="-282" font-family="Helvetica,sans-Serif" font-size="10.00">_cache_manager.cc</text>
</a>
</g>
</g>
<!-- Node2 -->
<g id="Node000002" class="node">
<title>Node2</title>
<g id="a_Node000002"><a xlink:href="squid_8h.html" target="_top" xlink:title=" ">
<polygon fill="white" stroke="#666666" points="1652,-239 1600,-239 1600,-220 1652,-220 1652,-239"/>
<text text-anchor="middle" x="1626" y="-227" font-family="Helvetica,sans-Serif" font-size="10.00">squid.h</text>
</a>
</g>
</g>
<!-- Node1&#45;&gt;Node2 -->
<g id="edge1_Node000001_Node000002" class="edge">
<title>Node1&#45;&gt;Node2</title>
<g id="a_edge1_Node000001_Node000002"><a xlink:title=" ">
<path fill="none" stroke="#63b8ff" d="M3613.73,-287.39C3313.74,-278.8 1906.98,-238.54 1662.32,-231.54"/>
<polygon fill="#63b8ff" stroke="#63b8ff" points="1662.29,-228.04 1652.19,-231.25 1662.09,-235.03 1662.29,-228.04"/>
</a>
</g>
</g>
<!-- Node44 -->
<g id="Node000044" class="node">
<title>Node44</title>
<g id="a_Node000044"><a xlink:href="CacheManager_8h.html" target="_top" xlink:title=" ">
<polygon fill="white" stroke="#666666" points="3719,-239 3621,-239 3621,-220 3719,-220 3719,-239"/>
<text text-anchor="middle" x="3670" y="-227" font-family="Helvetica,sans-Serif" font-size="10.00">CacheManager.h</text>
</a>
</g>
</g>
<!-- Node1&#45;&gt;Node44 -->
<g id="edge30_Node000001_Node000044" class="edge">
<title>Node1&#45;&gt;Node44</title>
<g id="a_edge30_Node000001_Node000044"><a xlink:title=" ">
<path fill="none" stroke="#63b8ff" d="M3670,-274.84C3670,-267.21 3670,-257.7 3670,-249.45"/>
<polygon fill="#63b8ff" stroke="#63b8ff" points="3673.5,-249.27 3670,-239.27 3666.5,-249.27 3673.5,-249.27"/>
</a>
</g>
</g>
<!-- Node76 -->
<g id="Node000076" class="node">
<title>Node76</title>
<g id="a_Node000076"><a xlink:href="debug_2Stream_8h.html" target="_top" xlink:title=" ">
<polygon fill="white" stroke="#666666" points="4261,-239 4167,-239 4167,-220 4261,-220 4261,-239"/>
<text text-anchor="middle" x="4214" y="-227" font-family="Helvetica,sans-Serif" font-size="10.00">debug/Stream.h</text>
</a>
</g>
</g>
<!-- Node1&#45;&gt;Node76 -->
<g id="edge51_Node000001_Node000076" class="edge">
<title>Node1&#45;&gt;Node76</title>
<g id="a_edge51_Node000001_Node000076"><a xlink:title=" ">
<path fill="none" stroke="#63b8ff" d="M3726.17,-282.96C3830.21,-271.77 4051.81,-247.94 4156.7,-236.66"/>
<polygon fill="#63b8ff" stroke="#63b8ff" points="4157.21,-240.13 4166.78,-235.58 4156.46,-233.17 4157.21,-240.13"/>
</a>
</g>
</g>
<!-- Node101 -->
<g id="Node000101" class="node">
<title>Node101</title>
<g id="a_Node000101"><a xlink:href="Registration_8h.html" target="_top" xlink:title=" ">
<polygon fill="white" stroke="#666666" points="3382.5,-184 3275.5,-184 3275.5,-165 3382.5,-165 3382.5,-184"/>
<text text-anchor="middle" x="3329" y="-172" font-family="Helvetica,sans-Serif" font-size="10.00">mgr/Registration.h</text>
</a>
</g>
</g>
<!-- Node1&#45;&gt;Node101 -->
<g id="edge57_Node000001_Node000101" class="edge">
<title>Node1&#45;&gt;Node101</title>
<g id="a_edge57_Node000001_Node000101"><a xlink:title=" ">
<path fill="none" stroke="#63b8ff" d="M3627.84,-274.97C3560.02,-252.39 3427.87,-208.41 3364.53,-187.33"/>
<polygon fill="#63b8ff" stroke="#63b8ff" points="3365.57,-183.98 3354.97,-184.14 3363.36,-190.62 3365.57,-183.98"/>
</a>
</g>
</g>
<!-- Node102 -->
<g id="Node000102" class="node">
<title>Node102</title>
<g id="a_Node000102"><a xlink:href="STUB_8h.html" target="_top" xlink:title=" ">
<polygon fill="white" stroke="#666666" points="4492.5,-74 4413.5,-74 4413.5,-55 4492.5,-55 4492.5,-74"/>
<text text-anchor="middle" x="4453" y="-62" font-family="Helvetica,sans-Serif" font-size="10.00">tests/STUB.h</text>
</a>
</g>
</g>
<!-- Node1&#45;&gt;Node102 -->
<g id="edge60_Node000001_Node000102" class="edge">
<title>Node1&#45;&gt;Node102</title>
<g id="a_edge60_Node000001_Node000102"><a xlink:title=" ">
<path fill="none" stroke="#63b8ff" d="M3726.35,-288.13C3833.25,-285.64 4072.49,-276.03 4270,-239 4354.73,-223.12 4404.41,-253.06 4456,-184 4477.89,-154.7 4467.94,-108.98 4459.81,-83.75"/>
<polygon fill="#63b8ff" stroke="#63b8ff" points="4463.02,-82.32 4456.43,-74.02 4456.41,-84.61 4463.02,-82.32"/>
</a>
</g>
</g>
<!-- Node3 -->
<g id="Node000003" class="node">
<title>Node3</title>
<g id="a_Node000003"><a xlink:href="autoconf_8h.html" target="_top" xlink:title=" ">
<polygon fill="white" stroke="#666666" points="1527,-184 1459,-184 1459,-165 1527,-165 1527,-184"/>
<text text-anchor="middle" x="1493" y="-172" font-family="Helvetica,sans-Serif" font-size="10.00">autoconf.h</text>
</a>
</g>
</g>
<!-- Node2&#45;&gt;Node3 -->
<g id="edge2_Node000002_Node000003" class="edge">
<title>Node2&#45;&gt;Node3</title>
<g id="a_edge2_Node000002_Node000003"><a xlink:title=" ">
<path fill="none" stroke="#63b8ff" d="M1604.63,-219.98C1582.85,-211.3 1548.84,-197.75 1524.08,-187.88"/>
<polygon fill="#63b8ff" stroke="#63b8ff" points="1525.34,-184.62 1514.76,-184.17 1522.75,-191.12 1525.34,-184.62"/>
</a>
</g>
</g>
<!-- Node4 -->
<g id="Node000004" class="node">
<title>Node4</title>
<g id="a_Node000004"><a xlink:href="version_8h.html" target="_top" xlink:title=" ">
<polygon fill="white" stroke="#666666" points="1607,-184 1545,-184 1545,-165 1607,-165 1607,-184"/>
<text text-anchor="middle" x="1576" y="-172" font-family="Helvetica,sans-Serif" font-size="10.00">version.h</text>
</a>
</g>
</g>
<!-- Node2&#45;&gt;Node4 -->
<g id="edge3_Node000002_Node000004" class="edge">
<title>Node2&#45;&gt;Node4</title>
<g id="a_edge3_Node000002_Node000004"><a xlink:title=" ">
<path fill="none" stroke="#63b8ff" d="M1617.74,-219.75C1610.54,-212.11 1599.89,-200.82 1591.15,-191.56"/>
<polygon fill="#63b8ff" stroke="#63b8ff" points="1593.51,-188.96 1584.1,-184.09 1588.42,-193.76 1593.51,-188.96"/>
</a>
</g>
</g>
<!-- Node5 -->
<g id="Node000005" class="node">
<title>Node5</title>
<g id="a_Node000005"><a xlink:href="compat_8h.html" target="_top" xlink:title=" ">
<polygon fill="white" stroke="#666666" points="1727,-184 1625,-184 1625,-165 1727,-165 1727,-184"/>
<text text-anchor="middle" x="1676" y="-172" font-family="Helvetica,sans-Serif" font-size="10.00">compat/compat.h</text>
</a>
</g>
</g>
<!-- Node2&#45;&gt;Node5 -->
<g id="edge4_Node000002_Node000005" class="edge">
<title>Node2&#45;&gt;Node5</title>
<g id="a_edge4_Node000002_Node000005"><a xlink:title=" ">
<path fill="none" stroke="#63b8ff" d="M1634.26,-219.75C1641.46,-212.11 1652.11,-200.82 1660.85,-191.56"/>
<polygon fill="#63b8ff" stroke="#63b8ff" points="1663.58,-193.76 1667.9,-184.09 1658.49,-188.96 1663.58,-193.76"/>
</a>
</g>
</g>
<!-- Node6 -->
<g id="Node000006" class="node">
<title>Node6</title>
<g id="a_Node000006"><a xlink:href="osdetect_8h.html" target="_top" xlink:title=" ">
<polygon fill="white" stroke="#666666" points="3031.5,-129 2924.5,-129 2924.5,-110 3031.5,-110 3031.5,-129"/>
<text text-anchor="middle" x="2978" y="-117" font-family="Helvetica,sans-Serif" font-size="10.00">compat/osdetect.h</text>
</a>
</g>
</g>
<!-- Node5&#45;&gt;Node6 -->
<g id="edge5_Node000005_Node000006" class="edge">
<title>Node5&#45;&gt;Node6</title>
<g id="a_edge5_Node000005_Node000006"><a xlink:title=" ">
<path fill="none" stroke="#63b8ff" d="M1727.2,-173.5C1895.6,-173.12 2447.74,-168.76 2913.96,-129.09"/>
<polygon fill="#63b8ff" stroke="#63b8ff" points="2914.6,-132.54 2924.27,-128.2 2914.01,-125.57 2914.6,-132.54"/>
</a>
</g>
</g>
<!-- Node7 -->
<g id="Node000007" class="node">
<title>Node7</title>
<g id="a_Node000007"><a xlink:href="fdsetsize_8h.html" target="_top" xlink:title=" ">
<polygon fill="white" stroke="#666666" points="3160,-129 3050,-129 3050,-110 3160,-110 3160,-129"/>
<text text-anchor="middle" x="3105" y="-117" font-family="Helvetica,sans-Serif" font-size="10.00">compat/fdsetsize.h</text>
</a>
</g>
</g>
<!-- Node5&#45;&gt;Node7 -->
<g id="edge6_Node000005_Node000007" class="edge">
<title>Node5&#45;&gt;Node7</title>
<g id="a_edge6_Node000005_Node000007"><a xlink:title=" ">
<path fill="none" stroke="#63b8ff" d="M1727.24,-173.66C1906.39,-173.85 2521.52,-171.22 3039.58,-129.02"/>
<polygon fill="#63b8ff" stroke="#63b8ff" points="3040.2,-132.48 3049.88,-128.17 3039.63,-125.5 3040.2,-132.48"/>
</a>
</g>
</g>
<!-- Node8 -->
<g id="Node000008" class="node">
<title>Node8</title>
<g id="a_Node000008"><a xlink:href="types_8h.html" target="_top" xlink:title=" ">
<polygon fill="#fff0f0" stroke="red" points="92,-129 0,-129 0,-110 92,-110 92,-129"/>
<text text-anchor="middle" x="46" y="-117" font-family="Helvetica,sans-Serif" font-size="10.00">compat/types.h</text>
</a>
</g>
</g>
<!-- Node5&#45;&gt;Node8 -->
<g id="edge7_Node000005_Node000008" class="edge">
<title>Node5&#45;&gt;Node8</title>
<g id="a_edge7_Node000005_Node000008"><a xlink:title=" ">
<path fill="none" stroke="#63b8ff" d="M1624.98,-165.86C1621.95,-165.53 1618.94,-165.24 1616,-165 948.19,-109.95 773.67,-187.75 102.58,-129"/>
<polygon fill="#63b8ff" stroke="#63b8ff" points="102.43,-125.47 92.16,-128.08 101.81,-132.44 102.43,-125.47"/>
</a>
</g>
</g>
<!-- Node10 -->
<g id="Node000010" class="node">
<title>Node10</title>
<g id="a_Node000010"><a xlink:href="aix_8h.html" target="_top" xlink:title=" ">
<polygon fill="white" stroke="#666666" points="205.5,-129 110.5,-129 110.5,-110 205.5,-110 205.5,-129"/>
<text text-anchor="middle" x="158" y="-117" font-family="Helvetica,sans-Serif" font-size="10.00">compat/os/aix.h</text>
</a>
</g>
</g>
<!-- Node5&#45;&gt;Node10 -->
<g id="edge8_Node000005_Node000010" class="edge">
<title>Node5&#45;&gt;Node10</title>
<g id="a_edge8_Node000005_Node000010"><a xlink:title=" ">
<path fill="none" stroke="#63b8ff" d="M1624.98,-165.87C1621.95,-165.54 1618.94,-165.24 1616,-165 998.62,-113.51 837.25,-182.29 215.64,-128.91"/>
<polygon fill="#63b8ff" stroke="#63b8ff" points="215.8,-125.41 205.53,-128.03 215.19,-132.38 215.8,-125.41"/>
</a>
</g>
</g>
<!-- Node11 -->
<g id="Node000011" class="node">
<title>Node11</title>
<g id="a_Node000011"><a xlink:href="android_8h.html" target="_top" xlink:title=" ">
<polygon fill="white" stroke="#666666" points="340,-129 224,-129 224,-110 340,-110 340,-129"/>
<text text-anchor="middle" x="282" y="-117" font-family="Helvetica,sans-Serif" font-size="10.00">compat/os/android.h</text>
</a>
</g>
</g>
<!-- Node5&#45;&gt;Node11 -->
<g id="edge9_Node000005_Node000011" class="edge">
<title>Node5&#45;&gt;Node11</title>
<g id="a_edge9_Node000005_Node000011"><a xlink:title=" ">
<path fill="none" stroke="#63b8ff" d="M1624.98,-165.87C1621.95,-165.54 1618.94,-165.25 1616,-165 1057.96,-117.7 912.36,-171.86 350.06,-128.99"/>
<polygon fill="#63b8ff" stroke="#63b8ff" points="350.31,-125.5 340.07,-128.22 349.77,-132.48 350.31,-125.5"/>
</a>
</g>
</g>
<!-- Node12 -->
<g id="Node000012" class="node">
<title>Node12</title>
<g id="a_Node000012"><a xlink:href="dragonfly_8h.html" target="_top" xlink:title=" ">
<polygon fill="white" stroke="#666666" points="482,-129 358,-129 358,-110 482,-110 482,-129"/>
<text text-anchor="middle" x="420" y="-117" font-family="Helvetica,sans-Serif" font-size="10.00">compat/os/dragonfly.h</text>
</a>
</g>
</g>
<!-- Node5&#45;&gt;Node12 -->
<g id="edge10_Node000005_Node000012" class="edge">
<title>Node5&#45;&gt;Node12</title>
<g id="a_edge10_Node000005_Node000012"><a xlink:title=" ">
<path fill="none" stroke="#63b8ff" d="M1624.98,-165.89C1621.95,-165.55 1618.93,-165.25 1616,-165 1120.89,-122.14 991.53,-166.18 492.3,-129.02"/>
<polygon fill="#63b8ff" stroke="#63b8ff" points="492.54,-125.53 482.31,-128.27 492.02,-132.51 492.54,-125.53"/>
</a>
</g>
</g>
<!-- Node13 -->
<g id="Node000013" class="node">
<title>Node13</title>
<g id="a_Node000013"><a xlink:href="freebsd_8h.html" target="_top" xlink:title=" ">
<polygon fill="white" stroke="#666666" points="616,-129 500,-129 500,-110 616,-110 616,-129"/>
<text text-anchor="middle" x="558" y="-117" font-family="Helvetica,sans-Serif" font-size="10.00">compat/os/freebsd.h</text>
</a>
</g>
</g>
<!-- Node5&#45;&gt;Node13 -->
<g id="edge11_Node000005_Node000013" class="edge">
<title>Node5&#45;&gt;Node13</title>
<g id="a_edge11_Node000005_Node000013"><a xlink:title=" ">
<path fill="none" stroke="#63b8ff" d="M1624.98,-165.9C1621.94,-165.57 1618.93,-165.26 1616,-165 1180.31,-126.33 1066.01,-164.19 626.19,-129.01"/>
<polygon fill="#63b8ff" stroke="#63b8ff" points="626.32,-125.51 616.07,-128.19 625.76,-132.49 626.32,-125.51"/>
</a>
</g>
</g>
<!-- Node14 -->
<g id="Node000014" class="node">
<title>Node14</title>
<g id="a_Node000014"><a xlink:href="hpux_8h.html" target="_top" xlink:title=" ">
<polygon fill="white" stroke="#666666" points="738,-129 634,-129 634,-110 738,-110 738,-129"/>
<text text-anchor="middle" x="686" y="-117" font-family="Helvetica,sans-Serif" font-size="10.00">compat/os/hpux.h</text>
</a>
</g>
</g>
<!-- Node5&#45;&gt;Node14 -->
<g id="edge12_Node000005_Node000014" class="edge">
<title>Node5&#45;&gt;Node14</title>
<g id="a_edge12_Node000005_Node000014"><a xlink:title=" ">
<path fill="none" stroke="#63b8ff" d="M1624.98,-165.92C1621.94,-165.58 1618.93,-165.27 1616,-165 1234.34,-130.15 1133.71,-163.14 748.24,-129.01"/>
<polygon fill="#63b8ff" stroke="#63b8ff" points="748.48,-125.52 738.21,-128.11 747.85,-132.49 748.48,-125.52"/>
</a>
</g>
</g>
<!-- Node15 -->
<g id="Node000015" class="node">
<title>Node15</title>
<g id="a_Node000015"><a xlink:href="linux_8h.html" target="_top" xlink:title=" ">
<polygon fill="white" stroke="#666666" points="860,-129 756,-129 756,-110 860,-110 860,-129"/>
<text text-anchor="middle" x="808" y="-117" font-family="Helvetica,sans-Serif" font-size="10.00">compat/os/linux.h</text>
</a>
</g>
</g>
<!-- Node5&#45;&gt;Node15 -->
<g id="edge13_Node000005_Node000015" class="edge">
<title>Node5&#45;&gt;Node15</title>
<g id="a_edge13_Node000005_Node000015"><a xlink:title=" ">
<path fill="none" stroke="#63b8ff" d="M1624.97,-165.94C1621.94,-165.6 1618.93,-165.28 1616,-165 1288.49,-133.98 1201.71,-159.43 870.58,-129.05"/>
<polygon fill="#63b8ff" stroke="#63b8ff" points="870.49,-125.53 860.21,-128.09 869.84,-132.5 870.49,-125.53"/>
</a>
</g>
</g>
<!-- Node16 -->
<g id="Node000016" class="node">
<title>Node16</title>
<g id="a_Node000016"><a xlink:href="macosx_8h.html" target="_top" xlink:title=" ">
<polygon fill="white" stroke="#666666" points="996,-129 878,-129 878,-110 996,-110 996,-129"/>
<text text-anchor="middle" x="937" y="-117" font-family="Helvetica,sans-Serif" font-size="10.00">compat/os/macosx.h</text>
</a>
</g>
</g>
<!-- Node5&#45;&gt;Node16 -->
<g id="edge14_Node000005_Node000016" class="edge">
<title>Node5&#45;&gt;Node16</title>
<g id="a_edge14_Node000005_Node000016"><a xlink:title=" ">
<path fill="none" stroke="#63b8ff" d="M1624.97,-165.98C1621.94,-165.62 1618.93,-165.29 1616,-165 1348.63,-138.23 1277.61,-153.5 1006.46,-129.07"/>
<polygon fill="#63b8ff" stroke="#63b8ff" points="1006.59,-125.57 996.31,-128.15 1005.95,-132.54 1006.59,-125.57"/>
</a>
</g>
</g>
<!-- Node17 -->
<g id="Node000017" class="node">
<title>Node17</title>
<g id="a_Node000017"><a xlink:href="mingw_8h.html" target="_top" xlink:title=" ">
<polygon fill="white" stroke="#666666" points="1126,-129 1014,-129 1014,-110 1126,-110 1126,-129"/>
<text text-anchor="middle" x="1070" y="-117" font-family="Helvetica,sans-Serif" font-size="10.00">compat/os/mingw.h</text>
</a>
</g>
</g>
<!-- Node5&#45;&gt;Node17 -->
<g id="edge15_Node000005_Node000017" class="edge">
<title>Node5&#45;&gt;Node17</title>
<g id="a_edge15_Node000005_Node000017"><a xlink:title=" ">
<path fill="none" stroke="#63b8ff" d="M1624.97,-166.04C1621.93,-165.67 1618.93,-165.32 1616,-165 1406.09,-142.3 1349.94,-150.64 1136.31,-129.08"/>
<polygon fill="#63b8ff" stroke="#63b8ff" points="1136.65,-125.59 1126.35,-128.06 1135.94,-132.56 1136.65,-125.59"/>
</a>
</g>
</g>
<!-- Node18 -->
<g id="Node000018" class="node">
<title>Node18</title>
<g id="a_Node000018"><a xlink:href="mswindows_8h.html" target="_top" xlink:title=" ">
<polygon fill="white" stroke="#666666" points="1281.5,-129 1144.5,-129 1144.5,-110 1281.5,-110 1281.5,-129"/>
<text text-anchor="middle" x="1213" y="-117" font-family="Helvetica,sans-Serif" font-size="10.00">compat/os/mswindows.h</text>
</a>
</g>
</g>
<!-- Node5&#45;&gt;Node18 -->
<g id="edge16_Node000005_Node000018" class="edge">
<title>Node5&#45;&gt;Node18</title>
<g id="a_edge16_Node000005_Node000018"><a xlink:title=" ">
<path fill="none" stroke="#63b8ff" d="M1624.95,-166.16C1621.92,-165.76 1618.92,-165.37 1616,-165 1615,-164.87 1408.59,-142.09 1291.6,-129.18"/>
<polygon fill="#63b8ff" stroke="#63b8ff" points="1291.93,-125.69 1281.61,-128.07 1291.16,-132.65 1291.93,-125.69"/>
</a>
</g>
</g>
<!-- Node19 -->
<g id="Node000019" class="node">
<title>Node19</title>
<g id="a_Node000019"><a xlink:href="netbsd_8h.html" target="_top" xlink:title=" ">
<polygon fill="white" stroke="#666666" points="1412.5,-129 1299.5,-129 1299.5,-110 1412.5,-110 1412.5,-129"/>
<text text-anchor="middle" x="1356" y="-117" font-family="Helvetica,sans-Serif" font-size="10.00">compat/os/netbsd.h</text>
</a>
</g>
</g>
<!-- Node5&#45;&gt;Node19 -->
<g id="edge17_Node000005_Node000019" class="edge">
<title>Node5&#45;&gt;Node19</title>
<g id="a_edge17_Node000005_Node000019"><a xlink:title=" ">
<path fill="none" stroke="#63b8ff" d="M1624.94,-165.04C1568.56,-155.71 1477.81,-140.68 1417.55,-130.69"/>
<polygon fill="#63b8ff" stroke="#63b8ff" points="1417.84,-127.2 1407.41,-129.01 1416.7,-134.1 1417.84,-127.2"/>
</a>
</g>
</g>
<!-- Node20 -->
<g id="Node000020" class="node">
<title>Node20</title>
<g id="a_Node000020"><a xlink:href="openbsd_8h.html" target="_top" xlink:title=" ">
<polygon fill="white" stroke="#666666" points="1551.5,-129 1430.5,-129 1430.5,-110 1551.5,-110 1551.5,-129"/>
<text text-anchor="middle" x="1491" y="-117" font-family="Helvetica,sans-Serif" font-size="10.00">compat/os/openbsd.h</text>
</a>
</g>
</g>
<!-- Node5&#45;&gt;Node20 -->
<g id="edge18_Node000005_Node000020" class="edge">
<title>Node5&#45;&gt;Node20</title>
<g id="a_edge18_Node000005_Node000020"><a xlink:title=" ">
<path fill="none" stroke="#63b8ff" d="M1646.28,-164.98C1614.95,-156.01 1565.43,-141.82 1530.76,-131.89"/>
<polygon fill="#63b8ff" stroke="#63b8ff" points="1531.53,-128.47 1520.96,-129.08 1529.61,-135.2 1531.53,-128.47"/>
</a>
</g>
</g>
<!-- Node21 -->
<g id="Node000021" class="node">
<title>Node21</title>
<g id="a_Node000021"><a xlink:href="os2_8h.html" target="_top" xlink:title=" ">
<polygon fill="white" stroke="#666666" points="1666.5,-129 1569.5,-129 1569.5,-110 1666.5,-110 1666.5,-129"/>
<text text-anchor="middle" x="1618" y="-117" font-family="Helvetica,sans-Serif" font-size="10.00">compat/os/os2.h</text>
</a>
</g>
</g>
<!-- Node5&#45;&gt;Node21 -->
<g id="edge19_Node000005_Node000021" class="edge">
<title>Node5&#45;&gt;Node21</title>
<g id="a_edge19_Node000005_Node000021"><a xlink:title=" ">
<path fill="none" stroke="#63b8ff" d="M1666.68,-164.98C1658.19,-157.23 1645.44,-145.58 1635.12,-136.14"/>
<polygon fill="#63b8ff" stroke="#63b8ff" points="1637.23,-133.33 1627.49,-129.17 1632.51,-138.5 1637.23,-133.33"/>
</a>
</g>
</g>
<!-- Node22 -->
<g id="Node000022" class="node">
<title>Node22</title>
<g id="a_Node000022"><a xlink:href="qnx_8h.html" target="_top" xlink:title=" ">
<polygon fill="white" stroke="#666666" points="1783,-129 1685,-129 1685,-110 1783,-110 1783,-129"/>
<text text-anchor="middle" x="1734" y="-117" font-family="Helvetica,sans-Serif" font-size="10.00">compat/os/qnx.h</text>
</a>
</g>
</g>
<!-- Node5&#45;&gt;Node22 -->
<g id="edge20_Node000005_Node000022" class="edge">
<title>Node5&#45;&gt;Node22</title>
<g id="a_edge20_Node000005_Node000022"><a xlink:title=" ">
<path fill="none" stroke="#63b8ff" d="M1685.32,-164.98C1693.81,-157.23 1706.56,-145.58 1716.88,-136.14"/>
<polygon fill="#63b8ff" stroke="#63b8ff" points="1719.49,-138.5 1724.51,-129.17 1714.77,-133.33 1719.49,-138.5"/>
</a>
</g>
</g>
<!-- Node23 -->
<g id="Node000023" class="node">
<title>Node23</title>
<g id="a_Node000023"><a xlink:href="solaris_8h.html" target="_top" xlink:title=" ">
<polygon fill="white" stroke="#666666" points="1913,-129 1801,-129 1801,-110 1913,-110 1913,-129"/>
<text text-anchor="middle" x="1857" y="-117" font-family="Helvetica,sans-Serif" font-size="10.00">compat/os/solaris.h</text>
</a>
</g>
</g>
<!-- Node5&#45;&gt;Node23 -->
<g id="edge21_Node000005_Node000023" class="edge">
<title>Node5&#45;&gt;Node23</title>
<g id="a_edge21_Node000005_Node000023"><a xlink:title=" ">
<path fill="none" stroke="#63b8ff" d="M1705.08,-164.98C1735.6,-156.05 1783.76,-141.94 1817.66,-132.02"/>
<polygon fill="#63b8ff" stroke="#63b8ff" points="1819.08,-135.25 1827.69,-129.08 1817.11,-128.53 1819.08,-135.25"/>
</a>
</g>
</g>
<!-- Node24 -->
<g id="Node000024" class="node">
<title>Node24</title>
<g id="a_Node000024"><a xlink:href="sunos_8h.html" target="_top" xlink:title=" ">
<polygon fill="white" stroke="#666666" points="2039,-129 1931,-129 1931,-110 2039,-110 2039,-129"/>
<text text-anchor="middle" x="1985" y="-117" font-family="Helvetica,sans-Serif" font-size="10.00">compat/os/sunos.h</text>
</a>
</g>
</g>
<!-- Node5&#45;&gt;Node24 -->
<g id="edge22_Node000005_Node000024" class="edge">
<title>Node5&#45;&gt;Node24</title>
<g id="a_edge22_Node000005_Node000024"><a xlink:title=" ">
<path fill="none" stroke="#63b8ff" d="M1725.65,-164.98C1779.96,-155.67 1867.02,-140.74 1925.09,-130.78"/>
<polygon fill="#63b8ff" stroke="#63b8ff" points="1925.96,-134.18 1935.22,-129.04 1924.77,-127.28 1925.96,-134.18"/>
</a>
</g>
</g>
<!-- Node25 -->
<g id="Node000025" class="node">
<title>Node25</title>
<g id="a_Node000025"><a xlink:href="assert_8h.html" target="_top" xlink:title=" ">
<polygon fill="white" stroke="#666666" points="2152.5,-129 2057.5,-129 2057.5,-110 2152.5,-110 2152.5,-129"/>
<text text-anchor="middle" x="2105" y="-117" font-family="Helvetica,sans-Serif" font-size="10.00">compat/assert.h</text>
</a>
</g>
</g>
<!-- Node5&#45;&gt;Node25 -->
<g id="edge23_Node000005_Node000025" class="edge">
<title>Node5&#45;&gt;Node25</title>
<g id="a_edge23_Node000005_Node000025"><a xlink:title=" ">
<path fill="none" stroke="#63b8ff" d="M1727.21,-167.85C1797.02,-160.04 1926.26,-145.21 2047.25,-129.06"/>
<polygon fill="#63b8ff" stroke="#63b8ff" points="2047.98,-132.5 2057.43,-127.7 2047.05,-125.56 2047.98,-132.5"/>
</a>
</g>
</g>
<!-- Node26 -->
<g id="Node000026" class="node">
<title>Node26</title>
<g id="a_Node000026"><a xlink:href="compat__shared_8h.html" target="_top" xlink:title=" ">
<polygon fill="#fff0f0" stroke="red" points="2311,-129 2171,-129 2171,-110 2311,-110 2311,-129"/>
<text text-anchor="middle" x="2241" y="-117" font-family="Helvetica,sans-Serif" font-size="10.00">compat/compat_shared.h</text>
</a>
</g>
</g>
<!-- Node5&#45;&gt;Node26 -->
<g id="edge24_Node000005_Node000026" class="edge">
<title>Node5&#45;&gt;Node26</title>
<g id="a_edge24_Node000005_Node000026"><a xlink:title=" ">
<path fill="none" stroke="#63b8ff" d="M1727.35,-169.03C1814.08,-161.43 1995.39,-145.32 2160.42,-129.04"/>
<polygon fill="#63b8ff" stroke="#63b8ff" points="2161.16,-132.49 2170.77,-128.02 2160.47,-125.52 2161.16,-132.49"/>
</a>
</g>
</g>
<!-- Node36 -->
<g id="Node000036" class="node">
<title>Node36</title>
<g id="a_Node000036"><a xlink:href="stdvarargs_8h.html" target="_top" xlink:title=" ">
<polygon fill="#fff0f0" stroke="red" points="2446.5,-129 2329.5,-129 2329.5,-110 2446.5,-110 2446.5,-129"/>
<text text-anchor="middle" x="2388" y="-117" font-family="Helvetica,sans-Serif" font-size="10.00">compat/stdvarargs.h</text>
</a>
</g>
</g>
<!-- Node5&#45;&gt;Node36 -->
<g id="edge25_Node000005_Node000036" class="edge">
<title>Node5&#45;&gt;Node36</title>
<g id="a_edge25_Node000005_Node000036"><a xlink:title=" ">
<path fill="none" stroke="#63b8ff" d="M1727.01,-170.94C1834.41,-165.33 2092,-150.8 2319.3,-129.01"/>
<polygon fill="#63b8ff" stroke="#63b8ff" points="2319.8,-132.48 2329.42,-128.03 2319.13,-125.51 2319.8,-132.48"/>
</a>
</g>
</g>
<!-- Node38 -->
<g id="Node000038" class="node">
<title>Node38</title>
<g id="a_Node000038"><a xlink:href="stdio_8h.html" target="_top" xlink:title=" ">
<polygon fill="#fff0f0" stroke="red" points="2553.5,-129 2464.5,-129 2464.5,-110 2553.5,-110 2553.5,-129"/>
<text text-anchor="middle" x="2509" y="-117" font-family="Helvetica,sans-Serif" font-size="10.00">compat/stdio.h</text>
</a>
</g>
</g>
<!-- Node5&#45;&gt;Node38 -->
<g id="edge26_Node000005_Node000038" class="edge">
<title>Node5&#45;&gt;Node38</title>
<g id="a_edge26_Node000005_Node000038"><a xlink:title=" ">
<path fill="none" stroke="#63b8ff" d="M1727.18,-172.33C1850.49,-169.13 2173.87,-158.51 2454.3,-128.95"/>
<polygon fill="#63b8ff" stroke="#63b8ff" points="2454.68,-132.43 2464.26,-127.89 2453.94,-125.47 2454.68,-132.43"/>
</a>
</g>
</g>
<!-- Node40 -->
<g id="Node000040" class="node">
<title>Node40</title>
<g id="a_Node000040"><a xlink:href="statvfs_8h.html" target="_top" xlink:title=" ">
<polygon fill="white" stroke="#666666" points="2670.5,-129 2571.5,-129 2571.5,-110 2670.5,-110 2670.5,-129"/>
<text text-anchor="middle" x="2621" y="-117" font-family="Helvetica,sans-Serif" font-size="10.00">compat/statvfs.h</text>
</a>
</g>
</g>
<!-- Node5&#45;&gt;Node40 -->
<g id="edge27_Node000005_Node000040" class="edge">
<title>Node5&#45;&gt;Node40</title>
<g id="a_edge27_Node000005_Node000040"><a xlink:title=" ">
<path fill="none" stroke="#63b8ff" d="M1727.06,-172.59C1861.7,-169.85 2237.63,-159.89 2561.42,-128.95"/>
<polygon fill="#63b8ff" stroke="#63b8ff" points="2561.85,-132.42 2571.47,-127.98 2561.18,-125.45 2561.85,-132.42"/>
</a>
</g>
</g>
<!-- Node41 -->
<g id="Node000041" class="node">
<title>Node41</title>
<g id="a_Node000041"><a xlink:href="debug_8h.html" target="_top" xlink:title=" ">
<polygon fill="white" stroke="#666666" points="2783.5,-129 2688.5,-129 2688.5,-110 2783.5,-110 2783.5,-129"/>
<text text-anchor="middle" x="2736" y="-117" font-family="Helvetica,sans-Serif" font-size="10.00">compat/debug.h</text>
</a>
</g>
</g>
<!-- Node5&#45;&gt;Node41 -->
<g id="edge28_Node000005_Node000041" class="edge">
<title>Node5&#45;&gt;Node41</title>
<g id="a_edge28_Node000005_Node000041"><a xlink:title=" ">
<path fill="none" stroke="#63b8ff" d="M1727.01,-173.1C1873.37,-171.57 2307.37,-164.22 2678.33,-128.94"/>
<polygon fill="#63b8ff" stroke="#63b8ff" points="2678.84,-132.41 2688.46,-127.97 2678.17,-125.44 2678.84,-132.41"/>
</a>
</g>
</g>
<!-- Node42 -->
<g id="Node000042" class="node">
<title>Node42</title>
<g id="a_Node000042"><a xlink:href="valgrind_8h.html" target="_top" xlink:title=" ">
<polygon fill="#fff0f0" stroke="red" points="2906.5,-129 2801.5,-129 2801.5,-110 2906.5,-110 2906.5,-129"/>
<text text-anchor="middle" x="2854" y="-117" font-family="Helvetica,sans-Serif" font-size="10.00">compat/valgrind.h</text>
</a>
</g>
</g>
<!-- Node5&#45;&gt;Node42 -->
<g id="edge29_Node000005_Node000042" class="edge">
<title>Node5&#45;&gt;Node42</title>
<g id="a_edge29_Node000005_Node000042"><a xlink:title=" ">
<path fill="none" stroke="#63b8ff" d="M1727,-173.21C1884.04,-171.96 2374.29,-165.28 2791.13,-128.97"/>
<polygon fill="#63b8ff" stroke="#63b8ff" points="2791.62,-132.44 2801.27,-128.08 2791.01,-125.47 2791.62,-132.44"/>
</a>
</g>
</g>
<!-- Node45 -->
<g id="Node000045" class="node">
<title>Node45</title>
<g id="a_Node000045"><a xlink:href="anyp_2forward_8h.html" target="_top" xlink:title=" ">
<polygon fill="white" stroke="#666666" points="4026,-184 3936,-184 3936,-165 4026,-165 4026,-184"/>
<text text-anchor="middle" x="3981" y="-172" font-family="Helvetica,sans-Serif" font-size="10.00">anyp/forward.h</text>
</a>
</g>
</g>
<!-- Node44&#45;&gt;Node45 -->
<g id="edge31_Node000044_Node000045" class="edge">
<title>Node44&#45;&gt;Node45</title>
<g id="a_edge31_Node000044_Node000045"><a xlink:title=" ">
<path fill="none" stroke="#63b8ff" d="M3719.28,-220.1C3775.51,-210.52 3867.23,-194.89 3925.81,-184.91"/>
<polygon fill="#63b8ff" stroke="#63b8ff" points="3926.72,-188.3 3935.99,-183.17 3925.54,-181.4 3926.72,-188.3"/>
</a>
</g>
</g>
<!-- Node50 -->
<g id="Node000050" class="node">
<title>Node50</title>
<g id="a_Node000050"><a xlink:href="comm_2forward_8h.html" target="_top" xlink:title=" ">
<polygon fill="white" stroke="#666666" points="3879.5,-184 3782.5,-184 3782.5,-165 3879.5,-165 3879.5,-184"/>
<text text-anchor="middle" x="3831" y="-172" font-family="Helvetica,sans-Serif" font-size="10.00">comm/forward.h</text>
</a>
</g>
</g>
<!-- Node44&#45;&gt;Node50 -->
<g id="edge34_Node000044_Node000050" class="edge">
<title>Node44&#45;&gt;Node50</title>
<g id="a_edge34_Node000044_Node000050"><a xlink:title=" ">
<path fill="none" stroke="#63b8ff" d="M3695.87,-219.98C3722.78,-211.13 3765.12,-197.19 3795.23,-187.28"/>
<polygon fill="#63b8ff" stroke="#63b8ff" points="3796.53,-190.53 3804.93,-184.08 3794.34,-183.88 3796.53,-190.53"/>
</a>
</g>
</g>
<!-- Node51 -->
<g id="Node000051" class="node">
<title>Node51</title>
<g id="a_Node000051"><a xlink:title=" ">
<polygon fill="#e0e0e0" stroke="#999999" points="3919.5,-129 3872.5,-129 3872.5,-110 3919.5,-110 3919.5,-129"/>
<text text-anchor="middle" x="3896" y="-117" font-family="Helvetica,sans-Serif" font-size="10.00">vector</text>
</a>
</g>
</g>
<!-- Node44&#45;&gt;Node51 -->
<g id="edge50_Node000044_Node000051" class="edge">
<title>Node44&#45;&gt;Node51</title>
<g id="a_edge50_Node000044_Node000051"><a xlink:title=" ">
<path fill="none" stroke="#63b8ff" d="M3719.25,-225.12C3776.7,-220.09 3866.66,-208.46 3889,-184 3899.86,-172.11 3900.65,-153.28 3899.3,-139.21"/>
<polygon fill="#63b8ff" stroke="#63b8ff" points="3902.75,-138.59 3897.92,-129.17 3895.82,-139.55 3902.75,-138.59"/>
</a>
</g>
</g>
<!-- Node52 -->
<g id="Node000052" class="node">
<title>Node52</title>
<g id="a_Node000052"><a xlink:href="log_2forward_8h.html" target="_top" xlink:title=" ">
<polygon fill="white" stroke="#666666" points="3764.5,-184 3683.5,-184 3683.5,-165 3764.5,-165 3764.5,-184"/>
<text text-anchor="middle" x="3724" y="-172" font-family="Helvetica,sans-Serif" font-size="10.00">log/forward.h</text>
</a>
</g>
</g>
<!-- Node44&#45;&gt;Node52 -->
<g id="edge37_Node000044_Node000052" class="edge">
<title>Node44&#45;&gt;Node52</title>
<g id="a_edge37_Node000044_Node000052"><a xlink:title=" ">
<path fill="none" stroke="#63b8ff" d="M3678.92,-219.75C3686.78,-212.03 3698.43,-200.6 3707.92,-191.28"/>
<polygon fill="#63b8ff" stroke="#63b8ff" points="3710.56,-193.59 3715.25,-184.09 3705.66,-188.6 3710.56,-193.59"/>
</a>
</g>
</g>
<!-- Node53 -->
<g id="Node000053" class="node">
<title>Node53</title>
<g id="a_Node000053"><a xlink:href="Action_8h.html" target="_top" xlink:title=" ">
<polygon fill="white" stroke="#666666" points="3257.5,-184 3178.5,-184 3178.5,-165 3257.5,-165 3257.5,-184"/>
<text text-anchor="middle" x="3218" y="-172" font-family="Helvetica,sans-Serif" font-size="10.00">mgr/Action.h</text>
</a>
</g>
</g>
<!-- Node44&#45;&gt;Node53 -->
<g id="edge39_Node000044_Node000053" class="edge">
<title>Node44&#45;&gt;Node53</title>
<g id="a_edge39_Node000044_Node000053"><a xlink:title=" ">
<path fill="none" stroke="#63b8ff" d="M3620.87,-224.06C3546.7,-217.15 3401.5,-202.76 3267.58,-183.99"/>
<polygon fill="#63b8ff" stroke="#63b8ff" points="3267.94,-180.51 3257.55,-182.58 3266.96,-187.44 3267.94,-180.51"/>
</a>
</g>
</g>
<!-- Node56 -->
<g id="Node000056" class="node">
<title>Node56</title>
<g id="a_Node000056"><a xlink:href="mgr_2forward_8h.html" target="_top" xlink:title=" ">
<polygon fill="white" stroke="#666666" points="3542,-129 3456,-129 3456,-110 3542,-110 3542,-129"/>
<text text-anchor="middle" x="3499" y="-117" font-family="Helvetica,sans-Serif" font-size="10.00">mgr/forward.h</text>
</a>
</g>
</g>
<!-- Node44&#45;&gt;Node56 -->
<g id="edge49_Node000044_Node000056" class="edge">
<title>Node44&#45;&gt;Node56</title>
<g id="a_edge49_Node000044_Node000056"><a xlink:title=" ">
<path fill="none" stroke="#63b8ff" d="M3637.74,-219.87C3614.3,-212.64 3582.52,-200.78 3558,-184 3539.26,-171.17 3522.1,-151.4 3511.18,-137.33"/>
<polygon fill="#63b8ff" stroke="#63b8ff" points="3513.76,-134.92 3504.95,-129.03 3508.16,-139.13 3513.76,-134.92"/>
</a>
</g>
</g>
<!-- Node57 -->
<g id="Node000057" class="node">
<title>Node57</title>
<g id="a_Node000057"><a xlink:href="ActionProfile_8h.html" target="_top" xlink:title=" ">
<polygon fill="#fff0f0" stroke="red" points="3511,-184 3401,-184 3401,-165 3511,-165 3511,-184"/>
<text text-anchor="middle" x="3456" y="-172" font-family="Helvetica,sans-Serif" font-size="10.00">mgr/ActionProfile.h</text>
</a>
</g>
</g>
<!-- Node44&#45;&gt;Node57 -->
<g id="edge44_Node000044_Node000057" class="edge">
<title>Node44&#45;&gt;Node57</title>
<g id="a_edge44_Node000044_Node000057"><a xlink:title=" ">
<path fill="none" stroke="#63b8ff" d="M3635.62,-219.98C3598.91,-210.89 3540.62,-196.46 3500.45,-186.51"/>
<polygon fill="#63b8ff" stroke="#63b8ff" points="3501.2,-183.09 3490.65,-184.08 3499.52,-189.88 3501.2,-183.09"/>
</a>
</g>
</g>
<!-- Node59 -->
<g id="Node000059" class="node">
<title>Node59</title>
<g id="a_Node000059"><a xlink:href="Command_8h.html" target="_top" xlink:title=" ">
<polygon fill="#fff0f0" stroke="red" points="3665,-184 3567,-184 3567,-165 3665,-165 3665,-184"/>
<text text-anchor="middle" x="3616" y="-172" font-family="Helvetica,sans-Serif" font-size="10.00">mgr/Command.h</text>
</a>
</g>
</g>
<!-- Node44&#45;&gt;Node59 -->
<g id="edge47_Node000044_Node000059" class="edge">
<title>Node44&#45;&gt;Node59</title>
<g id="a_edge47_Node000044_Node000059"><a xlink:title=" ">
<path fill="none" stroke="#63b8ff" d="M3661.08,-219.75C3653.22,-212.03 3641.57,-200.6 3632.08,-191.28"/>
<polygon fill="#63b8ff" stroke="#63b8ff" points="3634.34,-188.6 3624.75,-184.09 3629.44,-193.59 3634.34,-188.6"/>
</a>
</g>
</g>
<!-- Node46 -->
<g id="Node000046" class="node">
<title>Node46</title>
<g id="a_Node000046"><a xlink:href="RefCount_8h.html" target="_top" xlink:title=" ">
<polygon fill="#fff0f0" stroke="red" points="3879.5,-74 3782.5,-74 3782.5,-55 3879.5,-55 3879.5,-74"/>
<text text-anchor="middle" x="3831" y="-62" font-family="Helvetica,sans-Serif" font-size="10.00">base/RefCount.h</text>
</a>
</g>
</g>
<!-- Node45&#45;&gt;Node46 -->
<g id="edge32_Node000045_Node000046" class="edge">
<title>Node45&#45;&gt;Node46</title>
<g id="a_edge32_Node000045_Node000046"><a xlink:title=" ">
<path fill="none" stroke="#63b8ff" d="M3975.63,-164.61C3967.17,-151.23 3949.56,-125.81 3929,-110 3910.62,-95.87 3887.05,-84.99 3867.62,-77.52"/>
<polygon fill="#63b8ff" stroke="#63b8ff" points="3868.77,-74.21 3858.18,-74.03 3866.35,-80.78 3868.77,-74.21"/>
</a>
</g>
</g>
<!-- Node48 -->
<g id="Node000048" class="node">
<title>Node48</title>
<g id="a_Node000048"><a xlink:title=" ">
<polygon fill="#e0e0e0" stroke="#999999" points="4393,-19 4333,-19 4333,0 4393,0 4393,-19"/>
<text text-anchor="middle" x="4363" y="-7" font-family="Helvetica,sans-Serif" font-size="10.00">iostream</text>
</a>
</g>
</g>
<!-- Node46&#45;&gt;Node48 -->
<g id="edge33_Node000046_Node000048" class="edge">
<title>Node46&#45;&gt;Node48</title>
<g id="a_edge33_Node000046_Node000048"><a xlink:title=" ">
<path fill="none" stroke="#63b8ff" d="M3879.62,-58.66C3983.71,-48.29 4226.44,-24.1 4322.66,-14.52"/>
<polygon fill="#63b8ff" stroke="#63b8ff" points="4323.25,-17.98 4332.85,-13.5 4322.56,-11.01 4323.25,-17.98"/>
</a>
</g>
</g>
<!-- Node50&#45;&gt;Node46 -->
<g id="edge35_Node000050_Node000046" class="edge">
<title>Node50&#45;&gt;Node46</title>
<g id="a_edge35_Node000050_Node000046"><a xlink:title=" ">
<path fill="none" stroke="#63b8ff" d="M3831,-164.66C3831,-147.17 3831,-107.8 3831,-84.27"/>
<polygon fill="#63b8ff" stroke="#63b8ff" points="3834.5,-84.16 3831,-74.16 3827.5,-84.16 3834.5,-84.16"/>
</a>
</g>
</g>
<!-- Node50&#45;&gt;Node51 -->
<g id="edge36_Node000050_Node000051" class="edge">
<title>Node50&#45;&gt;Node51</title>
<g id="a_edge36_Node000050_Node000051"><a xlink:title=" ">
<path fill="none" stroke="#63b8ff" d="M3841.44,-164.98C3851.15,-157.07 3865.82,-145.11 3877.5,-135.58"/>
<polygon fill="#63b8ff" stroke="#63b8ff" points="3879.83,-138.2 3885.37,-129.17 3875.4,-132.78 3879.83,-138.2"/>
</a>
</g>
</g>
<!-- Node52&#45;&gt;Node46 -->
<g id="edge38_Node000052_Node000046" class="edge">
<title>Node52&#45;&gt;Node46</title>
<g id="a_edge38_Node000052_Node000046"><a xlink:title=" ">
<path fill="none" stroke="#63b8ff" d="M3732.76,-164.66C3750.79,-146.46 3792.31,-104.55 3815.18,-81.47"/>
<polygon fill="#63b8ff" stroke="#63b8ff" points="3817.87,-83.73 3822.42,-74.16 3812.9,-78.8 3817.87,-83.73"/>
</a>
</g>
</g>
<!-- Node54 -->
<g id="Node000054" class="node">
<title>Node54</title>
<g id="a_Node000054"><a xlink:href="ipc_2forward_8h.html" target="_top" xlink:title=" ">
<polygon fill="white" stroke="#666666" points="3258,-129 3178,-129 3178,-110 3258,-110 3258,-129"/>
<text text-anchor="middle" x="3218" y="-117" font-family="Helvetica,sans-Serif" font-size="10.00">ipc/forward.h</text>
</a>
</g>
</g>
<!-- Node53&#45;&gt;Node54 -->
<g id="edge40_Node000053_Node000054" class="edge">
<title>Node53&#45;&gt;Node54</title>
<g id="a_edge40_Node000053_Node000054"><a xlink:title=" ">
<path fill="none" stroke="#63b8ff" d="M3218,-164.75C3218,-157.8 3218,-147.85 3218,-139.13"/>
<polygon fill="#63b8ff" stroke="#63b8ff" points="3221.5,-139.09 3218,-129.09 3214.5,-139.09 3221.5,-139.09"/>
</a>
</g>
</g>
<!-- Node55 -->
<g id="Node000055" class="node">
<title>Node55</title>
<g id="a_Node000055"><a xlink:href="ActionFeatures_8h.html" target="_top" xlink:title=" ">
<polygon fill="white" stroke="#666666" points="3397.5,-129 3276.5,-129 3276.5,-110 3397.5,-110 3397.5,-129"/>
<text text-anchor="middle" x="3337" y="-117" font-family="Helvetica,sans-Serif" font-size="10.00">mgr/ActionFeatures.h</text>
</a>
</g>
</g>
<!-- Node53&#45;&gt;Node55 -->
<g id="edge41_Node000053_Node000055" class="edge">
<title>Node53&#45;&gt;Node55</title>
<g id="a_edge41_Node000053_Node000055"><a xlink:title=" ">
<path fill="none" stroke="#63b8ff" d="M3237.12,-164.98C3256.35,-156.42 3286.23,-143.11 3308.31,-133.28"/>
<polygon fill="#63b8ff" stroke="#63b8ff" points="3309.82,-136.44 3317.53,-129.17 3306.97,-130.04 3309.82,-136.44"/>
</a>
</g>
</g>
<!-- Node53&#45;&gt;Node56 -->
<g id="edge42_Node000053_Node000056" class="edge">
<title>Node53&#45;&gt;Node56</title>
<g id="a_edge42_Node000053_Node000056"><a xlink:title=" ">
<path fill="none" stroke="#63b8ff" d="M3257.66,-166.02C3306.94,-156.72 3391.2,-140.83 3445.98,-130.5"/>
<polygon fill="#63b8ff" stroke="#63b8ff" points="3446.67,-133.93 3455.85,-128.64 3445.38,-127.05 3446.67,-133.93"/>
</a>
</g>
</g>
<!-- Node56&#45;&gt;Node46 -->
<g id="edge43_Node000056_Node000046" class="edge">
<title>Node56&#45;&gt;Node46</title>
<g id="a_edge43_Node000056_Node000046"><a xlink:title=" ">
<path fill="none" stroke="#63b8ff" d="M3542.06,-111.63C3600.77,-102.25 3706.14,-85.43 3772.12,-74.9"/>
<polygon fill="#63b8ff" stroke="#63b8ff" points="3773.03,-78.3 3782.36,-73.27 3771.93,-71.39 3773.03,-78.3"/>
</a>
</g>
</g>
<!-- Node57&#45;&gt;Node55 -->
<g id="edge45_Node000057_Node000055" class="edge">
<title>Node57&#45;&gt;Node55</title>
<g id="a_edge45_Node000057_Node000055"><a xlink:title=" ">
<path fill="none" stroke="#63b8ff" d="M3436.88,-164.98C3417.65,-156.42 3387.77,-143.11 3365.69,-133.28"/>
<polygon fill="#63b8ff" stroke="#63b8ff" points="3367.03,-130.04 3356.47,-129.17 3364.18,-136.44 3367.03,-130.04"/>
</a>
</g>
</g>
<!-- Node57&#45;&gt;Node56 -->
<g id="edge46_Node000057_Node000056" class="edge">
<title>Node57&#45;&gt;Node56</title>
<g id="a_edge46_Node000057_Node000056"><a xlink:title=" ">
<path fill="none" stroke="#63b8ff" d="M3463.1,-164.75C3469.17,-157.26 3478.09,-146.28 3485.51,-137.13"/>
<polygon fill="#63b8ff" stroke="#63b8ff" points="3488.45,-139.06 3492.03,-129.09 3483.01,-134.65 3488.45,-139.06"/>
</a>
</g>
</g>
<!-- Node59&#45;&gt;Node56 -->
<g id="edge48_Node000059_Node000056" class="edge">
<title>Node59&#45;&gt;Node56</title>
<g id="a_edge48_Node000059_Node000056"><a xlink:title=" ">
<path fill="none" stroke="#63b8ff" d="M3597.2,-164.98C3578.38,-156.46 3549.18,-143.23 3527.5,-133.41"/>
<polygon fill="#63b8ff" stroke="#63b8ff" points="3528.69,-130.11 3518.14,-129.17 3525.8,-136.48 3528.69,-130.11"/>
</a>
</g>
</g>
<!-- Node76&#45;&gt;Node48 -->
<g id="edge54_Node000076_Node000048" class="edge">
<title>Node76&#45;&gt;Node48</title>
<g id="a_edge54_Node000076_Node000048"><a xlink:title=" ">
<path fill="none" stroke="#63b8ff" d="M4261.14,-224.76C4289.6,-219.9 4324.1,-208.86 4344,-184 4380.24,-138.73 4372.92,-64.19 4366.91,-29.44"/>
<polygon fill="#63b8ff" stroke="#63b8ff" points="4370.28,-28.45 4364.99,-19.28 4363.41,-29.75 4370.28,-28.45"/>
</a>
</g>
</g>
<!-- Node74 -->
<g id="Node000074" class="node">
<title>Node74</title>
<g id="a_Node000074"><a xlink:href="Here_8h.html" target="_top" xlink:title=" ">
<polygon fill="#fff0f0" stroke="red" points="4193.5,-184 4118.5,-184 4118.5,-165 4193.5,-165 4193.5,-184"/>
<text text-anchor="middle" x="4156" y="-172" font-family="Helvetica,sans-Serif" font-size="10.00">base/Here.h</text>
</a>
</g>
</g>
<!-- Node76&#45;&gt;Node74 -->
<g id="edge52_Node000076_Node000074" class="edge">
<title>Node76&#45;&gt;Node74</title>
<g id="a_edge52_Node000076_Node000074"><a xlink:title=" ">
<path fill="none" stroke="#63b8ff" d="M4204.68,-219.98C4196.19,-212.23 4183.44,-200.58 4173.12,-191.14"/>
<polygon fill="#63b8ff" stroke="#63b8ff" points="4175.23,-188.33 4165.49,-184.17 4170.51,-193.5 4175.23,-188.33"/>
</a>
</g>
</g>
<!-- Node77 -->
<g id="Node000077" class="node">
<title>Node77</title>
<g id="a_Node000077"><a xlink:href="AllocatorProxy_8h.html" target="_top" xlink:title=" ">
<polygon fill="white" stroke="#666666" points="4335,-184 4211,-184 4211,-165 4335,-165 4335,-184"/>
<text text-anchor="middle" x="4273" y="-172" font-family="Helvetica,sans-Serif" font-size="10.00">mem/AllocatorProxy.h</text>
</a>
</g>
</g>
<!-- Node76&#45;&gt;Node77 -->
<g id="edge53_Node000076_Node000077" class="edge">
<title>Node76&#45;&gt;Node77</title>
<g id="a_edge53_Node000076_Node000077"><a xlink:title=" ">
<path fill="none" stroke="#63b8ff" d="M4223.48,-219.98C4232.2,-212.15 4245.34,-200.34 4255.9,-190.86"/>
<polygon fill="#63b8ff" stroke="#63b8ff" points="4258.25,-193.46 4263.35,-184.17 4253.57,-188.25 4258.25,-193.46"/>
</a>
</g>
</g>
<!-- Node78 -->
<g id="Node000078" class="node">
<title>Node78</title>
<g id="a_Node000078"><a xlink:title=" ">
<polygon fill="#e0e0e0" stroke="#999999" points="4447,-184 4391,-184 4391,-165 4447,-165 4447,-184"/>
<text text-anchor="middle" x="4419" y="-172" font-family="Helvetica,sans-Serif" font-size="10.00">sstream</text>
</a>
</g>
</g>
<!-- Node76&#45;&gt;Node78 -->
<g id="edge55_Node000076_Node000078" class="edge">
<title>Node76&#45;&gt;Node78</title>
<g id="a_edge55_Node000076_Node000078"><a xlink:title=" ">
<path fill="none" stroke="#63b8ff" d="M4246.94,-219.98C4283.51,-210.53 4342.45,-195.29 4380.96,-185.33"/>
<polygon fill="#63b8ff" stroke="#63b8ff" points="4381.96,-188.69 4390.76,-182.8 4380.21,-181.91 4381.96,-188.69"/>
</a>
</g>
</g>
<!-- Node79 -->
<g id="Node000079" class="node">
<title>Node79</title>
<g id="a_Node000079"><a xlink:title=" ">
<polygon fill="#e0e0e0" stroke="#999999" points="4100,-184 4044,-184 4044,-165 4100,-165 4100,-184"/>
<text text-anchor="middle" x="4072" y="-172" font-family="Helvetica,sans-Serif" font-size="10.00">iomanip</text>
</a>
</g>
</g>
<!-- Node76&#45;&gt;Node79 -->
<g id="edge56_Node000076_Node000079" class="edge">
<title>Node76&#45;&gt;Node79</title>
<g id="a_edge56_Node000076_Node000079"><a xlink:title=" ">
<path fill="none" stroke="#63b8ff" d="M4191.19,-219.98C4167.83,-211.27 4131.3,-197.63 4104.83,-187.75"/>
<polygon fill="#63b8ff" stroke="#63b8ff" points="4105.82,-184.39 4095.23,-184.17 4103.37,-190.95 4105.82,-184.39"/>
</a>
</g>
</g>
<!-- Node101&#45;&gt;Node55 -->
<g id="edge58_Node000101_Node000055" class="edge">
<title>Node101&#45;&gt;Node55</title>
<g id="a_edge58_Node000101_Node000055"><a xlink:title=" ">
<path fill="none" stroke="#63b8ff" d="M3330.32,-164.75C3331.37,-157.8 3332.87,-147.85 3334.19,-139.13"/>
<polygon fill="#63b8ff" stroke="#63b8ff" points="3337.67,-139.5 3335.7,-129.09 3330.75,-138.45 3337.67,-139.5"/>
</a>
</g>
</g>
<!-- Node101&#45;&gt;Node56 -->
<g id="edge59_Node000101_Node000056" class="edge">
<title>Node101&#45;&gt;Node56</title>
<g id="a_edge59_Node000101_Node000056"><a xlink:title=" ">
<path fill="none" stroke="#63b8ff" d="M3356.31,-164.98C3384.85,-156.09 3429.83,-142.07 3461.64,-132.15"/>
<polygon fill="#63b8ff" stroke="#63b8ff" points="3462.97,-135.4 3471.47,-129.08 3460.88,-128.72 3462.97,-135.4"/>
</a>
</g>
</g>
<!-- Node102&#45;&gt;Node48 -->
<g id="edge61_Node000102_Node000048" class="edge">
<title>Node102&#45;&gt;Node48</title>
<g id="a_edge61_Node000102_Node000048"><a xlink:title=" ">
<path fill="none" stroke="#63b8ff" d="M4438.54,-54.98C4424.58,-46.77 4403.21,-34.18 4386.75,-24.49"/>
<polygon fill="#63b8ff" stroke="#63b8ff" points="4388.12,-21.23 4377.72,-19.17 4384.56,-27.26 4388.12,-21.23"/>
</a>
</g>
</g>
</g>
</svg>

<g id="navigator" transform="translate(0 0)" fill="#404254">
  <rect fill="#f2f5e9" fill-opacity="0.5" stroke="#606060" stroke-width=".5" x="0" y="0" width="60" height="60"/>
  <use id="zoomplus" xlink:href="#zoomPlus" x="17" y="9" onmousedown="handleZoom(evt,'in')"/>
  <use id="zoomminus" xlink:href="#zoomMin" x="42" y="9" onmousedown="handleZoom(evt,'out')"/>
  <use id="reset" xlink:href="#resetDef" x="30" y="36" onmousedown="handleReset()"/>
   <use id="arrowup" xlink:href="#arrowUp" x="0" y="0" onmousedown="handlePan(0,-1)"/>
  <use id="arrowright" xlink:href="#arrowRight" x="0" y="0" onmousedown="handlePan(1,0)"/>
  <use id="arrowdown" xlink:href="#arrowDown" x="0" y="0" onmousedown="handlePan(0,1)"/>
  <use id="arrowleft" xlink:href="#arrowLeft" x="0" y="0" onmousedown="handlePan(-1,0)"/>
</g>
<svg viewBox="0 0 15 15" width="100%" height="30px" preserveAspectRatio="xMaxYMin meet">
 <g id="arrow_out" transform="scale(0.3 0.3)">
  <a xlink:href="stub__cache__manager_8cc__incl_org.svg" target="_base">
   <rect id="button" ry="5" rx="5" y="6" x="6" height="38" width="38"
        fill="#f2f5e9" fill-opacity="0.5" stroke="#606060" stroke-width="1.0"/>
   <path id="arrow"
     d="M 11.500037,31.436501 C 11.940474,20.09759 22.043105,11.32322 32.158766,21.979434 L 37.068811,17.246167 C 37.068811,17.246167 37.088388,32 37.088388,32 L 22.160133,31.978069 C 22.160133,31.978069 26.997745,27.140456 26.997745,27.140456 C 18.528582,18.264221 13.291696,25.230495 11.500037,31.436501 z"
     style="fill:#404040;"/>
  </a>
 </g>
</svg>

<style type='text/css'>
<![CDATA[
[data-mouse-over-selected='false'] { opacity: 0.7; }
[data-mouse-over-selected='true']  { opacity: 1.0; }
]]>
</style>
<script type="application/ecmascript"><![CDATA[
document.addEventListener('DOMContentLoaded', (event) => {
  highlightEdges();
  highlightAdjacentNodes();
});
]]></script>
</svg>
