<?xml version="1.0" encoding="UTF-8" standalone="no"?>
<!DOCTYPE svg PUBLIC "-//W3C//DTD SVG 1.1//EN"
 "http://www.w3.org/Graphics/SVG/1.1/DTD/svg11.dtd">
<!-- Generated by graphviz version 2.43.0 (0)
 -->
<!-- Title: squid/src/tests/stub_libdns.cc Pages: 1 -->
<svg width="4121pt" height="313pt"
 viewBox="0.00 0.00 4121.00 313.00" xmlns="http://www.w3.org/2000/svg" xmlns:xlink="http://www.w3.org/1999/xlink">
<g id="graph0" class="graph" transform="scale(1 1) rotate(0) translate(4 309)">
<title>squid/src/tests/stub_libdns.cc</title>
<!-- Node1 -->
<g id="Node000001" class="node">
<title>Node1</title>
<g id="a_Node000001"><a xlink:title=" ">
<polygon fill="#999999" stroke="#666666" points="3356,-305 3245,-305 3245,-275 3356,-275 3356,-305"/>
<text text-anchor="start" x="3253" y="-293" font-family="Helvetica,sans-Serif" font-size="10.00">squid/src/tests/stub</text>
<text text-anchor="middle" x="3300.5" y="-282" font-family="Helvetica,sans-Serif" font-size="10.00">_libdns.cc</text>
</a>
</g>
</g>
<!-- Node2 -->
<g id="Node000002" class="node">
<title>Node2</title>
<g id="a_Node000002"><a xlink:href="squid_8h.html" target="_top" xlink:title=" ">
<polygon fill="white" stroke="#666666" points="1720.5,-239 1668.5,-239 1668.5,-220 1720.5,-220 1720.5,-239"/>
<text text-anchor="middle" x="1694.5" y="-227" font-family="Helvetica,sans-Serif" font-size="10.00">squid.h</text>
</a>
</g>
</g>
<!-- Node1&#45;&gt;Node2 -->
<g id="edge1_Node000001_Node000002" class="edge">
<title>Node1&#45;&gt;Node2</title>
<g id="a_edge1_Node000001_Node000002"><a xlink:title=" ">
<path fill="none" stroke="#63b8ff" d="M3244.75,-286.97C2989.93,-277.69 1939.45,-239.42 1730.67,-231.82"/>
<polygon fill="#63b8ff" stroke="#63b8ff" points="1730.68,-228.32 1720.56,-231.45 1730.42,-235.31 1730.68,-228.32"/>
</a>
</g>
</g>
<!-- Node45 -->
<g id="Node000045" class="node">
<title>Node45</title>
<g id="a_Node000045"><a xlink:href="STUB_8h.html" target="_top" xlink:title=" ">
<polygon fill="white" stroke="#666666" points="3340,-239 3261,-239 3261,-220 3340,-220 3340,-239"/>
<text text-anchor="middle" x="3300.5" y="-227" font-family="Helvetica,sans-Serif" font-size="10.00">tests/STUB.h</text>
</a>
</g>
</g>
<!-- Node1&#45;&gt;Node45 -->
<g id="edge35_Node000001_Node000045" class="edge">
<title>Node1&#45;&gt;Node45</title>
<g id="a_edge35_Node000001_Node000045"><a xlink:title=" ">
<path fill="none" stroke="#63b8ff" d="M3300.5,-274.84C3300.5,-267.21 3300.5,-257.7 3300.5,-249.45"/>
<polygon fill="#63b8ff" stroke="#63b8ff" points="3304,-249.27 3300.5,-239.27 3297,-249.27 3304,-249.27"/>
</a>
</g>
</g>
<!-- Node47 -->
<g id="Node000047" class="node">
<title>Node47</title>
<g id="a_Node000047"><a xlink:href="LookupDetails_8h.html" target="_top" xlink:title=" ">
<polygon fill="white" stroke="#666666" points="3698,-239 3583,-239 3583,-220 3698,-220 3698,-239"/>
<text text-anchor="middle" x="3640.5" y="-227" font-family="Helvetica,sans-Serif" font-size="10.00">dns/LookupDetails.h</text>
</a>
</g>
</g>
<!-- Node1&#45;&gt;Node47 -->
<g id="edge37_Node000001_Node000047" class="edge">
<title>Node1&#45;&gt;Node47</title>
<g id="a_edge37_Node000001_Node000047"><a xlink:title=" ">
<path fill="none" stroke="#63b8ff" d="M3356.26,-279.41C3418.1,-268.77 3517.47,-251.67 3580.83,-240.77"/>
<polygon fill="#63b8ff" stroke="#63b8ff" points="3581.8,-244.15 3591.07,-239.01 3580.62,-237.25 3581.8,-244.15"/>
</a>
</g>
</g>
<!-- Node3 -->
<g id="Node000003" class="node">
<title>Node3</title>
<g id="a_Node000003"><a xlink:href="autoconf_8h.html" target="_top" xlink:title=" ">
<polygon fill="white" stroke="#666666" points="1595.5,-184 1527.5,-184 1527.5,-165 1595.5,-165 1595.5,-184"/>
<text text-anchor="middle" x="1561.5" y="-172" font-family="Helvetica,sans-Serif" font-size="10.00">autoconf.h</text>
</a>
</g>
</g>
<!-- Node2&#45;&gt;Node3 -->
<g id="edge2_Node000002_Node000003" class="edge">
<title>Node2&#45;&gt;Node3</title>
<g id="a_edge2_Node000002_Node000003"><a xlink:title=" ">
<path fill="none" stroke="#63b8ff" d="M1673.13,-219.98C1651.35,-211.3 1617.34,-197.75 1592.58,-187.88"/>
<polygon fill="#63b8ff" stroke="#63b8ff" points="1593.84,-184.62 1583.26,-184.17 1591.25,-191.12 1593.84,-184.62"/>
</a>
</g>
</g>
<!-- Node4 -->
<g id="Node000004" class="node">
<title>Node4</title>
<g id="a_Node000004"><a xlink:href="version_8h.html" target="_top" xlink:title=" ">
<polygon fill="white" stroke="#666666" points="1675.5,-184 1613.5,-184 1613.5,-165 1675.5,-165 1675.5,-184"/>
<text text-anchor="middle" x="1644.5" y="-172" font-family="Helvetica,sans-Serif" font-size="10.00">version.h</text>
</a>
</g>
</g>
<!-- Node2&#45;&gt;Node4 -->
<g id="edge3_Node000002_Node000004" class="edge">
<title>Node2&#45;&gt;Node4</title>
<g id="a_edge3_Node000002_Node000004"><a xlink:title=" ">
<path fill="none" stroke="#63b8ff" d="M1686.24,-219.75C1679.04,-212.11 1668.39,-200.82 1659.65,-191.56"/>
<polygon fill="#63b8ff" stroke="#63b8ff" points="1662.01,-188.96 1652.6,-184.09 1656.92,-193.76 1662.01,-188.96"/>
</a>
</g>
</g>
<!-- Node5 -->
<g id="Node000005" class="node">
<title>Node5</title>
<g id="a_Node000005"><a xlink:href="compat_8h.html" target="_top" xlink:title=" ">
<polygon fill="white" stroke="#666666" points="1795.5,-184 1693.5,-184 1693.5,-165 1795.5,-165 1795.5,-184"/>
<text text-anchor="middle" x="1744.5" y="-172" font-family="Helvetica,sans-Serif" font-size="10.00">compat/compat.h</text>
</a>
</g>
</g>
<!-- Node2&#45;&gt;Node5 -->
<g id="edge4_Node000002_Node000005" class="edge">
<title>Node2&#45;&gt;Node5</title>
<g id="a_edge4_Node000002_Node000005"><a xlink:title=" ">
<path fill="none" stroke="#63b8ff" d="M1702.76,-219.75C1709.96,-212.11 1720.61,-200.82 1729.35,-191.56"/>
<polygon fill="#63b8ff" stroke="#63b8ff" points="1732.08,-193.76 1736.4,-184.09 1726.99,-188.96 1732.08,-193.76"/>
</a>
</g>
</g>
<!-- Node6 -->
<g id="Node000006" class="node">
<title>Node6</title>
<g id="a_Node000006"><a xlink:href="osdetect_8h.html" target="_top" xlink:title=" ">
<polygon fill="white" stroke="#666666" points="107,-129 0,-129 0,-110 107,-110 107,-129"/>
<text text-anchor="middle" x="53.5" y="-117" font-family="Helvetica,sans-Serif" font-size="10.00">compat/osdetect.h</text>
</a>
</g>
</g>
<!-- Node5&#45;&gt;Node6 -->
<g id="edge5_Node000005_Node000006" class="edge">
<title>Node5&#45;&gt;Node6</title>
<g id="a_edge5_Node000005_Node000006"><a xlink:title=" ">
<path fill="none" stroke="#63b8ff" d="M1693.48,-165.86C1690.45,-165.53 1687.44,-165.24 1684.5,-165 993.07,-108.28 813.13,-182.97 117.1,-128.92"/>
<polygon fill="#63b8ff" stroke="#63b8ff" points="117.32,-125.43 107.07,-128.14 116.77,-132.41 117.32,-125.43"/>
</a>
</g>
</g>
<!-- Node7 -->
<g id="Node000007" class="node">
<title>Node7</title>
<g id="a_Node000007"><a xlink:href="fdsetsize_8h.html" target="_top" xlink:title=" ">
<polygon fill="white" stroke="#666666" points="235.5,-129 125.5,-129 125.5,-110 235.5,-110 235.5,-129"/>
<text text-anchor="middle" x="180.5" y="-117" font-family="Helvetica,sans-Serif" font-size="10.00">compat/fdsetsize.h</text>
</a>
</g>
</g>
<!-- Node5&#45;&gt;Node7 -->
<g id="edge6_Node000005_Node000007" class="edge">
<title>Node5&#45;&gt;Node7</title>
<g id="a_edge6_Node000005_Node000007"><a xlink:title=" ">
<path fill="none" stroke="#63b8ff" d="M1693.48,-165.86C1690.45,-165.54 1687.44,-165.24 1684.5,-165 1049.92,-112.3 884.5,-178.5 246,-129.01"/>
<polygon fill="#63b8ff" stroke="#63b8ff" points="245.86,-125.49 235.62,-128.2 245.32,-132.47 245.86,-125.49"/>
</a>
</g>
</g>
<!-- Node8 -->
<g id="Node000008" class="node">
<title>Node8</title>
<g id="a_Node000008"><a xlink:href="types_8h.html" target="_top" xlink:title=" ">
<polygon fill="white" stroke="#666666" points="345.5,-129 253.5,-129 253.5,-110 345.5,-110 345.5,-129"/>
<text text-anchor="middle" x="299.5" y="-117" font-family="Helvetica,sans-Serif" font-size="10.00">compat/types.h</text>
</a>
</g>
</g>
<!-- Node5&#45;&gt;Node8 -->
<g id="edge7_Node000005_Node000008" class="edge">
<title>Node5&#45;&gt;Node8</title>
<g id="a_edge7_Node000005_Node000008"><a xlink:title=" ">
<path fill="none" stroke="#63b8ff" d="M1693.48,-165.87C1690.45,-165.54 1687.44,-165.25 1684.5,-165 1098.56,-115.73 945.14,-181.52 355.69,-128.97"/>
<polygon fill="#63b8ff" stroke="#63b8ff" points="355.93,-125.48 345.66,-128.07 355.31,-132.45 355.93,-125.48"/>
</a>
</g>
</g>
<!-- Node10 -->
<g id="Node000010" class="node">
<title>Node10</title>
<g id="a_Node000010"><a xlink:href="aix_8h.html" target="_top" xlink:title=" ">
<polygon fill="white" stroke="#666666" points="459,-129 364,-129 364,-110 459,-110 459,-129"/>
<text text-anchor="middle" x="411.5" y="-117" font-family="Helvetica,sans-Serif" font-size="10.00">compat/os/aix.h</text>
</a>
</g>
</g>
<!-- Node5&#45;&gt;Node10 -->
<g id="edge9_Node000005_Node000010" class="edge">
<title>Node5&#45;&gt;Node10</title>
<g id="a_edge9_Node000005_Node000010"><a xlink:title=" ">
<path fill="none" stroke="#63b8ff" d="M1693.48,-165.88C1690.45,-165.55 1687.44,-165.25 1684.5,-165 1149.07,-119.29 1008.76,-176.25 469.02,-128.9"/>
<polygon fill="#63b8ff" stroke="#63b8ff" points="469.31,-125.41 459.04,-128.02 468.69,-132.39 469.31,-125.41"/>
</a>
</g>
</g>
<!-- Node11 -->
<g id="Node000011" class="node">
<title>Node11</title>
<g id="a_Node000011"><a xlink:href="android_8h.html" target="_top" xlink:title=" ">
<polygon fill="white" stroke="#666666" points="593.5,-129 477.5,-129 477.5,-110 593.5,-110 593.5,-129"/>
<text text-anchor="middle" x="535.5" y="-117" font-family="Helvetica,sans-Serif" font-size="10.00">compat/os/android.h</text>
</a>
</g>
</g>
<!-- Node5&#45;&gt;Node11 -->
<g id="edge10_Node000005_Node000011" class="edge">
<title>Node5&#45;&gt;Node11</title>
<g id="a_edge10_Node000005_Node000011"><a xlink:title=" ">
<path fill="none" stroke="#63b8ff" d="M1693.48,-165.89C1690.45,-165.56 1687.43,-165.26 1684.5,-165 1208.56,-123.49 1083.89,-166.7 603.89,-129.02"/>
<polygon fill="#63b8ff" stroke="#63b8ff" points="603.82,-125.5 593.57,-128.2 603.26,-132.48 603.82,-125.5"/>
</a>
</g>
</g>
<!-- Node12 -->
<g id="Node000012" class="node">
<title>Node12</title>
<g id="a_Node000012"><a xlink:href="dragonfly_8h.html" target="_top" xlink:title=" ">
<polygon fill="white" stroke="#666666" points="735.5,-129 611.5,-129 611.5,-110 735.5,-110 735.5,-129"/>
<text text-anchor="middle" x="673.5" y="-117" font-family="Helvetica,sans-Serif" font-size="10.00">compat/os/dragonfly.h</text>
</a>
</g>
</g>
<!-- Node5&#45;&gt;Node12 -->
<g id="edge11_Node000005_Node000012" class="edge">
<title>Node5&#45;&gt;Node12</title>
<g id="a_edge11_Node000005_Node000012"><a xlink:title=" ">
<path fill="none" stroke="#63b8ff" d="M1693.48,-165.91C1690.44,-165.57 1687.43,-165.26 1684.5,-165 1271.44,-127.93 1163.03,-161.33 746.03,-129.05"/>
<polygon fill="#63b8ff" stroke="#63b8ff" points="746.05,-125.54 735.81,-128.25 745.51,-132.52 746.05,-125.54"/>
</a>
</g>
</g>
<!-- Node13 -->
<g id="Node000013" class="node">
<title>Node13</title>
<g id="a_Node000013"><a xlink:href="freebsd_8h.html" target="_top" xlink:title=" ">
<polygon fill="white" stroke="#666666" points="869.5,-129 753.5,-129 753.5,-110 869.5,-110 869.5,-129"/>
<text text-anchor="middle" x="811.5" y="-117" font-family="Helvetica,sans-Serif" font-size="10.00">compat/os/freebsd.h</text>
</a>
</g>
</g>
<!-- Node5&#45;&gt;Node13 -->
<g id="edge12_Node000005_Node000013" class="edge">
<title>Node5&#45;&gt;Node13</title>
<g id="a_edge12_Node000005_Node000013"><a xlink:title=" ">
<path fill="none" stroke="#63b8ff" d="M1693.48,-165.93C1690.44,-165.59 1687.43,-165.27 1684.5,-165 1330.77,-132.12 1237.5,-159.08 879.7,-129.02"/>
<polygon fill="#63b8ff" stroke="#63b8ff" points="879.83,-125.52 869.57,-128.16 879.24,-132.5 879.83,-125.52"/>
</a>
</g>
</g>
<!-- Node14 -->
<g id="Node000014" class="node">
<title>Node14</title>
<g id="a_Node000014"><a xlink:href="hpux_8h.html" target="_top" xlink:title=" ">
<polygon fill="white" stroke="#666666" points="991.5,-129 887.5,-129 887.5,-110 991.5,-110 991.5,-129"/>
<text text-anchor="middle" x="939.5" y="-117" font-family="Helvetica,sans-Serif" font-size="10.00">compat/os/hpux.h</text>
</a>
</g>
</g>
<!-- Node5&#45;&gt;Node14 -->
<g id="edge13_Node000005_Node000014" class="edge">
<title>Node5&#45;&gt;Node14</title>
<g id="a_edge13_Node000005_Node000014"><a xlink:title=" ">
<path fill="none" stroke="#63b8ff" d="M1693.47,-165.96C1690.44,-165.61 1687.43,-165.28 1684.5,-165 1384.76,-135.94 1305.23,-157.56 1001.68,-129.02"/>
<polygon fill="#63b8ff" stroke="#63b8ff" points="1002,-125.54 991.71,-128.08 1001.33,-132.51 1002,-125.54"/>
</a>
</g>
</g>
<!-- Node15 -->
<g id="Node000015" class="node">
<title>Node15</title>
<g id="a_Node000015"><a xlink:href="linux_8h.html" target="_top" xlink:title=" ">
<polygon fill="white" stroke="#666666" points="1113.5,-129 1009.5,-129 1009.5,-110 1113.5,-110 1113.5,-129"/>
<text text-anchor="middle" x="1061.5" y="-117" font-family="Helvetica,sans-Serif" font-size="10.00">compat/os/linux.h</text>
</a>
</g>
</g>
<!-- Node5&#45;&gt;Node15 -->
<g id="edge14_Node000005_Node000015" class="edge">
<title>Node5&#45;&gt;Node15</title>
<g id="a_edge14_Node000005_Node000015"><a xlink:title=" ">
<path fill="none" stroke="#63b8ff" d="M1693.47,-166C1690.44,-165.64 1687.43,-165.3 1684.5,-165 1438.8,-139.76 1373.23,-153.9 1123.81,-129.05"/>
<polygon fill="#63b8ff" stroke="#63b8ff" points="1124.01,-125.56 1113.71,-128.04 1123.31,-132.52 1124.01,-125.56"/>
</a>
</g>
</g>
<!-- Node16 -->
<g id="Node000016" class="node">
<title>Node16</title>
<g id="a_Node000016"><a xlink:href="macosx_8h.html" target="_top" xlink:title=" ">
<polygon fill="white" stroke="#666666" points="1249.5,-129 1131.5,-129 1131.5,-110 1249.5,-110 1249.5,-129"/>
<text text-anchor="middle" x="1190.5" y="-117" font-family="Helvetica,sans-Serif" font-size="10.00">compat/os/macosx.h</text>
</a>
</g>
</g>
<!-- Node5&#45;&gt;Node16 -->
<g id="edge15_Node000005_Node000016" class="edge">
<title>Node5&#45;&gt;Node16</title>
<g id="a_edge15_Node000005_Node000016"><a xlink:title=" ">
<path fill="none" stroke="#63b8ff" d="M1693.46,-166.07C1690.43,-165.69 1687.43,-165.33 1684.5,-165 1498.92,-144.03 1449.16,-148.62 1259.83,-129.1"/>
<polygon fill="#63b8ff" stroke="#63b8ff" points="1260.13,-125.61 1249.82,-128.06 1259.41,-132.57 1260.13,-125.61"/>
</a>
</g>
</g>
<!-- Node17 -->
<g id="Node000017" class="node">
<title>Node17</title>
<g id="a_Node000017"><a xlink:href="mingw_8h.html" target="_top" xlink:title=" ">
<polygon fill="white" stroke="#666666" points="1379.5,-129 1267.5,-129 1267.5,-110 1379.5,-110 1379.5,-129"/>
<text text-anchor="middle" x="1323.5" y="-117" font-family="Helvetica,sans-Serif" font-size="10.00">compat/os/mingw.h</text>
</a>
</g>
</g>
<!-- Node5&#45;&gt;Node17 -->
<g id="edge16_Node000005_Node000017" class="edge">
<title>Node5&#45;&gt;Node17</title>
<g id="a_edge16_Node000005_Node000017"><a xlink:title=" ">
<path fill="none" stroke="#63b8ff" d="M1693.45,-166.2C1690.42,-165.79 1687.42,-165.38 1684.5,-165 1556.32,-148.13 1521.66,-145.7 1389.61,-129.13"/>
<polygon fill="#63b8ff" stroke="#63b8ff" points="1389.87,-125.63 1379.52,-127.86 1389,-132.58 1389.87,-125.63"/>
</a>
</g>
</g>
<!-- Node18 -->
<g id="Node000018" class="node">
<title>Node18</title>
<g id="a_Node000018"><a xlink:href="mswindows_8h.html" target="_top" xlink:title=" ">
<polygon fill="white" stroke="#666666" points="1535,-129 1398,-129 1398,-110 1535,-110 1535,-129"/>
<text text-anchor="middle" x="1466.5" y="-117" font-family="Helvetica,sans-Serif" font-size="10.00">compat/os/mswindows.h</text>
</a>
</g>
</g>
<!-- Node5&#45;&gt;Node18 -->
<g id="edge17_Node000005_Node000018" class="edge">
<title>Node5&#45;&gt;Node18</title>
<g id="a_edge17_Node000005_Node000018"><a xlink:title=" ">
<path fill="none" stroke="#63b8ff" d="M1699.83,-164.98C1651.34,-155.74 1573.85,-140.97 1521.61,-131.01"/>
<polygon fill="#63b8ff" stroke="#63b8ff" points="1521.99,-127.52 1511.52,-129.08 1520.68,-134.39 1521.99,-127.52"/>
</a>
</g>
</g>
<!-- Node19 -->
<g id="Node000019" class="node">
<title>Node19</title>
<g id="a_Node000019"><a xlink:href="netbsd_8h.html" target="_top" xlink:title=" ">
<polygon fill="white" stroke="#666666" points="1666,-129 1553,-129 1553,-110 1666,-110 1666,-129"/>
<text text-anchor="middle" x="1609.5" y="-117" font-family="Helvetica,sans-Serif" font-size="10.00">compat/os/netbsd.h</text>
</a>
</g>
</g>
<!-- Node5&#45;&gt;Node19 -->
<g id="edge18_Node000005_Node000019" class="edge">
<title>Node5&#45;&gt;Node19</title>
<g id="a_edge18_Node000005_Node000019"><a xlink:title=" ">
<path fill="none" stroke="#63b8ff" d="M1722.81,-164.98C1700.7,-156.3 1666.18,-142.75 1641.05,-132.88"/>
<polygon fill="#63b8ff" stroke="#63b8ff" points="1642.17,-129.57 1631.58,-129.17 1639.61,-136.08 1642.17,-129.57"/>
</a>
</g>
</g>
<!-- Node20 -->
<g id="Node000020" class="node">
<title>Node20</title>
<g id="a_Node000020"><a xlink:href="openbsd_8h.html" target="_top" xlink:title=" ">
<polygon fill="white" stroke="#666666" points="1805,-129 1684,-129 1684,-110 1805,-110 1805,-129"/>
<text text-anchor="middle" x="1744.5" y="-117" font-family="Helvetica,sans-Serif" font-size="10.00">compat/os/openbsd.h</text>
</a>
</g>
</g>
<!-- Node5&#45;&gt;Node20 -->
<g id="edge19_Node000005_Node000020" class="edge">
<title>Node5&#45;&gt;Node20</title>
<g id="a_edge19_Node000005_Node000020"><a xlink:title=" ">
<path fill="none" stroke="#63b8ff" d="M1744.5,-164.75C1744.5,-157.8 1744.5,-147.85 1744.5,-139.13"/>
<polygon fill="#63b8ff" stroke="#63b8ff" points="1748,-139.09 1744.5,-129.09 1741,-139.09 1748,-139.09"/>
</a>
</g>
</g>
<!-- Node21 -->
<g id="Node000021" class="node">
<title>Node21</title>
<g id="a_Node000021"><a xlink:href="os2_8h.html" target="_top" xlink:title=" ">
<polygon fill="white" stroke="#666666" points="1920,-129 1823,-129 1823,-110 1920,-110 1920,-129"/>
<text text-anchor="middle" x="1871.5" y="-117" font-family="Helvetica,sans-Serif" font-size="10.00">compat/os/os2.h</text>
</a>
</g>
</g>
<!-- Node5&#45;&gt;Node21 -->
<g id="edge20_Node000005_Node000021" class="edge">
<title>Node5&#45;&gt;Node21</title>
<g id="a_edge20_Node000005_Node000021"><a xlink:title=" ">
<path fill="none" stroke="#63b8ff" d="M1764.9,-164.98C1785.52,-156.38 1817.61,-142.99 1841.19,-133.15"/>
<polygon fill="#63b8ff" stroke="#63b8ff" points="1842.84,-136.25 1850.72,-129.17 1840.15,-129.79 1842.84,-136.25"/>
</a>
</g>
</g>
<!-- Node22 -->
<g id="Node000022" class="node">
<title>Node22</title>
<g id="a_Node000022"><a xlink:href="qnx_8h.html" target="_top" xlink:title=" ">
<polygon fill="white" stroke="#666666" points="2036.5,-129 1938.5,-129 1938.5,-110 2036.5,-110 2036.5,-129"/>
<text text-anchor="middle" x="1987.5" y="-117" font-family="Helvetica,sans-Serif" font-size="10.00">compat/os/qnx.h</text>
</a>
</g>
</g>
<!-- Node5&#45;&gt;Node22 -->
<g id="edge21_Node000005_Node000022" class="edge">
<title>Node5&#45;&gt;Node22</title>
<g id="a_edge21_Node000005_Node000022"><a xlink:title=" ">
<path fill="none" stroke="#63b8ff" d="M1783.54,-164.98C1825.58,-155.82 1892.54,-141.21 1938.18,-131.26"/>
<polygon fill="#63b8ff" stroke="#63b8ff" points="1939.13,-134.63 1948.15,-129.08 1937.64,-127.79 1939.13,-134.63"/>
</a>
</g>
</g>
<!-- Node23 -->
<g id="Node000023" class="node">
<title>Node23</title>
<g id="a_Node000023"><a xlink:href="sgi_8h.html" target="_top" xlink:title=" ">
<polygon fill="white" stroke="#666666" points="2148.5,-129 2054.5,-129 2054.5,-110 2148.5,-110 2148.5,-129"/>
<text text-anchor="middle" x="2101.5" y="-117" font-family="Helvetica,sans-Serif" font-size="10.00">compat/os/sgi.h</text>
</a>
</g>
</g>
<!-- Node5&#45;&gt;Node23 -->
<g id="edge22_Node000005_Node000023" class="edge">
<title>Node5&#45;&gt;Node23</title>
<g id="a_edge22_Node000005_Node000023"><a xlink:title=" ">
<path fill="none" stroke="#63b8ff" d="M1795.64,-166C1853.48,-157.5 1950.8,-143.17 2044.51,-129.14"/>
<polygon fill="#63b8ff" stroke="#63b8ff" points="2045.08,-132.6 2054.45,-127.66 2044.04,-125.68 2045.08,-132.6"/>
</a>
</g>
</g>
<!-- Node24 -->
<g id="Node000024" class="node">
<title>Node24</title>
<g id="a_Node000024"><a xlink:href="solaris_8h.html" target="_top" xlink:title=" ">
<polygon fill="white" stroke="#666666" points="2278.5,-129 2166.5,-129 2166.5,-110 2278.5,-110 2278.5,-129"/>
<text text-anchor="middle" x="2222.5" y="-117" font-family="Helvetica,sans-Serif" font-size="10.00">compat/os/solaris.h</text>
</a>
</g>
</g>
<!-- Node5&#45;&gt;Node24 -->
<g id="edge23_Node000005_Node000024" class="edge">
<title>Node5&#45;&gt;Node24</title>
<g id="a_edge23_Node000005_Node000024"><a xlink:title=" ">
<path fill="none" stroke="#63b8ff" d="M1795.73,-168.36C1871.93,-160.63 2019.9,-145.29 2156.27,-129.12"/>
<polygon fill="#63b8ff" stroke="#63b8ff" points="2156.97,-132.56 2166.49,-127.91 2156.15,-125.61 2156.97,-132.56"/>
</a>
</g>
</g>
<!-- Node25 -->
<g id="Node000025" class="node">
<title>Node25</title>
<g id="a_Node000025"><a xlink:href="sunos_8h.html" target="_top" xlink:title=" ">
<polygon fill="white" stroke="#666666" points="2404.5,-129 2296.5,-129 2296.5,-110 2404.5,-110 2404.5,-129"/>
<text text-anchor="middle" x="2350.5" y="-117" font-family="Helvetica,sans-Serif" font-size="10.00">compat/os/sunos.h</text>
</a>
</g>
</g>
<!-- Node5&#45;&gt;Node25 -->
<g id="edge24_Node000005_Node000025" class="edge">
<title>Node5&#45;&gt;Node25</title>
<g id="a_edge24_Node000005_Node000025"><a xlink:title=" ">
<path fill="none" stroke="#63b8ff" d="M1795.87,-170.19C1890.65,-163.89 2099.67,-149.07 2286.23,-129.08"/>
<polygon fill="#63b8ff" stroke="#63b8ff" points="2286.66,-132.56 2296.23,-128.01 2285.91,-125.6 2286.66,-132.56"/>
</a>
</g>
</g>
<!-- Node26 -->
<g id="Node000026" class="node">
<title>Node26</title>
<g id="a_Node000026"><a xlink:href="assert_8h.html" target="_top" xlink:title=" ">
<polygon fill="white" stroke="#666666" points="2518,-129 2423,-129 2423,-110 2518,-110 2518,-129"/>
<text text-anchor="middle" x="2470.5" y="-117" font-family="Helvetica,sans-Serif" font-size="10.00">compat/assert.h</text>
</a>
</g>
</g>
<!-- Node5&#45;&gt;Node26 -->
<g id="edge25_Node000005_Node000026" class="edge">
<title>Node5&#45;&gt;Node26</title>
<g id="a_edge25_Node000005_Node000026"><a xlink:title=" ">
<path fill="none" stroke="#63b8ff" d="M1795.82,-171.52C1906.49,-166.93 2175.99,-154.1 2412.77,-128.98"/>
<polygon fill="#63b8ff" stroke="#63b8ff" points="2413.38,-132.43 2422.95,-127.89 2412.64,-125.47 2413.38,-132.43"/>
</a>
</g>
</g>
<!-- Node27 -->
<g id="Node000027" class="node">
<title>Node27</title>
<g id="a_Node000027"><a xlink:href="compat__shared_8h.html" target="_top" xlink:title=" ">
<polygon fill="#fff0f0" stroke="red" points="2676.5,-129 2536.5,-129 2536.5,-110 2676.5,-110 2676.5,-129"/>
<text text-anchor="middle" x="2606.5" y="-117" font-family="Helvetica,sans-Serif" font-size="10.00">compat/compat_shared.h</text>
</a>
</g>
</g>
<!-- Node5&#45;&gt;Node27 -->
<g id="edge26_Node000005_Node000027" class="edge">
<title>Node5&#45;&gt;Node27</title>
<g id="a_edge26_Node000005_Node000027"><a xlink:title=" ">
<path fill="none" stroke="#63b8ff" d="M1795.8,-171.45C1919.39,-166.33 2243.65,-151.78 2526.24,-128.97"/>
<polygon fill="#63b8ff" stroke="#63b8ff" points="2526.59,-132.46 2536.28,-128.16 2526.03,-125.48 2526.59,-132.46"/>
</a>
</g>
</g>
<!-- Node37 -->
<g id="Node000037" class="node">
<title>Node37</title>
<g id="a_Node000037"><a xlink:href="stdvarargs_8h.html" target="_top" xlink:title=" ">
<polygon fill="#fff0f0" stroke="red" points="2812,-129 2695,-129 2695,-110 2812,-110 2812,-129"/>
<text text-anchor="middle" x="2753.5" y="-117" font-family="Helvetica,sans-Serif" font-size="10.00">compat/stdvarargs.h</text>
</a>
</g>
</g>
<!-- Node5&#45;&gt;Node37 -->
<g id="edge30_Node000005_Node000037" class="edge">
<title>Node5&#45;&gt;Node37</title>
<g id="a_edge30_Node000005_Node000037"><a xlink:title=" ">
<path fill="none" stroke="#63b8ff" d="M1795.59,-172.47C1935.84,-169.34 2338.79,-158.37 2684.96,-128.97"/>
<polygon fill="#63b8ff" stroke="#63b8ff" points="2685.26,-132.45 2694.92,-128.11 2684.66,-125.48 2685.26,-132.45"/>
</a>
</g>
</g>
<!-- Node39 -->
<g id="Node000039" class="node">
<title>Node39</title>
<g id="a_Node000039"><a xlink:href="stdio_8h.html" target="_top" xlink:title=" ">
<polygon fill="#fff0f0" stroke="red" points="2919,-129 2830,-129 2830,-110 2919,-110 2919,-129"/>
<text text-anchor="middle" x="2874.5" y="-117" font-family="Helvetica,sans-Serif" font-size="10.00">compat/stdio.h</text>
</a>
</g>
</g>
<!-- Node5&#45;&gt;Node39 -->
<g id="edge31_Node000005_Node000039" class="edge">
<title>Node5&#45;&gt;Node39</title>
<g id="a_edge31_Node000005_Node000039"><a xlink:title=" ">
<path fill="none" stroke="#63b8ff" d="M1795.61,-173.46C1949.11,-172.92 2419.56,-168.01 2819.73,-128.94"/>
<polygon fill="#63b8ff" stroke="#63b8ff" points="2820.15,-132.41 2829.76,-127.95 2819.47,-125.44 2820.15,-132.41"/>
</a>
</g>
</g>
<!-- Node41 -->
<g id="Node000041" class="node">
<title>Node41</title>
<g id="a_Node000041"><a xlink:href="statvfs_8h.html" target="_top" xlink:title=" ">
<polygon fill="white" stroke="#666666" points="3036,-129 2937,-129 2937,-110 3036,-110 3036,-129"/>
<text text-anchor="middle" x="2986.5" y="-117" font-family="Helvetica,sans-Serif" font-size="10.00">compat/statvfs.h</text>
</a>
</g>
</g>
<!-- Node5&#45;&gt;Node41 -->
<g id="edge32_Node000005_Node000041" class="edge">
<title>Node5&#45;&gt;Node41</title>
<g id="a_edge32_Node000005_Node000041"><a xlink:title=" ">
<path fill="none" stroke="#63b8ff" d="M1795.64,-173.5C1958.96,-173.09 2482.74,-168.63 2926.82,-128.94"/>
<polygon fill="#63b8ff" stroke="#63b8ff" points="2927.32,-132.41 2936.97,-128.02 2926.7,-125.43 2927.32,-132.41"/>
</a>
</g>
</g>
<!-- Node42 -->
<g id="Node000042" class="node">
<title>Node42</title>
<g id="a_Node000042"><a xlink:href="debug_8h.html" target="_top" xlink:title=" ">
<polygon fill="white" stroke="#666666" points="3149,-129 3054,-129 3054,-110 3149,-110 3149,-129"/>
<text text-anchor="middle" x="3101.5" y="-117" font-family="Helvetica,sans-Serif" font-size="10.00">compat/debug.h</text>
</a>
</g>
</g>
<!-- Node5&#45;&gt;Node42 -->
<g id="edge33_Node000005_Node000042" class="edge">
<title>Node5&#45;&gt;Node42</title>
<g id="a_edge33_Node000005_Node000042"><a xlink:title=" ">
<path fill="none" stroke="#63b8ff" d="M1795.73,-173.84C1969.44,-174.54 2552.1,-173.28 3043.82,-128.92"/>
<polygon fill="#63b8ff" stroke="#63b8ff" points="3044.32,-132.39 3053.96,-128 3043.69,-125.42 3044.32,-132.39"/>
</a>
</g>
</g>
<!-- Node43 -->
<g id="Node000043" class="node">
<title>Node43</title>
<g id="a_Node000043"><a xlink:href="valgrind_8h.html" target="_top" xlink:title=" ">
<polygon fill="#fff0f0" stroke="red" points="3272,-129 3167,-129 3167,-110 3272,-110 3272,-129"/>
<text text-anchor="middle" x="3219.5" y="-117" font-family="Helvetica,sans-Serif" font-size="10.00">compat/valgrind.h</text>
</a>
</g>
</g>
<!-- Node5&#45;&gt;Node43 -->
<g id="edge34_Node000005_Node000043" class="edge">
<title>Node5&#45;&gt;Node43</title>
<g id="a_edge34_Node000005_Node000043"><a xlink:title=" ">
<path fill="none" stroke="#63b8ff" d="M1795.62,-173.82C1978.61,-174.56 2618.28,-173.65 3156.47,-128.97"/>
<polygon fill="#63b8ff" stroke="#63b8ff" points="3157.1,-132.43 3166.78,-128.11 3156.52,-125.46 3157.1,-132.43"/>
</a>
</g>
</g>
<!-- Node9 -->
<g id="Node000009" class="node">
<title>Node9</title>
<g id="a_Node000009"><a xlink:title=" ">
<polygon fill="#e0e0e0" stroke="#999999" points="324.5,-74 274.5,-74 274.5,-55 324.5,-55 324.5,-74"/>
<text text-anchor="middle" x="299.5" y="-62" font-family="Helvetica,sans-Serif" font-size="10.00">cstdint</text>
</a>
</g>
</g>
<!-- Node8&#45;&gt;Node9 -->
<g id="edge8_Node000008_Node000009" class="edge">
<title>Node8&#45;&gt;Node9</title>
<g id="a_edge8_Node000008_Node000009"><a xlink:title=" ">
<path fill="none" stroke="#63b8ff" d="M299.5,-109.75C299.5,-102.8 299.5,-92.85 299.5,-84.13"/>
<polygon fill="#63b8ff" stroke="#63b8ff" points="303,-84.09 299.5,-74.09 296,-84.09 303,-84.09"/>
</a>
</g>
</g>
<!-- Node28 -->
<g id="Node000028" class="node">
<title>Node28</title>
<g id="a_Node000028"><a xlink:title=" ">
<polygon fill="#e0e0e0" stroke="#999999" points="2541,-74 2490,-74 2490,-55 2541,-55 2541,-74"/>
<text text-anchor="middle" x="2515.5" y="-62" font-family="Helvetica,sans-Serif" font-size="10.00">csignal</text>
</a>
</g>
</g>
<!-- Node27&#45;&gt;Node28 -->
<g id="edge27_Node000027_Node000028" class="edge">
<title>Node27&#45;&gt;Node28</title>
<g id="a_edge27_Node000027_Node000028"><a xlink:title=" ">
<path fill="none" stroke="#63b8ff" d="M2591.88,-109.98C2577.64,-101.69 2555.75,-88.94 2539.05,-79.22"/>
<polygon fill="#63b8ff" stroke="#63b8ff" points="2540.79,-76.18 2530.39,-74.17 2537.27,-82.23 2540.79,-76.18"/>
</a>
</g>
</g>
<!-- Node29 -->
<g id="Node000029" class="node">
<title>Node29</title>
<g id="a_Node000029"><a xlink:href="xalloc_8h.html" target="_top" xlink:title=" ">
<polygon fill="white" stroke="#666666" points="2654,-74 2559,-74 2559,-55 2654,-55 2654,-74"/>
<text text-anchor="middle" x="2606.5" y="-62" font-family="Helvetica,sans-Serif" font-size="10.00">compat/xalloc.h</text>
</a>
</g>
</g>
<!-- Node27&#45;&gt;Node29 -->
<g id="edge28_Node000027_Node000029" class="edge">
<title>Node27&#45;&gt;Node29</title>
<g id="a_edge28_Node000027_Node000029"><a xlink:title=" ">
<path fill="none" stroke="#63b8ff" d="M2606.5,-109.75C2606.5,-102.8 2606.5,-92.85 2606.5,-84.13"/>
<polygon fill="#63b8ff" stroke="#63b8ff" points="2610,-84.09 2606.5,-74.09 2603,-84.09 2610,-84.09"/>
</a>
</g>
</g>
<!-- Node30 -->
<g id="Node000030" class="node">
<title>Node30</title>
<g id="a_Node000030"><a xlink:href="xis_8h.html" target="_top" xlink:title=" ">
<polygon fill="#fff0f0" stroke="red" points="2752.5,-74 2672.5,-74 2672.5,-55 2752.5,-55 2752.5,-74"/>
<text text-anchor="middle" x="2712.5" y="-62" font-family="Helvetica,sans-Serif" font-size="10.00">compat/xis.h</text>
</a>
</g>
</g>
<!-- Node27&#45;&gt;Node30 -->
<g id="edge29_Node000027_Node000030" class="edge">
<title>Node27&#45;&gt;Node30</title>
<g id="a_edge29_Node000027_Node000030"><a xlink:title=" ">
<path fill="none" stroke="#63b8ff" d="M2623.53,-109.98C2640.43,-101.54 2666.56,-88.47 2686.14,-78.68"/>
<polygon fill="#63b8ff" stroke="#63b8ff" points="2687.78,-81.77 2695.16,-74.17 2684.65,-75.51 2687.78,-81.77"/>
</a>
</g>
</g>
<!-- Node46 -->
<g id="Node000046" class="node">
<title>Node46</title>
<g id="a_Node000046"><a xlink:title=" ">
<polygon fill="#e0e0e0" stroke="#999999" points="3367.5,-74 3307.5,-74 3307.5,-55 3367.5,-55 3367.5,-74"/>
<text text-anchor="middle" x="3337.5" y="-62" font-family="Helvetica,sans-Serif" font-size="10.00">iostream</text>
</a>
</g>
</g>
<!-- Node45&#45;&gt;Node46 -->
<g id="edge36_Node000045_Node000046" class="edge">
<title>Node45&#45;&gt;Node46</title>
<g id="a_edge36_Node000045_Node000046"><a xlink:title=" ">
<path fill="none" stroke="#63b8ff" d="M3301.22,-219.73C3303.01,-199.89 3308.32,-150.14 3319.5,-110 3321.99,-101.07 3325.71,-91.5 3329.13,-83.53"/>
<polygon fill="#63b8ff" stroke="#63b8ff" points="3332.43,-84.72 3333.31,-74.16 3326.04,-81.86 3332.43,-84.72"/>
</a>
</g>
</g>
<!-- Node48 -->
<g id="Node000048" class="node">
<title>Node48</title>
<g id="a_Node000048"><a xlink:href="SBuf_8h.html" target="_top" xlink:title=" ">
<polygon fill="white" stroke="#666666" points="3676,-184 3605,-184 3605,-165 3676,-165 3676,-184"/>
<text text-anchor="middle" x="3640.5" y="-172" font-family="Helvetica,sans-Serif" font-size="10.00">sbuf/SBuf.h</text>
</a>
</g>
</g>
<!-- Node47&#45;&gt;Node48 -->
<g id="edge38_Node000047_Node000048" class="edge">
<title>Node47&#45;&gt;Node48</title>
<g id="a_edge38_Node000047_Node000048"><a xlink:title=" ">
<path fill="none" stroke="#63b8ff" d="M3640.5,-219.75C3640.5,-212.8 3640.5,-202.85 3640.5,-194.13"/>
<polygon fill="#63b8ff" stroke="#63b8ff" points="3644,-194.09 3640.5,-184.09 3637,-194.09 3644,-194.09"/>
</a>
</g>
</g>
<!-- Node82 -->
<g id="Node000082" class="node">
<title>Node82</title>
<g id="a_Node000082"><a xlink:title=" ">
<polygon fill="#e0e0e0" stroke="#999999" points="3750.5,-184 3694.5,-184 3694.5,-165 3750.5,-165 3750.5,-184"/>
<text text-anchor="middle" x="3722.5" y="-172" font-family="Helvetica,sans-Serif" font-size="10.00">optional</text>
</a>
</g>
</g>
<!-- Node47&#45;&gt;Node82 -->
<g id="edge53_Node000047_Node000082" class="edge">
<title>Node47&#45;&gt;Node82</title>
<g id="a_edge53_Node000047_Node000082"><a xlink:title=" ">
<path fill="none" stroke="#63b8ff" d="M3653.67,-219.98C3666.27,-211.84 3685.5,-199.41 3700.44,-189.76"/>
<polygon fill="#63b8ff" stroke="#63b8ff" points="3702.59,-192.54 3709.09,-184.17 3698.79,-186.66 3702.59,-192.54"/>
</a>
</g>
</g>
<!-- Node49 -->
<g id="Node000049" class="node">
<title>Node49</title>
<g id="a_Node000049"><a xlink:href="InstanceId_8h.html" target="_top" xlink:title=" ">
<polygon fill="white" stroke="#666666" points="3582.5,-74 3480.5,-74 3480.5,-55 3582.5,-55 3582.5,-74"/>
<text text-anchor="middle" x="3531.5" y="-62" font-family="Helvetica,sans-Serif" font-size="10.00">base/InstanceId.h</text>
</a>
</g>
</g>
<!-- Node48&#45;&gt;Node49 -->
<g id="edge39_Node000048_Node000049" class="edge">
<title>Node48&#45;&gt;Node49</title>
<g id="a_edge39_Node000048_Node000049"><a xlink:title=" ">
<path fill="none" stroke="#63b8ff" d="M3604.72,-172.46C3573.37,-169.42 3529.48,-159.53 3507.5,-129 3497.33,-114.88 3506.88,-95.92 3516.78,-82.41"/>
<polygon fill="#63b8ff" stroke="#63b8ff" points="3519.65,-84.42 3523.13,-74.41 3514.17,-80.06 3519.65,-84.42"/>
</a>
</g>
</g>
<!-- Node50 -->
<g id="Node000050" class="node">
<title>Node50</title>
<g id="a_Node000050"><a xlink:title=" ">
<polygon fill="#e0e0e0" stroke="#999999" points="3555.5,-19 3507.5,-19 3507.5,0 3555.5,0 3555.5,-19"/>
<text text-anchor="middle" x="3531.5" y="-7" font-family="Helvetica,sans-Serif" font-size="10.00">iosfwd</text>
</a>
</g>
</g>
<!-- Node48&#45;&gt;Node50 -->
<g id="edge51_Node000048_Node000050" class="edge">
<title>Node48&#45;&gt;Node50</title>
<g id="a_edge51_Node000048_Node000050"><a xlink:title=" ">
<path fill="none" stroke="#63b8ff" d="M3604.95,-170.01C3573.98,-165.32 3529.47,-154.39 3499.5,-129 3472.67,-106.27 3455.69,-86.41 3471.5,-55 3478.19,-41.71 3490.94,-31.39 3502.97,-24.05"/>
<polygon fill="#63b8ff" stroke="#63b8ff" points="3504.92,-26.97 3511.92,-19.02 3501.49,-20.87 3504.92,-26.97"/>
</a>
</g>
</g>
<!-- Node51 -->
<g id="Node000051" class="node">
<title>Node51</title>
<g id="a_Node000051"><a xlink:href="TextException_8h.html" target="_top" xlink:title=" ">
<polygon fill="#fff0f0" stroke="red" points="3788.5,-129 3668.5,-129 3668.5,-110 3788.5,-110 3788.5,-129"/>
<text text-anchor="middle" x="3728.5" y="-117" font-family="Helvetica,sans-Serif" font-size="10.00">base/TextException.h</text>
</a>
</g>
</g>
<!-- Node48&#45;&gt;Node51 -->
<g id="edge41_Node000048_Node000051" class="edge">
<title>Node48&#45;&gt;Node51</title>
<g id="a_edge41_Node000048_Node000051"><a xlink:title=" ">
<path fill="none" stroke="#63b8ff" d="M3654.64,-164.98C3668.29,-156.77 3689.19,-144.18 3705.28,-134.49"/>
<polygon fill="#63b8ff" stroke="#63b8ff" points="3707.34,-137.33 3714.1,-129.17 3703.73,-131.33 3707.34,-137.33"/>
</a>
</g>
</g>
<!-- Node55 -->
<g id="Node000055" class="node">
<title>Node55</title>
<g id="a_Node000055"><a xlink:href="debug_2Stream_8h.html" target="_top" xlink:title=" ">
<polygon fill="#fff0f0" stroke="red" points="3422.5,-129 3328.5,-129 3328.5,-110 3422.5,-110 3422.5,-129"/>
<text text-anchor="middle" x="3375.5" y="-117" font-family="Helvetica,sans-Serif" font-size="10.00">debug/Stream.h</text>
</a>
</g>
</g>
<!-- Node48&#45;&gt;Node55 -->
<g id="edge42_Node000048_Node000055" class="edge">
<title>Node48&#45;&gt;Node55</title>
<g id="a_edge42_Node000048_Node000055"><a xlink:title=" ">
<path fill="none" stroke="#63b8ff" d="M3604.76,-166.35C3559.33,-157.27 3480.53,-141.51 3428.2,-131.04"/>
<polygon fill="#63b8ff" stroke="#63b8ff" points="3428.6,-127.55 3418.11,-129.02 3427.23,-134.41 3428.6,-127.55"/>
</a>
</g>
</g>
<!-- Node59 -->
<g id="Node000059" class="node">
<title>Node59</title>
<g id="a_Node000059"><a xlink:href="globals_8h.html" target="_top" xlink:title=" ">
<polygon fill="#fff0f0" stroke="red" points="3868,-129 3807,-129 3807,-110 3868,-110 3868,-129"/>
<text text-anchor="middle" x="3837.5" y="-117" font-family="Helvetica,sans-Serif" font-size="10.00">globals.h</text>
</a>
</g>
</g>
<!-- Node48&#45;&gt;Node59 -->
<g id="edge44_Node000048_Node000059" class="edge">
<title>Node48&#45;&gt;Node59</title>
<g id="a_edge44_Node000048_Node000059"><a xlink:title=" ">
<path fill="none" stroke="#63b8ff" d="M3672.15,-164.98C3706.05,-155.86 3759.96,-141.36 3796.95,-131.41"/>
<polygon fill="#63b8ff" stroke="#63b8ff" points="3798.15,-134.71 3806.9,-128.73 3796.33,-127.95 3798.15,-134.71"/>
</a>
</g>
</g>
<!-- Node70 -->
<g id="Node000070" class="node">
<title>Node70</title>
<g id="a_Node000070"><a xlink:href="sbuf_2forward_8h.html" target="_top" xlink:title=" ">
<polygon fill="#fff0f0" stroke="red" points="3973,-129 3886,-129 3886,-110 3973,-110 3973,-129"/>
<text text-anchor="middle" x="3929.5" y="-117" font-family="Helvetica,sans-Serif" font-size="10.00">sbuf/forward.h</text>
</a>
</g>
</g>
<!-- Node48&#45;&gt;Node70 -->
<g id="edge45_Node000048_Node000070" class="edge">
<title>Node48&#45;&gt;Node70</title>
<g id="a_edge45_Node000048_Node000070"><a xlink:title=" ">
<path fill="none" stroke="#63b8ff" d="M3676.36,-166.71C3679.45,-166.13 3682.53,-165.55 3685.5,-165 3750.91,-152.86 3826.25,-139.16 3875.7,-130.21"/>
<polygon fill="#63b8ff" stroke="#63b8ff" points="3876.63,-133.6 3885.85,-128.38 3875.39,-126.71 3876.63,-133.6"/>
</a>
</g>
</g>
<!-- Node77 -->
<g id="Node000077" class="node">
<title>Node77</title>
<g id="a_Node000077"><a xlink:href="MemBlob_8h.html" target="_top" xlink:title=" ">
<polygon fill="#fff0f0" stroke="red" points="3612.5,-129 3516.5,-129 3516.5,-110 3612.5,-110 3612.5,-129"/>
<text text-anchor="middle" x="3564.5" y="-117" font-family="Helvetica,sans-Serif" font-size="10.00">sbuf/MemBlob.h</text>
</a>
</g>
</g>
<!-- Node48&#45;&gt;Node77 -->
<g id="edge46_Node000048_Node000077" class="edge">
<title>Node48&#45;&gt;Node77</title>
<g id="a_edge46_Node000048_Node000077"><a xlink:title=" ">
<path fill="none" stroke="#63b8ff" d="M3628.29,-164.98C3616.72,-156.92 3599.12,-144.65 3585.34,-135.03"/>
<polygon fill="#63b8ff" stroke="#63b8ff" points="3587.14,-132.02 3576.93,-129.17 3583.13,-137.76 3587.14,-132.02"/>
</a>
</g>
</g>
<!-- Node79 -->
<g id="Node000079" class="node">
<title>Node79</title>
<g id="a_Node000079"><a xlink:href="sbuf_2Stats_8h.html" target="_top" xlink:title=" ">
<polygon fill="white" stroke="#666666" points="3675.5,-74 3601.5,-74 3601.5,-55 3675.5,-55 3675.5,-74"/>
<text text-anchor="middle" x="3638.5" y="-62" font-family="Helvetica,sans-Serif" font-size="10.00">sbuf/Stats.h</text>
</a>
</g>
</g>
<!-- Node48&#45;&gt;Node79 -->
<g id="edge48_Node000048_Node000079" class="edge">
<title>Node48&#45;&gt;Node79</title>
<g id="a_edge48_Node000048_Node000079"><a xlink:title=" ">
<path fill="none" stroke="#63b8ff" d="M3640.34,-164.66C3640.01,-147.17 3639.28,-107.8 3638.85,-84.27"/>
<polygon fill="#63b8ff" stroke="#63b8ff" points="3642.34,-84.09 3638.66,-74.16 3635.35,-84.22 3642.34,-84.09"/>
</a>
</g>
</g>
<!-- Node80 -->
<g id="Node000080" class="node">
<title>Node80</title>
<g id="a_Node000080"><a xlink:title=" ">
<polygon fill="#e0e0e0" stroke="#999999" points="4041.5,-129 3991.5,-129 3991.5,-110 4041.5,-110 4041.5,-129"/>
<text text-anchor="middle" x="4016.5" y="-117" font-family="Helvetica,sans-Serif" font-size="10.00">climits</text>
</a>
</g>
</g>
<!-- Node48&#45;&gt;Node80 -->
<g id="edge50_Node000048_Node000080" class="edge">
<title>Node48&#45;&gt;Node80</title>
<g id="a_edge50_Node000048_Node000080"><a xlink:title=" ">
<path fill="none" stroke="#63b8ff" d="M3676.32,-166.51C3679.42,-165.97 3682.51,-165.46 3685.5,-165 3813.69,-145.15 3849.99,-152.77 3981.29,-129.01"/>
<polygon fill="#63b8ff" stroke="#63b8ff" points="3982.12,-132.41 3991.33,-127.16 3980.86,-125.53 3982.12,-132.41"/>
</a>
</g>
</g>
<!-- Node81 -->
<g id="Node000081" class="node">
<title>Node81</title>
<g id="a_Node000081"><a xlink:title=" ">
<polygon fill="#e0e0e0" stroke="#999999" points="4113,-129 4060,-129 4060,-110 4113,-110 4113,-129"/>
<text text-anchor="middle" x="4086.5" y="-117" font-family="Helvetica,sans-Serif" font-size="10.00">iterator</text>
</a>
</g>
</g>
<!-- Node48&#45;&gt;Node81 -->
<g id="edge52_Node000048_Node000081" class="edge">
<title>Node48&#45;&gt;Node81</title>
<g id="a_edge52_Node000048_Node000081"><a xlink:title=" ">
<path fill="none" stroke="#63b8ff" d="M3676.31,-166.44C3679.42,-165.92 3682.51,-165.43 3685.5,-165 3843.55,-142.32 3887.9,-155.23 4049.54,-128.92"/>
<polygon fill="#63b8ff" stroke="#63b8ff" points="4050.55,-132.3 4059.84,-127.21 4049.41,-125.39 4050.55,-132.3"/>
</a>
</g>
</g>
<!-- Node49&#45;&gt;Node50 -->
<g id="edge40_Node000049_Node000050" class="edge">
<title>Node49&#45;&gt;Node50</title>
<g id="a_edge40_Node000049_Node000050"><a xlink:title=" ">
<path fill="none" stroke="#63b8ff" d="M3531.5,-54.75C3531.5,-47.8 3531.5,-37.85 3531.5,-29.13"/>
<polygon fill="#63b8ff" stroke="#63b8ff" points="3535,-29.09 3531.5,-19.09 3528,-29.09 3535,-29.09"/>
</a>
</g>
</g>
<!-- Node55&#45;&gt;Node46 -->
<g id="edge43_Node000055_Node000046" class="edge">
<title>Node55&#45;&gt;Node46</title>
<g id="a_edge43_Node000055_Node000046"><a xlink:title=" ">
<path fill="none" stroke="#63b8ff" d="M3369.23,-109.75C3363.91,-102.34 3356.14,-91.5 3349.62,-82.41"/>
<polygon fill="#63b8ff" stroke="#63b8ff" points="3352.33,-80.18 3343.66,-74.09 3346.64,-84.26 3352.33,-80.18"/>
</a>
</g>
</g>
<!-- Node77&#45;&gt;Node49 -->
<g id="edge47_Node000077_Node000049" class="edge">
<title>Node77&#45;&gt;Node49</title>
<g id="a_edge47_Node000077_Node000049"><a xlink:title=" ">
<path fill="none" stroke="#63b8ff" d="M3559.05,-109.75C3554.49,-102.42 3547.83,-91.73 3542.21,-82.7"/>
<polygon fill="#63b8ff" stroke="#63b8ff" points="3545.1,-80.73 3536.85,-74.09 3539.16,-84.43 3545.1,-80.73"/>
</a>
</g>
</g>
<!-- Node79&#45;&gt;Node50 -->
<g id="edge49_Node000079_Node000050" class="edge">
<title>Node79&#45;&gt;Node50</title>
<g id="a_edge49_Node000079_Node000050"><a xlink:title=" ">
<path fill="none" stroke="#63b8ff" d="M3621.31,-54.98C3604.25,-46.54 3577.87,-33.47 3558.1,-23.68"/>
<polygon fill="#63b8ff" stroke="#63b8ff" points="3559.52,-20.47 3549,-19.17 3556.41,-26.75 3559.52,-20.47"/>
</a>
</g>
</g>
</g>
</svg>
