<?xml version="1.0" encoding="UTF-8" standalone="no"?>
<!DOCTYPE svg PUBLIC "-//W3C//DTD SVG 1.1//EN"
 "http://www.w3.org/Graphics/SVG/1.1/DTD/svg11.dtd">
<!-- Generated by graphviz version 2.43.0 (0)
 -->
<!-- Title: squid/src/tests/stub_fqdncache.cc Pages: 1 -->
<svg width="3633pt" height="258pt"
 viewBox="0.00 0.00 3632.50 258.00" xmlns="http://www.w3.org/2000/svg" xmlns:xlink="http://www.w3.org/1999/xlink">
<g id="graph0" class="graph" transform="scale(1 1) rotate(0) translate(4 254)">
<title>squid/src/tests/stub_fqdncache.cc</title>
<!-- Node1 -->
<g id="Node000001" class="node">
<title>Node1</title>
<g id="a_Node000001"><a xlink:title=" ">
<polygon fill="#999999" stroke="#666666" points="3447,-250 3336,-250 3336,-220 3447,-220 3447,-250"/>
<text text-anchor="start" x="3344" y="-238" font-family="Helvetica,sans-Serif" font-size="10.00">squid/src/tests/stub</text>
<text text-anchor="middle" x="3391.5" y="-227" font-family="Helvetica,sans-Serif" font-size="10.00">_fqdncache.cc</text>
</a>
</g>
</g>
<!-- Node2 -->
<g id="Node000002" class="node">
<title>Node2</title>
<g id="a_Node000002"><a xlink:href="squid_8h.html" target="_top" xlink:title=" ">
<polygon fill="white" stroke="#666666" points="1720.5,-184 1668.5,-184 1668.5,-165 1720.5,-165 1720.5,-184"/>
<text text-anchor="middle" x="1694.5" y="-172" font-family="Helvetica,sans-Serif" font-size="10.00">squid.h</text>
</a>
</g>
</g>
<!-- Node1&#45;&gt;Node2 -->
<g id="edge1_Node000001_Node000002" class="edge">
<title>Node1&#45;&gt;Node2</title>
<g id="a_edge1_Node000001_Node000002"><a xlink:title=" ">
<path fill="none" stroke="#63b8ff" d="M3335.52,-232.07C3070.74,-222.94 1947.88,-184.23 1730.89,-176.75"/>
<polygon fill="#63b8ff" stroke="#63b8ff" points="1730.79,-173.25 1720.68,-176.4 1730.55,-180.24 1730.79,-173.25"/>
</a>
</g>
</g>
<!-- Node45 -->
<g id="Node000045" class="node">
<title>Node45</title>
<g id="a_Node000045"><a xlink:href="fqdncache_8h.html" target="_top" xlink:title=" ">
<polygon fill="white" stroke="#666666" points="3429.5,-184 3353.5,-184 3353.5,-165 3429.5,-165 3429.5,-184"/>
<text text-anchor="middle" x="3391.5" y="-172" font-family="Helvetica,sans-Serif" font-size="10.00">fqdncache.h</text>
</a>
</g>
</g>
<!-- Node1&#45;&gt;Node45 -->
<g id="edge41_Node000001_Node000045" class="edge">
<title>Node1&#45;&gt;Node45</title>
<g id="a_edge41_Node000001_Node000045"><a xlink:title=" ">
<path fill="none" stroke="#63b8ff" d="M3391.5,-219.84C3391.5,-212.21 3391.5,-202.7 3391.5,-194.45"/>
<polygon fill="#63b8ff" stroke="#63b8ff" points="3395,-194.27 3391.5,-184.27 3388,-194.27 3395,-194.27"/>
</a>
</g>
</g>
<!-- Node52 -->
<g id="Node000052" class="node">
<title>Node52</title>
<g id="a_Node000052"><a xlink:href="STUB_8h.html" target="_top" xlink:title=" ">
<polygon fill="white" stroke="#666666" points="3598,-184 3519,-184 3519,-165 3598,-165 3598,-184"/>
<text text-anchor="middle" x="3558.5" y="-172" font-family="Helvetica,sans-Serif" font-size="10.00">tests/STUB.h</text>
</a>
</g>
</g>
<!-- Node1&#45;&gt;Node52 -->
<g id="edge50_Node000001_Node000052" class="edge">
<title>Node1&#45;&gt;Node52</title>
<g id="a_edge50_Node000001_Node000052"><a xlink:title=" ">
<path fill="none" stroke="#63b8ff" d="M3431.5,-219.99C3459.74,-210.1 3497.18,-196.98 3524.08,-187.56"/>
<polygon fill="#63b8ff" stroke="#63b8ff" points="3525.56,-190.75 3533.84,-184.14 3523.24,-184.14 3525.56,-190.75"/>
</a>
</g>
</g>
<!-- Node3 -->
<g id="Node000003" class="node">
<title>Node3</title>
<g id="a_Node000003"><a xlink:href="autoconf_8h.html" target="_top" xlink:title=" ">
<polygon fill="white" stroke="#666666" points="1595.5,-129 1527.5,-129 1527.5,-110 1595.5,-110 1595.5,-129"/>
<text text-anchor="middle" x="1561.5" y="-117" font-family="Helvetica,sans-Serif" font-size="10.00">autoconf.h</text>
</a>
</g>
</g>
<!-- Node2&#45;&gt;Node3 -->
<g id="edge2_Node000002_Node000003" class="edge">
<title>Node2&#45;&gt;Node3</title>
<g id="a_edge2_Node000002_Node000003"><a xlink:title=" ">
<path fill="none" stroke="#63b8ff" d="M1673.13,-164.98C1651.35,-156.3 1617.34,-142.75 1592.58,-132.88"/>
<polygon fill="#63b8ff" stroke="#63b8ff" points="1593.84,-129.62 1583.26,-129.17 1591.25,-136.12 1593.84,-129.62"/>
</a>
</g>
</g>
<!-- Node4 -->
<g id="Node000004" class="node">
<title>Node4</title>
<g id="a_Node000004"><a xlink:href="version_8h.html" target="_top" xlink:title=" ">
<polygon fill="white" stroke="#666666" points="1675.5,-129 1613.5,-129 1613.5,-110 1675.5,-110 1675.5,-129"/>
<text text-anchor="middle" x="1644.5" y="-117" font-family="Helvetica,sans-Serif" font-size="10.00">version.h</text>
</a>
</g>
</g>
<!-- Node2&#45;&gt;Node4 -->
<g id="edge3_Node000002_Node000004" class="edge">
<title>Node2&#45;&gt;Node4</title>
<g id="a_edge3_Node000002_Node000004"><a xlink:title=" ">
<path fill="none" stroke="#63b8ff" d="M1686.24,-164.75C1679.04,-157.11 1668.39,-145.82 1659.65,-136.56"/>
<polygon fill="#63b8ff" stroke="#63b8ff" points="1662.01,-133.96 1652.6,-129.09 1656.92,-138.76 1662.01,-133.96"/>
</a>
</g>
</g>
<!-- Node5 -->
<g id="Node000005" class="node">
<title>Node5</title>
<g id="a_Node000005"><a xlink:href="compat_8h.html" target="_top" xlink:title=" ">
<polygon fill="white" stroke="#666666" points="1795.5,-129 1693.5,-129 1693.5,-110 1795.5,-110 1795.5,-129"/>
<text text-anchor="middle" x="1744.5" y="-117" font-family="Helvetica,sans-Serif" font-size="10.00">compat/compat.h</text>
</a>
</g>
</g>
<!-- Node2&#45;&gt;Node5 -->
<g id="edge4_Node000002_Node000005" class="edge">
<title>Node2&#45;&gt;Node5</title>
<g id="a_edge4_Node000002_Node000005"><a xlink:title=" ">
<path fill="none" stroke="#63b8ff" d="M1702.76,-164.75C1709.96,-157.11 1720.61,-145.82 1729.35,-136.56"/>
<polygon fill="#63b8ff" stroke="#63b8ff" points="1732.08,-138.76 1736.4,-129.09 1726.99,-133.96 1732.08,-138.76"/>
</a>
</g>
</g>
<!-- Node6 -->
<g id="Node000006" class="node">
<title>Node6</title>
<g id="a_Node000006"><a xlink:href="osdetect_8h.html" target="_top" xlink:title=" ">
<polygon fill="white" stroke="#666666" points="107,-74 0,-74 0,-55 107,-55 107,-74"/>
<text text-anchor="middle" x="53.5" y="-62" font-family="Helvetica,sans-Serif" font-size="10.00">compat/osdetect.h</text>
</a>
</g>
</g>
<!-- Node5&#45;&gt;Node6 -->
<g id="edge5_Node000005_Node000006" class="edge">
<title>Node5&#45;&gt;Node6</title>
<g id="a_edge5_Node000005_Node000006"><a xlink:title=" ">
<path fill="none" stroke="#63b8ff" d="M1693.48,-110.86C1690.45,-110.53 1687.44,-110.24 1684.5,-110 993.07,-53.28 813.13,-127.97 117.1,-73.92"/>
<polygon fill="#63b8ff" stroke="#63b8ff" points="117.32,-70.43 107.07,-73.14 116.77,-77.41 117.32,-70.43"/>
</a>
</g>
</g>
<!-- Node7 -->
<g id="Node000007" class="node">
<title>Node7</title>
<g id="a_Node000007"><a xlink:href="fdsetsize_8h.html" target="_top" xlink:title=" ">
<polygon fill="white" stroke="#666666" points="235.5,-74 125.5,-74 125.5,-55 235.5,-55 235.5,-74"/>
<text text-anchor="middle" x="180.5" y="-62" font-family="Helvetica,sans-Serif" font-size="10.00">compat/fdsetsize.h</text>
</a>
</g>
</g>
<!-- Node5&#45;&gt;Node7 -->
<g id="edge6_Node000005_Node000007" class="edge">
<title>Node5&#45;&gt;Node7</title>
<g id="a_edge6_Node000005_Node000007"><a xlink:title=" ">
<path fill="none" stroke="#63b8ff" d="M1693.48,-110.86C1690.45,-110.54 1687.44,-110.24 1684.5,-110 1049.92,-57.3 884.5,-123.5 246,-74.01"/>
<polygon fill="#63b8ff" stroke="#63b8ff" points="245.86,-70.49 235.62,-73.2 245.32,-77.47 245.86,-70.49"/>
</a>
</g>
</g>
<!-- Node8 -->
<g id="Node000008" class="node">
<title>Node8</title>
<g id="a_Node000008"><a xlink:href="types_8h.html" target="_top" xlink:title=" ">
<polygon fill="white" stroke="#666666" points="345.5,-74 253.5,-74 253.5,-55 345.5,-55 345.5,-74"/>
<text text-anchor="middle" x="299.5" y="-62" font-family="Helvetica,sans-Serif" font-size="10.00">compat/types.h</text>
</a>
</g>
</g>
<!-- Node5&#45;&gt;Node8 -->
<g id="edge7_Node000005_Node000008" class="edge">
<title>Node5&#45;&gt;Node8</title>
<g id="a_edge7_Node000005_Node000008"><a xlink:title=" ">
<path fill="none" stroke="#63b8ff" d="M1693.48,-110.87C1690.45,-110.54 1687.44,-110.25 1684.5,-110 1098.56,-60.73 945.14,-126.52 355.69,-73.97"/>
<polygon fill="#63b8ff" stroke="#63b8ff" points="355.93,-70.48 345.66,-73.07 355.31,-77.45 355.93,-70.48"/>
</a>
</g>
</g>
<!-- Node10 -->
<g id="Node000010" class="node">
<title>Node10</title>
<g id="a_Node000010"><a xlink:href="aix_8h.html" target="_top" xlink:title=" ">
<polygon fill="white" stroke="#666666" points="459,-74 364,-74 364,-55 459,-55 459,-74"/>
<text text-anchor="middle" x="411.5" y="-62" font-family="Helvetica,sans-Serif" font-size="10.00">compat/os/aix.h</text>
</a>
</g>
</g>
<!-- Node5&#45;&gt;Node10 -->
<g id="edge9_Node000005_Node000010" class="edge">
<title>Node5&#45;&gt;Node10</title>
<g id="a_edge9_Node000005_Node000010"><a xlink:title=" ">
<path fill="none" stroke="#63b8ff" d="M1693.48,-110.88C1690.45,-110.55 1687.44,-110.25 1684.5,-110 1149.07,-64.29 1008.76,-121.25 469.02,-73.9"/>
<polygon fill="#63b8ff" stroke="#63b8ff" points="469.31,-70.41 459.04,-73.02 468.69,-77.39 469.31,-70.41"/>
</a>
</g>
</g>
<!-- Node11 -->
<g id="Node000011" class="node">
<title>Node11</title>
<g id="a_Node000011"><a xlink:href="android_8h.html" target="_top" xlink:title=" ">
<polygon fill="white" stroke="#666666" points="593.5,-74 477.5,-74 477.5,-55 593.5,-55 593.5,-74"/>
<text text-anchor="middle" x="535.5" y="-62" font-family="Helvetica,sans-Serif" font-size="10.00">compat/os/android.h</text>
</a>
</g>
</g>
<!-- Node5&#45;&gt;Node11 -->
<g id="edge10_Node000005_Node000011" class="edge">
<title>Node5&#45;&gt;Node11</title>
<g id="a_edge10_Node000005_Node000011"><a xlink:title=" ">
<path fill="none" stroke="#63b8ff" d="M1693.48,-110.89C1690.45,-110.56 1687.43,-110.26 1684.5,-110 1208.56,-68.49 1083.89,-111.7 603.89,-74.02"/>
<polygon fill="#63b8ff" stroke="#63b8ff" points="603.82,-70.5 593.57,-73.2 603.26,-77.48 603.82,-70.5"/>
</a>
</g>
</g>
<!-- Node12 -->
<g id="Node000012" class="node">
<title>Node12</title>
<g id="a_Node000012"><a xlink:href="dragonfly_8h.html" target="_top" xlink:title=" ">
<polygon fill="white" stroke="#666666" points="735.5,-74 611.5,-74 611.5,-55 735.5,-55 735.5,-74"/>
<text text-anchor="middle" x="673.5" y="-62" font-family="Helvetica,sans-Serif" font-size="10.00">compat/os/dragonfly.h</text>
</a>
</g>
</g>
<!-- Node5&#45;&gt;Node12 -->
<g id="edge11_Node000005_Node000012" class="edge">
<title>Node5&#45;&gt;Node12</title>
<g id="a_edge11_Node000005_Node000012"><a xlink:title=" ">
<path fill="none" stroke="#63b8ff" d="M1693.48,-110.91C1690.44,-110.57 1687.43,-110.26 1684.5,-110 1271.44,-72.93 1163.03,-106.33 746.03,-74.05"/>
<polygon fill="#63b8ff" stroke="#63b8ff" points="746.05,-70.54 735.81,-73.25 745.51,-77.52 746.05,-70.54"/>
</a>
</g>
</g>
<!-- Node13 -->
<g id="Node000013" class="node">
<title>Node13</title>
<g id="a_Node000013"><a xlink:href="freebsd_8h.html" target="_top" xlink:title=" ">
<polygon fill="white" stroke="#666666" points="869.5,-74 753.5,-74 753.5,-55 869.5,-55 869.5,-74"/>
<text text-anchor="middle" x="811.5" y="-62" font-family="Helvetica,sans-Serif" font-size="10.00">compat/os/freebsd.h</text>
</a>
</g>
</g>
<!-- Node5&#45;&gt;Node13 -->
<g id="edge12_Node000005_Node000013" class="edge">
<title>Node5&#45;&gt;Node13</title>
<g id="a_edge12_Node000005_Node000013"><a xlink:title=" ">
<path fill="none" stroke="#63b8ff" d="M1693.48,-110.93C1690.44,-110.59 1687.43,-110.27 1684.5,-110 1330.77,-77.12 1237.5,-104.08 879.7,-74.02"/>
<polygon fill="#63b8ff" stroke="#63b8ff" points="879.83,-70.52 869.57,-73.16 879.24,-77.5 879.83,-70.52"/>
</a>
</g>
</g>
<!-- Node14 -->
<g id="Node000014" class="node">
<title>Node14</title>
<g id="a_Node000014"><a xlink:href="hpux_8h.html" target="_top" xlink:title=" ">
<polygon fill="white" stroke="#666666" points="991.5,-74 887.5,-74 887.5,-55 991.5,-55 991.5,-74"/>
<text text-anchor="middle" x="939.5" y="-62" font-family="Helvetica,sans-Serif" font-size="10.00">compat/os/hpux.h</text>
</a>
</g>
</g>
<!-- Node5&#45;&gt;Node14 -->
<g id="edge13_Node000005_Node000014" class="edge">
<title>Node5&#45;&gt;Node14</title>
<g id="a_edge13_Node000005_Node000014"><a xlink:title=" ">
<path fill="none" stroke="#63b8ff" d="M1693.47,-110.96C1690.44,-110.61 1687.43,-110.28 1684.5,-110 1384.76,-80.94 1305.23,-102.56 1001.68,-74.02"/>
<polygon fill="#63b8ff" stroke="#63b8ff" points="1002,-70.54 991.71,-73.08 1001.33,-77.51 1002,-70.54"/>
</a>
</g>
</g>
<!-- Node15 -->
<g id="Node000015" class="node">
<title>Node15</title>
<g id="a_Node000015"><a xlink:href="linux_8h.html" target="_top" xlink:title=" ">
<polygon fill="white" stroke="#666666" points="1113.5,-74 1009.5,-74 1009.5,-55 1113.5,-55 1113.5,-74"/>
<text text-anchor="middle" x="1061.5" y="-62" font-family="Helvetica,sans-Serif" font-size="10.00">compat/os/linux.h</text>
</a>
</g>
</g>
<!-- Node5&#45;&gt;Node15 -->
<g id="edge14_Node000005_Node000015" class="edge">
<title>Node5&#45;&gt;Node15</title>
<g id="a_edge14_Node000005_Node000015"><a xlink:title=" ">
<path fill="none" stroke="#63b8ff" d="M1693.47,-111C1690.44,-110.64 1687.43,-110.3 1684.5,-110 1438.8,-84.76 1373.23,-98.9 1123.81,-74.05"/>
<polygon fill="#63b8ff" stroke="#63b8ff" points="1124.01,-70.56 1113.71,-73.04 1123.31,-77.52 1124.01,-70.56"/>
</a>
</g>
</g>
<!-- Node16 -->
<g id="Node000016" class="node">
<title>Node16</title>
<g id="a_Node000016"><a xlink:href="macosx_8h.html" target="_top" xlink:title=" ">
<polygon fill="white" stroke="#666666" points="1249.5,-74 1131.5,-74 1131.5,-55 1249.5,-55 1249.5,-74"/>
<text text-anchor="middle" x="1190.5" y="-62" font-family="Helvetica,sans-Serif" font-size="10.00">compat/os/macosx.h</text>
</a>
</g>
</g>
<!-- Node5&#45;&gt;Node16 -->
<g id="edge15_Node000005_Node000016" class="edge">
<title>Node5&#45;&gt;Node16</title>
<g id="a_edge15_Node000005_Node000016"><a xlink:title=" ">
<path fill="none" stroke="#63b8ff" d="M1693.46,-111.07C1690.43,-110.69 1687.43,-110.33 1684.5,-110 1498.92,-89.03 1449.16,-93.62 1259.83,-74.1"/>
<polygon fill="#63b8ff" stroke="#63b8ff" points="1260.13,-70.61 1249.82,-73.06 1259.41,-77.57 1260.13,-70.61"/>
</a>
</g>
</g>
<!-- Node17 -->
<g id="Node000017" class="node">
<title>Node17</title>
<g id="a_Node000017"><a xlink:href="mingw_8h.html" target="_top" xlink:title=" ">
<polygon fill="white" stroke="#666666" points="1379.5,-74 1267.5,-74 1267.5,-55 1379.5,-55 1379.5,-74"/>
<text text-anchor="middle" x="1323.5" y="-62" font-family="Helvetica,sans-Serif" font-size="10.00">compat/os/mingw.h</text>
</a>
</g>
</g>
<!-- Node5&#45;&gt;Node17 -->
<g id="edge16_Node000005_Node000017" class="edge">
<title>Node5&#45;&gt;Node17</title>
<g id="a_edge16_Node000005_Node000017"><a xlink:title=" ">
<path fill="none" stroke="#63b8ff" d="M1693.45,-111.2C1690.42,-110.79 1687.42,-110.38 1684.5,-110 1556.32,-93.13 1521.66,-90.7 1389.61,-74.13"/>
<polygon fill="#63b8ff" stroke="#63b8ff" points="1389.87,-70.63 1379.52,-72.86 1389,-77.58 1389.87,-70.63"/>
</a>
</g>
</g>
<!-- Node18 -->
<g id="Node000018" class="node">
<title>Node18</title>
<g id="a_Node000018"><a xlink:href="mswindows_8h.html" target="_top" xlink:title=" ">
<polygon fill="white" stroke="#666666" points="1535,-74 1398,-74 1398,-55 1535,-55 1535,-74"/>
<text text-anchor="middle" x="1466.5" y="-62" font-family="Helvetica,sans-Serif" font-size="10.00">compat/os/mswindows.h</text>
</a>
</g>
</g>
<!-- Node5&#45;&gt;Node18 -->
<g id="edge17_Node000005_Node000018" class="edge">
<title>Node5&#45;&gt;Node18</title>
<g id="a_edge17_Node000005_Node000018"><a xlink:title=" ">
<path fill="none" stroke="#63b8ff" d="M1699.83,-109.98C1651.34,-100.74 1573.85,-85.97 1521.61,-76.01"/>
<polygon fill="#63b8ff" stroke="#63b8ff" points="1521.99,-72.52 1511.52,-74.08 1520.68,-79.39 1521.99,-72.52"/>
</a>
</g>
</g>
<!-- Node19 -->
<g id="Node000019" class="node">
<title>Node19</title>
<g id="a_Node000019"><a xlink:href="netbsd_8h.html" target="_top" xlink:title=" ">
<polygon fill="white" stroke="#666666" points="1666,-74 1553,-74 1553,-55 1666,-55 1666,-74"/>
<text text-anchor="middle" x="1609.5" y="-62" font-family="Helvetica,sans-Serif" font-size="10.00">compat/os/netbsd.h</text>
</a>
</g>
</g>
<!-- Node5&#45;&gt;Node19 -->
<g id="edge18_Node000005_Node000019" class="edge">
<title>Node5&#45;&gt;Node19</title>
<g id="a_edge18_Node000005_Node000019"><a xlink:title=" ">
<path fill="none" stroke="#63b8ff" d="M1722.81,-109.98C1700.7,-101.3 1666.18,-87.75 1641.05,-77.88"/>
<polygon fill="#63b8ff" stroke="#63b8ff" points="1642.17,-74.57 1631.58,-74.17 1639.61,-81.08 1642.17,-74.57"/>
</a>
</g>
</g>
<!-- Node20 -->
<g id="Node000020" class="node">
<title>Node20</title>
<g id="a_Node000020"><a xlink:href="openbsd_8h.html" target="_top" xlink:title=" ">
<polygon fill="white" stroke="#666666" points="1805,-74 1684,-74 1684,-55 1805,-55 1805,-74"/>
<text text-anchor="middle" x="1744.5" y="-62" font-family="Helvetica,sans-Serif" font-size="10.00">compat/os/openbsd.h</text>
</a>
</g>
</g>
<!-- Node5&#45;&gt;Node20 -->
<g id="edge19_Node000005_Node000020" class="edge">
<title>Node5&#45;&gt;Node20</title>
<g id="a_edge19_Node000005_Node000020"><a xlink:title=" ">
<path fill="none" stroke="#63b8ff" d="M1744.5,-109.75C1744.5,-102.8 1744.5,-92.85 1744.5,-84.13"/>
<polygon fill="#63b8ff" stroke="#63b8ff" points="1748,-84.09 1744.5,-74.09 1741,-84.09 1748,-84.09"/>
</a>
</g>
</g>
<!-- Node21 -->
<g id="Node000021" class="node">
<title>Node21</title>
<g id="a_Node000021"><a xlink:href="os2_8h.html" target="_top" xlink:title=" ">
<polygon fill="white" stroke="#666666" points="1920,-74 1823,-74 1823,-55 1920,-55 1920,-74"/>
<text text-anchor="middle" x="1871.5" y="-62" font-family="Helvetica,sans-Serif" font-size="10.00">compat/os/os2.h</text>
</a>
</g>
</g>
<!-- Node5&#45;&gt;Node21 -->
<g id="edge20_Node000005_Node000021" class="edge">
<title>Node5&#45;&gt;Node21</title>
<g id="a_edge20_Node000005_Node000021"><a xlink:title=" ">
<path fill="none" stroke="#63b8ff" d="M1764.9,-109.98C1785.52,-101.38 1817.61,-87.99 1841.19,-78.15"/>
<polygon fill="#63b8ff" stroke="#63b8ff" points="1842.84,-81.25 1850.72,-74.17 1840.15,-74.79 1842.84,-81.25"/>
</a>
</g>
</g>
<!-- Node22 -->
<g id="Node000022" class="node">
<title>Node22</title>
<g id="a_Node000022"><a xlink:href="qnx_8h.html" target="_top" xlink:title=" ">
<polygon fill="white" stroke="#666666" points="2036.5,-74 1938.5,-74 1938.5,-55 2036.5,-55 2036.5,-74"/>
<text text-anchor="middle" x="1987.5" y="-62" font-family="Helvetica,sans-Serif" font-size="10.00">compat/os/qnx.h</text>
</a>
</g>
</g>
<!-- Node5&#45;&gt;Node22 -->
<g id="edge21_Node000005_Node000022" class="edge">
<title>Node5&#45;&gt;Node22</title>
<g id="a_edge21_Node000005_Node000022"><a xlink:title=" ">
<path fill="none" stroke="#63b8ff" d="M1783.54,-109.98C1825.58,-100.82 1892.54,-86.21 1938.18,-76.26"/>
<polygon fill="#63b8ff" stroke="#63b8ff" points="1939.13,-79.63 1948.15,-74.08 1937.64,-72.79 1939.13,-79.63"/>
</a>
</g>
</g>
<!-- Node23 -->
<g id="Node000023" class="node">
<title>Node23</title>
<g id="a_Node000023"><a xlink:href="sgi_8h.html" target="_top" xlink:title=" ">
<polygon fill="white" stroke="#666666" points="2148.5,-74 2054.5,-74 2054.5,-55 2148.5,-55 2148.5,-74"/>
<text text-anchor="middle" x="2101.5" y="-62" font-family="Helvetica,sans-Serif" font-size="10.00">compat/os/sgi.h</text>
</a>
</g>
</g>
<!-- Node5&#45;&gt;Node23 -->
<g id="edge22_Node000005_Node000023" class="edge">
<title>Node5&#45;&gt;Node23</title>
<g id="a_edge22_Node000005_Node000023"><a xlink:title=" ">
<path fill="none" stroke="#63b8ff" d="M1795.64,-111C1853.48,-102.5 1950.8,-88.17 2044.51,-74.14"/>
<polygon fill="#63b8ff" stroke="#63b8ff" points="2045.08,-77.6 2054.45,-72.66 2044.04,-70.68 2045.08,-77.6"/>
</a>
</g>
</g>
<!-- Node24 -->
<g id="Node000024" class="node">
<title>Node24</title>
<g id="a_Node000024"><a xlink:href="solaris_8h.html" target="_top" xlink:title=" ">
<polygon fill="white" stroke="#666666" points="2278.5,-74 2166.5,-74 2166.5,-55 2278.5,-55 2278.5,-74"/>
<text text-anchor="middle" x="2222.5" y="-62" font-family="Helvetica,sans-Serif" font-size="10.00">compat/os/solaris.h</text>
</a>
</g>
</g>
<!-- Node5&#45;&gt;Node24 -->
<g id="edge23_Node000005_Node000024" class="edge">
<title>Node5&#45;&gt;Node24</title>
<g id="a_edge23_Node000005_Node000024"><a xlink:title=" ">
<path fill="none" stroke="#63b8ff" d="M1795.73,-113.36C1871.93,-105.63 2019.9,-90.29 2156.27,-74.12"/>
<polygon fill="#63b8ff" stroke="#63b8ff" points="2156.97,-77.56 2166.49,-72.91 2156.15,-70.61 2156.97,-77.56"/>
</a>
</g>
</g>
<!-- Node25 -->
<g id="Node000025" class="node">
<title>Node25</title>
<g id="a_Node000025"><a xlink:href="sunos_8h.html" target="_top" xlink:title=" ">
<polygon fill="white" stroke="#666666" points="2404.5,-74 2296.5,-74 2296.5,-55 2404.5,-55 2404.5,-74"/>
<text text-anchor="middle" x="2350.5" y="-62" font-family="Helvetica,sans-Serif" font-size="10.00">compat/os/sunos.h</text>
</a>
</g>
</g>
<!-- Node5&#45;&gt;Node25 -->
<g id="edge24_Node000005_Node000025" class="edge">
<title>Node5&#45;&gt;Node25</title>
<g id="a_edge24_Node000005_Node000025"><a xlink:title=" ">
<path fill="none" stroke="#63b8ff" d="M1795.87,-115.19C1890.65,-108.89 2099.67,-94.07 2286.23,-74.08"/>
<polygon fill="#63b8ff" stroke="#63b8ff" points="2286.66,-77.56 2296.23,-73.01 2285.91,-70.6 2286.66,-77.56"/>
</a>
</g>
</g>
<!-- Node26 -->
<g id="Node000026" class="node">
<title>Node26</title>
<g id="a_Node000026"><a xlink:href="assert_8h.html" target="_top" xlink:title=" ">
<polygon fill="white" stroke="#666666" points="2518,-74 2423,-74 2423,-55 2518,-55 2518,-74"/>
<text text-anchor="middle" x="2470.5" y="-62" font-family="Helvetica,sans-Serif" font-size="10.00">compat/assert.h</text>
</a>
</g>
</g>
<!-- Node5&#45;&gt;Node26 -->
<g id="edge25_Node000005_Node000026" class="edge">
<title>Node5&#45;&gt;Node26</title>
<g id="a_edge25_Node000005_Node000026"><a xlink:title=" ">
<path fill="none" stroke="#63b8ff" d="M1795.82,-116.52C1906.49,-111.93 2175.99,-99.1 2412.77,-73.98"/>
<polygon fill="#63b8ff" stroke="#63b8ff" points="2413.38,-77.43 2422.95,-72.89 2412.64,-70.47 2413.38,-77.43"/>
</a>
</g>
</g>
<!-- Node27 -->
<g id="Node000027" class="node">
<title>Node27</title>
<g id="a_Node000027"><a xlink:href="compat__shared_8h.html" target="_top" xlink:title=" ">
<polygon fill="white" stroke="#666666" points="2676.5,-74 2536.5,-74 2536.5,-55 2676.5,-55 2676.5,-74"/>
<text text-anchor="middle" x="2606.5" y="-62" font-family="Helvetica,sans-Serif" font-size="10.00">compat/compat_shared.h</text>
</a>
</g>
</g>
<!-- Node5&#45;&gt;Node27 -->
<g id="edge26_Node000005_Node000027" class="edge">
<title>Node5&#45;&gt;Node27</title>
<g id="a_edge26_Node000005_Node000027"><a xlink:title=" ">
<path fill="none" stroke="#63b8ff" d="M1795.8,-116.45C1919.39,-111.33 2243.65,-96.78 2526.24,-73.97"/>
<polygon fill="#63b8ff" stroke="#63b8ff" points="2526.59,-77.46 2536.28,-73.16 2526.03,-70.48 2526.59,-77.46"/>
</a>
</g>
</g>
<!-- Node37 -->
<g id="Node000037" class="node">
<title>Node37</title>
<g id="a_Node000037"><a xlink:href="stdvarargs_8h.html" target="_top" xlink:title=" ">
<polygon fill="white" stroke="#666666" points="2812,-74 2695,-74 2695,-55 2812,-55 2812,-74"/>
<text text-anchor="middle" x="2753.5" y="-62" font-family="Helvetica,sans-Serif" font-size="10.00">compat/stdvarargs.h</text>
</a>
</g>
</g>
<!-- Node5&#45;&gt;Node37 -->
<g id="edge35_Node000005_Node000037" class="edge">
<title>Node5&#45;&gt;Node37</title>
<g id="a_edge35_Node000005_Node000037"><a xlink:title=" ">
<path fill="none" stroke="#63b8ff" d="M1795.59,-117.47C1935.84,-114.34 2338.79,-103.37 2684.96,-73.97"/>
<polygon fill="#63b8ff" stroke="#63b8ff" points="2685.26,-77.45 2694.92,-73.11 2684.66,-70.48 2685.26,-77.45"/>
</a>
</g>
</g>
<!-- Node39 -->
<g id="Node000039" class="node">
<title>Node39</title>
<g id="a_Node000039"><a xlink:href="stdio_8h.html" target="_top" xlink:title=" ">
<polygon fill="#fff0f0" stroke="red" points="2919,-74 2830,-74 2830,-55 2919,-55 2919,-74"/>
<text text-anchor="middle" x="2874.5" y="-62" font-family="Helvetica,sans-Serif" font-size="10.00">compat/stdio.h</text>
</a>
</g>
</g>
<!-- Node5&#45;&gt;Node39 -->
<g id="edge37_Node000005_Node000039" class="edge">
<title>Node5&#45;&gt;Node39</title>
<g id="a_edge37_Node000005_Node000039"><a xlink:title=" ">
<path fill="none" stroke="#63b8ff" d="M1795.61,-118.46C1949.11,-117.92 2419.56,-113.01 2819.73,-73.94"/>
<polygon fill="#63b8ff" stroke="#63b8ff" points="2820.15,-77.41 2829.76,-72.95 2819.47,-70.44 2820.15,-77.41"/>
</a>
</g>
</g>
<!-- Node41 -->
<g id="Node000041" class="node">
<title>Node41</title>
<g id="a_Node000041"><a xlink:href="statvfs_8h.html" target="_top" xlink:title=" ">
<polygon fill="white" stroke="#666666" points="3036,-74 2937,-74 2937,-55 3036,-55 3036,-74"/>
<text text-anchor="middle" x="2986.5" y="-62" font-family="Helvetica,sans-Serif" font-size="10.00">compat/statvfs.h</text>
</a>
</g>
</g>
<!-- Node5&#45;&gt;Node41 -->
<g id="edge38_Node000005_Node000041" class="edge">
<title>Node5&#45;&gt;Node41</title>
<g id="a_edge38_Node000005_Node000041"><a xlink:title=" ">
<path fill="none" stroke="#63b8ff" d="M1795.64,-118.5C1958.96,-118.09 2482.74,-113.63 2926.82,-73.94"/>
<polygon fill="#63b8ff" stroke="#63b8ff" points="2927.32,-77.41 2936.97,-73.02 2926.7,-70.43 2927.32,-77.41"/>
</a>
</g>
</g>
<!-- Node42 -->
<g id="Node000042" class="node">
<title>Node42</title>
<g id="a_Node000042"><a xlink:href="debug_8h.html" target="_top" xlink:title=" ">
<polygon fill="white" stroke="#666666" points="3149,-74 3054,-74 3054,-55 3149,-55 3149,-74"/>
<text text-anchor="middle" x="3101.5" y="-62" font-family="Helvetica,sans-Serif" font-size="10.00">compat/debug.h</text>
</a>
</g>
</g>
<!-- Node5&#45;&gt;Node42 -->
<g id="edge39_Node000005_Node000042" class="edge">
<title>Node5&#45;&gt;Node42</title>
<g id="a_edge39_Node000005_Node000042"><a xlink:title=" ">
<path fill="none" stroke="#63b8ff" d="M1795.73,-118.84C1969.44,-119.54 2552.1,-118.28 3043.82,-73.92"/>
<polygon fill="#63b8ff" stroke="#63b8ff" points="3044.32,-77.39 3053.96,-73 3043.69,-70.42 3044.32,-77.39"/>
</a>
</g>
</g>
<!-- Node43 -->
<g id="Node000043" class="node">
<title>Node43</title>
<g id="a_Node000043"><a xlink:href="valgrind_8h.html" target="_top" xlink:title=" ">
<polygon fill="#fff0f0" stroke="red" points="3272,-74 3167,-74 3167,-55 3272,-55 3272,-74"/>
<text text-anchor="middle" x="3219.5" y="-62" font-family="Helvetica,sans-Serif" font-size="10.00">compat/valgrind.h</text>
</a>
</g>
</g>
<!-- Node5&#45;&gt;Node43 -->
<g id="edge40_Node000005_Node000043" class="edge">
<title>Node5&#45;&gt;Node43</title>
<g id="a_edge40_Node000005_Node000043"><a xlink:title=" ">
<path fill="none" stroke="#63b8ff" d="M1795.62,-118.82C1978.61,-119.56 2618.28,-118.65 3156.47,-73.97"/>
<polygon fill="#63b8ff" stroke="#63b8ff" points="3157.1,-77.43 3166.78,-73.11 3156.52,-70.46 3157.1,-77.43"/>
</a>
</g>
</g>
<!-- Node9 -->
<g id="Node000009" class="node">
<title>Node9</title>
<g id="a_Node000009"><a xlink:title=" ">
<polygon fill="#e0e0e0" stroke="#999999" points="324.5,-19 274.5,-19 274.5,0 324.5,0 324.5,-19"/>
<text text-anchor="middle" x="299.5" y="-7" font-family="Helvetica,sans-Serif" font-size="10.00">cstdint</text>
</a>
</g>
</g>
<!-- Node8&#45;&gt;Node9 -->
<g id="edge8_Node000008_Node000009" class="edge">
<title>Node8&#45;&gt;Node9</title>
<g id="a_edge8_Node000008_Node000009"><a xlink:title=" ">
<path fill="none" stroke="#63b8ff" d="M299.5,-54.75C299.5,-47.8 299.5,-37.85 299.5,-29.13"/>
<polygon fill="#63b8ff" stroke="#63b8ff" points="303,-29.09 299.5,-19.09 296,-29.09 303,-29.09"/>
</a>
</g>
</g>
<!-- Node28 -->
<g id="Node000028" class="node">
<title>Node28</title>
<g id="a_Node000028"><a xlink:title=" ">
<polygon fill="#e0e0e0" stroke="#999999" points="2202,-19 2151,-19 2151,0 2202,0 2202,-19"/>
<text text-anchor="middle" x="2176.5" y="-7" font-family="Helvetica,sans-Serif" font-size="10.00">csignal</text>
</a>
</g>
</g>
<!-- Node27&#45;&gt;Node28 -->
<g id="edge27_Node000027_Node000028" class="edge">
<title>Node27&#45;&gt;Node28</title>
<g id="a_edge27_Node000027_Node000028"><a xlink:title=" ">
<path fill="none" stroke="#63b8ff" d="M2536.09,-55.83C2435.99,-44.9 2260.02,-25.56 2212.02,-18.82"/>
<polygon fill="#63b8ff" stroke="#63b8ff" points="2212.46,-15.35 2202.04,-17.27 2211.39,-22.26 2212.46,-15.35"/>
</a>
</g>
</g>
<!-- Node29 -->
<g id="Node000029" class="node">
<title>Node29</title>
<g id="a_Node000029"><a xlink:href="xalloc_8h.html" target="_top" xlink:title=" ">
<polygon fill="white" stroke="#666666" points="2315,-19 2220,-19 2220,0 2315,0 2315,-19"/>
<text text-anchor="middle" x="2267.5" y="-7" font-family="Helvetica,sans-Serif" font-size="10.00">compat/xalloc.h</text>
</a>
</g>
</g>
<!-- Node27&#45;&gt;Node29 -->
<g id="edge28_Node000027_Node000029" class="edge">
<title>Node27&#45;&gt;Node29</title>
<g id="a_edge28_Node000027_Node000029"><a xlink:title=" ">
<path fill="none" stroke="#63b8ff" d="M2552.03,-54.98C2489.98,-45.28 2388.98,-29.49 2325.5,-19.57"/>
<polygon fill="#63b8ff" stroke="#63b8ff" points="2325.68,-16.05 2315.26,-17.97 2324.6,-22.97 2325.68,-16.05"/>
</a>
</g>
</g>
<!-- Node30 -->
<g id="Node000030" class="node">
<title>Node30</title>
<g id="a_Node000030"><a xlink:href="xis_8h.html" target="_top" xlink:title=" ">
<polygon fill="#fff0f0" stroke="red" points="2413.5,-19 2333.5,-19 2333.5,0 2413.5,0 2413.5,-19"/>
<text text-anchor="middle" x="2373.5" y="-7" font-family="Helvetica,sans-Serif" font-size="10.00">compat/xis.h</text>
</a>
</g>
</g>
<!-- Node27&#45;&gt;Node30 -->
<g id="edge29_Node000027_Node000030" class="edge">
<title>Node27&#45;&gt;Node30</title>
<g id="a_edge29_Node000027_Node000030"><a xlink:title=" ">
<path fill="none" stroke="#63b8ff" d="M2569.06,-54.98C2528.85,-45.84 2464.82,-31.27 2421.06,-21.32"/>
<polygon fill="#63b8ff" stroke="#63b8ff" points="2421.76,-17.89 2411.23,-19.08 2420.2,-24.71 2421.76,-17.89"/>
</a>
</g>
</g>
<!-- Node32 -->
<g id="Node000032" class="node">
<title>Node32</title>
<g id="a_Node000032"><a xlink:href="xstrerror_8h.html" target="_top" xlink:title=" ">
<polygon fill="white" stroke="#666666" points="2539,-19 2432,-19 2432,0 2539,0 2539,-19"/>
<text text-anchor="middle" x="2485.5" y="-7" font-family="Helvetica,sans-Serif" font-size="10.00">compat/xstrerror.h</text>
</a>
</g>
</g>
<!-- Node27&#45;&gt;Node32 -->
<g id="edge30_Node000027_Node000032" class="edge">
<title>Node27&#45;&gt;Node32</title>
<g id="a_edge30_Node000027_Node000032"><a xlink:title=" ">
<path fill="none" stroke="#63b8ff" d="M2587.06,-54.98C2567.51,-46.42 2537.12,-33.11 2514.68,-23.28"/>
<polygon fill="#63b8ff" stroke="#63b8ff" points="2515.86,-19.98 2505.29,-19.17 2513.05,-26.39 2515.86,-19.98"/>
</a>
</g>
</g>
<!-- Node33 -->
<g id="Node000033" class="node">
<title>Node33</title>
<g id="a_Node000033"><a xlink:href="xstring_8h.html" target="_top" xlink:title=" ">
<polygon fill="white" stroke="#666666" points="2656,-19 2557,-19 2557,0 2656,0 2656,-19"/>
<text text-anchor="middle" x="2606.5" y="-7" font-family="Helvetica,sans-Serif" font-size="10.00">compat/xstring.h</text>
</a>
</g>
</g>
<!-- Node27&#45;&gt;Node33 -->
<g id="edge31_Node000027_Node000033" class="edge">
<title>Node27&#45;&gt;Node33</title>
<g id="a_edge31_Node000027_Node000033"><a xlink:title=" ">
<path fill="none" stroke="#63b8ff" d="M2606.5,-54.75C2606.5,-47.8 2606.5,-37.85 2606.5,-29.13"/>
<polygon fill="#63b8ff" stroke="#63b8ff" points="2610,-29.09 2606.5,-19.09 2603,-29.09 2610,-29.09"/>
</a>
</g>
</g>
<!-- Node34 -->
<g id="Node000034" class="node">
<title>Node34</title>
<g id="a_Node000034"><a xlink:href="xstrto_8h.html" target="_top" xlink:title=" ">
<polygon fill="white" stroke="#666666" points="2768.5,-19 2674.5,-19 2674.5,0 2768.5,0 2768.5,-19"/>
<text text-anchor="middle" x="2721.5" y="-7" font-family="Helvetica,sans-Serif" font-size="10.00">compat/xstrto.h</text>
</a>
</g>
</g>
<!-- Node27&#45;&gt;Node34 -->
<g id="edge32_Node000027_Node000034" class="edge">
<title>Node27&#45;&gt;Node34</title>
<g id="a_edge32_Node000027_Node000034"><a xlink:title=" ">
<path fill="none" stroke="#63b8ff" d="M2624.98,-54.98C2643.48,-46.46 2672.18,-33.23 2693.48,-23.41"/>
<polygon fill="#63b8ff" stroke="#63b8ff" points="2695.07,-26.53 2702.69,-19.17 2692.14,-20.18 2695.07,-26.53"/>
</a>
</g>
</g>
<!-- Node35 -->
<g id="Node000035" class="node">
<title>Node35</title>
<g id="a_Node000035"><a xlink:href="strtoll_8h.html" target="_top" xlink:title=" ">
<polygon fill="white" stroke="#666666" points="2880.5,-19 2786.5,-19 2786.5,0 2880.5,0 2880.5,-19"/>
<text text-anchor="middle" x="2833.5" y="-7" font-family="Helvetica,sans-Serif" font-size="10.00">compat/strtoll.h</text>
</a>
</g>
</g>
<!-- Node27&#45;&gt;Node35 -->
<g id="edge33_Node000027_Node000035" class="edge">
<title>Node27&#45;&gt;Node35</title>
<g id="a_edge33_Node000027_Node000035"><a xlink:title=" ">
<path fill="none" stroke="#63b8ff" d="M2642.97,-54.98C2682.07,-45.86 2744.27,-31.33 2786.89,-21.38"/>
<polygon fill="#63b8ff" stroke="#63b8ff" points="2787.8,-24.76 2796.74,-19.08 2786.21,-17.95 2787.8,-24.76"/>
</a>
</g>
</g>
<!-- Node36 -->
<g id="Node000036" class="node">
<title>Node36</title>
<g id="a_Node000036"><a xlink:href="memrchr_8h.html" target="_top" xlink:title=" ">
<polygon fill="white" stroke="#666666" points="3008,-19 2899,-19 2899,0 3008,0 3008,-19"/>
<text text-anchor="middle" x="2953.5" y="-7" font-family="Helvetica,sans-Serif" font-size="10.00">compat/memrchr.h</text>
</a>
</g>
</g>
<!-- Node27&#45;&gt;Node36 -->
<g id="edge34_Node000027_Node000036" class="edge">
<title>Node27&#45;&gt;Node36</title>
<g id="a_edge34_Node000027_Node000036"><a xlink:title=" ">
<path fill="none" stroke="#63b8ff" d="M2662.25,-54.98C2723.99,-45.55 2823.39,-30.37 2888.59,-20.41"/>
<polygon fill="#63b8ff" stroke="#63b8ff" points="2889.39,-23.83 2898.75,-18.86 2888.33,-16.91 2889.39,-23.83"/>
</a>
</g>
</g>
<!-- Node38 -->
<g id="Node000038" class="node">
<title>Node38</title>
<g id="a_Node000038"><a xlink:title=" ">
<polygon fill="#e0e0e0" stroke="#999999" points="3079,-19 3026,-19 3026,0 3079,0 3079,-19"/>
<text text-anchor="middle" x="3052.5" y="-7" font-family="Helvetica,sans-Serif" font-size="10.00">cstdarg</text>
</a>
</g>
</g>
<!-- Node37&#45;&gt;Node38 -->
<g id="edge36_Node000037_Node000038" class="edge">
<title>Node37&#45;&gt;Node38</title>
<g id="a_edge36_Node000037_Node000038"><a xlink:title=" ">
<path fill="none" stroke="#63b8ff" d="M2810.13,-55C2861.33,-47.06 2939,-34.42 3015.94,-19"/>
<polygon fill="#63b8ff" stroke="#63b8ff" points="3016.7,-22.42 3025.81,-17 3015.31,-15.56 3016.7,-22.42"/>
</a>
</g>
</g>
<!-- Node46 -->
<g id="Node000046" class="node">
<title>Node46</title>
<g id="a_Node000046"><a xlink:href="dns_2forward_8h.html" target="_top" xlink:title=" ">
<polygon fill="white" stroke="#666666" points="3398,-129 3315,-129 3315,-110 3398,-110 3398,-129"/>
<text text-anchor="middle" x="3356.5" y="-117" font-family="Helvetica,sans-Serif" font-size="10.00">dns/forward.h</text>
</a>
</g>
</g>
<!-- Node45&#45;&gt;Node46 -->
<g id="edge42_Node000045_Node000046" class="edge">
<title>Node45&#45;&gt;Node46</title>
<g id="a_edge42_Node000045_Node000046"><a xlink:title=" ">
<path fill="none" stroke="#63b8ff" d="M3385.72,-164.75C3380.88,-157.42 3373.82,-146.73 3367.86,-137.7"/>
<polygon fill="#63b8ff" stroke="#63b8ff" points="3370.6,-135.5 3362.17,-129.09 3364.76,-139.36 3370.6,-135.5"/>
</a>
</g>
</g>
<!-- Node47 -->
<g id="Node000047" class="node">
<title>Node47</title>
<g id="a_Node000047"><a xlink:href="ip_2forward_8h.html" target="_top" xlink:title=" ">
<polygon fill="white" stroke="#666666" points="3365,-74 3290,-74 3290,-55 3365,-55 3365,-74"/>
<text text-anchor="middle" x="3327.5" y="-62" font-family="Helvetica,sans-Serif" font-size="10.00">ip/forward.h</text>
</a>
</g>
</g>
<!-- Node45&#45;&gt;Node47 -->
<g id="edge47_Node000045_Node000047" class="edge">
<title>Node45&#45;&gt;Node47</title>
<g id="a_edge47_Node000045_Node000047"><a xlink:title=" ">
<path fill="none" stroke="#63b8ff" d="M3356.45,-164.88C3337.85,-158.33 3316.6,-147.24 3305.5,-129 3296.63,-114.42 3305.07,-95.78 3313.95,-82.47"/>
<polygon fill="#63b8ff" stroke="#63b8ff" points="3316.89,-84.37 3319.95,-74.22 3311.23,-80.25 3316.89,-84.37"/>
</a>
</g>
</g>
<!-- Node48 -->
<g id="Node000048" class="node">
<title>Node48</title>
<g id="a_Node000048"><a xlink:href="sbuf_2forward_8h.html" target="_top" xlink:title=" ">
<polygon fill="white" stroke="#666666" points="3470,-74 3383,-74 3383,-55 3470,-55 3470,-74"/>
<text text-anchor="middle" x="3426.5" y="-62" font-family="Helvetica,sans-Serif" font-size="10.00">sbuf/forward.h</text>
</a>
</g>
</g>
<!-- Node45&#45;&gt;Node48 -->
<g id="edge48_Node000045_Node000048" class="edge">
<title>Node45&#45;&gt;Node48</title>
<g id="a_edge48_Node000045_Node000048"><a xlink:title=" ">
<path fill="none" stroke="#63b8ff" d="M3394.43,-164.99C3397.49,-156.04 3402.41,-141.56 3406.5,-129 3411.43,-113.87 3416.84,-96.65 3420.79,-83.96"/>
<polygon fill="#63b8ff" stroke="#63b8ff" points="3424.22,-84.73 3423.84,-74.15 3417.53,-82.66 3424.22,-84.73"/>
</a>
</g>
</g>
<!-- Node51 -->
<g id="Node000051" class="node">
<title>Node51</title>
<g id="a_Node000051"><a xlink:href="store_2forward_8h.html" target="_top" xlink:title=" ">
<polygon fill="white" stroke="#666666" points="3546,-129 3455,-129 3455,-110 3546,-110 3546,-129"/>
<text text-anchor="middle" x="3500.5" y="-117" font-family="Helvetica,sans-Serif" font-size="10.00">store/forward.h</text>
</a>
</g>
</g>
<!-- Node45&#45;&gt;Node51 -->
<g id="edge49_Node000045_Node000051" class="edge">
<title>Node45&#45;&gt;Node51</title>
<g id="a_edge49_Node000045_Node000051"><a xlink:title=" ">
<path fill="none" stroke="#63b8ff" d="M3409.01,-164.98C3426.47,-156.5 3453.51,-143.35 3473.67,-133.54"/>
<polygon fill="#63b8ff" stroke="#63b8ff" points="3475.21,-136.69 3482.67,-129.17 3472.14,-130.4 3475.21,-136.69"/>
</a>
</g>
</g>
<!-- Node46&#45;&gt;Node47 -->
<g id="edge43_Node000046_Node000047" class="edge">
<title>Node46&#45;&gt;Node47</title>
<g id="a_edge43_Node000046_Node000047"><a xlink:title=" ">
<path fill="none" stroke="#63b8ff" d="M3351.71,-109.75C3347.74,-102.49 3341.97,-91.95 3337.07,-82.98"/>
<polygon fill="#63b8ff" stroke="#63b8ff" points="3340.07,-81.18 3332.2,-74.09 3333.93,-84.54 3340.07,-81.18"/>
</a>
</g>
</g>
<!-- Node46&#45;&gt;Node48 -->
<g id="edge44_Node000046_Node000048" class="edge">
<title>Node46&#45;&gt;Node48</title>
<g id="a_edge44_Node000046_Node000048"><a xlink:title=" ">
<path fill="none" stroke="#63b8ff" d="M3367.75,-109.98C3378.3,-102 3394.3,-89.88 3406.94,-80.31"/>
<polygon fill="#63b8ff" stroke="#63b8ff" points="3409.19,-83 3415.05,-74.17 3404.96,-77.42 3409.19,-83"/>
</a>
</g>
</g>
<!-- Node49 -->
<g id="Node000049" class="node">
<title>Node49</title>
<g id="a_Node000049"><a xlink:title=" ">
<polygon fill="#e0e0e0" stroke="#999999" points="3425,-19 3360,-19 3360,0 3425,0 3425,-19"/>
<text text-anchor="middle" x="3392.5" y="-7" font-family="Helvetica,sans-Serif" font-size="10.00">functional</text>
</a>
</g>
</g>
<!-- Node48&#45;&gt;Node49 -->
<g id="edge45_Node000048_Node000049" class="edge">
<title>Node48&#45;&gt;Node49</title>
<g id="a_edge45_Node000048_Node000049"><a xlink:title=" ">
<path fill="none" stroke="#63b8ff" d="M3420.89,-54.75C3416.18,-47.42 3409.33,-36.73 3403.53,-27.7"/>
<polygon fill="#63b8ff" stroke="#63b8ff" points="3406.36,-25.62 3398.01,-19.09 3400.46,-29.4 3406.36,-25.62"/>
</a>
</g>
</g>
<!-- Node50 -->
<g id="Node000050" class="node">
<title>Node50</title>
<g id="a_Node000050"><a xlink:title=" ">
<polygon fill="#e0e0e0" stroke="#999999" points="3475.5,-19 3443.5,-19 3443.5,0 3475.5,0 3475.5,-19"/>
<text text-anchor="middle" x="3459.5" y="-7" font-family="Helvetica,sans-Serif" font-size="10.00">list</text>
</a>
</g>
</g>
<!-- Node48&#45;&gt;Node50 -->
<g id="edge46_Node000048_Node000050" class="edge">
<title>Node48&#45;&gt;Node50</title>
<g id="a_edge46_Node000048_Node000050"><a xlink:title=" ">
<path fill="none" stroke="#63b8ff" d="M3431.95,-54.75C3436.51,-47.42 3443.17,-36.73 3448.79,-27.7"/>
<polygon fill="#63b8ff" stroke="#63b8ff" points="3451.84,-29.43 3454.15,-19.09 3445.9,-25.73 3451.84,-29.43"/>
</a>
</g>
</g>
<!-- Node53 -->
<g id="Node000053" class="node">
<title>Node53</title>
<g id="a_Node000053"><a xlink:title=" ">
<polygon fill="#e0e0e0" stroke="#999999" points="3624.5,-129 3564.5,-129 3564.5,-110 3624.5,-110 3624.5,-129"/>
<text text-anchor="middle" x="3594.5" y="-117" font-family="Helvetica,sans-Serif" font-size="10.00">iostream</text>
</a>
</g>
</g>
<!-- Node52&#45;&gt;Node53 -->
<g id="edge51_Node000052_Node000053" class="edge">
<title>Node52&#45;&gt;Node53</title>
<g id="a_edge51_Node000052_Node000053"><a xlink:title=" ">
<path fill="none" stroke="#63b8ff" d="M3564.44,-164.75C3569.48,-157.34 3576.84,-146.5 3583.01,-137.41"/>
<polygon fill="#63b8ff" stroke="#63b8ff" points="3585.94,-139.33 3588.67,-129.09 3580.15,-135.39 3585.94,-139.33"/>
</a>
</g>
</g>
</g>
</svg>
