<?xml version="1.0" encoding="UTF-8" standalone="no"?>
<!DOCTYPE svg PUBLIC "-//W3C//DTD SVG 1.1//EN"
 "http://www.w3.org/Graphics/SVG/1.1/DTD/svg11.dtd">
<!-- Generated by graphviz version 2.43.0 (0)
 -->
<!-- Title: squid/src/tests/stub_access_log.cc Pages: 1 -->
<!--zoomable 313 -->

<svg id="main" version="1.1" xmlns="http://www.w3.org/2000/svg" xmlns:xlink="http://www.w3.org/1999/xlink" xml:space="preserve" onload="init(evt)">
<style type="text/css"><![CDATA[
.node, .edge {opacity: 0.7;}
.node.selected, .edge.selected {opacity: 1;}
.edge:hover path { stroke: red; }
.edge:hover polygon { stroke: red; fill: red; }
]]></style>

<defs>
  <circle id="rim" cx="0" cy="0" r="7"/>
  <circle id="rim2" cx="0" cy="0" r="3.5"/>
  <g id="zoomPlus">
    <use xlink:href="#rim" fill="#404040"><set attributeName="fill" to="#808080" begin="zoomplus.mouseover" end="zoomplus.mouseout"/></use>
    <path d="M-4,0h8M0,-4v8" fill="none" stroke="white" stroke-width="1.5" pointer-events="none"/>
  </g>
  <g id="zoomMin">
    <use xlink:href="#rim" fill="#404040"><set attributeName="fill" to="#808080" begin="zoomminus.mouseover" end="zoomminus.mouseout"/></use>
    <path d="M-4,0h8" fill="none" stroke="white" stroke-width="1.5" pointer-events="none"/>
  </g>
  <g id="arrowUp" transform="translate(30 24)">
    <use xlink:href="#rim"/>
    <path pointer-events="none" fill="none" stroke="white" stroke-width="1.5" d="M0,-3.0v7 M-2.5,-0.5L0,-3.0L2.5,-0.5"/>
  </g>
  <g id="arrowRight" transform="rotate(90) translate(36 -43)">
    <use xlink:href="#rim"/>
    <path pointer-events="none" fill="none" stroke="white" stroke-width="1.5" d="M0,-3.0v7 M-2.5,-0.5L0,-3.0L2.5,-0.5"/>
  </g>
  <g id="arrowDown" transform="rotate(180) translate(-30 -48)">
    <use xlink:href="#rim"/>
    <path pointer-events="none" fill="none" stroke="white" stroke-width="1.5" d="M0,-3.0v7 M-2.5,-0.5L0,-3.0L2.5,-0.5"/>
  </g>
  <g id="arrowLeft" transform="rotate(270) translate(-36 17)">
    <use xlink:href="#rim"/>
    <path pointer-events="none" fill="none" stroke="white" stroke-width="1.5" d="M0,-3.0v7 M-2.5,-0.5L0,-3.0L2.5,-0.5"/>
  </g>
  <g id="resetDef">
    <use xlink:href="#rim2" fill="#404040"><set attributeName="fill" to="#808080" begin="reset.mouseover" end="reset.mouseout"/></use>
  </g>
</defs>
<script type="application/ecmascript">
var viewWidth = 4161;
var viewHeight = 313;
var sectionId = 'dynsection-0';
</script>
<script type="application/ecmascript" xlink:href="svg.min.js"/>
<svg id="graph" class="graph">
<g id="viewport">
<title>squid/src/tests/stub_access_log.cc</title>
<!-- Node1 -->
<g id="Node000001" class="node">
<title>Node1</title>
<g id="a_Node000001"><a xlink:title=" ">
<polygon fill="#999999" stroke="#666666" points="3774,-305 3663,-305 3663,-275 3774,-275 3774,-305"/>
<text text-anchor="start" x="3671" y="-293" font-family="Helvetica,sans-Serif" font-size="10.00">squid/src/tests/stub</text>
<text text-anchor="middle" x="3718.5" y="-282" font-family="Helvetica,sans-Serif" font-size="10.00">_access_log.cc</text>
</a>
</g>
</g>
<!-- Node2 -->
<g id="Node000002" class="node">
<title>Node2</title>
<g id="a_Node000002"><a xlink:href="squid_8h.html" target="_top" xlink:title=" ">
<polygon fill="white" stroke="#666666" points="1648.5,-239 1596.5,-239 1596.5,-220 1648.5,-220 1648.5,-239"/>
<text text-anchor="middle" x="1622.5" y="-227" font-family="Helvetica,sans-Serif" font-size="10.00">squid.h</text>
</a>
</g>
</g>
<!-- Node1&#45;&gt;Node2 -->
<g id="edge1_Node000001_Node000002" class="edge">
<title>Node1&#45;&gt;Node2</title>
<g id="a_edge1_Node000001_Node000002"><a xlink:title=" ">
<path fill="none" stroke="#63b8ff" d="M3662.98,-287.45C3359.79,-278.99 1908.77,-238.49 1659.11,-231.52"/>
<polygon fill="#63b8ff" stroke="#63b8ff" points="1658.88,-228.01 1648.78,-231.23 1658.68,-235.01 1658.88,-228.01"/>
</a>
</g>
</g>
<!-- Node45 -->
<g id="Node000045" class="node">
<title>Node45</title>
<g id="a_Node000045"><a xlink:href="HierarchyLogEntry_8h.html" target="_top" xlink:title=" ">
<polygon fill="white" stroke="#666666" points="3775.5,-239 3661.5,-239 3661.5,-220 3775.5,-220 3775.5,-239"/>
<text text-anchor="middle" x="3718.5" y="-227" font-family="Helvetica,sans-Serif" font-size="10.00">HierarchyLogEntry.h</text>
</a>
</g>
</g>
<!-- Node1&#45;&gt;Node45 -->
<g id="edge32_Node000001_Node000045" class="edge">
<title>Node1&#45;&gt;Node45</title>
<g id="a_edge32_Node000001_Node000045"><a xlink:title=" ">
<path fill="none" stroke="#63b8ff" d="M3718.5,-274.84C3718.5,-267.21 3718.5,-257.7 3718.5,-249.45"/>
<polygon fill="#63b8ff" stroke="#63b8ff" points="3722,-249.27 3718.5,-239.27 3715,-249.27 3722,-249.27"/>
</a>
</g>
</g>
<!-- Node77 -->
<g id="Node000077" class="node">
<title>Node77</title>
<g id="a_Node000077"><a xlink:href="STUB_8h.html" target="_top" xlink:title=" ">
<polygon fill="white" stroke="#666666" points="4042,-239 3963,-239 3963,-220 4042,-220 4042,-239"/>
<text text-anchor="middle" x="4002.5" y="-227" font-family="Helvetica,sans-Serif" font-size="10.00">tests/STUB.h</text>
</a>
</g>
</g>
<!-- Node1&#45;&gt;Node77 -->
<g id="edge52_Node000001_Node000077" class="edge">
<title>Node1&#45;&gt;Node77</title>
<g id="a_edge52_Node000001_Node000077"><a xlink:title=" ">
<path fill="none" stroke="#63b8ff" d="M3774.27,-277.51C3826.26,-266.8 3903.06,-250.98 3952.95,-240.71"/>
<polygon fill="#63b8ff" stroke="#63b8ff" points="3953.77,-244.11 3962.86,-238.67 3952.36,-237.26 3953.77,-244.11"/>
</a>
</g>
</g>
<!-- Node3 -->
<g id="Node000003" class="node">
<title>Node3</title>
<g id="a_Node000003"><a xlink:href="autoconf_8h.html" target="_top" xlink:title=" ">
<polygon fill="white" stroke="#666666" points="1523.5,-184 1455.5,-184 1455.5,-165 1523.5,-165 1523.5,-184"/>
<text text-anchor="middle" x="1489.5" y="-172" font-family="Helvetica,sans-Serif" font-size="10.00">autoconf.h</text>
</a>
</g>
</g>
<!-- Node2&#45;&gt;Node3 -->
<g id="edge2_Node000002_Node000003" class="edge">
<title>Node2&#45;&gt;Node3</title>
<g id="a_edge2_Node000002_Node000003"><a xlink:title=" ">
<path fill="none" stroke="#63b8ff" d="M1601.13,-219.98C1579.35,-211.3 1545.34,-197.75 1520.58,-187.88"/>
<polygon fill="#63b8ff" stroke="#63b8ff" points="1521.84,-184.62 1511.26,-184.17 1519.25,-191.12 1521.84,-184.62"/>
</a>
</g>
</g>
<!-- Node4 -->
<g id="Node000004" class="node">
<title>Node4</title>
<g id="a_Node000004"><a xlink:href="version_8h.html" target="_top" xlink:title=" ">
<polygon fill="white" stroke="#666666" points="1603.5,-184 1541.5,-184 1541.5,-165 1603.5,-165 1603.5,-184"/>
<text text-anchor="middle" x="1572.5" y="-172" font-family="Helvetica,sans-Serif" font-size="10.00">version.h</text>
</a>
</g>
</g>
<!-- Node2&#45;&gt;Node4 -->
<g id="edge3_Node000002_Node000004" class="edge">
<title>Node2&#45;&gt;Node4</title>
<g id="a_edge3_Node000002_Node000004"><a xlink:title=" ">
<path fill="none" stroke="#63b8ff" d="M1614.24,-219.75C1607.04,-212.11 1596.39,-200.82 1587.65,-191.56"/>
<polygon fill="#63b8ff" stroke="#63b8ff" points="1590.01,-188.96 1580.6,-184.09 1584.92,-193.76 1590.01,-188.96"/>
</a>
</g>
</g>
<!-- Node5 -->
<g id="Node000005" class="node">
<title>Node5</title>
<g id="a_Node000005"><a xlink:href="compat_8h.html" target="_top" xlink:title=" ">
<polygon fill="white" stroke="#666666" points="1723.5,-184 1621.5,-184 1621.5,-165 1723.5,-165 1723.5,-184"/>
<text text-anchor="middle" x="1672.5" y="-172" font-family="Helvetica,sans-Serif" font-size="10.00">compat/compat.h</text>
</a>
</g>
</g>
<!-- Node2&#45;&gt;Node5 -->
<g id="edge4_Node000002_Node000005" class="edge">
<title>Node2&#45;&gt;Node5</title>
<g id="a_edge4_Node000002_Node000005"><a xlink:title=" ">
<path fill="none" stroke="#63b8ff" d="M1630.76,-219.75C1637.96,-212.11 1648.61,-200.82 1657.35,-191.56"/>
<polygon fill="#63b8ff" stroke="#63b8ff" points="1660.08,-193.76 1664.4,-184.09 1654.99,-188.96 1660.08,-193.76"/>
</a>
</g>
</g>
<!-- Node6 -->
<g id="Node000006" class="node">
<title>Node6</title>
<g id="a_Node000006"><a xlink:href="osdetect_8h.html" target="_top" xlink:title=" ">
<polygon fill="white" stroke="#666666" points="107,-129 0,-129 0,-110 107,-110 107,-129"/>
<text text-anchor="middle" x="53.5" y="-117" font-family="Helvetica,sans-Serif" font-size="10.00">compat/osdetect.h</text>
</a>
</g>
</g>
<!-- Node5&#45;&gt;Node6 -->
<g id="edge5_Node000005_Node000006" class="edge">
<title>Node5&#45;&gt;Node6</title>
<g id="a_edge5_Node000005_Node000006"><a xlink:title=" ">
<path fill="none" stroke="#63b8ff" d="M1621.48,-165.86C1618.45,-165.53 1615.44,-165.24 1612.5,-165 953.07,-110.54 781.26,-180.82 117.38,-128.95"/>
<polygon fill="#63b8ff" stroke="#63b8ff" points="117.32,-125.43 107.07,-128.14 116.77,-132.41 117.32,-125.43"/>
</a>
</g>
</g>
<!-- Node7 -->
<g id="Node000007" class="node">
<title>Node7</title>
<g id="a_Node000007"><a xlink:href="fdsetsize_8h.html" target="_top" xlink:title=" ">
<polygon fill="white" stroke="#666666" points="235.5,-129 125.5,-129 125.5,-110 235.5,-110 235.5,-129"/>
<text text-anchor="middle" x="180.5" y="-117" font-family="Helvetica,sans-Serif" font-size="10.00">compat/fdsetsize.h</text>
</a>
</g>
</g>
<!-- Node5&#45;&gt;Node7 -->
<g id="edge6_Node000005_Node000007" class="edge">
<title>Node5&#45;&gt;Node7</title>
<g id="a_edge6_Node000005_Node000007"><a xlink:title=" ">
<path fill="none" stroke="#63b8ff" d="M1621.48,-165.87C1618.45,-165.54 1615.44,-165.25 1612.5,-165 1008.63,-114.42 853.81,-174.1 249.5,-129 248.39,-128.92 247.26,-128.83 246.13,-128.74"/>
<polygon fill="#63b8ff" stroke="#63b8ff" points="246.09,-125.22 235.82,-127.79 245.45,-132.19 246.09,-125.22"/>
</a>
</g>
</g>
<!-- Node8 -->
<g id="Node000008" class="node">
<title>Node8</title>
<g id="a_Node000008"><a xlink:href="types_8h.html" target="_top" xlink:title=" ">
<polygon fill="white" stroke="#666666" points="1734.5,-74 1642.5,-74 1642.5,-55 1734.5,-55 1734.5,-74"/>
<text text-anchor="middle" x="1688.5" y="-62" font-family="Helvetica,sans-Serif" font-size="10.00">compat/types.h</text>
</a>
</g>
</g>
<!-- Node5&#45;&gt;Node8 -->
<g id="edge7_Node000005_Node000008" class="edge">
<title>Node5&#45;&gt;Node8</title>
<g id="a_edge7_Node000005_Node000008"><a xlink:title=" ">
<path fill="none" stroke="#63b8ff" d="M1621.48,-165.87C1618.45,-165.54 1615.44,-165.25 1612.5,-165 1538.84,-158.81 334.05,-181.97 282.5,-129 276.61,-122.95 276.62,-116.06 282.5,-110 330.19,-60.78 1375.64,-63.66 1632.09,-65.12"/>
<polygon fill="#63b8ff" stroke="#63b8ff" points="1632.27,-68.62 1642.29,-65.18 1632.31,-61.62 1632.27,-68.62"/>
</a>
</g>
</g>
<!-- Node10 -->
<g id="Node000010" class="node">
<title>Node10</title>
<g id="a_Node000010"><a xlink:href="aix_8h.html" target="_top" xlink:title=" ">
<polygon fill="white" stroke="#666666" points="387,-129 292,-129 292,-110 387,-110 387,-129"/>
<text text-anchor="middle" x="339.5" y="-117" font-family="Helvetica,sans-Serif" font-size="10.00">compat/os/aix.h</text>
</a>
</g>
</g>
<!-- Node5&#45;&gt;Node10 -->
<g id="edge9_Node000005_Node000010" class="edge">
<title>Node5&#45;&gt;Node10</title>
<g id="a_edge9_Node000005_Node000010"><a xlink:title=" ">
<path fill="none" stroke="#63b8ff" d="M1621.48,-165.88C1618.45,-165.55 1615.44,-165.25 1612.5,-165 1077.07,-119.29 936.76,-176.25 397.02,-128.9"/>
<polygon fill="#63b8ff" stroke="#63b8ff" points="397.31,-125.41 387.04,-128.02 396.69,-132.39 397.31,-125.41"/>
</a>
</g>
</g>
<!-- Node11 -->
<g id="Node000011" class="node">
<title>Node11</title>
<g id="a_Node000011"><a xlink:href="android_8h.html" target="_top" xlink:title=" ">
<polygon fill="white" stroke="#666666" points="521.5,-129 405.5,-129 405.5,-110 521.5,-110 521.5,-129"/>
<text text-anchor="middle" x="463.5" y="-117" font-family="Helvetica,sans-Serif" font-size="10.00">compat/os/android.h</text>
</a>
</g>
</g>
<!-- Node5&#45;&gt;Node11 -->
<g id="edge10_Node000005_Node000011" class="edge">
<title>Node5&#45;&gt;Node11</title>
<g id="a_edge10_Node000005_Node000011"><a xlink:title=" ">
<path fill="none" stroke="#63b8ff" d="M1621.48,-165.89C1618.45,-165.56 1615.43,-165.26 1612.5,-165 1136.56,-123.49 1011.89,-166.7 531.89,-129.02"/>
<polygon fill="#63b8ff" stroke="#63b8ff" points="531.82,-125.5 521.57,-128.2 531.26,-132.48 531.82,-125.5"/>
</a>
</g>
</g>
<!-- Node12 -->
<g id="Node000012" class="node">
<title>Node12</title>
<g id="a_Node000012"><a xlink:href="dragonfly_8h.html" target="_top" xlink:title=" ">
<polygon fill="white" stroke="#666666" points="663.5,-129 539.5,-129 539.5,-110 663.5,-110 663.5,-129"/>
<text text-anchor="middle" x="601.5" y="-117" font-family="Helvetica,sans-Serif" font-size="10.00">compat/os/dragonfly.h</text>
</a>
</g>
</g>
<!-- Node5&#45;&gt;Node12 -->
<g id="edge11_Node000005_Node000012" class="edge">
<title>Node5&#45;&gt;Node12</title>
<g id="a_edge11_Node000005_Node000012"><a xlink:title=" ">
<path fill="none" stroke="#63b8ff" d="M1621.48,-165.91C1618.44,-165.57 1615.43,-165.26 1612.5,-165 1199.44,-127.93 1091.03,-161.33 674.03,-129.05"/>
<polygon fill="#63b8ff" stroke="#63b8ff" points="674.05,-125.54 663.81,-128.25 673.51,-132.52 674.05,-125.54"/>
</a>
</g>
</g>
<!-- Node13 -->
<g id="Node000013" class="node">
<title>Node13</title>
<g id="a_Node000013"><a xlink:href="freebsd_8h.html" target="_top" xlink:title=" ">
<polygon fill="white" stroke="#666666" points="797.5,-129 681.5,-129 681.5,-110 797.5,-110 797.5,-129"/>
<text text-anchor="middle" x="739.5" y="-117" font-family="Helvetica,sans-Serif" font-size="10.00">compat/os/freebsd.h</text>
</a>
</g>
</g>
<!-- Node5&#45;&gt;Node13 -->
<g id="edge12_Node000005_Node000013" class="edge">
<title>Node5&#45;&gt;Node13</title>
<g id="a_edge12_Node000005_Node000013"><a xlink:title=" ">
<path fill="none" stroke="#63b8ff" d="M1621.48,-165.93C1618.44,-165.59 1615.43,-165.27 1612.5,-165 1258.77,-132.12 1165.5,-159.08 807.7,-129.02"/>
<polygon fill="#63b8ff" stroke="#63b8ff" points="807.83,-125.52 797.57,-128.16 807.24,-132.5 807.83,-125.52"/>
</a>
</g>
</g>
<!-- Node14 -->
<g id="Node000014" class="node">
<title>Node14</title>
<g id="a_Node000014"><a xlink:href="hpux_8h.html" target="_top" xlink:title=" ">
<polygon fill="white" stroke="#666666" points="919.5,-129 815.5,-129 815.5,-110 919.5,-110 919.5,-129"/>
<text text-anchor="middle" x="867.5" y="-117" font-family="Helvetica,sans-Serif" font-size="10.00">compat/os/hpux.h</text>
</a>
</g>
</g>
<!-- Node5&#45;&gt;Node14 -->
<g id="edge13_Node000005_Node000014" class="edge">
<title>Node5&#45;&gt;Node14</title>
<g id="a_edge13_Node000005_Node000014"><a xlink:title=" ">
<path fill="none" stroke="#63b8ff" d="M1621.47,-165.96C1618.44,-165.61 1615.43,-165.28 1612.5,-165 1312.76,-135.94 1233.23,-157.56 929.68,-129.02"/>
<polygon fill="#63b8ff" stroke="#63b8ff" points="930,-125.54 919.71,-128.08 929.33,-132.51 930,-125.54"/>
</a>
</g>
</g>
<!-- Node15 -->
<g id="Node000015" class="node">
<title>Node15</title>
<g id="a_Node000015"><a xlink:href="linux_8h.html" target="_top" xlink:title=" ">
<polygon fill="white" stroke="#666666" points="1041.5,-129 937.5,-129 937.5,-110 1041.5,-110 1041.5,-129"/>
<text text-anchor="middle" x="989.5" y="-117" font-family="Helvetica,sans-Serif" font-size="10.00">compat/os/linux.h</text>
</a>
</g>
</g>
<!-- Node5&#45;&gt;Node15 -->
<g id="edge14_Node000005_Node000015" class="edge">
<title>Node5&#45;&gt;Node15</title>
<g id="a_edge14_Node000005_Node000015"><a xlink:title=" ">
<path fill="none" stroke="#63b8ff" d="M1621.47,-166C1618.44,-165.64 1615.43,-165.3 1612.5,-165 1366.8,-139.76 1301.23,-153.9 1051.81,-129.05"/>
<polygon fill="#63b8ff" stroke="#63b8ff" points="1052.01,-125.56 1041.71,-128.04 1051.31,-132.52 1052.01,-125.56"/>
</a>
</g>
</g>
<!-- Node16 -->
<g id="Node000016" class="node">
<title>Node16</title>
<g id="a_Node000016"><a xlink:href="macosx_8h.html" target="_top" xlink:title=" ">
<polygon fill="white" stroke="#666666" points="1177.5,-129 1059.5,-129 1059.5,-110 1177.5,-110 1177.5,-129"/>
<text text-anchor="middle" x="1118.5" y="-117" font-family="Helvetica,sans-Serif" font-size="10.00">compat/os/macosx.h</text>
</a>
</g>
</g>
<!-- Node5&#45;&gt;Node16 -->
<g id="edge15_Node000005_Node000016" class="edge">
<title>Node5&#45;&gt;Node16</title>
<g id="a_edge15_Node000005_Node000016"><a xlink:title=" ">
<path fill="none" stroke="#63b8ff" d="M1621.46,-166.07C1618.43,-165.69 1615.43,-165.33 1612.5,-165 1426.92,-144.03 1377.16,-148.62 1187.83,-129.1"/>
<polygon fill="#63b8ff" stroke="#63b8ff" points="1188.13,-125.61 1177.82,-128.06 1187.41,-132.57 1188.13,-125.61"/>
</a>
</g>
</g>
<!-- Node17 -->
<g id="Node000017" class="node">
<title>Node17</title>
<g id="a_Node000017"><a xlink:href="mingw_8h.html" target="_top" xlink:title=" ">
<polygon fill="white" stroke="#666666" points="1307.5,-129 1195.5,-129 1195.5,-110 1307.5,-110 1307.5,-129"/>
<text text-anchor="middle" x="1251.5" y="-117" font-family="Helvetica,sans-Serif" font-size="10.00">compat/os/mingw.h</text>
</a>
</g>
</g>
<!-- Node5&#45;&gt;Node17 -->
<g id="edge16_Node000005_Node000017" class="edge">
<title>Node5&#45;&gt;Node17</title>
<g id="a_edge16_Node000005_Node000017"><a xlink:title=" ">
<path fill="none" stroke="#63b8ff" d="M1621.45,-166.2C1618.42,-165.79 1615.42,-165.38 1612.5,-165 1484.32,-148.13 1449.66,-145.7 1317.61,-129.13"/>
<polygon fill="#63b8ff" stroke="#63b8ff" points="1317.87,-125.63 1307.52,-127.86 1317,-132.58 1317.87,-125.63"/>
</a>
</g>
</g>
<!-- Node18 -->
<g id="Node000018" class="node">
<title>Node18</title>
<g id="a_Node000018"><a xlink:href="mswindows_8h.html" target="_top" xlink:title=" ">
<polygon fill="white" stroke="#666666" points="1463,-129 1326,-129 1326,-110 1463,-110 1463,-129"/>
<text text-anchor="middle" x="1394.5" y="-117" font-family="Helvetica,sans-Serif" font-size="10.00">compat/os/mswindows.h</text>
</a>
</g>
</g>
<!-- Node5&#45;&gt;Node18 -->
<g id="edge17_Node000005_Node000018" class="edge">
<title>Node5&#45;&gt;Node18</title>
<g id="a_edge17_Node000005_Node000018"><a xlink:title=" ">
<path fill="none" stroke="#63b8ff" d="M1627.83,-164.98C1579.34,-155.74 1501.85,-140.97 1449.61,-131.01"/>
<polygon fill="#63b8ff" stroke="#63b8ff" points="1449.99,-127.52 1439.52,-129.08 1448.68,-134.39 1449.99,-127.52"/>
</a>
</g>
</g>
<!-- Node19 -->
<g id="Node000019" class="node">
<title>Node19</title>
<g id="a_Node000019"><a xlink:href="netbsd_8h.html" target="_top" xlink:title=" ">
<polygon fill="white" stroke="#666666" points="1594,-129 1481,-129 1481,-110 1594,-110 1594,-129"/>
<text text-anchor="middle" x="1537.5" y="-117" font-family="Helvetica,sans-Serif" font-size="10.00">compat/os/netbsd.h</text>
</a>
</g>
</g>
<!-- Node5&#45;&gt;Node19 -->
<g id="edge18_Node000005_Node000019" class="edge">
<title>Node5&#45;&gt;Node19</title>
<g id="a_edge18_Node000005_Node000019"><a xlink:title=" ">
<path fill="none" stroke="#63b8ff" d="M1650.81,-164.98C1628.7,-156.3 1594.18,-142.75 1569.05,-132.88"/>
<polygon fill="#63b8ff" stroke="#63b8ff" points="1570.17,-129.57 1559.58,-129.17 1567.61,-136.08 1570.17,-129.57"/>
</a>
</g>
</g>
<!-- Node20 -->
<g id="Node000020" class="node">
<title>Node20</title>
<g id="a_Node000020"><a xlink:href="openbsd_8h.html" target="_top" xlink:title=" ">
<polygon fill="white" stroke="#666666" points="1733,-129 1612,-129 1612,-110 1733,-110 1733,-129"/>
<text text-anchor="middle" x="1672.5" y="-117" font-family="Helvetica,sans-Serif" font-size="10.00">compat/os/openbsd.h</text>
</a>
</g>
</g>
<!-- Node5&#45;&gt;Node20 -->
<g id="edge19_Node000005_Node000020" class="edge">
<title>Node5&#45;&gt;Node20</title>
<g id="a_edge19_Node000005_Node000020"><a xlink:title=" ">
<path fill="none" stroke="#63b8ff" d="M1672.5,-164.75C1672.5,-157.8 1672.5,-147.85 1672.5,-139.13"/>
<polygon fill="#63b8ff" stroke="#63b8ff" points="1676,-139.09 1672.5,-129.09 1669,-139.09 1676,-139.09"/>
</a>
</g>
</g>
<!-- Node21 -->
<g id="Node000021" class="node">
<title>Node21</title>
<g id="a_Node000021"><a xlink:href="os2_8h.html" target="_top" xlink:title=" ">
<polygon fill="white" stroke="#666666" points="1848,-129 1751,-129 1751,-110 1848,-110 1848,-129"/>
<text text-anchor="middle" x="1799.5" y="-117" font-family="Helvetica,sans-Serif" font-size="10.00">compat/os/os2.h</text>
</a>
</g>
</g>
<!-- Node5&#45;&gt;Node21 -->
<g id="edge20_Node000005_Node000021" class="edge">
<title>Node5&#45;&gt;Node21</title>
<g id="a_edge20_Node000005_Node000021"><a xlink:title=" ">
<path fill="none" stroke="#63b8ff" d="M1692.9,-164.98C1713.52,-156.38 1745.61,-142.99 1769.19,-133.15"/>
<polygon fill="#63b8ff" stroke="#63b8ff" points="1770.84,-136.25 1778.72,-129.17 1768.15,-129.79 1770.84,-136.25"/>
</a>
</g>
</g>
<!-- Node22 -->
<g id="Node000022" class="node">
<title>Node22</title>
<g id="a_Node000022"><a xlink:href="qnx_8h.html" target="_top" xlink:title=" ">
<polygon fill="white" stroke="#666666" points="1964.5,-129 1866.5,-129 1866.5,-110 1964.5,-110 1964.5,-129"/>
<text text-anchor="middle" x="1915.5" y="-117" font-family="Helvetica,sans-Serif" font-size="10.00">compat/os/qnx.h</text>
</a>
</g>
</g>
<!-- Node5&#45;&gt;Node22 -->
<g id="edge21_Node000005_Node000022" class="edge">
<title>Node5&#45;&gt;Node22</title>
<g id="a_edge21_Node000005_Node000022"><a xlink:title=" ">
<path fill="none" stroke="#63b8ff" d="M1711.54,-164.98C1753.58,-155.82 1820.54,-141.21 1866.18,-131.26"/>
<polygon fill="#63b8ff" stroke="#63b8ff" points="1867.13,-134.63 1876.15,-129.08 1865.64,-127.79 1867.13,-134.63"/>
</a>
</g>
</g>
<!-- Node23 -->
<g id="Node000023" class="node">
<title>Node23</title>
<g id="a_Node000023"><a xlink:href="sgi_8h.html" target="_top" xlink:title=" ">
<polygon fill="white" stroke="#666666" points="2076.5,-129 1982.5,-129 1982.5,-110 2076.5,-110 2076.5,-129"/>
<text text-anchor="middle" x="2029.5" y="-117" font-family="Helvetica,sans-Serif" font-size="10.00">compat/os/sgi.h</text>
</a>
</g>
</g>
<!-- Node5&#45;&gt;Node23 -->
<g id="edge22_Node000005_Node000023" class="edge">
<title>Node5&#45;&gt;Node23</title>
<g id="a_edge22_Node000005_Node000023"><a xlink:title=" ">
<path fill="none" stroke="#63b8ff" d="M1723.64,-166C1781.48,-157.5 1878.8,-143.17 1972.51,-129.14"/>
<polygon fill="#63b8ff" stroke="#63b8ff" points="1973.08,-132.6 1982.45,-127.66 1972.04,-125.68 1973.08,-132.6"/>
</a>
</g>
</g>
<!-- Node24 -->
<g id="Node000024" class="node">
<title>Node24</title>
<g id="a_Node000024"><a xlink:href="solaris_8h.html" target="_top" xlink:title=" ">
<polygon fill="white" stroke="#666666" points="2206.5,-129 2094.5,-129 2094.5,-110 2206.5,-110 2206.5,-129"/>
<text text-anchor="middle" x="2150.5" y="-117" font-family="Helvetica,sans-Serif" font-size="10.00">compat/os/solaris.h</text>
</a>
</g>
</g>
<!-- Node5&#45;&gt;Node24 -->
<g id="edge23_Node000005_Node000024" class="edge">
<title>Node5&#45;&gt;Node24</title>
<g id="a_edge23_Node000005_Node000024"><a xlink:title=" ">
<path fill="none" stroke="#63b8ff" d="M1723.73,-168.36C1799.93,-160.63 1947.9,-145.29 2084.27,-129.12"/>
<polygon fill="#63b8ff" stroke="#63b8ff" points="2084.97,-132.56 2094.49,-127.91 2084.15,-125.61 2084.97,-132.56"/>
</a>
</g>
</g>
<!-- Node25 -->
<g id="Node000025" class="node">
<title>Node25</title>
<g id="a_Node000025"><a xlink:href="sunos_8h.html" target="_top" xlink:title=" ">
<polygon fill="white" stroke="#666666" points="2332.5,-129 2224.5,-129 2224.5,-110 2332.5,-110 2332.5,-129"/>
<text text-anchor="middle" x="2278.5" y="-117" font-family="Helvetica,sans-Serif" font-size="10.00">compat/os/sunos.h</text>
</a>
</g>
</g>
<!-- Node5&#45;&gt;Node25 -->
<g id="edge24_Node000005_Node000025" class="edge">
<title>Node5&#45;&gt;Node25</title>
<g id="a_edge24_Node000005_Node000025"><a xlink:title=" ">
<path fill="none" stroke="#63b8ff" d="M1723.87,-170.19C1818.65,-163.89 2027.67,-149.07 2214.23,-129.08"/>
<polygon fill="#63b8ff" stroke="#63b8ff" points="2214.66,-132.56 2224.23,-128.01 2213.91,-125.6 2214.66,-132.56"/>
</a>
</g>
</g>
<!-- Node26 -->
<g id="Node000026" class="node">
<title>Node26</title>
<g id="a_Node000026"><a xlink:href="assert_8h.html" target="_top" xlink:title=" ">
<polygon fill="white" stroke="#666666" points="2446,-129 2351,-129 2351,-110 2446,-110 2446,-129"/>
<text text-anchor="middle" x="2398.5" y="-117" font-family="Helvetica,sans-Serif" font-size="10.00">compat/assert.h</text>
</a>
</g>
</g>
<!-- Node5&#45;&gt;Node26 -->
<g id="edge25_Node000005_Node000026" class="edge">
<title>Node5&#45;&gt;Node26</title>
<g id="a_edge25_Node000005_Node000026"><a xlink:title=" ">
<path fill="none" stroke="#63b8ff" d="M1723.82,-171.52C1834.49,-166.93 2103.99,-154.1 2340.77,-128.98"/>
<polygon fill="#63b8ff" stroke="#63b8ff" points="2341.38,-132.43 2350.95,-127.89 2340.64,-125.47 2341.38,-132.43"/>
</a>
</g>
</g>
<!-- Node27 -->
<g id="Node000027" class="node">
<title>Node27</title>
<g id="a_Node000027"><a xlink:href="compat__shared_8h.html" target="_top" xlink:title=" ">
<polygon fill="#fff0f0" stroke="red" points="2604.5,-129 2464.5,-129 2464.5,-110 2604.5,-110 2604.5,-129"/>
<text text-anchor="middle" x="2534.5" y="-117" font-family="Helvetica,sans-Serif" font-size="10.00">compat/compat_shared.h</text>
</a>
</g>
</g>
<!-- Node5&#45;&gt;Node27 -->
<g id="edge26_Node000005_Node000027" class="edge">
<title>Node5&#45;&gt;Node27</title>
<g id="a_edge26_Node000005_Node000027"><a xlink:title=" ">
<path fill="none" stroke="#63b8ff" d="M1723.8,-171.45C1847.39,-166.33 2171.65,-151.78 2454.24,-128.97"/>
<polygon fill="#63b8ff" stroke="#63b8ff" points="2454.59,-132.46 2464.28,-128.16 2454.03,-125.48 2454.59,-132.46"/>
</a>
</g>
</g>
<!-- Node37 -->
<g id="Node000037" class="node">
<title>Node37</title>
<g id="a_Node000037"><a xlink:href="stdvarargs_8h.html" target="_top" xlink:title=" ">
<polygon fill="#fff0f0" stroke="red" points="2740,-129 2623,-129 2623,-110 2740,-110 2740,-129"/>
<text text-anchor="middle" x="2681.5" y="-117" font-family="Helvetica,sans-Serif" font-size="10.00">compat/stdvarargs.h</text>
</a>
</g>
</g>
<!-- Node5&#45;&gt;Node37 -->
<g id="edge27_Node000005_Node000037" class="edge">
<title>Node5&#45;&gt;Node37</title>
<g id="a_edge27_Node000005_Node000037"><a xlink:title=" ">
<path fill="none" stroke="#63b8ff" d="M1723.59,-172.47C1863.84,-169.34 2266.79,-158.37 2612.96,-128.97"/>
<polygon fill="#63b8ff" stroke="#63b8ff" points="2613.26,-132.45 2622.92,-128.11 2612.66,-125.48 2613.26,-132.45"/>
</a>
</g>
</g>
<!-- Node39 -->
<g id="Node000039" class="node">
<title>Node39</title>
<g id="a_Node000039"><a xlink:href="stdio_8h.html" target="_top" xlink:title=" ">
<polygon fill="#fff0f0" stroke="red" points="2847,-129 2758,-129 2758,-110 2847,-110 2847,-129"/>
<text text-anchor="middle" x="2802.5" y="-117" font-family="Helvetica,sans-Serif" font-size="10.00">compat/stdio.h</text>
</a>
</g>
</g>
<!-- Node5&#45;&gt;Node39 -->
<g id="edge28_Node000005_Node000039" class="edge">
<title>Node5&#45;&gt;Node39</title>
<g id="a_edge28_Node000005_Node000039"><a xlink:title=" ">
<path fill="none" stroke="#63b8ff" d="M1723.61,-173.46C1877.11,-172.92 2347.56,-168.01 2747.73,-128.94"/>
<polygon fill="#63b8ff" stroke="#63b8ff" points="2748.15,-132.41 2757.76,-127.95 2747.47,-125.44 2748.15,-132.41"/>
</a>
</g>
</g>
<!-- Node41 -->
<g id="Node000041" class="node">
<title>Node41</title>
<g id="a_Node000041"><a xlink:href="statvfs_8h.html" target="_top" xlink:title=" ">
<polygon fill="white" stroke="#666666" points="2964,-129 2865,-129 2865,-110 2964,-110 2964,-129"/>
<text text-anchor="middle" x="2914.5" y="-117" font-family="Helvetica,sans-Serif" font-size="10.00">compat/statvfs.h</text>
</a>
</g>
</g>
<!-- Node5&#45;&gt;Node41 -->
<g id="edge29_Node000005_Node000041" class="edge">
<title>Node5&#45;&gt;Node41</title>
<g id="a_edge29_Node000005_Node000041"><a xlink:title=" ">
<path fill="none" stroke="#63b8ff" d="M1723.64,-173.5C1886.96,-173.09 2410.74,-168.63 2854.82,-128.94"/>
<polygon fill="#63b8ff" stroke="#63b8ff" points="2855.32,-132.41 2864.97,-128.02 2854.7,-125.43 2855.32,-132.41"/>
</a>
</g>
</g>
<!-- Node42 -->
<g id="Node000042" class="node">
<title>Node42</title>
<g id="a_Node000042"><a xlink:href="debug_8h.html" target="_top" xlink:title=" ">
<polygon fill="white" stroke="#666666" points="3077,-129 2982,-129 2982,-110 3077,-110 3077,-129"/>
<text text-anchor="middle" x="3029.5" y="-117" font-family="Helvetica,sans-Serif" font-size="10.00">compat/debug.h</text>
</a>
</g>
</g>
<!-- Node5&#45;&gt;Node42 -->
<g id="edge30_Node000005_Node000042" class="edge">
<title>Node5&#45;&gt;Node42</title>
<g id="a_edge30_Node000005_Node000042"><a xlink:title=" ">
<path fill="none" stroke="#63b8ff" d="M1723.73,-173.84C1897.44,-174.54 2480.1,-173.28 2971.82,-128.92"/>
<polygon fill="#63b8ff" stroke="#63b8ff" points="2972.32,-132.39 2981.96,-128 2971.69,-125.42 2972.32,-132.39"/>
</a>
</g>
</g>
<!-- Node43 -->
<g id="Node000043" class="node">
<title>Node43</title>
<g id="a_Node000043"><a xlink:href="valgrind_8h.html" target="_top" xlink:title=" ">
<polygon fill="#fff0f0" stroke="red" points="3200,-129 3095,-129 3095,-110 3200,-110 3200,-129"/>
<text text-anchor="middle" x="3147.5" y="-117" font-family="Helvetica,sans-Serif" font-size="10.00">compat/valgrind.h</text>
</a>
</g>
</g>
<!-- Node5&#45;&gt;Node43 -->
<g id="edge31_Node000005_Node000043" class="edge">
<title>Node5&#45;&gt;Node43</title>
<g id="a_edge31_Node000005_Node000043"><a xlink:title=" ">
<path fill="none" stroke="#63b8ff" d="M1723.62,-173.82C1906.61,-174.56 2546.28,-173.65 3084.47,-128.97"/>
<polygon fill="#63b8ff" stroke="#63b8ff" points="3085.1,-132.43 3094.78,-128.11 3084.52,-125.46 3085.1,-132.43"/>
</a>
</g>
</g>
<!-- Node9 -->
<g id="Node000009" class="node">
<title>Node9</title>
<g id="a_Node000009"><a xlink:title=" ">
<polygon fill="#e0e0e0" stroke="#999999" points="2449.5,-19 2399.5,-19 2399.5,0 2449.5,0 2449.5,-19"/>
<text text-anchor="middle" x="2424.5" y="-7" font-family="Helvetica,sans-Serif" font-size="10.00">cstdint</text>
</a>
</g>
</g>
<!-- Node8&#45;&gt;Node9 -->
<g id="edge8_Node000008_Node000009" class="edge">
<title>Node8&#45;&gt;Node9</title>
<g id="a_edge8_Node000008_Node000009"><a xlink:title=" ">
<path fill="none" stroke="#63b8ff" d="M1734.54,-60.18C1870.48,-50.4 2268.15,-21.76 2389.16,-13.05"/>
<polygon fill="#63b8ff" stroke="#63b8ff" points="2389.62,-16.52 2399.34,-12.31 2389.12,-9.54 2389.62,-16.52"/>
</a>
</g>
</g>
<!-- Node46 -->
<g id="Node000046" class="node">
<title>Node46</title>
<g id="a_Node000046"><a xlink:href="Stopwatch_8h.html" target="_top" xlink:title=" ">
<polygon fill="white" stroke="#666666" points="3280,-74 3177,-74 3177,-55 3280,-55 3280,-74"/>
<text text-anchor="middle" x="3228.5" y="-62" font-family="Helvetica,sans-Serif" font-size="10.00">base/Stopwatch.h</text>
</a>
</g>
</g>
<!-- Node45&#45;&gt;Node46 -->
<g id="edge33_Node000045_Node000046" class="edge">
<title>Node45&#45;&gt;Node46</title>
<g id="a_edge33_Node000045_Node000046"><a xlink:title=" ">
<path fill="none" stroke="#63b8ff" d="M3661.44,-223.92C3549.36,-213.75 3306.25,-185.62 3247.5,-129 3235.47,-117.41 3230.97,-98.54 3229.34,-84.38"/>
<polygon fill="#63b8ff" stroke="#63b8ff" points="3232.81,-83.95 3228.55,-74.26 3225.84,-84.5 3232.81,-83.95"/>
</a>
</g>
</g>
<!-- Node48 -->
<g id="Node000048" class="node">
<title>Node48</title>
<g id="a_Node000048"><a xlink:href="Connection_8h.html" target="_top" xlink:title=" ">
<polygon fill="#fff0f0" stroke="red" points="3582.5,-184 3468.5,-184 3468.5,-165 3582.5,-165 3582.5,-184"/>
<text text-anchor="middle" x="3525.5" y="-172" font-family="Helvetica,sans-Serif" font-size="10.00">comm/Connection.h</text>
</a>
</g>
</g>
<!-- Node45&#45;&gt;Node48 -->
<g id="edge36_Node000045_Node000048" class="edge">
<title>Node45&#45;&gt;Node48</title>
<g id="a_edge36_Node000045_Node000048"><a xlink:title=" ">
<path fill="none" stroke="#63b8ff" d="M3687.49,-219.98C3654.67,-210.97 3602.7,-196.7 3566.51,-186.76"/>
<polygon fill="#63b8ff" stroke="#63b8ff" points="3567.32,-183.36 3556.75,-184.08 3565.47,-190.11 3567.32,-183.36"/>
</a>
</g>
</g>
<!-- Node62 -->
<g id="Node000062" class="node">
<title>Node62</title>
<g id="a_Node000062"><a xlink:href="hier__code_8h.html" target="_top" xlink:title=" ">
<polygon fill="white" stroke="#666666" points="3874,-129 3801,-129 3801,-110 3874,-110 3874,-129"/>
<text text-anchor="middle" x="3837.5" y="-117" font-family="Helvetica,sans-Serif" font-size="10.00">hier_code.h</text>
</a>
</g>
</g>
<!-- Node45&#45;&gt;Node62 -->
<g id="edge47_Node000045_Node000062" class="edge">
<title>Node45&#45;&gt;Node62</title>
<g id="a_edge47_Node000045_Node000062"><a xlink:title=" ">
<path fill="none" stroke="#63b8ff" d="M3687.07,-219.94C3654.04,-209.39 3609.45,-189.8 3629.5,-165 3632.07,-161.83 3730.27,-141.82 3790.8,-129.74"/>
<polygon fill="#63b8ff" stroke="#63b8ff" points="3791.78,-133.11 3800.91,-127.72 3790.41,-126.25 3791.78,-133.11"/>
</a>
</g>
</g>
<!-- Node70 -->
<g id="Node000070" class="node">
<title>Node70</title>
<g id="a_Node000070"><a xlink:href="enums_8h.html" target="_top" xlink:title=" ">
<polygon fill="white" stroke="#666666" points="3698,-184 3639,-184 3639,-165 3698,-165 3698,-184"/>
<text text-anchor="middle" x="3668.5" y="-172" font-family="Helvetica,sans-Serif" font-size="10.00">enums.h</text>
</a>
</g>
</g>
<!-- Node45&#45;&gt;Node70 -->
<g id="edge46_Node000045_Node000070" class="edge">
<title>Node45&#45;&gt;Node70</title>
<g id="a_edge46_Node000045_Node000070"><a xlink:title=" ">
<path fill="none" stroke="#63b8ff" d="M3710.24,-219.75C3703.04,-212.11 3692.39,-200.82 3683.65,-191.56"/>
<polygon fill="#63b8ff" stroke="#63b8ff" points="3686.01,-188.96 3676.6,-184.09 3680.92,-193.76 3686.01,-188.96"/>
</a>
</g>
</g>
<!-- Node71 -->
<g id="Node000071" class="node">
<title>Node71</title>
<g id="a_Node000071"><a xlink:href="StatusCode_8h.html" target="_top" xlink:title=" ">
<polygon fill="white" stroke="#666666" points="3820.5,-184 3716.5,-184 3716.5,-165 3820.5,-165 3820.5,-184"/>
<text text-anchor="middle" x="3768.5" y="-172" font-family="Helvetica,sans-Serif" font-size="10.00">http/StatusCode.h</text>
</a>
</g>
</g>
<!-- Node45&#45;&gt;Node71 -->
<g id="edge48_Node000045_Node000071" class="edge">
<title>Node45&#45;&gt;Node71</title>
<g id="a_edge48_Node000045_Node000071"><a xlink:title=" ">
<path fill="none" stroke="#63b8ff" d="M3726.76,-219.75C3733.96,-212.11 3744.61,-200.82 3753.35,-191.56"/>
<polygon fill="#63b8ff" stroke="#63b8ff" points="3756.08,-193.76 3760.4,-184.09 3750.99,-188.96 3756.08,-193.76"/>
</a>
</g>
</g>
<!-- Node72 -->
<g id="Node000072" class="node">
<title>Node72</title>
<g id="a_Node000072"><a xlink:href="lookup__t_8h.html" target="_top" xlink:title=" ">
<polygon fill="white" stroke="#666666" points="3906,-184 3839,-184 3839,-165 3906,-165 3906,-184"/>
<text text-anchor="middle" x="3872.5" y="-172" font-family="Helvetica,sans-Serif" font-size="10.00">lookup_t.h</text>
</a>
</g>
</g>
<!-- Node45&#45;&gt;Node72 -->
<g id="edge49_Node000045_Node000072" class="edge">
<title>Node45&#45;&gt;Node72</title>
<g id="a_edge49_Node000045_Node000072"><a xlink:title=" ">
<path fill="none" stroke="#63b8ff" d="M3743.24,-219.98C3768.87,-211.16 3809.13,-197.31 3837.91,-187.41"/>
<polygon fill="#63b8ff" stroke="#63b8ff" points="3839.25,-190.65 3847.56,-184.08 3836.97,-184.03 3839.25,-190.65"/>
</a>
</g>
</g>
<!-- Node73 -->
<g id="Node000073" class="node">
<title>Node73</title>
<g id="a_Node000073"><a xlink:href="PingData_8h.html" target="_top" xlink:title=" ">
<polygon fill="#fff0f0" stroke="red" points="3994.5,-184 3924.5,-184 3924.5,-165 3994.5,-165 3994.5,-184"/>
<text text-anchor="middle" x="3959.5" y="-172" font-family="Helvetica,sans-Serif" font-size="10.00">PingData.h</text>
</a>
</g>
</g>
<!-- Node45&#45;&gt;Node73 -->
<g id="edge50_Node000045_Node000073" class="edge">
<title>Node45&#45;&gt;Node73</title>
<g id="a_edge50_Node000045_Node000073"><a xlink:title=" ">
<path fill="none" stroke="#63b8ff" d="M3757.22,-219.98C3800.15,-210.54 3869.28,-195.34 3914.56,-185.38"/>
<polygon fill="#63b8ff" stroke="#63b8ff" points="3915.39,-188.78 3924.4,-183.22 3913.88,-181.95 3915.39,-188.78"/>
</a>
</g>
</g>
<!-- Node76 -->
<g id="Node000076" class="node">
<title>Node76</title>
<g id="a_Node000076"><a xlink:href="rfc2181_8h.html" target="_top" xlink:title=" ">
<polygon fill="white" stroke="#666666" points="4074.5,-184 4012.5,-184 4012.5,-165 4074.5,-165 4074.5,-184"/>
<text text-anchor="middle" x="4043.5" y="-172" font-family="Helvetica,sans-Serif" font-size="10.00">rfc2181.h</text>
</a>
</g>
</g>
<!-- Node45&#45;&gt;Node76 -->
<g id="edge51_Node000045_Node000076" class="edge">
<title>Node45&#45;&gt;Node76</title>
<g id="a_edge51_Node000045_Node000076"><a xlink:title=" ">
<path fill="none" stroke="#63b8ff" d="M3775.7,-220.5C3831.16,-212.54 3917.9,-199.53 4002.1,-184.18"/>
<polygon fill="#63b8ff" stroke="#63b8ff" points="4002.89,-187.59 4012.09,-182.34 4001.62,-180.71 4002.89,-187.59"/>
</a>
</g>
</g>
<!-- Node46&#45;&gt;Node9 -->
<g id="edge35_Node000046_Node000009" class="edge">
<title>Node46&#45;&gt;Node9</title>
<g id="a_edge35_Node000046_Node000009"><a xlink:title=" ">
<path fill="none" stroke="#63b8ff" d="M3176.98,-60.1C3025.96,-50.15 2586.96,-21.21 2459.55,-12.81"/>
<polygon fill="#63b8ff" stroke="#63b8ff" points="2459.76,-9.32 2449.55,-12.15 2459.3,-16.3 2459.76,-9.32"/>
</a>
</g>
</g>
<!-- Node47 -->
<g id="Node000047" class="node">
<title>Node47</title>
<g id="a_Node000047"><a xlink:title=" ">
<polygon fill="#e0e0e0" stroke="#999999" points="3253.5,-19 3203.5,-19 3203.5,0 3253.5,0 3253.5,-19"/>
<text text-anchor="middle" x="3228.5" y="-7" font-family="Helvetica,sans-Serif" font-size="10.00">chrono</text>
</a>
</g>
</g>
<!-- Node46&#45;&gt;Node47 -->
<g id="edge34_Node000046_Node000047" class="edge">
<title>Node46&#45;&gt;Node47</title>
<g id="a_edge34_Node000046_Node000047"><a xlink:title=" ">
<path fill="none" stroke="#63b8ff" d="M3228.5,-54.75C3228.5,-47.8 3228.5,-37.85 3228.5,-29.13"/>
<polygon fill="#63b8ff" stroke="#63b8ff" points="3232,-29.09 3228.5,-19.09 3225,-29.09 3232,-29.09"/>
</a>
</g>
</g>
<!-- Node49 -->
<g id="Node000049" class="node">
<title>Node49</title>
<g id="a_Node000049"><a xlink:href="CodeContext_8h.html" target="_top" xlink:title=" ">
<polygon fill="#fff0f0" stroke="red" points="3372,-129 3257,-129 3257,-110 3372,-110 3372,-129"/>
<text text-anchor="middle" x="3314.5" y="-117" font-family="Helvetica,sans-Serif" font-size="10.00">base/CodeContext.h</text>
</a>
</g>
</g>
<!-- Node48&#45;&gt;Node49 -->
<g id="edge37_Node000048_Node000049" class="edge">
<title>Node48&#45;&gt;Node49</title>
<g id="a_edge37_Node000048_Node000049"><a xlink:title=" ">
<path fill="none" stroke="#63b8ff" d="M3491.6,-164.98C3455.48,-155.91 3398.18,-141.52 3358.58,-131.57"/>
<polygon fill="#63b8ff" stroke="#63b8ff" points="3359.22,-128.12 3348.67,-129.08 3357.51,-134.91 3359.22,-128.12"/>
</a>
</g>
</g>
<!-- Node50 -->
<g id="Node000050" class="node">
<title>Node50</title>
<g id="a_Node000050"><a xlink:href="InstanceId_8h.html" target="_top" xlink:title=" ">
<polygon fill="#fff0f0" stroke="red" points="3425.5,-74 3323.5,-74 3323.5,-55 3425.5,-55 3425.5,-74"/>
<text text-anchor="middle" x="3374.5" y="-62" font-family="Helvetica,sans-Serif" font-size="10.00">base/InstanceId.h</text>
</a>
</g>
</g>
<!-- Node48&#45;&gt;Node50 -->
<g id="edge40_Node000048_Node000050" class="edge">
<title>Node48&#45;&gt;Node50</title>
<g id="a_edge40_Node000048_Node000050"><a xlink:title=" ">
<path fill="none" stroke="#63b8ff" d="M3492.88,-164.99C3470.53,-157.98 3441.14,-146.36 3419.5,-129 3403.89,-116.48 3391.29,-97.2 3383.43,-83.17"/>
<polygon fill="#63b8ff" stroke="#63b8ff" points="3386.36,-81.23 3378.57,-74.05 3380.18,-84.52 3386.36,-81.23"/>
</a>
</g>
</g>
<!-- Node56 -->
<g id="Node000056" class="node">
<title>Node56</title>
<g id="a_Node000056"><a xlink:href="comm_2forward_8h.html" target="_top" xlink:title=" ">
<polygon fill="#fff0f0" stroke="red" points="3526,-129 3429,-129 3429,-110 3526,-110 3526,-129"/>
<text text-anchor="middle" x="3477.5" y="-117" font-family="Helvetica,sans-Serif" font-size="10.00">comm/forward.h</text>
</a>
</g>
</g>
<!-- Node48&#45;&gt;Node56 -->
<g id="edge41_Node000048_Node000056" class="edge">
<title>Node48&#45;&gt;Node56</title>
<g id="a_edge41_Node000048_Node000056"><a xlink:title=" ">
<path fill="none" stroke="#63b8ff" d="M3517.57,-164.75C3510.65,-157.11 3500.43,-145.82 3492.05,-136.56"/>
<polygon fill="#63b8ff" stroke="#63b8ff" points="3494.59,-134.15 3485.28,-129.09 3489.4,-138.85 3494.59,-134.15"/>
</a>
</g>
</g>
<!-- Node58 -->
<g id="Node000058" class="node">
<title>Node58</title>
<g id="a_Node000058"><a xlink:href="defines_8h.html" target="_top" xlink:title=" ">
<polygon fill="white" stroke="#666666" points="3605,-129 3544,-129 3544,-110 3605,-110 3605,-129"/>
<text text-anchor="middle" x="3574.5" y="-117" font-family="Helvetica,sans-Serif" font-size="10.00">defines.h</text>
</a>
</g>
</g>
<!-- Node48&#45;&gt;Node58 -->
<g id="edge42_Node000048_Node000058" class="edge">
<title>Node48&#45;&gt;Node58</title>
<g id="a_edge42_Node000048_Node000058"><a xlink:title=" ">
<path fill="none" stroke="#63b8ff" d="M3533.59,-164.75C3540.66,-157.11 3551.09,-145.82 3559.65,-136.56"/>
<polygon fill="#63b8ff" stroke="#63b8ff" points="3562.34,-138.81 3566.56,-129.09 3557.2,-134.06 3562.34,-138.81"/>
</a>
</g>
</g>
<!-- Node59 -->
<g id="Node000059" class="node">
<title>Node59</title>
<g id="a_Node000059"><a xlink:href="Eui48_8h.html" target="_top" xlink:title=" ">
<polygon fill="#fff0f0" stroke="red" points="3694,-129 3623,-129 3623,-110 3694,-110 3694,-129"/>
<text text-anchor="middle" x="3658.5" y="-117" font-family="Helvetica,sans-Serif" font-size="10.00">eui/Eui48.h</text>
</a>
</g>
</g>
<!-- Node48&#45;&gt;Node59 -->
<g id="edge43_Node000048_Node000059" class="edge">
<title>Node48&#45;&gt;Node59</title>
<g id="a_edge43_Node000048_Node000059"><a xlink:title=" ">
<path fill="none" stroke="#63b8ff" d="M3546.87,-164.98C3568.65,-156.3 3602.66,-142.75 3627.42,-132.88"/>
<polygon fill="#63b8ff" stroke="#63b8ff" points="3628.75,-136.12 3636.74,-129.17 3626.16,-129.62 3628.75,-136.12"/>
</a>
</g>
</g>
<!-- Node61 -->
<g id="Node000061" class="node">
<title>Node61</title>
<g id="a_Node000061"><a xlink:href="eui_2Eui64_8h.html" target="_top" xlink:title=" ">
<polygon fill="#fff0f0" stroke="red" points="3783,-129 3712,-129 3712,-110 3783,-110 3783,-129"/>
<text text-anchor="middle" x="3747.5" y="-117" font-family="Helvetica,sans-Serif" font-size="10.00">eui/Eui64.h</text>
</a>
</g>
</g>
<!-- Node48&#45;&gt;Node61 -->
<g id="edge44_Node000048_Node000061" class="edge">
<title>Node48&#45;&gt;Node61</title>
<g id="a_edge44_Node000048_Node000061"><a xlink:title=" ">
<path fill="none" stroke="#63b8ff" d="M3561.17,-164.98C3599.44,-155.85 3660.33,-141.31 3702.02,-131.36"/>
<polygon fill="#63b8ff" stroke="#63b8ff" points="3703.01,-134.72 3711.92,-128.99 3701.38,-127.91 3703.01,-134.72"/>
</a>
</g>
</g>
<!-- Node48&#45;&gt;Node62 -->
<g id="edge45_Node000048_Node000062" class="edge">
<title>Node48&#45;&gt;Node62</title>
<g id="a_edge45_Node000048_Node000062"><a xlink:title=" ">
<path fill="none" stroke="#63b8ff" d="M3578.03,-164.98C3629.52,-156.57 3710.51,-143.18 3790.58,-129.14"/>
<polygon fill="#63b8ff" stroke="#63b8ff" points="3791.61,-132.51 3800.85,-127.33 3790.4,-125.61 3791.61,-132.51"/>
</a>
</g>
</g>
<!-- Node49&#45;&gt;Node46 -->
<g id="edge39_Node000049_Node000046" class="edge">
<title>Node49&#45;&gt;Node46</title>
<g id="a_edge39_Node000049_Node000046"><a xlink:title=" ">
<path fill="none" stroke="#63b8ff" d="M3300.68,-109.98C3287.35,-101.77 3266.92,-89.18 3251.19,-79.49"/>
<polygon fill="#63b8ff" stroke="#63b8ff" points="3252.92,-76.44 3242.57,-74.17 3249.25,-82.4 3252.92,-76.44"/>
</a>
</g>
</g>
<!-- Node49&#45;&gt;Node50 -->
<g id="edge38_Node000049_Node000050" class="edge">
<title>Node49&#45;&gt;Node50</title>
<g id="a_edge38_Node000049_Node000050"><a xlink:title=" ">
<path fill="none" stroke="#63b8ff" d="M3324.14,-109.98C3333.01,-102.15 3346.37,-90.34 3357.11,-80.86"/>
<polygon fill="#63b8ff" stroke="#63b8ff" points="3359.51,-83.41 3364.68,-74.17 3354.87,-78.17 3359.51,-83.41"/>
</a>
</g>
</g>
<!-- Node54 -->
<g id="Node000054" class="node">
<title>Node54</title>
<g id="a_Node000054"><a xlink:title=" ">
<polygon fill="#e0e0e0" stroke="#999999" points="4152.5,-184 4092.5,-184 4092.5,-165 4152.5,-165 4152.5,-184"/>
<text text-anchor="middle" x="4122.5" y="-172" font-family="Helvetica,sans-Serif" font-size="10.00">iostream</text>
</a>
</g>
</g>
<!-- Node77&#45;&gt;Node54 -->
<g id="edge53_Node000077_Node000054" class="edge">
<title>Node77&#45;&gt;Node54</title>
<g id="a_edge53_Node000077_Node000054"><a xlink:title=" ">
<path fill="none" stroke="#63b8ff" d="M4021.78,-219.98C4041.17,-211.42 4071.31,-198.11 4093.57,-188.28"/>
<polygon fill="#63b8ff" stroke="#63b8ff" points="4095.14,-191.41 4102.87,-184.17 4092.31,-185.01 4095.14,-191.41"/>
</a>
</g>
</g>
</g>
</svg>

<g id="navigator" transform="translate(0 0)" fill="#404254">
  <rect fill="#f2f5e9" fill-opacity="0.5" stroke="#606060" stroke-width=".5" x="0" y="0" width="60" height="60"/>
  <use id="zoomplus" xlink:href="#zoomPlus" x="17" y="9" onmousedown="handleZoom(evt,'in')"/>
  <use id="zoomminus" xlink:href="#zoomMin" x="42" y="9" onmousedown="handleZoom(evt,'out')"/>
  <use id="reset" xlink:href="#resetDef" x="30" y="36" onmousedown="handleReset()"/>
   <use id="arrowup" xlink:href="#arrowUp" x="0" y="0" onmousedown="handlePan(0,-1)"/>
  <use id="arrowright" xlink:href="#arrowRight" x="0" y="0" onmousedown="handlePan(1,0)"/>
  <use id="arrowdown" xlink:href="#arrowDown" x="0" y="0" onmousedown="handlePan(0,1)"/>
  <use id="arrowleft" xlink:href="#arrowLeft" x="0" y="0" onmousedown="handlePan(-1,0)"/>
</g>
<svg viewBox="0 0 15 15" width="100%" height="30px" preserveAspectRatio="xMaxYMin meet">
 <g id="arrow_out" transform="scale(0.3 0.3)">
  <a xlink:href="stub__access__log_8cc__incl_org.svg" target="_base">
   <rect id="button" ry="5" rx="5" y="6" x="6" height="38" width="38"
        fill="#f2f5e9" fill-opacity="0.5" stroke="#606060" stroke-width="1.0"/>
   <path id="arrow"
     d="M 11.500037,31.436501 C 11.940474,20.09759 22.043105,11.32322 32.158766,21.979434 L 37.068811,17.246167 C 37.068811,17.246167 37.088388,32 37.088388,32 L 22.160133,31.978069 C 22.160133,31.978069 26.997745,27.140456 26.997745,27.140456 C 18.528582,18.264221 13.291696,25.230495 11.500037,31.436501 z"
     style="fill:#404040;"/>
  </a>
 </g>
</svg>

<style type='text/css'>
<![CDATA[
[data-mouse-over-selected='false'] { opacity: 0.7; }
[data-mouse-over-selected='true']  { opacity: 1.0; }
]]>
</style>
<script type="application/ecmascript"><![CDATA[
document.addEventListener('DOMContentLoaded', (event) => {
  highlightEdges();
  highlightAdjacentNodes();
});
]]></script>
</svg>
