<?xml version="1.0" encoding="UTF-8" standalone="no"?>
<!DOCTYPE svg PUBLIC "-//W3C//DTD SVG 1.1//EN"
 "http://www.w3.org/Graphics/SVG/1.1/DTD/svg11.dtd">
<!-- Generated by graphviz version 2.43.0 (0)
 -->
<!-- Title: squid/src/tests/stub_MemStore.cc Pages: 1 -->
<svg width="4377pt" height="258pt"
 viewBox="0.00 0.00 4376.50 258.00" xmlns="http://www.w3.org/2000/svg" xmlns:xlink="http://www.w3.org/1999/xlink">
<g id="graph0" class="graph" transform="scale(1 1) rotate(0) translate(4 254)">
<title>squid/src/tests/stub_MemStore.cc</title>
<!-- Node1 -->
<g id="Node000001" class="node">
<title>Node1</title>
<g id="a_Node000001"><a xlink:title=" ">
<polygon fill="#999999" stroke="#666666" points="3924,-250 3813,-250 3813,-220 3924,-220 3924,-250"/>
<text text-anchor="start" x="3821" y="-238" font-family="Helvetica,sans-Serif" font-size="10.00">squid/src/tests/stub</text>
<text text-anchor="middle" x="3868.5" y="-227" font-family="Helvetica,sans-Serif" font-size="10.00">_MemStore.cc</text>
</a>
</g>
</g>
<!-- Node2 -->
<g id="Node000002" class="node">
<title>Node2</title>
<g id="a_Node000002"><a xlink:href="squid_8h.html" target="_top" xlink:title=" ">
<polygon fill="white" stroke="#666666" points="1653.5,-184 1601.5,-184 1601.5,-165 1653.5,-165 1653.5,-184"/>
<text text-anchor="middle" x="1627.5" y="-172" font-family="Helvetica,sans-Serif" font-size="10.00">squid.h</text>
</a>
</g>
</g>
<!-- Node1&#45;&gt;Node2 -->
<g id="edge1_Node000001_Node000002" class="edge">
<title>Node1&#45;&gt;Node2</title>
<g id="a_edge1_Node000001_Node000002"><a xlink:title=" ">
<path fill="none" stroke="#63b8ff" d="M3812.82,-232.55C3495.73,-224.27 1922.65,-183.2 1663.63,-176.44"/>
<polygon fill="#63b8ff" stroke="#63b8ff" points="1663.71,-172.94 1653.62,-176.18 1663.53,-179.94 1663.71,-172.94"/>
</a>
</g>
</g>
<!-- Node44 -->
<g id="Node000044" class="node">
<title>Node44</title>
<g id="a_Node000044"><a xlink:href="MemStore_8h.html" target="_top" xlink:title=" ">
<polygon fill="white" stroke="#666666" points="3906.5,-184 3830.5,-184 3830.5,-165 3906.5,-165 3906.5,-184"/>
<text text-anchor="middle" x="3868.5" y="-172" font-family="Helvetica,sans-Serif" font-size="10.00">MemStore.h</text>
</a>
</g>
</g>
<!-- Node1&#45;&gt;Node44 -->
<g id="edge30_Node000001_Node000044" class="edge">
<title>Node1&#45;&gt;Node44</title>
<g id="a_edge30_Node000001_Node000044"><a xlink:title=" ">
<path fill="none" stroke="#63b8ff" d="M3868.5,-219.84C3868.5,-212.21 3868.5,-202.7 3868.5,-194.45"/>
<polygon fill="#63b8ff" stroke="#63b8ff" points="3872,-194.27 3868.5,-184.27 3865,-194.27 3872,-194.27"/>
</a>
</g>
</g>
<!-- Node225 -->
<g id="Node000225" class="node">
<title>Node225</title>
<g id="a_Node000225"><a xlink:href="STUB_8h.html" target="_top" xlink:title=" ">
<polygon fill="white" stroke="#666666" points="4138,-184 4059,-184 4059,-165 4138,-165 4138,-184"/>
<text text-anchor="middle" x="4098.5" y="-172" font-family="Helvetica,sans-Serif" font-size="10.00">tests/STUB.h</text>
</a>
</g>
</g>
<!-- Node1&#45;&gt;Node225 -->
<g id="edge56_Node000001_Node000225" class="edge">
<title>Node1&#45;&gt;Node225</title>
<g id="a_edge56_Node000001_Node000225"><a xlink:title=" ">
<path fill="none" stroke="#63b8ff" d="M3923.59,-219.99C3963.8,-209.76 4017.56,-196.09 4054.82,-186.61"/>
<polygon fill="#63b8ff" stroke="#63b8ff" points="4056.04,-189.91 4064.87,-184.05 4054.32,-183.13 4056.04,-189.91"/>
</a>
</g>
</g>
<!-- Node3 -->
<g id="Node000003" class="node">
<title>Node3</title>
<g id="a_Node000003"><a xlink:href="autoconf_8h.html" target="_top" xlink:title=" ">
<polygon fill="white" stroke="#666666" points="1528.5,-129 1460.5,-129 1460.5,-110 1528.5,-110 1528.5,-129"/>
<text text-anchor="middle" x="1494.5" y="-117" font-family="Helvetica,sans-Serif" font-size="10.00">autoconf.h</text>
</a>
</g>
</g>
<!-- Node2&#45;&gt;Node3 -->
<g id="edge2_Node000002_Node000003" class="edge">
<title>Node2&#45;&gt;Node3</title>
<g id="a_edge2_Node000002_Node000003"><a xlink:title=" ">
<path fill="none" stroke="#63b8ff" d="M1606.13,-164.98C1584.35,-156.3 1550.34,-142.75 1525.58,-132.88"/>
<polygon fill="#63b8ff" stroke="#63b8ff" points="1526.84,-129.62 1516.26,-129.17 1524.25,-136.12 1526.84,-129.62"/>
</a>
</g>
</g>
<!-- Node4 -->
<g id="Node000004" class="node">
<title>Node4</title>
<g id="a_Node000004"><a xlink:href="version_8h.html" target="_top" xlink:title=" ">
<polygon fill="white" stroke="#666666" points="1608.5,-129 1546.5,-129 1546.5,-110 1608.5,-110 1608.5,-129"/>
<text text-anchor="middle" x="1577.5" y="-117" font-family="Helvetica,sans-Serif" font-size="10.00">version.h</text>
</a>
</g>
</g>
<!-- Node2&#45;&gt;Node4 -->
<g id="edge3_Node000002_Node000004" class="edge">
<title>Node2&#45;&gt;Node4</title>
<g id="a_edge3_Node000002_Node000004"><a xlink:title=" ">
<path fill="none" stroke="#63b8ff" d="M1619.24,-164.75C1612.04,-157.11 1601.39,-145.82 1592.65,-136.56"/>
<polygon fill="#63b8ff" stroke="#63b8ff" points="1595.01,-133.96 1585.6,-129.09 1589.92,-138.76 1595.01,-133.96"/>
</a>
</g>
</g>
<!-- Node5 -->
<g id="Node000005" class="node">
<title>Node5</title>
<g id="a_Node000005"><a xlink:href="compat_8h.html" target="_top" xlink:title=" ">
<polygon fill="white" stroke="#666666" points="1728.5,-129 1626.5,-129 1626.5,-110 1728.5,-110 1728.5,-129"/>
<text text-anchor="middle" x="1677.5" y="-117" font-family="Helvetica,sans-Serif" font-size="10.00">compat/compat.h</text>
</a>
</g>
</g>
<!-- Node2&#45;&gt;Node5 -->
<g id="edge4_Node000002_Node000005" class="edge">
<title>Node2&#45;&gt;Node5</title>
<g id="a_edge4_Node000002_Node000005"><a xlink:title=" ">
<path fill="none" stroke="#63b8ff" d="M1635.76,-164.75C1642.96,-157.11 1653.61,-145.82 1662.35,-136.56"/>
<polygon fill="#63b8ff" stroke="#63b8ff" points="1665.08,-138.76 1669.4,-129.09 1659.99,-133.96 1665.08,-138.76"/>
</a>
</g>
</g>
<!-- Node6 -->
<g id="Node000006" class="node">
<title>Node6</title>
<g id="a_Node000006"><a xlink:href="osdetect_8h.html" target="_top" xlink:title=" ">
<polygon fill="white" stroke="#666666" points="107,-74 0,-74 0,-55 107,-55 107,-74"/>
<text text-anchor="middle" x="53.5" y="-62" font-family="Helvetica,sans-Serif" font-size="10.00">compat/osdetect.h</text>
</a>
</g>
</g>
<!-- Node5&#45;&gt;Node6 -->
<g id="edge5_Node000005_Node000006" class="edge">
<title>Node5&#45;&gt;Node6</title>
<g id="a_edge5_Node000005_Node000006"><a xlink:title=" ">
<path fill="none" stroke="#63b8ff" d="M1626.48,-110.86C1623.45,-110.53 1620.44,-110.24 1617.5,-110 955.87,-55.39 783.48,-125.96 117.41,-73.95"/>
<polygon fill="#63b8ff" stroke="#63b8ff" points="117.32,-70.43 107.07,-73.14 116.77,-77.41 117.32,-70.43"/>
</a>
</g>
</g>
<!-- Node7 -->
<g id="Node000007" class="node">
<title>Node7</title>
<g id="a_Node000007"><a xlink:href="fdsetsize_8h.html" target="_top" xlink:title=" ">
<polygon fill="white" stroke="#666666" points="235.5,-74 125.5,-74 125.5,-55 235.5,-55 235.5,-74"/>
<text text-anchor="middle" x="180.5" y="-62" font-family="Helvetica,sans-Serif" font-size="10.00">compat/fdsetsize.h</text>
</a>
</g>
</g>
<!-- Node5&#45;&gt;Node7 -->
<g id="edge6_Node000005_Node000007" class="edge">
<title>Node5&#45;&gt;Node7</title>
<g id="a_edge6_Node000005_Node000007"><a xlink:title=" ">
<path fill="none" stroke="#63b8ff" d="M1626.48,-110.87C1623.45,-110.54 1620.44,-110.25 1617.5,-110 1012.61,-59.39 854.79,-121.55 245.98,-74.01"/>
<polygon fill="#63b8ff" stroke="#63b8ff" points="245.86,-70.49 235.62,-73.2 245.31,-77.47 245.86,-70.49"/>
</a>
</g>
</g>
<!-- Node8 -->
<g id="Node000008" class="node">
<title>Node8</title>
<g id="a_Node000008"><a xlink:href="types_8h.html" target="_top" xlink:title=" ">
<polygon fill="#fff0f0" stroke="red" points="345.5,-74 253.5,-74 253.5,-55 345.5,-55 345.5,-74"/>
<text text-anchor="middle" x="299.5" y="-62" font-family="Helvetica,sans-Serif" font-size="10.00">compat/types.h</text>
</a>
</g>
</g>
<!-- Node5&#45;&gt;Node8 -->
<g id="edge7_Node000005_Node000008" class="edge">
<title>Node5&#45;&gt;Node8</title>
<g id="a_edge7_Node000005_Node000008"><a xlink:title=" ">
<path fill="none" stroke="#63b8ff" d="M1626.48,-110.88C1623.45,-110.55 1620.44,-110.25 1617.5,-110 1061.36,-62.83 915.52,-124.23 356.02,-74"/>
<polygon fill="#63b8ff" stroke="#63b8ff" points="355.94,-70.48 345.66,-73.06 355.31,-77.45 355.94,-70.48"/>
</a>
</g>
</g>
<!-- Node10 -->
<g id="Node000010" class="node">
<title>Node10</title>
<g id="a_Node000010"><a xlink:href="aix_8h.html" target="_top" xlink:title=" ">
<polygon fill="white" stroke="#666666" points="459,-74 364,-74 364,-55 459,-55 459,-74"/>
<text text-anchor="middle" x="411.5" y="-62" font-family="Helvetica,sans-Serif" font-size="10.00">compat/os/aix.h</text>
</a>
</g>
</g>
<!-- Node5&#45;&gt;Node10 -->
<g id="edge8_Node000005_Node000010" class="edge">
<title>Node5&#45;&gt;Node10</title>
<g id="a_edge8_Node000005_Node000010"><a xlink:title=" ">
<path fill="none" stroke="#63b8ff" d="M1626.48,-110.89C1623.45,-110.55 1620.43,-110.25 1617.5,-110 1111.83,-66.39 979.11,-119.05 469.24,-73.92"/>
<polygon fill="#63b8ff" stroke="#63b8ff" points="469.31,-70.42 459.04,-73.01 468.68,-77.39 469.31,-70.42"/>
</a>
</g>
</g>
<!-- Node11 -->
<g id="Node000011" class="node">
<title>Node11</title>
<g id="a_Node000011"><a xlink:href="android_8h.html" target="_top" xlink:title=" ">
<polygon fill="white" stroke="#666666" points="593.5,-74 477.5,-74 477.5,-55 593.5,-55 593.5,-74"/>
<text text-anchor="middle" x="535.5" y="-62" font-family="Helvetica,sans-Serif" font-size="10.00">compat/os/android.h</text>
</a>
</g>
</g>
<!-- Node5&#45;&gt;Node11 -->
<g id="edge9_Node000005_Node000011" class="edge">
<title>Node5&#45;&gt;Node11</title>
<g id="a_edge9_Node000005_Node000011"><a xlink:title=" ">
<path fill="none" stroke="#63b8ff" d="M1626.48,-110.9C1623.44,-110.56 1620.43,-110.26 1617.5,-110 1171.15,-70.58 1054.13,-109.86 603.6,-74"/>
<polygon fill="#63b8ff" stroke="#63b8ff" points="603.82,-70.51 593.57,-73.19 603.26,-77.48 603.82,-70.51"/>
</a>
</g>
</g>
<!-- Node12 -->
<g id="Node000012" class="node">
<title>Node12</title>
<g id="a_Node000012"><a xlink:href="dragonfly_8h.html" target="_top" xlink:title=" ">
<polygon fill="white" stroke="#666666" points="735.5,-74 611.5,-74 611.5,-55 735.5,-55 735.5,-74"/>
<text text-anchor="middle" x="673.5" y="-62" font-family="Helvetica,sans-Serif" font-size="10.00">compat/os/dragonfly.h</text>
</a>
</g>
</g>
<!-- Node5&#45;&gt;Node12 -->
<g id="edge10_Node000005_Node000012" class="edge">
<title>Node5&#45;&gt;Node12</title>
<g id="a_edge10_Node000005_Node000012"><a xlink:title=" ">
<path fill="none" stroke="#63b8ff" d="M1626.48,-110.92C1623.44,-110.58 1620.43,-110.27 1617.5,-110 1234.08,-75.02 1133.3,-104.59 745.89,-74.04"/>
<polygon fill="#63b8ff" stroke="#63b8ff" points="746.06,-70.54 735.81,-73.24 745.5,-77.52 746.06,-70.54"/>
</a>
</g>
</g>
<!-- Node13 -->
<g id="Node000013" class="node">
<title>Node13</title>
<g id="a_Node000013"><a xlink:href="freebsd_8h.html" target="_top" xlink:title=" ">
<polygon fill="white" stroke="#666666" points="869.5,-74 753.5,-74 753.5,-55 869.5,-55 869.5,-74"/>
<text text-anchor="middle" x="811.5" y="-62" font-family="Helvetica,sans-Serif" font-size="10.00">compat/os/freebsd.h</text>
</a>
</g>
</g>
<!-- Node5&#45;&gt;Node13 -->
<g id="edge11_Node000005_Node000013" class="edge">
<title>Node5&#45;&gt;Node13</title>
<g id="a_edge11_Node000005_Node000013"><a xlink:title=" ">
<path fill="none" stroke="#63b8ff" d="M1626.47,-110.95C1623.44,-110.6 1620.43,-110.28 1617.5,-110 1293.5,-79.22 1207.83,-102.23 879.85,-74.04"/>
<polygon fill="#63b8ff" stroke="#63b8ff" points="879.84,-70.53 869.58,-73.15 879.23,-77.5 879.84,-70.53"/>
</a>
</g>
</g>
<!-- Node14 -->
<g id="Node000014" class="node">
<title>Node14</title>
<g id="a_Node000014"><a xlink:href="hpux_8h.html" target="_top" xlink:title=" ">
<polygon fill="white" stroke="#666666" points="991.5,-74 887.5,-74 887.5,-55 991.5,-55 991.5,-74"/>
<text text-anchor="middle" x="939.5" y="-62" font-family="Helvetica,sans-Serif" font-size="10.00">compat/os/hpux.h</text>
</a>
</g>
</g>
<!-- Node5&#45;&gt;Node14 -->
<g id="edge12_Node000005_Node000014" class="edge">
<title>Node5&#45;&gt;Node14</title>
<g id="a_edge12_Node000005_Node000014"><a xlink:title=" ">
<path fill="none" stroke="#63b8ff" d="M1626.47,-110.98C1623.44,-110.62 1620.43,-110.29 1617.5,-110 1347.51,-83.05 1275.61,-100.54 1001.95,-74.06"/>
<polygon fill="#63b8ff" stroke="#63b8ff" points="1002,-70.55 991.71,-73.06 1001.32,-77.51 1002,-70.55"/>
</a>
</g>
</g>
<!-- Node15 -->
<g id="Node000015" class="node">
<title>Node15</title>
<g id="a_Node000015"><a xlink:href="linux_8h.html" target="_top" xlink:title=" ">
<polygon fill="white" stroke="#666666" points="1113.5,-74 1009.5,-74 1009.5,-55 1113.5,-55 1113.5,-74"/>
<text text-anchor="middle" x="1061.5" y="-62" font-family="Helvetica,sans-Serif" font-size="10.00">compat/os/linux.h</text>
</a>
</g>
</g>
<!-- Node5&#45;&gt;Node15 -->
<g id="edge13_Node000005_Node000015" class="edge">
<title>Node5&#45;&gt;Node15</title>
<g id="a_edge13_Node000005_Node000015"><a xlink:title=" ">
<path fill="none" stroke="#63b8ff" d="M1626.47,-111.03C1623.44,-110.66 1620.43,-110.31 1617.5,-110 1401.49,-86.87 1343.6,-96.92 1123.96,-74.08"/>
<polygon fill="#63b8ff" stroke="#63b8ff" points="1124.03,-70.57 1113.72,-73.01 1123.3,-77.53 1124.03,-70.57"/>
</a>
</g>
</g>
<!-- Node16 -->
<g id="Node000016" class="node">
<title>Node16</title>
<g id="a_Node000016"><a xlink:href="macosx_8h.html" target="_top" xlink:title=" ">
<polygon fill="white" stroke="#666666" points="1249.5,-74 1131.5,-74 1131.5,-55 1249.5,-55 1249.5,-74"/>
<text text-anchor="middle" x="1190.5" y="-62" font-family="Helvetica,sans-Serif" font-size="10.00">compat/os/macosx.h</text>
</a>
</g>
</g>
<!-- Node5&#45;&gt;Node16 -->
<g id="edge14_Node000005_Node000016" class="edge">
<title>Node5&#45;&gt;Node16</title>
<g id="a_edge14_Node000005_Node000016"><a xlink:title=" ">
<path fill="none" stroke="#63b8ff" d="M1626.46,-111.12C1623.43,-110.73 1620.42,-110.35 1617.5,-110 1461.57,-91.14 1419.56,-91.91 1260.01,-74.14"/>
<polygon fill="#63b8ff" stroke="#63b8ff" points="1260.16,-70.64 1249.83,-73 1259.38,-77.59 1260.16,-70.64"/>
</a>
</g>
</g>
<!-- Node17 -->
<g id="Node000017" class="node">
<title>Node17</title>
<g id="a_Node000017"><a xlink:href="mingw_8h.html" target="_top" xlink:title=" ">
<polygon fill="white" stroke="#666666" points="1379.5,-74 1267.5,-74 1267.5,-55 1379.5,-55 1379.5,-74"/>
<text text-anchor="middle" x="1323.5" y="-62" font-family="Helvetica,sans-Serif" font-size="10.00">compat/os/mingw.h</text>
</a>
</g>
</g>
<!-- Node5&#45;&gt;Node17 -->
<g id="edge15_Node000005_Node000017" class="edge">
<title>Node5&#45;&gt;Node17</title>
<g id="a_edge15_Node000005_Node000017"><a xlink:title=" ">
<path fill="none" stroke="#63b8ff" d="M1626.4,-110.85C1564.03,-101.51 1458.4,-85.7 1389.81,-75.43"/>
<polygon fill="#63b8ff" stroke="#63b8ff" points="1389.96,-71.91 1379.55,-73.89 1388.92,-78.83 1389.96,-71.91"/>
</a>
</g>
</g>
<!-- Node18 -->
<g id="Node000018" class="node">
<title>Node18</title>
<g id="a_Node000018"><a xlink:href="mswindows_8h.html" target="_top" xlink:title=" ">
<polygon fill="white" stroke="#666666" points="1535,-74 1398,-74 1398,-55 1535,-55 1535,-74"/>
<text text-anchor="middle" x="1466.5" y="-62" font-family="Helvetica,sans-Serif" font-size="10.00">compat/os/mswindows.h</text>
</a>
</g>
</g>
<!-- Node5&#45;&gt;Node18 -->
<g id="edge16_Node000005_Node000018" class="edge">
<title>Node5&#45;&gt;Node18</title>
<g id="a_edge16_Node000005_Node000018"><a xlink:title=" ">
<path fill="none" stroke="#63b8ff" d="M1643.6,-109.98C1607.48,-100.91 1550.18,-86.52 1510.58,-76.57"/>
<polygon fill="#63b8ff" stroke="#63b8ff" points="1511.22,-73.12 1500.67,-74.08 1509.51,-79.91 1511.22,-73.12"/>
</a>
</g>
</g>
<!-- Node19 -->
<g id="Node000019" class="node">
<title>Node19</title>
<g id="a_Node000019"><a xlink:href="netbsd_8h.html" target="_top" xlink:title=" ">
<polygon fill="white" stroke="#666666" points="1666,-74 1553,-74 1553,-55 1666,-55 1666,-74"/>
<text text-anchor="middle" x="1609.5" y="-62" font-family="Helvetica,sans-Serif" font-size="10.00">compat/os/netbsd.h</text>
</a>
</g>
</g>
<!-- Node5&#45;&gt;Node19 -->
<g id="edge17_Node000005_Node000019" class="edge">
<title>Node5&#45;&gt;Node19</title>
<g id="a_edge17_Node000005_Node000019"><a xlink:title=" ">
<path fill="none" stroke="#63b8ff" d="M1666.57,-109.98C1656.42,-102.07 1641.08,-90.11 1628.85,-80.58"/>
<polygon fill="#63b8ff" stroke="#63b8ff" points="1630.66,-77.56 1620.62,-74.17 1626.36,-83.08 1630.66,-77.56"/>
</a>
</g>
</g>
<!-- Node20 -->
<g id="Node000020" class="node">
<title>Node20</title>
<g id="a_Node000020"><a xlink:href="openbsd_8h.html" target="_top" xlink:title=" ">
<polygon fill="white" stroke="#666666" points="1805,-74 1684,-74 1684,-55 1805,-55 1805,-74"/>
<text text-anchor="middle" x="1744.5" y="-62" font-family="Helvetica,sans-Serif" font-size="10.00">compat/os/openbsd.h</text>
</a>
</g>
</g>
<!-- Node5&#45;&gt;Node20 -->
<g id="edge18_Node000005_Node000020" class="edge">
<title>Node5&#45;&gt;Node20</title>
<g id="a_edge18_Node000005_Node000020"><a xlink:title=" ">
<path fill="none" stroke="#63b8ff" d="M1688.26,-109.98C1698.27,-102.07 1713.39,-90.11 1725.43,-80.58"/>
<polygon fill="#63b8ff" stroke="#63b8ff" points="1727.87,-83.12 1733.54,-74.17 1723.53,-77.63 1727.87,-83.12"/>
</a>
</g>
</g>
<!-- Node21 -->
<g id="Node000021" class="node">
<title>Node21</title>
<g id="a_Node000021"><a xlink:href="os2_8h.html" target="_top" xlink:title=" ">
<polygon fill="white" stroke="#666666" points="1920,-74 1823,-74 1823,-55 1920,-55 1920,-74"/>
<text text-anchor="middle" x="1871.5" y="-62" font-family="Helvetica,sans-Serif" font-size="10.00">compat/os/os2.h</text>
</a>
</g>
</g>
<!-- Node5&#45;&gt;Node21 -->
<g id="edge19_Node000005_Node000021" class="edge">
<title>Node5&#45;&gt;Node21</title>
<g id="a_edge19_Node000005_Node000021"><a xlink:title=" ">
<path fill="none" stroke="#63b8ff" d="M1708.67,-109.98C1741.66,-100.97 1793.9,-86.7 1830.27,-76.76"/>
<polygon fill="#63b8ff" stroke="#63b8ff" points="1831.36,-80.09 1840.09,-74.08 1829.52,-73.34 1831.36,-80.09"/>
</a>
</g>
</g>
<!-- Node22 -->
<g id="Node000022" class="node">
<title>Node22</title>
<g id="a_Node000022"><a xlink:href="qnx_8h.html" target="_top" xlink:title=" ">
<polygon fill="white" stroke="#666666" points="2036.5,-74 1938.5,-74 1938.5,-55 2036.5,-55 2036.5,-74"/>
<text text-anchor="middle" x="1987.5" y="-62" font-family="Helvetica,sans-Serif" font-size="10.00">compat/os/qnx.h</text>
</a>
</g>
</g>
<!-- Node5&#45;&gt;Node22 -->
<g id="edge20_Node000005_Node000022" class="edge">
<title>Node5&#45;&gt;Node22</title>
<g id="a_edge20_Node000005_Node000022"><a xlink:title=" ">
<path fill="none" stroke="#63b8ff" d="M1727.31,-109.98C1782.04,-100.63 1869.91,-85.6 1928.17,-75.64"/>
<polygon fill="#63b8ff" stroke="#63b8ff" points="1929.06,-79.04 1938.33,-73.91 1927.88,-72.14 1929.06,-79.04"/>
</a>
</g>
</g>
<!-- Node23 -->
<g id="Node000023" class="node">
<title>Node23</title>
<g id="a_Node000023"><a xlink:href="solaris_8h.html" target="_top" xlink:title=" ">
<polygon fill="white" stroke="#666666" points="2166.5,-74 2054.5,-74 2054.5,-55 2166.5,-55 2166.5,-74"/>
<text text-anchor="middle" x="2110.5" y="-62" font-family="Helvetica,sans-Serif" font-size="10.00">compat/os/solaris.h</text>
</a>
</g>
</g>
<!-- Node5&#45;&gt;Node23 -->
<g id="edge21_Node000005_Node000023" class="edge">
<title>Node5&#45;&gt;Node23</title>
<g id="a_edge21_Node000005_Node000023"><a xlink:title=" ">
<path fill="none" stroke="#63b8ff" d="M1728.72,-112.47C1797.88,-104.28 1925.28,-89.08 2044.45,-74.12"/>
<polygon fill="#63b8ff" stroke="#63b8ff" points="2045,-77.58 2054.48,-72.86 2044.13,-70.63 2045,-77.58"/>
</a>
</g>
</g>
<!-- Node24 -->
<g id="Node000024" class="node">
<title>Node24</title>
<g id="a_Node000024"><a xlink:href="sunos_8h.html" target="_top" xlink:title=" ">
<polygon fill="white" stroke="#666666" points="2292.5,-74 2184.5,-74 2184.5,-55 2292.5,-55 2292.5,-74"/>
<text text-anchor="middle" x="2238.5" y="-62" font-family="Helvetica,sans-Serif" font-size="10.00">compat/os/sunos.h</text>
</a>
</g>
</g>
<!-- Node5&#45;&gt;Node24 -->
<g id="edge22_Node000005_Node000024" class="edge">
<title>Node5&#45;&gt;Node24</title>
<g id="a_edge22_Node000005_Node000024"><a xlink:title=" ">
<path fill="none" stroke="#63b8ff" d="M1728.84,-114.68C1817.47,-107.91 2005.16,-92.85 2174.15,-74.11"/>
<polygon fill="#63b8ff" stroke="#63b8ff" points="2174.67,-77.57 2184.22,-72.98 2173.9,-70.61 2174.67,-77.57"/>
</a>
</g>
</g>
<!-- Node25 -->
<g id="Node000025" class="node">
<title>Node25</title>
<g id="a_Node000025"><a xlink:href="assert_8h.html" target="_top" xlink:title=" ">
<polygon fill="white" stroke="#666666" points="2406,-74 2311,-74 2311,-55 2406,-55 2406,-74"/>
<text text-anchor="middle" x="2358.5" y="-62" font-family="Helvetica,sans-Serif" font-size="10.00">compat/assert.h</text>
</a>
</g>
</g>
<!-- Node5&#45;&gt;Node25 -->
<g id="edge23_Node000005_Node000025" class="edge">
<title>Node5&#45;&gt;Node25</title>
<g id="a_edge23_Node000005_Node000025"><a xlink:title=" ">
<path fill="none" stroke="#63b8ff" d="M1728.58,-116.19C1833.63,-111.15 2081.71,-97.76 2300.87,-73.97"/>
<polygon fill="#63b8ff" stroke="#63b8ff" points="2301.39,-77.44 2310.95,-72.87 2300.63,-70.48 2301.39,-77.44"/>
</a>
</g>
</g>
<!-- Node26 -->
<g id="Node000026" class="node">
<title>Node26</title>
<g id="a_Node000026"><a xlink:href="compat__shared_8h.html" target="_top" xlink:title=" ">
<polygon fill="#fff0f0" stroke="red" points="2564.5,-74 2424.5,-74 2424.5,-55 2564.5,-55 2564.5,-74"/>
<text text-anchor="middle" x="2494.5" y="-62" font-family="Helvetica,sans-Serif" font-size="10.00">compat/compat_shared.h</text>
</a>
</g>
</g>
<!-- Node5&#45;&gt;Node26 -->
<g id="edge24_Node000005_Node000026" class="edge">
<title>Node5&#45;&gt;Node26</title>
<g id="a_edge24_Node000005_Node000026"><a xlink:title=" ">
<path fill="none" stroke="#63b8ff" d="M1728.93,-116.2C1847.54,-110.73 2149.62,-95.79 2414.09,-73.99"/>
<polygon fill="#63b8ff" stroke="#63b8ff" points="2414.6,-77.46 2424.28,-73.14 2414.02,-70.48 2414.6,-77.46"/>
</a>
</g>
</g>
<!-- Node36 -->
<g id="Node000036" class="node">
<title>Node36</title>
<g id="a_Node000036"><a xlink:href="stdvarargs_8h.html" target="_top" xlink:title=" ">
<polygon fill="#fff0f0" stroke="red" points="2700,-74 2583,-74 2583,-55 2700,-55 2700,-74"/>
<text text-anchor="middle" x="2641.5" y="-62" font-family="Helvetica,sans-Serif" font-size="10.00">compat/stdvarargs.h</text>
</a>
</g>
</g>
<!-- Node5&#45;&gt;Node36 -->
<g id="edge25_Node000005_Node000036" class="edge">
<title>Node5&#45;&gt;Node36</title>
<g id="a_edge25_Node000005_Node000036"><a xlink:title=" ">
<path fill="none" stroke="#63b8ff" d="M1728.61,-117.3C1864.25,-113.83 2244.8,-102.22 2572.75,-73.99"/>
<polygon fill="#63b8ff" stroke="#63b8ff" points="2573.26,-77.46 2582.92,-73.1 2572.66,-70.48 2573.26,-77.46"/>
</a>
</g>
</g>
<!-- Node38 -->
<g id="Node000038" class="node">
<title>Node38</title>
<g id="a_Node000038"><a xlink:href="stdio_8h.html" target="_top" xlink:title=" ">
<polygon fill="#fff0f0" stroke="red" points="2807,-74 2718,-74 2718,-55 2807,-55 2807,-74"/>
<text text-anchor="middle" x="2762.5" y="-62" font-family="Helvetica,sans-Serif" font-size="10.00">compat/stdio.h</text>
</a>
</g>
</g>
<!-- Node5&#45;&gt;Node38 -->
<g id="edge26_Node000005_Node000038" class="edge">
<title>Node5&#45;&gt;Node38</title>
<g id="a_edge26_Node000005_Node000038"><a xlink:title=" ">
<path fill="none" stroke="#63b8ff" d="M1728.6,-118.33C1877.78,-117.42 2325.72,-111.57 2707.62,-73.95"/>
<polygon fill="#63b8ff" stroke="#63b8ff" points="2708.16,-77.41 2717.76,-72.94 2707.46,-70.45 2708.16,-77.41"/>
</a>
</g>
</g>
<!-- Node40 -->
<g id="Node000040" class="node">
<title>Node40</title>
<g id="a_Node000040"><a xlink:href="statvfs_8h.html" target="_top" xlink:title=" ">
<polygon fill="white" stroke="#666666" points="2924,-74 2825,-74 2825,-55 2924,-55 2924,-74"/>
<text text-anchor="middle" x="2874.5" y="-62" font-family="Helvetica,sans-Serif" font-size="10.00">compat/statvfs.h</text>
</a>
</g>
</g>
<!-- Node5&#45;&gt;Node40 -->
<g id="edge27_Node000005_Node000040" class="edge">
<title>Node5&#45;&gt;Node40</title>
<g id="a_edge27_Node000005_Node000040"><a xlink:title=" ">
<path fill="none" stroke="#63b8ff" d="M1728.66,-118.39C1887.93,-117.66 2389.17,-112.3 2814.93,-73.93"/>
<polygon fill="#63b8ff" stroke="#63b8ff" points="2815.33,-77.41 2824.97,-73.02 2814.69,-70.44 2815.33,-77.41"/>
</a>
</g>
</g>
<!-- Node41 -->
<g id="Node000041" class="node">
<title>Node41</title>
<g id="a_Node000041"><a xlink:href="debug_8h.html" target="_top" xlink:title=" ">
<polygon fill="white" stroke="#666666" points="3037,-74 2942,-74 2942,-55 3037,-55 3037,-74"/>
<text text-anchor="middle" x="2989.5" y="-62" font-family="Helvetica,sans-Serif" font-size="10.00">compat/debug.h</text>
</a>
</g>
</g>
<!-- Node5&#45;&gt;Node41 -->
<g id="edge28_Node000005_Node000041" class="edge">
<title>Node5&#45;&gt;Node41</title>
<g id="a_edge28_Node000005_Node000041"><a xlink:title=" ">
<path fill="none" stroke="#63b8ff" d="M1728.74,-118.75C1898.56,-119.13 2458.54,-116.9 2931.85,-73.92"/>
<polygon fill="#63b8ff" stroke="#63b8ff" points="2932.32,-77.39 2941.96,-73 2931.69,-70.42 2932.32,-77.39"/>
</a>
</g>
</g>
<!-- Node42 -->
<g id="Node000042" class="node">
<title>Node42</title>
<g id="a_Node000042"><a xlink:href="valgrind_8h.html" target="_top" xlink:title=" ">
<polygon fill="#fff0f0" stroke="red" points="3160,-74 3055,-74 3055,-55 3160,-55 3160,-74"/>
<text text-anchor="middle" x="3107.5" y="-62" font-family="Helvetica,sans-Serif" font-size="10.00">compat/valgrind.h</text>
</a>
</g>
</g>
<!-- Node5&#45;&gt;Node42 -->
<g id="edge29_Node000005_Node000042" class="edge">
<title>Node5&#45;&gt;Node42</title>
<g id="a_edge29_Node000005_Node000042"><a xlink:title=" ">
<path fill="none" stroke="#63b8ff" d="M1728.54,-118.75C1907.7,-119.2 2524.66,-117.38 3044.44,-73.98"/>
<polygon fill="#63b8ff" stroke="#63b8ff" points="3045.1,-77.43 3054.78,-73.11 3044.52,-70.46 3045.1,-77.43"/>
</a>
</g>
</g>
<!-- Node45 -->
<g id="Node000045" class="node">
<title>Node45</title>
<g id="a_Node000045"><a xlink:href="Page_8h.html" target="_top" xlink:title=" ">
<polygon fill="white" stroke="#666666" points="3319,-129 3224,-129 3224,-110 3319,-110 3319,-129"/>
<text text-anchor="middle" x="3271.5" y="-117" font-family="Helvetica,sans-Serif" font-size="10.00">ipc/mem/Page.h</text>
</a>
</g>
</g>
<!-- Node44&#45;&gt;Node45 -->
<g id="edge31_Node000044_Node000045" class="edge">
<title>Node44&#45;&gt;Node45</title>
<g id="a_edge31_Node000044_Node000045"><a xlink:title=" ">
<path fill="none" stroke="#63b8ff" d="M3830.23,-170.98C3742.46,-165.06 3519.93,-149.22 3334.5,-129 3332.8,-128.81 3331.08,-128.62 3329.34,-128.42"/>
<polygon fill="#63b8ff" stroke="#63b8ff" points="3329.63,-124.93 3319.28,-127.21 3328.79,-131.88 3329.63,-124.93"/>
</a>
</g>
</g>
<!-- Node48 -->
<g id="Node000048" class="node">
<title>Node48</title>
<g id="a_Node000048"><a xlink:href="PageStack_8h.html" target="_top" xlink:title=" ">
<polygon fill="white" stroke="#666666" points="3465.5,-129 3343.5,-129 3343.5,-110 3465.5,-110 3465.5,-129"/>
<text text-anchor="middle" x="3404.5" y="-117" font-family="Helvetica,sans-Serif" font-size="10.00">ipc/mem/PageStack.h</text>
</a>
</g>
</g>
<!-- Node44&#45;&gt;Node48 -->
<g id="edge34_Node000044_Node000048" class="edge">
<title>Node44&#45;&gt;Node48</title>
<g id="a_edge34_Node000044_Node000048"><a xlink:title=" ">
<path fill="none" stroke="#63b8ff" d="M3830.13,-169.12C3752.36,-160.23 3575.08,-139.98 3475.59,-128.62"/>
<polygon fill="#63b8ff" stroke="#63b8ff" points="3475.96,-125.14 3465.63,-127.48 3475.16,-132.09 3475.96,-125.14"/>
</a>
</g>
</g>
<!-- Node54 -->
<g id="Node000054" class="node">
<title>Node54</title>
<g id="a_Node000054"><a xlink:href="StoreMap_8h.html" target="_top" xlink:title=" ">
<polygon fill="white" stroke="#666666" points="3913,-129 3824,-129 3824,-110 3913,-110 3913,-129"/>
<text text-anchor="middle" x="3868.5" y="-117" font-family="Helvetica,sans-Serif" font-size="10.00">ipc/StoreMap.h</text>
</a>
</g>
</g>
<!-- Node44&#45;&gt;Node54 -->
<g id="edge39_Node000044_Node000054" class="edge">
<title>Node44&#45;&gt;Node54</title>
<g id="a_edge39_Node000044_Node000054"><a xlink:title=" ">
<path fill="none" stroke="#63b8ff" d="M3868.5,-164.75C3868.5,-157.8 3868.5,-147.85 3868.5,-139.13"/>
<polygon fill="#63b8ff" stroke="#63b8ff" points="3872,-139.09 3868.5,-129.09 3865,-139.09 3872,-139.09"/>
</a>
</g>
</g>
<!-- Node95 -->
<g id="Node000095" class="node">
<title>Node95</title>
<g id="a_Node000095"><a xlink:href="Store_8h.html" target="_top" xlink:title=" ">
<polygon fill="#fff0f0" stroke="red" points="4062,-129 4011,-129 4011,-110 4062,-110 4062,-129"/>
<text text-anchor="middle" x="4036.5" y="-117" font-family="Helvetica,sans-Serif" font-size="10.00">Store.h</text>
</a>
</g>
</g>
<!-- Node44&#45;&gt;Node95 -->
<g id="edge51_Node000044_Node000095" class="edge">
<title>Node44&#45;&gt;Node95</title>
<g id="a_edge51_Node000044_Node000095"><a xlink:title=" ">
<path fill="none" stroke="#63b8ff" d="M3895.49,-164.98C3924.2,-155.93 3969.73,-141.57 4001.25,-131.62"/>
<polygon fill="#63b8ff" stroke="#63b8ff" points="4002.47,-134.91 4010.95,-128.56 4000.36,-128.23 4002.47,-134.91"/>
</a>
</g>
</g>
<!-- Node224 -->
<g id="Node000224" class="node">
<title>Node224</title>
<g id="a_Node000224"><a xlink:href="Controlled_8h.html" target="_top" xlink:title=" ">
<polygon fill="#fff0f0" stroke="red" points="4184.5,-129 4080.5,-129 4080.5,-110 4184.5,-110 4184.5,-129"/>
<text text-anchor="middle" x="4132.5" y="-117" font-family="Helvetica,sans-Serif" font-size="10.00">store/Controlled.h</text>
</a>
</g>
</g>
<!-- Node44&#45;&gt;Node224 -->
<g id="edge55_Node000044_Node000224" class="edge">
<title>Node44&#45;&gt;Node224</title>
<g id="a_edge55_Node000044_Node000224"><a xlink:title=" ">
<path fill="none" stroke="#63b8ff" d="M3906.61,-165.85C3952.25,-156.69 4028.97,-141.29 4080.15,-131.01"/>
<polygon fill="#63b8ff" stroke="#63b8ff" points="4080.92,-134.43 4090.03,-129.03 4079.54,-127.56 4080.92,-134.43"/>
</a>
</g>
</g>
<!-- Node46 -->
<g id="Node000046" class="node">
<title>Node46</title>
<g id="a_Node000046"><a xlink:href="ipc_2mem_2forward_8h.html" target="_top" xlink:title=" ">
<polygon fill="white" stroke="#666666" points="3326,-74 3217,-74 3217,-55 3326,-55 3326,-74"/>
<text text-anchor="middle" x="3271.5" y="-62" font-family="Helvetica,sans-Serif" font-size="10.00">ipc/mem/forward.h</text>
</a>
</g>
</g>
<!-- Node45&#45;&gt;Node46 -->
<g id="edge32_Node000045_Node000046" class="edge">
<title>Node45&#45;&gt;Node46</title>
<g id="a_edge32_Node000045_Node000046"><a xlink:title=" ">
<path fill="none" stroke="#63b8ff" d="M3271.5,-109.75C3271.5,-102.8 3271.5,-92.85 3271.5,-84.13"/>
<polygon fill="#63b8ff" stroke="#63b8ff" points="3275,-84.09 3271.5,-74.09 3268,-84.09 3275,-84.09"/>
</a>
</g>
</g>
<!-- Node47 -->
<g id="Node000047" class="node">
<title>Node47</title>
<g id="a_Node000047"><a xlink:title=" ">
<polygon fill="#e0e0e0" stroke="#999999" points="3780.5,-19 3732.5,-19 3732.5,0 3780.5,0 3780.5,-19"/>
<text text-anchor="middle" x="3756.5" y="-7" font-family="Helvetica,sans-Serif" font-size="10.00">iosfwd</text>
</a>
</g>
</g>
<!-- Node45&#45;&gt;Node47 -->
<g id="edge33_Node000045_Node000047" class="edge">
<title>Node45&#45;&gt;Node47</title>
<g id="a_edge33_Node000045_Node000047"><a xlink:title=" ">
<path fill="none" stroke="#63b8ff" d="M3251.61,-109.91C3226.5,-97.93 3188.72,-75.37 3207.5,-55 3242.39,-17.16 3606.92,-11.49 3721.94,-10.65"/>
<polygon fill="#63b8ff" stroke="#63b8ff" points="3722.29,-14.15 3732.27,-10.58 3722.25,-7.15 3722.29,-14.15"/>
</a>
</g>
</g>
<!-- Node48&#45;&gt;Node46 -->
<g id="edge36_Node000048_Node000046" class="edge">
<title>Node48&#45;&gt;Node46</title>
<g id="a_edge36_Node000048_Node000046"><a xlink:title=" ">
<path fill="none" stroke="#63b8ff" d="M3383.13,-109.98C3361.35,-101.3 3327.34,-87.75 3302.58,-77.88"/>
<polygon fill="#63b8ff" stroke="#63b8ff" points="3303.84,-74.62 3293.26,-74.17 3301.25,-81.12 3303.84,-74.62"/>
</a>
</g>
</g>
<!-- Node49 -->
<g id="Node000049" class="node">
<title>Node49</title>
<g id="a_Node000049"><a xlink:href="FlexibleArray_8h.html" target="_top" xlink:title=" ">
<polygon fill="#fff0f0" stroke="red" points="3580,-74 3445,-74 3445,-55 3580,-55 3580,-74"/>
<text text-anchor="middle" x="3512.5" y="-62" font-family="Helvetica,sans-Serif" font-size="10.00">ipc/mem/FlexibleArray.h</text>
</a>
</g>
</g>
<!-- Node48&#45;&gt;Node49 -->
<g id="edge35_Node000048_Node000049" class="edge">
<title>Node48&#45;&gt;Node49</title>
<g id="a_edge35_Node000048_Node000049"><a xlink:title=" ">
<path fill="none" stroke="#63b8ff" d="M3421.85,-109.98C3439.07,-101.54 3465.7,-88.47 3485.65,-78.68"/>
<polygon fill="#63b8ff" stroke="#63b8ff" points="3487.4,-81.72 3494.83,-74.17 3484.31,-75.43 3487.4,-81.72"/>
</a>
</g>
</g>
<!-- Node52 -->
<g id="Node000052" class="node">
<title>Node52</title>
<g id="a_Node000052"><a xlink:title=" ">
<polygon fill="#e0e0e0" stroke="#999999" points="3871.5,-19 3821.5,-19 3821.5,0 3871.5,0 3871.5,-19"/>
<text text-anchor="middle" x="3846.5" y="-7" font-family="Helvetica,sans-Serif" font-size="10.00">atomic</text>
</a>
</g>
</g>
<!-- Node48&#45;&gt;Node52 -->
<g id="edge37_Node000048_Node000052" class="edge">
<title>Node48&#45;&gt;Node52</title>
<g id="a_edge37_Node000048_Node000052"><a xlink:title=" ">
<path fill="none" stroke="#63b8ff" d="M3394.44,-109.77C3380.44,-96.61 3358.41,-71.45 3373.5,-55 3404.86,-20.81 3743.42,-24.42 3789.5,-19 3796.51,-18.17 3803.99,-17.16 3811.14,-16.12"/>
<polygon fill="#63b8ff" stroke="#63b8ff" points="3811.92,-19.54 3821.29,-14.6 3810.88,-12.62 3811.92,-19.54"/>
</a>
</g>
</g>
<!-- Node53 -->
<g id="Node000053" class="node">
<title>Node53</title>
<g id="a_Node000053"><a xlink:title=" ">
<polygon fill="#e0e0e0" stroke="#999999" points="3426.5,-74 3382.5,-74 3382.5,-55 3426.5,-55 3426.5,-74"/>
<text text-anchor="middle" x="3404.5" y="-62" font-family="Helvetica,sans-Serif" font-size="10.00">limits</text>
</a>
</g>
</g>
<!-- Node48&#45;&gt;Node53 -->
<g id="edge38_Node000048_Node000053" class="edge">
<title>Node48&#45;&gt;Node53</title>
<g id="a_edge38_Node000048_Node000053"><a xlink:title=" ">
<path fill="none" stroke="#63b8ff" d="M3404.5,-109.75C3404.5,-102.8 3404.5,-92.85 3404.5,-84.13"/>
<polygon fill="#63b8ff" stroke="#63b8ff" points="3408,-84.09 3404.5,-74.09 3401,-84.09 3408,-84.09"/>
</a>
</g>
</g>
<!-- Node54&#45;&gt;Node49 -->
<g id="edge40_Node000054_Node000049" class="edge">
<title>Node54&#45;&gt;Node49</title>
<g id="a_edge40_Node000054_Node000049"><a xlink:title=" ">
<path fill="none" stroke="#63b8ff" d="M3823.77,-111.84C3762.37,-102.7 3651.44,-86.19 3579.94,-75.54"/>
<polygon fill="#63b8ff" stroke="#63b8ff" points="3580.09,-72.02 3569.68,-74.01 3579.06,-78.95 3580.09,-72.02"/>
</a>
</g>
</g>
<!-- Node55 -->
<g id="Node000055" class="node">
<title>Node55</title>
<g id="a_Node000055"><a xlink:href="Pointer_8h.html" target="_top" xlink:title=" ">
<polygon fill="#fff0f0" stroke="red" points="3703,-74 3598,-74 3598,-55 3703,-55 3703,-74"/>
<text text-anchor="middle" x="3650.5" y="-62" font-family="Helvetica,sans-Serif" font-size="10.00">ipc/mem/Pointer.h</text>
</a>
</g>
</g>
<!-- Node54&#45;&gt;Node55 -->
<g id="edge41_Node000054_Node000055" class="edge">
<title>Node54&#45;&gt;Node55</title>
<g id="a_edge41_Node000054_Node000055"><a xlink:title=" ">
<path fill="none" stroke="#63b8ff" d="M3833.47,-109.98C3796,-100.87 3736.45,-86.4 3695.52,-76.45"/>
<polygon fill="#63b8ff" stroke="#63b8ff" points="3696.34,-73.04 3685.8,-74.08 3694.69,-79.85 3696.34,-73.04"/>
</a>
</g>
</g>
<!-- Node75 -->
<g id="Node000075" class="node">
<title>Node75</title>
<g id="a_Node000075"><a xlink:href="ReadWriteLock_8h.html" target="_top" xlink:title=" ">
<polygon fill="white" stroke="#666666" points="3926.5,-74 3810.5,-74 3810.5,-55 3926.5,-55 3926.5,-74"/>
<text text-anchor="middle" x="3868.5" y="-62" font-family="Helvetica,sans-Serif" font-size="10.00">ipc/ReadWriteLock.h</text>
</a>
</g>
</g>
<!-- Node54&#45;&gt;Node75 -->
<g id="edge42_Node000054_Node000075" class="edge">
<title>Node54&#45;&gt;Node75</title>
<g id="a_edge42_Node000054_Node000075"><a xlink:title=" ">
<path fill="none" stroke="#63b8ff" d="M3868.5,-109.75C3868.5,-102.8 3868.5,-92.85 3868.5,-84.13"/>
<polygon fill="#63b8ff" stroke="#63b8ff" points="3872,-84.09 3868.5,-74.09 3865,-84.09 3872,-84.09"/>
</a>
</g>
</g>
<!-- Node76 -->
<g id="Node000076" class="node">
<title>Node76</title>
<g id="a_Node000076"><a xlink:href="SBuf_8h.html" target="_top" xlink:title=" ">
<polygon fill="#fff0f0" stroke="red" points="3792,-74 3721,-74 3721,-55 3792,-55 3792,-74"/>
<text text-anchor="middle" x="3756.5" y="-62" font-family="Helvetica,sans-Serif" font-size="10.00">sbuf/SBuf.h</text>
</a>
</g>
</g>
<!-- Node54&#45;&gt;Node76 -->
<g id="edge45_Node000054_Node000076" class="edge">
<title>Node54&#45;&gt;Node76</title>
<g id="a_edge45_Node000054_Node000076"><a xlink:title=" ">
<path fill="none" stroke="#63b8ff" d="M3850.51,-109.98C3832.57,-101.5 3804.78,-88.35 3784.07,-78.54"/>
<polygon fill="#63b8ff" stroke="#63b8ff" points="3785.36,-75.28 3774.82,-74.17 3782.36,-81.61 3785.36,-75.28"/>
</a>
</g>
</g>
<!-- Node86 -->
<g id="Node000086" class="node">
<title>Node86</title>
<g id="a_Node000086"><a xlink:href="store_2forward_8h.html" target="_top" xlink:title=" ">
<polygon fill="white" stroke="#666666" points="4162,-19 4071,-19 4071,0 4162,0 4162,-19"/>
<text text-anchor="middle" x="4116.5" y="-7" font-family="Helvetica,sans-Serif" font-size="10.00">store/forward.h</text>
</a>
</g>
</g>
<!-- Node54&#45;&gt;Node86 -->
<g id="edge47_Node000054_Node000086" class="edge">
<title>Node54&#45;&gt;Node86</title>
<g id="a_edge47_Node000054_Node000086"><a xlink:title=" ">
<path fill="none" stroke="#63b8ff" d="M3880.57,-109.86C3899.57,-96.57 3937.95,-71 3973.5,-55 4005,-40.83 4042.31,-29.38 4070.92,-21.65"/>
<polygon fill="#63b8ff" stroke="#63b8ff" points="4071.89,-25.01 4080.66,-19.07 4070.09,-18.25 4071.89,-25.01"/>
</a>
</g>
</g>
<!-- Node81 -->
<g id="Node000081" class="node">
<title>Node81</title>
<g id="a_Node000081"><a xlink:href="store__key__md5_8h.html" target="_top" xlink:title=" ">
<polygon fill="#fff0f0" stroke="red" points="4166.5,-74 4066.5,-74 4066.5,-55 4166.5,-55 4166.5,-74"/>
<text text-anchor="middle" x="4116.5" y="-62" font-family="Helvetica,sans-Serif" font-size="10.00">store_key_md5.h</text>
</a>
</g>
</g>
<!-- Node54&#45;&gt;Node81 -->
<g id="edge48_Node000054_Node000081" class="edge">
<title>Node54&#45;&gt;Node81</title>
<g id="a_edge48_Node000054_Node000081"><a xlink:title=" ">
<path fill="none" stroke="#63b8ff" d="M3908.35,-109.98C3951.33,-100.8 4019.87,-86.15 4066.46,-76.19"/>
<polygon fill="#63b8ff" stroke="#63b8ff" points="4067.29,-79.59 4076.34,-74.08 4065.83,-72.75 4067.29,-79.59"/>
</a>
</g>
</g>
<!-- Node67 -->
<g id="Node000067" class="node">
<title>Node67</title>
<g id="a_Node000067"><a xlink:title=" ">
<polygon fill="#e0e0e0" stroke="#999999" points="4048,-74 3983,-74 3983,-55 4048,-55 4048,-74"/>
<text text-anchor="middle" x="4015.5" y="-62" font-family="Helvetica,sans-Serif" font-size="10.00">functional</text>
</a>
</g>
</g>
<!-- Node54&#45;&gt;Node67 -->
<g id="edge50_Node000054_Node000067" class="edge">
<title>Node54&#45;&gt;Node67</title>
<g id="a_edge50_Node000054_Node000067"><a xlink:title=" ">
<path fill="none" stroke="#63b8ff" d="M3892.12,-109.98C3916.4,-101.23 3954.45,-87.51 3981.87,-77.62"/>
<polygon fill="#63b8ff" stroke="#63b8ff" points="3983.23,-80.85 3991.45,-74.17 3980.86,-74.27 3983.23,-80.85"/>
</a>
</g>
</g>
<!-- Node75&#45;&gt;Node47 -->
<g id="edge44_Node000075_Node000047" class="edge">
<title>Node75&#45;&gt;Node47</title>
<g id="a_edge44_Node000075_Node000047"><a xlink:title=" ">
<path fill="none" stroke="#63b8ff" d="M3850.51,-54.98C3832.57,-46.5 3804.78,-33.35 3784.07,-23.54"/>
<polygon fill="#63b8ff" stroke="#63b8ff" points="3785.36,-20.28 3774.82,-19.17 3782.36,-26.61 3785.36,-20.28"/>
</a>
</g>
</g>
<!-- Node75&#45;&gt;Node52 -->
<g id="edge43_Node000075_Node000052" class="edge">
<title>Node75&#45;&gt;Node52</title>
<g id="a_edge43_Node000075_Node000052"><a xlink:title=" ">
<path fill="none" stroke="#63b8ff" d="M3864.87,-54.75C3861.92,-47.65 3857.67,-37.4 3853.99,-28.56"/>
<polygon fill="#63b8ff" stroke="#63b8ff" points="3857.13,-26.98 3850.07,-19.09 3850.67,-29.67 3857.13,-26.98"/>
</a>
</g>
</g>
<!-- Node76&#45;&gt;Node47 -->
<g id="edge46_Node000076_Node000047" class="edge">
<title>Node76&#45;&gt;Node47</title>
<g id="a_edge46_Node000076_Node000047"><a xlink:title=" ">
<path fill="none" stroke="#63b8ff" d="M3756.5,-54.75C3756.5,-47.8 3756.5,-37.85 3756.5,-29.13"/>
<polygon fill="#63b8ff" stroke="#63b8ff" points="3760,-29.09 3756.5,-19.09 3753,-29.09 3760,-29.09"/>
</a>
</g>
</g>
<!-- Node81&#45;&gt;Node86 -->
<g id="edge49_Node000081_Node000086" class="edge">
<title>Node81&#45;&gt;Node86</title>
<g id="a_edge49_Node000081_Node000086"><a xlink:title=" ">
<path fill="none" stroke="#63b8ff" d="M4116.5,-54.75C4116.5,-47.8 4116.5,-37.85 4116.5,-29.13"/>
<polygon fill="#63b8ff" stroke="#63b8ff" points="4120,-29.09 4116.5,-19.09 4113,-29.09 4120,-29.09"/>
</a>
</g>
</g>
<!-- Node95&#45;&gt;Node86 -->
<g id="edge53_Node000095_Node000086" class="edge">
<title>Node95&#45;&gt;Node86</title>
<g id="a_edge53_Node000095_Node000086"><a xlink:title=" ">
<path fill="none" stroke="#63b8ff" d="M4062.29,-111.99C4100.57,-102.08 4168.67,-83.36 4175.5,-74 4189.08,-55.39 4165.31,-36.32 4144.01,-24"/>
<polygon fill="#63b8ff" stroke="#63b8ff" points="4145.6,-20.89 4135.15,-19.16 4142.24,-27.03 4145.6,-20.89"/>
</a>
</g>
</g>
<!-- Node95&#45;&gt;Node81 -->
<g id="edge54_Node000095_Node000081" class="edge">
<title>Node95&#45;&gt;Node81</title>
<g id="a_edge54_Node000095_Node000081"><a xlink:title=" ">
<path fill="none" stroke="#63b8ff" d="M4049.35,-109.98C4061.64,-101.84 4080.41,-89.41 4094.98,-79.76"/>
<polygon fill="#63b8ff" stroke="#63b8ff" points="4097.01,-82.61 4103.41,-74.17 4093.14,-76.78 4097.01,-82.61"/>
</a>
</g>
</g>
<!-- Node96 -->
<g id="Node000096" class="node">
<title>Node96</title>
<g id="a_Node000096"><a xlink:href="DelayedAsyncCalls_8h.html" target="_top" xlink:title=" ">
<polygon fill="#fff0f0" stroke="red" points="4368.5,-74 4222.5,-74 4222.5,-55 4368.5,-55 4368.5,-74"/>
<text text-anchor="middle" x="4295.5" y="-62" font-family="Helvetica,sans-Serif" font-size="10.00">base/DelayedAsyncCalls.h</text>
</a>
</g>
</g>
<!-- Node95&#45;&gt;Node96 -->
<g id="edge52_Node000095_Node000096" class="edge">
<title>Node95&#45;&gt;Node96</title>
<g id="a_edge52_Node000095_Node000096"><a xlink:title=" ">
<path fill="none" stroke="#63b8ff" d="M4062.09,-112.15C4065.25,-111.41 4068.45,-110.67 4071.5,-110 4128.55,-97.41 4194.14,-84.57 4239.54,-75.94"/>
<polygon fill="#63b8ff" stroke="#63b8ff" points="4240.31,-79.36 4249.48,-74.06 4239,-72.48 4240.31,-79.36"/>
</a>
</g>
</g>
<!-- Node58 -->
<g id="Node000058" class="node">
<title>Node58</title>
<g id="a_Node000058"><a xlink:title=" ">
<polygon fill="#e0e0e0" stroke="#999999" points="4262.5,-129 4202.5,-129 4202.5,-110 4262.5,-110 4262.5,-129"/>
<text text-anchor="middle" x="4232.5" y="-117" font-family="Helvetica,sans-Serif" font-size="10.00">iostream</text>
</a>
</g>
</g>
<!-- Node225&#45;&gt;Node58 -->
<g id="edge57_Node000225_Node000058" class="edge">
<title>Node225&#45;&gt;Node58</title>
<g id="a_edge57_Node000225_Node000058"><a xlink:title=" ">
<path fill="none" stroke="#63b8ff" d="M4120.03,-164.98C4141.97,-156.3 4176.24,-142.75 4201.19,-132.88"/>
<polygon fill="#63b8ff" stroke="#63b8ff" points="4202.57,-136.1 4210.58,-129.17 4199.99,-129.59 4202.57,-136.1"/>
</a>
</g>
</g>
</g>
</svg>
