<?xml version="1.0" encoding="UTF-8" standalone="no"?>
<!DOCTYPE svg PUBLIC "-//W3C//DTD SVG 1.1//EN"
 "http://www.w3.org/Graphics/SVG/1.1/DTD/svg11.dtd">
<!-- Generated by graphviz version 2.43.0 (0)
 -->
<!-- Title: squid/src/tests/stub_libstore.cc Pages: 1 -->
<svg width="4250pt" height="313pt"
 viewBox="0.00 0.00 4249.50 313.00" xmlns="http://www.w3.org/2000/svg" xmlns:xlink="http://www.w3.org/1999/xlink">
<g id="graph0" class="graph" transform="scale(1 1) rotate(0) translate(4 309)">
<title>squid/src/tests/stub_libstore.cc</title>
<!-- Node1 -->
<g id="Node000001" class="node">
<title>Node1</title>
<g id="a_Node000001"><a xlink:title=" ">
<polygon fill="#999999" stroke="#666666" points="3703.5,-305 3592.5,-305 3592.5,-275 3703.5,-275 3703.5,-305"/>
<text text-anchor="start" x="3600.5" y="-293" font-family="Helvetica,sans-Serif" font-size="10.00">squid/src/tests/stub</text>
<text text-anchor="middle" x="3648" y="-282" font-family="Helvetica,sans-Serif" font-size="10.00">_libstore.cc</text>
</a>
</g>
</g>
<!-- Node2 -->
<g id="Node000002" class="node">
<title>Node2</title>
<g id="a_Node000002"><a xlink:href="squid_8h.html" target="_top" xlink:title=" ">
<polygon fill="white" stroke="#666666" points="1695,-239 1643,-239 1643,-220 1695,-220 1695,-239"/>
<text text-anchor="middle" x="1669" y="-227" font-family="Helvetica,sans-Serif" font-size="10.00">squid.h</text>
</a>
</g>
</g>
<!-- Node1&#45;&gt;Node2 -->
<g id="edge1_Node000001_Node000002" class="edge">
<title>Node1&#45;&gt;Node2</title>
<g id="a_edge1_Node000001_Node000002"><a xlink:title=" ">
<path fill="none" stroke="#63b8ff" d="M3592.48,-287.36C3300.41,-278.73 1946.13,-238.69 1705.58,-231.58"/>
<polygon fill="#63b8ff" stroke="#63b8ff" points="1705.39,-228.07 1695.29,-231.28 1705.18,-235.07 1705.39,-228.07"/>
</a>
</g>
</g>
<!-- Node45 -->
<g id="Node000045" class="node">
<title>Node45</title>
<g id="a_Node000045"><a xlink:href="STUB_8h.html" target="_top" xlink:title=" ">
<polygon fill="white" stroke="#666666" points="3250.5,-74 3171.5,-74 3171.5,-55 3250.5,-55 3250.5,-74"/>
<text text-anchor="middle" x="3211" y="-62" font-family="Helvetica,sans-Serif" font-size="10.00">tests/STUB.h</text>
</a>
</g>
</g>
<!-- Node1&#45;&gt;Node45 -->
<g id="edge31_Node000001_Node000045" class="edge">
<title>Node1&#45;&gt;Node45</title>
<g id="a_edge31_Node000001_Node000045"><a xlink:title=" ">
<path fill="none" stroke="#63b8ff" d="M3592.37,-283.27C3547.68,-276.99 3484.3,-264.24 3434,-239 3354.5,-199.11 3352.69,-162.64 3281,-110 3266.1,-99.06 3248.54,-87.9 3234.74,-79.49"/>
<polygon fill="#63b8ff" stroke="#63b8ff" points="3236.23,-76.31 3225.86,-74.15 3232.62,-82.31 3236.23,-76.31"/>
</a>
</g>
</g>
<!-- Node47 -->
<g id="Node000047" class="node">
<title>Node47</title>
<g id="a_Node000047"><a xlink:href="Controller_8h.html" target="_top" xlink:title=" ">
<polygon fill="white" stroke="#666666" points="3544.5,-239 3443.5,-239 3443.5,-220 3544.5,-220 3544.5,-239"/>
<text text-anchor="middle" x="3494" y="-227" font-family="Helvetica,sans-Serif" font-size="10.00">store/Controller.h</text>
</a>
</g>
</g>
<!-- Node1&#45;&gt;Node47 -->
<g id="edge33_Node000001_Node000047" class="edge">
<title>Node1&#45;&gt;Node47</title>
<g id="a_edge33_Node000001_Node000047"><a xlink:title=" ">
<path fill="none" stroke="#63b8ff" d="M3611.11,-274.99C3585.3,-265.18 3551.15,-252.21 3526.4,-242.81"/>
<polygon fill="#63b8ff" stroke="#63b8ff" points="3527.33,-239.42 3516.74,-239.14 3524.85,-245.96 3527.33,-239.42"/>
</a>
</g>
</g>
<!-- Node85 -->
<g id="Node000085" class="node">
<title>Node85</title>
<g id="a_Node000085"><a xlink:href="Disk_8h.html" target="_top" xlink:title=" ">
<polygon fill="white" stroke="#666666" points="3637.5,-239 3562.5,-239 3562.5,-220 3637.5,-220 3637.5,-239"/>
<text text-anchor="middle" x="3600" y="-227" font-family="Helvetica,sans-Serif" font-size="10.00">store/Disk.h</text>
</a>
</g>
</g>
<!-- Node1&#45;&gt;Node85 -->
<g id="edge41_Node000001_Node000085" class="edge">
<title>Node1&#45;&gt;Node85</title>
<g id="a_edge41_Node000001_Node000085"><a xlink:title=" ">
<path fill="none" stroke="#63b8ff" d="M3636.38,-274.84C3629.56,-266.52 3620.89,-255.96 3613.73,-247.23"/>
<polygon fill="#63b8ff" stroke="#63b8ff" points="3616.24,-244.78 3607.19,-239.27 3610.83,-249.22 3616.24,-244.78"/>
</a>
</g>
</g>
<!-- Node89 -->
<g id="Node000089" class="node">
<title>Node89</title>
<g id="a_Node000089"><a xlink:href="Disks_8h.html" target="_top" xlink:title=" ">
<polygon fill="white" stroke="#666666" points="3736,-239 3656,-239 3656,-220 3736,-220 3736,-239"/>
<text text-anchor="middle" x="3696" y="-227" font-family="Helvetica,sans-Serif" font-size="10.00">store/Disks.h</text>
</a>
</g>
</g>
<!-- Node1&#45;&gt;Node89 -->
<g id="edge47_Node000001_Node000089" class="edge">
<title>Node1&#45;&gt;Node89</title>
<g id="a_edge47_Node000001_Node000089"><a xlink:title=" ">
<path fill="none" stroke="#63b8ff" d="M3659.62,-274.84C3666.44,-266.52 3675.11,-255.96 3682.27,-247.23"/>
<polygon fill="#63b8ff" stroke="#63b8ff" points="3685.17,-249.22 3688.81,-239.27 3679.76,-244.78 3685.17,-249.22"/>
</a>
</g>
</g>
<!-- Node90 -->
<g id="Node000090" class="node">
<title>Node90</title>
<g id="a_Node000090"><a xlink:href="LocalSearch_8h.html" target="_top" xlink:title=" ">
<polygon fill="white" stroke="#666666" points="3873,-74 3761,-74 3761,-55 3873,-55 3873,-74"/>
<text text-anchor="middle" x="3817" y="-62" font-family="Helvetica,sans-Serif" font-size="10.00">store/LocalSearch.h</text>
</a>
</g>
</g>
<!-- Node1&#45;&gt;Node90 -->
<g id="edge50_Node000001_Node000090" class="edge">
<title>Node1&#45;&gt;Node90</title>
<g id="a_edge50_Node000001_Node000090"><a xlink:title=" ">
<path fill="none" stroke="#63b8ff" d="M3690.43,-274.79C3709.17,-266.75 3730.24,-255.03 3745,-239 3767.01,-215.1 3798.38,-123.28 3811.2,-83.77"/>
<polygon fill="#63b8ff" stroke="#63b8ff" points="3814.58,-84.7 3814.3,-74.1 3807.91,-82.56 3814.58,-84.7"/>
</a>
</g>
</g>
<!-- Node91 -->
<g id="Node000091" class="node">
<title>Node91</title>
<g id="a_Node000091"><a xlink:href="SwapMetaIn_8h.html" target="_top" xlink:title=" ">
<polygon fill="white" stroke="#666666" points="3905.5,-239 3792.5,-239 3792.5,-220 3905.5,-220 3905.5,-239"/>
<text text-anchor="middle" x="3849" y="-227" font-family="Helvetica,sans-Serif" font-size="10.00">store/SwapMetaIn.h</text>
</a>
</g>
</g>
<!-- Node1&#45;&gt;Node91 -->
<g id="edge52_Node000001_Node000091" class="edge">
<title>Node1&#45;&gt;Node91</title>
<g id="a_edge52_Node000001_Node000091"><a xlink:title=" ">
<path fill="none" stroke="#63b8ff" d="M3696.14,-274.99C3730.98,-264.85 3777.47,-251.32 3809.99,-241.85"/>
<polygon fill="#63b8ff" stroke="#63b8ff" points="3810.99,-245.21 3819.61,-239.05 3809.03,-238.49 3810.99,-245.21"/>
</a>
</g>
</g>
<!-- Node92 -->
<g id="Node000092" class="node">
<title>Node92</title>
<g id="a_Node000092"><a xlink:href="SwapMetaOut_8h.html" target="_top" xlink:title=" ">
<polygon fill="white" stroke="#666666" points="4083,-239 3961,-239 3961,-220 4083,-220 4083,-239"/>
<text text-anchor="middle" x="4022" y="-227" font-family="Helvetica,sans-Serif" font-size="10.00">store/SwapMetaOut.h</text>
</a>
</g>
</g>
<!-- Node1&#45;&gt;Node92 -->
<g id="edge55_Node000001_Node000092" class="edge">
<title>Node1&#45;&gt;Node92</title>
<g id="a_edge55_Node000001_Node000092"><a xlink:title=" ">
<path fill="none" stroke="#63b8ff" d="M3703.59,-280.31C3771.37,-269.7 3885.74,-251.81 3957.38,-240.61"/>
<polygon fill="#63b8ff" stroke="#63b8ff" points="3958.29,-244.01 3967.63,-239 3957.21,-237.09 3958.29,-244.01"/>
</a>
</g>
</g>
<!-- Node3 -->
<g id="Node000003" class="node">
<title>Node3</title>
<g id="a_Node000003"><a xlink:href="autoconf_8h.html" target="_top" xlink:title=" ">
<polygon fill="white" stroke="#666666" points="1570,-184 1502,-184 1502,-165 1570,-165 1570,-184"/>
<text text-anchor="middle" x="1536" y="-172" font-family="Helvetica,sans-Serif" font-size="10.00">autoconf.h</text>
</a>
</g>
</g>
<!-- Node2&#45;&gt;Node3 -->
<g id="edge2_Node000002_Node000003" class="edge">
<title>Node2&#45;&gt;Node3</title>
<g id="a_edge2_Node000002_Node000003"><a xlink:title=" ">
<path fill="none" stroke="#63b8ff" d="M1647.63,-219.98C1625.85,-211.3 1591.84,-197.75 1567.08,-187.88"/>
<polygon fill="#63b8ff" stroke="#63b8ff" points="1568.34,-184.62 1557.76,-184.17 1565.75,-191.12 1568.34,-184.62"/>
</a>
</g>
</g>
<!-- Node4 -->
<g id="Node000004" class="node">
<title>Node4</title>
<g id="a_Node000004"><a xlink:href="version_8h.html" target="_top" xlink:title=" ">
<polygon fill="white" stroke="#666666" points="1650,-184 1588,-184 1588,-165 1650,-165 1650,-184"/>
<text text-anchor="middle" x="1619" y="-172" font-family="Helvetica,sans-Serif" font-size="10.00">version.h</text>
</a>
</g>
</g>
<!-- Node2&#45;&gt;Node4 -->
<g id="edge3_Node000002_Node000004" class="edge">
<title>Node2&#45;&gt;Node4</title>
<g id="a_edge3_Node000002_Node000004"><a xlink:title=" ">
<path fill="none" stroke="#63b8ff" d="M1660.74,-219.75C1653.54,-212.11 1642.89,-200.82 1634.15,-191.56"/>
<polygon fill="#63b8ff" stroke="#63b8ff" points="1636.51,-188.96 1627.1,-184.09 1631.42,-193.76 1636.51,-188.96"/>
</a>
</g>
</g>
<!-- Node5 -->
<g id="Node000005" class="node">
<title>Node5</title>
<g id="a_Node000005"><a xlink:href="compat_8h.html" target="_top" xlink:title=" ">
<polygon fill="white" stroke="#666666" points="1770,-184 1668,-184 1668,-165 1770,-165 1770,-184"/>
<text text-anchor="middle" x="1719" y="-172" font-family="Helvetica,sans-Serif" font-size="10.00">compat/compat.h</text>
</a>
</g>
</g>
<!-- Node2&#45;&gt;Node5 -->
<g id="edge4_Node000002_Node000005" class="edge">
<title>Node2&#45;&gt;Node5</title>
<g id="a_edge4_Node000002_Node000005"><a xlink:title=" ">
<path fill="none" stroke="#63b8ff" d="M1677.26,-219.75C1684.46,-212.11 1695.11,-200.82 1703.85,-191.56"/>
<polygon fill="#63b8ff" stroke="#63b8ff" points="1706.58,-193.76 1710.9,-184.09 1701.49,-188.96 1706.58,-193.76"/>
</a>
</g>
</g>
<!-- Node6 -->
<g id="Node000006" class="node">
<title>Node6</title>
<g id="a_Node000006"><a xlink:href="osdetect_8h.html" target="_top" xlink:title=" ">
<polygon fill="white" stroke="#666666" points="2509.5,-129 2402.5,-129 2402.5,-110 2509.5,-110 2509.5,-129"/>
<text text-anchor="middle" x="2456" y="-117" font-family="Helvetica,sans-Serif" font-size="10.00">compat/osdetect.h</text>
</a>
</g>
</g>
<!-- Node5&#45;&gt;Node6 -->
<g id="edge5_Node000005_Node000006" class="edge">
<title>Node5&#45;&gt;Node6</title>
<g id="a_edge5_Node000005_Node000006"><a xlink:title=" ">
<path fill="none" stroke="#63b8ff" d="M1770.25,-171.31C1881.43,-166.3 2153.25,-152.67 2392.14,-129.01"/>
<polygon fill="#63b8ff" stroke="#63b8ff" points="2392.81,-132.46 2402.41,-127.98 2392.11,-125.49 2392.81,-132.46"/>
</a>
</g>
</g>
<!-- Node7 -->
<g id="Node000007" class="node">
<title>Node7</title>
<g id="a_Node000007"><a xlink:href="fdsetsize_8h.html" target="_top" xlink:title=" ">
<polygon fill="white" stroke="#666666" points="2638,-129 2528,-129 2528,-110 2638,-110 2638,-129"/>
<text text-anchor="middle" x="2583" y="-117" font-family="Helvetica,sans-Serif" font-size="10.00">compat/fdsetsize.h</text>
</a>
</g>
</g>
<!-- Node5&#45;&gt;Node7 -->
<g id="edge6_Node000005_Node000007" class="edge">
<title>Node5&#45;&gt;Node7</title>
<g id="a_edge6_Node000005_Node000007"><a xlink:title=" ">
<path fill="none" stroke="#63b8ff" d="M1770.04,-171.97C1895.33,-167.95 2228.22,-155.54 2517.44,-128.97"/>
<polygon fill="#63b8ff" stroke="#63b8ff" points="2518.08,-132.42 2527.71,-128.01 2517.43,-125.45 2518.08,-132.42"/>
</a>
</g>
</g>
<!-- Node8 -->
<g id="Node000008" class="node">
<title>Node8</title>
<g id="a_Node000008"><a xlink:href="types_8h.html" target="_top" xlink:title=" ">
<polygon fill="#fff0f0" stroke="red" points="2748,-129 2656,-129 2656,-110 2748,-110 2748,-129"/>
<text text-anchor="middle" x="2702" y="-117" font-family="Helvetica,sans-Serif" font-size="10.00">compat/types.h</text>
</a>
</g>
</g>
<!-- Node5&#45;&gt;Node8 -->
<g id="edge7_Node000005_Node000008" class="edge">
<title>Node5&#45;&gt;Node8</title>
<g id="a_edge7_Node000005_Node000008"><a xlink:title=" ">
<path fill="none" stroke="#63b8ff" d="M1770.19,-172.94C1909.29,-171 2305.95,-162.8 2645.79,-129"/>
<polygon fill="#63b8ff" stroke="#63b8ff" points="2646.23,-132.48 2655.83,-128 2645.53,-125.51 2646.23,-132.48"/>
</a>
</g>
</g>
<!-- Node10 -->
<g id="Node000010" class="node">
<title>Node10</title>
<g id="a_Node000010"><a xlink:href="aix_8h.html" target="_top" xlink:title=" ">
<polygon fill="white" stroke="#666666" points="2861.5,-129 2766.5,-129 2766.5,-110 2861.5,-110 2861.5,-129"/>
<text text-anchor="middle" x="2814" y="-117" font-family="Helvetica,sans-Serif" font-size="10.00">compat/os/aix.h</text>
</a>
</g>
</g>
<!-- Node5&#45;&gt;Node10 -->
<g id="edge8_Node000005_Node000010" class="edge">
<title>Node5&#45;&gt;Node10</title>
<g id="a_edge8_Node000005_Node000010"><a xlink:title=" ">
<path fill="none" stroke="#63b8ff" d="M1770.16,-173.21C1920.05,-171.95 2371.24,-165.28 2756.23,-128.94"/>
<polygon fill="#63b8ff" stroke="#63b8ff" points="2756.84,-132.4 2766.46,-127.97 2756.17,-125.43 2756.84,-132.4"/>
</a>
</g>
</g>
<!-- Node11 -->
<g id="Node000011" class="node">
<title>Node11</title>
<g id="a_Node000011"><a xlink:href="android_8h.html" target="_top" xlink:title=" ">
<polygon fill="white" stroke="#666666" points="2996,-129 2880,-129 2880,-110 2996,-110 2996,-129"/>
<text text-anchor="middle" x="2938" y="-117" font-family="Helvetica,sans-Serif" font-size="10.00">compat/os/android.h</text>
</a>
</g>
</g>
<!-- Node5&#45;&gt;Node11 -->
<g id="edge9_Node000005_Node000011" class="edge">
<title>Node5&#45;&gt;Node11</title>
<g id="a_edge9_Node000005_Node000011"><a xlink:title=" ">
<path fill="none" stroke="#63b8ff" d="M1770.15,-173.08C1930.52,-171.45 2437.95,-163.76 2869.61,-128.94"/>
<polygon fill="#63b8ff" stroke="#63b8ff" points="2870.11,-132.41 2879.8,-128.11 2869.54,-125.43 2870.11,-132.41"/>
</a>
</g>
</g>
<!-- Node12 -->
<g id="Node000012" class="node">
<title>Node12</title>
<g id="a_Node000012"><a xlink:href="dragonfly_8h.html" target="_top" xlink:title=" ">
<polygon fill="white" stroke="#666666" points="3138,-129 3014,-129 3014,-110 3138,-110 3138,-129"/>
<text text-anchor="middle" x="3076" y="-117" font-family="Helvetica,sans-Serif" font-size="10.00">compat/os/dragonfly.h</text>
</a>
</g>
</g>
<!-- Node5&#45;&gt;Node12 -->
<g id="edge10_Node000005_Node000012" class="edge">
<title>Node5&#45;&gt;Node12</title>
<g id="a_edge10_Node000005_Node000012"><a xlink:title=" ">
<path fill="none" stroke="#63b8ff" d="M1770.24,-173.28C1942.68,-172.22 2517.9,-165.99 3003.67,-129.03"/>
<polygon fill="#63b8ff" stroke="#63b8ff" points="3003.99,-132.52 3013.69,-128.26 3003.45,-125.54 3003.99,-132.52"/>
</a>
</g>
</g>
<!-- Node13 -->
<g id="Node000013" class="node">
<title>Node13</title>
<g id="a_Node000013"><a xlink:href="freebsd_8h.html" target="_top" xlink:title=" ">
<polygon fill="white" stroke="#666666" points="3272,-129 3156,-129 3156,-110 3272,-110 3272,-129"/>
<text text-anchor="middle" x="3214" y="-117" font-family="Helvetica,sans-Serif" font-size="10.00">compat/os/freebsd.h</text>
</a>
</g>
</g>
<!-- Node5&#45;&gt;Node13 -->
<g id="edge11_Node000005_Node000013" class="edge">
<title>Node5&#45;&gt;Node13</title>
<g id="a_edge11_Node000005_Node000013"><a xlink:title=" ">
<path fill="none" stroke="#63b8ff" d="M1770.01,-173.66C1954.08,-173.87 2601.53,-171.4 3145.91,-129"/>
<polygon fill="#63b8ff" stroke="#63b8ff" points="3146.23,-132.48 3155.93,-128.21 3145.69,-125.5 3146.23,-132.48"/>
</a>
</g>
</g>
<!-- Node14 -->
<g id="Node000014" class="node">
<title>Node14</title>
<g id="a_Node000014"><a xlink:href="hpux_8h.html" target="_top" xlink:title=" ">
<polygon fill="white" stroke="#666666" points="104,-129 0,-129 0,-110 104,-110 104,-129"/>
<text text-anchor="middle" x="52" y="-117" font-family="Helvetica,sans-Serif" font-size="10.00">compat/os/hpux.h</text>
</a>
</g>
</g>
<!-- Node5&#45;&gt;Node14 -->
<g id="edge12_Node000005_Node000014" class="edge">
<title>Node5&#45;&gt;Node14</title>
<g id="a_edge12_Node000005_Node000014"><a xlink:title=" ">
<path fill="none" stroke="#63b8ff" d="M1667.98,-165.86C1664.95,-165.53 1661.94,-165.24 1659,-165 977.36,-108.98 799.78,-183.78 114.33,-128.99"/>
<polygon fill="#63b8ff" stroke="#63b8ff" points="114.45,-125.49 104.2,-128.18 113.89,-132.47 114.45,-125.49"/>
</a>
</g>
</g>
<!-- Node15 -->
<g id="Node000015" class="node">
<title>Node15</title>
<g id="a_Node000015"><a xlink:href="linux_8h.html" target="_top" xlink:title=" ">
<polygon fill="white" stroke="#666666" points="226,-129 122,-129 122,-110 226,-110 226,-129"/>
<text text-anchor="middle" x="174" y="-117" font-family="Helvetica,sans-Serif" font-size="10.00">compat/os/linux.h</text>
</a>
</g>
</g>
<!-- Node5&#45;&gt;Node15 -->
<g id="edge13_Node000005_Node000015" class="edge">
<title>Node5&#45;&gt;Node15</title>
<g id="a_edge13_Node000005_Node000015"><a xlink:title=" ">
<path fill="none" stroke="#63b8ff" d="M1667.98,-165.86C1664.95,-165.54 1661.94,-165.24 1659,-165 1031.48,-112.79 867.73,-180.04 236.47,-129.01"/>
<polygon fill="#63b8ff" stroke="#63b8ff" points="236.45,-125.49 226.2,-128.17 235.88,-132.47 236.45,-125.49"/>
</a>
</g>
</g>
<!-- Node16 -->
<g id="Node000016" class="node">
<title>Node16</title>
<g id="a_Node000016"><a xlink:href="macosx_8h.html" target="_top" xlink:title=" ">
<polygon fill="white" stroke="#666666" points="362,-129 244,-129 244,-110 362,-110 362,-129"/>
<text text-anchor="middle" x="303" y="-117" font-family="Helvetica,sans-Serif" font-size="10.00">compat/os/macosx.h</text>
</a>
</g>
</g>
<!-- Node5&#45;&gt;Node16 -->
<g id="edge14_Node000005_Node000016" class="edge">
<title>Node5&#45;&gt;Node16</title>
<g id="a_edge14_Node000005_Node000016"><a xlink:title=" ">
<path fill="none" stroke="#63b8ff" d="M1667.98,-165.87C1664.95,-165.54 1661.94,-165.25 1659,-165 1091.71,-117.04 943.74,-171.92 372.45,-129.02"/>
<polygon fill="#63b8ff" stroke="#63b8ff" points="372.54,-125.52 362.3,-128.25 372.01,-132.5 372.54,-125.52"/>
</a>
</g>
</g>
<!-- Node17 -->
<g id="Node000017" class="node">
<title>Node17</title>
<g id="a_Node000017"><a xlink:href="mingw_8h.html" target="_top" xlink:title=" ">
<polygon fill="white" stroke="#666666" points="492,-129 380,-129 380,-110 492,-110 492,-129"/>
<text text-anchor="middle" x="436" y="-117" font-family="Helvetica,sans-Serif" font-size="10.00">compat/os/mingw.h</text>
</a>
</g>
</g>
<!-- Node5&#45;&gt;Node17 -->
<g id="edge15_Node000005_Node000017" class="edge">
<title>Node5&#45;&gt;Node17</title>
<g id="a_edge15_Node000005_Node000017"><a xlink:title=" ">
<path fill="none" stroke="#63b8ff" d="M1667.98,-165.88C1664.95,-165.55 1661.93,-165.25 1659,-165 1149.37,-121.11 1016,-169.78 502.6,-129.04"/>
<polygon fill="#63b8ff" stroke="#63b8ff" points="502.58,-125.52 492.33,-128.21 502.02,-132.5 502.58,-125.52"/>
</a>
</g>
</g>
<!-- Node18 -->
<g id="Node000018" class="node">
<title>Node18</title>
<g id="a_Node000018"><a xlink:href="mswindows_8h.html" target="_top" xlink:title=" ">
<polygon fill="white" stroke="#666666" points="647.5,-129 510.5,-129 510.5,-110 647.5,-110 647.5,-129"/>
<text text-anchor="middle" x="579" y="-117" font-family="Helvetica,sans-Serif" font-size="10.00">compat/os/mswindows.h</text>
</a>
</g>
</g>
<!-- Node5&#45;&gt;Node18 -->
<g id="edge16_Node000005_Node000018" class="edge">
<title>Node5&#45;&gt;Node18</title>
<g id="a_edge16_Node000005_Node000018"><a xlink:title=" ">
<path fill="none" stroke="#63b8ff" d="M1667.98,-165.9C1664.94,-165.56 1661.93,-165.26 1659,-165 1218.04,-125.96 1102.62,-160.96 658.05,-129.09"/>
<polygon fill="#63b8ff" stroke="#63b8ff" points="658.05,-125.58 647.82,-128.35 657.54,-132.57 658.05,-125.58"/>
</a>
</g>
</g>
<!-- Node19 -->
<g id="Node000019" class="node">
<title>Node19</title>
<g id="a_Node000019"><a xlink:href="netbsd_8h.html" target="_top" xlink:title=" ">
<polygon fill="white" stroke="#666666" points="778.5,-129 665.5,-129 665.5,-110 778.5,-110 778.5,-129"/>
<text text-anchor="middle" x="722" y="-117" font-family="Helvetica,sans-Serif" font-size="10.00">compat/os/netbsd.h</text>
</a>
</g>
</g>
<!-- Node5&#45;&gt;Node19 -->
<g id="edge17_Node000005_Node000019" class="edge">
<title>Node5&#45;&gt;Node19</title>
<g id="a_edge17_Node000005_Node000019"><a xlink:title=" ">
<path fill="none" stroke="#63b8ff" d="M1667.98,-165.92C1664.94,-165.58 1661.93,-165.27 1659,-165 1276.02,-130.05 1175.18,-161.63 788.74,-129.07"/>
<polygon fill="#63b8ff" stroke="#63b8ff" points="788.95,-125.58 778.69,-128.21 788.36,-132.55 788.95,-125.58"/>
</a>
</g>
</g>
<!-- Node20 -->
<g id="Node000020" class="node">
<title>Node20</title>
<g id="a_Node000020"><a xlink:href="openbsd_8h.html" target="_top" xlink:title=" ">
<polygon fill="white" stroke="#666666" points="917.5,-129 796.5,-129 796.5,-110 917.5,-110 917.5,-129"/>
<text text-anchor="middle" x="857" y="-117" font-family="Helvetica,sans-Serif" font-size="10.00">compat/os/openbsd.h</text>
</a>
</g>
</g>
<!-- Node5&#45;&gt;Node20 -->
<g id="edge18_Node000005_Node000020" class="edge">
<title>Node5&#45;&gt;Node20</title>
<g id="a_edge18_Node000005_Node000020"><a xlink:title=" ">
<path fill="none" stroke="#63b8ff" d="M1667.97,-165.95C1664.94,-165.6 1661.93,-165.28 1659,-165 1337.63,-134.41 1252.7,-156.5 927.73,-129.08"/>
<polygon fill="#63b8ff" stroke="#63b8ff" points="927.82,-125.58 917.56,-128.22 927.22,-132.55 927.82,-125.58"/>
</a>
</g>
</g>
<!-- Node21 -->
<g id="Node000021" class="node">
<title>Node21</title>
<g id="a_Node000021"><a xlink:href="os2_8h.html" target="_top" xlink:title=" ">
<polygon fill="white" stroke="#666666" points="1032.5,-129 935.5,-129 935.5,-110 1032.5,-110 1032.5,-129"/>
<text text-anchor="middle" x="984" y="-117" font-family="Helvetica,sans-Serif" font-size="10.00">compat/os/os2.h</text>
</a>
</g>
</g>
<!-- Node5&#45;&gt;Node21 -->
<g id="edge19_Node000005_Node000021" class="edge">
<title>Node5&#45;&gt;Node21</title>
<g id="a_edge19_Node000005_Node000021"><a xlink:title=" ">
<path fill="none" stroke="#63b8ff" d="M1667.97,-165.98C1664.94,-165.62 1661.93,-165.29 1659,-165 1389.01,-138.05 1317.01,-156.48 1042.95,-128.99"/>
<polygon fill="#63b8ff" stroke="#63b8ff" points="1043,-125.48 1032.7,-127.95 1042.29,-132.44 1043,-125.48"/>
</a>
</g>
</g>
<!-- Node22 -->
<g id="Node000022" class="node">
<title>Node22</title>
<g id="a_Node000022"><a xlink:href="qnx_8h.html" target="_top" xlink:title=" ">
<polygon fill="white" stroke="#666666" points="1149,-129 1051,-129 1051,-110 1149,-110 1149,-129"/>
<text text-anchor="middle" x="1100" y="-117" font-family="Helvetica,sans-Serif" font-size="10.00">compat/os/qnx.h</text>
</a>
</g>
</g>
<!-- Node5&#45;&gt;Node22 -->
<g id="edge20_Node000005_Node000022" class="edge">
<title>Node5&#45;&gt;Node22</title>
<g id="a_edge20_Node000005_Node000022"><a xlink:title=" ">
<path fill="none" stroke="#63b8ff" d="M1667.97,-166.03C1664.94,-165.66 1661.93,-165.31 1659,-165 1440.27,-141.68 1381.63,-152.86 1159.05,-129.03"/>
<polygon fill="#63b8ff" stroke="#63b8ff" points="1159.33,-125.54 1149.02,-127.94 1158.58,-132.5 1159.33,-125.54"/>
</a>
</g>
</g>
<!-- Node23 -->
<g id="Node000023" class="node">
<title>Node23</title>
<g id="a_Node000023"><a xlink:href="sgi_8h.html" target="_top" xlink:title=" ">
<polygon fill="white" stroke="#666666" points="1261,-129 1167,-129 1167,-110 1261,-110 1261,-129"/>
<text text-anchor="middle" x="1214" y="-117" font-family="Helvetica,sans-Serif" font-size="10.00">compat/os/sgi.h</text>
</a>
</g>
</g>
<!-- Node5&#45;&gt;Node23 -->
<g id="edge21_Node000005_Node000023" class="edge">
<title>Node5&#45;&gt;Node23</title>
<g id="a_edge21_Node000005_Node000023"><a xlink:title=" ">
<path fill="none" stroke="#63b8ff" d="M1667.96,-166.1C1664.93,-165.71 1661.93,-165.34 1659,-165 1489.75,-145.19 1444.03,-149.85 1270.98,-129.05"/>
<polygon fill="#63b8ff" stroke="#63b8ff" points="1271.38,-125.57 1261.03,-127.84 1270.53,-132.52 1271.38,-125.57"/>
</a>
</g>
</g>
<!-- Node24 -->
<g id="Node000024" class="node">
<title>Node24</title>
<g id="a_Node000024"><a xlink:href="solaris_8h.html" target="_top" xlink:title=" ">
<polygon fill="white" stroke="#666666" points="1391,-129 1279,-129 1279,-110 1391,-110 1391,-129"/>
<text text-anchor="middle" x="1335" y="-117" font-family="Helvetica,sans-Serif" font-size="10.00">compat/os/solaris.h</text>
</a>
</g>
</g>
<!-- Node5&#45;&gt;Node24 -->
<g id="edge22_Node000005_Node000024" class="edge">
<title>Node5&#45;&gt;Node24</title>
<g id="a_edge22_Node000005_Node000024"><a xlink:title=" ">
<path fill="none" stroke="#63b8ff" d="M1667.94,-166.25C1664.91,-165.83 1661.92,-165.41 1659,-165 1569.86,-152.56 1466.88,-138.47 1401.38,-129.53"/>
<polygon fill="#63b8ff" stroke="#63b8ff" points="1401.58,-126.03 1391.2,-128.15 1400.64,-132.96 1401.58,-126.03"/>
</a>
</g>
</g>
<!-- Node25 -->
<g id="Node000025" class="node">
<title>Node25</title>
<g id="a_Node000025"><a xlink:href="sunos_8h.html" target="_top" xlink:title=" ">
<polygon fill="white" stroke="#666666" points="1517,-129 1409,-129 1409,-110 1517,-110 1517,-129"/>
<text text-anchor="middle" x="1463" y="-117" font-family="Helvetica,sans-Serif" font-size="10.00">compat/os/sunos.h</text>
</a>
</g>
</g>
<!-- Node5&#45;&gt;Node25 -->
<g id="edge23_Node000005_Node000025" class="edge">
<title>Node5&#45;&gt;Node25</title>
<g id="a_edge23_Node000005_Node000025"><a xlink:title=" ">
<path fill="none" stroke="#63b8ff" d="M1677.87,-164.98C1633.4,-155.78 1562.45,-141.09 1514.35,-131.13"/>
<polygon fill="#63b8ff" stroke="#63b8ff" points="1514.96,-127.68 1504.45,-129.08 1513.54,-134.54 1514.96,-127.68"/>
</a>
</g>
</g>
<!-- Node26 -->
<g id="Node000026" class="node">
<title>Node26</title>
<g id="a_Node000026"><a xlink:href="assert_8h.html" target="_top" xlink:title=" ">
<polygon fill="white" stroke="#666666" points="1630.5,-129 1535.5,-129 1535.5,-110 1630.5,-110 1630.5,-129"/>
<text text-anchor="middle" x="1583" y="-117" font-family="Helvetica,sans-Serif" font-size="10.00">compat/assert.h</text>
</a>
</g>
</g>
<!-- Node5&#45;&gt;Node26 -->
<g id="edge24_Node000005_Node000026" class="edge">
<title>Node5&#45;&gt;Node26</title>
<g id="a_edge24_Node000005_Node000026"><a xlink:title=" ">
<path fill="none" stroke="#63b8ff" d="M1697.15,-164.98C1674.88,-156.3 1640.1,-142.75 1614.78,-132.88"/>
<polygon fill="#63b8ff" stroke="#63b8ff" points="1615.84,-129.54 1605.25,-129.17 1613.29,-136.06 1615.84,-129.54"/>
</a>
</g>
</g>
<!-- Node27 -->
<g id="Node000027" class="node">
<title>Node27</title>
<g id="a_Node000027"><a xlink:href="compat__shared_8h.html" target="_top" xlink:title=" ">
<polygon fill="#fff0f0" stroke="red" points="1789,-129 1649,-129 1649,-110 1789,-110 1789,-129"/>
<text text-anchor="middle" x="1719" y="-117" font-family="Helvetica,sans-Serif" font-size="10.00">compat/compat_shared.h</text>
</a>
</g>
</g>
<!-- Node5&#45;&gt;Node27 -->
<g id="edge25_Node000005_Node000027" class="edge">
<title>Node5&#45;&gt;Node27</title>
<g id="a_edge25_Node000005_Node000027"><a xlink:title=" ">
<path fill="none" stroke="#63b8ff" d="M1719,-164.75C1719,-157.8 1719,-147.85 1719,-139.13"/>
<polygon fill="#63b8ff" stroke="#63b8ff" points="1722.5,-139.09 1719,-129.09 1715.5,-139.09 1722.5,-139.09"/>
</a>
</g>
</g>
<!-- Node37 -->
<g id="Node000037" class="node">
<title>Node37</title>
<g id="a_Node000037"><a xlink:href="stdvarargs_8h.html" target="_top" xlink:title=" ">
<polygon fill="#fff0f0" stroke="red" points="1924.5,-129 1807.5,-129 1807.5,-110 1924.5,-110 1924.5,-129"/>
<text text-anchor="middle" x="1866" y="-117" font-family="Helvetica,sans-Serif" font-size="10.00">compat/stdvarargs.h</text>
</a>
</g>
</g>
<!-- Node5&#45;&gt;Node37 -->
<g id="edge26_Node000005_Node000037" class="edge">
<title>Node5&#45;&gt;Node37</title>
<g id="a_edge26_Node000005_Node000037"><a xlink:title=" ">
<path fill="none" stroke="#63b8ff" d="M1742.62,-164.98C1766.9,-156.23 1804.95,-142.51 1832.37,-132.62"/>
<polygon fill="#63b8ff" stroke="#63b8ff" points="1833.73,-135.85 1841.95,-129.17 1831.36,-129.27 1833.73,-135.85"/>
</a>
</g>
</g>
<!-- Node39 -->
<g id="Node000039" class="node">
<title>Node39</title>
<g id="a_Node000039"><a xlink:href="stdio_8h.html" target="_top" xlink:title=" ">
<polygon fill="#fff0f0" stroke="red" points="2031.5,-129 1942.5,-129 1942.5,-110 2031.5,-110 2031.5,-129"/>
<text text-anchor="middle" x="1987" y="-117" font-family="Helvetica,sans-Serif" font-size="10.00">compat/stdio.h</text>
</a>
</g>
</g>
<!-- Node5&#45;&gt;Node39 -->
<g id="edge27_Node000005_Node000039" class="edge">
<title>Node5&#45;&gt;Node39</title>
<g id="a_edge27_Node000005_Node000039"><a xlink:title=" ">
<path fill="none" stroke="#63b8ff" d="M1762.06,-164.98C1808.71,-155.76 1883.2,-141.03 1933.56,-131.07"/>
<polygon fill="#63b8ff" stroke="#63b8ff" points="1934.47,-134.46 1943.6,-129.08 1933.11,-127.59 1934.47,-134.46"/>
</a>
</g>
</g>
<!-- Node41 -->
<g id="Node000041" class="node">
<title>Node41</title>
<g id="a_Node000041"><a xlink:href="statvfs_8h.html" target="_top" xlink:title=" ">
<polygon fill="white" stroke="#666666" points="2148.5,-129 2049.5,-129 2049.5,-110 2148.5,-110 2148.5,-129"/>
<text text-anchor="middle" x="2099" y="-117" font-family="Helvetica,sans-Serif" font-size="10.00">compat/statvfs.h</text>
</a>
</g>
</g>
<!-- Node5&#45;&gt;Node41 -->
<g id="edge28_Node000005_Node000041" class="edge">
<title>Node5&#45;&gt;Node41</title>
<g id="a_edge28_Node000005_Node000041"><a xlink:title=" ">
<path fill="none" stroke="#63b8ff" d="M1770.16,-166.49C1831.47,-158.08 1937.62,-143.45 2039.29,-129.09"/>
<polygon fill="#63b8ff" stroke="#63b8ff" points="2040.02,-132.53 2049.43,-127.66 2039.04,-125.59 2040.02,-132.53"/>
</a>
</g>
</g>
<!-- Node42 -->
<g id="Node000042" class="node">
<title>Node42</title>
<g id="a_Node000042"><a xlink:href="debug_8h.html" target="_top" xlink:title=" ">
<polygon fill="white" stroke="#666666" points="2261.5,-129 2166.5,-129 2166.5,-110 2261.5,-110 2261.5,-129"/>
<text text-anchor="middle" x="2214" y="-117" font-family="Helvetica,sans-Serif" font-size="10.00">compat/debug.h</text>
</a>
</g>
</g>
<!-- Node5&#45;&gt;Node42 -->
<g id="edge29_Node000005_Node000042" class="edge">
<title>Node5&#45;&gt;Node42</title>
<g id="a_edge29_Node000005_Node000042"><a xlink:title=" ">
<path fill="none" stroke="#63b8ff" d="M1770,-169.1C1849.95,-162.03 2009.87,-147.19 2156.36,-129.02"/>
<polygon fill="#63b8ff" stroke="#63b8ff" points="2156.95,-132.47 2166.44,-127.76 2156.08,-125.53 2156.95,-132.47"/>
</a>
</g>
</g>
<!-- Node43 -->
<g id="Node000043" class="node">
<title>Node43</title>
<g id="a_Node000043"><a xlink:href="valgrind_8h.html" target="_top" xlink:title=" ">
<polygon fill="#fff0f0" stroke="red" points="2384.5,-129 2279.5,-129 2279.5,-110 2384.5,-110 2384.5,-129"/>
<text text-anchor="middle" x="2332" y="-117" font-family="Helvetica,sans-Serif" font-size="10.00">compat/valgrind.h</text>
</a>
</g>
</g>
<!-- Node5&#45;&gt;Node43 -->
<g id="edge30_Node000005_Node000043" class="edge">
<title>Node5&#45;&gt;Node43</title>
<g id="a_edge30_Node000005_Node000043"><a xlink:title=" ">
<path fill="none" stroke="#63b8ff" d="M1770.37,-170.31C1866.19,-164.15 2078.93,-149.49 2269.08,-129.04"/>
<polygon fill="#63b8ff" stroke="#63b8ff" points="2269.69,-132.49 2279.26,-127.93 2268.94,-125.53 2269.69,-132.49"/>
</a>
</g>
</g>
<!-- Node46 -->
<g id="Node000046" class="node">
<title>Node46</title>
<g id="a_Node000046"><a xlink:title=" ">
<polygon fill="#e0e0e0" stroke="#999999" points="3314,-19 3254,-19 3254,0 3314,0 3314,-19"/>
<text text-anchor="middle" x="3284" y="-7" font-family="Helvetica,sans-Serif" font-size="10.00">iostream</text>
</a>
</g>
</g>
<!-- Node45&#45;&gt;Node46 -->
<g id="edge32_Node000045_Node000046" class="edge">
<title>Node45&#45;&gt;Node46</title>
<g id="a_edge32_Node000045_Node000046"><a xlink:title=" ">
<path fill="none" stroke="#63b8ff" d="M3222.73,-54.98C3233.73,-47 3250.42,-34.88 3263.6,-25.31"/>
<polygon fill="#63b8ff" stroke="#63b8ff" points="3266.02,-27.88 3272.06,-19.17 3261.91,-22.21 3266.02,-27.88"/>
</a>
</g>
</g>
<!-- Node48 -->
<g id="Node000048" class="node">
<title>Node48</title>
<g id="a_Node000048"><a xlink:href="Storage_8h.html" target="_top" xlink:title=" ">
<polygon fill="white" stroke="#666666" points="3548.5,-129 3457.5,-129 3457.5,-110 3548.5,-110 3548.5,-129"/>
<text text-anchor="middle" x="3503" y="-117" font-family="Helvetica,sans-Serif" font-size="10.00">store/Storage.h</text>
</a>
</g>
</g>
<!-- Node47&#45;&gt;Node48 -->
<g id="edge34_Node000047_Node000048" class="edge">
<title>Node47&#45;&gt;Node48</title>
<g id="a_edge34_Node000047_Node000048"><a xlink:title=" ">
<path fill="none" stroke="#63b8ff" d="M3494.74,-219.66C3496.19,-202.17 3499.47,-162.8 3501.44,-139.27"/>
<polygon fill="#63b8ff" stroke="#63b8ff" points="3504.94,-139.41 3502.28,-129.16 3497.96,-138.83 3504.94,-139.41"/>
</a>
</g>
</g>
<!-- Node49 -->
<g id="Node000049" class="node">
<title>Node49</title>
<g id="a_Node000049"><a xlink:href="RefCount_8h.html" target="_top" xlink:title=" ">
<polygon fill="#fff0f0" stroke="red" points="3404.5,-74 3307.5,-74 3307.5,-55 3404.5,-55 3404.5,-74"/>
<text text-anchor="middle" x="3356" y="-62" font-family="Helvetica,sans-Serif" font-size="10.00">base/RefCount.h</text>
</a>
</g>
</g>
<!-- Node48&#45;&gt;Node49 -->
<g id="edge35_Node000048_Node000049" class="edge">
<title>Node48&#45;&gt;Node49</title>
<g id="a_edge35_Node000048_Node000049"><a xlink:title=" ">
<path fill="none" stroke="#63b8ff" d="M3479.38,-109.98C3455.1,-101.23 3417.05,-87.51 3389.63,-77.62"/>
<polygon fill="#63b8ff" stroke="#63b8ff" points="3390.64,-74.27 3380.05,-74.17 3388.27,-80.85 3390.64,-74.27"/>
</a>
</g>
</g>
<!-- Node52 -->
<g id="Node000052" class="node">
<title>Node52</title>
<g id="a_Node000052"><a xlink:href="RequestMethod_8h.html" target="_top" xlink:title=" ">
<polygon fill="#fff0f0" stroke="red" points="3704.5,-74 3579.5,-74 3579.5,-55 3704.5,-55 3704.5,-74"/>
<text text-anchor="middle" x="3642" y="-62" font-family="Helvetica,sans-Serif" font-size="10.00">http/RequestMethod.h</text>
</a>
</g>
</g>
<!-- Node48&#45;&gt;Node52 -->
<g id="edge37_Node000048_Node000052" class="edge">
<title>Node48&#45;&gt;Node52</title>
<g id="a_edge37_Node000048_Node000052"><a xlink:title=" ">
<path fill="none" stroke="#63b8ff" d="M3525.33,-109.98C3548.2,-101.27 3583.96,-87.63 3609.86,-77.75"/>
<polygon fill="#63b8ff" stroke="#63b8ff" points="3611.16,-81 3619.26,-74.17 3608.67,-74.46 3611.16,-81"/>
</a>
</g>
</g>
<!-- Node76 -->
<g id="Node000076" class="node">
<title>Node76</title>
<g id="a_Node000076"><a xlink:href="store_2forward_8h.html" target="_top" xlink:title=" ">
<polygon fill="white" stroke="#666666" points="3778.5,-19 3687.5,-19 3687.5,0 3778.5,0 3778.5,-19"/>
<text text-anchor="middle" x="3733" y="-7" font-family="Helvetica,sans-Serif" font-size="10.00">store/forward.h</text>
</a>
</g>
</g>
<!-- Node48&#45;&gt;Node76 -->
<g id="edge38_Node000048_Node000076" class="edge">
<title>Node48&#45;&gt;Node76</title>
<g id="a_edge38_Node000048_Node000076"><a xlink:title=" ">
<path fill="none" stroke="#63b8ff" d="M3487.47,-109.94C3467.05,-97.62 3435.56,-74.25 3452,-55 3480.38,-21.77 3603.75,-13.22 3677.26,-11.1"/>
<polygon fill="#63b8ff" stroke="#63b8ff" points="3677.38,-14.6 3687.28,-10.85 3677.2,-7.6 3677.38,-14.6"/>
</a>
</g>
</g>
<!-- Node74 -->
<g id="Node000074" class="node">
<title>Node74</title>
<g id="a_Node000074"><a xlink:href="store__key__md5_8h.html" target="_top" xlink:title=" ">
<polygon fill="#fff0f0" stroke="red" points="3561,-74 3461,-74 3461,-55 3561,-55 3561,-74"/>
<text text-anchor="middle" x="3511" y="-62" font-family="Helvetica,sans-Serif" font-size="10.00">store_key_md5.h</text>
</a>
</g>
</g>
<!-- Node48&#45;&gt;Node74 -->
<g id="edge39_Node000048_Node000074" class="edge">
<title>Node48&#45;&gt;Node74</title>
<g id="a_edge39_Node000048_Node000074"><a xlink:title=" ">
<path fill="none" stroke="#63b8ff" d="M3504.32,-109.75C3505.37,-102.8 3506.87,-92.85 3508.19,-84.13"/>
<polygon fill="#63b8ff" stroke="#63b8ff" points="3511.67,-84.5 3509.7,-74.09 3504.75,-83.45 3511.67,-84.5"/>
</a>
</g>
</g>
<!-- Node49&#45;&gt;Node46 -->
<g id="edge36_Node000049_Node000046" class="edge">
<title>Node49&#45;&gt;Node46</title>
<g id="a_edge36_Node000049_Node000046"><a xlink:title=" ">
<path fill="none" stroke="#63b8ff" d="M3344.43,-54.98C3333.58,-47 3317.12,-34.88 3304.12,-25.31"/>
<polygon fill="#63b8ff" stroke="#63b8ff" points="3305.91,-22.28 3295.78,-19.17 3301.76,-27.92 3305.91,-22.28"/>
</a>
</g>
</g>
<!-- Node74&#45;&gt;Node76 -->
<g id="edge40_Node000074_Node000076" class="edge">
<title>Node74&#45;&gt;Node76</title>
<g id="a_edge40_Node000074_Node000076"><a xlink:title=" ">
<path fill="none" stroke="#63b8ff" d="M3546.67,-54.98C3584.83,-45.87 3645.47,-31.4 3687.15,-21.45"/>
<polygon fill="#63b8ff" stroke="#63b8ff" points="3688.14,-24.81 3697.05,-19.08 3686.51,-18 3688.14,-24.81"/>
</a>
</g>
</g>
<!-- Node86 -->
<g id="Node000086" class="node">
<title>Node86</title>
<g id="a_Node000086"><a xlink:href="Controlled_8h.html" target="_top" xlink:title=" ">
<polygon fill="white" stroke="#666666" points="3664,-184 3560,-184 3560,-165 3664,-165 3664,-184"/>
<text text-anchor="middle" x="3612" y="-172" font-family="Helvetica,sans-Serif" font-size="10.00">store/Controlled.h</text>
</a>
</g>
</g>
<!-- Node85&#45;&gt;Node86 -->
<g id="edge42_Node000085_Node000086" class="edge">
<title>Node85&#45;&gt;Node86</title>
<g id="a_edge42_Node000085_Node000086"><a xlink:title=" ">
<path fill="none" stroke="#63b8ff" d="M3601.98,-219.75C3603.57,-212.72 3605.86,-202.62 3607.85,-193.84"/>
<polygon fill="#63b8ff" stroke="#63b8ff" points="3611.26,-194.62 3610.06,-184.09 3604.43,-193.07 3611.26,-194.62"/>
</a>
</g>
</g>
<!-- Node87 -->
<g id="Node000087" class="node">
<title>Node87</title>
<g id="a_Node000087"><a xlink:href="StoreIOState_8h.html" target="_top" xlink:title=" ">
<polygon fill="#fff0f0" stroke="red" points="3415.5,-129 3328.5,-129 3328.5,-110 3415.5,-110 3415.5,-129"/>
<text text-anchor="middle" x="3372" y="-117" font-family="Helvetica,sans-Serif" font-size="10.00">StoreIOState.h</text>
</a>
</g>
</g>
<!-- Node85&#45;&gt;Node87 -->
<g id="edge44_Node000085_Node000087" class="edge">
<title>Node85&#45;&gt;Node87</title>
<g id="a_edge44_Node000085_Node000087"><a xlink:title=" ">
<path fill="none" stroke="#63b8ff" d="M3581.73,-219.84C3541.77,-200.92 3446.45,-155.77 3399.33,-133.45"/>
<polygon fill="#63b8ff" stroke="#63b8ff" points="3400.58,-130.16 3390.04,-129.05 3397.58,-136.49 3400.58,-130.16"/>
</a>
</g>
</g>
<!-- Node86&#45;&gt;Node48 -->
<g id="edge43_Node000086_Node000048" class="edge">
<title>Node86&#45;&gt;Node48</title>
<g id="a_edge43_Node000086_Node000048"><a xlink:title=" ">
<path fill="none" stroke="#63b8ff" d="M3594.49,-164.98C3577.03,-156.5 3549.99,-143.35 3529.83,-133.54"/>
<polygon fill="#63b8ff" stroke="#63b8ff" points="3531.36,-130.4 3520.83,-129.17 3528.29,-136.69 3531.36,-130.4"/>
</a>
</g>
</g>
<!-- Node87&#45;&gt;Node49 -->
<g id="edge45_Node000087_Node000049" class="edge">
<title>Node87&#45;&gt;Node49</title>
<g id="a_edge45_Node000087_Node000049"><a xlink:title=" ">
<path fill="none" stroke="#63b8ff" d="M3369.36,-109.75C3367.24,-102.72 3364.19,-92.62 3361.54,-83.84"/>
<polygon fill="#63b8ff" stroke="#63b8ff" points="3364.83,-82.65 3358.59,-74.09 3358.13,-84.67 3364.83,-82.65"/>
</a>
</g>
</g>
<!-- Node87&#45;&gt;Node76 -->
<g id="edge46_Node000087_Node000076" class="edge">
<title>Node87&#45;&gt;Node76</title>
<g id="a_edge46_Node000087_Node000076"><a xlink:title=" ">
<path fill="none" stroke="#63b8ff" d="M3348.01,-109.86C3319.54,-98.34 3278.26,-76.86 3298,-55 3322.98,-27.34 3565.59,-15.93 3677.26,-12.12"/>
<polygon fill="#63b8ff" stroke="#63b8ff" points="3677.44,-15.61 3687.32,-11.78 3677.21,-8.62 3677.44,-15.61"/>
</a>
</g>
</g>
<!-- Node89&#45;&gt;Node76 -->
<g id="edge49_Node000089_Node000076" class="edge">
<title>Node89&#45;&gt;Node76</title>
<g id="a_edge49_Node000089_Node000076"><a xlink:title=" ">
<path fill="none" stroke="#63b8ff" d="M3697.45,-219.95C3702.89,-187.88 3722.19,-74.2 3729.84,-29.12"/>
<polygon fill="#63b8ff" stroke="#63b8ff" points="3733.3,-29.67 3731.52,-19.22 3726.4,-28.5 3733.3,-29.67"/>
</a>
</g>
</g>
<!-- Node89&#45;&gt;Node86 -->
<g id="edge48_Node000089_Node000086" class="edge">
<title>Node89&#45;&gt;Node86</title>
<g id="a_edge48_Node000089_Node000086"><a xlink:title=" ">
<path fill="none" stroke="#63b8ff" d="M3682.5,-219.98C3669.6,-211.84 3649.9,-199.41 3634.6,-189.76"/>
<polygon fill="#63b8ff" stroke="#63b8ff" points="3636.07,-186.55 3625.74,-184.17 3632.33,-192.47 3636.07,-186.55"/>
</a>
</g>
</g>
<!-- Node90&#45;&gt;Node76 -->
<g id="edge51_Node000090_Node000076" class="edge">
<title>Node90&#45;&gt;Node76</title>
<g id="a_edge51_Node000090_Node000076"><a xlink:title=" ">
<path fill="none" stroke="#63b8ff" d="M3803.5,-54.98C3790.6,-46.84 3770.9,-34.41 3755.6,-24.76"/>
<polygon fill="#63b8ff" stroke="#63b8ff" points="3757.07,-21.55 3746.74,-19.17 3753.33,-27.47 3757.07,-21.55"/>
</a>
</g>
</g>
<!-- Node91&#45;&gt;Node76 -->
<g id="edge54_Node000091_Node000076" class="edge">
<title>Node91&#45;&gt;Node76</title>
<g id="a_edge54_Node000091_Node000076"><a xlink:title=" ">
<path fill="none" stroke="#63b8ff" d="M3860.64,-219.73C3870.31,-211.67 3883.35,-198.74 3889,-184 3901.86,-150.44 3946.76,-136.4 3882,-55 3859.93,-27.26 3821.31,-16.27 3788.92,-12.15"/>
<polygon fill="#63b8ff" stroke="#63b8ff" points="3788.97,-8.63 3778.65,-11.03 3788.21,-15.59 3788.97,-8.63"/>
</a>
</g>
</g>
<!-- Node56 -->
<g id="Node000056" class="node">
<title>Node56</title>
<g id="a_Node000056"><a xlink:href="sbuf_2forward_8h.html" target="_top" xlink:title=" ">
<polygon fill="#fff0f0" stroke="red" points="3879.5,-184 3792.5,-184 3792.5,-165 3879.5,-165 3879.5,-184"/>
<text text-anchor="middle" x="3836" y="-172" font-family="Helvetica,sans-Serif" font-size="10.00">sbuf/forward.h</text>
</a>
</g>
</g>
<!-- Node91&#45;&gt;Node56 -->
<g id="edge53_Node000091_Node000056" class="edge">
<title>Node91&#45;&gt;Node56</title>
<g id="a_edge53_Node000091_Node000056"><a xlink:title=" ">
<path fill="none" stroke="#63b8ff" d="M3846.85,-219.75C3845.13,-212.72 3842.65,-202.62 3840.5,-193.84"/>
<polygon fill="#63b8ff" stroke="#63b8ff" points="3843.89,-192.97 3838.11,-184.09 3837.09,-194.63 3843.89,-192.97"/>
</a>
</g>
</g>
<!-- Node92&#45;&gt;Node76 -->
<g id="edge58_Node000092_Node000076" class="edge">
<title>Node92&#45;&gt;Node76</title>
<g id="a_edge58_Node000092_Node000076"><a xlink:title=" ">
<path fill="none" stroke="#63b8ff" d="M4020.68,-219.79C4018.47,-207.09 4013.23,-183.01 4003,-165 3970.21,-107.29 3958.83,-89.28 3902,-55 3867.48,-34.18 3823.26,-22.98 3788.71,-17.03"/>
<polygon fill="#63b8ff" stroke="#63b8ff" points="3789.22,-13.56 3778.78,-15.42 3788.09,-20.47 3789.22,-13.56"/>
</a>
</g>
</g>
<!-- Node93 -->
<g id="Node000093" class="node">
<title>Node93</title>
<g id="a_Node000093"><a xlink:href="HardFun_8h.html" target="_top" xlink:title=" ">
<polygon fill="white" stroke="#666666" points="4142,-184 4050,-184 4050,-165 4142,-165 4142,-184"/>
<text text-anchor="middle" x="4096" y="-172" font-family="Helvetica,sans-Serif" font-size="10.00">base/HardFun.h</text>
</a>
</g>
</g>
<!-- Node92&#45;&gt;Node93 -->
<g id="edge56_Node000092_Node000093" class="edge">
<title>Node92&#45;&gt;Node93</title>
<g id="a_edge56_Node000092_Node000093"><a xlink:title=" ">
<path fill="none" stroke="#63b8ff" d="M4033.89,-219.98C4045.15,-211.92 4062.29,-199.65 4075.71,-190.03"/>
<polygon fill="#63b8ff" stroke="#63b8ff" points="4077.8,-192.84 4083.89,-184.17 4073.73,-187.15 4077.8,-192.84"/>
</a>
</g>
</g>
<!-- Node94 -->
<g id="Node000094" class="node">
<title>Node94</title>
<g id="a_Node000094"><a xlink:href="ToCpp_8h.html" target="_top" xlink:title=" ">
<polygon fill="white" stroke="#666666" points="4241.5,-184 4160.5,-184 4160.5,-165 4241.5,-165 4241.5,-184"/>
<text text-anchor="middle" x="4201" y="-172" font-family="Helvetica,sans-Serif" font-size="10.00">base/ToCpp.h</text>
</a>
</g>
</g>
<!-- Node92&#45;&gt;Node94 -->
<g id="edge57_Node000092_Node000094" class="edge">
<title>Node92&#45;&gt;Node94</title>
<g id="a_edge57_Node000092_Node000094"><a xlink:title=" ">
<path fill="none" stroke="#63b8ff" d="M4050.76,-219.98C4080.94,-211.05 4128.57,-196.94 4162.1,-187.02"/>
<polygon fill="#63b8ff" stroke="#63b8ff" points="4163.42,-190.28 4172.02,-184.08 4161.43,-183.57 4163.42,-190.28"/>
</a>
</g>
</g>
<!-- Node95 -->
<g id="Node000095" class="node">
<title>Node95</title>
<g id="a_Node000095"><a xlink:title=" ">
<polygon fill="#e0e0e0" stroke="#999999" points="3994,-184 3936,-184 3936,-165 3994,-165 3994,-184"/>
<text text-anchor="middle" x="3965" y="-172" font-family="Helvetica,sans-Serif" font-size="10.00">memory</text>
</a>
</g>
</g>
<!-- Node92&#45;&gt;Node95 -->
<g id="edge59_Node000092_Node000095" class="edge">
<title>Node92&#45;&gt;Node95</title>
<g id="a_edge59_Node000092_Node000095"><a xlink:title=" ">
<path fill="none" stroke="#63b8ff" d="M4012.84,-219.98C4004.5,-212.23 3991.97,-200.58 3981.82,-191.14"/>
<polygon fill="#63b8ff" stroke="#63b8ff" points="3984.03,-188.42 3974.32,-184.17 3979.26,-193.54 3984.03,-188.42"/>
</a>
</g>
</g>
</g>
</svg>
