<?xml version="1.0" encoding="UTF-8" standalone="no"?>
<!DOCTYPE svg PUBLIC "-//W3C//DTD SVG 1.1//EN"
 "http://www.w3.org/Graphics/SVG/1.1/DTD/svg11.dtd">
<!-- Generated by graphviz version 2.43.0 (0)
 -->
<!-- Title: squid/src/tests/stub_CachePeer.cc Pages: 1 -->
<svg width="3825pt" height="313pt"
 viewBox="0.00 0.00 3825.25 313.00" xmlns="http://www.w3.org/2000/svg" xmlns:xlink="http://www.w3.org/1999/xlink">
<g id="graph0" class="graph" transform="scale(1 1) rotate(0) translate(4 309)">
<title>squid/src/tests/stub_CachePeer.cc</title>
<!-- Node1 -->
<g id="Node000001" class="node">
<title>Node1</title>
<g id="a_Node000001"><a xlink:title=" ">
<polygon fill="#999999" stroke="#666666" points="3424,-305 3313,-305 3313,-275 3424,-275 3424,-305"/>
<text text-anchor="start" x="3321" y="-293" font-family="Helvetica,sans-Serif" font-size="10.00">squid/src/tests/stub</text>
<text text-anchor="middle" x="3368.5" y="-282" font-family="Helvetica,sans-Serif" font-size="10.00">_CachePeer.cc</text>
</a>
</g>
</g>
<!-- Node2 -->
<g id="Node000002" class="node">
<title>Node2</title>
<g id="a_Node000002"><a xlink:href="squid_8h.html" target="_top" xlink:title=" ">
<polygon fill="white" stroke="#666666" points="1637.5,-239 1585.5,-239 1585.5,-220 1637.5,-220 1637.5,-239"/>
<text text-anchor="middle" x="1611.5" y="-227" font-family="Helvetica,sans-Serif" font-size="10.00">squid.h</text>
</a>
</g>
</g>
<!-- Node1&#45;&gt;Node2 -->
<g id="edge1_Node000001_Node000002" class="edge">
<title>Node1&#45;&gt;Node2</title>
<g id="a_edge1_Node000001_Node000002"><a xlink:title=" ">
<path fill="none" stroke="#63b8ff" d="M3312.52,-287.14C3041.56,-278.11 1870.04,-239.11 1647.93,-231.71"/>
<polygon fill="#63b8ff" stroke="#63b8ff" points="1647.9,-228.21 1637.79,-231.38 1647.66,-235.21 1647.9,-228.21"/>
</a>
</g>
</g>
<!-- Node44 -->
<g id="Node000044" class="node">
<title>Node44</title>
<g id="a_Node000044"><a xlink:href="STUB_8h.html" target="_top" xlink:title=" ">
<polygon fill="white" stroke="#666666" points="3678,-239 3599,-239 3599,-220 3678,-220 3678,-239"/>
<text text-anchor="middle" x="3638.5" y="-227" font-family="Helvetica,sans-Serif" font-size="10.00">tests/STUB.h</text>
</a>
</g>
</g>
<!-- Node1&#45;&gt;Node44 -->
<g id="edge30_Node000001_Node000044" class="edge">
<title>Node1&#45;&gt;Node44</title>
<g id="a_edge30_Node000001_Node000044"><a xlink:title=" ">
<path fill="none" stroke="#63b8ff" d="M3424.12,-276.95C3472.73,-266.42 3542.64,-251.27 3589.26,-241.17"/>
<polygon fill="#63b8ff" stroke="#63b8ff" points="3590.1,-244.57 3599.13,-239.03 3588.61,-237.73 3590.1,-244.57"/>
</a>
</g>
</g>
<!-- Node46 -->
<g id="Node000046" class="node">
<title>Node46</title>
<g id="a_Node000046"><a xlink:href="CachePeer_8h.html" target="_top" xlink:title=" ">
<polygon fill="white" stroke="#666666" points="3407,-239 3330,-239 3330,-220 3407,-220 3407,-239"/>
<text text-anchor="middle" x="3368.5" y="-227" font-family="Helvetica,sans-Serif" font-size="10.00">CachePeer.h</text>
</a>
</g>
</g>
<!-- Node1&#45;&gt;Node46 -->
<g id="edge32_Node000001_Node000046" class="edge">
<title>Node1&#45;&gt;Node46</title>
<g id="a_edge32_Node000001_Node000046"><a xlink:title=" ">
<path fill="none" stroke="#63b8ff" d="M3368.5,-274.84C3368.5,-267.21 3368.5,-257.7 3368.5,-249.45"/>
<polygon fill="#63b8ff" stroke="#63b8ff" points="3372,-249.27 3368.5,-239.27 3365,-249.27 3372,-249.27"/>
</a>
</g>
</g>
<!-- Node3 -->
<g id="Node000003" class="node">
<title>Node3</title>
<g id="a_Node000003"><a xlink:href="autoconf_8h.html" target="_top" xlink:title=" ">
<polygon fill="white" stroke="#666666" points="1512.5,-184 1444.5,-184 1444.5,-165 1512.5,-165 1512.5,-184"/>
<text text-anchor="middle" x="1478.5" y="-172" font-family="Helvetica,sans-Serif" font-size="10.00">autoconf.h</text>
</a>
</g>
</g>
<!-- Node2&#45;&gt;Node3 -->
<g id="edge2_Node000002_Node000003" class="edge">
<title>Node2&#45;&gt;Node3</title>
<g id="a_edge2_Node000002_Node000003"><a xlink:title=" ">
<path fill="none" stroke="#63b8ff" d="M1590.13,-219.98C1568.35,-211.3 1534.34,-197.75 1509.58,-187.88"/>
<polygon fill="#63b8ff" stroke="#63b8ff" points="1510.84,-184.62 1500.26,-184.17 1508.25,-191.12 1510.84,-184.62"/>
</a>
</g>
</g>
<!-- Node4 -->
<g id="Node000004" class="node">
<title>Node4</title>
<g id="a_Node000004"><a xlink:href="version_8h.html" target="_top" xlink:title=" ">
<polygon fill="white" stroke="#666666" points="1592.5,-184 1530.5,-184 1530.5,-165 1592.5,-165 1592.5,-184"/>
<text text-anchor="middle" x="1561.5" y="-172" font-family="Helvetica,sans-Serif" font-size="10.00">version.h</text>
</a>
</g>
</g>
<!-- Node2&#45;&gt;Node4 -->
<g id="edge3_Node000002_Node000004" class="edge">
<title>Node2&#45;&gt;Node4</title>
<g id="a_edge3_Node000002_Node000004"><a xlink:title=" ">
<path fill="none" stroke="#63b8ff" d="M1603.24,-219.75C1596.04,-212.11 1585.39,-200.82 1576.65,-191.56"/>
<polygon fill="#63b8ff" stroke="#63b8ff" points="1579.01,-188.96 1569.6,-184.09 1573.92,-193.76 1579.01,-188.96"/>
</a>
</g>
</g>
<!-- Node5 -->
<g id="Node000005" class="node">
<title>Node5</title>
<g id="a_Node000005"><a xlink:href="compat_8h.html" target="_top" xlink:title=" ">
<polygon fill="white" stroke="#666666" points="1712.5,-184 1610.5,-184 1610.5,-165 1712.5,-165 1712.5,-184"/>
<text text-anchor="middle" x="1661.5" y="-172" font-family="Helvetica,sans-Serif" font-size="10.00">compat/compat.h</text>
</a>
</g>
</g>
<!-- Node2&#45;&gt;Node5 -->
<g id="edge4_Node000002_Node000005" class="edge">
<title>Node2&#45;&gt;Node5</title>
<g id="a_edge4_Node000002_Node000005"><a xlink:title=" ">
<path fill="none" stroke="#63b8ff" d="M1619.76,-219.75C1626.96,-212.11 1637.61,-200.82 1646.35,-191.56"/>
<polygon fill="#63b8ff" stroke="#63b8ff" points="1649.08,-193.76 1653.4,-184.09 1643.99,-188.96 1649.08,-193.76"/>
</a>
</g>
</g>
<!-- Node6 -->
<g id="Node000006" class="node">
<title>Node6</title>
<g id="a_Node000006"><a xlink:href="osdetect_8h.html" target="_top" xlink:title=" ">
<polygon fill="white" stroke="#666666" points="230,-129 123,-129 123,-110 230,-110 230,-129"/>
<text text-anchor="middle" x="176.5" y="-117" font-family="Helvetica,sans-Serif" font-size="10.00">compat/osdetect.h</text>
</a>
</g>
</g>
<!-- Node5&#45;&gt;Node6 -->
<g id="edge5_Node000005_Node000006" class="edge">
<title>Node5&#45;&gt;Node6</title>
<g id="a_edge5_Node000005_Node000006"><a xlink:title=" ">
<path fill="none" stroke="#63b8ff" d="M1610.48,-165.87C1607.45,-165.54 1604.44,-165.25 1601.5,-165 1001.46,-114.73 844.85,-176.85 240.36,-128.95"/>
<polygon fill="#63b8ff" stroke="#63b8ff" points="240.32,-125.44 230.07,-128.13 239.76,-132.41 240.32,-125.44"/>
</a>
</g>
</g>
<!-- Node7 -->
<g id="Node000007" class="node">
<title>Node7</title>
<g id="a_Node000007"><a xlink:href="fdsetsize_8h.html" target="_top" xlink:title=" ">
<polygon fill="white" stroke="#666666" points="358.5,-129 248.5,-129 248.5,-110 358.5,-110 358.5,-129"/>
<text text-anchor="middle" x="303.5" y="-117" font-family="Helvetica,sans-Serif" font-size="10.00">compat/fdsetsize.h</text>
</a>
</g>
</g>
<!-- Node5&#45;&gt;Node7 -->
<g id="edge6_Node000005_Node000007" class="edge">
<title>Node5&#45;&gt;Node7</title>
<g id="a_edge6_Node000005_Node000007"><a xlink:title=" ">
<path fill="none" stroke="#63b8ff" d="M1610.48,-165.88C1607.45,-165.55 1604.44,-165.25 1601.5,-165 1058.14,-118.73 916.13,-172.51 368.75,-129"/>
<polygon fill="#63b8ff" stroke="#63b8ff" points="368.87,-125.5 358.62,-128.19 368.31,-132.48 368.87,-125.5"/>
</a>
</g>
</g>
<!-- Node8 -->
<g id="Node000008" class="node">
<title>Node8</title>
<g id="a_Node000008"><a xlink:href="types_8h.html" target="_top" xlink:title=" ">
<polygon fill="#fff0f0" stroke="red" points="468.5,-129 376.5,-129 376.5,-110 468.5,-110 468.5,-129"/>
<text text-anchor="middle" x="422.5" y="-117" font-family="Helvetica,sans-Serif" font-size="10.00">compat/types.h</text>
</a>
</g>
</g>
<!-- Node5&#45;&gt;Node8 -->
<g id="edge7_Node000005_Node000008" class="edge">
<title>Node5&#45;&gt;Node8</title>
<g id="a_edge7_Node000005_Node000008"><a xlink:title=" ">
<path fill="none" stroke="#63b8ff" d="M1610.48,-165.89C1607.45,-165.55 1604.43,-165.25 1601.5,-165 1106.83,-122.17 976.88,-174.55 478.63,-128.97"/>
<polygon fill="#63b8ff" stroke="#63b8ff" points="478.94,-125.48 468.66,-128.05 478.3,-132.45 478.94,-125.48"/>
</a>
</g>
</g>
<!-- Node10 -->
<g id="Node000010" class="node">
<title>Node10</title>
<g id="a_Node000010"><a xlink:href="aix_8h.html" target="_top" xlink:title=" ">
<polygon fill="white" stroke="#666666" points="582,-129 487,-129 487,-110 582,-110 582,-129"/>
<text text-anchor="middle" x="534.5" y="-117" font-family="Helvetica,sans-Serif" font-size="10.00">compat/os/aix.h</text>
</a>
</g>
</g>
<!-- Node5&#45;&gt;Node10 -->
<g id="edge8_Node000005_Node000010" class="edge">
<title>Node5&#45;&gt;Node10</title>
<g id="a_edge8_Node000005_Node000010"><a xlink:title=" ">
<path fill="none" stroke="#63b8ff" d="M1610.48,-165.9C1607.44,-165.56 1604.43,-165.26 1601.5,-165 1157.35,-125.73 1040.49,-169.54 592.02,-128.91"/>
<polygon fill="#63b8ff" stroke="#63b8ff" points="592.31,-125.42 582.04,-128 591.68,-132.39 592.31,-125.42"/>
</a>
</g>
</g>
<!-- Node11 -->
<g id="Node000011" class="node">
<title>Node11</title>
<g id="a_Node000011"><a xlink:href="android_8h.html" target="_top" xlink:title=" ">
<polygon fill="white" stroke="#666666" points="716.5,-129 600.5,-129 600.5,-110 716.5,-110 716.5,-129"/>
<text text-anchor="middle" x="658.5" y="-117" font-family="Helvetica,sans-Serif" font-size="10.00">compat/os/android.h</text>
</a>
</g>
</g>
<!-- Node5&#45;&gt;Node11 -->
<g id="edge9_Node000005_Node000011" class="edge">
<title>Node5&#45;&gt;Node11</title>
<g id="a_edge9_Node000005_Node000011"><a xlink:title=" ">
<path fill="none" stroke="#63b8ff" d="M1610.48,-165.92C1607.44,-165.58 1604.43,-165.27 1601.5,-165 1216.76,-129.93 1115.52,-161.01 726.69,-129.02"/>
<polygon fill="#63b8ff" stroke="#63b8ff" points="726.83,-125.52 716.57,-128.17 726.25,-132.49 726.83,-125.52"/>
</a>
</g>
</g>
<!-- Node12 -->
<g id="Node000012" class="node">
<title>Node12</title>
<g id="a_Node000012"><a xlink:href="dragonfly_8h.html" target="_top" xlink:title=" ">
<polygon fill="white" stroke="#666666" points="858.5,-129 734.5,-129 734.5,-110 858.5,-110 858.5,-129"/>
<text text-anchor="middle" x="796.5" y="-117" font-family="Helvetica,sans-Serif" font-size="10.00">compat/os/dragonfly.h</text>
</a>
</g>
</g>
<!-- Node5&#45;&gt;Node12 -->
<g id="edge10_Node000005_Node000012" class="edge">
<title>Node5&#45;&gt;Node12</title>
<g id="a_edge10_Node000005_Node000012"><a xlink:title=" ">
<path fill="none" stroke="#63b8ff" d="M1610.47,-165.95C1607.44,-165.6 1604.43,-165.28 1601.5,-165 1279.69,-134.38 1194.7,-155.98 869.01,-129.06"/>
<polygon fill="#63b8ff" stroke="#63b8ff" points="869.07,-125.56 858.81,-128.21 868.49,-132.53 869.07,-125.56"/>
</a>
</g>
</g>
<!-- Node13 -->
<g id="Node000013" class="node">
<title>Node13</title>
<g id="a_Node000013"><a xlink:href="freebsd_8h.html" target="_top" xlink:title=" ">
<polygon fill="white" stroke="#666666" points="992.5,-129 876.5,-129 876.5,-110 992.5,-110 992.5,-129"/>
<text text-anchor="middle" x="934.5" y="-117" font-family="Helvetica,sans-Serif" font-size="10.00">compat/os/freebsd.h</text>
</a>
</g>
</g>
<!-- Node5&#45;&gt;Node13 -->
<g id="edge11_Node000005_Node000013" class="edge">
<title>Node5&#45;&gt;Node13</title>
<g id="a_edge11_Node000005_Node000013"><a xlink:title=" ">
<path fill="none" stroke="#63b8ff" d="M1610.47,-165.98C1607.44,-165.63 1604.43,-165.3 1601.5,-165 1338.94,-138.57 1269.18,-153.45 1002.55,-129.03"/>
<polygon fill="#63b8ff" stroke="#63b8ff" points="1002.86,-125.54 992.58,-128.11 1002.21,-132.51 1002.86,-125.54"/>
</a>
</g>
</g>
<!-- Node14 -->
<g id="Node000014" class="node">
<title>Node14</title>
<g id="a_Node000014"><a xlink:href="hpux_8h.html" target="_top" xlink:title=" ">
<polygon fill="white" stroke="#666666" points="1114.5,-129 1010.5,-129 1010.5,-110 1114.5,-110 1114.5,-129"/>
<text text-anchor="middle" x="1062.5" y="-117" font-family="Helvetica,sans-Serif" font-size="10.00">compat/os/hpux.h</text>
</a>
</g>
</g>
<!-- Node5&#45;&gt;Node14 -->
<g id="edge12_Node000005_Node000014" class="edge">
<title>Node5&#45;&gt;Node14</title>
<g id="a_edge12_Node000005_Node000014"><a xlink:title=" ">
<path fill="none" stroke="#63b8ff" d="M1610.47,-166.04C1607.43,-165.67 1604.43,-165.32 1601.5,-165 1393,-142.4 1337.07,-151.42 1124.94,-129.08"/>
<polygon fill="#63b8ff" stroke="#63b8ff" points="1125.03,-125.58 1114.72,-128 1124.29,-132.54 1125.03,-125.58"/>
</a>
</g>
</g>
<!-- Node15 -->
<g id="Node000015" class="node">
<title>Node15</title>
<g id="a_Node000015"><a xlink:href="linux_8h.html" target="_top" xlink:title=" ">
<polygon fill="white" stroke="#666666" points="1236.5,-129 1132.5,-129 1132.5,-110 1236.5,-110 1236.5,-129"/>
<text text-anchor="middle" x="1184.5" y="-117" font-family="Helvetica,sans-Serif" font-size="10.00">compat/os/linux.h</text>
</a>
</g>
</g>
<!-- Node5&#45;&gt;Node15 -->
<g id="edge13_Node000005_Node000015" class="edge">
<title>Node5&#45;&gt;Node15</title>
<g id="a_edge13_Node000005_Node000015"><a xlink:title=" ">
<path fill="none" stroke="#63b8ff" d="M1610.46,-166.13C1607.43,-165.73 1604.42,-165.35 1601.5,-165 1446.87,-146.24 1405.09,-147.9 1246.82,-129.12"/>
<polygon fill="#63b8ff" stroke="#63b8ff" points="1247.07,-125.62 1236.73,-127.91 1246.24,-132.57 1247.07,-125.62"/>
</a>
</g>
</g>
<!-- Node16 -->
<g id="Node000016" class="node">
<title>Node16</title>
<g id="a_Node000016"><a xlink:href="macosx_8h.html" target="_top" xlink:title=" ">
<polygon fill="white" stroke="#666666" points="1372.5,-129 1254.5,-129 1254.5,-110 1372.5,-110 1372.5,-129"/>
<text text-anchor="middle" x="1313.5" y="-117" font-family="Helvetica,sans-Serif" font-size="10.00">compat/os/macosx.h</text>
</a>
</g>
</g>
<!-- Node5&#45;&gt;Node16 -->
<g id="edge14_Node000005_Node000016" class="edge">
<title>Node5&#45;&gt;Node16</title>
<g id="a_edge14_Node000005_Node000016"><a xlink:title=" ">
<path fill="none" stroke="#63b8ff" d="M1610.15,-165.68C1548.92,-156.35 1446.45,-140.75 1379.42,-130.54"/>
<polygon fill="#63b8ff" stroke="#63b8ff" points="1379.8,-127.06 1369.39,-129.01 1378.74,-133.98 1379.8,-127.06"/>
</a>
</g>
</g>
<!-- Node17 -->
<g id="Node000017" class="node">
<title>Node17</title>
<g id="a_Node000017"><a xlink:href="mingw_8h.html" target="_top" xlink:title=" ">
<polygon fill="white" stroke="#666666" points="1502.5,-129 1390.5,-129 1390.5,-110 1502.5,-110 1502.5,-129"/>
<text text-anchor="middle" x="1446.5" y="-117" font-family="Helvetica,sans-Serif" font-size="10.00">compat/os/mingw.h</text>
</a>
</g>
</g>
<!-- Node5&#45;&gt;Node17 -->
<g id="edge15_Node000005_Node000017" class="edge">
<title>Node5&#45;&gt;Node17</title>
<g id="a_edge15_Node000005_Node000017"><a xlink:title=" ">
<path fill="none" stroke="#63b8ff" d="M1626.96,-164.98C1590.08,-155.89 1531.51,-141.46 1491.16,-131.51"/>
<polygon fill="#63b8ff" stroke="#63b8ff" points="1491.86,-128.08 1481.31,-129.08 1490.19,-134.87 1491.86,-128.08"/>
</a>
</g>
</g>
<!-- Node18 -->
<g id="Node000018" class="node">
<title>Node18</title>
<g id="a_Node000018"><a xlink:href="mswindows_8h.html" target="_top" xlink:title=" ">
<polygon fill="white" stroke="#666666" points="1658,-129 1521,-129 1521,-110 1658,-110 1658,-129"/>
<text text-anchor="middle" x="1589.5" y="-117" font-family="Helvetica,sans-Serif" font-size="10.00">compat/os/mswindows.h</text>
</a>
</g>
</g>
<!-- Node5&#45;&gt;Node18 -->
<g id="edge16_Node000005_Node000018" class="edge">
<title>Node5&#45;&gt;Node18</title>
<g id="a_edge16_Node000005_Node000018"><a xlink:title=" ">
<path fill="none" stroke="#63b8ff" d="M1649.93,-164.98C1639.08,-157 1622.62,-144.88 1609.62,-135.31"/>
<polygon fill="#63b8ff" stroke="#63b8ff" points="1611.41,-132.28 1601.28,-129.17 1607.26,-137.92 1611.41,-132.28"/>
</a>
</g>
</g>
<!-- Node19 -->
<g id="Node000019" class="node">
<title>Node19</title>
<g id="a_Node000019"><a xlink:href="netbsd_8h.html" target="_top" xlink:title=" ">
<polygon fill="white" stroke="#666666" points="1789,-129 1676,-129 1676,-110 1789,-110 1789,-129"/>
<text text-anchor="middle" x="1732.5" y="-117" font-family="Helvetica,sans-Serif" font-size="10.00">compat/os/netbsd.h</text>
</a>
</g>
</g>
<!-- Node5&#45;&gt;Node19 -->
<g id="edge17_Node000005_Node000019" class="edge">
<title>Node5&#45;&gt;Node19</title>
<g id="a_edge17_Node000005_Node000019"><a xlink:title=" ">
<path fill="none" stroke="#63b8ff" d="M1672.91,-164.98C1683.61,-157 1699.84,-144.88 1712.66,-135.31"/>
<polygon fill="#63b8ff" stroke="#63b8ff" points="1714.97,-137.96 1720.89,-129.17 1710.78,-132.35 1714.97,-137.96"/>
</a>
</g>
</g>
<!-- Node20 -->
<g id="Node000020" class="node">
<title>Node20</title>
<g id="a_Node000020"><a xlink:href="openbsd_8h.html" target="_top" xlink:title=" ">
<polygon fill="white" stroke="#666666" points="1928,-129 1807,-129 1807,-110 1928,-110 1928,-129"/>
<text text-anchor="middle" x="1867.5" y="-117" font-family="Helvetica,sans-Serif" font-size="10.00">compat/os/openbsd.h</text>
</a>
</g>
</g>
<!-- Node5&#45;&gt;Node20 -->
<g id="edge18_Node000005_Node000020" class="edge">
<title>Node5&#45;&gt;Node20</title>
<g id="a_edge18_Node000005_Node000020"><a xlink:title=" ">
<path fill="none" stroke="#63b8ff" d="M1694.6,-164.98C1729.78,-155.93 1785.57,-141.58 1824.22,-131.64"/>
<polygon fill="#63b8ff" stroke="#63b8ff" points="1825.33,-134.96 1834.14,-129.08 1823.59,-128.18 1825.33,-134.96"/>
</a>
</g>
</g>
<!-- Node21 -->
<g id="Node000021" class="node">
<title>Node21</title>
<g id="a_Node000021"><a xlink:href="os2_8h.html" target="_top" xlink:title=" ">
<polygon fill="white" stroke="#666666" points="2043,-129 1946,-129 1946,-110 2043,-110 2043,-129"/>
<text text-anchor="middle" x="1994.5" y="-117" font-family="Helvetica,sans-Serif" font-size="10.00">compat/os/os2.h</text>
</a>
</g>
</g>
<!-- Node5&#45;&gt;Node21 -->
<g id="edge19_Node000005_Node000021" class="edge">
<title>Node5&#45;&gt;Node21</title>
<g id="a_edge19_Node000005_Node000021"><a xlink:title=" ">
<path fill="none" stroke="#63b8ff" d="M1712.8,-165.33C1772.94,-155.76 1872.41,-139.93 1935.64,-129.87"/>
<polygon fill="#63b8ff" stroke="#63b8ff" points="1936.53,-133.27 1945.85,-128.24 1935.42,-126.36 1936.53,-133.27"/>
</a>
</g>
</g>
<!-- Node22 -->
<g id="Node000022" class="node">
<title>Node22</title>
<g id="a_Node000022"><a xlink:href="qnx_8h.html" target="_top" xlink:title=" ">
<polygon fill="white" stroke="#666666" points="2159.5,-129 2061.5,-129 2061.5,-110 2159.5,-110 2159.5,-129"/>
<text text-anchor="middle" x="2110.5" y="-117" font-family="Helvetica,sans-Serif" font-size="10.00">compat/os/qnx.h</text>
</a>
</g>
</g>
<!-- Node5&#45;&gt;Node22 -->
<g id="edge20_Node000005_Node000022" class="edge">
<title>Node5&#45;&gt;Node22</title>
<g id="a_edge20_Node000005_Node000022"><a xlink:title=" ">
<path fill="none" stroke="#63b8ff" d="M1712.66,-168.15C1785.36,-160.44 1922.97,-145.44 2051.25,-128.99"/>
<polygon fill="#63b8ff" stroke="#63b8ff" points="2051.79,-132.45 2061.26,-127.7 2050.89,-125.51 2051.79,-132.45"/>
</a>
</g>
</g>
<!-- Node23 -->
<g id="Node000023" class="node">
<title>Node23</title>
<g id="a_Node000023"><a xlink:href="solaris_8h.html" target="_top" xlink:title=" ">
<polygon fill="white" stroke="#666666" points="2289.5,-129 2177.5,-129 2177.5,-110 2289.5,-110 2289.5,-129"/>
<text text-anchor="middle" x="2233.5" y="-117" font-family="Helvetica,sans-Serif" font-size="10.00">compat/os/solaris.h</text>
</a>
</g>
</g>
<!-- Node5&#45;&gt;Node23 -->
<g id="edge21_Node000005_Node000023" class="edge">
<title>Node5&#45;&gt;Node23</title>
<g id="a_edge21_Node000005_Node000023"><a xlink:title=" ">
<path fill="none" stroke="#63b8ff" d="M1712.66,-169.73C1802.47,-162.96 1994.55,-147.77 2167.45,-129.07"/>
<polygon fill="#63b8ff" stroke="#63b8ff" points="2167.94,-132.54 2177.5,-127.98 2167.18,-125.58 2167.94,-132.54"/>
</a>
</g>
</g>
<!-- Node24 -->
<g id="Node000024" class="node">
<title>Node24</title>
<g id="a_Node000024"><a xlink:href="sunos_8h.html" target="_top" xlink:title=" ">
<polygon fill="white" stroke="#666666" points="2415.5,-129 2307.5,-129 2307.5,-110 2415.5,-110 2415.5,-129"/>
<text text-anchor="middle" x="2361.5" y="-117" font-family="Helvetica,sans-Serif" font-size="10.00">compat/os/sunos.h</text>
</a>
</g>
</g>
<!-- Node5&#45;&gt;Node24 -->
<g id="edge22_Node000005_Node000024" class="edge">
<title>Node5&#45;&gt;Node24</title>
<g id="a_edge22_Node000005_Node000024"><a xlink:title=" ">
<path fill="none" stroke="#63b8ff" d="M1712.79,-171.04C1819.55,-165.67 2073.65,-151.64 2297.28,-129.06"/>
<polygon fill="#63b8ff" stroke="#63b8ff" points="2297.64,-132.54 2307.23,-128.05 2296.93,-125.58 2297.64,-132.54"/>
</a>
</g>
</g>
<!-- Node25 -->
<g id="Node000025" class="node">
<title>Node25</title>
<g id="a_Node000025"><a xlink:href="assert_8h.html" target="_top" xlink:title=" ">
<polygon fill="white" stroke="#666666" points="2529,-129 2434,-129 2434,-110 2529,-110 2529,-129"/>
<text text-anchor="middle" x="2481.5" y="-117" font-family="Helvetica,sans-Serif" font-size="10.00">compat/assert.h</text>
</a>
</g>
</g>
<!-- Node5&#45;&gt;Node25 -->
<g id="edge23_Node000005_Node000025" class="edge">
<title>Node5&#45;&gt;Node25</title>
<g id="a_edge23_Node000005_Node000025"><a xlink:title=" ">
<path fill="none" stroke="#63b8ff" d="M1712.52,-172.11C1833.88,-168.45 2149.4,-156.95 2423.8,-128.96"/>
<polygon fill="#63b8ff" stroke="#63b8ff" points="2424.37,-132.42 2433.95,-127.92 2423.65,-125.46 2424.37,-132.42"/>
</a>
</g>
</g>
<!-- Node26 -->
<g id="Node000026" class="node">
<title>Node26</title>
<g id="a_Node000026"><a xlink:href="compat__shared_8h.html" target="_top" xlink:title=" ">
<polygon fill="#fff0f0" stroke="red" points="2687.5,-129 2547.5,-129 2547.5,-110 2687.5,-110 2687.5,-129"/>
<text text-anchor="middle" x="2617.5" y="-117" font-family="Helvetica,sans-Serif" font-size="10.00">compat/compat_shared.h</text>
</a>
</g>
</g>
<!-- Node5&#45;&gt;Node26 -->
<g id="edge24_Node000005_Node000026" class="edge">
<title>Node5&#45;&gt;Node26</title>
<g id="a_edge24_Node000005_Node000026"><a xlink:title=" ">
<path fill="none" stroke="#63b8ff" d="M1712.91,-171.88C1846.66,-167.45 2216.7,-153.84 2536.87,-129"/>
<polygon fill="#63b8ff" stroke="#63b8ff" points="2537.58,-132.45 2547.28,-128.18 2537.04,-125.47 2537.58,-132.45"/>
</a>
</g>
</g>
<!-- Node36 -->
<g id="Node000036" class="node">
<title>Node36</title>
<g id="a_Node000036"><a xlink:href="stdvarargs_8h.html" target="_top" xlink:title=" ">
<polygon fill="#fff0f0" stroke="red" points="2823,-129 2706,-129 2706,-110 2823,-110 2823,-129"/>
<text text-anchor="middle" x="2764.5" y="-117" font-family="Helvetica,sans-Serif" font-size="10.00">compat/stdvarargs.h</text>
</a>
</g>
</g>
<!-- Node5&#45;&gt;Node36 -->
<g id="edge25_Node000005_Node000036" class="edge">
<title>Node5&#45;&gt;Node36</title>
<g id="a_edge25_Node000005_Node000036"><a xlink:title=" ">
<path fill="none" stroke="#63b8ff" d="M1712.75,-172.77C1862.37,-170.33 2311.69,-160.77 2695.73,-128.98"/>
<polygon fill="#63b8ff" stroke="#63b8ff" points="2696.25,-132.45 2705.93,-128.13 2695.67,-125.47 2696.25,-132.45"/>
</a>
</g>
</g>
<!-- Node38 -->
<g id="Node000038" class="node">
<title>Node38</title>
<g id="a_Node000038"><a xlink:href="stdio_8h.html" target="_top" xlink:title=" ">
<polygon fill="#fff0f0" stroke="red" points="2930,-129 2841,-129 2841,-110 2930,-110 2930,-129"/>
<text text-anchor="middle" x="2885.5" y="-117" font-family="Helvetica,sans-Serif" font-size="10.00">compat/stdio.h</text>
</a>
</g>
</g>
<!-- Node5&#45;&gt;Node38 -->
<g id="edge26_Node000005_Node000038" class="edge">
<title>Node5&#45;&gt;Node38</title>
<g id="a_edge26_Node000005_Node000038"><a xlink:title=" ">
<path fill="none" stroke="#63b8ff" d="M1712.68,-173.71C1874.92,-173.91 2392.4,-171.03 2830.75,-128.93"/>
<polygon fill="#63b8ff" stroke="#63b8ff" points="2831.15,-132.41 2840.76,-127.96 2830.47,-125.44 2831.15,-132.41"/>
</a>
</g>
</g>
<!-- Node40 -->
<g id="Node000040" class="node">
<title>Node40</title>
<g id="a_Node000040"><a xlink:href="statvfs_8h.html" target="_top" xlink:title=" ">
<polygon fill="white" stroke="#666666" points="3047,-129 2948,-129 2948,-110 3047,-110 3047,-129"/>
<text text-anchor="middle" x="2997.5" y="-117" font-family="Helvetica,sans-Serif" font-size="10.00">compat/statvfs.h</text>
</a>
</g>
</g>
<!-- Node5&#45;&gt;Node40 -->
<g id="edge27_Node000005_Node000040" class="edge">
<title>Node5&#45;&gt;Node40</title>
<g id="a_edge27_Node000005_Node000040"><a xlink:title=" ">
<path fill="none" stroke="#63b8ff" d="M1712.72,-173.7C1884.39,-173.96 2455.28,-171.41 2937.67,-128.95"/>
<polygon fill="#63b8ff" stroke="#63b8ff" points="2938.32,-132.4 2947.97,-128.03 2937.7,-125.43 2938.32,-132.4"/>
</a>
</g>
</g>
<!-- Node41 -->
<g id="Node000041" class="node">
<title>Node41</title>
<g id="a_Node000041"><a xlink:href="debug_8h.html" target="_top" xlink:title=" ">
<polygon fill="white" stroke="#666666" points="3160,-129 3065,-129 3065,-110 3160,-110 3160,-129"/>
<text text-anchor="middle" x="3112.5" y="-117" font-family="Helvetica,sans-Serif" font-size="10.00">compat/debug.h</text>
</a>
</g>
</g>
<!-- Node5&#45;&gt;Node41 -->
<g id="edge28_Node000005_Node000041" class="edge">
<title>Node5&#45;&gt;Node41</title>
<g id="a_edge28_Node000005_Node000041"><a xlink:title=" ">
<path fill="none" stroke="#63b8ff" d="M1712.58,-174.01C1894.01,-175.35 2524.42,-176.17 3054.81,-128.92"/>
<polygon fill="#63b8ff" stroke="#63b8ff" points="3055.32,-132.39 3064.96,-128.01 3054.69,-125.42 3055.32,-132.39"/>
</a>
</g>
</g>
<!-- Node42 -->
<g id="Node000042" class="node">
<title>Node42</title>
<g id="a_Node000042"><a xlink:href="valgrind_8h.html" target="_top" xlink:title=" ">
<polygon fill="#fff0f0" stroke="red" points="105,-129 0,-129 0,-110 105,-110 105,-129"/>
<text text-anchor="middle" x="52.5" y="-117" font-family="Helvetica,sans-Serif" font-size="10.00">compat/valgrind.h</text>
</a>
</g>
</g>
<!-- Node5&#45;&gt;Node42 -->
<g id="edge29_Node000005_Node000042" class="edge">
<title>Node5&#45;&gt;Node42</title>
<g id="a_edge29_Node000005_Node000042"><a xlink:title=" ">
<path fill="none" stroke="#63b8ff" d="M1610.48,-165.86C1607.45,-165.53 1604.44,-165.24 1601.5,-165 945.6,-110.79 774.59,-182 115.26,-129.04"/>
<polygon fill="#63b8ff" stroke="#63b8ff" points="115.28,-125.53 105.03,-128.21 114.72,-132.5 115.28,-125.53"/>
</a>
</g>
</g>
<!-- Node45 -->
<g id="Node000045" class="node">
<title>Node45</title>
<g id="a_Node000045"><a xlink:title=" ">
<polygon fill="#e0e0e0" stroke="#999999" points="3766.5,-19 3706.5,-19 3706.5,0 3766.5,0 3766.5,-19"/>
<text text-anchor="middle" x="3736.5" y="-7" font-family="Helvetica,sans-Serif" font-size="10.00">iostream</text>
</a>
</g>
</g>
<!-- Node44&#45;&gt;Node45 -->
<g id="edge31_Node000044_Node000045" class="edge">
<title>Node44&#45;&gt;Node45</title>
<g id="a_edge31_Node000044_Node000045"><a xlink:title=" ">
<path fill="none" stroke="#63b8ff" d="M3678.32,-222.66C3719.74,-215.67 3780.5,-202.55 3794.5,-184 3829.04,-138.24 3819.86,-106.42 3794.5,-55 3788.01,-41.85 3775.57,-31.5 3763.86,-24.11"/>
<polygon fill="#63b8ff" stroke="#63b8ff" points="3765.57,-21.05 3755.17,-19.03 3762.04,-27.1 3765.57,-21.05"/>
</a>
</g>
</g>
<!-- Node47 -->
<g id="Node000047" class="node">
<title>Node47</title>
<g id="a_Node000047"><a xlink:href="acl_2forward_8h.html" target="_top" xlink:title=" ">
<polygon fill="white" stroke="#666666" points="3785.5,-184 3705.5,-184 3705.5,-165 3785.5,-165 3785.5,-184"/>
<text text-anchor="middle" x="3745.5" y="-172" font-family="Helvetica,sans-Serif" font-size="10.00">acl/forward.h</text>
</a>
</g>
</g>
<!-- Node46&#45;&gt;Node47 -->
<g id="edge33_Node000046_Node000047" class="edge">
<title>Node46&#45;&gt;Node47</title>
<g id="a_edge33_Node000046_Node000047"><a xlink:title=" ">
<path fill="none" stroke="#63b8ff" d="M3407.32,-223.4C3468,-215.36 3589.02,-199.12 3691.5,-184 3692.77,-183.81 3694.05,-183.62 3695.35,-183.43"/>
<polygon fill="#63b8ff" stroke="#63b8ff" points="3696.05,-186.86 3705.41,-181.9 3695,-179.94 3696.05,-186.86"/>
</a>
</g>
</g>
<!-- Node51 -->
<g id="Node000051" class="node">
<title>Node51</title>
<g id="a_Node000051"><a xlink:href="CbcPointer_8h.html" target="_top" xlink:title=" ">
<polygon fill="white" stroke="#666666" points="3282.5,-129 3178.5,-129 3178.5,-110 3282.5,-110 3282.5,-129"/>
<text text-anchor="middle" x="3230.5" y="-117" font-family="Helvetica,sans-Serif" font-size="10.00">base/CbcPointer.h</text>
</a>
</g>
</g>
<!-- Node46&#45;&gt;Node51 -->
<g id="edge36_Node000046_Node000051" class="edge">
<title>Node46&#45;&gt;Node51</title>
<g id="a_edge36_Node000046_Node000051"><a xlink:title=" ">
<path fill="none" stroke="#63b8ff" d="M3329.79,-226.51C3241.9,-221.59 3033.27,-207.52 3012.5,-184 3006.91,-177.67 3007.16,-171.54 3012.5,-165 3022.42,-152.85 3107.54,-138.2 3168.42,-129.12"/>
<polygon fill="#63b8ff" stroke="#63b8ff" points="3168.97,-132.57 3178.35,-127.65 3167.95,-125.65 3168.97,-132.57"/>
</a>
</g>
</g>
<!-- Node62 -->
<g id="Node000062" class="node">
<title>Node62</title>
<g id="a_Node000062"><a xlink:href="base_2forward_8h.html" target="_top" xlink:title=" ">
<polygon fill="white" stroke="#666666" points="3111,-184 3022,-184 3022,-165 3111,-165 3111,-184"/>
<text text-anchor="middle" x="3066.5" y="-172" font-family="Helvetica,sans-Serif" font-size="10.00">base/forward.h</text>
</a>
</g>
</g>
<!-- Node46&#45;&gt;Node62 -->
<g id="edge41_Node000046_Node000062" class="edge">
<title>Node46&#45;&gt;Node62</title>
<g id="a_edge41_Node000046_Node000062"><a xlink:title=" ">
<path fill="none" stroke="#63b8ff" d="M3329.94,-221.73C3277.03,-212.45 3181.62,-195.7 3121.3,-185.12"/>
<polygon fill="#63b8ff" stroke="#63b8ff" points="3121.66,-181.63 3111.2,-183.35 3120.45,-188.52 3121.66,-181.63"/>
</a>
</g>
</g>
<!-- Node63 -->
<g id="Node000063" class="node">
<title>Node63</title>
<g id="a_Node000063"><a xlink:href="enums_8h.html" target="_top" xlink:title=" ">
<polygon fill="white" stroke="#666666" points="3188,-184 3129,-184 3129,-165 3188,-165 3188,-184"/>
<text text-anchor="middle" x="3158.5" y="-172" font-family="Helvetica,sans-Serif" font-size="10.00">enums.h</text>
</a>
</g>
</g>
<!-- Node46&#45;&gt;Node63 -->
<g id="edge42_Node000046_Node000063" class="edge">
<title>Node46&#45;&gt;Node63</title>
<g id="a_edge42_Node000046_Node000063"><a xlink:title=" ">
<path fill="none" stroke="#63b8ff" d="M3334.76,-219.98C3297.43,-210.56 3237.35,-195.4 3197.89,-185.44"/>
<polygon fill="#63b8ff" stroke="#63b8ff" points="3198.64,-182.02 3188.08,-182.97 3196.92,-188.81 3198.64,-182.02"/>
</a>
</g>
</g>
<!-- Node64 -->
<g id="Node000064" class="node">
<title>Node64</title>
<g id="a_Node000064"><a xlink:href="StatusCode_8h.html" target="_top" xlink:title=" ">
<polygon fill="white" stroke="#666666" points="3310.5,-184 3206.5,-184 3206.5,-165 3310.5,-165 3310.5,-184"/>
<text text-anchor="middle" x="3258.5" y="-172" font-family="Helvetica,sans-Serif" font-size="10.00">http/StatusCode.h</text>
</a>
</g>
</g>
<!-- Node46&#45;&gt;Node64 -->
<g id="edge43_Node000046_Node000064" class="edge">
<title>Node46&#45;&gt;Node64</title>
<g id="a_edge43_Node000046_Node000064"><a xlink:title=" ">
<path fill="none" stroke="#63b8ff" d="M3350.83,-219.98C3333.21,-211.5 3305.92,-198.35 3285.57,-188.54"/>
<polygon fill="#63b8ff" stroke="#63b8ff" points="3287.02,-185.36 3276.49,-184.17 3283.98,-191.66 3287.02,-185.36"/>
</a>
</g>
</g>
<!-- Node65 -->
<g id="Node000065" class="node">
<title>Node65</title>
<g id="a_Node000065"><a xlink:href="icp__opcode_8h.html" target="_top" xlink:title=" ">
<polygon fill="white" stroke="#666666" points="3408.5,-184 3328.5,-184 3328.5,-165 3408.5,-165 3408.5,-184"/>
<text text-anchor="middle" x="3368.5" y="-172" font-family="Helvetica,sans-Serif" font-size="10.00">icp_opcode.h</text>
</a>
</g>
</g>
<!-- Node46&#45;&gt;Node65 -->
<g id="edge44_Node000046_Node000065" class="edge">
<title>Node46&#45;&gt;Node65</title>
<g id="a_edge44_Node000046_Node000065"><a xlink:title=" ">
<path fill="none" stroke="#63b8ff" d="M3368.5,-219.75C3368.5,-212.8 3368.5,-202.85 3368.5,-194.13"/>
<polygon fill="#63b8ff" stroke="#63b8ff" points="3372,-194.09 3368.5,-184.09 3365,-194.09 3372,-194.09"/>
</a>
</g>
</g>
<!-- Node66 -->
<g id="Node000066" class="node">
<title>Node66</title>
<g id="a_Node000066"><a xlink:href="ip_2Address_8h.html" target="_top" xlink:title=" ">
<polygon fill="white" stroke="#666666" points="3649,-184 3572,-184 3572,-165 3649,-165 3649,-184"/>
<text text-anchor="middle" x="3610.5" y="-172" font-family="Helvetica,sans-Serif" font-size="10.00">ip/Address.h</text>
</a>
</g>
</g>
<!-- Node46&#45;&gt;Node66 -->
<g id="edge45_Node000046_Node000066" class="edge">
<title>Node46&#45;&gt;Node66</title>
<g id="a_edge45_Node000046_Node000066"><a xlink:title=" ">
<path fill="none" stroke="#63b8ff" d="M3407.11,-220.04C3449.05,-210.86 3516.12,-196.17 3561.68,-186.19"/>
<polygon fill="#63b8ff" stroke="#63b8ff" points="3562.6,-189.57 3571.62,-184.01 3561.11,-182.73 3562.6,-189.57"/>
</a>
</g>
</g>
<!-- Node55 -->
<g id="Node000055" class="node">
<title>Node55</title>
<g id="a_Node000055"><a xlink:title=" ">
<polygon fill="#e0e0e0" stroke="#999999" points="3717.5,-129 3669.5,-129 3669.5,-110 3717.5,-110 3717.5,-129"/>
<text text-anchor="middle" x="3693.5" y="-117" font-family="Helvetica,sans-Serif" font-size="10.00">iosfwd</text>
</a>
</g>
</g>
<!-- Node46&#45;&gt;Node55 -->
<g id="edge54_Node000046_Node000055" class="edge">
<title>Node46&#45;&gt;Node55</title>
<g id="a_edge54_Node000046_Node000055"><a xlink:title=" ">
<path fill="none" stroke="#63b8ff" d="M3407.11,-226.75C3476.45,-222.94 3618.57,-211.89 3658.5,-184 3673.8,-173.32 3683.11,-153.72 3688.25,-139.11"/>
<polygon fill="#63b8ff" stroke="#63b8ff" points="3691.72,-139.73 3691.39,-129.14 3685.04,-137.63 3691.72,-139.73"/>
</a>
</g>
</g>
<!-- Node70 -->
<g id="Node000070" class="node">
<title>Node70</title>
<g id="a_Node000070"><a xlink:href="PeerOptions_8h.html" target="_top" xlink:title=" ">
<polygon fill="#fff0f0" stroke="red" points="3554,-184 3427,-184 3427,-165 3554,-165 3554,-184"/>
<text text-anchor="middle" x="3490.5" y="-172" font-family="Helvetica,sans-Serif" font-size="10.00">security/PeerOptions.h</text>
</a>
</g>
</g>
<!-- Node46&#45;&gt;Node70 -->
<g id="edge50_Node000046_Node000070" class="edge">
<title>Node46&#45;&gt;Node70</title>
<g id="a_edge50_Node000046_Node000070"><a xlink:title=" ">
<path fill="none" stroke="#63b8ff" d="M3388.1,-219.98C3407.82,-211.42 3438.45,-198.11 3461.08,-188.28"/>
<polygon fill="#63b8ff" stroke="#63b8ff" points="3462.76,-191.37 3470.54,-184.17 3459.98,-184.94 3462.76,-191.37"/>
</a>
</g>
</g>
<!-- Node48 -->
<g id="Node000048" class="node">
<title>Node48</title>
<g id="a_Node000048"><a xlink:href="RefCount_8h.html" target="_top" xlink:title=" ">
<polygon fill="#fff0f0" stroke="red" points="3785,-74 3688,-74 3688,-55 3785,-55 3785,-74"/>
<text text-anchor="middle" x="3736.5" y="-62" font-family="Helvetica,sans-Serif" font-size="10.00">base/RefCount.h</text>
</a>
</g>
</g>
<!-- Node47&#45;&gt;Node48 -->
<g id="edge34_Node000047_Node000048" class="edge">
<title>Node47&#45;&gt;Node48</title>
<g id="a_edge34_Node000047_Node000048"><a xlink:title=" ">
<path fill="none" stroke="#63b8ff" d="M3744.76,-164.66C3743.31,-147.17 3740.03,-107.8 3738.06,-84.27"/>
<polygon fill="#63b8ff" stroke="#63b8ff" points="3741.54,-83.83 3737.22,-74.16 3734.56,-84.41 3741.54,-83.83"/>
</a>
</g>
</g>
<!-- Node48&#45;&gt;Node45 -->
<g id="edge35_Node000048_Node000045" class="edge">
<title>Node48&#45;&gt;Node45</title>
<g id="a_edge35_Node000048_Node000045"><a xlink:title=" ">
<path fill="none" stroke="#63b8ff" d="M3736.5,-54.75C3736.5,-47.8 3736.5,-37.85 3736.5,-29.13"/>
<polygon fill="#63b8ff" stroke="#63b8ff" points="3740,-29.09 3736.5,-19.09 3733,-29.09 3740,-29.09"/>
</a>
</g>
</g>
<!-- Node52 -->
<g id="Node000052" class="node">
<title>Node52</title>
<g id="a_Node000052"><a xlink:href="TextException_8h.html" target="_top" xlink:title=" ">
<polygon fill="#fff0f0" stroke="red" points="3463.5,-74 3343.5,-74 3343.5,-55 3463.5,-55 3463.5,-74"/>
<text text-anchor="middle" x="3403.5" y="-62" font-family="Helvetica,sans-Serif" font-size="10.00">base/TextException.h</text>
</a>
</g>
</g>
<!-- Node51&#45;&gt;Node52 -->
<g id="edge37_Node000051_Node000052" class="edge">
<title>Node51&#45;&gt;Node52</title>
<g id="a_edge37_Node000051_Node000052"><a xlink:title=" ">
<path fill="none" stroke="#63b8ff" d="M3258.3,-109.98C3287.47,-101.05 3333.5,-86.94 3365.9,-77.02"/>
<polygon fill="#63b8ff" stroke="#63b8ff" points="3366.95,-80.36 3375.49,-74.08 3364.9,-73.66 3366.95,-80.36"/>
</a>
</g>
</g>
<!-- Node57 -->
<g id="Node000057" class="node">
<title>Node57</title>
<g id="a_Node000057"><a xlink:href="cbdata_8h.html" target="_top" xlink:title=" ">
<polygon fill="white" stroke="#666666" points="3213,-74 3154,-74 3154,-55 3213,-55 3213,-74"/>
<text text-anchor="middle" x="3183.5" y="-62" font-family="Helvetica,sans-Serif" font-size="10.00">cbdata.h</text>
</a>
</g>
</g>
<!-- Node51&#45;&gt;Node57 -->
<g id="edge38_Node000051_Node000057" class="edge">
<title>Node51&#45;&gt;Node57</title>
<g id="a_edge38_Node000051_Node000057"><a xlink:title=" ">
<path fill="none" stroke="#63b8ff" d="M3222.74,-109.75C3216.03,-102.18 3206.16,-91.05 3197.99,-81.84"/>
<polygon fill="#63b8ff" stroke="#63b8ff" points="3200.37,-79.25 3191.12,-74.09 3195.13,-83.89 3200.37,-79.25"/>
</a>
</g>
</g>
<!-- Node58 -->
<g id="Node000058" class="node">
<title>Node58</title>
<g id="a_Node000058"><a xlink:href="debug_2Stream_8h.html" target="_top" xlink:title=" ">
<polygon fill="#fff0f0" stroke="red" points="3325.5,-74 3231.5,-74 3231.5,-55 3325.5,-55 3325.5,-74"/>
<text text-anchor="middle" x="3278.5" y="-62" font-family="Helvetica,sans-Serif" font-size="10.00">debug/Stream.h</text>
</a>
</g>
</g>
<!-- Node51&#45;&gt;Node58 -->
<g id="edge39_Node000051_Node000058" class="edge">
<title>Node51&#45;&gt;Node58</title>
<g id="a_edge39_Node000051_Node000058"><a xlink:title=" ">
<path fill="none" stroke="#63b8ff" d="M3238.43,-109.75C3245.35,-102.11 3255.57,-90.82 3263.95,-81.56"/>
<polygon fill="#63b8ff" stroke="#63b8ff" points="3266.6,-83.85 3270.72,-74.09 3261.41,-79.15 3266.6,-83.85"/>
</a>
</g>
</g>
<!-- Node58&#45;&gt;Node45 -->
<g id="edge40_Node000058_Node000045" class="edge">
<title>Node58&#45;&gt;Node45</title>
<g id="a_edge40_Node000058_Node000045"><a xlink:title=" ">
<path fill="none" stroke="#63b8ff" d="M3325.53,-56.22C3328.57,-55.79 3331.57,-55.38 3334.5,-55 3466.72,-37.65 3624,-21.55 3696.39,-14.4"/>
<polygon fill="#63b8ff" stroke="#63b8ff" points="3696.84,-17.87 3706.44,-13.41 3696.15,-10.91 3696.84,-17.87"/>
</a>
</g>
</g>
<!-- Node67 -->
<g id="Node000067" class="node">
<title>Node67</title>
<g id="a_Node000067"><a xlink:href="ip_2forward_8h.html" target="_top" xlink:title=" ">
<polygon fill="white" stroke="#666666" points="3576,-129 3501,-129 3501,-110 3576,-110 3576,-129"/>
<text text-anchor="middle" x="3538.5" y="-117" font-family="Helvetica,sans-Serif" font-size="10.00">ip/forward.h</text>
</a>
</g>
</g>
<!-- Node66&#45;&gt;Node67 -->
<g id="edge46_Node000066_Node000067" class="edge">
<title>Node66&#45;&gt;Node67</title>
<g id="a_edge46_Node000066_Node000067"><a xlink:title=" ">
<path fill="none" stroke="#63b8ff" d="M3598.93,-164.98C3588.08,-157 3571.62,-144.88 3558.62,-135.31"/>
<polygon fill="#63b8ff" stroke="#63b8ff" points="3560.41,-132.28 3550.28,-129.17 3556.26,-137.92 3560.41,-132.28"/>
</a>
</g>
</g>
<!-- Node66&#45;&gt;Node55 -->
<g id="edge47_Node000066_Node000055" class="edge">
<title>Node66&#45;&gt;Node55</title>
<g id="a_edge47_Node000066_Node000055"><a xlink:title=" ">
<path fill="none" stroke="#63b8ff" d="M3623.84,-164.98C3636.59,-156.84 3656.05,-144.41 3671.17,-134.76"/>
<polygon fill="#63b8ff" stroke="#63b8ff" points="3673.38,-137.5 3679.92,-129.17 3669.61,-131.6 3673.38,-137.5"/>
</a>
</g>
</g>
<!-- Node68 -->
<g id="Node000068" class="node">
<title>Node68</title>
<g id="a_Node000068"><a xlink:title=" ">
<polygon fill="#e0e0e0" stroke="#999999" points="3651,-129 3594,-129 3594,-110 3651,-110 3651,-129"/>
<text text-anchor="middle" x="3622.5" y="-117" font-family="Helvetica,sans-Serif" font-size="10.00">ostream</text>
</a>
</g>
</g>
<!-- Node66&#45;&gt;Node68 -->
<g id="edge48_Node000066_Node000068" class="edge">
<title>Node66&#45;&gt;Node68</title>
<g id="a_edge48_Node000066_Node000068"><a xlink:title=" ">
<path fill="none" stroke="#63b8ff" d="M3612.48,-164.75C3614.07,-157.72 3616.36,-147.62 3618.35,-138.84"/>
<polygon fill="#63b8ff" stroke="#63b8ff" points="3621.76,-139.62 3620.56,-129.09 3614.93,-138.07 3621.76,-139.62"/>
</a>
</g>
</g>
<!-- Node69 -->
<g id="Node000069" class="node">
<title>Node69</title>
<g id="a_Node000069"><a xlink:title=" ">
<polygon fill="#e0e0e0" stroke="#999999" points="3482.5,-129 3426.5,-129 3426.5,-110 3482.5,-110 3482.5,-129"/>
<text text-anchor="middle" x="3454.5" y="-117" font-family="Helvetica,sans-Serif" font-size="10.00">optional</text>
</a>
</g>
</g>
<!-- Node66&#45;&gt;Node69 -->
<g id="edge49_Node000066_Node000069" class="edge">
<title>Node66&#45;&gt;Node69</title>
<g id="a_edge49_Node000066_Node000069"><a xlink:title=" ">
<path fill="none" stroke="#63b8ff" d="M3585.44,-164.98C3559.47,-156.16 3518.69,-142.31 3489.54,-132.41"/>
<polygon fill="#63b8ff" stroke="#63b8ff" points="3490.35,-128.99 3479.76,-129.08 3488.1,-135.61 3490.35,-128.99"/>
</a>
</g>
</g>
<!-- Node71 -->
<g id="Node000071" class="node">
<title>Node71</title>
<g id="a_Node000071"><a xlink:href="YesNoNone_8h.html" target="_top" xlink:title=" ">
<polygon fill="white" stroke="#666666" points="3408,-129 3301,-129 3301,-110 3408,-110 3408,-129"/>
<text text-anchor="middle" x="3354.5" y="-117" font-family="Helvetica,sans-Serif" font-size="10.00">base/YesNoNone.h</text>
</a>
</g>
</g>
<!-- Node70&#45;&gt;Node71 -->
<g id="edge51_Node000070_Node000071" class="edge">
<title>Node70&#45;&gt;Node71</title>
<g id="a_edge51_Node000070_Node000071"><a xlink:title=" ">
<path fill="none" stroke="#63b8ff" d="M3468.65,-164.98C3446.38,-156.3 3411.6,-142.75 3386.28,-132.88"/>
<polygon fill="#63b8ff" stroke="#63b8ff" points="3387.34,-129.54 3376.75,-129.17 3384.79,-136.06 3387.34,-129.54"/>
</a>
</g>
</g>
<!-- Node71&#45;&gt;Node52 -->
<g id="edge52_Node000071_Node000052" class="edge">
<title>Node71&#45;&gt;Node52</title>
<g id="a_edge52_Node000071_Node000052"><a xlink:title=" ">
<path fill="none" stroke="#63b8ff" d="M3362.59,-109.75C3369.66,-102.11 3380.09,-90.82 3388.65,-81.56"/>
<polygon fill="#63b8ff" stroke="#63b8ff" points="3391.34,-83.81 3395.56,-74.09 3386.2,-79.06 3391.34,-83.81"/>
</a>
</g>
</g>
<!-- Node71&#45;&gt;Node58 -->
<g id="edge53_Node000071_Node000058" class="edge">
<title>Node71&#45;&gt;Node58</title>
<g id="a_edge53_Node000071_Node000058"><a xlink:title=" ">
<path fill="none" stroke="#63b8ff" d="M3342.29,-109.98C3330.72,-101.92 3313.12,-89.65 3299.34,-80.03"/>
<polygon fill="#63b8ff" stroke="#63b8ff" points="3301.14,-77.02 3290.93,-74.17 3297.13,-82.76 3301.14,-77.02"/>
</a>
</g>
</g>
</g>
</svg>
