<?xml version="1.0" encoding="UTF-8" standalone="no"?>
<!DOCTYPE svg PUBLIC "-//W3C//DTD SVG 1.1//EN"
 "http://www.w3.org/Graphics/SVG/1.1/DTD/svg11.dtd">
<!-- Generated by graphviz version 2.43.0 (0)
 -->
<!-- Title: squid/src/tests/stub_mime.cc Pages: 1 -->
<!--zoomable 313 -->

<svg id="main" version="1.1" xmlns="http://www.w3.org/2000/svg" xmlns:xlink="http://www.w3.org/1999/xlink" xml:space="preserve" onload="init(evt)">
<style type="text/css"><![CDATA[
.node, .edge {opacity: 0.7;}
.node.selected, .edge.selected {opacity: 1;}
.edge:hover path { stroke: red; }
.edge:hover polygon { stroke: red; fill: red; }
]]></style>

<defs>
  <circle id="rim" cx="0" cy="0" r="7"/>
  <circle id="rim2" cx="0" cy="0" r="3.5"/>
  <g id="zoomPlus">
    <use xlink:href="#rim" fill="#404040"><set attributeName="fill" to="#808080" begin="zoomplus.mouseover" end="zoomplus.mouseout"/></use>
    <path d="M-4,0h8M0,-4v8" fill="none" stroke="white" stroke-width="1.5" pointer-events="none"/>
  </g>
  <g id="zoomMin">
    <use xlink:href="#rim" fill="#404040"><set attributeName="fill" to="#808080" begin="zoomminus.mouseover" end="zoomminus.mouseout"/></use>
    <path d="M-4,0h8" fill="none" stroke="white" stroke-width="1.5" pointer-events="none"/>
  </g>
  <g id="arrowUp" transform="translate(30 24)">
    <use xlink:href="#rim"/>
    <path pointer-events="none" fill="none" stroke="white" stroke-width="1.5" d="M0,-3.0v7 M-2.5,-0.5L0,-3.0L2.5,-0.5"/>
  </g>
  <g id="arrowRight" transform="rotate(90) translate(36 -43)">
    <use xlink:href="#rim"/>
    <path pointer-events="none" fill="none" stroke="white" stroke-width="1.5" d="M0,-3.0v7 M-2.5,-0.5L0,-3.0L2.5,-0.5"/>
  </g>
  <g id="arrowDown" transform="rotate(180) translate(-30 -48)">
    <use xlink:href="#rim"/>
    <path pointer-events="none" fill="none" stroke="white" stroke-width="1.5" d="M0,-3.0v7 M-2.5,-0.5L0,-3.0L2.5,-0.5"/>
  </g>
  <g id="arrowLeft" transform="rotate(270) translate(-36 17)">
    <use xlink:href="#rim"/>
    <path pointer-events="none" fill="none" stroke="white" stroke-width="1.5" d="M0,-3.0v7 M-2.5,-0.5L0,-3.0L2.5,-0.5"/>
  </g>
  <g id="resetDef">
    <use xlink:href="#rim2" fill="#404040"><set attributeName="fill" to="#808080" begin="reset.mouseover" end="reset.mouseout"/></use>
  </g>
</defs>
<script type="application/ecmascript">
var viewWidth = 4203;
var viewHeight = 313;
var sectionId = 'dynsection-0';
</script>
<script type="application/ecmascript" xlink:href="svg.min.js"/>
<svg id="graph" class="graph">
<g id="viewport">
<title>squid/src/tests/stub_mime.cc</title>
<!-- Node1 -->
<g id="Node000001" class="node">
<title>Node1</title>
<g id="a_Node000001"><a xlink:title=" ">
<polygon fill="#999999" stroke="#666666" points="3888.5,-305 3777.5,-305 3777.5,-275 3888.5,-275 3888.5,-305"/>
<text text-anchor="start" x="3785.5" y="-293" font-family="Helvetica,sans-Serif" font-size="10.00">squid/src/tests/stub</text>
<text text-anchor="middle" x="3833" y="-282" font-family="Helvetica,sans-Serif" font-size="10.00">_mime.cc</text>
</a>
</g>
</g>
<!-- Node2 -->
<g id="Node000002" class="node">
<title>Node2</title>
<g id="a_Node000002"><a xlink:href="squid_8h.html" target="_top" xlink:title=" ">
<polygon fill="white" stroke="#666666" points="1719,-239 1667,-239 1667,-220 1719,-220 1719,-239"/>
<text text-anchor="middle" x="1693" y="-227" font-family="Helvetica,sans-Serif" font-size="10.00">squid.h</text>
</a>
</g>
</g>
<!-- Node1&#45;&gt;Node2 -->
<g id="edge1_Node000001_Node000002" class="edge">
<title>Node1&#45;&gt;Node2</title>
<g id="a_edge1_Node000001_Node000002"><a xlink:title=" ">
<path fill="none" stroke="#63b8ff" d="M3777.41,-287.48C3469.82,-279.07 1981.29,-238.38 1729.28,-231.49"/>
<polygon fill="#63b8ff" stroke="#63b8ff" points="1729.29,-227.99 1719.19,-231.22 1729.1,-234.99 1729.29,-227.99"/>
</a>
</g>
</g>
<!-- Node45 -->
<g id="Node000045" class="node">
<title>Node45</title>
<g id="a_Node000045"><a xlink:href="mime__header_8h.html" target="_top" xlink:title=" ">
<polygon fill="white" stroke="#666666" points="4078,-239 3986,-239 3986,-220 4078,-220 4078,-239"/>
<text text-anchor="middle" x="4032" y="-227" font-family="Helvetica,sans-Serif" font-size="10.00">mime_header.h</text>
</a>
</g>
</g>
<!-- Node1&#45;&gt;Node45 -->
<g id="edge31_Node000001_Node000045" class="edge">
<title>Node1&#45;&gt;Node45</title>
<g id="a_edge31_Node000001_Node000045"><a xlink:title=" ">
<path fill="none" stroke="#63b8ff" d="M3880.67,-274.99C3915.01,-264.89 3960.78,-251.44 3992.96,-241.98"/>
<polygon fill="#63b8ff" stroke="#63b8ff" points="3994.3,-245.23 4002.9,-239.05 3992.32,-238.52 3994.3,-245.23"/>
</a>
</g>
</g>
<!-- Node50 -->
<g id="Node000050" class="node">
<title>Node50</title>
<g id="a_Node000050"><a xlink:href="SBuf_8h.html" target="_top" xlink:title=" ">
<polygon fill="white" stroke="#666666" points="3669.5,-239 3598.5,-239 3598.5,-220 3669.5,-220 3669.5,-239"/>
<text text-anchor="middle" x="3634" y="-227" font-family="Helvetica,sans-Serif" font-size="10.00">sbuf/SBuf.h</text>
</a>
</g>
</g>
<!-- Node1&#45;&gt;Node50 -->
<g id="edge36_Node000001_Node000050" class="edge">
<title>Node1&#45;&gt;Node50</title>
<g id="a_edge36_Node000001_Node000050"><a xlink:title=" ">
<path fill="none" stroke="#63b8ff" d="M3785.33,-274.99C3750.99,-264.89 3705.22,-251.44 3673.04,-241.98"/>
<polygon fill="#63b8ff" stroke="#63b8ff" points="3673.68,-238.52 3663.1,-239.05 3671.7,-245.23 3673.68,-238.52"/>
</a>
</g>
</g>
<!-- Node82 -->
<g id="Node000082" class="node">
<title>Node82</title>
<g id="a_Node000082"><a xlink:href="STUB_8h.html" target="_top" xlink:title=" ">
<polygon fill="white" stroke="#666666" points="4194.5,-239 4115.5,-239 4115.5,-220 4194.5,-220 4194.5,-239"/>
<text text-anchor="middle" x="4155" y="-227" font-family="Helvetica,sans-Serif" font-size="10.00">tests/STUB.h</text>
</a>
</g>
</g>
<!-- Node1&#45;&gt;Node82 -->
<g id="edge56_Node000001_Node000082" class="edge">
<title>Node1&#45;&gt;Node82</title>
<g id="a_edge56_Node000001_Node000082"><a xlink:title=" ">
<path fill="none" stroke="#63b8ff" d="M3888.72,-278.88C3949.68,-267.8 4046.5,-250.21 4105.07,-239.57"/>
<polygon fill="#63b8ff" stroke="#63b8ff" points="4105.97,-242.96 4115.19,-237.73 4104.72,-236.08 4105.97,-242.96"/>
</a>
</g>
</g>
<!-- Node3 -->
<g id="Node000003" class="node">
<title>Node3</title>
<g id="a_Node000003"><a xlink:href="autoconf_8h.html" target="_top" xlink:title=" ">
<polygon fill="white" stroke="#666666" points="1594,-184 1526,-184 1526,-165 1594,-165 1594,-184"/>
<text text-anchor="middle" x="1560" y="-172" font-family="Helvetica,sans-Serif" font-size="10.00">autoconf.h</text>
</a>
</g>
</g>
<!-- Node2&#45;&gt;Node3 -->
<g id="edge2_Node000002_Node000003" class="edge">
<title>Node2&#45;&gt;Node3</title>
<g id="a_edge2_Node000002_Node000003"><a xlink:title=" ">
<path fill="none" stroke="#63b8ff" d="M1671.63,-219.98C1649.85,-211.3 1615.84,-197.75 1591.08,-187.88"/>
<polygon fill="#63b8ff" stroke="#63b8ff" points="1592.34,-184.62 1581.76,-184.17 1589.75,-191.12 1592.34,-184.62"/>
</a>
</g>
</g>
<!-- Node4 -->
<g id="Node000004" class="node">
<title>Node4</title>
<g id="a_Node000004"><a xlink:href="version_8h.html" target="_top" xlink:title=" ">
<polygon fill="white" stroke="#666666" points="1674,-184 1612,-184 1612,-165 1674,-165 1674,-184"/>
<text text-anchor="middle" x="1643" y="-172" font-family="Helvetica,sans-Serif" font-size="10.00">version.h</text>
</a>
</g>
</g>
<!-- Node2&#45;&gt;Node4 -->
<g id="edge3_Node000002_Node000004" class="edge">
<title>Node2&#45;&gt;Node4</title>
<g id="a_edge3_Node000002_Node000004"><a xlink:title=" ">
<path fill="none" stroke="#63b8ff" d="M1684.74,-219.75C1677.54,-212.11 1666.89,-200.82 1658.15,-191.56"/>
<polygon fill="#63b8ff" stroke="#63b8ff" points="1660.51,-188.96 1651.1,-184.09 1655.42,-193.76 1660.51,-188.96"/>
</a>
</g>
</g>
<!-- Node5 -->
<g id="Node000005" class="node">
<title>Node5</title>
<g id="a_Node000005"><a xlink:href="compat_8h.html" target="_top" xlink:title=" ">
<polygon fill="white" stroke="#666666" points="1794,-184 1692,-184 1692,-165 1794,-165 1794,-184"/>
<text text-anchor="middle" x="1743" y="-172" font-family="Helvetica,sans-Serif" font-size="10.00">compat/compat.h</text>
</a>
</g>
</g>
<!-- Node2&#45;&gt;Node5 -->
<g id="edge4_Node000002_Node000005" class="edge">
<title>Node2&#45;&gt;Node5</title>
<g id="a_edge4_Node000002_Node000005"><a xlink:title=" ">
<path fill="none" stroke="#63b8ff" d="M1701.26,-219.75C1708.46,-212.11 1719.11,-200.82 1727.85,-191.56"/>
<polygon fill="#63b8ff" stroke="#63b8ff" points="1730.58,-193.76 1734.9,-184.09 1725.49,-188.96 1730.58,-193.76"/>
</a>
</g>
</g>
<!-- Node6 -->
<g id="Node000006" class="node">
<title>Node6</title>
<g id="a_Node000006"><a xlink:href="osdetect_8h.html" target="_top" xlink:title=" ">
<polygon fill="white" stroke="#666666" points="2265.5,-129 2158.5,-129 2158.5,-110 2265.5,-110 2265.5,-129"/>
<text text-anchor="middle" x="2212" y="-117" font-family="Helvetica,sans-Serif" font-size="10.00">compat/osdetect.h</text>
</a>
</g>
</g>
<!-- Node5&#45;&gt;Node6 -->
<g id="edge5_Node000005_Node000006" class="edge">
<title>Node5&#45;&gt;Node6</title>
<g id="a_edge5_Node000005_Node000006"><a xlink:title=" ">
<path fill="none" stroke="#63b8ff" d="M1794,-168.32C1869.1,-160.61 2014.13,-145.36 2148.34,-129.05"/>
<polygon fill="#63b8ff" stroke="#63b8ff" points="2148.89,-132.51 2158.4,-127.82 2148.05,-125.56 2148.89,-132.51"/>
</a>
</g>
</g>
<!-- Node7 -->
<g id="Node000007" class="node">
<title>Node7</title>
<g id="a_Node000007"><a xlink:href="fdsetsize_8h.html" target="_top" xlink:title=" ">
<polygon fill="white" stroke="#666666" points="2394,-129 2284,-129 2284,-110 2394,-110 2394,-129"/>
<text text-anchor="middle" x="2339" y="-117" font-family="Helvetica,sans-Serif" font-size="10.00">compat/fdsetsize.h</text>
</a>
</g>
</g>
<!-- Node5&#45;&gt;Node7 -->
<g id="edge6_Node000005_Node000007" class="edge">
<title>Node5&#45;&gt;Node7</title>
<g id="a_edge6_Node000005_Node000007"><a xlink:title=" ">
<path fill="none" stroke="#63b8ff" d="M1794.34,-169.99C1887.49,-163.46 2090.79,-148.4 2273.63,-128.98"/>
<polygon fill="#63b8ff" stroke="#63b8ff" points="2274.13,-132.45 2283.7,-127.91 2273.39,-125.49 2274.13,-132.45"/>
</a>
</g>
</g>
<!-- Node8 -->
<g id="Node000008" class="node">
<title>Node8</title>
<g id="a_Node000008"><a xlink:href="types_8h.html" target="_top" xlink:title=" ">
<polygon fill="#fff0f0" stroke="red" points="2504,-129 2412,-129 2412,-110 2504,-110 2504,-129"/>
<text text-anchor="middle" x="2458" y="-117" font-family="Helvetica,sans-Serif" font-size="10.00">compat/types.h</text>
</a>
</g>
</g>
<!-- Node5&#45;&gt;Node8 -->
<g id="edge7_Node000005_Node000008" class="edge">
<title>Node5&#45;&gt;Node8</title>
<g id="a_edge7_Node000005_Node000008"><a xlink:title=" ">
<path fill="none" stroke="#63b8ff" d="M1794.06,-171.56C1903.52,-167.06 2169.05,-154.43 2401.82,-129.03"/>
<polygon fill="#63b8ff" stroke="#63b8ff" points="2402.27,-132.5 2411.82,-127.93 2401.5,-125.55 2402.27,-132.5"/>
</a>
</g>
</g>
<!-- Node10 -->
<g id="Node000010" class="node">
<title>Node10</title>
<g id="a_Node000010"><a xlink:href="aix_8h.html" target="_top" xlink:title=" ">
<polygon fill="white" stroke="#666666" points="2617.5,-129 2522.5,-129 2522.5,-110 2617.5,-110 2617.5,-129"/>
<text text-anchor="middle" x="2570" y="-117" font-family="Helvetica,sans-Serif" font-size="10.00">compat/os/aix.h</text>
</a>
</g>
</g>
<!-- Node5&#45;&gt;Node10 -->
<g id="edge8_Node000005_Node000010" class="edge">
<title>Node5&#45;&gt;Node10</title>
<g id="a_edge8_Node000005_Node000010"><a xlink:title=" ">
<path fill="none" stroke="#63b8ff" d="M1794.03,-172.14C1916.16,-168.56 2235.03,-157.16 2512.2,-128.97"/>
<polygon fill="#63b8ff" stroke="#63b8ff" points="2512.86,-132.42 2522.45,-127.92 2512.15,-125.46 2512.86,-132.42"/>
</a>
</g>
</g>
<!-- Node11 -->
<g id="Node000011" class="node">
<title>Node11</title>
<g id="a_Node000011"><a xlink:href="android_8h.html" target="_top" xlink:title=" ">
<polygon fill="white" stroke="#666666" points="2752,-129 2636,-129 2636,-110 2752,-110 2752,-129"/>
<text text-anchor="middle" x="2694" y="-117" font-family="Helvetica,sans-Serif" font-size="10.00">compat/os/android.h</text>
</a>
</g>
</g>
<!-- Node5&#45;&gt;Node11 -->
<g id="edge9_Node000005_Node000011" class="edge">
<title>Node5&#45;&gt;Node11</title>
<g id="a_edge9_Node000005_Node000011"><a xlink:title=" ">
<path fill="none" stroke="#63b8ff" d="M1794.35,-172.24C1928.88,-168.66 2302.85,-156.86 2625.77,-128.94"/>
<polygon fill="#63b8ff" stroke="#63b8ff" points="2626.13,-132.42 2635.79,-128.06 2625.53,-125.45 2626.13,-132.42"/>
</a>
</g>
</g>
<!-- Node12 -->
<g id="Node000012" class="node">
<title>Node12</title>
<g id="a_Node000012"><a xlink:href="dragonfly_8h.html" target="_top" xlink:title=" ">
<polygon fill="white" stroke="#666666" points="2894,-129 2770,-129 2770,-110 2894,-110 2894,-129"/>
<text text-anchor="middle" x="2832" y="-117" font-family="Helvetica,sans-Serif" font-size="10.00">compat/os/dragonfly.h</text>
</a>
</g>
</g>
<!-- Node5&#45;&gt;Node12 -->
<g id="edge10_Node000005_Node000012" class="edge">
<title>Node5&#45;&gt;Node12</title>
<g id="a_edge10_Node000005_Node000012"><a xlink:title=" ">
<path fill="none" stroke="#63b8ff" d="M1794.2,-172.63C1942.13,-169.81 2383.11,-159.38 2759.69,-129.04"/>
<polygon fill="#63b8ff" stroke="#63b8ff" points="2760,-132.53 2769.69,-128.23 2759.44,-125.55 2760,-132.53"/>
</a>
</g>
</g>
<!-- Node13 -->
<g id="Node000013" class="node">
<title>Node13</title>
<g id="a_Node000013"><a xlink:href="freebsd_8h.html" target="_top" xlink:title=" ">
<polygon fill="white" stroke="#666666" points="3028,-129 2912,-129 2912,-110 3028,-110 3028,-129"/>
<text text-anchor="middle" x="2970" y="-117" font-family="Helvetica,sans-Serif" font-size="10.00">compat/os/freebsd.h</text>
</a>
</g>
</g>
<!-- Node5&#45;&gt;Node13 -->
<g id="edge11_Node000005_Node000013" class="edge">
<title>Node5&#45;&gt;Node13</title>
<g id="a_edge11_Node000005_Node000013"><a xlink:title=" ">
<path fill="none" stroke="#63b8ff" d="M1794.26,-173.14C1955.58,-171.66 2467.35,-164.37 2901.68,-129.02"/>
<polygon fill="#63b8ff" stroke="#63b8ff" points="2902.25,-132.49 2911.93,-128.18 2901.68,-125.51 2902.25,-132.49"/>
</a>
</g>
</g>
<!-- Node14 -->
<g id="Node000014" class="node">
<title>Node14</title>
<g id="a_Node000014"><a xlink:href="hpux_8h.html" target="_top" xlink:title=" ">
<polygon fill="white" stroke="#666666" points="3150,-129 3046,-129 3046,-110 3150,-110 3150,-129"/>
<text text-anchor="middle" x="3098" y="-117" font-family="Helvetica,sans-Serif" font-size="10.00">compat/os/hpux.h</text>
</a>
</g>
</g>
<!-- Node5&#45;&gt;Node14 -->
<g id="edge12_Node000005_Node000014" class="edge">
<title>Node5&#45;&gt;Node14</title>
<g id="a_edge12_Node000005_Node000014"><a xlink:title=" ">
<path fill="none" stroke="#63b8ff" d="M1794.28,-173.65C1967.51,-173.75 2546.96,-170.8 3035.72,-129.01"/>
<polygon fill="#63b8ff" stroke="#63b8ff" points="3036.13,-132.48 3045.8,-128.14 3035.53,-125.51 3036.13,-132.48"/>
</a>
</g>
</g>
<!-- Node15 -->
<g id="Node000015" class="node">
<title>Node15</title>
<g id="a_Node000015"><a xlink:href="linux_8h.html" target="_top" xlink:title=" ">
<polygon fill="white" stroke="#666666" points="3272,-129 3168,-129 3168,-110 3272,-110 3272,-129"/>
<text text-anchor="middle" x="3220" y="-117" font-family="Helvetica,sans-Serif" font-size="10.00">compat/os/linux.h</text>
</a>
</g>
</g>
<!-- Node5&#45;&gt;Node15 -->
<g id="edge13_Node000005_Node000015" class="edge">
<title>Node5&#45;&gt;Node15</title>
<g id="a_edge13_Node000005_Node000015"><a xlink:title=" ">
<path fill="none" stroke="#63b8ff" d="M1794.23,-173.87C1977.62,-174.76 2618.69,-174.31 3157.48,-129.02"/>
<polygon fill="#63b8ff" stroke="#63b8ff" points="3158.13,-132.48 3167.8,-128.15 3157.54,-125.5 3158.13,-132.48"/>
</a>
</g>
</g>
<!-- Node16 -->
<g id="Node000016" class="node">
<title>Node16</title>
<g id="a_Node000016"><a xlink:href="macosx_8h.html" target="_top" xlink:title=" ">
<polygon fill="white" stroke="#666666" points="118,-129 0,-129 0,-110 118,-110 118,-129"/>
<text text-anchor="middle" x="59" y="-117" font-family="Helvetica,sans-Serif" font-size="10.00">compat/os/macosx.h</text>
</a>
</g>
</g>
<!-- Node5&#45;&gt;Node16 -->
<g id="edge14_Node000005_Node000016" class="edge">
<title>Node5&#45;&gt;Node16</title>
<g id="a_edge14_Node000005_Node000016"><a xlink:title=" ">
<path fill="none" stroke="#63b8ff" d="M1691.98,-165.86C1688.95,-165.53 1685.94,-165.24 1683,-165 996.95,-108.66 818.6,-179.27 128.5,-129.02"/>
<polygon fill="#63b8ff" stroke="#63b8ff" points="128.53,-125.51 118.3,-128.27 128.02,-132.49 128.53,-125.51"/>
</a>
</g>
</g>
<!-- Node17 -->
<g id="Node000017" class="node">
<title>Node17</title>
<g id="a_Node000017"><a xlink:href="mingw_8h.html" target="_top" xlink:title=" ">
<polygon fill="white" stroke="#666666" points="248,-129 136,-129 136,-110 248,-110 248,-129"/>
<text text-anchor="middle" x="192" y="-117" font-family="Helvetica,sans-Serif" font-size="10.00">compat/os/mingw.h</text>
</a>
</g>
</g>
<!-- Node5&#45;&gt;Node17 -->
<g id="edge15_Node000005_Node000017" class="edge">
<title>Node5&#45;&gt;Node17</title>
<g id="a_edge15_Node000005_Node000017"><a xlink:title=" ">
<path fill="none" stroke="#63b8ff" d="M1691.98,-165.86C1688.95,-165.54 1685.94,-165.24 1683,-165 1054.6,-112.73 890.83,-177.47 258.62,-129.03"/>
<polygon fill="#63b8ff" stroke="#63b8ff" points="258.57,-125.51 248.33,-128.23 258.03,-132.49 258.57,-125.51"/>
</a>
</g>
</g>
<!-- Node18 -->
<g id="Node000018" class="node">
<title>Node18</title>
<g id="a_Node000018"><a xlink:href="mswindows_8h.html" target="_top" xlink:title=" ">
<polygon fill="white" stroke="#666666" points="403.5,-129 266.5,-129 266.5,-110 403.5,-110 403.5,-129"/>
<text text-anchor="middle" x="335" y="-117" font-family="Helvetica,sans-Serif" font-size="10.00">compat/os/mswindows.h</text>
</a>
</g>
</g>
<!-- Node5&#45;&gt;Node18 -->
<g id="edge16_Node000005_Node000018" class="edge">
<title>Node5&#45;&gt;Node18</title>
<g id="a_edge16_Node000005_Node000018"><a xlink:title=" ">
<path fill="none" stroke="#63b8ff" d="M1691.98,-165.87C1688.95,-165.54 1685.94,-165.25 1683,-165 1123.2,-117.57 977.47,-167.44 413.83,-129.07"/>
<polygon fill="#63b8ff" stroke="#63b8ff" points="414.04,-125.57 403.82,-128.38 413.56,-132.56 414.04,-125.57"/>
</a>
</g>
</g>
<!-- Node19 -->
<g id="Node000019" class="node">
<title>Node19</title>
<g id="a_Node000019"><a xlink:href="netbsd_8h.html" target="_top" xlink:title=" ">
<polygon fill="white" stroke="#666666" points="534.5,-129 421.5,-129 421.5,-110 534.5,-110 534.5,-129"/>
<text text-anchor="middle" x="478" y="-117" font-family="Helvetica,sans-Serif" font-size="10.00">compat/os/netbsd.h</text>
</a>
</g>
</g>
<!-- Node5&#45;&gt;Node19 -->
<g id="edge17_Node000005_Node000019" class="edge">
<title>Node5&#45;&gt;Node19</title>
<g id="a_edge17_Node000005_Node000019"><a xlink:title=" ">
<path fill="none" stroke="#63b8ff" d="M1691.98,-165.89C1688.95,-165.55 1685.93,-165.25 1683,-165 1181.29,-121.67 1049.99,-169.28 544.79,-129.06"/>
<polygon fill="#63b8ff" stroke="#63b8ff" points="544.93,-125.56 534.69,-128.25 544.37,-132.54 544.93,-125.56"/>
</a>
</g>
</g>
<!-- Node20 -->
<g id="Node000020" class="node">
<title>Node20</title>
<g id="a_Node000020"><a xlink:href="openbsd_8h.html" target="_top" xlink:title=" ">
<polygon fill="white" stroke="#666666" points="673.5,-129 552.5,-129 552.5,-110 673.5,-110 673.5,-129"/>
<text text-anchor="middle" x="613" y="-117" font-family="Helvetica,sans-Serif" font-size="10.00">compat/os/openbsd.h</text>
</a>
</g>
</g>
<!-- Node5&#45;&gt;Node20 -->
<g id="edge18_Node000005_Node000020" class="edge">
<title>Node5&#45;&gt;Node20</title>
<g id="a_edge18_Node000005_Node000020"><a xlink:title=" ">
<path fill="none" stroke="#63b8ff" d="M1691.98,-165.9C1688.94,-165.56 1685.93,-165.26 1683,-165 1242.92,-126.02 1127.52,-163.67 683.76,-129.06"/>
<polygon fill="#63b8ff" stroke="#63b8ff" points="683.8,-125.56 673.55,-128.26 683.25,-132.53 683.8,-125.56"/>
</a>
</g>
</g>
<!-- Node21 -->
<g id="Node000021" class="node">
<title>Node21</title>
<g id="a_Node000021"><a xlink:href="os2_8h.html" target="_top" xlink:title=" ">
<polygon fill="white" stroke="#666666" points="788.5,-129 691.5,-129 691.5,-110 788.5,-110 788.5,-129"/>
<text text-anchor="middle" x="740" y="-117" font-family="Helvetica,sans-Serif" font-size="10.00">compat/os/os2.h</text>
</a>
</g>
</g>
<!-- Node5&#45;&gt;Node21 -->
<g id="edge19_Node000005_Node000021" class="edge">
<title>Node5&#45;&gt;Node21</title>
<g id="a_edge19_Node000005_Node000021"><a xlink:title=" ">
<path fill="none" stroke="#63b8ff" d="M1691.98,-165.92C1688.94,-165.58 1685.93,-165.27 1683,-165 1294.31,-129.65 1191.7,-164.98 798.91,-128.96"/>
<polygon fill="#63b8ff" stroke="#63b8ff" points="798.97,-125.45 788.69,-128.01 798.32,-132.42 798.97,-125.45"/>
</a>
</g>
</g>
<!-- Node22 -->
<g id="Node000022" class="node">
<title>Node22</title>
<g id="a_Node000022"><a xlink:href="qnx_8h.html" target="_top" xlink:title=" ">
<polygon fill="white" stroke="#666666" points="905,-129 807,-129 807,-110 905,-110 905,-129"/>
<text text-anchor="middle" x="856" y="-117" font-family="Helvetica,sans-Serif" font-size="10.00">compat/os/qnx.h</text>
</a>
</g>
</g>
<!-- Node5&#45;&gt;Node22 -->
<g id="edge20_Node000005_Node000022" class="edge">
<title>Node5&#45;&gt;Node22</title>
<g id="a_edge20_Node000005_Node000022"><a xlink:title=" ">
<path fill="none" stroke="#63b8ff" d="M1691.98,-165.94C1688.94,-165.59 1685.93,-165.28 1683,-165 1345.68,-133.28 1256.31,-161.29 915.17,-129"/>
<polygon fill="#63b8ff" stroke="#63b8ff" points="915.29,-125.5 905.01,-128.03 914.63,-132.47 915.29,-125.5"/>
</a>
</g>
</g>
<!-- Node23 -->
<g id="Node000023" class="node">
<title>Node23</title>
<g id="a_Node000023"><a xlink:href="sgi_8h.html" target="_top" xlink:title=" ">
<polygon fill="white" stroke="#666666" points="1017,-129 923,-129 923,-110 1017,-110 1017,-129"/>
<text text-anchor="middle" x="970" y="-117" font-family="Helvetica,sans-Serif" font-size="10.00">compat/os/sgi.h</text>
</a>
</g>
</g>
<!-- Node5&#45;&gt;Node23 -->
<g id="edge21_Node000005_Node000023" class="edge">
<title>Node5&#45;&gt;Node23</title>
<g id="a_edge21_Node000005_Node000023"><a xlink:title=" ">
<path fill="none" stroke="#63b8ff" d="M1691.97,-165.97C1688.94,-165.61 1685.93,-165.29 1683,-165 1395.23,-136.78 1318.61,-158.48 1027.03,-128.99"/>
<polygon fill="#63b8ff" stroke="#63b8ff" points="1027.32,-125.51 1017.01,-127.97 1026.6,-132.47 1027.32,-125.51"/>
</a>
</g>
</g>
<!-- Node24 -->
<g id="Node000024" class="node">
<title>Node24</title>
<g id="a_Node000024"><a xlink:href="solaris_8h.html" target="_top" xlink:title=" ">
<polygon fill="white" stroke="#666666" points="1147,-129 1035,-129 1035,-110 1147,-110 1147,-129"/>
<text text-anchor="middle" x="1091" y="-117" font-family="Helvetica,sans-Serif" font-size="10.00">compat/os/solaris.h</text>
</a>
</g>
</g>
<!-- Node5&#45;&gt;Node24 -->
<g id="edge22_Node000005_Node000024" class="edge">
<title>Node5&#45;&gt;Node24</title>
<g id="a_edge22_Node000005_Node000024"><a xlink:title=" ">
<path fill="none" stroke="#63b8ff" d="M1691.97,-166.01C1688.94,-165.65 1685.93,-165.31 1683,-165 1452.82,-140.87 1391.35,-151.91 1157.53,-129.09"/>
<polygon fill="#63b8ff" stroke="#63b8ff" points="1157.64,-125.58 1147.35,-128.08 1156.95,-132.55 1157.64,-125.58"/>
</a>
</g>
</g>
<!-- Node25 -->
<g id="Node000025" class="node">
<title>Node25</title>
<g id="a_Node000025"><a xlink:href="sunos_8h.html" target="_top" xlink:title=" ">
<polygon fill="white" stroke="#666666" points="1273,-129 1165,-129 1165,-110 1273,-110 1273,-129"/>
<text text-anchor="middle" x="1219" y="-117" font-family="Helvetica,sans-Serif" font-size="10.00">compat/os/sunos.h</text>
</a>
</g>
</g>
<!-- Node5&#45;&gt;Node25 -->
<g id="edge23_Node000005_Node000025" class="edge">
<title>Node5&#45;&gt;Node25</title>
<g id="a_edge23_Node000005_Node000025"><a xlink:title=" ">
<path fill="none" stroke="#63b8ff" d="M1691.96,-166.09C1688.93,-165.7 1685.93,-165.34 1683,-165 1508.46,-144.82 1461.51,-148.81 1283.25,-129.09"/>
<polygon fill="#63b8ff" stroke="#63b8ff" points="1283.6,-125.61 1273.28,-127.98 1282.83,-132.57 1283.6,-125.61"/>
</a>
</g>
</g>
<!-- Node26 -->
<g id="Node000026" class="node">
<title>Node26</title>
<g id="a_Node000026"><a xlink:href="assert_8h.html" target="_top" xlink:title=" ">
<polygon fill="white" stroke="#666666" points="1386.5,-129 1291.5,-129 1291.5,-110 1386.5,-110 1386.5,-129"/>
<text text-anchor="middle" x="1339" y="-117" font-family="Helvetica,sans-Serif" font-size="10.00">compat/assert.h</text>
</a>
</g>
</g>
<!-- Node5&#45;&gt;Node26 -->
<g id="edge24_Node000005_Node000026" class="edge">
<title>Node5&#45;&gt;Node26</title>
<g id="a_edge24_Node000005_Node000026"><a xlink:title=" ">
<path fill="none" stroke="#63b8ff" d="M1691.94,-166.21C1688.92,-165.8 1685.92,-165.39 1683,-165 1558.81,-148.42 1525.06,-146.57 1396.79,-129.08"/>
<polygon fill="#63b8ff" stroke="#63b8ff" points="1396.96,-125.57 1386.57,-127.68 1396.01,-132.5 1396.96,-125.57"/>
</a>
</g>
</g>
<!-- Node27 -->
<g id="Node000027" class="node">
<title>Node27</title>
<g id="a_Node000027"><a xlink:href="compat__shared_8h.html" target="_top" xlink:title=" ">
<polygon fill="#fff0f0" stroke="red" points="1545,-129 1405,-129 1405,-110 1545,-110 1545,-129"/>
<text text-anchor="middle" x="1475" y="-117" font-family="Helvetica,sans-Serif" font-size="10.00">compat/compat_shared.h</text>
</a>
</g>
</g>
<!-- Node5&#45;&gt;Node27 -->
<g id="edge25_Node000005_Node000027" class="edge">
<title>Node5&#45;&gt;Node27</title>
<g id="a_edge25_Node000005_Node000027"><a xlink:title=" ">
<path fill="none" stroke="#63b8ff" d="M1699.94,-164.98C1653.29,-155.76 1578.8,-141.03 1528.44,-131.07"/>
<polygon fill="#63b8ff" stroke="#63b8ff" points="1528.89,-127.59 1518.4,-129.08 1527.53,-134.46 1528.89,-127.59"/>
</a>
</g>
</g>
<!-- Node37 -->
<g id="Node000037" class="node">
<title>Node37</title>
<g id="a_Node000037"><a xlink:href="stdvarargs_8h.html" target="_top" xlink:title=" ">
<polygon fill="#fff0f0" stroke="red" points="1680.5,-129 1563.5,-129 1563.5,-110 1680.5,-110 1680.5,-129"/>
<text text-anchor="middle" x="1622" y="-117" font-family="Helvetica,sans-Serif" font-size="10.00">compat/stdvarargs.h</text>
</a>
</g>
</g>
<!-- Node5&#45;&gt;Node37 -->
<g id="edge26_Node000005_Node000037" class="edge">
<title>Node5&#45;&gt;Node37</title>
<g id="a_edge26_Node000005_Node000037"><a xlink:title=" ">
<path fill="none" stroke="#63b8ff" d="M1723.56,-164.98C1704.01,-156.42 1673.62,-143.11 1651.18,-133.28"/>
<polygon fill="#63b8ff" stroke="#63b8ff" points="1652.36,-129.98 1641.79,-129.17 1649.55,-136.39 1652.36,-129.98"/>
</a>
</g>
</g>
<!-- Node39 -->
<g id="Node000039" class="node">
<title>Node39</title>
<g id="a_Node000039"><a xlink:href="stdio_8h.html" target="_top" xlink:title=" ">
<polygon fill="#fff0f0" stroke="red" points="1787.5,-129 1698.5,-129 1698.5,-110 1787.5,-110 1787.5,-129"/>
<text text-anchor="middle" x="1743" y="-117" font-family="Helvetica,sans-Serif" font-size="10.00">compat/stdio.h</text>
</a>
</g>
</g>
<!-- Node5&#45;&gt;Node39 -->
<g id="edge27_Node000005_Node000039" class="edge">
<title>Node5&#45;&gt;Node39</title>
<g id="a_edge27_Node000005_Node000039"><a xlink:title=" ">
<path fill="none" stroke="#63b8ff" d="M1743,-164.75C1743,-157.8 1743,-147.85 1743,-139.13"/>
<polygon fill="#63b8ff" stroke="#63b8ff" points="1746.5,-139.09 1743,-129.09 1739.5,-139.09 1746.5,-139.09"/>
</a>
</g>
</g>
<!-- Node41 -->
<g id="Node000041" class="node">
<title>Node41</title>
<g id="a_Node000041"><a xlink:href="statvfs_8h.html" target="_top" xlink:title=" ">
<polygon fill="white" stroke="#666666" points="1904.5,-129 1805.5,-129 1805.5,-110 1904.5,-110 1904.5,-129"/>
<text text-anchor="middle" x="1855" y="-117" font-family="Helvetica,sans-Serif" font-size="10.00">compat/statvfs.h</text>
</a>
</g>
</g>
<!-- Node5&#45;&gt;Node41 -->
<g id="edge28_Node000005_Node000041" class="edge">
<title>Node5&#45;&gt;Node41</title>
<g id="a_edge28_Node000005_Node000041"><a xlink:title=" ">
<path fill="none" stroke="#63b8ff" d="M1760.99,-164.98C1778.93,-156.5 1806.72,-143.35 1827.43,-133.54"/>
<polygon fill="#63b8ff" stroke="#63b8ff" points="1829.14,-136.61 1836.68,-129.17 1826.14,-130.28 1829.14,-136.61"/>
</a>
</g>
</g>
<!-- Node42 -->
<g id="Node000042" class="node">
<title>Node42</title>
<g id="a_Node000042"><a xlink:href="debug_8h.html" target="_top" xlink:title=" ">
<polygon fill="white" stroke="#666666" points="2017.5,-129 1922.5,-129 1922.5,-110 2017.5,-110 2017.5,-129"/>
<text text-anchor="middle" x="1970" y="-117" font-family="Helvetica,sans-Serif" font-size="10.00">compat/debug.h</text>
</a>
</g>
</g>
<!-- Node5&#45;&gt;Node42 -->
<g id="edge29_Node000005_Node000042" class="edge">
<title>Node5&#45;&gt;Node42</title>
<g id="a_edge29_Node000005_Node000042"><a xlink:title=" ">
<path fill="none" stroke="#63b8ff" d="M1779.47,-164.98C1818.57,-155.86 1880.77,-141.33 1923.39,-131.38"/>
<polygon fill="#63b8ff" stroke="#63b8ff" points="1924.3,-134.76 1933.24,-129.08 1922.71,-127.95 1924.3,-134.76"/>
</a>
</g>
</g>
<!-- Node43 -->
<g id="Node000043" class="node">
<title>Node43</title>
<g id="a_Node000043"><a xlink:href="valgrind_8h.html" target="_top" xlink:title=" ">
<polygon fill="#fff0f0" stroke="red" points="2140.5,-129 2035.5,-129 2035.5,-110 2140.5,-110 2140.5,-129"/>
<text text-anchor="middle" x="2088" y="-117" font-family="Helvetica,sans-Serif" font-size="10.00">compat/valgrind.h</text>
</a>
</g>
</g>
<!-- Node5&#45;&gt;Node43 -->
<g id="edge30_Node000005_Node000043" class="edge">
<title>Node5&#45;&gt;Node43</title>
<g id="a_edge30_Node000005_Node000043"><a xlink:title=" ">
<path fill="none" stroke="#63b8ff" d="M1794.28,-165.62C1855.87,-156.16 1959.17,-140.29 2025.41,-130.12"/>
<polygon fill="#63b8ff" stroke="#63b8ff" points="2025.96,-133.57 2035.31,-128.59 2024.89,-126.65 2025.96,-133.57"/>
</a>
</g>
</g>
<!-- Node46 -->
<g id="Node000046" class="node">
<title>Node46</title>
<g id="a_Node000046"><a xlink:href="sbuf_2forward_8h.html" target="_top" xlink:title=" ">
<polygon fill="white" stroke="#666666" points="4075.5,-184 3988.5,-184 3988.5,-165 4075.5,-165 4075.5,-184"/>
<text text-anchor="middle" x="4032" y="-172" font-family="Helvetica,sans-Serif" font-size="10.00">sbuf/forward.h</text>
</a>
</g>
</g>
<!-- Node45&#45;&gt;Node46 -->
<g id="edge32_Node000045_Node000046" class="edge">
<title>Node45&#45;&gt;Node46</title>
<g id="a_edge32_Node000045_Node000046"><a xlink:title=" ">
<path fill="none" stroke="#63b8ff" d="M4032,-219.75C4032,-212.8 4032,-202.85 4032,-194.13"/>
<polygon fill="#63b8ff" stroke="#63b8ff" points="4035.5,-194.09 4032,-184.09 4028.5,-194.09 4035.5,-194.09"/>
</a>
</g>
</g>
<!-- Node49 -->
<g id="Node000049" class="node">
<title>Node49</title>
<g id="a_Node000049"><a xlink:title=" ">
<polygon fill="#e0e0e0" stroke="#999999" points="4146.5,-184 4093.5,-184 4093.5,-165 4146.5,-165 4146.5,-184"/>
<text text-anchor="middle" x="4120" y="-172" font-family="Helvetica,sans-Serif" font-size="10.00">cstddef</text>
</a>
</g>
</g>
<!-- Node45&#45;&gt;Node49 -->
<g id="edge35_Node000045_Node000049" class="edge">
<title>Node45&#45;&gt;Node49</title>
<g id="a_edge35_Node000045_Node000049"><a xlink:title=" ">
<path fill="none" stroke="#63b8ff" d="M4046.14,-219.98C4059.79,-211.77 4080.69,-199.18 4096.78,-189.49"/>
<polygon fill="#63b8ff" stroke="#63b8ff" points="4098.84,-192.33 4105.6,-184.17 4095.23,-186.33 4098.84,-192.33"/>
</a>
</g>
</g>
<!-- Node47 -->
<g id="Node000047" class="node">
<title>Node47</title>
<g id="a_Node000047"><a xlink:title=" ">
<polygon fill="#e0e0e0" stroke="#999999" points="4128.5,-129 4063.5,-129 4063.5,-110 4128.5,-110 4128.5,-129"/>
<text text-anchor="middle" x="4096" y="-117" font-family="Helvetica,sans-Serif" font-size="10.00">functional</text>
</a>
</g>
</g>
<!-- Node46&#45;&gt;Node47 -->
<g id="edge33_Node000046_Node000047" class="edge">
<title>Node46&#45;&gt;Node47</title>
<g id="a_edge33_Node000046_Node000047"><a xlink:title=" ">
<path fill="none" stroke="#63b8ff" d="M4042.28,-164.98C4051.84,-157.07 4066.28,-145.11 4077.78,-135.58"/>
<polygon fill="#63b8ff" stroke="#63b8ff" points="4080.06,-138.24 4085.53,-129.17 4075.6,-132.85 4080.06,-138.24"/>
</a>
</g>
</g>
<!-- Node48 -->
<g id="Node000048" class="node">
<title>Node48</title>
<g id="a_Node000048"><a xlink:title=" ">
<polygon fill="#e0e0e0" stroke="#999999" points="4045,-129 4013,-129 4013,-110 4045,-110 4045,-129"/>
<text text-anchor="middle" x="4029" y="-117" font-family="Helvetica,sans-Serif" font-size="10.00">list</text>
</a>
</g>
</g>
<!-- Node46&#45;&gt;Node48 -->
<g id="edge34_Node000046_Node000048" class="edge">
<title>Node46&#45;&gt;Node48</title>
<g id="a_edge34_Node000046_Node000048"><a xlink:title=" ">
<path fill="none" stroke="#63b8ff" d="M4031.5,-164.75C4031.11,-157.8 4030.55,-147.85 4030.05,-139.13"/>
<polygon fill="#63b8ff" stroke="#63b8ff" points="4033.55,-138.88 4029.49,-129.09 4026.56,-139.27 4033.55,-138.88"/>
</a>
</g>
</g>
<!-- Node50&#45;&gt;Node46 -->
<g id="edge48_Node000050_Node000046" class="edge">
<title>Node50&#45;&gt;Node46</title>
<g id="a_edge48_Node000050_Node000046"><a xlink:title=" ">
<path fill="none" stroke="#63b8ff" d="M3669.81,-224.25C3730.82,-216.93 3859.07,-201.19 3978.31,-184.06"/>
<polygon fill="#63b8ff" stroke="#63b8ff" points="3978.95,-187.5 3988.34,-182.61 3977.95,-180.57 3978.95,-187.5"/>
</a>
</g>
</g>
<!-- Node51 -->
<g id="Node000051" class="node">
<title>Node51</title>
<g id="a_Node000051"><a xlink:href="InstanceId_8h.html" target="_top" xlink:title=" ">
<polygon fill="white" stroke="#666666" points="3688,-129 3586,-129 3586,-110 3688,-110 3688,-129"/>
<text text-anchor="middle" x="3637" y="-117" font-family="Helvetica,sans-Serif" font-size="10.00">base/InstanceId.h</text>
</a>
</g>
</g>
<!-- Node50&#45;&gt;Node51 -->
<g id="edge37_Node000050_Node000051" class="edge">
<title>Node50&#45;&gt;Node51</title>
<g id="a_edge37_Node000050_Node000051"><a xlink:title=" ">
<path fill="none" stroke="#63b8ff" d="M3652.35,-219.88C3665.79,-212.46 3683.02,-200.36 3691,-184 3700.44,-164.66 3680.7,-146.37 3662.49,-134.43"/>
<polygon fill="#63b8ff" stroke="#63b8ff" points="3664.16,-131.35 3653.81,-129.1 3660.5,-137.32 3664.16,-131.35"/>
</a>
</g>
</g>
<!-- Node52 -->
<g id="Node000052" class="node">
<title>Node52</title>
<g id="a_Node000052"><a xlink:title=" ">
<polygon fill="#e0e0e0" stroke="#999999" points="3621,-19 3573,-19 3573,0 3621,0 3621,-19"/>
<text text-anchor="middle" x="3597" y="-7" font-family="Helvetica,sans-Serif" font-size="10.00">iosfwd</text>
</a>
</g>
</g>
<!-- Node50&#45;&gt;Node52 -->
<g id="edge54_Node000050_Node000052" class="edge">
<title>Node50&#45;&gt;Node52</title>
<g id="a_edge54_Node000050_Node000052"><a xlink:title=" ">
<path fill="none" stroke="#63b8ff" d="M3615.65,-219.88C3602.21,-212.46 3584.98,-200.36 3577,-184 3551.68,-132.12 3575.09,-61.44 3588.74,-28.62"/>
<polygon fill="#63b8ff" stroke="#63b8ff" points="3591.99,-29.94 3592.76,-19.37 3585.57,-27.15 3591.99,-29.94"/>
</a>
</g>
</g>
<!-- Node53 -->
<g id="Node000053" class="node">
<title>Node53</title>
<g id="a_Node000053"><a xlink:href="TextException_8h.html" target="_top" xlink:title=" ">
<polygon fill="#fff0f0" stroke="red" points="3858,-184 3738,-184 3738,-165 3858,-165 3858,-184"/>
<text text-anchor="middle" x="3798" y="-172" font-family="Helvetica,sans-Serif" font-size="10.00">base/TextException.h</text>
</a>
</g>
</g>
<!-- Node50&#45;&gt;Node53 -->
<g id="edge39_Node000050_Node000053" class="edge">
<title>Node50&#45;&gt;Node53</title>
<g id="a_edge39_Node000050_Node000053"><a xlink:title=" ">
<path fill="none" stroke="#63b8ff" d="M3660.35,-219.98C3687.76,-211.13 3730.89,-197.19 3761.56,-187.28"/>
<polygon fill="#63b8ff" stroke="#63b8ff" points="3763,-190.49 3771.44,-184.08 3760.85,-183.83 3763,-190.49"/>
</a>
</g>
</g>
<!-- Node57 -->
<g id="Node000057" class="node">
<title>Node57</title>
<g id="a_Node000057"><a xlink:href="debug_2Stream_8h.html" target="_top" xlink:title=" ">
<polygon fill="#fff0f0" stroke="red" points="3970,-184 3876,-184 3876,-165 3970,-165 3970,-184"/>
<text text-anchor="middle" x="3923" y="-172" font-family="Helvetica,sans-Serif" font-size="10.00">debug/Stream.h</text>
</a>
</g>
</g>
<!-- Node50&#45;&gt;Node57 -->
<g id="edge44_Node000050_Node000057" class="edge">
<title>Node50&#45;&gt;Node57</title>
<g id="a_edge44_Node000050_Node000057"><a xlink:title=" ">
<path fill="none" stroke="#63b8ff" d="M3669.73,-221.95C3718.95,-212.92 3808.14,-196.56 3866.46,-185.87"/>
<polygon fill="#63b8ff" stroke="#63b8ff" points="3867.42,-189.25 3876.62,-184.01 3866.15,-182.37 3867.42,-189.25"/>
</a>
</g>
</g>
<!-- Node62 -->
<g id="Node000062" class="node">
<title>Node62</title>
<g id="a_Node000062"><a xlink:href="globals_8h.html" target="_top" xlink:title=" ">
<polygon fill="#fff0f0" stroke="red" points="3389.5,-184 3328.5,-184 3328.5,-165 3389.5,-165 3389.5,-184"/>
<text text-anchor="middle" x="3359" y="-172" font-family="Helvetica,sans-Serif" font-size="10.00">globals.h</text>
</a>
</g>
</g>
<!-- Node50&#45;&gt;Node62 -->
<g id="edge47_Node000050_Node000062" class="edge">
<title>Node50&#45;&gt;Node62</title>
<g id="a_edge47_Node000050_Node000062"><a xlink:title=" ">
<path fill="none" stroke="#63b8ff" d="M3598.12,-221.96C3553.88,-213.84 3476.14,-199.4 3399.4,-184.04"/>
<polygon fill="#63b8ff" stroke="#63b8ff" points="3400.05,-180.6 3389.56,-182.07 3398.68,-187.47 3400.05,-180.6"/>
</a>
</g>
</g>
<!-- Node77 -->
<g id="Node000077" class="node">
<title>Node77</title>
<g id="a_Node000077"><a xlink:href="MemBlob_8h.html" target="_top" xlink:title=" ">
<polygon fill="#fff0f0" stroke="red" points="3682,-184 3586,-184 3586,-165 3682,-165 3682,-184"/>
<text text-anchor="middle" x="3634" y="-172" font-family="Helvetica,sans-Serif" font-size="10.00">sbuf/MemBlob.h</text>
</a>
</g>
</g>
<!-- Node50&#45;&gt;Node77 -->
<g id="edge49_Node000050_Node000077" class="edge">
<title>Node50&#45;&gt;Node77</title>
<g id="a_edge49_Node000050_Node000077"><a xlink:title=" ">
<path fill="none" stroke="#63b8ff" d="M3634,-219.75C3634,-212.8 3634,-202.85 3634,-194.13"/>
<polygon fill="#63b8ff" stroke="#63b8ff" points="3637.5,-194.09 3634,-184.09 3630.5,-194.09 3637.5,-194.09"/>
</a>
</g>
</g>
<!-- Node79 -->
<g id="Node000079" class="node">
<title>Node79</title>
<g id="a_Node000079"><a xlink:href="sbuf_2Stats_8h.html" target="_top" xlink:title=" ">
<polygon fill="white" stroke="#666666" points="3434,-74 3360,-74 3360,-55 3434,-55 3434,-74"/>
<text text-anchor="middle" x="3397" y="-62" font-family="Helvetica,sans-Serif" font-size="10.00">sbuf/Stats.h</text>
</a>
</g>
</g>
<!-- Node50&#45;&gt;Node79 -->
<g id="edge51_Node000050_Node000079" class="edge">
<title>Node50&#45;&gt;Node79</title>
<g id="a_edge51_Node000050_Node000079"><a xlink:title=" ">
<path fill="none" stroke="#63b8ff" d="M3598.45,-229.02C3524.03,-229.27 3355.74,-225.16 3320,-184 3290.3,-149.79 3343.5,-103.29 3375.46,-80.02"/>
<polygon fill="#63b8ff" stroke="#63b8ff" points="3377.69,-82.73 3383.83,-74.1 3373.64,-77.02 3377.69,-82.73"/>
</a>
</g>
</g>
<!-- Node80 -->
<g id="Node000080" class="node">
<title>Node80</title>
<g id="a_Node000080"><a xlink:title=" ">
<polygon fill="#e0e0e0" stroke="#999999" points="3458,-184 3408,-184 3408,-165 3458,-165 3458,-184"/>
<text text-anchor="middle" x="3433" y="-172" font-family="Helvetica,sans-Serif" font-size="10.00">climits</text>
</a>
</g>
</g>
<!-- Node50&#45;&gt;Node80 -->
<g id="edge53_Node000050_Node000080" class="edge">
<title>Node50&#45;&gt;Node80</title>
<g id="a_edge53_Node000050_Node000080"><a xlink:title=" ">
<path fill="none" stroke="#63b8ff" d="M3601.71,-219.98C3565.19,-210.36 3505.92,-194.73 3468.24,-184.79"/>
<polygon fill="#63b8ff" stroke="#63b8ff" points="3468.78,-181.31 3458.22,-182.15 3466.99,-188.08 3468.78,-181.31"/>
</a>
</g>
</g>
<!-- Node81 -->
<g id="Node000081" class="node">
<title>Node81</title>
<g id="a_Node000081"><a xlink:title=" ">
<polygon fill="#e0e0e0" stroke="#999999" points="3529.5,-184 3476.5,-184 3476.5,-165 3529.5,-165 3529.5,-184"/>
<text text-anchor="middle" x="3503" y="-172" font-family="Helvetica,sans-Serif" font-size="10.00">iterator</text>
</a>
</g>
</g>
<!-- Node50&#45;&gt;Node81 -->
<g id="edge55_Node000050_Node000081" class="edge">
<title>Node50&#45;&gt;Node81</title>
<g id="a_edge55_Node000050_Node000081"><a xlink:title=" ">
<path fill="none" stroke="#63b8ff" d="M3612.95,-219.98C3591.59,-211.34 3558.3,-197.87 3533.94,-188.02"/>
<polygon fill="#63b8ff" stroke="#63b8ff" points="3535.01,-184.68 3524.43,-184.17 3532.39,-191.17 3535.01,-184.68"/>
</a>
</g>
</g>
<!-- Node51&#45;&gt;Node52 -->
<g id="edge38_Node000051_Node000052" class="edge">
<title>Node51&#45;&gt;Node52</title>
<g id="a_edge38_Node000051_Node000052"><a xlink:title=" ">
<path fill="none" stroke="#63b8ff" d="M3633.73,-109.66C3627.19,-92.01 3612.4,-52.09 3603.72,-28.64"/>
<polygon fill="#63b8ff" stroke="#63b8ff" points="3606.96,-27.32 3600.21,-19.16 3600.4,-29.75 3606.96,-27.32"/>
</a>
</g>
</g>
<!-- Node54 -->
<g id="Node000054" class="node">
<title>Node54</title>
<g id="a_Node000054"><a xlink:href="Assure_8h.html" target="_top" xlink:title=" ">
<polygon fill="white" stroke="#666666" points="3815.5,-129 3730.5,-129 3730.5,-110 3815.5,-110 3815.5,-129"/>
<text text-anchor="middle" x="3773" y="-117" font-family="Helvetica,sans-Serif" font-size="10.00">base/Assure.h</text>
</a>
</g>
</g>
<!-- Node53&#45;&gt;Node54 -->
<g id="edge40_Node000053_Node000054" class="edge">
<title>Node53&#45;&gt;Node54</title>
<g id="a_edge40_Node000053_Node000054"><a xlink:title=" ">
<path fill="none" stroke="#63b8ff" d="M3793.87,-164.75C3790.49,-157.57 3785.58,-147.18 3781.38,-138.27"/>
<polygon fill="#63b8ff" stroke="#63b8ff" points="3784.48,-136.64 3777.05,-129.09 3778.15,-139.63 3784.48,-136.64"/>
</a>
</g>
</g>
<!-- Node55 -->
<g id="Node000055" class="node">
<title>Node55</title>
<g id="a_Node000055"><a xlink:href="Here_8h.html" target="_top" xlink:title=" ">
<polygon fill="white" stroke="#666666" points="3845.5,-74 3770.5,-74 3770.5,-55 3845.5,-55 3845.5,-74"/>
<text text-anchor="middle" x="3808" y="-62" font-family="Helvetica,sans-Serif" font-size="10.00">base/Here.h</text>
</a>
</g>
</g>
<!-- Node53&#45;&gt;Node55 -->
<g id="edge43_Node000053_Node000055" class="edge">
<title>Node53&#45;&gt;Node55</title>
<g id="a_edge43_Node000053_Node000055"><a xlink:title=" ">
<path fill="none" stroke="#63b8ff" d="M3805.15,-164.97C3811.77,-156.48 3821.15,-142.75 3825,-129 3829.32,-113.56 3823.78,-95.95 3817.9,-83.2"/>
<polygon fill="#63b8ff" stroke="#63b8ff" points="3820.95,-81.47 3813.3,-74.14 3814.71,-84.64 3820.95,-81.47"/>
</a>
</g>
</g>
<!-- Node54&#45;&gt;Node55 -->
<g id="edge41_Node000054_Node000055" class="edge">
<title>Node54&#45;&gt;Node55</title>
<g id="a_edge41_Node000054_Node000055"><a xlink:title=" ">
<path fill="none" stroke="#63b8ff" d="M3778.78,-109.75C3783.62,-102.42 3790.68,-91.73 3796.64,-82.7"/>
<polygon fill="#63b8ff" stroke="#63b8ff" points="3799.74,-84.36 3802.33,-74.09 3793.9,-80.5 3799.74,-84.36"/>
</a>
</g>
</g>
<!-- Node55&#45;&gt;Node52 -->
<g id="edge42_Node000055_Node000052" class="edge">
<title>Node55&#45;&gt;Node52</title>
<g id="a_edge42_Node000055_Node000052"><a xlink:title=" ">
<path fill="none" stroke="#63b8ff" d="M3774.1,-54.98C3734.85,-45.13 3670.58,-28.98 3631.2,-19.09"/>
<polygon fill="#63b8ff" stroke="#63b8ff" points="3631.83,-15.64 3621.28,-16.6 3630.13,-22.43 3631.83,-15.64"/>
</a>
</g>
</g>
<!-- Node57&#45;&gt;Node55 -->
<g id="edge45_Node000057_Node000055" class="edge">
<title>Node57&#45;&gt;Node55</title>
<g id="a_edge45_Node000057_Node000055"><a xlink:title=" ">
<path fill="none" stroke="#63b8ff" d="M3913.59,-164.66C3894.12,-146.38 3849.19,-104.18 3824.68,-81.17"/>
<polygon fill="#63b8ff" stroke="#63b8ff" points="3826.91,-78.45 3817.22,-74.16 3822.11,-83.56 3826.91,-78.45"/>
</a>
</g>
</g>
<!-- Node59 -->
<g id="Node000059" class="node">
<title>Node59</title>
<g id="a_Node000059"><a xlink:title=" ">
<polygon fill="#e0e0e0" stroke="#999999" points="3988,-129 3928,-129 3928,-110 3988,-110 3988,-129"/>
<text text-anchor="middle" x="3958" y="-117" font-family="Helvetica,sans-Serif" font-size="10.00">iostream</text>
</a>
</g>
</g>
<!-- Node57&#45;&gt;Node59 -->
<g id="edge46_Node000057_Node000059" class="edge">
<title>Node57&#45;&gt;Node59</title>
<g id="a_edge46_Node000057_Node000059"><a xlink:title=" ">
<path fill="none" stroke="#63b8ff" d="M3928.78,-164.75C3933.62,-157.42 3940.68,-146.73 3946.64,-137.7"/>
<polygon fill="#63b8ff" stroke="#63b8ff" points="3949.74,-139.36 3952.33,-129.09 3943.9,-135.5 3949.74,-139.36"/>
</a>
</g>
</g>
<!-- Node77&#45;&gt;Node51 -->
<g id="edge50_Node000077_Node000051" class="edge">
<title>Node77&#45;&gt;Node51</title>
<g id="a_edge50_Node000077_Node000051"><a xlink:title=" ">
<path fill="none" stroke="#63b8ff" d="M3634.5,-164.75C3634.89,-157.8 3635.45,-147.85 3635.95,-139.13"/>
<polygon fill="#63b8ff" stroke="#63b8ff" points="3639.44,-139.27 3636.51,-129.09 3632.45,-138.88 3639.44,-139.27"/>
</a>
</g>
</g>
<!-- Node79&#45;&gt;Node52 -->
<g id="edge52_Node000079_Node000052" class="edge">
<title>Node79&#45;&gt;Node52</title>
<g id="a_edge52_Node000079_Node000052"><a xlink:title=" ">
<path fill="none" stroke="#63b8ff" d="M3429.13,-54.98C3465.77,-45.28 3525.42,-29.47 3562.87,-19.54"/>
<polygon fill="#63b8ff" stroke="#63b8ff" points="3564.04,-22.86 3572.81,-16.91 3562.25,-16.09 3564.04,-22.86"/>
</a>
</g>
</g>
<!-- Node82&#45;&gt;Node59 -->
<g id="edge57_Node000082_Node000059" class="edge">
<title>Node82&#45;&gt;Node59</title>
<g id="a_edge57_Node000082_Node000059"><a xlink:title=" ">
<path fill="none" stroke="#63b8ff" d="M4158.35,-219.58C4162.74,-206.15 4168.54,-180.67 4156,-165 4151.04,-158.8 4054.87,-139.26 3998.42,-128.25"/>
<polygon fill="#63b8ff" stroke="#63b8ff" points="3998.85,-124.77 3988.37,-126.3 3997.52,-131.64 3998.85,-124.77"/>
</a>
</g>
</g>
</g>
</svg>

<g id="navigator" transform="translate(0 0)" fill="#404254">
  <rect fill="#f2f5e9" fill-opacity="0.5" stroke="#606060" stroke-width=".5" x="0" y="0" width="60" height="60"/>
  <use id="zoomplus" xlink:href="#zoomPlus" x="17" y="9" onmousedown="handleZoom(evt,'in')"/>
  <use id="zoomminus" xlink:href="#zoomMin" x="42" y="9" onmousedown="handleZoom(evt,'out')"/>
  <use id="reset" xlink:href="#resetDef" x="30" y="36" onmousedown="handleReset()"/>
   <use id="arrowup" xlink:href="#arrowUp" x="0" y="0" onmousedown="handlePan(0,-1)"/>
  <use id="arrowright" xlink:href="#arrowRight" x="0" y="0" onmousedown="handlePan(1,0)"/>
  <use id="arrowdown" xlink:href="#arrowDown" x="0" y="0" onmousedown="handlePan(0,1)"/>
  <use id="arrowleft" xlink:href="#arrowLeft" x="0" y="0" onmousedown="handlePan(-1,0)"/>
</g>
<svg viewBox="0 0 15 15" width="100%" height="30px" preserveAspectRatio="xMaxYMin meet">
 <g id="arrow_out" transform="scale(0.3 0.3)">
  <a xlink:href="stub__mime_8cc__incl_org.svg" target="_base">
   <rect id="button" ry="5" rx="5" y="6" x="6" height="38" width="38"
        fill="#f2f5e9" fill-opacity="0.5" stroke="#606060" stroke-width="1.0"/>
   <path id="arrow"
     d="M 11.500037,31.436501 C 11.940474,20.09759 22.043105,11.32322 32.158766,21.979434 L 37.068811,17.246167 C 37.068811,17.246167 37.088388,32 37.088388,32 L 22.160133,31.978069 C 22.160133,31.978069 26.997745,27.140456 26.997745,27.140456 C 18.528582,18.264221 13.291696,25.230495 11.500037,31.436501 z"
     style="fill:#404040;"/>
  </a>
 </g>
</svg>

<style type='text/css'>
<![CDATA[
[data-mouse-over-selected='false'] { opacity: 0.7; }
[data-mouse-over-selected='true']  { opacity: 1.0; }
]]>
</style>
<script type="application/ecmascript"><![CDATA[
document.addEventListener('DOMContentLoaded', (event) => {
  highlightEdges();
  highlightAdjacentNodes();
});
]]></script>
</svg>
