<?xml version="1.0" encoding="UTF-8" standalone="no"?>
<!DOCTYPE svg PUBLIC "-//W3C//DTD SVG 1.1//EN"
 "http://www.w3.org/Graphics/SVG/1.1/DTD/svg11.dtd">
<!-- Generated by graphviz version 2.43.0 (0)
 -->
<!-- Title: squid/src/tests/stub_ACLFilledChecklist.cc Pages: 1 -->
<svg width="3968pt" height="423pt"
 viewBox="0.00 0.00 3968.00 423.00" xmlns="http://www.w3.org/2000/svg" xmlns:xlink="http://www.w3.org/1999/xlink">
<g id="graph0" class="graph" transform="scale(1 1) rotate(0) translate(4 419)">
<title>squid/src/tests/stub_ACLFilledChecklist.cc</title>
<!-- Node1 -->
<g id="Node000001" class="node">
<title>Node1</title>
<g id="a_Node000001"><a xlink:title=" ">
<polygon fill="#999999" stroke="#666666" points="3261.5,-415 3136.5,-415 3136.5,-385 3261.5,-385 3261.5,-415"/>
<text text-anchor="start" x="3144.5" y="-403" font-family="Helvetica,sans-Serif" font-size="10.00">squid/src/tests/stub</text>
<text text-anchor="middle" x="3199" y="-392" font-family="Helvetica,sans-Serif" font-size="10.00">_ACLFilledChecklist.cc</text>
</a>
</g>
</g>
<!-- Node2 -->
<g id="Node000002" class="node">
<title>Node2</title>
<g id="a_Node000002"><a xlink:href="squid_8h.html" target="_top" xlink:title=" ">
<polygon fill="white" stroke="#666666" points="1765,-349 1713,-349 1713,-330 1765,-330 1765,-349"/>
<text text-anchor="middle" x="1739" y="-337" font-family="Helvetica,sans-Serif" font-size="10.00">squid.h</text>
</a>
</g>
</g>
<!-- Node1&#45;&gt;Node2 -->
<g id="edge1_Node000001_Node000002" class="edge">
<title>Node1&#45;&gt;Node2</title>
<g id="a_edge1_Node000001_Node000002"><a xlink:title=" ">
<path fill="none" stroke="#63b8ff" d="M3136.27,-396.49C2886.91,-386.49 1970.03,-349.76 1775.45,-341.96"/>
<polygon fill="#63b8ff" stroke="#63b8ff" points="1775.33,-338.45 1765.19,-341.55 1775.05,-345.45 1775.33,-338.45"/>
</a>
</g>
</g>
<!-- Node44 -->
<g id="Node000044" class="node">
<title>Node44</title>
<g id="a_Node000044"><a xlink:href="STUB_8h.html" target="_top" xlink:title=" ">
<polygon fill="white" stroke="#666666" points="3204.5,-349 3125.5,-349 3125.5,-330 3204.5,-330 3204.5,-349"/>
<text text-anchor="middle" x="3165" y="-337" font-family="Helvetica,sans-Serif" font-size="10.00">tests/STUB.h</text>
</a>
</g>
</g>
<!-- Node1&#45;&gt;Node44 -->
<g id="edge30_Node000001_Node000044" class="edge">
<title>Node1&#45;&gt;Node44</title>
<g id="a_edge30_Node000001_Node000044"><a xlink:title=" ">
<path fill="none" stroke="#63b8ff" d="M3190.77,-384.84C3186.09,-376.78 3180.18,-366.62 3175.2,-358.06"/>
<polygon fill="#63b8ff" stroke="#63b8ff" points="3178.15,-356.15 3170.09,-349.27 3172.09,-359.67 3178.15,-356.15"/>
</a>
</g>
</g>
<!-- Node46 -->
<g id="Node000046" class="node">
<title>Node46</title>
<g id="a_Node000046"><a xlink:href="ExternalACLEntry_8h.html" target="_top" xlink:title=" ">
<polygon fill="white" stroke="#666666" points="3287.5,-239 3178.5,-239 3178.5,-220 3287.5,-220 3287.5,-239"/>
<text text-anchor="middle" x="3233" y="-227" font-family="Helvetica,sans-Serif" font-size="10.00">ExternalACLEntry.h</text>
</a>
</g>
</g>
<!-- Node1&#45;&gt;Node46 -->
<g id="edge32_Node000001_Node000046" class="edge">
<title>Node1&#45;&gt;Node46</title>
<g id="a_edge32_Node000001_Node000046"><a xlink:title=" ">
<path fill="none" stroke="#63b8ff" d="M3203.45,-384.66C3206.43,-374.72 3210.28,-361.14 3213,-349 3220.83,-314.01 3227.16,-272.59 3230.48,-249.14"/>
<polygon fill="#63b8ff" stroke="#63b8ff" points="3233.95,-249.57 3231.86,-239.18 3227.02,-248.61 3233.95,-249.57"/>
</a>
</g>
</g>
<!-- Node97 -->
<g id="Node000097" class="node">
<title>Node97</title>
<g id="a_Node000097"><a xlink:href="FilledChecklist_8h.html" target="_top" xlink:title=" ">
<polygon fill="white" stroke="#666666" points="3672,-349 3558,-349 3558,-330 3672,-330 3672,-349"/>
<text text-anchor="middle" x="3615" y="-337" font-family="Helvetica,sans-Serif" font-size="10.00">acl/FilledChecklist.h</text>
</a>
</g>
</g>
<!-- Node1&#45;&gt;Node97 -->
<g id="edge43_Node000001_Node000097" class="edge">
<title>Node1&#45;&gt;Node97</title>
<g id="a_edge43_Node000001_Node000097"><a xlink:title=" ">
<path fill="none" stroke="#63b8ff" d="M3261.73,-390.18C3338.63,-379.36 3468.44,-361.11 3547.46,-350"/>
<polygon fill="#63b8ff" stroke="#63b8ff" points="3548.38,-353.4 3557.79,-348.54 3547.4,-346.47 3548.38,-353.4"/>
</a>
</g>
</g>
<!-- Node3 -->
<g id="Node000003" class="node">
<title>Node3</title>
<g id="a_Node000003"><a xlink:href="autoconf_8h.html" target="_top" xlink:title=" ">
<polygon fill="white" stroke="#666666" points="1824,-294 1756,-294 1756,-275 1824,-275 1824,-294"/>
<text text-anchor="middle" x="1790" y="-282" font-family="Helvetica,sans-Serif" font-size="10.00">autoconf.h</text>
</a>
</g>
</g>
<!-- Node2&#45;&gt;Node3 -->
<g id="edge2_Node000002_Node000003" class="edge">
<title>Node2&#45;&gt;Node3</title>
<g id="a_edge2_Node000002_Node000003"><a xlink:title=" ">
<path fill="none" stroke="#63b8ff" d="M1747.42,-329.75C1754.77,-322.11 1765.63,-310.82 1774.54,-301.56"/>
<polygon fill="#63b8ff" stroke="#63b8ff" points="1777.32,-303.72 1781.74,-294.09 1772.28,-298.87 1777.32,-303.72"/>
</a>
</g>
</g>
<!-- Node4 -->
<g id="Node000004" class="node">
<title>Node4</title>
<g id="a_Node000004"><a xlink:href="version_8h.html" target="_top" xlink:title=" ">
<polygon fill="white" stroke="#666666" points="1618,-294 1556,-294 1556,-275 1618,-275 1618,-294"/>
<text text-anchor="middle" x="1587" y="-282" font-family="Helvetica,sans-Serif" font-size="10.00">version.h</text>
</a>
</g>
</g>
<!-- Node2&#45;&gt;Node4 -->
<g id="edge3_Node000002_Node000004" class="edge">
<title>Node2&#45;&gt;Node4</title>
<g id="a_edge3_Node000002_Node000004"><a xlink:title=" ">
<path fill="none" stroke="#63b8ff" d="M1714.58,-329.98C1689.28,-321.16 1649.55,-307.31 1621.14,-297.41"/>
<polygon fill="#63b8ff" stroke="#63b8ff" points="1622.21,-294.07 1611.61,-294.08 1619.9,-300.68 1622.21,-294.07"/>
</a>
</g>
</g>
<!-- Node5 -->
<g id="Node000005" class="node">
<title>Node5</title>
<g id="a_Node000005"><a xlink:href="compat_8h.html" target="_top" xlink:title=" ">
<polygon fill="white" stroke="#666666" points="1738,-294 1636,-294 1636,-275 1738,-275 1738,-294"/>
<text text-anchor="middle" x="1687" y="-282" font-family="Helvetica,sans-Serif" font-size="10.00">compat/compat.h</text>
</a>
</g>
</g>
<!-- Node2&#45;&gt;Node5 -->
<g id="edge4_Node000002_Node000005" class="edge">
<title>Node2&#45;&gt;Node5</title>
<g id="a_edge4_Node000002_Node000005"><a xlink:title=" ">
<path fill="none" stroke="#63b8ff" d="M1730.41,-329.75C1722.84,-322.03 1711.62,-310.6 1702.49,-301.28"/>
<polygon fill="#63b8ff" stroke="#63b8ff" points="1704.93,-298.78 1695.43,-294.09 1699.93,-303.68 1704.93,-298.78"/>
</a>
</g>
</g>
<!-- Node6 -->
<g id="Node000006" class="node">
<title>Node6</title>
<g id="a_Node000006"><a xlink:href="osdetect_8h.html" target="_top" xlink:title=" ">
<polygon fill="white" stroke="#666666" points="2153.5,-239 2046.5,-239 2046.5,-220 2153.5,-220 2153.5,-239"/>
<text text-anchor="middle" x="2100" y="-227" font-family="Helvetica,sans-Serif" font-size="10.00">compat/osdetect.h</text>
</a>
</g>
</g>
<!-- Node5&#45;&gt;Node6 -->
<g id="edge5_Node000005_Node000006" class="edge">
<title>Node5&#45;&gt;Node6</title>
<g id="a_edge5_Node000005_Node000006"><a xlink:title=" ">
<path fill="none" stroke="#63b8ff" d="M1738.05,-276.21C1741.08,-275.79 1744.08,-275.39 1747,-275 1872.6,-258.31 1906.56,-255.8 2036.45,-239.06"/>
<polygon fill="#63b8ff" stroke="#63b8ff" points="2036.92,-242.53 2046.39,-237.77 2036.02,-235.58 2036.92,-242.53"/>
</a>
</g>
</g>
<!-- Node7 -->
<g id="Node000007" class="node">
<title>Node7</title>
<g id="a_Node000007"><a xlink:href="fdsetsize_8h.html" target="_top" xlink:title=" ">
<polygon fill="white" stroke="#666666" points="2282,-239 2172,-239 2172,-220 2282,-220 2282,-239"/>
<text text-anchor="middle" x="2227" y="-227" font-family="Helvetica,sans-Serif" font-size="10.00">compat/fdsetsize.h</text>
</a>
</g>
</g>
<!-- Node5&#45;&gt;Node7 -->
<g id="edge6_Node000005_Node000007" class="edge">
<title>Node5&#45;&gt;Node7</title>
<g id="a_edge6_Node000005_Node000007"><a xlink:title=" ">
<path fill="none" stroke="#63b8ff" d="M1738.04,-276.08C1741.07,-275.7 1744.07,-275.33 1747,-275 1927.71,-254.38 1976.25,-258.84 2161.62,-238.99"/>
<polygon fill="#63b8ff" stroke="#63b8ff" points="2162.14,-242.45 2171.7,-237.9 2161.38,-235.49 2162.14,-242.45"/>
</a>
</g>
</g>
<!-- Node8 -->
<g id="Node000008" class="node">
<title>Node8</title>
<g id="a_Node000008"><a xlink:href="types_8h.html" target="_top" xlink:title=" ">
<polygon fill="#fff0f0" stroke="red" points="2392,-239 2300,-239 2300,-220 2392,-220 2392,-239"/>
<text text-anchor="middle" x="2346" y="-227" font-family="Helvetica,sans-Serif" font-size="10.00">compat/types.h</text>
</a>
</g>
</g>
<!-- Node5&#45;&gt;Node8 -->
<g id="edge7_Node000005_Node000008" class="edge">
<title>Node5&#45;&gt;Node8</title>
<g id="a_edge7_Node000005_Node000008"><a xlink:title=" ">
<path fill="none" stroke="#63b8ff" d="M1738.03,-276.01C1741.06,-275.64 1744.07,-275.3 1747,-275 1984.72,-250.33 2048.42,-265.11 2289.69,-239.04"/>
<polygon fill="#63b8ff" stroke="#63b8ff" points="2290.26,-242.5 2299.83,-237.94 2289.5,-235.54 2290.26,-242.5"/>
</a>
</g>
</g>
<!-- Node10 -->
<g id="Node000010" class="node">
<title>Node10</title>
<g id="a_Node000010"><a xlink:href="aix_8h.html" target="_top" xlink:title=" ">
<polygon fill="white" stroke="#666666" points="2505.5,-239 2410.5,-239 2410.5,-220 2505.5,-220 2505.5,-239"/>
<text text-anchor="middle" x="2458" y="-227" font-family="Helvetica,sans-Serif" font-size="10.00">compat/os/aix.h</text>
</a>
</g>
</g>
<!-- Node5&#45;&gt;Node10 -->
<g id="edge8_Node000005_Node000010" class="edge">
<title>Node5&#45;&gt;Node10</title>
<g id="a_edge8_Node000005_Node000010"><a xlink:title=" ">
<path fill="none" stroke="#63b8ff" d="M1738.03,-275.97C1741.06,-275.61 1744.07,-275.29 1747,-275 2033.46,-246.88 2109.69,-268.01 2400.46,-238.94"/>
<polygon fill="#63b8ff" stroke="#63b8ff" points="2400.86,-242.42 2410.46,-237.93 2400.15,-235.45 2400.86,-242.42"/>
</a>
</g>
</g>
<!-- Node11 -->
<g id="Node000011" class="node">
<title>Node11</title>
<g id="a_Node000011"><a xlink:href="android_8h.html" target="_top" xlink:title=" ">
<polygon fill="white" stroke="#666666" points="2640,-239 2524,-239 2524,-220 2640,-220 2640,-239"/>
<text text-anchor="middle" x="2582" y="-227" font-family="Helvetica,sans-Serif" font-size="10.00">compat/os/android.h</text>
</a>
</g>
</g>
<!-- Node5&#45;&gt;Node11 -->
<g id="edge9_Node000005_Node000011" class="edge">
<title>Node5&#45;&gt;Node11</title>
<g id="a_edge9_Node000005_Node000011"><a xlink:title=" ">
<path fill="none" stroke="#63b8ff" d="M1738.02,-275.94C1741.06,-275.59 1744.07,-275.28 1747,-275 2083.45,-243.34 2172.26,-267.7 2513.62,-238.94"/>
<polygon fill="#63b8ff" stroke="#63b8ff" points="2514.13,-242.41 2523.79,-238.08 2513.53,-235.44 2514.13,-242.41"/>
</a>
</g>
</g>
<!-- Node12 -->
<g id="Node000012" class="node">
<title>Node12</title>
<g id="a_Node000012"><a xlink:href="dragonfly_8h.html" target="_top" xlink:title=" ">
<polygon fill="white" stroke="#666666" points="2782,-239 2658,-239 2658,-220 2782,-220 2782,-239"/>
<text text-anchor="middle" x="2720" y="-227" font-family="Helvetica,sans-Serif" font-size="10.00">compat/os/dragonfly.h</text>
</a>
</g>
</g>
<!-- Node5&#45;&gt;Node12 -->
<g id="edge10_Node000005_Node000012" class="edge">
<title>Node5&#45;&gt;Node12</title>
<g id="a_edge10_Node000005_Node000012"><a xlink:title=" ">
<path fill="none" stroke="#63b8ff" d="M1738.02,-275.92C1741.06,-275.57 1744.07,-275.27 1747,-275 2143.26,-239.12 2247.34,-270.34 2647.58,-239.04"/>
<polygon fill="#63b8ff" stroke="#63b8ff" points="2648,-242.52 2657.69,-238.24 2647.45,-235.54 2648,-242.52"/>
</a>
</g>
</g>
<!-- Node13 -->
<g id="Node000013" class="node">
<title>Node13</title>
<g id="a_Node000013"><a xlink:href="freebsd_8h.html" target="_top" xlink:title=" ">
<polygon fill="white" stroke="#666666" points="2916,-239 2800,-239 2800,-220 2916,-220 2916,-239"/>
<text text-anchor="middle" x="2858" y="-227" font-family="Helvetica,sans-Serif" font-size="10.00">compat/os/freebsd.h</text>
</a>
</g>
</g>
<!-- Node5&#45;&gt;Node13 -->
<g id="edge11_Node000005_Node000013" class="edge">
<title>Node5&#45;&gt;Node13</title>
<g id="a_edge11_Node000005_Node000013"><a xlink:title=" ">
<path fill="none" stroke="#63b8ff" d="M1738.02,-275.9C1741.06,-275.56 1744.07,-275.26 1747,-275 2206.11,-234.68 2326.46,-275.65 2789.62,-239.02"/>
<polygon fill="#63b8ff" stroke="#63b8ff" points="2790.24,-242.48 2799.93,-238.2 2789.68,-235.51 2790.24,-242.48"/>
</a>
</g>
</g>
<!-- Node14 -->
<g id="Node000014" class="node">
<title>Node14</title>
<g id="a_Node000014"><a xlink:href="hpux_8h.html" target="_top" xlink:title=" ">
<polygon fill="white" stroke="#666666" points="3038,-239 2934,-239 2934,-220 3038,-220 3038,-239"/>
<text text-anchor="middle" x="2986" y="-227" font-family="Helvetica,sans-Serif" font-size="10.00">compat/os/hpux.h</text>
</a>
</g>
</g>
<!-- Node5&#45;&gt;Node14 -->
<g id="edge12_Node000005_Node000014" class="edge">
<title>Node5&#45;&gt;Node14</title>
<g id="a_edge12_Node000005_Node000014"><a xlink:title=" ">
<path fill="none" stroke="#63b8ff" d="M1738.02,-275.88C1741.05,-275.55 1744.07,-275.25 1747,-275 2265.57,-230.48 2401.35,-282.54 2923.74,-239"/>
<polygon fill="#63b8ff" stroke="#63b8ff" points="2924.13,-242.48 2933.8,-238.15 2923.54,-235.5 2924.13,-242.48"/>
</a>
</g>
</g>
<!-- Node15 -->
<g id="Node000015" class="node">
<title>Node15</title>
<g id="a_Node000015"><a xlink:href="linux_8h.html" target="_top" xlink:title=" ">
<polygon fill="white" stroke="#666666" points="3160,-239 3056,-239 3056,-220 3160,-220 3160,-239"/>
<text text-anchor="middle" x="3108" y="-227" font-family="Helvetica,sans-Serif" font-size="10.00">compat/os/linux.h</text>
</a>
</g>
</g>
<!-- Node5&#45;&gt;Node15 -->
<g id="edge13_Node000005_Node000015" class="edge">
<title>Node5&#45;&gt;Node15</title>
<g id="a_edge13_Node000005_Node000015"><a xlink:title=" ">
<path fill="none" stroke="#63b8ff" d="M1738.02,-275.87C1741.05,-275.54 1744.06,-275.25 1747,-275 2319.58,-226.67 2469.24,-286.25 3045.56,-239.01"/>
<polygon fill="#63b8ff" stroke="#63b8ff" points="3046.12,-242.47 3055.8,-238.16 3045.54,-235.5 3046.12,-242.47"/>
</a>
</g>
</g>
<!-- Node16 -->
<g id="Node000016" class="node">
<title>Node16</title>
<g id="a_Node000016"><a xlink:href="macosx_8h.html" target="_top" xlink:title=" ">
<polygon fill="white" stroke="#666666" points="118,-239 0,-239 0,-220 118,-220 118,-239"/>
<text text-anchor="middle" x="59" y="-227" font-family="Helvetica,sans-Serif" font-size="10.00">compat/os/macosx.h</text>
</a>
</g>
</g>
<!-- Node5&#45;&gt;Node16 -->
<g id="edge14_Node000005_Node000016" class="edge">
<title>Node5&#45;&gt;Node16</title>
<g id="a_edge14_Node000005_Node000016"><a xlink:title=" ">
<path fill="none" stroke="#63b8ff" d="M1635.98,-275.86C1632.95,-275.53 1629.94,-275.24 1627,-275 965.81,-220.42 793.78,-287.72 128.63,-239.03"/>
<polygon fill="#63b8ff" stroke="#63b8ff" points="128.53,-235.51 118.3,-238.27 128.02,-242.5 128.53,-235.51"/>
</a>
</g>
</g>
<!-- Node17 -->
<g id="Node000017" class="node">
<title>Node17</title>
<g id="a_Node000017"><a xlink:href="mingw_8h.html" target="_top" xlink:title=" ">
<polygon fill="white" stroke="#666666" points="248,-239 136,-239 136,-220 248,-220 248,-239"/>
<text text-anchor="middle" x="192" y="-227" font-family="Helvetica,sans-Serif" font-size="10.00">compat/os/mingw.h</text>
</a>
</g>
</g>
<!-- Node5&#45;&gt;Node17 -->
<g id="edge15_Node000005_Node000017" class="edge">
<title>Node5&#45;&gt;Node17</title>
<g id="a_edge15_Node000005_Node000017"><a xlink:title=" ">
<path fill="none" stroke="#63b8ff" d="M1635.98,-275.87C1632.95,-275.54 1629.94,-275.25 1627,-275 1023.43,-224.48 866,-285.86 258.66,-239.03"/>
<polygon fill="#63b8ff" stroke="#63b8ff" points="258.57,-235.52 248.33,-238.23 258.03,-242.5 258.57,-235.52"/>
</a>
</g>
</g>
<!-- Node18 -->
<g id="Node000018" class="node">
<title>Node18</title>
<g id="a_Node000018"><a xlink:href="mswindows_8h.html" target="_top" xlink:title=" ">
<polygon fill="white" stroke="#666666" points="403.5,-239 266.5,-239 266.5,-220 403.5,-220 403.5,-239"/>
<text text-anchor="middle" x="335" y="-227" font-family="Helvetica,sans-Serif" font-size="10.00">compat/os/mswindows.h</text>
</a>
</g>
</g>
<!-- Node5&#45;&gt;Node18 -->
<g id="edge16_Node000005_Node000018" class="edge">
<title>Node5&#45;&gt;Node18</title>
<g id="a_edge16_Node000005_Node000018"><a xlink:title=" ">
<path fill="none" stroke="#63b8ff" d="M1635.98,-275.88C1632.95,-275.55 1629.94,-275.25 1627,-275 1092.14,-229.33 952.69,-276.07 414.19,-239.09"/>
<polygon fill="#63b8ff" stroke="#63b8ff" points="414.04,-235.57 403.82,-238.37 413.56,-242.56 414.04,-235.57"/>
</a>
</g>
</g>
<!-- Node19 -->
<g id="Node000019" class="node">
<title>Node19</title>
<g id="a_Node000019"><a xlink:href="netbsd_8h.html" target="_top" xlink:title=" ">
<polygon fill="white" stroke="#666666" points="534.5,-239 421.5,-239 421.5,-220 534.5,-220 534.5,-239"/>
<text text-anchor="middle" x="478" y="-227" font-family="Helvetica,sans-Serif" font-size="10.00">compat/os/netbsd.h</text>
</a>
</g>
</g>
<!-- Node5&#45;&gt;Node19 -->
<g id="edge17_Node000005_Node000019" class="edge">
<title>Node5&#45;&gt;Node19</title>
<g id="a_edge17_Node000005_Node000019"><a xlink:title=" ">
<path fill="none" stroke="#63b8ff" d="M1635.98,-275.89C1632.95,-275.56 1629.93,-275.26 1627,-275 1150.06,-233.42 1025.14,-277.68 544.66,-239.05"/>
<polygon fill="#63b8ff" stroke="#63b8ff" points="544.94,-235.56 534.69,-238.24 544.37,-242.54 544.94,-235.56"/>
</a>
</g>
</g>
<!-- Node20 -->
<g id="Node000020" class="node">
<title>Node20</title>
<g id="a_Node000020"><a xlink:href="openbsd_8h.html" target="_top" xlink:title=" ">
<polygon fill="white" stroke="#666666" points="673.5,-239 552.5,-239 552.5,-220 673.5,-220 673.5,-239"/>
<text text-anchor="middle" x="613" y="-227" font-family="Helvetica,sans-Serif" font-size="10.00">compat/os/openbsd.h</text>
</a>
</g>
</g>
<!-- Node5&#45;&gt;Node20 -->
<g id="edge18_Node000005_Node000020" class="edge">
<title>Node5&#45;&gt;Node20</title>
<g id="a_edge18_Node000005_Node000020"><a xlink:title=" ">
<path fill="none" stroke="#63b8ff" d="M1635.98,-275.91C1632.94,-275.57 1629.93,-275.26 1627,-275 1211.75,-237.78 1102.7,-272.16 683.82,-239.07"/>
<polygon fill="#63b8ff" stroke="#63b8ff" points="683.8,-235.56 673.55,-238.25 683.24,-242.54 683.8,-235.56"/>
</a>
</g>
</g>
<!-- Node21 -->
<g id="Node000021" class="node">
<title>Node21</title>
<g id="a_Node000021"><a xlink:href="os2_8h.html" target="_top" xlink:title=" ">
<polygon fill="white" stroke="#666666" points="788.5,-239 691.5,-239 691.5,-220 788.5,-220 788.5,-239"/>
<text text-anchor="middle" x="740" y="-227" font-family="Helvetica,sans-Serif" font-size="10.00">compat/os/os2.h</text>
</a>
</g>
</g>
<!-- Node5&#45;&gt;Node21 -->
<g id="edge19_Node000005_Node000021" class="edge">
<title>Node5&#45;&gt;Node21</title>
<g id="a_edge19_Node000005_Node000021"><a xlink:title=" ">
<path fill="none" stroke="#63b8ff" d="M1635.98,-275.93C1632.94,-275.58 1629.93,-275.27 1627,-275 1263.09,-241.4 1166.88,-273.2 798.82,-238.96"/>
<polygon fill="#63b8ff" stroke="#63b8ff" points="798.97,-235.46 788.69,-238 798.32,-242.42 798.97,-235.46"/>
</a>
</g>
</g>
<!-- Node22 -->
<g id="Node000022" class="node">
<title>Node22</title>
<g id="a_Node000022"><a xlink:href="qnx_8h.html" target="_top" xlink:title=" ">
<polygon fill="white" stroke="#666666" points="905,-239 807,-239 807,-220 905,-220 905,-239"/>
<text text-anchor="middle" x="856" y="-227" font-family="Helvetica,sans-Serif" font-size="10.00">compat/os/qnx.h</text>
</a>
</g>
</g>
<!-- Node5&#45;&gt;Node22 -->
<g id="edge20_Node000005_Node000022" class="edge">
<title>Node5&#45;&gt;Node22</title>
<g id="a_edge20_Node000005_Node000022"><a xlink:title=" ">
<path fill="none" stroke="#63b8ff" d="M1635.97,-275.95C1632.94,-275.6 1629.93,-275.28 1627,-275 1314.55,-245.04 1231.55,-269.5 915.39,-239.03"/>
<polygon fill="#63b8ff" stroke="#63b8ff" points="915.3,-235.5 905.01,-238.02 914.62,-242.47 915.3,-235.5"/>
</a>
</g>
</g>
<!-- Node23 -->
<g id="Node000023" class="node">
<title>Node23</title>
<g id="a_Node000023"><a xlink:href="solaris_8h.html" target="_top" xlink:title=" ">
<polygon fill="white" stroke="#666666" points="1035,-239 923,-239 923,-220 1035,-220 1035,-239"/>
<text text-anchor="middle" x="979" y="-227" font-family="Helvetica,sans-Serif" font-size="10.00">compat/os/solaris.h</text>
</a>
</g>
</g>
<!-- Node5&#45;&gt;Node23 -->
<g id="edge21_Node000005_Node000023" class="edge">
<title>Node5&#45;&gt;Node23</title>
<g id="a_edge21_Node000005_Node000023"><a xlink:title=" ">
<path fill="none" stroke="#63b8ff" d="M1635.97,-275.99C1632.94,-275.63 1629.93,-275.3 1627,-275 1372,-249.11 1304.13,-263.47 1045.42,-239.07"/>
<polygon fill="#63b8ff" stroke="#63b8ff" points="1045.63,-235.57 1035.34,-238.11 1044.97,-242.54 1045.63,-235.57"/>
</a>
</g>
</g>
<!-- Node24 -->
<g id="Node000024" class="node">
<title>Node24</title>
<g id="a_Node000024"><a xlink:href="sunos_8h.html" target="_top" xlink:title=" ">
<polygon fill="white" stroke="#666666" points="1161,-239 1053,-239 1053,-220 1161,-220 1161,-239"/>
<text text-anchor="middle" x="1107" y="-227" font-family="Helvetica,sans-Serif" font-size="10.00">compat/os/sunos.h</text>
</a>
</g>
</g>
<!-- Node5&#45;&gt;Node24 -->
<g id="edge22_Node000005_Node000024" class="edge">
<title>Node5&#45;&gt;Node24</title>
<g id="a_edge22_Node000005_Node000024"><a xlink:title=" ">
<path fill="none" stroke="#63b8ff" d="M1635.96,-276.05C1632.93,-275.68 1629.93,-275.32 1627,-275 1427.75,-253.06 1374.3,-260.38 1171.37,-239.09"/>
<polygon fill="#63b8ff" stroke="#63b8ff" points="1171.59,-235.59 1161.27,-238.02 1170.85,-242.55 1171.59,-235.59"/>
</a>
</g>
</g>
<!-- Node25 -->
<g id="Node000025" class="node">
<title>Node25</title>
<g id="a_Node000025"><a xlink:href="assert_8h.html" target="_top" xlink:title=" ">
<polygon fill="white" stroke="#666666" points="1274.5,-239 1179.5,-239 1179.5,-220 1274.5,-220 1274.5,-239"/>
<text text-anchor="middle" x="1227" y="-227" font-family="Helvetica,sans-Serif" font-size="10.00">compat/assert.h</text>
</a>
</g>
</g>
<!-- Node5&#45;&gt;Node25 -->
<g id="edge23_Node000005_Node000025" class="edge">
<title>Node5&#45;&gt;Node25</title>
<g id="a_edge23_Node000005_Node000025"><a xlink:title=" ">
<path fill="none" stroke="#63b8ff" d="M1635.95,-276.14C1632.93,-275.74 1629.92,-275.36 1627,-275 1478.14,-256.65 1437.78,-258.23 1284.81,-239.04"/>
<polygon fill="#63b8ff" stroke="#63b8ff" points="1284.92,-235.53 1274.56,-237.75 1284.05,-242.48 1284.92,-235.53"/>
</a>
</g>
</g>
<!-- Node26 -->
<g id="Node000026" class="node">
<title>Node26</title>
<g id="a_Node000026"><a xlink:href="compat__shared_8h.html" target="_top" xlink:title=" ">
<polygon fill="#fff0f0" stroke="red" points="1433,-239 1293,-239 1293,-220 1433,-220 1433,-239"/>
<text text-anchor="middle" x="1363" y="-227" font-family="Helvetica,sans-Serif" font-size="10.00">compat/compat_shared.h</text>
</a>
</g>
</g>
<!-- Node5&#45;&gt;Node26 -->
<g id="edge24_Node000005_Node000026" class="edge">
<title>Node5&#45;&gt;Node26</title>
<g id="a_edge24_Node000005_Node000026"><a xlink:title=" ">
<path fill="none" stroke="#63b8ff" d="M1635.66,-275.1C1578.53,-265.76 1486.23,-250.66 1425.08,-240.66"/>
<polygon fill="#63b8ff" stroke="#63b8ff" points="1425.61,-237.19 1415.17,-239.03 1424.48,-244.1 1425.61,-237.19"/>
</a>
</g>
</g>
<!-- Node36 -->
<g id="Node000036" class="node">
<title>Node36</title>
<g id="a_Node000036"><a xlink:href="stdvarargs_8h.html" target="_top" xlink:title=" ">
<polygon fill="#fff0f0" stroke="red" points="1568.5,-239 1451.5,-239 1451.5,-220 1568.5,-220 1568.5,-239"/>
<text text-anchor="middle" x="1510" y="-227" font-family="Helvetica,sans-Serif" font-size="10.00">compat/stdvarargs.h</text>
</a>
</g>
</g>
<!-- Node5&#45;&gt;Node36 -->
<g id="edge25_Node000005_Node000036" class="edge">
<title>Node5&#45;&gt;Node36</title>
<g id="a_edge25_Node000005_Node000036"><a xlink:title=" ">
<path fill="none" stroke="#63b8ff" d="M1658.56,-274.98C1628.72,-266.05 1581.62,-251.94 1548.47,-242.02"/>
<polygon fill="#63b8ff" stroke="#63b8ff" points="1549.24,-238.6 1538.66,-239.08 1547.24,-245.3 1549.24,-238.6"/>
</a>
</g>
</g>
<!-- Node38 -->
<g id="Node000038" class="node">
<title>Node38</title>
<g id="a_Node000038"><a xlink:href="stdio_8h.html" target="_top" xlink:title=" ">
<polygon fill="#fff0f0" stroke="red" points="1675.5,-239 1586.5,-239 1586.5,-220 1675.5,-220 1675.5,-239"/>
<text text-anchor="middle" x="1631" y="-227" font-family="Helvetica,sans-Serif" font-size="10.00">compat/stdio.h</text>
</a>
</g>
</g>
<!-- Node5&#45;&gt;Node38 -->
<g id="edge26_Node000005_Node000038" class="edge">
<title>Node5&#45;&gt;Node38</title>
<g id="a_edge26_Node000005_Node000038"><a xlink:title=" ">
<path fill="none" stroke="#63b8ff" d="M1678,-274.98C1669.81,-267.23 1657.49,-255.58 1647.53,-246.14"/>
<polygon fill="#63b8ff" stroke="#63b8ff" points="1649.83,-243.5 1640.16,-239.17 1645.02,-248.59 1649.83,-243.5"/>
</a>
</g>
</g>
<!-- Node40 -->
<g id="Node000040" class="node">
<title>Node40</title>
<g id="a_Node000040"><a xlink:href="statvfs_8h.html" target="_top" xlink:title=" ">
<polygon fill="white" stroke="#666666" points="1792.5,-239 1693.5,-239 1693.5,-220 1792.5,-220 1792.5,-239"/>
<text text-anchor="middle" x="1743" y="-227" font-family="Helvetica,sans-Serif" font-size="10.00">compat/statvfs.h</text>
</a>
</g>
</g>
<!-- Node5&#45;&gt;Node40 -->
<g id="edge27_Node000005_Node000040" class="edge">
<title>Node5&#45;&gt;Node40</title>
<g id="a_edge27_Node000005_Node000040"><a xlink:title=" ">
<path fill="none" stroke="#63b8ff" d="M1696,-274.98C1704.19,-267.23 1716.51,-255.58 1726.47,-246.14"/>
<polygon fill="#63b8ff" stroke="#63b8ff" points="1728.98,-248.59 1733.84,-239.17 1724.17,-243.5 1728.98,-248.59"/>
</a>
</g>
</g>
<!-- Node41 -->
<g id="Node000041" class="node">
<title>Node41</title>
<g id="a_Node000041"><a xlink:href="debug_8h.html" target="_top" xlink:title=" ">
<polygon fill="white" stroke="#666666" points="1905.5,-239 1810.5,-239 1810.5,-220 1905.5,-220 1905.5,-239"/>
<text text-anchor="middle" x="1858" y="-227" font-family="Helvetica,sans-Serif" font-size="10.00">compat/debug.h</text>
</a>
</g>
</g>
<!-- Node5&#45;&gt;Node41 -->
<g id="edge28_Node000005_Node000041" class="edge">
<title>Node5&#45;&gt;Node41</title>
<g id="a_edge28_Node000005_Node000041"><a xlink:title=" ">
<path fill="none" stroke="#63b8ff" d="M1714.47,-274.98C1743.18,-266.09 1788.42,-252.07 1820.42,-242.15"/>
<polygon fill="#63b8ff" stroke="#63b8ff" points="1821.8,-245.39 1830.31,-239.08 1819.72,-238.7 1821.8,-245.39"/>
</a>
</g>
</g>
<!-- Node42 -->
<g id="Node000042" class="node">
<title>Node42</title>
<g id="a_Node000042"><a xlink:href="valgrind_8h.html" target="_top" xlink:title=" ">
<polygon fill="#fff0f0" stroke="red" points="2028.5,-239 1923.5,-239 1923.5,-220 2028.5,-220 2028.5,-239"/>
<text text-anchor="middle" x="1976" y="-227" font-family="Helvetica,sans-Serif" font-size="10.00">compat/valgrind.h</text>
</a>
</g>
</g>
<!-- Node5&#45;&gt;Node42 -->
<g id="edge29_Node000005_Node000042" class="edge">
<title>Node5&#45;&gt;Node42</title>
<g id="a_edge29_Node000005_Node000042"><a xlink:title=" ">
<path fill="none" stroke="#63b8ff" d="M1733.43,-274.98C1783.95,-265.72 1864.74,-250.9 1919.05,-240.94"/>
<polygon fill="#63b8ff" stroke="#63b8ff" points="1920,-244.33 1929.2,-239.08 1918.74,-237.44 1920,-244.33"/>
</a>
</g>
</g>
<!-- Node45 -->
<g id="Node000045" class="node">
<title>Node45</title>
<g id="a_Node000045"><a xlink:title=" ">
<polygon fill="#e0e0e0" stroke="#999999" points="3195,-294 3135,-294 3135,-275 3195,-275 3195,-294"/>
<text text-anchor="middle" x="3165" y="-282" font-family="Helvetica,sans-Serif" font-size="10.00">iostream</text>
</a>
</g>
</g>
<!-- Node44&#45;&gt;Node45 -->
<g id="edge31_Node000044_Node000045" class="edge">
<title>Node44&#45;&gt;Node45</title>
<g id="a_edge31_Node000044_Node000045"><a xlink:title=" ">
<path fill="none" stroke="#63b8ff" d="M3165,-329.75C3165,-322.8 3165,-312.85 3165,-304.13"/>
<polygon fill="#63b8ff" stroke="#63b8ff" points="3168.5,-304.09 3165,-294.09 3161.5,-304.09 3168.5,-304.09"/>
</a>
</g>
</g>
<!-- Node47 -->
<g id="Node000047" class="node">
<title>Node47</title>
<g id="a_Node000047"><a xlink:href="acl_2Acl_8h.html" target="_top" xlink:title=" ">
<polygon fill="#fff0f0" stroke="red" points="3811,-184 3753,-184 3753,-165 3811,-165 3811,-184"/>
<text text-anchor="middle" x="3782" y="-172" font-family="Helvetica,sans-Serif" font-size="10.00">acl/Acl.h</text>
</a>
</g>
</g>
<!-- Node46&#45;&gt;Node47 -->
<g id="edge33_Node000046_Node000047" class="edge">
<title>Node46&#45;&gt;Node47</title>
<g id="a_edge33_Node000046_Node000047"><a xlink:title=" ">
<path fill="none" stroke="#63b8ff" d="M3287.71,-224.59C3378.66,-217.86 3566.61,-202.96 3725,-184 3730.65,-183.32 3736.6,-182.53 3742.45,-181.7"/>
<polygon fill="#63b8ff" stroke="#63b8ff" points="3743.37,-185.1 3752.75,-180.19 3742.35,-178.18 3743.37,-185.1"/>
</a>
</g>
</g>
<!-- Node48 -->
<g id="Node000048" class="node">
<title>Node48</title>
<g id="a_Node000048"><a xlink:href="acl_2forward_8h.html" target="_top" xlink:title=" ">
<polygon fill="#fff0f0" stroke="red" points="3412,-19 3332,-19 3332,0 3412,0 3412,-19"/>
<text text-anchor="middle" x="3372" y="-7" font-family="Helvetica,sans-Serif" font-size="10.00">acl/forward.h</text>
</a>
</g>
</g>
<!-- Node46&#45;&gt;Node48 -->
<g id="edge37_Node000046_Node000048" class="edge">
<title>Node46&#45;&gt;Node48</title>
<g id="a_edge37_Node000046_Node000048"><a xlink:title=" ">
<path fill="none" stroke="#63b8ff" d="M3262.32,-219.91C3281,-213.02 3304.36,-201.56 3319,-184 3357.59,-137.7 3368.1,-63.67 3370.95,-29.24"/>
<polygon fill="#63b8ff" stroke="#63b8ff" points="3374.45,-29.4 3371.65,-19.18 3367.47,-28.91 3374.45,-29.4"/>
</a>
</g>
</g>
<!-- Node69 -->
<g id="Node000069" class="node">
<title>Node69</title>
<g id="a_Node000069"><a xlink:href="hash_8h.html" target="_top" xlink:title=" ">
<polygon fill="white" stroke="#666666" points="3310.5,-184 3261.5,-184 3261.5,-165 3310.5,-165 3310.5,-184"/>
<text text-anchor="middle" x="3286" y="-172" font-family="Helvetica,sans-Serif" font-size="10.00">hash.h</text>
</a>
</g>
</g>
<!-- Node46&#45;&gt;Node69 -->
<g id="edge38_Node000046_Node000069" class="edge">
<title>Node46&#45;&gt;Node69</title>
<g id="a_edge38_Node000046_Node000069"><a xlink:title=" ">
<path fill="none" stroke="#63b8ff" d="M3241.75,-219.75C3249.47,-212.03 3260.9,-200.6 3270.22,-191.28"/>
<polygon fill="#63b8ff" stroke="#63b8ff" points="3272.81,-193.64 3277.41,-184.09 3267.86,-188.69 3272.81,-193.64"/>
</a>
</g>
</g>
<!-- Node87 -->
<g id="Node000087" class="node">
<title>Node87</title>
<g id="a_Node000087"><a xlink:href="Notes_8h.html" target="_top" xlink:title=" ">
<polygon fill="#fff0f0" stroke="red" points="3311,-74 3257,-74 3257,-55 3311,-55 3311,-74"/>
<text text-anchor="middle" x="3284" y="-62" font-family="Helvetica,sans-Serif" font-size="10.00">Notes.h</text>
</a>
</g>
</g>
<!-- Node46&#45;&gt;Node87 -->
<g id="edge39_Node000046_Node000087" class="edge">
<title>Node46&#45;&gt;Node87</title>
<g id="a_edge39_Node000046_Node000087"><a xlink:title=" ">
<path fill="none" stroke="#63b8ff" d="M3235.53,-219.86C3239.11,-207.62 3245.93,-184.56 3252,-165 3260.8,-136.63 3271.43,-103.86 3277.95,-83.92"/>
<polygon fill="#63b8ff" stroke="#63b8ff" points="3281.33,-84.86 3281.11,-74.27 3274.68,-82.68 3281.33,-84.86"/>
</a>
</g>
</g>
<!-- Node91 -->
<g id="Node000091" class="node">
<title>Node91</title>
<g id="a_Node000091"><a xlink:href="SquidString_8h.html" target="_top" xlink:title=" ">
<polygon fill="#fff0f0" stroke="red" points="3291.5,-19 3210.5,-19 3210.5,0 3291.5,0 3291.5,-19"/>
<text text-anchor="middle" x="3251" y="-7" font-family="Helvetica,sans-Serif" font-size="10.00">SquidString.h</text>
</a>
</g>
</g>
<!-- Node46&#45;&gt;Node91 -->
<g id="edge42_Node000046_Node000091" class="edge">
<title>Node46&#45;&gt;Node91</title>
<g id="a_edge42_Node000046_Node000091"><a xlink:title=" ">
<path fill="none" stroke="#63b8ff" d="M3233.71,-219.95C3236.35,-187.95 3245.7,-74.68 3249.44,-29.4"/>
<polygon fill="#63b8ff" stroke="#63b8ff" points="3252.94,-29.48 3250.28,-19.22 3245.97,-28.9 3252.94,-29.48"/>
</a>
</g>
</g>
<!-- Node47&#45;&gt;Node48 -->
<g id="edge34_Node000047_Node000048" class="edge">
<title>Node47&#45;&gt;Node48</title>
<g id="a_edge34_Node000047_Node000048"><a xlink:title=" ">
<path fill="none" stroke="#63b8ff" d="M3794.85,-164.93C3811.42,-152.78 3836.67,-129.82 3824,-110 3792.61,-60.91 3760.95,-71.26 3705,-55 3607.31,-26.6 3488.16,-16.24 3422.14,-12.53"/>
<polygon fill="#63b8ff" stroke="#63b8ff" points="3422.18,-9.02 3412.01,-11.98 3421.81,-16.01 3422.18,-9.02"/>
</a>
</g>
</g>
<!-- Node52 -->
<g id="Node000052" class="node">
<title>Node52</title>
<g id="a_Node000052"><a xlink:href="defines_8h.html" target="_top" xlink:title=" ">
<polygon fill="white" stroke="#666666" points="3814.5,-129 3753.5,-129 3753.5,-110 3814.5,-110 3814.5,-129"/>
<text text-anchor="middle" x="3784" y="-117" font-family="Helvetica,sans-Serif" font-size="10.00">defines.h</text>
</a>
</g>
</g>
<!-- Node47&#45;&gt;Node52 -->
<g id="edge35_Node000047_Node000052" class="edge">
<title>Node47&#45;&gt;Node52</title>
<g id="a_edge35_Node000047_Node000052"><a xlink:title=" ">
<path fill="none" stroke="#63b8ff" d="M3782.33,-164.75C3782.59,-157.8 3782.97,-147.85 3783.3,-139.13"/>
<polygon fill="#63b8ff" stroke="#63b8ff" points="3786.8,-139.21 3783.68,-129.09 3779.8,-138.95 3786.8,-139.21"/>
</a>
</g>
</g>
<!-- Node53 -->
<g id="Node000053" class="node">
<title>Node53</title>
<g id="a_Node000053"><a xlink:href="dlink_8h.html" target="_top" xlink:title=" ">
<polygon fill="#fff0f0" stroke="red" points="3735,-129 3685,-129 3685,-110 3735,-110 3735,-129"/>
<text text-anchor="middle" x="3710" y="-117" font-family="Helvetica,sans-Serif" font-size="10.00">dlink.h</text>
</a>
</g>
</g>
<!-- Node47&#45;&gt;Node53 -->
<g id="edge36_Node000047_Node000053" class="edge">
<title>Node47&#45;&gt;Node53</title>
<g id="a_edge36_Node000047_Node000053"><a xlink:title=" ">
<path fill="none" stroke="#63b8ff" d="M3770.43,-164.98C3759.58,-157 3743.12,-144.88 3730.12,-135.31"/>
<polygon fill="#63b8ff" stroke="#63b8ff" points="3731.91,-132.28 3721.78,-129.17 3727.76,-137.92 3731.91,-132.28"/>
</a>
</g>
</g>
<!-- Node87&#45;&gt;Node48 -->
<g id="edge40_Node000087_Node000048" class="edge">
<title>Node87&#45;&gt;Node48</title>
<g id="a_edge40_Node000087_Node000048"><a xlink:title=" ">
<path fill="none" stroke="#63b8ff" d="M3298.14,-54.98C3311.79,-46.77 3332.69,-34.18 3348.78,-24.49"/>
<polygon fill="#63b8ff" stroke="#63b8ff" points="3350.84,-27.33 3357.6,-19.17 3347.23,-21.33 3350.84,-27.33"/>
</a>
</g>
</g>
<!-- Node87&#45;&gt;Node91 -->
<g id="edge41_Node000087_Node000091" class="edge">
<title>Node87&#45;&gt;Node91</title>
<g id="a_edge41_Node000087_Node000091"><a xlink:title=" ">
<path fill="none" stroke="#63b8ff" d="M3278.55,-54.75C3273.99,-47.42 3267.33,-36.73 3261.71,-27.7"/>
<polygon fill="#63b8ff" stroke="#63b8ff" points="3264.6,-25.73 3256.35,-19.09 3258.66,-29.43 3264.6,-25.73"/>
</a>
</g>
</g>
<!-- Node97&#45;&gt;Node47 -->
<g id="edge47_Node000097_Node000047" class="edge">
<title>Node97&#45;&gt;Node47</title>
<g id="a_edge47_Node000097_Node000047"><a xlink:title=" ">
<path fill="none" stroke="#63b8ff" d="M3667.72,-329.94C3691.82,-323.61 3719.13,-312.71 3738,-294 3765.69,-266.54 3776.14,-220.1 3779.94,-194.27"/>
<polygon fill="#63b8ff" stroke="#63b8ff" points="3783.42,-194.64 3781.23,-184.28 3776.48,-193.75 3783.42,-194.64"/>
</a>
</g>
</g>
<!-- Node97&#45;&gt;Node48 -->
<g id="edge50_Node000097_Node000048" class="edge">
<title>Node97&#45;&gt;Node48</title>
<g id="a_edge50_Node000097_Node000048"><a xlink:title=" ">
<path fill="none" stroke="#63b8ff" d="M3672.15,-336.22C3749.96,-332.12 3884.11,-321.24 3924,-294 3950.79,-275.71 3960,-262.94 3960,-230.5 3960,-230.5 3960,-230.5 3960,-118.5 3960,-64.07 3565.27,-26.33 3422.64,-14.47"/>
<polygon fill="#63b8ff" stroke="#63b8ff" points="3422.67,-10.96 3412.42,-13.63 3422.09,-17.94 3422.67,-10.96"/>
</a>
</g>
</g>
<!-- Node98 -->
<g id="Node000098" class="node">
<title>Node98</title>
<g id="a_Node000098"><a xlink:href="AccessLogEntry_8h.html" target="_top" xlink:title=" ">
<polygon fill="#fff0f0" stroke="red" points="3628.5,-129 3527.5,-129 3527.5,-110 3628.5,-110 3628.5,-129"/>
<text text-anchor="middle" x="3578" y="-117" font-family="Helvetica,sans-Serif" font-size="10.00">AccessLogEntry.h</text>
</a>
</g>
</g>
<!-- Node97&#45;&gt;Node98 -->
<g id="edge44_Node000097_Node000098" class="edge">
<title>Node97&#45;&gt;Node98</title>
<g id="a_edge44_Node000097_Node000098"><a xlink:title=" ">
<path fill="none" stroke="#63b8ff" d="M3609.41,-329.69C3604.19,-320.99 3596.67,-307.11 3593,-294 3577.7,-239.28 3576.78,-171.41 3577.37,-139.17"/>
<polygon fill="#63b8ff" stroke="#63b8ff" points="3580.88,-139.09 3577.63,-129 3573.88,-138.91 3580.88,-139.09"/>
</a>
</g>
</g>
<!-- Node113 -->
<g id="Node000113" class="node">
<title>Node113</title>
<g id="a_Node000113"><a xlink:href="ip_2Address_8h.html" target="_top" xlink:title=" ">
<polygon fill="#fff0f0" stroke="red" points="3695.5,-74 3618.5,-74 3618.5,-55 3695.5,-55 3695.5,-74"/>
<text text-anchor="middle" x="3657" y="-62" font-family="Helvetica,sans-Serif" font-size="10.00">ip/Address.h</text>
</a>
</g>
</g>
<!-- Node97&#45;&gt;Node113 -->
<g id="edge62_Node000097_Node000113" class="edge">
<title>Node97&#45;&gt;Node113</title>
<g id="a_edge62_Node000097_Node000113"><a xlink:title=" ">
<path fill="none" stroke="#63b8ff" d="M3672.28,-336.73C3746.25,-333.28 3869.48,-323.2 3903,-294 3925.21,-274.65 3922,-259.96 3922,-230.5 3922,-230.5 3922,-230.5 3922,-173.5 3922,-127.26 3781.89,-91.16 3705.43,-74.91"/>
<polygon fill="#63b8ff" stroke="#63b8ff" points="3706.04,-71.46 3695.53,-72.84 3704.61,-78.31 3706.04,-71.46"/>
</a>
</g>
</g>
<!-- Node168 -->
<g id="Node000168" class="node">
<title>Node168</title>
<g id="a_Node000168"><a xlink:href="Checklist_8h.html" target="_top" xlink:title=" ">
<polygon fill="#fff0f0" stroke="red" points="3894,-294 3806,-294 3806,-275 3894,-275 3894,-294"/>
<text text-anchor="middle" x="3850" y="-282" font-family="Helvetica,sans-Serif" font-size="10.00">acl/Checklist.h</text>
</a>
</g>
</g>
<!-- Node97&#45;&gt;Node168 -->
<g id="edge48_Node000097_Node000168" class="edge">
<title>Node97&#45;&gt;Node168</title>
<g id="a_edge48_Node000097_Node000168"><a xlink:title=" ">
<path fill="none" stroke="#63b8ff" d="M3652.76,-329.98C3693.32,-320.84 3757.89,-306.27 3802.03,-296.32"/>
<polygon fill="#63b8ff" stroke="#63b8ff" points="3802.96,-299.7 3811.95,-294.08 3801.42,-292.87 3802.96,-299.7"/>
</a>
</g>
</g>
<!-- Node172 -->
<g id="Node000172" class="node">
<title>Node172</title>
<g id="a_Node000172"><a xlink:href="CbcPointer_8h.html" target="_top" xlink:title=" ">
<polygon fill="#fff0f0" stroke="red" points="3471,-184 3367,-184 3367,-165 3471,-165 3471,-184"/>
<text text-anchor="middle" x="3419" y="-172" font-family="Helvetica,sans-Serif" font-size="10.00">base/CbcPointer.h</text>
</a>
</g>
</g>
<!-- Node97&#45;&gt;Node172 -->
<g id="edge51_Node000097_Node000172" class="edge">
<title>Node97&#45;&gt;Node172</title>
<g id="a_edge51_Node000097_Node000172"><a xlink:title=" ">
<path fill="none" stroke="#63b8ff" d="M3557.85,-338.42C3480.41,-336.96 3348.33,-329.21 3318,-294 3285.25,-255.98 3353.09,-210.8 3392.87,-188.82"/>
<polygon fill="#63b8ff" stroke="#63b8ff" points="3394.68,-191.82 3401.83,-184 3391.37,-185.66 3394.68,-191.82"/>
</a>
</g>
</g>
<!-- Node136 -->
<g id="Node000136" class="node">
<title>Node136</title>
<g id="a_Node000136"><a xlink:href="error_2forward_8h.html" target="_top" xlink:title=" ">
<polygon fill="#fff0f0" stroke="red" points="3416.5,-294 3327.5,-294 3327.5,-275 3416.5,-275 3416.5,-294"/>
<text text-anchor="middle" x="3372" y="-282" font-family="Helvetica,sans-Serif" font-size="10.00">error/forward.h</text>
</a>
</g>
</g>
<!-- Node97&#45;&gt;Node136 -->
<g id="edge52_Node000097_Node000136" class="edge">
<title>Node97&#45;&gt;Node136</title>
<g id="a_edge52_Node000097_Node000136"><a xlink:title=" ">
<path fill="none" stroke="#63b8ff" d="M3575.96,-329.98C3533.92,-320.82 3466.96,-306.21 3421.32,-296.26"/>
<polygon fill="#63b8ff" stroke="#63b8ff" points="3421.86,-292.79 3411.35,-294.08 3420.37,-299.63 3421.86,-292.79"/>
</a>
</g>
</g>
<!-- Node173 -->
<g id="Node000173" class="node">
<title>Node173</title>
<g id="a_Node000173"><a xlink:href="HttpReply_8h.html" target="_top" xlink:title=" ">
<polygon fill="#fff0f0" stroke="red" points="3507.5,-294 3434.5,-294 3434.5,-275 3507.5,-275 3507.5,-294"/>
<text text-anchor="middle" x="3471" y="-282" font-family="Helvetica,sans-Serif" font-size="10.00">HttpReply.h</text>
</a>
</g>
</g>
<!-- Node97&#45;&gt;Node173 -->
<g id="edge53_Node000097_Node000173" class="edge">
<title>Node97&#45;&gt;Node173</title>
<g id="a_edge53_Node000097_Node000173"><a xlink:title=" ">
<path fill="none" stroke="#63b8ff" d="M3591.86,-329.98C3568.18,-321.27 3531.13,-307.63 3504.29,-297.75"/>
<polygon fill="#63b8ff" stroke="#63b8ff" points="3505.15,-294.34 3494.56,-294.17 3502.73,-300.91 3505.15,-294.34"/>
</a>
</g>
</g>
<!-- Node176 -->
<g id="Node000176" class="node">
<title>Node176</title>
<g id="a_Node000176"><a xlink:href="HttpRequest_8h.html" target="_top" xlink:title=" ">
<polygon fill="#fff0f0" stroke="red" points="3542,-239 3456,-239 3456,-220 3542,-220 3542,-239"/>
<text text-anchor="middle" x="3499" y="-227" font-family="Helvetica,sans-Serif" font-size="10.00">HttpRequest.h</text>
</a>
</g>
</g>
<!-- Node97&#45;&gt;Node176 -->
<g id="edge61_Node000097_Node000176" class="edge">
<title>Node97&#45;&gt;Node176</title>
<g id="a_edge61_Node000097_Node000176"><a xlink:title=" ">
<path fill="none" stroke="#63b8ff" d="M3603.27,-329.7C3591.89,-321 3574.29,-307.13 3560,-294 3543.37,-278.73 3525.63,-259.95 3513.6,-246.79"/>
<polygon fill="#63b8ff" stroke="#63b8ff" points="3515.89,-244.11 3506.58,-239.05 3510.7,-248.81 3515.89,-244.11"/>
</a>
</g>
</g>
<!-- Node191 -->
<g id="Node000191" class="node">
<title>Node191</title>
<g id="a_Node000191"><a xlink:href="UserRequest_8h.html" target="_top" xlink:title=" ">
<polygon fill="#fff0f0" stroke="red" points="3715.5,-184 3602.5,-184 3602.5,-165 3715.5,-165 3715.5,-184"/>
<text text-anchor="middle" x="3659" y="-172" font-family="Helvetica,sans-Serif" font-size="10.00">auth/UserRequest.h</text>
</a>
</g>
</g>
<!-- Node97&#45;&gt;Node191 -->
<g id="edge63_Node000097_Node000191" class="edge">
<title>Node97&#45;&gt;Node191</title>
<g id="a_edge63_Node000097_Node000191"><a xlink:title=" ">
<path fill="none" stroke="#63b8ff" d="M3665.59,-329.94C3686.4,-323.65 3708.51,-312.78 3721,-294 3744.31,-258.93 3703.47,-214.07 3677.68,-190.9"/>
<polygon fill="#63b8ff" stroke="#63b8ff" points="3679.78,-188.09 3669.93,-184.18 3675.19,-193.37 3679.78,-188.09"/>
</a>
</g>
</g>
<!-- Node203 -->
<g id="Node000203" class="node">
<title>Node203</title>
<g id="a_Node000203"><a xlink:href="CertError_8h.html" target="_top" xlink:title=" ">
<polygon fill="#fff0f0" stroke="red" points="3712,-294 3602,-294 3602,-275 3712,-275 3712,-294"/>
<text text-anchor="middle" x="3657" y="-282" font-family="Helvetica,sans-Serif" font-size="10.00">security/CertError.h</text>
</a>
</g>
</g>
<!-- Node97&#45;&gt;Node203 -->
<g id="edge64_Node000097_Node000203" class="edge">
<title>Node97&#45;&gt;Node203</title>
<g id="a_edge64_Node000097_Node000203"><a xlink:title=" ">
<path fill="none" stroke="#63b8ff" d="M3621.94,-329.75C3627.87,-322.26 3636.57,-311.28 3643.82,-302.13"/>
<polygon fill="#63b8ff" stroke="#63b8ff" points="3646.73,-304.1 3650.19,-294.09 3641.24,-299.75 3646.73,-304.1"/>
</a>
</g>
</g>
<!-- Node98&#45;&gt;Node87 -->
<g id="edge46_Node000098_Node000087" class="edge">
<title>Node98&#45;&gt;Node87</title>
<g id="a_edge46_Node000098_Node000087"><a xlink:title=" ">
<path fill="none" stroke="#63b8ff" d="M3530.76,-109.98C3472.48,-99.48 3374.58,-81.83 3321.3,-72.22"/>
<polygon fill="#63b8ff" stroke="#63b8ff" points="3321.72,-68.74 3311.26,-70.41 3320.48,-75.63 3321.72,-68.74"/>
</a>
</g>
</g>
<!-- Node98&#45;&gt;Node113 -->
<g id="edge45_Node000098_Node000113" class="edge">
<title>Node98&#45;&gt;Node113</title>
<g id="a_edge45_Node000098_Node000113"><a xlink:title=" ">
<path fill="none" stroke="#63b8ff" d="M3590.69,-109.98C3602.83,-101.84 3621.36,-89.41 3635.75,-79.76"/>
<polygon fill="#63b8ff" stroke="#63b8ff" points="3637.72,-82.65 3644.08,-74.17 3633.82,-76.84 3637.72,-82.65"/>
</a>
</g>
</g>
<!-- Node168&#45;&gt;Node47 -->
<g id="edge49_Node000168_Node000047" class="edge">
<title>Node168&#45;&gt;Node47</title>
<g id="a_edge49_Node000168_Node000047"><a xlink:title=" ">
<path fill="none" stroke="#63b8ff" d="M3844.44,-274.66C3833.17,-256.77 3807.5,-216 3792.83,-192.69"/>
<polygon fill="#63b8ff" stroke="#63b8ff" points="3795.74,-190.76 3787.45,-184.16 3789.82,-194.49 3795.74,-190.76"/>
</a>
</g>
</g>
<!-- Node173&#45;&gt;Node176 -->
<g id="edge54_Node000173_Node000176" class="edge">
<title>Node173&#45;&gt;Node176</title>
<g id="a_edge54_Node000173_Node000176"><a xlink:title=" ">
<path fill="none" stroke="#63b8ff" d="M3475.62,-274.75C3479.46,-267.49 3485.02,-256.95 3489.76,-247.98"/>
<polygon fill="#63b8ff" stroke="#63b8ff" points="3492.89,-249.57 3494.46,-239.09 3486.7,-246.3 3492.89,-249.57"/>
</a>
</g>
</g>
<!-- Node176&#45;&gt;Node87 -->
<g id="edge56_Node000176_Node000087" class="edge">
<title>Node176&#45;&gt;Node87</title>
<g id="a_edge56_Node000176_Node000087"><a xlink:title=" ">
<path fill="none" stroke="#63b8ff" d="M3498.52,-219.68C3497.37,-206.39 3493.43,-181.07 3480,-165 3438.24,-115 3365.02,-87.44 3320.87,-74.63"/>
<polygon fill="#63b8ff" stroke="#63b8ff" points="3321.68,-71.22 3311.11,-71.9 3319.8,-77.96 3321.68,-71.22"/>
</a>
</g>
</g>
<!-- Node176&#45;&gt;Node172 -->
<g id="edge55_Node000176_Node000172" class="edge">
<title>Node176&#45;&gt;Node172</title>
<g id="a_edge55_Node000176_Node000172"><a xlink:title=" ">
<path fill="none" stroke="#63b8ff" d="M3486.15,-219.98C3473.86,-211.84 3455.09,-199.41 3440.52,-189.76"/>
<polygon fill="#63b8ff" stroke="#63b8ff" points="3442.36,-186.78 3432.09,-184.17 3438.49,-192.61 3442.36,-186.78"/>
</a>
</g>
</g>
<!-- Node176&#45;&gt;Node191 -->
<g id="edge57_Node000176_Node000191" class="edge">
<title>Node176&#45;&gt;Node191</title>
<g id="a_edge57_Node000176_Node000191"><a xlink:title=" ">
<path fill="none" stroke="#63b8ff" d="M3524.71,-219.98C3551.45,-211.13 3593.53,-197.19 3623.45,-187.28"/>
<polygon fill="#63b8ff" stroke="#63b8ff" points="3624.7,-190.55 3633.09,-184.08 3622.5,-183.9 3624.7,-190.55"/>
</a>
</g>
</g>
<!-- Node191&#45;&gt;Node53 -->
<g id="edge59_Node000191_Node000053" class="edge">
<title>Node191&#45;&gt;Node53</title>
<g id="a_edge59_Node000191_Node000053"><a xlink:title=" ">
<path fill="none" stroke="#63b8ff" d="M3667.42,-164.75C3674.77,-157.11 3685.63,-145.82 3694.54,-136.56"/>
<polygon fill="#63b8ff" stroke="#63b8ff" points="3697.32,-138.72 3701.74,-129.09 3692.28,-133.87 3697.32,-138.72"/>
</a>
</g>
</g>
<!-- Node191&#45;&gt;Node98 -->
<g id="edge58_Node000191_Node000098" class="edge">
<title>Node191&#45;&gt;Node98</title>
<g id="a_edge58_Node000191_Node000098"><a xlink:title=" ">
<path fill="none" stroke="#63b8ff" d="M3645.99,-164.98C3633.54,-156.84 3614.54,-144.41 3599.79,-134.76"/>
<polygon fill="#63b8ff" stroke="#63b8ff" points="3601.54,-131.72 3591.25,-129.17 3597.7,-137.57 3601.54,-131.72"/>
</a>
</g>
</g>
<!-- Node191&#45;&gt;Node113 -->
<g id="edge60_Node000191_Node000113" class="edge">
<title>Node191&#45;&gt;Node113</title>
<g id="a_edge60_Node000191_Node000113"><a xlink:title=" ">
<path fill="none" stroke="#63b8ff" d="M3658.84,-164.66C3658.51,-147.17 3657.78,-107.8 3657.35,-84.27"/>
<polygon fill="#63b8ff" stroke="#63b8ff" points="3660.84,-84.09 3657.16,-74.16 3653.85,-84.22 3660.84,-84.09"/>
</a>
</g>
</g>
</g>
</svg>
