<?xml version="1.0" encoding="UTF-8" standalone="no"?>
<!DOCTYPE svg PUBLIC "-//W3C//DTD SVG 1.1//EN"
 "http://www.w3.org/Graphics/SVG/1.1/DTD/svg11.dtd">
<!-- Generated by graphviz version 2.43.0 (0)
 -->
<!-- Title: squid/src/store/SwapMetaView.cc Pages: 1 -->
<!--zoomable 368 -->

<svg id="main" version="1.1" xmlns="http://www.w3.org/2000/svg" xmlns:xlink="http://www.w3.org/1999/xlink" xml:space="preserve" onload="init(evt)">
<style type="text/css"><![CDATA[
.node, .edge {opacity: 0.7;}
.node.selected, .edge.selected {opacity: 1;}
.edge:hover path { stroke: red; }
.edge:hover polygon { stroke: red; fill: red; }
]]></style>

<defs>
  <circle id="rim" cx="0" cy="0" r="7"/>
  <circle id="rim2" cx="0" cy="0" r="3.5"/>
  <g id="zoomPlus">
    <use xlink:href="#rim" fill="#404040"><set attributeName="fill" to="#808080" begin="zoomplus.mouseover" end="zoomplus.mouseout"/></use>
    <path d="M-4,0h8M0,-4v8" fill="none" stroke="white" stroke-width="1.5" pointer-events="none"/>
  </g>
  <g id="zoomMin">
    <use xlink:href="#rim" fill="#404040"><set attributeName="fill" to="#808080" begin="zoomminus.mouseover" end="zoomminus.mouseout"/></use>
    <path d="M-4,0h8" fill="none" stroke="white" stroke-width="1.5" pointer-events="none"/>
  </g>
  <g id="arrowUp" transform="translate(30 24)">
    <use xlink:href="#rim"/>
    <path pointer-events="none" fill="none" stroke="white" stroke-width="1.5" d="M0,-3.0v7 M-2.5,-0.5L0,-3.0L2.5,-0.5"/>
  </g>
  <g id="arrowRight" transform="rotate(90) translate(36 -43)">
    <use xlink:href="#rim"/>
    <path pointer-events="none" fill="none" stroke="white" stroke-width="1.5" d="M0,-3.0v7 M-2.5,-0.5L0,-3.0L2.5,-0.5"/>
  </g>
  <g id="arrowDown" transform="rotate(180) translate(-30 -48)">
    <use xlink:href="#rim"/>
    <path pointer-events="none" fill="none" stroke="white" stroke-width="1.5" d="M0,-3.0v7 M-2.5,-0.5L0,-3.0L2.5,-0.5"/>
  </g>
  <g id="arrowLeft" transform="rotate(270) translate(-36 17)">
    <use xlink:href="#rim"/>
    <path pointer-events="none" fill="none" stroke="white" stroke-width="1.5" d="M0,-3.0v7 M-2.5,-0.5L0,-3.0L2.5,-0.5"/>
  </g>
  <g id="resetDef">
    <use xlink:href="#rim2" fill="#404040"><set attributeName="fill" to="#808080" begin="reset.mouseover" end="reset.mouseout"/></use>
  </g>
</defs>
<script type="application/ecmascript">
var viewWidth = 4074;
var viewHeight = 368;
var sectionId = 'dynsection-0';
</script>
<script type="application/ecmascript" xlink:href="svg.min.js"/>
<svg id="graph" class="graph">
<g id="viewport">
<title>squid/src/store/SwapMetaView.cc</title>
<!-- Node1 -->
<g id="Node000001" class="node">
<title>Node1</title>
<g id="a_Node000001"><a xlink:title=" ">
<polygon fill="#999999" stroke="#666666" points="3490.5,-360 3348.5,-360 3348.5,-330 3490.5,-330 3490.5,-360"/>
<text text-anchor="start" x="3356.5" y="-348" font-family="Helvetica,sans-Serif" font-size="10.00">squid/src/store/SwapMeta</text>
<text text-anchor="middle" x="3419.5" y="-337" font-family="Helvetica,sans-Serif" font-size="10.00">View.cc</text>
</a>
</g>
</g>
<!-- Node2 -->
<g id="Node000002" class="node">
<title>Node2</title>
<g id="a_Node000002"><a xlink:href="squid_8h.html" target="_top" xlink:title=" ">
<polygon fill="white" stroke="#666666" points="1728.5,-294 1676.5,-294 1676.5,-275 1728.5,-275 1728.5,-294"/>
<text text-anchor="middle" x="1702.5" y="-282" font-family="Helvetica,sans-Serif" font-size="10.00">squid.h</text>
</a>
</g>
</g>
<!-- Node1&#45;&gt;Node2 -->
<g id="edge1_Node000001_Node000002" class="edge">
<title>Node1&#45;&gt;Node2</title>
<g id="a_edge1_Node000001_Node000002"><a xlink:title=" ">
<path fill="none" stroke="#63b8ff" d="M3348.45,-341.58C3056.41,-331.63 1953.75,-294.06 1738.91,-286.74"/>
<polygon fill="#63b8ff" stroke="#63b8ff" points="1738.91,-283.24 1728.8,-286.4 1738.67,-290.23 1738.91,-283.24"/>
</a>
</g>
</g>
<!-- Node44 -->
<g id="Node000044" class="node">
<title>Node44</title>
<g id="a_Node000044"><a xlink:href="Raw_8h.html" target="_top" xlink:title=" ">
<polygon fill="white" stroke="#666666" points="3394.5,-74 3322.5,-74 3322.5,-55 3394.5,-55 3394.5,-74"/>
<text text-anchor="middle" x="3358.5" y="-62" font-family="Helvetica,sans-Serif" font-size="10.00">base/Raw.h</text>
</a>
</g>
</g>
<!-- Node1&#45;&gt;Node44 -->
<g id="edge30_Node000001_Node000044" class="edge">
<title>Node1&#45;&gt;Node44</title>
<g id="a_edge30_Node000001_Node000044"><a xlink:title=" ">
<path fill="none" stroke="#63b8ff" d="M3348.32,-338.67C3280.12,-329.22 3187.5,-303.03 3187.5,-230.5 3187.5,-230.5 3187.5,-230.5 3187.5,-173.5 3187.5,-144.04 3185.61,-130.77 3206.5,-110 3234.42,-82.24 3278.66,-71.61 3312.23,-67.64"/>
<polygon fill="#63b8ff" stroke="#63b8ff" points="3312.69,-71.11 3322.28,-66.61 3311.97,-64.15 3312.69,-71.11"/>
</a>
</g>
</g>
<!-- Node46 -->
<g id="Node000046" class="node">
<title>Node46</title>
<g id="a_Node000046"><a xlink:href="TextException_8h.html" target="_top" xlink:title=" ">
<polygon fill="white" stroke="#666666" points="3884.5,-184 3764.5,-184 3764.5,-165 3884.5,-165 3884.5,-184"/>
<text text-anchor="middle" x="3824.5" y="-172" font-family="Helvetica,sans-Serif" font-size="10.00">base/TextException.h</text>
</a>
</g>
</g>
<!-- Node1&#45;&gt;Node46 -->
<g id="edge32_Node000001_Node000046" class="edge">
<title>Node1&#45;&gt;Node46</title>
<g id="a_edge32_Node000001_Node000046"><a xlink:title=" ">
<path fill="none" stroke="#63b8ff" d="M3453.33,-329.92C3530.86,-297.67 3720.37,-218.82 3794.28,-188.07"/>
<polygon fill="#63b8ff" stroke="#63b8ff" points="3796.03,-191.14 3803.92,-184.06 3793.34,-184.67 3796.03,-191.14"/>
</a>
</g>
</g>
<!-- Node50 -->
<g id="Node000050" class="node">
<title>Node50</title>
<g id="a_Node000050"><a xlink:href="debug_2Stream_8h.html" target="_top" xlink:title=" ">
<polygon fill="white" stroke="#666666" points="3563.5,-184 3469.5,-184 3469.5,-165 3563.5,-165 3563.5,-184"/>
<text text-anchor="middle" x="3516.5" y="-172" font-family="Helvetica,sans-Serif" font-size="10.00">debug/Stream.h</text>
</a>
</g>
</g>
<!-- Node1&#45;&gt;Node50 -->
<g id="edge38_Node000001_Node000050" class="edge">
<title>Node1&#45;&gt;Node50</title>
<g id="a_edge38_Node000001_Node000050"><a xlink:title=" ">
<path fill="none" stroke="#63b8ff" d="M3437.46,-329.79C3448.21,-320.53 3461.49,-307.67 3470.5,-294 3491.78,-261.72 3505.47,-218.13 3512,-193.83"/>
<polygon fill="#63b8ff" stroke="#63b8ff" points="3515.4,-194.68 3514.5,-184.13 3508.62,-192.94 3515.4,-194.68"/>
</a>
</g>
</g>
<!-- Node52 -->
<g id="Node000052" class="node">
<title>Node52</title>
<g id="a_Node000052"><a xlink:title=" ">
<polygon fill="#e0e0e0" stroke="#999999" points="3275.5,-129 3215.5,-129 3215.5,-110 3275.5,-110 3275.5,-129"/>
<text text-anchor="middle" x="3245.5" y="-117" font-family="Helvetica,sans-Serif" font-size="10.00">iostream</text>
</a>
</g>
</g>
<!-- Node1&#45;&gt;Node52 -->
<g id="edge59_Node000001_Node000052" class="edge">
<title>Node1&#45;&gt;Node52</title>
<g id="a_edge59_Node000001_Node000052"><a xlink:title=" ">
<path fill="none" stroke="#63b8ff" d="M3402.59,-329.78C3372.5,-303.68 3309.27,-245.18 3271.5,-184 3262.7,-169.75 3255.72,-151.99 3251.22,-138.88"/>
<polygon fill="#63b8ff" stroke="#63b8ff" points="3254.47,-137.56 3248.04,-129.14 3247.82,-139.74 3254.47,-137.56"/>
</a>
</g>
</g>
<!-- Node55 -->
<g id="Node000055" class="node">
<title>Node55</title>
<g id="a_Node000055"><a xlink:href="sbuf_2Stream_8h.html" target="_top" xlink:title=" ">
<polygon fill="white" stroke="#666666" points="3462,-294 3377,-294 3377,-275 3462,-275 3462,-294"/>
<text text-anchor="middle" x="3419.5" y="-282" font-family="Helvetica,sans-Serif" font-size="10.00">sbuf/Stream.h</text>
</a>
</g>
</g>
<!-- Node1&#45;&gt;Node55 -->
<g id="edge44_Node000001_Node000055" class="edge">
<title>Node1&#45;&gt;Node55</title>
<g id="a_edge44_Node000001_Node000055"><a xlink:title=" ">
<path fill="none" stroke="#63b8ff" d="M3419.5,-329.84C3419.5,-322.21 3419.5,-312.7 3419.5,-304.45"/>
<polygon fill="#63b8ff" stroke="#63b8ff" points="3423,-304.27 3419.5,-294.27 3416,-304.27 3423,-304.27"/>
</a>
</g>
</g>
<!-- Node84 -->
<g id="Node000084" class="node">
<title>Node84</title>
<g id="a_Node000084"><a xlink:href="SwapMetaView_8h.html" target="_top" xlink:title=" ">
<polygon fill="white" stroke="#666666" points="3942.5,-239 3814.5,-239 3814.5,-220 3942.5,-220 3942.5,-239"/>
<text text-anchor="middle" x="3878.5" y="-227" font-family="Helvetica,sans-Serif" font-size="10.00">store/SwapMetaView.h</text>
</a>
</g>
</g>
<!-- Node1&#45;&gt;Node84 -->
<g id="edge55_Node000001_Node000084" class="edge">
<title>Node1&#45;&gt;Node84</title>
<g id="a_edge55_Node000001_Node000084"><a xlink:title=" ">
<path fill="none" stroke="#63b8ff" d="M3490.77,-341.81C3562.86,-337.76 3676.6,-326.31 3769.5,-294 3803.02,-282.34 3837.77,-260.01 3858.77,-245.18"/>
<polygon fill="#63b8ff" stroke="#63b8ff" points="3861.07,-247.83 3867.14,-239.15 3856.98,-242.15 3861.07,-247.83"/>
</a>
</g>
</g>
<!-- Node3 -->
<g id="Node000003" class="node">
<title>Node3</title>
<g id="a_Node000003"><a xlink:href="autoconf_8h.html" target="_top" xlink:title=" ">
<polygon fill="white" stroke="#666666" points="1787.5,-239 1719.5,-239 1719.5,-220 1787.5,-220 1787.5,-239"/>
<text text-anchor="middle" x="1753.5" y="-227" font-family="Helvetica,sans-Serif" font-size="10.00">autoconf.h</text>
</a>
</g>
</g>
<!-- Node2&#45;&gt;Node3 -->
<g id="edge2_Node000002_Node000003" class="edge">
<title>Node2&#45;&gt;Node3</title>
<g id="a_edge2_Node000002_Node000003"><a xlink:title=" ">
<path fill="none" stroke="#63b8ff" d="M1710.92,-274.75C1718.27,-267.11 1729.13,-255.82 1738.04,-246.56"/>
<polygon fill="#63b8ff" stroke="#63b8ff" points="1740.82,-248.72 1745.24,-239.09 1735.78,-243.87 1740.82,-248.72"/>
</a>
</g>
</g>
<!-- Node4 -->
<g id="Node000004" class="node">
<title>Node4</title>
<g id="a_Node000004"><a xlink:href="version_8h.html" target="_top" xlink:title=" ">
<polygon fill="white" stroke="#666666" points="1581.5,-239 1519.5,-239 1519.5,-220 1581.5,-220 1581.5,-239"/>
<text text-anchor="middle" x="1550.5" y="-227" font-family="Helvetica,sans-Serif" font-size="10.00">version.h</text>
</a>
</g>
</g>
<!-- Node2&#45;&gt;Node4 -->
<g id="edge3_Node000002_Node000004" class="edge">
<title>Node2&#45;&gt;Node4</title>
<g id="a_edge3_Node000002_Node000004"><a xlink:title=" ">
<path fill="none" stroke="#63b8ff" d="M1678.08,-274.98C1652.78,-266.16 1613.05,-252.31 1584.64,-242.41"/>
<polygon fill="#63b8ff" stroke="#63b8ff" points="1585.71,-239.07 1575.11,-239.08 1583.4,-245.68 1585.71,-239.07"/>
</a>
</g>
</g>
<!-- Node5 -->
<g id="Node000005" class="node">
<title>Node5</title>
<g id="a_Node000005"><a xlink:href="compat_8h.html" target="_top" xlink:title=" ">
<polygon fill="white" stroke="#666666" points="1701.5,-239 1599.5,-239 1599.5,-220 1701.5,-220 1701.5,-239"/>
<text text-anchor="middle" x="1650.5" y="-227" font-family="Helvetica,sans-Serif" font-size="10.00">compat/compat.h</text>
</a>
</g>
</g>
<!-- Node2&#45;&gt;Node5 -->
<g id="edge4_Node000002_Node000005" class="edge">
<title>Node2&#45;&gt;Node5</title>
<g id="a_edge4_Node000002_Node000005"><a xlink:title=" ">
<path fill="none" stroke="#63b8ff" d="M1693.91,-274.75C1686.34,-267.03 1675.12,-255.6 1665.99,-246.28"/>
<polygon fill="#63b8ff" stroke="#63b8ff" points="1668.43,-243.78 1658.93,-239.09 1663.43,-248.68 1668.43,-243.78"/>
</a>
</g>
</g>
<!-- Node6 -->
<g id="Node000006" class="node">
<title>Node6</title>
<g id="a_Node000006"><a xlink:href="osdetect_8h.html" target="_top" xlink:title=" ">
<polygon fill="white" stroke="#666666" points="1887,-184 1780,-184 1780,-165 1887,-165 1887,-184"/>
<text text-anchor="middle" x="1833.5" y="-172" font-family="Helvetica,sans-Serif" font-size="10.00">compat/osdetect.h</text>
</a>
</g>
</g>
<!-- Node5&#45;&gt;Node6 -->
<g id="edge5_Node000005_Node000006" class="edge">
<title>Node5&#45;&gt;Node6</title>
<g id="a_edge5_Node000005_Node000006"><a xlink:title=" ">
<path fill="none" stroke="#63b8ff" d="M1679.9,-219.98C1710.89,-211.01 1759.88,-196.82 1794.17,-186.89"/>
<polygon fill="#63b8ff" stroke="#63b8ff" points="1795.24,-190.23 1803.87,-184.08 1793.29,-183.5 1795.24,-190.23"/>
</a>
</g>
</g>
<!-- Node7 -->
<g id="Node000007" class="node">
<title>Node7</title>
<g id="a_Node000007"><a xlink:href="fdsetsize_8h.html" target="_top" xlink:title=" ">
<polygon fill="white" stroke="#666666" points="2015.5,-184 1905.5,-184 1905.5,-165 2015.5,-165 2015.5,-184"/>
<text text-anchor="middle" x="1960.5" y="-172" font-family="Helvetica,sans-Serif" font-size="10.00">compat/fdsetsize.h</text>
</a>
</g>
</g>
<!-- Node5&#45;&gt;Node7 -->
<g id="edge6_Node000005_Node000007" class="edge">
<title>Node5&#45;&gt;Node7</title>
<g id="a_edge6_Node000005_Node000007"><a xlink:title=" ">
<path fill="none" stroke="#63b8ff" d="M1700.31,-219.98C1754.8,-210.67 1842.13,-195.74 1900.39,-185.78"/>
<polygon fill="#63b8ff" stroke="#63b8ff" points="1901.29,-189.17 1910.56,-184.04 1900.11,-182.27 1901.29,-189.17"/>
</a>
</g>
</g>
<!-- Node8 -->
<g id="Node000008" class="node">
<title>Node8</title>
<g id="a_Node000008"><a xlink:href="types_8h.html" target="_top" xlink:title=" ">
<polygon fill="#fff0f0" stroke="red" points="2125.5,-184 2033.5,-184 2033.5,-165 2125.5,-165 2125.5,-184"/>
<text text-anchor="middle" x="2079.5" y="-172" font-family="Helvetica,sans-Serif" font-size="10.00">compat/types.h</text>
</a>
</g>
</g>
<!-- Node5&#45;&gt;Node8 -->
<g id="edge7_Node000005_Node000008" class="edge">
<title>Node5&#45;&gt;Node8</title>
<g id="a_edge7_Node000005_Node000008"><a xlink:title=" ">
<path fill="none" stroke="#63b8ff" d="M1701.55,-221.17C1704.58,-220.77 1707.58,-220.37 1710.5,-220 1846.57,-202.57 1883.57,-202.71 2023.08,-184.14"/>
<polygon fill="#63b8ff" stroke="#63b8ff" points="2023.86,-187.57 2033.31,-182.77 2022.93,-180.63 2023.86,-187.57"/>
</a>
</g>
</g>
<!-- Node10 -->
<g id="Node000010" class="node">
<title>Node10</title>
<g id="a_Node000010"><a xlink:href="aix_8h.html" target="_top" xlink:title=" ">
<polygon fill="white" stroke="#666666" points="2239,-184 2144,-184 2144,-165 2239,-165 2239,-184"/>
<text text-anchor="middle" x="2191.5" y="-172" font-family="Helvetica,sans-Serif" font-size="10.00">compat/os/aix.h</text>
</a>
</g>
</g>
<!-- Node5&#45;&gt;Node10 -->
<g id="edge8_Node000005_Node000010" class="edge">
<title>Node5&#45;&gt;Node10</title>
<g id="a_edge8_Node000005_Node000010"><a xlink:title=" ">
<path fill="none" stroke="#63b8ff" d="M1701.54,-221.07C1704.57,-220.69 1707.57,-220.33 1710.5,-220 1895.21,-199.09 1944.97,-205.72 2133.96,-183.98"/>
<polygon fill="#63b8ff" stroke="#63b8ff" points="2134.41,-187.45 2143.94,-182.82 2133.61,-180.5 2134.41,-187.45"/>
</a>
</g>
</g>
<!-- Node11 -->
<g id="Node000011" class="node">
<title>Node11</title>
<g id="a_Node000011"><a xlink:href="android_8h.html" target="_top" xlink:title=" ">
<polygon fill="white" stroke="#666666" points="2373.5,-184 2257.5,-184 2257.5,-165 2373.5,-165 2373.5,-184"/>
<text text-anchor="middle" x="2315.5" y="-172" font-family="Helvetica,sans-Serif" font-size="10.00">compat/os/android.h</text>
</a>
</g>
</g>
<!-- Node5&#45;&gt;Node11 -->
<g id="edge9_Node000005_Node000011" class="edge">
<title>Node5&#45;&gt;Node11</title>
<g id="a_edge9_Node000005_Node000011"><a xlink:title=" ">
<path fill="none" stroke="#63b8ff" d="M1701.53,-221.01C1704.56,-220.65 1707.57,-220.31 1710.5,-220 1945.16,-195.55 2007.69,-206.53 2247.22,-183.96"/>
<polygon fill="#63b8ff" stroke="#63b8ff" points="2247.66,-187.43 2257.29,-183 2247,-180.46 2247.66,-187.43"/>
</a>
</g>
</g>
<!-- Node12 -->
<g id="Node000012" class="node">
<title>Node12</title>
<g id="a_Node000012"><a xlink:href="dragonfly_8h.html" target="_top" xlink:title=" ">
<polygon fill="white" stroke="#666666" points="2515.5,-184 2391.5,-184 2391.5,-165 2515.5,-165 2515.5,-184"/>
<text text-anchor="middle" x="2453.5" y="-172" font-family="Helvetica,sans-Serif" font-size="10.00">compat/os/dragonfly.h</text>
</a>
</g>
</g>
<!-- Node5&#45;&gt;Node12 -->
<g id="edge10_Node000005_Node000012" class="edge">
<title>Node5&#45;&gt;Node12</title>
<g id="a_edge10_Node000005_Node000012"><a xlink:title=" ">
<path fill="none" stroke="#63b8ff" d="M1701.53,-220.96C1704.56,-220.61 1707.57,-220.29 1710.5,-220 2004.84,-191.32 2082.78,-209.37 2380.94,-184.07"/>
<polygon fill="#63b8ff" stroke="#63b8ff" points="2381.52,-187.54 2391.19,-183.19 2380.92,-180.56 2381.52,-187.54"/>
</a>
</g>
</g>
<!-- Node13 -->
<g id="Node000013" class="node">
<title>Node13</title>
<g id="a_Node000013"><a xlink:href="freebsd_8h.html" target="_top" xlink:title=" ">
<polygon fill="white" stroke="#666666" points="2649.5,-184 2533.5,-184 2533.5,-165 2649.5,-165 2649.5,-184"/>
<text text-anchor="middle" x="2591.5" y="-172" font-family="Helvetica,sans-Serif" font-size="10.00">compat/os/freebsd.h</text>
</a>
</g>
</g>
<!-- Node5&#45;&gt;Node13 -->
<g id="edge11_Node000005_Node000013" class="edge">
<title>Node5&#45;&gt;Node13</title>
<g id="a_edge11_Node000005_Node000013"><a xlink:title=" ">
<path fill="none" stroke="#63b8ff" d="M1701.52,-220.93C1704.56,-220.59 1707.57,-220.27 1710.5,-220 2067.74,-186.87 2161.94,-214.3 2523.21,-184.03"/>
<polygon fill="#63b8ff" stroke="#63b8ff" points="2523.76,-187.49 2533.43,-183.16 2523.17,-180.52 2523.76,-187.49"/>
</a>
</g>
</g>
<!-- Node14 -->
<g id="Node000014" class="node">
<title>Node14</title>
<g id="a_Node000014"><a xlink:href="hpux_8h.html" target="_top" xlink:title=" ">
<polygon fill="white" stroke="#666666" points="2771.5,-184 2667.5,-184 2667.5,-165 2771.5,-165 2771.5,-184"/>
<text text-anchor="middle" x="2719.5" y="-172" font-family="Helvetica,sans-Serif" font-size="10.00">compat/os/hpux.h</text>
</a>
</g>
</g>
<!-- Node5&#45;&gt;Node14 -->
<g id="edge12_Node000005_Node000014" class="edge">
<title>Node5&#45;&gt;Node14</title>
<g id="a_edge12_Node000005_Node000014"><a xlink:title=" ">
<path fill="none" stroke="#63b8ff" d="M1701.52,-220.91C1704.56,-220.57 1707.57,-220.26 1710.5,-220 2127.17,-182.67 2236.79,-220.54 2657.3,-184"/>
<polygon fill="#63b8ff" stroke="#63b8ff" points="2657.64,-187.49 2667.3,-183.13 2657.03,-180.51 2657.64,-187.49"/>
</a>
</g>
</g>
<!-- Node15 -->
<g id="Node000015" class="node">
<title>Node15</title>
<g id="a_Node000015"><a xlink:href="linux_8h.html" target="_top" xlink:title=" ">
<polygon fill="white" stroke="#666666" points="2893.5,-184 2789.5,-184 2789.5,-165 2893.5,-165 2893.5,-184"/>
<text text-anchor="middle" x="2841.5" y="-172" font-family="Helvetica,sans-Serif" font-size="10.00">compat/os/linux.h</text>
</a>
</g>
</g>
<!-- Node5&#45;&gt;Node15 -->
<g id="edge13_Node000005_Node000015" class="edge">
<title>Node5&#45;&gt;Node15</title>
<g id="a_edge13_Node000005_Node000015"><a xlink:title=" ">
<path fill="none" stroke="#63b8ff" d="M1701.52,-220.89C1704.55,-220.56 1707.57,-220.26 1710.5,-220 2181.16,-178.86 2304.69,-224.24 2779.1,-184.01"/>
<polygon fill="#63b8ff" stroke="#63b8ff" points="2779.63,-187.48 2789.3,-183.14 2779.04,-180.51 2779.63,-187.48"/>
</a>
</g>
</g>
<!-- Node16 -->
<g id="Node000016" class="node">
<title>Node16</title>
<g id="a_Node000016"><a xlink:href="macosx_8h.html" target="_top" xlink:title=" ">
<polygon fill="white" stroke="#666666" points="3029.5,-184 2911.5,-184 2911.5,-165 3029.5,-165 3029.5,-184"/>
<text text-anchor="middle" x="2970.5" y="-172" font-family="Helvetica,sans-Serif" font-size="10.00">compat/os/macosx.h</text>
</a>
</g>
</g>
<!-- Node5&#45;&gt;Node16 -->
<g id="edge14_Node000005_Node000016" class="edge">
<title>Node5&#45;&gt;Node16</title>
<g id="a_edge14_Node000005_Node000016"><a xlink:title=" ">
<path fill="none" stroke="#63b8ff" d="M1701.52,-220.88C1704.55,-220.55 1707.56,-220.25 1710.5,-220 2235.23,-175.05 2372.33,-224.28 2901.01,-184.03"/>
<polygon fill="#63b8ff" stroke="#63b8ff" points="2901.49,-187.5 2911.2,-183.25 2900.96,-180.52 2901.49,-187.5"/>
</a>
</g>
</g>
<!-- Node17 -->
<g id="Node000017" class="node">
<title>Node17</title>
<g id="a_Node000017"><a xlink:href="mingw_8h.html" target="_top" xlink:title=" ">
<polygon fill="white" stroke="#666666" points="3159.5,-184 3047.5,-184 3047.5,-165 3159.5,-165 3159.5,-184"/>
<text text-anchor="middle" x="3103.5" y="-172" font-family="Helvetica,sans-Serif" font-size="10.00">compat/os/mingw.h</text>
</a>
</g>
</g>
<!-- Node5&#45;&gt;Node17 -->
<g id="edge15_Node000005_Node000017" class="edge">
<title>Node5&#45;&gt;Node17</title>
<g id="a_edge15_Node000005_Node000017"><a xlink:title=" ">
<path fill="none" stroke="#63b8ff" d="M1701.52,-220.87C1704.55,-220.54 1707.56,-220.25 1710.5,-220 2295.56,-170.79 2448.17,-229.67 3037.15,-184.01"/>
<polygon fill="#63b8ff" stroke="#63b8ff" points="3037.47,-187.5 3047.17,-183.23 3036.92,-180.52 3037.47,-187.5"/>
</a>
</g>
</g>
<!-- Node18 -->
<g id="Node000018" class="node">
<title>Node18</title>
<g id="a_Node000018"><a xlink:href="mswindows_8h.html" target="_top" xlink:title=" ">
<polygon fill="white" stroke="#666666" points="137,-184 0,-184 0,-165 137,-165 137,-184"/>
<text text-anchor="middle" x="68.5" y="-172" font-family="Helvetica,sans-Serif" font-size="10.00">compat/os/mswindows.h</text>
</a>
</g>
</g>
<!-- Node5&#45;&gt;Node18 -->
<g id="edge16_Node000005_Node000018" class="edge">
<title>Node5&#45;&gt;Node18</title>
<g id="a_edge16_Node000005_Node000018"><a xlink:title=" ">
<path fill="none" stroke="#63b8ff" d="M1599.48,-220.86C1596.45,-220.54 1593.44,-220.24 1590.5,-220 953.72,-167.14 788.24,-226.64 147.74,-184.09"/>
<polygon fill="#63b8ff" stroke="#63b8ff" points="147.53,-180.57 137.32,-183.39 147.06,-187.55 147.53,-180.57"/>
</a>
</g>
</g>
<!-- Node19 -->
<g id="Node000019" class="node">
<title>Node19</title>
<g id="a_Node000019"><a xlink:href="netbsd_8h.html" target="_top" xlink:title=" ">
<polygon fill="white" stroke="#666666" points="268,-184 155,-184 155,-165 268,-165 268,-184"/>
<text text-anchor="middle" x="211.5" y="-172" font-family="Helvetica,sans-Serif" font-size="10.00">compat/os/netbsd.h</text>
</a>
</g>
</g>
<!-- Node5&#45;&gt;Node19 -->
<g id="edge17_Node000005_Node000019" class="edge">
<title>Node5&#45;&gt;Node19</title>
<g id="a_edge17_Node000005_Node000019"><a xlink:title=" ">
<path fill="none" stroke="#63b8ff" d="M1599.48,-220.87C1596.45,-220.54 1593.44,-220.25 1590.5,-220 1011.75,-171.24 860.68,-229.25 278.52,-184.07"/>
<polygon fill="#63b8ff" stroke="#63b8ff" points="278.43,-180.55 268.18,-183.26 277.88,-187.53 278.43,-180.55"/>
</a>
</g>
</g>
<!-- Node20 -->
<g id="Node000020" class="node">
<title>Node20</title>
<g id="a_Node000020"><a xlink:href="openbsd_8h.html" target="_top" xlink:title=" ">
<polygon fill="white" stroke="#666666" points="407,-184 286,-184 286,-165 407,-165 407,-184"/>
<text text-anchor="middle" x="346.5" y="-172" font-family="Helvetica,sans-Serif" font-size="10.00">compat/os/openbsd.h</text>
</a>
</g>
</g>
<!-- Node5&#45;&gt;Node20 -->
<g id="edge18_Node000005_Node000020" class="edge">
<title>Node5&#45;&gt;Node20</title>
<g id="a_edge18_Node000005_Node000020"><a xlink:title=" ">
<path fill="none" stroke="#63b8ff" d="M1599.48,-220.88C1596.45,-220.55 1593.43,-220.25 1590.5,-220 1073.25,-175.57 938.15,-223.37 417.08,-184.04"/>
<polygon fill="#63b8ff" stroke="#63b8ff" points="417.29,-180.55 407.05,-183.28 416.76,-187.53 417.29,-180.55"/>
</a>
</g>
</g>
<!-- Node21 -->
<g id="Node000021" class="node">
<title>Node21</title>
<g id="a_Node000021"><a xlink:href="os2_8h.html" target="_top" xlink:title=" ">
<polygon fill="white" stroke="#666666" points="522,-184 425,-184 425,-165 522,-165 522,-184"/>
<text text-anchor="middle" x="473.5" y="-172" font-family="Helvetica,sans-Serif" font-size="10.00">compat/os/os2.h</text>
</a>
</g>
</g>
<!-- Node5&#45;&gt;Node21 -->
<g id="edge19_Node000005_Node000021" class="edge">
<title>Node5&#45;&gt;Node21</title>
<g id="a_edge19_Node000005_Node000021"><a xlink:title=" ">
<path fill="none" stroke="#63b8ff" d="M1599.48,-220.89C1596.44,-220.56 1593.43,-220.26 1590.5,-220 1124.68,-179.2 1002.27,-225.54 532.29,-183.94"/>
<polygon fill="#63b8ff" stroke="#63b8ff" points="532.46,-180.44 522.19,-183.04 531.84,-187.41 532.46,-180.44"/>
</a>
</g>
</g>
<!-- Node22 -->
<g id="Node000022" class="node">
<title>Node22</title>
<g id="a_Node000022"><a xlink:href="qnx_8h.html" target="_top" xlink:title=" ">
<polygon fill="white" stroke="#666666" points="638.5,-184 540.5,-184 540.5,-165 638.5,-165 638.5,-184"/>
<text text-anchor="middle" x="589.5" y="-172" font-family="Helvetica,sans-Serif" font-size="10.00">compat/os/qnx.h</text>
</a>
</g>
</g>
<!-- Node5&#45;&gt;Node22 -->
<g id="edge20_Node000005_Node000022" class="edge">
<title>Node5&#45;&gt;Node22</title>
<g id="a_edge20_Node000005_Node000022"><a xlink:title=" ">
<path fill="none" stroke="#63b8ff" d="M1599.48,-220.91C1596.44,-220.57 1593.43,-220.26 1590.5,-220 1176.13,-182.84 1066.9,-221.83 648.75,-184"/>
<polygon fill="#63b8ff" stroke="#63b8ff" points="648.78,-180.48 638.5,-183.06 648.14,-187.45 648.78,-180.48"/>
</a>
</g>
</g>
<!-- Node23 -->
<g id="Node000023" class="node">
<title>Node23</title>
<g id="a_Node000023"><a xlink:href="solaris_8h.html" target="_top" xlink:title=" ">
<polygon fill="white" stroke="#666666" points="768.5,-184 656.5,-184 656.5,-165 768.5,-165 768.5,-184"/>
<text text-anchor="middle" x="712.5" y="-172" font-family="Helvetica,sans-Serif" font-size="10.00">compat/os/solaris.h</text>
</a>
</g>
</g>
<!-- Node5&#45;&gt;Node23 -->
<g id="edge21_Node000005_Node000023" class="edge">
<title>Node5&#45;&gt;Node23</title>
<g id="a_edge21_Node000005_Node000023"><a xlink:title=" ">
<path fill="none" stroke="#63b8ff" d="M1599.48,-220.93C1596.44,-220.59 1593.43,-220.27 1590.5,-220 1233.7,-186.9 1139.56,-214.95 779.04,-184.05"/>
<polygon fill="#63b8ff" stroke="#63b8ff" points="779.1,-180.54 768.84,-183.17 778.5,-187.52 779.1,-180.54"/>
</a>
</g>
</g>
<!-- Node24 -->
<g id="Node000024" class="node">
<title>Node24</title>
<g id="a_Node000024"><a xlink:href="sunos_8h.html" target="_top" xlink:title=" ">
<polygon fill="white" stroke="#666666" points="894.5,-184 786.5,-184 786.5,-165 894.5,-165 894.5,-184"/>
<text text-anchor="middle" x="840.5" y="-172" font-family="Helvetica,sans-Serif" font-size="10.00">compat/os/sunos.h</text>
</a>
</g>
</g>
<!-- Node5&#45;&gt;Node24 -->
<g id="edge22_Node000005_Node000024" class="edge">
<title>Node5&#45;&gt;Node24</title>
<g id="a_edge22_Node000005_Node000024"><a xlink:title=" ">
<path fill="none" stroke="#63b8ff" d="M1599.47,-220.96C1596.44,-220.61 1593.43,-220.28 1590.5,-220 1289.44,-190.84 1209.63,-212 904.78,-184.04"/>
<polygon fill="#63b8ff" stroke="#63b8ff" points="905.04,-180.55 894.76,-183.11 904.4,-187.52 905.04,-180.55"/>
</a>
</g>
</g>
<!-- Node25 -->
<g id="Node000025" class="node">
<title>Node25</title>
<g id="a_Node000025"><a xlink:href="assert_8h.html" target="_top" xlink:title=" ">
<polygon fill="white" stroke="#666666" points="1008,-184 913,-184 913,-165 1008,-165 1008,-184"/>
<text text-anchor="middle" x="960.5" y="-172" font-family="Helvetica,sans-Serif" font-size="10.00">compat/assert.h</text>
</a>
</g>
</g>
<!-- Node5&#45;&gt;Node25 -->
<g id="edge23_Node000005_Node000025" class="edge">
<title>Node5&#45;&gt;Node25</title>
<g id="a_edge23_Node000005_Node000025"><a xlink:title=" ">
<path fill="none" stroke="#63b8ff" d="M1599.47,-220.99C1596.44,-220.63 1593.43,-220.3 1590.5,-220 1340,-194.43 1273.01,-210.41 1018.35,-183.98"/>
<polygon fill="#63b8ff" stroke="#63b8ff" points="1018.36,-180.46 1008.05,-182.9 1017.63,-187.43 1018.36,-180.46"/>
</a>
</g>
</g>
<!-- Node26 -->
<g id="Node000026" class="node">
<title>Node26</title>
<g id="a_Node000026"><a xlink:href="compat__shared_8h.html" target="_top" xlink:title=" ">
<polygon fill="#fff0f0" stroke="red" points="1166.5,-184 1026.5,-184 1026.5,-165 1166.5,-165 1166.5,-184"/>
<text text-anchor="middle" x="1096.5" y="-172" font-family="Helvetica,sans-Serif" font-size="10.00">compat/compat_shared.h</text>
</a>
</g>
</g>
<!-- Node5&#45;&gt;Node26 -->
<g id="edge24_Node000005_Node000026" class="edge">
<title>Node5&#45;&gt;Node26</title>
<g id="a_edge24_Node000005_Node000026"><a xlink:title=" ">
<path fill="none" stroke="#63b8ff" d="M1599.46,-221.08C1596.43,-220.7 1593.43,-220.33 1590.5,-220 1409.79,-199.38 1361.46,-201.81 1176.75,-184.1"/>
<polygon fill="#63b8ff" stroke="#63b8ff" points="1176.99,-180.61 1166.7,-183.13 1176.32,-187.57 1176.99,-180.61"/>
</a>
</g>
</g>
<!-- Node36 -->
<g id="Node000036" class="node">
<title>Node36</title>
<g id="a_Node000036"><a xlink:href="stdvarargs_8h.html" target="_top" xlink:title=" ">
<polygon fill="#fff0f0" stroke="red" points="1302,-184 1185,-184 1185,-165 1302,-165 1302,-184"/>
<text text-anchor="middle" x="1243.5" y="-172" font-family="Helvetica,sans-Serif" font-size="10.00">compat/stdvarargs.h</text>
</a>
</g>
</g>
<!-- Node5&#45;&gt;Node36 -->
<g id="edge25_Node000005_Node000036" class="edge">
<title>Node5&#45;&gt;Node36</title>
<g id="a_edge25_Node000005_Node000036"><a xlink:title=" ">
<path fill="none" stroke="#63b8ff" d="M1599.44,-221.22C1596.42,-220.8 1593.42,-220.39 1590.5,-220 1563.64,-216.38 1405.54,-196.17 1312.27,-184.27"/>
<polygon fill="#63b8ff" stroke="#63b8ff" points="1312.71,-180.8 1302.34,-183 1311.82,-187.74 1312.71,-180.8"/>
</a>
</g>
</g>
<!-- Node38 -->
<g id="Node000038" class="node">
<title>Node38</title>
<g id="a_Node000038"><a xlink:href="stdio_8h.html" target="_top" xlink:title=" ">
<polygon fill="#fff0f0" stroke="red" points="1409,-184 1320,-184 1320,-165 1409,-165 1409,-184"/>
<text text-anchor="middle" x="1364.5" y="-172" font-family="Helvetica,sans-Serif" font-size="10.00">compat/stdio.h</text>
</a>
</g>
</g>
<!-- Node5&#45;&gt;Node38 -->
<g id="edge26_Node000005_Node000038" class="edge">
<title>Node5&#45;&gt;Node38</title>
<g id="a_edge26_Node000005_Node000038"><a xlink:title=" ">
<path fill="none" stroke="#63b8ff" d="M1604.55,-219.98C1554.11,-210.64 1473.18,-195.64 1419.43,-185.68"/>
<polygon fill="#63b8ff" stroke="#63b8ff" points="1419.86,-182.2 1409.39,-183.82 1418.59,-189.08 1419.86,-182.2"/>
</a>
</g>
</g>
<!-- Node40 -->
<g id="Node000040" class="node">
<title>Node40</title>
<g id="a_Node000040"><a xlink:href="statvfs_8h.html" target="_top" xlink:title=" ">
<polygon fill="white" stroke="#666666" points="1526,-184 1427,-184 1427,-165 1526,-165 1526,-184"/>
<text text-anchor="middle" x="1476.5" y="-172" font-family="Helvetica,sans-Serif" font-size="10.00">compat/statvfs.h</text>
</a>
</g>
</g>
<!-- Node5&#45;&gt;Node40 -->
<g id="edge27_Node000005_Node000040" class="edge">
<title>Node5&#45;&gt;Node40</title>
<g id="a_edge27_Node000005_Node000040"><a xlink:title=" ">
<path fill="none" stroke="#63b8ff" d="M1622.54,-219.98C1593.2,-211.05 1546.9,-196.94 1514.31,-187.02"/>
<polygon fill="#63b8ff" stroke="#63b8ff" points="1515.26,-183.65 1504.68,-184.08 1513.22,-190.34 1515.26,-183.65"/>
</a>
</g>
</g>
<!-- Node41 -->
<g id="Node000041" class="node">
<title>Node41</title>
<g id="a_Node000041"><a xlink:href="debug_8h.html" target="_top" xlink:title=" ">
<polygon fill="white" stroke="#666666" points="1639,-184 1544,-184 1544,-165 1639,-165 1639,-184"/>
<text text-anchor="middle" x="1591.5" y="-172" font-family="Helvetica,sans-Serif" font-size="10.00">compat/debug.h</text>
</a>
</g>
</g>
<!-- Node5&#45;&gt;Node41 -->
<g id="edge28_Node000005_Node000041" class="edge">
<title>Node5&#45;&gt;Node41</title>
<g id="a_edge28_Node000005_Node000041"><a xlink:title=" ">
<path fill="none" stroke="#63b8ff" d="M1641.02,-219.98C1632.3,-212.15 1619.16,-200.34 1608.6,-190.86"/>
<polygon fill="#63b8ff" stroke="#63b8ff" points="1610.93,-188.25 1601.15,-184.17 1606.25,-193.46 1610.93,-188.25"/>
</a>
</g>
</g>
<!-- Node42 -->
<g id="Node000042" class="node">
<title>Node42</title>
<g id="a_Node000042"><a xlink:href="valgrind_8h.html" target="_top" xlink:title=" ">
<polygon fill="#fff0f0" stroke="red" points="1762,-184 1657,-184 1657,-165 1762,-165 1762,-184"/>
<text text-anchor="middle" x="1709.5" y="-172" font-family="Helvetica,sans-Serif" font-size="10.00">compat/valgrind.h</text>
</a>
</g>
</g>
<!-- Node5&#45;&gt;Node42 -->
<g id="edge29_Node000005_Node000042" class="edge">
<title>Node5&#45;&gt;Node42</title>
<g id="a_edge29_Node000005_Node000042"><a xlink:title=" ">
<path fill="none" stroke="#63b8ff" d="M1659.98,-219.98C1668.7,-212.15 1681.84,-200.34 1692.4,-190.86"/>
<polygon fill="#63b8ff" stroke="#63b8ff" points="1694.75,-193.46 1699.85,-184.17 1690.07,-188.25 1694.75,-193.46"/>
</a>
</g>
</g>
<!-- Node45 -->
<g id="Node000045" class="node">
<title>Node45</title>
<g id="a_Node000045"><a xlink:title=" ">
<polygon fill="#e0e0e0" stroke="#999999" points="3696.5,-19 3648.5,-19 3648.5,0 3696.5,0 3696.5,-19"/>
<text text-anchor="middle" x="3672.5" y="-7" font-family="Helvetica,sans-Serif" font-size="10.00">iosfwd</text>
</a>
</g>
</g>
<!-- Node44&#45;&gt;Node45 -->
<g id="edge31_Node000044_Node000045" class="edge">
<title>Node44&#45;&gt;Node45</title>
<g id="a_edge31_Node000044_Node000045"><a xlink:title=" ">
<path fill="none" stroke="#63b8ff" d="M3394.52,-57.42C3455.61,-47.11 3578.71,-26.33 3638.44,-16.25"/>
<polygon fill="#63b8ff" stroke="#63b8ff" points="3639.21,-19.67 3648.49,-14.55 3638.04,-12.77 3639.21,-19.67"/>
</a>
</g>
</g>
<!-- Node47 -->
<g id="Node000047" class="node">
<title>Node47</title>
<g id="a_Node000047"><a xlink:href="Assure_8h.html" target="_top" xlink:title=" ">
<polygon fill="white" stroke="#666666" points="3783,-129 3698,-129 3698,-110 3783,-110 3783,-129"/>
<text text-anchor="middle" x="3740.5" y="-117" font-family="Helvetica,sans-Serif" font-size="10.00">base/Assure.h</text>
</a>
</g>
</g>
<!-- Node46&#45;&gt;Node47 -->
<g id="edge33_Node000046_Node000047" class="edge">
<title>Node46&#45;&gt;Node47</title>
<g id="a_edge33_Node000046_Node000047"><a xlink:title=" ">
<path fill="none" stroke="#63b8ff" d="M3811,-164.98C3798.1,-156.84 3778.4,-144.41 3763.1,-134.76"/>
<polygon fill="#63b8ff" stroke="#63b8ff" points="3764.57,-131.55 3754.24,-129.17 3760.83,-137.47 3764.57,-131.55"/>
</a>
</g>
</g>
<!-- Node48 -->
<g id="Node000048" class="node">
<title>Node48</title>
<g id="a_Node000048"><a xlink:href="Here_8h.html" target="_top" xlink:title=" ">
<polygon fill="white" stroke="#666666" points="3817,-74 3742,-74 3742,-55 3817,-55 3817,-74"/>
<text text-anchor="middle" x="3779.5" y="-62" font-family="Helvetica,sans-Serif" font-size="10.00">base/Here.h</text>
</a>
</g>
</g>
<!-- Node46&#45;&gt;Node48 -->
<g id="edge36_Node000046_Node000048" class="edge">
<title>Node46&#45;&gt;Node48</title>
<g id="a_edge36_Node000046_Node000048"><a xlink:title=" ">
<path fill="none" stroke="#63b8ff" d="M3820.82,-164.66C3813.46,-147.01 3796.83,-107.09 3787.06,-83.64"/>
<polygon fill="#63b8ff" stroke="#63b8ff" points="3790.18,-82.04 3783.11,-74.16 3783.72,-84.74 3790.18,-82.04"/>
</a>
</g>
</g>
<!-- Node49 -->
<g id="Node000049" class="node">
<title>Node49</title>
<g id="a_Node000049"><a xlink:title=" ">
<polygon fill="#e0e0e0" stroke="#999999" points="3905,-129 3840,-129 3840,-110 3905,-110 3905,-129"/>
<text text-anchor="middle" x="3872.5" y="-117" font-family="Helvetica,sans-Serif" font-size="10.00">stdexcept</text>
</a>
</g>
</g>
<!-- Node46&#45;&gt;Node49 -->
<g id="edge37_Node000046_Node000049" class="edge">
<title>Node46&#45;&gt;Node49</title>
<g id="a_edge37_Node000046_Node000049"><a xlink:title=" ">
<path fill="none" stroke="#63b8ff" d="M3832.43,-164.75C3839.35,-157.11 3849.57,-145.82 3857.95,-136.56"/>
<polygon fill="#63b8ff" stroke="#63b8ff" points="3860.6,-138.85 3864.72,-129.09 3855.41,-134.15 3860.6,-138.85"/>
</a>
</g>
</g>
<!-- Node47&#45;&gt;Node48 -->
<g id="edge34_Node000047_Node000048" class="edge">
<title>Node47&#45;&gt;Node48</title>
<g id="a_edge34_Node000047_Node000048"><a xlink:title=" ">
<path fill="none" stroke="#63b8ff" d="M3746.94,-109.75C3752.39,-102.34 3760.36,-91.5 3767.06,-82.41"/>
<polygon fill="#63b8ff" stroke="#63b8ff" points="3770.07,-84.22 3773.18,-74.09 3764.43,-80.07 3770.07,-84.22"/>
</a>
</g>
</g>
<!-- Node48&#45;&gt;Node45 -->
<g id="edge35_Node000048_Node000045" class="edge">
<title>Node48&#45;&gt;Node45</title>
<g id="a_edge35_Node000048_Node000045"><a xlink:title=" ">
<path fill="none" stroke="#63b8ff" d="M3762.31,-54.98C3745.25,-46.54 3718.87,-33.47 3699.1,-23.68"/>
<polygon fill="#63b8ff" stroke="#63b8ff" points="3700.52,-20.47 3690,-19.17 3697.41,-26.75 3700.52,-20.47"/>
</a>
</g>
</g>
<!-- Node50&#45;&gt;Node48 -->
<g id="edge39_Node000050_Node000048" class="edge">
<title>Node50&#45;&gt;Node48</title>
<g id="a_edge39_Node000050_Node000048"><a xlink:title=" ">
<path fill="none" stroke="#63b8ff" d="M3537.58,-164.84C3584.05,-145.76 3695.46,-100.01 3749.33,-77.89"/>
<polygon fill="#63b8ff" stroke="#63b8ff" points="3750.77,-81.08 3758.69,-74.05 3748.11,-74.61 3750.77,-81.08"/>
</a>
</g>
</g>
<!-- Node51 -->
<g id="Node000051" class="node">
<title>Node51</title>
<g id="a_Node000051"><a xlink:href="AllocatorProxy_8h.html" target="_top" xlink:title=" ">
<polygon fill="white" stroke="#666666" points="3417.5,-129 3293.5,-129 3293.5,-110 3417.5,-110 3417.5,-129"/>
<text text-anchor="middle" x="3355.5" y="-117" font-family="Helvetica,sans-Serif" font-size="10.00">mem/AllocatorProxy.h</text>
</a>
</g>
</g>
<!-- Node50&#45;&gt;Node51 -->
<g id="edge40_Node000050_Node000051" class="edge">
<title>Node50&#45;&gt;Node51</title>
<g id="a_edge40_Node000050_Node000051"><a xlink:title=" ">
<path fill="none" stroke="#63b8ff" d="M3490.63,-164.98C3463.72,-156.13 3421.38,-142.19 3391.27,-132.28"/>
<polygon fill="#63b8ff" stroke="#63b8ff" points="3392.16,-128.88 3381.57,-129.08 3389.97,-135.53 3392.16,-128.88"/>
</a>
</g>
</g>
<!-- Node50&#45;&gt;Node52 -->
<g id="edge41_Node000050_Node000052" class="edge">
<title>Node50&#45;&gt;Node52</title>
<g id="a_edge41_Node000050_Node000052"><a xlink:title=" ">
<path fill="none" stroke="#63b8ff" d="M3470.21,-164.98C3425.44,-156.65 3355.43,-143.42 3285.57,-129.18"/>
<polygon fill="#63b8ff" stroke="#63b8ff" points="3286.22,-125.74 3275.72,-127.16 3284.81,-132.6 3286.22,-125.74"/>
</a>
</g>
</g>
<!-- Node53 -->
<g id="Node000053" class="node">
<title>Node53</title>
<g id="a_Node000053"><a xlink:title=" ">
<polygon fill="#e0e0e0" stroke="#999999" points="3491.5,-129 3435.5,-129 3435.5,-110 3491.5,-110 3491.5,-129"/>
<text text-anchor="middle" x="3463.5" y="-117" font-family="Helvetica,sans-Serif" font-size="10.00">sstream</text>
</a>
</g>
</g>
<!-- Node50&#45;&gt;Node53 -->
<g id="edge42_Node000050_Node000053" class="edge">
<title>Node50&#45;&gt;Node53</title>
<g id="a_edge42_Node000050_Node000053"><a xlink:title=" ">
<path fill="none" stroke="#63b8ff" d="M3507.75,-164.75C3500.03,-157.03 3488.6,-145.6 3479.28,-136.28"/>
<polygon fill="#63b8ff" stroke="#63b8ff" points="3481.64,-133.69 3472.09,-129.09 3476.69,-138.64 3481.64,-133.69"/>
</a>
</g>
</g>
<!-- Node54 -->
<g id="Node000054" class="node">
<title>Node54</title>
<g id="a_Node000054"><a xlink:title=" ">
<polygon fill="#e0e0e0" stroke="#999999" points="3565.5,-129 3509.5,-129 3509.5,-110 3565.5,-110 3565.5,-129"/>
<text text-anchor="middle" x="3537.5" y="-117" font-family="Helvetica,sans-Serif" font-size="10.00">iomanip</text>
</a>
</g>
</g>
<!-- Node50&#45;&gt;Node54 -->
<g id="edge43_Node000050_Node000054" class="edge">
<title>Node50&#45;&gt;Node54</title>
<g id="a_edge43_Node000050_Node000054"><a xlink:title=" ">
<path fill="none" stroke="#63b8ff" d="M3519.97,-164.75C3522.78,-157.65 3526.84,-147.4 3530.35,-138.56"/>
<polygon fill="#63b8ff" stroke="#63b8ff" points="3533.67,-139.68 3534.1,-129.09 3527.16,-137.1 3533.67,-139.68"/>
</a>
</g>
</g>
<!-- Node56 -->
<g id="Node000056" class="node">
<title>Node56</title>
<g id="a_Node000056"><a xlink:href="PackableStream_8h.html" target="_top" xlink:title=" ">
<polygon fill="white" stroke="#666666" points="3468.5,-239 3338.5,-239 3338.5,-220 3468.5,-220 3468.5,-239"/>
<text text-anchor="middle" x="3403.5" y="-227" font-family="Helvetica,sans-Serif" font-size="10.00">base/PackableStream.h</text>
</a>
</g>
</g>
<!-- Node55&#45;&gt;Node56 -->
<g id="edge45_Node000055_Node000056" class="edge">
<title>Node55&#45;&gt;Node56</title>
<g id="a_edge45_Node000055_Node000056"><a xlink:title=" ">
<path fill="none" stroke="#63b8ff" d="M3416.86,-274.75C3414.74,-267.72 3411.69,-257.62 3409.04,-248.84"/>
<polygon fill="#63b8ff" stroke="#63b8ff" points="3412.33,-247.65 3406.09,-239.09 3405.63,-249.67 3412.33,-247.65"/>
</a>
</g>
</g>
<!-- Node59 -->
<g id="Node000059" class="node">
<title>Node59</title>
<g id="a_Node000059"><a xlink:href="SBuf_8h.html" target="_top" xlink:title=" ">
<polygon fill="#fff0f0" stroke="red" points="3644,-239 3573,-239 3573,-220 3644,-220 3644,-239"/>
<text text-anchor="middle" x="3608.5" y="-227" font-family="Helvetica,sans-Serif" font-size="10.00">sbuf/SBuf.h</text>
</a>
</g>
</g>
<!-- Node55&#45;&gt;Node59 -->
<g id="edge48_Node000055_Node000059" class="edge">
<title>Node55&#45;&gt;Node59</title>
<g id="a_edge48_Node000055_Node000059"><a xlink:title=" ">
<path fill="none" stroke="#63b8ff" d="M3449.87,-274.98C3481.87,-266.01 3532.46,-251.82 3567.88,-241.89"/>
<polygon fill="#63b8ff" stroke="#63b8ff" points="3569.21,-245.15 3577.9,-239.08 3567.32,-238.41 3569.21,-245.15"/>
</a>
</g>
</g>
<!-- Node57 -->
<g id="Node000057" class="node">
<title>Node57</title>
<g id="a_Node000057"><a xlink:href="Packable_8h.html" target="_top" xlink:title=" ">
<polygon fill="white" stroke="#666666" points="3451,-184 3356,-184 3356,-165 3451,-165 3451,-184"/>
<text text-anchor="middle" x="3403.5" y="-172" font-family="Helvetica,sans-Serif" font-size="10.00">base/Packable.h</text>
</a>
</g>
</g>
<!-- Node56&#45;&gt;Node57 -->
<g id="edge46_Node000056_Node000057" class="edge">
<title>Node56&#45;&gt;Node57</title>
<g id="a_edge46_Node000056_Node000057"><a xlink:title=" ">
<path fill="none" stroke="#63b8ff" d="M3403.5,-219.75C3403.5,-212.8 3403.5,-202.85 3403.5,-194.13"/>
<polygon fill="#63b8ff" stroke="#63b8ff" points="3407,-194.09 3403.5,-184.09 3400,-194.09 3407,-194.09"/>
</a>
</g>
</g>
<!-- Node58 -->
<g id="Node000058" class="node">
<title>Node58</title>
<g id="a_Node000058"><a xlink:title=" ">
<polygon fill="#e0e0e0" stroke="#999999" points="3338,-184 3281,-184 3281,-165 3338,-165 3338,-184"/>
<text text-anchor="middle" x="3309.5" y="-172" font-family="Helvetica,sans-Serif" font-size="10.00">ostream</text>
</a>
</g>
</g>
<!-- Node56&#45;&gt;Node58 -->
<g id="edge47_Node000056_Node000058" class="edge">
<title>Node56&#45;&gt;Node58</title>
<g id="a_edge47_Node000056_Node000058"><a xlink:title=" ">
<path fill="none" stroke="#63b8ff" d="M3388.4,-219.98C3373.68,-211.69 3351.08,-198.94 3333.83,-189.22"/>
<polygon fill="#63b8ff" stroke="#63b8ff" points="3335.31,-186.03 3324.88,-184.17 3331.87,-192.13 3335.31,-186.03"/>
</a>
</g>
</g>
<!-- Node59&#45;&gt;Node45 -->
<g id="edge54_Node000059_Node000045" class="edge">
<title>Node59&#45;&gt;Node45</title>
<g id="a_edge54_Node000059_Node000045"><a xlink:title=" ">
<path fill="none" stroke="#63b8ff" d="M3606.21,-219.91C3599.66,-193.48 3583.13,-111.72 3612.5,-55 3619.34,-41.79 3632.11,-31.48 3644.11,-24.12"/>
<polygon fill="#63b8ff" stroke="#63b8ff" points="3646.05,-27.05 3653.03,-19.08 3642.6,-20.96 3646.05,-27.05"/>
</a>
</g>
</g>
<!-- Node59&#45;&gt;Node46 -->
<g id="edge51_Node000059_Node000046" class="edge">
<title>Node59&#45;&gt;Node46</title>
<g id="a_edge51_Node000059_Node000046"><a xlink:title=" ">
<path fill="none" stroke="#63b8ff" d="M3643.2,-219.98C3680.25,-210.89 3739.09,-196.46 3779.63,-186.51"/>
<polygon fill="#63b8ff" stroke="#63b8ff" points="3780.65,-189.86 3789.52,-184.08 3778.98,-183.07 3780.65,-189.86"/>
</a>
</g>
</g>
<!-- Node59&#45;&gt;Node50 -->
<g id="edge52_Node000059_Node000050" class="edge">
<title>Node59&#45;&gt;Node50</title>
<g id="a_edge52_Node000059_Node000050"><a xlink:title=" ">
<path fill="none" stroke="#63b8ff" d="M3593.72,-219.98C3579.32,-211.69 3557.19,-198.94 3540.31,-189.22"/>
<polygon fill="#63b8ff" stroke="#63b8ff" points="3541.96,-186.13 3531.55,-184.17 3538.47,-192.19 3541.96,-186.13"/>
</a>
</g>
</g>
<!-- Node60 -->
<g id="Node000060" class="node">
<title>Node60</title>
<g id="a_Node000060"><a xlink:href="InstanceId_8h.html" target="_top" xlink:title=" ">
<polygon fill="white" stroke="#666666" points="3723.5,-74 3621.5,-74 3621.5,-55 3723.5,-55 3723.5,-74"/>
<text text-anchor="middle" x="3672.5" y="-62" font-family="Helvetica,sans-Serif" font-size="10.00">base/InstanceId.h</text>
</a>
</g>
</g>
<!-- Node59&#45;&gt;Node60 -->
<g id="edge49_Node000059_Node000060" class="edge">
<title>Node59&#45;&gt;Node60</title>
<g id="a_edge49_Node000059_Node000060"><a xlink:title=" ">
<path fill="none" stroke="#63b8ff" d="M3611.94,-219.74C3622.01,-194.09 3651.58,-118.78 3665.32,-83.78"/>
<polygon fill="#63b8ff" stroke="#63b8ff" points="3668.65,-84.89 3669.04,-74.31 3662.13,-82.34 3668.65,-84.89"/>
</a>
</g>
</g>
<!-- Node61 -->
<g id="Node000061" class="node">
<title>Node61</title>
<g id="a_Node000061"><a xlink:href="globals_8h.html" target="_top" xlink:title=" ">
<polygon fill="#fff0f0" stroke="red" points="3746,-184 3685,-184 3685,-165 3746,-165 3746,-184"/>
<text text-anchor="middle" x="3715.5" y="-172" font-family="Helvetica,sans-Serif" font-size="10.00">globals.h</text>
</a>
</g>
</g>
<!-- Node59&#45;&gt;Node61 -->
<g id="edge53_Node000059_Node000061" class="edge">
<title>Node59&#45;&gt;Node61</title>
<g id="a_edge53_Node000059_Node000061"><a xlink:title=" ">
<path fill="none" stroke="#63b8ff" d="M3625.69,-219.98C3642.75,-211.54 3669.13,-198.47 3688.9,-188.68"/>
<polygon fill="#63b8ff" stroke="#63b8ff" points="3690.59,-191.75 3698,-184.17 3687.48,-185.47 3690.59,-191.75"/>
</a>
</g>
</g>
<!-- Node60&#45;&gt;Node45 -->
<g id="edge50_Node000060_Node000045" class="edge">
<title>Node60&#45;&gt;Node45</title>
<g id="a_edge50_Node000060_Node000045"><a xlink:title=" ">
<path fill="none" stroke="#63b8ff" d="M3672.5,-54.75C3672.5,-47.8 3672.5,-37.85 3672.5,-29.13"/>
<polygon fill="#63b8ff" stroke="#63b8ff" points="3676,-29.09 3672.5,-19.09 3669,-29.09 3676,-29.09"/>
</a>
</g>
</g>
<!-- Node84&#45;&gt;Node45 -->
<g id="edge58_Node000084_Node000045" class="edge">
<title>Node84&#45;&gt;Node45</title>
<g id="a_edge58_Node000084_Node000045"><a xlink:title=" ">
<path fill="none" stroke="#63b8ff" d="M3885.32,-219.97C3900.57,-199.77 3934.51,-147.9 3913.5,-110 3872.48,-35.98 3762.84,-17.01 3706.69,-12.16"/>
<polygon fill="#63b8ff" stroke="#63b8ff" points="3706.76,-8.65 3696.53,-11.38 3706.23,-15.63 3706.76,-8.65"/>
</a>
</g>
</g>
<!-- Node84&#45;&gt;Node46 -->
<g id="edge56_Node000084_Node000046" class="edge">
<title>Node84&#45;&gt;Node46</title>
<g id="a_edge56_Node000084_Node000046"><a xlink:title=" ">
<path fill="none" stroke="#63b8ff" d="M3869.58,-219.75C3861.72,-212.03 3850.07,-200.6 3840.58,-191.28"/>
<polygon fill="#63b8ff" stroke="#63b8ff" points="3842.84,-188.6 3833.25,-184.09 3837.94,-193.59 3842.84,-188.6"/>
</a>
</g>
</g>
<!-- Node85 -->
<g id="Node000085" class="node">
<title>Node85</title>
<g id="a_Node000085"><a xlink:href="SwapMeta_8h.html" target="_top" xlink:title=" ">
<polygon fill="#fff0f0" stroke="red" points="4065.5,-184 3961.5,-184 3961.5,-165 4065.5,-165 4065.5,-184"/>
<text text-anchor="middle" x="4013.5" y="-172" font-family="Helvetica,sans-Serif" font-size="10.00">store/SwapMeta.h</text>
</a>
</g>
</g>
<!-- Node84&#45;&gt;Node85 -->
<g id="edge57_Node000084_Node000085" class="edge">
<title>Node84&#45;&gt;Node85</title>
<g id="a_edge57_Node000084_Node000085"><a xlink:title=" ">
<path fill="none" stroke="#63b8ff" d="M3900.19,-219.98C3922.3,-211.3 3956.82,-197.75 3981.95,-187.88"/>
<polygon fill="#63b8ff" stroke="#63b8ff" points="3983.39,-191.08 3991.42,-184.17 3980.83,-184.57 3983.39,-191.08"/>
</a>
</g>
</g>
</g>
</svg>

<g id="navigator" transform="translate(0 0)" fill="#404254">
  <rect fill="#f2f5e9" fill-opacity="0.5" stroke="#606060" stroke-width=".5" x="0" y="0" width="60" height="60"/>
  <use id="zoomplus" xlink:href="#zoomPlus" x="17" y="9" onmousedown="handleZoom(evt,'in')"/>
  <use id="zoomminus" xlink:href="#zoomMin" x="42" y="9" onmousedown="handleZoom(evt,'out')"/>
  <use id="reset" xlink:href="#resetDef" x="30" y="36" onmousedown="handleReset()"/>
   <use id="arrowup" xlink:href="#arrowUp" x="0" y="0" onmousedown="handlePan(0,-1)"/>
  <use id="arrowright" xlink:href="#arrowRight" x="0" y="0" onmousedown="handlePan(1,0)"/>
  <use id="arrowdown" xlink:href="#arrowDown" x="0" y="0" onmousedown="handlePan(0,1)"/>
  <use id="arrowleft" xlink:href="#arrowLeft" x="0" y="0" onmousedown="handlePan(-1,0)"/>
</g>
<svg viewBox="0 0 15 15" width="100%" height="30px" preserveAspectRatio="xMaxYMin meet">
 <g id="arrow_out" transform="scale(0.3 0.3)">
  <a xlink:href="SwapMetaView_8cc__incl_org.svg" target="_base">
   <rect id="button" ry="5" rx="5" y="6" x="6" height="38" width="38"
        fill="#f2f5e9" fill-opacity="0.5" stroke="#606060" stroke-width="1.0"/>
   <path id="arrow"
     d="M 11.500037,31.436501 C 11.940474,20.09759 22.043105,11.32322 32.158766,21.979434 L 37.068811,17.246167 C 37.068811,17.246167 37.088388,32 37.088388,32 L 22.160133,31.978069 C 22.160133,31.978069 26.997745,27.140456 26.997745,27.140456 C 18.528582,18.264221 13.291696,25.230495 11.500037,31.436501 z"
     style="fill:#404040;"/>
  </a>
 </g>
</svg>

<style type='text/css'>
<![CDATA[
[data-mouse-over-selected='false'] { opacity: 0.7; }
[data-mouse-over-selected='true']  { opacity: 1.0; }
]]>
</style>
<script type="application/ecmascript"><![CDATA[
document.addEventListener('DOMContentLoaded', (event) => {
  highlightEdges();
  highlightAdjacentNodes();
});
]]></script>
</svg>
