<?xml version="1.0" encoding="UTF-8" standalone="no"?>
<!DOCTYPE svg PUBLIC "-//W3C//DTD SVG 1.1//EN"
 "http://www.w3.org/Graphics/SVG/1.1/DTD/svg11.dtd">
<!-- Generated by graphviz version 2.43.0 (0)
 -->
<!-- Title: squid/src/swap_log_op.h Pages: 1 -->
<!--zoomable 225 -->

<svg id="main" version="1.1" xmlns="http://www.w3.org/2000/svg" xmlns:xlink="http://www.w3.org/1999/xlink" xml:space="preserve" onload="init(evt)">
<style type="text/css"><![CDATA[
.node, .edge {opacity: 0.7;}
.node.selected, .edge.selected {opacity: 1;}
.edge:hover path { stroke: red; }
.edge:hover polygon { stroke: red; fill: red; }
]]></style>

<defs>
  <circle id="rim" cx="0" cy="0" r="7"/>
  <circle id="rim2" cx="0" cy="0" r="3.5"/>
  <g id="zoomPlus">
    <use xlink:href="#rim" fill="#404040"><set attributeName="fill" to="#808080" begin="zoomplus.mouseover" end="zoomplus.mouseout"/></use>
    <path d="M-4,0h8M0,-4v8" fill="none" stroke="white" stroke-width="1.5" pointer-events="none"/>
  </g>
  <g id="zoomMin">
    <use xlink:href="#rim" fill="#404040"><set attributeName="fill" to="#808080" begin="zoomminus.mouseover" end="zoomminus.mouseout"/></use>
    <path d="M-4,0h8" fill="none" stroke="white" stroke-width="1.5" pointer-events="none"/>
  </g>
  <g id="arrowUp" transform="translate(30 24)">
    <use xlink:href="#rim"/>
    <path pointer-events="none" fill="none" stroke="white" stroke-width="1.5" d="M0,-3.0v7 M-2.5,-0.5L0,-3.0L2.5,-0.5"/>
  </g>
  <g id="arrowRight" transform="rotate(90) translate(36 -43)">
    <use xlink:href="#rim"/>
    <path pointer-events="none" fill="none" stroke="white" stroke-width="1.5" d="M0,-3.0v7 M-2.5,-0.5L0,-3.0L2.5,-0.5"/>
  </g>
  <g id="arrowDown" transform="rotate(180) translate(-30 -48)">
    <use xlink:href="#rim"/>
    <path pointer-events="none" fill="none" stroke="white" stroke-width="1.5" d="M0,-3.0v7 M-2.5,-0.5L0,-3.0L2.5,-0.5"/>
  </g>
  <g id="arrowLeft" transform="rotate(270) translate(-36 17)">
    <use xlink:href="#rim"/>
    <path pointer-events="none" fill="none" stroke="white" stroke-width="1.5" d="M0,-3.0v7 M-2.5,-0.5L0,-3.0L2.5,-0.5"/>
  </g>
  <g id="resetDef">
    <use xlink:href="#rim2" fill="#404040"><set attributeName="fill" to="#808080" begin="reset.mouseover" end="reset.mouseout"/></use>
  </g>
</defs>
<script type="application/ecmascript">
var viewWidth = 1134;
var viewHeight = 225;
var sectionId = 'dynsection-0';
</script>
<script type="application/ecmascript" xlink:href="svg.min.js"/>
<svg id="graph" class="graph">
<g id="viewport">
<title>squid/src/swap_log_op.h</title>
<!-- Node1 -->
<g id="Node000001" class="node">
<title>Node1</title>
<g id="a_Node000001"><a xlink:title=" ">
<polygon fill="#999999" stroke="#666666" points="758.5,-217 623.5,-217 623.5,-198 758.5,-198 758.5,-217"/>
<text text-anchor="middle" x="691" y="-205" font-family="Helvetica,sans-Serif" font-size="10.00">squid/src/swap_log_op.h</text>
</a>
</g>
</g>
<!-- Node2 -->
<g id="Node000002" class="node">
<title>Node2</title>
<g id="a_Node000002"><a xlink:href="StoreSwapLogData_8cc.html" target="_top" xlink:title=" ">
<polygon fill="white" stroke="#666666" points="378.5,-156.5 209.5,-156.5 209.5,-137.5 378.5,-137.5 378.5,-156.5"/>
<text text-anchor="middle" x="294" y="-144.5" font-family="Helvetica,sans-Serif" font-size="10.00">squid/src/StoreSwapLogData.cc</text>
</a>
</g>
</g>
<!-- Node1&#45;&gt;Node2 -->
<g id="edge1_Node000001_Node000002" class="edge">
<title>Node1&#45;&gt;Node2</title>
<g id="a_edge1_Node000001_Node000002"><a xlink:title=" ">
<path fill="none" stroke="#63b8ff" d="M622.67,-196.5C561.25,-187.51 468.59,-173.92 388,-162 376.09,-160.24 363.32,-158.34 351.16,-156.53"/>
<polygon fill="#63b8ff" stroke="#63b8ff" points="622.22,-199.98 632.63,-197.96 623.24,-193.05 622.22,-199.98"/>
</a>
</g>
</g>
<!-- Node3 -->
<g id="Node000003" class="node">
<title>Node3</title>
<g id="a_Node000003"><a xlink:href="UFSSwapDir_8h.html" target="_top" xlink:title=" ">
<polygon fill="white" stroke="#666666" points="535,-162 397,-162 397,-132 535,-132 535,-162"/>
<text text-anchor="start" x="405" y="-150" font-family="Helvetica,sans-Serif" font-size="10.00">squid/src/fs/ufs/UFSSwap</text>
<text text-anchor="middle" x="466" y="-139" font-family="Helvetica,sans-Serif" font-size="10.00">Dir.h</text>
</a>
</g>
</g>
<!-- Node1&#45;&gt;Node3 -->
<g id="edge2_Node000001_Node000003" class="edge">
<title>Node1&#45;&gt;Node3</title>
<g id="a_edge2_Node000001_Node000003"><a xlink:title=" ">
<path fill="none" stroke="#63b8ff" d="M648.47,-195.44C612.08,-185.98 559.48,-172.3 520.09,-162.06"/>
<polygon fill="#63b8ff" stroke="#63b8ff" points="647.72,-198.86 658.28,-197.99 649.49,-192.09 647.72,-198.86"/>
</a>
</g>
</g>
<!-- Node12 -->
<g id="Node000012" class="node">
<title>Node12</title>
<g id="a_Node000012"><a xlink:href="UFSSwapLogParser_8cc.html" target="_top" xlink:title=" ">
<polygon fill="white" stroke="#666666" points="691,-162 553,-162 553,-132 691,-132 691,-162"/>
<text text-anchor="start" x="561" y="-150" font-family="Helvetica,sans-Serif" font-size="10.00">squid/src/fs/ufs/UFSSwap</text>
<text text-anchor="middle" x="622" y="-139" font-family="Helvetica,sans-Serif" font-size="10.00">LogParser.cc</text>
</a>
</g>
</g>
<!-- Node1&#45;&gt;Node12 -->
<g id="edge12_Node000001_Node000012" class="edge">
<title>Node1&#45;&gt;Node12</title>
<g id="a_edge12_Node000001_Node000012"><a xlink:title=" ">
<path fill="none" stroke="#63b8ff" d="M672.99,-191.23C662.37,-182.23 649.02,-170.91 638.65,-162.11"/>
<polygon fill="#63b8ff" stroke="#63b8ff" points="670.93,-194.07 680.82,-197.87 675.45,-188.73 670.93,-194.07"/>
</a>
</g>
</g>
<!-- Node13 -->
<g id="Node000013" class="node">
<title>Node13</title>
<g id="a_Node000013"><a xlink:href="store_8cc.html" target="_top" xlink:title=" ">
<polygon fill="white" stroke="#666666" points="810.5,-156.5 709.5,-156.5 709.5,-137.5 810.5,-137.5 810.5,-156.5"/>
<text text-anchor="middle" x="760" y="-144.5" font-family="Helvetica,sans-Serif" font-size="10.00">squid/src/store.cc</text>
</a>
</g>
</g>
<!-- Node1&#45;&gt;Node13 -->
<g id="edge13_Node000001_Node000013" class="edge">
<title>Node1&#45;&gt;Node13</title>
<g id="a_edge13_Node000001_Node000013"><a xlink:title=" ">
<path fill="none" stroke="#63b8ff" d="M709.02,-191.22C722,-180.21 739.06,-165.75 749.78,-156.67"/>
<polygon fill="#63b8ff" stroke="#63b8ff" points="706.55,-188.73 701.18,-197.87 711.07,-194.07 706.55,-188.73"/>
</a>
</g>
</g>
<!-- Node14 -->
<g id="Node000014" class="node">
<title>Node14</title>
<g id="a_Node000014"><a xlink:href="Disks_8cc.html" target="_top" xlink:title=" ">
<polygon fill="white" stroke="#666666" points="959.5,-156.5 828.5,-156.5 828.5,-137.5 959.5,-137.5 959.5,-156.5"/>
<text text-anchor="middle" x="894" y="-144.5" font-family="Helvetica,sans-Serif" font-size="10.00">squid/src/store/Disks.cc</text>
</a>
</g>
</g>
<!-- Node1&#45;&gt;Node14 -->
<g id="edge14_Node000001_Node000014" class="edge">
<title>Node1&#45;&gt;Node14</title>
<g id="a_edge14_Node000001_Node000014"><a xlink:title=" ">
<path fill="none" stroke="#63b8ff" d="M730.28,-195.18C769.54,-183.87 829.02,-166.72 864.45,-156.52"/>
<polygon fill="#63b8ff" stroke="#63b8ff" points="729.16,-191.86 720.52,-197.99 731.1,-198.59 729.16,-191.86"/>
</a>
</g>
</g>
<!-- Node15 -->
<g id="Node000015" class="node">
<title>Node15</title>
<g id="a_Node000015"><a xlink:href="store__swapout_8cc.html" target="_top" xlink:title=" ">
<polygon fill="white" stroke="#666666" points="1126,-156.5 978,-156.5 978,-137.5 1126,-137.5 1126,-156.5"/>
<text text-anchor="middle" x="1052" y="-144.5" font-family="Helvetica,sans-Serif" font-size="10.00">squid/src/store_swapout.cc</text>
</a>
</g>
</g>
<!-- Node1&#45;&gt;Node15 -->
<g id="edge15_Node000001_Node000015" class="edge">
<title>Node1&#45;&gt;Node15</title>
<g id="a_edge15_Node000001_Node000015"><a xlink:title=" ">
<path fill="none" stroke="#63b8ff" d="M755.29,-196.37C811.65,-187.44 895.78,-174.03 969,-162 979.67,-160.25 991.11,-158.34 1001.98,-156.51"/>
<polygon fill="#63b8ff" stroke="#63b8ff" points="754.43,-192.96 745.1,-197.98 755.52,-199.87 754.43,-192.96"/>
</a>
</g>
</g>
<!-- Node4 -->
<g id="Node000004" class="node">
<title>Node4</title>
<g id="a_Node000004"><a xlink:href="StoreFSaufs_8cc.html" target="_top" xlink:title=" ">
<polygon fill="white" stroke="#666666" points="170,-90.5 0,-90.5 0,-71.5 170,-71.5 170,-90.5"/>
<text text-anchor="middle" x="85" y="-78.5" font-family="Helvetica,sans-Serif" font-size="10.00">squid/src/fs/aufs/StoreFSaufs.cc</text>
</a>
</g>
</g>
<!-- Node3&#45;&gt;Node4 -->
<g id="edge3_Node000003_Node000004" class="edge">
<title>Node3&#45;&gt;Node4</title>
<g id="a_edge3_Node000003_Node000004"><a xlink:title=" ">
<path fill="none" stroke="#63b8ff" d="M386.69,-131.96C292.75,-115.9 195.9,-100.01 137.68,-90.54"/>
<polygon fill="#63b8ff" stroke="#63b8ff" points="386.2,-135.43 396.65,-133.66 387.38,-128.53 386.2,-135.43"/>
</a>
</g>
</g>
<!-- Node5 -->
<g id="Node000005" class="node">
<title>Node5</title>
<g id="a_Node000005"><a xlink:href="StoreFSdiskd_8cc.html" target="_top" xlink:title=" ">
<polygon fill="white" stroke="#666666" points="289.5,-96 188.5,-96 188.5,-66 289.5,-66 289.5,-96"/>
<text text-anchor="start" x="196.5" y="-84" font-family="Helvetica,sans-Serif" font-size="10.00">squid/src/fs/diskd</text>
<text text-anchor="middle" x="239" y="-73" font-family="Helvetica,sans-Serif" font-size="10.00">/StoreFSdiskd.cc</text>
</a>
</g>
</g>
<!-- Node3&#45;&gt;Node5 -->
<g id="edge4_Node000003_Node000005" class="edge">
<title>Node3&#45;&gt;Node5</title>
<g id="a_edge4_Node000003_Node000005"><a xlink:title=" ">
<path fill="none" stroke="#63b8ff" d="M406.13,-129.12C369.53,-118.8 323.27,-105.76 288.7,-96.01"/>
<polygon fill="#63b8ff" stroke="#63b8ff" points="405.61,-132.61 416.18,-131.95 407.51,-125.87 405.61,-132.61"/>
</a>
</g>
</g>
<!-- Node6 -->
<g id="Node000006" class="node">
<title>Node6</title>
<g id="a_Node000006"><a xlink:href="RebuildState_8h.html" target="_top" xlink:title=" ">
<polygon fill="white" stroke="#666666" points="438,-96 308,-96 308,-66 438,-66 438,-96"/>
<text text-anchor="start" x="316" y="-84" font-family="Helvetica,sans-Serif" font-size="10.00">squid/src/fs/ufs/Rebuild</text>
<text text-anchor="middle" x="373" y="-73" font-family="Helvetica,sans-Serif" font-size="10.00">State.h</text>
</a>
</g>
</g>
<!-- Node3&#45;&gt;Node6 -->
<g id="edge5_Node000003_Node000006" class="edge">
<title>Node3&#45;&gt;Node6</title>
<g id="a_edge5_Node000003_Node000006"><a xlink:title=" ">
<path fill="none" stroke="#63b8ff" d="M436.98,-126.03C422.91,-116.34 406.33,-104.94 393.58,-96.16"/>
<polygon fill="#63b8ff" stroke="#63b8ff" points="435.14,-129.01 445.36,-131.8 439.11,-123.24 435.14,-129.01"/>
</a>
</g>
</g>
<!-- Node8 -->
<g id="Node000008" class="node">
<title>Node8</title>
<g id="a_Node000008"><a xlink:href="UFSSwapDir_8cc.html" target="_top" xlink:title=" ">
<polygon fill="white" stroke="#666666" points="535,-30 397,-30 397,0 535,0 535,-30"/>
<text text-anchor="start" x="405" y="-18" font-family="Helvetica,sans-Serif" font-size="10.00">squid/src/fs/ufs/UFSSwap</text>
<text text-anchor="middle" x="466" y="-7" font-family="Helvetica,sans-Serif" font-size="10.00">Dir.cc</text>
</a>
</g>
</g>
<!-- Node3&#45;&gt;Node8 -->
<g id="edge10_Node000003_Node000008" class="edge">
<title>Node3&#45;&gt;Node8</title>
<g id="a_edge10_Node000003_Node000008"><a xlink:title=" ">
<path fill="none" stroke="#63b8ff" d="M466,-121.68C466,-94.7 466,-52.11 466,-30.14"/>
<polygon fill="#63b8ff" stroke="#63b8ff" points="462.5,-121.84 466,-131.84 469.5,-121.84 462.5,-121.84"/>
</a>
</g>
</g>
<!-- Node9 -->
<g id="Node000009" class="node">
<title>Node9</title>
<g id="a_Node000009"><a xlink:href="StoreFSufs_8cc.html" target="_top" xlink:title=" ">
<polygon fill="white" stroke="#666666" points="652,-90.5 494,-90.5 494,-71.5 652,-71.5 652,-90.5"/>
<text text-anchor="middle" x="573" y="-78.5" font-family="Helvetica,sans-Serif" font-size="10.00">squid/src/fs/ufs/StoreFSufs.cc</text>
</a>
</g>
</g>
<!-- Node3&#45;&gt;Node9 -->
<g id="edge8_Node000003_Node000009" class="edge">
<title>Node3&#45;&gt;Node9</title>
<g id="a_edge8_Node000003_Node000009"><a xlink:title=" ">
<path fill="none" stroke="#63b8ff" d="M498.08,-126.81C518.28,-114.73 543.35,-99.73 558.76,-90.52"/>
<polygon fill="#63b8ff" stroke="#63b8ff" points="496.27,-123.82 489.48,-131.95 499.86,-129.83 496.27,-123.82"/>
</a>
</g>
</g>
<!-- Node10 -->
<g id="Node000010" class="node">
<title>Node10</title>
<g id="a_Node000010"><a xlink:href="UFSStrategy_8cc.html" target="_top" xlink:title=" ">
<polygon fill="white" stroke="#666666" points="835.5,-90.5 670.5,-90.5 670.5,-71.5 835.5,-71.5 835.5,-90.5"/>
<text text-anchor="middle" x="753" y="-78.5" font-family="Helvetica,sans-Serif" font-size="10.00">squid/src/fs/ufs/UFSStrategy.cc</text>
</a>
</g>
</g>
<!-- Node3&#45;&gt;Node10 -->
<g id="edge9_Node000003_Node000010" class="edge">
<title>Node3&#45;&gt;Node10</title>
<g id="a_edge9_Node000003_Node000010"><a xlink:title=" ">
<path fill="none" stroke="#63b8ff" d="M538.86,-129.75C594.88,-117.26 670.05,-100.5 714.81,-90.52"/>
<polygon fill="#63b8ff" stroke="#63b8ff" points="537.98,-126.36 528.98,-131.95 539.51,-133.19 537.98,-126.36"/>
</a>
</g>
</g>
<!-- Node11 -->
<g id="Node000011" class="node">
<title>Node11</title>
<g id="a_Node000011"><a xlink:href="testUfs_8cc.html" target="_top" xlink:title=" ">
<polygon fill="white" stroke="#666666" points="992.5,-90.5 853.5,-90.5 853.5,-71.5 992.5,-71.5 992.5,-90.5"/>
<text text-anchor="middle" x="923" y="-78.5" font-family="Helvetica,sans-Serif" font-size="10.00">squid/src/tests/testUfs.cc</text>
</a>
</g>
</g>
<!-- Node3&#45;&gt;Node11 -->
<g id="edge11_Node000003_Node000011" class="edge">
<title>Node3&#45;&gt;Node11</title>
<g id="a_edge11_Node000003_Node000011"><a xlink:title=" ">
<path fill="none" stroke="#63b8ff" d="M545.5,-131.83C679,-112.26 715,-115.42 845,-96 855.75,-94.39 867.29,-92.45 878.12,-90.52"/>
<polygon fill="#63b8ff" stroke="#63b8ff" points="544.67,-128.42 535.29,-133.35 545.69,-135.34 544.67,-128.42"/>
</a>
</g>
</g>
<!-- Node7 -->
<g id="Node000007" class="node">
<title>Node7</title>
<g id="a_Node000007"><a xlink:href="RebuildState_8cc.html" target="_top" xlink:title=" ">
<polygon fill="white" stroke="#666666" points="379,-30 249,-30 249,0 379,0 379,-30"/>
<text text-anchor="start" x="257" y="-18" font-family="Helvetica,sans-Serif" font-size="10.00">squid/src/fs/ufs/Rebuild</text>
<text text-anchor="middle" x="314" y="-7" font-family="Helvetica,sans-Serif" font-size="10.00">State.cc</text>
</a>
</g>
</g>
<!-- Node6&#45;&gt;Node7 -->
<g id="edge6_Node000006_Node000007" class="edge">
<title>Node6&#45;&gt;Node7</title>
<g id="a_edge6_Node000006_Node000007"><a xlink:title=" ">
<path fill="none" stroke="#63b8ff" d="M353.06,-58.37C344.48,-49.06 334.69,-38.44 327.06,-30.16"/>
<polygon fill="#63b8ff" stroke="#63b8ff" points="350.55,-60.82 359.91,-65.8 355.7,-56.07 350.55,-60.82"/>
</a>
</g>
</g>
<!-- Node6&#45;&gt;Node8 -->
<g id="edge7_Node000006_Node000008" class="edge">
<title>Node6&#45;&gt;Node8</title>
<g id="a_edge7_Node000006_Node000008"><a xlink:title=" ">
<path fill="none" stroke="#63b8ff" d="M402.02,-60.03C416.09,-50.34 432.67,-38.94 445.42,-30.16"/>
<polygon fill="#63b8ff" stroke="#63b8ff" points="399.89,-57.24 393.64,-65.8 403.86,-63.01 399.89,-57.24"/>
</a>
</g>
</g>
</g>
</svg>

<g id="navigator" transform="translate(0 0)" fill="#404254">
  <rect fill="#f2f5e9" fill-opacity="0.5" stroke="#606060" stroke-width=".5" x="0" y="0" width="60" height="60"/>
  <use id="zoomplus" xlink:href="#zoomPlus" x="17" y="9" onmousedown="handleZoom(evt,'in')"/>
  <use id="zoomminus" xlink:href="#zoomMin" x="42" y="9" onmousedown="handleZoom(evt,'out')"/>
  <use id="reset" xlink:href="#resetDef" x="30" y="36" onmousedown="handleReset()"/>
   <use id="arrowup" xlink:href="#arrowUp" x="0" y="0" onmousedown="handlePan(0,-1)"/>
  <use id="arrowright" xlink:href="#arrowRight" x="0" y="0" onmousedown="handlePan(1,0)"/>
  <use id="arrowdown" xlink:href="#arrowDown" x="0" y="0" onmousedown="handlePan(0,1)"/>
  <use id="arrowleft" xlink:href="#arrowLeft" x="0" y="0" onmousedown="handlePan(-1,0)"/>
</g>
<svg viewBox="0 0 15 15" width="100%" height="30px" preserveAspectRatio="xMaxYMin meet">
 <g id="arrow_out" transform="scale(0.3 0.3)">
  <a xlink:href="swap__log__op_8h__dep__incl_org.svg" target="_base">
   <rect id="button" ry="5" rx="5" y="6" x="6" height="38" width="38"
        fill="#f2f5e9" fill-opacity="0.5" stroke="#606060" stroke-width="1.0"/>
   <path id="arrow"
     d="M 11.500037,31.436501 C 11.940474,20.09759 22.043105,11.32322 32.158766,21.979434 L 37.068811,17.246167 C 37.068811,17.246167 37.088388,32 37.088388,32 L 22.160133,31.978069 C 22.160133,31.978069 26.997745,27.140456 26.997745,27.140456 C 18.528582,18.264221 13.291696,25.230495 11.500037,31.436501 z"
     style="fill:#404040;"/>
  </a>
 </g>
</svg>

<style type='text/css'>
<![CDATA[
[data-mouse-over-selected='false'] { opacity: 0.7; }
[data-mouse-over-selected='true']  { opacity: 1.0; }
]]>
</style>
<script type="application/ecmascript"><![CDATA[
document.addEventListener('DOMContentLoaded', (event) => {
  highlightEdges();
  highlightAdjacentNodes();
});
]]></script>
</svg>
