<?xml version="1.0" encoding="UTF-8" standalone="no"?>
<!DOCTYPE svg PUBLIC "-//W3C//DTD SVG 1.1//EN"
 "http://www.w3.org/Graphics/SVG/1.1/DTD/svg11.dtd">
<!-- Generated by graphviz version 2.43.0 (0)
 -->
<!-- Title: squid/test&#45;suite/syntheticoperators.cc Pages: 1 -->
<!--zoomable 302 -->

<svg id="main" version="1.1" xmlns="http://www.w3.org/2000/svg" xmlns:xlink="http://www.w3.org/1999/xlink" xml:space="preserve" onload="init(evt)">
<style type="text/css"><![CDATA[
.node, .edge {opacity: 0.7;}
.node.selected, .edge.selected {opacity: 1;}
.edge:hover path { stroke: red; }
.edge:hover polygon { stroke: red; fill: red; }
]]></style>

<defs>
  <circle id="rim" cx="0" cy="0" r="7"/>
  <circle id="rim2" cx="0" cy="0" r="3.5"/>
  <g id="zoomPlus">
    <use xlink:href="#rim" fill="#404040"><set attributeName="fill" to="#808080" begin="zoomplus.mouseover" end="zoomplus.mouseout"/></use>
    <path d="M-4,0h8M0,-4v8" fill="none" stroke="white" stroke-width="1.5" pointer-events="none"/>
  </g>
  <g id="zoomMin">
    <use xlink:href="#rim" fill="#404040"><set attributeName="fill" to="#808080" begin="zoomminus.mouseover" end="zoomminus.mouseout"/></use>
    <path d="M-4,0h8" fill="none" stroke="white" stroke-width="1.5" pointer-events="none"/>
  </g>
  <g id="arrowUp" transform="translate(30 24)">
    <use xlink:href="#rim"/>
    <path pointer-events="none" fill="none" stroke="white" stroke-width="1.5" d="M0,-3.0v7 M-2.5,-0.5L0,-3.0L2.5,-0.5"/>
  </g>
  <g id="arrowRight" transform="rotate(90) translate(36 -43)">
    <use xlink:href="#rim"/>
    <path pointer-events="none" fill="none" stroke="white" stroke-width="1.5" d="M0,-3.0v7 M-2.5,-0.5L0,-3.0L2.5,-0.5"/>
  </g>
  <g id="arrowDown" transform="rotate(180) translate(-30 -48)">
    <use xlink:href="#rim"/>
    <path pointer-events="none" fill="none" stroke="white" stroke-width="1.5" d="M0,-3.0v7 M-2.5,-0.5L0,-3.0L2.5,-0.5"/>
  </g>
  <g id="arrowLeft" transform="rotate(270) translate(-36 17)">
    <use xlink:href="#rim"/>
    <path pointer-events="none" fill="none" stroke="white" stroke-width="1.5" d="M0,-3.0v7 M-2.5,-0.5L0,-3.0L2.5,-0.5"/>
  </g>
  <g id="resetDef">
    <use xlink:href="#rim2" fill="#404040"><set attributeName="fill" to="#808080" begin="reset.mouseover" end="reset.mouseout"/></use>
  </g>
</defs>
<script type="application/ecmascript">
var viewWidth = 3703;
var viewHeight = 302;
var sectionId = 'dynsection-0';
</script>
<script type="application/ecmascript" xlink:href="svg.min.js"/>
<svg id="graph" class="graph">
<g id="viewport">
<title>squid/test&#45;suite/syntheticoperators.cc</title>
<!-- Node1 -->
<g id="Node000001" class="node">
<title>Node1</title>
<g id="a_Node000001"><a xlink:title=" ">
<polygon fill="#999999" stroke="#666666" points="3517,-294 3317,-294 3317,-275 3517,-275 3517,-294"/>
<text text-anchor="middle" x="3417" y="-282" font-family="Helvetica,sans-Serif" font-size="10.00">squid/test&#45;suite/syntheticoperators.cc</text>
</a>
</g>
</g>
<!-- Node2 -->
<g id="Node000002" class="node">
<title>Node2</title>
<g id="a_Node000002"><a xlink:href="squid_8h.html" target="_top" xlink:title=" ">
<polygon fill="white" stroke="#666666" points="1693,-239 1641,-239 1641,-220 1693,-220 1693,-239"/>
<text text-anchor="middle" x="1667" y="-227" font-family="Helvetica,sans-Serif" font-size="10.00">squid.h</text>
</a>
</g>
</g>
<!-- Node1&#45;&gt;Node2 -->
<g id="edge1_Node000001_Node000002" class="edge">
<title>Node1&#45;&gt;Node2</title>
<g id="a_edge1_Node000001_Node000002"><a xlink:title=" ">
<path fill="none" stroke="#63b8ff" d="M3316.95,-280.47C2982.69,-270.35 1913.91,-237.98 1703.25,-231.6"/>
<polygon fill="#63b8ff" stroke="#63b8ff" points="1703.15,-228.09 1693.05,-231.29 1702.94,-235.09 1703.15,-228.09"/>
</a>
</g>
</g>
<!-- Node45 -->
<g id="Node000045" class="node">
<title>Node45</title>
<g id="a_Node000045"><a xlink:href="mem__node_8h.html" target="_top" xlink:title=" ">
<polygon fill="white" stroke="#666666" points="3413,-239 3333,-239 3333,-220 3413,-220 3413,-239"/>
<text text-anchor="middle" x="3373" y="-227" font-family="Helvetica,sans-Serif" font-size="10.00">mem_node.h</text>
</a>
</g>
</g>
<!-- Node1&#45;&gt;Node45 -->
<g id="edge35_Node000001_Node000045" class="edge">
<title>Node1&#45;&gt;Node45</title>
<g id="a_edge35_Node000001_Node000045"><a xlink:title=" ">
<path fill="none" stroke="#63b8ff" d="M3409.73,-274.75C3403.46,-267.18 3394.21,-256.05 3386.57,-246.84"/>
<polygon fill="#63b8ff" stroke="#63b8ff" points="3389.21,-244.55 3380.13,-239.09 3383.83,-249.02 3389.21,-244.55"/>
</a>
</g>
</g>
<!-- Node56 -->
<g id="Node000056" class="node">
<title>Node56</title>
<g id="a_Node000056"><a xlink:href="stmem_8h.html" target="_top" xlink:title=" ">
<polygon fill="white" stroke="#666666" points="3502,-239 3442,-239 3442,-220 3502,-220 3502,-239"/>
<text text-anchor="middle" x="3472" y="-227" font-family="Helvetica,sans-Serif" font-size="10.00">stmem.h</text>
</a>
</g>
</g>
<!-- Node1&#45;&gt;Node56 -->
<g id="edge47_Node000001_Node000056" class="edge">
<title>Node1&#45;&gt;Node56</title>
<g id="a_edge47_Node000001_Node000056"><a xlink:title=" ">
<path fill="none" stroke="#63b8ff" d="M3426.08,-274.75C3434.09,-267.03 3445.96,-255.6 3455.62,-246.28"/>
<polygon fill="#63b8ff" stroke="#63b8ff" points="3458.31,-248.55 3463.09,-239.09 3453.46,-243.51 3458.31,-248.55"/>
</a>
</g>
</g>
<!-- Node61 -->
<g id="Node000061" class="node">
<title>Node61</title>
<g id="a_Node000061"><a xlink:title=" ">
<polygon fill="#e0e0e0" stroke="#999999" points="3580,-239 3520,-239 3520,-220 3580,-220 3580,-239"/>
<text text-anchor="middle" x="3550" y="-227" font-family="Helvetica,sans-Serif" font-size="10.00">iostream</text>
</a>
</g>
</g>
<!-- Node1&#45;&gt;Node61 -->
<g id="edge53_Node000001_Node000061" class="edge">
<title>Node1&#45;&gt;Node61</title>
<g id="a_edge53_Node000001_Node000061"><a xlink:title=" ">
<path fill="none" stroke="#63b8ff" d="M3438.37,-274.98C3460.15,-266.3 3494.16,-252.75 3518.92,-242.88"/>
<polygon fill="#63b8ff" stroke="#63b8ff" points="3520.25,-246.12 3528.24,-239.17 3517.66,-239.62 3520.25,-246.12"/>
</a>
</g>
</g>
<!-- Node3 -->
<g id="Node000003" class="node">
<title>Node3</title>
<g id="a_Node000003"><a xlink:href="autoconf_8h.html" target="_top" xlink:title=" ">
<polygon fill="white" stroke="#666666" points="1568,-184 1500,-184 1500,-165 1568,-165 1568,-184"/>
<text text-anchor="middle" x="1534" y="-172" font-family="Helvetica,sans-Serif" font-size="10.00">autoconf.h</text>
</a>
</g>
</g>
<!-- Node2&#45;&gt;Node3 -->
<g id="edge2_Node000002_Node000003" class="edge">
<title>Node2&#45;&gt;Node3</title>
<g id="a_edge2_Node000002_Node000003"><a xlink:title=" ">
<path fill="none" stroke="#63b8ff" d="M1645.63,-219.98C1623.85,-211.3 1589.84,-197.75 1565.08,-187.88"/>
<polygon fill="#63b8ff" stroke="#63b8ff" points="1566.34,-184.62 1555.76,-184.17 1563.75,-191.12 1566.34,-184.62"/>
</a>
</g>
</g>
<!-- Node4 -->
<g id="Node000004" class="node">
<title>Node4</title>
<g id="a_Node000004"><a xlink:href="version_8h.html" target="_top" xlink:title=" ">
<polygon fill="white" stroke="#666666" points="1648,-184 1586,-184 1586,-165 1648,-165 1648,-184"/>
<text text-anchor="middle" x="1617" y="-172" font-family="Helvetica,sans-Serif" font-size="10.00">version.h</text>
</a>
</g>
</g>
<!-- Node2&#45;&gt;Node4 -->
<g id="edge3_Node000002_Node000004" class="edge">
<title>Node2&#45;&gt;Node4</title>
<g id="a_edge3_Node000002_Node000004"><a xlink:title=" ">
<path fill="none" stroke="#63b8ff" d="M1658.74,-219.75C1651.54,-212.11 1640.89,-200.82 1632.15,-191.56"/>
<polygon fill="#63b8ff" stroke="#63b8ff" points="1634.51,-188.96 1625.1,-184.09 1629.42,-193.76 1634.51,-188.96"/>
</a>
</g>
</g>
<!-- Node5 -->
<g id="Node000005" class="node">
<title>Node5</title>
<g id="a_Node000005"><a xlink:href="compat_8h.html" target="_top" xlink:title=" ">
<polygon fill="white" stroke="#666666" points="1768,-184 1666,-184 1666,-165 1768,-165 1768,-184"/>
<text text-anchor="middle" x="1717" y="-172" font-family="Helvetica,sans-Serif" font-size="10.00">compat/compat.h</text>
</a>
</g>
</g>
<!-- Node2&#45;&gt;Node5 -->
<g id="edge4_Node000002_Node000005" class="edge">
<title>Node2&#45;&gt;Node5</title>
<g id="a_edge4_Node000002_Node000005"><a xlink:title=" ">
<path fill="none" stroke="#63b8ff" d="M1675.26,-219.75C1682.46,-212.11 1693.11,-200.82 1701.85,-191.56"/>
<polygon fill="#63b8ff" stroke="#63b8ff" points="1704.58,-193.76 1708.9,-184.09 1699.49,-188.96 1704.58,-193.76"/>
</a>
</g>
</g>
<!-- Node6 -->
<g id="Node000006" class="node">
<title>Node6</title>
<g id="a_Node000006"><a xlink:href="osdetect_8h.html" target="_top" xlink:title=" ">
<polygon fill="white" stroke="#666666" points="2643.5,-129 2536.5,-129 2536.5,-110 2643.5,-110 2643.5,-129"/>
<text text-anchor="middle" x="2590" y="-117" font-family="Helvetica,sans-Serif" font-size="10.00">compat/osdetect.h</text>
</a>
</g>
</g>
<!-- Node5&#45;&gt;Node6 -->
<g id="edge5_Node000005_Node000006" class="edge">
<title>Node5&#45;&gt;Node6</title>
<g id="a_edge5_Node000005_Node000006"><a xlink:title=" ">
<path fill="none" stroke="#63b8ff" d="M1768.28,-172.09C1895,-168.31 2233.26,-156.38 2526.44,-128.96"/>
<polygon fill="#63b8ff" stroke="#63b8ff" points="2526.79,-132.45 2536.42,-128.02 2526.13,-125.48 2526.79,-132.45"/>
</a>
</g>
</g>
<!-- Node7 -->
<g id="Node000007" class="node">
<title>Node7</title>
<g id="a_Node000007"><a xlink:href="fdsetsize_8h.html" target="_top" xlink:title=" ">
<polygon fill="white" stroke="#666666" points="2772,-129 2662,-129 2662,-110 2772,-110 2772,-129"/>
<text text-anchor="middle" x="2717" y="-117" font-family="Helvetica,sans-Serif" font-size="10.00">compat/fdsetsize.h</text>
</a>
</g>
</g>
<!-- Node5&#45;&gt;Node7 -->
<g id="edge6_Node000005_Node000007" class="edge">
<title>Node5&#45;&gt;Node7</title>
<g id="a_edge6_Node000005_Node000007"><a xlink:title=" ">
<path fill="none" stroke="#63b8ff" d="M1768.03,-172.55C1907.61,-169.63 2307.6,-159.16 2651.56,-128.94"/>
<polygon fill="#63b8ff" stroke="#63b8ff" points="2652.06,-132.41 2661.72,-128.04 2651.45,-125.44 2652.06,-132.41"/>
</a>
</g>
</g>
<!-- Node8 -->
<g id="Node000008" class="node">
<title>Node8</title>
<g id="a_Node000008"><a xlink:href="types_8h.html" target="_top" xlink:title=" ">
<polygon fill="white" stroke="#666666" points="2882,-129 2790,-129 2790,-110 2882,-110 2882,-129"/>
<text text-anchor="middle" x="2836" y="-117" font-family="Helvetica,sans-Serif" font-size="10.00">compat/types.h</text>
</a>
</g>
</g>
<!-- Node5&#45;&gt;Node8 -->
<g id="edge7_Node000005_Node000008" class="edge">
<title>Node5&#45;&gt;Node8</title>
<g id="a_edge7_Node000005_Node000008"><a xlink:title=" ">
<path fill="none" stroke="#63b8ff" d="M1768.08,-173.38C1920.38,-172.6 2384.72,-167.1 2779.64,-129.01"/>
<polygon fill="#63b8ff" stroke="#63b8ff" points="2780.22,-132.47 2789.83,-128.02 2779.54,-125.5 2780.22,-132.47"/>
</a>
</g>
</g>
<!-- Node10 -->
<g id="Node000010" class="node">
<title>Node10</title>
<g id="a_Node000010"><a xlink:href="aix_8h.html" target="_top" xlink:title=" ">
<polygon fill="white" stroke="#666666" points="2995.5,-129 2900.5,-129 2900.5,-110 2995.5,-110 2995.5,-129"/>
<text text-anchor="middle" x="2948" y="-117" font-family="Helvetica,sans-Serif" font-size="10.00">compat/os/aix.h</text>
</a>
</g>
</g>
<!-- Node5&#45;&gt;Node10 -->
<g id="edge9_Node000005_Node000010" class="edge">
<title>Node5&#45;&gt;Node10</title>
<g id="a_edge9_Node000005_Node000010"><a xlink:title=" ">
<path fill="none" stroke="#63b8ff" d="M1768.05,-173.57C1930.48,-173.36 2449.98,-169.44 2890.4,-128.92"/>
<polygon fill="#63b8ff" stroke="#63b8ff" points="2890.83,-132.4 2900.46,-127.99 2890.18,-125.43 2890.83,-132.4"/>
</a>
</g>
</g>
<!-- Node11 -->
<g id="Node000011" class="node">
<title>Node11</title>
<g id="a_Node000011"><a xlink:href="android_8h.html" target="_top" xlink:title=" ">
<polygon fill="white" stroke="#666666" points="3130,-129 3014,-129 3014,-110 3130,-110 3130,-129"/>
<text text-anchor="middle" x="3072" y="-117" font-family="Helvetica,sans-Serif" font-size="10.00">compat/os/android.h</text>
</a>
</g>
</g>
<!-- Node5&#45;&gt;Node11 -->
<g id="edge10_Node000005_Node000011" class="edge">
<title>Node5&#45;&gt;Node11</title>
<g id="a_edge10_Node000005_Node000011"><a xlink:title=" ">
<path fill="none" stroke="#63b8ff" d="M1768.29,-173.38C1940.88,-172.62 2516.62,-167.25 3003.75,-128.92"/>
<polygon fill="#63b8ff" stroke="#63b8ff" points="3004.1,-132.4 3013.8,-128.12 3003.55,-125.43 3004.1,-132.4"/>
</a>
</g>
</g>
<!-- Node12 -->
<g id="Node000012" class="node">
<title>Node12</title>
<g id="a_Node000012"><a xlink:href="dragonfly_8h.html" target="_top" xlink:title=" ">
<polygon fill="white" stroke="#666666" points="3272,-129 3148,-129 3148,-110 3272,-110 3272,-129"/>
<text text-anchor="middle" x="3210" y="-117" font-family="Helvetica,sans-Serif" font-size="10.00">compat/os/dragonfly.h</text>
</a>
</g>
</g>
<!-- Node5&#45;&gt;Node12 -->
<g id="edge11_Node000005_Node000012" class="edge">
<title>Node5&#45;&gt;Node12</title>
<g id="a_edge11_Node000005_Node000012"><a xlink:title=" ">
<path fill="none" stroke="#63b8ff" d="M1768.1,-173.52C1951.75,-173.26 2595.67,-169.37 3137.32,-129.05"/>
<polygon fill="#63b8ff" stroke="#63b8ff" points="3137.98,-132.51 3147.69,-128.27 3137.46,-125.53 3137.98,-132.51"/>
</a>
</g>
</g>
<!-- Node13 -->
<g id="Node000013" class="node">
<title>Node13</title>
<g id="a_Node000013"><a xlink:href="freebsd_8h.html" target="_top" xlink:title=" ">
<polygon fill="white" stroke="#666666" points="116,-129 0,-129 0,-110 116,-110 116,-129"/>
<text text-anchor="middle" x="58" y="-117" font-family="Helvetica,sans-Serif" font-size="10.00">compat/os/freebsd.h</text>
</a>
</g>
</g>
<!-- Node5&#45;&gt;Node13 -->
<g id="edge12_Node000005_Node000013" class="edge">
<title>Node5&#45;&gt;Node13</title>
<g id="a_edge12_Node000005_Node000013"><a xlink:title=" ">
<path fill="none" stroke="#63b8ff" d="M1665.98,-165.86C1662.95,-165.53 1659.94,-165.24 1657,-165 981.53,-109.41 805.88,-179.24 126.11,-128.99"/>
<polygon fill="#63b8ff" stroke="#63b8ff" points="126.3,-125.49 116.07,-128.24 125.78,-132.47 126.3,-125.49"/>
</a>
</g>
</g>
<!-- Node14 -->
<g id="Node000014" class="node">
<title>Node14</title>
<g id="a_Node000014"><a xlink:href="hpux_8h.html" target="_top" xlink:title=" ">
<polygon fill="white" stroke="#666666" points="238,-129 134,-129 134,-110 238,-110 238,-129"/>
<text text-anchor="middle" x="186" y="-117" font-family="Helvetica,sans-Serif" font-size="10.00">compat/os/hpux.h</text>
</a>
</g>
</g>
<!-- Node5&#45;&gt;Node14 -->
<g id="edge13_Node000005_Node000014" class="edge">
<title>Node5&#45;&gt;Node14</title>
<g id="a_edge13_Node000005_Node000014"><a xlink:title=" ">
<path fill="none" stroke="#63b8ff" d="M1665.98,-165.86C1662.95,-165.54 1659.94,-165.24 1657,-165 1035.65,-113.23 873.5,-179.62 248.37,-129"/>
<polygon fill="#63b8ff" stroke="#63b8ff" points="248.45,-125.49 238.2,-128.17 247.88,-132.47 248.45,-125.49"/>
</a>
</g>
</g>
<!-- Node15 -->
<g id="Node000015" class="node">
<title>Node15</title>
<g id="a_Node000015"><a xlink:href="linux_8h.html" target="_top" xlink:title=" ">
<polygon fill="white" stroke="#666666" points="360,-129 256,-129 256,-110 360,-110 360,-129"/>
<text text-anchor="middle" x="308" y="-117" font-family="Helvetica,sans-Serif" font-size="10.00">compat/os/linux.h</text>
</a>
</g>
</g>
<!-- Node5&#45;&gt;Node15 -->
<g id="edge14_Node000005_Node000015" class="edge">
<title>Node5&#45;&gt;Node15</title>
<g id="a_edge14_Node000005_Node000015"><a xlink:title=" ">
<path fill="none" stroke="#63b8ff" d="M1665.98,-165.87C1662.95,-165.54 1659.94,-165.25 1657,-165 1089.71,-117.04 941.42,-175.89 370.34,-129"/>
<polygon fill="#63b8ff" stroke="#63b8ff" points="370.46,-125.5 360.2,-128.16 369.88,-132.47 370.46,-125.5"/>
</a>
</g>
</g>
<!-- Node16 -->
<g id="Node000016" class="node">
<title>Node16</title>
<g id="a_Node000016"><a xlink:href="macosx_8h.html" target="_top" xlink:title=" ">
<polygon fill="white" stroke="#666666" points="496,-129 378,-129 378,-110 496,-110 496,-129"/>
<text text-anchor="middle" x="437" y="-117" font-family="Helvetica,sans-Serif" font-size="10.00">compat/os/macosx.h</text>
</a>
</g>
</g>
<!-- Node5&#45;&gt;Node16 -->
<g id="edge15_Node000005_Node000016" class="edge">
<title>Node5&#45;&gt;Node16</title>
<g id="a_edge15_Node000005_Node000016"><a xlink:title=" ">
<path fill="none" stroke="#63b8ff" d="M1665.98,-165.88C1662.95,-165.55 1659.93,-165.25 1657,-165 1150.01,-121.3 1017.44,-168.19 506.53,-129.03"/>
<polygon fill="#63b8ff" stroke="#63b8ff" points="506.55,-125.53 496.31,-128.24 506.01,-132.5 506.55,-125.53"/>
</a>
</g>
</g>
<!-- Node17 -->
<g id="Node000017" class="node">
<title>Node17</title>
<g id="a_Node000017"><a xlink:href="mingw_8h.html" target="_top" xlink:title=" ">
<polygon fill="white" stroke="#666666" points="626,-129 514,-129 514,-110 626,-110 626,-129"/>
<text text-anchor="middle" x="570" y="-117" font-family="Helvetica,sans-Serif" font-size="10.00">compat/os/mingw.h</text>
</a>
</g>
</g>
<!-- Node5&#45;&gt;Node17 -->
<g id="edge16_Node000005_Node000017" class="edge">
<title>Node5&#45;&gt;Node17</title>
<g id="a_edge16_Node000005_Node000017"><a xlink:title=" ">
<path fill="none" stroke="#63b8ff" d="M1665.98,-165.9C1662.94,-165.56 1659.93,-165.26 1657,-165 1207.57,-125.36 1089.68,-165.91 636.42,-129.03"/>
<polygon fill="#63b8ff" stroke="#63b8ff" points="636.59,-125.53 626.34,-128.2 636.01,-132.51 636.59,-125.53"/>
</a>
</g>
</g>
<!-- Node18 -->
<g id="Node000018" class="node">
<title>Node18</title>
<g id="a_Node000018"><a xlink:href="mswindows_8h.html" target="_top" xlink:title=" ">
<polygon fill="white" stroke="#666666" points="781.5,-129 644.5,-129 644.5,-110 781.5,-110 781.5,-129"/>
<text text-anchor="middle" x="713" y="-117" font-family="Helvetica,sans-Serif" font-size="10.00">compat/os/mswindows.h</text>
</a>
</g>
</g>
<!-- Node5&#45;&gt;Node18 -->
<g id="edge17_Node000005_Node000018" class="edge">
<title>Node5&#45;&gt;Node18</title>
<g id="a_edge17_Node000005_Node000018"><a xlink:title=" ">
<path fill="none" stroke="#63b8ff" d="M1665.98,-165.92C1662.94,-165.58 1659.93,-165.27 1657,-165 1276.22,-130.21 1176.26,-157.7 791.83,-129.09"/>
<polygon fill="#63b8ff" stroke="#63b8ff" points="792.06,-125.59 781.83,-128.33 791.53,-132.57 792.06,-125.59"/>
</a>
</g>
</g>
<!-- Node19 -->
<g id="Node000019" class="node">
<title>Node19</title>
<g id="a_Node000019"><a xlink:href="netbsd_8h.html" target="_top" xlink:title=" ">
<polygon fill="white" stroke="#666666" points="912.5,-129 799.5,-129 799.5,-110 912.5,-110 912.5,-129"/>
<text text-anchor="middle" x="856" y="-117" font-family="Helvetica,sans-Serif" font-size="10.00">compat/os/netbsd.h</text>
</a>
</g>
</g>
<!-- Node5&#45;&gt;Node19 -->
<g id="edge18_Node000005_Node000019" class="edge">
<title>Node5&#45;&gt;Node19</title>
<g id="a_edge18_Node000005_Node000019"><a xlink:title=" ">
<path fill="none" stroke="#63b8ff" d="M1665.97,-165.95C1662.94,-165.6 1659.93,-165.28 1657,-165 1334.31,-134.32 1248.94,-157.77 922.9,-129.1"/>
<polygon fill="#63b8ff" stroke="#63b8ff" points="922.96,-125.59 912.69,-128.19 922.34,-132.56 922.96,-125.59"/>
</a>
</g>
</g>
<!-- Node20 -->
<g id="Node000020" class="node">
<title>Node20</title>
<g id="a_Node000020"><a xlink:href="openbsd_8h.html" target="_top" xlink:title=" ">
<polygon fill="white" stroke="#666666" points="1051.5,-129 930.5,-129 930.5,-110 1051.5,-110 1051.5,-129"/>
<text text-anchor="middle" x="991" y="-117" font-family="Helvetica,sans-Serif" font-size="10.00">compat/os/openbsd.h</text>
</a>
</g>
</g>
<!-- Node5&#45;&gt;Node20 -->
<g id="edge19_Node000005_Node000020" class="edge">
<title>Node5&#45;&gt;Node20</title>
<g id="a_edge19_Node000005_Node000020"><a xlink:title=" ">
<path fill="none" stroke="#63b8ff" d="M1665.97,-165.99C1662.94,-165.63 1659.93,-165.3 1657,-165 1395.88,-138.67 1326.46,-152.89 1061.86,-129.11"/>
<polygon fill="#63b8ff" stroke="#63b8ff" points="1061.83,-125.6 1051.56,-128.18 1061.2,-132.57 1061.83,-125.6"/>
</a>
</g>
</g>
<!-- Node21 -->
<g id="Node000021" class="node">
<title>Node21</title>
<g id="a_Node000021"><a xlink:href="os2_8h.html" target="_top" xlink:title=" ">
<polygon fill="white" stroke="#666666" points="1166.5,-129 1069.5,-129 1069.5,-110 1166.5,-110 1166.5,-129"/>
<text text-anchor="middle" x="1118" y="-117" font-family="Helvetica,sans-Serif" font-size="10.00">compat/os/os2.h</text>
</a>
</g>
</g>
<!-- Node5&#45;&gt;Node21 -->
<g id="edge20_Node000005_Node000021" class="edge">
<title>Node5&#45;&gt;Node21</title>
<g id="a_edge20_Node000005_Node000021"><a xlink:title=" ">
<path fill="none" stroke="#63b8ff" d="M1665.97,-166.04C1662.93,-165.67 1659.93,-165.32 1657,-165 1447.09,-142.3 1390.77,-152.24 1176.69,-128.99"/>
<polygon fill="#63b8ff" stroke="#63b8ff" points="1177.02,-125.5 1166.7,-127.89 1176.26,-132.46 1177.02,-125.5"/>
</a>
</g>
</g>
<!-- Node22 -->
<g id="Node000022" class="node">
<title>Node22</title>
<g id="a_Node000022"><a xlink:href="qnx_8h.html" target="_top" xlink:title=" ">
<polygon fill="white" stroke="#666666" points="1283,-129 1185,-129 1185,-110 1283,-110 1283,-129"/>
<text text-anchor="middle" x="1234" y="-117" font-family="Helvetica,sans-Serif" font-size="10.00">compat/os/qnx.h</text>
</a>
</g>
</g>
<!-- Node5&#45;&gt;Node22 -->
<g id="edge21_Node000005_Node000022" class="edge">
<title>Node5&#45;&gt;Node22</title>
<g id="a_edge21_Node000005_Node000022"><a xlink:title=" ">
<path fill="none" stroke="#63b8ff" d="M1665.96,-166.12C1662.93,-165.73 1659.92,-165.35 1657,-165 1498.47,-145.96 1455.55,-148.7 1293.37,-129.11"/>
<polygon fill="#63b8ff" stroke="#63b8ff" points="1293.38,-125.59 1283.03,-127.85 1292.53,-132.53 1293.38,-125.59"/>
</a>
</g>
</g>
<!-- Node23 -->
<g id="Node000023" class="node">
<title>Node23</title>
<g id="a_Node000023"><a xlink:href="sgi_8h.html" target="_top" xlink:title=" ">
<polygon fill="white" stroke="#666666" points="1395,-129 1301,-129 1301,-110 1395,-110 1395,-129"/>
<text text-anchor="middle" x="1348" y="-117" font-family="Helvetica,sans-Serif" font-size="10.00">compat/os/sgi.h</text>
</a>
</g>
</g>
<!-- Node5&#45;&gt;Node23 -->
<g id="edge22_Node000005_Node000023" class="edge">
<title>Node5&#45;&gt;Node23</title>
<g id="a_edge22_Node000005_Node000023"><a xlink:title=" ">
<path fill="none" stroke="#63b8ff" d="M1665.92,-166.26C1590.28,-155.55 1453.02,-136.08 1405.19,-129.15"/>
<polygon fill="#63b8ff" stroke="#63b8ff" points="1405.45,-125.65 1395.05,-127.67 1404.44,-132.58 1405.45,-125.65"/>
</a>
</g>
</g>
<!-- Node24 -->
<g id="Node000024" class="node">
<title>Node24</title>
<g id="a_Node000024"><a xlink:href="solaris_8h.html" target="_top" xlink:title=" ">
<polygon fill="white" stroke="#666666" points="1525,-129 1413,-129 1413,-110 1525,-110 1525,-129"/>
<text text-anchor="middle" x="1469" y="-117" font-family="Helvetica,sans-Serif" font-size="10.00">compat/os/solaris.h</text>
</a>
</g>
</g>
<!-- Node5&#45;&gt;Node24 -->
<g id="edge23_Node000005_Node000024" class="edge">
<title>Node5&#45;&gt;Node24</title>
<g id="a_edge23_Node000005_Node000024"><a xlink:title=" ">
<path fill="none" stroke="#63b8ff" d="M1677.15,-164.98C1634.17,-155.8 1565.63,-141.15 1519.04,-131.19"/>
<polygon fill="#63b8ff" stroke="#63b8ff" points="1519.67,-127.75 1509.16,-129.08 1518.21,-134.59 1519.67,-127.75"/>
</a>
</g>
</g>
<!-- Node25 -->
<g id="Node000025" class="node">
<title>Node25</title>
<g id="a_Node000025"><a xlink:href="sunos_8h.html" target="_top" xlink:title=" ">
<polygon fill="white" stroke="#666666" points="1651,-129 1543,-129 1543,-110 1651,-110 1651,-129"/>
<text text-anchor="middle" x="1597" y="-117" font-family="Helvetica,sans-Serif" font-size="10.00">compat/os/sunos.h</text>
</a>
</g>
</g>
<!-- Node5&#45;&gt;Node25 -->
<g id="edge24_Node000005_Node000025" class="edge">
<title>Node5&#45;&gt;Node25</title>
<g id="a_edge24_Node000005_Node000025"><a xlink:title=" ">
<path fill="none" stroke="#63b8ff" d="M1697.72,-164.98C1678.33,-156.42 1648.19,-143.11 1625.93,-133.28"/>
<polygon fill="#63b8ff" stroke="#63b8ff" points="1627.19,-130.01 1616.63,-129.17 1624.36,-136.41 1627.19,-130.01"/>
</a>
</g>
</g>
<!-- Node26 -->
<g id="Node000026" class="node">
<title>Node26</title>
<g id="a_Node000026"><a xlink:href="assert_8h.html" target="_top" xlink:title=" ">
<polygon fill="white" stroke="#666666" points="1764.5,-129 1669.5,-129 1669.5,-110 1764.5,-110 1764.5,-129"/>
<text text-anchor="middle" x="1717" y="-117" font-family="Helvetica,sans-Serif" font-size="10.00">compat/assert.h</text>
</a>
</g>
</g>
<!-- Node5&#45;&gt;Node26 -->
<g id="edge25_Node000005_Node000026" class="edge">
<title>Node5&#45;&gt;Node26</title>
<g id="a_edge25_Node000005_Node000026"><a xlink:title=" ">
<path fill="none" stroke="#63b8ff" d="M1717,-164.75C1717,-157.8 1717,-147.85 1717,-139.13"/>
<polygon fill="#63b8ff" stroke="#63b8ff" points="1720.5,-139.09 1717,-129.09 1713.5,-139.09 1720.5,-139.09"/>
</a>
</g>
</g>
<!-- Node27 -->
<g id="Node000027" class="node">
<title>Node27</title>
<g id="a_Node000027"><a xlink:href="compat__shared_8h.html" target="_top" xlink:title=" ">
<polygon fill="#fff0f0" stroke="red" points="1923,-129 1783,-129 1783,-110 1923,-110 1923,-129"/>
<text text-anchor="middle" x="1853" y="-117" font-family="Helvetica,sans-Serif" font-size="10.00">compat/compat_shared.h</text>
</a>
</g>
</g>
<!-- Node5&#45;&gt;Node27 -->
<g id="edge26_Node000005_Node000027" class="edge">
<title>Node5&#45;&gt;Node27</title>
<g id="a_edge26_Node000005_Node000027"><a xlink:title=" ">
<path fill="none" stroke="#63b8ff" d="M1738.85,-164.98C1761.12,-156.3 1795.9,-142.75 1821.22,-132.88"/>
<polygon fill="#63b8ff" stroke="#63b8ff" points="1822.71,-136.06 1830.75,-129.17 1820.16,-129.54 1822.71,-136.06"/>
</a>
</g>
</g>
<!-- Node37 -->
<g id="Node000037" class="node">
<title>Node37</title>
<g id="a_Node000037"><a xlink:href="stdvarargs_8h.html" target="_top" xlink:title=" ">
<polygon fill="#fff0f0" stroke="red" points="2058.5,-129 1941.5,-129 1941.5,-110 2058.5,-110 2058.5,-129"/>
<text text-anchor="middle" x="2000" y="-117" font-family="Helvetica,sans-Serif" font-size="10.00">compat/stdvarargs.h</text>
</a>
</g>
</g>
<!-- Node5&#45;&gt;Node37 -->
<g id="edge30_Node000005_Node000037" class="edge">
<title>Node5&#45;&gt;Node37</title>
<g id="a_edge30_Node000005_Node000037"><a xlink:title=" ">
<path fill="none" stroke="#63b8ff" d="M1762.47,-164.98C1811.94,-155.72 1891.05,-140.9 1944.23,-130.94"/>
<polygon fill="#63b8ff" stroke="#63b8ff" points="1944.99,-134.36 1954.17,-129.08 1943.7,-127.48 1944.99,-134.36"/>
</a>
</g>
</g>
<!-- Node39 -->
<g id="Node000039" class="node">
<title>Node39</title>
<g id="a_Node000039"><a xlink:href="stdio_8h.html" target="_top" xlink:title=" ">
<polygon fill="#fff0f0" stroke="red" points="2165.5,-129 2076.5,-129 2076.5,-110 2165.5,-110 2165.5,-129"/>
<text text-anchor="middle" x="2121" y="-117" font-family="Helvetica,sans-Serif" font-size="10.00">compat/stdio.h</text>
</a>
</g>
</g>
<!-- Node5&#45;&gt;Node39 -->
<g id="edge31_Node000005_Node000039" class="edge">
<title>Node5&#45;&gt;Node39</title>
<g id="a_edge31_Node000005_Node000039"><a xlink:title=" ">
<path fill="none" stroke="#63b8ff" d="M1768.07,-167.49C1834.29,-159.59 1953.62,-144.98 2066.07,-129.09"/>
<polygon fill="#63b8ff" stroke="#63b8ff" points="2066.82,-132.52 2076.23,-127.65 2065.83,-125.59 2066.82,-132.52"/>
</a>
</g>
</g>
<!-- Node41 -->
<g id="Node000041" class="node">
<title>Node41</title>
<g id="a_Node000041"><a xlink:href="statvfs_8h.html" target="_top" xlink:title=" ">
<polygon fill="white" stroke="#666666" points="2282.5,-129 2183.5,-129 2183.5,-110 2282.5,-110 2282.5,-129"/>
<text text-anchor="middle" x="2233" y="-117" font-family="Helvetica,sans-Serif" font-size="10.00">compat/statvfs.h</text>
</a>
</g>
</g>
<!-- Node5&#45;&gt;Node41 -->
<g id="edge32_Node000005_Node000041" class="edge">
<title>Node5&#45;&gt;Node41</title>
<g id="a_edge32_Node000005_Node000041"><a xlink:title=" ">
<path fill="none" stroke="#63b8ff" d="M1768.14,-169.29C1850.9,-162.32 2019.55,-147.4 2173.34,-129.02"/>
<polygon fill="#63b8ff" stroke="#63b8ff" points="2173.94,-132.48 2183.45,-127.81 2173.1,-125.53 2173.94,-132.48"/>
</a>
</g>
</g>
<!-- Node42 -->
<g id="Node000042" class="node">
<title>Node42</title>
<g id="a_Node000042"><a xlink:href="debug_8h.html" target="_top" xlink:title=" ">
<polygon fill="white" stroke="#666666" points="2395.5,-129 2300.5,-129 2300.5,-110 2395.5,-110 2395.5,-129"/>
<text text-anchor="middle" x="2348" y="-117" font-family="Helvetica,sans-Serif" font-size="10.00">compat/debug.h</text>
</a>
</g>
</g>
<!-- Node5&#45;&gt;Node42 -->
<g id="edge33_Node000005_Node000042" class="edge">
<title>Node5&#45;&gt;Node42</title>
<g id="a_edge33_Node000005_Node000042"><a xlink:title=" ">
<path fill="none" stroke="#63b8ff" d="M1768.18,-170.75C1866.96,-165.18 2090.97,-151.25 2290.37,-128.98"/>
<polygon fill="#63b8ff" stroke="#63b8ff" points="2290.9,-132.45 2300.45,-127.85 2290.12,-125.49 2290.9,-132.45"/>
</a>
</g>
</g>
<!-- Node43 -->
<g id="Node000043" class="node">
<title>Node43</title>
<g id="a_Node000043"><a xlink:href="valgrind_8h.html" target="_top" xlink:title=" ">
<polygon fill="#fff0f0" stroke="red" points="2518.5,-129 2413.5,-129 2413.5,-110 2518.5,-110 2518.5,-129"/>
<text text-anchor="middle" x="2466" y="-117" font-family="Helvetica,sans-Serif" font-size="10.00">compat/valgrind.h</text>
</a>
</g>
</g>
<!-- Node5&#45;&gt;Node43 -->
<g id="edge34_Node000005_Node000043" class="edge">
<title>Node5&#45;&gt;Node43</title>
<g id="a_edge34_Node000005_Node000043"><a xlink:title=" ">
<path fill="none" stroke="#63b8ff" d="M1768.38,-171.43C1881.21,-166.61 2159.31,-153.26 2403.15,-129.01"/>
<polygon fill="#63b8ff" stroke="#63b8ff" points="2403.66,-132.47 2413.27,-127.99 2402.97,-125.51 2403.66,-132.47"/>
</a>
</g>
</g>
<!-- Node9 -->
<g id="Node000009" class="node">
<title>Node9</title>
<g id="a_Node000009"><a xlink:title=" ">
<polygon fill="#e0e0e0" stroke="#999999" points="2861,-74 2811,-74 2811,-55 2861,-55 2861,-74"/>
<text text-anchor="middle" x="2836" y="-62" font-family="Helvetica,sans-Serif" font-size="10.00">cstdint</text>
</a>
</g>
</g>
<!-- Node8&#45;&gt;Node9 -->
<g id="edge8_Node000008_Node000009" class="edge">
<title>Node8&#45;&gt;Node9</title>
<g id="a_edge8_Node000008_Node000009"><a xlink:title=" ">
<path fill="none" stroke="#63b8ff" d="M2836,-109.75C2836,-102.8 2836,-92.85 2836,-84.13"/>
<polygon fill="#63b8ff" stroke="#63b8ff" points="2839.5,-84.09 2836,-74.09 2832.5,-84.09 2839.5,-84.09"/>
</a>
</g>
</g>
<!-- Node28 -->
<g id="Node000028" class="node">
<title>Node28</title>
<g id="a_Node000028"><a xlink:title=" ">
<polygon fill="#e0e0e0" stroke="#999999" points="1787.5,-74 1736.5,-74 1736.5,-55 1787.5,-55 1787.5,-74"/>
<text text-anchor="middle" x="1762" y="-62" font-family="Helvetica,sans-Serif" font-size="10.00">csignal</text>
</a>
</g>
</g>
<!-- Node27&#45;&gt;Node28 -->
<g id="edge27_Node000027_Node000028" class="edge">
<title>Node27&#45;&gt;Node28</title>
<g id="a_edge27_Node000027_Node000028"><a xlink:title=" ">
<path fill="none" stroke="#63b8ff" d="M1838.38,-109.98C1824.14,-101.69 1802.25,-88.94 1785.55,-79.22"/>
<polygon fill="#63b8ff" stroke="#63b8ff" points="1787.29,-76.18 1776.89,-74.17 1783.77,-82.23 1787.29,-76.18"/>
</a>
</g>
</g>
<!-- Node29 -->
<g id="Node000029" class="node">
<title>Node29</title>
<g id="a_Node000029"><a xlink:href="xalloc_8h.html" target="_top" xlink:title=" ">
<polygon fill="white" stroke="#666666" points="1900.5,-74 1805.5,-74 1805.5,-55 1900.5,-55 1900.5,-74"/>
<text text-anchor="middle" x="1853" y="-62" font-family="Helvetica,sans-Serif" font-size="10.00">compat/xalloc.h</text>
</a>
</g>
</g>
<!-- Node27&#45;&gt;Node29 -->
<g id="edge28_Node000027_Node000029" class="edge">
<title>Node27&#45;&gt;Node29</title>
<g id="a_edge28_Node000027_Node000029"><a xlink:title=" ">
<path fill="none" stroke="#63b8ff" d="M1853,-109.75C1853,-102.8 1853,-92.85 1853,-84.13"/>
<polygon fill="#63b8ff" stroke="#63b8ff" points="1856.5,-84.09 1853,-74.09 1849.5,-84.09 1856.5,-84.09"/>
</a>
</g>
</g>
<!-- Node30 -->
<g id="Node000030" class="node">
<title>Node30</title>
<g id="a_Node000030"><a xlink:href="xis_8h.html" target="_top" xlink:title=" ">
<polygon fill="#fff0f0" stroke="red" points="1999,-74 1919,-74 1919,-55 1999,-55 1999,-74"/>
<text text-anchor="middle" x="1959" y="-62" font-family="Helvetica,sans-Serif" font-size="10.00">compat/xis.h</text>
</a>
</g>
</g>
<!-- Node27&#45;&gt;Node30 -->
<g id="edge29_Node000027_Node000030" class="edge">
<title>Node27&#45;&gt;Node30</title>
<g id="a_edge29_Node000027_Node000030"><a xlink:title=" ">
<path fill="none" stroke="#63b8ff" d="M1870.03,-109.98C1886.93,-101.54 1913.06,-88.47 1932.64,-78.68"/>
<polygon fill="#63b8ff" stroke="#63b8ff" points="1934.28,-81.77 1941.66,-74.17 1931.15,-75.51 1934.28,-81.77"/>
</a>
</g>
</g>
<!-- Node46 -->
<g id="Node000046" class="node">
<title>Node46</title>
<g id="a_Node000046"><a xlink:href="Range_8h.html" target="_top" xlink:title=" ">
<polygon fill="white" stroke="#666666" points="3495.5,-129 3412.5,-129 3412.5,-110 3495.5,-110 3495.5,-129"/>
<text text-anchor="middle" x="3454" y="-117" font-family="Helvetica,sans-Serif" font-size="10.00">base/Range.h</text>
</a>
</g>
</g>
<!-- Node45&#45;&gt;Node46 -->
<g id="edge36_Node000045_Node000046" class="edge">
<title>Node45&#45;&gt;Node46</title>
<g id="a_edge36_Node000045_Node000046"><a xlink:title=" ">
<path fill="none" stroke="#63b8ff" d="M3387.02,-219.76C3398.98,-211.71 3415.95,-198.79 3427,-184 3437.08,-170.51 3444.24,-152.68 3448.64,-139.35"/>
<polygon fill="#63b8ff" stroke="#63b8ff" points="3452.1,-139.99 3451.69,-129.4 3445.41,-137.93 3452.1,-139.99"/>
</a>
</g>
</g>
<!-- Node49 -->
<g id="Node000049" class="node">
<title>Node49</title>
<g id="a_Node000049"><a xlink:href="defines_8h.html" target="_top" xlink:title=" ">
<polygon fill="white" stroke="#666666" points="3271.5,-184 3210.5,-184 3210.5,-165 3271.5,-165 3271.5,-184"/>
<text text-anchor="middle" x="3241" y="-172" font-family="Helvetica,sans-Serif" font-size="10.00">defines.h</text>
</a>
</g>
</g>
<!-- Node45&#45;&gt;Node49 -->
<g id="edge39_Node000045_Node000049" class="edge">
<title>Node45&#45;&gt;Node49</title>
<g id="a_edge39_Node000045_Node000049"><a xlink:title=" ">
<path fill="none" stroke="#63b8ff" d="M3351.79,-219.98C3330.27,-211.34 3296.72,-197.87 3272.17,-188.02"/>
<polygon fill="#63b8ff" stroke="#63b8ff" points="3273.18,-184.65 3262.59,-184.17 3270.57,-191.14 3273.18,-184.65"/>
</a>
</g>
</g>
<!-- Node50 -->
<g id="Node000050" class="node">
<title>Node50</title>
<g id="a_Node000050"><a xlink:href="mem_2forward_8h.html" target="_top" xlink:title=" ">
<polygon fill="white" stroke="#666666" points="3378,-74 3286,-74 3286,-55 3378,-55 3378,-74"/>
<text text-anchor="middle" x="3332" y="-62" font-family="Helvetica,sans-Serif" font-size="10.00">mem/forward.h</text>
</a>
</g>
</g>
<!-- Node45&#45;&gt;Node50 -->
<g id="edge40_Node000045_Node000050" class="edge">
<title>Node45&#45;&gt;Node50</title>
<g id="a_edge40_Node000045_Node000050"><a xlink:title=" ">
<path fill="none" stroke="#63b8ff" d="M3356.11,-219.95C3343.29,-212.43 3326.62,-200.15 3319,-184 3303.46,-151.06 3315.43,-107.42 3324.43,-83.35"/>
<polygon fill="#63b8ff" stroke="#63b8ff" points="3327.68,-84.63 3328.13,-74.05 3321.18,-82.04 3327.68,-84.63"/>
</a>
</g>
</g>
<!-- Node52 -->
<g id="Node000052" class="node">
<title>Node52</title>
<g id="a_Node000052"><a xlink:href="StoreIOBuffer_8h.html" target="_top" xlink:title=" ">
<polygon fill="white" stroke="#666666" points="3418,-184 3328,-184 3328,-165 3418,-165 3418,-184"/>
<text text-anchor="middle" x="3373" y="-172" font-family="Helvetica,sans-Serif" font-size="10.00">StoreIOBuffer.h</text>
</a>
</g>
</g>
<!-- Node45&#45;&gt;Node52 -->
<g id="edge43_Node000045_Node000052" class="edge">
<title>Node45&#45;&gt;Node52</title>
<g id="a_edge43_Node000045_Node000052"><a xlink:title=" ">
<path fill="none" stroke="#63b8ff" d="M3373,-219.75C3373,-212.8 3373,-202.85 3373,-194.13"/>
<polygon fill="#63b8ff" stroke="#63b8ff" points="3376.5,-194.09 3373,-184.09 3369.5,-194.09 3376.5,-194.09"/>
</a>
</g>
</g>
<!-- Node47 -->
<g id="Node000047" class="node">
<title>Node47</title>
<g id="a_Node000047"><a xlink:title=" ">
<polygon fill="#e0e0e0" stroke="#999999" points="3483,-19 3435,-19 3435,0 3483,0 3483,-19"/>
<text text-anchor="middle" x="3459" y="-7" font-family="Helvetica,sans-Serif" font-size="10.00">iosfwd</text>
</a>
</g>
</g>
<!-- Node46&#45;&gt;Node47 -->
<g id="edge37_Node000046_Node000047" class="edge">
<title>Node46&#45;&gt;Node47</title>
<g id="a_edge37_Node000046_Node000047"><a xlink:title=" ">
<path fill="none" stroke="#63b8ff" d="M3456.06,-109.7C3458.04,-100.77 3460.88,-86.51 3462,-74 3463.34,-59.02 3462.4,-41.99 3461.23,-29.34"/>
<polygon fill="#63b8ff" stroke="#63b8ff" points="3464.68,-28.72 3460.15,-19.14 3457.72,-29.46 3464.68,-28.72"/>
</a>
</g>
</g>
<!-- Node48 -->
<g id="Node000048" class="node">
<title>Node48</title>
<g id="a_Node000048"><a xlink:title=" ">
<polygon fill="#e0e0e0" stroke="#999999" points="3453.5,-74 3396.5,-74 3396.5,-55 3453.5,-55 3453.5,-74"/>
<text text-anchor="middle" x="3425" y="-62" font-family="Helvetica,sans-Serif" font-size="10.00">ostream</text>
</a>
</g>
</g>
<!-- Node46&#45;&gt;Node48 -->
<g id="edge38_Node000046_Node000048" class="edge">
<title>Node46&#45;&gt;Node48</title>
<g id="a_edge38_Node000046_Node000048"><a xlink:title=" ">
<path fill="none" stroke="#63b8ff" d="M3449.21,-109.75C3445.24,-102.49 3439.47,-91.95 3434.57,-82.98"/>
<polygon fill="#63b8ff" stroke="#63b8ff" points="3437.57,-81.18 3429.7,-74.09 3431.43,-84.54 3437.57,-81.18"/>
</a>
</g>
</g>
<!-- Node50&#45;&gt;Node47 -->
<g id="edge42_Node000050_Node000047" class="edge">
<title>Node50&#45;&gt;Node47</title>
<g id="a_edge42_Node000050_Node000047"><a xlink:title=" ">
<path fill="none" stroke="#63b8ff" d="M3352.4,-54.98C3373.02,-46.38 3405.11,-32.99 3428.69,-23.15"/>
<polygon fill="#63b8ff" stroke="#63b8ff" points="3430.34,-26.25 3438.22,-19.17 3427.65,-19.79 3430.34,-26.25"/>
</a>
</g>
</g>
<!-- Node51 -->
<g id="Node000051" class="node">
<title>Node51</title>
<g id="a_Node000051"><a xlink:href="AllocatorProxy_8h.html" target="_top" xlink:title=" ">
<polygon fill="white" stroke="#666666" points="3394,-19 3270,-19 3270,0 3394,0 3394,-19"/>
<text text-anchor="middle" x="3332" y="-7" font-family="Helvetica,sans-Serif" font-size="10.00">mem/AllocatorProxy.h</text>
</a>
</g>
</g>
<!-- Node50&#45;&gt;Node51 -->
<g id="edge41_Node000050_Node000051" class="edge">
<title>Node50&#45;&gt;Node51</title>
<g id="a_edge41_Node000050_Node000051"><a xlink:title=" ">
<path fill="none" stroke="#63b8ff" d="M3332,-54.75C3332,-47.8 3332,-37.85 3332,-29.13"/>
<polygon fill="#63b8ff" stroke="#63b8ff" points="3335.5,-29.09 3332,-19.09 3328.5,-29.09 3335.5,-29.09"/>
</a>
</g>
</g>
<!-- Node52&#45;&gt;Node46 -->
<g id="edge44_Node000052_Node000046" class="edge">
<title>Node52&#45;&gt;Node46</title>
<g id="a_edge44_Node000052_Node000046"><a xlink:title=" ">
<path fill="none" stroke="#63b8ff" d="M3386.01,-164.98C3398.46,-156.84 3417.46,-144.41 3432.21,-134.76"/>
<polygon fill="#63b8ff" stroke="#63b8ff" points="3434.3,-137.57 3440.75,-129.17 3430.46,-131.72 3434.3,-137.57"/>
</a>
</g>
</g>
<!-- Node53 -->
<g id="Node000053" class="node">
<title>Node53</title>
<g id="a_Node000053"><a xlink:href="MemBuf_8h.html" target="_top" xlink:title=" ">
<polygon fill="#fff0f0" stroke="red" points="3394,-129 3328,-129 3328,-110 3394,-110 3394,-129"/>
<text text-anchor="middle" x="3361" y="-117" font-family="Helvetica,sans-Serif" font-size="10.00">MemBuf.h</text>
</a>
</g>
</g>
<!-- Node52&#45;&gt;Node53 -->
<g id="edge45_Node000052_Node000053" class="edge">
<title>Node52&#45;&gt;Node53</title>
<g id="a_edge45_Node000052_Node000053"><a xlink:title=" ">
<path fill="none" stroke="#63b8ff" d="M3371.02,-164.75C3369.43,-157.72 3367.14,-147.62 3365.15,-138.84"/>
<polygon fill="#63b8ff" stroke="#63b8ff" points="3368.57,-138.07 3362.94,-129.09 3361.74,-139.62 3368.57,-138.07"/>
</a>
</g>
</g>
<!-- Node53&#45;&gt;Node50 -->
<g id="edge46_Node000053_Node000050" class="edge">
<title>Node53&#45;&gt;Node50</title>
<g id="a_edge46_Node000053_Node000050"><a xlink:title=" ">
<path fill="none" stroke="#63b8ff" d="M3356.21,-109.75C3352.24,-102.49 3346.47,-91.95 3341.57,-82.98"/>
<polygon fill="#63b8ff" stroke="#63b8ff" points="3344.57,-81.18 3336.7,-74.09 3338.43,-84.54 3344.57,-81.18"/>
</a>
</g>
</g>
<!-- Node56&#45;&gt;Node46 -->
<g id="edge48_Node000056_Node000046" class="edge">
<title>Node56&#45;&gt;Node46</title>
<g id="a_edge48_Node000056_Node000046"><a xlink:title=" ">
<path fill="none" stroke="#63b8ff" d="M3470.53,-219.66C3467.61,-202.17 3461.05,-162.8 3457.13,-139.27"/>
<polygon fill="#63b8ff" stroke="#63b8ff" points="3460.54,-138.45 3455.44,-129.16 3453.63,-139.6 3460.54,-138.45"/>
</a>
</g>
</g>
<!-- Node57 -->
<g id="Node000057" class="node">
<title>Node57</title>
<g id="a_Node000057"><a xlink:href="splay_8h.html" target="_top" xlink:title=" ">
<polygon fill="white" stroke="#666666" points="3593,-184 3543,-184 3543,-165 3593,-165 3593,-184"/>
<text text-anchor="middle" x="3568" y="-172" font-family="Helvetica,sans-Serif" font-size="10.00">splay.h</text>
</a>
</g>
</g>
<!-- Node56&#45;&gt;Node57 -->
<g id="edge49_Node000056_Node000057" class="edge">
<title>Node56&#45;&gt;Node57</title>
<g id="a_edge49_Node000056_Node000057"><a xlink:title=" ">
<path fill="none" stroke="#63b8ff" d="M3487.42,-219.98C3502.45,-211.69 3525.54,-198.94 3543.16,-189.22"/>
<polygon fill="#63b8ff" stroke="#63b8ff" points="3545.23,-192.07 3552.3,-184.17 3541.85,-185.94 3545.23,-192.07"/>
</a>
</g>
</g>
<!-- Node58 -->
<g id="Node000058" class="node">
<title>Node58</title>
<g id="a_Node000058"><a xlink:href="fatal_8h.html" target="_top" xlink:title=" ">
<polygon fill="white" stroke="#666666" points="3623,-129 3575,-129 3575,-110 3623,-110 3623,-129"/>
<text text-anchor="middle" x="3599" y="-117" font-family="Helvetica,sans-Serif" font-size="10.00">fatal.h</text>
</a>
</g>
</g>
<!-- Node57&#45;&gt;Node58 -->
<g id="edge50_Node000057_Node000058" class="edge">
<title>Node57&#45;&gt;Node58</title>
<g id="a_edge50_Node000057_Node000058"><a xlink:title=" ">
<path fill="none" stroke="#63b8ff" d="M3573.12,-164.75C3577.36,-157.49 3583.53,-146.95 3588.78,-137.98"/>
<polygon fill="#63b8ff" stroke="#63b8ff" points="3591.95,-139.49 3593.98,-129.09 3585.91,-135.95 3591.95,-139.49"/>
</a>
</g>
</g>
<!-- Node59 -->
<g id="Node000059" class="node">
<title>Node59</title>
<g id="a_Node000059"><a xlink:title=" ">
<polygon fill="#e0e0e0" stroke="#999999" points="3694.5,-129 3641.5,-129 3641.5,-110 3694.5,-110 3694.5,-129"/>
<text text-anchor="middle" x="3668" y="-117" font-family="Helvetica,sans-Serif" font-size="10.00">cstddef</text>
</a>
</g>
</g>
<!-- Node57&#45;&gt;Node59 -->
<g id="edge51_Node000057_Node000059" class="edge">
<title>Node57&#45;&gt;Node59</title>
<g id="a_edge51_Node000057_Node000059"><a xlink:title=" ">
<path fill="none" stroke="#63b8ff" d="M3584.07,-164.98C3599.86,-156.61 3624.22,-143.7 3642.63,-133.95"/>
<polygon fill="#63b8ff" stroke="#63b8ff" points="3644.44,-136.95 3651.64,-129.17 3641.17,-130.76 3644.44,-136.95"/>
</a>
</g>
</g>
<!-- Node60 -->
<g id="Node000060" class="node">
<title>Node60</title>
<g id="a_Node000060"><a xlink:title=" ">
<polygon fill="#e0e0e0" stroke="#999999" points="3556.5,-129 3513.5,-129 3513.5,-110 3556.5,-110 3556.5,-129"/>
<text text-anchor="middle" x="3535" y="-117" font-family="Helvetica,sans-Serif" font-size="10.00">stack</text>
</a>
</g>
</g>
<!-- Node57&#45;&gt;Node60 -->
<g id="edge52_Node000057_Node000060" class="edge">
<title>Node57&#45;&gt;Node60</title>
<g id="a_edge52_Node000057_Node000060"><a xlink:title=" ">
<path fill="none" stroke="#63b8ff" d="M3562.55,-164.75C3557.99,-157.42 3551.33,-146.73 3545.71,-137.7"/>
<polygon fill="#63b8ff" stroke="#63b8ff" points="3548.6,-135.73 3540.35,-129.09 3542.66,-139.43 3548.6,-135.73"/>
</a>
</g>
</g>
</g>
</svg>

<g id="navigator" transform="translate(0 0)" fill="#404254">
  <rect fill="#f2f5e9" fill-opacity="0.5" stroke="#606060" stroke-width=".5" x="0" y="0" width="60" height="60"/>
  <use id="zoomplus" xlink:href="#zoomPlus" x="17" y="9" onmousedown="handleZoom(evt,'in')"/>
  <use id="zoomminus" xlink:href="#zoomMin" x="42" y="9" onmousedown="handleZoom(evt,'out')"/>
  <use id="reset" xlink:href="#resetDef" x="30" y="36" onmousedown="handleReset()"/>
   <use id="arrowup" xlink:href="#arrowUp" x="0" y="0" onmousedown="handlePan(0,-1)"/>
  <use id="arrowright" xlink:href="#arrowRight" x="0" y="0" onmousedown="handlePan(1,0)"/>
  <use id="arrowdown" xlink:href="#arrowDown" x="0" y="0" onmousedown="handlePan(0,1)"/>
  <use id="arrowleft" xlink:href="#arrowLeft" x="0" y="0" onmousedown="handlePan(-1,0)"/>
</g>
<svg viewBox="0 0 15 15" width="100%" height="30px" preserveAspectRatio="xMaxYMin meet">
 <g id="arrow_out" transform="scale(0.3 0.3)">
  <a xlink:href="syntheticoperators_8cc__incl_org.svg" target="_base">
   <rect id="button" ry="5" rx="5" y="6" x="6" height="38" width="38"
        fill="#f2f5e9" fill-opacity="0.5" stroke="#606060" stroke-width="1.0"/>
   <path id="arrow"
     d="M 11.500037,31.436501 C 11.940474,20.09759 22.043105,11.32322 32.158766,21.979434 L 37.068811,17.246167 C 37.068811,17.246167 37.088388,32 37.088388,32 L 22.160133,31.978069 C 22.160133,31.978069 26.997745,27.140456 26.997745,27.140456 C 18.528582,18.264221 13.291696,25.230495 11.500037,31.436501 z"
     style="fill:#404040;"/>
  </a>
 </g>
</svg>

<style type='text/css'>
<![CDATA[
[data-mouse-over-selected='false'] { opacity: 0.7; }
[data-mouse-over-selected='true']  { opacity: 1.0; }
]]>
</style>
<script type="application/ecmascript"><![CDATA[
document.addEventListener('DOMContentLoaded', (event) => {
  highlightEdges();
  highlightAdjacentNodes();
});
]]></script>
</svg>
