<?xml version="1.0" encoding="UTF-8" standalone="no"?>
<!DOCTYPE svg PUBLIC "-//W3C//DTD SVG 1.1//EN"
 "http://www.w3.org/Graphics/SVG/1.1/DTD/svg11.dtd">
<!-- Generated by graphviz version 2.43.0 (0)
 -->
<!-- Title: squid/test&#45;suite/syntheticoperators.cc Pages: 1 -->
<!--zoomable 302 -->

<svg id="main" version="1.1" xmlns="http://www.w3.org/2000/svg" xmlns:xlink="http://www.w3.org/1999/xlink" xml:space="preserve" onload="init(evt)">
<style type="text/css"><![CDATA[
.node, .edge {opacity: 0.7;}
.node.selected, .edge.selected {opacity: 1;}
.edge:hover path { stroke: red; }
.edge:hover polygon { stroke: red; fill: red; }
]]></style>

<defs>
  <circle id="rim" cx="0" cy="0" r="7"/>
  <circle id="rim2" cx="0" cy="0" r="3.5"/>
  <g id="zoomPlus">
    <use xlink:href="#rim" fill="#404040"><set attributeName="fill" to="#808080" begin="zoomplus.mouseover" end="zoomplus.mouseout"/></use>
    <path d="M-4,0h8M0,-4v8" fill="none" stroke="white" stroke-width="1.5" pointer-events="none"/>
  </g>
  <g id="zoomMin">
    <use xlink:href="#rim" fill="#404040"><set attributeName="fill" to="#808080" begin="zoomminus.mouseover" end="zoomminus.mouseout"/></use>
    <path d="M-4,0h8" fill="none" stroke="white" stroke-width="1.5" pointer-events="none"/>
  </g>
  <g id="arrowUp" transform="translate(30 24)">
    <use xlink:href="#rim"/>
    <path pointer-events="none" fill="none" stroke="white" stroke-width="1.5" d="M0,-3.0v7 M-2.5,-0.5L0,-3.0L2.5,-0.5"/>
  </g>
  <g id="arrowRight" transform="rotate(90) translate(36 -43)">
    <use xlink:href="#rim"/>
    <path pointer-events="none" fill="none" stroke="white" stroke-width="1.5" d="M0,-3.0v7 M-2.5,-0.5L0,-3.0L2.5,-0.5"/>
  </g>
  <g id="arrowDown" transform="rotate(180) translate(-30 -48)">
    <use xlink:href="#rim"/>
    <path pointer-events="none" fill="none" stroke="white" stroke-width="1.5" d="M0,-3.0v7 M-2.5,-0.5L0,-3.0L2.5,-0.5"/>
  </g>
  <g id="arrowLeft" transform="rotate(270) translate(-36 17)">
    <use xlink:href="#rim"/>
    <path pointer-events="none" fill="none" stroke="white" stroke-width="1.5" d="M0,-3.0v7 M-2.5,-0.5L0,-3.0L2.5,-0.5"/>
  </g>
  <g id="resetDef">
    <use xlink:href="#rim2" fill="#404040"><set attributeName="fill" to="#808080" begin="reset.mouseover" end="reset.mouseout"/></use>
  </g>
</defs>
<script type="application/ecmascript">
var viewWidth = 3590;
var viewHeight = 302;
var sectionId = 'dynsection-0';
</script>
<script type="application/ecmascript" xlink:href="svg.min.js"/>
<svg id="graph" class="graph">
<g id="viewport">
<title>squid/test&#45;suite/syntheticoperators.cc</title>
<!-- Node1 -->
<g id="Node000001" class="node">
<title>Node1</title>
<g id="a_Node000001"><a xlink:title=" ">
<polygon fill="#999999" stroke="#666666" points="3405,-294 3205,-294 3205,-275 3405,-275 3405,-294"/>
<text text-anchor="middle" x="3305" y="-282" font-family="Helvetica,sans-Serif" font-size="10.00">squid/test&#45;suite/syntheticoperators.cc</text>
</a>
</g>
</g>
<!-- Node2 -->
<g id="Node000002" class="node">
<title>Node2</title>
<g id="a_Node000002"><a xlink:href="squid_8h.html" target="_top" xlink:title=" ">
<polygon fill="white" stroke="#666666" points="1649,-239 1597,-239 1597,-220 1649,-220 1649,-239"/>
<text text-anchor="middle" x="1623" y="-227" font-family="Helvetica,sans-Serif" font-size="10.00">squid.h</text>
</a>
</g>
</g>
<!-- Node1&#45;&gt;Node2 -->
<g id="edge1_Node000001_Node000002" class="edge">
<title>Node1&#45;&gt;Node2</title>
<g id="a_edge1_Node000001_Node000002"><a xlink:title=" ">
<path fill="none" stroke="#63b8ff" d="M3204.82,-280.34C2880,-270.11 1865.08,-238.13 1659.53,-231.65"/>
<polygon fill="#63b8ff" stroke="#63b8ff" points="1659.38,-228.14 1649.28,-231.33 1659.16,-235.14 1659.38,-228.14"/>
</a>
</g>
</g>
<!-- Node44 -->
<g id="Node000044" class="node">
<title>Node44</title>
<g id="a_Node000044"><a xlink:href="mem__node_8h.html" target="_top" xlink:title=" ">
<polygon fill="white" stroke="#666666" points="3301,-239 3221,-239 3221,-220 3301,-220 3301,-239"/>
<text text-anchor="middle" x="3261" y="-227" font-family="Helvetica,sans-Serif" font-size="10.00">mem_node.h</text>
</a>
</g>
</g>
<!-- Node1&#45;&gt;Node44 -->
<g id="edge35_Node000001_Node000044" class="edge">
<title>Node1&#45;&gt;Node44</title>
<g id="a_edge35_Node000001_Node000044"><a xlink:title=" ">
<path fill="none" stroke="#63b8ff" d="M3297.73,-274.75C3291.46,-267.18 3282.21,-256.05 3274.57,-246.84"/>
<polygon fill="#63b8ff" stroke="#63b8ff" points="3277.21,-244.55 3268.13,-239.09 3271.83,-249.02 3277.21,-244.55"/>
</a>
</g>
</g>
<!-- Node55 -->
<g id="Node000055" class="node">
<title>Node55</title>
<g id="a_Node000055"><a xlink:href="stmem_8h.html" target="_top" xlink:title=" ">
<polygon fill="white" stroke="#666666" points="3390,-239 3330,-239 3330,-220 3390,-220 3390,-239"/>
<text text-anchor="middle" x="3360" y="-227" font-family="Helvetica,sans-Serif" font-size="10.00">stmem.h</text>
</a>
</g>
</g>
<!-- Node1&#45;&gt;Node55 -->
<g id="edge47_Node000001_Node000055" class="edge">
<title>Node1&#45;&gt;Node55</title>
<g id="a_edge47_Node000001_Node000055"><a xlink:title=" ">
<path fill="none" stroke="#63b8ff" d="M3314.08,-274.75C3322.09,-267.03 3333.96,-255.6 3343.62,-246.28"/>
<polygon fill="#63b8ff" stroke="#63b8ff" points="3346.31,-248.55 3351.09,-239.09 3341.46,-243.51 3346.31,-248.55"/>
</a>
</g>
</g>
<!-- Node60 -->
<g id="Node000060" class="node">
<title>Node60</title>
<g id="a_Node000060"><a xlink:title=" ">
<polygon fill="#e0e0e0" stroke="#999999" points="3468,-239 3408,-239 3408,-220 3468,-220 3468,-239"/>
<text text-anchor="middle" x="3438" y="-227" font-family="Helvetica,sans-Serif" font-size="10.00">iostream</text>
</a>
</g>
</g>
<!-- Node1&#45;&gt;Node60 -->
<g id="edge53_Node000001_Node000060" class="edge">
<title>Node1&#45;&gt;Node60</title>
<g id="a_edge53_Node000001_Node000060"><a xlink:title=" ">
<path fill="none" stroke="#63b8ff" d="M3326.37,-274.98C3348.15,-266.3 3382.16,-252.75 3406.92,-242.88"/>
<polygon fill="#63b8ff" stroke="#63b8ff" points="3408.25,-246.12 3416.24,-239.17 3405.66,-239.62 3408.25,-246.12"/>
</a>
</g>
</g>
<!-- Node3 -->
<g id="Node000003" class="node">
<title>Node3</title>
<g id="a_Node000003"><a xlink:href="autoconf_8h.html" target="_top" xlink:title=" ">
<polygon fill="white" stroke="#666666" points="1524,-184 1456,-184 1456,-165 1524,-165 1524,-184"/>
<text text-anchor="middle" x="1490" y="-172" font-family="Helvetica,sans-Serif" font-size="10.00">autoconf.h</text>
</a>
</g>
</g>
<!-- Node2&#45;&gt;Node3 -->
<g id="edge2_Node000002_Node000003" class="edge">
<title>Node2&#45;&gt;Node3</title>
<g id="a_edge2_Node000002_Node000003"><a xlink:title=" ">
<path fill="none" stroke="#63b8ff" d="M1601.63,-219.98C1579.85,-211.3 1545.84,-197.75 1521.08,-187.88"/>
<polygon fill="#63b8ff" stroke="#63b8ff" points="1522.34,-184.62 1511.76,-184.17 1519.75,-191.12 1522.34,-184.62"/>
</a>
</g>
</g>
<!-- Node4 -->
<g id="Node000004" class="node">
<title>Node4</title>
<g id="a_Node000004"><a xlink:href="version_8h.html" target="_top" xlink:title=" ">
<polygon fill="white" stroke="#666666" points="1604,-184 1542,-184 1542,-165 1604,-165 1604,-184"/>
<text text-anchor="middle" x="1573" y="-172" font-family="Helvetica,sans-Serif" font-size="10.00">version.h</text>
</a>
</g>
</g>
<!-- Node2&#45;&gt;Node4 -->
<g id="edge3_Node000002_Node000004" class="edge">
<title>Node2&#45;&gt;Node4</title>
<g id="a_edge3_Node000002_Node000004"><a xlink:title=" ">
<path fill="none" stroke="#63b8ff" d="M1614.74,-219.75C1607.54,-212.11 1596.89,-200.82 1588.15,-191.56"/>
<polygon fill="#63b8ff" stroke="#63b8ff" points="1590.51,-188.96 1581.1,-184.09 1585.42,-193.76 1590.51,-188.96"/>
</a>
</g>
</g>
<!-- Node5 -->
<g id="Node000005" class="node">
<title>Node5</title>
<g id="a_Node000005"><a xlink:href="compat_8h.html" target="_top" xlink:title=" ">
<polygon fill="white" stroke="#666666" points="1724,-184 1622,-184 1622,-165 1724,-165 1724,-184"/>
<text text-anchor="middle" x="1673" y="-172" font-family="Helvetica,sans-Serif" font-size="10.00">compat/compat.h</text>
</a>
</g>
</g>
<!-- Node2&#45;&gt;Node5 -->
<g id="edge4_Node000002_Node000005" class="edge">
<title>Node2&#45;&gt;Node5</title>
<g id="a_edge4_Node000002_Node000005"><a xlink:title=" ">
<path fill="none" stroke="#63b8ff" d="M1631.26,-219.75C1638.46,-212.11 1649.11,-200.82 1657.85,-191.56"/>
<polygon fill="#63b8ff" stroke="#63b8ff" points="1660.58,-193.76 1664.9,-184.09 1655.49,-188.96 1660.58,-193.76"/>
</a>
</g>
</g>
<!-- Node6 -->
<g id="Node000006" class="node">
<title>Node6</title>
<g id="a_Node000006"><a xlink:href="osdetect_8h.html" target="_top" xlink:title=" ">
<polygon fill="white" stroke="#666666" points="2531.5,-129 2424.5,-129 2424.5,-110 2531.5,-110 2531.5,-129"/>
<text text-anchor="middle" x="2478" y="-117" font-family="Helvetica,sans-Serif" font-size="10.00">compat/osdetect.h</text>
</a>
</g>
</g>
<!-- Node5&#45;&gt;Node6 -->
<g id="edge5_Node000005_Node000006" class="edge">
<title>Node5&#45;&gt;Node6</title>
<g id="a_edge5_Node000005_Node000006"><a xlink:title=" ">
<path fill="none" stroke="#63b8ff" d="M1724.38,-171.73C1843.57,-167.35 2148.32,-154.52 2414.18,-129"/>
<polygon fill="#63b8ff" stroke="#63b8ff" points="2414.8,-132.45 2424.42,-128 2414.12,-125.48 2414.8,-132.45"/>
</a>
</g>
</g>
<!-- Node7 -->
<g id="Node000007" class="node">
<title>Node7</title>
<g id="a_Node000007"><a xlink:href="fdsetsize_8h.html" target="_top" xlink:title=" ">
<polygon fill="white" stroke="#666666" points="2660,-129 2550,-129 2550,-110 2660,-110 2660,-129"/>
<text text-anchor="middle" x="2605" y="-117" font-family="Helvetica,sans-Serif" font-size="10.00">compat/fdsetsize.h</text>
</a>
</g>
</g>
<!-- Node5&#45;&gt;Node7 -->
<g id="edge6_Node000005_Node000007" class="edge">
<title>Node5&#45;&gt;Node7</title>
<g id="a_edge6_Node000005_Node000007"><a xlink:title=" ">
<path fill="none" stroke="#63b8ff" d="M1724.4,-172.27C1857.28,-168.8 2223.19,-157.32 2539.43,-128.96"/>
<polygon fill="#63b8ff" stroke="#63b8ff" points="2540.07,-132.42 2549.71,-128.03 2539.44,-125.45 2540.07,-132.42"/>
</a>
</g>
</g>
<!-- Node8 -->
<g id="Node000008" class="node">
<title>Node8</title>
<g id="a_Node000008"><a xlink:href="types_8h.html" target="_top" xlink:title=" ">
<polygon fill="white" stroke="#666666" points="2770,-129 2678,-129 2678,-110 2770,-110 2770,-129"/>
<text text-anchor="middle" x="2724" y="-117" font-family="Helvetica,sans-Serif" font-size="10.00">compat/types.h</text>
</a>
</g>
</g>
<!-- Node5&#45;&gt;Node8 -->
<g id="edge7_Node000005_Node000008" class="edge">
<title>Node5&#45;&gt;Node8</title>
<g id="a_edge7_Node000005_Node000008"><a xlink:title=" ">
<path fill="none" stroke="#63b8ff" d="M1724.19,-173.17C1870.07,-171.83 2300.5,-164.94 2667.8,-129"/>
<polygon fill="#63b8ff" stroke="#63b8ff" points="2668.23,-132.47 2677.83,-128.01 2667.54,-125.51 2668.23,-132.47"/>
</a>
</g>
</g>
<!-- Node10 -->
<g id="Node000010" class="node">
<title>Node10</title>
<g id="a_Node000010"><a xlink:href="aix_8h.html" target="_top" xlink:title=" ">
<polygon fill="white" stroke="#666666" points="2883.5,-129 2788.5,-129 2788.5,-110 2883.5,-110 2883.5,-129"/>
<text text-anchor="middle" x="2836" y="-117" font-family="Helvetica,sans-Serif" font-size="10.00">compat/os/aix.h</text>
</a>
</g>
</g>
<!-- Node5&#45;&gt;Node10 -->
<g id="edge9_Node000005_Node000010" class="edge">
<title>Node5&#45;&gt;Node10</title>
<g id="a_edge9_Node000005_Node000010"><a xlink:title=" ">
<path fill="none" stroke="#63b8ff" d="M1724.12,-173.4C1880.4,-172.68 2365.74,-167.35 2778.42,-128.92"/>
<polygon fill="#63b8ff" stroke="#63b8ff" points="2778.83,-132.4 2788.46,-127.98 2778.18,-125.43 2778.83,-132.4"/>
</a>
</g>
</g>
<!-- Node11 -->
<g id="Node000011" class="node">
<title>Node11</title>
<g id="a_Node000011"><a xlink:href="android_8h.html" target="_top" xlink:title=" ">
<polygon fill="white" stroke="#666666" points="3018,-129 2902,-129 2902,-110 3018,-110 3018,-129"/>
<text text-anchor="middle" x="2960" y="-117" font-family="Helvetica,sans-Serif" font-size="10.00">compat/os/android.h</text>
</a>
</g>
</g>
<!-- Node5&#45;&gt;Node11 -->
<g id="edge10_Node000005_Node000011" class="edge">
<title>Node5&#45;&gt;Node11</title>
<g id="a_edge10_Node000005_Node000011"><a xlink:title=" ">
<path fill="none" stroke="#63b8ff" d="M1724.19,-173.24C1890.72,-172.05 2432.26,-165.5 2891.64,-128.93"/>
<polygon fill="#63b8ff" stroke="#63b8ff" points="2892.11,-132.41 2901.8,-128.12 2891.55,-125.43 2892.11,-132.41"/>
</a>
</g>
</g>
<!-- Node12 -->
<g id="Node000012" class="node">
<title>Node12</title>
<g id="a_Node000012"><a xlink:href="dragonfly_8h.html" target="_top" xlink:title=" ">
<polygon fill="white" stroke="#666666" points="3160,-129 3036,-129 3036,-110 3160,-110 3160,-129"/>
<text text-anchor="middle" x="3098" y="-117" font-family="Helvetica,sans-Serif" font-size="10.00">compat/os/dragonfly.h</text>
</a>
</g>
</g>
<!-- Node5&#45;&gt;Node12 -->
<g id="edge11_Node000005_Node000012" class="edge">
<title>Node5&#45;&gt;Node12</title>
<g id="a_edge11_Node000005_Node000012"><a xlink:title=" ">
<path fill="none" stroke="#63b8ff" d="M1724.11,-173.41C1902.16,-172.75 2511.75,-167.69 3025.48,-129.04"/>
<polygon fill="#63b8ff" stroke="#63b8ff" points="3025.98,-132.51 3035.69,-128.27 3025.46,-125.53 3025.98,-132.51"/>
</a>
</g>
</g>
<!-- Node13 -->
<g id="Node000013" class="node">
<title>Node13</title>
<g id="a_Node000013"><a xlink:href="freebsd_8h.html" target="_top" xlink:title=" ">
<polygon fill="white" stroke="#666666" points="116,-129 0,-129 0,-110 116,-110 116,-129"/>
<text text-anchor="middle" x="58" y="-117" font-family="Helvetica,sans-Serif" font-size="10.00">compat/os/freebsd.h</text>
</a>
</g>
</g>
<!-- Node5&#45;&gt;Node13 -->
<g id="edge12_Node000005_Node000013" class="edge">
<title>Node5&#45;&gt;Node13</title>
<g id="a_edge12_Node000005_Node000013"><a xlink:title=" ">
<path fill="none" stroke="#63b8ff" d="M1621.98,-165.86C1618.95,-165.53 1615.94,-165.24 1613,-165 957.1,-110.79 786.4,-178 126.31,-129"/>
<polygon fill="#63b8ff" stroke="#63b8ff" points="126.3,-125.49 116.07,-128.23 125.78,-132.47 126.3,-125.49"/>
</a>
</g>
</g>
<!-- Node14 -->
<g id="Node000014" class="node">
<title>Node14</title>
<g id="a_Node000014"><a xlink:href="hpux_8h.html" target="_top" xlink:title=" ">
<polygon fill="white" stroke="#666666" points="238,-129 134,-129 134,-110 238,-110 238,-129"/>
<text text-anchor="middle" x="186" y="-117" font-family="Helvetica,sans-Serif" font-size="10.00">compat/os/hpux.h</text>
</a>
</g>
</g>
<!-- Node5&#45;&gt;Node14 -->
<g id="edge13_Node000005_Node000014" class="edge">
<title>Node5&#45;&gt;Node14</title>
<g id="a_edge13_Node000005_Node000014"><a xlink:title=" ">
<path fill="none" stroke="#63b8ff" d="M1621.98,-165.87C1618.95,-165.54 1615.94,-165.25 1613,-165 1011.19,-114.61 854.02,-178.26 248.5,-129.01"/>
<polygon fill="#63b8ff" stroke="#63b8ff" points="248.45,-125.5 238.2,-128.17 247.88,-132.47 248.45,-125.5"/>
</a>
</g>
</g>
<!-- Node15 -->
<g id="Node000015" class="node">
<title>Node15</title>
<g id="a_Node000015"><a xlink:href="linux_8h.html" target="_top" xlink:title=" ">
<polygon fill="white" stroke="#666666" points="360,-129 256,-129 256,-110 360,-110 360,-129"/>
<text text-anchor="middle" x="308" y="-117" font-family="Helvetica,sans-Serif" font-size="10.00">compat/os/linux.h</text>
</a>
</g>
</g>
<!-- Node5&#45;&gt;Node15 -->
<g id="edge14_Node000005_Node000015" class="edge">
<title>Node5&#45;&gt;Node15</title>
<g id="a_edge14_Node000005_Node000015"><a xlink:title=" ">
<path fill="none" stroke="#63b8ff" d="M1621.98,-165.88C1618.95,-165.55 1615.94,-165.25 1613,-165 1065.23,-118.42 921.93,-174.54 370.41,-129.01"/>
<polygon fill="#63b8ff" stroke="#63b8ff" points="370.46,-125.5 360.2,-128.16 369.88,-132.48 370.46,-125.5"/>
</a>
</g>
</g>
<!-- Node16 -->
<g id="Node000016" class="node">
<title>Node16</title>
<g id="a_Node000016"><a xlink:href="macosx_8h.html" target="_top" xlink:title=" ">
<polygon fill="white" stroke="#666666" points="496,-129 378,-129 378,-110 496,-110 496,-129"/>
<text text-anchor="middle" x="437" y="-117" font-family="Helvetica,sans-Serif" font-size="10.00">compat/os/macosx.h</text>
</a>
</g>
</g>
<!-- Node5&#45;&gt;Node16 -->
<g id="edge15_Node000005_Node000016" class="edge">
<title>Node5&#45;&gt;Node16</title>
<g id="a_edge15_Node000005_Node000016"><a xlink:title=" ">
<path fill="none" stroke="#63b8ff" d="M1621.98,-165.89C1618.95,-165.56 1615.93,-165.25 1613,-165 1125.5,-122.67 997.93,-166.98 506.5,-129.03"/>
<polygon fill="#63b8ff" stroke="#63b8ff" points="506.55,-125.53 496.31,-128.24 506,-132.51 506.55,-125.53"/>
</a>
</g>
</g>
<!-- Node17 -->
<g id="Node000017" class="node">
<title>Node17</title>
<g id="a_Node000017"><a xlink:href="mingw_8h.html" target="_top" xlink:title=" ">
<polygon fill="white" stroke="#666666" points="626,-129 514,-129 514,-110 626,-110 626,-129"/>
<text text-anchor="middle" x="570" y="-117" font-family="Helvetica,sans-Serif" font-size="10.00">compat/os/mingw.h</text>
</a>
</g>
</g>
<!-- Node5&#45;&gt;Node17 -->
<g id="edge16_Node000005_Node000017" class="edge">
<title>Node5&#45;&gt;Node17</title>
<g id="a_edge16_Node000005_Node000017"><a xlink:title=" ">
<path fill="none" stroke="#63b8ff" d="M1621.98,-165.9C1618.94,-165.57 1615.93,-165.26 1613,-165 1183.03,-126.73 1070.15,-164.66 636.32,-129.02"/>
<polygon fill="#63b8ff" stroke="#63b8ff" points="636.59,-125.53 626.34,-128.19 636.01,-132.51 636.59,-125.53"/>
</a>
</g>
</g>
<!-- Node18 -->
<g id="Node000018" class="node">
<title>Node18</title>
<g id="a_Node000018"><a xlink:href="mswindows_8h.html" target="_top" xlink:title=" ">
<polygon fill="white" stroke="#666666" points="781.5,-129 644.5,-129 644.5,-110 781.5,-110 781.5,-129"/>
<text text-anchor="middle" x="713" y="-117" font-family="Helvetica,sans-Serif" font-size="10.00">compat/os/mswindows.h</text>
</a>
</g>
</g>
<!-- Node5&#45;&gt;Node18 -->
<g id="edge17_Node000005_Node000018" class="edge">
<title>Node5&#45;&gt;Node18</title>
<g id="a_edge17_Node000005_Node000018"><a xlink:title=" ">
<path fill="none" stroke="#63b8ff" d="M1621.98,-165.93C1618.94,-165.58 1615.93,-165.27 1613,-165 1251.72,-131.59 1156.76,-156.64 791.87,-129.09"/>
<polygon fill="#63b8ff" stroke="#63b8ff" points="792.06,-125.6 781.83,-128.33 791.53,-132.58 792.06,-125.6"/>
</a>
</g>
</g>
<!-- Node19 -->
<g id="Node000019" class="node">
<title>Node19</title>
<g id="a_Node000019"><a xlink:href="netbsd_8h.html" target="_top" xlink:title=" ">
<polygon fill="white" stroke="#666666" points="912.5,-129 799.5,-129 799.5,-110 912.5,-110 912.5,-129"/>
<text text-anchor="middle" x="856" y="-117" font-family="Helvetica,sans-Serif" font-size="10.00">compat/os/netbsd.h</text>
</a>
</g>
</g>
<!-- Node5&#45;&gt;Node19 -->
<g id="edge18_Node000005_Node000019" class="edge">
<title>Node5&#45;&gt;Node19</title>
<g id="a_edge18_Node000005_Node000019"><a xlink:title=" ">
<path fill="none" stroke="#63b8ff" d="M1621.97,-165.96C1618.94,-165.61 1615.93,-165.28 1613,-165 1309.75,-135.69 1229.42,-156.53 922.76,-129.09"/>
<polygon fill="#63b8ff" stroke="#63b8ff" points="922.97,-125.59 912.69,-128.18 922.34,-132.57 922.97,-125.59"/>
</a>
</g>
</g>
<!-- Node20 -->
<g id="Node000020" class="node">
<title>Node20</title>
<g id="a_Node000020"><a xlink:href="openbsd_8h.html" target="_top" xlink:title=" ">
<polygon fill="white" stroke="#666666" points="1051.5,-129 930.5,-129 930.5,-110 1051.5,-110 1051.5,-129"/>
<text text-anchor="middle" x="991" y="-117" font-family="Helvetica,sans-Serif" font-size="10.00">compat/os/openbsd.h</text>
</a>
</g>
</g>
<!-- Node5&#45;&gt;Node20 -->
<g id="edge19_Node000005_Node000020" class="edge">
<title>Node5&#45;&gt;Node20</title>
<g id="a_edge19_Node000005_Node000020"><a xlink:title=" ">
<path fill="none" stroke="#63b8ff" d="M1621.97,-166C1618.94,-165.64 1615.93,-165.3 1613,-165 1371.35,-140.05 1306.97,-151.74 1061.86,-129.12"/>
<polygon fill="#63b8ff" stroke="#63b8ff" points="1061.84,-125.6 1051.56,-128.16 1061.19,-132.57 1061.84,-125.6"/>
</a>
</g>
</g>
<!-- Node21 -->
<g id="Node000021" class="node">
<title>Node21</title>
<g id="a_Node000021"><a xlink:href="os2_8h.html" target="_top" xlink:title=" ">
<polygon fill="white" stroke="#666666" points="1166.5,-129 1069.5,-129 1069.5,-110 1166.5,-110 1166.5,-129"/>
<text text-anchor="middle" x="1118" y="-117" font-family="Helvetica,sans-Serif" font-size="10.00">compat/os/os2.h</text>
</a>
</g>
</g>
<!-- Node5&#45;&gt;Node21 -->
<g id="edge20_Node000005_Node000021" class="edge">
<title>Node5&#45;&gt;Node21</title>
<g id="a_edge20_Node000005_Node000021"><a xlink:title=" ">
<path fill="none" stroke="#63b8ff" d="M1621.96,-166.06C1618.93,-165.69 1615.93,-165.33 1613,-165 1422.54,-143.68 1371.31,-150.89 1176.69,-129"/>
<polygon fill="#63b8ff" stroke="#63b8ff" points="1177.04,-125.52 1166.7,-127.87 1176.25,-132.47 1177.04,-125.52"/>
</a>
</g>
</g>
<!-- Node22 -->
<g id="Node000022" class="node">
<title>Node22</title>
<g id="a_Node000022"><a xlink:href="qnx_8h.html" target="_top" xlink:title=" ">
<polygon fill="white" stroke="#666666" points="1283,-129 1185,-129 1185,-110 1283,-110 1283,-129"/>
<text text-anchor="middle" x="1234" y="-117" font-family="Helvetica,sans-Serif" font-size="10.00">compat/os/qnx.h</text>
</a>
</g>
</g>
<!-- Node5&#45;&gt;Node22 -->
<g id="edge21_Node000005_Node000022" class="edge">
<title>Node5&#45;&gt;Node22</title>
<g id="a_edge21_Node000005_Node000022"><a xlink:title=" ">
<path fill="none" stroke="#63b8ff" d="M1621.95,-166.17C1618.92,-165.76 1615.92,-165.37 1613,-165 1473.78,-147.34 1436.06,-147.4 1293.06,-129.1"/>
<polygon fill="#63b8ff" stroke="#63b8ff" points="1293.4,-125.61 1283.03,-127.8 1292.5,-132.55 1293.4,-125.61"/>
</a>
</g>
</g>
<!-- Node23 -->
<g id="Node000023" class="node">
<title>Node23</title>
<g id="a_Node000023"><a xlink:href="solaris_8h.html" target="_top" xlink:title=" ">
<polygon fill="white" stroke="#666666" points="1413,-129 1301,-129 1301,-110 1413,-110 1413,-129"/>
<text text-anchor="middle" x="1357" y="-117" font-family="Helvetica,sans-Serif" font-size="10.00">compat/os/solaris.h</text>
</a>
</g>
</g>
<!-- Node5&#45;&gt;Node23 -->
<g id="edge22_Node000005_Node000023" class="edge">
<title>Node5&#45;&gt;Node23</title>
<g id="a_edge22_Node000005_Node000023"><a xlink:title=" ">
<path fill="none" stroke="#63b8ff" d="M1622.23,-164.98C1566.57,-155.65 1477.29,-140.67 1417.9,-130.71"/>
<polygon fill="#63b8ff" stroke="#63b8ff" points="1418.35,-127.24 1407.91,-129.04 1417.19,-134.14 1418.35,-127.24"/>
</a>
</g>
</g>
<!-- Node24 -->
<g id="Node000024" class="node">
<title>Node24</title>
<g id="a_Node000024"><a xlink:href="sunos_8h.html" target="_top" xlink:title=" ">
<polygon fill="white" stroke="#666666" points="1539,-129 1431,-129 1431,-110 1539,-110 1539,-129"/>
<text text-anchor="middle" x="1485" y="-117" font-family="Helvetica,sans-Serif" font-size="10.00">compat/os/sunos.h</text>
</a>
</g>
</g>
<!-- Node5&#45;&gt;Node24 -->
<g id="edge23_Node000005_Node000024" class="edge">
<title>Node5&#45;&gt;Node24</title>
<g id="a_edge23_Node000005_Node000024"><a xlink:title=" ">
<path fill="none" stroke="#63b8ff" d="M1642.79,-164.98C1610.96,-156.01 1560.64,-141.82 1525.4,-131.89"/>
<polygon fill="#63b8ff" stroke="#63b8ff" points="1526.02,-128.43 1515.44,-129.08 1524.12,-135.16 1526.02,-128.43"/>
</a>
</g>
</g>
<!-- Node25 -->
<g id="Node000025" class="node">
<title>Node25</title>
<g id="a_Node000025"><a xlink:href="assert_8h.html" target="_top" xlink:title=" ">
<polygon fill="white" stroke="#666666" points="1652.5,-129 1557.5,-129 1557.5,-110 1652.5,-110 1652.5,-129"/>
<text text-anchor="middle" x="1605" y="-117" font-family="Helvetica,sans-Serif" font-size="10.00">compat/assert.h</text>
</a>
</g>
</g>
<!-- Node5&#45;&gt;Node25 -->
<g id="edge24_Node000005_Node000025" class="edge">
<title>Node5&#45;&gt;Node25</title>
<g id="a_edge24_Node000005_Node000025"><a xlink:title=" ">
<path fill="none" stroke="#63b8ff" d="M1662.07,-164.98C1651.92,-157.07 1636.58,-145.11 1624.35,-135.58"/>
<polygon fill="#63b8ff" stroke="#63b8ff" points="1626.16,-132.56 1616.12,-129.17 1621.86,-138.08 1626.16,-132.56"/>
</a>
</g>
</g>
<!-- Node26 -->
<g id="Node000026" class="node">
<title>Node26</title>
<g id="a_Node000026"><a xlink:href="compat__shared_8h.html" target="_top" xlink:title=" ">
<polygon fill="#fff0f0" stroke="red" points="1811,-129 1671,-129 1671,-110 1811,-110 1811,-129"/>
<text text-anchor="middle" x="1741" y="-117" font-family="Helvetica,sans-Serif" font-size="10.00">compat/compat_shared.h</text>
</a>
</g>
</g>
<!-- Node5&#45;&gt;Node26 -->
<g id="edge25_Node000005_Node000026" class="edge">
<title>Node5&#45;&gt;Node26</title>
<g id="a_edge25_Node000005_Node000026"><a xlink:title=" ">
<path fill="none" stroke="#63b8ff" d="M1683.93,-164.98C1694.08,-157.07 1709.42,-145.11 1721.65,-135.58"/>
<polygon fill="#63b8ff" stroke="#63b8ff" points="1724.14,-138.08 1729.88,-129.17 1719.84,-132.56 1724.14,-138.08"/>
</a>
</g>
</g>
<!-- Node36 -->
<g id="Node000036" class="node">
<title>Node36</title>
<g id="a_Node000036"><a xlink:href="stdvarargs_8h.html" target="_top" xlink:title=" ">
<polygon fill="#fff0f0" stroke="red" points="1946.5,-129 1829.5,-129 1829.5,-110 1946.5,-110 1946.5,-129"/>
<text text-anchor="middle" x="1888" y="-117" font-family="Helvetica,sans-Serif" font-size="10.00">compat/stdvarargs.h</text>
</a>
</g>
</g>
<!-- Node5&#45;&gt;Node36 -->
<g id="edge30_Node000005_Node000036" class="edge">
<title>Node5&#45;&gt;Node36</title>
<g id="a_edge30_Node000005_Node000036"><a xlink:title=" ">
<path fill="none" stroke="#63b8ff" d="M1707.54,-164.98C1744.42,-155.89 1802.99,-141.46 1843.34,-131.51"/>
<polygon fill="#63b8ff" stroke="#63b8ff" points="1844.31,-134.87 1853.19,-129.08 1842.64,-128.08 1844.31,-134.87"/>
</a>
</g>
</g>
<!-- Node38 -->
<g id="Node000038" class="node">
<title>Node38</title>
<g id="a_Node000038"><a xlink:href="stdio_8h.html" target="_top" xlink:title=" ">
<polygon fill="#fff0f0" stroke="red" points="2053.5,-129 1964.5,-129 1964.5,-110 2053.5,-110 2053.5,-129"/>
<text text-anchor="middle" x="2009" y="-117" font-family="Helvetica,sans-Serif" font-size="10.00">compat/stdio.h</text>
</a>
</g>
</g>
<!-- Node5&#45;&gt;Node38 -->
<g id="edge31_Node000005_Node000038" class="edge">
<title>Node5&#45;&gt;Node38</title>
<g id="a_edge31_Node000005_Node000038"><a xlink:title=" ">
<path fill="none" stroke="#63b8ff" d="M1724.03,-165.45C1786.11,-155.66 1890.51,-139.19 1954.23,-129.14"/>
<polygon fill="#63b8ff" stroke="#63b8ff" points="1955.15,-132.54 1964.48,-127.52 1954.06,-125.62 1955.15,-132.54"/>
</a>
</g>
</g>
<!-- Node40 -->
<g id="Node000040" class="node">
<title>Node40</title>
<g id="a_Node000040"><a xlink:href="statvfs_8h.html" target="_top" xlink:title=" ">
<polygon fill="white" stroke="#666666" points="2170.5,-129 2071.5,-129 2071.5,-110 2170.5,-110 2170.5,-129"/>
<text text-anchor="middle" x="2121" y="-117" font-family="Helvetica,sans-Serif" font-size="10.00">compat/statvfs.h</text>
</a>
</g>
</g>
<!-- Node5&#45;&gt;Node40 -->
<g id="edge32_Node000005_Node000040" class="edge">
<title>Node5&#45;&gt;Node40</title>
<g id="a_edge32_Node000005_Node000040"><a xlink:title=" ">
<path fill="none" stroke="#63b8ff" d="M1724.03,-168.14C1796.54,-160.42 1933.79,-145.42 2061.48,-129.03"/>
<polygon fill="#63b8ff" stroke="#63b8ff" points="2061.97,-132.5 2071.44,-127.75 2061.07,-125.55 2061.97,-132.5"/>
</a>
</g>
</g>
<!-- Node41 -->
<g id="Node000041" class="node">
<title>Node41</title>
<g id="a_Node000041"><a xlink:href="debug_8h.html" target="_top" xlink:title=" ">
<polygon fill="white" stroke="#666666" points="2283.5,-129 2188.5,-129 2188.5,-110 2283.5,-110 2283.5,-129"/>
<text text-anchor="middle" x="2236" y="-117" font-family="Helvetica,sans-Serif" font-size="10.00">compat/debug.h</text>
</a>
</g>
</g>
<!-- Node5&#45;&gt;Node41 -->
<g id="edge33_Node000005_Node000041" class="edge">
<title>Node5&#45;&gt;Node41</title>
<g id="a_edge33_Node000005_Node000041"><a xlink:title=" ">
<path fill="none" stroke="#63b8ff" d="M1724.1,-170.03C1813.78,-163.72 2005.56,-149.22 2178.4,-129"/>
<polygon fill="#63b8ff" stroke="#63b8ff" points="2178.92,-132.46 2188.44,-127.81 2178.1,-125.51 2178.92,-132.46"/>
</a>
</g>
</g>
<!-- Node42 -->
<g id="Node000042" class="node">
<title>Node42</title>
<g id="a_Node000042"><a xlink:href="valgrind_8h.html" target="_top" xlink:title=" ">
<polygon fill="#fff0f0" stroke="red" points="2406.5,-129 2301.5,-129 2301.5,-110 2406.5,-110 2406.5,-129"/>
<text text-anchor="middle" x="2354" y="-117" font-family="Helvetica,sans-Serif" font-size="10.00">compat/valgrind.h</text>
</a>
</g>
</g>
<!-- Node5&#45;&gt;Node42 -->
<g id="edge34_Node000005_Node000042" class="edge">
<title>Node5&#45;&gt;Node42</title>
<g id="a_edge34_Node000005_Node000042"><a xlink:title=" ">
<path fill="none" stroke="#63b8ff" d="M1724.05,-170.95C1828.45,-165.48 2074.11,-151.39 2291.27,-129"/>
<polygon fill="#63b8ff" stroke="#63b8ff" points="2291.68,-132.48 2301.26,-127.97 2290.95,-125.52 2291.68,-132.48"/>
</a>
</g>
</g>
<!-- Node9 -->
<g id="Node000009" class="node">
<title>Node9</title>
<g id="a_Node000009"><a xlink:title=" ">
<polygon fill="#e0e0e0" stroke="#999999" points="2749,-74 2699,-74 2699,-55 2749,-55 2749,-74"/>
<text text-anchor="middle" x="2724" y="-62" font-family="Helvetica,sans-Serif" font-size="10.00">cstdint</text>
</a>
</g>
</g>
<!-- Node8&#45;&gt;Node9 -->
<g id="edge8_Node000008_Node000009" class="edge">
<title>Node8&#45;&gt;Node9</title>
<g id="a_edge8_Node000008_Node000009"><a xlink:title=" ">
<path fill="none" stroke="#63b8ff" d="M2724,-109.75C2724,-102.8 2724,-92.85 2724,-84.13"/>
<polygon fill="#63b8ff" stroke="#63b8ff" points="2727.5,-84.09 2724,-74.09 2720.5,-84.09 2727.5,-84.09"/>
</a>
</g>
</g>
<!-- Node27 -->
<g id="Node000027" class="node">
<title>Node27</title>
<g id="a_Node000027"><a xlink:title=" ">
<polygon fill="#e0e0e0" stroke="#999999" points="1720.5,-74 1669.5,-74 1669.5,-55 1720.5,-55 1720.5,-74"/>
<text text-anchor="middle" x="1695" y="-62" font-family="Helvetica,sans-Serif" font-size="10.00">csignal</text>
</a>
</g>
</g>
<!-- Node26&#45;&gt;Node27 -->
<g id="edge26_Node000026_Node000027" class="edge">
<title>Node26&#45;&gt;Node27</title>
<g id="a_edge26_Node000026_Node000027"><a xlink:title=" ">
<path fill="none" stroke="#63b8ff" d="M1733.4,-109.75C1726.84,-102.18 1717.18,-91.05 1709.19,-81.84"/>
<polygon fill="#63b8ff" stroke="#63b8ff" points="1711.65,-79.35 1702.45,-74.09 1706.37,-83.94 1711.65,-79.35"/>
</a>
</g>
</g>
<!-- Node28 -->
<g id="Node000028" class="node">
<title>Node28</title>
<g id="a_Node000028"><a xlink:href="xalloc_8h.html" target="_top" xlink:title=" ">
<polygon fill="white" stroke="#666666" points="1833.5,-74 1738.5,-74 1738.5,-55 1833.5,-55 1833.5,-74"/>
<text text-anchor="middle" x="1786" y="-62" font-family="Helvetica,sans-Serif" font-size="10.00">compat/xalloc.h</text>
</a>
</g>
</g>
<!-- Node26&#45;&gt;Node28 -->
<g id="edge27_Node000026_Node000028" class="edge">
<title>Node26&#45;&gt;Node28</title>
<g id="a_edge27_Node000026_Node000028"><a xlink:title=" ">
<path fill="none" stroke="#63b8ff" d="M1748.43,-109.75C1754.85,-102.18 1764.31,-91.05 1772.12,-81.84"/>
<polygon fill="#63b8ff" stroke="#63b8ff" points="1774.9,-83.98 1778.71,-74.09 1769.57,-79.45 1774.9,-83.98"/>
</a>
</g>
</g>
<!-- Node29 -->
<g id="Node000029" class="node">
<title>Node29</title>
<g id="a_Node000029"><a xlink:href="xis_8h.html" target="_top" xlink:title=" ">
<polygon fill="#fff0f0" stroke="red" points="1932,-74 1852,-74 1852,-55 1932,-55 1932,-74"/>
<text text-anchor="middle" x="1892" y="-62" font-family="Helvetica,sans-Serif" font-size="10.00">compat/xis.h</text>
</a>
</g>
</g>
<!-- Node26&#45;&gt;Node29 -->
<g id="edge28_Node000026_Node000029" class="edge">
<title>Node26&#45;&gt;Node29</title>
<g id="a_edge28_Node000026_Node000029"><a xlink:title=" ">
<path fill="none" stroke="#63b8ff" d="M1765.26,-109.98C1790.32,-101.19 1829.63,-87.39 1857.83,-77.49"/>
<polygon fill="#63b8ff" stroke="#63b8ff" points="1859.02,-80.78 1867.3,-74.17 1856.7,-74.18 1859.02,-80.78"/>
</a>
</g>
</g>
<!-- Node31 -->
<g id="Node000031" class="node">
<title>Node31</title>
<g id="a_Node000031"><a xlink:href="xstrerror_8h.html" target="_top" xlink:title=" ">
<polygon fill="white" stroke="#666666" points="1651.5,-74 1544.5,-74 1544.5,-55 1651.5,-55 1651.5,-74"/>
<text text-anchor="middle" x="1598" y="-62" font-family="Helvetica,sans-Serif" font-size="10.00">compat/xstrerror.h</text>
</a>
</g>
</g>
<!-- Node26&#45;&gt;Node31 -->
<g id="edge29_Node000026_Node000031" class="edge">
<title>Node26&#45;&gt;Node31</title>
<g id="a_edge29_Node000026_Node000031"><a xlink:title=" ">
<path fill="none" stroke="#63b8ff" d="M1718.02,-109.98C1694.5,-101.27 1657.71,-87.63 1631.06,-77.75"/>
<polygon fill="#63b8ff" stroke="#63b8ff" points="1631.99,-74.36 1621.39,-74.17 1629.55,-80.93 1631.99,-74.36"/>
</a>
</g>
</g>
<!-- Node45 -->
<g id="Node000045" class="node">
<title>Node45</title>
<g id="a_Node000045"><a xlink:href="Range_8h.html" target="_top" xlink:title=" ">
<polygon fill="white" stroke="#666666" points="3383.5,-129 3300.5,-129 3300.5,-110 3383.5,-110 3383.5,-129"/>
<text text-anchor="middle" x="3342" y="-117" font-family="Helvetica,sans-Serif" font-size="10.00">base/Range.h</text>
</a>
</g>
</g>
<!-- Node44&#45;&gt;Node45 -->
<g id="edge36_Node000044_Node000045" class="edge">
<title>Node44&#45;&gt;Node45</title>
<g id="a_edge36_Node000044_Node000045"><a xlink:title=" ">
<path fill="none" stroke="#63b8ff" d="M3275.02,-219.76C3286.98,-211.71 3303.95,-198.79 3315,-184 3325.08,-170.51 3332.24,-152.68 3336.64,-139.35"/>
<polygon fill="#63b8ff" stroke="#63b8ff" points="3340.1,-139.99 3339.69,-129.4 3333.41,-137.93 3340.1,-139.99"/>
</a>
</g>
</g>
<!-- Node48 -->
<g id="Node000048" class="node">
<title>Node48</title>
<g id="a_Node000048"><a xlink:href="defines_8h.html" target="_top" xlink:title=" ">
<polygon fill="white" stroke="#666666" points="3159.5,-184 3098.5,-184 3098.5,-165 3159.5,-165 3159.5,-184"/>
<text text-anchor="middle" x="3129" y="-172" font-family="Helvetica,sans-Serif" font-size="10.00">defines.h</text>
</a>
</g>
</g>
<!-- Node44&#45;&gt;Node48 -->
<g id="edge39_Node000044_Node000048" class="edge">
<title>Node44&#45;&gt;Node48</title>
<g id="a_edge39_Node000044_Node000048"><a xlink:title=" ">
<path fill="none" stroke="#63b8ff" d="M3239.79,-219.98C3218.27,-211.34 3184.72,-197.87 3160.17,-188.02"/>
<polygon fill="#63b8ff" stroke="#63b8ff" points="3161.18,-184.65 3150.59,-184.17 3158.57,-191.14 3161.18,-184.65"/>
</a>
</g>
</g>
<!-- Node49 -->
<g id="Node000049" class="node">
<title>Node49</title>
<g id="a_Node000049"><a xlink:href="mem_2forward_8h.html" target="_top" xlink:title=" ">
<polygon fill="white" stroke="#666666" points="3260,-74 3168,-74 3168,-55 3260,-55 3260,-74"/>
<text text-anchor="middle" x="3214" y="-62" font-family="Helvetica,sans-Serif" font-size="10.00">mem/forward.h</text>
</a>
</g>
</g>
<!-- Node44&#45;&gt;Node49 -->
<g id="edge40_Node000044_Node000049" class="edge">
<title>Node44&#45;&gt;Node49</title>
<g id="a_edge40_Node000044_Node000049"><a xlink:title=" ">
<path fill="none" stroke="#63b8ff" d="M3244.11,-219.95C3231.29,-212.43 3214.62,-200.15 3207,-184 3191.6,-151.35 3200.55,-107.9 3207.74,-83.72"/>
<polygon fill="#63b8ff" stroke="#63b8ff" points="3211.11,-84.66 3210.83,-74.07 3204.45,-82.53 3211.11,-84.66"/>
</a>
</g>
</g>
<!-- Node51 -->
<g id="Node000051" class="node">
<title>Node51</title>
<g id="a_Node000051"><a xlink:href="StoreIOBuffer_8h.html" target="_top" xlink:title=" ">
<polygon fill="white" stroke="#666666" points="3306,-184 3216,-184 3216,-165 3306,-165 3306,-184"/>
<text text-anchor="middle" x="3261" y="-172" font-family="Helvetica,sans-Serif" font-size="10.00">StoreIOBuffer.h</text>
</a>
</g>
</g>
<!-- Node44&#45;&gt;Node51 -->
<g id="edge43_Node000044_Node000051" class="edge">
<title>Node44&#45;&gt;Node51</title>
<g id="a_edge43_Node000044_Node000051"><a xlink:title=" ">
<path fill="none" stroke="#63b8ff" d="M3261,-219.75C3261,-212.8 3261,-202.85 3261,-194.13"/>
<polygon fill="#63b8ff" stroke="#63b8ff" points="3264.5,-194.09 3261,-184.09 3257.5,-194.09 3264.5,-194.09"/>
</a>
</g>
</g>
<!-- Node46 -->
<g id="Node000046" class="node">
<title>Node46</title>
<g id="a_Node000046"><a xlink:title=" ">
<polygon fill="#e0e0e0" stroke="#999999" points="3339,-19 3291,-19 3291,0 3339,0 3339,-19"/>
<text text-anchor="middle" x="3315" y="-7" font-family="Helvetica,sans-Serif" font-size="10.00">iosfwd</text>
</a>
</g>
</g>
<!-- Node45&#45;&gt;Node46 -->
<g id="edge37_Node000045_Node000046" class="edge">
<title>Node45&#45;&gt;Node46</title>
<g id="a_edge37_Node000045_Node000046"><a xlink:title=" ">
<path fill="none" stroke="#63b8ff" d="M3339.79,-109.66C3335.4,-92.09 3325.49,-52.45 3319.61,-28.95"/>
<polygon fill="#63b8ff" stroke="#63b8ff" points="3322.99,-28.01 3317.16,-19.16 3316.19,-29.71 3322.99,-28.01"/>
</a>
</g>
</g>
<!-- Node47 -->
<g id="Node000047" class="node">
<title>Node47</title>
<g id="a_Node000047"><a xlink:title=" ">
<polygon fill="#e0e0e0" stroke="#999999" points="3400.5,-74 3343.5,-74 3343.5,-55 3400.5,-55 3400.5,-74"/>
<text text-anchor="middle" x="3372" y="-62" font-family="Helvetica,sans-Serif" font-size="10.00">ostream</text>
</a>
</g>
</g>
<!-- Node45&#45;&gt;Node47 -->
<g id="edge38_Node000045_Node000047" class="edge">
<title>Node45&#45;&gt;Node47</title>
<g id="a_edge38_Node000045_Node000047"><a xlink:title=" ">
<path fill="none" stroke="#63b8ff" d="M3346.95,-109.75C3351.06,-102.49 3357.03,-91.95 3362.1,-82.98"/>
<polygon fill="#63b8ff" stroke="#63b8ff" points="3365.26,-84.52 3367.14,-74.09 3359.17,-81.07 3365.26,-84.52"/>
</a>
</g>
</g>
<!-- Node49&#45;&gt;Node46 -->
<g id="edge42_Node000049_Node000046" class="edge">
<title>Node49&#45;&gt;Node46</title>
<g id="a_edge42_Node000049_Node000046"><a xlink:title=" ">
<path fill="none" stroke="#63b8ff" d="M3230.23,-54.98C3246.18,-46.61 3270.78,-33.7 3289.38,-23.95"/>
<polygon fill="#63b8ff" stroke="#63b8ff" points="3291.25,-26.92 3298.48,-19.17 3288,-20.72 3291.25,-26.92"/>
</a>
</g>
</g>
<!-- Node50 -->
<g id="Node000050" class="node">
<title>Node50</title>
<g id="a_Node000050"><a xlink:href="AllocatorProxy_8h.html" target="_top" xlink:title=" ">
<polygon fill="white" stroke="#666666" points="3273,-19 3149,-19 3149,0 3273,0 3273,-19"/>
<text text-anchor="middle" x="3211" y="-7" font-family="Helvetica,sans-Serif" font-size="10.00">mem/AllocatorProxy.h</text>
</a>
</g>
</g>
<!-- Node49&#45;&gt;Node50 -->
<g id="edge41_Node000049_Node000050" class="edge">
<title>Node49&#45;&gt;Node50</title>
<g id="a_edge41_Node000049_Node000050"><a xlink:title=" ">
<path fill="none" stroke="#63b8ff" d="M3213.5,-54.75C3213.11,-47.8 3212.55,-37.85 3212.05,-29.13"/>
<polygon fill="#63b8ff" stroke="#63b8ff" points="3215.55,-28.88 3211.49,-19.09 3208.56,-29.27 3215.55,-28.88"/>
</a>
</g>
</g>
<!-- Node51&#45;&gt;Node45 -->
<g id="edge44_Node000051_Node000045" class="edge">
<title>Node51&#45;&gt;Node45</title>
<g id="a_edge44_Node000051_Node000045"><a xlink:title=" ">
<path fill="none" stroke="#63b8ff" d="M3274.01,-164.98C3286.46,-156.84 3305.46,-144.41 3320.21,-134.76"/>
<polygon fill="#63b8ff" stroke="#63b8ff" points="3322.3,-137.57 3328.75,-129.17 3318.46,-131.72 3322.3,-137.57"/>
</a>
</g>
</g>
<!-- Node52 -->
<g id="Node000052" class="node">
<title>Node52</title>
<g id="a_Node000052"><a xlink:href="MemBuf_8h.html" target="_top" xlink:title=" ">
<polygon fill="#fff0f0" stroke="red" points="3282,-129 3216,-129 3216,-110 3282,-110 3282,-129"/>
<text text-anchor="middle" x="3249" y="-117" font-family="Helvetica,sans-Serif" font-size="10.00">MemBuf.h</text>
</a>
</g>
</g>
<!-- Node51&#45;&gt;Node52 -->
<g id="edge45_Node000051_Node000052" class="edge">
<title>Node51&#45;&gt;Node52</title>
<g id="a_edge45_Node000051_Node000052"><a xlink:title=" ">
<path fill="none" stroke="#63b8ff" d="M3259.02,-164.75C3257.43,-157.72 3255.14,-147.62 3253.15,-138.84"/>
<polygon fill="#63b8ff" stroke="#63b8ff" points="3256.57,-138.07 3250.94,-129.09 3249.74,-139.62 3256.57,-138.07"/>
</a>
</g>
</g>
<!-- Node52&#45;&gt;Node49 -->
<g id="edge46_Node000052_Node000049" class="edge">
<title>Node52&#45;&gt;Node49</title>
<g id="a_edge46_Node000052_Node000049"><a xlink:title=" ">
<path fill="none" stroke="#63b8ff" d="M3243.22,-109.75C3238.38,-102.42 3231.32,-91.73 3225.36,-82.7"/>
<polygon fill="#63b8ff" stroke="#63b8ff" points="3228.1,-80.5 3219.67,-74.09 3222.26,-84.36 3228.1,-80.5"/>
</a>
</g>
</g>
<!-- Node55&#45;&gt;Node45 -->
<g id="edge48_Node000055_Node000045" class="edge">
<title>Node55&#45;&gt;Node45</title>
<g id="a_edge48_Node000055_Node000045"><a xlink:title=" ">
<path fill="none" stroke="#63b8ff" d="M3358.53,-219.66C3355.61,-202.17 3349.05,-162.8 3345.13,-139.27"/>
<polygon fill="#63b8ff" stroke="#63b8ff" points="3348.54,-138.45 3343.44,-129.16 3341.63,-139.6 3348.54,-138.45"/>
</a>
</g>
</g>
<!-- Node56 -->
<g id="Node000056" class="node">
<title>Node56</title>
<g id="a_Node000056"><a xlink:href="splay_8h.html" target="_top" xlink:title=" ">
<polygon fill="white" stroke="#666666" points="3486,-184 3436,-184 3436,-165 3486,-165 3486,-184"/>
<text text-anchor="middle" x="3461" y="-172" font-family="Helvetica,sans-Serif" font-size="10.00">splay.h</text>
</a>
</g>
</g>
<!-- Node55&#45;&gt;Node56 -->
<g id="edge49_Node000055_Node000056" class="edge">
<title>Node55&#45;&gt;Node56</title>
<g id="a_edge49_Node000055_Node000056"><a xlink:title=" ">
<path fill="none" stroke="#63b8ff" d="M3376.23,-219.98C3392.18,-211.61 3416.78,-198.7 3435.38,-188.95"/>
<polygon fill="#63b8ff" stroke="#63b8ff" points="3437.25,-191.92 3444.48,-184.17 3434,-185.72 3437.25,-191.92"/>
</a>
</g>
</g>
<!-- Node57 -->
<g id="Node000057" class="node">
<title>Node57</title>
<g id="a_Node000057"><a xlink:href="fatal_8h.html" target="_top" xlink:title=" ">
<polygon fill="white" stroke="#666666" points="3582,-129 3534,-129 3534,-110 3582,-110 3582,-129"/>
<text text-anchor="middle" x="3558" y="-117" font-family="Helvetica,sans-Serif" font-size="10.00">fatal.h</text>
</a>
</g>
</g>
<!-- Node56&#45;&gt;Node57 -->
<g id="edge50_Node000056_Node000057" class="edge">
<title>Node56&#45;&gt;Node57</title>
<g id="a_edge50_Node000056_Node000057"><a xlink:title=" ">
<path fill="none" stroke="#63b8ff" d="M3476.58,-164.98C3491.77,-156.69 3515.1,-143.94 3532.9,-134.22"/>
<polygon fill="#63b8ff" stroke="#63b8ff" points="3535.03,-137.04 3542.13,-129.17 3531.68,-130.89 3535.03,-137.04"/>
</a>
</g>
</g>
<!-- Node58 -->
<g id="Node000058" class="node">
<title>Node58</title>
<g id="a_Node000058"><a xlink:title=" ">
<polygon fill="#e0e0e0" stroke="#999999" points="3454.5,-129 3401.5,-129 3401.5,-110 3454.5,-110 3454.5,-129"/>
<text text-anchor="middle" x="3428" y="-117" font-family="Helvetica,sans-Serif" font-size="10.00">cstddef</text>
</a>
</g>
</g>
<!-- Node56&#45;&gt;Node58 -->
<g id="edge51_Node000056_Node000058" class="edge">
<title>Node56&#45;&gt;Node58</title>
<g id="a_edge51_Node000056_Node000058"><a xlink:title=" ">
<path fill="none" stroke="#63b8ff" d="M3455.55,-164.75C3450.99,-157.42 3444.33,-146.73 3438.71,-137.7"/>
<polygon fill="#63b8ff" stroke="#63b8ff" points="3441.6,-135.73 3433.35,-129.09 3435.66,-139.43 3441.6,-135.73"/>
</a>
</g>
</g>
<!-- Node59 -->
<g id="Node000059" class="node">
<title>Node59</title>
<g id="a_Node000059"><a xlink:title=" ">
<polygon fill="#e0e0e0" stroke="#999999" points="3515.5,-129 3472.5,-129 3472.5,-110 3515.5,-110 3515.5,-129"/>
<text text-anchor="middle" x="3494" y="-117" font-family="Helvetica,sans-Serif" font-size="10.00">stack</text>
</a>
</g>
</g>
<!-- Node56&#45;&gt;Node59 -->
<g id="edge52_Node000056_Node000059" class="edge">
<title>Node56&#45;&gt;Node59</title>
<g id="a_edge52_Node000056_Node000059"><a xlink:title=" ">
<path fill="none" stroke="#63b8ff" d="M3466.45,-164.75C3471.01,-157.42 3477.67,-146.73 3483.29,-137.7"/>
<polygon fill="#63b8ff" stroke="#63b8ff" points="3486.34,-139.43 3488.65,-129.09 3480.4,-135.73 3486.34,-139.43"/>
</a>
</g>
</g>
</g>
</svg>

<g id="navigator" transform="translate(0 0)" fill="#404254">
  <rect fill="#f2f5e9" fill-opacity="0.5" stroke="#606060" stroke-width=".5" x="0" y="0" width="60" height="60"/>
  <use id="zoomplus" xlink:href="#zoomPlus" x="17" y="9" onmousedown="handleZoom(evt,'in')"/>
  <use id="zoomminus" xlink:href="#zoomMin" x="42" y="9" onmousedown="handleZoom(evt,'out')"/>
  <use id="reset" xlink:href="#resetDef" x="30" y="36" onmousedown="handleReset()"/>
   <use id="arrowup" xlink:href="#arrowUp" x="0" y="0" onmousedown="handlePan(0,-1)"/>
  <use id="arrowright" xlink:href="#arrowRight" x="0" y="0" onmousedown="handlePan(1,0)"/>
  <use id="arrowdown" xlink:href="#arrowDown" x="0" y="0" onmousedown="handlePan(0,1)"/>
  <use id="arrowleft" xlink:href="#arrowLeft" x="0" y="0" onmousedown="handlePan(-1,0)"/>
</g>
<svg viewBox="0 0 15 15" width="100%" height="30px" preserveAspectRatio="xMaxYMin meet">
 <g id="arrow_out" transform="scale(0.3 0.3)">
  <a xlink:href="syntheticoperators_8cc__incl_org.svg" target="_base">
   <rect id="button" ry="5" rx="5" y="6" x="6" height="38" width="38"
        fill="#f2f5e9" fill-opacity="0.5" stroke="#606060" stroke-width="1.0"/>
   <path id="arrow"
     d="M 11.500037,31.436501 C 11.940474,20.09759 22.043105,11.32322 32.158766,21.979434 L 37.068811,17.246167 C 37.068811,17.246167 37.088388,32 37.088388,32 L 22.160133,31.978069 C 22.160133,31.978069 26.997745,27.140456 26.997745,27.140456 C 18.528582,18.264221 13.291696,25.230495 11.500037,31.436501 z"
     style="fill:#404040;"/>
  </a>
 </g>
</svg>

<style type='text/css'>
<![CDATA[
[data-mouse-over-selected='false'] { opacity: 0.7; }
[data-mouse-over-selected='true']  { opacity: 1.0; }
]]>
</style>
<script type="application/ecmascript"><![CDATA[
document.addEventListener('DOMContentLoaded', (event) => {
  highlightEdges();
  highlightAdjacentNodes();
});
]]></script>
</svg>
