<?xml version="1.0" encoding="UTF-8" standalone="no"?>
<!DOCTYPE svg PUBLIC "-//W3C//DTD SVG 1.1//EN"
 "http://www.w3.org/Graphics/SVG/1.1/DTD/svg11.dtd">
<!-- Generated by graphviz version 2.43.0 (0)
 -->
<!-- Title: squid/src/error/SysErrorDetail.cc Pages: 1 -->
<!--zoomable 313 -->

<svg id="main" version="1.1" xmlns="http://www.w3.org/2000/svg" xmlns:xlink="http://www.w3.org/1999/xlink" xml:space="preserve" onload="init(evt)">
<style type="text/css"><![CDATA[
.node, .edge {opacity: 0.7;}
.node.selected, .edge.selected {opacity: 1;}
.edge:hover path { stroke: red; }
.edge:hover polygon { stroke: red; fill: red; }
]]></style>

<defs>
  <circle id="rim" cx="0" cy="0" r="7"/>
  <circle id="rim2" cx="0" cy="0" r="3.5"/>
  <g id="zoomPlus">
    <use xlink:href="#rim" fill="#404040"><set attributeName="fill" to="#808080" begin="zoomplus.mouseover" end="zoomplus.mouseout"/></use>
    <path d="M-4,0h8M0,-4v8" fill="none" stroke="white" stroke-width="1.5" pointer-events="none"/>
  </g>
  <g id="zoomMin">
    <use xlink:href="#rim" fill="#404040"><set attributeName="fill" to="#808080" begin="zoomminus.mouseover" end="zoomminus.mouseout"/></use>
    <path d="M-4,0h8" fill="none" stroke="white" stroke-width="1.5" pointer-events="none"/>
  </g>
  <g id="arrowUp" transform="translate(30 24)">
    <use xlink:href="#rim"/>
    <path pointer-events="none" fill="none" stroke="white" stroke-width="1.5" d="M0,-3.0v7 M-2.5,-0.5L0,-3.0L2.5,-0.5"/>
  </g>
  <g id="arrowRight" transform="rotate(90) translate(36 -43)">
    <use xlink:href="#rim"/>
    <path pointer-events="none" fill="none" stroke="white" stroke-width="1.5" d="M0,-3.0v7 M-2.5,-0.5L0,-3.0L2.5,-0.5"/>
  </g>
  <g id="arrowDown" transform="rotate(180) translate(-30 -48)">
    <use xlink:href="#rim"/>
    <path pointer-events="none" fill="none" stroke="white" stroke-width="1.5" d="M0,-3.0v7 M-2.5,-0.5L0,-3.0L2.5,-0.5"/>
  </g>
  <g id="arrowLeft" transform="rotate(270) translate(-36 17)">
    <use xlink:href="#rim"/>
    <path pointer-events="none" fill="none" stroke="white" stroke-width="1.5" d="M0,-3.0v7 M-2.5,-0.5L0,-3.0L2.5,-0.5"/>
  </g>
  <g id="resetDef">
    <use xlink:href="#rim2" fill="#404040"><set attributeName="fill" to="#808080" begin="reset.mouseover" end="reset.mouseout"/></use>
  </g>
</defs>
<script type="application/ecmascript">
var viewWidth = 4359;
var viewHeight = 313;
var sectionId = 'dynsection-0';
</script>
<script type="application/ecmascript" xlink:href="svg.min.js"/>
<svg id="graph" class="graph">
<g id="viewport">
<title>squid/src/error/SysErrorDetail.cc</title>
<!-- Node1 -->
<g id="Node000001" class="node">
<title>Node1</title>
<g id="a_Node000001"><a xlink:title=" ">
<polygon fill="#999999" stroke="#666666" points="3812,-305 3682,-305 3682,-275 3812,-275 3812,-305"/>
<text text-anchor="start" x="3690" y="-293" font-family="Helvetica,sans-Serif" font-size="10.00">squid/src/error/SysError</text>
<text text-anchor="middle" x="3747" y="-282" font-family="Helvetica,sans-Serif" font-size="10.00">Detail.cc</text>
</a>
</g>
</g>
<!-- Node2 -->
<g id="Node000002" class="node">
<title>Node2</title>
<g id="a_Node000002"><a xlink:href="squid_8h.html" target="_top" xlink:title=" ">
<polygon fill="white" stroke="#666666" points="1623,-239 1571,-239 1571,-220 1623,-220 1623,-239"/>
<text text-anchor="middle" x="1597" y="-227" font-family="Helvetica,sans-Serif" font-size="10.00">squid.h</text>
</a>
</g>
</g>
<!-- Node1&#45;&gt;Node2 -->
<g id="edge1_Node000001_Node000002" class="edge">
<title>Node1&#45;&gt;Node2</title>
<g id="a_edge1_Node000001_Node000002"><a xlink:title=" ">
<path fill="none" stroke="#63b8ff" d="M3681.78,-287.23C3352.99,-278.28 1883.24,-238.29 1633.22,-231.49"/>
<polygon fill="#63b8ff" stroke="#63b8ff" points="1633.29,-227.99 1623.2,-231.21 1633.1,-234.98 1633.29,-227.99"/>
</a>
</g>
</g>
<!-- Node45 -->
<g id="Node000045" class="node">
<title>Node45</title>
<g id="a_Node000045"><a xlink:href="SysErrorDetail_8h.html" target="_top" xlink:title=" ">
<polygon fill="white" stroke="#666666" points="3683,-239 3561,-239 3561,-220 3683,-220 3683,-239"/>
<text text-anchor="middle" x="3622" y="-227" font-family="Helvetica,sans-Serif" font-size="10.00">error/SysErrorDetail.h</text>
</a>
</g>
</g>
<!-- Node1&#45;&gt;Node45 -->
<g id="edge31_Node000001_Node000045" class="edge">
<title>Node1&#45;&gt;Node45</title>
<g id="a_edge31_Node000001_Node000045"><a xlink:title=" ">
<path fill="none" stroke="#63b8ff" d="M3717.06,-274.99C3696.58,-265.4 3669.62,-252.79 3649.65,-243.44"/>
<polygon fill="#63b8ff" stroke="#63b8ff" points="3651,-240.21 3640.46,-239.14 3648.03,-246.55 3651,-240.21"/>
</a>
</g>
</g>
<!-- Node62 -->
<g id="Node000062" class="node">
<title>Node62</title>
<g id="a_Node000062"><a xlink:href="SBuf_8h.html" target="_top" xlink:title=" ">
<polygon fill="white" stroke="#666666" points="4008.5,-184 3937.5,-184 3937.5,-165 4008.5,-165 4008.5,-184"/>
<text text-anchor="middle" x="3973" y="-172" font-family="Helvetica,sans-Serif" font-size="10.00">sbuf/SBuf.h</text>
</a>
</g>
</g>
<!-- Node1&#45;&gt;Node62 -->
<g id="edge40_Node000001_Node000062" class="edge">
<title>Node1&#45;&gt;Node62</title>
<g id="a_edge40_Node000001_Node000062"><a xlink:title=" ">
<path fill="none" stroke="#63b8ff" d="M3775.17,-274.85C3819.28,-252.7 3904.04,-210.13 3946.87,-188.63"/>
<polygon fill="#63b8ff" stroke="#63b8ff" points="3948.46,-191.74 3955.83,-184.12 3945.32,-185.48 3948.46,-191.74"/>
</a>
</g>
</g>
<!-- Node84 -->
<g id="Node000084" class="node">
<title>Node84</title>
<g id="a_Node000084"><a xlink:href="sbuf_2Stream_8h.html" target="_top" xlink:title=" ">
<polygon fill="white" stroke="#666666" points="4015.5,-239 3930.5,-239 3930.5,-220 4015.5,-220 4015.5,-239"/>
<text text-anchor="middle" x="3973" y="-227" font-family="Helvetica,sans-Serif" font-size="10.00">sbuf/Stream.h</text>
</a>
</g>
</g>
<!-- Node1&#45;&gt;Node84 -->
<g id="edge57_Node000001_Node000084" class="edge">
<title>Node1&#45;&gt;Node84</title>
<g id="a_edge57_Node000001_Node000084"><a xlink:title=" ">
<path fill="none" stroke="#63b8ff" d="M3801.13,-274.99C3840.64,-264.76 3893.47,-251.09 3930.08,-241.61"/>
<polygon fill="#63b8ff" stroke="#63b8ff" points="3931.15,-244.95 3939.96,-239.05 3929.4,-238.17 3931.15,-244.95"/>
</a>
</g>
</g>
<!-- Node3 -->
<g id="Node000003" class="node">
<title>Node3</title>
<g id="a_Node000003"><a xlink:href="autoconf_8h.html" target="_top" xlink:title=" ">
<polygon fill="white" stroke="#666666" points="1498,-184 1430,-184 1430,-165 1498,-165 1498,-184"/>
<text text-anchor="middle" x="1464" y="-172" font-family="Helvetica,sans-Serif" font-size="10.00">autoconf.h</text>
</a>
</g>
</g>
<!-- Node2&#45;&gt;Node3 -->
<g id="edge2_Node000002_Node000003" class="edge">
<title>Node2&#45;&gt;Node3</title>
<g id="a_edge2_Node000002_Node000003"><a xlink:title=" ">
<path fill="none" stroke="#63b8ff" d="M1575.63,-219.98C1553.85,-211.3 1519.84,-197.75 1495.08,-187.88"/>
<polygon fill="#63b8ff" stroke="#63b8ff" points="1496.34,-184.62 1485.76,-184.17 1493.75,-191.12 1496.34,-184.62"/>
</a>
</g>
</g>
<!-- Node4 -->
<g id="Node000004" class="node">
<title>Node4</title>
<g id="a_Node000004"><a xlink:href="version_8h.html" target="_top" xlink:title=" ">
<polygon fill="white" stroke="#666666" points="1578,-184 1516,-184 1516,-165 1578,-165 1578,-184"/>
<text text-anchor="middle" x="1547" y="-172" font-family="Helvetica,sans-Serif" font-size="10.00">version.h</text>
</a>
</g>
</g>
<!-- Node2&#45;&gt;Node4 -->
<g id="edge3_Node000002_Node000004" class="edge">
<title>Node2&#45;&gt;Node4</title>
<g id="a_edge3_Node000002_Node000004"><a xlink:title=" ">
<path fill="none" stroke="#63b8ff" d="M1588.74,-219.75C1581.54,-212.11 1570.89,-200.82 1562.15,-191.56"/>
<polygon fill="#63b8ff" stroke="#63b8ff" points="1564.51,-188.96 1555.1,-184.09 1559.42,-193.76 1564.51,-188.96"/>
</a>
</g>
</g>
<!-- Node5 -->
<g id="Node000005" class="node">
<title>Node5</title>
<g id="a_Node000005"><a xlink:href="compat_8h.html" target="_top" xlink:title=" ">
<polygon fill="white" stroke="#666666" points="1698,-184 1596,-184 1596,-165 1698,-165 1698,-184"/>
<text text-anchor="middle" x="1647" y="-172" font-family="Helvetica,sans-Serif" font-size="10.00">compat/compat.h</text>
</a>
</g>
</g>
<!-- Node2&#45;&gt;Node5 -->
<g id="edge4_Node000002_Node000005" class="edge">
<title>Node2&#45;&gt;Node5</title>
<g id="a_edge4_Node000002_Node000005"><a xlink:title=" ">
<path fill="none" stroke="#63b8ff" d="M1605.26,-219.75C1612.46,-212.11 1623.11,-200.82 1631.85,-191.56"/>
<polygon fill="#63b8ff" stroke="#63b8ff" points="1634.58,-193.76 1638.9,-184.09 1629.49,-188.96 1634.58,-193.76"/>
</a>
</g>
</g>
<!-- Node6 -->
<g id="Node000006" class="node">
<title>Node6</title>
<g id="a_Node000006"><a xlink:href="osdetect_8h.html" target="_top" xlink:title=" ">
<polygon fill="white" stroke="#666666" points="1342.5,-129 1235.5,-129 1235.5,-110 1342.5,-110 1342.5,-129"/>
<text text-anchor="middle" x="1289" y="-117" font-family="Helvetica,sans-Serif" font-size="10.00">compat/osdetect.h</text>
</a>
</g>
</g>
<!-- Node5&#45;&gt;Node6 -->
<g id="edge5_Node000005_Node000006" class="edge">
<title>Node5&#45;&gt;Node6</title>
<g id="a_edge5_Node000005_Node000006"><a xlink:title=" ">
<path fill="none" stroke="#63b8ff" d="M1595.71,-165.91C1531.58,-156.41 1421.82,-140.16 1352.46,-129.9"/>
<polygon fill="#63b8ff" stroke="#63b8ff" points="1352.94,-126.43 1342.54,-128.43 1351.92,-133.35 1352.94,-126.43"/>
</a>
</g>
</g>
<!-- Node7 -->
<g id="Node000007" class="node">
<title>Node7</title>
<g id="a_Node000007"><a xlink:href="fdsetsize_8h.html" target="_top" xlink:title=" ">
<polygon fill="white" stroke="#666666" points="1471,-129 1361,-129 1361,-110 1471,-110 1471,-129"/>
<text text-anchor="middle" x="1416" y="-117" font-family="Helvetica,sans-Serif" font-size="10.00">compat/fdsetsize.h</text>
</a>
</g>
</g>
<!-- Node5&#45;&gt;Node7 -->
<g id="edge6_Node000005_Node000007" class="edge">
<title>Node5&#45;&gt;Node7</title>
<g id="a_edge6_Node000005_Node000007"><a xlink:title=" ">
<path fill="none" stroke="#63b8ff" d="M1609.89,-164.98C1570.01,-155.84 1506.54,-141.27 1463.16,-131.32"/>
<polygon fill="#63b8ff" stroke="#63b8ff" points="1463.93,-127.91 1453.41,-129.08 1462.37,-134.73 1463.93,-127.91"/>
</a>
</g>
</g>
<!-- Node8 -->
<g id="Node000008" class="node">
<title>Node8</title>
<g id="a_Node000008"><a xlink:href="types_8h.html" target="_top" xlink:title=" ">
<polygon fill="#fff0f0" stroke="red" points="1581,-129 1489,-129 1489,-110 1581,-110 1581,-129"/>
<text text-anchor="middle" x="1535" y="-117" font-family="Helvetica,sans-Serif" font-size="10.00">compat/types.h</text>
</a>
</g>
</g>
<!-- Node5&#45;&gt;Node8 -->
<g id="edge7_Node000005_Node000008" class="edge">
<title>Node5&#45;&gt;Node8</title>
<g id="a_edge7_Node000005_Node000008"><a xlink:title=" ">
<path fill="none" stroke="#63b8ff" d="M1629.01,-164.98C1611.07,-156.5 1583.28,-143.35 1562.57,-133.54"/>
<polygon fill="#63b8ff" stroke="#63b8ff" points="1563.86,-130.28 1553.32,-129.17 1560.86,-136.61 1563.86,-130.28"/>
</a>
</g>
</g>
<!-- Node10 -->
<g id="Node000010" class="node">
<title>Node10</title>
<g id="a_Node000010"><a xlink:href="aix_8h.html" target="_top" xlink:title=" ">
<polygon fill="white" stroke="#666666" points="1694.5,-129 1599.5,-129 1599.5,-110 1694.5,-110 1694.5,-129"/>
<text text-anchor="middle" x="1647" y="-117" font-family="Helvetica,sans-Serif" font-size="10.00">compat/os/aix.h</text>
</a>
</g>
</g>
<!-- Node5&#45;&gt;Node10 -->
<g id="edge8_Node000005_Node000010" class="edge">
<title>Node5&#45;&gt;Node10</title>
<g id="a_edge8_Node000005_Node000010"><a xlink:title=" ">
<path fill="none" stroke="#63b8ff" d="M1647,-164.75C1647,-157.8 1647,-147.85 1647,-139.13"/>
<polygon fill="#63b8ff" stroke="#63b8ff" points="1650.5,-139.09 1647,-129.09 1643.5,-139.09 1650.5,-139.09"/>
</a>
</g>
</g>
<!-- Node11 -->
<g id="Node000011" class="node">
<title>Node11</title>
<g id="a_Node000011"><a xlink:href="android_8h.html" target="_top" xlink:title=" ">
<polygon fill="white" stroke="#666666" points="1829,-129 1713,-129 1713,-110 1829,-110 1829,-129"/>
<text text-anchor="middle" x="1771" y="-117" font-family="Helvetica,sans-Serif" font-size="10.00">compat/os/android.h</text>
</a>
</g>
</g>
<!-- Node5&#45;&gt;Node11 -->
<g id="edge9_Node000005_Node000011" class="edge">
<title>Node5&#45;&gt;Node11</title>
<g id="a_edge9_Node000005_Node000011"><a xlink:title=" ">
<path fill="none" stroke="#63b8ff" d="M1666.92,-164.98C1687.05,-156.38 1718.38,-142.99 1741.41,-133.15"/>
<polygon fill="#63b8ff" stroke="#63b8ff" points="1742.9,-136.32 1750.71,-129.17 1740.14,-129.88 1742.9,-136.32"/>
</a>
</g>
</g>
<!-- Node12 -->
<g id="Node000012" class="node">
<title>Node12</title>
<g id="a_Node000012"><a xlink:href="dragonfly_8h.html" target="_top" xlink:title=" ">
<polygon fill="white" stroke="#666666" points="1971,-129 1847,-129 1847,-110 1971,-110 1971,-129"/>
<text text-anchor="middle" x="1909" y="-117" font-family="Helvetica,sans-Serif" font-size="10.00">compat/os/dragonfly.h</text>
</a>
</g>
</g>
<!-- Node5&#45;&gt;Node12 -->
<g id="edge10_Node000005_Node000012" class="edge">
<title>Node5&#45;&gt;Node12</title>
<g id="a_edge10_Node000005_Node000012"><a xlink:title=" ">
<path fill="none" stroke="#63b8ff" d="M1689.09,-164.98C1734.7,-155.76 1807.52,-141.03 1856.75,-131.07"/>
<polygon fill="#63b8ff" stroke="#63b8ff" points="1857.47,-134.5 1866.58,-129.08 1856.08,-127.63 1857.47,-134.5"/>
</a>
</g>
</g>
<!-- Node13 -->
<g id="Node000013" class="node">
<title>Node13</title>
<g id="a_Node000013"><a xlink:href="freebsd_8h.html" target="_top" xlink:title=" ">
<polygon fill="white" stroke="#666666" points="2105,-129 1989,-129 1989,-110 2105,-110 2105,-129"/>
<text text-anchor="middle" x="2047" y="-117" font-family="Helvetica,sans-Serif" font-size="10.00">compat/os/freebsd.h</text>
</a>
</g>
</g>
<!-- Node5&#45;&gt;Node13 -->
<g id="edge11_Node000005_Node000013" class="edge">
<title>Node5&#45;&gt;Node13</title>
<g id="a_edge11_Node000005_Node000013"><a xlink:title=" ">
<path fill="none" stroke="#63b8ff" d="M1698.07,-166.73C1769.47,-157.27 1899.29,-140.07 1978.86,-129.53"/>
<polygon fill="#63b8ff" stroke="#63b8ff" points="1979.34,-133 1988.79,-128.21 1978.42,-126.06 1979.34,-133"/>
</a>
</g>
</g>
<!-- Node14 -->
<g id="Node000014" class="node">
<title>Node14</title>
<g id="a_Node000014"><a xlink:href="hpux_8h.html" target="_top" xlink:title=" ">
<polygon fill="white" stroke="#666666" points="2227,-129 2123,-129 2123,-110 2227,-110 2227,-129"/>
<text text-anchor="middle" x="2175" y="-117" font-family="Helvetica,sans-Serif" font-size="10.00">compat/os/hpux.h</text>
</a>
</g>
</g>
<!-- Node5&#45;&gt;Node14 -->
<g id="edge12_Node000005_Node000014" class="edge">
<title>Node5&#45;&gt;Node14</title>
<g id="a_edge12_Node000005_Node000014"><a xlink:title=" ">
<path fill="none" stroke="#63b8ff" d="M1698.21,-169.35C1782.39,-162.38 1955.5,-147.35 2112.46,-129.13"/>
<polygon fill="#63b8ff" stroke="#63b8ff" points="2113.25,-132.57 2122.78,-127.93 2112.44,-125.61 2113.25,-132.57"/>
</a>
</g>
</g>
<!-- Node15 -->
<g id="Node000015" class="node">
<title>Node15</title>
<g id="a_Node000015"><a xlink:href="linux_8h.html" target="_top" xlink:title=" ">
<polygon fill="white" stroke="#666666" points="2349,-129 2245,-129 2245,-110 2349,-110 2349,-129"/>
<text text-anchor="middle" x="2297" y="-117" font-family="Helvetica,sans-Serif" font-size="10.00">compat/os/linux.h</text>
</a>
</g>
</g>
<!-- Node5&#45;&gt;Node15 -->
<g id="edge13_Node000005_Node000015" class="edge">
<title>Node5&#45;&gt;Node15</title>
<g id="a_edge13_Node000005_Node000015"><a xlink:title=" ">
<path fill="none" stroke="#63b8ff" d="M1698.31,-170.71C1799.07,-165.01 2030.08,-150.76 2234.75,-129.07"/>
<polygon fill="#63b8ff" stroke="#63b8ff" points="2235.21,-132.54 2244.78,-128 2234.47,-125.58 2235.21,-132.54"/>
</a>
</g>
</g>
<!-- Node16 -->
<g id="Node000016" class="node">
<title>Node16</title>
<g id="a_Node000016"><a xlink:href="macosx_8h.html" target="_top" xlink:title=" ">
<polygon fill="white" stroke="#666666" points="2485,-129 2367,-129 2367,-110 2485,-110 2485,-129"/>
<text text-anchor="middle" x="2426" y="-117" font-family="Helvetica,sans-Serif" font-size="10.00">compat/os/macosx.h</text>
</a>
</g>
</g>
<!-- Node5&#45;&gt;Node16 -->
<g id="edge14_Node000005_Node000016" class="edge">
<title>Node5&#45;&gt;Node16</title>
<g id="a_edge14_Node000005_Node000016"><a xlink:title=" ">
<path fill="none" stroke="#63b8ff" d="M1698.39,-171.38C1814.01,-166.36 2103.64,-152.48 2356.57,-129.08"/>
<polygon fill="#63b8ff" stroke="#63b8ff" points="2357.05,-132.55 2366.69,-128.13 2356.4,-125.58 2357.05,-132.55"/>
</a>
</g>
</g>
<!-- Node17 -->
<g id="Node000017" class="node">
<title>Node17</title>
<g id="a_Node000017"><a xlink:href="mingw_8h.html" target="_top" xlink:title=" ">
<polygon fill="white" stroke="#666666" points="2615,-129 2503,-129 2503,-110 2615,-110 2615,-129"/>
<text text-anchor="middle" x="2559" y="-117" font-family="Helvetica,sans-Serif" font-size="10.00">compat/os/mingw.h</text>
</a>
</g>
</g>
<!-- Node5&#45;&gt;Node17 -->
<g id="edge15_Node000005_Node000017" class="edge">
<title>Node5&#45;&gt;Node17</title>
<g id="a_edge15_Node000005_Node000017"><a xlink:title=" ">
<path fill="none" stroke="#63b8ff" d="M1698.18,-172.19C1828.78,-168.57 2185.26,-156.8 2492.66,-129.05"/>
<polygon fill="#63b8ff" stroke="#63b8ff" points="2493.02,-132.53 2502.66,-128.14 2492.38,-125.56 2493.02,-132.53"/>
</a>
</g>
</g>
<!-- Node18 -->
<g id="Node000018" class="node">
<title>Node18</title>
<g id="a_Node000018"><a xlink:href="mswindows_8h.html" target="_top" xlink:title=" ">
<polygon fill="white" stroke="#666666" points="2770.5,-129 2633.5,-129 2633.5,-110 2770.5,-110 2770.5,-129"/>
<text text-anchor="middle" x="2702" y="-117" font-family="Helvetica,sans-Serif" font-size="10.00">compat/os/mswindows.h</text>
</a>
</g>
</g>
<!-- Node5&#45;&gt;Node18 -->
<g id="edge16_Node000005_Node000018" class="edge">
<title>Node5&#45;&gt;Node18</title>
<g id="a_edge16_Node000005_Node000018"><a xlink:title=" ">
<path fill="none" stroke="#63b8ff" d="M1698.18,-172.31C1842.06,-168.71 2262.5,-156.52 2623.01,-129.02"/>
<polygon fill="#63b8ff" stroke="#63b8ff" points="2623.42,-132.5 2633.12,-128.24 2622.88,-125.52 2623.42,-132.5"/>
</a>
</g>
</g>
<!-- Node19 -->
<g id="Node000019" class="node">
<title>Node19</title>
<g id="a_Node000019"><a xlink:href="netbsd_8h.html" target="_top" xlink:title=" ">
<polygon fill="white" stroke="#666666" points="2901.5,-129 2788.5,-129 2788.5,-110 2901.5,-110 2901.5,-129"/>
<text text-anchor="middle" x="2845" y="-117" font-family="Helvetica,sans-Serif" font-size="10.00">compat/os/netbsd.h</text>
</a>
</g>
</g>
<!-- Node5&#45;&gt;Node19 -->
<g id="edge17_Node000005_Node000019" class="edge">
<title>Node5&#45;&gt;Node19</title>
<g id="a_edge17_Node000005_Node000019"><a xlink:title=" ">
<path fill="none" stroke="#63b8ff" d="M1698.15,-173.11C1856.82,-171.54 2354.9,-164.03 2778.17,-128.98"/>
<polygon fill="#63b8ff" stroke="#63b8ff" points="2778.48,-132.47 2788.15,-128.15 2777.9,-125.49 2778.48,-132.47"/>
</a>
</g>
</g>
<!-- Node20 -->
<g id="Node000020" class="node">
<title>Node20</title>
<g id="a_Node000020"><a xlink:href="openbsd_8h.html" target="_top" xlink:title=" ">
<polygon fill="white" stroke="#666666" points="3040.5,-129 2919.5,-129 2919.5,-110 3040.5,-110 3040.5,-129"/>
<text text-anchor="middle" x="2980" y="-117" font-family="Helvetica,sans-Serif" font-size="10.00">compat/os/openbsd.h</text>
</a>
</g>
</g>
<!-- Node5&#45;&gt;Node20 -->
<g id="edge18_Node000005_Node000020" class="edge">
<title>Node5&#45;&gt;Node20</title>
<g id="a_edge18_Node000005_Node000020"><a xlink:title=" ">
<path fill="none" stroke="#63b8ff" d="M1698.22,-173.27C1868.63,-172.16 2432.2,-165.82 2909.14,-128.98"/>
<polygon fill="#63b8ff" stroke="#63b8ff" points="2909.63,-132.46 2919.33,-128.19 2909.08,-125.48 2909.63,-132.46"/>
</a>
</g>
</g>
<!-- Node21 -->
<g id="Node000021" class="node">
<title>Node21</title>
<g id="a_Node000021"><a xlink:href="os2_8h.html" target="_top" xlink:title=" ">
<polygon fill="white" stroke="#666666" points="3155.5,-129 3058.5,-129 3058.5,-110 3155.5,-110 3155.5,-129"/>
<text text-anchor="middle" x="3107" y="-117" font-family="Helvetica,sans-Serif" font-size="10.00">compat/os/os2.h</text>
</a>
</g>
</g>
<!-- Node5&#45;&gt;Node21 -->
<g id="edge19_Node000005_Node000021" class="edge">
<title>Node5&#45;&gt;Node21</title>
<g id="a_edge19_Node000005_Node000021"><a xlink:title=" ">
<path fill="none" stroke="#63b8ff" d="M1698.05,-173.97C1880.09,-175.22 2514.5,-175.76 3048.1,-128.95"/>
<polygon fill="#63b8ff" stroke="#63b8ff" points="3048.66,-132.41 3058.31,-128.05 3048.04,-125.44 3048.66,-132.41"/>
</a>
</g>
</g>
<!-- Node22 -->
<g id="Node000022" class="node">
<title>Node22</title>
<g id="a_Node000022"><a xlink:href="qnx_8h.html" target="_top" xlink:title=" ">
<polygon fill="white" stroke="#666666" points="3272,-129 3174,-129 3174,-110 3272,-110 3272,-129"/>
<text text-anchor="middle" x="3223" y="-117" font-family="Helvetica,sans-Serif" font-size="10.00">compat/os/qnx.h</text>
</a>
</g>
</g>
<!-- Node5&#45;&gt;Node22 -->
<g id="edge20_Node000005_Node000022" class="edge">
<title>Node5&#45;&gt;Node22</title>
<g id="a_edge20_Node000005_Node000022"><a xlink:title=" ">
<path fill="none" stroke="#63b8ff" d="M1698.02,-172.78C1925.53,-169.47 2849.68,-154.74 3163.78,-128.86"/>
<polygon fill="#63b8ff" stroke="#63b8ff" points="3164.12,-132.35 3173.79,-128.02 3163.53,-125.37 3164.12,-132.35"/>
</a>
</g>
</g>
<!-- Node23 -->
<g id="Node000023" class="node">
<title>Node23</title>
<g id="a_Node000023"><a xlink:href="sgi_8h.html" target="_top" xlink:title=" ">
<polygon fill="white" stroke="#666666" points="94,-129 0,-129 0,-110 94,-110 94,-129"/>
<text text-anchor="middle" x="47" y="-117" font-family="Helvetica,sans-Serif" font-size="10.00">compat/os/sgi.h</text>
</a>
</g>
</g>
<!-- Node5&#45;&gt;Node23 -->
<g id="edge21_Node000005_Node000023" class="edge">
<title>Node5&#45;&gt;Node23</title>
<g id="a_edge21_Node000005_Node000023"><a xlink:title=" ">
<path fill="none" stroke="#63b8ff" d="M1595.98,-165.86C1592.95,-165.53 1589.94,-165.24 1587,-165 932.86,-110.92 761.98,-185.84 104.21,-128.96"/>
<polygon fill="#63b8ff" stroke="#63b8ff" points="104.27,-125.46 94,-128.07 103.66,-132.43 104.27,-125.46"/>
</a>
</g>
</g>
<!-- Node24 -->
<g id="Node000024" class="node">
<title>Node24</title>
<g id="a_Node000024"><a xlink:href="solaris_8h.html" target="_top" xlink:title=" ">
<polygon fill="white" stroke="#666666" points="224,-129 112,-129 112,-110 224,-110 224,-129"/>
<text text-anchor="middle" x="168" y="-117" font-family="Helvetica,sans-Serif" font-size="10.00">compat/os/solaris.h</text>
</a>
</g>
</g>
<!-- Node5&#45;&gt;Node24 -->
<g id="edge22_Node000005_Node000024" class="edge">
<title>Node5&#45;&gt;Node24</title>
<g id="a_edge22_Node000005_Node000024"><a xlink:title=" ">
<path fill="none" stroke="#63b8ff" d="M1595.98,-165.87C1592.95,-165.54 1589.94,-165.25 1587,-165 990.48,-114.98 834.89,-175.41 234.55,-129.02"/>
<polygon fill="#63b8ff" stroke="#63b8ff" points="234.57,-125.52 224.33,-128.23 234.03,-132.5 234.57,-125.52"/>
</a>
</g>
</g>
<!-- Node25 -->
<g id="Node000025" class="node">
<title>Node25</title>
<g id="a_Node000025"><a xlink:href="sunos_8h.html" target="_top" xlink:title=" ">
<polygon fill="white" stroke="#666666" points="350,-129 242,-129 242,-110 350,-110 350,-129"/>
<text text-anchor="middle" x="296" y="-117" font-family="Helvetica,sans-Serif" font-size="10.00">compat/os/sunos.h</text>
</a>
</g>
</g>
<!-- Node5&#45;&gt;Node25 -->
<g id="edge23_Node000005_Node000025" class="edge">
<title>Node5&#45;&gt;Node25</title>
<g id="a_edge23_Node000005_Node000025"><a xlink:title=" ">
<path fill="none" stroke="#63b8ff" d="M1595.98,-165.88C1592.95,-165.55 1589.94,-165.25 1587,-165 1046.28,-118.92 904.91,-172.9 360.34,-129.01"/>
<polygon fill="#63b8ff" stroke="#63b8ff" points="360.51,-125.51 350.26,-128.19 359.94,-132.49 360.51,-125.51"/>
</a>
</g>
</g>
<!-- Node26 -->
<g id="Node000026" class="node">
<title>Node26</title>
<g id="a_Node000026"><a xlink:href="assert_8h.html" target="_top" xlink:title=" ">
<polygon fill="white" stroke="#666666" points="463.5,-129 368.5,-129 368.5,-110 463.5,-110 463.5,-129"/>
<text text-anchor="middle" x="416" y="-117" font-family="Helvetica,sans-Serif" font-size="10.00">compat/assert.h</text>
</a>
</g>
</g>
<!-- Node5&#45;&gt;Node26 -->
<g id="edge24_Node000005_Node000026" class="edge">
<title>Node5&#45;&gt;Node26</title>
<g id="a_edge24_Node000005_Node000026"><a xlink:title=" ">
<path fill="none" stroke="#63b8ff" d="M1595.98,-165.89C1592.95,-165.56 1589.93,-165.25 1587,-165 1096.86,-122.49 968.11,-172.91 473.8,-128.93"/>
<polygon fill="#63b8ff" stroke="#63b8ff" points="473.81,-125.42 463.54,-128.01 473.18,-132.39 473.81,-125.42"/>
</a>
</g>
</g>
<!-- Node27 -->
<g id="Node000027" class="node">
<title>Node27</title>
<g id="a_Node000027"><a xlink:href="compat__shared_8h.html" target="_top" xlink:title=" ">
<polygon fill="#fff0f0" stroke="red" points="622,-129 482,-129 482,-110 622,-110 622,-129"/>
<text text-anchor="middle" x="552" y="-117" font-family="Helvetica,sans-Serif" font-size="10.00">compat/compat_shared.h</text>
</a>
</g>
</g>
<!-- Node5&#45;&gt;Node27 -->
<g id="edge25_Node000005_Node000027" class="edge">
<title>Node5&#45;&gt;Node27</title>
<g id="a_edge25_Node000005_Node000027"><a xlink:title=" ">
<path fill="none" stroke="#63b8ff" d="M1595.98,-165.91C1592.94,-165.57 1589.93,-165.26 1587,-165 1166.81,-127.43 1056.79,-159.26 632.28,-129.03"/>
<polygon fill="#63b8ff" stroke="#63b8ff" points="632.41,-125.53 622.19,-128.31 631.91,-132.52 632.41,-125.53"/>
</a>
</g>
</g>
<!-- Node37 -->
<g id="Node000037" class="node">
<title>Node37</title>
<g id="a_Node000037"><a xlink:href="stdvarargs_8h.html" target="_top" xlink:title=" ">
<polygon fill="#fff0f0" stroke="red" points="757.5,-129 640.5,-129 640.5,-110 757.5,-110 757.5,-129"/>
<text text-anchor="middle" x="699" y="-117" font-family="Helvetica,sans-Serif" font-size="10.00">compat/stdvarargs.h</text>
</a>
</g>
</g>
<!-- Node5&#45;&gt;Node37 -->
<g id="edge26_Node000005_Node000037" class="edge">
<title>Node5&#45;&gt;Node37</title>
<g id="a_edge26_Node000005_Node000037"><a xlink:title=" ">
<path fill="none" stroke="#63b8ff" d="M1595.98,-165.93C1592.94,-165.59 1589.93,-165.27 1587,-165 1226.6,-131.65 1131.63,-159.5 767.81,-129.08"/>
<polygon fill="#63b8ff" stroke="#63b8ff" points="768.06,-125.59 757.8,-128.24 767.47,-132.57 768.06,-125.59"/>
</a>
</g>
</g>
<!-- Node39 -->
<g id="Node000039" class="node">
<title>Node39</title>
<g id="a_Node000039"><a xlink:href="stdio_8h.html" target="_top" xlink:title=" ">
<polygon fill="#fff0f0" stroke="red" points="864.5,-129 775.5,-129 775.5,-110 864.5,-110 864.5,-129"/>
<text text-anchor="middle" x="820" y="-117" font-family="Helvetica,sans-Serif" font-size="10.00">compat/stdio.h</text>
</a>
</g>
</g>
<!-- Node5&#45;&gt;Node39 -->
<g id="edge27_Node000005_Node000039" class="edge">
<title>Node5&#45;&gt;Node39</title>
<g id="a_edge27_Node000005_Node000039"><a xlink:title=" ">
<path fill="none" stroke="#63b8ff" d="M1595.97,-165.95C1592.94,-165.6 1589.93,-165.28 1587,-165 1274.11,-135.01 1190.78,-161.62 875.14,-129.11"/>
<polygon fill="#63b8ff" stroke="#63b8ff" points="875.08,-125.59 864.77,-128.03 874.36,-132.55 875.08,-125.59"/>
</a>
</g>
</g>
<!-- Node41 -->
<g id="Node000041" class="node">
<title>Node41</title>
<g id="a_Node000041"><a xlink:href="statvfs_8h.html" target="_top" xlink:title=" ">
<polygon fill="white" stroke="#666666" points="981.5,-129 882.5,-129 882.5,-110 981.5,-110 981.5,-129"/>
<text text-anchor="middle" x="932" y="-117" font-family="Helvetica,sans-Serif" font-size="10.00">compat/statvfs.h</text>
</a>
</g>
</g>
<!-- Node5&#45;&gt;Node41 -->
<g id="edge28_Node000005_Node000041" class="edge">
<title>Node5&#45;&gt;Node41</title>
<g id="a_edge28_Node000005_Node000041"><a xlink:title=" ">
<path fill="none" stroke="#63b8ff" d="M1595.97,-165.99C1592.94,-165.63 1589.93,-165.3 1587,-165 1325.88,-138.67 1256.17,-155.85 991.93,-129.11"/>
<polygon fill="#63b8ff" stroke="#63b8ff" points="991.94,-125.6 981.64,-128.06 991.23,-132.56 991.94,-125.6"/>
</a>
</g>
</g>
<!-- Node42 -->
<g id="Node000042" class="node">
<title>Node42</title>
<g id="a_Node000042"><a xlink:href="debug_8h.html" target="_top" xlink:title=" ">
<polygon fill="white" stroke="#666666" points="1094.5,-129 999.5,-129 999.5,-110 1094.5,-110 1094.5,-129"/>
<text text-anchor="middle" x="1047" y="-117" font-family="Helvetica,sans-Serif" font-size="10.00">compat/debug.h</text>
</a>
</g>
</g>
<!-- Node5&#45;&gt;Node42 -->
<g id="edge29_Node000005_Node000042" class="edge">
<title>Node5&#45;&gt;Node42</title>
<g id="a_edge29_Node000005_Node000042"><a xlink:title=" ">
<path fill="none" stroke="#63b8ff" d="M1595.97,-166.03C1592.93,-165.66 1589.93,-165.32 1587,-165 1375.79,-142.21 1319.05,-152.87 1104.63,-129.1"/>
<polygon fill="#63b8ff" stroke="#63b8ff" points="1104.95,-125.62 1094.63,-127.98 1104.17,-132.57 1104.95,-125.62"/>
</a>
</g>
</g>
<!-- Node43 -->
<g id="Node000043" class="node">
<title>Node43</title>
<g id="a_Node000043"><a xlink:href="valgrind_8h.html" target="_top" xlink:title=" ">
<polygon fill="#fff0f0" stroke="red" points="1217.5,-129 1112.5,-129 1112.5,-110 1217.5,-110 1217.5,-129"/>
<text text-anchor="middle" x="1165" y="-117" font-family="Helvetica,sans-Serif" font-size="10.00">compat/valgrind.h</text>
</a>
</g>
</g>
<!-- Node5&#45;&gt;Node43 -->
<g id="edge30_Node000005_Node000043" class="edge">
<title>Node5&#45;&gt;Node43</title>
<g id="a_edge30_Node000005_Node000043"><a xlink:title=" ">
<path fill="none" stroke="#63b8ff" d="M1595.96,-166.12C1592.93,-165.73 1589.92,-165.35 1587,-165 1430.2,-146.08 1387.83,-148.04 1227.77,-129.17"/>
<polygon fill="#63b8ff" stroke="#63b8ff" points="1227.9,-125.66 1217.56,-127.96 1227.07,-132.61 1227.9,-125.66"/>
</a>
</g>
</g>
<!-- Node46 -->
<g id="Node000046" class="node">
<title>Node46</title>
<g id="a_Node000046"><a xlink:href="Detail_8h.html" target="_top" xlink:title=" ">
<polygon fill="#fff0f0" stroke="red" points="3553.5,-184 3472.5,-184 3472.5,-165 3553.5,-165 3553.5,-184"/>
<text text-anchor="middle" x="3513" y="-172" font-family="Helvetica,sans-Serif" font-size="10.00">error/Detail.h</text>
</a>
</g>
</g>
<!-- Node45&#45;&gt;Node46 -->
<g id="edge32_Node000045_Node000046" class="edge">
<title>Node45&#45;&gt;Node46</title>
<g id="a_edge32_Node000045_Node000046"><a xlink:title=" ">
<path fill="none" stroke="#63b8ff" d="M3604.49,-219.98C3587.03,-211.5 3559.99,-198.35 3539.83,-188.54"/>
<polygon fill="#63b8ff" stroke="#63b8ff" points="3541.36,-185.4 3530.83,-184.17 3538.29,-191.69 3541.36,-185.4"/>
</a>
</g>
</g>
<!-- Node58 -->
<g id="Node000058" class="node">
<title>Node58</title>
<g id="a_Node000058"><a xlink:href="sbuf_2forward_8h.html" target="_top" xlink:title=" ">
<polygon fill="#fff0f0" stroke="red" points="3665.5,-129 3578.5,-129 3578.5,-110 3665.5,-110 3665.5,-129"/>
<text text-anchor="middle" x="3622" y="-117" font-family="Helvetica,sans-Serif" font-size="10.00">sbuf/forward.h</text>
</a>
</g>
</g>
<!-- Node45&#45;&gt;Node58 -->
<g id="edge39_Node000045_Node000058" class="edge">
<title>Node45&#45;&gt;Node58</title>
<g id="a_edge39_Node000045_Node000058"><a xlink:title=" ">
<path fill="none" stroke="#63b8ff" d="M3622,-219.66C3622,-202.17 3622,-162.8 3622,-139.27"/>
<polygon fill="#63b8ff" stroke="#63b8ff" points="3625.5,-139.16 3622,-129.16 3618.5,-139.16 3625.5,-139.16"/>
</a>
</g>
</g>
<!-- Node47 -->
<g id="Node000047" class="node">
<title>Node47</title>
<g id="a_Node000047"><a xlink:href="Here_8h.html" target="_top" xlink:title=" ">
<polygon fill="white" stroke="#666666" points="3831.5,-74 3756.5,-74 3756.5,-55 3831.5,-55 3831.5,-74"/>
<text text-anchor="middle" x="3794" y="-62" font-family="Helvetica,sans-Serif" font-size="10.00">base/Here.h</text>
</a>
</g>
</g>
<!-- Node46&#45;&gt;Node47 -->
<g id="edge33_Node000046_Node000047" class="edge">
<title>Node46&#45;&gt;Node47</title>
<g id="a_edge33_Node000046_Node000047"><a xlink:title=" ">
<path fill="none" stroke="#63b8ff" d="M3481.75,-164.95C3447.92,-154.22 3401.49,-134.25 3423,-110 3444.11,-86.2 3650.67,-72.75 3746.11,-67.76"/>
<polygon fill="#63b8ff" stroke="#63b8ff" points="3746.55,-71.24 3756.35,-67.23 3746.19,-64.25 3746.55,-71.24"/>
</a>
</g>
</g>
<!-- Node49 -->
<g id="Node000049" class="node">
<title>Node49</title>
<g id="a_Node000049"><a xlink:href="RefCount_8h.html" target="_top" xlink:title=" ">
<polygon fill="#fff0f0" stroke="red" points="4084.5,-74 3987.5,-74 3987.5,-55 4084.5,-55 4084.5,-74"/>
<text text-anchor="middle" x="4036" y="-62" font-family="Helvetica,sans-Serif" font-size="10.00">base/RefCount.h</text>
</a>
</g>
</g>
<!-- Node46&#45;&gt;Node49 -->
<g id="edge35_Node000046_Node000049" class="edge">
<title>Node46&#45;&gt;Node49</title>
<g id="a_edge35_Node000046_Node000049"><a xlink:title=" ">
<path fill="none" stroke="#63b8ff" d="M3517.81,-164.64C3526.12,-150.31 3544.64,-122.42 3569,-110 3604.57,-91.86 3859.63,-75.4 3977.07,-68.69"/>
<polygon fill="#63b8ff" stroke="#63b8ff" points="3977.53,-72.17 3987.32,-68.11 3977.14,-65.18 3977.53,-72.17"/>
</a>
</g>
</g>
<!-- Node53 -->
<g id="Node000053" class="node">
<title>Node53</title>
<g id="a_Node000053"><a xlink:href="error_2forward_8h.html" target="_top" xlink:title=" ">
<polygon fill="#fff0f0" stroke="red" points="3521.5,-129 3432.5,-129 3432.5,-110 3521.5,-110 3521.5,-129"/>
<text text-anchor="middle" x="3477" y="-117" font-family="Helvetica,sans-Serif" font-size="10.00">error/forward.h</text>
</a>
</g>
</g>
<!-- Node46&#45;&gt;Node53 -->
<g id="edge36_Node000046_Node000053" class="edge">
<title>Node46&#45;&gt;Node53</title>
<g id="a_edge36_Node000046_Node000053"><a xlink:title=" ">
<path fill="none" stroke="#63b8ff" d="M3507.06,-164.75C3502.02,-157.34 3494.66,-146.5 3488.49,-137.41"/>
<polygon fill="#63b8ff" stroke="#63b8ff" points="3491.35,-135.39 3482.83,-129.09 3485.56,-139.33 3491.35,-135.39"/>
</a>
</g>
</g>
<!-- Node55 -->
<g id="Node000055" class="node">
<title>Node55</title>
<g id="a_Node000055"><a xlink:href="http_2forward_8h.html" target="_top" xlink:title=" ">
<polygon fill="#fff0f0" stroke="red" points="3376,-129 3290,-129 3290,-110 3376,-110 3376,-129"/>
<text text-anchor="middle" x="3333" y="-117" font-family="Helvetica,sans-Serif" font-size="10.00">http/forward.h</text>
</a>
</g>
</g>
<!-- Node46&#45;&gt;Node55 -->
<g id="edge37_Node000046_Node000055" class="edge">
<title>Node46&#45;&gt;Node55</title>
<g id="a_edge37_Node000046_Node000055"><a xlink:title=" ">
<path fill="none" stroke="#63b8ff" d="M3484.08,-164.98C3453.73,-156.05 3405.83,-141.94 3372.12,-132.02"/>
<polygon fill="#63b8ff" stroke="#63b8ff" points="3372.73,-128.55 3362.15,-129.08 3370.75,-135.26 3372.73,-128.55"/>
</a>
</g>
</g>
<!-- Node46&#45;&gt;Node58 -->
<g id="edge38_Node000046_Node000058" class="edge">
<title>Node46&#45;&gt;Node58</title>
<g id="a_edge38_Node000046_Node000058"><a xlink:title=" ">
<path fill="none" stroke="#63b8ff" d="M3530.51,-164.98C3547.97,-156.5 3575.01,-143.35 3595.17,-133.54"/>
<polygon fill="#63b8ff" stroke="#63b8ff" points="3596.71,-136.69 3604.17,-129.17 3593.64,-130.4 3596.71,-136.69"/>
</a>
</g>
</g>
<!-- Node48 -->
<g id="Node000048" class="node">
<title>Node48</title>
<g id="a_Node000048"><a xlink:title=" ">
<polygon fill="#e0e0e0" stroke="#999999" points="4080,-19 4032,-19 4032,0 4080,0 4080,-19"/>
<text text-anchor="middle" x="4056" y="-7" font-family="Helvetica,sans-Serif" font-size="10.00">iosfwd</text>
</a>
</g>
</g>
<!-- Node47&#45;&gt;Node48 -->
<g id="edge34_Node000047_Node000048" class="edge">
<title>Node47&#45;&gt;Node48</title>
<g id="a_edge34_Node000047_Node000048"><a xlink:title=" ">
<path fill="none" stroke="#63b8ff" d="M3831.54,-55.91C3882.53,-45.59 3972.94,-27.3 4022.02,-17.37"/>
<polygon fill="#63b8ff" stroke="#63b8ff" points="4022.72,-20.8 4031.83,-15.39 4021.34,-13.94 4022.72,-20.8"/>
</a>
</g>
</g>
<!-- Node62&#45;&gt;Node48 -->
<g id="edge55_Node000062_Node000048" class="edge">
<title>Node62&#45;&gt;Node48</title>
<g id="a_edge55_Node000062_Node000048"><a xlink:title=" ">
<path fill="none" stroke="#63b8ff" d="M3970.43,-164.73C3967.95,-155.83 3964.4,-141.59 3963,-129 3959.29,-95.56 3958.24,-81.48 3979,-55 3990.2,-40.71 4007.36,-30.16 4022.64,-22.93"/>
<polygon fill="#63b8ff" stroke="#63b8ff" points="4024.12,-26.1 4031.84,-18.85 4021.28,-19.7 4024.12,-26.1"/>
</a>
</g>
</g>
<!-- Node62&#45;&gt;Node58 -->
<g id="edge48_Node000062_Node000058" class="edge">
<title>Node62&#45;&gt;Node58</title>
<g id="a_edge48_Node000062_Node000058"><a xlink:title=" ">
<path fill="none" stroke="#63b8ff" d="M3937.2,-168.28C3883.03,-160.36 3776.74,-144.7 3675.74,-129.1"/>
<polygon fill="#63b8ff" stroke="#63b8ff" points="3676.08,-125.61 3665.67,-127.54 3675.01,-132.53 3676.08,-125.61"/>
</a>
</g>
</g>
<!-- Node63 -->
<g id="Node000063" class="node">
<title>Node63</title>
<g id="a_Node000063"><a xlink:href="InstanceId_8h.html" target="_top" xlink:title=" ">
<polygon fill="white" stroke="#666666" points="4219,-74 4117,-74 4117,-55 4219,-55 4219,-74"/>
<text text-anchor="middle" x="4168" y="-62" font-family="Helvetica,sans-Serif" font-size="10.00">base/InstanceId.h</text>
</a>
</g>
</g>
<!-- Node62&#45;&gt;Node63 -->
<g id="edge41_Node000062_Node000063" class="edge">
<title>Node62&#45;&gt;Node63</title>
<g id="a_edge41_Node000062_Node000063"><a xlink:title=" ">
<path fill="none" stroke="#63b8ff" d="M4008.85,-166.68C4011.95,-166.11 4015.03,-165.54 4018,-165 4063.94,-156.67 4194.95,-164.73 4225,-129 4239.77,-111.44 4215.81,-91.89 4194.57,-79.18"/>
<polygon fill="#63b8ff" stroke="#63b8ff" points="4196.18,-76.07 4185.76,-74.18 4192.73,-82.16 4196.18,-76.07"/>
</a>
</g>
</g>
<!-- Node64 -->
<g id="Node000064" class="node">
<title>Node64</title>
<g id="a_Node000064"><a xlink:href="TextException_8h.html" target="_top" xlink:title=" ">
<polygon fill="#fff0f0" stroke="red" points="3916,-129 3796,-129 3796,-110 3916,-110 3916,-129"/>
<text text-anchor="middle" x="3856" y="-117" font-family="Helvetica,sans-Serif" font-size="10.00">base/TextException.h</text>
</a>
</g>
</g>
<!-- Node62&#45;&gt;Node64 -->
<g id="edge43_Node000062_Node000064" class="edge">
<title>Node62&#45;&gt;Node64</title>
<g id="a_edge43_Node000062_Node000064"><a xlink:title=" ">
<path fill="none" stroke="#63b8ff" d="M3954.2,-164.98C3935.38,-156.46 3906.18,-143.23 3884.5,-133.41"/>
<polygon fill="#63b8ff" stroke="#63b8ff" points="3885.69,-130.11 3875.14,-129.17 3882.8,-136.48 3885.69,-130.11"/>
</a>
</g>
</g>
<!-- Node67 -->
<g id="Node000067" class="node">
<title>Node67</title>
<g id="a_Node000067"><a xlink:href="debug_2Stream_8h.html" target="_top" xlink:title=" ">
<polygon fill="#fff0f0" stroke="red" points="3778,-129 3684,-129 3684,-110 3778,-110 3778,-129"/>
<text text-anchor="middle" x="3731" y="-117" font-family="Helvetica,sans-Serif" font-size="10.00">debug/Stream.h</text>
</a>
</g>
</g>
<!-- Node62&#45;&gt;Node67 -->
<g id="edge45_Node000062_Node000067" class="edge">
<title>Node62&#45;&gt;Node67</title>
<g id="a_edge45_Node000062_Node000067"><a xlink:title=" ">
<path fill="none" stroke="#63b8ff" d="M3937.29,-165.68C3895.65,-156.56 3826.57,-141.43 3779.95,-131.22"/>
<polygon fill="#63b8ff" stroke="#63b8ff" points="3780.58,-127.78 3770.07,-129.06 3779.09,-134.61 3780.58,-127.78"/>
</a>
</g>
</g>
<!-- Node71 -->
<g id="Node000071" class="node">
<title>Node71</title>
<g id="a_Node000071"><a xlink:href="globals_8h.html" target="_top" xlink:title=" ">
<polygon fill="#fff0f0" stroke="red" points="4033.5,-129 3972.5,-129 3972.5,-110 4033.5,-110 4033.5,-129"/>
<text text-anchor="middle" x="4003" y="-117" font-family="Helvetica,sans-Serif" font-size="10.00">globals.h</text>
</a>
</g>
</g>
<!-- Node62&#45;&gt;Node71 -->
<g id="edge47_Node000062_Node000071" class="edge">
<title>Node62&#45;&gt;Node71</title>
<g id="a_edge47_Node000062_Node000071"><a xlink:title=" ">
<path fill="none" stroke="#63b8ff" d="M3977.95,-164.75C3982.06,-157.49 3988.03,-146.95 3993.1,-137.98"/>
<polygon fill="#63b8ff" stroke="#63b8ff" points="3996.26,-139.52 3998.14,-129.09 3990.17,-136.07 3996.26,-139.52"/>
</a>
</g>
</g>
<!-- Node80 -->
<g id="Node000080" class="node">
<title>Node80</title>
<g id="a_Node000080"><a xlink:href="MemBlob_8h.html" target="_top" xlink:title=" ">
<polygon fill="#fff0f0" stroke="red" points="4216,-129 4120,-129 4120,-110 4216,-110 4216,-129"/>
<text text-anchor="middle" x="4168" y="-117" font-family="Helvetica,sans-Serif" font-size="10.00">sbuf/MemBlob.h</text>
</a>
</g>
</g>
<!-- Node62&#45;&gt;Node80 -->
<g id="edge49_Node000062_Node000080" class="edge">
<title>Node62&#45;&gt;Node80</title>
<g id="a_edge49_Node000062_Node000080"><a xlink:title=" ">
<path fill="none" stroke="#63b8ff" d="M4004.33,-164.98C4037.49,-155.97 4090,-141.7 4126.56,-131.76"/>
<polygon fill="#63b8ff" stroke="#63b8ff" points="4127.69,-135.08 4136.42,-129.08 4125.86,-128.33 4127.69,-135.08"/>
</a>
</g>
</g>
<!-- Node81 -->
<g id="Node000081" class="node">
<title>Node81</title>
<g id="a_Node000081"><a xlink:href="sbuf_2Stats_8h.html" target="_top" xlink:title=" ">
<polygon fill="white" stroke="#666666" points="4351,-74 4277,-74 4277,-55 4351,-55 4351,-74"/>
<text text-anchor="middle" x="4314" y="-62" font-family="Helvetica,sans-Serif" font-size="10.00">sbuf/Stats.h</text>
</a>
</g>
</g>
<!-- Node62&#45;&gt;Node81 -->
<g id="edge52_Node000062_Node000081" class="edge">
<title>Node62&#45;&gt;Node81</title>
<g id="a_edge52_Node000062_Node000081"><a xlink:title=" ">
<path fill="none" stroke="#63b8ff" d="M4008.82,-166.49C4011.92,-165.96 4015.01,-165.45 4018,-165 4088.1,-154.41 4287.78,-181.88 4335,-129 4346.55,-116.07 4337.48,-96.62 4327.92,-82.66"/>
<polygon fill="#63b8ff" stroke="#63b8ff" points="4330.55,-80.33 4321.78,-74.4 4324.94,-84.51 4330.55,-80.33"/>
</a>
</g>
</g>
<!-- Node82 -->
<g id="Node000082" class="node">
<title>Node82</title>
<g id="a_Node000082"><a xlink:title=" ">
<polygon fill="#e0e0e0" stroke="#999999" points="4102,-129 4052,-129 4052,-110 4102,-110 4102,-129"/>
<text text-anchor="middle" x="4077" y="-117" font-family="Helvetica,sans-Serif" font-size="10.00">climits</text>
</a>
</g>
</g>
<!-- Node62&#45;&gt;Node82 -->
<g id="edge54_Node000062_Node000082" class="edge">
<title>Node62&#45;&gt;Node82</title>
<g id="a_edge54_Node000062_Node000082"><a xlink:title=" ">
<path fill="none" stroke="#63b8ff" d="M3989.71,-164.98C4006.21,-156.57 4031.7,-143.59 4050.88,-133.81"/>
<polygon fill="#63b8ff" stroke="#63b8ff" points="4052.67,-136.83 4059.99,-129.17 4049.49,-130.59 4052.67,-136.83"/>
</a>
</g>
</g>
<!-- Node83 -->
<g id="Node000083" class="node">
<title>Node83</title>
<g id="a_Node000083"><a xlink:title=" ">
<polygon fill="#e0e0e0" stroke="#999999" points="4325.5,-129 4272.5,-129 4272.5,-110 4325.5,-110 4325.5,-129"/>
<text text-anchor="middle" x="4299" y="-117" font-family="Helvetica,sans-Serif" font-size="10.00">iterator</text>
</a>
</g>
</g>
<!-- Node62&#45;&gt;Node83 -->
<g id="edge56_Node000062_Node000083" class="edge">
<title>Node62&#45;&gt;Node83</title>
<g id="a_edge56_Node000062_Node000083"><a xlink:title=" ">
<path fill="none" stroke="#63b8ff" d="M4008.84,-166.6C4011.94,-166.05 4015.02,-165.5 4018,-165 4124.35,-146.99 4151.82,-147.96 4258,-129 4259.29,-128.77 4260.6,-128.53 4261.92,-128.28"/>
<polygon fill="#63b8ff" stroke="#63b8ff" points="4262.99,-131.64 4272.14,-126.29 4261.65,-124.77 4262.99,-131.64"/>
</a>
</g>
</g>
<!-- Node63&#45;&gt;Node48 -->
<g id="edge42_Node000063_Node000048" class="edge">
<title>Node63&#45;&gt;Node48</title>
<g id="a_edge42_Node000063_Node000048"><a xlink:title=" ">
<path fill="none" stroke="#63b8ff" d="M4150.01,-54.98C4132.07,-46.5 4104.28,-33.35 4083.57,-23.54"/>
<polygon fill="#63b8ff" stroke="#63b8ff" points="4084.86,-20.28 4074.32,-19.17 4081.86,-26.61 4084.86,-20.28"/>
</a>
</g>
</g>
<!-- Node64&#45;&gt;Node47 -->
<g id="edge44_Node000064_Node000047" class="edge">
<title>Node64&#45;&gt;Node47</title>
<g id="a_edge44_Node000064_Node000047"><a xlink:title=" ">
<path fill="none" stroke="#63b8ff" d="M3846.04,-109.98C3836.87,-102.15 3823.06,-90.34 3811.97,-80.86"/>
<polygon fill="#63b8ff" stroke="#63b8ff" points="3814.02,-78.01 3804.14,-74.17 3809.47,-83.33 3814.02,-78.01"/>
</a>
</g>
</g>
<!-- Node67&#45;&gt;Node47 -->
<g id="edge46_Node000067_Node000047" class="edge">
<title>Node67&#45;&gt;Node47</title>
<g id="a_edge46_Node000067_Node000047"><a xlink:title=" ">
<path fill="none" stroke="#63b8ff" d="M3741.12,-109.98C3750.44,-102.15 3764.47,-90.34 3775.74,-80.86"/>
<polygon fill="#63b8ff" stroke="#63b8ff" points="3778.29,-83.29 3783.69,-74.17 3773.79,-77.93 3778.29,-83.29"/>
</a>
</g>
</g>
<!-- Node80&#45;&gt;Node49 -->
<g id="edge51_Node000080_Node000049" class="edge">
<title>Node80&#45;&gt;Node49</title>
<g id="a_edge51_Node000080_Node000049"><a xlink:title=" ">
<path fill="none" stroke="#63b8ff" d="M4146.79,-109.98C4125.27,-101.34 4091.72,-87.87 4067.17,-78.02"/>
<polygon fill="#63b8ff" stroke="#63b8ff" points="4068.18,-74.65 4057.59,-74.17 4065.57,-81.14 4068.18,-74.65"/>
</a>
</g>
</g>
<!-- Node80&#45;&gt;Node63 -->
<g id="edge50_Node000080_Node000063" class="edge">
<title>Node80&#45;&gt;Node63</title>
<g id="a_edge50_Node000080_Node000063"><a xlink:title=" ">
<path fill="none" stroke="#63b8ff" d="M4168,-109.75C4168,-102.8 4168,-92.85 4168,-84.13"/>
<polygon fill="#63b8ff" stroke="#63b8ff" points="4171.5,-84.09 4168,-74.09 4164.5,-84.09 4171.5,-84.09"/>
</a>
</g>
</g>
<!-- Node81&#45;&gt;Node48 -->
<g id="edge53_Node000081_Node000048" class="edge">
<title>Node81&#45;&gt;Node48</title>
<g id="a_edge53_Node000081_Node000048"><a xlink:title=" ">
<path fill="none" stroke="#63b8ff" d="M4276.76,-55.85C4226.71,-45.57 4138.44,-27.44 4090.07,-17.5"/>
<polygon fill="#63b8ff" stroke="#63b8ff" points="4090.59,-14.03 4080.09,-15.45 4089.18,-20.89 4090.59,-14.03"/>
</a>
</g>
</g>
<!-- Node84&#45;&gt;Node62 -->
<g id="edge59_Node000084_Node000062" class="edge">
<title>Node84&#45;&gt;Node62</title>
<g id="a_edge59_Node000084_Node000062"><a xlink:title=" ">
<path fill="none" stroke="#63b8ff" d="M3973,-219.75C3973,-212.8 3973,-202.85 3973,-194.13"/>
<polygon fill="#63b8ff" stroke="#63b8ff" points="3976.5,-194.09 3973,-184.09 3969.5,-194.09 3976.5,-194.09"/>
</a>
</g>
</g>
<!-- Node85 -->
<g id="Node000085" class="node">
<title>Node85</title>
<g id="a_Node000085"><a xlink:href="PackableStream_8h.html" target="_top" xlink:title=" ">
<polygon fill="#fff0f0" stroke="red" points="4157,-184 4027,-184 4027,-165 4157,-165 4157,-184"/>
<text text-anchor="middle" x="4092" y="-172" font-family="Helvetica,sans-Serif" font-size="10.00">base/PackableStream.h</text>
</a>
</g>
</g>
<!-- Node84&#45;&gt;Node85 -->
<g id="edge58_Node000084_Node000085" class="edge">
<title>Node84&#45;&gt;Node85</title>
<g id="a_edge58_Node000084_Node000085"><a xlink:title=" ">
<path fill="none" stroke="#63b8ff" d="M3992.12,-219.98C4011.35,-211.42 4041.23,-198.11 4063.31,-188.28"/>
<polygon fill="#63b8ff" stroke="#63b8ff" points="4064.82,-191.44 4072.53,-184.17 4061.97,-185.04 4064.82,-191.44"/>
</a>
</g>
</g>
</g>
</svg>

<g id="navigator" transform="translate(0 0)" fill="#404254">
  <rect fill="#f2f5e9" fill-opacity="0.5" stroke="#606060" stroke-width=".5" x="0" y="0" width="60" height="60"/>
  <use id="zoomplus" xlink:href="#zoomPlus" x="17" y="9" onmousedown="handleZoom(evt,'in')"/>
  <use id="zoomminus" xlink:href="#zoomMin" x="42" y="9" onmousedown="handleZoom(evt,'out')"/>
  <use id="reset" xlink:href="#resetDef" x="30" y="36" onmousedown="handleReset()"/>
   <use id="arrowup" xlink:href="#arrowUp" x="0" y="0" onmousedown="handlePan(0,-1)"/>
  <use id="arrowright" xlink:href="#arrowRight" x="0" y="0" onmousedown="handlePan(1,0)"/>
  <use id="arrowdown" xlink:href="#arrowDown" x="0" y="0" onmousedown="handlePan(0,1)"/>
  <use id="arrowleft" xlink:href="#arrowLeft" x="0" y="0" onmousedown="handlePan(-1,0)"/>
</g>
<svg viewBox="0 0 15 15" width="100%" height="30px" preserveAspectRatio="xMaxYMin meet">
 <g id="arrow_out" transform="scale(0.3 0.3)">
  <a xlink:href="SysErrorDetail_8cc__incl_org.svg" target="_base">
   <rect id="button" ry="5" rx="5" y="6" x="6" height="38" width="38"
        fill="#f2f5e9" fill-opacity="0.5" stroke="#606060" stroke-width="1.0"/>
   <path id="arrow"
     d="M 11.500037,31.436501 C 11.940474,20.09759 22.043105,11.32322 32.158766,21.979434 L 37.068811,17.246167 C 37.068811,17.246167 37.088388,32 37.088388,32 L 22.160133,31.978069 C 22.160133,31.978069 26.997745,27.140456 26.997745,27.140456 C 18.528582,18.264221 13.291696,25.230495 11.500037,31.436501 z"
     style="fill:#404040;"/>
  </a>
 </g>
</svg>

<style type='text/css'>
<![CDATA[
[data-mouse-over-selected='false'] { opacity: 0.7; }
[data-mouse-over-selected='true']  { opacity: 1.0; }
]]>
</style>
<script type="application/ecmascript"><![CDATA[
document.addEventListener('DOMContentLoaded', (event) => {
  highlightEdges();
  highlightAdjacentNodes();
});
]]></script>
</svg>
