<?xml version="1.0" encoding="UTF-8" standalone="no"?>
<!DOCTYPE svg PUBLIC "-//W3C//DTD SVG 1.1//EN"
 "http://www.w3.org/Graphics/SVG/1.1/DTD/svg11.dtd">
<!-- Generated by graphviz version 2.43.0 (0)
 -->
<!-- Title: squid/src/error/SysErrorDetail.cc Pages: 1 -->
<!--zoomable 313 -->

<svg id="main" version="1.1" xmlns="http://www.w3.org/2000/svg" xmlns:xlink="http://www.w3.org/1999/xlink" xml:space="preserve" onload="init(evt)">
<style type="text/css"><![CDATA[
.node, .edge {opacity: 0.7;}
.node.selected, .edge.selected {opacity: 1;}
.edge:hover path { stroke: red; }
.edge:hover polygon { stroke: red; fill: red; }
]]></style>

<defs>
  <circle id="rim" cx="0" cy="0" r="7"/>
  <circle id="rim2" cx="0" cy="0" r="3.5"/>
  <g id="zoomPlus">
    <use xlink:href="#rim" fill="#404040"><set attributeName="fill" to="#808080" begin="zoomplus.mouseover" end="zoomplus.mouseout"/></use>
    <path d="M-4,0h8M0,-4v8" fill="none" stroke="white" stroke-width="1.5" pointer-events="none"/>
  </g>
  <g id="zoomMin">
    <use xlink:href="#rim" fill="#404040"><set attributeName="fill" to="#808080" begin="zoomminus.mouseover" end="zoomminus.mouseout"/></use>
    <path d="M-4,0h8" fill="none" stroke="white" stroke-width="1.5" pointer-events="none"/>
  </g>
  <g id="arrowUp" transform="translate(30 24)">
    <use xlink:href="#rim"/>
    <path pointer-events="none" fill="none" stroke="white" stroke-width="1.5" d="M0,-3.0v7 M-2.5,-0.5L0,-3.0L2.5,-0.5"/>
  </g>
  <g id="arrowRight" transform="rotate(90) translate(36 -43)">
    <use xlink:href="#rim"/>
    <path pointer-events="none" fill="none" stroke="white" stroke-width="1.5" d="M0,-3.0v7 M-2.5,-0.5L0,-3.0L2.5,-0.5"/>
  </g>
  <g id="arrowDown" transform="rotate(180) translate(-30 -48)">
    <use xlink:href="#rim"/>
    <path pointer-events="none" fill="none" stroke="white" stroke-width="1.5" d="M0,-3.0v7 M-2.5,-0.5L0,-3.0L2.5,-0.5"/>
  </g>
  <g id="arrowLeft" transform="rotate(270) translate(-36 17)">
    <use xlink:href="#rim"/>
    <path pointer-events="none" fill="none" stroke="white" stroke-width="1.5" d="M0,-3.0v7 M-2.5,-0.5L0,-3.0L2.5,-0.5"/>
  </g>
  <g id="resetDef">
    <use xlink:href="#rim2" fill="#404040"><set attributeName="fill" to="#808080" begin="reset.mouseover" end="reset.mouseout"/></use>
  </g>
</defs>
<script type="application/ecmascript">
var viewWidth = 4074;
var viewHeight = 313;
var sectionId = 'dynsection-0';
</script>
<script type="application/ecmascript" xlink:href="svg.min.js"/>
<svg id="graph" class="graph">
<g id="viewport">
<title>squid/src/error/SysErrorDetail.cc</title>
<!-- Node1 -->
<g id="Node000001" class="node">
<title>Node1</title>
<g id="a_Node000001"><a xlink:title=" ">
<polygon fill="#999999" stroke="#666666" points="3624.5,-305 3494.5,-305 3494.5,-275 3624.5,-275 3624.5,-305"/>
<text text-anchor="start" x="3502.5" y="-293" font-family="Helvetica,sans-Serif" font-size="10.00">squid/src/error/SysError</text>
<text text-anchor="middle" x="3559.5" y="-282" font-family="Helvetica,sans-Serif" font-size="10.00">Detail.cc</text>
</a>
</g>
</g>
<!-- Node2 -->
<g id="Node000002" class="node">
<title>Node2</title>
<g id="a_Node000002"><a xlink:href="squid_8h.html" target="_top" xlink:title=" ">
<polygon fill="white" stroke="#666666" points="1626.5,-239 1574.5,-239 1574.5,-220 1626.5,-220 1626.5,-239"/>
<text text-anchor="middle" x="1600.5" y="-227" font-family="Helvetica,sans-Serif" font-size="10.00">squid.h</text>
</a>
</g>
</g>
<!-- Node1&#45;&gt;Node2 -->
<g id="edge1_Node000001_Node000002" class="edge">
<title>Node1&#45;&gt;Node2</title>
<g id="a_edge1_Node000001_Node000002"><a xlink:title=" ">
<path fill="none" stroke="#63b8ff" d="M3494.32,-287.05C3185.21,-277.82 1872.21,-238.61 1636.73,-231.58"/>
<polygon fill="#63b8ff" stroke="#63b8ff" points="1636.75,-228.08 1626.65,-231.28 1636.54,-235.08 1636.75,-228.08"/>
</a>
</g>
</g>
<!-- Node44 -->
<g id="Node000044" class="node">
<title>Node44</title>
<g id="a_Node000044"><a xlink:href="SysErrorDetail_8h.html" target="_top" xlink:title=" ">
<polygon fill="white" stroke="#666666" points="3976.5,-184 3854.5,-184 3854.5,-165 3976.5,-165 3976.5,-184"/>
<text text-anchor="middle" x="3915.5" y="-172" font-family="Helvetica,sans-Serif" font-size="10.00">error/SysErrorDetail.h</text>
</a>
</g>
</g>
<!-- Node1&#45;&gt;Node44 -->
<g id="edge30_Node000001_Node000044" class="edge">
<title>Node1&#45;&gt;Node44</title>
<g id="a_edge30_Node000001_Node000044"><a xlink:title=" ">
<path fill="none" stroke="#63b8ff" d="M3603.51,-274.97C3674.47,-252.35 3812.85,-208.23 3878.82,-187.2"/>
<polygon fill="#63b8ff" stroke="#63b8ff" points="3879.92,-190.52 3888.39,-184.14 3877.79,-183.85 3879.92,-190.52"/>
</a>
</g>
</g>
<!-- Node61 -->
<g id="Node000061" class="node">
<title>Node61</title>
<g id="a_Node000061"><a xlink:href="SBuf_8h.html" target="_top" xlink:title=" ">
<polygon fill="white" stroke="#666666" points="3560,-184 3489,-184 3489,-165 3560,-165 3560,-184"/>
<text text-anchor="middle" x="3524.5" y="-172" font-family="Helvetica,sans-Serif" font-size="10.00">sbuf/SBuf.h</text>
</a>
</g>
</g>
<!-- Node1&#45;&gt;Node61 -->
<g id="edge40_Node000001_Node000061" class="edge">
<title>Node1&#45;&gt;Node61</title>
<g id="a_edge40_Node000001_Node000061"><a xlink:title=" ">
<path fill="none" stroke="#63b8ff" d="M3554.81,-274.58C3551.58,-264.61 3547.22,-251.01 3543.5,-239 3538.81,-223.87 3533.67,-206.65 3529.92,-193.96"/>
<polygon fill="#63b8ff" stroke="#63b8ff" points="3533.21,-192.75 3527.03,-184.14 3526.5,-194.72 3533.21,-192.75"/>
</a>
</g>
</g>
<!-- Node83 -->
<g id="Node000083" class="node">
<title>Node83</title>
<g id="a_Node000083"><a xlink:href="sbuf_2Stream_8h.html" target="_top" xlink:title=" ">
<polygon fill="white" stroke="#666666" points="3638,-239 3553,-239 3553,-220 3638,-220 3638,-239"/>
<text text-anchor="middle" x="3595.5" y="-227" font-family="Helvetica,sans-Serif" font-size="10.00">sbuf/Stream.h</text>
</a>
</g>
</g>
<!-- Node1&#45;&gt;Node83 -->
<g id="edge58_Node000001_Node000083" class="edge">
<title>Node1&#45;&gt;Node83</title>
<g id="a_edge58_Node000001_Node000083"><a xlink:title=" ">
<path fill="none" stroke="#63b8ff" d="M3568.21,-274.84C3573.17,-266.78 3579.43,-256.62 3584.7,-248.06"/>
<polygon fill="#63b8ff" stroke="#63b8ff" points="3587.85,-249.62 3590.11,-239.27 3581.88,-245.95 3587.85,-249.62"/>
</a>
</g>
</g>
<!-- Node3 -->
<g id="Node000003" class="node">
<title>Node3</title>
<g id="a_Node000003"><a xlink:href="autoconf_8h.html" target="_top" xlink:title=" ">
<polygon fill="white" stroke="#666666" points="1501.5,-184 1433.5,-184 1433.5,-165 1501.5,-165 1501.5,-184"/>
<text text-anchor="middle" x="1467.5" y="-172" font-family="Helvetica,sans-Serif" font-size="10.00">autoconf.h</text>
</a>
</g>
</g>
<!-- Node2&#45;&gt;Node3 -->
<g id="edge2_Node000002_Node000003" class="edge">
<title>Node2&#45;&gt;Node3</title>
<g id="a_edge2_Node000002_Node000003"><a xlink:title=" ">
<path fill="none" stroke="#63b8ff" d="M1579.13,-219.98C1557.35,-211.3 1523.34,-197.75 1498.58,-187.88"/>
<polygon fill="#63b8ff" stroke="#63b8ff" points="1499.84,-184.62 1489.26,-184.17 1497.25,-191.12 1499.84,-184.62"/>
</a>
</g>
</g>
<!-- Node4 -->
<g id="Node000004" class="node">
<title>Node4</title>
<g id="a_Node000004"><a xlink:href="version_8h.html" target="_top" xlink:title=" ">
<polygon fill="white" stroke="#666666" points="1581.5,-184 1519.5,-184 1519.5,-165 1581.5,-165 1581.5,-184"/>
<text text-anchor="middle" x="1550.5" y="-172" font-family="Helvetica,sans-Serif" font-size="10.00">version.h</text>
</a>
</g>
</g>
<!-- Node2&#45;&gt;Node4 -->
<g id="edge3_Node000002_Node000004" class="edge">
<title>Node2&#45;&gt;Node4</title>
<g id="a_edge3_Node000002_Node000004"><a xlink:title=" ">
<path fill="none" stroke="#63b8ff" d="M1592.24,-219.75C1585.04,-212.11 1574.39,-200.82 1565.65,-191.56"/>
<polygon fill="#63b8ff" stroke="#63b8ff" points="1568.01,-188.96 1558.6,-184.09 1562.92,-193.76 1568.01,-188.96"/>
</a>
</g>
</g>
<!-- Node5 -->
<g id="Node000005" class="node">
<title>Node5</title>
<g id="a_Node000005"><a xlink:href="compat_8h.html" target="_top" xlink:title=" ">
<polygon fill="white" stroke="#666666" points="1701.5,-184 1599.5,-184 1599.5,-165 1701.5,-165 1701.5,-184"/>
<text text-anchor="middle" x="1650.5" y="-172" font-family="Helvetica,sans-Serif" font-size="10.00">compat/compat.h</text>
</a>
</g>
</g>
<!-- Node2&#45;&gt;Node5 -->
<g id="edge4_Node000002_Node000005" class="edge">
<title>Node2&#45;&gt;Node5</title>
<g id="a_edge4_Node000002_Node000005"><a xlink:title=" ">
<path fill="none" stroke="#63b8ff" d="M1608.76,-219.75C1615.96,-212.11 1626.61,-200.82 1635.35,-191.56"/>
<polygon fill="#63b8ff" stroke="#63b8ff" points="1638.08,-193.76 1642.4,-184.09 1632.99,-188.96 1638.08,-193.76"/>
</a>
</g>
</g>
<!-- Node6 -->
<g id="Node000006" class="node">
<title>Node6</title>
<g id="a_Node000006"><a xlink:href="osdetect_8h.html" target="_top" xlink:title=" ">
<polygon fill="white" stroke="#666666" points="1887,-129 1780,-129 1780,-110 1887,-110 1887,-129"/>
<text text-anchor="middle" x="1833.5" y="-117" font-family="Helvetica,sans-Serif" font-size="10.00">compat/osdetect.h</text>
</a>
</g>
</g>
<!-- Node5&#45;&gt;Node6 -->
<g id="edge5_Node000005_Node000006" class="edge">
<title>Node5&#45;&gt;Node6</title>
<g id="a_edge5_Node000005_Node000006"><a xlink:title=" ">
<path fill="none" stroke="#63b8ff" d="M1679.9,-164.98C1710.89,-156.01 1759.88,-141.82 1794.17,-131.89"/>
<polygon fill="#63b8ff" stroke="#63b8ff" points="1795.24,-135.23 1803.87,-129.08 1793.29,-128.5 1795.24,-135.23"/>
</a>
</g>
</g>
<!-- Node7 -->
<g id="Node000007" class="node">
<title>Node7</title>
<g id="a_Node000007"><a xlink:href="fdsetsize_8h.html" target="_top" xlink:title=" ">
<polygon fill="white" stroke="#666666" points="2015.5,-129 1905.5,-129 1905.5,-110 2015.5,-110 2015.5,-129"/>
<text text-anchor="middle" x="1960.5" y="-117" font-family="Helvetica,sans-Serif" font-size="10.00">compat/fdsetsize.h</text>
</a>
</g>
</g>
<!-- Node5&#45;&gt;Node7 -->
<g id="edge6_Node000005_Node000007" class="edge">
<title>Node5&#45;&gt;Node7</title>
<g id="a_edge6_Node000005_Node000007"><a xlink:title=" ">
<path fill="none" stroke="#63b8ff" d="M1700.31,-164.98C1754.8,-155.67 1842.13,-140.74 1900.39,-130.78"/>
<polygon fill="#63b8ff" stroke="#63b8ff" points="1901.29,-134.17 1910.56,-129.04 1900.11,-127.27 1901.29,-134.17"/>
</a>
</g>
</g>
<!-- Node8 -->
<g id="Node000008" class="node">
<title>Node8</title>
<g id="a_Node000008"><a xlink:href="types_8h.html" target="_top" xlink:title=" ">
<polygon fill="#fff0f0" stroke="red" points="2125.5,-129 2033.5,-129 2033.5,-110 2125.5,-110 2125.5,-129"/>
<text text-anchor="middle" x="2079.5" y="-117" font-family="Helvetica,sans-Serif" font-size="10.00">compat/types.h</text>
</a>
</g>
</g>
<!-- Node5&#45;&gt;Node8 -->
<g id="edge7_Node000005_Node000008" class="edge">
<title>Node5&#45;&gt;Node8</title>
<g id="a_edge7_Node000005_Node000008"><a xlink:title=" ">
<path fill="none" stroke="#63b8ff" d="M1701.69,-167.98C1771.82,-160.29 1901.98,-145.58 2023.11,-129.15"/>
<polygon fill="#63b8ff" stroke="#63b8ff" points="2023.87,-132.58 2033.3,-127.76 2022.92,-125.64 2023.87,-132.58"/>
</a>
</g>
</g>
<!-- Node10 -->
<g id="Node000010" class="node">
<title>Node10</title>
<g id="a_Node000010"><a xlink:href="aix_8h.html" target="_top" xlink:title=" ">
<polygon fill="white" stroke="#666666" points="2239,-129 2144,-129 2144,-110 2239,-110 2239,-129"/>
<text text-anchor="middle" x="2191.5" y="-117" font-family="Helvetica,sans-Serif" font-size="10.00">compat/os/aix.h</text>
</a>
</g>
</g>
<!-- Node5&#45;&gt;Node10 -->
<g id="edge8_Node000005_Node000010" class="edge">
<title>Node5&#45;&gt;Node10</title>
<g id="a_edge8_Node000005_Node000010"><a xlink:title=" ">
<path fill="none" stroke="#63b8ff" d="M1701.82,-169.74C1788.49,-163.17 1969.58,-148.56 2133.66,-129.03"/>
<polygon fill="#63b8ff" stroke="#63b8ff" points="2134.43,-132.46 2143.94,-127.8 2133.6,-125.51 2134.43,-132.46"/>
</a>
</g>
</g>
<!-- Node11 -->
<g id="Node000011" class="node">
<title>Node11</title>
<g id="a_Node000011"><a xlink:href="android_8h.html" target="_top" xlink:title=" ">
<polygon fill="white" stroke="#666666" points="2373.5,-129 2257.5,-129 2257.5,-110 2373.5,-110 2373.5,-129"/>
<text text-anchor="middle" x="2315.5" y="-117" font-family="Helvetica,sans-Serif" font-size="10.00">compat/os/android.h</text>
</a>
</g>
</g>
<!-- Node5&#45;&gt;Node11 -->
<g id="edge9_Node000005_Node000011" class="edge">
<title>Node5&#45;&gt;Node11</title>
<g id="a_edge9_Node000005_Node000011"><a xlink:title=" ">
<path fill="none" stroke="#63b8ff" d="M1701.68,-170.55C1803.34,-164.5 2038.1,-149.6 2247.04,-128.99"/>
<polygon fill="#63b8ff" stroke="#63b8ff" points="2247.68,-132.44 2257.28,-127.97 2246.99,-125.48 2247.68,-132.44"/>
</a>
</g>
</g>
<!-- Node12 -->
<g id="Node000012" class="node">
<title>Node12</title>
<g id="a_Node000012"><a xlink:href="dragonfly_8h.html" target="_top" xlink:title=" ">
<polygon fill="white" stroke="#666666" points="2515.5,-129 2391.5,-129 2391.5,-110 2515.5,-110 2515.5,-129"/>
<text text-anchor="middle" x="2453.5" y="-117" font-family="Helvetica,sans-Serif" font-size="10.00">compat/os/dragonfly.h</text>
</a>
</g>
</g>
<!-- Node5&#45;&gt;Node12 -->
<g id="edge10_Node000005_Node000012" class="edge">
<title>Node5&#45;&gt;Node12</title>
<g id="a_edge10_Node000005_Node000012"><a xlink:title=" ">
<path fill="none" stroke="#63b8ff" d="M1701.61,-171.42C1819.45,-166.41 2119.56,-152.38 2381.11,-129.07"/>
<polygon fill="#63b8ff" stroke="#63b8ff" points="2381.54,-132.55 2391.18,-128.17 2380.91,-125.58 2381.54,-132.55"/>
</a>
</g>
</g>
<!-- Node13 -->
<g id="Node000013" class="node">
<title>Node13</title>
<g id="a_Node000013"><a xlink:href="freebsd_8h.html" target="_top" xlink:title=" ">
<polygon fill="white" stroke="#666666" points="2649.5,-129 2533.5,-129 2533.5,-110 2649.5,-110 2649.5,-129"/>
<text text-anchor="middle" x="2591.5" y="-117" font-family="Helvetica,sans-Serif" font-size="10.00">compat/os/freebsd.h</text>
</a>
</g>
</g>
<!-- Node5&#45;&gt;Node13 -->
<g id="edge11_Node000005_Node000013" class="edge">
<title>Node5&#45;&gt;Node13</title>
<g id="a_edge11_Node000005_Node000013"><a xlink:title=" ">
<path fill="none" stroke="#63b8ff" d="M1701.82,-172.24C1835.34,-168.66 2204.7,-156.93 2523.07,-129.05"/>
<polygon fill="#63b8ff" stroke="#63b8ff" points="2523.77,-132.51 2533.42,-128.14 2523.16,-125.53 2523.77,-132.51"/>
</a>
</g>
</g>
<!-- Node14 -->
<g id="Node000014" class="node">
<title>Node14</title>
<g id="a_Node000014"><a xlink:href="hpux_8h.html" target="_top" xlink:title=" ">
<polygon fill="white" stroke="#666666" points="2771.5,-129 2667.5,-129 2667.5,-110 2771.5,-110 2771.5,-129"/>
<text text-anchor="middle" x="2719.5" y="-117" font-family="Helvetica,sans-Serif" font-size="10.00">compat/os/hpux.h</text>
</a>
</g>
</g>
<!-- Node5&#45;&gt;Node14 -->
<g id="edge12_Node000005_Node000014" class="edge">
<title>Node5&#45;&gt;Node14</title>
<g id="a_edge12_Node000005_Node000014"><a xlink:title=" ">
<path fill="none" stroke="#63b8ff" d="M1701.75,-172.94C1848.8,-170.98 2284.85,-162.63 2657.13,-129.03"/>
<polygon fill="#63b8ff" stroke="#63b8ff" points="2657.65,-132.5 2667.29,-128.1 2657.02,-125.53 2657.65,-132.5"/>
</a>
</g>
</g>
<!-- Node15 -->
<g id="Node000015" class="node">
<title>Node15</title>
<g id="a_Node000015"><a xlink:href="linux_8h.html" target="_top" xlink:title=" ">
<polygon fill="white" stroke="#666666" points="2893.5,-129 2789.5,-129 2789.5,-110 2893.5,-110 2893.5,-129"/>
<text text-anchor="middle" x="2841.5" y="-117" font-family="Helvetica,sans-Serif" font-size="10.00">compat/os/linux.h</text>
</a>
</g>
</g>
<!-- Node5&#45;&gt;Node15 -->
<g id="edge13_Node000005_Node000015" class="edge">
<title>Node5&#45;&gt;Node15</title>
<g id="a_edge13_Node000005_Node000015"><a xlink:title=" ">
<path fill="none" stroke="#63b8ff" d="M1701.58,-173.29C1859.98,-172.25 2357.09,-166.12 2779.03,-129.03"/>
<polygon fill="#63b8ff" stroke="#63b8ff" points="2779.64,-132.49 2789.3,-128.12 2779.03,-125.52 2779.64,-132.49"/>
</a>
</g>
</g>
<!-- Node16 -->
<g id="Node000016" class="node">
<title>Node16</title>
<g id="a_Node000016"><a xlink:href="macosx_8h.html" target="_top" xlink:title=" ">
<polygon fill="white" stroke="#666666" points="3029.5,-129 2911.5,-129 2911.5,-110 3029.5,-110 3029.5,-129"/>
<text text-anchor="middle" x="2970.5" y="-117" font-family="Helvetica,sans-Serif" font-size="10.00">compat/os/macosx.h</text>
</a>
</g>
</g>
<!-- Node5&#45;&gt;Node16 -->
<g id="edge14_Node000005_Node000016" class="edge">
<title>Node5&#45;&gt;Node16</title>
<g id="a_edge14_Node000005_Node000016"><a xlink:title=" ">
<path fill="none" stroke="#63b8ff" d="M1701.58,-173.31C1870.88,-172.33 2429.2,-166.36 2901.11,-129.03"/>
<polygon fill="#63b8ff" stroke="#63b8ff" points="2901.5,-132.51 2911.19,-128.23 2900.95,-125.53 2901.5,-132.51"/>
</a>
</g>
</g>
<!-- Node17 -->
<g id="Node000017" class="node">
<title>Node17</title>
<g id="a_Node000017"><a xlink:href="mingw_8h.html" target="_top" xlink:title=" ">
<polygon fill="white" stroke="#666666" points="3159.5,-129 3047.5,-129 3047.5,-110 3159.5,-110 3159.5,-129"/>
<text text-anchor="middle" x="3103.5" y="-117" font-family="Helvetica,sans-Serif" font-size="10.00">compat/os/mingw.h</text>
</a>
</g>
</g>
<!-- Node5&#45;&gt;Node17 -->
<g id="edge15_Node000005_Node000017" class="edge">
<title>Node5&#45;&gt;Node17</title>
<g id="a_edge15_Node000005_Node000017"><a xlink:title=" ">
<path fill="none" stroke="#63b8ff" d="M1701.65,-173.67C1882.62,-173.87 2509.61,-171.34 3037.07,-129.03"/>
<polygon fill="#63b8ff" stroke="#63b8ff" points="3037.48,-132.5 3047.17,-128.21 3036.92,-125.53 3037.48,-132.5"/>
</a>
</g>
</g>
<!-- Node18 -->
<g id="Node000018" class="node">
<title>Node18</title>
<g id="a_Node000018"><a xlink:href="mswindows_8h.html" target="_top" xlink:title=" ">
<polygon fill="white" stroke="#666666" points="137,-129 0,-129 0,-110 137,-110 137,-129"/>
<text text-anchor="middle" x="68.5" y="-117" font-family="Helvetica,sans-Serif" font-size="10.00">compat/os/mswindows.h</text>
</a>
</g>
</g>
<!-- Node5&#45;&gt;Node18 -->
<g id="edge16_Node000005_Node000018" class="edge">
<title>Node5&#45;&gt;Node18</title>
<g id="a_edge16_Node000005_Node000018"><a xlink:title=" ">
<path fill="none" stroke="#63b8ff" d="M1599.48,-165.86C1596.45,-165.54 1593.44,-165.24 1590.5,-165 953.72,-112.14 788.24,-171.64 147.74,-129.09"/>
<polygon fill="#63b8ff" stroke="#63b8ff" points="147.53,-125.57 137.32,-128.39 147.06,-132.55 147.53,-125.57"/>
</a>
</g>
</g>
<!-- Node19 -->
<g id="Node000019" class="node">
<title>Node19</title>
<g id="a_Node000019"><a xlink:href="netbsd_8h.html" target="_top" xlink:title=" ">
<polygon fill="white" stroke="#666666" points="268,-129 155,-129 155,-110 268,-110 268,-129"/>
<text text-anchor="middle" x="211.5" y="-117" font-family="Helvetica,sans-Serif" font-size="10.00">compat/os/netbsd.h</text>
</a>
</g>
</g>
<!-- Node5&#45;&gt;Node19 -->
<g id="edge17_Node000005_Node000019" class="edge">
<title>Node5&#45;&gt;Node19</title>
<g id="a_edge17_Node000005_Node000019"><a xlink:title=" ">
<path fill="none" stroke="#63b8ff" d="M1599.48,-165.87C1596.45,-165.54 1593.44,-165.25 1590.5,-165 1011.75,-116.24 860.68,-174.25 278.52,-129.07"/>
<polygon fill="#63b8ff" stroke="#63b8ff" points="278.43,-125.55 268.18,-128.26 277.88,-132.53 278.43,-125.55"/>
</a>
</g>
</g>
<!-- Node20 -->
<g id="Node000020" class="node">
<title>Node20</title>
<g id="a_Node000020"><a xlink:href="openbsd_8h.html" target="_top" xlink:title=" ">
<polygon fill="white" stroke="#666666" points="407,-129 286,-129 286,-110 407,-110 407,-129"/>
<text text-anchor="middle" x="346.5" y="-117" font-family="Helvetica,sans-Serif" font-size="10.00">compat/os/openbsd.h</text>
</a>
</g>
</g>
<!-- Node5&#45;&gt;Node20 -->
<g id="edge18_Node000005_Node000020" class="edge">
<title>Node5&#45;&gt;Node20</title>
<g id="a_edge18_Node000005_Node000020"><a xlink:title=" ">
<path fill="none" stroke="#63b8ff" d="M1599.48,-165.88C1596.45,-165.55 1593.43,-165.25 1590.5,-165 1073.25,-120.57 938.15,-168.37 417.08,-129.04"/>
<polygon fill="#63b8ff" stroke="#63b8ff" points="417.29,-125.55 407.05,-128.28 416.76,-132.53 417.29,-125.55"/>
</a>
</g>
</g>
<!-- Node21 -->
<g id="Node000021" class="node">
<title>Node21</title>
<g id="a_Node000021"><a xlink:href="os2_8h.html" target="_top" xlink:title=" ">
<polygon fill="white" stroke="#666666" points="522,-129 425,-129 425,-110 522,-110 522,-129"/>
<text text-anchor="middle" x="473.5" y="-117" font-family="Helvetica,sans-Serif" font-size="10.00">compat/os/os2.h</text>
</a>
</g>
</g>
<!-- Node5&#45;&gt;Node21 -->
<g id="edge19_Node000005_Node000021" class="edge">
<title>Node5&#45;&gt;Node21</title>
<g id="a_edge19_Node000005_Node000021"><a xlink:title=" ">
<path fill="none" stroke="#63b8ff" d="M1599.48,-165.89C1596.44,-165.56 1593.43,-165.26 1590.5,-165 1124.68,-124.2 1002.27,-170.54 532.29,-128.94"/>
<polygon fill="#63b8ff" stroke="#63b8ff" points="532.46,-125.44 522.19,-128.04 531.84,-132.41 532.46,-125.44"/>
</a>
</g>
</g>
<!-- Node22 -->
<g id="Node000022" class="node">
<title>Node22</title>
<g id="a_Node000022"><a xlink:href="qnx_8h.html" target="_top" xlink:title=" ">
<polygon fill="white" stroke="#666666" points="638.5,-129 540.5,-129 540.5,-110 638.5,-110 638.5,-129"/>
<text text-anchor="middle" x="589.5" y="-117" font-family="Helvetica,sans-Serif" font-size="10.00">compat/os/qnx.h</text>
</a>
</g>
</g>
<!-- Node5&#45;&gt;Node22 -->
<g id="edge20_Node000005_Node000022" class="edge">
<title>Node5&#45;&gt;Node22</title>
<g id="a_edge20_Node000005_Node000022"><a xlink:title=" ">
<path fill="none" stroke="#63b8ff" d="M1599.48,-165.91C1596.44,-165.57 1593.43,-165.26 1590.5,-165 1176.13,-127.84 1066.9,-166.83 648.75,-129"/>
<polygon fill="#63b8ff" stroke="#63b8ff" points="648.78,-125.48 638.5,-128.06 648.14,-132.45 648.78,-125.48"/>
</a>
</g>
</g>
<!-- Node23 -->
<g id="Node000023" class="node">
<title>Node23</title>
<g id="a_Node000023"><a xlink:href="solaris_8h.html" target="_top" xlink:title=" ">
<polygon fill="white" stroke="#666666" points="768.5,-129 656.5,-129 656.5,-110 768.5,-110 768.5,-129"/>
<text text-anchor="middle" x="712.5" y="-117" font-family="Helvetica,sans-Serif" font-size="10.00">compat/os/solaris.h</text>
</a>
</g>
</g>
<!-- Node5&#45;&gt;Node23 -->
<g id="edge21_Node000005_Node000023" class="edge">
<title>Node5&#45;&gt;Node23</title>
<g id="a_edge21_Node000005_Node000023"><a xlink:title=" ">
<path fill="none" stroke="#63b8ff" d="M1599.48,-165.93C1596.44,-165.59 1593.43,-165.27 1590.5,-165 1233.7,-131.9 1139.56,-159.95 779.04,-129.05"/>
<polygon fill="#63b8ff" stroke="#63b8ff" points="779.1,-125.54 768.84,-128.17 778.5,-132.52 779.1,-125.54"/>
</a>
</g>
</g>
<!-- Node24 -->
<g id="Node000024" class="node">
<title>Node24</title>
<g id="a_Node000024"><a xlink:href="sunos_8h.html" target="_top" xlink:title=" ">
<polygon fill="white" stroke="#666666" points="894.5,-129 786.5,-129 786.5,-110 894.5,-110 894.5,-129"/>
<text text-anchor="middle" x="840.5" y="-117" font-family="Helvetica,sans-Serif" font-size="10.00">compat/os/sunos.h</text>
</a>
</g>
</g>
<!-- Node5&#45;&gt;Node24 -->
<g id="edge22_Node000005_Node000024" class="edge">
<title>Node5&#45;&gt;Node24</title>
<g id="a_edge22_Node000005_Node000024"><a xlink:title=" ">
<path fill="none" stroke="#63b8ff" d="M1599.47,-165.96C1596.44,-165.61 1593.43,-165.28 1590.5,-165 1289.44,-135.84 1209.63,-157 904.78,-129.04"/>
<polygon fill="#63b8ff" stroke="#63b8ff" points="905.04,-125.55 894.76,-128.11 904.4,-132.52 905.04,-125.55"/>
</a>
</g>
</g>
<!-- Node25 -->
<g id="Node000025" class="node">
<title>Node25</title>
<g id="a_Node000025"><a xlink:href="assert_8h.html" target="_top" xlink:title=" ">
<polygon fill="white" stroke="#666666" points="1008,-129 913,-129 913,-110 1008,-110 1008,-129"/>
<text text-anchor="middle" x="960.5" y="-117" font-family="Helvetica,sans-Serif" font-size="10.00">compat/assert.h</text>
</a>
</g>
</g>
<!-- Node5&#45;&gt;Node25 -->
<g id="edge23_Node000005_Node000025" class="edge">
<title>Node5&#45;&gt;Node25</title>
<g id="a_edge23_Node000005_Node000025"><a xlink:title=" ">
<path fill="none" stroke="#63b8ff" d="M1599.47,-165.99C1596.44,-165.63 1593.43,-165.3 1590.5,-165 1340,-139.43 1273.01,-155.41 1018.35,-128.98"/>
<polygon fill="#63b8ff" stroke="#63b8ff" points="1018.36,-125.46 1008.05,-127.9 1017.63,-132.43 1018.36,-125.46"/>
</a>
</g>
</g>
<!-- Node26 -->
<g id="Node000026" class="node">
<title>Node26</title>
<g id="a_Node000026"><a xlink:href="compat__shared_8h.html" target="_top" xlink:title=" ">
<polygon fill="#fff0f0" stroke="red" points="1166.5,-129 1026.5,-129 1026.5,-110 1166.5,-110 1166.5,-129"/>
<text text-anchor="middle" x="1096.5" y="-117" font-family="Helvetica,sans-Serif" font-size="10.00">compat/compat_shared.h</text>
</a>
</g>
</g>
<!-- Node5&#45;&gt;Node26 -->
<g id="edge24_Node000005_Node000026" class="edge">
<title>Node5&#45;&gt;Node26</title>
<g id="a_edge24_Node000005_Node000026"><a xlink:title=" ">
<path fill="none" stroke="#63b8ff" d="M1599.46,-166.08C1596.43,-165.7 1593.43,-165.33 1590.5,-165 1409.79,-144.38 1361.46,-146.81 1176.75,-129.1"/>
<polygon fill="#63b8ff" stroke="#63b8ff" points="1176.99,-125.61 1166.7,-128.13 1176.32,-132.57 1176.99,-125.61"/>
</a>
</g>
</g>
<!-- Node36 -->
<g id="Node000036" class="node">
<title>Node36</title>
<g id="a_Node000036"><a xlink:href="stdvarargs_8h.html" target="_top" xlink:title=" ">
<polygon fill="#fff0f0" stroke="red" points="1302,-129 1185,-129 1185,-110 1302,-110 1302,-129"/>
<text text-anchor="middle" x="1243.5" y="-117" font-family="Helvetica,sans-Serif" font-size="10.00">compat/stdvarargs.h</text>
</a>
</g>
</g>
<!-- Node5&#45;&gt;Node36 -->
<g id="edge25_Node000005_Node000036" class="edge">
<title>Node5&#45;&gt;Node36</title>
<g id="a_edge25_Node000005_Node000036"><a xlink:title=" ">
<path fill="none" stroke="#63b8ff" d="M1599.44,-166.22C1596.42,-165.8 1593.42,-165.39 1590.5,-165 1563.64,-161.38 1405.54,-141.17 1312.27,-129.27"/>
<polygon fill="#63b8ff" stroke="#63b8ff" points="1312.71,-125.8 1302.34,-128 1311.82,-132.74 1312.71,-125.8"/>
</a>
</g>
</g>
<!-- Node38 -->
<g id="Node000038" class="node">
<title>Node38</title>
<g id="a_Node000038"><a xlink:href="stdio_8h.html" target="_top" xlink:title=" ">
<polygon fill="#fff0f0" stroke="red" points="1409,-129 1320,-129 1320,-110 1409,-110 1409,-129"/>
<text text-anchor="middle" x="1364.5" y="-117" font-family="Helvetica,sans-Serif" font-size="10.00">compat/stdio.h</text>
</a>
</g>
</g>
<!-- Node5&#45;&gt;Node38 -->
<g id="edge26_Node000005_Node000038" class="edge">
<title>Node5&#45;&gt;Node38</title>
<g id="a_edge26_Node000005_Node000038"><a xlink:title=" ">
<path fill="none" stroke="#63b8ff" d="M1604.55,-164.98C1554.11,-155.64 1473.18,-140.64 1419.43,-130.68"/>
<polygon fill="#63b8ff" stroke="#63b8ff" points="1419.86,-127.2 1409.39,-128.82 1418.59,-134.08 1419.86,-127.2"/>
</a>
</g>
</g>
<!-- Node40 -->
<g id="Node000040" class="node">
<title>Node40</title>
<g id="a_Node000040"><a xlink:href="statvfs_8h.html" target="_top" xlink:title=" ">
<polygon fill="white" stroke="#666666" points="1526,-129 1427,-129 1427,-110 1526,-110 1526,-129"/>
<text text-anchor="middle" x="1476.5" y="-117" font-family="Helvetica,sans-Serif" font-size="10.00">compat/statvfs.h</text>
</a>
</g>
</g>
<!-- Node5&#45;&gt;Node40 -->
<g id="edge27_Node000005_Node000040" class="edge">
<title>Node5&#45;&gt;Node40</title>
<g id="a_edge27_Node000005_Node000040"><a xlink:title=" ">
<path fill="none" stroke="#63b8ff" d="M1622.54,-164.98C1593.2,-156.05 1546.9,-141.94 1514.31,-132.02"/>
<polygon fill="#63b8ff" stroke="#63b8ff" points="1515.26,-128.65 1504.68,-129.08 1513.22,-135.34 1515.26,-128.65"/>
</a>
</g>
</g>
<!-- Node41 -->
<g id="Node000041" class="node">
<title>Node41</title>
<g id="a_Node000041"><a xlink:href="debug_8h.html" target="_top" xlink:title=" ">
<polygon fill="white" stroke="#666666" points="1639,-129 1544,-129 1544,-110 1639,-110 1639,-129"/>
<text text-anchor="middle" x="1591.5" y="-117" font-family="Helvetica,sans-Serif" font-size="10.00">compat/debug.h</text>
</a>
</g>
</g>
<!-- Node5&#45;&gt;Node41 -->
<g id="edge28_Node000005_Node000041" class="edge">
<title>Node5&#45;&gt;Node41</title>
<g id="a_edge28_Node000005_Node000041"><a xlink:title=" ">
<path fill="none" stroke="#63b8ff" d="M1641.02,-164.98C1632.3,-157.15 1619.16,-145.34 1608.6,-135.86"/>
<polygon fill="#63b8ff" stroke="#63b8ff" points="1610.93,-133.25 1601.15,-129.17 1606.25,-138.46 1610.93,-133.25"/>
</a>
</g>
</g>
<!-- Node42 -->
<g id="Node000042" class="node">
<title>Node42</title>
<g id="a_Node000042"><a xlink:href="valgrind_8h.html" target="_top" xlink:title=" ">
<polygon fill="#fff0f0" stroke="red" points="1762,-129 1657,-129 1657,-110 1762,-110 1762,-129"/>
<text text-anchor="middle" x="1709.5" y="-117" font-family="Helvetica,sans-Serif" font-size="10.00">compat/valgrind.h</text>
</a>
</g>
</g>
<!-- Node5&#45;&gt;Node42 -->
<g id="edge29_Node000005_Node000042" class="edge">
<title>Node5&#45;&gt;Node42</title>
<g id="a_edge29_Node000005_Node000042"><a xlink:title=" ">
<path fill="none" stroke="#63b8ff" d="M1659.98,-164.98C1668.7,-157.15 1681.84,-145.34 1692.4,-135.86"/>
<polygon fill="#63b8ff" stroke="#63b8ff" points="1694.75,-138.46 1699.85,-129.17 1690.07,-133.25 1694.75,-138.46"/>
</a>
</g>
</g>
<!-- Node45 -->
<g id="Node000045" class="node">
<title>Node45</title>
<g id="a_Node000045"><a xlink:href="Detail_8h.html" target="_top" xlink:title=" ">
<polygon fill="white" stroke="#666666" points="3956,-129 3875,-129 3875,-110 3956,-110 3956,-129"/>
<text text-anchor="middle" x="3915.5" y="-117" font-family="Helvetica,sans-Serif" font-size="10.00">error/Detail.h</text>
</a>
</g>
</g>
<!-- Node44&#45;&gt;Node45 -->
<g id="edge31_Node000044_Node000045" class="edge">
<title>Node44&#45;&gt;Node45</title>
<g id="a_edge31_Node000044_Node000045"><a xlink:title=" ">
<path fill="none" stroke="#63b8ff" d="M3915.5,-164.75C3915.5,-157.8 3915.5,-147.85 3915.5,-139.13"/>
<polygon fill="#63b8ff" stroke="#63b8ff" points="3919,-139.09 3915.5,-129.09 3912,-139.09 3919,-139.09"/>
</a>
</g>
</g>
<!-- Node57 -->
<g id="Node000057" class="node">
<title>Node57</title>
<g id="a_Node000057"><a xlink:href="sbuf_2forward_8h.html" target="_top" xlink:title=" ">
<polygon fill="#fff0f0" stroke="red" points="4066,-74 3979,-74 3979,-55 4066,-55 4066,-74"/>
<text text-anchor="middle" x="4022.5" y="-62" font-family="Helvetica,sans-Serif" font-size="10.00">sbuf/forward.h</text>
</a>
</g>
</g>
<!-- Node44&#45;&gt;Node57 -->
<g id="edge39_Node000044_Node000057" class="edge">
<title>Node44&#45;&gt;Node57</title>
<g id="a_edge39_Node000044_Node000057"><a xlink:title=" ">
<path fill="none" stroke="#63b8ff" d="M3941.88,-164.97C3960,-157.9 3983.41,-146.21 3998.5,-129 4009.66,-116.28 4015.85,-97.84 4019.14,-84.11"/>
<polygon fill="#63b8ff" stroke="#63b8ff" points="4022.57,-84.81 4021.19,-74.31 4015.72,-83.38 4022.57,-84.81"/>
</a>
</g>
</g>
<!-- Node46 -->
<g id="Node000046" class="node">
<title>Node46</title>
<g id="a_Node000046"><a xlink:href="Here_8h.html" target="_top" xlink:title=" ">
<polygon fill="white" stroke="#666666" points="3509,-74 3434,-74 3434,-55 3509,-55 3509,-74"/>
<text text-anchor="middle" x="3471.5" y="-62" font-family="Helvetica,sans-Serif" font-size="10.00">base/Here.h</text>
</a>
</g>
</g>
<!-- Node45&#45;&gt;Node46 -->
<g id="edge32_Node000045_Node000046" class="edge">
<title>Node45&#45;&gt;Node46</title>
<g id="a_edge32_Node000045_Node000046"><a xlink:title=" ">
<path fill="none" stroke="#63b8ff" d="M3874.89,-111.25C3872.05,-110.81 3869.24,-110.38 3866.5,-110 3719.09,-89.27 3681.26,-92.11 3533.5,-74 3528.95,-73.44 3524.21,-72.84 3519.48,-72.22"/>
<polygon fill="#63b8ff" stroke="#63b8ff" points="3519.56,-68.7 3509.18,-70.84 3518.63,-75.63 3519.56,-68.7"/>
</a>
</g>
</g>
<!-- Node48 -->
<g id="Node000048" class="node">
<title>Node48</title>
<g id="a_Node000048"><a xlink:href="RefCount_8h.html" target="_top" xlink:title=" ">
<polygon fill="#fff0f0" stroke="red" points="3639,-74 3542,-74 3542,-55 3639,-55 3639,-74"/>
<text text-anchor="middle" x="3590.5" y="-62" font-family="Helvetica,sans-Serif" font-size="10.00">base/RefCount.h</text>
</a>
</g>
</g>
<!-- Node45&#45;&gt;Node48 -->
<g id="edge34_Node000045_Node000048" class="edge">
<title>Node45&#45;&gt;Node48</title>
<g id="a_edge34_Node000045_Node000048"><a xlink:title=" ">
<path fill="none" stroke="#63b8ff" d="M3874.86,-111.41C3872.03,-110.93 3869.22,-110.46 3866.5,-110 3791.69,-97.48 3705.37,-83.66 3649.46,-74.8"/>
<polygon fill="#63b8ff" stroke="#63b8ff" points="3649.81,-71.31 3639.39,-73.2 3648.72,-78.22 3649.81,-71.31"/>
</a>
</g>
</g>
<!-- Node52 -->
<g id="Node000052" class="node">
<title>Node52</title>
<g id="a_Node000052"><a xlink:href="error_2forward_8h.html" target="_top" xlink:title=" ">
<polygon fill="#fff0f0" stroke="red" points="3961,-74 3872,-74 3872,-55 3961,-55 3961,-74"/>
<text text-anchor="middle" x="3916.5" y="-62" font-family="Helvetica,sans-Serif" font-size="10.00">error/forward.h</text>
</a>
</g>
</g>
<!-- Node45&#45;&gt;Node52 -->
<g id="edge35_Node000045_Node000052" class="edge">
<title>Node45&#45;&gt;Node52</title>
<g id="a_edge35_Node000045_Node000052"><a xlink:title=" ">
<path fill="none" stroke="#63b8ff" d="M3915.67,-109.75C3915.8,-102.8 3915.98,-92.85 3916.15,-84.13"/>
<polygon fill="#63b8ff" stroke="#63b8ff" points="3919.65,-84.15 3916.34,-74.09 3912.65,-84.02 3919.65,-84.15"/>
</a>
</g>
</g>
<!-- Node54 -->
<g id="Node000054" class="node">
<title>Node54</title>
<g id="a_Node000054"><a xlink:href="http_2forward_8h.html" target="_top" xlink:title=" ">
<polygon fill="#fff0f0" stroke="red" points="3853.5,-74 3767.5,-74 3767.5,-55 3853.5,-55 3853.5,-74"/>
<text text-anchor="middle" x="3810.5" y="-62" font-family="Helvetica,sans-Serif" font-size="10.00">http/forward.h</text>
</a>
</g>
</g>
<!-- Node45&#45;&gt;Node54 -->
<g id="edge36_Node000045_Node000054" class="edge">
<title>Node45&#45;&gt;Node54</title>
<g id="a_edge36_Node000045_Node000054"><a xlink:title=" ">
<path fill="none" stroke="#63b8ff" d="M3898.63,-109.98C3881.89,-101.54 3856,-88.47 3836.61,-78.68"/>
<polygon fill="#63b8ff" stroke="#63b8ff" points="3838.18,-75.55 3827.68,-74.17 3835.03,-81.8 3838.18,-75.55"/>
</a>
</g>
</g>
<!-- Node60 -->
<g id="Node000060" class="node">
<title>Node60</title>
<g id="a_Node000060"><a xlink:title=" ">
<polygon fill="#e0e0e0" stroke="#999999" points="3749.5,-74 3657.5,-74 3657.5,-55 3749.5,-55 3749.5,-74"/>
<text text-anchor="middle" x="3703.5" y="-62" font-family="Helvetica,sans-Serif" font-size="10.00">mem/forward.h</text>
</a>
</g>
</g>
<!-- Node45&#45;&gt;Node60 -->
<g id="edge37_Node000045_Node000060" class="edge">
<title>Node45&#45;&gt;Node60</title>
<g id="a_edge37_Node000045_Node000060"><a xlink:title=" ">
<path fill="none" stroke="#63b8ff" d="M3881.44,-109.98C3845.08,-100.89 3787.33,-86.46 3747.53,-76.51"/>
<polygon fill="#63b8ff" stroke="#63b8ff" points="3748.38,-73.11 3737.83,-74.08 3746.68,-79.9 3748.38,-73.11"/>
</a>
</g>
</g>
<!-- Node45&#45;&gt;Node57 -->
<g id="edge38_Node000045_Node000057" class="edge">
<title>Node45&#45;&gt;Node57</title>
<g id="a_edge38_Node000045_Node000057"><a xlink:title=" ">
<path fill="none" stroke="#63b8ff" d="M3932.69,-109.98C3949.75,-101.54 3976.13,-88.47 3995.9,-78.68"/>
<polygon fill="#63b8ff" stroke="#63b8ff" points="3997.59,-81.75 4005,-74.17 3994.48,-75.47 3997.59,-81.75"/>
</a>
</g>
</g>
<!-- Node47 -->
<g id="Node000047" class="node">
<title>Node47</title>
<g id="a_Node000047"><a xlink:title=" ">
<polygon fill="#e0e0e0" stroke="#999999" points="3329.5,-19 3281.5,-19 3281.5,0 3329.5,0 3329.5,-19"/>
<text text-anchor="middle" x="3305.5" y="-7" font-family="Helvetica,sans-Serif" font-size="10.00">iosfwd</text>
</a>
</g>
</g>
<!-- Node46&#45;&gt;Node47 -->
<g id="edge33_Node000046_Node000047" class="edge">
<title>Node46&#45;&gt;Node47</title>
<g id="a_edge33_Node000046_Node000047"><a xlink:title=" ">
<path fill="none" stroke="#63b8ff" d="M3444.83,-54.98C3416.13,-45.82 3370.43,-31.23 3339.25,-21.27"/>
<polygon fill="#63b8ff" stroke="#63b8ff" points="3340.27,-17.93 3329.68,-18.22 3338.14,-24.59 3340.27,-17.93"/>
</a>
</g>
</g>
<!-- Node61&#45;&gt;Node47 -->
<g id="edge56_Node000061_Node000047" class="edge">
<title>Node61&#45;&gt;Node47</title>
<g id="a_edge56_Node000061_Node000047"><a xlink:title=" ">
<path fill="none" stroke="#63b8ff" d="M3488.75,-170.42C3425.52,-164.5 3296.91,-150.23 3257.5,-129 3222.33,-110.06 3184.8,-88.54 3206.5,-55 3220.7,-33.05 3248.59,-21.82 3271.16,-16.14"/>
<polygon fill="#63b8ff" stroke="#63b8ff" points="3272.1,-19.51 3281.08,-13.9 3270.56,-12.69 3272.1,-19.51"/>
</a>
</g>
</g>
<!-- Node61&#45;&gt;Node57 -->
<g id="edge48_Node000061_Node000057" class="edge">
<title>Node61&#45;&gt;Node57</title>
<g id="a_edge48_Node000061_Node000057"><a xlink:title=" ">
<path fill="none" stroke="#63b8ff" d="M3560.31,-166.41C3563.41,-165.9 3566.51,-165.42 3569.5,-165 3657.01,-152.79 3886.52,-168.62 3965.5,-129 3985.7,-118.86 4002.07,-98.25 4012,-83.26"/>
<polygon fill="#63b8ff" stroke="#63b8ff" points="4015.22,-84.71 4017.57,-74.38 4009.29,-80.99 4015.22,-84.71"/>
</a>
</g>
</g>
<!-- Node62 -->
<g id="Node000062" class="node">
<title>Node62</title>
<g id="a_Node000062"><a xlink:href="InstanceId_8h.html" target="_top" xlink:title=" ">
<polygon fill="white" stroke="#666666" points="3409.5,-74 3307.5,-74 3307.5,-55 3409.5,-55 3409.5,-74"/>
<text text-anchor="middle" x="3358.5" y="-62" font-family="Helvetica,sans-Serif" font-size="10.00">base/InstanceId.h</text>
</a>
</g>
</g>
<!-- Node61&#45;&gt;Node62 -->
<g id="edge41_Node000061_Node000062" class="edge">
<title>Node61&#45;&gt;Node62</title>
<g id="a_edge41_Node000061_Node000062"><a xlink:title=" ">
<path fill="none" stroke="#63b8ff" d="M3488.76,-172.33C3427.93,-169.49 3308.34,-160.02 3282.5,-129 3265.57,-108.67 3296.44,-89.84 3323.77,-78.05"/>
<polygon fill="#63b8ff" stroke="#63b8ff" points="3325.28,-81.22 3333.21,-74.18 3322.63,-74.74 3325.28,-81.22"/>
</a>
</g>
</g>
<!-- Node63 -->
<g id="Node000063" class="node">
<title>Node63</title>
<g id="a_Node000063"><a xlink:href="TextException_8h.html" target="_top" xlink:title=" ">
<polygon fill="#fff0f0" stroke="red" points="3411.5,-129 3291.5,-129 3291.5,-110 3411.5,-110 3411.5,-129"/>
<text text-anchor="middle" x="3351.5" y="-117" font-family="Helvetica,sans-Serif" font-size="10.00">base/TextException.h</text>
</a>
</g>
</g>
<!-- Node61&#45;&gt;Node63 -->
<g id="edge43_Node000061_Node000063" class="edge">
<title>Node61&#45;&gt;Node63</title>
<g id="a_edge43_Node000061_Node000063"><a xlink:title=" ">
<path fill="none" stroke="#63b8ff" d="M3496.7,-164.98C3467.53,-156.05 3421.5,-141.94 3389.1,-132.02"/>
<polygon fill="#63b8ff" stroke="#63b8ff" points="3390.1,-128.66 3379.51,-129.08 3388.05,-135.36 3390.1,-128.66"/>
</a>
</g>
</g>
<!-- Node66 -->
<g id="Node000066" class="node">
<title>Node66</title>
<g id="a_Node000066"><a xlink:href="debug_2Stream_8h.html" target="_top" xlink:title=" ">
<polygon fill="#fff0f0" stroke="red" points="3523.5,-129 3429.5,-129 3429.5,-110 3523.5,-110 3523.5,-129"/>
<text text-anchor="middle" x="3476.5" y="-117" font-family="Helvetica,sans-Serif" font-size="10.00">debug/Stream.h</text>
</a>
</g>
</g>
<!-- Node61&#45;&gt;Node66 -->
<g id="edge45_Node000061_Node000066" class="edge">
<title>Node61&#45;&gt;Node66</title>
<g id="a_edge45_Node000061_Node000066"><a xlink:title=" ">
<path fill="none" stroke="#63b8ff" d="M3516.57,-164.75C3509.65,-157.11 3499.43,-145.82 3491.05,-136.56"/>
<polygon fill="#63b8ff" stroke="#63b8ff" points="3493.59,-134.15 3484.28,-129.09 3488.4,-138.85 3493.59,-134.15"/>
</a>
</g>
</g>
<!-- Node70 -->
<g id="Node000070" class="node">
<title>Node70</title>
<g id="a_Node000070"><a xlink:href="globals_8h.html" target="_top" xlink:title=" ">
<polygon fill="#fff0f0" stroke="red" points="3603,-129 3542,-129 3542,-110 3603,-110 3603,-129"/>
<text text-anchor="middle" x="3572.5" y="-117" font-family="Helvetica,sans-Serif" font-size="10.00">globals.h</text>
</a>
</g>
</g>
<!-- Node61&#45;&gt;Node70 -->
<g id="edge47_Node000061_Node000070" class="edge">
<title>Node61&#45;&gt;Node70</title>
<g id="a_edge47_Node000061_Node000070"><a xlink:title=" ">
<path fill="none" stroke="#63b8ff" d="M3532.43,-164.75C3539.35,-157.11 3549.57,-145.82 3557.95,-136.56"/>
<polygon fill="#63b8ff" stroke="#63b8ff" points="3560.6,-138.85 3564.72,-129.09 3555.41,-134.15 3560.6,-138.85"/>
</a>
</g>
</g>
<!-- Node79 -->
<g id="Node000079" class="node">
<title>Node79</title>
<g id="a_Node000079"><a xlink:href="MemBlob_8h.html" target="_top" xlink:title=" ">
<polygon fill="white" stroke="#666666" points="3717.5,-129 3621.5,-129 3621.5,-110 3717.5,-110 3717.5,-129"/>
<text text-anchor="middle" x="3669.5" y="-117" font-family="Helvetica,sans-Serif" font-size="10.00">sbuf/MemBlob.h</text>
</a>
</g>
</g>
<!-- Node61&#45;&gt;Node79 -->
<g id="edge49_Node000061_Node000079" class="edge">
<title>Node61&#45;&gt;Node79</title>
<g id="a_edge49_Node000061_Node000079"><a xlink:title=" ">
<path fill="none" stroke="#63b8ff" d="M3547.8,-164.98C3571.75,-156.23 3609.28,-142.51 3636.33,-132.62"/>
<polygon fill="#63b8ff" stroke="#63b8ff" points="3637.59,-135.89 3645.78,-129.17 3635.19,-129.32 3637.59,-135.89"/>
</a>
</g>
</g>
<!-- Node80 -->
<g id="Node000080" class="node">
<title>Node80</title>
<g id="a_Node000080"><a xlink:href="sbuf_2Stats_8h.html" target="_top" xlink:title=" ">
<polygon fill="white" stroke="#666666" points="3289.5,-74 3215.5,-74 3215.5,-55 3289.5,-55 3289.5,-74"/>
<text text-anchor="middle" x="3252.5" y="-62" font-family="Helvetica,sans-Serif" font-size="10.00">sbuf/Stats.h</text>
</a>
</g>
</g>
<!-- Node61&#45;&gt;Node80 -->
<g id="edge53_Node000061_Node000080" class="edge">
<title>Node61&#45;&gt;Node80</title>
<g id="a_edge53_Node000061_Node000080"><a xlink:title=" ">
<path fill="none" stroke="#63b8ff" d="M3488.6,-171.51C3427.35,-167.42 3306.18,-156.05 3274.5,-129 3261.62,-118 3256.27,-99.05 3254.06,-84.71"/>
<polygon fill="#63b8ff" stroke="#63b8ff" points="3257.49,-83.97 3252.87,-74.44 3250.54,-84.77 3257.49,-83.97"/>
</a>
</g>
</g>
<!-- Node81 -->
<g id="Node000081" class="node">
<title>Node81</title>
<g id="a_Node000081"><a xlink:title=" ">
<polygon fill="#e0e0e0" stroke="#999999" points="3785.5,-129 3735.5,-129 3735.5,-110 3785.5,-110 3785.5,-129"/>
<text text-anchor="middle" x="3760.5" y="-117" font-family="Helvetica,sans-Serif" font-size="10.00">climits</text>
</a>
</g>
</g>
<!-- Node61&#45;&gt;Node81 -->
<g id="edge55_Node000061_Node000081" class="edge">
<title>Node61&#45;&gt;Node81</title>
<g id="a_edge55_Node000061_Node000081"><a xlink:title=" ">
<path fill="none" stroke="#63b8ff" d="M3560.33,-165.93C3598.79,-157.72 3661.92,-144.06 3725.48,-129.19"/>
<polygon fill="#63b8ff" stroke="#63b8ff" points="3726.33,-132.59 3735.27,-126.89 3724.73,-125.77 3726.33,-132.59"/>
</a>
</g>
</g>
<!-- Node82 -->
<g id="Node000082" class="node">
<title>Node82</title>
<g id="a_Node000082"><a xlink:title=" ">
<polygon fill="#e0e0e0" stroke="#999999" points="3857,-129 3804,-129 3804,-110 3857,-110 3857,-129"/>
<text text-anchor="middle" x="3830.5" y="-117" font-family="Helvetica,sans-Serif" font-size="10.00">iterator</text>
</a>
</g>
</g>
<!-- Node61&#45;&gt;Node82 -->
<g id="edge57_Node000061_Node000082" class="edge">
<title>Node61&#45;&gt;Node82</title>
<g id="a_edge57_Node000061_Node000082"><a xlink:title=" ">
<path fill="none" stroke="#63b8ff" d="M3560.34,-166.64C3563.44,-166.07 3566.52,-165.52 3569.5,-165 3666.15,-148.14 3693.46,-148.6 3793.86,-128.99"/>
<polygon fill="#63b8ff" stroke="#63b8ff" points="3794.68,-132.4 3803.81,-127.03 3793.32,-125.53 3794.68,-132.4"/>
</a>
</g>
</g>
<!-- Node62&#45;&gt;Node47 -->
<g id="edge42_Node000062_Node000047" class="edge">
<title>Node62&#45;&gt;Node47</title>
<g id="a_edge42_Node000062_Node000047"><a xlink:title=" ">
<path fill="none" stroke="#63b8ff" d="M3349.75,-54.75C3342.03,-47.03 3330.6,-35.6 3321.28,-26.28"/>
<polygon fill="#63b8ff" stroke="#63b8ff" points="3323.64,-23.69 3314.09,-19.09 3318.69,-28.64 3323.64,-23.69"/>
</a>
</g>
</g>
<!-- Node63&#45;&gt;Node46 -->
<g id="edge44_Node000063_Node000046" class="edge">
<title>Node63&#45;&gt;Node46</title>
<g id="a_edge44_Node000063_Node000046"><a xlink:title=" ">
<path fill="none" stroke="#63b8ff" d="M3370.78,-109.98C3390.17,-101.42 3420.31,-88.11 3442.57,-78.28"/>
<polygon fill="#63b8ff" stroke="#63b8ff" points="3444.14,-81.41 3451.87,-74.17 3441.31,-75.01 3444.14,-81.41"/>
</a>
</g>
</g>
<!-- Node66&#45;&gt;Node46 -->
<g id="edge46_Node000066_Node000046" class="edge">
<title>Node66&#45;&gt;Node46</title>
<g id="a_edge46_Node000066_Node000046"><a xlink:title=" ">
<path fill="none" stroke="#63b8ff" d="M3475.67,-109.75C3475.02,-102.8 3474.08,-92.85 3473.26,-84.13"/>
<polygon fill="#63b8ff" stroke="#63b8ff" points="3476.73,-83.72 3472.31,-74.09 3469.77,-84.37 3476.73,-83.72"/>
</a>
</g>
</g>
<!-- Node79&#45;&gt;Node48 -->
<g id="edge51_Node000079_Node000048" class="edge">
<title>Node79&#45;&gt;Node48</title>
<g id="a_edge51_Node000079_Node000048"><a xlink:title=" ">
<path fill="none" stroke="#63b8ff" d="M3656.81,-109.98C3644.67,-101.84 3626.14,-89.41 3611.75,-79.76"/>
<polygon fill="#63b8ff" stroke="#63b8ff" points="3613.68,-76.84 3603.42,-74.17 3609.78,-82.65 3613.68,-76.84"/>
</a>
</g>
</g>
<!-- Node79&#45;&gt;Node60 -->
<g id="edge52_Node000079_Node000060" class="edge">
<title>Node79&#45;&gt;Node60</title>
<g id="a_edge52_Node000079_Node000060"><a xlink:title=" ">
<path fill="none" stroke="#63b8ff" d="M3675.11,-109.75C3679.82,-102.42 3686.67,-91.73 3692.47,-82.7"/>
<polygon fill="#63b8ff" stroke="#63b8ff" points="3695.54,-84.4 3697.99,-74.09 3689.64,-80.62 3695.54,-84.4"/>
</a>
</g>
</g>
<!-- Node79&#45;&gt;Node62 -->
<g id="edge50_Node000079_Node000062" class="edge">
<title>Node79&#45;&gt;Node62</title>
<g id="a_edge50_Node000079_Node000062"><a xlink:title=" ">
<path fill="none" stroke="#63b8ff" d="M3621.25,-110.28C3566.57,-100.96 3477.41,-85.76 3418.35,-75.7"/>
<polygon fill="#63b8ff" stroke="#63b8ff" points="3418.86,-72.24 3408.41,-74.01 3417.68,-79.14 3418.86,-72.24"/>
</a>
</g>
</g>
<!-- Node80&#45;&gt;Node47 -->
<g id="edge54_Node000080_Node000047" class="edge">
<title>Node80&#45;&gt;Node47</title>
<g id="a_edge54_Node000080_Node000047"><a xlink:title=" ">
<path fill="none" stroke="#63b8ff" d="M3261.25,-54.75C3268.97,-47.03 3280.4,-35.6 3289.72,-26.28"/>
<polygon fill="#63b8ff" stroke="#63b8ff" points="3292.31,-28.64 3296.91,-19.09 3287.36,-23.69 3292.31,-28.64"/>
</a>
</g>
</g>
<!-- Node83&#45;&gt;Node61 -->
<g id="edge60_Node000083_Node000061" class="edge">
<title>Node83&#45;&gt;Node61</title>
<g id="a_edge60_Node000083_Node000061"><a xlink:title=" ">
<path fill="none" stroke="#63b8ff" d="M3584.09,-219.98C3573.39,-212 3557.16,-199.88 3544.34,-190.31"/>
<polygon fill="#63b8ff" stroke="#63b8ff" points="3546.22,-187.35 3536.11,-184.17 3542.03,-192.96 3546.22,-187.35"/>
</a>
</g>
</g>
<!-- Node84 -->
<g id="Node000084" class="node">
<title>Node84</title>
<g id="a_Node000084"><a xlink:href="PackableStream_8h.html" target="_top" xlink:title=" ">
<polygon fill="#fff0f0" stroke="red" points="3708.5,-184 3578.5,-184 3578.5,-165 3708.5,-165 3708.5,-184"/>
<text text-anchor="middle" x="3643.5" y="-172" font-family="Helvetica,sans-Serif" font-size="10.00">base/PackableStream.h</text>
</a>
</g>
</g>
<!-- Node83&#45;&gt;Node84 -->
<g id="edge59_Node000083_Node000084" class="edge">
<title>Node83&#45;&gt;Node84</title>
<g id="a_edge59_Node000083_Node000084"><a xlink:title=" ">
<path fill="none" stroke="#63b8ff" d="M3603.43,-219.75C3610.35,-212.11 3620.57,-200.82 3628.95,-191.56"/>
<polygon fill="#63b8ff" stroke="#63b8ff" points="3631.6,-193.85 3635.72,-184.09 3626.41,-189.15 3631.6,-193.85"/>
</a>
</g>
</g>
</g>
</svg>

<g id="navigator" transform="translate(0 0)" fill="#404254">
  <rect fill="#f2f5e9" fill-opacity="0.5" stroke="#606060" stroke-width=".5" x="0" y="0" width="60" height="60"/>
  <use id="zoomplus" xlink:href="#zoomPlus" x="17" y="9" onmousedown="handleZoom(evt,'in')"/>
  <use id="zoomminus" xlink:href="#zoomMin" x="42" y="9" onmousedown="handleZoom(evt,'out')"/>
  <use id="reset" xlink:href="#resetDef" x="30" y="36" onmousedown="handleReset()"/>
   <use id="arrowup" xlink:href="#arrowUp" x="0" y="0" onmousedown="handlePan(0,-1)"/>
  <use id="arrowright" xlink:href="#arrowRight" x="0" y="0" onmousedown="handlePan(1,0)"/>
  <use id="arrowdown" xlink:href="#arrowDown" x="0" y="0" onmousedown="handlePan(0,1)"/>
  <use id="arrowleft" xlink:href="#arrowLeft" x="0" y="0" onmousedown="handlePan(-1,0)"/>
</g>
<svg viewBox="0 0 15 15" width="100%" height="30px" preserveAspectRatio="xMaxYMin meet">
 <g id="arrow_out" transform="scale(0.3 0.3)">
  <a xlink:href="SysErrorDetail_8cc__incl_org.svg" target="_base">
   <rect id="button" ry="5" rx="5" y="6" x="6" height="38" width="38"
        fill="#f2f5e9" fill-opacity="0.5" stroke="#606060" stroke-width="1.0"/>
   <path id="arrow"
     d="M 11.500037,31.436501 C 11.940474,20.09759 22.043105,11.32322 32.158766,21.979434 L 37.068811,17.246167 C 37.068811,17.246167 37.088388,32 37.088388,32 L 22.160133,31.978069 C 22.160133,31.978069 26.997745,27.140456 26.997745,27.140456 C 18.528582,18.264221 13.291696,25.230495 11.500037,31.436501 z"
     style="fill:#404040;"/>
  </a>
 </g>
</svg>

<style type='text/css'>
<![CDATA[
[data-mouse-over-selected='false'] { opacity: 0.7; }
[data-mouse-over-selected='true']  { opacity: 1.0; }
]]>
</style>
<script type="application/ecmascript"><![CDATA[
document.addEventListener('DOMContentLoaded', (event) => {
  highlightEdges();
  highlightAdjacentNodes();
});
]]></script>
</svg>
