<?xml version="1.0" encoding="UTF-8" standalone="no"?>
<!DOCTYPE svg PUBLIC "-//W3C//DTD SVG 1.1//EN"
 "http://www.w3.org/Graphics/SVG/1.1/DTD/svg11.dtd">
<!-- Generated by graphviz version 2.43.0 (0)
 -->
<!-- Title: squid/src/error/SysErrorDetail.h Pages: 1 -->
<svg width="1310pt" height="104pt"
 viewBox="0.00 0.00 1309.50 104.00" xmlns="http://www.w3.org/2000/svg" xmlns:xlink="http://www.w3.org/1999/xlink">
<g id="graph0" class="graph" transform="scale(1 1) rotate(0) translate(4 100)">
<title>squid/src/error/SysErrorDetail.h</title>
<!-- Node1 -->
<g id="Node000001" class="node">
<title>Node1</title>
<g id="a_Node000001"><a xlink:title=" ">
<polygon fill="#999999" stroke="#666666" points="752,-96 622,-96 622,-66 752,-66 752,-96"/>
<text text-anchor="start" x="630" y="-84" font-family="Helvetica,sans-Serif" font-size="10.00">squid/src/error/SysError</text>
<text text-anchor="middle" x="687" y="-73" font-family="Helvetica,sans-Serif" font-size="10.00">Detail.h</text>
</a>
</g>
</g>
<!-- Node2 -->
<g id="Node000002" class="node">
<title>Node2</title>
<g id="a_Node000002"><a xlink:href="FtpClient_8cc.html" target="_top" xlink:title=" ">
<polygon fill="white" stroke="#666666" points="156,-24.5 0,-24.5 0,-5.5 156,-5.5 156,-24.5"/>
<text text-anchor="middle" x="78" y="-12.5" font-family="Helvetica,sans-Serif" font-size="10.00">squid/src/clients/FtpClient.cc</text>
</a>
</g>
</g>
<!-- Node1&#45;&gt;Node2 -->
<g id="edge1_Node000001_Node000002" class="edge">
<title>Node1&#45;&gt;Node2</title>
<g id="a_edge1_Node000001_Node000002"><a xlink:title=" ">
<path fill="none" stroke="#63b8ff" d="M611.58,-74.3C509.94,-66.27 323.45,-50.32 165,-30 152.86,-28.44 139.81,-26.49 127.61,-24.55"/>
<polygon fill="#63b8ff" stroke="#63b8ff" points="611.5,-77.81 621.75,-75.1 612.05,-70.83 611.5,-77.81"/>
</a>
</g>
</g>
<!-- Node3 -->
<g id="Node000003" class="node">
<title>Node3</title>
<g id="a_Node000003"><a xlink:href="FtpRelay_8cc.html" target="_top" xlink:title=" ">
<polygon fill="white" stroke="#666666" points="328,-24.5 174,-24.5 174,-5.5 328,-5.5 328,-24.5"/>
<text text-anchor="middle" x="251" y="-12.5" font-family="Helvetica,sans-Serif" font-size="10.00">squid/src/clients/FtpRelay.cc</text>
</a>
</g>
</g>
<!-- Node1&#45;&gt;Node3 -->
<g id="edge2_Node000001_Node000003" class="edge">
<title>Node1&#45;&gt;Node3</title>
<g id="a_edge2_Node000001_Node000003"><a xlink:title=" ">
<path fill="none" stroke="#63b8ff" d="M611.61,-69.66C540.69,-59.83 431.56,-44.45 337,-30 325.78,-28.29 313.76,-26.37 302.36,-24.53"/>
<polygon fill="#63b8ff" stroke="#63b8ff" points="611.41,-73.17 621.79,-71.07 612.37,-66.23 611.41,-73.17"/>
</a>
</g>
</g>
<!-- Node4 -->
<g id="Node000004" class="node">
<title>Node4</title>
<g id="a_Node000004"><a xlink:href="SysErrorDetail_8cc.html" target="_top" xlink:title=" ">
<polygon fill="white" stroke="#666666" points="476,-30 346,-30 346,0 476,0 476,-30"/>
<text text-anchor="start" x="354" y="-18" font-family="Helvetica,sans-Serif" font-size="10.00">squid/src/error/SysError</text>
<text text-anchor="middle" x="411" y="-7" font-family="Helvetica,sans-Serif" font-size="10.00">Detail.cc</text>
</a>
</g>
</g>
<!-- Node1&#45;&gt;Node4 -->
<g id="edge3_Node000001_Node000004" class="edge">
<title>Node1&#45;&gt;Node4</title>
<g id="a_edge3_Node000001_Node000004"><a xlink:title=" ">
<path fill="none" stroke="#63b8ff" d="M616.48,-63.65C571.64,-53.25 514.18,-39.93 471.43,-30.01"/>
<polygon fill="#63b8ff" stroke="#63b8ff" points="615.9,-67.11 626.43,-65.95 617.48,-60.29 615.9,-67.11"/>
</a>
</g>
</g>
<!-- Node5 -->
<g id="Node000005" class="node">
<title>Node5</title>
<g id="a_Node000005"><a xlink:href="errorpage_8cc.html" target="_top" xlink:title=" ">
<polygon fill="white" stroke="#666666" points="618,-24.5 494,-24.5 494,-5.5 618,-5.5 618,-24.5"/>
<text text-anchor="middle" x="556" y="-12.5" font-family="Helvetica,sans-Serif" font-size="10.00">squid/src/errorpage.cc</text>
</a>
</g>
</g>
<!-- Node1&#45;&gt;Node5 -->
<g id="edge4_Node000001_Node000005" class="edge">
<title>Node1&#45;&gt;Node5</title>
<g id="a_edge4_Node000001_Node000005"><a xlink:title=" ">
<path fill="none" stroke="#63b8ff" d="M649.05,-61.46C624.1,-49.27 592.64,-33.9 573.43,-24.52"/>
<polygon fill="#63b8ff" stroke="#63b8ff" points="647.73,-64.71 658.25,-65.95 650.8,-58.42 647.73,-64.71"/>
</a>
</g>
</g>
<!-- Node6 -->
<g id="Node000006" class="node">
<title>Node6</title>
<g id="a_Node000006"><a xlink:href="security_2ErrorDetail_8cc.html" target="_top" xlink:title=" ">
<polygon fill="white" stroke="#666666" points="738,-30 636,-30 636,0 738,0 738,-30"/>
<text text-anchor="start" x="644" y="-18" font-family="Helvetica,sans-Serif" font-size="10.00">squid/src/security</text>
<text text-anchor="middle" x="687" y="-7" font-family="Helvetica,sans-Serif" font-size="10.00">/ErrorDetail.cc</text>
</a>
</g>
</g>
<!-- Node1&#45;&gt;Node6 -->
<g id="edge5_Node000001_Node000006" class="edge">
<title>Node1&#45;&gt;Node6</title>
<g id="a_edge5_Node000001_Node000006"><a xlink:title=" ">
<path fill="none" stroke="#63b8ff" d="M687,-55.54C687,-46.96 687,-37.61 687,-30.16"/>
<polygon fill="#63b8ff" stroke="#63b8ff" points="683.5,-55.8 687,-65.8 690.5,-55.8 683.5,-55.8"/>
</a>
</g>
</g>
<!-- Node7 -->
<g id="Node000007" class="node">
<title>Node7</title>
<g id="a_Node000007"><a xlink:href="ServerOptions_8cc.html" target="_top" xlink:title=" ">
<polygon fill="white" stroke="#666666" points="858,-30 756,-30 756,0 858,0 858,-30"/>
<text text-anchor="start" x="764" y="-18" font-family="Helvetica,sans-Serif" font-size="10.00">squid/src/security</text>
<text text-anchor="middle" x="807" y="-7" font-family="Helvetica,sans-Serif" font-size="10.00">/ServerOptions.cc</text>
</a>
</g>
</g>
<!-- Node1&#45;&gt;Node7 -->
<g id="edge6_Node000001_Node000007" class="edge">
<title>Node1&#45;&gt;Node7</title>
<g id="a_edge6_Node000001_Node000007"><a xlink:title=" ">
<path fill="none" stroke="#63b8ff" d="M722.17,-61.24C740.9,-51.25 763.55,-39.18 780.73,-30.01"/>
<polygon fill="#63b8ff" stroke="#63b8ff" points="720.51,-58.16 713.33,-65.95 723.81,-64.34 720.51,-58.16"/>
</a>
</g>
</g>
<!-- Node8 -->
<g id="Node000008" class="node">
<title>Node8</title>
<g id="a_Node000008"><a xlink:href="Server_8cc.html" target="_top" xlink:title=" ">
<polygon fill="white" stroke="#666666" points="1022,-24.5 876,-24.5 876,-5.5 1022,-5.5 1022,-24.5"/>
<text text-anchor="middle" x="949" y="-12.5" font-family="Helvetica,sans-Serif" font-size="10.00">squid/src/servers/Server.cc</text>
</a>
</g>
</g>
<!-- Node1&#45;&gt;Node8 -->
<g id="edge7_Node000001_Node000008" class="edge">
<title>Node1&#45;&gt;Node8</title>
<g id="a_edge7_Node000001_Node000008"><a xlink:title=" ">
<path fill="none" stroke="#63b8ff" d="M754.47,-63.52C805.51,-51.05 873.53,-34.44 914.13,-24.52"/>
<polygon fill="#63b8ff" stroke="#63b8ff" points="753.38,-60.18 744.5,-65.95 755.04,-66.98 753.38,-60.18"/>
</a>
</g>
</g>
<!-- Node9 -->
<g id="Node000009" class="node">
<title>Node9</title>
<g id="a_Node000009"><a xlink:href="ssl_2gadgets_8cc.html" target="_top" xlink:title=" ">
<polygon fill="white" stroke="#666666" points="1172,-24.5 1040,-24.5 1040,-5.5 1172,-5.5 1172,-24.5"/>
<text text-anchor="middle" x="1106" y="-12.5" font-family="Helvetica,sans-Serif" font-size="10.00">squid/src/ssl/gadgets.cc</text>
</a>
</g>
</g>
<!-- Node1&#45;&gt;Node9 -->
<g id="edge8_Node000001_Node000009" class="edge">
<title>Node1&#45;&gt;Node9</title>
<g id="a_edge8_Node000001_Node000009"><a xlink:title=" ">
<path fill="none" stroke="#63b8ff" d="M762.13,-69.97C831.91,-60.44 938.65,-45.32 1031,-30 1041.06,-28.33 1051.86,-26.4 1062.03,-24.51"/>
<polygon fill="#63b8ff" stroke="#63b8ff" points="761.55,-66.51 752.11,-71.33 762.49,-73.45 761.55,-66.51"/>
</a>
</g>
</g>
<!-- Node10 -->
<g id="Node000010" class="node">
<title>Node10</title>
<g id="a_Node000010"><a xlink:href="stub__liberror_8cc.html" target="_top" xlink:title=" ">
<polygon fill="white" stroke="#666666" points="1301.5,-30 1190.5,-30 1190.5,0 1301.5,0 1301.5,-30"/>
<text text-anchor="start" x="1198.5" y="-18" font-family="Helvetica,sans-Serif" font-size="10.00">squid/src/tests/stub</text>
<text text-anchor="middle" x="1246" y="-7" font-family="Helvetica,sans-Serif" font-size="10.00">_liberror.cc</text>
</a>
</g>
</g>
<!-- Node1&#45;&gt;Node10 -->
<g id="edge9_Node000001_Node000010" class="edge">
<title>Node1&#45;&gt;Node10</title>
<g id="a_edge9_Node000001_Node000010"><a xlink:title=" ">
<path fill="none" stroke="#63b8ff" d="M762.04,-75.02C859.15,-67.97 1033.38,-53.29 1181,-30 1184.08,-29.51 1187.23,-28.98 1190.41,-28.4"/>
<polygon fill="#63b8ff" stroke="#63b8ff" points="761.75,-71.53 752.03,-75.73 762.26,-78.51 761.75,-71.53"/>
</a>
</g>
</g>
</g>
</svg>
