<?xml version="1.0" encoding="UTF-8" standalone="no"?>
<!DOCTYPE svg PUBLIC "-//W3C//DTD SVG 1.1//EN"
 "http://www.w3.org/Graphics/SVG/1.1/DTD/svg11.dtd">
<!-- Generated by graphviz version 2.43.0 (0)
 -->
<!-- Title: squid/src/comm/Tcp.cc Pages: 1 -->
<svg width="3235pt" height="247pt"
 viewBox="0.00 0.00 3234.50 247.00" xmlns="http://www.w3.org/2000/svg" xmlns:xlink="http://www.w3.org/1999/xlink">
<g id="graph0" class="graph" transform="scale(1 1) rotate(0) translate(4 243)">
<title>squid/src/comm/Tcp.cc</title>
<!-- Node1 -->
<g id="Node000001" class="node">
<title>Node1</title>
<g id="a_Node000001"><a xlink:title=" ">
<polygon fill="#999999" stroke="#666666" points="1921.5,-239 1795.5,-239 1795.5,-220 1921.5,-220 1921.5,-239"/>
<text text-anchor="middle" x="1858.5" y="-227" font-family="Helvetica,sans-Serif" font-size="10.00">squid/src/comm/Tcp.cc</text>
</a>
</g>
</g>
<!-- Node2 -->
<g id="Node000002" class="node">
<title>Node2</title>
<g id="a_Node000002"><a xlink:href="squid_8h.html" target="_top" xlink:title=" ">
<polygon fill="white" stroke="#666666" points="1667.5,-184 1615.5,-184 1615.5,-165 1667.5,-165 1667.5,-184"/>
<text text-anchor="middle" x="1641.5" y="-172" font-family="Helvetica,sans-Serif" font-size="10.00">squid.h</text>
</a>
</g>
</g>
<!-- Node1&#45;&gt;Node2 -->
<g id="edge1_Node000001_Node000002" class="edge">
<title>Node1&#45;&gt;Node2</title>
<g id="a_edge1_Node000001_Node000002"><a xlink:title=" ">
<path fill="none" stroke="#63b8ff" d="M1823.64,-219.98C1783.54,-210.19 1718.05,-194.2 1677.49,-184.29"/>
<polygon fill="#63b8ff" stroke="#63b8ff" points="1678.29,-180.88 1667.75,-181.91 1676.63,-187.68 1678.29,-180.88"/>
</a>
</g>
</g>
<!-- Node44 -->
<g id="Node000044" class="node">
<title>Node44</title>
<g id="a_Node000044"><a xlink:href="Tcp_8h.html" target="_top" xlink:title=" ">
<polygon fill="white" stroke="#666666" points="1792,-184 1717,-184 1717,-165 1792,-165 1792,-184"/>
<text text-anchor="middle" x="1754.5" y="-172" font-family="Helvetica,sans-Serif" font-size="10.00">comm/Tcp.h</text>
</a>
</g>
</g>
<!-- Node1&#45;&gt;Node44 -->
<g id="edge40_Node000001_Node000044" class="edge">
<title>Node1&#45;&gt;Node44</title>
<g id="a_edge40_Node000001_Node000044"><a xlink:title=" ">
<path fill="none" stroke="#63b8ff" d="M1841.79,-219.98C1825.29,-211.57 1799.8,-198.59 1780.62,-188.81"/>
<polygon fill="#63b8ff" stroke="#63b8ff" points="1782.01,-185.59 1771.51,-184.17 1778.83,-191.83 1782.01,-185.59"/>
</a>
</g>
</g>
<!-- Node45 -->
<g id="Node000045" class="node">
<title>Node45</title>
<g id="a_Node000045"><a xlink:href="socket_8h.html" target="_top" xlink:title=" ">
<polygon fill="white" stroke="#666666" points="1907,-184 1810,-184 1810,-165 1907,-165 1907,-184"/>
<text text-anchor="middle" x="1858.5" y="-172" font-family="Helvetica,sans-Serif" font-size="10.00">compat/socket.h</text>
</a>
</g>
</g>
<!-- Node1&#45;&gt;Node45 -->
<g id="edge41_Node000001_Node000045" class="edge">
<title>Node1&#45;&gt;Node45</title>
<g id="a_edge41_Node000001_Node000045"><a xlink:title=" ">
<path fill="none" stroke="#63b8ff" d="M1858.5,-219.75C1858.5,-212.8 1858.5,-202.85 1858.5,-194.13"/>
<polygon fill="#63b8ff" stroke="#63b8ff" points="1862,-194.09 1858.5,-184.09 1855,-194.09 1862,-194.09"/>
</a>
</g>
</g>
<!-- Node46 -->
<g id="Node000046" class="node">
<title>Node46</title>
<g id="a_Node000046"><a xlink:href="debug_2Stream_8h.html" target="_top" xlink:title=" ">
<polygon fill="white" stroke="#666666" points="2019.5,-184 1925.5,-184 1925.5,-165 2019.5,-165 2019.5,-184"/>
<text text-anchor="middle" x="1972.5" y="-172" font-family="Helvetica,sans-Serif" font-size="10.00">debug/Stream.h</text>
</a>
</g>
</g>
<!-- Node1&#45;&gt;Node46 -->
<g id="edge42_Node000001_Node000046" class="edge">
<title>Node1&#45;&gt;Node46</title>
<g id="a_edge42_Node000001_Node000046"><a xlink:title=" ">
<path fill="none" stroke="#63b8ff" d="M1876.82,-219.98C1895.16,-211.46 1923.61,-198.23 1944.73,-188.41"/>
<polygon fill="#63b8ff" stroke="#63b8ff" points="1946.26,-191.56 1953.85,-184.17 1943.31,-185.21 1946.26,-191.56"/>
</a>
</g>
</g>
<!-- Node53 -->
<g id="Node000053" class="node">
<title>Node53</title>
<g id="a_Node000053"><a xlink:title=" ">
<polygon fill="#e0e0e0" stroke="#999999" points="2107,-184 2038,-184 2038,-165 2107,-165 2107,-184"/>
<text text-anchor="middle" x="2072.5" y="-172" font-family="Helvetica,sans-Serif" font-size="10.00">type_traits</text>
</a>
</g>
</g>
<!-- Node1&#45;&gt;Node53 -->
<g id="edge49_Node000001_Node000053" class="edge">
<title>Node1&#45;&gt;Node53</title>
<g id="a_edge49_Node000001_Node000053"><a xlink:title=" ">
<path fill="none" stroke="#63b8ff" d="M1892.88,-219.98C1929.59,-210.89 1987.88,-196.46 2028.05,-186.51"/>
<polygon fill="#63b8ff" stroke="#63b8ff" points="2028.98,-189.88 2037.85,-184.08 2027.3,-183.09 2028.98,-189.88"/>
</a>
</g>
</g>
<!-- Node3 -->
<g id="Node000003" class="node">
<title>Node3</title>
<g id="a_Node000003"><a xlink:href="autoconf_8h.html" target="_top" xlink:title=" ">
<polygon fill="white" stroke="#666666" points="1527.5,-129 1459.5,-129 1459.5,-110 1527.5,-110 1527.5,-129"/>
<text text-anchor="middle" x="1493.5" y="-117" font-family="Helvetica,sans-Serif" font-size="10.00">autoconf.h</text>
</a>
</g>
</g>
<!-- Node2&#45;&gt;Node3 -->
<g id="edge2_Node000002_Node000003" class="edge">
<title>Node2&#45;&gt;Node3</title>
<g id="a_edge2_Node000002_Node000003"><a xlink:title=" ">
<path fill="none" stroke="#63b8ff" d="M1617.72,-164.98C1593.27,-156.23 1554.97,-142.51 1527.35,-132.62"/>
<polygon fill="#63b8ff" stroke="#63b8ff" points="1528.31,-129.25 1517.71,-129.17 1525.95,-135.84 1528.31,-129.25"/>
</a>
</g>
</g>
<!-- Node4 -->
<g id="Node000004" class="node">
<title>Node4</title>
<g id="a_Node000004"><a xlink:href="version_8h.html" target="_top" xlink:title=" ">
<polygon fill="white" stroke="#666666" points="1607.5,-129 1545.5,-129 1545.5,-110 1607.5,-110 1607.5,-129"/>
<text text-anchor="middle" x="1576.5" y="-117" font-family="Helvetica,sans-Serif" font-size="10.00">version.h</text>
</a>
</g>
</g>
<!-- Node2&#45;&gt;Node4 -->
<g id="edge3_Node000002_Node000004" class="edge">
<title>Node2&#45;&gt;Node4</title>
<g id="a_edge3_Node000002_Node000004"><a xlink:title=" ">
<path fill="none" stroke="#63b8ff" d="M1631.06,-164.98C1621.35,-157.07 1606.68,-145.11 1595,-135.58"/>
<polygon fill="#63b8ff" stroke="#63b8ff" points="1597.1,-132.78 1587.13,-129.17 1592.67,-138.2 1597.1,-132.78"/>
</a>
</g>
</g>
<!-- Node5 -->
<g id="Node000005" class="node">
<title>Node5</title>
<g id="a_Node000005"><a xlink:href="compat_8h.html" target="_top" xlink:title=" ">
<polygon fill="white" stroke="#666666" points="1727.5,-129 1625.5,-129 1625.5,-110 1727.5,-110 1727.5,-129"/>
<text text-anchor="middle" x="1676.5" y="-117" font-family="Helvetica,sans-Serif" font-size="10.00">compat/compat.h</text>
</a>
</g>
</g>
<!-- Node2&#45;&gt;Node5 -->
<g id="edge4_Node000002_Node000005" class="edge">
<title>Node2&#45;&gt;Node5</title>
<g id="a_edge4_Node000002_Node000005"><a xlink:title=" ">
<path fill="none" stroke="#63b8ff" d="M1647.28,-164.75C1652.12,-157.42 1659.18,-146.73 1665.14,-137.7"/>
<polygon fill="#63b8ff" stroke="#63b8ff" points="1668.24,-139.36 1670.83,-129.09 1662.4,-135.5 1668.24,-139.36"/>
</a>
</g>
</g>
<!-- Node6 -->
<g id="Node000006" class="node">
<title>Node6</title>
<g id="a_Node000006"><a xlink:href="osdetect_8h.html" target="_top" xlink:title=" ">
<polygon fill="white" stroke="#666666" points="107,-74 0,-74 0,-55 107,-55 107,-74"/>
<text text-anchor="middle" x="53.5" y="-62" font-family="Helvetica,sans-Serif" font-size="10.00">compat/osdetect.h</text>
</a>
</g>
</g>
<!-- Node5&#45;&gt;Node6 -->
<g id="edge5_Node000005_Node000006" class="edge">
<title>Node5&#45;&gt;Node6</title>
<g id="a_edge5_Node000005_Node000006"><a xlink:title=" ">
<path fill="none" stroke="#63b8ff" d="M1625.48,-110.86C1622.45,-110.53 1619.44,-110.24 1616.5,-110 955.31,-55.42 783.04,-125.93 117.4,-73.95"/>
<polygon fill="#63b8ff" stroke="#63b8ff" points="117.32,-70.43 107.07,-73.14 116.77,-77.41 117.32,-70.43"/>
</a>
</g>
</g>
<!-- Node7 -->
<g id="Node000007" class="node">
<title>Node7</title>
<g id="a_Node000007"><a xlink:href="fdsetsize_8h.html" target="_top" xlink:title=" ">
<polygon fill="white" stroke="#666666" points="235.5,-74 125.5,-74 125.5,-55 235.5,-55 235.5,-74"/>
<text text-anchor="middle" x="180.5" y="-62" font-family="Helvetica,sans-Serif" font-size="10.00">compat/fdsetsize.h</text>
</a>
</g>
</g>
<!-- Node5&#45;&gt;Node7 -->
<g id="edge6_Node000005_Node000007" class="edge">
<title>Node5&#45;&gt;Node7</title>
<g id="a_edge6_Node000005_Node000007"><a xlink:title=" ">
<path fill="none" stroke="#63b8ff" d="M1625.48,-110.87C1622.45,-110.54 1619.44,-110.25 1616.5,-110 1012.05,-59.42 854.35,-121.52 245.97,-74.01"/>
<polygon fill="#63b8ff" stroke="#63b8ff" points="245.86,-70.49 235.62,-73.2 245.31,-77.47 245.86,-70.49"/>
</a>
</g>
</g>
<!-- Node8 -->
<g id="Node000008" class="node">
<title>Node8</title>
<g id="a_Node000008"><a xlink:href="types_8h.html" target="_top" xlink:title=" ">
<polygon fill="white" stroke="#666666" points="345.5,-74 253.5,-74 253.5,-55 345.5,-55 345.5,-74"/>
<text text-anchor="middle" x="299.5" y="-62" font-family="Helvetica,sans-Serif" font-size="10.00">compat/types.h</text>
</a>
</g>
</g>
<!-- Node5&#45;&gt;Node8 -->
<g id="edge7_Node000005_Node000008" class="edge">
<title>Node5&#45;&gt;Node8</title>
<g id="a_edge7_Node000005_Node000008"><a xlink:title=" ">
<path fill="none" stroke="#63b8ff" d="M1625.48,-110.88C1622.45,-110.55 1619.44,-110.25 1616.5,-110 1060.8,-62.86 915.07,-124.19 356.01,-74"/>
<polygon fill="#63b8ff" stroke="#63b8ff" points="355.94,-70.48 345.66,-73.06 355.31,-77.45 355.94,-70.48"/>
</a>
</g>
</g>
<!-- Node10 -->
<g id="Node000010" class="node">
<title>Node10</title>
<g id="a_Node000010"><a xlink:href="aix_8h.html" target="_top" xlink:title=" ">
<polygon fill="white" stroke="#666666" points="459,-74 364,-74 364,-55 459,-55 459,-74"/>
<text text-anchor="middle" x="411.5" y="-62" font-family="Helvetica,sans-Serif" font-size="10.00">compat/os/aix.h</text>
</a>
</g>
</g>
<!-- Node5&#45;&gt;Node10 -->
<g id="edge9_Node000005_Node000010" class="edge">
<title>Node5&#45;&gt;Node10</title>
<g id="a_edge9_Node000005_Node000010"><a xlink:title=" ">
<path fill="none" stroke="#63b8ff" d="M1625.48,-110.89C1622.45,-110.55 1619.43,-110.25 1616.5,-110 1111.27,-66.42 978.66,-119.02 469.23,-73.92"/>
<polygon fill="#63b8ff" stroke="#63b8ff" points="469.31,-70.42 459.04,-73.01 468.68,-77.39 469.31,-70.42"/>
</a>
</g>
</g>
<!-- Node11 -->
<g id="Node000011" class="node">
<title>Node11</title>
<g id="a_Node000011"><a xlink:href="android_8h.html" target="_top" xlink:title=" ">
<polygon fill="white" stroke="#666666" points="593.5,-74 477.5,-74 477.5,-55 593.5,-55 593.5,-74"/>
<text text-anchor="middle" x="535.5" y="-62" font-family="Helvetica,sans-Serif" font-size="10.00">compat/os/android.h</text>
</a>
</g>
</g>
<!-- Node5&#45;&gt;Node11 -->
<g id="edge10_Node000005_Node000011" class="edge">
<title>Node5&#45;&gt;Node11</title>
<g id="a_edge10_Node000005_Node000011"><a xlink:title=" ">
<path fill="none" stroke="#63b8ff" d="M1625.48,-110.9C1622.44,-110.56 1619.43,-110.26 1616.5,-110 1170.59,-70.61 1053.69,-109.83 603.59,-74"/>
<polygon fill="#63b8ff" stroke="#63b8ff" points="603.82,-70.51 593.57,-73.19 603.26,-77.48 603.82,-70.51"/>
</a>
</g>
</g>
<!-- Node12 -->
<g id="Node000012" class="node">
<title>Node12</title>
<g id="a_Node000012"><a xlink:href="dragonfly_8h.html" target="_top" xlink:title=" ">
<polygon fill="white" stroke="#666666" points="735.5,-74 611.5,-74 611.5,-55 735.5,-55 735.5,-74"/>
<text text-anchor="middle" x="673.5" y="-62" font-family="Helvetica,sans-Serif" font-size="10.00">compat/os/dragonfly.h</text>
</a>
</g>
</g>
<!-- Node5&#45;&gt;Node12 -->
<g id="edge11_Node000005_Node000012" class="edge">
<title>Node5&#45;&gt;Node12</title>
<g id="a_edge11_Node000005_Node000012"><a xlink:title=" ">
<path fill="none" stroke="#63b8ff" d="M1625.48,-110.92C1622.44,-110.58 1619.43,-110.27 1616.5,-110 1233.52,-75.05 1132.85,-104.56 745.88,-74.04"/>
<polygon fill="#63b8ff" stroke="#63b8ff" points="746.06,-70.54 735.81,-73.24 745.5,-77.52 746.06,-70.54"/>
</a>
</g>
</g>
<!-- Node13 -->
<g id="Node000013" class="node">
<title>Node13</title>
<g id="a_Node000013"><a xlink:href="freebsd_8h.html" target="_top" xlink:title=" ">
<polygon fill="white" stroke="#666666" points="869.5,-74 753.5,-74 753.5,-55 869.5,-55 869.5,-74"/>
<text text-anchor="middle" x="811.5" y="-62" font-family="Helvetica,sans-Serif" font-size="10.00">compat/os/freebsd.h</text>
</a>
</g>
</g>
<!-- Node5&#45;&gt;Node13 -->
<g id="edge12_Node000005_Node000013" class="edge">
<title>Node5&#45;&gt;Node13</title>
<g id="a_edge12_Node000005_Node000013"><a xlink:title=" ">
<path fill="none" stroke="#63b8ff" d="M1625.47,-110.95C1622.44,-110.6 1619.43,-110.28 1616.5,-110 1292.93,-79.25 1207.38,-102.21 879.83,-74.04"/>
<polygon fill="#63b8ff" stroke="#63b8ff" points="879.84,-70.53 869.58,-73.15 879.23,-77.5 879.84,-70.53"/>
</a>
</g>
</g>
<!-- Node14 -->
<g id="Node000014" class="node">
<title>Node14</title>
<g id="a_Node000014"><a xlink:href="hpux_8h.html" target="_top" xlink:title=" ">
<polygon fill="white" stroke="#666666" points="991.5,-74 887.5,-74 887.5,-55 991.5,-55 991.5,-74"/>
<text text-anchor="middle" x="939.5" y="-62" font-family="Helvetica,sans-Serif" font-size="10.00">compat/os/hpux.h</text>
</a>
</g>
</g>
<!-- Node5&#45;&gt;Node14 -->
<g id="edge13_Node000005_Node000014" class="edge">
<title>Node5&#45;&gt;Node14</title>
<g id="a_edge13_Node000005_Node000014"><a xlink:title=" ">
<path fill="none" stroke="#63b8ff" d="M1625.47,-110.98C1622.44,-110.62 1619.43,-110.29 1616.5,-110 1346.94,-83.08 1275.16,-100.51 1001.93,-74.06"/>
<polygon fill="#63b8ff" stroke="#63b8ff" points="1002,-70.55 991.71,-73.06 1001.32,-77.51 1002,-70.55"/>
</a>
</g>
</g>
<!-- Node15 -->
<g id="Node000015" class="node">
<title>Node15</title>
<g id="a_Node000015"><a xlink:href="linux_8h.html" target="_top" xlink:title=" ">
<polygon fill="white" stroke="#666666" points="1113.5,-74 1009.5,-74 1009.5,-55 1113.5,-55 1113.5,-74"/>
<text text-anchor="middle" x="1061.5" y="-62" font-family="Helvetica,sans-Serif" font-size="10.00">compat/os/linux.h</text>
</a>
</g>
</g>
<!-- Node5&#45;&gt;Node15 -->
<g id="edge14_Node000005_Node000015" class="edge">
<title>Node5&#45;&gt;Node15</title>
<g id="a_edge14_Node000005_Node000015"><a xlink:title=" ">
<path fill="none" stroke="#63b8ff" d="M1625.47,-111.03C1622.44,-110.66 1619.43,-110.31 1616.5,-110 1400.93,-86.9 1343.15,-96.89 1123.94,-74.08"/>
<polygon fill="#63b8ff" stroke="#63b8ff" points="1124.03,-70.57 1113.72,-73.01 1123.29,-77.53 1124.03,-70.57"/>
</a>
</g>
</g>
<!-- Node16 -->
<g id="Node000016" class="node">
<title>Node16</title>
<g id="a_Node000016"><a xlink:href="macosx_8h.html" target="_top" xlink:title=" ">
<polygon fill="white" stroke="#666666" points="1249.5,-74 1131.5,-74 1131.5,-55 1249.5,-55 1249.5,-74"/>
<text text-anchor="middle" x="1190.5" y="-62" font-family="Helvetica,sans-Serif" font-size="10.00">compat/os/macosx.h</text>
</a>
</g>
</g>
<!-- Node5&#45;&gt;Node16 -->
<g id="edge15_Node000005_Node000016" class="edge">
<title>Node5&#45;&gt;Node16</title>
<g id="a_edge15_Node000005_Node000016"><a xlink:title=" ">
<path fill="none" stroke="#63b8ff" d="M1625.46,-111.13C1622.43,-110.73 1619.42,-110.35 1616.5,-110 1461,-91.17 1419.11,-91.88 1259.98,-74.14"/>
<polygon fill="#63b8ff" stroke="#63b8ff" points="1260.16,-70.64 1249.83,-73 1259.38,-77.59 1260.16,-70.64"/>
</a>
</g>
</g>
<!-- Node17 -->
<g id="Node000017" class="node">
<title>Node17</title>
<g id="a_Node000017"><a xlink:href="mingw_8h.html" target="_top" xlink:title=" ">
<polygon fill="white" stroke="#666666" points="1379.5,-74 1267.5,-74 1267.5,-55 1379.5,-55 1379.5,-74"/>
<text text-anchor="middle" x="1323.5" y="-62" font-family="Helvetica,sans-Serif" font-size="10.00">compat/os/mingw.h</text>
</a>
</g>
</g>
<!-- Node5&#45;&gt;Node17 -->
<g id="edge16_Node000005_Node000017" class="edge">
<title>Node5&#45;&gt;Node17</title>
<g id="a_edge16_Node000005_Node000017"><a xlink:title=" ">
<path fill="none" stroke="#63b8ff" d="M1625.17,-110.79C1562.97,-101.45 1458.03,-85.7 1389.77,-75.45"/>
<polygon fill="#63b8ff" stroke="#63b8ff" points="1389.97,-71.94 1379.56,-73.92 1388.93,-78.86 1389.97,-71.94"/>
</a>
</g>
</g>
<!-- Node18 -->
<g id="Node000018" class="node">
<title>Node18</title>
<g id="a_Node000018"><a xlink:href="mswindows_8h.html" target="_top" xlink:title=" ">
<polygon fill="white" stroke="#666666" points="1535,-74 1398,-74 1398,-55 1535,-55 1535,-74"/>
<text text-anchor="middle" x="1466.5" y="-62" font-family="Helvetica,sans-Serif" font-size="10.00">compat/os/mswindows.h</text>
</a>
</g>
</g>
<!-- Node5&#45;&gt;Node18 -->
<g id="edge17_Node000005_Node000018" class="edge">
<title>Node5&#45;&gt;Node18</title>
<g id="a_edge17_Node000005_Node000018"><a xlink:title=" ">
<path fill="none" stroke="#63b8ff" d="M1642.76,-109.98C1606.82,-100.91 1549.78,-86.52 1510.37,-76.57"/>
<polygon fill="#63b8ff" stroke="#63b8ff" points="1511.06,-73.14 1500.5,-74.08 1509.34,-79.92 1511.06,-73.14"/>
</a>
</g>
</g>
<!-- Node19 -->
<g id="Node000019" class="node">
<title>Node19</title>
<g id="a_Node000019"><a xlink:href="netbsd_8h.html" target="_top" xlink:title=" ">
<polygon fill="white" stroke="#666666" points="1666,-74 1553,-74 1553,-55 1666,-55 1666,-74"/>
<text text-anchor="middle" x="1609.5" y="-62" font-family="Helvetica,sans-Serif" font-size="10.00">compat/os/netbsd.h</text>
</a>
</g>
</g>
<!-- Node5&#45;&gt;Node19 -->
<g id="edge18_Node000005_Node000019" class="edge">
<title>Node5&#45;&gt;Node19</title>
<g id="a_edge18_Node000005_Node000019"><a xlink:title=" ">
<path fill="none" stroke="#63b8ff" d="M1665.74,-109.98C1655.73,-102.07 1640.61,-90.11 1628.57,-80.58"/>
<polygon fill="#63b8ff" stroke="#63b8ff" points="1630.47,-77.63 1620.46,-74.17 1626.13,-83.12 1630.47,-77.63"/>
</a>
</g>
</g>
<!-- Node20 -->
<g id="Node000020" class="node">
<title>Node20</title>
<g id="a_Node000020"><a xlink:href="openbsd_8h.html" target="_top" xlink:title=" ">
<polygon fill="white" stroke="#666666" points="1805,-74 1684,-74 1684,-55 1805,-55 1805,-74"/>
<text text-anchor="middle" x="1744.5" y="-62" font-family="Helvetica,sans-Serif" font-size="10.00">compat/os/openbsd.h</text>
</a>
</g>
</g>
<!-- Node5&#45;&gt;Node20 -->
<g id="edge19_Node000005_Node000020" class="edge">
<title>Node5&#45;&gt;Node20</title>
<g id="a_edge19_Node000005_Node000020"><a xlink:title=" ">
<path fill="none" stroke="#63b8ff" d="M1687.43,-109.98C1697.58,-102.07 1712.92,-90.11 1725.15,-80.58"/>
<polygon fill="#63b8ff" stroke="#63b8ff" points="1727.64,-83.08 1733.38,-74.17 1723.34,-77.56 1727.64,-83.08"/>
</a>
</g>
</g>
<!-- Node21 -->
<g id="Node000021" class="node">
<title>Node21</title>
<g id="a_Node000021"><a xlink:href="os2_8h.html" target="_top" xlink:title=" ">
<polygon fill="white" stroke="#666666" points="1920,-74 1823,-74 1823,-55 1920,-55 1920,-74"/>
<text text-anchor="middle" x="1871.5" y="-62" font-family="Helvetica,sans-Serif" font-size="10.00">compat/os/os2.h</text>
</a>
</g>
</g>
<!-- Node5&#45;&gt;Node21 -->
<g id="edge20_Node000005_Node000021" class="edge">
<title>Node5&#45;&gt;Node21</title>
<g id="a_edge20_Node000005_Node000021"><a xlink:title=" ">
<path fill="none" stroke="#63b8ff" d="M1707.83,-109.98C1740.99,-100.97 1793.5,-86.7 1830.06,-76.76"/>
<polygon fill="#63b8ff" stroke="#63b8ff" points="1831.19,-80.08 1839.92,-74.08 1829.36,-73.33 1831.19,-80.08"/>
</a>
</g>
</g>
<!-- Node22 -->
<g id="Node000022" class="node">
<title>Node22</title>
<g id="a_Node000022"><a xlink:href="qnx_8h.html" target="_top" xlink:title=" ">
<polygon fill="white" stroke="#666666" points="2036.5,-74 1938.5,-74 1938.5,-55 2036.5,-55 2036.5,-74"/>
<text text-anchor="middle" x="1987.5" y="-62" font-family="Helvetica,sans-Serif" font-size="10.00">compat/os/qnx.h</text>
</a>
</g>
</g>
<!-- Node5&#45;&gt;Node22 -->
<g id="edge21_Node000005_Node000022" class="edge">
<title>Node5&#45;&gt;Node22</title>
<g id="a_edge21_Node000005_Node000022"><a xlink:title=" ">
<path fill="none" stroke="#63b8ff" d="M1726.47,-109.98C1781.46,-100.61 1869.79,-85.56 1928.24,-75.6"/>
<polygon fill="#63b8ff" stroke="#63b8ff" points="1929.16,-78.99 1938.43,-73.86 1927.98,-72.09 1929.16,-78.99"/>
</a>
</g>
</g>
<!-- Node23 -->
<g id="Node000023" class="node">
<title>Node23</title>
<g id="a_Node000023"><a xlink:href="solaris_8h.html" target="_top" xlink:title=" ">
<polygon fill="white" stroke="#666666" points="2166.5,-74 2054.5,-74 2054.5,-55 2166.5,-55 2166.5,-74"/>
<text text-anchor="middle" x="2110.5" y="-62" font-family="Helvetica,sans-Serif" font-size="10.00">compat/os/solaris.h</text>
</a>
</g>
</g>
<!-- Node5&#45;&gt;Node23 -->
<g id="edge22_Node000005_Node000023" class="edge">
<title>Node5&#45;&gt;Node23</title>
<g id="a_edge22_Node000005_Node000023"><a xlink:title=" ">
<path fill="none" stroke="#63b8ff" d="M1727.56,-112.51C1796.84,-104.34 1924.78,-89.12 2044.42,-74.13"/>
<polygon fill="#63b8ff" stroke="#63b8ff" points="2045,-77.58 2054.48,-72.86 2044.13,-70.63 2045,-77.58"/>
</a>
</g>
</g>
<!-- Node24 -->
<g id="Node000024" class="node">
<title>Node24</title>
<g id="a_Node000024"><a xlink:href="sunos_8h.html" target="_top" xlink:title=" ">
<polygon fill="white" stroke="#666666" points="2292.5,-74 2184.5,-74 2184.5,-55 2292.5,-55 2292.5,-74"/>
<text text-anchor="middle" x="2238.5" y="-62" font-family="Helvetica,sans-Serif" font-size="10.00">compat/os/sunos.h</text>
</a>
</g>
</g>
<!-- Node5&#45;&gt;Node24 -->
<g id="edge23_Node000005_Node000024" class="edge">
<title>Node5&#45;&gt;Node24</title>
<g id="a_edge23_Node000005_Node000024"><a xlink:title=" ">
<path fill="none" stroke="#63b8ff" d="M1727.92,-114.05C1840.15,-104.31 2102.21,-81.47 2174.05,-74.07"/>
<polygon fill="#63b8ff" stroke="#63b8ff" points="2174.65,-77.53 2184.22,-72.98 2173.91,-70.56 2174.65,-77.53"/>
</a>
</g>
</g>
<!-- Node25 -->
<g id="Node000025" class="node">
<title>Node25</title>
<g id="a_Node000025"><a xlink:href="assert_8h.html" target="_top" xlink:title=" ">
<polygon fill="white" stroke="#666666" points="2406,-74 2311,-74 2311,-55 2406,-55 2406,-74"/>
<text text-anchor="middle" x="2358.5" y="-62" font-family="Helvetica,sans-Serif" font-size="10.00">compat/assert.h</text>
</a>
</g>
</g>
<!-- Node5&#45;&gt;Node25 -->
<g id="edge24_Node000005_Node000025" class="edge">
<title>Node5&#45;&gt;Node25</title>
<g id="a_edge24_Node000005_Node000025"><a xlink:title=" ">
<path fill="none" stroke="#63b8ff" d="M1727.61,-113.94C1743,-112.61 1759.93,-111.2 1775.5,-110 2005.82,-92.23 2066.83,-99.1 2300.76,-73.98"/>
<polygon fill="#63b8ff" stroke="#63b8ff" points="2301.39,-77.44 2310.95,-72.88 2300.63,-70.48 2301.39,-77.44"/>
</a>
</g>
</g>
<!-- Node26 -->
<g id="Node000026" class="node">
<title>Node26</title>
<g id="a_Node000026"><a xlink:href="compat__shared_8h.html" target="_top" xlink:title=" ">
<polygon fill="white" stroke="#666666" points="2564.5,-74 2424.5,-74 2424.5,-55 2564.5,-55 2564.5,-74"/>
<text text-anchor="middle" x="2494.5" y="-62" font-family="Helvetica,sans-Serif" font-size="10.00">compat/compat_shared.h</text>
</a>
</g>
</g>
<!-- Node5&#45;&gt;Node26 -->
<g id="edge25_Node000005_Node000026" class="edge">
<title>Node5&#45;&gt;Node26</title>
<g id="a_edge25_Node000005_Node000026"><a xlink:title=" ">
<path fill="none" stroke="#63b8ff" d="M1727.61,-113.82C1742.99,-112.49 1759.93,-111.11 1775.5,-110 2056.35,-90.05 2129.84,-97.08 2414.1,-74.07"/>
<polygon fill="#63b8ff" stroke="#63b8ff" points="2414.62,-77.54 2424.31,-73.24 2414.06,-70.56 2414.62,-77.54"/>
</a>
</g>
</g>
<!-- Node36 -->
<g id="Node000036" class="node">
<title>Node36</title>
<g id="a_Node000036"><a xlink:href="stdvarargs_8h.html" target="_top" xlink:title=" ">
<polygon fill="white" stroke="#666666" points="2700,-74 2583,-74 2583,-55 2700,-55 2700,-74"/>
<text text-anchor="middle" x="2641.5" y="-62" font-family="Helvetica,sans-Serif" font-size="10.00">compat/stdvarargs.h</text>
</a>
</g>
</g>
<!-- Node5&#45;&gt;Node36 -->
<g id="edge34_Node000005_Node000036" class="edge">
<title>Node5&#45;&gt;Node36</title>
<g id="a_edge34_Node000005_Node000036"><a xlink:title=" ">
<path fill="none" stroke="#63b8ff" d="M1727.6,-113.71C1742.99,-112.38 1759.92,-111.02 1775.5,-110 2126.48,-87.03 2218.05,-103.73 2572.89,-73.97"/>
<polygon fill="#63b8ff" stroke="#63b8ff" points="2573.26,-77.45 2582.93,-73.12 2572.67,-70.48 2573.26,-77.45"/>
</a>
</g>
</g>
<!-- Node38 -->
<g id="Node000038" class="node">
<title>Node38</title>
<g id="a_Node000038"><a xlink:href="stdio_8h.html" target="_top" xlink:title=" ">
<polygon fill="#fff0f0" stroke="red" points="2807,-74 2718,-74 2718,-55 2807,-55 2807,-74"/>
<text text-anchor="middle" x="2762.5" y="-62" font-family="Helvetica,sans-Serif" font-size="10.00">compat/stdio.h</text>
</a>
</g>
</g>
<!-- Node5&#45;&gt;Node38 -->
<g id="edge36_Node000005_Node000038" class="edge">
<title>Node5&#45;&gt;Node38</title>
<g id="a_edge36_Node000005_Node000038"><a xlink:title=" ">
<path fill="none" stroke="#63b8ff" d="M1727.59,-113.65C1742.98,-112.31 1759.92,-110.97 1775.5,-110 2186.78,-84.43 2294.38,-114.47 2707.6,-74.07"/>
<polygon fill="#63b8ff" stroke="#63b8ff" points="2708.12,-77.53 2717.73,-73.07 2707.43,-70.57 2708.12,-77.53"/>
</a>
</g>
</g>
<!-- Node40 -->
<g id="Node000040" class="node">
<title>Node40</title>
<g id="a_Node000040"><a xlink:href="statvfs_8h.html" target="_top" xlink:title=" ">
<polygon fill="white" stroke="#666666" points="2924,-74 2825,-74 2825,-55 2924,-55 2924,-74"/>
<text text-anchor="middle" x="2874.5" y="-62" font-family="Helvetica,sans-Serif" font-size="10.00">compat/statvfs.h</text>
</a>
</g>
</g>
<!-- Node5&#45;&gt;Node40 -->
<g id="edge37_Node000005_Node000040" class="edge">
<title>Node5&#45;&gt;Node40</title>
<g id="a_edge37_Node000005_Node000040"><a xlink:title=" ">
<path fill="none" stroke="#63b8ff" d="M1727.59,-113.61C1742.98,-112.27 1759.92,-110.94 1775.5,-110 2234.22,-82.39 2353.69,-115.14 2814.61,-74.06"/>
<polygon fill="#63b8ff" stroke="#63b8ff" points="2815.22,-77.52 2824.87,-73.14 2814.6,-70.55 2815.22,-77.52"/>
</a>
</g>
</g>
<!-- Node41 -->
<g id="Node000041" class="node">
<title>Node41</title>
<g id="a_Node000041"><a xlink:href="debug_8h.html" target="_top" xlink:title=" ">
<polygon fill="white" stroke="#666666" points="3037,-74 2942,-74 2942,-55 3037,-55 3037,-74"/>
<text text-anchor="middle" x="2989.5" y="-62" font-family="Helvetica,sans-Serif" font-size="10.00">compat/debug.h</text>
</a>
</g>
</g>
<!-- Node5&#45;&gt;Node41 -->
<g id="edge38_Node000005_Node000041" class="edge">
<title>Node5&#45;&gt;Node41</title>
<g id="a_edge38_Node000005_Node000041"><a xlink:title=" ">
<path fill="none" stroke="#63b8ff" d="M1727.59,-113.58C1742.98,-112.24 1759.91,-110.91 1775.5,-110 2286.15,-80.16 2418.96,-120.19 2931.63,-74.05"/>
<polygon fill="#63b8ff" stroke="#63b8ff" points="2932.25,-77.51 2941.89,-73.12 2931.61,-70.54 2932.25,-77.51"/>
</a>
</g>
</g>
<!-- Node42 -->
<g id="Node000042" class="node">
<title>Node42</title>
<g id="a_Node000042"><a xlink:href="valgrind_8h.html" target="_top" xlink:title=" ">
<polygon fill="#fff0f0" stroke="red" points="3160,-74 3055,-74 3055,-55 3160,-55 3160,-74"/>
<text text-anchor="middle" x="3107.5" y="-62" font-family="Helvetica,sans-Serif" font-size="10.00">compat/valgrind.h</text>
</a>
</g>
</g>
<!-- Node5&#45;&gt;Node42 -->
<g id="edge39_Node000005_Node000042" class="edge">
<title>Node5&#45;&gt;Node42</title>
<g id="a_edge39_Node000005_Node000042"><a xlink:title=" ">
<path fill="none" stroke="#63b8ff" d="M1727.59,-113.55C1742.97,-112.21 1759.91,-110.89 1775.5,-110 2336.39,-78 2481.65,-120.56 3044.96,-74.03"/>
<polygon fill="#63b8ff" stroke="#63b8ff" points="3045.29,-77.51 3054.97,-73.19 3044.71,-70.54 3045.29,-77.51"/>
</a>
</g>
</g>
<!-- Node9 -->
<g id="Node000009" class="node">
<title>Node9</title>
<g id="a_Node000009"><a xlink:title=" ">
<polygon fill="#e0e0e0" stroke="#999999" points="324.5,-19 274.5,-19 274.5,0 324.5,0 324.5,-19"/>
<text text-anchor="middle" x="299.5" y="-7" font-family="Helvetica,sans-Serif" font-size="10.00">cstdint</text>
</a>
</g>
</g>
<!-- Node8&#45;&gt;Node9 -->
<g id="edge8_Node000008_Node000009" class="edge">
<title>Node8&#45;&gt;Node9</title>
<g id="a_edge8_Node000008_Node000009"><a xlink:title=" ">
<path fill="none" stroke="#63b8ff" d="M299.5,-54.75C299.5,-47.8 299.5,-37.85 299.5,-29.13"/>
<polygon fill="#63b8ff" stroke="#63b8ff" points="303,-29.09 299.5,-19.09 296,-29.09 303,-29.09"/>
</a>
</g>
</g>
<!-- Node27 -->
<g id="Node000027" class="node">
<title>Node27</title>
<g id="a_Node000027"><a xlink:title=" ">
<polygon fill="#e0e0e0" stroke="#999999" points="2090,-19 2039,-19 2039,0 2090,0 2090,-19"/>
<text text-anchor="middle" x="2064.5" y="-7" font-family="Helvetica,sans-Serif" font-size="10.00">csignal</text>
</a>
</g>
</g>
<!-- Node26&#45;&gt;Node27 -->
<g id="edge26_Node000026_Node000027" class="edge">
<title>Node26&#45;&gt;Node27</title>
<g id="a_edge26_Node000026_Node000027"><a xlink:title=" ">
<path fill="none" stroke="#63b8ff" d="M2424.27,-55.82C2324.21,-44.85 2148.16,-25.42 2099.92,-18.63"/>
<polygon fill="#63b8ff" stroke="#63b8ff" points="2100.45,-15.17 2090.04,-17.1 2099.38,-22.09 2100.45,-15.17"/>
</a>
</g>
</g>
<!-- Node28 -->
<g id="Node000028" class="node">
<title>Node28</title>
<g id="a_Node000028"><a xlink:href="xalloc_8h.html" target="_top" xlink:title=" ">
<polygon fill="white" stroke="#666666" points="2203,-19 2108,-19 2108,0 2203,0 2203,-19"/>
<text text-anchor="middle" x="2155.5" y="-7" font-family="Helvetica,sans-Serif" font-size="10.00">compat/xalloc.h</text>
</a>
</g>
</g>
<!-- Node26&#45;&gt;Node28 -->
<g id="edge27_Node000026_Node000028" class="edge">
<title>Node26&#45;&gt;Node28</title>
<g id="a_edge27_Node000026_Node000028"><a xlink:title=" ">
<path fill="none" stroke="#63b8ff" d="M2440.03,-54.98C2377.98,-45.28 2276.98,-29.49 2213.5,-19.57"/>
<polygon fill="#63b8ff" stroke="#63b8ff" points="2213.68,-16.05 2203.26,-17.97 2212.6,-22.97 2213.68,-16.05"/>
</a>
</g>
</g>
<!-- Node29 -->
<g id="Node000029" class="node">
<title>Node29</title>
<g id="a_Node000029"><a xlink:href="xis_8h.html" target="_top" xlink:title=" ">
<polygon fill="#fff0f0" stroke="red" points="2301.5,-19 2221.5,-19 2221.5,0 2301.5,0 2301.5,-19"/>
<text text-anchor="middle" x="2261.5" y="-7" font-family="Helvetica,sans-Serif" font-size="10.00">compat/xis.h</text>
</a>
</g>
</g>
<!-- Node26&#45;&gt;Node29 -->
<g id="edge28_Node000026_Node000029" class="edge">
<title>Node26&#45;&gt;Node29</title>
<g id="a_edge28_Node000026_Node000029"><a xlink:title=" ">
<path fill="none" stroke="#63b8ff" d="M2457.06,-54.98C2416.85,-45.84 2352.82,-31.27 2309.06,-21.32"/>
<polygon fill="#63b8ff" stroke="#63b8ff" points="2309.76,-17.89 2299.23,-19.08 2308.2,-24.71 2309.76,-17.89"/>
</a>
</g>
</g>
<!-- Node31 -->
<g id="Node000031" class="node">
<title>Node31</title>
<g id="a_Node000031"><a xlink:href="xstrerror_8h.html" target="_top" xlink:title=" ">
<polygon fill="white" stroke="#666666" points="2427,-19 2320,-19 2320,0 2427,0 2427,-19"/>
<text text-anchor="middle" x="2373.5" y="-7" font-family="Helvetica,sans-Serif" font-size="10.00">compat/xstrerror.h</text>
</a>
</g>
</g>
<!-- Node26&#45;&gt;Node31 -->
<g id="edge29_Node000026_Node000031" class="edge">
<title>Node26&#45;&gt;Node31</title>
<g id="a_edge29_Node000026_Node000031"><a xlink:title=" ">
<path fill="none" stroke="#63b8ff" d="M2475.06,-54.98C2455.51,-46.42 2425.12,-33.11 2402.68,-23.28"/>
<polygon fill="#63b8ff" stroke="#63b8ff" points="2403.86,-19.98 2393.29,-19.17 2401.05,-26.39 2403.86,-19.98"/>
</a>
</g>
</g>
<!-- Node32 -->
<g id="Node000032" class="node">
<title>Node32</title>
<g id="a_Node000032"><a xlink:href="xstring_8h.html" target="_top" xlink:title=" ">
<polygon fill="white" stroke="#666666" points="2544,-19 2445,-19 2445,0 2544,0 2544,-19"/>
<text text-anchor="middle" x="2494.5" y="-7" font-family="Helvetica,sans-Serif" font-size="10.00">compat/xstring.h</text>
</a>
</g>
</g>
<!-- Node26&#45;&gt;Node32 -->
<g id="edge30_Node000026_Node000032" class="edge">
<title>Node26&#45;&gt;Node32</title>
<g id="a_edge30_Node000026_Node000032"><a xlink:title=" ">
<path fill="none" stroke="#63b8ff" d="M2494.5,-54.75C2494.5,-47.8 2494.5,-37.85 2494.5,-29.13"/>
<polygon fill="#63b8ff" stroke="#63b8ff" points="2498,-29.09 2494.5,-19.09 2491,-29.09 2498,-29.09"/>
</a>
</g>
</g>
<!-- Node33 -->
<g id="Node000033" class="node">
<title>Node33</title>
<g id="a_Node000033"><a xlink:href="xstrto_8h.html" target="_top" xlink:title=" ">
<polygon fill="white" stroke="#666666" points="2656.5,-19 2562.5,-19 2562.5,0 2656.5,0 2656.5,-19"/>
<text text-anchor="middle" x="2609.5" y="-7" font-family="Helvetica,sans-Serif" font-size="10.00">compat/xstrto.h</text>
</a>
</g>
</g>
<!-- Node26&#45;&gt;Node33 -->
<g id="edge31_Node000026_Node000033" class="edge">
<title>Node26&#45;&gt;Node33</title>
<g id="a_edge31_Node000026_Node000033"><a xlink:title=" ">
<path fill="none" stroke="#63b8ff" d="M2512.98,-54.98C2531.48,-46.46 2560.18,-33.23 2581.48,-23.41"/>
<polygon fill="#63b8ff" stroke="#63b8ff" points="2583.07,-26.53 2590.69,-19.17 2580.14,-20.18 2583.07,-26.53"/>
</a>
</g>
</g>
<!-- Node34 -->
<g id="Node000034" class="node">
<title>Node34</title>
<g id="a_Node000034"><a xlink:href="strtoll_8h.html" target="_top" xlink:title=" ">
<polygon fill="white" stroke="#666666" points="2768.5,-19 2674.5,-19 2674.5,0 2768.5,0 2768.5,-19"/>
<text text-anchor="middle" x="2721.5" y="-7" font-family="Helvetica,sans-Serif" font-size="10.00">compat/strtoll.h</text>
</a>
</g>
</g>
<!-- Node26&#45;&gt;Node34 -->
<g id="edge32_Node000026_Node000034" class="edge">
<title>Node26&#45;&gt;Node34</title>
<g id="a_edge32_Node000026_Node000034"><a xlink:title=" ">
<path fill="none" stroke="#63b8ff" d="M2530.97,-54.98C2570.07,-45.86 2632.27,-31.33 2674.89,-21.38"/>
<polygon fill="#63b8ff" stroke="#63b8ff" points="2675.8,-24.76 2684.74,-19.08 2674.21,-17.95 2675.8,-24.76"/>
</a>
</g>
</g>
<!-- Node35 -->
<g id="Node000035" class="node">
<title>Node35</title>
<g id="a_Node000035"><a xlink:href="memrchr_8h.html" target="_top" xlink:title=" ">
<polygon fill="white" stroke="#666666" points="2896,-19 2787,-19 2787,0 2896,0 2896,-19"/>
<text text-anchor="middle" x="2841.5" y="-7" font-family="Helvetica,sans-Serif" font-size="10.00">compat/memrchr.h</text>
</a>
</g>
</g>
<!-- Node26&#45;&gt;Node35 -->
<g id="edge33_Node000026_Node000035" class="edge">
<title>Node26&#45;&gt;Node35</title>
<g id="a_edge33_Node000026_Node000035"><a xlink:title=" ">
<path fill="none" stroke="#63b8ff" d="M2550.25,-54.98C2611.99,-45.55 2711.39,-30.37 2776.59,-20.41"/>
<polygon fill="#63b8ff" stroke="#63b8ff" points="2777.39,-23.83 2786.75,-18.86 2776.33,-16.91 2777.39,-23.83"/>
</a>
</g>
</g>
<!-- Node37 -->
<g id="Node000037" class="node">
<title>Node37</title>
<g id="a_Node000037"><a xlink:title=" ">
<polygon fill="#e0e0e0" stroke="#999999" points="2967,-19 2914,-19 2914,0 2967,0 2967,-19"/>
<text text-anchor="middle" x="2940.5" y="-7" font-family="Helvetica,sans-Serif" font-size="10.00">cstdarg</text>
</a>
</g>
</g>
<!-- Node36&#45;&gt;Node37 -->
<g id="edge35_Node000036_Node000037" class="edge">
<title>Node36&#45;&gt;Node37</title>
<g id="a_edge35_Node000036_Node000037"><a xlink:title=" ">
<path fill="none" stroke="#63b8ff" d="M2699.14,-55C2750.47,-47.15 2827.82,-34.65 2903.6,-19.28"/>
<polygon fill="#63b8ff" stroke="#63b8ff" points="2904.7,-22.63 2913.79,-17.19 2903.29,-15.77 2904.7,-22.63"/>
</a>
</g>
</g>
<!-- Node47 -->
<g id="Node000047" class="node">
<title>Node47</title>
<g id="a_Node000047"><a xlink:href="Here_8h.html" target="_top" xlink:title=" ">
<polygon fill="white" stroke="#666666" points="1859,-129 1784,-129 1784,-110 1859,-110 1859,-129"/>
<text text-anchor="middle" x="1821.5" y="-117" font-family="Helvetica,sans-Serif" font-size="10.00">base/Here.h</text>
</a>
</g>
</g>
<!-- Node46&#45;&gt;Node47 -->
<g id="edge43_Node000046_Node000047" class="edge">
<title>Node46&#45;&gt;Node47</title>
<g id="a_edge43_Node000046_Node000047"><a xlink:title=" ">
<path fill="none" stroke="#63b8ff" d="M1948.24,-164.98C1923.18,-156.19 1883.87,-142.39 1855.67,-132.49"/>
<polygon fill="#63b8ff" stroke="#63b8ff" points="1856.8,-129.18 1846.2,-129.17 1854.48,-135.78 1856.8,-129.18"/>
</a>
</g>
</g>
<!-- Node49 -->
<g id="Node000049" class="node">
<title>Node49</title>
<g id="a_Node000049"><a xlink:href="AllocatorProxy_8h.html" target="_top" xlink:title=" ">
<polygon fill="white" stroke="#666666" points="2000.5,-129 1876.5,-129 1876.5,-110 2000.5,-110 2000.5,-129"/>
<text text-anchor="middle" x="1938.5" y="-117" font-family="Helvetica,sans-Serif" font-size="10.00">mem/AllocatorProxy.h</text>
</a>
</g>
</g>
<!-- Node46&#45;&gt;Node49 -->
<g id="edge45_Node000046_Node000049" class="edge">
<title>Node46&#45;&gt;Node49</title>
<g id="a_edge45_Node000046_Node000049"><a xlink:title=" ">
<path fill="none" stroke="#63b8ff" d="M1966.89,-164.75C1962.18,-157.42 1955.33,-146.73 1949.53,-137.7"/>
<polygon fill="#63b8ff" stroke="#63b8ff" points="1952.36,-135.62 1944.01,-129.09 1946.46,-139.4 1952.36,-135.62"/>
</a>
</g>
</g>
<!-- Node50 -->
<g id="Node000050" class="node">
<title>Node50</title>
<g id="a_Node000050"><a xlink:title=" ">
<polygon fill="#e0e0e0" stroke="#999999" points="2078.5,-129 2018.5,-129 2018.5,-110 2078.5,-110 2078.5,-129"/>
<text text-anchor="middle" x="2048.5" y="-117" font-family="Helvetica,sans-Serif" font-size="10.00">iostream</text>
</a>
</g>
</g>
<!-- Node46&#45;&gt;Node50 -->
<g id="edge46_Node000046_Node000050" class="edge">
<title>Node46&#45;&gt;Node50</title>
<g id="a_edge46_Node000046_Node000050"><a xlink:title=" ">
<path fill="none" stroke="#63b8ff" d="M1984.71,-164.98C1996.28,-156.92 2013.88,-144.65 2027.66,-135.03"/>
<polygon fill="#63b8ff" stroke="#63b8ff" points="2029.87,-137.76 2036.07,-129.17 2025.86,-132.02 2029.87,-137.76"/>
</a>
</g>
</g>
<!-- Node51 -->
<g id="Node000051" class="node">
<title>Node51</title>
<g id="a_Node000051"><a xlink:title=" ">
<polygon fill="#e0e0e0" stroke="#999999" points="2152.5,-129 2096.5,-129 2096.5,-110 2152.5,-110 2152.5,-129"/>
<text text-anchor="middle" x="2124.5" y="-117" font-family="Helvetica,sans-Serif" font-size="10.00">sstream</text>
</a>
</g>
</g>
<!-- Node46&#45;&gt;Node51 -->
<g id="edge47_Node000046_Node000051" class="edge">
<title>Node46&#45;&gt;Node51</title>
<g id="a_edge47_Node000046_Node000051"><a xlink:title=" ">
<path fill="none" stroke="#63b8ff" d="M1996.92,-164.98C2022.22,-156.16 2061.95,-142.31 2090.36,-132.41"/>
<polygon fill="#63b8ff" stroke="#63b8ff" points="2091.6,-135.68 2099.89,-129.08 2089.29,-129.07 2091.6,-135.68"/>
</a>
</g>
</g>
<!-- Node52 -->
<g id="Node000052" class="node">
<title>Node52</title>
<g id="a_Node000052"><a xlink:title=" ">
<polygon fill="#e0e0e0" stroke="#999999" points="2226.5,-129 2170.5,-129 2170.5,-110 2226.5,-110 2226.5,-129"/>
<text text-anchor="middle" x="2198.5" y="-117" font-family="Helvetica,sans-Serif" font-size="10.00">iomanip</text>
</a>
</g>
</g>
<!-- Node46&#45;&gt;Node52 -->
<g id="edge48_Node000046_Node000052" class="edge">
<title>Node46&#45;&gt;Node52</title>
<g id="a_edge48_Node000046_Node000052"><a xlink:title=" ">
<path fill="none" stroke="#63b8ff" d="M2008.81,-164.98C2050.42,-155.23 2118.31,-139.31 2160.58,-129.39"/>
<polygon fill="#63b8ff" stroke="#63b8ff" points="2161.55,-132.76 2170.49,-127.07 2159.95,-125.94 2161.55,-132.76"/>
</a>
</g>
</g>
<!-- Node48 -->
<g id="Node000048" class="node">
<title>Node48</title>
<g id="a_Node000048"><a xlink:title=" ">
<polygon fill="#e0e0e0" stroke="#999999" points="3226.5,-74 3178.5,-74 3178.5,-55 3226.5,-55 3226.5,-74"/>
<text text-anchor="middle" x="3202.5" y="-62" font-family="Helvetica,sans-Serif" font-size="10.00">iosfwd</text>
</a>
</g>
</g>
<!-- Node47&#45;&gt;Node48 -->
<g id="edge44_Node000047_Node000048" class="edge">
<title>Node47&#45;&gt;Node48</title>
<g id="a_edge44_Node000047_Node000048"><a xlink:title=" ">
<path fill="none" stroke="#63b8ff" d="M1859.09,-111.06C1861.93,-110.65 1864.75,-110.29 1867.5,-110 2439.82,-49.58 2594.46,-153.47 3168.28,-73.78"/>
<polygon fill="#63b8ff" stroke="#63b8ff" points="3169.06,-77.21 3178.47,-72.35 3168.09,-70.27 3169.06,-77.21"/>
</a>
</g>
</g>
</g>
</svg>
