<?xml version="1.0" encoding="UTF-8" standalone="no"?>
<!DOCTYPE svg PUBLIC "-//W3C//DTD SVG 1.1//EN"
 "http://www.w3.org/Graphics/SVG/1.1/DTD/svg11.dtd">
<!-- Generated by graphviz version 2.43.0 (0)
 -->
<!-- Title: squid/src/tests/testMath.cc Pages: 1 -->
<!--zoomable 258 -->

<svg id="main" version="1.1" xmlns="http://www.w3.org/2000/svg" xmlns:xlink="http://www.w3.org/1999/xlink" xml:space="preserve" onload="init(evt)">
<style type="text/css"><![CDATA[
.node, .edge {opacity: 0.7;}
.node.selected, .edge.selected {opacity: 1;}
.edge:hover path { stroke: red; }
.edge:hover polygon { stroke: red; fill: red; }
]]></style>

<defs>
  <circle id="rim" cx="0" cy="0" r="7"/>
  <circle id="rim2" cx="0" cy="0" r="3.5"/>
  <g id="zoomPlus">
    <use xlink:href="#rim" fill="#404040"><set attributeName="fill" to="#808080" begin="zoomplus.mouseover" end="zoomplus.mouseout"/></use>
    <path d="M-4,0h8M0,-4v8" fill="none" stroke="white" stroke-width="1.5" pointer-events="none"/>
  </g>
  <g id="zoomMin">
    <use xlink:href="#rim" fill="#404040"><set attributeName="fill" to="#808080" begin="zoomminus.mouseover" end="zoomminus.mouseout"/></use>
    <path d="M-4,0h8" fill="none" stroke="white" stroke-width="1.5" pointer-events="none"/>
  </g>
  <g id="arrowUp" transform="translate(30 24)">
    <use xlink:href="#rim"/>
    <path pointer-events="none" fill="none" stroke="white" stroke-width="1.5" d="M0,-3.0v7 M-2.5,-0.5L0,-3.0L2.5,-0.5"/>
  </g>
  <g id="arrowRight" transform="rotate(90) translate(36 -43)">
    <use xlink:href="#rim"/>
    <path pointer-events="none" fill="none" stroke="white" stroke-width="1.5" d="M0,-3.0v7 M-2.5,-0.5L0,-3.0L2.5,-0.5"/>
  </g>
  <g id="arrowDown" transform="rotate(180) translate(-30 -48)">
    <use xlink:href="#rim"/>
    <path pointer-events="none" fill="none" stroke="white" stroke-width="1.5" d="M0,-3.0v7 M-2.5,-0.5L0,-3.0L2.5,-0.5"/>
  </g>
  <g id="arrowLeft" transform="rotate(270) translate(-36 17)">
    <use xlink:href="#rim"/>
    <path pointer-events="none" fill="none" stroke="white" stroke-width="1.5" d="M0,-3.0v7 M-2.5,-0.5L0,-3.0L2.5,-0.5"/>
  </g>
  <g id="resetDef">
    <use xlink:href="#rim2" fill="#404040"><set attributeName="fill" to="#808080" begin="reset.mouseover" end="reset.mouseout"/></use>
  </g>
</defs>
<script type="application/ecmascript">
var viewWidth = 3860;
var viewHeight = 258;
var sectionId = 'dynsection-0';
</script>
<script type="application/ecmascript" xlink:href="svg.min.js"/>
<svg id="graph" class="graph">
<g id="viewport">
<title>squid/src/tests/testMath.cc</title>
<!-- Node1 -->
<g id="Node000001" class="node">
<title>Node1</title>
<g id="a_Node000001"><a xlink:title=" ">
<polygon fill="#999999" stroke="#666666" points="2656,-250 2509,-250 2509,-231 2656,-231 2656,-250"/>
<text text-anchor="middle" x="2582.5" y="-238" font-family="Helvetica,sans-Serif" font-size="10.00">squid/src/tests/testMath.cc</text>
</a>
</g>
</g>
<!-- Node2 -->
<g id="Node000002" class="node">
<title>Node2</title>
<g id="a_Node000002"><a xlink:href="squid_8h.html" target="_top" xlink:title=" ">
<polygon fill="white" stroke="#666666" points="1652.5,-195 1600.5,-195 1600.5,-176 1652.5,-176 1652.5,-195"/>
<text text-anchor="middle" x="1626.5" y="-183" font-family="Helvetica,sans-Serif" font-size="10.00">squid.h</text>
</a>
</g>
</g>
<!-- Node1&#45;&gt;Node2 -->
<g id="edge1_Node000001_Node000002" class="edge">
<title>Node1&#45;&gt;Node2</title>
<g id="a_edge1_Node000001_Node000002"><a xlink:title=" ">
<path fill="none" stroke="#63b8ff" d="M2508.68,-235.41C2316.17,-224.73 1804.02,-196.34 1662.93,-188.52"/>
<polygon fill="#63b8ff" stroke="#63b8ff" points="1662.85,-185.01 1652.67,-187.95 1662.46,-192 1662.85,-185.01"/>
</a>
</g>
</g>
<!-- Node44 -->
<g id="Node000044" class="node">
<title>Node44</title>
<g id="a_Node000044"><a xlink:href="cppunit_8h.html" target="_top" xlink:title=" ">
<polygon fill="white" stroke="#666666" points="2580,-195 2479,-195 2479,-176 2580,-176 2580,-195"/>
<text text-anchor="middle" x="2529.5" y="-183" font-family="Helvetica,sans-Serif" font-size="10.00">compat/cppunit.h</text>
</a>
</g>
</g>
<!-- Node1&#45;&gt;Node44 -->
<g id="edge35_Node000001_Node000044" class="edge">
<title>Node1&#45;&gt;Node44</title>
<g id="a_edge35_Node000001_Node000044"><a xlink:title=" ">
<path fill="none" stroke="#63b8ff" d="M2573.75,-230.75C2566.03,-223.03 2554.6,-211.6 2545.28,-202.28"/>
<polygon fill="#63b8ff" stroke="#63b8ff" points="2547.64,-199.69 2538.09,-195.09 2542.69,-204.64 2547.64,-199.69"/>
</a>
</g>
</g>
<!-- Node45 -->
<g id="Node000045" class="node">
<title>Node45</title>
<g id="a_Node000045"><a xlink:href="SquidMath_8h.html" target="_top" xlink:title=" ">
<polygon fill="white" stroke="#666666" points="2675,-195 2598,-195 2598,-176 2675,-176 2675,-195"/>
<text text-anchor="middle" x="2636.5" y="-183" font-family="Helvetica,sans-Serif" font-size="10.00">SquidMath.h</text>
</a>
</g>
</g>
<!-- Node1&#45;&gt;Node45 -->
<g id="edge36_Node000001_Node000045" class="edge">
<title>Node1&#45;&gt;Node45</title>
<g id="a_edge36_Node000001_Node000045"><a xlink:title=" ">
<path fill="none" stroke="#63b8ff" d="M2591.42,-230.75C2599.28,-223.03 2610.93,-211.6 2620.42,-202.28"/>
<polygon fill="#63b8ff" stroke="#63b8ff" points="2623.06,-204.59 2627.75,-195.09 2618.16,-199.6 2623.06,-204.59"/>
</a>
</g>
</g>
<!-- Node51 -->
<g id="Node000051" class="node">
<title>Node51</title>
<g id="a_Node000051"><a xlink:href="unitTestMain_8h.html" target="_top" xlink:title=" ">
<polygon fill="white" stroke="#666666" points="3309.5,-195 3221.5,-195 3221.5,-176 3309.5,-176 3309.5,-195"/>
<text text-anchor="middle" x="3265.5" y="-183" font-family="Helvetica,sans-Serif" font-size="10.00">unitTestMain.h</text>
</a>
</g>
</g>
<!-- Node1&#45;&gt;Node51 -->
<g id="edge42_Node000001_Node000051" class="edge">
<title>Node1&#45;&gt;Node51</title>
<g id="a_edge42_Node000001_Node000051"><a xlink:title=" ">
<path fill="none" stroke="#63b8ff" d="M2656.24,-233.78C2794.33,-223.06 3088.96,-200.2 3210.9,-190.74"/>
<polygon fill="#63b8ff" stroke="#63b8ff" points="3211.42,-194.21 3221.12,-189.94 3210.88,-187.23 3211.42,-194.21"/>
</a>
</g>
</g>
<!-- Node3 -->
<g id="Node000003" class="node">
<title>Node3</title>
<g id="a_Node000003"><a xlink:href="autoconf_8h.html" target="_top" xlink:title=" ">
<polygon fill="white" stroke="#666666" points="1527.5,-134.5 1459.5,-134.5 1459.5,-115.5 1527.5,-115.5 1527.5,-134.5"/>
<text text-anchor="middle" x="1493.5" y="-122.5" font-family="Helvetica,sans-Serif" font-size="10.00">autoconf.h</text>
</a>
</g>
</g>
<!-- Node2&#45;&gt;Node3 -->
<g id="edge2_Node000002_Node000003" class="edge">
<title>Node2&#45;&gt;Node3</title>
<g id="a_edge2_Node000002_Node000003"><a xlink:title=" ">
<path fill="none" stroke="#63b8ff" d="M1607.16,-175.99C1584.8,-166.16 1547.79,-149.88 1522.1,-138.58"/>
<polygon fill="#63b8ff" stroke="#63b8ff" points="1523.43,-135.34 1512.86,-134.52 1520.61,-141.75 1523.43,-135.34"/>
</a>
</g>
</g>
<!-- Node4 -->
<g id="Node000004" class="node">
<title>Node4</title>
<g id="a_Node000004"><a xlink:href="version_8h.html" target="_top" xlink:title=" ">
<polygon fill="white" stroke="#666666" points="1607.5,-134.5 1545.5,-134.5 1545.5,-115.5 1607.5,-115.5 1607.5,-134.5"/>
<text text-anchor="middle" x="1576.5" y="-122.5" font-family="Helvetica,sans-Serif" font-size="10.00">version.h</text>
</a>
</g>
</g>
<!-- Node2&#45;&gt;Node4 -->
<g id="edge3_Node000002_Node000004" class="edge">
<title>Node2&#45;&gt;Node4</title>
<g id="a_edge3_Node000002_Node000004"><a xlink:title=" ">
<path fill="none" stroke="#63b8ff" d="M1619.12,-175.87C1611.59,-167.05 1599.71,-153.16 1590.41,-142.27"/>
<polygon fill="#63b8ff" stroke="#63b8ff" points="1593.07,-140 1583.91,-134.67 1587.74,-144.54 1593.07,-140"/>
</a>
</g>
</g>
<!-- Node5 -->
<g id="Node000005" class="node">
<title>Node5</title>
<g id="a_Node000005"><a xlink:href="compat_8h.html" target="_top" xlink:title=" ">
<polygon fill="white" stroke="#666666" points="1727.5,-134.5 1625.5,-134.5 1625.5,-115.5 1727.5,-115.5 1727.5,-134.5"/>
<text text-anchor="middle" x="1676.5" y="-122.5" font-family="Helvetica,sans-Serif" font-size="10.00">compat/compat.h</text>
</a>
</g>
</g>
<!-- Node2&#45;&gt;Node5 -->
<g id="edge4_Node000002_Node000005" class="edge">
<title>Node2&#45;&gt;Node5</title>
<g id="a_edge4_Node000002_Node000005"><a xlink:title=" ">
<path fill="none" stroke="#63b8ff" d="M1633.88,-175.87C1641.41,-167.05 1653.29,-153.16 1662.59,-142.27"/>
<polygon fill="#63b8ff" stroke="#63b8ff" points="1665.26,-144.54 1669.09,-134.67 1659.93,-140 1665.26,-144.54"/>
</a>
</g>
</g>
<!-- Node6 -->
<g id="Node000006" class="node">
<title>Node6</title>
<g id="a_Node000006"><a xlink:href="osdetect_8h.html" target="_top" xlink:title=" ">
<polygon fill="white" stroke="#666666" points="107,-74 0,-74 0,-55 107,-55 107,-74"/>
<text text-anchor="middle" x="53.5" y="-62" font-family="Helvetica,sans-Serif" font-size="10.00">compat/osdetect.h</text>
</a>
</g>
</g>
<!-- Node5&#45;&gt;Node6 -->
<g id="edge5_Node000005_Node000006" class="edge">
<title>Node5&#45;&gt;Node6</title>
<g id="a_edge5_Node000005_Node000006"><a xlink:title=" ">
<path fill="none" stroke="#63b8ff" d="M1645.27,-115.43C1636.07,-113.26 1625.94,-111.2 1616.5,-110 958.37,-26.22 783.07,-125.63 117.4,-73.95"/>
<polygon fill="#63b8ff" stroke="#63b8ff" points="117.32,-70.43 107.07,-73.14 116.77,-77.41 117.32,-70.43"/>
</a>
</g>
</g>
<!-- Node7 -->
<g id="Node000007" class="node">
<title>Node7</title>
<g id="a_Node000007"><a xlink:href="fdsetsize_8h.html" target="_top" xlink:title=" ">
<polygon fill="white" stroke="#666666" points="235.5,-74 125.5,-74 125.5,-55 235.5,-55 235.5,-74"/>
<text text-anchor="middle" x="180.5" y="-62" font-family="Helvetica,sans-Serif" font-size="10.00">compat/fdsetsize.h</text>
</a>
</g>
</g>
<!-- Node5&#45;&gt;Node7 -->
<g id="edge6_Node000005_Node000007" class="edge">
<title>Node5&#45;&gt;Node7</title>
<g id="a_edge6_Node000005_Node000007"><a xlink:title=" ">
<path fill="none" stroke="#63b8ff" d="M1645.27,-115.45C1636.07,-113.27 1625.94,-111.21 1616.5,-110 1014.88,-32.73 854.38,-121.22 245.97,-74.01"/>
<polygon fill="#63b8ff" stroke="#63b8ff" points="245.86,-70.49 235.62,-73.2 245.31,-77.47 245.86,-70.49"/>
</a>
</g>
</g>
<!-- Node8 -->
<g id="Node000008" class="node">
<title>Node8</title>
<g id="a_Node000008"><a xlink:href="types_8h.html" target="_top" xlink:title=" ">
<polygon fill="white" stroke="#666666" points="345.5,-74 253.5,-74 253.5,-55 345.5,-55 345.5,-74"/>
<text text-anchor="middle" x="299.5" y="-62" font-family="Helvetica,sans-Serif" font-size="10.00">compat/types.h</text>
</a>
</g>
</g>
<!-- Node5&#45;&gt;Node8 -->
<g id="edge7_Node000005_Node000008" class="edge">
<title>Node5&#45;&gt;Node8</title>
<g id="a_edge7_Node000005_Node000008"><a xlink:title=" ">
<path fill="none" stroke="#63b8ff" d="M1645.27,-115.46C1636.07,-113.29 1625.94,-111.22 1616.5,-110 1063.43,-38.33 915.11,-123.89 356.01,-74"/>
<polygon fill="#63b8ff" stroke="#63b8ff" points="355.94,-70.48 345.66,-73.06 355.31,-77.45 355.94,-70.48"/>
</a>
</g>
</g>
<!-- Node10 -->
<g id="Node000010" class="node">
<title>Node10</title>
<g id="a_Node000010"><a xlink:href="aix_8h.html" target="_top" xlink:title=" ">
<polygon fill="white" stroke="#666666" points="459,-74 364,-74 364,-55 459,-55 459,-74"/>
<text text-anchor="middle" x="411.5" y="-62" font-family="Helvetica,sans-Serif" font-size="10.00">compat/os/aix.h</text>
</a>
</g>
</g>
<!-- Node5&#45;&gt;Node10 -->
<g id="edge9_Node000005_Node000010" class="edge">
<title>Node5&#45;&gt;Node10</title>
<g id="a_edge9_Node000005_Node000010"><a xlink:title=" ">
<path fill="none" stroke="#63b8ff" d="M1645.26,-115.48C1636.07,-113.31 1625.94,-111.24 1616.5,-110 1113.69,-44.12 978.7,-118.73 469.23,-73.92"/>
<polygon fill="#63b8ff" stroke="#63b8ff" points="469.31,-70.41 459.04,-73.01 468.69,-77.39 469.31,-70.41"/>
</a>
</g>
</g>
<!-- Node11 -->
<g id="Node000011" class="node">
<title>Node11</title>
<g id="a_Node000011"><a xlink:href="android_8h.html" target="_top" xlink:title=" ">
<polygon fill="white" stroke="#666666" points="593.5,-74 477.5,-74 477.5,-55 593.5,-55 593.5,-74"/>
<text text-anchor="middle" x="535.5" y="-62" font-family="Helvetica,sans-Serif" font-size="10.00">compat/os/android.h</text>
</a>
</g>
</g>
<!-- Node5&#45;&gt;Node11 -->
<g id="edge10_Node000005_Node000011" class="edge">
<title>Node5&#45;&gt;Node11</title>
<g id="a_edge10_Node000005_Node000011"><a xlink:title=" ">
<path fill="none" stroke="#63b8ff" d="M1644.95,-115.43C1635.84,-113.28 1625.83,-111.24 1616.5,-110 1172.77,-50.92 1053.72,-109.54 603.59,-74"/>
<polygon fill="#63b8ff" stroke="#63b8ff" points="603.82,-70.5 593.57,-73.19 603.26,-77.48 603.82,-70.5"/>
</a>
</g>
</g>
<!-- Node12 -->
<g id="Node000012" class="node">
<title>Node12</title>
<g id="a_Node000012"><a xlink:href="dragonfly_8h.html" target="_top" xlink:title=" ">
<polygon fill="white" stroke="#666666" points="735.5,-74 611.5,-74 611.5,-55 735.5,-55 735.5,-74"/>
<text text-anchor="middle" x="673.5" y="-62" font-family="Helvetica,sans-Serif" font-size="10.00">compat/os/dragonfly.h</text>
</a>
</g>
</g>
<!-- Node5&#45;&gt;Node12 -->
<g id="edge11_Node000005_Node000012" class="edge">
<title>Node5&#45;&gt;Node12</title>
<g id="a_edge11_Node000005_Node000012"><a xlink:title=" ">
<path fill="none" stroke="#63b8ff" d="M1644.95,-115.47C1635.83,-113.32 1625.83,-111.27 1616.5,-110 1235.44,-58.15 1132.89,-104.28 745.88,-74.04"/>
<polygon fill="#63b8ff" stroke="#63b8ff" points="746.06,-70.54 735.81,-73.24 745.5,-77.52 746.06,-70.54"/>
</a>
</g>
</g>
<!-- Node13 -->
<g id="Node000013" class="node">
<title>Node13</title>
<g id="a_Node000013"><a xlink:href="freebsd_8h.html" target="_top" xlink:title=" ">
<polygon fill="white" stroke="#666666" points="869.5,-74 753.5,-74 753.5,-55 869.5,-55 869.5,-74"/>
<text text-anchor="middle" x="811.5" y="-62" font-family="Helvetica,sans-Serif" font-size="10.00">compat/os/freebsd.h</text>
</a>
</g>
</g>
<!-- Node5&#45;&gt;Node13 -->
<g id="edge12_Node000005_Node000013" class="edge">
<title>Node5&#45;&gt;Node13</title>
<g id="a_edge12_Node000005_Node000013"><a xlink:title=" ">
<path fill="none" stroke="#63b8ff" d="M1644.63,-115.44C1635.6,-113.32 1625.72,-111.29 1616.5,-110 1294.61,-64.97 1207.42,-101.91 879.83,-74.03"/>
<polygon fill="#63b8ff" stroke="#63b8ff" points="879.84,-70.52 869.58,-73.15 879.24,-77.5 879.84,-70.52"/>
</a>
</g>
</g>
<!-- Node14 -->
<g id="Node000014" class="node">
<title>Node14</title>
<g id="a_Node000014"><a xlink:href="hpux_8h.html" target="_top" xlink:title=" ">
<polygon fill="white" stroke="#666666" points="991.5,-74 887.5,-74 887.5,-55 991.5,-55 991.5,-74"/>
<text text-anchor="middle" x="939.5" y="-62" font-family="Helvetica,sans-Serif" font-size="10.00">compat/os/hpux.h</text>
</a>
</g>
</g>
<!-- Node5&#45;&gt;Node14 -->
<g id="edge13_Node000005_Node000014" class="edge">
<title>Node5&#45;&gt;Node14</title>
<g id="a_edge13_Node000005_Node000014"><a xlink:title=" ">
<path fill="none" stroke="#63b8ff" d="M1644.62,-115.5C1635.59,-113.38 1625.71,-111.33 1616.5,-110 1348.4,-71.18 1275.2,-100.22 1001.93,-74.05"/>
<polygon fill="#63b8ff" stroke="#63b8ff" points="1002,-70.54 991.71,-73.06 1001.32,-77.51 1002,-70.54"/>
</a>
</g>
</g>
<!-- Node15 -->
<g id="Node000015" class="node">
<title>Node15</title>
<g id="a_Node000015"><a xlink:href="linux_8h.html" target="_top" xlink:title=" ">
<polygon fill="white" stroke="#666666" points="1113.5,-74 1009.5,-74 1009.5,-55 1113.5,-55 1113.5,-74"/>
<text text-anchor="middle" x="1061.5" y="-62" font-family="Helvetica,sans-Serif" font-size="10.00">compat/os/linux.h</text>
</a>
</g>
</g>
<!-- Node5&#45;&gt;Node15 -->
<g id="edge14_Node000005_Node000015" class="edge">
<title>Node5&#45;&gt;Node15</title>
<g id="a_edge14_Node000005_Node000015"><a xlink:title=" ">
<path fill="none" stroke="#63b8ff" d="M1643.98,-115.44C1635.12,-113.37 1625.49,-111.37 1616.5,-110 1402.16,-77.39 1343.19,-96.6 1123.94,-74.07"/>
<polygon fill="#63b8ff" stroke="#63b8ff" points="1124.03,-70.56 1113.72,-73.01 1123.3,-77.53 1124.03,-70.56"/>
</a>
</g>
</g>
<!-- Node16 -->
<g id="Node000016" class="node">
<title>Node16</title>
<g id="a_Node000016"><a xlink:href="macosx_8h.html" target="_top" xlink:title=" ">
<polygon fill="white" stroke="#666666" points="1249.5,-74 1131.5,-74 1131.5,-55 1249.5,-55 1249.5,-74"/>
<text text-anchor="middle" x="1190.5" y="-62" font-family="Helvetica,sans-Serif" font-size="10.00">compat/os/macosx.h</text>
</a>
</g>
</g>
<!-- Node5&#45;&gt;Node16 -->
<g id="edge15_Node000005_Node000016" class="edge">
<title>Node5&#45;&gt;Node16</title>
<g id="a_edge15_Node000005_Node000016"><a xlink:title=" ">
<path fill="none" stroke="#63b8ff" d="M1643.33,-115.46C1634.64,-113.44 1625.26,-111.46 1616.5,-110 1461.99,-84.31 1419.15,-91.6 1259.98,-74.13"/>
<polygon fill="#63b8ff" stroke="#63b8ff" points="1260.15,-70.63 1249.83,-73 1259.38,-77.59 1260.15,-70.63"/>
</a>
</g>
</g>
<!-- Node17 -->
<g id="Node000017" class="node">
<title>Node17</title>
<g id="a_Node000017"><a xlink:href="mingw_8h.html" target="_top" xlink:title=" ">
<polygon fill="white" stroke="#666666" points="1379.5,-74 1267.5,-74 1267.5,-55 1379.5,-55 1379.5,-74"/>
<text text-anchor="middle" x="1323.5" y="-62" font-family="Helvetica,sans-Serif" font-size="10.00">compat/os/mingw.h</text>
</a>
</g>
</g>
<!-- Node5&#45;&gt;Node17 -->
<g id="edge16_Node000005_Node000017" class="edge">
<title>Node5&#45;&gt;Node17</title>
<g id="a_edge16_Node000005_Node000017"><a xlink:title=" ">
<path fill="none" stroke="#63b8ff" d="M1642.02,-115.47C1633.69,-113.54 1624.8,-111.6 1616.5,-110 1574.28,-101.88 1462.29,-85.39 1389.64,-74.93"/>
<polygon fill="#63b8ff" stroke="#63b8ff" points="1390.06,-71.45 1379.66,-73.49 1389.06,-78.38 1390.06,-71.45"/>
</a>
</g>
</g>
<!-- Node18 -->
<g id="Node000018" class="node">
<title>Node18</title>
<g id="a_Node000018"><a xlink:href="mswindows_8h.html" target="_top" xlink:title=" ">
<polygon fill="white" stroke="#666666" points="1535,-74 1398,-74 1398,-55 1535,-55 1535,-74"/>
<text text-anchor="middle" x="1466.5" y="-62" font-family="Helvetica,sans-Serif" font-size="10.00">compat/os/mswindows.h</text>
</a>
</g>
</g>
<!-- Node5&#45;&gt;Node18 -->
<g id="edge17_Node000005_Node000018" class="edge">
<title>Node5&#45;&gt;Node18</title>
<g id="a_edge17_Node000005_Node000018"><a xlink:title=" ">
<path fill="none" stroke="#63b8ff" d="M1645.96,-115.49C1609.26,-105.27 1547.55,-88.08 1506.92,-76.76"/>
<polygon fill="#63b8ff" stroke="#63b8ff" points="1507.65,-73.33 1497.07,-74.02 1505.77,-80.07 1507.65,-73.33"/>
</a>
</g>
</g>
<!-- Node19 -->
<g id="Node000019" class="node">
<title>Node19</title>
<g id="a_Node000019"><a xlink:href="netbsd_8h.html" target="_top" xlink:title=" ">
<polygon fill="white" stroke="#666666" points="1666,-74 1553,-74 1553,-55 1666,-55 1666,-74"/>
<text text-anchor="middle" x="1609.5" y="-62" font-family="Helvetica,sans-Serif" font-size="10.00">compat/os/netbsd.h</text>
</a>
</g>
</g>
<!-- Node5&#45;&gt;Node19 -->
<g id="edge18_Node000005_Node000019" class="edge">
<title>Node5&#45;&gt;Node19</title>
<g id="a_edge18_Node000005_Node000019"><a xlink:title=" ">
<path fill="none" stroke="#63b8ff" d="M1666.61,-115.37C1656.22,-106.3 1639.66,-91.84 1627.05,-80.82"/>
<polygon fill="#63b8ff" stroke="#63b8ff" points="1629.26,-78.11 1619.43,-74.17 1624.66,-83.38 1629.26,-78.11"/>
</a>
</g>
</g>
<!-- Node20 -->
<g id="Node000020" class="node">
<title>Node20</title>
<g id="a_Node000020"><a xlink:href="openbsd_8h.html" target="_top" xlink:title=" ">
<polygon fill="white" stroke="#666666" points="1805,-74 1684,-74 1684,-55 1805,-55 1805,-74"/>
<text text-anchor="middle" x="1744.5" y="-62" font-family="Helvetica,sans-Serif" font-size="10.00">compat/os/openbsd.h</text>
</a>
</g>
</g>
<!-- Node5&#45;&gt;Node20 -->
<g id="edge19_Node000005_Node000020" class="edge">
<title>Node5&#45;&gt;Node20</title>
<g id="a_edge19_Node000005_Node000020"><a xlink:title=" ">
<path fill="none" stroke="#63b8ff" d="M1686.53,-115.37C1697.08,-106.3 1713.89,-91.84 1726.69,-80.82"/>
<polygon fill="#63b8ff" stroke="#63b8ff" points="1729.13,-83.34 1734.43,-74.17 1724.56,-78.04 1729.13,-83.34"/>
</a>
</g>
</g>
<!-- Node21 -->
<g id="Node000021" class="node">
<title>Node21</title>
<g id="a_Node000021"><a xlink:href="os2_8h.html" target="_top" xlink:title=" ">
<polygon fill="white" stroke="#666666" points="1920,-74 1823,-74 1823,-55 1920,-55 1920,-74"/>
<text text-anchor="middle" x="1871.5" y="-62" font-family="Helvetica,sans-Serif" font-size="10.00">compat/os/os2.h</text>
</a>
</g>
</g>
<!-- Node5&#45;&gt;Node21 -->
<g id="edge20_Node000005_Node000021" class="edge">
<title>Node5&#45;&gt;Node21</title>
<g id="a_edge20_Node000005_Node000021"><a xlink:title=" ">
<path fill="none" stroke="#63b8ff" d="M1704.85,-115.49C1738.79,-105.31 1795.76,-88.22 1833.49,-76.9"/>
<polygon fill="#63b8ff" stroke="#63b8ff" points="1834.54,-80.24 1843.11,-74.02 1832.53,-73.54 1834.54,-80.24"/>
</a>
</g>
</g>
<!-- Node22 -->
<g id="Node000022" class="node">
<title>Node22</title>
<g id="a_Node000022"><a xlink:href="qnx_8h.html" target="_top" xlink:title=" ">
<polygon fill="white" stroke="#666666" points="2036.5,-74 1938.5,-74 1938.5,-55 2036.5,-55 2036.5,-74"/>
<text text-anchor="middle" x="1987.5" y="-62" font-family="Helvetica,sans-Serif" font-size="10.00">compat/os/qnx.h</text>
</a>
</g>
</g>
<!-- Node5&#45;&gt;Node22 -->
<g id="edge21_Node000005_Node000022" class="edge">
<title>Node5&#45;&gt;Node22</title>
<g id="a_edge21_Node000005_Node000022"><a xlink:title=" ">
<path fill="none" stroke="#63b8ff" d="M1721.72,-115.49C1777.46,-105.01 1872.15,-87.2 1932.17,-75.91"/>
<polygon fill="#63b8ff" stroke="#63b8ff" points="1933.04,-79.31 1942.22,-74.02 1931.75,-72.43 1933.04,-79.31"/>
</a>
</g>
</g>
<!-- Node23 -->
<g id="Node000023" class="node">
<title>Node23</title>
<g id="a_Node000023"><a xlink:href="solaris_8h.html" target="_top" xlink:title=" ">
<polygon fill="white" stroke="#666666" points="2166.5,-74 2054.5,-74 2054.5,-55 2166.5,-55 2166.5,-74"/>
<text text-anchor="middle" x="2110.5" y="-62" font-family="Helvetica,sans-Serif" font-size="10.00">compat/os/solaris.h</text>
</a>
</g>
</g>
<!-- Node5&#45;&gt;Node23 -->
<g id="edge22_Node000005_Node000023" class="edge">
<title>Node5&#45;&gt;Node23</title>
<g id="a_edge22_Node000005_Node000023"><a xlink:title=" ">
<path fill="none" stroke="#63b8ff" d="M1727.56,-117.12C1806.23,-106.51 1957.08,-86.18 2044.12,-74.45"/>
<polygon fill="#63b8ff" stroke="#63b8ff" points="2044.71,-77.9 2054.15,-73.1 2043.77,-70.96 2044.71,-77.9"/>
</a>
</g>
</g>
<!-- Node24 -->
<g id="Node000024" class="node">
<title>Node24</title>
<g id="a_Node000024"><a xlink:href="sunos_8h.html" target="_top" xlink:title=" ">
<polygon fill="white" stroke="#666666" points="2292.5,-74 2184.5,-74 2184.5,-55 2292.5,-55 2292.5,-74"/>
<text text-anchor="middle" x="2238.5" y="-62" font-family="Helvetica,sans-Serif" font-size="10.00">compat/os/sunos.h</text>
</a>
</g>
</g>
<!-- Node5&#45;&gt;Node24 -->
<g id="edge23_Node000005_Node000024" class="edge">
<title>Node5&#45;&gt;Node24</title>
<g id="a_edge23_Node000005_Node000024"><a xlink:title=" ">
<path fill="none" stroke="#63b8ff" d="M1727.57,-119.47C1816.2,-111.47 2004.53,-93.91 2174.11,-74.13"/>
<polygon fill="#63b8ff" stroke="#63b8ff" points="2174.69,-77.58 2184.22,-72.94 2173.88,-70.63 2174.69,-77.58"/>
</a>
</g>
</g>
<!-- Node25 -->
<g id="Node000025" class="node">
<title>Node25</title>
<g id="a_Node000025"><a xlink:href="assert_8h.html" target="_top" xlink:title=" ">
<polygon fill="white" stroke="#666666" points="2406,-74 2311,-74 2311,-55 2406,-55 2406,-74"/>
<text text-anchor="middle" x="2358.5" y="-62" font-family="Helvetica,sans-Serif" font-size="10.00">compat/assert.h</text>
</a>
</g>
</g>
<!-- Node5&#45;&gt;Node25 -->
<g id="edge24_Node000005_Node000025" class="edge">
<title>Node5&#45;&gt;Node25</title>
<g id="a_edge24_Node000005_Node000025"><a xlink:title=" ">
<path fill="none" stroke="#63b8ff" d="M1727.65,-121.09C1832.86,-114.86 2081.32,-98.81 2300.85,-73.99"/>
<polygon fill="#63b8ff" stroke="#63b8ff" points="2301.41,-77.45 2310.95,-72.84 2300.61,-70.49 2301.41,-77.45"/>
</a>
</g>
</g>
<!-- Node26 -->
<g id="Node000026" class="node">
<title>Node26</title>
<g id="a_Node000026"><a xlink:href="compat__shared_8h.html" target="_top" xlink:title=" ">
<polygon fill="#fff0f0" stroke="red" points="2564.5,-74 2424.5,-74 2424.5,-55 2564.5,-55 2564.5,-74"/>
<text text-anchor="middle" x="2494.5" y="-62" font-family="Helvetica,sans-Serif" font-size="10.00">compat/compat_shared.h</text>
</a>
</g>
</g>
<!-- Node5&#45;&gt;Node26 -->
<g id="edge25_Node000005_Node000026" class="edge">
<title>Node5&#45;&gt;Node26</title>
<g id="a_edge25_Node000005_Node000026"><a xlink:title=" ">
<path fill="none" stroke="#63b8ff" d="M1727.55,-121.21C1845.99,-114.61 2148.89,-96.88 2414.06,-74"/>
<polygon fill="#63b8ff" stroke="#63b8ff" points="2414.61,-77.47 2424.27,-73.11 2414.01,-70.49 2414.61,-77.47"/>
</a>
</g>
</g>
<!-- Node36 -->
<g id="Node000036" class="node">
<title>Node36</title>
<g id="a_Node000036"><a xlink:href="stdvarargs_8h.html" target="_top" xlink:title=" ">
<polygon fill="#fff0f0" stroke="red" points="2700,-74 2583,-74 2583,-55 2700,-55 2700,-74"/>
<text text-anchor="middle" x="2641.5" y="-62" font-family="Helvetica,sans-Serif" font-size="10.00">compat/stdvarargs.h</text>
</a>
</g>
</g>
<!-- Node5&#45;&gt;Node36 -->
<g id="edge30_Node000005_Node000036" class="edge">
<title>Node5&#45;&gt;Node36</title>
<g id="a_edge30_Node000005_Node000036"><a xlink:title=" ">
<path fill="none" stroke="#63b8ff" d="M1727.66,-122.38C1863.46,-117.81 2244.42,-103.29 2572.74,-74"/>
<polygon fill="#63b8ff" stroke="#63b8ff" points="2573.28,-77.46 2582.92,-73.08 2572.65,-70.49 2573.28,-77.46"/>
</a>
</g>
</g>
<!-- Node38 -->
<g id="Node000038" class="node">
<title>Node38</title>
<g id="a_Node000038"><a xlink:href="stdio_8h.html" target="_top" xlink:title=" ">
<polygon fill="#fff0f0" stroke="red" points="2807,-74 2718,-74 2718,-55 2807,-55 2807,-74"/>
<text text-anchor="middle" x="2762.5" y="-62" font-family="Helvetica,sans-Serif" font-size="10.00">compat/stdio.h</text>
</a>
</g>
</g>
<!-- Node5&#45;&gt;Node38 -->
<g id="edge31_Node000005_Node000038" class="edge">
<title>Node5&#45;&gt;Node38</title>
<g id="a_edge31_Node000005_Node000038"><a xlink:title=" ">
<path fill="none" stroke="#63b8ff" d="M1727.65,-123.47C1876.98,-121.5 2325.36,-112.66 2707.61,-73.96"/>
<polygon fill="#63b8ff" stroke="#63b8ff" points="2708.17,-77.42 2717.76,-72.92 2707.46,-70.46 2708.17,-77.42"/>
</a>
</g>
</g>
<!-- Node40 -->
<g id="Node000040" class="node">
<title>Node40</title>
<g id="a_Node000040"><a xlink:href="statvfs_8h.html" target="_top" xlink:title=" ">
<polygon fill="white" stroke="#666666" points="2924,-74 2825,-74 2825,-55 2924,-55 2924,-74"/>
<text text-anchor="middle" x="2874.5" y="-62" font-family="Helvetica,sans-Serif" font-size="10.00">compat/statvfs.h</text>
</a>
</g>
</g>
<!-- Node5&#45;&gt;Node40 -->
<g id="edge32_Node000005_Node000040" class="edge">
<title>Node5&#45;&gt;Node40</title>
<g id="a_edge32_Node000005_Node000040"><a xlink:title=" ">
<path fill="none" stroke="#63b8ff" d="M1727.71,-123.56C1887.12,-121.81 2388.81,-113.39 2814.92,-73.94"/>
<polygon fill="#63b8ff" stroke="#63b8ff" points="2815.34,-77.41 2824.97,-73 2814.69,-70.44 2815.34,-77.41"/>
</a>
</g>
</g>
<!-- Node41 -->
<g id="Node000041" class="node">
<title>Node41</title>
<g id="a_Node000041"><a xlink:href="debug_8h.html" target="_top" xlink:title=" ">
<polygon fill="white" stroke="#666666" points="3037,-74 2942,-74 2942,-55 3037,-55 3037,-74"/>
<text text-anchor="middle" x="2989.5" y="-62" font-family="Helvetica,sans-Serif" font-size="10.00">compat/debug.h</text>
</a>
</g>
</g>
<!-- Node5&#45;&gt;Node41 -->
<g id="edge33_Node000005_Node000041" class="edge">
<title>Node5&#45;&gt;Node41</title>
<g id="a_edge33_Node000005_Node000041"><a xlink:title=" ">
<path fill="none" stroke="#63b8ff" d="M1727.78,-123.95C1897.74,-123.35 2458.18,-118 2931.84,-73.93"/>
<polygon fill="#63b8ff" stroke="#63b8ff" points="2932.33,-77.4 2941.96,-72.98 2931.68,-70.43 2932.33,-77.4"/>
</a>
</g>
</g>
<!-- Node42 -->
<g id="Node000042" class="node">
<title>Node42</title>
<g id="a_Node000042"><a xlink:href="valgrind_8h.html" target="_top" xlink:title=" ">
<polygon fill="#fff0f0" stroke="red" points="3160,-74 3055,-74 3055,-55 3160,-55 3160,-74"/>
<text text-anchor="middle" x="3107.5" y="-62" font-family="Helvetica,sans-Serif" font-size="10.00">compat/valgrind.h</text>
</a>
</g>
</g>
<!-- Node5&#45;&gt;Node42 -->
<g id="edge34_Node000005_Node000042" class="edge">
<title>Node5&#45;&gt;Node42</title>
<g id="a_edge34_Node000005_Node000042"><a xlink:title=" ">
<path fill="none" stroke="#63b8ff" d="M1727.51,-122.82C1940.67,-117.78 2761.66,-97.32 3044.54,-73.96"/>
<polygon fill="#63b8ff" stroke="#63b8ff" points="3045.11,-77.42 3054.77,-73.09 3044.52,-70.45 3045.11,-77.42"/>
</a>
</g>
</g>
<!-- Node9 -->
<g id="Node000009" class="node">
<title>Node9</title>
<g id="a_Node000009"><a xlink:title=" ">
<polygon fill="#e0e0e0" stroke="#999999" points="324.5,-19 274.5,-19 274.5,0 324.5,0 324.5,-19"/>
<text text-anchor="middle" x="299.5" y="-7" font-family="Helvetica,sans-Serif" font-size="10.00">cstdint</text>
</a>
</g>
</g>
<!-- Node8&#45;&gt;Node9 -->
<g id="edge8_Node000008_Node000009" class="edge">
<title>Node8&#45;&gt;Node9</title>
<g id="a_edge8_Node000008_Node000009"><a xlink:title=" ">
<path fill="none" stroke="#63b8ff" d="M299.5,-54.75C299.5,-47.8 299.5,-37.85 299.5,-29.13"/>
<polygon fill="#63b8ff" stroke="#63b8ff" points="303,-29.09 299.5,-19.09 296,-29.09 303,-29.09"/>
</a>
</g>
</g>
<!-- Node27 -->
<g id="Node000027" class="node">
<title>Node27</title>
<g id="a_Node000027"><a xlink:title=" ">
<polygon fill="#e0e0e0" stroke="#999999" points="2376,-19 2325,-19 2325,0 2376,0 2376,-19"/>
<text text-anchor="middle" x="2350.5" y="-7" font-family="Helvetica,sans-Serif" font-size="10.00">csignal</text>
</a>
</g>
</g>
<!-- Node26&#45;&gt;Node27 -->
<g id="edge26_Node000026_Node000027" class="edge">
<title>Node26&#45;&gt;Node27</title>
<g id="a_edge26_Node000026_Node000027"><a xlink:title=" ">
<path fill="none" stroke="#63b8ff" d="M2471.36,-54.98C2447.68,-46.27 2410.63,-32.63 2383.79,-22.75"/>
<polygon fill="#63b8ff" stroke="#63b8ff" points="2384.65,-19.34 2374.06,-19.17 2382.23,-25.91 2384.65,-19.34"/>
</a>
</g>
</g>
<!-- Node28 -->
<g id="Node000028" class="node">
<title>Node28</title>
<g id="a_Node000028"><a xlink:href="xalloc_8h.html" target="_top" xlink:title=" ">
<polygon fill="white" stroke="#666666" points="2489,-19 2394,-19 2394,0 2489,0 2489,-19"/>
<text text-anchor="middle" x="2441.5" y="-7" font-family="Helvetica,sans-Serif" font-size="10.00">compat/xalloc.h</text>
</a>
</g>
</g>
<!-- Node26&#45;&gt;Node28 -->
<g id="edge27_Node000026_Node000028" class="edge">
<title>Node26&#45;&gt;Node28</title>
<g id="a_edge27_Node000026_Node000028"><a xlink:title=" ">
<path fill="none" stroke="#63b8ff" d="M2485.75,-54.75C2478.03,-47.03 2466.6,-35.6 2457.28,-26.28"/>
<polygon fill="#63b8ff" stroke="#63b8ff" points="2459.64,-23.69 2450.09,-19.09 2454.69,-28.64 2459.64,-23.69"/>
</a>
</g>
</g>
<!-- Node29 -->
<g id="Node000029" class="node">
<title>Node29</title>
<g id="a_Node000029"><a xlink:href="xis_8h.html" target="_top" xlink:title=" ">
<polygon fill="#fff0f0" stroke="red" points="2587.5,-19 2507.5,-19 2507.5,0 2587.5,0 2587.5,-19"/>
<text text-anchor="middle" x="2547.5" y="-7" font-family="Helvetica,sans-Serif" font-size="10.00">compat/xis.h</text>
</a>
</g>
</g>
<!-- Node26&#45;&gt;Node29 -->
<g id="edge28_Node000026_Node000029" class="edge">
<title>Node26&#45;&gt;Node29</title>
<g id="a_edge28_Node000026_Node000029"><a xlink:title=" ">
<path fill="none" stroke="#63b8ff" d="M2503.25,-54.75C2510.97,-47.03 2522.4,-35.6 2531.72,-26.28"/>
<polygon fill="#63b8ff" stroke="#63b8ff" points="2534.31,-28.64 2538.91,-19.09 2529.36,-23.69 2534.31,-28.64"/>
</a>
</g>
</g>
<!-- Node31 -->
<g id="Node000031" class="node">
<title>Node31</title>
<g id="a_Node000031"><a xlink:href="xstrerror_8h.html" target="_top" xlink:title=" ">
<polygon fill="white" stroke="#666666" points="2713,-19 2606,-19 2606,0 2713,0 2713,-19"/>
<text text-anchor="middle" x="2659.5" y="-7" font-family="Helvetica,sans-Serif" font-size="10.00">compat/xstrerror.h</text>
</a>
</g>
</g>
<!-- Node26&#45;&gt;Node31 -->
<g id="edge29_Node000026_Node000031" class="edge">
<title>Node26&#45;&gt;Node31</title>
<g id="a_edge29_Node000026_Node000031"><a xlink:title=" ">
<path fill="none" stroke="#63b8ff" d="M2521.01,-54.98C2548.71,-46.09 2592.36,-32.07 2623.24,-22.15"/>
<polygon fill="#63b8ff" stroke="#63b8ff" points="2624.33,-25.47 2632.78,-19.08 2622.19,-18.81 2624.33,-25.47"/>
</a>
</g>
</g>
<!-- Node46 -->
<g id="Node000046" class="node">
<title>Node46</title>
<g id="a_Node000046"><a xlink:href="base_2forward_8h.html" target="_top" xlink:title=" ">
<polygon fill="white" stroke="#666666" points="2523,-134.5 2434,-134.5 2434,-115.5 2523,-115.5 2523,-134.5"/>
<text text-anchor="middle" x="2478.5" y="-122.5" font-family="Helvetica,sans-Serif" font-size="10.00">base/forward.h</text>
</a>
</g>
</g>
<!-- Node45&#45;&gt;Node46 -->
<g id="edge37_Node000045_Node000046" class="edge">
<title>Node45&#45;&gt;Node46</title>
<g id="a_edge37_Node000045_Node000046"><a xlink:title=" ">
<path fill="none" stroke="#63b8ff" d="M2613.53,-175.99C2586.61,-166.03 2541.83,-149.45 2511.27,-138.13"/>
<polygon fill="#63b8ff" stroke="#63b8ff" points="2512.1,-134.71 2501.5,-134.52 2509.66,-141.27 2512.1,-134.71"/>
</a>
</g>
</g>
<!-- Node47 -->
<g id="Node000047" class="node">
<title>Node47</title>
<g id="a_Node000047"><a xlink:href="TypeTraits_8h.html" target="_top" xlink:title=" ">
<polygon fill="white" stroke="#666666" points="2642,-134.5 2541,-134.5 2541,-115.5 2642,-115.5 2642,-134.5"/>
<text text-anchor="middle" x="2591.5" y="-122.5" font-family="Helvetica,sans-Serif" font-size="10.00">base/TypeTraits.h</text>
</a>
</g>
</g>
<!-- Node45&#45;&gt;Node47 -->
<g id="edge38_Node000045_Node000047" class="edge">
<title>Node45&#45;&gt;Node47</title>
<g id="a_edge38_Node000045_Node000047"><a xlink:title=" ">
<path fill="none" stroke="#63b8ff" d="M2629.86,-175.87C2623.21,-167.23 2612.81,-153.7 2604.51,-142.92"/>
<polygon fill="#63b8ff" stroke="#63b8ff" points="2607.04,-140.46 2598.17,-134.67 2601.49,-144.73 2607.04,-140.46"/>
</a>
</g>
</g>
<!-- Node49 -->
<g id="Node000049" class="node">
<title>Node49</title>
<g id="a_Node000049"><a xlink:title=" ">
<polygon fill="#e0e0e0" stroke="#999999" points="2704.5,-134.5 2660.5,-134.5 2660.5,-115.5 2704.5,-115.5 2704.5,-134.5"/>
<text text-anchor="middle" x="2682.5" y="-122.5" font-family="Helvetica,sans-Serif" font-size="10.00">limits</text>
</a>
</g>
</g>
<!-- Node45&#45;&gt;Node49 -->
<g id="edge40_Node000045_Node000049" class="edge">
<title>Node45&#45;&gt;Node49</title>
<g id="a_edge40_Node000045_Node000049"><a xlink:title=" ">
<path fill="none" stroke="#63b8ff" d="M2643.29,-175.87C2650.15,-167.14 2660.93,-153.43 2669.45,-142.59"/>
<polygon fill="#63b8ff" stroke="#63b8ff" points="2672.25,-144.69 2675.68,-134.67 2666.75,-140.36 2672.25,-144.69"/>
</a>
</g>
</g>
<!-- Node50 -->
<g id="Node000050" class="node">
<title>Node50</title>
<g id="a_Node000050"><a xlink:title=" ">
<polygon fill="#e0e0e0" stroke="#999999" points="2778.5,-134.5 2722.5,-134.5 2722.5,-115.5 2778.5,-115.5 2778.5,-134.5"/>
<text text-anchor="middle" x="2750.5" y="-122.5" font-family="Helvetica,sans-Serif" font-size="10.00">optional</text>
</a>
</g>
</g>
<!-- Node45&#45;&gt;Node50 -->
<g id="edge41_Node000045_Node000050" class="edge">
<title>Node45&#45;&gt;Node50</title>
<g id="a_edge41_Node000045_Node000050"><a xlink:title=" ">
<path fill="none" stroke="#63b8ff" d="M2653.32,-175.87C2672.1,-166.23 2702.7,-150.53 2724.55,-139.31"/>
<polygon fill="#63b8ff" stroke="#63b8ff" points="2726.31,-142.35 2733.61,-134.67 2723.11,-136.12 2726.31,-142.35"/>
</a>
</g>
</g>
<!-- Node48 -->
<g id="Node000048" class="node">
<title>Node48</title>
<g id="a_Node000048"><a xlink:title=" ">
<polygon fill="#e0e0e0" stroke="#999999" points="3247,-74 3178,-74 3178,-55 3247,-55 3247,-74"/>
<text text-anchor="middle" x="3212.5" y="-62" font-family="Helvetica,sans-Serif" font-size="10.00">type_traits</text>
</a>
</g>
</g>
<!-- Node47&#45;&gt;Node48 -->
<g id="edge39_Node000047_Node000048" class="edge">
<title>Node47&#45;&gt;Node48</title>
<g id="a_edge39_Node000047_Node000048"><a xlink:title=" ">
<path fill="none" stroke="#63b8ff" d="M2623.7,-115.49C2632.65,-113.4 2642.4,-111.37 2651.5,-110 2876.04,-76.21 2938.36,-103.11 3167.98,-73.87"/>
<polygon fill="#63b8ff" stroke="#63b8ff" points="3168.51,-77.34 3177.98,-72.58 3167.61,-70.39 3168.51,-77.34"/>
</a>
</g>
</g>
<!-- Node52 -->
<g id="Node000052" class="node">
<title>Node52</title>
<g id="a_Node000052"><a xlink:title=" ">
<polygon fill="#e0e0e0" stroke="#999999" points="2936.5,-140 2796.5,-140 2796.5,-110 2936.5,-110 2936.5,-140"/>
<text text-anchor="start" x="2804.5" y="-128" font-family="Helvetica,sans-Serif" font-size="10.00">cppunit/BriefTestProgress</text>
<text text-anchor="middle" x="2866.5" y="-117" font-family="Helvetica,sans-Serif" font-size="10.00">Listener.h</text>
</a>
</g>
</g>
<!-- Node51&#45;&gt;Node52 -->
<g id="edge43_Node000051_Node000052" class="edge">
<title>Node51&#45;&gt;Node52</title>
<g id="a_edge43_Node000051_Node000052"><a xlink:title=" ">
<path fill="none" stroke="#63b8ff" d="M3221.43,-178.9C3161.58,-171.18 3051.02,-156.5 2946.76,-140.16"/>
<polygon fill="#63b8ff" stroke="#63b8ff" points="2947.11,-136.68 2936.69,-138.58 2946.02,-143.59 2947.11,-136.68"/>
</a>
</g>
</g>
<!-- Node53 -->
<g id="Node000053" class="node">
<title>Node53</title>
<g id="a_Node000053"><a xlink:title=" ">
<polygon fill="#e0e0e0" stroke="#999999" points="3092,-140 2955,-140 2955,-110 3092,-110 3092,-140"/>
<text text-anchor="start" x="2963" y="-128" font-family="Helvetica,sans-Serif" font-size="10.00">cppunit/TextTestProgress</text>
<text text-anchor="middle" x="3023.5" y="-117" font-family="Helvetica,sans-Serif" font-size="10.00">Listener.h</text>
</a>
</g>
</g>
<!-- Node51&#45;&gt;Node53 -->
<g id="edge44_Node000051_Node000053" class="edge">
<title>Node51&#45;&gt;Node53</title>
<g id="a_edge44_Node000051_Node000053"><a xlink:title=" ">
<path fill="none" stroke="#63b8ff" d="M3230.31,-175.99C3194.04,-167.23 3136.57,-153.33 3091.41,-142.42"/>
<polygon fill="#63b8ff" stroke="#63b8ff" points="3092.22,-139.01 3081.68,-140.06 3090.58,-145.82 3092.22,-139.01"/>
</a>
</g>
</g>
<!-- Node54 -->
<g id="Node000054" class="node">
<title>Node54</title>
<g id="a_Node000054"><a xlink:title=" ">
<polygon fill="#e0e0e0" stroke="#999999" points="3265,-134.5 3110,-134.5 3110,-115.5 3265,-115.5 3265,-134.5"/>
<text text-anchor="middle" x="3187.5" y="-122.5" font-family="Helvetica,sans-Serif" font-size="10.00">cppunit/CompilerOutputter.h</text>
</a>
</g>
</g>
<!-- Node51&#45;&gt;Node54 -->
<g id="edge45_Node000051_Node000054" class="edge">
<title>Node51&#45;&gt;Node54</title>
<g id="a_edge45_Node000051_Node000054"><a xlink:title=" ">
<path fill="none" stroke="#63b8ff" d="M3253.99,-175.87C3241.66,-166.62 3221.88,-151.78 3207.09,-140.69"/>
<polygon fill="#63b8ff" stroke="#63b8ff" points="3209.16,-137.87 3199.06,-134.67 3204.96,-143.47 3209.16,-137.87"/>
</a>
</g>
</g>
<!-- Node55 -->
<g id="Node000055" class="node">
<title>Node55</title>
<g id="a_Node000055"><a xlink:title=" ">
<polygon fill="#e0e0e0" stroke="#999999" points="3405.5,-140 3283.5,-140 3283.5,-110 3405.5,-110 3405.5,-140"/>
<text text-anchor="start" x="3291.5" y="-128" font-family="Helvetica,sans-Serif" font-size="10.00">cppunit/extensions</text>
<text text-anchor="middle" x="3344.5" y="-117" font-family="Helvetica,sans-Serif" font-size="10.00">/TestFactoryRegistry.h</text>
</a>
</g>
</g>
<!-- Node51&#45;&gt;Node55 -->
<g id="edge46_Node000051_Node000055" class="edge">
<title>Node51&#45;&gt;Node55</title>
<g id="a_edge46_Node000051_Node000055"><a xlink:title=" ">
<path fill="none" stroke="#63b8ff" d="M3277.16,-175.87C3287.68,-168.08 3303.56,-156.32 3317.26,-146.17"/>
<polygon fill="#63b8ff" stroke="#63b8ff" points="3319.49,-148.88 3325.44,-140.11 3315.32,-143.25 3319.49,-148.88"/>
</a>
</g>
</g>
<!-- Node56 -->
<g id="Node000056" class="node">
<title>Node56</title>
<g id="a_Node000056"><a xlink:title=" ">
<polygon fill="#e0e0e0" stroke="#999999" points="3539,-134.5 3424,-134.5 3424,-115.5 3539,-115.5 3539,-134.5"/>
<text text-anchor="middle" x="3481.5" y="-122.5" font-family="Helvetica,sans-Serif" font-size="10.00">cppunit/TestResult.h</text>
</a>
</g>
</g>
<!-- Node51&#45;&gt;Node56 -->
<g id="edge47_Node000051_Node000056" class="edge">
<title>Node51&#45;&gt;Node56</title>
<g id="a_edge47_Node000051_Node000056"><a xlink:title=" ">
<path fill="none" stroke="#63b8ff" d="M3296.91,-175.99C3334.74,-165.75 3398.41,-148.5 3440.19,-137.19"/>
<polygon fill="#63b8ff" stroke="#63b8ff" points="3441.32,-140.51 3450.05,-134.52 3439.49,-133.75 3441.32,-140.51"/>
</a>
</g>
</g>
<!-- Node57 -->
<g id="Node000057" class="node">
<title>Node57</title>
<g id="a_Node000057"><a xlink:title=" ">
<polygon fill="#e0e0e0" stroke="#999999" points="3715.5,-134.5 3557.5,-134.5 3557.5,-115.5 3715.5,-115.5 3715.5,-134.5"/>
<text text-anchor="middle" x="3636.5" y="-122.5" font-family="Helvetica,sans-Serif" font-size="10.00">cppunit/TestResultCollector.h</text>
</a>
</g>
</g>
<!-- Node51&#45;&gt;Node57 -->
<g id="edge48_Node000051_Node000057" class="edge">
<title>Node51&#45;&gt;Node57</title>
<g id="a_edge48_Node000051_Node000057"><a xlink:title=" ">
<path fill="none" stroke="#63b8ff" d="M3309.62,-177.59C3365.3,-168.86 3464.01,-153.36 3548.5,-140 3556.43,-138.75 3564.76,-137.42 3573.01,-136.12"/>
<polygon fill="#63b8ff" stroke="#63b8ff" points="3573.66,-139.56 3582.99,-134.53 3572.56,-132.64 3573.66,-139.56"/>
</a>
</g>
</g>
<!-- Node58 -->
<g id="Node000058" class="node">
<title>Node58</title>
<g id="a_Node000058"><a xlink:title=" ">
<polygon fill="#e0e0e0" stroke="#999999" points="3851.5,-134.5 3733.5,-134.5 3733.5,-115.5 3851.5,-115.5 3851.5,-134.5"/>
<text text-anchor="middle" x="3792.5" y="-122.5" font-family="Helvetica,sans-Serif" font-size="10.00">cppunit/TestRunner.h</text>
</a>
</g>
</g>
<!-- Node51&#45;&gt;Node58 -->
<g id="edge49_Node000051_Node000058" class="edge">
<title>Node51&#45;&gt;Node58</title>
<g id="a_edge49_Node000051_Node000058"><a xlink:title=" ">
<path fill="none" stroke="#63b8ff" d="M3309.68,-181.79C3391.74,-176.4 3573.1,-162.86 3724.5,-140 3730.91,-139.03 3737.64,-137.85 3744.25,-136.59"/>
<polygon fill="#63b8ff" stroke="#63b8ff" points="3745.37,-139.94 3754.51,-134.57 3744.02,-133.07 3745.37,-139.94"/>
</a>
</g>
</g>
</g>
</svg>

<g id="navigator" transform="translate(0 0)" fill="#404254">
  <rect fill="#f2f5e9" fill-opacity="0.5" stroke="#606060" stroke-width=".5" x="0" y="0" width="60" height="60"/>
  <use id="zoomplus" xlink:href="#zoomPlus" x="17" y="9" onmousedown="handleZoom(evt,'in')"/>
  <use id="zoomminus" xlink:href="#zoomMin" x="42" y="9" onmousedown="handleZoom(evt,'out')"/>
  <use id="reset" xlink:href="#resetDef" x="30" y="36" onmousedown="handleReset()"/>
   <use id="arrowup" xlink:href="#arrowUp" x="0" y="0" onmousedown="handlePan(0,-1)"/>
  <use id="arrowright" xlink:href="#arrowRight" x="0" y="0" onmousedown="handlePan(1,0)"/>
  <use id="arrowdown" xlink:href="#arrowDown" x="0" y="0" onmousedown="handlePan(0,1)"/>
  <use id="arrowleft" xlink:href="#arrowLeft" x="0" y="0" onmousedown="handlePan(-1,0)"/>
</g>
<svg viewBox="0 0 15 15" width="100%" height="30px" preserveAspectRatio="xMaxYMin meet">
 <g id="arrow_out" transform="scale(0.3 0.3)">
  <a xlink:href="testMath_8cc__incl_org.svg" target="_base">
   <rect id="button" ry="5" rx="5" y="6" x="6" height="38" width="38"
        fill="#f2f5e9" fill-opacity="0.5" stroke="#606060" stroke-width="1.0"/>
   <path id="arrow"
     d="M 11.500037,31.436501 C 11.940474,20.09759 22.043105,11.32322 32.158766,21.979434 L 37.068811,17.246167 C 37.068811,17.246167 37.088388,32 37.088388,32 L 22.160133,31.978069 C 22.160133,31.978069 26.997745,27.140456 26.997745,27.140456 C 18.528582,18.264221 13.291696,25.230495 11.500037,31.436501 z"
     style="fill:#404040;"/>
  </a>
 </g>
</svg>

<style type='text/css'>
<![CDATA[
[data-mouse-over-selected='false'] { opacity: 0.7; }
[data-mouse-over-selected='true']  { opacity: 1.0; }
]]>
</style>
<script type="application/ecmascript"><![CDATA[
document.addEventListener('DOMContentLoaded', (event) => {
  highlightEdges();
  highlightAdjacentNodes();
});
]]></script>
</svg>
