<?xml version="1.0" encoding="UTF-8" standalone="no"?>
<!DOCTYPE svg PUBLIC "-//W3C//DTD SVG 1.1//EN"
 "http://www.w3.org/Graphics/SVG/1.1/DTD/svg11.dtd">
<!-- Generated by graphviz version 2.43.0 (0)
 -->
<!-- Title: squid/src/tests/testStatHist.cc Pages: 1 -->
<!--zoomable 269 -->

<svg id="main" version="1.1" xmlns="http://www.w3.org/2000/svg" xmlns:xlink="http://www.w3.org/1999/xlink" xml:space="preserve" onload="init(evt)">
<style type="text/css"><![CDATA[
.node, .edge {opacity: 0.7;}
.node.selected, .edge.selected {opacity: 1;}
.edge:hover path { stroke: red; }
.edge:hover polygon { stroke: red; fill: red; }
]]></style>

<defs>
  <circle id="rim" cx="0" cy="0" r="7"/>
  <circle id="rim2" cx="0" cy="0" r="3.5"/>
  <g id="zoomPlus">
    <use xlink:href="#rim" fill="#404040"><set attributeName="fill" to="#808080" begin="zoomplus.mouseover" end="zoomplus.mouseout"/></use>
    <path d="M-4,0h8M0,-4v8" fill="none" stroke="white" stroke-width="1.5" pointer-events="none"/>
  </g>
  <g id="zoomMin">
    <use xlink:href="#rim" fill="#404040"><set attributeName="fill" to="#808080" begin="zoomminus.mouseover" end="zoomminus.mouseout"/></use>
    <path d="M-4,0h8" fill="none" stroke="white" stroke-width="1.5" pointer-events="none"/>
  </g>
  <g id="arrowUp" transform="translate(30 24)">
    <use xlink:href="#rim"/>
    <path pointer-events="none" fill="none" stroke="white" stroke-width="1.5" d="M0,-3.0v7 M-2.5,-0.5L0,-3.0L2.5,-0.5"/>
  </g>
  <g id="arrowRight" transform="rotate(90) translate(36 -43)">
    <use xlink:href="#rim"/>
    <path pointer-events="none" fill="none" stroke="white" stroke-width="1.5" d="M0,-3.0v7 M-2.5,-0.5L0,-3.0L2.5,-0.5"/>
  </g>
  <g id="arrowDown" transform="rotate(180) translate(-30 -48)">
    <use xlink:href="#rim"/>
    <path pointer-events="none" fill="none" stroke="white" stroke-width="1.5" d="M0,-3.0v7 M-2.5,-0.5L0,-3.0L2.5,-0.5"/>
  </g>
  <g id="arrowLeft" transform="rotate(270) translate(-36 17)">
    <use xlink:href="#rim"/>
    <path pointer-events="none" fill="none" stroke="white" stroke-width="1.5" d="M0,-3.0v7 M-2.5,-0.5L0,-3.0L2.5,-0.5"/>
  </g>
  <g id="resetDef">
    <use xlink:href="#rim2" fill="#404040"><set attributeName="fill" to="#808080" begin="reset.mouseover" end="reset.mouseout"/></use>
  </g>
</defs>
<script type="application/ecmascript">
var viewWidth = 4713;
var viewHeight = 269;
var sectionId = 'dynsection-0';
</script>
<script type="application/ecmascript" xlink:href="svg.min.js"/>
<svg id="graph" class="graph">
<g id="viewport">
<title>squid/src/tests/testStatHist.cc</title>
<!-- Node1 -->
<g id="Node000001" class="node">
<title>Node1</title>
<g id="a_Node000001"><a xlink:title=" ">
<polygon fill="#999999" stroke="#666666" points="3618.5,-261 3490.5,-261 3490.5,-231 3618.5,-231 3618.5,-261"/>
<text text-anchor="start" x="3498.5" y="-249" font-family="Helvetica,sans-Serif" font-size="10.00">squid/src/tests/testStat</text>
<text text-anchor="middle" x="3554.5" y="-238" font-family="Helvetica,sans-Serif" font-size="10.00">Hist.cc</text>
</a>
</g>
</g>
<!-- Node2 -->
<g id="Node000002" class="node">
<title>Node2</title>
<g id="a_Node000002"><a xlink:href="squid_8h.html" target="_top" xlink:title=" ">
<polygon fill="white" stroke="#666666" points="1653.5,-195 1601.5,-195 1601.5,-176 1653.5,-176 1653.5,-195"/>
<text text-anchor="middle" x="1627.5" y="-183" font-family="Helvetica,sans-Serif" font-size="10.00">squid.h</text>
</a>
</g>
</g>
<!-- Node1&#45;&gt;Node2 -->
<g id="edge1_Node000001_Node000002" class="edge">
<title>Node1&#45;&gt;Node2</title>
<g id="a_edge1_Node000001_Node000002"><a xlink:title=" ">
<path fill="none" stroke="#63b8ff" d="M3490.39,-243.05C3186.64,-233.83 1897.41,-194.69 1663.86,-187.6"/>
<polygon fill="#63b8ff" stroke="#63b8ff" points="1663.64,-184.1 1653.54,-187.29 1663.43,-191.09 1663.64,-184.1"/>
</a>
</g>
</g>
<!-- Node44 -->
<g id="Node000044" class="node">
<title>Node44</title>
<g id="a_Node000044"><a xlink:href="cppunit_8h.html" target="_top" xlink:title=" ">
<polygon fill="white" stroke="#666666" points="3555,-195 3454,-195 3454,-176 3555,-176 3555,-195"/>
<text text-anchor="middle" x="3504.5" y="-183" font-family="Helvetica,sans-Serif" font-size="10.00">compat/cppunit.h</text>
</a>
</g>
</g>
<!-- Node1&#45;&gt;Node44 -->
<g id="edge30_Node000001_Node000044" class="edge">
<title>Node1&#45;&gt;Node44</title>
<g id="a_edge30_Node000001_Node000044"><a xlink:title=" ">
<path fill="none" stroke="#63b8ff" d="M3542.4,-230.84C3535.21,-222.43 3526.07,-211.74 3518.57,-202.96"/>
<polygon fill="#63b8ff" stroke="#63b8ff" points="3521.15,-200.59 3511.99,-195.27 3515.83,-205.14 3521.15,-200.59"/>
</a>
</g>
</g>
<!-- Node45 -->
<g id="Node000045" class="node">
<title>Node45</title>
<g id="a_Node000045"><a xlink:href="StatHist_8h.html" target="_top" xlink:title=" ">
<polygon fill="white" stroke="#666666" points="3638,-195 3573,-195 3573,-176 3638,-176 3638,-195"/>
<text text-anchor="middle" x="3605.5" y="-183" font-family="Helvetica,sans-Serif" font-size="10.00">StatHist.h</text>
</a>
</g>
</g>
<!-- Node1&#45;&gt;Node45 -->
<g id="edge31_Node000001_Node000045" class="edge">
<title>Node1&#45;&gt;Node45</title>
<g id="a_edge31_Node000001_Node000045"><a xlink:title=" ">
<path fill="none" stroke="#63b8ff" d="M3566.85,-230.84C3574.17,-222.43 3583.5,-211.74 3591.15,-202.96"/>
<polygon fill="#63b8ff" stroke="#63b8ff" points="3593.92,-205.1 3597.86,-195.27 3588.65,-200.5 3593.92,-205.1"/>
</a>
</g>
</g>
<!-- Node214 -->
<g id="Node000214" class="node">
<title>Node214</title>
<g id="a_Node000214"><a xlink:href="unitTestMain_8h.html" target="_top" xlink:title=" ">
<polygon fill="white" stroke="#666666" points="4162.5,-195 4074.5,-195 4074.5,-176 4162.5,-176 4162.5,-195"/>
<text text-anchor="middle" x="4118.5" y="-183" font-family="Helvetica,sans-Serif" font-size="10.00">unitTestMain.h</text>
</a>
</g>
</g>
<!-- Node1&#45;&gt;Node214 -->
<g id="edge44_Node000001_Node000214" class="edge">
<title>Node1&#45;&gt;Node214</title>
<g id="a_edge44_Node000001_Node000214"><a xlink:title=" ">
<path fill="none" stroke="#63b8ff" d="M3618.65,-238.35C3730.55,-226.74 3959.48,-202.99 4064.13,-192.14"/>
<polygon fill="#63b8ff" stroke="#63b8ff" points="4064.57,-195.61 4074.16,-191.1 4063.85,-188.65 4064.57,-195.61"/>
</a>
</g>
</g>
<!-- Node3 -->
<g id="Node000003" class="node">
<title>Node3</title>
<g id="a_Node000003"><a xlink:href="autoconf_8h.html" target="_top" xlink:title=" ">
<polygon fill="white" stroke="#666666" points="1528.5,-134.5 1460.5,-134.5 1460.5,-115.5 1528.5,-115.5 1528.5,-134.5"/>
<text text-anchor="middle" x="1494.5" y="-122.5" font-family="Helvetica,sans-Serif" font-size="10.00">autoconf.h</text>
</a>
</g>
</g>
<!-- Node2&#45;&gt;Node3 -->
<g id="edge2_Node000002_Node000003" class="edge">
<title>Node2&#45;&gt;Node3</title>
<g id="a_edge2_Node000002_Node000003"><a xlink:title=" ">
<path fill="none" stroke="#63b8ff" d="M1608.16,-175.99C1585.8,-166.16 1548.79,-149.88 1523.1,-138.58"/>
<polygon fill="#63b8ff" stroke="#63b8ff" points="1524.43,-135.34 1513.86,-134.52 1521.61,-141.75 1524.43,-135.34"/>
</a>
</g>
</g>
<!-- Node4 -->
<g id="Node000004" class="node">
<title>Node4</title>
<g id="a_Node000004"><a xlink:href="version_8h.html" target="_top" xlink:title=" ">
<polygon fill="white" stroke="#666666" points="1608.5,-134.5 1546.5,-134.5 1546.5,-115.5 1608.5,-115.5 1608.5,-134.5"/>
<text text-anchor="middle" x="1577.5" y="-122.5" font-family="Helvetica,sans-Serif" font-size="10.00">version.h</text>
</a>
</g>
</g>
<!-- Node2&#45;&gt;Node4 -->
<g id="edge3_Node000002_Node000004" class="edge">
<title>Node2&#45;&gt;Node4</title>
<g id="a_edge3_Node000002_Node000004"><a xlink:title=" ">
<path fill="none" stroke="#63b8ff" d="M1620.12,-175.87C1612.59,-167.05 1600.71,-153.16 1591.41,-142.27"/>
<polygon fill="#63b8ff" stroke="#63b8ff" points="1594.07,-140 1584.91,-134.67 1588.74,-144.54 1594.07,-140"/>
</a>
</g>
</g>
<!-- Node5 -->
<g id="Node000005" class="node">
<title>Node5</title>
<g id="a_Node000005"><a xlink:href="compat_8h.html" target="_top" xlink:title=" ">
<polygon fill="white" stroke="#666666" points="1728.5,-134.5 1626.5,-134.5 1626.5,-115.5 1728.5,-115.5 1728.5,-134.5"/>
<text text-anchor="middle" x="1677.5" y="-122.5" font-family="Helvetica,sans-Serif" font-size="10.00">compat/compat.h</text>
</a>
</g>
</g>
<!-- Node2&#45;&gt;Node5 -->
<g id="edge4_Node000002_Node000005" class="edge">
<title>Node2&#45;&gt;Node5</title>
<g id="a_edge4_Node000002_Node000005"><a xlink:title=" ">
<path fill="none" stroke="#63b8ff" d="M1634.88,-175.87C1642.41,-167.05 1654.29,-153.16 1663.59,-142.27"/>
<polygon fill="#63b8ff" stroke="#63b8ff" points="1666.26,-144.54 1670.09,-134.67 1660.93,-140 1666.26,-144.54"/>
</a>
</g>
</g>
<!-- Node6 -->
<g id="Node000006" class="node">
<title>Node6</title>
<g id="a_Node000006"><a xlink:href="osdetect_8h.html" target="_top" xlink:title=" ">
<polygon fill="white" stroke="#666666" points="107,-74 0,-74 0,-55 107,-55 107,-74"/>
<text text-anchor="middle" x="53.5" y="-62" font-family="Helvetica,sans-Serif" font-size="10.00">compat/osdetect.h</text>
</a>
</g>
</g>
<!-- Node5&#45;&gt;Node6 -->
<g id="edge5_Node000005_Node000006" class="edge">
<title>Node5&#45;&gt;Node6</title>
<g id="a_edge5_Node000005_Node000006"><a xlink:title=" ">
<path fill="none" stroke="#63b8ff" d="M1646.27,-115.43C1637.07,-113.26 1626.94,-111.2 1617.5,-110 958.93,-26.17 783.51,-125.66 117.41,-73.95"/>
<polygon fill="#63b8ff" stroke="#63b8ff" points="117.32,-70.43 107.07,-73.14 116.77,-77.41 117.32,-70.43"/>
</a>
</g>
</g>
<!-- Node7 -->
<g id="Node000007" class="node">
<title>Node7</title>
<g id="a_Node000007"><a xlink:href="fdsetsize_8h.html" target="_top" xlink:title=" ">
<polygon fill="white" stroke="#666666" points="235.5,-74 125.5,-74 125.5,-55 235.5,-55 235.5,-74"/>
<text text-anchor="middle" x="180.5" y="-62" font-family="Helvetica,sans-Serif" font-size="10.00">compat/fdsetsize.h</text>
</a>
</g>
</g>
<!-- Node5&#45;&gt;Node7 -->
<g id="edge6_Node000005_Node000007" class="edge">
<title>Node5&#45;&gt;Node7</title>
<g id="a_edge6_Node000005_Node000007"><a xlink:title=" ">
<path fill="none" stroke="#63b8ff" d="M1646.27,-115.45C1637.07,-113.27 1626.94,-111.21 1617.5,-110 1015.44,-32.68 854.82,-121.25 245.98,-74.01"/>
<polygon fill="#63b8ff" stroke="#63b8ff" points="245.86,-70.49 235.62,-73.2 245.31,-77.47 245.86,-70.49"/>
</a>
</g>
</g>
<!-- Node8 -->
<g id="Node000008" class="node">
<title>Node8</title>
<g id="a_Node000008"><a xlink:href="types_8h.html" target="_top" xlink:title=" ">
<polygon fill="#fff0f0" stroke="red" points="345.5,-74 253.5,-74 253.5,-55 345.5,-55 345.5,-74"/>
<text text-anchor="middle" x="299.5" y="-62" font-family="Helvetica,sans-Serif" font-size="10.00">compat/types.h</text>
</a>
</g>
</g>
<!-- Node5&#45;&gt;Node8 -->
<g id="edge7_Node000005_Node000008" class="edge">
<title>Node5&#45;&gt;Node8</title>
<g id="a_edge7_Node000005_Node000008"><a xlink:title=" ">
<path fill="none" stroke="#63b8ff" d="M1646.27,-115.46C1637.07,-113.29 1626.94,-111.22 1617.5,-110 1063.99,-38.28 915.55,-123.93 356.02,-74"/>
<polygon fill="#63b8ff" stroke="#63b8ff" points="355.94,-70.48 345.66,-73.06 355.31,-77.45 355.94,-70.48"/>
</a>
</g>
</g>
<!-- Node10 -->
<g id="Node000010" class="node">
<title>Node10</title>
<g id="a_Node000010"><a xlink:href="aix_8h.html" target="_top" xlink:title=" ">
<polygon fill="white" stroke="#666666" points="459,-74 364,-74 364,-55 459,-55 459,-74"/>
<text text-anchor="middle" x="411.5" y="-62" font-family="Helvetica,sans-Serif" font-size="10.00">compat/os/aix.h</text>
</a>
</g>
</g>
<!-- Node5&#45;&gt;Node10 -->
<g id="edge8_Node000005_Node000010" class="edge">
<title>Node5&#45;&gt;Node10</title>
<g id="a_edge8_Node000005_Node000010"><a xlink:title=" ">
<path fill="none" stroke="#63b8ff" d="M1646.26,-115.48C1637.07,-113.31 1626.94,-111.24 1617.5,-110 1114.25,-44.07 979.14,-118.76 469.24,-73.92"/>
<polygon fill="#63b8ff" stroke="#63b8ff" points="469.31,-70.41 459.04,-73.01 468.69,-77.39 469.31,-70.41"/>
</a>
</g>
</g>
<!-- Node11 -->
<g id="Node000011" class="node">
<title>Node11</title>
<g id="a_Node000011"><a xlink:href="android_8h.html" target="_top" xlink:title=" ">
<polygon fill="white" stroke="#666666" points="593.5,-74 477.5,-74 477.5,-55 593.5,-55 593.5,-74"/>
<text text-anchor="middle" x="535.5" y="-62" font-family="Helvetica,sans-Serif" font-size="10.00">compat/os/android.h</text>
</a>
</g>
</g>
<!-- Node5&#45;&gt;Node11 -->
<g id="edge9_Node000005_Node000011" class="edge">
<title>Node5&#45;&gt;Node11</title>
<g id="a_edge9_Node000005_Node000011"><a xlink:title=" ">
<path fill="none" stroke="#63b8ff" d="M1645.95,-115.43C1636.84,-113.28 1626.83,-111.24 1617.5,-110 1173.33,-50.87 1054.16,-109.57 603.6,-74"/>
<polygon fill="#63b8ff" stroke="#63b8ff" points="603.82,-70.5 593.57,-73.19 603.26,-77.48 603.82,-70.5"/>
</a>
</g>
</g>
<!-- Node12 -->
<g id="Node000012" class="node">
<title>Node12</title>
<g id="a_Node000012"><a xlink:href="dragonfly_8h.html" target="_top" xlink:title=" ">
<polygon fill="white" stroke="#666666" points="735.5,-74 611.5,-74 611.5,-55 735.5,-55 735.5,-74"/>
<text text-anchor="middle" x="673.5" y="-62" font-family="Helvetica,sans-Serif" font-size="10.00">compat/os/dragonfly.h</text>
</a>
</g>
</g>
<!-- Node5&#45;&gt;Node12 -->
<g id="edge10_Node000005_Node000012" class="edge">
<title>Node5&#45;&gt;Node12</title>
<g id="a_edge10_Node000005_Node000012"><a xlink:title=" ">
<path fill="none" stroke="#63b8ff" d="M1645.95,-115.47C1636.83,-113.32 1626.83,-111.27 1617.5,-110 1236,-58.1 1133.33,-104.3 745.89,-74.04"/>
<polygon fill="#63b8ff" stroke="#63b8ff" points="746.06,-70.54 735.81,-73.24 745.5,-77.52 746.06,-70.54"/>
</a>
</g>
</g>
<!-- Node13 -->
<g id="Node000013" class="node">
<title>Node13</title>
<g id="a_Node000013"><a xlink:href="freebsd_8h.html" target="_top" xlink:title=" ">
<polygon fill="white" stroke="#666666" points="869.5,-74 753.5,-74 753.5,-55 869.5,-55 869.5,-74"/>
<text text-anchor="middle" x="811.5" y="-62" font-family="Helvetica,sans-Serif" font-size="10.00">compat/os/freebsd.h</text>
</a>
</g>
</g>
<!-- Node5&#45;&gt;Node13 -->
<g id="edge11_Node000005_Node000013" class="edge">
<title>Node5&#45;&gt;Node13</title>
<g id="a_edge11_Node000005_Node000013"><a xlink:title=" ">
<path fill="none" stroke="#63b8ff" d="M1645.63,-115.44C1636.6,-113.32 1626.72,-111.29 1617.5,-110 1295.17,-64.92 1207.86,-101.94 879.85,-74.04"/>
<polygon fill="#63b8ff" stroke="#63b8ff" points="879.84,-70.52 869.58,-73.15 879.24,-77.5 879.84,-70.52"/>
</a>
</g>
</g>
<!-- Node14 -->
<g id="Node000014" class="node">
<title>Node14</title>
<g id="a_Node000014"><a xlink:href="hpux_8h.html" target="_top" xlink:title=" ">
<polygon fill="white" stroke="#666666" points="991.5,-74 887.5,-74 887.5,-55 991.5,-55 991.5,-74"/>
<text text-anchor="middle" x="939.5" y="-62" font-family="Helvetica,sans-Serif" font-size="10.00">compat/os/hpux.h</text>
</a>
</g>
</g>
<!-- Node5&#45;&gt;Node14 -->
<g id="edge12_Node000005_Node000014" class="edge">
<title>Node5&#45;&gt;Node14</title>
<g id="a_edge12_Node000005_Node000014"><a xlink:title=" ">
<path fill="none" stroke="#63b8ff" d="M1645.62,-115.49C1636.59,-113.38 1626.71,-111.33 1617.5,-110 1348.96,-71.13 1275.64,-100.25 1001.95,-74.05"/>
<polygon fill="#63b8ff" stroke="#63b8ff" points="1002,-70.54 991.71,-73.06 1001.32,-77.51 1002,-70.54"/>
</a>
</g>
</g>
<!-- Node15 -->
<g id="Node000015" class="node">
<title>Node15</title>
<g id="a_Node000015"><a xlink:href="linux_8h.html" target="_top" xlink:title=" ">
<polygon fill="white" stroke="#666666" points="1113.5,-74 1009.5,-74 1009.5,-55 1113.5,-55 1113.5,-74"/>
<text text-anchor="middle" x="1061.5" y="-62" font-family="Helvetica,sans-Serif" font-size="10.00">compat/os/linux.h</text>
</a>
</g>
</g>
<!-- Node5&#45;&gt;Node15 -->
<g id="edge13_Node000005_Node000015" class="edge">
<title>Node5&#45;&gt;Node15</title>
<g id="a_edge13_Node000005_Node000015"><a xlink:title=" ">
<path fill="none" stroke="#63b8ff" d="M1644.98,-115.44C1636.12,-113.37 1626.49,-111.37 1617.5,-110 1402.73,-77.34 1343.63,-96.63 1123.96,-74.08"/>
<polygon fill="#63b8ff" stroke="#63b8ff" points="1124.03,-70.56 1113.72,-73.01 1123.3,-77.53 1124.03,-70.56"/>
</a>
</g>
</g>
<!-- Node16 -->
<g id="Node000016" class="node">
<title>Node16</title>
<g id="a_Node000016"><a xlink:href="macosx_8h.html" target="_top" xlink:title=" ">
<polygon fill="white" stroke="#666666" points="1249.5,-74 1131.5,-74 1131.5,-55 1249.5,-55 1249.5,-74"/>
<text text-anchor="middle" x="1190.5" y="-62" font-family="Helvetica,sans-Serif" font-size="10.00">compat/os/macosx.h</text>
</a>
</g>
</g>
<!-- Node5&#45;&gt;Node16 -->
<g id="edge14_Node000005_Node000016" class="edge">
<title>Node5&#45;&gt;Node16</title>
<g id="a_edge14_Node000005_Node000016"><a xlink:title=" ">
<path fill="none" stroke="#63b8ff" d="M1644.33,-115.45C1635.64,-113.44 1626.26,-111.45 1617.5,-110 1462.56,-84.27 1419.6,-91.62 1260.01,-74.13"/>
<polygon fill="#63b8ff" stroke="#63b8ff" points="1260.15,-70.63 1249.83,-73 1259.38,-77.59 1260.15,-70.63"/>
</a>
</g>
</g>
<!-- Node17 -->
<g id="Node000017" class="node">
<title>Node17</title>
<g id="a_Node000017"><a xlink:href="mingw_8h.html" target="_top" xlink:title=" ">
<polygon fill="white" stroke="#666666" points="1379.5,-74 1267.5,-74 1267.5,-55 1379.5,-55 1379.5,-74"/>
<text text-anchor="middle" x="1323.5" y="-62" font-family="Helvetica,sans-Serif" font-size="10.00">compat/os/mingw.h</text>
</a>
</g>
</g>
<!-- Node5&#45;&gt;Node17 -->
<g id="edge15_Node000005_Node000017" class="edge">
<title>Node5&#45;&gt;Node17</title>
<g id="a_edge15_Node000005_Node000017"><a xlink:title=" ">
<path fill="none" stroke="#63b8ff" d="M1643.02,-115.46C1634.69,-113.54 1625.8,-111.59 1617.5,-110 1575.07,-101.85 1462.45,-85.34 1389.55,-74.88"/>
<polygon fill="#63b8ff" stroke="#63b8ff" points="1389.94,-71.4 1379.54,-73.44 1388.94,-78.33 1389.94,-71.4"/>
</a>
</g>
</g>
<!-- Node18 -->
<g id="Node000018" class="node">
<title>Node18</title>
<g id="a_Node000018"><a xlink:href="mswindows_8h.html" target="_top" xlink:title=" ">
<polygon fill="white" stroke="#666666" points="1535,-74 1398,-74 1398,-55 1535,-55 1535,-74"/>
<text text-anchor="middle" x="1466.5" y="-62" font-family="Helvetica,sans-Serif" font-size="10.00">compat/os/mswindows.h</text>
</a>
</g>
</g>
<!-- Node5&#45;&gt;Node18 -->
<g id="edge16_Node000005_Node000018" class="edge">
<title>Node5&#45;&gt;Node18</title>
<g id="a_edge16_Node000005_Node000018"><a xlink:title=" ">
<path fill="none" stroke="#63b8ff" d="M1646.82,-115.49C1609.94,-105.27 1547.93,-88.08 1507.11,-76.76"/>
<polygon fill="#63b8ff" stroke="#63b8ff" points="1507.79,-73.32 1497.22,-74.02 1505.92,-80.06 1507.79,-73.32"/>
</a>
</g>
</g>
<!-- Node19 -->
<g id="Node000019" class="node">
<title>Node19</title>
<g id="a_Node000019"><a xlink:href="netbsd_8h.html" target="_top" xlink:title=" ">
<polygon fill="white" stroke="#666666" points="1666,-74 1553,-74 1553,-55 1666,-55 1666,-74"/>
<text text-anchor="middle" x="1609.5" y="-62" font-family="Helvetica,sans-Serif" font-size="10.00">compat/os/netbsd.h</text>
</a>
</g>
</g>
<!-- Node5&#45;&gt;Node19 -->
<g id="edge17_Node000005_Node000019" class="edge">
<title>Node5&#45;&gt;Node19</title>
<g id="a_edge17_Node000005_Node000019"><a xlink:title=" ">
<path fill="none" stroke="#63b8ff" d="M1667.47,-115.37C1656.92,-106.3 1640.11,-91.84 1627.31,-80.82"/>
<polygon fill="#63b8ff" stroke="#63b8ff" points="1629.44,-78.04 1619.57,-74.17 1624.87,-83.34 1629.44,-78.04"/>
</a>
</g>
</g>
<!-- Node20 -->
<g id="Node000020" class="node">
<title>Node20</title>
<g id="a_Node000020"><a xlink:href="openbsd_8h.html" target="_top" xlink:title=" ">
<polygon fill="white" stroke="#666666" points="1805,-74 1684,-74 1684,-55 1805,-55 1805,-74"/>
<text text-anchor="middle" x="1744.5" y="-62" font-family="Helvetica,sans-Serif" font-size="10.00">compat/os/openbsd.h</text>
</a>
</g>
</g>
<!-- Node5&#45;&gt;Node20 -->
<g id="edge18_Node000005_Node000020" class="edge">
<title>Node5&#45;&gt;Node20</title>
<g id="a_edge18_Node000005_Node000020"><a xlink:title=" ">
<path fill="none" stroke="#63b8ff" d="M1687.39,-115.37C1697.78,-106.3 1714.34,-91.84 1726.95,-80.82"/>
<polygon fill="#63b8ff" stroke="#63b8ff" points="1729.34,-83.38 1734.57,-74.17 1724.74,-78.11 1729.34,-83.38"/>
</a>
</g>
</g>
<!-- Node21 -->
<g id="Node000021" class="node">
<title>Node21</title>
<g id="a_Node000021"><a xlink:href="os2_8h.html" target="_top" xlink:title=" ">
<polygon fill="white" stroke="#666666" points="1920,-74 1823,-74 1823,-55 1920,-55 1920,-74"/>
<text text-anchor="middle" x="1871.5" y="-62" font-family="Helvetica,sans-Serif" font-size="10.00">compat/os/os2.h</text>
</a>
</g>
</g>
<!-- Node5&#45;&gt;Node21 -->
<g id="edge19_Node000005_Node000021" class="edge">
<title>Node5&#45;&gt;Node21</title>
<g id="a_edge19_Node000005_Node000021"><a xlink:title=" ">
<path fill="none" stroke="#63b8ff" d="M1705.71,-115.49C1739.47,-105.31 1796.15,-88.22 1833.68,-76.9"/>
<polygon fill="#63b8ff" stroke="#63b8ff" points="1834.69,-80.25 1843.26,-74.02 1832.67,-73.55 1834.69,-80.25"/>
</a>
</g>
</g>
<!-- Node22 -->
<g id="Node000022" class="node">
<title>Node22</title>
<g id="a_Node000022"><a xlink:href="qnx_8h.html" target="_top" xlink:title=" ">
<polygon fill="white" stroke="#666666" points="2036.5,-74 1938.5,-74 1938.5,-55 2036.5,-55 2036.5,-74"/>
<text text-anchor="middle" x="1987.5" y="-62" font-family="Helvetica,sans-Serif" font-size="10.00">compat/os/qnx.h</text>
</a>
</g>
</g>
<!-- Node5&#45;&gt;Node22 -->
<g id="edge20_Node000005_Node000022" class="edge">
<title>Node5&#45;&gt;Node22</title>
<g id="a_edge20_Node000005_Node000022"><a xlink:title=" ">
<path fill="none" stroke="#63b8ff" d="M1722.58,-115.49C1778.14,-105.01 1872.52,-87.2 1932.35,-75.91"/>
<polygon fill="#63b8ff" stroke="#63b8ff" points="1933.19,-79.31 1942.37,-74.02 1931.89,-72.43 1933.19,-79.31"/>
</a>
</g>
</g>
<!-- Node23 -->
<g id="Node000023" class="node">
<title>Node23</title>
<g id="a_Node000023"><a xlink:href="solaris_8h.html" target="_top" xlink:title=" ">
<polygon fill="white" stroke="#666666" points="2166.5,-74 2054.5,-74 2054.5,-55 2166.5,-55 2166.5,-74"/>
<text text-anchor="middle" x="2110.5" y="-62" font-family="Helvetica,sans-Serif" font-size="10.00">compat/os/solaris.h</text>
</a>
</g>
</g>
<!-- Node5&#45;&gt;Node23 -->
<g id="edge21_Node000005_Node000023" class="edge">
<title>Node5&#45;&gt;Node23</title>
<g id="a_edge21_Node000005_Node000023"><a xlink:title=" ">
<path fill="none" stroke="#63b8ff" d="M1728.87,-117.06C1807.52,-106.43 1957.76,-86.14 2044.42,-74.43"/>
<polygon fill="#63b8ff" stroke="#63b8ff" points="2044.97,-77.89 2054.41,-73.08 2044.03,-70.95 2044.97,-77.89"/>
</a>
</g>
</g>
<!-- Node24 -->
<g id="Node000024" class="node">
<title>Node24</title>
<g id="a_Node000024"><a xlink:href="sunos_8h.html" target="_top" xlink:title=" ">
<polygon fill="white" stroke="#666666" points="2292.5,-74 2184.5,-74 2184.5,-55 2292.5,-55 2292.5,-74"/>
<text text-anchor="middle" x="2238.5" y="-62" font-family="Helvetica,sans-Serif" font-size="10.00">compat/os/sunos.h</text>
</a>
</g>
</g>
<!-- Node5&#45;&gt;Node24 -->
<g id="edge22_Node000005_Node000024" class="edge">
<title>Node5&#45;&gt;Node24</title>
<g id="a_edge22_Node000005_Node000024"><a xlink:title=" ">
<path fill="none" stroke="#63b8ff" d="M1728.82,-119.43C1817.43,-111.41 2005.1,-93.86 2174.14,-74.13"/>
<polygon fill="#63b8ff" stroke="#63b8ff" points="2174.69,-77.58 2184.22,-72.94 2173.88,-70.63 2174.69,-77.58"/>
</a>
</g>
</g>
<!-- Node25 -->
<g id="Node000025" class="node">
<title>Node25</title>
<g id="a_Node000025"><a xlink:href="assert_8h.html" target="_top" xlink:title=" ">
<polygon fill="white" stroke="#666666" points="2406,-74 2311,-74 2311,-55 2406,-55 2406,-74"/>
<text text-anchor="middle" x="2358.5" y="-62" font-family="Helvetica,sans-Serif" font-size="10.00">compat/assert.h</text>
</a>
</g>
</g>
<!-- Node5&#45;&gt;Node25 -->
<g id="edge23_Node000005_Node000025" class="edge">
<title>Node5&#45;&gt;Node25</title>
<g id="a_edge23_Node000005_Node000025"><a xlink:title=" ">
<path fill="none" stroke="#63b8ff" d="M1728.57,-121.09C1833.61,-114.85 2081.67,-98.79 2300.86,-73.99"/>
<polygon fill="#63b8ff" stroke="#63b8ff" points="2301.41,-77.45 2310.95,-72.84 2300.61,-70.49 2301.41,-77.45"/>
</a>
</g>
</g>
<!-- Node26 -->
<g id="Node000026" class="node">
<title>Node26</title>
<g id="a_Node000026"><a xlink:href="compat__shared_8h.html" target="_top" xlink:title=" ">
<polygon fill="#fff0f0" stroke="red" points="2564.5,-74 2424.5,-74 2424.5,-55 2564.5,-55 2564.5,-74"/>
<text text-anchor="middle" x="2494.5" y="-62" font-family="Helvetica,sans-Serif" font-size="10.00">compat/compat_shared.h</text>
</a>
</g>
</g>
<!-- Node5&#45;&gt;Node26 -->
<g id="edge24_Node000005_Node000026" class="edge">
<title>Node5&#45;&gt;Node26</title>
<g id="a_edge24_Node000005_Node000026"><a xlink:title=" ">
<path fill="none" stroke="#63b8ff" d="M1728.93,-121.19C1847.53,-114.56 2149.58,-96.83 2414.09,-74"/>
<polygon fill="#63b8ff" stroke="#63b8ff" points="2414.61,-77.47 2424.27,-73.11 2414.01,-70.49 2414.61,-77.47"/>
</a>
</g>
</g>
<!-- Node36 -->
<g id="Node000036" class="node">
<title>Node36</title>
<g id="a_Node000036"><a xlink:href="stdvarargs_8h.html" target="_top" xlink:title=" ">
<polygon fill="#fff0f0" stroke="red" points="2700,-74 2583,-74 2583,-55 2700,-55 2700,-74"/>
<text text-anchor="middle" x="2641.5" y="-62" font-family="Helvetica,sans-Serif" font-size="10.00">compat/stdvarargs.h</text>
</a>
</g>
</g>
<!-- Node5&#45;&gt;Node36 -->
<g id="edge25_Node000005_Node000036" class="edge">
<title>Node5&#45;&gt;Node36</title>
<g id="a_edge25_Node000005_Node000036"><a xlink:title=" ">
<path fill="none" stroke="#63b8ff" d="M1728.61,-122.38C1864.25,-117.81 2244.78,-103.27 2572.75,-74"/>
<polygon fill="#63b8ff" stroke="#63b8ff" points="2573.28,-77.46 2582.92,-73.08 2572.65,-70.49 2573.28,-77.46"/>
</a>
</g>
</g>
<!-- Node38 -->
<g id="Node000038" class="node">
<title>Node38</title>
<g id="a_Node000038"><a xlink:href="stdio_8h.html" target="_top" xlink:title=" ">
<polygon fill="#fff0f0" stroke="red" points="2807,-74 2718,-74 2718,-55 2807,-55 2807,-74"/>
<text text-anchor="middle" x="2762.5" y="-62" font-family="Helvetica,sans-Serif" font-size="10.00">compat/stdio.h</text>
</a>
</g>
</g>
<!-- Node5&#45;&gt;Node38 -->
<g id="edge26_Node000005_Node000038" class="edge">
<title>Node5&#45;&gt;Node38</title>
<g id="a_edge26_Node000005_Node000038"><a xlink:title=" ">
<path fill="none" stroke="#63b8ff" d="M1728.6,-123.47C1877.79,-121.49 2325.73,-112.63 2707.62,-73.96"/>
<polygon fill="#63b8ff" stroke="#63b8ff" points="2708.17,-77.42 2717.76,-72.92 2707.46,-70.46 2708.17,-77.42"/>
</a>
</g>
</g>
<!-- Node40 -->
<g id="Node000040" class="node">
<title>Node40</title>
<g id="a_Node000040"><a xlink:href="statvfs_8h.html" target="_top" xlink:title=" ">
<polygon fill="white" stroke="#666666" points="2924,-74 2825,-74 2825,-55 2924,-55 2924,-74"/>
<text text-anchor="middle" x="2874.5" y="-62" font-family="Helvetica,sans-Serif" font-size="10.00">compat/statvfs.h</text>
</a>
</g>
</g>
<!-- Node5&#45;&gt;Node40 -->
<g id="edge27_Node000005_Node000040" class="edge">
<title>Node5&#45;&gt;Node40</title>
<g id="a_edge27_Node000005_Node000040"><a xlink:title=" ">
<path fill="none" stroke="#63b8ff" d="M1728.67,-123.56C1887.94,-121.8 2389.18,-113.37 2814.93,-73.94"/>
<polygon fill="#63b8ff" stroke="#63b8ff" points="2815.34,-77.41 2824.97,-73 2814.69,-70.44 2815.34,-77.41"/>
</a>
</g>
</g>
<!-- Node41 -->
<g id="Node000041" class="node">
<title>Node41</title>
<g id="a_Node000041"><a xlink:href="debug_8h.html" target="_top" xlink:title=" ">
<polygon fill="white" stroke="#666666" points="3037,-74 2942,-74 2942,-55 3037,-55 3037,-74"/>
<text text-anchor="middle" x="2989.5" y="-62" font-family="Helvetica,sans-Serif" font-size="10.00">compat/debug.h</text>
</a>
</g>
</g>
<!-- Node5&#45;&gt;Node41 -->
<g id="edge28_Node000005_Node000041" class="edge">
<title>Node5&#45;&gt;Node41</title>
<g id="a_edge28_Node000005_Node000041"><a xlink:title=" ">
<path fill="none" stroke="#63b8ff" d="M1728.74,-123.94C1898.57,-123.34 2458.56,-117.97 2931.85,-73.93"/>
<polygon fill="#63b8ff" stroke="#63b8ff" points="2932.33,-77.4 2941.96,-72.98 2931.68,-70.43 2932.33,-77.4"/>
</a>
</g>
</g>
<!-- Node42 -->
<g id="Node000042" class="node">
<title>Node42</title>
<g id="a_Node000042"><a xlink:href="valgrind_8h.html" target="_top" xlink:title=" ">
<polygon fill="#fff0f0" stroke="red" points="3160,-74 3055,-74 3055,-55 3160,-55 3160,-74"/>
<text text-anchor="middle" x="3107.5" y="-62" font-family="Helvetica,sans-Serif" font-size="10.00">compat/valgrind.h</text>
</a>
</g>
</g>
<!-- Node5&#45;&gt;Node42 -->
<g id="edge29_Node000005_Node000042" class="edge">
<title>Node5&#45;&gt;Node42</title>
<g id="a_edge29_Node000005_Node000042"><a xlink:title=" ">
<path fill="none" stroke="#63b8ff" d="M1728.54,-123.97C1907.71,-123.46 2524.68,-118.46 3044.44,-73.98"/>
<polygon fill="#63b8ff" stroke="#63b8ff" points="3045.11,-77.44 3054.77,-73.09 3044.51,-70.46 3045.11,-77.44"/>
</a>
</g>
</g>
<!-- Node46 -->
<g id="Node000046" class="node">
<title>Node46</title>
<g id="a_Node000046"><a xlink:href="Store_8h.html" target="_top" xlink:title=" ">
<polygon fill="#fff0f0" stroke="red" points="3631,-134.5 3580,-134.5 3580,-115.5 3631,-115.5 3631,-134.5"/>
<text text-anchor="middle" x="3605.5" y="-122.5" font-family="Helvetica,sans-Serif" font-size="10.00">Store.h</text>
</a>
</g>
</g>
<!-- Node45&#45;&gt;Node46 -->
<g id="edge32_Node000045_Node000046" class="edge">
<title>Node45&#45;&gt;Node46</title>
<g id="a_edge32_Node000045_Node000046"><a xlink:title=" ">
<path fill="none" stroke="#63b8ff" d="M3605.5,-175.87C3605.5,-167.75 3605.5,-155.31 3605.5,-144.89"/>
<polygon fill="#63b8ff" stroke="#63b8ff" points="3609,-144.67 3605.5,-134.67 3602,-144.67 3609,-144.67"/>
</a>
</g>
</g>
<!-- Node47 -->
<g id="Node000047" class="node">
<title>Node47</title>
<g id="a_Node000047"><a xlink:href="DelayedAsyncCalls_8h.html" target="_top" xlink:title=" ">
<polygon fill="#fff0f0" stroke="red" points="3324.5,-74 3178.5,-74 3178.5,-55 3324.5,-55 3324.5,-74"/>
<text text-anchor="middle" x="3251.5" y="-62" font-family="Helvetica,sans-Serif" font-size="10.00">base/DelayedAsyncCalls.h</text>
</a>
</g>
</g>
<!-- Node46&#45;&gt;Node47 -->
<g id="edge33_Node000046_Node000047" class="edge">
<title>Node46&#45;&gt;Node47</title>
<g id="a_edge33_Node000046_Node000047"><a xlink:title=" ">
<path fill="none" stroke="#63b8ff" d="M3579.76,-119.75C3524.25,-110.57 3392,-88.72 3313.35,-75.72"/>
<polygon fill="#63b8ff" stroke="#63b8ff" points="3313.53,-72.2 3303.09,-74.03 3312.39,-79.11 3313.53,-72.2"/>
</a>
</g>
</g>
<!-- Node62 -->
<g id="Node000062" class="node">
<title>Node62</title>
<g id="a_Node000062"><a xlink:href="Packable_8h.html" target="_top" xlink:title=" ">
<polygon fill="white" stroke="#666666" points="3438,-74 3343,-74 3343,-55 3438,-55 3438,-74"/>
<text text-anchor="middle" x="3390.5" y="-62" font-family="Helvetica,sans-Serif" font-size="10.00">base/Packable.h</text>
</a>
</g>
</g>
<!-- Node46&#45;&gt;Node62 -->
<g id="edge34_Node000046_Node000062" class="edge">
<title>Node46&#45;&gt;Node62</title>
<g id="a_edge34_Node000046_Node000062"><a xlink:title=" ">
<path fill="none" stroke="#63b8ff" d="M3579.99,-117.06C3543.36,-107.09 3475.45,-88.61 3431.66,-76.7"/>
<polygon fill="#63b8ff" stroke="#63b8ff" points="3432.46,-73.29 3421.89,-74.04 3430.62,-80.04 3432.46,-73.29"/>
</a>
</g>
</g>
<!-- Node65 -->
<g id="Node000065" class="node">
<title>Node65</title>
<g id="a_Node000065"><a xlink:href="Range_8h.html" target="_top" xlink:title=" ">
<polygon fill="#fff0f0" stroke="red" points="3539,-74 3456,-74 3456,-55 3539,-55 3539,-74"/>
<text text-anchor="middle" x="3497.5" y="-62" font-family="Helvetica,sans-Serif" font-size="10.00">base/Range.h</text>
</a>
</g>
</g>
<!-- Node46&#45;&gt;Node65 -->
<g id="edge35_Node000046_Node000065" class="edge">
<title>Node46&#45;&gt;Node65</title>
<g id="a_edge35_Node000046_Node000065"><a xlink:title=" ">
<path fill="none" stroke="#63b8ff" d="M3589.56,-115.37C3571.86,-105.78 3543.04,-90.17 3522.36,-78.97"/>
<polygon fill="#63b8ff" stroke="#63b8ff" points="3523.96,-75.85 3513.5,-74.17 3520.63,-82.01 3523.96,-75.85"/>
</a>
</g>
</g>
<!-- Node53 -->
<g id="Node000053" class="node">
<title>Node53</title>
<g id="a_Node000053"><a xlink:href="RefCount_8h.html" target="_top" xlink:title=" ">
<polygon fill="#fff0f0" stroke="red" points="3655,-19 3558,-19 3558,0 3655,0 3655,-19"/>
<text text-anchor="middle" x="3606.5" y="-7" font-family="Helvetica,sans-Serif" font-size="10.00">base/RefCount.h</text>
</a>
</g>
</g>
<!-- Node46&#45;&gt;Node53 -->
<g id="edge36_Node000046_Node000053" class="edge">
<title>Node46&#45;&gt;Node53</title>
<g id="a_edge36_Node000046_Node000053"><a xlink:title=" ">
<path fill="none" stroke="#63b8ff" d="M3600.23,-115.15C3593.11,-102.1 3581.81,-76.87 3586.5,-55 3588.47,-45.8 3592.5,-36.2 3596.43,-28.29"/>
<polygon fill="#63b8ff" stroke="#63b8ff" points="3599.59,-29.79 3601.18,-19.32 3593.41,-26.51 3599.59,-29.79"/>
</a>
</g>
</g>
<!-- Node67 -->
<g id="Node000067" class="node">
<title>Node67</title>
<g id="a_Node000067"><a xlink:href="comm_2forward_8h.html" target="_top" xlink:title=" ">
<polygon fill="#fff0f0" stroke="red" points="3693,-74 3596,-74 3596,-55 3693,-55 3693,-74"/>
<text text-anchor="middle" x="3644.5" y="-62" font-family="Helvetica,sans-Serif" font-size="10.00">comm/forward.h</text>
</a>
</g>
</g>
<!-- Node46&#45;&gt;Node67 -->
<g id="edge37_Node000046_Node000067" class="edge">
<title>Node46&#45;&gt;Node67</title>
<g id="a_edge37_Node000046_Node000067"><a xlink:title=" ">
<path fill="none" stroke="#63b8ff" d="M3611.25,-115.37C3616.96,-106.81 3625.85,-93.47 3633.01,-82.74"/>
<polygon fill="#63b8ff" stroke="#63b8ff" points="3636.09,-84.43 3638.72,-74.17 3630.26,-80.55 3636.09,-84.43"/>
</a>
</g>
</g>
<!-- Node69 -->
<g id="Node000069" class="node">
<title>Node69</title>
<g id="a_Node000069"><a xlink:href="hash_8h.html" target="_top" xlink:title=" ">
<polygon fill="white" stroke="#666666" points="3760,-74 3711,-74 3711,-55 3760,-55 3760,-74"/>
<text text-anchor="middle" x="3735.5" y="-62" font-family="Helvetica,sans-Serif" font-size="10.00">hash.h</text>
</a>
</g>
</g>
<!-- Node46&#45;&gt;Node69 -->
<g id="edge39_Node000046_Node000069" class="edge">
<title>Node46&#45;&gt;Node69</title>
<g id="a_edge39_Node000046_Node000069"><a xlink:title=" ">
<path fill="none" stroke="#63b8ff" d="M3624.4,-115.49C3646.16,-105.7 3682.12,-89.52 3707.21,-78.23"/>
<polygon fill="#63b8ff" stroke="#63b8ff" points="3708.89,-81.31 3716.57,-74.02 3706.02,-74.93 3708.89,-81.31"/>
</a>
</g>
</g>
<!-- Node70 -->
<g id="Node000070" class="node">
<title>Node70</title>
<g id="a_Node000070"><a xlink:href="http_2forward_8h.html" target="_top" xlink:title=" ">
<polygon fill="#fff0f0" stroke="red" points="3876.5,-19 3790.5,-19 3790.5,0 3876.5,0 3876.5,-19"/>
<text text-anchor="middle" x="3833.5" y="-7" font-family="Helvetica,sans-Serif" font-size="10.00">http/forward.h</text>
</a>
</g>
</g>
<!-- Node46&#45;&gt;Node70 -->
<g id="edge40_Node000046_Node000070" class="edge">
<title>Node46&#45;&gt;Node70</title>
<g id="a_edge40_Node000046_Node000070"><a xlink:title=" ">
<path fill="none" stroke="#63b8ff" d="M3625.72,-115.49C3630.53,-113.58 3635.67,-111.64 3640.5,-110 3696.46,-91 3717.33,-103.57 3768.5,-74 3789.31,-61.97 3808.38,-41.77 3820.4,-27.38"/>
<polygon fill="#63b8ff" stroke="#63b8ff" points="3823.37,-29.28 3826.93,-19.3 3817.92,-24.88 3823.37,-29.28"/>
</a>
</g>
</g>
<!-- Node76 -->
<g id="Node000076" class="node">
<title>Node76</title>
<g id="a_Node000076"><a xlink:href="RequestMethod_8h.html" target="_top" xlink:title=" ">
<polygon fill="#fff0f0" stroke="red" points="3942,-74 3817,-74 3817,-55 3942,-55 3942,-74"/>
<text text-anchor="middle" x="3879.5" y="-62" font-family="Helvetica,sans-Serif" font-size="10.00">http/RequestMethod.h</text>
</a>
</g>
</g>
<!-- Node46&#45;&gt;Node76 -->
<g id="edge41_Node000046_Node000076" class="edge">
<title>Node46&#45;&gt;Node76</title>
<g id="a_edge41_Node000046_Node000076"><a xlink:title=" ">
<path fill="none" stroke="#63b8ff" d="M3624.88,-115.46C3629.9,-113.47 3635.35,-111.49 3640.5,-110 3695.37,-94.08 3759.04,-82.56 3806.86,-75.23"/>
<polygon fill="#63b8ff" stroke="#63b8ff" points="3807.45,-78.68 3816.82,-73.73 3806.41,-71.76 3807.45,-78.68"/>
</a>
</g>
</g>
<!-- Node98 -->
<g id="Node000098" class="node">
<title>Node98</title>
<g id="a_Node000098"><a xlink:href="HttpReply_8h.html" target="_top" xlink:title=" ">
<polygon fill="#fff0f0" stroke="red" points="4033,-74 3960,-74 3960,-55 4033,-55 4033,-74"/>
<text text-anchor="middle" x="3996.5" y="-62" font-family="Helvetica,sans-Serif" font-size="10.00">HttpReply.h</text>
</a>
</g>
</g>
<!-- Node46&#45;&gt;Node98 -->
<g id="edge43_Node000046_Node000098" class="edge">
<title>Node46&#45;&gt;Node98</title>
<g id="a_edge43_Node000046_Node000098"><a xlink:title=" ">
<path fill="none" stroke="#63b8ff" d="M3624.45,-115.36C3629.57,-113.32 3635.17,-111.35 3640.5,-110 3771.81,-76.74 3811.48,-93.77 3949.75,-73.99"/>
<polygon fill="#63b8ff" stroke="#63b8ff" points="3950.49,-77.41 3959.88,-72.5 3949.48,-70.49 3950.49,-77.41"/>
</a>
</g>
</g>
<!-- Node67&#45;&gt;Node53 -->
<g id="edge38_Node000067_Node000053" class="edge">
<title>Node67&#45;&gt;Node53</title>
<g id="a_edge38_Node000067_Node000053"><a xlink:title=" ">
<path fill="none" stroke="#63b8ff" d="M3638.23,-54.75C3632.91,-47.34 3625.14,-36.5 3618.62,-27.41"/>
<polygon fill="#63b8ff" stroke="#63b8ff" points="3621.33,-25.18 3612.66,-19.09 3615.64,-29.26 3621.33,-25.18"/>
</a>
</g>
</g>
<!-- Node76&#45;&gt;Node70 -->
<g id="edge42_Node000076_Node000070" class="edge">
<title>Node76&#45;&gt;Node70</title>
<g id="a_edge42_Node000076_Node000070"><a xlink:title=" ">
<path fill="none" stroke="#63b8ff" d="M3871.9,-54.75C3865.34,-47.18 3855.68,-36.05 3847.69,-26.84"/>
<polygon fill="#63b8ff" stroke="#63b8ff" points="3850.15,-24.35 3840.95,-19.09 3844.87,-28.94 3850.15,-24.35"/>
</a>
</g>
</g>
<!-- Node215 -->
<g id="Node000215" class="node">
<title>Node215</title>
<g id="a_Node000215"><a xlink:title=" ">
<polygon fill="#e0e0e0" stroke="#999999" points="3789.5,-140 3649.5,-140 3649.5,-110 3789.5,-110 3789.5,-140"/>
<text text-anchor="start" x="3657.5" y="-128" font-family="Helvetica,sans-Serif" font-size="10.00">cppunit/BriefTestProgress</text>
<text text-anchor="middle" x="3719.5" y="-117" font-family="Helvetica,sans-Serif" font-size="10.00">Listener.h</text>
</a>
</g>
</g>
<!-- Node214&#45;&gt;Node215 -->
<g id="edge45_Node000214_Node000215" class="edge">
<title>Node214&#45;&gt;Node215</title>
<g id="a_edge45_Node000214_Node000215"><a xlink:title=" ">
<path fill="none" stroke="#63b8ff" d="M4074.43,-178.9C4014.58,-171.18 3904.02,-156.5 3799.76,-140.16"/>
<polygon fill="#63b8ff" stroke="#63b8ff" points="3800.11,-136.68 3789.69,-138.58 3799.02,-143.59 3800.11,-136.68"/>
</a>
</g>
</g>
<!-- Node216 -->
<g id="Node000216" class="node">
<title>Node216</title>
<g id="a_Node000216"><a xlink:title=" ">
<polygon fill="#e0e0e0" stroke="#999999" points="3945,-140 3808,-140 3808,-110 3945,-110 3945,-140"/>
<text text-anchor="start" x="3816" y="-128" font-family="Helvetica,sans-Serif" font-size="10.00">cppunit/TextTestProgress</text>
<text text-anchor="middle" x="3876.5" y="-117" font-family="Helvetica,sans-Serif" font-size="10.00">Listener.h</text>
</a>
</g>
</g>
<!-- Node214&#45;&gt;Node216 -->
<g id="edge46_Node000214_Node000216" class="edge">
<title>Node214&#45;&gt;Node216</title>
<g id="a_edge46_Node000214_Node000216"><a xlink:title=" ">
<path fill="none" stroke="#63b8ff" d="M4083.31,-175.99C4047.04,-167.23 3989.57,-153.33 3944.41,-142.42"/>
<polygon fill="#63b8ff" stroke="#63b8ff" points="3945.22,-139.01 3934.68,-140.06 3943.58,-145.82 3945.22,-139.01"/>
</a>
</g>
</g>
<!-- Node217 -->
<g id="Node000217" class="node">
<title>Node217</title>
<g id="a_Node000217"><a xlink:title=" ">
<polygon fill="#e0e0e0" stroke="#999999" points="4118,-134.5 3963,-134.5 3963,-115.5 4118,-115.5 4118,-134.5"/>
<text text-anchor="middle" x="4040.5" y="-122.5" font-family="Helvetica,sans-Serif" font-size="10.00">cppunit/CompilerOutputter.h</text>
</a>
</g>
</g>
<!-- Node214&#45;&gt;Node217 -->
<g id="edge47_Node000214_Node000217" class="edge">
<title>Node214&#45;&gt;Node217</title>
<g id="a_edge47_Node000214_Node000217"><a xlink:title=" ">
<path fill="none" stroke="#63b8ff" d="M4106.99,-175.87C4094.66,-166.62 4074.88,-151.78 4060.09,-140.69"/>
<polygon fill="#63b8ff" stroke="#63b8ff" points="4062.16,-137.87 4052.06,-134.67 4057.96,-143.47 4062.16,-137.87"/>
</a>
</g>
</g>
<!-- Node218 -->
<g id="Node000218" class="node">
<title>Node218</title>
<g id="a_Node000218"><a xlink:title=" ">
<polygon fill="#e0e0e0" stroke="#999999" points="4258.5,-140 4136.5,-140 4136.5,-110 4258.5,-110 4258.5,-140"/>
<text text-anchor="start" x="4144.5" y="-128" font-family="Helvetica,sans-Serif" font-size="10.00">cppunit/extensions</text>
<text text-anchor="middle" x="4197.5" y="-117" font-family="Helvetica,sans-Serif" font-size="10.00">/TestFactoryRegistry.h</text>
</a>
</g>
</g>
<!-- Node214&#45;&gt;Node218 -->
<g id="edge48_Node000214_Node000218" class="edge">
<title>Node214&#45;&gt;Node218</title>
<g id="a_edge48_Node000214_Node000218"><a xlink:title=" ">
<path fill="none" stroke="#63b8ff" d="M4130.16,-175.87C4140.68,-168.08 4156.56,-156.32 4170.26,-146.17"/>
<polygon fill="#63b8ff" stroke="#63b8ff" points="4172.49,-148.88 4178.44,-140.11 4168.32,-143.25 4172.49,-148.88"/>
</a>
</g>
</g>
<!-- Node219 -->
<g id="Node000219" class="node">
<title>Node219</title>
<g id="a_Node000219"><a xlink:title=" ">
<polygon fill="#e0e0e0" stroke="#999999" points="4392,-134.5 4277,-134.5 4277,-115.5 4392,-115.5 4392,-134.5"/>
<text text-anchor="middle" x="4334.5" y="-122.5" font-family="Helvetica,sans-Serif" font-size="10.00">cppunit/TestResult.h</text>
</a>
</g>
</g>
<!-- Node214&#45;&gt;Node219 -->
<g id="edge49_Node000214_Node000219" class="edge">
<title>Node214&#45;&gt;Node219</title>
<g id="a_edge49_Node000214_Node000219"><a xlink:title=" ">
<path fill="none" stroke="#63b8ff" d="M4149.91,-175.99C4187.74,-165.75 4251.41,-148.5 4293.19,-137.19"/>
<polygon fill="#63b8ff" stroke="#63b8ff" points="4294.32,-140.51 4303.05,-134.52 4292.49,-133.75 4294.32,-140.51"/>
</a>
</g>
</g>
<!-- Node220 -->
<g id="Node000220" class="node">
<title>Node220</title>
<g id="a_Node000220"><a xlink:title=" ">
<polygon fill="#e0e0e0" stroke="#999999" points="4568.5,-134.5 4410.5,-134.5 4410.5,-115.5 4568.5,-115.5 4568.5,-134.5"/>
<text text-anchor="middle" x="4489.5" y="-122.5" font-family="Helvetica,sans-Serif" font-size="10.00">cppunit/TestResultCollector.h</text>
</a>
</g>
</g>
<!-- Node214&#45;&gt;Node220 -->
<g id="edge50_Node000214_Node000220" class="edge">
<title>Node214&#45;&gt;Node220</title>
<g id="a_edge50_Node000214_Node000220"><a xlink:title=" ">
<path fill="none" stroke="#63b8ff" d="M4162.62,-177.59C4218.3,-168.86 4317.01,-153.36 4401.5,-140 4409.43,-138.75 4417.76,-137.42 4426.01,-136.12"/>
<polygon fill="#63b8ff" stroke="#63b8ff" points="4426.66,-139.56 4435.99,-134.53 4425.56,-132.64 4426.66,-139.56"/>
</a>
</g>
</g>
<!-- Node221 -->
<g id="Node000221" class="node">
<title>Node221</title>
<g id="a_Node000221"><a xlink:title=" ">
<polygon fill="#e0e0e0" stroke="#999999" points="4704.5,-134.5 4586.5,-134.5 4586.5,-115.5 4704.5,-115.5 4704.5,-134.5"/>
<text text-anchor="middle" x="4645.5" y="-122.5" font-family="Helvetica,sans-Serif" font-size="10.00">cppunit/TestRunner.h</text>
</a>
</g>
</g>
<!-- Node214&#45;&gt;Node221 -->
<g id="edge51_Node000214_Node000221" class="edge">
<title>Node214&#45;&gt;Node221</title>
<g id="a_edge51_Node000214_Node000221"><a xlink:title=" ">
<path fill="none" stroke="#63b8ff" d="M4162.68,-181.79C4244.74,-176.4 4426.1,-162.86 4577.5,-140 4583.91,-139.03 4590.64,-137.85 4597.25,-136.59"/>
<polygon fill="#63b8ff" stroke="#63b8ff" points="4598.37,-139.94 4607.51,-134.57 4597.02,-133.07 4598.37,-139.94"/>
</a>
</g>
</g>
</g>
</svg>

<g id="navigator" transform="translate(0 0)" fill="#404254">
  <rect fill="#f2f5e9" fill-opacity="0.5" stroke="#606060" stroke-width=".5" x="0" y="0" width="60" height="60"/>
  <use id="zoomplus" xlink:href="#zoomPlus" x="17" y="9" onmousedown="handleZoom(evt,'in')"/>
  <use id="zoomminus" xlink:href="#zoomMin" x="42" y="9" onmousedown="handleZoom(evt,'out')"/>
  <use id="reset" xlink:href="#resetDef" x="30" y="36" onmousedown="handleReset()"/>
   <use id="arrowup" xlink:href="#arrowUp" x="0" y="0" onmousedown="handlePan(0,-1)"/>
  <use id="arrowright" xlink:href="#arrowRight" x="0" y="0" onmousedown="handlePan(1,0)"/>
  <use id="arrowdown" xlink:href="#arrowDown" x="0" y="0" onmousedown="handlePan(0,1)"/>
  <use id="arrowleft" xlink:href="#arrowLeft" x="0" y="0" onmousedown="handlePan(-1,0)"/>
</g>
<svg viewBox="0 0 15 15" width="100%" height="30px" preserveAspectRatio="xMaxYMin meet">
 <g id="arrow_out" transform="scale(0.3 0.3)">
  <a xlink:href="testStatHist_8cc__incl_org.svg" target="_base">
   <rect id="button" ry="5" rx="5" y="6" x="6" height="38" width="38"
        fill="#f2f5e9" fill-opacity="0.5" stroke="#606060" stroke-width="1.0"/>
   <path id="arrow"
     d="M 11.500037,31.436501 C 11.940474,20.09759 22.043105,11.32322 32.158766,21.979434 L 37.068811,17.246167 C 37.068811,17.246167 37.088388,32 37.088388,32 L 22.160133,31.978069 C 22.160133,31.978069 26.997745,27.140456 26.997745,27.140456 C 18.528582,18.264221 13.291696,25.230495 11.500037,31.436501 z"
     style="fill:#404040;"/>
  </a>
 </g>
</svg>

<style type='text/css'>
<![CDATA[
[data-mouse-over-selected='false'] { opacity: 0.7; }
[data-mouse-over-selected='true']  { opacity: 1.0; }
]]>
</style>
<script type="application/ecmascript"><![CDATA[
document.addEventListener('DOMContentLoaded', (event) => {
  highlightEdges();
  highlightAdjacentNodes();
});
]]></script>
</svg>
