<?xml version="1.0" encoding="UTF-8" standalone="no"?>
<!DOCTYPE svg PUBLIC "-//W3C//DTD SVG 1.1//EN"
 "http://www.w3.org/Graphics/SVG/1.1/DTD/svg11.dtd">
<!-- Generated by graphviz version 2.43.0 (0)
 -->
<!-- Title: squid/src/tests/testRFC1035.cc Pages: 1 -->
<!--zoomable 258 -->

<svg id="main" version="1.1" xmlns="http://www.w3.org/2000/svg" xmlns:xlink="http://www.w3.org/1999/xlink" xml:space="preserve" onload="init(evt)">
<style type="text/css"><![CDATA[
.node, .edge {opacity: 0.7;}
.node.selected, .edge.selected {opacity: 1;}
.edge:hover path { stroke: red; }
.edge:hover polygon { stroke: red; fill: red; }
]]></style>

<defs>
  <circle id="rim" cx="0" cy="0" r="7"/>
  <circle id="rim2" cx="0" cy="0" r="3.5"/>
  <g id="zoomPlus">
    <use xlink:href="#rim" fill="#404040"><set attributeName="fill" to="#808080" begin="zoomplus.mouseover" end="zoomplus.mouseout"/></use>
    <path d="M-4,0h8M0,-4v8" fill="none" stroke="white" stroke-width="1.5" pointer-events="none"/>
  </g>
  <g id="zoomMin">
    <use xlink:href="#rim" fill="#404040"><set attributeName="fill" to="#808080" begin="zoomminus.mouseover" end="zoomminus.mouseout"/></use>
    <path d="M-4,0h8" fill="none" stroke="white" stroke-width="1.5" pointer-events="none"/>
  </g>
  <g id="arrowUp" transform="translate(30 24)">
    <use xlink:href="#rim"/>
    <path pointer-events="none" fill="none" stroke="white" stroke-width="1.5" d="M0,-3.0v7 M-2.5,-0.5L0,-3.0L2.5,-0.5"/>
  </g>
  <g id="arrowRight" transform="rotate(90) translate(36 -43)">
    <use xlink:href="#rim"/>
    <path pointer-events="none" fill="none" stroke="white" stroke-width="1.5" d="M0,-3.0v7 M-2.5,-0.5L0,-3.0L2.5,-0.5"/>
  </g>
  <g id="arrowDown" transform="rotate(180) translate(-30 -48)">
    <use xlink:href="#rim"/>
    <path pointer-events="none" fill="none" stroke="white" stroke-width="1.5" d="M0,-3.0v7 M-2.5,-0.5L0,-3.0L2.5,-0.5"/>
  </g>
  <g id="arrowLeft" transform="rotate(270) translate(-36 17)">
    <use xlink:href="#rim"/>
    <path pointer-events="none" fill="none" stroke="white" stroke-width="1.5" d="M0,-3.0v7 M-2.5,-0.5L0,-3.0L2.5,-0.5"/>
  </g>
  <g id="resetDef">
    <use xlink:href="#rim2" fill="#404040"><set attributeName="fill" to="#808080" begin="reset.mouseover" end="reset.mouseout"/></use>
  </g>
</defs>
<script type="application/ecmascript">
var viewWidth = 3168;
var viewHeight = 258;
var sectionId = 'dynsection-0';
</script>
<script type="application/ecmascript" xlink:href="svg.min.js"/>
<svg id="graph" class="graph">
<g id="viewport">
<title>squid/src/tests/testRFC1035.cc</title>
<!-- Node1 -->
<g id="Node000001" class="node">
<title>Node1</title>
<g id="a_Node000001"><a xlink:title=" ">
<polygon fill="#999999" stroke="#666666" points="1742.5,-250 1576.5,-250 1576.5,-231 1742.5,-231 1742.5,-250"/>
<text text-anchor="middle" x="1659.5" y="-238" font-family="Helvetica,sans-Serif" font-size="10.00">squid/src/tests/testRFC1035.cc</text>
</a>
</g>
</g>
<!-- Node2 -->
<g id="Node000002" class="node">
<title>Node2</title>
<g id="a_Node000002"><a xlink:href="squid_8h.html" target="_top" xlink:title=" ">
<polygon fill="white" stroke="#666666" points="1535.5,-195 1483.5,-195 1483.5,-176 1535.5,-176 1535.5,-195"/>
<text text-anchor="middle" x="1509.5" y="-183" font-family="Helvetica,sans-Serif" font-size="10.00">squid.h</text>
</a>
</g>
</g>
<!-- Node1&#45;&gt;Node2 -->
<g id="edge1_Node000001_Node000002" class="edge">
<title>Node1&#45;&gt;Node2</title>
<g id="a_edge1_Node000001_Node000002"><a xlink:title=" ">
<path fill="none" stroke="#63b8ff" d="M1635.4,-230.98C1610.62,-222.23 1571.8,-208.51 1543.81,-198.62"/>
<polygon fill="#63b8ff" stroke="#63b8ff" points="1544.63,-195.2 1534.04,-195.17 1542.3,-201.8 1544.63,-195.2"/>
</a>
</g>
</g>
<!-- Node44 -->
<g id="Node000044" class="node">
<title>Node44</title>
<g id="a_Node000044"><a xlink:href="cppunit_8h.html" target="_top" xlink:title=" ">
<polygon fill="white" stroke="#666666" points="1655,-195 1554,-195 1554,-176 1655,-176 1655,-195"/>
<text text-anchor="middle" x="1604.5" y="-183" font-family="Helvetica,sans-Serif" font-size="10.00">compat/cppunit.h</text>
</a>
</g>
</g>
<!-- Node1&#45;&gt;Node44 -->
<g id="edge39_Node000001_Node000044" class="edge">
<title>Node1&#45;&gt;Node44</title>
<g id="a_edge39_Node000001_Node000044"><a xlink:title=" ">
<path fill="none" stroke="#63b8ff" d="M1650.42,-230.75C1642.41,-223.03 1630.54,-211.6 1620.88,-202.28"/>
<polygon fill="#63b8ff" stroke="#63b8ff" points="1623.04,-199.51 1613.41,-195.09 1618.19,-204.55 1623.04,-199.51"/>
</a>
</g>
</g>
<!-- Node45 -->
<g id="Node000045" class="node">
<title>Node45</title>
<g id="a_Node000045"><a xlink:href="rfc1035_8h.html" target="_top" xlink:title=" ">
<polygon fill="white" stroke="#666666" points="1756,-195 1673,-195 1673,-176 1756,-176 1756,-195"/>
<text text-anchor="middle" x="1714.5" y="-183" font-family="Helvetica,sans-Serif" font-size="10.00">dns/rfc1035.h</text>
</a>
</g>
</g>
<!-- Node1&#45;&gt;Node45 -->
<g id="edge40_Node000001_Node000045" class="edge">
<title>Node1&#45;&gt;Node45</title>
<g id="a_edge40_Node000001_Node000045"><a xlink:title=" ">
<path fill="none" stroke="#63b8ff" d="M1668.58,-230.75C1676.59,-223.03 1688.46,-211.6 1698.12,-202.28"/>
<polygon fill="#63b8ff" stroke="#63b8ff" points="1700.81,-204.55 1705.59,-195.09 1695.96,-199.51 1700.81,-204.55"/>
</a>
</g>
</g>
<!-- Node47 -->
<g id="Node000047" class="node">
<title>Node47</title>
<g id="a_Node000047"><a xlink:href="unitTestMain_8h.html" target="_top" xlink:title=" ">
<polygon fill="white" stroke="#666666" points="2273.5,-195 2185.5,-195 2185.5,-176 2273.5,-176 2273.5,-195"/>
<text text-anchor="middle" x="2229.5" y="-183" font-family="Helvetica,sans-Serif" font-size="10.00">unitTestMain.h</text>
</a>
</g>
</g>
<!-- Node1&#45;&gt;Node47 -->
<g id="edge42_Node000001_Node000047" class="edge">
<title>Node1&#45;&gt;Node47</title>
<g id="a_edge42_Node000001_Node000047"><a xlink:title=" ">
<path fill="none" stroke="#63b8ff" d="M1742.69,-231.76C1861.17,-220.75 2075.21,-200.85 2175.24,-191.55"/>
<polygon fill="#63b8ff" stroke="#63b8ff" points="2175.79,-195.01 2185.42,-190.6 2175.14,-188.04 2175.79,-195.01"/>
</a>
</g>
</g>
<!-- Node3 -->
<g id="Node000003" class="node">
<title>Node3</title>
<g id="a_Node000003"><a xlink:href="autoconf_8h.html" target="_top" xlink:title=" ">
<polygon fill="white" stroke="#666666" points="1460.5,-134.5 1392.5,-134.5 1392.5,-115.5 1460.5,-115.5 1460.5,-134.5"/>
<text text-anchor="middle" x="1426.5" y="-122.5" font-family="Helvetica,sans-Serif" font-size="10.00">autoconf.h</text>
</a>
</g>
</g>
<!-- Node2&#45;&gt;Node3 -->
<g id="edge2_Node000002_Node000003" class="edge">
<title>Node2&#45;&gt;Node3</title>
<g id="a_edge2_Node000002_Node000003"><a xlink:title=" ">
<path fill="none" stroke="#63b8ff" d="M1497.25,-175.87C1484.14,-166.62 1463.08,-151.78 1447.35,-140.69"/>
<polygon fill="#63b8ff" stroke="#63b8ff" points="1448.99,-137.57 1438.8,-134.67 1444.95,-143.29 1448.99,-137.57"/>
</a>
</g>
</g>
<!-- Node4 -->
<g id="Node000004" class="node">
<title>Node4</title>
<g id="a_Node000004"><a xlink:href="version_8h.html" target="_top" xlink:title=" ">
<polygon fill="white" stroke="#666666" points="1540.5,-134.5 1478.5,-134.5 1478.5,-115.5 1540.5,-115.5 1540.5,-134.5"/>
<text text-anchor="middle" x="1509.5" y="-122.5" font-family="Helvetica,sans-Serif" font-size="10.00">version.h</text>
</a>
</g>
</g>
<!-- Node2&#45;&gt;Node4 -->
<g id="edge3_Node000002_Node000004" class="edge">
<title>Node2&#45;&gt;Node4</title>
<g id="a_edge3_Node000002_Node000004"><a xlink:title=" ">
<path fill="none" stroke="#63b8ff" d="M1509.5,-175.87C1509.5,-167.75 1509.5,-155.31 1509.5,-144.89"/>
<polygon fill="#63b8ff" stroke="#63b8ff" points="1513,-144.67 1509.5,-134.67 1506,-144.67 1513,-144.67"/>
</a>
</g>
</g>
<!-- Node5 -->
<g id="Node000005" class="node">
<title>Node5</title>
<g id="a_Node000005"><a xlink:href="compat_8h.html" target="_top" xlink:title=" ">
<polygon fill="white" stroke="#666666" points="1660.5,-134.5 1558.5,-134.5 1558.5,-115.5 1660.5,-115.5 1660.5,-134.5"/>
<text text-anchor="middle" x="1609.5" y="-122.5" font-family="Helvetica,sans-Serif" font-size="10.00">compat/compat.h</text>
</a>
</g>
</g>
<!-- Node2&#45;&gt;Node5 -->
<g id="edge4_Node000002_Node000005" class="edge">
<title>Node2&#45;&gt;Node5</title>
<g id="a_edge4_Node000002_Node000005"><a xlink:title=" ">
<path fill="none" stroke="#63b8ff" d="M1524.26,-175.87C1540.5,-166.36 1566.85,-150.95 1585.96,-139.77"/>
<polygon fill="#63b8ff" stroke="#63b8ff" points="1587.82,-142.74 1594.68,-134.67 1584.29,-136.7 1587.82,-142.74"/>
</a>
</g>
</g>
<!-- Node6 -->
<g id="Node000006" class="node">
<title>Node6</title>
<g id="a_Node000006"><a xlink:href="osdetect_8h.html" target="_top" xlink:title=" ">
<polygon fill="white" stroke="#666666" points="107,-74 0,-74 0,-55 107,-55 107,-74"/>
<text text-anchor="middle" x="53.5" y="-62" font-family="Helvetica,sans-Serif" font-size="10.00">compat/osdetect.h</text>
</a>
</g>
</g>
<!-- Node5&#45;&gt;Node6 -->
<g id="edge5_Node000005_Node000006" class="edge">
<title>Node5&#45;&gt;Node6</title>
<g id="a_edge5_Node000005_Node000006"><a xlink:title=" ">
<path fill="none" stroke="#63b8ff" d="M1578.27,-115.44C1569.07,-113.27 1558.94,-111.21 1549.5,-110 920.95,-29.63 753.37,-123.65 117.42,-73.95"/>
<polygon fill="#63b8ff" stroke="#63b8ff" points="117.32,-70.43 107.07,-73.13 116.77,-77.41 117.32,-70.43"/>
</a>
</g>
</g>
<!-- Node7 -->
<g id="Node000007" class="node">
<title>Node7</title>
<g id="a_Node000007"><a xlink:href="fdsetsize_8h.html" target="_top" xlink:title=" ">
<polygon fill="white" stroke="#666666" points="235.5,-74 125.5,-74 125.5,-55 235.5,-55 235.5,-74"/>
<text text-anchor="middle" x="180.5" y="-62" font-family="Helvetica,sans-Serif" font-size="10.00">compat/fdsetsize.h</text>
</a>
</g>
</g>
<!-- Node5&#45;&gt;Node7 -->
<g id="edge6_Node000005_Node000007" class="edge">
<title>Node5&#45;&gt;Node7</title>
<g id="a_edge6_Node000005_Node000007"><a xlink:title=" ">
<path fill="none" stroke="#63b8ff" d="M1578.27,-115.46C1569.07,-113.28 1558.94,-111.22 1549.5,-110 977.43,-36.14 824.66,-119.27 245.9,-74.01"/>
<polygon fill="#63b8ff" stroke="#63b8ff" points="245.86,-70.49 235.62,-73.19 245.31,-77.47 245.86,-70.49"/>
</a>
</g>
</g>
<!-- Node8 -->
<g id="Node000008" class="node">
<title>Node8</title>
<g id="a_Node000008"><a xlink:href="types_8h.html" target="_top" xlink:title=" ">
<polygon fill="white" stroke="#666666" points="345.5,-74 253.5,-74 253.5,-55 345.5,-55 345.5,-74"/>
<text text-anchor="middle" x="299.5" y="-62" font-family="Helvetica,sans-Serif" font-size="10.00">compat/types.h</text>
</a>
</g>
</g>
<!-- Node5&#45;&gt;Node8 -->
<g id="edge7_Node000005_Node000008" class="edge">
<title>Node5&#45;&gt;Node8</title>
<g id="a_edge7_Node000005_Node000008"><a xlink:title=" ">
<path fill="none" stroke="#63b8ff" d="M1578.26,-115.47C1569.07,-113.3 1558.94,-111.23 1549.5,-110 1025.95,-41.73 885.4,-121.64 355.86,-73.99"/>
<polygon fill="#63b8ff" stroke="#63b8ff" points="355.94,-70.48 345.66,-73.06 355.3,-77.45 355.94,-70.48"/>
</a>
</g>
</g>
<!-- Node10 -->
<g id="Node000010" class="node">
<title>Node10</title>
<g id="a_Node000010"><a xlink:href="aix_8h.html" target="_top" xlink:title=" ">
<polygon fill="white" stroke="#666666" points="459,-74 364,-74 364,-55 459,-55 459,-74"/>
<text text-anchor="middle" x="411.5" y="-62" font-family="Helvetica,sans-Serif" font-size="10.00">compat/os/aix.h</text>
</a>
</g>
</g>
<!-- Node5&#45;&gt;Node10 -->
<g id="edge9_Node000005_Node000010" class="edge">
<title>Node5&#45;&gt;Node10</title>
<g id="a_edge9_Node000005_Node000010"><a xlink:title=" ">
<path fill="none" stroke="#63b8ff" d="M1578.26,-115.49C1569.07,-113.32 1558.94,-111.25 1549.5,-110 1076.18,-47.51 948.97,-116.57 469,-73.9"/>
<polygon fill="#63b8ff" stroke="#63b8ff" points="469.31,-70.42 459.04,-73.01 468.68,-77.39 469.31,-70.42"/>
</a>
</g>
</g>
<!-- Node11 -->
<g id="Node000011" class="node">
<title>Node11</title>
<g id="a_Node000011"><a xlink:href="android_8h.html" target="_top" xlink:title=" ">
<polygon fill="white" stroke="#666666" points="593.5,-74 477.5,-74 477.5,-55 593.5,-55 593.5,-74"/>
<text text-anchor="middle" x="535.5" y="-62" font-family="Helvetica,sans-Serif" font-size="10.00">compat/os/android.h</text>
</a>
</g>
</g>
<!-- Node5&#45;&gt;Node11 -->
<g id="edge10_Node000005_Node000011" class="edge">
<title>Node5&#45;&gt;Node11</title>
<g id="a_edge10_Node000005_Node000011"><a xlink:title=" ">
<path fill="none" stroke="#63b8ff" d="M1577.95,-115.45C1568.83,-113.3 1558.83,-111.25 1549.5,-110 1135.32,-54.33 1024.01,-107.69 603.56,-74"/>
<polygon fill="#63b8ff" stroke="#63b8ff" points="603.82,-70.51 593.57,-73.19 603.26,-77.48 603.82,-70.51"/>
</a>
</g>
</g>
<!-- Node12 -->
<g id="Node000012" class="node">
<title>Node12</title>
<g id="a_Node000012"><a xlink:href="dragonfly_8h.html" target="_top" xlink:title=" ">
<polygon fill="white" stroke="#666666" points="735.5,-74 611.5,-74 611.5,-55 735.5,-55 735.5,-74"/>
<text text-anchor="middle" x="673.5" y="-62" font-family="Helvetica,sans-Serif" font-size="10.00">compat/os/dragonfly.h</text>
</a>
</g>
</g>
<!-- Node5&#45;&gt;Node12 -->
<g id="edge11_Node000005_Node000012" class="edge">
<title>Node5&#45;&gt;Node12</title>
<g id="a_edge11_Node000005_Node000012"><a xlink:title=" ">
<path fill="none" stroke="#63b8ff" d="M1577.94,-115.49C1568.83,-113.34 1558.82,-111.29 1549.5,-110 1198.01,-61.56 1103.19,-102.53 745.92,-74.04"/>
<polygon fill="#63b8ff" stroke="#63b8ff" points="746.06,-70.54 735.81,-73.23 745.5,-77.52 746.06,-70.54"/>
</a>
</g>
</g>
<!-- Node13 -->
<g id="Node000013" class="node">
<title>Node13</title>
<g id="a_Node000013"><a xlink:href="freebsd_8h.html" target="_top" xlink:title=" ">
<polygon fill="white" stroke="#666666" points="869.5,-74 753.5,-74 753.5,-55 869.5,-55 869.5,-74"/>
<text text-anchor="middle" x="811.5" y="-62" font-family="Helvetica,sans-Serif" font-size="10.00">compat/os/freebsd.h</text>
</a>
</g>
</g>
<!-- Node5&#45;&gt;Node13 -->
<g id="edge12_Node000005_Node000013" class="edge">
<title>Node5&#45;&gt;Node13</title>
<g id="a_edge12_Node000005_Node000013"><a xlink:title=" ">
<path fill="none" stroke="#63b8ff" d="M1577.62,-115.47C1568.59,-113.35 1558.71,-111.31 1549.5,-110 1257.15,-68.38 1177.72,-100.08 879.81,-74.04"/>
<polygon fill="#63b8ff" stroke="#63b8ff" points="879.85,-70.53 869.58,-73.13 879.23,-77.5 879.85,-70.53"/>
</a>
</g>
</g>
<!-- Node14 -->
<g id="Node000014" class="node">
<title>Node14</title>
<g id="a_Node000014"><a xlink:href="hpux_8h.html" target="_top" xlink:title=" ">
<polygon fill="white" stroke="#666666" points="991.5,-74 887.5,-74 887.5,-55 991.5,-55 991.5,-74"/>
<text text-anchor="middle" x="939.5" y="-62" font-family="Helvetica,sans-Serif" font-size="10.00">compat/os/hpux.h</text>
</a>
</g>
</g>
<!-- Node5&#45;&gt;Node14 -->
<g id="edge13_Node000005_Node000014" class="edge">
<title>Node5&#45;&gt;Node14</title>
<g id="a_edge13_Node000005_Node000014"><a xlink:title=" ">
<path fill="none" stroke="#63b8ff" d="M1577.3,-115.47C1568.36,-113.37 1558.6,-111.35 1549.5,-110 1310.93,-74.59 1245.53,-98.22 1001.95,-74.06"/>
<polygon fill="#63b8ff" stroke="#63b8ff" points="1002.01,-70.55 991.71,-73.03 1001.31,-77.52 1002.01,-70.55"/>
</a>
</g>
</g>
<!-- Node15 -->
<g id="Node000015" class="node">
<title>Node15</title>
<g id="a_Node000015"><a xlink:href="linux_8h.html" target="_top" xlink:title=" ">
<polygon fill="white" stroke="#666666" points="1113.5,-74 1009.5,-74 1009.5,-55 1113.5,-55 1113.5,-74"/>
<text text-anchor="middle" x="1061.5" y="-62" font-family="Helvetica,sans-Serif" font-size="10.00">compat/os/linux.h</text>
</a>
</g>
</g>
<!-- Node5&#45;&gt;Node15 -->
<g id="edge14_Node000005_Node000015" class="edge">
<title>Node5&#45;&gt;Node15</title>
<g id="a_edge14_Node000005_Node000015"><a xlink:title=" ">
<path fill="none" stroke="#63b8ff" d="M1576.66,-115.43C1567.89,-113.39 1558.37,-111.4 1549.5,-110 1364.6,-80.79 1313.51,-94.65 1123.75,-74.07"/>
<polygon fill="#63b8ff" stroke="#63b8ff" points="1124.04,-70.58 1113.72,-72.97 1123.28,-77.54 1124.04,-70.58"/>
</a>
</g>
</g>
<!-- Node16 -->
<g id="Node000016" class="node">
<title>Node16</title>
<g id="a_Node000016"><a xlink:href="macosx_8h.html" target="_top" xlink:title=" ">
<polygon fill="white" stroke="#666666" points="1249.5,-74 1131.5,-74 1131.5,-55 1249.5,-55 1249.5,-74"/>
<text text-anchor="middle" x="1190.5" y="-62" font-family="Helvetica,sans-Serif" font-size="10.00">compat/os/macosx.h</text>
</a>
</g>
</g>
<!-- Node5&#45;&gt;Node16 -->
<g id="edge15_Node000005_Node000016" class="edge">
<title>Node5&#45;&gt;Node16</title>
<g id="a_edge15_Node000005_Node000016"><a xlink:title=" ">
<path fill="none" stroke="#63b8ff" d="M1575.68,-115.45C1567.17,-113.48 1558.03,-111.52 1549.5,-110 1424.46,-87.74 1389.58,-89.95 1260.15,-74.19"/>
<polygon fill="#63b8ff" stroke="#63b8ff" points="1260.19,-70.67 1249.84,-72.92 1259.34,-77.62 1260.19,-70.67"/>
</a>
</g>
</g>
<!-- Node17 -->
<g id="Node000017" class="node">
<title>Node17</title>
<g id="a_Node000017"><a xlink:href="mingw_8h.html" target="_top" xlink:title=" ">
<polygon fill="white" stroke="#666666" points="1379.5,-74 1267.5,-74 1267.5,-55 1379.5,-55 1379.5,-74"/>
<text text-anchor="middle" x="1323.5" y="-62" font-family="Helvetica,sans-Serif" font-size="10.00">compat/os/mingw.h</text>
</a>
</g>
</g>
<!-- Node5&#45;&gt;Node17 -->
<g id="edge16_Node000005_Node000017" class="edge">
<title>Node5&#45;&gt;Node17</title>
<g id="a_edge16_Node000005_Node000017"><a xlink:title=" ">
<path fill="none" stroke="#63b8ff" d="M1573.69,-115.43C1565.74,-113.59 1557.34,-111.69 1549.5,-110 1491.71,-97.57 1425.31,-84.66 1379.5,-75.97"/>
<polygon fill="#63b8ff" stroke="#63b8ff" points="1379.95,-72.49 1369.48,-74.07 1378.65,-79.37 1379.95,-72.49"/>
</a>
</g>
</g>
<!-- Node18 -->
<g id="Node000018" class="node">
<title>Node18</title>
<g id="a_Node000018"><a xlink:href="mswindows_8h.html" target="_top" xlink:title=" ">
<polygon fill="white" stroke="#666666" points="1535,-74 1398,-74 1398,-55 1535,-55 1535,-74"/>
<text text-anchor="middle" x="1466.5" y="-62" font-family="Helvetica,sans-Serif" font-size="10.00">compat/os/mswindows.h</text>
</a>
</g>
</g>
<!-- Node5&#45;&gt;Node18 -->
<g id="edge17_Node000005_Node000018" class="edge">
<title>Node5&#45;&gt;Node18</title>
<g id="a_edge17_Node000005_Node000018"><a xlink:title=" ">
<path fill="none" stroke="#63b8ff" d="M1588.71,-115.49C1564.56,-105.62 1524.52,-89.23 1496.88,-77.93"/>
<polygon fill="#63b8ff" stroke="#63b8ff" points="1497.9,-74.56 1487.32,-74.02 1495.25,-81.04 1497.9,-74.56"/>
</a>
</g>
</g>
<!-- Node19 -->
<g id="Node000019" class="node">
<title>Node19</title>
<g id="a_Node000019"><a xlink:href="netbsd_8h.html" target="_top" xlink:title=" ">
<polygon fill="white" stroke="#666666" points="1666,-74 1553,-74 1553,-55 1666,-55 1666,-74"/>
<text text-anchor="middle" x="1609.5" y="-62" font-family="Helvetica,sans-Serif" font-size="10.00">compat/os/netbsd.h</text>
</a>
</g>
</g>
<!-- Node5&#45;&gt;Node19 -->
<g id="edge18_Node000005_Node000019" class="edge">
<title>Node5&#45;&gt;Node19</title>
<g id="a_edge18_Node000005_Node000019"><a xlink:title=" ">
<path fill="none" stroke="#63b8ff" d="M1609.5,-115.37C1609.5,-107.25 1609.5,-94.81 1609.5,-84.39"/>
<polygon fill="#63b8ff" stroke="#63b8ff" points="1613,-84.17 1609.5,-74.17 1606,-84.17 1613,-84.17"/>
</a>
</g>
</g>
<!-- Node20 -->
<g id="Node000020" class="node">
<title>Node20</title>
<g id="a_Node000020"><a xlink:href="openbsd_8h.html" target="_top" xlink:title=" ">
<polygon fill="white" stroke="#666666" points="1805,-74 1684,-74 1684,-55 1805,-55 1805,-74"/>
<text text-anchor="middle" x="1744.5" y="-62" font-family="Helvetica,sans-Serif" font-size="10.00">compat/os/openbsd.h</text>
</a>
</g>
</g>
<!-- Node5&#45;&gt;Node20 -->
<g id="edge19_Node000005_Node000020" class="edge">
<title>Node5&#45;&gt;Node20</title>
<g id="a_edge19_Node000005_Node000020"><a xlink:title=" ">
<path fill="none" stroke="#63b8ff" d="M1629.13,-115.49C1651.83,-105.66 1689.4,-89.38 1715.47,-78.08"/>
<polygon fill="#63b8ff" stroke="#63b8ff" points="1717.06,-81.2 1724.85,-74.02 1714.28,-74.78 1717.06,-81.2"/>
</a>
</g>
</g>
<!-- Node21 -->
<g id="Node000021" class="node">
<title>Node21</title>
<g id="a_Node000021"><a xlink:href="os2_8h.html" target="_top" xlink:title=" ">
<polygon fill="white" stroke="#666666" points="1920,-74 1823,-74 1823,-55 1920,-55 1920,-74"/>
<text text-anchor="middle" x="1871.5" y="-62" font-family="Helvetica,sans-Serif" font-size="10.00">compat/os/os2.h</text>
</a>
</g>
</g>
<!-- Node5&#45;&gt;Node21 -->
<g id="edge20_Node000005_Node000021" class="edge">
<title>Node5&#45;&gt;Node21</title>
<g id="a_edge20_Node000005_Node000021"><a xlink:title=" ">
<path fill="none" stroke="#63b8ff" d="M1647.2,-115.47C1655.22,-113.66 1663.64,-111.76 1671.5,-110 1723.18,-98.42 1782.39,-85.26 1822.9,-76.27"/>
<polygon fill="#63b8ff" stroke="#63b8ff" points="1823.77,-79.66 1832.78,-74.08 1822.26,-72.83 1823.77,-79.66"/>
</a>
</g>
</g>
<!-- Node22 -->
<g id="Node000022" class="node">
<title>Node22</title>
<g id="a_Node000022"><a xlink:href="qnx_8h.html" target="_top" xlink:title=" ">
<polygon fill="white" stroke="#666666" points="2036.5,-74 1938.5,-74 1938.5,-55 2036.5,-55 2036.5,-74"/>
<text text-anchor="middle" x="1987.5" y="-62" font-family="Helvetica,sans-Serif" font-size="10.00">compat/os/qnx.h</text>
</a>
</g>
</g>
<!-- Node5&#45;&gt;Node22 -->
<g id="edge21_Node000005_Node000022" class="edge">
<title>Node5&#45;&gt;Node22</title>
<g id="a_edge21_Node000005_Node000022"><a xlink:title=" ">
<path fill="none" stroke="#63b8ff" d="M1644.81,-115.5C1653.5,-113.55 1662.82,-111.59 1671.5,-110 1781.86,-89.85 1812.64,-90.19 1928.29,-74.01"/>
<polygon fill="#63b8ff" stroke="#63b8ff" points="1928.83,-77.47 1938.25,-72.61 1927.86,-70.54 1928.83,-77.47"/>
</a>
</g>
</g>
<!-- Node23 -->
<g id="Node000023" class="node">
<title>Node23</title>
<g id="a_Node000023"><a xlink:href="solaris_8h.html" target="_top" xlink:title=" ">
<polygon fill="white" stroke="#666666" points="2166.5,-74 2054.5,-74 2054.5,-55 2166.5,-55 2166.5,-74"/>
<text text-anchor="middle" x="2110.5" y="-62" font-family="Helvetica,sans-Serif" font-size="10.00">compat/os/solaris.h</text>
</a>
</g>
</g>
<!-- Node5&#45;&gt;Node23 -->
<g id="edge22_Node000005_Node000023" class="edge">
<title>Node5&#45;&gt;Node23</title>
<g id="a_edge22_Node000005_Node000023"><a xlink:title=" ">
<path fill="none" stroke="#63b8ff" d="M1643.78,-115.45C1652.76,-113.43 1662.46,-111.45 1671.5,-110 1833.16,-84.07 1877.84,-92.48 2044.39,-74.08"/>
<polygon fill="#63b8ff" stroke="#63b8ff" points="2044.95,-77.54 2054.49,-72.95 2044.17,-70.58 2044.95,-77.54"/>
</a>
</g>
</g>
<!-- Node24 -->
<g id="Node000024" class="node">
<title>Node24</title>
<g id="a_Node000024"><a xlink:href="sunos_8h.html" target="_top" xlink:title=" ">
<polygon fill="white" stroke="#666666" points="2292.5,-74 2184.5,-74 2184.5,-55 2292.5,-55 2292.5,-74"/>
<text text-anchor="middle" x="2238.5" y="-62" font-family="Helvetica,sans-Serif" font-size="10.00">compat/os/sunos.h</text>
</a>
</g>
</g>
<!-- Node5&#45;&gt;Node24 -->
<g id="edge23_Node000005_Node000024" class="edge">
<title>Node5&#45;&gt;Node24</title>
<g id="a_edge23_Node000005_Node000024"><a xlink:title=" ">
<path fill="none" stroke="#63b8ff" d="M1643.11,-115.44C1652.27,-113.38 1662.22,-111.37 1671.5,-110 1890.4,-77.66 1950.37,-96.45 2174.14,-74.07"/>
<polygon fill="#63b8ff" stroke="#63b8ff" points="2174.64,-77.54 2184.23,-73.04 2173.93,-70.57 2174.64,-77.54"/>
</a>
</g>
</g>
<!-- Node25 -->
<g id="Node000025" class="node">
<title>Node25</title>
<g id="a_Node000025"><a xlink:href="assert_8h.html" target="_top" xlink:title=" ">
<polygon fill="white" stroke="#666666" points="2406,-74 2311,-74 2311,-55 2406,-55 2406,-74"/>
<text text-anchor="middle" x="2358.5" y="-62" font-family="Helvetica,sans-Serif" font-size="10.00">compat/assert.h</text>
</a>
</g>
</g>
<!-- Node5&#45;&gt;Node25 -->
<g id="edge24_Node000005_Node000025" class="edge">
<title>Node5&#45;&gt;Node25</title>
<g id="a_edge24_Node000005_Node000025"><a xlink:title=" ">
<path fill="none" stroke="#63b8ff" d="M1642.46,-115.5C1651.79,-113.38 1661.99,-111.34 1671.5,-110 1945.97,-71.44 2020.77,-101.98 2300.9,-73.94"/>
<polygon fill="#63b8ff" stroke="#63b8ff" points="2301.36,-77.41 2310.96,-72.92 2300.65,-70.45 2301.36,-77.41"/>
</a>
</g>
</g>
<!-- Node26 -->
<g id="Node000026" class="node">
<title>Node26</title>
<g id="a_Node000026"><a xlink:href="compat__shared_8h.html" target="_top" xlink:title=" ">
<polygon fill="white" stroke="#666666" points="2564.5,-74 2424.5,-74 2424.5,-55 2564.5,-55 2564.5,-74"/>
<text text-anchor="middle" x="2494.5" y="-62" font-family="Helvetica,sans-Serif" font-size="10.00">compat/compat_shared.h</text>
</a>
</g>
</g>
<!-- Node5&#45;&gt;Node26 -->
<g id="edge25_Node000005_Node000026" class="edge">
<title>Node5&#45;&gt;Node26</title>
<g id="a_edge25_Node000005_Node000026"><a xlink:title=" ">
<path fill="none" stroke="#63b8ff" d="M1642.45,-115.44C1651.78,-113.33 1661.99,-111.29 1671.5,-110 1996.17,-65.83 2083.66,-99.02 2413.96,-74.06"/>
<polygon fill="#63b8ff" stroke="#63b8ff" points="2414.61,-77.52 2424.31,-73.27 2414.07,-70.55 2414.61,-77.52"/>
</a>
</g>
</g>
<!-- Node36 -->
<g id="Node000036" class="node">
<title>Node36</title>
<g id="a_Node000036"><a xlink:href="stdvarargs_8h.html" target="_top" xlink:title=" ">
<polygon fill="#fff0f0" stroke="red" points="2700,-74 2583,-74 2583,-55 2700,-55 2700,-74"/>
<text text-anchor="middle" x="2641.5" y="-62" font-family="Helvetica,sans-Serif" font-size="10.00">compat/stdvarargs.h</text>
</a>
</g>
</g>
<!-- Node5&#45;&gt;Node36 -->
<g id="edge34_Node000005_Node000036" class="edge">
<title>Node5&#45;&gt;Node36</title>
<g id="a_edge34_Node000005_Node000036"><a xlink:title=" ">
<path fill="none" stroke="#63b8ff" d="M1642.12,-115.46C1651.54,-113.32 1661.87,-111.27 1671.5,-110 2065.97,-58.03 2171.89,-106.1 2572.8,-73.96"/>
<polygon fill="#63b8ff" stroke="#63b8ff" points="2573.24,-77.44 2582.93,-73.14 2572.68,-70.46 2573.24,-77.44"/>
</a>
</g>
</g>
<!-- Node38 -->
<g id="Node000038" class="node">
<title>Node38</title>
<g id="a_Node000038"><a xlink:href="stdio_8h.html" target="_top" xlink:title=" ">
<polygon fill="#fff0f0" stroke="red" points="2807,-74 2718,-74 2718,-55 2807,-55 2807,-74"/>
<text text-anchor="middle" x="2762.5" y="-62" font-family="Helvetica,sans-Serif" font-size="10.00">compat/stdio.h</text>
</a>
</g>
</g>
<!-- Node5&#45;&gt;Node38 -->
<g id="edge35_Node000005_Node000038" class="edge">
<title>Node5&#45;&gt;Node38</title>
<g id="a_edge35_Node000005_Node000038"><a xlink:title=" ">
<path fill="none" stroke="#63b8ff" d="M1642.12,-115.43C1651.53,-113.29 1661.87,-111.24 1671.5,-110 2125.96,-51.34 2248.27,-117.65 2707.51,-74.06"/>
<polygon fill="#63b8ff" stroke="#63b8ff" points="2708.11,-77.52 2717.73,-73.08 2707.44,-70.55 2708.11,-77.52"/>
</a>
</g>
</g>
<!-- Node40 -->
<g id="Node000040" class="node">
<title>Node40</title>
<g id="a_Node000040"><a xlink:href="statvfs_8h.html" target="_top" xlink:title=" ">
<polygon fill="white" stroke="#666666" points="2924,-74 2825,-74 2825,-55 2924,-55 2924,-74"/>
<text text-anchor="middle" x="2874.5" y="-62" font-family="Helvetica,sans-Serif" font-size="10.00">compat/statvfs.h</text>
</a>
</g>
</g>
<!-- Node5&#45;&gt;Node40 -->
<g id="edge36_Node000005_Node000040" class="edge">
<title>Node5&#45;&gt;Node40</title>
<g id="a_edge36_Node000005_Node000040"><a xlink:title=" ">
<path fill="none" stroke="#63b8ff" d="M1641.79,-115.48C1651.3,-113.31 1661.76,-111.24 1671.5,-110 2173.23,-46.06 2307.58,-118.03 2814.72,-74.04"/>
<polygon fill="#63b8ff" stroke="#63b8ff" points="2815.21,-77.51 2824.87,-73.15 2814.6,-70.54 2815.21,-77.51"/>
</a>
</g>
</g>
<!-- Node41 -->
<g id="Node000041" class="node">
<title>Node41</title>
<g id="a_Node000041"><a xlink:href="debug_8h.html" target="_top" xlink:title=" ">
<polygon fill="white" stroke="#666666" points="3037,-74 2942,-74 2942,-55 3037,-55 3037,-74"/>
<text text-anchor="middle" x="2989.5" y="-62" font-family="Helvetica,sans-Serif" font-size="10.00">compat/debug.h</text>
</a>
</g>
</g>
<!-- Node5&#45;&gt;Node41 -->
<g id="edge37_Node000005_Node000041" class="edge">
<title>Node5&#45;&gt;Node41</title>
<g id="a_edge37_Node000005_Node000041"><a xlink:title=" ">
<path fill="none" stroke="#63b8ff" d="M1641.79,-115.47C1651.29,-113.29 1661.76,-111.23 1671.5,-110 2224.82,-40.3 2372.83,-123.17 2931.55,-74.05"/>
<polygon fill="#63b8ff" stroke="#63b8ff" points="2932.24,-77.5 2941.89,-73.13 2931.62,-70.53 2932.24,-77.5"/>
</a>
</g>
</g>
<!-- Node42 -->
<g id="Node000042" class="node">
<title>Node42</title>
<g id="a_Node000042"><a xlink:href="valgrind_8h.html" target="_top" xlink:title=" ">
<polygon fill="#fff0f0" stroke="red" points="3160,-74 3055,-74 3055,-55 3160,-55 3160,-74"/>
<text text-anchor="middle" x="3107.5" y="-62" font-family="Helvetica,sans-Serif" font-size="10.00">compat/valgrind.h</text>
</a>
</g>
</g>
<!-- Node5&#45;&gt;Node42 -->
<g id="edge38_Node000005_Node000042" class="edge">
<title>Node5&#45;&gt;Node42</title>
<g id="a_edge38_Node000005_Node000042"><a xlink:title=" ">
<path fill="none" stroke="#63b8ff" d="M1641.79,-115.45C1651.29,-113.28 1661.75,-111.22 1671.5,-110 2274.71,-34.74 2435.45,-123.26 3044.61,-74.05"/>
<polygon fill="#63b8ff" stroke="#63b8ff" points="3045.29,-77.5 3054.97,-73.2 3044.72,-70.53 3045.29,-77.5"/>
</a>
</g>
</g>
<!-- Node9 -->
<g id="Node000009" class="node">
<title>Node9</title>
<g id="a_Node000009"><a xlink:title=" ">
<polygon fill="#e0e0e0" stroke="#999999" points="324.5,-19 274.5,-19 274.5,0 324.5,0 324.5,-19"/>
<text text-anchor="middle" x="299.5" y="-7" font-family="Helvetica,sans-Serif" font-size="10.00">cstdint</text>
</a>
</g>
</g>
<!-- Node8&#45;&gt;Node9 -->
<g id="edge8_Node000008_Node000009" class="edge">
<title>Node8&#45;&gt;Node9</title>
<g id="a_edge8_Node000008_Node000009"><a xlink:title=" ">
<path fill="none" stroke="#63b8ff" d="M299.5,-54.75C299.5,-47.8 299.5,-37.85 299.5,-29.13"/>
<polygon fill="#63b8ff" stroke="#63b8ff" points="303,-29.09 299.5,-19.09 296,-29.09 303,-29.09"/>
</a>
</g>
</g>
<!-- Node27 -->
<g id="Node000027" class="node">
<title>Node27</title>
<g id="a_Node000027"><a xlink:title=" ">
<polygon fill="#e0e0e0" stroke="#999999" points="2150,-19 2099,-19 2099,0 2150,0 2150,-19"/>
<text text-anchor="middle" x="2124.5" y="-7" font-family="Helvetica,sans-Serif" font-size="10.00">csignal</text>
</a>
</g>
</g>
<!-- Node26&#45;&gt;Node27 -->
<g id="edge26_Node000026_Node000027" class="edge">
<title>Node26&#45;&gt;Node27</title>
<g id="a_edge26_Node000026_Node000027"><a xlink:title=" ">
<path fill="none" stroke="#63b8ff" d="M2424.32,-55.16C2345.78,-45.66 2222.35,-30.22 2160.2,-19.1"/>
<polygon fill="#63b8ff" stroke="#63b8ff" points="2160.52,-15.6 2150.05,-17.22 2159.24,-22.48 2160.52,-15.6"/>
</a>
</g>
</g>
<!-- Node28 -->
<g id="Node000028" class="node">
<title>Node28</title>
<g id="a_Node000028"><a xlink:href="xalloc_8h.html" target="_top" xlink:title=" ">
<polygon fill="white" stroke="#666666" points="2263,-19 2168,-19 2168,0 2263,0 2263,-19"/>
<text text-anchor="middle" x="2215.5" y="-7" font-family="Helvetica,sans-Serif" font-size="10.00">compat/xalloc.h</text>
</a>
</g>
</g>
<!-- Node26&#45;&gt;Node28 -->
<g id="edge27_Node000026_Node000028" class="edge">
<title>Node26&#45;&gt;Node28</title>
<g id="a_edge27_Node000026_Node000028"><a xlink:title=" ">
<path fill="none" stroke="#63b8ff" d="M2449.67,-54.98C2401.01,-45.74 2323.24,-30.97 2270.81,-21.01"/>
<polygon fill="#63b8ff" stroke="#63b8ff" points="2271.16,-17.51 2260.68,-19.08 2269.85,-24.39 2271.16,-17.51"/>
</a>
</g>
</g>
<!-- Node29 -->
<g id="Node000029" class="node">
<title>Node29</title>
<g id="a_Node000029"><a xlink:href="xis_8h.html" target="_top" xlink:title=" ">
<polygon fill="#fff0f0" stroke="red" points="2361.5,-19 2281.5,-19 2281.5,0 2361.5,0 2361.5,-19"/>
<text text-anchor="middle" x="2321.5" y="-7" font-family="Helvetica,sans-Serif" font-size="10.00">compat/xis.h</text>
</a>
</g>
</g>
<!-- Node26&#45;&gt;Node29 -->
<g id="edge28_Node000026_Node000029" class="edge">
<title>Node26&#45;&gt;Node29</title>
<g id="a_edge28_Node000026_Node000029"><a xlink:title=" ">
<path fill="none" stroke="#63b8ff" d="M2466.7,-54.98C2437.53,-46.05 2391.5,-31.94 2359.1,-22.02"/>
<polygon fill="#63b8ff" stroke="#63b8ff" points="2360.1,-18.66 2349.51,-19.08 2358.05,-25.36 2360.1,-18.66"/>
</a>
</g>
</g>
<!-- Node31 -->
<g id="Node000031" class="node">
<title>Node31</title>
<g id="a_Node000031"><a xlink:href="xstrerror_8h.html" target="_top" xlink:title=" ">
<polygon fill="white" stroke="#666666" points="2487,-19 2380,-19 2380,0 2487,0 2487,-19"/>
<text text-anchor="middle" x="2433.5" y="-7" font-family="Helvetica,sans-Serif" font-size="10.00">compat/xstrerror.h</text>
</a>
</g>
</g>
<!-- Node26&#45;&gt;Node31 -->
<g id="edge29_Node000026_Node000031" class="edge">
<title>Node26&#45;&gt;Node31</title>
<g id="a_edge29_Node000026_Node000031"><a xlink:title=" ">
<path fill="none" stroke="#63b8ff" d="M2484.7,-54.98C2475.68,-47.15 2462.09,-35.34 2451.18,-25.86"/>
<polygon fill="#63b8ff" stroke="#63b8ff" points="2453.32,-23.09 2443.48,-19.17 2448.73,-28.37 2453.32,-23.09"/>
</a>
</g>
</g>
<!-- Node32 -->
<g id="Node000032" class="node">
<title>Node32</title>
<g id="a_Node000032"><a xlink:href="xstring_8h.html" target="_top" xlink:title=" ">
<polygon fill="white" stroke="#666666" points="2604,-19 2505,-19 2505,0 2604,0 2604,-19"/>
<text text-anchor="middle" x="2554.5" y="-7" font-family="Helvetica,sans-Serif" font-size="10.00">compat/xstring.h</text>
</a>
</g>
</g>
<!-- Node26&#45;&gt;Node32 -->
<g id="edge30_Node000026_Node000032" class="edge">
<title>Node26&#45;&gt;Node32</title>
<g id="a_edge30_Node000026_Node000032"><a xlink:title=" ">
<path fill="none" stroke="#63b8ff" d="M2504.14,-54.98C2513.01,-47.15 2526.37,-35.34 2537.11,-25.86"/>
<polygon fill="#63b8ff" stroke="#63b8ff" points="2539.51,-28.41 2544.68,-19.17 2534.87,-23.17 2539.51,-28.41"/>
</a>
</g>
</g>
<!-- Node33 -->
<g id="Node000033" class="node">
<title>Node33</title>
<g id="a_Node000033"><a xlink:href="xstrto_8h.html" target="_top" xlink:title=" ">
<polygon fill="white" stroke="#666666" points="2716.5,-19 2622.5,-19 2622.5,0 2716.5,0 2716.5,-19"/>
<text text-anchor="middle" x="2669.5" y="-7" font-family="Helvetica,sans-Serif" font-size="10.00">compat/xstrto.h</text>
</a>
</g>
</g>
<!-- Node26&#45;&gt;Node33 -->
<g id="edge31_Node000026_Node000033" class="edge">
<title>Node26&#45;&gt;Node33</title>
<g id="a_edge31_Node000026_Node000033"><a xlink:title=" ">
<path fill="none" stroke="#63b8ff" d="M2522.62,-54.98C2552.12,-46.05 2598.69,-31.94 2631.47,-22.02"/>
<polygon fill="#63b8ff" stroke="#63b8ff" points="2632.61,-25.33 2641.16,-19.08 2630.58,-18.63 2632.61,-25.33"/>
</a>
</g>
</g>
<!-- Node34 -->
<g id="Node000034" class="node">
<title>Node34</title>
<g id="a_Node000034"><a xlink:href="strtoll_8h.html" target="_top" xlink:title=" ">
<polygon fill="white" stroke="#666666" points="2828.5,-19 2734.5,-19 2734.5,0 2828.5,0 2828.5,-19"/>
<text text-anchor="middle" x="2781.5" y="-7" font-family="Helvetica,sans-Serif" font-size="10.00">compat/strtoll.h</text>
</a>
</g>
</g>
<!-- Node26&#45;&gt;Node34 -->
<g id="edge32_Node000026_Node000034" class="edge">
<title>Node26&#45;&gt;Node34</title>
<g id="a_edge32_Node000026_Node000034"><a xlink:title=" ">
<path fill="none" stroke="#63b8ff" d="M2540.61,-54.98C2590.78,-45.72 2671.01,-30.9 2724.94,-20.94"/>
<polygon fill="#63b8ff" stroke="#63b8ff" points="2725.83,-24.34 2735.03,-19.08 2724.56,-17.46 2725.83,-24.34"/>
</a>
</g>
</g>
<!-- Node35 -->
<g id="Node000035" class="node">
<title>Node35</title>
<g id="a_Node000035"><a xlink:href="memrchr_8h.html" target="_top" xlink:title=" ">
<polygon fill="white" stroke="#666666" points="2956,-19 2847,-19 2847,0 2956,0 2956,-19"/>
<text text-anchor="middle" x="2901.5" y="-7" font-family="Helvetica,sans-Serif" font-size="10.00">compat/memrchr.h</text>
</a>
</g>
</g>
<!-- Node26&#45;&gt;Node35 -->
<g id="edge33_Node000026_Node000035" class="edge">
<title>Node26&#45;&gt;Node35</title>
<g id="a_edge33_Node000026_Node000035"><a xlink:title=" ">
<path fill="none" stroke="#63b8ff" d="M2560.58,-54.99C2627.43,-46.36 2734.05,-32.57 2836.47,-19.13"/>
<polygon fill="#63b8ff" stroke="#63b8ff" points="2837.23,-22.56 2846.69,-17.79 2836.32,-15.62 2837.23,-22.56"/>
</a>
</g>
</g>
<!-- Node46 -->
<g id="Node000046" class="node">
<title>Node46</title>
<g id="a_Node000046"><a xlink:href="rfc2181_8h.html" target="_top" xlink:title=" ">
<polygon fill="white" stroke="#666666" points="1742.5,-134.5 1680.5,-134.5 1680.5,-115.5 1742.5,-115.5 1742.5,-134.5"/>
<text text-anchor="middle" x="1711.5" y="-122.5" font-family="Helvetica,sans-Serif" font-size="10.00">rfc2181.h</text>
</a>
</g>
</g>
<!-- Node45&#45;&gt;Node46 -->
<g id="edge41_Node000045_Node000046" class="edge">
<title>Node45&#45;&gt;Node46</title>
<g id="a_edge41_Node000045_Node000046"><a xlink:title=" ">
<path fill="none" stroke="#63b8ff" d="M1714.06,-175.87C1713.64,-167.75 1713,-155.31 1712.47,-144.89"/>
<polygon fill="#63b8ff" stroke="#63b8ff" points="1715.95,-144.47 1711.94,-134.67 1708.96,-144.83 1715.95,-144.47"/>
</a>
</g>
</g>
<!-- Node48 -->
<g id="Node000048" class="node">
<title>Node48</title>
<g id="a_Node000048"><a xlink:title=" ">
<polygon fill="#e0e0e0" stroke="#999999" points="1900.5,-140 1760.5,-140 1760.5,-110 1900.5,-110 1900.5,-140"/>
<text text-anchor="start" x="1768.5" y="-128" font-family="Helvetica,sans-Serif" font-size="10.00">cppunit/BriefTestProgress</text>
<text text-anchor="middle" x="1830.5" y="-117" font-family="Helvetica,sans-Serif" font-size="10.00">Listener.h</text>
</a>
</g>
</g>
<!-- Node47&#45;&gt;Node48 -->
<g id="edge43_Node000047_Node000048" class="edge">
<title>Node47&#45;&gt;Node48</title>
<g id="a_edge43_Node000047_Node000048"><a xlink:title=" ">
<path fill="none" stroke="#63b8ff" d="M2185.43,-178.9C2125.58,-171.18 2015.02,-156.5 1910.76,-140.16"/>
<polygon fill="#63b8ff" stroke="#63b8ff" points="1911.11,-136.68 1900.69,-138.58 1910.02,-143.59 1911.11,-136.68"/>
</a>
</g>
</g>
<!-- Node49 -->
<g id="Node000049" class="node">
<title>Node49</title>
<g id="a_Node000049"><a xlink:title=" ">
<polygon fill="#e0e0e0" stroke="#999999" points="2056,-140 1919,-140 1919,-110 2056,-110 2056,-140"/>
<text text-anchor="start" x="1927" y="-128" font-family="Helvetica,sans-Serif" font-size="10.00">cppunit/TextTestProgress</text>
<text text-anchor="middle" x="1987.5" y="-117" font-family="Helvetica,sans-Serif" font-size="10.00">Listener.h</text>
</a>
</g>
</g>
<!-- Node47&#45;&gt;Node49 -->
<g id="edge44_Node000047_Node000049" class="edge">
<title>Node47&#45;&gt;Node49</title>
<g id="a_edge44_Node000047_Node000049"><a xlink:title=" ">
<path fill="none" stroke="#63b8ff" d="M2194.31,-175.99C2158.04,-167.23 2100.57,-153.33 2055.41,-142.42"/>
<polygon fill="#63b8ff" stroke="#63b8ff" points="2056.22,-139.01 2045.68,-140.06 2054.58,-145.82 2056.22,-139.01"/>
</a>
</g>
</g>
<!-- Node50 -->
<g id="Node000050" class="node">
<title>Node50</title>
<g id="a_Node000050"><a xlink:title=" ">
<polygon fill="#e0e0e0" stroke="#999999" points="2229,-134.5 2074,-134.5 2074,-115.5 2229,-115.5 2229,-134.5"/>
<text text-anchor="middle" x="2151.5" y="-122.5" font-family="Helvetica,sans-Serif" font-size="10.00">cppunit/CompilerOutputter.h</text>
</a>
</g>
</g>
<!-- Node47&#45;&gt;Node50 -->
<g id="edge45_Node000047_Node000050" class="edge">
<title>Node47&#45;&gt;Node50</title>
<g id="a_edge45_Node000047_Node000050"><a xlink:title=" ">
<path fill="none" stroke="#63b8ff" d="M2217.99,-175.87C2205.66,-166.62 2185.88,-151.78 2171.09,-140.69"/>
<polygon fill="#63b8ff" stroke="#63b8ff" points="2173.16,-137.87 2163.06,-134.67 2168.96,-143.47 2173.16,-137.87"/>
</a>
</g>
</g>
<!-- Node51 -->
<g id="Node000051" class="node">
<title>Node51</title>
<g id="a_Node000051"><a xlink:title=" ">
<polygon fill="#e0e0e0" stroke="#999999" points="2369.5,-140 2247.5,-140 2247.5,-110 2369.5,-110 2369.5,-140"/>
<text text-anchor="start" x="2255.5" y="-128" font-family="Helvetica,sans-Serif" font-size="10.00">cppunit/extensions</text>
<text text-anchor="middle" x="2308.5" y="-117" font-family="Helvetica,sans-Serif" font-size="10.00">/TestFactoryRegistry.h</text>
</a>
</g>
</g>
<!-- Node47&#45;&gt;Node51 -->
<g id="edge46_Node000047_Node000051" class="edge">
<title>Node47&#45;&gt;Node51</title>
<g id="a_edge46_Node000047_Node000051"><a xlink:title=" ">
<path fill="none" stroke="#63b8ff" d="M2241.16,-175.87C2251.68,-168.08 2267.56,-156.32 2281.26,-146.17"/>
<polygon fill="#63b8ff" stroke="#63b8ff" points="2283.49,-148.88 2289.44,-140.11 2279.32,-143.25 2283.49,-148.88"/>
</a>
</g>
</g>
<!-- Node52 -->
<g id="Node000052" class="node">
<title>Node52</title>
<g id="a_Node000052"><a xlink:title=" ">
<polygon fill="#e0e0e0" stroke="#999999" points="2503,-134.5 2388,-134.5 2388,-115.5 2503,-115.5 2503,-134.5"/>
<text text-anchor="middle" x="2445.5" y="-122.5" font-family="Helvetica,sans-Serif" font-size="10.00">cppunit/TestResult.h</text>
</a>
</g>
</g>
<!-- Node47&#45;&gt;Node52 -->
<g id="edge47_Node000047_Node000052" class="edge">
<title>Node47&#45;&gt;Node52</title>
<g id="a_edge47_Node000047_Node000052"><a xlink:title=" ">
<path fill="none" stroke="#63b8ff" d="M2260.91,-175.99C2298.74,-165.75 2362.41,-148.5 2404.19,-137.19"/>
<polygon fill="#63b8ff" stroke="#63b8ff" points="2405.32,-140.51 2414.05,-134.52 2403.49,-133.75 2405.32,-140.51"/>
</a>
</g>
</g>
<!-- Node53 -->
<g id="Node000053" class="node">
<title>Node53</title>
<g id="a_Node000053"><a xlink:title=" ">
<polygon fill="#e0e0e0" stroke="#999999" points="2679.5,-134.5 2521.5,-134.5 2521.5,-115.5 2679.5,-115.5 2679.5,-134.5"/>
<text text-anchor="middle" x="2600.5" y="-122.5" font-family="Helvetica,sans-Serif" font-size="10.00">cppunit/TestResultCollector.h</text>
</a>
</g>
</g>
<!-- Node47&#45;&gt;Node53 -->
<g id="edge48_Node000047_Node000053" class="edge">
<title>Node47&#45;&gt;Node53</title>
<g id="a_edge48_Node000047_Node000053"><a xlink:title=" ">
<path fill="none" stroke="#63b8ff" d="M2273.62,-177.59C2329.3,-168.86 2428.01,-153.36 2512.5,-140 2520.43,-138.75 2528.76,-137.42 2537.01,-136.12"/>
<polygon fill="#63b8ff" stroke="#63b8ff" points="2537.66,-139.56 2546.99,-134.53 2536.56,-132.64 2537.66,-139.56"/>
</a>
</g>
</g>
<!-- Node54 -->
<g id="Node000054" class="node">
<title>Node54</title>
<g id="a_Node000054"><a xlink:title=" ">
<polygon fill="#e0e0e0" stroke="#999999" points="2815.5,-134.5 2697.5,-134.5 2697.5,-115.5 2815.5,-115.5 2815.5,-134.5"/>
<text text-anchor="middle" x="2756.5" y="-122.5" font-family="Helvetica,sans-Serif" font-size="10.00">cppunit/TestRunner.h</text>
</a>
</g>
</g>
<!-- Node47&#45;&gt;Node54 -->
<g id="edge49_Node000047_Node000054" class="edge">
<title>Node47&#45;&gt;Node54</title>
<g id="a_edge49_Node000047_Node000054"><a xlink:title=" ">
<path fill="none" stroke="#63b8ff" d="M2273.68,-181.79C2355.74,-176.4 2537.1,-162.86 2688.5,-140 2694.91,-139.03 2701.64,-137.85 2708.25,-136.59"/>
<polygon fill="#63b8ff" stroke="#63b8ff" points="2709.37,-139.94 2718.51,-134.57 2708.02,-133.07 2709.37,-139.94"/>
</a>
</g>
</g>
</g>
</svg>

<g id="navigator" transform="translate(0 0)" fill="#404254">
  <rect fill="#f2f5e9" fill-opacity="0.5" stroke="#606060" stroke-width=".5" x="0" y="0" width="60" height="60"/>
  <use id="zoomplus" xlink:href="#zoomPlus" x="17" y="9" onmousedown="handleZoom(evt,'in')"/>
  <use id="zoomminus" xlink:href="#zoomMin" x="42" y="9" onmousedown="handleZoom(evt,'out')"/>
  <use id="reset" xlink:href="#resetDef" x="30" y="36" onmousedown="handleReset()"/>
   <use id="arrowup" xlink:href="#arrowUp" x="0" y="0" onmousedown="handlePan(0,-1)"/>
  <use id="arrowright" xlink:href="#arrowRight" x="0" y="0" onmousedown="handlePan(1,0)"/>
  <use id="arrowdown" xlink:href="#arrowDown" x="0" y="0" onmousedown="handlePan(0,1)"/>
  <use id="arrowleft" xlink:href="#arrowLeft" x="0" y="0" onmousedown="handlePan(-1,0)"/>
</g>
<svg viewBox="0 0 15 15" width="100%" height="30px" preserveAspectRatio="xMaxYMin meet">
 <g id="arrow_out" transform="scale(0.3 0.3)">
  <a xlink:href="testRFC1035_8cc__incl_org.svg" target="_base">
   <rect id="button" ry="5" rx="5" y="6" x="6" height="38" width="38"
        fill="#f2f5e9" fill-opacity="0.5" stroke="#606060" stroke-width="1.0"/>
   <path id="arrow"
     d="M 11.500037,31.436501 C 11.940474,20.09759 22.043105,11.32322 32.158766,21.979434 L 37.068811,17.246167 C 37.068811,17.246167 37.088388,32 37.088388,32 L 22.160133,31.978069 C 22.160133,31.978069 26.997745,27.140456 26.997745,27.140456 C 18.528582,18.264221 13.291696,25.230495 11.500037,31.436501 z"
     style="fill:#404040;"/>
  </a>
 </g>
</svg>

<style type='text/css'>
<![CDATA[
[data-mouse-over-selected='false'] { opacity: 0.7; }
[data-mouse-over-selected='true']  { opacity: 1.0; }
]]>
</style>
<script type="application/ecmascript"><![CDATA[
document.addEventListener('DOMContentLoaded', (event) => {
  highlightEdges();
  highlightAdjacentNodes();
});
]]></script>
</svg>
