<?xml version="1.0" encoding="UTF-8" standalone="no"?>
<!DOCTYPE svg PUBLIC "-//W3C//DTD SVG 1.1//EN"
 "http://www.w3.org/Graphics/SVG/1.1/DTD/svg11.dtd">
<!-- Generated by graphviz version 2.43.0 (0)
 -->
<!-- Title: squid/src/tests/testTokenizer.cc Pages: 1 -->
<svg width="4689pt" height="258pt"
 viewBox="0.00 0.00 4688.50 258.00" xmlns="http://www.w3.org/2000/svg" xmlns:xlink="http://www.w3.org/1999/xlink">
<g id="graph0" class="graph" transform="scale(1 1) rotate(0) translate(4 254)">
<title>squid/src/tests/testTokenizer.cc</title>
<!-- Node1 -->
<g id="Node000001" class="node">
<title>Node1</title>
<g id="a_Node000001"><a xlink:title=" ">
<polygon fill="#999999" stroke="#666666" points="3478,-250 3311,-250 3311,-231 3478,-231 3478,-250"/>
<text text-anchor="middle" x="3394.5" y="-238" font-family="Helvetica,sans-Serif" font-size="10.00">squid/src/tests/testTokenizer.cc</text>
</a>
</g>
</g>
<!-- Node2 -->
<g id="Node000002" class="node">
<title>Node2</title>
<g id="a_Node000002"><a xlink:href="squid_8h.html" target="_top" xlink:title=" ">
<polygon fill="white" stroke="#666666" points="1653.5,-195 1601.5,-195 1601.5,-176 1653.5,-176 1653.5,-195"/>
<text text-anchor="middle" x="1627.5" y="-183" font-family="Helvetica,sans-Serif" font-size="10.00">squid.h</text>
</a>
</g>
</g>
<!-- Node1&#45;&gt;Node2 -->
<g id="edge1_Node000001_Node000002" class="edge">
<title>Node1&#45;&gt;Node2</title>
<g id="a_edge1_Node000001_Node000002"><a xlink:title=" ">
<path fill="none" stroke="#63b8ff" d="M3310.76,-236.99C2994.5,-227.5 1879.82,-194.07 1663.88,-187.59"/>
<polygon fill="#63b8ff" stroke="#63b8ff" points="1663.82,-184.09 1653.72,-187.29 1663.61,-191.08 1663.82,-184.09"/>
</a>
</g>
</g>
<!-- Node44 -->
<g id="Node000044" class="node">
<title>Node44</title>
<g id="a_Node000044"><a xlink:href="CharacterSet_8h.html" target="_top" xlink:title=" ">
<polygon fill="white" stroke="#666666" points="3373,-134.5 3258,-134.5 3258,-115.5 3373,-115.5 3373,-134.5"/>
<text text-anchor="middle" x="3315.5" y="-122.5" font-family="Helvetica,sans-Serif" font-size="10.00">base/CharacterSet.h</text>
</a>
</g>
</g>
<!-- Node1&#45;&gt;Node44 -->
<g id="edge30_Node000001_Node000044" class="edge">
<title>Node1&#45;&gt;Node44</title>
<g id="a_edge30_Node000001_Node000044"><a xlink:title=" ">
<path fill="none" stroke="#63b8ff" d="M3377.27,-230.88C3363.71,-223.23 3345.35,-210.83 3334.5,-195 3324.2,-179.97 3319.47,-159.52 3317.3,-144.79"/>
<polygon fill="#63b8ff" stroke="#63b8ff" points="3320.77,-144.34 3316.1,-134.83 3313.82,-145.18 3320.77,-144.34"/>
</a>
</g>
</g>
<!-- Node48 -->
<g id="Node000048" class="node">
<title>Node48</title>
<g id="a_Node000048"><a xlink:href="cppunit_8h.html" target="_top" xlink:title=" ">
<polygon fill="white" stroke="#666666" points="3445,-195 3344,-195 3344,-176 3445,-176 3445,-195"/>
<text text-anchor="middle" x="3394.5" y="-183" font-family="Helvetica,sans-Serif" font-size="10.00">compat/cppunit.h</text>
</a>
</g>
</g>
<!-- Node1&#45;&gt;Node48 -->
<g id="edge34_Node000001_Node000048" class="edge">
<title>Node1&#45;&gt;Node48</title>
<g id="a_edge34_Node000001_Node000048"><a xlink:title=" ">
<path fill="none" stroke="#63b8ff" d="M3394.5,-230.75C3394.5,-223.8 3394.5,-213.85 3394.5,-205.13"/>
<polygon fill="#63b8ff" stroke="#63b8ff" points="3398,-205.09 3394.5,-195.09 3391,-205.09 3398,-205.09"/>
</a>
</g>
</g>
<!-- Node49 -->
<g id="Node000049" class="node">
<title>Node49</title>
<g id="a_Node000049"><a xlink:href="parser_2Tokenizer_8h.html" target="_top" xlink:title=" ">
<polygon fill="white" stroke="#666666" points="3567.5,-195 3463.5,-195 3463.5,-176 3567.5,-176 3567.5,-195"/>
<text text-anchor="middle" x="3515.5" y="-183" font-family="Helvetica,sans-Serif" font-size="10.00">parser/Tokenizer.h</text>
</a>
</g>
</g>
<!-- Node1&#45;&gt;Node49 -->
<g id="edge35_Node000001_Node000049" class="edge">
<title>Node1&#45;&gt;Node49</title>
<g id="a_edge35_Node000001_Node000049"><a xlink:title=" ">
<path fill="none" stroke="#63b8ff" d="M3413.94,-230.98C3433.49,-222.42 3463.88,-209.11 3486.32,-199.28"/>
<polygon fill="#63b8ff" stroke="#63b8ff" points="3487.95,-202.39 3495.71,-195.17 3485.14,-195.98 3487.95,-202.39"/>
</a>
</g>
</g>
<!-- Node84 -->
<g id="Node000084" class="node">
<title>Node84</title>
<g id="a_Node000084"><a xlink:href="unitTestMain_8h.html" target="_top" xlink:title=" ">
<polygon fill="white" stroke="#666666" points="4138.5,-195 4050.5,-195 4050.5,-176 4138.5,-176 4138.5,-195"/>
<text text-anchor="middle" x="4094.5" y="-183" font-family="Helvetica,sans-Serif" font-size="10.00">unitTestMain.h</text>
</a>
</g>
</g>
<!-- Node1&#45;&gt;Node84 -->
<g id="edge45_Node000001_Node000084" class="edge">
<title>Node1&#45;&gt;Node84</title>
<g id="a_edge45_Node000001_Node000084"><a xlink:title=" ">
<path fill="none" stroke="#63b8ff" d="M3478.24,-233.16C3623.52,-222.16 3918.37,-199.84 4040.08,-190.62"/>
<polygon fill="#63b8ff" stroke="#63b8ff" points="4040.56,-194.09 4050.27,-189.85 4040.03,-187.11 4040.56,-194.09"/>
</a>
</g>
</g>
<!-- Node3 -->
<g id="Node000003" class="node">
<title>Node3</title>
<g id="a_Node000003"><a xlink:href="autoconf_8h.html" target="_top" xlink:title=" ">
<polygon fill="white" stroke="#666666" points="1528.5,-134.5 1460.5,-134.5 1460.5,-115.5 1528.5,-115.5 1528.5,-134.5"/>
<text text-anchor="middle" x="1494.5" y="-122.5" font-family="Helvetica,sans-Serif" font-size="10.00">autoconf.h</text>
</a>
</g>
</g>
<!-- Node2&#45;&gt;Node3 -->
<g id="edge2_Node000002_Node000003" class="edge">
<title>Node2&#45;&gt;Node3</title>
<g id="a_edge2_Node000002_Node000003"><a xlink:title=" ">
<path fill="none" stroke="#63b8ff" d="M1608.16,-175.99C1585.8,-166.16 1548.79,-149.88 1523.1,-138.58"/>
<polygon fill="#63b8ff" stroke="#63b8ff" points="1524.43,-135.34 1513.86,-134.52 1521.61,-141.75 1524.43,-135.34"/>
</a>
</g>
</g>
<!-- Node4 -->
<g id="Node000004" class="node">
<title>Node4</title>
<g id="a_Node000004"><a xlink:href="version_8h.html" target="_top" xlink:title=" ">
<polygon fill="white" stroke="#666666" points="1608.5,-134.5 1546.5,-134.5 1546.5,-115.5 1608.5,-115.5 1608.5,-134.5"/>
<text text-anchor="middle" x="1577.5" y="-122.5" font-family="Helvetica,sans-Serif" font-size="10.00">version.h</text>
</a>
</g>
</g>
<!-- Node2&#45;&gt;Node4 -->
<g id="edge3_Node000002_Node000004" class="edge">
<title>Node2&#45;&gt;Node4</title>
<g id="a_edge3_Node000002_Node000004"><a xlink:title=" ">
<path fill="none" stroke="#63b8ff" d="M1620.12,-175.87C1612.59,-167.05 1600.71,-153.16 1591.41,-142.27"/>
<polygon fill="#63b8ff" stroke="#63b8ff" points="1594.07,-140 1584.91,-134.67 1588.74,-144.54 1594.07,-140"/>
</a>
</g>
</g>
<!-- Node5 -->
<g id="Node000005" class="node">
<title>Node5</title>
<g id="a_Node000005"><a xlink:href="compat_8h.html" target="_top" xlink:title=" ">
<polygon fill="white" stroke="#666666" points="1728.5,-134.5 1626.5,-134.5 1626.5,-115.5 1728.5,-115.5 1728.5,-134.5"/>
<text text-anchor="middle" x="1677.5" y="-122.5" font-family="Helvetica,sans-Serif" font-size="10.00">compat/compat.h</text>
</a>
</g>
</g>
<!-- Node2&#45;&gt;Node5 -->
<g id="edge4_Node000002_Node000005" class="edge">
<title>Node2&#45;&gt;Node5</title>
<g id="a_edge4_Node000002_Node000005"><a xlink:title=" ">
<path fill="none" stroke="#63b8ff" d="M1634.88,-175.87C1642.41,-167.05 1654.29,-153.16 1663.59,-142.27"/>
<polygon fill="#63b8ff" stroke="#63b8ff" points="1666.26,-144.54 1670.09,-134.67 1660.93,-140 1666.26,-144.54"/>
</a>
</g>
</g>
<!-- Node6 -->
<g id="Node000006" class="node">
<title>Node6</title>
<g id="a_Node000006"><a xlink:href="osdetect_8h.html" target="_top" xlink:title=" ">
<polygon fill="white" stroke="#666666" points="107,-74 0,-74 0,-55 107,-55 107,-74"/>
<text text-anchor="middle" x="53.5" y="-62" font-family="Helvetica,sans-Serif" font-size="10.00">compat/osdetect.h</text>
</a>
</g>
</g>
<!-- Node5&#45;&gt;Node6 -->
<g id="edge5_Node000005_Node000006" class="edge">
<title>Node5&#45;&gt;Node6</title>
<g id="a_edge5_Node000005_Node000006"><a xlink:title=" ">
<path fill="none" stroke="#63b8ff" d="M1646.27,-115.43C1637.07,-113.26 1626.94,-111.2 1617.5,-110 958.93,-26.17 783.51,-125.66 117.41,-73.95"/>
<polygon fill="#63b8ff" stroke="#63b8ff" points="117.32,-70.43 107.07,-73.14 116.77,-77.41 117.32,-70.43"/>
</a>
</g>
</g>
<!-- Node7 -->
<g id="Node000007" class="node">
<title>Node7</title>
<g id="a_Node000007"><a xlink:href="fdsetsize_8h.html" target="_top" xlink:title=" ">
<polygon fill="white" stroke="#666666" points="235.5,-74 125.5,-74 125.5,-55 235.5,-55 235.5,-74"/>
<text text-anchor="middle" x="180.5" y="-62" font-family="Helvetica,sans-Serif" font-size="10.00">compat/fdsetsize.h</text>
</a>
</g>
</g>
<!-- Node5&#45;&gt;Node7 -->
<g id="edge6_Node000005_Node000007" class="edge">
<title>Node5&#45;&gt;Node7</title>
<g id="a_edge6_Node000005_Node000007"><a xlink:title=" ">
<path fill="none" stroke="#63b8ff" d="M1646.27,-115.45C1637.07,-113.27 1626.94,-111.21 1617.5,-110 1015.44,-32.68 854.82,-121.25 245.98,-74.01"/>
<polygon fill="#63b8ff" stroke="#63b8ff" points="245.86,-70.49 235.62,-73.2 245.31,-77.47 245.86,-70.49"/>
</a>
</g>
</g>
<!-- Node8 -->
<g id="Node000008" class="node">
<title>Node8</title>
<g id="a_Node000008"><a xlink:href="types_8h.html" target="_top" xlink:title=" ">
<polygon fill="#fff0f0" stroke="red" points="345.5,-74 253.5,-74 253.5,-55 345.5,-55 345.5,-74"/>
<text text-anchor="middle" x="299.5" y="-62" font-family="Helvetica,sans-Serif" font-size="10.00">compat/types.h</text>
</a>
</g>
</g>
<!-- Node5&#45;&gt;Node8 -->
<g id="edge7_Node000005_Node000008" class="edge">
<title>Node5&#45;&gt;Node8</title>
<g id="a_edge7_Node000005_Node000008"><a xlink:title=" ">
<path fill="none" stroke="#63b8ff" d="M1646.27,-115.46C1637.07,-113.29 1626.94,-111.22 1617.5,-110 1063.99,-38.28 915.55,-123.93 356.02,-74"/>
<polygon fill="#63b8ff" stroke="#63b8ff" points="355.94,-70.48 345.66,-73.06 355.31,-77.45 355.94,-70.48"/>
</a>
</g>
</g>
<!-- Node10 -->
<g id="Node000010" class="node">
<title>Node10</title>
<g id="a_Node000010"><a xlink:href="aix_8h.html" target="_top" xlink:title=" ">
<polygon fill="white" stroke="#666666" points="459,-74 364,-74 364,-55 459,-55 459,-74"/>
<text text-anchor="middle" x="411.5" y="-62" font-family="Helvetica,sans-Serif" font-size="10.00">compat/os/aix.h</text>
</a>
</g>
</g>
<!-- Node5&#45;&gt;Node10 -->
<g id="edge8_Node000005_Node000010" class="edge">
<title>Node5&#45;&gt;Node10</title>
<g id="a_edge8_Node000005_Node000010"><a xlink:title=" ">
<path fill="none" stroke="#63b8ff" d="M1646.26,-115.48C1637.07,-113.31 1626.94,-111.24 1617.5,-110 1114.25,-44.07 979.14,-118.76 469.24,-73.92"/>
<polygon fill="#63b8ff" stroke="#63b8ff" points="469.31,-70.41 459.04,-73.01 468.69,-77.39 469.31,-70.41"/>
</a>
</g>
</g>
<!-- Node11 -->
<g id="Node000011" class="node">
<title>Node11</title>
<g id="a_Node000011"><a xlink:href="android_8h.html" target="_top" xlink:title=" ">
<polygon fill="white" stroke="#666666" points="593.5,-74 477.5,-74 477.5,-55 593.5,-55 593.5,-74"/>
<text text-anchor="middle" x="535.5" y="-62" font-family="Helvetica,sans-Serif" font-size="10.00">compat/os/android.h</text>
</a>
</g>
</g>
<!-- Node5&#45;&gt;Node11 -->
<g id="edge9_Node000005_Node000011" class="edge">
<title>Node5&#45;&gt;Node11</title>
<g id="a_edge9_Node000005_Node000011"><a xlink:title=" ">
<path fill="none" stroke="#63b8ff" d="M1645.95,-115.43C1636.84,-113.28 1626.83,-111.24 1617.5,-110 1173.33,-50.87 1054.16,-109.57 603.6,-74"/>
<polygon fill="#63b8ff" stroke="#63b8ff" points="603.82,-70.5 593.57,-73.19 603.26,-77.48 603.82,-70.5"/>
</a>
</g>
</g>
<!-- Node12 -->
<g id="Node000012" class="node">
<title>Node12</title>
<g id="a_Node000012"><a xlink:href="dragonfly_8h.html" target="_top" xlink:title=" ">
<polygon fill="white" stroke="#666666" points="735.5,-74 611.5,-74 611.5,-55 735.5,-55 735.5,-74"/>
<text text-anchor="middle" x="673.5" y="-62" font-family="Helvetica,sans-Serif" font-size="10.00">compat/os/dragonfly.h</text>
</a>
</g>
</g>
<!-- Node5&#45;&gt;Node12 -->
<g id="edge10_Node000005_Node000012" class="edge">
<title>Node5&#45;&gt;Node12</title>
<g id="a_edge10_Node000005_Node000012"><a xlink:title=" ">
<path fill="none" stroke="#63b8ff" d="M1645.95,-115.47C1636.83,-113.32 1626.83,-111.27 1617.5,-110 1236,-58.1 1133.33,-104.3 745.89,-74.04"/>
<polygon fill="#63b8ff" stroke="#63b8ff" points="746.06,-70.54 735.81,-73.24 745.5,-77.52 746.06,-70.54"/>
</a>
</g>
</g>
<!-- Node13 -->
<g id="Node000013" class="node">
<title>Node13</title>
<g id="a_Node000013"><a xlink:href="freebsd_8h.html" target="_top" xlink:title=" ">
<polygon fill="white" stroke="#666666" points="869.5,-74 753.5,-74 753.5,-55 869.5,-55 869.5,-74"/>
<text text-anchor="middle" x="811.5" y="-62" font-family="Helvetica,sans-Serif" font-size="10.00">compat/os/freebsd.h</text>
</a>
</g>
</g>
<!-- Node5&#45;&gt;Node13 -->
<g id="edge11_Node000005_Node000013" class="edge">
<title>Node5&#45;&gt;Node13</title>
<g id="a_edge11_Node000005_Node000013"><a xlink:title=" ">
<path fill="none" stroke="#63b8ff" d="M1645.63,-115.44C1636.6,-113.32 1626.72,-111.29 1617.5,-110 1295.17,-64.92 1207.86,-101.94 879.85,-74.04"/>
<polygon fill="#63b8ff" stroke="#63b8ff" points="879.84,-70.52 869.58,-73.15 879.24,-77.5 879.84,-70.52"/>
</a>
</g>
</g>
<!-- Node14 -->
<g id="Node000014" class="node">
<title>Node14</title>
<g id="a_Node000014"><a xlink:href="hpux_8h.html" target="_top" xlink:title=" ">
<polygon fill="white" stroke="#666666" points="991.5,-74 887.5,-74 887.5,-55 991.5,-55 991.5,-74"/>
<text text-anchor="middle" x="939.5" y="-62" font-family="Helvetica,sans-Serif" font-size="10.00">compat/os/hpux.h</text>
</a>
</g>
</g>
<!-- Node5&#45;&gt;Node14 -->
<g id="edge12_Node000005_Node000014" class="edge">
<title>Node5&#45;&gt;Node14</title>
<g id="a_edge12_Node000005_Node000014"><a xlink:title=" ">
<path fill="none" stroke="#63b8ff" d="M1645.62,-115.49C1636.59,-113.38 1626.71,-111.33 1617.5,-110 1348.96,-71.13 1275.64,-100.25 1001.95,-74.05"/>
<polygon fill="#63b8ff" stroke="#63b8ff" points="1002,-70.54 991.71,-73.06 1001.32,-77.51 1002,-70.54"/>
</a>
</g>
</g>
<!-- Node15 -->
<g id="Node000015" class="node">
<title>Node15</title>
<g id="a_Node000015"><a xlink:href="linux_8h.html" target="_top" xlink:title=" ">
<polygon fill="white" stroke="#666666" points="1113.5,-74 1009.5,-74 1009.5,-55 1113.5,-55 1113.5,-74"/>
<text text-anchor="middle" x="1061.5" y="-62" font-family="Helvetica,sans-Serif" font-size="10.00">compat/os/linux.h</text>
</a>
</g>
</g>
<!-- Node5&#45;&gt;Node15 -->
<g id="edge13_Node000005_Node000015" class="edge">
<title>Node5&#45;&gt;Node15</title>
<g id="a_edge13_Node000005_Node000015"><a xlink:title=" ">
<path fill="none" stroke="#63b8ff" d="M1644.98,-115.44C1636.12,-113.37 1626.49,-111.37 1617.5,-110 1402.73,-77.34 1343.63,-96.63 1123.96,-74.08"/>
<polygon fill="#63b8ff" stroke="#63b8ff" points="1124.03,-70.56 1113.72,-73.01 1123.3,-77.53 1124.03,-70.56"/>
</a>
</g>
</g>
<!-- Node16 -->
<g id="Node000016" class="node">
<title>Node16</title>
<g id="a_Node000016"><a xlink:href="macosx_8h.html" target="_top" xlink:title=" ">
<polygon fill="white" stroke="#666666" points="1249.5,-74 1131.5,-74 1131.5,-55 1249.5,-55 1249.5,-74"/>
<text text-anchor="middle" x="1190.5" y="-62" font-family="Helvetica,sans-Serif" font-size="10.00">compat/os/macosx.h</text>
</a>
</g>
</g>
<!-- Node5&#45;&gt;Node16 -->
<g id="edge14_Node000005_Node000016" class="edge">
<title>Node5&#45;&gt;Node16</title>
<g id="a_edge14_Node000005_Node000016"><a xlink:title=" ">
<path fill="none" stroke="#63b8ff" d="M1644.33,-115.45C1635.64,-113.44 1626.26,-111.45 1617.5,-110 1462.56,-84.27 1419.6,-91.62 1260.01,-74.13"/>
<polygon fill="#63b8ff" stroke="#63b8ff" points="1260.15,-70.63 1249.83,-73 1259.38,-77.59 1260.15,-70.63"/>
</a>
</g>
</g>
<!-- Node17 -->
<g id="Node000017" class="node">
<title>Node17</title>
<g id="a_Node000017"><a xlink:href="mingw_8h.html" target="_top" xlink:title=" ">
<polygon fill="white" stroke="#666666" points="1379.5,-74 1267.5,-74 1267.5,-55 1379.5,-55 1379.5,-74"/>
<text text-anchor="middle" x="1323.5" y="-62" font-family="Helvetica,sans-Serif" font-size="10.00">compat/os/mingw.h</text>
</a>
</g>
</g>
<!-- Node5&#45;&gt;Node17 -->
<g id="edge15_Node000005_Node000017" class="edge">
<title>Node5&#45;&gt;Node17</title>
<g id="a_edge15_Node000005_Node000017"><a xlink:title=" ">
<path fill="none" stroke="#63b8ff" d="M1643.02,-115.46C1634.69,-113.54 1625.8,-111.59 1617.5,-110 1575.07,-101.85 1462.45,-85.34 1389.55,-74.88"/>
<polygon fill="#63b8ff" stroke="#63b8ff" points="1389.94,-71.4 1379.54,-73.44 1388.94,-78.33 1389.94,-71.4"/>
</a>
</g>
</g>
<!-- Node18 -->
<g id="Node000018" class="node">
<title>Node18</title>
<g id="a_Node000018"><a xlink:href="mswindows_8h.html" target="_top" xlink:title=" ">
<polygon fill="white" stroke="#666666" points="1535,-74 1398,-74 1398,-55 1535,-55 1535,-74"/>
<text text-anchor="middle" x="1466.5" y="-62" font-family="Helvetica,sans-Serif" font-size="10.00">compat/os/mswindows.h</text>
</a>
</g>
</g>
<!-- Node5&#45;&gt;Node18 -->
<g id="edge16_Node000005_Node000018" class="edge">
<title>Node5&#45;&gt;Node18</title>
<g id="a_edge16_Node000005_Node000018"><a xlink:title=" ">
<path fill="none" stroke="#63b8ff" d="M1646.82,-115.49C1609.94,-105.27 1547.93,-88.08 1507.11,-76.76"/>
<polygon fill="#63b8ff" stroke="#63b8ff" points="1507.79,-73.32 1497.22,-74.02 1505.92,-80.06 1507.79,-73.32"/>
</a>
</g>
</g>
<!-- Node19 -->
<g id="Node000019" class="node">
<title>Node19</title>
<g id="a_Node000019"><a xlink:href="netbsd_8h.html" target="_top" xlink:title=" ">
<polygon fill="white" stroke="#666666" points="1666,-74 1553,-74 1553,-55 1666,-55 1666,-74"/>
<text text-anchor="middle" x="1609.5" y="-62" font-family="Helvetica,sans-Serif" font-size="10.00">compat/os/netbsd.h</text>
</a>
</g>
</g>
<!-- Node5&#45;&gt;Node19 -->
<g id="edge17_Node000005_Node000019" class="edge">
<title>Node5&#45;&gt;Node19</title>
<g id="a_edge17_Node000005_Node000019"><a xlink:title=" ">
<path fill="none" stroke="#63b8ff" d="M1667.47,-115.37C1656.92,-106.3 1640.11,-91.84 1627.31,-80.82"/>
<polygon fill="#63b8ff" stroke="#63b8ff" points="1629.44,-78.04 1619.57,-74.17 1624.87,-83.34 1629.44,-78.04"/>
</a>
</g>
</g>
<!-- Node20 -->
<g id="Node000020" class="node">
<title>Node20</title>
<g id="a_Node000020"><a xlink:href="openbsd_8h.html" target="_top" xlink:title=" ">
<polygon fill="white" stroke="#666666" points="1805,-74 1684,-74 1684,-55 1805,-55 1805,-74"/>
<text text-anchor="middle" x="1744.5" y="-62" font-family="Helvetica,sans-Serif" font-size="10.00">compat/os/openbsd.h</text>
</a>
</g>
</g>
<!-- Node5&#45;&gt;Node20 -->
<g id="edge18_Node000005_Node000020" class="edge">
<title>Node5&#45;&gt;Node20</title>
<g id="a_edge18_Node000005_Node000020"><a xlink:title=" ">
<path fill="none" stroke="#63b8ff" d="M1687.39,-115.37C1697.78,-106.3 1714.34,-91.84 1726.95,-80.82"/>
<polygon fill="#63b8ff" stroke="#63b8ff" points="1729.34,-83.38 1734.57,-74.17 1724.74,-78.11 1729.34,-83.38"/>
</a>
</g>
</g>
<!-- Node21 -->
<g id="Node000021" class="node">
<title>Node21</title>
<g id="a_Node000021"><a xlink:href="os2_8h.html" target="_top" xlink:title=" ">
<polygon fill="white" stroke="#666666" points="1920,-74 1823,-74 1823,-55 1920,-55 1920,-74"/>
<text text-anchor="middle" x="1871.5" y="-62" font-family="Helvetica,sans-Serif" font-size="10.00">compat/os/os2.h</text>
</a>
</g>
</g>
<!-- Node5&#45;&gt;Node21 -->
<g id="edge19_Node000005_Node000021" class="edge">
<title>Node5&#45;&gt;Node21</title>
<g id="a_edge19_Node000005_Node000021"><a xlink:title=" ">
<path fill="none" stroke="#63b8ff" d="M1705.71,-115.49C1739.47,-105.31 1796.15,-88.22 1833.68,-76.9"/>
<polygon fill="#63b8ff" stroke="#63b8ff" points="1834.69,-80.25 1843.26,-74.02 1832.67,-73.55 1834.69,-80.25"/>
</a>
</g>
</g>
<!-- Node22 -->
<g id="Node000022" class="node">
<title>Node22</title>
<g id="a_Node000022"><a xlink:href="qnx_8h.html" target="_top" xlink:title=" ">
<polygon fill="white" stroke="#666666" points="2036.5,-74 1938.5,-74 1938.5,-55 2036.5,-55 2036.5,-74"/>
<text text-anchor="middle" x="1987.5" y="-62" font-family="Helvetica,sans-Serif" font-size="10.00">compat/os/qnx.h</text>
</a>
</g>
</g>
<!-- Node5&#45;&gt;Node22 -->
<g id="edge20_Node000005_Node000022" class="edge">
<title>Node5&#45;&gt;Node22</title>
<g id="a_edge20_Node000005_Node000022"><a xlink:title=" ">
<path fill="none" stroke="#63b8ff" d="M1722.58,-115.49C1778.14,-105.01 1872.52,-87.2 1932.35,-75.91"/>
<polygon fill="#63b8ff" stroke="#63b8ff" points="1933.19,-79.31 1942.37,-74.02 1931.89,-72.43 1933.19,-79.31"/>
</a>
</g>
</g>
<!-- Node23 -->
<g id="Node000023" class="node">
<title>Node23</title>
<g id="a_Node000023"><a xlink:href="solaris_8h.html" target="_top" xlink:title=" ">
<polygon fill="white" stroke="#666666" points="2166.5,-74 2054.5,-74 2054.5,-55 2166.5,-55 2166.5,-74"/>
<text text-anchor="middle" x="2110.5" y="-62" font-family="Helvetica,sans-Serif" font-size="10.00">compat/os/solaris.h</text>
</a>
</g>
</g>
<!-- Node5&#45;&gt;Node23 -->
<g id="edge21_Node000005_Node000023" class="edge">
<title>Node5&#45;&gt;Node23</title>
<g id="a_edge21_Node000005_Node000023"><a xlink:title=" ">
<path fill="none" stroke="#63b8ff" d="M1728.87,-117.06C1807.52,-106.43 1957.76,-86.14 2044.42,-74.43"/>
<polygon fill="#63b8ff" stroke="#63b8ff" points="2044.97,-77.89 2054.41,-73.08 2044.03,-70.95 2044.97,-77.89"/>
</a>
</g>
</g>
<!-- Node24 -->
<g id="Node000024" class="node">
<title>Node24</title>
<g id="a_Node000024"><a xlink:href="sunos_8h.html" target="_top" xlink:title=" ">
<polygon fill="white" stroke="#666666" points="2292.5,-74 2184.5,-74 2184.5,-55 2292.5,-55 2292.5,-74"/>
<text text-anchor="middle" x="2238.5" y="-62" font-family="Helvetica,sans-Serif" font-size="10.00">compat/os/sunos.h</text>
</a>
</g>
</g>
<!-- Node5&#45;&gt;Node24 -->
<g id="edge22_Node000005_Node000024" class="edge">
<title>Node5&#45;&gt;Node24</title>
<g id="a_edge22_Node000005_Node000024"><a xlink:title=" ">
<path fill="none" stroke="#63b8ff" d="M1728.82,-119.43C1817.43,-111.41 2005.1,-93.86 2174.14,-74.13"/>
<polygon fill="#63b8ff" stroke="#63b8ff" points="2174.69,-77.58 2184.22,-72.94 2173.88,-70.63 2174.69,-77.58"/>
</a>
</g>
</g>
<!-- Node25 -->
<g id="Node000025" class="node">
<title>Node25</title>
<g id="a_Node000025"><a xlink:href="assert_8h.html" target="_top" xlink:title=" ">
<polygon fill="white" stroke="#666666" points="2406,-74 2311,-74 2311,-55 2406,-55 2406,-74"/>
<text text-anchor="middle" x="2358.5" y="-62" font-family="Helvetica,sans-Serif" font-size="10.00">compat/assert.h</text>
</a>
</g>
</g>
<!-- Node5&#45;&gt;Node25 -->
<g id="edge23_Node000005_Node000025" class="edge">
<title>Node5&#45;&gt;Node25</title>
<g id="a_edge23_Node000005_Node000025"><a xlink:title=" ">
<path fill="none" stroke="#63b8ff" d="M1728.57,-121.09C1833.61,-114.85 2081.67,-98.79 2300.86,-73.99"/>
<polygon fill="#63b8ff" stroke="#63b8ff" points="2301.41,-77.45 2310.95,-72.84 2300.61,-70.49 2301.41,-77.45"/>
</a>
</g>
</g>
<!-- Node26 -->
<g id="Node000026" class="node">
<title>Node26</title>
<g id="a_Node000026"><a xlink:href="compat__shared_8h.html" target="_top" xlink:title=" ">
<polygon fill="#fff0f0" stroke="red" points="2564.5,-74 2424.5,-74 2424.5,-55 2564.5,-55 2564.5,-74"/>
<text text-anchor="middle" x="2494.5" y="-62" font-family="Helvetica,sans-Serif" font-size="10.00">compat/compat_shared.h</text>
</a>
</g>
</g>
<!-- Node5&#45;&gt;Node26 -->
<g id="edge24_Node000005_Node000026" class="edge">
<title>Node5&#45;&gt;Node26</title>
<g id="a_edge24_Node000005_Node000026"><a xlink:title=" ">
<path fill="none" stroke="#63b8ff" d="M1728.93,-121.19C1847.53,-114.56 2149.58,-96.83 2414.09,-74"/>
<polygon fill="#63b8ff" stroke="#63b8ff" points="2414.61,-77.47 2424.27,-73.11 2414.01,-70.49 2414.61,-77.47"/>
</a>
</g>
</g>
<!-- Node36 -->
<g id="Node000036" class="node">
<title>Node36</title>
<g id="a_Node000036"><a xlink:href="stdvarargs_8h.html" target="_top" xlink:title=" ">
<polygon fill="#fff0f0" stroke="red" points="2700,-74 2583,-74 2583,-55 2700,-55 2700,-74"/>
<text text-anchor="middle" x="2641.5" y="-62" font-family="Helvetica,sans-Serif" font-size="10.00">compat/stdvarargs.h</text>
</a>
</g>
</g>
<!-- Node5&#45;&gt;Node36 -->
<g id="edge25_Node000005_Node000036" class="edge">
<title>Node5&#45;&gt;Node36</title>
<g id="a_edge25_Node000005_Node000036"><a xlink:title=" ">
<path fill="none" stroke="#63b8ff" d="M1728.61,-122.38C1864.25,-117.81 2244.78,-103.27 2572.75,-74"/>
<polygon fill="#63b8ff" stroke="#63b8ff" points="2573.28,-77.46 2582.92,-73.08 2572.65,-70.49 2573.28,-77.46"/>
</a>
</g>
</g>
<!-- Node38 -->
<g id="Node000038" class="node">
<title>Node38</title>
<g id="a_Node000038"><a xlink:href="stdio_8h.html" target="_top" xlink:title=" ">
<polygon fill="#fff0f0" stroke="red" points="2807,-74 2718,-74 2718,-55 2807,-55 2807,-74"/>
<text text-anchor="middle" x="2762.5" y="-62" font-family="Helvetica,sans-Serif" font-size="10.00">compat/stdio.h</text>
</a>
</g>
</g>
<!-- Node5&#45;&gt;Node38 -->
<g id="edge26_Node000005_Node000038" class="edge">
<title>Node5&#45;&gt;Node38</title>
<g id="a_edge26_Node000005_Node000038"><a xlink:title=" ">
<path fill="none" stroke="#63b8ff" d="M1728.6,-123.47C1877.79,-121.49 2325.73,-112.63 2707.62,-73.96"/>
<polygon fill="#63b8ff" stroke="#63b8ff" points="2708.17,-77.42 2717.76,-72.92 2707.46,-70.46 2708.17,-77.42"/>
</a>
</g>
</g>
<!-- Node40 -->
<g id="Node000040" class="node">
<title>Node40</title>
<g id="a_Node000040"><a xlink:href="statvfs_8h.html" target="_top" xlink:title=" ">
<polygon fill="white" stroke="#666666" points="2924,-74 2825,-74 2825,-55 2924,-55 2924,-74"/>
<text text-anchor="middle" x="2874.5" y="-62" font-family="Helvetica,sans-Serif" font-size="10.00">compat/statvfs.h</text>
</a>
</g>
</g>
<!-- Node5&#45;&gt;Node40 -->
<g id="edge27_Node000005_Node000040" class="edge">
<title>Node5&#45;&gt;Node40</title>
<g id="a_edge27_Node000005_Node000040"><a xlink:title=" ">
<path fill="none" stroke="#63b8ff" d="M1728.67,-123.56C1887.94,-121.8 2389.18,-113.37 2814.93,-73.94"/>
<polygon fill="#63b8ff" stroke="#63b8ff" points="2815.34,-77.41 2824.97,-73 2814.69,-70.44 2815.34,-77.41"/>
</a>
</g>
</g>
<!-- Node41 -->
<g id="Node000041" class="node">
<title>Node41</title>
<g id="a_Node000041"><a xlink:href="debug_8h.html" target="_top" xlink:title=" ">
<polygon fill="white" stroke="#666666" points="3037,-74 2942,-74 2942,-55 3037,-55 3037,-74"/>
<text text-anchor="middle" x="2989.5" y="-62" font-family="Helvetica,sans-Serif" font-size="10.00">compat/debug.h</text>
</a>
</g>
</g>
<!-- Node5&#45;&gt;Node41 -->
<g id="edge28_Node000005_Node000041" class="edge">
<title>Node5&#45;&gt;Node41</title>
<g id="a_edge28_Node000005_Node000041"><a xlink:title=" ">
<path fill="none" stroke="#63b8ff" d="M1728.74,-123.94C1898.57,-123.34 2458.56,-117.97 2931.85,-73.93"/>
<polygon fill="#63b8ff" stroke="#63b8ff" points="2932.33,-77.4 2941.96,-72.98 2931.68,-70.43 2932.33,-77.4"/>
</a>
</g>
</g>
<!-- Node42 -->
<g id="Node000042" class="node">
<title>Node42</title>
<g id="a_Node000042"><a xlink:href="valgrind_8h.html" target="_top" xlink:title=" ">
<polygon fill="#fff0f0" stroke="red" points="3160,-74 3055,-74 3055,-55 3160,-55 3160,-74"/>
<text text-anchor="middle" x="3107.5" y="-62" font-family="Helvetica,sans-Serif" font-size="10.00">compat/valgrind.h</text>
</a>
</g>
</g>
<!-- Node5&#45;&gt;Node42 -->
<g id="edge29_Node000005_Node000042" class="edge">
<title>Node5&#45;&gt;Node42</title>
<g id="a_edge29_Node000005_Node000042"><a xlink:title=" ">
<path fill="none" stroke="#63b8ff" d="M1728.54,-123.97C1907.71,-123.46 2524.68,-118.46 3044.44,-73.98"/>
<polygon fill="#63b8ff" stroke="#63b8ff" points="3045.11,-77.44 3054.77,-73.09 3044.51,-70.46 3045.11,-77.44"/>
</a>
</g>
</g>
<!-- Node45 -->
<g id="Node000045" class="node">
<title>Node45</title>
<g id="a_Node000045"><a xlink:title=" ">
<polygon fill="#e0e0e0" stroke="#999999" points="3261,-74 3178,-74 3178,-55 3261,-55 3261,-74"/>
<text text-anchor="middle" x="3219.5" y="-62" font-family="Helvetica,sans-Serif" font-size="10.00">initializer_list</text>
</a>
</g>
</g>
<!-- Node44&#45;&gt;Node45 -->
<g id="edge31_Node000044_Node000045" class="edge">
<title>Node44&#45;&gt;Node45</title>
<g id="a_edge31_Node000044_Node000045"><a xlink:title=" ">
<path fill="none" stroke="#63b8ff" d="M3301.33,-115.37C3285.81,-105.91 3260.67,-90.59 3242.35,-79.42"/>
<polygon fill="#63b8ff" stroke="#63b8ff" points="3244.08,-76.38 3233.72,-74.17 3240.44,-82.36 3244.08,-76.38"/>
</a>
</g>
</g>
<!-- Node46 -->
<g id="Node000046" class="node">
<title>Node46</title>
<g id="a_Node000046"><a xlink:title=" ">
<polygon fill="#e0e0e0" stroke="#999999" points="3417.5,-19 3369.5,-19 3369.5,0 3417.5,0 3417.5,-19"/>
<text text-anchor="middle" x="3393.5" y="-7" font-family="Helvetica,sans-Serif" font-size="10.00">iosfwd</text>
</a>
</g>
</g>
<!-- Node44&#45;&gt;Node46 -->
<g id="edge32_Node000044_Node000046" class="edge">
<title>Node44&#45;&gt;Node46</title>
<g id="a_edge32_Node000044_Node000046"><a xlink:title=" ">
<path fill="none" stroke="#63b8ff" d="M3311.43,-115.19C3305.66,-101.31 3297.03,-73.95 3308.5,-55 3319.61,-36.64 3341.07,-25.49 3359.64,-18.94"/>
<polygon fill="#63b8ff" stroke="#63b8ff" points="3360.85,-22.23 3369.3,-15.84 3358.71,-15.56 3360.85,-22.23"/>
</a>
</g>
</g>
<!-- Node47 -->
<g id="Node000047" class="node">
<title>Node47</title>
<g id="a_Node000047"><a xlink:title=" ">
<polygon fill="#e0e0e0" stroke="#999999" points="3365,-74 3318,-74 3318,-55 3365,-55 3365,-74"/>
<text text-anchor="middle" x="3341.5" y="-62" font-family="Helvetica,sans-Serif" font-size="10.00">vector</text>
</a>
</g>
</g>
<!-- Node44&#45;&gt;Node47 -->
<g id="edge33_Node000044_Node000047" class="edge">
<title>Node44&#45;&gt;Node47</title>
<g id="a_edge33_Node000044_Node000047"><a xlink:title=" ">
<path fill="none" stroke="#63b8ff" d="M3319.34,-115.37C3323.06,-106.99 3328.83,-94.01 3333.55,-83.39"/>
<polygon fill="#63b8ff" stroke="#63b8ff" points="3336.78,-84.73 3337.65,-74.17 3330.39,-81.88 3336.78,-84.73"/>
</a>
</g>
</g>
<!-- Node49&#45;&gt;Node44 -->
<g id="edge36_Node000049_Node000044" class="edge">
<title>Node49&#45;&gt;Node44</title>
<g id="a_edge36_Node000049_Node000044"><a xlink:title=" ">
<path fill="none" stroke="#63b8ff" d="M3486.42,-175.99C3451.61,-165.81 3393.18,-148.72 3354.49,-137.4"/>
<polygon fill="#63b8ff" stroke="#63b8ff" points="3355.2,-133.96 3344.62,-134.52 3353.23,-140.68 3355.2,-133.96"/>
</a>
</g>
</g>
<!-- Node50 -->
<g id="Node000050" class="node">
<title>Node50</title>
<g id="a_Node000050"><a xlink:href="SBuf_8h.html" target="_top" xlink:title=" ">
<polygon fill="#fff0f0" stroke="red" points="3607,-134.5 3536,-134.5 3536,-115.5 3607,-115.5 3607,-134.5"/>
<text text-anchor="middle" x="3571.5" y="-122.5" font-family="Helvetica,sans-Serif" font-size="10.00">sbuf/SBuf.h</text>
</a>
</g>
</g>
<!-- Node49&#45;&gt;Node50 -->
<g id="edge37_Node000049_Node000050" class="edge">
<title>Node49&#45;&gt;Node50</title>
<g id="a_edge37_Node000049_Node000050"><a xlink:title=" ">
<path fill="none" stroke="#63b8ff" d="M3523.76,-175.87C3532.28,-166.97 3545.76,-152.89 3556.23,-141.95"/>
<polygon fill="#63b8ff" stroke="#63b8ff" points="3558.82,-144.31 3563.2,-134.67 3553.76,-139.47 3558.82,-144.31"/>
</a>
</g>
</g>
<!-- Node50&#45;&gt;Node46 -->
<g id="edge44_Node000050_Node000046" class="edge">
<title>Node50&#45;&gt;Node46</title>
<g id="a_edge44_Node000050_Node000046"><a xlink:title=" ">
<path fill="none" stroke="#63b8ff" d="M3535.91,-122.19C3500.01,-118.47 3445.31,-107.27 3412.5,-74 3400.77,-62.1 3396.23,-43.28 3394.5,-29.21"/>
<polygon fill="#63b8ff" stroke="#63b8ff" points="3397.98,-28.83 3393.64,-19.17 3391.01,-29.43 3397.98,-28.83"/>
</a>
</g>
</g>
<!-- Node51 -->
<g id="Node000051" class="node">
<title>Node51</title>
<g id="a_Node000051"><a xlink:href="InstanceId_8h.html" target="_top" xlink:title=" ">
<polygon fill="white" stroke="#666666" points="3523.5,-74 3421.5,-74 3421.5,-55 3523.5,-55 3523.5,-74"/>
<text text-anchor="middle" x="3472.5" y="-62" font-family="Helvetica,sans-Serif" font-size="10.00">base/InstanceId.h</text>
</a>
</g>
</g>
<!-- Node50&#45;&gt;Node51 -->
<g id="edge38_Node000050_Node000051" class="edge">
<title>Node50&#45;&gt;Node51</title>
<g id="a_edge38_Node000050_Node000051"><a xlink:title=" ">
<path fill="none" stroke="#63b8ff" d="M3556.89,-115.37C3540.81,-105.86 3514.72,-90.45 3495.8,-79.27"/>
<polygon fill="#63b8ff" stroke="#63b8ff" points="3497.56,-76.24 3487.17,-74.17 3494,-82.27 3497.56,-76.24"/>
</a>
</g>
</g>
<!-- Node52 -->
<g id="Node000052" class="node">
<title>Node52</title>
<g id="a_Node000052"><a xlink:href="TextException_8h.html" target="_top" xlink:title=" ">
<polygon fill="#fff0f0" stroke="red" points="3661.5,-74 3541.5,-74 3541.5,-55 3661.5,-55 3661.5,-74"/>
<text text-anchor="middle" x="3601.5" y="-62" font-family="Helvetica,sans-Serif" font-size="10.00">base/TextException.h</text>
</a>
</g>
</g>
<!-- Node50&#45;&gt;Node52 -->
<g id="edge40_Node000050_Node000052" class="edge">
<title>Node50&#45;&gt;Node52</title>
<g id="a_edge40_Node000050_Node000052"><a xlink:title=" ">
<path fill="none" stroke="#63b8ff" d="M3575.93,-115.37C3580.27,-106.9 3587.02,-93.74 3592.49,-83.07"/>
<polygon fill="#63b8ff" stroke="#63b8ff" points="3595.61,-84.66 3597.06,-74.17 3589.38,-81.47 3595.61,-84.66"/>
</a>
</g>
</g>
<!-- Node56 -->
<g id="Node000056" class="node">
<title>Node56</title>
<g id="a_Node000056"><a xlink:href="debug_2Stream_8h.html" target="_top" xlink:title=" ">
<polygon fill="#fff0f0" stroke="red" points="3773.5,-74 3679.5,-74 3679.5,-55 3773.5,-55 3773.5,-74"/>
<text text-anchor="middle" x="3726.5" y="-62" font-family="Helvetica,sans-Serif" font-size="10.00">debug/Stream.h</text>
</a>
</g>
</g>
<!-- Node50&#45;&gt;Node56 -->
<g id="edge41_Node000050_Node000056" class="edge">
<title>Node50&#45;&gt;Node56</title>
<g id="a_edge41_Node000050_Node000056"><a xlink:title=" ">
<path fill="none" stroke="#63b8ff" d="M3594.04,-115.49C3620.44,-105.53 3664.38,-88.95 3694.35,-77.63"/>
<polygon fill="#63b8ff" stroke="#63b8ff" points="3695.81,-80.82 3703.93,-74.02 3693.34,-74.27 3695.81,-80.82"/>
</a>
</g>
</g>
<!-- Node61 -->
<g id="Node000061" class="node">
<title>Node61</title>
<g id="a_Node000061"><a xlink:href="globals_8h.html" target="_top" xlink:title=" ">
<polygon fill="#fff0f0" stroke="red" points="3853,-74 3792,-74 3792,-55 3853,-55 3853,-74"/>
<text text-anchor="middle" x="3822.5" y="-62" font-family="Helvetica,sans-Serif" font-size="10.00">globals.h</text>
</a>
</g>
</g>
<!-- Node50&#45;&gt;Node61 -->
<g id="edge42_Node000050_Node000061" class="edge">
<title>Node50&#45;&gt;Node61</title>
<g id="a_edge42_Node000050_Node000061"><a xlink:title=" ">
<path fill="none" stroke="#63b8ff" d="M3597.56,-115.46C3603.74,-113.56 3610.33,-111.62 3616.5,-110 3624.51,-107.89 3724.31,-86.49 3782,-74.15"/>
<polygon fill="#63b8ff" stroke="#63b8ff" points="3782.86,-77.55 3791.9,-72.03 3781.39,-70.7 3782.86,-77.55"/>
</a>
</g>
</g>
<!-- Node72 -->
<g id="Node000072" class="node">
<title>Node72</title>
<g id="a_Node000072"><a xlink:href="sbuf_2forward_8h.html" target="_top" xlink:title=" ">
<polygon fill="#fff0f0" stroke="red" points="3958,-74 3871,-74 3871,-55 3958,-55 3958,-74"/>
<text text-anchor="middle" x="3914.5" y="-62" font-family="Helvetica,sans-Serif" font-size="10.00">sbuf/forward.h</text>
</a>
</g>
</g>
<!-- Node50&#45;&gt;Node72 -->
<g id="edge43_Node000050_Node000072" class="edge">
<title>Node50&#45;&gt;Node72</title>
<g id="a_edge43_Node000050_Node000072"><a xlink:title=" ">
<path fill="none" stroke="#63b8ff" d="M3596.54,-115.45C3602.99,-113.46 3609.96,-111.49 3616.5,-110 3720.67,-86.29 3750.96,-90.44 3860.68,-74.09"/>
<polygon fill="#63b8ff" stroke="#63b8ff" points="3861.47,-77.51 3870.83,-72.55 3860.42,-70.59 3861.47,-77.51"/>
</a>
</g>
</g>
<!-- Node51&#45;&gt;Node46 -->
<g id="edge39_Node000051_Node000046" class="edge">
<title>Node51&#45;&gt;Node46</title>
<g id="a_edge39_Node000051_Node000046"><a xlink:title=" ">
<path fill="none" stroke="#63b8ff" d="M3459.81,-54.98C3447.67,-46.84 3429.14,-34.41 3414.75,-24.76"/>
<polygon fill="#63b8ff" stroke="#63b8ff" points="3416.68,-21.84 3406.42,-19.17 3412.78,-27.65 3416.68,-21.84"/>
</a>
</g>
</g>
<!-- Node85 -->
<g id="Node000085" class="node">
<title>Node85</title>
<g id="a_Node000085"><a xlink:title=" ">
<polygon fill="#e0e0e0" stroke="#999999" points="3765.5,-140 3625.5,-140 3625.5,-110 3765.5,-110 3765.5,-140"/>
<text text-anchor="start" x="3633.5" y="-128" font-family="Helvetica,sans-Serif" font-size="10.00">cppunit/BriefTestProgress</text>
<text text-anchor="middle" x="3695.5" y="-117" font-family="Helvetica,sans-Serif" font-size="10.00">Listener.h</text>
</a>
</g>
</g>
<!-- Node84&#45;&gt;Node85 -->
<g id="edge46_Node000084_Node000085" class="edge">
<title>Node84&#45;&gt;Node85</title>
<g id="a_edge46_Node000084_Node000085"><a xlink:title=" ">
<path fill="none" stroke="#63b8ff" d="M4050.43,-178.9C3990.58,-171.18 3880.02,-156.5 3775.76,-140.16"/>
<polygon fill="#63b8ff" stroke="#63b8ff" points="3776.11,-136.68 3765.69,-138.58 3775.02,-143.59 3776.11,-136.68"/>
</a>
</g>
</g>
<!-- Node86 -->
<g id="Node000086" class="node">
<title>Node86</title>
<g id="a_Node000086"><a xlink:title=" ">
<polygon fill="#e0e0e0" stroke="#999999" points="3921,-140 3784,-140 3784,-110 3921,-110 3921,-140"/>
<text text-anchor="start" x="3792" y="-128" font-family="Helvetica,sans-Serif" font-size="10.00">cppunit/TextTestProgress</text>
<text text-anchor="middle" x="3852.5" y="-117" font-family="Helvetica,sans-Serif" font-size="10.00">Listener.h</text>
</a>
</g>
</g>
<!-- Node84&#45;&gt;Node86 -->
<g id="edge47_Node000084_Node000086" class="edge">
<title>Node84&#45;&gt;Node86</title>
<g id="a_edge47_Node000084_Node000086"><a xlink:title=" ">
<path fill="none" stroke="#63b8ff" d="M4059.31,-175.99C4023.04,-167.23 3965.57,-153.33 3920.41,-142.42"/>
<polygon fill="#63b8ff" stroke="#63b8ff" points="3921.22,-139.01 3910.68,-140.06 3919.58,-145.82 3921.22,-139.01"/>
</a>
</g>
</g>
<!-- Node87 -->
<g id="Node000087" class="node">
<title>Node87</title>
<g id="a_Node000087"><a xlink:title=" ">
<polygon fill="#e0e0e0" stroke="#999999" points="4094,-134.5 3939,-134.5 3939,-115.5 4094,-115.5 4094,-134.5"/>
<text text-anchor="middle" x="4016.5" y="-122.5" font-family="Helvetica,sans-Serif" font-size="10.00">cppunit/CompilerOutputter.h</text>
</a>
</g>
</g>
<!-- Node84&#45;&gt;Node87 -->
<g id="edge48_Node000084_Node000087" class="edge">
<title>Node84&#45;&gt;Node87</title>
<g id="a_edge48_Node000084_Node000087"><a xlink:title=" ">
<path fill="none" stroke="#63b8ff" d="M4082.99,-175.87C4070.66,-166.62 4050.88,-151.78 4036.09,-140.69"/>
<polygon fill="#63b8ff" stroke="#63b8ff" points="4038.16,-137.87 4028.06,-134.67 4033.96,-143.47 4038.16,-137.87"/>
</a>
</g>
</g>
<!-- Node88 -->
<g id="Node000088" class="node">
<title>Node88</title>
<g id="a_Node000088"><a xlink:title=" ">
<polygon fill="#e0e0e0" stroke="#999999" points="4234.5,-140 4112.5,-140 4112.5,-110 4234.5,-110 4234.5,-140"/>
<text text-anchor="start" x="4120.5" y="-128" font-family="Helvetica,sans-Serif" font-size="10.00">cppunit/extensions</text>
<text text-anchor="middle" x="4173.5" y="-117" font-family="Helvetica,sans-Serif" font-size="10.00">/TestFactoryRegistry.h</text>
</a>
</g>
</g>
<!-- Node84&#45;&gt;Node88 -->
<g id="edge49_Node000084_Node000088" class="edge">
<title>Node84&#45;&gt;Node88</title>
<g id="a_edge49_Node000084_Node000088"><a xlink:title=" ">
<path fill="none" stroke="#63b8ff" d="M4106.16,-175.87C4116.68,-168.08 4132.56,-156.32 4146.26,-146.17"/>
<polygon fill="#63b8ff" stroke="#63b8ff" points="4148.49,-148.88 4154.44,-140.11 4144.32,-143.25 4148.49,-148.88"/>
</a>
</g>
</g>
<!-- Node89 -->
<g id="Node000089" class="node">
<title>Node89</title>
<g id="a_Node000089"><a xlink:title=" ">
<polygon fill="#e0e0e0" stroke="#999999" points="4368,-134.5 4253,-134.5 4253,-115.5 4368,-115.5 4368,-134.5"/>
<text text-anchor="middle" x="4310.5" y="-122.5" font-family="Helvetica,sans-Serif" font-size="10.00">cppunit/TestResult.h</text>
</a>
</g>
</g>
<!-- Node84&#45;&gt;Node89 -->
<g id="edge50_Node000084_Node000089" class="edge">
<title>Node84&#45;&gt;Node89</title>
<g id="a_edge50_Node000084_Node000089"><a xlink:title=" ">
<path fill="none" stroke="#63b8ff" d="M4125.91,-175.99C4163.74,-165.75 4227.41,-148.5 4269.19,-137.19"/>
<polygon fill="#63b8ff" stroke="#63b8ff" points="4270.32,-140.51 4279.05,-134.52 4268.49,-133.75 4270.32,-140.51"/>
</a>
</g>
</g>
<!-- Node90 -->
<g id="Node000090" class="node">
<title>Node90</title>
<g id="a_Node000090"><a xlink:title=" ">
<polygon fill="#e0e0e0" stroke="#999999" points="4544.5,-134.5 4386.5,-134.5 4386.5,-115.5 4544.5,-115.5 4544.5,-134.5"/>
<text text-anchor="middle" x="4465.5" y="-122.5" font-family="Helvetica,sans-Serif" font-size="10.00">cppunit/TestResultCollector.h</text>
</a>
</g>
</g>
<!-- Node84&#45;&gt;Node90 -->
<g id="edge51_Node000084_Node000090" class="edge">
<title>Node84&#45;&gt;Node90</title>
<g id="a_edge51_Node000084_Node000090"><a xlink:title=" ">
<path fill="none" stroke="#63b8ff" d="M4138.62,-177.59C4194.3,-168.86 4293.01,-153.36 4377.5,-140 4385.43,-138.75 4393.76,-137.42 4402.01,-136.12"/>
<polygon fill="#63b8ff" stroke="#63b8ff" points="4402.66,-139.56 4411.99,-134.53 4401.56,-132.64 4402.66,-139.56"/>
</a>
</g>
</g>
<!-- Node91 -->
<g id="Node000091" class="node">
<title>Node91</title>
<g id="a_Node000091"><a xlink:title=" ">
<polygon fill="#e0e0e0" stroke="#999999" points="4680.5,-134.5 4562.5,-134.5 4562.5,-115.5 4680.5,-115.5 4680.5,-134.5"/>
<text text-anchor="middle" x="4621.5" y="-122.5" font-family="Helvetica,sans-Serif" font-size="10.00">cppunit/TestRunner.h</text>
</a>
</g>
</g>
<!-- Node84&#45;&gt;Node91 -->
<g id="edge52_Node000084_Node000091" class="edge">
<title>Node84&#45;&gt;Node91</title>
<g id="a_edge52_Node000084_Node000091"><a xlink:title=" ">
<path fill="none" stroke="#63b8ff" d="M4138.68,-181.79C4220.74,-176.4 4402.1,-162.86 4553.5,-140 4559.91,-139.03 4566.64,-137.85 4573.25,-136.59"/>
<polygon fill="#63b8ff" stroke="#63b8ff" points="4574.37,-139.94 4583.51,-134.57 4573.02,-133.07 4574.37,-139.94"/>
</a>
</g>
</g>
</g>
</svg>
