<?xml version="1.0" encoding="UTF-8" standalone="no"?>
<!DOCTYPE svg PUBLIC "-//W3C//DTD SVG 1.1//EN"
 "http://www.w3.org/Graphics/SVG/1.1/DTD/svg11.dtd">
<!-- Generated by graphviz version 2.43.0 (0)
 -->
<!-- Title: squid/src/tests/testString.cc Pages: 1 -->
<svg width="4726pt" height="258pt"
 viewBox="0.00 0.00 4725.50 258.00" xmlns="http://www.w3.org/2000/svg" xmlns:xlink="http://www.w3.org/1999/xlink">
<g id="graph0" class="graph" transform="scale(1 1) rotate(0) translate(4 254)">
<title>squid/src/tests/testString.cc</title>
<!-- Node1 -->
<g id="Node000001" class="node">
<title>Node1</title>
<g id="a_Node000001"><a xlink:title=" ">
<polygon fill="#999999" stroke="#666666" points="3441,-250 3290,-250 3290,-231 3441,-231 3441,-250"/>
<text text-anchor="middle" x="3365.5" y="-238" font-family="Helvetica,sans-Serif" font-size="10.00">squid/src/tests/testString.cc</text>
</a>
</g>
</g>
<!-- Node2 -->
<g id="Node000002" class="node">
<title>Node2</title>
<g id="a_Node000002"><a xlink:href="squid_8h.html" target="_top" xlink:title=" ">
<polygon fill="white" stroke="#666666" points="1653.5,-195 1601.5,-195 1601.5,-176 1653.5,-176 1653.5,-195"/>
<text text-anchor="middle" x="1627.5" y="-183" font-family="Helvetica,sans-Serif" font-size="10.00">squid.h</text>
</a>
</g>
</g>
<!-- Node1&#45;&gt;Node2 -->
<g id="edge1_Node000001_Node000002" class="edge">
<title>Node1&#45;&gt;Node2</title>
<g id="a_edge1_Node000001_Node000002"><a xlink:title=" ">
<path fill="none" stroke="#63b8ff" d="M3289.98,-237.2C2988.74,-228.01 1878.89,-194.17 1663.75,-187.61"/>
<polygon fill="#63b8ff" stroke="#63b8ff" points="1663.73,-184.1 1653.63,-187.3 1663.52,-191.1 1663.73,-184.1"/>
</a>
</g>
</g>
<!-- Node44 -->
<g id="Node000044" class="node">
<title>Node44</title>
<g id="a_Node000044"><a xlink:href="cppunit_8h.html" target="_top" xlink:title=" ">
<polygon fill="white" stroke="#666666" points="3301,-195 3200,-195 3200,-176 3301,-176 3301,-195"/>
<text text-anchor="middle" x="3250.5" y="-183" font-family="Helvetica,sans-Serif" font-size="10.00">compat/cppunit.h</text>
</a>
</g>
</g>
<!-- Node1&#45;&gt;Node44 -->
<g id="edge30_Node000001_Node000044" class="edge">
<title>Node1&#45;&gt;Node44</title>
<g id="a_edge30_Node000001_Node000044"><a xlink:title=" ">
<path fill="none" stroke="#63b8ff" d="M3347.02,-230.98C3328.52,-222.46 3299.82,-209.23 3278.52,-199.41"/>
<polygon fill="#63b8ff" stroke="#63b8ff" points="3279.86,-196.18 3269.31,-195.17 3276.93,-202.53 3279.86,-196.18"/>
</a>
</g>
</g>
<!-- Node45 -->
<g id="Node000045" class="node">
<title>Node45</title>
<g id="a_Node000045"><a xlink:title=" ">
<polygon fill="#e0e0e0" stroke="#999999" points="3411.5,-195 3319.5,-195 3319.5,-176 3411.5,-176 3411.5,-195"/>
<text text-anchor="middle" x="3365.5" y="-183" font-family="Helvetica,sans-Serif" font-size="10.00">mem/forward.h</text>
</a>
</g>
</g>
<!-- Node1&#45;&gt;Node45 -->
<g id="edge31_Node000001_Node000045" class="edge">
<title>Node1&#45;&gt;Node45</title>
<g id="a_edge31_Node000001_Node000045"><a xlink:title=" ">
<path fill="none" stroke="#63b8ff" d="M3365.5,-230.75C3365.5,-223.8 3365.5,-213.85 3365.5,-205.13"/>
<polygon fill="#63b8ff" stroke="#63b8ff" points="3369,-205.09 3365.5,-195.09 3362,-205.09 3369,-205.09"/>
</a>
</g>
</g>
<!-- Node46 -->
<g id="Node000046" class="node">
<title>Node46</title>
<g id="a_Node000046"><a xlink:href="SquidString_8h.html" target="_top" xlink:title=" ">
<polygon fill="white" stroke="#666666" points="3511,-195 3430,-195 3430,-176 3511,-176 3511,-195"/>
<text text-anchor="middle" x="3470.5" y="-183" font-family="Helvetica,sans-Serif" font-size="10.00">SquidString.h</text>
</a>
</g>
</g>
<!-- Node1&#45;&gt;Node46 -->
<g id="edge32_Node000001_Node000046" class="edge">
<title>Node1&#45;&gt;Node46</title>
<g id="a_edge32_Node000001_Node000046"><a xlink:title=" ">
<path fill="none" stroke="#63b8ff" d="M3382.37,-230.98C3399.11,-222.54 3425,-209.47 3444.39,-199.68"/>
<polygon fill="#63b8ff" stroke="#63b8ff" points="3445.97,-202.8 3453.32,-195.17 3442.82,-196.55 3445.97,-202.8"/>
</a>
</g>
</g>
<!-- Node61 -->
<g id="Node000061" class="node">
<title>Node61</title>
<g id="a_Node000061"><a xlink:href="unitTestMain_8h.html" target="_top" xlink:title=" ">
<polygon fill="white" stroke="#666666" points="4175.5,-195 4087.5,-195 4087.5,-176 4175.5,-176 4175.5,-195"/>
<text text-anchor="middle" x="4131.5" y="-183" font-family="Helvetica,sans-Serif" font-size="10.00">unitTestMain.h</text>
</a>
</g>
</g>
<!-- Node1&#45;&gt;Node61 -->
<g id="edge44_Node000001_Node000061" class="edge">
<title>Node1&#45;&gt;Node61</title>
<g id="a_edge44_Node000001_Node000061"><a xlink:title=" ">
<path fill="none" stroke="#63b8ff" d="M3441.04,-234.27C3595.18,-223.61 3942.67,-199.57 4077.03,-190.27"/>
<polygon fill="#63b8ff" stroke="#63b8ff" points="4077.35,-193.75 4087.09,-189.57 4076.87,-186.77 4077.35,-193.75"/>
</a>
</g>
</g>
<!-- Node3 -->
<g id="Node000003" class="node">
<title>Node3</title>
<g id="a_Node000003"><a xlink:href="autoconf_8h.html" target="_top" xlink:title=" ">
<polygon fill="white" stroke="#666666" points="1528.5,-134.5 1460.5,-134.5 1460.5,-115.5 1528.5,-115.5 1528.5,-134.5"/>
<text text-anchor="middle" x="1494.5" y="-122.5" font-family="Helvetica,sans-Serif" font-size="10.00">autoconf.h</text>
</a>
</g>
</g>
<!-- Node2&#45;&gt;Node3 -->
<g id="edge2_Node000002_Node000003" class="edge">
<title>Node2&#45;&gt;Node3</title>
<g id="a_edge2_Node000002_Node000003"><a xlink:title=" ">
<path fill="none" stroke="#63b8ff" d="M1608.16,-175.99C1585.8,-166.16 1548.79,-149.88 1523.1,-138.58"/>
<polygon fill="#63b8ff" stroke="#63b8ff" points="1524.43,-135.34 1513.86,-134.52 1521.61,-141.75 1524.43,-135.34"/>
</a>
</g>
</g>
<!-- Node4 -->
<g id="Node000004" class="node">
<title>Node4</title>
<g id="a_Node000004"><a xlink:href="version_8h.html" target="_top" xlink:title=" ">
<polygon fill="white" stroke="#666666" points="1608.5,-134.5 1546.5,-134.5 1546.5,-115.5 1608.5,-115.5 1608.5,-134.5"/>
<text text-anchor="middle" x="1577.5" y="-122.5" font-family="Helvetica,sans-Serif" font-size="10.00">version.h</text>
</a>
</g>
</g>
<!-- Node2&#45;&gt;Node4 -->
<g id="edge3_Node000002_Node000004" class="edge">
<title>Node2&#45;&gt;Node4</title>
<g id="a_edge3_Node000002_Node000004"><a xlink:title=" ">
<path fill="none" stroke="#63b8ff" d="M1620.12,-175.87C1612.59,-167.05 1600.71,-153.16 1591.41,-142.27"/>
<polygon fill="#63b8ff" stroke="#63b8ff" points="1594.07,-140 1584.91,-134.67 1588.74,-144.54 1594.07,-140"/>
</a>
</g>
</g>
<!-- Node5 -->
<g id="Node000005" class="node">
<title>Node5</title>
<g id="a_Node000005"><a xlink:href="compat_8h.html" target="_top" xlink:title=" ">
<polygon fill="white" stroke="#666666" points="1728.5,-134.5 1626.5,-134.5 1626.5,-115.5 1728.5,-115.5 1728.5,-134.5"/>
<text text-anchor="middle" x="1677.5" y="-122.5" font-family="Helvetica,sans-Serif" font-size="10.00">compat/compat.h</text>
</a>
</g>
</g>
<!-- Node2&#45;&gt;Node5 -->
<g id="edge4_Node000002_Node000005" class="edge">
<title>Node2&#45;&gt;Node5</title>
<g id="a_edge4_Node000002_Node000005"><a xlink:title=" ">
<path fill="none" stroke="#63b8ff" d="M1634.88,-175.87C1642.41,-167.05 1654.29,-153.16 1663.59,-142.27"/>
<polygon fill="#63b8ff" stroke="#63b8ff" points="1666.26,-144.54 1670.09,-134.67 1660.93,-140 1666.26,-144.54"/>
</a>
</g>
</g>
<!-- Node6 -->
<g id="Node000006" class="node">
<title>Node6</title>
<g id="a_Node000006"><a xlink:href="osdetect_8h.html" target="_top" xlink:title=" ">
<polygon fill="white" stroke="#666666" points="107,-74 0,-74 0,-55 107,-55 107,-74"/>
<text text-anchor="middle" x="53.5" y="-62" font-family="Helvetica,sans-Serif" font-size="10.00">compat/osdetect.h</text>
</a>
</g>
</g>
<!-- Node5&#45;&gt;Node6 -->
<g id="edge5_Node000005_Node000006" class="edge">
<title>Node5&#45;&gt;Node6</title>
<g id="a_edge5_Node000005_Node000006"><a xlink:title=" ">
<path fill="none" stroke="#63b8ff" d="M1646.27,-115.43C1637.07,-113.26 1626.94,-111.2 1617.5,-110 958.93,-26.17 783.51,-125.66 117.41,-73.95"/>
<polygon fill="#63b8ff" stroke="#63b8ff" points="117.32,-70.43 107.07,-73.14 116.77,-77.41 117.32,-70.43"/>
</a>
</g>
</g>
<!-- Node7 -->
<g id="Node000007" class="node">
<title>Node7</title>
<g id="a_Node000007"><a xlink:href="fdsetsize_8h.html" target="_top" xlink:title=" ">
<polygon fill="white" stroke="#666666" points="235.5,-74 125.5,-74 125.5,-55 235.5,-55 235.5,-74"/>
<text text-anchor="middle" x="180.5" y="-62" font-family="Helvetica,sans-Serif" font-size="10.00">compat/fdsetsize.h</text>
</a>
</g>
</g>
<!-- Node5&#45;&gt;Node7 -->
<g id="edge6_Node000005_Node000007" class="edge">
<title>Node5&#45;&gt;Node7</title>
<g id="a_edge6_Node000005_Node000007"><a xlink:title=" ">
<path fill="none" stroke="#63b8ff" d="M1646.27,-115.45C1637.07,-113.27 1626.94,-111.21 1617.5,-110 1015.44,-32.68 854.82,-121.25 245.98,-74.01"/>
<polygon fill="#63b8ff" stroke="#63b8ff" points="245.86,-70.49 235.62,-73.2 245.31,-77.47 245.86,-70.49"/>
</a>
</g>
</g>
<!-- Node8 -->
<g id="Node000008" class="node">
<title>Node8</title>
<g id="a_Node000008"><a xlink:href="types_8h.html" target="_top" xlink:title=" ">
<polygon fill="#fff0f0" stroke="red" points="345.5,-74 253.5,-74 253.5,-55 345.5,-55 345.5,-74"/>
<text text-anchor="middle" x="299.5" y="-62" font-family="Helvetica,sans-Serif" font-size="10.00">compat/types.h</text>
</a>
</g>
</g>
<!-- Node5&#45;&gt;Node8 -->
<g id="edge7_Node000005_Node000008" class="edge">
<title>Node5&#45;&gt;Node8</title>
<g id="a_edge7_Node000005_Node000008"><a xlink:title=" ">
<path fill="none" stroke="#63b8ff" d="M1646.27,-115.46C1637.07,-113.29 1626.94,-111.22 1617.5,-110 1063.99,-38.28 915.55,-123.93 356.02,-74"/>
<polygon fill="#63b8ff" stroke="#63b8ff" points="355.94,-70.48 345.66,-73.06 355.31,-77.45 355.94,-70.48"/>
</a>
</g>
</g>
<!-- Node10 -->
<g id="Node000010" class="node">
<title>Node10</title>
<g id="a_Node000010"><a xlink:href="aix_8h.html" target="_top" xlink:title=" ">
<polygon fill="white" stroke="#666666" points="459,-74 364,-74 364,-55 459,-55 459,-74"/>
<text text-anchor="middle" x="411.5" y="-62" font-family="Helvetica,sans-Serif" font-size="10.00">compat/os/aix.h</text>
</a>
</g>
</g>
<!-- Node5&#45;&gt;Node10 -->
<g id="edge8_Node000005_Node000010" class="edge">
<title>Node5&#45;&gt;Node10</title>
<g id="a_edge8_Node000005_Node000010"><a xlink:title=" ">
<path fill="none" stroke="#63b8ff" d="M1646.26,-115.48C1637.07,-113.31 1626.94,-111.24 1617.5,-110 1114.25,-44.07 979.14,-118.76 469.24,-73.92"/>
<polygon fill="#63b8ff" stroke="#63b8ff" points="469.31,-70.41 459.04,-73.01 468.69,-77.39 469.31,-70.41"/>
</a>
</g>
</g>
<!-- Node11 -->
<g id="Node000011" class="node">
<title>Node11</title>
<g id="a_Node000011"><a xlink:href="android_8h.html" target="_top" xlink:title=" ">
<polygon fill="white" stroke="#666666" points="593.5,-74 477.5,-74 477.5,-55 593.5,-55 593.5,-74"/>
<text text-anchor="middle" x="535.5" y="-62" font-family="Helvetica,sans-Serif" font-size="10.00">compat/os/android.h</text>
</a>
</g>
</g>
<!-- Node5&#45;&gt;Node11 -->
<g id="edge9_Node000005_Node000011" class="edge">
<title>Node5&#45;&gt;Node11</title>
<g id="a_edge9_Node000005_Node000011"><a xlink:title=" ">
<path fill="none" stroke="#63b8ff" d="M1645.95,-115.43C1636.84,-113.28 1626.83,-111.24 1617.5,-110 1173.33,-50.87 1054.16,-109.57 603.6,-74"/>
<polygon fill="#63b8ff" stroke="#63b8ff" points="603.82,-70.5 593.57,-73.19 603.26,-77.48 603.82,-70.5"/>
</a>
</g>
</g>
<!-- Node12 -->
<g id="Node000012" class="node">
<title>Node12</title>
<g id="a_Node000012"><a xlink:href="dragonfly_8h.html" target="_top" xlink:title=" ">
<polygon fill="white" stroke="#666666" points="735.5,-74 611.5,-74 611.5,-55 735.5,-55 735.5,-74"/>
<text text-anchor="middle" x="673.5" y="-62" font-family="Helvetica,sans-Serif" font-size="10.00">compat/os/dragonfly.h</text>
</a>
</g>
</g>
<!-- Node5&#45;&gt;Node12 -->
<g id="edge10_Node000005_Node000012" class="edge">
<title>Node5&#45;&gt;Node12</title>
<g id="a_edge10_Node000005_Node000012"><a xlink:title=" ">
<path fill="none" stroke="#63b8ff" d="M1645.95,-115.47C1636.83,-113.32 1626.83,-111.27 1617.5,-110 1236,-58.1 1133.33,-104.3 745.89,-74.04"/>
<polygon fill="#63b8ff" stroke="#63b8ff" points="746.06,-70.54 735.81,-73.24 745.5,-77.52 746.06,-70.54"/>
</a>
</g>
</g>
<!-- Node13 -->
<g id="Node000013" class="node">
<title>Node13</title>
<g id="a_Node000013"><a xlink:href="freebsd_8h.html" target="_top" xlink:title=" ">
<polygon fill="white" stroke="#666666" points="869.5,-74 753.5,-74 753.5,-55 869.5,-55 869.5,-74"/>
<text text-anchor="middle" x="811.5" y="-62" font-family="Helvetica,sans-Serif" font-size="10.00">compat/os/freebsd.h</text>
</a>
</g>
</g>
<!-- Node5&#45;&gt;Node13 -->
<g id="edge11_Node000005_Node000013" class="edge">
<title>Node5&#45;&gt;Node13</title>
<g id="a_edge11_Node000005_Node000013"><a xlink:title=" ">
<path fill="none" stroke="#63b8ff" d="M1645.63,-115.44C1636.6,-113.32 1626.72,-111.29 1617.5,-110 1295.17,-64.92 1207.86,-101.94 879.85,-74.04"/>
<polygon fill="#63b8ff" stroke="#63b8ff" points="879.84,-70.52 869.58,-73.15 879.24,-77.5 879.84,-70.52"/>
</a>
</g>
</g>
<!-- Node14 -->
<g id="Node000014" class="node">
<title>Node14</title>
<g id="a_Node000014"><a xlink:href="hpux_8h.html" target="_top" xlink:title=" ">
<polygon fill="white" stroke="#666666" points="991.5,-74 887.5,-74 887.5,-55 991.5,-55 991.5,-74"/>
<text text-anchor="middle" x="939.5" y="-62" font-family="Helvetica,sans-Serif" font-size="10.00">compat/os/hpux.h</text>
</a>
</g>
</g>
<!-- Node5&#45;&gt;Node14 -->
<g id="edge12_Node000005_Node000014" class="edge">
<title>Node5&#45;&gt;Node14</title>
<g id="a_edge12_Node000005_Node000014"><a xlink:title=" ">
<path fill="none" stroke="#63b8ff" d="M1645.62,-115.49C1636.59,-113.38 1626.71,-111.33 1617.5,-110 1348.96,-71.13 1275.64,-100.25 1001.95,-74.05"/>
<polygon fill="#63b8ff" stroke="#63b8ff" points="1002,-70.54 991.71,-73.06 1001.32,-77.51 1002,-70.54"/>
</a>
</g>
</g>
<!-- Node15 -->
<g id="Node000015" class="node">
<title>Node15</title>
<g id="a_Node000015"><a xlink:href="linux_8h.html" target="_top" xlink:title=" ">
<polygon fill="white" stroke="#666666" points="1113.5,-74 1009.5,-74 1009.5,-55 1113.5,-55 1113.5,-74"/>
<text text-anchor="middle" x="1061.5" y="-62" font-family="Helvetica,sans-Serif" font-size="10.00">compat/os/linux.h</text>
</a>
</g>
</g>
<!-- Node5&#45;&gt;Node15 -->
<g id="edge13_Node000005_Node000015" class="edge">
<title>Node5&#45;&gt;Node15</title>
<g id="a_edge13_Node000005_Node000015"><a xlink:title=" ">
<path fill="none" stroke="#63b8ff" d="M1644.98,-115.44C1636.12,-113.37 1626.49,-111.37 1617.5,-110 1402.73,-77.34 1343.63,-96.63 1123.96,-74.08"/>
<polygon fill="#63b8ff" stroke="#63b8ff" points="1124.03,-70.56 1113.72,-73.01 1123.3,-77.53 1124.03,-70.56"/>
</a>
</g>
</g>
<!-- Node16 -->
<g id="Node000016" class="node">
<title>Node16</title>
<g id="a_Node000016"><a xlink:href="macosx_8h.html" target="_top" xlink:title=" ">
<polygon fill="white" stroke="#666666" points="1249.5,-74 1131.5,-74 1131.5,-55 1249.5,-55 1249.5,-74"/>
<text text-anchor="middle" x="1190.5" y="-62" font-family="Helvetica,sans-Serif" font-size="10.00">compat/os/macosx.h</text>
</a>
</g>
</g>
<!-- Node5&#45;&gt;Node16 -->
<g id="edge14_Node000005_Node000016" class="edge">
<title>Node5&#45;&gt;Node16</title>
<g id="a_edge14_Node000005_Node000016"><a xlink:title=" ">
<path fill="none" stroke="#63b8ff" d="M1644.33,-115.45C1635.64,-113.44 1626.26,-111.45 1617.5,-110 1462.56,-84.27 1419.6,-91.62 1260.01,-74.13"/>
<polygon fill="#63b8ff" stroke="#63b8ff" points="1260.15,-70.63 1249.83,-73 1259.38,-77.59 1260.15,-70.63"/>
</a>
</g>
</g>
<!-- Node17 -->
<g id="Node000017" class="node">
<title>Node17</title>
<g id="a_Node000017"><a xlink:href="mingw_8h.html" target="_top" xlink:title=" ">
<polygon fill="white" stroke="#666666" points="1379.5,-74 1267.5,-74 1267.5,-55 1379.5,-55 1379.5,-74"/>
<text text-anchor="middle" x="1323.5" y="-62" font-family="Helvetica,sans-Serif" font-size="10.00">compat/os/mingw.h</text>
</a>
</g>
</g>
<!-- Node5&#45;&gt;Node17 -->
<g id="edge15_Node000005_Node000017" class="edge">
<title>Node5&#45;&gt;Node17</title>
<g id="a_edge15_Node000005_Node000017"><a xlink:title=" ">
<path fill="none" stroke="#63b8ff" d="M1643.02,-115.46C1634.69,-113.54 1625.8,-111.59 1617.5,-110 1575.07,-101.85 1462.45,-85.34 1389.55,-74.88"/>
<polygon fill="#63b8ff" stroke="#63b8ff" points="1389.94,-71.4 1379.54,-73.44 1388.94,-78.33 1389.94,-71.4"/>
</a>
</g>
</g>
<!-- Node18 -->
<g id="Node000018" class="node">
<title>Node18</title>
<g id="a_Node000018"><a xlink:href="mswindows_8h.html" target="_top" xlink:title=" ">
<polygon fill="white" stroke="#666666" points="1535,-74 1398,-74 1398,-55 1535,-55 1535,-74"/>
<text text-anchor="middle" x="1466.5" y="-62" font-family="Helvetica,sans-Serif" font-size="10.00">compat/os/mswindows.h</text>
</a>
</g>
</g>
<!-- Node5&#45;&gt;Node18 -->
<g id="edge16_Node000005_Node000018" class="edge">
<title>Node5&#45;&gt;Node18</title>
<g id="a_edge16_Node000005_Node000018"><a xlink:title=" ">
<path fill="none" stroke="#63b8ff" d="M1646.82,-115.49C1609.94,-105.27 1547.93,-88.08 1507.11,-76.76"/>
<polygon fill="#63b8ff" stroke="#63b8ff" points="1507.79,-73.32 1497.22,-74.02 1505.92,-80.06 1507.79,-73.32"/>
</a>
</g>
</g>
<!-- Node19 -->
<g id="Node000019" class="node">
<title>Node19</title>
<g id="a_Node000019"><a xlink:href="netbsd_8h.html" target="_top" xlink:title=" ">
<polygon fill="white" stroke="#666666" points="1666,-74 1553,-74 1553,-55 1666,-55 1666,-74"/>
<text text-anchor="middle" x="1609.5" y="-62" font-family="Helvetica,sans-Serif" font-size="10.00">compat/os/netbsd.h</text>
</a>
</g>
</g>
<!-- Node5&#45;&gt;Node19 -->
<g id="edge17_Node000005_Node000019" class="edge">
<title>Node5&#45;&gt;Node19</title>
<g id="a_edge17_Node000005_Node000019"><a xlink:title=" ">
<path fill="none" stroke="#63b8ff" d="M1667.47,-115.37C1656.92,-106.3 1640.11,-91.84 1627.31,-80.82"/>
<polygon fill="#63b8ff" stroke="#63b8ff" points="1629.44,-78.04 1619.57,-74.17 1624.87,-83.34 1629.44,-78.04"/>
</a>
</g>
</g>
<!-- Node20 -->
<g id="Node000020" class="node">
<title>Node20</title>
<g id="a_Node000020"><a xlink:href="openbsd_8h.html" target="_top" xlink:title=" ">
<polygon fill="white" stroke="#666666" points="1805,-74 1684,-74 1684,-55 1805,-55 1805,-74"/>
<text text-anchor="middle" x="1744.5" y="-62" font-family="Helvetica,sans-Serif" font-size="10.00">compat/os/openbsd.h</text>
</a>
</g>
</g>
<!-- Node5&#45;&gt;Node20 -->
<g id="edge18_Node000005_Node000020" class="edge">
<title>Node5&#45;&gt;Node20</title>
<g id="a_edge18_Node000005_Node000020"><a xlink:title=" ">
<path fill="none" stroke="#63b8ff" d="M1687.39,-115.37C1697.78,-106.3 1714.34,-91.84 1726.95,-80.82"/>
<polygon fill="#63b8ff" stroke="#63b8ff" points="1729.34,-83.38 1734.57,-74.17 1724.74,-78.11 1729.34,-83.38"/>
</a>
</g>
</g>
<!-- Node21 -->
<g id="Node000021" class="node">
<title>Node21</title>
<g id="a_Node000021"><a xlink:href="os2_8h.html" target="_top" xlink:title=" ">
<polygon fill="white" stroke="#666666" points="1920,-74 1823,-74 1823,-55 1920,-55 1920,-74"/>
<text text-anchor="middle" x="1871.5" y="-62" font-family="Helvetica,sans-Serif" font-size="10.00">compat/os/os2.h</text>
</a>
</g>
</g>
<!-- Node5&#45;&gt;Node21 -->
<g id="edge19_Node000005_Node000021" class="edge">
<title>Node5&#45;&gt;Node21</title>
<g id="a_edge19_Node000005_Node000021"><a xlink:title=" ">
<path fill="none" stroke="#63b8ff" d="M1705.71,-115.49C1739.47,-105.31 1796.15,-88.22 1833.68,-76.9"/>
<polygon fill="#63b8ff" stroke="#63b8ff" points="1834.69,-80.25 1843.26,-74.02 1832.67,-73.55 1834.69,-80.25"/>
</a>
</g>
</g>
<!-- Node22 -->
<g id="Node000022" class="node">
<title>Node22</title>
<g id="a_Node000022"><a xlink:href="qnx_8h.html" target="_top" xlink:title=" ">
<polygon fill="white" stroke="#666666" points="2036.5,-74 1938.5,-74 1938.5,-55 2036.5,-55 2036.5,-74"/>
<text text-anchor="middle" x="1987.5" y="-62" font-family="Helvetica,sans-Serif" font-size="10.00">compat/os/qnx.h</text>
</a>
</g>
</g>
<!-- Node5&#45;&gt;Node22 -->
<g id="edge20_Node000005_Node000022" class="edge">
<title>Node5&#45;&gt;Node22</title>
<g id="a_edge20_Node000005_Node000022"><a xlink:title=" ">
<path fill="none" stroke="#63b8ff" d="M1722.58,-115.49C1778.14,-105.01 1872.52,-87.2 1932.35,-75.91"/>
<polygon fill="#63b8ff" stroke="#63b8ff" points="1933.19,-79.31 1942.37,-74.02 1931.89,-72.43 1933.19,-79.31"/>
</a>
</g>
</g>
<!-- Node23 -->
<g id="Node000023" class="node">
<title>Node23</title>
<g id="a_Node000023"><a xlink:href="solaris_8h.html" target="_top" xlink:title=" ">
<polygon fill="white" stroke="#666666" points="2166.5,-74 2054.5,-74 2054.5,-55 2166.5,-55 2166.5,-74"/>
<text text-anchor="middle" x="2110.5" y="-62" font-family="Helvetica,sans-Serif" font-size="10.00">compat/os/solaris.h</text>
</a>
</g>
</g>
<!-- Node5&#45;&gt;Node23 -->
<g id="edge21_Node000005_Node000023" class="edge">
<title>Node5&#45;&gt;Node23</title>
<g id="a_edge21_Node000005_Node000023"><a xlink:title=" ">
<path fill="none" stroke="#63b8ff" d="M1728.87,-117.06C1807.52,-106.43 1957.76,-86.14 2044.42,-74.43"/>
<polygon fill="#63b8ff" stroke="#63b8ff" points="2044.97,-77.89 2054.41,-73.08 2044.03,-70.95 2044.97,-77.89"/>
</a>
</g>
</g>
<!-- Node24 -->
<g id="Node000024" class="node">
<title>Node24</title>
<g id="a_Node000024"><a xlink:href="sunos_8h.html" target="_top" xlink:title=" ">
<polygon fill="white" stroke="#666666" points="2292.5,-74 2184.5,-74 2184.5,-55 2292.5,-55 2292.5,-74"/>
<text text-anchor="middle" x="2238.5" y="-62" font-family="Helvetica,sans-Serif" font-size="10.00">compat/os/sunos.h</text>
</a>
</g>
</g>
<!-- Node5&#45;&gt;Node24 -->
<g id="edge22_Node000005_Node000024" class="edge">
<title>Node5&#45;&gt;Node24</title>
<g id="a_edge22_Node000005_Node000024"><a xlink:title=" ">
<path fill="none" stroke="#63b8ff" d="M1728.82,-119.43C1817.43,-111.41 2005.1,-93.86 2174.14,-74.13"/>
<polygon fill="#63b8ff" stroke="#63b8ff" points="2174.69,-77.58 2184.22,-72.94 2173.88,-70.63 2174.69,-77.58"/>
</a>
</g>
</g>
<!-- Node25 -->
<g id="Node000025" class="node">
<title>Node25</title>
<g id="a_Node000025"><a xlink:href="assert_8h.html" target="_top" xlink:title=" ">
<polygon fill="white" stroke="#666666" points="2406,-74 2311,-74 2311,-55 2406,-55 2406,-74"/>
<text text-anchor="middle" x="2358.5" y="-62" font-family="Helvetica,sans-Serif" font-size="10.00">compat/assert.h</text>
</a>
</g>
</g>
<!-- Node5&#45;&gt;Node25 -->
<g id="edge23_Node000005_Node000025" class="edge">
<title>Node5&#45;&gt;Node25</title>
<g id="a_edge23_Node000005_Node000025"><a xlink:title=" ">
<path fill="none" stroke="#63b8ff" d="M1728.57,-121.09C1833.61,-114.85 2081.67,-98.79 2300.86,-73.99"/>
<polygon fill="#63b8ff" stroke="#63b8ff" points="2301.41,-77.45 2310.95,-72.84 2300.61,-70.49 2301.41,-77.45"/>
</a>
</g>
</g>
<!-- Node26 -->
<g id="Node000026" class="node">
<title>Node26</title>
<g id="a_Node000026"><a xlink:href="compat__shared_8h.html" target="_top" xlink:title=" ">
<polygon fill="#fff0f0" stroke="red" points="2564.5,-74 2424.5,-74 2424.5,-55 2564.5,-55 2564.5,-74"/>
<text text-anchor="middle" x="2494.5" y="-62" font-family="Helvetica,sans-Serif" font-size="10.00">compat/compat_shared.h</text>
</a>
</g>
</g>
<!-- Node5&#45;&gt;Node26 -->
<g id="edge24_Node000005_Node000026" class="edge">
<title>Node5&#45;&gt;Node26</title>
<g id="a_edge24_Node000005_Node000026"><a xlink:title=" ">
<path fill="none" stroke="#63b8ff" d="M1728.93,-121.19C1847.53,-114.56 2149.58,-96.83 2414.09,-74"/>
<polygon fill="#63b8ff" stroke="#63b8ff" points="2414.61,-77.47 2424.27,-73.11 2414.01,-70.49 2414.61,-77.47"/>
</a>
</g>
</g>
<!-- Node36 -->
<g id="Node000036" class="node">
<title>Node36</title>
<g id="a_Node000036"><a xlink:href="stdvarargs_8h.html" target="_top" xlink:title=" ">
<polygon fill="#fff0f0" stroke="red" points="2700,-74 2583,-74 2583,-55 2700,-55 2700,-74"/>
<text text-anchor="middle" x="2641.5" y="-62" font-family="Helvetica,sans-Serif" font-size="10.00">compat/stdvarargs.h</text>
</a>
</g>
</g>
<!-- Node5&#45;&gt;Node36 -->
<g id="edge25_Node000005_Node000036" class="edge">
<title>Node5&#45;&gt;Node36</title>
<g id="a_edge25_Node000005_Node000036"><a xlink:title=" ">
<path fill="none" stroke="#63b8ff" d="M1728.61,-122.38C1864.25,-117.81 2244.78,-103.27 2572.75,-74"/>
<polygon fill="#63b8ff" stroke="#63b8ff" points="2573.28,-77.46 2582.92,-73.08 2572.65,-70.49 2573.28,-77.46"/>
</a>
</g>
</g>
<!-- Node38 -->
<g id="Node000038" class="node">
<title>Node38</title>
<g id="a_Node000038"><a xlink:href="stdio_8h.html" target="_top" xlink:title=" ">
<polygon fill="#fff0f0" stroke="red" points="2807,-74 2718,-74 2718,-55 2807,-55 2807,-74"/>
<text text-anchor="middle" x="2762.5" y="-62" font-family="Helvetica,sans-Serif" font-size="10.00">compat/stdio.h</text>
</a>
</g>
</g>
<!-- Node5&#45;&gt;Node38 -->
<g id="edge26_Node000005_Node000038" class="edge">
<title>Node5&#45;&gt;Node38</title>
<g id="a_edge26_Node000005_Node000038"><a xlink:title=" ">
<path fill="none" stroke="#63b8ff" d="M1728.6,-123.47C1877.79,-121.49 2325.73,-112.63 2707.62,-73.96"/>
<polygon fill="#63b8ff" stroke="#63b8ff" points="2708.17,-77.42 2717.76,-72.92 2707.46,-70.46 2708.17,-77.42"/>
</a>
</g>
</g>
<!-- Node40 -->
<g id="Node000040" class="node">
<title>Node40</title>
<g id="a_Node000040"><a xlink:href="statvfs_8h.html" target="_top" xlink:title=" ">
<polygon fill="white" stroke="#666666" points="2924,-74 2825,-74 2825,-55 2924,-55 2924,-74"/>
<text text-anchor="middle" x="2874.5" y="-62" font-family="Helvetica,sans-Serif" font-size="10.00">compat/statvfs.h</text>
</a>
</g>
</g>
<!-- Node5&#45;&gt;Node40 -->
<g id="edge27_Node000005_Node000040" class="edge">
<title>Node5&#45;&gt;Node40</title>
<g id="a_edge27_Node000005_Node000040"><a xlink:title=" ">
<path fill="none" stroke="#63b8ff" d="M1728.67,-123.56C1887.94,-121.8 2389.18,-113.37 2814.93,-73.94"/>
<polygon fill="#63b8ff" stroke="#63b8ff" points="2815.34,-77.41 2824.97,-73 2814.69,-70.44 2815.34,-77.41"/>
</a>
</g>
</g>
<!-- Node41 -->
<g id="Node000041" class="node">
<title>Node41</title>
<g id="a_Node000041"><a xlink:href="debug_8h.html" target="_top" xlink:title=" ">
<polygon fill="white" stroke="#666666" points="3037,-74 2942,-74 2942,-55 3037,-55 3037,-74"/>
<text text-anchor="middle" x="2989.5" y="-62" font-family="Helvetica,sans-Serif" font-size="10.00">compat/debug.h</text>
</a>
</g>
</g>
<!-- Node5&#45;&gt;Node41 -->
<g id="edge28_Node000005_Node000041" class="edge">
<title>Node5&#45;&gt;Node41</title>
<g id="a_edge28_Node000005_Node000041"><a xlink:title=" ">
<path fill="none" stroke="#63b8ff" d="M1728.74,-123.94C1898.57,-123.34 2458.56,-117.97 2931.85,-73.93"/>
<polygon fill="#63b8ff" stroke="#63b8ff" points="2932.33,-77.4 2941.96,-72.98 2931.68,-70.43 2932.33,-77.4"/>
</a>
</g>
</g>
<!-- Node42 -->
<g id="Node000042" class="node">
<title>Node42</title>
<g id="a_Node000042"><a xlink:href="valgrind_8h.html" target="_top" xlink:title=" ">
<polygon fill="#fff0f0" stroke="red" points="3160,-74 3055,-74 3055,-55 3160,-55 3160,-74"/>
<text text-anchor="middle" x="3107.5" y="-62" font-family="Helvetica,sans-Serif" font-size="10.00">compat/valgrind.h</text>
</a>
</g>
</g>
<!-- Node5&#45;&gt;Node42 -->
<g id="edge29_Node000005_Node000042" class="edge">
<title>Node5&#45;&gt;Node42</title>
<g id="a_edge29_Node000005_Node000042"><a xlink:title=" ">
<path fill="none" stroke="#63b8ff" d="M1728.54,-123.97C1907.71,-123.46 2524.68,-118.46 3044.44,-73.98"/>
<polygon fill="#63b8ff" stroke="#63b8ff" points="3045.11,-77.44 3054.77,-73.09 3044.51,-70.46 3045.11,-77.44"/>
</a>
</g>
</g>
<!-- Node47 -->
<g id="Node000047" class="node">
<title>Node47</title>
<g id="a_Node000047"><a xlink:href="TextException_8h.html" target="_top" xlink:title=" ">
<polygon fill="white" stroke="#666666" points="3351.5,-134.5 3231.5,-134.5 3231.5,-115.5 3351.5,-115.5 3351.5,-134.5"/>
<text text-anchor="middle" x="3291.5" y="-122.5" font-family="Helvetica,sans-Serif" font-size="10.00">base/TextException.h</text>
</a>
</g>
</g>
<!-- Node46&#45;&gt;Node47 -->
<g id="edge33_Node000046_Node000047" class="edge">
<title>Node46&#45;&gt;Node47</title>
<g id="a_edge33_Node000046_Node000047"><a xlink:title=" ">
<path fill="none" stroke="#63b8ff" d="M3444.47,-175.99C3413.58,-165.9 3361.92,-149.01 3327.28,-137.69"/>
<polygon fill="#63b8ff" stroke="#63b8ff" points="3328.15,-134.3 3317.56,-134.52 3325.98,-140.95 3328.15,-134.3"/>
</a>
</g>
</g>
<!-- Node52 -->
<g id="Node000052" class="node">
<title>Node52</title>
<g id="a_Node000052"><a xlink:href="debug_2Stream_8h.html" target="_top" xlink:title=" ">
<polygon fill="#fff0f0" stroke="red" points="3463.5,-134.5 3369.5,-134.5 3369.5,-115.5 3463.5,-115.5 3463.5,-134.5"/>
<text text-anchor="middle" x="3416.5" y="-122.5" font-family="Helvetica,sans-Serif" font-size="10.00">debug/Stream.h</text>
</a>
</g>
</g>
<!-- Node46&#45;&gt;Node52 -->
<g id="edge38_Node000046_Node000052" class="edge">
<title>Node46&#45;&gt;Node52</title>
<g id="a_edge38_Node000046_Node000052"><a xlink:title=" ">
<path fill="none" stroke="#63b8ff" d="M3462.53,-175.87C3454.4,-167.05 3441.57,-153.16 3431.52,-142.27"/>
<polygon fill="#63b8ff" stroke="#63b8ff" points="3433.86,-139.64 3424.5,-134.67 3428.71,-144.39 3433.86,-139.64"/>
</a>
</g>
</g>
<!-- Node57 -->
<g id="Node000057" class="node">
<title>Node57</title>
<g id="a_Node000057"><a xlink:href="sbuf_2forward_8h.html" target="_top" xlink:title=" ">
<polygon fill="#fff0f0" stroke="red" points="3569,-134.5 3482,-134.5 3482,-115.5 3569,-115.5 3569,-134.5"/>
<text text-anchor="middle" x="3525.5" y="-122.5" font-family="Helvetica,sans-Serif" font-size="10.00">sbuf/forward.h</text>
</a>
</g>
</g>
<!-- Node46&#45;&gt;Node57 -->
<g id="edge42_Node000046_Node000057" class="edge">
<title>Node46&#45;&gt;Node57</title>
<g id="a_edge42_Node000046_Node000057"><a xlink:title=" ">
<path fill="none" stroke="#63b8ff" d="M3478.62,-175.87C3486.9,-167.05 3499.97,-153.16 3510.2,-142.27"/>
<polygon fill="#63b8ff" stroke="#63b8ff" points="3513.05,-144.35 3517.35,-134.67 3507.95,-139.56 3513.05,-144.35"/>
</a>
</g>
</g>
<!-- Node60 -->
<g id="Node000060" class="node">
<title>Node60</title>
<g id="a_Node000060"><a xlink:title=" ">
<polygon fill="#e0e0e0" stroke="#999999" points="3644,-134.5 3587,-134.5 3587,-115.5 3644,-115.5 3644,-134.5"/>
<text text-anchor="middle" x="3615.5" y="-122.5" font-family="Helvetica,sans-Serif" font-size="10.00">ostream</text>
</a>
</g>
</g>
<!-- Node46&#45;&gt;Node60 -->
<g id="edge43_Node000046_Node000060" class="edge">
<title>Node46&#45;&gt;Node60</title>
<g id="a_edge43_Node000046_Node000060"><a xlink:title=" ">
<path fill="none" stroke="#63b8ff" d="M3491.58,-175.99C3516.18,-166.07 3557.03,-149.59 3585.06,-138.28"/>
<polygon fill="#63b8ff" stroke="#63b8ff" points="3586.43,-141.5 3594.39,-134.52 3583.81,-135.01 3586.43,-141.5"/>
</a>
</g>
</g>
<!-- Node48 -->
<g id="Node000048" class="node">
<title>Node48</title>
<g id="a_Node000048"><a xlink:href="Assure_8h.html" target="_top" xlink:title=" ">
<polygon fill="white" stroke="#666666" points="3263,-74 3178,-74 3178,-55 3263,-55 3263,-74"/>
<text text-anchor="middle" x="3220.5" y="-62" font-family="Helvetica,sans-Serif" font-size="10.00">base/Assure.h</text>
</a>
</g>
</g>
<!-- Node47&#45;&gt;Node48 -->
<g id="edge34_Node000047_Node000048" class="edge">
<title>Node47&#45;&gt;Node48</title>
<g id="a_edge34_Node000047_Node000048"><a xlink:title=" ">
<path fill="none" stroke="#63b8ff" d="M3281.02,-115.37C3270.01,-106.3 3252.46,-91.84 3239.09,-80.82"/>
<polygon fill="#63b8ff" stroke="#63b8ff" points="3240.96,-77.83 3231.02,-74.17 3236.51,-83.23 3240.96,-77.83"/>
</a>
</g>
</g>
<!-- Node49 -->
<g id="Node000049" class="node">
<title>Node49</title>
<g id="a_Node000049"><a xlink:href="Here_8h.html" target="_top" xlink:title=" ">
<polygon fill="#fff0f0" stroke="red" points="3329,-19 3254,-19 3254,0 3329,0 3329,-19"/>
<text text-anchor="middle" x="3291.5" y="-7" font-family="Helvetica,sans-Serif" font-size="10.00">base/Here.h</text>
</a>
</g>
</g>
<!-- Node47&#45;&gt;Node49 -->
<g id="edge36_Node000047_Node000049" class="edge">
<title>Node47&#45;&gt;Node49</title>
<g id="a_edge36_Node000047_Node000049"><a xlink:title=" ">
<path fill="none" stroke="#63b8ff" d="M3291.5,-115.47C3291.5,-97.23 3291.5,-54.07 3291.5,-29.14"/>
<polygon fill="#63b8ff" stroke="#63b8ff" points="3295,-29.13 3291.5,-19.13 3288,-29.13 3295,-29.13"/>
</a>
</g>
</g>
<!-- Node51 -->
<g id="Node000051" class="node">
<title>Node51</title>
<g id="a_Node000051"><a xlink:title=" ">
<polygon fill="#e0e0e0" stroke="#999999" points="3385,-74 3320,-74 3320,-55 3385,-55 3385,-74"/>
<text text-anchor="middle" x="3352.5" y="-62" font-family="Helvetica,sans-Serif" font-size="10.00">stdexcept</text>
</a>
</g>
</g>
<!-- Node47&#45;&gt;Node51 -->
<g id="edge37_Node000047_Node000051" class="edge">
<title>Node47&#45;&gt;Node51</title>
<g id="a_edge37_Node000047_Node000051"><a xlink:title=" ">
<path fill="none" stroke="#63b8ff" d="M3300.5,-115.37C3309.87,-106.38 3324.75,-92.11 3336.2,-81.14"/>
<polygon fill="#63b8ff" stroke="#63b8ff" points="3338.67,-83.62 3343.46,-74.17 3333.82,-78.56 3338.67,-83.62"/>
</a>
</g>
</g>
<!-- Node48&#45;&gt;Node49 -->
<g id="edge35_Node000048_Node000049" class="edge">
<title>Node48&#45;&gt;Node49</title>
<g id="a_edge35_Node000048_Node000049"><a xlink:title=" ">
<path fill="none" stroke="#63b8ff" d="M3231.91,-54.98C3242.61,-47 3258.84,-34.88 3271.66,-25.31"/>
<polygon fill="#63b8ff" stroke="#63b8ff" points="3273.97,-27.96 3279.89,-19.17 3269.78,-22.35 3273.97,-27.96"/>
</a>
</g>
</g>
<!-- Node52&#45;&gt;Node49 -->
<g id="edge39_Node000052_Node000049" class="edge">
<title>Node52&#45;&gt;Node49</title>
<g id="a_edge39_Node000052_Node000049"><a xlink:title=" ">
<path fill="none" stroke="#63b8ff" d="M3415.84,-115.23C3414.31,-100.9 3409.35,-72.33 3393.5,-55 3379.11,-39.26 3358.18,-28.83 3339.01,-22.04"/>
<polygon fill="#63b8ff" stroke="#63b8ff" points="3340.08,-18.71 3329.49,-18.91 3337.89,-25.36 3340.08,-18.71"/>
</a>
</g>
</g>
<!-- Node53 -->
<g id="Node000053" class="node">
<title>Node53</title>
<g id="a_Node000053"><a xlink:href="AllocatorProxy_8h.html" target="_top" xlink:title=" ">
<polygon fill="white" stroke="#666666" points="3565.5,-74 3441.5,-74 3441.5,-55 3565.5,-55 3565.5,-74"/>
<text text-anchor="middle" x="3503.5" y="-62" font-family="Helvetica,sans-Serif" font-size="10.00">mem/AllocatorProxy.h</text>
</a>
</g>
</g>
<!-- Node52&#45;&gt;Node53 -->
<g id="edge40_Node000052_Node000053" class="edge">
<title>Node52&#45;&gt;Node53</title>
<g id="a_edge40_Node000052_Node000053"><a xlink:title=" ">
<path fill="none" stroke="#63b8ff" d="M3429.34,-115.37C3443.22,-106.04 3465.57,-91.01 3482.11,-79.88"/>
<polygon fill="#63b8ff" stroke="#63b8ff" points="3484.26,-82.65 3490.61,-74.17 3480.36,-76.84 3484.26,-82.65"/>
</a>
</g>
</g>
<!-- Node54 -->
<g id="Node000054" class="node">
<title>Node54</title>
<g id="a_Node000054"><a xlink:title=" ">
<polygon fill="#e0e0e0" stroke="#999999" points="3643.5,-74 3583.5,-74 3583.5,-55 3643.5,-55 3643.5,-74"/>
<text text-anchor="middle" x="3613.5" y="-62" font-family="Helvetica,sans-Serif" font-size="10.00">iostream</text>
</a>
</g>
</g>
<!-- Node52&#45;&gt;Node54 -->
<g id="edge41_Node000052_Node000054" class="edge">
<title>Node52&#45;&gt;Node54</title>
<g id="a_edge41_Node000052_Node000054"><a xlink:title=" ">
<path fill="none" stroke="#63b8ff" d="M3445.15,-115.49C3479.43,-105.31 3536.98,-88.22 3575.1,-76.9"/>
<polygon fill="#63b8ff" stroke="#63b8ff" points="3576.23,-80.22 3584.82,-74.02 3574.24,-73.51 3576.23,-80.22"/>
</a>
</g>
</g>
<!-- Node62 -->
<g id="Node000062" class="node">
<title>Node62</title>
<g id="a_Node000062"><a xlink:title=" ">
<polygon fill="#e0e0e0" stroke="#999999" points="3802.5,-140 3662.5,-140 3662.5,-110 3802.5,-110 3802.5,-140"/>
<text text-anchor="start" x="3670.5" y="-128" font-family="Helvetica,sans-Serif" font-size="10.00">cppunit/BriefTestProgress</text>
<text text-anchor="middle" x="3732.5" y="-117" font-family="Helvetica,sans-Serif" font-size="10.00">Listener.h</text>
</a>
</g>
</g>
<!-- Node61&#45;&gt;Node62 -->
<g id="edge45_Node000061_Node000062" class="edge">
<title>Node61&#45;&gt;Node62</title>
<g id="a_edge45_Node000061_Node000062"><a xlink:title=" ">
<path fill="none" stroke="#63b8ff" d="M4087.43,-178.9C4027.58,-171.18 3917.02,-156.5 3812.76,-140.16"/>
<polygon fill="#63b8ff" stroke="#63b8ff" points="3813.11,-136.68 3802.69,-138.58 3812.02,-143.59 3813.11,-136.68"/>
</a>
</g>
</g>
<!-- Node63 -->
<g id="Node000063" class="node">
<title>Node63</title>
<g id="a_Node000063"><a xlink:title=" ">
<polygon fill="#e0e0e0" stroke="#999999" points="3958,-140 3821,-140 3821,-110 3958,-110 3958,-140"/>
<text text-anchor="start" x="3829" y="-128" font-family="Helvetica,sans-Serif" font-size="10.00">cppunit/TextTestProgress</text>
<text text-anchor="middle" x="3889.5" y="-117" font-family="Helvetica,sans-Serif" font-size="10.00">Listener.h</text>
</a>
</g>
</g>
<!-- Node61&#45;&gt;Node63 -->
<g id="edge46_Node000061_Node000063" class="edge">
<title>Node61&#45;&gt;Node63</title>
<g id="a_edge46_Node000061_Node000063"><a xlink:title=" ">
<path fill="none" stroke="#63b8ff" d="M4096.31,-175.99C4060.04,-167.23 4002.57,-153.33 3957.41,-142.42"/>
<polygon fill="#63b8ff" stroke="#63b8ff" points="3958.22,-139.01 3947.68,-140.06 3956.58,-145.82 3958.22,-139.01"/>
</a>
</g>
</g>
<!-- Node64 -->
<g id="Node000064" class="node">
<title>Node64</title>
<g id="a_Node000064"><a xlink:title=" ">
<polygon fill="#e0e0e0" stroke="#999999" points="4131,-134.5 3976,-134.5 3976,-115.5 4131,-115.5 4131,-134.5"/>
<text text-anchor="middle" x="4053.5" y="-122.5" font-family="Helvetica,sans-Serif" font-size="10.00">cppunit/CompilerOutputter.h</text>
</a>
</g>
</g>
<!-- Node61&#45;&gt;Node64 -->
<g id="edge47_Node000061_Node000064" class="edge">
<title>Node61&#45;&gt;Node64</title>
<g id="a_edge47_Node000061_Node000064"><a xlink:title=" ">
<path fill="none" stroke="#63b8ff" d="M4119.99,-175.87C4107.66,-166.62 4087.88,-151.78 4073.09,-140.69"/>
<polygon fill="#63b8ff" stroke="#63b8ff" points="4075.16,-137.87 4065.06,-134.67 4070.96,-143.47 4075.16,-137.87"/>
</a>
</g>
</g>
<!-- Node65 -->
<g id="Node000065" class="node">
<title>Node65</title>
<g id="a_Node000065"><a xlink:title=" ">
<polygon fill="#e0e0e0" stroke="#999999" points="4271.5,-140 4149.5,-140 4149.5,-110 4271.5,-110 4271.5,-140"/>
<text text-anchor="start" x="4157.5" y="-128" font-family="Helvetica,sans-Serif" font-size="10.00">cppunit/extensions</text>
<text text-anchor="middle" x="4210.5" y="-117" font-family="Helvetica,sans-Serif" font-size="10.00">/TestFactoryRegistry.h</text>
</a>
</g>
</g>
<!-- Node61&#45;&gt;Node65 -->
<g id="edge48_Node000061_Node000065" class="edge">
<title>Node61&#45;&gt;Node65</title>
<g id="a_edge48_Node000061_Node000065"><a xlink:title=" ">
<path fill="none" stroke="#63b8ff" d="M4143.16,-175.87C4153.68,-168.08 4169.56,-156.32 4183.26,-146.17"/>
<polygon fill="#63b8ff" stroke="#63b8ff" points="4185.49,-148.88 4191.44,-140.11 4181.32,-143.25 4185.49,-148.88"/>
</a>
</g>
</g>
<!-- Node66 -->
<g id="Node000066" class="node">
<title>Node66</title>
<g id="a_Node000066"><a xlink:title=" ">
<polygon fill="#e0e0e0" stroke="#999999" points="4405,-134.5 4290,-134.5 4290,-115.5 4405,-115.5 4405,-134.5"/>
<text text-anchor="middle" x="4347.5" y="-122.5" font-family="Helvetica,sans-Serif" font-size="10.00">cppunit/TestResult.h</text>
</a>
</g>
</g>
<!-- Node61&#45;&gt;Node66 -->
<g id="edge49_Node000061_Node000066" class="edge">
<title>Node61&#45;&gt;Node66</title>
<g id="a_edge49_Node000061_Node000066"><a xlink:title=" ">
<path fill="none" stroke="#63b8ff" d="M4162.91,-175.99C4200.74,-165.75 4264.41,-148.5 4306.19,-137.19"/>
<polygon fill="#63b8ff" stroke="#63b8ff" points="4307.32,-140.51 4316.05,-134.52 4305.49,-133.75 4307.32,-140.51"/>
</a>
</g>
</g>
<!-- Node67 -->
<g id="Node000067" class="node">
<title>Node67</title>
<g id="a_Node000067"><a xlink:title=" ">
<polygon fill="#e0e0e0" stroke="#999999" points="4581.5,-134.5 4423.5,-134.5 4423.5,-115.5 4581.5,-115.5 4581.5,-134.5"/>
<text text-anchor="middle" x="4502.5" y="-122.5" font-family="Helvetica,sans-Serif" font-size="10.00">cppunit/TestResultCollector.h</text>
</a>
</g>
</g>
<!-- Node61&#45;&gt;Node67 -->
<g id="edge50_Node000061_Node000067" class="edge">
<title>Node61&#45;&gt;Node67</title>
<g id="a_edge50_Node000061_Node000067"><a xlink:title=" ">
<path fill="none" stroke="#63b8ff" d="M4175.62,-177.59C4231.3,-168.86 4330.01,-153.36 4414.5,-140 4422.43,-138.75 4430.76,-137.42 4439.01,-136.12"/>
<polygon fill="#63b8ff" stroke="#63b8ff" points="4439.66,-139.56 4448.99,-134.53 4438.56,-132.64 4439.66,-139.56"/>
</a>
</g>
</g>
<!-- Node68 -->
<g id="Node000068" class="node">
<title>Node68</title>
<g id="a_Node000068"><a xlink:title=" ">
<polygon fill="#e0e0e0" stroke="#999999" points="4717.5,-134.5 4599.5,-134.5 4599.5,-115.5 4717.5,-115.5 4717.5,-134.5"/>
<text text-anchor="middle" x="4658.5" y="-122.5" font-family="Helvetica,sans-Serif" font-size="10.00">cppunit/TestRunner.h</text>
</a>
</g>
</g>
<!-- Node61&#45;&gt;Node68 -->
<g id="edge51_Node000061_Node000068" class="edge">
<title>Node61&#45;&gt;Node68</title>
<g id="a_edge51_Node000061_Node000068"><a xlink:title=" ">
<path fill="none" stroke="#63b8ff" d="M4175.68,-181.79C4257.74,-176.4 4439.1,-162.86 4590.5,-140 4596.91,-139.03 4603.64,-137.85 4610.25,-136.59"/>
<polygon fill="#63b8ff" stroke="#63b8ff" points="4611.37,-139.94 4620.51,-134.57 4610.02,-133.07 4611.37,-139.94"/>
</a>
</g>
</g>
</g>
</svg>
