<?xml version="1.0" encoding="UTF-8" standalone="no"?>
<!DOCTYPE svg PUBLIC "-//W3C//DTD SVG 1.1//EN"
 "http://www.w3.org/Graphics/SVG/1.1/DTD/svg11.dtd">
<!-- Generated by graphviz version 2.43.0 (0)
 -->
<!-- Title: squid/src/tests/testUriScheme.cc Pages: 1 -->
<svg width="4390pt" height="302pt"
 viewBox="0.00 0.00 4390.00 302.00" xmlns="http://www.w3.org/2000/svg" xmlns:xlink="http://www.w3.org/1999/xlink">
<g id="graph0" class="graph" transform="scale(1 1) rotate(0) translate(4 298)">
<title>squid/src/tests/testUriScheme.cc</title>
<!-- Node1 -->
<g id="Node000001" class="node">
<title>Node1</title>
<g id="a_Node000001"><a xlink:title=" ">
<polygon fill="#999999" stroke="#666666" points="4207.5,-294 4031.5,-294 4031.5,-275 4207.5,-275 4207.5,-294"/>
<text text-anchor="middle" x="4119.5" y="-282" font-family="Helvetica,sans-Serif" font-size="10.00">squid/src/tests/testUriScheme.cc</text>
</a>
</g>
</g>
<!-- Node2 -->
<g id="Node000002" class="node">
<title>Node2</title>
<g id="a_Node000002"><a xlink:href="squid_8h.html" target="_top" xlink:title=" ">
<polygon fill="white" stroke="#666666" points="1653.5,-239 1601.5,-239 1601.5,-220 1653.5,-220 1653.5,-239"/>
<text text-anchor="middle" x="1627.5" y="-227" font-family="Helvetica,sans-Serif" font-size="10.00">squid.h</text>
</a>
</g>
</g>
<!-- Node1&#45;&gt;Node2 -->
<g id="edge1_Node000001_Node000002" class="edge">
<title>Node1&#45;&gt;Node2</title>
<g id="a_edge1_Node000001_Node000002"><a xlink:title=" ">
<path fill="none" stroke="#63b8ff" d="M4031.17,-281.62C3623.69,-272.96 1933.73,-237.01 1663.9,-231.27"/>
<polygon fill="#63b8ff" stroke="#63b8ff" points="1663.58,-227.77 1653.51,-231.05 1663.43,-234.77 1663.58,-227.77"/>
</a>
</g>
</g>
<!-- Node44 -->
<g id="Node000044" class="node">
<title>Node44</title>
<g id="a_Node000044"><a xlink:href="UriScheme_8h.html" target="_top" xlink:title=" ">
<polygon fill="white" stroke="#666666" points="3688.5,-239 3582.5,-239 3582.5,-220 3688.5,-220 3688.5,-239"/>
<text text-anchor="middle" x="3635.5" y="-227" font-family="Helvetica,sans-Serif" font-size="10.00">anyp/UriScheme.h</text>
</a>
</g>
</g>
<!-- Node1&#45;&gt;Node44 -->
<g id="edge31_Node000001_Node000044" class="edge">
<title>Node1&#45;&gt;Node44</title>
<g id="a_edge31_Node000001_Node000044"><a xlink:title=" ">
<path fill="none" stroke="#63b8ff" d="M4041.74,-274.98C3946.5,-264.56 3787.02,-247.09 3698.87,-237.44"/>
<polygon fill="#63b8ff" stroke="#63b8ff" points="3699.07,-233.94 3688.75,-236.33 3698.31,-240.9 3699.07,-233.94"/>
</a>
</g>
</g>
<!-- Node57 -->
<g id="Node000057" class="node">
<title>Node57</title>
<g id="a_Node000057"><a xlink:title=" ">
<polygon fill="#e0e0e0" stroke="#999999" points="3947.5,-74 3891.5,-74 3891.5,-55 3947.5,-55 3947.5,-74"/>
<text text-anchor="middle" x="3919.5" y="-62" font-family="Helvetica,sans-Serif" font-size="10.00">sstream</text>
</a>
</g>
</g>
<!-- Node1&#45;&gt;Node57 -->
<g id="edge54_Node000001_Node000057" class="edge">
<title>Node1&#45;&gt;Node57</title>
<g id="a_edge54_Node000001_Node000057"><a xlink:title=" ">
<path fill="none" stroke="#63b8ff" d="M4121.52,-274.96C4127.54,-247.22 4142.36,-158.71 4099.5,-110 4081.06,-89.05 4005.03,-76.06 3957.88,-69.87"/>
<polygon fill="#63b8ff" stroke="#63b8ff" points="3958.07,-66.36 3947.71,-68.58 3957.19,-73.31 3958.07,-66.36"/>
</a>
</g>
</g>
<!-- Node84 -->
<g id="Node000084" class="node">
<title>Node84</title>
<g id="a_Node000084"><a xlink:href="cppunit_8h.html" target="_top" xlink:title=" ">
<polygon fill="white" stroke="#666666" points="4249,-239 4148,-239 4148,-220 4249,-220 4249,-239"/>
<text text-anchor="middle" x="4198.5" y="-227" font-family="Helvetica,sans-Serif" font-size="10.00">compat/cppunit.h</text>
</a>
</g>
</g>
<!-- Node1&#45;&gt;Node84 -->
<g id="edge52_Node000001_Node000084" class="edge">
<title>Node1&#45;&gt;Node84</title>
<g id="a_edge52_Node000001_Node000084"><a xlink:title=" ">
<path fill="none" stroke="#63b8ff" d="M4132.19,-274.98C4144.33,-266.84 4162.86,-254.41 4177.25,-244.76"/>
<polygon fill="#63b8ff" stroke="#63b8ff" points="4179.22,-247.65 4185.58,-239.17 4175.32,-241.84 4179.22,-247.65"/>
</a>
</g>
</g>
<!-- Node85 -->
<g id="Node000085" class="node">
<title>Node85</title>
<g id="a_Node000085"><a xlink:title=" ">
<polygon fill="#e0e0e0" stroke="#999999" points="4382,-239 4267,-239 4267,-220 4382,-220 4382,-239"/>
<text text-anchor="middle" x="4324.5" y="-227" font-family="Helvetica,sans-Serif" font-size="10.00">cppunit/TestAssert.h</text>
</a>
</g>
</g>
<!-- Node1&#45;&gt;Node85 -->
<g id="edge53_Node000001_Node000085" class="edge">
<title>Node1&#45;&gt;Node85</title>
<g id="a_edge53_Node000001_Node000085"><a xlink:title=" ">
<path fill="none" stroke="#63b8ff" d="M4152.44,-274.98C4187.45,-265.93 4242.97,-251.58 4281.43,-241.64"/>
<polygon fill="#63b8ff" stroke="#63b8ff" points="4282.5,-244.97 4291.31,-239.08 4280.75,-238.2 4282.5,-244.97"/>
</a>
</g>
</g>
<!-- Node3 -->
<g id="Node000003" class="node">
<title>Node3</title>
<g id="a_Node000003"><a xlink:href="autoconf_8h.html" target="_top" xlink:title=" ">
<polygon fill="white" stroke="#666666" points="1528.5,-184 1460.5,-184 1460.5,-165 1528.5,-165 1528.5,-184"/>
<text text-anchor="middle" x="1494.5" y="-172" font-family="Helvetica,sans-Serif" font-size="10.00">autoconf.h</text>
</a>
</g>
</g>
<!-- Node2&#45;&gt;Node3 -->
<g id="edge2_Node000002_Node000003" class="edge">
<title>Node2&#45;&gt;Node3</title>
<g id="a_edge2_Node000002_Node000003"><a xlink:title=" ">
<path fill="none" stroke="#63b8ff" d="M1606.13,-219.98C1584.35,-211.3 1550.34,-197.75 1525.58,-187.88"/>
<polygon fill="#63b8ff" stroke="#63b8ff" points="1526.84,-184.62 1516.26,-184.17 1524.25,-191.12 1526.84,-184.62"/>
</a>
</g>
</g>
<!-- Node4 -->
<g id="Node000004" class="node">
<title>Node4</title>
<g id="a_Node000004"><a xlink:href="version_8h.html" target="_top" xlink:title=" ">
<polygon fill="white" stroke="#666666" points="1608.5,-184 1546.5,-184 1546.5,-165 1608.5,-165 1608.5,-184"/>
<text text-anchor="middle" x="1577.5" y="-172" font-family="Helvetica,sans-Serif" font-size="10.00">version.h</text>
</a>
</g>
</g>
<!-- Node2&#45;&gt;Node4 -->
<g id="edge3_Node000002_Node000004" class="edge">
<title>Node2&#45;&gt;Node4</title>
<g id="a_edge3_Node000002_Node000004"><a xlink:title=" ">
<path fill="none" stroke="#63b8ff" d="M1619.24,-219.75C1612.04,-212.11 1601.39,-200.82 1592.65,-191.56"/>
<polygon fill="#63b8ff" stroke="#63b8ff" points="1595.01,-188.96 1585.6,-184.09 1589.92,-193.76 1595.01,-188.96"/>
</a>
</g>
</g>
<!-- Node5 -->
<g id="Node000005" class="node">
<title>Node5</title>
<g id="a_Node000005"><a xlink:href="compat_8h.html" target="_top" xlink:title=" ">
<polygon fill="white" stroke="#666666" points="1728.5,-184 1626.5,-184 1626.5,-165 1728.5,-165 1728.5,-184"/>
<text text-anchor="middle" x="1677.5" y="-172" font-family="Helvetica,sans-Serif" font-size="10.00">compat/compat.h</text>
</a>
</g>
</g>
<!-- Node2&#45;&gt;Node5 -->
<g id="edge4_Node000002_Node000005" class="edge">
<title>Node2&#45;&gt;Node5</title>
<g id="a_edge4_Node000002_Node000005"><a xlink:title=" ">
<path fill="none" stroke="#63b8ff" d="M1635.76,-219.75C1642.96,-212.11 1653.61,-200.82 1662.35,-191.56"/>
<polygon fill="#63b8ff" stroke="#63b8ff" points="1665.08,-193.76 1669.4,-184.09 1659.99,-188.96 1665.08,-193.76"/>
</a>
</g>
</g>
<!-- Node6 -->
<g id="Node000006" class="node">
<title>Node6</title>
<g id="a_Node000006"><a xlink:href="osdetect_8h.html" target="_top" xlink:title=" ">
<polygon fill="white" stroke="#666666" points="107,-129 0,-129 0,-110 107,-110 107,-129"/>
<text text-anchor="middle" x="53.5" y="-117" font-family="Helvetica,sans-Serif" font-size="10.00">compat/osdetect.h</text>
</a>
</g>
</g>
<!-- Node5&#45;&gt;Node6 -->
<g id="edge5_Node000005_Node000006" class="edge">
<title>Node5&#45;&gt;Node6</title>
<g id="a_edge5_Node000005_Node000006"><a xlink:title=" ">
<path fill="none" stroke="#63b8ff" d="M1626.48,-165.86C1623.45,-165.53 1620.44,-165.24 1617.5,-165 955.87,-110.39 783.48,-180.96 117.41,-128.95"/>
<polygon fill="#63b8ff" stroke="#63b8ff" points="117.32,-125.43 107.07,-128.14 116.77,-132.41 117.32,-125.43"/>
</a>
</g>
</g>
<!-- Node7 -->
<g id="Node000007" class="node">
<title>Node7</title>
<g id="a_Node000007"><a xlink:href="fdsetsize_8h.html" target="_top" xlink:title=" ">
<polygon fill="white" stroke="#666666" points="235.5,-129 125.5,-129 125.5,-110 235.5,-110 235.5,-129"/>
<text text-anchor="middle" x="180.5" y="-117" font-family="Helvetica,sans-Serif" font-size="10.00">compat/fdsetsize.h</text>
</a>
</g>
</g>
<!-- Node5&#45;&gt;Node7 -->
<g id="edge6_Node000005_Node000007" class="edge">
<title>Node5&#45;&gt;Node7</title>
<g id="a_edge6_Node000005_Node000007"><a xlink:title=" ">
<path fill="none" stroke="#63b8ff" d="M1626.48,-165.87C1623.45,-165.54 1620.44,-165.25 1617.5,-165 1012.61,-114.39 854.79,-176.55 245.98,-129.01"/>
<polygon fill="#63b8ff" stroke="#63b8ff" points="245.86,-125.49 235.62,-128.2 245.31,-132.47 245.86,-125.49"/>
</a>
</g>
</g>
<!-- Node8 -->
<g id="Node000008" class="node">
<title>Node8</title>
<g id="a_Node000008"><a xlink:href="types_8h.html" target="_top" xlink:title=" ">
<polygon fill="white" stroke="#666666" points="345.5,-129 253.5,-129 253.5,-110 345.5,-110 345.5,-129"/>
<text text-anchor="middle" x="299.5" y="-117" font-family="Helvetica,sans-Serif" font-size="10.00">compat/types.h</text>
</a>
</g>
</g>
<!-- Node5&#45;&gt;Node8 -->
<g id="edge7_Node000005_Node000008" class="edge">
<title>Node5&#45;&gt;Node8</title>
<g id="a_edge7_Node000005_Node000008"><a xlink:title=" ">
<path fill="none" stroke="#63b8ff" d="M1626.48,-165.88C1623.45,-165.55 1620.44,-165.25 1617.5,-165 1061.36,-117.83 915.52,-179.23 356.02,-129"/>
<polygon fill="#63b8ff" stroke="#63b8ff" points="355.94,-125.48 345.66,-128.06 355.31,-132.45 355.94,-125.48"/>
</a>
</g>
</g>
<!-- Node10 -->
<g id="Node000010" class="node">
<title>Node10</title>
<g id="a_Node000010"><a xlink:href="aix_8h.html" target="_top" xlink:title=" ">
<polygon fill="white" stroke="#666666" points="459,-129 364,-129 364,-110 459,-110 459,-129"/>
<text text-anchor="middle" x="411.5" y="-117" font-family="Helvetica,sans-Serif" font-size="10.00">compat/os/aix.h</text>
</a>
</g>
</g>
<!-- Node5&#45;&gt;Node10 -->
<g id="edge9_Node000005_Node000010" class="edge">
<title>Node5&#45;&gt;Node10</title>
<g id="a_edge9_Node000005_Node000010"><a xlink:title=" ">
<path fill="none" stroke="#63b8ff" d="M1626.48,-165.89C1623.45,-165.55 1620.43,-165.25 1617.5,-165 1111.83,-121.39 979.11,-174.05 469.24,-128.92"/>
<polygon fill="#63b8ff" stroke="#63b8ff" points="469.31,-125.42 459.04,-128.01 468.68,-132.39 469.31,-125.42"/>
</a>
</g>
</g>
<!-- Node11 -->
<g id="Node000011" class="node">
<title>Node11</title>
<g id="a_Node000011"><a xlink:href="android_8h.html" target="_top" xlink:title=" ">
<polygon fill="white" stroke="#666666" points="593.5,-129 477.5,-129 477.5,-110 593.5,-110 593.5,-129"/>
<text text-anchor="middle" x="535.5" y="-117" font-family="Helvetica,sans-Serif" font-size="10.00">compat/os/android.h</text>
</a>
</g>
</g>
<!-- Node5&#45;&gt;Node11 -->
<g id="edge10_Node000005_Node000011" class="edge">
<title>Node5&#45;&gt;Node11</title>
<g id="a_edge10_Node000005_Node000011"><a xlink:title=" ">
<path fill="none" stroke="#63b8ff" d="M1626.48,-165.9C1623.44,-165.56 1620.43,-165.26 1617.5,-165 1171.15,-125.58 1054.13,-164.86 603.6,-129"/>
<polygon fill="#63b8ff" stroke="#63b8ff" points="603.82,-125.51 593.57,-128.19 603.26,-132.48 603.82,-125.51"/>
</a>
</g>
</g>
<!-- Node12 -->
<g id="Node000012" class="node">
<title>Node12</title>
<g id="a_Node000012"><a xlink:href="dragonfly_8h.html" target="_top" xlink:title=" ">
<polygon fill="white" stroke="#666666" points="735.5,-129 611.5,-129 611.5,-110 735.5,-110 735.5,-129"/>
<text text-anchor="middle" x="673.5" y="-117" font-family="Helvetica,sans-Serif" font-size="10.00">compat/os/dragonfly.h</text>
</a>
</g>
</g>
<!-- Node5&#45;&gt;Node12 -->
<g id="edge11_Node000005_Node000012" class="edge">
<title>Node5&#45;&gt;Node12</title>
<g id="a_edge11_Node000005_Node000012"><a xlink:title=" ">
<path fill="none" stroke="#63b8ff" d="M1626.48,-165.92C1623.44,-165.58 1620.43,-165.27 1617.5,-165 1234.08,-130.02 1133.3,-159.59 745.89,-129.04"/>
<polygon fill="#63b8ff" stroke="#63b8ff" points="746.06,-125.54 735.81,-128.24 745.5,-132.52 746.06,-125.54"/>
</a>
</g>
</g>
<!-- Node13 -->
<g id="Node000013" class="node">
<title>Node13</title>
<g id="a_Node000013"><a xlink:href="freebsd_8h.html" target="_top" xlink:title=" ">
<polygon fill="white" stroke="#666666" points="869.5,-129 753.5,-129 753.5,-110 869.5,-110 869.5,-129"/>
<text text-anchor="middle" x="811.5" y="-117" font-family="Helvetica,sans-Serif" font-size="10.00">compat/os/freebsd.h</text>
</a>
</g>
</g>
<!-- Node5&#45;&gt;Node13 -->
<g id="edge12_Node000005_Node000013" class="edge">
<title>Node5&#45;&gt;Node13</title>
<g id="a_edge12_Node000005_Node000013"><a xlink:title=" ">
<path fill="none" stroke="#63b8ff" d="M1626.47,-165.95C1623.44,-165.6 1620.43,-165.28 1617.5,-165 1293.5,-134.22 1207.83,-157.23 879.85,-129.04"/>
<polygon fill="#63b8ff" stroke="#63b8ff" points="879.84,-125.53 869.58,-128.15 879.23,-132.5 879.84,-125.53"/>
</a>
</g>
</g>
<!-- Node14 -->
<g id="Node000014" class="node">
<title>Node14</title>
<g id="a_Node000014"><a xlink:href="hpux_8h.html" target="_top" xlink:title=" ">
<polygon fill="white" stroke="#666666" points="991.5,-129 887.5,-129 887.5,-110 991.5,-110 991.5,-129"/>
<text text-anchor="middle" x="939.5" y="-117" font-family="Helvetica,sans-Serif" font-size="10.00">compat/os/hpux.h</text>
</a>
</g>
</g>
<!-- Node5&#45;&gt;Node14 -->
<g id="edge13_Node000005_Node000014" class="edge">
<title>Node5&#45;&gt;Node14</title>
<g id="a_edge13_Node000005_Node000014"><a xlink:title=" ">
<path fill="none" stroke="#63b8ff" d="M1626.47,-165.98C1623.44,-165.62 1620.43,-165.29 1617.5,-165 1347.51,-138.05 1275.61,-155.54 1001.95,-129.06"/>
<polygon fill="#63b8ff" stroke="#63b8ff" points="1002,-125.55 991.71,-128.06 1001.32,-132.51 1002,-125.55"/>
</a>
</g>
</g>
<!-- Node15 -->
<g id="Node000015" class="node">
<title>Node15</title>
<g id="a_Node000015"><a xlink:href="linux_8h.html" target="_top" xlink:title=" ">
<polygon fill="white" stroke="#666666" points="1113.5,-129 1009.5,-129 1009.5,-110 1113.5,-110 1113.5,-129"/>
<text text-anchor="middle" x="1061.5" y="-117" font-family="Helvetica,sans-Serif" font-size="10.00">compat/os/linux.h</text>
</a>
</g>
</g>
<!-- Node5&#45;&gt;Node15 -->
<g id="edge14_Node000005_Node000015" class="edge">
<title>Node5&#45;&gt;Node15</title>
<g id="a_edge14_Node000005_Node000015"><a xlink:title=" ">
<path fill="none" stroke="#63b8ff" d="M1626.47,-166.03C1623.44,-165.66 1620.43,-165.31 1617.5,-165 1401.49,-141.87 1343.6,-151.92 1123.96,-129.08"/>
<polygon fill="#63b8ff" stroke="#63b8ff" points="1124.03,-125.57 1113.72,-128.01 1123.3,-132.53 1124.03,-125.57"/>
</a>
</g>
</g>
<!-- Node16 -->
<g id="Node000016" class="node">
<title>Node16</title>
<g id="a_Node000016"><a xlink:href="macosx_8h.html" target="_top" xlink:title=" ">
<polygon fill="white" stroke="#666666" points="1249.5,-129 1131.5,-129 1131.5,-110 1249.5,-110 1249.5,-129"/>
<text text-anchor="middle" x="1190.5" y="-117" font-family="Helvetica,sans-Serif" font-size="10.00">compat/os/macosx.h</text>
</a>
</g>
</g>
<!-- Node5&#45;&gt;Node16 -->
<g id="edge15_Node000005_Node000016" class="edge">
<title>Node5&#45;&gt;Node16</title>
<g id="a_edge15_Node000005_Node000016"><a xlink:title=" ">
<path fill="none" stroke="#63b8ff" d="M1626.46,-166.12C1623.43,-165.73 1620.42,-165.35 1617.5,-165 1461.57,-146.14 1419.56,-146.91 1260.01,-129.14"/>
<polygon fill="#63b8ff" stroke="#63b8ff" points="1260.16,-125.64 1249.83,-128 1259.38,-132.59 1260.16,-125.64"/>
</a>
</g>
</g>
<!-- Node17 -->
<g id="Node000017" class="node">
<title>Node17</title>
<g id="a_Node000017"><a xlink:href="mingw_8h.html" target="_top" xlink:title=" ">
<polygon fill="white" stroke="#666666" points="1379.5,-129 1267.5,-129 1267.5,-110 1379.5,-110 1379.5,-129"/>
<text text-anchor="middle" x="1323.5" y="-117" font-family="Helvetica,sans-Serif" font-size="10.00">compat/os/mingw.h</text>
</a>
</g>
</g>
<!-- Node5&#45;&gt;Node17 -->
<g id="edge16_Node000005_Node000017" class="edge">
<title>Node5&#45;&gt;Node17</title>
<g id="a_edge16_Node000005_Node000017"><a xlink:title=" ">
<path fill="none" stroke="#63b8ff" d="M1626.4,-165.85C1564.03,-156.51 1458.4,-140.7 1389.81,-130.43"/>
<polygon fill="#63b8ff" stroke="#63b8ff" points="1389.96,-126.91 1379.55,-128.89 1388.92,-133.83 1389.96,-126.91"/>
</a>
</g>
</g>
<!-- Node18 -->
<g id="Node000018" class="node">
<title>Node18</title>
<g id="a_Node000018"><a xlink:href="mswindows_8h.html" target="_top" xlink:title=" ">
<polygon fill="white" stroke="#666666" points="1535,-129 1398,-129 1398,-110 1535,-110 1535,-129"/>
<text text-anchor="middle" x="1466.5" y="-117" font-family="Helvetica,sans-Serif" font-size="10.00">compat/os/mswindows.h</text>
</a>
</g>
</g>
<!-- Node5&#45;&gt;Node18 -->
<g id="edge17_Node000005_Node000018" class="edge">
<title>Node5&#45;&gt;Node18</title>
<g id="a_edge17_Node000005_Node000018"><a xlink:title=" ">
<path fill="none" stroke="#63b8ff" d="M1643.6,-164.98C1607.48,-155.91 1550.18,-141.52 1510.58,-131.57"/>
<polygon fill="#63b8ff" stroke="#63b8ff" points="1511.22,-128.12 1500.67,-129.08 1509.51,-134.91 1511.22,-128.12"/>
</a>
</g>
</g>
<!-- Node19 -->
<g id="Node000019" class="node">
<title>Node19</title>
<g id="a_Node000019"><a xlink:href="netbsd_8h.html" target="_top" xlink:title=" ">
<polygon fill="white" stroke="#666666" points="1666,-129 1553,-129 1553,-110 1666,-110 1666,-129"/>
<text text-anchor="middle" x="1609.5" y="-117" font-family="Helvetica,sans-Serif" font-size="10.00">compat/os/netbsd.h</text>
</a>
</g>
</g>
<!-- Node5&#45;&gt;Node19 -->
<g id="edge18_Node000005_Node000019" class="edge">
<title>Node5&#45;&gt;Node19</title>
<g id="a_edge18_Node000005_Node000019"><a xlink:title=" ">
<path fill="none" stroke="#63b8ff" d="M1666.57,-164.98C1656.42,-157.07 1641.08,-145.11 1628.85,-135.58"/>
<polygon fill="#63b8ff" stroke="#63b8ff" points="1630.66,-132.56 1620.62,-129.17 1626.36,-138.08 1630.66,-132.56"/>
</a>
</g>
</g>
<!-- Node20 -->
<g id="Node000020" class="node">
<title>Node20</title>
<g id="a_Node000020"><a xlink:href="openbsd_8h.html" target="_top" xlink:title=" ">
<polygon fill="white" stroke="#666666" points="1805,-129 1684,-129 1684,-110 1805,-110 1805,-129"/>
<text text-anchor="middle" x="1744.5" y="-117" font-family="Helvetica,sans-Serif" font-size="10.00">compat/os/openbsd.h</text>
</a>
</g>
</g>
<!-- Node5&#45;&gt;Node20 -->
<g id="edge19_Node000005_Node000020" class="edge">
<title>Node5&#45;&gt;Node20</title>
<g id="a_edge19_Node000005_Node000020"><a xlink:title=" ">
<path fill="none" stroke="#63b8ff" d="M1688.26,-164.98C1698.27,-157.07 1713.39,-145.11 1725.43,-135.58"/>
<polygon fill="#63b8ff" stroke="#63b8ff" points="1727.87,-138.12 1733.54,-129.17 1723.53,-132.63 1727.87,-138.12"/>
</a>
</g>
</g>
<!-- Node21 -->
<g id="Node000021" class="node">
<title>Node21</title>
<g id="a_Node000021"><a xlink:href="os2_8h.html" target="_top" xlink:title=" ">
<polygon fill="white" stroke="#666666" points="1920,-129 1823,-129 1823,-110 1920,-110 1920,-129"/>
<text text-anchor="middle" x="1871.5" y="-117" font-family="Helvetica,sans-Serif" font-size="10.00">compat/os/os2.h</text>
</a>
</g>
</g>
<!-- Node5&#45;&gt;Node21 -->
<g id="edge20_Node000005_Node000021" class="edge">
<title>Node5&#45;&gt;Node21</title>
<g id="a_edge20_Node000005_Node000021"><a xlink:title=" ">
<path fill="none" stroke="#63b8ff" d="M1708.67,-164.98C1741.66,-155.97 1793.9,-141.7 1830.27,-131.76"/>
<polygon fill="#63b8ff" stroke="#63b8ff" points="1831.36,-135.09 1840.09,-129.08 1829.52,-128.34 1831.36,-135.09"/>
</a>
</g>
</g>
<!-- Node22 -->
<g id="Node000022" class="node">
<title>Node22</title>
<g id="a_Node000022"><a xlink:href="qnx_8h.html" target="_top" xlink:title=" ">
<polygon fill="white" stroke="#666666" points="2036.5,-129 1938.5,-129 1938.5,-110 2036.5,-110 2036.5,-129"/>
<text text-anchor="middle" x="1987.5" y="-117" font-family="Helvetica,sans-Serif" font-size="10.00">compat/os/qnx.h</text>
</a>
</g>
</g>
<!-- Node5&#45;&gt;Node22 -->
<g id="edge21_Node000005_Node000022" class="edge">
<title>Node5&#45;&gt;Node22</title>
<g id="a_edge21_Node000005_Node000022"><a xlink:title=" ">
<path fill="none" stroke="#63b8ff" d="M1727.31,-164.98C1782.04,-155.63 1869.91,-140.6 1928.17,-130.64"/>
<polygon fill="#63b8ff" stroke="#63b8ff" points="1929.06,-134.04 1938.33,-128.91 1927.88,-127.14 1929.06,-134.04"/>
</a>
</g>
</g>
<!-- Node23 -->
<g id="Node000023" class="node">
<title>Node23</title>
<g id="a_Node000023"><a xlink:href="solaris_8h.html" target="_top" xlink:title=" ">
<polygon fill="white" stroke="#666666" points="2166.5,-129 2054.5,-129 2054.5,-110 2166.5,-110 2166.5,-129"/>
<text text-anchor="middle" x="2110.5" y="-117" font-family="Helvetica,sans-Serif" font-size="10.00">compat/os/solaris.h</text>
</a>
</g>
</g>
<!-- Node5&#45;&gt;Node23 -->
<g id="edge22_Node000005_Node000023" class="edge">
<title>Node5&#45;&gt;Node23</title>
<g id="a_edge22_Node000005_Node000023"><a xlink:title=" ">
<path fill="none" stroke="#63b8ff" d="M1728.72,-167.47C1797.88,-159.28 1925.28,-144.08 2044.45,-129.12"/>
<polygon fill="#63b8ff" stroke="#63b8ff" points="2045,-132.58 2054.48,-127.86 2044.13,-125.63 2045,-132.58"/>
</a>
</g>
</g>
<!-- Node24 -->
<g id="Node000024" class="node">
<title>Node24</title>
<g id="a_Node000024"><a xlink:href="sunos_8h.html" target="_top" xlink:title=" ">
<polygon fill="white" stroke="#666666" points="2292.5,-129 2184.5,-129 2184.5,-110 2292.5,-110 2292.5,-129"/>
<text text-anchor="middle" x="2238.5" y="-117" font-family="Helvetica,sans-Serif" font-size="10.00">compat/os/sunos.h</text>
</a>
</g>
</g>
<!-- Node5&#45;&gt;Node24 -->
<g id="edge23_Node000005_Node000024" class="edge">
<title>Node5&#45;&gt;Node24</title>
<g id="a_edge23_Node000005_Node000024"><a xlink:title=" ">
<path fill="none" stroke="#63b8ff" d="M1728.84,-169.68C1817.47,-162.91 2005.16,-147.85 2174.15,-129.11"/>
<polygon fill="#63b8ff" stroke="#63b8ff" points="2174.67,-132.57 2184.22,-127.98 2173.9,-125.61 2174.67,-132.57"/>
</a>
</g>
</g>
<!-- Node25 -->
<g id="Node000025" class="node">
<title>Node25</title>
<g id="a_Node000025"><a xlink:href="assert_8h.html" target="_top" xlink:title=" ">
<polygon fill="white" stroke="#666666" points="2406,-129 2311,-129 2311,-110 2406,-110 2406,-129"/>
<text text-anchor="middle" x="2358.5" y="-117" font-family="Helvetica,sans-Serif" font-size="10.00">compat/assert.h</text>
</a>
</g>
</g>
<!-- Node5&#45;&gt;Node25 -->
<g id="edge24_Node000005_Node000025" class="edge">
<title>Node5&#45;&gt;Node25</title>
<g id="a_edge24_Node000005_Node000025"><a xlink:title=" ">
<path fill="none" stroke="#63b8ff" d="M1728.58,-171.19C1833.63,-166.15 2081.71,-152.76 2300.87,-128.97"/>
<polygon fill="#63b8ff" stroke="#63b8ff" points="2301.39,-132.44 2310.95,-127.87 2300.63,-125.48 2301.39,-132.44"/>
</a>
</g>
</g>
<!-- Node26 -->
<g id="Node000026" class="node">
<title>Node26</title>
<g id="a_Node000026"><a xlink:href="compat__shared_8h.html" target="_top" xlink:title=" ">
<polygon fill="#fff0f0" stroke="red" points="2564.5,-129 2424.5,-129 2424.5,-110 2564.5,-110 2564.5,-129"/>
<text text-anchor="middle" x="2494.5" y="-117" font-family="Helvetica,sans-Serif" font-size="10.00">compat/compat_shared.h</text>
</a>
</g>
</g>
<!-- Node5&#45;&gt;Node26 -->
<g id="edge25_Node000005_Node000026" class="edge">
<title>Node5&#45;&gt;Node26</title>
<g id="a_edge25_Node000005_Node000026"><a xlink:title=" ">
<path fill="none" stroke="#63b8ff" d="M1728.93,-171.2C1847.54,-165.73 2149.62,-150.79 2414.09,-128.99"/>
<polygon fill="#63b8ff" stroke="#63b8ff" points="2414.6,-132.46 2424.28,-128.14 2414.02,-125.48 2414.6,-132.46"/>
</a>
</g>
</g>
<!-- Node36 -->
<g id="Node000036" class="node">
<title>Node36</title>
<g id="a_Node000036"><a xlink:href="stdvarargs_8h.html" target="_top" xlink:title=" ">
<polygon fill="#fff0f0" stroke="red" points="2700,-129 2583,-129 2583,-110 2700,-110 2700,-129"/>
<text text-anchor="middle" x="2641.5" y="-117" font-family="Helvetica,sans-Serif" font-size="10.00">compat/stdvarargs.h</text>
</a>
</g>
</g>
<!-- Node5&#45;&gt;Node36 -->
<g id="edge26_Node000005_Node000036" class="edge">
<title>Node5&#45;&gt;Node36</title>
<g id="a_edge26_Node000005_Node000036"><a xlink:title=" ">
<path fill="none" stroke="#63b8ff" d="M1728.61,-172.3C1864.25,-168.83 2244.8,-157.22 2572.75,-128.99"/>
<polygon fill="#63b8ff" stroke="#63b8ff" points="2573.26,-132.46 2582.92,-128.1 2572.66,-125.48 2573.26,-132.46"/>
</a>
</g>
</g>
<!-- Node38 -->
<g id="Node000038" class="node">
<title>Node38</title>
<g id="a_Node000038"><a xlink:href="stdio_8h.html" target="_top" xlink:title=" ">
<polygon fill="#fff0f0" stroke="red" points="2807,-129 2718,-129 2718,-110 2807,-110 2807,-129"/>
<text text-anchor="middle" x="2762.5" y="-117" font-family="Helvetica,sans-Serif" font-size="10.00">compat/stdio.h</text>
</a>
</g>
</g>
<!-- Node5&#45;&gt;Node38 -->
<g id="edge27_Node000005_Node000038" class="edge">
<title>Node5&#45;&gt;Node38</title>
<g id="a_edge27_Node000005_Node000038"><a xlink:title=" ">
<path fill="none" stroke="#63b8ff" d="M1728.6,-173.33C1877.78,-172.42 2325.72,-166.57 2707.62,-128.95"/>
<polygon fill="#63b8ff" stroke="#63b8ff" points="2708.16,-132.41 2717.76,-127.94 2707.46,-125.45 2708.16,-132.41"/>
</a>
</g>
</g>
<!-- Node40 -->
<g id="Node000040" class="node">
<title>Node40</title>
<g id="a_Node000040"><a xlink:href="statvfs_8h.html" target="_top" xlink:title=" ">
<polygon fill="white" stroke="#666666" points="2924,-129 2825,-129 2825,-110 2924,-110 2924,-129"/>
<text text-anchor="middle" x="2874.5" y="-117" font-family="Helvetica,sans-Serif" font-size="10.00">compat/statvfs.h</text>
</a>
</g>
</g>
<!-- Node5&#45;&gt;Node40 -->
<g id="edge28_Node000005_Node000040" class="edge">
<title>Node5&#45;&gt;Node40</title>
<g id="a_edge28_Node000005_Node000040"><a xlink:title=" ">
<path fill="none" stroke="#63b8ff" d="M1728.66,-173.39C1887.93,-172.66 2389.17,-167.3 2814.93,-128.93"/>
<polygon fill="#63b8ff" stroke="#63b8ff" points="2815.33,-132.41 2824.97,-128.02 2814.69,-125.44 2815.33,-132.41"/>
</a>
</g>
</g>
<!-- Node41 -->
<g id="Node000041" class="node">
<title>Node41</title>
<g id="a_Node000041"><a xlink:href="debug_8h.html" target="_top" xlink:title=" ">
<polygon fill="white" stroke="#666666" points="3037,-129 2942,-129 2942,-110 3037,-110 3037,-129"/>
<text text-anchor="middle" x="2989.5" y="-117" font-family="Helvetica,sans-Serif" font-size="10.00">compat/debug.h</text>
</a>
</g>
</g>
<!-- Node5&#45;&gt;Node41 -->
<g id="edge29_Node000005_Node000041" class="edge">
<title>Node5&#45;&gt;Node41</title>
<g id="a_edge29_Node000005_Node000041"><a xlink:title=" ">
<path fill="none" stroke="#63b8ff" d="M1728.74,-173.75C1898.56,-174.13 2458.54,-171.9 2931.85,-128.92"/>
<polygon fill="#63b8ff" stroke="#63b8ff" points="2932.32,-132.39 2941.96,-128 2931.69,-125.42 2932.32,-132.39"/>
</a>
</g>
</g>
<!-- Node42 -->
<g id="Node000042" class="node">
<title>Node42</title>
<g id="a_Node000042"><a xlink:href="valgrind_8h.html" target="_top" xlink:title=" ">
<polygon fill="#fff0f0" stroke="red" points="3160,-129 3055,-129 3055,-110 3160,-110 3160,-129"/>
<text text-anchor="middle" x="3107.5" y="-117" font-family="Helvetica,sans-Serif" font-size="10.00">compat/valgrind.h</text>
</a>
</g>
</g>
<!-- Node5&#45;&gt;Node42 -->
<g id="edge30_Node000005_Node000042" class="edge">
<title>Node5&#45;&gt;Node42</title>
<g id="a_edge30_Node000005_Node000042"><a xlink:title=" ">
<path fill="none" stroke="#63b8ff" d="M1728.54,-173.75C1907.7,-174.2 2524.66,-172.38 3044.44,-128.98"/>
<polygon fill="#63b8ff" stroke="#63b8ff" points="3045.1,-132.43 3054.78,-128.11 3044.52,-125.46 3045.1,-132.43"/>
</a>
</g>
</g>
<!-- Node9 -->
<g id="Node000009" class="node">
<title>Node9</title>
<g id="a_Node000009"><a xlink:title=" ">
<polygon fill="#e0e0e0" stroke="#999999" points="324.5,-74 274.5,-74 274.5,-55 324.5,-55 324.5,-74"/>
<text text-anchor="middle" x="299.5" y="-62" font-family="Helvetica,sans-Serif" font-size="10.00">cstdint</text>
</a>
</g>
</g>
<!-- Node8&#45;&gt;Node9 -->
<g id="edge8_Node000008_Node000009" class="edge">
<title>Node8&#45;&gt;Node9</title>
<g id="a_edge8_Node000008_Node000009"><a xlink:title=" ">
<path fill="none" stroke="#63b8ff" d="M299.5,-109.75C299.5,-102.8 299.5,-92.85 299.5,-84.13"/>
<polygon fill="#63b8ff" stroke="#63b8ff" points="303,-84.09 299.5,-74.09 296,-84.09 303,-84.09"/>
</a>
</g>
</g>
<!-- Node45 -->
<g id="Node000045" class="node">
<title>Node45</title>
<g id="a_Node000045"><a xlink:href="ProtocolType_8h.html" target="_top" xlink:title=" ">
<polygon fill="white" stroke="#666666" points="3250,-184 3135,-184 3135,-165 3250,-165 3250,-184"/>
<text text-anchor="middle" x="3192.5" y="-172" font-family="Helvetica,sans-Serif" font-size="10.00">anyp/ProtocolType.h</text>
</a>
</g>
</g>
<!-- Node44&#45;&gt;Node45 -->
<g id="edge32_Node000044_Node000045" class="edge">
<title>Node44&#45;&gt;Node45</title>
<g id="a_edge32_Node000044_Node000045"><a xlink:title=" ">
<path fill="none" stroke="#63b8ff" d="M3582.06,-222.11C3501.49,-212.47 3348.93,-194.22 3260.53,-183.64"/>
<polygon fill="#63b8ff" stroke="#63b8ff" points="3260.68,-180.13 3250.34,-182.42 3259.85,-187.08 3260.68,-180.13"/>
</a>
</g>
</g>
<!-- Node47 -->
<g id="Node000047" class="node">
<title>Node47</title>
<g id="a_Node000047"><a xlink:href="SBuf_8h.html" target="_top" xlink:title=" ">
<polygon fill="white" stroke="#666666" points="3630,-184 3559,-184 3559,-165 3630,-165 3630,-184"/>
<text text-anchor="middle" x="3594.5" y="-172" font-family="Helvetica,sans-Serif" font-size="10.00">sbuf/SBuf.h</text>
</a>
</g>
</g>
<!-- Node44&#45;&gt;Node47 -->
<g id="edge34_Node000044_Node000047" class="edge">
<title>Node44&#45;&gt;Node47</title>
<g id="a_edge34_Node000044_Node000047"><a xlink:title=" ">
<path fill="none" stroke="#63b8ff" d="M3628.73,-219.75C3622.94,-212.26 3614.44,-201.28 3607.36,-192.13"/>
<polygon fill="#63b8ff" stroke="#63b8ff" points="3610.03,-189.86 3601.14,-184.09 3604.49,-194.14 3610.03,-189.86"/>
</a>
</g>
</g>
<!-- Node49 -->
<g id="Node000049" class="node">
<title>Node49</title>
<g id="a_Node000049"><a xlink:title=" ">
<polygon fill="#e0e0e0" stroke="#999999" points="3379.5,-19 3331.5,-19 3331.5,0 3379.5,0 3379.5,-19"/>
<text text-anchor="middle" x="3355.5" y="-7" font-family="Helvetica,sans-Serif" font-size="10.00">iosfwd</text>
</a>
</g>
</g>
<!-- Node44&#45;&gt;Node49 -->
<g id="edge49_Node000044_Node000049" class="edge">
<title>Node44&#45;&gt;Node49</title>
<g id="a_edge49_Node000044_Node000049"><a xlink:title=" ">
<path fill="none" stroke="#63b8ff" d="M3582.42,-225.82C3516.06,-219.5 3403.64,-198.49 3341.5,-129 3319.29,-104.16 3320.79,-87.16 3329.5,-55 3332.16,-45.19 3337.57,-35.33 3342.78,-27.39"/>
<polygon fill="#63b8ff" stroke="#63b8ff" points="3345.73,-29.27 3348.61,-19.07 3340,-25.25 3345.73,-29.27"/>
</a>
</g>
</g>
<!-- Node82 -->
<g id="Node000082" class="node">
<title>Node82</title>
<g id="a_Node000082"><a xlink:title=" ">
<polygon fill="#e0e0e0" stroke="#999999" points="3704.5,-184 3648.5,-184 3648.5,-165 3704.5,-165 3704.5,-184"/>
<text text-anchor="middle" x="3676.5" y="-172" font-family="Helvetica,sans-Serif" font-size="10.00">optional</text>
</a>
</g>
</g>
<!-- Node44&#45;&gt;Node82 -->
<g id="edge50_Node000044_Node000082" class="edge">
<title>Node44&#45;&gt;Node82</title>
<g id="a_edge50_Node000044_Node000082"><a xlink:title=" ">
<path fill="none" stroke="#63b8ff" d="M3642.27,-219.75C3648.06,-212.26 3656.56,-201.28 3663.64,-192.13"/>
<polygon fill="#63b8ff" stroke="#63b8ff" points="3666.51,-194.14 3669.86,-184.09 3660.97,-189.86 3666.51,-194.14"/>
</a>
</g>
</g>
<!-- Node83 -->
<g id="Node000083" class="node">
<title>Node83</title>
<g id="a_Node000083"><a xlink:title=" ">
<polygon fill="#e0e0e0" stroke="#999999" points="3770,-184 3723,-184 3723,-165 3770,-165 3770,-184"/>
<text text-anchor="middle" x="3746.5" y="-172" font-family="Helvetica,sans-Serif" font-size="10.00">vector</text>
</a>
</g>
</g>
<!-- Node44&#45;&gt;Node83 -->
<g id="edge51_Node000044_Node000083" class="edge">
<title>Node44&#45;&gt;Node83</title>
<g id="a_edge51_Node000044_Node000083"><a xlink:title=" ">
<path fill="none" stroke="#63b8ff" d="M3653.33,-219.98C3671.11,-211.5 3698.65,-198.35 3719.18,-188.54"/>
<polygon fill="#63b8ff" stroke="#63b8ff" points="3720.83,-191.64 3728.34,-184.17 3717.81,-185.32 3720.83,-191.64"/>
</a>
</g>
</g>
<!-- Node46 -->
<g id="Node000046" class="node">
<title>Node46</title>
<g id="a_Node000046"><a xlink:title=" ">
<polygon fill="#e0e0e0" stroke="#999999" points="3235,-129 3178,-129 3178,-110 3235,-110 3235,-129"/>
<text text-anchor="middle" x="3206.5" y="-117" font-family="Helvetica,sans-Serif" font-size="10.00">ostream</text>
</a>
</g>
</g>
<!-- Node45&#45;&gt;Node46 -->
<g id="edge33_Node000045_Node000046" class="edge">
<title>Node45&#45;&gt;Node46</title>
<g id="a_edge33_Node000045_Node000046"><a xlink:title=" ">
<path fill="none" stroke="#63b8ff" d="M3194.81,-164.75C3196.67,-157.72 3199.34,-147.62 3201.65,-138.84"/>
<polygon fill="#63b8ff" stroke="#63b8ff" points="3205.06,-139.65 3204.23,-129.09 3198.29,-137.86 3205.06,-139.65"/>
</a>
</g>
</g>
<!-- Node48 -->
<g id="Node000048" class="node">
<title>Node48</title>
<g id="a_Node000048"><a xlink:href="InstanceId_8h.html" target="_top" xlink:title=" ">
<polygon fill="white" stroke="#666666" points="3446.5,-74 3344.5,-74 3344.5,-55 3446.5,-55 3446.5,-74"/>
<text text-anchor="middle" x="3395.5" y="-62" font-family="Helvetica,sans-Serif" font-size="10.00">base/InstanceId.h</text>
</a>
</g>
</g>
<!-- Node47&#45;&gt;Node48 -->
<g id="edge35_Node000047_Node000048" class="edge">
<title>Node47&#45;&gt;Node48</title>
<g id="a_edge35_Node000047_Node000048"><a xlink:title=" ">
<path fill="none" stroke="#63b8ff" d="M3558.68,-171.62C3502.2,-167.84 3396.5,-157.09 3373.5,-129 3362.47,-115.52 3371.78,-96.17 3381.47,-82.37"/>
<polygon fill="#63b8ff" stroke="#63b8ff" points="3384.4,-84.31 3387.68,-74.23 3378.83,-80.06 3384.4,-84.31"/>
</a>
</g>
</g>
<!-- Node47&#45;&gt;Node49 -->
<g id="edge47_Node000047_Node000049" class="edge">
<title>Node47&#45;&gt;Node49</title>
<g id="a_edge47_Node000047_Node000049"><a xlink:title=" ">
<path fill="none" stroke="#63b8ff" d="M3558.86,-170.28C3502.44,-164.58 3395.82,-151.18 3365.5,-129 3336.86,-108.04 3328.06,-89.7 3335.5,-55 3337.47,-45.8 3341.5,-36.2 3345.43,-28.29"/>
<polygon fill="#63b8ff" stroke="#63b8ff" points="3348.59,-29.79 3350.18,-19.32 3342.41,-26.51 3348.59,-29.79"/>
</a>
</g>
</g>
<!-- Node50 -->
<g id="Node000050" class="node">
<title>Node50</title>
<g id="a_Node000050"><a xlink:href="TextException_8h.html" target="_top" xlink:title=" ">
<polygon fill="#fff0f0" stroke="red" points="3654.5,-129 3534.5,-129 3534.5,-110 3654.5,-110 3654.5,-129"/>
<text text-anchor="middle" x="3594.5" y="-117" font-family="Helvetica,sans-Serif" font-size="10.00">base/TextException.h</text>
</a>
</g>
</g>
<!-- Node47&#45;&gt;Node50 -->
<g id="edge37_Node000047_Node000050" class="edge">
<title>Node47&#45;&gt;Node50</title>
<g id="a_edge37_Node000047_Node000050"><a xlink:title=" ">
<path fill="none" stroke="#63b8ff" d="M3594.5,-164.75C3594.5,-157.8 3594.5,-147.85 3594.5,-139.13"/>
<polygon fill="#63b8ff" stroke="#63b8ff" points="3598,-139.09 3594.5,-129.09 3591,-139.09 3598,-139.09"/>
</a>
</g>
</g>
<!-- Node54 -->
<g id="Node000054" class="node">
<title>Node54</title>
<g id="a_Node000054"><a xlink:href="debug_2Stream_8h.html" target="_top" xlink:title=" ">
<polygon fill="#fff0f0" stroke="red" points="3766.5,-129 3672.5,-129 3672.5,-110 3766.5,-110 3766.5,-129"/>
<text text-anchor="middle" x="3719.5" y="-117" font-family="Helvetica,sans-Serif" font-size="10.00">debug/Stream.h</text>
</a>
</g>
</g>
<!-- Node47&#45;&gt;Node54 -->
<g id="edge38_Node000047_Node000054" class="edge">
<title>Node47&#45;&gt;Node54</title>
<g id="a_edge38_Node000047_Node000054"><a xlink:title=" ">
<path fill="none" stroke="#63b8ff" d="M3614.58,-164.98C3634.87,-156.38 3666.46,-142.99 3689.67,-133.15"/>
<polygon fill="#63b8ff" stroke="#63b8ff" points="3691.21,-136.3 3699.05,-129.17 3688.48,-129.85 3691.21,-136.3"/>
</a>
</g>
</g>
<!-- Node59 -->
<g id="Node000059" class="node">
<title>Node59</title>
<g id="a_Node000059"><a xlink:href="globals_8h.html" target="_top" xlink:title=" ">
<polygon fill="#fff0f0" stroke="red" points="3846,-129 3785,-129 3785,-110 3846,-110 3846,-129"/>
<text text-anchor="middle" x="3815.5" y="-117" font-family="Helvetica,sans-Serif" font-size="10.00">globals.h</text>
</a>
</g>
</g>
<!-- Node47&#45;&gt;Node59 -->
<g id="edge40_Node000047_Node000059" class="edge">
<title>Node47&#45;&gt;Node59</title>
<g id="a_edge40_Node000047_Node000059"><a xlink:title=" ">
<path fill="none" stroke="#63b8ff" d="M3630.01,-164.98C3669.57,-155.5 3733.42,-140.18 3774.93,-130.23"/>
<polygon fill="#63b8ff" stroke="#63b8ff" points="3775.81,-133.62 3784.71,-127.88 3774.17,-126.81 3775.81,-133.62"/>
</a>
</g>
</g>
<!-- Node70 -->
<g id="Node000070" class="node">
<title>Node70</title>
<g id="a_Node000070"><a xlink:href="sbuf_2forward_8h.html" target="_top" xlink:title=" ">
<polygon fill="#fff0f0" stroke="red" points="3951,-129 3864,-129 3864,-110 3951,-110 3951,-129"/>
<text text-anchor="middle" x="3907.5" y="-117" font-family="Helvetica,sans-Serif" font-size="10.00">sbuf/forward.h</text>
</a>
</g>
</g>
<!-- Node47&#45;&gt;Node70 -->
<g id="edge41_Node000047_Node000070" class="edge">
<title>Node47&#45;&gt;Node70</title>
<g id="a_edge41_Node000047_Node000070"><a xlink:title=" ">
<path fill="none" stroke="#63b8ff" d="M3630.35,-166.65C3633.44,-166.09 3636.53,-165.53 3639.5,-165 3679.61,-157.88 3787.64,-140.11 3853.64,-129.3"/>
<polygon fill="#63b8ff" stroke="#63b8ff" points="3854.56,-132.69 3863.86,-127.63 3853.43,-125.79 3854.56,-132.69"/>
</a>
</g>
</g>
<!-- Node77 -->
<g id="Node000077" class="node">
<title>Node77</title>
<g id="a_Node000077"><a xlink:href="MemBlob_8h.html" target="_top" xlink:title=" ">
<polygon fill="#fff0f0" stroke="red" points="3478.5,-129 3382.5,-129 3382.5,-110 3478.5,-110 3478.5,-129"/>
<text text-anchor="middle" x="3430.5" y="-117" font-family="Helvetica,sans-Serif" font-size="10.00">sbuf/MemBlob.h</text>
</a>
</g>
</g>
<!-- Node47&#45;&gt;Node77 -->
<g id="edge42_Node000047_Node000077" class="edge">
<title>Node47&#45;&gt;Node77</title>
<g id="a_edge42_Node000047_Node000077"><a xlink:title=" ">
<path fill="none" stroke="#63b8ff" d="M3568.15,-164.98C3540.74,-156.13 3497.61,-142.19 3466.94,-132.28"/>
<polygon fill="#63b8ff" stroke="#63b8ff" points="3467.65,-128.83 3457.06,-129.08 3465.5,-135.49 3467.65,-128.83"/>
</a>
</g>
</g>
<!-- Node79 -->
<g id="Node000079" class="node">
<title>Node79</title>
<g id="a_Node000079"><a xlink:href="sbuf_2Stats_8h.html" target="_top" xlink:title=" ">
<polygon fill="white" stroke="#666666" points="3541.5,-74 3467.5,-74 3467.5,-55 3541.5,-55 3541.5,-74"/>
<text text-anchor="middle" x="3504.5" y="-62" font-family="Helvetica,sans-Serif" font-size="10.00">sbuf/Stats.h</text>
</a>
</g>
</g>
<!-- Node47&#45;&gt;Node79 -->
<g id="edge44_Node000047_Node000079" class="edge">
<title>Node47&#45;&gt;Node79</title>
<g id="a_edge44_Node000047_Node000079"><a xlink:title=" ">
<path fill="none" stroke="#63b8ff" d="M3573.97,-164.88C3558.61,-157.45 3538.15,-145.34 3525.5,-129 3515.39,-115.94 3510.04,-97.8 3507.27,-84.25"/>
<polygon fill="#63b8ff" stroke="#63b8ff" points="3510.68,-83.41 3505.51,-74.16 3503.78,-84.61 3510.68,-83.41"/>
</a>
</g>
</g>
<!-- Node80 -->
<g id="Node000080" class="node">
<title>Node80</title>
<g id="a_Node000080"><a xlink:title=" ">
<polygon fill="#e0e0e0" stroke="#999999" points="4019.5,-129 3969.5,-129 3969.5,-110 4019.5,-110 4019.5,-129"/>
<text text-anchor="middle" x="3994.5" y="-117" font-family="Helvetica,sans-Serif" font-size="10.00">climits</text>
</a>
</g>
</g>
<!-- Node47&#45;&gt;Node80 -->
<g id="edge46_Node000047_Node000080" class="edge">
<title>Node47&#45;&gt;Node80</title>
<g id="a_edge46_Node000047_Node000080"><a xlink:title=" ">
<path fill="none" stroke="#63b8ff" d="M3630.32,-166.48C3633.42,-165.95 3636.51,-165.45 3639.5,-165 3781.03,-143.7 3818.57,-153.94 3959.5,-129 3959.6,-128.98 3959.7,-128.96 3959.8,-128.95"/>
<polygon fill="#63b8ff" stroke="#63b8ff" points="3960.24,-132.43 3969.35,-127.01 3958.85,-125.57 3960.24,-132.43"/>
</a>
</g>
</g>
<!-- Node81 -->
<g id="Node000081" class="node">
<title>Node81</title>
<g id="a_Node000081"><a xlink:title=" ">
<polygon fill="#e0e0e0" stroke="#999999" points="4091,-129 4038,-129 4038,-110 4091,-110 4091,-129"/>
<text text-anchor="middle" x="4064.5" y="-117" font-family="Helvetica,sans-Serif" font-size="10.00">iterator</text>
</a>
</g>
</g>
<!-- Node47&#45;&gt;Node81 -->
<g id="edge48_Node000047_Node000081" class="edge">
<title>Node47&#45;&gt;Node81</title>
<g id="a_edge48_Node000047_Node000081"><a xlink:title=" ">
<path fill="none" stroke="#63b8ff" d="M3630.31,-166.42C3633.41,-165.9 3636.51,-165.42 3639.5,-165 3808.25,-141.31 3855.41,-156.43 4027.93,-128.84"/>
<polygon fill="#63b8ff" stroke="#63b8ff" points="4028.54,-132.29 4037.85,-127.23 4027.42,-125.38 4028.54,-132.29"/>
</a>
</g>
</g>
<!-- Node48&#45;&gt;Node49 -->
<g id="edge36_Node000048_Node000049" class="edge">
<title>Node48&#45;&gt;Node49</title>
<g id="a_edge36_Node000048_Node000049"><a xlink:title=" ">
<path fill="none" stroke="#63b8ff" d="M3388.89,-54.75C3383.24,-47.26 3374.96,-36.28 3368.05,-27.13"/>
<polygon fill="#63b8ff" stroke="#63b8ff" points="3370.8,-24.96 3361.98,-19.09 3365.21,-29.18 3370.8,-24.96"/>
</a>
</g>
</g>
<!-- Node54&#45;&gt;Node57 -->
<g id="edge39_Node000054_Node000057" class="edge">
<title>Node54&#45;&gt;Node57</title>
<g id="a_edge39_Node000054_Node000057"><a xlink:title=" ">
<path fill="none" stroke="#63b8ff" d="M3751.63,-109.98C3786.96,-100.62 3843.68,-85.59 3881.27,-75.63"/>
<polygon fill="#63b8ff" stroke="#63b8ff" points="3882.56,-78.91 3891.33,-72.97 3880.76,-72.14 3882.56,-78.91"/>
</a>
</g>
</g>
<!-- Node77&#45;&gt;Node48 -->
<g id="edge43_Node000077_Node000048" class="edge">
<title>Node77&#45;&gt;Node48</title>
<g id="a_edge43_Node000077_Node000048"><a xlink:title=" ">
<path fill="none" stroke="#63b8ff" d="M3424.72,-109.75C3419.88,-102.42 3412.82,-91.73 3406.86,-82.7"/>
<polygon fill="#63b8ff" stroke="#63b8ff" points="3409.6,-80.5 3401.17,-74.09 3403.76,-84.36 3409.6,-80.5"/>
</a>
</g>
</g>
<!-- Node79&#45;&gt;Node49 -->
<g id="edge45_Node000079_Node000049" class="edge">
<title>Node79&#45;&gt;Node49</title>
<g id="a_edge45_Node000079_Node000049"><a xlink:title=" ">
<path fill="none" stroke="#63b8ff" d="M3480.56,-54.98C3455.94,-46.23 3417.38,-32.51 3389.58,-22.62"/>
<polygon fill="#63b8ff" stroke="#63b8ff" points="3390.47,-19.22 3379.88,-19.17 3388.12,-25.82 3390.47,-19.22"/>
</a>
</g>
</g>
</g>
</svg>
