<?xml version="1.0" encoding="UTF-8" standalone="no"?>
<!DOCTYPE svg PUBLIC "-//W3C//DTD SVG 1.1//EN"
 "http://www.w3.org/Graphics/SVG/1.1/DTD/svg11.dtd">
<!-- Generated by graphviz version 2.43.0 (0)
 -->
<!-- Title: squid/src/ipc/TypedMsgHdr.h Pages: 1 -->
<svg width="4621pt" height="280pt"
 viewBox="0.00 0.00 4620.50 280.00" xmlns="http://www.w3.org/2000/svg" xmlns:xlink="http://www.w3.org/1999/xlink">
<g id="graph0" class="graph" transform="scale(1 1) rotate(0) translate(4 276)">
<title>squid/src/ipc/TypedMsgHdr.h</title>
<!-- Node1 -->
<g id="Node000001" class="node">
<title>Node1</title>
<g id="a_Node000001"><a xlink:title=" ">
<polygon fill="#999999" stroke="#666666" points="2325,-272 2170,-272 2170,-253 2325,-253 2325,-272"/>
<text text-anchor="middle" x="2247.5" y="-260" font-family="Helvetica,sans-Serif" font-size="10.00">squid/src/ipc/TypedMsgHdr.h</text>
</a>
</g>
</g>
<!-- Node2 -->
<g id="Node000002" class="node">
<title>Node2</title>
<g id="a_Node000002"><a xlink:href="CollapsedForwarding_8cc.html" target="_top" xlink:title=" ">
<polygon fill="white" stroke="#666666" points="179,-79.5 0,-79.5 0,-60.5 179,-60.5 179,-79.5"/>
<text text-anchor="middle" x="89.5" y="-67.5" font-family="Helvetica,sans-Serif" font-size="10.00">squid/src/CollapsedForwarding.cc</text>
</a>
</g>
</g>
<!-- Node1&#45;&gt;Node2 -->
<g id="edge1_Node000001_Node000002" class="edge">
<title>Node1&#45;&gt;Node2</title>
<g id="a_edge1_Node000001_Node000002"><a xlink:title=" ">
<path fill="none" stroke="#63b8ff" d="M2159.72,-261.46C1816.91,-261.01 578.89,-256.64 407.5,-217 281.43,-187.84 145.01,-106.13 102.73,-79.51"/>
<polygon fill="#63b8ff" stroke="#63b8ff" points="2159.84,-264.96 2169.84,-261.47 2159.85,-257.96 2159.84,-264.96"/>
</a>
</g>
</g>
<!-- Node3 -->
<g id="Node000003" class="node">
<title>Node3</title>
<g id="a_Node000003"><a xlink:href="DiskdAction_8cc.html" target="_top" xlink:title=" ">
<polygon fill="white" stroke="#666666" points="1104,-217 943,-217 943,-187 1104,-187 1104,-217"/>
<text text-anchor="start" x="951" y="-205" font-family="Helvetica,sans-Serif" font-size="10.00">squid/src/DiskIO/DiskDaemon</text>
<text text-anchor="middle" x="1023.5" y="-194" font-family="Helvetica,sans-Serif" font-size="10.00">/DiskdAction.cc</text>
</a>
</g>
</g>
<!-- Node1&#45;&gt;Node3 -->
<g id="edge2_Node000001_Node000003" class="edge">
<title>Node1&#45;&gt;Node3</title>
<g id="a_edge2_Node000001_Node000003"><a xlink:title=" ">
<path fill="none" stroke="#63b8ff" d="M2159.62,-261.54C1968.62,-260.88 1501.54,-255.09 1112.5,-217 1109.85,-216.74 1107.17,-216.45 1104.45,-216.15"/>
<polygon fill="#63b8ff" stroke="#63b8ff" points="2159.87,-265.04 2169.88,-261.58 2159.89,-258.04 2159.87,-265.04"/>
</a>
</g>
</g>
<!-- Node4 -->
<g id="Node000004" class="node">
<title>Node4</title>
<g id="a_Node000004"><a xlink:href="SBufStatsAction_8cc.html" target="_top" xlink:title=" ">
<polygon fill="white" stroke="#666666" points="1277,-211.5 1122,-211.5 1122,-192.5 1277,-192.5 1277,-211.5"/>
<text text-anchor="middle" x="1199.5" y="-199.5" font-family="Helvetica,sans-Serif" font-size="10.00">squid/src/SBufStatsAction.cc</text>
</a>
</g>
</g>
<!-- Node1&#45;&gt;Node4 -->
<g id="edge3_Node000001_Node000004" class="edge">
<title>Node1&#45;&gt;Node4</title>
<g id="a_edge3_Node000001_Node000004"><a xlink:title=" ">
<path fill="none" stroke="#63b8ff" d="M2159.63,-260.76C1990.26,-258.59 1607.03,-250.1 1286.5,-217 1273.41,-215.65 1259.3,-213.62 1246.33,-211.53"/>
<polygon fill="#63b8ff" stroke="#63b8ff" points="2159.69,-264.26 2169.74,-260.88 2159.78,-257.26 2159.69,-264.26"/>
</a>
</g>
</g>
<!-- Node5 -->
<g id="Node000005" class="node">
<title>Node5</title>
<g id="a_Node000005"><a xlink:href="ipc_2Forwarder_8cc.html" target="_top" xlink:title=" ">
<polygon fill="white" stroke="#666666" points="339.5,-79.5 197.5,-79.5 197.5,-60.5 339.5,-60.5 339.5,-79.5"/>
<text text-anchor="middle" x="268.5" y="-67.5" font-family="Helvetica,sans-Serif" font-size="10.00">squid/src/ipc/Forwarder.cc</text>
</a>
</g>
</g>
<!-- Node1&#45;&gt;Node5 -->
<g id="edge4_Node000001_Node000005" class="edge">
<title>Node1&#45;&gt;Node5</title>
<g id="a_edge4_Node000001_Node000005"><a xlink:title=" ">
<path fill="none" stroke="#63b8ff" d="M2159.6,-260.73C1812.63,-257.51 553.1,-243.99 472.5,-217 384.95,-187.68 302.5,-106.8 276.75,-79.86"/>
<polygon fill="#63b8ff" stroke="#63b8ff" points="2159.81,-264.23 2169.85,-260.82 2159.88,-257.23 2159.81,-264.23"/>
</a>
</g>
</g>
<!-- Node6 -->
<g id="Node000006" class="node">
<title>Node6</title>
<g id="a_Node000006"><a xlink:href="ipc_2Inquirer_8cc.html" target="_top" xlink:title=" ">
<polygon fill="white" stroke="#666666" points="489,-79.5 358,-79.5 358,-60.5 489,-60.5 489,-79.5"/>
<text text-anchor="middle" x="423.5" y="-67.5" font-family="Helvetica,sans-Serif" font-size="10.00">squid/src/ipc/Inquirer.cc</text>
</a>
</g>
</g>
<!-- Node1&#45;&gt;Node6 -->
<g id="edge5_Node000001_Node000006" class="edge">
<title>Node1&#45;&gt;Node6</title>
<g id="a_edge5_Node000001_Node000006"><a xlink:title=" ">
<path fill="none" stroke="#63b8ff" d="M2159.64,-261.59C1816.51,-261.66 582.19,-258.95 510.5,-217 456.51,-185.4 432.28,-106.01 425.54,-79.66"/>
<polygon fill="#63b8ff" stroke="#63b8ff" points="2159.77,-265.09 2169.77,-261.59 2159.77,-258.09 2159.77,-265.09"/>
</a>
</g>
</g>
<!-- Node7 -->
<g id="Node000007" class="node">
<title>Node7</title>
<g id="a_Node000007"><a xlink:href="QuestionerId_8cc.html" target="_top" xlink:title=" ">
<polygon fill="white" stroke="#666666" points="1429.5,-217 1295.5,-217 1295.5,-187 1429.5,-187 1429.5,-217"/>
<text text-anchor="start" x="1303.5" y="-205" font-family="Helvetica,sans-Serif" font-size="10.00">squid/src/ipc/Questioner</text>
<text text-anchor="middle" x="1362.5" y="-194" font-family="Helvetica,sans-Serif" font-size="10.00">Id.cc</text>
</a>
</g>
</g>
<!-- Node1&#45;&gt;Node7 -->
<g id="edge6_Node000001_Node000007" class="edge">
<title>Node1&#45;&gt;Node7</title>
<g id="a_edge6_Node000001_Node000007"><a xlink:title=" ">
<path fill="none" stroke="#63b8ff" d="M2159.53,-260.32C2010.6,-257.51 1699.54,-248.09 1438.5,-217 1435.57,-216.65 1432.58,-216.26 1429.57,-215.83"/>
<polygon fill="#63b8ff" stroke="#63b8ff" points="2159.91,-263.83 2169.97,-260.51 2160.03,-256.83 2159.91,-263.83"/>
</a>
</g>
</g>
<!-- Node8 -->
<g id="Node000008" class="node">
<title>Node8</title>
<g id="a_Node000008"><a xlink:href="SharedListen_8cc.html" target="_top" xlink:title=" ">
<polygon fill="white" stroke="#666666" points="664,-79.5 507,-79.5 507,-60.5 664,-60.5 664,-79.5"/>
<text text-anchor="middle" x="585.5" y="-67.5" font-family="Helvetica,sans-Serif" font-size="10.00">squid/src/ipc/SharedListen.cc</text>
</a>
</g>
</g>
<!-- Node1&#45;&gt;Node8 -->
<g id="edge7_Node000001_Node000008" class="edge">
<title>Node1&#45;&gt;Node8</title>
<g id="a_edge7_Node000001_Node000008"><a xlink:title=" ">
<path fill="none" stroke="#63b8ff" d="M2159.52,-261.45C1821.58,-260.97 622.13,-256.49 551.5,-217 510.69,-194.19 486.19,-162.09 508.5,-121 519.53,-100.69 542.77,-87.35 560.84,-79.59"/>
<polygon fill="#63b8ff" stroke="#63b8ff" points="2159.74,-264.95 2169.75,-261.46 2159.75,-257.95 2159.74,-264.95"/>
</a>
</g>
</g>
<!-- Node9 -->
<g id="Node000009" class="node">
<title>Node9</title>
<g id="a_Node000009"><a xlink:href="StrandCoord_8cc.html" target="_top" xlink:title=" ">
<polygon fill="white" stroke="#666666" points="836.5,-79.5 682.5,-79.5 682.5,-60.5 836.5,-60.5 836.5,-79.5"/>
<text text-anchor="middle" x="759.5" y="-67.5" font-family="Helvetica,sans-Serif" font-size="10.00">squid/src/ipc/StrandCoord.cc</text>
</a>
</g>
</g>
<!-- Node1&#45;&gt;Node9 -->
<g id="edge8_Node000001_Node000009" class="edge">
<title>Node1&#45;&gt;Node9</title>
<g id="a_edge8_Node000001_Node000009"><a xlink:title=" ">
<path fill="none" stroke="#63b8ff" d="M2159.87,-261.66C1882.95,-261.74 1028.82,-258.51 755.5,-217 647.4,-200.58 584.64,-238.07 518.5,-151 510.44,-140.38 510.08,-131.34 518.5,-121 524.59,-113.52 641.9,-91.73 710.57,-79.53"/>
<polygon fill="#63b8ff" stroke="#63b8ff" points="2159.87,-265.16 2169.87,-261.66 2159.87,-258.16 2159.87,-265.16"/>
</a>
</g>
</g>
<!-- Node10 -->
<g id="Node000010" class="node">
<title>Node10</title>
<g id="a_Node000010"><a xlink:href="StrandSearch_8cc.html" target="_top" xlink:title=" ">
<polygon fill="white" stroke="#666666" points="1605.5,-211.5 1447.5,-211.5 1447.5,-192.5 1605.5,-192.5 1605.5,-211.5"/>
<text text-anchor="middle" x="1526.5" y="-199.5" font-family="Helvetica,sans-Serif" font-size="10.00">squid/src/ipc/StrandSearch.cc</text>
</a>
</g>
</g>
<!-- Node1&#45;&gt;Node10 -->
<g id="edge9_Node000001_Node000010" class="edge">
<title>Node1&#45;&gt;Node10</title>
<g id="a_edge9_Node000001_Node000010"><a xlink:title=" ">
<path fill="none" stroke="#63b8ff" d="M2159.76,-257.76C2037.36,-252 1808.52,-239.21 1614.5,-217 1601.74,-215.54 1588.01,-213.55 1575.27,-211.54"/>
<polygon fill="#63b8ff" stroke="#63b8ff" points="2159.68,-261.26 2169.83,-258.23 2160,-254.27 2159.68,-261.26"/>
</a>
</g>
</g>
<!-- Node11 -->
<g id="Node000011" class="node">
<title>Node11</title>
<g id="a_Node000011"><a xlink:href="TypedMsgHdr_8cc.html" target="_top" xlink:title=" ">
<polygon fill="white" stroke="#666666" points="1782,-211.5 1623,-211.5 1623,-192.5 1782,-192.5 1782,-211.5"/>
<text text-anchor="middle" x="1702.5" y="-199.5" font-family="Helvetica,sans-Serif" font-size="10.00">squid/src/ipc/TypedMsgHdr.cc</text>
</a>
</g>
</g>
<!-- Node1&#45;&gt;Node11 -->
<g id="edge10_Node000001_Node000011" class="edge">
<title>Node1&#45;&gt;Node11</title>
<g id="a_edge10_Node000001_Node000011"><a xlink:title=" ">
<path fill="none" stroke="#63b8ff" d="M2159.79,-254.48C2067.85,-246.76 1919.27,-233.27 1791.5,-217 1779.09,-215.42 1765.74,-213.46 1753.26,-211.51"/>
<polygon fill="#63b8ff" stroke="#63b8ff" points="2159.63,-257.98 2169.89,-255.32 2160.21,-251 2159.63,-257.98"/>
</a>
</g>
</g>
<!-- Node12 -->
<g id="Node000012" class="node">
<title>Node12</title>
<g id="a_Node000012"><a xlink:href="UdsOp_8h.html" target="_top" xlink:title=" ">
<polygon fill="white" stroke="#666666" points="886.5,-211.5 764.5,-211.5 764.5,-192.5 886.5,-192.5 886.5,-211.5"/>
<text text-anchor="middle" x="825.5" y="-199.5" font-family="Helvetica,sans-Serif" font-size="10.00">squid/src/ipc/UdsOp.h</text>
</a>
</g>
</g>
<!-- Node1&#45;&gt;Node12 -->
<g id="edge11_Node000001_Node000012" class="edge">
<title>Node1&#45;&gt;Node12</title>
<g id="a_edge11_Node000001_Node000012"><a xlink:title=" ">
<path fill="none" stroke="#63b8ff" d="M2159.77,-260.34C1901.35,-256.64 1145.81,-243.79 900.5,-217 888.91,-215.73 876.43,-213.68 865.04,-211.54"/>
<polygon fill="#63b8ff" stroke="#63b8ff" points="2159.81,-263.84 2169.86,-260.48 2159.91,-256.84 2159.81,-263.84"/>
</a>
</g>
</g>
<!-- Node28 -->
<g id="Node000028" class="node">
<title>Node28</title>
<g id="a_Node000028"><a xlink:href="InfoAction_8cc.html" target="_top" xlink:title=" ">
<polygon fill="white" stroke="#666666" points="1597,-145.5 1448,-145.5 1448,-126.5 1597,-126.5 1597,-145.5"/>
<text text-anchor="middle" x="1522.5" y="-133.5" font-family="Helvetica,sans-Serif" font-size="10.00">squid/src/mgr/InfoAction.cc</text>
</a>
</g>
</g>
<!-- Node1&#45;&gt;Node28 -->
<g id="edge40_Node000001_Node000028" class="edge">
<title>Node1&#45;&gt;Node28</title>
<g id="a_edge40_Node000001_Node000028"><a xlink:title=" ">
<path fill="none" stroke="#63b8ff" d="M2159.35,-261.84C1871.65,-262.51 976.08,-261.05 933.5,-217 924.23,-207.41 924.41,-196.76 933.5,-187 971.84,-145.83 1382.64,-157.63 1438.5,-151 1450.69,-149.55 1463.8,-147.57 1475.96,-145.56"/>
<polygon fill="#63b8ff" stroke="#63b8ff" points="2159.74,-265.34 2169.73,-261.81 2159.72,-258.34 2159.74,-265.34"/>
</a>
</g>
</g>
<!-- Node32 -->
<g id="Node000032" class="node">
<title>Node32</title>
<g id="a_Node000032"><a xlink:href="ActionParams_8cc.html" target="_top" xlink:title=" ">
<polygon fill="white" stroke="#666666" points="1966.5,-211.5 1800.5,-211.5 1800.5,-192.5 1966.5,-192.5 1966.5,-211.5"/>
<text text-anchor="middle" x="1883.5" y="-199.5" font-family="Helvetica,sans-Serif" font-size="10.00">squid/src/mgr/ActionParams.cc</text>
</a>
</g>
</g>
<!-- Node1&#45;&gt;Node32 -->
<g id="edge38_Node000001_Node000032" class="edge">
<title>Node1&#45;&gt;Node32</title>
<g id="a_edge38_Node000001_Node000032"><a xlink:title=" ">
<path fill="none" stroke="#63b8ff" d="M2184.54,-251.38C2114.42,-240.11 2002.3,-222.09 1936.49,-211.52"/>
<polygon fill="#63b8ff" stroke="#63b8ff" points="2184.14,-254.86 2194.57,-252.99 2185.25,-247.95 2184.14,-254.86"/>
</a>
</g>
</g>
<!-- Node33 -->
<g id="Node000033" class="node">
<title>Node33</title>
<g id="a_Node000033"><a xlink:href="CountersAction_8cc.html" target="_top" xlink:title=" ">
<polygon fill="white" stroke="#666666" points="2158,-211.5 1985,-211.5 1985,-192.5 2158,-192.5 2158,-211.5"/>
<text text-anchor="middle" x="2071.5" y="-199.5" font-family="Helvetica,sans-Serif" font-size="10.00">squid/src/mgr/CountersAction.cc</text>
</a>
</g>
</g>
<!-- Node1&#45;&gt;Node33 -->
<g id="edge39_Node000001_Node000033" class="edge">
<title>Node1&#45;&gt;Node33</title>
<g id="a_edge39_Node000001_Node000033"><a xlink:title=" ">
<path fill="none" stroke="#63b8ff" d="M2212.35,-249.82C2178.31,-238.5 2127.51,-221.62 2097.12,-211.52"/>
<polygon fill="#63b8ff" stroke="#63b8ff" points="2211.31,-253.16 2221.91,-252.99 2213.52,-246.52 2211.31,-253.16"/>
</a>
</g>
</g>
<!-- Node34 -->
<g id="Node000034" class="node">
<title>Node34</title>
<g id="a_Node000034"><a xlink:href="IntParam_8cc.html" target="_top" xlink:title=" ">
<polygon fill="white" stroke="#666666" points="2319,-211.5 2176,-211.5 2176,-192.5 2319,-192.5 2319,-211.5"/>
<text text-anchor="middle" x="2247.5" y="-199.5" font-family="Helvetica,sans-Serif" font-size="10.00">squid/src/mgr/IntParam.cc</text>
</a>
</g>
</g>
<!-- Node1&#45;&gt;Node34 -->
<g id="edge41_Node000001_Node000034" class="edge">
<title>Node1&#45;&gt;Node34</title>
<g id="a_edge41_Node000001_Node000034"><a xlink:title=" ">
<path fill="none" stroke="#63b8ff" d="M2247.5,-242.66C2247.5,-232.24 2247.5,-219.8 2247.5,-211.67"/>
<polygon fill="#63b8ff" stroke="#63b8ff" points="2244,-242.87 2247.5,-252.87 2251,-242.87 2244,-242.87"/>
</a>
</g>
</g>
<!-- Node35 -->
<g id="Node000035" class="node">
<title>Node35</title>
<g id="a_Node000035"><a xlink:href="IntervalAction_8cc.html" target="_top" xlink:title=" ">
<polygon fill="white" stroke="#666666" points="2504,-211.5 2337,-211.5 2337,-192.5 2504,-192.5 2504,-211.5"/>
<text text-anchor="middle" x="2420.5" y="-199.5" font-family="Helvetica,sans-Serif" font-size="10.00">squid/src/mgr/IntervalAction.cc</text>
</a>
</g>
</g>
<!-- Node1&#45;&gt;Node35 -->
<g id="edge42_Node000001_Node000035" class="edge">
<title>Node1&#45;&gt;Node35</title>
<g id="a_edge42_Node000001_Node000035"><a xlink:title=" ">
<path fill="none" stroke="#63b8ff" d="M2282.48,-249.67C2315.94,-238.36 2365.58,-221.57 2395.31,-211.52"/>
<polygon fill="#63b8ff" stroke="#63b8ff" points="2281.01,-246.47 2272.66,-252.99 2283.25,-253.11 2281.01,-246.47"/>
</a>
</g>
</g>
<!-- Node36 -->
<g id="Node000036" class="node">
<title>Node36</title>
<g id="a_Node000036"><a xlink:href="IoAction_8cc.html" target="_top" xlink:title=" ">
<polygon fill="white" stroke="#666666" points="2661,-211.5 2522,-211.5 2522,-192.5 2661,-192.5 2661,-211.5"/>
<text text-anchor="middle" x="2591.5" y="-199.5" font-family="Helvetica,sans-Serif" font-size="10.00">squid/src/mgr/IoAction.cc</text>
</a>
</g>
</g>
<!-- Node1&#45;&gt;Node36 -->
<g id="edge43_Node000001_Node000036" class="edge">
<title>Node1&#45;&gt;Node36</title>
<g id="a_edge43_Node000001_Node000036"><a xlink:title=" ">
<path fill="none" stroke="#63b8ff" d="M2309.61,-251.32C2363.54,-242.43 2443.72,-229.1 2513.5,-217 2523.53,-215.26 2534.28,-213.36 2544.49,-211.53"/>
<polygon fill="#63b8ff" stroke="#63b8ff" points="2308.82,-247.91 2299.52,-252.98 2309.96,-254.81 2308.82,-247.91"/>
</a>
</g>
</g>
<!-- Node37 -->
<g id="Node000037" class="node">
<title>Node37</title>
<g id="a_Node000037"><a xlink:href="QueryParams_8cc.html" target="_top" xlink:title=" ">
<polygon fill="white" stroke="#666666" points="2843.5,-211.5 2679.5,-211.5 2679.5,-192.5 2843.5,-192.5 2843.5,-211.5"/>
<text text-anchor="middle" x="2761.5" y="-199.5" font-family="Helvetica,sans-Serif" font-size="10.00">squid/src/mgr/QueryParams.cc</text>
</a>
</g>
</g>
<!-- Node1&#45;&gt;Node37 -->
<g id="edge44_Node000001_Node000037" class="edge">
<title>Node1&#45;&gt;Node37</title>
<g id="a_edge44_Node000001_Node000037"><a xlink:title=" ">
<path fill="none" stroke="#63b8ff" d="M2335.41,-253.49C2421.06,-245.39 2554.92,-231.96 2670.5,-217 2682.86,-215.4 2696.14,-213.47 2708.63,-211.57"/>
<polygon fill="#63b8ff" stroke="#63b8ff" points="2334.83,-250.03 2325.2,-254.45 2335.49,-257 2334.83,-250.03"/>
</a>
</g>
</g>
<!-- Node38 -->
<g id="Node000038" class="node">
<title>Node38</title>
<g id="a_Node000038"><a xlink:href="mgr_2Request_8cc.html" target="_top" xlink:title=" ">
<polygon fill="white" stroke="#666666" points="3001,-211.5 2862,-211.5 2862,-192.5 3001,-192.5 3001,-211.5"/>
<text text-anchor="middle" x="2931.5" y="-199.5" font-family="Helvetica,sans-Serif" font-size="10.00">squid/src/mgr/Request.cc</text>
</a>
</g>
</g>
<!-- Node1&#45;&gt;Node38 -->
<g id="edge45_Node000001_Node000038" class="edge">
<title>Node1&#45;&gt;Node38</title>
<g id="a_edge45_Node000001_Node000038"><a xlink:title=" ">
<path fill="none" stroke="#63b8ff" d="M2335.17,-257.86C2453.1,-252.32 2669.21,-239.92 2852.5,-217 2864.11,-215.55 2876.61,-213.54 2888.16,-211.5"/>
<polygon fill="#63b8ff" stroke="#63b8ff" points="2334.93,-254.37 2325.11,-258.33 2335.26,-261.36 2334.93,-254.37"/>
</a>
</g>
</g>
<!-- Node39 -->
<g id="Node000039" class="node">
<title>Node39</title>
<g id="a_Node000039"><a xlink:href="mgr_2Response_8cc.html" target="_top" xlink:title=" ">
<polygon fill="white" stroke="#666666" points="3165.5,-211.5 3019.5,-211.5 3019.5,-192.5 3165.5,-192.5 3165.5,-211.5"/>
<text text-anchor="middle" x="3092.5" y="-199.5" font-family="Helvetica,sans-Serif" font-size="10.00">squid/src/mgr/Response.cc</text>
</a>
</g>
</g>
<!-- Node1&#45;&gt;Node39 -->
<g id="edge46_Node000001_Node000039" class="edge">
<title>Node1&#45;&gt;Node39</title>
<g id="a_edge46_Node000001_Node000039"><a xlink:title=" ">
<path fill="none" stroke="#63b8ff" d="M2335.59,-259.53C2477.91,-255.64 2767.1,-244.79 3010.5,-217 3022.7,-215.61 3035.83,-213.6 3047.94,-211.53"/>
<polygon fill="#63b8ff" stroke="#63b8ff" points="2335.09,-256.04 2325.18,-259.81 2335.27,-263.04 2335.09,-256.04"/>
</a>
</g>
</g>
<!-- Node40 -->
<g id="Node000040" class="node">
<title>Node40</title>
<g id="a_Node000040"><a xlink:href="ServiceTimesAction_8cc.html" target="_top" xlink:title=" ">
<polygon fill="white" stroke="#666666" points="3335.5,-217 3183.5,-217 3183.5,-187 3335.5,-187 3335.5,-217"/>
<text text-anchor="start" x="3191.5" y="-205" font-family="Helvetica,sans-Serif" font-size="10.00">squid/src/mgr/ServiceTimes</text>
<text text-anchor="middle" x="3259.5" y="-194" font-family="Helvetica,sans-Serif" font-size="10.00">Action.cc</text>
</a>
</g>
</g>
<!-- Node1&#45;&gt;Node40 -->
<g id="edge47_Node000001_Node000040" class="edge">
<title>Node1&#45;&gt;Node40</title>
<g id="a_edge47_Node000001_Node000040"><a xlink:title=" ">
<path fill="none" stroke="#63b8ff" d="M2335.34,-260.65C2500.26,-258.31 2867.29,-249.56 3174.5,-217 3177.33,-216.7 3180.2,-216.37 3183.1,-216.01"/>
<polygon fill="#63b8ff" stroke="#63b8ff" points="2335.2,-257.15 2325.25,-260.79 2335.3,-264.15 2335.2,-257.15"/>
</a>
</g>
</g>
<!-- Node41 -->
<g id="Node000041" class="node">
<title>Node41</title>
<g id="a_Node000041"><a xlink:href="StoreIoAction_8cc.html" target="_top" xlink:title=" ">
<polygon fill="white" stroke="#666666" points="3517.5,-211.5 3353.5,-211.5 3353.5,-192.5 3517.5,-192.5 3517.5,-211.5"/>
<text text-anchor="middle" x="3435.5" y="-199.5" font-family="Helvetica,sans-Serif" font-size="10.00">squid/src/mgr/StoreIoAction.cc</text>
</a>
</g>
</g>
<!-- Node1&#45;&gt;Node41 -->
<g id="edge48_Node000001_Node000041" class="edge">
<title>Node1&#45;&gt;Node41</title>
<g id="a_edge48_Node000001_Node000041"><a xlink:title=" ">
<path fill="none" stroke="#63b8ff" d="M2335.19,-261.27C2521.49,-260.06 2970.29,-253.26 3344.5,-217 3358.18,-215.67 3372.94,-213.66 3386.51,-211.57"/>
<polygon fill="#63b8ff" stroke="#63b8ff" points="2335.16,-257.77 2325.18,-261.34 2335.2,-264.77 2335.16,-257.77"/>
</a>
</g>
</g>
<!-- Node42 -->
<g id="Node000042" class="node">
<title>Node42</title>
<g id="a_Node000042"><a xlink:href="StringParam_8cc.html" target="_top" xlink:title=" ">
<polygon fill="white" stroke="#666666" points="3693.5,-211.5 3535.5,-211.5 3535.5,-192.5 3693.5,-192.5 3693.5,-211.5"/>
<text text-anchor="middle" x="3614.5" y="-199.5" font-family="Helvetica,sans-Serif" font-size="10.00">squid/src/mgr/StringParam.cc</text>
</a>
</g>
</g>
<!-- Node1&#45;&gt;Node42 -->
<g id="edge49_Node000001_Node000042" class="edge">
<title>Node1&#45;&gt;Node42</title>
<g id="a_edge49_Node000001_Node000042"><a xlink:title=" ">
<path fill="none" stroke="#63b8ff" d="M2335.45,-262.16C2543.2,-262.9 3080.39,-260.08 3526.5,-217 3539.9,-215.71 3554.35,-213.67 3567.6,-211.56"/>
<polygon fill="#63b8ff" stroke="#63b8ff" points="2335.23,-258.66 2325.21,-262.12 2335.2,-265.66 2335.23,-258.66"/>
</a>
</g>
</g>
<!-- Node43 -->
<g id="Node000043" class="node">
<title>Node43</title>
<g id="a_Node000043"><a xlink:href="Pdu_8cc.html" target="_top" xlink:title=" ">
<polygon fill="white" stroke="#666666" points="3836,-211.5 3711,-211.5 3711,-192.5 3836,-192.5 3836,-211.5"/>
<text text-anchor="middle" x="3773.5" y="-199.5" font-family="Helvetica,sans-Serif" font-size="10.00">squid/src/snmp/Pdu.cc</text>
</a>
</g>
</g>
<!-- Node1&#45;&gt;Node43 -->
<g id="edge50_Node000001_Node000043" class="edge">
<title>Node1&#45;&gt;Node43</title>
<g id="a_edge50_Node000001_Node000043"><a xlink:title=" ">
<path fill="none" stroke="#63b8ff" d="M2335.6,-260.7C2608.19,-257.93 3435.51,-247.2 3702.5,-217 3713.49,-215.76 3725.31,-213.71 3736.09,-211.57"/>
<polygon fill="#63b8ff" stroke="#63b8ff" points="2335.33,-257.2 2325.36,-260.8 2335.4,-264.2 2335.33,-257.2"/>
</a>
</g>
</g>
<!-- Node44 -->
<g id="Node000044" class="node">
<title>Node44</title>
<g id="a_Node000044"><a xlink:href="snmp_2Request_8cc.html" target="_top" xlink:title=" ">
<polygon fill="white" stroke="#666666" points="4000.5,-211.5 3854.5,-211.5 3854.5,-192.5 4000.5,-192.5 4000.5,-211.5"/>
<text text-anchor="middle" x="3927.5" y="-199.5" font-family="Helvetica,sans-Serif" font-size="10.00">squid/src/snmp/Request.cc</text>
</a>
</g>
</g>
<!-- Node1&#45;&gt;Node44 -->
<g id="edge51_Node000001_Node000044" class="edge">
<title>Node1&#45;&gt;Node44</title>
<g id="a_edge51_Node000001_Node000044"><a xlink:title=" ">
<path fill="none" stroke="#63b8ff" d="M2335.19,-260.69C2624.75,-257.76 3548.83,-246.31 3845.5,-217 3858.15,-215.75 3871.79,-213.71 3884.25,-211.56"/>
<polygon fill="#63b8ff" stroke="#63b8ff" points="2335.12,-257.19 2325.15,-260.79 2335.19,-264.19 2335.12,-257.19"/>
</a>
</g>
</g>
<!-- Node45 -->
<g id="Node000045" class="node">
<title>Node45</title>
<g id="a_Node000045"><a xlink:href="snmp_2Response_8cc.html" target="_top" xlink:title=" ">
<polygon fill="white" stroke="#666666" points="4172.5,-211.5 4018.5,-211.5 4018.5,-192.5 4172.5,-192.5 4172.5,-211.5"/>
<text text-anchor="middle" x="4095.5" y="-199.5" font-family="Helvetica,sans-Serif" font-size="10.00">squid/src/snmp/Response.cc</text>
</a>
</g>
</g>
<!-- Node1&#45;&gt;Node45 -->
<g id="edge52_Node000001_Node000045" class="edge">
<title>Node1&#45;&gt;Node45</title>
<g id="a_edge52_Node000001_Node000045"><a xlink:title=" ">
<path fill="none" stroke="#63b8ff" d="M2335.35,-260.87C2644.18,-258.39 3679.16,-247.91 4009.5,-217 4022.75,-215.76 4037.06,-213.72 4050.12,-211.57"/>
<polygon fill="#63b8ff" stroke="#63b8ff" points="2335.08,-257.37 2325.11,-260.95 2335.13,-264.37 2335.08,-257.37"/>
</a>
</g>
</g>
<!-- Node46 -->
<g id="Node000046" class="node">
<title>Node46</title>
<g id="a_Node000046"><a xlink:href="snmp_2Session_8cc.html" target="_top" xlink:title=" ">
<polygon fill="white" stroke="#666666" points="4334.5,-211.5 4190.5,-211.5 4190.5,-192.5 4334.5,-192.5 4334.5,-211.5"/>
<text text-anchor="middle" x="4262.5" y="-199.5" font-family="Helvetica,sans-Serif" font-size="10.00">squid/src/snmp/Session.cc</text>
</a>
</g>
</g>
<!-- Node1&#45;&gt;Node46 -->
<g id="edge53_Node000001_Node000046" class="edge">
<title>Node1&#45;&gt;Node46</title>
<g id="a_edge53_Node000001_Node000046"><a xlink:title=" ">
<path fill="none" stroke="#63b8ff" d="M2335.48,-261.21C2663.63,-259.85 3815.99,-252.59 4181.5,-217 4194.14,-215.77 4207.78,-213.7 4220.2,-211.53"/>
<polygon fill="#63b8ff" stroke="#63b8ff" points="2335.07,-257.71 2325.09,-261.25 2335.1,-264.71 2335.07,-257.71"/>
</a>
</g>
</g>
<!-- Node47 -->
<g id="Node000047" class="node">
<title>Node47</title>
<g id="a_Node000047"><a xlink:href="Var_8cc.html" target="_top" xlink:title=" ">
<polygon fill="white" stroke="#666666" points="4474.5,-211.5 4352.5,-211.5 4352.5,-192.5 4474.5,-192.5 4474.5,-211.5"/>
<text text-anchor="middle" x="4413.5" y="-199.5" font-family="Helvetica,sans-Serif" font-size="10.00">squid/src/snmp/Var.cc</text>
</a>
</g>
</g>
<!-- Node1&#45;&gt;Node47 -->
<g id="edge54_Node000001_Node000047" class="edge">
<title>Node1&#45;&gt;Node47</title>
<g id="a_edge54_Node000001_Node000047"><a xlink:title=" ">
<path fill="none" stroke="#63b8ff" d="M2335.29,-261.7C2680.49,-262.15 3945.03,-260.73 4343.5,-217 4354.46,-215.8 4366.27,-213.74 4377,-211.56"/>
<polygon fill="#63b8ff" stroke="#63b8ff" points="2335.11,-258.2 2325.11,-261.68 2335.1,-265.2 2335.11,-258.2"/>
</a>
</g>
</g>
<!-- Node48 -->
<g id="Node000048" class="node">
<title>Node48</title>
<g id="a_Node000048"><a xlink:href="stub__ipc__TypedMsgHdr_8cc.html" target="_top" xlink:title=" ">
<polygon fill="white" stroke="#666666" points="4612.5,-217 4492.5,-217 4492.5,-187 4612.5,-187 4612.5,-217"/>
<text text-anchor="start" x="4500.5" y="-205" font-family="Helvetica,sans-Serif" font-size="10.00">squid/src/tests/stub</text>
<text text-anchor="middle" x="4552.5" y="-194" font-family="Helvetica,sans-Serif" font-size="10.00">_ipc_TypedMsgHdr.cc</text>
</a>
</g>
</g>
<!-- Node1&#45;&gt;Node48 -->
<g id="edge55_Node000001_Node000048" class="edge">
<title>Node1&#45;&gt;Node48</title>
<g id="a_edge55_Node000001_Node000048"><a xlink:title=" ">
<path fill="none" stroke="#63b8ff" d="M2335.12,-261.87C2694.41,-263.04 4056.1,-264.22 4483.5,-217 4486.42,-216.68 4489.39,-216.29 4492.39,-215.86"/>
<polygon fill="#63b8ff" stroke="#63b8ff" points="2335.05,-258.37 2325.03,-261.83 2335.02,-265.37 2335.05,-258.37"/>
</a>
</g>
</g>
<!-- Node13 -->
<g id="Node000013" class="node">
<title>Node13</title>
<g id="a_Node000013"><a xlink:href="IpcIoFile_8cc.html" target="_top" xlink:title=" ">
<polygon fill="white" stroke="#666666" points="976.5,-85 854.5,-85 854.5,-55 976.5,-55 976.5,-85"/>
<text text-anchor="start" x="862.5" y="-73" font-family="Helvetica,sans-Serif" font-size="10.00">squid/src/DiskIO/IpcIo</text>
<text text-anchor="middle" x="915.5" y="-62" font-family="Helvetica,sans-Serif" font-size="10.00">/IpcIoFile.cc</text>
</a>
</g>
</g>
<!-- Node12&#45;&gt;Node13 -->
<g id="edge12_Node000012_Node000013" class="edge">
<title>Node12&#45;&gt;Node13</title>
<g id="a_edge12_Node000012_Node000013"><a xlink:title=" ">
<path fill="none" stroke="#63b8ff" d="M873.07,-189.82C908.25,-180.47 951.83,-166.25 962.5,-151 977.92,-128.96 953.22,-101.63 934.18,-85.29"/>
<polygon fill="#63b8ff" stroke="#63b8ff" points="871.74,-186.55 862.93,-192.44 873.49,-193.32 871.74,-186.55"/>
</a>
</g>
</g>
<!-- Node14 -->
<g id="Node000014" class="node">
<title>Node14</title>
<g id="a_Node000014"><a xlink:href="Port_8h.html" target="_top" xlink:title=" ">
<polygon fill="white" stroke="#666666" points="1120,-145.5 1011,-145.5 1011,-126.5 1120,-126.5 1120,-145.5"/>
<text text-anchor="middle" x="1065.5" y="-133.5" font-family="Helvetica,sans-Serif" font-size="10.00">squid/src/ipc/Port.h</text>
</a>
</g>
</g>
<!-- Node12&#45;&gt;Node14 -->
<g id="edge13_Node000012_Node000014" class="edge">
<title>Node12&#45;&gt;Node14</title>
<g id="a_edge13_Node000012_Node000014"><a xlink:title=" ">
<path fill="none" stroke="#63b8ff" d="M867.79,-189.72C915.05,-177.12 990.54,-156.99 1033.26,-145.6"/>
<polygon fill="#63b8ff" stroke="#63b8ff" points="866.63,-186.41 857.87,-192.37 868.43,-193.17 866.63,-186.41"/>
</a>
</g>
</g>
<!-- Node26 -->
<g id="Node000026" class="node">
<title>Node26</title>
<g id="a_Node000026"><a xlink:href="UdsOp_8cc.html" target="_top" xlink:title=" ">
<polygon fill="white" stroke="#666666" points="1264.5,-145.5 1138.5,-145.5 1138.5,-126.5 1264.5,-126.5 1264.5,-145.5"/>
<text text-anchor="middle" x="1201.5" y="-133.5" font-family="Helvetica,sans-Serif" font-size="10.00">squid/src/ipc/UdsOp.cc</text>
</a>
</g>
</g>
<!-- Node12&#45;&gt;Node26 -->
<g id="edge32_Node000012_Node000026" class="edge">
<title>Node12&#45;&gt;Node26</title>
<g id="a_edge32_Node000012_Node000026"><a xlink:title=" ">
<path fill="none" stroke="#63b8ff" d="M880.2,-190.61C887.03,-189.36 893.92,-188.13 900.5,-187 1001.6,-169.59 1027.44,-168.66 1128.5,-151 1138.16,-149.31 1148.52,-147.39 1158.31,-145.53"/>
<polygon fill="#63b8ff" stroke="#63b8ff" points="879.48,-187.18 870.28,-192.43 880.75,-194.06 879.48,-187.18"/>
</a>
</g>
</g>
<!-- Node27 -->
<g id="Node000027" class="node">
<title>Node27</title>
<g id="a_Node000027"><a xlink:href="FunAction_8cc.html" target="_top" xlink:title=" ">
<polygon fill="white" stroke="#666666" points="1430,-145.5 1283,-145.5 1283,-126.5 1430,-126.5 1430,-145.5"/>
<text text-anchor="middle" x="1356.5" y="-133.5" font-family="Helvetica,sans-Serif" font-size="10.00">squid/src/mgr/FunAction.cc</text>
</a>
</g>
</g>
<!-- Node12&#45;&gt;Node27 -->
<g id="edge33_Node000012_Node000027" class="edge">
<title>Node12&#45;&gt;Node27</title>
<g id="a_edge33_Node000012_Node000027"><a xlink:title=" ">
<path fill="none" stroke="#63b8ff" d="M877.44,-190.69C885.15,-189.34 893.02,-188.06 900.5,-187 1065.41,-163.7 1108.39,-172.86 1273.5,-151 1285.23,-149.45 1297.85,-147.47 1309.62,-145.5"/>
<polygon fill="#63b8ff" stroke="#63b8ff" points="876.66,-187.27 867.44,-192.5 877.9,-194.16 876.66,-187.27"/>
</a>
</g>
</g>
<!-- Node12&#45;&gt;Node28 -->
<g id="edge34_Node000012_Node000028" class="edge">
<title>Node12&#45;&gt;Node28</title>
<g id="a_edge34_Node000012_Node000028"><a xlink:title=" ">
<path fill="none" stroke="#63b8ff" d="M876.3,-190.68C884.37,-189.28 892.65,-187.99 900.5,-187 1138.26,-156.96 1200.46,-178.73 1438.5,-151 1450.84,-149.56 1464.12,-147.56 1476.4,-145.52"/>
<polygon fill="#63b8ff" stroke="#63b8ff" points="875.46,-187.28 866.23,-192.49 876.7,-194.17 875.46,-187.28"/>
</a>
</g>
</g>
<!-- Node29 -->
<g id="Node000029" class="node">
<title>Node29</title>
<g id="a_Node000029"><a xlink:href="mgr_2Inquirer_8cc.html" target="_top" xlink:title=" ">
<polygon fill="white" stroke="#666666" points="663.5,-145.5 527.5,-145.5 527.5,-126.5 663.5,-126.5 663.5,-145.5"/>
<text text-anchor="middle" x="595.5" y="-133.5" font-family="Helvetica,sans-Serif" font-size="10.00">squid/src/mgr/Inquirer.cc</text>
</a>
</g>
</g>
<!-- Node12&#45;&gt;Node29 -->
<g id="edge35_Node000012_Node000029" class="edge">
<title>Node12&#45;&gt;Node29</title>
<g id="a_edge35_Node000012_Node000029"><a xlink:title=" ">
<path fill="none" stroke="#63b8ff" d="M784.69,-189.64C739.37,-177.03 667.25,-156.97 626.39,-145.6"/>
<polygon fill="#63b8ff" stroke="#63b8ff" points="783.91,-193.06 794.48,-192.37 785.79,-186.32 783.91,-193.06"/>
</a>
</g>
</g>
<!-- Node30 -->
<g id="Node000030" class="node">
<title>Node30</title>
<g id="a_Node000030"><a xlink:href="snmp_2Inquirer_8cc.html" target="_top" xlink:title=" ">
<polygon fill="white" stroke="#666666" points="825,-145.5 682,-145.5 682,-126.5 825,-126.5 825,-145.5"/>
<text text-anchor="middle" x="753.5" y="-133.5" font-family="Helvetica,sans-Serif" font-size="10.00">squid/src/snmp/Inquirer.cc</text>
</a>
</g>
</g>
<!-- Node12&#45;&gt;Node30 -->
<g id="edge36_Node000012_Node000030" class="edge">
<title>Node12&#45;&gt;Node30</title>
<g id="a_edge36_Node000012_Node000030"><a xlink:title=" ">
<path fill="none" stroke="#63b8ff" d="M808.26,-185.68C794.29,-173.26 775.08,-156.18 763.52,-145.91"/>
<polygon fill="#63b8ff" stroke="#63b8ff" points="805.99,-188.34 815.79,-192.37 810.64,-183.11 805.99,-188.34"/>
</a>
</g>
</g>
<!-- Node31 -->
<g id="Node000031" class="node">
<title>Node31</title>
<g id="a_Node000031"><a xlink:href="stub__UdsOp_8cc.html" target="_top" xlink:title=" ">
<polygon fill="white" stroke="#666666" points="954,-151 843,-151 843,-121 954,-121 954,-151"/>
<text text-anchor="start" x="851" y="-139" font-family="Helvetica,sans-Serif" font-size="10.00">squid/src/tests/stub</text>
<text text-anchor="middle" x="898.5" y="-128" font-family="Helvetica,sans-Serif" font-size="10.00">_UdsOp.cc</text>
</a>
</g>
</g>
<!-- Node12&#45;&gt;Node31 -->
<g id="edge37_Node000012_Node000031" class="edge">
<title>Node12&#45;&gt;Node31</title>
<g id="a_edge37_Node000012_Node000031"><a xlink:title=" ">
<path fill="none" stroke="#63b8ff" d="M842.94,-185.71C854.92,-175.21 870.71,-161.36 882.4,-151.12"/>
<polygon fill="#63b8ff" stroke="#63b8ff" points="840.56,-183.14 835.35,-192.37 845.17,-188.41 840.56,-183.14"/>
</a>
</g>
</g>
<!-- Node14&#45;&gt;Node2 -->
<g id="edge14_Node000014_Node000002" class="edge">
<title>Node14&#45;&gt;Node2</title>
<g id="a_edge14_Node000014_Node000002"><a xlink:title=" ">
<path fill="none" stroke="#63b8ff" d="M1000.79,-125.31C988.12,-123.67 974.91,-122.13 962.5,-121 619.55,-89.78 531.37,-117.15 188.5,-85 173.72,-83.61 157.77,-81.59 143.08,-79.51"/>
<polygon fill="#63b8ff" stroke="#63b8ff" points="1000.44,-128.8 1010.81,-126.65 1001.36,-121.86 1000.44,-128.8"/>
</a>
</g>
</g>
<!-- Node14&#45;&gt;Node5 -->
<g id="edge20_Node000014_Node000005" class="edge">
<title>Node14&#45;&gt;Node5</title>
<g id="a_edge20_Node000014_Node000005"><a xlink:title=" ">
<path fill="none" stroke="#63b8ff" d="M1000.78,-125.43C988.11,-123.78 974.9,-122.2 962.5,-121 690.42,-94.57 620.02,-116.61 348.5,-85 336.6,-83.61 323.78,-81.6 311.96,-79.54"/>
<polygon fill="#63b8ff" stroke="#63b8ff" points="1000.42,-128.92 1010.8,-126.77 1001.35,-121.98 1000.42,-128.92"/>
</a>
</g>
</g>
<!-- Node14&#45;&gt;Node6 -->
<g id="edge21_Node000014_Node000006" class="edge">
<title>Node14&#45;&gt;Node6</title>
<g id="a_edge21_Node000014_Node000006"><a xlink:title=" ">
<path fill="none" stroke="#63b8ff" d="M1000.76,-125.62C988.09,-123.95 974.89,-122.32 962.5,-121 756.38,-99.03 702.98,-112.31 497.5,-85 486.61,-83.55 474.9,-81.55 464.08,-79.51"/>
<polygon fill="#63b8ff" stroke="#63b8ff" points="1000.4,-129.1 1010.78,-126.96 1001.34,-122.16 1000.4,-129.1"/>
</a>
</g>
</g>
<!-- Node14&#45;&gt;Node8 -->
<g id="edge23_Node000014_Node000008" class="edge">
<title>Node14&#45;&gt;Node8</title>
<g id="a_edge23_Node000014_Node000008"><a xlink:title=" ">
<path fill="none" stroke="#63b8ff" d="M1000.92,-126.11C988.19,-124.39 974.93,-122.62 962.5,-121 834.15,-104.28 801.66,-103.17 673.5,-85 661.71,-83.33 649.05,-81.39 637.11,-79.51"/>
<polygon fill="#63b8ff" stroke="#63b8ff" points="1000.61,-129.6 1010.99,-127.48 1001.55,-122.66 1000.61,-129.6"/>
</a>
</g>
</g>
<!-- Node14&#45;&gt;Node9 -->
<g id="edge27_Node000014_Node000009" class="edge">
<title>Node14&#45;&gt;Node9</title>
<g id="a_edge27_Node000014_Node000009"><a xlink:title=" ">
<path fill="none" stroke="#63b8ff" d="M1014.51,-124.34C954.34,-111.75 855.5,-91.08 800.21,-79.51"/>
<polygon fill="#63b8ff" stroke="#63b8ff" points="1014.04,-127.81 1024.55,-126.44 1015.48,-120.96 1014.04,-127.81"/>
</a>
</g>
</g>
<!-- Node14&#45;&gt;Node13 -->
<g id="edge15_Node000014_Node000013" class="edge">
<title>Node14&#45;&gt;Node13</title>
<g id="a_edge15_Node000014_Node000013"><a xlink:title=" ">
<path fill="none" stroke="#63b8ff" d="M1035.88,-122.36C1010.73,-111.63 974.67,-96.25 948.58,-85.12"/>
<polygon fill="#63b8ff" stroke="#63b8ff" points="1034.7,-125.66 1045.27,-126.37 1037.45,-119.23 1034.7,-125.66"/>
</a>
</g>
</g>
<!-- Node15 -->
<g id="Node000015" class="node">
<title>Node15</title>
<g id="a_Node000015"><a xlink:href="Coordinator_8h.html" target="_top" xlink:title=" ">
<polygon fill="white" stroke="#666666" points="1608.5,-79.5 1462.5,-79.5 1462.5,-60.5 1608.5,-60.5 1608.5,-79.5"/>
<text text-anchor="middle" x="1535.5" y="-67.5" font-family="Helvetica,sans-Serif" font-size="10.00">squid/src/ipc/Coordinator.h</text>
</a>
</g>
</g>
<!-- Node14&#45;&gt;Node15 -->
<g id="edge16_Node000014_Node000015" class="edge">
<title>Node14&#45;&gt;Node15</title>
<g id="a_edge16_Node000014_Node000015"><a xlink:title=" ">
<path fill="none" stroke="#63b8ff" d="M1111.35,-124.37C1117.43,-123.13 1123.6,-121.97 1129.5,-121 1272.03,-97.53 1309.45,-105.02 1452.5,-85 1463.93,-83.4 1476.21,-81.45 1487.73,-79.53"/>
<polygon fill="#63b8ff" stroke="#63b8ff" points="1110.32,-121.01 1101.25,-126.49 1111.76,-127.86 1110.32,-121.01"/>
</a>
</g>
</g>
<!-- Node19 -->
<g id="Node000019" class="node">
<title>Node19</title>
<g id="a_Node000019"><a xlink:href="Port_8cc.html" target="_top" xlink:title=" ">
<polygon fill="white" stroke="#666666" points="1879,-79.5 1766,-79.5 1766,-60.5 1879,-60.5 1879,-79.5"/>
<text text-anchor="middle" x="1822.5" y="-67.5" font-family="Helvetica,sans-Serif" font-size="10.00">squid/src/ipc/Port.cc</text>
</a>
</g>
</g>
<!-- Node14&#45;&gt;Node19 -->
<g id="edge22_Node000014_Node000019" class="edge">
<title>Node14&#45;&gt;Node19</title>
<g id="a_edge22_Node000014_Node000019"><a xlink:title=" ">
<path fill="none" stroke="#63b8ff" d="M1109.95,-124.33C1116.47,-123.04 1123.14,-121.87 1129.5,-121 1406.48,-83.01 1480.46,-122.55 1757.5,-85 1767.34,-83.67 1777.9,-81.65 1787.59,-79.56"/>
<polygon fill="#63b8ff" stroke="#63b8ff" points="1108.94,-120.97 1099.86,-126.44 1110.37,-127.82 1108.94,-120.97"/>
</a>
</g>
</g>
<!-- Node20 -->
<g id="Node000020" class="node">
<title>Node20</title>
<g id="a_Node000020"><a xlink:href="Strand_8h.html" target="_top" xlink:title=" ">
<polygon fill="white" stroke="#666666" points="1748,-79.5 1627,-79.5 1627,-60.5 1748,-60.5 1748,-79.5"/>
<text text-anchor="middle" x="1687.5" y="-67.5" font-family="Helvetica,sans-Serif" font-size="10.00">squid/src/ipc/Strand.h</text>
</a>
</g>
</g>
<!-- Node14&#45;&gt;Node20 -->
<g id="edge24_Node000014_Node000020" class="edge">
<title>Node14&#45;&gt;Node20</title>
<g id="a_edge24_Node000014_Node000020"><a xlink:title=" ">
<path fill="none" stroke="#63b8ff" d="M1110.19,-124.38C1116.64,-123.09 1123.22,-121.91 1129.5,-121 1344.71,-89.68 1402.02,-114.38 1617.5,-85 1627.82,-83.59 1638.9,-81.6 1649.13,-79.56"/>
<polygon fill="#63b8ff" stroke="#63b8ff" points="1109.28,-120.99 1100.21,-126.47 1110.72,-127.85 1109.28,-120.99"/>
</a>
</g>
</g>
<!-- Node22 -->
<g id="Node000022" class="node">
<title>Node22</title>
<g id="a_Node000022"><a xlink:href="Action_8cc.html" target="_top" xlink:title=" ">
<polygon fill="white" stroke="#666666" points="2027.5,-79.5 1897.5,-79.5 1897.5,-60.5 2027.5,-60.5 2027.5,-79.5"/>
<text text-anchor="middle" x="1962.5" y="-67.5" font-family="Helvetica,sans-Serif" font-size="10.00">squid/src/mgr/Action.cc</text>
</a>
</g>
</g>
<!-- Node14&#45;&gt;Node22 -->
<g id="edge28_Node000014_Node000022" class="edge">
<title>Node14&#45;&gt;Node22</title>
<g id="a_edge28_Node000014_Node000022"><a xlink:title=" ">
<path fill="none" stroke="#63b8ff" d="M1109.71,-124.32C1116.31,-123.02 1123.06,-121.85 1129.5,-121 1464.3,-76.76 1553.1,-124.49 1888.5,-85 1899.8,-83.67 1911.96,-81.63 1923.1,-79.51"/>
<polygon fill="#63b8ff" stroke="#63b8ff" points="1108.6,-120.98 1099.52,-126.45 1110.03,-127.83 1108.6,-120.98"/>
</a>
</g>
</g>
<!-- Node23 -->
<g id="Node000023" class="node">
<title>Node23</title>
<g id="a_Node000023"><a xlink:href="mgr_2Forwarder_8cc.html" target="_top" xlink:title=" ">
<polygon fill="white" stroke="#666666" points="1142,-79.5 995,-79.5 995,-60.5 1142,-60.5 1142,-79.5"/>
<text text-anchor="middle" x="1068.5" y="-67.5" font-family="Helvetica,sans-Serif" font-size="10.00">squid/src/mgr/Forwarder.cc</text>
</a>
</g>
</g>
<!-- Node14&#45;&gt;Node23 -->
<g id="edge29_Node000014_Node000023" class="edge">
<title>Node14&#45;&gt;Node23</title>
<g id="a_edge29_Node000014_Node000023"><a xlink:title=" ">
<path fill="none" stroke="#63b8ff" d="M1066.39,-116.08C1066.95,-104.13 1067.65,-89.22 1068.08,-79.91"/>
<polygon fill="#63b8ff" stroke="#63b8ff" points="1062.88,-116.22 1065.9,-126.37 1069.87,-116.54 1062.88,-116.22"/>
</a>
</g>
</g>
<!-- Node24 -->
<g id="Node000024" class="node">
<title>Node24</title>
<g id="a_Node000024"><a xlink:href="snmp_2Forwarder_8cc.html" target="_top" xlink:title=" ">
<polygon fill="white" stroke="#666666" points="1315,-79.5 1160,-79.5 1160,-60.5 1315,-60.5 1315,-79.5"/>
<text text-anchor="middle" x="1237.5" y="-67.5" font-family="Helvetica,sans-Serif" font-size="10.00">squid/src/snmp/Forwarder.cc</text>
</a>
</g>
</g>
<!-- Node14&#45;&gt;Node24 -->
<g id="edge30_Node000014_Node000024" class="edge">
<title>Node14&#45;&gt;Node24</title>
<g id="a_edge30_Node000014_Node000024"><a xlink:title=" ">
<path fill="none" stroke="#63b8ff" d="M1098.18,-122.84C1132.16,-110.2 1184.48,-90.73 1214.4,-79.6"/>
<polygon fill="#63b8ff" stroke="#63b8ff" points="1096.85,-119.6 1088.7,-126.37 1099.29,-126.16 1096.85,-119.6"/>
</a>
</g>
</g>
<!-- Node25 -->
<g id="Node000025" class="node">
<title>Node25</title>
<g id="a_Node000025"><a xlink:href="stub__Port_8cc.html" target="_top" xlink:title=" ">
<polygon fill="white" stroke="#666666" points="1444,-85 1333,-85 1333,-55 1444,-55 1444,-85"/>
<text text-anchor="start" x="1341" y="-73" font-family="Helvetica,sans-Serif" font-size="10.00">squid/src/tests/stub</text>
<text text-anchor="middle" x="1388.5" y="-62" font-family="Helvetica,sans-Serif" font-size="10.00">_Port.cc</text>
</a>
</g>
</g>
<!-- Node14&#45;&gt;Node25 -->
<g id="edge31_Node000014_Node000025" class="edge">
<title>Node14&#45;&gt;Node25</title>
<g id="a_edge31_Node000014_Node000025"><a xlink:title=" ">
<path fill="none" stroke="#63b8ff" d="M1113.79,-124.26C1119.09,-123.14 1124.4,-122.03 1129.5,-121 1215.46,-103.63 1237.52,-102.23 1323.5,-85 1326.56,-84.39 1329.69,-83.75 1332.85,-83.1"/>
<polygon fill="#63b8ff" stroke="#63b8ff" points="1112.74,-120.91 1103.7,-126.44 1114.21,-127.75 1112.74,-120.91"/>
</a>
</g>
</g>
<!-- Node16 -->
<g id="Node000016" class="node">
<title>Node16</title>
<g id="a_Node000016"><a xlink:href="Coordinator_8cc.html" target="_top" xlink:title=" ">
<polygon fill="white" stroke="#666666" points="1466.5,-19 1316.5,-19 1316.5,0 1466.5,0 1466.5,-19"/>
<text text-anchor="middle" x="1391.5" y="-7" font-family="Helvetica,sans-Serif" font-size="10.00">squid/src/ipc/Coordinator.cc</text>
</a>
</g>
</g>
<!-- Node15&#45;&gt;Node16 -->
<g id="edge17_Node000015_Node000016" class="edge">
<title>Node15&#45;&gt;Node16</title>
<g id="a_edge17_Node000015_Node000016"><a xlink:title=" ">
<path fill="none" stroke="#63b8ff" d="M1504.93,-56.58C1477.11,-45.28 1436.79,-28.9 1412.46,-19.02"/>
<polygon fill="#63b8ff" stroke="#63b8ff" points="1503.98,-59.97 1514.56,-60.49 1506.61,-53.49 1503.98,-59.97"/>
</a>
</g>
</g>
<!-- Node17 -->
<g id="Node000017" class="node">
<title>Node17</title>
<g id="a_Node000017"><a xlink:href="main_8cc.html" target="_top" xlink:title=" ">
<polygon fill="white" stroke="#666666" points="1705,-19 1604,-19 1604,0 1705,0 1705,-19"/>
<text text-anchor="middle" x="1654.5" y="-7" font-family="Helvetica,sans-Serif" font-size="10.00">squid/src/main.cc</text>
</a>
</g>
</g>
<!-- Node15&#45;&gt;Node17 -->
<g id="edge18_Node000015_Node000017" class="edge">
<title>Node15&#45;&gt;Node17</title>
<g id="a_edge18_Node000015_Node000017"><a xlink:title=" ">
<path fill="none" stroke="#63b8ff" d="M1561.98,-55.98C1584.91,-44.71 1617.43,-28.73 1637.18,-19.02"/>
<polygon fill="#63b8ff" stroke="#63b8ff" points="1560.23,-52.94 1552.8,-60.49 1563.32,-59.22 1560.23,-52.94"/>
</a>
</g>
</g>
<!-- Node18 -->
<g id="Node000018" class="node">
<title>Node18</title>
<g id="a_Node000018"><a xlink:href="tools_8cc.html" target="_top" xlink:title=" ">
<polygon fill="white" stroke="#666666" points="1586,-19 1485,-19 1485,0 1586,0 1586,-19"/>
<text text-anchor="middle" x="1535.5" y="-7" font-family="Helvetica,sans-Serif" font-size="10.00">squid/src/tools.cc</text>
</a>
</g>
</g>
<!-- Node15&#45;&gt;Node18 -->
<g id="edge19_Node000015_Node000018" class="edge">
<title>Node15&#45;&gt;Node18</title>
<g id="a_edge19_Node000015_Node000018"><a xlink:title=" ">
<path fill="none" stroke="#63b8ff" d="M1535.5,-50.16C1535.5,-39.74 1535.5,-27.3 1535.5,-19.17"/>
<polygon fill="#63b8ff" stroke="#63b8ff" points="1532,-50.37 1535.5,-60.37 1539,-50.37 1532,-50.37"/>
</a>
</g>
</g>
<!-- Node20&#45;&gt;Node17 -->
<g id="edge26_Node000020_Node000017" class="edge">
<title>Node20&#45;&gt;Node17</title>
<g id="a_edge26_Node000020_Node000017"><a xlink:title=" ">
<path fill="none" stroke="#63b8ff" d="M1677.62,-51.48C1671.6,-40.81 1664.17,-27.65 1659.39,-19.17"/>
<polygon fill="#63b8ff" stroke="#63b8ff" points="1674.67,-53.38 1682.63,-60.37 1680.77,-49.94 1674.67,-53.38"/>
</a>
</g>
</g>
<!-- Node21 -->
<g id="Node000021" class="node">
<title>Node21</title>
<g id="a_Node000021"><a xlink:href="Strand_8cc.html" target="_top" xlink:title=" ">
<polygon fill="white" stroke="#666666" points="1848,-19 1723,-19 1723,0 1848,0 1848,-19"/>
<text text-anchor="middle" x="1785.5" y="-7" font-family="Helvetica,sans-Serif" font-size="10.00">squid/src/ipc/Strand.cc</text>
</a>
</g>
</g>
<!-- Node20&#45;&gt;Node21 -->
<g id="edge25_Node000020_Node000021" class="edge">
<title>Node20&#45;&gt;Node21</title>
<g id="a_edge25_Node000020_Node000021"><a xlink:title=" ">
<path fill="none" stroke="#63b8ff" d="M1710.75,-55.12C1729.44,-43.96 1755.11,-28.64 1770.98,-19.17"/>
<polygon fill="#63b8ff" stroke="#63b8ff" points="1708.75,-52.24 1701.96,-60.37 1712.34,-58.25 1708.75,-52.24"/>
</a>
</g>
</g>
</g>
</svg>
