<?xml version="1.0" encoding="UTF-8" standalone="no"?>
<!DOCTYPE svg PUBLIC "-//W3C//DTD SVG 1.1//EN"
 "http://www.w3.org/Graphics/SVG/1.1/DTD/svg11.dtd">
<!-- Generated by graphviz version 2.43.0 (0)
 -->
<!-- Title: squid/src/ipc/TypedMsgHdr.cc Pages: 1 -->
<!--zoomable 302 -->

<svg id="main" version="1.1" xmlns="http://www.w3.org/2000/svg" xmlns:xlink="http://www.w3.org/1999/xlink" xml:space="preserve" onload="init(evt)">
<style type="text/css"><![CDATA[
.node, .edge {opacity: 0.7;}
.node.selected, .edge.selected {opacity: 1;}
.edge:hover path { stroke: red; }
.edge:hover polygon { stroke: red; fill: red; }
]]></style>

<defs>
  <circle id="rim" cx="0" cy="0" r="7"/>
  <circle id="rim2" cx="0" cy="0" r="3.5"/>
  <g id="zoomPlus">
    <use xlink:href="#rim" fill="#404040"><set attributeName="fill" to="#808080" begin="zoomplus.mouseover" end="zoomplus.mouseout"/></use>
    <path d="M-4,0h8M0,-4v8" fill="none" stroke="white" stroke-width="1.5" pointer-events="none"/>
  </g>
  <g id="zoomMin">
    <use xlink:href="#rim" fill="#404040"><set attributeName="fill" to="#808080" begin="zoomminus.mouseover" end="zoomminus.mouseout"/></use>
    <path d="M-4,0h8" fill="none" stroke="white" stroke-width="1.5" pointer-events="none"/>
  </g>
  <g id="arrowUp" transform="translate(30 24)">
    <use xlink:href="#rim"/>
    <path pointer-events="none" fill="none" stroke="white" stroke-width="1.5" d="M0,-3.0v7 M-2.5,-0.5L0,-3.0L2.5,-0.5"/>
  </g>
  <g id="arrowRight" transform="rotate(90) translate(36 -43)">
    <use xlink:href="#rim"/>
    <path pointer-events="none" fill="none" stroke="white" stroke-width="1.5" d="M0,-3.0v7 M-2.5,-0.5L0,-3.0L2.5,-0.5"/>
  </g>
  <g id="arrowDown" transform="rotate(180) translate(-30 -48)">
    <use xlink:href="#rim"/>
    <path pointer-events="none" fill="none" stroke="white" stroke-width="1.5" d="M0,-3.0v7 M-2.5,-0.5L0,-3.0L2.5,-0.5"/>
  </g>
  <g id="arrowLeft" transform="rotate(270) translate(-36 17)">
    <use xlink:href="#rim"/>
    <path pointer-events="none" fill="none" stroke="white" stroke-width="1.5" d="M0,-3.0v7 M-2.5,-0.5L0,-3.0L2.5,-0.5"/>
  </g>
  <g id="resetDef">
    <use xlink:href="#rim2" fill="#404040"><set attributeName="fill" to="#808080" begin="reset.mouseover" end="reset.mouseout"/></use>
  </g>
</defs>
<script type="application/ecmascript">
var viewWidth = 3882;
var viewHeight = 302;
var sectionId = 'dynsection-0';
</script>
<script type="application/ecmascript" xlink:href="svg.min.js"/>
<svg id="graph" class="graph">
<g id="viewport">
<title>squid/src/ipc/TypedMsgHdr.cc</title>
<!-- Node1 -->
<g id="Node000001" class="node">
<title>Node1</title>
<g id="a_Node000001"><a xlink:title=" ">
<polygon fill="#999999" stroke="#666666" points="3369.5,-294 3210.5,-294 3210.5,-275 3369.5,-275 3369.5,-294"/>
<text text-anchor="middle" x="3290" y="-282" font-family="Helvetica,sans-Serif" font-size="10.00">squid/src/ipc/TypedMsgHdr.cc</text>
</a>
</g>
</g>
<!-- Node2 -->
<g id="Node000002" class="node">
<title>Node2</title>
<g id="a_Node000002"><a xlink:href="squid_8h.html" target="_top" xlink:title=" ">
<polygon fill="white" stroke="#666666" points="1765,-239 1713,-239 1713,-220 1765,-220 1765,-239"/>
<text text-anchor="middle" x="1739" y="-227" font-family="Helvetica,sans-Serif" font-size="10.00">squid.h</text>
</a>
</g>
</g>
<!-- Node1&#45;&gt;Node2 -->
<g id="edge1_Node000001_Node000002" class="edge">
<title>Node1&#45;&gt;Node2</title>
<g id="a_edge1_Node000001_Node000002"><a xlink:title=" ">
<path fill="none" stroke="#63b8ff" d="M3210.42,-280.78C2927.11,-271.1 1973.95,-238.53 1775.42,-231.74"/>
<polygon fill="#63b8ff" stroke="#63b8ff" points="1775.35,-228.24 1765.23,-231.4 1775.11,-235.24 1775.35,-228.24"/>
</a>
</g>
</g>
<!-- Node44 -->
<g id="Node000044" class="node">
<title>Node44</title>
<g id="a_Node000044"><a xlink:href="TextException_8h.html" target="_top" xlink:title=" ">
<polygon fill="white" stroke="#666666" points="3316,-184 3196,-184 3196,-165 3316,-165 3316,-184"/>
<text text-anchor="middle" x="3256" y="-172" font-family="Helvetica,sans-Serif" font-size="10.00">base/TextException.h</text>
</a>
</g>
</g>
<!-- Node1&#45;&gt;Node44 -->
<g id="edge30_Node000001_Node000044" class="edge">
<title>Node1&#45;&gt;Node44</title>
<g id="a_edge30_Node000001_Node000044"><a xlink:title=" ">
<path fill="none" stroke="#63b8ff" d="M3287.22,-274.66C3281.69,-257.09 3269.21,-217.45 3261.81,-193.95"/>
<polygon fill="#63b8ff" stroke="#63b8ff" points="3265.07,-192.65 3258.73,-184.16 3258.39,-194.75 3265.07,-192.65"/>
</a>
</g>
</g>
<!-- Node49 -->
<g id="Node000049" class="node">
<title>Node49</title>
<g id="a_Node000049"><a xlink:href="TypedMsgHdr_8h.html" target="_top" xlink:title=" ">
<polygon fill="white" stroke="#666666" points="3136,-239 3028,-239 3028,-220 3136,-220 3136,-239"/>
<text text-anchor="middle" x="3082" y="-227" font-family="Helvetica,sans-Serif" font-size="10.00">ipc/TypedMsgHdr.h</text>
</a>
</g>
</g>
<!-- Node1&#45;&gt;Node49 -->
<g id="edge36_Node000001_Node000049" class="edge">
<title>Node1&#45;&gt;Node49</title>
<g id="a_edge36_Node000001_Node000049"><a xlink:title=" ">
<path fill="none" stroke="#63b8ff" d="M3256.58,-274.98C3221.06,-265.93 3164.73,-251.58 3125.7,-241.64"/>
<polygon fill="#63b8ff" stroke="#63b8ff" points="3126.24,-238.16 3115.68,-239.08 3124.51,-244.94 3126.24,-238.16"/>
</a>
</g>
</g>
<!-- Node53 -->
<g id="Node000053" class="node">
<title>Node53</title>
<g id="a_Node000053"><a xlink:href="SquidString_8h.html" target="_top" xlink:title=" ">
<polygon fill="white" stroke="#666666" points="3365.5,-239 3284.5,-239 3284.5,-220 3365.5,-220 3365.5,-239"/>
<text text-anchor="middle" x="3325" y="-227" font-family="Helvetica,sans-Serif" font-size="10.00">SquidString.h</text>
</a>
</g>
</g>
<!-- Node1&#45;&gt;Node53 -->
<g id="edge40_Node000001_Node000053" class="edge">
<title>Node1&#45;&gt;Node53</title>
<g id="a_edge40_Node000001_Node000053"><a xlink:title=" ">
<path fill="none" stroke="#63b8ff" d="M3295.78,-274.75C3300.62,-267.42 3307.68,-256.73 3313.64,-247.7"/>
<polygon fill="#63b8ff" stroke="#63b8ff" points="3316.74,-249.36 3319.33,-239.09 3310.9,-245.5 3316.74,-249.36"/>
</a>
</g>
</g>
<!-- Node63 -->
<g id="Node000063" class="node">
<title>Node63</title>
<g id="a_Node000063"><a xlink:title=" ">
<polygon fill="#e0e0e0" stroke="#999999" points="3434,-239 3384,-239 3384,-220 3434,-220 3434,-239"/>
<text text-anchor="middle" x="3409" y="-227" font-family="Helvetica,sans-Serif" font-size="10.00">tools.h</text>
</a>
</g>
</g>
<!-- Node1&#45;&gt;Node63 -->
<g id="edge51_Node000001_Node000063" class="edge">
<title>Node1&#45;&gt;Node63</title>
<g id="a_edge51_Node000001_Node000063"><a xlink:title=" ">
<path fill="none" stroke="#63b8ff" d="M3309.12,-274.98C3328.35,-266.42 3358.23,-253.11 3380.31,-243.28"/>
<polygon fill="#63b8ff" stroke="#63b8ff" points="3381.82,-246.44 3389.53,-239.17 3378.97,-240.04 3381.82,-246.44"/>
</a>
</g>
</g>
<!-- Node64 -->
<g id="Node000064" class="node">
<title>Node64</title>
<g id="a_Node000064"><a xlink:title=" ">
<polygon fill="#e0e0e0" stroke="#999999" points="3502,-239 3452,-239 3452,-220 3502,-220 3502,-239"/>
<text text-anchor="middle" x="3477" y="-227" font-family="Helvetica,sans-Serif" font-size="10.00">cstring</text>
</a>
</g>
</g>
<!-- Node1&#45;&gt;Node64 -->
<g id="edge52_Node000001_Node000064" class="edge">
<title>Node1&#45;&gt;Node64</title>
<g id="a_edge52_Node000001_Node000064"><a xlink:title=" ">
<path fill="none" stroke="#63b8ff" d="M3320.04,-274.98C3353.31,-265.56 3406.86,-250.38 3442,-240.42"/>
<polygon fill="#63b8ff" stroke="#63b8ff" points="3443.16,-243.73 3451.83,-237.63 3441.25,-236.99 3443.16,-243.73"/>
</a>
</g>
</g>
<!-- Node3 -->
<g id="Node000003" class="node">
<title>Node3</title>
<g id="a_Node000003"><a xlink:href="autoconf_8h.html" target="_top" xlink:title=" ">
<polygon fill="white" stroke="#666666" points="1824,-184 1756,-184 1756,-165 1824,-165 1824,-184"/>
<text text-anchor="middle" x="1790" y="-172" font-family="Helvetica,sans-Serif" font-size="10.00">autoconf.h</text>
</a>
</g>
</g>
<!-- Node2&#45;&gt;Node3 -->
<g id="edge2_Node000002_Node000003" class="edge">
<title>Node2&#45;&gt;Node3</title>
<g id="a_edge2_Node000002_Node000003"><a xlink:title=" ">
<path fill="none" stroke="#63b8ff" d="M1747.42,-219.75C1754.77,-212.11 1765.63,-200.82 1774.54,-191.56"/>
<polygon fill="#63b8ff" stroke="#63b8ff" points="1777.32,-193.72 1781.74,-184.09 1772.28,-188.87 1777.32,-193.72"/>
</a>
</g>
</g>
<!-- Node4 -->
<g id="Node000004" class="node">
<title>Node4</title>
<g id="a_Node000004"><a xlink:href="version_8h.html" target="_top" xlink:title=" ">
<polygon fill="white" stroke="#666666" points="1618,-184 1556,-184 1556,-165 1618,-165 1618,-184"/>
<text text-anchor="middle" x="1587" y="-172" font-family="Helvetica,sans-Serif" font-size="10.00">version.h</text>
</a>
</g>
</g>
<!-- Node2&#45;&gt;Node4 -->
<g id="edge3_Node000002_Node000004" class="edge">
<title>Node2&#45;&gt;Node4</title>
<g id="a_edge3_Node000002_Node000004"><a xlink:title=" ">
<path fill="none" stroke="#63b8ff" d="M1714.58,-219.98C1689.28,-211.16 1649.55,-197.31 1621.14,-187.41"/>
<polygon fill="#63b8ff" stroke="#63b8ff" points="1622.21,-184.07 1611.61,-184.08 1619.9,-190.68 1622.21,-184.07"/>
</a>
</g>
</g>
<!-- Node5 -->
<g id="Node000005" class="node">
<title>Node5</title>
<g id="a_Node000005"><a xlink:href="compat_8h.html" target="_top" xlink:title=" ">
<polygon fill="white" stroke="#666666" points="1738,-184 1636,-184 1636,-165 1738,-165 1738,-184"/>
<text text-anchor="middle" x="1687" y="-172" font-family="Helvetica,sans-Serif" font-size="10.00">compat/compat.h</text>
</a>
</g>
</g>
<!-- Node2&#45;&gt;Node5 -->
<g id="edge4_Node000002_Node000005" class="edge">
<title>Node2&#45;&gt;Node5</title>
<g id="a_edge4_Node000002_Node000005"><a xlink:title=" ">
<path fill="none" stroke="#63b8ff" d="M1730.41,-219.75C1722.84,-212.03 1711.62,-200.6 1702.49,-191.28"/>
<polygon fill="#63b8ff" stroke="#63b8ff" points="1704.93,-188.78 1695.43,-184.09 1699.93,-193.68 1704.93,-188.78"/>
</a>
</g>
</g>
<!-- Node6 -->
<g id="Node000006" class="node">
<title>Node6</title>
<g id="a_Node000006"><a xlink:href="osdetect_8h.html" target="_top" xlink:title=" ">
<polygon fill="white" stroke="#666666" points="2153.5,-129 2046.5,-129 2046.5,-110 2153.5,-110 2153.5,-129"/>
<text text-anchor="middle" x="2100" y="-117" font-family="Helvetica,sans-Serif" font-size="10.00">compat/osdetect.h</text>
</a>
</g>
</g>
<!-- Node5&#45;&gt;Node6 -->
<g id="edge5_Node000005_Node000006" class="edge">
<title>Node5&#45;&gt;Node6</title>
<g id="a_edge5_Node000005_Node000006"><a xlink:title=" ">
<path fill="none" stroke="#63b8ff" d="M1738.05,-166.21C1741.08,-165.79 1744.08,-165.39 1747,-165 1872.6,-148.31 1906.56,-145.8 2036.45,-129.06"/>
<polygon fill="#63b8ff" stroke="#63b8ff" points="2036.92,-132.53 2046.39,-127.77 2036.02,-125.58 2036.92,-132.53"/>
</a>
</g>
</g>
<!-- Node7 -->
<g id="Node000007" class="node">
<title>Node7</title>
<g id="a_Node000007"><a xlink:href="fdsetsize_8h.html" target="_top" xlink:title=" ">
<polygon fill="white" stroke="#666666" points="2282,-129 2172,-129 2172,-110 2282,-110 2282,-129"/>
<text text-anchor="middle" x="2227" y="-117" font-family="Helvetica,sans-Serif" font-size="10.00">compat/fdsetsize.h</text>
</a>
</g>
</g>
<!-- Node5&#45;&gt;Node7 -->
<g id="edge6_Node000005_Node000007" class="edge">
<title>Node5&#45;&gt;Node7</title>
<g id="a_edge6_Node000005_Node000007"><a xlink:title=" ">
<path fill="none" stroke="#63b8ff" d="M1738.04,-166.08C1741.07,-165.7 1744.07,-165.33 1747,-165 1927.71,-144.38 1976.25,-148.84 2161.62,-128.99"/>
<polygon fill="#63b8ff" stroke="#63b8ff" points="2162.14,-132.45 2171.7,-127.9 2161.38,-125.49 2162.14,-132.45"/>
</a>
</g>
</g>
<!-- Node8 -->
<g id="Node000008" class="node">
<title>Node8</title>
<g id="a_Node000008"><a xlink:href="types_8h.html" target="_top" xlink:title=" ">
<polygon fill="#fff0f0" stroke="red" points="2392,-129 2300,-129 2300,-110 2392,-110 2392,-129"/>
<text text-anchor="middle" x="2346" y="-117" font-family="Helvetica,sans-Serif" font-size="10.00">compat/types.h</text>
</a>
</g>
</g>
<!-- Node5&#45;&gt;Node8 -->
<g id="edge7_Node000005_Node000008" class="edge">
<title>Node5&#45;&gt;Node8</title>
<g id="a_edge7_Node000005_Node000008"><a xlink:title=" ">
<path fill="none" stroke="#63b8ff" d="M1738.03,-166.01C1741.06,-165.64 1744.07,-165.3 1747,-165 1984.72,-140.33 2048.42,-155.11 2289.69,-129.04"/>
<polygon fill="#63b8ff" stroke="#63b8ff" points="2290.26,-132.5 2299.83,-127.94 2289.5,-125.54 2290.26,-132.5"/>
</a>
</g>
</g>
<!-- Node10 -->
<g id="Node000010" class="node">
<title>Node10</title>
<g id="a_Node000010"><a xlink:href="aix_8h.html" target="_top" xlink:title=" ">
<polygon fill="white" stroke="#666666" points="2505.5,-129 2410.5,-129 2410.5,-110 2505.5,-110 2505.5,-129"/>
<text text-anchor="middle" x="2458" y="-117" font-family="Helvetica,sans-Serif" font-size="10.00">compat/os/aix.h</text>
</a>
</g>
</g>
<!-- Node5&#45;&gt;Node10 -->
<g id="edge8_Node000005_Node000010" class="edge">
<title>Node5&#45;&gt;Node10</title>
<g id="a_edge8_Node000005_Node000010"><a xlink:title=" ">
<path fill="none" stroke="#63b8ff" d="M1738.03,-165.97C1741.06,-165.61 1744.07,-165.29 1747,-165 2033.46,-136.88 2109.69,-158.01 2400.46,-128.94"/>
<polygon fill="#63b8ff" stroke="#63b8ff" points="2400.86,-132.42 2410.46,-127.93 2400.15,-125.45 2400.86,-132.42"/>
</a>
</g>
</g>
<!-- Node11 -->
<g id="Node000011" class="node">
<title>Node11</title>
<g id="a_Node000011"><a xlink:href="android_8h.html" target="_top" xlink:title=" ">
<polygon fill="white" stroke="#666666" points="2640,-129 2524,-129 2524,-110 2640,-110 2640,-129"/>
<text text-anchor="middle" x="2582" y="-117" font-family="Helvetica,sans-Serif" font-size="10.00">compat/os/android.h</text>
</a>
</g>
</g>
<!-- Node5&#45;&gt;Node11 -->
<g id="edge9_Node000005_Node000011" class="edge">
<title>Node5&#45;&gt;Node11</title>
<g id="a_edge9_Node000005_Node000011"><a xlink:title=" ">
<path fill="none" stroke="#63b8ff" d="M1738.02,-165.94C1741.06,-165.59 1744.07,-165.28 1747,-165 2083.45,-133.34 2172.26,-157.7 2513.62,-128.94"/>
<polygon fill="#63b8ff" stroke="#63b8ff" points="2514.13,-132.41 2523.79,-128.08 2513.53,-125.44 2514.13,-132.41"/>
</a>
</g>
</g>
<!-- Node12 -->
<g id="Node000012" class="node">
<title>Node12</title>
<g id="a_Node000012"><a xlink:href="dragonfly_8h.html" target="_top" xlink:title=" ">
<polygon fill="white" stroke="#666666" points="2782,-129 2658,-129 2658,-110 2782,-110 2782,-129"/>
<text text-anchor="middle" x="2720" y="-117" font-family="Helvetica,sans-Serif" font-size="10.00">compat/os/dragonfly.h</text>
</a>
</g>
</g>
<!-- Node5&#45;&gt;Node12 -->
<g id="edge10_Node000005_Node000012" class="edge">
<title>Node5&#45;&gt;Node12</title>
<g id="a_edge10_Node000005_Node000012"><a xlink:title=" ">
<path fill="none" stroke="#63b8ff" d="M1738.02,-165.92C1741.06,-165.57 1744.07,-165.27 1747,-165 2143.26,-129.12 2247.34,-160.34 2647.58,-129.04"/>
<polygon fill="#63b8ff" stroke="#63b8ff" points="2648,-132.52 2657.69,-128.24 2647.45,-125.54 2648,-132.52"/>
</a>
</g>
</g>
<!-- Node13 -->
<g id="Node000013" class="node">
<title>Node13</title>
<g id="a_Node000013"><a xlink:href="freebsd_8h.html" target="_top" xlink:title=" ">
<polygon fill="white" stroke="#666666" points="2916,-129 2800,-129 2800,-110 2916,-110 2916,-129"/>
<text text-anchor="middle" x="2858" y="-117" font-family="Helvetica,sans-Serif" font-size="10.00">compat/os/freebsd.h</text>
</a>
</g>
</g>
<!-- Node5&#45;&gt;Node13 -->
<g id="edge11_Node000005_Node000013" class="edge">
<title>Node5&#45;&gt;Node13</title>
<g id="a_edge11_Node000005_Node000013"><a xlink:title=" ">
<path fill="none" stroke="#63b8ff" d="M1738.02,-165.9C1741.06,-165.56 1744.07,-165.26 1747,-165 2206.11,-124.68 2326.46,-165.65 2789.62,-129.02"/>
<polygon fill="#63b8ff" stroke="#63b8ff" points="2790.24,-132.48 2799.93,-128.2 2789.68,-125.51 2790.24,-132.48"/>
</a>
</g>
</g>
<!-- Node14 -->
<g id="Node000014" class="node">
<title>Node14</title>
<g id="a_Node000014"><a xlink:href="hpux_8h.html" target="_top" xlink:title=" ">
<polygon fill="white" stroke="#666666" points="3038,-129 2934,-129 2934,-110 3038,-110 3038,-129"/>
<text text-anchor="middle" x="2986" y="-117" font-family="Helvetica,sans-Serif" font-size="10.00">compat/os/hpux.h</text>
</a>
</g>
</g>
<!-- Node5&#45;&gt;Node14 -->
<g id="edge12_Node000005_Node000014" class="edge">
<title>Node5&#45;&gt;Node14</title>
<g id="a_edge12_Node000005_Node000014"><a xlink:title=" ">
<path fill="none" stroke="#63b8ff" d="M1738.02,-165.88C1741.05,-165.55 1744.07,-165.25 1747,-165 2265.57,-120.48 2401.35,-172.54 2923.74,-129"/>
<polygon fill="#63b8ff" stroke="#63b8ff" points="2924.13,-132.48 2933.8,-128.15 2923.54,-125.5 2924.13,-132.48"/>
</a>
</g>
</g>
<!-- Node15 -->
<g id="Node000015" class="node">
<title>Node15</title>
<g id="a_Node000015"><a xlink:href="linux_8h.html" target="_top" xlink:title=" ">
<polygon fill="white" stroke="#666666" points="3160,-129 3056,-129 3056,-110 3160,-110 3160,-129"/>
<text text-anchor="middle" x="3108" y="-117" font-family="Helvetica,sans-Serif" font-size="10.00">compat/os/linux.h</text>
</a>
</g>
</g>
<!-- Node5&#45;&gt;Node15 -->
<g id="edge13_Node000005_Node000015" class="edge">
<title>Node5&#45;&gt;Node15</title>
<g id="a_edge13_Node000005_Node000015"><a xlink:title=" ">
<path fill="none" stroke="#63b8ff" d="M1738.02,-165.87C1741.05,-165.54 1744.06,-165.25 1747,-165 2319.58,-116.67 2469.24,-176.25 3045.56,-129.01"/>
<polygon fill="#63b8ff" stroke="#63b8ff" points="3046.12,-132.47 3055.8,-128.16 3045.54,-125.5 3046.12,-132.47"/>
</a>
</g>
</g>
<!-- Node16 -->
<g id="Node000016" class="node">
<title>Node16</title>
<g id="a_Node000016"><a xlink:href="macosx_8h.html" target="_top" xlink:title=" ">
<polygon fill="white" stroke="#666666" points="118,-129 0,-129 0,-110 118,-110 118,-129"/>
<text text-anchor="middle" x="59" y="-117" font-family="Helvetica,sans-Serif" font-size="10.00">compat/os/macosx.h</text>
</a>
</g>
</g>
<!-- Node5&#45;&gt;Node16 -->
<g id="edge14_Node000005_Node000016" class="edge">
<title>Node5&#45;&gt;Node16</title>
<g id="a_edge14_Node000005_Node000016"><a xlink:title=" ">
<path fill="none" stroke="#63b8ff" d="M1635.98,-165.86C1632.95,-165.53 1629.94,-165.24 1627,-165 965.81,-110.42 793.78,-177.72 128.63,-129.03"/>
<polygon fill="#63b8ff" stroke="#63b8ff" points="128.53,-125.51 118.3,-128.27 128.02,-132.5 128.53,-125.51"/>
</a>
</g>
</g>
<!-- Node17 -->
<g id="Node000017" class="node">
<title>Node17</title>
<g id="a_Node000017"><a xlink:href="mingw_8h.html" target="_top" xlink:title=" ">
<polygon fill="white" stroke="#666666" points="248,-129 136,-129 136,-110 248,-110 248,-129"/>
<text text-anchor="middle" x="192" y="-117" font-family="Helvetica,sans-Serif" font-size="10.00">compat/os/mingw.h</text>
</a>
</g>
</g>
<!-- Node5&#45;&gt;Node17 -->
<g id="edge15_Node000005_Node000017" class="edge">
<title>Node5&#45;&gt;Node17</title>
<g id="a_edge15_Node000005_Node000017"><a xlink:title=" ">
<path fill="none" stroke="#63b8ff" d="M1635.98,-165.87C1632.95,-165.54 1629.94,-165.25 1627,-165 1023.43,-114.48 866,-175.86 258.66,-129.03"/>
<polygon fill="#63b8ff" stroke="#63b8ff" points="258.57,-125.52 248.33,-128.23 258.03,-132.5 258.57,-125.52"/>
</a>
</g>
</g>
<!-- Node18 -->
<g id="Node000018" class="node">
<title>Node18</title>
<g id="a_Node000018"><a xlink:href="mswindows_8h.html" target="_top" xlink:title=" ">
<polygon fill="white" stroke="#666666" points="403.5,-129 266.5,-129 266.5,-110 403.5,-110 403.5,-129"/>
<text text-anchor="middle" x="335" y="-117" font-family="Helvetica,sans-Serif" font-size="10.00">compat/os/mswindows.h</text>
</a>
</g>
</g>
<!-- Node5&#45;&gt;Node18 -->
<g id="edge16_Node000005_Node000018" class="edge">
<title>Node5&#45;&gt;Node18</title>
<g id="a_edge16_Node000005_Node000018"><a xlink:title=" ">
<path fill="none" stroke="#63b8ff" d="M1635.98,-165.88C1632.95,-165.55 1629.94,-165.25 1627,-165 1092.14,-119.33 952.69,-166.07 414.19,-129.09"/>
<polygon fill="#63b8ff" stroke="#63b8ff" points="414.04,-125.57 403.82,-128.37 413.56,-132.56 414.04,-125.57"/>
</a>
</g>
</g>
<!-- Node19 -->
<g id="Node000019" class="node">
<title>Node19</title>
<g id="a_Node000019"><a xlink:href="netbsd_8h.html" target="_top" xlink:title=" ">
<polygon fill="white" stroke="#666666" points="534.5,-129 421.5,-129 421.5,-110 534.5,-110 534.5,-129"/>
<text text-anchor="middle" x="478" y="-117" font-family="Helvetica,sans-Serif" font-size="10.00">compat/os/netbsd.h</text>
</a>
</g>
</g>
<!-- Node5&#45;&gt;Node19 -->
<g id="edge17_Node000005_Node000019" class="edge">
<title>Node5&#45;&gt;Node19</title>
<g id="a_edge17_Node000005_Node000019"><a xlink:title=" ">
<path fill="none" stroke="#63b8ff" d="M1635.98,-165.89C1632.95,-165.56 1629.93,-165.26 1627,-165 1150.06,-123.42 1025.14,-167.68 544.66,-129.05"/>
<polygon fill="#63b8ff" stroke="#63b8ff" points="544.94,-125.56 534.69,-128.24 544.37,-132.54 544.94,-125.56"/>
</a>
</g>
</g>
<!-- Node20 -->
<g id="Node000020" class="node">
<title>Node20</title>
<g id="a_Node000020"><a xlink:href="openbsd_8h.html" target="_top" xlink:title=" ">
<polygon fill="white" stroke="#666666" points="673.5,-129 552.5,-129 552.5,-110 673.5,-110 673.5,-129"/>
<text text-anchor="middle" x="613" y="-117" font-family="Helvetica,sans-Serif" font-size="10.00">compat/os/openbsd.h</text>
</a>
</g>
</g>
<!-- Node5&#45;&gt;Node20 -->
<g id="edge18_Node000005_Node000020" class="edge">
<title>Node5&#45;&gt;Node20</title>
<g id="a_edge18_Node000005_Node000020"><a xlink:title=" ">
<path fill="none" stroke="#63b8ff" d="M1635.98,-165.91C1632.94,-165.57 1629.93,-165.26 1627,-165 1211.75,-127.78 1102.7,-162.16 683.82,-129.07"/>
<polygon fill="#63b8ff" stroke="#63b8ff" points="683.8,-125.56 673.55,-128.25 683.24,-132.54 683.8,-125.56"/>
</a>
</g>
</g>
<!-- Node21 -->
<g id="Node000021" class="node">
<title>Node21</title>
<g id="a_Node000021"><a xlink:href="os2_8h.html" target="_top" xlink:title=" ">
<polygon fill="white" stroke="#666666" points="788.5,-129 691.5,-129 691.5,-110 788.5,-110 788.5,-129"/>
<text text-anchor="middle" x="740" y="-117" font-family="Helvetica,sans-Serif" font-size="10.00">compat/os/os2.h</text>
</a>
</g>
</g>
<!-- Node5&#45;&gt;Node21 -->
<g id="edge19_Node000005_Node000021" class="edge">
<title>Node5&#45;&gt;Node21</title>
<g id="a_edge19_Node000005_Node000021"><a xlink:title=" ">
<path fill="none" stroke="#63b8ff" d="M1635.98,-165.93C1632.94,-165.58 1629.93,-165.27 1627,-165 1263.09,-131.4 1166.88,-163.2 798.82,-128.96"/>
<polygon fill="#63b8ff" stroke="#63b8ff" points="798.97,-125.46 788.69,-128 798.32,-132.42 798.97,-125.46"/>
</a>
</g>
</g>
<!-- Node22 -->
<g id="Node000022" class="node">
<title>Node22</title>
<g id="a_Node000022"><a xlink:href="qnx_8h.html" target="_top" xlink:title=" ">
<polygon fill="white" stroke="#666666" points="905,-129 807,-129 807,-110 905,-110 905,-129"/>
<text text-anchor="middle" x="856" y="-117" font-family="Helvetica,sans-Serif" font-size="10.00">compat/os/qnx.h</text>
</a>
</g>
</g>
<!-- Node5&#45;&gt;Node22 -->
<g id="edge20_Node000005_Node000022" class="edge">
<title>Node5&#45;&gt;Node22</title>
<g id="a_edge20_Node000005_Node000022"><a xlink:title=" ">
<path fill="none" stroke="#63b8ff" d="M1635.97,-165.95C1632.94,-165.6 1629.93,-165.28 1627,-165 1314.55,-135.04 1231.55,-159.5 915.39,-129.03"/>
<polygon fill="#63b8ff" stroke="#63b8ff" points="915.3,-125.5 905.01,-128.02 914.62,-132.47 915.3,-125.5"/>
</a>
</g>
</g>
<!-- Node23 -->
<g id="Node000023" class="node">
<title>Node23</title>
<g id="a_Node000023"><a xlink:href="solaris_8h.html" target="_top" xlink:title=" ">
<polygon fill="white" stroke="#666666" points="1035,-129 923,-129 923,-110 1035,-110 1035,-129"/>
<text text-anchor="middle" x="979" y="-117" font-family="Helvetica,sans-Serif" font-size="10.00">compat/os/solaris.h</text>
</a>
</g>
</g>
<!-- Node5&#45;&gt;Node23 -->
<g id="edge21_Node000005_Node000023" class="edge">
<title>Node5&#45;&gt;Node23</title>
<g id="a_edge21_Node000005_Node000023"><a xlink:title=" ">
<path fill="none" stroke="#63b8ff" d="M1635.97,-165.99C1632.94,-165.63 1629.93,-165.3 1627,-165 1372,-139.11 1304.13,-153.47 1045.42,-129.07"/>
<polygon fill="#63b8ff" stroke="#63b8ff" points="1045.63,-125.57 1035.34,-128.11 1044.97,-132.54 1045.63,-125.57"/>
</a>
</g>
</g>
<!-- Node24 -->
<g id="Node000024" class="node">
<title>Node24</title>
<g id="a_Node000024"><a xlink:href="sunos_8h.html" target="_top" xlink:title=" ">
<polygon fill="white" stroke="#666666" points="1161,-129 1053,-129 1053,-110 1161,-110 1161,-129"/>
<text text-anchor="middle" x="1107" y="-117" font-family="Helvetica,sans-Serif" font-size="10.00">compat/os/sunos.h</text>
</a>
</g>
</g>
<!-- Node5&#45;&gt;Node24 -->
<g id="edge22_Node000005_Node000024" class="edge">
<title>Node5&#45;&gt;Node24</title>
<g id="a_edge22_Node000005_Node000024"><a xlink:title=" ">
<path fill="none" stroke="#63b8ff" d="M1635.96,-166.05C1632.93,-165.68 1629.93,-165.32 1627,-165 1427.75,-143.06 1374.3,-150.38 1171.37,-129.09"/>
<polygon fill="#63b8ff" stroke="#63b8ff" points="1171.59,-125.59 1161.27,-128.02 1170.85,-132.55 1171.59,-125.59"/>
</a>
</g>
</g>
<!-- Node25 -->
<g id="Node000025" class="node">
<title>Node25</title>
<g id="a_Node000025"><a xlink:href="assert_8h.html" target="_top" xlink:title=" ">
<polygon fill="white" stroke="#666666" points="1274.5,-129 1179.5,-129 1179.5,-110 1274.5,-110 1274.5,-129"/>
<text text-anchor="middle" x="1227" y="-117" font-family="Helvetica,sans-Serif" font-size="10.00">compat/assert.h</text>
</a>
</g>
</g>
<!-- Node5&#45;&gt;Node25 -->
<g id="edge23_Node000005_Node000025" class="edge">
<title>Node5&#45;&gt;Node25</title>
<g id="a_edge23_Node000005_Node000025"><a xlink:title=" ">
<path fill="none" stroke="#63b8ff" d="M1635.95,-166.14C1632.93,-165.74 1629.92,-165.36 1627,-165 1478.14,-146.65 1437.78,-148.23 1284.81,-129.04"/>
<polygon fill="#63b8ff" stroke="#63b8ff" points="1284.92,-125.53 1274.56,-127.75 1284.05,-132.48 1284.92,-125.53"/>
</a>
</g>
</g>
<!-- Node26 -->
<g id="Node000026" class="node">
<title>Node26</title>
<g id="a_Node000026"><a xlink:href="compat__shared_8h.html" target="_top" xlink:title=" ">
<polygon fill="#fff0f0" stroke="red" points="1433,-129 1293,-129 1293,-110 1433,-110 1433,-129"/>
<text text-anchor="middle" x="1363" y="-117" font-family="Helvetica,sans-Serif" font-size="10.00">compat/compat_shared.h</text>
</a>
</g>
</g>
<!-- Node5&#45;&gt;Node26 -->
<g id="edge24_Node000005_Node000026" class="edge">
<title>Node5&#45;&gt;Node26</title>
<g id="a_edge24_Node000005_Node000026"><a xlink:title=" ">
<path fill="none" stroke="#63b8ff" d="M1635.66,-165.1C1578.53,-155.76 1486.23,-140.66 1425.08,-130.66"/>
<polygon fill="#63b8ff" stroke="#63b8ff" points="1425.61,-127.19 1415.17,-129.03 1424.48,-134.1 1425.61,-127.19"/>
</a>
</g>
</g>
<!-- Node36 -->
<g id="Node000036" class="node">
<title>Node36</title>
<g id="a_Node000036"><a xlink:href="stdvarargs_8h.html" target="_top" xlink:title=" ">
<polygon fill="#fff0f0" stroke="red" points="1568.5,-129 1451.5,-129 1451.5,-110 1568.5,-110 1568.5,-129"/>
<text text-anchor="middle" x="1510" y="-117" font-family="Helvetica,sans-Serif" font-size="10.00">compat/stdvarargs.h</text>
</a>
</g>
</g>
<!-- Node5&#45;&gt;Node36 -->
<g id="edge25_Node000005_Node000036" class="edge">
<title>Node5&#45;&gt;Node36</title>
<g id="a_edge25_Node000005_Node000036"><a xlink:title=" ">
<path fill="none" stroke="#63b8ff" d="M1658.56,-164.98C1628.72,-156.05 1581.62,-141.94 1548.47,-132.02"/>
<polygon fill="#63b8ff" stroke="#63b8ff" points="1549.24,-128.6 1538.66,-129.08 1547.24,-135.3 1549.24,-128.6"/>
</a>
</g>
</g>
<!-- Node38 -->
<g id="Node000038" class="node">
<title>Node38</title>
<g id="a_Node000038"><a xlink:href="stdio_8h.html" target="_top" xlink:title=" ">
<polygon fill="#fff0f0" stroke="red" points="1675.5,-129 1586.5,-129 1586.5,-110 1675.5,-110 1675.5,-129"/>
<text text-anchor="middle" x="1631" y="-117" font-family="Helvetica,sans-Serif" font-size="10.00">compat/stdio.h</text>
</a>
</g>
</g>
<!-- Node5&#45;&gt;Node38 -->
<g id="edge26_Node000005_Node000038" class="edge">
<title>Node5&#45;&gt;Node38</title>
<g id="a_edge26_Node000005_Node000038"><a xlink:title=" ">
<path fill="none" stroke="#63b8ff" d="M1678,-164.98C1669.81,-157.23 1657.49,-145.58 1647.53,-136.14"/>
<polygon fill="#63b8ff" stroke="#63b8ff" points="1649.83,-133.5 1640.16,-129.17 1645.02,-138.59 1649.83,-133.5"/>
</a>
</g>
</g>
<!-- Node40 -->
<g id="Node000040" class="node">
<title>Node40</title>
<g id="a_Node000040"><a xlink:href="statvfs_8h.html" target="_top" xlink:title=" ">
<polygon fill="white" stroke="#666666" points="1792.5,-129 1693.5,-129 1693.5,-110 1792.5,-110 1792.5,-129"/>
<text text-anchor="middle" x="1743" y="-117" font-family="Helvetica,sans-Serif" font-size="10.00">compat/statvfs.h</text>
</a>
</g>
</g>
<!-- Node5&#45;&gt;Node40 -->
<g id="edge27_Node000005_Node000040" class="edge">
<title>Node5&#45;&gt;Node40</title>
<g id="a_edge27_Node000005_Node000040"><a xlink:title=" ">
<path fill="none" stroke="#63b8ff" d="M1696,-164.98C1704.19,-157.23 1716.51,-145.58 1726.47,-136.14"/>
<polygon fill="#63b8ff" stroke="#63b8ff" points="1728.98,-138.59 1733.84,-129.17 1724.17,-133.5 1728.98,-138.59"/>
</a>
</g>
</g>
<!-- Node41 -->
<g id="Node000041" class="node">
<title>Node41</title>
<g id="a_Node000041"><a xlink:href="debug_8h.html" target="_top" xlink:title=" ">
<polygon fill="white" stroke="#666666" points="1905.5,-129 1810.5,-129 1810.5,-110 1905.5,-110 1905.5,-129"/>
<text text-anchor="middle" x="1858" y="-117" font-family="Helvetica,sans-Serif" font-size="10.00">compat/debug.h</text>
</a>
</g>
</g>
<!-- Node5&#45;&gt;Node41 -->
<g id="edge28_Node000005_Node000041" class="edge">
<title>Node5&#45;&gt;Node41</title>
<g id="a_edge28_Node000005_Node000041"><a xlink:title=" ">
<path fill="none" stroke="#63b8ff" d="M1714.47,-164.98C1743.18,-156.09 1788.42,-142.07 1820.42,-132.15"/>
<polygon fill="#63b8ff" stroke="#63b8ff" points="1821.8,-135.39 1830.31,-129.08 1819.72,-128.7 1821.8,-135.39"/>
</a>
</g>
</g>
<!-- Node42 -->
<g id="Node000042" class="node">
<title>Node42</title>
<g id="a_Node000042"><a xlink:href="valgrind_8h.html" target="_top" xlink:title=" ">
<polygon fill="#fff0f0" stroke="red" points="2028.5,-129 1923.5,-129 1923.5,-110 2028.5,-110 2028.5,-129"/>
<text text-anchor="middle" x="1976" y="-117" font-family="Helvetica,sans-Serif" font-size="10.00">compat/valgrind.h</text>
</a>
</g>
</g>
<!-- Node5&#45;&gt;Node42 -->
<g id="edge29_Node000005_Node000042" class="edge">
<title>Node5&#45;&gt;Node42</title>
<g id="a_edge29_Node000005_Node000042"><a xlink:title=" ">
<path fill="none" stroke="#63b8ff" d="M1733.43,-164.98C1783.95,-155.72 1864.74,-140.9 1919.05,-130.94"/>
<polygon fill="#63b8ff" stroke="#63b8ff" points="1920,-134.33 1929.2,-129.08 1918.74,-127.44 1920,-134.33"/>
</a>
</g>
</g>
<!-- Node45 -->
<g id="Node000045" class="node">
<title>Node45</title>
<g id="a_Node000045"><a xlink:href="Assure_8h.html" target="_top" xlink:title=" ">
<polygon fill="white" stroke="#666666" points="3384.5,-129 3299.5,-129 3299.5,-110 3384.5,-110 3384.5,-129"/>
<text text-anchor="middle" x="3342" y="-117" font-family="Helvetica,sans-Serif" font-size="10.00">base/Assure.h</text>
</a>
</g>
</g>
<!-- Node44&#45;&gt;Node45 -->
<g id="edge31_Node000044_Node000045" class="edge">
<title>Node44&#45;&gt;Node45</title>
<g id="a_edge31_Node000044_Node000045"><a xlink:title=" ">
<path fill="none" stroke="#63b8ff" d="M3269.82,-164.98C3283.15,-156.77 3303.58,-144.18 3319.31,-134.49"/>
<polygon fill="#63b8ff" stroke="#63b8ff" points="3321.25,-137.4 3327.93,-129.17 3317.58,-131.44 3321.25,-137.4"/>
</a>
</g>
</g>
<!-- Node46 -->
<g id="Node000046" class="node">
<title>Node46</title>
<g id="a_Node000046"><a xlink:href="Here_8h.html" target="_top" xlink:title=" ">
<polygon fill="white" stroke="#666666" points="3379.5,-74 3304.5,-74 3304.5,-55 3379.5,-55 3379.5,-74"/>
<text text-anchor="middle" x="3342" y="-62" font-family="Helvetica,sans-Serif" font-size="10.00">base/Here.h</text>
</a>
</g>
</g>
<!-- Node44&#45;&gt;Node46 -->
<g id="edge34_Node000044_Node000046" class="edge">
<title>Node44&#45;&gt;Node46</title>
<g id="a_edge34_Node000044_Node000046"><a xlink:title=" ">
<path fill="none" stroke="#63b8ff" d="M3241.34,-164.96C3222.43,-152.86 3193.61,-129.95 3208,-110 3227.5,-82.97 3264.09,-72.1 3294.11,-67.85"/>
<polygon fill="#63b8ff" stroke="#63b8ff" points="3294.91,-71.28 3304.42,-66.61 3294.07,-64.33 3294.91,-71.28"/>
</a>
</g>
</g>
<!-- Node48 -->
<g id="Node000048" class="node">
<title>Node48</title>
<g id="a_Node000048"><a xlink:title=" ">
<polygon fill="#e0e0e0" stroke="#999999" points="3281.5,-129 3216.5,-129 3216.5,-110 3281.5,-110 3281.5,-129"/>
<text text-anchor="middle" x="3249" y="-117" font-family="Helvetica,sans-Serif" font-size="10.00">stdexcept</text>
</a>
</g>
</g>
<!-- Node44&#45;&gt;Node48 -->
<g id="edge35_Node000044_Node000048" class="edge">
<title>Node44&#45;&gt;Node48</title>
<g id="a_edge35_Node000044_Node000048"><a xlink:title=" ">
<path fill="none" stroke="#63b8ff" d="M3254.84,-164.75C3253.93,-157.8 3252.61,-147.85 3251.46,-139.13"/>
<polygon fill="#63b8ff" stroke="#63b8ff" points="3254.91,-138.54 3250.13,-129.09 3247.97,-139.46 3254.91,-138.54"/>
</a>
</g>
</g>
<!-- Node45&#45;&gt;Node46 -->
<g id="edge32_Node000045_Node000046" class="edge">
<title>Node45&#45;&gt;Node46</title>
<g id="a_edge32_Node000045_Node000046"><a xlink:title=" ">
<path fill="none" stroke="#63b8ff" d="M3342,-109.75C3342,-102.8 3342,-92.85 3342,-84.13"/>
<polygon fill="#63b8ff" stroke="#63b8ff" points="3345.5,-84.09 3342,-74.09 3338.5,-84.09 3345.5,-84.09"/>
</a>
</g>
</g>
<!-- Node47 -->
<g id="Node000047" class="node">
<title>Node47</title>
<g id="a_Node000047"><a xlink:title=" ">
<polygon fill="#e0e0e0" stroke="#999999" points="3366,-19 3318,-19 3318,0 3366,0 3366,-19"/>
<text text-anchor="middle" x="3342" y="-7" font-family="Helvetica,sans-Serif" font-size="10.00">iosfwd</text>
</a>
</g>
</g>
<!-- Node46&#45;&gt;Node47 -->
<g id="edge33_Node000046_Node000047" class="edge">
<title>Node46&#45;&gt;Node47</title>
<g id="a_edge33_Node000046_Node000047"><a xlink:title=" ">
<path fill="none" stroke="#63b8ff" d="M3342,-54.75C3342,-47.8 3342,-37.85 3342,-29.13"/>
<polygon fill="#63b8ff" stroke="#63b8ff" points="3345.5,-29.09 3342,-19.09 3338.5,-29.09 3345.5,-29.09"/>
</a>
</g>
</g>
<!-- Node50 -->
<g id="Node000050" class="node">
<title>Node50</title>
<g id="a_Node000050"><a xlink:href="cmsg_8h.html" target="_top" xlink:title=" ">
<polygon fill="white" stroke="#666666" points="3178,-184 3086,-184 3086,-165 3178,-165 3178,-184"/>
<text text-anchor="middle" x="3132" y="-172" font-family="Helvetica,sans-Serif" font-size="10.00">compat/cmsg.h</text>
</a>
</g>
</g>
<!-- Node49&#45;&gt;Node50 -->
<g id="edge37_Node000049_Node000050" class="edge">
<title>Node49&#45;&gt;Node50</title>
<g id="a_edge37_Node000049_Node000050"><a xlink:title=" ">
<path fill="none" stroke="#63b8ff" d="M3090.26,-219.75C3097.46,-212.11 3108.11,-200.82 3116.85,-191.56"/>
<polygon fill="#63b8ff" stroke="#63b8ff" points="3119.58,-193.76 3123.9,-184.09 3114.49,-188.96 3119.58,-193.76"/>
</a>
</g>
</g>
<!-- Node51 -->
<g id="Node000051" class="node">
<title>Node51</title>
<g id="a_Node000051"><a xlink:href="ipc_2Messages_8h.html" target="_top" xlink:title=" ">
<polygon fill="white" stroke="#666666" points="2980,-184 2888,-184 2888,-165 2980,-165 2980,-184"/>
<text text-anchor="middle" x="2934" y="-172" font-family="Helvetica,sans-Serif" font-size="10.00">ipc/Messages.h</text>
</a>
</g>
</g>
<!-- Node49&#45;&gt;Node51 -->
<g id="edge38_Node000049_Node000051" class="edge">
<title>Node49&#45;&gt;Node51</title>
<g id="a_edge38_Node000049_Node000051"><a xlink:title=" ">
<path fill="none" stroke="#63b8ff" d="M3058.22,-219.98C3033.77,-211.23 2995.47,-197.51 2967.85,-187.62"/>
<polygon fill="#63b8ff" stroke="#63b8ff" points="2968.81,-184.25 2958.21,-184.17 2966.45,-190.84 2968.81,-184.25"/>
</a>
</g>
</g>
<!-- Node52 -->
<g id="Node000052" class="node">
<title>Node52</title>
<g id="a_Node000052"><a xlink:title=" ">
<polygon fill="#e0e0e0" stroke="#999999" points="3067.5,-184 2998.5,-184 2998.5,-165 3067.5,-165 3067.5,-184"/>
<text text-anchor="middle" x="3033" y="-172" font-family="Helvetica,sans-Serif" font-size="10.00">type_traits</text>
</a>
</g>
</g>
<!-- Node49&#45;&gt;Node52 -->
<g id="edge39_Node000049_Node000052" class="edge">
<title>Node49&#45;&gt;Node52</title>
<g id="a_edge39_Node000049_Node000052"><a xlink:title=" ">
<path fill="none" stroke="#63b8ff" d="M3073.91,-219.75C3066.84,-212.11 3056.41,-200.82 3047.85,-191.56"/>
<polygon fill="#63b8ff" stroke="#63b8ff" points="3050.3,-189.06 3040.94,-184.09 3045.16,-193.81 3050.3,-189.06"/>
</a>
</g>
</g>
<!-- Node53&#45;&gt;Node44 -->
<g id="edge41_Node000053_Node000044" class="edge">
<title>Node53&#45;&gt;Node44</title>
<g id="a_edge41_Node000053_Node000044"><a xlink:title=" ">
<path fill="none" stroke="#63b8ff" d="M3313.91,-219.98C3303.51,-212 3287.74,-199.88 3275.28,-190.31"/>
<polygon fill="#63b8ff" stroke="#63b8ff" points="3277.35,-187.49 3267.29,-184.17 3273.09,-193.04 3277.35,-187.49"/>
</a>
</g>
</g>
<!-- Node54 -->
<g id="Node000054" class="node">
<title>Node54</title>
<g id="a_Node000054"><a xlink:href="debug_2Stream_8h.html" target="_top" xlink:title=" ">
<polygon fill="white" stroke="#666666" points="3662,-184 3568,-184 3568,-165 3662,-165 3662,-184"/>
<text text-anchor="middle" x="3615" y="-172" font-family="Helvetica,sans-Serif" font-size="10.00">debug/Stream.h</text>
</a>
</g>
</g>
<!-- Node53&#45;&gt;Node54 -->
<g id="edge42_Node000053_Node000054" class="edge">
<title>Node53&#45;&gt;Node54</title>
<g id="a_edge42_Node000053_Node000054"><a xlink:title=" ">
<path fill="none" stroke="#63b8ff" d="M3365.63,-221.07C3415.92,-211.88 3501.85,-196.18 3558.53,-185.82"/>
<polygon fill="#63b8ff" stroke="#63b8ff" points="3559.2,-189.26 3568.41,-184.01 3557.95,-182.37 3559.2,-189.26"/>
</a>
</g>
</g>
<!-- Node59 -->
<g id="Node000059" class="node">
<title>Node59</title>
<g id="a_Node000059"><a xlink:href="sbuf_2forward_8h.html" target="_top" xlink:title=" ">
<polygon fill="#fff0f0" stroke="red" points="3421.5,-184 3334.5,-184 3334.5,-165 3421.5,-165 3421.5,-184"/>
<text text-anchor="middle" x="3378" y="-172" font-family="Helvetica,sans-Serif" font-size="10.00">sbuf/forward.h</text>
</a>
</g>
</g>
<!-- Node53&#45;&gt;Node59 -->
<g id="edge48_Node000053_Node000059" class="edge">
<title>Node53&#45;&gt;Node59</title>
<g id="a_edge48_Node000053_Node000059"><a xlink:title=" ">
<path fill="none" stroke="#63b8ff" d="M3333.75,-219.75C3341.47,-212.03 3352.9,-200.6 3362.22,-191.28"/>
<polygon fill="#63b8ff" stroke="#63b8ff" points="3364.81,-193.64 3369.41,-184.09 3359.86,-188.69 3364.81,-193.64"/>
</a>
</g>
</g>
<!-- Node62 -->
<g id="Node000062" class="node">
<title>Node62</title>
<g id="a_Node000062"><a xlink:title=" ">
<polygon fill="#e0e0e0" stroke="#999999" points="3496.5,-184 3439.5,-184 3439.5,-165 3496.5,-165 3496.5,-184"/>
<text text-anchor="middle" x="3468" y="-172" font-family="Helvetica,sans-Serif" font-size="10.00">ostream</text>
</a>
</g>
</g>
<!-- Node53&#45;&gt;Node62 -->
<g id="edge50_Node000053_Node000062" class="edge">
<title>Node53&#45;&gt;Node62</title>
<g id="a_edge50_Node000053_Node000062"><a xlink:title=" ">
<path fill="none" stroke="#63b8ff" d="M3347.98,-219.98C3371.5,-211.27 3408.29,-197.63 3434.94,-187.75"/>
<polygon fill="#63b8ff" stroke="#63b8ff" points="3436.45,-190.93 3444.61,-184.17 3434.01,-184.36 3436.45,-190.93"/>
</a>
</g>
</g>
<!-- Node54&#45;&gt;Node46 -->
<g id="edge43_Node000054_Node000046" class="edge">
<title>Node54&#45;&gt;Node46</title>
<g id="a_edge43_Node000054_Node000046"><a xlink:title=" ">
<path fill="none" stroke="#63b8ff" d="M3609.01,-164.96C3598.79,-151.09 3576.61,-123.85 3551,-110 3500.24,-82.56 3434.02,-72.04 3389.85,-68"/>
<polygon fill="#63b8ff" stroke="#63b8ff" points="3389.93,-64.5 3379.68,-67.15 3389.35,-71.47 3389.93,-64.5"/>
</a>
</g>
</g>
<!-- Node55 -->
<g id="Node000055" class="node">
<title>Node55</title>
<g id="a_Node000055"><a xlink:href="AllocatorProxy_8h.html" target="_top" xlink:title=" ">
<polygon fill="white" stroke="#666666" points="3722,-129 3598,-129 3598,-110 3722,-110 3722,-129"/>
<text text-anchor="middle" x="3660" y="-117" font-family="Helvetica,sans-Serif" font-size="10.00">mem/AllocatorProxy.h</text>
</a>
</g>
</g>
<!-- Node54&#45;&gt;Node55 -->
<g id="edge44_Node000054_Node000055" class="edge">
<title>Node54&#45;&gt;Node55</title>
<g id="a_edge44_Node000054_Node000055"><a xlink:title=" ">
<path fill="none" stroke="#63b8ff" d="M3622.43,-164.75C3628.85,-157.18 3638.31,-146.05 3646.12,-136.84"/>
<polygon fill="#63b8ff" stroke="#63b8ff" points="3648.9,-138.98 3652.71,-129.09 3643.57,-134.45 3648.9,-138.98"/>
</a>
</g>
</g>
<!-- Node56 -->
<g id="Node000056" class="node">
<title>Node56</title>
<g id="a_Node000056"><a xlink:title=" ">
<polygon fill="#e0e0e0" stroke="#999999" points="3800,-129 3740,-129 3740,-110 3800,-110 3800,-129"/>
<text text-anchor="middle" x="3770" y="-117" font-family="Helvetica,sans-Serif" font-size="10.00">iostream</text>
</a>
</g>
</g>
<!-- Node54&#45;&gt;Node56 -->
<g id="edge45_Node000054_Node000056" class="edge">
<title>Node54&#45;&gt;Node56</title>
<g id="a_edge45_Node000054_Node000056"><a xlink:title=" ">
<path fill="none" stroke="#63b8ff" d="M3639.9,-164.98C3665.7,-156.16 3706.22,-142.31 3735.18,-132.41"/>
<polygon fill="#63b8ff" stroke="#63b8ff" points="3736.57,-135.63 3744.9,-129.08 3734.31,-129.01 3736.57,-135.63"/>
</a>
</g>
</g>
<!-- Node57 -->
<g id="Node000057" class="node">
<title>Node57</title>
<g id="a_Node000057"><a xlink:title=" ">
<polygon fill="#e0e0e0" stroke="#999999" points="3874,-129 3818,-129 3818,-110 3874,-110 3874,-129"/>
<text text-anchor="middle" x="3846" y="-117" font-family="Helvetica,sans-Serif" font-size="10.00">sstream</text>
</a>
</g>
</g>
<!-- Node54&#45;&gt;Node57 -->
<g id="edge46_Node000054_Node000057" class="edge">
<title>Node54&#45;&gt;Node57</title>
<g id="a_edge46_Node000054_Node000057"><a xlink:title=" ">
<path fill="none" stroke="#63b8ff" d="M3652.19,-164.97C3689.19,-156.49 3747.84,-143.04 3807.71,-129.3"/>
<polygon fill="#63b8ff" stroke="#63b8ff" points="3808.76,-132.65 3817.72,-127 3807.19,-125.82 3808.76,-132.65"/>
</a>
</g>
</g>
<!-- Node58 -->
<g id="Node000058" class="node">
<title>Node58</title>
<g id="a_Node000058"><a xlink:title=" ">
<polygon fill="#e0e0e0" stroke="#999999" points="3542,-129 3486,-129 3486,-110 3542,-110 3542,-129"/>
<text text-anchor="middle" x="3514" y="-117" font-family="Helvetica,sans-Serif" font-size="10.00">iomanip</text>
</a>
</g>
</g>
<!-- Node54&#45;&gt;Node58 -->
<g id="edge47_Node000054_Node000058" class="edge">
<title>Node54&#45;&gt;Node58</title>
<g id="a_edge47_Node000054_Node000058"><a xlink:title=" ">
<path fill="none" stroke="#63b8ff" d="M3598.77,-164.98C3582.82,-156.61 3558.22,-143.7 3539.62,-133.95"/>
<polygon fill="#63b8ff" stroke="#63b8ff" points="3541,-130.72 3530.52,-129.17 3537.75,-136.92 3541,-130.72"/>
</a>
</g>
</g>
<!-- Node60 -->
<g id="Node000060" class="node">
<title>Node60</title>
<g id="a_Node000060"><a xlink:title=" ">
<polygon fill="#e0e0e0" stroke="#999999" points="3467.5,-129 3402.5,-129 3402.5,-110 3467.5,-110 3467.5,-129"/>
<text text-anchor="middle" x="3435" y="-117" font-family="Helvetica,sans-Serif" font-size="10.00">functional</text>
</a>
</g>
</g>
<!-- Node59&#45;&gt;Node60 -->
<g id="edge49_Node000059_Node000060" class="edge">
<title>Node59&#45;&gt;Node60</title>
<g id="a_edge49_Node000059_Node000060"><a xlink:title=" ">
<path fill="none" stroke="#63b8ff" d="M3387.16,-164.98C3395.5,-157.23 3408.03,-145.58 3418.18,-136.14"/>
<polygon fill="#63b8ff" stroke="#63b8ff" points="3420.74,-138.54 3425.68,-129.17 3415.97,-133.42 3420.74,-138.54"/>
</a>
</g>
</g>
</g>
</svg>

<g id="navigator" transform="translate(0 0)" fill="#404254">
  <rect fill="#f2f5e9" fill-opacity="0.5" stroke="#606060" stroke-width=".5" x="0" y="0" width="60" height="60"/>
  <use id="zoomplus" xlink:href="#zoomPlus" x="17" y="9" onmousedown="handleZoom(evt,'in')"/>
  <use id="zoomminus" xlink:href="#zoomMin" x="42" y="9" onmousedown="handleZoom(evt,'out')"/>
  <use id="reset" xlink:href="#resetDef" x="30" y="36" onmousedown="handleReset()"/>
   <use id="arrowup" xlink:href="#arrowUp" x="0" y="0" onmousedown="handlePan(0,-1)"/>
  <use id="arrowright" xlink:href="#arrowRight" x="0" y="0" onmousedown="handlePan(1,0)"/>
  <use id="arrowdown" xlink:href="#arrowDown" x="0" y="0" onmousedown="handlePan(0,1)"/>
  <use id="arrowleft" xlink:href="#arrowLeft" x="0" y="0" onmousedown="handlePan(-1,0)"/>
</g>
<svg viewBox="0 0 15 15" width="100%" height="30px" preserveAspectRatio="xMaxYMin meet">
 <g id="arrow_out" transform="scale(0.3 0.3)">
  <a xlink:href="TypedMsgHdr_8cc__incl_org.svg" target="_base">
   <rect id="button" ry="5" rx="5" y="6" x="6" height="38" width="38"
        fill="#f2f5e9" fill-opacity="0.5" stroke="#606060" stroke-width="1.0"/>
   <path id="arrow"
     d="M 11.500037,31.436501 C 11.940474,20.09759 22.043105,11.32322 32.158766,21.979434 L 37.068811,17.246167 C 37.068811,17.246167 37.088388,32 37.088388,32 L 22.160133,31.978069 C 22.160133,31.978069 26.997745,27.140456 26.997745,27.140456 C 18.528582,18.264221 13.291696,25.230495 11.500037,31.436501 z"
     style="fill:#404040;"/>
  </a>
 </g>
</svg>

<style type='text/css'>
<![CDATA[
[data-mouse-over-selected='false'] { opacity: 0.7; }
[data-mouse-over-selected='true']  { opacity: 1.0; }
]]>
</style>
<script type="application/ecmascript"><![CDATA[
document.addEventListener('DOMContentLoaded', (event) => {
  highlightEdges();
  highlightAdjacentNodes();
});
]]></script>
</svg>
