<?xml version="1.0" encoding="UTF-8" standalone="no"?>
<!DOCTYPE svg PUBLIC "-//W3C//DTD SVG 1.1//EN"
 "http://www.w3.org/Graphics/SVG/1.1/DTD/svg11.dtd">
<!-- Generated by graphviz version 2.43.0 (0)
 -->
<!-- Title: squid/src/fs/ufs/UFSStrategy.h Pages: 1 -->
<!--zoomable 225 -->

<svg id="main" version="1.1" xmlns="http://www.w3.org/2000/svg" xmlns:xlink="http://www.w3.org/1999/xlink" xml:space="preserve" onload="init(evt)">
<style type="text/css"><![CDATA[
.node, .edge {opacity: 0.7;}
.node.selected, .edge.selected {opacity: 1;}
.edge:hover path { stroke: red; }
.edge:hover polygon { stroke: red; fill: red; }
]]></style>

<defs>
  <circle id="rim" cx="0" cy="0" r="7"/>
  <circle id="rim2" cx="0" cy="0" r="3.5"/>
  <g id="zoomPlus">
    <use xlink:href="#rim" fill="#404040"><set attributeName="fill" to="#808080" begin="zoomplus.mouseover" end="zoomplus.mouseout"/></use>
    <path d="M-4,0h8M0,-4v8" fill="none" stroke="white" stroke-width="1.5" pointer-events="none"/>
  </g>
  <g id="zoomMin">
    <use xlink:href="#rim" fill="#404040"><set attributeName="fill" to="#808080" begin="zoomminus.mouseover" end="zoomminus.mouseout"/></use>
    <path d="M-4,0h8" fill="none" stroke="white" stroke-width="1.5" pointer-events="none"/>
  </g>
  <g id="arrowUp" transform="translate(30 24)">
    <use xlink:href="#rim"/>
    <path pointer-events="none" fill="none" stroke="white" stroke-width="1.5" d="M0,-3.0v7 M-2.5,-0.5L0,-3.0L2.5,-0.5"/>
  </g>
  <g id="arrowRight" transform="rotate(90) translate(36 -43)">
    <use xlink:href="#rim"/>
    <path pointer-events="none" fill="none" stroke="white" stroke-width="1.5" d="M0,-3.0v7 M-2.5,-0.5L0,-3.0L2.5,-0.5"/>
  </g>
  <g id="arrowDown" transform="rotate(180) translate(-30 -48)">
    <use xlink:href="#rim"/>
    <path pointer-events="none" fill="none" stroke="white" stroke-width="1.5" d="M0,-3.0v7 M-2.5,-0.5L0,-3.0L2.5,-0.5"/>
  </g>
  <g id="arrowLeft" transform="rotate(270) translate(-36 17)">
    <use xlink:href="#rim"/>
    <path pointer-events="none" fill="none" stroke="white" stroke-width="1.5" d="M0,-3.0v7 M-2.5,-0.5L0,-3.0L2.5,-0.5"/>
  </g>
  <g id="resetDef">
    <use xlink:href="#rim2" fill="#404040"><set attributeName="fill" to="#808080" begin="reset.mouseover" end="reset.mouseout"/></use>
  </g>
</defs>
<script type="application/ecmascript">
var viewWidth = 1001;
var viewHeight = 225;
var sectionId = 'dynsection-1';
</script>
<script type="application/ecmascript" xlink:href="svg.min.js"/>
<svg id="graph" class="graph">
<g id="viewport">
<title>squid/src/fs/ufs/UFSStrategy.h</title>
<!-- Node1 -->
<g id="Node000001" class="node">
<title>Node1</title>
<g id="a_Node000001"><a xlink:title=" ">
<polygon fill="#999999" stroke="#666666" points="284,-217 123,-217 123,-198 284,-198 284,-217"/>
<text text-anchor="middle" x="203.5" y="-205" font-family="Helvetica,sans-Serif" font-size="10.00">squid/src/fs/ufs/UFSStrategy.h</text>
</a>
</g>
</g>
<!-- Node2 -->
<g id="Node000002" class="node">
<title>Node2</title>
<g id="a_Node000002"><a xlink:href="UFSStoreState_8cc.html" target="_top" xlink:title=" ">
<polygon fill="white" stroke="#666666" points="175,-162 38,-162 38,-132 175,-132 175,-162"/>
<text text-anchor="start" x="46" y="-150" font-family="Helvetica,sans-Serif" font-size="10.00">squid/src/fs/ufs/UFSStore</text>
<text text-anchor="middle" x="106.5" y="-139" font-family="Helvetica,sans-Serif" font-size="10.00">State.cc</text>
</a>
</g>
</g>
<!-- Node1&#45;&gt;Node2 -->
<g id="edge1_Node000001_Node000002" class="edge">
<title>Node1&#45;&gt;Node2</title>
<g id="a_edge1_Node000001_Node000002"><a xlink:title=" ">
<path fill="none" stroke="#63b8ff" d="M180.38,-192.55C165.12,-183.36 145.21,-171.35 129.9,-162.11"/>
<polygon fill="#63b8ff" stroke="#63b8ff" points="178.82,-195.7 189.19,-197.87 182.43,-189.71 178.82,-195.7"/>
</a>
</g>
</g>
<!-- Node3 -->
<g id="Node000003" class="node">
<title>Node3</title>
<g id="a_Node000003"><a xlink:href="UFSStrategy_8cc.html" target="_top" xlink:title=" ">
<polygon fill="white" stroke="#666666" points="165,-90.5 0,-90.5 0,-71.5 165,-71.5 165,-90.5"/>
<text text-anchor="middle" x="82.5" y="-78.5" font-family="Helvetica,sans-Serif" font-size="10.00">squid/src/fs/ufs/UFSStrategy.cc</text>
</a>
</g>
</g>
<!-- Node1&#45;&gt;Node3 -->
<g id="edge2_Node000001_Node000003" class="edge">
<title>Node1&#45;&gt;Node3</title>
<g id="a_edge2_Node000001_Node000003"><a xlink:title=" ">
<path fill="none" stroke="#63b8ff" d="M202.69,-187.64C201.08,-171.28 196.47,-147.82 183.5,-132 166.26,-110.97 137.96,-98.03 115.7,-90.61"/>
<polygon fill="#63b8ff" stroke="#63b8ff" points="199.2,-187.91 203.39,-197.64 206.19,-187.42 199.2,-187.91"/>
</a>
</g>
</g>
<!-- Node4 -->
<g id="Node000004" class="node">
<title>Node4</title>
<g id="a_Node000004"><a xlink:href="UFSSwapDir_8h.html" target="_top" xlink:title=" ">
<polygon fill="white" stroke="#666666" points="558.5,-162 420.5,-162 420.5,-132 558.5,-132 558.5,-162"/>
<text text-anchor="start" x="428.5" y="-150" font-family="Helvetica,sans-Serif" font-size="10.00">squid/src/fs/ufs/UFSSwap</text>
<text text-anchor="middle" x="489.5" y="-139" font-family="Helvetica,sans-Serif" font-size="10.00">Dir.h</text>
</a>
</g>
</g>
<!-- Node1&#45;&gt;Node4 -->
<g id="edge3_Node000001_Node000004" class="edge">
<title>Node1&#45;&gt;Node4</title>
<g id="a_edge3_Node000001_Node000004"><a xlink:title=" ">
<path fill="none" stroke="#63b8ff" d="M254.93,-195.98C301.34,-186.49 369.97,-172.45 421.02,-162.01"/>
<polygon fill="#63b8ff" stroke="#63b8ff" points="254.18,-192.56 245.09,-197.99 255.59,-199.42 254.18,-192.56"/>
</a>
</g>
</g>
<!-- Node4&#45;&gt;Node3 -->
<g id="edge10_Node000004_Node000003" class="edge">
<title>Node4&#45;&gt;Node3</title>
<g id="a_edge10_Node000004_Node000003"><a xlink:title=" ">
<path fill="none" stroke="#63b8ff" d="M410.35,-133.55C329.67,-120.87 206.72,-101.53 136.56,-90.5"/>
<polygon fill="#63b8ff" stroke="#63b8ff" points="410.04,-137.05 420.46,-135.14 411.12,-130.13 410.04,-137.05"/>
</a>
</g>
</g>
<!-- Node5 -->
<g id="Node000005" class="node">
<title>Node5</title>
<g id="a_Node000005"><a xlink:href="StoreFSaufs_8cc.html" target="_top" xlink:title=" ">
<polygon fill="white" stroke="#666666" points="353.5,-90.5 183.5,-90.5 183.5,-71.5 353.5,-71.5 353.5,-90.5"/>
<text text-anchor="middle" x="268.5" y="-78.5" font-family="Helvetica,sans-Serif" font-size="10.00">squid/src/fs/aufs/StoreFSaufs.cc</text>
</a>
</g>
</g>
<!-- Node4&#45;&gt;Node5 -->
<g id="edge4_Node000004_Node000005" class="edge">
<title>Node4&#45;&gt;Node5</title>
<g id="a_edge4_Node000004_Node000005"><a xlink:title=" ">
<path fill="none" stroke="#63b8ff" d="M431.24,-129.13C388.35,-116.71 331.81,-100.33 297.91,-90.52"/>
<polygon fill="#63b8ff" stroke="#63b8ff" points="430.42,-132.54 441,-131.95 432.37,-125.81 430.42,-132.54"/>
</a>
</g>
</g>
<!-- Node6 -->
<g id="Node000006" class="node">
<title>Node6</title>
<g id="a_Node000006"><a xlink:href="StoreFSdiskd_8cc.html" target="_top" xlink:title=" ">
<polygon fill="white" stroke="#666666" points="473,-96 372,-96 372,-66 473,-66 473,-96"/>
<text text-anchor="start" x="380" y="-84" font-family="Helvetica,sans-Serif" font-size="10.00">squid/src/fs/diskd</text>
<text text-anchor="middle" x="422.5" y="-73" font-family="Helvetica,sans-Serif" font-size="10.00">/StoreFSdiskd.cc</text>
</a>
</g>
</g>
<!-- Node4&#45;&gt;Node6 -->
<g id="edge5_Node000004_Node000006" class="edge">
<title>Node4&#45;&gt;Node6</title>
<g id="a_edge5_Node000004_Node000006"><a xlink:title=" ">
<path fill="none" stroke="#63b8ff" d="M467.15,-124.65C457.33,-115.27 446.08,-104.53 437.33,-96.16"/>
<polygon fill="#63b8ff" stroke="#63b8ff" points="464.98,-127.42 474.63,-131.8 469.82,-122.36 464.98,-127.42"/>
</a>
</g>
</g>
<!-- Node7 -->
<g id="Node000007" class="node">
<title>Node7</title>
<g id="a_Node000007"><a xlink:href="RebuildState_8h.html" target="_top" xlink:title=" ">
<polygon fill="white" stroke="#666666" points="621.5,-96 491.5,-96 491.5,-66 621.5,-66 621.5,-96"/>
<text text-anchor="start" x="499.5" y="-84" font-family="Helvetica,sans-Serif" font-size="10.00">squid/src/fs/ufs/Rebuild</text>
<text text-anchor="middle" x="556.5" y="-73" font-family="Helvetica,sans-Serif" font-size="10.00">State.h</text>
</a>
</g>
</g>
<!-- Node4&#45;&gt;Node7 -->
<g id="edge6_Node000004_Node000007" class="edge">
<title>Node4&#45;&gt;Node7</title>
<g id="a_edge6_Node000004_Node000007"><a xlink:title=" ">
<path fill="none" stroke="#63b8ff" d="M511.85,-124.65C521.67,-115.27 532.92,-104.53 541.67,-96.16"/>
<polygon fill="#63b8ff" stroke="#63b8ff" points="509.18,-122.36 504.37,-131.8 514.02,-127.42 509.18,-122.36"/>
</a>
</g>
</g>
<!-- Node9 -->
<g id="Node000009" class="node">
<title>Node9</title>
<g id="a_Node000009"><a xlink:href="UFSSwapDir_8cc.html" target="_top" xlink:title=" ">
<polygon fill="white" stroke="#666666" points="718.5,-30 580.5,-30 580.5,0 718.5,0 718.5,-30"/>
<text text-anchor="start" x="588.5" y="-18" font-family="Helvetica,sans-Serif" font-size="10.00">squid/src/fs/ufs/UFSSwap</text>
<text text-anchor="middle" x="649.5" y="-7" font-family="Helvetica,sans-Serif" font-size="10.00">Dir.cc</text>
</a>
</g>
</g>
<!-- Node4&#45;&gt;Node9 -->
<g id="edge11_Node000004_Node000009" class="edge">
<title>Node4&#45;&gt;Node9</title>
<g id="a_edge11_Node000004_Node000009"><a xlink:title=" ">
<path fill="none" stroke="#63b8ff" d="M568.43,-132.91C591.25,-125.53 614.33,-114.01 630.5,-96 646.9,-77.73 649.84,-47.9 650,-30.29"/>
<polygon fill="#63b8ff" stroke="#63b8ff" points="567.27,-129.6 558.69,-135.82 569.27,-136.31 567.27,-129.6"/>
</a>
</g>
</g>
<!-- Node10 -->
<g id="Node000010" class="node">
<title>Node10</title>
<g id="a_Node000010"><a xlink:href="StoreFSufs_8cc.html" target="_top" xlink:title=" ">
<polygon fill="white" stroke="#666666" points="835.5,-90.5 677.5,-90.5 677.5,-71.5 835.5,-71.5 835.5,-90.5"/>
<text text-anchor="middle" x="756.5" y="-78.5" font-family="Helvetica,sans-Serif" font-size="10.00">squid/src/fs/ufs/StoreFSufs.cc</text>
</a>
</g>
</g>
<!-- Node4&#45;&gt;Node10 -->
<g id="edge9_Node000004_Node000010" class="edge">
<title>Node4&#45;&gt;Node10</title>
<g id="a_edge9_Node000004_Node000010"><a xlink:title=" ">
<path fill="none" stroke="#63b8ff" d="M557.93,-129.6C609.98,-117.12 679.5,-100.46 720.97,-90.52"/>
<polygon fill="#63b8ff" stroke="#63b8ff" points="557,-126.22 548.09,-131.95 558.63,-133.03 557,-126.22"/>
</a>
</g>
</g>
<!-- Node11 -->
<g id="Node000011" class="node">
<title>Node11</title>
<g id="a_Node000011"><a xlink:href="testUfs_8cc.html" target="_top" xlink:title=" ">
<polygon fill="white" stroke="#666666" points="993,-90.5 854,-90.5 854,-71.5 993,-71.5 993,-90.5"/>
<text text-anchor="middle" x="923.5" y="-78.5" font-family="Helvetica,sans-Serif" font-size="10.00">squid/src/tests/testUfs.cc</text>
</a>
</g>
</g>
<!-- Node4&#45;&gt;Node11 -->
<g id="edge12_Node000004_Node000011" class="edge">
<title>Node4&#45;&gt;Node11</title>
<g id="a_edge12_Node000004_Node000011"><a xlink:title=" ">
<path fill="none" stroke="#63b8ff" d="M569.01,-135.62C641.04,-126.03 750.03,-111.02 844.5,-96 854.95,-94.34 866.16,-92.43 876.76,-90.57"/>
<polygon fill="#63b8ff" stroke="#63b8ff" points="568.11,-132.21 558.66,-137 569.03,-139.15 568.11,-132.21"/>
</a>
</g>
</g>
<!-- Node8 -->
<g id="Node000008" class="node">
<title>Node8</title>
<g id="a_Node000008"><a xlink:href="RebuildState_8cc.html" target="_top" xlink:title=" ">
<polygon fill="white" stroke="#666666" points="562.5,-30 432.5,-30 432.5,0 562.5,0 562.5,-30"/>
<text text-anchor="start" x="440.5" y="-18" font-family="Helvetica,sans-Serif" font-size="10.00">squid/src/fs/ufs/Rebuild</text>
<text text-anchor="middle" x="497.5" y="-7" font-family="Helvetica,sans-Serif" font-size="10.00">State.cc</text>
</a>
</g>
</g>
<!-- Node7&#45;&gt;Node8 -->
<g id="edge7_Node000007_Node000008" class="edge">
<title>Node7&#45;&gt;Node8</title>
<g id="a_edge7_Node000007_Node000008"><a xlink:title=" ">
<path fill="none" stroke="#63b8ff" d="M536.56,-58.37C527.98,-49.06 518.19,-38.44 510.56,-30.16"/>
<polygon fill="#63b8ff" stroke="#63b8ff" points="534.05,-60.82 543.41,-65.8 539.2,-56.07 534.05,-60.82"/>
</a>
</g>
</g>
<!-- Node7&#45;&gt;Node9 -->
<g id="edge8_Node000007_Node000009" class="edge">
<title>Node7&#45;&gt;Node9</title>
<g id="a_edge8_Node000007_Node000009"><a xlink:title=" ">
<path fill="none" stroke="#63b8ff" d="M585.52,-60.03C599.59,-50.34 616.17,-38.94 628.92,-30.16"/>
<polygon fill="#63b8ff" stroke="#63b8ff" points="583.39,-57.24 577.14,-65.8 587.36,-63.01 583.39,-57.24"/>
</a>
</g>
</g>
</g>
</svg>

<g id="navigator" transform="translate(0 0)" fill="#404254">
  <rect fill="#f2f5e9" fill-opacity="0.5" stroke="#606060" stroke-width=".5" x="0" y="0" width="60" height="60"/>
  <use id="zoomplus" xlink:href="#zoomPlus" x="17" y="9" onmousedown="handleZoom(evt,'in')"/>
  <use id="zoomminus" xlink:href="#zoomMin" x="42" y="9" onmousedown="handleZoom(evt,'out')"/>
  <use id="reset" xlink:href="#resetDef" x="30" y="36" onmousedown="handleReset()"/>
   <use id="arrowup" xlink:href="#arrowUp" x="0" y="0" onmousedown="handlePan(0,-1)"/>
  <use id="arrowright" xlink:href="#arrowRight" x="0" y="0" onmousedown="handlePan(1,0)"/>
  <use id="arrowdown" xlink:href="#arrowDown" x="0" y="0" onmousedown="handlePan(0,1)"/>
  <use id="arrowleft" xlink:href="#arrowLeft" x="0" y="0" onmousedown="handlePan(-1,0)"/>
</g>
<svg viewBox="0 0 15 15" width="100%" height="30px" preserveAspectRatio="xMaxYMin meet">
 <g id="arrow_out" transform="scale(0.3 0.3)">
  <a xlink:href="UFSStrategy_8h__dep__incl_org.svg" target="_base">
   <rect id="button" ry="5" rx="5" y="6" x="6" height="38" width="38"
        fill="#f2f5e9" fill-opacity="0.5" stroke="#606060" stroke-width="1.0"/>
   <path id="arrow"
     d="M 11.500037,31.436501 C 11.940474,20.09759 22.043105,11.32322 32.158766,21.979434 L 37.068811,17.246167 C 37.068811,17.246167 37.088388,32 37.088388,32 L 22.160133,31.978069 C 22.160133,31.978069 26.997745,27.140456 26.997745,27.140456 C 18.528582,18.264221 13.291696,25.230495 11.500037,31.436501 z"
     style="fill:#404040;"/>
  </a>
 </g>
</svg>

<style type='text/css'>
<![CDATA[
[data-mouse-over-selected='false'] { opacity: 0.7; }
[data-mouse-over-selected='true']  { opacity: 1.0; }
]]>
</style>
<script type="application/ecmascript"><![CDATA[
document.addEventListener('DOMContentLoaded', (event) => {
  highlightEdges();
  highlightAdjacentNodes();
});
]]></script>
</svg>
