<?xml version="1.0" encoding="UTF-8" standalone="no"?>
<!DOCTYPE svg PUBLIC "-//W3C//DTD SVG 1.1//EN"
 "http://www.w3.org/Graphics/SVG/1.1/DTD/svg11.dtd">
<!-- Generated by graphviz version 2.43.0 (0)
 -->
<!-- Title: squid/src/wordlist.cc Pages: 1 -->
<!--zoomable 412 -->

<svg id="main" version="1.1" xmlns="http://www.w3.org/2000/svg" xmlns:xlink="http://www.w3.org/1999/xlink" xml:space="preserve" onload="init(evt)">
<style type="text/css"><![CDATA[
.node, .edge {opacity: 0.7;}
.node.selected, .edge.selected {opacity: 1;}
.edge:hover path { stroke: red; }
.edge:hover polygon { stroke: red; fill: red; }
]]></style>

<defs>
  <circle id="rim" cx="0" cy="0" r="7"/>
  <circle id="rim2" cx="0" cy="0" r="3.5"/>
  <g id="zoomPlus">
    <use xlink:href="#rim" fill="#404040"><set attributeName="fill" to="#808080" begin="zoomplus.mouseover" end="zoomplus.mouseout"/></use>
    <path d="M-4,0h8M0,-4v8" fill="none" stroke="white" stroke-width="1.5" pointer-events="none"/>
  </g>
  <g id="zoomMin">
    <use xlink:href="#rim" fill="#404040"><set attributeName="fill" to="#808080" begin="zoomminus.mouseover" end="zoomminus.mouseout"/></use>
    <path d="M-4,0h8" fill="none" stroke="white" stroke-width="1.5" pointer-events="none"/>
  </g>
  <g id="arrowUp" transform="translate(30 24)">
    <use xlink:href="#rim"/>
    <path pointer-events="none" fill="none" stroke="white" stroke-width="1.5" d="M0,-3.0v7 M-2.5,-0.5L0,-3.0L2.5,-0.5"/>
  </g>
  <g id="arrowRight" transform="rotate(90) translate(36 -43)">
    <use xlink:href="#rim"/>
    <path pointer-events="none" fill="none" stroke="white" stroke-width="1.5" d="M0,-3.0v7 M-2.5,-0.5L0,-3.0L2.5,-0.5"/>
  </g>
  <g id="arrowDown" transform="rotate(180) translate(-30 -48)">
    <use xlink:href="#rim"/>
    <path pointer-events="none" fill="none" stroke="white" stroke-width="1.5" d="M0,-3.0v7 M-2.5,-0.5L0,-3.0L2.5,-0.5"/>
  </g>
  <g id="arrowLeft" transform="rotate(270) translate(-36 17)">
    <use xlink:href="#rim"/>
    <path pointer-events="none" fill="none" stroke="white" stroke-width="1.5" d="M0,-3.0v7 M-2.5,-0.5L0,-3.0L2.5,-0.5"/>
  </g>
  <g id="resetDef">
    <use xlink:href="#rim2" fill="#404040"><set attributeName="fill" to="#808080" begin="reset.mouseover" end="reset.mouseout"/></use>
  </g>
</defs>
<script type="application/ecmascript">
var viewWidth = 3725;
var viewHeight = 412;
var sectionId = 'dynsection-0';
</script>
<script type="application/ecmascript" xlink:href="svg.min.js"/>
<svg id="graph" class="graph">
<g id="viewport">
<title>squid/src/wordlist.cc</title>
<!-- Node1 -->
<g id="Node000001" class="node">
<title>Node1</title>
<g id="a_Node000001"><a xlink:title=" ">
<polygon fill="#999999" stroke="#666666" points="3188.5,-404 3072.5,-404 3072.5,-385 3188.5,-385 3188.5,-404"/>
<text text-anchor="middle" x="3130.5" y="-392" font-family="Helvetica,sans-Serif" font-size="10.00">squid/src/wordlist.cc</text>
</a>
</g>
</g>
<!-- Node2 -->
<g id="Node000002" class="node">
<title>Node2</title>
<g id="a_Node000002"><a xlink:href="squid_8h.html" target="_top" xlink:title=" ">
<polygon fill="white" stroke="#666666" points="1653.5,-349 1601.5,-349 1601.5,-330 1653.5,-330 1653.5,-349"/>
<text text-anchor="middle" x="1627.5" y="-337" font-family="Helvetica,sans-Serif" font-size="10.00">squid.h</text>
</a>
</g>
</g>
<!-- Node1&#45;&gt;Node2 -->
<g id="edge1_Node000001_Node000002" class="edge">
<title>Node1&#45;&gt;Node2</title>
<g id="a_edge1_Node000001_Node000002"><a xlink:title=" ">
<path fill="none" stroke="#63b8ff" d="M3072.04,-391.44C2824.17,-382.7 1863.56,-348.82 1663.95,-341.79"/>
<polygon fill="#63b8ff" stroke="#63b8ff" points="1663.83,-338.28 1653.72,-341.42 1663.59,-345.27 1663.83,-338.28"/>
</a>
</g>
</g>
<!-- Node44 -->
<g id="Node000044" class="node">
<title>Node44</title>
<g id="a_Node000044"><a xlink:href="MemBuf_8h.html" target="_top" xlink:title=" ">
<polygon fill="white" stroke="#666666" points="3163.5,-349 3097.5,-349 3097.5,-330 3163.5,-330 3163.5,-349"/>
<text text-anchor="middle" x="3130.5" y="-337" font-family="Helvetica,sans-Serif" font-size="10.00">MemBuf.h</text>
</a>
</g>
</g>
<!-- Node1&#45;&gt;Node44 -->
<g id="edge33_Node000001_Node000044" class="edge">
<title>Node1&#45;&gt;Node44</title>
<g id="a_edge33_Node000001_Node000044"><a xlink:title=" ">
<path fill="none" stroke="#63b8ff" d="M3130.5,-384.75C3130.5,-377.8 3130.5,-367.85 3130.5,-359.13"/>
<polygon fill="#63b8ff" stroke="#63b8ff" points="3134,-359.09 3130.5,-349.09 3127,-359.09 3134,-359.09"/>
</a>
</g>
</g>
<!-- Node50 -->
<g id="Node000050" class="node">
<title>Node50</title>
<g id="a_Node000050"><a xlink:href="wordlist_8h.html" target="_top" xlink:title=" ">
<polygon fill="white" stroke="#666666" points="3566,-349 3501,-349 3501,-330 3566,-330 3566,-349"/>
<text text-anchor="middle" x="3533.5" y="-337" font-family="Helvetica,sans-Serif" font-size="10.00">wordlist.h</text>
</a>
</g>
</g>
<!-- Node1&#45;&gt;Node50 -->
<g id="edge39_Node000001_Node000050" class="edge">
<title>Node1&#45;&gt;Node50</title>
<g id="a_edge39_Node000001_Node000050"><a xlink:title=" ">
<path fill="none" stroke="#63b8ff" d="M3188.67,-385.85C3270.63,-375.07 3418.19,-355.67 3490.79,-346.12"/>
<polygon fill="#63b8ff" stroke="#63b8ff" points="3491.48,-349.56 3500.94,-344.78 3490.57,-342.62 3491.48,-349.56"/>
</a>
</g>
</g>
<!-- Node3 -->
<g id="Node000003" class="node">
<title>Node3</title>
<g id="a_Node000003"><a xlink:href="autoconf_8h.html" target="_top" xlink:title=" ">
<polygon fill="white" stroke="#666666" points="1528.5,-294 1460.5,-294 1460.5,-275 1528.5,-275 1528.5,-294"/>
<text text-anchor="middle" x="1494.5" y="-282" font-family="Helvetica,sans-Serif" font-size="10.00">autoconf.h</text>
</a>
</g>
</g>
<!-- Node2&#45;&gt;Node3 -->
<g id="edge2_Node000002_Node000003" class="edge">
<title>Node2&#45;&gt;Node3</title>
<g id="a_edge2_Node000002_Node000003"><a xlink:title=" ">
<path fill="none" stroke="#63b8ff" d="M1606.13,-329.98C1584.35,-321.3 1550.34,-307.75 1525.58,-297.88"/>
<polygon fill="#63b8ff" stroke="#63b8ff" points="1526.84,-294.62 1516.26,-294.17 1524.25,-301.12 1526.84,-294.62"/>
</a>
</g>
</g>
<!-- Node4 -->
<g id="Node000004" class="node">
<title>Node4</title>
<g id="a_Node000004"><a xlink:href="version_8h.html" target="_top" xlink:title=" ">
<polygon fill="white" stroke="#666666" points="1608.5,-294 1546.5,-294 1546.5,-275 1608.5,-275 1608.5,-294"/>
<text text-anchor="middle" x="1577.5" y="-282" font-family="Helvetica,sans-Serif" font-size="10.00">version.h</text>
</a>
</g>
</g>
<!-- Node2&#45;&gt;Node4 -->
<g id="edge3_Node000002_Node000004" class="edge">
<title>Node2&#45;&gt;Node4</title>
<g id="a_edge3_Node000002_Node000004"><a xlink:title=" ">
<path fill="none" stroke="#63b8ff" d="M1619.24,-329.75C1612.04,-322.11 1601.39,-310.82 1592.65,-301.56"/>
<polygon fill="#63b8ff" stroke="#63b8ff" points="1595.01,-298.96 1585.6,-294.09 1589.92,-303.76 1595.01,-298.96"/>
</a>
</g>
</g>
<!-- Node5 -->
<g id="Node000005" class="node">
<title>Node5</title>
<g id="a_Node000005"><a xlink:href="compat_8h.html" target="_top" xlink:title=" ">
<polygon fill="white" stroke="#666666" points="1728.5,-294 1626.5,-294 1626.5,-275 1728.5,-275 1728.5,-294"/>
<text text-anchor="middle" x="1677.5" y="-282" font-family="Helvetica,sans-Serif" font-size="10.00">compat/compat.h</text>
</a>
</g>
</g>
<!-- Node2&#45;&gt;Node5 -->
<g id="edge4_Node000002_Node000005" class="edge">
<title>Node2&#45;&gt;Node5</title>
<g id="a_edge4_Node000002_Node000005"><a xlink:title=" ">
<path fill="none" stroke="#63b8ff" d="M1635.76,-329.75C1642.96,-322.11 1653.61,-310.82 1662.35,-301.56"/>
<polygon fill="#63b8ff" stroke="#63b8ff" points="1665.08,-303.76 1669.4,-294.09 1659.99,-298.96 1665.08,-303.76"/>
</a>
</g>
</g>
<!-- Node6 -->
<g id="Node000006" class="node">
<title>Node6</title>
<g id="a_Node000006"><a xlink:href="osdetect_8h.html" target="_top" xlink:title=" ">
<polygon fill="white" stroke="#666666" points="107,-239 0,-239 0,-220 107,-220 107,-239"/>
<text text-anchor="middle" x="53.5" y="-227" font-family="Helvetica,sans-Serif" font-size="10.00">compat/osdetect.h</text>
</a>
</g>
</g>
<!-- Node5&#45;&gt;Node6 -->
<g id="edge5_Node000005_Node000006" class="edge">
<title>Node5&#45;&gt;Node6</title>
<g id="a_edge5_Node000005_Node000006"><a xlink:title=" ">
<path fill="none" stroke="#63b8ff" d="M1626.48,-275.86C1623.45,-275.53 1620.44,-275.24 1617.5,-275 955.87,-220.39 783.48,-290.96 117.41,-238.95"/>
<polygon fill="#63b8ff" stroke="#63b8ff" points="117.32,-235.43 107.07,-238.14 116.77,-242.41 117.32,-235.43"/>
</a>
</g>
</g>
<!-- Node7 -->
<g id="Node000007" class="node">
<title>Node7</title>
<g id="a_Node000007"><a xlink:href="fdsetsize_8h.html" target="_top" xlink:title=" ">
<polygon fill="white" stroke="#666666" points="235.5,-239 125.5,-239 125.5,-220 235.5,-220 235.5,-239"/>
<text text-anchor="middle" x="180.5" y="-227" font-family="Helvetica,sans-Serif" font-size="10.00">compat/fdsetsize.h</text>
</a>
</g>
</g>
<!-- Node5&#45;&gt;Node7 -->
<g id="edge6_Node000005_Node000007" class="edge">
<title>Node5&#45;&gt;Node7</title>
<g id="a_edge6_Node000005_Node000007"><a xlink:title=" ">
<path fill="none" stroke="#63b8ff" d="M1626.48,-275.87C1623.45,-275.54 1620.44,-275.25 1617.5,-275 1012.61,-224.39 854.79,-286.55 245.98,-239.01"/>
<polygon fill="#63b8ff" stroke="#63b8ff" points="245.86,-235.49 235.62,-238.2 245.31,-242.47 245.86,-235.49"/>
</a>
</g>
</g>
<!-- Node8 -->
<g id="Node000008" class="node">
<title>Node8</title>
<g id="a_Node000008"><a xlink:href="types_8h.html" target="_top" xlink:title=" ">
<polygon fill="white" stroke="#666666" points="345.5,-239 253.5,-239 253.5,-220 345.5,-220 345.5,-239"/>
<text text-anchor="middle" x="299.5" y="-227" font-family="Helvetica,sans-Serif" font-size="10.00">compat/types.h</text>
</a>
</g>
</g>
<!-- Node5&#45;&gt;Node8 -->
<g id="edge7_Node000005_Node000008" class="edge">
<title>Node5&#45;&gt;Node8</title>
<g id="a_edge7_Node000005_Node000008"><a xlink:title=" ">
<path fill="none" stroke="#63b8ff" d="M1626.48,-275.88C1623.45,-275.55 1620.44,-275.25 1617.5,-275 1061.36,-227.83 915.52,-289.23 356.02,-239"/>
<polygon fill="#63b8ff" stroke="#63b8ff" points="355.94,-235.48 345.66,-238.06 355.31,-242.45 355.94,-235.48"/>
</a>
</g>
</g>
<!-- Node10 -->
<g id="Node000010" class="node">
<title>Node10</title>
<g id="a_Node000010"><a xlink:href="aix_8h.html" target="_top" xlink:title=" ">
<polygon fill="white" stroke="#666666" points="459,-239 364,-239 364,-220 459,-220 459,-239"/>
<text text-anchor="middle" x="411.5" y="-227" font-family="Helvetica,sans-Serif" font-size="10.00">compat/os/aix.h</text>
</a>
</g>
</g>
<!-- Node5&#45;&gt;Node10 -->
<g id="edge9_Node000005_Node000010" class="edge">
<title>Node5&#45;&gt;Node10</title>
<g id="a_edge9_Node000005_Node000010"><a xlink:title=" ">
<path fill="none" stroke="#63b8ff" d="M1626.48,-275.89C1623.45,-275.55 1620.43,-275.25 1617.5,-275 1111.83,-231.39 979.11,-284.05 469.24,-238.92"/>
<polygon fill="#63b8ff" stroke="#63b8ff" points="469.31,-235.42 459.04,-238.01 468.68,-242.39 469.31,-235.42"/>
</a>
</g>
</g>
<!-- Node11 -->
<g id="Node000011" class="node">
<title>Node11</title>
<g id="a_Node000011"><a xlink:href="android_8h.html" target="_top" xlink:title=" ">
<polygon fill="white" stroke="#666666" points="593.5,-239 477.5,-239 477.5,-220 593.5,-220 593.5,-239"/>
<text text-anchor="middle" x="535.5" y="-227" font-family="Helvetica,sans-Serif" font-size="10.00">compat/os/android.h</text>
</a>
</g>
</g>
<!-- Node5&#45;&gt;Node11 -->
<g id="edge10_Node000005_Node000011" class="edge">
<title>Node5&#45;&gt;Node11</title>
<g id="a_edge10_Node000005_Node000011"><a xlink:title=" ">
<path fill="none" stroke="#63b8ff" d="M1626.48,-275.9C1623.44,-275.56 1620.43,-275.26 1617.5,-275 1171.15,-235.58 1054.13,-274.86 603.6,-239"/>
<polygon fill="#63b8ff" stroke="#63b8ff" points="603.82,-235.51 593.57,-238.19 603.26,-242.48 603.82,-235.51"/>
</a>
</g>
</g>
<!-- Node12 -->
<g id="Node000012" class="node">
<title>Node12</title>
<g id="a_Node000012"><a xlink:href="dragonfly_8h.html" target="_top" xlink:title=" ">
<polygon fill="white" stroke="#666666" points="735.5,-239 611.5,-239 611.5,-220 735.5,-220 735.5,-239"/>
<text text-anchor="middle" x="673.5" y="-227" font-family="Helvetica,sans-Serif" font-size="10.00">compat/os/dragonfly.h</text>
</a>
</g>
</g>
<!-- Node5&#45;&gt;Node12 -->
<g id="edge11_Node000005_Node000012" class="edge">
<title>Node5&#45;&gt;Node12</title>
<g id="a_edge11_Node000005_Node000012"><a xlink:title=" ">
<path fill="none" stroke="#63b8ff" d="M1626.48,-275.92C1623.44,-275.58 1620.43,-275.27 1617.5,-275 1234.08,-240.02 1133.3,-269.59 745.89,-239.04"/>
<polygon fill="#63b8ff" stroke="#63b8ff" points="746.06,-235.54 735.81,-238.24 745.5,-242.52 746.06,-235.54"/>
</a>
</g>
</g>
<!-- Node13 -->
<g id="Node000013" class="node">
<title>Node13</title>
<g id="a_Node000013"><a xlink:href="freebsd_8h.html" target="_top" xlink:title=" ">
<polygon fill="white" stroke="#666666" points="869.5,-239 753.5,-239 753.5,-220 869.5,-220 869.5,-239"/>
<text text-anchor="middle" x="811.5" y="-227" font-family="Helvetica,sans-Serif" font-size="10.00">compat/os/freebsd.h</text>
</a>
</g>
</g>
<!-- Node5&#45;&gt;Node13 -->
<g id="edge12_Node000005_Node000013" class="edge">
<title>Node5&#45;&gt;Node13</title>
<g id="a_edge12_Node000005_Node000013"><a xlink:title=" ">
<path fill="none" stroke="#63b8ff" d="M1626.47,-275.95C1623.44,-275.6 1620.43,-275.28 1617.5,-275 1293.5,-244.22 1207.83,-267.23 879.85,-239.04"/>
<polygon fill="#63b8ff" stroke="#63b8ff" points="879.84,-235.53 869.58,-238.15 879.23,-242.5 879.84,-235.53"/>
</a>
</g>
</g>
<!-- Node14 -->
<g id="Node000014" class="node">
<title>Node14</title>
<g id="a_Node000014"><a xlink:href="hpux_8h.html" target="_top" xlink:title=" ">
<polygon fill="white" stroke="#666666" points="991.5,-239 887.5,-239 887.5,-220 991.5,-220 991.5,-239"/>
<text text-anchor="middle" x="939.5" y="-227" font-family="Helvetica,sans-Serif" font-size="10.00">compat/os/hpux.h</text>
</a>
</g>
</g>
<!-- Node5&#45;&gt;Node14 -->
<g id="edge13_Node000005_Node000014" class="edge">
<title>Node5&#45;&gt;Node14</title>
<g id="a_edge13_Node000005_Node000014"><a xlink:title=" ">
<path fill="none" stroke="#63b8ff" d="M1626.47,-275.98C1623.44,-275.62 1620.43,-275.29 1617.5,-275 1347.51,-248.05 1275.61,-265.54 1001.95,-239.06"/>
<polygon fill="#63b8ff" stroke="#63b8ff" points="1002,-235.55 991.71,-238.06 1001.32,-242.51 1002,-235.55"/>
</a>
</g>
</g>
<!-- Node15 -->
<g id="Node000015" class="node">
<title>Node15</title>
<g id="a_Node000015"><a xlink:href="linux_8h.html" target="_top" xlink:title=" ">
<polygon fill="white" stroke="#666666" points="1113.5,-239 1009.5,-239 1009.5,-220 1113.5,-220 1113.5,-239"/>
<text text-anchor="middle" x="1061.5" y="-227" font-family="Helvetica,sans-Serif" font-size="10.00">compat/os/linux.h</text>
</a>
</g>
</g>
<!-- Node5&#45;&gt;Node15 -->
<g id="edge14_Node000005_Node000015" class="edge">
<title>Node5&#45;&gt;Node15</title>
<g id="a_edge14_Node000005_Node000015"><a xlink:title=" ">
<path fill="none" stroke="#63b8ff" d="M1626.47,-276.03C1623.44,-275.66 1620.43,-275.31 1617.5,-275 1401.49,-251.87 1343.6,-261.92 1123.96,-239.08"/>
<polygon fill="#63b8ff" stroke="#63b8ff" points="1124.03,-235.57 1113.72,-238.01 1123.3,-242.53 1124.03,-235.57"/>
</a>
</g>
</g>
<!-- Node16 -->
<g id="Node000016" class="node">
<title>Node16</title>
<g id="a_Node000016"><a xlink:href="macosx_8h.html" target="_top" xlink:title=" ">
<polygon fill="white" stroke="#666666" points="1249.5,-239 1131.5,-239 1131.5,-220 1249.5,-220 1249.5,-239"/>
<text text-anchor="middle" x="1190.5" y="-227" font-family="Helvetica,sans-Serif" font-size="10.00">compat/os/macosx.h</text>
</a>
</g>
</g>
<!-- Node5&#45;&gt;Node16 -->
<g id="edge15_Node000005_Node000016" class="edge">
<title>Node5&#45;&gt;Node16</title>
<g id="a_edge15_Node000005_Node000016"><a xlink:title=" ">
<path fill="none" stroke="#63b8ff" d="M1626.46,-276.12C1623.43,-275.73 1620.42,-275.35 1617.5,-275 1461.57,-256.14 1419.56,-256.91 1260.01,-239.14"/>
<polygon fill="#63b8ff" stroke="#63b8ff" points="1260.16,-235.64 1249.83,-238 1259.38,-242.59 1260.16,-235.64"/>
</a>
</g>
</g>
<!-- Node17 -->
<g id="Node000017" class="node">
<title>Node17</title>
<g id="a_Node000017"><a xlink:href="mingw_8h.html" target="_top" xlink:title=" ">
<polygon fill="white" stroke="#666666" points="1379.5,-239 1267.5,-239 1267.5,-220 1379.5,-220 1379.5,-239"/>
<text text-anchor="middle" x="1323.5" y="-227" font-family="Helvetica,sans-Serif" font-size="10.00">compat/os/mingw.h</text>
</a>
</g>
</g>
<!-- Node5&#45;&gt;Node17 -->
<g id="edge16_Node000005_Node000017" class="edge">
<title>Node5&#45;&gt;Node17</title>
<g id="a_edge16_Node000005_Node000017"><a xlink:title=" ">
<path fill="none" stroke="#63b8ff" d="M1626.4,-275.85C1564.03,-266.51 1458.4,-250.7 1389.81,-240.43"/>
<polygon fill="#63b8ff" stroke="#63b8ff" points="1389.96,-236.91 1379.55,-238.89 1388.92,-243.83 1389.96,-236.91"/>
</a>
</g>
</g>
<!-- Node18 -->
<g id="Node000018" class="node">
<title>Node18</title>
<g id="a_Node000018"><a xlink:href="mswindows_8h.html" target="_top" xlink:title=" ">
<polygon fill="white" stroke="#666666" points="1535,-239 1398,-239 1398,-220 1535,-220 1535,-239"/>
<text text-anchor="middle" x="1466.5" y="-227" font-family="Helvetica,sans-Serif" font-size="10.00">compat/os/mswindows.h</text>
</a>
</g>
</g>
<!-- Node5&#45;&gt;Node18 -->
<g id="edge17_Node000005_Node000018" class="edge">
<title>Node5&#45;&gt;Node18</title>
<g id="a_edge17_Node000005_Node000018"><a xlink:title=" ">
<path fill="none" stroke="#63b8ff" d="M1643.6,-274.98C1607.48,-265.91 1550.18,-251.52 1510.58,-241.57"/>
<polygon fill="#63b8ff" stroke="#63b8ff" points="1511.22,-238.12 1500.67,-239.08 1509.51,-244.91 1511.22,-238.12"/>
</a>
</g>
</g>
<!-- Node19 -->
<g id="Node000019" class="node">
<title>Node19</title>
<g id="a_Node000019"><a xlink:href="netbsd_8h.html" target="_top" xlink:title=" ">
<polygon fill="white" stroke="#666666" points="1666,-239 1553,-239 1553,-220 1666,-220 1666,-239"/>
<text text-anchor="middle" x="1609.5" y="-227" font-family="Helvetica,sans-Serif" font-size="10.00">compat/os/netbsd.h</text>
</a>
</g>
</g>
<!-- Node5&#45;&gt;Node19 -->
<g id="edge18_Node000005_Node000019" class="edge">
<title>Node5&#45;&gt;Node19</title>
<g id="a_edge18_Node000005_Node000019"><a xlink:title=" ">
<path fill="none" stroke="#63b8ff" d="M1666.57,-274.98C1656.42,-267.07 1641.08,-255.11 1628.85,-245.58"/>
<polygon fill="#63b8ff" stroke="#63b8ff" points="1630.66,-242.56 1620.62,-239.17 1626.36,-248.08 1630.66,-242.56"/>
</a>
</g>
</g>
<!-- Node20 -->
<g id="Node000020" class="node">
<title>Node20</title>
<g id="a_Node000020"><a xlink:href="openbsd_8h.html" target="_top" xlink:title=" ">
<polygon fill="white" stroke="#666666" points="1805,-239 1684,-239 1684,-220 1805,-220 1805,-239"/>
<text text-anchor="middle" x="1744.5" y="-227" font-family="Helvetica,sans-Serif" font-size="10.00">compat/os/openbsd.h</text>
</a>
</g>
</g>
<!-- Node5&#45;&gt;Node20 -->
<g id="edge19_Node000005_Node000020" class="edge">
<title>Node5&#45;&gt;Node20</title>
<g id="a_edge19_Node000005_Node000020"><a xlink:title=" ">
<path fill="none" stroke="#63b8ff" d="M1688.26,-274.98C1698.27,-267.07 1713.39,-255.11 1725.43,-245.58"/>
<polygon fill="#63b8ff" stroke="#63b8ff" points="1727.87,-248.12 1733.54,-239.17 1723.53,-242.63 1727.87,-248.12"/>
</a>
</g>
</g>
<!-- Node21 -->
<g id="Node000021" class="node">
<title>Node21</title>
<g id="a_Node000021"><a xlink:href="os2_8h.html" target="_top" xlink:title=" ">
<polygon fill="white" stroke="#666666" points="1920,-239 1823,-239 1823,-220 1920,-220 1920,-239"/>
<text text-anchor="middle" x="1871.5" y="-227" font-family="Helvetica,sans-Serif" font-size="10.00">compat/os/os2.h</text>
</a>
</g>
</g>
<!-- Node5&#45;&gt;Node21 -->
<g id="edge20_Node000005_Node000021" class="edge">
<title>Node5&#45;&gt;Node21</title>
<g id="a_edge20_Node000005_Node000021"><a xlink:title=" ">
<path fill="none" stroke="#63b8ff" d="M1708.67,-274.98C1741.66,-265.97 1793.9,-251.7 1830.27,-241.76"/>
<polygon fill="#63b8ff" stroke="#63b8ff" points="1831.36,-245.09 1840.09,-239.08 1829.52,-238.34 1831.36,-245.09"/>
</a>
</g>
</g>
<!-- Node22 -->
<g id="Node000022" class="node">
<title>Node22</title>
<g id="a_Node000022"><a xlink:href="qnx_8h.html" target="_top" xlink:title=" ">
<polygon fill="white" stroke="#666666" points="2036.5,-239 1938.5,-239 1938.5,-220 2036.5,-220 2036.5,-239"/>
<text text-anchor="middle" x="1987.5" y="-227" font-family="Helvetica,sans-Serif" font-size="10.00">compat/os/qnx.h</text>
</a>
</g>
</g>
<!-- Node5&#45;&gt;Node22 -->
<g id="edge21_Node000005_Node000022" class="edge">
<title>Node5&#45;&gt;Node22</title>
<g id="a_edge21_Node000005_Node000022"><a xlink:title=" ">
<path fill="none" stroke="#63b8ff" d="M1727.31,-274.98C1782.04,-265.63 1869.91,-250.6 1928.17,-240.64"/>
<polygon fill="#63b8ff" stroke="#63b8ff" points="1929.06,-244.04 1938.33,-238.91 1927.88,-237.14 1929.06,-244.04"/>
</a>
</g>
</g>
<!-- Node23 -->
<g id="Node000023" class="node">
<title>Node23</title>
<g id="a_Node000023"><a xlink:href="solaris_8h.html" target="_top" xlink:title=" ">
<polygon fill="white" stroke="#666666" points="2166.5,-239 2054.5,-239 2054.5,-220 2166.5,-220 2166.5,-239"/>
<text text-anchor="middle" x="2110.5" y="-227" font-family="Helvetica,sans-Serif" font-size="10.00">compat/os/solaris.h</text>
</a>
</g>
</g>
<!-- Node5&#45;&gt;Node23 -->
<g id="edge22_Node000005_Node000023" class="edge">
<title>Node5&#45;&gt;Node23</title>
<g id="a_edge22_Node000005_Node000023"><a xlink:title=" ">
<path fill="none" stroke="#63b8ff" d="M1728.72,-277.47C1797.88,-269.28 1925.28,-254.08 2044.45,-239.12"/>
<polygon fill="#63b8ff" stroke="#63b8ff" points="2045,-242.58 2054.48,-237.86 2044.13,-235.63 2045,-242.58"/>
</a>
</g>
</g>
<!-- Node24 -->
<g id="Node000024" class="node">
<title>Node24</title>
<g id="a_Node000024"><a xlink:href="sunos_8h.html" target="_top" xlink:title=" ">
<polygon fill="white" stroke="#666666" points="2292.5,-239 2184.5,-239 2184.5,-220 2292.5,-220 2292.5,-239"/>
<text text-anchor="middle" x="2238.5" y="-227" font-family="Helvetica,sans-Serif" font-size="10.00">compat/os/sunos.h</text>
</a>
</g>
</g>
<!-- Node5&#45;&gt;Node24 -->
<g id="edge23_Node000005_Node000024" class="edge">
<title>Node5&#45;&gt;Node24</title>
<g id="a_edge23_Node000005_Node000024"><a xlink:title=" ">
<path fill="none" stroke="#63b8ff" d="M1728.84,-279.68C1817.47,-272.91 2005.16,-257.85 2174.15,-239.11"/>
<polygon fill="#63b8ff" stroke="#63b8ff" points="2174.67,-242.57 2184.22,-237.98 2173.9,-235.61 2174.67,-242.57"/>
</a>
</g>
</g>
<!-- Node25 -->
<g id="Node000025" class="node">
<title>Node25</title>
<g id="a_Node000025"><a xlink:href="assert_8h.html" target="_top" xlink:title=" ">
<polygon fill="white" stroke="#666666" points="2406,-239 2311,-239 2311,-220 2406,-220 2406,-239"/>
<text text-anchor="middle" x="2358.5" y="-227" font-family="Helvetica,sans-Serif" font-size="10.00">compat/assert.h</text>
</a>
</g>
</g>
<!-- Node5&#45;&gt;Node25 -->
<g id="edge24_Node000005_Node000025" class="edge">
<title>Node5&#45;&gt;Node25</title>
<g id="a_edge24_Node000005_Node000025"><a xlink:title=" ">
<path fill="none" stroke="#63b8ff" d="M1728.58,-281.19C1833.63,-276.15 2081.71,-262.76 2300.87,-238.97"/>
<polygon fill="#63b8ff" stroke="#63b8ff" points="2301.39,-242.44 2310.95,-237.87 2300.63,-235.48 2301.39,-242.44"/>
</a>
</g>
</g>
<!-- Node26 -->
<g id="Node000026" class="node">
<title>Node26</title>
<g id="a_Node000026"><a xlink:href="compat__shared_8h.html" target="_top" xlink:title=" ">
<polygon fill="#fff0f0" stroke="red" points="2564.5,-239 2424.5,-239 2424.5,-220 2564.5,-220 2564.5,-239"/>
<text text-anchor="middle" x="2494.5" y="-227" font-family="Helvetica,sans-Serif" font-size="10.00">compat/compat_shared.h</text>
</a>
</g>
</g>
<!-- Node5&#45;&gt;Node26 -->
<g id="edge25_Node000005_Node000026" class="edge">
<title>Node5&#45;&gt;Node26</title>
<g id="a_edge25_Node000005_Node000026"><a xlink:title=" ">
<path fill="none" stroke="#63b8ff" d="M1728.93,-281.2C1847.54,-275.73 2149.62,-260.79 2414.09,-238.99"/>
<polygon fill="#63b8ff" stroke="#63b8ff" points="2414.6,-242.46 2424.28,-238.14 2414.02,-235.48 2414.6,-242.46"/>
</a>
</g>
</g>
<!-- Node36 -->
<g id="Node000036" class="node">
<title>Node36</title>
<g id="a_Node000036"><a xlink:href="stdvarargs_8h.html" target="_top" xlink:title=" ">
<polygon fill="#fff0f0" stroke="red" points="2700,-239 2583,-239 2583,-220 2700,-220 2700,-239"/>
<text text-anchor="middle" x="2641.5" y="-227" font-family="Helvetica,sans-Serif" font-size="10.00">compat/stdvarargs.h</text>
</a>
</g>
</g>
<!-- Node5&#45;&gt;Node36 -->
<g id="edge28_Node000005_Node000036" class="edge">
<title>Node5&#45;&gt;Node36</title>
<g id="a_edge28_Node000005_Node000036"><a xlink:title=" ">
<path fill="none" stroke="#63b8ff" d="M1728.61,-282.3C1864.25,-278.83 2244.8,-267.22 2572.75,-238.99"/>
<polygon fill="#63b8ff" stroke="#63b8ff" points="2573.26,-242.46 2582.92,-238.1 2572.66,-235.48 2573.26,-242.46"/>
</a>
</g>
</g>
<!-- Node38 -->
<g id="Node000038" class="node">
<title>Node38</title>
<g id="a_Node000038"><a xlink:href="stdio_8h.html" target="_top" xlink:title=" ">
<polygon fill="#fff0f0" stroke="red" points="2807,-239 2718,-239 2718,-220 2807,-220 2807,-239"/>
<text text-anchor="middle" x="2762.5" y="-227" font-family="Helvetica,sans-Serif" font-size="10.00">compat/stdio.h</text>
</a>
</g>
</g>
<!-- Node5&#45;&gt;Node38 -->
<g id="edge29_Node000005_Node000038" class="edge">
<title>Node5&#45;&gt;Node38</title>
<g id="a_edge29_Node000005_Node000038"><a xlink:title=" ">
<path fill="none" stroke="#63b8ff" d="M1728.6,-283.33C1877.78,-282.42 2325.72,-276.57 2707.62,-238.95"/>
<polygon fill="#63b8ff" stroke="#63b8ff" points="2708.16,-242.41 2717.76,-237.94 2707.46,-235.45 2708.16,-242.41"/>
</a>
</g>
</g>
<!-- Node40 -->
<g id="Node000040" class="node">
<title>Node40</title>
<g id="a_Node000040"><a xlink:href="statvfs_8h.html" target="_top" xlink:title=" ">
<polygon fill="white" stroke="#666666" points="2924,-239 2825,-239 2825,-220 2924,-220 2924,-239"/>
<text text-anchor="middle" x="2874.5" y="-227" font-family="Helvetica,sans-Serif" font-size="10.00">compat/statvfs.h</text>
</a>
</g>
</g>
<!-- Node5&#45;&gt;Node40 -->
<g id="edge30_Node000005_Node000040" class="edge">
<title>Node5&#45;&gt;Node40</title>
<g id="a_edge30_Node000005_Node000040"><a xlink:title=" ">
<path fill="none" stroke="#63b8ff" d="M1728.66,-283.39C1887.93,-282.66 2389.17,-277.3 2814.93,-238.93"/>
<polygon fill="#63b8ff" stroke="#63b8ff" points="2815.33,-242.41 2824.97,-238.02 2814.69,-235.44 2815.33,-242.41"/>
</a>
</g>
</g>
<!-- Node41 -->
<g id="Node000041" class="node">
<title>Node41</title>
<g id="a_Node000041"><a xlink:href="debug_8h.html" target="_top" xlink:title=" ">
<polygon fill="white" stroke="#666666" points="3037,-239 2942,-239 2942,-220 3037,-220 3037,-239"/>
<text text-anchor="middle" x="2989.5" y="-227" font-family="Helvetica,sans-Serif" font-size="10.00">compat/debug.h</text>
</a>
</g>
</g>
<!-- Node5&#45;&gt;Node41 -->
<g id="edge31_Node000005_Node000041" class="edge">
<title>Node5&#45;&gt;Node41</title>
<g id="a_edge31_Node000005_Node000041"><a xlink:title=" ">
<path fill="none" stroke="#63b8ff" d="M1728.74,-283.75C1898.56,-284.13 2458.54,-281.9 2931.85,-238.92"/>
<polygon fill="#63b8ff" stroke="#63b8ff" points="2932.32,-242.39 2941.96,-238 2931.69,-235.42 2932.32,-242.39"/>
</a>
</g>
</g>
<!-- Node42 -->
<g id="Node000042" class="node">
<title>Node42</title>
<g id="a_Node000042"><a xlink:href="valgrind_8h.html" target="_top" xlink:title=" ">
<polygon fill="#fff0f0" stroke="red" points="3160,-239 3055,-239 3055,-220 3160,-220 3160,-239"/>
<text text-anchor="middle" x="3107.5" y="-227" font-family="Helvetica,sans-Serif" font-size="10.00">compat/valgrind.h</text>
</a>
</g>
</g>
<!-- Node5&#45;&gt;Node42 -->
<g id="edge32_Node000005_Node000042" class="edge">
<title>Node5&#45;&gt;Node42</title>
<g id="a_edge32_Node000005_Node000042"><a xlink:title=" ">
<path fill="none" stroke="#63b8ff" d="M1728.54,-283.75C1907.7,-284.2 2524.66,-282.38 3044.44,-238.98"/>
<polygon fill="#63b8ff" stroke="#63b8ff" points="3045.1,-242.43 3054.78,-238.11 3044.52,-235.46 3045.1,-242.43"/>
</a>
</g>
</g>
<!-- Node9 -->
<g id="Node000009" class="node">
<title>Node9</title>
<g id="a_Node000009"><a xlink:title=" ">
<polygon fill="#e0e0e0" stroke="#999999" points="324.5,-184 274.5,-184 274.5,-165 324.5,-165 324.5,-184"/>
<text text-anchor="middle" x="299.5" y="-172" font-family="Helvetica,sans-Serif" font-size="10.00">cstdint</text>
</a>
</g>
</g>
<!-- Node8&#45;&gt;Node9 -->
<g id="edge8_Node000008_Node000009" class="edge">
<title>Node8&#45;&gt;Node9</title>
<g id="a_edge8_Node000008_Node000009"><a xlink:title=" ">
<path fill="none" stroke="#63b8ff" d="M299.5,-219.75C299.5,-212.8 299.5,-202.85 299.5,-194.13"/>
<polygon fill="#63b8ff" stroke="#63b8ff" points="303,-194.09 299.5,-184.09 296,-194.09 303,-194.09"/>
</a>
</g>
</g>
<!-- Node27 -->
<g id="Node000027" class="node">
<title>Node27</title>
<g id="a_Node000027"><a xlink:title=" ">
<polygon fill="#e0e0e0" stroke="#999999" points="2474,-184 2423,-184 2423,-165 2474,-165 2474,-184"/>
<text text-anchor="middle" x="2448.5" y="-172" font-family="Helvetica,sans-Serif" font-size="10.00">csignal</text>
</a>
</g>
</g>
<!-- Node26&#45;&gt;Node27 -->
<g id="edge26_Node000026_Node000027" class="edge">
<title>Node26&#45;&gt;Node27</title>
<g id="a_edge26_Node000026_Node000027"><a xlink:title=" ">
<path fill="none" stroke="#63b8ff" d="M2486.9,-219.75C2480.34,-212.18 2470.68,-201.05 2462.69,-191.84"/>
<polygon fill="#63b8ff" stroke="#63b8ff" points="2465.15,-189.35 2455.95,-184.09 2459.87,-193.94 2465.15,-189.35"/>
</a>
</g>
</g>
<!-- Node28 -->
<g id="Node000028" class="node">
<title>Node28</title>
<g id="a_Node000028"><a xlink:href="xalloc_8h.html" target="_top" xlink:title=" ">
<polygon fill="white" stroke="#666666" points="2587,-184 2492,-184 2492,-165 2587,-165 2587,-184"/>
<text text-anchor="middle" x="2539.5" y="-172" font-family="Helvetica,sans-Serif" font-size="10.00">compat/xalloc.h</text>
</a>
</g>
</g>
<!-- Node26&#45;&gt;Node28 -->
<g id="edge27_Node000026_Node000028" class="edge">
<title>Node26&#45;&gt;Node28</title>
<g id="a_edge27_Node000026_Node000028"><a xlink:title=" ">
<path fill="none" stroke="#63b8ff" d="M2501.93,-219.75C2508.35,-212.18 2517.81,-201.05 2525.62,-191.84"/>
<polygon fill="#63b8ff" stroke="#63b8ff" points="2528.4,-193.98 2532.21,-184.09 2523.07,-189.45 2528.4,-193.98"/>
</a>
</g>
</g>
<!-- Node45 -->
<g id="Node000045" class="node">
<title>Node45</title>
<g id="a_Node000045"><a xlink:href="Packable_8h.html" target="_top" xlink:title=" ">
<polygon fill="white" stroke="#666666" points="3083,-294 2988,-294 2988,-275 3083,-275 3083,-294"/>
<text text-anchor="middle" x="3035.5" y="-282" font-family="Helvetica,sans-Serif" font-size="10.00">base/Packable.h</text>
</a>
</g>
</g>
<!-- Node44&#45;&gt;Node45 -->
<g id="edge34_Node000044_Node000045" class="edge">
<title>Node44&#45;&gt;Node45</title>
<g id="a_edge34_Node000044_Node000045"><a xlink:title=" ">
<path fill="none" stroke="#63b8ff" d="M3115.24,-329.98C3100.37,-321.69 3077.52,-308.94 3060.08,-299.22"/>
<polygon fill="#63b8ff" stroke="#63b8ff" points="3061.48,-295.99 3051.04,-294.17 3058.07,-302.1 3061.48,-295.99"/>
</a>
</g>
</g>
<!-- Node46 -->
<g id="Node000046" class="node">
<title>Node46</title>
<g id="a_Node000046"><a xlink:href="cbdata_8h.html" target="_top" xlink:title=" ">
<polygon fill="white" stroke="#666666" points="3160,-294 3101,-294 3101,-275 3160,-275 3160,-294"/>
<text text-anchor="middle" x="3130.5" y="-282" font-family="Helvetica,sans-Serif" font-size="10.00">cbdata.h</text>
</a>
</g>
</g>
<!-- Node44&#45;&gt;Node46 -->
<g id="edge35_Node000044_Node000046" class="edge">
<title>Node44&#45;&gt;Node46</title>
<g id="a_edge35_Node000044_Node000046"><a xlink:title=" ">
<path fill="none" stroke="#63b8ff" d="M3130.5,-329.75C3130.5,-322.8 3130.5,-312.85 3130.5,-304.13"/>
<polygon fill="#63b8ff" stroke="#63b8ff" points="3134,-304.09 3130.5,-294.09 3127,-304.09 3134,-304.09"/>
</a>
</g>
</g>
<!-- Node47 -->
<g id="Node000047" class="node">
<title>Node47</title>
<g id="a_Node000047"><a xlink:href="mem_2forward_8h.html" target="_top" xlink:title=" ">
<polygon fill="white" stroke="#666666" points="3306.5,-74 3214.5,-74 3214.5,-55 3306.5,-55 3306.5,-74"/>
<text text-anchor="middle" x="3260.5" y="-62" font-family="Helvetica,sans-Serif" font-size="10.00">mem/forward.h</text>
</a>
</g>
</g>
<!-- Node44&#45;&gt;Node47 -->
<g id="edge36_Node000044_Node000047" class="edge">
<title>Node44&#45;&gt;Node47</title>
<g id="a_edge36_Node000044_Node000047"><a xlink:title=" ">
<path fill="none" stroke="#63b8ff" d="M3139.85,-329.78C3148.39,-321.35 3160.82,-307.86 3168.5,-294 3182.84,-268.12 3188.5,-260.09 3188.5,-230.5 3188.5,-230.5 3188.5,-230.5 3188.5,-173.5 3188.5,-144.04 3191.32,-134.62 3207.5,-110 3215.34,-98.08 3227.31,-87.64 3237.89,-79.88"/>
<polygon fill="#63b8ff" stroke="#63b8ff" points="3240.12,-82.59 3246.33,-74.01 3236.12,-76.84 3240.12,-82.59"/>
</a>
</g>
</g>
<!-- Node48 -->
<g id="Node000048" class="node">
<title>Node48</title>
<g id="a_Node000048"><a xlink:href="AllocatorProxy_8h.html" target="_top" xlink:title=" ">
<polygon fill="white" stroke="#666666" points="3322.5,-19 3198.5,-19 3198.5,0 3322.5,0 3322.5,-19"/>
<text text-anchor="middle" x="3260.5" y="-7" font-family="Helvetica,sans-Serif" font-size="10.00">mem/AllocatorProxy.h</text>
</a>
</g>
</g>
<!-- Node47&#45;&gt;Node48 -->
<g id="edge37_Node000047_Node000048" class="edge">
<title>Node47&#45;&gt;Node48</title>
<g id="a_edge37_Node000047_Node000048"><a xlink:title=" ">
<path fill="none" stroke="#63b8ff" d="M3260.5,-54.75C3260.5,-47.8 3260.5,-37.85 3260.5,-29.13"/>
<polygon fill="#63b8ff" stroke="#63b8ff" points="3264,-29.09 3260.5,-19.09 3257,-29.09 3264,-29.09"/>
</a>
</g>
</g>
<!-- Node49 -->
<g id="Node000049" class="node">
<title>Node49</title>
<g id="a_Node000049"><a xlink:title=" ">
<polygon fill="#e0e0e0" stroke="#999999" points="3524.5,-19 3476.5,-19 3476.5,0 3524.5,0 3524.5,-19"/>
<text text-anchor="middle" x="3500.5" y="-7" font-family="Helvetica,sans-Serif" font-size="10.00">iosfwd</text>
</a>
</g>
</g>
<!-- Node47&#45;&gt;Node49 -->
<g id="edge38_Node000047_Node000049" class="edge">
<title>Node47&#45;&gt;Node49</title>
<g id="a_edge38_Node000047_Node000049"><a xlink:title=" ">
<path fill="none" stroke="#63b8ff" d="M3299.06,-54.98C3345.31,-44.77 3422.11,-27.81 3466.32,-18.05"/>
<polygon fill="#63b8ff" stroke="#63b8ff" points="3467.28,-21.42 3476.29,-15.85 3465.77,-14.59 3467.28,-21.42"/>
</a>
</g>
</g>
<!-- Node51 -->
<g id="Node000051" class="node">
<title>Node51</title>
<g id="a_Node000051"><a xlink:href="globals_8h.html" target="_top" xlink:title=" ">
<polygon fill="white" stroke="#666666" points="3528,-184 3467,-184 3467,-165 3528,-165 3528,-184"/>
<text text-anchor="middle" x="3497.5" y="-172" font-family="Helvetica,sans-Serif" font-size="10.00">globals.h</text>
</a>
</g>
</g>
<!-- Node50&#45;&gt;Node51 -->
<g id="edge40_Node000050_Node000051" class="edge">
<title>Node50&#45;&gt;Node51</title>
<g id="a_edge40_Node000050_Node000051"><a xlink:title=" ">
<path fill="none" stroke="#63b8ff" d="M3531.57,-329.97C3529.55,-321.02 3526.28,-306.52 3523.5,-294 3515.65,-258.66 3506.62,-217.36 3501.54,-194.03"/>
<polygon fill="#63b8ff" stroke="#63b8ff" points="3504.93,-193.15 3499.38,-184.13 3498.09,-194.64 3504.93,-193.15"/>
</a>
</g>
</g>
<!-- Node69 -->
<g id="Node000069" class="node">
<title>Node69</title>
<g id="a_Node000069"><a xlink:href="List_8h.html" target="_top" xlink:title=" ">
<polygon fill="white" stroke="#666666" points="3599,-294 3532,-294 3532,-275 3599,-275 3599,-294"/>
<text text-anchor="middle" x="3565.5" y="-282" font-family="Helvetica,sans-Serif" font-size="10.00">sbuf/List.h</text>
</a>
</g>
</g>
<!-- Node50&#45;&gt;Node69 -->
<g id="edge47_Node000050_Node000069" class="edge">
<title>Node50&#45;&gt;Node69</title>
<g id="a_edge47_Node000050_Node000069"><a xlink:title=" ">
<path fill="none" stroke="#63b8ff" d="M3538.78,-329.75C3543.21,-322.42 3549.66,-311.73 3555.12,-302.7"/>
<polygon fill="#63b8ff" stroke="#63b8ff" points="3558.14,-304.46 3560.31,-294.09 3552.15,-300.84 3558.14,-304.46"/>
</a>
</g>
</g>
<!-- Node83 -->
<g id="Node000083" class="node">
<title>Node83</title>
<g id="a_Node000083"><a xlink:title=" ">
<polygon fill="#e0e0e0" stroke="#999999" points="3717,-184 3664,-184 3664,-165 3717,-165 3717,-184"/>
<text text-anchor="middle" x="3690.5" y="-172" font-family="Helvetica,sans-Serif" font-size="10.00">iterator</text>
</a>
</g>
</g>
<!-- Node50&#45;&gt;Node83 -->
<g id="edge53_Node000050_Node000083" class="edge">
<title>Node50&#45;&gt;Node83</title>
<g id="a_edge53_Node000050_Node000083"><a xlink:title=" ">
<path fill="none" stroke="#63b8ff" d="M3551.06,-329.87C3566.85,-321.71 3590.29,-308.56 3608.5,-294 3634.77,-272.99 3641.52,-266.78 3660.5,-239 3670.27,-224.7 3678.43,-206.72 3683.77,-193.55"/>
<polygon fill="#63b8ff" stroke="#63b8ff" points="3687.05,-194.76 3687.41,-184.18 3680.52,-192.23 3687.05,-194.76"/>
</a>
</g>
</g>
<!-- Node52 -->
<g id="Node000052" class="node">
<title>Node52</title>
<g id="a_Node000052"><a xlink:href="CacheDigest_8h.html" target="_top" xlink:title=" ">
<polygon fill="#fff0f0" stroke="red" points="3304,-129 3217,-129 3217,-110 3304,-110 3304,-129"/>
<text text-anchor="middle" x="3260.5" y="-117" font-family="Helvetica,sans-Serif" font-size="10.00">CacheDigest.h</text>
</a>
</g>
</g>
<!-- Node51&#45;&gt;Node52 -->
<g id="edge41_Node000051_Node000052" class="edge">
<title>Node51&#45;&gt;Node52</title>
<g id="a_edge41_Node000051_Node000052"><a xlink:title=" ">
<path fill="none" stroke="#63b8ff" d="M3466.52,-166.57C3426.3,-157.58 3355.71,-141.79 3308.53,-131.24"/>
<polygon fill="#63b8ff" stroke="#63b8ff" points="3309.07,-127.77 3298.55,-129.01 3307.54,-134.61 3309.07,-127.77"/>
</a>
</g>
</g>
<!-- Node66 -->
<g id="Node000066" class="node">
<title>Node66</title>
<g id="a_Node000066"><a xlink:href="defines_8h.html" target="_top" xlink:title=" ">
<polygon fill="white" stroke="#666666" points="3383,-129 3322,-129 3322,-110 3383,-110 3383,-129"/>
<text text-anchor="middle" x="3352.5" y="-117" font-family="Helvetica,sans-Serif" font-size="10.00">defines.h</text>
</a>
</g>
</g>
<!-- Node51&#45;&gt;Node66 -->
<g id="edge43_Node000051_Node000066" class="edge">
<title>Node51&#45;&gt;Node66</title>
<g id="a_edge43_Node000051_Node000066"><a xlink:title=" ">
<path fill="none" stroke="#63b8ff" d="M3474.2,-164.98C3450.25,-156.23 3412.72,-142.51 3385.67,-132.62"/>
<polygon fill="#63b8ff" stroke="#63b8ff" points="3386.81,-129.32 3376.22,-129.17 3384.41,-135.89 3386.81,-129.32"/>
</a>
</g>
</g>
<!-- Node54 -->
<g id="Node000054" class="node">
<title>Node54</title>
<g id="a_Node000054"><a xlink:href="hash_8h.html" target="_top" xlink:title=" ">
<polygon fill="white" stroke="#666666" points="3450,-129 3401,-129 3401,-110 3450,-110 3450,-129"/>
<text text-anchor="middle" x="3425.5" y="-117" font-family="Helvetica,sans-Serif" font-size="10.00">hash.h</text>
</a>
</g>
</g>
<!-- Node51&#45;&gt;Node54 -->
<g id="edge44_Node000051_Node000054" class="edge">
<title>Node51&#45;&gt;Node54</title>
<g id="a_edge44_Node000051_Node000054"><a xlink:title=" ">
<path fill="none" stroke="#63b8ff" d="M3485.93,-164.98C3475.08,-157 3458.62,-144.88 3445.62,-135.31"/>
<polygon fill="#63b8ff" stroke="#63b8ff" points="3447.41,-132.28 3437.28,-129.17 3443.26,-137.92 3447.41,-132.28"/>
</a>
</g>
</g>
<!-- Node67 -->
<g id="Node000067" class="node">
<title>Node67</title>
<g id="a_Node000067"><a xlink:href="IoStats_8h.html" target="_top" xlink:title=" ">
<polygon fill="white" stroke="#666666" points="3527,-129 3468,-129 3468,-110 3527,-110 3527,-129"/>
<text text-anchor="middle" x="3497.5" y="-117" font-family="Helvetica,sans-Serif" font-size="10.00">IoStats.h</text>
</a>
</g>
</g>
<!-- Node51&#45;&gt;Node67 -->
<g id="edge45_Node000051_Node000067" class="edge">
<title>Node51&#45;&gt;Node67</title>
<g id="a_edge45_Node000051_Node000067"><a xlink:title=" ">
<path fill="none" stroke="#63b8ff" d="M3497.5,-164.75C3497.5,-157.8 3497.5,-147.85 3497.5,-139.13"/>
<polygon fill="#63b8ff" stroke="#63b8ff" points="3501,-139.09 3497.5,-129.09 3494,-139.09 3501,-139.09"/>
</a>
</g>
</g>
<!-- Node68 -->
<g id="Node000068" class="node">
<title>Node68</title>
<g id="a_Node000068"><a xlink:href="rfc2181_8h.html" target="_top" xlink:title=" ">
<polygon fill="white" stroke="#666666" points="3607.5,-129 3545.5,-129 3545.5,-110 3607.5,-110 3607.5,-129"/>
<text text-anchor="middle" x="3576.5" y="-117" font-family="Helvetica,sans-Serif" font-size="10.00">rfc2181.h</text>
</a>
</g>
</g>
<!-- Node51&#45;&gt;Node68 -->
<g id="edge46_Node000051_Node000068" class="edge">
<title>Node51&#45;&gt;Node68</title>
<g id="a_edge46_Node000051_Node000068"><a xlink:title=" ">
<path fill="none" stroke="#63b8ff" d="M3510.19,-164.98C3522.33,-156.84 3540.86,-144.41 3555.25,-134.76"/>
<polygon fill="#63b8ff" stroke="#63b8ff" points="3557.22,-137.65 3563.58,-129.17 3553.32,-131.84 3557.22,-137.65"/>
</a>
</g>
</g>
<!-- Node52&#45;&gt;Node47 -->
<g id="edge42_Node000052_Node000047" class="edge">
<title>Node52&#45;&gt;Node47</title>
<g id="a_edge42_Node000052_Node000047"><a xlink:title=" ">
<path fill="none" stroke="#63b8ff" d="M3260.5,-109.75C3260.5,-102.8 3260.5,-92.85 3260.5,-84.13"/>
<polygon fill="#63b8ff" stroke="#63b8ff" points="3264,-84.09 3260.5,-74.09 3257,-84.09 3264,-84.09"/>
</a>
</g>
</g>
<!-- Node70 -->
<g id="Node000070" class="node">
<title>Node70</title>
<g id="a_Node000070"><a xlink:href="SBuf_8h.html" target="_top" xlink:title=" ">
<polygon fill="#fff0f0" stroke="red" points="3601,-239 3530,-239 3530,-220 3601,-220 3601,-239"/>
<text text-anchor="middle" x="3565.5" y="-227" font-family="Helvetica,sans-Serif" font-size="10.00">sbuf/SBuf.h</text>
</a>
</g>
</g>
<!-- Node69&#45;&gt;Node70 -->
<g id="edge48_Node000069_Node000070" class="edge">
<title>Node69&#45;&gt;Node70</title>
<g id="a_edge48_Node000069_Node000070"><a xlink:title=" ">
<path fill="none" stroke="#63b8ff" d="M3565.5,-274.75C3565.5,-267.8 3565.5,-257.85 3565.5,-249.13"/>
<polygon fill="#63b8ff" stroke="#63b8ff" points="3569,-249.09 3565.5,-239.09 3562,-249.09 3569,-249.09"/>
</a>
</g>
</g>
<!-- Node64 -->
<g id="Node000064" class="node">
<title>Node64</title>
<g id="a_Node000064"><a xlink:title=" ">
<polygon fill="#e0e0e0" stroke="#999999" points="3651.5,-239 3619.5,-239 3619.5,-220 3651.5,-220 3651.5,-239"/>
<text text-anchor="middle" x="3635.5" y="-227" font-family="Helvetica,sans-Serif" font-size="10.00">list</text>
</a>
</g>
</g>
<!-- Node69&#45;&gt;Node64 -->
<g id="edge52_Node000069_Node000064" class="edge">
<title>Node69&#45;&gt;Node64</title>
<g id="a_edge52_Node000069_Node000064"><a xlink:title=" ">
<path fill="none" stroke="#63b8ff" d="M3576.75,-274.98C3587.3,-267 3603.3,-254.88 3615.94,-245.31"/>
<polygon fill="#63b8ff" stroke="#63b8ff" points="3618.19,-248 3624.05,-239.17 3613.96,-242.42 3618.19,-248"/>
</a>
</g>
</g>
<!-- Node70&#45;&gt;Node49 -->
<g id="edge50_Node000070_Node000049" class="edge">
<title>Node70&#45;&gt;Node49</title>
<g id="a_edge50_Node000070_Node000049"><a xlink:title=" ">
<path fill="none" stroke="#63b8ff" d="M3574.44,-219.81C3593.56,-200.13 3635.21,-150.7 3616.5,-110 3598.18,-70.15 3555.15,-40.27 3526.96,-24.11"/>
<polygon fill="#63b8ff" stroke="#63b8ff" points="3528.47,-20.94 3518.03,-19.16 3525.08,-27.07 3528.47,-20.94"/>
</a>
</g>
</g>
<!-- Node70&#45;&gt;Node51 -->
<g id="edge49_Node000070_Node000051" class="edge">
<title>Node70&#45;&gt;Node51</title>
<g id="a_edge49_Node000070_Node000051"><a xlink:title=" ">
<path fill="none" stroke="#63b8ff" d="M3554.57,-219.98C3544.42,-212.07 3529.08,-200.11 3516.85,-190.58"/>
<polygon fill="#63b8ff" stroke="#63b8ff" points="3518.66,-187.56 3508.62,-184.17 3514.36,-193.08 3518.66,-187.56"/>
</a>
</g>
</g>
<!-- Node70&#45;&gt;Node83 -->
<g id="edge51_Node000070_Node000083" class="edge">
<title>Node70&#45;&gt;Node83</title>
<g id="a_edge51_Node000070_Node000083"><a xlink:title=" ">
<path fill="none" stroke="#63b8ff" d="M3585.58,-219.98C3605.87,-211.38 3637.46,-197.99 3660.67,-188.15"/>
<polygon fill="#63b8ff" stroke="#63b8ff" points="3662.21,-191.3 3670.05,-184.17 3659.48,-184.85 3662.21,-191.3"/>
</a>
</g>
</g>
</g>
</svg>

<g id="navigator" transform="translate(0 0)" fill="#404254">
  <rect fill="#f2f5e9" fill-opacity="0.5" stroke="#606060" stroke-width=".5" x="0" y="0" width="60" height="60"/>
  <use id="zoomplus" xlink:href="#zoomPlus" x="17" y="9" onmousedown="handleZoom(evt,'in')"/>
  <use id="zoomminus" xlink:href="#zoomMin" x="42" y="9" onmousedown="handleZoom(evt,'out')"/>
  <use id="reset" xlink:href="#resetDef" x="30" y="36" onmousedown="handleReset()"/>
   <use id="arrowup" xlink:href="#arrowUp" x="0" y="0" onmousedown="handlePan(0,-1)"/>
  <use id="arrowright" xlink:href="#arrowRight" x="0" y="0" onmousedown="handlePan(1,0)"/>
  <use id="arrowdown" xlink:href="#arrowDown" x="0" y="0" onmousedown="handlePan(0,1)"/>
  <use id="arrowleft" xlink:href="#arrowLeft" x="0" y="0" onmousedown="handlePan(-1,0)"/>
</g>
<svg viewBox="0 0 15 15" width="100%" height="30px" preserveAspectRatio="xMaxYMin meet">
 <g id="arrow_out" transform="scale(0.3 0.3)">
  <a xlink:href="wordlist_8cc__incl_org.svg" target="_base">
   <rect id="button" ry="5" rx="5" y="6" x="6" height="38" width="38"
        fill="#f2f5e9" fill-opacity="0.5" stroke="#606060" stroke-width="1.0"/>
   <path id="arrow"
     d="M 11.500037,31.436501 C 11.940474,20.09759 22.043105,11.32322 32.158766,21.979434 L 37.068811,17.246167 C 37.068811,17.246167 37.088388,32 37.088388,32 L 22.160133,31.978069 C 22.160133,31.978069 26.997745,27.140456 26.997745,27.140456 C 18.528582,18.264221 13.291696,25.230495 11.500037,31.436501 z"
     style="fill:#404040;"/>
  </a>
 </g>
</svg>

<style type='text/css'>
<![CDATA[
[data-mouse-over-selected='false'] { opacity: 0.7; }
[data-mouse-over-selected='true']  { opacity: 1.0; }
]]>
</style>
<script type="application/ecmascript"><![CDATA[
document.addEventListener('DOMContentLoaded', (event) => {
  highlightEdges();
  highlightAdjacentNodes();
});
]]></script>
</svg>
