<?xml version="1.0" encoding="UTF-8" standalone="no"?>
<!DOCTYPE svg PUBLIC "-//W3C//DTD SVG 1.1//EN"
 "http://www.w3.org/Graphics/SVG/1.1/DTD/svg11.dtd">
<!-- Generated by graphviz version 2.43.0 (0)
 -->
<!-- Title: squid/src/wordlist.cc Pages: 1 -->
<!--zoomable 412 -->

<svg id="main" version="1.1" xmlns="http://www.w3.org/2000/svg" xmlns:xlink="http://www.w3.org/1999/xlink" xml:space="preserve" onload="init(evt)">
<style type="text/css"><![CDATA[
.node, .edge {opacity: 0.7;}
.node.selected, .edge.selected {opacity: 1;}
.edge:hover path { stroke: red; }
.edge:hover polygon { stroke: red; fill: red; }
]]></style>

<defs>
  <circle id="rim" cx="0" cy="0" r="7"/>
  <circle id="rim2" cx="0" cy="0" r="3.5"/>
  <g id="zoomPlus">
    <use xlink:href="#rim" fill="#404040"><set attributeName="fill" to="#808080" begin="zoomplus.mouseover" end="zoomplus.mouseout"/></use>
    <path d="M-4,0h8M0,-4v8" fill="none" stroke="white" stroke-width="1.5" pointer-events="none"/>
  </g>
  <g id="zoomMin">
    <use xlink:href="#rim" fill="#404040"><set attributeName="fill" to="#808080" begin="zoomminus.mouseover" end="zoomminus.mouseout"/></use>
    <path d="M-4,0h8" fill="none" stroke="white" stroke-width="1.5" pointer-events="none"/>
  </g>
  <g id="arrowUp" transform="translate(30 24)">
    <use xlink:href="#rim"/>
    <path pointer-events="none" fill="none" stroke="white" stroke-width="1.5" d="M0,-3.0v7 M-2.5,-0.5L0,-3.0L2.5,-0.5"/>
  </g>
  <g id="arrowRight" transform="rotate(90) translate(36 -43)">
    <use xlink:href="#rim"/>
    <path pointer-events="none" fill="none" stroke="white" stroke-width="1.5" d="M0,-3.0v7 M-2.5,-0.5L0,-3.0L2.5,-0.5"/>
  </g>
  <g id="arrowDown" transform="rotate(180) translate(-30 -48)">
    <use xlink:href="#rim"/>
    <path pointer-events="none" fill="none" stroke="white" stroke-width="1.5" d="M0,-3.0v7 M-2.5,-0.5L0,-3.0L2.5,-0.5"/>
  </g>
  <g id="arrowLeft" transform="rotate(270) translate(-36 17)">
    <use xlink:href="#rim"/>
    <path pointer-events="none" fill="none" stroke="white" stroke-width="1.5" d="M0,-3.0v7 M-2.5,-0.5L0,-3.0L2.5,-0.5"/>
  </g>
  <g id="resetDef">
    <use xlink:href="#rim2" fill="#404040"><set attributeName="fill" to="#808080" begin="reset.mouseover" end="reset.mouseout"/></use>
  </g>
</defs>
<script type="application/ecmascript">
var viewWidth = 3837;
var viewHeight = 412;
var sectionId = 'dynsection-0';
</script>
<script type="application/ecmascript" xlink:href="svg.min.js"/>
<svg id="graph" class="graph">
<g id="viewport">
<title>squid/src/wordlist.cc</title>
<!-- Node1 -->
<g id="Node000001" class="node">
<title>Node1</title>
<g id="a_Node000001"><a xlink:title=" ">
<polygon fill="#999999" stroke="#666666" points="3300.5,-404 3184.5,-404 3184.5,-385 3300.5,-385 3300.5,-404"/>
<text text-anchor="middle" x="3242.5" y="-392" font-family="Helvetica,sans-Serif" font-size="10.00">squid/src/wordlist.cc</text>
</a>
</g>
</g>
<!-- Node2 -->
<g id="Node000002" class="node">
<title>Node2</title>
<g id="a_Node000002"><a xlink:href="squid_8h.html" target="_top" xlink:title=" ">
<polygon fill="white" stroke="#666666" points="1720.5,-349 1668.5,-349 1668.5,-330 1720.5,-330 1720.5,-349"/>
<text text-anchor="middle" x="1694.5" y="-337" font-family="Helvetica,sans-Serif" font-size="10.00">squid.h</text>
</a>
</g>
</g>
<!-- Node1&#45;&gt;Node2 -->
<g id="edge1_Node000001_Node000002" class="edge">
<title>Node1&#45;&gt;Node2</title>
<g id="a_edge1_Node000001_Node000002"><a xlink:title=" ">
<path fill="none" stroke="#63b8ff" d="M3184.18,-391.5C2931.44,-382.85 1934.47,-348.72 1730.91,-341.75"/>
<polygon fill="#63b8ff" stroke="#63b8ff" points="1730.87,-338.24 1720.75,-341.4 1730.63,-345.24 1730.87,-338.24"/>
</a>
</g>
</g>
<!-- Node45 -->
<g id="Node000045" class="node">
<title>Node45</title>
<g id="a_Node000045"><a xlink:href="MemBuf_8h.html" target="_top" xlink:title=" ">
<polygon fill="white" stroke="#666666" points="3275.5,-349 3209.5,-349 3209.5,-330 3275.5,-330 3275.5,-349"/>
<text text-anchor="middle" x="3242.5" y="-337" font-family="Helvetica,sans-Serif" font-size="10.00">MemBuf.h</text>
</a>
</g>
</g>
<!-- Node1&#45;&gt;Node45 -->
<g id="edge33_Node000001_Node000045" class="edge">
<title>Node1&#45;&gt;Node45</title>
<g id="a_edge33_Node000001_Node000045"><a xlink:title=" ">
<path fill="none" stroke="#63b8ff" d="M3242.5,-384.75C3242.5,-377.8 3242.5,-367.85 3242.5,-359.13"/>
<polygon fill="#63b8ff" stroke="#63b8ff" points="3246,-359.09 3242.5,-349.09 3239,-359.09 3246,-359.09"/>
</a>
</g>
</g>
<!-- Node51 -->
<g id="Node000051" class="node">
<title>Node51</title>
<g id="a_Node000051"><a xlink:href="wordlist_8h.html" target="_top" xlink:title=" ">
<polygon fill="white" stroke="#666666" points="3678,-349 3613,-349 3613,-330 3678,-330 3678,-349"/>
<text text-anchor="middle" x="3645.5" y="-337" font-family="Helvetica,sans-Serif" font-size="10.00">wordlist.h</text>
</a>
</g>
</g>
<!-- Node1&#45;&gt;Node51 -->
<g id="edge39_Node000001_Node000051" class="edge">
<title>Node1&#45;&gt;Node51</title>
<g id="a_edge39_Node000001_Node000051"><a xlink:title=" ">
<path fill="none" stroke="#63b8ff" d="M3300.67,-385.85C3382.63,-375.07 3530.19,-355.67 3602.79,-346.12"/>
<polygon fill="#63b8ff" stroke="#63b8ff" points="3603.48,-349.56 3612.94,-344.78 3602.57,-342.62 3603.48,-349.56"/>
</a>
</g>
</g>
<!-- Node3 -->
<g id="Node000003" class="node">
<title>Node3</title>
<g id="a_Node000003"><a xlink:href="autoconf_8h.html" target="_top" xlink:title=" ">
<polygon fill="white" stroke="#666666" points="1595.5,-294 1527.5,-294 1527.5,-275 1595.5,-275 1595.5,-294"/>
<text text-anchor="middle" x="1561.5" y="-282" font-family="Helvetica,sans-Serif" font-size="10.00">autoconf.h</text>
</a>
</g>
</g>
<!-- Node2&#45;&gt;Node3 -->
<g id="edge2_Node000002_Node000003" class="edge">
<title>Node2&#45;&gt;Node3</title>
<g id="a_edge2_Node000002_Node000003"><a xlink:title=" ">
<path fill="none" stroke="#63b8ff" d="M1673.13,-329.98C1651.35,-321.3 1617.34,-307.75 1592.58,-297.88"/>
<polygon fill="#63b8ff" stroke="#63b8ff" points="1593.84,-294.62 1583.26,-294.17 1591.25,-301.12 1593.84,-294.62"/>
</a>
</g>
</g>
<!-- Node4 -->
<g id="Node000004" class="node">
<title>Node4</title>
<g id="a_Node000004"><a xlink:href="version_8h.html" target="_top" xlink:title=" ">
<polygon fill="white" stroke="#666666" points="1675.5,-294 1613.5,-294 1613.5,-275 1675.5,-275 1675.5,-294"/>
<text text-anchor="middle" x="1644.5" y="-282" font-family="Helvetica,sans-Serif" font-size="10.00">version.h</text>
</a>
</g>
</g>
<!-- Node2&#45;&gt;Node4 -->
<g id="edge3_Node000002_Node000004" class="edge">
<title>Node2&#45;&gt;Node4</title>
<g id="a_edge3_Node000002_Node000004"><a xlink:title=" ">
<path fill="none" stroke="#63b8ff" d="M1686.24,-329.75C1679.04,-322.11 1668.39,-310.82 1659.65,-301.56"/>
<polygon fill="#63b8ff" stroke="#63b8ff" points="1662.01,-298.96 1652.6,-294.09 1656.92,-303.76 1662.01,-298.96"/>
</a>
</g>
</g>
<!-- Node5 -->
<g id="Node000005" class="node">
<title>Node5</title>
<g id="a_Node000005"><a xlink:href="compat_8h.html" target="_top" xlink:title=" ">
<polygon fill="white" stroke="#666666" points="1795.5,-294 1693.5,-294 1693.5,-275 1795.5,-275 1795.5,-294"/>
<text text-anchor="middle" x="1744.5" y="-282" font-family="Helvetica,sans-Serif" font-size="10.00">compat/compat.h</text>
</a>
</g>
</g>
<!-- Node2&#45;&gt;Node5 -->
<g id="edge4_Node000002_Node000005" class="edge">
<title>Node2&#45;&gt;Node5</title>
<g id="a_edge4_Node000002_Node000005"><a xlink:title=" ">
<path fill="none" stroke="#63b8ff" d="M1702.76,-329.75C1709.96,-322.11 1720.61,-310.82 1729.35,-301.56"/>
<polygon fill="#63b8ff" stroke="#63b8ff" points="1732.08,-303.76 1736.4,-294.09 1726.99,-298.96 1732.08,-303.76"/>
</a>
</g>
</g>
<!-- Node6 -->
<g id="Node000006" class="node">
<title>Node6</title>
<g id="a_Node000006"><a xlink:href="osdetect_8h.html" target="_top" xlink:title=" ">
<polygon fill="white" stroke="#666666" points="107,-239 0,-239 0,-220 107,-220 107,-239"/>
<text text-anchor="middle" x="53.5" y="-227" font-family="Helvetica,sans-Serif" font-size="10.00">compat/osdetect.h</text>
</a>
</g>
</g>
<!-- Node5&#45;&gt;Node6 -->
<g id="edge5_Node000005_Node000006" class="edge">
<title>Node5&#45;&gt;Node6</title>
<g id="a_edge5_Node000005_Node000006"><a xlink:title=" ">
<path fill="none" stroke="#63b8ff" d="M1693.48,-275.86C1690.45,-275.53 1687.44,-275.24 1684.5,-275 993.07,-218.28 813.13,-292.97 117.1,-238.92"/>
<polygon fill="#63b8ff" stroke="#63b8ff" points="117.32,-235.43 107.07,-238.14 116.77,-242.41 117.32,-235.43"/>
</a>
</g>
</g>
<!-- Node7 -->
<g id="Node000007" class="node">
<title>Node7</title>
<g id="a_Node000007"><a xlink:href="fdsetsize_8h.html" target="_top" xlink:title=" ">
<polygon fill="white" stroke="#666666" points="235.5,-239 125.5,-239 125.5,-220 235.5,-220 235.5,-239"/>
<text text-anchor="middle" x="180.5" y="-227" font-family="Helvetica,sans-Serif" font-size="10.00">compat/fdsetsize.h</text>
</a>
</g>
</g>
<!-- Node5&#45;&gt;Node7 -->
<g id="edge6_Node000005_Node000007" class="edge">
<title>Node5&#45;&gt;Node7</title>
<g id="a_edge6_Node000005_Node000007"><a xlink:title=" ">
<path fill="none" stroke="#63b8ff" d="M1693.48,-275.86C1690.45,-275.54 1687.44,-275.24 1684.5,-275 1049.92,-222.3 884.5,-288.5 246,-239.01"/>
<polygon fill="#63b8ff" stroke="#63b8ff" points="245.86,-235.49 235.62,-238.2 245.32,-242.47 245.86,-235.49"/>
</a>
</g>
</g>
<!-- Node8 -->
<g id="Node000008" class="node">
<title>Node8</title>
<g id="a_Node000008"><a xlink:href="types_8h.html" target="_top" xlink:title=" ">
<polygon fill="white" stroke="#666666" points="345.5,-239 253.5,-239 253.5,-220 345.5,-220 345.5,-239"/>
<text text-anchor="middle" x="299.5" y="-227" font-family="Helvetica,sans-Serif" font-size="10.00">compat/types.h</text>
</a>
</g>
</g>
<!-- Node5&#45;&gt;Node8 -->
<g id="edge7_Node000005_Node000008" class="edge">
<title>Node5&#45;&gt;Node8</title>
<g id="a_edge7_Node000005_Node000008"><a xlink:title=" ">
<path fill="none" stroke="#63b8ff" d="M1693.48,-275.87C1690.45,-275.54 1687.44,-275.25 1684.5,-275 1098.56,-225.73 945.14,-291.52 355.69,-238.97"/>
<polygon fill="#63b8ff" stroke="#63b8ff" points="355.93,-235.48 345.66,-238.07 355.31,-242.45 355.93,-235.48"/>
</a>
</g>
</g>
<!-- Node10 -->
<g id="Node000010" class="node">
<title>Node10</title>
<g id="a_Node000010"><a xlink:href="aix_8h.html" target="_top" xlink:title=" ">
<polygon fill="white" stroke="#666666" points="459,-239 364,-239 364,-220 459,-220 459,-239"/>
<text text-anchor="middle" x="411.5" y="-227" font-family="Helvetica,sans-Serif" font-size="10.00">compat/os/aix.h</text>
</a>
</g>
</g>
<!-- Node5&#45;&gt;Node10 -->
<g id="edge9_Node000005_Node000010" class="edge">
<title>Node5&#45;&gt;Node10</title>
<g id="a_edge9_Node000005_Node000010"><a xlink:title=" ">
<path fill="none" stroke="#63b8ff" d="M1693.48,-275.88C1690.45,-275.55 1687.44,-275.25 1684.5,-275 1149.07,-229.29 1008.76,-286.25 469.02,-238.9"/>
<polygon fill="#63b8ff" stroke="#63b8ff" points="469.31,-235.41 459.04,-238.02 468.69,-242.39 469.31,-235.41"/>
</a>
</g>
</g>
<!-- Node11 -->
<g id="Node000011" class="node">
<title>Node11</title>
<g id="a_Node000011"><a xlink:href="android_8h.html" target="_top" xlink:title=" ">
<polygon fill="white" stroke="#666666" points="593.5,-239 477.5,-239 477.5,-220 593.5,-220 593.5,-239"/>
<text text-anchor="middle" x="535.5" y="-227" font-family="Helvetica,sans-Serif" font-size="10.00">compat/os/android.h</text>
</a>
</g>
</g>
<!-- Node5&#45;&gt;Node11 -->
<g id="edge10_Node000005_Node000011" class="edge">
<title>Node5&#45;&gt;Node11</title>
<g id="a_edge10_Node000005_Node000011"><a xlink:title=" ">
<path fill="none" stroke="#63b8ff" d="M1693.48,-275.89C1690.45,-275.56 1687.43,-275.26 1684.5,-275 1208.56,-233.49 1083.89,-276.7 603.89,-239.02"/>
<polygon fill="#63b8ff" stroke="#63b8ff" points="603.82,-235.5 593.57,-238.2 603.26,-242.48 603.82,-235.5"/>
</a>
</g>
</g>
<!-- Node12 -->
<g id="Node000012" class="node">
<title>Node12</title>
<g id="a_Node000012"><a xlink:href="dragonfly_8h.html" target="_top" xlink:title=" ">
<polygon fill="white" stroke="#666666" points="735.5,-239 611.5,-239 611.5,-220 735.5,-220 735.5,-239"/>
<text text-anchor="middle" x="673.5" y="-227" font-family="Helvetica,sans-Serif" font-size="10.00">compat/os/dragonfly.h</text>
</a>
</g>
</g>
<!-- Node5&#45;&gt;Node12 -->
<g id="edge11_Node000005_Node000012" class="edge">
<title>Node5&#45;&gt;Node12</title>
<g id="a_edge11_Node000005_Node000012"><a xlink:title=" ">
<path fill="none" stroke="#63b8ff" d="M1693.48,-275.91C1690.44,-275.57 1687.43,-275.26 1684.5,-275 1271.44,-237.93 1163.03,-271.33 746.03,-239.05"/>
<polygon fill="#63b8ff" stroke="#63b8ff" points="746.05,-235.54 735.81,-238.25 745.51,-242.52 746.05,-235.54"/>
</a>
</g>
</g>
<!-- Node13 -->
<g id="Node000013" class="node">
<title>Node13</title>
<g id="a_Node000013"><a xlink:href="freebsd_8h.html" target="_top" xlink:title=" ">
<polygon fill="white" stroke="#666666" points="869.5,-239 753.5,-239 753.5,-220 869.5,-220 869.5,-239"/>
<text text-anchor="middle" x="811.5" y="-227" font-family="Helvetica,sans-Serif" font-size="10.00">compat/os/freebsd.h</text>
</a>
</g>
</g>
<!-- Node5&#45;&gt;Node13 -->
<g id="edge12_Node000005_Node000013" class="edge">
<title>Node5&#45;&gt;Node13</title>
<g id="a_edge12_Node000005_Node000013"><a xlink:title=" ">
<path fill="none" stroke="#63b8ff" d="M1693.48,-275.93C1690.44,-275.59 1687.43,-275.27 1684.5,-275 1330.77,-242.12 1237.5,-269.08 879.7,-239.02"/>
<polygon fill="#63b8ff" stroke="#63b8ff" points="879.83,-235.52 869.57,-238.16 879.24,-242.5 879.83,-235.52"/>
</a>
</g>
</g>
<!-- Node14 -->
<g id="Node000014" class="node">
<title>Node14</title>
<g id="a_Node000014"><a xlink:href="hpux_8h.html" target="_top" xlink:title=" ">
<polygon fill="white" stroke="#666666" points="991.5,-239 887.5,-239 887.5,-220 991.5,-220 991.5,-239"/>
<text text-anchor="middle" x="939.5" y="-227" font-family="Helvetica,sans-Serif" font-size="10.00">compat/os/hpux.h</text>
</a>
</g>
</g>
<!-- Node5&#45;&gt;Node14 -->
<g id="edge13_Node000005_Node000014" class="edge">
<title>Node5&#45;&gt;Node14</title>
<g id="a_edge13_Node000005_Node000014"><a xlink:title=" ">
<path fill="none" stroke="#63b8ff" d="M1693.47,-275.96C1690.44,-275.61 1687.43,-275.28 1684.5,-275 1384.76,-245.94 1305.23,-267.56 1001.68,-239.02"/>
<polygon fill="#63b8ff" stroke="#63b8ff" points="1002,-235.54 991.71,-238.08 1001.33,-242.51 1002,-235.54"/>
</a>
</g>
</g>
<!-- Node15 -->
<g id="Node000015" class="node">
<title>Node15</title>
<g id="a_Node000015"><a xlink:href="linux_8h.html" target="_top" xlink:title=" ">
<polygon fill="white" stroke="#666666" points="1113.5,-239 1009.5,-239 1009.5,-220 1113.5,-220 1113.5,-239"/>
<text text-anchor="middle" x="1061.5" y="-227" font-family="Helvetica,sans-Serif" font-size="10.00">compat/os/linux.h</text>
</a>
</g>
</g>
<!-- Node5&#45;&gt;Node15 -->
<g id="edge14_Node000005_Node000015" class="edge">
<title>Node5&#45;&gt;Node15</title>
<g id="a_edge14_Node000005_Node000015"><a xlink:title=" ">
<path fill="none" stroke="#63b8ff" d="M1693.47,-276C1690.44,-275.64 1687.43,-275.3 1684.5,-275 1438.8,-249.76 1373.23,-263.9 1123.81,-239.05"/>
<polygon fill="#63b8ff" stroke="#63b8ff" points="1124.01,-235.56 1113.71,-238.04 1123.31,-242.52 1124.01,-235.56"/>
</a>
</g>
</g>
<!-- Node16 -->
<g id="Node000016" class="node">
<title>Node16</title>
<g id="a_Node000016"><a xlink:href="macosx_8h.html" target="_top" xlink:title=" ">
<polygon fill="white" stroke="#666666" points="1249.5,-239 1131.5,-239 1131.5,-220 1249.5,-220 1249.5,-239"/>
<text text-anchor="middle" x="1190.5" y="-227" font-family="Helvetica,sans-Serif" font-size="10.00">compat/os/macosx.h</text>
</a>
</g>
</g>
<!-- Node5&#45;&gt;Node16 -->
<g id="edge15_Node000005_Node000016" class="edge">
<title>Node5&#45;&gt;Node16</title>
<g id="a_edge15_Node000005_Node000016"><a xlink:title=" ">
<path fill="none" stroke="#63b8ff" d="M1693.46,-276.07C1690.43,-275.69 1687.43,-275.33 1684.5,-275 1498.92,-254.03 1449.16,-258.62 1259.83,-239.1"/>
<polygon fill="#63b8ff" stroke="#63b8ff" points="1260.13,-235.61 1249.82,-238.06 1259.41,-242.57 1260.13,-235.61"/>
</a>
</g>
</g>
<!-- Node17 -->
<g id="Node000017" class="node">
<title>Node17</title>
<g id="a_Node000017"><a xlink:href="mingw_8h.html" target="_top" xlink:title=" ">
<polygon fill="white" stroke="#666666" points="1379.5,-239 1267.5,-239 1267.5,-220 1379.5,-220 1379.5,-239"/>
<text text-anchor="middle" x="1323.5" y="-227" font-family="Helvetica,sans-Serif" font-size="10.00">compat/os/mingw.h</text>
</a>
</g>
</g>
<!-- Node5&#45;&gt;Node17 -->
<g id="edge16_Node000005_Node000017" class="edge">
<title>Node5&#45;&gt;Node17</title>
<g id="a_edge16_Node000005_Node000017"><a xlink:title=" ">
<path fill="none" stroke="#63b8ff" d="M1693.45,-276.2C1690.42,-275.79 1687.42,-275.38 1684.5,-275 1556.32,-258.13 1521.66,-255.7 1389.61,-239.13"/>
<polygon fill="#63b8ff" stroke="#63b8ff" points="1389.87,-235.63 1379.52,-237.86 1389,-242.58 1389.87,-235.63"/>
</a>
</g>
</g>
<!-- Node18 -->
<g id="Node000018" class="node">
<title>Node18</title>
<g id="a_Node000018"><a xlink:href="mswindows_8h.html" target="_top" xlink:title=" ">
<polygon fill="white" stroke="#666666" points="1535,-239 1398,-239 1398,-220 1535,-220 1535,-239"/>
<text text-anchor="middle" x="1466.5" y="-227" font-family="Helvetica,sans-Serif" font-size="10.00">compat/os/mswindows.h</text>
</a>
</g>
</g>
<!-- Node5&#45;&gt;Node18 -->
<g id="edge17_Node000005_Node000018" class="edge">
<title>Node5&#45;&gt;Node18</title>
<g id="a_edge17_Node000005_Node000018"><a xlink:title=" ">
<path fill="none" stroke="#63b8ff" d="M1699.83,-274.98C1651.34,-265.74 1573.85,-250.97 1521.61,-241.01"/>
<polygon fill="#63b8ff" stroke="#63b8ff" points="1521.99,-237.52 1511.52,-239.08 1520.68,-244.39 1521.99,-237.52"/>
</a>
</g>
</g>
<!-- Node19 -->
<g id="Node000019" class="node">
<title>Node19</title>
<g id="a_Node000019"><a xlink:href="netbsd_8h.html" target="_top" xlink:title=" ">
<polygon fill="white" stroke="#666666" points="1666,-239 1553,-239 1553,-220 1666,-220 1666,-239"/>
<text text-anchor="middle" x="1609.5" y="-227" font-family="Helvetica,sans-Serif" font-size="10.00">compat/os/netbsd.h</text>
</a>
</g>
</g>
<!-- Node5&#45;&gt;Node19 -->
<g id="edge18_Node000005_Node000019" class="edge">
<title>Node5&#45;&gt;Node19</title>
<g id="a_edge18_Node000005_Node000019"><a xlink:title=" ">
<path fill="none" stroke="#63b8ff" d="M1722.81,-274.98C1700.7,-266.3 1666.18,-252.75 1641.05,-242.88"/>
<polygon fill="#63b8ff" stroke="#63b8ff" points="1642.17,-239.57 1631.58,-239.17 1639.61,-246.08 1642.17,-239.57"/>
</a>
</g>
</g>
<!-- Node20 -->
<g id="Node000020" class="node">
<title>Node20</title>
<g id="a_Node000020"><a xlink:href="openbsd_8h.html" target="_top" xlink:title=" ">
<polygon fill="white" stroke="#666666" points="1805,-239 1684,-239 1684,-220 1805,-220 1805,-239"/>
<text text-anchor="middle" x="1744.5" y="-227" font-family="Helvetica,sans-Serif" font-size="10.00">compat/os/openbsd.h</text>
</a>
</g>
</g>
<!-- Node5&#45;&gt;Node20 -->
<g id="edge19_Node000005_Node000020" class="edge">
<title>Node5&#45;&gt;Node20</title>
<g id="a_edge19_Node000005_Node000020"><a xlink:title=" ">
<path fill="none" stroke="#63b8ff" d="M1744.5,-274.75C1744.5,-267.8 1744.5,-257.85 1744.5,-249.13"/>
<polygon fill="#63b8ff" stroke="#63b8ff" points="1748,-249.09 1744.5,-239.09 1741,-249.09 1748,-249.09"/>
</a>
</g>
</g>
<!-- Node21 -->
<g id="Node000021" class="node">
<title>Node21</title>
<g id="a_Node000021"><a xlink:href="os2_8h.html" target="_top" xlink:title=" ">
<polygon fill="white" stroke="#666666" points="1920,-239 1823,-239 1823,-220 1920,-220 1920,-239"/>
<text text-anchor="middle" x="1871.5" y="-227" font-family="Helvetica,sans-Serif" font-size="10.00">compat/os/os2.h</text>
</a>
</g>
</g>
<!-- Node5&#45;&gt;Node21 -->
<g id="edge20_Node000005_Node000021" class="edge">
<title>Node5&#45;&gt;Node21</title>
<g id="a_edge20_Node000005_Node000021"><a xlink:title=" ">
<path fill="none" stroke="#63b8ff" d="M1764.9,-274.98C1785.52,-266.38 1817.61,-252.99 1841.19,-243.15"/>
<polygon fill="#63b8ff" stroke="#63b8ff" points="1842.84,-246.25 1850.72,-239.17 1840.15,-239.79 1842.84,-246.25"/>
</a>
</g>
</g>
<!-- Node22 -->
<g id="Node000022" class="node">
<title>Node22</title>
<g id="a_Node000022"><a xlink:href="qnx_8h.html" target="_top" xlink:title=" ">
<polygon fill="white" stroke="#666666" points="2036.5,-239 1938.5,-239 1938.5,-220 2036.5,-220 2036.5,-239"/>
<text text-anchor="middle" x="1987.5" y="-227" font-family="Helvetica,sans-Serif" font-size="10.00">compat/os/qnx.h</text>
</a>
</g>
</g>
<!-- Node5&#45;&gt;Node22 -->
<g id="edge21_Node000005_Node000022" class="edge">
<title>Node5&#45;&gt;Node22</title>
<g id="a_edge21_Node000005_Node000022"><a xlink:title=" ">
<path fill="none" stroke="#63b8ff" d="M1783.54,-274.98C1825.58,-265.82 1892.54,-251.21 1938.18,-241.26"/>
<polygon fill="#63b8ff" stroke="#63b8ff" points="1939.13,-244.63 1948.15,-239.08 1937.64,-237.79 1939.13,-244.63"/>
</a>
</g>
</g>
<!-- Node23 -->
<g id="Node000023" class="node">
<title>Node23</title>
<g id="a_Node000023"><a xlink:href="sgi_8h.html" target="_top" xlink:title=" ">
<polygon fill="white" stroke="#666666" points="2148.5,-239 2054.5,-239 2054.5,-220 2148.5,-220 2148.5,-239"/>
<text text-anchor="middle" x="2101.5" y="-227" font-family="Helvetica,sans-Serif" font-size="10.00">compat/os/sgi.h</text>
</a>
</g>
</g>
<!-- Node5&#45;&gt;Node23 -->
<g id="edge22_Node000005_Node000023" class="edge">
<title>Node5&#45;&gt;Node23</title>
<g id="a_edge22_Node000005_Node000023"><a xlink:title=" ">
<path fill="none" stroke="#63b8ff" d="M1795.64,-276C1853.48,-267.5 1950.8,-253.17 2044.51,-239.14"/>
<polygon fill="#63b8ff" stroke="#63b8ff" points="2045.08,-242.6 2054.45,-237.66 2044.04,-235.68 2045.08,-242.6"/>
</a>
</g>
</g>
<!-- Node24 -->
<g id="Node000024" class="node">
<title>Node24</title>
<g id="a_Node000024"><a xlink:href="solaris_8h.html" target="_top" xlink:title=" ">
<polygon fill="white" stroke="#666666" points="2278.5,-239 2166.5,-239 2166.5,-220 2278.5,-220 2278.5,-239"/>
<text text-anchor="middle" x="2222.5" y="-227" font-family="Helvetica,sans-Serif" font-size="10.00">compat/os/solaris.h</text>
</a>
</g>
</g>
<!-- Node5&#45;&gt;Node24 -->
<g id="edge23_Node000005_Node000024" class="edge">
<title>Node5&#45;&gt;Node24</title>
<g id="a_edge23_Node000005_Node000024"><a xlink:title=" ">
<path fill="none" stroke="#63b8ff" d="M1795.73,-278.36C1871.93,-270.63 2019.9,-255.29 2156.27,-239.12"/>
<polygon fill="#63b8ff" stroke="#63b8ff" points="2156.97,-242.56 2166.49,-237.91 2156.15,-235.61 2156.97,-242.56"/>
</a>
</g>
</g>
<!-- Node25 -->
<g id="Node000025" class="node">
<title>Node25</title>
<g id="a_Node000025"><a xlink:href="sunos_8h.html" target="_top" xlink:title=" ">
<polygon fill="white" stroke="#666666" points="2404.5,-239 2296.5,-239 2296.5,-220 2404.5,-220 2404.5,-239"/>
<text text-anchor="middle" x="2350.5" y="-227" font-family="Helvetica,sans-Serif" font-size="10.00">compat/os/sunos.h</text>
</a>
</g>
</g>
<!-- Node5&#45;&gt;Node25 -->
<g id="edge24_Node000005_Node000025" class="edge">
<title>Node5&#45;&gt;Node25</title>
<g id="a_edge24_Node000005_Node000025"><a xlink:title=" ">
<path fill="none" stroke="#63b8ff" d="M1795.87,-280.19C1890.65,-273.89 2099.67,-259.07 2286.23,-239.08"/>
<polygon fill="#63b8ff" stroke="#63b8ff" points="2286.66,-242.56 2296.23,-238.01 2285.91,-235.6 2286.66,-242.56"/>
</a>
</g>
</g>
<!-- Node26 -->
<g id="Node000026" class="node">
<title>Node26</title>
<g id="a_Node000026"><a xlink:href="assert_8h.html" target="_top" xlink:title=" ">
<polygon fill="white" stroke="#666666" points="2518,-239 2423,-239 2423,-220 2518,-220 2518,-239"/>
<text text-anchor="middle" x="2470.5" y="-227" font-family="Helvetica,sans-Serif" font-size="10.00">compat/assert.h</text>
</a>
</g>
</g>
<!-- Node5&#45;&gt;Node26 -->
<g id="edge25_Node000005_Node000026" class="edge">
<title>Node5&#45;&gt;Node26</title>
<g id="a_edge25_Node000005_Node000026"><a xlink:title=" ">
<path fill="none" stroke="#63b8ff" d="M1795.82,-281.52C1906.49,-276.93 2175.99,-264.1 2412.77,-238.98"/>
<polygon fill="#63b8ff" stroke="#63b8ff" points="2413.38,-242.43 2422.95,-237.89 2412.64,-235.47 2413.38,-242.43"/>
</a>
</g>
</g>
<!-- Node27 -->
<g id="Node000027" class="node">
<title>Node27</title>
<g id="a_Node000027"><a xlink:href="compat__shared_8h.html" target="_top" xlink:title=" ">
<polygon fill="#fff0f0" stroke="red" points="2676.5,-239 2536.5,-239 2536.5,-220 2676.5,-220 2676.5,-239"/>
<text text-anchor="middle" x="2606.5" y="-227" font-family="Helvetica,sans-Serif" font-size="10.00">compat/compat_shared.h</text>
</a>
</g>
</g>
<!-- Node5&#45;&gt;Node27 -->
<g id="edge26_Node000005_Node000027" class="edge">
<title>Node5&#45;&gt;Node27</title>
<g id="a_edge26_Node000005_Node000027"><a xlink:title=" ">
<path fill="none" stroke="#63b8ff" d="M1795.8,-281.45C1919.39,-276.33 2243.65,-261.78 2526.24,-238.97"/>
<polygon fill="#63b8ff" stroke="#63b8ff" points="2526.59,-242.46 2536.28,-238.16 2526.03,-235.48 2526.59,-242.46"/>
</a>
</g>
</g>
<!-- Node37 -->
<g id="Node000037" class="node">
<title>Node37</title>
<g id="a_Node000037"><a xlink:href="stdvarargs_8h.html" target="_top" xlink:title=" ">
<polygon fill="#fff0f0" stroke="red" points="2812,-239 2695,-239 2695,-220 2812,-220 2812,-239"/>
<text text-anchor="middle" x="2753.5" y="-227" font-family="Helvetica,sans-Serif" font-size="10.00">compat/stdvarargs.h</text>
</a>
</g>
</g>
<!-- Node5&#45;&gt;Node37 -->
<g id="edge28_Node000005_Node000037" class="edge">
<title>Node5&#45;&gt;Node37</title>
<g id="a_edge28_Node000005_Node000037"><a xlink:title=" ">
<path fill="none" stroke="#63b8ff" d="M1795.59,-282.47C1935.84,-279.34 2338.79,-268.37 2684.96,-238.97"/>
<polygon fill="#63b8ff" stroke="#63b8ff" points="2685.26,-242.45 2694.92,-238.11 2684.66,-235.48 2685.26,-242.45"/>
</a>
</g>
</g>
<!-- Node39 -->
<g id="Node000039" class="node">
<title>Node39</title>
<g id="a_Node000039"><a xlink:href="stdio_8h.html" target="_top" xlink:title=" ">
<polygon fill="#fff0f0" stroke="red" points="2919,-239 2830,-239 2830,-220 2919,-220 2919,-239"/>
<text text-anchor="middle" x="2874.5" y="-227" font-family="Helvetica,sans-Serif" font-size="10.00">compat/stdio.h</text>
</a>
</g>
</g>
<!-- Node5&#45;&gt;Node39 -->
<g id="edge29_Node000005_Node000039" class="edge">
<title>Node5&#45;&gt;Node39</title>
<g id="a_edge29_Node000005_Node000039"><a xlink:title=" ">
<path fill="none" stroke="#63b8ff" d="M1795.61,-283.46C1949.11,-282.92 2419.56,-278.01 2819.73,-238.94"/>
<polygon fill="#63b8ff" stroke="#63b8ff" points="2820.15,-242.41 2829.76,-237.95 2819.47,-235.44 2820.15,-242.41"/>
</a>
</g>
</g>
<!-- Node41 -->
<g id="Node000041" class="node">
<title>Node41</title>
<g id="a_Node000041"><a xlink:href="statvfs_8h.html" target="_top" xlink:title=" ">
<polygon fill="white" stroke="#666666" points="3036,-239 2937,-239 2937,-220 3036,-220 3036,-239"/>
<text text-anchor="middle" x="2986.5" y="-227" font-family="Helvetica,sans-Serif" font-size="10.00">compat/statvfs.h</text>
</a>
</g>
</g>
<!-- Node5&#45;&gt;Node41 -->
<g id="edge30_Node000005_Node000041" class="edge">
<title>Node5&#45;&gt;Node41</title>
<g id="a_edge30_Node000005_Node000041"><a xlink:title=" ">
<path fill="none" stroke="#63b8ff" d="M1795.64,-283.5C1958.96,-283.09 2482.74,-278.63 2926.82,-238.94"/>
<polygon fill="#63b8ff" stroke="#63b8ff" points="2927.32,-242.41 2936.97,-238.02 2926.7,-235.43 2927.32,-242.41"/>
</a>
</g>
</g>
<!-- Node42 -->
<g id="Node000042" class="node">
<title>Node42</title>
<g id="a_Node000042"><a xlink:href="debug_8h.html" target="_top" xlink:title=" ">
<polygon fill="white" stroke="#666666" points="3149,-239 3054,-239 3054,-220 3149,-220 3149,-239"/>
<text text-anchor="middle" x="3101.5" y="-227" font-family="Helvetica,sans-Serif" font-size="10.00">compat/debug.h</text>
</a>
</g>
</g>
<!-- Node5&#45;&gt;Node42 -->
<g id="edge31_Node000005_Node000042" class="edge">
<title>Node5&#45;&gt;Node42</title>
<g id="a_edge31_Node000005_Node000042"><a xlink:title=" ">
<path fill="none" stroke="#63b8ff" d="M1795.73,-283.84C1969.44,-284.54 2552.1,-283.28 3043.82,-238.92"/>
<polygon fill="#63b8ff" stroke="#63b8ff" points="3044.32,-242.39 3053.96,-238 3043.69,-235.42 3044.32,-242.39"/>
</a>
</g>
</g>
<!-- Node43 -->
<g id="Node000043" class="node">
<title>Node43</title>
<g id="a_Node000043"><a xlink:href="valgrind_8h.html" target="_top" xlink:title=" ">
<polygon fill="#fff0f0" stroke="red" points="3272,-239 3167,-239 3167,-220 3272,-220 3272,-239"/>
<text text-anchor="middle" x="3219.5" y="-227" font-family="Helvetica,sans-Serif" font-size="10.00">compat/valgrind.h</text>
</a>
</g>
</g>
<!-- Node5&#45;&gt;Node43 -->
<g id="edge32_Node000005_Node000043" class="edge">
<title>Node5&#45;&gt;Node43</title>
<g id="a_edge32_Node000005_Node000043"><a xlink:title=" ">
<path fill="none" stroke="#63b8ff" d="M1795.62,-283.82C1978.61,-284.56 2618.28,-283.65 3156.47,-238.97"/>
<polygon fill="#63b8ff" stroke="#63b8ff" points="3157.1,-242.43 3166.78,-238.11 3156.52,-235.46 3157.1,-242.43"/>
</a>
</g>
</g>
<!-- Node9 -->
<g id="Node000009" class="node">
<title>Node9</title>
<g id="a_Node000009"><a xlink:title=" ">
<polygon fill="#e0e0e0" stroke="#999999" points="324.5,-184 274.5,-184 274.5,-165 324.5,-165 324.5,-184"/>
<text text-anchor="middle" x="299.5" y="-172" font-family="Helvetica,sans-Serif" font-size="10.00">cstdint</text>
</a>
</g>
</g>
<!-- Node8&#45;&gt;Node9 -->
<g id="edge8_Node000008_Node000009" class="edge">
<title>Node8&#45;&gt;Node9</title>
<g id="a_edge8_Node000008_Node000009"><a xlink:title=" ">
<path fill="none" stroke="#63b8ff" d="M299.5,-219.75C299.5,-212.8 299.5,-202.85 299.5,-194.13"/>
<polygon fill="#63b8ff" stroke="#63b8ff" points="303,-194.09 299.5,-184.09 296,-194.09 303,-194.09"/>
</a>
</g>
</g>
<!-- Node28 -->
<g id="Node000028" class="node">
<title>Node28</title>
<g id="a_Node000028"><a xlink:title=" ">
<polygon fill="#e0e0e0" stroke="#999999" points="2632,-184 2581,-184 2581,-165 2632,-165 2632,-184"/>
<text text-anchor="middle" x="2606.5" y="-172" font-family="Helvetica,sans-Serif" font-size="10.00">csignal</text>
</a>
</g>
</g>
<!-- Node27&#45;&gt;Node28 -->
<g id="edge27_Node000027_Node000028" class="edge">
<title>Node27&#45;&gt;Node28</title>
<g id="a_edge27_Node000027_Node000028"><a xlink:title=" ">
<path fill="none" stroke="#63b8ff" d="M2606.5,-219.75C2606.5,-212.8 2606.5,-202.85 2606.5,-194.13"/>
<polygon fill="#63b8ff" stroke="#63b8ff" points="2610,-194.09 2606.5,-184.09 2603,-194.09 2610,-194.09"/>
</a>
</g>
</g>
<!-- Node46 -->
<g id="Node000046" class="node">
<title>Node46</title>
<g id="a_Node000046"><a xlink:href="Packable_8h.html" target="_top" xlink:title=" ">
<polygon fill="white" stroke="#666666" points="3195,-294 3100,-294 3100,-275 3195,-275 3195,-294"/>
<text text-anchor="middle" x="3147.5" y="-282" font-family="Helvetica,sans-Serif" font-size="10.00">base/Packable.h</text>
</a>
</g>
</g>
<!-- Node45&#45;&gt;Node46 -->
<g id="edge34_Node000045_Node000046" class="edge">
<title>Node45&#45;&gt;Node46</title>
<g id="a_edge34_Node000045_Node000046"><a xlink:title=" ">
<path fill="none" stroke="#63b8ff" d="M3227.24,-329.98C3212.37,-321.69 3189.52,-308.94 3172.08,-299.22"/>
<polygon fill="#63b8ff" stroke="#63b8ff" points="3173.48,-295.99 3163.04,-294.17 3170.07,-302.1 3173.48,-295.99"/>
</a>
</g>
</g>
<!-- Node47 -->
<g id="Node000047" class="node">
<title>Node47</title>
<g id="a_Node000047"><a xlink:href="cbdata_8h.html" target="_top" xlink:title=" ">
<polygon fill="white" stroke="#666666" points="3272,-294 3213,-294 3213,-275 3272,-275 3272,-294"/>
<text text-anchor="middle" x="3242.5" y="-282" font-family="Helvetica,sans-Serif" font-size="10.00">cbdata.h</text>
</a>
</g>
</g>
<!-- Node45&#45;&gt;Node47 -->
<g id="edge35_Node000045_Node000047" class="edge">
<title>Node45&#45;&gt;Node47</title>
<g id="a_edge35_Node000045_Node000047"><a xlink:title=" ">
<path fill="none" stroke="#63b8ff" d="M3242.5,-329.75C3242.5,-322.8 3242.5,-312.85 3242.5,-304.13"/>
<polygon fill="#63b8ff" stroke="#63b8ff" points="3246,-304.09 3242.5,-294.09 3239,-304.09 3246,-304.09"/>
</a>
</g>
</g>
<!-- Node48 -->
<g id="Node000048" class="node">
<title>Node48</title>
<g id="a_Node000048"><a xlink:href="mem_2forward_8h.html" target="_top" xlink:title=" ">
<polygon fill="white" stroke="#666666" points="3418.5,-74 3326.5,-74 3326.5,-55 3418.5,-55 3418.5,-74"/>
<text text-anchor="middle" x="3372.5" y="-62" font-family="Helvetica,sans-Serif" font-size="10.00">mem/forward.h</text>
</a>
</g>
</g>
<!-- Node45&#45;&gt;Node48 -->
<g id="edge36_Node000045_Node000048" class="edge">
<title>Node45&#45;&gt;Node48</title>
<g id="a_edge36_Node000045_Node000048"><a xlink:title=" ">
<path fill="none" stroke="#63b8ff" d="M3251.85,-329.78C3260.39,-321.35 3272.82,-307.86 3280.5,-294 3294.84,-268.12 3300.5,-260.09 3300.5,-230.5 3300.5,-230.5 3300.5,-230.5 3300.5,-173.5 3300.5,-144.04 3303.32,-134.62 3319.5,-110 3327.34,-98.08 3339.31,-87.64 3349.89,-79.88"/>
<polygon fill="#63b8ff" stroke="#63b8ff" points="3352.12,-82.59 3358.33,-74.01 3348.12,-76.84 3352.12,-82.59"/>
</a>
</g>
</g>
<!-- Node49 -->
<g id="Node000049" class="node">
<title>Node49</title>
<g id="a_Node000049"><a xlink:href="AllocatorProxy_8h.html" target="_top" xlink:title=" ">
<polygon fill="white" stroke="#666666" points="3434.5,-19 3310.5,-19 3310.5,0 3434.5,0 3434.5,-19"/>
<text text-anchor="middle" x="3372.5" y="-7" font-family="Helvetica,sans-Serif" font-size="10.00">mem/AllocatorProxy.h</text>
</a>
</g>
</g>
<!-- Node48&#45;&gt;Node49 -->
<g id="edge37_Node000048_Node000049" class="edge">
<title>Node48&#45;&gt;Node49</title>
<g id="a_edge37_Node000048_Node000049"><a xlink:title=" ">
<path fill="none" stroke="#63b8ff" d="M3372.5,-54.75C3372.5,-47.8 3372.5,-37.85 3372.5,-29.13"/>
<polygon fill="#63b8ff" stroke="#63b8ff" points="3376,-29.09 3372.5,-19.09 3369,-29.09 3376,-29.09"/>
</a>
</g>
</g>
<!-- Node50 -->
<g id="Node000050" class="node">
<title>Node50</title>
<g id="a_Node000050"><a xlink:title=" ">
<polygon fill="#e0e0e0" stroke="#999999" points="3636.5,-19 3588.5,-19 3588.5,0 3636.5,0 3636.5,-19"/>
<text text-anchor="middle" x="3612.5" y="-7" font-family="Helvetica,sans-Serif" font-size="10.00">iosfwd</text>
</a>
</g>
</g>
<!-- Node48&#45;&gt;Node50 -->
<g id="edge38_Node000048_Node000050" class="edge">
<title>Node48&#45;&gt;Node50</title>
<g id="a_edge38_Node000048_Node000050"><a xlink:title=" ">
<path fill="none" stroke="#63b8ff" d="M3411.06,-54.98C3457.31,-44.77 3534.11,-27.81 3578.32,-18.05"/>
<polygon fill="#63b8ff" stroke="#63b8ff" points="3579.28,-21.42 3588.29,-15.85 3577.77,-14.59 3579.28,-21.42"/>
</a>
</g>
</g>
<!-- Node52 -->
<g id="Node000052" class="node">
<title>Node52</title>
<g id="a_Node000052"><a xlink:href="globals_8h.html" target="_top" xlink:title=" ">
<polygon fill="white" stroke="#666666" points="3640,-184 3579,-184 3579,-165 3640,-165 3640,-184"/>
<text text-anchor="middle" x="3609.5" y="-172" font-family="Helvetica,sans-Serif" font-size="10.00">globals.h</text>
</a>
</g>
</g>
<!-- Node51&#45;&gt;Node52 -->
<g id="edge40_Node000051_Node000052" class="edge">
<title>Node51&#45;&gt;Node52</title>
<g id="a_edge40_Node000051_Node000052"><a xlink:title=" ">
<path fill="none" stroke="#63b8ff" d="M3643.3,-329.99C3641.02,-321.05 3637.38,-306.57 3634.5,-294 3626.43,-258.77 3617.93,-217.43 3613.21,-194.07"/>
<polygon fill="#63b8ff" stroke="#63b8ff" points="3616.62,-193.26 3611.22,-184.15 3609.76,-194.64 3616.62,-193.26"/>
</a>
</g>
</g>
<!-- Node70 -->
<g id="Node000070" class="node">
<title>Node70</title>
<g id="a_Node000070"><a xlink:href="List_8h.html" target="_top" xlink:title=" ">
<polygon fill="white" stroke="#666666" points="3711,-294 3644,-294 3644,-275 3711,-275 3711,-294"/>
<text text-anchor="middle" x="3677.5" y="-282" font-family="Helvetica,sans-Serif" font-size="10.00">sbuf/List.h</text>
</a>
</g>
</g>
<!-- Node51&#45;&gt;Node70 -->
<g id="edge47_Node000051_Node000070" class="edge">
<title>Node51&#45;&gt;Node70</title>
<g id="a_edge47_Node000051_Node000070"><a xlink:title=" ">
<path fill="none" stroke="#63b8ff" d="M3650.78,-329.75C3655.21,-322.42 3661.66,-311.73 3667.12,-302.7"/>
<polygon fill="#63b8ff" stroke="#63b8ff" points="3670.14,-304.46 3672.31,-294.09 3664.15,-300.84 3670.14,-304.46"/>
</a>
</g>
</g>
<!-- Node84 -->
<g id="Node000084" class="node">
<title>Node84</title>
<g id="a_Node000084"><a xlink:title=" ">
<polygon fill="#e0e0e0" stroke="#999999" points="3829,-184 3776,-184 3776,-165 3829,-165 3829,-184"/>
<text text-anchor="middle" x="3802.5" y="-172" font-family="Helvetica,sans-Serif" font-size="10.00">iterator</text>
</a>
</g>
</g>
<!-- Node51&#45;&gt;Node84 -->
<g id="edge53_Node000051_Node000084" class="edge">
<title>Node51&#45;&gt;Node84</title>
<g id="a_edge53_Node000051_Node000084"><a xlink:title=" ">
<path fill="none" stroke="#63b8ff" d="M3663.06,-329.87C3678.85,-321.71 3702.29,-308.56 3720.5,-294 3746.77,-272.99 3753.52,-266.78 3772.5,-239 3782.27,-224.7 3790.43,-206.72 3795.77,-193.55"/>
<polygon fill="#63b8ff" stroke="#63b8ff" points="3799.05,-194.76 3799.41,-184.18 3792.52,-192.23 3799.05,-194.76"/>
</a>
</g>
</g>
<!-- Node53 -->
<g id="Node000053" class="node">
<title>Node53</title>
<g id="a_Node000053"><a xlink:href="CacheDigest_8h.html" target="_top" xlink:title=" ">
<polygon fill="#fff0f0" stroke="red" points="3416,-129 3329,-129 3329,-110 3416,-110 3416,-129"/>
<text text-anchor="middle" x="3372.5" y="-117" font-family="Helvetica,sans-Serif" font-size="10.00">CacheDigest.h</text>
</a>
</g>
</g>
<!-- Node52&#45;&gt;Node53 -->
<g id="edge41_Node000052_Node000053" class="edge">
<title>Node52&#45;&gt;Node53</title>
<g id="a_edge41_Node000052_Node000053"><a xlink:title=" ">
<path fill="none" stroke="#63b8ff" d="M3578.52,-166.57C3538.3,-157.58 3467.71,-141.79 3420.53,-131.24"/>
<polygon fill="#63b8ff" stroke="#63b8ff" points="3421.07,-127.77 3410.55,-129.01 3419.54,-134.61 3421.07,-127.77"/>
</a>
</g>
</g>
<!-- Node67 -->
<g id="Node000067" class="node">
<title>Node67</title>
<g id="a_Node000067"><a xlink:href="defines_8h.html" target="_top" xlink:title=" ">
<polygon fill="white" stroke="#666666" points="3495,-129 3434,-129 3434,-110 3495,-110 3495,-129"/>
<text text-anchor="middle" x="3464.5" y="-117" font-family="Helvetica,sans-Serif" font-size="10.00">defines.h</text>
</a>
</g>
</g>
<!-- Node52&#45;&gt;Node67 -->
<g id="edge43_Node000052_Node000067" class="edge">
<title>Node52&#45;&gt;Node67</title>
<g id="a_edge43_Node000052_Node000067"><a xlink:title=" ">
<path fill="none" stroke="#63b8ff" d="M3586.2,-164.98C3562.25,-156.23 3524.72,-142.51 3497.67,-132.62"/>
<polygon fill="#63b8ff" stroke="#63b8ff" points="3498.81,-129.32 3488.22,-129.17 3496.41,-135.89 3498.81,-129.32"/>
</a>
</g>
</g>
<!-- Node55 -->
<g id="Node000055" class="node">
<title>Node55</title>
<g id="a_Node000055"><a xlink:href="hash_8h.html" target="_top" xlink:title=" ">
<polygon fill="white" stroke="#666666" points="3562,-129 3513,-129 3513,-110 3562,-110 3562,-129"/>
<text text-anchor="middle" x="3537.5" y="-117" font-family="Helvetica,sans-Serif" font-size="10.00">hash.h</text>
</a>
</g>
</g>
<!-- Node52&#45;&gt;Node55 -->
<g id="edge44_Node000052_Node000055" class="edge">
<title>Node52&#45;&gt;Node55</title>
<g id="a_edge44_Node000052_Node000055"><a xlink:title=" ">
<path fill="none" stroke="#63b8ff" d="M3597.93,-164.98C3587.08,-157 3570.62,-144.88 3557.62,-135.31"/>
<polygon fill="#63b8ff" stroke="#63b8ff" points="3559.41,-132.28 3549.28,-129.17 3555.26,-137.92 3559.41,-132.28"/>
</a>
</g>
</g>
<!-- Node68 -->
<g id="Node000068" class="node">
<title>Node68</title>
<g id="a_Node000068"><a xlink:href="IoStats_8h.html" target="_top" xlink:title=" ">
<polygon fill="white" stroke="#666666" points="3639,-129 3580,-129 3580,-110 3639,-110 3639,-129"/>
<text text-anchor="middle" x="3609.5" y="-117" font-family="Helvetica,sans-Serif" font-size="10.00">IoStats.h</text>
</a>
</g>
</g>
<!-- Node52&#45;&gt;Node68 -->
<g id="edge45_Node000052_Node000068" class="edge">
<title>Node52&#45;&gt;Node68</title>
<g id="a_edge45_Node000052_Node000068"><a xlink:title=" ">
<path fill="none" stroke="#63b8ff" d="M3609.5,-164.75C3609.5,-157.8 3609.5,-147.85 3609.5,-139.13"/>
<polygon fill="#63b8ff" stroke="#63b8ff" points="3613,-139.09 3609.5,-129.09 3606,-139.09 3613,-139.09"/>
</a>
</g>
</g>
<!-- Node69 -->
<g id="Node000069" class="node">
<title>Node69</title>
<g id="a_Node000069"><a xlink:href="rfc2181_8h.html" target="_top" xlink:title=" ">
<polygon fill="white" stroke="#666666" points="3719.5,-129 3657.5,-129 3657.5,-110 3719.5,-110 3719.5,-129"/>
<text text-anchor="middle" x="3688.5" y="-117" font-family="Helvetica,sans-Serif" font-size="10.00">rfc2181.h</text>
</a>
</g>
</g>
<!-- Node52&#45;&gt;Node69 -->
<g id="edge46_Node000052_Node000069" class="edge">
<title>Node52&#45;&gt;Node69</title>
<g id="a_edge46_Node000052_Node000069"><a xlink:title=" ">
<path fill="none" stroke="#63b8ff" d="M3622.19,-164.98C3634.33,-156.84 3652.86,-144.41 3667.25,-134.76"/>
<polygon fill="#63b8ff" stroke="#63b8ff" points="3669.22,-137.65 3675.58,-129.17 3665.32,-131.84 3669.22,-137.65"/>
</a>
</g>
</g>
<!-- Node53&#45;&gt;Node48 -->
<g id="edge42_Node000053_Node000048" class="edge">
<title>Node53&#45;&gt;Node48</title>
<g id="a_edge42_Node000053_Node000048"><a xlink:title=" ">
<path fill="none" stroke="#63b8ff" d="M3372.5,-109.75C3372.5,-102.8 3372.5,-92.85 3372.5,-84.13"/>
<polygon fill="#63b8ff" stroke="#63b8ff" points="3376,-84.09 3372.5,-74.09 3369,-84.09 3376,-84.09"/>
</a>
</g>
</g>
<!-- Node71 -->
<g id="Node000071" class="node">
<title>Node71</title>
<g id="a_Node000071"><a xlink:href="SBuf_8h.html" target="_top" xlink:title=" ">
<polygon fill="#fff0f0" stroke="red" points="3713,-239 3642,-239 3642,-220 3713,-220 3713,-239"/>
<text text-anchor="middle" x="3677.5" y="-227" font-family="Helvetica,sans-Serif" font-size="10.00">sbuf/SBuf.h</text>
</a>
</g>
</g>
<!-- Node70&#45;&gt;Node71 -->
<g id="edge48_Node000070_Node000071" class="edge">
<title>Node70&#45;&gt;Node71</title>
<g id="a_edge48_Node000070_Node000071"><a xlink:title=" ">
<path fill="none" stroke="#63b8ff" d="M3677.5,-274.75C3677.5,-267.8 3677.5,-257.85 3677.5,-249.13"/>
<polygon fill="#63b8ff" stroke="#63b8ff" points="3681,-249.09 3677.5,-239.09 3674,-249.09 3681,-249.09"/>
</a>
</g>
</g>
<!-- Node65 -->
<g id="Node000065" class="node">
<title>Node65</title>
<g id="a_Node000065"><a xlink:title=" ">
<polygon fill="#e0e0e0" stroke="#999999" points="3763.5,-239 3731.5,-239 3731.5,-220 3763.5,-220 3763.5,-239"/>
<text text-anchor="middle" x="3747.5" y="-227" font-family="Helvetica,sans-Serif" font-size="10.00">list</text>
</a>
</g>
</g>
<!-- Node70&#45;&gt;Node65 -->
<g id="edge52_Node000070_Node000065" class="edge">
<title>Node70&#45;&gt;Node65</title>
<g id="a_edge52_Node000070_Node000065"><a xlink:title=" ">
<path fill="none" stroke="#63b8ff" d="M3688.75,-274.98C3699.3,-267 3715.3,-254.88 3727.94,-245.31"/>
<polygon fill="#63b8ff" stroke="#63b8ff" points="3730.19,-248 3736.05,-239.17 3725.96,-242.42 3730.19,-248"/>
</a>
</g>
</g>
<!-- Node71&#45;&gt;Node50 -->
<g id="edge50_Node000071_Node000050" class="edge">
<title>Node71&#45;&gt;Node50</title>
<g id="a_edge50_Node000071_Node000050"><a xlink:title=" ">
<path fill="none" stroke="#63b8ff" d="M3686.44,-219.81C3705.56,-200.13 3747.21,-150.7 3728.5,-110 3710.18,-70.15 3667.15,-40.27 3638.96,-24.11"/>
<polygon fill="#63b8ff" stroke="#63b8ff" points="3640.47,-20.94 3630.03,-19.16 3637.08,-27.07 3640.47,-20.94"/>
</a>
</g>
</g>
<!-- Node71&#45;&gt;Node52 -->
<g id="edge49_Node000071_Node000052" class="edge">
<title>Node71&#45;&gt;Node52</title>
<g id="a_edge49_Node000071_Node000052"><a xlink:title=" ">
<path fill="none" stroke="#63b8ff" d="M3666.57,-219.98C3656.42,-212.07 3641.08,-200.11 3628.85,-190.58"/>
<polygon fill="#63b8ff" stroke="#63b8ff" points="3630.66,-187.56 3620.62,-184.17 3626.36,-193.08 3630.66,-187.56"/>
</a>
</g>
</g>
<!-- Node71&#45;&gt;Node84 -->
<g id="edge51_Node000071_Node000084" class="edge">
<title>Node71&#45;&gt;Node84</title>
<g id="a_edge51_Node000071_Node000084"><a xlink:title=" ">
<path fill="none" stroke="#63b8ff" d="M3697.58,-219.98C3717.87,-211.38 3749.46,-197.99 3772.67,-188.15"/>
<polygon fill="#63b8ff" stroke="#63b8ff" points="3774.21,-191.3 3782.05,-184.17 3771.48,-184.85 3774.21,-191.3"/>
</a>
</g>
</g>
</g>
</svg>

<g id="navigator" transform="translate(0 0)" fill="#404254">
  <rect fill="#f2f5e9" fill-opacity="0.5" stroke="#606060" stroke-width=".5" x="0" y="0" width="60" height="60"/>
  <use id="zoomplus" xlink:href="#zoomPlus" x="17" y="9" onmousedown="handleZoom(evt,'in')"/>
  <use id="zoomminus" xlink:href="#zoomMin" x="42" y="9" onmousedown="handleZoom(evt,'out')"/>
  <use id="reset" xlink:href="#resetDef" x="30" y="36" onmousedown="handleReset()"/>
   <use id="arrowup" xlink:href="#arrowUp" x="0" y="0" onmousedown="handlePan(0,-1)"/>
  <use id="arrowright" xlink:href="#arrowRight" x="0" y="0" onmousedown="handlePan(1,0)"/>
  <use id="arrowdown" xlink:href="#arrowDown" x="0" y="0" onmousedown="handlePan(0,1)"/>
  <use id="arrowleft" xlink:href="#arrowLeft" x="0" y="0" onmousedown="handlePan(-1,0)"/>
</g>
<svg viewBox="0 0 15 15" width="100%" height="30px" preserveAspectRatio="xMaxYMin meet">
 <g id="arrow_out" transform="scale(0.3 0.3)">
  <a xlink:href="wordlist_8cc__incl_org.svg" target="_base">
   <rect id="button" ry="5" rx="5" y="6" x="6" height="38" width="38"
        fill="#f2f5e9" fill-opacity="0.5" stroke="#606060" stroke-width="1.0"/>
   <path id="arrow"
     d="M 11.500037,31.436501 C 11.940474,20.09759 22.043105,11.32322 32.158766,21.979434 L 37.068811,17.246167 C 37.068811,17.246167 37.088388,32 37.088388,32 L 22.160133,31.978069 C 22.160133,31.978069 26.997745,27.140456 26.997745,27.140456 C 18.528582,18.264221 13.291696,25.230495 11.500037,31.436501 z"
     style="fill:#404040;"/>
  </a>
 </g>
</svg>

<style type='text/css'>
<![CDATA[
[data-mouse-over-selected='false'] { opacity: 0.7; }
[data-mouse-over-selected='true']  { opacity: 1.0; }
]]>
</style>
<script type="application/ecmascript"><![CDATA[
document.addEventListener('DOMContentLoaded', (event) => {
  highlightEdges();
  highlightAdjacentNodes();
});
]]></script>
</svg>
