<?xml version="1.0" encoding="UTF-8" standalone="no"?>
<!DOCTYPE svg PUBLIC "-//W3C//DTD SVG 1.1//EN"
 "http://www.w3.org/Graphics/SVG/1.1/DTD/svg11.dtd">
<!-- Generated by graphviz version 2.43.0 (0)
 -->
<!-- Title: squid/compat/xstrto.h Pages: 1 -->
<!--zoomable 269 -->

<svg id="main" version="1.1" xmlns="http://www.w3.org/2000/svg" xmlns:xlink="http://www.w3.org/1999/xlink" xml:space="preserve" onload="init(evt)">
<style type="text/css"><![CDATA[
.node, .edge {opacity: 0.7;}
.node.selected, .edge.selected {opacity: 1;}
.edge:hover path { stroke: red; }
.edge:hover polygon { stroke: red; fill: red; }
]]></style>

<defs>
  <circle id="rim" cx="0" cy="0" r="7"/>
  <circle id="rim2" cx="0" cy="0" r="3.5"/>
  <g id="zoomPlus">
    <use xlink:href="#rim" fill="#404040"><set attributeName="fill" to="#808080" begin="zoomplus.mouseover" end="zoomplus.mouseout"/></use>
    <path d="M-4,0h8M0,-4v8" fill="none" stroke="white" stroke-width="1.5" pointer-events="none"/>
  </g>
  <g id="zoomMin">
    <use xlink:href="#rim" fill="#404040"><set attributeName="fill" to="#808080" begin="zoomminus.mouseover" end="zoomminus.mouseout"/></use>
    <path d="M-4,0h8" fill="none" stroke="white" stroke-width="1.5" pointer-events="none"/>
  </g>
  <g id="arrowUp" transform="translate(30 24)">
    <use xlink:href="#rim"/>
    <path pointer-events="none" fill="none" stroke="white" stroke-width="1.5" d="M0,-3.0v7 M-2.5,-0.5L0,-3.0L2.5,-0.5"/>
  </g>
  <g id="arrowRight" transform="rotate(90) translate(36 -43)">
    <use xlink:href="#rim"/>
    <path pointer-events="none" fill="none" stroke="white" stroke-width="1.5" d="M0,-3.0v7 M-2.5,-0.5L0,-3.0L2.5,-0.5"/>
  </g>
  <g id="arrowDown" transform="rotate(180) translate(-30 -48)">
    <use xlink:href="#rim"/>
    <path pointer-events="none" fill="none" stroke="white" stroke-width="1.5" d="M0,-3.0v7 M-2.5,-0.5L0,-3.0L2.5,-0.5"/>
  </g>
  <g id="arrowLeft" transform="rotate(270) translate(-36 17)">
    <use xlink:href="#rim"/>
    <path pointer-events="none" fill="none" stroke="white" stroke-width="1.5" d="M0,-3.0v7 M-2.5,-0.5L0,-3.0L2.5,-0.5"/>
  </g>
  <g id="resetDef">
    <use xlink:href="#rim2" fill="#404040"><set attributeName="fill" to="#808080" begin="reset.mouseover" end="reset.mouseout"/></use>
  </g>
</defs>
<script type="application/ecmascript">
var viewWidth = 6575;
var viewHeight = 269;
var sectionId = 'dynsection-0';
</script>
<script type="application/ecmascript" xlink:href="svg.min.js"/>
<svg id="graph" class="graph">
<g id="viewport">
<title>squid/compat/xstrto.h</title>
<!-- Node1 -->
<g id="Node000001" class="node">
<title>Node1</title>
<g id="a_Node000001"><a xlink:title=" ">
<polygon fill="#999999" stroke="#666666" points="5016.5,-261 4893.5,-261 4893.5,-242 5016.5,-242 5016.5,-261"/>
<text text-anchor="middle" x="4955" y="-249" font-family="Helvetica,sans-Serif" font-size="10.00">squid/compat/xstrto.h</text>
</a>
</g>
</g>
<!-- Node2 -->
<g id="Node000002" class="node">
<title>Node2</title>
<g id="a_Node000002"><a xlink:href="compat__shared_8h.html" target="_top" xlink:title=" ">
<polygon fill="white" stroke="#666666" points="4972,-206 4850,-206 4850,-176 4972,-176 4972,-206"/>
<text text-anchor="start" x="4858" y="-194" font-family="Helvetica,sans-Serif" font-size="10.00">squid/compat/compat</text>
<text text-anchor="middle" x="4911" y="-183" font-family="Helvetica,sans-Serif" font-size="10.00">_shared.h</text>
</a>
</g>
</g>
<!-- Node1&#45;&gt;Node2 -->
<g id="edge1_Node000001_Node000002" class="edge">
<title>Node1&#45;&gt;Node2</title>
<g id="a_edge1_Node000001_Node000002"><a xlink:title=" ">
<path fill="none" stroke="#63b8ff" d="M4942.29,-233.61C4935.74,-224.89 4927.84,-214.39 4921.62,-206.11"/>
<polygon fill="#63b8ff" stroke="#63b8ff" points="4939.7,-235.98 4948.51,-241.87 4945.29,-231.77 4939.7,-235.98"/>
</a>
</g>
</g>
<!-- Node26 -->
<g id="Node000026" class="node">
<title>Node26</title>
<g id="a_Node000026"><a xlink:href="xstrto_8cc.html" target="_top" xlink:title=" ">
<polygon fill="white" stroke="#666666" points="6567,-24.5 6439,-24.5 6439,-5.5 6567,-5.5 6567,-24.5"/>
<text text-anchor="middle" x="6503" y="-12.5" font-family="Helvetica,sans-Serif" font-size="10.00">squid/compat/xstrto.cc</text>
</a>
</g>
</g>
<!-- Node1&#45;&gt;Node26 -->
<g id="edge51_Node000001_Node000026" class="edge">
<title>Node1&#45;&gt;Node26</title>
<g id="a_edge51_Node000001_Node000026"><a xlink:title=" ">
<path fill="none" stroke="#63b8ff" d="M5026.77,-240.84C5240.66,-211.81 5892.28,-121.71 6430,-30 6439.8,-28.33 6450.3,-26.4 6460.21,-24.51"/>
<polygon fill="#63b8ff" stroke="#63b8ff" points="5026.06,-237.4 5016.62,-242.21 5027,-244.34 5026.06,-237.4"/>
</a>
</g>
</g>
<!-- Node3 -->
<g id="Node000003" class="node">
<title>Node3</title>
<g id="a_Node000003"><a xlink:href="compat_8h.html" target="_top" xlink:title=" ">
<polygon fill="white" stroke="#666666" points="3413.5,-140 3282.5,-140 3282.5,-121 3413.5,-121 3413.5,-140"/>
<text text-anchor="middle" x="3348" y="-128" font-family="Helvetica,sans-Serif" font-size="10.00">squid/compat/compat.h</text>
</a>
</g>
</g>
<!-- Node2&#45;&gt;Node3 -->
<g id="edge2_Node000002_Node000003" class="edge">
<title>Node2&#45;&gt;Node3</title>
<g id="a_edge2_Node000002_Node000003"><a xlink:title=" ">
<path fill="none" stroke="#63b8ff" d="M4839.55,-187.33C4576.81,-177.49 3666.38,-143.42 3413.57,-133.95"/>
<polygon fill="#63b8ff" stroke="#63b8ff" points="4839.6,-190.83 4849.73,-187.71 4839.87,-183.84 4839.6,-190.83"/>
</a>
</g>
</g>
<!-- Node4 -->
<g id="Node000004" class="node">
<title>Node4</title>
<g id="a_Node000004"><a xlink:href="compat_8cc.html" target="_top" xlink:title=" ">
<polygon fill="white" stroke="#666666" points="136,-24.5 0,-24.5 0,-5.5 136,-5.5 136,-24.5"/>
<text text-anchor="middle" x="68" y="-12.5" font-family="Helvetica,sans-Serif" font-size="10.00">squid/compat/compat.cc</text>
</a>
</g>
</g>
<!-- Node3&#45;&gt;Node4 -->
<g id="edge3_Node000003_Node000004" class="edge">
<title>Node3&#45;&gt;Node4</title>
<g id="a_edge3_Node000003_Node000004"><a xlink:title=" ">
<path fill="none" stroke="#63b8ff" d="M3271.95,-128.68C2848.7,-123.85 779.56,-97.17 145,-30 133.11,-28.74 120.3,-26.69 108.6,-24.55"/>
<polygon fill="#63b8ff" stroke="#63b8ff" points="3272.2,-132.18 3282.24,-128.79 3272.28,-125.18 3272.2,-132.18"/>
</a>
</g>
</g>
<!-- Node5 -->
<g id="Node000005" class="node">
<title>Node5</title>
<g id="a_Node000005"><a xlink:href="squid_8h.html" target="_top" xlink:title=" ">
<polygon fill="#fff0f0" stroke="red" points="3407.5,-85 3288.5,-85 3288.5,-66 3407.5,-66 3407.5,-85"/>
<text text-anchor="middle" x="3348" y="-73" font-family="Helvetica,sans-Serif" font-size="10.00">squid/include/squid.h</text>
</a>
</g>
</g>
<!-- Node3&#45;&gt;Node5 -->
<g id="edge4_Node000003_Node000005" class="edge">
<title>Node3&#45;&gt;Node5</title>
<g id="a_edge4_Node000003_Node000005"><a xlink:title=" ">
<path fill="none" stroke="#63b8ff" d="M3348,-110.66C3348,-101.93 3348,-91.99 3348,-85.09"/>
<polygon fill="#63b8ff" stroke="#63b8ff" points="3344.5,-110.75 3348,-120.75 3351.5,-110.75 3344.5,-110.75"/>
</a>
</g>
</g>
<!-- Node5&#45;&gt;Node4 -->
<g id="edge6_Node000005_Node000004" class="edge">
<title>Node5&#45;&gt;Node4</title>
<g id="a_edge6_Node000005_Node000004"><a xlink:title=" ">
<path fill="none" stroke="#63b8ff" d="M3278.27,-74.23C2839.3,-72.41 466.28,-61.22 145,-30 132.83,-28.82 119.7,-26.74 107.79,-24.53"/>
<polygon fill="#63b8ff" stroke="#63b8ff" points="3278.26,-77.73 3288.28,-74.27 3278.29,-70.73 3278.26,-77.73"/>
</a>
</g>
</g>
<!-- Node6 -->
<g id="Node000006" class="node">
<title>Node6</title>
<g id="a_Node000006"><a xlink:href="assert_8cc.html" target="_top" xlink:title=" ">
<polygon fill="white" stroke="#666666" points="6420.5,-24.5 6291.5,-24.5 6291.5,-5.5 6420.5,-5.5 6420.5,-24.5"/>
<text text-anchor="middle" x="6356" y="-12.5" font-family="Helvetica,sans-Serif" font-size="10.00">squid/compat/assert.cc</text>
</a>
</g>
</g>
<!-- Node5&#45;&gt;Node6 -->
<g id="edge5_Node000005_Node000006" class="edge">
<title>Node5&#45;&gt;Node6</title>
<g id="a_edge5_Node000005_Node000006"><a xlink:title=" ">
<path fill="none" stroke="#63b8ff" d="M3417.77,-74.17C3834.84,-72.11 5990.16,-60.07 6283,-30 6294.55,-28.81 6307.01,-26.73 6318.3,-24.53"/>
<polygon fill="#63b8ff" stroke="#63b8ff" points="3417.65,-70.67 3407.67,-74.22 3417.68,-77.67 3417.65,-70.67"/>
</a>
</g>
</g>
<!-- Node7 -->
<g id="Node000007" class="node">
<title>Node7</title>
<g id="a_Node000007"><a xlink:href="compat_2debug_8cc.html" target="_top" xlink:title=" ">
<polygon fill="white" stroke="#666666" points="283.5,-24.5 154.5,-24.5 154.5,-5.5 283.5,-5.5 283.5,-24.5"/>
<text text-anchor="middle" x="219" y="-12.5" font-family="Helvetica,sans-Serif" font-size="10.00">squid/compat/debug.cc</text>
</a>
</g>
</g>
<!-- Node5&#45;&gt;Node7 -->
<g id="edge7_Node000005_Node000007" class="edge">
<title>Node5&#45;&gt;Node7</title>
<g id="a_edge7_Node000005_Node000007"><a xlink:title=" ">
<path fill="none" stroke="#63b8ff" d="M3278.44,-74.22C2851.84,-72.39 597.65,-61.29 292,-30 280.45,-28.82 267.99,-26.74 256.7,-24.53"/>
<polygon fill="#63b8ff" stroke="#63b8ff" points="3278.45,-77.72 3288.47,-74.26 3278.48,-70.72 3278.45,-77.72"/>
</a>
</g>
</g>
<!-- Node8 -->
<g id="Node000008" class="node">
<title>Node8</title>
<g id="a_Node000008"><a xlink:href="eui64__aton_8c.html" target="_top" xlink:title=" ">
<polygon fill="white" stroke="#666666" points="414.5,-30 301.5,-30 301.5,0 414.5,0 414.5,-30"/>
<text text-anchor="start" x="309.5" y="-18" font-family="Helvetica,sans-Serif" font-size="10.00">squid/compat/eui64</text>
<text text-anchor="middle" x="358" y="-7" font-family="Helvetica,sans-Serif" font-size="10.00">_aton.c</text>
</a>
</g>
</g>
<!-- Node5&#45;&gt;Node8 -->
<g id="edge8_Node000005_Node000008" class="edge">
<title>Node5&#45;&gt;Node8</title>
<g id="a_edge8_Node000005_Node000008"><a xlink:title=" ">
<path fill="none" stroke="#63b8ff" d="M3278.12,-74.26C2861.59,-72.73 714.41,-63.27 423,-30 420.25,-29.69 417.44,-29.31 414.61,-28.88"/>
<polygon fill="#63b8ff" stroke="#63b8ff" points="3278.2,-77.76 3288.22,-74.3 3278.23,-70.76 3278.2,-77.76"/>
</a>
</g>
</g>
<!-- Node9 -->
<g id="Node000009" class="node">
<title>Node9</title>
<g id="a_Node000009"><a xlink:href="initgroups_8c.html" target="_top" xlink:title=" ">
<polygon fill="white" stroke="#666666" points="575.5,-24.5 432.5,-24.5 432.5,-5.5 575.5,-5.5 575.5,-24.5"/>
<text text-anchor="middle" x="504" y="-12.5" font-family="Helvetica,sans-Serif" font-size="10.00">squid/compat/initgroups.c</text>
</a>
</g>
</g>
<!-- Node5&#45;&gt;Node9 -->
<g id="edge9_Node000005_Node000009" class="edge">
<title>Node5&#45;&gt;Node9</title>
<g id="a_edge9_Node000005_Node000009"><a xlink:title=" ">
<path fill="none" stroke="#63b8ff" d="M3278.16,-74.03C2875.52,-71.25 859.04,-56.12 584,-30 571.37,-28.8 557.73,-26.71 545.35,-24.51"/>
<polygon fill="#63b8ff" stroke="#63b8ff" points="3278.18,-77.53 3288.21,-74.1 3278.23,-70.53 3278.18,-77.53"/>
</a>
</g>
</g>
<!-- Node10 -->
<g id="Node000010" class="node">
<title>Node10</title>
<g id="a_Node000010"><a xlink:href="memrchr_8cc.html" target="_top" xlink:title=" ">
<polygon fill="white" stroke="#666666" points="736.5,-24.5 593.5,-24.5 593.5,-5.5 736.5,-5.5 736.5,-24.5"/>
<text text-anchor="middle" x="665" y="-12.5" font-family="Helvetica,sans-Serif" font-size="10.00">squid/compat/memrchr.cc</text>
</a>
</g>
</g>
<!-- Node5&#45;&gt;Node10 -->
<g id="edge10_Node000005_Node000010" class="edge">
<title>Node5&#45;&gt;Node10</title>
<g id="a_edge10_Node000005_Node000010"><a xlink:title=" ">
<path fill="none" stroke="#63b8ff" d="M3278.25,-73.96C2889.95,-70.86 1003.11,-54.64 745,-30 732.37,-28.79 718.73,-26.71 706.35,-24.5"/>
<polygon fill="#63b8ff" stroke="#63b8ff" points="3278.46,-77.46 3288.49,-74.04 3278.52,-70.46 3278.46,-77.46"/>
</a>
</g>
</g>
<!-- Node11 -->
<g id="Node000011" class="node">
<title>Node11</title>
<g id="a_Node000011"><a xlink:href="mswindows_8cc.html" target="_top" xlink:title=" ">
<polygon fill="white" stroke="#666666" points="911.5,-24.5 754.5,-24.5 754.5,-5.5 911.5,-5.5 911.5,-24.5"/>
<text text-anchor="middle" x="833" y="-12.5" font-family="Helvetica,sans-Serif" font-size="10.00">squid/compat/mswindows.cc</text>
</a>
</g>
</g>
<!-- Node5&#45;&gt;Node11 -->
<g id="edge11_Node000005_Node000011" class="edge">
<title>Node5&#45;&gt;Node11</title>
<g id="a_edge11_Node000005_Node000011"><a xlink:title=" ">
<path fill="none" stroke="#63b8ff" d="M3278.32,-74.55C2932.25,-74.61 1395.88,-72.44 920,-30 906.44,-28.79 891.79,-26.73 878.45,-24.56"/>
<polygon fill="#63b8ff" stroke="#63b8ff" points="3278.45,-78.05 3288.45,-74.55 3278.45,-71.05 3278.45,-78.05"/>
</a>
</g>
</g>
<!-- Node12 -->
<g id="Node000012" class="node">
<title>Node12</title>
<g id="a_Node000012"><a xlink:href="netdb_8cc.html" target="_top" xlink:title=" ">
<polygon fill="white" stroke="#666666" points="1056.5,-24.5 929.5,-24.5 929.5,-5.5 1056.5,-5.5 1056.5,-24.5"/>
<text text-anchor="middle" x="993" y="-12.5" font-family="Helvetica,sans-Serif" font-size="10.00">squid/compat/netdb.cc</text>
</a>
</g>
</g>
<!-- Node5&#45;&gt;Node12 -->
<g id="edge12_Node000005_Node000012" class="edge">
<title>Node5&#45;&gt;Node12</title>
<g id="a_edge12_Node000005_Node000012"><a xlink:title=" ">
<path fill="none" stroke="#63b8ff" d="M3277.97,-74.74C2943.94,-75.63 1510.56,-76.62 1066,-30 1054.58,-28.8 1042.27,-26.75 1031.08,-24.57"/>
<polygon fill="#63b8ff" stroke="#63b8ff" points="3278.46,-78.24 3288.46,-74.71 3278.45,-71.24 3278.46,-78.24"/>
</a>
</g>
</g>
<!-- Node13 -->
<g id="Node000013" class="node">
<title>Node13</title>
<g id="a_Node000013"><a xlink:href="select_8cc.html" target="_top" xlink:title=" ">
<polygon fill="white" stroke="#666666" points="1203,-24.5 1075,-24.5 1075,-5.5 1203,-5.5 1203,-24.5"/>
<text text-anchor="middle" x="1139" y="-12.5" font-family="Helvetica,sans-Serif" font-size="10.00">squid/compat/select.cc</text>
</a>
</g>
</g>
<!-- Node5&#45;&gt;Node13 -->
<g id="edge13_Node000005_Node000013" class="edge">
<title>Node5&#45;&gt;Node13</title>
<g id="a_edge13_Node000005_Node000013"><a xlink:title=" ">
<path fill="none" stroke="#63b8ff" d="M3278.01,-74.63C2957.31,-74.98 1626.16,-73.71 1212,-30 1200.58,-28.79 1188.28,-26.74 1177.08,-24.56"/>
<polygon fill="#63b8ff" stroke="#63b8ff" points="3278.1,-78.13 3288.1,-74.62 3278.09,-71.13 3278.1,-78.13"/>
</a>
</g>
</g>
<!-- Node14 -->
<g id="Node000014" class="node">
<title>Node14</title>
<g id="a_Node000014"><a xlink:href="shm_8cc.html" target="_top" xlink:title=" ">
<polygon fill="white" stroke="#666666" points="1341,-24.5 1221,-24.5 1221,-5.5 1341,-5.5 1341,-24.5"/>
<text text-anchor="middle" x="1281" y="-12.5" font-family="Helvetica,sans-Serif" font-size="10.00">squid/compat/shm.cc</text>
</a>
</g>
</g>
<!-- Node5&#45;&gt;Node14 -->
<g id="edge14_Node000005_Node000014" class="edge">
<title>Node5&#45;&gt;Node14</title>
<g id="a_edge14_Node000005_Node000014"><a xlink:title=" ">
<path fill="none" stroke="#63b8ff" d="M3278.04,-74.61C2970.31,-74.84 1735.27,-73.03 1350,-30 1339.19,-28.79 1327.55,-26.73 1316.98,-24.56"/>
<polygon fill="#63b8ff" stroke="#63b8ff" points="3278.17,-78.11 3288.17,-74.6 3278.17,-71.11 3278.17,-78.11"/>
</a>
</g>
</g>
<!-- Node15 -->
<g id="Node000015" class="node">
<title>Node15</title>
<g id="a_Node000015"><a xlink:href="socket_8cc.html" target="_top" xlink:title=" ">
<polygon fill="white" stroke="#666666" points="1490.5,-24.5 1359.5,-24.5 1359.5,-5.5 1490.5,-5.5 1490.5,-24.5"/>
<text text-anchor="middle" x="1425" y="-12.5" font-family="Helvetica,sans-Serif" font-size="10.00">squid/compat/socket.cc</text>
</a>
</g>
</g>
<!-- Node5&#45;&gt;Node15 -->
<g id="edge15_Node000005_Node000015" class="edge">
<title>Node5&#45;&gt;Node15</title>
<g id="a_edge15_Node000005_Node000015"><a xlink:title=" ">
<path fill="none" stroke="#63b8ff" d="M3278.04,-74.34C2984.81,-73.44 1853.62,-67.56 1499,-30 1487.43,-28.77 1474.96,-26.71 1463.61,-24.54"/>
<polygon fill="#63b8ff" stroke="#63b8ff" points="3278.1,-77.84 3288.11,-74.37 3278.12,-70.84 3278.1,-77.84"/>
</a>
</g>
</g>
<!-- Node16 -->
<g id="Node000016" class="node">
<title>Node16</title>
<g id="a_Node000016"><a xlink:href="statvfs_8cc.html" target="_top" xlink:title=" ">
<polygon fill="white" stroke="#666666" points="1641.5,-24.5 1508.5,-24.5 1508.5,-5.5 1641.5,-5.5 1641.5,-24.5"/>
<text text-anchor="middle" x="1575" y="-12.5" font-family="Helvetica,sans-Serif" font-size="10.00">squid/compat/statvfs.cc</text>
</a>
</g>
</g>
<!-- Node5&#45;&gt;Node16 -->
<g id="edge16_Node000005_Node000016" class="edge">
<title>Node5&#45;&gt;Node16</title>
<g id="a_edge16_Node000005_Node000016"><a xlink:title=" ">
<path fill="none" stroke="#63b8ff" d="M3277.9,-74.14C2999.76,-72.5 1973.37,-64.2 1650,-30 1638.28,-28.76 1625.64,-26.69 1614.14,-24.52"/>
<polygon fill="#63b8ff" stroke="#63b8ff" points="3278.23,-77.65 3288.25,-74.2 3278.28,-70.65 3278.23,-77.65"/>
</a>
</g>
</g>
<!-- Node17 -->
<g id="Node000017" class="node">
<title>Node17</title>
<g id="a_Node000017"><a xlink:href="strerror_8c.html" target="_top" xlink:title=" ">
<polygon fill="white" stroke="#666666" points="1788.5,-24.5 1659.5,-24.5 1659.5,-5.5 1788.5,-5.5 1788.5,-24.5"/>
<text text-anchor="middle" x="1724" y="-12.5" font-family="Helvetica,sans-Serif" font-size="10.00">squid/compat/strerror.c</text>
</a>
</g>
</g>
<!-- Node5&#45;&gt;Node17 -->
<g id="edge17_Node000005_Node000017" class="edge">
<title>Node5&#45;&gt;Node17</title>
<g id="a_edge17_Node000005_Node000017"><a xlink:title=" ">
<path fill="none" stroke="#63b8ff" d="M3277.97,-73.96C3015.58,-71.72 2090.84,-61.7 1798,-30 1786.43,-28.75 1773.96,-26.67 1762.62,-24.5"/>
<polygon fill="#63b8ff" stroke="#63b8ff" points="3278.1,-77.46 3288.13,-74.05 3278.16,-70.46 3278.1,-77.46"/>
</a>
</g>
</g>
<!-- Node18 -->
<g id="Node000018" class="node">
<title>Node18</title>
<g id="a_Node000018"><a xlink:href="strtoll_8c.html" target="_top" xlink:title=" ">
<polygon fill="white" stroke="#666666" points="1929,-24.5 1807,-24.5 1807,-5.5 1929,-5.5 1929,-24.5"/>
<text text-anchor="middle" x="1868" y="-12.5" font-family="Helvetica,sans-Serif" font-size="10.00">squid/compat/strtoll.c</text>
</a>
</g>
</g>
<!-- Node5&#45;&gt;Node18 -->
<g id="edge18_Node000005_Node000018" class="edge">
<title>Node5&#45;&gt;Node18</title>
<g id="a_edge18_Node000005_Node000018"><a xlink:title=" ">
<path fill="none" stroke="#63b8ff" d="M3278.21,-73.83C3031.61,-71.22 2202,-60.35 1938,-30 1927.17,-28.75 1915.51,-26.71 1904.87,-24.56"/>
<polygon fill="#63b8ff" stroke="#63b8ff" points="3278.43,-77.33 3288.47,-73.94 3278.5,-70.33 3278.43,-77.33"/>
</a>
</g>
</g>
<!-- Node19 -->
<g id="Node000019" class="node">
<title>Node19</title>
<g id="a_Node000019"><a xlink:href="tempnam_8c.html" target="_top" xlink:title=" ">
<polygon fill="white" stroke="#666666" points="2088.5,-24.5 1947.5,-24.5 1947.5,-5.5 2088.5,-5.5 2088.5,-24.5"/>
<text text-anchor="middle" x="2018" y="-12.5" font-family="Helvetica,sans-Serif" font-size="10.00">squid/compat/tempnam.c</text>
</a>
</g>
</g>
<!-- Node5&#45;&gt;Node19 -->
<g id="edge19_Node000005_Node000019" class="edge">
<title>Node5&#45;&gt;Node19</title>
<g id="a_edge19_Node000005_Node000019"><a xlink:title=" ">
<path fill="none" stroke="#63b8ff" d="M3278.16,-73.3C3050.12,-69.19 2328.74,-54.53 2097,-30 2084.81,-28.71 2071.67,-26.65 2059.66,-24.51"/>
<polygon fill="#63b8ff" stroke="#63b8ff" points="3278.26,-76.81 3288.32,-73.48 3278.38,-69.81 3278.26,-76.81"/>
</a>
</g>
</g>
<!-- Node20 -->
<g id="Node000020" class="node">
<title>Node20</title>
<g id="a_Node000020"><a xlink:href="unistd_8cc.html" target="_top" xlink:title=" ">
<polygon fill="white" stroke="#666666" points="2235.5,-24.5 2106.5,-24.5 2106.5,-5.5 2235.5,-5.5 2235.5,-24.5"/>
<text text-anchor="middle" x="2171" y="-12.5" font-family="Helvetica,sans-Serif" font-size="10.00">squid/compat/unistd.cc</text>
</a>
</g>
</g>
<!-- Node5&#45;&gt;Node20 -->
<g id="edge20_Node000005_Node000020" class="edge">
<title>Node5&#45;&gt;Node20</title>
<g id="a_edge20_Node000005_Node000020"><a xlink:title=" ">
<path fill="none" stroke="#63b8ff" d="M3277.95,-73.04C3067.92,-68.47 2445.57,-53.26 2244,-30 2232.85,-28.71 2220.84,-26.68 2209.86,-24.57"/>
<polygon fill="#63b8ff" stroke="#63b8ff" points="3278.15,-76.55 3288.23,-73.27 3278.31,-69.55 3278.15,-76.55"/>
</a>
</g>
</g>
<!-- Node21 -->
<g id="Node000021" class="node">
<title>Node21</title>
<g id="a_Node000021"><a xlink:href="win32__maperror_8cc.html" target="_top" xlink:title=" ">
<polygon fill="white" stroke="#666666" points="2368.5,-30 2253.5,-30 2253.5,0 2368.5,0 2368.5,-30"/>
<text text-anchor="start" x="2261.5" y="-18" font-family="Helvetica,sans-Serif" font-size="10.00">squid/compat/win32</text>
<text text-anchor="middle" x="2311" y="-7" font-family="Helvetica,sans-Serif" font-size="10.00">_maperror.cc</text>
</a>
</g>
</g>
<!-- Node5&#45;&gt;Node21 -->
<g id="edge21_Node000005_Node000021" class="edge">
<title>Node5&#45;&gt;Node21</title>
<g id="a_edge21_Node000005_Node000021"><a xlink:title=" ">
<path fill="none" stroke="#63b8ff" d="M3278.21,-75.12C3118.29,-75.7 2713.28,-72.44 2378,-30 2374.93,-29.61 2371.8,-29.16 2368.64,-28.66"/>
<polygon fill="#63b8ff" stroke="#63b8ff" points="3278.4,-78.62 3288.39,-75.07 3278.37,-71.62 3278.4,-78.62"/>
</a>
</g>
</g>
<!-- Node22 -->
<g id="Node000022" class="node">
<title>Node22</title>
<g id="a_Node000022"><a xlink:href="wserrno_8cc.html" target="_top" xlink:title=" ">
<polygon fill="white" stroke="#666666" points="2525,-24.5 2387,-24.5 2387,-5.5 2525,-5.5 2525,-24.5"/>
<text text-anchor="middle" x="2456" y="-12.5" font-family="Helvetica,sans-Serif" font-size="10.00">squid/compat/wserrno.cc</text>
</a>
</g>
</g>
<!-- Node5&#45;&gt;Node22 -->
<g id="edge22_Node000005_Node000022" class="edge">
<title>Node5&#45;&gt;Node22</title>
<g id="a_edge22_Node000005_Node000022"><a xlink:title=" ">
<path fill="none" stroke="#63b8ff" d="M3278.06,-73.57C3136.92,-71.06 2808.12,-61.97 2534,-30 2522.25,-28.63 2509.59,-26.6 2497.96,-24.51"/>
<polygon fill="#63b8ff" stroke="#63b8ff" points="3278.24,-77.07 3288.3,-73.75 3278.36,-70.07 3278.24,-77.07"/>
</a>
</g>
</g>
<!-- Node23 -->
<g id="Node000023" class="node">
<title>Node23</title>
<g id="a_Node000023"><a xlink:href="xalloc_8cc.html" target="_top" xlink:title=" ">
<polygon fill="white" stroke="#666666" points="2671,-24.5 2543,-24.5 2543,-5.5 2671,-5.5 2671,-24.5"/>
<text text-anchor="middle" x="2607" y="-12.5" font-family="Helvetica,sans-Serif" font-size="10.00">squid/compat/xalloc.cc</text>
</a>
</g>
</g>
<!-- Node5&#45;&gt;Node23 -->
<g id="edge23_Node000005_Node000023" class="edge">
<title>Node5&#45;&gt;Node23</title>
<g id="a_edge23_Node000005_Node000023"><a xlink:title=" ">
<path fill="none" stroke="#63b8ff" d="M3278.03,-72.67C3156.11,-68.85 2897.03,-57.93 2680,-30 2669.12,-28.6 2657.42,-26.59 2646.64,-24.52"/>
<polygon fill="#63b8ff" stroke="#63b8ff" points="3278.23,-76.18 3288.33,-72.99 3278.45,-69.18 3278.23,-76.18"/>
</a>
</g>
</g>
<!-- Node24 -->
<g id="Node000024" class="node">
<title>Node24</title>
<g id="a_Node000024"><a xlink:href="xstrerror_8cc.html" target="_top" xlink:title=" ">
<polygon fill="white" stroke="#666666" points="2829,-24.5 2689,-24.5 2689,-5.5 2829,-5.5 2829,-24.5"/>
<text text-anchor="middle" x="2759" y="-12.5" font-family="Helvetica,sans-Serif" font-size="10.00">squid/compat/xstrerror.cc</text>
</a>
</g>
</g>
<!-- Node5&#45;&gt;Node24 -->
<g id="edge24_Node000005_Node000024" class="edge">
<title>Node5&#45;&gt;Node24</title>
<g id="a_edge24_Node000005_Node000024"><a xlink:title=" ">
<path fill="none" stroke="#63b8ff" d="M3278.02,-70.36C3179.54,-64.08 2994.59,-50.67 2838,-30 2826.68,-28.51 2814.5,-26.53 2803.18,-24.54"/>
<polygon fill="#63b8ff" stroke="#63b8ff" points="3277.94,-73.86 3288.14,-71 3278.38,-66.87 3277.94,-73.86"/>
</a>
</g>
</g>
<!-- Node25 -->
<g id="Node000025" class="node">
<title>Node25</title>
<g id="a_Node000025"><a xlink:href="xstring_8cc.html" target="_top" xlink:title=" ">
<polygon fill="white" stroke="#666666" points="2980.5,-24.5 2847.5,-24.5 2847.5,-5.5 2980.5,-5.5 2980.5,-24.5"/>
<text text-anchor="middle" x="2914" y="-12.5" font-family="Helvetica,sans-Serif" font-size="10.00">squid/compat/xstring.cc</text>
</a>
</g>
</g>
<!-- Node5&#45;&gt;Node25 -->
<g id="edge25_Node000005_Node000025" class="edge">
<title>Node5&#45;&gt;Node25</title>
<g id="a_edge25_Node000005_Node000025"><a xlink:title=" ">
<path fill="none" stroke="#63b8ff" d="M3277.97,-67.02C3205.68,-59.01 3089.71,-45.37 2990,-30 2979.52,-28.39 2968.28,-26.43 2957.73,-24.51"/>
<polygon fill="#63b8ff" stroke="#63b8ff" points="3277.99,-70.54 3288.31,-68.16 3278.75,-63.59 3277.99,-70.54"/>
</a>
</g>
</g>
<!-- Node5&#45;&gt;Node26 -->
<g id="edge26_Node000005_Node000026" class="edge">
<title>Node5&#45;&gt;Node26</title>
<g id="a_edge26_Node000005_Node000026"><a xlink:title=" ">
<path fill="none" stroke="#63b8ff" d="M3417.81,-74.23C3847.17,-72.44 6121.66,-61.55 6430,-30 6441.55,-28.82 6454.01,-26.74 6465.3,-24.53"/>
<polygon fill="#63b8ff" stroke="#63b8ff" points="3417.7,-70.73 3407.71,-74.27 3417.73,-77.73 3417.7,-70.73"/>
</a>
</g>
</g>
<!-- Node27 -->
<g id="Node000027" class="node">
<title>Node27</title>
<g id="a_Node000027"><a xlink:href="Splay_8cc.html" target="_top" xlink:title=" ">
<polygon fill="white" stroke="#666666" points="3099,-24.5 2999,-24.5 2999,-5.5 3099,-5.5 3099,-24.5"/>
<text text-anchor="middle" x="3049" y="-12.5" font-family="Helvetica,sans-Serif" font-size="10.00">squid/lib/Splay.cc</text>
</a>
</g>
</g>
<!-- Node5&#45;&gt;Node27 -->
<g id="edge27_Node000005_Node000027" class="edge">
<title>Node5&#45;&gt;Node27</title>
<g id="a_edge27_Node000005_Node000027"><a xlink:title=" ">
<path fill="none" stroke="#63b8ff" d="M3287.71,-64.18C3239.08,-55.64 3168.97,-42.88 3108,-30 3100.07,-28.32 3091.57,-26.39 3083.57,-24.51"/>
<polygon fill="#63b8ff" stroke="#63b8ff" points="3287.3,-67.66 3297.75,-65.93 3288.51,-60.76 3287.3,-67.66"/>
</a>
</g>
</g>
<!-- Node28 -->
<g id="Node000028" class="node">
<title>Node28</title>
<g id="a_Node000028"><a xlink:href="base64_8c.html" target="_top" xlink:title=" ">
<polygon fill="white" stroke="#666666" points="3221,-24.5 3117,-24.5 3117,-5.5 3221,-5.5 3221,-24.5"/>
<text text-anchor="middle" x="3169" y="-12.5" font-family="Helvetica,sans-Serif" font-size="10.00">squid/lib/base64.c</text>
</a>
</g>
</g>
<!-- Node5&#45;&gt;Node28 -->
<g id="edge28_Node000005_Node000028" class="edge">
<title>Node5&#45;&gt;Node28</title>
<g id="a_edge28_Node000005_Node000028"><a xlink:title=" ">
<path fill="none" stroke="#63b8ff" d="M3312.25,-62.82C3277.63,-51.5 3225.96,-34.62 3195.06,-24.52"/>
<polygon fill="#63b8ff" stroke="#63b8ff" points="3311.38,-66.21 3321.97,-65.99 3313.55,-59.56 3311.38,-66.21"/>
</a>
</g>
</g>
<!-- Node29 -->
<g id="Node000029" class="node">
<title>Node29</title>
<g id="a_Node000029"><a xlink:href="dirent_8c.html" target="_top" xlink:title=" ">
<polygon fill="white" stroke="#666666" points="3337,-24.5 3239,-24.5 3239,-5.5 3337,-5.5 3337,-24.5"/>
<text text-anchor="middle" x="3288" y="-12.5" font-family="Helvetica,sans-Serif" font-size="10.00">squid/lib/dirent.c</text>
</a>
</g>
</g>
<!-- Node5&#45;&gt;Node29 -->
<g id="edge29_Node000005_Node000029" class="edge">
<title>Node5&#45;&gt;Node29</title>
<g id="a_edge29_Node000005_Node000029"><a xlink:title=" ">
<path fill="none" stroke="#63b8ff" d="M3331.68,-58.59C3320.48,-47.67 3306.03,-33.58 3296.89,-24.67"/>
<polygon fill="#63b8ff" stroke="#63b8ff" points="3329.54,-61.39 3339.15,-65.87 3334.43,-56.38 3329.54,-61.39"/>
</a>
</g>
</g>
<!-- Node30 -->
<g id="Node000030" class="node">
<title>Node30</title>
<g id="a_Node000030"><a xlink:href="encrypt_8c.html" target="_top" xlink:title=" ">
<polygon fill="white" stroke="#666666" points="3461,-24.5 3355,-24.5 3355,-5.5 3461,-5.5 3461,-24.5"/>
<text text-anchor="middle" x="3408" y="-12.5" font-family="Helvetica,sans-Serif" font-size="10.00">squid/lib/encrypt.c</text>
</a>
</g>
</g>
<!-- Node5&#45;&gt;Node30 -->
<g id="edge30_Node000005_Node000030" class="edge">
<title>Node5&#45;&gt;Node30</title>
<g id="a_edge30_Node000005_Node000030"><a xlink:title=" ">
<path fill="none" stroke="#63b8ff" d="M3364.32,-58.59C3375.52,-47.67 3389.97,-33.58 3399.11,-24.67"/>
<polygon fill="#63b8ff" stroke="#63b8ff" points="3361.57,-56.38 3356.85,-65.87 3366.46,-61.39 3361.57,-56.38"/>
</a>
</g>
</g>
<!-- Node31 -->
<g id="Node000031" class="node">
<title>Node31</title>
<g id="a_Node000031"><a xlink:href="getopt_8c.html" target="_top" xlink:title=" ">
<polygon fill="white" stroke="#666666" points="3580.5,-24.5 3479.5,-24.5 3479.5,-5.5 3580.5,-5.5 3580.5,-24.5"/>
<text text-anchor="middle" x="3530" y="-12.5" font-family="Helvetica,sans-Serif" font-size="10.00">squid/lib/getopt.c</text>
</a>
</g>
</g>
<!-- Node5&#45;&gt;Node31 -->
<g id="edge31_Node000005_Node000031" class="edge">
<title>Node5&#45;&gt;Node31</title>
<g id="a_edge31_Node000005_Node000031"><a xlink:title=" ">
<path fill="none" stroke="#63b8ff" d="M3384.35,-62.82C3419.55,-51.5 3472.08,-34.62 3503.5,-24.52"/>
<polygon fill="#63b8ff" stroke="#63b8ff" points="3382.91,-59.6 3374.46,-65.99 3385.06,-66.27 3382.91,-59.6"/>
</a>
</g>
</g>
<!-- Node32 -->
<g id="Node000032" class="node">
<title>Node32</title>
<g id="a_Node000032"><a xlink:href="hash_8cc.html" target="_top" xlink:title=" ">
<polygon fill="white" stroke="#666666" points="3697,-24.5 3599,-24.5 3599,-5.5 3697,-5.5 3697,-24.5"/>
<text text-anchor="middle" x="3648" y="-12.5" font-family="Helvetica,sans-Serif" font-size="10.00">squid/lib/hash.cc</text>
</a>
</g>
</g>
<!-- Node5&#45;&gt;Node32 -->
<g id="edge32_Node000005_Node000032" class="edge">
<title>Node5&#45;&gt;Node32</title>
<g id="a_edge32_Node000005_Node000032"><a xlink:title=" ">
<path fill="none" stroke="#63b8ff" d="M3408.54,-64.19C3457.38,-55.67 3527.78,-42.91 3589,-30 3596.93,-28.33 3605.43,-26.39 3613.44,-24.51"/>
<polygon fill="#63b8ff" stroke="#63b8ff" points="3407.71,-60.78 3398.46,-65.95 3408.91,-67.68 3407.71,-60.78"/>
</a>
</g>
</g>
<!-- Node33 -->
<g id="Node000033" class="node">
<title>Node33</title>
<g id="a_Node000033"><a xlink:href="heap_8c.html" target="_top" xlink:title=" ">
<polygon fill="white" stroke="#666666" points="3808.5,-24.5 3715.5,-24.5 3715.5,-5.5 3808.5,-5.5 3808.5,-24.5"/>
<text text-anchor="middle" x="3762" y="-12.5" font-family="Helvetica,sans-Serif" font-size="10.00">squid/lib/heap.c</text>
</a>
</g>
</g>
<!-- Node5&#45;&gt;Node33 -->
<g id="edge33_Node000005_Node000033" class="edge">
<title>Node5&#45;&gt;Node33</title>
<g id="a_edge33_Node000005_Node000033"><a xlink:title=" ">
<path fill="none" stroke="#63b8ff" d="M3417.93,-68.34C3490.38,-61.37 3606.68,-48.52 3706,-30 3714.08,-28.49 3722.73,-26.52 3730.75,-24.52"/>
<polygon fill="#63b8ff" stroke="#63b8ff" points="3417.19,-64.89 3407.57,-69.33 3417.86,-71.86 3417.19,-64.89"/>
</a>
</g>
</g>
<!-- Node34 -->
<g id="Node000034" class="node">
<title>Node34</title>
<g id="a_Node000034"><a xlink:href="md5-test_8c.html" target="_top" xlink:title=" ">
<polygon fill="white" stroke="#666666" points="3939.5,-24.5 3826.5,-24.5 3826.5,-5.5 3939.5,-5.5 3939.5,-24.5"/>
<text text-anchor="middle" x="3883" y="-12.5" font-family="Helvetica,sans-Serif" font-size="10.00">squid/lib/md5&#45;test.c</text>
</a>
</g>
</g>
<!-- Node5&#45;&gt;Node34 -->
<g id="edge34_Node000005_Node000034" class="edge">
<title>Node5&#45;&gt;Node34</title>
<g id="a_edge34_Node000005_Node000034"><a xlink:title=" ">
<path fill="none" stroke="#63b8ff" d="M3417.88,-70.37C3509.79,-64.38 3676.15,-51.55 3817,-30 3826.61,-28.53 3836.93,-26.54 3846.48,-24.53"/>
<polygon fill="#63b8ff" stroke="#63b8ff" points="3417.62,-66.88 3407.87,-71.02 3418.07,-73.87 3417.62,-66.88"/>
</a>
</g>
</g>
<!-- Node35 -->
<g id="Node000035" class="node">
<title>Node35</title>
<g id="a_Node000035"><a xlink:href="md5_8c.html" target="_top" xlink:title=" ">
<polygon fill="white" stroke="#666666" points="4048.5,-24.5 3957.5,-24.5 3957.5,-5.5 4048.5,-5.5 4048.5,-24.5"/>
<text text-anchor="middle" x="4003" y="-12.5" font-family="Helvetica,sans-Serif" font-size="10.00">squid/lib/md5.c</text>
</a>
</g>
</g>
<!-- Node5&#45;&gt;Node35 -->
<g id="edge35_Node000005_Node000035" class="edge">
<title>Node5&#45;&gt;Node35</title>
<g id="a_edge35_Node000005_Node000035"><a xlink:title=" ">
<path fill="none" stroke="#63b8ff" d="M3417.77,-73.28C3530.13,-70.44 3757.81,-61.01 3948,-30 3956.36,-28.64 3965.31,-26.61 3973.51,-24.52"/>
<polygon fill="#63b8ff" stroke="#63b8ff" points="3417.5,-69.79 3407.59,-73.53 3417.67,-76.79 3417.5,-69.79"/>
</a>
</g>
</g>
<!-- Node36 -->
<g id="Node000036" class="node">
<title>Node36</title>
<g id="a_Node000036"><a xlink:href="ntlmauth_8cc.html" target="_top" xlink:title=" ">
<polygon fill="white" stroke="#666666" points="4171.5,-30 4066.5,-30 4066.5,0 4171.5,0 4171.5,-30"/>
<text text-anchor="start" x="4074.5" y="-18" font-family="Helvetica,sans-Serif" font-size="10.00">squid/lib/ntlmauth</text>
<text text-anchor="middle" x="4119" y="-7" font-family="Helvetica,sans-Serif" font-size="10.00">/ntlmauth.cc</text>
</a>
</g>
</g>
<!-- Node5&#45;&gt;Node36 -->
<g id="edge36_Node000005_Node000036" class="edge">
<title>Node5&#45;&gt;Node36</title>
<g id="a_edge36_Node000005_Node000036"><a xlink:title=" ">
<path fill="none" stroke="#63b8ff" d="M3417.64,-73.8C3545.12,-71.71 3824.32,-63.36 4057,-30 4060.06,-29.56 4063.19,-29.05 4066.34,-28.49"/>
<polygon fill="#63b8ff" stroke="#63b8ff" points="3417.56,-70.3 3407.62,-73.96 3417.67,-77.3 3417.56,-70.3"/>
</a>
</g>
</g>
<!-- Node37 -->
<g id="Node000037" class="node">
<title>Node37</title>
<g id="a_Node000037"><a xlink:href="rfc1738_8c.html" target="_top" xlink:title=" ">
<polygon fill="#fff0f0" stroke="red" points="4296,-24.5 4190,-24.5 4190,-5.5 4296,-5.5 4296,-24.5"/>
<text text-anchor="middle" x="4243" y="-12.5" font-family="Helvetica,sans-Serif" font-size="10.00">squid/lib/rfc1738.c</text>
</a>
</g>
</g>
<!-- Node5&#45;&gt;Node37 -->
<g id="edge37_Node000005_Node000037" class="edge">
<title>Node5&#45;&gt;Node37</title>
<g id="a_edge37_Node000005_Node000037"><a xlink:title=" ">
<path fill="none" stroke="#63b8ff" d="M3418,-74.65C3561.57,-74.09 3899.5,-68.4 4180,-30 4189.66,-28.68 4200.03,-26.64 4209.51,-24.52"/>
<polygon fill="#63b8ff" stroke="#63b8ff" points="3417.57,-71.15 3407.59,-74.68 3417.6,-78.15 3417.57,-71.15"/>
</a>
</g>
</g>
<!-- Node39 -->
<g id="Node000039" class="node">
<title>Node39</title>
<g id="a_Node000039"><a xlink:href="rfc2617_8c.html" target="_top" xlink:title=" ">
<polygon fill="white" stroke="#666666" points="4420,-24.5 4314,-24.5 4314,-5.5 4420,-5.5 4420,-24.5"/>
<text text-anchor="middle" x="4367" y="-12.5" font-family="Helvetica,sans-Serif" font-size="10.00">squid/lib/rfc2617.c</text>
</a>
</g>
</g>
<!-- Node5&#45;&gt;Node39 -->
<g id="edge38_Node000005_Node000039" class="edge">
<title>Node5&#45;&gt;Node39</title>
<g id="a_edge38_Node000005_Node000039"><a xlink:title=" ">
<path fill="none" stroke="#63b8ff" d="M3417.77,-72.85C3608.09,-68.09 4133.44,-53.18 4305,-30 4314.51,-28.71 4324.72,-26.69 4334.05,-24.57"/>
<polygon fill="#63b8ff" stroke="#63b8ff" points="3417.52,-69.35 3407.61,-73.1 3417.69,-76.35 3417.52,-69.35"/>
</a>
</g>
</g>
<!-- Node40 -->
<g id="Node000040" class="node">
<title>Node40</title>
<g id="a_Node000040"><a xlink:href="asn1_8c.html" target="_top" xlink:title=" ">
<polygon fill="white" stroke="#666666" points="4572,-24.5 4438,-24.5 4438,-5.5 4572,-5.5 4572,-24.5"/>
<text text-anchor="middle" x="4505" y="-12.5" font-family="Helvetica,sans-Serif" font-size="10.00">squid/lib/snmplib/asn1.c</text>
</a>
</g>
</g>
<!-- Node5&#45;&gt;Node40 -->
<g id="edge39_Node000005_Node000040" class="edge">
<title>Node5&#45;&gt;Node40</title>
<g id="a_edge39_Node000005_Node000040"><a xlink:title=" ">
<path fill="none" stroke="#63b8ff" d="M3417.9,-75.03C3590.26,-75.59 4049.2,-72.58 4429,-30 4440.6,-28.7 4453.09,-26.67 4464.53,-24.55"/>
<polygon fill="#63b8ff" stroke="#63b8ff" points="3417.71,-71.53 3407.7,-74.99 3417.68,-78.53 3417.71,-71.53"/>
</a>
</g>
</g>
<!-- Node41 -->
<g id="Node000041" class="node">
<title>Node41</title>
<g id="a_Node000041"><a xlink:href="coexistance_8c.html" target="_top" xlink:title=" ">
<polygon fill="white" stroke="#666666" points="4760,-24.5 4590,-24.5 4590,-5.5 4760,-5.5 4760,-24.5"/>
<text text-anchor="middle" x="4675" y="-12.5" font-family="Helvetica,sans-Serif" font-size="10.00">squid/lib/snmplib/coexistance.c</text>
</a>
</g>
</g>
<!-- Node5&#45;&gt;Node41 -->
<g id="edge40_Node000005_Node000041" class="edge">
<title>Node5&#45;&gt;Node41</title>
<g id="a_edge40_Node000005_Node000041"><a xlink:title=" ">
<path fill="none" stroke="#63b8ff" d="M3417.85,-74.71C3606.11,-74.68 4139.6,-70.71 4581,-30 4595.29,-28.68 4610.73,-26.64 4624.88,-24.52"/>
<polygon fill="#63b8ff" stroke="#63b8ff" points="3417.82,-71.21 3407.82,-74.71 3417.82,-78.21 3417.82,-71.21"/>
</a>
</g>
</g>
<!-- Node42 -->
<g id="Node000042" class="node">
<title>Node42</title>
<g id="a_Node000042"><a xlink:href="mib_8c.html" target="_top" xlink:title=" ">
<polygon fill="white" stroke="#666666" points="4908,-24.5 4778,-24.5 4778,-5.5 4908,-5.5 4908,-24.5"/>
<text text-anchor="middle" x="4843" y="-12.5" font-family="Helvetica,sans-Serif" font-size="10.00">squid/lib/snmplib/mib.c</text>
</a>
</g>
</g>
<!-- Node5&#45;&gt;Node42 -->
<g id="edge41_Node000005_Node000042" class="edge">
<title>Node5&#45;&gt;Node42</title>
<g id="a_edge41_Node000005_Node000042"><a xlink:title=" ">
<path fill="none" stroke="#63b8ff" d="M3417.9,-73.75C3665.86,-70.88 4502.63,-59.19 4769,-30 4780.44,-28.75 4792.76,-26.7 4804,-24.56"/>
<polygon fill="#63b8ff" stroke="#63b8ff" points="3417.55,-70.26 3407.59,-73.87 3417.63,-77.26 3417.55,-70.26"/>
</a>
</g>
</g>
<!-- Node43 -->
<g id="Node000043" class="node">
<title>Node43</title>
<g id="a_Node000043"><a xlink:href="parse_8c.html" target="_top" xlink:title=" ">
<polygon fill="white" stroke="#666666" points="5064,-24.5 4926,-24.5 4926,-5.5 5064,-5.5 5064,-24.5"/>
<text text-anchor="middle" x="4995" y="-12.5" font-family="Helvetica,sans-Serif" font-size="10.00">squid/lib/snmplib/parse.c</text>
</a>
</g>
</g>
<!-- Node5&#45;&gt;Node43 -->
<g id="edge42_Node000005_Node000043" class="edge">
<title>Node5&#45;&gt;Node43</title>
<g id="a_edge42_Node000005_Node000043"><a xlink:title=" ">
<path fill="none" stroke="#63b8ff" d="M3417.99,-73.9C3682.34,-71.44 4620.09,-60.68 4917,-30 4929.04,-28.76 4942.02,-26.71 4953.87,-24.57"/>
<polygon fill="#63b8ff" stroke="#63b8ff" points="3417.72,-70.41 3407.75,-74 3417.79,-77.41 3417.72,-70.41"/>
</a>
</g>
</g>
<!-- Node44 -->
<g id="Node000044" class="node">
<title>Node44</title>
<g id="a_Node000044"><a xlink:href="snmp__api_8c.html" target="_top" xlink:title=" ">
<polygon fill="white" stroke="#666666" points="5212,-30 5082,-30 5082,0 5212,0 5212,-30"/>
<text text-anchor="start" x="5090" y="-18" font-family="Helvetica,sans-Serif" font-size="10.00">squid/lib/snmplib/snmp</text>
<text text-anchor="middle" x="5147" y="-7" font-family="Helvetica,sans-Serif" font-size="10.00">_api.c</text>
</a>
</g>
</g>
<!-- Node5&#45;&gt;Node44 -->
<g id="edge43_Node000005_Node000044" class="edge">
<title>Node5&#45;&gt;Node44</title>
<g id="a_edge43_Node000005_Node000044"><a xlink:title=" ">
<path fill="none" stroke="#63b8ff" d="M3417.86,-74.2C3698.42,-72.77 4743.99,-65.13 5073,-30 5075.86,-29.69 5078.78,-29.34 5081.71,-28.94"/>
<polygon fill="#63b8ff" stroke="#63b8ff" points="3417.79,-70.7 3407.81,-74.25 3417.82,-77.7 3417.79,-70.7"/>
</a>
</g>
</g>
<!-- Node45 -->
<g id="Node000045" class="node">
<title>Node45</title>
<g id="a_Node000045"><a xlink:href="snmp__api__error_8c.html" target="_top" xlink:title=" ">
<polygon fill="white" stroke="#666666" points="5360,-30 5230,-30 5230,0 5360,0 5360,-30"/>
<text text-anchor="start" x="5238" y="-18" font-family="Helvetica,sans-Serif" font-size="10.00">squid/lib/snmplib/snmp</text>
<text text-anchor="middle" x="5295" y="-7" font-family="Helvetica,sans-Serif" font-size="10.00">_api_error.c</text>
</a>
</g>
</g>
<!-- Node5&#45;&gt;Node45 -->
<g id="edge44_Node000005_Node000045" class="edge">
<title>Node5&#45;&gt;Node45</title>
<g id="a_edge44_Node000005_Node000045"><a xlink:title=" ">
<path fill="none" stroke="#63b8ff" d="M3417.88,-74.37C3713.36,-73.57 4861.37,-68.03 5221,-30 5223.86,-29.7 5226.78,-29.34 5229.72,-28.95"/>
<polygon fill="#63b8ff" stroke="#63b8ff" points="3417.73,-70.87 3407.74,-74.39 3417.74,-77.87 3417.73,-70.87"/>
</a>
</g>
</g>
<!-- Node46 -->
<g id="Node000046" class="node">
<title>Node46</title>
<g id="a_Node000046"><a xlink:href="snmp__error_8c.html" target="_top" xlink:title=" ">
<polygon fill="white" stroke="#666666" points="5508,-30 5378,-30 5378,0 5508,0 5508,-30"/>
<text text-anchor="start" x="5386" y="-18" font-family="Helvetica,sans-Serif" font-size="10.00">squid/lib/snmplib/snmp</text>
<text text-anchor="middle" x="5443" y="-7" font-family="Helvetica,sans-Serif" font-size="10.00">_error.c</text>
</a>
</g>
</g>
<!-- Node5&#45;&gt;Node46 -->
<g id="edge45_Node000005_Node000046" class="edge">
<title>Node5&#45;&gt;Node46</title>
<g id="a_edge45_Node000005_Node000046"><a xlink:title=" ">
<path fill="none" stroke="#63b8ff" d="M3417.72,-74.51C3727.2,-74.31 4978.58,-70.95 5369,-30 5371.86,-29.7 5374.78,-29.35 5377.72,-28.96"/>
<polygon fill="#63b8ff" stroke="#63b8ff" points="3417.54,-71.01 3407.54,-74.51 3417.54,-78.01 3417.54,-71.01"/>
</a>
</g>
</g>
<!-- Node47 -->
<g id="Node000047" class="node">
<title>Node47</title>
<g id="a_Node000047"><a xlink:href="snmp__msg_8c.html" target="_top" xlink:title=" ">
<polygon fill="white" stroke="#666666" points="5656,-30 5526,-30 5526,0 5656,0 5656,-30"/>
<text text-anchor="start" x="5534" y="-18" font-family="Helvetica,sans-Serif" font-size="10.00">squid/lib/snmplib/snmp</text>
<text text-anchor="middle" x="5591" y="-7" font-family="Helvetica,sans-Serif" font-size="10.00">_msg.c</text>
</a>
</g>
</g>
<!-- Node5&#45;&gt;Node47 -->
<g id="edge46_Node000005_Node000047" class="edge">
<title>Node5&#45;&gt;Node47</title>
<g id="a_edge46_Node000005_Node000047"><a xlink:title=" ">
<path fill="none" stroke="#63b8ff" d="M3417.73,-74.63C3740.99,-75 5095.8,-73.86 5517,-30 5519.86,-29.7 5522.78,-29.35 5525.72,-28.96"/>
<polygon fill="#63b8ff" stroke="#63b8ff" points="3417.57,-71.13 3407.57,-74.62 3417.56,-78.13 3417.57,-71.13"/>
</a>
</g>
</g>
<!-- Node48 -->
<g id="Node000048" class="node">
<title>Node48</title>
<g id="a_Node000048"><a xlink:href="snmp__pdu_8c.html" target="_top" xlink:title=" ">
<polygon fill="white" stroke="#666666" points="5804,-30 5674,-30 5674,0 5804,0 5804,-30"/>
<text text-anchor="start" x="5682" y="-18" font-family="Helvetica,sans-Serif" font-size="10.00">squid/lib/snmplib/snmp</text>
<text text-anchor="middle" x="5739" y="-7" font-family="Helvetica,sans-Serif" font-size="10.00">_pdu.c</text>
</a>
</g>
</g>
<!-- Node5&#45;&gt;Node48 -->
<g id="edge47_Node000005_Node000048" class="edge">
<title>Node5&#45;&gt;Node48</title>
<g id="a_edge47_Node000005_Node000048"><a xlink:title=" ">
<path fill="none" stroke="#63b8ff" d="M3417.77,-74.74C3754.41,-75.65 5212.96,-76.77 5665,-30 5667.86,-29.7 5670.78,-29.36 5673.72,-28.97"/>
<polygon fill="#63b8ff" stroke="#63b8ff" points="3417.68,-71.24 3407.67,-74.71 3417.66,-78.24 3417.68,-71.24"/>
</a>
</g>
</g>
<!-- Node49 -->
<g id="Node000049" class="node">
<title>Node49</title>
<g id="a_Node000049"><a xlink:href="snmp__vars_8c.html" target="_top" xlink:title=" ">
<polygon fill="white" stroke="#666666" points="5952,-30 5822,-30 5822,0 5952,0 5952,-30"/>
<text text-anchor="start" x="5830" y="-18" font-family="Helvetica,sans-Serif" font-size="10.00">squid/lib/snmplib/snmp</text>
<text text-anchor="middle" x="5887" y="-7" font-family="Helvetica,sans-Serif" font-size="10.00">_vars.c</text>
</a>
</g>
</g>
<!-- Node5&#45;&gt;Node49 -->
<g id="edge48_Node000005_Node000049" class="edge">
<title>Node5&#45;&gt;Node49</title>
<g id="a_edge48_Node000005_Node000049"><a xlink:title=" ">
<path fill="none" stroke="#63b8ff" d="M3417.9,-74.83C3767.68,-76.26 5330.11,-79.68 5813,-30 5815.86,-29.71 5818.78,-29.36 5821.72,-28.97"/>
<polygon fill="#63b8ff" stroke="#63b8ff" points="3417.68,-71.33 3407.67,-74.79 3417.65,-78.33 3417.68,-71.33"/>
</a>
</g>
</g>
<!-- Node50 -->
<g id="Node000050" class="node">
<title>Node50</title>
<g id="a_Node000050"><a xlink:href="snmplib__debug_8c.html" target="_top" xlink:title=" ">
<polygon fill="white" stroke="#666666" points="6112,-30 5970,-30 5970,0 6112,0 6112,-30"/>
<text text-anchor="start" x="5978" y="-18" font-family="Helvetica,sans-Serif" font-size="10.00">squid/lib/snmplib/snmplib</text>
<text text-anchor="middle" x="6041" y="-7" font-family="Helvetica,sans-Serif" font-size="10.00">_debug.c</text>
</a>
</g>
</g>
<!-- Node5&#45;&gt;Node50 -->
<g id="edge49_Node000005_Node000050" class="edge">
<title>Node5&#45;&gt;Node50</title>
<g id="a_edge49_Node000005_Node000050"><a xlink:title=" ">
<path fill="none" stroke="#63b8ff" d="M3418.02,-73.96C3807.81,-70.88 5701.89,-54.73 5961,-30 5963.95,-29.72 5966.95,-29.39 5969.98,-29.02"/>
<polygon fill="#63b8ff" stroke="#63b8ff" points="3417.71,-70.46 3407.74,-74.04 3417.77,-77.46 3417.71,-70.46"/>
</a>
</g>
</g>
<!-- Node51 -->
<g id="Node000051" class="node">
<title>Node51</title>
<g id="a_Node000051"><a xlink:href="sspwin32_8cc.html" target="_top" xlink:title=" ">
<polygon fill="white" stroke="#666666" points="6273.5,-24.5 6130.5,-24.5 6130.5,-5.5 6273.5,-5.5 6273.5,-24.5"/>
<text text-anchor="middle" x="6202" y="-12.5" font-family="Helvetica,sans-Serif" font-size="10.00">squid/lib/sspi/sspwin32.cc</text>
</a>
</g>
</g>
<!-- Node5&#45;&gt;Node51 -->
<g id="edge50_Node000005_Node000051" class="edge">
<title>Node5&#45;&gt;Node51</title>
<g id="a_edge50_Node000005_Node000051"><a xlink:title=" ">
<path fill="none" stroke="#63b8ff" d="M3417.74,-74.03C3820.92,-71.22 5844.97,-55.91 6121,-30 6133.79,-28.8 6147.6,-26.71 6160.13,-24.51"/>
<polygon fill="#63b8ff" stroke="#63b8ff" points="3417.66,-70.53 3407.68,-74.1 3417.7,-77.53 3417.66,-70.53"/>
</a>
</g>
</g>
</g>
</svg>

<g id="navigator" transform="translate(0 0)" fill="#404254">
  <rect fill="#f2f5e9" fill-opacity="0.5" stroke="#606060" stroke-width=".5" x="0" y="0" width="60" height="60"/>
  <use id="zoomplus" xlink:href="#zoomPlus" x="17" y="9" onmousedown="handleZoom(evt,'in')"/>
  <use id="zoomminus" xlink:href="#zoomMin" x="42" y="9" onmousedown="handleZoom(evt,'out')"/>
  <use id="reset" xlink:href="#resetDef" x="30" y="36" onmousedown="handleReset()"/>
   <use id="arrowup" xlink:href="#arrowUp" x="0" y="0" onmousedown="handlePan(0,-1)"/>
  <use id="arrowright" xlink:href="#arrowRight" x="0" y="0" onmousedown="handlePan(1,0)"/>
  <use id="arrowdown" xlink:href="#arrowDown" x="0" y="0" onmousedown="handlePan(0,1)"/>
  <use id="arrowleft" xlink:href="#arrowLeft" x="0" y="0" onmousedown="handlePan(-1,0)"/>
</g>
<svg viewBox="0 0 15 15" width="100%" height="30px" preserveAspectRatio="xMaxYMin meet">
 <g id="arrow_out" transform="scale(0.3 0.3)">
  <a xlink:href="xstrto_8h__dep__incl_org.svg" target="_base">
   <rect id="button" ry="5" rx="5" y="6" x="6" height="38" width="38"
        fill="#f2f5e9" fill-opacity="0.5" stroke="#606060" stroke-width="1.0"/>
   <path id="arrow"
     d="M 11.500037,31.436501 C 11.940474,20.09759 22.043105,11.32322 32.158766,21.979434 L 37.068811,17.246167 C 37.068811,17.246167 37.088388,32 37.088388,32 L 22.160133,31.978069 C 22.160133,31.978069 26.997745,27.140456 26.997745,27.140456 C 18.528582,18.264221 13.291696,25.230495 11.500037,31.436501 z"
     style="fill:#404040;"/>
  </a>
 </g>
</svg>

<style type='text/css'>
<![CDATA[
[data-mouse-over-selected='false'] { opacity: 0.7; }
[data-mouse-over-selected='true']  { opacity: 1.0; }
]]>
</style>
<script type="application/ecmascript"><![CDATA[
document.addEventListener('DOMContentLoaded', (event) => {
  highlightEdges();
  highlightAdjacentNodes();
});
]]></script>
</svg>
